<?xml version="1.0" encoding="utf-8" standalone="no"?>
<!DOCTYPE svg PUBLIC "-//W3C//DTD SVG 1.1//EN"
  "http://www.w3.org/Graphics/SVG/1.1/DTD/svg11.dtd">
<svg xmlns:xlink="http://www.w3.org/1999/xlink" width="720pt" height="720pt" viewBox="0 0 720 720" xmlns="http://www.w3.org/2000/svg" version="1.1">
 <metadata>
  <rdf:RDF xmlns:dc="http://purl.org/dc/elements/1.1/" xmlns:cc="http://creativecommons.org/ns#" xmlns:rdf="http://www.w3.org/1999/02/22-rdf-syntax-ns#">
   <cc:Work>
    <dc:type rdf:resource="http://purl.org/dc/dcmitype/StillImage"/>
    <dc:date>2023-12-19T18:14:14.625742</dc:date>
    <dc:format>image/svg+xml</dc:format>
    <dc:creator>
     <cc:Agent>
      <dc:title>Matplotlib v3.5.2, https://matplotlib.org/</dc:title>
     </cc:Agent>
    </dc:creator>
   </cc:Work>
  </rdf:RDF>
 </metadata>
 <defs>
  <style type="text/css">*{stroke-linejoin: round; stroke-linecap: butt}</style>
 </defs>
 <g id="figure_1">
  <g id="patch_1">
   <path d="M 0 720 
L 720 720 
L 720 0 
L 0 0 
z
" style="fill: #ffffff"/>
  </g>
  <g id="axes_1">
   <g id="patch_2">
    <path d="M 90 333.490909 
L 343.636364 333.490909 
L 343.636364 86.4 
L 90 86.4 
z
" style="fill: #ffffff"/>
   </g>
   <g id="matplotlib.axis_1">
    <g id="xtick_1">
     <g id="line2d_1">
      <defs>
       <path id="m2b94be9ca5" d="M 0 0 
L 0 3.5 
" style="stroke: #000000; stroke-width: 0.8"/>
      </defs>
      <g>
       <use xlink:href="#m2b94be9ca5" x="90" y="333.490909" style="stroke: #000000; stroke-width: 0.8"/>
      </g>
     </g>
     <g id="text_1">
      <!-- 0.0 -->
      <g transform="translate(82.048438 348.089347)scale(0.1 -0.1)">
       <defs>
        <path id="DejaVuSans-30" d="M 2034 4250 
Q 1547 4250 1301 3770 
Q 1056 3291 1056 2328 
Q 1056 1369 1301 889 
Q 1547 409 2034 409 
Q 2525 409 2770 889 
Q 3016 1369 3016 2328 
Q 3016 3291 2770 3770 
Q 2525 4250 2034 4250 
z
M 2034 4750 
Q 2819 4750 3233 4129 
Q 3647 3509 3647 2328 
Q 3647 1150 3233 529 
Q 2819 -91 2034 -91 
Q 1250 -91 836 529 
Q 422 1150 422 2328 
Q 422 3509 836 4129 
Q 1250 4750 2034 4750 
z
" transform="scale(0.015625)"/>
        <path id="DejaVuSans-2e" d="M 684 794 
L 1344 794 
L 1344 0 
L 684 0 
L 684 794 
z
" transform="scale(0.015625)"/>
       </defs>
       <use xlink:href="#DejaVuSans-30"/>
       <use xlink:href="#DejaVuSans-2e" x="63.623047"/>
       <use xlink:href="#DejaVuSans-30" x="95.410156"/>
      </g>
     </g>
    </g>
    <g id="xtick_2">
     <g id="line2d_2">
      <g>
       <use xlink:href="#m2b94be9ca5" x="140.727273" y="333.490909" style="stroke: #000000; stroke-width: 0.8"/>
      </g>
     </g>
     <g id="text_2">
      <!-- 0.2 -->
      <g transform="translate(132.77571 348.089347)scale(0.1 -0.1)">
       <defs>
        <path id="DejaVuSans-32" d="M 1228 531 
L 3431 531 
L 3431 0 
L 469 0 
L 469 531 
Q 828 903 1448 1529 
Q 2069 2156 2228 2338 
Q 2531 2678 2651 2914 
Q 2772 3150 2772 3378 
Q 2772 3750 2511 3984 
Q 2250 4219 1831 4219 
Q 1534 4219 1204 4116 
Q 875 4013 500 3803 
L 500 4441 
Q 881 4594 1212 4672 
Q 1544 4750 1819 4750 
Q 2544 4750 2975 4387 
Q 3406 4025 3406 3419 
Q 3406 3131 3298 2873 
Q 3191 2616 2906 2266 
Q 2828 2175 2409 1742 
Q 1991 1309 1228 531 
z
" transform="scale(0.015625)"/>
       </defs>
       <use xlink:href="#DejaVuSans-30"/>
       <use xlink:href="#DejaVuSans-2e" x="63.623047"/>
       <use xlink:href="#DejaVuSans-32" x="95.410156"/>
      </g>
     </g>
    </g>
    <g id="xtick_3">
     <g id="line2d_3">
      <g>
       <use xlink:href="#m2b94be9ca5" x="191.454545" y="333.490909" style="stroke: #000000; stroke-width: 0.8"/>
      </g>
     </g>
     <g id="text_3">
      <!-- 0.4 -->
      <g transform="translate(183.502983 348.089347)scale(0.1 -0.1)">
       <defs>
        <path id="DejaVuSans-34" d="M 2419 4116 
L 825 1625 
L 2419 1625 
L 2419 4116 
z
M 2253 4666 
L 3047 4666 
L 3047 1625 
L 3713 1625 
L 3713 1100 
L 3047 1100 
L 3047 0 
L 2419 0 
L 2419 1100 
L 313 1100 
L 313 1709 
L 2253 4666 
z
" transform="scale(0.015625)"/>
       </defs>
       <use xlink:href="#DejaVuSans-30"/>
       <use xlink:href="#DejaVuSans-2e" x="63.623047"/>
       <use xlink:href="#DejaVuSans-34" x="95.410156"/>
      </g>
     </g>
    </g>
    <g id="xtick_4">
     <g id="line2d_4">
      <g>
       <use xlink:href="#m2b94be9ca5" x="242.181818" y="333.490909" style="stroke: #000000; stroke-width: 0.8"/>
      </g>
     </g>
     <g id="text_4">
      <!-- 0.6 -->
      <g transform="translate(234.230256 348.089347)scale(0.1 -0.1)">
       <defs>
        <path id="DejaVuSans-36" d="M 2113 2584 
Q 1688 2584 1439 2293 
Q 1191 2003 1191 1497 
Q 1191 994 1439 701 
Q 1688 409 2113 409 
Q 2538 409 2786 701 
Q 3034 994 3034 1497 
Q 3034 2003 2786 2293 
Q 2538 2584 2113 2584 
z
M 3366 4563 
L 3366 3988 
Q 3128 4100 2886 4159 
Q 2644 4219 2406 4219 
Q 1781 4219 1451 3797 
Q 1122 3375 1075 2522 
Q 1259 2794 1537 2939 
Q 1816 3084 2150 3084 
Q 2853 3084 3261 2657 
Q 3669 2231 3669 1497 
Q 3669 778 3244 343 
Q 2819 -91 2113 -91 
Q 1303 -91 875 529 
Q 447 1150 447 2328 
Q 447 3434 972 4092 
Q 1497 4750 2381 4750 
Q 2619 4750 2861 4703 
Q 3103 4656 3366 4563 
z
" transform="scale(0.015625)"/>
       </defs>
       <use xlink:href="#DejaVuSans-30"/>
       <use xlink:href="#DejaVuSans-2e" x="63.623047"/>
       <use xlink:href="#DejaVuSans-36" x="95.410156"/>
      </g>
     </g>
    </g>
    <g id="xtick_5">
     <g id="line2d_5">
      <g>
       <use xlink:href="#m2b94be9ca5" x="292.909091" y="333.490909" style="stroke: #000000; stroke-width: 0.8"/>
      </g>
     </g>
     <g id="text_5">
      <!-- 0.8 -->
      <g transform="translate(284.957528 348.089347)scale(0.1 -0.1)">
       <defs>
        <path id="DejaVuSans-38" d="M 2034 2216 
Q 1584 2216 1326 1975 
Q 1069 1734 1069 1313 
Q 1069 891 1326 650 
Q 1584 409 2034 409 
Q 2484 409 2743 651 
Q 3003 894 3003 1313 
Q 3003 1734 2745 1975 
Q 2488 2216 2034 2216 
z
M 1403 2484 
Q 997 2584 770 2862 
Q 544 3141 544 3541 
Q 544 4100 942 4425 
Q 1341 4750 2034 4750 
Q 2731 4750 3128 4425 
Q 3525 4100 3525 3541 
Q 3525 3141 3298 2862 
Q 3072 2584 2669 2484 
Q 3125 2378 3379 2068 
Q 3634 1759 3634 1313 
Q 3634 634 3220 271 
Q 2806 -91 2034 -91 
Q 1263 -91 848 271 
Q 434 634 434 1313 
Q 434 1759 690 2068 
Q 947 2378 1403 2484 
z
M 1172 3481 
Q 1172 3119 1398 2916 
Q 1625 2713 2034 2713 
Q 2441 2713 2670 2916 
Q 2900 3119 2900 3481 
Q 2900 3844 2670 4047 
Q 2441 4250 2034 4250 
Q 1625 4250 1398 4047 
Q 1172 3844 1172 3481 
z
" transform="scale(0.015625)"/>
       </defs>
       <use xlink:href="#DejaVuSans-30"/>
       <use xlink:href="#DejaVuSans-2e" x="63.623047"/>
       <use xlink:href="#DejaVuSans-38" x="95.410156"/>
      </g>
     </g>
    </g>
    <g id="xtick_6">
     <g id="line2d_6">
      <g>
       <use xlink:href="#m2b94be9ca5" x="343.636364" y="333.490909" style="stroke: #000000; stroke-width: 0.8"/>
      </g>
     </g>
     <g id="text_6">
      <!-- 1.0 -->
      <g transform="translate(335.684801 348.089347)scale(0.1 -0.1)">
       <defs>
        <path id="DejaVuSans-31" d="M 794 531 
L 1825 531 
L 1825 4091 
L 703 3866 
L 703 4441 
L 1819 4666 
L 2450 4666 
L 2450 531 
L 3481 531 
L 3481 0 
L 794 0 
L 794 531 
z
" transform="scale(0.015625)"/>
       </defs>
       <use xlink:href="#DejaVuSans-31"/>
       <use xlink:href="#DejaVuSans-2e" x="63.623047"/>
       <use xlink:href="#DejaVuSans-30" x="95.410156"/>
      </g>
     </g>
    </g>
   </g>
   <g id="matplotlib.axis_2">
    <g id="ytick_1">
     <g id="line2d_7">
      <defs>
       <path id="md43d92821e" d="M 0 0 
L -3.5 0 
" style="stroke: #000000; stroke-width: 0.8"/>
      </defs>
      <g>
       <use xlink:href="#md43d92821e" x="90" y="333.490909" style="stroke: #000000; stroke-width: 0.8"/>
      </g>
     </g>
     <g id="text_7">
      <!-- 0.0 -->
      <g transform="translate(67.096875 337.290128)scale(0.1 -0.1)">
       <use xlink:href="#DejaVuSans-30"/>
       <use xlink:href="#DejaVuSans-2e" x="63.623047"/>
       <use xlink:href="#DejaVuSans-30" x="95.410156"/>
      </g>
     </g>
    </g>
    <g id="ytick_2">
     <g id="line2d_8">
      <g>
       <use xlink:href="#md43d92821e" x="90" y="284.072727" style="stroke: #000000; stroke-width: 0.8"/>
      </g>
     </g>
     <g id="text_8">
      <!-- 0.2 -->
      <g transform="translate(67.096875 287.871946)scale(0.1 -0.1)">
       <use xlink:href="#DejaVuSans-30"/>
       <use xlink:href="#DejaVuSans-2e" x="63.623047"/>
       <use xlink:href="#DejaVuSans-32" x="95.410156"/>
      </g>
     </g>
    </g>
    <g id="ytick_3">
     <g id="line2d_9">
      <g>
       <use xlink:href="#md43d92821e" x="90" y="234.654545" style="stroke: #000000; stroke-width: 0.8"/>
      </g>
     </g>
     <g id="text_9">
      <!-- 0.4 -->
      <g transform="translate(67.096875 238.453764)scale(0.1 -0.1)">
       <use xlink:href="#DejaVuSans-30"/>
       <use xlink:href="#DejaVuSans-2e" x="63.623047"/>
       <use xlink:href="#DejaVuSans-34" x="95.410156"/>
      </g>
     </g>
    </g>
    <g id="ytick_4">
     <g id="line2d_10">
      <g>
       <use xlink:href="#md43d92821e" x="90" y="185.236364" style="stroke: #000000; stroke-width: 0.8"/>
      </g>
     </g>
     <g id="text_10">
      <!-- 0.6 -->
      <g transform="translate(67.096875 189.035582)scale(0.1 -0.1)">
       <use xlink:href="#DejaVuSans-30"/>
       <use xlink:href="#DejaVuSans-2e" x="63.623047"/>
       <use xlink:href="#DejaVuSans-36" x="95.410156"/>
      </g>
     </g>
    </g>
    <g id="ytick_5">
     <g id="line2d_11">
      <g>
       <use xlink:href="#md43d92821e" x="90" y="135.818182" style="stroke: #000000; stroke-width: 0.8"/>
      </g>
     </g>
     <g id="text_11">
      <!-- 0.8 -->
      <g transform="translate(67.096875 139.617401)scale(0.1 -0.1)">
       <use xlink:href="#DejaVuSans-30"/>
       <use xlink:href="#DejaVuSans-2e" x="63.623047"/>
       <use xlink:href="#DejaVuSans-38" x="95.410156"/>
      </g>
     </g>
    </g>
    <g id="ytick_6">
     <g id="line2d_12">
      <g>
       <use xlink:href="#md43d92821e" x="90" y="86.4" style="stroke: #000000; stroke-width: 0.8"/>
      </g>
     </g>
     <g id="text_12">
      <!-- 1.0 -->
      <g transform="translate(67.096875 90.199219)scale(0.1 -0.1)">
       <use xlink:href="#DejaVuSans-31"/>
       <use xlink:href="#DejaVuSans-2e" x="63.623047"/>
       <use xlink:href="#DejaVuSans-30" x="95.410156"/>
      </g>
     </g>
    </g>
   </g>
   <g id="patch_3">
    <path d="M 90 333.490909 
L 90 86.4 
" style="fill: none; stroke: #000000; stroke-width: 0.8; stroke-linejoin: miter; stroke-linecap: square"/>
   </g>
   <g id="patch_4">
    <path d="M 343.636364 333.490909 
L 343.636364 86.4 
" style="fill: none; stroke: #000000; stroke-width: 0.8; stroke-linejoin: miter; stroke-linecap: square"/>
   </g>
   <g id="patch_5">
    <path d="M 90 333.490909 
L 343.636364 333.490909 
" style="fill: none; stroke: #000000; stroke-width: 0.8; stroke-linejoin: miter; stroke-linecap: square"/>
   </g>
   <g id="patch_6">
    <path d="M 90 86.4 
L 343.636364 86.4 
" style="fill: none; stroke: #000000; stroke-width: 0.8; stroke-linejoin: miter; stroke-linecap: square"/>
   </g>
  </g>
  <g id="axes_2">
   <g id="patch_7">
    <path d="M 394.363636 333.490909 
L 648 333.490909 
L 648 86.4 
L 394.363636 86.4 
z
" style="fill: #ffffff"/>
   </g>
   <g id="PolyCollection_1">
    <defs>
     <path id="mce0e64f11f" d="M 405.892562 -524.685948 
L 405.892562 -524.685948 
L 407.342741 -515.396763 
L 408.792921 -484.908415 
L 410.2431 -496.150615 
L 411.693279 -480.571042 
L 413.143459 -508.156882 
L 414.593638 -521.08324 
L 416.043817 -518.198055 
L 417.493997 -543.911152 
L 418.944176 -552.296994 
L 420.394355 -558.230567 
L 421.844535 -561.667958 
L 423.294714 -563.225285 
L 424.744893 -563.771666 
L 426.195073 -563.916567 
L 427.645252 -563.944082 
L 429.095431 -563.933764 
L 430.54561 -563.856691 
L 431.99579 -563.563027 
L 433.445969 -562.707268 
L 434.896148 -560.818605 
L 436.346328 -557.734803 
L 437.796507 -554.162596 
L 439.246686 -541.017978 
L 440.696866 -543.869632 
L 442.147045 -550.884043 
L 443.597224 -550.669786 
L 445.047404 -549.756906 
L 446.497583 -540.592508 
L 447.947762 -550.925264 
L 449.397942 -553.598963 
L 450.848121 -556.204666 
L 452.2983 -549.316691 
L 453.74848 -559.8548 
L 455.198659 -561.383389 
L 456.648838 -562.625866 
L 458.099018 -563.410314 
L 459.549197 -563.799951 
L 460.999376 -564.027054 
L 462.449556 -564.414706 
L 463.899735 -565.402316 
L 465.349914 -567.43041 
L 466.800094 -570.446048 
L 468.250273 -573.429265 
L 469.700452 -567.875853 
L 471.150632 -574.284646 
L 472.600811 -572.62453 
L 474.05099 -566.094682 
L 475.501169 -564.853745 
L 476.951349 -569.116223 
L 478.401528 -567.602601 
L 479.851707 -566.332669 
L 481.301887 -566.100011 
L 482.752066 -567.228386 
L 484.202245 -569.138794 
L 485.652425 -570.233251 
L 487.102604 -552.628708 
L 488.552783 -565.070049 
L 490.002963 -548.548065 
L 491.453142 -558.980622 
L 492.903321 -559.014151 
L 494.353501 -559.570124 
L 495.80368 -559.356587 
L 497.253859 -558.511857 
L 498.704039 -546.851414 
L 500.154218 -558.485746 
L 501.604397 -559.223651 
L 503.054577 -559.044387 
L 504.504756 -557.344159 
L 505.954935 -554.699732 
L 507.405115 -538.088112 
L 508.855294 -549.770918 
L 510.305473 -547.154889 
L 511.755653 -544.693908 
L 513.205832 -528.423445 
L 514.656011 -547.311829 
L 516.106191 -552.744727 
L 517.55637 -558.194173 
L 519.006549 -562.191881 
L 520.456729 -564.906687 
L 521.906908 -567.053689 
L 523.357087 -568.782219 
L 524.807266 -562.014911 
L 526.257446 -569.794621 
L 527.707625 -569.861457 
L 529.157804 -570.918096 
L 530.607984 -573.180782 
L 532.058163 -568.286342 
L 533.508342 -576.965162 
L 534.958522 -578.959672 
L 536.408701 -576.436046 
L 537.85888 -572.050044 
L 539.30906 -581.461397 
L 540.759239 -580.011349 
L 542.209418 -573.860834 
L 543.659598 -584.198056 
L 545.109777 -591.758108 
L 546.559956 -592.577094 
L 548.010136 -598.507122 
L 549.460315 -605.538941 
L 550.910494 -602.020376 
L 552.360674 -600.846569 
L 553.810853 -581.483688 
L 555.261032 -582.626968 
L 556.711212 -575.098027 
L 558.161391 -570.259041 
L 559.61157 -568.571352 
L 561.06175 -569.36941 
L 562.511929 -571.049139 
L 563.962108 -563.009497 
L 565.412288 -570.893006 
L 566.862467 -568.719234 
L 568.312646 -566.503761 
L 569.762826 -565.015788 
L 571.213005 -564.297426 
L 572.663184 -564.039409 
L 574.113363 -563.969289 
L 575.563543 -563.954732 
L 577.013722 -563.952096 
L 578.463901 -563.952096 
L 579.914081 -563.952096 
L 581.36426 -563.952096 
L 582.814439 -563.952096 
L 584.264619 -563.952096 
L 585.714798 -563.961911 
L 587.164977 -564.016096 
L 588.615157 -564.277115 
L 590.065336 -565.237574 
L 591.515515 -567.918017 
L 592.965695 -573.492105 
L 594.415874 -581.908538 
L 595.866053 -590.606003 
L 597.316233 -582.239344 
L 598.766412 -596.019443 
L 600.216591 -593.634709 
L 601.666771 -591.865701 
L 603.11695 -579.438278 
L 604.567129 -594.232072 
L 606.017309 -598.653985 
L 607.467488 -603.44026 
L 608.917667 -594.547527 
L 610.367847 -598.04526 
L 611.818026 -587.021459 
L 613.268205 -576.228855 
L 614.718385 -569.058864 
L 616.168564 -565.607952 
L 617.618743 -564.370762 
L 619.068923 -564.034536 
L 620.519102 -563.964738 
L 621.969281 -563.952096 
L 623.41946 -563.952096 
L 624.86964 -563.952096 
L 626.319819 -563.952096 
L 627.769998 -563.952096 
L 629.220178 -563.952096 
L 630.670357 -563.952096 
L 632.120536 -563.952096 
L 633.570716 -563.952096 
L 635.020895 -563.952096 
L 636.471074 -563.952096 
L 636.471074 -563.952096 
L 636.471074 -563.952096 
L 635.020895 -563.952096 
L 633.570716 -563.952096 
L 632.120536 -563.952096 
L 630.670357 -563.952096 
L 629.220178 -563.952096 
L 627.769998 -563.952096 
L 626.319819 -563.952096 
L 624.86964 -563.952096 
L 623.41946 -563.952096 
L 621.969281 -563.952096 
L 620.519102 -563.964738 
L 619.068923 -564.034536 
L 617.618743 -564.370762 
L 616.168564 -565.607952 
L 614.718385 -569.058864 
L 613.268205 -576.228855 
L 611.818026 -587.021459 
L 610.367847 -598.04526 
L 608.917667 -613.890777 
L 607.467488 -603.44026 
L 606.017309 -598.653985 
L 604.567129 -594.232072 
L 603.11695 -604.567315 
L 601.666771 -591.865701 
L 600.216591 -593.634709 
L 598.766412 -596.019443 
L 597.316233 -609.34505 
L 595.866053 -590.606003 
L 594.415874 -581.908538 
L 592.965695 -573.492105 
L 591.515515 -567.918017 
L 590.065336 -565.237574 
L 588.615157 -564.277115 
L 587.164977 -564.016096 
L 585.714798 -563.961911 
L 584.264619 -563.952096 
L 582.814439 -563.952096 
L 581.36426 -563.952096 
L 579.914081 -563.952096 
L 578.463901 -563.952096 
L 577.013722 -563.952096 
L 575.563543 -563.954732 
L 574.113363 -563.969289 
L 572.663184 -564.039409 
L 571.213005 -564.297426 
L 569.762826 -565.015788 
L 568.312646 -566.503761 
L 566.862467 -568.719234 
L 565.412288 -570.893006 
L 563.962108 -580.676213 
L 562.511929 -571.049139 
L 561.06175 -569.36941 
L 559.61157 -568.571352 
L 558.161391 -570.259041 
L 556.711212 -575.098027 
L 555.261032 -582.626968 
L 553.810853 -601.851093 
L 552.360674 -600.846569 
L 550.910494 -614.763633 
L 549.460315 -618.111435 
L 548.010136 -619.944837 
L 546.559956 -610.14428 
L 545.109777 -591.758108 
L 543.659598 -584.198056 
L 542.209418 -586.971977 
L 540.759239 -580.011349 
L 539.30906 -581.461397 
L 537.85888 -593.752582 
L 536.408701 -589.44842 
L 534.958522 -583.821577 
L 533.508342 -580.844508 
L 532.058163 -583.811263 
L 530.607984 -573.180782 
L 529.157804 -570.918096 
L 527.707625 -569.861457 
L 526.257446 -569.794621 
L 524.807266 -577.396656 
L 523.357087 -568.782219 
L 521.906908 -567.053689 
L 520.456729 -564.906687 
L 519.006549 -562.191881 
L 517.55637 -558.194173 
L 516.106191 -552.744727 
L 514.656011 -547.311829 
L 513.205832 -560.157318 
L 511.755653 -544.693908 
L 510.305473 -547.154889 
L 508.855294 -549.770918 
L 507.405115 -566.139719 
L 505.954935 -554.699732 
L 504.504756 -557.344159 
L 503.054577 -559.044387 
L 501.604397 -559.223651 
L 500.154218 -558.485746 
L 498.704039 -569.230658 
L 497.253859 -558.511857 
L 495.80368 -559.356587 
L 494.353501 -559.570124 
L 492.903321 -559.014151 
L 491.453142 -558.980622 
L 490.002963 -573.53722 
L 488.552783 -565.070049 
L 487.102604 -585.084105 
L 485.652425 -570.233251 
L 484.202245 -569.138794 
L 482.752066 -567.228386 
L 481.301887 -566.100011 
L 479.851707 -566.332669 
L 478.401528 -567.602601 
L 476.951349 -569.116223 
L 475.501169 -575.663753 
L 474.05099 -576.343469 
L 472.600811 -572.62453 
L 471.150632 -574.284646 
L 469.700452 -581.902379 
L 468.250273 -573.429265 
L 466.800094 -570.446048 
L 465.349914 -567.43041 
L 463.899735 -565.402316 
L 462.449556 -564.414706 
L 460.999376 -564.027054 
L 459.549197 -563.799951 
L 458.099018 -563.410314 
L 456.648838 -562.625866 
L 455.198659 -561.383389 
L 453.74848 -559.8548 
L 452.2983 -567.081777 
L 450.848121 -556.204666 
L 449.397942 -553.598963 
L 447.947762 -550.925264 
L 446.497583 -558.351774 
L 445.047404 -549.756906 
L 443.597224 -550.669786 
L 442.147045 -550.884043 
L 440.696866 -557.475784 
L 439.246686 -562.023542 
L 437.796507 -554.162596 
L 436.346328 -557.734803 
L 434.896148 -560.818605 
L 433.445969 -562.707268 
L 431.99579 -563.563027 
L 430.54561 -563.856691 
L 429.095431 -563.933764 
L 427.645252 -563.944082 
L 426.195073 -563.916567 
L 424.744893 -563.771666 
L 423.294714 -563.225285 
L 421.844535 -561.667958 
L 420.394355 -558.230567 
L 418.944176 -552.296994 
L 417.493997 -543.911152 
L 416.043817 -548.644215 
L 414.593638 -521.08324 
L 413.143459 -508.156882 
L 411.693279 -516.048361 
L 410.2431 -496.150615 
L 408.792921 -521.539814 
L 407.342741 -515.396763 
L 405.892562 -524.685948 
z
" style="stroke: #9467bd; stroke-opacity: 0.2"/>
    </defs>
    <g clip-path="url(#p389564cc1e)">
     <use xlink:href="#mce0e64f11f" x="0" y="720" style="fill: #9467bd; fill-opacity: 0.2; stroke: #9467bd; stroke-opacity: 0.2"/>
    </g>
   </g>
   <g id="PolyCollection_2">
    <defs>
     <path id="m3e12e691e2" d="M 405.892562 -568.160558 
L 405.892562 -562.725957 
L 407.342741 -567.480401 
L 408.792921 -570.117255 
L 410.2431 -563.193276 
L 411.693279 -570.38011 
L 413.143459 -567.471816 
L 414.593638 -564.274459 
L 416.043817 -562.531457 
L 417.493997 -556.471582 
L 418.944176 -567.058278 
L 420.394355 -568.441208 
L 421.844535 -564.459132 
L 423.294714 -568.965296 
L 424.744893 -571.328154 
L 426.195073 -568.254733 
L 427.645252 -566.101942 
L 429.095431 -565.059574 
L 430.54561 -563.391921 
L 431.99579 -564.527552 
L 433.445969 -564.505169 
L 434.896148 -564.766707 
L 436.346328 -565.63684 
L 437.796507 -565.569164 
L 439.246686 -570.047147 
L 440.696866 -572.561409 
L 442.147045 -563.157204 
L 443.597224 -572.385301 
L 445.047404 -569.729925 
L 446.497583 -567.039957 
L 447.947762 -565.237301 
L 449.397942 -564.36393 
L 450.848121 -564.041363 
L 452.2983 -563.945103 
L 453.74848 -563.997348 
L 455.198659 -564.446345 
L 456.648838 -565.917485 
L 458.099018 -567.306878 
L 459.549197 -573.86972 
L 460.999376 -573.753231 
L 462.449556 -566.532779 
L 463.899735 -577.874264 
L 465.349914 -572.277469 
L 466.800094 -565.541126 
L 468.250273 -559.301641 
L 469.700452 -554.71495 
L 471.150632 -540.139696 
L 472.600811 -553.710435 
L 474.05099 -555.786776 
L 475.501169 -556.111789 
L 476.951349 -551.968313 
L 478.401528 -542.43324 
L 479.851707 -523.889715 
L 481.301887 -500.993459 
L 482.752066 -495.824619 
L 484.202245 -510.529163 
L 485.652425 -536.35916 
L 487.102604 -548.837365 
L 488.552783 -557.920104 
L 490.002963 -563.646846 
L 491.453142 -567.674363 
L 492.903321 -571.163039 
L 494.353501 -566.820157 
L 495.80368 -575.37301 
L 497.253859 -564.582268 
L 498.704039 -572.344922 
L 500.154218 -569.495198 
L 501.604397 -567.299901 
L 503.054577 -566.266058 
L 504.504756 -562.959339 
L 505.954935 -568.343585 
L 507.405115 -573.066841 
L 508.855294 -581.571761 
L 510.305473 -592.918826 
L 511.755653 -590.426817 
L 513.205832 -609.137785 
L 514.656011 -591.396866 
L 516.106191 -598.426738 
L 517.55637 -588.835013 
L 519.006549 -582.976665 
L 520.456729 -581.892281 
L 521.906908 -572.355772 
L 523.357087 -576.005139 
L 524.807266 -577.742543 
L 526.257446 -572.540254 
L 527.707625 -568.187001 
L 529.157804 -565.598242 
L 530.607984 -564.436185 
L 532.058163 -563.960534 
L 533.508342 -563.521904 
L 534.958522 -562.541846 
L 536.408701 -560.495125 
L 537.85888 -557.288566 
L 539.30906 -553.764809 
L 540.759239 -539.752219 
L 542.209418 -551.616643 
L 543.659598 -547.790917 
L 545.109777 -557.26597 
L 546.559956 -560.246031 
L 548.010136 -562.257831 
L 549.460315 -563.322859 
L 550.910494 -563.778225 
L 552.360674 -563.95975 
L 553.810853 -564.072805 
L 555.261032 -564.192056 
L 556.711212 -564.303115 
L 558.161391 -563.228062 
L 559.61157 -564.302762 
L 561.06175 -564.191045 
L 562.511929 -564.069534 
L 563.962108 -563.959675 
L 565.412288 -563.827107 
L 566.862467 -563.614758 
L 568.312646 -563.314266 
L 569.762826 -563.021832 
L 571.213005 -557.614989 
L 572.663184 -562.994791 
L 574.113363 -563.224877 
L 575.563543 -563.389032 
L 577.013722 -563.355069 
L 578.463901 -563.074043 
L 579.914081 -560.721386 
L 581.36426 -561.140517 
L 582.814439 -558.902798 
L 584.264619 -555.220435 
L 585.714798 -546.900795 
L 587.164977 -539.749668 
L 588.615157 -550.061919 
L 590.065336 -550.058569 
L 591.515515 -540.336642 
L 592.965695 -552.301438 
L 594.415874 -553.011083 
L 595.866053 -552.002168 
L 597.316233 -549.986895 
L 598.766412 -538.402152 
L 600.216591 -551.196385 
L 601.666771 -555.192369 
L 603.11695 -559.192827 
L 604.567129 -561.293513 
L 606.017309 -563.079823 
L 607.467488 -563.451596 
L 608.917667 -563.485123 
L 610.367847 -561.207588 
L 611.818026 -563.547452 
L 613.268205 -563.676757 
L 614.718385 -563.808843 
L 616.168564 -563.908361 
L 617.618743 -563.992715 
L 619.068923 -564.115203 
L 620.519102 -564.329443 
L 621.969281 -564.648561 
L 623.41946 -563.742952 
L 624.86964 -564.234288 
L 626.319819 -561.351367 
L 627.769998 -564.515127 
L 629.220178 -561.511306 
L 630.670357 -552.296736 
L 632.120536 -550.59659 
L 633.570716 -543.782823 
L 635.020895 -554.347463 
L 636.471074 -550.047964 
L 636.471074 -558.807574 
L 636.471074 -558.807574 
L 635.020895 -554.347463 
L 633.570716 -566.323596 
L 632.120536 -563.697402 
L 630.670357 -567.943823 
L 629.220178 -564.134264 
L 627.769998 -564.515127 
L 626.319819 -569.072304 
L 624.86964 -566.306809 
L 623.41946 -566.277551 
L 621.969281 -564.648561 
L 620.519102 -564.329443 
L 619.068923 -564.115203 
L 617.618743 -563.992715 
L 616.168564 -563.908361 
L 614.718385 -563.808843 
L 613.268205 -563.676757 
L 611.818026 -563.547452 
L 610.367847 -565.750877 
L 608.917667 -563.485123 
L 607.467488 -563.451596 
L 606.017309 -563.079823 
L 604.567129 -562.399958 
L 603.11695 -559.192827 
L 601.666771 -555.192369 
L 600.216591 -551.196385 
L 598.766412 -560.023826 
L 597.316233 -549.986895 
L 595.866053 -552.002168 
L 594.415874 -553.011083 
L 592.965695 -552.301438 
L 591.515515 -561.507184 
L 590.065336 -550.058569 
L 588.615157 -550.061919 
L 587.164977 -562.213105 
L 585.714798 -559.094214 
L 584.264619 -556.608638 
L 582.814439 -558.902798 
L 581.36426 -561.140517 
L 579.914081 -564.147023 
L 578.463901 -563.074043 
L 577.013722 -563.355069 
L 575.563543 -563.389032 
L 574.113363 -563.224877 
L 572.663184 -562.994791 
L 571.213005 -568.169542 
L 569.762826 -563.021832 
L 568.312646 -563.314266 
L 566.862467 -563.614758 
L 565.412288 -563.827107 
L 563.962108 -563.959675 
L 562.511929 -564.069534 
L 561.06175 -564.191045 
L 559.61157 -564.302762 
L 558.161391 -565.471643 
L 556.711212 -564.303115 
L 555.261032 -564.192056 
L 553.810853 -564.072805 
L 552.360674 -563.95975 
L 550.910494 -563.778225 
L 549.460315 -563.322859 
L 548.010136 -562.257831 
L 546.559956 -560.246031 
L 545.109777 -557.26597 
L 543.659598 -560.126855 
L 542.209418 -551.616643 
L 540.759239 -563.226544 
L 539.30906 -553.764809 
L 537.85888 -557.288566 
L 536.408701 -560.495125 
L 534.958522 -562.541846 
L 533.508342 -563.521904 
L 532.058163 -563.960534 
L 530.607984 -564.436185 
L 529.157804 -565.598242 
L 527.707625 -568.187001 
L 526.257446 -572.540254 
L 524.807266 -577.742543 
L 523.357087 -587.293288 
L 521.906908 -592.96054 
L 520.456729 -581.892281 
L 519.006549 -582.976665 
L 517.55637 -588.835013 
L 516.106191 -598.426738 
L 514.656011 -622.368595 
L 513.205832 -609.137785 
L 511.755653 -616.80905 
L 510.305473 -592.918826 
L 508.855294 -581.571761 
L 507.405115 -573.066841 
L 505.954935 -568.343585 
L 504.504756 -569.966579 
L 503.054577 -566.266058 
L 501.604397 -567.299901 
L 500.154218 -569.495198 
L 498.704039 -572.344922 
L 497.253859 -584.806524 
L 495.80368 -575.37301 
L 494.353501 -581.195912 
L 492.903321 -571.163039 
L 491.453142 -567.674363 
L 490.002963 -563.646846 
L 488.552783 -557.920104 
L 487.102604 -548.837365 
L 485.652425 -536.35916 
L 484.202245 -537.16404 
L 482.752066 -538.067103 
L 481.301887 -537.841863 
L 479.851707 -535.661419 
L 478.401528 -542.43324 
L 476.951349 -551.968313 
L 475.501169 -556.111789 
L 474.05099 -555.786776 
L 472.600811 -553.710435 
L 471.150632 -565.473468 
L 469.700452 -554.71495 
L 468.250273 -559.301641 
L 466.800094 -565.541126 
L 465.349914 -572.277469 
L 463.899735 -577.874264 
L 462.449556 -593.976085 
L 460.999376 -583.167405 
L 459.549197 -573.86972 
L 458.099018 -570.903423 
L 456.648838 -565.917485 
L 455.198659 -564.446345 
L 453.74848 -563.997348 
L 452.2983 -563.945103 
L 450.848121 -564.041363 
L 449.397942 -564.36393 
L 447.947762 -565.237301 
L 446.497583 -567.039957 
L 445.047404 -569.729925 
L 443.597224 -572.385301 
L 442.147045 -583.986692 
L 440.696866 -572.561409 
L 439.246686 -570.047147 
L 437.796507 -569.291883 
L 436.346328 -565.63684 
L 434.896148 -564.766707 
L 433.445969 -564.505169 
L 431.99579 -564.527552 
L 430.54561 -565.958858 
L 429.095431 -565.059574 
L 427.645252 -566.101942 
L 426.195073 -568.254733 
L 424.744893 -571.328154 
L 423.294714 -578.980001 
L 421.844535 -584.12374 
L 420.394355 -574.599265 
L 418.944176 -567.058278 
L 417.493997 -570.474969 
L 416.043817 -562.531457 
L 414.593638 -564.274459 
L 413.143459 -567.471816 
L 411.693279 -570.38011 
L 410.2431 -579.670014 
L 408.792921 -570.117255 
L 407.342741 -567.480401 
L 405.892562 -568.160558 
z
" style="stroke: #1f77b4; stroke-opacity: 0.2"/>
    </defs>
    <g clip-path="url(#p389564cc1e)">
     <use xlink:href="#m3e12e691e2" x="0" y="720" style="fill: #1f77b4; fill-opacity: 0.2; stroke: #1f77b4; stroke-opacity: 0.2"/>
    </g>
   </g>
   <g id="PolyCollection_3">
    <defs>
     <path id="ma340289d9c" d="M 405.892562 -563.952096 
L 405.892562 -563.952096 
L 407.342741 -563.959432 
L 408.792921 -563.999935 
L 410.2431 -564.195044 
L 411.693279 -564.912975 
L 413.143459 -566.911813 
L 414.593638 -571.052088 
L 416.043817 -577.220144 
L 417.493997 -583.274804 
L 418.944176 -563.825922 
L 420.394355 -583.709682 
L 421.844535 -578.617483 
L 423.294714 -574.363006 
L 424.744893 -572.899741 
L 426.195073 -572.994102 
L 427.645252 -558.250348 
L 429.095431 -567.400036 
L 430.54561 -560.890052 
L 431.99579 -540.259592 
L 433.445969 -551.945412 
L 434.896148 -542.105486 
L 436.346328 -555.131003 
L 437.796507 -558.535555 
L 439.246686 -561.254975 
L 440.696866 -562.790877 
L 442.147045 -563.217116 
L 443.597224 -562.630173 
L 445.047404 -560.961136 
L 446.497583 -558.383459 
L 447.947762 -555.814281 
L 449.397942 -539.571057 
L 450.848121 -555.203131 
L 452.2983 -556.792222 
L 453.74848 -557.945182 
L 455.198659 -558.116987 
L 456.648838 -548.963059 
L 458.099018 -556.295257 
L 459.549197 -553.027902 
L 460.999376 -547.031155 
L 462.449556 -539.965411 
L 463.899735 -518.969289 
L 465.349914 -528.141587 
L 466.800094 -543.358479 
L 468.250273 -546.597355 
L 469.700452 -557.259683 
L 471.150632 -560.998409 
L 472.600811 -562.829551 
L 474.05099 -563.585117 
L 475.501169 -563.850545 
L 476.951349 -563.929706 
L 478.401528 -563.94813 
L 479.851707 -563.951488 
L 481.301887 -563.952096 
L 482.752066 -563.952096 
L 484.202245 -563.952096 
L 485.652425 -563.952096 
L 487.102604 -563.952096 
L 488.552783 -563.952096 
L 490.002963 -563.952096 
L 491.453142 -563.952096 
L 492.903321 -563.952096 
L 494.353501 -563.952096 
L 495.80368 -563.952096 
L 497.253859 -563.952096 
L 498.704039 -563.952096 
L 500.154218 -563.952096 
L 501.604397 -563.952096 
L 503.054577 -563.952096 
L 504.504756 -563.952096 
L 505.954935 -563.952096 
L 507.405115 -563.952096 
L 508.855294 -563.952096 
L 510.305473 -563.952096 
L 511.755653 -563.952096 
L 513.205832 -563.952096 
L 514.656011 -563.952096 
L 516.106191 -563.94924 
L 517.55637 -563.933473 
L 519.006549 -563.857523 
L 520.456729 -563.578052 
L 521.906908 -562.799961 
L 523.357087 -561.188267 
L 524.807266 -558.788585 
L 526.257446 -556.439232 
L 527.707625 -545.889586 
L 529.157804 -556.439232 
L 530.607984 -558.788585 
L 532.058163 -561.188267 
L 533.508342 -562.799961 
L 534.958522 -563.578052 
L 536.408701 -563.857523 
L 537.85888 -563.933473 
L 539.30906 -563.94924 
L 540.759239 -563.952096 
L 542.209418 -563.952096 
L 543.659598 -563.945367 
L 545.109777 -563.908221 
L 546.559956 -563.729282 
L 548.010136 -563.070851 
L 549.460315 -561.237672 
L 550.910494 -557.440532 
L 552.360674 -551.786893 
L 553.810853 -546.244434 
L 555.261032 -530.069474 
L 556.711212 -546.00693 
L 558.161391 -550.818294 
L 559.61157 -554.457037 
L 561.06175 -554.08064 
L 562.511929 -549.699756 
L 563.962108 -544.274453 
L 565.412288 -528.587484 
L 566.862467 -544.490538 
L 568.312646 -550.581 
L 569.762826 -556.795064 
L 571.213005 -560.968601 
L 572.663184 -562.983497 
L 574.113363 -563.707196 
L 575.563543 -563.903872 
L 577.013722 -563.9447 
L 578.463901 -563.946157 
L 579.914081 -563.913373 
L 581.36426 -563.755445 
L 582.814439 -563.174327 
L 584.264619 -561.556399 
L 585.714798 -558.205119 
L 587.164977 -553.21533 
L 588.615157 -548.330194 
L 590.065336 -531.03489 
L 591.515515 -548.294339 
L 592.965695 -553.033243 
L 594.415874 -557.484952 
L 595.866053 -559.338128 
L 597.316233 -557.852971 
L 598.766412 -553.813843 
L 600.216591 -549.448428 
L 601.666771 -536.155191 
L 603.11695 -549.482529 
L 604.567129 -553.980362 
L 606.017309 -558.477715 
L 607.467488 -561.128599 
L 608.917667 -561.367702 
L 610.367847 -559.297961 
L 611.818026 -555.561355 
L 613.268205 -551.79031 
L 614.718385 -540.072539 
L 616.168564 -551.795809 
L 617.618743 -555.59721 
L 619.068923 -559.480048 
L 620.519102 -562.087869 
L 621.969281 -563.34687 
L 623.41946 -563.799071 
L 624.86964 -563.921963 
L 626.319819 -563.947475 
L 627.769998 -563.952096 
L 629.220178 -563.952096 
L 630.670357 -563.952096 
L 632.120536 -563.952096 
L 633.570716 -563.952096 
L 635.020895 -563.952096 
L 636.471074 -563.952096 
L 636.471074 -563.952096 
L 636.471074 -563.952096 
L 635.020895 -563.952096 
L 633.570716 -563.952096 
L 632.120536 -563.952096 
L 630.670357 -563.952096 
L 629.220178 -563.952096 
L 627.769998 -563.952096 
L 626.319819 -563.947475 
L 624.86964 -563.921963 
L 623.41946 -563.799071 
L 621.969281 -563.34687 
L 620.519102 -562.087869 
L 619.068923 -559.480048 
L 617.618743 -555.59721 
L 616.168564 -551.795809 
L 614.718385 -560.281897 
L 613.268205 -551.79031 
L 611.818026 -555.561355 
L 610.367847 -559.297961 
L 608.917667 -561.367702 
L 607.467488 -561.128599 
L 606.017309 -558.477715 
L 604.567129 -553.980362 
L 603.11695 -549.482529 
L 601.666771 -558.955263 
L 600.216591 -549.448428 
L 598.766412 -553.813843 
L 597.316233 -557.852971 
L 595.866053 -559.338128 
L 594.415874 -557.484952 
L 592.965695 -553.033243 
L 591.515515 -548.294339 
L 590.065336 -561.454436 
L 588.615157 -548.330194 
L 587.164977 -553.21533 
L 585.714798 -558.205119 
L 584.264619 -561.556399 
L 582.814439 -563.174327 
L 581.36426 -563.755445 
L 579.914081 -563.913373 
L 578.463901 -563.946157 
L 577.013722 -563.9447 
L 575.563543 -563.903872 
L 574.113363 -563.707196 
L 572.663184 -562.983497 
L 571.213005 -560.968601 
L 569.762826 -556.795064 
L 568.312646 -550.581 
L 566.862467 -544.490538 
L 565.412288 -555.138538 
L 563.962108 -544.274453 
L 562.511929 -549.699756 
L 561.06175 -554.08064 
L 559.61157 -554.457037 
L 558.161391 -550.818294 
L 556.711212 -546.00693 
L 555.261032 -557.624212 
L 553.810853 -546.244434 
L 552.360674 -551.786893 
L 550.910494 -557.440532 
L 549.460315 -561.237672 
L 548.010136 -563.070851 
L 546.559956 -563.729282 
L 545.109777 -563.908221 
L 543.659598 -563.945367 
L 542.209418 -563.952096 
L 540.759239 -563.952096 
L 539.30906 -563.94924 
L 537.85888 -563.933473 
L 536.408701 -563.857523 
L 534.958522 -563.578052 
L 533.508342 -562.799961 
L 532.058163 -561.188267 
L 530.607984 -558.788585 
L 529.157804 -556.439232 
L 527.707625 -564.988225 
L 526.257446 -556.439232 
L 524.807266 -558.788585 
L 523.357087 -561.188267 
L 521.906908 -562.799961 
L 520.456729 -563.578052 
L 519.006549 -563.857523 
L 517.55637 -563.933473 
L 516.106191 -563.94924 
L 514.656011 -563.952096 
L 513.205832 -563.952096 
L 511.755653 -563.952096 
L 510.305473 -563.952096 
L 508.855294 -563.952096 
L 507.405115 -563.952096 
L 505.954935 -563.952096 
L 504.504756 -563.952096 
L 503.054577 -563.952096 
L 501.604397 -563.952096 
L 500.154218 -563.952096 
L 498.704039 -563.952096 
L 497.253859 -563.952096 
L 495.80368 -563.952096 
L 494.353501 -563.952096 
L 492.903321 -563.952096 
L 491.453142 -563.952096 
L 490.002963 -563.952096 
L 488.552783 -563.952096 
L 487.102604 -563.952096 
L 485.652425 -563.952096 
L 484.202245 -563.952096 
L 482.752066 -563.952096 
L 481.301887 -563.952096 
L 479.851707 -563.951488 
L 478.401528 -563.94813 
L 476.951349 -563.929706 
L 475.501169 -563.850545 
L 474.05099 -563.585117 
L 472.600811 -562.829551 
L 471.150632 -560.998409 
L 469.700452 -557.259683 
L 468.250273 -555.556128 
L 466.800094 -543.358479 
L 465.349914 -546.024402 
L 463.899735 -552.410608 
L 462.449556 -539.965411 
L 460.999376 -547.031155 
L 459.549197 -553.027902 
L 458.099018 -556.295257 
L 456.648838 -566.254093 
L 455.198659 -558.116987 
L 453.74848 -557.945182 
L 452.2983 -556.792222 
L 450.848121 -555.203131 
L 449.397942 -569.58198 
L 447.947762 -555.814281 
L 446.497583 -558.383459 
L 445.047404 -560.961136 
L 443.597224 -562.630173 
L 442.147045 -563.217116 
L 440.696866 -562.790877 
L 439.246686 -561.254975 
L 437.796507 -558.535555 
L 436.346328 -555.131003 
L 434.896148 -562.624939 
L 433.445969 -551.945412 
L 431.99579 -569.665504 
L 430.54561 -560.890052 
L 429.095431 -567.400036 
L 427.645252 -585.248525 
L 426.195073 -572.994102 
L 424.744893 -572.899741 
L 423.294714 -574.363006 
L 421.844535 -578.617483 
L 420.394355 -583.709682 
L 418.944176 -608.05017 
L 417.493997 -583.274804 
L 416.043817 -577.220144 
L 414.593638 -571.052088 
L 413.143459 -566.911813 
L 411.693279 -564.912975 
L 410.2431 -564.195044 
L 408.792921 -563.999935 
L 407.342741 -563.959432 
L 405.892562 -563.952096 
z
" style="stroke: #d62728; stroke-opacity: 0.2"/>
    </defs>
    <g clip-path="url(#p389564cc1e)">
     <use xlink:href="#ma340289d9c" x="0" y="720" style="fill: #d62728; fill-opacity: 0.2; stroke: #d62728; stroke-opacity: 0.2"/>
    </g>
   </g>
   <g id="PolyCollection_4">
    <defs>
     <path id="m1062f4d72a" d="M 405.892562 -563.952096 
L 405.892562 -563.952096 
L 407.342741 -563.952096 
L 408.792921 -563.952096 
L 410.2431 -563.952096 
L 411.693279 -563.952096 
L 413.143459 -563.959927 
L 414.593638 -564.003159 
L 416.043817 -564.211418 
L 417.493997 -564.976735 
L 418.944176 -567.104766 
L 420.394355 -571.497482 
L 421.844535 -577.979612 
L 423.294714 -584.149103 
L 424.744893 -566.375046 
L 426.195073 -582.744181 
L 427.645252 -575.479351 
L 429.095431 -559.890604 
L 430.54561 -564.480025 
L 431.99579 -563.173437 
L 433.445969 -563.270434 
L 434.896148 -563.73678 
L 436.346328 -564.371315 
L 437.796507 -565.589655 
L 439.246686 -567.953331 
L 440.696866 -571.438572 
L 442.147045 -574.852576 
L 443.597224 -560.689367 
L 445.047404 -575.081277 
L 446.497583 -572.399724 
L 447.947762 -571.036971 
L 449.397942 -573.370501 
L 450.848121 -579.82174 
L 452.2983 -587.881746 
L 453.74848 -580.328282 
L 455.198659 -577.772255 
L 456.648838 -582.16066 
L 458.099018 -571.522944 
L 459.549197 -552.951704 
L 460.999376 -560.366128 
L 462.449556 -560.515052 
L 463.899735 -561.886448 
L 465.349914 -563.052082 
L 466.800094 -563.668697 
L 468.250273 -563.958242 
L 469.700452 -564.265225 
L 471.150632 -564.960894 
L 472.600811 -566.377645 
L 474.05099 -568.476981 
L 475.501169 -570.502143 
L 476.951349 -560.746858 
L 478.401528 -569.676143 
L 479.851707 -565.802972 
L 481.301887 -559.934424 
L 482.752066 -552.861273 
L 484.202245 -546.414932 
L 485.652425 -522.003743 
L 487.102604 -543.450109 
L 488.552783 -546.072061 
L 490.002963 -548.441534 
L 491.453142 -538.72795 
L 492.903321 -550.224377 
L 494.353501 -550.436857 
L 495.80368 -542.402874 
L 497.253859 -547.94697 
L 498.704039 -544.515937 
L 500.154218 -532.764393 
L 501.604397 -524.122653 
L 503.054577 -542.942174 
L 504.504756 -547.307953 
L 505.954935 -544.583985 
L 507.405115 -551.753183 
L 508.855294 -551.508248 
L 510.305473 -540.190778 
L 511.755653 -554.999751 
L 513.205832 -560.498501 
L 514.656011 -567.975983 
L 516.106191 -576.594814 
L 517.55637 -575.492091 
L 519.006549 -579.705229 
L 520.456729 -580.862411 
L 521.906908 -584.52272 
L 523.357087 -578.430386 
L 524.807266 -574.918663 
L 526.257446 -575.255083 
L 527.707625 -577.591361 
L 529.157804 -569.506851 
L 530.607984 -577.019831 
L 532.058163 -573.442747 
L 533.508342 -570.656062 
L 534.958522 -570.640689 
L 536.408701 -573.354901 
L 537.85888 -576.678803 
L 539.30906 -565.579511 
L 540.759239 -574.662043 
L 542.209418 -568.769673 
L 543.659598 -562.835239 
L 545.109777 -547.544347 
L 546.559956 -558.693953 
L 548.010136 -559.825719 
L 549.460315 -560.747205 
L 550.910494 -559.620949 
L 552.360674 -555.030399 
L 553.810853 -546.499578 
L 555.261032 -535.318822 
L 556.711212 -517.304703 
L 558.161391 -516.236757 
L 559.61157 -508.121039 
L 561.06175 -504.230267 
L 562.511929 -496.569986 
L 563.962108 -508.196596 
L 565.412288 -498.248723 
L 566.862467 -470.976073 
L 568.312646 -447.910962 
L 569.762826 -432.071434 
L 571.213005 -438.65142 
L 572.663184 -408.170371 
L 574.113363 -397.740496 
L 575.563543 -398.685377 
L 577.013722 -411.229819 
L 578.463901 -451.835058 
L 579.914081 -501.662904 
L 581.36426 -529.720258 
L 582.814439 -545.613334 
L 584.264619 -549.444072 
L 585.714798 -544.59468 
L 587.164977 -536.043174 
L 588.615157 -518.069375 
L 590.065336 -523.546554 
L 591.515515 -520.492477 
L 592.965695 -500.621795 
L 594.415874 -509.329482 
L 595.866053 -508.50925 
L 597.316233 -530.436222 
L 598.766412 -536.795548 
L 600.216591 -528.253005 
L 601.666771 -541.51272 
L 603.11695 -538.611808 
L 604.567129 -533.292828 
L 606.017309 -515.219153 
L 607.467488 -518.919103 
L 608.917667 -533.170502 
L 610.367847 -537.445998 
L 611.818026 -528.992564 
L 613.268205 -533.345836 
L 614.718385 -523.749091 
L 616.168564 -503.233818 
L 617.618743 -498.073496 
L 619.068923 -493.015674 
L 620.519102 -513.199249 
L 621.969281 -507.320716 
L 623.41946 -535.190043 
L 624.86964 -542.627216 
L 626.319819 -546.263792 
L 627.769998 -528.666893 
L 629.220178 -546.048187 
L 630.670357 -540.626704 
L 632.120536 -529.364485 
L 633.570716 -514.382111 
L 635.020895 -460.559403 
L 636.471074 -493.673128 
L 636.471074 -493.673128 
L 636.471074 -493.673128 
L 635.020895 -541.519345 
L 633.570716 -514.382111 
L 632.120536 -529.364485 
L 630.670357 -540.626704 
L 629.220178 -546.048187 
L 627.769998 -565.923292 
L 626.319819 -546.263792 
L 624.86964 -542.627216 
L 623.41946 -535.190043 
L 621.969281 -541.506904 
L 620.519102 -513.199249 
L 619.068923 -518.580939 
L 617.618743 -513.147987 
L 616.168564 -522.381299 
L 614.718385 -523.749091 
L 613.268205 -533.345836 
L 611.818026 -547.277586 
L 610.367847 -537.445998 
L 608.917667 -533.170502 
L 607.467488 -539.385105 
L 606.017309 -542.913079 
L 604.567129 -533.292828 
L 603.11695 -538.611808 
L 601.666771 -541.51272 
L 600.216591 -553.304752 
L 598.766412 -536.795548 
L 597.316233 -530.436222 
L 595.866053 -538.777404 
L 594.415874 -529.147454 
L 592.965695 -536.559522 
L 591.515515 -520.492477 
L 590.065336 -523.546554 
L 588.615157 -538.75257 
L 587.164977 -536.043174 
L 585.714798 -544.59468 
L 584.264619 -549.444072 
L 582.814439 -545.613334 
L 581.36426 -529.720258 
L 579.914081 -501.662904 
L 578.463901 -481.215299 
L 577.013722 -457.498702 
L 575.563543 -432.467774 
L 574.113363 -430.447062 
L 572.663184 -441.313472 
L 571.213005 -438.65142 
L 569.762826 -471.24352 
L 568.312646 -483.545408 
L 566.862467 -493.860471 
L 565.412288 -498.248723 
L 563.962108 -508.196596 
L 562.511929 -526.164958 
L 561.06175 -518.334526 
L 559.61157 -516.079526 
L 558.161391 -516.236757 
L 556.711212 -531.368818 
L 555.261032 -535.318822 
L 553.810853 -546.499578 
L 552.360674 -555.030399 
L 550.910494 -559.620949 
L 549.460315 -560.747205 
L 548.010136 -559.825719 
L 546.559956 -558.693953 
L 545.109777 -571.037609 
L 543.659598 -562.835239 
L 542.209418 -568.769673 
L 540.759239 -574.662043 
L 539.30906 -589.730361 
L 537.85888 -576.678803 
L 536.408701 -573.354901 
L 534.958522 -570.640689 
L 533.508342 -570.656062 
L 532.058163 -573.442747 
L 530.607984 -577.019831 
L 529.157804 -588.002564 
L 527.707625 -577.591361 
L 526.257446 -575.255083 
L 524.807266 -574.918663 
L 523.357087 -578.430386 
L 521.906908 -584.52272 
L 520.456729 -598.037969 
L 519.006549 -599.766142 
L 517.55637 -593.987103 
L 516.106191 -576.594814 
L 514.656011 -567.975983 
L 513.205832 -560.498501 
L 511.755653 -554.999751 
L 510.305473 -563.947248 
L 508.855294 -551.508248 
L 507.405115 -551.753183 
L 505.954935 -556.767816 
L 504.504756 -547.307953 
L 503.054577 -542.942174 
L 501.604397 -556.523856 
L 500.154218 -549.567551 
L 498.704039 -544.515937 
L 497.253859 -547.94697 
L 495.80368 -557.421028 
L 494.353501 -550.436857 
L 492.903321 -550.224377 
L 491.453142 -560.615991 
L 490.002963 -548.441534 
L 488.552783 -546.072061 
L 487.102604 -543.450109 
L 485.652425 -563.982428 
L 484.202245 -546.414932 
L 482.752066 -552.861273 
L 481.301887 -559.934424 
L 479.851707 -565.802972 
L 478.401528 -569.676143 
L 476.951349 -581.660192 
L 475.501169 -570.502143 
L 474.05099 -568.476981 
L 472.600811 -566.377645 
L 471.150632 -564.960894 
L 469.700452 -564.265225 
L 468.250273 -563.958242 
L 466.800094 -563.668697 
L 465.349914 -563.052082 
L 463.899735 -561.886448 
L 462.449556 -560.515052 
L 460.999376 -560.366128 
L 459.549197 -574.320937 
L 458.099018 -571.522944 
L 456.648838 -582.16066 
L 455.198659 -603.7166 
L 453.74848 -605.266502 
L 452.2983 -587.881746 
L 450.848121 -579.82174 
L 449.397942 -573.370501 
L 447.947762 -571.036971 
L 446.497583 -572.399724 
L 445.047404 -575.081277 
L 443.597224 -591.994492 
L 442.147045 -574.852576 
L 440.696866 -571.438572 
L 439.246686 -567.953331 
L 437.796507 -565.589655 
L 436.346328 -564.371315 
L 434.896148 -563.73678 
L 433.445969 -563.270434 
L 431.99579 -563.173437 
L 430.54561 -564.480025 
L 429.095431 -577.207381 
L 427.645252 -575.479351 
L 426.195073 -582.744181 
L 424.744893 -606.280075 
L 423.294714 -584.149103 
L 421.844535 -577.979612 
L 420.394355 -571.497482 
L 418.944176 -567.104766 
L 417.493997 -564.976735 
L 416.043817 -564.211418 
L 414.593638 -564.003159 
L 413.143459 -563.959927 
L 411.693279 -563.952096 
L 410.2431 -563.952096 
L 408.792921 -563.952096 
L 407.342741 -563.952096 
L 405.892562 -563.952096 
z
" style="stroke: #ff7f0e; stroke-opacity: 0.2"/>
    </defs>
    <g clip-path="url(#p389564cc1e)">
     <use xlink:href="#m1062f4d72a" x="0" y="720" style="fill: #ff7f0e; fill-opacity: 0.2; stroke: #ff7f0e; stroke-opacity: 0.2"/>
    </g>
   </g>
   <g id="matplotlib.axis_3">
    <g id="xtick_7">
     <g id="line2d_13">
      <g>
       <use xlink:href="#m2b94be9ca5" x="405.863558" y="333.490909" style="stroke: #000000; stroke-width: 0.8"/>
      </g>
     </g>
     <g id="text_13">
      <!-- 0 -->
      <g transform="translate(402.682308 348.089347)scale(0.1 -0.1)">
       <use xlink:href="#DejaVuSans-30"/>
      </g>
     </g>
    </g>
    <g id="xtick_8">
     <g id="line2d_14">
      <g>
       <use xlink:href="#m2b94be9ca5" x="463.870731" y="333.490909" style="stroke: #000000; stroke-width: 0.8"/>
      </g>
     </g>
     <g id="text_14">
      <!-- 2000 -->
      <g transform="translate(451.145731 348.089347)scale(0.1 -0.1)">
       <use xlink:href="#DejaVuSans-32"/>
       <use xlink:href="#DejaVuSans-30" x="63.623047"/>
       <use xlink:href="#DejaVuSans-30" x="127.246094"/>
       <use xlink:href="#DejaVuSans-30" x="190.869141"/>
      </g>
     </g>
    </g>
    <g id="xtick_9">
     <g id="line2d_15">
      <g>
       <use xlink:href="#m2b94be9ca5" x="521.877904" y="333.490909" style="stroke: #000000; stroke-width: 0.8"/>
      </g>
     </g>
     <g id="text_15">
      <!-- 4000 -->
      <g transform="translate(509.152904 348.089347)scale(0.1 -0.1)">
       <use xlink:href="#DejaVuSans-34"/>
       <use xlink:href="#DejaVuSans-30" x="63.623047"/>
       <use xlink:href="#DejaVuSans-30" x="127.246094"/>
       <use xlink:href="#DejaVuSans-30" x="190.869141"/>
      </g>
     </g>
    </g>
    <g id="xtick_10">
     <g id="line2d_16">
      <g>
       <use xlink:href="#m2b94be9ca5" x="579.885077" y="333.490909" style="stroke: #000000; stroke-width: 0.8"/>
      </g>
     </g>
     <g id="text_16">
      <!-- 6000 -->
      <g transform="translate(567.160077 348.089347)scale(0.1 -0.1)">
       <use xlink:href="#DejaVuSans-36"/>
       <use xlink:href="#DejaVuSans-30" x="63.623047"/>
       <use xlink:href="#DejaVuSans-30" x="127.246094"/>
       <use xlink:href="#DejaVuSans-30" x="190.869141"/>
      </g>
     </g>
    </g>
    <g id="xtick_11">
     <g id="line2d_17">
      <g>
       <use xlink:href="#m2b94be9ca5" x="637.89225" y="333.490909" style="stroke: #000000; stroke-width: 0.8"/>
      </g>
     </g>
     <g id="text_17">
      <!-- 8000 -->
      <g transform="translate(625.16725 348.089347)scale(0.1 -0.1)">
       <use xlink:href="#DejaVuSans-38"/>
       <use xlink:href="#DejaVuSans-30" x="63.623047"/>
       <use xlink:href="#DejaVuSans-30" x="127.246094"/>
       <use xlink:href="#DejaVuSans-30" x="190.869141"/>
      </g>
     </g>
    </g>
   </g>
   <g id="matplotlib.axis_4">
    <g id="ytick_7">
     <g id="line2d_18">
      <g>
       <use xlink:href="#md43d92821e" x="394.363636" y="317.958484" style="stroke: #000000; stroke-width: 0.8"/>
      </g>
     </g>
     <g id="text_18">
      <!-- −0.5 -->
      <g transform="translate(363.080824 321.757703)scale(0.1 -0.1)">
       <defs>
        <path id="DejaVuSans-2212" d="M 678 2272 
L 4684 2272 
L 4684 1741 
L 678 1741 
L 678 2272 
z
" transform="scale(0.015625)"/>
        <path id="DejaVuSans-35" d="M 691 4666 
L 3169 4666 
L 3169 4134 
L 1269 4134 
L 1269 2991 
Q 1406 3038 1543 3061 
Q 1681 3084 1819 3084 
Q 2600 3084 3056 2656 
Q 3513 2228 3513 1497 
Q 3513 744 3044 326 
Q 2575 -91 1722 -91 
Q 1428 -91 1123 -41 
Q 819 9 494 109 
L 494 744 
Q 775 591 1075 516 
Q 1375 441 1709 441 
Q 2250 441 2565 725 
Q 2881 1009 2881 1497 
Q 2881 1984 2565 2268 
Q 2250 2553 1709 2553 
Q 1456 2553 1204 2497 
Q 953 2441 691 2322 
L 691 4666 
z
" transform="scale(0.015625)"/>
       </defs>
       <use xlink:href="#DejaVuSans-2212"/>
       <use xlink:href="#DejaVuSans-30" x="83.789062"/>
       <use xlink:href="#DejaVuSans-2e" x="147.412109"/>
       <use xlink:href="#DejaVuSans-35" x="179.199219"/>
      </g>
     </g>
    </g>
    <g id="ytick_8">
     <g id="line2d_19">
      <g>
       <use xlink:href="#md43d92821e" x="394.363636" y="285.576368" style="stroke: #000000; stroke-width: 0.8"/>
      </g>
     </g>
     <g id="text_19">
      <!-- −0.4 -->
      <g transform="translate(363.080824 289.375587)scale(0.1 -0.1)">
       <use xlink:href="#DejaVuSans-2212"/>
       <use xlink:href="#DejaVuSans-30" x="83.789062"/>
       <use xlink:href="#DejaVuSans-2e" x="147.412109"/>
       <use xlink:href="#DejaVuSans-34" x="179.199219"/>
      </g>
     </g>
    </g>
    <g id="ytick_9">
     <g id="line2d_20">
      <g>
       <use xlink:href="#md43d92821e" x="394.363636" y="253.194252" style="stroke: #000000; stroke-width: 0.8"/>
      </g>
     </g>
     <g id="text_20">
      <!-- −0.3 -->
      <g transform="translate(363.080824 256.993471)scale(0.1 -0.1)">
       <defs>
        <path id="DejaVuSans-33" d="M 2597 2516 
Q 3050 2419 3304 2112 
Q 3559 1806 3559 1356 
Q 3559 666 3084 287 
Q 2609 -91 1734 -91 
Q 1441 -91 1130 -33 
Q 819 25 488 141 
L 488 750 
Q 750 597 1062 519 
Q 1375 441 1716 441 
Q 2309 441 2620 675 
Q 2931 909 2931 1356 
Q 2931 1769 2642 2001 
Q 2353 2234 1838 2234 
L 1294 2234 
L 1294 2753 
L 1863 2753 
Q 2328 2753 2575 2939 
Q 2822 3125 2822 3475 
Q 2822 3834 2567 4026 
Q 2313 4219 1838 4219 
Q 1578 4219 1281 4162 
Q 984 4106 628 3988 
L 628 4550 
Q 988 4650 1302 4700 
Q 1616 4750 1894 4750 
Q 2613 4750 3031 4423 
Q 3450 4097 3450 3541 
Q 3450 3153 3228 2886 
Q 3006 2619 2597 2516 
z
" transform="scale(0.015625)"/>
       </defs>
       <use xlink:href="#DejaVuSans-2212"/>
       <use xlink:href="#DejaVuSans-30" x="83.789062"/>
       <use xlink:href="#DejaVuSans-2e" x="147.412109"/>
       <use xlink:href="#DejaVuSans-33" x="179.199219"/>
      </g>
     </g>
    </g>
    <g id="ytick_10">
     <g id="line2d_21">
      <g>
       <use xlink:href="#md43d92821e" x="394.363636" y="220.812136" style="stroke: #000000; stroke-width: 0.8"/>
      </g>
     </g>
     <g id="text_21">
      <!-- −0.2 -->
      <g transform="translate(363.080824 224.611355)scale(0.1 -0.1)">
       <use xlink:href="#DejaVuSans-2212"/>
       <use xlink:href="#DejaVuSans-30" x="83.789062"/>
       <use xlink:href="#DejaVuSans-2e" x="147.412109"/>
       <use xlink:href="#DejaVuSans-32" x="179.199219"/>
      </g>
     </g>
    </g>
    <g id="ytick_11">
     <g id="line2d_22">
      <g>
       <use xlink:href="#md43d92821e" x="394.363636" y="188.43002" style="stroke: #000000; stroke-width: 0.8"/>
      </g>
     </g>
     <g id="text_22">
      <!-- −0.1 -->
      <g transform="translate(363.080824 192.229239)scale(0.1 -0.1)">
       <use xlink:href="#DejaVuSans-2212"/>
       <use xlink:href="#DejaVuSans-30" x="83.789062"/>
       <use xlink:href="#DejaVuSans-2e" x="147.412109"/>
       <use xlink:href="#DejaVuSans-31" x="179.199219"/>
      </g>
     </g>
    </g>
    <g id="ytick_12">
     <g id="line2d_23">
      <g>
       <use xlink:href="#md43d92821e" x="394.363636" y="156.047904" style="stroke: #000000; stroke-width: 0.8"/>
      </g>
     </g>
     <g id="text_23">
      <!-- 0.0 -->
      <g transform="translate(371.460511 159.847123)scale(0.1 -0.1)">
       <use xlink:href="#DejaVuSans-30"/>
       <use xlink:href="#DejaVuSans-2e" x="63.623047"/>
       <use xlink:href="#DejaVuSans-30" x="95.410156"/>
      </g>
     </g>
    </g>
    <g id="ytick_13">
     <g id="line2d_24">
      <g>
       <use xlink:href="#md43d92821e" x="394.363636" y="123.665788" style="stroke: #000000; stroke-width: 0.8"/>
      </g>
     </g>
     <g id="text_24">
      <!-- 0.1 -->
      <g transform="translate(371.460511 127.465007)scale(0.1 -0.1)">
       <use xlink:href="#DejaVuSans-30"/>
       <use xlink:href="#DejaVuSans-2e" x="63.623047"/>
       <use xlink:href="#DejaVuSans-31" x="95.410156"/>
      </g>
     </g>
    </g>
    <g id="ytick_14">
     <g id="line2d_25">
      <g>
       <use xlink:href="#md43d92821e" x="394.363636" y="91.283672" style="stroke: #000000; stroke-width: 0.8"/>
      </g>
     </g>
     <g id="text_25">
      <!-- 0.2 -->
      <g transform="translate(371.460511 95.082891)scale(0.1 -0.1)">
       <use xlink:href="#DejaVuSans-30"/>
       <use xlink:href="#DejaVuSans-2e" x="63.623047"/>
       <use xlink:href="#DejaVuSans-32" x="95.410156"/>
      </g>
     </g>
    </g>
   </g>
   <g id="line2d_26">
    <path d="M 405.892562 195.314052 
L 407.342741 204.603237 
L 408.792921 216.775886 
L 410.2431 223.849385 
L 411.693279 221.690298 
L 413.143459 211.843118 
L 416.043817 186.578865 
L 417.493997 176.088848 
L 418.944176 167.703006 
L 420.394355 161.769433 
L 421.844535 158.332042 
L 423.294714 156.774715 
L 424.744893 156.228334 
L 426.195073 156.083433 
L 429.095431 156.066236 
L 430.54561 156.143309 
L 431.99579 156.436973 
L 433.445969 157.292732 
L 434.896148 159.181395 
L 436.346328 162.265197 
L 437.796507 165.837404 
L 439.246686 168.47924 
L 440.696866 169.327292 
L 442.147045 169.115957 
L 443.597224 169.330214 
L 445.047404 170.243094 
L 446.497583 170.527859 
L 447.947762 169.074736 
L 450.848121 163.795334 
L 452.2983 161.800766 
L 455.198659 158.616611 
L 456.648838 157.374134 
L 458.099018 156.589686 
L 459.549197 156.200049 
L 460.999376 155.972946 
L 462.449556 155.585294 
L 463.899735 154.597684 
L 465.349914 152.56959 
L 468.250273 146.570735 
L 469.700452 145.110884 
L 471.150632 145.715354 
L 472.600811 147.37547 
L 474.05099 148.780925 
L 475.501169 149.741251 
L 476.951349 150.883777 
L 478.401528 152.397399 
L 479.851707 153.667331 
L 481.301887 153.899989 
L 482.752066 152.771614 
L 484.202245 150.861206 
L 485.652425 149.766749 
L 487.102604 151.143594 
L 490.002963 158.957357 
L 491.453142 161.019378 
L 492.903321 160.985849 
L 494.353501 160.429876 
L 495.80368 160.643413 
L 497.253859 161.488143 
L 498.704039 161.958964 
L 500.154218 161.514254 
L 501.604397 160.776349 
L 503.054577 160.955613 
L 504.504756 162.655841 
L 507.405115 167.886084 
L 508.855294 170.229082 
L 511.755653 175.306092 
L 513.205832 175.709619 
L 514.656011 172.688171 
L 517.55637 161.805827 
L 519.006549 157.808119 
L 520.456729 155.093313 
L 521.906908 152.946311 
L 523.357087 151.217781 
L 524.807266 150.294217 
L 527.707625 150.138543 
L 529.157804 149.081904 
L 530.607984 146.819218 
L 533.508342 141.095165 
L 534.958522 138.609376 
L 536.408701 137.057767 
L 537.85888 137.098687 
L 540.759239 139.988651 
L 542.209418 139.583595 
L 543.659598 135.801944 
L 545.109777 128.241892 
L 546.559956 118.639313 
L 548.010136 110.77402 
L 549.460315 108.174812 
L 550.910494 111.607995 
L 552.360674 119.153431 
L 555.261032 137.373032 
L 556.711212 144.901973 
L 558.161391 149.740959 
L 559.61157 151.428648 
L 561.06175 150.63059 
L 562.511929 148.950861 
L 563.962108 148.157145 
L 565.412288 149.106994 
L 568.312646 153.496239 
L 569.762826 154.984212 
L 571.213005 155.702574 
L 572.663184 155.960591 
L 575.563543 156.045268 
L 587.164977 155.983904 
L 588.615157 155.722885 
L 590.065336 154.762426 
L 591.515515 152.081983 
L 592.965695 146.507895 
L 595.866053 129.393997 
L 597.316233 124.207803 
L 598.766412 123.980557 
L 600.216591 126.365291 
L 601.666771 128.134299 
L 603.11695 127.997204 
L 604.567129 125.767928 
L 606.017309 121.346015 
L 607.467488 116.55974 
L 608.917667 115.780848 
L 610.367847 121.95474 
L 613.268205 143.771145 
L 614.718385 150.941136 
L 616.168564 154.392048 
L 617.618743 155.629238 
L 619.068923 155.965464 
L 621.969281 156.047904 
L 636.471074 156.047904 
L 636.471074 156.047904 
" clip-path="url(#p389564cc1e)" style="fill: none; stroke: #9467bd; stroke-width: 2; stroke-linecap: square"/>
   </g>
   <g id="line2d_27">
    <path d="M 405.892562 154.556743 
L 407.342741 152.519599 
L 408.792921 149.882745 
L 410.2431 148.568355 
L 411.693279 149.61989 
L 413.143459 152.528184 
L 414.593638 155.725541 
L 416.043817 157.468543 
L 417.493997 156.526725 
L 418.944176 152.941722 
L 420.394355 148.479764 
L 421.844535 145.708564 
L 423.294714 146.027352 
L 424.744893 148.671846 
L 426.195073 151.745267 
L 427.645252 153.898058 
L 429.095431 154.940426 
L 430.54561 155.324611 
L 431.99579 155.472448 
L 433.445969 155.494831 
L 434.896148 155.233293 
L 436.346328 154.36316 
L 437.796507 152.569477 
L 440.696866 147.438591 
L 442.147045 146.428052 
L 443.597224 147.614699 
L 446.497583 152.960043 
L 447.947762 154.762699 
L 449.397942 155.63607 
L 450.848121 155.958637 
L 452.2983 156.054897 
L 453.74848 156.002652 
L 455.198659 155.553655 
L 456.648838 154.082515 
L 458.099018 150.89485 
L 460.999376 141.539682 
L 462.449556 139.745568 
L 463.899735 142.125736 
L 465.349914 147.722531 
L 468.250273 160.698359 
L 469.700452 165.28505 
L 471.150632 167.193418 
L 472.600811 166.289565 
L 474.05099 164.213224 
L 475.501169 163.888211 
L 476.951349 168.031687 
L 478.401528 177.56676 
L 479.851707 190.224433 
L 481.301887 200.582339 
L 482.752066 203.054139 
L 484.202245 196.153398 
L 487.102604 171.162635 
L 488.552783 162.079896 
L 490.002963 156.353154 
L 491.453142 152.325637 
L 492.903321 148.836961 
L 494.353501 145.991965 
L 495.80368 144.62699 
L 497.253859 145.305604 
L 498.704039 147.655078 
L 500.154218 150.504802 
L 501.604397 152.700099 
L 503.054577 153.733942 
L 504.504756 153.537041 
L 505.954935 151.656415 
L 507.405115 146.933159 
L 508.855294 138.428239 
L 511.755653 116.382067 
L 513.205832 110.862215 
L 514.656011 113.117269 
L 516.106191 121.573262 
L 517.55637 131.164987 
L 519.006549 137.023335 
L 520.456729 138.107719 
L 521.906908 137.341844 
L 523.357087 138.350786 
L 524.807266 142.257457 
L 526.257446 147.459746 
L 527.707625 151.812999 
L 529.157804 154.401758 
L 530.607984 155.563815 
L 533.508342 156.478096 
L 534.958522 157.458154 
L 536.408701 159.504875 
L 537.85888 162.711434 
L 539.30906 166.235191 
L 540.759239 168.510619 
L 542.209418 168.383357 
L 543.659598 166.041114 
L 545.109777 162.73403 
L 546.559956 159.753969 
L 548.010136 157.742169 
L 549.460315 156.677141 
L 550.910494 156.221775 
L 553.810853 155.927195 
L 558.161391 155.650148 
L 561.06175 155.808955 
L 566.862467 156.385242 
L 569.762826 156.978168 
L 571.213005 157.107735 
L 572.663184 157.005209 
L 575.563543 156.610968 
L 577.013722 156.644931 
L 578.463901 156.925957 
L 579.914081 157.565796 
L 581.36426 158.859483 
L 582.814439 161.097202 
L 585.714798 167.002496 
L 587.164977 169.018614 
L 588.615157 169.938081 
L 590.065336 169.941431 
L 591.515515 169.078087 
L 592.965695 167.698562 
L 594.415874 166.988917 
L 595.866053 167.997832 
L 597.316233 170.013105 
L 598.766412 170.787011 
L 600.216591 168.803615 
L 603.11695 160.807173 
L 604.567129 158.153264 
L 606.017309 156.920177 
L 607.467488 156.548404 
L 613.268205 156.323243 
L 620.519102 155.670557 
L 624.86964 154.729452 
L 626.319819 154.788165 
L 627.769998 155.484873 
L 629.220178 157.177215 
L 630.670357 159.87972 
L 632.120536 162.853004 
L 633.570716 164.94679 
L 635.020895 165.652537 
L 636.471074 165.572231 
L 636.471074 165.572231 
" clip-path="url(#p389564cc1e)" style="fill: none; stroke: #1f77b4; stroke-width: 2; stroke-linecap: square"/>
   </g>
   <g id="line2d_28">
    <path d="M 405.892562 156.047904 
L 408.792921 156.000065 
L 410.2431 155.804956 
L 411.693279 155.087025 
L 413.143459 153.088187 
L 414.593638 148.947912 
L 417.493997 136.725196 
L 418.944176 134.061954 
L 420.394355 136.290318 
L 421.844535 141.382517 
L 423.294714 145.636994 
L 424.744893 147.100259 
L 426.195073 147.005898 
L 427.645252 148.250564 
L 429.095431 152.599964 
L 430.54561 159.109948 
L 431.99579 165.037452 
L 433.445969 168.054588 
L 434.896148 167.634787 
L 436.346328 164.868997 
L 437.796507 161.464445 
L 439.246686 158.745025 
L 440.696866 157.209123 
L 442.147045 156.782884 
L 443.597224 157.369827 
L 445.047404 159.038864 
L 447.947762 164.185719 
L 449.397942 165.423482 
L 450.848121 164.796869 
L 452.2983 163.207778 
L 453.74848 162.054818 
L 455.198659 161.883013 
L 456.648838 162.391424 
L 458.099018 163.704743 
L 459.549197 166.972098 
L 460.999376 172.968845 
L 462.449556 180.034589 
L 463.899735 184.310051 
L 465.349914 182.917005 
L 466.800094 176.641521 
L 468.250273 168.923258 
L 469.700452 162.740317 
L 471.150632 159.001591 
L 472.600811 157.170449 
L 474.05099 156.414883 
L 475.501169 156.149455 
L 478.401528 156.05187 
L 517.55637 156.066527 
L 519.006549 156.142477 
L 520.456729 156.421948 
L 521.906908 157.200039 
L 523.357087 158.811733 
L 526.257446 163.560768 
L 527.707625 164.561095 
L 529.157804 163.560768 
L 532.058163 158.811733 
L 533.508342 157.200039 
L 534.958522 156.421948 
L 536.408701 156.142477 
L 539.30906 156.05076 
L 545.109777 156.091779 
L 546.559956 156.270718 
L 548.010136 156.929149 
L 549.460315 158.762328 
L 550.910494 162.559468 
L 553.810853 173.755566 
L 555.261032 176.153157 
L 556.711212 173.99307 
L 558.161391 169.181706 
L 559.61157 165.542963 
L 561.06175 165.91936 
L 562.511929 170.300244 
L 563.962108 175.725547 
L 565.412288 178.136989 
L 566.862467 175.509462 
L 569.762826 163.204936 
L 571.213005 159.031399 
L 572.663184 157.016503 
L 574.113363 156.292804 
L 575.563543 156.096128 
L 578.463901 156.053843 
L 579.914081 156.086627 
L 581.36426 156.244555 
L 582.814439 156.825673 
L 584.264619 158.443601 
L 585.714798 161.794881 
L 588.615157 171.669806 
L 590.065336 173.755337 
L 591.515515 171.705661 
L 594.415874 162.515048 
L 595.866053 160.661872 
L 597.316233 162.147029 
L 600.216591 170.551572 
L 601.666771 172.444773 
L 603.11695 170.517471 
L 606.017309 161.522285 
L 607.467488 158.871401 
L 608.917667 158.632298 
L 610.367847 160.702039 
L 613.268205 168.20969 
L 614.718385 169.822782 
L 616.168564 168.204191 
L 619.068923 160.519952 
L 620.519102 157.912131 
L 621.969281 156.65313 
L 623.41946 156.200929 
L 626.319819 156.052525 
L 636.471074 156.047904 
L 636.471074 156.047904 
" clip-path="url(#p389564cc1e)" style="fill: none; stroke: #d62728; stroke-width: 2; stroke-linecap: square"/>
   </g>
   <g id="line2d_29">
    <path d="M 405.892562 156.047904 
L 414.593638 155.996841 
L 416.043817 155.788582 
L 417.493997 155.023265 
L 418.944176 152.895234 
L 420.394355 148.502518 
L 423.294714 135.850897 
L 424.744893 133.67244 
L 426.195073 137.255819 
L 429.095431 151.451008 
L 430.54561 155.519975 
L 431.99579 156.826563 
L 433.445969 156.729566 
L 434.896148 156.26322 
L 436.346328 155.628685 
L 437.796507 154.410345 
L 439.246686 152.046669 
L 442.147045 145.147424 
L 443.597224 143.658071 
L 445.047404 144.918723 
L 446.497583 147.600276 
L 447.947762 148.963029 
L 449.397942 146.629499 
L 450.848121 140.17826 
L 452.2983 132.118254 
L 453.74848 127.202608 
L 455.198659 129.255573 
L 456.648838 137.83934 
L 458.099018 148.477056 
L 459.549197 156.36368 
L 460.999376 159.633872 
L 462.449556 159.484948 
L 463.899735 158.113552 
L 465.349914 156.947918 
L 466.800094 156.331303 
L 469.700452 155.734775 
L 471.150632 155.039106 
L 472.600811 153.622355 
L 475.501169 149.497857 
L 476.951349 148.796475 
L 478.401528 150.323857 
L 479.851707 154.197028 
L 481.301887 160.065576 
L 482.752066 167.138727 
L 484.202245 173.585068 
L 485.652425 177.006915 
L 487.102604 176.549891 
L 488.552783 173.927939 
L 490.002963 171.558466 
L 491.453142 170.328029 
L 492.903321 169.775623 
L 494.353501 169.563143 
L 495.80368 170.088049 
L 497.253859 172.05303 
L 500.154218 178.834028 
L 501.604397 179.676745 
L 503.054577 177.057826 
L 504.504756 172.692047 
L 505.954935 169.3241 
L 507.405115 168.246817 
L 508.855294 168.491752 
L 510.305473 167.930987 
L 511.755653 165.000249 
L 513.205832 159.501499 
L 514.656011 152.024017 
L 517.55637 135.260403 
L 519.006549 130.264315 
L 520.456729 130.54981 
L 521.906908 135.47728 
L 523.357087 141.569614 
L 524.807266 145.081337 
L 526.257446 144.744917 
L 527.707625 142.408639 
L 529.157804 141.245293 
L 530.607984 142.980169 
L 532.058163 146.557253 
L 533.508342 149.343938 
L 534.958522 149.359311 
L 536.408701 146.645099 
L 537.85888 143.321197 
L 539.30906 142.345064 
L 540.759239 145.337957 
L 543.659598 157.164761 
L 545.109777 160.709022 
L 546.559956 161.306047 
L 548.010136 160.174281 
L 549.460315 159.252795 
L 550.910494 160.379051 
L 552.360674 164.969601 
L 553.810853 173.500422 
L 556.711212 195.66324 
L 558.161391 203.763243 
L 559.61157 207.899718 
L 561.06175 208.717603 
L 562.511929 208.632528 
L 563.962108 211.803404 
L 565.412288 221.751277 
L 569.762826 268.342523 
L 572.663184 295.258078 
L 574.113363 305.906221 
L 575.563543 304.423425 
L 577.013722 285.63574 
L 578.463901 253.474822 
L 579.914081 218.337096 
L 581.36426 190.279742 
L 582.814439 174.386666 
L 584.264619 170.555928 
L 585.714798 175.40532 
L 587.164977 183.956826 
L 588.615157 191.589028 
L 590.065336 196.453446 
L 591.515515 199.507523 
L 592.965695 201.409341 
L 594.415874 200.761532 
L 595.866053 196.356673 
L 598.766412 183.204452 
L 600.216591 179.221121 
L 601.666771 178.48728 
L 603.11695 181.388192 
L 604.567129 186.707172 
L 606.017309 190.933884 
L 607.467488 190.847896 
L 610.367847 182.554002 
L 611.818026 181.864925 
L 613.268205 186.654164 
L 614.718385 196.250909 
L 616.168564 207.192442 
L 617.618743 214.389259 
L 619.068923 214.201694 
L 620.519102 206.800751 
L 623.41946 184.809957 
L 624.86964 177.372784 
L 626.319819 173.736208 
L 627.769998 172.704907 
L 629.220178 173.951813 
L 630.670357 179.373296 
L 632.120536 190.635515 
L 633.570716 205.617889 
L 635.020895 218.960626 
L 636.471074 226.326872 
L 636.471074 226.326872 
" clip-path="url(#p389564cc1e)" style="fill: none; stroke: #ff7f0e; stroke-width: 2; stroke-linecap: square"/>
   </g>
   <g id="LineCollection_1">
    <path d="M 521.877904 282.913996 
L 521.877904 118.156125 
" clip-path="url(#p389564cc1e)" style="fill: none; stroke-dasharray: 7.4,3.2; stroke-dashoffset: 0; stroke: #000000; stroke-width: 2"/>
    <path d="M 536.379697 282.913996 
L 536.379697 118.156125 
" clip-path="url(#p389564cc1e)" style="fill: none; stroke-dasharray: 7.4,3.2; stroke-dashoffset: 0; stroke: #000000; stroke-width: 2"/>
    <path d="M 565.383284 282.913996 
L 565.383284 118.156125 
" clip-path="url(#p389564cc1e)" style="fill: none; stroke-dasharray: 7.4,3.2; stroke-dashoffset: 0; stroke: #000000; stroke-width: 2"/>
    <path d="M 623.390457 282.913996 
L 623.390457 118.156125 
" clip-path="url(#p389564cc1e)" style="fill: none; stroke-dasharray: 7.4,3.2; stroke-dashoffset: 0; stroke: #000000; stroke-width: 2"/>
   </g>
   <g id="patch_8">
    <path d="M 394.363636 333.490909 
L 394.363636 86.4 
" style="fill: none; stroke: #000000; stroke-width: 0.8; stroke-linejoin: miter; stroke-linecap: square"/>
   </g>
   <g id="patch_9">
    <path d="M 648 333.490909 
L 648 86.4 
" style="fill: none; stroke: #000000; stroke-width: 0.8; stroke-linejoin: miter; stroke-linecap: square"/>
   </g>
   <g id="patch_10">
    <path d="M 394.363636 333.490909 
L 648 333.490909 
" style="fill: none; stroke: #000000; stroke-width: 0.8; stroke-linejoin: miter; stroke-linecap: square"/>
   </g>
   <g id="patch_11">
    <path d="M 394.363636 86.4 
L 648 86.4 
" style="fill: none; stroke: #000000; stroke-width: 0.8; stroke-linejoin: miter; stroke-linecap: square"/>
   </g>
   <g id="text_26">
    <!-- unit_30 -->
    <g transform="translate(498.922756 80.4)scale(0.12 -0.12)">
     <defs>
      <path id="DejaVuSans-75" d="M 544 1381 
L 544 3500 
L 1119 3500 
L 1119 1403 
Q 1119 906 1312 657 
Q 1506 409 1894 409 
Q 2359 409 2629 706 
Q 2900 1003 2900 1516 
L 2900 3500 
L 3475 3500 
L 3475 0 
L 2900 0 
L 2900 538 
Q 2691 219 2414 64 
Q 2138 -91 1772 -91 
Q 1169 -91 856 284 
Q 544 659 544 1381 
z
M 1991 3584 
L 1991 3584 
z
" transform="scale(0.015625)"/>
      <path id="DejaVuSans-6e" d="M 3513 2113 
L 3513 0 
L 2938 0 
L 2938 2094 
Q 2938 2591 2744 2837 
Q 2550 3084 2163 3084 
Q 1697 3084 1428 2787 
Q 1159 2491 1159 1978 
L 1159 0 
L 581 0 
L 581 3500 
L 1159 3500 
L 1159 2956 
Q 1366 3272 1645 3428 
Q 1925 3584 2291 3584 
Q 2894 3584 3203 3211 
Q 3513 2838 3513 2113 
z
" transform="scale(0.015625)"/>
      <path id="DejaVuSans-69" d="M 603 3500 
L 1178 3500 
L 1178 0 
L 603 0 
L 603 3500 
z
M 603 4863 
L 1178 4863 
L 1178 4134 
L 603 4134 
L 603 4863 
z
" transform="scale(0.015625)"/>
      <path id="DejaVuSans-74" d="M 1172 4494 
L 1172 3500 
L 2356 3500 
L 2356 3053 
L 1172 3053 
L 1172 1153 
Q 1172 725 1289 603 
Q 1406 481 1766 481 
L 2356 481 
L 2356 0 
L 1766 0 
Q 1100 0 847 248 
Q 594 497 594 1153 
L 594 3053 
L 172 3053 
L 172 3500 
L 594 3500 
L 594 4494 
L 1172 4494 
z
" transform="scale(0.015625)"/>
      <path id="DejaVuSans-5f" d="M 3263 -1063 
L 3263 -1509 
L -63 -1509 
L -63 -1063 
L 3263 -1063 
z
" transform="scale(0.015625)"/>
     </defs>
     <use xlink:href="#DejaVuSans-75"/>
     <use xlink:href="#DejaVuSans-6e" x="63.378906"/>
     <use xlink:href="#DejaVuSans-69" x="126.757812"/>
     <use xlink:href="#DejaVuSans-74" x="154.541016"/>
     <use xlink:href="#DejaVuSans-5f" x="193.75"/>
     <use xlink:href="#DejaVuSans-33" x="243.75"/>
     <use xlink:href="#DejaVuSans-30" x="307.373047"/>
    </g>
   </g>
  </g>
  <g id="axes_3">
   <g id="patch_12">
    <path d="M 90 630 
L 343.636364 630 
L 343.636364 382.909091 
L 90 382.909091 
z
" style="fill: #ffffff"/>
   </g>
   <g id="matplotlib.axis_5">
    <g id="xtick_12">
     <g id="line2d_30">
      <g>
       <use xlink:href="#m2b94be9ca5" x="90" y="630" style="stroke: #000000; stroke-width: 0.8"/>
      </g>
     </g>
     <g id="text_27">
      <!-- 0.0 -->
      <g transform="translate(82.048438 644.598437)scale(0.1 -0.1)">
       <use xlink:href="#DejaVuSans-30"/>
       <use xlink:href="#DejaVuSans-2e" x="63.623047"/>
       <use xlink:href="#DejaVuSans-30" x="95.410156"/>
      </g>
     </g>
    </g>
    <g id="xtick_13">
     <g id="line2d_31">
      <g>
       <use xlink:href="#m2b94be9ca5" x="140.727273" y="630" style="stroke: #000000; stroke-width: 0.8"/>
      </g>
     </g>
     <g id="text_28">
      <!-- 0.2 -->
      <g transform="translate(132.77571 644.598437)scale(0.1 -0.1)">
       <use xlink:href="#DejaVuSans-30"/>
       <use xlink:href="#DejaVuSans-2e" x="63.623047"/>
       <use xlink:href="#DejaVuSans-32" x="95.410156"/>
      </g>
     </g>
    </g>
    <g id="xtick_14">
     <g id="line2d_32">
      <g>
       <use xlink:href="#m2b94be9ca5" x="191.454545" y="630" style="stroke: #000000; stroke-width: 0.8"/>
      </g>
     </g>
     <g id="text_29">
      <!-- 0.4 -->
      <g transform="translate(183.502983 644.598437)scale(0.1 -0.1)">
       <use xlink:href="#DejaVuSans-30"/>
       <use xlink:href="#DejaVuSans-2e" x="63.623047"/>
       <use xlink:href="#DejaVuSans-34" x="95.410156"/>
      </g>
     </g>
    </g>
    <g id="xtick_15">
     <g id="line2d_33">
      <g>
       <use xlink:href="#m2b94be9ca5" x="242.181818" y="630" style="stroke: #000000; stroke-width: 0.8"/>
      </g>
     </g>
     <g id="text_30">
      <!-- 0.6 -->
      <g transform="translate(234.230256 644.598437)scale(0.1 -0.1)">
       <use xlink:href="#DejaVuSans-30"/>
       <use xlink:href="#DejaVuSans-2e" x="63.623047"/>
       <use xlink:href="#DejaVuSans-36" x="95.410156"/>
      </g>
     </g>
    </g>
    <g id="xtick_16">
     <g id="line2d_34">
      <g>
       <use xlink:href="#m2b94be9ca5" x="292.909091" y="630" style="stroke: #000000; stroke-width: 0.8"/>
      </g>
     </g>
     <g id="text_31">
      <!-- 0.8 -->
      <g transform="translate(284.957528 644.598437)scale(0.1 -0.1)">
       <use xlink:href="#DejaVuSans-30"/>
       <use xlink:href="#DejaVuSans-2e" x="63.623047"/>
       <use xlink:href="#DejaVuSans-38" x="95.410156"/>
      </g>
     </g>
    </g>
    <g id="xtick_17">
     <g id="line2d_35">
      <g>
       <use xlink:href="#m2b94be9ca5" x="343.636364" y="630" style="stroke: #000000; stroke-width: 0.8"/>
      </g>
     </g>
     <g id="text_32">
      <!-- 1.0 -->
      <g transform="translate(335.684801 644.598437)scale(0.1 -0.1)">
       <use xlink:href="#DejaVuSans-31"/>
       <use xlink:href="#DejaVuSans-2e" x="63.623047"/>
       <use xlink:href="#DejaVuSans-30" x="95.410156"/>
      </g>
     </g>
    </g>
   </g>
   <g id="matplotlib.axis_6">
    <g id="ytick_15">
     <g id="line2d_36">
      <g>
       <use xlink:href="#md43d92821e" x="90" y="630" style="stroke: #000000; stroke-width: 0.8"/>
      </g>
     </g>
     <g id="text_33">
      <!-- 0.0 -->
      <g transform="translate(67.096875 633.799219)scale(0.1 -0.1)">
       <use xlink:href="#DejaVuSans-30"/>
       <use xlink:href="#DejaVuSans-2e" x="63.623047"/>
       <use xlink:href="#DejaVuSans-30" x="95.410156"/>
      </g>
     </g>
    </g>
    <g id="ytick_16">
     <g id="line2d_37">
      <g>
       <use xlink:href="#md43d92821e" x="90" y="580.581818" style="stroke: #000000; stroke-width: 0.8"/>
      </g>
     </g>
     <g id="text_34">
      <!-- 0.2 -->
      <g transform="translate(67.096875 584.381037)scale(0.1 -0.1)">
       <use xlink:href="#DejaVuSans-30"/>
       <use xlink:href="#DejaVuSans-2e" x="63.623047"/>
       <use xlink:href="#DejaVuSans-32" x="95.410156"/>
      </g>
     </g>
    </g>
    <g id="ytick_17">
     <g id="line2d_38">
      <g>
       <use xlink:href="#md43d92821e" x="90" y="531.163636" style="stroke: #000000; stroke-width: 0.8"/>
      </g>
     </g>
     <g id="text_35">
      <!-- 0.4 -->
      <g transform="translate(67.096875 534.962855)scale(0.1 -0.1)">
       <use xlink:href="#DejaVuSans-30"/>
       <use xlink:href="#DejaVuSans-2e" x="63.623047"/>
       <use xlink:href="#DejaVuSans-34" x="95.410156"/>
      </g>
     </g>
    </g>
    <g id="ytick_18">
     <g id="line2d_39">
      <g>
       <use xlink:href="#md43d92821e" x="90" y="481.745455" style="stroke: #000000; stroke-width: 0.8"/>
      </g>
     </g>
     <g id="text_36">
      <!-- 0.6 -->
      <g transform="translate(67.096875 485.544673)scale(0.1 -0.1)">
       <use xlink:href="#DejaVuSans-30"/>
       <use xlink:href="#DejaVuSans-2e" x="63.623047"/>
       <use xlink:href="#DejaVuSans-36" x="95.410156"/>
      </g>
     </g>
    </g>
    <g id="ytick_19">
     <g id="line2d_40">
      <g>
       <use xlink:href="#md43d92821e" x="90" y="432.327273" style="stroke: #000000; stroke-width: 0.8"/>
      </g>
     </g>
     <g id="text_37">
      <!-- 0.8 -->
      <g transform="translate(67.096875 436.126491)scale(0.1 -0.1)">
       <use xlink:href="#DejaVuSans-30"/>
       <use xlink:href="#DejaVuSans-2e" x="63.623047"/>
       <use xlink:href="#DejaVuSans-38" x="95.410156"/>
      </g>
     </g>
    </g>
    <g id="ytick_20">
     <g id="line2d_41">
      <g>
       <use xlink:href="#md43d92821e" x="90" y="382.909091" style="stroke: #000000; stroke-width: 0.8"/>
      </g>
     </g>
     <g id="text_38">
      <!-- 1.0 -->
      <g transform="translate(67.096875 386.70831)scale(0.1 -0.1)">
       <use xlink:href="#DejaVuSans-31"/>
       <use xlink:href="#DejaVuSans-2e" x="63.623047"/>
       <use xlink:href="#DejaVuSans-30" x="95.410156"/>
      </g>
     </g>
    </g>
   </g>
   <g id="patch_13">
    <path d="M 90 630 
L 90 382.909091 
" style="fill: none; stroke: #000000; stroke-width: 0.8; stroke-linejoin: miter; stroke-linecap: square"/>
   </g>
   <g id="patch_14">
    <path d="M 343.636364 630 
L 343.636364 382.909091 
" style="fill: none; stroke: #000000; stroke-width: 0.8; stroke-linejoin: miter; stroke-linecap: square"/>
   </g>
   <g id="patch_15">
    <path d="M 90 630 
L 343.636364 630 
" style="fill: none; stroke: #000000; stroke-width: 0.8; stroke-linejoin: miter; stroke-linecap: square"/>
   </g>
   <g id="patch_16">
    <path d="M 90 382.909091 
L 343.636364 382.909091 
" style="fill: none; stroke: #000000; stroke-width: 0.8; stroke-linejoin: miter; stroke-linecap: square"/>
   </g>
  </g>
  <g id="axes_4">
   <g id="patch_17">
    <path d="M 394.363636 630 
L 648 630 
L 648 382.909091 
L 394.363636 382.909091 
z
" style="fill: #ffffff"/>
   </g>
   <g id="matplotlib.axis_7">
    <g id="xtick_18">
     <g id="line2d_42">
      <g>
       <use xlink:href="#m2b94be9ca5" x="405.863558" y="630" style="stroke: #000000; stroke-width: 0.8"/>
      </g>
     </g>
     <g id="text_39">
      <!-- 0 -->
      <g transform="translate(402.682308 644.598437)scale(0.1 -0.1)">
       <use xlink:href="#DejaVuSans-30"/>
      </g>
     </g>
    </g>
    <g id="xtick_19">
     <g id="line2d_43">
      <g>
       <use xlink:href="#m2b94be9ca5" x="463.870731" y="630" style="stroke: #000000; stroke-width: 0.8"/>
      </g>
     </g>
     <g id="text_40">
      <!-- 2000 -->
      <g transform="translate(451.145731 644.598437)scale(0.1 -0.1)">
       <use xlink:href="#DejaVuSans-32"/>
       <use xlink:href="#DejaVuSans-30" x="63.623047"/>
       <use xlink:href="#DejaVuSans-30" x="127.246094"/>
       <use xlink:href="#DejaVuSans-30" x="190.869141"/>
      </g>
     </g>
    </g>
    <g id="xtick_20">
     <g id="line2d_44">
      <g>
       <use xlink:href="#m2b94be9ca5" x="521.877904" y="630" style="stroke: #000000; stroke-width: 0.8"/>
      </g>
     </g>
     <g id="text_41">
      <!-- 4000 -->
      <g transform="translate(509.152904 644.598437)scale(0.1 -0.1)">
       <use xlink:href="#DejaVuSans-34"/>
       <use xlink:href="#DejaVuSans-30" x="63.623047"/>
       <use xlink:href="#DejaVuSans-30" x="127.246094"/>
       <use xlink:href="#DejaVuSans-30" x="190.869141"/>
      </g>
     </g>
    </g>
    <g id="xtick_21">
     <g id="line2d_45">
      <g>
       <use xlink:href="#m2b94be9ca5" x="579.885077" y="630" style="stroke: #000000; stroke-width: 0.8"/>
      </g>
     </g>
     <g id="text_42">
      <!-- 6000 -->
      <g transform="translate(567.160077 644.598437)scale(0.1 -0.1)">
       <use xlink:href="#DejaVuSans-36"/>
       <use xlink:href="#DejaVuSans-30" x="63.623047"/>
       <use xlink:href="#DejaVuSans-30" x="127.246094"/>
       <use xlink:href="#DejaVuSans-30" x="190.869141"/>
      </g>
     </g>
    </g>
    <g id="xtick_22">
     <g id="line2d_46">
      <g>
       <use xlink:href="#m2b94be9ca5" x="637.89225" y="630" style="stroke: #000000; stroke-width: 0.8"/>
      </g>
     </g>
     <g id="text_43">
      <!-- 8000 -->
      <g transform="translate(625.16725 644.598437)scale(0.1 -0.1)">
       <use xlink:href="#DejaVuSans-38"/>
       <use xlink:href="#DejaVuSans-30" x="63.623047"/>
       <use xlink:href="#DejaVuSans-30" x="127.246094"/>
       <use xlink:href="#DejaVuSans-30" x="190.869141"/>
      </g>
     </g>
    </g>
   </g>
   <g id="matplotlib.axis_8">
    <g id="ytick_21">
     <g id="line2d_47">
      <g>
       <use xlink:href="#md43d92821e" x="394.363636" y="630" style="stroke: #000000; stroke-width: 0.8"/>
      </g>
     </g>
     <g id="text_44">
      <!-- −2 -->
      <g transform="translate(372.621449 633.799219)scale(0.1 -0.1)">
       <use xlink:href="#DejaVuSans-2212"/>
       <use xlink:href="#DejaVuSans-32" x="83.789062"/>
      </g>
     </g>
    </g>
    <g id="ytick_22">
     <g id="line2d_48">
      <g>
       <use xlink:href="#md43d92821e" x="394.363636" y="599.933952" style="stroke: #000000; stroke-width: 0.8"/>
      </g>
     </g>
     <g id="text_45">
      <!-- −1 -->
      <g transform="translate(372.621449 603.733171)scale(0.1 -0.1)">
       <use xlink:href="#DejaVuSans-2212"/>
       <use xlink:href="#DejaVuSans-31" x="83.789062"/>
      </g>
     </g>
    </g>
    <g id="ytick_23">
     <g id="line2d_49">
      <g>
       <use xlink:href="#md43d92821e" x="394.363636" y="569.867905" style="stroke: #000000; stroke-width: 0.8"/>
      </g>
     </g>
     <g id="text_46">
      <!-- 0 -->
      <g transform="translate(381.001136 573.667123)scale(0.1 -0.1)">
       <use xlink:href="#DejaVuSans-30"/>
      </g>
     </g>
    </g>
    <g id="ytick_24">
     <g id="line2d_50">
      <g>
       <use xlink:href="#md43d92821e" x="394.363636" y="539.801857" style="stroke: #000000; stroke-width: 0.8"/>
      </g>
     </g>
     <g id="text_47">
      <!-- 1 -->
      <g transform="translate(381.001136 543.601076)scale(0.1 -0.1)">
       <use xlink:href="#DejaVuSans-31"/>
      </g>
     </g>
    </g>
    <g id="ytick_25">
     <g id="line2d_51">
      <g>
       <use xlink:href="#md43d92821e" x="394.363636" y="509.735809" style="stroke: #000000; stroke-width: 0.8"/>
      </g>
     </g>
     <g id="text_48">
      <!-- 2 -->
      <g transform="translate(381.001136 513.535028)scale(0.1 -0.1)">
       <use xlink:href="#DejaVuSans-32"/>
      </g>
     </g>
    </g>
    <g id="ytick_26">
     <g id="line2d_52">
      <g>
       <use xlink:href="#md43d92821e" x="394.363636" y="479.669761" style="stroke: #000000; stroke-width: 0.8"/>
      </g>
     </g>
     <g id="text_49">
      <!-- 3 -->
      <g transform="translate(381.001136 483.46898)scale(0.1 -0.1)">
       <use xlink:href="#DejaVuSans-33"/>
      </g>
     </g>
    </g>
    <g id="ytick_27">
     <g id="line2d_53">
      <g>
       <use xlink:href="#md43d92821e" x="394.363636" y="449.603714" style="stroke: #000000; stroke-width: 0.8"/>
      </g>
     </g>
     <g id="text_50">
      <!-- 4 -->
      <g transform="translate(381.001136 453.402932)scale(0.1 -0.1)">
       <use xlink:href="#DejaVuSans-34"/>
      </g>
     </g>
    </g>
    <g id="ytick_28">
     <g id="line2d_54">
      <g>
       <use xlink:href="#md43d92821e" x="394.363636" y="419.537666" style="stroke: #000000; stroke-width: 0.8"/>
      </g>
     </g>
     <g id="text_51">
      <!-- 5 -->
      <g transform="translate(381.001136 423.336885)scale(0.1 -0.1)">
       <use xlink:href="#DejaVuSans-35"/>
      </g>
     </g>
    </g>
    <g id="ytick_29">
     <g id="line2d_55">
      <g>
       <use xlink:href="#md43d92821e" x="394.363636" y="389.471618" style="stroke: #000000; stroke-width: 0.8"/>
      </g>
     </g>
     <g id="text_52">
      <!-- 6 -->
      <g transform="translate(381.001136 393.270837)scale(0.1 -0.1)">
       <use xlink:href="#DejaVuSans-36"/>
      </g>
     </g>
    </g>
   </g>
   <g id="line2d_56">
    <path d="M 405.892562 583.546239 
L 407.342741 622.46817 
L 408.792921 673.352852 
L 410.2431 713.743061 
L 410.683187 721 
M 412.102917 721 
L 413.143459 678.690702 
L 414.593638 650.836164 
L 416.043817 671.744122 
L 417.493997 637.517011 
L 418.944176 596.50659 
L 420.394355 581.778406 
L 421.844535 593.025502 
L 423.294714 651.162334 
L 424.744893 694.733754 
L 427.645252 571.672369 
L 429.095431 574.481567 
L 430.54561 614.037085 
L 431.99579 644.609993 
L 433.445969 625.556518 
L 434.896148 600.290449 
L 436.346328 589.386986 
L 437.796507 600.700491 
L 439.246686 612.892632 
L 440.696866 597.666442 
L 442.147045 612.111095 
L 443.597224 644.791825 
L 445.047404 642.467653 
L 446.497583 645.370967 
L 447.947762 681.562797 
L 449.397942 713.98533 
L 450.848121 663.96686 
L 452.2983 605.641591 
L 453.74848 603.420705 
L 455.198659 636.727454 
L 456.648838 629.467203 
L 458.099018 605.78166 
L 459.549197 597.929197 
L 460.999376 571.660429 
L 462.449556 510.184974 
L 463.899735 470.031736 
L 466.800094 555.615177 
L 468.250273 541.340962 
L 469.700452 518.561536 
L 471.150632 539.086444 
L 472.600811 569.290155 
L 474.05099 580.540487 
L 475.501169 577.685652 
L 476.951349 573.309919 
L 478.401528 571.195737 
L 479.851707 570.011977 
L 481.301887 570.306437 
L 482.752066 580.876923 
L 484.202245 621.711635 
L 485.652425 655.228911 
L 487.102604 624.872418 
L 488.552783 604.647427 
L 490.002963 614.462632 
L 491.453142 601.387558 
L 492.903321 579.168412 
L 494.353501 568.976782 
L 495.80368 570.638085 
L 497.253859 590.632338 
L 498.704039 614.431209 
L 500.154218 616.910065 
L 501.604397 606.790628 
L 503.054577 589.914595 
L 504.504756 593.46645 
L 505.954935 644.962493 
L 507.405115 689.528219 
L 508.855294 661.551481 
L 511.755653 579.197571 
L 513.205832 546.805344 
L 514.656011 541.12678 
L 516.106191 554.596177 
L 517.55637 561.374897 
L 519.006549 567.504115 
L 520.456729 584.517438 
L 521.906908 584.949516 
L 523.357087 582.462864 
L 524.807266 583.581682 
L 526.257446 569.362546 
L 527.707625 564.201196 
L 529.157804 581.205586 
L 530.607984 584.570082 
L 532.058163 578.462826 
L 533.508342 575.503919 
L 534.958522 575.367658 
L 536.408701 560.283958 
L 537.85888 527.913383 
L 539.30906 528.086621 
L 542.209418 586.096818 
L 543.659598 629.251716 
L 545.109777 665.989555 
L 546.559956 637.981108 
L 548.010136 577.512008 
L 549.460315 523.925028 
L 550.910494 507.111642 
L 552.360674 545.816633 
L 553.810853 542.560327 
L 555.261032 442.245913 
L 556.711212 382.909091 
L 558.161391 414.780948 
L 559.61157 440.643554 
L 561.06175 488.399118 
L 562.511929 546.78585 
L 565.412288 620.361891 
L 567.075032 721 
M 570.626071 721 
L 571.213005 698.868665 
L 571.882946 721 
M 576.24327 721 
L 577.013722 711.717059 
L 579.914081 584.09514 
L 581.36426 570.122245 
L 582.814439 569.878687 
L 584.264619 570.738865 
L 585.714798 572.666189 
L 587.164977 571.324049 
L 588.615157 574.701292 
L 590.065336 597.329573 
L 591.515515 627.396822 
L 592.965695 629.056258 
L 594.415874 601.155784 
L 595.866053 626.900125 
L 597.316233 641.340747 
L 598.766412 635.404636 
L 600.216591 655.410977 
L 601.666771 654.451464 
L 603.11695 611.62075 
L 604.567129 563.632201 
L 607.467488 485.748708 
L 608.917667 468.043897 
L 611.818026 577.443693 
L 613.268205 590.387957 
L 614.718385 597.599782 
L 616.168564 594.444474 
L 617.618743 574.959678 
L 619.068923 573.888121 
L 620.519102 609.489154 
L 621.969281 639.397381 
L 623.41946 613.189969 
L 624.86964 590.256238 
L 627.769998 650.703378 
L 629.220178 620.975125 
L 630.670357 595.702347 
L 632.120536 654.354613 
L 632.548734 721 
L 632.548734 721 
" clip-path="url(#p6349882cc1)" style="fill: none; stroke: #1f77b4; stroke-width: 1.5; stroke-linecap: square"/>
   </g>
   <g id="patch_18">
    <path d="M 394.363636 630 
L 394.363636 382.909091 
" style="fill: none; stroke: #000000; stroke-width: 0.8; stroke-linejoin: miter; stroke-linecap: square"/>
   </g>
   <g id="patch_19">
    <path d="M 648 630 
L 648 382.909091 
" style="fill: none; stroke: #000000; stroke-width: 0.8; stroke-linejoin: miter; stroke-linecap: square"/>
   </g>
   <g id="patch_20">
    <path d="M 394.363636 630 
L 648 630 
" style="fill: none; stroke: #000000; stroke-width: 0.8; stroke-linejoin: miter; stroke-linecap: square"/>
   </g>
   <g id="patch_21">
    <path d="M 394.363636 382.909091 
L 648 382.909091 
" style="fill: none; stroke: #000000; stroke-width: 0.8; stroke-linejoin: miter; stroke-linecap: square"/>
   </g>
   <g id="text_53">
    <!-- explained variance -->
    <g transform="translate(464.181818 376.909091)scale(0.12 -0.12)">
     <defs>
      <path id="DejaVuSans-65" d="M 3597 1894 
L 3597 1613 
L 953 1613 
Q 991 1019 1311 708 
Q 1631 397 2203 397 
Q 2534 397 2845 478 
Q 3156 559 3463 722 
L 3463 178 
Q 3153 47 2828 -22 
Q 2503 -91 2169 -91 
Q 1331 -91 842 396 
Q 353 884 353 1716 
Q 353 2575 817 3079 
Q 1281 3584 2069 3584 
Q 2775 3584 3186 3129 
Q 3597 2675 3597 1894 
z
M 3022 2063 
Q 3016 2534 2758 2815 
Q 2500 3097 2075 3097 
Q 1594 3097 1305 2825 
Q 1016 2553 972 2059 
L 3022 2063 
z
" transform="scale(0.015625)"/>
      <path id="DejaVuSans-78" d="M 3513 3500 
L 2247 1797 
L 3578 0 
L 2900 0 
L 1881 1375 
L 863 0 
L 184 0 
L 1544 1831 
L 300 3500 
L 978 3500 
L 1906 2253 
L 2834 3500 
L 3513 3500 
z
" transform="scale(0.015625)"/>
      <path id="DejaVuSans-70" d="M 1159 525 
L 1159 -1331 
L 581 -1331 
L 581 3500 
L 1159 3500 
L 1159 2969 
Q 1341 3281 1617 3432 
Q 1894 3584 2278 3584 
Q 2916 3584 3314 3078 
Q 3713 2572 3713 1747 
Q 3713 922 3314 415 
Q 2916 -91 2278 -91 
Q 1894 -91 1617 61 
Q 1341 213 1159 525 
z
M 3116 1747 
Q 3116 2381 2855 2742 
Q 2594 3103 2138 3103 
Q 1681 3103 1420 2742 
Q 1159 2381 1159 1747 
Q 1159 1113 1420 752 
Q 1681 391 2138 391 
Q 2594 391 2855 752 
Q 3116 1113 3116 1747 
z
" transform="scale(0.015625)"/>
      <path id="DejaVuSans-6c" d="M 603 4863 
L 1178 4863 
L 1178 0 
L 603 0 
L 603 4863 
z
" transform="scale(0.015625)"/>
      <path id="DejaVuSans-61" d="M 2194 1759 
Q 1497 1759 1228 1600 
Q 959 1441 959 1056 
Q 959 750 1161 570 
Q 1363 391 1709 391 
Q 2188 391 2477 730 
Q 2766 1069 2766 1631 
L 2766 1759 
L 2194 1759 
z
M 3341 1997 
L 3341 0 
L 2766 0 
L 2766 531 
Q 2569 213 2275 61 
Q 1981 -91 1556 -91 
Q 1019 -91 701 211 
Q 384 513 384 1019 
Q 384 1609 779 1909 
Q 1175 2209 1959 2209 
L 2766 2209 
L 2766 2266 
Q 2766 2663 2505 2880 
Q 2244 3097 1772 3097 
Q 1472 3097 1187 3025 
Q 903 2953 641 2809 
L 641 3341 
Q 956 3463 1253 3523 
Q 1550 3584 1831 3584 
Q 2591 3584 2966 3190 
Q 3341 2797 3341 1997 
z
" transform="scale(0.015625)"/>
      <path id="DejaVuSans-64" d="M 2906 2969 
L 2906 4863 
L 3481 4863 
L 3481 0 
L 2906 0 
L 2906 525 
Q 2725 213 2448 61 
Q 2172 -91 1784 -91 
Q 1150 -91 751 415 
Q 353 922 353 1747 
Q 353 2572 751 3078 
Q 1150 3584 1784 3584 
Q 2172 3584 2448 3432 
Q 2725 3281 2906 2969 
z
M 947 1747 
Q 947 1113 1208 752 
Q 1469 391 1925 391 
Q 2381 391 2643 752 
Q 2906 1113 2906 1747 
Q 2906 2381 2643 2742 
Q 2381 3103 1925 3103 
Q 1469 3103 1208 2742 
Q 947 2381 947 1747 
z
" transform="scale(0.015625)"/>
      <path id="DejaVuSans-20" transform="scale(0.015625)"/>
      <path id="DejaVuSans-76" d="M 191 3500 
L 800 3500 
L 1894 563 
L 2988 3500 
L 3597 3500 
L 2284 0 
L 1503 0 
L 191 3500 
z
" transform="scale(0.015625)"/>
      <path id="DejaVuSans-72" d="M 2631 2963 
Q 2534 3019 2420 3045 
Q 2306 3072 2169 3072 
Q 1681 3072 1420 2755 
Q 1159 2438 1159 1844 
L 1159 0 
L 581 0 
L 581 3500 
L 1159 3500 
L 1159 2956 
Q 1341 3275 1631 3429 
Q 1922 3584 2338 3584 
Q 2397 3584 2469 3576 
Q 2541 3569 2628 3553 
L 2631 2963 
z
" transform="scale(0.015625)"/>
      <path id="DejaVuSans-63" d="M 3122 3366 
L 3122 2828 
Q 2878 2963 2633 3030 
Q 2388 3097 2138 3097 
Q 1578 3097 1268 2742 
Q 959 2388 959 1747 
Q 959 1106 1268 751 
Q 1578 397 2138 397 
Q 2388 397 2633 464 
Q 2878 531 3122 666 
L 3122 134 
Q 2881 22 2623 -34 
Q 2366 -91 2075 -91 
Q 1284 -91 818 406 
Q 353 903 353 1747 
Q 353 2603 823 3093 
Q 1294 3584 2113 3584 
Q 2378 3584 2631 3529 
Q 2884 3475 3122 3366 
z
" transform="scale(0.015625)"/>
     </defs>
     <use xlink:href="#DejaVuSans-65"/>
     <use xlink:href="#DejaVuSans-78" x="59.773438"/>
     <use xlink:href="#DejaVuSans-70" x="118.953125"/>
     <use xlink:href="#DejaVuSans-6c" x="182.429688"/>
     <use xlink:href="#DejaVuSans-61" x="210.212891"/>
     <use xlink:href="#DejaVuSans-69" x="271.492188"/>
     <use xlink:href="#DejaVuSans-6e" x="299.275391"/>
     <use xlink:href="#DejaVuSans-65" x="362.654297"/>
     <use xlink:href="#DejaVuSans-64" x="424.177734"/>
     <use xlink:href="#DejaVuSans-20" x="487.654297"/>
     <use xlink:href="#DejaVuSans-76" x="519.441406"/>
     <use xlink:href="#DejaVuSans-61" x="578.621094"/>
     <use xlink:href="#DejaVuSans-72" x="639.900391"/>
     <use xlink:href="#DejaVuSans-69" x="681.013672"/>
     <use xlink:href="#DejaVuSans-61" x="708.796875"/>
     <use xlink:href="#DejaVuSans-6e" x="770.076172"/>
     <use xlink:href="#DejaVuSans-63" x="833.455078"/>
     <use xlink:href="#DejaVuSans-65" x="888.435547"/>
    </g>
   </g>
  </g>
 </g>
 <defs>
  <clipPath id="p389564cc1e">
   <rect x="394.363636" y="86.4" width="253.636364" height="247.090909"/>
  </clipPath>
  <clipPath id="p6349882cc1">
   <rect x="394.363636" y="382.909091" width="253.636364" height="247.090909"/>
  </clipPath>
 </defs>
</svg>
