<?xml version="1.0" encoding="utf-8" standalone="no"?>
<!DOCTYPE svg PUBLIC "-//W3C//DTD SVG 1.1//EN"
  "http://www.w3.org/Graphics/SVG/1.1/DTD/svg11.dtd">
<svg xmlns:xlink="http://www.w3.org/1999/xlink" width="720pt" height="720pt" viewBox="0 0 720 720" xmlns="http://www.w3.org/2000/svg" version="1.1">
 <metadata>
  <rdf:RDF xmlns:dc="http://purl.org/dc/elements/1.1/" xmlns:cc="http://creativecommons.org/ns#" xmlns:rdf="http://www.w3.org/1999/02/22-rdf-syntax-ns#">
   <cc:Work>
    <dc:type rdf:resource="http://purl.org/dc/dcmitype/StillImage"/>
    <dc:date>2023-12-19T18:17:12.833817</dc:date>
    <dc:format>image/svg+xml</dc:format>
    <dc:creator>
     <cc:Agent>
      <dc:title>Matplotlib v3.5.2, https://matplotlib.org/</dc:title>
     </cc:Agent>
    </dc:creator>
   </cc:Work>
  </rdf:RDF>
 </metadata>
 <defs>
  <style type="text/css">*{stroke-linejoin: round; stroke-linecap: butt}</style>
 </defs>
 <g id="figure_1">
  <g id="patch_1">
   <path d="M 0 720 
L 720 720 
L 720 0 
L 0 0 
z
" style="fill: #ffffff"/>
  </g>
  <g id="axes_1">
   <g id="patch_2">
    <path d="M 90 333.490909 
L 343.636364 333.490909 
L 343.636364 86.4 
L 90 86.4 
z
" style="fill: #ffffff"/>
   </g>
   <g id="matplotlib.axis_1">
    <g id="xtick_1">
     <g id="line2d_1">
      <defs>
       <path id="m4b4c608606" d="M 0 0 
L 0 3.5 
" style="stroke: #000000; stroke-width: 0.8"/>
      </defs>
      <g>
       <use xlink:href="#m4b4c608606" x="90" y="333.490909" style="stroke: #000000; stroke-width: 0.8"/>
      </g>
     </g>
     <g id="text_1">
      <!-- 0.0 -->
      <g transform="translate(82.048438 348.089347)scale(0.1 -0.1)">
       <defs>
        <path id="DejaVuSans-30" d="M 2034 4250 
Q 1547 4250 1301 3770 
Q 1056 3291 1056 2328 
Q 1056 1369 1301 889 
Q 1547 409 2034 409 
Q 2525 409 2770 889 
Q 3016 1369 3016 2328 
Q 3016 3291 2770 3770 
Q 2525 4250 2034 4250 
z
M 2034 4750 
Q 2819 4750 3233 4129 
Q 3647 3509 3647 2328 
Q 3647 1150 3233 529 
Q 2819 -91 2034 -91 
Q 1250 -91 836 529 
Q 422 1150 422 2328 
Q 422 3509 836 4129 
Q 1250 4750 2034 4750 
z
" transform="scale(0.015625)"/>
        <path id="DejaVuSans-2e" d="M 684 794 
L 1344 794 
L 1344 0 
L 684 0 
L 684 794 
z
" transform="scale(0.015625)"/>
       </defs>
       <use xlink:href="#DejaVuSans-30"/>
       <use xlink:href="#DejaVuSans-2e" x="63.623047"/>
       <use xlink:href="#DejaVuSans-30" x="95.410156"/>
      </g>
     </g>
    </g>
    <g id="xtick_2">
     <g id="line2d_2">
      <g>
       <use xlink:href="#m4b4c608606" x="140.727273" y="333.490909" style="stroke: #000000; stroke-width: 0.8"/>
      </g>
     </g>
     <g id="text_2">
      <!-- 0.2 -->
      <g transform="translate(132.77571 348.089347)scale(0.1 -0.1)">
       <defs>
        <path id="DejaVuSans-32" d="M 1228 531 
L 3431 531 
L 3431 0 
L 469 0 
L 469 531 
Q 828 903 1448 1529 
Q 2069 2156 2228 2338 
Q 2531 2678 2651 2914 
Q 2772 3150 2772 3378 
Q 2772 3750 2511 3984 
Q 2250 4219 1831 4219 
Q 1534 4219 1204 4116 
Q 875 4013 500 3803 
L 500 4441 
Q 881 4594 1212 4672 
Q 1544 4750 1819 4750 
Q 2544 4750 2975 4387 
Q 3406 4025 3406 3419 
Q 3406 3131 3298 2873 
Q 3191 2616 2906 2266 
Q 2828 2175 2409 1742 
Q 1991 1309 1228 531 
z
" transform="scale(0.015625)"/>
       </defs>
       <use xlink:href="#DejaVuSans-30"/>
       <use xlink:href="#DejaVuSans-2e" x="63.623047"/>
       <use xlink:href="#DejaVuSans-32" x="95.410156"/>
      </g>
     </g>
    </g>
    <g id="xtick_3">
     <g id="line2d_3">
      <g>
       <use xlink:href="#m4b4c608606" x="191.454545" y="333.490909" style="stroke: #000000; stroke-width: 0.8"/>
      </g>
     </g>
     <g id="text_3">
      <!-- 0.4 -->
      <g transform="translate(183.502983 348.089347)scale(0.1 -0.1)">
       <defs>
        <path id="DejaVuSans-34" d="M 2419 4116 
L 825 1625 
L 2419 1625 
L 2419 4116 
z
M 2253 4666 
L 3047 4666 
L 3047 1625 
L 3713 1625 
L 3713 1100 
L 3047 1100 
L 3047 0 
L 2419 0 
L 2419 1100 
L 313 1100 
L 313 1709 
L 2253 4666 
z
" transform="scale(0.015625)"/>
       </defs>
       <use xlink:href="#DejaVuSans-30"/>
       <use xlink:href="#DejaVuSans-2e" x="63.623047"/>
       <use xlink:href="#DejaVuSans-34" x="95.410156"/>
      </g>
     </g>
    </g>
    <g id="xtick_4">
     <g id="line2d_4">
      <g>
       <use xlink:href="#m4b4c608606" x="242.181818" y="333.490909" style="stroke: #000000; stroke-width: 0.8"/>
      </g>
     </g>
     <g id="text_4">
      <!-- 0.6 -->
      <g transform="translate(234.230256 348.089347)scale(0.1 -0.1)">
       <defs>
        <path id="DejaVuSans-36" d="M 2113 2584 
Q 1688 2584 1439 2293 
Q 1191 2003 1191 1497 
Q 1191 994 1439 701 
Q 1688 409 2113 409 
Q 2538 409 2786 701 
Q 3034 994 3034 1497 
Q 3034 2003 2786 2293 
Q 2538 2584 2113 2584 
z
M 3366 4563 
L 3366 3988 
Q 3128 4100 2886 4159 
Q 2644 4219 2406 4219 
Q 1781 4219 1451 3797 
Q 1122 3375 1075 2522 
Q 1259 2794 1537 2939 
Q 1816 3084 2150 3084 
Q 2853 3084 3261 2657 
Q 3669 2231 3669 1497 
Q 3669 778 3244 343 
Q 2819 -91 2113 -91 
Q 1303 -91 875 529 
Q 447 1150 447 2328 
Q 447 3434 972 4092 
Q 1497 4750 2381 4750 
Q 2619 4750 2861 4703 
Q 3103 4656 3366 4563 
z
" transform="scale(0.015625)"/>
       </defs>
       <use xlink:href="#DejaVuSans-30"/>
       <use xlink:href="#DejaVuSans-2e" x="63.623047"/>
       <use xlink:href="#DejaVuSans-36" x="95.410156"/>
      </g>
     </g>
    </g>
    <g id="xtick_5">
     <g id="line2d_5">
      <g>
       <use xlink:href="#m4b4c608606" x="292.909091" y="333.490909" style="stroke: #000000; stroke-width: 0.8"/>
      </g>
     </g>
     <g id="text_5">
      <!-- 0.8 -->
      <g transform="translate(284.957528 348.089347)scale(0.1 -0.1)">
       <defs>
        <path id="DejaVuSans-38" d="M 2034 2216 
Q 1584 2216 1326 1975 
Q 1069 1734 1069 1313 
Q 1069 891 1326 650 
Q 1584 409 2034 409 
Q 2484 409 2743 651 
Q 3003 894 3003 1313 
Q 3003 1734 2745 1975 
Q 2488 2216 2034 2216 
z
M 1403 2484 
Q 997 2584 770 2862 
Q 544 3141 544 3541 
Q 544 4100 942 4425 
Q 1341 4750 2034 4750 
Q 2731 4750 3128 4425 
Q 3525 4100 3525 3541 
Q 3525 3141 3298 2862 
Q 3072 2584 2669 2484 
Q 3125 2378 3379 2068 
Q 3634 1759 3634 1313 
Q 3634 634 3220 271 
Q 2806 -91 2034 -91 
Q 1263 -91 848 271 
Q 434 634 434 1313 
Q 434 1759 690 2068 
Q 947 2378 1403 2484 
z
M 1172 3481 
Q 1172 3119 1398 2916 
Q 1625 2713 2034 2713 
Q 2441 2713 2670 2916 
Q 2900 3119 2900 3481 
Q 2900 3844 2670 4047 
Q 2441 4250 2034 4250 
Q 1625 4250 1398 4047 
Q 1172 3844 1172 3481 
z
" transform="scale(0.015625)"/>
       </defs>
       <use xlink:href="#DejaVuSans-30"/>
       <use xlink:href="#DejaVuSans-2e" x="63.623047"/>
       <use xlink:href="#DejaVuSans-38" x="95.410156"/>
      </g>
     </g>
    </g>
    <g id="xtick_6">
     <g id="line2d_6">
      <g>
       <use xlink:href="#m4b4c608606" x="343.636364" y="333.490909" style="stroke: #000000; stroke-width: 0.8"/>
      </g>
     </g>
     <g id="text_6">
      <!-- 1.0 -->
      <g transform="translate(335.684801 348.089347)scale(0.1 -0.1)">
       <defs>
        <path id="DejaVuSans-31" d="M 794 531 
L 1825 531 
L 1825 4091 
L 703 3866 
L 703 4441 
L 1819 4666 
L 2450 4666 
L 2450 531 
L 3481 531 
L 3481 0 
L 794 0 
L 794 531 
z
" transform="scale(0.015625)"/>
       </defs>
       <use xlink:href="#DejaVuSans-31"/>
       <use xlink:href="#DejaVuSans-2e" x="63.623047"/>
       <use xlink:href="#DejaVuSans-30" x="95.410156"/>
      </g>
     </g>
    </g>
   </g>
   <g id="matplotlib.axis_2">
    <g id="ytick_1">
     <g id="line2d_7">
      <defs>
       <path id="m0120eecbe6" d="M 0 0 
L -3.5 0 
" style="stroke: #000000; stroke-width: 0.8"/>
      </defs>
      <g>
       <use xlink:href="#m0120eecbe6" x="90" y="333.490909" style="stroke: #000000; stroke-width: 0.8"/>
      </g>
     </g>
     <g id="text_7">
      <!-- 0.0 -->
      <g transform="translate(67.096875 337.290128)scale(0.1 -0.1)">
       <use xlink:href="#DejaVuSans-30"/>
       <use xlink:href="#DejaVuSans-2e" x="63.623047"/>
       <use xlink:href="#DejaVuSans-30" x="95.410156"/>
      </g>
     </g>
    </g>
    <g id="ytick_2">
     <g id="line2d_8">
      <g>
       <use xlink:href="#m0120eecbe6" x="90" y="284.072727" style="stroke: #000000; stroke-width: 0.8"/>
      </g>
     </g>
     <g id="text_8">
      <!-- 0.2 -->
      <g transform="translate(67.096875 287.871946)scale(0.1 -0.1)">
       <use xlink:href="#DejaVuSans-30"/>
       <use xlink:href="#DejaVuSans-2e" x="63.623047"/>
       <use xlink:href="#DejaVuSans-32" x="95.410156"/>
      </g>
     </g>
    </g>
    <g id="ytick_3">
     <g id="line2d_9">
      <g>
       <use xlink:href="#m0120eecbe6" x="90" y="234.654545" style="stroke: #000000; stroke-width: 0.8"/>
      </g>
     </g>
     <g id="text_9">
      <!-- 0.4 -->
      <g transform="translate(67.096875 238.453764)scale(0.1 -0.1)">
       <use xlink:href="#DejaVuSans-30"/>
       <use xlink:href="#DejaVuSans-2e" x="63.623047"/>
       <use xlink:href="#DejaVuSans-34" x="95.410156"/>
      </g>
     </g>
    </g>
    <g id="ytick_4">
     <g id="line2d_10">
      <g>
       <use xlink:href="#m0120eecbe6" x="90" y="185.236364" style="stroke: #000000; stroke-width: 0.8"/>
      </g>
     </g>
     <g id="text_10">
      <!-- 0.6 -->
      <g transform="translate(67.096875 189.035582)scale(0.1 -0.1)">
       <use xlink:href="#DejaVuSans-30"/>
       <use xlink:href="#DejaVuSans-2e" x="63.623047"/>
       <use xlink:href="#DejaVuSans-36" x="95.410156"/>
      </g>
     </g>
    </g>
    <g id="ytick_5">
     <g id="line2d_11">
      <g>
       <use xlink:href="#m0120eecbe6" x="90" y="135.818182" style="stroke: #000000; stroke-width: 0.8"/>
      </g>
     </g>
     <g id="text_11">
      <!-- 0.8 -->
      <g transform="translate(67.096875 139.617401)scale(0.1 -0.1)">
       <use xlink:href="#DejaVuSans-30"/>
       <use xlink:href="#DejaVuSans-2e" x="63.623047"/>
       <use xlink:href="#DejaVuSans-38" x="95.410156"/>
      </g>
     </g>
    </g>
    <g id="ytick_6">
     <g id="line2d_12">
      <g>
       <use xlink:href="#m0120eecbe6" x="90" y="86.4" style="stroke: #000000; stroke-width: 0.8"/>
      </g>
     </g>
     <g id="text_12">
      <!-- 1.0 -->
      <g transform="translate(67.096875 90.199219)scale(0.1 -0.1)">
       <use xlink:href="#DejaVuSans-31"/>
       <use xlink:href="#DejaVuSans-2e" x="63.623047"/>
       <use xlink:href="#DejaVuSans-30" x="95.410156"/>
      </g>
     </g>
    </g>
   </g>
   <g id="patch_3">
    <path d="M 90 333.490909 
L 90 86.4 
" style="fill: none; stroke: #000000; stroke-width: 0.8; stroke-linejoin: miter; stroke-linecap: square"/>
   </g>
   <g id="patch_4">
    <path d="M 343.636364 333.490909 
L 343.636364 86.4 
" style="fill: none; stroke: #000000; stroke-width: 0.8; stroke-linejoin: miter; stroke-linecap: square"/>
   </g>
   <g id="patch_5">
    <path d="M 90 333.490909 
L 343.636364 333.490909 
" style="fill: none; stroke: #000000; stroke-width: 0.8; stroke-linejoin: miter; stroke-linecap: square"/>
   </g>
   <g id="patch_6">
    <path d="M 90 86.4 
L 343.636364 86.4 
" style="fill: none; stroke: #000000; stroke-width: 0.8; stroke-linejoin: miter; stroke-linecap: square"/>
   </g>
  </g>
  <g id="axes_2">
   <g id="patch_7">
    <path d="M 394.363636 333.490909 
L 648 333.490909 
L 648 86.4 
L 394.363636 86.4 
z
" style="fill: #ffffff"/>
   </g>
   <g id="PolyCollection_1">
    <defs>
     <path id="medb3808eae" d="M 405.892562 -545.194826 
L 405.892562 -534.735954 
L 407.342741 -528.118464 
L 408.792921 -522.55035 
L 410.2431 -505.174758 
L 411.693279 -491.505755 
L 413.143459 -482.484074 
L 414.593638 -470.566252 
L 416.043817 -462.251939 
L 417.493997 -457.72152 
L 418.944176 -455.814184 
L 420.394355 -455.217677 
L 421.844535 -455.197679 
L 423.294714 -455.67176 
L 424.744893 -457.075568 
L 426.195073 -459.992989 
L 427.645252 -464.336797 
L 429.095431 -468.5895 
L 430.54561 -465.192624 
L 431.99579 -468.5895 
L 433.445969 -464.336797 
L 434.896148 -459.992989 
L 436.346328 -457.075568 
L 437.796507 -455.667098 
L 439.246686 -455.161212 
L 440.696866 -455.02373 
L 442.147045 -454.995189 
L 443.597224 -454.99002 
L 445.047404 -454.99002 
L 446.497583 -454.99002 
L 447.947762 -454.99002 
L 449.397942 -454.99002 
L 450.848121 -454.99002 
L 452.2983 -454.99002 
L 453.74848 -454.99002 
L 455.198659 -454.99002 
L 456.648838 -454.99002 
L 458.099018 -454.99002 
L 459.549197 -454.99002 
L 460.999376 -454.99002 
L 462.449556 -454.99002 
L 463.899735 -454.99002 
L 465.349914 -454.99002 
L 466.800094 -454.99002 
L 468.250273 -454.99002 
L 469.700452 -454.99002 
L 471.150632 -454.99002 
L 472.600811 -454.99002 
L 474.05099 -454.99002 
L 475.501169 -454.99002 
L 476.951349 -454.99002 
L 478.401528 -454.99002 
L 479.851707 -454.99002 
L 481.301887 -454.99002 
L 482.752066 -454.99002 
L 484.202245 -454.99002 
L 485.652425 -454.99002 
L 487.102604 -454.99002 
L 488.552783 -454.99002 
L 490.002963 -454.99002 
L 491.453142 -454.99002 
L 492.903321 -454.99002 
L 494.353501 -454.99002 
L 495.80368 -454.99002 
L 497.253859 -454.99002 
L 498.704039 -454.99002 
L 500.154218 -454.99002 
L 501.604397 -454.99002 
L 503.054577 -454.99002 
L 504.504756 -454.99002 
L 505.954935 -454.99002 
L 507.405115 -454.99002 
L 508.855294 -454.99002 
L 510.305473 -454.99002 
L 511.755653 -454.99002 
L 513.205832 -454.99002 
L 514.656011 -454.99002 
L 516.106191 -454.99002 
L 517.55637 -454.99002 
L 519.006549 -454.99002 
L 520.456729 -454.99002 
L 521.906908 -454.99002 
L 523.357087 -454.99002 
L 524.807266 -454.99002 
L 526.257446 -454.99002 
L 527.707625 -454.99002 
L 529.157804 -454.99002 
L 530.607984 -454.99002 
L 532.058163 -454.99002 
L 533.508342 -454.99002 
L 534.958522 -454.99002 
L 536.408701 -454.99002 
L 537.85888 -454.99002 
L 539.30906 -454.99002 
L 540.759239 -454.99002 
L 542.209418 -454.99002 
L 543.659598 -454.99002 
L 545.109777 -454.99002 
L 546.559956 -454.99002 
L 548.010136 -454.99002 
L 549.460315 -454.99002 
L 550.910494 -454.99002 
L 552.360674 -454.99002 
L 553.810853 -454.99002 
L 555.261032 -454.99002 
L 556.711212 -454.99002 
L 558.161391 -454.99002 
L 559.61157 -454.99002 
L 561.06175 -454.99002 
L 562.511929 -454.99002 
L 563.962108 -454.989843 
L 565.412288 -454.988867 
L 566.862467 -454.984164 
L 568.312646 -454.96686 
L 569.762826 -454.918682 
L 571.213005 -454.818889 
L 572.663184 -454.670306 
L 574.113363 -454.525763 
L 575.563543 -453.230562 
L 577.013722 -454.555447 
L 578.463901 -454.791362 
L 579.914081 -455.191769 
L 581.36426 -455.813174 
L 582.814439 -456.637992 
L 584.264619 -457.415647 
L 585.714798 -453.794884 
L 587.164977 -457.421325 
L 588.615157 -456.661152 
L 590.065336 -455.884512 
L 591.515515 -455.3629 
L 592.965695 -455.111076 
L 594.415874 -455.020628 
L 595.866053 -454.996047 
L 597.316233 -454.990944 
L 598.766412 -454.99002 
L 600.216591 -454.99002 
L 601.666771 -454.986632 
L 603.11695 -454.964485 
L 604.567129 -454.85161 
L 606.017309 -454.404395 
L 607.467488 -453.025936 
L 608.917667 -449.714998 
L 610.367847 -443.546779 
L 611.818026 -434.699436 
L 613.268205 -417.794494 
L 614.718385 -411.069985 
L 616.168564 -407.552608 
L 617.618743 -405.894221 
L 619.068923 -411.566718 
L 620.519102 -404.982447 
L 621.969281 -401.906383 
L 623.41946 -404.463315 
L 624.86964 -397.740496 
L 626.319819 -400.605833 
L 627.769998 -408.25122 
L 629.220178 -426.009782 
L 630.670357 -438.09388 
L 632.120536 -446.9977 
L 633.570716 -451.956528 
L 635.020895 -454.067761 
L 636.471074 -454.729486 
L 636.471074 -454.729486 
L 636.471074 -454.729486 
L 635.020895 -454.067761 
L 633.570716 -451.956528 
L 632.120536 -446.9977 
L 630.670357 -438.09388 
L 629.220178 -426.009782 
L 627.769998 -419.725036 
L 626.319819 -411.140235 
L 624.86964 -408.633232 
L 623.41946 -404.463315 
L 621.969281 -412.623944 
L 620.519102 -414.85016 
L 619.068923 -411.566718 
L 617.618743 -418.645504 
L 616.168564 -419.485254 
L 614.718385 -423.95458 
L 613.268205 -432.394462 
L 611.818026 -434.699436 
L 610.367847 -443.546779 
L 608.917667 -449.714998 
L 607.467488 -453.025936 
L 606.017309 -454.404395 
L 604.567129 -454.85161 
L 603.11695 -454.964485 
L 601.666771 -454.986632 
L 600.216591 -454.99002 
L 598.766412 -454.99002 
L 597.316233 -454.990944 
L 595.866053 -454.996047 
L 594.415874 -455.020628 
L 592.965695 -455.111076 
L 591.515515 -455.3629 
L 590.065336 -455.884512 
L 588.615157 -456.661152 
L 587.164977 -457.421325 
L 585.714798 -461.69331 
L 584.264619 -457.415647 
L 582.814439 -456.637992 
L 581.36426 -455.813174 
L 579.914081 -455.191769 
L 578.463901 -454.791362 
L 577.013722 -454.555447 
L 575.563543 -455.707294 
L 574.113363 -454.525763 
L 572.663184 -454.670306 
L 571.213005 -454.818889 
L 569.762826 -454.918682 
L 568.312646 -454.96686 
L 566.862467 -454.984164 
L 565.412288 -454.988867 
L 563.962108 -454.989843 
L 562.511929 -454.99002 
L 561.06175 -454.99002 
L 559.61157 -454.99002 
L 558.161391 -454.99002 
L 556.711212 -454.99002 
L 555.261032 -454.99002 
L 553.810853 -454.99002 
L 552.360674 -454.99002 
L 550.910494 -454.99002 
L 549.460315 -454.99002 
L 548.010136 -454.99002 
L 546.559956 -454.99002 
L 545.109777 -454.99002 
L 543.659598 -454.99002 
L 542.209418 -454.99002 
L 540.759239 -454.99002 
L 539.30906 -454.99002 
L 537.85888 -454.99002 
L 536.408701 -454.99002 
L 534.958522 -454.99002 
L 533.508342 -454.99002 
L 532.058163 -454.99002 
L 530.607984 -454.99002 
L 529.157804 -454.99002 
L 527.707625 -454.99002 
L 526.257446 -454.99002 
L 524.807266 -454.99002 
L 523.357087 -454.99002 
L 521.906908 -454.99002 
L 520.456729 -454.99002 
L 519.006549 -454.99002 
L 517.55637 -454.99002 
L 516.106191 -454.99002 
L 514.656011 -454.99002 
L 513.205832 -454.99002 
L 511.755653 -454.99002 
L 510.305473 -454.99002 
L 508.855294 -454.99002 
L 507.405115 -454.99002 
L 505.954935 -454.99002 
L 504.504756 -454.99002 
L 503.054577 -454.99002 
L 501.604397 -454.99002 
L 500.154218 -454.99002 
L 498.704039 -454.99002 
L 497.253859 -454.99002 
L 495.80368 -454.99002 
L 494.353501 -454.99002 
L 492.903321 -454.99002 
L 491.453142 -454.99002 
L 490.002963 -454.99002 
L 488.552783 -454.99002 
L 487.102604 -454.99002 
L 485.652425 -454.99002 
L 484.202245 -454.99002 
L 482.752066 -454.99002 
L 481.301887 -454.99002 
L 479.851707 -454.99002 
L 478.401528 -454.99002 
L 476.951349 -454.99002 
L 475.501169 -454.99002 
L 474.05099 -454.99002 
L 472.600811 -454.99002 
L 471.150632 -454.99002 
L 469.700452 -454.99002 
L 468.250273 -454.99002 
L 466.800094 -454.99002 
L 465.349914 -454.99002 
L 463.899735 -454.99002 
L 462.449556 -454.99002 
L 460.999376 -454.99002 
L 459.549197 -454.99002 
L 458.099018 -454.99002 
L 456.648838 -454.99002 
L 455.198659 -454.99002 
L 453.74848 -454.99002 
L 452.2983 -454.99002 
L 450.848121 -454.99002 
L 449.397942 -454.99002 
L 447.947762 -454.99002 
L 446.497583 -454.99002 
L 445.047404 -454.99002 
L 443.597224 -454.99002 
L 442.147045 -454.995189 
L 440.696866 -455.02373 
L 439.246686 -455.161212 
L 437.796507 -455.667098 
L 436.346328 -457.075568 
L 434.896148 -459.992989 
L 433.445969 -464.336797 
L 431.99579 -468.5895 
L 430.54561 -475.607876 
L 429.095431 -468.5895 
L 427.645252 -464.336797 
L 426.195073 -459.992989 
L 424.744893 -457.075568 
L 423.294714 -455.67176 
L 421.844535 -455.197679 
L 420.394355 -455.217677 
L 418.944176 -455.814184 
L 417.493997 -457.72152 
L 416.043817 -462.251939 
L 414.593638 -470.566252 
L 413.143459 -482.484074 
L 411.693279 -500.956734 
L 410.2431 -514.585359 
L 408.792921 -522.55035 
L 407.342741 -538.577658 
L 405.892562 -545.194826 
z
" style="stroke: #9467bd; stroke-opacity: 0.2"/>
    </defs>
    <g clip-path="url(#p9772e38529)">
     <use xlink:href="#medb3808eae" x="0" y="720" style="fill: #9467bd; fill-opacity: 0.2; stroke: #9467bd; stroke-opacity: 0.2"/>
    </g>
   </g>
   <g id="PolyCollection_2">
    <defs>
     <path id="m64c466a397" d="M 405.892562 -454.99002 
L 405.892562 -454.99002 
L 407.342741 -454.99002 
L 408.792921 -454.99002 
L 410.2431 -454.99002 
L 411.693279 -454.99002 
L 413.143459 -454.99002 
L 414.593638 -454.99002 
L 416.043817 -454.99002 
L 417.493997 -454.99002 
L 418.944176 -454.99002 
L 420.394355 -454.99002 
L 421.844535 -454.991599 
L 423.294714 -455.000319 
L 424.744893 -455.044167 
L 426.195073 -455.208915 
L 427.645252 -455.688323 
L 429.095431 -456.760315 
L 430.54561 -458.590458 
L 431.99579 -460.931715 
L 433.445969 -458.03603 
L 434.896148 -464.002108 
L 436.346328 -457.964774 
L 437.796507 -461.375774 
L 439.246686 -458.965542 
L 440.696866 -456.983772 
L 442.147045 -455.78721 
L 443.597224 -455.24224 
L 445.047404 -455.054452 
L 446.497583 -455.012335 
L 447.947762 -455.040758 
L 449.397942 -455.173202 
L 450.848121 -455.531349 
L 452.2983 -456.250566 
L 453.74848 -457.311158 
L 455.198659 -454.951905 
L 456.648838 -455.312614 
L 458.099018 -457.056065 
L 459.549197 -457.287076 
L 460.999376 -456.273711 
L 462.449556 -454.52757 
L 463.899735 -452.533396 
L 465.349914 -456.136356 
L 466.800094 -455.107725 
L 468.250273 -454.948997 
L 469.700452 -455.937976 
L 471.150632 -454.654676 
L 472.600811 -453.702831 
L 474.05099 -454.532448 
L 475.501169 -454.825228 
L 476.951349 -454.38477 
L 478.401528 -454.812469 
L 479.851707 -454.86497 
L 481.301887 -454.849495 
L 482.752066 -454.685805 
L 484.202245 -454.297884 
L 485.652425 -453.705412 
L 487.102604 -453.119532 
L 488.552783 -451.372057 
L 490.002963 -453.071636 
L 491.453142 -453.581758 
L 492.903321 -454.068506 
L 494.353501 -454.36196 
L 495.80368 -453.794506 
L 497.253859 -454.628558 
L 498.704039 -454.766376 
L 500.154218 -454.912941 
L 501.604397 -455.056208 
L 503.054577 -455.194641 
L 504.504756 -455.308213 
L 505.954935 -454.565205 
L 507.405115 -455.312388 
L 508.855294 -455.21167 
L 510.305473 -455.10866 
L 511.755653 -455.039477 
L 513.205832 -455.006076 
L 514.656011 -454.99408 
L 516.106191 -454.990497 
L 517.55637 -454.988042 
L 519.006549 -454.979351 
L 520.456729 -454.947824 
L 521.906908 -454.860046 
L 523.357087 -454.678229 
L 524.807266 -454.407518 
L 526.257446 -454.142485 
L 527.707625 -452.968432 
L 529.157804 -454.142304 
L 530.607984 -454.405829 
L 532.058163 -454.668914 
L 533.508342 -454.819446 
L 534.958522 -454.807922 
L 536.408701 -454.597805 
L 537.85888 -454.164146 
L 539.30906 -453.580804 
L 540.759239 -452.194031 
L 542.209418 -451.602712 
L 543.659598 -453.160405 
L 545.109777 -453.338224 
L 546.559956 -453.994622 
L 548.010136 -453.720346 
L 549.460315 -453.958197 
L 550.910494 -454.371365 
L 552.360674 -453.861907 
L 553.810853 -454.616294 
L 555.261032 -454.761891 
L 556.711212 -454.87614 
L 558.161391 -454.944365 
L 559.61157 -454.975074 
L 561.06175 -454.983929 
L 562.511929 -454.979451 
L 563.962108 -454.959505 
L 565.412288 -454.917075 
L 566.862467 -454.853726 
L 568.312646 -454.791535 
L 569.762826 -454.277744 
L 571.213005 -454.786198 
L 572.663184 -454.83336 
L 574.113363 -454.857629 
L 575.563543 -454.822283 
L 577.013722 -454.728893 
L 578.463901 -454.473502 
L 579.914081 -453.861224 
L 581.36426 -454.213395 
L 582.814439 -454.685665 
L 584.264619 -454.763723 
L 585.714798 -454.821249 
L 587.164977 -454.953682 
L 588.615157 -454.549629 
L 590.065336 -456.23903 
L 591.515515 -457.537616 
L 592.965695 -457.649671 
L 594.415874 -456.291943 
L 595.866053 -459.444724 
L 597.316233 -458.368136 
L 598.766412 -454.736728 
L 600.216591 -456.839608 
L 601.666771 -456.075703 
L 603.11695 -455.526285 
L 604.567129 -455.205339 
L 606.017309 -455.058792 
L 607.467488 -455.007151 
L 608.917667 -454.993404 
L 610.367847 -454.990544 
L 611.818026 -455.000653 
L 613.268205 -455.059354 
L 614.718385 -455.342126 
L 616.168564 -456.382626 
L 617.618743 -459.293197 
L 619.068923 -465.380838 
L 620.519102 -474.753126 
L 621.969281 -485.212911 
L 623.41946 -464.809397 
L 624.86964 -502.598501 
L 626.319819 -515.881148 
L 627.769998 -537.396269 
L 629.220178 -527.723484 
L 630.670357 -554.996579 
L 632.120536 -569.446856 
L 633.570716 -575.257669 
L 635.020895 -570.618186 
L 636.471074 -570.641001 
L 636.471074 -618.726587 
L 636.471074 -618.726587 
L 635.020895 -622.368595 
L 633.570716 -621.144564 
L 632.120536 -622.042367 
L 630.670357 -613.859171 
L 629.220178 -598.54728 
L 627.769998 -537.396269 
L 626.319819 -515.881148 
L 624.86964 -502.598501 
L 623.41946 -523.457116 
L 621.969281 -485.212911 
L 620.519102 -474.753126 
L 619.068923 -465.380838 
L 617.618743 -459.293197 
L 616.168564 -456.382626 
L 614.718385 -455.342126 
L 613.268205 -455.059354 
L 611.818026 -455.000653 
L 610.367847 -454.990544 
L 608.917667 -454.993404 
L 607.467488 -455.007151 
L 606.017309 -455.058792 
L 604.567129 -455.205339 
L 603.11695 -455.526285 
L 601.666771 -456.075703 
L 600.216591 -456.839608 
L 598.766412 -460.771249 
L 597.316233 -459.048093 
L 595.866053 -459.444724 
L 594.415874 -462.8324 
L 592.965695 -460.025986 
L 591.515515 -457.537616 
L 590.065336 -456.23903 
L 588.615157 -456.175695 
L 587.164977 -454.953682 
L 585.714798 -454.821249 
L 584.264619 -454.763723 
L 582.814439 -454.685665 
L 581.36426 -454.988396 
L 579.914081 -455.278959 
L 578.463901 -454.773233 
L 577.013722 -454.728893 
L 575.563543 -454.822283 
L 574.113363 -454.857629 
L 572.663184 -454.83336 
L 571.213005 -454.786198 
L 569.762826 -455.250538 
L 568.312646 -454.791535 
L 566.862467 -454.853726 
L 565.412288 -454.917075 
L 563.962108 -454.959505 
L 562.511929 -454.979451 
L 561.06175 -454.983929 
L 559.61157 -454.975074 
L 558.161391 -454.944365 
L 556.711212 -454.87614 
L 555.261032 -454.761891 
L 553.810853 -454.616294 
L 552.360674 -455.08916 
L 550.910494 -454.371365 
L 549.460315 -454.643786 
L 548.010136 -454.695446 
L 546.559956 -453.994622 
L 545.109777 -453.878035 
L 543.659598 -453.160405 
L 542.209418 -454.230241 
L 540.759239 -453.96095 
L 539.30906 -453.580804 
L 537.85888 -454.164146 
L 536.408701 -454.597805 
L 534.958522 -454.807922 
L 533.508342 -454.819446 
L 532.058163 -454.668914 
L 530.607984 -454.405829 
L 529.157804 -454.142304 
L 527.707625 -455.090842 
L 526.257446 -454.142485 
L 524.807266 -454.407518 
L 523.357087 -454.678229 
L 521.906908 -454.860046 
L 520.456729 -454.947824 
L 519.006549 -454.979351 
L 517.55637 -454.988042 
L 516.106191 -454.990497 
L 514.656011 -454.99408 
L 513.205832 -455.006076 
L 511.755653 -455.039477 
L 510.305473 -455.10866 
L 508.855294 -455.21167 
L 507.405115 -455.312388 
L 505.954935 -456.144017 
L 504.504756 -455.308213 
L 503.054577 -455.194641 
L 501.604397 -455.056208 
L 500.154218 -454.912941 
L 498.704039 -454.766376 
L 497.253859 -454.628558 
L 495.80368 -455.226186 
L 494.353501 -454.36196 
L 492.903321 -454.068506 
L 491.453142 -453.581758 
L 490.002963 -453.071636 
L 488.552783 -454.345092 
L 487.102604 -453.119532 
L 485.652425 -453.705412 
L 484.202245 -454.297884 
L 482.752066 -454.685805 
L 481.301887 -454.849495 
L 479.851707 -454.86497 
L 478.401528 -454.812469 
L 476.951349 -455.1522 
L 475.501169 -454.825228 
L 474.05099 -455.583432 
L 472.600811 -457.165691 
L 471.150632 -456.915753 
L 469.700452 -455.937976 
L 468.250273 -456.853212 
L 466.800094 -456.667262 
L 465.349914 -456.136356 
L 463.899735 -460.856554 
L 462.449556 -460.26185 
L 460.999376 -459.851349 
L 459.549197 -460.018896 
L 458.099018 -461.091303 
L 456.648838 -462.790954 
L 455.198659 -461.841893 
L 453.74848 -457.311158 
L 452.2983 -456.250566 
L 450.848121 -455.531349 
L 449.397942 -455.173202 
L 447.947762 -455.040758 
L 446.497583 -455.012335 
L 445.047404 -455.054452 
L 443.597224 -455.24224 
L 442.147045 -455.78721 
L 440.696866 -456.983772 
L 439.246686 -458.965542 
L 437.796507 -461.375774 
L 436.346328 -468.734423 
L 434.896148 -464.002108 
L 433.445969 -468.036743 
L 431.99579 -460.931715 
L 430.54561 -458.590458 
L 429.095431 -456.760315 
L 427.645252 -455.688323 
L 426.195073 -455.208915 
L 424.744893 -455.044167 
L 423.294714 -455.000319 
L 421.844535 -454.991599 
L 420.394355 -454.99002 
L 418.944176 -454.99002 
L 417.493997 -454.99002 
L 416.043817 -454.99002 
L 414.593638 -454.99002 
L 413.143459 -454.99002 
L 411.693279 -454.99002 
L 410.2431 -454.99002 
L 408.792921 -454.99002 
L 407.342741 -454.99002 
L 405.892562 -454.99002 
z
" style="stroke: #1f77b4; stroke-opacity: 0.2"/>
    </defs>
    <g clip-path="url(#p9772e38529)">
     <use xlink:href="#m64c466a397" x="0" y="720" style="fill: #1f77b4; fill-opacity: 0.2; stroke: #1f77b4; stroke-opacity: 0.2"/>
    </g>
   </g>
   <g id="PolyCollection_3">
    <defs>
     <path id="md4ddaa1354" d="M 405.892562 -454.823189 
L 405.892562 -454.823189 
L 407.342741 -454.400331 
L 408.792921 -453.057133 
L 410.2431 -449.924019 
L 411.693279 -444.382299 
L 413.143459 -437.119764 
L 414.593638 -423.217454 
L 416.043817 -419.690693 
L 417.493997 -419.413859 
L 418.944176 -429.67875 
L 420.394355 -430.20185 
L 421.844535 -422.904854 
L 423.294714 -420.436213 
L 424.744893 -422.05147 
L 426.195073 -427.562463 
L 427.645252 -438.295933 
L 429.095431 -443.891704 
L 430.54561 -446.178887 
L 431.99579 -444.415743 
L 433.445969 -439.866908 
L 434.896148 -432.570623 
L 436.346328 -432.201861 
L 437.796507 -429.404851 
L 439.246686 -433.417735 
L 440.696866 -434.427436 
L 442.147045 -432.046458 
L 443.597224 -432.080049 
L 445.047404 -427.164776 
L 446.497583 -426.453989 
L 447.947762 -425.770248 
L 449.397942 -427.041542 
L 450.848121 -429.453994 
L 452.2983 -433.898309 
L 453.74848 -436.361526 
L 455.198659 -444.960025 
L 456.648838 -449.211331 
L 458.099018 -452.220559 
L 459.549197 -453.804654 
L 460.999376 -454.316599 
L 462.449556 -454.24402 
L 463.899735 -453.99951 
L 465.349914 -452.34976 
L 466.800094 -453.982131 
L 468.250273 -454.186011 
L 469.700452 -454.193623 
L 471.150632 -453.687008 
L 472.600811 -452.46402 
L 474.05099 -450.582418 
L 475.501169 -446.792792 
L 476.951349 -446.722708 
L 478.401528 -444.972084 
L 479.851707 -445.679624 
L 481.301887 -445.880356 
L 482.752066 -445.029427 
L 484.202245 -445.935007 
L 485.652425 -448.083182 
L 487.102604 -447.98268 
L 488.552783 -445.802197 
L 490.002963 -441.864618 
L 491.453142 -435.568832 
L 492.903321 -434.29186 
L 494.353501 -437.452702 
L 495.80368 -443.957378 
L 497.253859 -448.674314 
L 498.704039 -452.04486 
L 500.154218 -453.772697 
L 501.604397 -454.230959 
L 503.054577 -453.816726 
L 504.504756 -452.793937 
L 505.954935 -451.499642 
L 507.405115 -448.430379 
L 508.855294 -450.133732 
L 510.305473 -448.959977 
L 511.755653 -451.841941 
L 513.205832 -453.12117 
L 514.656011 -454.18311 
L 516.106191 -455.003514 
L 517.55637 -455.787076 
L 519.006549 -456.675396 
L 520.456729 -457.535334 
L 521.906908 -453.798748 
L 523.357087 -458.587384 
L 524.807266 -459.726436 
L 526.257446 -462.472157 
L 527.707625 -466.816291 
L 529.157804 -467.412887 
L 530.607984 -469.170653 
L 532.058163 -466.934812 
L 533.508342 -467.477256 
L 534.958522 -462.440317 
L 536.408701 -458.549955 
L 537.85888 -456.346149 
L 539.30906 -455.400136 
L 540.759239 -455.088109 
L 542.209418 -455.008299 
L 543.659598 -454.992456 
L 545.109777 -454.990525 
L 546.559956 -454.993315 
L 548.010136 -455.007746 
L 549.460315 -455.062679 
L 550.910494 -455.226777 
L 552.360674 -455.609197 
L 553.810853 -456.304579 
L 555.261032 -457.281198 
L 556.711212 -456.253361 
L 558.161391 -458.934133 
L 559.61157 -456.175648 
L 561.06175 -458.093912 
L 562.511929 -456.991056 
L 563.962108 -456.018167 
L 565.412288 -455.407761 
L 566.862467 -455.123503 
L 568.312646 -455.023442 
L 569.762826 -454.996502 
L 571.213005 -454.990172 
L 572.663184 -454.983525 
L 574.113363 -454.955584 
L 575.563543 -454.845596 
L 577.013722 -454.513063 
L 578.463901 -453.74013 
L 579.914081 -452.374911 
L 581.36426 -450.572902 
L 582.814439 -446.630526 
L 584.264619 -445.311532 
L 585.714798 -447.257635 
L 587.164977 -443.930092 
L 588.615157 -447.024139 
L 590.065336 -442.757951 
L 591.515515 -442.570044 
L 592.965695 -447.166304 
L 594.415874 -446.910185 
L 595.866053 -442.383591 
L 597.316233 -443.679597 
L 598.766412 -439.522376 
L 600.216591 -429.217384 
L 601.666771 -421.478729 
L 603.11695 -413.539323 
L 604.567129 -407.454626 
L 606.017309 -401.300927 
L 607.467488 -398.46146 
L 608.917667 -399.090325 
L 610.367847 -404.197424 
L 611.818026 -413.422326 
L 613.268205 -430.580892 
L 614.718385 -439.16512 
L 616.168564 -443.723805 
L 617.618743 -445.042841 
L 619.068923 -438.919628 
L 620.519102 -447.089925 
L 621.969281 -449.637657 
L 623.41946 -452.136567 
L 624.86964 -453.802056 
L 626.319819 -454.604344 
L 627.769998 -454.892506 
L 629.220178 -454.970818 
L 630.670357 -454.987075 
L 632.120536 -454.99002 
L 633.570716 -454.99002 
L 635.020895 -454.99002 
L 636.471074 -454.99002 
L 636.471074 -454.99002 
L 636.471074 -454.99002 
L 635.020895 -454.99002 
L 633.570716 -454.99002 
L 632.120536 -454.99002 
L 630.670357 -454.987075 
L 629.220178 -454.970818 
L 627.769998 -454.892506 
L 626.319819 -454.604344 
L 624.86964 -453.802056 
L 623.41946 -452.136567 
L 621.969281 -449.637657 
L 620.519102 -447.089925 
L 619.068923 -452.199409 
L 617.618743 -445.042841 
L 616.168564 -443.723805 
L 614.718385 -439.16512 
L 613.268205 -430.580892 
L 611.818026 -426.41571 
L 610.367847 -417.026292 
L 608.917667 -411.395305 
L 607.467488 -410.199722 
L 606.017309 -412.558737 
L 604.567129 -416.291825 
L 603.11695 -423.243314 
L 601.666771 -430.245986 
L 600.216591 -437.422806 
L 598.766412 -439.522376 
L 597.316233 -443.679597 
L 595.866053 -449.470848 
L 594.415874 -446.910185 
L 592.965695 -447.166304 
L 591.515515 -451.575757 
L 590.065336 -451.190674 
L 588.615157 -447.024139 
L 587.164977 -450.320972 
L 585.714798 -447.257635 
L 584.264619 -450.124336 
L 582.814439 -451.066276 
L 581.36426 -450.572902 
L 579.914081 -452.374911 
L 578.463901 -453.74013 
L 577.013722 -454.513063 
L 575.563543 -454.845596 
L 574.113363 -454.955584 
L 572.663184 -454.983525 
L 571.213005 -454.990172 
L 569.762826 -454.996502 
L 568.312646 -455.023442 
L 566.862467 -455.123503 
L 565.412288 -455.407761 
L 563.962108 -456.018167 
L 562.511929 -456.991056 
L 561.06175 -458.093912 
L 559.61157 -461.557642 
L 558.161391 -458.934133 
L 556.711212 -460.333451 
L 555.261032 -457.281198 
L 553.810853 -456.304579 
L 552.360674 -455.609197 
L 550.910494 -455.226777 
L 549.460315 -455.062679 
L 548.010136 -455.007746 
L 546.559956 -454.993315 
L 545.109777 -454.990525 
L 543.659598 -454.992456 
L 542.209418 -455.008299 
L 540.759239 -455.088109 
L 539.30906 -455.400136 
L 537.85888 -456.346149 
L 536.408701 -458.549955 
L 534.958522 -462.440317 
L 533.508342 -467.477256 
L 532.058163 -476.71563 
L 530.607984 -477.478619 
L 529.157804 -475.005504 
L 527.707625 -466.816291 
L 526.257446 -462.472157 
L 524.807266 -459.726436 
L 523.357087 -458.587384 
L 521.906908 -462.448105 
L 520.456729 -457.535334 
L 519.006549 -456.675396 
L 517.55637 -455.787076 
L 516.106191 -455.003514 
L 514.656011 -454.18311 
L 513.205832 -453.12117 
L 511.755653 -451.841941 
L 510.305473 -452.417239 
L 508.855294 -450.133732 
L 507.405115 -452.473225 
L 505.954935 -451.499642 
L 504.504756 -452.793937 
L 503.054577 -453.816726 
L 501.604397 -454.230959 
L 500.154218 -453.772697 
L 498.704039 -452.04486 
L 497.253859 -448.674314 
L 495.80368 -443.957378 
L 494.353501 -441.294058 
L 492.903321 -439.790986 
L 491.453142 -440.75433 
L 490.002963 -441.864618 
L 488.552783 -445.802197 
L 487.102604 -447.98268 
L 485.652425 -448.083182 
L 484.202245 -448.377123 
L 482.752066 -447.606881 
L 481.301887 -445.880356 
L 479.851707 -445.679624 
L 478.401528 -446.685036 
L 476.951349 -446.722708 
L 475.501169 -450.118893 
L 474.05099 -450.582418 
L 472.600811 -452.46402 
L 471.150632 -453.687008 
L 469.700452 -454.193623 
L 468.250273 -454.186011 
L 466.800094 -453.982131 
L 465.349914 -455.403815 
L 463.899735 -453.99951 
L 462.449556 -454.24402 
L 460.999376 -454.316599 
L 459.549197 -453.804654 
L 458.099018 -452.220559 
L 456.648838 -449.211331 
L 455.198659 -444.960025 
L 453.74848 -444.245357 
L 452.2983 -438.490234 
L 450.848121 -436.581919 
L 449.397942 -434.259918 
L 447.947762 -432.472795 
L 446.497583 -431.211198 
L 445.047404 -432.833212 
L 443.597224 -432.080049 
L 442.147045 -435.790842 
L 440.696866 -434.427436 
L 439.246686 -433.417735 
L 437.796507 -434.685668 
L 436.346328 -432.201861 
L 434.896148 -437.504735 
L 433.445969 -439.866908 
L 431.99579 -444.415743 
L 430.54561 -446.178887 
L 429.095431 -443.891704 
L 427.645252 -438.295933 
L 426.195073 -436.188852 
L 424.744893 -433.010191 
L 423.294714 -433.066633 
L 421.844535 -434.190617 
L 420.394355 -430.20185 
L 418.944176 -429.67875 
L 417.493997 -435.982357 
L 416.043817 -434.722937 
L 414.593638 -437.814408 
L 413.143459 -437.119764 
L 411.693279 -444.382299 
L 410.2431 -449.924019 
L 408.792921 -453.057133 
L 407.342741 -454.400331 
L 405.892562 -454.823189 
z
" style="stroke: #d62728; stroke-opacity: 0.2"/>
    </defs>
    <g clip-path="url(#p9772e38529)">
     <use xlink:href="#md4ddaa1354" x="0" y="720" style="fill: #d62728; fill-opacity: 0.2; stroke: #d62728; stroke-opacity: 0.2"/>
    </g>
   </g>
   <g id="PolyCollection_4">
    <defs>
     <path id="m49330bf182" d="M 405.892562 -437.145054 
L 405.892562 -437.145054 
L 407.342741 -433.71646 
L 408.792921 -425.279538 
L 410.2431 -425.020232 
L 411.693279 -423.085278 
L 413.143459 -419.103593 
L 414.593638 -424.520716 
L 416.043817 -424.316163 
L 417.493997 -421.722851 
L 418.944176 -415.717043 
L 420.394355 -417.436693 
L 421.844535 -426.874405 
L 423.294714 -432.807688 
L 424.744893 -434.189146 
L 426.195073 -430.286499 
L 427.645252 -422.87681 
L 429.095431 -419.13863 
L 430.54561 -422.917147 
L 431.99579 -425.772333 
L 433.445969 -434.825777 
L 434.896148 -439.040433 
L 436.346328 -438.897039 
L 437.796507 -434.947043 
L 439.246686 -428.305366 
L 440.696866 -425.921579 
L 442.147045 -429.712104 
L 443.597224 -432.760903 
L 445.047404 -440.90192 
L 446.497583 -446.759843 
L 447.947762 -451.013532 
L 449.397942 -453.43238 
L 450.848121 -454.502731 
L 452.2983 -454.869968 
L 453.74848 -454.967025 
L 455.198659 -454.986494 
L 456.648838 -454.99002 
L 458.099018 -454.99002 
L 459.549197 -454.99002 
L 460.999376 -454.99002 
L 462.449556 -454.99002 
L 463.899735 -454.99002 
L 465.349914 -454.99002 
L 466.800094 -454.99002 
L 468.250273 -454.99002 
L 469.700452 -454.99002 
L 471.150632 -454.99002 
L 472.600811 -454.99002 
L 474.05099 -454.99002 
L 475.501169 -454.99002 
L 476.951349 -454.99002 
L 478.401528 -454.99002 
L 479.851707 -454.99002 
L 481.301887 -454.99002 
L 482.752066 -454.99002 
L 484.202245 -454.99002 
L 485.652425 -454.989027 
L 487.102604 -454.983546 
L 488.552783 -454.95548 
L 490.002963 -454.849145 
L 491.453142 -454.534426 
L 492.903321 -453.810094 
L 494.353501 -452.515561 
L 495.80368 -450.725565 
L 497.253859 -445.417687 
L 498.704039 -447.47645 
L 500.154218 -442.71492 
L 501.604397 -447.293219 
L 503.054577 -448.147134 
L 504.504756 -446.842987 
L 505.954935 -450.835621 
L 507.405115 -452.334363 
L 508.855294 -453.412824 
L 510.305473 -453.691995 
L 511.755653 -452.984298 
L 513.205832 -451.307109 
L 514.656011 -447.92729 
L 516.106191 -445.032728 
L 517.55637 -443.676894 
L 519.006549 -441.774669 
L 520.456729 -443.484837 
L 521.906908 -446.173731 
L 523.357087 -445.886196 
L 524.807266 -447.998601 
L 526.257446 -448.900419 
L 527.707625 -451.816593 
L 529.157804 -452.698392 
L 530.607984 -452.693674 
L 532.058163 -451.729977 
L 533.508342 -447.441628 
L 534.958522 -445.815216 
L 536.408701 -444.620497 
L 537.85888 -444.92871 
L 539.30906 -445.693577 
L 540.759239 -449.705276 
L 542.209418 -450.838513 
L 543.659598 -449.297618 
L 545.109777 -451.365973 
L 546.559956 -448.640794 
L 548.010136 -451.130368 
L 549.460315 -451.085679 
L 550.910494 -448.73113 
L 552.360674 -451.079156 
L 553.810853 -451.180088 
L 555.261032 -449.177289 
L 556.711212 -451.570538 
L 558.161391 -451.461498 
L 559.61157 -450.878395 
L 561.06175 -448.636108 
L 562.511929 -447.94214 
L 563.962108 -448.244901 
L 565.412288 -448.695701 
L 566.862467 -451.475753 
L 568.312646 -452.558042 
L 569.762826 -453.292023 
L 571.213005 -451.670973 
L 572.663184 -454.082513 
L 574.113363 -454.413047 
L 575.563543 -454.689931 
L 577.013722 -454.866245 
L 578.463901 -454.950052 
L 579.914081 -454.979914 
L 581.36426 -454.98803 
L 582.814439 -454.989715 
L 584.264619 -454.99002 
L 585.714798 -454.99002 
L 587.164977 -454.99002 
L 588.615157 -454.99002 
L 590.065336 -454.99002 
L 591.515515 -454.99002 
L 592.965695 -454.99002 
L 594.415874 -454.99002 
L 595.866053 -454.99002 
L 597.316233 -454.99002 
L 598.766412 -454.99002 
L 600.216591 -454.99002 
L 601.666771 -454.99002 
L 603.11695 -454.99002 
L 604.567129 -454.99002 
L 606.017309 -454.99002 
L 607.467488 -454.99002 
L 608.917667 -454.99002 
L 610.367847 -454.99002 
L 611.818026 -454.99002 
L 613.268205 -454.99002 
L 614.718385 -454.99002 
L 616.168564 -454.99002 
L 617.618743 -454.99002 
L 619.068923 -454.99002 
L 620.519102 -454.99002 
L 621.969281 -454.99002 
L 623.41946 -454.99002 
L 624.86964 -454.99002 
L 626.319819 -454.99002 
L 627.769998 -454.99002 
L 629.220178 -454.99002 
L 630.670357 -454.99002 
L 632.120536 -454.99002 
L 633.570716 -454.99002 
L 635.020895 -454.99002 
L 636.471074 -454.99002 
L 636.471074 -454.99002 
L 636.471074 -454.99002 
L 635.020895 -454.99002 
L 633.570716 -454.99002 
L 632.120536 -454.99002 
L 630.670357 -454.99002 
L 629.220178 -454.99002 
L 627.769998 -454.99002 
L 626.319819 -454.99002 
L 624.86964 -454.99002 
L 623.41946 -454.99002 
L 621.969281 -454.99002 
L 620.519102 -454.99002 
L 619.068923 -454.99002 
L 617.618743 -454.99002 
L 616.168564 -454.99002 
L 614.718385 -454.99002 
L 613.268205 -454.99002 
L 611.818026 -454.99002 
L 610.367847 -454.99002 
L 608.917667 -454.99002 
L 607.467488 -454.99002 
L 606.017309 -454.99002 
L 604.567129 -454.99002 
L 603.11695 -454.99002 
L 601.666771 -454.99002 
L 600.216591 -454.99002 
L 598.766412 -454.99002 
L 597.316233 -454.99002 
L 595.866053 -454.99002 
L 594.415874 -454.99002 
L 592.965695 -454.99002 
L 591.515515 -454.99002 
L 590.065336 -454.99002 
L 588.615157 -454.99002 
L 587.164977 -454.99002 
L 585.714798 -454.99002 
L 584.264619 -454.99002 
L 582.814439 -454.989715 
L 581.36426 -454.98803 
L 579.914081 -454.979914 
L 578.463901 -454.950052 
L 577.013722 -454.866245 
L 575.563543 -454.689931 
L 574.113363 -454.413047 
L 572.663184 -454.082513 
L 571.213005 -455.803781 
L 569.762826 -453.292023 
L 568.312646 -452.558042 
L 566.862467 -451.475753 
L 565.412288 -451.916359 
L 563.962108 -450.782287 
L 562.511929 -450.931465 
L 561.06175 -451.429692 
L 559.61157 -450.878395 
L 558.161391 -451.461498 
L 556.711212 -451.570538 
L 555.261032 -453.59012 
L 553.810853 -451.180088 
L 552.360674 -451.079156 
L 550.910494 -453.394072 
L 549.460315 -451.085679 
L 548.010136 -451.130368 
L 546.559956 -453.811911 
L 545.109777 -451.365973 
L 543.659598 -453.400363 
L 542.209418 -450.838513 
L 540.759239 -449.705276 
L 539.30906 -450.924136 
L 537.85888 -449.762931 
L 536.408701 -450.121654 
L 534.958522 -451.062566 
L 533.508342 -452.785592 
L 532.058163 -451.729977 
L 530.607984 -452.693674 
L 529.157804 -452.698392 
L 527.707625 -451.816593 
L 526.257446 -451.937894 
L 524.807266 -449.840776 
L 523.357087 -449.13273 
L 521.906908 -446.173731 
L 520.456729 -446.536113 
L 519.006549 -447.089014 
L 517.55637 -446.165196 
L 516.106191 -448.129751 
L 514.656011 -449.994276 
L 513.205832 -451.307109 
L 511.755653 -452.984298 
L 510.305473 -453.691995 
L 508.855294 -453.412824 
L 507.405115 -452.334363 
L 505.954935 -450.835621 
L 504.504756 -451.867673 
L 503.054577 -448.147134 
L 501.604397 -447.293219 
L 500.154218 -451.23249 
L 498.704039 -447.47645 
L 497.253859 -452.287514 
L 495.80368 -450.725565 
L 494.353501 -452.515561 
L 492.903321 -453.810094 
L 491.453142 -454.534426 
L 490.002963 -454.849145 
L 488.552783 -454.95548 
L 487.102604 -454.983546 
L 485.652425 -454.989027 
L 484.202245 -454.99002 
L 482.752066 -454.99002 
L 481.301887 -454.99002 
L 479.851707 -454.99002 
L 478.401528 -454.99002 
L 476.951349 -454.99002 
L 475.501169 -454.99002 
L 474.05099 -454.99002 
L 472.600811 -454.99002 
L 471.150632 -454.99002 
L 469.700452 -454.99002 
L 468.250273 -454.99002 
L 466.800094 -454.99002 
L 465.349914 -454.99002 
L 463.899735 -454.99002 
L 462.449556 -454.99002 
L 460.999376 -454.99002 
L 459.549197 -454.99002 
L 458.099018 -454.99002 
L 456.648838 -454.99002 
L 455.198659 -454.986494 
L 453.74848 -454.967025 
L 452.2983 -454.869968 
L 450.848121 -454.502731 
L 449.397942 -453.43238 
L 447.947762 -451.013532 
L 446.497583 -446.759843 
L 445.047404 -440.90192 
L 443.597224 -436.467464 
L 442.147045 -429.712104 
L 440.696866 -430.069586 
L 439.246686 -432.117057 
L 437.796507 -434.947043 
L 436.346328 -438.897039 
L 434.896148 -439.040433 
L 433.445969 -434.825777 
L 431.99579 -430.932433 
L 430.54561 -422.917147 
L 429.095431 -423.567402 
L 427.645252 -426.190551 
L 426.195073 -430.286499 
L 424.744893 -434.189146 
L 423.294714 -432.807688 
L 421.844535 -426.874405 
L 420.394355 -424.535512 
L 418.944176 -422.985588 
L 417.493997 -421.722851 
L 416.043817 -424.316163 
L 414.593638 -424.520716 
L 413.143459 -427.522895 
L 411.693279 -423.085278 
L 410.2431 -425.020232 
L 408.792921 -432.605865 
L 407.342741 -433.71646 
L 405.892562 -437.145054 
z
" style="stroke: #ff7f0e; stroke-opacity: 0.2"/>
    </defs>
    <g clip-path="url(#p9772e38529)">
     <use xlink:href="#m49330bf182" x="0" y="720" style="fill: #ff7f0e; fill-opacity: 0.2; stroke: #ff7f0e; stroke-opacity: 0.2"/>
    </g>
   </g>
   <g id="matplotlib.axis_3">
    <g id="xtick_7">
     <g id="line2d_13">
      <g>
       <use xlink:href="#m4b4c608606" x="405.863558" y="333.490909" style="stroke: #000000; stroke-width: 0.8"/>
      </g>
     </g>
     <g id="text_13">
      <!-- 0 -->
      <g transform="translate(402.682308 348.089347)scale(0.1 -0.1)">
       <use xlink:href="#DejaVuSans-30"/>
      </g>
     </g>
    </g>
    <g id="xtick_8">
     <g id="line2d_14">
      <g>
       <use xlink:href="#m4b4c608606" x="463.870731" y="333.490909" style="stroke: #000000; stroke-width: 0.8"/>
      </g>
     </g>
     <g id="text_14">
      <!-- 2000 -->
      <g transform="translate(451.145731 348.089347)scale(0.1 -0.1)">
       <use xlink:href="#DejaVuSans-32"/>
       <use xlink:href="#DejaVuSans-30" x="63.623047"/>
       <use xlink:href="#DejaVuSans-30" x="127.246094"/>
       <use xlink:href="#DejaVuSans-30" x="190.869141"/>
      </g>
     </g>
    </g>
    <g id="xtick_9">
     <g id="line2d_15">
      <g>
       <use xlink:href="#m4b4c608606" x="521.877904" y="333.490909" style="stroke: #000000; stroke-width: 0.8"/>
      </g>
     </g>
     <g id="text_15">
      <!-- 4000 -->
      <g transform="translate(509.152904 348.089347)scale(0.1 -0.1)">
       <use xlink:href="#DejaVuSans-34"/>
       <use xlink:href="#DejaVuSans-30" x="63.623047"/>
       <use xlink:href="#DejaVuSans-30" x="127.246094"/>
       <use xlink:href="#DejaVuSans-30" x="190.869141"/>
      </g>
     </g>
    </g>
    <g id="xtick_10">
     <g id="line2d_16">
      <g>
       <use xlink:href="#m4b4c608606" x="579.885077" y="333.490909" style="stroke: #000000; stroke-width: 0.8"/>
      </g>
     </g>
     <g id="text_16">
      <!-- 6000 -->
      <g transform="translate(567.160077 348.089347)scale(0.1 -0.1)">
       <use xlink:href="#DejaVuSans-36"/>
       <use xlink:href="#DejaVuSans-30" x="63.623047"/>
       <use xlink:href="#DejaVuSans-30" x="127.246094"/>
       <use xlink:href="#DejaVuSans-30" x="190.869141"/>
      </g>
     </g>
    </g>
    <g id="xtick_11">
     <g id="line2d_17">
      <g>
       <use xlink:href="#m4b4c608606" x="637.89225" y="333.490909" style="stroke: #000000; stroke-width: 0.8"/>
      </g>
     </g>
     <g id="text_17">
      <!-- 8000 -->
      <g transform="translate(625.16725 348.089347)scale(0.1 -0.1)">
       <use xlink:href="#DejaVuSans-38"/>
       <use xlink:href="#DejaVuSans-30" x="63.623047"/>
       <use xlink:href="#DejaVuSans-30" x="127.246094"/>
       <use xlink:href="#DejaVuSans-30" x="190.869141"/>
      </g>
     </g>
    </g>
   </g>
   <g id="matplotlib.axis_4">
    <g id="ytick_7">
     <g id="line2d_18">
      <g>
       <use xlink:href="#m0120eecbe6" x="394.363636" y="321.563464" style="stroke: #000000; stroke-width: 0.8"/>
      </g>
     </g>
     <g id="text_18">
      <!-- −1.0 -->
      <g transform="translate(363.080824 325.362683)scale(0.1 -0.1)">
       <defs>
        <path id="DejaVuSans-2212" d="M 678 2272 
L 4684 2272 
L 4684 1741 
L 678 1741 
L 678 2272 
z
" transform="scale(0.015625)"/>
       </defs>
       <use xlink:href="#DejaVuSans-2212"/>
       <use xlink:href="#DejaVuSans-31" x="83.789062"/>
       <use xlink:href="#DejaVuSans-2e" x="147.412109"/>
       <use xlink:href="#DejaVuSans-30" x="179.199219"/>
      </g>
     </g>
    </g>
    <g id="ytick_8">
     <g id="line2d_19">
      <g>
       <use xlink:href="#m0120eecbe6" x="394.363636" y="293.286722" style="stroke: #000000; stroke-width: 0.8"/>
      </g>
     </g>
     <g id="text_19">
      <!-- −0.5 -->
      <g transform="translate(363.080824 297.085941)scale(0.1 -0.1)">
       <defs>
        <path id="DejaVuSans-35" d="M 691 4666 
L 3169 4666 
L 3169 4134 
L 1269 4134 
L 1269 2991 
Q 1406 3038 1543 3061 
Q 1681 3084 1819 3084 
Q 2600 3084 3056 2656 
Q 3513 2228 3513 1497 
Q 3513 744 3044 326 
Q 2575 -91 1722 -91 
Q 1428 -91 1123 -41 
Q 819 9 494 109 
L 494 744 
Q 775 591 1075 516 
Q 1375 441 1709 441 
Q 2250 441 2565 725 
Q 2881 1009 2881 1497 
Q 2881 1984 2565 2268 
Q 2250 2553 1709 2553 
Q 1456 2553 1204 2497 
Q 953 2441 691 2322 
L 691 4666 
z
" transform="scale(0.015625)"/>
       </defs>
       <use xlink:href="#DejaVuSans-2212"/>
       <use xlink:href="#DejaVuSans-30" x="83.789062"/>
       <use xlink:href="#DejaVuSans-2e" x="147.412109"/>
       <use xlink:href="#DejaVuSans-35" x="179.199219"/>
      </g>
     </g>
    </g>
    <g id="ytick_9">
     <g id="line2d_20">
      <g>
       <use xlink:href="#m0120eecbe6" x="394.363636" y="265.00998" style="stroke: #000000; stroke-width: 0.8"/>
      </g>
     </g>
     <g id="text_20">
      <!-- 0.0 -->
      <g transform="translate(371.460511 268.809199)scale(0.1 -0.1)">
       <use xlink:href="#DejaVuSans-30"/>
       <use xlink:href="#DejaVuSans-2e" x="63.623047"/>
       <use xlink:href="#DejaVuSans-30" x="95.410156"/>
      </g>
     </g>
    </g>
    <g id="ytick_10">
     <g id="line2d_21">
      <g>
       <use xlink:href="#m0120eecbe6" x="394.363636" y="236.733238" style="stroke: #000000; stroke-width: 0.8"/>
      </g>
     </g>
     <g id="text_21">
      <!-- 0.5 -->
      <g transform="translate(371.460511 240.532457)scale(0.1 -0.1)">
       <use xlink:href="#DejaVuSans-30"/>
       <use xlink:href="#DejaVuSans-2e" x="63.623047"/>
       <use xlink:href="#DejaVuSans-35" x="95.410156"/>
      </g>
     </g>
    </g>
    <g id="ytick_11">
     <g id="line2d_22">
      <g>
       <use xlink:href="#m0120eecbe6" x="394.363636" y="208.456496" style="stroke: #000000; stroke-width: 0.8"/>
      </g>
     </g>
     <g id="text_22">
      <!-- 1.0 -->
      <g transform="translate(371.460511 212.255715)scale(0.1 -0.1)">
       <use xlink:href="#DejaVuSans-31"/>
       <use xlink:href="#DejaVuSans-2e" x="63.623047"/>
       <use xlink:href="#DejaVuSans-30" x="95.410156"/>
      </g>
     </g>
    </g>
    <g id="ytick_12">
     <g id="line2d_23">
      <g>
       <use xlink:href="#m0120eecbe6" x="394.363636" y="180.179755" style="stroke: #000000; stroke-width: 0.8"/>
      </g>
     </g>
     <g id="text_23">
      <!-- 1.5 -->
      <g transform="translate(371.460511 183.978973)scale(0.1 -0.1)">
       <use xlink:href="#DejaVuSans-31"/>
       <use xlink:href="#DejaVuSans-2e" x="63.623047"/>
       <use xlink:href="#DejaVuSans-35" x="95.410156"/>
      </g>
     </g>
    </g>
    <g id="ytick_13">
     <g id="line2d_24">
      <g>
       <use xlink:href="#m0120eecbe6" x="394.363636" y="151.903013" style="stroke: #000000; stroke-width: 0.8"/>
      </g>
     </g>
     <g id="text_24">
      <!-- 2.0 -->
      <g transform="translate(371.460511 155.702232)scale(0.1 -0.1)">
       <use xlink:href="#DejaVuSans-32"/>
       <use xlink:href="#DejaVuSans-2e" x="63.623047"/>
       <use xlink:href="#DejaVuSans-30" x="95.410156"/>
      </g>
     </g>
    </g>
    <g id="ytick_14">
     <g id="line2d_25">
      <g>
       <use xlink:href="#m0120eecbe6" x="394.363636" y="123.626271" style="stroke: #000000; stroke-width: 0.8"/>
      </g>
     </g>
     <g id="text_25">
      <!-- 2.5 -->
      <g transform="translate(371.460511 127.42549)scale(0.1 -0.1)">
       <use xlink:href="#DejaVuSans-32"/>
       <use xlink:href="#DejaVuSans-2e" x="63.623047"/>
       <use xlink:href="#DejaVuSans-35" x="95.410156"/>
      </g>
     </g>
    </g>
    <g id="ytick_15">
     <g id="line2d_26">
      <g>
       <use xlink:href="#m0120eecbe6" x="394.363636" y="95.349529" style="stroke: #000000; stroke-width: 0.8"/>
      </g>
     </g>
     <g id="text_26">
      <!-- 3.0 -->
      <g transform="translate(371.460511 99.148748)scale(0.1 -0.1)">
       <defs>
        <path id="DejaVuSans-33" d="M 2597 2516 
Q 3050 2419 3304 2112 
Q 3559 1806 3559 1356 
Q 3559 666 3084 287 
Q 2609 -91 1734 -91 
Q 1441 -91 1130 -33 
Q 819 25 488 141 
L 488 750 
Q 750 597 1062 519 
Q 1375 441 1716 441 
Q 2309 441 2620 675 
Q 2931 909 2931 1356 
Q 2931 1769 2642 2001 
Q 2353 2234 1838 2234 
L 1294 2234 
L 1294 2753 
L 1863 2753 
Q 2328 2753 2575 2939 
Q 2822 3125 2822 3475 
Q 2822 3834 2567 4026 
Q 2313 4219 1838 4219 
Q 1578 4219 1281 4162 
Q 984 4106 628 3988 
L 628 4550 
Q 988 4650 1302 4700 
Q 1616 4750 1894 4750 
Q 2613 4750 3031 4423 
Q 3450 4097 3450 3541 
Q 3450 3153 3228 2886 
Q 3006 2619 2597 2516 
z
" transform="scale(0.015625)"/>
       </defs>
       <use xlink:href="#DejaVuSans-33"/>
       <use xlink:href="#DejaVuSans-2e" x="63.623047"/>
       <use xlink:href="#DejaVuSans-30" x="95.410156"/>
      </g>
     </g>
    </g>
   </g>
   <g id="line2d_27">
    <path d="M 405.892562 180.03461 
L 407.342741 186.651939 
L 408.792921 197.44965 
L 410.2431 210.119942 
L 413.143459 237.515926 
L 414.593638 249.433748 
L 416.043817 257.748061 
L 417.493997 262.27848 
L 418.944176 264.185816 
L 420.394355 264.782323 
L 421.844535 264.802321 
L 423.294714 264.32824 
L 424.744893 262.924432 
L 426.195073 260.007011 
L 429.095431 251.4105 
L 430.54561 249.59975 
L 431.99579 251.4105 
L 434.896148 260.007011 
L 436.346328 262.924432 
L 437.796507 264.332902 
L 439.246686 264.838788 
L 442.147045 265.004811 
L 474.05099 265.00998 
L 569.762826 265.081318 
L 575.563543 265.531072 
L 577.013722 265.444553 
L 578.463901 265.208638 
L 579.914081 264.808231 
L 581.36426 264.186826 
L 584.264619 262.584353 
L 585.714798 262.255903 
L 587.164977 262.578675 
L 590.065336 264.115488 
L 591.515515 264.6371 
L 592.965695 264.888924 
L 595.866053 265.003953 
L 603.11695 265.035515 
L 604.567129 265.14839 
L 606.017309 265.595605 
L 607.467488 266.974064 
L 608.917667 270.285002 
L 610.367847 276.453221 
L 611.818026 285.300564 
L 613.268205 294.905522 
L 614.718385 302.487718 
L 616.168564 306.481069 
L 617.618743 307.730137 
L 619.068923 308.433282 
L 620.519102 310.083696 
L 623.41946 315.536685 
L 624.86964 316.813136 
L 626.319819 314.126966 
L 627.769998 306.011872 
L 630.670357 281.90612 
L 632.120536 273.0023 
L 633.570716 268.043472 
L 635.020895 265.932239 
L 636.471074 265.270514 
L 636.471074 265.270514 
" clip-path="url(#p9772e38529)" style="fill: none; stroke: #9467bd; stroke-width: 2; stroke-linecap: square"/>
   </g>
   <g id="line2d_28">
    <path d="M 405.892562 265.00998 
L 424.744893 264.955833 
L 426.195073 264.791085 
L 427.645252 264.311677 
L 429.095431 263.239685 
L 430.54561 261.409542 
L 431.99579 259.068285 
L 433.445969 256.963614 
L 434.896148 255.997892 
L 436.346328 256.650402 
L 437.796507 258.624226 
L 439.246686 261.034458 
L 440.696866 263.016228 
L 442.147045 264.21279 
L 443.597224 264.75776 
L 445.047404 264.945548 
L 447.947762 264.959242 
L 449.397942 264.826798 
L 450.848121 264.468651 
L 452.2983 263.749434 
L 455.198659 261.603101 
L 456.648838 260.948216 
L 458.099018 260.926316 
L 459.549197 261.347014 
L 462.449556 262.60529 
L 463.899735 263.305025 
L 465.349914 263.863644 
L 466.800094 264.112507 
L 469.700452 264.062024 
L 471.150632 264.214786 
L 475.501169 265.174772 
L 478.401528 265.187531 
L 481.301887 265.150505 
L 482.752066 265.314195 
L 484.202245 265.702116 
L 487.102604 266.880468 
L 488.552783 267.141425 
L 490.002963 266.928364 
L 492.903321 265.931494 
L 494.353501 265.63804 
L 504.504756 264.691787 
L 507.405115 264.687612 
L 513.205832 264.993924 
L 521.906908 265.139954 
L 524.807266 265.592482 
L 526.257446 265.857515 
L 527.707625 265.970363 
L 529.157804 265.857696 
L 532.058163 265.331086 
L 533.508342 265.180554 
L 534.958522 265.192078 
L 536.408701 265.402195 
L 537.85888 265.835854 
L 540.759239 266.922509 
L 542.209418 267.083523 
L 543.659598 266.839595 
L 546.559956 266.005378 
L 548.010136 265.792104 
L 561.06175 265.016071 
L 565.412288 265.082925 
L 569.762826 265.235859 
L 575.563543 265.177717 
L 579.914081 265.429909 
L 584.264619 265.236277 
L 587.164977 265.046318 
L 588.615157 264.637338 
L 590.065336 263.76097 
L 592.965695 261.162171 
L 594.415874 260.437828 
L 595.866053 260.555276 
L 597.316233 261.291886 
L 600.216591 263.160392 
L 601.666771 263.924297 
L 603.11695 264.473715 
L 604.567129 264.794661 
L 607.467488 264.992849 
L 613.268205 264.940646 
L 614.718385 264.657874 
L 616.168564 263.617374 
L 617.618743 260.706803 
L 619.068923 254.619162 
L 620.519102 245.246874 
L 621.969281 234.787089 
L 624.86964 217.401499 
L 626.319819 204.118852 
L 627.769998 182.603731 
L 629.220178 156.864618 
L 630.670357 135.572125 
L 632.120536 124.255389 
L 633.570716 121.798884 
L 636.471074 125.316206 
L 636.471074 125.316206 
" clip-path="url(#p9772e38529)" style="fill: none; stroke: #1f77b4; stroke-width: 2; stroke-linecap: square"/>
   </g>
   <g id="line2d_29">
    <path d="M 405.892562 265.176811 
L 407.342741 265.599669 
L 408.792921 266.942867 
L 410.2431 270.075981 
L 411.693279 275.617701 
L 413.143459 282.880236 
L 414.593638 289.484069 
L 416.043817 292.793185 
L 417.493997 292.301892 
L 418.944176 290.32125 
L 420.394355 289.79815 
L 423.294714 293.248577 
L 424.744893 292.469169 
L 426.195073 288.124343 
L 427.645252 281.704067 
L 429.095431 276.108296 
L 430.54561 273.821113 
L 431.99579 275.584257 
L 434.896148 284.962321 
L 436.346328 287.798139 
L 437.796507 287.954741 
L 439.246686 286.582265 
L 440.696866 285.572564 
L 442.147045 286.08135 
L 443.597224 287.919951 
L 445.047404 290.001006 
L 446.497583 291.167406 
L 447.947762 290.878479 
L 449.397942 289.34927 
L 450.848121 286.982044 
L 452.2983 283.805728 
L 453.74848 279.696559 
L 455.198659 275.039975 
L 456.648838 270.788669 
L 458.099018 267.779441 
L 459.549197 266.195346 
L 460.999376 265.683401 
L 462.449556 265.75598 
L 463.899735 266.00049 
L 465.349914 266.123212 
L 469.700452 265.806377 
L 471.150632 266.312992 
L 472.600811 267.53598 
L 474.05099 269.417582 
L 475.501169 271.544158 
L 476.951349 273.277292 
L 478.401528 274.17144 
L 479.851707 274.320376 
L 481.301887 274.119644 
L 482.752066 273.681846 
L 485.652425 271.916818 
L 487.102604 272.01732 
L 488.552783 274.197803 
L 491.453142 281.838419 
L 492.903321 282.958577 
L 494.353501 280.62662 
L 497.253859 271.325686 
L 498.704039 267.95514 
L 500.154218 266.227303 
L 501.604397 265.769041 
L 503.054577 266.183274 
L 504.504756 267.206063 
L 505.954935 268.500358 
L 507.405115 269.548198 
L 508.855294 269.866268 
L 510.305473 269.311392 
L 514.656011 265.81689 
L 520.456729 262.464666 
L 521.906908 261.876574 
L 523.357087 261.412616 
L 524.807266 260.273564 
L 526.257446 257.527843 
L 529.157804 248.790804 
L 530.607984 246.675364 
L 532.058163 248.174779 
L 533.508342 252.522744 
L 534.958522 257.559683 
L 536.408701 261.450045 
L 537.85888 263.653851 
L 539.30906 264.599864 
L 540.759239 264.911891 
L 543.659598 265.007544 
L 549.460315 264.937321 
L 550.910494 264.773223 
L 552.360674 264.390803 
L 553.810853 263.695421 
L 556.711212 261.706594 
L 558.161391 261.065867 
L 559.61157 261.133355 
L 561.06175 261.906088 
L 563.962108 263.981833 
L 565.412288 264.592239 
L 566.862467 264.876497 
L 569.762826 265.003498 
L 574.113363 265.044416 
L 575.563543 265.154404 
L 577.013722 265.486937 
L 578.463901 266.25987 
L 579.914081 267.625089 
L 582.814439 271.151599 
L 584.264619 272.282066 
L 585.714798 272.742365 
L 588.615157 272.975861 
L 590.065336 273.025688 
L 592.965695 272.833696 
L 594.415874 273.089815 
L 595.866053 274.072781 
L 597.316233 276.320403 
L 598.766412 280.477624 
L 600.216591 286.679905 
L 603.11695 301.608682 
L 604.567129 308.126774 
L 606.017309 313.070168 
L 607.467488 315.669409 
L 608.917667 314.757185 
L 610.367847 309.388142 
L 611.818026 300.080982 
L 613.268205 289.419108 
L 614.718385 280.83488 
L 616.168564 276.276195 
L 617.618743 274.957159 
L 619.068923 274.440481 
L 620.519102 272.910075 
L 623.41946 267.863433 
L 624.86964 266.197944 
L 626.319819 265.395656 
L 627.769998 265.107494 
L 630.670357 265.012925 
L 636.471074 265.00998 
L 636.471074 265.00998 
" clip-path="url(#p9772e38529)" style="fill: none; stroke: #d62728; stroke-width: 2; stroke-linecap: square"/>
   </g>
   <g id="line2d_30">
    <path d="M 405.892562 282.854946 
L 407.342741 286.28354 
L 408.792921 291.057298 
L 410.2431 294.979768 
L 411.693279 296.914722 
L 413.143459 296.686756 
L 414.593638 295.479284 
L 416.043817 295.683837 
L 418.944176 300.648685 
L 420.394355 299.013898 
L 423.294714 287.192312 
L 424.744893 285.810854 
L 426.195073 289.713501 
L 427.645252 295.466319 
L 429.095431 298.646984 
L 430.54561 297.082853 
L 431.99579 291.647617 
L 433.445969 285.174223 
L 434.896148 280.959567 
L 436.346328 281.102961 
L 437.796507 285.052957 
L 439.246686 289.788788 
L 440.696866 292.004417 
L 442.147045 290.287896 
L 443.597224 285.385817 
L 446.497583 273.240157 
L 447.947762 268.986468 
L 449.397942 266.56762 
L 450.848121 265.497269 
L 452.2983 265.130032 
L 455.198659 265.013506 
L 487.102604 265.016454 
L 490.002963 265.150855 
L 491.453142 265.465574 
L 492.903321 266.189906 
L 494.353501 267.484439 
L 497.253859 271.147399 
L 498.704039 272.52355 
L 500.154218 273.026295 
L 501.604397 272.706781 
L 503.054577 271.852866 
L 504.504756 270.64467 
L 507.405115 267.665637 
L 508.855294 266.587176 
L 510.305473 266.308005 
L 511.755653 267.015702 
L 513.205832 268.692891 
L 516.106191 273.418761 
L 517.55637 275.078955 
L 519.006549 275.568158 
L 520.456729 274.989525 
L 521.906908 273.826269 
L 524.807266 271.080311 
L 527.707625 268.183407 
L 529.157804 267.301608 
L 530.607984 267.306326 
L 532.058163 268.270023 
L 534.958522 271.561109 
L 536.408701 272.628925 
L 537.85888 272.654179 
L 539.30906 271.691144 
L 540.759239 270.294724 
L 542.209418 269.161487 
L 543.659598 268.65101 
L 545.109777 268.634027 
L 548.010136 268.869632 
L 552.360674 268.920844 
L 555.261032 268.616296 
L 556.711212 268.429462 
L 558.161391 268.538502 
L 559.61157 269.121605 
L 561.06175 269.9671 
L 562.511929 270.563197 
L 563.962108 270.486406 
L 565.412288 269.69397 
L 568.312646 267.441958 
L 569.762826 266.707977 
L 572.663184 265.917487 
L 575.563543 265.310069 
L 578.463901 265.049948 
L 585.714798 265.00998 
L 636.471074 265.00998 
L 636.471074 265.00998 
" clip-path="url(#p9772e38529)" style="fill: none; stroke: #ff7f0e; stroke-width: 2; stroke-linecap: square"/>
   </g>
   <g id="LineCollection_1">
    <path d="M 521.877904 311.222838 
L 521.877904 125.673006 
" clip-path="url(#p9772e38529)" style="fill: none; stroke-dasharray: 7.4,3.2; stroke-dashoffset: 0; stroke: #000000; stroke-width: 2"/>
    <path d="M 536.379697 311.222838 
L 536.379697 125.673006 
" clip-path="url(#p9772e38529)" style="fill: none; stroke-dasharray: 7.4,3.2; stroke-dashoffset: 0; stroke: #000000; stroke-width: 2"/>
    <path d="M 565.383284 311.222838 
L 565.383284 125.673006 
" clip-path="url(#p9772e38529)" style="fill: none; stroke-dasharray: 7.4,3.2; stroke-dashoffset: 0; stroke: #000000; stroke-width: 2"/>
    <path d="M 623.390457 311.222838 
L 623.390457 125.673006 
" clip-path="url(#p9772e38529)" style="fill: none; stroke-dasharray: 7.4,3.2; stroke-dashoffset: 0; stroke: #000000; stroke-width: 2"/>
   </g>
   <g id="patch_8">
    <path d="M 394.363636 333.490909 
L 394.363636 86.4 
" style="fill: none; stroke: #000000; stroke-width: 0.8; stroke-linejoin: miter; stroke-linecap: square"/>
   </g>
   <g id="patch_9">
    <path d="M 648 333.490909 
L 648 86.4 
" style="fill: none; stroke: #000000; stroke-width: 0.8; stroke-linejoin: miter; stroke-linecap: square"/>
   </g>
   <g id="patch_10">
    <path d="M 394.363636 333.490909 
L 648 333.490909 
" style="fill: none; stroke: #000000; stroke-width: 0.8; stroke-linejoin: miter; stroke-linecap: square"/>
   </g>
   <g id="patch_11">
    <path d="M 394.363636 86.4 
L 648 86.4 
" style="fill: none; stroke: #000000; stroke-width: 0.8; stroke-linejoin: miter; stroke-linecap: square"/>
   </g>
   <g id="text_27">
    <!-- unit_57 -->
    <g transform="translate(498.922756 80.4)scale(0.12 -0.12)">
     <defs>
      <path id="DejaVuSans-75" d="M 544 1381 
L 544 3500 
L 1119 3500 
L 1119 1403 
Q 1119 906 1312 657 
Q 1506 409 1894 409 
Q 2359 409 2629 706 
Q 2900 1003 2900 1516 
L 2900 3500 
L 3475 3500 
L 3475 0 
L 2900 0 
L 2900 538 
Q 2691 219 2414 64 
Q 2138 -91 1772 -91 
Q 1169 -91 856 284 
Q 544 659 544 1381 
z
M 1991 3584 
L 1991 3584 
z
" transform="scale(0.015625)"/>
      <path id="DejaVuSans-6e" d="M 3513 2113 
L 3513 0 
L 2938 0 
L 2938 2094 
Q 2938 2591 2744 2837 
Q 2550 3084 2163 3084 
Q 1697 3084 1428 2787 
Q 1159 2491 1159 1978 
L 1159 0 
L 581 0 
L 581 3500 
L 1159 3500 
L 1159 2956 
Q 1366 3272 1645 3428 
Q 1925 3584 2291 3584 
Q 2894 3584 3203 3211 
Q 3513 2838 3513 2113 
z
" transform="scale(0.015625)"/>
      <path id="DejaVuSans-69" d="M 603 3500 
L 1178 3500 
L 1178 0 
L 603 0 
L 603 3500 
z
M 603 4863 
L 1178 4863 
L 1178 4134 
L 603 4134 
L 603 4863 
z
" transform="scale(0.015625)"/>
      <path id="DejaVuSans-74" d="M 1172 4494 
L 1172 3500 
L 2356 3500 
L 2356 3053 
L 1172 3053 
L 1172 1153 
Q 1172 725 1289 603 
Q 1406 481 1766 481 
L 2356 481 
L 2356 0 
L 1766 0 
Q 1100 0 847 248 
Q 594 497 594 1153 
L 594 3053 
L 172 3053 
L 172 3500 
L 594 3500 
L 594 4494 
L 1172 4494 
z
" transform="scale(0.015625)"/>
      <path id="DejaVuSans-5f" d="M 3263 -1063 
L 3263 -1509 
L -63 -1509 
L -63 -1063 
L 3263 -1063 
z
" transform="scale(0.015625)"/>
      <path id="DejaVuSans-37" d="M 525 4666 
L 3525 4666 
L 3525 4397 
L 1831 0 
L 1172 0 
L 2766 4134 
L 525 4134 
L 525 4666 
z
" transform="scale(0.015625)"/>
     </defs>
     <use xlink:href="#DejaVuSans-75"/>
     <use xlink:href="#DejaVuSans-6e" x="63.378906"/>
     <use xlink:href="#DejaVuSans-69" x="126.757812"/>
     <use xlink:href="#DejaVuSans-74" x="154.541016"/>
     <use xlink:href="#DejaVuSans-5f" x="193.75"/>
     <use xlink:href="#DejaVuSans-35" x="243.75"/>
     <use xlink:href="#DejaVuSans-37" x="307.373047"/>
    </g>
   </g>
  </g>
  <g id="axes_3">
   <g id="patch_12">
    <path d="M 90 630 
L 343.636364 630 
L 343.636364 382.909091 
L 90 382.909091 
z
" style="fill: #ffffff"/>
   </g>
   <g id="matplotlib.axis_5">
    <g id="xtick_12">
     <g id="line2d_31">
      <g>
       <use xlink:href="#m4b4c608606" x="90" y="630" style="stroke: #000000; stroke-width: 0.8"/>
      </g>
     </g>
     <g id="text_28">
      <!-- 0.0 -->
      <g transform="translate(82.048438 644.598437)scale(0.1 -0.1)">
       <use xlink:href="#DejaVuSans-30"/>
       <use xlink:href="#DejaVuSans-2e" x="63.623047"/>
       <use xlink:href="#DejaVuSans-30" x="95.410156"/>
      </g>
     </g>
    </g>
    <g id="xtick_13">
     <g id="line2d_32">
      <g>
       <use xlink:href="#m4b4c608606" x="140.727273" y="630" style="stroke: #000000; stroke-width: 0.8"/>
      </g>
     </g>
     <g id="text_29">
      <!-- 0.2 -->
      <g transform="translate(132.77571 644.598437)scale(0.1 -0.1)">
       <use xlink:href="#DejaVuSans-30"/>
       <use xlink:href="#DejaVuSans-2e" x="63.623047"/>
       <use xlink:href="#DejaVuSans-32" x="95.410156"/>
      </g>
     </g>
    </g>
    <g id="xtick_14">
     <g id="line2d_33">
      <g>
       <use xlink:href="#m4b4c608606" x="191.454545" y="630" style="stroke: #000000; stroke-width: 0.8"/>
      </g>
     </g>
     <g id="text_30">
      <!-- 0.4 -->
      <g transform="translate(183.502983 644.598437)scale(0.1 -0.1)">
       <use xlink:href="#DejaVuSans-30"/>
       <use xlink:href="#DejaVuSans-2e" x="63.623047"/>
       <use xlink:href="#DejaVuSans-34" x="95.410156"/>
      </g>
     </g>
    </g>
    <g id="xtick_15">
     <g id="line2d_34">
      <g>
       <use xlink:href="#m4b4c608606" x="242.181818" y="630" style="stroke: #000000; stroke-width: 0.8"/>
      </g>
     </g>
     <g id="text_31">
      <!-- 0.6 -->
      <g transform="translate(234.230256 644.598437)scale(0.1 -0.1)">
       <use xlink:href="#DejaVuSans-30"/>
       <use xlink:href="#DejaVuSans-2e" x="63.623047"/>
       <use xlink:href="#DejaVuSans-36" x="95.410156"/>
      </g>
     </g>
    </g>
    <g id="xtick_16">
     <g id="line2d_35">
      <g>
       <use xlink:href="#m4b4c608606" x="292.909091" y="630" style="stroke: #000000; stroke-width: 0.8"/>
      </g>
     </g>
     <g id="text_32">
      <!-- 0.8 -->
      <g transform="translate(284.957528 644.598437)scale(0.1 -0.1)">
       <use xlink:href="#DejaVuSans-30"/>
       <use xlink:href="#DejaVuSans-2e" x="63.623047"/>
       <use xlink:href="#DejaVuSans-38" x="95.410156"/>
      </g>
     </g>
    </g>
    <g id="xtick_17">
     <g id="line2d_36">
      <g>
       <use xlink:href="#m4b4c608606" x="343.636364" y="630" style="stroke: #000000; stroke-width: 0.8"/>
      </g>
     </g>
     <g id="text_33">
      <!-- 1.0 -->
      <g transform="translate(335.684801 644.598437)scale(0.1 -0.1)">
       <use xlink:href="#DejaVuSans-31"/>
       <use xlink:href="#DejaVuSans-2e" x="63.623047"/>
       <use xlink:href="#DejaVuSans-30" x="95.410156"/>
      </g>
     </g>
    </g>
   </g>
   <g id="matplotlib.axis_6">
    <g id="ytick_16">
     <g id="line2d_37">
      <g>
       <use xlink:href="#m0120eecbe6" x="90" y="630" style="stroke: #000000; stroke-width: 0.8"/>
      </g>
     </g>
     <g id="text_34">
      <!-- 0.0 -->
      <g transform="translate(67.096875 633.799219)scale(0.1 -0.1)">
       <use xlink:href="#DejaVuSans-30"/>
       <use xlink:href="#DejaVuSans-2e" x="63.623047"/>
       <use xlink:href="#DejaVuSans-30" x="95.410156"/>
      </g>
     </g>
    </g>
    <g id="ytick_17">
     <g id="line2d_38">
      <g>
       <use xlink:href="#m0120eecbe6" x="90" y="580.581818" style="stroke: #000000; stroke-width: 0.8"/>
      </g>
     </g>
     <g id="text_35">
      <!-- 0.2 -->
      <g transform="translate(67.096875 584.381037)scale(0.1 -0.1)">
       <use xlink:href="#DejaVuSans-30"/>
       <use xlink:href="#DejaVuSans-2e" x="63.623047"/>
       <use xlink:href="#DejaVuSans-32" x="95.410156"/>
      </g>
     </g>
    </g>
    <g id="ytick_18">
     <g id="line2d_39">
      <g>
       <use xlink:href="#m0120eecbe6" x="90" y="531.163636" style="stroke: #000000; stroke-width: 0.8"/>
      </g>
     </g>
     <g id="text_36">
      <!-- 0.4 -->
      <g transform="translate(67.096875 534.962855)scale(0.1 -0.1)">
       <use xlink:href="#DejaVuSans-30"/>
       <use xlink:href="#DejaVuSans-2e" x="63.623047"/>
       <use xlink:href="#DejaVuSans-34" x="95.410156"/>
      </g>
     </g>
    </g>
    <g id="ytick_19">
     <g id="line2d_40">
      <g>
       <use xlink:href="#m0120eecbe6" x="90" y="481.745455" style="stroke: #000000; stroke-width: 0.8"/>
      </g>
     </g>
     <g id="text_37">
      <!-- 0.6 -->
      <g transform="translate(67.096875 485.544673)scale(0.1 -0.1)">
       <use xlink:href="#DejaVuSans-30"/>
       <use xlink:href="#DejaVuSans-2e" x="63.623047"/>
       <use xlink:href="#DejaVuSans-36" x="95.410156"/>
      </g>
     </g>
    </g>
    <g id="ytick_20">
     <g id="line2d_41">
      <g>
       <use xlink:href="#m0120eecbe6" x="90" y="432.327273" style="stroke: #000000; stroke-width: 0.8"/>
      </g>
     </g>
     <g id="text_38">
      <!-- 0.8 -->
      <g transform="translate(67.096875 436.126491)scale(0.1 -0.1)">
       <use xlink:href="#DejaVuSans-30"/>
       <use xlink:href="#DejaVuSans-2e" x="63.623047"/>
       <use xlink:href="#DejaVuSans-38" x="95.410156"/>
      </g>
     </g>
    </g>
    <g id="ytick_21">
     <g id="line2d_42">
      <g>
       <use xlink:href="#m0120eecbe6" x="90" y="382.909091" style="stroke: #000000; stroke-width: 0.8"/>
      </g>
     </g>
     <g id="text_39">
      <!-- 1.0 -->
      <g transform="translate(67.096875 386.70831)scale(0.1 -0.1)">
       <use xlink:href="#DejaVuSans-31"/>
       <use xlink:href="#DejaVuSans-2e" x="63.623047"/>
       <use xlink:href="#DejaVuSans-30" x="95.410156"/>
      </g>
     </g>
    </g>
   </g>
   <g id="patch_13">
    <path d="M 90 630 
L 90 382.909091 
" style="fill: none; stroke: #000000; stroke-width: 0.8; stroke-linejoin: miter; stroke-linecap: square"/>
   </g>
   <g id="patch_14">
    <path d="M 343.636364 630 
L 343.636364 382.909091 
" style="fill: none; stroke: #000000; stroke-width: 0.8; stroke-linejoin: miter; stroke-linecap: square"/>
   </g>
   <g id="patch_15">
    <path d="M 90 630 
L 343.636364 630 
" style="fill: none; stroke: #000000; stroke-width: 0.8; stroke-linejoin: miter; stroke-linecap: square"/>
   </g>
   <g id="patch_16">
    <path d="M 90 382.909091 
L 343.636364 382.909091 
" style="fill: none; stroke: #000000; stroke-width: 0.8; stroke-linejoin: miter; stroke-linecap: square"/>
   </g>
  </g>
  <g id="axes_4">
   <g id="patch_17">
    <path d="M 394.363636 630 
L 648 630 
L 648 382.909091 
L 394.363636 382.909091 
z
" style="fill: #ffffff"/>
   </g>
   <g id="matplotlib.axis_7">
    <g id="xtick_18">
     <g id="line2d_43">
      <g>
       <use xlink:href="#m4b4c608606" x="405.863558" y="630" style="stroke: #000000; stroke-width: 0.8"/>
      </g>
     </g>
     <g id="text_40">
      <!-- 0 -->
      <g transform="translate(402.682308 644.598437)scale(0.1 -0.1)">
       <use xlink:href="#DejaVuSans-30"/>
      </g>
     </g>
    </g>
    <g id="xtick_19">
     <g id="line2d_44">
      <g>
       <use xlink:href="#m4b4c608606" x="463.870731" y="630" style="stroke: #000000; stroke-width: 0.8"/>
      </g>
     </g>
     <g id="text_41">
      <!-- 2000 -->
      <g transform="translate(451.145731 644.598437)scale(0.1 -0.1)">
       <use xlink:href="#DejaVuSans-32"/>
       <use xlink:href="#DejaVuSans-30" x="63.623047"/>
       <use xlink:href="#DejaVuSans-30" x="127.246094"/>
       <use xlink:href="#DejaVuSans-30" x="190.869141"/>
      </g>
     </g>
    </g>
    <g id="xtick_20">
     <g id="line2d_45">
      <g>
       <use xlink:href="#m4b4c608606" x="521.877904" y="630" style="stroke: #000000; stroke-width: 0.8"/>
      </g>
     </g>
     <g id="text_42">
      <!-- 4000 -->
      <g transform="translate(509.152904 644.598437)scale(0.1 -0.1)">
       <use xlink:href="#DejaVuSans-34"/>
       <use xlink:href="#DejaVuSans-30" x="63.623047"/>
       <use xlink:href="#DejaVuSans-30" x="127.246094"/>
       <use xlink:href="#DejaVuSans-30" x="190.869141"/>
      </g>
     </g>
    </g>
    <g id="xtick_21">
     <g id="line2d_46">
      <g>
       <use xlink:href="#m4b4c608606" x="579.885077" y="630" style="stroke: #000000; stroke-width: 0.8"/>
      </g>
     </g>
     <g id="text_43">
      <!-- 6000 -->
      <g transform="translate(567.160077 644.598437)scale(0.1 -0.1)">
       <use xlink:href="#DejaVuSans-36"/>
       <use xlink:href="#DejaVuSans-30" x="63.623047"/>
       <use xlink:href="#DejaVuSans-30" x="127.246094"/>
       <use xlink:href="#DejaVuSans-30" x="190.869141"/>
      </g>
     </g>
    </g>
    <g id="xtick_22">
     <g id="line2d_47">
      <g>
       <use xlink:href="#m4b4c608606" x="637.89225" y="630" style="stroke: #000000; stroke-width: 0.8"/>
      </g>
     </g>
     <g id="text_44">
      <!-- 8000 -->
      <g transform="translate(625.16725 644.598437)scale(0.1 -0.1)">
       <use xlink:href="#DejaVuSans-38"/>
       <use xlink:href="#DejaVuSans-30" x="63.623047"/>
       <use xlink:href="#DejaVuSans-30" x="127.246094"/>
       <use xlink:href="#DejaVuSans-30" x="190.869141"/>
      </g>
     </g>
    </g>
   </g>
   <g id="matplotlib.axis_8">
    <g id="ytick_22">
     <g id="line2d_48">
      <g>
       <use xlink:href="#m0120eecbe6" x="394.363636" y="630" style="stroke: #000000; stroke-width: 0.8"/>
      </g>
     </g>
     <g id="text_45">
      <!-- −2 -->
      <g transform="translate(372.621449 633.799219)scale(0.1 -0.1)">
       <use xlink:href="#DejaVuSans-2212"/>
       <use xlink:href="#DejaVuSans-32" x="83.789062"/>
      </g>
     </g>
    </g>
    <g id="ytick_23">
     <g id="line2d_49">
      <g>
       <use xlink:href="#m0120eecbe6" x="394.363636" y="581.44703" style="stroke: #000000; stroke-width: 0.8"/>
      </g>
     </g>
     <g id="text_46">
      <!-- 0 -->
      <g transform="translate(381.001136 585.246249)scale(0.1 -0.1)">
       <use xlink:href="#DejaVuSans-30"/>
      </g>
     </g>
    </g>
    <g id="ytick_24">
     <g id="line2d_50">
      <g>
       <use xlink:href="#m0120eecbe6" x="394.363636" y="532.89406" style="stroke: #000000; stroke-width: 0.8"/>
      </g>
     </g>
     <g id="text_47">
      <!-- 2 -->
      <g transform="translate(381.001136 536.693278)scale(0.1 -0.1)">
       <use xlink:href="#DejaVuSans-32"/>
      </g>
     </g>
    </g>
    <g id="ytick_25">
     <g id="line2d_51">
      <g>
       <use xlink:href="#m0120eecbe6" x="394.363636" y="484.341089" style="stroke: #000000; stroke-width: 0.8"/>
      </g>
     </g>
     <g id="text_48">
      <!-- 4 -->
      <g transform="translate(381.001136 488.140308)scale(0.1 -0.1)">
       <use xlink:href="#DejaVuSans-34"/>
      </g>
     </g>
    </g>
    <g id="ytick_26">
     <g id="line2d_52">
      <g>
       <use xlink:href="#m0120eecbe6" x="394.363636" y="435.788119" style="stroke: #000000; stroke-width: 0.8"/>
      </g>
     </g>
     <g id="text_49">
      <!-- 6 -->
      <g transform="translate(381.001136 439.587338)scale(0.1 -0.1)">
       <use xlink:href="#DejaVuSans-36"/>
      </g>
     </g>
    </g>
    <g id="ytick_27">
     <g id="line2d_53">
      <g>
       <use xlink:href="#m0120eecbe6" x="394.363636" y="387.235149" style="stroke: #000000; stroke-width: 0.8"/>
      </g>
     </g>
     <g id="text_50">
      <!-- 8 -->
      <g transform="translate(381.001136 391.034368)scale(0.1 -0.1)">
       <use xlink:href="#DejaVuSans-38"/>
      </g>
     </g>
    </g>
   </g>
   <g id="line2d_54">
    <path d="M 405.892562 382.909091 
L 407.342741 422.413017 
L 408.792921 471.772375 
L 410.2431 497.816554 
L 413.143459 624.337724 
L 414.593638 605.254397 
L 416.043817 574.027925 
L 417.493997 586.918862 
L 418.944176 623.950994 
L 420.394355 637.266309 
L 421.844535 617.056855 
L 423.294714 606.697565 
L 424.744893 606.1733 
L 426.195073 648.254009 
L 427.001724 721 
M 433.007639 721 
L 433.445969 708.527145 
L 434.078736 721 
M 453.607463 721 
L 453.74848 716.442736 
L 455.198659 678.104055 
L 456.648838 643.621626 
L 458.099018 620.115668 
L 459.549197 609.553352 
L 460.999376 620.955623 
L 462.449556 656.274533 
L 463.899735 686.868646 
L 465.349914 664.015123 
L 466.800094 619.960983 
L 468.250273 597.857443 
L 469.700452 589.121656 
L 471.150632 594.130915 
L 474.05099 631.321309 
L 475.501169 641.145771 
L 476.951349 624.653308 
L 478.401528 606.367052 
L 479.851707 620.109942 
L 481.292773 721 
M 484.81015 721 
L 485.652425 650.581252 
L 487.102604 610.216819 
L 488.552783 628.111204 
L 490.002963 703.086865 
L 490.131848 721 
M 496.891454 721 
L 497.253859 652.613513 
L 498.704039 623.069264 
L 500.154218 653.695425 
L 501.604397 635.705547 
L 503.054577 636.302521 
L 504.504756 660.805122 
L 507.405115 638.825521 
L 510.305473 658.51138 
L 511.755653 630.86525 
L 513.205832 619.95454 
L 514.656011 647.556044 
L 516.106191 666.454465 
L 519.006549 709.742083 
L 521.906908 665.486745 
L 523.357087 624.678575 
L 524.807266 588.208346 
L 526.257446 586.350423 
L 529.157804 627.782605 
L 530.607984 632.609505 
L 532.058163 640.826003 
L 533.508342 644.415741 
L 534.958522 650.598409 
L 536.408701 642.603916 
L 537.85888 651.235132 
L 539.30906 666.578837 
L 540.759239 634.683014 
L 542.209418 608.636677 
L 543.659598 608.533804 
L 545.109777 605.772446 
L 546.559956 601.14797 
L 548.010136 596.117637 
L 549.460315 605.475007 
L 550.910494 617.447178 
L 552.360674 598.940581 
L 553.810853 562.196464 
L 555.261032 522.436164 
L 556.711212 504.027217 
L 558.161391 495.842044 
L 559.61157 477.163516 
L 561.06175 506.229393 
L 562.511929 563.265519 
L 563.962108 589.97841 
L 565.412288 591.153495 
L 566.862467 586.000249 
L 568.312646 585.357611 
L 569.762826 595.252575 
L 571.213005 604.154715 
L 574.113363 587.597549 
L 575.563543 587.000854 
L 577.013722 585.634479 
L 578.463901 583.909499 
L 579.914081 581.982556 
L 581.36426 581.208777 
L 582.814439 601.84902 
L 584.878128 721 
M 592.002147 721 
L 592.965695 669.994869 
L 594.415874 692.098051 
L 595.032264 721 
M 596.937061 721 
L 597.316233 707.158898 
L 598.766412 674.678813 
L 599.709786 721 
L 599.709786 721 
" clip-path="url(#p04180f8f71)" style="fill: none; stroke: #1f77b4; stroke-width: 1.5; stroke-linecap: square"/>
   </g>
   <g id="patch_18">
    <path d="M 394.363636 630 
L 394.363636 382.909091 
" style="fill: none; stroke: #000000; stroke-width: 0.8; stroke-linejoin: miter; stroke-linecap: square"/>
   </g>
   <g id="patch_19">
    <path d="M 648 630 
L 648 382.909091 
" style="fill: none; stroke: #000000; stroke-width: 0.8; stroke-linejoin: miter; stroke-linecap: square"/>
   </g>
   <g id="patch_20">
    <path d="M 394.363636 630 
L 648 630 
" style="fill: none; stroke: #000000; stroke-width: 0.8; stroke-linejoin: miter; stroke-linecap: square"/>
   </g>
   <g id="patch_21">
    <path d="M 394.363636 382.909091 
L 648 382.909091 
" style="fill: none; stroke: #000000; stroke-width: 0.8; stroke-linejoin: miter; stroke-linecap: square"/>
   </g>
   <g id="text_51">
    <!-- explained variance -->
    <g transform="translate(464.181818 376.909091)scale(0.12 -0.12)">
     <defs>
      <path id="DejaVuSans-65" d="M 3597 1894 
L 3597 1613 
L 953 1613 
Q 991 1019 1311 708 
Q 1631 397 2203 397 
Q 2534 397 2845 478 
Q 3156 559 3463 722 
L 3463 178 
Q 3153 47 2828 -22 
Q 2503 -91 2169 -91 
Q 1331 -91 842 396 
Q 353 884 353 1716 
Q 353 2575 817 3079 
Q 1281 3584 2069 3584 
Q 2775 3584 3186 3129 
Q 3597 2675 3597 1894 
z
M 3022 2063 
Q 3016 2534 2758 2815 
Q 2500 3097 2075 3097 
Q 1594 3097 1305 2825 
Q 1016 2553 972 2059 
L 3022 2063 
z
" transform="scale(0.015625)"/>
      <path id="DejaVuSans-78" d="M 3513 3500 
L 2247 1797 
L 3578 0 
L 2900 0 
L 1881 1375 
L 863 0 
L 184 0 
L 1544 1831 
L 300 3500 
L 978 3500 
L 1906 2253 
L 2834 3500 
L 3513 3500 
z
" transform="scale(0.015625)"/>
      <path id="DejaVuSans-70" d="M 1159 525 
L 1159 -1331 
L 581 -1331 
L 581 3500 
L 1159 3500 
L 1159 2969 
Q 1341 3281 1617 3432 
Q 1894 3584 2278 3584 
Q 2916 3584 3314 3078 
Q 3713 2572 3713 1747 
Q 3713 922 3314 415 
Q 2916 -91 2278 -91 
Q 1894 -91 1617 61 
Q 1341 213 1159 525 
z
M 3116 1747 
Q 3116 2381 2855 2742 
Q 2594 3103 2138 3103 
Q 1681 3103 1420 2742 
Q 1159 2381 1159 1747 
Q 1159 1113 1420 752 
Q 1681 391 2138 391 
Q 2594 391 2855 752 
Q 3116 1113 3116 1747 
z
" transform="scale(0.015625)"/>
      <path id="DejaVuSans-6c" d="M 603 4863 
L 1178 4863 
L 1178 0 
L 603 0 
L 603 4863 
z
" transform="scale(0.015625)"/>
      <path id="DejaVuSans-61" d="M 2194 1759 
Q 1497 1759 1228 1600 
Q 959 1441 959 1056 
Q 959 750 1161 570 
Q 1363 391 1709 391 
Q 2188 391 2477 730 
Q 2766 1069 2766 1631 
L 2766 1759 
L 2194 1759 
z
M 3341 1997 
L 3341 0 
L 2766 0 
L 2766 531 
Q 2569 213 2275 61 
Q 1981 -91 1556 -91 
Q 1019 -91 701 211 
Q 384 513 384 1019 
Q 384 1609 779 1909 
Q 1175 2209 1959 2209 
L 2766 2209 
L 2766 2266 
Q 2766 2663 2505 2880 
Q 2244 3097 1772 3097 
Q 1472 3097 1187 3025 
Q 903 2953 641 2809 
L 641 3341 
Q 956 3463 1253 3523 
Q 1550 3584 1831 3584 
Q 2591 3584 2966 3190 
Q 3341 2797 3341 1997 
z
" transform="scale(0.015625)"/>
      <path id="DejaVuSans-64" d="M 2906 2969 
L 2906 4863 
L 3481 4863 
L 3481 0 
L 2906 0 
L 2906 525 
Q 2725 213 2448 61 
Q 2172 -91 1784 -91 
Q 1150 -91 751 415 
Q 353 922 353 1747 
Q 353 2572 751 3078 
Q 1150 3584 1784 3584 
Q 2172 3584 2448 3432 
Q 2725 3281 2906 2969 
z
M 947 1747 
Q 947 1113 1208 752 
Q 1469 391 1925 391 
Q 2381 391 2643 752 
Q 2906 1113 2906 1747 
Q 2906 2381 2643 2742 
Q 2381 3103 1925 3103 
Q 1469 3103 1208 2742 
Q 947 2381 947 1747 
z
" transform="scale(0.015625)"/>
      <path id="DejaVuSans-20" transform="scale(0.015625)"/>
      <path id="DejaVuSans-76" d="M 191 3500 
L 800 3500 
L 1894 563 
L 2988 3500 
L 3597 3500 
L 2284 0 
L 1503 0 
L 191 3500 
z
" transform="scale(0.015625)"/>
      <path id="DejaVuSans-72" d="M 2631 2963 
Q 2534 3019 2420 3045 
Q 2306 3072 2169 3072 
Q 1681 3072 1420 2755 
Q 1159 2438 1159 1844 
L 1159 0 
L 581 0 
L 581 3500 
L 1159 3500 
L 1159 2956 
Q 1341 3275 1631 3429 
Q 1922 3584 2338 3584 
Q 2397 3584 2469 3576 
Q 2541 3569 2628 3553 
L 2631 2963 
z
" transform="scale(0.015625)"/>
      <path id="DejaVuSans-63" d="M 3122 3366 
L 3122 2828 
Q 2878 2963 2633 3030 
Q 2388 3097 2138 3097 
Q 1578 3097 1268 2742 
Q 959 2388 959 1747 
Q 959 1106 1268 751 
Q 1578 397 2138 397 
Q 2388 397 2633 464 
Q 2878 531 3122 666 
L 3122 134 
Q 2881 22 2623 -34 
Q 2366 -91 2075 -91 
Q 1284 -91 818 406 
Q 353 903 353 1747 
Q 353 2603 823 3093 
Q 1294 3584 2113 3584 
Q 2378 3584 2631 3529 
Q 2884 3475 3122 3366 
z
" transform="scale(0.015625)"/>
     </defs>
     <use xlink:href="#DejaVuSans-65"/>
     <use xlink:href="#DejaVuSans-78" x="59.773438"/>
     <use xlink:href="#DejaVuSans-70" x="118.953125"/>
     <use xlink:href="#DejaVuSans-6c" x="182.429688"/>
     <use xlink:href="#DejaVuSans-61" x="210.212891"/>
     <use xlink:href="#DejaVuSans-69" x="271.492188"/>
     <use xlink:href="#DejaVuSans-6e" x="299.275391"/>
     <use xlink:href="#DejaVuSans-65" x="362.654297"/>
     <use xlink:href="#DejaVuSans-64" x="424.177734"/>
     <use xlink:href="#DejaVuSans-20" x="487.654297"/>
     <use xlink:href="#DejaVuSans-76" x="519.441406"/>
     <use xlink:href="#DejaVuSans-61" x="578.621094"/>
     <use xlink:href="#DejaVuSans-72" x="639.900391"/>
     <use xlink:href="#DejaVuSans-69" x="681.013672"/>
     <use xlink:href="#DejaVuSans-61" x="708.796875"/>
     <use xlink:href="#DejaVuSans-6e" x="770.076172"/>
     <use xlink:href="#DejaVuSans-63" x="833.455078"/>
     <use xlink:href="#DejaVuSans-65" x="888.435547"/>
    </g>
   </g>
  </g>
 </g>
 <defs>
  <clipPath id="p9772e38529">
   <rect x="394.363636" y="86.4" width="253.636364" height="247.090909"/>
  </clipPath>
  <clipPath id="p04180f8f71">
   <rect x="394.363636" y="382.909091" width="253.636364" height="247.090909"/>
  </clipPath>
 </defs>
</svg>
