<?xml version="1.0" encoding="utf-8" standalone="no"?>
<!DOCTYPE svg PUBLIC "-//W3C//DTD SVG 1.1//EN"
  "http://www.w3.org/Graphics/SVG/1.1/DTD/svg11.dtd">
<svg xmlns:xlink="http://www.w3.org/1999/xlink" width="720pt" height="720pt" viewBox="0 0 720 720" xmlns="http://www.w3.org/2000/svg" version="1.1">
 <metadata>
  <rdf:RDF xmlns:dc="http://purl.org/dc/elements/1.1/" xmlns:cc="http://creativecommons.org/ns#" xmlns:rdf="http://www.w3.org/1999/02/22-rdf-syntax-ns#">
   <cc:Work>
    <dc:type rdf:resource="http://purl.org/dc/dcmitype/StillImage"/>
    <dc:date>2023-12-19T18:24:22.783877</dc:date>
    <dc:format>image/svg+xml</dc:format>
    <dc:creator>
     <cc:Agent>
      <dc:title>Matplotlib v3.5.2, https://matplotlib.org/</dc:title>
     </cc:Agent>
    </dc:creator>
   </cc:Work>
  </rdf:RDF>
 </metadata>
 <defs>
  <style type="text/css">*{stroke-linejoin: round; stroke-linecap: butt}</style>
 </defs>
 <g id="figure_1">
  <g id="patch_1">
   <path d="M 0 720 
L 720 720 
L 720 0 
L 0 0 
z
" style="fill: #ffffff"/>
  </g>
  <g id="axes_1">
   <g id="patch_2">
    <path d="M 90 333.490909 
L 343.636364 333.490909 
L 343.636364 86.4 
L 90 86.4 
z
" style="fill: #ffffff"/>
   </g>
   <g id="matplotlib.axis_1">
    <g id="xtick_1">
     <g id="line2d_1">
      <defs>
       <path id="m99cd2253a9" d="M 0 0 
L 0 3.5 
" style="stroke: #000000; stroke-width: 0.8"/>
      </defs>
      <g>
       <use xlink:href="#m99cd2253a9" x="90" y="333.490909" style="stroke: #000000; stroke-width: 0.8"/>
      </g>
     </g>
     <g id="text_1">
      <!-- 0.0 -->
      <g transform="translate(82.048438 348.089347)scale(0.1 -0.1)">
       <defs>
        <path id="DejaVuSans-30" d="M 2034 4250 
Q 1547 4250 1301 3770 
Q 1056 3291 1056 2328 
Q 1056 1369 1301 889 
Q 1547 409 2034 409 
Q 2525 409 2770 889 
Q 3016 1369 3016 2328 
Q 3016 3291 2770 3770 
Q 2525 4250 2034 4250 
z
M 2034 4750 
Q 2819 4750 3233 4129 
Q 3647 3509 3647 2328 
Q 3647 1150 3233 529 
Q 2819 -91 2034 -91 
Q 1250 -91 836 529 
Q 422 1150 422 2328 
Q 422 3509 836 4129 
Q 1250 4750 2034 4750 
z
" transform="scale(0.015625)"/>
        <path id="DejaVuSans-2e" d="M 684 794 
L 1344 794 
L 1344 0 
L 684 0 
L 684 794 
z
" transform="scale(0.015625)"/>
       </defs>
       <use xlink:href="#DejaVuSans-30"/>
       <use xlink:href="#DejaVuSans-2e" x="63.623047"/>
       <use xlink:href="#DejaVuSans-30" x="95.410156"/>
      </g>
     </g>
    </g>
    <g id="xtick_2">
     <g id="line2d_2">
      <g>
       <use xlink:href="#m99cd2253a9" x="140.727273" y="333.490909" style="stroke: #000000; stroke-width: 0.8"/>
      </g>
     </g>
     <g id="text_2">
      <!-- 0.2 -->
      <g transform="translate(132.77571 348.089347)scale(0.1 -0.1)">
       <defs>
        <path id="DejaVuSans-32" d="M 1228 531 
L 3431 531 
L 3431 0 
L 469 0 
L 469 531 
Q 828 903 1448 1529 
Q 2069 2156 2228 2338 
Q 2531 2678 2651 2914 
Q 2772 3150 2772 3378 
Q 2772 3750 2511 3984 
Q 2250 4219 1831 4219 
Q 1534 4219 1204 4116 
Q 875 4013 500 3803 
L 500 4441 
Q 881 4594 1212 4672 
Q 1544 4750 1819 4750 
Q 2544 4750 2975 4387 
Q 3406 4025 3406 3419 
Q 3406 3131 3298 2873 
Q 3191 2616 2906 2266 
Q 2828 2175 2409 1742 
Q 1991 1309 1228 531 
z
" transform="scale(0.015625)"/>
       </defs>
       <use xlink:href="#DejaVuSans-30"/>
       <use xlink:href="#DejaVuSans-2e" x="63.623047"/>
       <use xlink:href="#DejaVuSans-32" x="95.410156"/>
      </g>
     </g>
    </g>
    <g id="xtick_3">
     <g id="line2d_3">
      <g>
       <use xlink:href="#m99cd2253a9" x="191.454545" y="333.490909" style="stroke: #000000; stroke-width: 0.8"/>
      </g>
     </g>
     <g id="text_3">
      <!-- 0.4 -->
      <g transform="translate(183.502983 348.089347)scale(0.1 -0.1)">
       <defs>
        <path id="DejaVuSans-34" d="M 2419 4116 
L 825 1625 
L 2419 1625 
L 2419 4116 
z
M 2253 4666 
L 3047 4666 
L 3047 1625 
L 3713 1625 
L 3713 1100 
L 3047 1100 
L 3047 0 
L 2419 0 
L 2419 1100 
L 313 1100 
L 313 1709 
L 2253 4666 
z
" transform="scale(0.015625)"/>
       </defs>
       <use xlink:href="#DejaVuSans-30"/>
       <use xlink:href="#DejaVuSans-2e" x="63.623047"/>
       <use xlink:href="#DejaVuSans-34" x="95.410156"/>
      </g>
     </g>
    </g>
    <g id="xtick_4">
     <g id="line2d_4">
      <g>
       <use xlink:href="#m99cd2253a9" x="242.181818" y="333.490909" style="stroke: #000000; stroke-width: 0.8"/>
      </g>
     </g>
     <g id="text_4">
      <!-- 0.6 -->
      <g transform="translate(234.230256 348.089347)scale(0.1 -0.1)">
       <defs>
        <path id="DejaVuSans-36" d="M 2113 2584 
Q 1688 2584 1439 2293 
Q 1191 2003 1191 1497 
Q 1191 994 1439 701 
Q 1688 409 2113 409 
Q 2538 409 2786 701 
Q 3034 994 3034 1497 
Q 3034 2003 2786 2293 
Q 2538 2584 2113 2584 
z
M 3366 4563 
L 3366 3988 
Q 3128 4100 2886 4159 
Q 2644 4219 2406 4219 
Q 1781 4219 1451 3797 
Q 1122 3375 1075 2522 
Q 1259 2794 1537 2939 
Q 1816 3084 2150 3084 
Q 2853 3084 3261 2657 
Q 3669 2231 3669 1497 
Q 3669 778 3244 343 
Q 2819 -91 2113 -91 
Q 1303 -91 875 529 
Q 447 1150 447 2328 
Q 447 3434 972 4092 
Q 1497 4750 2381 4750 
Q 2619 4750 2861 4703 
Q 3103 4656 3366 4563 
z
" transform="scale(0.015625)"/>
       </defs>
       <use xlink:href="#DejaVuSans-30"/>
       <use xlink:href="#DejaVuSans-2e" x="63.623047"/>
       <use xlink:href="#DejaVuSans-36" x="95.410156"/>
      </g>
     </g>
    </g>
    <g id="xtick_5">
     <g id="line2d_5">
      <g>
       <use xlink:href="#m99cd2253a9" x="292.909091" y="333.490909" style="stroke: #000000; stroke-width: 0.8"/>
      </g>
     </g>
     <g id="text_5">
      <!-- 0.8 -->
      <g transform="translate(284.957528 348.089347)scale(0.1 -0.1)">
       <defs>
        <path id="DejaVuSans-38" d="M 2034 2216 
Q 1584 2216 1326 1975 
Q 1069 1734 1069 1313 
Q 1069 891 1326 650 
Q 1584 409 2034 409 
Q 2484 409 2743 651 
Q 3003 894 3003 1313 
Q 3003 1734 2745 1975 
Q 2488 2216 2034 2216 
z
M 1403 2484 
Q 997 2584 770 2862 
Q 544 3141 544 3541 
Q 544 4100 942 4425 
Q 1341 4750 2034 4750 
Q 2731 4750 3128 4425 
Q 3525 4100 3525 3541 
Q 3525 3141 3298 2862 
Q 3072 2584 2669 2484 
Q 3125 2378 3379 2068 
Q 3634 1759 3634 1313 
Q 3634 634 3220 271 
Q 2806 -91 2034 -91 
Q 1263 -91 848 271 
Q 434 634 434 1313 
Q 434 1759 690 2068 
Q 947 2378 1403 2484 
z
M 1172 3481 
Q 1172 3119 1398 2916 
Q 1625 2713 2034 2713 
Q 2441 2713 2670 2916 
Q 2900 3119 2900 3481 
Q 2900 3844 2670 4047 
Q 2441 4250 2034 4250 
Q 1625 4250 1398 4047 
Q 1172 3844 1172 3481 
z
" transform="scale(0.015625)"/>
       </defs>
       <use xlink:href="#DejaVuSans-30"/>
       <use xlink:href="#DejaVuSans-2e" x="63.623047"/>
       <use xlink:href="#DejaVuSans-38" x="95.410156"/>
      </g>
     </g>
    </g>
    <g id="xtick_6">
     <g id="line2d_6">
      <g>
       <use xlink:href="#m99cd2253a9" x="343.636364" y="333.490909" style="stroke: #000000; stroke-width: 0.8"/>
      </g>
     </g>
     <g id="text_6">
      <!-- 1.0 -->
      <g transform="translate(335.684801 348.089347)scale(0.1 -0.1)">
       <defs>
        <path id="DejaVuSans-31" d="M 794 531 
L 1825 531 
L 1825 4091 
L 703 3866 
L 703 4441 
L 1819 4666 
L 2450 4666 
L 2450 531 
L 3481 531 
L 3481 0 
L 794 0 
L 794 531 
z
" transform="scale(0.015625)"/>
       </defs>
       <use xlink:href="#DejaVuSans-31"/>
       <use xlink:href="#DejaVuSans-2e" x="63.623047"/>
       <use xlink:href="#DejaVuSans-30" x="95.410156"/>
      </g>
     </g>
    </g>
   </g>
   <g id="matplotlib.axis_2">
    <g id="ytick_1">
     <g id="line2d_7">
      <defs>
       <path id="m155bf3ba7e" d="M 0 0 
L -3.5 0 
" style="stroke: #000000; stroke-width: 0.8"/>
      </defs>
      <g>
       <use xlink:href="#m155bf3ba7e" x="90" y="333.490909" style="stroke: #000000; stroke-width: 0.8"/>
      </g>
     </g>
     <g id="text_7">
      <!-- 0.0 -->
      <g transform="translate(67.096875 337.290128)scale(0.1 -0.1)">
       <use xlink:href="#DejaVuSans-30"/>
       <use xlink:href="#DejaVuSans-2e" x="63.623047"/>
       <use xlink:href="#DejaVuSans-30" x="95.410156"/>
      </g>
     </g>
    </g>
    <g id="ytick_2">
     <g id="line2d_8">
      <g>
       <use xlink:href="#m155bf3ba7e" x="90" y="284.072727" style="stroke: #000000; stroke-width: 0.8"/>
      </g>
     </g>
     <g id="text_8">
      <!-- 0.2 -->
      <g transform="translate(67.096875 287.871946)scale(0.1 -0.1)">
       <use xlink:href="#DejaVuSans-30"/>
       <use xlink:href="#DejaVuSans-2e" x="63.623047"/>
       <use xlink:href="#DejaVuSans-32" x="95.410156"/>
      </g>
     </g>
    </g>
    <g id="ytick_3">
     <g id="line2d_9">
      <g>
       <use xlink:href="#m155bf3ba7e" x="90" y="234.654545" style="stroke: #000000; stroke-width: 0.8"/>
      </g>
     </g>
     <g id="text_9">
      <!-- 0.4 -->
      <g transform="translate(67.096875 238.453764)scale(0.1 -0.1)">
       <use xlink:href="#DejaVuSans-30"/>
       <use xlink:href="#DejaVuSans-2e" x="63.623047"/>
       <use xlink:href="#DejaVuSans-34" x="95.410156"/>
      </g>
     </g>
    </g>
    <g id="ytick_4">
     <g id="line2d_10">
      <g>
       <use xlink:href="#m155bf3ba7e" x="90" y="185.236364" style="stroke: #000000; stroke-width: 0.8"/>
      </g>
     </g>
     <g id="text_10">
      <!-- 0.6 -->
      <g transform="translate(67.096875 189.035582)scale(0.1 -0.1)">
       <use xlink:href="#DejaVuSans-30"/>
       <use xlink:href="#DejaVuSans-2e" x="63.623047"/>
       <use xlink:href="#DejaVuSans-36" x="95.410156"/>
      </g>
     </g>
    </g>
    <g id="ytick_5">
     <g id="line2d_11">
      <g>
       <use xlink:href="#m155bf3ba7e" x="90" y="135.818182" style="stroke: #000000; stroke-width: 0.8"/>
      </g>
     </g>
     <g id="text_11">
      <!-- 0.8 -->
      <g transform="translate(67.096875 139.617401)scale(0.1 -0.1)">
       <use xlink:href="#DejaVuSans-30"/>
       <use xlink:href="#DejaVuSans-2e" x="63.623047"/>
       <use xlink:href="#DejaVuSans-38" x="95.410156"/>
      </g>
     </g>
    </g>
    <g id="ytick_6">
     <g id="line2d_12">
      <g>
       <use xlink:href="#m155bf3ba7e" x="90" y="86.4" style="stroke: #000000; stroke-width: 0.8"/>
      </g>
     </g>
     <g id="text_12">
      <!-- 1.0 -->
      <g transform="translate(67.096875 90.199219)scale(0.1 -0.1)">
       <use xlink:href="#DejaVuSans-31"/>
       <use xlink:href="#DejaVuSans-2e" x="63.623047"/>
       <use xlink:href="#DejaVuSans-30" x="95.410156"/>
      </g>
     </g>
    </g>
   </g>
   <g id="patch_3">
    <path d="M 90 333.490909 
L 90 86.4 
" style="fill: none; stroke: #000000; stroke-width: 0.8; stroke-linejoin: miter; stroke-linecap: square"/>
   </g>
   <g id="patch_4">
    <path d="M 343.636364 333.490909 
L 343.636364 86.4 
" style="fill: none; stroke: #000000; stroke-width: 0.8; stroke-linejoin: miter; stroke-linecap: square"/>
   </g>
   <g id="patch_5">
    <path d="M 90 333.490909 
L 343.636364 333.490909 
" style="fill: none; stroke: #000000; stroke-width: 0.8; stroke-linejoin: miter; stroke-linecap: square"/>
   </g>
   <g id="patch_6">
    <path d="M 90 86.4 
L 343.636364 86.4 
" style="fill: none; stroke: #000000; stroke-width: 0.8; stroke-linejoin: miter; stroke-linecap: square"/>
   </g>
  </g>
  <g id="axes_2">
   <g id="patch_7">
    <path d="M 394.363636 333.490909 
L 648 333.490909 
L 648 86.4 
L 394.363636 86.4 
z
" style="fill: #ffffff"/>
   </g>
   <g id="PolyCollection_1">
    <defs>
     <path id="m756dd56823" d="M 405.892562 -524.694039 
L 405.892562 -513.370641 
L 407.342741 -519.976572 
L 408.792921 -522.429107 
L 410.2431 -520.503064 
L 411.693279 -528.064326 
L 413.143459 -524.207791 
L 414.593638 -528.991555 
L 416.043817 -524.172382 
L 417.493997 -516.285092 
L 418.944176 -516.040579 
L 420.394355 -514.474393 
L 421.844535 -515.466344 
L 423.294714 -518.621132 
L 424.744893 -524.181534 
L 426.195073 -531.119147 
L 427.645252 -522.675667 
L 429.095431 -544.504931 
L 430.54561 -551.722706 
L 431.99579 -540.680846 
L 433.445969 -566.732756 
L 434.896148 -549.143264 
L 436.346328 -542.831754 
L 437.796507 -548.063797 
L 439.246686 -534.37126 
L 440.696866 -525.40088 
L 442.147045 -523.371269 
L 443.597224 -526.928778 
L 445.047404 -532.140145 
L 446.497583 -518.433634 
L 447.947762 -531.87354 
L 449.397942 -525.779331 
L 450.848121 -519.574094 
L 452.2983 -515.468602 
L 453.74848 -513.801555 
L 455.198659 -514.377695 
L 456.648838 -517.902064 
L 458.099018 -525.951482 
L 459.549197 -539.176649 
L 460.999376 -555.102388 
L 462.449556 -546.751028 
L 463.899735 -574.900775 
L 465.349914 -554.774137 
L 466.800094 -569.291737 
L 468.250273 -551.062004 
L 469.700452 -558.608582 
L 471.150632 -538.301881 
L 472.600811 -531.832783 
L 474.05099 -534.694033 
L 475.501169 -526.385225 
L 476.951349 -522.502017 
L 478.401528 -524.784451 
L 479.851707 -533.387865 
L 481.301887 -537.069946 
L 482.752066 -546.108085 
L 484.202245 -576.139139 
L 485.652425 -564.737269 
L 487.102604 -559.526627 
L 488.552783 -569.864391 
L 490.002963 -563.127899 
L 491.453142 -560.602496 
L 492.903321 -534.553504 
L 494.353501 -553.415816 
L 495.80368 -548.158906 
L 497.253859 -548.668028 
L 498.704039 -556.240732 
L 500.154218 -551.228102 
L 501.604397 -551.758356 
L 503.054577 -549.591526 
L 504.504756 -544.574121 
L 505.954935 -536.540058 
L 507.405115 -538.334352 
L 508.855294 -549.443835 
L 510.305473 -549.842842 
L 511.755653 -567.370224 
L 513.205832 -595.992907 
L 514.656011 -589.030658 
L 516.106191 -593.784968 
L 517.55637 -580.794241 
L 519.006549 -584.401704 
L 520.456729 -565.858221 
L 521.906908 -545.781818 
L 523.357087 -546.450483 
L 524.807266 -532.404744 
L 526.257446 -530.372049 
L 527.707625 -518.218257 
L 529.157804 -519.660567 
L 530.607984 -516.348864 
L 532.058163 -514.248423 
L 533.508342 -513.184651 
L 534.958522 -512.945706 
L 536.408701 -513.472294 
L 537.85888 -514.875132 
L 539.30906 -517.116144 
L 540.759239 -519.661953 
L 542.209418 -510.386373 
L 543.659598 -517.491714 
L 545.109777 -522.042177 
L 546.559956 -514.75921 
L 548.010136 -513.833971 
L 549.460315 -518.903941 
L 550.910494 -515.540786 
L 552.360674 -514.7041 
L 553.810853 -513.847306 
L 555.261032 -511.430154 
L 556.711212 -513.524173 
L 558.161391 -513.340118 
L 559.61157 -507.429398 
L 561.06175 -508.558693 
L 562.511929 -503.978302 
L 563.962108 -495.772098 
L 565.412288 -493.108261 
L 566.862467 -499.719258 
L 568.312646 -503.254741 
L 569.762826 -503.43344 
L 571.213005 -509.31618 
L 572.663184 -510.563527 
L 574.113363 -510.946991 
L 575.563543 -510.959384 
L 577.013722 -507.006343 
L 578.463901 -511.448707 
L 579.914081 -511.894514 
L 581.36426 -508.895386 
L 582.814439 -510.750574 
L 584.264619 -508.396174 
L 585.714798 -505.068805 
L 587.164977 -496.215237 
L 588.615157 -498.018129 
L 590.065336 -482.610194 
L 591.515515 -491.615462 
L 592.965695 -476.852148 
L 594.415874 -486.153872 
L 595.866053 -467.726426 
L 597.316233 -492.178265 
L 598.766412 -498.872419 
L 600.216591 -504.207251 
L 601.666771 -506.211627 
L 603.11695 -505.104048 
L 604.567129 -502.786391 
L 606.017309 -495.353205 
L 607.467488 -502.325737 
L 608.917667 -504.555955 
L 610.367847 -506.855964 
L 611.818026 -502.987052 
L 613.268205 -509.809245 
L 614.718385 -510.820117 
L 616.168564 -511.593737 
L 617.618743 -512.072892 
L 619.068923 -512.314075 
L 620.519102 -512.476307 
L 621.969281 -512.803472 
L 623.41946 -513.662441 
L 624.86964 -515.445364 
L 626.319819 -518.163489 
L 627.769998 -521.081022 
L 629.220178 -510.063871 
L 630.670357 -524.140612 
L 632.120536 -524.87446 
L 633.570716 -526.109113 
L 635.020895 -518.343104 
L 636.471074 -528.541627 
L 636.471074 -528.541627 
L 636.471074 -528.541627 
L 635.020895 -536.825286 
L 633.570716 -526.109113 
L 632.120536 -524.87446 
L 630.670357 -524.140612 
L 629.220178 -536.243833 
L 627.769998 -521.081022 
L 626.319819 -518.163489 
L 624.86964 -515.445364 
L 623.41946 -513.662441 
L 621.969281 -512.803472 
L 620.519102 -512.476307 
L 619.068923 -512.314075 
L 617.618743 -512.072892 
L 616.168564 -511.593737 
L 614.718385 -510.820117 
L 613.268205 -509.809245 
L 611.818026 -514.141589 
L 610.367847 -506.855964 
L 608.917667 -504.555955 
L 607.467488 -502.325737 
L 606.017309 -507.665397 
L 604.567129 -502.786391 
L 603.11695 -505.104048 
L 601.666771 -506.211627 
L 600.216591 -504.207251 
L 598.766412 -498.872419 
L 597.316233 -492.178265 
L 595.866053 -506.819598 
L 594.415874 -486.153872 
L 592.965695 -499.672239 
L 591.515515 -491.615462 
L 590.065336 -507.156427 
L 588.615157 -498.018129 
L 587.164977 -506.627707 
L 585.714798 -505.068805 
L 584.264619 -508.396174 
L 582.814439 -510.750574 
L 581.36426 -514.792821 
L 579.914081 -511.894514 
L 578.463901 -511.448707 
L 577.013722 -515.113853 
L 575.563543 -510.959384 
L 574.113363 -510.946991 
L 572.663184 -510.563527 
L 571.213005 -509.31618 
L 569.762826 -510.240855 
L 568.312646 -503.254741 
L 566.862467 -499.719258 
L 565.412288 -503.211477 
L 563.962108 -503.860116 
L 562.511929 -503.978302 
L 561.06175 -508.558693 
L 559.61157 -516.205653 
L 558.161391 -513.340118 
L 556.711212 -513.865559 
L 555.261032 -515.891075 
L 553.810853 -513.847306 
L 552.360674 -514.7041 
L 550.910494 -517.397362 
L 549.460315 -518.903941 
L 548.010136 -528.65381 
L 546.559956 -530.714557 
L 545.109777 -524.387662 
L 543.659598 -528.263834 
L 542.209418 -533.05247 
L 540.759239 -519.661953 
L 539.30906 -517.116144 
L 537.85888 -514.875132 
L 536.408701 -513.472294 
L 534.958522 -512.945706 
L 533.508342 -513.184651 
L 532.058163 -514.248423 
L 530.607984 -516.348864 
L 529.157804 -519.660567 
L 527.707625 -530.369037 
L 526.257446 -530.372049 
L 524.807266 -543.307986 
L 523.357087 -546.450483 
L 521.906908 -566.952337 
L 520.456729 -571.942199 
L 519.006549 -584.401704 
L 517.55637 -617.786887 
L 516.106191 -621.111454 
L 514.656011 -622.368595 
L 513.205832 -595.992907 
L 511.755653 -596.292899 
L 510.305473 -581.069844 
L 508.855294 -549.443835 
L 507.405115 -538.334352 
L 505.954935 -536.540058 
L 504.504756 -544.574121 
L 503.054577 -564.778787 
L 501.604397 -579.789872 
L 500.154218 -578.137202 
L 498.704039 -556.240732 
L 497.253859 -548.668028 
L 495.80368 -548.158906 
L 494.353501 -553.415816 
L 492.903321 -582.434902 
L 491.453142 -560.602496 
L 490.002963 -563.127899 
L 488.552783 -569.864391 
L 487.102604 -597.336358 
L 485.652425 -599.133312 
L 484.202245 -576.139139 
L 482.752066 -579.532265 
L 481.301887 -556.984612 
L 479.851707 -533.387865 
L 478.401528 -524.784451 
L 476.951349 -522.502017 
L 475.501169 -526.385225 
L 474.05099 -534.694033 
L 472.600811 -556.898119 
L 471.150632 -566.859784 
L 469.700452 -558.608582 
L 468.250273 -576.491246 
L 466.800094 -569.291737 
L 465.349914 -593.454849 
L 463.899735 -574.900775 
L 462.449556 -590.192499 
L 460.999376 -555.102388 
L 459.549197 -539.176649 
L 458.099018 -525.951482 
L 456.648838 -517.902064 
L 455.198659 -514.377695 
L 453.74848 -513.801555 
L 452.2983 -515.468602 
L 450.848121 -519.574094 
L 449.397942 -525.779331 
L 447.947762 -531.87354 
L 446.497583 -550.587134 
L 445.047404 -532.140145 
L 443.597224 -526.928778 
L 442.147045 -523.371269 
L 440.696866 -525.40088 
L 439.246686 -534.37126 
L 437.796507 -548.063797 
L 436.346328 -579.397644 
L 434.896148 -586.811625 
L 433.445969 -566.732756 
L 431.99579 -579.174221 
L 430.54561 -551.722706 
L 429.095431 -544.504931 
L 427.645252 -553.301652 
L 426.195073 -531.119147 
L 424.744893 -524.181534 
L 423.294714 -518.621132 
L 421.844535 -515.466344 
L 420.394355 -514.959524 
L 418.944176 -516.040579 
L 417.493997 -522.371835 
L 416.043817 -524.172382 
L 414.593638 -528.991555 
L 413.143459 -538.607551 
L 411.693279 -532.241219 
L 410.2431 -532.202955 
L 408.792921 -522.429107 
L 407.342741 -519.976572 
L 405.892562 -524.694039 
z
" style="stroke: #9467bd; stroke-opacity: 0.2"/>
    </defs>
    <g clip-path="url(#p23990a92c2)">
     <use xlink:href="#m756dd56823" x="0" y="720" style="fill: #9467bd; fill-opacity: 0.2; stroke: #9467bd; stroke-opacity: 0.2"/>
    </g>
   </g>
   <g id="PolyCollection_2">
    <defs>
     <path id="m8c09ccb7a9" d="M 405.892562 -512.399664 
L 405.892562 -512.399664 
L 407.342741 -512.399664 
L 408.792921 -512.399664 
L 410.2431 -512.399664 
L 411.693279 -512.399664 
L 413.143459 -512.399664 
L 414.593638 -512.399664 
L 416.043817 -512.399664 
L 417.493997 -512.399664 
L 418.944176 -512.399664 
L 420.394355 -512.399664 
L 421.844535 -512.399664 
L 423.294714 -512.399664 
L 424.744893 -512.399664 
L 426.195073 -512.399664 
L 427.645252 -512.399664 
L 429.095431 -512.399664 
L 430.54561 -512.399664 
L 431.99579 -512.399664 
L 433.445969 -512.399664 
L 434.896148 -512.399664 
L 436.346328 -512.399664 
L 437.796507 -512.399664 
L 439.246686 -512.399664 
L 440.696866 -512.399664 
L 442.147045 -512.399664 
L 443.597224 -512.399664 
L 445.047404 -512.399664 
L 446.497583 -512.399664 
L 447.947762 -512.399664 
L 449.397942 -512.399664 
L 450.848121 -512.399664 
L 452.2983 -512.399664 
L 453.74848 -512.399664 
L 455.198659 -512.399664 
L 456.648838 -512.399664 
L 458.099018 -512.399664 
L 459.549197 -512.399664 
L 460.999376 -512.399664 
L 462.449556 -512.399664 
L 463.899735 -512.399664 
L 465.349914 -512.399664 
L 466.800094 -512.399664 
L 468.250273 -512.399664 
L 469.700452 -512.399664 
L 471.150632 -512.399664 
L 472.600811 -512.399664 
L 474.05099 -512.399664 
L 475.501169 -512.399664 
L 476.951349 -512.399664 
L 478.401528 -512.399664 
L 479.851707 -512.399664 
L 481.301887 -512.399664 
L 482.752066 -512.399664 
L 484.202245 -512.399664 
L 485.652425 -512.399664 
L 487.102604 -512.399664 
L 488.552783 -512.399664 
L 490.002963 -512.399664 
L 491.453142 -512.399664 
L 492.903321 -512.399664 
L 494.353501 -512.399664 
L 495.80368 -512.399664 
L 497.253859 -512.399664 
L 498.704039 -512.399664 
L 500.154218 -512.399664 
L 501.604397 -512.399664 
L 503.054577 -512.399664 
L 504.504756 -512.399664 
L 505.954935 -512.399664 
L 507.405115 -512.399664 
L 508.855294 -512.399664 
L 510.305473 -512.399664 
L 511.755653 -512.399664 
L 513.205832 -512.399664 
L 514.656011 -512.399664 
L 516.106191 -512.399664 
L 517.55637 -512.399664 
L 519.006549 -512.399664 
L 520.456729 -512.399664 
L 521.906908 -512.399664 
L 523.357087 -512.399664 
L 524.807266 -512.399664 
L 526.257446 -512.399664 
L 527.707625 -512.399664 
L 529.157804 -512.399664 
L 530.607984 -512.399664 
L 532.058163 -512.399664 
L 533.508342 -512.399664 
L 534.958522 -512.399664 
L 536.408701 -512.399664 
L 537.85888 -512.399664 
L 539.30906 -512.399664 
L 540.759239 -512.399664 
L 542.209418 -512.399664 
L 543.659598 -512.399664 
L 545.109777 -512.399664 
L 546.559956 -512.399664 
L 548.010136 -512.399664 
L 549.460315 -512.399664 
L 550.910494 -512.399664 
L 552.360674 -512.399664 
L 553.810853 -512.399664 
L 555.261032 -512.399664 
L 556.711212 -512.399664 
L 558.161391 -512.399664 
L 559.61157 -512.399664 
L 561.06175 -512.399664 
L 562.511929 -512.399664 
L 563.962108 -512.399664 
L 565.412288 -512.399664 
L 566.862467 -512.399664 
L 568.312646 -512.399664 
L 569.762826 -512.399664 
L 571.213005 -512.399664 
L 572.663184 -512.399664 
L 574.113363 -512.399664 
L 575.563543 -512.399664 
L 577.013722 -512.399664 
L 578.463901 -512.399664 
L 579.914081 -512.399664 
L 581.36426 -512.399664 
L 582.814439 -512.399664 
L 584.264619 -512.399664 
L 585.714798 -512.399664 
L 587.164977 -512.399664 
L 588.615157 -512.399664 
L 590.065336 -512.399664 
L 591.515515 -512.399664 
L 592.965695 -512.399664 
L 594.415874 -512.399664 
L 595.866053 -512.399664 
L 597.316233 -512.399664 
L 598.766412 -512.399664 
L 600.216591 -512.399664 
L 601.666771 -512.399664 
L 603.11695 -512.399664 
L 604.567129 -512.399664 
L 606.017309 -512.399664 
L 607.467488 -512.399664 
L 608.917667 -512.399664 
L 610.367847 -512.399664 
L 611.818026 -512.399664 
L 613.268205 -512.399664 
L 614.718385 -512.399664 
L 616.168564 -512.399664 
L 617.618743 -512.399664 
L 619.068923 -512.399664 
L 620.519102 -512.399664 
L 621.969281 -512.399664 
L 623.41946 -512.399664 
L 624.86964 -512.399664 
L 626.319819 -512.399664 
L 627.769998 -512.399664 
L 629.220178 -512.399664 
L 630.670357 -512.399664 
L 632.120536 -512.399664 
L 633.570716 -512.399664 
L 635.020895 -512.399664 
L 636.471074 -512.399664 
L 636.471074 -512.399664 
L 636.471074 -512.399664 
L 635.020895 -512.399664 
L 633.570716 -512.399664 
L 632.120536 -512.399664 
L 630.670357 -512.399664 
L 629.220178 -512.399664 
L 627.769998 -512.399664 
L 626.319819 -512.399664 
L 624.86964 -512.399664 
L 623.41946 -512.399664 
L 621.969281 -512.399664 
L 620.519102 -512.399664 
L 619.068923 -512.399664 
L 617.618743 -512.399664 
L 616.168564 -512.399664 
L 614.718385 -512.399664 
L 613.268205 -512.399664 
L 611.818026 -512.399664 
L 610.367847 -512.399664 
L 608.917667 -512.399664 
L 607.467488 -512.399664 
L 606.017309 -512.399664 
L 604.567129 -512.399664 
L 603.11695 -512.399664 
L 601.666771 -512.399664 
L 600.216591 -512.399664 
L 598.766412 -512.399664 
L 597.316233 -512.399664 
L 595.866053 -512.399664 
L 594.415874 -512.399664 
L 592.965695 -512.399664 
L 591.515515 -512.399664 
L 590.065336 -512.399664 
L 588.615157 -512.399664 
L 587.164977 -512.399664 
L 585.714798 -512.399664 
L 584.264619 -512.399664 
L 582.814439 -512.399664 
L 581.36426 -512.399664 
L 579.914081 -512.399664 
L 578.463901 -512.399664 
L 577.013722 -512.399664 
L 575.563543 -512.399664 
L 574.113363 -512.399664 
L 572.663184 -512.399664 
L 571.213005 -512.399664 
L 569.762826 -512.399664 
L 568.312646 -512.399664 
L 566.862467 -512.399664 
L 565.412288 -512.399664 
L 563.962108 -512.399664 
L 562.511929 -512.399664 
L 561.06175 -512.399664 
L 559.61157 -512.399664 
L 558.161391 -512.399664 
L 556.711212 -512.399664 
L 555.261032 -512.399664 
L 553.810853 -512.399664 
L 552.360674 -512.399664 
L 550.910494 -512.399664 
L 549.460315 -512.399664 
L 548.010136 -512.399664 
L 546.559956 -512.399664 
L 545.109777 -512.399664 
L 543.659598 -512.399664 
L 542.209418 -512.399664 
L 540.759239 -512.399664 
L 539.30906 -512.399664 
L 537.85888 -512.399664 
L 536.408701 -512.399664 
L 534.958522 -512.399664 
L 533.508342 -512.399664 
L 532.058163 -512.399664 
L 530.607984 -512.399664 
L 529.157804 -512.399664 
L 527.707625 -512.399664 
L 526.257446 -512.399664 
L 524.807266 -512.399664 
L 523.357087 -512.399664 
L 521.906908 -512.399664 
L 520.456729 -512.399664 
L 519.006549 -512.399664 
L 517.55637 -512.399664 
L 516.106191 -512.399664 
L 514.656011 -512.399664 
L 513.205832 -512.399664 
L 511.755653 -512.399664 
L 510.305473 -512.399664 
L 508.855294 -512.399664 
L 507.405115 -512.399664 
L 505.954935 -512.399664 
L 504.504756 -512.399664 
L 503.054577 -512.399664 
L 501.604397 -512.399664 
L 500.154218 -512.399664 
L 498.704039 -512.399664 
L 497.253859 -512.399664 
L 495.80368 -512.399664 
L 494.353501 -512.399664 
L 492.903321 -512.399664 
L 491.453142 -512.399664 
L 490.002963 -512.399664 
L 488.552783 -512.399664 
L 487.102604 -512.399664 
L 485.652425 -512.399664 
L 484.202245 -512.399664 
L 482.752066 -512.399664 
L 481.301887 -512.399664 
L 479.851707 -512.399664 
L 478.401528 -512.399664 
L 476.951349 -512.399664 
L 475.501169 -512.399664 
L 474.05099 -512.399664 
L 472.600811 -512.399664 
L 471.150632 -512.399664 
L 469.700452 -512.399664 
L 468.250273 -512.399664 
L 466.800094 -512.399664 
L 465.349914 -512.399664 
L 463.899735 -512.399664 
L 462.449556 -512.399664 
L 460.999376 -512.399664 
L 459.549197 -512.399664 
L 458.099018 -512.399664 
L 456.648838 -512.399664 
L 455.198659 -512.399664 
L 453.74848 -512.399664 
L 452.2983 -512.399664 
L 450.848121 -512.399664 
L 449.397942 -512.399664 
L 447.947762 -512.399664 
L 446.497583 -512.399664 
L 445.047404 -512.399664 
L 443.597224 -512.399664 
L 442.147045 -512.399664 
L 440.696866 -512.399664 
L 439.246686 -512.399664 
L 437.796507 -512.399664 
L 436.346328 -512.399664 
L 434.896148 -512.399664 
L 433.445969 -512.399664 
L 431.99579 -512.399664 
L 430.54561 -512.399664 
L 429.095431 -512.399664 
L 427.645252 -512.399664 
L 426.195073 -512.399664 
L 424.744893 -512.399664 
L 423.294714 -512.399664 
L 421.844535 -512.399664 
L 420.394355 -512.399664 
L 418.944176 -512.399664 
L 417.493997 -512.399664 
L 416.043817 -512.399664 
L 414.593638 -512.399664 
L 413.143459 -512.399664 
L 411.693279 -512.399664 
L 410.2431 -512.399664 
L 408.792921 -512.399664 
L 407.342741 -512.399664 
L 405.892562 -512.399664 
z
" style="stroke: #1f77b4; stroke-opacity: 0.2"/>
    </defs>
    <g clip-path="url(#p23990a92c2)">
     <use xlink:href="#m8c09ccb7a9" x="0" y="720" style="fill: #1f77b4; fill-opacity: 0.2; stroke: #1f77b4; stroke-opacity: 0.2"/>
    </g>
   </g>
   <g id="PolyCollection_3">
    <defs>
     <path id="m79d7b55c35" d="M 405.892562 -512.372117 
L 405.892562 -512.372117 
L 407.342741 -512.27837 
L 408.792921 -511.919935 
L 410.2431 -510.9176 
L 411.693279 -508.826262 
L 413.143459 -505.631671 
L 414.593638 -502.18843 
L 416.043817 -491.581146 
L 417.493997 -498.510747 
L 418.944176 -497.830991 
L 420.394355 -497.293238 
L 421.844535 -487.688505 
L 423.294714 -500.358253 
L 424.744893 -504.332149 
L 426.195073 -508.122475 
L 427.645252 -510.613385 
L 429.095431 -511.761604 
L 430.54561 -511.937037 
L 431.99579 -511.110807 
L 433.445969 -508.492618 
L 434.896148 -502.93121 
L 436.346328 -494.289123 
L 437.796507 -484.751779 
L 439.246686 -460.399828 
L 440.696866 -476.191941 
L 442.147045 -479.055659 
L 443.597224 -471.384041 
L 445.047404 -492.50512 
L 446.497583 -500.127192 
L 447.947762 -506.184869 
L 449.397942 -509.878696 
L 450.848121 -511.591921 
L 452.2983 -512.197856 
L 453.74848 -512.359926 
L 455.198659 -512.39357 
L 456.648838 -512.399664 
L 458.099018 -512.399664 
L 459.549197 -512.399664 
L 460.999376 -512.399664 
L 462.449556 -512.399664 
L 463.899735 -512.399664 
L 465.349914 -512.399664 
L 466.800094 -512.395196 
L 468.250273 -512.370529 
L 469.700452 -512.251702 
L 471.150632 -511.814461 
L 472.600811 -510.597113 
L 474.05099 -508.075569 
L 475.501169 -504.321191 
L 476.951349 -500.645555 
L 478.401528 -488.931525 
L 479.851707 -500.582113 
L 481.301887 -503.98342 
L 482.752066 -506.64739 
L 484.202245 -505.831061 
L 485.652425 -499.151698 
L 487.102604 -485.191436 
L 488.552783 -465.158821 
L 490.002963 -424.319196 
L 491.453142 -411.430701 
L 492.903321 -419.028632 
L 494.353501 -397.740496 
L 495.80368 -421.079724 
L 497.253859 -460.216119 
L 498.704039 -482.180284 
L 500.154218 -498.217598 
L 501.604397 -507.068246 
L 503.054577 -510.806875 
L 504.504756 -512.023971 
L 505.954935 -512.329411 
L 507.405115 -512.390902 
L 508.855294 -512.399664 
L 510.305473 -512.399664 
L 511.755653 -512.399664 
L 513.205832 -512.399664 
L 514.656011 -512.399664 
L 516.106191 -512.399664 
L 517.55637 -512.399664 
L 519.006549 -512.397319 
L 520.456729 -512.38437 
L 521.906908 -512.321997 
L 523.357087 -512.092483 
L 524.807266 -511.45348 
L 526.257446 -510.129281 
L 527.707625 -508.155775 
L 529.157804 -506.2095 
L 530.607984 -496.69887 
L 532.058163 -505.930562 
L 533.508342 -507.291552 
L 534.958522 -508.013216 
L 536.408701 -507.120579 
L 537.85888 -499.879071 
L 539.30906 -499.428659 
L 540.759239 -492.325986 
L 542.209418 -502.990109 
L 543.659598 -506.835326 
L 545.109777 -511.576674 
L 546.559956 -516.163076 
L 548.010136 -519.800249 
L 549.460315 -514.51601 
L 550.910494 -521.728397 
L 552.360674 -520.334674 
L 553.810853 -515.759819 
L 555.261032 -517.485537 
L 556.711212 -517.60728 
L 558.161391 -519.057881 
L 559.61157 -520.931971 
L 561.06175 -516.16402 
L 562.511929 -520.261512 
L 563.962108 -516.837132 
L 565.412288 -511.731828 
L 566.862467 -504.46934 
L 568.312646 -494.674537 
L 569.762826 -484.29454 
L 571.213005 -469.184232 
L 572.663184 -471.363153 
L 574.113363 -487.855339 
L 575.563543 -499.292739 
L 577.013722 -509.004446 
L 578.463901 -509.614624 
L 579.914081 -518.073422 
L 581.36426 -519.040872 
L 582.814439 -512.792635 
L 584.264619 -517.38884 
L 585.714798 -515.639115 
L 587.164977 -514.084881 
L 588.615157 -513.09257 
L 590.065336 -512.623146 
L 591.515515 -512.462143 
L 592.965695 -512.451853 
L 594.415874 -512.610228 
L 595.866053 -513.225751 
L 597.316233 -514.944191 
L 598.766412 -518.503668 
L 600.216591 -523.803444 
L 601.666771 -528.992066 
L 603.11695 -514.651085 
L 604.567129 -528.992066 
L 606.017309 -523.803444 
L 607.467488 -518.503668 
L 608.917667 -514.944191 
L 610.367847 -513.222489 
L 611.818026 -512.587258 
L 613.268205 -512.332755 
L 614.718385 -511.976936 
L 616.168564 -511.072161 
L 617.618743 -509.184774 
L 619.068923 -506.27332 
L 620.519102 -503.115837 
L 621.969281 -488.58651 
L 623.41946 -500.673992 
L 624.86964 -501.927707 
L 626.319819 -496.397192 
L 627.769998 -506.510192 
L 629.220178 -508.829184 
L 630.670357 -510.609202 
L 632.120536 -511.677051 
L 633.570716 -512.16871 
L 635.020895 -512.342095 
L 636.471074 -512.38659 
L 636.471074 -512.38659 
L 636.471074 -512.38659 
L 635.020895 -512.342095 
L 633.570716 -512.16871 
L 632.120536 -511.677051 
L 630.670357 -510.609202 
L 629.220178 -508.829184 
L 627.769998 -506.510192 
L 626.319819 -511.723027 
L 624.86964 -501.927707 
L 623.41946 -500.673992 
L 621.969281 -513.397502 
L 620.519102 -503.115837 
L 619.068923 -506.27332 
L 617.618743 -509.184774 
L 616.168564 -511.072161 
L 614.718385 -511.976936 
L 613.268205 -512.332755 
L 611.818026 -512.587258 
L 610.367847 -513.222489 
L 608.917667 -514.944191 
L 607.467488 -518.503668 
L 606.017309 -523.803444 
L 604.567129 -528.992066 
L 603.11695 -547.751551 
L 601.666771 -528.992066 
L 600.216591 -523.803444 
L 598.766412 -518.503668 
L 597.316233 -514.944191 
L 595.866053 -513.225751 
L 594.415874 -512.610228 
L 592.965695 -512.451853 
L 591.515515 -512.462143 
L 590.065336 -512.623146 
L 588.615157 -513.09257 
L 587.164977 -514.084881 
L 585.714798 -515.639115 
L 584.264619 -517.38884 
L 582.814439 -524.593988 
L 581.36426 -519.040872 
L 579.914081 -518.073422 
L 578.463901 -520.593087 
L 577.013722 -509.004446 
L 575.563543 -499.292739 
L 574.113363 -487.855339 
L 572.663184 -487.109792 
L 571.213005 -486.563381 
L 569.762826 -484.29454 
L 568.312646 -494.674537 
L 566.862467 -504.46934 
L 565.412288 -511.731828 
L 563.962108 -516.837132 
L 562.511929 -520.261512 
L 561.06175 -527.176806 
L 559.61157 -520.931971 
L 558.161391 -519.057881 
L 556.711212 -517.60728 
L 555.261032 -517.485537 
L 553.810853 -521.459241 
L 552.360674 -520.334674 
L 550.910494 -521.728397 
L 549.460315 -528.975685 
L 548.010136 -519.800249 
L 546.559956 -516.163076 
L 545.109777 -511.576674 
L 543.659598 -506.835326 
L 542.209418 -502.990109 
L 540.759239 -510.258032 
L 539.30906 -504.996227 
L 537.85888 -509.62359 
L 536.408701 -507.120579 
L 534.958522 -508.013216 
L 533.508342 -507.291552 
L 532.058163 -505.930562 
L 530.607984 -513.945629 
L 529.157804 -506.2095 
L 527.707625 -508.155775 
L 526.257446 -510.129281 
L 524.807266 -511.45348 
L 523.357087 -512.092483 
L 521.906908 -512.321997 
L 520.456729 -512.38437 
L 519.006549 -512.397319 
L 517.55637 -512.399664 
L 516.106191 -512.399664 
L 514.656011 -512.399664 
L 513.205832 -512.399664 
L 511.755653 -512.399664 
L 510.305473 -512.399664 
L 508.855294 -512.399664 
L 507.405115 -512.390902 
L 505.954935 -512.329411 
L 504.504756 -512.023971 
L 503.054577 -510.806875 
L 501.604397 -507.068246 
L 500.154218 -498.217598 
L 498.704039 -482.180284 
L 497.253859 -460.216119 
L 495.80368 -455.037462 
L 494.353501 -448.055246 
L 492.903321 -419.028632 
L 491.453142 -442.082739 
L 490.002963 -463.03436 
L 488.552783 -465.158821 
L 487.102604 -485.191436 
L 485.652425 -499.151698 
L 484.202245 -505.831061 
L 482.752066 -506.64739 
L 481.301887 -503.98342 
L 479.851707 -500.582113 
L 478.401528 -509.213359 
L 476.951349 -500.645555 
L 475.501169 -504.321191 
L 474.05099 -508.075569 
L 472.600811 -510.597113 
L 471.150632 -511.814461 
L 469.700452 -512.251702 
L 468.250273 -512.370529 
L 466.800094 -512.395196 
L 465.349914 -512.399664 
L 463.899735 -512.399664 
L 462.449556 -512.399664 
L 460.999376 -512.399664 
L 459.549197 -512.399664 
L 458.099018 -512.399664 
L 456.648838 -512.399664 
L 455.198659 -512.39357 
L 453.74848 -512.359926 
L 452.2983 -512.197856 
L 450.848121 -511.591921 
L 449.397942 -509.878696 
L 447.947762 -506.184869 
L 446.497583 -500.127192 
L 445.047404 -492.50512 
L 443.597224 -498.549559 
L 442.147045 -479.055659 
L 440.696866 -476.191941 
L 439.246686 -495.517529 
L 437.796507 -484.751779 
L 436.346328 -494.289123 
L 434.896148 -502.93121 
L 433.445969 -508.492618 
L 431.99579 -511.110807 
L 430.54561 -511.937037 
L 429.095431 -511.761604 
L 427.645252 -510.613385 
L 426.195073 -508.122475 
L 424.744893 -504.332149 
L 423.294714 -500.358253 
L 421.844535 -507.953281 
L 420.394355 -497.293238 
L 418.944176 -497.830991 
L 417.493997 -498.510747 
L 416.043817 -507.834942 
L 414.593638 -502.18843 
L 413.143459 -505.631671 
L 411.693279 -508.826262 
L 410.2431 -510.9176 
L 408.792921 -511.919935 
L 407.342741 -512.27837 
L 405.892562 -512.372117 
z
" style="stroke: #d62728; stroke-opacity: 0.2"/>
    </defs>
    <g clip-path="url(#p23990a92c2)">
     <use xlink:href="#m79d7b55c35" x="0" y="720" style="fill: #d62728; fill-opacity: 0.2; stroke: #d62728; stroke-opacity: 0.2"/>
    </g>
   </g>
   <g id="PolyCollection_4">
    <defs>
     <path id="ma7c6ac1d27" d="M 405.892562 -512.399664 
L 405.892562 -512.399664 
L 407.342741 -512.402083 
L 408.792921 -512.415439 
L 410.2431 -512.479778 
L 411.693279 -512.71652 
L 413.143459 -513.375649 
L 414.593638 -514.74093 
L 416.043817 -516.773724 
L 417.493997 -518.763884 
L 418.944176 -511.233553 
L 420.394355 -518.763884 
L 421.844535 -516.771092 
L 423.294714 -514.723769 
L 424.744893 -513.288498 
L 426.195073 -512.371832 
L 427.645252 -511.418065 
L 429.095431 -509.868523 
L 430.54561 -507.643818 
L 431.99579 -505.476429 
L 433.445969 -491.593487 
L 434.896148 -505.476429 
L 436.346328 -507.641399 
L 437.796507 -509.852748 
L 439.246686 -511.337952 
L 440.696866 -512.047324 
L 442.147045 -512.259827 
L 443.597224 -512.110925 
L 445.047404 -511.300378 
L 446.497583 -508.933684 
L 447.947762 -503.799233 
L 449.397942 -495.587472 
L 450.848121 -486.367182 
L 452.2983 -460.648949 
L 453.74848 -468.317107 
L 455.198659 -485.585161 
L 456.648838 -483.565503 
L 458.099018 -500.963569 
L 459.549197 -506.3879 
L 460.999376 -509.701401 
L 462.449556 -511.390405 
L 463.899735 -512.09233 
L 465.349914 -512.325699 
L 466.800094 -512.385648 
L 468.250273 -512.397515 
L 469.700452 -512.399664 
L 471.150632 -512.399664 
L 472.600811 -512.399664 
L 474.05099 -512.399664 
L 475.501169 -512.399664 
L 476.951349 -512.399664 
L 478.401528 -512.399664 
L 479.851707 -512.399664 
L 481.301887 -512.399664 
L 482.752066 -512.399664 
L 484.202245 -512.399664 
L 485.652425 -512.397264 
L 487.102604 -512.384015 
L 488.552783 -512.320191 
L 490.002963 -512.085342 
L 491.453142 -511.431485 
L 492.903321 -510.077124 
L 494.353501 -508.060588 
L 495.80368 -506.086345 
L 497.253859 -493.40096 
L 498.704039 -506.086345 
L 500.154218 -508.060588 
L 501.604397 -510.077124 
L 503.054577 -511.431485 
L 504.504756 -512.085342 
L 505.954935 -512.320191 
L 507.405115 -512.384015 
L 508.855294 -512.397264 
L 510.305473 -512.399664 
L 511.755653 -512.399664 
L 513.205832 -512.399664 
L 514.656011 -512.399664 
L 516.106191 -512.399664 
L 517.55637 -512.399664 
L 519.006549 -512.399664 
L 520.456729 -512.399664 
L 521.906908 -512.399664 
L 523.357087 -512.399664 
L 524.807266 -512.399664 
L 526.257446 -512.399664 
L 527.707625 -512.399664 
L 529.157804 -512.399664 
L 530.607984 -512.399664 
L 532.058163 -512.399664 
L 533.508342 -512.399664 
L 534.958522 -512.399664 
L 536.408701 -512.399664 
L 537.85888 -512.399664 
L 539.30906 -512.399664 
L 540.759239 -512.394539 
L 542.209418 -512.366244 
L 543.659598 -512.229941 
L 545.109777 -511.728395 
L 546.559956 -510.332009 
L 548.010136 -507.439617 
L 549.460315 -503.133076 
L 550.910494 -498.916858 
L 552.360674 -484.623143 
L 553.810853 -498.916858 
L 555.261032 -503.133076 
L 556.711212 -507.439617 
L 558.161391 -510.332009 
L 559.61157 -511.728395 
L 561.06175 -512.229941 
L 562.511929 -512.366244 
L 563.962108 -512.394539 
L 565.412288 -512.399664 
L 566.862467 -512.399664 
L 568.312646 -512.399664 
L 569.762826 -512.399664 
L 571.213005 -512.399664 
L 572.663184 -512.399664 
L 574.113363 -512.399664 
L 575.563543 -512.399664 
L 577.013722 -512.399664 
L 578.463901 -512.399664 
L 579.914081 -512.399664 
L 581.36426 -512.399664 
L 582.814439 -512.399664 
L 584.264619 -512.399664 
L 585.714798 -512.399664 
L 587.164977 -512.399664 
L 588.615157 -512.399664 
L 590.065336 -512.399664 
L 591.515515 -512.399664 
L 592.965695 -512.399664 
L 594.415874 -512.399664 
L 595.866053 -512.399664 
L 597.316233 -512.398782 
L 598.766412 -512.39391 
L 600.216591 -512.370442 
L 601.666771 -512.284087 
L 603.11695 -512.04366 
L 604.567129 -511.545655 
L 606.017309 -510.804165 
L 607.467488 -510.078227 
L 608.917667 -506.060567 
L 610.367847 -510.078227 
L 611.818026 -510.804165 
L 613.268205 -511.545655 
L 614.718385 -512.04366 
L 616.168564 -512.284087 
L 617.618743 -512.370442 
L 619.068923 -512.391269 
L 620.519102 -512.38156 
L 621.969281 -512.312206 
L 623.41946 -512.053762 
L 624.86964 -511.334211 
L 626.319819 -509.843774 
L 627.769998 -507.624633 
L 629.220178 -505.452035 
L 630.670357 -492.958356 
L 632.120536 -505.449394 
L 633.570716 -507.607411 
L 635.020895 -509.756316 
L 636.471074 -510.988309 
L 636.471074 -510.988309 
L 636.471074 -510.988309 
L 635.020895 -509.756316 
L 633.570716 -507.607411 
L 632.120536 -505.449394 
L 630.670357 -516.095581 
L 629.220178 -505.452035 
L 627.769998 -507.624633 
L 626.319819 -509.843774 
L 624.86964 -511.334211 
L 623.41946 -512.053762 
L 621.969281 -512.312206 
L 620.519102 -512.38156 
L 619.068923 -512.391269 
L 617.618743 -512.370442 
L 616.168564 -512.284087 
L 614.718385 -512.04366 
L 613.268205 -511.545655 
L 611.818026 -510.804165 
L 610.367847 -510.078227 
L 608.917667 -513.477696 
L 607.467488 -510.078227 
L 606.017309 -510.804165 
L 604.567129 -511.545655 
L 603.11695 -512.04366 
L 601.666771 -512.284087 
L 600.216591 -512.370442 
L 598.766412 -512.39391 
L 597.316233 -512.398782 
L 595.866053 -512.399664 
L 594.415874 -512.399664 
L 592.965695 -512.399664 
L 591.515515 -512.399664 
L 590.065336 -512.399664 
L 588.615157 -512.399664 
L 587.164977 -512.399664 
L 585.714798 -512.399664 
L 584.264619 -512.399664 
L 582.814439 -512.399664 
L 581.36426 -512.399664 
L 579.914081 -512.399664 
L 578.463901 -512.399664 
L 577.013722 -512.399664 
L 575.563543 -512.399664 
L 574.113363 -512.399664 
L 572.663184 -512.399664 
L 571.213005 -512.399664 
L 569.762826 -512.399664 
L 568.312646 -512.399664 
L 566.862467 -512.399664 
L 565.412288 -512.399664 
L 563.962108 -512.394539 
L 562.511929 -512.366244 
L 561.06175 -512.229941 
L 559.61157 -511.728395 
L 558.161391 -510.332009 
L 556.711212 -507.439617 
L 555.261032 -503.133076 
L 553.810853 -498.916858 
L 552.360674 -509.620143 
L 550.910494 -498.916858 
L 549.460315 -503.133076 
L 548.010136 -507.439617 
L 546.559956 -510.332009 
L 545.109777 -511.728395 
L 543.659598 -512.229941 
L 542.209418 -512.366244 
L 540.759239 -512.394539 
L 539.30906 -512.399664 
L 537.85888 -512.399664 
L 536.408701 -512.399664 
L 534.958522 -512.399664 
L 533.508342 -512.399664 
L 532.058163 -512.399664 
L 530.607984 -512.399664 
L 529.157804 -512.399664 
L 527.707625 -512.399664 
L 526.257446 -512.399664 
L 524.807266 -512.399664 
L 523.357087 -512.399664 
L 521.906908 -512.399664 
L 520.456729 -512.399664 
L 519.006549 -512.399664 
L 517.55637 -512.399664 
L 516.106191 -512.399664 
L 514.656011 -512.399664 
L 513.205832 -512.399664 
L 511.755653 -512.399664 
L 510.305473 -512.399664 
L 508.855294 -512.397264 
L 507.405115 -512.384015 
L 505.954935 -512.320191 
L 504.504756 -512.085342 
L 503.054577 -511.431485 
L 501.604397 -510.077124 
L 500.154218 -508.060588 
L 498.704039 -506.086345 
L 497.253859 -517.090513 
L 495.80368 -506.086345 
L 494.353501 -508.060588 
L 492.903321 -510.077124 
L 491.453142 -511.431485 
L 490.002963 -512.085342 
L 488.552783 -512.320191 
L 487.102604 -512.384015 
L 485.652425 -512.397264 
L 484.202245 -512.399664 
L 482.752066 -512.399664 
L 481.301887 -512.399664 
L 479.851707 -512.399664 
L 478.401528 -512.399664 
L 476.951349 -512.399664 
L 475.501169 -512.399664 
L 474.05099 -512.399664 
L 472.600811 -512.399664 
L 471.150632 -512.399664 
L 469.700452 -512.399664 
L 468.250273 -512.397515 
L 466.800094 -512.385648 
L 465.349914 -512.325699 
L 463.899735 -512.09233 
L 462.449556 -511.390405 
L 460.999376 -509.701401 
L 459.549197 -506.3879 
L 458.099018 -500.963569 
L 456.648838 -503.539912 
L 455.198659 -485.585161 
L 453.74848 -491.848542 
L 452.2983 -499.718048 
L 450.848121 -486.367182 
L 449.397942 -495.587472 
L 447.947762 -503.799233 
L 446.497583 -508.933684 
L 445.047404 -511.300378 
L 443.597224 -512.110925 
L 442.147045 -512.259827 
L 440.696866 -512.047324 
L 439.246686 -511.337952 
L 437.796507 -509.852748 
L 436.346328 -507.641399 
L 434.896148 -505.476429 
L 433.445969 -517.515734 
L 431.99579 -505.476429 
L 430.54561 -507.643818 
L 429.095431 -509.868523 
L 427.645252 -511.418065 
L 426.195073 -512.371832 
L 424.744893 -513.288498 
L 423.294714 -514.723769 
L 421.844535 -516.771092 
L 420.394355 -518.763884 
L 418.944176 -527.988986 
L 417.493997 -518.763884 
L 416.043817 -516.773724 
L 414.593638 -514.74093 
L 413.143459 -513.375649 
L 411.693279 -512.71652 
L 410.2431 -512.479778 
L 408.792921 -512.415439 
L 407.342741 -512.402083 
L 405.892562 -512.399664 
z
" style="stroke: #ff7f0e; stroke-opacity: 0.2"/>
    </defs>
    <g clip-path="url(#p23990a92c2)">
     <use xlink:href="#ma7c6ac1d27" x="0" y="720" style="fill: #ff7f0e; fill-opacity: 0.2; stroke: #ff7f0e; stroke-opacity: 0.2"/>
    </g>
   </g>
   <g id="matplotlib.axis_3">
    <g id="xtick_7">
     <g id="line2d_13">
      <g>
       <use xlink:href="#m99cd2253a9" x="405.863558" y="333.490909" style="stroke: #000000; stroke-width: 0.8"/>
      </g>
     </g>
     <g id="text_13">
      <!-- 0 -->
      <g transform="translate(402.682308 348.089347)scale(0.1 -0.1)">
       <use xlink:href="#DejaVuSans-30"/>
      </g>
     </g>
    </g>
    <g id="xtick_8">
     <g id="line2d_14">
      <g>
       <use xlink:href="#m99cd2253a9" x="463.870731" y="333.490909" style="stroke: #000000; stroke-width: 0.8"/>
      </g>
     </g>
     <g id="text_14">
      <!-- 2000 -->
      <g transform="translate(451.145731 348.089347)scale(0.1 -0.1)">
       <use xlink:href="#DejaVuSans-32"/>
       <use xlink:href="#DejaVuSans-30" x="63.623047"/>
       <use xlink:href="#DejaVuSans-30" x="127.246094"/>
       <use xlink:href="#DejaVuSans-30" x="190.869141"/>
      </g>
     </g>
    </g>
    <g id="xtick_9">
     <g id="line2d_15">
      <g>
       <use xlink:href="#m99cd2253a9" x="521.877904" y="333.490909" style="stroke: #000000; stroke-width: 0.8"/>
      </g>
     </g>
     <g id="text_15">
      <!-- 4000 -->
      <g transform="translate(509.152904 348.089347)scale(0.1 -0.1)">
       <use xlink:href="#DejaVuSans-34"/>
       <use xlink:href="#DejaVuSans-30" x="63.623047"/>
       <use xlink:href="#DejaVuSans-30" x="127.246094"/>
       <use xlink:href="#DejaVuSans-30" x="190.869141"/>
      </g>
     </g>
    </g>
    <g id="xtick_10">
     <g id="line2d_16">
      <g>
       <use xlink:href="#m99cd2253a9" x="579.885077" y="333.490909" style="stroke: #000000; stroke-width: 0.8"/>
      </g>
     </g>
     <g id="text_16">
      <!-- 6000 -->
      <g transform="translate(567.160077 348.089347)scale(0.1 -0.1)">
       <use xlink:href="#DejaVuSans-36"/>
       <use xlink:href="#DejaVuSans-30" x="63.623047"/>
       <use xlink:href="#DejaVuSans-30" x="127.246094"/>
       <use xlink:href="#DejaVuSans-30" x="190.869141"/>
      </g>
     </g>
    </g>
    <g id="xtick_11">
     <g id="line2d_17">
      <g>
       <use xlink:href="#m99cd2253a9" x="637.89225" y="333.490909" style="stroke: #000000; stroke-width: 0.8"/>
      </g>
     </g>
     <g id="text_17">
      <!-- 8000 -->
      <g transform="translate(625.16725 348.089347)scale(0.1 -0.1)">
       <use xlink:href="#DejaVuSans-38"/>
       <use xlink:href="#DejaVuSans-30" x="63.623047"/>
       <use xlink:href="#DejaVuSans-30" x="127.246094"/>
       <use xlink:href="#DejaVuSans-30" x="190.869141"/>
      </g>
     </g>
    </g>
   </g>
   <g id="matplotlib.axis_4">
    <g id="ytick_7">
     <g id="line2d_18">
      <g>
       <use xlink:href="#m155bf3ba7e" x="394.363636" y="323.509933" style="stroke: #000000; stroke-width: 0.8"/>
      </g>
     </g>
     <g id="text_18">
      <!-- −0.3 -->
      <g transform="translate(363.080824 327.309152)scale(0.1 -0.1)">
       <defs>
        <path id="DejaVuSans-2212" d="M 678 2272 
L 4684 2272 
L 4684 1741 
L 678 1741 
L 678 2272 
z
" transform="scale(0.015625)"/>
        <path id="DejaVuSans-33" d="M 2597 2516 
Q 3050 2419 3304 2112 
Q 3559 1806 3559 1356 
Q 3559 666 3084 287 
Q 2609 -91 1734 -91 
Q 1441 -91 1130 -33 
Q 819 25 488 141 
L 488 750 
Q 750 597 1062 519 
Q 1375 441 1716 441 
Q 2309 441 2620 675 
Q 2931 909 2931 1356 
Q 2931 1769 2642 2001 
Q 2353 2234 1838 2234 
L 1294 2234 
L 1294 2753 
L 1863 2753 
Q 2328 2753 2575 2939 
Q 2822 3125 2822 3475 
Q 2822 3834 2567 4026 
Q 2313 4219 1838 4219 
Q 1578 4219 1281 4162 
Q 984 4106 628 3988 
L 628 4550 
Q 988 4650 1302 4700 
Q 1616 4750 1894 4750 
Q 2613 4750 3031 4423 
Q 3450 4097 3450 3541 
Q 3450 3153 3228 2886 
Q 3006 2619 2597 2516 
z
" transform="scale(0.015625)"/>
       </defs>
       <use xlink:href="#DejaVuSans-2212"/>
       <use xlink:href="#DejaVuSans-30" x="83.789062"/>
       <use xlink:href="#DejaVuSans-2e" x="147.412109"/>
       <use xlink:href="#DejaVuSans-33" x="179.199219"/>
      </g>
     </g>
    </g>
    <g id="ytick_8">
     <g id="line2d_19">
      <g>
       <use xlink:href="#m155bf3ba7e" x="394.363636" y="284.873401" style="stroke: #000000; stroke-width: 0.8"/>
      </g>
     </g>
     <g id="text_19">
      <!-- −0.2 -->
      <g transform="translate(363.080824 288.67262)scale(0.1 -0.1)">
       <use xlink:href="#DejaVuSans-2212"/>
       <use xlink:href="#DejaVuSans-30" x="83.789062"/>
       <use xlink:href="#DejaVuSans-2e" x="147.412109"/>
       <use xlink:href="#DejaVuSans-32" x="179.199219"/>
      </g>
     </g>
    </g>
    <g id="ytick_9">
     <g id="line2d_20">
      <g>
       <use xlink:href="#m155bf3ba7e" x="394.363636" y="246.236868" style="stroke: #000000; stroke-width: 0.8"/>
      </g>
     </g>
     <g id="text_20">
      <!-- −0.1 -->
      <g transform="translate(363.080824 250.036087)scale(0.1 -0.1)">
       <use xlink:href="#DejaVuSans-2212"/>
       <use xlink:href="#DejaVuSans-30" x="83.789062"/>
       <use xlink:href="#DejaVuSans-2e" x="147.412109"/>
       <use xlink:href="#DejaVuSans-31" x="179.199219"/>
      </g>
     </g>
    </g>
    <g id="ytick_10">
     <g id="line2d_21">
      <g>
       <use xlink:href="#m155bf3ba7e" x="394.363636" y="207.600336" style="stroke: #000000; stroke-width: 0.8"/>
      </g>
     </g>
     <g id="text_21">
      <!-- 0.0 -->
      <g transform="translate(371.460511 211.399555)scale(0.1 -0.1)">
       <use xlink:href="#DejaVuSans-30"/>
       <use xlink:href="#DejaVuSans-2e" x="63.623047"/>
       <use xlink:href="#DejaVuSans-30" x="95.410156"/>
      </g>
     </g>
    </g>
    <g id="ytick_11">
     <g id="line2d_22">
      <g>
       <use xlink:href="#m155bf3ba7e" x="394.363636" y="168.963803" style="stroke: #000000; stroke-width: 0.8"/>
      </g>
     </g>
     <g id="text_22">
      <!-- 0.1 -->
      <g transform="translate(371.460511 172.763022)scale(0.1 -0.1)">
       <use xlink:href="#DejaVuSans-30"/>
       <use xlink:href="#DejaVuSans-2e" x="63.623047"/>
       <use xlink:href="#DejaVuSans-31" x="95.410156"/>
      </g>
     </g>
    </g>
    <g id="ytick_12">
     <g id="line2d_23">
      <g>
       <use xlink:href="#m155bf3ba7e" x="394.363636" y="130.327271" style="stroke: #000000; stroke-width: 0.8"/>
      </g>
     </g>
     <g id="text_23">
      <!-- 0.2 -->
      <g transform="translate(371.460511 134.12649)scale(0.1 -0.1)">
       <use xlink:href="#DejaVuSans-30"/>
       <use xlink:href="#DejaVuSans-2e" x="63.623047"/>
       <use xlink:href="#DejaVuSans-32" x="95.410156"/>
      </g>
     </g>
    </g>
    <g id="ytick_13">
     <g id="line2d_24">
      <g>
       <use xlink:href="#m155bf3ba7e" x="394.363636" y="91.690739" style="stroke: #000000; stroke-width: 0.8"/>
      </g>
     </g>
     <g id="text_24">
      <!-- 0.3 -->
      <g transform="translate(371.460511 95.489957)scale(0.1 -0.1)">
       <use xlink:href="#DejaVuSans-30"/>
       <use xlink:href="#DejaVuSans-2e" x="63.623047"/>
       <use xlink:href="#DejaVuSans-33" x="95.410156"/>
      </g>
     </g>
    </g>
   </g>
   <g id="line2d_25">
    <path d="M 405.892562 200.96766 
L 407.342741 200.023428 
L 408.792921 197.570893 
L 411.693279 189.847228 
L 413.143459 188.592329 
L 414.593638 191.008445 
L 417.493997 200.671536 
L 418.944176 203.959421 
L 420.394355 205.283042 
L 421.844535 204.533656 
L 423.294714 201.378868 
L 424.744893 195.818466 
L 430.54561 168.277294 
L 431.99579 160.072466 
L 433.445969 153.267244 
L 434.896148 152.022555 
L 436.346328 158.885301 
L 439.246686 185.62874 
L 440.696866 194.59912 
L 442.147045 196.628731 
L 443.597224 193.071222 
L 445.047404 187.859855 
L 446.497583 185.489616 
L 447.947762 188.12646 
L 450.848121 200.425906 
L 452.2983 204.531398 
L 453.74848 206.198445 
L 455.198659 205.622305 
L 456.648838 202.097936 
L 458.099018 194.048518 
L 459.549197 180.823351 
L 460.999376 164.897612 
L 462.449556 151.528237 
L 463.899735 145.099225 
L 465.349914 145.885507 
L 466.800094 150.708263 
L 471.150632 167.419167 
L 472.600811 175.634549 
L 474.05099 185.305967 
L 475.501169 193.614775 
L 476.951349 197.497983 
L 478.401528 195.215549 
L 479.851707 186.612135 
L 481.301887 172.972721 
L 482.752066 157.179825 
L 484.202245 143.860861 
L 485.652425 138.06471 
L 487.102604 141.568508 
L 488.552783 150.135609 
L 490.002963 156.872101 
L 491.453142 159.397504 
L 492.903321 161.505797 
L 495.80368 171.841094 
L 497.253859 171.331972 
L 498.704039 163.759268 
L 500.154218 155.317348 
L 501.604397 154.225886 
L 503.054577 162.814843 
L 504.504756 175.425879 
L 505.954935 183.459942 
L 507.405115 181.665648 
L 508.855294 170.556165 
L 511.755653 138.168438 
L 513.205832 124.007093 
L 514.656011 114.300373 
L 516.106191 112.551789 
L 517.55637 120.709436 
L 520.456729 151.09979 
L 521.906908 163.632922 
L 523.357087 173.549517 
L 524.807266 182.143635 
L 526.257446 189.627951 
L 527.707625 195.706353 
L 529.157804 200.339433 
L 530.607984 203.651136 
L 532.058163 205.751577 
L 533.508342 206.815349 
L 534.958522 207.054294 
L 536.408701 206.527706 
L 537.85888 205.124868 
L 539.30906 202.883856 
L 540.759239 200.338047 
L 542.209418 198.280579 
L 543.659598 197.122226 
L 545.109777 196.785081 
L 546.559956 197.263116 
L 548.010136 198.75611 
L 550.910494 203.530926 
L 552.360674 205.2959 
L 553.810853 206.152694 
L 555.261032 206.339386 
L 556.711212 206.305134 
L 558.161391 206.659882 
L 559.61157 208.182475 
L 561.06175 211.441307 
L 562.511929 216.021698 
L 563.962108 220.183893 
L 565.412288 221.840131 
L 566.862467 220.280742 
L 569.762826 213.162852 
L 571.213005 210.68382 
L 572.663184 209.436473 
L 574.113363 209.053009 
L 577.013722 208.939902 
L 579.914081 208.105486 
L 581.36426 208.155897 
L 582.814439 209.249426 
L 584.264619 211.603826 
L 585.714798 214.931195 
L 588.615157 221.981871 
L 591.515515 228.384538 
L 592.965695 231.737807 
L 594.415874 233.846128 
L 595.866053 232.726988 
L 597.316233 227.821735 
L 598.766412 221.127581 
L 600.216591 215.792749 
L 601.666771 213.788373 
L 603.11695 214.895952 
L 604.567129 217.213609 
L 606.017309 218.490699 
L 607.467488 217.674263 
L 610.367847 213.144036 
L 611.818026 211.435679 
L 613.268205 210.190755 
L 614.718385 209.179883 
L 616.168564 208.406263 
L 617.618743 207.927108 
L 621.969281 207.196528 
L 623.41946 206.337559 
L 624.86964 204.554636 
L 627.769998 198.918978 
L 629.220178 196.846148 
L 630.670357 195.859388 
L 632.120536 195.12554 
L 633.570716 193.890887 
L 635.020895 192.415805 
L 636.471074 191.458373 
L 636.471074 191.458373 
" clip-path="url(#p23990a92c2)" style="fill: none; stroke: #9467bd; stroke-width: 2; stroke-linecap: square"/>
   </g>
   <g id="line2d_26">
    <path d="M 405.892562 207.600336 
L 636.471074 207.600336 
L 636.471074 207.600336 
" clip-path="url(#p23990a92c2)" style="fill: none; stroke: #1f77b4; stroke-width: 2; stroke-linecap: square"/>
   </g>
   <g id="line2d_27">
    <path d="M 405.892562 207.627883 
L 407.342741 207.72163 
L 408.792921 208.080065 
L 410.2431 209.0824 
L 411.693279 211.173738 
L 414.593638 217.81157 
L 416.043817 220.291956 
L 417.493997 221.489253 
L 418.944176 222.169009 
L 420.394355 222.706762 
L 421.844535 222.179107 
L 423.294714 219.641747 
L 426.195073 211.877525 
L 427.645252 209.386615 
L 429.095431 208.238396 
L 430.54561 208.062963 
L 431.99579 208.889193 
L 433.445969 211.507382 
L 434.896148 217.06879 
L 436.346328 225.710877 
L 437.796507 235.248221 
L 439.246686 242.041321 
L 440.696866 243.808059 
L 442.147045 240.944341 
L 443.597224 235.0332 
L 446.497583 219.872808 
L 447.947762 213.815131 
L 449.397942 210.121304 
L 450.848121 208.408079 
L 452.2983 207.802144 
L 453.74848 207.640074 
L 459.549197 207.600336 
L 468.250273 207.629471 
L 469.700452 207.748298 
L 471.150632 208.185539 
L 472.600811 209.402887 
L 474.05099 211.924431 
L 476.951349 219.354445 
L 478.401528 220.927558 
L 479.851707 219.417887 
L 481.301887 216.01658 
L 482.752066 213.35261 
L 484.202245 214.168939 
L 485.652425 220.848302 
L 487.102604 234.808564 
L 490.002963 276.323222 
L 491.453142 293.24328 
L 492.903321 300.971368 
L 494.353501 297.102129 
L 495.80368 281.941407 
L 498.704039 237.819716 
L 500.154218 221.782402 
L 501.604397 212.931754 
L 503.054577 209.193125 
L 504.504756 207.976029 
L 505.954935 207.670589 
L 508.855294 207.600336 
L 521.906908 207.678003 
L 523.357087 207.907517 
L 524.807266 208.54652 
L 526.257446 209.870719 
L 529.157804 213.7905 
L 530.607984 214.67775 
L 532.058163 214.069438 
L 533.508342 212.708448 
L 534.958522 211.986784 
L 536.408701 212.879421 
L 539.30906 217.787557 
L 540.759239 218.707991 
L 542.209418 217.009891 
L 543.659598 213.164674 
L 546.559956 203.836924 
L 548.010136 200.199751 
L 549.460315 198.254152 
L 550.910494 198.271603 
L 552.360674 199.665326 
L 553.810853 201.39047 
L 555.261032 202.514463 
L 556.711212 202.39272 
L 558.161391 200.942119 
L 559.61157 199.068029 
L 561.06175 198.329587 
L 562.511929 199.738488 
L 563.962108 203.162868 
L 565.412288 208.268172 
L 566.862467 215.53066 
L 569.762826 235.70546 
L 571.213005 242.126194 
L 572.663184 240.763527 
L 574.113363 232.144661 
L 575.563543 220.707261 
L 577.013722 210.995554 
L 578.463901 204.896145 
L 579.914081 201.926578 
L 581.36426 200.959128 
L 582.814439 201.306688 
L 584.264619 202.61116 
L 585.714798 204.360885 
L 587.164977 205.915119 
L 588.615157 206.90743 
L 590.065336 207.376854 
L 591.515515 207.537857 
L 592.965695 207.548147 
L 594.415874 207.389772 
L 595.866053 206.774249 
L 597.316233 205.055809 
L 598.766412 201.496332 
L 601.666771 191.007934 
L 603.11695 188.798682 
L 604.567129 191.007934 
L 607.467488 201.496332 
L 608.917667 205.055809 
L 610.367847 206.777511 
L 611.818026 207.412742 
L 614.718385 208.023064 
L 616.168564 208.927839 
L 617.618743 210.815226 
L 620.519102 216.884163 
L 621.969281 219.007994 
L 623.41946 219.326008 
L 624.86964 218.072293 
L 626.319819 215.93989 
L 629.220178 211.170816 
L 630.670357 209.390798 
L 632.120536 208.322949 
L 633.570716 207.83129 
L 635.020895 207.657905 
L 636.471074 207.61341 
L 636.471074 207.61341 
" clip-path="url(#p23990a92c2)" style="fill: none; stroke: #d62728; stroke-width: 2; stroke-linecap: square"/>
   </g>
   <g id="line2d_28">
    <path d="M 405.892562 207.600336 
L 410.2431 207.520222 
L 411.693279 207.28348 
L 413.143459 206.624351 
L 414.593638 205.25907 
L 417.493997 201.236116 
L 418.944176 200.38873 
L 420.394355 201.236116 
L 423.294714 205.276231 
L 424.744893 206.711502 
L 427.645252 208.581935 
L 429.095431 210.131477 
L 431.99579 214.523571 
L 433.445969 215.445389 
L 434.896148 214.523571 
L 437.796507 210.147252 
L 439.246686 208.662048 
L 440.696866 207.952676 
L 442.147045 207.740173 
L 443.597224 207.889075 
L 445.047404 208.699622 
L 446.497583 211.066316 
L 447.947762 216.200767 
L 449.397942 224.412528 
L 450.848121 233.632818 
L 452.2983 239.816502 
L 453.74848 239.917175 
L 455.198659 234.414839 
L 458.099018 219.036431 
L 459.549197 213.6121 
L 460.999376 210.298599 
L 462.449556 208.609595 
L 463.899735 207.90767 
L 465.349914 207.674301 
L 469.700452 207.600336 
L 488.552783 207.679809 
L 490.002963 207.914658 
L 491.453142 208.568515 
L 492.903321 209.922876 
L 495.80368 213.913655 
L 497.253859 214.754263 
L 498.704039 213.913655 
L 501.604397 209.922876 
L 503.054577 208.568515 
L 504.504756 207.914658 
L 505.954935 207.679809 
L 508.855294 207.602736 
L 542.209418 207.633756 
L 543.659598 207.770059 
L 545.109777 208.271605 
L 546.559956 209.667991 
L 548.010136 212.560383 
L 550.910494 221.083142 
L 552.360674 222.878357 
L 553.810853 221.083142 
L 556.711212 212.560383 
L 558.161391 209.667991 
L 559.61157 208.271605 
L 561.06175 207.770059 
L 563.962108 207.605461 
L 595.866053 207.600336 
L 600.216591 207.629558 
L 601.666771 207.715913 
L 603.11695 207.95634 
L 604.567129 208.454345 
L 607.467488 209.921773 
L 608.917667 210.230868 
L 610.367847 209.921773 
L 613.268205 208.454345 
L 614.718385 207.95634 
L 616.168564 207.715913 
L 619.068923 207.608731 
L 621.969281 207.687794 
L 623.41946 207.946238 
L 624.86964 208.665789 
L 626.319819 210.156226 
L 629.220178 214.547965 
L 630.670357 215.473031 
L 632.120536 214.550606 
L 635.020895 210.243684 
L 636.471074 209.011691 
L 636.471074 209.011691 
" clip-path="url(#p23990a92c2)" style="fill: none; stroke: #ff7f0e; stroke-width: 2; stroke-linecap: square"/>
   </g>
   <g id="LineCollection_1">
    <path d="M 521.877904 279.397024 
L 521.877904 128.95034 
" clip-path="url(#p23990a92c2)" style="fill: none; stroke-dasharray: 7.4,3.2; stroke-dashoffset: 0; stroke: #000000; stroke-width: 2"/>
    <path d="M 536.379697 279.397024 
L 536.379697 128.95034 
" clip-path="url(#p23990a92c2)" style="fill: none; stroke-dasharray: 7.4,3.2; stroke-dashoffset: 0; stroke: #000000; stroke-width: 2"/>
    <path d="M 565.383284 279.397024 
L 565.383284 128.95034 
" clip-path="url(#p23990a92c2)" style="fill: none; stroke-dasharray: 7.4,3.2; stroke-dashoffset: 0; stroke: #000000; stroke-width: 2"/>
    <path d="M 623.390457 279.397024 
L 623.390457 128.95034 
" clip-path="url(#p23990a92c2)" style="fill: none; stroke-dasharray: 7.4,3.2; stroke-dashoffset: 0; stroke: #000000; stroke-width: 2"/>
   </g>
   <g id="patch_8">
    <path d="M 394.363636 333.490909 
L 394.363636 86.4 
" style="fill: none; stroke: #000000; stroke-width: 0.8; stroke-linejoin: miter; stroke-linecap: square"/>
   </g>
   <g id="patch_9">
    <path d="M 648 333.490909 
L 648 86.4 
" style="fill: none; stroke: #000000; stroke-width: 0.8; stroke-linejoin: miter; stroke-linecap: square"/>
   </g>
   <g id="patch_10">
    <path d="M 394.363636 333.490909 
L 648 333.490909 
" style="fill: none; stroke: #000000; stroke-width: 0.8; stroke-linejoin: miter; stroke-linecap: square"/>
   </g>
   <g id="patch_11">
    <path d="M 394.363636 86.4 
L 648 86.4 
" style="fill: none; stroke: #000000; stroke-width: 0.8; stroke-linejoin: miter; stroke-linecap: square"/>
   </g>
   <g id="text_25">
    <!-- unit_133 -->
    <g transform="translate(495.105256 80.4)scale(0.12 -0.12)">
     <defs>
      <path id="DejaVuSans-75" d="M 544 1381 
L 544 3500 
L 1119 3500 
L 1119 1403 
Q 1119 906 1312 657 
Q 1506 409 1894 409 
Q 2359 409 2629 706 
Q 2900 1003 2900 1516 
L 2900 3500 
L 3475 3500 
L 3475 0 
L 2900 0 
L 2900 538 
Q 2691 219 2414 64 
Q 2138 -91 1772 -91 
Q 1169 -91 856 284 
Q 544 659 544 1381 
z
M 1991 3584 
L 1991 3584 
z
" transform="scale(0.015625)"/>
      <path id="DejaVuSans-6e" d="M 3513 2113 
L 3513 0 
L 2938 0 
L 2938 2094 
Q 2938 2591 2744 2837 
Q 2550 3084 2163 3084 
Q 1697 3084 1428 2787 
Q 1159 2491 1159 1978 
L 1159 0 
L 581 0 
L 581 3500 
L 1159 3500 
L 1159 2956 
Q 1366 3272 1645 3428 
Q 1925 3584 2291 3584 
Q 2894 3584 3203 3211 
Q 3513 2838 3513 2113 
z
" transform="scale(0.015625)"/>
      <path id="DejaVuSans-69" d="M 603 3500 
L 1178 3500 
L 1178 0 
L 603 0 
L 603 3500 
z
M 603 4863 
L 1178 4863 
L 1178 4134 
L 603 4134 
L 603 4863 
z
" transform="scale(0.015625)"/>
      <path id="DejaVuSans-74" d="M 1172 4494 
L 1172 3500 
L 2356 3500 
L 2356 3053 
L 1172 3053 
L 1172 1153 
Q 1172 725 1289 603 
Q 1406 481 1766 481 
L 2356 481 
L 2356 0 
L 1766 0 
Q 1100 0 847 248 
Q 594 497 594 1153 
L 594 3053 
L 172 3053 
L 172 3500 
L 594 3500 
L 594 4494 
L 1172 4494 
z
" transform="scale(0.015625)"/>
      <path id="DejaVuSans-5f" d="M 3263 -1063 
L 3263 -1509 
L -63 -1509 
L -63 -1063 
L 3263 -1063 
z
" transform="scale(0.015625)"/>
     </defs>
     <use xlink:href="#DejaVuSans-75"/>
     <use xlink:href="#DejaVuSans-6e" x="63.378906"/>
     <use xlink:href="#DejaVuSans-69" x="126.757812"/>
     <use xlink:href="#DejaVuSans-74" x="154.541016"/>
     <use xlink:href="#DejaVuSans-5f" x="193.75"/>
     <use xlink:href="#DejaVuSans-31" x="243.75"/>
     <use xlink:href="#DejaVuSans-33" x="307.373047"/>
     <use xlink:href="#DejaVuSans-33" x="370.996094"/>
    </g>
   </g>
  </g>
  <g id="axes_3">
   <g id="patch_12">
    <path d="M 90 630 
L 343.636364 630 
L 343.636364 382.909091 
L 90 382.909091 
z
" style="fill: #ffffff"/>
   </g>
   <g id="matplotlib.axis_5">
    <g id="xtick_12">
     <g id="line2d_29">
      <g>
       <use xlink:href="#m99cd2253a9" x="90" y="630" style="stroke: #000000; stroke-width: 0.8"/>
      </g>
     </g>
     <g id="text_26">
      <!-- 0.0 -->
      <g transform="translate(82.048438 644.598437)scale(0.1 -0.1)">
       <use xlink:href="#DejaVuSans-30"/>
       <use xlink:href="#DejaVuSans-2e" x="63.623047"/>
       <use xlink:href="#DejaVuSans-30" x="95.410156"/>
      </g>
     </g>
    </g>
    <g id="xtick_13">
     <g id="line2d_30">
      <g>
       <use xlink:href="#m99cd2253a9" x="140.727273" y="630" style="stroke: #000000; stroke-width: 0.8"/>
      </g>
     </g>
     <g id="text_27">
      <!-- 0.2 -->
      <g transform="translate(132.77571 644.598437)scale(0.1 -0.1)">
       <use xlink:href="#DejaVuSans-30"/>
       <use xlink:href="#DejaVuSans-2e" x="63.623047"/>
       <use xlink:href="#DejaVuSans-32" x="95.410156"/>
      </g>
     </g>
    </g>
    <g id="xtick_14">
     <g id="line2d_31">
      <g>
       <use xlink:href="#m99cd2253a9" x="191.454545" y="630" style="stroke: #000000; stroke-width: 0.8"/>
      </g>
     </g>
     <g id="text_28">
      <!-- 0.4 -->
      <g transform="translate(183.502983 644.598437)scale(0.1 -0.1)">
       <use xlink:href="#DejaVuSans-30"/>
       <use xlink:href="#DejaVuSans-2e" x="63.623047"/>
       <use xlink:href="#DejaVuSans-34" x="95.410156"/>
      </g>
     </g>
    </g>
    <g id="xtick_15">
     <g id="line2d_32">
      <g>
       <use xlink:href="#m99cd2253a9" x="242.181818" y="630" style="stroke: #000000; stroke-width: 0.8"/>
      </g>
     </g>
     <g id="text_29">
      <!-- 0.6 -->
      <g transform="translate(234.230256 644.598437)scale(0.1 -0.1)">
       <use xlink:href="#DejaVuSans-30"/>
       <use xlink:href="#DejaVuSans-2e" x="63.623047"/>
       <use xlink:href="#DejaVuSans-36" x="95.410156"/>
      </g>
     </g>
    </g>
    <g id="xtick_16">
     <g id="line2d_33">
      <g>
       <use xlink:href="#m99cd2253a9" x="292.909091" y="630" style="stroke: #000000; stroke-width: 0.8"/>
      </g>
     </g>
     <g id="text_30">
      <!-- 0.8 -->
      <g transform="translate(284.957528 644.598437)scale(0.1 -0.1)">
       <use xlink:href="#DejaVuSans-30"/>
       <use xlink:href="#DejaVuSans-2e" x="63.623047"/>
       <use xlink:href="#DejaVuSans-38" x="95.410156"/>
      </g>
     </g>
    </g>
    <g id="xtick_17">
     <g id="line2d_34">
      <g>
       <use xlink:href="#m99cd2253a9" x="343.636364" y="630" style="stroke: #000000; stroke-width: 0.8"/>
      </g>
     </g>
     <g id="text_31">
      <!-- 1.0 -->
      <g transform="translate(335.684801 644.598437)scale(0.1 -0.1)">
       <use xlink:href="#DejaVuSans-31"/>
       <use xlink:href="#DejaVuSans-2e" x="63.623047"/>
       <use xlink:href="#DejaVuSans-30" x="95.410156"/>
      </g>
     </g>
    </g>
   </g>
   <g id="matplotlib.axis_6">
    <g id="ytick_14">
     <g id="line2d_35">
      <g>
       <use xlink:href="#m155bf3ba7e" x="90" y="630" style="stroke: #000000; stroke-width: 0.8"/>
      </g>
     </g>
     <g id="text_32">
      <!-- 0.0 -->
      <g transform="translate(67.096875 633.799219)scale(0.1 -0.1)">
       <use xlink:href="#DejaVuSans-30"/>
       <use xlink:href="#DejaVuSans-2e" x="63.623047"/>
       <use xlink:href="#DejaVuSans-30" x="95.410156"/>
      </g>
     </g>
    </g>
    <g id="ytick_15">
     <g id="line2d_36">
      <g>
       <use xlink:href="#m155bf3ba7e" x="90" y="580.581818" style="stroke: #000000; stroke-width: 0.8"/>
      </g>
     </g>
     <g id="text_33">
      <!-- 0.2 -->
      <g transform="translate(67.096875 584.381037)scale(0.1 -0.1)">
       <use xlink:href="#DejaVuSans-30"/>
       <use xlink:href="#DejaVuSans-2e" x="63.623047"/>
       <use xlink:href="#DejaVuSans-32" x="95.410156"/>
      </g>
     </g>
    </g>
    <g id="ytick_16">
     <g id="line2d_37">
      <g>
       <use xlink:href="#m155bf3ba7e" x="90" y="531.163636" style="stroke: #000000; stroke-width: 0.8"/>
      </g>
     </g>
     <g id="text_34">
      <!-- 0.4 -->
      <g transform="translate(67.096875 534.962855)scale(0.1 -0.1)">
       <use xlink:href="#DejaVuSans-30"/>
       <use xlink:href="#DejaVuSans-2e" x="63.623047"/>
       <use xlink:href="#DejaVuSans-34" x="95.410156"/>
      </g>
     </g>
    </g>
    <g id="ytick_17">
     <g id="line2d_38">
      <g>
       <use xlink:href="#m155bf3ba7e" x="90" y="481.745455" style="stroke: #000000; stroke-width: 0.8"/>
      </g>
     </g>
     <g id="text_35">
      <!-- 0.6 -->
      <g transform="translate(67.096875 485.544673)scale(0.1 -0.1)">
       <use xlink:href="#DejaVuSans-30"/>
       <use xlink:href="#DejaVuSans-2e" x="63.623047"/>
       <use xlink:href="#DejaVuSans-36" x="95.410156"/>
      </g>
     </g>
    </g>
    <g id="ytick_18">
     <g id="line2d_39">
      <g>
       <use xlink:href="#m155bf3ba7e" x="90" y="432.327273" style="stroke: #000000; stroke-width: 0.8"/>
      </g>
     </g>
     <g id="text_36">
      <!-- 0.8 -->
      <g transform="translate(67.096875 436.126491)scale(0.1 -0.1)">
       <use xlink:href="#DejaVuSans-30"/>
       <use xlink:href="#DejaVuSans-2e" x="63.623047"/>
       <use xlink:href="#DejaVuSans-38" x="95.410156"/>
      </g>
     </g>
    </g>
    <g id="ytick_19">
     <g id="line2d_40">
      <g>
       <use xlink:href="#m155bf3ba7e" x="90" y="382.909091" style="stroke: #000000; stroke-width: 0.8"/>
      </g>
     </g>
     <g id="text_37">
      <!-- 1.0 -->
      <g transform="translate(67.096875 386.70831)scale(0.1 -0.1)">
       <use xlink:href="#DejaVuSans-31"/>
       <use xlink:href="#DejaVuSans-2e" x="63.623047"/>
       <use xlink:href="#DejaVuSans-30" x="95.410156"/>
      </g>
     </g>
    </g>
   </g>
   <g id="patch_13">
    <path d="M 90 630 
L 90 382.909091 
" style="fill: none; stroke: #000000; stroke-width: 0.8; stroke-linejoin: miter; stroke-linecap: square"/>
   </g>
   <g id="patch_14">
    <path d="M 343.636364 630 
L 343.636364 382.909091 
" style="fill: none; stroke: #000000; stroke-width: 0.8; stroke-linejoin: miter; stroke-linecap: square"/>
   </g>
   <g id="patch_15">
    <path d="M 90 630 
L 343.636364 630 
" style="fill: none; stroke: #000000; stroke-width: 0.8; stroke-linejoin: miter; stroke-linecap: square"/>
   </g>
   <g id="patch_16">
    <path d="M 90 382.909091 
L 343.636364 382.909091 
" style="fill: none; stroke: #000000; stroke-width: 0.8; stroke-linejoin: miter; stroke-linecap: square"/>
   </g>
  </g>
  <g id="axes_4">
   <g id="patch_17">
    <path d="M 394.363636 630 
L 648 630 
L 648 382.909091 
L 394.363636 382.909091 
z
" style="fill: #ffffff"/>
   </g>
   <g id="matplotlib.axis_7">
    <g id="xtick_18">
     <g id="line2d_41">
      <g>
       <use xlink:href="#m99cd2253a9" x="405.863558" y="630" style="stroke: #000000; stroke-width: 0.8"/>
      </g>
     </g>
     <g id="text_38">
      <!-- 0 -->
      <g transform="translate(402.682308 644.598437)scale(0.1 -0.1)">
       <use xlink:href="#DejaVuSans-30"/>
      </g>
     </g>
    </g>
    <g id="xtick_19">
     <g id="line2d_42">
      <g>
       <use xlink:href="#m99cd2253a9" x="463.870731" y="630" style="stroke: #000000; stroke-width: 0.8"/>
      </g>
     </g>
     <g id="text_39">
      <!-- 2000 -->
      <g transform="translate(451.145731 644.598437)scale(0.1 -0.1)">
       <use xlink:href="#DejaVuSans-32"/>
       <use xlink:href="#DejaVuSans-30" x="63.623047"/>
       <use xlink:href="#DejaVuSans-30" x="127.246094"/>
       <use xlink:href="#DejaVuSans-30" x="190.869141"/>
      </g>
     </g>
    </g>
    <g id="xtick_20">
     <g id="line2d_43">
      <g>
       <use xlink:href="#m99cd2253a9" x="521.877904" y="630" style="stroke: #000000; stroke-width: 0.8"/>
      </g>
     </g>
     <g id="text_40">
      <!-- 4000 -->
      <g transform="translate(509.152904 644.598437)scale(0.1 -0.1)">
       <use xlink:href="#DejaVuSans-34"/>
       <use xlink:href="#DejaVuSans-30" x="63.623047"/>
       <use xlink:href="#DejaVuSans-30" x="127.246094"/>
       <use xlink:href="#DejaVuSans-30" x="190.869141"/>
      </g>
     </g>
    </g>
    <g id="xtick_21">
     <g id="line2d_44">
      <g>
       <use xlink:href="#m99cd2253a9" x="579.885077" y="630" style="stroke: #000000; stroke-width: 0.8"/>
      </g>
     </g>
     <g id="text_41">
      <!-- 6000 -->
      <g transform="translate(567.160077 644.598437)scale(0.1 -0.1)">
       <use xlink:href="#DejaVuSans-36"/>
       <use xlink:href="#DejaVuSans-30" x="63.623047"/>
       <use xlink:href="#DejaVuSans-30" x="127.246094"/>
       <use xlink:href="#DejaVuSans-30" x="190.869141"/>
      </g>
     </g>
    </g>
    <g id="xtick_22">
     <g id="line2d_45">
      <g>
       <use xlink:href="#m99cd2253a9" x="637.89225" y="630" style="stroke: #000000; stroke-width: 0.8"/>
      </g>
     </g>
     <g id="text_42">
      <!-- 8000 -->
      <g transform="translate(625.16725 644.598437)scale(0.1 -0.1)">
       <use xlink:href="#DejaVuSans-38"/>
       <use xlink:href="#DejaVuSans-30" x="63.623047"/>
       <use xlink:href="#DejaVuSans-30" x="127.246094"/>
       <use xlink:href="#DejaVuSans-30" x="190.869141"/>
      </g>
     </g>
    </g>
   </g>
   <g id="matplotlib.axis_8">
    <g id="ytick_20">
     <g id="line2d_46">
      <g>
       <use xlink:href="#m155bf3ba7e" x="394.363636" y="630" style="stroke: #000000; stroke-width: 0.8"/>
      </g>
     </g>
     <g id="text_43">
      <!-- −2 -->
      <g transform="translate(372.621449 633.799219)scale(0.1 -0.1)">
       <use xlink:href="#DejaVuSans-2212"/>
       <use xlink:href="#DejaVuSans-32" x="83.789062"/>
      </g>
     </g>
    </g>
    <g id="ytick_21">
     <g id="line2d_47">
      <g>
       <use xlink:href="#m155bf3ba7e" x="394.363636" y="581.390621" style="stroke: #000000; stroke-width: 0.8"/>
      </g>
     </g>
     <g id="text_44">
      <!-- 0 -->
      <g transform="translate(381.001136 585.18984)scale(0.1 -0.1)">
       <use xlink:href="#DejaVuSans-30"/>
      </g>
     </g>
    </g>
    <g id="ytick_22">
     <g id="line2d_48">
      <g>
       <use xlink:href="#m155bf3ba7e" x="394.363636" y="532.781243" style="stroke: #000000; stroke-width: 0.8"/>
      </g>
     </g>
     <g id="text_45">
      <!-- 2 -->
      <g transform="translate(381.001136 536.580461)scale(0.1 -0.1)">
       <use xlink:href="#DejaVuSans-32"/>
      </g>
     </g>
    </g>
    <g id="ytick_23">
     <g id="line2d_49">
      <g>
       <use xlink:href="#m155bf3ba7e" x="394.363636" y="484.171864" style="stroke: #000000; stroke-width: 0.8"/>
      </g>
     </g>
     <g id="text_46">
      <!-- 4 -->
      <g transform="translate(381.001136 487.971083)scale(0.1 -0.1)">
       <use xlink:href="#DejaVuSans-34"/>
      </g>
     </g>
    </g>
    <g id="ytick_24">
     <g id="line2d_50">
      <g>
       <use xlink:href="#m155bf3ba7e" x="394.363636" y="435.562485" style="stroke: #000000; stroke-width: 0.8"/>
      </g>
     </g>
     <g id="text_47">
      <!-- 6 -->
      <g transform="translate(381.001136 439.361704)scale(0.1 -0.1)">
       <use xlink:href="#DejaVuSans-36"/>
      </g>
     </g>
    </g>
    <g id="ytick_25">
     <g id="line2d_51">
      <g>
       <use xlink:href="#m155bf3ba7e" x="394.363636" y="386.953107" style="stroke: #000000; stroke-width: 0.8"/>
      </g>
     </g>
     <g id="text_48">
      <!-- 8 -->
      <g transform="translate(381.001136 390.752325)scale(0.1 -0.1)">
       <use xlink:href="#DejaVuSans-38"/>
      </g>
     </g>
    </g>
   </g>
   <g id="line2d_52">
    <path d="M 405.892562 639.321248 
L 407.342741 610.447674 
L 408.792921 595.689421 
L 410.2431 577.994124 
L 411.693279 499.340183 
L 413.143459 436.367491 
L 414.593638 504.964808 
L 416.043817 588.053684 
L 417.493997 601.098428 
L 418.944176 597.023095 
L 421.844535 675.004591 
L 423.294714 638.790004 
L 424.744893 598.280829 
L 426.195073 601.103892 
L 427.645252 613.022087 
L 429.095431 610.601476 
L 430.54561 633.784041 
L 431.99579 669.594573 
L 433.445969 678.607773 
L 434.770705 721 
M 436.808981 721 
L 437.796507 658.51781 
L 439.246686 573.926724 
L 440.696866 569.931301 
L 442.147045 595.251042 
L 443.597224 613.635322 
L 445.047404 617.026874 
L 446.497583 615.54514 
L 447.947762 599.645178 
L 449.397942 580.048551 
L 450.848121 557.62295 
L 452.2983 543.155962 
L 455.198659 576.033588 
L 456.648838 577.744086 
L 458.099018 580.319353 
L 459.549197 595.329396 
L 460.999376 645.919171 
L 462.449556 685.644516 
L 463.899735 634.931201 
L 465.349914 579.61899 
L 466.800094 584.130789 
L 468.250273 614.056947 
L 469.700452 670.299345 
L 470.743074 721 
M 472.671643 721 
L 474.05099 643.423707 
L 475.501169 602.446745 
L 476.951349 625.174494 
L 478.401528 656.48331 
L 479.851707 651.203866 
L 481.301887 659.629934 
L 482.752066 675.301684 
L 484.202245 695.811835 
L 484.884589 721 
M 496.375701 721 
L 497.253859 643.570103 
L 498.704039 603.785297 
L 500.154218 629.493666 
L 501.604397 660.293169 
L 503.054577 644.02901 
L 504.504756 605.55889 
L 505.954935 586.445429 
L 507.405115 591.741497 
L 508.855294 634.764718 
L 510.305473 708.244019 
L 510.931406 721 
M 518.534465 721 
L 519.006549 686.3302 
L 520.456729 646.115705 
L 521.906908 659.784057 
L 523.357087 630.537019 
L 524.807266 595.761717 
L 526.257446 583.41502 
L 527.707625 580.396563 
L 530.607984 587.691063 
L 532.058163 585.392242 
L 533.508342 582.405149 
L 534.958522 582.868139 
L 536.408701 587.22174 
L 537.85888 586.561446 
L 539.30906 569.113426 
L 540.759239 568.837107 
L 542.209418 606.979758 
L 543.659598 625.844183 
L 545.109777 625.537385 
L 546.559956 636.848067 
L 548.010136 623.458604 
L 549.460315 578.559954 
L 550.910494 545.773229 
L 552.360674 529.345528 
L 553.810853 546.013496 
L 555.261032 576.071032 
L 556.711212 586.482782 
L 558.161391 588.906686 
L 559.61157 588.401958 
L 561.06175 578.503364 
L 562.511929 566.148896 
L 563.962108 543.429318 
L 565.412288 529.774494 
L 566.862467 550.287276 
L 568.312646 548.85832 
L 569.762826 460.417536 
L 571.213005 382.909091 
L 572.663184 464.462927 
L 574.113363 560.041587 
L 575.563543 593.114299 
L 577.013722 610.784975 
L 578.463901 612.721956 
L 579.914081 600.912142 
L 581.36426 594.990833 
L 582.814439 591.659575 
L 585.714798 578.480855 
L 587.164977 580.455742 
L 590.065336 630.154955 
L 591.515515 633.010389 
L 592.965695 638.073693 
L 594.415874 656.582943 
L 595.866053 670.550215 
L 598.766412 592.046847 
L 600.216591 573.763161 
L 603.11695 510.261865 
L 604.567129 507.066044 
L 606.017309 512.884178 
L 608.917667 570.583944 
L 610.367847 585.770838 
L 611.818026 593.555569 
L 613.268205 589.099258 
L 614.718385 583.120258 
L 616.168564 581.567174 
L 617.618743 582.535803 
L 619.068923 595.289515 
L 620.519102 643.686544 
L 621.969281 684.269218 
L 624.86964 606.370125 
L 626.319819 614.586509 
L 627.769998 662.077068 
L 629.220178 697.724393 
L 632.120536 593.120023 
L 633.570716 581.696849 
L 635.020895 581.266229 
L 636.471074 581.325541 
L 636.471074 581.325541 
" clip-path="url(#pfbc1c64393)" style="fill: none; stroke: #1f77b4; stroke-width: 1.5; stroke-linecap: square"/>
   </g>
   <g id="patch_18">
    <path d="M 394.363636 630 
L 394.363636 382.909091 
" style="fill: none; stroke: #000000; stroke-width: 0.8; stroke-linejoin: miter; stroke-linecap: square"/>
   </g>
   <g id="patch_19">
    <path d="M 648 630 
L 648 382.909091 
" style="fill: none; stroke: #000000; stroke-width: 0.8; stroke-linejoin: miter; stroke-linecap: square"/>
   </g>
   <g id="patch_20">
    <path d="M 394.363636 630 
L 648 630 
" style="fill: none; stroke: #000000; stroke-width: 0.8; stroke-linejoin: miter; stroke-linecap: square"/>
   </g>
   <g id="patch_21">
    <path d="M 394.363636 382.909091 
L 648 382.909091 
" style="fill: none; stroke: #000000; stroke-width: 0.8; stroke-linejoin: miter; stroke-linecap: square"/>
   </g>
   <g id="text_49">
    <!-- explained variance -->
    <g transform="translate(464.181818 376.909091)scale(0.12 -0.12)">
     <defs>
      <path id="DejaVuSans-65" d="M 3597 1894 
L 3597 1613 
L 953 1613 
Q 991 1019 1311 708 
Q 1631 397 2203 397 
Q 2534 397 2845 478 
Q 3156 559 3463 722 
L 3463 178 
Q 3153 47 2828 -22 
Q 2503 -91 2169 -91 
Q 1331 -91 842 396 
Q 353 884 353 1716 
Q 353 2575 817 3079 
Q 1281 3584 2069 3584 
Q 2775 3584 3186 3129 
Q 3597 2675 3597 1894 
z
M 3022 2063 
Q 3016 2534 2758 2815 
Q 2500 3097 2075 3097 
Q 1594 3097 1305 2825 
Q 1016 2553 972 2059 
L 3022 2063 
z
" transform="scale(0.015625)"/>
      <path id="DejaVuSans-78" d="M 3513 3500 
L 2247 1797 
L 3578 0 
L 2900 0 
L 1881 1375 
L 863 0 
L 184 0 
L 1544 1831 
L 300 3500 
L 978 3500 
L 1906 2253 
L 2834 3500 
L 3513 3500 
z
" transform="scale(0.015625)"/>
      <path id="DejaVuSans-70" d="M 1159 525 
L 1159 -1331 
L 581 -1331 
L 581 3500 
L 1159 3500 
L 1159 2969 
Q 1341 3281 1617 3432 
Q 1894 3584 2278 3584 
Q 2916 3584 3314 3078 
Q 3713 2572 3713 1747 
Q 3713 922 3314 415 
Q 2916 -91 2278 -91 
Q 1894 -91 1617 61 
Q 1341 213 1159 525 
z
M 3116 1747 
Q 3116 2381 2855 2742 
Q 2594 3103 2138 3103 
Q 1681 3103 1420 2742 
Q 1159 2381 1159 1747 
Q 1159 1113 1420 752 
Q 1681 391 2138 391 
Q 2594 391 2855 752 
Q 3116 1113 3116 1747 
z
" transform="scale(0.015625)"/>
      <path id="DejaVuSans-6c" d="M 603 4863 
L 1178 4863 
L 1178 0 
L 603 0 
L 603 4863 
z
" transform="scale(0.015625)"/>
      <path id="DejaVuSans-61" d="M 2194 1759 
Q 1497 1759 1228 1600 
Q 959 1441 959 1056 
Q 959 750 1161 570 
Q 1363 391 1709 391 
Q 2188 391 2477 730 
Q 2766 1069 2766 1631 
L 2766 1759 
L 2194 1759 
z
M 3341 1997 
L 3341 0 
L 2766 0 
L 2766 531 
Q 2569 213 2275 61 
Q 1981 -91 1556 -91 
Q 1019 -91 701 211 
Q 384 513 384 1019 
Q 384 1609 779 1909 
Q 1175 2209 1959 2209 
L 2766 2209 
L 2766 2266 
Q 2766 2663 2505 2880 
Q 2244 3097 1772 3097 
Q 1472 3097 1187 3025 
Q 903 2953 641 2809 
L 641 3341 
Q 956 3463 1253 3523 
Q 1550 3584 1831 3584 
Q 2591 3584 2966 3190 
Q 3341 2797 3341 1997 
z
" transform="scale(0.015625)"/>
      <path id="DejaVuSans-64" d="M 2906 2969 
L 2906 4863 
L 3481 4863 
L 3481 0 
L 2906 0 
L 2906 525 
Q 2725 213 2448 61 
Q 2172 -91 1784 -91 
Q 1150 -91 751 415 
Q 353 922 353 1747 
Q 353 2572 751 3078 
Q 1150 3584 1784 3584 
Q 2172 3584 2448 3432 
Q 2725 3281 2906 2969 
z
M 947 1747 
Q 947 1113 1208 752 
Q 1469 391 1925 391 
Q 2381 391 2643 752 
Q 2906 1113 2906 1747 
Q 2906 2381 2643 2742 
Q 2381 3103 1925 3103 
Q 1469 3103 1208 2742 
Q 947 2381 947 1747 
z
" transform="scale(0.015625)"/>
      <path id="DejaVuSans-20" transform="scale(0.015625)"/>
      <path id="DejaVuSans-76" d="M 191 3500 
L 800 3500 
L 1894 563 
L 2988 3500 
L 3597 3500 
L 2284 0 
L 1503 0 
L 191 3500 
z
" transform="scale(0.015625)"/>
      <path id="DejaVuSans-72" d="M 2631 2963 
Q 2534 3019 2420 3045 
Q 2306 3072 2169 3072 
Q 1681 3072 1420 2755 
Q 1159 2438 1159 1844 
L 1159 0 
L 581 0 
L 581 3500 
L 1159 3500 
L 1159 2956 
Q 1341 3275 1631 3429 
Q 1922 3584 2338 3584 
Q 2397 3584 2469 3576 
Q 2541 3569 2628 3553 
L 2631 2963 
z
" transform="scale(0.015625)"/>
      <path id="DejaVuSans-63" d="M 3122 3366 
L 3122 2828 
Q 2878 2963 2633 3030 
Q 2388 3097 2138 3097 
Q 1578 3097 1268 2742 
Q 959 2388 959 1747 
Q 959 1106 1268 751 
Q 1578 397 2138 397 
Q 2388 397 2633 464 
Q 2878 531 3122 666 
L 3122 134 
Q 2881 22 2623 -34 
Q 2366 -91 2075 -91 
Q 1284 -91 818 406 
Q 353 903 353 1747 
Q 353 2603 823 3093 
Q 1294 3584 2113 3584 
Q 2378 3584 2631 3529 
Q 2884 3475 3122 3366 
z
" transform="scale(0.015625)"/>
     </defs>
     <use xlink:href="#DejaVuSans-65"/>
     <use xlink:href="#DejaVuSans-78" x="59.773438"/>
     <use xlink:href="#DejaVuSans-70" x="118.953125"/>
     <use xlink:href="#DejaVuSans-6c" x="182.429688"/>
     <use xlink:href="#DejaVuSans-61" x="210.212891"/>
     <use xlink:href="#DejaVuSans-69" x="271.492188"/>
     <use xlink:href="#DejaVuSans-6e" x="299.275391"/>
     <use xlink:href="#DejaVuSans-65" x="362.654297"/>
     <use xlink:href="#DejaVuSans-64" x="424.177734"/>
     <use xlink:href="#DejaVuSans-20" x="487.654297"/>
     <use xlink:href="#DejaVuSans-76" x="519.441406"/>
     <use xlink:href="#DejaVuSans-61" x="578.621094"/>
     <use xlink:href="#DejaVuSans-72" x="639.900391"/>
     <use xlink:href="#DejaVuSans-69" x="681.013672"/>
     <use xlink:href="#DejaVuSans-61" x="708.796875"/>
     <use xlink:href="#DejaVuSans-6e" x="770.076172"/>
     <use xlink:href="#DejaVuSans-63" x="833.455078"/>
     <use xlink:href="#DejaVuSans-65" x="888.435547"/>
    </g>
   </g>
  </g>
 </g>
 <defs>
  <clipPath id="p23990a92c2">
   <rect x="394.363636" y="86.4" width="253.636364" height="247.090909"/>
  </clipPath>
  <clipPath id="pfbc1c64393">
   <rect x="394.363636" y="382.909091" width="253.636364" height="247.090909"/>
  </clipPath>
 </defs>
</svg>
