<?xml version="1.0" encoding="utf-8" standalone="no"?>
<!DOCTYPE svg PUBLIC "-//W3C//DTD SVG 1.1//EN"
  "http://www.w3.org/Graphics/SVG/1.1/DTD/svg11.dtd">
<svg xmlns:xlink="http://www.w3.org/1999/xlink" width="720pt" height="720pt" viewBox="0 0 720 720" xmlns="http://www.w3.org/2000/svg" version="1.1">
 <metadata>
  <rdf:RDF xmlns:dc="http://purl.org/dc/elements/1.1/" xmlns:cc="http://creativecommons.org/ns#" xmlns:rdf="http://www.w3.org/1999/02/22-rdf-syntax-ns#">
   <cc:Work>
    <dc:type rdf:resource="http://purl.org/dc/dcmitype/StillImage"/>
    <dc:date>2023-12-19T18:18:07.885943</dc:date>
    <dc:format>image/svg+xml</dc:format>
    <dc:creator>
     <cc:Agent>
      <dc:title>Matplotlib v3.5.2, https://matplotlib.org/</dc:title>
     </cc:Agent>
    </dc:creator>
   </cc:Work>
  </rdf:RDF>
 </metadata>
 <defs>
  <style type="text/css">*{stroke-linejoin: round; stroke-linecap: butt}</style>
 </defs>
 <g id="figure_1">
  <g id="patch_1">
   <path d="M 0 720 
L 720 720 
L 720 0 
L 0 0 
z
" style="fill: #ffffff"/>
  </g>
  <g id="axes_1">
   <g id="patch_2">
    <path d="M 90 333.490909 
L 343.636364 333.490909 
L 343.636364 86.4 
L 90 86.4 
z
" style="fill: #ffffff"/>
   </g>
   <g id="matplotlib.axis_1">
    <g id="xtick_1">
     <g id="line2d_1">
      <defs>
       <path id="m740df66767" d="M 0 0 
L 0 3.5 
" style="stroke: #000000; stroke-width: 0.8"/>
      </defs>
      <g>
       <use xlink:href="#m740df66767" x="90" y="333.490909" style="stroke: #000000; stroke-width: 0.8"/>
      </g>
     </g>
     <g id="text_1">
      <!-- 0.0 -->
      <g transform="translate(82.048438 348.089347)scale(0.1 -0.1)">
       <defs>
        <path id="DejaVuSans-30" d="M 2034 4250 
Q 1547 4250 1301 3770 
Q 1056 3291 1056 2328 
Q 1056 1369 1301 889 
Q 1547 409 2034 409 
Q 2525 409 2770 889 
Q 3016 1369 3016 2328 
Q 3016 3291 2770 3770 
Q 2525 4250 2034 4250 
z
M 2034 4750 
Q 2819 4750 3233 4129 
Q 3647 3509 3647 2328 
Q 3647 1150 3233 529 
Q 2819 -91 2034 -91 
Q 1250 -91 836 529 
Q 422 1150 422 2328 
Q 422 3509 836 4129 
Q 1250 4750 2034 4750 
z
" transform="scale(0.015625)"/>
        <path id="DejaVuSans-2e" d="M 684 794 
L 1344 794 
L 1344 0 
L 684 0 
L 684 794 
z
" transform="scale(0.015625)"/>
       </defs>
       <use xlink:href="#DejaVuSans-30"/>
       <use xlink:href="#DejaVuSans-2e" x="63.623047"/>
       <use xlink:href="#DejaVuSans-30" x="95.410156"/>
      </g>
     </g>
    </g>
    <g id="xtick_2">
     <g id="line2d_2">
      <g>
       <use xlink:href="#m740df66767" x="140.727273" y="333.490909" style="stroke: #000000; stroke-width: 0.8"/>
      </g>
     </g>
     <g id="text_2">
      <!-- 0.2 -->
      <g transform="translate(132.77571 348.089347)scale(0.1 -0.1)">
       <defs>
        <path id="DejaVuSans-32" d="M 1228 531 
L 3431 531 
L 3431 0 
L 469 0 
L 469 531 
Q 828 903 1448 1529 
Q 2069 2156 2228 2338 
Q 2531 2678 2651 2914 
Q 2772 3150 2772 3378 
Q 2772 3750 2511 3984 
Q 2250 4219 1831 4219 
Q 1534 4219 1204 4116 
Q 875 4013 500 3803 
L 500 4441 
Q 881 4594 1212 4672 
Q 1544 4750 1819 4750 
Q 2544 4750 2975 4387 
Q 3406 4025 3406 3419 
Q 3406 3131 3298 2873 
Q 3191 2616 2906 2266 
Q 2828 2175 2409 1742 
Q 1991 1309 1228 531 
z
" transform="scale(0.015625)"/>
       </defs>
       <use xlink:href="#DejaVuSans-30"/>
       <use xlink:href="#DejaVuSans-2e" x="63.623047"/>
       <use xlink:href="#DejaVuSans-32" x="95.410156"/>
      </g>
     </g>
    </g>
    <g id="xtick_3">
     <g id="line2d_3">
      <g>
       <use xlink:href="#m740df66767" x="191.454545" y="333.490909" style="stroke: #000000; stroke-width: 0.8"/>
      </g>
     </g>
     <g id="text_3">
      <!-- 0.4 -->
      <g transform="translate(183.502983 348.089347)scale(0.1 -0.1)">
       <defs>
        <path id="DejaVuSans-34" d="M 2419 4116 
L 825 1625 
L 2419 1625 
L 2419 4116 
z
M 2253 4666 
L 3047 4666 
L 3047 1625 
L 3713 1625 
L 3713 1100 
L 3047 1100 
L 3047 0 
L 2419 0 
L 2419 1100 
L 313 1100 
L 313 1709 
L 2253 4666 
z
" transform="scale(0.015625)"/>
       </defs>
       <use xlink:href="#DejaVuSans-30"/>
       <use xlink:href="#DejaVuSans-2e" x="63.623047"/>
       <use xlink:href="#DejaVuSans-34" x="95.410156"/>
      </g>
     </g>
    </g>
    <g id="xtick_4">
     <g id="line2d_4">
      <g>
       <use xlink:href="#m740df66767" x="242.181818" y="333.490909" style="stroke: #000000; stroke-width: 0.8"/>
      </g>
     </g>
     <g id="text_4">
      <!-- 0.6 -->
      <g transform="translate(234.230256 348.089347)scale(0.1 -0.1)">
       <defs>
        <path id="DejaVuSans-36" d="M 2113 2584 
Q 1688 2584 1439 2293 
Q 1191 2003 1191 1497 
Q 1191 994 1439 701 
Q 1688 409 2113 409 
Q 2538 409 2786 701 
Q 3034 994 3034 1497 
Q 3034 2003 2786 2293 
Q 2538 2584 2113 2584 
z
M 3366 4563 
L 3366 3988 
Q 3128 4100 2886 4159 
Q 2644 4219 2406 4219 
Q 1781 4219 1451 3797 
Q 1122 3375 1075 2522 
Q 1259 2794 1537 2939 
Q 1816 3084 2150 3084 
Q 2853 3084 3261 2657 
Q 3669 2231 3669 1497 
Q 3669 778 3244 343 
Q 2819 -91 2113 -91 
Q 1303 -91 875 529 
Q 447 1150 447 2328 
Q 447 3434 972 4092 
Q 1497 4750 2381 4750 
Q 2619 4750 2861 4703 
Q 3103 4656 3366 4563 
z
" transform="scale(0.015625)"/>
       </defs>
       <use xlink:href="#DejaVuSans-30"/>
       <use xlink:href="#DejaVuSans-2e" x="63.623047"/>
       <use xlink:href="#DejaVuSans-36" x="95.410156"/>
      </g>
     </g>
    </g>
    <g id="xtick_5">
     <g id="line2d_5">
      <g>
       <use xlink:href="#m740df66767" x="292.909091" y="333.490909" style="stroke: #000000; stroke-width: 0.8"/>
      </g>
     </g>
     <g id="text_5">
      <!-- 0.8 -->
      <g transform="translate(284.957528 348.089347)scale(0.1 -0.1)">
       <defs>
        <path id="DejaVuSans-38" d="M 2034 2216 
Q 1584 2216 1326 1975 
Q 1069 1734 1069 1313 
Q 1069 891 1326 650 
Q 1584 409 2034 409 
Q 2484 409 2743 651 
Q 3003 894 3003 1313 
Q 3003 1734 2745 1975 
Q 2488 2216 2034 2216 
z
M 1403 2484 
Q 997 2584 770 2862 
Q 544 3141 544 3541 
Q 544 4100 942 4425 
Q 1341 4750 2034 4750 
Q 2731 4750 3128 4425 
Q 3525 4100 3525 3541 
Q 3525 3141 3298 2862 
Q 3072 2584 2669 2484 
Q 3125 2378 3379 2068 
Q 3634 1759 3634 1313 
Q 3634 634 3220 271 
Q 2806 -91 2034 -91 
Q 1263 -91 848 271 
Q 434 634 434 1313 
Q 434 1759 690 2068 
Q 947 2378 1403 2484 
z
M 1172 3481 
Q 1172 3119 1398 2916 
Q 1625 2713 2034 2713 
Q 2441 2713 2670 2916 
Q 2900 3119 2900 3481 
Q 2900 3844 2670 4047 
Q 2441 4250 2034 4250 
Q 1625 4250 1398 4047 
Q 1172 3844 1172 3481 
z
" transform="scale(0.015625)"/>
       </defs>
       <use xlink:href="#DejaVuSans-30"/>
       <use xlink:href="#DejaVuSans-2e" x="63.623047"/>
       <use xlink:href="#DejaVuSans-38" x="95.410156"/>
      </g>
     </g>
    </g>
    <g id="xtick_6">
     <g id="line2d_6">
      <g>
       <use xlink:href="#m740df66767" x="343.636364" y="333.490909" style="stroke: #000000; stroke-width: 0.8"/>
      </g>
     </g>
     <g id="text_6">
      <!-- 1.0 -->
      <g transform="translate(335.684801 348.089347)scale(0.1 -0.1)">
       <defs>
        <path id="DejaVuSans-31" d="M 794 531 
L 1825 531 
L 1825 4091 
L 703 3866 
L 703 4441 
L 1819 4666 
L 2450 4666 
L 2450 531 
L 3481 531 
L 3481 0 
L 794 0 
L 794 531 
z
" transform="scale(0.015625)"/>
       </defs>
       <use xlink:href="#DejaVuSans-31"/>
       <use xlink:href="#DejaVuSans-2e" x="63.623047"/>
       <use xlink:href="#DejaVuSans-30" x="95.410156"/>
      </g>
     </g>
    </g>
   </g>
   <g id="matplotlib.axis_2">
    <g id="ytick_1">
     <g id="line2d_7">
      <defs>
       <path id="md2c65e9b19" d="M 0 0 
L -3.5 0 
" style="stroke: #000000; stroke-width: 0.8"/>
      </defs>
      <g>
       <use xlink:href="#md2c65e9b19" x="90" y="333.490909" style="stroke: #000000; stroke-width: 0.8"/>
      </g>
     </g>
     <g id="text_7">
      <!-- 0.0 -->
      <g transform="translate(67.096875 337.290128)scale(0.1 -0.1)">
       <use xlink:href="#DejaVuSans-30"/>
       <use xlink:href="#DejaVuSans-2e" x="63.623047"/>
       <use xlink:href="#DejaVuSans-30" x="95.410156"/>
      </g>
     </g>
    </g>
    <g id="ytick_2">
     <g id="line2d_8">
      <g>
       <use xlink:href="#md2c65e9b19" x="90" y="284.072727" style="stroke: #000000; stroke-width: 0.8"/>
      </g>
     </g>
     <g id="text_8">
      <!-- 0.2 -->
      <g transform="translate(67.096875 287.871946)scale(0.1 -0.1)">
       <use xlink:href="#DejaVuSans-30"/>
       <use xlink:href="#DejaVuSans-2e" x="63.623047"/>
       <use xlink:href="#DejaVuSans-32" x="95.410156"/>
      </g>
     </g>
    </g>
    <g id="ytick_3">
     <g id="line2d_9">
      <g>
       <use xlink:href="#md2c65e9b19" x="90" y="234.654545" style="stroke: #000000; stroke-width: 0.8"/>
      </g>
     </g>
     <g id="text_9">
      <!-- 0.4 -->
      <g transform="translate(67.096875 238.453764)scale(0.1 -0.1)">
       <use xlink:href="#DejaVuSans-30"/>
       <use xlink:href="#DejaVuSans-2e" x="63.623047"/>
       <use xlink:href="#DejaVuSans-34" x="95.410156"/>
      </g>
     </g>
    </g>
    <g id="ytick_4">
     <g id="line2d_10">
      <g>
       <use xlink:href="#md2c65e9b19" x="90" y="185.236364" style="stroke: #000000; stroke-width: 0.8"/>
      </g>
     </g>
     <g id="text_10">
      <!-- 0.6 -->
      <g transform="translate(67.096875 189.035582)scale(0.1 -0.1)">
       <use xlink:href="#DejaVuSans-30"/>
       <use xlink:href="#DejaVuSans-2e" x="63.623047"/>
       <use xlink:href="#DejaVuSans-36" x="95.410156"/>
      </g>
     </g>
    </g>
    <g id="ytick_5">
     <g id="line2d_11">
      <g>
       <use xlink:href="#md2c65e9b19" x="90" y="135.818182" style="stroke: #000000; stroke-width: 0.8"/>
      </g>
     </g>
     <g id="text_11">
      <!-- 0.8 -->
      <g transform="translate(67.096875 139.617401)scale(0.1 -0.1)">
       <use xlink:href="#DejaVuSans-30"/>
       <use xlink:href="#DejaVuSans-2e" x="63.623047"/>
       <use xlink:href="#DejaVuSans-38" x="95.410156"/>
      </g>
     </g>
    </g>
    <g id="ytick_6">
     <g id="line2d_12">
      <g>
       <use xlink:href="#md2c65e9b19" x="90" y="86.4" style="stroke: #000000; stroke-width: 0.8"/>
      </g>
     </g>
     <g id="text_12">
      <!-- 1.0 -->
      <g transform="translate(67.096875 90.199219)scale(0.1 -0.1)">
       <use xlink:href="#DejaVuSans-31"/>
       <use xlink:href="#DejaVuSans-2e" x="63.623047"/>
       <use xlink:href="#DejaVuSans-30" x="95.410156"/>
      </g>
     </g>
    </g>
   </g>
   <g id="patch_3">
    <path d="M 90 333.490909 
L 90 86.4 
" style="fill: none; stroke: #000000; stroke-width: 0.8; stroke-linejoin: miter; stroke-linecap: square"/>
   </g>
   <g id="patch_4">
    <path d="M 343.636364 333.490909 
L 343.636364 86.4 
" style="fill: none; stroke: #000000; stroke-width: 0.8; stroke-linejoin: miter; stroke-linecap: square"/>
   </g>
   <g id="patch_5">
    <path d="M 90 333.490909 
L 343.636364 333.490909 
" style="fill: none; stroke: #000000; stroke-width: 0.8; stroke-linejoin: miter; stroke-linecap: square"/>
   </g>
   <g id="patch_6">
    <path d="M 90 86.4 
L 343.636364 86.4 
" style="fill: none; stroke: #000000; stroke-width: 0.8; stroke-linejoin: miter; stroke-linecap: square"/>
   </g>
  </g>
  <g id="axes_2">
   <g id="patch_7">
    <path d="M 394.363636 333.490909 
L 648 333.490909 
L 648 86.4 
L 394.363636 86.4 
z
" style="fill: #ffffff"/>
   </g>
   <g id="PolyCollection_1">
    <defs>
     <path id="macf02d2963" d="M 405.892562 -622.368595 
L 405.892562 -607.022612 
L 407.342741 -604.264371 
L 408.792921 -599.39429 
L 410.2431 -592.209596 
L 411.693279 -587.169432 
L 413.143459 -581.381629 
L 414.593638 -579.039552 
L 416.043817 -573.899335 
L 417.493997 -568.797624 
L 418.944176 -562.849416 
L 420.394355 -555.446943 
L 421.844535 -546.71066 
L 423.294714 -539.761979 
L 424.744893 -532.153801 
L 426.195073 -524.908419 
L 427.645252 -517.10726 
L 429.095431 -510.964582 
L 430.54561 -504.157207 
L 431.99579 -497.897093 
L 433.445969 -492.260307 
L 434.896148 -487.006175 
L 436.346328 -482.906598 
L 437.796507 -482.363098 
L 439.246686 -476.312426 
L 440.696866 -475.915946 
L 442.147045 -474.427612 
L 443.597224 -474.236555 
L 445.047404 -471.1766 
L 446.497583 -475.806375 
L 447.947762 -472.426403 
L 449.397942 -472.285684 
L 450.848121 -475.568588 
L 452.2983 -475.605915 
L 453.74848 -476.478006 
L 455.198659 -473.546558 
L 456.648838 -474.876582 
L 458.099018 -473.277684 
L 459.549197 -474.741019 
L 460.999376 -472.787299 
L 462.449556 -471.758397 
L 463.899735 -471.838509 
L 465.349914 -472.601082 
L 466.800094 -467.903182 
L 468.250273 -474.616985 
L 469.700452 -476.285001 
L 471.150632 -478.534672 
L 472.600811 -475.263195 
L 474.05099 -476.56124 
L 475.501169 -479.034497 
L 476.951349 -477.371901 
L 478.401528 -476.960671 
L 479.851707 -477.809183 
L 481.301887 -474.886887 
L 482.752066 -479.504392 
L 484.202245 -480.217427 
L 485.652425 -481.327521 
L 487.102604 -478.334531 
L 488.552783 -477.682732 
L 490.002963 -477.965796 
L 491.453142 -474.449089 
L 492.903321 -471.666119 
L 494.353501 -470.076284 
L 495.80368 -469.395973 
L 497.253859 -469.173443 
L 498.704039 -469.11732 
L 500.154218 -469.106042 
L 501.604397 -469.104556 
L 503.054577 -469.10508 
L 504.504756 -469.107584 
L 505.954935 -469.11677 
L 507.405115 -469.142162 
L 508.855294 -469.193931 
L 510.305473 -469.267659 
L 511.755653 -469.32748 
L 513.205832 -468.276474 
L 514.656011 -469.110655 
L 516.106191 -468.392203 
L 517.55637 -467.533722 
L 519.006549 -465.718139 
L 520.456729 -462.459795 
L 521.906908 -457.160132 
L 523.357087 -453.555783 
L 524.807266 -453.162833 
L 526.257446 -448.362286 
L 527.707625 -449.948115 
L 529.157804 -442.270422 
L 530.607984 -438.320181 
L 532.058163 -436.132408 
L 533.508342 -435.314248 
L 534.958522 -434.739005 
L 536.408701 -432.134373 
L 537.85888 -431.274959 
L 539.30906 -429.254746 
L 540.759239 -426.961861 
L 542.209418 -425.315983 
L 543.659598 -422.129339 
L 545.109777 -420.446069 
L 546.559956 -420.941961 
L 548.010136 -421.366986 
L 549.460315 -422.091491 
L 550.910494 -423.174458 
L 552.360674 -423.904516 
L 553.810853 -423.888733 
L 555.261032 -424.059116 
L 556.711212 -423.17337 
L 558.161391 -420.893433 
L 559.61157 -419.964499 
L 561.06175 -417.915051 
L 562.511929 -416.497325 
L 563.962108 -414.686316 
L 565.412288 -412.338435 
L 566.862467 -408.359564 
L 568.312646 -405.490539 
L 569.762826 -403.371126 
L 571.213005 -402.782437 
L 572.663184 -404.728498 
L 574.113363 -407.601368 
L 575.563543 -411.013367 
L 577.013722 -411.43638 
L 578.463901 -412.933173 
L 579.914081 -414.038504 
L 581.36426 -419.100425 
L 582.814439 -427.271525 
L 584.264619 -444.56968 
L 585.714798 -454.919714 
L 587.164977 -462.415184 
L 588.615157 -466.566548 
L 590.065336 -468.33706 
L 591.515515 -468.920943 
L 592.965695 -469.070087 
L 594.415874 -469.106361 
L 595.866053 -469.152928 
L 597.316233 -469.364788 
L 598.766412 -470.196285 
L 600.216591 -472.727777 
L 601.666771 -478.695024 
L 603.11695 -489.504215 
L 604.567129 -504.291223 
L 606.017309 -500.388503 
L 607.467488 -508.881259 
L 608.917667 -507.744946 
L 610.367847 -500.193867 
L 611.818026 -499.852644 
L 613.268205 -486.169401 
L 614.718385 -476.84098 
L 616.168564 -471.94236 
L 617.618743 -469.939671 
L 619.068923 -469.299541 
L 620.519102 -469.14009 
L 621.969281 -469.109044 
L 623.41946 -469.104462 
L 624.86964 -469.104462 
L 626.319819 -469.104462 
L 627.769998 -469.104462 
L 629.220178 -469.104462 
L 630.670357 -469.104462 
L 632.120536 -469.104462 
L 633.570716 -469.104462 
L 635.020895 -469.104462 
L 636.471074 -469.104462 
L 636.471074 -469.104462 
L 636.471074 -469.104462 
L 635.020895 -469.104462 
L 633.570716 -469.104462 
L 632.120536 -469.104462 
L 630.670357 -469.104462 
L 629.220178 -469.104462 
L 627.769998 -469.104462 
L 626.319819 -469.104462 
L 624.86964 -469.104462 
L 623.41946 -469.104462 
L 621.969281 -469.109044 
L 620.519102 -469.14009 
L 619.068923 -469.299541 
L 617.618743 -469.939671 
L 616.168564 -471.94236 
L 614.718385 -476.84098 
L 613.268205 -486.169401 
L 611.818026 -499.852644 
L 610.367847 -529.391747 
L 608.917667 -543.270818 
L 607.467488 -545.421862 
L 606.017309 -537.234564 
L 604.567129 -504.291223 
L 603.11695 -489.504215 
L 601.666771 -478.695024 
L 600.216591 -472.727777 
L 598.766412 -470.196285 
L 597.316233 -469.364788 
L 595.866053 -469.152928 
L 594.415874 -469.106361 
L 592.965695 -469.070087 
L 591.515515 -468.920943 
L 590.065336 -468.33706 
L 588.615157 -466.566548 
L 587.164977 -462.415184 
L 585.714798 -454.919714 
L 584.264619 -444.56968 
L 582.814439 -440.276881 
L 581.36426 -431.83773 
L 579.914081 -427.910841 
L 578.463901 -425.75417 
L 577.013722 -425.727474 
L 575.563543 -423.311359 
L 574.113363 -421.785133 
L 572.663184 -418.903261 
L 571.213005 -416.636817 
L 569.762826 -415.389662 
L 568.312646 -416.528178 
L 566.862467 -419.371574 
L 565.412288 -421.5038 
L 563.962108 -424.419603 
L 562.511929 -426.882899 
L 561.06175 -429.158081 
L 559.61157 -430.664427 
L 558.161391 -433.299179 
L 556.711212 -434.250612 
L 555.261032 -435.687877 
L 553.810853 -436.924393 
L 552.360674 -436.663427 
L 550.910494 -435.897458 
L 549.460315 -434.523407 
L 548.010136 -432.667862 
L 546.559956 -431.688839 
L 545.109777 -432.969744 
L 543.659598 -434.118887 
L 542.209418 -434.578017 
L 540.759239 -436.254109 
L 539.30906 -436.939511 
L 537.85888 -438.279877 
L 536.408701 -441.375979 
L 534.958522 -442.506043 
L 533.508342 -444.65767 
L 532.058163 -446.205625 
L 530.607984 -447.840389 
L 529.157804 -450.136544 
L 527.707625 -449.948115 
L 526.257446 -458.184721 
L 524.807266 -458.426642 
L 523.357087 -462.438171 
L 521.906908 -463.780628 
L 520.456729 -463.966601 
L 519.006549 -465.718139 
L 517.55637 -467.533722 
L 516.106191 -468.798755 
L 514.656011 -469.110655 
L 513.205832 -470.336225 
L 511.755653 -469.32748 
L 510.305473 -469.267659 
L 508.855294 -469.193931 
L 507.405115 -469.142162 
L 505.954935 -469.11677 
L 504.504756 -469.107584 
L 503.054577 -469.10508 
L 501.604397 -469.104556 
L 500.154218 -469.106042 
L 498.704039 -469.11732 
L 497.253859 -469.173443 
L 495.80368 -469.395973 
L 494.353501 -470.076284 
L 492.903321 -471.666119 
L 491.453142 -474.449089 
L 490.002963 -477.965796 
L 488.552783 -484.089553 
L 487.102604 -485.610694 
L 485.652425 -481.327521 
L 484.202245 -480.217427 
L 482.752066 -479.504392 
L 481.301887 -482.822311 
L 479.851707 -477.809183 
L 478.401528 -476.960671 
L 476.951349 -477.371901 
L 475.501169 -479.034497 
L 474.05099 -484.468495 
L 472.600811 -485.443514 
L 471.150632 -478.534672 
L 469.700452 -476.285001 
L 468.250273 -474.616985 
L 466.800094 -479.160643 
L 465.349914 -472.601082 
L 463.899735 -471.838509 
L 462.449556 -471.758397 
L 460.999376 -472.787299 
L 459.549197 -474.741019 
L 458.099018 -480.26945 
L 456.648838 -480.855658 
L 455.198659 -481.62378 
L 453.74848 -476.478006 
L 452.2983 -475.605915 
L 450.848121 -475.568588 
L 449.397942 -479.786973 
L 447.947762 -480.074629 
L 446.497583 -475.806375 
L 445.047404 -478.674112 
L 443.597224 -474.236555 
L 442.147045 -474.427612 
L 440.696866 -475.915946 
L 439.246686 -481.044348 
L 437.796507 -482.363098 
L 436.346328 -490.120508 
L 434.896148 -494.53982 
L 433.445969 -497.955537 
L 431.99579 -501.88775 
L 430.54561 -507.058296 
L 429.095431 -513.731164 
L 427.645252 -522.297958 
L 426.195073 -529.468104 
L 424.744893 -537.254477 
L 423.294714 -545.220232 
L 421.844535 -554.674558 
L 420.394355 -562.61773 
L 418.944176 -570.96178 
L 417.493997 -578.644763 
L 416.043817 -584.578173 
L 414.593638 -588.550875 
L 413.143459 -595.081212 
L 411.693279 -599.611961 
L 410.2431 -606.797021 
L 408.792921 -612.495093 
L 407.342741 -618.675182 
L 405.892562 -622.368595 
z
" style="stroke: #9467bd; stroke-opacity: 0.2"/>
    </defs>
    <g clip-path="url(#pe5c6182cdc)">
     <use xlink:href="#macf02d2963" x="0" y="720" style="fill: #9467bd; fill-opacity: 0.2; stroke: #9467bd; stroke-opacity: 0.2"/>
    </g>
   </g>
   <g id="PolyCollection_2">
    <defs>
     <path id="m7b367fc6cd" d="M 405.892562 -469.104462 
L 405.892562 -469.104462 
L 407.342741 -469.104462 
L 408.792921 -469.104462 
L 410.2431 -469.104462 
L 411.693279 -469.104462 
L 413.143459 -469.104462 
L 414.593638 -469.104462 
L 416.043817 -469.104462 
L 417.493997 -469.104462 
L 418.944176 -469.104462 
L 420.394355 -469.104462 
L 421.844535 -469.104462 
L 423.294714 -469.104462 
L 424.744893 -469.104462 
L 426.195073 -469.104462 
L 427.645252 -469.104462 
L 429.095431 -469.104462 
L 430.54561 -469.104462 
L 431.99579 -469.104462 
L 433.445969 -469.104462 
L 434.896148 -469.104462 
L 436.346328 -469.104462 
L 437.796507 -469.104462 
L 439.246686 -469.104462 
L 440.696866 -469.104462 
L 442.147045 -469.104462 
L 443.597224 -469.104462 
L 445.047404 -469.104462 
L 446.497583 -469.104462 
L 447.947762 -469.104462 
L 449.397942 -469.104462 
L 450.848121 -469.104462 
L 452.2983 -469.104462 
L 453.74848 -469.104462 
L 455.198659 -469.104462 
L 456.648838 -469.104462 
L 458.099018 -469.104462 
L 459.549197 -469.104462 
L 460.999376 -469.104462 
L 462.449556 -469.104462 
L 463.899735 -469.104462 
L 465.349914 -469.104462 
L 466.800094 -469.102737 
L 468.250273 -469.092688 
L 469.700452 -469.043916 
L 471.150632 -468.861153 
L 472.600811 -468.339812 
L 474.05099 -467.223325 
L 475.501169 -465.477675 
L 476.951349 -463.617602 
L 478.401528 -458.829098 
L 479.851707 -461.272456 
L 481.301887 -464.604857 
L 482.752066 -466.48608 
L 484.202245 -467.900598 
L 485.652425 -468.666785 
L 487.102604 -468.978593 
L 488.552783 -469.075832 
L 490.002963 -469.099314 
L 491.453142 -469.103937 
L 492.903321 -469.104462 
L 494.353501 -469.104462 
L 495.80368 -469.104462 
L 497.253859 -469.104462 
L 498.704039 -469.107021 
L 500.154218 -469.121151 
L 501.604397 -469.189217 
L 503.054577 -469.439676 
L 504.504756 -470.136995 
L 505.954935 -471.582597 
L 507.405115 -473.740605 
L 508.855294 -475.882385 
L 510.305473 -464.024367 
L 511.755653 -476.422279 
L 513.205832 -475.19929 
L 514.656011 -474.477081 
L 516.106191 -474.638597 
L 517.55637 -468.801785 
L 519.006549 -470.773537 
L 520.456729 -473.215931 
L 521.906908 -471.587184 
L 523.357087 -470.292708 
L 524.807266 -469.554576 
L 526.257446 -469.239159 
L 527.707625 -469.136267 
L 529.157804 -469.110379 
L 530.607984 -469.105183 
L 532.058163 -469.104462 
L 533.508342 -469.104462 
L 534.958522 -469.104462 
L 536.408701 -469.104462 
L 537.85888 -469.104462 
L 539.30906 -469.104462 
L 540.759239 -469.104462 
L 542.209418 -469.104462 
L 543.659598 -469.104462 
L 545.109777 -469.104462 
L 546.559956 -469.104462 
L 548.010136 -469.104462 
L 549.460315 -469.104462 
L 550.910494 -469.104462 
L 552.360674 -469.104462 
L 553.810853 -469.104462 
L 555.261032 -469.104462 
L 556.711212 -469.104462 
L 558.161391 -469.104462 
L 559.61157 -469.104462 
L 561.06175 -469.104462 
L 562.511929 -469.104462 
L 563.962108 -469.104462 
L 565.412288 -469.104462 
L 566.862467 -469.104462 
L 568.312646 -469.104462 
L 569.762826 -469.104462 
L 571.213005 -469.104462 
L 572.663184 -469.104462 
L 574.113363 -469.104462 
L 575.563543 -469.104462 
L 577.013722 -469.104462 
L 578.463901 -469.104462 
L 579.914081 -469.104462 
L 581.36426 -469.104462 
L 582.814439 -469.104462 
L 584.264619 -469.104462 
L 585.714798 -469.104462 
L 587.164977 -469.104462 
L 588.615157 -469.104462 
L 590.065336 -469.104462 
L 591.515515 -469.104462 
L 592.965695 -469.104462 
L 594.415874 -469.104462 
L 595.866053 -469.104462 
L 597.316233 -469.104462 
L 598.766412 -469.104462 
L 600.216591 -469.104462 
L 601.666771 -469.104462 
L 603.11695 -469.104462 
L 604.567129 -469.104462 
L 606.017309 -469.104462 
L 607.467488 -469.104462 
L 608.917667 -469.104462 
L 610.367847 -469.104462 
L 611.818026 -469.111033 
L 613.268205 -469.14731 
L 614.718385 -469.329558 
L 616.168564 -470.019843 
L 617.618743 -472.049222 
L 619.068923 -476.687668 
L 620.519102 -485.028225 
L 621.969281 -497.0304 
L 623.41946 -496.043518 
L 624.86964 -525.120616 
L 626.319819 -521.1455 
L 627.769998 -532.457247 
L 629.220178 -535.225371 
L 630.670357 -554.14507 
L 632.120536 -553.151633 
L 633.570716 -567.337552 
L 635.020895 -571.051846 
L 636.471074 -570.665856 
L 636.471074 -602.553926 
L 636.471074 -602.553926 
L 635.020895 -592.380339 
L 633.570716 -578.384131 
L 632.120536 -572.028838 
L 630.670357 -554.14507 
L 629.220178 -562.070279 
L 627.769998 -555.216104 
L 626.319819 -551.684723 
L 624.86964 -525.120616 
L 623.41946 -526.339503 
L 621.969281 -497.0304 
L 620.519102 -485.028225 
L 619.068923 -476.687668 
L 617.618743 -472.049222 
L 616.168564 -470.019843 
L 614.718385 -469.329558 
L 613.268205 -469.14731 
L 611.818026 -469.111033 
L 610.367847 -469.104462 
L 608.917667 -469.104462 
L 607.467488 -469.104462 
L 606.017309 -469.104462 
L 604.567129 -469.104462 
L 603.11695 -469.104462 
L 601.666771 -469.104462 
L 600.216591 -469.104462 
L 598.766412 -469.104462 
L 597.316233 -469.104462 
L 595.866053 -469.104462 
L 594.415874 -469.104462 
L 592.965695 -469.104462 
L 591.515515 -469.104462 
L 590.065336 -469.104462 
L 588.615157 -469.104462 
L 587.164977 -469.104462 
L 585.714798 -469.104462 
L 584.264619 -469.104462 
L 582.814439 -469.104462 
L 581.36426 -469.104462 
L 579.914081 -469.104462 
L 578.463901 -469.104462 
L 577.013722 -469.104462 
L 575.563543 -469.104462 
L 574.113363 -469.104462 
L 572.663184 -469.104462 
L 571.213005 -469.104462 
L 569.762826 -469.104462 
L 568.312646 -469.104462 
L 566.862467 -469.104462 
L 565.412288 -469.104462 
L 563.962108 -469.104462 
L 562.511929 -469.104462 
L 561.06175 -469.104462 
L 559.61157 -469.104462 
L 558.161391 -469.104462 
L 556.711212 -469.104462 
L 555.261032 -469.104462 
L 553.810853 -469.104462 
L 552.360674 -469.104462 
L 550.910494 -469.104462 
L 549.460315 -469.104462 
L 548.010136 -469.104462 
L 546.559956 -469.104462 
L 545.109777 -469.104462 
L 543.659598 -469.104462 
L 542.209418 -469.104462 
L 540.759239 -469.104462 
L 539.30906 -469.104462 
L 537.85888 -469.104462 
L 536.408701 -469.104462 
L 534.958522 -469.104462 
L 533.508342 -469.104462 
L 532.058163 -469.104462 
L 530.607984 -469.105183 
L 529.157804 -469.110379 
L 527.707625 -469.136267 
L 526.257446 -469.239159 
L 524.807266 -469.554576 
L 523.357087 -470.292708 
L 521.906908 -471.587184 
L 520.456729 -473.215931 
L 519.006549 -478.299618 
L 517.55637 -481.118728 
L 516.106191 -474.638597 
L 514.656011 -474.477081 
L 513.205832 -475.19929 
L 511.755653 -476.422279 
L 510.305473 -489.80964 
L 508.855294 -475.882385 
L 507.405115 -473.740605 
L 505.954935 -471.582597 
L 504.504756 -470.136995 
L 503.054577 -469.439676 
L 501.604397 -469.189217 
L 500.154218 -469.121151 
L 498.704039 -469.107021 
L 497.253859 -469.104462 
L 495.80368 -469.104462 
L 494.353501 -469.104462 
L 492.903321 -469.104462 
L 491.453142 -469.103937 
L 490.002963 -469.099314 
L 488.552783 -469.075832 
L 487.102604 -468.978593 
L 485.652425 -468.666785 
L 484.202245 -467.900598 
L 482.752066 -466.48608 
L 481.301887 -464.604857 
L 479.851707 -464.731483 
L 478.401528 -466.334118 
L 476.951349 -463.617602 
L 475.501169 -465.477675 
L 474.05099 -467.223325 
L 472.600811 -468.339812 
L 471.150632 -468.861153 
L 469.700452 -469.043916 
L 468.250273 -469.092688 
L 466.800094 -469.102737 
L 465.349914 -469.104462 
L 463.899735 -469.104462 
L 462.449556 -469.104462 
L 460.999376 -469.104462 
L 459.549197 -469.104462 
L 458.099018 -469.104462 
L 456.648838 -469.104462 
L 455.198659 -469.104462 
L 453.74848 -469.104462 
L 452.2983 -469.104462 
L 450.848121 -469.104462 
L 449.397942 -469.104462 
L 447.947762 -469.104462 
L 446.497583 -469.104462 
L 445.047404 -469.104462 
L 443.597224 -469.104462 
L 442.147045 -469.104462 
L 440.696866 -469.104462 
L 439.246686 -469.104462 
L 437.796507 -469.104462 
L 436.346328 -469.104462 
L 434.896148 -469.104462 
L 433.445969 -469.104462 
L 431.99579 -469.104462 
L 430.54561 -469.104462 
L 429.095431 -469.104462 
L 427.645252 -469.104462 
L 426.195073 -469.104462 
L 424.744893 -469.104462 
L 423.294714 -469.104462 
L 421.844535 -469.104462 
L 420.394355 -469.104462 
L 418.944176 -469.104462 
L 417.493997 -469.104462 
L 416.043817 -469.104462 
L 414.593638 -469.104462 
L 413.143459 -469.104462 
L 411.693279 -469.104462 
L 410.2431 -469.104462 
L 408.792921 -469.104462 
L 407.342741 -469.104462 
L 405.892562 -469.104462 
z
" style="stroke: #1f77b4; stroke-opacity: 0.2"/>
    </defs>
    <g clip-path="url(#pe5c6182cdc)">
     <use xlink:href="#m7b367fc6cd" x="0" y="720" style="fill: #1f77b4; fill-opacity: 0.2; stroke: #1f77b4; stroke-opacity: 0.2"/>
    </g>
   </g>
   <g id="PolyCollection_3">
    <defs>
     <path id="mf59f3d1963" d="M 405.892562 -469.104462 
L 405.892562 -469.104462 
L 407.342741 -469.104462 
L 408.792921 -469.104462 
L 410.2431 -469.104462 
L 411.693279 -469.104462 
L 413.143459 -469.104462 
L 414.593638 -469.104462 
L 416.043817 -469.104462 
L 417.493997 -469.104462 
L 418.944176 -469.104462 
L 420.394355 -469.104462 
L 421.844535 -469.104462 
L 423.294714 -469.104462 
L 424.744893 -469.104462 
L 426.195073 -469.104462 
L 427.645252 -469.104462 
L 429.095431 -469.104462 
L 430.54561 -469.104462 
L 431.99579 -469.104462 
L 433.445969 -469.104462 
L 434.896148 -469.104462 
L 436.346328 -469.104462 
L 437.796507 -469.104462 
L 439.246686 -469.104462 
L 440.696866 -469.104462 
L 442.147045 -469.104462 
L 443.597224 -469.104462 
L 445.047404 -469.104462 
L 446.497583 -469.104462 
L 447.947762 -469.104462 
L 449.397942 -469.104462 
L 450.848121 -469.104462 
L 452.2983 -469.104462 
L 453.74848 -469.104462 
L 455.198659 -469.104462 
L 456.648838 -469.104462 
L 458.099018 -469.104462 
L 459.549197 -469.104462 
L 460.999376 -469.104462 
L 462.449556 -469.104462 
L 463.899735 -469.104462 
L 465.349914 -469.104462 
L 466.800094 -469.104462 
L 468.250273 -469.104462 
L 469.700452 -469.104462 
L 471.150632 -469.104462 
L 472.600811 -469.104462 
L 474.05099 -469.104462 
L 475.501169 -469.104462 
L 476.951349 -469.104462 
L 478.401528 -469.104462 
L 479.851707 -469.104462 
L 481.301887 -469.104462 
L 482.752066 -469.104462 
L 484.202245 -469.104462 
L 485.652425 -469.104462 
L 487.102604 -469.104462 
L 488.552783 -469.104462 
L 490.002963 -469.104462 
L 491.453142 -469.103642 
L 492.903321 -469.099118 
L 494.353501 -469.077323 
L 495.80368 -468.997128 
L 497.253859 -468.773851 
L 498.704039 -468.311368 
L 500.154218 -467.622767 
L 501.604397 -466.948609 
L 503.054577 -463.251497 
L 504.504756 -466.943114 
L 505.954935 -467.59486 
L 507.405115 -468.200991 
L 508.855294 -468.433867 
L 510.305473 -468.181549 
L 511.755653 -467.553621 
L 513.205832 -466.882144 
L 514.656011 -463.872872 
L 516.106191 -466.890704 
L 517.55637 -467.601727 
L 519.006549 -468.395363 
L 520.456729 -469.185617 
L 521.906908 -470.291286 
L 523.357087 -472.188378 
L 524.807266 -474.912619 
L 526.257446 -477.562434 
L 527.707625 -472.067584 
L 529.157804 -477.563277 
L 530.607984 -474.918115 
L 532.058163 -472.216286 
L 533.508342 -470.401663 
L 534.958522 -469.525601 
L 536.408701 -469.210942 
L 537.85888 -469.125429 
L 539.30906 -469.107677 
L 540.759239 -469.104462 
L 542.209418 -469.104462 
L 543.659598 -469.104462 
L 545.109777 -469.104462 
L 546.559956 -469.104462 
L 548.010136 -469.104462 
L 549.460315 -469.104462 
L 550.910494 -469.104462 
L 552.360674 -469.104462 
L 553.810853 -469.104462 
L 555.261032 -469.104462 
L 556.711212 -469.104462 
L 558.161391 -469.104462 
L 559.61157 -469.104462 
L 561.06175 -469.104462 
L 562.511929 -469.104462 
L 563.962108 -469.104462 
L 565.412288 -469.104462 
L 566.862467 -469.104462 
L 568.312646 -469.104462 
L 569.762826 -469.104462 
L 571.213005 -469.104462 
L 572.663184 -469.104462 
L 574.113363 -469.104462 
L 575.563543 -469.104462 
L 577.013722 -469.104462 
L 578.463901 -469.104462 
L 579.914081 -469.104462 
L 581.36426 -469.104462 
L 582.814439 -469.104462 
L 584.264619 -469.104462 
L 585.714798 -469.099552 
L 587.164977 -469.072445 
L 588.615157 -468.936611 
L 590.065336 -468.422086 
L 591.515515 -466.910614 
L 592.965695 -463.450885 
L 594.415874 -457.200244 
L 595.866053 -448.0445 
L 597.316233 -429.326888 
L 598.766412 -424.629436 
L 600.216591 -405.729507 
L 601.666771 -399.193423 
L 603.11695 -400.371358 
L 604.567129 -408.952706 
L 606.017309 -430.159479 
L 607.467488 -439.557013 
L 608.917667 -440.114439 
L 610.367847 -431.472958 
L 611.818026 -411.551416 
L 613.268205 -399.576108 
L 614.718385 -397.740496 
L 616.168564 -399.946093 
L 617.618743 -409.107918 
L 619.068923 -420.75321 
L 620.519102 -437.548002 
L 621.969281 -440.989727 
L 623.41946 -455.90621 
L 624.86964 -461.892431 
L 626.319819 -465.745858 
L 627.769998 -467.814318 
L 629.220178 -468.705356 
L 630.670357 -469.006717 
L 632.120536 -469.085818 
L 633.570716 -469.101602 
L 635.020895 -469.104462 
L 636.471074 -469.104462 
L 636.471074 -469.104462 
L 636.471074 -469.104462 
L 635.020895 -469.104462 
L 633.570716 -469.101602 
L 632.120536 -469.085818 
L 630.670357 -469.006717 
L 629.220178 -468.705356 
L 627.769998 -467.814318 
L 626.319819 -465.745858 
L 624.86964 -461.892431 
L 623.41946 -455.90621 
L 621.969281 -454.480191 
L 620.519102 -437.548002 
L 619.068923 -431.316165 
L 617.618743 -420.558489 
L 616.168564 -412.868736 
L 614.718385 -409.080656 
L 613.268205 -415.732905 
L 611.818026 -425.366804 
L 610.367847 -431.472958 
L 608.917667 -440.114439 
L 607.467488 -439.557013 
L 606.017309 -430.159479 
L 604.567129 -425.917646 
L 603.11695 -416.493232 
L 601.666771 -415.478151 
L 600.216591 -421.826183 
L 598.766412 -424.629436 
L 597.316233 -444.155749 
L 595.866053 -448.0445 
L 594.415874 -457.200244 
L 592.965695 -463.450885 
L 591.515515 -466.910614 
L 590.065336 -468.422086 
L 588.615157 -468.936611 
L 587.164977 -469.072445 
L 585.714798 -469.099552 
L 584.264619 -469.104462 
L 582.814439 -469.104462 
L 581.36426 -469.104462 
L 579.914081 -469.104462 
L 578.463901 -469.104462 
L 577.013722 -469.104462 
L 575.563543 -469.104462 
L 574.113363 -469.104462 
L 572.663184 -469.104462 
L 571.213005 -469.104462 
L 569.762826 -469.104462 
L 568.312646 -469.104462 
L 566.862467 -469.104462 
L 565.412288 -469.104462 
L 563.962108 -469.104462 
L 562.511929 -469.104462 
L 561.06175 -469.104462 
L 559.61157 -469.104462 
L 558.161391 -469.104462 
L 556.711212 -469.104462 
L 555.261032 -469.104462 
L 553.810853 -469.104462 
L 552.360674 -469.104462 
L 550.910494 -469.104462 
L 549.460315 -469.104462 
L 548.010136 -469.104462 
L 546.559956 -469.104462 
L 545.109777 -469.104462 
L 543.659598 -469.104462 
L 542.209418 -469.104462 
L 540.759239 -469.104462 
L 539.30906 -469.107677 
L 537.85888 -469.125429 
L 536.408701 -469.210942 
L 534.958522 -469.525601 
L 533.508342 -470.401663 
L 532.058163 -472.216286 
L 530.607984 -474.918115 
L 529.157804 -477.563277 
L 527.707625 -485.311526 
L 526.257446 -477.562434 
L 524.807266 -474.912619 
L 523.357087 -472.188378 
L 521.906908 -470.291286 
L 520.456729 -469.185617 
L 519.006549 -468.395363 
L 517.55637 -467.601727 
L 516.106191 -466.890704 
L 514.656011 -469.310092 
L 513.205832 -466.882144 
L 511.755653 -467.553621 
L 510.305473 -468.181549 
L 508.855294 -468.433867 
L 507.405115 -468.200991 
L 505.954935 -467.59486 
L 504.504756 -466.943114 
L 503.054577 -470.069938 
L 501.604397 -466.948609 
L 500.154218 -467.622767 
L 498.704039 -468.311368 
L 497.253859 -468.773851 
L 495.80368 -468.997128 
L 494.353501 -469.077323 
L 492.903321 -469.099118 
L 491.453142 -469.103642 
L 490.002963 -469.104462 
L 488.552783 -469.104462 
L 487.102604 -469.104462 
L 485.652425 -469.104462 
L 484.202245 -469.104462 
L 482.752066 -469.104462 
L 481.301887 -469.104462 
L 479.851707 -469.104462 
L 478.401528 -469.104462 
L 476.951349 -469.104462 
L 475.501169 -469.104462 
L 474.05099 -469.104462 
L 472.600811 -469.104462 
L 471.150632 -469.104462 
L 469.700452 -469.104462 
L 468.250273 -469.104462 
L 466.800094 -469.104462 
L 465.349914 -469.104462 
L 463.899735 -469.104462 
L 462.449556 -469.104462 
L 460.999376 -469.104462 
L 459.549197 -469.104462 
L 458.099018 -469.104462 
L 456.648838 -469.104462 
L 455.198659 -469.104462 
L 453.74848 -469.104462 
L 452.2983 -469.104462 
L 450.848121 -469.104462 
L 449.397942 -469.104462 
L 447.947762 -469.104462 
L 446.497583 -469.104462 
L 445.047404 -469.104462 
L 443.597224 -469.104462 
L 442.147045 -469.104462 
L 440.696866 -469.104462 
L 439.246686 -469.104462 
L 437.796507 -469.104462 
L 436.346328 -469.104462 
L 434.896148 -469.104462 
L 433.445969 -469.104462 
L 431.99579 -469.104462 
L 430.54561 -469.104462 
L 429.095431 -469.104462 
L 427.645252 -469.104462 
L 426.195073 -469.104462 
L 424.744893 -469.104462 
L 423.294714 -469.104462 
L 421.844535 -469.104462 
L 420.394355 -469.104462 
L 418.944176 -469.104462 
L 417.493997 -469.104462 
L 416.043817 -469.104462 
L 414.593638 -469.104462 
L 413.143459 -469.104462 
L 411.693279 -469.104462 
L 410.2431 -469.104462 
L 408.792921 -469.104462 
L 407.342741 -469.104462 
L 405.892562 -469.104462 
z
" style="stroke: #d62728; stroke-opacity: 0.2"/>
    </defs>
    <g clip-path="url(#pe5c6182cdc)">
     <use xlink:href="#mf59f3d1963" x="0" y="720" style="fill: #d62728; fill-opacity: 0.2; stroke: #d62728; stroke-opacity: 0.2"/>
    </g>
   </g>
   <g id="PolyCollection_4">
    <defs>
     <path id="md0f7c4e6c6" d="M 405.892562 -469.104462 
L 405.892562 -469.104462 
L 407.342741 -469.104462 
L 408.792921 -469.104462 
L 410.2431 -469.104462 
L 411.693279 -469.104462 
L 413.143459 -469.104462 
L 414.593638 -469.104462 
L 416.043817 -469.104462 
L 417.493997 -469.104462 
L 418.944176 -469.104462 
L 420.394355 -469.104462 
L 421.844535 -469.104462 
L 423.294714 -469.104462 
L 424.744893 -469.104462 
L 426.195073 -469.101944 
L 427.645252 -469.088043 
L 429.095431 -469.019294 
L 430.54561 -468.761314 
L 431.99579 -468.017233 
L 433.445969 -466.369853 
L 434.896148 -463.570307 
L 436.346328 -459.915191 
L 437.796507 -453.349837 
L 439.246686 -453.553814 
L 440.696866 -448.779192 
L 442.147045 -450.095994 
L 443.597224 -451.463499 
L 445.047404 -458.174601 
L 446.497583 -457.616741 
L 447.947762 -459.947684 
L 449.397942 -458.403646 
L 450.848121 -454.460689 
L 452.2983 -453.325445 
L 453.74848 -455.039973 
L 455.198659 -458.301864 
L 456.648838 -458.790569 
L 458.099018 -457.478414 
L 459.549197 -452.100044 
L 460.999376 -451.552529 
L 462.449556 -451.515869 
L 463.899735 -453.992904 
L 465.349914 -457.740903 
L 466.800094 -457.662986 
L 468.250273 -452.480138 
L 469.700452 -450.880108 
L 471.150632 -450.26404 
L 472.600811 -451.469705 
L 474.05099 -449.140492 
L 475.501169 -443.204899 
L 476.951349 -444.790382 
L 478.401528 -450.810818 
L 479.851707 -452.471714 
L 481.301887 -451.545282 
L 482.752066 -445.365758 
L 484.202245 -443.272076 
L 485.652425 -443.910388 
L 487.102604 -449.592774 
L 488.552783 -450.360034 
L 490.002963 -445.527505 
L 491.453142 -441.480676 
L 492.903321 -439.767647 
L 494.353501 -437.52078 
L 495.80368 -439.811066 
L 497.253859 -440.823844 
L 498.704039 -443.467489 
L 500.154218 -445.356533 
L 501.604397 -448.704573 
L 503.054577 -453.895827 
L 504.504756 -451.780954 
L 505.954935 -454.764211 
L 507.405115 -458.652971 
L 508.855294 -460.435065 
L 510.305473 -465.41296 
L 511.755653 -467.144802 
L 513.205832 -468.225765 
L 514.656011 -468.778905 
L 516.106191 -469.006625 
L 517.55637 -469.081175 
L 519.006549 -469.10011 
L 520.456729 -469.10383 
L 521.906908 -469.104462 
L 523.357087 -469.104462 
L 524.807266 -469.104462 
L 526.257446 -469.104462 
L 527.707625 -469.104462 
L 529.157804 -469.104462 
L 530.607984 -469.104462 
L 532.058163 -469.104462 
L 533.508342 -469.104462 
L 534.958522 -469.104462 
L 536.408701 -469.104462 
L 537.85888 -469.104462 
L 539.30906 -469.104462 
L 540.759239 -469.104462 
L 542.209418 -469.104462 
L 543.659598 -469.104462 
L 545.109777 -469.104462 
L 546.559956 -469.104462 
L 548.010136 -469.104462 
L 549.460315 -469.104462 
L 550.910494 -469.104462 
L 552.360674 -469.104462 
L 553.810853 -469.104462 
L 555.261032 -469.104462 
L 556.711212 -469.104462 
L 558.161391 -469.104462 
L 559.61157 -469.104462 
L 561.06175 -469.104462 
L 562.511929 -469.104462 
L 563.962108 -469.104462 
L 565.412288 -469.104462 
L 566.862467 -469.104462 
L 568.312646 -469.104462 
L 569.762826 -469.104462 
L 571.213005 -469.104462 
L 572.663184 -469.111576 
L 574.113363 -469.158611 
L 575.563543 -469.399149 
L 577.013722 -470.357945 
L 578.463901 -473.343057 
L 579.914081 -480.615147 
L 581.36426 -494.518782 
L 582.814439 -515.471807 
L 584.264619 -529.369306 
L 585.714798 -555.363859 
L 587.164977 -572.341511 
L 588.615157 -581.427463 
L 590.065336 -582.059904 
L 591.515515 -576.447061 
L 592.965695 -564.611357 
L 594.415874 -549.592674 
L 595.866053 -530.833218 
L 597.316233 -526.840626 
L 598.766412 -497.58423 
L 600.216591 -495.728161 
L 601.666771 -484.113445 
L 603.11695 -476.225432 
L 604.567129 -471.867408 
L 606.017309 -469.963924 
L 607.467488 -469.315817 
L 608.917667 -469.142512 
L 610.367847 -469.095751 
L 611.818026 -469.028811 
L 613.268205 -468.801379 
L 614.718385 -468.157547 
L 616.168564 -466.765119 
L 617.618743 -464.465786 
L 619.068923 -461.525475 
L 620.519102 -450.457055 
L 621.969281 -455.957928 
L 623.41946 -454.290632 
L 624.86964 -445.665211 
L 626.319819 -454.473842 
L 627.769998 -455.250932 
L 629.220178 -455.761286 
L 630.670357 -448.132167 
L 632.120536 -459.078736 
L 633.570716 -462.415207 
L 635.020895 -465.460335 
L 636.471074 -467.168394 
L 636.471074 -467.168394 
L 636.471074 -467.168394 
L 635.020895 -465.460335 
L 633.570716 -462.415207 
L 632.120536 -459.078736 
L 630.670357 -465.359587 
L 629.220178 -455.761286 
L 627.769998 -455.250932 
L 626.319819 -454.473842 
L 624.86964 -462.066077 
L 623.41946 -454.290632 
L 621.969281 -455.957928 
L 620.519102 -466.573068 
L 619.068923 -461.525475 
L 617.618743 -464.465786 
L 616.168564 -466.765119 
L 614.718385 -468.157547 
L 613.268205 -468.801379 
L 611.818026 -469.028811 
L 610.367847 -469.095751 
L 608.917667 -469.142512 
L 607.467488 -469.315817 
L 606.017309 -469.963924 
L 604.567129 -471.867408 
L 603.11695 -476.225432 
L 601.666771 -484.113445 
L 600.216591 -495.728161 
L 598.766412 -523.052841 
L 597.316233 -526.840626 
L 595.866053 -557.687049 
L 594.415874 -572.922398 
L 592.965695 -587.786941 
L 591.515515 -598.364095 
L 590.065336 -604.320514 
L 588.615157 -602.339483 
L 587.164977 -592.172166 
L 585.714798 -573.348445 
L 584.264619 -551.654357 
L 582.814439 -515.471807 
L 581.36426 -494.518782 
L 579.914081 -480.615147 
L 578.463901 -473.343057 
L 577.013722 -470.357945 
L 575.563543 -469.399149 
L 574.113363 -469.158611 
L 572.663184 -469.111576 
L 571.213005 -469.104462 
L 569.762826 -469.104462 
L 568.312646 -469.104462 
L 566.862467 -469.104462 
L 565.412288 -469.104462 
L 563.962108 -469.104462 
L 562.511929 -469.104462 
L 561.06175 -469.104462 
L 559.61157 -469.104462 
L 558.161391 -469.104462 
L 556.711212 -469.104462 
L 555.261032 -469.104462 
L 553.810853 -469.104462 
L 552.360674 -469.104462 
L 550.910494 -469.104462 
L 549.460315 -469.104462 
L 548.010136 -469.104462 
L 546.559956 -469.104462 
L 545.109777 -469.104462 
L 543.659598 -469.104462 
L 542.209418 -469.104462 
L 540.759239 -469.104462 
L 539.30906 -469.104462 
L 537.85888 -469.104462 
L 536.408701 -469.104462 
L 534.958522 -469.104462 
L 533.508342 -469.104462 
L 532.058163 -469.104462 
L 530.607984 -469.104462 
L 529.157804 -469.104462 
L 527.707625 -469.104462 
L 526.257446 -469.104462 
L 524.807266 -469.104462 
L 523.357087 -469.104462 
L 521.906908 -469.104462 
L 520.456729 -469.10383 
L 519.006549 -469.10011 
L 517.55637 -469.081175 
L 516.106191 -469.006625 
L 514.656011 -468.778905 
L 513.205832 -468.225765 
L 511.755653 -467.144802 
L 510.305473 -465.41296 
L 508.855294 -465.767319 
L 507.405115 -462.3838 
L 505.954935 -461.396343 
L 504.504756 -460.156467 
L 503.054577 -453.895827 
L 501.604397 -454.153418 
L 500.154218 -451.836833 
L 498.704039 -448.373641 
L 497.253859 -446.85912 
L 495.80368 -445.130709 
L 494.353501 -446.518588 
L 492.903321 -446.291471 
L 491.453142 -449.808584 
L 490.002963 -451.940328 
L 488.552783 -450.360034 
L 487.102604 -449.592774 
L 485.652425 -451.515851 
L 484.202245 -450.992735 
L 482.752066 -452.455842 
L 481.301887 -451.545282 
L 479.851707 -452.471714 
L 478.401528 -450.810818 
L 476.951349 -451.929623 
L 475.501169 -452.025973 
L 474.05099 -449.140492 
L 472.600811 -451.469705 
L 471.150632 -456.317134 
L 469.700452 -458.571644 
L 468.250273 -460.149087 
L 466.800094 -457.662986 
L 465.349914 -457.740903 
L 463.899735 -458.599861 
L 462.449556 -457.455285 
L 460.999376 -456.334048 
L 459.549197 -458.456577 
L 458.099018 -457.478414 
L 456.648838 -458.790569 
L 455.198659 -458.301864 
L 453.74848 -458.477913 
L 452.2983 -458.333554 
L 450.848121 -458.619519 
L 449.397942 -458.403646 
L 447.947762 -459.947684 
L 446.497583 -462.25511 
L 445.047404 -458.174601 
L 443.597224 -459.558734 
L 442.147045 -456.42748 
L 440.696866 -456.183428 
L 439.246686 -453.553814 
L 437.796507 -459.161041 
L 436.346328 -459.915191 
L 434.896148 -463.570307 
L 433.445969 -466.369853 
L 431.99579 -468.017233 
L 430.54561 -468.761314 
L 429.095431 -469.019294 
L 427.645252 -469.088043 
L 426.195073 -469.101944 
L 424.744893 -469.104462 
L 423.294714 -469.104462 
L 421.844535 -469.104462 
L 420.394355 -469.104462 
L 418.944176 -469.104462 
L 417.493997 -469.104462 
L 416.043817 -469.104462 
L 414.593638 -469.104462 
L 413.143459 -469.104462 
L 411.693279 -469.104462 
L 410.2431 -469.104462 
L 408.792921 -469.104462 
L 407.342741 -469.104462 
L 405.892562 -469.104462 
z
" style="stroke: #ff7f0e; stroke-opacity: 0.2"/>
    </defs>
    <g clip-path="url(#pe5c6182cdc)">
     <use xlink:href="#md0f7c4e6c6" x="0" y="720" style="fill: #ff7f0e; fill-opacity: 0.2; stroke: #ff7f0e; stroke-opacity: 0.2"/>
    </g>
   </g>
   <g id="matplotlib.axis_3">
    <g id="xtick_7">
     <g id="line2d_13">
      <g>
       <use xlink:href="#m740df66767" x="405.863558" y="333.490909" style="stroke: #000000; stroke-width: 0.8"/>
      </g>
     </g>
     <g id="text_13">
      <!-- 0 -->
      <g transform="translate(402.682308 348.089347)scale(0.1 -0.1)">
       <use xlink:href="#DejaVuSans-30"/>
      </g>
     </g>
    </g>
    <g id="xtick_8">
     <g id="line2d_14">
      <g>
       <use xlink:href="#m740df66767" x="463.870731" y="333.490909" style="stroke: #000000; stroke-width: 0.8"/>
      </g>
     </g>
     <g id="text_14">
      <!-- 2000 -->
      <g transform="translate(451.145731 348.089347)scale(0.1 -0.1)">
       <use xlink:href="#DejaVuSans-32"/>
       <use xlink:href="#DejaVuSans-30" x="63.623047"/>
       <use xlink:href="#DejaVuSans-30" x="127.246094"/>
       <use xlink:href="#DejaVuSans-30" x="190.869141"/>
      </g>
     </g>
    </g>
    <g id="xtick_9">
     <g id="line2d_15">
      <g>
       <use xlink:href="#m740df66767" x="521.877904" y="333.490909" style="stroke: #000000; stroke-width: 0.8"/>
      </g>
     </g>
     <g id="text_15">
      <!-- 4000 -->
      <g transform="translate(509.152904 348.089347)scale(0.1 -0.1)">
       <use xlink:href="#DejaVuSans-34"/>
       <use xlink:href="#DejaVuSans-30" x="63.623047"/>
       <use xlink:href="#DejaVuSans-30" x="127.246094"/>
       <use xlink:href="#DejaVuSans-30" x="190.869141"/>
      </g>
     </g>
    </g>
    <g id="xtick_10">
     <g id="line2d_16">
      <g>
       <use xlink:href="#m740df66767" x="579.885077" y="333.490909" style="stroke: #000000; stroke-width: 0.8"/>
      </g>
     </g>
     <g id="text_16">
      <!-- 6000 -->
      <g transform="translate(567.160077 348.089347)scale(0.1 -0.1)">
       <use xlink:href="#DejaVuSans-36"/>
       <use xlink:href="#DejaVuSans-30" x="63.623047"/>
       <use xlink:href="#DejaVuSans-30" x="127.246094"/>
       <use xlink:href="#DejaVuSans-30" x="190.869141"/>
      </g>
     </g>
    </g>
    <g id="xtick_11">
     <g id="line2d_17">
      <g>
       <use xlink:href="#m740df66767" x="637.89225" y="333.490909" style="stroke: #000000; stroke-width: 0.8"/>
      </g>
     </g>
     <g id="text_17">
      <!-- 8000 -->
      <g transform="translate(625.16725 348.089347)scale(0.1 -0.1)">
       <use xlink:href="#DejaVuSans-38"/>
       <use xlink:href="#DejaVuSans-30" x="63.623047"/>
       <use xlink:href="#DejaVuSans-30" x="127.246094"/>
       <use xlink:href="#DejaVuSans-30" x="190.869141"/>
      </g>
     </g>
    </g>
   </g>
   <g id="matplotlib.axis_4">
    <g id="ytick_7">
     <g id="line2d_18">
      <g>
       <use xlink:href="#md2c65e9b19" x="394.363636" y="307.380666" style="stroke: #000000; stroke-width: 0.8"/>
      </g>
     </g>
     <g id="text_18">
      <!-- −0.50 -->
      <g transform="translate(356.718324 311.179884)scale(0.1 -0.1)">
       <defs>
        <path id="DejaVuSans-2212" d="M 678 2272 
L 4684 2272 
L 4684 1741 
L 678 1741 
L 678 2272 
z
" transform="scale(0.015625)"/>
        <path id="DejaVuSans-35" d="M 691 4666 
L 3169 4666 
L 3169 4134 
L 1269 4134 
L 1269 2991 
Q 1406 3038 1543 3061 
Q 1681 3084 1819 3084 
Q 2600 3084 3056 2656 
Q 3513 2228 3513 1497 
Q 3513 744 3044 326 
Q 2575 -91 1722 -91 
Q 1428 -91 1123 -41 
Q 819 9 494 109 
L 494 744 
Q 775 591 1075 516 
Q 1375 441 1709 441 
Q 2250 441 2565 725 
Q 2881 1009 2881 1497 
Q 2881 1984 2565 2268 
Q 2250 2553 1709 2553 
Q 1456 2553 1204 2497 
Q 953 2441 691 2322 
L 691 4666 
z
" transform="scale(0.015625)"/>
       </defs>
       <use xlink:href="#DejaVuSans-2212"/>
       <use xlink:href="#DejaVuSans-30" x="83.789062"/>
       <use xlink:href="#DejaVuSans-2e" x="147.412109"/>
       <use xlink:href="#DejaVuSans-35" x="179.199219"/>
       <use xlink:href="#DejaVuSans-30" x="242.822266"/>
      </g>
     </g>
    </g>
    <g id="ytick_8">
     <g id="line2d_19">
      <g>
       <use xlink:href="#md2c65e9b19" x="394.363636" y="279.138102" style="stroke: #000000; stroke-width: 0.8"/>
      </g>
     </g>
     <g id="text_19">
      <!-- −0.25 -->
      <g transform="translate(356.718324 282.937321)scale(0.1 -0.1)">
       <use xlink:href="#DejaVuSans-2212"/>
       <use xlink:href="#DejaVuSans-30" x="83.789062"/>
       <use xlink:href="#DejaVuSans-2e" x="147.412109"/>
       <use xlink:href="#DejaVuSans-32" x="179.199219"/>
       <use xlink:href="#DejaVuSans-35" x="242.822266"/>
      </g>
     </g>
    </g>
    <g id="ytick_9">
     <g id="line2d_20">
      <g>
       <use xlink:href="#md2c65e9b19" x="394.363636" y="250.895538" style="stroke: #000000; stroke-width: 0.8"/>
      </g>
     </g>
     <g id="text_20">
      <!-- 0.00 -->
      <g transform="translate(365.098011 254.694757)scale(0.1 -0.1)">
       <use xlink:href="#DejaVuSans-30"/>
       <use xlink:href="#DejaVuSans-2e" x="63.623047"/>
       <use xlink:href="#DejaVuSans-30" x="95.410156"/>
       <use xlink:href="#DejaVuSans-30" x="159.033203"/>
      </g>
     </g>
    </g>
    <g id="ytick_10">
     <g id="line2d_21">
      <g>
       <use xlink:href="#md2c65e9b19" x="394.363636" y="222.652975" style="stroke: #000000; stroke-width: 0.8"/>
      </g>
     </g>
     <g id="text_21">
      <!-- 0.25 -->
      <g transform="translate(365.098011 226.452194)scale(0.1 -0.1)">
       <use xlink:href="#DejaVuSans-30"/>
       <use xlink:href="#DejaVuSans-2e" x="63.623047"/>
       <use xlink:href="#DejaVuSans-32" x="95.410156"/>
       <use xlink:href="#DejaVuSans-35" x="159.033203"/>
      </g>
     </g>
    </g>
    <g id="ytick_11">
     <g id="line2d_22">
      <g>
       <use xlink:href="#md2c65e9b19" x="394.363636" y="194.410411" style="stroke: #000000; stroke-width: 0.8"/>
      </g>
     </g>
     <g id="text_22">
      <!-- 0.50 -->
      <g transform="translate(365.098011 198.20963)scale(0.1 -0.1)">
       <use xlink:href="#DejaVuSans-30"/>
       <use xlink:href="#DejaVuSans-2e" x="63.623047"/>
       <use xlink:href="#DejaVuSans-35" x="95.410156"/>
       <use xlink:href="#DejaVuSans-30" x="159.033203"/>
      </g>
     </g>
    </g>
    <g id="ytick_12">
     <g id="line2d_23">
      <g>
       <use xlink:href="#md2c65e9b19" x="394.363636" y="166.167848" style="stroke: #000000; stroke-width: 0.8"/>
      </g>
     </g>
     <g id="text_23">
      <!-- 0.75 -->
      <g transform="translate(365.098011 169.967067)scale(0.1 -0.1)">
       <defs>
        <path id="DejaVuSans-37" d="M 525 4666 
L 3525 4666 
L 3525 4397 
L 1831 0 
L 1172 0 
L 2766 4134 
L 525 4134 
L 525 4666 
z
" transform="scale(0.015625)"/>
       </defs>
       <use xlink:href="#DejaVuSans-30"/>
       <use xlink:href="#DejaVuSans-2e" x="63.623047"/>
       <use xlink:href="#DejaVuSans-37" x="95.410156"/>
       <use xlink:href="#DejaVuSans-35" x="159.033203"/>
      </g>
     </g>
    </g>
    <g id="ytick_13">
     <g id="line2d_24">
      <g>
       <use xlink:href="#md2c65e9b19" x="394.363636" y="137.925284" style="stroke: #000000; stroke-width: 0.8"/>
      </g>
     </g>
     <g id="text_24">
      <!-- 1.00 -->
      <g transform="translate(365.098011 141.724503)scale(0.1 -0.1)">
       <use xlink:href="#DejaVuSans-31"/>
       <use xlink:href="#DejaVuSans-2e" x="63.623047"/>
       <use xlink:href="#DejaVuSans-30" x="95.410156"/>
       <use xlink:href="#DejaVuSans-30" x="159.033203"/>
      </g>
     </g>
    </g>
    <g id="ytick_14">
     <g id="line2d_25">
      <g>
       <use xlink:href="#md2c65e9b19" x="394.363636" y="109.682721" style="stroke: #000000; stroke-width: 0.8"/>
      </g>
     </g>
     <g id="text_25">
      <!-- 1.25 -->
      <g transform="translate(365.098011 113.48194)scale(0.1 -0.1)">
       <use xlink:href="#DejaVuSans-31"/>
       <use xlink:href="#DejaVuSans-2e" x="63.623047"/>
       <use xlink:href="#DejaVuSans-32" x="95.410156"/>
       <use xlink:href="#DejaVuSans-35" x="159.033203"/>
      </g>
     </g>
    </g>
   </g>
   <g id="line2d_26">
    <path d="M 405.892562 105.304397 
L 407.342741 108.530224 
L 408.792921 114.055309 
L 411.693279 126.609304 
L 413.143459 131.76858 
L 416.043817 140.761246 
L 417.493997 146.278807 
L 418.944176 153.094402 
L 421.844535 169.307391 
L 424.744893 185.295861 
L 429.095431 207.652127 
L 430.54561 214.392248 
L 431.99579 220.107579 
L 433.445969 224.892078 
L 437.796507 237.636902 
L 439.246686 241.321613 
L 440.696866 244.084054 
L 442.147045 245.572388 
L 443.597224 245.763445 
L 445.047404 245.074644 
L 446.497583 244.193625 
L 447.947762 243.749484 
L 449.397942 243.963671 
L 450.848121 244.431412 
L 452.2983 244.394085 
L 453.74848 243.521994 
L 455.198659 242.414831 
L 456.648838 242.13388 
L 458.099018 243.226433 
L 460.999376 247.212701 
L 462.449556 248.241603 
L 463.899735 248.161491 
L 465.349914 247.398918 
L 466.800094 246.468088 
L 468.250273 245.383015 
L 469.700452 243.714999 
L 471.150632 241.465328 
L 472.600811 239.646645 
L 474.05099 239.485133 
L 475.501169 240.965503 
L 476.951349 242.628099 
L 478.401528 243.039329 
L 479.851707 242.190817 
L 481.301887 241.145401 
L 484.202245 239.782573 
L 485.652425 238.672479 
L 487.102604 238.027387 
L 488.552783 239.113858 
L 490.002963 242.034204 
L 491.453142 245.550911 
L 492.903321 248.333881 
L 494.353501 249.923716 
L 495.80368 250.604027 
L 497.253859 250.826557 
L 501.604397 250.895444 
L 508.855294 250.806069 
L 513.205832 250.693651 
L 514.656011 250.889345 
L 516.106191 251.404521 
L 517.55637 252.466278 
L 519.006549 254.281861 
L 520.456729 256.786802 
L 521.906908 259.52962 
L 523.357087 262.003023 
L 524.807266 264.205263 
L 526.257446 266.726497 
L 527.707625 270.051885 
L 529.157804 273.796517 
L 530.607984 276.919715 
L 532.058163 278.830984 
L 533.508342 280.014041 
L 534.958522 281.377476 
L 539.30906 286.902872 
L 540.759239 288.392015 
L 545.109777 293.292093 
L 546.559956 293.6846 
L 548.010136 292.982576 
L 550.910494 290.464042 
L 552.360674 289.716029 
L 553.810853 289.593437 
L 555.261032 290.126503 
L 556.711212 291.288009 
L 559.61157 294.685537 
L 562.511929 298.309888 
L 563.962108 300.447041 
L 565.412288 303.078883 
L 568.312646 308.990641 
L 569.762826 310.619606 
L 571.213005 310.290373 
L 572.663184 308.18412 
L 574.113363 305.30675 
L 575.563543 302.837637 
L 577.013722 301.418073 
L 578.463901 300.656328 
L 579.914081 299.025328 
L 581.36426 294.530922 
L 582.814439 286.225797 
L 585.714798 265.080286 
L 587.164977 257.584816 
L 588.615157 253.433452 
L 590.065336 251.66294 
L 591.515515 251.079057 
L 592.965695 250.929913 
L 595.866053 250.847072 
L 597.316233 250.635212 
L 598.766412 249.803715 
L 600.216591 247.272223 
L 601.666771 241.304976 
L 603.11695 230.495785 
L 606.017309 201.188467 
L 607.467488 192.84844 
L 608.917667 194.492118 
L 610.367847 205.207193 
L 611.818026 220.147356 
L 613.268205 233.830599 
L 614.718385 243.15902 
L 616.168564 248.05764 
L 617.618743 250.060329 
L 619.068923 250.700459 
L 620.519102 250.85991 
L 626.319819 250.895538 
L 636.471074 250.895538 
L 636.471074 250.895538 
" clip-path="url(#pe5c6182cdc)" style="fill: none; stroke: #9467bd; stroke-width: 2; stroke-linecap: square"/>
   </g>
   <g id="line2d_27">
    <path d="M 405.892562 250.895538 
L 469.700452 250.956084 
L 471.150632 251.138847 
L 472.600811 251.660188 
L 474.05099 252.776675 
L 476.951349 256.382398 
L 478.401528 257.418392 
L 479.851707 256.99803 
L 481.301887 255.395143 
L 482.752066 253.51392 
L 484.202245 252.099402 
L 485.652425 251.333215 
L 487.102604 251.021407 
L 490.002963 250.900686 
L 501.604397 250.810783 
L 503.054577 250.560324 
L 504.504756 249.863005 
L 505.954935 248.417403 
L 508.855294 244.117615 
L 510.305473 243.082997 
L 511.755653 243.577721 
L 513.205832 244.80071 
L 514.656011 245.522919 
L 516.106191 245.361403 
L 517.55637 245.039744 
L 519.006549 245.463422 
L 520.456729 246.784069 
L 521.906908 248.412816 
L 523.357087 249.707292 
L 524.807266 250.445424 
L 526.257446 250.760841 
L 529.157804 250.889621 
L 561.06175 250.895538 
L 613.268205 250.85269 
L 614.718385 250.670442 
L 616.168564 249.980157 
L 617.618743 247.950778 
L 619.068923 243.312332 
L 620.519102 234.971775 
L 621.969281 222.9696 
L 624.86964 194.879384 
L 626.319819 183.584889 
L 627.769998 176.163324 
L 629.220178 171.352175 
L 630.670357 165.85493 
L 632.120536 157.409765 
L 633.570716 147.139158 
L 635.020895 138.283907 
L 636.471074 133.390109 
L 636.471074 133.390109 
" clip-path="url(#pe5c6182cdc)" style="fill: none; stroke: #1f77b4; stroke-width: 2; stroke-linecap: square"/>
   </g>
   <g id="line2d_28">
    <path d="M 405.892562 250.895538 
L 495.80368 251.002872 
L 497.253859 251.226149 
L 498.704039 251.688632 
L 501.604397 253.051391 
L 503.054577 253.339282 
L 504.504756 253.056886 
L 507.405115 251.799009 
L 508.855294 251.566133 
L 510.305473 251.818451 
L 513.205832 253.117856 
L 514.656011 253.408518 
L 516.106191 253.109296 
L 519.006549 251.604637 
L 520.456729 250.814383 
L 521.906908 249.708714 
L 523.357087 247.811622 
L 526.257446 242.437566 
L 527.707625 241.310445 
L 529.157804 242.436723 
L 532.058163 247.783714 
L 533.508342 249.598337 
L 534.958522 250.474399 
L 536.408701 250.789058 
L 539.30906 250.892323 
L 588.615157 251.063389 
L 590.065336 251.577914 
L 591.515515 253.089386 
L 592.965695 256.549115 
L 594.415874 262.799756 
L 595.866053 271.9555 
L 600.216591 306.222155 
L 601.666771 312.664213 
L 603.11695 311.567705 
L 604.567129 302.564824 
L 606.017309 289.840521 
L 607.467488 280.442987 
L 608.917667 279.885561 
L 610.367847 288.527042 
L 611.818026 301.54089 
L 613.268205 312.345493 
L 614.718385 316.589424 
L 616.168564 313.592585 
L 617.618743 305.166796 
L 621.969281 272.265041 
L 623.41946 264.09379 
L 624.86964 258.107569 
L 626.319819 254.254142 
L 627.769998 252.185682 
L 629.220178 251.294644 
L 630.670357 250.993283 
L 633.570716 250.898398 
L 636.471074 250.895538 
L 636.471074 250.895538 
" clip-path="url(#pe5c6182cdc)" style="fill: none; stroke: #d62728; stroke-width: 2; stroke-linecap: square"/>
   </g>
   <g id="line2d_29">
    <path d="M 405.892562 250.895538 
L 429.095431 250.980706 
L 430.54561 251.238686 
L 431.99579 251.982767 
L 433.445969 253.630147 
L 434.896148 256.429693 
L 437.796507 263.744561 
L 439.246686 266.446186 
L 440.696866 267.51869 
L 442.147045 266.738263 
L 443.597224 264.488884 
L 445.047404 261.825399 
L 446.497583 260.064074 
L 447.947762 260.052316 
L 449.397942 261.596354 
L 450.848121 263.459896 
L 452.2983 264.170501 
L 453.74848 263.241057 
L 455.198659 261.698136 
L 456.648838 261.209431 
L 458.099018 262.521586 
L 459.549197 264.72169 
L 460.999376 266.056711 
L 462.449556 265.514423 
L 463.899735 263.703617 
L 465.349914 262.259097 
L 466.800094 262.337014 
L 468.250273 263.685388 
L 472.600811 268.530295 
L 474.05099 270.859508 
L 475.501169 272.384564 
L 476.951349 271.639998 
L 478.401528 269.189182 
L 479.851707 267.528286 
L 481.301887 268.454718 
L 482.752066 271.0892 
L 484.202245 272.867595 
L 485.652425 272.286881 
L 487.102604 270.407226 
L 488.552783 269.639966 
L 490.002963 271.266083 
L 491.453142 274.35537 
L 492.903321 276.970441 
L 494.353501 277.980316 
L 495.80368 277.529113 
L 497.253859 276.158518 
L 498.704039 274.079435 
L 503.054577 266.104173 
L 505.954935 261.919723 
L 510.305473 254.58704 
L 511.755653 252.855198 
L 513.205832 251.774235 
L 514.656011 251.221095 
L 516.106191 250.993375 
L 519.006549 250.89989 
L 563.962108 250.895538 
L 574.113363 250.841389 
L 575.563543 250.600851 
L 577.013722 249.642055 
L 578.463901 246.656943 
L 579.914081 239.384853 
L 581.36426 225.481218 
L 582.814439 204.528193 
L 585.714798 155.643848 
L 587.164977 137.743162 
L 588.615157 128.116527 
L 590.065336 126.809791 
L 591.515515 132.594422 
L 592.965695 143.800851 
L 594.415874 158.742464 
L 598.766412 209.681464 
L 600.216591 224.271839 
L 601.666771 235.886555 
L 603.11695 243.774568 
L 604.567129 248.132592 
L 606.017309 250.036076 
L 607.467488 250.684183 
L 608.917667 250.857488 
L 611.818026 250.971189 
L 613.268205 251.198621 
L 614.718385 251.842453 
L 616.168564 253.234881 
L 617.618743 255.534214 
L 620.519102 261.484938 
L 621.969281 264.042072 
L 623.41946 265.709368 
L 624.86964 266.134356 
L 626.319819 265.526158 
L 627.769998 264.749068 
L 629.220178 264.238714 
L 630.670357 263.254123 
L 632.120536 260.921264 
L 633.570716 257.584793 
L 635.020895 254.539665 
L 636.471074 252.831606 
L 636.471074 252.831606 
" clip-path="url(#pe5c6182cdc)" style="fill: none; stroke: #ff7f0e; stroke-width: 2; stroke-linecap: square"/>
   </g>
   <g id="LineCollection_1">
    <path d="M 521.877904 307.415346 
L 521.877904 111.403351 
" clip-path="url(#pe5c6182cdc)" style="fill: none; stroke-dasharray: 7.4,3.2; stroke-dashoffset: 0; stroke: #000000; stroke-width: 2"/>
    <path d="M 536.379697 307.415346 
L 536.379697 111.403351 
" clip-path="url(#pe5c6182cdc)" style="fill: none; stroke-dasharray: 7.4,3.2; stroke-dashoffset: 0; stroke: #000000; stroke-width: 2"/>
    <path d="M 565.383284 307.415346 
L 565.383284 111.403351 
" clip-path="url(#pe5c6182cdc)" style="fill: none; stroke-dasharray: 7.4,3.2; stroke-dashoffset: 0; stroke: #000000; stroke-width: 2"/>
    <path d="M 623.390457 307.415346 
L 623.390457 111.403351 
" clip-path="url(#pe5c6182cdc)" style="fill: none; stroke-dasharray: 7.4,3.2; stroke-dashoffset: 0; stroke: #000000; stroke-width: 2"/>
   </g>
   <g id="patch_8">
    <path d="M 394.363636 333.490909 
L 394.363636 86.4 
" style="fill: none; stroke: #000000; stroke-width: 0.8; stroke-linejoin: miter; stroke-linecap: square"/>
   </g>
   <g id="patch_9">
    <path d="M 648 333.490909 
L 648 86.4 
" style="fill: none; stroke: #000000; stroke-width: 0.8; stroke-linejoin: miter; stroke-linecap: square"/>
   </g>
   <g id="patch_10">
    <path d="M 394.363636 333.490909 
L 648 333.490909 
" style="fill: none; stroke: #000000; stroke-width: 0.8; stroke-linejoin: miter; stroke-linecap: square"/>
   </g>
   <g id="patch_11">
    <path d="M 394.363636 86.4 
L 648 86.4 
" style="fill: none; stroke: #000000; stroke-width: 0.8; stroke-linejoin: miter; stroke-linecap: square"/>
   </g>
   <g id="text_26">
    <!-- unit_61 -->
    <g transform="translate(498.922756 80.4)scale(0.12 -0.12)">
     <defs>
      <path id="DejaVuSans-75" d="M 544 1381 
L 544 3500 
L 1119 3500 
L 1119 1403 
Q 1119 906 1312 657 
Q 1506 409 1894 409 
Q 2359 409 2629 706 
Q 2900 1003 2900 1516 
L 2900 3500 
L 3475 3500 
L 3475 0 
L 2900 0 
L 2900 538 
Q 2691 219 2414 64 
Q 2138 -91 1772 -91 
Q 1169 -91 856 284 
Q 544 659 544 1381 
z
M 1991 3584 
L 1991 3584 
z
" transform="scale(0.015625)"/>
      <path id="DejaVuSans-6e" d="M 3513 2113 
L 3513 0 
L 2938 0 
L 2938 2094 
Q 2938 2591 2744 2837 
Q 2550 3084 2163 3084 
Q 1697 3084 1428 2787 
Q 1159 2491 1159 1978 
L 1159 0 
L 581 0 
L 581 3500 
L 1159 3500 
L 1159 2956 
Q 1366 3272 1645 3428 
Q 1925 3584 2291 3584 
Q 2894 3584 3203 3211 
Q 3513 2838 3513 2113 
z
" transform="scale(0.015625)"/>
      <path id="DejaVuSans-69" d="M 603 3500 
L 1178 3500 
L 1178 0 
L 603 0 
L 603 3500 
z
M 603 4863 
L 1178 4863 
L 1178 4134 
L 603 4134 
L 603 4863 
z
" transform="scale(0.015625)"/>
      <path id="DejaVuSans-74" d="M 1172 4494 
L 1172 3500 
L 2356 3500 
L 2356 3053 
L 1172 3053 
L 1172 1153 
Q 1172 725 1289 603 
Q 1406 481 1766 481 
L 2356 481 
L 2356 0 
L 1766 0 
Q 1100 0 847 248 
Q 594 497 594 1153 
L 594 3053 
L 172 3053 
L 172 3500 
L 594 3500 
L 594 4494 
L 1172 4494 
z
" transform="scale(0.015625)"/>
      <path id="DejaVuSans-5f" d="M 3263 -1063 
L 3263 -1509 
L -63 -1509 
L -63 -1063 
L 3263 -1063 
z
" transform="scale(0.015625)"/>
     </defs>
     <use xlink:href="#DejaVuSans-75"/>
     <use xlink:href="#DejaVuSans-6e" x="63.378906"/>
     <use xlink:href="#DejaVuSans-69" x="126.757812"/>
     <use xlink:href="#DejaVuSans-74" x="154.541016"/>
     <use xlink:href="#DejaVuSans-5f" x="193.75"/>
     <use xlink:href="#DejaVuSans-36" x="243.75"/>
     <use xlink:href="#DejaVuSans-31" x="307.373047"/>
    </g>
   </g>
  </g>
  <g id="axes_3">
   <g id="patch_12">
    <path d="M 90 630 
L 343.636364 630 
L 343.636364 382.909091 
L 90 382.909091 
z
" style="fill: #ffffff"/>
   </g>
   <g id="matplotlib.axis_5">
    <g id="xtick_12">
     <g id="line2d_30">
      <g>
       <use xlink:href="#m740df66767" x="90" y="630" style="stroke: #000000; stroke-width: 0.8"/>
      </g>
     </g>
     <g id="text_27">
      <!-- 0.0 -->
      <g transform="translate(82.048438 644.598437)scale(0.1 -0.1)">
       <use xlink:href="#DejaVuSans-30"/>
       <use xlink:href="#DejaVuSans-2e" x="63.623047"/>
       <use xlink:href="#DejaVuSans-30" x="95.410156"/>
      </g>
     </g>
    </g>
    <g id="xtick_13">
     <g id="line2d_31">
      <g>
       <use xlink:href="#m740df66767" x="140.727273" y="630" style="stroke: #000000; stroke-width: 0.8"/>
      </g>
     </g>
     <g id="text_28">
      <!-- 0.2 -->
      <g transform="translate(132.77571 644.598437)scale(0.1 -0.1)">
       <use xlink:href="#DejaVuSans-30"/>
       <use xlink:href="#DejaVuSans-2e" x="63.623047"/>
       <use xlink:href="#DejaVuSans-32" x="95.410156"/>
      </g>
     </g>
    </g>
    <g id="xtick_14">
     <g id="line2d_32">
      <g>
       <use xlink:href="#m740df66767" x="191.454545" y="630" style="stroke: #000000; stroke-width: 0.8"/>
      </g>
     </g>
     <g id="text_29">
      <!-- 0.4 -->
      <g transform="translate(183.502983 644.598437)scale(0.1 -0.1)">
       <use xlink:href="#DejaVuSans-30"/>
       <use xlink:href="#DejaVuSans-2e" x="63.623047"/>
       <use xlink:href="#DejaVuSans-34" x="95.410156"/>
      </g>
     </g>
    </g>
    <g id="xtick_15">
     <g id="line2d_33">
      <g>
       <use xlink:href="#m740df66767" x="242.181818" y="630" style="stroke: #000000; stroke-width: 0.8"/>
      </g>
     </g>
     <g id="text_30">
      <!-- 0.6 -->
      <g transform="translate(234.230256 644.598437)scale(0.1 -0.1)">
       <use xlink:href="#DejaVuSans-30"/>
       <use xlink:href="#DejaVuSans-2e" x="63.623047"/>
       <use xlink:href="#DejaVuSans-36" x="95.410156"/>
      </g>
     </g>
    </g>
    <g id="xtick_16">
     <g id="line2d_34">
      <g>
       <use xlink:href="#m740df66767" x="292.909091" y="630" style="stroke: #000000; stroke-width: 0.8"/>
      </g>
     </g>
     <g id="text_31">
      <!-- 0.8 -->
      <g transform="translate(284.957528 644.598437)scale(0.1 -0.1)">
       <use xlink:href="#DejaVuSans-30"/>
       <use xlink:href="#DejaVuSans-2e" x="63.623047"/>
       <use xlink:href="#DejaVuSans-38" x="95.410156"/>
      </g>
     </g>
    </g>
    <g id="xtick_17">
     <g id="line2d_35">
      <g>
       <use xlink:href="#m740df66767" x="343.636364" y="630" style="stroke: #000000; stroke-width: 0.8"/>
      </g>
     </g>
     <g id="text_32">
      <!-- 1.0 -->
      <g transform="translate(335.684801 644.598437)scale(0.1 -0.1)">
       <use xlink:href="#DejaVuSans-31"/>
       <use xlink:href="#DejaVuSans-2e" x="63.623047"/>
       <use xlink:href="#DejaVuSans-30" x="95.410156"/>
      </g>
     </g>
    </g>
   </g>
   <g id="matplotlib.axis_6">
    <g id="ytick_15">
     <g id="line2d_36">
      <g>
       <use xlink:href="#md2c65e9b19" x="90" y="630" style="stroke: #000000; stroke-width: 0.8"/>
      </g>
     </g>
     <g id="text_33">
      <!-- 0.0 -->
      <g transform="translate(67.096875 633.799219)scale(0.1 -0.1)">
       <use xlink:href="#DejaVuSans-30"/>
       <use xlink:href="#DejaVuSans-2e" x="63.623047"/>
       <use xlink:href="#DejaVuSans-30" x="95.410156"/>
      </g>
     </g>
    </g>
    <g id="ytick_16">
     <g id="line2d_37">
      <g>
       <use xlink:href="#md2c65e9b19" x="90" y="580.581818" style="stroke: #000000; stroke-width: 0.8"/>
      </g>
     </g>
     <g id="text_34">
      <!-- 0.2 -->
      <g transform="translate(67.096875 584.381037)scale(0.1 -0.1)">
       <use xlink:href="#DejaVuSans-30"/>
       <use xlink:href="#DejaVuSans-2e" x="63.623047"/>
       <use xlink:href="#DejaVuSans-32" x="95.410156"/>
      </g>
     </g>
    </g>
    <g id="ytick_17">
     <g id="line2d_38">
      <g>
       <use xlink:href="#md2c65e9b19" x="90" y="531.163636" style="stroke: #000000; stroke-width: 0.8"/>
      </g>
     </g>
     <g id="text_35">
      <!-- 0.4 -->
      <g transform="translate(67.096875 534.962855)scale(0.1 -0.1)">
       <use xlink:href="#DejaVuSans-30"/>
       <use xlink:href="#DejaVuSans-2e" x="63.623047"/>
       <use xlink:href="#DejaVuSans-34" x="95.410156"/>
      </g>
     </g>
    </g>
    <g id="ytick_18">
     <g id="line2d_39">
      <g>
       <use xlink:href="#md2c65e9b19" x="90" y="481.745455" style="stroke: #000000; stroke-width: 0.8"/>
      </g>
     </g>
     <g id="text_36">
      <!-- 0.6 -->
      <g transform="translate(67.096875 485.544673)scale(0.1 -0.1)">
       <use xlink:href="#DejaVuSans-30"/>
       <use xlink:href="#DejaVuSans-2e" x="63.623047"/>
       <use xlink:href="#DejaVuSans-36" x="95.410156"/>
      </g>
     </g>
    </g>
    <g id="ytick_19">
     <g id="line2d_40">
      <g>
       <use xlink:href="#md2c65e9b19" x="90" y="432.327273" style="stroke: #000000; stroke-width: 0.8"/>
      </g>
     </g>
     <g id="text_37">
      <!-- 0.8 -->
      <g transform="translate(67.096875 436.126491)scale(0.1 -0.1)">
       <use xlink:href="#DejaVuSans-30"/>
       <use xlink:href="#DejaVuSans-2e" x="63.623047"/>
       <use xlink:href="#DejaVuSans-38" x="95.410156"/>
      </g>
     </g>
    </g>
    <g id="ytick_20">
     <g id="line2d_41">
      <g>
       <use xlink:href="#md2c65e9b19" x="90" y="382.909091" style="stroke: #000000; stroke-width: 0.8"/>
      </g>
     </g>
     <g id="text_38">
      <!-- 1.0 -->
      <g transform="translate(67.096875 386.70831)scale(0.1 -0.1)">
       <use xlink:href="#DejaVuSans-31"/>
       <use xlink:href="#DejaVuSans-2e" x="63.623047"/>
       <use xlink:href="#DejaVuSans-30" x="95.410156"/>
      </g>
     </g>
    </g>
   </g>
   <g id="patch_13">
    <path d="M 90 630 
L 90 382.909091 
" style="fill: none; stroke: #000000; stroke-width: 0.8; stroke-linejoin: miter; stroke-linecap: square"/>
   </g>
   <g id="patch_14">
    <path d="M 343.636364 630 
L 343.636364 382.909091 
" style="fill: none; stroke: #000000; stroke-width: 0.8; stroke-linejoin: miter; stroke-linecap: square"/>
   </g>
   <g id="patch_15">
    <path d="M 90 630 
L 343.636364 630 
" style="fill: none; stroke: #000000; stroke-width: 0.8; stroke-linejoin: miter; stroke-linecap: square"/>
   </g>
   <g id="patch_16">
    <path d="M 90 382.909091 
L 343.636364 382.909091 
" style="fill: none; stroke: #000000; stroke-width: 0.8; stroke-linejoin: miter; stroke-linecap: square"/>
   </g>
  </g>
  <g id="axes_4">
   <g id="patch_17">
    <path d="M 394.363636 630 
L 648 630 
L 648 382.909091 
L 394.363636 382.909091 
z
" style="fill: #ffffff"/>
   </g>
   <g id="matplotlib.axis_7">
    <g id="xtick_18">
     <g id="line2d_42">
      <g>
       <use xlink:href="#m740df66767" x="405.863558" y="630" style="stroke: #000000; stroke-width: 0.8"/>
      </g>
     </g>
     <g id="text_39">
      <!-- 0 -->
      <g transform="translate(402.682308 644.598437)scale(0.1 -0.1)">
       <use xlink:href="#DejaVuSans-30"/>
      </g>
     </g>
    </g>
    <g id="xtick_19">
     <g id="line2d_43">
      <g>
       <use xlink:href="#m740df66767" x="463.870731" y="630" style="stroke: #000000; stroke-width: 0.8"/>
      </g>
     </g>
     <g id="text_40">
      <!-- 2000 -->
      <g transform="translate(451.145731 644.598437)scale(0.1 -0.1)">
       <use xlink:href="#DejaVuSans-32"/>
       <use xlink:href="#DejaVuSans-30" x="63.623047"/>
       <use xlink:href="#DejaVuSans-30" x="127.246094"/>
       <use xlink:href="#DejaVuSans-30" x="190.869141"/>
      </g>
     </g>
    </g>
    <g id="xtick_20">
     <g id="line2d_44">
      <g>
       <use xlink:href="#m740df66767" x="521.877904" y="630" style="stroke: #000000; stroke-width: 0.8"/>
      </g>
     </g>
     <g id="text_41">
      <!-- 4000 -->
      <g transform="translate(509.152904 644.598437)scale(0.1 -0.1)">
       <use xlink:href="#DejaVuSans-34"/>
       <use xlink:href="#DejaVuSans-30" x="63.623047"/>
       <use xlink:href="#DejaVuSans-30" x="127.246094"/>
       <use xlink:href="#DejaVuSans-30" x="190.869141"/>
      </g>
     </g>
    </g>
    <g id="xtick_21">
     <g id="line2d_45">
      <g>
       <use xlink:href="#m740df66767" x="579.885077" y="630" style="stroke: #000000; stroke-width: 0.8"/>
      </g>
     </g>
     <g id="text_42">
      <!-- 6000 -->
      <g transform="translate(567.160077 644.598437)scale(0.1 -0.1)">
       <use xlink:href="#DejaVuSans-36"/>
       <use xlink:href="#DejaVuSans-30" x="63.623047"/>
       <use xlink:href="#DejaVuSans-30" x="127.246094"/>
       <use xlink:href="#DejaVuSans-30" x="190.869141"/>
      </g>
     </g>
    </g>
    <g id="xtick_22">
     <g id="line2d_46">
      <g>
       <use xlink:href="#m740df66767" x="637.89225" y="630" style="stroke: #000000; stroke-width: 0.8"/>
      </g>
     </g>
     <g id="text_43">
      <!-- 8000 -->
      <g transform="translate(625.16725 644.598437)scale(0.1 -0.1)">
       <use xlink:href="#DejaVuSans-38"/>
       <use xlink:href="#DejaVuSans-30" x="63.623047"/>
       <use xlink:href="#DejaVuSans-30" x="127.246094"/>
       <use xlink:href="#DejaVuSans-30" x="190.869141"/>
      </g>
     </g>
    </g>
   </g>
   <g id="matplotlib.axis_8">
    <g id="ytick_21">
     <g id="line2d_47">
      <g>
       <use xlink:href="#md2c65e9b19" x="394.363636" y="613.882806" style="stroke: #000000; stroke-width: 0.8"/>
      </g>
     </g>
     <g id="text_44">
      <!-- 0 -->
      <g transform="translate(381.001136 617.682025)scale(0.1 -0.1)">
       <use xlink:href="#DejaVuSans-30"/>
      </g>
     </g>
    </g>
    <g id="ytick_22">
     <g id="line2d_48">
      <g>
       <use xlink:href="#md2c65e9b19" x="394.363636" y="573.589822" style="stroke: #000000; stroke-width: 0.8"/>
      </g>
     </g>
     <g id="text_45">
      <!-- 5 -->
      <g transform="translate(381.001136 577.389041)scale(0.1 -0.1)">
       <use xlink:href="#DejaVuSans-35"/>
      </g>
     </g>
    </g>
    <g id="ytick_23">
     <g id="line2d_49">
      <g>
       <use xlink:href="#md2c65e9b19" x="394.363636" y="533.296838" style="stroke: #000000; stroke-width: 0.8"/>
      </g>
     </g>
     <g id="text_46">
      <!-- 10 -->
      <g transform="translate(374.638636 537.096057)scale(0.1 -0.1)">
       <use xlink:href="#DejaVuSans-31"/>
       <use xlink:href="#DejaVuSans-30" x="63.623047"/>
      </g>
     </g>
    </g>
    <g id="ytick_24">
     <g id="line2d_50">
      <g>
       <use xlink:href="#md2c65e9b19" x="394.363636" y="493.003854" style="stroke: #000000; stroke-width: 0.8"/>
      </g>
     </g>
     <g id="text_47">
      <!-- 15 -->
      <g transform="translate(374.638636 496.803073)scale(0.1 -0.1)">
       <use xlink:href="#DejaVuSans-31"/>
       <use xlink:href="#DejaVuSans-35" x="63.623047"/>
      </g>
     </g>
    </g>
    <g id="ytick_25">
     <g id="line2d_51">
      <g>
       <use xlink:href="#md2c65e9b19" x="394.363636" y="452.71087" style="stroke: #000000; stroke-width: 0.8"/>
      </g>
     </g>
     <g id="text_48">
      <!-- 20 -->
      <g transform="translate(374.638636 456.510088)scale(0.1 -0.1)">
       <use xlink:href="#DejaVuSans-32"/>
       <use xlink:href="#DejaVuSans-30" x="63.623047"/>
      </g>
     </g>
    </g>
    <g id="ytick_26">
     <g id="line2d_52">
      <g>
       <use xlink:href="#md2c65e9b19" x="394.363636" y="412.417885" style="stroke: #000000; stroke-width: 0.8"/>
      </g>
     </g>
     <g id="text_49">
      <!-- 25 -->
      <g transform="translate(374.638636 416.217104)scale(0.1 -0.1)">
       <use xlink:href="#DejaVuSans-32"/>
       <use xlink:href="#DejaVuSans-35" x="63.623047"/>
      </g>
     </g>
    </g>
   </g>
   <g id="line2d_53">
    <path d="M 405.892562 442.532278 
L 408.792921 406.457378 
L 410.2431 412.680723 
L 411.693279 430.368866 
L 413.143459 436.851799 
L 414.593638 460.858592 
L 416.043817 546.38195 
L 417.493997 568.475706 
L 418.944176 476.85286 
L 420.394355 411.165222 
L 421.844535 407.544409 
L 423.294714 408.285848 
L 424.744893 392.853632 
L 426.195073 382.909091 
L 427.645252 394.917591 
L 429.095431 434.958373 
L 430.54561 480.848561 
L 431.99579 499.891936 
L 433.445969 514.479518 
L 434.896148 531.536284 
L 436.346328 538.516644 
L 437.796507 540.763581 
L 439.246686 556.106062 
L 442.147045 604.743284 
L 443.597224 610.748691 
L 445.047404 599.160357 
L 446.497583 595.658185 
L 447.947762 592.713695 
L 449.397942 577.915233 
L 450.848121 575.498328 
L 452.2983 586.363123 
L 453.74848 588.003383 
L 455.198659 592.261079 
L 456.648838 600.651658 
L 458.099018 591.672803 
L 459.549197 576.874926 
L 460.999376 583.018947 
L 462.449556 593.496441 
L 463.899735 601.740917 
L 465.349914 605.445376 
L 466.800094 601.506893 
L 468.250273 601.959078 
L 469.700452 601.881166 
L 472.600811 560.6627 
L 474.05099 557.005334 
L 475.501169 575.742668 
L 476.951349 596.756708 
L 478.401528 598.653825 
L 479.851707 606.281167 
L 481.301887 620.659161 
L 484.202245 635.731268 
L 485.652425 636.227334 
L 487.102604 616.590328 
L 488.552783 617.084123 
L 490.002963 638.988592 
L 491.453142 643.833202 
L 494.353501 609.336746 
L 495.80368 583.944986 
L 497.253859 563.681218 
L 498.704039 583.015077 
L 500.154218 609.44169 
L 501.604397 612.738339 
L 503.054577 606.247821 
L 504.504756 608.247743 
L 505.954935 619.560823 
L 507.405115 640.482284 
L 508.855294 682.897329 
L 510.305473 710.002922 
L 513.205832 636.677251 
L 514.656011 628.244389 
L 516.106191 612.320029 
L 517.55637 593.394549 
L 519.006549 593.898156 
L 520.456729 615.952598 
L 521.906908 636.150878 
L 523.357087 638.341484 
L 524.807266 644.329837 
L 526.257446 657.797599 
L 527.707625 651.742763 
L 529.157804 629.977649 
L 530.607984 635.64895 
L 532.058163 671.432904 
L 533.508342 690.671733 
L 534.958522 688.613166 
L 536.408701 687.263055 
L 537.85888 665.224723 
L 539.30906 651.040884 
L 540.759239 669.719081 
L 542.209418 678.323525 
L 543.659598 657.754899 
L 545.109777 611.370559 
L 546.559956 582.818455 
L 548.010136 600.699166 
L 549.460315 661.549441 
L 550.416468 721 
M 553.57566 721 
L 553.810853 710.647091 
L 555.261032 693.276008 
L 556.711212 715.070898 
L 558.161391 693.159592 
L 559.61157 648.026383 
L 561.06175 626.748197 
L 562.511929 601.551586 
L 563.962108 567.745181 
L 565.412288 551.854723 
L 566.862467 544.209494 
L 568.312646 527.016514 
L 569.762826 518.438202 
L 571.213005 547.911979 
L 572.663184 580.697391 
L 574.113363 585.279602 
L 575.563543 595.500464 
L 577.013722 622.158259 
L 578.463901 630.47482 
L 579.914081 623.496804 
L 582.814439 580.605627 
L 584.264619 567.690919 
L 587.164977 546.87133 
L 588.615157 534.080683 
L 590.065336 533.057018 
L 591.515515 553.136334 
L 592.965695 576.563565 
L 594.415874 591.666932 
L 595.866053 595.258861 
L 597.316233 591.107917 
L 598.766412 588.871637 
L 601.666771 573.93664 
L 603.11695 578.969466 
L 604.567129 617.466542 
L 606.017309 683.796999 
L 607.193838 721 
M 609.300119 721 
L 610.367847 690.370927 
L 611.818026 638.965946 
L 613.268205 614.42355 
L 614.718385 612.118551 
L 616.168564 617.861181 
L 617.618743 621.84324 
L 619.068923 627.524213 
L 620.519102 630.124933 
L 623.41946 619.704732 
L 624.86964 615.626319 
L 626.319819 613.494325 
L 627.769998 608.117339 
L 629.220178 598.834518 
L 630.670357 584.211651 
L 633.570716 520.884827 
L 635.020895 508.376547 
L 636.471074 506.186774 
L 636.471074 506.186774 
" clip-path="url(#pb5aed6c63d)" style="fill: none; stroke: #1f77b4; stroke-width: 1.5; stroke-linecap: square"/>
   </g>
   <g id="patch_18">
    <path d="M 394.363636 630 
L 394.363636 382.909091 
" style="fill: none; stroke: #000000; stroke-width: 0.8; stroke-linejoin: miter; stroke-linecap: square"/>
   </g>
   <g id="patch_19">
    <path d="M 648 630 
L 648 382.909091 
" style="fill: none; stroke: #000000; stroke-width: 0.8; stroke-linejoin: miter; stroke-linecap: square"/>
   </g>
   <g id="patch_20">
    <path d="M 394.363636 630 
L 648 630 
" style="fill: none; stroke: #000000; stroke-width: 0.8; stroke-linejoin: miter; stroke-linecap: square"/>
   </g>
   <g id="patch_21">
    <path d="M 394.363636 382.909091 
L 648 382.909091 
" style="fill: none; stroke: #000000; stroke-width: 0.8; stroke-linejoin: miter; stroke-linecap: square"/>
   </g>
   <g id="text_50">
    <!-- explained variance -->
    <g transform="translate(464.181818 376.909091)scale(0.12 -0.12)">
     <defs>
      <path id="DejaVuSans-65" d="M 3597 1894 
L 3597 1613 
L 953 1613 
Q 991 1019 1311 708 
Q 1631 397 2203 397 
Q 2534 397 2845 478 
Q 3156 559 3463 722 
L 3463 178 
Q 3153 47 2828 -22 
Q 2503 -91 2169 -91 
Q 1331 -91 842 396 
Q 353 884 353 1716 
Q 353 2575 817 3079 
Q 1281 3584 2069 3584 
Q 2775 3584 3186 3129 
Q 3597 2675 3597 1894 
z
M 3022 2063 
Q 3016 2534 2758 2815 
Q 2500 3097 2075 3097 
Q 1594 3097 1305 2825 
Q 1016 2553 972 2059 
L 3022 2063 
z
" transform="scale(0.015625)"/>
      <path id="DejaVuSans-78" d="M 3513 3500 
L 2247 1797 
L 3578 0 
L 2900 0 
L 1881 1375 
L 863 0 
L 184 0 
L 1544 1831 
L 300 3500 
L 978 3500 
L 1906 2253 
L 2834 3500 
L 3513 3500 
z
" transform="scale(0.015625)"/>
      <path id="DejaVuSans-70" d="M 1159 525 
L 1159 -1331 
L 581 -1331 
L 581 3500 
L 1159 3500 
L 1159 2969 
Q 1341 3281 1617 3432 
Q 1894 3584 2278 3584 
Q 2916 3584 3314 3078 
Q 3713 2572 3713 1747 
Q 3713 922 3314 415 
Q 2916 -91 2278 -91 
Q 1894 -91 1617 61 
Q 1341 213 1159 525 
z
M 3116 1747 
Q 3116 2381 2855 2742 
Q 2594 3103 2138 3103 
Q 1681 3103 1420 2742 
Q 1159 2381 1159 1747 
Q 1159 1113 1420 752 
Q 1681 391 2138 391 
Q 2594 391 2855 752 
Q 3116 1113 3116 1747 
z
" transform="scale(0.015625)"/>
      <path id="DejaVuSans-6c" d="M 603 4863 
L 1178 4863 
L 1178 0 
L 603 0 
L 603 4863 
z
" transform="scale(0.015625)"/>
      <path id="DejaVuSans-61" d="M 2194 1759 
Q 1497 1759 1228 1600 
Q 959 1441 959 1056 
Q 959 750 1161 570 
Q 1363 391 1709 391 
Q 2188 391 2477 730 
Q 2766 1069 2766 1631 
L 2766 1759 
L 2194 1759 
z
M 3341 1997 
L 3341 0 
L 2766 0 
L 2766 531 
Q 2569 213 2275 61 
Q 1981 -91 1556 -91 
Q 1019 -91 701 211 
Q 384 513 384 1019 
Q 384 1609 779 1909 
Q 1175 2209 1959 2209 
L 2766 2209 
L 2766 2266 
Q 2766 2663 2505 2880 
Q 2244 3097 1772 3097 
Q 1472 3097 1187 3025 
Q 903 2953 641 2809 
L 641 3341 
Q 956 3463 1253 3523 
Q 1550 3584 1831 3584 
Q 2591 3584 2966 3190 
Q 3341 2797 3341 1997 
z
" transform="scale(0.015625)"/>
      <path id="DejaVuSans-64" d="M 2906 2969 
L 2906 4863 
L 3481 4863 
L 3481 0 
L 2906 0 
L 2906 525 
Q 2725 213 2448 61 
Q 2172 -91 1784 -91 
Q 1150 -91 751 415 
Q 353 922 353 1747 
Q 353 2572 751 3078 
Q 1150 3584 1784 3584 
Q 2172 3584 2448 3432 
Q 2725 3281 2906 2969 
z
M 947 1747 
Q 947 1113 1208 752 
Q 1469 391 1925 391 
Q 2381 391 2643 752 
Q 2906 1113 2906 1747 
Q 2906 2381 2643 2742 
Q 2381 3103 1925 3103 
Q 1469 3103 1208 2742 
Q 947 2381 947 1747 
z
" transform="scale(0.015625)"/>
      <path id="DejaVuSans-20" transform="scale(0.015625)"/>
      <path id="DejaVuSans-76" d="M 191 3500 
L 800 3500 
L 1894 563 
L 2988 3500 
L 3597 3500 
L 2284 0 
L 1503 0 
L 191 3500 
z
" transform="scale(0.015625)"/>
      <path id="DejaVuSans-72" d="M 2631 2963 
Q 2534 3019 2420 3045 
Q 2306 3072 2169 3072 
Q 1681 3072 1420 2755 
Q 1159 2438 1159 1844 
L 1159 0 
L 581 0 
L 581 3500 
L 1159 3500 
L 1159 2956 
Q 1341 3275 1631 3429 
Q 1922 3584 2338 3584 
Q 2397 3584 2469 3576 
Q 2541 3569 2628 3553 
L 2631 2963 
z
" transform="scale(0.015625)"/>
      <path id="DejaVuSans-63" d="M 3122 3366 
L 3122 2828 
Q 2878 2963 2633 3030 
Q 2388 3097 2138 3097 
Q 1578 3097 1268 2742 
Q 959 2388 959 1747 
Q 959 1106 1268 751 
Q 1578 397 2138 397 
Q 2388 397 2633 464 
Q 2878 531 3122 666 
L 3122 134 
Q 2881 22 2623 -34 
Q 2366 -91 2075 -91 
Q 1284 -91 818 406 
Q 353 903 353 1747 
Q 353 2603 823 3093 
Q 1294 3584 2113 3584 
Q 2378 3584 2631 3529 
Q 2884 3475 3122 3366 
z
" transform="scale(0.015625)"/>
     </defs>
     <use xlink:href="#DejaVuSans-65"/>
     <use xlink:href="#DejaVuSans-78" x="59.773438"/>
     <use xlink:href="#DejaVuSans-70" x="118.953125"/>
     <use xlink:href="#DejaVuSans-6c" x="182.429688"/>
     <use xlink:href="#DejaVuSans-61" x="210.212891"/>
     <use xlink:href="#DejaVuSans-69" x="271.492188"/>
     <use xlink:href="#DejaVuSans-6e" x="299.275391"/>
     <use xlink:href="#DejaVuSans-65" x="362.654297"/>
     <use xlink:href="#DejaVuSans-64" x="424.177734"/>
     <use xlink:href="#DejaVuSans-20" x="487.654297"/>
     <use xlink:href="#DejaVuSans-76" x="519.441406"/>
     <use xlink:href="#DejaVuSans-61" x="578.621094"/>
     <use xlink:href="#DejaVuSans-72" x="639.900391"/>
     <use xlink:href="#DejaVuSans-69" x="681.013672"/>
     <use xlink:href="#DejaVuSans-61" x="708.796875"/>
     <use xlink:href="#DejaVuSans-6e" x="770.076172"/>
     <use xlink:href="#DejaVuSans-63" x="833.455078"/>
     <use xlink:href="#DejaVuSans-65" x="888.435547"/>
    </g>
   </g>
  </g>
 </g>
 <defs>
  <clipPath id="pe5c6182cdc">
   <rect x="394.363636" y="86.4" width="253.636364" height="247.090909"/>
  </clipPath>
  <clipPath id="pb5aed6c63d">
   <rect x="394.363636" y="382.909091" width="253.636364" height="247.090909"/>
  </clipPath>
 </defs>
</svg>
