<?xml version="1.0" encoding="utf-8" standalone="no"?>
<!DOCTYPE svg PUBLIC "-//W3C//DTD SVG 1.1//EN"
  "http://www.w3.org/Graphics/SVG/1.1/DTD/svg11.dtd">
<svg xmlns:xlink="http://www.w3.org/1999/xlink" width="720pt" height="720pt" viewBox="0 0 720 720" xmlns="http://www.w3.org/2000/svg" version="1.1">
 <metadata>
  <rdf:RDF xmlns:dc="http://purl.org/dc/elements/1.1/" xmlns:cc="http://creativecommons.org/ns#" xmlns:rdf="http://www.w3.org/1999/02/22-rdf-syntax-ns#">
   <cc:Work>
    <dc:type rdf:resource="http://purl.org/dc/dcmitype/StillImage"/>
    <dc:date>2023-12-19T18:15:37.773209</dc:date>
    <dc:format>image/svg+xml</dc:format>
    <dc:creator>
     <cc:Agent>
      <dc:title>Matplotlib v3.5.2, https://matplotlib.org/</dc:title>
     </cc:Agent>
    </dc:creator>
   </cc:Work>
  </rdf:RDF>
 </metadata>
 <defs>
  <style type="text/css">*{stroke-linejoin: round; stroke-linecap: butt}</style>
 </defs>
 <g id="figure_1">
  <g id="patch_1">
   <path d="M 0 720 
L 720 720 
L 720 0 
L 0 0 
z
" style="fill: #ffffff"/>
  </g>
  <g id="axes_1">
   <g id="patch_2">
    <path d="M 90 333.490909 
L 343.636364 333.490909 
L 343.636364 86.4 
L 90 86.4 
z
" style="fill: #ffffff"/>
   </g>
   <g id="matplotlib.axis_1">
    <g id="xtick_1">
     <g id="line2d_1">
      <defs>
       <path id="m0cdb87df5c" d="M 0 0 
L 0 3.5 
" style="stroke: #000000; stroke-width: 0.8"/>
      </defs>
      <g>
       <use xlink:href="#m0cdb87df5c" x="90" y="333.490909" style="stroke: #000000; stroke-width: 0.8"/>
      </g>
     </g>
     <g id="text_1">
      <!-- 0.0 -->
      <g transform="translate(82.048438 348.089347)scale(0.1 -0.1)">
       <defs>
        <path id="DejaVuSans-30" d="M 2034 4250 
Q 1547 4250 1301 3770 
Q 1056 3291 1056 2328 
Q 1056 1369 1301 889 
Q 1547 409 2034 409 
Q 2525 409 2770 889 
Q 3016 1369 3016 2328 
Q 3016 3291 2770 3770 
Q 2525 4250 2034 4250 
z
M 2034 4750 
Q 2819 4750 3233 4129 
Q 3647 3509 3647 2328 
Q 3647 1150 3233 529 
Q 2819 -91 2034 -91 
Q 1250 -91 836 529 
Q 422 1150 422 2328 
Q 422 3509 836 4129 
Q 1250 4750 2034 4750 
z
" transform="scale(0.015625)"/>
        <path id="DejaVuSans-2e" d="M 684 794 
L 1344 794 
L 1344 0 
L 684 0 
L 684 794 
z
" transform="scale(0.015625)"/>
       </defs>
       <use xlink:href="#DejaVuSans-30"/>
       <use xlink:href="#DejaVuSans-2e" x="63.623047"/>
       <use xlink:href="#DejaVuSans-30" x="95.410156"/>
      </g>
     </g>
    </g>
    <g id="xtick_2">
     <g id="line2d_2">
      <g>
       <use xlink:href="#m0cdb87df5c" x="140.727273" y="333.490909" style="stroke: #000000; stroke-width: 0.8"/>
      </g>
     </g>
     <g id="text_2">
      <!-- 0.2 -->
      <g transform="translate(132.77571 348.089347)scale(0.1 -0.1)">
       <defs>
        <path id="DejaVuSans-32" d="M 1228 531 
L 3431 531 
L 3431 0 
L 469 0 
L 469 531 
Q 828 903 1448 1529 
Q 2069 2156 2228 2338 
Q 2531 2678 2651 2914 
Q 2772 3150 2772 3378 
Q 2772 3750 2511 3984 
Q 2250 4219 1831 4219 
Q 1534 4219 1204 4116 
Q 875 4013 500 3803 
L 500 4441 
Q 881 4594 1212 4672 
Q 1544 4750 1819 4750 
Q 2544 4750 2975 4387 
Q 3406 4025 3406 3419 
Q 3406 3131 3298 2873 
Q 3191 2616 2906 2266 
Q 2828 2175 2409 1742 
Q 1991 1309 1228 531 
z
" transform="scale(0.015625)"/>
       </defs>
       <use xlink:href="#DejaVuSans-30"/>
       <use xlink:href="#DejaVuSans-2e" x="63.623047"/>
       <use xlink:href="#DejaVuSans-32" x="95.410156"/>
      </g>
     </g>
    </g>
    <g id="xtick_3">
     <g id="line2d_3">
      <g>
       <use xlink:href="#m0cdb87df5c" x="191.454545" y="333.490909" style="stroke: #000000; stroke-width: 0.8"/>
      </g>
     </g>
     <g id="text_3">
      <!-- 0.4 -->
      <g transform="translate(183.502983 348.089347)scale(0.1 -0.1)">
       <defs>
        <path id="DejaVuSans-34" d="M 2419 4116 
L 825 1625 
L 2419 1625 
L 2419 4116 
z
M 2253 4666 
L 3047 4666 
L 3047 1625 
L 3713 1625 
L 3713 1100 
L 3047 1100 
L 3047 0 
L 2419 0 
L 2419 1100 
L 313 1100 
L 313 1709 
L 2253 4666 
z
" transform="scale(0.015625)"/>
       </defs>
       <use xlink:href="#DejaVuSans-30"/>
       <use xlink:href="#DejaVuSans-2e" x="63.623047"/>
       <use xlink:href="#DejaVuSans-34" x="95.410156"/>
      </g>
     </g>
    </g>
    <g id="xtick_4">
     <g id="line2d_4">
      <g>
       <use xlink:href="#m0cdb87df5c" x="242.181818" y="333.490909" style="stroke: #000000; stroke-width: 0.8"/>
      </g>
     </g>
     <g id="text_4">
      <!-- 0.6 -->
      <g transform="translate(234.230256 348.089347)scale(0.1 -0.1)">
       <defs>
        <path id="DejaVuSans-36" d="M 2113 2584 
Q 1688 2584 1439 2293 
Q 1191 2003 1191 1497 
Q 1191 994 1439 701 
Q 1688 409 2113 409 
Q 2538 409 2786 701 
Q 3034 994 3034 1497 
Q 3034 2003 2786 2293 
Q 2538 2584 2113 2584 
z
M 3366 4563 
L 3366 3988 
Q 3128 4100 2886 4159 
Q 2644 4219 2406 4219 
Q 1781 4219 1451 3797 
Q 1122 3375 1075 2522 
Q 1259 2794 1537 2939 
Q 1816 3084 2150 3084 
Q 2853 3084 3261 2657 
Q 3669 2231 3669 1497 
Q 3669 778 3244 343 
Q 2819 -91 2113 -91 
Q 1303 -91 875 529 
Q 447 1150 447 2328 
Q 447 3434 972 4092 
Q 1497 4750 2381 4750 
Q 2619 4750 2861 4703 
Q 3103 4656 3366 4563 
z
" transform="scale(0.015625)"/>
       </defs>
       <use xlink:href="#DejaVuSans-30"/>
       <use xlink:href="#DejaVuSans-2e" x="63.623047"/>
       <use xlink:href="#DejaVuSans-36" x="95.410156"/>
      </g>
     </g>
    </g>
    <g id="xtick_5">
     <g id="line2d_5">
      <g>
       <use xlink:href="#m0cdb87df5c" x="292.909091" y="333.490909" style="stroke: #000000; stroke-width: 0.8"/>
      </g>
     </g>
     <g id="text_5">
      <!-- 0.8 -->
      <g transform="translate(284.957528 348.089347)scale(0.1 -0.1)">
       <defs>
        <path id="DejaVuSans-38" d="M 2034 2216 
Q 1584 2216 1326 1975 
Q 1069 1734 1069 1313 
Q 1069 891 1326 650 
Q 1584 409 2034 409 
Q 2484 409 2743 651 
Q 3003 894 3003 1313 
Q 3003 1734 2745 1975 
Q 2488 2216 2034 2216 
z
M 1403 2484 
Q 997 2584 770 2862 
Q 544 3141 544 3541 
Q 544 4100 942 4425 
Q 1341 4750 2034 4750 
Q 2731 4750 3128 4425 
Q 3525 4100 3525 3541 
Q 3525 3141 3298 2862 
Q 3072 2584 2669 2484 
Q 3125 2378 3379 2068 
Q 3634 1759 3634 1313 
Q 3634 634 3220 271 
Q 2806 -91 2034 -91 
Q 1263 -91 848 271 
Q 434 634 434 1313 
Q 434 1759 690 2068 
Q 947 2378 1403 2484 
z
M 1172 3481 
Q 1172 3119 1398 2916 
Q 1625 2713 2034 2713 
Q 2441 2713 2670 2916 
Q 2900 3119 2900 3481 
Q 2900 3844 2670 4047 
Q 2441 4250 2034 4250 
Q 1625 4250 1398 4047 
Q 1172 3844 1172 3481 
z
" transform="scale(0.015625)"/>
       </defs>
       <use xlink:href="#DejaVuSans-30"/>
       <use xlink:href="#DejaVuSans-2e" x="63.623047"/>
       <use xlink:href="#DejaVuSans-38" x="95.410156"/>
      </g>
     </g>
    </g>
    <g id="xtick_6">
     <g id="line2d_6">
      <g>
       <use xlink:href="#m0cdb87df5c" x="343.636364" y="333.490909" style="stroke: #000000; stroke-width: 0.8"/>
      </g>
     </g>
     <g id="text_6">
      <!-- 1.0 -->
      <g transform="translate(335.684801 348.089347)scale(0.1 -0.1)">
       <defs>
        <path id="DejaVuSans-31" d="M 794 531 
L 1825 531 
L 1825 4091 
L 703 3866 
L 703 4441 
L 1819 4666 
L 2450 4666 
L 2450 531 
L 3481 531 
L 3481 0 
L 794 0 
L 794 531 
z
" transform="scale(0.015625)"/>
       </defs>
       <use xlink:href="#DejaVuSans-31"/>
       <use xlink:href="#DejaVuSans-2e" x="63.623047"/>
       <use xlink:href="#DejaVuSans-30" x="95.410156"/>
      </g>
     </g>
    </g>
   </g>
   <g id="matplotlib.axis_2">
    <g id="ytick_1">
     <g id="line2d_7">
      <defs>
       <path id="mc4f43ddfed" d="M 0 0 
L -3.5 0 
" style="stroke: #000000; stroke-width: 0.8"/>
      </defs>
      <g>
       <use xlink:href="#mc4f43ddfed" x="90" y="333.490909" style="stroke: #000000; stroke-width: 0.8"/>
      </g>
     </g>
     <g id="text_7">
      <!-- 0.0 -->
      <g transform="translate(67.096875 337.290128)scale(0.1 -0.1)">
       <use xlink:href="#DejaVuSans-30"/>
       <use xlink:href="#DejaVuSans-2e" x="63.623047"/>
       <use xlink:href="#DejaVuSans-30" x="95.410156"/>
      </g>
     </g>
    </g>
    <g id="ytick_2">
     <g id="line2d_8">
      <g>
       <use xlink:href="#mc4f43ddfed" x="90" y="284.072727" style="stroke: #000000; stroke-width: 0.8"/>
      </g>
     </g>
     <g id="text_8">
      <!-- 0.2 -->
      <g transform="translate(67.096875 287.871946)scale(0.1 -0.1)">
       <use xlink:href="#DejaVuSans-30"/>
       <use xlink:href="#DejaVuSans-2e" x="63.623047"/>
       <use xlink:href="#DejaVuSans-32" x="95.410156"/>
      </g>
     </g>
    </g>
    <g id="ytick_3">
     <g id="line2d_9">
      <g>
       <use xlink:href="#mc4f43ddfed" x="90" y="234.654545" style="stroke: #000000; stroke-width: 0.8"/>
      </g>
     </g>
     <g id="text_9">
      <!-- 0.4 -->
      <g transform="translate(67.096875 238.453764)scale(0.1 -0.1)">
       <use xlink:href="#DejaVuSans-30"/>
       <use xlink:href="#DejaVuSans-2e" x="63.623047"/>
       <use xlink:href="#DejaVuSans-34" x="95.410156"/>
      </g>
     </g>
    </g>
    <g id="ytick_4">
     <g id="line2d_10">
      <g>
       <use xlink:href="#mc4f43ddfed" x="90" y="185.236364" style="stroke: #000000; stroke-width: 0.8"/>
      </g>
     </g>
     <g id="text_10">
      <!-- 0.6 -->
      <g transform="translate(67.096875 189.035582)scale(0.1 -0.1)">
       <use xlink:href="#DejaVuSans-30"/>
       <use xlink:href="#DejaVuSans-2e" x="63.623047"/>
       <use xlink:href="#DejaVuSans-36" x="95.410156"/>
      </g>
     </g>
    </g>
    <g id="ytick_5">
     <g id="line2d_11">
      <g>
       <use xlink:href="#mc4f43ddfed" x="90" y="135.818182" style="stroke: #000000; stroke-width: 0.8"/>
      </g>
     </g>
     <g id="text_11">
      <!-- 0.8 -->
      <g transform="translate(67.096875 139.617401)scale(0.1 -0.1)">
       <use xlink:href="#DejaVuSans-30"/>
       <use xlink:href="#DejaVuSans-2e" x="63.623047"/>
       <use xlink:href="#DejaVuSans-38" x="95.410156"/>
      </g>
     </g>
    </g>
    <g id="ytick_6">
     <g id="line2d_12">
      <g>
       <use xlink:href="#mc4f43ddfed" x="90" y="86.4" style="stroke: #000000; stroke-width: 0.8"/>
      </g>
     </g>
     <g id="text_12">
      <!-- 1.0 -->
      <g transform="translate(67.096875 90.199219)scale(0.1 -0.1)">
       <use xlink:href="#DejaVuSans-31"/>
       <use xlink:href="#DejaVuSans-2e" x="63.623047"/>
       <use xlink:href="#DejaVuSans-30" x="95.410156"/>
      </g>
     </g>
    </g>
   </g>
   <g id="patch_3">
    <path d="M 90 333.490909 
L 90 86.4 
" style="fill: none; stroke: #000000; stroke-width: 0.8; stroke-linejoin: miter; stroke-linecap: square"/>
   </g>
   <g id="patch_4">
    <path d="M 343.636364 333.490909 
L 343.636364 86.4 
" style="fill: none; stroke: #000000; stroke-width: 0.8; stroke-linejoin: miter; stroke-linecap: square"/>
   </g>
   <g id="patch_5">
    <path d="M 90 333.490909 
L 343.636364 333.490909 
" style="fill: none; stroke: #000000; stroke-width: 0.8; stroke-linejoin: miter; stroke-linecap: square"/>
   </g>
   <g id="patch_6">
    <path d="M 90 86.4 
L 343.636364 86.4 
" style="fill: none; stroke: #000000; stroke-width: 0.8; stroke-linejoin: miter; stroke-linecap: square"/>
   </g>
  </g>
  <g id="axes_2">
   <g id="patch_7">
    <path d="M 394.363636 333.490909 
L 648 333.490909 
L 648 86.4 
L 394.363636 86.4 
z
" style="fill: #ffffff"/>
   </g>
   <g id="PolyCollection_1">
    <defs>
     <path id="m11114e0d04" d="M 405.892562 -501.370147 
L 405.892562 -501.370147 
L 407.342741 -492.291471 
L 408.792921 -501.716324 
L 410.2431 -501.104836 
L 411.693279 -498.920884 
L 413.143459 -495.085844 
L 414.593638 -491.003708 
L 416.043817 -469.386678 
L 417.493997 -489.673326 
L 418.944176 -492.35817 
L 420.394355 -495.140958 
L 421.844535 -487.039398 
L 423.294714 -498.824899 
L 424.744893 -499.563194 
L 426.195073 -498.53761 
L 427.645252 -495.034916 
L 429.095431 -489.57167 
L 430.54561 -464.356561 
L 431.99579 -480.816437 
L 433.445969 -466.381126 
L 434.896148 -486.317491 
L 436.346328 -481.194801 
L 437.796507 -496.752051 
L 439.246686 -511.356475 
L 440.696866 -533.395558 
L 442.147045 -519.43069 
L 443.597224 -539.440639 
L 445.047404 -541.526072 
L 446.497583 -559.829425 
L 447.947762 -531.605397 
L 449.397942 -522.129985 
L 450.848121 -524.279773 
L 452.2983 -517.845418 
L 453.74848 -507.140694 
L 455.198659 -505.575531 
L 456.648838 -502.810504 
L 458.099018 -501.535692 
L 459.549197 -490.173257 
L 460.999376 -503.69771 
L 462.449556 -506.205618 
L 463.899735 -497.583318 
L 465.349914 -508.161068 
L 466.800094 -507.108425 
L 468.250273 -505.651208 
L 469.700452 -501.667161 
L 471.150632 -498.587797 
L 472.600811 -502.558458 
L 474.05099 -502.026378 
L 475.501169 -494.874291 
L 476.951349 -502.643659 
L 478.401528 -506.489884 
L 479.851707 -513.437815 
L 481.301887 -525.443001 
L 482.752066 -541.018209 
L 484.202245 -536.935785 
L 485.652425 -532.1486 
L 487.102604 -550.516311 
L 488.552783 -538.424193 
L 490.002963 -531.211144 
L 491.453142 -534.207999 
L 492.903321 -545.155552 
L 494.353501 -540.016473 
L 495.80368 -544.897014 
L 497.253859 -534.695951 
L 498.704039 -539.81179 
L 500.154218 -529.365538 
L 501.604397 -527.412161 
L 503.054577 -536.496179 
L 504.504756 -543.052482 
L 505.954935 -578.280133 
L 507.405115 -582.077086 
L 508.855294 -589.771485 
L 510.305473 -593.228434 
L 511.755653 -580.578065 
L 513.205832 -564.404827 
L 514.656011 -562.324272 
L 516.106191 -526.556746 
L 517.55637 -529.965946 
L 519.006549 -520.163336 
L 520.456729 -511.943882 
L 521.906908 -507.382152 
L 523.357087 -505.376571 
L 524.807266 -504.687855 
L 526.257446 -504.523828 
L 527.707625 -504.56804 
L 529.157804 -504.780851 
L 530.607984 -505.207253 
L 532.058163 -505.776769 
L 533.508342 -506.215304 
L 534.958522 -497.821224 
L 536.408701 -499.476361 
L 537.85888 -504.712351 
L 539.30906 -503.106868 
L 540.759239 -499.60141 
L 542.209418 -492.19777 
L 543.659598 -479.70335 
L 545.109777 -463.758218 
L 546.559956 -414.497262 
L 548.010136 -440.541098 
L 549.460315 -407.887058 
L 550.910494 -444.789677 
L 552.360674 -452.040243 
L 553.810853 -434.038304 
L 555.261032 -468.315181 
L 556.711212 -475.220033 
L 558.161391 -478.83282 
L 559.61157 -457.270943 
L 561.06175 -465.285644 
L 562.511929 -464.820006 
L 563.962108 -426.586164 
L 565.412288 -430.260582 
L 566.862467 -407.163598 
L 568.312646 -402.968774 
L 569.762826 -411.941454 
L 571.213005 -440.718056 
L 572.663184 -437.901302 
L 574.113363 -464.0184 
L 575.563543 -458.583354 
L 577.013722 -482.460755 
L 578.463901 -489.272586 
L 579.914081 -487.972035 
L 581.36426 -495.836423 
L 582.814439 -489.74672 
L 584.264619 -499.733468 
L 585.714798 -502.684796 
L 587.164977 -505.869919 
L 588.615157 -508.531245 
L 590.065336 -497.240062 
L 591.515515 -509.920178 
L 592.965695 -504.036678 
L 594.415874 -507.141746 
L 595.866053 -504.02079 
L 597.316233 -504.993888 
L 598.766412 -504.655528 
L 600.216591 -504.715299 
L 601.666771 -505.329441 
L 603.11695 -507.044053 
L 604.567129 -510.745783 
L 606.017309 -517.27611 
L 607.467488 -516.56294 
L 608.917667 -526.382502 
L 610.367847 -539.773461 
L 611.818026 -563.030997 
L 613.268205 -547.526549 
L 614.718385 -546.296634 
L 616.168564 -553.416121 
L 617.618743 -525.278025 
L 619.068923 -527.992883 
L 620.519102 -517.841289 
L 621.969281 -510.907134 
L 623.41946 -499.091356 
L 624.86964 -504.600774 
L 626.319819 -501.347968 
L 627.769998 -506.623624 
L 629.220178 -508.309118 
L 630.670357 -510.108623 
L 632.120536 -494.477988 
L 633.570716 -502.228834 
L 635.020895 -509.276247 
L 636.471074 -508.122443 
L 636.471074 -508.122443 
L 636.471074 -508.122443 
L 635.020895 -509.276247 
L 633.570716 -519.068813 
L 632.120536 -527.675475 
L 630.670357 -510.108623 
L 629.220178 -508.309118 
L 627.769998 -506.623624 
L 626.319819 -509.961926 
L 624.86964 -506.742411 
L 623.41946 -515.161917 
L 621.969281 -510.907134 
L 620.519102 -517.841289 
L 619.068923 -527.992883 
L 617.618743 -555.659513 
L 616.168564 -553.416121 
L 614.718385 -581.055541 
L 613.268205 -587.414013 
L 611.818026 -563.030997 
L 610.367847 -564.799531 
L 608.917667 -551.959144 
L 607.467488 -537.302227 
L 606.017309 -517.27611 
L 604.567129 -510.745783 
L 603.11695 -507.044053 
L 601.666771 -505.329441 
L 600.216591 -504.715299 
L 598.766412 -504.655528 
L 597.316233 -504.993888 
L 595.866053 -507.599642 
L 594.415874 -507.141746 
L 592.965695 -513.416592 
L 591.515515 -509.920178 
L 590.065336 -522.706911 
L 588.615157 -508.531245 
L 587.164977 -505.869919 
L 585.714798 -502.684796 
L 584.264619 -499.733468 
L 582.814439 -505.293072 
L 581.36426 -495.836423 
L 579.914081 -499.13885 
L 578.463901 -489.272586 
L 577.013722 -482.460755 
L 575.563543 -488.977599 
L 574.113363 -464.0184 
L 572.663184 -468.198327 
L 571.213005 -440.718056 
L 569.762826 -446.203127 
L 568.312646 -442.406983 
L 566.862467 -443.594869 
L 565.412288 -442.827993 
L 563.962108 -476.308981 
L 562.511929 -464.820006 
L 561.06175 -482.460624 
L 559.61157 -499.535424 
L 558.161391 -478.83282 
L 556.711212 -475.220033 
L 555.261032 -468.315181 
L 553.810853 -486.10657 
L 552.360674 -452.040243 
L 550.910494 -444.789677 
L 549.460315 -471.850383 
L 548.010136 -440.541098 
L 546.559956 -483.616708 
L 545.109777 -463.758218 
L 543.659598 -479.70335 
L 542.209418 -492.19777 
L 540.759239 -499.60141 
L 539.30906 -503.106868 
L 537.85888 -504.712351 
L 536.408701 -511.840193 
L 534.958522 -514.576195 
L 533.508342 -506.215304 
L 532.058163 -505.776769 
L 530.607984 -505.207253 
L 529.157804 -504.780851 
L 527.707625 -504.56804 
L 526.257446 -504.523828 
L 524.807266 -504.687855 
L 523.357087 -505.376571 
L 521.906908 -507.382152 
L 520.456729 -511.943882 
L 519.006549 -520.163336 
L 517.55637 -534.318789 
L 516.106191 -566.926526 
L 514.656011 -562.324272 
L 513.205832 -590.984325 
L 511.755653 -603.31863 
L 510.305473 -612.5479 
L 508.855294 -622.368595 
L 507.405115 -612.924801 
L 505.954935 -578.280133 
L 504.504756 -567.402677 
L 503.054577 -536.496179 
L 501.604397 -527.412161 
L 500.154218 -529.365538 
L 498.704039 -539.81179 
L 497.253859 -570.172318 
L 495.80368 -573.914696 
L 494.353501 -572.361962 
L 492.903321 -545.155552 
L 491.453142 -534.207999 
L 490.002963 -531.211144 
L 488.552783 -538.424193 
L 487.102604 -550.516311 
L 485.652425 -583.712917 
L 484.202245 -571.502431 
L 482.752066 -541.018209 
L 481.301887 -525.443001 
L 479.851707 -513.437815 
L 478.401528 -506.489884 
L 476.951349 -503.838458 
L 475.501169 -509.274233 
L 474.05099 -502.026378 
L 472.600811 -502.558458 
L 471.150632 -508.138888 
L 469.700452 -507.070878 
L 468.250273 -505.651208 
L 466.800094 -507.108425 
L 465.349914 -508.161068 
L 463.899735 -518.341248 
L 462.449556 -506.205618 
L 460.999376 -503.69771 
L 459.549197 -513.51238 
L 458.099018 -501.535692 
L 456.648838 -502.810504 
L 455.198659 -505.575531 
L 453.74848 -513.549631 
L 452.2983 -517.845418 
L 450.848121 -531.669208 
L 449.397942 -556.902419 
L 447.947762 -569.980592 
L 446.497583 -559.829425 
L 445.047404 -586.220451 
L 443.597224 -581.172951 
L 442.147045 -578.661676 
L 440.696866 -533.395558 
L 439.246686 -524.120151 
L 437.796507 -512.452407 
L 436.346328 -507.230537 
L 434.896148 -486.317491 
L 433.445969 -496.702618 
L 431.99579 -480.816437 
L 430.54561 -503.71332 
L 429.095431 -489.57167 
L 427.645252 -495.034916 
L 426.195073 -498.53761 
L 424.744893 -499.563194 
L 423.294714 -498.824899 
L 421.844535 -507.484568 
L 420.394355 -495.140958 
L 418.944176 -492.35817 
L 417.493997 -489.673326 
L 416.043817 -508.336514 
L 414.593638 -491.003708 
L 413.143459 -495.085844 
L 411.693279 -498.920884 
L 410.2431 -501.104836 
L 408.792921 -501.716324 
L 407.342741 -510.864801 
L 405.892562 -501.370147 
z
" style="stroke: #9467bd; stroke-opacity: 0.2"/>
    </defs>
    <g clip-path="url(#p40049679b4)">
     <use xlink:href="#m11114e0d04" x="0" y="720" style="fill: #9467bd; fill-opacity: 0.2; stroke: #9467bd; stroke-opacity: 0.2"/>
    </g>
   </g>
   <g id="PolyCollection_2">
    <defs>
     <path id="m00a5cb98eb" d="M 405.892562 -559.986738 
L 405.892562 -529.883696 
L 407.342741 -536.46483 
L 408.792921 -524.429424 
L 410.2431 -514.160902 
L 411.693279 -507.765423 
L 413.143459 -504.399122 
L 414.593638 -502.574247 
L 416.043817 -501.629311 
L 417.493997 -491.691435 
L 418.944176 -498.317827 
L 420.394355 -503.411045 
L 421.844535 -504.163603 
L 423.294714 -504.474754 
L 424.744893 -504.51783 
L 426.195073 -504.486204 
L 427.645252 -504.46153 
L 429.095431 -504.452168 
L 430.54561 -504.449997 
L 431.99579 -504.449322 
L 433.445969 -504.449322 
L 434.896148 -504.449322 
L 436.346328 -504.449322 
L 437.796507 -504.449322 
L 439.246686 -504.449322 
L 440.696866 -504.449322 
L 442.147045 -504.449322 
L 443.597224 -504.449322 
L 445.047404 -504.449322 
L 446.497583 -504.449322 
L 447.947762 -504.449322 
L 449.397942 -504.449322 
L 450.848121 -504.449322 
L 452.2983 -504.449322 
L 453.74848 -504.449322 
L 455.198659 -504.449855 
L 456.648838 -504.452801 
L 458.099018 -504.466989 
L 459.549197 -504.519199 
L 460.999376 -504.664613 
L 462.449556 -504.966004 
L 463.899735 -505.415755 
L 465.349914 -505.859996 
L 466.800094 -501.78978 
L 468.250273 -505.908909 
L 469.700452 -505.533648 
L 471.150632 -505.215775 
L 472.600811 -504.611225 
L 474.05099 -505.959861 
L 475.501169 -507.677069 
L 476.951349 -510.318404 
L 478.401528 -512.929392 
L 479.851707 -502.533083 
L 481.301887 -512.908636 
L 482.752066 -510.262431 
L 484.202245 -507.560719 
L 485.652425 -505.746322 
L 487.102604 -504.870396 
L 488.552783 -504.555786 
L 490.002963 -504.470286 
L 491.453142 -504.452537 
L 492.903321 -504.449322 
L 494.353501 -504.449322 
L 495.80368 -504.449322 
L 497.253859 -504.449322 
L 498.704039 -504.449322 
L 500.154218 -504.449322 
L 501.604397 -504.449322 
L 503.054577 -504.449322 
L 504.504756 -504.449322 
L 505.954935 -504.449322 
L 507.405115 -504.449322 
L 508.855294 -504.449322 
L 510.305473 -504.449322 
L 511.755653 -504.449322 
L 513.205832 -504.449322 
L 514.656011 -504.449322 
L 516.106191 -504.449322 
L 517.55637 -504.449322 
L 519.006549 -504.449322 
L 520.456729 -504.449322 
L 521.906908 -504.449517 
L 523.357087 -504.450597 
L 524.807266 -504.455797 
L 526.257446 -504.474934 
L 527.707625 -504.528213 
L 529.157804 -504.638573 
L 530.607984 -504.802889 
L 532.058163 -504.963759 
L 533.508342 -502.675103 
L 534.958522 -504.963759 
L 536.408701 -504.802889 
L 537.85888 -504.638573 
L 539.30906 -504.528213 
L 540.759239 -504.474934 
L 542.209418 -504.455797 
L 543.659598 -504.449519 
L 545.109777 -504.444155 
L 546.559956 -504.424489 
L 548.010136 -504.363296 
L 549.460315 -504.232559 
L 550.910494 -504.078928 
L 552.360674 -504.118625 
L 553.810853 -504.659276 
L 555.261032 -499.692985 
L 556.711212 -500.223373 
L 558.161391 -507.924558 
L 559.61157 -508.368715 
L 561.06175 -508.467172 
L 562.511929 -497.016693 
L 563.962108 -507.473589 
L 565.412288 -506.450669 
L 566.862467 -505.504602 
L 568.312646 -504.886818 
L 569.762826 -504.590815 
L 571.213005 -504.485097 
L 572.663184 -504.456483 
L 574.113363 -504.451162 
L 575.563543 -504.453181 
L 577.013722 -504.464587 
L 578.463901 -504.496342 
L 579.914081 -504.56195 
L 581.36426 -504.658959 
L 582.814439 -504.749055 
L 584.264619 -503.024398 
L 585.714798 -504.643234 
L 587.164977 -504.316684 
L 588.615157 -503.686723 
L 590.065336 -502.626025 
L 591.515515 -499.442076 
L 592.965695 -499.421992 
L 594.415874 -485.285595 
L 595.866053 -497.15687 
L 597.316233 -487.718684 
L 598.766412 -494.385868 
L 600.216591 -490.467697 
L 601.666771 -485.400211 
L 603.11695 -469.308232 
L 604.567129 -481.531328 
L 606.017309 -470.856195 
L 607.467488 -491.114887 
L 608.917667 -496.74906 
L 610.367847 -500.677727 
L 611.818026 -502.450804 
L 613.268205 -502.047871 
L 614.718385 -499.313281 
L 616.168564 -494.322092 
L 617.618743 -488.418428 
L 619.068923 -471.460753 
L 620.519102 -471.548268 
L 621.969281 -488.560314 
L 623.41946 -493.637722 
L 624.86964 -496.19734 
L 626.319819 -494.178815 
L 627.769998 -488.087952 
L 629.220178 -481.200778 
L 630.670357 -454.328641 
L 632.120536 -480.465362 
L 633.570716 -486.9625 
L 635.020895 -490.269869 
L 636.471074 -497.310663 
L 636.471074 -497.310663 
L 636.471074 -497.310663 
L 635.020895 -496.78525 
L 633.570716 -486.9625 
L 632.120536 -480.465362 
L 630.670357 -501.533834 
L 629.220178 -481.200778 
L 627.769998 -488.087952 
L 626.319819 -494.178815 
L 624.86964 -496.19734 
L 623.41946 -493.637722 
L 621.969281 -488.560314 
L 620.519102 -497.43208 
L 619.068923 -497.252039 
L 617.618743 -488.418428 
L 616.168564 -494.322092 
L 614.718385 -499.313281 
L 613.268205 -502.047871 
L 611.818026 -502.450804 
L 610.367847 -500.677727 
L 608.917667 -496.74906 
L 607.467488 -491.114887 
L 606.017309 -499.692958 
L 604.567129 -481.531328 
L 603.11695 -494.006668 
L 601.666771 -485.400211 
L 600.216591 -490.467697 
L 598.766412 -494.385868 
L 597.316233 -504.954874 
L 595.866053 -497.15687 
L 594.415874 -510.755279 
L 592.965695 -499.421992 
L 591.515515 -502.788865 
L 590.065336 -502.626025 
L 588.615157 -503.686723 
L 587.164977 -504.316684 
L 585.714798 -504.643234 
L 584.264619 -506.507897 
L 582.814439 -504.749055 
L 581.36426 -504.658959 
L 579.914081 -504.56195 
L 578.463901 -504.496342 
L 577.013722 -504.464587 
L 575.563543 -504.453181 
L 574.113363 -504.451162 
L 572.663184 -504.456483 
L 571.213005 -504.485097 
L 569.762826 -504.590815 
L 568.312646 -504.886818 
L 566.862467 -505.504602 
L 565.412288 -506.450669 
L 563.962108 -507.473589 
L 562.511929 -519.383246 
L 561.06175 -508.467172 
L 559.61157 -508.368715 
L 558.161391 -507.924558 
L 556.711212 -513.799301 
L 555.261032 -511.820241 
L 553.810853 -504.659276 
L 552.360674 -504.118625 
L 550.910494 -504.078928 
L 549.460315 -504.232559 
L 548.010136 -504.363296 
L 546.559956 -504.424489 
L 545.109777 -504.444155 
L 543.659598 -504.449519 
L 542.209418 -504.455797 
L 540.759239 -504.474934 
L 539.30906 -504.528213 
L 537.85888 -504.638573 
L 536.408701 -504.802889 
L 534.958522 -504.963759 
L 533.508342 -507.389409 
L 532.058163 -504.963759 
L 530.607984 -504.802889 
L 529.157804 -504.638573 
L 527.707625 -504.528213 
L 526.257446 -504.474934 
L 524.807266 -504.455797 
L 523.357087 -504.450597 
L 521.906908 -504.449517 
L 520.456729 -504.449322 
L 519.006549 -504.449322 
L 517.55637 -504.449322 
L 516.106191 -504.449322 
L 514.656011 -504.449322 
L 513.205832 -504.449322 
L 511.755653 -504.449322 
L 510.305473 -504.449322 
L 508.855294 -504.449322 
L 507.405115 -504.449322 
L 505.954935 -504.449322 
L 504.504756 -504.449322 
L 503.054577 -504.449322 
L 501.604397 -504.449322 
L 500.154218 -504.449322 
L 498.704039 -504.449322 
L 497.253859 -504.449322 
L 495.80368 -504.449322 
L 494.353501 -504.449322 
L 492.903321 -504.449322 
L 491.453142 -504.452537 
L 490.002963 -504.470286 
L 488.552783 -504.555786 
L 487.102604 -504.870396 
L 485.652425 -505.746322 
L 484.202245 -507.560719 
L 482.752066 -510.262431 
L 481.301887 -512.908636 
L 479.851707 -525.547083 
L 478.401528 -512.929392 
L 476.951349 -510.318404 
L 475.501169 -507.677069 
L 474.05099 -505.959861 
L 472.600811 -505.885622 
L 471.150632 -505.215775 
L 469.700452 -505.533648 
L 468.250273 -505.908909 
L 466.800094 -510.333723 
L 465.349914 -505.859996 
L 463.899735 -505.415755 
L 462.449556 -504.966004 
L 460.999376 -504.664613 
L 459.549197 -504.519199 
L 458.099018 -504.466989 
L 456.648838 -504.452801 
L 455.198659 -504.449855 
L 453.74848 -504.449322 
L 452.2983 -504.449322 
L 450.848121 -504.449322 
L 449.397942 -504.449322 
L 447.947762 -504.449322 
L 446.497583 -504.449322 
L 445.047404 -504.449322 
L 443.597224 -504.449322 
L 442.147045 -504.449322 
L 440.696866 -504.449322 
L 439.246686 -504.449322 
L 437.796507 -504.449322 
L 436.346328 -504.449322 
L 434.896148 -504.449322 
L 433.445969 -504.449322 
L 431.99579 -504.449322 
L 430.54561 -504.449997 
L 429.095431 -504.452168 
L 427.645252 -504.46153 
L 426.195073 -504.486204 
L 424.744893 -504.51783 
L 423.294714 -504.474754 
L 421.844535 -504.163603 
L 420.394355 -503.411045 
L 418.944176 -506.416138 
L 417.493997 -511.493469 
L 416.043817 -501.629311 
L 414.593638 -502.574247 
L 413.143459 -504.399122 
L 411.693279 -507.765423 
L 410.2431 -514.160902 
L 408.792921 -524.429424 
L 407.342741 -536.46483 
L 405.892562 -559.986738 
z
" style="stroke: #1f77b4; stroke-opacity: 0.2"/>
    </defs>
    <g clip-path="url(#p40049679b4)">
     <use xlink:href="#m00a5cb98eb" x="0" y="720" style="fill: #1f77b4; fill-opacity: 0.2; stroke: #1f77b4; stroke-opacity: 0.2"/>
    </g>
   </g>
   <g id="PolyCollection_3">
    <defs>
     <path id="m9e11da7d60" d="M 405.892562 -504.449322 
L 405.892562 -504.449322 
L 407.342741 -504.449322 
L 408.792921 -504.449322 
L 410.2431 -504.449322 
L 411.693279 -504.455824 
L 413.143459 -504.491723 
L 414.593638 -504.664655 
L 416.043817 -505.30476 
L 417.493997 -507.09726 
L 418.944176 -510.867431 
L 420.394355 -516.701103 
L 421.844535 -523.080029 
L 423.294714 -504.90818 
L 424.744893 -528.429982 
L 426.195073 -526.359007 
L 427.645252 -507.477065 
L 429.095431 -519.582165 
L 430.54561 -518.292985 
L 431.99579 -519.828455 
L 433.445969 -522.757951 
L 434.896148 -503.558783 
L 436.346328 -521.316025 
L 437.796507 -515.980253 
L 439.246686 -510.611973 
L 440.696866 -507.015184 
L 442.147045 -505.272808 
L 443.597224 -504.609148 
L 445.047404 -504.289432 
L 446.497583 -503.835368 
L 447.947762 -502.961257 
L 449.397942 -501.669251 
L 450.848121 -500.404342 
L 452.2983 -491.309373 
L 453.74848 -500.404342 
L 455.198659 -501.669251 
L 456.648838 -502.961257 
L 458.099018 -503.829004 
L 459.549197 -504.247934 
L 460.999376 -504.398403 
L 462.449556 -504.441118 
L 463.899735 -504.459671 
L 465.349914 -504.50969 
L 466.800094 -504.688332 
L 468.250273 -505.186385 
L 469.700452 -506.221805 
L 471.150632 -507.778005 
L 472.600811 -509.345658 
L 474.05099 -498.277433 
L 475.501169 -509.687906 
L 476.951349 -508.338337 
L 478.401528 -503.306683 
L 479.851707 -504.36935 
L 481.301887 -500.184552 
L 482.752066 -491.423026 
L 484.202245 -475.73215 
L 485.652425 -454.01239 
L 487.102604 -414.564411 
L 488.552783 -397.740496 
L 490.002963 -404.065383 
L 491.453142 -430.978387 
L 492.903321 -461.574997 
L 494.353501 -475.796844 
L 495.80368 -477.718133 
L 497.253859 -467.726634 
L 498.704039 -437.562631 
L 500.154218 -426.392213 
L 501.604397 -415.369045 
L 503.054577 -412.579023 
L 504.504756 -444.017115 
L 505.954935 -440.966294 
L 507.405115 -471.403616 
L 508.855294 -484.746977 
L 510.305473 -494.717692 
L 511.755653 -500.450477 
L 513.205832 -502.640589 
L 514.656011 -502.159877 
L 516.106191 -498.943128 
L 517.55637 -492.015164 
L 519.006549 -480.449024 
L 520.456729 -446.771783 
L 521.906908 -447.636459 
L 523.357087 -411.997938 
L 524.807266 -413.239623 
L 526.257446 -415.50095 
L 527.707625 -429.523869 
L 529.157804 -449.701843 
L 530.607984 -471.74774 
L 532.058163 -463.588092 
L 533.508342 -487.911834 
L 534.958522 -494.460055 
L 536.408701 -499.443312 
L 537.85888 -502.431622 
L 539.30906 -503.806265 
L 540.759239 -504.288508 
L 542.209418 -504.417938 
L 543.659598 -504.444509 
L 545.109777 -504.449322 
L 546.559956 -504.449322 
L 548.010136 -504.449322 
L 549.460315 -504.449322 
L 550.910494 -504.449322 
L 552.360674 -504.449322 
L 553.810853 -504.449322 
L 555.261032 -504.449322 
L 556.711212 -504.449322 
L 558.161391 -504.449322 
L 559.61157 -504.449322 
L 561.06175 -504.449322 
L 562.511929 -504.449322 
L 563.962108 -504.449322 
L 565.412288 -504.449322 
L 566.862467 -504.449322 
L 568.312646 -504.449322 
L 569.762826 -504.449322 
L 571.213005 -504.449322 
L 572.663184 -504.449322 
L 574.113363 -504.440675 
L 575.563543 -504.392937 
L 577.013722 -504.162975 
L 578.463901 -503.316799 
L 579.914081 -500.960907 
L 581.36426 -496.081049 
L 582.814439 -488.81533 
L 584.264619 -481.701998 
L 585.714798 -446.491159 
L 587.164977 -481.701998 
L 588.615157 -488.812297 
L 590.065336 -496.061268 
L 591.515515 -500.860451 
L 592.965695 -502.919491 
L 594.415874 -502.93918 
L 595.866053 -501.457205 
L 597.316233 -498.956006 
L 598.766412 -496.469176 
L 600.216591 -479.322144 
L 601.666771 -496.427492 
L 603.11695 -498.752965 
L 604.567129 -500.676348 
L 606.017309 -500.64664 
L 607.467488 -497.865587 
L 608.917667 -492.791099 
L 610.367847 -487.613089 
L 611.818026 -465.058951 
L 613.268205 -487.632869 
L 614.718385 -492.891554 
L 616.168564 -498.266336 
L 617.618743 -501.901541 
L 619.068923 -503.782549 
L 620.519102 -504.975328 
L 621.969281 -506.930945 
L 623.41946 -511.26932 
L 624.86964 -519.057726 
L 626.319819 -529.170071 
L 627.769998 -521.011224 
L 629.220178 -509.974261 
L 630.670357 -533.467631 
L 632.120536 -523.44735 
L 633.570716 -514.232571 
L 635.020895 -508.455902 
L 636.471074 -506.007639 
L 636.471074 -506.007639 
L 636.471074 -506.007639 
L 635.020895 -508.455902 
L 633.570716 -514.232571 
L 632.120536 -523.44735 
L 630.670357 -533.467631 
L 629.220178 -568.693613 
L 627.769998 -553.996952 
L 626.319819 -529.170071 
L 624.86964 -519.057726 
L 623.41946 -511.26932 
L 621.969281 -506.930945 
L 620.519102 -504.975328 
L 619.068923 -503.782549 
L 617.618743 -501.901541 
L 616.168564 -498.266336 
L 614.718385 -492.891554 
L 613.268205 -487.632869 
L 611.818026 -505.722552 
L 610.367847 -487.613089 
L 608.917667 -492.791099 
L 607.467488 -497.865587 
L 606.017309 -500.64664 
L 604.567129 -500.676348 
L 603.11695 -498.752965 
L 601.666771 -496.427492 
L 600.216591 -511.478336 
L 598.766412 -496.469176 
L 597.316233 -498.956006 
L 595.866053 -501.457205 
L 594.415874 -502.93918 
L 592.965695 -502.919491 
L 591.515515 -500.860451 
L 590.065336 -496.061268 
L 588.615157 -488.812297 
L 587.164977 -481.701998 
L 585.714798 -510.855295 
L 584.264619 -481.701998 
L 582.814439 -488.81533 
L 581.36426 -496.081049 
L 579.914081 -500.960907 
L 578.463901 -503.316799 
L 577.013722 -504.162975 
L 575.563543 -504.392937 
L 574.113363 -504.440675 
L 572.663184 -504.449322 
L 571.213005 -504.449322 
L 569.762826 -504.449322 
L 568.312646 -504.449322 
L 566.862467 -504.449322 
L 565.412288 -504.449322 
L 563.962108 -504.449322 
L 562.511929 -504.449322 
L 561.06175 -504.449322 
L 559.61157 -504.449322 
L 558.161391 -504.449322 
L 556.711212 -504.449322 
L 555.261032 -504.449322 
L 553.810853 -504.449322 
L 552.360674 -504.449322 
L 550.910494 -504.449322 
L 549.460315 -504.449322 
L 548.010136 -504.449322 
L 546.559956 -504.449322 
L 545.109777 -504.449322 
L 543.659598 -504.444509 
L 542.209418 -504.417938 
L 540.759239 -504.288508 
L 539.30906 -503.806265 
L 537.85888 -502.431622 
L 536.408701 -499.443312 
L 534.958522 -494.460055 
L 533.508342 -487.911834 
L 532.058163 -497.328108 
L 530.607984 -471.74774 
L 529.157804 -471.479205 
L 527.707625 -464.992512 
L 526.257446 -455.010203 
L 524.807266 -446.508754 
L 523.357087 -456.842753 
L 521.906908 -447.636459 
L 520.456729 -482.596347 
L 519.006549 -480.449024 
L 517.55637 -492.015164 
L 516.106191 -498.943128 
L 514.656011 -502.159877 
L 513.205832 -502.640589 
L 511.755653 -500.450477 
L 510.305473 -494.717692 
L 508.855294 -484.746977 
L 507.405115 -471.403616 
L 505.954935 -473.076073 
L 504.504756 -444.017115 
L 503.054577 -456.540785 
L 501.604397 -447.66287 
L 500.154218 -448.63937 
L 498.704039 -465.631776 
L 497.253859 -467.726634 
L 495.80368 -477.718133 
L 494.353501 -475.796844 
L 492.903321 -461.574997 
L 491.453142 -450.857705 
L 490.002963 -444.187983 
L 488.552783 -443.361583 
L 487.102604 -450.461941 
L 485.652425 -454.01239 
L 484.202245 -475.73215 
L 482.752066 -491.423026 
L 481.301887 -500.184552 
L 479.851707 -504.36935 
L 478.401528 -509.914039 
L 476.951349 -508.338337 
L 475.501169 -509.687906 
L 474.05099 -521.972666 
L 472.600811 -509.345658 
L 471.150632 -507.778005 
L 469.700452 -506.221805 
L 468.250273 -505.186385 
L 466.800094 -504.688332 
L 465.349914 -504.50969 
L 463.899735 -504.459671 
L 462.449556 -504.441118 
L 460.999376 -504.398403 
L 459.549197 -504.247934 
L 458.099018 -503.829004 
L 456.648838 -502.961257 
L 455.198659 -501.669251 
L 453.74848 -500.404342 
L 452.2983 -508.422145 
L 450.848121 -500.404342 
L 449.397942 -501.669251 
L 447.947762 -502.961257 
L 446.497583 -503.835368 
L 445.047404 -504.289432 
L 443.597224 -504.609148 
L 442.147045 -505.272808 
L 440.696866 -507.015184 
L 439.246686 -510.611973 
L 437.796507 -515.980253 
L 436.346328 -521.316025 
L 434.896148 -544.284168 
L 433.445969 -522.757951 
L 431.99579 -519.828455 
L 430.54561 -518.292985 
L 429.095431 -519.582165 
L 427.645252 -538.206378 
L 426.195073 -526.359007 
L 424.744893 -528.429982 
L 423.294714 -550.085558 
L 421.844535 -523.080029 
L 420.394355 -516.701103 
L 418.944176 -510.867431 
L 417.493997 -507.09726 
L 416.043817 -505.30476 
L 414.593638 -504.664655 
L 413.143459 -504.491723 
L 411.693279 -504.455824 
L 410.2431 -504.449322 
L 408.792921 -504.449322 
L 407.342741 -504.449322 
L 405.892562 -504.449322 
z
" style="stroke: #d62728; stroke-opacity: 0.2"/>
    </defs>
    <g clip-path="url(#p40049679b4)">
     <use xlink:href="#m9e11da7d60" x="0" y="720" style="fill: #d62728; fill-opacity: 0.2; stroke: #d62728; stroke-opacity: 0.2"/>
    </g>
   </g>
   <g id="PolyCollection_4">
    <defs>
     <path id="m673bd8e8a4" d="M 405.892562 -504.449322 
L 405.892562 -504.449322 
L 407.342741 -504.449322 
L 408.792921 -504.449322 
L 410.2431 -504.449322 
L 411.693279 -504.449322 
L 413.143459 -504.449322 
L 414.593638 -504.449322 
L 416.043817 -504.449322 
L 417.493997 -504.449322 
L 418.944176 -504.449322 
L 420.394355 -504.449322 
L 421.844535 -504.449322 
L 423.294714 -504.449322 
L 424.744893 -504.449322 
L 426.195073 -504.449322 
L 427.645252 -504.449322 
L 429.095431 -504.449322 
L 430.54561 -504.449322 
L 431.99579 -504.449322 
L 433.445969 -504.449322 
L 434.896148 -504.449322 
L 436.346328 -504.449322 
L 437.796507 -504.449322 
L 439.246686 -504.449322 
L 440.696866 -504.449322 
L 442.147045 -504.449322 
L 443.597224 -504.449322 
L 445.047404 -504.449322 
L 446.497583 -504.449322 
L 447.947762 -504.449322 
L 449.397942 -504.450335 
L 450.848121 -504.455931 
L 452.2983 -504.482885 
L 453.74848 -504.583268 
L 455.198659 -504.866038 
L 456.648838 -505.469969 
L 458.099018 -506.439182 
L 459.549197 -507.600334 
L 460.999376 -501.667789 
L 462.449556 -509.288162 
L 463.899735 -509.442914 
L 465.349914 -501.915564 
L 466.800094 -508.019317 
L 468.250273 -506.754666 
L 469.700452 -505.645794 
L 471.150632 -504.940703 
L 472.600811 -504.607718 
L 474.05099 -504.489114 
L 475.501169 -504.457157 
L 476.951349 -504.450523 
L 478.401528 -504.449322 
L 479.851707 -504.449322 
L 481.301887 -504.449322 
L 482.752066 -504.449322 
L 484.202245 -504.449322 
L 485.652425 -504.449322 
L 487.102604 -504.449322 
L 488.552783 -504.449322 
L 490.002963 -504.449322 
L 491.453142 -504.449322 
L 492.903321 -504.449322 
L 494.353501 -504.449322 
L 495.80368 -504.449322 
L 497.253859 -504.449322 
L 498.704039 -504.449322 
L 500.154218 -504.449322 
L 501.604397 -504.449322 
L 503.054577 -504.449322 
L 504.504756 -504.449322 
L 505.954935 -504.449322 
L 507.405115 -504.449322 
L 508.855294 -504.449322 
L 510.305473 -504.454909 
L 511.755653 -504.485758 
L 513.205832 -504.634363 
L 514.656011 -505.181173 
L 516.106191 -506.703581 
L 517.55637 -509.85701 
L 519.006549 -514.552213 
L 520.456729 -519.148943 
L 521.906908 -496.665624 
L 523.357087 -519.148943 
L 524.807266 -514.552213 
L 526.257446 -509.864811 
L 527.707625 -506.764369 
L 529.157804 -505.504184 
L 530.607984 -505.984555 
L 532.058163 -508.932011 
L 533.508342 -516.006068 
L 534.958522 -528.153097 
L 536.408701 -542.905088 
L 537.85888 -532.260782 
L 539.30906 -528.151907 
L 540.759239 -544.647493 
L 542.209418 -529.932829 
L 543.659598 -517.195798 
L 545.109777 -509.472649 
L 546.559956 -506.006784 
L 548.010136 -504.828662 
L 549.460315 -504.521802 
L 550.910494 -504.459241 
L 552.360674 -504.449322 
L 553.810853 -504.449322 
L 555.261032 -504.449322 
L 556.711212 -504.449322 
L 558.161391 -504.449322 
L 559.61157 -504.449322 
L 561.06175 -504.449322 
L 562.511929 -504.449322 
L 563.962108 -504.449322 
L 565.412288 -504.461805 
L 566.862467 -504.530722 
L 568.312646 -504.862704 
L 569.762826 -506.085951 
L 571.213005 -509.496236 
L 572.663184 -516.585392 
L 574.113363 -527.23779 
L 575.563543 -537.961506 
L 577.013722 -516.083352 
L 578.463901 -540.305092 
L 579.914081 -531.408537 
L 581.36426 -512.785117 
L 582.814439 -513.874633 
L 584.264619 -509.100985 
L 585.714798 -506.477429 
L 587.164977 -505.204798 
L 588.615157 -504.68659 
L 590.065336 -504.538214 
L 591.515515 -504.598039 
L 592.965695 -504.89988 
L 594.415874 -505.622343 
L 595.866053 -506.937099 
L 597.316233 -508.779768 
L 598.766412 -504.501548 
L 600.216591 -511.883621 
L 601.666771 -502.619361 
L 603.11695 -510.2881 
L 604.567129 -508.214352 
L 606.017309 -506.402271 
L 607.467488 -505.340309 
L 608.917667 -505.1201 
L 610.367847 -505.807549 
L 611.818026 -507.575699 
L 613.268205 -510.302639 
L 614.718385 -513.095024 
L 616.168564 -501.17624 
L 617.618743 -514.428103 
L 619.068923 -513.128346 
L 620.519102 -511.743993 
L 621.969281 -500.328329 
L 623.41946 -509.060231 
L 624.86964 -507.439298 
L 626.319819 -506.037838 
L 627.769998 -505.231581 
L 629.220178 -505.222503 
L 630.670357 -506.340628 
L 632.120536 -509.177179 
L 633.570716 -514.000795 
L 635.020895 -519.720255 
L 636.471074 -506.438794 
L 636.471074 -541.072278 
L 636.471074 -541.072278 
L 635.020895 -519.720255 
L 633.570716 -514.000795 
L 632.120536 -509.177179 
L 630.670357 -506.340628 
L 629.220178 -505.222503 
L 627.769998 -505.231581 
L 626.319819 -506.037838 
L 624.86964 -507.439298 
L 623.41946 -509.060231 
L 621.969281 -520.655761 
L 620.519102 -511.743993 
L 619.068923 -513.128346 
L 617.618743 -514.428103 
L 616.168564 -528.128644 
L 614.718385 -513.095024 
L 613.268205 -510.302639 
L 611.818026 -507.575699 
L 610.367847 -505.807549 
L 608.917667 -505.1201 
L 607.467488 -505.340309 
L 606.017309 -506.402271 
L 604.567129 -508.214352 
L 603.11695 -510.2881 
L 601.666771 -520.876846 
L 600.216591 -511.883621 
L 598.766412 -516.866889 
L 597.316233 -508.779768 
L 595.866053 -506.937099 
L 594.415874 -505.622343 
L 592.965695 -504.89988 
L 591.515515 -504.598039 
L 590.065336 -504.538214 
L 588.615157 -504.68659 
L 587.164977 -505.204798 
L 585.714798 -506.477429 
L 584.264619 -509.100985 
L 582.814439 -513.874633 
L 581.36426 -530.222566 
L 579.914081 -531.408537 
L 578.463901 -540.305092 
L 577.013722 -570.467818 
L 575.563543 -537.961506 
L 574.113363 -527.23779 
L 572.663184 -516.585392 
L 571.213005 -509.496236 
L 569.762826 -506.085951 
L 568.312646 -504.862704 
L 566.862467 -504.530722 
L 565.412288 -504.461805 
L 563.962108 -504.449322 
L 562.511929 -504.449322 
L 561.06175 -504.449322 
L 559.61157 -504.449322 
L 558.161391 -504.449322 
L 556.711212 -504.449322 
L 555.261032 -504.449322 
L 553.810853 -504.449322 
L 552.360674 -504.449322 
L 550.910494 -504.459241 
L 549.460315 -504.521802 
L 548.010136 -504.828662 
L 546.559956 -506.006784 
L 545.109777 -509.472649 
L 543.659598 -517.195798 
L 542.209418 -529.932829 
L 540.759239 -544.647493 
L 539.30906 -580.926545 
L 537.85888 -575.33388 
L 536.408701 -542.905088 
L 534.958522 -528.153097 
L 533.508342 -516.006068 
L 532.058163 -508.932011 
L 530.607984 -505.984555 
L 529.157804 -505.504184 
L 527.707625 -506.764369 
L 526.257446 -509.864811 
L 524.807266 -514.552213 
L 523.357087 -519.148943 
L 521.906908 -545.546724 
L 520.456729 -519.148943 
L 519.006549 -514.552213 
L 517.55637 -509.85701 
L 516.106191 -506.703581 
L 514.656011 -505.181173 
L 513.205832 -504.634363 
L 511.755653 -504.485758 
L 510.305473 -504.454909 
L 508.855294 -504.449322 
L 507.405115 -504.449322 
L 505.954935 -504.449322 
L 504.504756 -504.449322 
L 503.054577 -504.449322 
L 501.604397 -504.449322 
L 500.154218 -504.449322 
L 498.704039 -504.449322 
L 497.253859 -504.449322 
L 495.80368 -504.449322 
L 494.353501 -504.449322 
L 492.903321 -504.449322 
L 491.453142 -504.449322 
L 490.002963 -504.449322 
L 488.552783 -504.449322 
L 487.102604 -504.449322 
L 485.652425 -504.449322 
L 484.202245 -504.449322 
L 482.752066 -504.449322 
L 481.301887 -504.449322 
L 479.851707 -504.449322 
L 478.401528 -504.449322 
L 476.951349 -504.450523 
L 475.501169 -504.457157 
L 474.05099 -504.489114 
L 472.600811 -504.607718 
L 471.150632 -504.940703 
L 469.700452 -505.645794 
L 468.250273 -506.754666 
L 466.800094 -508.019317 
L 465.349914 -516.108812 
L 463.899735 -509.442914 
L 462.449556 -509.288162 
L 460.999376 -515.599164 
L 459.549197 -507.600334 
L 458.099018 -506.439182 
L 456.648838 -505.469969 
L 455.198659 -504.866038 
L 453.74848 -504.583268 
L 452.2983 -504.482885 
L 450.848121 -504.455931 
L 449.397942 -504.450335 
L 447.947762 -504.449322 
L 446.497583 -504.449322 
L 445.047404 -504.449322 
L 443.597224 -504.449322 
L 442.147045 -504.449322 
L 440.696866 -504.449322 
L 439.246686 -504.449322 
L 437.796507 -504.449322 
L 436.346328 -504.449322 
L 434.896148 -504.449322 
L 433.445969 -504.449322 
L 431.99579 -504.449322 
L 430.54561 -504.449322 
L 429.095431 -504.449322 
L 427.645252 -504.449322 
L 426.195073 -504.449322 
L 424.744893 -504.449322 
L 423.294714 -504.449322 
L 421.844535 -504.449322 
L 420.394355 -504.449322 
L 418.944176 -504.449322 
L 417.493997 -504.449322 
L 416.043817 -504.449322 
L 414.593638 -504.449322 
L 413.143459 -504.449322 
L 411.693279 -504.449322 
L 410.2431 -504.449322 
L 408.792921 -504.449322 
L 407.342741 -504.449322 
L 405.892562 -504.449322 
z
" style="stroke: #ff7f0e; stroke-opacity: 0.2"/>
    </defs>
    <g clip-path="url(#p40049679b4)">
     <use xlink:href="#m673bd8e8a4" x="0" y="720" style="fill: #ff7f0e; fill-opacity: 0.2; stroke: #ff7f0e; stroke-opacity: 0.2"/>
    </g>
   </g>
   <g id="matplotlib.axis_3">
    <g id="xtick_7">
     <g id="line2d_13">
      <g>
       <use xlink:href="#m0cdb87df5c" x="405.863558" y="333.490909" style="stroke: #000000; stroke-width: 0.8"/>
      </g>
     </g>
     <g id="text_13">
      <!-- 0 -->
      <g transform="translate(402.682308 348.089347)scale(0.1 -0.1)">
       <use xlink:href="#DejaVuSans-30"/>
      </g>
     </g>
    </g>
    <g id="xtick_8">
     <g id="line2d_14">
      <g>
       <use xlink:href="#m0cdb87df5c" x="463.870731" y="333.490909" style="stroke: #000000; stroke-width: 0.8"/>
      </g>
     </g>
     <g id="text_14">
      <!-- 2000 -->
      <g transform="translate(451.145731 348.089347)scale(0.1 -0.1)">
       <use xlink:href="#DejaVuSans-32"/>
       <use xlink:href="#DejaVuSans-30" x="63.623047"/>
       <use xlink:href="#DejaVuSans-30" x="127.246094"/>
       <use xlink:href="#DejaVuSans-30" x="190.869141"/>
      </g>
     </g>
    </g>
    <g id="xtick_9">
     <g id="line2d_15">
      <g>
       <use xlink:href="#m0cdb87df5c" x="521.877904" y="333.490909" style="stroke: #000000; stroke-width: 0.8"/>
      </g>
     </g>
     <g id="text_15">
      <!-- 4000 -->
      <g transform="translate(509.152904 348.089347)scale(0.1 -0.1)">
       <use xlink:href="#DejaVuSans-34"/>
       <use xlink:href="#DejaVuSans-30" x="63.623047"/>
       <use xlink:href="#DejaVuSans-30" x="127.246094"/>
       <use xlink:href="#DejaVuSans-30" x="190.869141"/>
      </g>
     </g>
    </g>
    <g id="xtick_10">
     <g id="line2d_16">
      <g>
       <use xlink:href="#m0cdb87df5c" x="579.885077" y="333.490909" style="stroke: #000000; stroke-width: 0.8"/>
      </g>
     </g>
     <g id="text_16">
      <!-- 6000 -->
      <g transform="translate(567.160077 348.089347)scale(0.1 -0.1)">
       <use xlink:href="#DejaVuSans-36"/>
       <use xlink:href="#DejaVuSans-30" x="63.623047"/>
       <use xlink:href="#DejaVuSans-30" x="127.246094"/>
       <use xlink:href="#DejaVuSans-30" x="190.869141"/>
      </g>
     </g>
    </g>
    <g id="xtick_11">
     <g id="line2d_17">
      <g>
       <use xlink:href="#m0cdb87df5c" x="637.89225" y="333.490909" style="stroke: #000000; stroke-width: 0.8"/>
      </g>
     </g>
     <g id="text_17">
      <!-- 8000 -->
      <g transform="translate(625.16725 348.089347)scale(0.1 -0.1)">
       <use xlink:href="#DejaVuSans-38"/>
       <use xlink:href="#DejaVuSans-30" x="63.623047"/>
       <use xlink:href="#DejaVuSans-30" x="127.246094"/>
       <use xlink:href="#DejaVuSans-30" x="190.869141"/>
      </g>
     </g>
    </g>
   </g>
   <g id="matplotlib.axis_4">
    <g id="ytick_7">
     <g id="line2d_18">
      <g>
       <use xlink:href="#mc4f43ddfed" x="394.363636" y="308.084354" style="stroke: #000000; stroke-width: 0.8"/>
      </g>
     </g>
     <g id="text_18">
      <!-- −0.10 -->
      <g transform="translate(356.718324 311.883572)scale(0.1 -0.1)">
       <defs>
        <path id="DejaVuSans-2212" d="M 678 2272 
L 4684 2272 
L 4684 1741 
L 678 1741 
L 678 2272 
z
" transform="scale(0.015625)"/>
       </defs>
       <use xlink:href="#DejaVuSans-2212"/>
       <use xlink:href="#DejaVuSans-30" x="83.789062"/>
       <use xlink:href="#DejaVuSans-2e" x="147.412109"/>
       <use xlink:href="#DejaVuSans-31" x="179.199219"/>
       <use xlink:href="#DejaVuSans-30" x="242.822266"/>
      </g>
     </g>
    </g>
    <g id="ytick_8">
     <g id="line2d_19">
      <g>
       <use xlink:href="#mc4f43ddfed" x="394.363636" y="261.817516" style="stroke: #000000; stroke-width: 0.8"/>
      </g>
     </g>
     <g id="text_19">
      <!-- −0.05 -->
      <g transform="translate(356.718324 265.616735)scale(0.1 -0.1)">
       <defs>
        <path id="DejaVuSans-35" d="M 691 4666 
L 3169 4666 
L 3169 4134 
L 1269 4134 
L 1269 2991 
Q 1406 3038 1543 3061 
Q 1681 3084 1819 3084 
Q 2600 3084 3056 2656 
Q 3513 2228 3513 1497 
Q 3513 744 3044 326 
Q 2575 -91 1722 -91 
Q 1428 -91 1123 -41 
Q 819 9 494 109 
L 494 744 
Q 775 591 1075 516 
Q 1375 441 1709 441 
Q 2250 441 2565 725 
Q 2881 1009 2881 1497 
Q 2881 1984 2565 2268 
Q 2250 2553 1709 2553 
Q 1456 2553 1204 2497 
Q 953 2441 691 2322 
L 691 4666 
z
" transform="scale(0.015625)"/>
       </defs>
       <use xlink:href="#DejaVuSans-2212"/>
       <use xlink:href="#DejaVuSans-30" x="83.789062"/>
       <use xlink:href="#DejaVuSans-2e" x="147.412109"/>
       <use xlink:href="#DejaVuSans-30" x="179.199219"/>
       <use xlink:href="#DejaVuSans-35" x="242.822266"/>
      </g>
     </g>
    </g>
    <g id="ytick_9">
     <g id="line2d_20">
      <g>
       <use xlink:href="#mc4f43ddfed" x="394.363636" y="215.550678" style="stroke: #000000; stroke-width: 0.8"/>
      </g>
     </g>
     <g id="text_20">
      <!-- 0.00 -->
      <g transform="translate(365.098011 219.349897)scale(0.1 -0.1)">
       <use xlink:href="#DejaVuSans-30"/>
       <use xlink:href="#DejaVuSans-2e" x="63.623047"/>
       <use xlink:href="#DejaVuSans-30" x="95.410156"/>
       <use xlink:href="#DejaVuSans-30" x="159.033203"/>
      </g>
     </g>
    </g>
    <g id="ytick_10">
     <g id="line2d_21">
      <g>
       <use xlink:href="#mc4f43ddfed" x="394.363636" y="169.283841" style="stroke: #000000; stroke-width: 0.8"/>
      </g>
     </g>
     <g id="text_21">
      <!-- 0.05 -->
      <g transform="translate(365.098011 173.08306)scale(0.1 -0.1)">
       <use xlink:href="#DejaVuSans-30"/>
       <use xlink:href="#DejaVuSans-2e" x="63.623047"/>
       <use xlink:href="#DejaVuSans-30" x="95.410156"/>
       <use xlink:href="#DejaVuSans-35" x="159.033203"/>
      </g>
     </g>
    </g>
    <g id="ytick_11">
     <g id="line2d_22">
      <g>
       <use xlink:href="#mc4f43ddfed" x="394.363636" y="123.017003" style="stroke: #000000; stroke-width: 0.8"/>
      </g>
     </g>
     <g id="text_22">
      <!-- 0.10 -->
      <g transform="translate(365.098011 126.816222)scale(0.1 -0.1)">
       <use xlink:href="#DejaVuSans-30"/>
       <use xlink:href="#DejaVuSans-2e" x="63.623047"/>
       <use xlink:href="#DejaVuSans-31" x="95.410156"/>
       <use xlink:href="#DejaVuSans-30" x="159.033203"/>
      </g>
     </g>
    </g>
   </g>
   <g id="line2d_23">
    <path d="M 405.892562 218.629853 
L 408.792921 218.283676 
L 410.2431 218.895164 
L 411.693279 221.079116 
L 414.593638 228.996292 
L 416.043817 231.138404 
L 417.493997 230.326674 
L 420.394355 224.859042 
L 421.844535 222.738017 
L 423.294714 221.175101 
L 424.744893 220.436806 
L 426.195073 221.46239 
L 427.645252 224.965084 
L 430.54561 235.96506 
L 431.99579 239.183563 
L 433.445969 238.458128 
L 434.896148 233.682509 
L 436.346328 225.787331 
L 437.796507 215.397771 
L 439.246686 202.261687 
L 442.147045 170.953817 
L 443.597224 159.693205 
L 445.047404 156.126738 
L 446.497583 160.170575 
L 447.947762 169.207005 
L 450.848121 192.02551 
L 452.2983 202.154582 
L 453.74848 209.654837 
L 455.198659 214.424469 
L 456.648838 217.189496 
L 458.099018 218.464308 
L 459.549197 218.157181 
L 460.999376 216.30229 
L 462.449556 213.794382 
L 463.899735 212.037717 
L 465.349914 211.838932 
L 466.800094 212.891575 
L 468.250273 214.348792 
L 469.700452 215.630981 
L 471.150632 216.636657 
L 472.600811 217.441542 
L 474.05099 217.973622 
L 475.501169 217.925738 
L 476.951349 216.758941 
L 478.401528 213.510116 
L 479.851707 206.562185 
L 481.301887 194.556999 
L 482.752066 178.981791 
L 484.202245 165.780892 
L 485.652425 162.069242 
L 487.102604 169.483689 
L 488.552783 181.575807 
L 490.002963 188.788856 
L 491.453142 185.792001 
L 494.353501 163.810782 
L 495.80368 160.594145 
L 497.253859 167.565866 
L 498.704039 180.18821 
L 500.154218 190.634462 
L 501.604397 192.587839 
L 503.054577 183.503821 
L 504.504756 164.772421 
L 505.954935 141.719867 
L 507.405115 122.499057 
L 508.855294 113.92996 
L 510.305473 117.111833 
L 511.755653 128.051652 
L 513.205832 142.305424 
L 517.55637 187.857632 
L 519.006549 199.836664 
L 520.456729 208.056118 
L 521.906908 212.617848 
L 523.357087 214.623429 
L 524.807266 215.312145 
L 526.257446 215.476172 
L 527.707625 215.43196 
L 529.157804 215.219149 
L 530.607984 214.792747 
L 532.058163 214.223231 
L 533.508342 213.784696 
L 534.958522 213.80129 
L 536.408701 214.341723 
L 537.85888 215.287649 
L 539.30906 216.893132 
L 540.759239 220.39859 
L 542.209418 227.80223 
L 543.659598 240.29665 
L 545.109777 256.241782 
L 546.559956 270.943015 
L 548.010136 279.458902 
L 549.460315 280.131279 
L 550.910494 275.210323 
L 552.360674 267.959757 
L 555.261032 251.684819 
L 556.711212 244.779967 
L 558.161391 241.16718 
L 559.61157 241.596816 
L 561.06175 246.126866 
L 562.511929 255.179994 
L 563.962108 268.552427 
L 565.412288 283.455713 
L 566.862467 294.620766 
L 568.312646 297.312121 
L 569.762826 290.92771 
L 574.113363 255.9816 
L 575.563543 246.219523 
L 577.013722 237.539245 
L 578.463901 230.727414 
L 579.914081 226.444558 
L 581.36426 224.163577 
L 582.814439 222.480104 
L 584.264619 220.266532 
L 588.615157 211.468755 
L 590.065336 210.026514 
L 591.515515 210.079822 
L 592.965695 211.273365 
L 594.415874 212.858254 
L 595.866053 214.189784 
L 597.316233 215.006112 
L 598.766412 215.344472 
L 600.216591 215.284701 
L 601.666771 214.670559 
L 603.11695 212.955947 
L 604.567129 209.254217 
L 606.017309 202.72389 
L 607.467488 193.067417 
L 611.818026 156.969003 
L 613.268205 152.529719 
L 614.718385 156.323912 
L 616.168564 166.583879 
L 619.068923 192.007117 
L 620.519102 202.158711 
L 621.969281 209.092866 
L 623.41946 212.873363 
L 624.86964 214.328407 
L 626.319819 214.345053 
L 627.769998 213.376376 
L 630.670357 209.891377 
L 632.120536 208.923269 
L 633.570716 209.351176 
L 635.020895 210.723753 
L 636.471074 211.877557 
L 636.471074 211.877557 
" clip-path="url(#p40049679b4)" style="fill: none; stroke: #9467bd; stroke-width: 2; stroke-linecap: square"/>
   </g>
   <g id="line2d_24">
    <path d="M 405.892562 175.064783 
L 407.342741 183.53517 
L 408.792921 195.570576 
L 410.2431 205.839098 
L 411.693279 212.234577 
L 413.143459 215.600878 
L 414.593638 217.425753 
L 416.043817 218.370689 
L 417.493997 218.407548 
L 418.944176 217.633018 
L 420.394355 216.588955 
L 421.844535 215.836397 
L 423.294714 215.525246 
L 426.195073 215.513796 
L 433.445969 215.550678 
L 459.549197 215.480801 
L 460.999376 215.335387 
L 462.449556 215.033996 
L 465.349914 214.140004 
L 466.800094 213.938249 
L 468.250273 214.091091 
L 471.150632 214.784225 
L 472.600811 214.751576 
L 474.05099 214.040139 
L 475.501169 212.322931 
L 478.401528 207.070608 
L 479.851707 205.959917 
L 481.301887 207.091364 
L 484.202245 212.439281 
L 485.652425 214.253678 
L 487.102604 215.129604 
L 488.552783 215.444214 
L 491.453142 215.547463 
L 526.257446 215.525066 
L 529.157804 215.361427 
L 533.508342 214.967744 
L 536.408701 215.197111 
L 539.30906 215.471787 
L 543.659598 215.550481 
L 548.010136 215.636704 
L 550.910494 215.921072 
L 552.360674 215.881375 
L 553.810853 215.340724 
L 555.261032 214.243387 
L 556.711212 212.988663 
L 558.161391 212.075442 
L 559.61157 211.631285 
L 561.06175 211.532828 
L 562.511929 211.80003 
L 563.962108 212.526411 
L 566.862467 214.495398 
L 568.312646 215.113182 
L 569.762826 215.409185 
L 572.663184 215.543517 
L 578.463901 215.503658 
L 584.264619 215.233852 
L 585.714798 215.356766 
L 587.164977 215.683316 
L 588.615157 216.313277 
L 590.065336 217.373975 
L 591.515515 218.884529 
L 592.965695 220.578008 
L 594.415874 221.979563 
L 597.316233 223.663221 
L 598.766412 225.614132 
L 600.216591 229.532303 
L 601.666771 234.599789 
L 603.11695 238.34255 
L 604.567129 238.468672 
L 606.017309 234.725423 
L 608.917667 223.25094 
L 610.367847 219.322273 
L 611.818026 217.549196 
L 613.268205 217.952129 
L 614.718385 220.686719 
L 616.168564 225.677908 
L 617.618743 231.581572 
L 619.068923 235.643604 
L 620.519102 235.509826 
L 621.969281 231.439686 
L 623.41946 226.362278 
L 624.86964 223.80266 
L 626.319819 225.821185 
L 627.769998 231.912048 
L 629.220178 238.799222 
L 630.670357 242.068763 
L 632.120536 239.534638 
L 635.020895 226.47244 
L 636.471074 222.689337 
L 636.471074 222.689337 
" clip-path="url(#p40049679b4)" style="fill: none; stroke: #1f77b4; stroke-width: 2; stroke-linecap: square"/>
   </g>
   <g id="line2d_25">
    <path d="M 405.892562 215.550678 
L 413.143459 215.508277 
L 414.593638 215.335345 
L 416.043817 214.69524 
L 417.493997 212.90274 
L 418.944176 209.132569 
L 420.394355 203.298897 
L 421.844535 196.919971 
L 423.294714 192.503131 
L 424.744893 191.570018 
L 426.195073 193.640993 
L 429.095431 200.417835 
L 430.54561 201.707015 
L 431.99579 200.171545 
L 433.445969 197.242049 
L 434.896148 196.078524 
L 436.346328 198.683975 
L 439.246686 209.388027 
L 440.696866 212.984816 
L 442.147045 214.727192 
L 443.597224 215.390852 
L 445.047404 215.710568 
L 446.497583 216.164632 
L 447.947762 217.038743 
L 450.848121 219.595658 
L 452.2983 220.134241 
L 453.74848 219.595658 
L 456.648838 217.038743 
L 458.099018 216.170996 
L 459.549197 215.752066 
L 462.449556 215.558882 
L 465.349914 215.49031 
L 466.800094 215.311668 
L 468.250273 214.813615 
L 469.700452 213.778195 
L 472.600811 210.654342 
L 474.05099 209.874951 
L 475.501169 210.312094 
L 476.951349 211.661663 
L 478.401528 213.389639 
L 479.851707 215.63065 
L 481.301887 219.815448 
L 482.752066 228.576974 
L 484.202245 244.26785 
L 487.102604 287.486824 
L 488.552783 299.448961 
L 490.002963 295.873317 
L 491.453142 279.081954 
L 492.903321 258.425003 
L 494.353501 244.203156 
L 495.80368 242.281867 
L 497.253859 252.273366 
L 498.704039 268.402796 
L 500.154218 282.484208 
L 501.604397 288.484042 
L 503.054577 285.440096 
L 504.504756 275.982885 
L 505.954935 262.978817 
L 508.855294 235.253023 
L 510.305473 225.282308 
L 511.755653 219.549523 
L 513.205832 217.359411 
L 514.656011 217.840123 
L 516.106191 221.056872 
L 517.55637 227.984836 
L 519.006549 239.550976 
L 520.456729 255.315935 
L 521.906908 272.363541 
L 523.357087 285.579654 
L 524.807266 290.125811 
L 526.257446 284.744424 
L 527.707625 272.741809 
L 529.157804 259.409476 
L 530.607984 248.25226 
L 532.058163 239.5419 
L 533.508342 232.088166 
L 534.958522 225.539945 
L 536.408701 220.556688 
L 537.85888 217.568378 
L 539.30906 216.193735 
L 540.759239 215.711492 
L 543.659598 215.555491 
L 574.113363 215.559325 
L 575.563543 215.607063 
L 577.013722 215.837025 
L 578.463901 216.683201 
L 579.914081 219.039093 
L 581.36426 223.918951 
L 584.264619 238.298002 
L 585.714798 241.326773 
L 587.164977 238.298002 
L 590.065336 223.938732 
L 591.515515 219.139549 
L 592.965695 217.080509 
L 594.415874 217.06082 
L 595.866053 218.542795 
L 598.766412 223.530824 
L 600.216591 224.59976 
L 601.666771 223.572508 
L 603.11695 221.247035 
L 604.567129 219.323652 
L 606.017309 219.35336 
L 607.467488 222.134413 
L 610.367847 232.386911 
L 611.818026 234.609249 
L 613.268205 232.367131 
L 616.168564 221.733664 
L 617.618743 218.098459 
L 619.068923 216.217451 
L 620.519102 215.024672 
L 621.969281 213.069055 
L 623.41946 208.73068 
L 624.86964 200.942274 
L 626.319819 190.829929 
L 627.769998 182.495912 
L 629.220178 180.666063 
L 630.670357 186.532369 
L 632.120536 196.55265 
L 633.570716 205.767429 
L 635.020895 211.544098 
L 636.471074 213.992361 
L 636.471074 213.992361 
" clip-path="url(#p40049679b4)" style="fill: none; stroke: #d62728; stroke-width: 2; stroke-linecap: square"/>
   </g>
   <g id="line2d_26">
    <path d="M 405.892562 215.550678 
L 452.2983 215.517115 
L 453.74848 215.416732 
L 455.198659 215.133962 
L 456.648838 214.530031 
L 458.099018 213.560818 
L 460.999376 211.366524 
L 462.449556 210.711838 
L 463.899735 210.557086 
L 465.349914 210.987812 
L 466.800094 211.980683 
L 468.250273 213.245334 
L 469.700452 214.354206 
L 471.150632 215.059297 
L 472.600811 215.392282 
L 475.501169 215.542843 
L 500.154218 215.550678 
L 511.755653 215.514242 
L 513.205832 215.365637 
L 514.656011 214.818827 
L 516.106191 213.296419 
L 517.55637 210.14299 
L 520.456729 200.851057 
L 521.906908 198.893826 
L 523.357087 200.851057 
L 526.257446 210.135189 
L 527.707625 213.235631 
L 529.157804 214.495816 
L 530.607984 214.015445 
L 532.058163 211.067989 
L 533.508342 203.993932 
L 534.958522 191.846903 
L 536.408701 177.094912 
L 537.85888 166.202669 
L 539.30906 165.460774 
L 540.759239 175.352507 
L 542.209418 190.067171 
L 543.659598 202.804202 
L 545.109777 210.527351 
L 546.559956 213.993216 
L 548.010136 215.171338 
L 549.460315 215.478198 
L 552.360674 215.550678 
L 566.862467 215.469278 
L 568.312646 215.137296 
L 569.762826 213.914049 
L 571.213005 210.503764 
L 572.663184 203.414608 
L 575.563543 182.038494 
L 577.013722 176.724415 
L 578.463901 179.694908 
L 579.914081 188.591463 
L 581.36426 198.496158 
L 582.814439 206.125367 
L 584.264619 210.899015 
L 585.714798 213.522571 
L 587.164977 214.795202 
L 588.615157 215.31341 
L 590.065336 215.461786 
L 591.515515 215.401961 
L 592.965695 215.10012 
L 594.415874 214.377657 
L 595.866053 213.062901 
L 598.766412 209.315782 
L 600.216591 208.116379 
L 601.666771 208.251896 
L 603.11695 209.7119 
L 604.567129 211.785648 
L 606.017309 213.597729 
L 607.467488 214.659691 
L 608.917667 214.8799 
L 610.367847 214.192451 
L 611.818026 212.424301 
L 614.718385 206.904976 
L 616.168564 205.347558 
L 617.618743 205.571897 
L 621.969281 209.507955 
L 623.41946 210.939769 
L 624.86964 212.560702 
L 626.319819 213.962162 
L 627.769998 214.768419 
L 629.220178 214.777497 
L 630.670357 213.659372 
L 632.120536 210.822821 
L 633.570716 205.999205 
L 635.020895 200.279745 
L 636.471074 196.244464 
L 636.471074 196.244464 
" clip-path="url(#p40049679b4)" style="fill: none; stroke: #ff7f0e; stroke-width: 2; stroke-linecap: square"/>
   </g>
   <g id="LineCollection_1">
    <path d="M 521.877904 282.469816 
L 521.877904 133.541224 
" clip-path="url(#p40049679b4)" style="fill: none; stroke-dasharray: 7.4,3.2; stroke-dashoffset: 0; stroke: #000000; stroke-width: 2"/>
    <path d="M 536.379697 282.469816 
L 536.379697 133.541224 
" clip-path="url(#p40049679b4)" style="fill: none; stroke-dasharray: 7.4,3.2; stroke-dashoffset: 0; stroke: #000000; stroke-width: 2"/>
    <path d="M 565.383284 282.469816 
L 565.383284 133.541224 
" clip-path="url(#p40049679b4)" style="fill: none; stroke-dasharray: 7.4,3.2; stroke-dashoffset: 0; stroke: #000000; stroke-width: 2"/>
    <path d="M 623.390457 282.469816 
L 623.390457 133.541224 
" clip-path="url(#p40049679b4)" style="fill: none; stroke-dasharray: 7.4,3.2; stroke-dashoffset: 0; stroke: #000000; stroke-width: 2"/>
   </g>
   <g id="patch_8">
    <path d="M 394.363636 333.490909 
L 394.363636 86.4 
" style="fill: none; stroke: #000000; stroke-width: 0.8; stroke-linejoin: miter; stroke-linecap: square"/>
   </g>
   <g id="patch_9">
    <path d="M 648 333.490909 
L 648 86.4 
" style="fill: none; stroke: #000000; stroke-width: 0.8; stroke-linejoin: miter; stroke-linecap: square"/>
   </g>
   <g id="patch_10">
    <path d="M 394.363636 333.490909 
L 648 333.490909 
" style="fill: none; stroke: #000000; stroke-width: 0.8; stroke-linejoin: miter; stroke-linecap: square"/>
   </g>
   <g id="patch_11">
    <path d="M 394.363636 86.4 
L 648 86.4 
" style="fill: none; stroke: #000000; stroke-width: 0.8; stroke-linejoin: miter; stroke-linecap: square"/>
   </g>
   <g id="text_23">
    <!-- unit_47 -->
    <g transform="translate(498.922756 80.4)scale(0.12 -0.12)">
     <defs>
      <path id="DejaVuSans-75" d="M 544 1381 
L 544 3500 
L 1119 3500 
L 1119 1403 
Q 1119 906 1312 657 
Q 1506 409 1894 409 
Q 2359 409 2629 706 
Q 2900 1003 2900 1516 
L 2900 3500 
L 3475 3500 
L 3475 0 
L 2900 0 
L 2900 538 
Q 2691 219 2414 64 
Q 2138 -91 1772 -91 
Q 1169 -91 856 284 
Q 544 659 544 1381 
z
M 1991 3584 
L 1991 3584 
z
" transform="scale(0.015625)"/>
      <path id="DejaVuSans-6e" d="M 3513 2113 
L 3513 0 
L 2938 0 
L 2938 2094 
Q 2938 2591 2744 2837 
Q 2550 3084 2163 3084 
Q 1697 3084 1428 2787 
Q 1159 2491 1159 1978 
L 1159 0 
L 581 0 
L 581 3500 
L 1159 3500 
L 1159 2956 
Q 1366 3272 1645 3428 
Q 1925 3584 2291 3584 
Q 2894 3584 3203 3211 
Q 3513 2838 3513 2113 
z
" transform="scale(0.015625)"/>
      <path id="DejaVuSans-69" d="M 603 3500 
L 1178 3500 
L 1178 0 
L 603 0 
L 603 3500 
z
M 603 4863 
L 1178 4863 
L 1178 4134 
L 603 4134 
L 603 4863 
z
" transform="scale(0.015625)"/>
      <path id="DejaVuSans-74" d="M 1172 4494 
L 1172 3500 
L 2356 3500 
L 2356 3053 
L 1172 3053 
L 1172 1153 
Q 1172 725 1289 603 
Q 1406 481 1766 481 
L 2356 481 
L 2356 0 
L 1766 0 
Q 1100 0 847 248 
Q 594 497 594 1153 
L 594 3053 
L 172 3053 
L 172 3500 
L 594 3500 
L 594 4494 
L 1172 4494 
z
" transform="scale(0.015625)"/>
      <path id="DejaVuSans-5f" d="M 3263 -1063 
L 3263 -1509 
L -63 -1509 
L -63 -1063 
L 3263 -1063 
z
" transform="scale(0.015625)"/>
      <path id="DejaVuSans-37" d="M 525 4666 
L 3525 4666 
L 3525 4397 
L 1831 0 
L 1172 0 
L 2766 4134 
L 525 4134 
L 525 4666 
z
" transform="scale(0.015625)"/>
     </defs>
     <use xlink:href="#DejaVuSans-75"/>
     <use xlink:href="#DejaVuSans-6e" x="63.378906"/>
     <use xlink:href="#DejaVuSans-69" x="126.757812"/>
     <use xlink:href="#DejaVuSans-74" x="154.541016"/>
     <use xlink:href="#DejaVuSans-5f" x="193.75"/>
     <use xlink:href="#DejaVuSans-34" x="243.75"/>
     <use xlink:href="#DejaVuSans-37" x="307.373047"/>
    </g>
   </g>
  </g>
  <g id="axes_3">
   <g id="patch_12">
    <path d="M 90 630 
L 343.636364 630 
L 343.636364 382.909091 
L 90 382.909091 
z
" style="fill: #ffffff"/>
   </g>
   <g id="matplotlib.axis_5">
    <g id="xtick_12">
     <g id="line2d_27">
      <g>
       <use xlink:href="#m0cdb87df5c" x="90" y="630" style="stroke: #000000; stroke-width: 0.8"/>
      </g>
     </g>
     <g id="text_24">
      <!-- 0.0 -->
      <g transform="translate(82.048438 644.598437)scale(0.1 -0.1)">
       <use xlink:href="#DejaVuSans-30"/>
       <use xlink:href="#DejaVuSans-2e" x="63.623047"/>
       <use xlink:href="#DejaVuSans-30" x="95.410156"/>
      </g>
     </g>
    </g>
    <g id="xtick_13">
     <g id="line2d_28">
      <g>
       <use xlink:href="#m0cdb87df5c" x="140.727273" y="630" style="stroke: #000000; stroke-width: 0.8"/>
      </g>
     </g>
     <g id="text_25">
      <!-- 0.2 -->
      <g transform="translate(132.77571 644.598437)scale(0.1 -0.1)">
       <use xlink:href="#DejaVuSans-30"/>
       <use xlink:href="#DejaVuSans-2e" x="63.623047"/>
       <use xlink:href="#DejaVuSans-32" x="95.410156"/>
      </g>
     </g>
    </g>
    <g id="xtick_14">
     <g id="line2d_29">
      <g>
       <use xlink:href="#m0cdb87df5c" x="191.454545" y="630" style="stroke: #000000; stroke-width: 0.8"/>
      </g>
     </g>
     <g id="text_26">
      <!-- 0.4 -->
      <g transform="translate(183.502983 644.598437)scale(0.1 -0.1)">
       <use xlink:href="#DejaVuSans-30"/>
       <use xlink:href="#DejaVuSans-2e" x="63.623047"/>
       <use xlink:href="#DejaVuSans-34" x="95.410156"/>
      </g>
     </g>
    </g>
    <g id="xtick_15">
     <g id="line2d_30">
      <g>
       <use xlink:href="#m0cdb87df5c" x="242.181818" y="630" style="stroke: #000000; stroke-width: 0.8"/>
      </g>
     </g>
     <g id="text_27">
      <!-- 0.6 -->
      <g transform="translate(234.230256 644.598437)scale(0.1 -0.1)">
       <use xlink:href="#DejaVuSans-30"/>
       <use xlink:href="#DejaVuSans-2e" x="63.623047"/>
       <use xlink:href="#DejaVuSans-36" x="95.410156"/>
      </g>
     </g>
    </g>
    <g id="xtick_16">
     <g id="line2d_31">
      <g>
       <use xlink:href="#m0cdb87df5c" x="292.909091" y="630" style="stroke: #000000; stroke-width: 0.8"/>
      </g>
     </g>
     <g id="text_28">
      <!-- 0.8 -->
      <g transform="translate(284.957528 644.598437)scale(0.1 -0.1)">
       <use xlink:href="#DejaVuSans-30"/>
       <use xlink:href="#DejaVuSans-2e" x="63.623047"/>
       <use xlink:href="#DejaVuSans-38" x="95.410156"/>
      </g>
     </g>
    </g>
    <g id="xtick_17">
     <g id="line2d_32">
      <g>
       <use xlink:href="#m0cdb87df5c" x="343.636364" y="630" style="stroke: #000000; stroke-width: 0.8"/>
      </g>
     </g>
     <g id="text_29">
      <!-- 1.0 -->
      <g transform="translate(335.684801 644.598437)scale(0.1 -0.1)">
       <use xlink:href="#DejaVuSans-31"/>
       <use xlink:href="#DejaVuSans-2e" x="63.623047"/>
       <use xlink:href="#DejaVuSans-30" x="95.410156"/>
      </g>
     </g>
    </g>
   </g>
   <g id="matplotlib.axis_6">
    <g id="ytick_12">
     <g id="line2d_33">
      <g>
       <use xlink:href="#mc4f43ddfed" x="90" y="630" style="stroke: #000000; stroke-width: 0.8"/>
      </g>
     </g>
     <g id="text_30">
      <!-- 0.0 -->
      <g transform="translate(67.096875 633.799219)scale(0.1 -0.1)">
       <use xlink:href="#DejaVuSans-30"/>
       <use xlink:href="#DejaVuSans-2e" x="63.623047"/>
       <use xlink:href="#DejaVuSans-30" x="95.410156"/>
      </g>
     </g>
    </g>
    <g id="ytick_13">
     <g id="line2d_34">
      <g>
       <use xlink:href="#mc4f43ddfed" x="90" y="580.581818" style="stroke: #000000; stroke-width: 0.8"/>
      </g>
     </g>
     <g id="text_31">
      <!-- 0.2 -->
      <g transform="translate(67.096875 584.381037)scale(0.1 -0.1)">
       <use xlink:href="#DejaVuSans-30"/>
       <use xlink:href="#DejaVuSans-2e" x="63.623047"/>
       <use xlink:href="#DejaVuSans-32" x="95.410156"/>
      </g>
     </g>
    </g>
    <g id="ytick_14">
     <g id="line2d_35">
      <g>
       <use xlink:href="#mc4f43ddfed" x="90" y="531.163636" style="stroke: #000000; stroke-width: 0.8"/>
      </g>
     </g>
     <g id="text_32">
      <!-- 0.4 -->
      <g transform="translate(67.096875 534.962855)scale(0.1 -0.1)">
       <use xlink:href="#DejaVuSans-30"/>
       <use xlink:href="#DejaVuSans-2e" x="63.623047"/>
       <use xlink:href="#DejaVuSans-34" x="95.410156"/>
      </g>
     </g>
    </g>
    <g id="ytick_15">
     <g id="line2d_36">
      <g>
       <use xlink:href="#mc4f43ddfed" x="90" y="481.745455" style="stroke: #000000; stroke-width: 0.8"/>
      </g>
     </g>
     <g id="text_33">
      <!-- 0.6 -->
      <g transform="translate(67.096875 485.544673)scale(0.1 -0.1)">
       <use xlink:href="#DejaVuSans-30"/>
       <use xlink:href="#DejaVuSans-2e" x="63.623047"/>
       <use xlink:href="#DejaVuSans-36" x="95.410156"/>
      </g>
     </g>
    </g>
    <g id="ytick_16">
     <g id="line2d_37">
      <g>
       <use xlink:href="#mc4f43ddfed" x="90" y="432.327273" style="stroke: #000000; stroke-width: 0.8"/>
      </g>
     </g>
     <g id="text_34">
      <!-- 0.8 -->
      <g transform="translate(67.096875 436.126491)scale(0.1 -0.1)">
       <use xlink:href="#DejaVuSans-30"/>
       <use xlink:href="#DejaVuSans-2e" x="63.623047"/>
       <use xlink:href="#DejaVuSans-38" x="95.410156"/>
      </g>
     </g>
    </g>
    <g id="ytick_17">
     <g id="line2d_38">
      <g>
       <use xlink:href="#mc4f43ddfed" x="90" y="382.909091" style="stroke: #000000; stroke-width: 0.8"/>
      </g>
     </g>
     <g id="text_35">
      <!-- 1.0 -->
      <g transform="translate(67.096875 386.70831)scale(0.1 -0.1)">
       <use xlink:href="#DejaVuSans-31"/>
       <use xlink:href="#DejaVuSans-2e" x="63.623047"/>
       <use xlink:href="#DejaVuSans-30" x="95.410156"/>
      </g>
     </g>
    </g>
   </g>
   <g id="patch_13">
    <path d="M 90 630 
L 90 382.909091 
" style="fill: none; stroke: #000000; stroke-width: 0.8; stroke-linejoin: miter; stroke-linecap: square"/>
   </g>
   <g id="patch_14">
    <path d="M 343.636364 630 
L 343.636364 382.909091 
" style="fill: none; stroke: #000000; stroke-width: 0.8; stroke-linejoin: miter; stroke-linecap: square"/>
   </g>
   <g id="patch_15">
    <path d="M 90 630 
L 343.636364 630 
" style="fill: none; stroke: #000000; stroke-width: 0.8; stroke-linejoin: miter; stroke-linecap: square"/>
   </g>
   <g id="patch_16">
    <path d="M 90 382.909091 
L 343.636364 382.909091 
" style="fill: none; stroke: #000000; stroke-width: 0.8; stroke-linejoin: miter; stroke-linecap: square"/>
   </g>
  </g>
  <g id="axes_4">
   <g id="patch_17">
    <path d="M 394.363636 630 
L 648 630 
L 648 382.909091 
L 394.363636 382.909091 
z
" style="fill: #ffffff"/>
   </g>
   <g id="matplotlib.axis_7">
    <g id="xtick_18">
     <g id="line2d_39">
      <g>
       <use xlink:href="#m0cdb87df5c" x="405.863558" y="630" style="stroke: #000000; stroke-width: 0.8"/>
      </g>
     </g>
     <g id="text_36">
      <!-- 0 -->
      <g transform="translate(402.682308 644.598437)scale(0.1 -0.1)">
       <use xlink:href="#DejaVuSans-30"/>
      </g>
     </g>
    </g>
    <g id="xtick_19">
     <g id="line2d_40">
      <g>
       <use xlink:href="#m0cdb87df5c" x="463.870731" y="630" style="stroke: #000000; stroke-width: 0.8"/>
      </g>
     </g>
     <g id="text_37">
      <!-- 2000 -->
      <g transform="translate(451.145731 644.598437)scale(0.1 -0.1)">
       <use xlink:href="#DejaVuSans-32"/>
       <use xlink:href="#DejaVuSans-30" x="63.623047"/>
       <use xlink:href="#DejaVuSans-30" x="127.246094"/>
       <use xlink:href="#DejaVuSans-30" x="190.869141"/>
      </g>
     </g>
    </g>
    <g id="xtick_20">
     <g id="line2d_41">
      <g>
       <use xlink:href="#m0cdb87df5c" x="521.877904" y="630" style="stroke: #000000; stroke-width: 0.8"/>
      </g>
     </g>
     <g id="text_38">
      <!-- 4000 -->
      <g transform="translate(509.152904 644.598437)scale(0.1 -0.1)">
       <use xlink:href="#DejaVuSans-34"/>
       <use xlink:href="#DejaVuSans-30" x="63.623047"/>
       <use xlink:href="#DejaVuSans-30" x="127.246094"/>
       <use xlink:href="#DejaVuSans-30" x="190.869141"/>
      </g>
     </g>
    </g>
    <g id="xtick_21">
     <g id="line2d_42">
      <g>
       <use xlink:href="#m0cdb87df5c" x="579.885077" y="630" style="stroke: #000000; stroke-width: 0.8"/>
      </g>
     </g>
     <g id="text_39">
      <!-- 6000 -->
      <g transform="translate(567.160077 644.598437)scale(0.1 -0.1)">
       <use xlink:href="#DejaVuSans-36"/>
       <use xlink:href="#DejaVuSans-30" x="63.623047"/>
       <use xlink:href="#DejaVuSans-30" x="127.246094"/>
       <use xlink:href="#DejaVuSans-30" x="190.869141"/>
      </g>
     </g>
    </g>
    <g id="xtick_22">
     <g id="line2d_43">
      <g>
       <use xlink:href="#m0cdb87df5c" x="637.89225" y="630" style="stroke: #000000; stroke-width: 0.8"/>
      </g>
     </g>
     <g id="text_40">
      <!-- 8000 -->
      <g transform="translate(625.16725 644.598437)scale(0.1 -0.1)">
       <use xlink:href="#DejaVuSans-38"/>
       <use xlink:href="#DejaVuSans-30" x="63.623047"/>
       <use xlink:href="#DejaVuSans-30" x="127.246094"/>
       <use xlink:href="#DejaVuSans-30" x="190.869141"/>
      </g>
     </g>
    </g>
   </g>
   <g id="matplotlib.axis_8">
    <g id="ytick_18">
     <g id="line2d_44">
      <g>
       <use xlink:href="#mc4f43ddfed" x="394.363636" y="630" style="stroke: #000000; stroke-width: 0.8"/>
      </g>
     </g>
     <g id="text_41">
      <!-- −2 -->
      <g transform="translate(372.621449 633.799219)scale(0.1 -0.1)">
       <use xlink:href="#DejaVuSans-2212"/>
       <use xlink:href="#DejaVuSans-32" x="83.789062"/>
      </g>
     </g>
    </g>
    <g id="ytick_19">
     <g id="line2d_45">
      <g>
       <use xlink:href="#mc4f43ddfed" x="394.363636" y="587.720145" style="stroke: #000000; stroke-width: 0.8"/>
      </g>
     </g>
     <g id="text_42">
      <!-- 0 -->
      <g transform="translate(381.001136 591.519364)scale(0.1 -0.1)">
       <use xlink:href="#DejaVuSans-30"/>
      </g>
     </g>
    </g>
    <g id="ytick_20">
     <g id="line2d_46">
      <g>
       <use xlink:href="#mc4f43ddfed" x="394.363636" y="545.440291" style="stroke: #000000; stroke-width: 0.8"/>
      </g>
     </g>
     <g id="text_43">
      <!-- 2 -->
      <g transform="translate(381.001136 549.23951)scale(0.1 -0.1)">
       <use xlink:href="#DejaVuSans-32"/>
      </g>
     </g>
    </g>
    <g id="ytick_21">
     <g id="line2d_47">
      <g>
       <use xlink:href="#mc4f43ddfed" x="394.363636" y="503.160436" style="stroke: #000000; stroke-width: 0.8"/>
      </g>
     </g>
     <g id="text_44">
      <!-- 4 -->
      <g transform="translate(381.001136 506.959655)scale(0.1 -0.1)">
       <use xlink:href="#DejaVuSans-34"/>
      </g>
     </g>
    </g>
    <g id="ytick_22">
     <g id="line2d_48">
      <g>
       <use xlink:href="#mc4f43ddfed" x="394.363636" y="460.880582" style="stroke: #000000; stroke-width: 0.8"/>
      </g>
     </g>
     <g id="text_45">
      <!-- 6 -->
      <g transform="translate(381.001136 464.6798)scale(0.1 -0.1)">
       <use xlink:href="#DejaVuSans-36"/>
      </g>
     </g>
    </g>
    <g id="ytick_23">
     <g id="line2d_49">
      <g>
       <use xlink:href="#mc4f43ddfed" x="394.363636" y="418.600727" style="stroke: #000000; stroke-width: 0.8"/>
      </g>
     </g>
     <g id="text_46">
      <!-- 8 -->
      <g transform="translate(381.001136 422.399946)scale(0.1 -0.1)">
       <use xlink:href="#DejaVuSans-38"/>
      </g>
     </g>
    </g>
   </g>
   <g id="line2d_50">
    <path d="M 405.892562 588.858162 
L 407.342741 595.252998 
L 408.792921 593.476056 
L 410.2431 589.086798 
L 411.693279 587.682638 
L 413.143459 585.865265 
L 414.593638 579.396884 
L 416.043817 574.069581 
L 417.493997 579.904563 
L 418.944176 588.334792 
L 420.394355 594.79668 
L 421.844535 591.798268 
L 423.294714 578.125057 
L 424.744893 579.188134 
L 427.645252 600.333197 
L 429.095431 617.69096 
L 430.54561 630.211576 
L 431.99579 609.924914 
L 433.445969 591.964104 
L 434.896148 603.611474 
L 436.346328 621.374874 
L 437.796507 620.322888 
L 439.246686 610.954038 
L 440.696866 626.068945 
L 442.147045 661.281856 
L 443.597224 672.283402 
L 445.047404 653.901345 
L 446.497583 633.96139 
L 447.947762 633.082464 
L 449.397942 625.497391 
L 450.848121 605.349615 
L 452.2983 594.04446 
L 453.74848 592.959416 
L 455.198659 591.113984 
L 456.648838 590.778753 
L 459.549197 606.761912 
L 460.999376 603.169417 
L 462.449556 600.467326 
L 463.899735 601.659347 
L 465.349914 594.774774 
L 466.800094 589.006845 
L 468.250273 589.79754 
L 469.700452 593.10764 
L 471.150632 593.918485 
L 472.600811 590.627447 
L 474.05099 589.583361 
L 475.501169 591.964142 
L 476.951349 592.611044 
L 478.401528 591.797811 
L 479.851707 589.853765 
L 481.301887 590.099133 
L 484.202245 606.983973 
L 485.652425 570.578047 
L 487.102604 492.983277 
L 488.552783 455.434044 
L 490.002963 470.132398 
L 491.453142 517.9275 
L 492.903321 540.810014 
L 494.353501 530.403923 
L 495.80368 542.577589 
L 497.253859 556.469436 
L 498.704039 505.581384 
L 500.154218 438.968614 
L 501.604397 465.349573 
L 503.054577 517.866433 
L 504.504756 503.898819 
L 505.954935 434.551569 
L 507.405115 382.909091 
L 508.855294 419.446568 
L 510.305473 521.399449 
L 511.755653 590.369433 
L 513.205832 608.571295 
L 516.106191 622.123563 
L 519.006549 597.714525 
L 520.456729 590.454389 
L 521.906908 575.270669 
L 523.357087 555.627837 
L 524.807266 532.616106 
L 526.257446 526.565348 
L 529.157804 575.586771 
L 530.607984 583.039274 
L 532.058163 584.760226 
L 533.508342 592.294826 
L 534.958522 607.338041 
L 536.408701 627.103908 
L 537.85888 639.437496 
L 539.30906 626.072504 
L 540.759239 602.353006 
L 542.209418 591.709622 
L 543.659598 604.963252 
L 546.52763 721 
M 546.657394 721 
L 548.010136 703.19817 
L 549.460315 669.20357 
L 550.910494 626.835699 
L 552.360674 590.010494 
L 553.810853 577.752887 
L 555.261032 581.825481 
L 556.711212 593.351432 
L 559.61157 647.103967 
L 561.06175 636.957961 
L 562.511929 616.774371 
L 563.962108 603.419642 
L 565.412288 571.852526 
L 566.862467 522.881592 
L 568.312646 515.829719 
L 569.762826 553.867537 
L 571.213005 576.74289 
L 572.663184 579.24189 
L 574.113363 585.234165 
L 575.563543 587.80718 
L 577.013722 582.190711 
L 578.463901 581.868565 
L 579.914081 584.220454 
L 581.36426 585.895299 
L 582.814439 590.087107 
L 584.264619 598.539398 
L 585.714798 604.906122 
L 587.164977 600.604461 
L 588.615157 602.120668 
L 590.065336 608.862072 
L 591.515515 605.310043 
L 592.965695 602.470761 
L 594.415874 600.955916 
L 597.316233 589.857495 
L 598.766412 588.772981 
L 600.216591 587.952642 
L 601.666771 583.364619 
L 603.11695 583.806083 
L 604.567129 589.615937 
L 606.017309 603.502532 
L 607.467488 624.129338 
L 608.917667 629.199453 
L 610.367847 607.734654 
L 611.818026 573.550772 
L 613.268205 561.667713 
L 616.168564 610.193884 
L 617.618743 618.40421 
L 620.519102 590.756268 
L 621.969281 590.402549 
L 623.41946 596.046428 
L 624.86964 600.852579 
L 626.319819 610.762825 
L 627.769998 611.462976 
L 629.220178 595.35507 
L 630.670357 597.595486 
L 632.120536 612.927336 
L 633.570716 611.718043 
L 635.020895 604.110404 
L 636.471074 605.158837 
L 636.471074 605.158837 
" clip-path="url(#p6c66c1dc26)" style="fill: none; stroke: #1f77b4; stroke-width: 1.5; stroke-linecap: square"/>
   </g>
   <g id="patch_18">
    <path d="M 394.363636 630 
L 394.363636 382.909091 
" style="fill: none; stroke: #000000; stroke-width: 0.8; stroke-linejoin: miter; stroke-linecap: square"/>
   </g>
   <g id="patch_19">
    <path d="M 648 630 
L 648 382.909091 
" style="fill: none; stroke: #000000; stroke-width: 0.8; stroke-linejoin: miter; stroke-linecap: square"/>
   </g>
   <g id="patch_20">
    <path d="M 394.363636 630 
L 648 630 
" style="fill: none; stroke: #000000; stroke-width: 0.8; stroke-linejoin: miter; stroke-linecap: square"/>
   </g>
   <g id="patch_21">
    <path d="M 394.363636 382.909091 
L 648 382.909091 
" style="fill: none; stroke: #000000; stroke-width: 0.8; stroke-linejoin: miter; stroke-linecap: square"/>
   </g>
   <g id="text_47">
    <!-- explained variance -->
    <g transform="translate(464.181818 376.909091)scale(0.12 -0.12)">
     <defs>
      <path id="DejaVuSans-65" d="M 3597 1894 
L 3597 1613 
L 953 1613 
Q 991 1019 1311 708 
Q 1631 397 2203 397 
Q 2534 397 2845 478 
Q 3156 559 3463 722 
L 3463 178 
Q 3153 47 2828 -22 
Q 2503 -91 2169 -91 
Q 1331 -91 842 396 
Q 353 884 353 1716 
Q 353 2575 817 3079 
Q 1281 3584 2069 3584 
Q 2775 3584 3186 3129 
Q 3597 2675 3597 1894 
z
M 3022 2063 
Q 3016 2534 2758 2815 
Q 2500 3097 2075 3097 
Q 1594 3097 1305 2825 
Q 1016 2553 972 2059 
L 3022 2063 
z
" transform="scale(0.015625)"/>
      <path id="DejaVuSans-78" d="M 3513 3500 
L 2247 1797 
L 3578 0 
L 2900 0 
L 1881 1375 
L 863 0 
L 184 0 
L 1544 1831 
L 300 3500 
L 978 3500 
L 1906 2253 
L 2834 3500 
L 3513 3500 
z
" transform="scale(0.015625)"/>
      <path id="DejaVuSans-70" d="M 1159 525 
L 1159 -1331 
L 581 -1331 
L 581 3500 
L 1159 3500 
L 1159 2969 
Q 1341 3281 1617 3432 
Q 1894 3584 2278 3584 
Q 2916 3584 3314 3078 
Q 3713 2572 3713 1747 
Q 3713 922 3314 415 
Q 2916 -91 2278 -91 
Q 1894 -91 1617 61 
Q 1341 213 1159 525 
z
M 3116 1747 
Q 3116 2381 2855 2742 
Q 2594 3103 2138 3103 
Q 1681 3103 1420 2742 
Q 1159 2381 1159 1747 
Q 1159 1113 1420 752 
Q 1681 391 2138 391 
Q 2594 391 2855 752 
Q 3116 1113 3116 1747 
z
" transform="scale(0.015625)"/>
      <path id="DejaVuSans-6c" d="M 603 4863 
L 1178 4863 
L 1178 0 
L 603 0 
L 603 4863 
z
" transform="scale(0.015625)"/>
      <path id="DejaVuSans-61" d="M 2194 1759 
Q 1497 1759 1228 1600 
Q 959 1441 959 1056 
Q 959 750 1161 570 
Q 1363 391 1709 391 
Q 2188 391 2477 730 
Q 2766 1069 2766 1631 
L 2766 1759 
L 2194 1759 
z
M 3341 1997 
L 3341 0 
L 2766 0 
L 2766 531 
Q 2569 213 2275 61 
Q 1981 -91 1556 -91 
Q 1019 -91 701 211 
Q 384 513 384 1019 
Q 384 1609 779 1909 
Q 1175 2209 1959 2209 
L 2766 2209 
L 2766 2266 
Q 2766 2663 2505 2880 
Q 2244 3097 1772 3097 
Q 1472 3097 1187 3025 
Q 903 2953 641 2809 
L 641 3341 
Q 956 3463 1253 3523 
Q 1550 3584 1831 3584 
Q 2591 3584 2966 3190 
Q 3341 2797 3341 1997 
z
" transform="scale(0.015625)"/>
      <path id="DejaVuSans-64" d="M 2906 2969 
L 2906 4863 
L 3481 4863 
L 3481 0 
L 2906 0 
L 2906 525 
Q 2725 213 2448 61 
Q 2172 -91 1784 -91 
Q 1150 -91 751 415 
Q 353 922 353 1747 
Q 353 2572 751 3078 
Q 1150 3584 1784 3584 
Q 2172 3584 2448 3432 
Q 2725 3281 2906 2969 
z
M 947 1747 
Q 947 1113 1208 752 
Q 1469 391 1925 391 
Q 2381 391 2643 752 
Q 2906 1113 2906 1747 
Q 2906 2381 2643 2742 
Q 2381 3103 1925 3103 
Q 1469 3103 1208 2742 
Q 947 2381 947 1747 
z
" transform="scale(0.015625)"/>
      <path id="DejaVuSans-20" transform="scale(0.015625)"/>
      <path id="DejaVuSans-76" d="M 191 3500 
L 800 3500 
L 1894 563 
L 2988 3500 
L 3597 3500 
L 2284 0 
L 1503 0 
L 191 3500 
z
" transform="scale(0.015625)"/>
      <path id="DejaVuSans-72" d="M 2631 2963 
Q 2534 3019 2420 3045 
Q 2306 3072 2169 3072 
Q 1681 3072 1420 2755 
Q 1159 2438 1159 1844 
L 1159 0 
L 581 0 
L 581 3500 
L 1159 3500 
L 1159 2956 
Q 1341 3275 1631 3429 
Q 1922 3584 2338 3584 
Q 2397 3584 2469 3576 
Q 2541 3569 2628 3553 
L 2631 2963 
z
" transform="scale(0.015625)"/>
      <path id="DejaVuSans-63" d="M 3122 3366 
L 3122 2828 
Q 2878 2963 2633 3030 
Q 2388 3097 2138 3097 
Q 1578 3097 1268 2742 
Q 959 2388 959 1747 
Q 959 1106 1268 751 
Q 1578 397 2138 397 
Q 2388 397 2633 464 
Q 2878 531 3122 666 
L 3122 134 
Q 2881 22 2623 -34 
Q 2366 -91 2075 -91 
Q 1284 -91 818 406 
Q 353 903 353 1747 
Q 353 2603 823 3093 
Q 1294 3584 2113 3584 
Q 2378 3584 2631 3529 
Q 2884 3475 3122 3366 
z
" transform="scale(0.015625)"/>
     </defs>
     <use xlink:href="#DejaVuSans-65"/>
     <use xlink:href="#DejaVuSans-78" x="59.773438"/>
     <use xlink:href="#DejaVuSans-70" x="118.953125"/>
     <use xlink:href="#DejaVuSans-6c" x="182.429688"/>
     <use xlink:href="#DejaVuSans-61" x="210.212891"/>
     <use xlink:href="#DejaVuSans-69" x="271.492188"/>
     <use xlink:href="#DejaVuSans-6e" x="299.275391"/>
     <use xlink:href="#DejaVuSans-65" x="362.654297"/>
     <use xlink:href="#DejaVuSans-64" x="424.177734"/>
     <use xlink:href="#DejaVuSans-20" x="487.654297"/>
     <use xlink:href="#DejaVuSans-76" x="519.441406"/>
     <use xlink:href="#DejaVuSans-61" x="578.621094"/>
     <use xlink:href="#DejaVuSans-72" x="639.900391"/>
     <use xlink:href="#DejaVuSans-69" x="681.013672"/>
     <use xlink:href="#DejaVuSans-61" x="708.796875"/>
     <use xlink:href="#DejaVuSans-6e" x="770.076172"/>
     <use xlink:href="#DejaVuSans-63" x="833.455078"/>
     <use xlink:href="#DejaVuSans-65" x="888.435547"/>
    </g>
   </g>
  </g>
 </g>
 <defs>
  <clipPath id="p40049679b4">
   <rect x="394.363636" y="86.4" width="253.636364" height="247.090909"/>
  </clipPath>
  <clipPath id="p6c66c1dc26">
   <rect x="394.363636" y="382.909091" width="253.636364" height="247.090909"/>
  </clipPath>
 </defs>
</svg>
