<?xml version="1.0" encoding="utf-8" standalone="no"?>
<!DOCTYPE svg PUBLIC "-//W3C//DTD SVG 1.1//EN"
  "http://www.w3.org/Graphics/SVG/1.1/DTD/svg11.dtd">
<svg xmlns:xlink="http://www.w3.org/1999/xlink" width="720pt" height="720pt" viewBox="0 0 720 720" xmlns="http://www.w3.org/2000/svg" version="1.1">
 <metadata>
  <rdf:RDF xmlns:dc="http://purl.org/dc/elements/1.1/" xmlns:cc="http://creativecommons.org/ns#" xmlns:rdf="http://www.w3.org/1999/02/22-rdf-syntax-ns#">
   <cc:Work>
    <dc:type rdf:resource="http://purl.org/dc/dcmitype/StillImage"/>
    <dc:date>2023-12-19T18:16:41.330379</dc:date>
    <dc:format>image/svg+xml</dc:format>
    <dc:creator>
     <cc:Agent>
      <dc:title>Matplotlib v3.5.2, https://matplotlib.org/</dc:title>
     </cc:Agent>
    </dc:creator>
   </cc:Work>
  </rdf:RDF>
 </metadata>
 <defs>
  <style type="text/css">*{stroke-linejoin: round; stroke-linecap: butt}</style>
 </defs>
 <g id="figure_1">
  <g id="patch_1">
   <path d="M 0 720 
L 720 720 
L 720 0 
L 0 0 
z
" style="fill: #ffffff"/>
  </g>
  <g id="axes_1">
   <g id="patch_2">
    <path d="M 90 333.490909 
L 343.636364 333.490909 
L 343.636364 86.4 
L 90 86.4 
z
" style="fill: #ffffff"/>
   </g>
   <g id="matplotlib.axis_1">
    <g id="xtick_1">
     <g id="line2d_1">
      <defs>
       <path id="m77b00c91de" d="M 0 0 
L 0 3.5 
" style="stroke: #000000; stroke-width: 0.8"/>
      </defs>
      <g>
       <use xlink:href="#m77b00c91de" x="90" y="333.490909" style="stroke: #000000; stroke-width: 0.8"/>
      </g>
     </g>
     <g id="text_1">
      <!-- 0.0 -->
      <g transform="translate(82.048438 348.089347)scale(0.1 -0.1)">
       <defs>
        <path id="DejaVuSans-30" d="M 2034 4250 
Q 1547 4250 1301 3770 
Q 1056 3291 1056 2328 
Q 1056 1369 1301 889 
Q 1547 409 2034 409 
Q 2525 409 2770 889 
Q 3016 1369 3016 2328 
Q 3016 3291 2770 3770 
Q 2525 4250 2034 4250 
z
M 2034 4750 
Q 2819 4750 3233 4129 
Q 3647 3509 3647 2328 
Q 3647 1150 3233 529 
Q 2819 -91 2034 -91 
Q 1250 -91 836 529 
Q 422 1150 422 2328 
Q 422 3509 836 4129 
Q 1250 4750 2034 4750 
z
" transform="scale(0.015625)"/>
        <path id="DejaVuSans-2e" d="M 684 794 
L 1344 794 
L 1344 0 
L 684 0 
L 684 794 
z
" transform="scale(0.015625)"/>
       </defs>
       <use xlink:href="#DejaVuSans-30"/>
       <use xlink:href="#DejaVuSans-2e" x="63.623047"/>
       <use xlink:href="#DejaVuSans-30" x="95.410156"/>
      </g>
     </g>
    </g>
    <g id="xtick_2">
     <g id="line2d_2">
      <g>
       <use xlink:href="#m77b00c91de" x="140.727273" y="333.490909" style="stroke: #000000; stroke-width: 0.8"/>
      </g>
     </g>
     <g id="text_2">
      <!-- 0.2 -->
      <g transform="translate(132.77571 348.089347)scale(0.1 -0.1)">
       <defs>
        <path id="DejaVuSans-32" d="M 1228 531 
L 3431 531 
L 3431 0 
L 469 0 
L 469 531 
Q 828 903 1448 1529 
Q 2069 2156 2228 2338 
Q 2531 2678 2651 2914 
Q 2772 3150 2772 3378 
Q 2772 3750 2511 3984 
Q 2250 4219 1831 4219 
Q 1534 4219 1204 4116 
Q 875 4013 500 3803 
L 500 4441 
Q 881 4594 1212 4672 
Q 1544 4750 1819 4750 
Q 2544 4750 2975 4387 
Q 3406 4025 3406 3419 
Q 3406 3131 3298 2873 
Q 3191 2616 2906 2266 
Q 2828 2175 2409 1742 
Q 1991 1309 1228 531 
z
" transform="scale(0.015625)"/>
       </defs>
       <use xlink:href="#DejaVuSans-30"/>
       <use xlink:href="#DejaVuSans-2e" x="63.623047"/>
       <use xlink:href="#DejaVuSans-32" x="95.410156"/>
      </g>
     </g>
    </g>
    <g id="xtick_3">
     <g id="line2d_3">
      <g>
       <use xlink:href="#m77b00c91de" x="191.454545" y="333.490909" style="stroke: #000000; stroke-width: 0.8"/>
      </g>
     </g>
     <g id="text_3">
      <!-- 0.4 -->
      <g transform="translate(183.502983 348.089347)scale(0.1 -0.1)">
       <defs>
        <path id="DejaVuSans-34" d="M 2419 4116 
L 825 1625 
L 2419 1625 
L 2419 4116 
z
M 2253 4666 
L 3047 4666 
L 3047 1625 
L 3713 1625 
L 3713 1100 
L 3047 1100 
L 3047 0 
L 2419 0 
L 2419 1100 
L 313 1100 
L 313 1709 
L 2253 4666 
z
" transform="scale(0.015625)"/>
       </defs>
       <use xlink:href="#DejaVuSans-30"/>
       <use xlink:href="#DejaVuSans-2e" x="63.623047"/>
       <use xlink:href="#DejaVuSans-34" x="95.410156"/>
      </g>
     </g>
    </g>
    <g id="xtick_4">
     <g id="line2d_4">
      <g>
       <use xlink:href="#m77b00c91de" x="242.181818" y="333.490909" style="stroke: #000000; stroke-width: 0.8"/>
      </g>
     </g>
     <g id="text_4">
      <!-- 0.6 -->
      <g transform="translate(234.230256 348.089347)scale(0.1 -0.1)">
       <defs>
        <path id="DejaVuSans-36" d="M 2113 2584 
Q 1688 2584 1439 2293 
Q 1191 2003 1191 1497 
Q 1191 994 1439 701 
Q 1688 409 2113 409 
Q 2538 409 2786 701 
Q 3034 994 3034 1497 
Q 3034 2003 2786 2293 
Q 2538 2584 2113 2584 
z
M 3366 4563 
L 3366 3988 
Q 3128 4100 2886 4159 
Q 2644 4219 2406 4219 
Q 1781 4219 1451 3797 
Q 1122 3375 1075 2522 
Q 1259 2794 1537 2939 
Q 1816 3084 2150 3084 
Q 2853 3084 3261 2657 
Q 3669 2231 3669 1497 
Q 3669 778 3244 343 
Q 2819 -91 2113 -91 
Q 1303 -91 875 529 
Q 447 1150 447 2328 
Q 447 3434 972 4092 
Q 1497 4750 2381 4750 
Q 2619 4750 2861 4703 
Q 3103 4656 3366 4563 
z
" transform="scale(0.015625)"/>
       </defs>
       <use xlink:href="#DejaVuSans-30"/>
       <use xlink:href="#DejaVuSans-2e" x="63.623047"/>
       <use xlink:href="#DejaVuSans-36" x="95.410156"/>
      </g>
     </g>
    </g>
    <g id="xtick_5">
     <g id="line2d_5">
      <g>
       <use xlink:href="#m77b00c91de" x="292.909091" y="333.490909" style="stroke: #000000; stroke-width: 0.8"/>
      </g>
     </g>
     <g id="text_5">
      <!-- 0.8 -->
      <g transform="translate(284.957528 348.089347)scale(0.1 -0.1)">
       <defs>
        <path id="DejaVuSans-38" d="M 2034 2216 
Q 1584 2216 1326 1975 
Q 1069 1734 1069 1313 
Q 1069 891 1326 650 
Q 1584 409 2034 409 
Q 2484 409 2743 651 
Q 3003 894 3003 1313 
Q 3003 1734 2745 1975 
Q 2488 2216 2034 2216 
z
M 1403 2484 
Q 997 2584 770 2862 
Q 544 3141 544 3541 
Q 544 4100 942 4425 
Q 1341 4750 2034 4750 
Q 2731 4750 3128 4425 
Q 3525 4100 3525 3541 
Q 3525 3141 3298 2862 
Q 3072 2584 2669 2484 
Q 3125 2378 3379 2068 
Q 3634 1759 3634 1313 
Q 3634 634 3220 271 
Q 2806 -91 2034 -91 
Q 1263 -91 848 271 
Q 434 634 434 1313 
Q 434 1759 690 2068 
Q 947 2378 1403 2484 
z
M 1172 3481 
Q 1172 3119 1398 2916 
Q 1625 2713 2034 2713 
Q 2441 2713 2670 2916 
Q 2900 3119 2900 3481 
Q 2900 3844 2670 4047 
Q 2441 4250 2034 4250 
Q 1625 4250 1398 4047 
Q 1172 3844 1172 3481 
z
" transform="scale(0.015625)"/>
       </defs>
       <use xlink:href="#DejaVuSans-30"/>
       <use xlink:href="#DejaVuSans-2e" x="63.623047"/>
       <use xlink:href="#DejaVuSans-38" x="95.410156"/>
      </g>
     </g>
    </g>
    <g id="xtick_6">
     <g id="line2d_6">
      <g>
       <use xlink:href="#m77b00c91de" x="343.636364" y="333.490909" style="stroke: #000000; stroke-width: 0.8"/>
      </g>
     </g>
     <g id="text_6">
      <!-- 1.0 -->
      <g transform="translate(335.684801 348.089347)scale(0.1 -0.1)">
       <defs>
        <path id="DejaVuSans-31" d="M 794 531 
L 1825 531 
L 1825 4091 
L 703 3866 
L 703 4441 
L 1819 4666 
L 2450 4666 
L 2450 531 
L 3481 531 
L 3481 0 
L 794 0 
L 794 531 
z
" transform="scale(0.015625)"/>
       </defs>
       <use xlink:href="#DejaVuSans-31"/>
       <use xlink:href="#DejaVuSans-2e" x="63.623047"/>
       <use xlink:href="#DejaVuSans-30" x="95.410156"/>
      </g>
     </g>
    </g>
   </g>
   <g id="matplotlib.axis_2">
    <g id="ytick_1">
     <g id="line2d_7">
      <defs>
       <path id="m72c9b7cc36" d="M 0 0 
L -3.5 0 
" style="stroke: #000000; stroke-width: 0.8"/>
      </defs>
      <g>
       <use xlink:href="#m72c9b7cc36" x="90" y="333.490909" style="stroke: #000000; stroke-width: 0.8"/>
      </g>
     </g>
     <g id="text_7">
      <!-- 0.0 -->
      <g transform="translate(67.096875 337.290128)scale(0.1 -0.1)">
       <use xlink:href="#DejaVuSans-30"/>
       <use xlink:href="#DejaVuSans-2e" x="63.623047"/>
       <use xlink:href="#DejaVuSans-30" x="95.410156"/>
      </g>
     </g>
    </g>
    <g id="ytick_2">
     <g id="line2d_8">
      <g>
       <use xlink:href="#m72c9b7cc36" x="90" y="284.072727" style="stroke: #000000; stroke-width: 0.8"/>
      </g>
     </g>
     <g id="text_8">
      <!-- 0.2 -->
      <g transform="translate(67.096875 287.871946)scale(0.1 -0.1)">
       <use xlink:href="#DejaVuSans-30"/>
       <use xlink:href="#DejaVuSans-2e" x="63.623047"/>
       <use xlink:href="#DejaVuSans-32" x="95.410156"/>
      </g>
     </g>
    </g>
    <g id="ytick_3">
     <g id="line2d_9">
      <g>
       <use xlink:href="#m72c9b7cc36" x="90" y="234.654545" style="stroke: #000000; stroke-width: 0.8"/>
      </g>
     </g>
     <g id="text_9">
      <!-- 0.4 -->
      <g transform="translate(67.096875 238.453764)scale(0.1 -0.1)">
       <use xlink:href="#DejaVuSans-30"/>
       <use xlink:href="#DejaVuSans-2e" x="63.623047"/>
       <use xlink:href="#DejaVuSans-34" x="95.410156"/>
      </g>
     </g>
    </g>
    <g id="ytick_4">
     <g id="line2d_10">
      <g>
       <use xlink:href="#m72c9b7cc36" x="90" y="185.236364" style="stroke: #000000; stroke-width: 0.8"/>
      </g>
     </g>
     <g id="text_10">
      <!-- 0.6 -->
      <g transform="translate(67.096875 189.035582)scale(0.1 -0.1)">
       <use xlink:href="#DejaVuSans-30"/>
       <use xlink:href="#DejaVuSans-2e" x="63.623047"/>
       <use xlink:href="#DejaVuSans-36" x="95.410156"/>
      </g>
     </g>
    </g>
    <g id="ytick_5">
     <g id="line2d_11">
      <g>
       <use xlink:href="#m72c9b7cc36" x="90" y="135.818182" style="stroke: #000000; stroke-width: 0.8"/>
      </g>
     </g>
     <g id="text_11">
      <!-- 0.8 -->
      <g transform="translate(67.096875 139.617401)scale(0.1 -0.1)">
       <use xlink:href="#DejaVuSans-30"/>
       <use xlink:href="#DejaVuSans-2e" x="63.623047"/>
       <use xlink:href="#DejaVuSans-38" x="95.410156"/>
      </g>
     </g>
    </g>
    <g id="ytick_6">
     <g id="line2d_12">
      <g>
       <use xlink:href="#m72c9b7cc36" x="90" y="86.4" style="stroke: #000000; stroke-width: 0.8"/>
      </g>
     </g>
     <g id="text_12">
      <!-- 1.0 -->
      <g transform="translate(67.096875 90.199219)scale(0.1 -0.1)">
       <use xlink:href="#DejaVuSans-31"/>
       <use xlink:href="#DejaVuSans-2e" x="63.623047"/>
       <use xlink:href="#DejaVuSans-30" x="95.410156"/>
      </g>
     </g>
    </g>
   </g>
   <g id="patch_3">
    <path d="M 90 333.490909 
L 90 86.4 
" style="fill: none; stroke: #000000; stroke-width: 0.8; stroke-linejoin: miter; stroke-linecap: square"/>
   </g>
   <g id="patch_4">
    <path d="M 343.636364 333.490909 
L 343.636364 86.4 
" style="fill: none; stroke: #000000; stroke-width: 0.8; stroke-linejoin: miter; stroke-linecap: square"/>
   </g>
   <g id="patch_5">
    <path d="M 90 333.490909 
L 343.636364 333.490909 
" style="fill: none; stroke: #000000; stroke-width: 0.8; stroke-linejoin: miter; stroke-linecap: square"/>
   </g>
   <g id="patch_6">
    <path d="M 90 86.4 
L 343.636364 86.4 
" style="fill: none; stroke: #000000; stroke-width: 0.8; stroke-linejoin: miter; stroke-linecap: square"/>
   </g>
  </g>
  <g id="axes_2">
   <g id="patch_7">
    <path d="M 394.363636 333.490909 
L 648 333.490909 
L 648 86.4 
L 394.363636 86.4 
z
" style="fill: #ffffff"/>
   </g>
   <g id="PolyCollection_1">
    <defs>
     <path id="m599edf14ee" d="M 405.892562 -466.647243 
L 405.892562 -454.315898 
L 407.342741 -462.156011 
L 408.792921 -459.004301 
L 410.2431 -462.495666 
L 411.693279 -473.016761 
L 413.143459 -476.580054 
L 414.593638 -479.071946 
L 416.043817 -480.433182 
L 417.493997 -481.010234 
L 418.944176 -481.199498 
L 420.394355 -481.247332 
L 421.844535 -481.257012 
L 423.294714 -481.258455 
L 424.744893 -481.258455 
L 426.195073 -481.258455 
L 427.645252 -481.258455 
L 429.095431 -481.258455 
L 430.54561 -481.258455 
L 431.99579 -481.258455 
L 433.445969 -481.258455 
L 434.896148 -481.258455 
L 436.346328 -481.258455 
L 437.796507 -481.258455 
L 439.246686 -481.258455 
L 440.696866 -481.258455 
L 442.147045 -481.258455 
L 443.597224 -481.258455 
L 445.047404 -481.258455 
L 446.497583 -481.258455 
L 447.947762 -481.258455 
L 449.397942 -481.258455 
L 450.848121 -481.258455 
L 452.2983 -481.258455 
L 453.74848 -481.258455 
L 455.198659 -481.258455 
L 456.648838 -481.258455 
L 458.099018 -481.258455 
L 459.549197 -481.258455 
L 460.999376 -481.258455 
L 462.449556 -481.258455 
L 463.899735 -481.258455 
L 465.349914 -481.258455 
L 466.800094 -481.258455 
L 468.250273 -481.258455 
L 469.700452 -481.258455 
L 471.150632 -481.258455 
L 472.600811 -481.258455 
L 474.05099 -481.258455 
L 475.501169 -481.258455 
L 476.951349 -481.258455 
L 478.401528 -481.258455 
L 479.851707 -481.258455 
L 481.301887 -481.258455 
L 482.752066 -481.258455 
L 484.202245 -481.258455 
L 485.652425 -481.258455 
L 487.102604 -481.258455 
L 488.552783 -481.258455 
L 490.002963 -481.258455 
L 491.453142 -481.258455 
L 492.903321 -481.258455 
L 494.353501 -481.258455 
L 495.80368 -481.258455 
L 497.253859 -481.258455 
L 498.704039 -481.258455 
L 500.154218 -481.258455 
L 501.604397 -481.258455 
L 503.054577 -481.258455 
L 504.504756 -481.258455 
L 505.954935 -481.258455 
L 507.405115 -481.258455 
L 508.855294 -481.258455 
L 510.305473 -481.258455 
L 511.755653 -481.258455 
L 513.205832 -481.258455 
L 514.656011 -481.258455 
L 516.106191 -481.258455 
L 517.55637 -481.258455 
L 519.006549 -481.258455 
L 520.456729 -481.258455 
L 521.906908 -481.258455 
L 523.357087 -481.258455 
L 524.807266 -481.258455 
L 526.257446 -481.258455 
L 527.707625 -481.258455 
L 529.157804 -481.258455 
L 530.607984 -481.258455 
L 532.058163 -481.258455 
L 533.508342 -481.258455 
L 534.958522 -481.258455 
L 536.408701 -481.261426 
L 537.85888 -481.280112 
L 539.30906 -481.371734 
L 540.759239 -481.723234 
L 542.209418 -482.75634 
L 543.659598 -485.055804 
L 545.109777 -488.842477 
L 546.559956 -493.207907 
L 548.010136 -488.161993 
L 549.460315 -487.598578 
L 550.910494 -492.646007 
L 552.360674 -488.268539 
L 553.810853 -484.670332 
L 555.261032 -482.570242 
L 556.711212 -481.656392 
L 558.161391 -481.353568 
L 559.61157 -481.276341 
L 561.06175 -481.260743 
L 562.511929 -481.258455 
L 563.962108 -481.258455 
L 565.412288 -481.258455 
L 566.862467 -481.258455 
L 568.312646 -481.258455 
L 569.762826 -481.258455 
L 571.213005 -481.258455 
L 572.663184 -481.258455 
L 574.113363 -481.256533 
L 575.563543 -481.245919 
L 577.013722 -481.193374 
L 578.463901 -480.99621 
L 579.914081 -480.426876 
L 581.36426 -479.164587 
L 582.814439 -477.012338 
L 584.264619 -474.180294 
L 585.714798 -464.846764 
L 587.164977 -469.001145 
L 588.615157 -461.718543 
L 590.065336 -462.245667 
L 591.515515 -463.125805 
L 592.965695 -471.433479 
L 594.415874 -468.247255 
L 595.866053 -476.522325 
L 597.316233 -478.577202 
L 598.766412 -479.98548 
L 600.216591 -480.764478 
L 601.666771 -481.104905 
L 603.11695 -481.220705 
L 604.567129 -481.251255 
L 606.017309 -481.257351 
L 607.467488 -481.258455 
L 608.917667 -481.258455 
L 610.367847 -481.258455 
L 611.818026 -481.258455 
L 613.268205 -481.258455 
L 614.718385 -481.258455 
L 616.168564 -481.258455 
L 617.618743 -481.258455 
L 619.068923 -481.258455 
L 620.519102 -481.258455 
L 621.969281 -481.258455 
L 623.41946 -481.258455 
L 624.86964 -481.258455 
L 626.319819 -481.258455 
L 627.769998 -481.258455 
L 629.220178 -481.258455 
L 630.670357 -481.258455 
L 632.120536 -481.258455 
L 633.570716 -481.258455 
L 635.020895 -481.258455 
L 636.471074 -481.258455 
L 636.471074 -481.258455 
L 636.471074 -481.258455 
L 635.020895 -481.258455 
L 633.570716 -481.258455 
L 632.120536 -481.258455 
L 630.670357 -481.258455 
L 629.220178 -481.258455 
L 627.769998 -481.258455 
L 626.319819 -481.258455 
L 624.86964 -481.258455 
L 623.41946 -481.258455 
L 621.969281 -481.258455 
L 620.519102 -481.258455 
L 619.068923 -481.258455 
L 617.618743 -481.258455 
L 616.168564 -481.258455 
L 614.718385 -481.258455 
L 613.268205 -481.258455 
L 611.818026 -481.258455 
L 610.367847 -481.258455 
L 608.917667 -481.258455 
L 607.467488 -481.258455 
L 606.017309 -481.257351 
L 604.567129 -481.251255 
L 603.11695 -481.220705 
L 601.666771 -481.104905 
L 600.216591 -480.764478 
L 598.766412 -479.98548 
L 597.316233 -478.577202 
L 595.866053 -476.522325 
L 594.415874 -479.797338 
L 592.965695 -471.433479 
L 591.515515 -475.315277 
L 590.065336 -473.534822 
L 588.615157 -473.878081 
L 587.164977 -469.001145 
L 585.714798 -477.719891 
L 584.264619 -474.180294 
L 582.814439 -477.012338 
L 581.36426 -479.164587 
L 579.914081 -480.426876 
L 578.463901 -480.99621 
L 577.013722 -481.193374 
L 575.563543 -481.245919 
L 574.113363 -481.256533 
L 572.663184 -481.258455 
L 571.213005 -481.258455 
L 569.762826 -481.258455 
L 568.312646 -481.258455 
L 566.862467 -481.258455 
L 565.412288 -481.258455 
L 563.962108 -481.258455 
L 562.511929 -481.258455 
L 561.06175 -481.260743 
L 559.61157 -481.276341 
L 558.161391 -481.353568 
L 556.711212 -481.656392 
L 555.261032 -482.570242 
L 553.810853 -484.670332 
L 552.360674 -488.268539 
L 550.910494 -492.646007 
L 549.460315 -504.182793 
L 548.010136 -504.097878 
L 546.559956 -493.207907 
L 545.109777 -488.842477 
L 543.659598 -485.055804 
L 542.209418 -482.75634 
L 540.759239 -481.723234 
L 539.30906 -481.371734 
L 537.85888 -481.280112 
L 536.408701 -481.261426 
L 534.958522 -481.258455 
L 533.508342 -481.258455 
L 532.058163 -481.258455 
L 530.607984 -481.258455 
L 529.157804 -481.258455 
L 527.707625 -481.258455 
L 526.257446 -481.258455 
L 524.807266 -481.258455 
L 523.357087 -481.258455 
L 521.906908 -481.258455 
L 520.456729 -481.258455 
L 519.006549 -481.258455 
L 517.55637 -481.258455 
L 516.106191 -481.258455 
L 514.656011 -481.258455 
L 513.205832 -481.258455 
L 511.755653 -481.258455 
L 510.305473 -481.258455 
L 508.855294 -481.258455 
L 507.405115 -481.258455 
L 505.954935 -481.258455 
L 504.504756 -481.258455 
L 503.054577 -481.258455 
L 501.604397 -481.258455 
L 500.154218 -481.258455 
L 498.704039 -481.258455 
L 497.253859 -481.258455 
L 495.80368 -481.258455 
L 494.353501 -481.258455 
L 492.903321 -481.258455 
L 491.453142 -481.258455 
L 490.002963 -481.258455 
L 488.552783 -481.258455 
L 487.102604 -481.258455 
L 485.652425 -481.258455 
L 484.202245 -481.258455 
L 482.752066 -481.258455 
L 481.301887 -481.258455 
L 479.851707 -481.258455 
L 478.401528 -481.258455 
L 476.951349 -481.258455 
L 475.501169 -481.258455 
L 474.05099 -481.258455 
L 472.600811 -481.258455 
L 471.150632 -481.258455 
L 469.700452 -481.258455 
L 468.250273 -481.258455 
L 466.800094 -481.258455 
L 465.349914 -481.258455 
L 463.899735 -481.258455 
L 462.449556 -481.258455 
L 460.999376 -481.258455 
L 459.549197 -481.258455 
L 458.099018 -481.258455 
L 456.648838 -481.258455 
L 455.198659 -481.258455 
L 453.74848 -481.258455 
L 452.2983 -481.258455 
L 450.848121 -481.258455 
L 449.397942 -481.258455 
L 447.947762 -481.258455 
L 446.497583 -481.258455 
L 445.047404 -481.258455 
L 443.597224 -481.258455 
L 442.147045 -481.258455 
L 440.696866 -481.258455 
L 439.246686 -481.258455 
L 437.796507 -481.258455 
L 436.346328 -481.258455 
L 434.896148 -481.258455 
L 433.445969 -481.258455 
L 431.99579 -481.258455 
L 430.54561 -481.258455 
L 429.095431 -481.258455 
L 427.645252 -481.258455 
L 426.195073 -481.258455 
L 424.744893 -481.258455 
L 423.294714 -481.258455 
L 421.844535 -481.257012 
L 420.394355 -481.247332 
L 418.944176 -481.199498 
L 417.493997 -481.010234 
L 416.043817 -480.433182 
L 414.593638 -479.071946 
L 413.143459 -476.580054 
L 411.693279 -473.016761 
L 410.2431 -475.414585 
L 408.792921 -471.274345 
L 407.342741 -462.156011 
L 405.892562 -466.647243 
z
" style="stroke: #9467bd; stroke-opacity: 0.2"/>
    </defs>
    <g clip-path="url(#pb4fe753488)">
     <use xlink:href="#m599edf14ee" x="0" y="720" style="fill: #9467bd; fill-opacity: 0.2; stroke: #9467bd; stroke-opacity: 0.2"/>
    </g>
   </g>
   <g id="PolyCollection_2">
    <defs>
     <path id="m253a8047e4" d="M 405.892562 -481.258455 
L 405.892562 -481.258455 
L 407.342741 -481.258455 
L 408.792921 -481.258455 
L 410.2431 -481.258455 
L 411.693279 -481.258455 
L 413.143459 -481.258455 
L 414.593638 -481.258455 
L 416.043817 -481.258455 
L 417.493997 -481.258455 
L 418.944176 -481.258455 
L 420.394355 -481.258455 
L 421.844535 -481.258455 
L 423.294714 -481.258455 
L 424.744893 -481.258455 
L 426.195073 -481.258455 
L 427.645252 -481.258455 
L 429.095431 -481.258455 
L 430.54561 -481.258455 
L 431.99579 -481.258455 
L 433.445969 -481.258455 
L 434.896148 -481.258455 
L 436.346328 -481.258455 
L 437.796507 -481.258455 
L 439.246686 -481.258455 
L 440.696866 -481.258455 
L 442.147045 -481.258455 
L 443.597224 -481.258455 
L 445.047404 -481.258455 
L 446.497583 -481.258455 
L 447.947762 -481.258455 
L 449.397942 -481.258455 
L 450.848121 -481.258455 
L 452.2983 -481.258455 
L 453.74848 -481.258455 
L 455.198659 -481.258455 
L 456.648838 -481.258455 
L 458.099018 -481.259514 
L 459.549197 -481.265355 
L 460.999376 -481.29427 
L 462.449556 -481.402093 
L 463.899735 -481.710991 
L 465.349914 -482.384305 
L 466.800094 -483.487676 
L 468.250273 -484.812086 
L 469.700452 -480.452496 
L 471.150632 -486.407099 
L 472.600811 -481.706825 
L 474.05099 -486.491005 
L 475.501169 -487.107968 
L 476.951349 -484.119613 
L 478.401528 -484.280646 
L 479.851707 -484.208166 
L 481.301887 -487.825725 
L 482.752066 -481.460125 
L 484.202245 -485.66874 
L 485.652425 -485.757631 
L 487.102604 -486.58243 
L 488.552783 -483.444718 
L 490.002963 -481.610599 
L 491.453142 -485.879346 
L 492.903321 -484.148178 
L 494.353501 -482.689058 
L 495.80368 -481.818375 
L 497.253859 -481.436742 
L 498.704039 -481.328317 
L 500.154218 -481.367122 
L 501.604397 -481.554047 
L 503.054577 -481.972119 
L 504.504756 -482.71236 
L 505.954935 -482.117725 
L 507.405115 -481.801897 
L 508.855294 -483.019853 
L 510.305473 -481.908666 
L 511.755653 -486.016242 
L 513.205832 -481.937987 
L 514.656011 -483.872343 
L 516.106191 -482.869417 
L 517.55637 -480.411826 
L 519.006549 -482.603957 
L 520.456729 -483.222707 
L 521.906908 -483.127052 
L 523.357087 -483.905063 
L 524.807266 -483.235345 
L 526.257446 -484.305455 
L 527.707625 -483.542791 
L 529.157804 -482.432257 
L 530.607984 -481.73891 
L 532.058163 -481.415008 
L 533.508342 -481.299047 
L 534.958522 -481.266814 
L 536.408701 -481.259752 
L 537.85888 -481.258532 
L 539.30906 -481.258387 
L 540.759239 -481.257462 
L 542.209418 -481.252482 
L 543.659598 -481.229496 
L 545.109777 -481.147811 
L 546.559956 -480.918139 
L 548.010136 -480.406294 
L 549.460315 -479.498796 
L 550.910494 -477.315347 
L 552.360674 -474.37256 
L 553.810853 -474.247544 
L 555.261032 -472.403949 
L 556.711212 -472.847246 
L 558.161391 -473.282196 
L 559.61157 -471.496142 
L 561.06175 -466.515964 
L 562.511929 -464.489492 
L 563.962108 -461.670817 
L 565.412288 -461.404217 
L 566.862467 -461.000802 
L 568.312646 -459.7761 
L 569.762826 -456.749283 
L 571.213005 -453.626795 
L 572.663184 -450.678964 
L 574.113363 -450.019271 
L 575.563543 -449.864153 
L 577.013722 -450.288161 
L 578.463901 -452.095903 
L 579.914081 -450.104561 
L 581.36426 -450.564203 
L 582.814439 -453.382509 
L 584.264619 -458.310239 
L 585.714798 -469.323307 
L 587.164977 -469.116527 
L 588.615157 -486.256486 
L 590.065336 -497.870386 
L 591.515515 -513.216657 
L 592.965695 -508.291361 
L 594.415874 -553.183581 
L 595.866053 -543.516243 
L 597.316233 -556.972771 
L 598.766412 -565.590811 
L 600.216591 -564.021622 
L 601.666771 -556.001061 
L 603.11695 -540.966801 
L 604.567129 -517.682959 
L 606.017309 -520.924106 
L 607.467488 -503.105691 
L 608.917667 -491.298055 
L 610.367847 -485.336327 
L 611.818026 -483.642217 
L 613.268205 -484.869294 
L 614.718385 -488.300104 
L 616.168564 -493.106955 
L 617.618743 -484.931089 
L 619.068923 -487.696817 
L 620.519102 -488.291651 
L 621.969281 -488.948218 
L 623.41946 -484.704363 
L 624.86964 -484.616749 
L 626.319819 -481.550375 
L 627.769998 -479.773251 
L 629.220178 -477.242276 
L 630.670357 -476.512082 
L 632.120536 -473.348355 
L 633.570716 -480.75512 
L 635.020895 -469.104899 
L 636.471074 -479.663585 
L 636.471074 -479.663585 
L 636.471074 -479.663585 
L 635.020895 -490.883864 
L 633.570716 -480.75512 
L 632.120536 -490.873088 
L 630.670357 -491.931693 
L 629.220178 -496.870429 
L 627.769998 -500.684986 
L 626.319819 -504.900909 
L 624.86964 -507.086277 
L 623.41946 -511.800321 
L 621.969281 -511.8054 
L 620.519102 -514.854553 
L 619.068923 -514.053025 
L 617.618743 -510.713088 
L 616.168564 -493.106955 
L 614.718385 -488.300104 
L 613.268205 -484.869294 
L 611.818026 -483.642217 
L 610.367847 -485.336327 
L 608.917667 -491.298055 
L 607.467488 -503.105691 
L 606.017309 -520.924106 
L 604.567129 -567.026599 
L 603.11695 -585.783217 
L 601.666771 -604.847401 
L 600.216591 -618.369625 
L 598.766412 -622.368595 
L 597.316233 -618.359892 
L 595.866053 -602.523623 
L 594.415874 -553.183581 
L 592.965695 -556.108861 
L 591.515515 -513.216657 
L 590.065336 -497.870386 
L 588.615157 -486.256486 
L 587.164977 -485.269237 
L 585.714798 -469.323307 
L 584.264619 -466.480515 
L 582.814439 -461.129261 
L 581.36426 -458.65545 
L 579.914081 -457.959068 
L 578.463901 -456.366933 
L 577.013722 -457.954237 
L 575.563543 -457.368394 
L 574.113363 -456.962565 
L 572.663184 -458.451455 
L 571.213005 -460.248937 
L 569.762826 -462.880763 
L 568.312646 -464.371004 
L 566.862467 -465.310905 
L 565.412288 -465.718551 
L 563.962108 -467.180447 
L 562.511929 -468.48914 
L 561.06175 -472.346233 
L 559.61157 -472.891908 
L 558.161391 -474.57059 
L 556.711212 -476.403979 
L 555.261032 -477.535312 
L 553.810853 -477.021126 
L 552.360674 -479.236739 
L 550.910494 -479.123768 
L 549.460315 -479.498796 
L 548.010136 -480.406294 
L 546.559956 -480.918139 
L 545.109777 -481.147811 
L 543.659598 -481.229496 
L 542.209418 -481.252482 
L 540.759239 -481.257462 
L 539.30906 -481.258387 
L 537.85888 -481.258532 
L 536.408701 -481.259752 
L 534.958522 -481.266814 
L 533.508342 -481.299047 
L 532.058163 -481.415008 
L 530.607984 -481.73891 
L 529.157804 -482.432257 
L 527.707625 -483.542791 
L 526.257446 -485.29916 
L 524.807266 -488.054756 
L 523.357087 -487.285343 
L 521.906908 -486.264424 
L 520.456729 -483.759118 
L 519.006549 -482.603957 
L 517.55637 -484.358584 
L 516.106191 -482.869417 
L 514.656011 -483.872343 
L 513.205832 -488.182302 
L 511.755653 -486.016242 
L 510.305473 -490.831682 
L 508.855294 -488.920996 
L 507.405115 -488.158403 
L 505.954935 -485.432181 
L 504.504756 -482.71236 
L 503.054577 -481.972119 
L 501.604397 -481.554047 
L 500.154218 -481.367122 
L 498.704039 -481.328317 
L 497.253859 -481.436742 
L 495.80368 -481.818375 
L 494.353501 -482.689058 
L 492.903321 -484.148178 
L 491.453142 -485.879346 
L 490.002963 -492.675715 
L 488.552783 -491.209895 
L 487.102604 -486.58243 
L 485.652425 -485.757631 
L 484.202245 -485.66874 
L 482.752066 -491.554931 
L 481.301887 -487.825725 
L 479.851707 -493.501425 
L 478.401528 -493.660761 
L 476.951349 -492.219595 
L 475.501169 -487.107968 
L 474.05099 -486.491005 
L 472.600811 -491.13749 
L 471.150632 -486.407099 
L 469.700452 -491.356114 
L 468.250273 -484.812086 
L 466.800094 -483.487676 
L 465.349914 -482.384305 
L 463.899735 -481.710991 
L 462.449556 -481.402093 
L 460.999376 -481.29427 
L 459.549197 -481.265355 
L 458.099018 -481.259514 
L 456.648838 -481.258455 
L 455.198659 -481.258455 
L 453.74848 -481.258455 
L 452.2983 -481.258455 
L 450.848121 -481.258455 
L 449.397942 -481.258455 
L 447.947762 -481.258455 
L 446.497583 -481.258455 
L 445.047404 -481.258455 
L 443.597224 -481.258455 
L 442.147045 -481.258455 
L 440.696866 -481.258455 
L 439.246686 -481.258455 
L 437.796507 -481.258455 
L 436.346328 -481.258455 
L 434.896148 -481.258455 
L 433.445969 -481.258455 
L 431.99579 -481.258455 
L 430.54561 -481.258455 
L 429.095431 -481.258455 
L 427.645252 -481.258455 
L 426.195073 -481.258455 
L 424.744893 -481.258455 
L 423.294714 -481.258455 
L 421.844535 -481.258455 
L 420.394355 -481.258455 
L 418.944176 -481.258455 
L 417.493997 -481.258455 
L 416.043817 -481.258455 
L 414.593638 -481.258455 
L 413.143459 -481.258455 
L 411.693279 -481.258455 
L 410.2431 -481.258455 
L 408.792921 -481.258455 
L 407.342741 -481.258455 
L 405.892562 -481.258455 
z
" style="stroke: #1f77b4; stroke-opacity: 0.2"/>
    </defs>
    <g clip-path="url(#pb4fe753488)">
     <use xlink:href="#m253a8047e4" x="0" y="720" style="fill: #1f77b4; fill-opacity: 0.2; stroke: #1f77b4; stroke-opacity: 0.2"/>
    </g>
   </g>
   <g id="PolyCollection_3">
    <defs>
     <path id="mfe664cf2fd" d="M 405.892562 -471.433747 
L 405.892562 -471.433747 
L 407.342741 -466.844824 
L 408.792921 -474.104854 
L 410.2431 -475.435908 
L 411.693279 -474.834328 
L 413.143459 -470.973326 
L 414.593638 -463.720123 
L 416.043817 -449.188296 
L 417.493997 -440.297799 
L 418.944176 -434.57317 
L 420.394355 -430.74209 
L 421.844535 -428.579177 
L 423.294714 -427.50332 
L 424.744893 -426.589292 
L 426.195073 -424.848365 
L 427.645252 -422.55262 
L 429.095431 -420.559986 
L 430.54561 -417.298921 
L 431.99579 -414.368948 
L 433.445969 -411.491039 
L 434.896148 -408.681907 
L 436.346328 -406.454523 
L 437.796507 -404.470664 
L 439.246686 -401.735563 
L 440.696866 -399.711879 
L 442.147045 -398.168305 
L 443.597224 -397.740496 
L 445.047404 -398.762583 
L 446.497583 -400.519905 
L 447.947762 -404.175149 
L 449.397942 -408.835021 
L 450.848121 -411.729683 
L 452.2983 -415.630638 
L 453.74848 -418.750489 
L 455.198659 -423.107087 
L 456.648838 -427.770495 
L 458.099018 -431.112136 
L 459.549197 -433.461068 
L 460.999376 -434.728538 
L 462.449556 -435.176112 
L 463.899735 -435.592838 
L 465.349914 -436.841394 
L 466.800094 -440.021398 
L 468.250273 -444.876782 
L 469.700452 -453.997687 
L 471.150632 -455.67073 
L 472.600811 -462.346362 
L 474.05099 -462.592116 
L 475.501169 -465.56344 
L 476.951349 -473.314605 
L 478.401528 -476.763884 
L 479.851707 -479.17415 
L 481.301887 -480.479662 
L 482.752066 -481.026127 
L 484.202245 -481.203839 
L 485.652425 -481.24823 
L 487.102604 -481.257173 
L 488.552783 -481.258455 
L 490.002963 -481.258455 
L 491.453142 -481.258455 
L 492.903321 -481.258455 
L 494.353501 -481.258455 
L 495.80368 -481.258455 
L 497.253859 -481.258455 
L 498.704039 -481.258455 
L 500.154218 -481.258455 
L 501.604397 -481.258455 
L 503.054577 -481.256448 
L 504.504756 -481.243291 
L 505.954935 -481.178455 
L 507.405115 -480.92462 
L 508.855294 -480.1624 
L 510.305473 -478.405 
L 511.755653 -475.32882 
L 513.205832 -471.324649 
L 514.656011 -460.505223 
L 516.106191 -458.083294 
L 517.55637 -466.277933 
L 519.006549 -462.640684 
L 520.456729 -472.545002 
L 521.906908 -476.106022 
L 523.357087 -478.750948 
L 524.807266 -480.272326 
L 526.257446 -480.949318 
L 527.707625 -481.182146 
L 529.157804 -481.243837 
L 530.607984 -481.256214 
L 532.058163 -481.258455 
L 533.508342 -481.258455 
L 534.958522 -481.258455 
L 536.408701 -481.258455 
L 537.85888 -481.258455 
L 539.30906 -481.258455 
L 540.759239 -481.258455 
L 542.209418 -481.258455 
L 543.659598 -481.258455 
L 545.109777 -481.258455 
L 546.559956 -481.258455 
L 548.010136 -481.258455 
L 549.460315 -481.258455 
L 550.910494 -481.258455 
L 552.360674 -481.258455 
L 553.810853 -481.258455 
L 555.261032 -481.258455 
L 556.711212 -481.258455 
L 558.161391 -481.258455 
L 559.61157 -481.258455 
L 561.06175 -481.258455 
L 562.511929 -481.258455 
L 563.962108 -481.258455 
L 565.412288 -481.258455 
L 566.862467 -481.258455 
L 568.312646 -481.258455 
L 569.762826 -481.258455 
L 571.213005 -481.258455 
L 572.663184 -481.258455 
L 574.113363 -481.258455 
L 575.563543 -481.258455 
L 577.013722 -481.258455 
L 578.463901 -481.258455 
L 579.914081 -481.258455 
L 581.36426 -481.258455 
L 582.814439 -481.258455 
L 584.264619 -481.258455 
L 585.714798 -481.258455 
L 587.164977 -481.258455 
L 588.615157 -481.258455 
L 590.065336 -481.258455 
L 591.515515 -481.258455 
L 592.965695 -481.258455 
L 594.415874 -481.255189 
L 595.866053 -481.234181 
L 597.316233 -481.127861 
L 598.766412 -480.709579 
L 600.216591 -479.432498 
L 601.666771 -476.407714 
L 603.11695 -470.882321 
L 604.567129 -463.208861 
L 606.017309 -451.227601 
L 607.467488 -446.568558 
L 608.917667 -445.937847 
L 610.367847 -449.582562 
L 611.818026 -459.332135 
L 613.268205 -464.519099 
L 614.718385 -462.499976 
L 616.168564 -472.489913 
L 617.618743 -475.873079 
L 619.068923 -478.522406 
L 620.519102 -480.144713 
L 621.969281 -480.897746 
L 623.41946 -481.147667 
L 624.86964 -481.130238 
L 626.319819 -480.806558 
L 627.769998 -479.819804 
L 629.220178 -477.573426 
L 630.670357 -473.59732 
L 632.120536 -468.050876 
L 633.570716 -456.186447 
L 635.020895 -456.599181 
L 636.471074 -448.676925 
L 636.471074 -458.353416 
L 636.471074 -458.353416 
L 635.020895 -456.599181 
L 633.570716 -467.624079 
L 632.120536 -468.050876 
L 630.670357 -473.59732 
L 629.220178 -477.573426 
L 627.769998 -479.819804 
L 626.319819 -480.806558 
L 624.86964 -481.130238 
L 623.41946 -481.147667 
L 621.969281 -480.897746 
L 620.519102 -480.144713 
L 619.068923 -478.522406 
L 617.618743 -475.873079 
L 616.168564 -472.489913 
L 614.718385 -475.019952 
L 613.268205 -464.519099 
L 611.818026 -459.332135 
L 610.367847 -458.002992 
L 608.917667 -454.156511 
L 607.467488 -454.265626 
L 606.017309 -459.615773 
L 604.567129 -463.208861 
L 603.11695 -470.882321 
L 601.666771 -476.407714 
L 600.216591 -479.432498 
L 598.766412 -480.709579 
L 597.316233 -481.127861 
L 595.866053 -481.234181 
L 594.415874 -481.255189 
L 592.965695 -481.258455 
L 591.515515 -481.258455 
L 590.065336 -481.258455 
L 588.615157 -481.258455 
L 587.164977 -481.258455 
L 585.714798 -481.258455 
L 584.264619 -481.258455 
L 582.814439 -481.258455 
L 581.36426 -481.258455 
L 579.914081 -481.258455 
L 578.463901 -481.258455 
L 577.013722 -481.258455 
L 575.563543 -481.258455 
L 574.113363 -481.258455 
L 572.663184 -481.258455 
L 571.213005 -481.258455 
L 569.762826 -481.258455 
L 568.312646 -481.258455 
L 566.862467 -481.258455 
L 565.412288 -481.258455 
L 563.962108 -481.258455 
L 562.511929 -481.258455 
L 561.06175 -481.258455 
L 559.61157 -481.258455 
L 558.161391 -481.258455 
L 556.711212 -481.258455 
L 555.261032 -481.258455 
L 553.810853 -481.258455 
L 552.360674 -481.258455 
L 550.910494 -481.258455 
L 549.460315 -481.258455 
L 548.010136 -481.258455 
L 546.559956 -481.258455 
L 545.109777 -481.258455 
L 543.659598 -481.258455 
L 542.209418 -481.258455 
L 540.759239 -481.258455 
L 539.30906 -481.258455 
L 537.85888 -481.258455 
L 536.408701 -481.258455 
L 534.958522 -481.258455 
L 533.508342 -481.258455 
L 532.058163 -481.258455 
L 530.607984 -481.256214 
L 529.157804 -481.243837 
L 527.707625 -481.182146 
L 526.257446 -480.949318 
L 524.807266 -480.272326 
L 523.357087 -478.750948 
L 521.906908 -476.106022 
L 520.456729 -472.545002 
L 519.006549 -475.129212 
L 517.55637 -466.277933 
L 516.106191 -473.405598 
L 514.656011 -474.796787 
L 513.205832 -471.324649 
L 511.755653 -475.32882 
L 510.305473 -478.405 
L 508.855294 -480.1624 
L 507.405115 -480.92462 
L 505.954935 -481.178455 
L 504.504756 -481.243291 
L 503.054577 -481.256448 
L 501.604397 -481.258455 
L 500.154218 -481.258455 
L 498.704039 -481.258455 
L 497.253859 -481.258455 
L 495.80368 -481.258455 
L 494.353501 -481.258455 
L 492.903321 -481.258455 
L 491.453142 -481.258455 
L 490.002963 -481.258455 
L 488.552783 -481.258455 
L 487.102604 -481.257173 
L 485.652425 -481.24823 
L 484.202245 -481.203839 
L 482.752066 -481.026127 
L 481.301887 -480.479662 
L 479.851707 -479.17415 
L 478.401528 -476.763884 
L 476.951349 -473.314605 
L 475.501169 -473.289571 
L 474.05099 -468.917815 
L 472.600811 -462.346362 
L 471.150632 -461.5375 
L 469.700452 -453.997687 
L 468.250273 -452.667537 
L 466.800094 -447.836638 
L 465.349914 -444.160383 
L 463.899735 -442.040483 
L 462.449556 -441.503499 
L 460.999376 -441.359338 
L 459.549197 -440.48546 
L 458.099018 -438.234169 
L 456.648838 -434.790701 
L 455.198659 -431.481963 
L 453.74848 -427.730216 
L 452.2983 -423.276353 
L 450.848121 -420.214866 
L 449.397942 -416.280305 
L 447.947762 -413.77069 
L 446.497583 -410.311237 
L 445.047404 -406.406678 
L 443.597224 -404.634114 
L 442.147045 -404.721287 
L 440.696866 -406.443231 
L 439.246686 -409.380261 
L 437.796507 -412.172759 
L 436.346328 -415.510466 
L 434.896148 -418.325137 
L 433.445969 -420.680024 
L 431.99579 -423.331126 
L 430.54561 -426.066637 
L 429.095431 -428.135118 
L 427.645252 -430.764239 
L 426.195073 -432.249751 
L 424.744893 -433.491193 
L 423.294714 -434.983416 
L 421.844535 -436.449556 
L 420.394355 -438.555466 
L 418.944176 -442.920617 
L 417.493997 -450.753699 
L 416.043817 -459.760551 
L 414.593638 -463.720123 
L 413.143459 -470.973326 
L 411.693279 -474.834328 
L 410.2431 -475.435908 
L 408.792921 -474.104854 
L 407.342741 -478.018699 
L 405.892562 -471.433747 
z
" style="stroke: #d62728; stroke-opacity: 0.2"/>
    </defs>
    <g clip-path="url(#pb4fe753488)">
     <use xlink:href="#mfe664cf2fd" x="0" y="720" style="fill: #d62728; fill-opacity: 0.2; stroke: #d62728; stroke-opacity: 0.2"/>
    </g>
   </g>
   <g id="PolyCollection_4">
    <defs>
     <path id="m377e9b8562" d="M 405.892562 -483.025117 
L 405.892562 -483.025117 
L 407.342741 -484.977031 
L 408.792921 -488.997002 
L 410.2431 -494.494076 
L 411.693279 -490.303735 
L 413.143459 -492.228804 
L 414.593638 -489.76823 
L 416.043817 -494.908122 
L 417.493997 -489.330945 
L 418.944176 -485.090108 
L 420.394355 -482.711139 
L 421.844535 -481.69632 
L 423.294714 -481.362949 
L 424.744893 -481.277851 
L 426.195073 -481.26104 
L 427.645252 -481.258455 
L 429.095431 -481.258455 
L 430.54561 -481.258455 
L 431.99579 -481.258455 
L 433.445969 -481.258455 
L 434.896148 -481.258455 
L 436.346328 -481.258455 
L 437.796507 -481.258455 
L 439.246686 -481.258455 
L 440.696866 -481.258455 
L 442.147045 -481.258455 
L 443.597224 -481.258455 
L 445.047404 -481.258455 
L 446.497583 -481.258455 
L 447.947762 -481.258455 
L 449.397942 -481.258455 
L 450.848121 -481.258455 
L 452.2983 -481.258455 
L 453.74848 -481.258455 
L 455.198659 -481.258455 
L 456.648838 -481.258455 
L 458.099018 -481.258455 
L 459.549197 -481.258455 
L 460.999376 -481.258455 
L 462.449556 -481.258455 
L 463.899735 -481.258455 
L 465.349914 -481.258455 
L 466.800094 -481.258455 
L 468.250273 -481.258455 
L 469.700452 -481.257167 
L 471.150632 -481.250057 
L 472.600811 -481.214532 
L 474.05099 -481.080294 
L 475.501169 -480.688077 
L 476.951349 -479.800037 
L 478.401528 -478.230079 
L 479.851707 -476.035389 
L 481.301887 -470.680337 
L 482.752066 -471.406836 
L 484.202245 -467.085823 
L 485.652425 -467.21301 
L 487.102604 -468.398401 
L 488.552783 -471.624716 
L 490.002963 -471.671961 
L 491.453142 -468.688298 
L 492.903321 -466.825782 
L 494.353501 -466.135418 
L 495.80368 -463.474861 
L 497.253859 -462.824136 
L 498.704039 -461.806345 
L 500.154218 -462.122507 
L 501.604397 -463.828709 
L 503.054577 -465.82649 
L 504.504756 -468.363415 
L 505.954935 -477.107569 
L 507.405115 -478.451277 
L 508.855294 -478.82428 
L 510.305473 -478.646171 
L 511.755653 -473.260889 
L 513.205832 -478.92697 
L 514.656011 -479.666233 
L 516.106191 -480.405859 
L 517.55637 -480.890313 
L 519.006549 -481.068343 
L 520.456729 -480.90892 
L 521.906908 -480.162766 
L 523.357087 -478.274015 
L 524.807266 -474.607373 
L 526.257446 -468.997379 
L 527.707625 -454.280711 
L 529.157804 -448.525835 
L 530.607984 -444.080335 
L 532.058163 -441.783119 
L 533.508342 -441.465915 
L 534.958522 -440.109523 
L 536.408701 -441.107721 
L 537.85888 -441.981985 
L 539.30906 -442.486196 
L 540.759239 -442.203893 
L 542.209418 -442.369899 
L 543.659598 -443.973992 
L 545.109777 -448.915739 
L 546.559956 -455.336511 
L 548.010136 -465.818007 
L 549.460315 -472.60234 
L 550.910494 -477.285263 
L 552.360674 -479.784491 
L 553.810853 -480.820795 
L 555.261032 -481.155265 
L 556.711212 -481.239466 
L 558.161391 -481.255972 
L 559.61157 -481.258455 
L 561.06175 -481.258455 
L 562.511929 -481.258455 
L 563.962108 -481.258455 
L 565.412288 -481.258455 
L 566.862467 -481.258455 
L 568.312646 -481.258455 
L 569.762826 -481.258455 
L 571.213005 -481.258455 
L 572.663184 -481.258455 
L 574.113363 -481.258455 
L 575.563543 -481.258455 
L 577.013722 -481.258455 
L 578.463901 -481.258455 
L 579.914081 -481.258455 
L 581.36426 -481.258455 
L 582.814439 -481.258455 
L 584.264619 -481.258455 
L 585.714798 -481.258455 
L 587.164977 -481.258455 
L 588.615157 -481.258455 
L 590.065336 -481.258455 
L 591.515515 -481.258455 
L 592.965695 -481.258455 
L 594.415874 -481.258455 
L 595.866053 -481.258455 
L 597.316233 -481.258455 
L 598.766412 -481.258455 
L 600.216591 -481.256723 
L 601.666771 -481.245813 
L 603.11695 -481.192316 
L 604.567129 -480.986528 
L 606.017309 -480.380224 
L 607.467488 -479.023041 
L 608.917667 -476.759782 
L 610.367847 -474.068276 
L 611.818026 -468.265487 
L 613.268205 -468.046922 
L 614.718385 -473.262316 
L 616.168564 -471.52751 
L 617.618743 -477.928864 
L 619.068923 -479.57494 
L 620.519102 -480.535503 
L 621.969281 -480.998547 
L 623.41946 -481.18169 
L 624.86964 -481.240355 
L 626.319819 -481.255156 
L 627.769998 -481.257949 
L 629.220178 -481.258455 
L 630.670357 -481.258455 
L 632.120536 -481.258455 
L 633.570716 -481.258455 
L 635.020895 -481.258455 
L 636.471074 -481.258455 
L 636.471074 -481.258455 
L 636.471074 -481.258455 
L 635.020895 -481.258455 
L 633.570716 -481.258455 
L 632.120536 -481.258455 
L 630.670357 -481.258455 
L 629.220178 -481.258455 
L 627.769998 -481.257949 
L 626.319819 -481.255156 
L 624.86964 -481.240355 
L 623.41946 -481.18169 
L 621.969281 -480.998547 
L 620.519102 -480.535503 
L 619.068923 -479.57494 
L 617.618743 -477.928864 
L 616.168564 -479.763648 
L 614.718385 -473.262316 
L 613.268205 -475.518693 
L 611.818026 -475.877087 
L 610.367847 -474.068276 
L 608.917667 -476.759782 
L 607.467488 -479.023041 
L 606.017309 -480.380224 
L 604.567129 -480.986528 
L 603.11695 -481.192316 
L 601.666771 -481.245813 
L 600.216591 -481.256723 
L 598.766412 -481.258455 
L 597.316233 -481.258455 
L 595.866053 -481.258455 
L 594.415874 -481.258455 
L 592.965695 -481.258455 
L 591.515515 -481.258455 
L 590.065336 -481.258455 
L 588.615157 -481.258455 
L 587.164977 -481.258455 
L 585.714798 -481.258455 
L 584.264619 -481.258455 
L 582.814439 -481.258455 
L 581.36426 -481.258455 
L 579.914081 -481.258455 
L 578.463901 -481.258455 
L 577.013722 -481.258455 
L 575.563543 -481.258455 
L 574.113363 -481.258455 
L 572.663184 -481.258455 
L 571.213005 -481.258455 
L 569.762826 -481.258455 
L 568.312646 -481.258455 
L 566.862467 -481.258455 
L 565.412288 -481.258455 
L 563.962108 -481.258455 
L 562.511929 -481.258455 
L 561.06175 -481.258455 
L 559.61157 -481.258455 
L 558.161391 -481.255972 
L 556.711212 -481.239466 
L 555.261032 -481.155265 
L 553.810853 -480.820795 
L 552.360674 -479.784491 
L 550.910494 -477.285263 
L 549.460315 -472.60234 
L 548.010136 -465.818007 
L 546.559956 -461.257528 
L 545.109777 -455.212352 
L 543.659598 -452.847361 
L 542.209418 -451.850359 
L 540.759239 -451.697319 
L 539.30906 -451.199666 
L 537.85888 -450.877073 
L 536.408701 -450.751291 
L 534.958522 -451.310967 
L 533.508342 -450.750476 
L 532.058163 -453.325666 
L 530.607984 -457.159294 
L 529.157804 -462.765163 
L 527.707625 -470.113543 
L 526.257446 -468.997379 
L 524.807266 -474.607373 
L 523.357087 -478.274015 
L 521.906908 -480.162766 
L 520.456729 -480.90892 
L 519.006549 -481.068343 
L 517.55637 -480.890313 
L 516.106191 -480.405859 
L 514.656011 -479.666233 
L 513.205832 -478.92697 
L 511.755653 -483.844015 
L 510.305473 -478.646171 
L 508.855294 -478.82428 
L 507.405115 -478.451277 
L 505.954935 -477.107569 
L 504.504756 -481.315092 
L 503.054577 -478.319844 
L 501.604397 -474.941374 
L 500.154218 -472.484715 
L 498.704039 -470.552027 
L 497.253859 -469.333422 
L 495.80368 -470.079774 
L 494.353501 -469.754397 
L 492.903321 -471.875386 
L 491.453142 -472.820626 
L 490.002963 -471.671961 
L 488.552783 -471.624716 
L 487.102604 -473.129425 
L 485.652425 -472.702842 
L 484.202245 -473.089542 
L 482.752066 -471.406836 
L 481.301887 -476.475987 
L 479.851707 -476.035389 
L 478.401528 -478.230079 
L 476.951349 -479.800037 
L 475.501169 -480.688077 
L 474.05099 -481.080294 
L 472.600811 -481.214532 
L 471.150632 -481.250057 
L 469.700452 -481.257167 
L 468.250273 -481.258455 
L 466.800094 -481.258455 
L 465.349914 -481.258455 
L 463.899735 -481.258455 
L 462.449556 -481.258455 
L 460.999376 -481.258455 
L 459.549197 -481.258455 
L 458.099018 -481.258455 
L 456.648838 -481.258455 
L 455.198659 -481.258455 
L 453.74848 -481.258455 
L 452.2983 -481.258455 
L 450.848121 -481.258455 
L 449.397942 -481.258455 
L 447.947762 -481.258455 
L 446.497583 -481.258455 
L 445.047404 -481.258455 
L 443.597224 -481.258455 
L 442.147045 -481.258455 
L 440.696866 -481.258455 
L 439.246686 -481.258455 
L 437.796507 -481.258455 
L 436.346328 -481.258455 
L 434.896148 -481.258455 
L 433.445969 -481.258455 
L 431.99579 -481.258455 
L 430.54561 -481.258455 
L 429.095431 -481.258455 
L 427.645252 -481.258455 
L 426.195073 -481.26104 
L 424.744893 -481.277851 
L 423.294714 -481.362949 
L 421.844535 -481.69632 
L 420.394355 -482.711139 
L 418.944176 -485.090108 
L 417.493997 -489.330945 
L 416.043817 -494.908122 
L 414.593638 -509.959037 
L 413.143459 -511.307055 
L 411.693279 -508.836152 
L 410.2431 -494.494076 
L 408.792921 -488.997002 
L 407.342741 -484.977031 
L 405.892562 -483.025117 
z
" style="stroke: #ff7f0e; stroke-opacity: 0.2"/>
    </defs>
    <g clip-path="url(#pb4fe753488)">
     <use xlink:href="#m377e9b8562" x="0" y="720" style="fill: #ff7f0e; fill-opacity: 0.2; stroke: #ff7f0e; stroke-opacity: 0.2"/>
    </g>
   </g>
   <g id="matplotlib.axis_3">
    <g id="xtick_7">
     <g id="line2d_13">
      <g>
       <use xlink:href="#m77b00c91de" x="405.863558" y="333.490909" style="stroke: #000000; stroke-width: 0.8"/>
      </g>
     </g>
     <g id="text_13">
      <!-- 0 -->
      <g transform="translate(402.682308 348.089347)scale(0.1 -0.1)">
       <use xlink:href="#DejaVuSans-30"/>
      </g>
     </g>
    </g>
    <g id="xtick_8">
     <g id="line2d_14">
      <g>
       <use xlink:href="#m77b00c91de" x="463.870731" y="333.490909" style="stroke: #000000; stroke-width: 0.8"/>
      </g>
     </g>
     <g id="text_14">
      <!-- 2000 -->
      <g transform="translate(451.145731 348.089347)scale(0.1 -0.1)">
       <use xlink:href="#DejaVuSans-32"/>
       <use xlink:href="#DejaVuSans-30" x="63.623047"/>
       <use xlink:href="#DejaVuSans-30" x="127.246094"/>
       <use xlink:href="#DejaVuSans-30" x="190.869141"/>
      </g>
     </g>
    </g>
    <g id="xtick_9">
     <g id="line2d_15">
      <g>
       <use xlink:href="#m77b00c91de" x="521.877904" y="333.490909" style="stroke: #000000; stroke-width: 0.8"/>
      </g>
     </g>
     <g id="text_15">
      <!-- 4000 -->
      <g transform="translate(509.152904 348.089347)scale(0.1 -0.1)">
       <use xlink:href="#DejaVuSans-34"/>
       <use xlink:href="#DejaVuSans-30" x="63.623047"/>
       <use xlink:href="#DejaVuSans-30" x="127.246094"/>
       <use xlink:href="#DejaVuSans-30" x="190.869141"/>
      </g>
     </g>
    </g>
    <g id="xtick_10">
     <g id="line2d_16">
      <g>
       <use xlink:href="#m77b00c91de" x="579.885077" y="333.490909" style="stroke: #000000; stroke-width: 0.8"/>
      </g>
     </g>
     <g id="text_16">
      <!-- 6000 -->
      <g transform="translate(567.160077 348.089347)scale(0.1 -0.1)">
       <use xlink:href="#DejaVuSans-36"/>
       <use xlink:href="#DejaVuSans-30" x="63.623047"/>
       <use xlink:href="#DejaVuSans-30" x="127.246094"/>
       <use xlink:href="#DejaVuSans-30" x="190.869141"/>
      </g>
     </g>
    </g>
    <g id="xtick_11">
     <g id="line2d_17">
      <g>
       <use xlink:href="#m77b00c91de" x="637.89225" y="333.490909" style="stroke: #000000; stroke-width: 0.8"/>
      </g>
     </g>
     <g id="text_17">
      <!-- 8000 -->
      <g transform="translate(625.16725 348.089347)scale(0.1 -0.1)">
       <use xlink:href="#DejaVuSans-38"/>
       <use xlink:href="#DejaVuSans-30" x="63.623047"/>
       <use xlink:href="#DejaVuSans-30" x="127.246094"/>
       <use xlink:href="#DejaVuSans-30" x="190.869141"/>
      </g>
     </g>
    </g>
   </g>
   <g id="matplotlib.axis_4">
    <g id="ytick_7">
     <g id="line2d_18">
      <g>
       <use xlink:href="#m72c9b7cc36" x="394.363636" y="318.988729" style="stroke: #000000; stroke-width: 0.8"/>
      </g>
     </g>
     <g id="text_18">
      <!-- −2 -->
      <g transform="translate(372.621449 322.787947)scale(0.1 -0.1)">
       <defs>
        <path id="DejaVuSans-2212" d="M 678 2272 
L 4684 2272 
L 4684 1741 
L 678 1741 
L 678 2272 
z
" transform="scale(0.015625)"/>
       </defs>
       <use xlink:href="#DejaVuSans-2212"/>
       <use xlink:href="#DejaVuSans-32" x="83.789062"/>
      </g>
     </g>
    </g>
    <g id="ytick_8">
     <g id="line2d_19">
      <g>
       <use xlink:href="#m72c9b7cc36" x="394.363636" y="278.865137" style="stroke: #000000; stroke-width: 0.8"/>
      </g>
     </g>
     <g id="text_19">
      <!-- −1 -->
      <g transform="translate(372.621449 282.664355)scale(0.1 -0.1)">
       <use xlink:href="#DejaVuSans-2212"/>
       <use xlink:href="#DejaVuSans-31" x="83.789062"/>
      </g>
     </g>
    </g>
    <g id="ytick_9">
     <g id="line2d_20">
      <g>
       <use xlink:href="#m72c9b7cc36" x="394.363636" y="238.741545" style="stroke: #000000; stroke-width: 0.8"/>
      </g>
     </g>
     <g id="text_20">
      <!-- 0 -->
      <g transform="translate(381.001136 242.540763)scale(0.1 -0.1)">
       <use xlink:href="#DejaVuSans-30"/>
      </g>
     </g>
    </g>
    <g id="ytick_10">
     <g id="line2d_21">
      <g>
       <use xlink:href="#m72c9b7cc36" x="394.363636" y="198.617953" style="stroke: #000000; stroke-width: 0.8"/>
      </g>
     </g>
     <g id="text_21">
      <!-- 1 -->
      <g transform="translate(381.001136 202.417171)scale(0.1 -0.1)">
       <use xlink:href="#DejaVuSans-31"/>
      </g>
     </g>
    </g>
    <g id="ytick_11">
     <g id="line2d_22">
      <g>
       <use xlink:href="#m72c9b7cc36" x="394.363636" y="158.494361" style="stroke: #000000; stroke-width: 0.8"/>
      </g>
     </g>
     <g id="text_22">
      <!-- 2 -->
      <g transform="translate(381.001136 162.293579)scale(0.1 -0.1)">
       <use xlink:href="#DejaVuSans-32"/>
      </g>
     </g>
    </g>
    <g id="ytick_12">
     <g id="line2d_23">
      <g>
       <use xlink:href="#m72c9b7cc36" x="394.363636" y="118.370769" style="stroke: #000000; stroke-width: 0.8"/>
      </g>
     </g>
     <g id="text_23">
      <!-- 3 -->
      <g transform="translate(381.001136 122.169987)scale(0.1 -0.1)">
       <defs>
        <path id="DejaVuSans-33" d="M 2597 2516 
Q 3050 2419 3304 2112 
Q 3559 1806 3559 1356 
Q 3559 666 3084 287 
Q 2609 -91 1734 -91 
Q 1441 -91 1130 -33 
Q 819 25 488 141 
L 488 750 
Q 750 597 1062 519 
Q 1375 441 1716 441 
Q 2309 441 2620 675 
Q 2931 909 2931 1356 
Q 2931 1769 2642 2001 
Q 2353 2234 1838 2234 
L 1294 2234 
L 1294 2753 
L 1863 2753 
Q 2328 2753 2575 2939 
Q 2822 3125 2822 3475 
Q 2822 3834 2567 4026 
Q 2313 4219 1838 4219 
Q 1578 4219 1281 4162 
Q 984 4106 628 3988 
L 628 4550 
Q 988 4650 1302 4700 
Q 1616 4750 1894 4750 
Q 2613 4750 3031 4423 
Q 3450 4097 3450 3541 
Q 3450 3153 3228 2886 
Q 3006 2619 2597 2516 
z
" transform="scale(0.015625)"/>
       </defs>
       <use xlink:href="#DejaVuSans-33"/>
      </g>
     </g>
    </g>
   </g>
   <g id="line2d_24">
    <path d="M 405.892562 259.518429 
L 407.342741 257.843989 
L 408.792921 254.860677 
L 413.143459 243.419946 
L 414.593638 240.928054 
L 416.043817 239.566818 
L 417.493997 238.989766 
L 418.944176 238.800502 
L 423.294714 238.741545 
L 537.85888 238.719888 
L 539.30906 238.628266 
L 540.759239 238.276766 
L 542.209418 237.24366 
L 543.659598 234.944196 
L 545.109777 231.157523 
L 546.559956 226.792093 
L 548.010136 223.870065 
L 549.460315 224.109315 
L 550.910494 227.353993 
L 552.360674 231.731461 
L 553.810853 235.329668 
L 555.261032 237.429758 
L 556.711212 238.343608 
L 558.161391 238.646432 
L 561.06175 238.739257 
L 577.013722 238.806626 
L 578.463901 239.00379 
L 579.914081 239.573124 
L 581.36426 240.835413 
L 582.814439 242.987662 
L 585.714798 248.716673 
L 587.164977 250.998855 
L 588.615157 252.201688 
L 590.065336 252.109755 
L 591.515515 250.779459 
L 592.965695 248.566521 
L 595.866053 243.477675 
L 597.316233 241.422798 
L 598.766412 240.01452 
L 600.216591 239.235522 
L 601.666771 238.895095 
L 604.567129 238.748745 
L 632.120536 238.741545 
L 636.471074 238.741545 
L 636.471074 238.741545 
" clip-path="url(#pb4fe753488)" style="fill: none; stroke: #9467bd; stroke-width: 2; stroke-linecap: square"/>
   </g>
   <g id="line2d_25">
    <path d="M 405.892562 238.741545 
L 460.999376 238.70573 
L 462.449556 238.597907 
L 463.899735 238.289009 
L 465.349914 237.615695 
L 466.800094 236.512324 
L 468.250273 235.187914 
L 469.700452 234.095695 
L 471.150632 233.592901 
L 474.05099 233.508995 
L 475.501169 232.892032 
L 476.951349 231.830396 
L 478.401528 231.029297 
L 479.851707 231.145205 
L 481.301887 232.174275 
L 482.752066 233.492472 
L 484.202245 234.33126 
L 485.652425 234.242369 
L 488.552783 232.672693 
L 490.002963 232.856843 
L 491.453142 234.120654 
L 492.903321 235.851822 
L 494.353501 237.310942 
L 495.80368 238.181625 
L 497.253859 238.563258 
L 498.704039 238.671683 
L 500.154218 238.632878 
L 501.604397 238.445953 
L 503.054577 238.027881 
L 504.504756 237.28764 
L 505.954935 236.225047 
L 507.405115 235.01985 
L 508.855294 234.029575 
L 510.305473 233.629826 
L 511.755653 233.983758 
L 513.205832 234.939855 
L 514.656011 236.127657 
L 516.106191 237.130583 
L 517.55637 237.614795 
L 519.006549 237.396043 
L 520.456729 236.509087 
L 521.906908 235.304262 
L 523.357087 234.404797 
L 524.807266 234.354949 
L 526.257446 235.197693 
L 527.707625 236.457209 
L 529.157804 237.567743 
L 530.607984 238.26109 
L 532.058163 238.584992 
L 534.958522 238.733186 
L 545.109777 238.852189 
L 546.559956 239.081861 
L 548.010136 239.593706 
L 549.460315 240.501204 
L 553.810853 244.365665 
L 555.261032 245.030369 
L 556.711212 245.374387 
L 558.161391 246.073607 
L 559.61157 247.805975 
L 562.511929 253.510684 
L 563.962108 255.574368 
L 565.412288 256.438616 
L 566.862467 256.844146 
L 568.312646 257.926448 
L 569.762826 260.184977 
L 571.213005 263.062134 
L 572.663184 265.434791 
L 574.113363 266.509082 
L 575.563543 266.383727 
L 577.013722 265.878801 
L 578.463901 265.768582 
L 579.914081 265.968185 
L 581.36426 265.390174 
L 582.814439 262.744115 
L 584.264619 257.604623 
L 585.714798 250.676693 
L 587.164977 242.807118 
L 588.615157 233.743514 
L 590.065336 222.129614 
L 591.515515 206.783343 
L 592.965695 187.799889 
L 595.866053 146.980067 
L 597.316233 132.333668 
L 598.766412 126.020297 
L 600.216591 128.804376 
L 601.666771 139.575769 
L 603.11695 156.624991 
L 606.017309 199.075894 
L 607.467488 216.894309 
L 608.917667 228.701945 
L 610.367847 234.663673 
L 611.818026 236.357783 
L 613.268205 235.130706 
L 614.718385 231.699896 
L 617.618743 222.177911 
L 619.068923 219.125079 
L 620.519102 218.426898 
L 621.969281 219.623191 
L 623.41946 221.747658 
L 624.86964 224.148487 
L 626.319819 226.774358 
L 630.670357 235.778112 
L 632.120536 237.889278 
L 633.570716 239.24488 
L 635.020895 240.005619 
L 636.471074 240.336415 
L 636.471074 240.336415 
" clip-path="url(#pb4fe753488)" style="fill: none; stroke: #1f77b4; stroke-width: 2; stroke-linecap: square"/>
   </g>
   <g id="line2d_26">
    <path d="M 405.892562 248.566253 
L 407.342741 247.568239 
L 408.792921 245.895146 
L 410.2431 244.564092 
L 411.693279 245.165672 
L 413.143459 249.026674 
L 414.593638 256.279877 
L 417.493997 274.474251 
L 418.944176 281.253106 
L 420.394355 285.351222 
L 421.844535 287.485634 
L 424.744893 289.959757 
L 426.195073 291.450942 
L 427.645252 293.34157 
L 429.095431 295.652448 
L 431.99579 301.149963 
L 434.896148 306.496478 
L 437.796507 311.678288 
L 439.246686 314.442088 
L 440.696866 316.922445 
L 442.147045 318.555204 
L 443.597224 318.812695 
L 445.047404 317.415369 
L 446.497583 314.584429 
L 453.74848 296.759648 
L 456.648838 288.719402 
L 458.099018 285.326848 
L 459.549197 283.026736 
L 460.999376 281.956062 
L 462.449556 281.660195 
L 463.899735 281.18334 
L 465.349914 279.499112 
L 466.800094 276.070982 
L 471.150632 261.395885 
L 472.600811 257.653638 
L 475.501169 250.573494 
L 476.951349 246.685395 
L 478.401528 243.236116 
L 479.851707 240.82585 
L 481.301887 239.520338 
L 482.752066 238.973873 
L 484.202245 238.796161 
L 488.552783 238.741545 
L 505.954935 238.821545 
L 507.405115 239.07538 
L 508.855294 239.8376 
L 510.305473 241.595 
L 511.755653 244.67118 
L 513.205832 248.675351 
L 514.656011 252.348995 
L 516.106191 254.255554 
L 517.55637 253.722067 
L 519.006549 251.115052 
L 521.906908 243.893978 
L 523.357087 241.249052 
L 524.807266 239.727674 
L 526.257446 239.050682 
L 527.707625 238.817854 
L 532.058163 238.741545 
L 595.866053 238.765819 
L 597.316233 238.872139 
L 598.766412 239.290421 
L 600.216591 240.567502 
L 601.666771 243.592286 
L 603.11695 249.117679 
L 606.017309 264.578313 
L 607.467488 269.582908 
L 608.917667 269.952821 
L 610.367847 266.207223 
L 613.268205 255.480901 
L 614.718385 251.240036 
L 616.168564 247.510087 
L 617.618743 244.126921 
L 619.068923 241.477594 
L 620.519102 239.855287 
L 621.969281 239.102254 
L 623.41946 238.852333 
L 624.86964 238.869762 
L 626.319819 239.193442 
L 627.769998 240.180196 
L 629.220178 242.426574 
L 630.670357 246.40268 
L 632.120536 251.949124 
L 633.570716 258.094737 
L 635.020895 263.400819 
L 636.471074 266.48483 
L 636.471074 266.48483 
" clip-path="url(#pb4fe753488)" style="fill: none; stroke: #d62728; stroke-width: 2; stroke-linecap: square"/>
   </g>
   <g id="line2d_27">
    <path d="M 405.892562 236.974883 
L 407.342741 235.022969 
L 408.792921 231.002998 
L 411.693279 220.430056 
L 413.143459 218.232071 
L 414.593638 220.136366 
L 416.043817 225.091878 
L 417.493997 230.669055 
L 418.944176 234.909892 
L 420.394355 237.288861 
L 421.844535 238.30368 
L 423.294714 238.637051 
L 426.195073 238.73896 
L 474.05099 238.919706 
L 475.501169 239.311923 
L 476.951349 240.199963 
L 478.401528 241.769921 
L 479.851707 243.964611 
L 481.301887 246.421838 
L 482.752066 248.593164 
L 484.202245 249.912317 
L 485.652425 250.042074 
L 488.552783 248.375284 
L 490.002963 248.328039 
L 491.453142 249.245538 
L 494.353501 252.055092 
L 495.80368 253.222682 
L 497.253859 253.921221 
L 498.704039 253.820814 
L 500.154218 252.696389 
L 501.604397 250.614958 
L 504.504756 245.160747 
L 505.954935 242.892431 
L 507.405115 241.548723 
L 508.855294 241.17572 
L 511.755653 241.447548 
L 513.205832 241.07303 
L 516.106191 239.594141 
L 517.55637 239.109687 
L 519.006549 238.931657 
L 520.456729 239.09108 
L 521.906908 239.837234 
L 523.357087 241.725985 
L 524.807266 245.392627 
L 526.257446 251.002621 
L 529.157804 264.354501 
L 530.607984 269.380185 
L 532.058163 272.445608 
L 533.508342 273.891805 
L 534.958522 274.289755 
L 536.408701 274.070494 
L 539.30906 273.157069 
L 542.209418 272.889871 
L 543.659598 271.589323 
L 545.109777 267.935954 
L 546.559956 261.70298 
L 548.010136 254.181993 
L 549.460315 247.39766 
L 550.910494 242.714737 
L 552.360674 240.215509 
L 553.810853 239.179205 
L 555.261032 238.844735 
L 558.161391 238.744028 
L 601.666771 238.754187 
L 603.11695 238.807684 
L 604.567129 239.013472 
L 606.017309 239.619776 
L 607.467488 240.976959 
L 608.917667 243.240218 
L 610.367847 245.931724 
L 611.818026 247.928713 
L 613.268205 248.217193 
L 614.718385 246.737684 
L 617.618743 242.071136 
L 619.068923 240.42506 
L 620.519102 239.464497 
L 621.969281 239.001453 
L 623.41946 238.81831 
L 627.769998 238.742051 
L 636.471074 238.741545 
L 636.471074 238.741545 
" clip-path="url(#pb4fe753488)" style="fill: none; stroke: #ff7f0e; stroke-width: 2; stroke-linecap: square"/>
   </g>
   <g id="LineCollection_1">
    <path d="M 521.877904 315.75973 
L 521.877904 144.405467 
" clip-path="url(#pb4fe753488)" style="fill: none; stroke-dasharray: 7.4,3.2; stroke-dashoffset: 0; stroke: #000000; stroke-width: 2"/>
    <path d="M 536.379697 315.75973 
L 536.379697 144.405467 
" clip-path="url(#pb4fe753488)" style="fill: none; stroke-dasharray: 7.4,3.2; stroke-dashoffset: 0; stroke: #000000; stroke-width: 2"/>
    <path d="M 565.383284 315.75973 
L 565.383284 144.405467 
" clip-path="url(#pb4fe753488)" style="fill: none; stroke-dasharray: 7.4,3.2; stroke-dashoffset: 0; stroke: #000000; stroke-width: 2"/>
    <path d="M 623.390457 315.75973 
L 623.390457 144.405467 
" clip-path="url(#pb4fe753488)" style="fill: none; stroke-dasharray: 7.4,3.2; stroke-dashoffset: 0; stroke: #000000; stroke-width: 2"/>
   </g>
   <g id="patch_8">
    <path d="M 394.363636 333.490909 
L 394.363636 86.4 
" style="fill: none; stroke: #000000; stroke-width: 0.8; stroke-linejoin: miter; stroke-linecap: square"/>
   </g>
   <g id="patch_9">
    <path d="M 648 333.490909 
L 648 86.4 
" style="fill: none; stroke: #000000; stroke-width: 0.8; stroke-linejoin: miter; stroke-linecap: square"/>
   </g>
   <g id="patch_10">
    <path d="M 394.363636 333.490909 
L 648 333.490909 
" style="fill: none; stroke: #000000; stroke-width: 0.8; stroke-linejoin: miter; stroke-linecap: square"/>
   </g>
   <g id="patch_11">
    <path d="M 394.363636 86.4 
L 648 86.4 
" style="fill: none; stroke: #000000; stroke-width: 0.8; stroke-linejoin: miter; stroke-linecap: square"/>
   </g>
   <g id="text_24">
    <!-- unit_53 -->
    <g transform="translate(498.922756 80.4)scale(0.12 -0.12)">
     <defs>
      <path id="DejaVuSans-75" d="M 544 1381 
L 544 3500 
L 1119 3500 
L 1119 1403 
Q 1119 906 1312 657 
Q 1506 409 1894 409 
Q 2359 409 2629 706 
Q 2900 1003 2900 1516 
L 2900 3500 
L 3475 3500 
L 3475 0 
L 2900 0 
L 2900 538 
Q 2691 219 2414 64 
Q 2138 -91 1772 -91 
Q 1169 -91 856 284 
Q 544 659 544 1381 
z
M 1991 3584 
L 1991 3584 
z
" transform="scale(0.015625)"/>
      <path id="DejaVuSans-6e" d="M 3513 2113 
L 3513 0 
L 2938 0 
L 2938 2094 
Q 2938 2591 2744 2837 
Q 2550 3084 2163 3084 
Q 1697 3084 1428 2787 
Q 1159 2491 1159 1978 
L 1159 0 
L 581 0 
L 581 3500 
L 1159 3500 
L 1159 2956 
Q 1366 3272 1645 3428 
Q 1925 3584 2291 3584 
Q 2894 3584 3203 3211 
Q 3513 2838 3513 2113 
z
" transform="scale(0.015625)"/>
      <path id="DejaVuSans-69" d="M 603 3500 
L 1178 3500 
L 1178 0 
L 603 0 
L 603 3500 
z
M 603 4863 
L 1178 4863 
L 1178 4134 
L 603 4134 
L 603 4863 
z
" transform="scale(0.015625)"/>
      <path id="DejaVuSans-74" d="M 1172 4494 
L 1172 3500 
L 2356 3500 
L 2356 3053 
L 1172 3053 
L 1172 1153 
Q 1172 725 1289 603 
Q 1406 481 1766 481 
L 2356 481 
L 2356 0 
L 1766 0 
Q 1100 0 847 248 
Q 594 497 594 1153 
L 594 3053 
L 172 3053 
L 172 3500 
L 594 3500 
L 594 4494 
L 1172 4494 
z
" transform="scale(0.015625)"/>
      <path id="DejaVuSans-5f" d="M 3263 -1063 
L 3263 -1509 
L -63 -1509 
L -63 -1063 
L 3263 -1063 
z
" transform="scale(0.015625)"/>
      <path id="DejaVuSans-35" d="M 691 4666 
L 3169 4666 
L 3169 4134 
L 1269 4134 
L 1269 2991 
Q 1406 3038 1543 3061 
Q 1681 3084 1819 3084 
Q 2600 3084 3056 2656 
Q 3513 2228 3513 1497 
Q 3513 744 3044 326 
Q 2575 -91 1722 -91 
Q 1428 -91 1123 -41 
Q 819 9 494 109 
L 494 744 
Q 775 591 1075 516 
Q 1375 441 1709 441 
Q 2250 441 2565 725 
Q 2881 1009 2881 1497 
Q 2881 1984 2565 2268 
Q 2250 2553 1709 2553 
Q 1456 2553 1204 2497 
Q 953 2441 691 2322 
L 691 4666 
z
" transform="scale(0.015625)"/>
     </defs>
     <use xlink:href="#DejaVuSans-75"/>
     <use xlink:href="#DejaVuSans-6e" x="63.378906"/>
     <use xlink:href="#DejaVuSans-69" x="126.757812"/>
     <use xlink:href="#DejaVuSans-74" x="154.541016"/>
     <use xlink:href="#DejaVuSans-5f" x="193.75"/>
     <use xlink:href="#DejaVuSans-35" x="243.75"/>
     <use xlink:href="#DejaVuSans-33" x="307.373047"/>
    </g>
   </g>
  </g>
  <g id="axes_3">
   <g id="patch_12">
    <path d="M 90 630 
L 343.636364 630 
L 343.636364 382.909091 
L 90 382.909091 
z
" style="fill: #ffffff"/>
   </g>
   <g id="matplotlib.axis_5">
    <g id="xtick_12">
     <g id="line2d_28">
      <g>
       <use xlink:href="#m77b00c91de" x="90" y="630" style="stroke: #000000; stroke-width: 0.8"/>
      </g>
     </g>
     <g id="text_25">
      <!-- 0.0 -->
      <g transform="translate(82.048438 644.598437)scale(0.1 -0.1)">
       <use xlink:href="#DejaVuSans-30"/>
       <use xlink:href="#DejaVuSans-2e" x="63.623047"/>
       <use xlink:href="#DejaVuSans-30" x="95.410156"/>
      </g>
     </g>
    </g>
    <g id="xtick_13">
     <g id="line2d_29">
      <g>
       <use xlink:href="#m77b00c91de" x="140.727273" y="630" style="stroke: #000000; stroke-width: 0.8"/>
      </g>
     </g>
     <g id="text_26">
      <!-- 0.2 -->
      <g transform="translate(132.77571 644.598437)scale(0.1 -0.1)">
       <use xlink:href="#DejaVuSans-30"/>
       <use xlink:href="#DejaVuSans-2e" x="63.623047"/>
       <use xlink:href="#DejaVuSans-32" x="95.410156"/>
      </g>
     </g>
    </g>
    <g id="xtick_14">
     <g id="line2d_30">
      <g>
       <use xlink:href="#m77b00c91de" x="191.454545" y="630" style="stroke: #000000; stroke-width: 0.8"/>
      </g>
     </g>
     <g id="text_27">
      <!-- 0.4 -->
      <g transform="translate(183.502983 644.598437)scale(0.1 -0.1)">
       <use xlink:href="#DejaVuSans-30"/>
       <use xlink:href="#DejaVuSans-2e" x="63.623047"/>
       <use xlink:href="#DejaVuSans-34" x="95.410156"/>
      </g>
     </g>
    </g>
    <g id="xtick_15">
     <g id="line2d_31">
      <g>
       <use xlink:href="#m77b00c91de" x="242.181818" y="630" style="stroke: #000000; stroke-width: 0.8"/>
      </g>
     </g>
     <g id="text_28">
      <!-- 0.6 -->
      <g transform="translate(234.230256 644.598437)scale(0.1 -0.1)">
       <use xlink:href="#DejaVuSans-30"/>
       <use xlink:href="#DejaVuSans-2e" x="63.623047"/>
       <use xlink:href="#DejaVuSans-36" x="95.410156"/>
      </g>
     </g>
    </g>
    <g id="xtick_16">
     <g id="line2d_32">
      <g>
       <use xlink:href="#m77b00c91de" x="292.909091" y="630" style="stroke: #000000; stroke-width: 0.8"/>
      </g>
     </g>
     <g id="text_29">
      <!-- 0.8 -->
      <g transform="translate(284.957528 644.598437)scale(0.1 -0.1)">
       <use xlink:href="#DejaVuSans-30"/>
       <use xlink:href="#DejaVuSans-2e" x="63.623047"/>
       <use xlink:href="#DejaVuSans-38" x="95.410156"/>
      </g>
     </g>
    </g>
    <g id="xtick_17">
     <g id="line2d_33">
      <g>
       <use xlink:href="#m77b00c91de" x="343.636364" y="630" style="stroke: #000000; stroke-width: 0.8"/>
      </g>
     </g>
     <g id="text_30">
      <!-- 1.0 -->
      <g transform="translate(335.684801 644.598437)scale(0.1 -0.1)">
       <use xlink:href="#DejaVuSans-31"/>
       <use xlink:href="#DejaVuSans-2e" x="63.623047"/>
       <use xlink:href="#DejaVuSans-30" x="95.410156"/>
      </g>
     </g>
    </g>
   </g>
   <g id="matplotlib.axis_6">
    <g id="ytick_13">
     <g id="line2d_34">
      <g>
       <use xlink:href="#m72c9b7cc36" x="90" y="630" style="stroke: #000000; stroke-width: 0.8"/>
      </g>
     </g>
     <g id="text_31">
      <!-- 0.0 -->
      <g transform="translate(67.096875 633.799219)scale(0.1 -0.1)">
       <use xlink:href="#DejaVuSans-30"/>
       <use xlink:href="#DejaVuSans-2e" x="63.623047"/>
       <use xlink:href="#DejaVuSans-30" x="95.410156"/>
      </g>
     </g>
    </g>
    <g id="ytick_14">
     <g id="line2d_35">
      <g>
       <use xlink:href="#m72c9b7cc36" x="90" y="580.581818" style="stroke: #000000; stroke-width: 0.8"/>
      </g>
     </g>
     <g id="text_32">
      <!-- 0.2 -->
      <g transform="translate(67.096875 584.381037)scale(0.1 -0.1)">
       <use xlink:href="#DejaVuSans-30"/>
       <use xlink:href="#DejaVuSans-2e" x="63.623047"/>
       <use xlink:href="#DejaVuSans-32" x="95.410156"/>
      </g>
     </g>
    </g>
    <g id="ytick_15">
     <g id="line2d_36">
      <g>
       <use xlink:href="#m72c9b7cc36" x="90" y="531.163636" style="stroke: #000000; stroke-width: 0.8"/>
      </g>
     </g>
     <g id="text_33">
      <!-- 0.4 -->
      <g transform="translate(67.096875 534.962855)scale(0.1 -0.1)">
       <use xlink:href="#DejaVuSans-30"/>
       <use xlink:href="#DejaVuSans-2e" x="63.623047"/>
       <use xlink:href="#DejaVuSans-34" x="95.410156"/>
      </g>
     </g>
    </g>
    <g id="ytick_16">
     <g id="line2d_37">
      <g>
       <use xlink:href="#m72c9b7cc36" x="90" y="481.745455" style="stroke: #000000; stroke-width: 0.8"/>
      </g>
     </g>
     <g id="text_34">
      <!-- 0.6 -->
      <g transform="translate(67.096875 485.544673)scale(0.1 -0.1)">
       <use xlink:href="#DejaVuSans-30"/>
       <use xlink:href="#DejaVuSans-2e" x="63.623047"/>
       <use xlink:href="#DejaVuSans-36" x="95.410156"/>
      </g>
     </g>
    </g>
    <g id="ytick_17">
     <g id="line2d_38">
      <g>
       <use xlink:href="#m72c9b7cc36" x="90" y="432.327273" style="stroke: #000000; stroke-width: 0.8"/>
      </g>
     </g>
     <g id="text_35">
      <!-- 0.8 -->
      <g transform="translate(67.096875 436.126491)scale(0.1 -0.1)">
       <use xlink:href="#DejaVuSans-30"/>
       <use xlink:href="#DejaVuSans-2e" x="63.623047"/>
       <use xlink:href="#DejaVuSans-38" x="95.410156"/>
      </g>
     </g>
    </g>
    <g id="ytick_18">
     <g id="line2d_39">
      <g>
       <use xlink:href="#m72c9b7cc36" x="90" y="382.909091" style="stroke: #000000; stroke-width: 0.8"/>
      </g>
     </g>
     <g id="text_36">
      <!-- 1.0 -->
      <g transform="translate(67.096875 386.70831)scale(0.1 -0.1)">
       <use xlink:href="#DejaVuSans-31"/>
       <use xlink:href="#DejaVuSans-2e" x="63.623047"/>
       <use xlink:href="#DejaVuSans-30" x="95.410156"/>
      </g>
     </g>
    </g>
   </g>
   <g id="patch_13">
    <path d="M 90 630 
L 90 382.909091 
" style="fill: none; stroke: #000000; stroke-width: 0.8; stroke-linejoin: miter; stroke-linecap: square"/>
   </g>
   <g id="patch_14">
    <path d="M 343.636364 630 
L 343.636364 382.909091 
" style="fill: none; stroke: #000000; stroke-width: 0.8; stroke-linejoin: miter; stroke-linecap: square"/>
   </g>
   <g id="patch_15">
    <path d="M 90 630 
L 343.636364 630 
" style="fill: none; stroke: #000000; stroke-width: 0.8; stroke-linejoin: miter; stroke-linecap: square"/>
   </g>
   <g id="patch_16">
    <path d="M 90 382.909091 
L 343.636364 382.909091 
" style="fill: none; stroke: #000000; stroke-width: 0.8; stroke-linejoin: miter; stroke-linecap: square"/>
   </g>
  </g>
  <g id="axes_4">
   <g id="patch_17">
    <path d="M 394.363636 630 
L 648 630 
L 648 382.909091 
L 394.363636 382.909091 
z
" style="fill: #ffffff"/>
   </g>
   <g id="matplotlib.axis_7">
    <g id="xtick_18">
     <g id="line2d_40">
      <g>
       <use xlink:href="#m77b00c91de" x="405.863558" y="630" style="stroke: #000000; stroke-width: 0.8"/>
      </g>
     </g>
     <g id="text_37">
      <!-- 0 -->
      <g transform="translate(402.682308 644.598437)scale(0.1 -0.1)">
       <use xlink:href="#DejaVuSans-30"/>
      </g>
     </g>
    </g>
    <g id="xtick_19">
     <g id="line2d_41">
      <g>
       <use xlink:href="#m77b00c91de" x="463.870731" y="630" style="stroke: #000000; stroke-width: 0.8"/>
      </g>
     </g>
     <g id="text_38">
      <!-- 2000 -->
      <g transform="translate(451.145731 644.598437)scale(0.1 -0.1)">
       <use xlink:href="#DejaVuSans-32"/>
       <use xlink:href="#DejaVuSans-30" x="63.623047"/>
       <use xlink:href="#DejaVuSans-30" x="127.246094"/>
       <use xlink:href="#DejaVuSans-30" x="190.869141"/>
      </g>
     </g>
    </g>
    <g id="xtick_20">
     <g id="line2d_42">
      <g>
       <use xlink:href="#m77b00c91de" x="521.877904" y="630" style="stroke: #000000; stroke-width: 0.8"/>
      </g>
     </g>
     <g id="text_39">
      <!-- 4000 -->
      <g transform="translate(509.152904 644.598437)scale(0.1 -0.1)">
       <use xlink:href="#DejaVuSans-34"/>
       <use xlink:href="#DejaVuSans-30" x="63.623047"/>
       <use xlink:href="#DejaVuSans-30" x="127.246094"/>
       <use xlink:href="#DejaVuSans-30" x="190.869141"/>
      </g>
     </g>
    </g>
    <g id="xtick_21">
     <g id="line2d_43">
      <g>
       <use xlink:href="#m77b00c91de" x="579.885077" y="630" style="stroke: #000000; stroke-width: 0.8"/>
      </g>
     </g>
     <g id="text_40">
      <!-- 6000 -->
      <g transform="translate(567.160077 644.598437)scale(0.1 -0.1)">
       <use xlink:href="#DejaVuSans-36"/>
       <use xlink:href="#DejaVuSans-30" x="63.623047"/>
       <use xlink:href="#DejaVuSans-30" x="127.246094"/>
       <use xlink:href="#DejaVuSans-30" x="190.869141"/>
      </g>
     </g>
    </g>
    <g id="xtick_22">
     <g id="line2d_44">
      <g>
       <use xlink:href="#m77b00c91de" x="637.89225" y="630" style="stroke: #000000; stroke-width: 0.8"/>
      </g>
     </g>
     <g id="text_41">
      <!-- 8000 -->
      <g transform="translate(625.16725 644.598437)scale(0.1 -0.1)">
       <use xlink:href="#DejaVuSans-38"/>
       <use xlink:href="#DejaVuSans-30" x="63.623047"/>
       <use xlink:href="#DejaVuSans-30" x="127.246094"/>
       <use xlink:href="#DejaVuSans-30" x="190.869141"/>
      </g>
     </g>
    </g>
   </g>
   <g id="matplotlib.axis_8">
    <g id="ytick_19">
     <g id="line2d_45">
      <g>
       <use xlink:href="#m72c9b7cc36" x="394.363636" y="630" style="stroke: #000000; stroke-width: 0.8"/>
      </g>
     </g>
     <g id="text_42">
      <!-- −2 -->
      <g transform="translate(372.621449 633.799219)scale(0.1 -0.1)">
       <use xlink:href="#DejaVuSans-2212"/>
       <use xlink:href="#DejaVuSans-32" x="83.789062"/>
      </g>
     </g>
    </g>
    <g id="ytick_20">
     <g id="line2d_46">
      <g>
       <use xlink:href="#m72c9b7cc36" x="394.363636" y="595.358616" style="stroke: #000000; stroke-width: 0.8"/>
      </g>
     </g>
     <g id="text_43">
      <!-- −1 -->
      <g transform="translate(372.621449 599.157834)scale(0.1 -0.1)">
       <use xlink:href="#DejaVuSans-2212"/>
       <use xlink:href="#DejaVuSans-31" x="83.789062"/>
      </g>
     </g>
    </g>
    <g id="ytick_21">
     <g id="line2d_47">
      <g>
       <use xlink:href="#m72c9b7cc36" x="394.363636" y="560.717231" style="stroke: #000000; stroke-width: 0.8"/>
      </g>
     </g>
     <g id="text_44">
      <!-- 0 -->
      <g transform="translate(381.001136 564.51645)scale(0.1 -0.1)">
       <use xlink:href="#DejaVuSans-30"/>
      </g>
     </g>
    </g>
    <g id="ytick_22">
     <g id="line2d_48">
      <g>
       <use xlink:href="#m72c9b7cc36" x="394.363636" y="526.075847" style="stroke: #000000; stroke-width: 0.8"/>
      </g>
     </g>
     <g id="text_45">
      <!-- 1 -->
      <g transform="translate(381.001136 529.875066)scale(0.1 -0.1)">
       <use xlink:href="#DejaVuSans-31"/>
      </g>
     </g>
    </g>
    <g id="ytick_23">
     <g id="line2d_49">
      <g>
       <use xlink:href="#m72c9b7cc36" x="394.363636" y="491.434463" style="stroke: #000000; stroke-width: 0.8"/>
      </g>
     </g>
     <g id="text_46">
      <!-- 2 -->
      <g transform="translate(381.001136 495.233681)scale(0.1 -0.1)">
       <use xlink:href="#DejaVuSans-32"/>
      </g>
     </g>
    </g>
    <g id="ytick_24">
     <g id="line2d_50">
      <g>
       <use xlink:href="#m72c9b7cc36" x="394.363636" y="456.793078" style="stroke: #000000; stroke-width: 0.8"/>
      </g>
     </g>
     <g id="text_47">
      <!-- 3 -->
      <g transform="translate(381.001136 460.592297)scale(0.1 -0.1)">
       <use xlink:href="#DejaVuSans-33"/>
      </g>
     </g>
    </g>
    <g id="ytick_25">
     <g id="line2d_51">
      <g>
       <use xlink:href="#m72c9b7cc36" x="394.363636" y="422.151694" style="stroke: #000000; stroke-width: 0.8"/>
      </g>
     </g>
     <g id="text_48">
      <!-- 4 -->
      <g transform="translate(381.001136 425.950913)scale(0.1 -0.1)">
       <use xlink:href="#DejaVuSans-34"/>
      </g>
     </g>
    </g>
    <g id="ytick_26">
     <g id="line2d_52">
      <g>
       <use xlink:href="#m72c9b7cc36" x="394.363636" y="387.51031" style="stroke: #000000; stroke-width: 0.8"/>
      </g>
     </g>
     <g id="text_49">
      <!-- 5 -->
      <g transform="translate(381.001136 391.309528)scale(0.1 -0.1)">
       <use xlink:href="#DejaVuSans-35"/>
      </g>
     </g>
    </g>
   </g>
   <g id="line2d_53">
    <path d="M 416.653409 721 
L 417.493997 651.425611 
L 418.944176 571.512607 
L 420.394355 554.896674 
L 421.844535 554.763271 
L 423.294714 538.259916 
L 424.744893 551.568012 
L 426.195073 660.871134 
L 426.83677 721 
M 436.851254 721 
L 437.796507 586.252414 
L 439.246686 438.865288 
L 440.696866 385.643286 
L 442.147045 382.909091 
L 443.597224 388.34001 
L 445.047404 413.778052 
L 446.497583 482.249699 
L 447.947762 526.27155 
L 449.397942 501.75193 
L 450.848121 490.583824 
L 452.2983 511.775752 
L 453.74848 528.79987 
L 455.198659 527.78329 
L 456.648838 503.960847 
L 458.099018 489.823753 
L 459.549197 490.176171 
L 460.999376 467.972065 
L 462.449556 443.402633 
L 463.899735 466.844401 
L 466.800094 637.015405 
L 468.250273 691.749293 
L 468.804916 721 
M 474.179713 721 
L 475.501169 688.053883 
L 476.951349 643.907929 
L 478.401528 608.359856 
L 479.851707 591.350041 
L 482.752066 572.978011 
L 484.202245 555.2708 
L 485.652425 551.509064 
L 487.102604 570.0724 
L 488.552783 597.46941 
L 490.002963 594.204318 
L 491.453142 558.311891 
L 492.903321 549.304432 
L 494.353501 560.721305 
L 495.80368 569.423924 
L 497.253859 586.280005 
L 500.154218 652.806124 
L 501.604397 674.194266 
L 503.054577 680.339819 
L 504.504756 656.510519 
L 505.954935 611.141509 
L 507.405115 588.636399 
L 508.855294 596.826926 
L 510.305473 623.230168 
L 511.755653 645.669297 
L 513.205832 670.071827 
L 514.656011 719.831725 
L 516.106191 720.455624 
L 517.55637 669.031169 
L 519.006549 635.929499 
L 520.456729 600.258034 
L 521.906908 572.144165 
L 523.357087 563.436561 
L 524.807266 566.719786 
L 527.707625 610.17326 
L 529.157804 587.186549 
L 530.607984 542.629563 
L 532.058163 515.240724 
L 533.508342 501.562835 
L 534.958522 494.12453 
L 536.408701 480.335449 
L 537.85888 470.926896 
L 539.30906 472.494016 
L 540.759239 468.234183 
L 542.209418 460.710541 
L 543.659598 455.56165 
L 545.109777 478.568826 
L 546.559956 567.562722 
L 548.010136 687.717182 
L 549.460315 711.06732 
L 550.910494 633.396677 
L 552.360674 575.088321 
L 553.810853 561.41645 
L 555.261032 560.146549 
L 559.61157 560.797135 
L 561.06175 560.239072 
L 563.962108 555.336447 
L 565.412288 556.440872 
L 566.862467 558.088521 
L 568.312646 558.117789 
L 569.762826 556.634594 
L 571.213005 554.322766 
L 572.663184 552.43137 
L 574.113363 552.881465 
L 577.013722 556.588292 
L 578.463901 557.048167 
L 579.914081 555.843399 
L 581.36426 555.821686 
L 582.814439 561.013342 
L 584.264619 580.978236 
L 585.714798 605.321098 
L 587.164977 608.598712 
L 588.615157 612.209127 
L 590.065336 632.382253 
L 592.965695 680.288161 
L 594.798121 721 
M 611.066305 721 
L 611.818026 656.802203 
L 613.268205 629.073002 
L 614.718385 660.82093 
L 616.168564 654.453068 
L 617.618743 669.112977 
L 619.068923 705.69348 
L 620.408677 721 
M 628.548191 721 
L 629.220178 715.166878 
L 630.670357 707.715348 
L 631.062621 721 
L 631.062621 721 
" clip-path="url(#p905c1599e5)" style="fill: none; stroke: #1f77b4; stroke-width: 1.5; stroke-linecap: square"/>
   </g>
   <g id="patch_18">
    <path d="M 394.363636 630 
L 394.363636 382.909091 
" style="fill: none; stroke: #000000; stroke-width: 0.8; stroke-linejoin: miter; stroke-linecap: square"/>
   </g>
   <g id="patch_19">
    <path d="M 648 630 
L 648 382.909091 
" style="fill: none; stroke: #000000; stroke-width: 0.8; stroke-linejoin: miter; stroke-linecap: square"/>
   </g>
   <g id="patch_20">
    <path d="M 394.363636 630 
L 648 630 
" style="fill: none; stroke: #000000; stroke-width: 0.8; stroke-linejoin: miter; stroke-linecap: square"/>
   </g>
   <g id="patch_21">
    <path d="M 394.363636 382.909091 
L 648 382.909091 
" style="fill: none; stroke: #000000; stroke-width: 0.8; stroke-linejoin: miter; stroke-linecap: square"/>
   </g>
   <g id="text_50">
    <!-- explained variance -->
    <g transform="translate(464.181818 376.909091)scale(0.12 -0.12)">
     <defs>
      <path id="DejaVuSans-65" d="M 3597 1894 
L 3597 1613 
L 953 1613 
Q 991 1019 1311 708 
Q 1631 397 2203 397 
Q 2534 397 2845 478 
Q 3156 559 3463 722 
L 3463 178 
Q 3153 47 2828 -22 
Q 2503 -91 2169 -91 
Q 1331 -91 842 396 
Q 353 884 353 1716 
Q 353 2575 817 3079 
Q 1281 3584 2069 3584 
Q 2775 3584 3186 3129 
Q 3597 2675 3597 1894 
z
M 3022 2063 
Q 3016 2534 2758 2815 
Q 2500 3097 2075 3097 
Q 1594 3097 1305 2825 
Q 1016 2553 972 2059 
L 3022 2063 
z
" transform="scale(0.015625)"/>
      <path id="DejaVuSans-78" d="M 3513 3500 
L 2247 1797 
L 3578 0 
L 2900 0 
L 1881 1375 
L 863 0 
L 184 0 
L 1544 1831 
L 300 3500 
L 978 3500 
L 1906 2253 
L 2834 3500 
L 3513 3500 
z
" transform="scale(0.015625)"/>
      <path id="DejaVuSans-70" d="M 1159 525 
L 1159 -1331 
L 581 -1331 
L 581 3500 
L 1159 3500 
L 1159 2969 
Q 1341 3281 1617 3432 
Q 1894 3584 2278 3584 
Q 2916 3584 3314 3078 
Q 3713 2572 3713 1747 
Q 3713 922 3314 415 
Q 2916 -91 2278 -91 
Q 1894 -91 1617 61 
Q 1341 213 1159 525 
z
M 3116 1747 
Q 3116 2381 2855 2742 
Q 2594 3103 2138 3103 
Q 1681 3103 1420 2742 
Q 1159 2381 1159 1747 
Q 1159 1113 1420 752 
Q 1681 391 2138 391 
Q 2594 391 2855 752 
Q 3116 1113 3116 1747 
z
" transform="scale(0.015625)"/>
      <path id="DejaVuSans-6c" d="M 603 4863 
L 1178 4863 
L 1178 0 
L 603 0 
L 603 4863 
z
" transform="scale(0.015625)"/>
      <path id="DejaVuSans-61" d="M 2194 1759 
Q 1497 1759 1228 1600 
Q 959 1441 959 1056 
Q 959 750 1161 570 
Q 1363 391 1709 391 
Q 2188 391 2477 730 
Q 2766 1069 2766 1631 
L 2766 1759 
L 2194 1759 
z
M 3341 1997 
L 3341 0 
L 2766 0 
L 2766 531 
Q 2569 213 2275 61 
Q 1981 -91 1556 -91 
Q 1019 -91 701 211 
Q 384 513 384 1019 
Q 384 1609 779 1909 
Q 1175 2209 1959 2209 
L 2766 2209 
L 2766 2266 
Q 2766 2663 2505 2880 
Q 2244 3097 1772 3097 
Q 1472 3097 1187 3025 
Q 903 2953 641 2809 
L 641 3341 
Q 956 3463 1253 3523 
Q 1550 3584 1831 3584 
Q 2591 3584 2966 3190 
Q 3341 2797 3341 1997 
z
" transform="scale(0.015625)"/>
      <path id="DejaVuSans-64" d="M 2906 2969 
L 2906 4863 
L 3481 4863 
L 3481 0 
L 2906 0 
L 2906 525 
Q 2725 213 2448 61 
Q 2172 -91 1784 -91 
Q 1150 -91 751 415 
Q 353 922 353 1747 
Q 353 2572 751 3078 
Q 1150 3584 1784 3584 
Q 2172 3584 2448 3432 
Q 2725 3281 2906 2969 
z
M 947 1747 
Q 947 1113 1208 752 
Q 1469 391 1925 391 
Q 2381 391 2643 752 
Q 2906 1113 2906 1747 
Q 2906 2381 2643 2742 
Q 2381 3103 1925 3103 
Q 1469 3103 1208 2742 
Q 947 2381 947 1747 
z
" transform="scale(0.015625)"/>
      <path id="DejaVuSans-20" transform="scale(0.015625)"/>
      <path id="DejaVuSans-76" d="M 191 3500 
L 800 3500 
L 1894 563 
L 2988 3500 
L 3597 3500 
L 2284 0 
L 1503 0 
L 191 3500 
z
" transform="scale(0.015625)"/>
      <path id="DejaVuSans-72" d="M 2631 2963 
Q 2534 3019 2420 3045 
Q 2306 3072 2169 3072 
Q 1681 3072 1420 2755 
Q 1159 2438 1159 1844 
L 1159 0 
L 581 0 
L 581 3500 
L 1159 3500 
L 1159 2956 
Q 1341 3275 1631 3429 
Q 1922 3584 2338 3584 
Q 2397 3584 2469 3576 
Q 2541 3569 2628 3553 
L 2631 2963 
z
" transform="scale(0.015625)"/>
      <path id="DejaVuSans-63" d="M 3122 3366 
L 3122 2828 
Q 2878 2963 2633 3030 
Q 2388 3097 2138 3097 
Q 1578 3097 1268 2742 
Q 959 2388 959 1747 
Q 959 1106 1268 751 
Q 1578 397 2138 397 
Q 2388 397 2633 464 
Q 2878 531 3122 666 
L 3122 134 
Q 2881 22 2623 -34 
Q 2366 -91 2075 -91 
Q 1284 -91 818 406 
Q 353 903 353 1747 
Q 353 2603 823 3093 
Q 1294 3584 2113 3584 
Q 2378 3584 2631 3529 
Q 2884 3475 3122 3366 
z
" transform="scale(0.015625)"/>
     </defs>
     <use xlink:href="#DejaVuSans-65"/>
     <use xlink:href="#DejaVuSans-78" x="59.773438"/>
     <use xlink:href="#DejaVuSans-70" x="118.953125"/>
     <use xlink:href="#DejaVuSans-6c" x="182.429688"/>
     <use xlink:href="#DejaVuSans-61" x="210.212891"/>
     <use xlink:href="#DejaVuSans-69" x="271.492188"/>
     <use xlink:href="#DejaVuSans-6e" x="299.275391"/>
     <use xlink:href="#DejaVuSans-65" x="362.654297"/>
     <use xlink:href="#DejaVuSans-64" x="424.177734"/>
     <use xlink:href="#DejaVuSans-20" x="487.654297"/>
     <use xlink:href="#DejaVuSans-76" x="519.441406"/>
     <use xlink:href="#DejaVuSans-61" x="578.621094"/>
     <use xlink:href="#DejaVuSans-72" x="639.900391"/>
     <use xlink:href="#DejaVuSans-69" x="681.013672"/>
     <use xlink:href="#DejaVuSans-61" x="708.796875"/>
     <use xlink:href="#DejaVuSans-6e" x="770.076172"/>
     <use xlink:href="#DejaVuSans-63" x="833.455078"/>
     <use xlink:href="#DejaVuSans-65" x="888.435547"/>
    </g>
   </g>
  </g>
 </g>
 <defs>
  <clipPath id="pb4fe753488">
   <rect x="394.363636" y="86.4" width="253.636364" height="247.090909"/>
  </clipPath>
  <clipPath id="p905c1599e5">
   <rect x="394.363636" y="382.909091" width="253.636364" height="247.090909"/>
  </clipPath>
 </defs>
</svg>
