<?xml version="1.0" encoding="utf-8" standalone="no"?>
<!DOCTYPE svg PUBLIC "-//W3C//DTD SVG 1.1//EN"
  "http://www.w3.org/Graphics/SVG/1.1/DTD/svg11.dtd">
<svg xmlns:xlink="http://www.w3.org/1999/xlink" width="720pt" height="576pt" viewBox="0 0 720 576" xmlns="http://www.w3.org/2000/svg" version="1.1">
 <metadata>
  <rdf:RDF xmlns:dc="http://purl.org/dc/elements/1.1/" xmlns:cc="http://creativecommons.org/ns#" xmlns:rdf="http://www.w3.org/1999/02/22-rdf-syntax-ns#">
   <cc:Work>
    <dc:type rdf:resource="http://purl.org/dc/dcmitype/StillImage"/>
    <dc:date>2023-06-14T13:26:48.929569</dc:date>
    <dc:format>image/svg+xml</dc:format>
    <dc:creator>
     <cc:Agent>
      <dc:title>Matplotlib v3.5.2, https://matplotlib.org/</dc:title>
     </cc:Agent>
    </dc:creator>
   </cc:Work>
  </rdf:RDF>
 </metadata>
 <defs>
  <style type="text/css">*{stroke-linejoin: round; stroke-linecap: butt}</style>
 </defs>
 <g id="figure_1">
  <g id="patch_1">
   <path d="M 0 576 
L 720 576 
L 720 0 
L 0 0 
z
" style="fill: #ffffff"/>
  </g>
  <g id="axes_1">
   <g id="patch_2">
    <path d="M 90 504 
L 648 504 
L 648 69.12 
L 90 69.12 
z
" style="fill: #ffffff"/>
   </g>
   <g id="matplotlib.axis_1">
    <g id="xtick_1">
     <g id="line2d_1">
      <defs>
       <path id="me1888a5b20" d="M 0 0 
L 0 3.5 
" style="stroke: #000000; stroke-width: 0.8"/>
      </defs>
      <g>
       <use xlink:href="#me1888a5b20" x="115.299828" y="504" style="stroke: #000000; stroke-width: 0.8"/>
      </g>
     </g>
     <g id="text_1">
      <!-- −1 -->
      <g transform="translate(107.928735 518.598438)scale(0.1 -0.1)">
       <defs>
        <path id="DejaVuSans-2212" d="M 678 2272 
L 4684 2272 
L 4684 1741 
L 678 1741 
L 678 2272 
z
" transform="scale(0.015625)"/>
        <path id="DejaVuSans-31" d="M 794 531 
L 1825 531 
L 1825 4091 
L 703 3866 
L 703 4441 
L 1819 4666 
L 2450 4666 
L 2450 531 
L 3481 531 
L 3481 0 
L 794 0 
L 794 531 
z
" transform="scale(0.015625)"/>
       </defs>
       <use xlink:href="#DejaVuSans-2212"/>
       <use xlink:href="#DejaVuSans-31" x="83.789062"/>
      </g>
     </g>
    </g>
    <g id="xtick_2">
     <g id="line2d_2">
      <g>
       <use xlink:href="#me1888a5b20" x="179.107719" y="504" style="stroke: #000000; stroke-width: 0.8"/>
      </g>
     </g>
     <g id="text_2">
      <!-- 0 -->
      <g transform="translate(175.926469 518.598438)scale(0.1 -0.1)">
       <defs>
        <path id="DejaVuSans-30" d="M 2034 4250 
Q 1547 4250 1301 3770 
Q 1056 3291 1056 2328 
Q 1056 1369 1301 889 
Q 1547 409 2034 409 
Q 2525 409 2770 889 
Q 3016 1369 3016 2328 
Q 3016 3291 2770 3770 
Q 2525 4250 2034 4250 
z
M 2034 4750 
Q 2819 4750 3233 4129 
Q 3647 3509 3647 2328 
Q 3647 1150 3233 529 
Q 2819 -91 2034 -91 
Q 1250 -91 836 529 
Q 422 1150 422 2328 
Q 422 3509 836 4129 
Q 1250 4750 2034 4750 
z
" transform="scale(0.015625)"/>
       </defs>
       <use xlink:href="#DejaVuSans-30"/>
      </g>
     </g>
    </g>
    <g id="xtick_3">
     <g id="line2d_3">
      <g>
       <use xlink:href="#me1888a5b20" x="242.915609" y="504" style="stroke: #000000; stroke-width: 0.8"/>
      </g>
     </g>
     <g id="text_3">
      <!-- 1 -->
      <g transform="translate(239.734359 518.598438)scale(0.1 -0.1)">
       <use xlink:href="#DejaVuSans-31"/>
      </g>
     </g>
    </g>
    <g id="xtick_4">
     <g id="line2d_4">
      <g>
       <use xlink:href="#me1888a5b20" x="306.723499" y="504" style="stroke: #000000; stroke-width: 0.8"/>
      </g>
     </g>
     <g id="text_4">
      <!-- 2 -->
      <g transform="translate(303.542249 518.598438)scale(0.1 -0.1)">
       <defs>
        <path id="DejaVuSans-32" d="M 1228 531 
L 3431 531 
L 3431 0 
L 469 0 
L 469 531 
Q 828 903 1448 1529 
Q 2069 2156 2228 2338 
Q 2531 2678 2651 2914 
Q 2772 3150 2772 3378 
Q 2772 3750 2511 3984 
Q 2250 4219 1831 4219 
Q 1534 4219 1204 4116 
Q 875 4013 500 3803 
L 500 4441 
Q 881 4594 1212 4672 
Q 1544 4750 1819 4750 
Q 2544 4750 2975 4387 
Q 3406 4025 3406 3419 
Q 3406 3131 3298 2873 
Q 3191 2616 2906 2266 
Q 2828 2175 2409 1742 
Q 1991 1309 1228 531 
z
" transform="scale(0.015625)"/>
       </defs>
       <use xlink:href="#DejaVuSans-32"/>
      </g>
     </g>
    </g>
    <g id="xtick_5">
     <g id="line2d_5">
      <g>
       <use xlink:href="#me1888a5b20" x="370.531389" y="504" style="stroke: #000000; stroke-width: 0.8"/>
      </g>
     </g>
     <g id="text_5">
      <!-- 3 -->
      <g transform="translate(367.350139 518.598438)scale(0.1 -0.1)">
       <defs>
        <path id="DejaVuSans-33" d="M 2597 2516 
Q 3050 2419 3304 2112 
Q 3559 1806 3559 1356 
Q 3559 666 3084 287 
Q 2609 -91 1734 -91 
Q 1441 -91 1130 -33 
Q 819 25 488 141 
L 488 750 
Q 750 597 1062 519 
Q 1375 441 1716 441 
Q 2309 441 2620 675 
Q 2931 909 2931 1356 
Q 2931 1769 2642 2001 
Q 2353 2234 1838 2234 
L 1294 2234 
L 1294 2753 
L 1863 2753 
Q 2328 2753 2575 2939 
Q 2822 3125 2822 3475 
Q 2822 3834 2567 4026 
Q 2313 4219 1838 4219 
Q 1578 4219 1281 4162 
Q 984 4106 628 3988 
L 628 4550 
Q 988 4650 1302 4700 
Q 1616 4750 1894 4750 
Q 2613 4750 3031 4423 
Q 3450 4097 3450 3541 
Q 3450 3153 3228 2886 
Q 3006 2619 2597 2516 
z
" transform="scale(0.015625)"/>
       </defs>
       <use xlink:href="#DejaVuSans-33"/>
      </g>
     </g>
    </g>
    <g id="xtick_6">
     <g id="line2d_6">
      <g>
       <use xlink:href="#me1888a5b20" x="434.33928" y="504" style="stroke: #000000; stroke-width: 0.8"/>
      </g>
     </g>
     <g id="text_6">
      <!-- 4 -->
      <g transform="translate(431.15803 518.598438)scale(0.1 -0.1)">
       <defs>
        <path id="DejaVuSans-34" d="M 2419 4116 
L 825 1625 
L 2419 1625 
L 2419 4116 
z
M 2253 4666 
L 3047 4666 
L 3047 1625 
L 3713 1625 
L 3713 1100 
L 3047 1100 
L 3047 0 
L 2419 0 
L 2419 1100 
L 313 1100 
L 313 1709 
L 2253 4666 
z
" transform="scale(0.015625)"/>
       </defs>
       <use xlink:href="#DejaVuSans-34"/>
      </g>
     </g>
    </g>
    <g id="xtick_7">
     <g id="line2d_7">
      <g>
       <use xlink:href="#me1888a5b20" x="498.14717" y="504" style="stroke: #000000; stroke-width: 0.8"/>
      </g>
     </g>
     <g id="text_7">
      <!-- 5 -->
      <g transform="translate(494.96592 518.598438)scale(0.1 -0.1)">
       <defs>
        <path id="DejaVuSans-35" d="M 691 4666 
L 3169 4666 
L 3169 4134 
L 1269 4134 
L 1269 2991 
Q 1406 3038 1543 3061 
Q 1681 3084 1819 3084 
Q 2600 3084 3056 2656 
Q 3513 2228 3513 1497 
Q 3513 744 3044 326 
Q 2575 -91 1722 -91 
Q 1428 -91 1123 -41 
Q 819 9 494 109 
L 494 744 
Q 775 591 1075 516 
Q 1375 441 1709 441 
Q 2250 441 2565 725 
Q 2881 1009 2881 1497 
Q 2881 1984 2565 2268 
Q 2250 2553 1709 2553 
Q 1456 2553 1204 2497 
Q 953 2441 691 2322 
L 691 4666 
z
" transform="scale(0.015625)"/>
       </defs>
       <use xlink:href="#DejaVuSans-35"/>
      </g>
     </g>
    </g>
    <g id="xtick_8">
     <g id="line2d_8">
      <g>
       <use xlink:href="#me1888a5b20" x="561.95506" y="504" style="stroke: #000000; stroke-width: 0.8"/>
      </g>
     </g>
     <g id="text_8">
      <!-- 6 -->
      <g transform="translate(558.77381 518.598438)scale(0.1 -0.1)">
       <defs>
        <path id="DejaVuSans-36" d="M 2113 2584 
Q 1688 2584 1439 2293 
Q 1191 2003 1191 1497 
Q 1191 994 1439 701 
Q 1688 409 2113 409 
Q 2538 409 2786 701 
Q 3034 994 3034 1497 
Q 3034 2003 2786 2293 
Q 2538 2584 2113 2584 
z
M 3366 4563 
L 3366 3988 
Q 3128 4100 2886 4159 
Q 2644 4219 2406 4219 
Q 1781 4219 1451 3797 
Q 1122 3375 1075 2522 
Q 1259 2794 1537 2939 
Q 1816 3084 2150 3084 
Q 2853 3084 3261 2657 
Q 3669 2231 3669 1497 
Q 3669 778 3244 343 
Q 2819 -91 2113 -91 
Q 1303 -91 875 529 
Q 447 1150 447 2328 
Q 447 3434 972 4092 
Q 1497 4750 2381 4750 
Q 2619 4750 2861 4703 
Q 3103 4656 3366 4563 
z
" transform="scale(0.015625)"/>
       </defs>
       <use xlink:href="#DejaVuSans-36"/>
      </g>
     </g>
    </g>
    <g id="xtick_9">
     <g id="line2d_9">
      <g>
       <use xlink:href="#me1888a5b20" x="625.76295" y="504" style="stroke: #000000; stroke-width: 0.8"/>
      </g>
     </g>
     <g id="text_9">
      <!-- 7 -->
      <g transform="translate(622.5817 518.598438)scale(0.1 -0.1)">
       <defs>
        <path id="DejaVuSans-37" d="M 525 4666 
L 3525 4666 
L 3525 4397 
L 1831 0 
L 1172 0 
L 2766 4134 
L 525 4134 
L 525 4666 
z
" transform="scale(0.015625)"/>
       </defs>
       <use xlink:href="#DejaVuSans-37"/>
      </g>
     </g>
    </g>
   </g>
   <g id="matplotlib.axis_2">
    <g id="ytick_1">
     <g id="line2d_10">
      <defs>
       <path id="m8ebf24f2c4" d="M 0 0 
L -3.5 0 
" style="stroke: #000000; stroke-width: 0.8"/>
      </defs>
      <g>
       <use xlink:href="#m8ebf24f2c4" x="90" y="476.497114" style="stroke: #000000; stroke-width: 0.8"/>
      </g>
     </g>
     <g id="text_10">
      <!-- 0 -->
      <g transform="translate(76.6375 480.296333)scale(0.1 -0.1)">
       <use xlink:href="#DejaVuSans-30"/>
      </g>
     </g>
    </g>
    <g id="ytick_2">
     <g id="line2d_11">
      <g>
       <use xlink:href="#m8ebf24f2c4" x="90" y="407.433335" style="stroke: #000000; stroke-width: 0.8"/>
      </g>
     </g>
     <g id="text_11">
      <!-- 2 -->
      <g transform="translate(76.6375 411.232554)scale(0.1 -0.1)">
       <use xlink:href="#DejaVuSans-32"/>
      </g>
     </g>
    </g>
    <g id="ytick_3">
     <g id="line2d_12">
      <g>
       <use xlink:href="#m8ebf24f2c4" x="90" y="338.369557" style="stroke: #000000; stroke-width: 0.8"/>
      </g>
     </g>
     <g id="text_12">
      <!-- 4 -->
      <g transform="translate(76.6375 342.168776)scale(0.1 -0.1)">
       <use xlink:href="#DejaVuSans-34"/>
      </g>
     </g>
    </g>
    <g id="ytick_4">
     <g id="line2d_13">
      <g>
       <use xlink:href="#m8ebf24f2c4" x="90" y="269.305779" style="stroke: #000000; stroke-width: 0.8"/>
      </g>
     </g>
     <g id="text_13">
      <!-- 6 -->
      <g transform="translate(76.6375 273.104997)scale(0.1 -0.1)">
       <use xlink:href="#DejaVuSans-36"/>
      </g>
     </g>
    </g>
    <g id="ytick_5">
     <g id="line2d_14">
      <g>
       <use xlink:href="#m8ebf24f2c4" x="90" y="200.242" style="stroke: #000000; stroke-width: 0.8"/>
      </g>
     </g>
     <g id="text_14">
      <!-- 8 -->
      <g transform="translate(76.6375 204.041219)scale(0.1 -0.1)">
       <defs>
        <path id="DejaVuSans-38" d="M 2034 2216 
Q 1584 2216 1326 1975 
Q 1069 1734 1069 1313 
Q 1069 891 1326 650 
Q 1584 409 2034 409 
Q 2484 409 2743 651 
Q 3003 894 3003 1313 
Q 3003 1734 2745 1975 
Q 2488 2216 2034 2216 
z
M 1403 2484 
Q 997 2584 770 2862 
Q 544 3141 544 3541 
Q 544 4100 942 4425 
Q 1341 4750 2034 4750 
Q 2731 4750 3128 4425 
Q 3525 4100 3525 3541 
Q 3525 3141 3298 2862 
Q 3072 2584 2669 2484 
Q 3125 2378 3379 2068 
Q 3634 1759 3634 1313 
Q 3634 634 3220 271 
Q 2806 -91 2034 -91 
Q 1263 -91 848 271 
Q 434 634 434 1313 
Q 434 1759 690 2068 
Q 947 2378 1403 2484 
z
M 1172 3481 
Q 1172 3119 1398 2916 
Q 1625 2713 2034 2713 
Q 2441 2713 2670 2916 
Q 2900 3119 2900 3481 
Q 2900 3844 2670 4047 
Q 2441 4250 2034 4250 
Q 1625 4250 1398 4047 
Q 1172 3844 1172 3481 
z
" transform="scale(0.015625)"/>
       </defs>
       <use xlink:href="#DejaVuSans-38"/>
      </g>
     </g>
    </g>
    <g id="ytick_6">
     <g id="line2d_15">
      <g>
       <use xlink:href="#m8ebf24f2c4" x="90" y="131.178222" style="stroke: #000000; stroke-width: 0.8"/>
      </g>
     </g>
     <g id="text_15">
      <!-- 10 -->
      <g transform="translate(70.275 134.97744)scale(0.1 -0.1)">
       <use xlink:href="#DejaVuSans-31"/>
       <use xlink:href="#DejaVuSans-30" x="63.623047"/>
      </g>
     </g>
    </g>
   </g>
   <g id="line2d_16">
    <path d="M 115.363636 456.06796 
L 118.554031 456.297358 
L 121.744425 456.731065 
L 124.93482 457.376448 
L 128.125214 458.272573 
L 131.315609 459.422123 
L 140.886792 463.461816 
L 144.077187 464.548736 
L 156.838765 467.993185 
L 160.02916 468.753085 
L 163.219554 469.190757 
L 166.409949 469.098908 
L 169.600343 468.192503 
L 172.790738 466.166013 
L 175.981132 462.779128 
L 179.171527 457.805489 
L 182.361921 451.03142 
L 185.552316 442.603859 
L 188.74271 433.452495 
L 191.933105 425.132132 
L 195.123499 419.050145 
L 198.313894 415.763102 
L 201.504288 414.835588 
L 207.885077 415.639965 
L 211.075472 415.350702 
L 214.265866 413.888487 
L 217.456261 411.056056 
L 220.646655 406.762484 
L 223.83705 401.039979 
L 227.027444 394.075787 
L 230.217839 386.183532 
L 233.408233 377.692825 
L 236.598628 368.786677 
L 239.789022 359.425566 
L 242.979417 349.473859 
L 246.169811 338.895972 
L 249.360206 327.758305 
L 252.5506 316.042383 
L 255.740995 303.59789 
L 258.931389 290.372747 
L 268.502573 249.114591 
L 271.692967 236.026081 
L 274.883362 223.700121 
L 278.073756 212.500767 
L 281.264151 202.966435 
L 284.454545 195.639725 
L 287.64494 190.692574 
L 290.835334 187.6409 
L 294.025729 185.482554 
L 297.216123 183.184379 
L 300.406518 180.053471 
L 303.596913 175.70283 
L 306.787307 169.888071 
L 309.977702 162.594859 
L 313.168096 154.222575 
L 319.548885 136.864659 
L 332.310463 103.925441 
L 335.500858 96.588226 
L 338.691252 91.233808 
L 341.881647 88.887273 
L 345.072041 89.996802 
L 348.262436 94.251958 
L 351.45283 100.826072 
L 354.643225 108.887537 
L 357.833619 118.008214 
L 361.024014 128.189745 
L 364.214408 139.57056 
L 367.404803 152.141595 
L 370.595197 165.708799 
L 376.975986 194.745423 
L 383.356775 224.384818 
L 389.737564 252.672472 
L 392.927959 265.972167 
L 396.118353 278.66932 
L 399.308748 290.723919 
L 402.499142 301.941808 
L 405.689537 311.994282 
L 408.879931 320.633375 
L 412.070326 327.933307 
L 415.26072 334.328766 
L 424.831904 352.366987 
L 428.022298 357.976789 
L 431.212693 362.904674 
L 434.403087 366.956381 
L 437.593482 370.143785 
L 440.783877 372.696917 
L 443.974271 375.008292 
L 447.164666 377.499115 
L 450.35506 380.439891 
L 453.545455 383.819313 
L 459.926244 390.766612 
L 463.116638 393.79702 
L 466.307033 396.416024 
L 469.497427 398.611032 
L 472.687822 400.310031 
L 475.878216 401.441255 
L 479.068611 402.0251 
L 482.259005 402.149372 
L 485.4494 401.902323 
L 495.020583 400.428934 
L 501.401372 400.034266 
L 510.972556 399.384297 
L 514.16295 399.437163 
L 517.353345 399.92593 
L 520.543739 400.889296 
L 526.924528 403.602991 
L 533.305317 406.39082 
L 536.495712 407.953871 
L 539.686106 409.771933 
L 552.447684 417.895023 
L 555.638079 419.667701 
L 558.828473 421.220189 
L 562.018868 422.555623 
L 565.209262 423.718031 
L 568.399657 424.720765 
L 571.590051 425.524271 
L 577.97084 426.889263 
L 581.161235 427.974283 
L 584.35163 429.469951 
L 587.542024 431.11347 
L 590.732419 432.590499 
L 593.922813 433.804188 
L 600.303602 435.972516 
L 603.493997 437.196888 
L 609.874786 439.896628 
L 613.06518 440.956039 
L 616.255575 441.520349 
L 619.445969 441.634742 
L 622.636364 441.568349 
L 622.636364 441.568349 
" clip-path="url(#p106fde4e81)" style="fill: none; stroke: #9467bd; stroke-width: 1.5; stroke-linecap: square"/>
   </g>
   <g id="line2d_17">
    <path d="M 115.363636 450.416278 
L 118.554031 450.794841 
L 121.744425 451.423782 
L 124.93482 452.18915 
L 128.125214 453.06907 
L 134.506003 455.190974 
L 140.886792 457.444458 
L 144.077187 458.34991 
L 160.02916 461.802283 
L 163.219554 462.003633 
L 166.409949 461.107882 
L 169.600343 458.042366 
L 172.790738 451.605098 
L 175.981132 441.420031 
L 179.171527 428.918351 
L 182.361921 417.212265 
L 185.552316 409.502679 
L 188.74271 407.228729 
L 191.933105 409.563798 
L 195.123499 414.458079 
L 198.313894 420.061446 
L 201.504288 425.433939 
L 204.694683 430.372669 
L 207.885077 434.871898 
L 211.075472 438.799513 
L 214.265866 441.99205 
L 217.456261 444.528708 
L 227.027444 451.416931 
L 230.217839 453.316809 
L 233.408233 454.503799 
L 242.979417 456.457741 
L 246.169811 457.677495 
L 255.740995 462.006075 
L 258.931389 463.634967 
L 262.121784 465.599066 
L 265.312178 467.976103 
L 268.502573 470.720274 
L 274.883362 476.463301 
L 278.073756 478.907337 
L 281.264151 480.725092 
L 284.454545 481.73734 
L 287.64494 481.974178 
L 290.835334 481.732916 
L 297.216123 481.010054 
L 300.406518 480.512356 
L 303.596913 479.737644 
L 313.168096 476.801491 
L 316.358491 476.033314 
L 319.548885 475.391331 
L 322.73928 474.862783 
L 325.929674 474.550567 
L 329.120069 474.704109 
L 332.310463 475.499382 
L 338.691252 477.883086 
L 341.881647 478.537536 
L 348.262436 478.920876 
L 351.45283 479.466028 
L 354.643225 480.536749 
L 361.024014 483.345224 
L 364.214408 484.205733 
L 367.404803 484.232727 
L 370.595197 483.43964 
L 376.975986 480.731929 
L 383.356775 477.988547 
L 386.54717 476.263261 
L 392.927959 472.059272 
L 396.118353 470.313492 
L 399.308748 469.133316 
L 402.499142 468.488273 
L 405.689537 468.289421 
L 412.070326 468.471492 
L 415.26072 468.145621 
L 418.451115 467.178734 
L 424.831904 464.11415 
L 428.022298 462.895343 
L 431.212693 462.294722 
L 434.403087 462.32887 
L 437.593482 462.901884 
L 440.783877 463.909937 
L 447.164666 466.356706 
L 450.35506 466.976748 
L 453.545455 466.731402 
L 456.735849 465.652228 
L 463.116638 462.46566 
L 466.307033 461.252226 
L 469.497427 460.682623 
L 472.687822 460.801692 
L 475.878216 461.487087 
L 482.259005 463.423868 
L 485.4494 464.065003 
L 495.020583 465.159114 
L 498.210978 466.109518 
L 501.401372 467.565802 
L 504.591767 469.430943 
L 510.972556 473.385168 
L 514.16295 475.002959 
L 517.353345 476.292702 
L 520.543739 477.297479 
L 523.734134 478.069255 
L 536.495712 480.726101 
L 539.686106 481.021922 
L 549.25729 481.381407 
L 565.209262 482.324783 
L 568.399657 482.232285 
L 571.590051 481.798911 
L 574.780446 480.942071 
L 577.97084 479.549146 
L 581.161235 477.613364 
L 584.35163 475.412594 
L 587.542024 473.441107 
L 590.732419 472.064786 
L 593.922813 471.22694 
L 597.113208 470.515507 
L 600.303602 469.525709 
L 603.493997 468.161625 
L 606.684391 466.650252 
L 609.874786 465.345684 
L 613.06518 464.510197 
L 616.255575 464.185396 
L 622.636364 464.299135 
L 622.636364 464.299135 
" clip-path="url(#p106fde4e81)" style="fill: none; stroke: #1f77b4; stroke-width: 1.5; stroke-linecap: square"/>
   </g>
   <g id="line2d_18">
    <path d="M 115.363636 455.928211 
L 118.554031 456.161298 
L 121.744425 456.599833 
L 124.93482 457.248182 
L 128.125214 458.143907 
L 131.315609 459.28993 
L 140.886792 463.313025 
L 144.077187 464.395459 
L 156.838765 467.806554 
L 160.02916 468.483259 
L 163.219554 468.580934 
L 166.409949 467.380615 
L 169.600343 463.639652 
L 172.790738 455.960655 
L 175.981132 443.893673 
L 182.361921 414.549445 
L 185.552316 403.95469 
L 188.74271 398.835604 
L 191.933105 398.671648 
L 195.123499 401.7126 
L 201.504288 410.47656 
L 204.694683 413.93531 
L 207.885077 416.020187 
L 211.075472 416.552611 
L 214.265866 415.519363 
L 217.456261 413.007552 
L 220.646655 409.191951 
L 223.83705 404.247064 
L 227.027444 398.223822 
L 230.217839 391.131245 
L 233.408233 383.164265 
L 239.789022 366.06193 
L 255.740995 322.051361 
L 258.931389 312.550747 
L 268.502573 282.958438 
L 271.692967 273.801889 
L 274.883362 265.304164 
L 278.073756 257.776118 
L 281.264151 251.597686 
L 284.454545 246.967321 
L 287.64494 243.729143 
L 294.025729 238.895689 
L 297.216123 235.545925 
L 300.406518 230.738153 
L 303.596913 224.413966 
L 306.787307 216.826602 
L 309.977702 208.337506 
L 325.929674 163.549363 
L 329.120069 155.539438 
L 332.310463 148.798894 
L 335.500858 143.910664 
L 338.691252 141.309469 
L 341.881647 141.317305 
L 345.072041 144.137415 
L 348.262436 149.785396 
L 351.45283 158.042688 
L 354.643225 168.428959 
L 357.833619 180.270105 
L 364.214408 205.97836 
L 370.595197 232.198191 
L 376.975986 257.349121 
L 380.166381 269.196387 
L 383.356775 280.238015 
L 386.54717 290.27757 
L 389.737564 299.409631 
L 396.118353 316.271729 
L 402.499142 332.312931 
L 405.689537 339.866884 
L 408.879931 346.741346 
L 412.070326 352.484483 
L 415.26072 356.858745 
L 418.451115 360.126094 
L 424.831904 365.834937 
L 428.022298 369.097976 
L 434.403087 376.277738 
L 440.783877 383.527224 
L 443.974271 386.780693 
L 447.164666 389.5673 
L 450.35506 391.93547 
L 456.735849 396.044267 
L 466.307033 401.86161 
L 475.878216 408.364803 
L 479.068611 410.042216 
L 482.259005 411.357822 
L 485.4494 412.39354 
L 491.830189 413.956468 
L 495.020583 414.706052 
L 498.210978 415.696359 
L 501.401372 417.121213 
L 504.591767 418.994165 
L 510.972556 423.078307 
L 514.16295 424.725765 
L 517.353345 426.052244 
L 523.734134 428.266812 
L 530.114923 430.295621 
L 533.305317 431.590398 
L 536.495712 433.217646 
L 542.876501 436.996662 
L 552.447684 442.793032 
L 555.638079 444.474925 
L 558.828473 445.943611 
L 562.018868 447.147703 
L 565.209262 448.007374 
L 568.399657 448.510755 
L 571.590051 448.755886 
L 584.35163 449.239272 
L 587.542024 449.579955 
L 593.922813 450.612353 
L 600.303602 451.585205 
L 609.874786 452.479952 
L 619.445969 454.170511 
L 622.636364 454.44459 
L 622.636364 454.44459 
" clip-path="url(#p106fde4e81)" style="fill: none; stroke: #d62728; stroke-width: 1.5; stroke-linecap: square"/>
   </g>
   <g id="line2d_19">
    <path d="M 115.363636 451.316688 
L 118.554031 451.671487 
L 121.744425 452.269324 
L 124.93482 453.015576 
L 128.125214 453.898078 
L 131.315609 454.927713 
L 140.886792 458.403126 
L 144.077187 459.33749 
L 160.02916 462.996409 
L 163.219554 463.530576 
L 166.409949 463.722323 
L 169.600343 463.446852 
L 172.790738 462.580494 
L 175.981132 460.953593 
L 179.171527 458.243422 
L 182.361921 454.074375 
L 185.552316 448.45773 
L 188.74271 442.139861 
L 191.933105 436.352122 
L 195.123499 432.164942 
L 198.313894 430.095737 
L 201.504288 430.141686 
L 204.694683 431.905477 
L 207.885077 434.693401 
L 211.075472 437.727569 
L 214.265866 440.436132 
L 217.456261 442.61771 
L 220.646655 444.384776 
L 223.83705 445.941491 
L 227.027444 447.356239 
L 230.217839 448.506748 
L 233.408233 449.210836 
L 236.598628 449.402851 
L 239.789022 449.210375 
L 242.979417 448.836588 
L 246.169811 448.307006 
L 249.360206 447.387399 
L 252.5506 445.865264 
L 258.931389 441.840556 
L 262.121784 440.164884 
L 265.312178 439.075392 
L 268.502573 438.654722 
L 271.692967 438.79757 
L 274.883362 439.114775 
L 278.073756 439.066252 
L 281.264151 438.330205 
L 287.64494 435.685083 
L 290.835334 434.771423 
L 294.025729 434.632555 
L 297.216123 435.308438 
L 303.596913 437.850735 
L 306.787307 438.799769 
L 309.977702 439.177894 
L 319.548885 439.066414 
L 325.929674 439.856901 
L 329.120069 439.974088 
L 332.310463 439.505031 
L 335.500858 438.374204 
L 338.691252 436.725118 
L 341.881647 434.878476 
L 345.072041 433.187958 
L 361.024014 426.076307 
L 364.214408 424.909891 
L 367.404803 423.937104 
L 370.595197 423.230408 
L 373.785592 423.032771 
L 376.975986 423.574481 
L 380.166381 424.920152 
L 383.356775 426.937179 
L 392.927959 434.279086 
L 402.499142 441.855136 
L 405.689537 444.01908 
L 408.879931 445.769807 
L 415.26072 448.935697 
L 421.641509 452.313784 
L 424.831904 453.675186 
L 428.022298 454.695029 
L 431.212693 455.397987 
L 434.403087 455.741917 
L 437.593482 455.714526 
L 440.783877 455.568314 
L 443.974271 455.753551 
L 447.164666 456.504919 
L 450.35506 457.587217 
L 453.545455 458.500942 
L 456.735849 458.877014 
L 459.926244 458.669985 
L 463.116638 458.071859 
L 469.497427 456.612532 
L 472.687822 456.06909 
L 475.878216 455.767881 
L 479.068611 455.628992 
L 482.259005 455.369715 
L 485.4494 454.697743 
L 491.830189 452.520487 
L 495.020583 451.763247 
L 498.210978 451.400351 
L 504.591767 450.880766 
L 510.972556 450.109549 
L 514.16295 450.104366 
L 517.353345 450.577025 
L 520.543739 451.42113 
L 530.114923 454.336894 
L 533.305317 455.070279 
L 536.495712 455.529055 
L 542.876501 455.868477 
L 549.25729 456.24117 
L 555.638079 456.784911 
L 558.828473 457.167203 
L 568.399657 458.730809 
L 571.590051 458.824784 
L 574.780446 458.394363 
L 577.97084 457.529837 
L 584.35163 455.539512 
L 587.542024 454.843047 
L 590.732419 454.44215 
L 597.113208 454.036139 
L 603.493997 453.236506 
L 609.874786 452.481405 
L 622.636364 451.231061 
L 622.636364 451.231061 
" clip-path="url(#p106fde4e81)" style="fill: none; stroke: #bcbd22; stroke-width: 1.5; stroke-linecap: square"/>
   </g>
   <g id="patch_3">
    <path d="M 90 504 
L 90 69.12 
" style="fill: none; stroke: #000000; stroke-width: 0.8; stroke-linejoin: miter; stroke-linecap: square"/>
   </g>
   <g id="patch_4">
    <path d="M 648 504 
L 648 69.12 
" style="fill: none; stroke: #000000; stroke-width: 0.8; stroke-linejoin: miter; stroke-linecap: square"/>
   </g>
   <g id="patch_5">
    <path d="M 90 504 
L 648 504 
" style="fill: none; stroke: #000000; stroke-width: 0.8; stroke-linejoin: miter; stroke-linecap: square"/>
   </g>
   <g id="patch_6">
    <path d="M 90 69.12 
L 648 69.12 
" style="fill: none; stroke: #000000; stroke-width: 0.8; stroke-linejoin: miter; stroke-linecap: square"/>
   </g>
  </g>
 </g>
 <defs>
  <clipPath id="p106fde4e81">
   <rect x="90" y="69.12" width="558" height="434.88"/>
  </clipPath>
 </defs>
</svg>
