<?xml version="1.0" encoding="utf-8" standalone="no"?>
<!DOCTYPE svg PUBLIC "-//W3C//DTD SVG 1.1//EN"
  "http://www.w3.org/Graphics/SVG/1.1/DTD/svg11.dtd">
<svg xmlns:xlink="http://www.w3.org/1999/xlink" width="720pt" height="576pt" viewBox="0 0 720 576" xmlns="http://www.w3.org/2000/svg" version="1.1">
 <metadata>
  <rdf:RDF xmlns:dc="http://purl.org/dc/elements/1.1/" xmlns:cc="http://creativecommons.org/ns#" xmlns:rdf="http://www.w3.org/1999/02/22-rdf-syntax-ns#">
   <cc:Work>
    <dc:type rdf:resource="http://purl.org/dc/dcmitype/StillImage"/>
    <dc:date>2023-06-14T13:26:48.891594</dc:date>
    <dc:format>image/svg+xml</dc:format>
    <dc:creator>
     <cc:Agent>
      <dc:title>Matplotlib v3.5.2, https://matplotlib.org/</dc:title>
     </cc:Agent>
    </dc:creator>
   </cc:Work>
  </rdf:RDF>
 </metadata>
 <defs>
  <style type="text/css">*{stroke-linejoin: round; stroke-linecap: butt}</style>
 </defs>
 <g id="figure_1">
  <g id="patch_1">
   <path d="M 0 576 
L 720 576 
L 720 0 
L 0 0 
z
" style="fill: #ffffff"/>
  </g>
  <g id="axes_1">
   <g id="patch_2">
    <path d="M 90 504 
L 648 504 
L 648 69.12 
L 90 69.12 
z
" style="fill: #ffffff"/>
   </g>
   <g id="matplotlib.axis_1">
    <g id="xtick_1">
     <g id="line2d_1">
      <defs>
       <path id="m6aac8c9ef1" d="M 0 0 
L 0 3.5 
" style="stroke: #000000; stroke-width: 0.8"/>
      </defs>
      <g>
       <use xlink:href="#m6aac8c9ef1" x="115.299828" y="504" style="stroke: #000000; stroke-width: 0.8"/>
      </g>
     </g>
     <g id="text_1">
      <!-- −1 -->
      <g transform="translate(107.928735 518.598438)scale(0.1 -0.1)">
       <defs>
        <path id="DejaVuSans-2212" d="M 678 2272 
L 4684 2272 
L 4684 1741 
L 678 1741 
L 678 2272 
z
" transform="scale(0.015625)"/>
        <path id="DejaVuSans-31" d="M 794 531 
L 1825 531 
L 1825 4091 
L 703 3866 
L 703 4441 
L 1819 4666 
L 2450 4666 
L 2450 531 
L 3481 531 
L 3481 0 
L 794 0 
L 794 531 
z
" transform="scale(0.015625)"/>
       </defs>
       <use xlink:href="#DejaVuSans-2212"/>
       <use xlink:href="#DejaVuSans-31" x="83.789062"/>
      </g>
     </g>
    </g>
    <g id="xtick_2">
     <g id="line2d_2">
      <g>
       <use xlink:href="#m6aac8c9ef1" x="179.107719" y="504" style="stroke: #000000; stroke-width: 0.8"/>
      </g>
     </g>
     <g id="text_2">
      <!-- 0 -->
      <g transform="translate(175.926469 518.598438)scale(0.1 -0.1)">
       <defs>
        <path id="DejaVuSans-30" d="M 2034 4250 
Q 1547 4250 1301 3770 
Q 1056 3291 1056 2328 
Q 1056 1369 1301 889 
Q 1547 409 2034 409 
Q 2525 409 2770 889 
Q 3016 1369 3016 2328 
Q 3016 3291 2770 3770 
Q 2525 4250 2034 4250 
z
M 2034 4750 
Q 2819 4750 3233 4129 
Q 3647 3509 3647 2328 
Q 3647 1150 3233 529 
Q 2819 -91 2034 -91 
Q 1250 -91 836 529 
Q 422 1150 422 2328 
Q 422 3509 836 4129 
Q 1250 4750 2034 4750 
z
" transform="scale(0.015625)"/>
       </defs>
       <use xlink:href="#DejaVuSans-30"/>
      </g>
     </g>
    </g>
    <g id="xtick_3">
     <g id="line2d_3">
      <g>
       <use xlink:href="#m6aac8c9ef1" x="242.915609" y="504" style="stroke: #000000; stroke-width: 0.8"/>
      </g>
     </g>
     <g id="text_3">
      <!-- 1 -->
      <g transform="translate(239.734359 518.598438)scale(0.1 -0.1)">
       <use xlink:href="#DejaVuSans-31"/>
      </g>
     </g>
    </g>
    <g id="xtick_4">
     <g id="line2d_4">
      <g>
       <use xlink:href="#m6aac8c9ef1" x="306.723499" y="504" style="stroke: #000000; stroke-width: 0.8"/>
      </g>
     </g>
     <g id="text_4">
      <!-- 2 -->
      <g transform="translate(303.542249 518.598438)scale(0.1 -0.1)">
       <defs>
        <path id="DejaVuSans-32" d="M 1228 531 
L 3431 531 
L 3431 0 
L 469 0 
L 469 531 
Q 828 903 1448 1529 
Q 2069 2156 2228 2338 
Q 2531 2678 2651 2914 
Q 2772 3150 2772 3378 
Q 2772 3750 2511 3984 
Q 2250 4219 1831 4219 
Q 1534 4219 1204 4116 
Q 875 4013 500 3803 
L 500 4441 
Q 881 4594 1212 4672 
Q 1544 4750 1819 4750 
Q 2544 4750 2975 4387 
Q 3406 4025 3406 3419 
Q 3406 3131 3298 2873 
Q 3191 2616 2906 2266 
Q 2828 2175 2409 1742 
Q 1991 1309 1228 531 
z
" transform="scale(0.015625)"/>
       </defs>
       <use xlink:href="#DejaVuSans-32"/>
      </g>
     </g>
    </g>
    <g id="xtick_5">
     <g id="line2d_5">
      <g>
       <use xlink:href="#m6aac8c9ef1" x="370.531389" y="504" style="stroke: #000000; stroke-width: 0.8"/>
      </g>
     </g>
     <g id="text_5">
      <!-- 3 -->
      <g transform="translate(367.350139 518.598438)scale(0.1 -0.1)">
       <defs>
        <path id="DejaVuSans-33" d="M 2597 2516 
Q 3050 2419 3304 2112 
Q 3559 1806 3559 1356 
Q 3559 666 3084 287 
Q 2609 -91 1734 -91 
Q 1441 -91 1130 -33 
Q 819 25 488 141 
L 488 750 
Q 750 597 1062 519 
Q 1375 441 1716 441 
Q 2309 441 2620 675 
Q 2931 909 2931 1356 
Q 2931 1769 2642 2001 
Q 2353 2234 1838 2234 
L 1294 2234 
L 1294 2753 
L 1863 2753 
Q 2328 2753 2575 2939 
Q 2822 3125 2822 3475 
Q 2822 3834 2567 4026 
Q 2313 4219 1838 4219 
Q 1578 4219 1281 4162 
Q 984 4106 628 3988 
L 628 4550 
Q 988 4650 1302 4700 
Q 1616 4750 1894 4750 
Q 2613 4750 3031 4423 
Q 3450 4097 3450 3541 
Q 3450 3153 3228 2886 
Q 3006 2619 2597 2516 
z
" transform="scale(0.015625)"/>
       </defs>
       <use xlink:href="#DejaVuSans-33"/>
      </g>
     </g>
    </g>
    <g id="xtick_6">
     <g id="line2d_6">
      <g>
       <use xlink:href="#m6aac8c9ef1" x="434.33928" y="504" style="stroke: #000000; stroke-width: 0.8"/>
      </g>
     </g>
     <g id="text_6">
      <!-- 4 -->
      <g transform="translate(431.15803 518.598438)scale(0.1 -0.1)">
       <defs>
        <path id="DejaVuSans-34" d="M 2419 4116 
L 825 1625 
L 2419 1625 
L 2419 4116 
z
M 2253 4666 
L 3047 4666 
L 3047 1625 
L 3713 1625 
L 3713 1100 
L 3047 1100 
L 3047 0 
L 2419 0 
L 2419 1100 
L 313 1100 
L 313 1709 
L 2253 4666 
z
" transform="scale(0.015625)"/>
       </defs>
       <use xlink:href="#DejaVuSans-34"/>
      </g>
     </g>
    </g>
    <g id="xtick_7">
     <g id="line2d_7">
      <g>
       <use xlink:href="#m6aac8c9ef1" x="498.14717" y="504" style="stroke: #000000; stroke-width: 0.8"/>
      </g>
     </g>
     <g id="text_7">
      <!-- 5 -->
      <g transform="translate(494.96592 518.598438)scale(0.1 -0.1)">
       <defs>
        <path id="DejaVuSans-35" d="M 691 4666 
L 3169 4666 
L 3169 4134 
L 1269 4134 
L 1269 2991 
Q 1406 3038 1543 3061 
Q 1681 3084 1819 3084 
Q 2600 3084 3056 2656 
Q 3513 2228 3513 1497 
Q 3513 744 3044 326 
Q 2575 -91 1722 -91 
Q 1428 -91 1123 -41 
Q 819 9 494 109 
L 494 744 
Q 775 591 1075 516 
Q 1375 441 1709 441 
Q 2250 441 2565 725 
Q 2881 1009 2881 1497 
Q 2881 1984 2565 2268 
Q 2250 2553 1709 2553 
Q 1456 2553 1204 2497 
Q 953 2441 691 2322 
L 691 4666 
z
" transform="scale(0.015625)"/>
       </defs>
       <use xlink:href="#DejaVuSans-35"/>
      </g>
     </g>
    </g>
    <g id="xtick_8">
     <g id="line2d_8">
      <g>
       <use xlink:href="#m6aac8c9ef1" x="561.95506" y="504" style="stroke: #000000; stroke-width: 0.8"/>
      </g>
     </g>
     <g id="text_8">
      <!-- 6 -->
      <g transform="translate(558.77381 518.598438)scale(0.1 -0.1)">
       <defs>
        <path id="DejaVuSans-36" d="M 2113 2584 
Q 1688 2584 1439 2293 
Q 1191 2003 1191 1497 
Q 1191 994 1439 701 
Q 1688 409 2113 409 
Q 2538 409 2786 701 
Q 3034 994 3034 1497 
Q 3034 2003 2786 2293 
Q 2538 2584 2113 2584 
z
M 3366 4563 
L 3366 3988 
Q 3128 4100 2886 4159 
Q 2644 4219 2406 4219 
Q 1781 4219 1451 3797 
Q 1122 3375 1075 2522 
Q 1259 2794 1537 2939 
Q 1816 3084 2150 3084 
Q 2853 3084 3261 2657 
Q 3669 2231 3669 1497 
Q 3669 778 3244 343 
Q 2819 -91 2113 -91 
Q 1303 -91 875 529 
Q 447 1150 447 2328 
Q 447 3434 972 4092 
Q 1497 4750 2381 4750 
Q 2619 4750 2861 4703 
Q 3103 4656 3366 4563 
z
" transform="scale(0.015625)"/>
       </defs>
       <use xlink:href="#DejaVuSans-36"/>
      </g>
     </g>
    </g>
    <g id="xtick_9">
     <g id="line2d_9">
      <g>
       <use xlink:href="#m6aac8c9ef1" x="625.76295" y="504" style="stroke: #000000; stroke-width: 0.8"/>
      </g>
     </g>
     <g id="text_9">
      <!-- 7 -->
      <g transform="translate(622.5817 518.598438)scale(0.1 -0.1)">
       <defs>
        <path id="DejaVuSans-37" d="M 525 4666 
L 3525 4666 
L 3525 4397 
L 1831 0 
L 1172 0 
L 2766 4134 
L 525 4134 
L 525 4666 
z
" transform="scale(0.015625)"/>
       </defs>
       <use xlink:href="#DejaVuSans-37"/>
      </g>
     </g>
    </g>
   </g>
   <g id="matplotlib.axis_2">
    <g id="ytick_1">
     <g id="line2d_10">
      <defs>
       <path id="me47ab692c7" d="M 0 0 
L -3.5 0 
" style="stroke: #000000; stroke-width: 0.8"/>
      </defs>
      <g>
       <use xlink:href="#me47ab692c7" x="90" y="476.420247" style="stroke: #000000; stroke-width: 0.8"/>
      </g>
     </g>
     <g id="text_10">
      <!-- 0 -->
      <g transform="translate(76.6375 480.219466)scale(0.1 -0.1)">
       <use xlink:href="#DejaVuSans-30"/>
      </g>
     </g>
    </g>
    <g id="ytick_2">
     <g id="line2d_11">
      <g>
       <use xlink:href="#me47ab692c7" x="90" y="410.4135" style="stroke: #000000; stroke-width: 0.8"/>
      </g>
     </g>
     <g id="text_11">
      <!-- 2 -->
      <g transform="translate(76.6375 414.212718)scale(0.1 -0.1)">
       <use xlink:href="#DejaVuSans-32"/>
      </g>
     </g>
    </g>
    <g id="ytick_3">
     <g id="line2d_12">
      <g>
       <use xlink:href="#me47ab692c7" x="90" y="344.406752" style="stroke: #000000; stroke-width: 0.8"/>
      </g>
     </g>
     <g id="text_12">
      <!-- 4 -->
      <g transform="translate(76.6375 348.205971)scale(0.1 -0.1)">
       <use xlink:href="#DejaVuSans-34"/>
      </g>
     </g>
    </g>
    <g id="ytick_4">
     <g id="line2d_13">
      <g>
       <use xlink:href="#me47ab692c7" x="90" y="278.400005" style="stroke: #000000; stroke-width: 0.8"/>
      </g>
     </g>
     <g id="text_13">
      <!-- 6 -->
      <g transform="translate(76.6375 282.199223)scale(0.1 -0.1)">
       <use xlink:href="#DejaVuSans-36"/>
      </g>
     </g>
    </g>
    <g id="ytick_5">
     <g id="line2d_14">
      <g>
       <use xlink:href="#me47ab692c7" x="90" y="212.393257" style="stroke: #000000; stroke-width: 0.8"/>
      </g>
     </g>
     <g id="text_14">
      <!-- 8 -->
      <g transform="translate(76.6375 216.192476)scale(0.1 -0.1)">
       <defs>
        <path id="DejaVuSans-38" d="M 2034 2216 
Q 1584 2216 1326 1975 
Q 1069 1734 1069 1313 
Q 1069 891 1326 650 
Q 1584 409 2034 409 
Q 2484 409 2743 651 
Q 3003 894 3003 1313 
Q 3003 1734 2745 1975 
Q 2488 2216 2034 2216 
z
M 1403 2484 
Q 997 2584 770 2862 
Q 544 3141 544 3541 
Q 544 4100 942 4425 
Q 1341 4750 2034 4750 
Q 2731 4750 3128 4425 
Q 3525 4100 3525 3541 
Q 3525 3141 3298 2862 
Q 3072 2584 2669 2484 
Q 3125 2378 3379 2068 
Q 3634 1759 3634 1313 
Q 3634 634 3220 271 
Q 2806 -91 2034 -91 
Q 1263 -91 848 271 
Q 434 634 434 1313 
Q 434 1759 690 2068 
Q 947 2378 1403 2484 
z
M 1172 3481 
Q 1172 3119 1398 2916 
Q 1625 2713 2034 2713 
Q 2441 2713 2670 2916 
Q 2900 3119 2900 3481 
Q 2900 3844 2670 4047 
Q 2441 4250 2034 4250 
Q 1625 4250 1398 4047 
Q 1172 3844 1172 3481 
z
" transform="scale(0.015625)"/>
       </defs>
       <use xlink:href="#DejaVuSans-38"/>
      </g>
     </g>
    </g>
    <g id="ytick_6">
     <g id="line2d_15">
      <g>
       <use xlink:href="#me47ab692c7" x="90" y="146.38651" style="stroke: #000000; stroke-width: 0.8"/>
      </g>
     </g>
     <g id="text_15">
      <!-- 10 -->
      <g transform="translate(70.275 150.185728)scale(0.1 -0.1)">
       <use xlink:href="#DejaVuSans-31"/>
       <use xlink:href="#DejaVuSans-30" x="63.623047"/>
      </g>
     </g>
    </g>
    <g id="ytick_7">
     <g id="line2d_16">
      <g>
       <use xlink:href="#me47ab692c7" x="90" y="80.379762" style="stroke: #000000; stroke-width: 0.8"/>
      </g>
     </g>
     <g id="text_16">
      <!-- 12 -->
      <g transform="translate(70.275 84.178981)scale(0.1 -0.1)">
       <use xlink:href="#DejaVuSans-31"/>
       <use xlink:href="#DejaVuSans-32" x="63.623047"/>
      </g>
     </g>
    </g>
   </g>
   <g id="line2d_17">
    <path d="M 115.363636 447.893435 
L 118.554031 447.753172 
L 121.744425 447.816125 
L 124.93482 448.485992 
L 128.125214 449.879302 
L 137.696398 455.509516 
L 140.886792 457.087655 
L 147.267581 459.900247 
L 156.838765 464.677253 
L 160.02916 465.862597 
L 163.219554 466.572934 
L 166.409949 466.801602 
L 169.600343 466.508586 
L 172.790738 465.492865 
L 175.981132 463.247595 
L 179.171527 458.91615 
L 182.361921 451.67569 
L 185.552316 441.553908 
L 188.74271 429.950525 
L 191.933105 419.137018 
L 195.123499 411.069789 
L 198.313894 406.532178 
L 201.504288 405.072916 
L 204.694683 405.480585 
L 207.885077 406.417692 
L 211.075472 406.903452 
L 214.265866 406.400114 
L 217.456261 404.595788 
L 220.646655 401.252566 
L 223.83705 396.274106 
L 227.027444 389.806342 
L 230.217839 382.208807 
L 233.408233 373.905294 
L 239.789022 356.185917 
L 242.979417 346.738068 
L 246.169811 336.71763 
L 249.360206 326.029956 
L 252.5506 314.547013 
L 255.740995 302.067643 
L 258.931389 288.514319 
L 268.502573 245.972652 
L 271.692967 233.083203 
L 274.883362 221.052026 
L 278.073756 209.828721 
L 281.264151 199.785532 
L 284.454545 191.651108 
L 287.64494 185.961795 
L 290.835334 182.577423 
L 294.025729 180.748556 
L 300.406518 178.457602 
L 303.596913 176.74158 
L 306.787307 173.737209 
L 309.977702 168.813332 
L 313.168096 161.905717 
L 316.358491 153.634593 
L 332.310463 110.051021 
L 335.500858 101.625266 
L 338.691252 94.629146 
L 341.881647 90.177887 
L 345.072041 88.887273 
L 348.262436 90.585566 
L 351.45283 94.567176 
L 354.643225 100.162669 
L 357.833619 107.098911 
L 361.024014 115.425056 
L 364.214408 125.257397 
L 367.404803 136.652034 
L 370.595197 149.613698 
L 373.785592 164.047776 
L 376.975986 179.640045 
L 389.737564 244.177469 
L 392.927959 259.167366 
L 396.118353 273.175701 
L 399.308748 286.064203 
L 402.499142 297.792947 
L 405.689537 308.301495 
L 408.879931 317.465171 
L 412.070326 325.279795 
L 415.26072 332.090283 
L 424.831904 351.055582 
L 428.022298 356.85287 
L 431.212693 361.907872 
L 434.403087 366.085838 
L 437.593482 369.399643 
L 440.783877 371.958163 
L 443.974271 373.969046 
L 447.164666 375.770819 
L 450.35506 377.762939 
L 453.545455 380.187147 
L 459.926244 385.642416 
L 463.116638 387.912504 
L 466.307033 389.623201 
L 469.497427 390.860699 
L 472.687822 391.721498 
L 475.878216 392.224024 
L 479.068611 392.377979 
L 482.259005 392.224627 
L 485.4494 391.807492 
L 495.020583 389.980372 
L 504.591767 388.86807 
L 507.782161 388.219046 
L 514.16295 386.542045 
L 517.353345 386.141619 
L 520.543739 386.51786 
L 523.734134 387.806321 
L 526.924528 389.866571 
L 533.305317 394.890138 
L 536.495712 397.144734 
L 539.686106 398.95136 
L 549.25729 403.252068 
L 552.447684 405.281613 
L 558.828473 409.737233 
L 562.018868 411.534208 
L 565.209262 412.940518 
L 574.780446 416.551364 
L 577.97084 418.161349 
L 581.161235 420.174761 
L 587.542024 424.696887 
L 590.732419 426.672451 
L 593.922813 428.365976 
L 603.493997 433.026601 
L 609.874786 436.353246 
L 613.06518 437.477326 
L 616.255575 437.879007 
L 622.636364 437.444674 
L 622.636364 437.444674 
" clip-path="url(#p7b9a694f0a)" style="fill: none; stroke: #9467bd; stroke-width: 1.5; stroke-linecap: square"/>
   </g>
   <g id="line2d_18">
    <path d="M 115.363636 451.616855 
L 118.554031 452.048349 
L 124.93482 453.350158 
L 128.125214 454.264203 
L 131.315609 455.674528 
L 134.506003 457.596672 
L 137.696398 459.702033 
L 140.886792 461.439217 
L 144.077187 462.280036 
L 147.267581 462.075976 
L 150.457976 461.274682 
L 153.64837 460.623562 
L 156.838765 460.530221 
L 160.02916 460.743845 
L 163.219554 460.603198 
L 166.409949 459.347029 
L 169.600343 456.074045 
L 172.790738 449.742369 
L 175.981132 439.798835 
L 182.361921 414.638826 
L 185.552316 405.427645 
L 188.74271 401.5312 
L 191.933105 402.706018 
L 195.123499 407.178206 
L 201.504288 419.112484 
L 204.694683 425.030828 
L 207.885077 430.698618 
L 211.075472 435.961058 
L 214.265866 440.628934 
L 217.456261 444.733535 
L 227.027444 456.219251 
L 230.217839 459.304145 
L 233.408233 461.428021 
L 239.789022 464.317084 
L 242.979417 466.179359 
L 249.360206 470.683502 
L 252.5506 472.597267 
L 255.740995 474.109142 
L 265.312178 477.962619 
L 271.692967 480.949447 
L 274.883362 482.071679 
L 278.073756 482.615672 
L 281.264151 482.518209 
L 284.454545 481.870547 
L 287.64494 480.941276 
L 290.835334 480.144121 
L 294.025729 479.841188 
L 297.216123 480.137063 
L 300.406518 480.903893 
L 306.787307 483.069235 
L 309.977702 483.932768 
L 313.168096 484.232727 
L 316.358491 483.911838 
L 322.73928 482.480707 
L 325.929674 482.001263 
L 329.120069 481.947263 
L 335.500858 482.590982 
L 338.691252 482.37144 
L 341.881647 481.310654 
L 345.072041 479.542893 
L 348.262436 477.49798 
L 351.45283 475.666062 
L 354.643225 474.392082 
L 357.833619 473.677848 
L 361.024014 473.1303 
L 364.214408 472.234283 
L 367.404803 470.795194 
L 370.595197 469.130944 
L 373.785592 467.803144 
L 376.975986 467.144779 
L 380.166381 467.029005 
L 383.356775 467.034338 
L 386.54717 466.807513 
L 392.927959 465.828572 
L 396.118353 465.568128 
L 399.308748 465.613387 
L 402.499142 465.991675 
L 405.689537 466.765617 
L 412.070326 468.795389 
L 415.26072 469.168206 
L 418.451115 468.764583 
L 421.641509 467.76862 
L 424.831904 466.562689 
L 428.022298 465.522507 
L 431.212693 464.920169 
L 434.403087 464.919651 
L 437.593482 465.560268 
L 443.974271 467.763734 
L 447.164666 468.272441 
L 450.35506 467.811308 
L 453.545455 466.430134 
L 456.735849 464.475135 
L 463.116638 460.176878 
L 466.307033 458.363567 
L 469.497427 457.167222 
L 472.687822 456.790812 
L 475.878216 457.168698 
L 482.259005 458.68876 
L 485.4494 459.10421 
L 491.830189 459.460602 
L 495.020583 460.024365 
L 498.210978 461.119061 
L 501.401372 462.721611 
L 507.782161 466.441165 
L 510.972556 467.819089 
L 514.16295 468.610822 
L 520.543739 469.364727 
L 523.734134 470.022046 
L 526.924528 471.166538 
L 533.305317 474.474551 
L 536.495712 475.686977 
L 539.686106 476.01487 
L 542.876501 475.615559 
L 546.066895 475.047777 
L 549.25729 474.792365 
L 552.447684 474.986262 
L 555.638079 475.538022 
L 562.018868 477.019416 
L 565.209262 477.498926 
L 568.399657 477.661092 
L 571.590051 477.630502 
L 574.780446 477.484031 
L 577.97084 477.077197 
L 581.161235 476.218917 
L 587.542024 473.807344 
L 590.732419 473.039709 
L 597.113208 472.327705 
L 600.303602 471.570789 
L 603.493997 470.311787 
L 609.874786 467.268515 
L 613.06518 466.084736 
L 616.255575 465.348076 
L 619.445969 465.018193 
L 622.636364 464.928636 
L 622.636364 464.928636 
" clip-path="url(#p7b9a694f0a)" style="fill: none; stroke: #1f77b4; stroke-width: 1.5; stroke-linecap: square"/>
   </g>
   <g id="line2d_19">
    <path d="M 115.363636 457.812693 
L 118.554031 458.785081 
L 128.125214 463.270799 
L 134.506003 465.679221 
L 140.886792 467.98994 
L 144.077187 469.366375 
L 150.457976 472.355469 
L 153.64837 473.728904 
L 156.838765 474.872147 
L 160.02916 475.576583 
L 163.219554 475.397946 
L 166.409949 473.477864 
L 169.600343 468.525005 
L 172.790738 459.362092 
L 175.981132 446.074432 
L 179.171527 430.859917 
L 182.361921 417.392057 
L 185.552316 408.822667 
L 188.74271 406.107381 
L 191.933105 408.010308 
L 195.123499 412.37004 
L 198.313894 417.279698 
L 201.504288 421.491211 
L 204.694683 424.295346 
L 207.885077 425.322533 
L 211.075472 424.421509 
L 214.265866 421.604837 
L 217.456261 417.061855 
L 220.646655 411.168644 
L 223.83705 404.336891 
L 227.027444 396.79582 
L 230.217839 388.616304 
L 236.598628 370.928893 
L 242.979417 352.396665 
L 249.360206 333.867085 
L 255.740995 316.760441 
L 265.312178 291.887228 
L 268.502573 284.131817 
L 271.692967 276.973052 
L 274.883362 270.664524 
L 278.073756 265.550135 
L 281.264151 261.871908 
L 284.454545 259.544762 
L 287.64494 258.115455 
L 290.835334 256.848296 
L 294.025729 254.826483 
L 297.216123 251.151863 
L 300.406518 245.263742 
L 303.596913 237.164225 
L 306.787307 227.402915 
L 313.168096 206.435463 
L 316.358491 196.652718 
L 319.548885 187.564237 
L 322.73928 178.937065 
L 325.929674 170.695526 
L 329.120069 163.222167 
L 332.310463 157.244411 
L 335.500858 153.474914 
L 338.691252 152.399312 
L 341.881647 154.306452 
L 345.072041 159.348972 
L 348.262436 167.487658 
L 351.45283 178.343875 
L 354.643225 191.140619 
L 361.024014 219.200391 
L 367.404803 247.771077 
L 370.595197 261.33234 
L 373.785592 273.877747 
L 376.975986 285.380823 
L 380.166381 295.944021 
L 383.356775 305.480972 
L 386.54717 313.807334 
L 389.737564 321.010345 
L 396.118353 333.887625 
L 402.499142 346.395504 
L 405.689537 352.197369 
L 408.879931 357.333139 
L 412.070326 361.494333 
L 415.26072 364.535558 
L 418.451115 366.691006 
L 421.641509 368.541939 
L 424.831904 370.686292 
L 428.022298 373.395437 
L 431.212693 376.57978 
L 437.593482 383.534624 
L 447.164666 394.275744 
L 450.35506 397.856614 
L 453.545455 401.13504 
L 456.735849 403.88494 
L 466.307033 410.715578 
L 475.878216 418.832118 
L 479.068611 421.004645 
L 482.259005 422.843223 
L 485.4494 424.395418 
L 488.639794 425.660166 
L 491.830189 426.654883 
L 498.210978 428.446937 
L 501.401372 429.756988 
L 504.591767 431.558256 
L 507.782161 433.76632 
L 514.16295 438.540935 
L 517.353345 440.73207 
L 520.543739 442.540297 
L 523.734134 443.698795 
L 526.924528 444.095712 
L 530.114923 444.057702 
L 533.305317 444.257721 
L 536.495712 445.263352 
L 539.686106 447.209894 
L 542.876501 449.825207 
L 546.066895 452.611367 
L 549.25729 455.044225 
L 552.447684 456.812922 
L 555.638079 457.9578 
L 558.828473 458.736506 
L 562.018868 459.340949 
L 565.209262 459.758292 
L 568.399657 459.84967 
L 571.590051 459.502947 
L 574.780446 458.736755 
L 581.161235 456.776798 
L 584.35163 456.10922 
L 587.542024 455.809435 
L 590.732419 455.797223 
L 603.493997 456.275003 
L 606.684391 456.253139 
L 609.874786 456.394388 
L 613.06518 456.841407 
L 619.445969 458.120046 
L 622.636364 458.473297 
L 622.636364 458.473297 
" clip-path="url(#p7b9a694f0a)" style="fill: none; stroke: #d62728; stroke-width: 1.5; stroke-linecap: square"/>
   </g>
   <g id="line2d_20">
    <path d="M 115.363636 463.401441 
L 118.554031 463.100503 
L 131.315609 461.200587 
L 134.506003 461.172347 
L 137.696398 461.459496 
L 147.267581 462.967357 
L 153.64837 464.407842 
L 166.409949 467.468075 
L 169.600343 467.932885 
L 172.790738 467.709522 
L 175.981132 466.720255 
L 179.171527 465.048621 
L 182.361921 462.671169 
L 185.552316 459.503566 
L 191.933105 451.8908 
L 195.123499 448.692591 
L 198.313894 446.654342 
L 201.504288 446.000026 
L 204.694683 446.578299 
L 214.265866 450.429661 
L 217.456261 451.087127 
L 223.83705 451.645517 
L 230.217839 452.188471 
L 233.408233 452.295215 
L 236.598628 452.02346 
L 239.789022 451.342092 
L 249.360206 448.612536 
L 255.740995 446.51766 
L 258.931389 445.797781 
L 262.121784 445.612775 
L 265.312178 445.880807 
L 268.502573 446.393447 
L 274.883362 447.747037 
L 278.073756 448.43109 
L 281.264151 448.900808 
L 284.454545 449.036483 
L 290.835334 448.726467 
L 294.025729 448.751433 
L 300.406518 449.192815 
L 303.596913 448.893185 
L 306.787307 447.939059 
L 309.977702 446.648044 
L 313.168096 445.598088 
L 316.358491 445.178421 
L 319.548885 445.366668 
L 325.929674 446.330634 
L 329.120069 446.56765 
L 332.310463 446.520566 
L 341.881647 445.638972 
L 345.072041 445.816676 
L 348.262436 446.463364 
L 351.45283 447.265941 
L 354.643225 447.792234 
L 357.833619 447.928924 
L 367.404803 447.88581 
L 370.595197 447.650112 
L 376.975986 446.838269 
L 380.166381 446.710891 
L 383.356775 446.941363 
L 389.737564 447.90646 
L 392.927959 448.502894 
L 396.118353 449.426094 
L 399.308748 450.776771 
L 402.499142 452.283038 
L 405.689537 453.533638 
L 415.26072 456.303764 
L 421.641509 458.742019 
L 424.831904 459.752712 
L 428.022298 460.620436 
L 431.212693 461.334942 
L 434.403087 461.694268 
L 437.593482 461.576256 
L 440.783877 461.344934 
L 443.974271 461.733289 
L 447.164666 463.151625 
L 450.35506 465.2175 
L 453.545455 467.065704 
L 456.735849 468.059042 
L 459.926244 468.169987 
L 466.307033 467.297665 
L 472.687822 466.54073 
L 482.259005 466.111906 
L 485.4494 465.486005 
L 491.830189 463.28386 
L 495.020583 462.431743 
L 510.972556 459.817597 
L 514.16295 460.025263 
L 517.353345 460.839258 
L 520.543739 461.922661 
L 523.734134 462.811443 
L 526.924528 463.229897 
L 530.114923 463.190415 
L 536.495712 462.675768 
L 539.686106 462.797478 
L 542.876501 463.357561 
L 546.066895 464.139897 
L 549.25729 464.772441 
L 552.447684 465.021349 
L 558.828473 464.844142 
L 562.018868 464.943884 
L 568.399657 465.6649 
L 571.590051 465.602917 
L 574.780446 464.822035 
L 577.97084 463.416073 
L 581.161235 461.770469 
L 584.35163 460.271923 
L 587.542024 459.118967 
L 590.732419 458.308067 
L 606.684391 455.228209 
L 609.874786 454.831387 
L 613.06518 454.608189 
L 619.445969 454.499222 
L 622.636364 454.522859 
L 622.636364 454.522859 
" clip-path="url(#p7b9a694f0a)" style="fill: none; stroke: #bcbd22; stroke-width: 1.5; stroke-linecap: square"/>
   </g>
   <g id="patch_3">
    <path d="M 90 504 
L 90 69.12 
" style="fill: none; stroke: #000000; stroke-width: 0.8; stroke-linejoin: miter; stroke-linecap: square"/>
   </g>
   <g id="patch_4">
    <path d="M 648 504 
L 648 69.12 
" style="fill: none; stroke: #000000; stroke-width: 0.8; stroke-linejoin: miter; stroke-linecap: square"/>
   </g>
   <g id="patch_5">
    <path d="M 90 504 
L 648 504 
" style="fill: none; stroke: #000000; stroke-width: 0.8; stroke-linejoin: miter; stroke-linecap: square"/>
   </g>
   <g id="patch_6">
    <path d="M 90 69.12 
L 648 69.12 
" style="fill: none; stroke: #000000; stroke-width: 0.8; stroke-linejoin: miter; stroke-linecap: square"/>
   </g>
  </g>
 </g>
 <defs>
  <clipPath id="p7b9a694f0a">
   <rect x="90" y="69.12" width="558" height="434.88"/>
  </clipPath>
 </defs>
</svg>
