<?xml version="1.0" encoding="utf-8" standalone="no"?>
<!DOCTYPE svg PUBLIC "-//W3C//DTD SVG 1.1//EN"
  "http://www.w3.org/Graphics/SVG/1.1/DTD/svg11.dtd">
<svg xmlns:xlink="http://www.w3.org/1999/xlink" width="720pt" height="720pt" viewBox="0 0 720 720" xmlns="http://www.w3.org/2000/svg" version="1.1">
 <metadata>
  <rdf:RDF xmlns:dc="http://purl.org/dc/elements/1.1/" xmlns:cc="http://creativecommons.org/ns#" xmlns:rdf="http://www.w3.org/1999/02/22-rdf-syntax-ns#">
   <cc:Work>
    <dc:type rdf:resource="http://purl.org/dc/dcmitype/StillImage"/>
    <dc:date>2023-12-19T18:22:39.587234</dc:date>
    <dc:format>image/svg+xml</dc:format>
    <dc:creator>
     <cc:Agent>
      <dc:title>Matplotlib v3.5.2, https://matplotlib.org/</dc:title>
     </cc:Agent>
    </dc:creator>
   </cc:Work>
  </rdf:RDF>
 </metadata>
 <defs>
  <style type="text/css">*{stroke-linejoin: round; stroke-linecap: butt}</style>
 </defs>
 <g id="figure_1">
  <g id="patch_1">
   <path d="M 0 720 
L 720 720 
L 720 0 
L 0 0 
z
" style="fill: #ffffff"/>
  </g>
  <g id="axes_1">
   <g id="patch_2">
    <path d="M 90 333.490909 
L 343.636364 333.490909 
L 343.636364 86.4 
L 90 86.4 
z
" style="fill: #ffffff"/>
   </g>
   <g id="matplotlib.axis_1">
    <g id="xtick_1">
     <g id="line2d_1">
      <defs>
       <path id="m60ee07fdf3" d="M 0 0 
L 0 3.5 
" style="stroke: #000000; stroke-width: 0.8"/>
      </defs>
      <g>
       <use xlink:href="#m60ee07fdf3" x="90" y="333.490909" style="stroke: #000000; stroke-width: 0.8"/>
      </g>
     </g>
     <g id="text_1">
      <!-- 0.0 -->
      <g transform="translate(82.048438 348.089347)scale(0.1 -0.1)">
       <defs>
        <path id="DejaVuSans-30" d="M 2034 4250 
Q 1547 4250 1301 3770 
Q 1056 3291 1056 2328 
Q 1056 1369 1301 889 
Q 1547 409 2034 409 
Q 2525 409 2770 889 
Q 3016 1369 3016 2328 
Q 3016 3291 2770 3770 
Q 2525 4250 2034 4250 
z
M 2034 4750 
Q 2819 4750 3233 4129 
Q 3647 3509 3647 2328 
Q 3647 1150 3233 529 
Q 2819 -91 2034 -91 
Q 1250 -91 836 529 
Q 422 1150 422 2328 
Q 422 3509 836 4129 
Q 1250 4750 2034 4750 
z
" transform="scale(0.015625)"/>
        <path id="DejaVuSans-2e" d="M 684 794 
L 1344 794 
L 1344 0 
L 684 0 
L 684 794 
z
" transform="scale(0.015625)"/>
       </defs>
       <use xlink:href="#DejaVuSans-30"/>
       <use xlink:href="#DejaVuSans-2e" x="63.623047"/>
       <use xlink:href="#DejaVuSans-30" x="95.410156"/>
      </g>
     </g>
    </g>
    <g id="xtick_2">
     <g id="line2d_2">
      <g>
       <use xlink:href="#m60ee07fdf3" x="140.727273" y="333.490909" style="stroke: #000000; stroke-width: 0.8"/>
      </g>
     </g>
     <g id="text_2">
      <!-- 0.2 -->
      <g transform="translate(132.77571 348.089347)scale(0.1 -0.1)">
       <defs>
        <path id="DejaVuSans-32" d="M 1228 531 
L 3431 531 
L 3431 0 
L 469 0 
L 469 531 
Q 828 903 1448 1529 
Q 2069 2156 2228 2338 
Q 2531 2678 2651 2914 
Q 2772 3150 2772 3378 
Q 2772 3750 2511 3984 
Q 2250 4219 1831 4219 
Q 1534 4219 1204 4116 
Q 875 4013 500 3803 
L 500 4441 
Q 881 4594 1212 4672 
Q 1544 4750 1819 4750 
Q 2544 4750 2975 4387 
Q 3406 4025 3406 3419 
Q 3406 3131 3298 2873 
Q 3191 2616 2906 2266 
Q 2828 2175 2409 1742 
Q 1991 1309 1228 531 
z
" transform="scale(0.015625)"/>
       </defs>
       <use xlink:href="#DejaVuSans-30"/>
       <use xlink:href="#DejaVuSans-2e" x="63.623047"/>
       <use xlink:href="#DejaVuSans-32" x="95.410156"/>
      </g>
     </g>
    </g>
    <g id="xtick_3">
     <g id="line2d_3">
      <g>
       <use xlink:href="#m60ee07fdf3" x="191.454545" y="333.490909" style="stroke: #000000; stroke-width: 0.8"/>
      </g>
     </g>
     <g id="text_3">
      <!-- 0.4 -->
      <g transform="translate(183.502983 348.089347)scale(0.1 -0.1)">
       <defs>
        <path id="DejaVuSans-34" d="M 2419 4116 
L 825 1625 
L 2419 1625 
L 2419 4116 
z
M 2253 4666 
L 3047 4666 
L 3047 1625 
L 3713 1625 
L 3713 1100 
L 3047 1100 
L 3047 0 
L 2419 0 
L 2419 1100 
L 313 1100 
L 313 1709 
L 2253 4666 
z
" transform="scale(0.015625)"/>
       </defs>
       <use xlink:href="#DejaVuSans-30"/>
       <use xlink:href="#DejaVuSans-2e" x="63.623047"/>
       <use xlink:href="#DejaVuSans-34" x="95.410156"/>
      </g>
     </g>
    </g>
    <g id="xtick_4">
     <g id="line2d_4">
      <g>
       <use xlink:href="#m60ee07fdf3" x="242.181818" y="333.490909" style="stroke: #000000; stroke-width: 0.8"/>
      </g>
     </g>
     <g id="text_4">
      <!-- 0.6 -->
      <g transform="translate(234.230256 348.089347)scale(0.1 -0.1)">
       <defs>
        <path id="DejaVuSans-36" d="M 2113 2584 
Q 1688 2584 1439 2293 
Q 1191 2003 1191 1497 
Q 1191 994 1439 701 
Q 1688 409 2113 409 
Q 2538 409 2786 701 
Q 3034 994 3034 1497 
Q 3034 2003 2786 2293 
Q 2538 2584 2113 2584 
z
M 3366 4563 
L 3366 3988 
Q 3128 4100 2886 4159 
Q 2644 4219 2406 4219 
Q 1781 4219 1451 3797 
Q 1122 3375 1075 2522 
Q 1259 2794 1537 2939 
Q 1816 3084 2150 3084 
Q 2853 3084 3261 2657 
Q 3669 2231 3669 1497 
Q 3669 778 3244 343 
Q 2819 -91 2113 -91 
Q 1303 -91 875 529 
Q 447 1150 447 2328 
Q 447 3434 972 4092 
Q 1497 4750 2381 4750 
Q 2619 4750 2861 4703 
Q 3103 4656 3366 4563 
z
" transform="scale(0.015625)"/>
       </defs>
       <use xlink:href="#DejaVuSans-30"/>
       <use xlink:href="#DejaVuSans-2e" x="63.623047"/>
       <use xlink:href="#DejaVuSans-36" x="95.410156"/>
      </g>
     </g>
    </g>
    <g id="xtick_5">
     <g id="line2d_5">
      <g>
       <use xlink:href="#m60ee07fdf3" x="292.909091" y="333.490909" style="stroke: #000000; stroke-width: 0.8"/>
      </g>
     </g>
     <g id="text_5">
      <!-- 0.8 -->
      <g transform="translate(284.957528 348.089347)scale(0.1 -0.1)">
       <defs>
        <path id="DejaVuSans-38" d="M 2034 2216 
Q 1584 2216 1326 1975 
Q 1069 1734 1069 1313 
Q 1069 891 1326 650 
Q 1584 409 2034 409 
Q 2484 409 2743 651 
Q 3003 894 3003 1313 
Q 3003 1734 2745 1975 
Q 2488 2216 2034 2216 
z
M 1403 2484 
Q 997 2584 770 2862 
Q 544 3141 544 3541 
Q 544 4100 942 4425 
Q 1341 4750 2034 4750 
Q 2731 4750 3128 4425 
Q 3525 4100 3525 3541 
Q 3525 3141 3298 2862 
Q 3072 2584 2669 2484 
Q 3125 2378 3379 2068 
Q 3634 1759 3634 1313 
Q 3634 634 3220 271 
Q 2806 -91 2034 -91 
Q 1263 -91 848 271 
Q 434 634 434 1313 
Q 434 1759 690 2068 
Q 947 2378 1403 2484 
z
M 1172 3481 
Q 1172 3119 1398 2916 
Q 1625 2713 2034 2713 
Q 2441 2713 2670 2916 
Q 2900 3119 2900 3481 
Q 2900 3844 2670 4047 
Q 2441 4250 2034 4250 
Q 1625 4250 1398 4047 
Q 1172 3844 1172 3481 
z
" transform="scale(0.015625)"/>
       </defs>
       <use xlink:href="#DejaVuSans-30"/>
       <use xlink:href="#DejaVuSans-2e" x="63.623047"/>
       <use xlink:href="#DejaVuSans-38" x="95.410156"/>
      </g>
     </g>
    </g>
    <g id="xtick_6">
     <g id="line2d_6">
      <g>
       <use xlink:href="#m60ee07fdf3" x="343.636364" y="333.490909" style="stroke: #000000; stroke-width: 0.8"/>
      </g>
     </g>
     <g id="text_6">
      <!-- 1.0 -->
      <g transform="translate(335.684801 348.089347)scale(0.1 -0.1)">
       <defs>
        <path id="DejaVuSans-31" d="M 794 531 
L 1825 531 
L 1825 4091 
L 703 3866 
L 703 4441 
L 1819 4666 
L 2450 4666 
L 2450 531 
L 3481 531 
L 3481 0 
L 794 0 
L 794 531 
z
" transform="scale(0.015625)"/>
       </defs>
       <use xlink:href="#DejaVuSans-31"/>
       <use xlink:href="#DejaVuSans-2e" x="63.623047"/>
       <use xlink:href="#DejaVuSans-30" x="95.410156"/>
      </g>
     </g>
    </g>
   </g>
   <g id="matplotlib.axis_2">
    <g id="ytick_1">
     <g id="line2d_7">
      <defs>
       <path id="mdf4e6c2bf6" d="M 0 0 
L -3.5 0 
" style="stroke: #000000; stroke-width: 0.8"/>
      </defs>
      <g>
       <use xlink:href="#mdf4e6c2bf6" x="90" y="333.490909" style="stroke: #000000; stroke-width: 0.8"/>
      </g>
     </g>
     <g id="text_7">
      <!-- 0.0 -->
      <g transform="translate(67.096875 337.290128)scale(0.1 -0.1)">
       <use xlink:href="#DejaVuSans-30"/>
       <use xlink:href="#DejaVuSans-2e" x="63.623047"/>
       <use xlink:href="#DejaVuSans-30" x="95.410156"/>
      </g>
     </g>
    </g>
    <g id="ytick_2">
     <g id="line2d_8">
      <g>
       <use xlink:href="#mdf4e6c2bf6" x="90" y="284.072727" style="stroke: #000000; stroke-width: 0.8"/>
      </g>
     </g>
     <g id="text_8">
      <!-- 0.2 -->
      <g transform="translate(67.096875 287.871946)scale(0.1 -0.1)">
       <use xlink:href="#DejaVuSans-30"/>
       <use xlink:href="#DejaVuSans-2e" x="63.623047"/>
       <use xlink:href="#DejaVuSans-32" x="95.410156"/>
      </g>
     </g>
    </g>
    <g id="ytick_3">
     <g id="line2d_9">
      <g>
       <use xlink:href="#mdf4e6c2bf6" x="90" y="234.654545" style="stroke: #000000; stroke-width: 0.8"/>
      </g>
     </g>
     <g id="text_9">
      <!-- 0.4 -->
      <g transform="translate(67.096875 238.453764)scale(0.1 -0.1)">
       <use xlink:href="#DejaVuSans-30"/>
       <use xlink:href="#DejaVuSans-2e" x="63.623047"/>
       <use xlink:href="#DejaVuSans-34" x="95.410156"/>
      </g>
     </g>
    </g>
    <g id="ytick_4">
     <g id="line2d_10">
      <g>
       <use xlink:href="#mdf4e6c2bf6" x="90" y="185.236364" style="stroke: #000000; stroke-width: 0.8"/>
      </g>
     </g>
     <g id="text_10">
      <!-- 0.6 -->
      <g transform="translate(67.096875 189.035582)scale(0.1 -0.1)">
       <use xlink:href="#DejaVuSans-30"/>
       <use xlink:href="#DejaVuSans-2e" x="63.623047"/>
       <use xlink:href="#DejaVuSans-36" x="95.410156"/>
      </g>
     </g>
    </g>
    <g id="ytick_5">
     <g id="line2d_11">
      <g>
       <use xlink:href="#mdf4e6c2bf6" x="90" y="135.818182" style="stroke: #000000; stroke-width: 0.8"/>
      </g>
     </g>
     <g id="text_11">
      <!-- 0.8 -->
      <g transform="translate(67.096875 139.617401)scale(0.1 -0.1)">
       <use xlink:href="#DejaVuSans-30"/>
       <use xlink:href="#DejaVuSans-2e" x="63.623047"/>
       <use xlink:href="#DejaVuSans-38" x="95.410156"/>
      </g>
     </g>
    </g>
    <g id="ytick_6">
     <g id="line2d_12">
      <g>
       <use xlink:href="#mdf4e6c2bf6" x="90" y="86.4" style="stroke: #000000; stroke-width: 0.8"/>
      </g>
     </g>
     <g id="text_12">
      <!-- 1.0 -->
      <g transform="translate(67.096875 90.199219)scale(0.1 -0.1)">
       <use xlink:href="#DejaVuSans-31"/>
       <use xlink:href="#DejaVuSans-2e" x="63.623047"/>
       <use xlink:href="#DejaVuSans-30" x="95.410156"/>
      </g>
     </g>
    </g>
   </g>
   <g id="patch_3">
    <path d="M 90 333.490909 
L 90 86.4 
" style="fill: none; stroke: #000000; stroke-width: 0.8; stroke-linejoin: miter; stroke-linecap: square"/>
   </g>
   <g id="patch_4">
    <path d="M 343.636364 333.490909 
L 343.636364 86.4 
" style="fill: none; stroke: #000000; stroke-width: 0.8; stroke-linejoin: miter; stroke-linecap: square"/>
   </g>
   <g id="patch_5">
    <path d="M 90 333.490909 
L 343.636364 333.490909 
" style="fill: none; stroke: #000000; stroke-width: 0.8; stroke-linejoin: miter; stroke-linecap: square"/>
   </g>
   <g id="patch_6">
    <path d="M 90 86.4 
L 343.636364 86.4 
" style="fill: none; stroke: #000000; stroke-width: 0.8; stroke-linejoin: miter; stroke-linecap: square"/>
   </g>
  </g>
  <g id="axes_2">
   <g id="patch_7">
    <path d="M 394.363636 333.490909 
L 648 333.490909 
L 648 86.4 
L 394.363636 86.4 
z
" style="fill: #ffffff"/>
   </g>
   <g id="PolyCollection_1">
    <defs>
     <path id="m4fa113106c" d="M 405.892562 -481.252207 
L 405.892562 -481.252207 
L 407.342741 -472.489607 
L 408.792921 -458.933041 
L 410.2431 -434.109151 
L 411.693279 -425.850742 
L 413.143459 -436.781539 
L 414.593638 -433.31075 
L 416.043817 -413.173428 
L 417.493997 -418.994869 
L 418.944176 -397.740496 
L 420.394355 -405.107563 
L 421.844535 -417.017182 
L 423.294714 -444.653366 
L 424.744893 -462.210828 
L 426.195073 -474.494524 
L 427.645252 -472.952453 
L 429.095431 -483.588881 
L 430.54561 -482.61589 
L 431.99579 -477.8156 
L 433.445969 -470.214665 
L 434.896148 -448.993757 
L 436.346328 -455.719446 
L 437.796507 -451.247736 
L 439.246686 -434.841788 
L 440.696866 -442.847633 
L 442.147045 -461.182793 
L 443.597224 -470.189936 
L 445.047404 -473.315587 
L 446.497583 -484.798434 
L 447.947762 -490.037808 
L 449.397942 -493.807251 
L 450.848121 -496.025472 
L 452.2983 -497.042658 
L 453.74848 -497.371955 
L 455.198659 -497.282196 
L 456.648838 -496.601554 
L 458.099018 -494.844393 
L 459.549197 -491.825516 
L 460.999376 -481.880816 
L 462.449556 -478.939228 
L 463.899735 -488.284175 
L 465.349914 -492.571204 
L 466.800094 -497.835223 
L 468.250273 -502.175905 
L 469.700452 -498.872597 
L 471.150632 -503.27586 
L 472.600811 -507.318299 
L 474.05099 -508.619298 
L 475.501169 -503.604363 
L 476.951349 -507.569348 
L 478.401528 -505.184229 
L 479.851707 -503.509163 
L 481.301887 -503.247563 
L 482.752066 -503.127548 
L 484.202245 -493.591005 
L 485.652425 -495.610039 
L 487.102604 -489.109687 
L 488.552783 -479.781843 
L 490.002963 -483.531781 
L 491.453142 -484.143351 
L 492.903321 -483.638021 
L 494.353501 -481.043202 
L 495.80368 -470.237083 
L 497.253859 -474.893039 
L 498.704039 -473.91331 
L 500.154218 -466.258042 
L 501.604397 -477.801991 
L 503.054577 -481.013116 
L 504.504756 -483.559792 
L 505.954935 -477.190974 
L 507.405115 -488.059835 
L 508.855294 -490.124796 
L 510.305473 -489.700599 
L 511.755653 -484.263782 
L 513.205832 -472.914938 
L 514.656011 -458.147113 
L 516.106191 -428.453923 
L 517.55637 -430.895697 
L 519.006549 -439.133393 
L 520.456729 -431.573882 
L 521.906908 -438.242979 
L 523.357087 -451.499797 
L 524.807266 -446.380209 
L 526.257446 -455.731954 
L 527.707625 -474.017697 
L 529.157804 -482.518183 
L 530.607984 -487.15 
L 532.058163 -486.705352 
L 533.508342 -481.886758 
L 534.958522 -467.70188 
L 536.408701 -464.233655 
L 537.85888 -442.437133 
L 539.30906 -442.321671 
L 540.759239 -424.810772 
L 542.209418 -428.01243 
L 543.659598 -435.727605 
L 545.109777 -454.302068 
L 546.559956 -481.863549 
L 548.010136 -488.605881 
L 549.460315 -488.747694 
L 550.910494 -484.292913 
L 552.360674 -465.286104 
L 553.810853 -454.15711 
L 555.261032 -461.000072 
L 556.711212 -442.602909 
L 558.161391 -433.972731 
L 559.61157 -444.236665 
L 561.06175 -470.086299 
L 562.511929 -481.714056 
L 563.962108 -490.217318 
L 565.412288 -494.826945 
L 566.862467 -496.728928 
L 568.312646 -497.333668 
L 569.762826 -497.483419 
L 571.213005 -497.517096 
L 572.663184 -497.553459 
L 574.113363 -497.715916 
L 575.563543 -498.378792 
L 577.013722 -500.460593 
L 578.463901 -505.54728 
L 579.914081 -515.140792 
L 581.36426 -529.059435 
L 582.814439 -529.926121 
L 584.264619 -538.608578 
L 585.714798 -565.25215 
L 587.164977 -551.981189 
L 588.615157 -562.710156 
L 590.065336 -539.175592 
L 591.515515 -537.459654 
L 592.965695 -523.024984 
L 594.415874 -514.072398 
L 595.866053 -513.479356 
L 597.316233 -520.144052 
L 598.766412 -529.183038 
L 600.216591 -520.125708 
L 601.666771 -534.260412 
L 603.11695 -530.187243 
L 604.567129 -525.806484 
L 606.017309 -508.630534 
L 607.467488 -516.1599 
L 608.917667 -509.838594 
L 610.367847 -504.650297 
L 611.818026 -502.547825 
L 613.268205 -504.238833 
L 614.718385 -509.163051 
L 616.168564 -515.615081 
L 617.618743 -505.485986 
L 619.068923 -524.974863 
L 620.519102 -525.716592 
L 621.969281 -512.170441 
L 623.41946 -518.472505 
L 624.86964 -513.491746 
L 626.319819 -511.76222 
L 627.769998 -514.816673 
L 629.220178 -520.842732 
L 630.670357 -512.588741 
L 632.120536 -528.812304 
L 633.570716 -528.839358 
L 635.020895 -511.180739 
L 636.471074 -527.14278 
L 636.471074 -527.14278 
L 636.471074 -527.14278 
L 635.020895 -544.587831 
L 633.570716 -528.839358 
L 632.120536 -528.812304 
L 630.670357 -539.926574 
L 629.220178 -520.842732 
L 627.769998 -514.816673 
L 626.319819 -511.76222 
L 624.86964 -513.491746 
L 623.41946 -518.472505 
L 621.969281 -534.543471 
L 620.519102 -525.716592 
L 619.068923 -524.974863 
L 617.618743 -537.311228 
L 616.168564 -515.615081 
L 614.718385 -509.163051 
L 613.268205 -504.238833 
L 611.818026 -502.547825 
L 610.367847 -504.650297 
L 608.917667 -509.838594 
L 607.467488 -516.1599 
L 606.017309 -534.482094 
L 604.567129 -525.806484 
L 603.11695 -530.187243 
L 601.666771 -534.260412 
L 600.216591 -549.290497 
L 598.766412 -529.183038 
L 597.316233 -520.144052 
L 595.866053 -513.479356 
L 594.415874 -514.072398 
L 592.965695 -523.024984 
L 591.515515 -537.459654 
L 590.065336 -565.222856 
L 588.615157 -562.710156 
L 587.164977 -582.166566 
L 585.714798 -565.25215 
L 584.264619 -576.321757 
L 582.814439 -559.078253 
L 581.36426 -529.059435 
L 579.914081 -515.140792 
L 578.463901 -505.54728 
L 577.013722 -500.460593 
L 575.563543 -498.378792 
L 574.113363 -497.715916 
L 572.663184 -497.553459 
L 571.213005 -497.517096 
L 569.762826 -497.483419 
L 568.312646 -497.333668 
L 566.862467 -496.728928 
L 565.412288 -494.826945 
L 563.962108 -490.217318 
L 562.511929 -481.714056 
L 561.06175 -470.086299 
L 559.61157 -473.810312 
L 558.161391 -472.403674 
L 556.711212 -466.429127 
L 555.261032 -461.000072 
L 553.810853 -484.433308 
L 552.360674 -489.45106 
L 550.910494 -484.292913 
L 549.460315 -488.747694 
L 548.010136 -488.605881 
L 546.559956 -481.863549 
L 545.109777 -482.755906 
L 543.659598 -468.994199 
L 542.209418 -451.94834 
L 540.759239 -448.407289 
L 539.30906 -442.321671 
L 537.85888 -463.48995 
L 536.408701 -464.233655 
L 534.958522 -480.478795 
L 533.508342 -481.886758 
L 532.058163 -486.705352 
L 530.607984 -487.15 
L 529.157804 -482.518183 
L 527.707625 -474.017697 
L 526.257446 -473.406857 
L 524.807266 -467.353068 
L 523.357087 -451.499797 
L 521.906908 -456.210838 
L 520.456729 -454.185042 
L 519.006549 -439.133393 
L 517.55637 -446.915889 
L 516.106191 -462.181824 
L 514.656011 -458.147113 
L 513.205832 -472.914938 
L 511.755653 -484.263782 
L 510.305473 -489.700599 
L 508.855294 -490.124796 
L 507.405115 -488.059835 
L 505.954935 -494.167197 
L 504.504756 -483.559792 
L 503.054577 -481.013116 
L 501.604397 -477.801991 
L 500.154218 -483.755043 
L 498.704039 -473.91331 
L 497.253859 -474.893039 
L 495.80368 -484.927424 
L 494.353501 -481.043202 
L 492.903321 -483.638021 
L 491.453142 -484.143351 
L 490.002963 -483.531781 
L 488.552783 -489.432685 
L 487.102604 -489.109687 
L 485.652425 -495.610039 
L 484.202245 -508.195208 
L 482.752066 -503.127548 
L 481.301887 -503.247563 
L 479.851707 -503.509163 
L 478.401528 -505.184229 
L 476.951349 -507.569348 
L 475.501169 -514.344897 
L 474.05099 -508.619298 
L 472.600811 -507.318299 
L 471.150632 -508.931645 
L 469.700452 -510.641236 
L 468.250273 -502.175905 
L 466.800094 -497.835223 
L 465.349914 -492.571204 
L 463.899735 -488.284175 
L 462.449556 -494.681038 
L 460.999376 -495.100339 
L 459.549197 -491.825516 
L 458.099018 -494.844393 
L 456.648838 -496.601554 
L 455.198659 -497.282196 
L 453.74848 -497.371955 
L 452.2983 -497.042658 
L 450.848121 -496.025472 
L 449.397942 -493.807251 
L 447.947762 -490.037808 
L 446.497583 -484.798434 
L 445.047404 -483.149181 
L 443.597224 -470.189936 
L 442.147045 -461.182793 
L 440.696866 -464.215993 
L 439.246686 -465.206444 
L 437.796507 -451.247736 
L 436.346328 -455.719446 
L 434.896148 -475.527046 
L 433.445969 -470.214665 
L 431.99579 -477.8156 
L 430.54561 -482.61589 
L 429.095431 -483.588881 
L 427.645252 -489.167579 
L 426.195073 -474.494524 
L 424.744893 -462.210828 
L 423.294714 -444.653366 
L 421.844535 -436.648052 
L 420.394355 -425.848846 
L 418.944176 -429.502591 
L 417.493997 -418.994869 
L 416.043817 -440.639524 
L 414.593638 -433.31075 
L 413.143459 -436.781539 
L 411.693279 -453.698682 
L 410.2431 -459.299682 
L 408.792921 -458.933041 
L 407.342741 -472.489607 
L 405.892562 -481.252207 
z
" style="stroke: #9467bd; stroke-opacity: 0.2"/>
    </defs>
    <g clip-path="url(#pdcfbb5affd)">
     <use xlink:href="#m4fa113106c" x="0" y="720" style="fill: #9467bd; fill-opacity: 0.2; stroke: #9467bd; stroke-opacity: 0.2"/>
    </g>
   </g>
   <g id="PolyCollection_2">
    <defs>
     <path id="mf19610358e" d="M 405.892562 -496.777333 
L 405.892562 -496.777333 
L 407.342741 -495.574604 
L 408.792921 -492.653444 
L 410.2431 -487.755071 
L 411.693279 -481.906749 
L 413.143459 -462.795277 
L 414.593638 -469.61509 
L 416.043817 -479.257211 
L 417.493997 -476.091472 
L 418.944176 -487.986769 
L 420.394355 -490.37726 
L 421.844535 -490.800221 
L 423.294714 -484.346642 
L 424.744893 -484.514823 
L 426.195073 -482.172659 
L 427.645252 -487.576117 
L 429.095431 -481.345034 
L 430.54561 -478.629571 
L 431.99579 -480.391273 
L 433.445969 -475.363942 
L 434.896148 -485.882605 
L 436.346328 -486.104712 
L 437.796507 -487.544684 
L 439.246686 -497.382412 
L 440.696866 -497.216809 
L 442.147045 -492.873662 
L 443.597224 -493.822854 
L 445.047404 -491.510124 
L 446.497583 -482.290144 
L 447.947762 -480.007393 
L 449.397942 -472.519094 
L 450.848121 -466.942307 
L 452.2983 -451.708514 
L 453.74848 -466.795188 
L 455.198659 -467.07186 
L 456.648838 -465.137817 
L 458.099018 -454.007482 
L 459.549197 -454.59867 
L 460.999376 -468.774395 
L 462.449556 -476.940114 
L 463.899735 -480.66291 
L 465.349914 -485.320579 
L 466.800094 -481.473323 
L 468.250273 -478.243255 
L 469.700452 -487.817781 
L 471.150632 -491.178477 
L 472.600811 -494.248855 
L 474.05099 -496.205103 
L 475.501169 -497.151416 
L 476.951349 -497.576781 
L 478.401528 -497.850851 
L 479.851707 -498.015801 
L 481.301887 -497.754275 
L 482.752066 -494.683531 
L 484.202245 -494.549841 
L 485.652425 -492.285803 
L 487.102604 -482.778211 
L 488.552783 -490.039162 
L 490.002963 -487.551225 
L 491.453142 -481.678763 
L 492.903321 -470.273262 
L 494.353501 -481.815385 
L 495.80368 -488.929021 
L 497.253859 -492.372368 
L 498.704039 -495.055622 
L 500.154218 -496.343612 
L 501.604397 -496.048838 
L 503.054577 -493.42501 
L 504.504756 -486.860598 
L 505.954935 -475.155726 
L 507.405115 -456.022883 
L 508.855294 -433.96919 
L 510.305473 -427.020471 
L 511.755653 -439.871905 
L 513.205832 -460.856621 
L 514.656011 -470.623168 
L 516.106191 -473.857117 
L 517.55637 -472.379164 
L 519.006549 -461.244045 
L 520.456729 -474.648484 
L 521.906908 -480.11718 
L 523.357087 -483.328839 
L 524.807266 -480.971672 
L 526.257446 -473.731185 
L 527.707625 -457.860598 
L 529.157804 -449.847109 
L 530.607984 -461.077036 
L 532.058163 -475.219439 
L 533.508342 -477.059007 
L 534.958522 -490.446855 
L 536.408701 -494.287726 
L 537.85888 -496.219866 
L 539.30906 -497.066954 
L 540.759239 -497.386279 
L 542.209418 -497.486563 
L 543.659598 -497.511092 
L 545.109777 -497.515862 
L 546.559956 -497.516726 
L 548.010136 -497.516726 
L 549.460315 -497.50719 
L 550.910494 -497.454539 
L 552.360674 -497.190224 
L 553.810853 -496.197956 
L 555.261032 -493.309609 
L 556.711212 -486.840637 
L 558.161391 -475.710927 
L 559.61157 -461.024105 
L 561.06175 -436.631921 
L 562.511929 -434.970134 
L 563.962108 -410.321921 
L 565.412288 -427.794679 
L 566.862467 -424.298639 
L 568.312646 -435.566098 
L 569.762826 -449.556332 
L 571.213005 -466.760024 
L 572.663184 -476.513619 
L 574.113363 -474.04878 
L 575.563543 -484.263605 
L 577.013722 -490.390753 
L 578.463901 -493.206678 
L 579.914081 -494.382347 
L 581.36426 -493.428892 
L 582.814439 -490.630043 
L 584.264619 -487.202198 
L 585.714798 -478.72932 
L 587.164977 -485.010869 
L 588.615157 -481.393219 
L 590.065336 -490.856424 
L 591.515515 -490.4642 
L 592.965695 -493.179557 
L 594.415874 -495.395946 
L 595.866053 -501.908677 
L 597.316233 -500.305749 
L 598.766412 -497.453634 
L 600.216591 -494.856413 
L 601.666771 -486.023192 
L 603.11695 -493.786534 
L 604.567129 -494.933215 
L 606.017309 -496.29656 
L 607.467488 -497.681797 
L 608.917667 -499.643098 
L 610.367847 -502.99756 
L 611.818026 -507.678534 
L 613.268205 -511.678496 
L 614.718385 -500.10473 
L 616.168564 -504.948337 
L 617.618743 -492.590106 
L 619.068923 -477.83451 
L 620.519102 -458.049973 
L 621.969281 -449.57313 
L 623.41946 -422.489047 
L 624.86964 -409.630889 
L 626.319819 -405.545161 
L 627.769998 -404.935904 
L 629.220178 -416.329861 
L 630.670357 -438.780816 
L 632.120536 -437.980876 
L 633.570716 -447.7321 
L 635.020895 -474.418437 
L 636.471074 -480.05563 
L 636.471074 -480.05563 
L 636.471074 -480.05563 
L 635.020895 -474.418437 
L 633.570716 -481.971053 
L 632.120536 -467.65668 
L 630.670357 -438.780816 
L 629.220178 -432.231759 
L 627.769998 -422.60581 
L 626.319819 -419.006223 
L 624.86964 -431.780694 
L 623.41946 -447.147015 
L 621.969281 -449.57313 
L 620.519102 -468.941354 
L 619.068923 -477.83451 
L 617.618743 -492.590106 
L 616.168564 -504.948337 
L 614.718385 -523.036241 
L 613.268205 -511.678496 
L 611.818026 -507.678534 
L 610.367847 -502.99756 
L 608.917667 -499.643098 
L 607.467488 -497.681797 
L 606.017309 -496.29656 
L 604.567129 -494.933215 
L 603.11695 -493.786534 
L 601.666771 -501.121249 
L 600.216591 -494.856413 
L 598.766412 -497.453634 
L 597.316233 -500.305749 
L 595.866053 -501.908677 
L 594.415874 -507.076427 
L 592.965695 -503.822642 
L 591.515515 -499.048399 
L 590.065336 -490.856424 
L 588.615157 -493.264191 
L 587.164977 -485.010869 
L 585.714798 -491.112521 
L 584.264619 -487.202198 
L 582.814439 -490.630043 
L 581.36426 -493.428892 
L 579.914081 -494.382347 
L 578.463901 -493.206678 
L 577.013722 -490.390753 
L 575.563543 -489.27643 
L 574.113363 -491.103531 
L 572.663184 -476.513619 
L 571.213005 -466.760024 
L 569.762826 -457.788675 
L 568.312646 -445.825578 
L 566.862467 -438.939591 
L 565.412288 -427.794679 
L 563.962108 -447.455052 
L 562.511929 -434.970134 
L 561.06175 -455.816483 
L 559.61157 -461.024105 
L 558.161391 -475.710927 
L 556.711212 -486.840637 
L 555.261032 -493.309609 
L 553.810853 -496.197956 
L 552.360674 -497.190224 
L 550.910494 -497.454539 
L 549.460315 -497.50719 
L 548.010136 -497.516726 
L 546.559956 -497.516726 
L 545.109777 -497.515862 
L 543.659598 -497.511092 
L 542.209418 -497.486563 
L 540.759239 -497.386279 
L 539.30906 -497.066954 
L 537.85888 -496.219866 
L 536.408701 -494.287726 
L 534.958522 -490.446855 
L 533.508342 -490.852376 
L 532.058163 -475.219439 
L 530.607984 -472.704486 
L 529.157804 -476.283694 
L 527.707625 -474.210328 
L 526.257446 -473.731185 
L 524.807266 -480.971672 
L 523.357087 -483.328839 
L 521.906908 -480.11718 
L 520.456729 -474.648484 
L 519.006549 -481.809457 
L 517.55637 -472.379164 
L 516.106191 -473.857117 
L 514.656011 -470.623168 
L 513.205832 -460.856621 
L 511.755653 -458.056223 
L 510.305473 -458.415034 
L 508.855294 -460.068887 
L 507.405115 -463.967858 
L 505.954935 -475.155726 
L 504.504756 -486.860598 
L 503.054577 -493.42501 
L 501.604397 -496.048838 
L 500.154218 -496.343612 
L 498.704039 -495.055622 
L 497.253859 -492.372368 
L 495.80368 -488.929021 
L 494.353501 -490.695167 
L 492.903321 -501.263091 
L 491.453142 -492.825913 
L 490.002963 -490.543455 
L 488.552783 -490.039162 
L 487.102604 -498.771674 
L 485.652425 -492.285803 
L 484.202245 -494.549841 
L 482.752066 -498.546134 
L 481.301887 -497.754275 
L 479.851707 -498.015801 
L 478.401528 -497.850851 
L 476.951349 -497.576781 
L 475.501169 -497.151416 
L 474.05099 -496.205103 
L 472.600811 -494.248855 
L 471.150632 -491.178477 
L 469.700452 -487.817781 
L 468.250273 -493.003312 
L 466.800094 -489.031184 
L 465.349914 -485.320579 
L 463.899735 -485.480265 
L 462.449556 -476.940114 
L 460.999376 -468.774395 
L 459.549197 -471.358125 
L 458.099018 -470.743212 
L 456.648838 -465.137817 
L 455.198659 -467.07186 
L 453.74848 -466.795188 
L 452.2983 -482.380291 
L 450.848121 -474.365145 
L 449.397942 -481.605568 
L 447.947762 -487.083661 
L 446.497583 -494.390152 
L 445.047404 -491.510124 
L 443.597224 -493.822854 
L 442.147045 -498.657093 
L 440.696866 -497.216809 
L 439.246686 -497.382412 
L 437.796507 -503.01861 
L 436.346328 -495.706401 
L 434.896148 -485.882605 
L 433.445969 -489.757725 
L 431.99579 -483.903908 
L 430.54561 -489.158779 
L 429.095431 -490.831525 
L 427.645252 -487.576117 
L 426.195073 -494.528169 
L 424.744893 -493.575968 
L 423.294714 -495.689128 
L 421.844535 -490.800221 
L 420.394355 -490.37726 
L 418.944176 -487.986769 
L 417.493997 -491.542208 
L 416.043817 -479.257211 
L 414.593638 -483.462447 
L 413.143459 -492.135751 
L 411.693279 -481.906749 
L 410.2431 -487.755071 
L 408.792921 -492.653444 
L 407.342741 -495.574604 
L 405.892562 -496.777333 
z
" style="stroke: #1f77b4; stroke-opacity: 0.2"/>
    </defs>
    <g clip-path="url(#pdcfbb5affd)">
     <use xlink:href="#mf19610358e" x="0" y="720" style="fill: #1f77b4; fill-opacity: 0.2; stroke: #1f77b4; stroke-opacity: 0.2"/>
    </g>
   </g>
   <g id="PolyCollection_3">
    <defs>
     <path id="mb1b5cd47d3" d="M 405.892562 -437.315644 
L 405.892562 -417.462838 
L 407.342741 -434.410186 
L 408.792921 -431.329744 
L 410.2431 -462.297312 
L 411.693279 -476.719358 
L 413.143459 -487.381998 
L 414.593638 -493.525629 
L 416.043817 -496.263739 
L 417.493997 -497.207126 
L 418.944176 -497.457336 
L 420.394355 -497.507618 
L 421.844535 -497.516726 
L 423.294714 -497.516726 
L 424.744893 -497.516726 
L 426.195073 -497.516726 
L 427.645252 -497.516726 
L 429.095431 -497.516726 
L 430.54561 -497.516726 
L 431.99579 -497.519144 
L 433.445969 -497.532489 
L 434.896148 -497.596776 
L 436.346328 -497.833331 
L 437.796507 -498.491938 
L 439.246686 -499.856138 
L 440.696866 -501.887322 
L 442.147045 -503.878625 
L 443.597224 -492.12696 
L 445.047404 -503.987995 
L 446.497583 -502.352368 
L 447.947762 -501.368447 
L 449.397942 -502.341826 
L 450.848121 -505.484719 
L 452.2983 -509.40966 
L 453.74848 -503.025372 
L 455.198659 -498.995302 
L 456.648838 -493.942533 
L 458.099018 -501.312051 
L 459.549197 -498.395909 
L 460.999376 -497.332061 
L 462.449556 -497.240802 
L 463.899735 -497.363445 
L 465.349914 -497.381099 
L 466.800094 -497.137651 
L 468.250273 -496.367823 
L 469.700452 -494.718799 
L 471.150632 -492.085584 
L 472.600811 -488.913329 
L 474.05099 -479.375173 
L 475.501169 -483.115181 
L 476.951349 -480.582666 
L 478.401528 -470.901496 
L 479.851707 -473.711367 
L 481.301887 -481.466165 
L 482.752066 -484.708657 
L 484.202245 -487.377685 
L 485.652425 -482.990103 
L 487.102604 -491.389626 
L 488.552783 -493.608293 
L 490.002963 -495.618334 
L 491.453142 -497.010432 
L 492.903321 -497.45284 
L 494.353501 -496.128829 
L 495.80368 -491.706921 
L 497.253859 -475.428909 
L 498.704039 -463.881746 
L 500.154218 -465.573508 
L 501.604397 -453.068884 
L 503.054577 -459.180139 
L 504.504756 -476.412281 
L 505.954935 -484.436678 
L 507.405115 -487.993428 
L 508.855294 -485.037314 
L 510.305473 -475.942214 
L 511.755653 -464.309833 
L 513.205832 -444.171737 
L 514.656011 -447.115617 
L 516.106191 -465.966779 
L 517.55637 -477.846735 
L 519.006549 -487.318736 
L 520.456729 -492.418754 
L 521.906908 -494.244376 
L 523.357087 -491.460341 
L 524.807266 -494.874459 
L 526.257446 -494.670117 
L 527.707625 -493.411083 
L 529.157804 -490.789696 
L 530.607984 -487.475085 
L 532.058163 -476.109027 
L 533.508342 -483.704566 
L 534.958522 -484.60566 
L 536.408701 -477.434981 
L 537.85888 -491.341364 
L 539.30906 -487.796237 
L 540.759239 -497.514506 
L 542.209418 -497.741407 
L 543.659598 -495.950049 
L 545.109777 -492.235623 
L 546.559956 -487.042523 
L 548.010136 -482.106179 
L 549.460315 -468.136637 
L 550.910494 -482.066039 
L 552.360674 -486.878867 
L 553.810853 -491.729505 
L 555.261032 -494.730879 
L 556.711212 -495.434884 
L 558.161391 -494.057777 
L 559.61157 -491.020567 
L 561.06175 -487.243784 
L 562.511929 -474.587412 
L 563.962108 -483.085286 
L 565.412288 -473.33567 
L 566.862467 -485.074504 
L 568.312646 -485.263583 
L 569.762826 -484.141933 
L 571.213005 -471.67229 
L 572.663184 -476.836709 
L 574.113363 -481.810131 
L 575.563543 -480.086745 
L 577.013722 -465.188084 
L 578.463901 -466.988205 
L 579.914081 -460.945463 
L 581.36426 -464.789915 
L 582.814439 -477.963162 
L 584.264619 -485.598026 
L 585.714798 -491.73586 
L 587.164977 -495.297514 
L 588.615157 -496.844471 
L 590.065336 -497.356764 
L 591.515515 -497.486414 
L 592.965695 -497.512948 
L 594.415874 -497.516726 
L 595.866053 -497.5139 
L 597.316233 -497.498295 
L 598.766412 -497.423123 
L 600.216591 -497.146517 
L 601.666771 -496.376401 
L 603.11695 -494.781227 
L 604.567129 -492.39568 
L 606.017309 -490.012649 
L 607.467488 -480.827989 
L 608.917667 -488.71063 
L 610.367847 -488.185507 
L 611.818026 -484.65645 
L 613.268205 -477.460826 
L 614.718385 -469.624518 
L 616.168564 -455.162226 
L 617.618743 -469.976296 
L 619.068923 -478.598325 
L 620.519102 -487.391949 
L 621.969281 -493.296091 
L 623.41946 -496.146487 
L 624.86964 -497.162086 
L 626.319819 -497.386914 
L 627.769998 -497.18166 
L 629.220178 -496.1729 
L 630.670357 -493.140185 
L 632.120536 -486.287127 
L 633.570716 -474.783918 
L 635.020895 -461.165361 
L 636.471074 -433.309522 
L 636.471074 -469.809805 
L 636.471074 -469.809805 
L 635.020895 -461.165361 
L 633.570716 -474.783918 
L 632.120536 -486.287127 
L 630.670357 -493.140185 
L 629.220178 -496.1729 
L 627.769998 -497.18166 
L 626.319819 -497.386914 
L 624.86964 -497.162086 
L 623.41946 -496.146487 
L 621.969281 -493.296091 
L 620.519102 -487.391949 
L 619.068923 -478.598325 
L 617.618743 -469.976296 
L 616.168564 -477.310999 
L 614.718385 -469.624518 
L 613.268205 -477.460826 
L 611.818026 -484.65645 
L 610.367847 -488.185507 
L 608.917667 -488.71063 
L 607.467488 -496.660704 
L 606.017309 -490.012649 
L 604.567129 -492.39568 
L 603.11695 -494.781227 
L 601.666771 -496.376401 
L 600.216591 -497.146517 
L 598.766412 -497.423123 
L 597.316233 -497.498295 
L 595.866053 -497.5139 
L 594.415874 -497.516726 
L 592.965695 -497.512948 
L 591.515515 -497.486414 
L 590.065336 -497.356764 
L 588.615157 -496.844471 
L 587.164977 -495.297514 
L 585.714798 -491.73586 
L 584.264619 -485.598026 
L 582.814439 -477.963162 
L 581.36426 -478.682009 
L 579.914081 -478.410003 
L 578.463901 -477.043124 
L 577.013722 -487.621954 
L 575.563543 -480.086745 
L 574.113363 -481.810131 
L 572.663184 -487.623368 
L 571.213005 -493.965472 
L 569.762826 -484.141933 
L 568.312646 -485.263583 
L 566.862467 -485.074504 
L 565.412288 -494.338482 
L 563.962108 -483.085286 
L 562.511929 -493.810613 
L 561.06175 -487.243784 
L 559.61157 -491.020567 
L 558.161391 -494.057777 
L 556.711212 -495.434884 
L 555.261032 -494.730879 
L 553.810853 -491.729505 
L 552.360674 -486.878867 
L 550.910494 -482.066039 
L 549.460315 -491.901402 
L 548.010136 -482.106179 
L 546.559956 -487.042523 
L 545.109777 -492.235623 
L 543.659598 -495.950049 
L 542.209418 -497.741407 
L 540.759239 -497.514506 
L 539.30906 -502.584361 
L 537.85888 -491.341364 
L 536.408701 -497.29416 
L 534.958522 -484.60566 
L 533.508342 -483.704566 
L 532.058163 -493.437457 
L 530.607984 -487.475085 
L 529.157804 -490.789696 
L 527.707625 -493.411083 
L 526.257446 -494.670117 
L 524.807266 -494.874459 
L 523.357087 -497.945367 
L 521.906908 -494.244376 
L 520.456729 -492.418754 
L 519.006549 -487.318736 
L 517.55637 -477.846735 
L 516.106191 -465.966779 
L 514.656011 -466.985773 
L 513.205832 -468.539681 
L 511.755653 -464.309833 
L 510.305473 -475.942214 
L 508.855294 -485.037314 
L 507.405115 -487.993428 
L 505.954935 -484.436678 
L 504.504756 -476.412281 
L 503.054577 -476.541005 
L 501.604397 -473.630162 
L 500.154218 -465.573508 
L 498.704039 -483.300297 
L 497.253859 -491.7951 
L 495.80368 -491.706921 
L 494.353501 -496.128829 
L 492.903321 -497.45284 
L 491.453142 -497.010432 
L 490.002963 -495.618334 
L 488.552783 -493.608293 
L 487.102604 -491.389626 
L 485.652425 -495.770056 
L 484.202245 -487.377685 
L 482.752066 -484.708657 
L 481.301887 -481.466165 
L 479.851707 -484.417328 
L 478.401528 -486.784141 
L 476.951349 -480.582666 
L 475.501169 -483.115181 
L 474.05099 -492.342675 
L 472.600811 -488.913329 
L 471.150632 -492.085584 
L 469.700452 -494.718799 
L 468.250273 -496.367823 
L 466.800094 -497.137651 
L 465.349914 -497.381099 
L 463.899735 -497.363445 
L 462.449556 -497.240802 
L 460.999376 -497.332061 
L 459.549197 -498.395909 
L 458.099018 -501.312051 
L 456.648838 -517.869943 
L 455.198659 -521.362177 
L 453.74848 -520.128821 
L 452.2983 -509.40966 
L 450.848121 -505.484719 
L 449.397942 -502.341826 
L 447.947762 -501.368447 
L 446.497583 -502.352368 
L 445.047404 -503.987995 
L 443.597224 -517.361149 
L 442.147045 -503.878625 
L 440.696866 -501.887322 
L 439.246686 -499.856138 
L 437.796507 -498.491938 
L 436.346328 -497.833331 
L 434.896148 -497.596776 
L 433.445969 -497.532489 
L 431.99579 -497.519144 
L 430.54561 -497.516726 
L 429.095431 -497.516726 
L 427.645252 -497.516726 
L 426.195073 -497.516726 
L 424.744893 -497.516726 
L 423.294714 -497.516726 
L 421.844535 -497.516726 
L 420.394355 -497.507618 
L 418.944176 -497.457336 
L 417.493997 -497.207126 
L 416.043817 -496.263739 
L 414.593638 -493.525629 
L 413.143459 -487.381998 
L 411.693279 -476.719358 
L 410.2431 -462.297312 
L 408.792921 -462.651744 
L 407.342741 -434.410186 
L 405.892562 -437.315644 
z
" style="stroke: #d62728; stroke-opacity: 0.2"/>
    </defs>
    <g clip-path="url(#pdcfbb5affd)">
     <use xlink:href="#mb1b5cd47d3" x="0" y="720" style="fill: #d62728; fill-opacity: 0.2; stroke: #d62728; stroke-opacity: 0.2"/>
    </g>
   </g>
   <g id="PolyCollection_4">
    <defs>
     <path id="m12b31d899a" d="M 405.892562 -604.299167 
L 405.892562 -604.299167 
L 407.342741 -562.654118 
L 408.792921 -570.508394 
L 410.2431 -544.163624 
L 411.693279 -521.595144 
L 413.143459 -507.378879 
L 414.593638 -500.691627 
L 416.043817 -498.313384 
L 417.493997 -497.673597 
L 418.944176 -497.540783 
L 420.394355 -497.516726 
L 421.844535 -497.516726 
L 423.294714 -497.516726 
L 424.744893 -497.516726 
L 426.195073 -497.516726 
L 427.645252 -497.516726 
L 429.095431 -497.516726 
L 430.54561 -497.516726 
L 431.99579 -497.516726 
L 433.445969 -497.516726 
L 434.896148 -497.516726 
L 436.346328 -497.516726 
L 437.796507 -497.516726 
L 439.246686 -497.516726 
L 440.696866 -497.516726 
L 442.147045 -497.516726 
L 443.597224 -497.516726 
L 445.047404 -497.516726 
L 446.497583 -497.516726 
L 447.947762 -497.516726 
L 449.397942 -497.516726 
L 450.848121 -497.516726 
L 452.2983 -497.516726 
L 453.74848 -497.522606 
L 455.198659 -497.555067 
L 456.648838 -497.711435 
L 458.099018 -498.286816 
L 459.549197 -499.888768 
L 460.999376 -503.20347 
L 462.449556 -508.124727 
L 463.899735 -512.868824 
L 465.349914 -501.048508 
L 466.800094 -511.602106 
L 468.250273 -504.899993 
L 469.700452 -497.411942 
L 471.150632 -492.298082 
L 472.600811 -477.859754 
L 474.05099 -495.803914 
L 475.501169 -502.139586 
L 476.951349 -494.835817 
L 478.401528 -509.063993 
L 479.851707 -508.000417 
L 481.301887 -499.614562 
L 482.752066 -502.934174 
L 484.202245 -500.679319 
L 485.652425 -499.066553 
L 487.102604 -498.134267 
L 488.552783 -497.712838 
L 490.002963 -497.565321 
L 491.453142 -497.526295 
L 492.903321 -497.533457 
L 494.353501 -497.616254 
L 495.80368 -498.022171 
L 497.253859 -499.5158 
L 498.704039 -503.674306 
L 500.154218 -512.287991 
L 501.604397 -525.113082 
L 503.054577 -537.669188 
L 504.504756 -520.939179 
L 505.954935 -537.669188 
L 507.405115 -525.113082 
L 508.855294 -512.287991 
L 510.305473 -503.674306 
L 511.755653 -499.5158 
L 513.205832 -498.022171 
L 514.656011 -497.616254 
L 516.106191 -497.531989 
L 517.55637 -497.516726 
L 519.006549 -497.516726 
L 520.456729 -497.516726 
L 521.906908 -497.516726 
L 523.357087 -497.516726 
L 524.807266 -497.516726 
L 526.257446 -497.516726 
L 527.707625 -497.516726 
L 529.157804 -497.516726 
L 530.607984 -497.516726 
L 532.058163 -497.516726 
L 533.508342 -497.516726 
L 534.958522 -497.523972 
L 536.408701 -497.572419 
L 537.85888 -497.811738 
L 539.30906 -498.753386 
L 540.759239 -501.598101 
L 542.209418 -508.200944 
L 543.659598 -519.846232 
L 545.109777 -535.126372 
L 546.559956 -538.472575 
L 548.010136 -543.342523 
L 549.460315 -556.918119 
L 550.910494 -530.977518 
L 552.360674 -543.171062 
L 553.810853 -535.972739 
L 555.261032 -512.107632 
L 556.711212 -520.688737 
L 558.161391 -512.107942 
L 559.61157 -505.005528 
L 561.06175 -500.576637 
L 562.511929 -498.501183 
L 563.962108 -497.76361 
L 565.412288 -497.56534 
L 566.862467 -497.524181 
L 568.312646 -497.516726 
L 569.762826 -497.516726 
L 571.213005 -497.516726 
L 572.663184 -497.516726 
L 574.113363 -497.516726 
L 575.563543 -497.516726 
L 577.013722 -497.516726 
L 578.463901 -497.516726 
L 579.914081 -497.516726 
L 581.36426 -497.516726 
L 582.814439 -497.516726 
L 584.264619 -497.513268 
L 585.714798 -497.488772 
L 587.164977 -497.361269 
L 588.615157 -496.84769 
L 590.065336 -495.22518 
L 591.515515 -491.240366 
L 592.965695 -483.708498 
L 594.415874 -472.987181 
L 595.866053 -453.776477 
L 597.316233 -443.226514 
L 598.766412 -446.910211 
L 600.216591 -457.922089 
L 601.666771 -461.229637 
L 603.11695 -452.310223 
L 604.567129 -451.204764 
L 606.017309 -460.457855 
L 607.467488 -456.212229 
L 608.917667 -437.907801 
L 610.367847 -438.085693 
L 611.818026 -437.235791 
L 613.268205 -447.576029 
L 614.718385 -468.365293 
L 616.168564 -476.482206 
L 617.618743 -480.816252 
L 619.068923 -475.162155 
L 620.519102 -486.28115 
L 621.969281 -490.082809 
L 623.41946 -493.588962 
L 624.86964 -495.887036 
L 626.319819 -496.98864 
L 627.769998 -497.383205 
L 629.220178 -497.490434 
L 630.670357 -497.512694 
L 632.120536 -497.516726 
L 633.570716 -497.516726 
L 635.020895 -497.516726 
L 636.471074 -497.516726 
L 636.471074 -497.516726 
L 636.471074 -497.516726 
L 635.020895 -497.516726 
L 633.570716 -497.516726 
L 632.120536 -497.516726 
L 630.670357 -497.512694 
L 629.220178 -497.490434 
L 627.769998 -497.383205 
L 626.319819 -496.98864 
L 624.86964 -495.887036 
L 623.41946 -493.588962 
L 621.969281 -490.082809 
L 620.519102 -486.28115 
L 619.068923 -491.464395 
L 617.618743 -480.816252 
L 616.168564 -476.482206 
L 614.718385 -468.365293 
L 613.268205 -468.000114 
L 611.818026 -461.241065 
L 610.367847 -455.444007 
L 608.917667 -462.831926 
L 607.467488 -456.212229 
L 606.017309 -460.457855 
L 604.567129 -473.321872 
L 603.11695 -472.765571 
L 601.666771 -461.229637 
L 600.216591 -457.922089 
L 598.766412 -462.259909 
L 597.316233 -467.260432 
L 595.866053 -470.35714 
L 594.415874 -472.987181 
L 592.965695 -483.708498 
L 591.515515 -491.240366 
L 590.065336 -495.22518 
L 588.615157 -496.84769 
L 587.164977 -497.361269 
L 585.714798 -497.488772 
L 584.264619 -497.513268 
L 582.814439 -497.516726 
L 581.36426 -497.516726 
L 579.914081 -497.516726 
L 578.463901 -497.516726 
L 577.013722 -497.516726 
L 575.563543 -497.516726 
L 574.113363 -497.516726 
L 572.663184 -497.516726 
L 571.213005 -497.516726 
L 569.762826 -497.516726 
L 568.312646 -497.516726 
L 566.862467 -497.524181 
L 565.412288 -497.56534 
L 563.962108 -497.76361 
L 562.511929 -498.501183 
L 561.06175 -500.576637 
L 559.61157 -505.005528 
L 558.161391 -512.107942 
L 556.711212 -520.688737 
L 555.261032 -545.574962 
L 553.810853 -535.972739 
L 552.360674 -543.171062 
L 550.910494 -570.817693 
L 549.460315 -556.918119 
L 548.010136 -571.084105 
L 546.559956 -560.189462 
L 545.109777 -535.126372 
L 543.659598 -519.846232 
L 542.209418 -508.200944 
L 540.759239 -501.598101 
L 539.30906 -498.753386 
L 537.85888 -497.811738 
L 536.408701 -497.572419 
L 534.958522 -497.523972 
L 533.508342 -497.516726 
L 532.058163 -497.516726 
L 530.607984 -497.516726 
L 529.157804 -497.516726 
L 527.707625 -497.516726 
L 526.257446 -497.516726 
L 524.807266 -497.516726 
L 523.357087 -497.516726 
L 521.906908 -497.516726 
L 520.456729 -497.516726 
L 519.006549 -497.516726 
L 517.55637 -497.516726 
L 516.106191 -497.531989 
L 514.656011 -497.616254 
L 513.205832 -498.022171 
L 511.755653 -499.5158 
L 510.305473 -503.674306 
L 508.855294 -512.287991 
L 507.405115 -525.113082 
L 505.954935 -537.669188 
L 504.504756 -565.091673 
L 503.054577 -537.669188 
L 501.604397 -525.113082 
L 500.154218 -512.287991 
L 498.704039 -503.674306 
L 497.253859 -499.5158 
L 495.80368 -498.022171 
L 494.353501 -497.616254 
L 492.903321 -497.533457 
L 491.453142 -497.526295 
L 490.002963 -497.565321 
L 488.552783 -497.712838 
L 487.102604 -498.134267 
L 485.652425 -499.066553 
L 484.202245 -500.679319 
L 482.752066 -502.934174 
L 481.301887 -511.516195 
L 479.851707 -508.000417 
L 478.401528 -509.063993 
L 476.951349 -519.642509 
L 475.501169 -502.139586 
L 474.05099 -495.803914 
L 472.600811 -505.585944 
L 471.150632 -492.298082 
L 469.700452 -497.411942 
L 468.250273 -504.899993 
L 466.800094 -511.602106 
L 465.349914 -528.132982 
L 463.899735 -512.868824 
L 462.449556 -508.124727 
L 460.999376 -503.20347 
L 459.549197 -499.888768 
L 458.099018 -498.286816 
L 456.648838 -497.711435 
L 455.198659 -497.555067 
L 453.74848 -497.522606 
L 452.2983 -497.516726 
L 450.848121 -497.516726 
L 449.397942 -497.516726 
L 447.947762 -497.516726 
L 446.497583 -497.516726 
L 445.047404 -497.516726 
L 443.597224 -497.516726 
L 442.147045 -497.516726 
L 440.696866 -497.516726 
L 439.246686 -497.516726 
L 437.796507 -497.516726 
L 436.346328 -497.516726 
L 434.896148 -497.516726 
L 433.445969 -497.516726 
L 431.99579 -497.516726 
L 430.54561 -497.516726 
L 429.095431 -497.516726 
L 427.645252 -497.516726 
L 426.195073 -497.516726 
L 424.744893 -497.516726 
L 423.294714 -497.516726 
L 421.844535 -497.516726 
L 420.394355 -497.516726 
L 418.944176 -497.540783 
L 417.493997 -497.673597 
L 416.043817 -498.313384 
L 414.593638 -500.691627 
L 413.143459 -507.378879 
L 411.693279 -521.595144 
L 410.2431 -544.163624 
L 408.792921 -570.508394 
L 407.342741 -622.368595 
L 405.892562 -604.299167 
z
" style="stroke: #ff7f0e; stroke-opacity: 0.2"/>
    </defs>
    <g clip-path="url(#pdcfbb5affd)">
     <use xlink:href="#m12b31d899a" x="0" y="720" style="fill: #ff7f0e; fill-opacity: 0.2; stroke: #ff7f0e; stroke-opacity: 0.2"/>
    </g>
   </g>
   <g id="matplotlib.axis_3">
    <g id="xtick_7">
     <g id="line2d_13">
      <g>
       <use xlink:href="#m60ee07fdf3" x="405.863558" y="333.490909" style="stroke: #000000; stroke-width: 0.8"/>
      </g>
     </g>
     <g id="text_13">
      <!-- 0 -->
      <g transform="translate(402.682308 348.089347)scale(0.1 -0.1)">
       <use xlink:href="#DejaVuSans-30"/>
      </g>
     </g>
    </g>
    <g id="xtick_8">
     <g id="line2d_14">
      <g>
       <use xlink:href="#m60ee07fdf3" x="463.870731" y="333.490909" style="stroke: #000000; stroke-width: 0.8"/>
      </g>
     </g>
     <g id="text_14">
      <!-- 2000 -->
      <g transform="translate(451.145731 348.089347)scale(0.1 -0.1)">
       <use xlink:href="#DejaVuSans-32"/>
       <use xlink:href="#DejaVuSans-30" x="63.623047"/>
       <use xlink:href="#DejaVuSans-30" x="127.246094"/>
       <use xlink:href="#DejaVuSans-30" x="190.869141"/>
      </g>
     </g>
    </g>
    <g id="xtick_9">
     <g id="line2d_15">
      <g>
       <use xlink:href="#m60ee07fdf3" x="521.877904" y="333.490909" style="stroke: #000000; stroke-width: 0.8"/>
      </g>
     </g>
     <g id="text_15">
      <!-- 4000 -->
      <g transform="translate(509.152904 348.089347)scale(0.1 -0.1)">
       <use xlink:href="#DejaVuSans-34"/>
       <use xlink:href="#DejaVuSans-30" x="63.623047"/>
       <use xlink:href="#DejaVuSans-30" x="127.246094"/>
       <use xlink:href="#DejaVuSans-30" x="190.869141"/>
      </g>
     </g>
    </g>
    <g id="xtick_10">
     <g id="line2d_16">
      <g>
       <use xlink:href="#m60ee07fdf3" x="579.885077" y="333.490909" style="stroke: #000000; stroke-width: 0.8"/>
      </g>
     </g>
     <g id="text_16">
      <!-- 6000 -->
      <g transform="translate(567.160077 348.089347)scale(0.1 -0.1)">
       <use xlink:href="#DejaVuSans-36"/>
       <use xlink:href="#DejaVuSans-30" x="63.623047"/>
       <use xlink:href="#DejaVuSans-30" x="127.246094"/>
       <use xlink:href="#DejaVuSans-30" x="190.869141"/>
      </g>
     </g>
    </g>
    <g id="xtick_11">
     <g id="line2d_17">
      <g>
       <use xlink:href="#m60ee07fdf3" x="637.89225" y="333.490909" style="stroke: #000000; stroke-width: 0.8"/>
      </g>
     </g>
     <g id="text_17">
      <!-- 8000 -->
      <g transform="translate(625.16725 348.089347)scale(0.1 -0.1)">
       <use xlink:href="#DejaVuSans-38"/>
       <use xlink:href="#DejaVuSans-30" x="63.623047"/>
       <use xlink:href="#DejaVuSans-30" x="127.246094"/>
       <use xlink:href="#DejaVuSans-30" x="190.869141"/>
      </g>
     </g>
    </g>
   </g>
   <g id="matplotlib.axis_4">
    <g id="ytick_7">
     <g id="line2d_18">
      <g>
       <use xlink:href="#mdf4e6c2bf6" x="394.363636" y="311.321388" style="stroke: #000000; stroke-width: 0.8"/>
      </g>
     </g>
     <g id="text_18">
      <!-- −1.0 -->
      <g transform="translate(363.080824 315.120606)scale(0.1 -0.1)">
       <defs>
        <path id="DejaVuSans-2212" d="M 678 2272 
L 4684 2272 
L 4684 1741 
L 678 1741 
L 678 2272 
z
" transform="scale(0.015625)"/>
       </defs>
       <use xlink:href="#DejaVuSans-2212"/>
       <use xlink:href="#DejaVuSans-31" x="83.789062"/>
       <use xlink:href="#DejaVuSans-2e" x="147.412109"/>
       <use xlink:href="#DejaVuSans-30" x="179.199219"/>
      </g>
     </g>
    </g>
    <g id="ytick_8">
     <g id="line2d_19">
      <g>
       <use xlink:href="#mdf4e6c2bf6" x="394.363636" y="266.902331" style="stroke: #000000; stroke-width: 0.8"/>
      </g>
     </g>
     <g id="text_19">
      <!-- −0.5 -->
      <g transform="translate(363.080824 270.701549)scale(0.1 -0.1)">
       <defs>
        <path id="DejaVuSans-35" d="M 691 4666 
L 3169 4666 
L 3169 4134 
L 1269 4134 
L 1269 2991 
Q 1406 3038 1543 3061 
Q 1681 3084 1819 3084 
Q 2600 3084 3056 2656 
Q 3513 2228 3513 1497 
Q 3513 744 3044 326 
Q 2575 -91 1722 -91 
Q 1428 -91 1123 -41 
Q 819 9 494 109 
L 494 744 
Q 775 591 1075 516 
Q 1375 441 1709 441 
Q 2250 441 2565 725 
Q 2881 1009 2881 1497 
Q 2881 1984 2565 2268 
Q 2250 2553 1709 2553 
Q 1456 2553 1204 2497 
Q 953 2441 691 2322 
L 691 4666 
z
" transform="scale(0.015625)"/>
       </defs>
       <use xlink:href="#DejaVuSans-2212"/>
       <use xlink:href="#DejaVuSans-30" x="83.789062"/>
       <use xlink:href="#DejaVuSans-2e" x="147.412109"/>
       <use xlink:href="#DejaVuSans-35" x="179.199219"/>
      </g>
     </g>
    </g>
    <g id="ytick_9">
     <g id="line2d_20">
      <g>
       <use xlink:href="#mdf4e6c2bf6" x="394.363636" y="222.483274" style="stroke: #000000; stroke-width: 0.8"/>
      </g>
     </g>
     <g id="text_20">
      <!-- 0.0 -->
      <g transform="translate(371.460511 226.282493)scale(0.1 -0.1)">
       <use xlink:href="#DejaVuSans-30"/>
       <use xlink:href="#DejaVuSans-2e" x="63.623047"/>
       <use xlink:href="#DejaVuSans-30" x="95.410156"/>
      </g>
     </g>
    </g>
    <g id="ytick_10">
     <g id="line2d_21">
      <g>
       <use xlink:href="#mdf4e6c2bf6" x="394.363636" y="178.064217" style="stroke: #000000; stroke-width: 0.8"/>
      </g>
     </g>
     <g id="text_21">
      <!-- 0.5 -->
      <g transform="translate(371.460511 181.863436)scale(0.1 -0.1)">
       <use xlink:href="#DejaVuSans-30"/>
       <use xlink:href="#DejaVuSans-2e" x="63.623047"/>
       <use xlink:href="#DejaVuSans-35" x="95.410156"/>
      </g>
     </g>
    </g>
    <g id="ytick_11">
     <g id="line2d_22">
      <g>
       <use xlink:href="#mdf4e6c2bf6" x="394.363636" y="133.64516" style="stroke: #000000; stroke-width: 0.8"/>
      </g>
     </g>
     <g id="text_22">
      <!-- 1.0 -->
      <g transform="translate(371.460511 137.444379)scale(0.1 -0.1)">
       <use xlink:href="#DejaVuSans-31"/>
       <use xlink:href="#DejaVuSans-2e" x="63.623047"/>
       <use xlink:href="#DejaVuSans-30" x="95.410156"/>
      </g>
     </g>
    </g>
    <g id="ytick_12">
     <g id="line2d_23">
      <g>
       <use xlink:href="#mdf4e6c2bf6" x="394.363636" y="89.226103" style="stroke: #000000; stroke-width: 0.8"/>
      </g>
     </g>
     <g id="text_23">
      <!-- 1.5 -->
      <g transform="translate(371.460511 93.025322)scale(0.1 -0.1)">
       <use xlink:href="#DejaVuSans-31"/>
       <use xlink:href="#DejaVuSans-2e" x="63.623047"/>
       <use xlink:href="#DejaVuSans-35" x="95.410156"/>
      </g>
     </g>
    </g>
   </g>
   <g id="line2d_24">
    <path d="M 405.892562 238.747793 
L 407.342741 247.510393 
L 408.792921 261.066959 
L 410.2431 273.295584 
L 411.693279 280.225288 
L 413.143459 283.218461 
L 414.593638 286.68925 
L 416.043817 293.093524 
L 417.493997 301.005131 
L 418.944176 306.378457 
L 420.394355 304.521795 
L 421.844535 293.167383 
L 424.744893 257.789172 
L 426.195073 245.505476 
L 427.645252 238.939984 
L 429.095431 236.411119 
L 430.54561 237.38411 
L 431.99579 242.1844 
L 434.896148 257.739598 
L 436.346328 264.280554 
L 437.796507 268.752264 
L 439.246686 269.975884 
L 440.696866 266.468187 
L 442.147045 258.817207 
L 443.597224 249.810064 
L 445.047404 241.767616 
L 446.497583 235.201566 
L 447.947762 229.962192 
L 449.397942 226.192749 
L 450.848121 223.974528 
L 452.2983 222.957342 
L 453.74848 222.628045 
L 455.198659 222.717804 
L 456.648838 223.398446 
L 458.099018 225.155607 
L 459.549197 228.174484 
L 460.999376 231.509423 
L 462.449556 233.189867 
L 463.899735 231.715825 
L 465.349914 227.428796 
L 466.800094 222.164777 
L 468.250273 217.824095 
L 469.700452 215.243084 
L 472.600811 212.681701 
L 474.05099 211.380702 
L 475.501169 211.02537 
L 476.951349 212.430652 
L 478.401528 214.815771 
L 479.851707 216.490837 
L 481.301887 216.752437 
L 482.752066 216.872452 
L 484.202245 219.106894 
L 485.652425 224.389961 
L 487.102604 230.890313 
L 488.552783 235.392736 
L 490.002963 236.468219 
L 491.453142 235.856649 
L 492.903321 236.361979 
L 494.353501 238.956798 
L 495.80368 242.417746 
L 497.253859 245.106961 
L 498.704039 246.08669 
L 500.154218 244.993458 
L 501.604397 242.198009 
L 503.054577 238.986884 
L 504.504756 236.440208 
L 505.954935 234.320915 
L 507.405115 231.940165 
L 508.855294 229.875204 
L 510.305473 230.299401 
L 511.755653 235.736218 
L 513.205832 247.085062 
L 514.656011 261.852887 
L 516.106191 274.682127 
L 517.55637 281.094207 
L 519.006549 280.866607 
L 520.456729 277.120538 
L 523.357087 268.500203 
L 524.807266 263.133361 
L 526.257446 255.430594 
L 527.707625 245.982303 
L 529.157804 237.481817 
L 530.607984 232.85 
L 532.058163 233.294648 
L 533.508342 238.113242 
L 534.958522 245.909663 
L 536.408701 255.766345 
L 539.30906 277.678329 
L 540.759239 283.39097 
L 542.209418 280.019615 
L 543.659598 267.639098 
L 545.109777 251.471013 
L 546.559956 238.136451 
L 548.010136 231.394119 
L 549.460315 231.252306 
L 550.910494 235.707087 
L 552.360674 242.631418 
L 555.261032 258.999928 
L 556.711212 265.483982 
L 558.161391 266.811798 
L 559.61157 260.976512 
L 562.511929 238.285944 
L 563.962108 229.782682 
L 565.412288 225.173055 
L 566.862467 223.271072 
L 568.312646 222.666332 
L 569.762826 222.516581 
L 572.663184 222.446541 
L 574.113363 222.284084 
L 575.563543 221.621208 
L 577.013722 219.539407 
L 578.463901 214.45272 
L 579.914081 204.859208 
L 581.36426 190.940565 
L 582.814439 175.497813 
L 584.264619 162.534832 
L 585.714798 154.74785 
L 587.164977 152.926123 
L 588.615157 157.289844 
L 590.065336 167.800776 
L 592.965695 196.975016 
L 594.415874 205.927602 
L 595.866053 206.520644 
L 597.316233 199.855948 
L 598.766412 190.816962 
L 600.216591 185.291897 
L 601.666771 185.739588 
L 604.567129 194.193516 
L 606.017309 198.443686 
L 607.467488 203.8401 
L 608.917667 210.161406 
L 610.367847 215.349703 
L 611.818026 217.452175 
L 613.268205 215.761167 
L 614.718385 210.836949 
L 616.168564 204.384919 
L 617.618743 198.601393 
L 619.068923 195.025137 
L 620.519102 194.283408 
L 621.969281 196.643044 
L 624.86964 206.508254 
L 626.319819 208.23778 
L 627.769998 205.183327 
L 629.220178 199.157268 
L 630.670357 193.742342 
L 632.120536 191.187696 
L 633.570716 191.160642 
L 635.020895 192.115715 
L 636.471074 192.85722 
L 636.471074 192.85722 
" clip-path="url(#pdcfbb5affd)" style="fill: none; stroke: #9467bd; stroke-width: 2; stroke-linecap: square"/>
   </g>
   <g id="line2d_25">
    <path d="M 405.892562 223.222667 
L 407.342741 224.425396 
L 408.792921 227.346556 
L 410.2431 232.244929 
L 411.693279 238.093251 
L 413.143459 242.534486 
L 414.593638 243.461231 
L 416.043817 240.742789 
L 417.493997 236.18316 
L 418.944176 232.013231 
L 420.394355 229.62274 
L 421.844535 229.199779 
L 423.294714 229.982115 
L 424.744893 230.954604 
L 427.645252 232.423883 
L 429.095431 233.91172 
L 430.54561 236.105825 
L 431.99579 237.852409 
L 433.445969 237.439166 
L 434.896148 234.117395 
L 436.346328 229.094443 
L 437.796507 224.718353 
L 439.246686 222.617588 
L 440.696866 222.783191 
L 442.147045 224.234623 
L 443.597224 226.177146 
L 445.047404 228.489876 
L 446.497583 231.659852 
L 447.947762 236.454473 
L 450.848121 249.346274 
L 452.2983 252.955597 
L 453.74848 253.204812 
L 455.198659 252.92814 
L 456.648838 254.862183 
L 458.099018 257.624653 
L 459.549197 257.021603 
L 460.999376 251.225605 
L 462.449556 243.059886 
L 463.899735 236.928412 
L 465.349914 234.679421 
L 466.800094 234.747747 
L 468.250273 234.376717 
L 469.700452 232.182219 
L 471.150632 228.821523 
L 472.600811 225.751145 
L 474.05099 223.794897 
L 475.501169 222.848584 
L 476.951349 222.423219 
L 479.851707 221.984199 
L 481.301887 222.245725 
L 482.752066 223.385168 
L 484.202245 225.450159 
L 485.652425 227.714197 
L 487.102604 229.225057 
L 488.552783 229.960838 
L 490.002963 230.95266 
L 491.453142 232.747662 
L 492.903321 234.231824 
L 494.353501 233.744724 
L 495.80368 231.070979 
L 497.253859 227.627632 
L 498.704039 224.944378 
L 500.154218 223.656388 
L 501.604397 223.951162 
L 503.054577 226.57499 
L 504.504756 233.139402 
L 505.954935 244.844274 
L 507.405115 260.00463 
L 508.855294 272.980961 
L 510.305473 277.282248 
L 511.755653 271.035936 
L 513.205832 259.143379 
L 514.656011 249.376832 
L 516.106191 246.142883 
L 517.55637 247.620836 
L 519.006549 248.473249 
L 520.456729 245.351516 
L 521.906908 239.88282 
L 523.357087 236.671161 
L 524.807266 239.028328 
L 527.707625 253.964537 
L 529.157804 256.934598 
L 530.607984 253.109239 
L 533.508342 236.044309 
L 534.958522 229.553145 
L 536.408701 225.712274 
L 537.85888 223.780134 
L 539.30906 222.933046 
L 540.759239 222.613721 
L 543.659598 222.488908 
L 550.910494 222.545461 
L 552.360674 222.809776 
L 553.810853 223.802044 
L 555.261032 226.690391 
L 556.711212 233.159363 
L 558.161391 244.289073 
L 561.06175 273.775798 
L 562.511929 285.029866 
L 563.962108 291.111513 
L 565.412288 292.205321 
L 566.862467 288.380885 
L 568.312646 279.304162 
L 571.213005 253.239976 
L 572.663184 243.486381 
L 574.113363 237.423845 
L 575.563543 233.229983 
L 577.013722 229.609247 
L 578.463901 226.793322 
L 579.914081 225.617653 
L 581.36426 226.571108 
L 582.814439 229.369957 
L 584.264619 232.797802 
L 585.714798 235.07908 
L 587.164977 234.989131 
L 588.615157 232.671295 
L 590.065336 229.143576 
L 592.965695 221.498901 
L 594.415874 218.763814 
L 595.866053 218.091323 
L 597.316233 219.694251 
L 598.766412 222.546366 
L 600.216591 225.143587 
L 601.666771 226.427779 
L 603.11695 226.213466 
L 604.567129 225.066785 
L 607.467488 222.318203 
L 608.917667 220.356902 
L 610.367847 217.00244 
L 611.818026 212.321466 
L 613.268205 208.321504 
L 614.718385 208.429514 
L 616.168564 215.051663 
L 617.618743 227.409894 
L 620.519102 256.504337 
L 624.86964 299.294209 
L 626.319819 307.724308 
L 627.769998 306.229143 
L 629.220178 295.71919 
L 632.120536 267.181222 
L 633.570716 255.148424 
L 635.020895 245.581563 
L 636.471074 239.94437 
L 636.471074 239.94437 
" clip-path="url(#pdcfbb5affd)" style="fill: none; stroke: #1f77b4; stroke-width: 2; stroke-linecap: square"/>
   </g>
   <g id="line2d_26">
    <path d="M 405.892562 292.610759 
L 407.342741 285.589814 
L 408.792921 273.009256 
L 411.693279 243.280642 
L 413.143459 232.618002 
L 414.593638 226.474371 
L 416.043817 223.736261 
L 417.493997 222.792874 
L 418.944176 222.542664 
L 423.294714 222.483274 
L 434.896148 222.403224 
L 436.346328 222.166669 
L 437.796507 221.508062 
L 439.246686 220.143862 
L 442.147045 216.121375 
L 443.597224 215.255945 
L 445.047404 216.012005 
L 446.497583 217.647632 
L 447.947762 218.631553 
L 449.397942 217.658174 
L 450.848121 214.515281 
L 452.2983 210.59034 
L 453.74848 208.422904 
L 455.198659 209.821261 
L 458.099018 218.687949 
L 459.549197 221.604091 
L 460.999376 222.667939 
L 462.449556 222.759198 
L 465.349914 222.618901 
L 466.800094 222.862349 
L 468.250273 223.632177 
L 469.700452 225.281201 
L 471.150632 227.914416 
L 474.05099 234.141076 
L 476.951349 239.417334 
L 478.401528 241.157181 
L 479.851707 240.935652 
L 481.301887 238.533835 
L 482.752066 235.291343 
L 484.202245 232.622315 
L 487.102604 228.610374 
L 488.552783 226.391707 
L 490.002963 224.381666 
L 491.453142 222.989568 
L 492.903321 222.54716 
L 494.353501 223.871171 
L 495.80368 228.293079 
L 497.253859 236.387996 
L 498.704039 246.408978 
L 500.154218 254.426492 
L 501.604397 256.650477 
L 503.054577 252.139428 
L 505.954935 235.563322 
L 507.405115 232.006572 
L 508.855294 234.962686 
L 510.305473 244.057786 
L 511.755653 255.690167 
L 513.205832 263.644291 
L 514.656011 262.949305 
L 516.106191 254.033221 
L 517.55637 242.153265 
L 519.006549 232.681264 
L 520.456729 227.581246 
L 521.906908 225.755624 
L 523.357087 225.297146 
L 524.807266 225.125541 
L 526.257446 225.329883 
L 527.707625 226.588917 
L 529.157804 229.210304 
L 530.607984 232.524915 
L 532.058163 235.226758 
L 533.508342 236.295434 
L 534.958522 235.39434 
L 536.408701 232.63543 
L 539.30906 224.809701 
L 540.759239 222.485494 
L 542.209418 222.258593 
L 543.659598 224.049951 
L 545.109777 227.764377 
L 548.010136 237.893821 
L 549.460315 239.98098 
L 550.910494 237.933961 
L 553.810853 228.270495 
L 555.261032 225.269121 
L 556.711212 224.565116 
L 558.161391 225.942223 
L 559.61157 228.979433 
L 561.06175 232.756216 
L 562.511929 235.800988 
L 563.962108 236.914714 
L 565.412288 236.162924 
L 566.862467 234.925496 
L 568.312646 234.736417 
L 569.762826 235.858067 
L 571.213005 237.181119 
L 572.663184 237.769961 
L 574.113363 238.189869 
L 575.563543 239.913255 
L 577.013722 243.594981 
L 578.463901 247.984335 
L 579.914081 250.322267 
L 581.36426 248.264038 
L 582.814439 242.036838 
L 584.264619 234.401974 
L 585.714798 228.26414 
L 587.164977 224.702486 
L 588.615157 223.155529 
L 590.065336 222.643236 
L 592.965695 222.487052 
L 598.766412 222.576877 
L 600.216591 222.853483 
L 601.666771 223.623599 
L 603.11695 225.218773 
L 606.017309 229.987351 
L 607.467488 231.255654 
L 608.917667 231.28937 
L 610.367847 231.814493 
L 611.818026 235.34355 
L 613.268205 242.539174 
L 614.718385 250.375482 
L 616.168564 253.763387 
L 617.618743 250.023704 
L 620.519102 232.608051 
L 621.969281 226.703909 
L 623.41946 223.853513 
L 624.86964 222.837914 
L 626.319819 222.613086 
L 627.769998 222.81834 
L 629.220178 223.8271 
L 630.670357 226.859815 
L 632.120536 233.712873 
L 633.570716 245.216082 
L 635.020895 258.834639 
L 636.471074 268.440336 
L 636.471074 268.440336 
" clip-path="url(#pdcfbb5affd)" style="fill: none; stroke: #d62728; stroke-width: 2; stroke-linecap: square"/>
   </g>
   <g id="line2d_27">
    <path d="M 405.892562 115.700833 
L 407.342741 127.488643 
L 408.792921 149.491606 
L 410.2431 175.836376 
L 411.693279 198.404856 
L 413.143459 212.621121 
L 414.593638 219.308373 
L 416.043817 221.686616 
L 417.493997 222.326403 
L 420.394355 222.483274 
L 455.198659 222.444933 
L 456.648838 222.288565 
L 458.099018 221.713184 
L 459.549197 220.111232 
L 460.999376 216.79653 
L 463.899735 207.131176 
L 465.349914 205.409255 
L 466.800094 208.397894 
L 468.250273 215.100007 
L 469.700452 222.588058 
L 471.150632 227.701918 
L 472.600811 228.277151 
L 474.05099 224.196086 
L 475.501169 217.860414 
L 476.951349 212.760837 
L 478.401528 210.936007 
L 479.851707 211.999583 
L 484.202245 219.320681 
L 485.652425 220.933447 
L 487.102604 221.865733 
L 488.552783 222.287162 
L 491.453142 222.473705 
L 494.353501 222.383746 
L 495.80368 221.977829 
L 497.253859 220.4842 
L 498.704039 216.325694 
L 500.154218 207.712009 
L 503.054577 182.330812 
L 504.504756 176.984574 
L 505.954935 182.330812 
L 508.855294 207.712009 
L 510.305473 216.325694 
L 511.755653 220.4842 
L 513.205832 221.977829 
L 514.656011 222.383746 
L 517.55637 222.483274 
L 536.408701 222.427581 
L 537.85888 222.188262 
L 539.30906 221.246614 
L 540.759239 218.401899 
L 542.209418 211.799056 
L 543.659598 200.153768 
L 546.559956 170.668981 
L 548.010136 162.786686 
L 549.460315 163.081881 
L 550.910494 169.102395 
L 553.810853 184.027261 
L 555.261032 191.158703 
L 559.61157 214.994472 
L 561.06175 219.423363 
L 562.511929 221.498817 
L 563.962108 222.23639 
L 565.412288 222.43466 
L 569.762826 222.483274 
L 585.714798 222.511228 
L 587.164977 222.638731 
L 588.615157 223.15231 
L 590.065336 224.77482 
L 591.515515 228.759634 
L 592.965695 236.291502 
L 595.866053 257.933191 
L 597.316233 264.756527 
L 598.766412 265.41494 
L 601.666771 258.770363 
L 603.11695 257.462103 
L 604.567129 257.736682 
L 606.017309 259.542145 
L 607.467488 263.787771 
L 608.917667 269.630136 
L 610.367847 273.23515 
L 611.818026 270.761572 
L 613.268205 262.211929 
L 614.718385 251.634707 
L 616.168564 243.517794 
L 617.618743 239.183748 
L 619.068923 236.686725 
L 620.519102 233.71885 
L 623.41946 226.411038 
L 624.86964 224.112964 
L 626.319819 223.01136 
L 627.769998 222.616795 
L 630.670357 222.487306 
L 636.471074 222.483274 
L 636.471074 222.483274 
" clip-path="url(#pdcfbb5affd)" style="fill: none; stroke: #ff7f0e; stroke-width: 2; stroke-linecap: square"/>
   </g>
   <g id="LineCollection_1">
    <path d="M 521.877904 294.069312 
L 521.877904 138.975272 
" clip-path="url(#pdcfbb5affd)" style="fill: none; stroke-dasharray: 7.4,3.2; stroke-dashoffset: 0; stroke: #000000; stroke-width: 2"/>
    <path d="M 536.379697 294.069312 
L 536.379697 138.975272 
" clip-path="url(#pdcfbb5affd)" style="fill: none; stroke-dasharray: 7.4,3.2; stroke-dashoffset: 0; stroke: #000000; stroke-width: 2"/>
    <path d="M 565.383284 294.069312 
L 565.383284 138.975272 
" clip-path="url(#pdcfbb5affd)" style="fill: none; stroke-dasharray: 7.4,3.2; stroke-dashoffset: 0; stroke: #000000; stroke-width: 2"/>
    <path d="M 623.390457 294.069312 
L 623.390457 138.975272 
" clip-path="url(#pdcfbb5affd)" style="fill: none; stroke-dasharray: 7.4,3.2; stroke-dashoffset: 0; stroke: #000000; stroke-width: 2"/>
   </g>
   <g id="patch_8">
    <path d="M 394.363636 333.490909 
L 394.363636 86.4 
" style="fill: none; stroke: #000000; stroke-width: 0.8; stroke-linejoin: miter; stroke-linecap: square"/>
   </g>
   <g id="patch_9">
    <path d="M 648 333.490909 
L 648 86.4 
" style="fill: none; stroke: #000000; stroke-width: 0.8; stroke-linejoin: miter; stroke-linecap: square"/>
   </g>
   <g id="patch_10">
    <path d="M 394.363636 333.490909 
L 648 333.490909 
" style="fill: none; stroke: #000000; stroke-width: 0.8; stroke-linejoin: miter; stroke-linecap: square"/>
   </g>
   <g id="patch_11">
    <path d="M 394.363636 86.4 
L 648 86.4 
" style="fill: none; stroke: #000000; stroke-width: 0.8; stroke-linejoin: miter; stroke-linecap: square"/>
   </g>
   <g id="text_24">
    <!-- unit_101 -->
    <g transform="translate(495.105256 80.4)scale(0.12 -0.12)">
     <defs>
      <path id="DejaVuSans-75" d="M 544 1381 
L 544 3500 
L 1119 3500 
L 1119 1403 
Q 1119 906 1312 657 
Q 1506 409 1894 409 
Q 2359 409 2629 706 
Q 2900 1003 2900 1516 
L 2900 3500 
L 3475 3500 
L 3475 0 
L 2900 0 
L 2900 538 
Q 2691 219 2414 64 
Q 2138 -91 1772 -91 
Q 1169 -91 856 284 
Q 544 659 544 1381 
z
M 1991 3584 
L 1991 3584 
z
" transform="scale(0.015625)"/>
      <path id="DejaVuSans-6e" d="M 3513 2113 
L 3513 0 
L 2938 0 
L 2938 2094 
Q 2938 2591 2744 2837 
Q 2550 3084 2163 3084 
Q 1697 3084 1428 2787 
Q 1159 2491 1159 1978 
L 1159 0 
L 581 0 
L 581 3500 
L 1159 3500 
L 1159 2956 
Q 1366 3272 1645 3428 
Q 1925 3584 2291 3584 
Q 2894 3584 3203 3211 
Q 3513 2838 3513 2113 
z
" transform="scale(0.015625)"/>
      <path id="DejaVuSans-69" d="M 603 3500 
L 1178 3500 
L 1178 0 
L 603 0 
L 603 3500 
z
M 603 4863 
L 1178 4863 
L 1178 4134 
L 603 4134 
L 603 4863 
z
" transform="scale(0.015625)"/>
      <path id="DejaVuSans-74" d="M 1172 4494 
L 1172 3500 
L 2356 3500 
L 2356 3053 
L 1172 3053 
L 1172 1153 
Q 1172 725 1289 603 
Q 1406 481 1766 481 
L 2356 481 
L 2356 0 
L 1766 0 
Q 1100 0 847 248 
Q 594 497 594 1153 
L 594 3053 
L 172 3053 
L 172 3500 
L 594 3500 
L 594 4494 
L 1172 4494 
z
" transform="scale(0.015625)"/>
      <path id="DejaVuSans-5f" d="M 3263 -1063 
L 3263 -1509 
L -63 -1509 
L -63 -1063 
L 3263 -1063 
z
" transform="scale(0.015625)"/>
     </defs>
     <use xlink:href="#DejaVuSans-75"/>
     <use xlink:href="#DejaVuSans-6e" x="63.378906"/>
     <use xlink:href="#DejaVuSans-69" x="126.757812"/>
     <use xlink:href="#DejaVuSans-74" x="154.541016"/>
     <use xlink:href="#DejaVuSans-5f" x="193.75"/>
     <use xlink:href="#DejaVuSans-31" x="243.75"/>
     <use xlink:href="#DejaVuSans-30" x="307.373047"/>
     <use xlink:href="#DejaVuSans-31" x="370.996094"/>
    </g>
   </g>
  </g>
  <g id="axes_3">
   <g id="patch_12">
    <path d="M 90 630 
L 343.636364 630 
L 343.636364 382.909091 
L 90 382.909091 
z
" style="fill: #ffffff"/>
   </g>
   <g id="matplotlib.axis_5">
    <g id="xtick_12">
     <g id="line2d_28">
      <g>
       <use xlink:href="#m60ee07fdf3" x="90" y="630" style="stroke: #000000; stroke-width: 0.8"/>
      </g>
     </g>
     <g id="text_25">
      <!-- 0.0 -->
      <g transform="translate(82.048438 644.598437)scale(0.1 -0.1)">
       <use xlink:href="#DejaVuSans-30"/>
       <use xlink:href="#DejaVuSans-2e" x="63.623047"/>
       <use xlink:href="#DejaVuSans-30" x="95.410156"/>
      </g>
     </g>
    </g>
    <g id="xtick_13">
     <g id="line2d_29">
      <g>
       <use xlink:href="#m60ee07fdf3" x="140.727273" y="630" style="stroke: #000000; stroke-width: 0.8"/>
      </g>
     </g>
     <g id="text_26">
      <!-- 0.2 -->
      <g transform="translate(132.77571 644.598437)scale(0.1 -0.1)">
       <use xlink:href="#DejaVuSans-30"/>
       <use xlink:href="#DejaVuSans-2e" x="63.623047"/>
       <use xlink:href="#DejaVuSans-32" x="95.410156"/>
      </g>
     </g>
    </g>
    <g id="xtick_14">
     <g id="line2d_30">
      <g>
       <use xlink:href="#m60ee07fdf3" x="191.454545" y="630" style="stroke: #000000; stroke-width: 0.8"/>
      </g>
     </g>
     <g id="text_27">
      <!-- 0.4 -->
      <g transform="translate(183.502983 644.598437)scale(0.1 -0.1)">
       <use xlink:href="#DejaVuSans-30"/>
       <use xlink:href="#DejaVuSans-2e" x="63.623047"/>
       <use xlink:href="#DejaVuSans-34" x="95.410156"/>
      </g>
     </g>
    </g>
    <g id="xtick_15">
     <g id="line2d_31">
      <g>
       <use xlink:href="#m60ee07fdf3" x="242.181818" y="630" style="stroke: #000000; stroke-width: 0.8"/>
      </g>
     </g>
     <g id="text_28">
      <!-- 0.6 -->
      <g transform="translate(234.230256 644.598437)scale(0.1 -0.1)">
       <use xlink:href="#DejaVuSans-30"/>
       <use xlink:href="#DejaVuSans-2e" x="63.623047"/>
       <use xlink:href="#DejaVuSans-36" x="95.410156"/>
      </g>
     </g>
    </g>
    <g id="xtick_16">
     <g id="line2d_32">
      <g>
       <use xlink:href="#m60ee07fdf3" x="292.909091" y="630" style="stroke: #000000; stroke-width: 0.8"/>
      </g>
     </g>
     <g id="text_29">
      <!-- 0.8 -->
      <g transform="translate(284.957528 644.598437)scale(0.1 -0.1)">
       <use xlink:href="#DejaVuSans-30"/>
       <use xlink:href="#DejaVuSans-2e" x="63.623047"/>
       <use xlink:href="#DejaVuSans-38" x="95.410156"/>
      </g>
     </g>
    </g>
    <g id="xtick_17">
     <g id="line2d_33">
      <g>
       <use xlink:href="#m60ee07fdf3" x="343.636364" y="630" style="stroke: #000000; stroke-width: 0.8"/>
      </g>
     </g>
     <g id="text_30">
      <!-- 1.0 -->
      <g transform="translate(335.684801 644.598437)scale(0.1 -0.1)">
       <use xlink:href="#DejaVuSans-31"/>
       <use xlink:href="#DejaVuSans-2e" x="63.623047"/>
       <use xlink:href="#DejaVuSans-30" x="95.410156"/>
      </g>
     </g>
    </g>
   </g>
   <g id="matplotlib.axis_6">
    <g id="ytick_13">
     <g id="line2d_34">
      <g>
       <use xlink:href="#mdf4e6c2bf6" x="90" y="630" style="stroke: #000000; stroke-width: 0.8"/>
      </g>
     </g>
     <g id="text_31">
      <!-- 0.0 -->
      <g transform="translate(67.096875 633.799219)scale(0.1 -0.1)">
       <use xlink:href="#DejaVuSans-30"/>
       <use xlink:href="#DejaVuSans-2e" x="63.623047"/>
       <use xlink:href="#DejaVuSans-30" x="95.410156"/>
      </g>
     </g>
    </g>
    <g id="ytick_14">
     <g id="line2d_35">
      <g>
       <use xlink:href="#mdf4e6c2bf6" x="90" y="580.581818" style="stroke: #000000; stroke-width: 0.8"/>
      </g>
     </g>
     <g id="text_32">
      <!-- 0.2 -->
      <g transform="translate(67.096875 584.381037)scale(0.1 -0.1)">
       <use xlink:href="#DejaVuSans-30"/>
       <use xlink:href="#DejaVuSans-2e" x="63.623047"/>
       <use xlink:href="#DejaVuSans-32" x="95.410156"/>
      </g>
     </g>
    </g>
    <g id="ytick_15">
     <g id="line2d_36">
      <g>
       <use xlink:href="#mdf4e6c2bf6" x="90" y="531.163636" style="stroke: #000000; stroke-width: 0.8"/>
      </g>
     </g>
     <g id="text_33">
      <!-- 0.4 -->
      <g transform="translate(67.096875 534.962855)scale(0.1 -0.1)">
       <use xlink:href="#DejaVuSans-30"/>
       <use xlink:href="#DejaVuSans-2e" x="63.623047"/>
       <use xlink:href="#DejaVuSans-34" x="95.410156"/>
      </g>
     </g>
    </g>
    <g id="ytick_16">
     <g id="line2d_37">
      <g>
       <use xlink:href="#mdf4e6c2bf6" x="90" y="481.745455" style="stroke: #000000; stroke-width: 0.8"/>
      </g>
     </g>
     <g id="text_34">
      <!-- 0.6 -->
      <g transform="translate(67.096875 485.544673)scale(0.1 -0.1)">
       <use xlink:href="#DejaVuSans-30"/>
       <use xlink:href="#DejaVuSans-2e" x="63.623047"/>
       <use xlink:href="#DejaVuSans-36" x="95.410156"/>
      </g>
     </g>
    </g>
    <g id="ytick_17">
     <g id="line2d_38">
      <g>
       <use xlink:href="#mdf4e6c2bf6" x="90" y="432.327273" style="stroke: #000000; stroke-width: 0.8"/>
      </g>
     </g>
     <g id="text_35">
      <!-- 0.8 -->
      <g transform="translate(67.096875 436.126491)scale(0.1 -0.1)">
       <use xlink:href="#DejaVuSans-30"/>
       <use xlink:href="#DejaVuSans-2e" x="63.623047"/>
       <use xlink:href="#DejaVuSans-38" x="95.410156"/>
      </g>
     </g>
    </g>
    <g id="ytick_18">
     <g id="line2d_39">
      <g>
       <use xlink:href="#mdf4e6c2bf6" x="90" y="382.909091" style="stroke: #000000; stroke-width: 0.8"/>
      </g>
     </g>
     <g id="text_36">
      <!-- 1.0 -->
      <g transform="translate(67.096875 386.70831)scale(0.1 -0.1)">
       <use xlink:href="#DejaVuSans-31"/>
       <use xlink:href="#DejaVuSans-2e" x="63.623047"/>
       <use xlink:href="#DejaVuSans-30" x="95.410156"/>
      </g>
     </g>
    </g>
   </g>
   <g id="patch_13">
    <path d="M 90 630 
L 90 382.909091 
" style="fill: none; stroke: #000000; stroke-width: 0.8; stroke-linejoin: miter; stroke-linecap: square"/>
   </g>
   <g id="patch_14">
    <path d="M 343.636364 630 
L 343.636364 382.909091 
" style="fill: none; stroke: #000000; stroke-width: 0.8; stroke-linejoin: miter; stroke-linecap: square"/>
   </g>
   <g id="patch_15">
    <path d="M 90 630 
L 343.636364 630 
" style="fill: none; stroke: #000000; stroke-width: 0.8; stroke-linejoin: miter; stroke-linecap: square"/>
   </g>
   <g id="patch_16">
    <path d="M 90 382.909091 
L 343.636364 382.909091 
" style="fill: none; stroke: #000000; stroke-width: 0.8; stroke-linejoin: miter; stroke-linecap: square"/>
   </g>
  </g>
  <g id="axes_4">
   <g id="patch_17">
    <path d="M 394.363636 630 
L 648 630 
L 648 382.909091 
L 394.363636 382.909091 
z
" style="fill: #ffffff"/>
   </g>
   <g id="matplotlib.axis_7">
    <g id="xtick_18">
     <g id="line2d_40">
      <g>
       <use xlink:href="#m60ee07fdf3" x="405.863558" y="630" style="stroke: #000000; stroke-width: 0.8"/>
      </g>
     </g>
     <g id="text_37">
      <!-- 0 -->
      <g transform="translate(402.682308 644.598437)scale(0.1 -0.1)">
       <use xlink:href="#DejaVuSans-30"/>
      </g>
     </g>
    </g>
    <g id="xtick_19">
     <g id="line2d_41">
      <g>
       <use xlink:href="#m60ee07fdf3" x="463.870731" y="630" style="stroke: #000000; stroke-width: 0.8"/>
      </g>
     </g>
     <g id="text_38">
      <!-- 2000 -->
      <g transform="translate(451.145731 644.598437)scale(0.1 -0.1)">
       <use xlink:href="#DejaVuSans-32"/>
       <use xlink:href="#DejaVuSans-30" x="63.623047"/>
       <use xlink:href="#DejaVuSans-30" x="127.246094"/>
       <use xlink:href="#DejaVuSans-30" x="190.869141"/>
      </g>
     </g>
    </g>
    <g id="xtick_20">
     <g id="line2d_42">
      <g>
       <use xlink:href="#m60ee07fdf3" x="521.877904" y="630" style="stroke: #000000; stroke-width: 0.8"/>
      </g>
     </g>
     <g id="text_39">
      <!-- 4000 -->
      <g transform="translate(509.152904 644.598437)scale(0.1 -0.1)">
       <use xlink:href="#DejaVuSans-34"/>
       <use xlink:href="#DejaVuSans-30" x="63.623047"/>
       <use xlink:href="#DejaVuSans-30" x="127.246094"/>
       <use xlink:href="#DejaVuSans-30" x="190.869141"/>
      </g>
     </g>
    </g>
    <g id="xtick_21">
     <g id="line2d_43">
      <g>
       <use xlink:href="#m60ee07fdf3" x="579.885077" y="630" style="stroke: #000000; stroke-width: 0.8"/>
      </g>
     </g>
     <g id="text_40">
      <!-- 6000 -->
      <g transform="translate(567.160077 644.598437)scale(0.1 -0.1)">
       <use xlink:href="#DejaVuSans-36"/>
       <use xlink:href="#DejaVuSans-30" x="63.623047"/>
       <use xlink:href="#DejaVuSans-30" x="127.246094"/>
       <use xlink:href="#DejaVuSans-30" x="190.869141"/>
      </g>
     </g>
    </g>
    <g id="xtick_22">
     <g id="line2d_44">
      <g>
       <use xlink:href="#m60ee07fdf3" x="637.89225" y="630" style="stroke: #000000; stroke-width: 0.8"/>
      </g>
     </g>
     <g id="text_41">
      <!-- 8000 -->
      <g transform="translate(625.16725 644.598437)scale(0.1 -0.1)">
       <use xlink:href="#DejaVuSans-38"/>
       <use xlink:href="#DejaVuSans-30" x="63.623047"/>
       <use xlink:href="#DejaVuSans-30" x="127.246094"/>
       <use xlink:href="#DejaVuSans-30" x="190.869141"/>
      </g>
     </g>
    </g>
   </g>
   <g id="matplotlib.axis_8">
    <g id="ytick_19">
     <g id="line2d_45">
      <g>
       <use xlink:href="#mdf4e6c2bf6" x="394.363636" y="630" style="stroke: #000000; stroke-width: 0.8"/>
      </g>
     </g>
     <g id="text_42">
      <!-- −2 -->
      <g transform="translate(372.621449 633.799219)scale(0.1 -0.1)">
       <use xlink:href="#DejaVuSans-2212"/>
       <use xlink:href="#DejaVuSans-32" x="83.789062"/>
      </g>
     </g>
    </g>
    <g id="ytick_20">
     <g id="line2d_46">
      <g>
       <use xlink:href="#mdf4e6c2bf6" x="394.363636" y="600.264684" style="stroke: #000000; stroke-width: 0.8"/>
      </g>
     </g>
     <g id="text_43">
      <!-- −1 -->
      <g transform="translate(372.621449 604.063903)scale(0.1 -0.1)">
       <use xlink:href="#DejaVuSans-2212"/>
       <use xlink:href="#DejaVuSans-31" x="83.789062"/>
      </g>
     </g>
    </g>
    <g id="ytick_21">
     <g id="line2d_47">
      <g>
       <use xlink:href="#mdf4e6c2bf6" x="394.363636" y="570.529369" style="stroke: #000000; stroke-width: 0.8"/>
      </g>
     </g>
     <g id="text_44">
      <!-- 0 -->
      <g transform="translate(381.001136 574.328587)scale(0.1 -0.1)">
       <use xlink:href="#DejaVuSans-30"/>
      </g>
     </g>
    </g>
    <g id="ytick_22">
     <g id="line2d_48">
      <g>
       <use xlink:href="#mdf4e6c2bf6" x="394.363636" y="540.794053" style="stroke: #000000; stroke-width: 0.8"/>
      </g>
     </g>
     <g id="text_45">
      <!-- 1 -->
      <g transform="translate(381.001136 544.593272)scale(0.1 -0.1)">
       <use xlink:href="#DejaVuSans-31"/>
      </g>
     </g>
    </g>
    <g id="ytick_23">
     <g id="line2d_49">
      <g>
       <use xlink:href="#mdf4e6c2bf6" x="394.363636" y="511.058737" style="stroke: #000000; stroke-width: 0.8"/>
      </g>
     </g>
     <g id="text_46">
      <!-- 2 -->
      <g transform="translate(381.001136 514.857956)scale(0.1 -0.1)">
       <use xlink:href="#DejaVuSans-32"/>
      </g>
     </g>
    </g>
    <g id="ytick_24">
     <g id="line2d_50">
      <g>
       <use xlink:href="#mdf4e6c2bf6" x="394.363636" y="481.323422" style="stroke: #000000; stroke-width: 0.8"/>
      </g>
     </g>
     <g id="text_47">
      <!-- 3 -->
      <g transform="translate(381.001136 485.122641)scale(0.1 -0.1)">
       <defs>
        <path id="DejaVuSans-33" d="M 2597 2516 
Q 3050 2419 3304 2112 
Q 3559 1806 3559 1356 
Q 3559 666 3084 287 
Q 2609 -91 1734 -91 
Q 1441 -91 1130 -33 
Q 819 25 488 141 
L 488 750 
Q 750 597 1062 519 
Q 1375 441 1716 441 
Q 2309 441 2620 675 
Q 2931 909 2931 1356 
Q 2931 1769 2642 2001 
Q 2353 2234 1838 2234 
L 1294 2234 
L 1294 2753 
L 1863 2753 
Q 2328 2753 2575 2939 
Q 2822 3125 2822 3475 
Q 2822 3834 2567 4026 
Q 2313 4219 1838 4219 
Q 1578 4219 1281 4162 
Q 984 4106 628 3988 
L 628 4550 
Q 988 4650 1302 4700 
Q 1616 4750 1894 4750 
Q 2613 4750 3031 4423 
Q 3450 4097 3450 3541 
Q 3450 3153 3228 2886 
Q 3006 2619 2597 2516 
z
" transform="scale(0.015625)"/>
       </defs>
       <use xlink:href="#DejaVuSans-33"/>
      </g>
     </g>
    </g>
    <g id="ytick_25">
     <g id="line2d_51">
      <g>
       <use xlink:href="#mdf4e6c2bf6" x="394.363636" y="451.588106" style="stroke: #000000; stroke-width: 0.8"/>
      </g>
     </g>
     <g id="text_48">
      <!-- 4 -->
      <g transform="translate(381.001136 455.387325)scale(0.1 -0.1)">
       <use xlink:href="#DejaVuSans-34"/>
      </g>
     </g>
    </g>
    <g id="ytick_26">
     <g id="line2d_52">
      <g>
       <use xlink:href="#mdf4e6c2bf6" x="394.363636" y="421.852791" style="stroke: #000000; stroke-width: 0.8"/>
      </g>
     </g>
     <g id="text_49">
      <!-- 5 -->
      <g transform="translate(381.001136 425.652009)scale(0.1 -0.1)">
       <use xlink:href="#DejaVuSans-35"/>
      </g>
     </g>
    </g>
    <g id="ytick_27">
     <g id="line2d_53">
      <g>
       <use xlink:href="#mdf4e6c2bf6" x="394.363636" y="392.117475" style="stroke: #000000; stroke-width: 0.8"/>
      </g>
     </g>
     <g id="text_50">
      <!-- 6 -->
      <g transform="translate(381.001136 395.916694)scale(0.1 -0.1)">
       <use xlink:href="#DejaVuSans-36"/>
      </g>
     </g>
    </g>
   </g>
   <g id="line2d_54">
    <path d="M 421.218617 721 
L 421.844535 634.692265 
L 423.294714 555.142804 
L 424.744893 574.765009 
L 426.195073 621.998408 
L 427.645252 656.564294 
L 429.095431 622.497182 
L 430.54561 578.720023 
L 431.99579 570.663227 
L 433.445969 642.802576 
L 434.588585 721 
M 435.641189 721 
L 436.346328 701.078538 
L 437.796507 653.263874 
L 438.965742 721 
M 441.92418 721 
L 443.597224 605.512972 
L 445.047404 588.43274 
L 446.497583 593.678584 
L 447.947762 610.354695 
L 449.397942 652.934545 
L 450.164188 721 
M 454.2057 721 
L 455.198659 686.740401 
L 455.559412 721 
M 460.098797 721 
L 460.999376 622.953552 
L 462.449556 543.892914 
L 463.899735 580.294525 
L 465.349914 639.160829 
L 466.800094 656.132285 
L 468.250273 658.135583 
L 469.700452 623.818762 
L 471.150632 580.46419 
L 472.600811 567.87777 
L 474.05099 573.987267 
L 475.501169 619.965041 
L 476.644172 721 
M 478.572203 721 
L 479.851707 627.630804 
L 481.301887 597.930069 
L 482.752066 575.706422 
L 484.202245 550.970061 
L 485.652425 536.795775 
L 487.102604 454.597618 
L 488.552783 382.909091 
L 490.002963 470.18915 
L 491.453142 600.230084 
L 492.903321 658.470379 
L 494.353501 622.709867 
L 495.80368 551.198685 
L 497.253859 504.602926 
L 498.704039 539.793038 
L 500.154218 602.158502 
L 501.604397 621.169489 
L 503.054577 597.006052 
L 504.504756 552.322378 
L 505.954935 550.571066 
L 507.405115 568.651789 
L 509.052483 721 
M 512.97767 721 
L 513.205832 708.005456 
L 513.390263 721 
M 517.41412 721 
L 517.55637 705.464303 
L 519.006549 570.337879 
L 520.456729 551.653615 
L 521.906908 501.979939 
L 523.357087 568.822995 
L 524.590374 721 
M 527.211282 721 
L 527.707625 670.16458 
L 529.157804 544.879764 
L 530.607984 591.94069 
L 532.058163 662.668704 
L 533.508342 654.849619 
L 534.958522 671.050917 
L 535.87402 721 
M 538.623084 721 
L 539.30906 675.206076 
L 540.759239 621.270016 
L 542.209418 658.671216 
L 543.659598 685.849707 
L 545.109777 673.618557 
L 546.559956 608.684666 
L 548.010136 577.089249 
L 549.460315 647.12933 
L 550.910494 665.898119 
L 552.360674 640.617496 
L 555.261032 557.758882 
L 556.711212 561.52205 
L 558.161391 590.68892 
L 559.61157 638.895354 
L 561.06175 662.419594 
L 562.683814 721 
M 565.589227 721 
L 566.862467 646.435193 
L 568.312646 620.489138 
L 569.762826 620.164459 
L 571.213005 631.998159 
L 572.663184 636.87234 
L 574.113363 637.246353 
L 575.563543 618.960134 
L 577.013722 603.728912 
L 578.463901 626.728056 
L 579.914081 683.648979 
L 581.076332 721 
M 592.169318 721 
L 592.965695 630.393173 
L 594.415874 580.023922 
L 595.866053 614.798743 
L 597.316233 672.090315 
L 598.766412 676.676559 
L 600.216591 630.71093 
L 601.666771 612.973884 
L 603.11695 666.143318 
L 603.787726 721 
M 607.397628 721 
L 607.467488 714.954616 
L 608.917667 620.874512 
L 610.367847 666.679957 
L 611.286548 721 
M 613.413132 721 
L 614.718385 603.918526 
L 616.168564 547.665579 
L 617.618743 585.160721 
L 619.068923 601.523189 
L 620.519102 678.357604 
L 620.962547 721 
M 629.806528 721 
L 630.670357 685.765081 
L 631.075883 721 
L 631.075883 721 
" clip-path="url(#p90292e3964)" style="fill: none; stroke: #1f77b4; stroke-width: 1.5; stroke-linecap: square"/>
   </g>
   <g id="patch_18">
    <path d="M 394.363636 630 
L 394.363636 382.909091 
" style="fill: none; stroke: #000000; stroke-width: 0.8; stroke-linejoin: miter; stroke-linecap: square"/>
   </g>
   <g id="patch_19">
    <path d="M 648 630 
L 648 382.909091 
" style="fill: none; stroke: #000000; stroke-width: 0.8; stroke-linejoin: miter; stroke-linecap: square"/>
   </g>
   <g id="patch_20">
    <path d="M 394.363636 630 
L 648 630 
" style="fill: none; stroke: #000000; stroke-width: 0.8; stroke-linejoin: miter; stroke-linecap: square"/>
   </g>
   <g id="patch_21">
    <path d="M 394.363636 382.909091 
L 648 382.909091 
" style="fill: none; stroke: #000000; stroke-width: 0.8; stroke-linejoin: miter; stroke-linecap: square"/>
   </g>
   <g id="text_51">
    <!-- explained variance -->
    <g transform="translate(464.181818 376.909091)scale(0.12 -0.12)">
     <defs>
      <path id="DejaVuSans-65" d="M 3597 1894 
L 3597 1613 
L 953 1613 
Q 991 1019 1311 708 
Q 1631 397 2203 397 
Q 2534 397 2845 478 
Q 3156 559 3463 722 
L 3463 178 
Q 3153 47 2828 -22 
Q 2503 -91 2169 -91 
Q 1331 -91 842 396 
Q 353 884 353 1716 
Q 353 2575 817 3079 
Q 1281 3584 2069 3584 
Q 2775 3584 3186 3129 
Q 3597 2675 3597 1894 
z
M 3022 2063 
Q 3016 2534 2758 2815 
Q 2500 3097 2075 3097 
Q 1594 3097 1305 2825 
Q 1016 2553 972 2059 
L 3022 2063 
z
" transform="scale(0.015625)"/>
      <path id="DejaVuSans-78" d="M 3513 3500 
L 2247 1797 
L 3578 0 
L 2900 0 
L 1881 1375 
L 863 0 
L 184 0 
L 1544 1831 
L 300 3500 
L 978 3500 
L 1906 2253 
L 2834 3500 
L 3513 3500 
z
" transform="scale(0.015625)"/>
      <path id="DejaVuSans-70" d="M 1159 525 
L 1159 -1331 
L 581 -1331 
L 581 3500 
L 1159 3500 
L 1159 2969 
Q 1341 3281 1617 3432 
Q 1894 3584 2278 3584 
Q 2916 3584 3314 3078 
Q 3713 2572 3713 1747 
Q 3713 922 3314 415 
Q 2916 -91 2278 -91 
Q 1894 -91 1617 61 
Q 1341 213 1159 525 
z
M 3116 1747 
Q 3116 2381 2855 2742 
Q 2594 3103 2138 3103 
Q 1681 3103 1420 2742 
Q 1159 2381 1159 1747 
Q 1159 1113 1420 752 
Q 1681 391 2138 391 
Q 2594 391 2855 752 
Q 3116 1113 3116 1747 
z
" transform="scale(0.015625)"/>
      <path id="DejaVuSans-6c" d="M 603 4863 
L 1178 4863 
L 1178 0 
L 603 0 
L 603 4863 
z
" transform="scale(0.015625)"/>
      <path id="DejaVuSans-61" d="M 2194 1759 
Q 1497 1759 1228 1600 
Q 959 1441 959 1056 
Q 959 750 1161 570 
Q 1363 391 1709 391 
Q 2188 391 2477 730 
Q 2766 1069 2766 1631 
L 2766 1759 
L 2194 1759 
z
M 3341 1997 
L 3341 0 
L 2766 0 
L 2766 531 
Q 2569 213 2275 61 
Q 1981 -91 1556 -91 
Q 1019 -91 701 211 
Q 384 513 384 1019 
Q 384 1609 779 1909 
Q 1175 2209 1959 2209 
L 2766 2209 
L 2766 2266 
Q 2766 2663 2505 2880 
Q 2244 3097 1772 3097 
Q 1472 3097 1187 3025 
Q 903 2953 641 2809 
L 641 3341 
Q 956 3463 1253 3523 
Q 1550 3584 1831 3584 
Q 2591 3584 2966 3190 
Q 3341 2797 3341 1997 
z
" transform="scale(0.015625)"/>
      <path id="DejaVuSans-64" d="M 2906 2969 
L 2906 4863 
L 3481 4863 
L 3481 0 
L 2906 0 
L 2906 525 
Q 2725 213 2448 61 
Q 2172 -91 1784 -91 
Q 1150 -91 751 415 
Q 353 922 353 1747 
Q 353 2572 751 3078 
Q 1150 3584 1784 3584 
Q 2172 3584 2448 3432 
Q 2725 3281 2906 2969 
z
M 947 1747 
Q 947 1113 1208 752 
Q 1469 391 1925 391 
Q 2381 391 2643 752 
Q 2906 1113 2906 1747 
Q 2906 2381 2643 2742 
Q 2381 3103 1925 3103 
Q 1469 3103 1208 2742 
Q 947 2381 947 1747 
z
" transform="scale(0.015625)"/>
      <path id="DejaVuSans-20" transform="scale(0.015625)"/>
      <path id="DejaVuSans-76" d="M 191 3500 
L 800 3500 
L 1894 563 
L 2988 3500 
L 3597 3500 
L 2284 0 
L 1503 0 
L 191 3500 
z
" transform="scale(0.015625)"/>
      <path id="DejaVuSans-72" d="M 2631 2963 
Q 2534 3019 2420 3045 
Q 2306 3072 2169 3072 
Q 1681 3072 1420 2755 
Q 1159 2438 1159 1844 
L 1159 0 
L 581 0 
L 581 3500 
L 1159 3500 
L 1159 2956 
Q 1341 3275 1631 3429 
Q 1922 3584 2338 3584 
Q 2397 3584 2469 3576 
Q 2541 3569 2628 3553 
L 2631 2963 
z
" transform="scale(0.015625)"/>
      <path id="DejaVuSans-63" d="M 3122 3366 
L 3122 2828 
Q 2878 2963 2633 3030 
Q 2388 3097 2138 3097 
Q 1578 3097 1268 2742 
Q 959 2388 959 1747 
Q 959 1106 1268 751 
Q 1578 397 2138 397 
Q 2388 397 2633 464 
Q 2878 531 3122 666 
L 3122 134 
Q 2881 22 2623 -34 
Q 2366 -91 2075 -91 
Q 1284 -91 818 406 
Q 353 903 353 1747 
Q 353 2603 823 3093 
Q 1294 3584 2113 3584 
Q 2378 3584 2631 3529 
Q 2884 3475 3122 3366 
z
" transform="scale(0.015625)"/>
     </defs>
     <use xlink:href="#DejaVuSans-65"/>
     <use xlink:href="#DejaVuSans-78" x="59.773438"/>
     <use xlink:href="#DejaVuSans-70" x="118.953125"/>
     <use xlink:href="#DejaVuSans-6c" x="182.429688"/>
     <use xlink:href="#DejaVuSans-61" x="210.212891"/>
     <use xlink:href="#DejaVuSans-69" x="271.492188"/>
     <use xlink:href="#DejaVuSans-6e" x="299.275391"/>
     <use xlink:href="#DejaVuSans-65" x="362.654297"/>
     <use xlink:href="#DejaVuSans-64" x="424.177734"/>
     <use xlink:href="#DejaVuSans-20" x="487.654297"/>
     <use xlink:href="#DejaVuSans-76" x="519.441406"/>
     <use xlink:href="#DejaVuSans-61" x="578.621094"/>
     <use xlink:href="#DejaVuSans-72" x="639.900391"/>
     <use xlink:href="#DejaVuSans-69" x="681.013672"/>
     <use xlink:href="#DejaVuSans-61" x="708.796875"/>
     <use xlink:href="#DejaVuSans-6e" x="770.076172"/>
     <use xlink:href="#DejaVuSans-63" x="833.455078"/>
     <use xlink:href="#DejaVuSans-65" x="888.435547"/>
    </g>
   </g>
  </g>
 </g>
 <defs>
  <clipPath id="pdcfbb5affd">
   <rect x="394.363636" y="86.4" width="253.636364" height="247.090909"/>
  </clipPath>
  <clipPath id="p90292e3964">
   <rect x="394.363636" y="382.909091" width="253.636364" height="247.090909"/>
  </clipPath>
 </defs>
</svg>
