<?xml version="1.0" encoding="utf-8" standalone="no"?>
<!DOCTYPE svg PUBLIC "-//W3C//DTD SVG 1.1//EN"
  "http://www.w3.org/Graphics/SVG/1.1/DTD/svg11.dtd">
<svg xmlns:xlink="http://www.w3.org/1999/xlink" width="720pt" height="720pt" viewBox="0 0 720 720" xmlns="http://www.w3.org/2000/svg" version="1.1">
 <metadata>
  <rdf:RDF xmlns:dc="http://purl.org/dc/elements/1.1/" xmlns:cc="http://creativecommons.org/ns#" xmlns:rdf="http://www.w3.org/1999/02/22-rdf-syntax-ns#">
   <cc:Work>
    <dc:type rdf:resource="http://purl.org/dc/dcmitype/StillImage"/>
    <dc:date>2023-12-19T18:17:40.740023</dc:date>
    <dc:format>image/svg+xml</dc:format>
    <dc:creator>
     <cc:Agent>
      <dc:title>Matplotlib v3.5.2, https://matplotlib.org/</dc:title>
     </cc:Agent>
    </dc:creator>
   </cc:Work>
  </rdf:RDF>
 </metadata>
 <defs>
  <style type="text/css">*{stroke-linejoin: round; stroke-linecap: butt}</style>
 </defs>
 <g id="figure_1">
  <g id="patch_1">
   <path d="M 0 720 
L 720 720 
L 720 0 
L 0 0 
z
" style="fill: #ffffff"/>
  </g>
  <g id="axes_1">
   <g id="patch_2">
    <path d="M 90 333.490909 
L 343.636364 333.490909 
L 343.636364 86.4 
L 90 86.4 
z
" style="fill: #ffffff"/>
   </g>
   <g id="matplotlib.axis_1">
    <g id="xtick_1">
     <g id="line2d_1">
      <defs>
       <path id="m8fd3746a5e" d="M 0 0 
L 0 3.5 
" style="stroke: #000000; stroke-width: 0.8"/>
      </defs>
      <g>
       <use xlink:href="#m8fd3746a5e" x="90" y="333.490909" style="stroke: #000000; stroke-width: 0.8"/>
      </g>
     </g>
     <g id="text_1">
      <!-- 0.0 -->
      <g transform="translate(82.048438 348.089347)scale(0.1 -0.1)">
       <defs>
        <path id="DejaVuSans-30" d="M 2034 4250 
Q 1547 4250 1301 3770 
Q 1056 3291 1056 2328 
Q 1056 1369 1301 889 
Q 1547 409 2034 409 
Q 2525 409 2770 889 
Q 3016 1369 3016 2328 
Q 3016 3291 2770 3770 
Q 2525 4250 2034 4250 
z
M 2034 4750 
Q 2819 4750 3233 4129 
Q 3647 3509 3647 2328 
Q 3647 1150 3233 529 
Q 2819 -91 2034 -91 
Q 1250 -91 836 529 
Q 422 1150 422 2328 
Q 422 3509 836 4129 
Q 1250 4750 2034 4750 
z
" transform="scale(0.015625)"/>
        <path id="DejaVuSans-2e" d="M 684 794 
L 1344 794 
L 1344 0 
L 684 0 
L 684 794 
z
" transform="scale(0.015625)"/>
       </defs>
       <use xlink:href="#DejaVuSans-30"/>
       <use xlink:href="#DejaVuSans-2e" x="63.623047"/>
       <use xlink:href="#DejaVuSans-30" x="95.410156"/>
      </g>
     </g>
    </g>
    <g id="xtick_2">
     <g id="line2d_2">
      <g>
       <use xlink:href="#m8fd3746a5e" x="140.727273" y="333.490909" style="stroke: #000000; stroke-width: 0.8"/>
      </g>
     </g>
     <g id="text_2">
      <!-- 0.2 -->
      <g transform="translate(132.77571 348.089347)scale(0.1 -0.1)">
       <defs>
        <path id="DejaVuSans-32" d="M 1228 531 
L 3431 531 
L 3431 0 
L 469 0 
L 469 531 
Q 828 903 1448 1529 
Q 2069 2156 2228 2338 
Q 2531 2678 2651 2914 
Q 2772 3150 2772 3378 
Q 2772 3750 2511 3984 
Q 2250 4219 1831 4219 
Q 1534 4219 1204 4116 
Q 875 4013 500 3803 
L 500 4441 
Q 881 4594 1212 4672 
Q 1544 4750 1819 4750 
Q 2544 4750 2975 4387 
Q 3406 4025 3406 3419 
Q 3406 3131 3298 2873 
Q 3191 2616 2906 2266 
Q 2828 2175 2409 1742 
Q 1991 1309 1228 531 
z
" transform="scale(0.015625)"/>
       </defs>
       <use xlink:href="#DejaVuSans-30"/>
       <use xlink:href="#DejaVuSans-2e" x="63.623047"/>
       <use xlink:href="#DejaVuSans-32" x="95.410156"/>
      </g>
     </g>
    </g>
    <g id="xtick_3">
     <g id="line2d_3">
      <g>
       <use xlink:href="#m8fd3746a5e" x="191.454545" y="333.490909" style="stroke: #000000; stroke-width: 0.8"/>
      </g>
     </g>
     <g id="text_3">
      <!-- 0.4 -->
      <g transform="translate(183.502983 348.089347)scale(0.1 -0.1)">
       <defs>
        <path id="DejaVuSans-34" d="M 2419 4116 
L 825 1625 
L 2419 1625 
L 2419 4116 
z
M 2253 4666 
L 3047 4666 
L 3047 1625 
L 3713 1625 
L 3713 1100 
L 3047 1100 
L 3047 0 
L 2419 0 
L 2419 1100 
L 313 1100 
L 313 1709 
L 2253 4666 
z
" transform="scale(0.015625)"/>
       </defs>
       <use xlink:href="#DejaVuSans-30"/>
       <use xlink:href="#DejaVuSans-2e" x="63.623047"/>
       <use xlink:href="#DejaVuSans-34" x="95.410156"/>
      </g>
     </g>
    </g>
    <g id="xtick_4">
     <g id="line2d_4">
      <g>
       <use xlink:href="#m8fd3746a5e" x="242.181818" y="333.490909" style="stroke: #000000; stroke-width: 0.8"/>
      </g>
     </g>
     <g id="text_4">
      <!-- 0.6 -->
      <g transform="translate(234.230256 348.089347)scale(0.1 -0.1)">
       <defs>
        <path id="DejaVuSans-36" d="M 2113 2584 
Q 1688 2584 1439 2293 
Q 1191 2003 1191 1497 
Q 1191 994 1439 701 
Q 1688 409 2113 409 
Q 2538 409 2786 701 
Q 3034 994 3034 1497 
Q 3034 2003 2786 2293 
Q 2538 2584 2113 2584 
z
M 3366 4563 
L 3366 3988 
Q 3128 4100 2886 4159 
Q 2644 4219 2406 4219 
Q 1781 4219 1451 3797 
Q 1122 3375 1075 2522 
Q 1259 2794 1537 2939 
Q 1816 3084 2150 3084 
Q 2853 3084 3261 2657 
Q 3669 2231 3669 1497 
Q 3669 778 3244 343 
Q 2819 -91 2113 -91 
Q 1303 -91 875 529 
Q 447 1150 447 2328 
Q 447 3434 972 4092 
Q 1497 4750 2381 4750 
Q 2619 4750 2861 4703 
Q 3103 4656 3366 4563 
z
" transform="scale(0.015625)"/>
       </defs>
       <use xlink:href="#DejaVuSans-30"/>
       <use xlink:href="#DejaVuSans-2e" x="63.623047"/>
       <use xlink:href="#DejaVuSans-36" x="95.410156"/>
      </g>
     </g>
    </g>
    <g id="xtick_5">
     <g id="line2d_5">
      <g>
       <use xlink:href="#m8fd3746a5e" x="292.909091" y="333.490909" style="stroke: #000000; stroke-width: 0.8"/>
      </g>
     </g>
     <g id="text_5">
      <!-- 0.8 -->
      <g transform="translate(284.957528 348.089347)scale(0.1 -0.1)">
       <defs>
        <path id="DejaVuSans-38" d="M 2034 2216 
Q 1584 2216 1326 1975 
Q 1069 1734 1069 1313 
Q 1069 891 1326 650 
Q 1584 409 2034 409 
Q 2484 409 2743 651 
Q 3003 894 3003 1313 
Q 3003 1734 2745 1975 
Q 2488 2216 2034 2216 
z
M 1403 2484 
Q 997 2584 770 2862 
Q 544 3141 544 3541 
Q 544 4100 942 4425 
Q 1341 4750 2034 4750 
Q 2731 4750 3128 4425 
Q 3525 4100 3525 3541 
Q 3525 3141 3298 2862 
Q 3072 2584 2669 2484 
Q 3125 2378 3379 2068 
Q 3634 1759 3634 1313 
Q 3634 634 3220 271 
Q 2806 -91 2034 -91 
Q 1263 -91 848 271 
Q 434 634 434 1313 
Q 434 1759 690 2068 
Q 947 2378 1403 2484 
z
M 1172 3481 
Q 1172 3119 1398 2916 
Q 1625 2713 2034 2713 
Q 2441 2713 2670 2916 
Q 2900 3119 2900 3481 
Q 2900 3844 2670 4047 
Q 2441 4250 2034 4250 
Q 1625 4250 1398 4047 
Q 1172 3844 1172 3481 
z
" transform="scale(0.015625)"/>
       </defs>
       <use xlink:href="#DejaVuSans-30"/>
       <use xlink:href="#DejaVuSans-2e" x="63.623047"/>
       <use xlink:href="#DejaVuSans-38" x="95.410156"/>
      </g>
     </g>
    </g>
    <g id="xtick_6">
     <g id="line2d_6">
      <g>
       <use xlink:href="#m8fd3746a5e" x="343.636364" y="333.490909" style="stroke: #000000; stroke-width: 0.8"/>
      </g>
     </g>
     <g id="text_6">
      <!-- 1.0 -->
      <g transform="translate(335.684801 348.089347)scale(0.1 -0.1)">
       <defs>
        <path id="DejaVuSans-31" d="M 794 531 
L 1825 531 
L 1825 4091 
L 703 3866 
L 703 4441 
L 1819 4666 
L 2450 4666 
L 2450 531 
L 3481 531 
L 3481 0 
L 794 0 
L 794 531 
z
" transform="scale(0.015625)"/>
       </defs>
       <use xlink:href="#DejaVuSans-31"/>
       <use xlink:href="#DejaVuSans-2e" x="63.623047"/>
       <use xlink:href="#DejaVuSans-30" x="95.410156"/>
      </g>
     </g>
    </g>
   </g>
   <g id="matplotlib.axis_2">
    <g id="ytick_1">
     <g id="line2d_7">
      <defs>
       <path id="ma9ba5b6c93" d="M 0 0 
L -3.5 0 
" style="stroke: #000000; stroke-width: 0.8"/>
      </defs>
      <g>
       <use xlink:href="#ma9ba5b6c93" x="90" y="333.490909" style="stroke: #000000; stroke-width: 0.8"/>
      </g>
     </g>
     <g id="text_7">
      <!-- 0.0 -->
      <g transform="translate(67.096875 337.290128)scale(0.1 -0.1)">
       <use xlink:href="#DejaVuSans-30"/>
       <use xlink:href="#DejaVuSans-2e" x="63.623047"/>
       <use xlink:href="#DejaVuSans-30" x="95.410156"/>
      </g>
     </g>
    </g>
    <g id="ytick_2">
     <g id="line2d_8">
      <g>
       <use xlink:href="#ma9ba5b6c93" x="90" y="284.072727" style="stroke: #000000; stroke-width: 0.8"/>
      </g>
     </g>
     <g id="text_8">
      <!-- 0.2 -->
      <g transform="translate(67.096875 287.871946)scale(0.1 -0.1)">
       <use xlink:href="#DejaVuSans-30"/>
       <use xlink:href="#DejaVuSans-2e" x="63.623047"/>
       <use xlink:href="#DejaVuSans-32" x="95.410156"/>
      </g>
     </g>
    </g>
    <g id="ytick_3">
     <g id="line2d_9">
      <g>
       <use xlink:href="#ma9ba5b6c93" x="90" y="234.654545" style="stroke: #000000; stroke-width: 0.8"/>
      </g>
     </g>
     <g id="text_9">
      <!-- 0.4 -->
      <g transform="translate(67.096875 238.453764)scale(0.1 -0.1)">
       <use xlink:href="#DejaVuSans-30"/>
       <use xlink:href="#DejaVuSans-2e" x="63.623047"/>
       <use xlink:href="#DejaVuSans-34" x="95.410156"/>
      </g>
     </g>
    </g>
    <g id="ytick_4">
     <g id="line2d_10">
      <g>
       <use xlink:href="#ma9ba5b6c93" x="90" y="185.236364" style="stroke: #000000; stroke-width: 0.8"/>
      </g>
     </g>
     <g id="text_10">
      <!-- 0.6 -->
      <g transform="translate(67.096875 189.035582)scale(0.1 -0.1)">
       <use xlink:href="#DejaVuSans-30"/>
       <use xlink:href="#DejaVuSans-2e" x="63.623047"/>
       <use xlink:href="#DejaVuSans-36" x="95.410156"/>
      </g>
     </g>
    </g>
    <g id="ytick_5">
     <g id="line2d_11">
      <g>
       <use xlink:href="#ma9ba5b6c93" x="90" y="135.818182" style="stroke: #000000; stroke-width: 0.8"/>
      </g>
     </g>
     <g id="text_11">
      <!-- 0.8 -->
      <g transform="translate(67.096875 139.617401)scale(0.1 -0.1)">
       <use xlink:href="#DejaVuSans-30"/>
       <use xlink:href="#DejaVuSans-2e" x="63.623047"/>
       <use xlink:href="#DejaVuSans-38" x="95.410156"/>
      </g>
     </g>
    </g>
    <g id="ytick_6">
     <g id="line2d_12">
      <g>
       <use xlink:href="#ma9ba5b6c93" x="90" y="86.4" style="stroke: #000000; stroke-width: 0.8"/>
      </g>
     </g>
     <g id="text_12">
      <!-- 1.0 -->
      <g transform="translate(67.096875 90.199219)scale(0.1 -0.1)">
       <use xlink:href="#DejaVuSans-31"/>
       <use xlink:href="#DejaVuSans-2e" x="63.623047"/>
       <use xlink:href="#DejaVuSans-30" x="95.410156"/>
      </g>
     </g>
    </g>
   </g>
   <g id="patch_3">
    <path d="M 90 333.490909 
L 90 86.4 
" style="fill: none; stroke: #000000; stroke-width: 0.8; stroke-linejoin: miter; stroke-linecap: square"/>
   </g>
   <g id="patch_4">
    <path d="M 343.636364 333.490909 
L 343.636364 86.4 
" style="fill: none; stroke: #000000; stroke-width: 0.8; stroke-linejoin: miter; stroke-linecap: square"/>
   </g>
   <g id="patch_5">
    <path d="M 90 333.490909 
L 343.636364 333.490909 
" style="fill: none; stroke: #000000; stroke-width: 0.8; stroke-linejoin: miter; stroke-linecap: square"/>
   </g>
   <g id="patch_6">
    <path d="M 90 86.4 
L 343.636364 86.4 
" style="fill: none; stroke: #000000; stroke-width: 0.8; stroke-linejoin: miter; stroke-linecap: square"/>
   </g>
  </g>
  <g id="axes_2">
   <g id="patch_7">
    <path d="M 394.363636 333.490909 
L 648 333.490909 
L 648 86.4 
L 394.363636 86.4 
z
" style="fill: #ffffff"/>
   </g>
   <g id="PolyCollection_1">
    <defs>
     <path id="m2b4c9cfde3" d="M 405.892562 -535.702288 
L 405.892562 -535.702288 
L 407.342741 -534.432655 
L 408.792921 -530.573272 
L 410.2431 -521.992307 
L 411.693279 -507.388759 
L 413.143459 -488.276261 
L 414.593638 -456.016634 
L 416.043817 -454.820961 
L 417.493997 -437.203867 
L 418.944176 -441.075103 
L 420.394355 -456.877699 
L 421.844535 -484.889338 
L 423.294714 -493.232065 
L 424.744893 -516.705524 
L 426.195073 -526.457731 
L 427.645252 -527.939183 
L 429.095431 -534.910749 
L 430.54561 -535.56976 
L 431.99579 -534.771558 
L 433.445969 -532.636063 
L 434.896148 -529.430933 
L 436.346328 -526.288263 
L 437.796507 -512.467092 
L 439.246686 -525.684596 
L 440.696866 -527.43262 
L 442.147045 -527.682485 
L 443.597224 -525.204002 
L 445.047404 -521.247779 
L 446.497583 -507.091146 
L 447.947762 -512.038787 
L 449.397942 -523.983041 
L 450.848121 -529.018362 
L 452.2983 -532.871526 
L 453.74848 -534.993047 
L 455.198659 -535.869907 
L 456.648838 -536.147422 
L 458.099018 -536.215373 
L 459.549197 -536.228839 
L 460.999376 -536.230486 
L 462.449556 -536.230486 
L 463.899735 -536.230486 
L 465.349914 -536.230486 
L 466.800094 -536.230486 
L 468.250273 -536.230486 
L 469.700452 -536.230486 
L 471.150632 -536.230486 
L 472.600811 -536.233708 
L 474.05099 -536.251496 
L 475.501169 -536.337181 
L 476.951349 -536.658916 
L 478.401528 -537.572307 
L 479.851707 -539.561905 
L 481.301887 -542.89957 
L 482.752066 -547.30771 
L 484.202245 -537.852094 
L 485.652425 -556.460437 
L 487.102604 -559.456242 
L 488.552783 -540.556166 
L 490.002963 -558.596454 
L 491.453142 -557.19485 
L 492.903321 -558.05015 
L 494.353501 -546.851954 
L 495.80368 -546.918455 
L 497.253859 -543.677965 
L 498.704039 -553.394561 
L 500.154218 -546.520262 
L 501.604397 -541.177106 
L 503.054577 -538.126967 
L 504.504756 -536.807364 
L 505.954935 -536.369167 
L 507.405115 -536.256446 
L 508.855294 -536.234009 
L 510.305473 -536.230486 
L 511.755653 -536.230486 
L 513.205832 -536.230486 
L 514.656011 -536.230486 
L 516.106191 -536.223624 
L 517.55637 -536.180481 
L 519.006549 -535.968948 
L 520.456729 -535.148569 
L 521.906908 -532.71464 
L 523.357087 -527.170119 
L 524.807266 -517.557225 
L 526.257446 -505.047419 
L 527.707625 -470.086704 
L 529.157804 -466.305892 
L 530.607984 -486.387443 
L 532.058163 -469.27446 
L 533.508342 -504.775746 
L 534.958522 -516.99298 
L 536.408701 -526.6343 
L 537.85888 -532.393223 
L 539.30906 -535.014633 
L 540.759239 -535.928219 
L 542.209418 -536.172002 
L 543.659598 -536.221517 
L 545.109777 -536.230486 
L 546.559956 -536.230486 
L 548.010136 -536.230486 
L 549.460315 -536.230486 
L 550.910494 -536.230486 
L 552.360674 -536.230486 
L 553.810853 -536.230486 
L 555.261032 -536.230486 
L 556.711212 -536.230486 
L 558.161391 -536.230486 
L 559.61157 -536.230486 
L 561.06175 -536.230486 
L 562.511929 -536.230486 
L 563.962108 -536.230486 
L 565.412288 -536.230486 
L 566.862467 -536.230486 
L 568.312646 -536.230486 
L 569.762826 -536.230486 
L 571.213005 -536.230486 
L 572.663184 -536.230486 
L 574.113363 -536.230486 
L 575.563543 -536.230486 
L 577.013722 -536.230486 
L 578.463901 -536.230486 
L 579.914081 -536.230486 
L 581.36426 -536.230486 
L 582.814439 -536.230486 
L 584.264619 -536.230486 
L 585.714798 -536.230486 
L 587.164977 -536.230486 
L 588.615157 -536.230486 
L 590.065336 -536.230486 
L 591.515515 -536.230486 
L 592.965695 -536.230486 
L 594.415874 -536.230486 
L 595.866053 -536.230486 
L 597.316233 -536.230486 
L 598.766412 -536.230486 
L 600.216591 -536.230903 
L 601.666771 -536.233207 
L 603.11695 -536.244305 
L 604.567129 -536.28514 
L 606.017309 -536.398834 
L 607.467488 -536.634331 
L 608.917667 -536.984968 
L 610.367847 -537.32825 
L 611.818026 -525.927335 
L 613.268205 -537.32825 
L 614.718385 -536.984968 
L 616.168564 -536.633717 
L 617.618743 -536.394833 
L 619.068923 -536.266993 
L 620.519102 -536.178093 
L 621.969281 -536.05751 
L 623.41946 -535.930042 
L 624.86964 -536.053886 
L 626.319819 -537.008969 
L 627.769998 -533.762693 
L 629.220178 -543.960843 
L 630.670357 -541.606404 
L 632.120536 -558.561866 
L 633.570716 -566.861319 
L 635.020895 -556.519264 
L 636.471074 -576.782411 
L 636.471074 -576.782411 
L 636.471074 -576.782411 
L 635.020895 -590.252414 
L 633.570716 -566.861319 
L 632.120536 -558.561866 
L 630.670357 -559.339083 
L 629.220178 -543.960843 
L 627.769998 -545.224935 
L 626.319819 -537.008969 
L 624.86964 -536.053886 
L 623.41946 -535.930042 
L 621.969281 -536.05751 
L 620.519102 -536.178093 
L 619.068923 -536.266993 
L 617.618743 -536.394833 
L 616.168564 -536.633717 
L 614.718385 -536.984968 
L 613.268205 -537.32825 
L 611.818026 -549.021497 
L 610.367847 -537.32825 
L 608.917667 -536.984968 
L 607.467488 -536.634331 
L 606.017309 -536.398834 
L 604.567129 -536.28514 
L 603.11695 -536.244305 
L 601.666771 -536.233207 
L 600.216591 -536.230903 
L 598.766412 -536.230486 
L 597.316233 -536.230486 
L 595.866053 -536.230486 
L 594.415874 -536.230486 
L 592.965695 -536.230486 
L 591.515515 -536.230486 
L 590.065336 -536.230486 
L 588.615157 -536.230486 
L 587.164977 -536.230486 
L 585.714798 -536.230486 
L 584.264619 -536.230486 
L 582.814439 -536.230486 
L 581.36426 -536.230486 
L 579.914081 -536.230486 
L 578.463901 -536.230486 
L 577.013722 -536.230486 
L 575.563543 -536.230486 
L 574.113363 -536.230486 
L 572.663184 -536.230486 
L 571.213005 -536.230486 
L 569.762826 -536.230486 
L 568.312646 -536.230486 
L 566.862467 -536.230486 
L 565.412288 -536.230486 
L 563.962108 -536.230486 
L 562.511929 -536.230486 
L 561.06175 -536.230486 
L 559.61157 -536.230486 
L 558.161391 -536.230486 
L 556.711212 -536.230486 
L 555.261032 -536.230486 
L 553.810853 -536.230486 
L 552.360674 -536.230486 
L 550.910494 -536.230486 
L 549.460315 -536.230486 
L 548.010136 -536.230486 
L 546.559956 -536.230486 
L 545.109777 -536.230486 
L 543.659598 -536.221517 
L 542.209418 -536.172002 
L 540.759239 -535.928219 
L 539.30906 -535.014633 
L 537.85888 -532.393223 
L 536.408701 -526.6343 
L 534.958522 -516.99298 
L 533.508342 -504.775746 
L 532.058163 -517.406226 
L 530.607984 -486.387443 
L 529.157804 -506.249587 
L 527.707625 -516.420608 
L 526.257446 -505.047419 
L 524.807266 -517.557225 
L 523.357087 -527.170119 
L 521.906908 -532.71464 
L 520.456729 -535.148569 
L 519.006549 -535.968948 
L 517.55637 -536.180481 
L 516.106191 -536.223624 
L 514.656011 -536.230486 
L 513.205832 -536.230486 
L 511.755653 -536.230486 
L 510.305473 -536.230486 
L 508.855294 -536.234009 
L 507.405115 -536.256446 
L 505.954935 -536.369167 
L 504.504756 -536.807364 
L 503.054577 -538.126967 
L 501.604397 -541.177106 
L 500.154218 -546.520262 
L 498.704039 -553.394561 
L 497.253859 -575.096406 
L 495.80368 -576.918209 
L 494.353501 -574.417182 
L 492.903321 -558.05015 
L 491.453142 -557.19485 
L 490.002963 -558.596454 
L 488.552783 -579.607837 
L 487.102604 -559.456242 
L 485.652425 -556.460437 
L 484.202245 -566.325263 
L 482.752066 -547.30771 
L 481.301887 -542.89957 
L 479.851707 -539.561905 
L 478.401528 -537.572307 
L 476.951349 -536.658916 
L 475.501169 -536.337181 
L 474.05099 -536.251496 
L 472.600811 -536.233708 
L 471.150632 -536.230486 
L 469.700452 -536.230486 
L 468.250273 -536.230486 
L 466.800094 -536.230486 
L 465.349914 -536.230486 
L 463.899735 -536.230486 
L 462.449556 -536.230486 
L 460.999376 -536.230486 
L 459.549197 -536.228839 
L 458.099018 -536.215373 
L 456.648838 -536.147422 
L 455.198659 -535.869907 
L 453.74848 -534.993047 
L 452.2983 -532.871526 
L 450.848121 -529.018362 
L 449.397942 -523.983041 
L 447.947762 -527.532459 
L 446.497583 -530.367585 
L 445.047404 -521.247779 
L 443.597224 -525.204002 
L 442.147045 -527.682485 
L 440.696866 -527.43262 
L 439.246686 -525.684596 
L 437.796507 -537.207012 
L 436.346328 -526.288263 
L 434.896148 -529.430933 
L 433.445969 -532.636063 
L 431.99579 -534.771558 
L 430.54561 -535.56976 
L 429.095431 -534.910749 
L 427.645252 -536.477792 
L 426.195073 -526.457731 
L 424.744893 -516.705524 
L 423.294714 -511.843464 
L 421.844535 -484.889338 
L 420.394355 -477.031475 
L 418.944176 -466.257678 
L 417.493997 -461.167023 
L 416.043817 -454.820961 
L 414.593638 -482.117772 
L 413.143459 -488.276261 
L 411.693279 -507.388759 
L 410.2431 -521.992307 
L 408.792921 -530.573272 
L 407.342741 -534.432655 
L 405.892562 -535.702288 
z
" style="stroke: #9467bd; stroke-opacity: 0.2"/>
    </defs>
    <g clip-path="url(#p534c11e580)">
     <use xlink:href="#m2b4c9cfde3" x="0" y="720" style="fill: #9467bd; fill-opacity: 0.2; stroke: #9467bd; stroke-opacity: 0.2"/>
    </g>
   </g>
   <g id="PolyCollection_2">
    <defs>
     <path id="m2eab110067" d="M 405.892562 -576.60097 
L 405.892562 -576.60097 
L 407.342741 -555.71241 
L 408.792921 -559.628794 
L 410.2431 -556.452182 
L 411.693279 -557.997106 
L 413.143459 -546.213634 
L 414.593638 -548.2655 
L 416.043817 -543.665931 
L 417.493997 -540.006382 
L 418.944176 -537.76321 
L 420.394355 -536.720258 
L 421.844535 -536.353697 
L 423.294714 -536.255595 
L 424.744893 -536.23854 
L 426.195073 -536.243956 
L 427.645252 -536.262798 
L 429.095431 -536.290853 
L 430.54561 -536.318319 
L 431.99579 -535.831065 
L 433.445969 -536.318328 
L 434.896148 -536.29091 
L 436.346328 -536.263088 
L 437.796507 -536.245104 
L 439.246686 -536.238395 
L 440.696866 -536.236812 
L 442.147045 -536.22528 
L 443.597224 -536.145554 
L 445.047404 -535.698351 
L 446.497583 -534.9373 
L 447.947762 -533.086437 
L 449.397942 -530.32343 
L 450.848121 -527.570111 
L 452.2983 -519.783815 
L 453.74848 -526.659621 
L 455.198659 -527.816102 
L 456.648838 -527.276398 
L 458.099018 -525.885522 
L 459.549197 -512.896621 
L 460.999376 -512.309722 
L 462.449556 -508.231354 
L 463.899735 -502.928794 
L 465.349914 -497.943684 
L 466.800094 -497.02539 
L 468.250273 -495.349573 
L 469.700452 -489.67295 
L 471.150632 -492.921712 
L 472.600811 -479.33512 
L 474.05099 -491.290836 
L 475.501169 -509.016937 
L 476.951349 -509.60295 
L 478.401528 -520.92105 
L 479.851707 -527.823277 
L 481.301887 -530.638681 
L 482.752066 -527.049842 
L 484.202245 -531.673774 
L 485.652425 -526.832981 
L 487.102604 -532.591914 
L 488.552783 -533.308141 
L 490.002963 -529.774729 
L 491.453142 -534.420142 
L 492.903321 -535.158542 
L 494.353501 -535.215536 
L 495.80368 -534.392665 
L 497.253859 -532.127944 
L 498.704039 -528.123876 
L 500.154218 -518.379009 
L 501.604397 -510.850282 
L 503.054577 -508.044149 
L 504.504756 -515.012543 
L 505.954935 -508.941355 
L 507.405115 -512.72779 
L 508.855294 -503.789 
L 510.305473 -474.150704 
L 511.755653 -475.846518 
L 513.205832 -442.478755 
L 514.656011 -433.847556 
L 516.106191 -439.592771 
L 517.55637 -404.88285 
L 519.006549 -397.740496 
L 520.456729 -399.326973 
L 521.906908 -406.186288 
L 523.357087 -416.8857 
L 524.807266 -437.855191 
L 526.257446 -454.636706 
L 527.707625 -498.887632 
L 529.157804 -515.377366 
L 530.607984 -524.415669 
L 532.058163 -526.729901 
L 533.508342 -509.360897 
L 534.958522 -520.787546 
L 536.408701 -502.539155 
L 537.85888 -499.49098 
L 539.30906 -518.399908 
L 540.759239 -509.108523 
L 542.209418 -523.638413 
L 543.659598 -524.005649 
L 545.109777 -523.150687 
L 546.559956 -513.137168 
L 548.010136 -524.851732 
L 549.460315 -527.421646 
L 550.910494 -529.644604 
L 552.360674 -528.48636 
L 553.810853 -524.39751 
L 555.261032 -519.689475 
L 556.711212 -503.106496 
L 558.161391 -519.83172 
L 559.61157 -524.963054 
L 561.06175 -530.199531 
L 562.511929 -533.716421 
L 563.962108 -535.414288 
L 565.412288 -536.024119 
L 566.862467 -536.18985 
L 568.312646 -536.224254 
L 569.762826 -536.230486 
L 571.213005 -536.230486 
L 572.663184 -536.230486 
L 574.113363 -536.230486 
L 575.563543 -536.230486 
L 577.013722 -536.230486 
L 578.463901 -536.230486 
L 579.914081 -536.230486 
L 581.36426 -536.230486 
L 582.814439 -536.230486 
L 584.264619 -536.230486 
L 585.714798 -536.230486 
L 587.164977 -536.230486 
L 588.615157 -536.230486 
L 590.065336 -536.230486 
L 591.515515 -536.230486 
L 592.965695 -536.230486 
L 594.415874 -536.230486 
L 595.866053 -536.230486 
L 597.316233 -536.230486 
L 598.766412 -536.230486 
L 600.216591 -536.230486 
L 601.666771 -536.230486 
L 603.11695 -536.230486 
L 604.567129 -536.230486 
L 606.017309 -536.230326 
L 607.467488 -536.229445 
L 608.917667 -536.225202 
L 610.367847 -536.209587 
L 611.818026 -536.166113 
L 613.268205 -536.076134 
L 614.718385 -535.942441 
L 616.168564 -535.813023 
L 617.618743 -533.406644 
L 619.068923 -535.838731 
L 620.519102 -536.009173 
L 621.969281 -536.201601 
L 623.41946 -536.348864 
L 624.86964 -535.379713 
L 626.319819 -536.410304 
L 627.769998 -536.362587 
L 629.220178 -536.315818 
L 630.670357 -536.292783 
L 632.120536 -536.289917 
L 633.570716 -536.009191 
L 635.020895 -536.288275 
L 636.471074 -536.283011 
L 636.471074 -536.283011 
L 636.471074 -536.283011 
L 635.020895 -536.288275 
L 633.570716 -536.573993 
L 632.120536 -536.289917 
L 630.670357 -536.292783 
L 629.220178 -536.315818 
L 627.769998 -536.362587 
L 626.319819 -536.410304 
L 624.86964 -537.454601 
L 623.41946 -536.348864 
L 621.969281 -536.201601 
L 620.519102 -536.009173 
L 619.068923 -535.838731 
L 617.618743 -538.121208 
L 616.168564 -535.813023 
L 614.718385 -535.942441 
L 613.268205 -536.076134 
L 611.818026 -536.166113 
L 610.367847 -536.209587 
L 608.917667 -536.225202 
L 607.467488 -536.229445 
L 606.017309 -536.230326 
L 604.567129 -536.230486 
L 603.11695 -536.230486 
L 601.666771 -536.230486 
L 600.216591 -536.230486 
L 598.766412 -536.230486 
L 597.316233 -536.230486 
L 595.866053 -536.230486 
L 594.415874 -536.230486 
L 592.965695 -536.230486 
L 591.515515 -536.230486 
L 590.065336 -536.230486 
L 588.615157 -536.230486 
L 587.164977 -536.230486 
L 585.714798 -536.230486 
L 584.264619 -536.230486 
L 582.814439 -536.230486 
L 581.36426 -536.230486 
L 579.914081 -536.230486 
L 578.463901 -536.230486 
L 577.013722 -536.230486 
L 575.563543 -536.230486 
L 574.113363 -536.230486 
L 572.663184 -536.230486 
L 571.213005 -536.230486 
L 569.762826 -536.230486 
L 568.312646 -536.224254 
L 566.862467 -536.18985 
L 565.412288 -536.024119 
L 563.962108 -535.414288 
L 562.511929 -533.716421 
L 561.06175 -530.199531 
L 559.61157 -524.963054 
L 558.161391 -519.83172 
L 556.711212 -532.140614 
L 555.261032 -519.689475 
L 553.810853 -524.39751 
L 552.360674 -528.48636 
L 550.910494 -529.644604 
L 549.460315 -528.214522 
L 548.010136 -524.851732 
L 546.559956 -532.894432 
L 545.109777 -523.150687 
L 543.659598 -524.005649 
L 542.209418 -523.638413 
L 540.759239 -533.659039 
L 539.30906 -518.399908 
L 537.85888 -533.869439 
L 536.408701 -532.587975 
L 534.958522 -520.787546 
L 533.508342 -539.932616 
L 532.058163 -526.729901 
L 530.607984 -524.415669 
L 529.157804 -515.377366 
L 527.707625 -498.887632 
L 526.257446 -499.656811 
L 524.807266 -471.489283 
L 523.357087 -454.554525 
L 521.906908 -439.247504 
L 520.456729 -434.856205 
L 519.006549 -441.349317 
L 517.55637 -451.836605 
L 516.106191 -439.592771 
L 514.656011 -467.49671 
L 513.205832 -482.10719 
L 511.755653 -475.846518 
L 510.305473 -507.010309 
L 508.855294 -503.789 
L 507.405115 -512.72779 
L 505.954935 -523.911461 
L 504.504756 -518.076204 
L 503.054577 -524.740205 
L 501.604397 -526.176675 
L 500.154218 -527.633511 
L 498.704039 -528.123876 
L 497.253859 -532.127944 
L 495.80368 -534.392665 
L 494.353501 -535.215536 
L 492.903321 -535.158542 
L 491.453142 -534.928064 
L 490.002963 -538.272978 
L 488.552783 -533.308141 
L 487.102604 -532.591914 
L 485.652425 -537.188509 
L 484.202245 -531.673774 
L 482.752066 -535.767085 
L 481.301887 -530.638681 
L 479.851707 -529.25962 
L 478.401528 -527.698657 
L 476.951349 -525.492558 
L 475.501169 -509.016937 
L 474.05099 -510.969546 
L 472.600811 -514.230651 
L 471.150632 -500.957767 
L 469.700452 -510.036081 
L 468.250273 -510.827139 
L 466.800094 -514.402179 
L 465.349914 -518.584799 
L 463.899735 -519.713829 
L 462.449556 -521.47844 
L 460.999376 -524.960743 
L 459.549197 -532.080687 
L 458.099018 -525.885522 
L 456.648838 -528.408311 
L 455.198659 -527.816102 
L 453.74848 -526.659621 
L 452.2983 -532.598364 
L 450.848121 -527.570111 
L 449.397942 -530.32343 
L 447.947762 -533.086437 
L 446.497583 -534.9373 
L 445.047404 -535.960318 
L 443.597224 -536.145554 
L 442.147045 -536.22528 
L 440.696866 -536.236812 
L 439.246686 -536.238395 
L 437.796507 -536.245104 
L 436.346328 -536.263088 
L 434.896148 -536.29091 
L 433.445969 -536.318328 
L 431.99579 -536.828963 
L 430.54561 -536.318319 
L 429.095431 -536.290853 
L 427.645252 -536.262798 
L 426.195073 -536.243956 
L 424.744893 -536.23854 
L 423.294714 -536.255595 
L 421.844535 -536.353697 
L 420.394355 -536.720258 
L 418.944176 -537.76321 
L 417.493997 -540.006382 
L 416.043817 -543.665931 
L 414.593638 -548.2655 
L 413.143459 -559.906351 
L 411.693279 -557.997106 
L 410.2431 -570.694907 
L 408.792921 -579.284663 
L 407.342741 -592.641254 
L 405.892562 -576.60097 
z
" style="stroke: #1f77b4; stroke-opacity: 0.2"/>
    </defs>
    <g clip-path="url(#p534c11e580)">
     <use xlink:href="#m2eab110067" x="0" y="720" style="fill: #1f77b4; fill-opacity: 0.2; stroke: #1f77b4; stroke-opacity: 0.2"/>
    </g>
   </g>
   <g id="PolyCollection_3">
    <defs>
     <path id="m58c0ae338e" d="M 405.892562 -622.368595 
L 405.892562 -599.932618 
L 407.342741 -598.543967 
L 408.792921 -581.689666 
L 410.2431 -568.863666 
L 411.693279 -549.004654 
L 413.143459 -558.876921 
L 414.593638 -556.332537 
L 416.043817 -541.721655 
L 417.493997 -548.715448 
L 418.944176 -544.177024 
L 420.394355 -540.664868 
L 421.844535 -538.927935 
L 423.294714 -538.754728 
L 424.744893 -539.267333 
L 426.195073 -532.612643 
L 427.645252 -538.951967 
L 429.095431 -537.582487 
L 430.54561 -535.608385 
L 431.99579 -533.202622 
L 433.445969 -530.752561 
L 434.896148 -522.242934 
L 436.346328 -521.297093 
L 437.796507 -529.875214 
L 439.246686 -528.045152 
L 440.696866 -531.896344 
L 442.147045 -527.408668 
L 443.597224 -533.009252 
L 445.047404 -534.030023 
L 446.497583 -535.042784 
L 447.947762 -535.730935 
L 449.397942 -536.067318 
L 450.848121 -536.189003 
L 452.2983 -536.222248 
L 453.74848 -536.229223 
L 455.198659 -536.230486 
L 456.648838 -536.230486 
L 458.099018 -536.230486 
L 459.549197 -536.230486 
L 460.999376 -536.230486 
L 462.449556 -536.230486 
L 463.899735 -536.230486 
L 465.349914 -536.230486 
L 466.800094 -536.230486 
L 468.250273 -536.230486 
L 469.700452 -536.230486 
L 471.150632 -536.230486 
L 472.600811 -536.230486 
L 474.05099 -536.230486 
L 475.501169 -536.230486 
L 476.951349 -536.230486 
L 478.401528 -536.230486 
L 479.851707 -536.230486 
L 481.301887 -536.230486 
L 482.752066 -536.230486 
L 484.202245 -536.230486 
L 485.652425 -536.230486 
L 487.102604 -536.230486 
L 488.552783 -536.230486 
L 490.002963 -536.230486 
L 491.453142 -536.230486 
L 492.903321 -536.230486 
L 494.353501 -536.230486 
L 495.80368 -536.230486 
L 497.253859 -536.230486 
L 498.704039 -536.230486 
L 500.154218 -536.230486 
L 501.604397 -536.230486 
L 503.054577 -536.230486 
L 504.504756 -536.230486 
L 505.954935 -536.230486 
L 507.405115 -536.230486 
L 508.855294 -536.230486 
L 510.305473 -536.230486 
L 511.755653 -536.230486 
L 513.205832 -536.230486 
L 514.656011 -536.230486 
L 516.106191 -536.230486 
L 517.55637 -536.230486 
L 519.006549 -536.230486 
L 520.456729 -536.230486 
L 521.906908 -536.230486 
L 523.357087 -536.230486 
L 524.807266 -536.230486 
L 526.257446 -536.230486 
L 527.707625 -536.230486 
L 529.157804 -536.230486 
L 530.607984 -536.230486 
L 532.058163 -536.230486 
L 533.508342 -536.230486 
L 534.958522 -536.230486 
L 536.408701 -536.230486 
L 537.85888 -536.230486 
L 539.30906 -536.230486 
L 540.759239 -536.230486 
L 542.209418 -536.230486 
L 543.659598 -536.230486 
L 545.109777 -536.230486 
L 546.559956 -536.230486 
L 548.010136 -536.230486 
L 549.460315 -536.230486 
L 550.910494 -536.230486 
L 552.360674 -536.230486 
L 553.810853 -536.230486 
L 555.261032 -536.230486 
L 556.711212 -536.230486 
L 558.161391 -536.230486 
L 559.61157 -536.230486 
L 561.06175 -536.230486 
L 562.511929 -536.230486 
L 563.962108 -536.230486 
L 565.412288 -536.230486 
L 566.862467 -536.230486 
L 568.312646 -536.230486 
L 569.762826 -536.230486 
L 571.213005 -536.230486 
L 572.663184 -536.230486 
L 574.113363 -536.230486 
L 575.563543 -536.230486 
L 577.013722 -536.230486 
L 578.463901 -536.230486 
L 579.914081 -536.230486 
L 581.36426 -536.230486 
L 582.814439 -536.230486 
L 584.264619 -536.230486 
L 585.714798 -536.230486 
L 587.164977 -536.230486 
L 588.615157 -536.230486 
L 590.065336 -536.230486 
L 591.515515 -536.230486 
L 592.965695 -536.230486 
L 594.415874 -536.230486 
L 595.866053 -536.230486 
L 597.316233 -536.227848 
L 598.766412 -536.209736 
L 600.216591 -536.119994 
L 601.666771 -535.764001 
L 603.11695 -534.675509 
L 604.567129 -532.106805 
L 606.017309 -527.44594 
L 607.467488 -520.958898 
L 608.917667 -502.003783 
L 610.367847 -493.351951 
L 611.818026 -504.661542 
L 613.268205 -489.367027 
L 614.718385 -493.305624 
L 616.168564 -501.980988 
L 617.618743 -517.795396 
L 619.068923 -516.244972 
L 620.519102 -529.610021 
L 621.969281 -532.962477 
L 623.41946 -534.834663 
L 624.86964 -535.724245 
L 626.319819 -536.062315 
L 627.769998 -536.095298 
L 629.220178 -535.811034 
L 630.670357 -534.884722 
L 632.120536 -532.780014 
L 633.570716 -529.245471 
L 635.020895 -525.060955 
L 636.471074 -513.003038 
L 636.471074 -531.215867 
L 636.471074 -531.215867 
L 635.020895 -525.060955 
L 633.570716 -529.245471 
L 632.120536 -532.780014 
L 630.670357 -534.884722 
L 629.220178 -535.811034 
L 627.769998 -536.095298 
L 626.319819 -536.062315 
L 624.86964 -535.724245 
L 623.41946 -534.834663 
L 621.969281 -532.962477 
L 620.519102 -529.610021 
L 619.068923 -532.65925 
L 617.618743 -517.795396 
L 616.168564 -519.930585 
L 614.718385 -518.351269 
L 613.268205 -518.031728 
L 611.818026 -504.661542 
L 610.367847 -523.17289 
L 608.917667 -526.03481 
L 607.467488 -520.958898 
L 606.017309 -527.44594 
L 604.567129 -532.106805 
L 603.11695 -534.675509 
L 601.666771 -535.764001 
L 600.216591 -536.119994 
L 598.766412 -536.209736 
L 597.316233 -536.227848 
L 595.866053 -536.230486 
L 594.415874 -536.230486 
L 592.965695 -536.230486 
L 591.515515 -536.230486 
L 590.065336 -536.230486 
L 588.615157 -536.230486 
L 587.164977 -536.230486 
L 585.714798 -536.230486 
L 584.264619 -536.230486 
L 582.814439 -536.230486 
L 581.36426 -536.230486 
L 579.914081 -536.230486 
L 578.463901 -536.230486 
L 577.013722 -536.230486 
L 575.563543 -536.230486 
L 574.113363 -536.230486 
L 572.663184 -536.230486 
L 571.213005 -536.230486 
L 569.762826 -536.230486 
L 568.312646 -536.230486 
L 566.862467 -536.230486 
L 565.412288 -536.230486 
L 563.962108 -536.230486 
L 562.511929 -536.230486 
L 561.06175 -536.230486 
L 559.61157 -536.230486 
L 558.161391 -536.230486 
L 556.711212 -536.230486 
L 555.261032 -536.230486 
L 553.810853 -536.230486 
L 552.360674 -536.230486 
L 550.910494 -536.230486 
L 549.460315 -536.230486 
L 548.010136 -536.230486 
L 546.559956 -536.230486 
L 545.109777 -536.230486 
L 543.659598 -536.230486 
L 542.209418 -536.230486 
L 540.759239 -536.230486 
L 539.30906 -536.230486 
L 537.85888 -536.230486 
L 536.408701 -536.230486 
L 534.958522 -536.230486 
L 533.508342 -536.230486 
L 532.058163 -536.230486 
L 530.607984 -536.230486 
L 529.157804 -536.230486 
L 527.707625 -536.230486 
L 526.257446 -536.230486 
L 524.807266 -536.230486 
L 523.357087 -536.230486 
L 521.906908 -536.230486 
L 520.456729 -536.230486 
L 519.006549 -536.230486 
L 517.55637 -536.230486 
L 516.106191 -536.230486 
L 514.656011 -536.230486 
L 513.205832 -536.230486 
L 511.755653 -536.230486 
L 510.305473 -536.230486 
L 508.855294 -536.230486 
L 507.405115 -536.230486 
L 505.954935 -536.230486 
L 504.504756 -536.230486 
L 503.054577 -536.230486 
L 501.604397 -536.230486 
L 500.154218 -536.230486 
L 498.704039 -536.230486 
L 497.253859 -536.230486 
L 495.80368 -536.230486 
L 494.353501 -536.230486 
L 492.903321 -536.230486 
L 491.453142 -536.230486 
L 490.002963 -536.230486 
L 488.552783 -536.230486 
L 487.102604 -536.230486 
L 485.652425 -536.230486 
L 484.202245 -536.230486 
L 482.752066 -536.230486 
L 481.301887 -536.230486 
L 479.851707 -536.230486 
L 478.401528 -536.230486 
L 476.951349 -536.230486 
L 475.501169 -536.230486 
L 474.05099 -536.230486 
L 472.600811 -536.230486 
L 471.150632 -536.230486 
L 469.700452 -536.230486 
L 468.250273 -536.230486 
L 466.800094 -536.230486 
L 465.349914 -536.230486 
L 463.899735 -536.230486 
L 462.449556 -536.230486 
L 460.999376 -536.230486 
L 459.549197 -536.230486 
L 458.099018 -536.230486 
L 456.648838 -536.230486 
L 455.198659 -536.230486 
L 453.74848 -536.229223 
L 452.2983 -536.222248 
L 450.848121 -536.189003 
L 449.397942 -536.067318 
L 447.947762 -535.730935 
L 446.497583 -535.042784 
L 445.047404 -534.030023 
L 443.597224 -533.009252 
L 442.147045 -537.260976 
L 440.696866 -531.896344 
L 439.246686 -534.232022 
L 437.796507 -529.875214 
L 436.346328 -536.393106 
L 434.896148 -535.889436 
L 433.445969 -530.752561 
L 431.99579 -533.202622 
L 430.54561 -535.608385 
L 429.095431 -537.582487 
L 427.645252 -538.951967 
L 426.195073 -546.411747 
L 424.744893 -539.267333 
L 423.294714 -538.754728 
L 421.844535 -538.927935 
L 420.394355 -540.664868 
L 418.944176 -544.177024 
L 417.493997 -548.715448 
L 416.043817 -564.332345 
L 414.593638 -556.332537 
L 413.143459 -558.876921 
L 411.693279 -575.211814 
L 410.2431 -568.863666 
L 408.792921 -581.689666 
L 407.342741 -598.543967 
L 405.892562 -622.368595 
z
" style="stroke: #d62728; stroke-opacity: 0.2"/>
    </defs>
    <g clip-path="url(#p534c11e580)">
     <use xlink:href="#m58c0ae338e" x="0" y="720" style="fill: #d62728; fill-opacity: 0.2; stroke: #d62728; stroke-opacity: 0.2"/>
    </g>
   </g>
   <g id="PolyCollection_4">
    <defs>
     <path id="mb56b621936" d="M 405.892562 -536.230486 
L 405.892562 -536.230486 
L 407.342741 -536.230486 
L 408.792921 -536.230486 
L 410.2431 -536.230486 
L 411.693279 -536.230486 
L 413.143459 -536.230486 
L 414.593638 -536.230486 
L 416.043817 -536.230486 
L 417.493997 -536.23139 
L 418.944176 -536.239184 
L 420.394355 -536.278694 
L 421.844535 -536.441659 
L 423.294714 -536.962049 
L 424.744893 -538.235237 
L 426.195073 -540.575144 
L 427.645252 -543.671549 
L 429.095431 -539.700223 
L 430.54561 -537.222585 
L 431.99579 -545.372706 
L 433.445969 -542.738281 
L 434.896148 -541.104655 
L 436.346328 -541.961132 
L 437.796507 -545.512928 
L 439.246686 -550.496095 
L 440.696866 -539.306405 
L 442.147045 -556.254093 
L 443.597224 -539.276769 
L 445.047404 -553.721913 
L 446.497583 -554.547237 
L 447.947762 -559.181594 
L 449.397942 -556.435888 
L 450.848121 -565.860242 
L 452.2983 -580.958318 
L 453.74848 -573.265232 
L 455.198659 -563.082028 
L 456.648838 -571.447849 
L 458.099018 -549.245142 
L 459.549197 -551.590032 
L 460.999376 -544.373353 
L 462.449556 -539.88688 
L 463.899735 -537.591818 
L 465.349914 -536.642766 
L 466.800094 -536.32965 
L 468.250273 -536.248966 
L 469.700452 -536.23332 
L 471.150632 -536.230486 
L 472.600811 -536.230486 
L 474.05099 -536.230486 
L 475.501169 -536.230486 
L 476.951349 -536.230486 
L 478.401528 -536.230486 
L 479.851707 -536.230486 
L 481.301887 -536.230486 
L 482.752066 -536.230486 
L 484.202245 -536.230486 
L 485.652425 -536.230486 
L 487.102604 -536.229229 
L 488.552783 -536.222288 
L 490.002963 -536.188855 
L 491.453142 -536.065831 
L 492.903321 -535.723314 
L 494.353501 -535.013843 
L 495.80368 -533.954094 
L 497.253859 -532.895308 
L 498.704039 -525.474956 
L 500.154218 -532.278385 
L 501.604397 -531.779049 
L 503.054577 -529.149167 
L 504.504756 -523.035643 
L 505.954935 -513.758823 
L 507.405115 -492.243739 
L 508.855294 -481.224356 
L 510.305473 -492.47728 
L 511.755653 -471.898467 
L 513.205832 -492.584297 
L 514.656011 -494.093294 
L 516.106191 -480.101412 
L 517.55637 -506.392545 
L 519.006549 -516.844162 
L 520.456729 -526.136927 
L 521.906908 -532.130421 
L 523.357087 -535.12538 
L 524.807266 -536.631207 
L 526.257446 -537.968949 
L 527.707625 -539.723961 
L 529.157804 -541.731669 
L 530.607984 -531.81471 
L 532.058163 -544.308106 
L 533.508342 -544.145495 
L 534.958522 -530.315751 
L 536.408701 -540.142954 
L 537.85888 -536.888088 
L 539.30906 -528.022446 
L 540.759239 -531.228978 
L 542.209418 -529.220303 
L 543.659598 -522.605834 
L 545.109777 -519.118617 
L 546.559956 -526.010376 
L 548.010136 -523.274927 
L 549.460315 -517.617431 
L 550.910494 -499.13993 
L 552.360674 -495.977205 
L 553.810853 -480.735417 
L 555.261032 -470.977601 
L 556.711212 -477.002608 
L 558.161391 -458.265966 
L 559.61157 -445.434111 
L 561.06175 -442.867786 
L 562.511929 -444.027743 
L 563.962108 -431.822471 
L 565.412288 -432.90531 
L 566.862467 -428.325005 
L 568.312646 -427.485394 
L 569.762826 -423.775559 
L 571.213005 -426.765168 
L 572.663184 -428.574064 
L 574.113363 -431.25158 
L 575.563543 -427.364821 
L 577.013722 -425.32389 
L 578.463901 -421.92925 
L 579.914081 -428.10181 
L 581.36426 -435.305799 
L 582.814439 -445.069388 
L 584.264619 -451.594824 
L 585.714798 -458.382695 
L 587.164977 -462.157319 
L 588.615157 -460.709202 
L 590.065336 -461.004518 
L 591.515515 -464.793289 
L 592.965695 -466.693442 
L 594.415874 -468.355567 
L 595.866053 -467.400109 
L 597.316233 -465.414779 
L 598.766412 -463.580165 
L 600.216591 -465.372885 
L 601.666771 -462.140595 
L 603.11695 -463.85282 
L 604.567129 -473.622163 
L 606.017309 -478.274806 
L 607.467488 -490.758726 
L 608.917667 -514.470342 
L 610.367847 -524.385903 
L 611.818026 -531.014088 
L 613.268205 -534.839696 
L 614.718385 -537.501039 
L 616.168564 -540.813064 
L 617.618743 -545.882327 
L 619.068923 -552.383283 
L 620.519102 -542.669352 
L 621.969281 -561.930743 
L 623.41946 -550.026375 
L 624.86964 -558.901713 
L 626.319819 -555.943384 
L 627.769998 -553.886331 
L 629.220178 -542.9565 
L 630.670357 -548.109855 
L 632.120536 -539.61709 
L 633.570716 -539.606794 
L 635.020895 -537.283949 
L 636.471074 -536.381863 
L 636.471074 -536.381863 
L 636.471074 -536.381863 
L 635.020895 -537.283949 
L 633.570716 -539.606794 
L 632.120536 -547.468442 
L 630.670357 -548.109855 
L 629.220178 -560.447282 
L 627.769998 -553.886331 
L 626.319819 -555.943384 
L 624.86964 -558.901713 
L 623.41946 -573.319129 
L 621.969281 -561.930743 
L 620.519102 -574.315914 
L 619.068923 -552.383283 
L 617.618743 -545.882327 
L 616.168564 -540.813064 
L 614.718385 -537.501039 
L 613.268205 -534.839696 
L 611.818026 -531.014088 
L 610.367847 -524.385903 
L 608.917667 -514.470342 
L 607.467488 -514.17731 
L 606.017309 -503.169834 
L 604.567129 -489.274278 
L 603.11695 -487.825436 
L 601.666771 -485.414671 
L 600.216591 -482.511758 
L 598.766412 -485.768143 
L 597.316233 -484.997954 
L 595.866053 -484.014528 
L 594.415874 -483.885829 
L 592.965695 -484.833133 
L 591.515515 -483.82257 
L 590.065336 -483.729776 
L 588.615157 -480.757958 
L 587.164977 -476.577516 
L 585.714798 -476.053946 
L 584.264619 -474.20418 
L 582.814439 -466.673825 
L 581.36426 -459.502399 
L 579.914081 -452.495141 
L 578.463901 -452.346462 
L 577.013722 -451.336955 
L 575.563543 -456.044974 
L 574.113363 -457.195819 
L 572.663184 -460.03049 
L 571.213005 -458.476841 
L 569.762826 -458.404396 
L 568.312646 -455.36582 
L 566.862467 -459.887504 
L 565.412288 -462.971663 
L 563.962108 -470.122339 
L 562.511929 -461.337732 
L 561.06175 -467.043213 
L 559.61157 -474.769914 
L 558.161391 -478.06123 
L 556.711212 -477.002608 
L 555.261032 -498.905883 
L 553.810853 -504.008535 
L 552.360674 -505.080119 
L 550.910494 -519.769894 
L 549.460315 -517.617431 
L 548.010136 -523.274927 
L 546.559956 -526.010376 
L 545.109777 -534.871972 
L 543.659598 -533.007436 
L 542.209418 -529.220303 
L 540.759239 -531.228978 
L 539.30906 -539.539952 
L 537.85888 -536.888088 
L 536.408701 -540.142954 
L 534.958522 -555.178836 
L 533.508342 -544.145495 
L 532.058163 -544.308106 
L 530.607984 -555.023701 
L 529.157804 -541.731669 
L 527.707625 -539.723961 
L 526.257446 -537.968949 
L 524.807266 -536.631207 
L 523.357087 -535.12538 
L 521.906908 -532.130421 
L 520.456729 -526.136927 
L 519.006549 -516.844162 
L 517.55637 -506.392545 
L 516.106191 -516.406168 
L 514.656011 -494.093294 
L 513.205832 -492.584297 
L 511.755653 -511.964251 
L 510.305473 -492.47728 
L 508.855294 -511.001315 
L 507.405115 -515.229213 
L 505.954935 -513.758823 
L 504.504756 -523.035643 
L 503.054577 -529.149167 
L 501.604397 -531.779049 
L 500.154218 -532.278385 
L 498.704039 -539.18984 
L 497.253859 -532.895308 
L 495.80368 -533.954094 
L 494.353501 -535.013843 
L 492.903321 -535.723314 
L 491.453142 -536.065831 
L 490.002963 -536.188855 
L 488.552783 -536.222288 
L 487.102604 -536.229229 
L 485.652425 -536.230486 
L 484.202245 -536.230486 
L 482.752066 -536.230486 
L 481.301887 -536.230486 
L 479.851707 -536.230486 
L 478.401528 -536.230486 
L 476.951349 -536.230486 
L 475.501169 -536.230486 
L 474.05099 -536.230486 
L 472.600811 -536.230486 
L 471.150632 -536.230486 
L 469.700452 -536.23332 
L 468.250273 -536.248966 
L 466.800094 -536.32965 
L 465.349914 -536.642766 
L 463.899735 -537.591818 
L 462.449556 -539.88688 
L 460.999376 -544.373353 
L 459.549197 -551.590032 
L 458.099018 -573.124974 
L 456.648838 -571.447849 
L 455.198659 -596.011368 
L 453.74848 -592.616451 
L 452.2983 -580.958318 
L 450.848121 -583.820686 
L 449.397942 -577.042997 
L 447.947762 -559.181594 
L 446.497583 -554.547237 
L 445.047404 -553.721913 
L 443.597224 -571.188152 
L 442.147045 -556.254093 
L 440.696866 -570.058337 
L 439.246686 -550.496095 
L 437.796507 -545.512928 
L 436.346328 -541.961132 
L 434.896148 -541.104655 
L 433.445969 -542.738281 
L 431.99579 -545.372706 
L 430.54561 -556.742413 
L 429.095431 -552.890886 
L 427.645252 -543.671549 
L 426.195073 -540.575144 
L 424.744893 -538.235237 
L 423.294714 -536.962049 
L 421.844535 -536.441659 
L 420.394355 -536.278694 
L 418.944176 -536.239184 
L 417.493997 -536.23139 
L 416.043817 -536.230486 
L 414.593638 -536.230486 
L 413.143459 -536.230486 
L 411.693279 -536.230486 
L 410.2431 -536.230486 
L 408.792921 -536.230486 
L 407.342741 -536.230486 
L 405.892562 -536.230486 
z
" style="stroke: #ff7f0e; stroke-opacity: 0.2"/>
    </defs>
    <g clip-path="url(#p534c11e580)">
     <use xlink:href="#mb56b621936" x="0" y="720" style="fill: #ff7f0e; fill-opacity: 0.2; stroke: #ff7f0e; stroke-opacity: 0.2"/>
    </g>
   </g>
   <g id="matplotlib.axis_3">
    <g id="xtick_7">
     <g id="line2d_13">
      <g>
       <use xlink:href="#m8fd3746a5e" x="405.863558" y="333.490909" style="stroke: #000000; stroke-width: 0.8"/>
      </g>
     </g>
     <g id="text_13">
      <!-- 0 -->
      <g transform="translate(402.682308 348.089347)scale(0.1 -0.1)">
       <use xlink:href="#DejaVuSans-30"/>
      </g>
     </g>
    </g>
    <g id="xtick_8">
     <g id="line2d_14">
      <g>
       <use xlink:href="#m8fd3746a5e" x="463.870731" y="333.490909" style="stroke: #000000; stroke-width: 0.8"/>
      </g>
     </g>
     <g id="text_14">
      <!-- 2000 -->
      <g transform="translate(451.145731 348.089347)scale(0.1 -0.1)">
       <use xlink:href="#DejaVuSans-32"/>
       <use xlink:href="#DejaVuSans-30" x="63.623047"/>
       <use xlink:href="#DejaVuSans-30" x="127.246094"/>
       <use xlink:href="#DejaVuSans-30" x="190.869141"/>
      </g>
     </g>
    </g>
    <g id="xtick_9">
     <g id="line2d_15">
      <g>
       <use xlink:href="#m8fd3746a5e" x="521.877904" y="333.490909" style="stroke: #000000; stroke-width: 0.8"/>
      </g>
     </g>
     <g id="text_15">
      <!-- 4000 -->
      <g transform="translate(509.152904 348.089347)scale(0.1 -0.1)">
       <use xlink:href="#DejaVuSans-34"/>
       <use xlink:href="#DejaVuSans-30" x="63.623047"/>
       <use xlink:href="#DejaVuSans-30" x="127.246094"/>
       <use xlink:href="#DejaVuSans-30" x="190.869141"/>
      </g>
     </g>
    </g>
    <g id="xtick_10">
     <g id="line2d_16">
      <g>
       <use xlink:href="#m8fd3746a5e" x="579.885077" y="333.490909" style="stroke: #000000; stroke-width: 0.8"/>
      </g>
     </g>
     <g id="text_16">
      <!-- 6000 -->
      <g transform="translate(567.160077 348.089347)scale(0.1 -0.1)">
       <use xlink:href="#DejaVuSans-36"/>
       <use xlink:href="#DejaVuSans-30" x="63.623047"/>
       <use xlink:href="#DejaVuSans-30" x="127.246094"/>
       <use xlink:href="#DejaVuSans-30" x="190.869141"/>
      </g>
     </g>
    </g>
    <g id="xtick_11">
     <g id="line2d_17">
      <g>
       <use xlink:href="#m8fd3746a5e" x="637.89225" y="333.490909" style="stroke: #000000; stroke-width: 0.8"/>
      </g>
     </g>
     <g id="text_17">
      <!-- 8000 -->
      <g transform="translate(625.16725 348.089347)scale(0.1 -0.1)">
       <use xlink:href="#DejaVuSans-38"/>
       <use xlink:href="#DejaVuSans-30" x="63.623047"/>
       <use xlink:href="#DejaVuSans-30" x="127.246094"/>
       <use xlink:href="#DejaVuSans-30" x="190.869141"/>
      </g>
     </g>
    </g>
   </g>
   <g id="matplotlib.axis_4">
    <g id="ytick_7">
     <g id="line2d_18">
      <g>
       <use xlink:href="#ma9ba5b6c93" x="394.363636" y="316.308966" style="stroke: #000000; stroke-width: 0.8"/>
      </g>
     </g>
     <g id="text_18">
      <!-- −0.4 -->
      <g transform="translate(363.080824 320.108185)scale(0.1 -0.1)">
       <defs>
        <path id="DejaVuSans-2212" d="M 678 2272 
L 4684 2272 
L 4684 1741 
L 678 1741 
L 678 2272 
z
" transform="scale(0.015625)"/>
       </defs>
       <use xlink:href="#DejaVuSans-2212"/>
       <use xlink:href="#DejaVuSans-30" x="83.789062"/>
       <use xlink:href="#DejaVuSans-2e" x="147.412109"/>
       <use xlink:href="#DejaVuSans-34" x="179.199219"/>
      </g>
     </g>
    </g>
    <g id="ytick_8">
     <g id="line2d_19">
      <g>
       <use xlink:href="#ma9ba5b6c93" x="394.363636" y="283.174103" style="stroke: #000000; stroke-width: 0.8"/>
      </g>
     </g>
     <g id="text_19">
      <!-- −0.3 -->
      <g transform="translate(363.080824 286.973322)scale(0.1 -0.1)">
       <defs>
        <path id="DejaVuSans-33" d="M 2597 2516 
Q 3050 2419 3304 2112 
Q 3559 1806 3559 1356 
Q 3559 666 3084 287 
Q 2609 -91 1734 -91 
Q 1441 -91 1130 -33 
Q 819 25 488 141 
L 488 750 
Q 750 597 1062 519 
Q 1375 441 1716 441 
Q 2309 441 2620 675 
Q 2931 909 2931 1356 
Q 2931 1769 2642 2001 
Q 2353 2234 1838 2234 
L 1294 2234 
L 1294 2753 
L 1863 2753 
Q 2328 2753 2575 2939 
Q 2822 3125 2822 3475 
Q 2822 3834 2567 4026 
Q 2313 4219 1838 4219 
Q 1578 4219 1281 4162 
Q 984 4106 628 3988 
L 628 4550 
Q 988 4650 1302 4700 
Q 1616 4750 1894 4750 
Q 2613 4750 3031 4423 
Q 3450 4097 3450 3541 
Q 3450 3153 3228 2886 
Q 3006 2619 2597 2516 
z
" transform="scale(0.015625)"/>
       </defs>
       <use xlink:href="#DejaVuSans-2212"/>
       <use xlink:href="#DejaVuSans-30" x="83.789062"/>
       <use xlink:href="#DejaVuSans-2e" x="147.412109"/>
       <use xlink:href="#DejaVuSans-33" x="179.199219"/>
      </g>
     </g>
    </g>
    <g id="ytick_9">
     <g id="line2d_20">
      <g>
       <use xlink:href="#ma9ba5b6c93" x="394.363636" y="250.03924" style="stroke: #000000; stroke-width: 0.8"/>
      </g>
     </g>
     <g id="text_20">
      <!-- −0.2 -->
      <g transform="translate(363.080824 253.838459)scale(0.1 -0.1)">
       <use xlink:href="#DejaVuSans-2212"/>
       <use xlink:href="#DejaVuSans-30" x="83.789062"/>
       <use xlink:href="#DejaVuSans-2e" x="147.412109"/>
       <use xlink:href="#DejaVuSans-32" x="179.199219"/>
      </g>
     </g>
    </g>
    <g id="ytick_10">
     <g id="line2d_21">
      <g>
       <use xlink:href="#ma9ba5b6c93" x="394.363636" y="216.904377" style="stroke: #000000; stroke-width: 0.8"/>
      </g>
     </g>
     <g id="text_21">
      <!-- −0.1 -->
      <g transform="translate(363.080824 220.703596)scale(0.1 -0.1)">
       <use xlink:href="#DejaVuSans-2212"/>
       <use xlink:href="#DejaVuSans-30" x="83.789062"/>
       <use xlink:href="#DejaVuSans-2e" x="147.412109"/>
       <use xlink:href="#DejaVuSans-31" x="179.199219"/>
      </g>
     </g>
    </g>
    <g id="ytick_11">
     <g id="line2d_22">
      <g>
       <use xlink:href="#ma9ba5b6c93" x="394.363636" y="183.769514" style="stroke: #000000; stroke-width: 0.8"/>
      </g>
     </g>
     <g id="text_22">
      <!-- 0.0 -->
      <g transform="translate(371.460511 187.568733)scale(0.1 -0.1)">
       <use xlink:href="#DejaVuSans-30"/>
       <use xlink:href="#DejaVuSans-2e" x="63.623047"/>
       <use xlink:href="#DejaVuSans-30" x="95.410156"/>
      </g>
     </g>
    </g>
    <g id="ytick_12">
     <g id="line2d_23">
      <g>
       <use xlink:href="#ma9ba5b6c93" x="394.363636" y="150.634651" style="stroke: #000000; stroke-width: 0.8"/>
      </g>
     </g>
     <g id="text_23">
      <!-- 0.1 -->
      <g transform="translate(371.460511 154.43387)scale(0.1 -0.1)">
       <use xlink:href="#DejaVuSans-30"/>
       <use xlink:href="#DejaVuSans-2e" x="63.623047"/>
       <use xlink:href="#DejaVuSans-31" x="95.410156"/>
      </g>
     </g>
    </g>
    <g id="ytick_13">
     <g id="line2d_24">
      <g>
       <use xlink:href="#ma9ba5b6c93" x="394.363636" y="117.499788" style="stroke: #000000; stroke-width: 0.8"/>
      </g>
     </g>
     <g id="text_24">
      <!-- 0.2 -->
      <g transform="translate(371.460511 121.299007)scale(0.1 -0.1)">
       <use xlink:href="#DejaVuSans-30"/>
       <use xlink:href="#DejaVuSans-2e" x="63.623047"/>
       <use xlink:href="#DejaVuSans-32" x="95.410156"/>
      </g>
     </g>
    </g>
   </g>
   <g id="line2d_25">
    <path d="M 405.892562 184.297712 
L 407.342741 185.567345 
L 408.792921 189.426728 
L 410.2431 198.007693 
L 411.693279 212.611241 
L 414.593638 250.932797 
L 416.043817 265.179039 
L 417.493997 270.814555 
L 418.944176 266.33361 
L 420.394355 253.045413 
L 423.294714 217.462236 
L 424.744893 203.294476 
L 426.195073 193.542269 
L 427.645252 187.791513 
L 429.095431 185.089251 
L 430.54561 184.43024 
L 431.99579 185.228442 
L 433.445969 187.363937 
L 436.346328 193.711737 
L 437.796507 195.162948 
L 439.246686 194.315404 
L 440.696866 192.56738 
L 442.147045 192.317515 
L 443.597224 194.795998 
L 445.047404 198.752221 
L 446.497583 201.270635 
L 447.947762 200.214377 
L 449.397942 196.016959 
L 450.848121 190.981638 
L 452.2983 187.128474 
L 453.74848 185.006953 
L 455.198659 184.130093 
L 456.648838 183.852578 
L 459.549197 183.771161 
L 475.501169 183.662819 
L 476.951349 183.341084 
L 478.401528 182.427693 
L 479.851707 180.438095 
L 481.301887 177.10043 
L 482.752066 172.69229 
L 484.202245 167.911322 
L 485.652425 163.539563 
L 487.102604 160.543758 
L 488.552783 159.917999 
L 491.453142 162.80515 
L 492.903321 161.94985 
L 494.353501 159.365432 
L 495.80368 158.081668 
L 497.253859 160.612814 
L 498.704039 166.605439 
L 500.154218 173.479738 
L 501.604397 178.822894 
L 503.054577 181.873033 
L 504.504756 183.192636 
L 505.954935 183.630833 
L 508.855294 183.765991 
L 517.55637 183.819519 
L 519.006549 184.031052 
L 520.456729 184.851431 
L 521.906908 187.28536 
L 523.357087 192.829881 
L 524.807266 202.442775 
L 527.707625 226.746344 
L 529.157804 233.72226 
L 530.607984 233.612557 
L 532.058163 226.659657 
L 534.958522 203.00702 
L 536.408701 193.3657 
L 537.85888 187.606777 
L 539.30906 184.985367 
L 540.759239 184.071781 
L 542.209418 183.827998 
L 546.559956 183.769514 
L 604.567129 183.71486 
L 606.017309 183.601166 
L 607.467488 183.365669 
L 610.367847 182.67175 
L 611.818026 182.525584 
L 613.268205 182.67175 
L 617.618743 183.605167 
L 623.41946 184.069958 
L 624.86964 183.946114 
L 626.319819 182.991031 
L 627.769998 180.506186 
L 629.220178 176.039157 
L 630.670357 169.527257 
L 633.570716 153.138681 
L 635.020895 146.614161 
L 636.471074 143.217589 
L 636.471074 143.217589 
" clip-path="url(#p534c11e580)" style="fill: none; stroke: #9467bd; stroke-width: 2; stroke-linecap: square"/>
   </g>
   <g id="line2d_26">
    <path d="M 405.892562 143.39903 
L 407.342741 145.823168 
L 408.792921 150.543271 
L 411.693279 162.002894 
L 414.593638 171.7345 
L 416.043817 176.334069 
L 417.493997 179.993618 
L 418.944176 182.23679 
L 420.394355 183.279742 
L 421.844535 183.646303 
L 424.744893 183.76146 
L 442.147045 183.77472 
L 443.597224 183.854446 
L 445.047404 184.170666 
L 446.497583 185.0627 
L 447.947762 186.913563 
L 450.848121 192.429889 
L 452.2983 193.80891 
L 453.74848 193.340379 
L 455.198659 192.183898 
L 456.648838 192.157645 
L 458.099018 194.114478 
L 459.549197 197.511346 
L 462.449556 205.145103 
L 463.899735 208.678689 
L 465.349914 211.735758 
L 468.250273 216.911644 
L 469.700452 220.145485 
L 471.150632 223.060261 
L 472.600811 223.217115 
L 474.05099 218.869809 
L 475.501169 210.983063 
L 476.951349 202.452246 
L 478.401528 195.690146 
L 479.851707 191.458551 
L 481.301887 189.361319 
L 482.752066 188.591537 
L 485.652425 187.989255 
L 487.102604 187.408086 
L 491.453142 185.325897 
L 492.903321 184.841458 
L 494.353501 184.784464 
L 495.80368 185.607335 
L 497.253859 187.872056 
L 498.704039 191.876124 
L 500.154218 196.99374 
L 501.604397 201.486521 
L 503.054577 203.607823 
L 504.504756 203.455626 
L 505.954935 203.573592 
L 507.405115 207.27221 
L 508.855294 216.211 
L 510.305473 229.419493 
L 511.755653 244.153482 
L 513.205832 257.707028 
L 516.106191 280.407229 
L 517.55637 291.640273 
L 519.006549 300.455094 
L 520.456729 302.908411 
L 521.906908 297.283104 
L 523.357087 284.279887 
L 524.807266 265.327763 
L 527.707625 221.112368 
L 529.157804 204.622634 
L 530.607984 195.584331 
L 532.058163 193.270099 
L 533.508342 195.353244 
L 534.958522 199.212454 
L 536.408701 202.436435 
L 537.85888 203.31979 
L 539.30906 201.600092 
L 540.759239 198.616219 
L 542.209418 196.361587 
L 543.659598 195.994351 
L 545.109777 196.849313 
L 546.559956 196.9842 
L 548.010136 195.148268 
L 549.460315 192.181916 
L 550.910494 190.355396 
L 552.360674 191.51364 
L 553.810853 195.60249 
L 555.261032 200.310525 
L 556.711212 202.376445 
L 558.161391 200.16828 
L 561.06175 189.800469 
L 562.511929 186.283579 
L 563.962108 184.585712 
L 565.412288 183.975881 
L 566.862467 183.81015 
L 572.663184 183.769514 
L 611.818026 183.833887 
L 617.618743 184.236074 
L 620.519102 183.990827 
L 623.41946 183.651136 
L 626.319819 183.589696 
L 632.120536 183.710083 
L 636.471074 183.716989 
L 636.471074 183.716989 
" clip-path="url(#p534c11e580)" style="fill: none; stroke: #1f77b4; stroke-width: 2; stroke-linecap: square"/>
   </g>
   <g id="line2d_27">
    <path d="M 405.892562 108.849393 
L 407.342741 121.456033 
L 408.792921 138.310334 
L 410.2431 151.136334 
L 411.693279 157.891766 
L 413.143459 161.123079 
L 414.593638 163.667463 
L 416.043817 166.973 
L 418.944176 175.822976 
L 420.394355 179.335132 
L 421.844535 181.072065 
L 423.294714 181.245272 
L 424.744893 180.732667 
L 426.195073 180.487805 
L 427.645252 181.048033 
L 429.095431 182.417513 
L 430.54561 184.391615 
L 433.445969 189.247439 
L 434.896148 190.933815 
L 436.346328 191.154901 
L 437.796507 190.124786 
L 439.246686 188.861413 
L 440.696866 188.103656 
L 442.147045 187.665178 
L 443.597224 186.990748 
L 446.497583 184.957216 
L 447.947762 184.269065 
L 449.397942 183.932682 
L 452.2983 183.777752 
L 476.951349 183.769514 
L 600.216591 183.880006 
L 601.666771 184.235999 
L 603.11695 185.324491 
L 604.567129 187.893195 
L 606.017309 192.55406 
L 610.367847 211.73758 
L 611.818026 215.338458 
L 613.268205 216.300622 
L 614.718385 214.171553 
L 616.168564 209.044214 
L 619.068923 195.547889 
L 620.519102 190.389979 
L 621.969281 187.037523 
L 623.41946 185.165337 
L 624.86964 184.275755 
L 626.319819 183.937685 
L 627.769998 183.904702 
L 629.220178 184.188966 
L 630.670357 185.115278 
L 632.120536 187.219986 
L 633.570716 190.754529 
L 635.020895 194.939045 
L 636.471074 197.890548 
L 636.471074 197.890548 
" clip-path="url(#p534c11e580)" style="fill: none; stroke: #d62728; stroke-width: 2; stroke-linecap: square"/>
   </g>
   <g id="line2d_28">
    <path d="M 405.892562 183.769514 
L 420.394355 183.721306 
L 421.844535 183.558341 
L 423.294714 183.037951 
L 424.744893 181.764763 
L 426.195073 179.424856 
L 427.645252 176.328451 
L 429.095431 173.704445 
L 430.54561 173.017501 
L 431.99579 174.627294 
L 433.445969 177.261719 
L 434.896148 178.895345 
L 436.346328 178.038868 
L 437.796507 174.487072 
L 439.246686 169.503905 
L 440.696866 165.317629 
L 442.147045 163.745907 
L 443.597224 164.76754 
L 445.047404 166.278087 
L 446.497583 165.452763 
L 447.947762 160.818406 
L 450.848121 145.159536 
L 452.2983 139.041682 
L 453.74848 137.059159 
L 455.198659 140.453302 
L 456.648838 148.552151 
L 459.549197 168.409968 
L 460.999376 175.626647 
L 462.449556 180.11312 
L 463.899735 182.408182 
L 465.349914 183.357234 
L 466.800094 183.67035 
L 469.700452 183.76668 
L 490.002963 183.811145 
L 491.453142 183.934169 
L 492.903321 184.276686 
L 494.353501 184.986157 
L 497.253859 187.104692 
L 498.704039 187.667602 
L 500.154218 187.721615 
L 501.604397 188.220951 
L 503.054577 190.850833 
L 504.504756 196.964357 
L 505.954935 206.241177 
L 507.405115 216.263524 
L 508.855294 223.887164 
L 510.305473 227.52272 
L 511.755653 228.068641 
L 513.205832 227.415703 
L 514.656011 225.906706 
L 516.106191 221.74621 
L 517.55637 213.607455 
L 519.006549 203.155838 
L 520.456729 193.863073 
L 521.906908 187.869579 
L 523.357087 184.87462 
L 524.807266 183.368793 
L 526.257446 182.031051 
L 527.707625 180.276039 
L 529.157804 178.268331 
L 530.607984 176.580794 
L 532.058163 175.691894 
L 533.508342 175.854505 
L 534.958522 177.252707 
L 536.408701 179.857046 
L 539.30906 186.218801 
L 540.759239 188.771022 
L 542.209418 190.779697 
L 543.659598 192.193365 
L 545.109777 193.004706 
L 546.559956 193.989624 
L 548.010136 196.725073 
L 549.460315 202.382569 
L 550.910494 210.545088 
L 552.360674 219.471338 
L 553.810853 227.628024 
L 556.711212 242.997392 
L 558.161391 251.836402 
L 559.61157 259.897987 
L 561.06175 265.0445 
L 562.511929 267.317263 
L 563.962108 269.027595 
L 565.412288 272.061513 
L 566.862467 275.893746 
L 568.312646 278.574393 
L 569.762826 278.910023 
L 572.663184 275.697723 
L 574.113363 275.776301 
L 575.563543 278.295103 
L 577.013722 281.669578 
L 578.463901 282.862144 
L 579.914081 279.701525 
L 581.36426 272.595901 
L 582.814439 264.128393 
L 584.264619 257.100498 
L 585.714798 252.78168 
L 587.164977 250.632583 
L 588.615157 249.26642 
L 590.065336 247.632853 
L 591.515515 245.692071 
L 592.965695 244.236712 
L 594.415874 243.879302 
L 597.316233 244.793634 
L 598.766412 245.325846 
L 600.216591 246.057678 
L 601.666771 246.222367 
L 603.11695 244.160872 
L 604.567129 238.55178 
L 606.017309 229.27768 
L 608.917667 205.529658 
L 610.367847 195.614097 
L 611.818026 188.985912 
L 613.268205 185.160304 
L 614.718385 182.498961 
L 616.168564 179.186936 
L 617.618743 174.117673 
L 620.519102 161.507367 
L 621.969281 158.069257 
L 623.41946 158.327248 
L 626.319819 164.056616 
L 629.220178 168.298109 
L 630.670357 171.890145 
L 632.120536 176.457234 
L 633.570716 180.393206 
L 635.020895 182.716051 
L 636.471074 183.618137 
L 636.471074 183.618137 
" clip-path="url(#p534c11e580)" style="fill: none; stroke: #ff7f0e; stroke-width: 2; stroke-linecap: square"/>
   </g>
   <g id="LineCollection_1">
    <path d="M 521.877904 287.703615 
L 521.877904 126.608836 
" clip-path="url(#p534c11e580)" style="fill: none; stroke-dasharray: 7.4,3.2; stroke-dashoffset: 0; stroke: #000000; stroke-width: 2"/>
    <path d="M 536.379697 287.703615 
L 536.379697 126.608836 
" clip-path="url(#p534c11e580)" style="fill: none; stroke-dasharray: 7.4,3.2; stroke-dashoffset: 0; stroke: #000000; stroke-width: 2"/>
    <path d="M 565.383284 287.703615 
L 565.383284 126.608836 
" clip-path="url(#p534c11e580)" style="fill: none; stroke-dasharray: 7.4,3.2; stroke-dashoffset: 0; stroke: #000000; stroke-width: 2"/>
    <path d="M 623.390457 287.703615 
L 623.390457 126.608836 
" clip-path="url(#p534c11e580)" style="fill: none; stroke-dasharray: 7.4,3.2; stroke-dashoffset: 0; stroke: #000000; stroke-width: 2"/>
   </g>
   <g id="patch_8">
    <path d="M 394.363636 333.490909 
L 394.363636 86.4 
" style="fill: none; stroke: #000000; stroke-width: 0.8; stroke-linejoin: miter; stroke-linecap: square"/>
   </g>
   <g id="patch_9">
    <path d="M 648 333.490909 
L 648 86.4 
" style="fill: none; stroke: #000000; stroke-width: 0.8; stroke-linejoin: miter; stroke-linecap: square"/>
   </g>
   <g id="patch_10">
    <path d="M 394.363636 333.490909 
L 648 333.490909 
" style="fill: none; stroke: #000000; stroke-width: 0.8; stroke-linejoin: miter; stroke-linecap: square"/>
   </g>
   <g id="patch_11">
    <path d="M 394.363636 86.4 
L 648 86.4 
" style="fill: none; stroke: #000000; stroke-width: 0.8; stroke-linejoin: miter; stroke-linecap: square"/>
   </g>
   <g id="text_25">
    <!-- unit_59 -->
    <g transform="translate(498.922756 80.4)scale(0.12 -0.12)">
     <defs>
      <path id="DejaVuSans-75" d="M 544 1381 
L 544 3500 
L 1119 3500 
L 1119 1403 
Q 1119 906 1312 657 
Q 1506 409 1894 409 
Q 2359 409 2629 706 
Q 2900 1003 2900 1516 
L 2900 3500 
L 3475 3500 
L 3475 0 
L 2900 0 
L 2900 538 
Q 2691 219 2414 64 
Q 2138 -91 1772 -91 
Q 1169 -91 856 284 
Q 544 659 544 1381 
z
M 1991 3584 
L 1991 3584 
z
" transform="scale(0.015625)"/>
      <path id="DejaVuSans-6e" d="M 3513 2113 
L 3513 0 
L 2938 0 
L 2938 2094 
Q 2938 2591 2744 2837 
Q 2550 3084 2163 3084 
Q 1697 3084 1428 2787 
Q 1159 2491 1159 1978 
L 1159 0 
L 581 0 
L 581 3500 
L 1159 3500 
L 1159 2956 
Q 1366 3272 1645 3428 
Q 1925 3584 2291 3584 
Q 2894 3584 3203 3211 
Q 3513 2838 3513 2113 
z
" transform="scale(0.015625)"/>
      <path id="DejaVuSans-69" d="M 603 3500 
L 1178 3500 
L 1178 0 
L 603 0 
L 603 3500 
z
M 603 4863 
L 1178 4863 
L 1178 4134 
L 603 4134 
L 603 4863 
z
" transform="scale(0.015625)"/>
      <path id="DejaVuSans-74" d="M 1172 4494 
L 1172 3500 
L 2356 3500 
L 2356 3053 
L 1172 3053 
L 1172 1153 
Q 1172 725 1289 603 
Q 1406 481 1766 481 
L 2356 481 
L 2356 0 
L 1766 0 
Q 1100 0 847 248 
Q 594 497 594 1153 
L 594 3053 
L 172 3053 
L 172 3500 
L 594 3500 
L 594 4494 
L 1172 4494 
z
" transform="scale(0.015625)"/>
      <path id="DejaVuSans-5f" d="M 3263 -1063 
L 3263 -1509 
L -63 -1509 
L -63 -1063 
L 3263 -1063 
z
" transform="scale(0.015625)"/>
      <path id="DejaVuSans-35" d="M 691 4666 
L 3169 4666 
L 3169 4134 
L 1269 4134 
L 1269 2991 
Q 1406 3038 1543 3061 
Q 1681 3084 1819 3084 
Q 2600 3084 3056 2656 
Q 3513 2228 3513 1497 
Q 3513 744 3044 326 
Q 2575 -91 1722 -91 
Q 1428 -91 1123 -41 
Q 819 9 494 109 
L 494 744 
Q 775 591 1075 516 
Q 1375 441 1709 441 
Q 2250 441 2565 725 
Q 2881 1009 2881 1497 
Q 2881 1984 2565 2268 
Q 2250 2553 1709 2553 
Q 1456 2553 1204 2497 
Q 953 2441 691 2322 
L 691 4666 
z
" transform="scale(0.015625)"/>
      <path id="DejaVuSans-39" d="M 703 97 
L 703 672 
Q 941 559 1184 500 
Q 1428 441 1663 441 
Q 2288 441 2617 861 
Q 2947 1281 2994 2138 
Q 2813 1869 2534 1725 
Q 2256 1581 1919 1581 
Q 1219 1581 811 2004 
Q 403 2428 403 3163 
Q 403 3881 828 4315 
Q 1253 4750 1959 4750 
Q 2769 4750 3195 4129 
Q 3622 3509 3622 2328 
Q 3622 1225 3098 567 
Q 2575 -91 1691 -91 
Q 1453 -91 1209 -44 
Q 966 3 703 97 
z
M 1959 2075 
Q 2384 2075 2632 2365 
Q 2881 2656 2881 3163 
Q 2881 3666 2632 3958 
Q 2384 4250 1959 4250 
Q 1534 4250 1286 3958 
Q 1038 3666 1038 3163 
Q 1038 2656 1286 2365 
Q 1534 2075 1959 2075 
z
" transform="scale(0.015625)"/>
     </defs>
     <use xlink:href="#DejaVuSans-75"/>
     <use xlink:href="#DejaVuSans-6e" x="63.378906"/>
     <use xlink:href="#DejaVuSans-69" x="126.757812"/>
     <use xlink:href="#DejaVuSans-74" x="154.541016"/>
     <use xlink:href="#DejaVuSans-5f" x="193.75"/>
     <use xlink:href="#DejaVuSans-35" x="243.75"/>
     <use xlink:href="#DejaVuSans-39" x="307.373047"/>
    </g>
   </g>
  </g>
  <g id="axes_3">
   <g id="patch_12">
    <path d="M 90 630 
L 343.636364 630 
L 343.636364 382.909091 
L 90 382.909091 
z
" style="fill: #ffffff"/>
   </g>
   <g id="matplotlib.axis_5">
    <g id="xtick_12">
     <g id="line2d_29">
      <g>
       <use xlink:href="#m8fd3746a5e" x="90" y="630" style="stroke: #000000; stroke-width: 0.8"/>
      </g>
     </g>
     <g id="text_26">
      <!-- 0.0 -->
      <g transform="translate(82.048438 644.598437)scale(0.1 -0.1)">
       <use xlink:href="#DejaVuSans-30"/>
       <use xlink:href="#DejaVuSans-2e" x="63.623047"/>
       <use xlink:href="#DejaVuSans-30" x="95.410156"/>
      </g>
     </g>
    </g>
    <g id="xtick_13">
     <g id="line2d_30">
      <g>
       <use xlink:href="#m8fd3746a5e" x="140.727273" y="630" style="stroke: #000000; stroke-width: 0.8"/>
      </g>
     </g>
     <g id="text_27">
      <!-- 0.2 -->
      <g transform="translate(132.77571 644.598437)scale(0.1 -0.1)">
       <use xlink:href="#DejaVuSans-30"/>
       <use xlink:href="#DejaVuSans-2e" x="63.623047"/>
       <use xlink:href="#DejaVuSans-32" x="95.410156"/>
      </g>
     </g>
    </g>
    <g id="xtick_14">
     <g id="line2d_31">
      <g>
       <use xlink:href="#m8fd3746a5e" x="191.454545" y="630" style="stroke: #000000; stroke-width: 0.8"/>
      </g>
     </g>
     <g id="text_28">
      <!-- 0.4 -->
      <g transform="translate(183.502983 644.598437)scale(0.1 -0.1)">
       <use xlink:href="#DejaVuSans-30"/>
       <use xlink:href="#DejaVuSans-2e" x="63.623047"/>
       <use xlink:href="#DejaVuSans-34" x="95.410156"/>
      </g>
     </g>
    </g>
    <g id="xtick_15">
     <g id="line2d_32">
      <g>
       <use xlink:href="#m8fd3746a5e" x="242.181818" y="630" style="stroke: #000000; stroke-width: 0.8"/>
      </g>
     </g>
     <g id="text_29">
      <!-- 0.6 -->
      <g transform="translate(234.230256 644.598437)scale(0.1 -0.1)">
       <use xlink:href="#DejaVuSans-30"/>
       <use xlink:href="#DejaVuSans-2e" x="63.623047"/>
       <use xlink:href="#DejaVuSans-36" x="95.410156"/>
      </g>
     </g>
    </g>
    <g id="xtick_16">
     <g id="line2d_33">
      <g>
       <use xlink:href="#m8fd3746a5e" x="292.909091" y="630" style="stroke: #000000; stroke-width: 0.8"/>
      </g>
     </g>
     <g id="text_30">
      <!-- 0.8 -->
      <g transform="translate(284.957528 644.598437)scale(0.1 -0.1)">
       <use xlink:href="#DejaVuSans-30"/>
       <use xlink:href="#DejaVuSans-2e" x="63.623047"/>
       <use xlink:href="#DejaVuSans-38" x="95.410156"/>
      </g>
     </g>
    </g>
    <g id="xtick_17">
     <g id="line2d_34">
      <g>
       <use xlink:href="#m8fd3746a5e" x="343.636364" y="630" style="stroke: #000000; stroke-width: 0.8"/>
      </g>
     </g>
     <g id="text_31">
      <!-- 1.0 -->
      <g transform="translate(335.684801 644.598437)scale(0.1 -0.1)">
       <use xlink:href="#DejaVuSans-31"/>
       <use xlink:href="#DejaVuSans-2e" x="63.623047"/>
       <use xlink:href="#DejaVuSans-30" x="95.410156"/>
      </g>
     </g>
    </g>
   </g>
   <g id="matplotlib.axis_6">
    <g id="ytick_14">
     <g id="line2d_35">
      <g>
       <use xlink:href="#ma9ba5b6c93" x="90" y="630" style="stroke: #000000; stroke-width: 0.8"/>
      </g>
     </g>
     <g id="text_32">
      <!-- 0.0 -->
      <g transform="translate(67.096875 633.799219)scale(0.1 -0.1)">
       <use xlink:href="#DejaVuSans-30"/>
       <use xlink:href="#DejaVuSans-2e" x="63.623047"/>
       <use xlink:href="#DejaVuSans-30" x="95.410156"/>
      </g>
     </g>
    </g>
    <g id="ytick_15">
     <g id="line2d_36">
      <g>
       <use xlink:href="#ma9ba5b6c93" x="90" y="580.581818" style="stroke: #000000; stroke-width: 0.8"/>
      </g>
     </g>
     <g id="text_33">
      <!-- 0.2 -->
      <g transform="translate(67.096875 584.381037)scale(0.1 -0.1)">
       <use xlink:href="#DejaVuSans-30"/>
       <use xlink:href="#DejaVuSans-2e" x="63.623047"/>
       <use xlink:href="#DejaVuSans-32" x="95.410156"/>
      </g>
     </g>
    </g>
    <g id="ytick_16">
     <g id="line2d_37">
      <g>
       <use xlink:href="#ma9ba5b6c93" x="90" y="531.163636" style="stroke: #000000; stroke-width: 0.8"/>
      </g>
     </g>
     <g id="text_34">
      <!-- 0.4 -->
      <g transform="translate(67.096875 534.962855)scale(0.1 -0.1)">
       <use xlink:href="#DejaVuSans-30"/>
       <use xlink:href="#DejaVuSans-2e" x="63.623047"/>
       <use xlink:href="#DejaVuSans-34" x="95.410156"/>
      </g>
     </g>
    </g>
    <g id="ytick_17">
     <g id="line2d_38">
      <g>
       <use xlink:href="#ma9ba5b6c93" x="90" y="481.745455" style="stroke: #000000; stroke-width: 0.8"/>
      </g>
     </g>
     <g id="text_35">
      <!-- 0.6 -->
      <g transform="translate(67.096875 485.544673)scale(0.1 -0.1)">
       <use xlink:href="#DejaVuSans-30"/>
       <use xlink:href="#DejaVuSans-2e" x="63.623047"/>
       <use xlink:href="#DejaVuSans-36" x="95.410156"/>
      </g>
     </g>
    </g>
    <g id="ytick_18">
     <g id="line2d_39">
      <g>
       <use xlink:href="#ma9ba5b6c93" x="90" y="432.327273" style="stroke: #000000; stroke-width: 0.8"/>
      </g>
     </g>
     <g id="text_36">
      <!-- 0.8 -->
      <g transform="translate(67.096875 436.126491)scale(0.1 -0.1)">
       <use xlink:href="#DejaVuSans-30"/>
       <use xlink:href="#DejaVuSans-2e" x="63.623047"/>
       <use xlink:href="#DejaVuSans-38" x="95.410156"/>
      </g>
     </g>
    </g>
    <g id="ytick_19">
     <g id="line2d_40">
      <g>
       <use xlink:href="#ma9ba5b6c93" x="90" y="382.909091" style="stroke: #000000; stroke-width: 0.8"/>
      </g>
     </g>
     <g id="text_37">
      <!-- 1.0 -->
      <g transform="translate(67.096875 386.70831)scale(0.1 -0.1)">
       <use xlink:href="#DejaVuSans-31"/>
       <use xlink:href="#DejaVuSans-2e" x="63.623047"/>
       <use xlink:href="#DejaVuSans-30" x="95.410156"/>
      </g>
     </g>
    </g>
   </g>
   <g id="patch_13">
    <path d="M 90 630 
L 90 382.909091 
" style="fill: none; stroke: #000000; stroke-width: 0.8; stroke-linejoin: miter; stroke-linecap: square"/>
   </g>
   <g id="patch_14">
    <path d="M 343.636364 630 
L 343.636364 382.909091 
" style="fill: none; stroke: #000000; stroke-width: 0.8; stroke-linejoin: miter; stroke-linecap: square"/>
   </g>
   <g id="patch_15">
    <path d="M 90 630 
L 343.636364 630 
" style="fill: none; stroke: #000000; stroke-width: 0.8; stroke-linejoin: miter; stroke-linecap: square"/>
   </g>
   <g id="patch_16">
    <path d="M 90 382.909091 
L 343.636364 382.909091 
" style="fill: none; stroke: #000000; stroke-width: 0.8; stroke-linejoin: miter; stroke-linecap: square"/>
   </g>
  </g>
  <g id="axes_4">
   <g id="patch_17">
    <path d="M 394.363636 630 
L 648 630 
L 648 382.909091 
L 394.363636 382.909091 
z
" style="fill: #ffffff"/>
   </g>
   <g id="matplotlib.axis_7">
    <g id="xtick_18">
     <g id="line2d_41">
      <g>
       <use xlink:href="#m8fd3746a5e" x="405.863558" y="630" style="stroke: #000000; stroke-width: 0.8"/>
      </g>
     </g>
     <g id="text_38">
      <!-- 0 -->
      <g transform="translate(402.682308 644.598437)scale(0.1 -0.1)">
       <use xlink:href="#DejaVuSans-30"/>
      </g>
     </g>
    </g>
    <g id="xtick_19">
     <g id="line2d_42">
      <g>
       <use xlink:href="#m8fd3746a5e" x="463.870731" y="630" style="stroke: #000000; stroke-width: 0.8"/>
      </g>
     </g>
     <g id="text_39">
      <!-- 2000 -->
      <g transform="translate(451.145731 644.598437)scale(0.1 -0.1)">
       <use xlink:href="#DejaVuSans-32"/>
       <use xlink:href="#DejaVuSans-30" x="63.623047"/>
       <use xlink:href="#DejaVuSans-30" x="127.246094"/>
       <use xlink:href="#DejaVuSans-30" x="190.869141"/>
      </g>
     </g>
    </g>
    <g id="xtick_20">
     <g id="line2d_43">
      <g>
       <use xlink:href="#m8fd3746a5e" x="521.877904" y="630" style="stroke: #000000; stroke-width: 0.8"/>
      </g>
     </g>
     <g id="text_40">
      <!-- 4000 -->
      <g transform="translate(509.152904 644.598437)scale(0.1 -0.1)">
       <use xlink:href="#DejaVuSans-34"/>
       <use xlink:href="#DejaVuSans-30" x="63.623047"/>
       <use xlink:href="#DejaVuSans-30" x="127.246094"/>
       <use xlink:href="#DejaVuSans-30" x="190.869141"/>
      </g>
     </g>
    </g>
    <g id="xtick_21">
     <g id="line2d_44">
      <g>
       <use xlink:href="#m8fd3746a5e" x="579.885077" y="630" style="stroke: #000000; stroke-width: 0.8"/>
      </g>
     </g>
     <g id="text_41">
      <!-- 6000 -->
      <g transform="translate(567.160077 644.598437)scale(0.1 -0.1)">
       <use xlink:href="#DejaVuSans-36"/>
       <use xlink:href="#DejaVuSans-30" x="63.623047"/>
       <use xlink:href="#DejaVuSans-30" x="127.246094"/>
       <use xlink:href="#DejaVuSans-30" x="190.869141"/>
      </g>
     </g>
    </g>
    <g id="xtick_22">
     <g id="line2d_45">
      <g>
       <use xlink:href="#m8fd3746a5e" x="637.89225" y="630" style="stroke: #000000; stroke-width: 0.8"/>
      </g>
     </g>
     <g id="text_42">
      <!-- 8000 -->
      <g transform="translate(625.16725 644.598437)scale(0.1 -0.1)">
       <use xlink:href="#DejaVuSans-38"/>
       <use xlink:href="#DejaVuSans-30" x="63.623047"/>
       <use xlink:href="#DejaVuSans-30" x="127.246094"/>
       <use xlink:href="#DejaVuSans-30" x="190.869141"/>
      </g>
     </g>
    </g>
   </g>
   <g id="matplotlib.axis_8">
    <g id="ytick_20">
     <g id="line2d_46">
      <g>
       <use xlink:href="#ma9ba5b6c93" x="394.363636" y="630" style="stroke: #000000; stroke-width: 0.8"/>
      </g>
     </g>
     <g id="text_43">
      <!-- −2 -->
      <g transform="translate(372.621449 633.799219)scale(0.1 -0.1)">
       <use xlink:href="#DejaVuSans-2212"/>
       <use xlink:href="#DejaVuSans-32" x="83.789062"/>
      </g>
     </g>
    </g>
    <g id="ytick_21">
     <g id="line2d_47">
      <g>
       <use xlink:href="#ma9ba5b6c93" x="394.363636" y="588.713551" style="stroke: #000000; stroke-width: 0.8"/>
      </g>
     </g>
     <g id="text_44">
      <!-- −1 -->
      <g transform="translate(372.621449 592.51277)scale(0.1 -0.1)">
       <use xlink:href="#DejaVuSans-2212"/>
       <use xlink:href="#DejaVuSans-31" x="83.789062"/>
      </g>
     </g>
    </g>
    <g id="ytick_22">
     <g id="line2d_48">
      <g>
       <use xlink:href="#ma9ba5b6c93" x="394.363636" y="547.427103" style="stroke: #000000; stroke-width: 0.8"/>
      </g>
     </g>
     <g id="text_45">
      <!-- 0 -->
      <g transform="translate(381.001136 551.226321)scale(0.1 -0.1)">
       <use xlink:href="#DejaVuSans-30"/>
      </g>
     </g>
    </g>
    <g id="ytick_23">
     <g id="line2d_49">
      <g>
       <use xlink:href="#ma9ba5b6c93" x="394.363636" y="506.140654" style="stroke: #000000; stroke-width: 0.8"/>
      </g>
     </g>
     <g id="text_46">
      <!-- 1 -->
      <g transform="translate(381.001136 509.939873)scale(0.1 -0.1)">
       <use xlink:href="#DejaVuSans-31"/>
      </g>
     </g>
    </g>
    <g id="ytick_24">
     <g id="line2d_50">
      <g>
       <use xlink:href="#ma9ba5b6c93" x="394.363636" y="464.854205" style="stroke: #000000; stroke-width: 0.8"/>
      </g>
     </g>
     <g id="text_47">
      <!-- 2 -->
      <g transform="translate(381.001136 468.653424)scale(0.1 -0.1)">
       <use xlink:href="#DejaVuSans-32"/>
      </g>
     </g>
    </g>
    <g id="ytick_25">
     <g id="line2d_51">
      <g>
       <use xlink:href="#ma9ba5b6c93" x="394.363636" y="423.567756" style="stroke: #000000; stroke-width: 0.8"/>
      </g>
     </g>
     <g id="text_48">
      <!-- 3 -->
      <g transform="translate(381.001136 427.366975)scale(0.1 -0.1)">
       <use xlink:href="#DejaVuSans-33"/>
      </g>
     </g>
    </g>
   </g>
   <g id="line2d_52">
    <path d="M 408.65057 721 
L 408.792921 706.226134 
L 410.2431 579.051995 
L 411.693279 501.735519 
L 413.143459 558.960175 
L 414.642676 721 
M 421.688462 721 
L 421.844535 675.927575 
L 423.294714 560.979078 
L 424.744893 554.508632 
L 426.195073 579.11936 
L 427.645252 628.12954 
L 429.095431 662.000557 
L 430.54561 633.64351 
L 431.99579 585.623607 
L 433.445969 580.100545 
L 434.896148 624.017606 
L 436.197449 721 
M 439.433864 721 
L 440.696866 629.842896 
L 442.147045 602.144663 
L 443.597224 608.9428 
L 445.047404 592.833829 
L 446.497583 586.110789 
L 447.947762 593.610972 
L 449.397942 559.572926 
L 450.848121 484.232506 
L 452.2983 443.584717 
L 453.74848 515.73973 
L 455.198659 610.942698 
L 456.648838 605.090667 
L 458.099018 564.035822 
L 459.549197 532.787159 
L 460.999376 520.042349 
L 462.449556 540.593234 
L 463.899735 543.760779 
L 465.349914 507.840585 
L 466.800094 484.861155 
L 468.250273 499.172342 
L 469.700452 530.967066 
L 471.150632 580.109365 
L 472.600811 634.012089 
L 474.05099 623.091372 
L 475.501169 578.307789 
L 476.951349 558.963163 
L 478.401528 556.200843 
L 479.851707 550.056236 
L 481.301887 537.724037 
L 482.752066 517.827057 
L 484.202245 505.231098 
L 485.652425 515.286974 
L 487.102604 527.801921 
L 488.552783 535.384734 
L 490.002963 550.491751 
L 491.453142 577.462251 
L 493.669297 721 
M 496.013056 721 
L 497.253859 637.533347 
L 498.704039 570.504006 
L 501.604397 503.06044 
L 503.054577 491.063952 
L 504.504756 537.689158 
L 505.954935 597.710496 
L 508.07613 721 
M 514.360267 721 
L 514.656011 707.52255 
L 514.88411 721 
M 517.649045 721 
L 519.006549 505.384887 
L 520.456729 432.445392 
L 521.906908 519.477763 
L 523.357087 550.75412 
L 524.807266 572.055566 
L 526.257446 639.148927 
L 527.707625 691.821996 
L 529.157804 696.402116 
L 530.607984 699.317983 
L 531.497083 721 
M 533.903798 721 
L 534.958522 703.365786 
L 535.689558 721 
M 538.513448 721 
L 539.30906 691.805882 
L 540.759239 654.450675 
L 542.209418 596.984946 
L 543.659598 547.908885 
L 545.109777 533.63338 
L 546.559956 528.710083 
L 548.010136 533.356455 
L 549.460315 530.851749 
L 550.910494 528.005139 
L 552.360674 581.632208 
L 553.810853 676.05493 
L 555.261032 672.09741 
L 556.711212 551.96516 
L 558.161391 522.133942 
L 559.61157 612.291209 
L 561.06175 627.318919 
L 562.511929 610.65295 
L 563.962108 639.490782 
L 565.412288 568.518631 
L 566.862467 477.581564 
L 568.312646 600.063654 
L 569.448857 721 
M 578.591763 721 
L 579.914081 636.395112 
L 581.36426 528.509853 
L 582.814439 490.266878 
L 584.264619 454.969365 
L 585.714798 413.734622 
L 587.164977 382.909091 
L 590.065336 494.552219 
L 591.515515 473.267573 
L 592.965695 474.446281 
L 594.415874 478.758345 
L 595.866053 475.329907 
L 597.316233 577.230842 
L 598.354824 721 
M 620.743263 721 
L 621.969281 658.080932 
L 623.41946 611.200611 
L 624.86964 580.892692 
L 626.319819 561.669834 
L 627.769998 554.183951 
L 629.220178 573.547349 
L 630.670357 624.79143 
L 632.120536 615.695073 
L 633.570716 576.982104 
L 635.020895 630.427229 
L 636.028169 721 
L 636.028169 721 
" clip-path="url(#pe336266248)" style="fill: none; stroke: #1f77b4; stroke-width: 1.5; stroke-linecap: square"/>
   </g>
   <g id="patch_18">
    <path d="M 394.363636 630 
L 394.363636 382.909091 
" style="fill: none; stroke: #000000; stroke-width: 0.8; stroke-linejoin: miter; stroke-linecap: square"/>
   </g>
   <g id="patch_19">
    <path d="M 648 630 
L 648 382.909091 
" style="fill: none; stroke: #000000; stroke-width: 0.8; stroke-linejoin: miter; stroke-linecap: square"/>
   </g>
   <g id="patch_20">
    <path d="M 394.363636 630 
L 648 630 
" style="fill: none; stroke: #000000; stroke-width: 0.8; stroke-linejoin: miter; stroke-linecap: square"/>
   </g>
   <g id="patch_21">
    <path d="M 394.363636 382.909091 
L 648 382.909091 
" style="fill: none; stroke: #000000; stroke-width: 0.8; stroke-linejoin: miter; stroke-linecap: square"/>
   </g>
   <g id="text_49">
    <!-- explained variance -->
    <g transform="translate(464.181818 376.909091)scale(0.12 -0.12)">
     <defs>
      <path id="DejaVuSans-65" d="M 3597 1894 
L 3597 1613 
L 953 1613 
Q 991 1019 1311 708 
Q 1631 397 2203 397 
Q 2534 397 2845 478 
Q 3156 559 3463 722 
L 3463 178 
Q 3153 47 2828 -22 
Q 2503 -91 2169 -91 
Q 1331 -91 842 396 
Q 353 884 353 1716 
Q 353 2575 817 3079 
Q 1281 3584 2069 3584 
Q 2775 3584 3186 3129 
Q 3597 2675 3597 1894 
z
M 3022 2063 
Q 3016 2534 2758 2815 
Q 2500 3097 2075 3097 
Q 1594 3097 1305 2825 
Q 1016 2553 972 2059 
L 3022 2063 
z
" transform="scale(0.015625)"/>
      <path id="DejaVuSans-78" d="M 3513 3500 
L 2247 1797 
L 3578 0 
L 2900 0 
L 1881 1375 
L 863 0 
L 184 0 
L 1544 1831 
L 300 3500 
L 978 3500 
L 1906 2253 
L 2834 3500 
L 3513 3500 
z
" transform="scale(0.015625)"/>
      <path id="DejaVuSans-70" d="M 1159 525 
L 1159 -1331 
L 581 -1331 
L 581 3500 
L 1159 3500 
L 1159 2969 
Q 1341 3281 1617 3432 
Q 1894 3584 2278 3584 
Q 2916 3584 3314 3078 
Q 3713 2572 3713 1747 
Q 3713 922 3314 415 
Q 2916 -91 2278 -91 
Q 1894 -91 1617 61 
Q 1341 213 1159 525 
z
M 3116 1747 
Q 3116 2381 2855 2742 
Q 2594 3103 2138 3103 
Q 1681 3103 1420 2742 
Q 1159 2381 1159 1747 
Q 1159 1113 1420 752 
Q 1681 391 2138 391 
Q 2594 391 2855 752 
Q 3116 1113 3116 1747 
z
" transform="scale(0.015625)"/>
      <path id="DejaVuSans-6c" d="M 603 4863 
L 1178 4863 
L 1178 0 
L 603 0 
L 603 4863 
z
" transform="scale(0.015625)"/>
      <path id="DejaVuSans-61" d="M 2194 1759 
Q 1497 1759 1228 1600 
Q 959 1441 959 1056 
Q 959 750 1161 570 
Q 1363 391 1709 391 
Q 2188 391 2477 730 
Q 2766 1069 2766 1631 
L 2766 1759 
L 2194 1759 
z
M 3341 1997 
L 3341 0 
L 2766 0 
L 2766 531 
Q 2569 213 2275 61 
Q 1981 -91 1556 -91 
Q 1019 -91 701 211 
Q 384 513 384 1019 
Q 384 1609 779 1909 
Q 1175 2209 1959 2209 
L 2766 2209 
L 2766 2266 
Q 2766 2663 2505 2880 
Q 2244 3097 1772 3097 
Q 1472 3097 1187 3025 
Q 903 2953 641 2809 
L 641 3341 
Q 956 3463 1253 3523 
Q 1550 3584 1831 3584 
Q 2591 3584 2966 3190 
Q 3341 2797 3341 1997 
z
" transform="scale(0.015625)"/>
      <path id="DejaVuSans-64" d="M 2906 2969 
L 2906 4863 
L 3481 4863 
L 3481 0 
L 2906 0 
L 2906 525 
Q 2725 213 2448 61 
Q 2172 -91 1784 -91 
Q 1150 -91 751 415 
Q 353 922 353 1747 
Q 353 2572 751 3078 
Q 1150 3584 1784 3584 
Q 2172 3584 2448 3432 
Q 2725 3281 2906 2969 
z
M 947 1747 
Q 947 1113 1208 752 
Q 1469 391 1925 391 
Q 2381 391 2643 752 
Q 2906 1113 2906 1747 
Q 2906 2381 2643 2742 
Q 2381 3103 1925 3103 
Q 1469 3103 1208 2742 
Q 947 2381 947 1747 
z
" transform="scale(0.015625)"/>
      <path id="DejaVuSans-20" transform="scale(0.015625)"/>
      <path id="DejaVuSans-76" d="M 191 3500 
L 800 3500 
L 1894 563 
L 2988 3500 
L 3597 3500 
L 2284 0 
L 1503 0 
L 191 3500 
z
" transform="scale(0.015625)"/>
      <path id="DejaVuSans-72" d="M 2631 2963 
Q 2534 3019 2420 3045 
Q 2306 3072 2169 3072 
Q 1681 3072 1420 2755 
Q 1159 2438 1159 1844 
L 1159 0 
L 581 0 
L 581 3500 
L 1159 3500 
L 1159 2956 
Q 1341 3275 1631 3429 
Q 1922 3584 2338 3584 
Q 2397 3584 2469 3576 
Q 2541 3569 2628 3553 
L 2631 2963 
z
" transform="scale(0.015625)"/>
      <path id="DejaVuSans-63" d="M 3122 3366 
L 3122 2828 
Q 2878 2963 2633 3030 
Q 2388 3097 2138 3097 
Q 1578 3097 1268 2742 
Q 959 2388 959 1747 
Q 959 1106 1268 751 
Q 1578 397 2138 397 
Q 2388 397 2633 464 
Q 2878 531 3122 666 
L 3122 134 
Q 2881 22 2623 -34 
Q 2366 -91 2075 -91 
Q 1284 -91 818 406 
Q 353 903 353 1747 
Q 353 2603 823 3093 
Q 1294 3584 2113 3584 
Q 2378 3584 2631 3529 
Q 2884 3475 3122 3366 
z
" transform="scale(0.015625)"/>
     </defs>
     <use xlink:href="#DejaVuSans-65"/>
     <use xlink:href="#DejaVuSans-78" x="59.773438"/>
     <use xlink:href="#DejaVuSans-70" x="118.953125"/>
     <use xlink:href="#DejaVuSans-6c" x="182.429688"/>
     <use xlink:href="#DejaVuSans-61" x="210.212891"/>
     <use xlink:href="#DejaVuSans-69" x="271.492188"/>
     <use xlink:href="#DejaVuSans-6e" x="299.275391"/>
     <use xlink:href="#DejaVuSans-65" x="362.654297"/>
     <use xlink:href="#DejaVuSans-64" x="424.177734"/>
     <use xlink:href="#DejaVuSans-20" x="487.654297"/>
     <use xlink:href="#DejaVuSans-76" x="519.441406"/>
     <use xlink:href="#DejaVuSans-61" x="578.621094"/>
     <use xlink:href="#DejaVuSans-72" x="639.900391"/>
     <use xlink:href="#DejaVuSans-69" x="681.013672"/>
     <use xlink:href="#DejaVuSans-61" x="708.796875"/>
     <use xlink:href="#DejaVuSans-6e" x="770.076172"/>
     <use xlink:href="#DejaVuSans-63" x="833.455078"/>
     <use xlink:href="#DejaVuSans-65" x="888.435547"/>
    </g>
   </g>
  </g>
 </g>
 <defs>
  <clipPath id="p534c11e580">
   <rect x="394.363636" y="86.4" width="253.636364" height="247.090909"/>
  </clipPath>
  <clipPath id="pe336266248">
   <rect x="394.363636" y="382.909091" width="253.636364" height="247.090909"/>
  </clipPath>
 </defs>
</svg>
