<?xml version="1.0" encoding="utf-8" standalone="no"?>
<!DOCTYPE svg PUBLIC "-//W3C//DTD SVG 1.1//EN"
  "http://www.w3.org/Graphics/SVG/1.1/DTD/svg11.dtd">
<svg xmlns:xlink="http://www.w3.org/1999/xlink" width="720pt" height="720pt" viewBox="0 0 720 720" xmlns="http://www.w3.org/2000/svg" version="1.1">
 <metadata>
  <rdf:RDF xmlns:dc="http://purl.org/dc/elements/1.1/" xmlns:cc="http://creativecommons.org/ns#" xmlns:rdf="http://www.w3.org/1999/02/22-rdf-syntax-ns#">
   <cc:Work>
    <dc:type rdf:resource="http://purl.org/dc/dcmitype/StillImage"/>
    <dc:date>2023-12-19T18:21:51.060422</dc:date>
    <dc:format>image/svg+xml</dc:format>
    <dc:creator>
     <cc:Agent>
      <dc:title>Matplotlib v3.5.2, https://matplotlib.org/</dc:title>
     </cc:Agent>
    </dc:creator>
   </cc:Work>
  </rdf:RDF>
 </metadata>
 <defs>
  <style type="text/css">*{stroke-linejoin: round; stroke-linecap: butt}</style>
 </defs>
 <g id="figure_1">
  <g id="patch_1">
   <path d="M 0 720 
L 720 720 
L 720 0 
L 0 0 
z
" style="fill: #ffffff"/>
  </g>
  <g id="axes_1">
   <g id="patch_2">
    <path d="M 90 333.490909 
L 343.636364 333.490909 
L 343.636364 86.4 
L 90 86.4 
z
" style="fill: #ffffff"/>
   </g>
   <g id="matplotlib.axis_1">
    <g id="xtick_1">
     <g id="line2d_1">
      <defs>
       <path id="mc1de55f8b0" d="M 0 0 
L 0 3.5 
" style="stroke: #000000; stroke-width: 0.8"/>
      </defs>
      <g>
       <use xlink:href="#mc1de55f8b0" x="90" y="333.490909" style="stroke: #000000; stroke-width: 0.8"/>
      </g>
     </g>
     <g id="text_1">
      <!-- 0.0 -->
      <g transform="translate(82.048438 348.089347)scale(0.1 -0.1)">
       <defs>
        <path id="DejaVuSans-30" d="M 2034 4250 
Q 1547 4250 1301 3770 
Q 1056 3291 1056 2328 
Q 1056 1369 1301 889 
Q 1547 409 2034 409 
Q 2525 409 2770 889 
Q 3016 1369 3016 2328 
Q 3016 3291 2770 3770 
Q 2525 4250 2034 4250 
z
M 2034 4750 
Q 2819 4750 3233 4129 
Q 3647 3509 3647 2328 
Q 3647 1150 3233 529 
Q 2819 -91 2034 -91 
Q 1250 -91 836 529 
Q 422 1150 422 2328 
Q 422 3509 836 4129 
Q 1250 4750 2034 4750 
z
" transform="scale(0.015625)"/>
        <path id="DejaVuSans-2e" d="M 684 794 
L 1344 794 
L 1344 0 
L 684 0 
L 684 794 
z
" transform="scale(0.015625)"/>
       </defs>
       <use xlink:href="#DejaVuSans-30"/>
       <use xlink:href="#DejaVuSans-2e" x="63.623047"/>
       <use xlink:href="#DejaVuSans-30" x="95.410156"/>
      </g>
     </g>
    </g>
    <g id="xtick_2">
     <g id="line2d_2">
      <g>
       <use xlink:href="#mc1de55f8b0" x="140.727273" y="333.490909" style="stroke: #000000; stroke-width: 0.8"/>
      </g>
     </g>
     <g id="text_2">
      <!-- 0.2 -->
      <g transform="translate(132.77571 348.089347)scale(0.1 -0.1)">
       <defs>
        <path id="DejaVuSans-32" d="M 1228 531 
L 3431 531 
L 3431 0 
L 469 0 
L 469 531 
Q 828 903 1448 1529 
Q 2069 2156 2228 2338 
Q 2531 2678 2651 2914 
Q 2772 3150 2772 3378 
Q 2772 3750 2511 3984 
Q 2250 4219 1831 4219 
Q 1534 4219 1204 4116 
Q 875 4013 500 3803 
L 500 4441 
Q 881 4594 1212 4672 
Q 1544 4750 1819 4750 
Q 2544 4750 2975 4387 
Q 3406 4025 3406 3419 
Q 3406 3131 3298 2873 
Q 3191 2616 2906 2266 
Q 2828 2175 2409 1742 
Q 1991 1309 1228 531 
z
" transform="scale(0.015625)"/>
       </defs>
       <use xlink:href="#DejaVuSans-30"/>
       <use xlink:href="#DejaVuSans-2e" x="63.623047"/>
       <use xlink:href="#DejaVuSans-32" x="95.410156"/>
      </g>
     </g>
    </g>
    <g id="xtick_3">
     <g id="line2d_3">
      <g>
       <use xlink:href="#mc1de55f8b0" x="191.454545" y="333.490909" style="stroke: #000000; stroke-width: 0.8"/>
      </g>
     </g>
     <g id="text_3">
      <!-- 0.4 -->
      <g transform="translate(183.502983 348.089347)scale(0.1 -0.1)">
       <defs>
        <path id="DejaVuSans-34" d="M 2419 4116 
L 825 1625 
L 2419 1625 
L 2419 4116 
z
M 2253 4666 
L 3047 4666 
L 3047 1625 
L 3713 1625 
L 3713 1100 
L 3047 1100 
L 3047 0 
L 2419 0 
L 2419 1100 
L 313 1100 
L 313 1709 
L 2253 4666 
z
" transform="scale(0.015625)"/>
       </defs>
       <use xlink:href="#DejaVuSans-30"/>
       <use xlink:href="#DejaVuSans-2e" x="63.623047"/>
       <use xlink:href="#DejaVuSans-34" x="95.410156"/>
      </g>
     </g>
    </g>
    <g id="xtick_4">
     <g id="line2d_4">
      <g>
       <use xlink:href="#mc1de55f8b0" x="242.181818" y="333.490909" style="stroke: #000000; stroke-width: 0.8"/>
      </g>
     </g>
     <g id="text_4">
      <!-- 0.6 -->
      <g transform="translate(234.230256 348.089347)scale(0.1 -0.1)">
       <defs>
        <path id="DejaVuSans-36" d="M 2113 2584 
Q 1688 2584 1439 2293 
Q 1191 2003 1191 1497 
Q 1191 994 1439 701 
Q 1688 409 2113 409 
Q 2538 409 2786 701 
Q 3034 994 3034 1497 
Q 3034 2003 2786 2293 
Q 2538 2584 2113 2584 
z
M 3366 4563 
L 3366 3988 
Q 3128 4100 2886 4159 
Q 2644 4219 2406 4219 
Q 1781 4219 1451 3797 
Q 1122 3375 1075 2522 
Q 1259 2794 1537 2939 
Q 1816 3084 2150 3084 
Q 2853 3084 3261 2657 
Q 3669 2231 3669 1497 
Q 3669 778 3244 343 
Q 2819 -91 2113 -91 
Q 1303 -91 875 529 
Q 447 1150 447 2328 
Q 447 3434 972 4092 
Q 1497 4750 2381 4750 
Q 2619 4750 2861 4703 
Q 3103 4656 3366 4563 
z
" transform="scale(0.015625)"/>
       </defs>
       <use xlink:href="#DejaVuSans-30"/>
       <use xlink:href="#DejaVuSans-2e" x="63.623047"/>
       <use xlink:href="#DejaVuSans-36" x="95.410156"/>
      </g>
     </g>
    </g>
    <g id="xtick_5">
     <g id="line2d_5">
      <g>
       <use xlink:href="#mc1de55f8b0" x="292.909091" y="333.490909" style="stroke: #000000; stroke-width: 0.8"/>
      </g>
     </g>
     <g id="text_5">
      <!-- 0.8 -->
      <g transform="translate(284.957528 348.089347)scale(0.1 -0.1)">
       <defs>
        <path id="DejaVuSans-38" d="M 2034 2216 
Q 1584 2216 1326 1975 
Q 1069 1734 1069 1313 
Q 1069 891 1326 650 
Q 1584 409 2034 409 
Q 2484 409 2743 651 
Q 3003 894 3003 1313 
Q 3003 1734 2745 1975 
Q 2488 2216 2034 2216 
z
M 1403 2484 
Q 997 2584 770 2862 
Q 544 3141 544 3541 
Q 544 4100 942 4425 
Q 1341 4750 2034 4750 
Q 2731 4750 3128 4425 
Q 3525 4100 3525 3541 
Q 3525 3141 3298 2862 
Q 3072 2584 2669 2484 
Q 3125 2378 3379 2068 
Q 3634 1759 3634 1313 
Q 3634 634 3220 271 
Q 2806 -91 2034 -91 
Q 1263 -91 848 271 
Q 434 634 434 1313 
Q 434 1759 690 2068 
Q 947 2378 1403 2484 
z
M 1172 3481 
Q 1172 3119 1398 2916 
Q 1625 2713 2034 2713 
Q 2441 2713 2670 2916 
Q 2900 3119 2900 3481 
Q 2900 3844 2670 4047 
Q 2441 4250 2034 4250 
Q 1625 4250 1398 4047 
Q 1172 3844 1172 3481 
z
" transform="scale(0.015625)"/>
       </defs>
       <use xlink:href="#DejaVuSans-30"/>
       <use xlink:href="#DejaVuSans-2e" x="63.623047"/>
       <use xlink:href="#DejaVuSans-38" x="95.410156"/>
      </g>
     </g>
    </g>
    <g id="xtick_6">
     <g id="line2d_6">
      <g>
       <use xlink:href="#mc1de55f8b0" x="343.636364" y="333.490909" style="stroke: #000000; stroke-width: 0.8"/>
      </g>
     </g>
     <g id="text_6">
      <!-- 1.0 -->
      <g transform="translate(335.684801 348.089347)scale(0.1 -0.1)">
       <defs>
        <path id="DejaVuSans-31" d="M 794 531 
L 1825 531 
L 1825 4091 
L 703 3866 
L 703 4441 
L 1819 4666 
L 2450 4666 
L 2450 531 
L 3481 531 
L 3481 0 
L 794 0 
L 794 531 
z
" transform="scale(0.015625)"/>
       </defs>
       <use xlink:href="#DejaVuSans-31"/>
       <use xlink:href="#DejaVuSans-2e" x="63.623047"/>
       <use xlink:href="#DejaVuSans-30" x="95.410156"/>
      </g>
     </g>
    </g>
   </g>
   <g id="matplotlib.axis_2">
    <g id="ytick_1">
     <g id="line2d_7">
      <defs>
       <path id="m21e4adbd1f" d="M 0 0 
L -3.5 0 
" style="stroke: #000000; stroke-width: 0.8"/>
      </defs>
      <g>
       <use xlink:href="#m21e4adbd1f" x="90" y="333.490909" style="stroke: #000000; stroke-width: 0.8"/>
      </g>
     </g>
     <g id="text_7">
      <!-- 0.0 -->
      <g transform="translate(67.096875 337.290128)scale(0.1 -0.1)">
       <use xlink:href="#DejaVuSans-30"/>
       <use xlink:href="#DejaVuSans-2e" x="63.623047"/>
       <use xlink:href="#DejaVuSans-30" x="95.410156"/>
      </g>
     </g>
    </g>
    <g id="ytick_2">
     <g id="line2d_8">
      <g>
       <use xlink:href="#m21e4adbd1f" x="90" y="284.072727" style="stroke: #000000; stroke-width: 0.8"/>
      </g>
     </g>
     <g id="text_8">
      <!-- 0.2 -->
      <g transform="translate(67.096875 287.871946)scale(0.1 -0.1)">
       <use xlink:href="#DejaVuSans-30"/>
       <use xlink:href="#DejaVuSans-2e" x="63.623047"/>
       <use xlink:href="#DejaVuSans-32" x="95.410156"/>
      </g>
     </g>
    </g>
    <g id="ytick_3">
     <g id="line2d_9">
      <g>
       <use xlink:href="#m21e4adbd1f" x="90" y="234.654545" style="stroke: #000000; stroke-width: 0.8"/>
      </g>
     </g>
     <g id="text_9">
      <!-- 0.4 -->
      <g transform="translate(67.096875 238.453764)scale(0.1 -0.1)">
       <use xlink:href="#DejaVuSans-30"/>
       <use xlink:href="#DejaVuSans-2e" x="63.623047"/>
       <use xlink:href="#DejaVuSans-34" x="95.410156"/>
      </g>
     </g>
    </g>
    <g id="ytick_4">
     <g id="line2d_10">
      <g>
       <use xlink:href="#m21e4adbd1f" x="90" y="185.236364" style="stroke: #000000; stroke-width: 0.8"/>
      </g>
     </g>
     <g id="text_10">
      <!-- 0.6 -->
      <g transform="translate(67.096875 189.035582)scale(0.1 -0.1)">
       <use xlink:href="#DejaVuSans-30"/>
       <use xlink:href="#DejaVuSans-2e" x="63.623047"/>
       <use xlink:href="#DejaVuSans-36" x="95.410156"/>
      </g>
     </g>
    </g>
    <g id="ytick_5">
     <g id="line2d_11">
      <g>
       <use xlink:href="#m21e4adbd1f" x="90" y="135.818182" style="stroke: #000000; stroke-width: 0.8"/>
      </g>
     </g>
     <g id="text_11">
      <!-- 0.8 -->
      <g transform="translate(67.096875 139.617401)scale(0.1 -0.1)">
       <use xlink:href="#DejaVuSans-30"/>
       <use xlink:href="#DejaVuSans-2e" x="63.623047"/>
       <use xlink:href="#DejaVuSans-38" x="95.410156"/>
      </g>
     </g>
    </g>
    <g id="ytick_6">
     <g id="line2d_12">
      <g>
       <use xlink:href="#m21e4adbd1f" x="90" y="86.4" style="stroke: #000000; stroke-width: 0.8"/>
      </g>
     </g>
     <g id="text_12">
      <!-- 1.0 -->
      <g transform="translate(67.096875 90.199219)scale(0.1 -0.1)">
       <use xlink:href="#DejaVuSans-31"/>
       <use xlink:href="#DejaVuSans-2e" x="63.623047"/>
       <use xlink:href="#DejaVuSans-30" x="95.410156"/>
      </g>
     </g>
    </g>
   </g>
   <g id="patch_3">
    <path d="M 90 333.490909 
L 90 86.4 
" style="fill: none; stroke: #000000; stroke-width: 0.8; stroke-linejoin: miter; stroke-linecap: square"/>
   </g>
   <g id="patch_4">
    <path d="M 343.636364 333.490909 
L 343.636364 86.4 
" style="fill: none; stroke: #000000; stroke-width: 0.8; stroke-linejoin: miter; stroke-linecap: square"/>
   </g>
   <g id="patch_5">
    <path d="M 90 333.490909 
L 343.636364 333.490909 
" style="fill: none; stroke: #000000; stroke-width: 0.8; stroke-linejoin: miter; stroke-linecap: square"/>
   </g>
   <g id="patch_6">
    <path d="M 90 86.4 
L 343.636364 86.4 
" style="fill: none; stroke: #000000; stroke-width: 0.8; stroke-linejoin: miter; stroke-linecap: square"/>
   </g>
  </g>
  <g id="axes_2">
   <g id="patch_7">
    <path d="M 394.363636 333.490909 
L 648 333.490909 
L 648 86.4 
L 394.363636 86.4 
z
" style="fill: #ffffff"/>
   </g>
   <g id="PolyCollection_1">
    <defs>
     <path id="m07fac8b26b" d="M 405.892562 -502.094514 
L 405.892562 -502.094514 
L 407.342741 -502.969669 
L 408.792921 -505.821779 
L 410.2431 -512.744936 
L 411.693279 -525.823734 
L 413.143459 -545.029337 
L 414.593638 -560.772593 
L 416.043817 -577.90163 
L 417.493997 -587.126384 
L 418.944176 -586.993729 
L 420.394355 -579.742271 
L 421.844535 -576.384377 
L 423.294714 -564.357866 
L 424.744893 -557.565999 
L 426.195073 -551.973826 
L 427.645252 -546.144854 
L 429.095431 -542.494258 
L 430.54561 -542.780275 
L 431.99579 -549.046501 
L 433.445969 -561.916496 
L 434.896148 -579.729393 
L 436.346328 -598.582955 
L 437.796507 -611.758572 
L 439.246686 -617.475273 
L 440.696866 -615.165599 
L 442.147045 -607.970129 
L 443.597224 -598.092677 
L 445.047404 -591.182971 
L 446.497583 -584.825499 
L 447.947762 -580.369215 
L 449.397942 -576.62198 
L 450.848121 -570.160134 
L 452.2983 -560.23981 
L 453.74848 -549.268913 
L 455.198659 -543.538908 
L 456.648838 -524.780883 
L 458.099018 -522.303409 
L 459.549197 -513.680419 
L 460.999376 -507.537268 
L 462.449556 -504.033216 
L 463.899735 -502.472938 
L 465.349914 -501.935697 
L 466.800094 -501.793025 
L 468.250273 -501.764262 
L 469.700452 -501.759053 
L 471.150632 -501.759053 
L 472.600811 -501.759053 
L 474.05099 -501.759815 
L 475.501169 -501.76521 
L 476.951349 -501.79441 
L 478.401528 -501.913681 
L 479.851707 -502.300688 
L 481.301887 -503.286792 
L 482.752066 -505.244799 
L 484.202245 -508.21121 
L 485.652425 -508.5676 
L 487.102604 -509.850776 
L 488.552783 -508.498153 
L 490.002963 -510.902216 
L 491.453142 -507.517815 
L 492.903321 -504.640946 
L 494.353501 -502.899948 
L 495.80368 -502.115077 
L 497.253859 -501.846381 
L 498.704039 -501.775762 
L 500.154218 -501.761433 
L 501.604397 -501.759053 
L 503.054577 -501.759053 
L 504.504756 -501.759053 
L 505.954935 -501.759053 
L 507.405115 -501.759053 
L 508.855294 -501.759053 
L 510.305473 -501.759053 
L 511.755653 -501.759053 
L 513.205832 -501.759053 
L 514.656011 -501.759053 
L 516.106191 -501.756623 
L 517.55637 -501.743213 
L 519.006549 -501.67861 
L 520.456729 -501.440896 
L 521.906908 -500.776315 
L 523.357087 -499.386868 
L 524.807266 -497.249165 
L 526.257446 -494.861 
L 527.707625 -487.326463 
L 529.157804 -490.54286 
L 530.607984 -486.467242 
L 532.058163 -479.033541 
L 533.508342 -461.572821 
L 534.958522 -450.311976 
L 536.408701 -441.124758 
L 537.85888 -436.394762 
L 539.30906 -437.586058 
L 540.759239 -441.057578 
L 542.209418 -445.621532 
L 543.659598 -450.583886 
L 545.109777 -455.606414 
L 546.559956 -460.591376 
L 548.010136 -467.843227 
L 549.460315 -475.124994 
L 550.910494 -486.454977 
L 552.360674 -491.693538 
L 553.810853 -493.774558 
L 555.261032 -492.914035 
L 556.711212 -484.704715 
L 558.161391 -481.887009 
L 559.61157 -486.143386 
L 561.06175 -477.910692 
L 562.511929 -476.595323 
L 563.962108 -478.788368 
L 565.412288 -469.671656 
L 566.862467 -448.074342 
L 568.312646 -431.909961 
L 569.762826 -416.779316 
L 571.213005 -406.124894 
L 572.663184 -399.948129 
L 574.113363 -397.740496 
L 575.563543 -399.613965 
L 577.013722 -406.003103 
L 578.463901 -415.12656 
L 579.914081 -427.290806 
L 581.36426 -440.330098 
L 582.814439 -455.678508 
L 584.264619 -477.003443 
L 585.714798 -488.369462 
L 587.164977 -495.730315 
L 588.615157 -499.541335 
L 590.065336 -501.090255 
L 591.515515 -501.532715 
L 592.965695 -501.425427 
L 594.415874 -500.733425 
L 595.866053 -499.032979 
L 597.316233 -495.927063 
L 598.766412 -491.675634 
L 600.216591 -482.248061 
L 601.666771 -479.908621 
L 603.11695 -481.599497 
L 604.567129 -484.846268 
L 606.017309 -493.207828 
L 607.467488 -497.019076 
L 608.917667 -499.603613 
L 610.367847 -500.96341 
L 611.818026 -501.52297 
L 613.268205 -501.704363 
L 614.718385 -501.755096 
L 616.168564 -501.789374 
L 617.618743 -501.884429 
L 619.068923 -502.145238 
L 620.519102 -502.685463 
L 621.969281 -503.489814 
L 623.41946 -504.277296 
L 624.86964 -499.179506 
L 626.319819 -504.277296 
L 627.769998 -503.489814 
L 629.220178 -502.685463 
L 630.670357 -502.145238 
L 632.120536 -501.884429 
L 633.570716 -501.790753 
L 635.020895 -501.765295 
L 636.471074 -501.76001 
L 636.471074 -501.76001 
L 636.471074 -501.76001 
L 635.020895 -501.765295 
L 633.570716 -501.790753 
L 632.120536 -501.884429 
L 630.670357 -502.145238 
L 629.220178 -502.685463 
L 627.769998 -503.489814 
L 626.319819 -504.277296 
L 624.86964 -510.045686 
L 623.41946 -504.277296 
L 621.969281 -503.489814 
L 620.519102 -502.685463 
L 619.068923 -502.145238 
L 617.618743 -501.884429 
L 616.168564 -501.789374 
L 614.718385 -501.755096 
L 613.268205 -501.704363 
L 611.818026 -501.52297 
L 610.367847 -500.96341 
L 608.917667 -499.603613 
L 607.467488 -497.019076 
L 606.017309 -493.207828 
L 604.567129 -493.11936 
L 603.11695 -490.111332 
L 601.666771 -490.598318 
L 600.216591 -492.833746 
L 598.766412 -491.675634 
L 597.316233 -495.927063 
L 595.866053 -499.032979 
L 594.415874 -500.733425 
L 592.965695 -501.425427 
L 591.515515 -501.532715 
L 590.065336 -501.090255 
L 588.615157 -499.541335 
L 587.164977 -495.730315 
L 585.714798 -488.369462 
L 584.264619 -477.003443 
L 582.814439 -469.648102 
L 581.36426 -454.443428 
L 579.914081 -438.920411 
L 578.463901 -427.104413 
L 577.013722 -418.529623 
L 575.563543 -414.618822 
L 574.113363 -413.991453 
L 572.663184 -417.018816 
L 571.213005 -423.983042 
L 569.762826 -434.760038 
L 568.312646 -448.319729 
L 566.862467 -463.728995 
L 565.412288 -469.671656 
L 563.962108 -478.788368 
L 562.511929 -489.807686 
L 561.06175 -491.955572 
L 559.61157 -486.143386 
L 558.161391 -494.039754 
L 556.711212 -496.26526 
L 555.261032 -492.914035 
L 553.810853 -493.774558 
L 552.360674 -491.693538 
L 550.910494 -486.454977 
L 549.460315 -483.517251 
L 548.010136 -476.476432 
L 546.559956 -471.663946 
L 545.109777 -466.760209 
L 543.659598 -462.890776 
L 542.209418 -459.364227 
L 540.759239 -456.376456 
L 539.30906 -454.805953 
L 537.85888 -456.001555 
L 536.408701 -458.962618 
L 534.958522 -465.806316 
L 533.508342 -475.844616 
L 532.058163 -479.033541 
L 530.607984 -486.467242 
L 529.157804 -490.54286 
L 527.707625 -498.222858 
L 526.257446 -494.861 
L 524.807266 -497.249165 
L 523.357087 -499.386868 
L 521.906908 -500.776315 
L 520.456729 -501.440896 
L 519.006549 -501.67861 
L 517.55637 -501.743213 
L 516.106191 -501.756623 
L 514.656011 -501.759053 
L 513.205832 -501.759053 
L 511.755653 -501.759053 
L 510.305473 -501.759053 
L 508.855294 -501.759053 
L 507.405115 -501.759053 
L 505.954935 -501.759053 
L 504.504756 -501.759053 
L 503.054577 -501.759053 
L 501.604397 -501.759053 
L 500.154218 -501.761433 
L 498.704039 -501.775762 
L 497.253859 -501.846381 
L 495.80368 -502.115077 
L 494.353501 -502.899948 
L 492.903321 -504.640946 
L 491.453142 -507.517815 
L 490.002963 -510.902216 
L 488.552783 -518.2049 
L 487.102604 -517.269018 
L 485.652425 -514.33931 
L 484.202245 -508.21121 
L 482.752066 -505.244799 
L 481.301887 -503.286792 
L 479.851707 -502.300688 
L 478.401528 -501.913681 
L 476.951349 -501.79441 
L 475.501169 -501.76521 
L 474.05099 -501.759815 
L 472.600811 -501.759053 
L 471.150632 -501.759053 
L 469.700452 -501.759053 
L 468.250273 -501.764262 
L 466.800094 -501.793025 
L 465.349914 -501.935697 
L 463.899735 -502.472938 
L 462.449556 -504.033216 
L 460.999376 -507.537268 
L 459.549197 -513.680419 
L 458.099018 -522.303409 
L 456.648838 -540.253608 
L 455.198659 -543.538908 
L 453.74848 -560.619318 
L 452.2983 -571.740623 
L 450.848121 -580.570823 
L 449.397942 -587.502051 
L 447.947762 -592.36373 
L 446.497583 -594.99439 
L 445.047404 -598.269737 
L 443.597224 -605.691576 
L 442.147045 -613.072326 
L 440.696866 -620.348843 
L 439.246686 -622.368595 
L 437.796507 -616.901106 
L 436.346328 -603.295312 
L 434.896148 -585.968619 
L 433.445969 -568.20457 
L 431.99579 -555.11142 
L 430.54561 -549.126405 
L 429.095431 -549.584917 
L 427.645252 -554.103718 
L 426.195073 -559.636922 
L 424.744893 -565.826499 
L 423.294714 -571.94284 
L 421.844535 -576.384377 
L 420.394355 -592.266541 
L 418.944176 -600.101946 
L 417.493997 -601.127399 
L 416.043817 -591.642815 
L 414.593638 -572.643967 
L 413.143459 -545.029337 
L 411.693279 -525.823734 
L 410.2431 -512.744936 
L 408.792921 -505.821779 
L 407.342741 -502.969669 
L 405.892562 -502.094514 
z
" style="stroke: #9467bd; stroke-opacity: 0.2"/>
    </defs>
    <g clip-path="url(#paf1b37c176)">
     <use xlink:href="#m07fac8b26b" x="0" y="720" style="fill: #9467bd; fill-opacity: 0.2; stroke: #9467bd; stroke-opacity: 0.2"/>
    </g>
   </g>
   <g id="PolyCollection_2">
    <defs>
     <path id="md25e308789" d="M 405.892562 -501.759053 
L 405.892562 -501.759053 
L 407.342741 -501.759053 
L 408.792921 -501.759053 
L 410.2431 -501.759053 
L 411.693279 -501.759053 
L 413.143459 -501.759053 
L 414.593638 -501.759053 
L 416.043817 -501.759053 
L 417.493997 -501.759053 
L 418.944176 -501.759053 
L 420.394355 -501.759053 
L 421.844535 -501.759053 
L 423.294714 -501.759053 
L 424.744893 -501.759053 
L 426.195073 -501.759053 
L 427.645252 -501.759053 
L 429.095431 -501.759053 
L 430.54561 -501.759053 
L 431.99579 -501.759053 
L 433.445969 -501.759053 
L 434.896148 -501.759053 
L 436.346328 -501.759053 
L 437.796507 -501.759053 
L 439.246686 -501.759053 
L 440.696866 -501.759053 
L 442.147045 -501.759053 
L 443.597224 -501.759053 
L 445.047404 -501.759053 
L 446.497583 -501.759053 
L 447.947762 -501.759053 
L 449.397942 -501.759053 
L 450.848121 -501.759053 
L 452.2983 -501.759053 
L 453.74848 -501.759053 
L 455.198659 -501.759053 
L 456.648838 -501.759053 
L 458.099018 -501.759053 
L 459.549197 -501.759053 
L 460.999376 -501.759053 
L 462.449556 -501.759053 
L 463.899735 -501.759053 
L 465.349914 -501.759053 
L 466.800094 -501.759053 
L 468.250273 -501.759053 
L 469.700452 -501.759053 
L 471.150632 -501.759053 
L 472.600811 -501.759053 
L 474.05099 -501.759053 
L 475.501169 -501.759053 
L 476.951349 -501.759053 
L 478.401528 -501.759053 
L 479.851707 -501.759053 
L 481.301887 -501.759053 
L 482.752066 -501.759053 
L 484.202245 -501.759053 
L 485.652425 -501.759053 
L 487.102604 -501.759053 
L 488.552783 -501.759053 
L 490.002963 -501.759053 
L 491.453142 -501.759053 
L 492.903321 -501.759053 
L 494.353501 -501.759053 
L 495.80368 -501.759053 
L 497.253859 -501.759053 
L 498.704039 -501.759053 
L 500.154218 -501.759053 
L 501.604397 -501.759053 
L 503.054577 -501.759053 
L 504.504756 -501.759053 
L 505.954935 -501.759053 
L 507.405115 -501.759053 
L 508.855294 -501.759053 
L 510.305473 -501.759053 
L 511.755653 -501.759053 
L 513.205832 -501.759053 
L 514.656011 -501.759053 
L 516.106191 -501.759053 
L 517.55637 -501.759053 
L 519.006549 -501.759053 
L 520.456729 -501.759053 
L 521.906908 -501.759053 
L 523.357087 -501.759053 
L 524.807266 -501.759053 
L 526.257446 -501.759053 
L 527.707625 -501.759053 
L 529.157804 -501.759053 
L 530.607984 -501.759053 
L 532.058163 -501.759053 
L 533.508342 -501.759053 
L 534.958522 -501.759053 
L 536.408701 -501.759053 
L 537.85888 -501.759053 
L 539.30906 -501.759053 
L 540.759239 -501.759053 
L 542.209418 -501.759053 
L 543.659598 -501.759053 
L 545.109777 -501.759053 
L 546.559956 -501.759053 
L 548.010136 -501.759053 
L 549.460315 -501.759053 
L 550.910494 -501.759053 
L 552.360674 -501.759053 
L 553.810853 -501.759053 
L 555.261032 -501.759053 
L 556.711212 -501.759053 
L 558.161391 -501.759053 
L 559.61157 -501.759053 
L 561.06175 -501.759053 
L 562.511929 -501.759053 
L 563.962108 -501.759053 
L 565.412288 -501.759053 
L 566.862467 -501.759053 
L 568.312646 -501.759053 
L 569.762826 -501.759053 
L 571.213005 -501.759053 
L 572.663184 -501.759053 
L 574.113363 -501.759053 
L 575.563543 -501.759053 
L 577.013722 -501.759053 
L 578.463901 -501.759053 
L 579.914081 -501.759053 
L 581.36426 -501.759053 
L 582.814439 -501.759053 
L 584.264619 -501.759053 
L 585.714798 -501.759053 
L 587.164977 -501.759053 
L 588.615157 -501.759053 
L 590.065336 -501.759053 
L 591.515515 -501.759053 
L 592.965695 -501.759053 
L 594.415874 -501.759053 
L 595.866053 -501.759053 
L 597.316233 -501.759053 
L 598.766412 -501.759053 
L 600.216591 -501.759053 
L 601.666771 -501.759053 
L 603.11695 -501.759053 
L 604.567129 -501.759053 
L 606.017309 -501.759053 
L 607.467488 -501.759053 
L 608.917667 -501.759053 
L 610.367847 -501.759053 
L 611.818026 -501.759053 
L 613.268205 -501.759053 
L 614.718385 -501.759053 
L 616.168564 -501.759053 
L 617.618743 -501.759053 
L 619.068923 -501.759053 
L 620.519102 -501.759053 
L 621.969281 -501.759053 
L 623.41946 -501.759053 
L 624.86964 -501.759053 
L 626.319819 -501.759053 
L 627.769998 -501.759053 
L 629.220178 -501.759053 
L 630.670357 -501.759053 
L 632.120536 -501.759053 
L 633.570716 -501.759053 
L 635.020895 -501.759053 
L 636.471074 -501.759053 
L 636.471074 -501.759053 
L 636.471074 -501.759053 
L 635.020895 -501.759053 
L 633.570716 -501.759053 
L 632.120536 -501.759053 
L 630.670357 -501.759053 
L 629.220178 -501.759053 
L 627.769998 -501.759053 
L 626.319819 -501.759053 
L 624.86964 -501.759053 
L 623.41946 -501.759053 
L 621.969281 -501.759053 
L 620.519102 -501.759053 
L 619.068923 -501.759053 
L 617.618743 -501.759053 
L 616.168564 -501.759053 
L 614.718385 -501.759053 
L 613.268205 -501.759053 
L 611.818026 -501.759053 
L 610.367847 -501.759053 
L 608.917667 -501.759053 
L 607.467488 -501.759053 
L 606.017309 -501.759053 
L 604.567129 -501.759053 
L 603.11695 -501.759053 
L 601.666771 -501.759053 
L 600.216591 -501.759053 
L 598.766412 -501.759053 
L 597.316233 -501.759053 
L 595.866053 -501.759053 
L 594.415874 -501.759053 
L 592.965695 -501.759053 
L 591.515515 -501.759053 
L 590.065336 -501.759053 
L 588.615157 -501.759053 
L 587.164977 -501.759053 
L 585.714798 -501.759053 
L 584.264619 -501.759053 
L 582.814439 -501.759053 
L 581.36426 -501.759053 
L 579.914081 -501.759053 
L 578.463901 -501.759053 
L 577.013722 -501.759053 
L 575.563543 -501.759053 
L 574.113363 -501.759053 
L 572.663184 -501.759053 
L 571.213005 -501.759053 
L 569.762826 -501.759053 
L 568.312646 -501.759053 
L 566.862467 -501.759053 
L 565.412288 -501.759053 
L 563.962108 -501.759053 
L 562.511929 -501.759053 
L 561.06175 -501.759053 
L 559.61157 -501.759053 
L 558.161391 -501.759053 
L 556.711212 -501.759053 
L 555.261032 -501.759053 
L 553.810853 -501.759053 
L 552.360674 -501.759053 
L 550.910494 -501.759053 
L 549.460315 -501.759053 
L 548.010136 -501.759053 
L 546.559956 -501.759053 
L 545.109777 -501.759053 
L 543.659598 -501.759053 
L 542.209418 -501.759053 
L 540.759239 -501.759053 
L 539.30906 -501.759053 
L 537.85888 -501.759053 
L 536.408701 -501.759053 
L 534.958522 -501.759053 
L 533.508342 -501.759053 
L 532.058163 -501.759053 
L 530.607984 -501.759053 
L 529.157804 -501.759053 
L 527.707625 -501.759053 
L 526.257446 -501.759053 
L 524.807266 -501.759053 
L 523.357087 -501.759053 
L 521.906908 -501.759053 
L 520.456729 -501.759053 
L 519.006549 -501.759053 
L 517.55637 -501.759053 
L 516.106191 -501.759053 
L 514.656011 -501.759053 
L 513.205832 -501.759053 
L 511.755653 -501.759053 
L 510.305473 -501.759053 
L 508.855294 -501.759053 
L 507.405115 -501.759053 
L 505.954935 -501.759053 
L 504.504756 -501.759053 
L 503.054577 -501.759053 
L 501.604397 -501.759053 
L 500.154218 -501.759053 
L 498.704039 -501.759053 
L 497.253859 -501.759053 
L 495.80368 -501.759053 
L 494.353501 -501.759053 
L 492.903321 -501.759053 
L 491.453142 -501.759053 
L 490.002963 -501.759053 
L 488.552783 -501.759053 
L 487.102604 -501.759053 
L 485.652425 -501.759053 
L 484.202245 -501.759053 
L 482.752066 -501.759053 
L 481.301887 -501.759053 
L 479.851707 -501.759053 
L 478.401528 -501.759053 
L 476.951349 -501.759053 
L 475.501169 -501.759053 
L 474.05099 -501.759053 
L 472.600811 -501.759053 
L 471.150632 -501.759053 
L 469.700452 -501.759053 
L 468.250273 -501.759053 
L 466.800094 -501.759053 
L 465.349914 -501.759053 
L 463.899735 -501.759053 
L 462.449556 -501.759053 
L 460.999376 -501.759053 
L 459.549197 -501.759053 
L 458.099018 -501.759053 
L 456.648838 -501.759053 
L 455.198659 -501.759053 
L 453.74848 -501.759053 
L 452.2983 -501.759053 
L 450.848121 -501.759053 
L 449.397942 -501.759053 
L 447.947762 -501.759053 
L 446.497583 -501.759053 
L 445.047404 -501.759053 
L 443.597224 -501.759053 
L 442.147045 -501.759053 
L 440.696866 -501.759053 
L 439.246686 -501.759053 
L 437.796507 -501.759053 
L 436.346328 -501.759053 
L 434.896148 -501.759053 
L 433.445969 -501.759053 
L 431.99579 -501.759053 
L 430.54561 -501.759053 
L 429.095431 -501.759053 
L 427.645252 -501.759053 
L 426.195073 -501.759053 
L 424.744893 -501.759053 
L 423.294714 -501.759053 
L 421.844535 -501.759053 
L 420.394355 -501.759053 
L 418.944176 -501.759053 
L 417.493997 -501.759053 
L 416.043817 -501.759053 
L 414.593638 -501.759053 
L 413.143459 -501.759053 
L 411.693279 -501.759053 
L 410.2431 -501.759053 
L 408.792921 -501.759053 
L 407.342741 -501.759053 
L 405.892562 -501.759053 
z
" style="stroke: #1f77b4; stroke-opacity: 0.2"/>
    </defs>
    <g clip-path="url(#paf1b37c176)">
     <use xlink:href="#md25e308789" x="0" y="720" style="fill: #1f77b4; fill-opacity: 0.2; stroke: #1f77b4; stroke-opacity: 0.2"/>
    </g>
   </g>
   <g id="PolyCollection_3">
    <defs>
     <path id="mf087c579b7" d="M 405.892562 -501.759053 
L 405.892562 -501.759053 
L 407.342741 -501.759053 
L 408.792921 -501.759053 
L 410.2431 -501.759053 
L 411.693279 -501.759053 
L 413.143459 -501.759053 
L 414.593638 -501.759053 
L 416.043817 -501.759053 
L 417.493997 -501.759053 
L 418.944176 -501.759053 
L 420.394355 -501.759053 
L 421.844535 -501.759053 
L 423.294714 -501.759053 
L 424.744893 -501.759053 
L 426.195073 -501.759053 
L 427.645252 -501.759053 
L 429.095431 -501.759053 
L 430.54561 -501.759053 
L 431.99579 -501.759053 
L 433.445969 -501.759053 
L 434.896148 -501.759053 
L 436.346328 -501.759053 
L 437.796507 -501.759053 
L 439.246686 -501.759053 
L 440.696866 -501.759053 
L 442.147045 -501.759053 
L 443.597224 -501.759053 
L 445.047404 -501.759053 
L 446.497583 -501.759053 
L 447.947762 -501.759053 
L 449.397942 -501.759053 
L 450.848121 -501.759053 
L 452.2983 -501.759053 
L 453.74848 -501.759053 
L 455.198659 -501.759053 
L 456.648838 -501.759053 
L 458.099018 -501.759053 
L 459.549197 -501.759053 
L 460.999376 -501.759053 
L 462.449556 -501.759053 
L 463.899735 -501.759053 
L 465.349914 -501.759053 
L 466.800094 -501.759053 
L 468.250273 -501.759053 
L 469.700452 -501.759053 
L 471.150632 -501.759053 
L 472.600811 -501.757304 
L 474.05099 -501.747648 
L 475.501169 -501.701137 
L 476.951349 -501.529991 
L 478.401528 -501.053494 
L 479.851707 -500.066505 
L 481.301887 -498.596957 
L 482.752066 -497.158231 
L 484.202245 -492.121701 
L 485.652425 -497.158231 
L 487.102604 -498.596957 
L 488.552783 -500.066505 
L 490.002963 -501.053494 
L 491.453142 -501.529991 
L 492.903321 -501.701137 
L 494.353501 -501.74612 
L 495.80368 -501.747338 
L 497.253859 -501.708442 
L 498.704039 -501.558884 
L 500.154218 -501.142489 
L 501.604397 -500.279994 
L 503.054577 -498.993433 
L 504.504756 -497.723068 
L 505.954935 -493.419064 
L 507.405115 -497.425642 
L 508.855294 -498.023664 
L 510.305473 -497.904812 
L 511.755653 -496.523782 
L 513.205832 -494.219919 
L 514.656011 -487.522626 
L 516.106191 -489.183704 
L 517.55637 -486.460333 
L 519.006549 -480.16568 
L 520.456729 -478.734119 
L 521.906908 -479.414848 
L 523.357087 -489.173322 
L 524.807266 -494.15556 
L 526.257446 -498.070326 
L 527.707625 -500.332796 
L 529.157804 -501.321701 
L 530.607984 -501.653187 
L 532.058163 -501.739111 
L 533.508342 -501.756285 
L 534.958522 -501.759053 
L 536.408701 -501.759053 
L 537.85888 -501.759053 
L 539.30906 -501.759053 
L 540.759239 -501.759053 
L 542.209418 -501.759053 
L 543.659598 -501.759053 
L 545.109777 -501.759053 
L 546.559956 -501.759053 
L 548.010136 -501.759053 
L 549.460315 -501.759053 
L 550.910494 -501.759053 
L 552.360674 -501.759053 
L 553.810853 -501.759053 
L 555.261032 -501.759053 
L 556.711212 -501.759053 
L 558.161391 -501.759053 
L 559.61157 -501.759053 
L 561.06175 -501.759053 
L 562.511929 -501.759053 
L 563.962108 -501.759053 
L 565.412288 -501.759053 
L 566.862467 -501.759053 
L 568.312646 -501.759053 
L 569.762826 -501.759053 
L 571.213005 -501.759053 
L 572.663184 -501.762544 
L 574.113363 -501.784539 
L 575.563543 -501.8924 
L 577.013722 -502.308208 
L 578.463901 -503.535669 
L 579.914081 -506.295826 
L 581.36426 -510.944807 
L 582.814439 -516.606185 
L 584.264619 -514.685498 
L 585.714798 -517.11148 
L 587.164977 -520.106012 
L 588.615157 -511.923818 
L 590.065336 -510.683753 
L 591.515515 -506.671063 
L 592.965695 -504.028274 
L 594.415874 -502.621209 
L 595.866053 -502.028041 
L 597.316233 -501.857346 
L 598.766412 -501.951134 
L 600.216591 -502.508212 
L 601.666771 -504.205602 
L 603.11695 -508.081447 
L 604.567129 -514.716277 
L 606.017309 -522.997306 
L 607.467488 -521.339095 
L 608.917667 -524.065257 
L 610.367847 -534.973454 
L 611.818026 -535.722449 
L 613.268205 -529.173715 
L 614.718385 -530.810908 
L 616.168564 -527.584505 
L 617.618743 -529.03439 
L 619.068923 -517.114158 
L 620.519102 -512.181165 
L 621.969281 -510.116373 
L 623.41946 -506.056514 
L 624.86964 -503.599765 
L 626.319819 -502.401702 
L 627.769998 -501.939508 
L 629.220178 -501.799227 
L 630.670357 -501.766263 
L 632.120536 -501.75978 
L 633.570716 -501.759053 
L 635.020895 -501.759053 
L 636.471074 -501.759053 
L 636.471074 -501.759053 
L 636.471074 -501.759053 
L 635.020895 -501.759053 
L 633.570716 -501.759053 
L 632.120536 -501.75978 
L 630.670357 -501.766263 
L 629.220178 -501.799227 
L 627.769998 -501.939508 
L 626.319819 -502.401702 
L 624.86964 -503.599765 
L 623.41946 -506.056514 
L 621.969281 -510.116373 
L 620.519102 -519.206895 
L 619.068923 -527.473968 
L 617.618743 -529.03439 
L 616.168564 -541.409535 
L 614.718385 -543.578957 
L 613.268205 -544.845831 
L 611.818026 -535.722449 
L 610.367847 -534.973454 
L 608.917667 -543.747715 
L 607.467488 -538.917583 
L 606.017309 -522.997306 
L 604.567129 -514.716277 
L 603.11695 -508.081447 
L 601.666771 -504.205602 
L 600.216591 -502.508212 
L 598.766412 -501.951134 
L 597.316233 -501.857346 
L 595.866053 -502.028041 
L 594.415874 -502.621209 
L 592.965695 -504.028274 
L 591.515515 -506.671063 
L 590.065336 -510.683753 
L 588.615157 -519.251723 
L 587.164977 -520.106012 
L 585.714798 -527.692362 
L 584.264619 -527.539494 
L 582.814439 -516.606185 
L 581.36426 -510.944807 
L 579.914081 -506.295826 
L 578.463901 -503.535669 
L 577.013722 -502.308208 
L 575.563543 -501.8924 
L 574.113363 -501.784539 
L 572.663184 -501.762544 
L 571.213005 -501.759053 
L 569.762826 -501.759053 
L 568.312646 -501.759053 
L 566.862467 -501.759053 
L 565.412288 -501.759053 
L 563.962108 -501.759053 
L 562.511929 -501.759053 
L 561.06175 -501.759053 
L 559.61157 -501.759053 
L 558.161391 -501.759053 
L 556.711212 -501.759053 
L 555.261032 -501.759053 
L 553.810853 -501.759053 
L 552.360674 -501.759053 
L 550.910494 -501.759053 
L 549.460315 -501.759053 
L 548.010136 -501.759053 
L 546.559956 -501.759053 
L 545.109777 -501.759053 
L 543.659598 -501.759053 
L 542.209418 -501.759053 
L 540.759239 -501.759053 
L 539.30906 -501.759053 
L 537.85888 -501.759053 
L 536.408701 -501.759053 
L 534.958522 -501.759053 
L 533.508342 -501.756285 
L 532.058163 -501.739111 
L 530.607984 -501.653187 
L 529.157804 -501.321701 
L 527.707625 -500.332796 
L 526.257446 -498.070326 
L 524.807266 -494.15556 
L 523.357087 -489.173322 
L 521.906908 -490.282093 
L 520.456729 -487.2157 
L 519.006549 -487.67801 
L 517.55637 -486.460333 
L 516.106191 -489.183704 
L 514.656011 -495.876128 
L 513.205832 -494.219919 
L 511.755653 -496.523782 
L 510.305473 -497.904812 
L 508.855294 -498.023664 
L 507.405115 -497.425642 
L 505.954935 -500.830108 
L 504.504756 -497.723068 
L 503.054577 -498.993433 
L 501.604397 -500.279994 
L 500.154218 -501.142489 
L 498.704039 -501.558884 
L 497.253859 -501.708442 
L 495.80368 -501.747338 
L 494.353501 -501.74612 
L 492.903321 -501.701137 
L 491.453142 -501.529991 
L 490.002963 -501.053494 
L 488.552783 -500.066505 
L 487.102604 -498.596957 
L 485.652425 -497.158231 
L 484.202245 -500.969577 
L 482.752066 -497.158231 
L 481.301887 -498.596957 
L 479.851707 -500.066505 
L 478.401528 -501.053494 
L 476.951349 -501.529991 
L 475.501169 -501.701137 
L 474.05099 -501.747648 
L 472.600811 -501.757304 
L 471.150632 -501.759053 
L 469.700452 -501.759053 
L 468.250273 -501.759053 
L 466.800094 -501.759053 
L 465.349914 -501.759053 
L 463.899735 -501.759053 
L 462.449556 -501.759053 
L 460.999376 -501.759053 
L 459.549197 -501.759053 
L 458.099018 -501.759053 
L 456.648838 -501.759053 
L 455.198659 -501.759053 
L 453.74848 -501.759053 
L 452.2983 -501.759053 
L 450.848121 -501.759053 
L 449.397942 -501.759053 
L 447.947762 -501.759053 
L 446.497583 -501.759053 
L 445.047404 -501.759053 
L 443.597224 -501.759053 
L 442.147045 -501.759053 
L 440.696866 -501.759053 
L 439.246686 -501.759053 
L 437.796507 -501.759053 
L 436.346328 -501.759053 
L 434.896148 -501.759053 
L 433.445969 -501.759053 
L 431.99579 -501.759053 
L 430.54561 -501.759053 
L 429.095431 -501.759053 
L 427.645252 -501.759053 
L 426.195073 -501.759053 
L 424.744893 -501.759053 
L 423.294714 -501.759053 
L 421.844535 -501.759053 
L 420.394355 -501.759053 
L 418.944176 -501.759053 
L 417.493997 -501.759053 
L 416.043817 -501.759053 
L 414.593638 -501.759053 
L 413.143459 -501.759053 
L 411.693279 -501.759053 
L 410.2431 -501.759053 
L 408.792921 -501.759053 
L 407.342741 -501.759053 
L 405.892562 -501.759053 
z
" style="stroke: #d62728; stroke-opacity: 0.2"/>
    </defs>
    <g clip-path="url(#paf1b37c176)">
     <use xlink:href="#mf087c579b7" x="0" y="720" style="fill: #d62728; fill-opacity: 0.2; stroke: #d62728; stroke-opacity: 0.2"/>
    </g>
   </g>
   <g id="PolyCollection_4">
    <defs>
     <path id="mad3c0a2851" d="M 405.892562 -447.732843 
L 405.892562 -440.489509 
L 407.342741 -438.818057 
L 408.792921 -436.696826 
L 410.2431 -436.40622 
L 411.693279 -441.871716 
L 413.143459 -453.128065 
L 414.593638 -469.867963 
L 416.043817 -481.609252 
L 417.493997 -487.925073 
L 418.944176 -488.389523 
L 420.394355 -485.948057 
L 421.844535 -481.043906 
L 423.294714 -486.855689 
L 424.744893 -491.539453 
L 426.195073 -496.291929 
L 427.645252 -499.480016 
L 429.095431 -501.019158 
L 430.54561 -501.571978 
L 431.99579 -501.722215 
L 433.445969 -501.753403 
L 434.896148 -501.759053 
L 436.346328 -501.759053 
L 437.796507 -501.759053 
L 439.246686 -501.759053 
L 440.696866 -501.759053 
L 442.147045 -501.759053 
L 443.597224 -501.753243 
L 445.047404 -501.721167 
L 446.497583 -501.56036 
L 447.947762 -500.951001 
L 449.397942 -499.16063 
L 450.848121 -495.062226 
L 452.2983 -487.657192 
L 453.74848 -476.82722 
L 455.198659 -460.174016 
L 456.648838 -449.102739 
L 458.099018 -429.734503 
L 459.549197 -417.357806 
L 460.999376 -410.816242 
L 462.449556 -409.80783 
L 463.899735 -414.022969 
L 465.349914 -420.521033 
L 466.800094 -428.792319 
L 468.250273 -438.570524 
L 469.700452 -446.888136 
L 471.150632 -455.569121 
L 472.600811 -463.744016 
L 474.05099 -471.478715 
L 475.501169 -479.007894 
L 476.951349 -490.925109 
L 478.401528 -496.052551 
L 479.851707 -499.256405 
L 481.301887 -500.85799 
L 482.752066 -501.472565 
L 484.202245 -501.555955 
L 485.652425 -501.154094 
L 487.102604 -499.809698 
L 488.552783 -496.674255 
L 490.002963 -491.090014 
L 491.453142 -483.500573 
L 492.903321 -472.089692 
L 494.353501 -465.03353 
L 495.80368 -460.524843 
L 497.253859 -459.211218 
L 498.704039 -458.449437 
L 500.154218 -459.408476 
L 501.604397 -461.30275 
L 503.054577 -466.226616 
L 504.504756 -473.506579 
L 505.954935 -486.90276 
L 507.405115 -494.445721 
L 508.855294 -500.880291 
L 510.305473 -506.587319 
L 511.755653 -512.106253 
L 513.205832 -511.563414 
L 514.656011 -520.866567 
L 516.106191 -516.410084 
L 517.55637 -514.998496 
L 519.006549 -514.618157 
L 520.456729 -509.41892 
L 521.906908 -505.508566 
L 523.357087 -503.549344 
L 524.807266 -503.501139 
L 526.257446 -505.345627 
L 527.707625 -509.058995 
L 529.157804 -513.790986 
L 530.607984 -510.775705 
L 532.058163 -511.407603 
L 533.508342 -515.009779 
L 534.958522 -510.287415 
L 536.408701 -506.08271 
L 537.85888 -503.4831 
L 539.30906 -502.300873 
L 540.759239 -501.906812 
L 542.209418 -501.866843 
L 543.659598 -502.111611 
L 545.109777 -502.931294 
L 546.559956 -504.887396 
L 548.010136 -508.412938 
L 549.460315 -513.073997 
L 550.910494 -512.129568 
L 552.360674 -512.648495 
L 553.810853 -510.884422 
L 555.261032 -512.308558 
L 556.711212 -507.797069 
L 558.161391 -504.644099 
L 559.61157 -503.207487 
L 561.06175 -503.125518 
L 562.511929 -503.835378 
L 563.962108 -504.694207 
L 565.412288 -500.171105 
L 566.862467 -504.68209 
L 568.312646 -503.768025 
L 569.762826 -502.834378 
L 571.213005 -502.207315 
L 572.663184 -501.904582 
L 574.113363 -501.795848 
L 575.563543 -501.766298 
L 577.013722 -501.760164 
L 578.463901 -501.759053 
L 579.914081 -501.757879 
L 581.36426 -501.751398 
L 582.814439 -501.720181 
L 584.264619 -501.605313 
L 585.714798 -501.285501 
L 587.164977 -500.623061 
L 588.615157 -499.636742 
L 590.065336 -498.671109 
L 591.515515 -493.058217 
L 592.965695 -498.671109 
L 594.415874 -499.636033 
L 595.866053 -500.618437 
L 597.316233 -501.262017 
L 598.766412 -501.510293 
L 600.216591 -501.417713 
L 601.666771 -500.978433 
L 603.11695 -500.115161 
L 604.567129 -498.712668 
L 606.017309 -493.46018 
L 607.467488 -493.663424 
L 608.917667 -490.390353 
L 610.367847 -485.24513 
L 611.818026 -485.286468 
L 613.268205 -489.231988 
L 614.718385 -491.057355 
L 616.168564 -491.966373 
L 617.618743 -488.327894 
L 619.068923 -491.873526 
L 620.519102 -492.096088 
L 621.969281 -489.157592 
L 623.41946 -493.549777 
L 624.86964 -494.101348 
L 626.319819 -494.340341 
L 627.769998 -492.24939 
L 629.220178 -496.110817 
L 630.670357 -497.994197 
L 632.120536 -499.766636 
L 633.570716 -500.931981 
L 635.020895 -501.489156 
L 636.471074 -501.677994 
L 636.471074 -501.677994 
L 636.471074 -501.677994 
L 635.020895 -501.489156 
L 633.570716 -500.931981 
L 632.120536 -499.766636 
L 630.670357 -497.994197 
L 629.220178 -496.110817 
L 627.769998 -497.408281 
L 626.319819 -494.340341 
L 624.86964 -494.101348 
L 623.41946 -493.549777 
L 621.969281 -496.326326 
L 620.519102 -492.096088 
L 619.068923 -491.873526 
L 617.618743 -495.667787 
L 616.168564 -491.966373 
L 614.718385 -491.057355 
L 613.268205 -489.231988 
L 611.818026 -490.149243 
L 610.367847 -490.805297 
L 608.917667 -490.390353 
L 607.467488 -493.663424 
L 606.017309 -499.727381 
L 604.567129 -498.712668 
L 603.11695 -500.115161 
L 601.666771 -500.978433 
L 600.216591 -501.417713 
L 598.766412 -501.510293 
L 597.316233 -501.262017 
L 595.866053 -500.618437 
L 594.415874 -499.636033 
L 592.965695 -498.671109 
L 591.515515 -503.46169 
L 590.065336 -498.671109 
L 588.615157 -499.636742 
L 587.164977 -500.623061 
L 585.714798 -501.285501 
L 584.264619 -501.605313 
L 582.814439 -501.720181 
L 581.36426 -501.751398 
L 579.914081 -501.757879 
L 578.463901 -501.759053 
L 577.013722 -501.760164 
L 575.563543 -501.766298 
L 574.113363 -501.795848 
L 572.663184 -501.904582 
L 571.213005 -502.207315 
L 569.762826 -502.834378 
L 568.312646 -503.768025 
L 566.862467 -504.68209 
L 565.412288 -509.974356 
L 563.962108 -504.694207 
L 562.511929 -503.835378 
L 561.06175 -503.125518 
L 559.61157 -503.207487 
L 558.161391 -504.644099 
L 556.711212 -507.797069 
L 555.261032 -512.308558 
L 553.810853 -522.396627 
L 552.360674 -524.656908 
L 550.910494 -522.239269 
L 549.460315 -513.073997 
L 548.010136 -508.412938 
L 546.559956 -504.887396 
L 545.109777 -502.931294 
L 543.659598 -502.111611 
L 542.209418 -501.866843 
L 540.759239 -501.906812 
L 539.30906 -502.300873 
L 537.85888 -503.4831 
L 536.408701 -506.08271 
L 534.958522 -510.287415 
L 533.508342 -515.009779 
L 532.058163 -524.590882 
L 530.607984 -524.182789 
L 529.157804 -513.790986 
L 527.707625 -509.058995 
L 526.257446 -505.345627 
L 524.807266 -503.501139 
L 523.357087 -503.549344 
L 521.906908 -505.508566 
L 520.456729 -509.41892 
L 519.006549 -514.618157 
L 517.55637 -523.772902 
L 516.106191 -527.124808 
L 514.656011 -520.866567 
L 513.205832 -522.877399 
L 511.755653 -512.106253 
L 510.305473 -506.587319 
L 508.855294 -500.880291 
L 507.405115 -494.445721 
L 505.954935 -486.90276 
L 504.504756 -484.309258 
L 503.054577 -477.662493 
L 501.604397 -473.166283 
L 500.154218 -470.514106 
L 498.704039 -470.408548 
L 497.253859 -470.552115 
L 495.80368 -472.182777 
L 494.353501 -474.438949 
L 492.903321 -479.320833 
L 491.453142 -483.500573 
L 490.002963 -491.090014 
L 488.552783 -496.674255 
L 487.102604 -499.809698 
L 485.652425 -501.154094 
L 484.202245 -501.555955 
L 482.752066 -501.472565 
L 481.301887 -500.85799 
L 479.851707 -499.256405 
L 478.401528 -496.052551 
L 476.951349 -490.925109 
L 475.501169 -489.381506 
L 474.05099 -481.778729 
L 472.600811 -473.867954 
L 471.150632 -465.930242 
L 469.700452 -457.514899 
L 468.250273 -447.726543 
L 466.800094 -439.329148 
L 465.349914 -431.098007 
L 463.899735 -424.987065 
L 462.449556 -423.050627 
L 460.999376 -424.862569 
L 459.549197 -431.385871 
L 458.099018 -441.039031 
L 456.648838 -449.102739 
L 455.198659 -466.808337 
L 453.74848 -476.82722 
L 452.2983 -487.657192 
L 450.848121 -495.062226 
L 449.397942 -499.16063 
L 447.947762 -500.951001 
L 446.497583 -501.56036 
L 445.047404 -501.721167 
L 443.597224 -501.753243 
L 442.147045 -501.759053 
L 440.696866 -501.759053 
L 439.246686 -501.759053 
L 437.796507 -501.759053 
L 436.346328 -501.759053 
L 434.896148 -501.759053 
L 433.445969 -501.753403 
L 431.99579 -501.722215 
L 430.54561 -501.571978 
L 429.095431 -501.019158 
L 427.645252 -499.480016 
L 426.195073 -496.291929 
L 424.744893 -491.539453 
L 423.294714 -486.855689 
L 421.844535 -488.341507 
L 420.394355 -485.948057 
L 418.944176 -488.389523 
L 417.493997 -487.925073 
L 416.043817 -481.609252 
L 414.593638 -469.867963 
L 413.143459 -459.73862 
L 411.693279 -450.002458 
L 410.2431 -445.38391 
L 408.792921 -444.515945 
L 407.342741 -446.182749 
L 405.892562 -447.732843 
z
" style="stroke: #ff7f0e; stroke-opacity: 0.2"/>
    </defs>
    <g clip-path="url(#paf1b37c176)">
     <use xlink:href="#mad3c0a2851" x="0" y="720" style="fill: #ff7f0e; fill-opacity: 0.2; stroke: #ff7f0e; stroke-opacity: 0.2"/>
    </g>
   </g>
   <g id="matplotlib.axis_3">
    <g id="xtick_7">
     <g id="line2d_13">
      <g>
       <use xlink:href="#mc1de55f8b0" x="405.863558" y="333.490909" style="stroke: #000000; stroke-width: 0.8"/>
      </g>
     </g>
     <g id="text_13">
      <!-- 0 -->
      <g transform="translate(402.682308 348.089347)scale(0.1 -0.1)">
       <use xlink:href="#DejaVuSans-30"/>
      </g>
     </g>
    </g>
    <g id="xtick_8">
     <g id="line2d_14">
      <g>
       <use xlink:href="#mc1de55f8b0" x="463.870731" y="333.490909" style="stroke: #000000; stroke-width: 0.8"/>
      </g>
     </g>
     <g id="text_14">
      <!-- 2000 -->
      <g transform="translate(451.145731 348.089347)scale(0.1 -0.1)">
       <use xlink:href="#DejaVuSans-32"/>
       <use xlink:href="#DejaVuSans-30" x="63.623047"/>
       <use xlink:href="#DejaVuSans-30" x="127.246094"/>
       <use xlink:href="#DejaVuSans-30" x="190.869141"/>
      </g>
     </g>
    </g>
    <g id="xtick_9">
     <g id="line2d_15">
      <g>
       <use xlink:href="#mc1de55f8b0" x="521.877904" y="333.490909" style="stroke: #000000; stroke-width: 0.8"/>
      </g>
     </g>
     <g id="text_15">
      <!-- 4000 -->
      <g transform="translate(509.152904 348.089347)scale(0.1 -0.1)">
       <use xlink:href="#DejaVuSans-34"/>
       <use xlink:href="#DejaVuSans-30" x="63.623047"/>
       <use xlink:href="#DejaVuSans-30" x="127.246094"/>
       <use xlink:href="#DejaVuSans-30" x="190.869141"/>
      </g>
     </g>
    </g>
    <g id="xtick_10">
     <g id="line2d_16">
      <g>
       <use xlink:href="#mc1de55f8b0" x="579.885077" y="333.490909" style="stroke: #000000; stroke-width: 0.8"/>
      </g>
     </g>
     <g id="text_16">
      <!-- 6000 -->
      <g transform="translate(567.160077 348.089347)scale(0.1 -0.1)">
       <use xlink:href="#DejaVuSans-36"/>
       <use xlink:href="#DejaVuSans-30" x="63.623047"/>
       <use xlink:href="#DejaVuSans-30" x="127.246094"/>
       <use xlink:href="#DejaVuSans-30" x="190.869141"/>
      </g>
     </g>
    </g>
    <g id="xtick_11">
     <g id="line2d_17">
      <g>
       <use xlink:href="#mc1de55f8b0" x="637.89225" y="333.490909" style="stroke: #000000; stroke-width: 0.8"/>
      </g>
     </g>
     <g id="text_17">
      <!-- 8000 -->
      <g transform="translate(625.16725 348.089347)scale(0.1 -0.1)">
       <use xlink:href="#DejaVuSans-38"/>
       <use xlink:href="#DejaVuSans-30" x="63.623047"/>
       <use xlink:href="#DejaVuSans-30" x="127.246094"/>
       <use xlink:href="#DejaVuSans-30" x="190.869141"/>
      </g>
     </g>
    </g>
   </g>
   <g id="matplotlib.axis_4">
    <g id="ytick_7">
     <g id="line2d_18">
      <g>
       <use xlink:href="#m21e4adbd1f" x="394.363636" y="333.292241" style="stroke: #000000; stroke-width: 0.8"/>
      </g>
     </g>
     <g id="text_18">
      <!-- −10.0 -->
      <g transform="translate(356.718324 337.09146)scale(0.1 -0.1)">
       <defs>
        <path id="DejaVuSans-2212" d="M 678 2272 
L 4684 2272 
L 4684 1741 
L 678 1741 
L 678 2272 
z
" transform="scale(0.015625)"/>
       </defs>
       <use xlink:href="#DejaVuSans-2212"/>
       <use xlink:href="#DejaVuSans-31" x="83.789062"/>
       <use xlink:href="#DejaVuSans-30" x="147.412109"/>
       <use xlink:href="#DejaVuSans-2e" x="211.035156"/>
       <use xlink:href="#DejaVuSans-30" x="242.822266"/>
      </g>
     </g>
    </g>
    <g id="ytick_8">
     <g id="line2d_19">
      <g>
       <use xlink:href="#m21e4adbd1f" x="394.363636" y="304.529418" style="stroke: #000000; stroke-width: 0.8"/>
      </g>
     </g>
     <g id="text_19">
      <!-- −7.5 -->
      <g transform="translate(363.080824 308.328637)scale(0.1 -0.1)">
       <defs>
        <path id="DejaVuSans-37" d="M 525 4666 
L 3525 4666 
L 3525 4397 
L 1831 0 
L 1172 0 
L 2766 4134 
L 525 4134 
L 525 4666 
z
" transform="scale(0.015625)"/>
        <path id="DejaVuSans-35" d="M 691 4666 
L 3169 4666 
L 3169 4134 
L 1269 4134 
L 1269 2991 
Q 1406 3038 1543 3061 
Q 1681 3084 1819 3084 
Q 2600 3084 3056 2656 
Q 3513 2228 3513 1497 
Q 3513 744 3044 326 
Q 2575 -91 1722 -91 
Q 1428 -91 1123 -41 
Q 819 9 494 109 
L 494 744 
Q 775 591 1075 516 
Q 1375 441 1709 441 
Q 2250 441 2565 725 
Q 2881 1009 2881 1497 
Q 2881 1984 2565 2268 
Q 2250 2553 1709 2553 
Q 1456 2553 1204 2497 
Q 953 2441 691 2322 
L 691 4666 
z
" transform="scale(0.015625)"/>
       </defs>
       <use xlink:href="#DejaVuSans-2212"/>
       <use xlink:href="#DejaVuSans-37" x="83.789062"/>
       <use xlink:href="#DejaVuSans-2e" x="147.412109"/>
       <use xlink:href="#DejaVuSans-35" x="179.199219"/>
      </g>
     </g>
    </g>
    <g id="ytick_9">
     <g id="line2d_20">
      <g>
       <use xlink:href="#m21e4adbd1f" x="394.363636" y="275.766594" style="stroke: #000000; stroke-width: 0.8"/>
      </g>
     </g>
     <g id="text_20">
      <!-- −5.0 -->
      <g transform="translate(363.080824 279.565813)scale(0.1 -0.1)">
       <use xlink:href="#DejaVuSans-2212"/>
       <use xlink:href="#DejaVuSans-35" x="83.789062"/>
       <use xlink:href="#DejaVuSans-2e" x="147.412109"/>
       <use xlink:href="#DejaVuSans-30" x="179.199219"/>
      </g>
     </g>
    </g>
    <g id="ytick_10">
     <g id="line2d_21">
      <g>
       <use xlink:href="#m21e4adbd1f" x="394.363636" y="247.003771" style="stroke: #000000; stroke-width: 0.8"/>
      </g>
     </g>
     <g id="text_21">
      <!-- −2.5 -->
      <g transform="translate(363.080824 250.80299)scale(0.1 -0.1)">
       <use xlink:href="#DejaVuSans-2212"/>
       <use xlink:href="#DejaVuSans-32" x="83.789062"/>
       <use xlink:href="#DejaVuSans-2e" x="147.412109"/>
       <use xlink:href="#DejaVuSans-35" x="179.199219"/>
      </g>
     </g>
    </g>
    <g id="ytick_11">
     <g id="line2d_22">
      <g>
       <use xlink:href="#m21e4adbd1f" x="394.363636" y="218.240947" style="stroke: #000000; stroke-width: 0.8"/>
      </g>
     </g>
     <g id="text_22">
      <!-- 0.0 -->
      <g transform="translate(371.460511 222.040166)scale(0.1 -0.1)">
       <use xlink:href="#DejaVuSans-30"/>
       <use xlink:href="#DejaVuSans-2e" x="63.623047"/>
       <use xlink:href="#DejaVuSans-30" x="95.410156"/>
      </g>
     </g>
    </g>
    <g id="ytick_12">
     <g id="line2d_23">
      <g>
       <use xlink:href="#m21e4adbd1f" x="394.363636" y="189.478124" style="stroke: #000000; stroke-width: 0.8"/>
      </g>
     </g>
     <g id="text_23">
      <!-- 2.5 -->
      <g transform="translate(371.460511 193.277343)scale(0.1 -0.1)">
       <use xlink:href="#DejaVuSans-32"/>
       <use xlink:href="#DejaVuSans-2e" x="63.623047"/>
       <use xlink:href="#DejaVuSans-35" x="95.410156"/>
      </g>
     </g>
    </g>
    <g id="ytick_13">
     <g id="line2d_24">
      <g>
       <use xlink:href="#m21e4adbd1f" x="394.363636" y="160.7153" style="stroke: #000000; stroke-width: 0.8"/>
      </g>
     </g>
     <g id="text_24">
      <!-- 5.0 -->
      <g transform="translate(371.460511 164.514519)scale(0.1 -0.1)">
       <use xlink:href="#DejaVuSans-35"/>
       <use xlink:href="#DejaVuSans-2e" x="63.623047"/>
       <use xlink:href="#DejaVuSans-30" x="95.410156"/>
      </g>
     </g>
    </g>
    <g id="ytick_14">
     <g id="line2d_25">
      <g>
       <use xlink:href="#m21e4adbd1f" x="394.363636" y="131.952477" style="stroke: #000000; stroke-width: 0.8"/>
      </g>
     </g>
     <g id="text_25">
      <!-- 7.5 -->
      <g transform="translate(371.460511 135.751696)scale(0.1 -0.1)">
       <use xlink:href="#DejaVuSans-37"/>
       <use xlink:href="#DejaVuSans-2e" x="63.623047"/>
       <use xlink:href="#DejaVuSans-35" x="95.410156"/>
      </g>
     </g>
    </g>
    <g id="ytick_15">
     <g id="line2d_26">
      <g>
       <use xlink:href="#m21e4adbd1f" x="394.363636" y="103.189653" style="stroke: #000000; stroke-width: 0.8"/>
      </g>
     </g>
     <g id="text_26">
      <!-- 10.0 -->
      <g transform="translate(365.098011 106.988872)scale(0.1 -0.1)">
       <use xlink:href="#DejaVuSans-31"/>
       <use xlink:href="#DejaVuSans-30" x="63.623047"/>
       <use xlink:href="#DejaVuSans-2e" x="127.246094"/>
       <use xlink:href="#DejaVuSans-30" x="159.033203"/>
      </g>
     </g>
    </g>
   </g>
   <g id="line2d_27">
    <path d="M 405.892562 217.905486 
L 407.342741 217.030331 
L 408.792921 214.178221 
L 410.2431 207.255064 
L 411.693279 194.176266 
L 413.143459 174.970663 
L 414.593638 153.29172 
L 416.043817 135.227777 
L 417.493997 125.873108 
L 418.944176 126.452163 
L 420.394355 133.995594 
L 421.844535 143.615623 
L 423.294714 151.849647 
L 424.744893 158.303751 
L 427.645252 169.875714 
L 429.095431 173.960413 
L 430.54561 174.04666 
L 431.99579 167.92104 
L 433.445969 154.939467 
L 436.346328 119.060866 
L 437.796507 105.670161 
L 439.246686 100.078066 
L 440.696866 102.242779 
L 442.147045 109.478772 
L 443.597224 118.107874 
L 445.047404 125.273646 
L 446.497583 130.090056 
L 447.947762 133.633528 
L 449.397942 137.937985 
L 450.848121 144.634521 
L 452.2983 154.009784 
L 458.099018 197.696591 
L 459.549197 206.319581 
L 460.999376 212.462732 
L 462.449556 215.966784 
L 463.899735 217.527062 
L 465.349914 218.064303 
L 466.800094 218.206975 
L 474.05099 218.240185 
L 476.951349 218.20559 
L 478.401528 218.086319 
L 479.851707 217.699312 
L 481.301887 216.713208 
L 482.752066 214.755201 
L 484.202245 211.78879 
L 485.652425 208.546545 
L 487.102604 206.440103 
L 488.552783 206.648473 
L 490.002963 209.097784 
L 491.453142 212.482185 
L 492.903321 215.359054 
L 494.353501 217.100052 
L 495.80368 217.884923 
L 497.253859 218.153619 
L 500.154218 218.238567 
L 519.006549 218.32139 
L 520.456729 218.559104 
L 521.906908 219.223685 
L 523.357087 220.613132 
L 524.807266 222.750835 
L 526.257446 225.139 
L 529.157804 229.45714 
L 530.607984 233.532758 
L 532.058163 240.966459 
L 534.958522 261.940854 
L 536.408701 269.956312 
L 537.85888 273.801841 
L 539.30906 273.803994 
L 540.759239 271.282983 
L 542.209418 267.507121 
L 545.109777 258.816689 
L 546.559956 253.872339 
L 548.010136 247.840171 
L 550.910494 233.545023 
L 552.360674 228.306462 
L 553.810853 226.225442 
L 555.261032 227.085965 
L 558.161391 232.036619 
L 559.61157 233.856614 
L 561.06175 235.066868 
L 562.511929 236.798496 
L 563.962108 241.211632 
L 565.412288 250.328344 
L 566.862467 264.098332 
L 568.312646 279.885155 
L 569.762826 294.230323 
L 571.213005 304.946032 
L 572.663184 311.516527 
L 574.113363 314.134025 
L 575.563543 312.883606 
L 577.013722 307.733637 
L 578.463901 298.884514 
L 579.914081 286.894391 
L 584.264619 242.996557 
L 585.714798 231.630538 
L 587.164977 224.269685 
L 588.615157 220.458665 
L 590.065336 218.909745 
L 591.515515 218.467285 
L 592.965695 218.574573 
L 594.415874 219.266575 
L 595.866053 220.967021 
L 597.316233 224.072937 
L 600.216591 232.459096 
L 601.666771 234.746531 
L 603.11695 234.144585 
L 604.567129 231.017186 
L 606.017309 226.792172 
L 607.467488 222.980924 
L 608.917667 220.396387 
L 610.367847 219.03659 
L 611.818026 218.47703 
L 613.268205 218.295637 
L 617.618743 218.115571 
L 619.068923 217.854762 
L 620.519102 217.314537 
L 623.41946 215.722704 
L 624.86964 215.387404 
L 626.319819 215.722704 
L 629.220178 217.314537 
L 630.670357 217.854762 
L 632.120536 218.115571 
L 635.020895 218.234705 
L 636.471074 218.23999 
L 636.471074 218.23999 
" clip-path="url(#paf1b37c176)" style="fill: none; stroke: #9467bd; stroke-width: 2; stroke-linecap: square"/>
   </g>
   <g id="line2d_28">
    <path d="M 405.892562 218.240947 
L 636.471074 218.240947 
L 636.471074 218.240947 
" clip-path="url(#paf1b37c176)" style="fill: none; stroke: #1f77b4; stroke-width: 2; stroke-linecap: square"/>
   </g>
   <g id="line2d_29">
    <path d="M 405.892562 218.240947 
L 475.501169 218.298863 
L 476.951349 218.470009 
L 478.401528 218.946506 
L 479.851707 219.933495 
L 482.752066 222.841769 
L 484.202245 223.454361 
L 485.652425 222.841769 
L 488.552783 219.933495 
L 490.002963 218.946506 
L 491.453142 218.470009 
L 492.903321 218.298863 
L 495.80368 218.252662 
L 498.704039 218.441116 
L 500.154218 218.857511 
L 501.604397 219.720006 
L 504.504756 222.276932 
L 505.954935 222.875414 
L 507.405115 222.574358 
L 508.855294 221.976336 
L 510.305473 222.095188 
L 511.755653 223.476218 
L 513.205832 225.780081 
L 519.006549 236.078155 
L 520.456729 237.02509 
L 521.906908 235.15153 
L 523.357087 230.826678 
L 524.807266 225.84444 
L 526.257446 221.929674 
L 527.707625 219.667204 
L 529.157804 218.678299 
L 530.607984 218.346813 
L 533.508342 218.243715 
L 575.563543 218.1076 
L 577.013722 217.691792 
L 578.463901 216.464331 
L 579.914081 213.704174 
L 581.36426 209.055193 
L 582.814439 203.393815 
L 584.264619 198.887504 
L 585.714798 197.598079 
L 587.164977 199.893988 
L 588.615157 204.41223 
L 590.065336 209.316247 
L 591.515515 213.328937 
L 592.965695 215.971726 
L 594.415874 217.378791 
L 595.866053 217.971959 
L 597.316233 218.142654 
L 598.766412 218.048866 
L 600.216591 217.491788 
L 601.666771 215.794398 
L 603.11695 211.918553 
L 604.567129 205.283723 
L 606.017309 197.002694 
L 607.467488 189.871661 
L 608.917667 186.093514 
L 610.367847 185.026546 
L 611.818026 184.277551 
L 613.268205 182.990227 
L 614.718385 182.805067 
L 616.168564 185.50298 
L 617.618743 190.96561 
L 620.519102 204.30597 
L 621.969281 209.883627 
L 623.41946 213.943486 
L 624.86964 216.400235 
L 626.319819 217.598298 
L 627.769998 218.060492 
L 630.670357 218.233737 
L 636.471074 218.240947 
L 636.471074 218.240947 
" clip-path="url(#paf1b37c176)" style="fill: none; stroke: #d62728; stroke-width: 2; stroke-linecap: square"/>
   </g>
   <g id="line2d_30">
    <path d="M 405.892562 275.888824 
L 407.342741 277.499597 
L 408.792921 279.393615 
L 410.2431 279.104935 
L 411.693279 274.062913 
L 413.143459 263.566658 
L 414.593638 250.132037 
L 416.043817 238.390748 
L 417.493997 232.074927 
L 418.944176 231.610477 
L 420.394355 234.051943 
L 421.844535 235.307293 
L 423.294714 233.144311 
L 426.195073 223.708071 
L 427.645252 220.519984 
L 429.095431 218.980842 
L 430.54561 218.428022 
L 431.99579 218.277785 
L 437.796507 218.240947 
L 445.047404 218.278833 
L 446.497583 218.43964 
L 447.947762 219.048999 
L 449.397942 220.83937 
L 450.848121 224.937774 
L 452.2983 232.342808 
L 453.74848 243.17278 
L 455.198659 256.508824 
L 458.099018 284.613233 
L 459.549197 295.628161 
L 460.999376 302.160595 
L 462.449556 303.570772 
L 463.899735 300.494983 
L 465.349914 294.19048 
L 466.800094 285.939267 
L 471.150632 259.250319 
L 474.05099 243.371278 
L 475.501169 235.8053 
L 476.951349 229.074891 
L 478.401528 223.947449 
L 479.851707 220.743595 
L 481.301887 219.14201 
L 482.752066 218.527435 
L 484.202245 218.444045 
L 485.652425 218.845906 
L 487.102604 220.190302 
L 488.552783 223.325745 
L 490.002963 228.909986 
L 492.903321 244.294738 
L 494.353501 250.263761 
L 495.80368 253.64619 
L 497.253859 255.118333 
L 498.704039 255.571007 
L 500.154218 255.038709 
L 501.604397 252.765484 
L 503.054577 248.055446 
L 504.504756 241.092082 
L 507.405115 225.554279 
L 508.855294 219.119709 
L 511.755653 207.893747 
L 513.205832 202.779593 
L 514.656011 199.133433 
L 516.106191 198.232554 
L 517.55637 200.614301 
L 519.006549 205.381843 
L 520.456729 210.58108 
L 521.906908 214.491434 
L 523.357087 216.450656 
L 524.807266 216.498861 
L 526.257446 214.654373 
L 527.707625 210.941005 
L 529.157804 206.209014 
L 530.607984 202.520753 
L 532.058163 202.000757 
L 533.508342 204.990221 
L 534.958522 209.712585 
L 536.408701 213.91729 
L 537.85888 216.5169 
L 539.30906 217.699127 
L 540.759239 218.093188 
L 542.209418 218.133157 
L 543.659598 217.888389 
L 545.109777 217.068706 
L 546.559956 215.112604 
L 548.010136 211.587062 
L 549.460315 206.926003 
L 550.910494 202.815582 
L 552.360674 201.347299 
L 553.810853 203.359475 
L 556.711212 212.202931 
L 558.161391 215.355901 
L 559.61157 216.792513 
L 561.06175 216.874482 
L 562.511929 216.164622 
L 563.962108 215.305793 
L 565.412288 214.927269 
L 566.862467 215.31791 
L 569.762826 217.165622 
L 571.213005 217.792685 
L 572.663184 218.095418 
L 575.563543 218.233702 
L 582.814439 218.279819 
L 584.264619 218.394687 
L 585.714798 218.714499 
L 587.164977 219.376939 
L 590.065336 221.328891 
L 591.515515 221.740046 
L 592.965695 221.328891 
L 595.866053 219.381563 
L 597.316233 218.737983 
L 598.766412 218.489707 
L 600.216591 218.582287 
L 601.666771 219.021567 
L 603.11695 219.884839 
L 604.567129 221.287332 
L 606.017309 223.40622 
L 607.467488 226.336576 
L 608.917667 229.609647 
L 610.367847 231.974786 
L 611.818026 232.282144 
L 613.268205 230.768012 
L 614.718385 228.942645 
L 616.168564 228.033627 
L 617.618743 228.002159 
L 619.068923 228.126474 
L 620.519102 227.903912 
L 621.969281 227.258041 
L 623.41946 226.450223 
L 624.86964 225.898652 
L 626.319819 225.659659 
L 627.769998 225.171165 
L 629.220178 223.889183 
L 632.120536 220.233364 
L 633.570716 219.068019 
L 635.020895 218.510844 
L 636.471074 218.322006 
L 636.471074 218.322006 
" clip-path="url(#paf1b37c176)" style="fill: none; stroke: #ff7f0e; stroke-width: 2; stroke-linecap: square"/>
   </g>
   <g id="LineCollection_1">
    <path d="M 521.877904 304.703415 
L 521.877904 112.440351 
" clip-path="url(#paf1b37c176)" style="fill: none; stroke-dasharray: 7.4,3.2; stroke-dashoffset: 0; stroke: #000000; stroke-width: 2"/>
    <path d="M 536.379697 304.703415 
L 536.379697 112.440351 
" clip-path="url(#paf1b37c176)" style="fill: none; stroke-dasharray: 7.4,3.2; stroke-dashoffset: 0; stroke: #000000; stroke-width: 2"/>
    <path d="M 565.383284 304.703415 
L 565.383284 112.440351 
" clip-path="url(#paf1b37c176)" style="fill: none; stroke-dasharray: 7.4,3.2; stroke-dashoffset: 0; stroke: #000000; stroke-width: 2"/>
    <path d="M 623.390457 304.703415 
L 623.390457 112.440351 
" clip-path="url(#paf1b37c176)" style="fill: none; stroke-dasharray: 7.4,3.2; stroke-dashoffset: 0; stroke: #000000; stroke-width: 2"/>
   </g>
   <g id="patch_8">
    <path d="M 394.363636 333.490909 
L 394.363636 86.4 
" style="fill: none; stroke: #000000; stroke-width: 0.8; stroke-linejoin: miter; stroke-linecap: square"/>
   </g>
   <g id="patch_9">
    <path d="M 648 333.490909 
L 648 86.4 
" style="fill: none; stroke: #000000; stroke-width: 0.8; stroke-linejoin: miter; stroke-linecap: square"/>
   </g>
   <g id="patch_10">
    <path d="M 394.363636 333.490909 
L 648 333.490909 
" style="fill: none; stroke: #000000; stroke-width: 0.8; stroke-linejoin: miter; stroke-linecap: square"/>
   </g>
   <g id="patch_11">
    <path d="M 394.363636 86.4 
L 648 86.4 
" style="fill: none; stroke: #000000; stroke-width: 0.8; stroke-linejoin: miter; stroke-linecap: square"/>
   </g>
   <g id="text_27">
    <!-- unit_95 -->
    <g transform="translate(498.922756 80.4)scale(0.12 -0.12)">
     <defs>
      <path id="DejaVuSans-75" d="M 544 1381 
L 544 3500 
L 1119 3500 
L 1119 1403 
Q 1119 906 1312 657 
Q 1506 409 1894 409 
Q 2359 409 2629 706 
Q 2900 1003 2900 1516 
L 2900 3500 
L 3475 3500 
L 3475 0 
L 2900 0 
L 2900 538 
Q 2691 219 2414 64 
Q 2138 -91 1772 -91 
Q 1169 -91 856 284 
Q 544 659 544 1381 
z
M 1991 3584 
L 1991 3584 
z
" transform="scale(0.015625)"/>
      <path id="DejaVuSans-6e" d="M 3513 2113 
L 3513 0 
L 2938 0 
L 2938 2094 
Q 2938 2591 2744 2837 
Q 2550 3084 2163 3084 
Q 1697 3084 1428 2787 
Q 1159 2491 1159 1978 
L 1159 0 
L 581 0 
L 581 3500 
L 1159 3500 
L 1159 2956 
Q 1366 3272 1645 3428 
Q 1925 3584 2291 3584 
Q 2894 3584 3203 3211 
Q 3513 2838 3513 2113 
z
" transform="scale(0.015625)"/>
      <path id="DejaVuSans-69" d="M 603 3500 
L 1178 3500 
L 1178 0 
L 603 0 
L 603 3500 
z
M 603 4863 
L 1178 4863 
L 1178 4134 
L 603 4134 
L 603 4863 
z
" transform="scale(0.015625)"/>
      <path id="DejaVuSans-74" d="M 1172 4494 
L 1172 3500 
L 2356 3500 
L 2356 3053 
L 1172 3053 
L 1172 1153 
Q 1172 725 1289 603 
Q 1406 481 1766 481 
L 2356 481 
L 2356 0 
L 1766 0 
Q 1100 0 847 248 
Q 594 497 594 1153 
L 594 3053 
L 172 3053 
L 172 3500 
L 594 3500 
L 594 4494 
L 1172 4494 
z
" transform="scale(0.015625)"/>
      <path id="DejaVuSans-5f" d="M 3263 -1063 
L 3263 -1509 
L -63 -1509 
L -63 -1063 
L 3263 -1063 
z
" transform="scale(0.015625)"/>
      <path id="DejaVuSans-39" d="M 703 97 
L 703 672 
Q 941 559 1184 500 
Q 1428 441 1663 441 
Q 2288 441 2617 861 
Q 2947 1281 2994 2138 
Q 2813 1869 2534 1725 
Q 2256 1581 1919 1581 
Q 1219 1581 811 2004 
Q 403 2428 403 3163 
Q 403 3881 828 4315 
Q 1253 4750 1959 4750 
Q 2769 4750 3195 4129 
Q 3622 3509 3622 2328 
Q 3622 1225 3098 567 
Q 2575 -91 1691 -91 
Q 1453 -91 1209 -44 
Q 966 3 703 97 
z
M 1959 2075 
Q 2384 2075 2632 2365 
Q 2881 2656 2881 3163 
Q 2881 3666 2632 3958 
Q 2384 4250 1959 4250 
Q 1534 4250 1286 3958 
Q 1038 3666 1038 3163 
Q 1038 2656 1286 2365 
Q 1534 2075 1959 2075 
z
" transform="scale(0.015625)"/>
     </defs>
     <use xlink:href="#DejaVuSans-75"/>
     <use xlink:href="#DejaVuSans-6e" x="63.378906"/>
     <use xlink:href="#DejaVuSans-69" x="126.757812"/>
     <use xlink:href="#DejaVuSans-74" x="154.541016"/>
     <use xlink:href="#DejaVuSans-5f" x="193.75"/>
     <use xlink:href="#DejaVuSans-39" x="243.75"/>
     <use xlink:href="#DejaVuSans-35" x="307.373047"/>
    </g>
   </g>
  </g>
  <g id="axes_3">
   <g id="patch_12">
    <path d="M 90 630 
L 343.636364 630 
L 343.636364 382.909091 
L 90 382.909091 
z
" style="fill: #ffffff"/>
   </g>
   <g id="matplotlib.axis_5">
    <g id="xtick_12">
     <g id="line2d_31">
      <g>
       <use xlink:href="#mc1de55f8b0" x="90" y="630" style="stroke: #000000; stroke-width: 0.8"/>
      </g>
     </g>
     <g id="text_28">
      <!-- 0.0 -->
      <g transform="translate(82.048438 644.598437)scale(0.1 -0.1)">
       <use xlink:href="#DejaVuSans-30"/>
       <use xlink:href="#DejaVuSans-2e" x="63.623047"/>
       <use xlink:href="#DejaVuSans-30" x="95.410156"/>
      </g>
     </g>
    </g>
    <g id="xtick_13">
     <g id="line2d_32">
      <g>
       <use xlink:href="#mc1de55f8b0" x="140.727273" y="630" style="stroke: #000000; stroke-width: 0.8"/>
      </g>
     </g>
     <g id="text_29">
      <!-- 0.2 -->
      <g transform="translate(132.77571 644.598437)scale(0.1 -0.1)">
       <use xlink:href="#DejaVuSans-30"/>
       <use xlink:href="#DejaVuSans-2e" x="63.623047"/>
       <use xlink:href="#DejaVuSans-32" x="95.410156"/>
      </g>
     </g>
    </g>
    <g id="xtick_14">
     <g id="line2d_33">
      <g>
       <use xlink:href="#mc1de55f8b0" x="191.454545" y="630" style="stroke: #000000; stroke-width: 0.8"/>
      </g>
     </g>
     <g id="text_30">
      <!-- 0.4 -->
      <g transform="translate(183.502983 644.598437)scale(0.1 -0.1)">
       <use xlink:href="#DejaVuSans-30"/>
       <use xlink:href="#DejaVuSans-2e" x="63.623047"/>
       <use xlink:href="#DejaVuSans-34" x="95.410156"/>
      </g>
     </g>
    </g>
    <g id="xtick_15">
     <g id="line2d_34">
      <g>
       <use xlink:href="#mc1de55f8b0" x="242.181818" y="630" style="stroke: #000000; stroke-width: 0.8"/>
      </g>
     </g>
     <g id="text_31">
      <!-- 0.6 -->
      <g transform="translate(234.230256 644.598437)scale(0.1 -0.1)">
       <use xlink:href="#DejaVuSans-30"/>
       <use xlink:href="#DejaVuSans-2e" x="63.623047"/>
       <use xlink:href="#DejaVuSans-36" x="95.410156"/>
      </g>
     </g>
    </g>
    <g id="xtick_16">
     <g id="line2d_35">
      <g>
       <use xlink:href="#mc1de55f8b0" x="292.909091" y="630" style="stroke: #000000; stroke-width: 0.8"/>
      </g>
     </g>
     <g id="text_32">
      <!-- 0.8 -->
      <g transform="translate(284.957528 644.598437)scale(0.1 -0.1)">
       <use xlink:href="#DejaVuSans-30"/>
       <use xlink:href="#DejaVuSans-2e" x="63.623047"/>
       <use xlink:href="#DejaVuSans-38" x="95.410156"/>
      </g>
     </g>
    </g>
    <g id="xtick_17">
     <g id="line2d_36">
      <g>
       <use xlink:href="#mc1de55f8b0" x="343.636364" y="630" style="stroke: #000000; stroke-width: 0.8"/>
      </g>
     </g>
     <g id="text_33">
      <!-- 1.0 -->
      <g transform="translate(335.684801 644.598437)scale(0.1 -0.1)">
       <use xlink:href="#DejaVuSans-31"/>
       <use xlink:href="#DejaVuSans-2e" x="63.623047"/>
       <use xlink:href="#DejaVuSans-30" x="95.410156"/>
      </g>
     </g>
    </g>
   </g>
   <g id="matplotlib.axis_6">
    <g id="ytick_16">
     <g id="line2d_37">
      <g>
       <use xlink:href="#m21e4adbd1f" x="90" y="630" style="stroke: #000000; stroke-width: 0.8"/>
      </g>
     </g>
     <g id="text_34">
      <!-- 0.0 -->
      <g transform="translate(67.096875 633.799219)scale(0.1 -0.1)">
       <use xlink:href="#DejaVuSans-30"/>
       <use xlink:href="#DejaVuSans-2e" x="63.623047"/>
       <use xlink:href="#DejaVuSans-30" x="95.410156"/>
      </g>
     </g>
    </g>
    <g id="ytick_17">
     <g id="line2d_38">
      <g>
       <use xlink:href="#m21e4adbd1f" x="90" y="580.581818" style="stroke: #000000; stroke-width: 0.8"/>
      </g>
     </g>
     <g id="text_35">
      <!-- 0.2 -->
      <g transform="translate(67.096875 584.381037)scale(0.1 -0.1)">
       <use xlink:href="#DejaVuSans-30"/>
       <use xlink:href="#DejaVuSans-2e" x="63.623047"/>
       <use xlink:href="#DejaVuSans-32" x="95.410156"/>
      </g>
     </g>
    </g>
    <g id="ytick_18">
     <g id="line2d_39">
      <g>
       <use xlink:href="#m21e4adbd1f" x="90" y="531.163636" style="stroke: #000000; stroke-width: 0.8"/>
      </g>
     </g>
     <g id="text_36">
      <!-- 0.4 -->
      <g transform="translate(67.096875 534.962855)scale(0.1 -0.1)">
       <use xlink:href="#DejaVuSans-30"/>
       <use xlink:href="#DejaVuSans-2e" x="63.623047"/>
       <use xlink:href="#DejaVuSans-34" x="95.410156"/>
      </g>
     </g>
    </g>
    <g id="ytick_19">
     <g id="line2d_40">
      <g>
       <use xlink:href="#m21e4adbd1f" x="90" y="481.745455" style="stroke: #000000; stroke-width: 0.8"/>
      </g>
     </g>
     <g id="text_37">
      <!-- 0.6 -->
      <g transform="translate(67.096875 485.544673)scale(0.1 -0.1)">
       <use xlink:href="#DejaVuSans-30"/>
       <use xlink:href="#DejaVuSans-2e" x="63.623047"/>
       <use xlink:href="#DejaVuSans-36" x="95.410156"/>
      </g>
     </g>
    </g>
    <g id="ytick_20">
     <g id="line2d_41">
      <g>
       <use xlink:href="#m21e4adbd1f" x="90" y="432.327273" style="stroke: #000000; stroke-width: 0.8"/>
      </g>
     </g>
     <g id="text_38">
      <!-- 0.8 -->
      <g transform="translate(67.096875 436.126491)scale(0.1 -0.1)">
       <use xlink:href="#DejaVuSans-30"/>
       <use xlink:href="#DejaVuSans-2e" x="63.623047"/>
       <use xlink:href="#DejaVuSans-38" x="95.410156"/>
      </g>
     </g>
    </g>
    <g id="ytick_21">
     <g id="line2d_42">
      <g>
       <use xlink:href="#m21e4adbd1f" x="90" y="382.909091" style="stroke: #000000; stroke-width: 0.8"/>
      </g>
     </g>
     <g id="text_39">
      <!-- 1.0 -->
      <g transform="translate(67.096875 386.70831)scale(0.1 -0.1)">
       <use xlink:href="#DejaVuSans-31"/>
       <use xlink:href="#DejaVuSans-2e" x="63.623047"/>
       <use xlink:href="#DejaVuSans-30" x="95.410156"/>
      </g>
     </g>
    </g>
   </g>
   <g id="patch_13">
    <path d="M 90 630 
L 90 382.909091 
" style="fill: none; stroke: #000000; stroke-width: 0.8; stroke-linejoin: miter; stroke-linecap: square"/>
   </g>
   <g id="patch_14">
    <path d="M 343.636364 630 
L 343.636364 382.909091 
" style="fill: none; stroke: #000000; stroke-width: 0.8; stroke-linejoin: miter; stroke-linecap: square"/>
   </g>
   <g id="patch_15">
    <path d="M 90 630 
L 343.636364 630 
" style="fill: none; stroke: #000000; stroke-width: 0.8; stroke-linejoin: miter; stroke-linecap: square"/>
   </g>
   <g id="patch_16">
    <path d="M 90 382.909091 
L 343.636364 382.909091 
" style="fill: none; stroke: #000000; stroke-width: 0.8; stroke-linejoin: miter; stroke-linecap: square"/>
   </g>
  </g>
  <g id="axes_4">
   <g id="patch_17">
    <path d="M 394.363636 630 
L 648 630 
L 648 382.909091 
L 394.363636 382.909091 
z
" style="fill: #ffffff"/>
   </g>
   <g id="matplotlib.axis_7">
    <g id="xtick_18">
     <g id="line2d_43">
      <g>
       <use xlink:href="#mc1de55f8b0" x="405.863558" y="630" style="stroke: #000000; stroke-width: 0.8"/>
      </g>
     </g>
     <g id="text_40">
      <!-- 0 -->
      <g transform="translate(402.682308 644.598437)scale(0.1 -0.1)">
       <use xlink:href="#DejaVuSans-30"/>
      </g>
     </g>
    </g>
    <g id="xtick_19">
     <g id="line2d_44">
      <g>
       <use xlink:href="#mc1de55f8b0" x="463.870731" y="630" style="stroke: #000000; stroke-width: 0.8"/>
      </g>
     </g>
     <g id="text_41">
      <!-- 2000 -->
      <g transform="translate(451.145731 644.598437)scale(0.1 -0.1)">
       <use xlink:href="#DejaVuSans-32"/>
       <use xlink:href="#DejaVuSans-30" x="63.623047"/>
       <use xlink:href="#DejaVuSans-30" x="127.246094"/>
       <use xlink:href="#DejaVuSans-30" x="190.869141"/>
      </g>
     </g>
    </g>
    <g id="xtick_20">
     <g id="line2d_45">
      <g>
       <use xlink:href="#mc1de55f8b0" x="521.877904" y="630" style="stroke: #000000; stroke-width: 0.8"/>
      </g>
     </g>
     <g id="text_42">
      <!-- 4000 -->
      <g transform="translate(509.152904 644.598437)scale(0.1 -0.1)">
       <use xlink:href="#DejaVuSans-34"/>
       <use xlink:href="#DejaVuSans-30" x="63.623047"/>
       <use xlink:href="#DejaVuSans-30" x="127.246094"/>
       <use xlink:href="#DejaVuSans-30" x="190.869141"/>
      </g>
     </g>
    </g>
    <g id="xtick_21">
     <g id="line2d_46">
      <g>
       <use xlink:href="#mc1de55f8b0" x="579.885077" y="630" style="stroke: #000000; stroke-width: 0.8"/>
      </g>
     </g>
     <g id="text_43">
      <!-- 6000 -->
      <g transform="translate(567.160077 644.598437)scale(0.1 -0.1)">
       <use xlink:href="#DejaVuSans-36"/>
       <use xlink:href="#DejaVuSans-30" x="63.623047"/>
       <use xlink:href="#DejaVuSans-30" x="127.246094"/>
       <use xlink:href="#DejaVuSans-30" x="190.869141"/>
      </g>
     </g>
    </g>
    <g id="xtick_22">
     <g id="line2d_47">
      <g>
       <use xlink:href="#mc1de55f8b0" x="637.89225" y="630" style="stroke: #000000; stroke-width: 0.8"/>
      </g>
     </g>
     <g id="text_44">
      <!-- 8000 -->
      <g transform="translate(625.16725 644.598437)scale(0.1 -0.1)">
       <use xlink:href="#DejaVuSans-38"/>
       <use xlink:href="#DejaVuSans-30" x="63.623047"/>
       <use xlink:href="#DejaVuSans-30" x="127.246094"/>
       <use xlink:href="#DejaVuSans-30" x="190.869141"/>
      </g>
     </g>
    </g>
   </g>
   <g id="matplotlib.axis_8">
    <g id="ytick_22">
     <g id="line2d_48">
      <g>
       <use xlink:href="#m21e4adbd1f" x="394.363636" y="623.35916" style="stroke: #000000; stroke-width: 0.8"/>
      </g>
     </g>
     <g id="text_45">
      <!-- 0 -->
      <g transform="translate(381.001136 627.158379)scale(0.1 -0.1)">
       <use xlink:href="#DejaVuSans-30"/>
      </g>
     </g>
    </g>
    <g id="ytick_23">
     <g id="line2d_49">
      <g>
       <use xlink:href="#m21e4adbd1f" x="394.363636" y="590.154959" style="stroke: #000000; stroke-width: 0.8"/>
      </g>
     </g>
     <g id="text_46">
      <!-- 10 -->
      <g transform="translate(374.638636 593.954177)scale(0.1 -0.1)">
       <use xlink:href="#DejaVuSans-31"/>
       <use xlink:href="#DejaVuSans-30" x="63.623047"/>
      </g>
     </g>
    </g>
    <g id="ytick_24">
     <g id="line2d_50">
      <g>
       <use xlink:href="#m21e4adbd1f" x="394.363636" y="556.950758" style="stroke: #000000; stroke-width: 0.8"/>
      </g>
     </g>
     <g id="text_47">
      <!-- 20 -->
      <g transform="translate(374.638636 560.749976)scale(0.1 -0.1)">
       <use xlink:href="#DejaVuSans-32"/>
       <use xlink:href="#DejaVuSans-30" x="63.623047"/>
      </g>
     </g>
    </g>
    <g id="ytick_25">
     <g id="line2d_51">
      <g>
       <use xlink:href="#m21e4adbd1f" x="394.363636" y="523.746557" style="stroke: #000000; stroke-width: 0.8"/>
      </g>
     </g>
     <g id="text_48">
      <!-- 30 -->
      <g transform="translate(374.638636 527.545775)scale(0.1 -0.1)">
       <defs>
        <path id="DejaVuSans-33" d="M 2597 2516 
Q 3050 2419 3304 2112 
Q 3559 1806 3559 1356 
Q 3559 666 3084 287 
Q 2609 -91 1734 -91 
Q 1441 -91 1130 -33 
Q 819 25 488 141 
L 488 750 
Q 750 597 1062 519 
Q 1375 441 1716 441 
Q 2309 441 2620 675 
Q 2931 909 2931 1356 
Q 2931 1769 2642 2001 
Q 2353 2234 1838 2234 
L 1294 2234 
L 1294 2753 
L 1863 2753 
Q 2328 2753 2575 2939 
Q 2822 3125 2822 3475 
Q 2822 3834 2567 4026 
Q 2313 4219 1838 4219 
Q 1578 4219 1281 4162 
Q 984 4106 628 3988 
L 628 4550 
Q 988 4650 1302 4700 
Q 1616 4750 1894 4750 
Q 2613 4750 3031 4423 
Q 3450 4097 3450 3541 
Q 3450 3153 3228 2886 
Q 3006 2619 2597 2516 
z
" transform="scale(0.015625)"/>
       </defs>
       <use xlink:href="#DejaVuSans-33"/>
       <use xlink:href="#DejaVuSans-30" x="63.623047"/>
      </g>
     </g>
    </g>
    <g id="ytick_26">
     <g id="line2d_52">
      <g>
       <use xlink:href="#m21e4adbd1f" x="394.363636" y="490.542356" style="stroke: #000000; stroke-width: 0.8"/>
      </g>
     </g>
     <g id="text_49">
      <!-- 40 -->
      <g transform="translate(374.638636 494.341574)scale(0.1 -0.1)">
       <use xlink:href="#DejaVuSans-34"/>
       <use xlink:href="#DejaVuSans-30" x="63.623047"/>
      </g>
     </g>
    </g>
    <g id="ytick_27">
     <g id="line2d_53">
      <g>
       <use xlink:href="#m21e4adbd1f" x="394.363636" y="457.338154" style="stroke: #000000; stroke-width: 0.8"/>
      </g>
     </g>
     <g id="text_50">
      <!-- 50 -->
      <g transform="translate(374.638636 461.137373)scale(0.1 -0.1)">
       <use xlink:href="#DejaVuSans-35"/>
       <use xlink:href="#DejaVuSans-30" x="63.623047"/>
      </g>
     </g>
    </g>
    <g id="ytick_28">
     <g id="line2d_54">
      <g>
       <use xlink:href="#m21e4adbd1f" x="394.363636" y="424.133953" style="stroke: #000000; stroke-width: 0.8"/>
      </g>
     </g>
     <g id="text_51">
      <!-- 60 -->
      <g transform="translate(374.638636 427.933172)scale(0.1 -0.1)">
       <use xlink:href="#DejaVuSans-36"/>
       <use xlink:href="#DejaVuSans-30" x="63.623047"/>
      </g>
     </g>
    </g>
    <g id="ytick_29">
     <g id="line2d_55">
      <g>
       <use xlink:href="#m21e4adbd1f" x="394.363636" y="390.929752" style="stroke: #000000; stroke-width: 0.8"/>
      </g>
     </g>
     <g id="text_52">
      <!-- 70 -->
      <g transform="translate(374.638636 394.728971)scale(0.1 -0.1)">
       <use xlink:href="#DejaVuSans-37"/>
       <use xlink:href="#DejaVuSans-30" x="63.623047"/>
      </g>
     </g>
    </g>
   </g>
   <g id="line2d_56">
    <path d="M 405.892562 589.093401 
L 408.792921 574.308265 
L 410.2431 564.937605 
L 413.143459 519.088158 
L 414.593638 520.500949 
L 416.043817 529.908978 
L 418.944176 527.252713 
L 420.394355 530.732512 
L 421.844535 526.146496 
L 423.294714 523.362822 
L 424.744893 533.120871 
L 426.195073 546.971185 
L 427.645252 555.884413 
L 429.095431 560.101959 
L 430.54561 563.846117 
L 431.99579 558.465108 
L 433.445969 520.103999 
L 434.896148 454.63876 
L 436.346328 405.158057 
L 437.796507 383.906325 
L 439.246686 382.909091 
L 440.696866 403.616808 
L 442.147045 444.778231 
L 443.597224 490.669502 
L 445.047404 519.691032 
L 446.497583 536.7482 
L 447.947762 544.507998 
L 449.397942 543.454402 
L 450.848121 546.662931 
L 452.2983 557.079072 
L 453.74848 564.354005 
L 455.198659 568.413179 
L 456.648838 579.769908 
L 458.099018 600.800701 
L 459.549197 619.036639 
L 460.999376 618.151737 
L 463.899735 597.070332 
L 465.349914 588.537014 
L 466.800094 586.23826 
L 468.250273 589.987567 
L 469.700452 594.775155 
L 472.600811 599.668592 
L 474.05099 606.401897 
L 475.501169 615.760601 
L 476.951349 621.498807 
L 478.401528 623.12366 
L 479.851707 623.32881 
L 482.752066 623.186718 
L 484.202245 626.42681 
L 485.652425 639.815727 
L 487.102604 671.670731 
L 488.552783 693.323493 
L 490.002963 663.996546 
L 491.453142 631.018416 
L 492.903321 620.185665 
L 494.353501 617.419797 
L 495.80368 622.668827 
L 500.154218 658.593339 
L 501.604397 663.364042 
L 503.054577 663.604149 
L 504.504756 661.965851 
L 505.954935 647.308867 
L 507.405115 631.186309 
L 508.855294 625.17171 
L 510.305473 630.417738 
L 513.205832 679.827025 
L 514.656011 678.396962 
L 516.106191 677.294726 
L 517.55637 665.171362 
L 519.006549 639.090707 
L 520.456729 623.624614 
L 521.906908 620.401469 
L 523.357087 621.862104 
L 524.807266 625.074305 
L 527.707625 639.991448 
L 529.157804 639.18696 
L 530.607984 638.520656 
L 532.058163 636.642137 
L 533.508342 633.371388 
L 534.958522 632.937113 
L 536.408701 636.624944 
L 537.85888 644.716117 
L 539.30906 650.659895 
L 540.759239 646.309565 
L 542.209418 637.199211 
L 543.659598 633.785791 
L 545.109777 634.572612 
L 546.559956 626.624901 
L 548.010136 609.803234 
L 549.460315 600.52093 
L 550.910494 602.939683 
L 552.360674 610.208678 
L 553.810853 620.206594 
L 555.261032 629.381908 
L 556.711212 635.529112 
L 558.161391 633.867776 
L 559.61157 628.281194 
L 561.06175 626.098777 
L 562.511929 626.418967 
L 563.962108 627.567318 
L 565.412288 626.903776 
L 566.862467 614.617376 
L 568.312646 592.127219 
L 569.762826 575.496831 
L 571.213005 569.501511 
L 572.663184 567.26446 
L 574.113363 563.597247 
L 575.563543 556.436752 
L 577.013722 552.65583 
L 578.463901 569.043503 
L 579.914081 599.736888 
L 581.36426 621.317413 
L 582.814439 623.578517 
L 584.264619 615.29346 
L 585.714798 612.852032 
L 588.615157 620.158831 
L 590.065336 627.238706 
L 591.515515 633.037033 
L 592.965695 629.490274 
L 594.415874 624.740306 
L 595.866053 623.650002 
L 597.316233 625.60636 
L 598.766412 634.397976 
L 600.216591 646.448125 
L 601.666771 647.604907 
L 603.11695 638.727782 
L 604.567129 629.155023 
L 606.017309 620.399514 
L 607.467488 609.824483 
L 608.917667 605.811304 
L 610.367847 609.462192 
L 611.818026 607.20921 
L 613.268205 598.336338 
L 614.718385 594.785754 
L 616.168564 602.142762 
L 617.618743 614.364007 
L 619.068923 618.906315 
L 620.519102 622.777051 
L 621.969281 627.363265 
L 623.41946 628.795588 
L 624.86964 629.520212 
L 626.319819 629.610758 
L 627.769998 629.366097 
L 630.670357 624.084027 
L 632.120536 623.418526 
L 635.020895 623.35916 
L 636.471074 623.35916 
L 636.471074 623.35916 
" clip-path="url(#pd95c72b54b)" style="fill: none; stroke: #1f77b4; stroke-width: 1.5; stroke-linecap: square"/>
   </g>
   <g id="patch_18">
    <path d="M 394.363636 630 
L 394.363636 382.909091 
" style="fill: none; stroke: #000000; stroke-width: 0.8; stroke-linejoin: miter; stroke-linecap: square"/>
   </g>
   <g id="patch_19">
    <path d="M 648 630 
L 648 382.909091 
" style="fill: none; stroke: #000000; stroke-width: 0.8; stroke-linejoin: miter; stroke-linecap: square"/>
   </g>
   <g id="patch_20">
    <path d="M 394.363636 630 
L 648 630 
" style="fill: none; stroke: #000000; stroke-width: 0.8; stroke-linejoin: miter; stroke-linecap: square"/>
   </g>
   <g id="patch_21">
    <path d="M 394.363636 382.909091 
L 648 382.909091 
" style="fill: none; stroke: #000000; stroke-width: 0.8; stroke-linejoin: miter; stroke-linecap: square"/>
   </g>
   <g id="text_53">
    <!-- explained variance -->
    <g transform="translate(464.181818 376.909091)scale(0.12 -0.12)">
     <defs>
      <path id="DejaVuSans-65" d="M 3597 1894 
L 3597 1613 
L 953 1613 
Q 991 1019 1311 708 
Q 1631 397 2203 397 
Q 2534 397 2845 478 
Q 3156 559 3463 722 
L 3463 178 
Q 3153 47 2828 -22 
Q 2503 -91 2169 -91 
Q 1331 -91 842 396 
Q 353 884 353 1716 
Q 353 2575 817 3079 
Q 1281 3584 2069 3584 
Q 2775 3584 3186 3129 
Q 3597 2675 3597 1894 
z
M 3022 2063 
Q 3016 2534 2758 2815 
Q 2500 3097 2075 3097 
Q 1594 3097 1305 2825 
Q 1016 2553 972 2059 
L 3022 2063 
z
" transform="scale(0.015625)"/>
      <path id="DejaVuSans-78" d="M 3513 3500 
L 2247 1797 
L 3578 0 
L 2900 0 
L 1881 1375 
L 863 0 
L 184 0 
L 1544 1831 
L 300 3500 
L 978 3500 
L 1906 2253 
L 2834 3500 
L 3513 3500 
z
" transform="scale(0.015625)"/>
      <path id="DejaVuSans-70" d="M 1159 525 
L 1159 -1331 
L 581 -1331 
L 581 3500 
L 1159 3500 
L 1159 2969 
Q 1341 3281 1617 3432 
Q 1894 3584 2278 3584 
Q 2916 3584 3314 3078 
Q 3713 2572 3713 1747 
Q 3713 922 3314 415 
Q 2916 -91 2278 -91 
Q 1894 -91 1617 61 
Q 1341 213 1159 525 
z
M 3116 1747 
Q 3116 2381 2855 2742 
Q 2594 3103 2138 3103 
Q 1681 3103 1420 2742 
Q 1159 2381 1159 1747 
Q 1159 1113 1420 752 
Q 1681 391 2138 391 
Q 2594 391 2855 752 
Q 3116 1113 3116 1747 
z
" transform="scale(0.015625)"/>
      <path id="DejaVuSans-6c" d="M 603 4863 
L 1178 4863 
L 1178 0 
L 603 0 
L 603 4863 
z
" transform="scale(0.015625)"/>
      <path id="DejaVuSans-61" d="M 2194 1759 
Q 1497 1759 1228 1600 
Q 959 1441 959 1056 
Q 959 750 1161 570 
Q 1363 391 1709 391 
Q 2188 391 2477 730 
Q 2766 1069 2766 1631 
L 2766 1759 
L 2194 1759 
z
M 3341 1997 
L 3341 0 
L 2766 0 
L 2766 531 
Q 2569 213 2275 61 
Q 1981 -91 1556 -91 
Q 1019 -91 701 211 
Q 384 513 384 1019 
Q 384 1609 779 1909 
Q 1175 2209 1959 2209 
L 2766 2209 
L 2766 2266 
Q 2766 2663 2505 2880 
Q 2244 3097 1772 3097 
Q 1472 3097 1187 3025 
Q 903 2953 641 2809 
L 641 3341 
Q 956 3463 1253 3523 
Q 1550 3584 1831 3584 
Q 2591 3584 2966 3190 
Q 3341 2797 3341 1997 
z
" transform="scale(0.015625)"/>
      <path id="DejaVuSans-64" d="M 2906 2969 
L 2906 4863 
L 3481 4863 
L 3481 0 
L 2906 0 
L 2906 525 
Q 2725 213 2448 61 
Q 2172 -91 1784 -91 
Q 1150 -91 751 415 
Q 353 922 353 1747 
Q 353 2572 751 3078 
Q 1150 3584 1784 3584 
Q 2172 3584 2448 3432 
Q 2725 3281 2906 2969 
z
M 947 1747 
Q 947 1113 1208 752 
Q 1469 391 1925 391 
Q 2381 391 2643 752 
Q 2906 1113 2906 1747 
Q 2906 2381 2643 2742 
Q 2381 3103 1925 3103 
Q 1469 3103 1208 2742 
Q 947 2381 947 1747 
z
" transform="scale(0.015625)"/>
      <path id="DejaVuSans-20" transform="scale(0.015625)"/>
      <path id="DejaVuSans-76" d="M 191 3500 
L 800 3500 
L 1894 563 
L 2988 3500 
L 3597 3500 
L 2284 0 
L 1503 0 
L 191 3500 
z
" transform="scale(0.015625)"/>
      <path id="DejaVuSans-72" d="M 2631 2963 
Q 2534 3019 2420 3045 
Q 2306 3072 2169 3072 
Q 1681 3072 1420 2755 
Q 1159 2438 1159 1844 
L 1159 0 
L 581 0 
L 581 3500 
L 1159 3500 
L 1159 2956 
Q 1341 3275 1631 3429 
Q 1922 3584 2338 3584 
Q 2397 3584 2469 3576 
Q 2541 3569 2628 3553 
L 2631 2963 
z
" transform="scale(0.015625)"/>
      <path id="DejaVuSans-63" d="M 3122 3366 
L 3122 2828 
Q 2878 2963 2633 3030 
Q 2388 3097 2138 3097 
Q 1578 3097 1268 2742 
Q 959 2388 959 1747 
Q 959 1106 1268 751 
Q 1578 397 2138 397 
Q 2388 397 2633 464 
Q 2878 531 3122 666 
L 3122 134 
Q 2881 22 2623 -34 
Q 2366 -91 2075 -91 
Q 1284 -91 818 406 
Q 353 903 353 1747 
Q 353 2603 823 3093 
Q 1294 3584 2113 3584 
Q 2378 3584 2631 3529 
Q 2884 3475 3122 3366 
z
" transform="scale(0.015625)"/>
     </defs>
     <use xlink:href="#DejaVuSans-65"/>
     <use xlink:href="#DejaVuSans-78" x="59.773438"/>
     <use xlink:href="#DejaVuSans-70" x="118.953125"/>
     <use xlink:href="#DejaVuSans-6c" x="182.429688"/>
     <use xlink:href="#DejaVuSans-61" x="210.212891"/>
     <use xlink:href="#DejaVuSans-69" x="271.492188"/>
     <use xlink:href="#DejaVuSans-6e" x="299.275391"/>
     <use xlink:href="#DejaVuSans-65" x="362.654297"/>
     <use xlink:href="#DejaVuSans-64" x="424.177734"/>
     <use xlink:href="#DejaVuSans-20" x="487.654297"/>
     <use xlink:href="#DejaVuSans-76" x="519.441406"/>
     <use xlink:href="#DejaVuSans-61" x="578.621094"/>
     <use xlink:href="#DejaVuSans-72" x="639.900391"/>
     <use xlink:href="#DejaVuSans-69" x="681.013672"/>
     <use xlink:href="#DejaVuSans-61" x="708.796875"/>
     <use xlink:href="#DejaVuSans-6e" x="770.076172"/>
     <use xlink:href="#DejaVuSans-63" x="833.455078"/>
     <use xlink:href="#DejaVuSans-65" x="888.435547"/>
    </g>
   </g>
  </g>
 </g>
 <defs>
  <clipPath id="paf1b37c176">
   <rect x="394.363636" y="86.4" width="253.636364" height="247.090909"/>
  </clipPath>
  <clipPath id="pd95c72b54b">
   <rect x="394.363636" y="382.909091" width="253.636364" height="247.090909"/>
  </clipPath>
 </defs>
</svg>
