<?xml version="1.0" encoding="utf-8" standalone="no"?>
<!DOCTYPE svg PUBLIC "-//W3C//DTD SVG 1.1//EN"
  "http://www.w3.org/Graphics/SVG/1.1/DTD/svg11.dtd">
<svg xmlns:xlink="http://www.w3.org/1999/xlink" width="720pt" height="720pt" viewBox="0 0 720 720" xmlns="http://www.w3.org/2000/svg" version="1.1">
 <metadata>
  <rdf:RDF xmlns:dc="http://purl.org/dc/elements/1.1/" xmlns:cc="http://creativecommons.org/ns#" xmlns:rdf="http://www.w3.org/1999/02/22-rdf-syntax-ns#">
   <cc:Work>
    <dc:type rdf:resource="http://purl.org/dc/dcmitype/StillImage"/>
    <dc:date>2023-12-19T18:15:51.716018</dc:date>
    <dc:format>image/svg+xml</dc:format>
    <dc:creator>
     <cc:Agent>
      <dc:title>Matplotlib v3.5.2, https://matplotlib.org/</dc:title>
     </cc:Agent>
    </dc:creator>
   </cc:Work>
  </rdf:RDF>
 </metadata>
 <defs>
  <style type="text/css">*{stroke-linejoin: round; stroke-linecap: butt}</style>
 </defs>
 <g id="figure_1">
  <g id="patch_1">
   <path d="M 0 720 
L 720 720 
L 720 0 
L 0 0 
z
" style="fill: #ffffff"/>
  </g>
  <g id="axes_1">
   <g id="patch_2">
    <path d="M 90 333.490909 
L 343.636364 333.490909 
L 343.636364 86.4 
L 90 86.4 
z
" style="fill: #ffffff"/>
   </g>
   <g id="matplotlib.axis_1">
    <g id="xtick_1">
     <g id="line2d_1">
      <defs>
       <path id="m343cdf7d75" d="M 0 0 
L 0 3.5 
" style="stroke: #000000; stroke-width: 0.8"/>
      </defs>
      <g>
       <use xlink:href="#m343cdf7d75" x="90" y="333.490909" style="stroke: #000000; stroke-width: 0.8"/>
      </g>
     </g>
     <g id="text_1">
      <!-- 0.0 -->
      <g transform="translate(82.048438 348.089347)scale(0.1 -0.1)">
       <defs>
        <path id="DejaVuSans-30" d="M 2034 4250 
Q 1547 4250 1301 3770 
Q 1056 3291 1056 2328 
Q 1056 1369 1301 889 
Q 1547 409 2034 409 
Q 2525 409 2770 889 
Q 3016 1369 3016 2328 
Q 3016 3291 2770 3770 
Q 2525 4250 2034 4250 
z
M 2034 4750 
Q 2819 4750 3233 4129 
Q 3647 3509 3647 2328 
Q 3647 1150 3233 529 
Q 2819 -91 2034 -91 
Q 1250 -91 836 529 
Q 422 1150 422 2328 
Q 422 3509 836 4129 
Q 1250 4750 2034 4750 
z
" transform="scale(0.015625)"/>
        <path id="DejaVuSans-2e" d="M 684 794 
L 1344 794 
L 1344 0 
L 684 0 
L 684 794 
z
" transform="scale(0.015625)"/>
       </defs>
       <use xlink:href="#DejaVuSans-30"/>
       <use xlink:href="#DejaVuSans-2e" x="63.623047"/>
       <use xlink:href="#DejaVuSans-30" x="95.410156"/>
      </g>
     </g>
    </g>
    <g id="xtick_2">
     <g id="line2d_2">
      <g>
       <use xlink:href="#m343cdf7d75" x="140.727273" y="333.490909" style="stroke: #000000; stroke-width: 0.8"/>
      </g>
     </g>
     <g id="text_2">
      <!-- 0.2 -->
      <g transform="translate(132.77571 348.089347)scale(0.1 -0.1)">
       <defs>
        <path id="DejaVuSans-32" d="M 1228 531 
L 3431 531 
L 3431 0 
L 469 0 
L 469 531 
Q 828 903 1448 1529 
Q 2069 2156 2228 2338 
Q 2531 2678 2651 2914 
Q 2772 3150 2772 3378 
Q 2772 3750 2511 3984 
Q 2250 4219 1831 4219 
Q 1534 4219 1204 4116 
Q 875 4013 500 3803 
L 500 4441 
Q 881 4594 1212 4672 
Q 1544 4750 1819 4750 
Q 2544 4750 2975 4387 
Q 3406 4025 3406 3419 
Q 3406 3131 3298 2873 
Q 3191 2616 2906 2266 
Q 2828 2175 2409 1742 
Q 1991 1309 1228 531 
z
" transform="scale(0.015625)"/>
       </defs>
       <use xlink:href="#DejaVuSans-30"/>
       <use xlink:href="#DejaVuSans-2e" x="63.623047"/>
       <use xlink:href="#DejaVuSans-32" x="95.410156"/>
      </g>
     </g>
    </g>
    <g id="xtick_3">
     <g id="line2d_3">
      <g>
       <use xlink:href="#m343cdf7d75" x="191.454545" y="333.490909" style="stroke: #000000; stroke-width: 0.8"/>
      </g>
     </g>
     <g id="text_3">
      <!-- 0.4 -->
      <g transform="translate(183.502983 348.089347)scale(0.1 -0.1)">
       <defs>
        <path id="DejaVuSans-34" d="M 2419 4116 
L 825 1625 
L 2419 1625 
L 2419 4116 
z
M 2253 4666 
L 3047 4666 
L 3047 1625 
L 3713 1625 
L 3713 1100 
L 3047 1100 
L 3047 0 
L 2419 0 
L 2419 1100 
L 313 1100 
L 313 1709 
L 2253 4666 
z
" transform="scale(0.015625)"/>
       </defs>
       <use xlink:href="#DejaVuSans-30"/>
       <use xlink:href="#DejaVuSans-2e" x="63.623047"/>
       <use xlink:href="#DejaVuSans-34" x="95.410156"/>
      </g>
     </g>
    </g>
    <g id="xtick_4">
     <g id="line2d_4">
      <g>
       <use xlink:href="#m343cdf7d75" x="242.181818" y="333.490909" style="stroke: #000000; stroke-width: 0.8"/>
      </g>
     </g>
     <g id="text_4">
      <!-- 0.6 -->
      <g transform="translate(234.230256 348.089347)scale(0.1 -0.1)">
       <defs>
        <path id="DejaVuSans-36" d="M 2113 2584 
Q 1688 2584 1439 2293 
Q 1191 2003 1191 1497 
Q 1191 994 1439 701 
Q 1688 409 2113 409 
Q 2538 409 2786 701 
Q 3034 994 3034 1497 
Q 3034 2003 2786 2293 
Q 2538 2584 2113 2584 
z
M 3366 4563 
L 3366 3988 
Q 3128 4100 2886 4159 
Q 2644 4219 2406 4219 
Q 1781 4219 1451 3797 
Q 1122 3375 1075 2522 
Q 1259 2794 1537 2939 
Q 1816 3084 2150 3084 
Q 2853 3084 3261 2657 
Q 3669 2231 3669 1497 
Q 3669 778 3244 343 
Q 2819 -91 2113 -91 
Q 1303 -91 875 529 
Q 447 1150 447 2328 
Q 447 3434 972 4092 
Q 1497 4750 2381 4750 
Q 2619 4750 2861 4703 
Q 3103 4656 3366 4563 
z
" transform="scale(0.015625)"/>
       </defs>
       <use xlink:href="#DejaVuSans-30"/>
       <use xlink:href="#DejaVuSans-2e" x="63.623047"/>
       <use xlink:href="#DejaVuSans-36" x="95.410156"/>
      </g>
     </g>
    </g>
    <g id="xtick_5">
     <g id="line2d_5">
      <g>
       <use xlink:href="#m343cdf7d75" x="292.909091" y="333.490909" style="stroke: #000000; stroke-width: 0.8"/>
      </g>
     </g>
     <g id="text_5">
      <!-- 0.8 -->
      <g transform="translate(284.957528 348.089347)scale(0.1 -0.1)">
       <defs>
        <path id="DejaVuSans-38" d="M 2034 2216 
Q 1584 2216 1326 1975 
Q 1069 1734 1069 1313 
Q 1069 891 1326 650 
Q 1584 409 2034 409 
Q 2484 409 2743 651 
Q 3003 894 3003 1313 
Q 3003 1734 2745 1975 
Q 2488 2216 2034 2216 
z
M 1403 2484 
Q 997 2584 770 2862 
Q 544 3141 544 3541 
Q 544 4100 942 4425 
Q 1341 4750 2034 4750 
Q 2731 4750 3128 4425 
Q 3525 4100 3525 3541 
Q 3525 3141 3298 2862 
Q 3072 2584 2669 2484 
Q 3125 2378 3379 2068 
Q 3634 1759 3634 1313 
Q 3634 634 3220 271 
Q 2806 -91 2034 -91 
Q 1263 -91 848 271 
Q 434 634 434 1313 
Q 434 1759 690 2068 
Q 947 2378 1403 2484 
z
M 1172 3481 
Q 1172 3119 1398 2916 
Q 1625 2713 2034 2713 
Q 2441 2713 2670 2916 
Q 2900 3119 2900 3481 
Q 2900 3844 2670 4047 
Q 2441 4250 2034 4250 
Q 1625 4250 1398 4047 
Q 1172 3844 1172 3481 
z
" transform="scale(0.015625)"/>
       </defs>
       <use xlink:href="#DejaVuSans-30"/>
       <use xlink:href="#DejaVuSans-2e" x="63.623047"/>
       <use xlink:href="#DejaVuSans-38" x="95.410156"/>
      </g>
     </g>
    </g>
    <g id="xtick_6">
     <g id="line2d_6">
      <g>
       <use xlink:href="#m343cdf7d75" x="343.636364" y="333.490909" style="stroke: #000000; stroke-width: 0.8"/>
      </g>
     </g>
     <g id="text_6">
      <!-- 1.0 -->
      <g transform="translate(335.684801 348.089347)scale(0.1 -0.1)">
       <defs>
        <path id="DejaVuSans-31" d="M 794 531 
L 1825 531 
L 1825 4091 
L 703 3866 
L 703 4441 
L 1819 4666 
L 2450 4666 
L 2450 531 
L 3481 531 
L 3481 0 
L 794 0 
L 794 531 
z
" transform="scale(0.015625)"/>
       </defs>
       <use xlink:href="#DejaVuSans-31"/>
       <use xlink:href="#DejaVuSans-2e" x="63.623047"/>
       <use xlink:href="#DejaVuSans-30" x="95.410156"/>
      </g>
     </g>
    </g>
   </g>
   <g id="matplotlib.axis_2">
    <g id="ytick_1">
     <g id="line2d_7">
      <defs>
       <path id="m61e37578c3" d="M 0 0 
L -3.5 0 
" style="stroke: #000000; stroke-width: 0.8"/>
      </defs>
      <g>
       <use xlink:href="#m61e37578c3" x="90" y="333.490909" style="stroke: #000000; stroke-width: 0.8"/>
      </g>
     </g>
     <g id="text_7">
      <!-- 0.0 -->
      <g transform="translate(67.096875 337.290128)scale(0.1 -0.1)">
       <use xlink:href="#DejaVuSans-30"/>
       <use xlink:href="#DejaVuSans-2e" x="63.623047"/>
       <use xlink:href="#DejaVuSans-30" x="95.410156"/>
      </g>
     </g>
    </g>
    <g id="ytick_2">
     <g id="line2d_8">
      <g>
       <use xlink:href="#m61e37578c3" x="90" y="284.072727" style="stroke: #000000; stroke-width: 0.8"/>
      </g>
     </g>
     <g id="text_8">
      <!-- 0.2 -->
      <g transform="translate(67.096875 287.871946)scale(0.1 -0.1)">
       <use xlink:href="#DejaVuSans-30"/>
       <use xlink:href="#DejaVuSans-2e" x="63.623047"/>
       <use xlink:href="#DejaVuSans-32" x="95.410156"/>
      </g>
     </g>
    </g>
    <g id="ytick_3">
     <g id="line2d_9">
      <g>
       <use xlink:href="#m61e37578c3" x="90" y="234.654545" style="stroke: #000000; stroke-width: 0.8"/>
      </g>
     </g>
     <g id="text_9">
      <!-- 0.4 -->
      <g transform="translate(67.096875 238.453764)scale(0.1 -0.1)">
       <use xlink:href="#DejaVuSans-30"/>
       <use xlink:href="#DejaVuSans-2e" x="63.623047"/>
       <use xlink:href="#DejaVuSans-34" x="95.410156"/>
      </g>
     </g>
    </g>
    <g id="ytick_4">
     <g id="line2d_10">
      <g>
       <use xlink:href="#m61e37578c3" x="90" y="185.236364" style="stroke: #000000; stroke-width: 0.8"/>
      </g>
     </g>
     <g id="text_10">
      <!-- 0.6 -->
      <g transform="translate(67.096875 189.035582)scale(0.1 -0.1)">
       <use xlink:href="#DejaVuSans-30"/>
       <use xlink:href="#DejaVuSans-2e" x="63.623047"/>
       <use xlink:href="#DejaVuSans-36" x="95.410156"/>
      </g>
     </g>
    </g>
    <g id="ytick_5">
     <g id="line2d_11">
      <g>
       <use xlink:href="#m61e37578c3" x="90" y="135.818182" style="stroke: #000000; stroke-width: 0.8"/>
      </g>
     </g>
     <g id="text_11">
      <!-- 0.8 -->
      <g transform="translate(67.096875 139.617401)scale(0.1 -0.1)">
       <use xlink:href="#DejaVuSans-30"/>
       <use xlink:href="#DejaVuSans-2e" x="63.623047"/>
       <use xlink:href="#DejaVuSans-38" x="95.410156"/>
      </g>
     </g>
    </g>
    <g id="ytick_6">
     <g id="line2d_12">
      <g>
       <use xlink:href="#m61e37578c3" x="90" y="86.4" style="stroke: #000000; stroke-width: 0.8"/>
      </g>
     </g>
     <g id="text_12">
      <!-- 1.0 -->
      <g transform="translate(67.096875 90.199219)scale(0.1 -0.1)">
       <use xlink:href="#DejaVuSans-31"/>
       <use xlink:href="#DejaVuSans-2e" x="63.623047"/>
       <use xlink:href="#DejaVuSans-30" x="95.410156"/>
      </g>
     </g>
    </g>
   </g>
   <g id="patch_3">
    <path d="M 90 333.490909 
L 90 86.4 
" style="fill: none; stroke: #000000; stroke-width: 0.8; stroke-linejoin: miter; stroke-linecap: square"/>
   </g>
   <g id="patch_4">
    <path d="M 343.636364 333.490909 
L 343.636364 86.4 
" style="fill: none; stroke: #000000; stroke-width: 0.8; stroke-linejoin: miter; stroke-linecap: square"/>
   </g>
   <g id="patch_5">
    <path d="M 90 333.490909 
L 343.636364 333.490909 
" style="fill: none; stroke: #000000; stroke-width: 0.8; stroke-linejoin: miter; stroke-linecap: square"/>
   </g>
   <g id="patch_6">
    <path d="M 90 86.4 
L 343.636364 86.4 
" style="fill: none; stroke: #000000; stroke-width: 0.8; stroke-linejoin: miter; stroke-linecap: square"/>
   </g>
  </g>
  <g id="axes_2">
   <g id="patch_7">
    <path d="M 394.363636 333.490909 
L 648 333.490909 
L 648 86.4 
L 394.363636 86.4 
z
" style="fill: #ffffff"/>
   </g>
   <g id="PolyCollection_1">
    <defs>
     <path id="m41bd675d4a" d="M 405.892562 -622.368595 
L 405.892562 -599.914877 
L 407.342741 -598.972611 
L 408.792921 -596.86627 
L 410.2431 -593.982844 
L 411.693279 -589.780448 
L 413.143459 -585.440436 
L 414.593638 -581.49628 
L 416.043817 -577.197277 
L 417.493997 -573.601263 
L 418.944176 -569.174484 
L 420.394355 -565.405193 
L 421.844535 -561.484984 
L 423.294714 -556.761813 
L 424.744893 -550.840363 
L 426.195073 -543.726395 
L 427.645252 -535.535072 
L 429.095431 -537.197072 
L 430.54561 -524.407813 
L 431.99579 -533.846692 
L 433.445969 -528.395425 
L 434.896148 -532.014815 
L 436.346328 -533.888352 
L 437.796507 -532.541456 
L 439.246686 -529.577681 
L 440.696866 -526.165891 
L 442.147045 -521.551917 
L 443.597224 -516.177776 
L 445.047404 -509.446085 
L 446.497583 -501.088631 
L 447.947762 -499.007754 
L 449.397942 -491.242691 
L 450.848121 -485.940777 
L 452.2983 -483.101809 
L 453.74848 -481.915513 
L 455.198659 -481.529428 
L 456.648838 -481.431636 
L 458.099018 -481.412316 
L 459.549197 -481.409337 
L 460.999376 -481.409337 
L 462.449556 -481.409337 
L 463.899735 -481.409337 
L 465.349914 -481.409337 
L 466.800094 -481.409337 
L 468.250273 -481.409337 
L 469.700452 -481.409337 
L 471.150632 -481.409337 
L 472.600811 -481.409337 
L 474.05099 -481.409337 
L 475.501169 -481.409337 
L 476.951349 -481.409337 
L 478.401528 -481.409337 
L 479.851707 -481.409337 
L 481.301887 -481.409337 
L 482.752066 -481.409337 
L 484.202245 -481.409337 
L 485.652425 -481.409337 
L 487.102604 -481.409337 
L 488.552783 -481.409337 
L 490.002963 -481.409337 
L 491.453142 -481.409337 
L 492.903321 -481.409337 
L 494.353501 -481.409337 
L 495.80368 -481.409337 
L 497.253859 -481.409337 
L 498.704039 -481.409337 
L 500.154218 -481.409337 
L 501.604397 -481.409337 
L 503.054577 -481.409337 
L 504.504756 -481.409337 
L 505.954935 -481.409337 
L 507.405115 -481.409337 
L 508.855294 -481.409337 
L 510.305473 -481.409337 
L 511.755653 -481.409337 
L 513.205832 -481.409337 
L 514.656011 -481.409337 
L 516.106191 -481.409337 
L 517.55637 -481.409337 
L 519.006549 -481.409337 
L 520.456729 -481.409337 
L 521.906908 -481.409337 
L 523.357087 -481.409337 
L 524.807266 -481.409337 
L 526.257446 -481.409337 
L 527.707625 -481.409337 
L 529.157804 -481.409337 
L 530.607984 -481.409337 
L 532.058163 -481.409337 
L 533.508342 -481.409337 
L 534.958522 -481.409337 
L 536.408701 -481.409337 
L 537.85888 -481.409337 
L 539.30906 -481.409337 
L 540.759239 -481.409337 
L 542.209418 -481.409337 
L 543.659598 -481.409337 
L 545.109777 -481.409337 
L 546.559956 -481.409337 
L 548.010136 -481.409337 
L 549.460315 -481.409337 
L 550.910494 -481.409337 
L 552.360674 -481.409337 
L 553.810853 -481.409337 
L 555.261032 -481.409337 
L 556.711212 -481.409337 
L 558.161391 -481.409337 
L 559.61157 -481.409337 
L 561.06175 -481.409337 
L 562.511929 -481.409337 
L 563.962108 -481.409337 
L 565.412288 -481.409337 
L 566.862467 -481.409337 
L 568.312646 -481.409337 
L 569.762826 -481.409337 
L 571.213005 -481.409337 
L 572.663184 -481.409337 
L 574.113363 -481.409337 
L 575.563543 -481.409337 
L 577.013722 -481.409337 
L 578.463901 -481.409337 
L 579.914081 -481.409337 
L 581.36426 -481.409337 
L 582.814439 -481.409337 
L 584.264619 -481.409337 
L 585.714798 -481.409337 
L 587.164977 -481.409337 
L 588.615157 -481.409337 
L 590.065336 -481.409337 
L 591.515515 -481.409337 
L 592.965695 -481.409337 
L 594.415874 -481.409337 
L 595.866053 -481.409337 
L 597.316233 -481.409337 
L 598.766412 -481.409337 
L 600.216591 -481.409337 
L 601.666771 -481.409337 
L 603.11695 -481.409337 
L 604.567129 -481.409337 
L 606.017309 -481.409337 
L 607.467488 -481.409337 
L 608.917667 -481.409337 
L 610.367847 -481.409337 
L 611.818026 -481.409337 
L 613.268205 -481.409337 
L 614.718385 -481.409337 
L 616.168564 -481.409337 
L 617.618743 -481.409337 
L 619.068923 -481.409337 
L 620.519102 -481.409337 
L 621.969281 -481.409337 
L 623.41946 -481.409337 
L 624.86964 -481.409337 
L 626.319819 -481.409337 
L 627.769998 -481.409337 
L 629.220178 -481.409337 
L 630.670357 -481.409337 
L 632.120536 -481.409337 
L 633.570716 -481.409337 
L 635.020895 -481.409337 
L 636.471074 -481.409337 
L 636.471074 -481.409337 
L 636.471074 -481.409337 
L 635.020895 -481.409337 
L 633.570716 -481.409337 
L 632.120536 -481.409337 
L 630.670357 -481.409337 
L 629.220178 -481.409337 
L 627.769998 -481.409337 
L 626.319819 -481.409337 
L 624.86964 -481.409337 
L 623.41946 -481.409337 
L 621.969281 -481.409337 
L 620.519102 -481.409337 
L 619.068923 -481.409337 
L 617.618743 -481.409337 
L 616.168564 -481.409337 
L 614.718385 -481.409337 
L 613.268205 -481.409337 
L 611.818026 -481.409337 
L 610.367847 -481.409337 
L 608.917667 -481.409337 
L 607.467488 -481.409337 
L 606.017309 -481.409337 
L 604.567129 -481.409337 
L 603.11695 -481.409337 
L 601.666771 -481.409337 
L 600.216591 -481.409337 
L 598.766412 -481.409337 
L 597.316233 -481.409337 
L 595.866053 -481.409337 
L 594.415874 -481.409337 
L 592.965695 -481.409337 
L 591.515515 -481.409337 
L 590.065336 -481.409337 
L 588.615157 -481.409337 
L 587.164977 -481.409337 
L 585.714798 -481.409337 
L 584.264619 -481.409337 
L 582.814439 -481.409337 
L 581.36426 -481.409337 
L 579.914081 -481.409337 
L 578.463901 -481.409337 
L 577.013722 -481.409337 
L 575.563543 -481.409337 
L 574.113363 -481.409337 
L 572.663184 -481.409337 
L 571.213005 -481.409337 
L 569.762826 -481.409337 
L 568.312646 -481.409337 
L 566.862467 -481.409337 
L 565.412288 -481.409337 
L 563.962108 -481.409337 
L 562.511929 -481.409337 
L 561.06175 -481.409337 
L 559.61157 -481.409337 
L 558.161391 -481.409337 
L 556.711212 -481.409337 
L 555.261032 -481.409337 
L 553.810853 -481.409337 
L 552.360674 -481.409337 
L 550.910494 -481.409337 
L 549.460315 -481.409337 
L 548.010136 -481.409337 
L 546.559956 -481.409337 
L 545.109777 -481.409337 
L 543.659598 -481.409337 
L 542.209418 -481.409337 
L 540.759239 -481.409337 
L 539.30906 -481.409337 
L 537.85888 -481.409337 
L 536.408701 -481.409337 
L 534.958522 -481.409337 
L 533.508342 -481.409337 
L 532.058163 -481.409337 
L 530.607984 -481.409337 
L 529.157804 -481.409337 
L 527.707625 -481.409337 
L 526.257446 -481.409337 
L 524.807266 -481.409337 
L 523.357087 -481.409337 
L 521.906908 -481.409337 
L 520.456729 -481.409337 
L 519.006549 -481.409337 
L 517.55637 -481.409337 
L 516.106191 -481.409337 
L 514.656011 -481.409337 
L 513.205832 -481.409337 
L 511.755653 -481.409337 
L 510.305473 -481.409337 
L 508.855294 -481.409337 
L 507.405115 -481.409337 
L 505.954935 -481.409337 
L 504.504756 -481.409337 
L 503.054577 -481.409337 
L 501.604397 -481.409337 
L 500.154218 -481.409337 
L 498.704039 -481.409337 
L 497.253859 -481.409337 
L 495.80368 -481.409337 
L 494.353501 -481.409337 
L 492.903321 -481.409337 
L 491.453142 -481.409337 
L 490.002963 -481.409337 
L 488.552783 -481.409337 
L 487.102604 -481.409337 
L 485.652425 -481.409337 
L 484.202245 -481.409337 
L 482.752066 -481.409337 
L 481.301887 -481.409337 
L 479.851707 -481.409337 
L 478.401528 -481.409337 
L 476.951349 -481.409337 
L 475.501169 -481.409337 
L 474.05099 -481.409337 
L 472.600811 -481.409337 
L 471.150632 -481.409337 
L 469.700452 -481.409337 
L 468.250273 -481.409337 
L 466.800094 -481.409337 
L 465.349914 -481.409337 
L 463.899735 -481.409337 
L 462.449556 -481.409337 
L 460.999376 -481.409337 
L 459.549197 -481.409337 
L 458.099018 -481.412316 
L 456.648838 -481.431636 
L 455.198659 -481.529428 
L 453.74848 -481.915513 
L 452.2983 -483.101809 
L 450.848121 -485.940777 
L 449.397942 -491.242691 
L 447.947762 -499.007754 
L 446.497583 -514.986509 
L 445.047404 -523.799644 
L 443.597224 -531.235173 
L 442.147045 -536.988858 
L 440.696866 -541.365334 
L 439.246686 -545.386462 
L 437.796507 -547.937719 
L 436.346328 -548.825596 
L 434.896148 -548.283333 
L 433.445969 -545.573017 
L 431.99579 -533.846692 
L 430.54561 -542.399229 
L 429.095431 -537.197072 
L 427.645252 -553.54626 
L 426.195073 -562.431111 
L 424.744893 -570.290593 
L 423.294714 -575.743981 
L 421.844535 -579.965347 
L 420.394355 -584.195617 
L 418.944176 -588.544694 
L 417.493997 -592.308869 
L 416.043817 -597.053094 
L 414.593638 -601.38857 
L 413.143459 -606.37617 
L 411.693279 -610.937472 
L 410.2431 -614.93752 
L 408.792921 -618.724242 
L 407.342741 -621.124032 
L 405.892562 -622.368595 
z
" style="stroke: #9467bd; stroke-opacity: 0.2"/>
    </defs>
    <g clip-path="url(#pecc8eba958)">
     <use xlink:href="#m41bd675d4a" x="0" y="720" style="fill: #9467bd; fill-opacity: 0.2; stroke: #9467bd; stroke-opacity: 0.2"/>
    </g>
   </g>
   <g id="PolyCollection_2">
    <defs>
     <path id="m76e00e3df9" d="M 405.892562 -481.409337 
L 405.892562 -481.409337 
L 407.342741 -481.409337 
L 408.792921 -481.409337 
L 410.2431 -481.409337 
L 411.693279 -481.409337 
L 413.143459 -481.409337 
L 414.593638 -481.409337 
L 416.043817 -481.409337 
L 417.493997 -481.409337 
L 418.944176 -481.409337 
L 420.394355 -481.409337 
L 421.844535 -481.409337 
L 423.294714 -481.409337 
L 424.744893 -481.409337 
L 426.195073 -481.409337 
L 427.645252 -481.409337 
L 429.095431 -481.409337 
L 430.54561 -481.409337 
L 431.99579 -481.409337 
L 433.445969 -481.409337 
L 434.896148 -481.409337 
L 436.346328 -481.409337 
L 437.796507 -481.408765 
L 439.246686 -481.405094 
L 440.696866 -481.386191 
L 442.147045 -481.30981 
L 443.597224 -481.068541 
L 445.047404 -480.460251 
L 446.497583 -479.218401 
L 447.947762 -477.125126 
L 449.397942 -469.475618 
L 450.848121 -467.30629 
L 452.2983 -463.822878 
L 453.74848 -461.864863 
L 455.198659 -462.380482 
L 456.648838 -464.441993 
L 458.099018 -466.432119 
L 459.549197 -469.500164 
L 460.999376 -470.289725 
L 462.449556 -470.909601 
L 463.899735 -469.093493 
L 465.349914 -467.487708 
L 466.800094 -467.670194 
L 468.250273 -469.359618 
L 469.700452 -473.363632 
L 471.150632 -476.60153 
L 472.600811 -479.08947 
L 474.05099 -480.51434 
L 475.501169 -481.135153 
L 476.951349 -481.343076 
L 478.401528 -481.396824 
L 479.851707 -481.407602 
L 481.301887 -481.409337 
L 482.752066 -481.409337 
L 484.202245 -481.409337 
L 485.652425 -481.409337 
L 487.102604 -481.409337 
L 488.552783 -481.409337 
L 490.002963 -481.409337 
L 491.453142 -481.409337 
L 492.903321 -481.409337 
L 494.353501 -481.409337 
L 495.80368 -481.409337 
L 497.253859 -481.409337 
L 498.704039 -481.409337 
L 500.154218 -481.409337 
L 501.604397 -481.409337 
L 503.054577 -481.407901 
L 504.504756 -481.398649 
L 505.954935 -481.351149 
L 507.405115 -481.161743 
L 508.855294 -480.570865 
L 510.305473 -479.119395 
L 511.755653 -476.289505 
L 513.205832 -471.860975 
L 514.656011 -463.649853 
L 516.106191 -458.244627 
L 517.55637 -452.82847 
L 519.006549 -449.105171 
L 520.456729 -447.568358 
L 521.906908 -447.126021 
L 523.357087 -447.632128 
L 524.807266 -448.516402 
L 526.257446 -448.9453 
L 527.707625 -450.841921 
L 529.157804 -452.865244 
L 530.607984 -455.115596 
L 532.058163 -458.628098 
L 533.508342 -463.189607 
L 534.958522 -468.601164 
L 536.408701 -470.049364 
L 537.85888 -478.925675 
L 539.30906 -475.246274 
L 540.759239 -474.732861 
L 542.209418 -475.993486 
L 543.659598 -480.922086 
L 545.109777 -481.077196 
L 546.559956 -481.237663 
L 548.010136 -481.341303 
L 549.460315 -481.38841 
L 550.910494 -481.404336 
L 552.360674 -481.408372 
L 553.810853 -481.409226 
L 555.261032 -481.409337 
L 556.711212 -481.409337 
L 558.161391 -481.409337 
L 559.61157 -481.409337 
L 561.06175 -481.409337 
L 562.511929 -481.409337 
L 563.962108 -481.409337 
L 565.412288 -481.409337 
L 566.862467 -481.409337 
L 568.312646 -481.409337 
L 569.762826 -481.409337 
L 571.213005 -481.409337 
L 572.663184 -481.409337 
L 574.113363 -481.409337 
L 575.563543 -481.409337 
L 577.013722 -481.409337 
L 578.463901 -481.409337 
L 579.914081 -481.409337 
L 581.36426 -481.409337 
L 582.814439 -481.409337 
L 584.264619 -481.409337 
L 585.714798 -481.409337 
L 587.164977 -481.409337 
L 588.615157 -481.409337 
L 590.065336 -481.409337 
L 591.515515 -481.409337 
L 592.965695 -481.409337 
L 594.415874 -481.409337 
L 595.866053 -481.409337 
L 597.316233 -481.409337 
L 598.766412 -481.409337 
L 600.216591 -481.409337 
L 601.666771 -481.409337 
L 603.11695 -481.409337 
L 604.567129 -481.409337 
L 606.017309 -481.409337 
L 607.467488 -481.409337 
L 608.917667 -481.409337 
L 610.367847 -481.409337 
L 611.818026 -481.409337 
L 613.268205 -481.409337 
L 614.718385 -481.409337 
L 616.168564 -481.409337 
L 617.618743 -481.409337 
L 619.068923 -481.409337 
L 620.519102 -481.409337 
L 621.969281 -481.409337 
L 623.41946 -481.409337 
L 624.86964 -481.409337 
L 626.319819 -481.409337 
L 627.769998 -481.409337 
L 629.220178 -481.409337 
L 630.670357 -481.409337 
L 632.120536 -481.409337 
L 633.570716 -481.409337 
L 635.020895 -481.409337 
L 636.471074 -481.409337 
L 636.471074 -481.409337 
L 636.471074 -481.409337 
L 635.020895 -481.409337 
L 633.570716 -481.409337 
L 632.120536 -481.409337 
L 630.670357 -481.409337 
L 629.220178 -481.409337 
L 627.769998 -481.409337 
L 626.319819 -481.409337 
L 624.86964 -481.409337 
L 623.41946 -481.409337 
L 621.969281 -481.409337 
L 620.519102 -481.409337 
L 619.068923 -481.409337 
L 617.618743 -481.409337 
L 616.168564 -481.409337 
L 614.718385 -481.409337 
L 613.268205 -481.409337 
L 611.818026 -481.409337 
L 610.367847 -481.409337 
L 608.917667 -481.409337 
L 607.467488 -481.409337 
L 606.017309 -481.409337 
L 604.567129 -481.409337 
L 603.11695 -481.409337 
L 601.666771 -481.409337 
L 600.216591 -481.409337 
L 598.766412 -481.409337 
L 597.316233 -481.409337 
L 595.866053 -481.409337 
L 594.415874 -481.409337 
L 592.965695 -481.409337 
L 591.515515 -481.409337 
L 590.065336 -481.409337 
L 588.615157 -481.409337 
L 587.164977 -481.409337 
L 585.714798 -481.409337 
L 584.264619 -481.409337 
L 582.814439 -481.409337 
L 581.36426 -481.409337 
L 579.914081 -481.409337 
L 578.463901 -481.409337 
L 577.013722 -481.409337 
L 575.563543 -481.409337 
L 574.113363 -481.409337 
L 572.663184 -481.409337 
L 571.213005 -481.409337 
L 569.762826 -481.409337 
L 568.312646 -481.409337 
L 566.862467 -481.409337 
L 565.412288 -481.409337 
L 563.962108 -481.409337 
L 562.511929 -481.409337 
L 561.06175 -481.409337 
L 559.61157 -481.409337 
L 558.161391 -481.409337 
L 556.711212 -481.409337 
L 555.261032 -481.409337 
L 553.810853 -481.409226 
L 552.360674 -481.408372 
L 550.910494 -481.404336 
L 549.460315 -481.38841 
L 548.010136 -481.341303 
L 546.559956 -481.237663 
L 545.109777 -481.077196 
L 543.659598 -480.922086 
L 542.209418 -485.721984 
L 540.759239 -486.902063 
L 539.30906 -485.54783 
L 537.85888 -478.925675 
L 536.408701 -481.718279 
L 534.958522 -474.156144 
L 533.508342 -469.274153 
L 532.058163 -464.412083 
L 530.607984 -460.719633 
L 529.157804 -457.95307 
L 527.707625 -456.337094 
L 526.257446 -455.364408 
L 524.807266 -453.569552 
L 523.357087 -452.87129 
L 521.906908 -452.542211 
L 520.456729 -452.703956 
L 519.006549 -454.463092 
L 517.55637 -457.630465 
L 516.106191 -462.371712 
L 514.656011 -468.790532 
L 513.205832 -471.860975 
L 511.755653 -476.289505 
L 510.305473 -479.119395 
L 508.855294 -480.570865 
L 507.405115 -481.161743 
L 505.954935 -481.351149 
L 504.504756 -481.398649 
L 503.054577 -481.407901 
L 501.604397 -481.409337 
L 500.154218 -481.409337 
L 498.704039 -481.409337 
L 497.253859 -481.409337 
L 495.80368 -481.409337 
L 494.353501 -481.409337 
L 492.903321 -481.409337 
L 491.453142 -481.409337 
L 490.002963 -481.409337 
L 488.552783 -481.409337 
L 487.102604 -481.409337 
L 485.652425 -481.409337 
L 484.202245 -481.409337 
L 482.752066 -481.409337 
L 481.301887 -481.409337 
L 479.851707 -481.407602 
L 478.401528 -481.396824 
L 476.951349 -481.343076 
L 475.501169 -481.135153 
L 474.05099 -480.51434 
L 472.600811 -479.08947 
L 471.150632 -476.60153 
L 469.700452 -473.363632 
L 468.250273 -471.416915 
L 466.800094 -469.944839 
L 465.349914 -470.530209 
L 463.899735 -471.595509 
L 462.449556 -472.345425 
L 460.999376 -473.450997 
L 459.549197 -471.951114 
L 458.099018 -470.666311 
L 456.648838 -468.018631 
L 455.198659 -467.326148 
L 453.74848 -468.553794 
L 452.2983 -470.914826 
L 450.848121 -474.031951 
L 449.397942 -478.855044 
L 447.947762 -477.125126 
L 446.497583 -479.218401 
L 445.047404 -480.460251 
L 443.597224 -481.068541 
L 442.147045 -481.30981 
L 440.696866 -481.386191 
L 439.246686 -481.405094 
L 437.796507 -481.408765 
L 436.346328 -481.409337 
L 434.896148 -481.409337 
L 433.445969 -481.409337 
L 431.99579 -481.409337 
L 430.54561 -481.409337 
L 429.095431 -481.409337 
L 427.645252 -481.409337 
L 426.195073 -481.409337 
L 424.744893 -481.409337 
L 423.294714 -481.409337 
L 421.844535 -481.409337 
L 420.394355 -481.409337 
L 418.944176 -481.409337 
L 417.493997 -481.409337 
L 416.043817 -481.409337 
L 414.593638 -481.409337 
L 413.143459 -481.409337 
L 411.693279 -481.409337 
L 410.2431 -481.409337 
L 408.792921 -481.409337 
L 407.342741 -481.409337 
L 405.892562 -481.409337 
z
" style="stroke: #1f77b4; stroke-opacity: 0.2"/>
    </defs>
    <g clip-path="url(#pecc8eba958)">
     <use xlink:href="#m76e00e3df9" x="0" y="720" style="fill: #1f77b4; fill-opacity: 0.2; stroke: #1f77b4; stroke-opacity: 0.2"/>
    </g>
   </g>
   <g id="PolyCollection_3">
    <defs>
     <path id="mcb36a76fa3" d="M 405.892562 -481.409337 
L 405.892562 -481.409337 
L 407.342741 -481.409337 
L 408.792921 -481.409337 
L 410.2431 -481.409337 
L 411.693279 -481.409337 
L 413.143459 -481.409337 
L 414.593638 -481.409337 
L 416.043817 -481.409337 
L 417.493997 -481.403819 
L 418.944176 -481.373359 
L 420.394355 -481.222035 
L 421.844535 -480.656766 
L 423.294714 -479.031439 
L 424.744893 -475.468483 
L 426.195073 -469.581659 
L 427.645252 -462.452104 
L 429.095431 -451.829754 
L 430.54561 -454.818304 
L 431.99579 -452.982289 
L 433.445969 -463.993243 
L 434.896148 -470.883416 
L 436.346328 -476.2431 
L 437.796507 -479.36872 
L 439.246686 -480.742066 
L 440.696866 -481.13299 
L 442.147045 -481.013445 
L 443.597224 -480.52686 
L 445.047404 -479.76923 
L 446.497583 -479.022996 
L 447.947762 -473.547788 
L 449.397942 -479.022996 
L 450.848121 -479.76923 
L 452.2983 -480.531451 
L 453.74848 -481.043379 
L 455.198659 -481.290528 
L 456.648838 -481.379297 
L 458.099018 -481.403422 
L 459.549197 -481.409833 
L 460.999376 -481.419598 
L 462.449556 -481.464559 
L 463.899735 -481.641729 
L 465.349914 -482.185701 
L 466.800094 -483.492726 
L 468.250273 -485.965905 
L 469.700452 -489.69223 
L 471.150632 -490.323331 
L 472.600811 -494.973889 
L 474.05099 -499.134613 
L 475.501169 -502.876737 
L 476.951349 -505.70118 
L 478.401528 -509.099006 
L 479.851707 -512.995685 
L 481.301887 -515.750072 
L 482.752066 -517.338804 
L 484.202245 -517.004947 
L 485.652425 -514.295012 
L 487.102604 -511.217123 
L 488.552783 -514.773054 
L 490.002963 -510.546523 
L 491.453142 -512.50615 
L 492.903321 -513.589076 
L 494.353501 -514.3907 
L 495.80368 -513.991571 
L 497.253859 -511.922109 
L 498.704039 -510.351351 
L 500.154218 -506.946235 
L 501.604397 -504.640169 
L 503.054577 -500.695729 
L 504.504756 -495.6122 
L 505.954935 -494.163624 
L 507.405115 -489.282584 
L 508.855294 -486.454456 
L 510.305473 -485.802495 
L 511.755653 -486.319727 
L 513.205832 -482.278241 
L 514.656011 -485.946525 
L 516.106191 -484.51801 
L 517.55637 -483.071983 
L 519.006549 -482.102431 
L 520.456729 -481.634351 
L 521.906908 -481.466229 
L 523.357087 -481.42054 
L 524.807266 -481.411055 
L 526.257446 -481.409337 
L 527.707625 -481.409337 
L 529.157804 -481.409337 
L 530.607984 -481.409337 
L 532.058163 -481.409337 
L 533.508342 -481.409337 
L 534.958522 -481.409337 
L 536.408701 -481.409337 
L 537.85888 -481.409337 
L 539.30906 -481.409337 
L 540.759239 -481.409337 
L 542.209418 -481.409337 
L 543.659598 -481.409337 
L 545.109777 -481.409337 
L 546.559956 -481.409337 
L 548.010136 -481.409337 
L 549.460315 -481.409337 
L 550.910494 -481.409337 
L 552.360674 -481.409337 
L 553.810853 -481.409337 
L 555.261032 -481.409337 
L 556.711212 -481.409337 
L 558.161391 -481.409337 
L 559.61157 -481.409337 
L 561.06175 -481.409337 
L 562.511929 -481.409337 
L 563.962108 -481.409337 
L 565.412288 -481.409337 
L 566.862467 -481.409337 
L 568.312646 -481.409337 
L 569.762826 -481.409337 
L 571.213005 -481.409337 
L 572.663184 -481.409337 
L 574.113363 -481.409337 
L 575.563543 -481.409337 
L 577.013722 -481.409337 
L 578.463901 -481.409337 
L 579.914081 -481.409337 
L 581.36426 -481.409337 
L 582.814439 -481.409337 
L 584.264619 -481.409337 
L 585.714798 -481.412201 
L 587.164977 -481.431028 
L 588.615157 -481.526535 
L 590.065336 -481.905042 
L 591.515515 -483.072895 
L 592.965695 -485.881753 
L 594.415874 -491.153784 
L 595.866053 -498.912181 
L 597.316233 -503.146827 
L 598.766412 -512.195268 
L 600.216591 -519.356918 
L 601.666771 -525.495777 
L 603.11695 -531.373464 
L 604.567129 -537.112442 
L 606.017309 -541.291755 
L 607.467488 -542.688145 
L 608.917667 -543.497773 
L 610.367847 -540.206769 
L 611.818026 -535.956407 
L 613.268205 -530.630994 
L 614.718385 -523.7188 
L 616.168564 -530.595372 
L 617.618743 -519.948062 
L 619.068923 -522.855715 
L 620.519102 -527.413352 
L 621.969281 -529.868828 
L 623.41946 -532.200056 
L 624.86964 -534.638303 
L 626.319819 -538.322782 
L 627.769998 -540.985364 
L 629.220178 -542.696013 
L 630.670357 -545.689008 
L 632.120536 -546.179046 
L 633.570716 -544.235037 
L 635.020895 -542.162066 
L 636.471074 -539.758309 
L 636.471074 -560.143708 
L 636.471074 -560.143708 
L 635.020895 -561.110371 
L 633.570716 -563.885172 
L 632.120536 -565.440494 
L 630.670357 -565.960711 
L 629.220178 -565.377696 
L 627.769998 -561.544237 
L 626.319819 -558.578758 
L 624.86964 -557.291006 
L 623.41946 -554.883518 
L 621.969281 -551.463022 
L 620.519102 -546.663593 
L 619.068923 -543.355377 
L 617.618743 -540.767585 
L 616.168564 -530.595372 
L 614.718385 -544.944141 
L 613.268205 -549.666649 
L 611.818026 -555.902332 
L 610.367847 -560.413218 
L 608.917667 -561.949606 
L 607.467488 -562.761768 
L 606.017309 -558.662605 
L 604.567129 -552.482301 
L 603.11695 -545.115061 
L 601.666771 -537.26635 
L 600.216591 -529.488163 
L 598.766412 -521.312499 
L 597.316233 -512.826414 
L 595.866053 -498.912181 
L 594.415874 -491.153784 
L 592.965695 -485.881753 
L 591.515515 -483.072895 
L 590.065336 -481.905042 
L 588.615157 -481.526535 
L 587.164977 -481.431028 
L 585.714798 -481.412201 
L 584.264619 -481.409337 
L 582.814439 -481.409337 
L 581.36426 -481.409337 
L 579.914081 -481.409337 
L 578.463901 -481.409337 
L 577.013722 -481.409337 
L 575.563543 -481.409337 
L 574.113363 -481.409337 
L 572.663184 -481.409337 
L 571.213005 -481.409337 
L 569.762826 -481.409337 
L 568.312646 -481.409337 
L 566.862467 -481.409337 
L 565.412288 -481.409337 
L 563.962108 -481.409337 
L 562.511929 -481.409337 
L 561.06175 -481.409337 
L 559.61157 -481.409337 
L 558.161391 -481.409337 
L 556.711212 -481.409337 
L 555.261032 -481.409337 
L 553.810853 -481.409337 
L 552.360674 -481.409337 
L 550.910494 -481.409337 
L 549.460315 -481.409337 
L 548.010136 -481.409337 
L 546.559956 -481.409337 
L 545.109777 -481.409337 
L 543.659598 -481.409337 
L 542.209418 -481.409337 
L 540.759239 -481.409337 
L 539.30906 -481.409337 
L 537.85888 -481.409337 
L 536.408701 -481.409337 
L 534.958522 -481.409337 
L 533.508342 -481.409337 
L 532.058163 -481.409337 
L 530.607984 -481.409337 
L 529.157804 -481.409337 
L 527.707625 -481.409337 
L 526.257446 -481.409337 
L 524.807266 -481.411055 
L 523.357087 -481.42054 
L 521.906908 -481.466229 
L 520.456729 -481.634351 
L 519.006549 -482.102431 
L 517.55637 -483.071983 
L 516.106191 -484.51801 
L 514.656011 -485.946525 
L 513.205832 -490.970926 
L 511.755653 -486.319727 
L 510.305473 -485.802495 
L 508.855294 -486.454456 
L 507.405115 -489.282584 
L 505.954935 -494.163624 
L 504.504756 -504.222564 
L 503.054577 -509.713626 
L 501.604397 -514.249058 
L 500.154218 -518.765781 
L 498.704039 -521.233111 
L 497.253859 -524.574311 
L 495.80368 -525.821998 
L 494.353501 -526.354753 
L 492.903321 -525.242055 
L 491.453142 -522.190368 
L 490.002963 -520.069652 
L 488.552783 -514.773054 
L 487.102604 -521.505081 
L 485.652425 -523.981185 
L 484.202245 -525.621111 
L 482.752066 -525.7947 
L 481.301887 -523.74466 
L 479.851707 -520.254067 
L 478.401528 -517.234319 
L 476.951349 -514.077021 
L 475.501169 -510.481194 
L 474.05099 -507.089869 
L 472.600811 -502.862109 
L 471.150632 -498.177173 
L 469.700452 -489.69223 
L 468.250273 -485.965905 
L 466.800094 -483.492726 
L 465.349914 -482.185701 
L 463.899735 -481.641729 
L 462.449556 -481.464559 
L 460.999376 -481.419598 
L 459.549197 -481.409833 
L 458.099018 -481.403422 
L 456.648838 -481.379297 
L 455.198659 -481.290528 
L 453.74848 -481.043379 
L 452.2983 -480.531451 
L 450.848121 -479.76923 
L 449.397942 -479.022996 
L 447.947762 -483.862728 
L 446.497583 -479.022996 
L 445.047404 -479.76923 
L 443.597224 -480.52686 
L 442.147045 -481.013445 
L 440.696866 -481.13299 
L 439.246686 -480.742066 
L 437.796507 -479.36872 
L 436.346328 -476.2431 
L 434.896148 -470.883416 
L 433.445969 -463.993243 
L 431.99579 -462.51609 
L 430.54561 -454.818304 
L 429.095431 -461.494575 
L 427.645252 -462.452104 
L 426.195073 -469.581659 
L 424.744893 -475.468483 
L 423.294714 -479.031439 
L 421.844535 -480.656766 
L 420.394355 -481.222035 
L 418.944176 -481.373359 
L 417.493997 -481.403819 
L 416.043817 -481.409337 
L 414.593638 -481.409337 
L 413.143459 -481.409337 
L 411.693279 -481.409337 
L 410.2431 -481.409337 
L 408.792921 -481.409337 
L 407.342741 -481.409337 
L 405.892562 -481.409337 
z
" style="stroke: #d62728; stroke-opacity: 0.2"/>
    </defs>
    <g clip-path="url(#pecc8eba958)">
     <use xlink:href="#mcb36a76fa3" x="0" y="720" style="fill: #d62728; fill-opacity: 0.2; stroke: #d62728; stroke-opacity: 0.2"/>
    </g>
   </g>
   <g id="PolyCollection_4">
    <defs>
     <path id="mf82e1dcbce" d="M 405.892562 -481.409337 
L 405.892562 -481.409337 
L 407.342741 -481.409337 
L 408.792921 -481.409337 
L 410.2431 -481.409337 
L 411.693279 -481.409337 
L 413.143459 -481.409337 
L 414.593638 -481.409337 
L 416.043817 -481.409337 
L 417.493997 -481.409337 
L 418.944176 -481.409337 
L 420.394355 -481.409337 
L 421.844535 -481.409337 
L 423.294714 -481.409337 
L 424.744893 -481.409337 
L 426.195073 -481.409337 
L 427.645252 -481.409337 
L 429.095431 -481.409337 
L 430.54561 -481.409337 
L 431.99579 -481.409337 
L 433.445969 -481.409337 
L 434.896148 -481.409337 
L 436.346328 -481.409337 
L 437.796507 -481.409337 
L 439.246686 -481.409337 
L 440.696866 -481.409337 
L 442.147045 -481.409337 
L 443.597224 -481.409337 
L 445.047404 -481.409337 
L 446.497583 -481.409337 
L 447.947762 -481.409337 
L 449.397942 -481.409337 
L 450.848121 -481.409337 
L 452.2983 -481.409337 
L 453.74848 -481.409337 
L 455.198659 -481.409337 
L 456.648838 -481.409337 
L 458.099018 -481.40765 
L 459.549197 -481.398338 
L 460.999376 -481.353479 
L 462.449556 -481.188416 
L 463.899735 -480.728854 
L 465.349914 -479.776943 
L 466.800094 -478.359624 
L 468.250273 -476.972031 
L 469.700452 -473.277742 
L 471.150632 -476.972031 
L 472.600811 -478.359624 
L 474.05099 -479.776943 
L 475.501169 -480.728854 
L 476.951349 -481.185824 
L 478.401528 -481.336576 
L 479.851707 -481.312494 
L 481.301887 -481.068131 
L 482.752066 -480.363546 
L 484.202245 -478.900614 
L 485.652425 -476.722426 
L 487.102604 -474.589922 
L 488.552783 -470.588548 
L 490.002963 -474.589922 
L 491.453142 -476.722426 
L 492.903321 -478.900614 
L 494.353501 -480.361138 
L 495.80368 -481.052077 
L 497.253859 -481.228645 
L 498.704039 -480.996197 
L 500.154218 -480.096475 
L 501.604397 -477.956553 
L 503.054577 -474.090194 
L 504.504756 -468.775253 
L 505.954935 -460.532015 
L 507.405115 -456.733491 
L 508.855294 -455.384699 
L 510.305473 -457.515585 
L 511.755653 -461.125607 
L 513.205832 -470.827539 
L 514.656011 -475.465337 
L 516.106191 -478.65892 
L 517.55637 -480.377479 
L 519.006549 -481.099423 
L 520.456729 -481.335497 
L 521.906908 -481.395587 
L 523.357087 -481.407462 
L 524.807266 -481.409337 
L 526.257446 -481.408375 
L 527.707625 -481.403064 
L 529.157804 -481.377483 
L 530.607984 -481.283351 
L 532.058163 -481.020305 
L 533.508342 -480.471419 
L 534.958522 -479.63295 
L 536.408701 -478.723637 
L 537.85888 -472.173165 
L 539.30906 -477.521801 
L 540.759239 -476.745965 
L 542.209418 -475.219018 
L 543.659598 -468.093836 
L 545.109777 -464.910763 
L 546.559956 -461.511586 
L 548.010136 -457.770985 
L 549.460315 -452.495791 
L 550.910494 -447.953375 
L 552.360674 -441.932975 
L 553.810853 -435.251666 
L 555.261032 -428.410831 
L 556.711212 -421.867925 
L 558.161391 -415.684466 
L 559.61157 -410.645568 
L 561.06175 -406.210527 
L 562.511929 -403.47174 
L 563.962108 -399.592214 
L 565.412288 -397.888224 
L 566.862467 -397.740496 
L 568.312646 -398.560198 
L 569.762826 -400.038171 
L 571.213005 -400.903532 
L 572.663184 -403.664299 
L 574.113363 -405.658693 
L 575.563543 -407.676513 
L 577.013722 -409.313341 
L 578.463901 -409.320522 
L 579.914081 -408.706051 
L 581.36426 -407.559565 
L 582.814439 -406.328215 
L 584.264619 -406.084443 
L 585.714798 -407.114285 
L 587.164977 -409.352249 
L 588.615157 -411.28568 
L 590.065336 -412.865856 
L 591.515515 -415.29514 
L 592.965695 -420.335495 
L 594.415874 -428.023655 
L 595.866053 -438.153343 
L 597.316233 -456.95698 
L 598.766412 -467.785738 
L 600.216591 -475.170214 
L 601.666771 -479.095158 
L 603.11695 -480.721535 
L 604.567129 -481.244208 
L 606.017309 -481.361334 
L 607.467488 -481.31352 
L 608.917667 -481.045987 
L 610.367847 -480.290142 
L 611.818026 -478.724528 
L 613.268205 -476.393455 
L 614.718385 -474.111271 
L 616.168564 -465.354823 
L 617.618743 -474.111271 
L 619.068923 -476.393455 
L 620.519102 -478.724528 
L 621.969281 -480.290142 
L 623.41946 -481.045987 
L 624.86964 -481.317468 
L 626.319819 -481.391247 
L 627.769998 -481.406562 
L 629.220178 -481.409337 
L 630.670357 -481.409337 
L 632.120536 -481.409337 
L 633.570716 -481.409337 
L 635.020895 -481.409337 
L 636.471074 -481.409337 
L 636.471074 -481.409337 
L 636.471074 -481.409337 
L 635.020895 -481.409337 
L 633.570716 -481.409337 
L 632.120536 -481.409337 
L 630.670357 -481.409337 
L 629.220178 -481.409337 
L 627.769998 -481.406562 
L 626.319819 -481.391247 
L 624.86964 -481.317468 
L 623.41946 -481.045987 
L 621.969281 -480.290142 
L 620.519102 -478.724528 
L 619.068923 -476.393455 
L 617.618743 -474.111271 
L 616.168564 -480.924268 
L 614.718385 -474.111271 
L 613.268205 -476.393455 
L 611.818026 -478.724528 
L 610.367847 -480.290142 
L 608.917667 -481.045987 
L 607.467488 -481.31352 
L 606.017309 -481.361334 
L 604.567129 -481.244208 
L 603.11695 -480.721535 
L 601.666771 -479.095158 
L 600.216591 -475.170214 
L 598.766412 -467.785738 
L 597.316233 -456.95698 
L 595.866053 -451.013158 
L 594.415874 -439.059418 
L 592.965695 -431.116636 
L 591.515515 -426.758028 
L 590.065336 -423.323227 
L 588.615157 -420.129109 
L 587.164977 -417.476266 
L 585.714798 -415.74357 
L 584.264619 -414.459114 
L 582.814439 -414.320091 
L 581.36426 -415.297056 
L 579.914081 -417.061176 
L 578.463901 -418.423517 
L 577.013722 -418.473829 
L 575.563543 -418.097968 
L 574.113363 -416.579299 
L 572.663184 -414.357166 
L 571.213005 -413.016045 
L 569.762826 -410.415296 
L 568.312646 -409.426778 
L 566.862467 -409.264036 
L 565.412288 -410.226042 
L 563.962108 -412.091959 
L 562.511929 -414.029834 
L 561.06175 -418.735986 
L 559.61157 -422.970312 
L 558.161391 -427.974871 
L 556.711212 -433.473386 
L 555.261032 -439.944699 
L 553.810853 -446.455436 
L 552.360674 -452.340583 
L 550.910494 -457.521395 
L 549.460315 -462.910682 
L 548.010136 -466.600722 
L 546.559956 -470.942602 
L 545.109777 -474.678199 
L 543.659598 -477.587294 
L 542.209418 -475.219018 
L 540.759239 -476.745965 
L 539.30906 -477.521801 
L 537.85888 -483.885196 
L 536.408701 -478.723637 
L 534.958522 -479.63295 
L 533.508342 -480.471419 
L 532.058163 -481.020305 
L 530.607984 -481.283351 
L 529.157804 -481.377483 
L 527.707625 -481.403064 
L 526.257446 -481.408375 
L 524.807266 -481.409337 
L 523.357087 -481.407462 
L 521.906908 -481.395587 
L 520.456729 -481.335497 
L 519.006549 -481.099423 
L 517.55637 -480.377479 
L 516.106191 -478.65892 
L 514.656011 -475.465337 
L 513.205832 -470.827539 
L 511.755653 -470.048811 
L 510.305473 -464.78031 
L 508.855294 -462.396205 
L 507.405115 -462.587976 
L 505.954935 -466.190634 
L 504.504756 -468.775253 
L 503.054577 -474.090194 
L 501.604397 -477.956553 
L 500.154218 -480.096475 
L 498.704039 -480.996197 
L 497.253859 -481.228645 
L 495.80368 -481.052077 
L 494.353501 -480.361138 
L 492.903321 -478.900614 
L 491.453142 -476.722426 
L 490.002963 -474.589922 
L 488.552783 -476.775306 
L 487.102604 -474.589922 
L 485.652425 -476.722426 
L 484.202245 -478.900614 
L 482.752066 -480.363546 
L 481.301887 -481.068131 
L 479.851707 -481.312494 
L 478.401528 -481.336576 
L 476.951349 -481.185824 
L 475.501169 -480.728854 
L 474.05099 -479.776943 
L 472.600811 -478.359624 
L 471.150632 -476.972031 
L 469.700452 -479.484679 
L 468.250273 -476.972031 
L 466.800094 -478.359624 
L 465.349914 -479.776943 
L 463.899735 -480.728854 
L 462.449556 -481.188416 
L 460.999376 -481.353479 
L 459.549197 -481.398338 
L 458.099018 -481.40765 
L 456.648838 -481.409337 
L 455.198659 -481.409337 
L 453.74848 -481.409337 
L 452.2983 -481.409337 
L 450.848121 -481.409337 
L 449.397942 -481.409337 
L 447.947762 -481.409337 
L 446.497583 -481.409337 
L 445.047404 -481.409337 
L 443.597224 -481.409337 
L 442.147045 -481.409337 
L 440.696866 -481.409337 
L 439.246686 -481.409337 
L 437.796507 -481.409337 
L 436.346328 -481.409337 
L 434.896148 -481.409337 
L 433.445969 -481.409337 
L 431.99579 -481.409337 
L 430.54561 -481.409337 
L 429.095431 -481.409337 
L 427.645252 -481.409337 
L 426.195073 -481.409337 
L 424.744893 -481.409337 
L 423.294714 -481.409337 
L 421.844535 -481.409337 
L 420.394355 -481.409337 
L 418.944176 -481.409337 
L 417.493997 -481.409337 
L 416.043817 -481.409337 
L 414.593638 -481.409337 
L 413.143459 -481.409337 
L 411.693279 -481.409337 
L 410.2431 -481.409337 
L 408.792921 -481.409337 
L 407.342741 -481.409337 
L 405.892562 -481.409337 
z
" style="stroke: #ff7f0e; stroke-opacity: 0.2"/>
    </defs>
    <g clip-path="url(#pecc8eba958)">
     <use xlink:href="#mf82e1dcbce" x="0" y="720" style="fill: #ff7f0e; fill-opacity: 0.2; stroke: #ff7f0e; stroke-opacity: 0.2"/>
    </g>
   </g>
   <g id="matplotlib.axis_3">
    <g id="xtick_7">
     <g id="line2d_13">
      <g>
       <use xlink:href="#m343cdf7d75" x="405.863558" y="333.490909" style="stroke: #000000; stroke-width: 0.8"/>
      </g>
     </g>
     <g id="text_13">
      <!-- 0 -->
      <g transform="translate(402.682308 348.089347)scale(0.1 -0.1)">
       <use xlink:href="#DejaVuSans-30"/>
      </g>
     </g>
    </g>
    <g id="xtick_8">
     <g id="line2d_14">
      <g>
       <use xlink:href="#m343cdf7d75" x="463.870731" y="333.490909" style="stroke: #000000; stroke-width: 0.8"/>
      </g>
     </g>
     <g id="text_14">
      <!-- 2000 -->
      <g transform="translate(451.145731 348.089347)scale(0.1 -0.1)">
       <use xlink:href="#DejaVuSans-32"/>
       <use xlink:href="#DejaVuSans-30" x="63.623047"/>
       <use xlink:href="#DejaVuSans-30" x="127.246094"/>
       <use xlink:href="#DejaVuSans-30" x="190.869141"/>
      </g>
     </g>
    </g>
    <g id="xtick_9">
     <g id="line2d_15">
      <g>
       <use xlink:href="#m343cdf7d75" x="521.877904" y="333.490909" style="stroke: #000000; stroke-width: 0.8"/>
      </g>
     </g>
     <g id="text_15">
      <!-- 4000 -->
      <g transform="translate(509.152904 348.089347)scale(0.1 -0.1)">
       <use xlink:href="#DejaVuSans-34"/>
       <use xlink:href="#DejaVuSans-30" x="63.623047"/>
       <use xlink:href="#DejaVuSans-30" x="127.246094"/>
       <use xlink:href="#DejaVuSans-30" x="190.869141"/>
      </g>
     </g>
    </g>
    <g id="xtick_10">
     <g id="line2d_16">
      <g>
       <use xlink:href="#m343cdf7d75" x="579.885077" y="333.490909" style="stroke: #000000; stroke-width: 0.8"/>
      </g>
     </g>
     <g id="text_16">
      <!-- 6000 -->
      <g transform="translate(567.160077 348.089347)scale(0.1 -0.1)">
       <use xlink:href="#DejaVuSans-36"/>
       <use xlink:href="#DejaVuSans-30" x="63.623047"/>
       <use xlink:href="#DejaVuSans-30" x="127.246094"/>
       <use xlink:href="#DejaVuSans-30" x="190.869141"/>
      </g>
     </g>
    </g>
    <g id="xtick_11">
     <g id="line2d_17">
      <g>
       <use xlink:href="#m343cdf7d75" x="637.89225" y="333.490909" style="stroke: #000000; stroke-width: 0.8"/>
      </g>
     </g>
     <g id="text_17">
      <!-- 8000 -->
      <g transform="translate(625.16725 348.089347)scale(0.1 -0.1)">
       <use xlink:href="#DejaVuSans-38"/>
       <use xlink:href="#DejaVuSans-30" x="63.623047"/>
       <use xlink:href="#DejaVuSans-30" x="127.246094"/>
       <use xlink:href="#DejaVuSans-30" x="190.869141"/>
      </g>
     </g>
    </g>
   </g>
   <g id="matplotlib.axis_4">
    <g id="ytick_7">
     <g id="line2d_18">
      <g>
       <use xlink:href="#m61e37578c3" x="394.363636" y="306.766135" style="stroke: #000000; stroke-width: 0.8"/>
      </g>
     </g>
     <g id="text_18">
      <!-- −4 -->
      <g transform="translate(372.621449 310.565354)scale(0.1 -0.1)">
       <defs>
        <path id="DejaVuSans-2212" d="M 678 2272 
L 4684 2272 
L 4684 1741 
L 678 1741 
L 678 2272 
z
" transform="scale(0.015625)"/>
       </defs>
       <use xlink:href="#DejaVuSans-2212"/>
       <use xlink:href="#DejaVuSans-34" x="83.789062"/>
      </g>
     </g>
    </g>
    <g id="ytick_8">
     <g id="line2d_19">
      <g>
       <use xlink:href="#m61e37578c3" x="394.363636" y="272.678399" style="stroke: #000000; stroke-width: 0.8"/>
      </g>
     </g>
     <g id="text_19">
      <!-- −2 -->
      <g transform="translate(372.621449 276.477618)scale(0.1 -0.1)">
       <use xlink:href="#DejaVuSans-2212"/>
       <use xlink:href="#DejaVuSans-32" x="83.789062"/>
      </g>
     </g>
    </g>
    <g id="ytick_9">
     <g id="line2d_20">
      <g>
       <use xlink:href="#m61e37578c3" x="394.363636" y="238.590663" style="stroke: #000000; stroke-width: 0.8"/>
      </g>
     </g>
     <g id="text_20">
      <!-- 0 -->
      <g transform="translate(381.001136 242.389882)scale(0.1 -0.1)">
       <use xlink:href="#DejaVuSans-30"/>
      </g>
     </g>
    </g>
    <g id="ytick_10">
     <g id="line2d_21">
      <g>
       <use xlink:href="#m61e37578c3" x="394.363636" y="204.502927" style="stroke: #000000; stroke-width: 0.8"/>
      </g>
     </g>
     <g id="text_21">
      <!-- 2 -->
      <g transform="translate(381.001136 208.302146)scale(0.1 -0.1)">
       <use xlink:href="#DejaVuSans-32"/>
      </g>
     </g>
    </g>
    <g id="ytick_11">
     <g id="line2d_22">
      <g>
       <use xlink:href="#m61e37578c3" x="394.363636" y="170.415191" style="stroke: #000000; stroke-width: 0.8"/>
      </g>
     </g>
     <g id="text_22">
      <!-- 4 -->
      <g transform="translate(381.001136 174.21441)scale(0.1 -0.1)">
       <use xlink:href="#DejaVuSans-34"/>
      </g>
     </g>
    </g>
    <g id="ytick_12">
     <g id="line2d_23">
      <g>
       <use xlink:href="#m61e37578c3" x="394.363636" y="136.327455" style="stroke: #000000; stroke-width: 0.8"/>
      </g>
     </g>
     <g id="text_23">
      <!-- 6 -->
      <g transform="translate(381.001136 140.126674)scale(0.1 -0.1)">
       <use xlink:href="#DejaVuSans-36"/>
      </g>
     </g>
    </g>
    <g id="ytick_13">
     <g id="line2d_24">
      <g>
       <use xlink:href="#m61e37578c3" x="394.363636" y="102.239719" style="stroke: #000000; stroke-width: 0.8"/>
      </g>
     </g>
     <g id="text_24">
      <!-- 8 -->
      <g transform="translate(381.001136 106.038938)scale(0.1 -0.1)">
       <use xlink:href="#DejaVuSans-38"/>
      </g>
     </g>
    </g>
   </g>
   <g id="line2d_25">
    <path d="M 405.892562 108.858264 
L 407.342741 109.951678 
L 408.792921 112.204744 
L 410.2431 115.539818 
L 411.693279 119.64104 
L 416.043817 132.874814 
L 423.294714 153.747103 
L 424.744893 159.434522 
L 426.195073 166.921247 
L 427.645252 175.459334 
L 429.095431 182.802928 
L 430.54561 186.596479 
L 431.99579 186.153308 
L 434.896148 179.850926 
L 436.346328 178.643026 
L 437.796507 179.760412 
L 439.246686 182.517929 
L 440.696866 186.234387 
L 442.147045 190.729613 
L 443.597224 196.293526 
L 445.047404 203.377136 
L 449.397942 228.757309 
L 450.848121 234.059223 
L 452.2983 236.898191 
L 453.74848 238.084487 
L 455.198659 238.470572 
L 458.099018 238.587684 
L 513.205832 238.590663 
L 636.471074 238.590663 
L 636.471074 238.590663 
" clip-path="url(#pecc8eba958)" style="fill: none; stroke: #9467bd; stroke-width: 2; stroke-linecap: square"/>
   </g>
   <g id="line2d_26">
    <path d="M 405.892562 238.590663 
L 442.147045 238.69019 
L 443.597224 238.931459 
L 445.047404 239.539749 
L 446.497583 240.781599 
L 447.947762 242.874874 
L 449.397942 245.834669 
L 452.2983 252.631148 
L 453.74848 254.790671 
L 455.198659 255.146685 
L 456.648838 253.769688 
L 459.549197 249.274361 
L 460.999376 248.129639 
L 462.449556 248.372487 
L 465.349914 250.991042 
L 466.800094 251.192483 
L 468.250273 249.611733 
L 469.700452 246.636368 
L 471.150632 243.39847 
L 472.600811 240.91053 
L 474.05099 239.48566 
L 475.501169 238.864847 
L 476.951349 238.656924 
L 481.301887 238.590663 
L 505.954935 238.648851 
L 507.405115 238.838257 
L 508.855294 239.429135 
L 510.305473 240.880605 
L 511.755653 243.710495 
L 513.205832 248.139025 
L 517.55637 264.770533 
L 519.006549 268.215868 
L 520.456729 269.863843 
L 521.906908 270.165884 
L 523.357087 269.748291 
L 524.807266 268.957023 
L 526.257446 267.845146 
L 527.707625 266.410493 
L 529.157804 264.590843 
L 530.607984 262.082386 
L 532.058163 258.47991 
L 533.508342 253.76812 
L 534.958522 248.621346 
L 536.408701 244.116179 
L 537.85888 241.074325 
L 539.30906 239.602948 
L 540.759239 239.182538 
L 543.659598 239.077914 
L 548.010136 238.658697 
L 552.360674 238.591628 
L 636.471074 238.590663 
L 636.471074 238.590663 
" clip-path="url(#pecc8eba958)" style="fill: none; stroke: #1f77b4; stroke-width: 2; stroke-linecap: square"/>
   </g>
   <g id="line2d_27">
    <path d="M 405.892562 238.590663 
L 418.944176 238.626641 
L 420.394355 238.777965 
L 421.844535 239.343234 
L 423.294714 240.968561 
L 424.744893 244.531517 
L 426.195073 250.418341 
L 427.645252 257.547896 
L 429.095431 263.337835 
L 430.54561 265.181696 
L 431.99579 262.25081 
L 433.445969 256.006757 
L 434.896148 249.116584 
L 436.346328 243.7569 
L 437.796507 240.63128 
L 439.246686 239.257934 
L 440.696866 238.86701 
L 442.147045 238.986555 
L 443.597224 239.47314 
L 446.497583 240.977004 
L 447.947762 241.294742 
L 449.397942 240.977004 
L 452.2983 239.468549 
L 453.74848 238.956621 
L 455.198659 238.709472 
L 458.099018 238.596578 
L 462.449556 238.535441 
L 463.899735 238.358271 
L 465.349914 237.814299 
L 466.800094 236.507274 
L 468.250273 234.034095 
L 469.700452 230.30777 
L 474.05099 216.887759 
L 475.501169 213.321034 
L 478.401528 206.833338 
L 479.851707 203.375124 
L 481.301887 200.252634 
L 482.752066 198.433248 
L 484.202245 198.686971 
L 485.652425 200.861902 
L 487.102604 203.638898 
L 488.552783 205.226946 
L 490.002963 204.691913 
L 492.903321 200.584435 
L 494.353501 199.627273 
L 495.80368 200.093216 
L 497.253859 201.75179 
L 498.704039 204.207769 
L 500.154218 207.143992 
L 501.604397 210.555386 
L 503.054577 214.795323 
L 504.504756 220.082618 
L 505.954935 225.836376 
L 507.405115 230.717416 
L 508.855294 233.545544 
L 510.305473 234.197505 
L 511.755653 233.680273 
L 513.205832 233.375417 
L 514.656011 234.053475 
L 517.55637 236.928017 
L 519.006549 237.897569 
L 520.456729 238.365649 
L 521.906908 238.533771 
L 526.257446 238.590663 
L 587.164977 238.568972 
L 588.615157 238.473465 
L 590.065336 238.094958 
L 591.515515 236.927105 
L 592.965695 234.118247 
L 594.415874 228.846216 
L 595.866053 221.087819 
L 598.766412 203.246116 
L 600.216591 195.57746 
L 604.567129 175.202628 
L 606.017309 170.02282 
L 607.467488 167.275043 
L 608.917667 167.27631 
L 610.367847 169.690006 
L 611.818026 174.070631 
L 614.718385 185.66853 
L 616.168564 189.404628 
L 617.618743 189.642176 
L 619.068923 186.894454 
L 621.969281 179.334075 
L 623.41946 176.458213 
L 626.319819 171.54923 
L 629.220178 165.963146 
L 630.670357 164.17514 
L 632.120536 164.19023 
L 633.570716 165.939895 
L 635.020895 168.363781 
L 636.471074 170.048991 
L 636.471074 170.048991 
" clip-path="url(#pecc8eba958)" style="fill: none; stroke: #d62728; stroke-width: 2; stroke-linecap: square"/>
   </g>
   <g id="line2d_28">
    <path d="M 405.892562 238.590663 
L 460.999376 238.646521 
L 462.449556 238.811584 
L 463.899735 239.271146 
L 465.349914 240.223057 
L 468.250273 243.027969 
L 469.700452 243.61879 
L 471.150632 243.027969 
L 474.05099 240.223057 
L 475.501169 239.271146 
L 476.951349 238.814176 
L 478.401528 238.663424 
L 479.851707 238.687506 
L 481.301887 238.931869 
L 482.752066 239.636454 
L 484.202245 241.099386 
L 487.102604 245.410078 
L 488.552783 246.318073 
L 490.002963 245.410078 
L 492.903321 241.099386 
L 494.353501 239.638862 
L 495.80368 238.947923 
L 497.253859 238.771355 
L 498.704039 239.003803 
L 500.154218 239.903525 
L 501.604397 242.043447 
L 503.054577 245.909806 
L 505.954935 256.638676 
L 507.405115 260.339267 
L 508.855294 261.109548 
L 510.305473 258.852053 
L 511.755653 254.412791 
L 513.205832 249.172461 
L 514.656011 244.534663 
L 516.106191 241.34108 
L 517.55637 239.622521 
L 519.006549 238.900577 
L 520.456729 238.664503 
L 524.807266 238.590663 
L 529.157804 238.622517 
L 530.607984 238.716649 
L 532.058163 238.979695 
L 533.508342 239.528581 
L 537.85888 241.970819 
L 539.30906 242.478199 
L 540.759239 243.254035 
L 542.209418 244.780982 
L 543.659598 247.159435 
L 545.109777 250.205519 
L 546.559956 253.772906 
L 548.010136 257.814146 
L 549.460315 262.296763 
L 550.910494 267.262615 
L 552.360674 272.863221 
L 555.261032 285.822235 
L 556.711212 292.329344 
L 558.161391 298.170332 
L 559.61157 303.19206 
L 561.06175 307.526743 
L 562.511929 311.249213 
L 563.962108 314.157914 
L 565.412288 315.942867 
L 566.862467 316.497734 
L 568.312646 316.006512 
L 569.762826 314.773267 
L 571.213005 313.040211 
L 574.113363 308.881004 
L 575.563543 307.11276 
L 577.013722 306.106415 
L 578.463901 306.127981 
L 579.914081 307.116387 
L 581.36426 308.57169 
L 582.814439 309.675847 
L 584.264619 309.728221 
L 585.714798 308.571072 
L 587.164977 306.585742 
L 590.065336 301.905459 
L 591.515515 298.973416 
L 592.965695 294.273934 
L 594.415874 286.458464 
L 595.866053 275.416749 
L 597.316233 263.04302 
L 598.766412 252.214262 
L 600.216591 244.829786 
L 601.666771 240.904842 
L 603.11695 239.278465 
L 604.567129 238.755792 
L 606.017309 238.638666 
L 607.467488 238.68648 
L 608.917667 238.954013 
L 610.367847 239.709858 
L 611.818026 241.275472 
L 614.718385 245.888729 
L 616.168564 246.860455 
L 617.618743 245.888729 
L 620.519102 241.275472 
L 621.969281 239.709858 
L 623.41946 238.954013 
L 624.86964 238.682532 
L 627.769998 238.593438 
L 636.471074 238.590663 
L 636.471074 238.590663 
" clip-path="url(#pecc8eba958)" style="fill: none; stroke: #ff7f0e; stroke-width: 2; stroke-linecap: square"/>
   </g>
   <g id="LineCollection_1">
    <path d="M 521.877904 314.187675 
L 521.877904 111.550305 
" clip-path="url(#pecc8eba958)" style="fill: none; stroke-dasharray: 7.4,3.2; stroke-dashoffset: 0; stroke: #000000; stroke-width: 2"/>
    <path d="M 536.379697 314.187675 
L 536.379697 111.550305 
" clip-path="url(#pecc8eba958)" style="fill: none; stroke-dasharray: 7.4,3.2; stroke-dashoffset: 0; stroke: #000000; stroke-width: 2"/>
    <path d="M 565.383284 314.187675 
L 565.383284 111.550305 
" clip-path="url(#pecc8eba958)" style="fill: none; stroke-dasharray: 7.4,3.2; stroke-dashoffset: 0; stroke: #000000; stroke-width: 2"/>
    <path d="M 623.390457 314.187675 
L 623.390457 111.550305 
" clip-path="url(#pecc8eba958)" style="fill: none; stroke-dasharray: 7.4,3.2; stroke-dashoffset: 0; stroke: #000000; stroke-width: 2"/>
   </g>
   <g id="patch_8">
    <path d="M 394.363636 333.490909 
L 394.363636 86.4 
" style="fill: none; stroke: #000000; stroke-width: 0.8; stroke-linejoin: miter; stroke-linecap: square"/>
   </g>
   <g id="patch_9">
    <path d="M 648 333.490909 
L 648 86.4 
" style="fill: none; stroke: #000000; stroke-width: 0.8; stroke-linejoin: miter; stroke-linecap: square"/>
   </g>
   <g id="patch_10">
    <path d="M 394.363636 333.490909 
L 648 333.490909 
" style="fill: none; stroke: #000000; stroke-width: 0.8; stroke-linejoin: miter; stroke-linecap: square"/>
   </g>
   <g id="patch_11">
    <path d="M 394.363636 86.4 
L 648 86.4 
" style="fill: none; stroke: #000000; stroke-width: 0.8; stroke-linejoin: miter; stroke-linecap: square"/>
   </g>
   <g id="text_25">
    <!-- unit_48 -->
    <g transform="translate(498.922756 80.4)scale(0.12 -0.12)">
     <defs>
      <path id="DejaVuSans-75" d="M 544 1381 
L 544 3500 
L 1119 3500 
L 1119 1403 
Q 1119 906 1312 657 
Q 1506 409 1894 409 
Q 2359 409 2629 706 
Q 2900 1003 2900 1516 
L 2900 3500 
L 3475 3500 
L 3475 0 
L 2900 0 
L 2900 538 
Q 2691 219 2414 64 
Q 2138 -91 1772 -91 
Q 1169 -91 856 284 
Q 544 659 544 1381 
z
M 1991 3584 
L 1991 3584 
z
" transform="scale(0.015625)"/>
      <path id="DejaVuSans-6e" d="M 3513 2113 
L 3513 0 
L 2938 0 
L 2938 2094 
Q 2938 2591 2744 2837 
Q 2550 3084 2163 3084 
Q 1697 3084 1428 2787 
Q 1159 2491 1159 1978 
L 1159 0 
L 581 0 
L 581 3500 
L 1159 3500 
L 1159 2956 
Q 1366 3272 1645 3428 
Q 1925 3584 2291 3584 
Q 2894 3584 3203 3211 
Q 3513 2838 3513 2113 
z
" transform="scale(0.015625)"/>
      <path id="DejaVuSans-69" d="M 603 3500 
L 1178 3500 
L 1178 0 
L 603 0 
L 603 3500 
z
M 603 4863 
L 1178 4863 
L 1178 4134 
L 603 4134 
L 603 4863 
z
" transform="scale(0.015625)"/>
      <path id="DejaVuSans-74" d="M 1172 4494 
L 1172 3500 
L 2356 3500 
L 2356 3053 
L 1172 3053 
L 1172 1153 
Q 1172 725 1289 603 
Q 1406 481 1766 481 
L 2356 481 
L 2356 0 
L 1766 0 
Q 1100 0 847 248 
Q 594 497 594 1153 
L 594 3053 
L 172 3053 
L 172 3500 
L 594 3500 
L 594 4494 
L 1172 4494 
z
" transform="scale(0.015625)"/>
      <path id="DejaVuSans-5f" d="M 3263 -1063 
L 3263 -1509 
L -63 -1509 
L -63 -1063 
L 3263 -1063 
z
" transform="scale(0.015625)"/>
     </defs>
     <use xlink:href="#DejaVuSans-75"/>
     <use xlink:href="#DejaVuSans-6e" x="63.378906"/>
     <use xlink:href="#DejaVuSans-69" x="126.757812"/>
     <use xlink:href="#DejaVuSans-74" x="154.541016"/>
     <use xlink:href="#DejaVuSans-5f" x="193.75"/>
     <use xlink:href="#DejaVuSans-34" x="243.75"/>
     <use xlink:href="#DejaVuSans-38" x="307.373047"/>
    </g>
   </g>
  </g>
  <g id="axes_3">
   <g id="patch_12">
    <path d="M 90 630 
L 343.636364 630 
L 343.636364 382.909091 
L 90 382.909091 
z
" style="fill: #ffffff"/>
   </g>
   <g id="matplotlib.axis_5">
    <g id="xtick_12">
     <g id="line2d_29">
      <g>
       <use xlink:href="#m343cdf7d75" x="90" y="630" style="stroke: #000000; stroke-width: 0.8"/>
      </g>
     </g>
     <g id="text_26">
      <!-- 0.0 -->
      <g transform="translate(82.048438 644.598437)scale(0.1 -0.1)">
       <use xlink:href="#DejaVuSans-30"/>
       <use xlink:href="#DejaVuSans-2e" x="63.623047"/>
       <use xlink:href="#DejaVuSans-30" x="95.410156"/>
      </g>
     </g>
    </g>
    <g id="xtick_13">
     <g id="line2d_30">
      <g>
       <use xlink:href="#m343cdf7d75" x="140.727273" y="630" style="stroke: #000000; stroke-width: 0.8"/>
      </g>
     </g>
     <g id="text_27">
      <!-- 0.2 -->
      <g transform="translate(132.77571 644.598437)scale(0.1 -0.1)">
       <use xlink:href="#DejaVuSans-30"/>
       <use xlink:href="#DejaVuSans-2e" x="63.623047"/>
       <use xlink:href="#DejaVuSans-32" x="95.410156"/>
      </g>
     </g>
    </g>
    <g id="xtick_14">
     <g id="line2d_31">
      <g>
       <use xlink:href="#m343cdf7d75" x="191.454545" y="630" style="stroke: #000000; stroke-width: 0.8"/>
      </g>
     </g>
     <g id="text_28">
      <!-- 0.4 -->
      <g transform="translate(183.502983 644.598437)scale(0.1 -0.1)">
       <use xlink:href="#DejaVuSans-30"/>
       <use xlink:href="#DejaVuSans-2e" x="63.623047"/>
       <use xlink:href="#DejaVuSans-34" x="95.410156"/>
      </g>
     </g>
    </g>
    <g id="xtick_15">
     <g id="line2d_32">
      <g>
       <use xlink:href="#m343cdf7d75" x="242.181818" y="630" style="stroke: #000000; stroke-width: 0.8"/>
      </g>
     </g>
     <g id="text_29">
      <!-- 0.6 -->
      <g transform="translate(234.230256 644.598437)scale(0.1 -0.1)">
       <use xlink:href="#DejaVuSans-30"/>
       <use xlink:href="#DejaVuSans-2e" x="63.623047"/>
       <use xlink:href="#DejaVuSans-36" x="95.410156"/>
      </g>
     </g>
    </g>
    <g id="xtick_16">
     <g id="line2d_33">
      <g>
       <use xlink:href="#m343cdf7d75" x="292.909091" y="630" style="stroke: #000000; stroke-width: 0.8"/>
      </g>
     </g>
     <g id="text_30">
      <!-- 0.8 -->
      <g transform="translate(284.957528 644.598437)scale(0.1 -0.1)">
       <use xlink:href="#DejaVuSans-30"/>
       <use xlink:href="#DejaVuSans-2e" x="63.623047"/>
       <use xlink:href="#DejaVuSans-38" x="95.410156"/>
      </g>
     </g>
    </g>
    <g id="xtick_17">
     <g id="line2d_34">
      <g>
       <use xlink:href="#m343cdf7d75" x="343.636364" y="630" style="stroke: #000000; stroke-width: 0.8"/>
      </g>
     </g>
     <g id="text_31">
      <!-- 1.0 -->
      <g transform="translate(335.684801 644.598437)scale(0.1 -0.1)">
       <use xlink:href="#DejaVuSans-31"/>
       <use xlink:href="#DejaVuSans-2e" x="63.623047"/>
       <use xlink:href="#DejaVuSans-30" x="95.410156"/>
      </g>
     </g>
    </g>
   </g>
   <g id="matplotlib.axis_6">
    <g id="ytick_14">
     <g id="line2d_35">
      <g>
       <use xlink:href="#m61e37578c3" x="90" y="630" style="stroke: #000000; stroke-width: 0.8"/>
      </g>
     </g>
     <g id="text_32">
      <!-- 0.0 -->
      <g transform="translate(67.096875 633.799219)scale(0.1 -0.1)">
       <use xlink:href="#DejaVuSans-30"/>
       <use xlink:href="#DejaVuSans-2e" x="63.623047"/>
       <use xlink:href="#DejaVuSans-30" x="95.410156"/>
      </g>
     </g>
    </g>
    <g id="ytick_15">
     <g id="line2d_36">
      <g>
       <use xlink:href="#m61e37578c3" x="90" y="580.581818" style="stroke: #000000; stroke-width: 0.8"/>
      </g>
     </g>
     <g id="text_33">
      <!-- 0.2 -->
      <g transform="translate(67.096875 584.381037)scale(0.1 -0.1)">
       <use xlink:href="#DejaVuSans-30"/>
       <use xlink:href="#DejaVuSans-2e" x="63.623047"/>
       <use xlink:href="#DejaVuSans-32" x="95.410156"/>
      </g>
     </g>
    </g>
    <g id="ytick_16">
     <g id="line2d_37">
      <g>
       <use xlink:href="#m61e37578c3" x="90" y="531.163636" style="stroke: #000000; stroke-width: 0.8"/>
      </g>
     </g>
     <g id="text_34">
      <!-- 0.4 -->
      <g transform="translate(67.096875 534.962855)scale(0.1 -0.1)">
       <use xlink:href="#DejaVuSans-30"/>
       <use xlink:href="#DejaVuSans-2e" x="63.623047"/>
       <use xlink:href="#DejaVuSans-34" x="95.410156"/>
      </g>
     </g>
    </g>
    <g id="ytick_17">
     <g id="line2d_38">
      <g>
       <use xlink:href="#m61e37578c3" x="90" y="481.745455" style="stroke: #000000; stroke-width: 0.8"/>
      </g>
     </g>
     <g id="text_35">
      <!-- 0.6 -->
      <g transform="translate(67.096875 485.544673)scale(0.1 -0.1)">
       <use xlink:href="#DejaVuSans-30"/>
       <use xlink:href="#DejaVuSans-2e" x="63.623047"/>
       <use xlink:href="#DejaVuSans-36" x="95.410156"/>
      </g>
     </g>
    </g>
    <g id="ytick_18">
     <g id="line2d_39">
      <g>
       <use xlink:href="#m61e37578c3" x="90" y="432.327273" style="stroke: #000000; stroke-width: 0.8"/>
      </g>
     </g>
     <g id="text_36">
      <!-- 0.8 -->
      <g transform="translate(67.096875 436.126491)scale(0.1 -0.1)">
       <use xlink:href="#DejaVuSans-30"/>
       <use xlink:href="#DejaVuSans-2e" x="63.623047"/>
       <use xlink:href="#DejaVuSans-38" x="95.410156"/>
      </g>
     </g>
    </g>
    <g id="ytick_19">
     <g id="line2d_40">
      <g>
       <use xlink:href="#m61e37578c3" x="90" y="382.909091" style="stroke: #000000; stroke-width: 0.8"/>
      </g>
     </g>
     <g id="text_37">
      <!-- 1.0 -->
      <g transform="translate(67.096875 386.70831)scale(0.1 -0.1)">
       <use xlink:href="#DejaVuSans-31"/>
       <use xlink:href="#DejaVuSans-2e" x="63.623047"/>
       <use xlink:href="#DejaVuSans-30" x="95.410156"/>
      </g>
     </g>
    </g>
   </g>
   <g id="patch_13">
    <path d="M 90 630 
L 90 382.909091 
" style="fill: none; stroke: #000000; stroke-width: 0.8; stroke-linejoin: miter; stroke-linecap: square"/>
   </g>
   <g id="patch_14">
    <path d="M 343.636364 630 
L 343.636364 382.909091 
" style="fill: none; stroke: #000000; stroke-width: 0.8; stroke-linejoin: miter; stroke-linecap: square"/>
   </g>
   <g id="patch_15">
    <path d="M 90 630 
L 343.636364 630 
" style="fill: none; stroke: #000000; stroke-width: 0.8; stroke-linejoin: miter; stroke-linecap: square"/>
   </g>
   <g id="patch_16">
    <path d="M 90 382.909091 
L 343.636364 382.909091 
" style="fill: none; stroke: #000000; stroke-width: 0.8; stroke-linejoin: miter; stroke-linecap: square"/>
   </g>
  </g>
  <g id="axes_4">
   <g id="patch_17">
    <path d="M 394.363636 630 
L 648 630 
L 648 382.909091 
L 394.363636 382.909091 
z
" style="fill: #ffffff"/>
   </g>
   <g id="matplotlib.axis_7">
    <g id="xtick_18">
     <g id="line2d_41">
      <g>
       <use xlink:href="#m343cdf7d75" x="405.863558" y="630" style="stroke: #000000; stroke-width: 0.8"/>
      </g>
     </g>
     <g id="text_38">
      <!-- 0 -->
      <g transform="translate(402.682308 644.598437)scale(0.1 -0.1)">
       <use xlink:href="#DejaVuSans-30"/>
      </g>
     </g>
    </g>
    <g id="xtick_19">
     <g id="line2d_42">
      <g>
       <use xlink:href="#m343cdf7d75" x="463.870731" y="630" style="stroke: #000000; stroke-width: 0.8"/>
      </g>
     </g>
     <g id="text_39">
      <!-- 2000 -->
      <g transform="translate(451.145731 644.598437)scale(0.1 -0.1)">
       <use xlink:href="#DejaVuSans-32"/>
       <use xlink:href="#DejaVuSans-30" x="63.623047"/>
       <use xlink:href="#DejaVuSans-30" x="127.246094"/>
       <use xlink:href="#DejaVuSans-30" x="190.869141"/>
      </g>
     </g>
    </g>
    <g id="xtick_20">
     <g id="line2d_43">
      <g>
       <use xlink:href="#m343cdf7d75" x="521.877904" y="630" style="stroke: #000000; stroke-width: 0.8"/>
      </g>
     </g>
     <g id="text_40">
      <!-- 4000 -->
      <g transform="translate(509.152904 644.598437)scale(0.1 -0.1)">
       <use xlink:href="#DejaVuSans-34"/>
       <use xlink:href="#DejaVuSans-30" x="63.623047"/>
       <use xlink:href="#DejaVuSans-30" x="127.246094"/>
       <use xlink:href="#DejaVuSans-30" x="190.869141"/>
      </g>
     </g>
    </g>
    <g id="xtick_21">
     <g id="line2d_44">
      <g>
       <use xlink:href="#m343cdf7d75" x="579.885077" y="630" style="stroke: #000000; stroke-width: 0.8"/>
      </g>
     </g>
     <g id="text_41">
      <!-- 6000 -->
      <g transform="translate(567.160077 644.598437)scale(0.1 -0.1)">
       <use xlink:href="#DejaVuSans-36"/>
       <use xlink:href="#DejaVuSans-30" x="63.623047"/>
       <use xlink:href="#DejaVuSans-30" x="127.246094"/>
       <use xlink:href="#DejaVuSans-30" x="190.869141"/>
      </g>
     </g>
    </g>
    <g id="xtick_22">
     <g id="line2d_45">
      <g>
       <use xlink:href="#m343cdf7d75" x="637.89225" y="630" style="stroke: #000000; stroke-width: 0.8"/>
      </g>
     </g>
     <g id="text_42">
      <!-- 8000 -->
      <g transform="translate(625.16725 644.598437)scale(0.1 -0.1)">
       <use xlink:href="#DejaVuSans-38"/>
       <use xlink:href="#DejaVuSans-30" x="63.623047"/>
       <use xlink:href="#DejaVuSans-30" x="127.246094"/>
       <use xlink:href="#DejaVuSans-30" x="190.869141"/>
      </g>
     </g>
    </g>
   </g>
   <g id="matplotlib.axis_8">
    <g id="ytick_20">
     <g id="line2d_46">
      <g>
       <use xlink:href="#m61e37578c3" x="394.363636" y="630" style="stroke: #000000; stroke-width: 0.8"/>
      </g>
     </g>
     <g id="text_43">
      <!-- −2 -->
      <g transform="translate(372.621449 633.799219)scale(0.1 -0.1)">
       <use xlink:href="#DejaVuSans-2212"/>
       <use xlink:href="#DejaVuSans-32" x="83.789062"/>
      </g>
     </g>
    </g>
    <g id="ytick_21">
     <g id="line2d_47">
      <g>
       <use xlink:href="#m61e37578c3" x="394.363636" y="590.31609" style="stroke: #000000; stroke-width: 0.8"/>
      </g>
     </g>
     <g id="text_44">
      <!-- 0 -->
      <g transform="translate(381.001136 594.115308)scale(0.1 -0.1)">
       <use xlink:href="#DejaVuSans-30"/>
      </g>
     </g>
    </g>
    <g id="ytick_22">
     <g id="line2d_48">
      <g>
       <use xlink:href="#m61e37578c3" x="394.363636" y="550.632179" style="stroke: #000000; stroke-width: 0.8"/>
      </g>
     </g>
     <g id="text_45">
      <!-- 2 -->
      <g transform="translate(381.001136 554.431398)scale(0.1 -0.1)">
       <use xlink:href="#DejaVuSans-32"/>
      </g>
     </g>
    </g>
    <g id="ytick_23">
     <g id="line2d_49">
      <g>
       <use xlink:href="#m61e37578c3" x="394.363636" y="510.948269" style="stroke: #000000; stroke-width: 0.8"/>
      </g>
     </g>
     <g id="text_46">
      <!-- 4 -->
      <g transform="translate(381.001136 514.747488)scale(0.1 -0.1)">
       <use xlink:href="#DejaVuSans-34"/>
      </g>
     </g>
    </g>
    <g id="ytick_24">
     <g id="line2d_50">
      <g>
       <use xlink:href="#m61e37578c3" x="394.363636" y="471.264358" style="stroke: #000000; stroke-width: 0.8"/>
      </g>
     </g>
     <g id="text_47">
      <!-- 6 -->
      <g transform="translate(381.001136 475.063577)scale(0.1 -0.1)">
       <use xlink:href="#DejaVuSans-36"/>
      </g>
     </g>
    </g>
    <g id="ytick_25">
     <g id="line2d_51">
      <g>
       <use xlink:href="#m61e37578c3" x="394.363636" y="431.580448" style="stroke: #000000; stroke-width: 0.8"/>
      </g>
     </g>
     <g id="text_48">
      <!-- 8 -->
      <g transform="translate(381.001136 435.379667)scale(0.1 -0.1)">
       <use xlink:href="#DejaVuSans-38"/>
      </g>
     </g>
    </g>
    <g id="ytick_26">
     <g id="line2d_52">
      <g>
       <use xlink:href="#m61e37578c3" x="394.363636" y="391.896538" style="stroke: #000000; stroke-width: 0.8"/>
      </g>
     </g>
     <g id="text_49">
      <!-- 10 -->
      <g transform="translate(374.638636 395.695756)scale(0.1 -0.1)">
       <use xlink:href="#DejaVuSans-31"/>
       <use xlink:href="#DejaVuSans-30" x="63.623047"/>
      </g>
     </g>
    </g>
   </g>
   <g id="line2d_53">
    <path d="M 405.892562 382.909091 
L 407.342741 389.641126 
L 408.792921 420.682588 
L 410.2431 440.417388 
L 411.693279 448.306775 
L 413.143459 460.545958 
L 414.593638 443.243244 
L 416.043817 420.791798 
L 417.493997 447.582334 
L 420.394355 570.321363 
L 421.844535 617.978078 
L 423.294714 644.164965 
L 424.744893 664.258425 
L 426.195073 688.354604 
L 427.645252 690.001682 
L 429.095431 680.896657 
L 430.54561 693.928165 
L 431.99579 705.264071 
L 432.413193 721 
M 441.715502 721 
L 442.147045 716.003244 
L 443.597224 707.725276 
L 445.047404 711.255629 
L 446.497583 696.4621 
L 447.947762 662.821145 
L 449.397942 645.840545 
L 450.848121 641.831213 
L 452.2983 631.24153 
L 453.74848 614.815232 
L 455.198659 601.004326 
L 456.648838 594.463961 
L 458.099018 593.492912 
L 459.549197 593.082267 
L 462.449556 591.300684 
L 463.899735 590.982157 
L 465.349914 590.529165 
L 466.800094 593.564189 
L 468.250273 618.573374 
L 469.700452 640.148555 
L 471.150632 610.486046 
L 472.600811 574.878046 
L 474.05099 548.798895 
L 475.501169 527.914586 
L 476.951349 523.443829 
L 478.401528 517.781096 
L 479.851707 492.228385 
L 481.301887 459.02521 
L 482.752066 439.139076 
L 484.202245 438.067689 
L 485.652425 467.702268 
L 487.102604 540.603489 
L 488.552783 591.590393 
L 490.002963 539.653187 
L 491.453142 492.359005 
L 492.903321 526.560825 
L 495.80368 660.730735 
L 497.253859 707.375999 
L 498.148173 721 
M 501.999242 721 
L 503.054577 666.079924 
L 504.504756 580.416105 
L 505.954935 563.05288 
L 507.405115 599.22424 
L 508.855294 639.522254 
L 510.305473 659.603491 
L 511.755653 634.741495 
L 513.205832 591.322386 
L 514.656011 578.491112 
L 516.106191 581.361476 
L 517.55637 576.264953 
L 519.006549 570.432835 
L 520.456729 573.111225 
L 521.906908 579.957795 
L 523.357087 583.873924 
L 524.807266 582.748887 
L 526.257446 581.181462 
L 530.607984 585.09837 
L 532.058163 588.540831 
L 533.508342 594.72345 
L 534.958522 603.333037 
L 536.408701 613.411265 
L 537.85888 616.932915 
L 539.30906 611.373712 
L 540.759239 605.323909 
L 542.209418 599.849346 
L 543.659598 597.439144 
L 545.109777 599.893071 
L 546.559956 595.384078 
L 548.010136 581.591168 
L 549.460315 569.633288 
L 550.910494 563.115848 
L 552.360674 559.194432 
L 553.810853 554.261428 
L 555.261032 546.451284 
L 556.711212 529.402619 
L 558.161391 509.33915 
L 559.61157 493.251504 
L 562.511929 464.730641 
L 563.962108 460.832348 
L 566.862467 482.587873 
L 568.312646 491.378942 
L 569.762826 511.889617 
L 571.213005 534.196561 
L 572.663184 544.180146 
L 574.113363 548.843946 
L 575.563543 549.761999 
L 577.013722 543.518946 
L 578.463901 531.750608 
L 579.914081 511.944698 
L 581.36426 497.575686 
L 582.814439 507.911136 
L 584.264619 534.294821 
L 585.714798 539.998845 
L 587.164977 519.661237 
L 588.615157 504.276068 
L 590.065336 512.63457 
L 591.515515 522.044924 
L 592.965695 520.445664 
L 594.415874 524.826859 
L 595.866053 526.40737 
L 597.316233 512.629525 
L 598.766412 505.930852 
L 601.666771 522.635312 
L 603.11695 518.607444 
L 604.567129 505.60935 
L 606.017309 502.327847 
L 607.467488 507.352239 
L 608.917667 522.604889 
L 610.367847 546.128594 
L 611.818026 555.2033 
L 613.268205 559.886524 
L 614.718385 581.376722 
L 616.168564 599.499168 
L 617.618743 593.472094 
L 619.068923 582.392124 
L 620.519102 579.080596 
L 621.969281 579.77845 
L 623.41946 579.000833 
L 624.86964 576.276454 
L 626.319819 570.08322 
L 627.769998 556.756308 
L 629.220178 534.872835 
L 630.670357 509.33271 
L 632.120536 501.743983 
L 633.570716 522.450095 
L 635.020895 552.833239 
L 636.471074 570.734727 
L 636.471074 570.734727 
" clip-path="url(#pb70dda69fe)" style="fill: none; stroke: #1f77b4; stroke-width: 1.5; stroke-linecap: square"/>
   </g>
   <g id="patch_18">
    <path d="M 394.363636 630 
L 394.363636 382.909091 
" style="fill: none; stroke: #000000; stroke-width: 0.8; stroke-linejoin: miter; stroke-linecap: square"/>
   </g>
   <g id="patch_19">
    <path d="M 648 630 
L 648 382.909091 
" style="fill: none; stroke: #000000; stroke-width: 0.8; stroke-linejoin: miter; stroke-linecap: square"/>
   </g>
   <g id="patch_20">
    <path d="M 394.363636 630 
L 648 630 
" style="fill: none; stroke: #000000; stroke-width: 0.8; stroke-linejoin: miter; stroke-linecap: square"/>
   </g>
   <g id="patch_21">
    <path d="M 394.363636 382.909091 
L 648 382.909091 
" style="fill: none; stroke: #000000; stroke-width: 0.8; stroke-linejoin: miter; stroke-linecap: square"/>
   </g>
   <g id="text_50">
    <!-- explained variance -->
    <g transform="translate(464.181818 376.909091)scale(0.12 -0.12)">
     <defs>
      <path id="DejaVuSans-65" d="M 3597 1894 
L 3597 1613 
L 953 1613 
Q 991 1019 1311 708 
Q 1631 397 2203 397 
Q 2534 397 2845 478 
Q 3156 559 3463 722 
L 3463 178 
Q 3153 47 2828 -22 
Q 2503 -91 2169 -91 
Q 1331 -91 842 396 
Q 353 884 353 1716 
Q 353 2575 817 3079 
Q 1281 3584 2069 3584 
Q 2775 3584 3186 3129 
Q 3597 2675 3597 1894 
z
M 3022 2063 
Q 3016 2534 2758 2815 
Q 2500 3097 2075 3097 
Q 1594 3097 1305 2825 
Q 1016 2553 972 2059 
L 3022 2063 
z
" transform="scale(0.015625)"/>
      <path id="DejaVuSans-78" d="M 3513 3500 
L 2247 1797 
L 3578 0 
L 2900 0 
L 1881 1375 
L 863 0 
L 184 0 
L 1544 1831 
L 300 3500 
L 978 3500 
L 1906 2253 
L 2834 3500 
L 3513 3500 
z
" transform="scale(0.015625)"/>
      <path id="DejaVuSans-70" d="M 1159 525 
L 1159 -1331 
L 581 -1331 
L 581 3500 
L 1159 3500 
L 1159 2969 
Q 1341 3281 1617 3432 
Q 1894 3584 2278 3584 
Q 2916 3584 3314 3078 
Q 3713 2572 3713 1747 
Q 3713 922 3314 415 
Q 2916 -91 2278 -91 
Q 1894 -91 1617 61 
Q 1341 213 1159 525 
z
M 3116 1747 
Q 3116 2381 2855 2742 
Q 2594 3103 2138 3103 
Q 1681 3103 1420 2742 
Q 1159 2381 1159 1747 
Q 1159 1113 1420 752 
Q 1681 391 2138 391 
Q 2594 391 2855 752 
Q 3116 1113 3116 1747 
z
" transform="scale(0.015625)"/>
      <path id="DejaVuSans-6c" d="M 603 4863 
L 1178 4863 
L 1178 0 
L 603 0 
L 603 4863 
z
" transform="scale(0.015625)"/>
      <path id="DejaVuSans-61" d="M 2194 1759 
Q 1497 1759 1228 1600 
Q 959 1441 959 1056 
Q 959 750 1161 570 
Q 1363 391 1709 391 
Q 2188 391 2477 730 
Q 2766 1069 2766 1631 
L 2766 1759 
L 2194 1759 
z
M 3341 1997 
L 3341 0 
L 2766 0 
L 2766 531 
Q 2569 213 2275 61 
Q 1981 -91 1556 -91 
Q 1019 -91 701 211 
Q 384 513 384 1019 
Q 384 1609 779 1909 
Q 1175 2209 1959 2209 
L 2766 2209 
L 2766 2266 
Q 2766 2663 2505 2880 
Q 2244 3097 1772 3097 
Q 1472 3097 1187 3025 
Q 903 2953 641 2809 
L 641 3341 
Q 956 3463 1253 3523 
Q 1550 3584 1831 3584 
Q 2591 3584 2966 3190 
Q 3341 2797 3341 1997 
z
" transform="scale(0.015625)"/>
      <path id="DejaVuSans-64" d="M 2906 2969 
L 2906 4863 
L 3481 4863 
L 3481 0 
L 2906 0 
L 2906 525 
Q 2725 213 2448 61 
Q 2172 -91 1784 -91 
Q 1150 -91 751 415 
Q 353 922 353 1747 
Q 353 2572 751 3078 
Q 1150 3584 1784 3584 
Q 2172 3584 2448 3432 
Q 2725 3281 2906 2969 
z
M 947 1747 
Q 947 1113 1208 752 
Q 1469 391 1925 391 
Q 2381 391 2643 752 
Q 2906 1113 2906 1747 
Q 2906 2381 2643 2742 
Q 2381 3103 1925 3103 
Q 1469 3103 1208 2742 
Q 947 2381 947 1747 
z
" transform="scale(0.015625)"/>
      <path id="DejaVuSans-20" transform="scale(0.015625)"/>
      <path id="DejaVuSans-76" d="M 191 3500 
L 800 3500 
L 1894 563 
L 2988 3500 
L 3597 3500 
L 2284 0 
L 1503 0 
L 191 3500 
z
" transform="scale(0.015625)"/>
      <path id="DejaVuSans-72" d="M 2631 2963 
Q 2534 3019 2420 3045 
Q 2306 3072 2169 3072 
Q 1681 3072 1420 2755 
Q 1159 2438 1159 1844 
L 1159 0 
L 581 0 
L 581 3500 
L 1159 3500 
L 1159 2956 
Q 1341 3275 1631 3429 
Q 1922 3584 2338 3584 
Q 2397 3584 2469 3576 
Q 2541 3569 2628 3553 
L 2631 2963 
z
" transform="scale(0.015625)"/>
      <path id="DejaVuSans-63" d="M 3122 3366 
L 3122 2828 
Q 2878 2963 2633 3030 
Q 2388 3097 2138 3097 
Q 1578 3097 1268 2742 
Q 959 2388 959 1747 
Q 959 1106 1268 751 
Q 1578 397 2138 397 
Q 2388 397 2633 464 
Q 2878 531 3122 666 
L 3122 134 
Q 2881 22 2623 -34 
Q 2366 -91 2075 -91 
Q 1284 -91 818 406 
Q 353 903 353 1747 
Q 353 2603 823 3093 
Q 1294 3584 2113 3584 
Q 2378 3584 2631 3529 
Q 2884 3475 3122 3366 
z
" transform="scale(0.015625)"/>
     </defs>
     <use xlink:href="#DejaVuSans-65"/>
     <use xlink:href="#DejaVuSans-78" x="59.773438"/>
     <use xlink:href="#DejaVuSans-70" x="118.953125"/>
     <use xlink:href="#DejaVuSans-6c" x="182.429688"/>
     <use xlink:href="#DejaVuSans-61" x="210.212891"/>
     <use xlink:href="#DejaVuSans-69" x="271.492188"/>
     <use xlink:href="#DejaVuSans-6e" x="299.275391"/>
     <use xlink:href="#DejaVuSans-65" x="362.654297"/>
     <use xlink:href="#DejaVuSans-64" x="424.177734"/>
     <use xlink:href="#DejaVuSans-20" x="487.654297"/>
     <use xlink:href="#DejaVuSans-76" x="519.441406"/>
     <use xlink:href="#DejaVuSans-61" x="578.621094"/>
     <use xlink:href="#DejaVuSans-72" x="639.900391"/>
     <use xlink:href="#DejaVuSans-69" x="681.013672"/>
     <use xlink:href="#DejaVuSans-61" x="708.796875"/>
     <use xlink:href="#DejaVuSans-6e" x="770.076172"/>
     <use xlink:href="#DejaVuSans-63" x="833.455078"/>
     <use xlink:href="#DejaVuSans-65" x="888.435547"/>
    </g>
   </g>
  </g>
 </g>
 <defs>
  <clipPath id="pecc8eba958">
   <rect x="394.363636" y="86.4" width="253.636364" height="247.090909"/>
  </clipPath>
  <clipPath id="pb70dda69fe">
   <rect x="394.363636" y="382.909091" width="253.636364" height="247.090909"/>
  </clipPath>
 </defs>
</svg>
