<?xml version="1.0" encoding="utf-8" standalone="no"?>
<!DOCTYPE svg PUBLIC "-//W3C//DTD SVG 1.1//EN"
  "http://www.w3.org/Graphics/SVG/1.1/DTD/svg11.dtd">
<svg xmlns:xlink="http://www.w3.org/1999/xlink" width="720pt" height="720pt" viewBox="0 0 720 720" xmlns="http://www.w3.org/2000/svg" version="1.1">
 <metadata>
  <rdf:RDF xmlns:dc="http://purl.org/dc/elements/1.1/" xmlns:cc="http://creativecommons.org/ns#" xmlns:rdf="http://www.w3.org/1999/02/22-rdf-syntax-ns#">
   <cc:Work>
    <dc:type rdf:resource="http://purl.org/dc/dcmitype/StillImage"/>
    <dc:date>2023-12-19T18:23:44.092457</dc:date>
    <dc:format>image/svg+xml</dc:format>
    <dc:creator>
     <cc:Agent>
      <dc:title>Matplotlib v3.5.2, https://matplotlib.org/</dc:title>
     </cc:Agent>
    </dc:creator>
   </cc:Work>
  </rdf:RDF>
 </metadata>
 <defs>
  <style type="text/css">*{stroke-linejoin: round; stroke-linecap: butt}</style>
 </defs>
 <g id="figure_1">
  <g id="patch_1">
   <path d="M 0 720 
L 720 720 
L 720 0 
L 0 0 
z
" style="fill: #ffffff"/>
  </g>
  <g id="axes_1">
   <g id="patch_2">
    <path d="M 90 333.490909 
L 343.636364 333.490909 
L 343.636364 86.4 
L 90 86.4 
z
" style="fill: #ffffff"/>
   </g>
   <g id="matplotlib.axis_1">
    <g id="xtick_1">
     <g id="line2d_1">
      <defs>
       <path id="m9546dd91a4" d="M 0 0 
L 0 3.5 
" style="stroke: #000000; stroke-width: 0.8"/>
      </defs>
      <g>
       <use xlink:href="#m9546dd91a4" x="90" y="333.490909" style="stroke: #000000; stroke-width: 0.8"/>
      </g>
     </g>
     <g id="text_1">
      <!-- 0.0 -->
      <g transform="translate(82.048438 348.089347)scale(0.1 -0.1)">
       <defs>
        <path id="DejaVuSans-30" d="M 2034 4250 
Q 1547 4250 1301 3770 
Q 1056 3291 1056 2328 
Q 1056 1369 1301 889 
Q 1547 409 2034 409 
Q 2525 409 2770 889 
Q 3016 1369 3016 2328 
Q 3016 3291 2770 3770 
Q 2525 4250 2034 4250 
z
M 2034 4750 
Q 2819 4750 3233 4129 
Q 3647 3509 3647 2328 
Q 3647 1150 3233 529 
Q 2819 -91 2034 -91 
Q 1250 -91 836 529 
Q 422 1150 422 2328 
Q 422 3509 836 4129 
Q 1250 4750 2034 4750 
z
" transform="scale(0.015625)"/>
        <path id="DejaVuSans-2e" d="M 684 794 
L 1344 794 
L 1344 0 
L 684 0 
L 684 794 
z
" transform="scale(0.015625)"/>
       </defs>
       <use xlink:href="#DejaVuSans-30"/>
       <use xlink:href="#DejaVuSans-2e" x="63.623047"/>
       <use xlink:href="#DejaVuSans-30" x="95.410156"/>
      </g>
     </g>
    </g>
    <g id="xtick_2">
     <g id="line2d_2">
      <g>
       <use xlink:href="#m9546dd91a4" x="140.727273" y="333.490909" style="stroke: #000000; stroke-width: 0.8"/>
      </g>
     </g>
     <g id="text_2">
      <!-- 0.2 -->
      <g transform="translate(132.77571 348.089347)scale(0.1 -0.1)">
       <defs>
        <path id="DejaVuSans-32" d="M 1228 531 
L 3431 531 
L 3431 0 
L 469 0 
L 469 531 
Q 828 903 1448 1529 
Q 2069 2156 2228 2338 
Q 2531 2678 2651 2914 
Q 2772 3150 2772 3378 
Q 2772 3750 2511 3984 
Q 2250 4219 1831 4219 
Q 1534 4219 1204 4116 
Q 875 4013 500 3803 
L 500 4441 
Q 881 4594 1212 4672 
Q 1544 4750 1819 4750 
Q 2544 4750 2975 4387 
Q 3406 4025 3406 3419 
Q 3406 3131 3298 2873 
Q 3191 2616 2906 2266 
Q 2828 2175 2409 1742 
Q 1991 1309 1228 531 
z
" transform="scale(0.015625)"/>
       </defs>
       <use xlink:href="#DejaVuSans-30"/>
       <use xlink:href="#DejaVuSans-2e" x="63.623047"/>
       <use xlink:href="#DejaVuSans-32" x="95.410156"/>
      </g>
     </g>
    </g>
    <g id="xtick_3">
     <g id="line2d_3">
      <g>
       <use xlink:href="#m9546dd91a4" x="191.454545" y="333.490909" style="stroke: #000000; stroke-width: 0.8"/>
      </g>
     </g>
     <g id="text_3">
      <!-- 0.4 -->
      <g transform="translate(183.502983 348.089347)scale(0.1 -0.1)">
       <defs>
        <path id="DejaVuSans-34" d="M 2419 4116 
L 825 1625 
L 2419 1625 
L 2419 4116 
z
M 2253 4666 
L 3047 4666 
L 3047 1625 
L 3713 1625 
L 3713 1100 
L 3047 1100 
L 3047 0 
L 2419 0 
L 2419 1100 
L 313 1100 
L 313 1709 
L 2253 4666 
z
" transform="scale(0.015625)"/>
       </defs>
       <use xlink:href="#DejaVuSans-30"/>
       <use xlink:href="#DejaVuSans-2e" x="63.623047"/>
       <use xlink:href="#DejaVuSans-34" x="95.410156"/>
      </g>
     </g>
    </g>
    <g id="xtick_4">
     <g id="line2d_4">
      <g>
       <use xlink:href="#m9546dd91a4" x="242.181818" y="333.490909" style="stroke: #000000; stroke-width: 0.8"/>
      </g>
     </g>
     <g id="text_4">
      <!-- 0.6 -->
      <g transform="translate(234.230256 348.089347)scale(0.1 -0.1)">
       <defs>
        <path id="DejaVuSans-36" d="M 2113 2584 
Q 1688 2584 1439 2293 
Q 1191 2003 1191 1497 
Q 1191 994 1439 701 
Q 1688 409 2113 409 
Q 2538 409 2786 701 
Q 3034 994 3034 1497 
Q 3034 2003 2786 2293 
Q 2538 2584 2113 2584 
z
M 3366 4563 
L 3366 3988 
Q 3128 4100 2886 4159 
Q 2644 4219 2406 4219 
Q 1781 4219 1451 3797 
Q 1122 3375 1075 2522 
Q 1259 2794 1537 2939 
Q 1816 3084 2150 3084 
Q 2853 3084 3261 2657 
Q 3669 2231 3669 1497 
Q 3669 778 3244 343 
Q 2819 -91 2113 -91 
Q 1303 -91 875 529 
Q 447 1150 447 2328 
Q 447 3434 972 4092 
Q 1497 4750 2381 4750 
Q 2619 4750 2861 4703 
Q 3103 4656 3366 4563 
z
" transform="scale(0.015625)"/>
       </defs>
       <use xlink:href="#DejaVuSans-30"/>
       <use xlink:href="#DejaVuSans-2e" x="63.623047"/>
       <use xlink:href="#DejaVuSans-36" x="95.410156"/>
      </g>
     </g>
    </g>
    <g id="xtick_5">
     <g id="line2d_5">
      <g>
       <use xlink:href="#m9546dd91a4" x="292.909091" y="333.490909" style="stroke: #000000; stroke-width: 0.8"/>
      </g>
     </g>
     <g id="text_5">
      <!-- 0.8 -->
      <g transform="translate(284.957528 348.089347)scale(0.1 -0.1)">
       <defs>
        <path id="DejaVuSans-38" d="M 2034 2216 
Q 1584 2216 1326 1975 
Q 1069 1734 1069 1313 
Q 1069 891 1326 650 
Q 1584 409 2034 409 
Q 2484 409 2743 651 
Q 3003 894 3003 1313 
Q 3003 1734 2745 1975 
Q 2488 2216 2034 2216 
z
M 1403 2484 
Q 997 2584 770 2862 
Q 544 3141 544 3541 
Q 544 4100 942 4425 
Q 1341 4750 2034 4750 
Q 2731 4750 3128 4425 
Q 3525 4100 3525 3541 
Q 3525 3141 3298 2862 
Q 3072 2584 2669 2484 
Q 3125 2378 3379 2068 
Q 3634 1759 3634 1313 
Q 3634 634 3220 271 
Q 2806 -91 2034 -91 
Q 1263 -91 848 271 
Q 434 634 434 1313 
Q 434 1759 690 2068 
Q 947 2378 1403 2484 
z
M 1172 3481 
Q 1172 3119 1398 2916 
Q 1625 2713 2034 2713 
Q 2441 2713 2670 2916 
Q 2900 3119 2900 3481 
Q 2900 3844 2670 4047 
Q 2441 4250 2034 4250 
Q 1625 4250 1398 4047 
Q 1172 3844 1172 3481 
z
" transform="scale(0.015625)"/>
       </defs>
       <use xlink:href="#DejaVuSans-30"/>
       <use xlink:href="#DejaVuSans-2e" x="63.623047"/>
       <use xlink:href="#DejaVuSans-38" x="95.410156"/>
      </g>
     </g>
    </g>
    <g id="xtick_6">
     <g id="line2d_6">
      <g>
       <use xlink:href="#m9546dd91a4" x="343.636364" y="333.490909" style="stroke: #000000; stroke-width: 0.8"/>
      </g>
     </g>
     <g id="text_6">
      <!-- 1.0 -->
      <g transform="translate(335.684801 348.089347)scale(0.1 -0.1)">
       <defs>
        <path id="DejaVuSans-31" d="M 794 531 
L 1825 531 
L 1825 4091 
L 703 3866 
L 703 4441 
L 1819 4666 
L 2450 4666 
L 2450 531 
L 3481 531 
L 3481 0 
L 794 0 
L 794 531 
z
" transform="scale(0.015625)"/>
       </defs>
       <use xlink:href="#DejaVuSans-31"/>
       <use xlink:href="#DejaVuSans-2e" x="63.623047"/>
       <use xlink:href="#DejaVuSans-30" x="95.410156"/>
      </g>
     </g>
    </g>
   </g>
   <g id="matplotlib.axis_2">
    <g id="ytick_1">
     <g id="line2d_7">
      <defs>
       <path id="m20e8c35d48" d="M 0 0 
L -3.5 0 
" style="stroke: #000000; stroke-width: 0.8"/>
      </defs>
      <g>
       <use xlink:href="#m20e8c35d48" x="90" y="333.490909" style="stroke: #000000; stroke-width: 0.8"/>
      </g>
     </g>
     <g id="text_7">
      <!-- 0.0 -->
      <g transform="translate(67.096875 337.290128)scale(0.1 -0.1)">
       <use xlink:href="#DejaVuSans-30"/>
       <use xlink:href="#DejaVuSans-2e" x="63.623047"/>
       <use xlink:href="#DejaVuSans-30" x="95.410156"/>
      </g>
     </g>
    </g>
    <g id="ytick_2">
     <g id="line2d_8">
      <g>
       <use xlink:href="#m20e8c35d48" x="90" y="284.072727" style="stroke: #000000; stroke-width: 0.8"/>
      </g>
     </g>
     <g id="text_8">
      <!-- 0.2 -->
      <g transform="translate(67.096875 287.871946)scale(0.1 -0.1)">
       <use xlink:href="#DejaVuSans-30"/>
       <use xlink:href="#DejaVuSans-2e" x="63.623047"/>
       <use xlink:href="#DejaVuSans-32" x="95.410156"/>
      </g>
     </g>
    </g>
    <g id="ytick_3">
     <g id="line2d_9">
      <g>
       <use xlink:href="#m20e8c35d48" x="90" y="234.654545" style="stroke: #000000; stroke-width: 0.8"/>
      </g>
     </g>
     <g id="text_9">
      <!-- 0.4 -->
      <g transform="translate(67.096875 238.453764)scale(0.1 -0.1)">
       <use xlink:href="#DejaVuSans-30"/>
       <use xlink:href="#DejaVuSans-2e" x="63.623047"/>
       <use xlink:href="#DejaVuSans-34" x="95.410156"/>
      </g>
     </g>
    </g>
    <g id="ytick_4">
     <g id="line2d_10">
      <g>
       <use xlink:href="#m20e8c35d48" x="90" y="185.236364" style="stroke: #000000; stroke-width: 0.8"/>
      </g>
     </g>
     <g id="text_10">
      <!-- 0.6 -->
      <g transform="translate(67.096875 189.035582)scale(0.1 -0.1)">
       <use xlink:href="#DejaVuSans-30"/>
       <use xlink:href="#DejaVuSans-2e" x="63.623047"/>
       <use xlink:href="#DejaVuSans-36" x="95.410156"/>
      </g>
     </g>
    </g>
    <g id="ytick_5">
     <g id="line2d_11">
      <g>
       <use xlink:href="#m20e8c35d48" x="90" y="135.818182" style="stroke: #000000; stroke-width: 0.8"/>
      </g>
     </g>
     <g id="text_11">
      <!-- 0.8 -->
      <g transform="translate(67.096875 139.617401)scale(0.1 -0.1)">
       <use xlink:href="#DejaVuSans-30"/>
       <use xlink:href="#DejaVuSans-2e" x="63.623047"/>
       <use xlink:href="#DejaVuSans-38" x="95.410156"/>
      </g>
     </g>
    </g>
    <g id="ytick_6">
     <g id="line2d_12">
      <g>
       <use xlink:href="#m20e8c35d48" x="90" y="86.4" style="stroke: #000000; stroke-width: 0.8"/>
      </g>
     </g>
     <g id="text_12">
      <!-- 1.0 -->
      <g transform="translate(67.096875 90.199219)scale(0.1 -0.1)">
       <use xlink:href="#DejaVuSans-31"/>
       <use xlink:href="#DejaVuSans-2e" x="63.623047"/>
       <use xlink:href="#DejaVuSans-30" x="95.410156"/>
      </g>
     </g>
    </g>
   </g>
   <g id="patch_3">
    <path d="M 90 333.490909 
L 90 86.4 
" style="fill: none; stroke: #000000; stroke-width: 0.8; stroke-linejoin: miter; stroke-linecap: square"/>
   </g>
   <g id="patch_4">
    <path d="M 343.636364 333.490909 
L 343.636364 86.4 
" style="fill: none; stroke: #000000; stroke-width: 0.8; stroke-linejoin: miter; stroke-linecap: square"/>
   </g>
   <g id="patch_5">
    <path d="M 90 333.490909 
L 343.636364 333.490909 
" style="fill: none; stroke: #000000; stroke-width: 0.8; stroke-linejoin: miter; stroke-linecap: square"/>
   </g>
   <g id="patch_6">
    <path d="M 90 86.4 
L 343.636364 86.4 
" style="fill: none; stroke: #000000; stroke-width: 0.8; stroke-linejoin: miter; stroke-linecap: square"/>
   </g>
  </g>
  <g id="axes_2">
   <g id="patch_7">
    <path d="M 394.363636 333.490909 
L 648 333.490909 
L 648 86.4 
L 394.363636 86.4 
z
" style="fill: #ffffff"/>
   </g>
   <g id="PolyCollection_1">
    <defs>
     <path id="ma7c18c7948" d="M 405.892562 -610.911592 
L 405.892562 -606.100837 
L 407.342741 -601.999093 
L 408.792921 -601.548895 
L 410.2431 -598.623961 
L 411.693279 -593.125877 
L 413.143459 -590.223168 
L 414.593638 -590.06743 
L 416.043817 -585.764141 
L 417.493997 -582.36821 
L 418.944176 -580.396814 
L 420.394355 -579.535826 
L 421.844535 -579.249107 
L 423.294714 -579.175515 
L 424.744893 -579.160608 
L 426.195073 -579.158367 
L 427.645252 -579.158367 
L 429.095431 -579.158367 
L 430.54561 -579.158367 
L 431.99579 -579.158367 
L 433.445969 -579.153085 
L 434.896148 -579.123921 
L 436.346328 -578.983436 
L 437.796507 -578.466503 
L 439.246686 -577.027275 
L 440.696866 -574.046142 
L 442.147045 -569.607473 
L 443.597224 -565.261898 
L 445.047404 -554.280852 
L 446.497583 -565.261898 
L 447.947762 -569.602044 
L 449.397942 -574.006678 
L 450.848121 -576.815408 
L 452.2983 -577.577489 
L 453.74848 -576.02481 
L 455.198659 -571.226081 
L 456.648838 -562.01861 
L 458.099018 -548.411523 
L 459.549197 -524.910807 
L 460.999376 -511.093646 
L 462.449556 -501.648522 
L 463.899735 -501.650868 
L 465.349914 -507.478017 
L 466.800094 -519.753705 
L 468.250273 -540.658553 
L 469.700452 -547.883907 
L 471.150632 -547.561594 
L 472.600811 -531.842136 
L 474.05099 -533.568387 
L 475.501169 -519.263298 
L 476.951349 -515.939256 
L 478.401528 -516.388008 
L 479.851707 -519.461713 
L 481.301887 -522.627536 
L 482.752066 -525.127081 
L 484.202245 -524.651955 
L 485.652425 -528.531431 
L 487.102604 -534.935313 
L 488.552783 -540.860552 
L 490.002963 -556.050889 
L 491.453142 -563.150263 
L 492.903321 -565.522568 
L 494.353501 -563.279521 
L 495.80368 -552.605651 
L 497.253859 -549.94563 
L 498.704039 -554.34778 
L 500.154218 -549.636622 
L 501.604397 -556.119736 
L 503.054577 -554.794604 
L 504.504756 -557.420001 
L 505.954935 -563.242679 
L 507.405115 -563.689642 
L 508.855294 -570.387894 
L 510.305473 -573.405476 
L 511.755653 -573.269769 
L 513.205832 -577.14567 
L 514.656011 -578.099989 
L 516.106191 -578.670396 
L 517.55637 -578.97001 
L 519.006549 -579.099419 
L 520.456729 -579.143961 
L 521.906908 -579.15553 
L 523.357087 -579.157932 
L 524.807266 -579.158367 
L 526.257446 -579.158367 
L 527.707625 -579.158367 
L 529.157804 -579.158367 
L 530.607984 -579.158367 
L 532.058163 -579.158367 
L 533.508342 -579.158367 
L 534.958522 -579.158367 
L 536.408701 -579.158367 
L 537.85888 -579.158367 
L 539.30906 -579.158367 
L 540.759239 -579.158367 
L 542.209418 -579.158367 
L 543.659598 -579.158367 
L 545.109777 -579.158367 
L 546.559956 -579.158367 
L 548.010136 -579.158367 
L 549.460315 -579.158367 
L 550.910494 -579.158367 
L 552.360674 -579.158367 
L 553.810853 -579.158367 
L 555.261032 -579.156682 
L 556.711212 -579.147381 
L 558.161391 -579.102574 
L 559.61157 -578.931817 
L 561.06175 -578.433922 
L 562.511929 -577.284037 
L 563.962108 -575.074366 
L 565.412288 -571.21061 
L 566.862467 -558.847672 
L 568.312646 -553.467032 
L 569.762826 -536.922231 
L 571.213005 -509.620038 
L 572.663184 -485.98785 
L 574.113363 -463.398976 
L 575.563543 -443.661 
L 577.013722 -428.245324 
L 578.463901 -413.355379 
L 579.914081 -406.134194 
L 581.36426 -397.761585 
L 582.814439 -397.740496 
L 584.264619 -398.841416 
L 585.714798 -403.686775 
L 587.164977 -413.66146 
L 588.615157 -423.888769 
L 590.065336 -432.653481 
L 591.515515 -439.483015 
L 592.965695 -447.023494 
L 594.415874 -453.931828 
L 595.866053 -463.805042 
L 597.316233 -473.36016 
L 598.766412 -492.157209 
L 600.216591 -513.487998 
L 601.666771 -545.956943 
L 603.11695 -562.130823 
L 604.567129 -571.872791 
L 606.017309 -576.595085 
L 607.467488 -578.426599 
L 608.917667 -578.991031 
L 610.367847 -579.128748 
L 611.818026 -579.154594 
L 613.268205 -579.158367 
L 614.718385 -579.158367 
L 616.168564 -579.158367 
L 617.618743 -579.158367 
L 619.068923 -579.158367 
L 620.519102 -579.158367 
L 621.969281 -579.158367 
L 623.41946 -579.158367 
L 624.86964 -579.158367 
L 626.319819 -579.158367 
L 627.769998 -579.158367 
L 629.220178 -579.158367 
L 630.670357 -579.158367 
L 632.120536 -579.158367 
L 633.570716 -579.158367 
L 635.020895 -579.158367 
L 636.471074 -579.158367 
L 636.471074 -579.158367 
L 636.471074 -579.158367 
L 635.020895 -579.158367 
L 633.570716 -579.158367 
L 632.120536 -579.158367 
L 630.670357 -579.158367 
L 629.220178 -579.158367 
L 627.769998 -579.158367 
L 626.319819 -579.158367 
L 624.86964 -579.158367 
L 623.41946 -579.158367 
L 621.969281 -579.158367 
L 620.519102 -579.158367 
L 619.068923 -579.158367 
L 617.618743 -579.158367 
L 616.168564 -579.158367 
L 614.718385 -579.158367 
L 613.268205 -579.158367 
L 611.818026 -579.154594 
L 610.367847 -579.128748 
L 608.917667 -578.991031 
L 607.467488 -578.426599 
L 606.017309 -576.595085 
L 604.567129 -571.872791 
L 603.11695 -562.130823 
L 601.666771 -545.956943 
L 600.216591 -535.062309 
L 598.766412 -509.571197 
L 597.316233 -488.082655 
L 595.866053 -470.33568 
L 594.415874 -464.785991 
L 592.965695 -461.140188 
L 591.515515 -456.07697 
L 590.065336 -446.159603 
L 588.615157 -436.239522 
L 587.164977 -428.741424 
L 585.714798 -423.792077 
L 584.264619 -418.251394 
L 582.814439 -415.567447 
L 581.36426 -419.605792 
L 579.914081 -423.00672 
L 578.463901 -434.733005 
L 577.013722 -445.664692 
L 575.563543 -462.514839 
L 574.113363 -480.805163 
L 572.663184 -501.026645 
L 571.213005 -522.368848 
L 569.762826 -536.922231 
L 568.312646 -553.467032 
L 566.862467 -570.27233 
L 565.412288 -571.21061 
L 563.962108 -575.074366 
L 562.511929 -577.284037 
L 561.06175 -578.433922 
L 559.61157 -578.931817 
L 558.161391 -579.102574 
L 556.711212 -579.147381 
L 555.261032 -579.156682 
L 553.810853 -579.158367 
L 552.360674 -579.158367 
L 550.910494 -579.158367 
L 549.460315 -579.158367 
L 548.010136 -579.158367 
L 546.559956 -579.158367 
L 545.109777 -579.158367 
L 543.659598 -579.158367 
L 542.209418 -579.158367 
L 540.759239 -579.158367 
L 539.30906 -579.158367 
L 537.85888 -579.158367 
L 536.408701 -579.158367 
L 534.958522 -579.158367 
L 533.508342 -579.158367 
L 532.058163 -579.158367 
L 530.607984 -579.158367 
L 529.157804 -579.158367 
L 527.707625 -579.158367 
L 526.257446 -579.158367 
L 524.807266 -579.158367 
L 523.357087 -579.157932 
L 521.906908 -579.15553 
L 520.456729 -579.143961 
L 519.006549 -579.099419 
L 517.55637 -578.97001 
L 516.106191 -578.670396 
L 514.656011 -578.099989 
L 513.205832 -577.14567 
L 511.755653 -578.016175 
L 510.305473 -573.405476 
L 508.855294 -570.387894 
L 507.405115 -569.988564 
L 505.954935 -563.242679 
L 504.504756 -562.825106 
L 503.054577 -560.775886 
L 501.604397 -556.119736 
L 500.154218 -560.104069 
L 498.704039 -554.34778 
L 497.253859 -561.143685 
L 495.80368 -565.332593 
L 494.353501 -563.279521 
L 492.903321 -565.522568 
L 491.453142 -563.150263 
L 490.002963 -556.050889 
L 488.552783 -552.762572 
L 487.102604 -542.799817 
L 485.652425 -539.615728 
L 484.202245 -539.052034 
L 482.752066 -535.585641 
L 481.301887 -533.645265 
L 479.851707 -530.737691 
L 478.401528 -528.868867 
L 476.951349 -529.552563 
L 475.501169 -533.925645 
L 474.05099 -533.568387 
L 472.600811 -551.361513 
L 471.150632 -547.561594 
L 469.700452 -547.883907 
L 468.250273 -540.658553 
L 466.800094 -536.051885 
L 465.349914 -522.683214 
L 463.899735 -513.993657 
L 462.449556 -516.316741 
L 460.999376 -525.151232 
L 459.549197 -540.174594 
L 458.099018 -548.411523 
L 456.648838 -562.01861 
L 455.198659 -571.226081 
L 453.74848 -576.02481 
L 452.2983 -577.577489 
L 450.848121 -576.815408 
L 449.397942 -574.006678 
L 447.947762 -569.602044 
L 446.497583 -565.261898 
L 445.047404 -572.542358 
L 443.597224 -565.261898 
L 442.147045 -569.607473 
L 440.696866 -574.046142 
L 439.246686 -577.027275 
L 437.796507 -578.466503 
L 436.346328 -578.983436 
L 434.896148 -579.123921 
L 433.445969 -579.153085 
L 431.99579 -579.158367 
L 430.54561 -579.158367 
L 429.095431 -579.158367 
L 427.645252 -579.158367 
L 426.195073 -579.158367 
L 424.744893 -579.160608 
L 423.294714 -579.175515 
L 421.844535 -579.249107 
L 420.394355 -579.535826 
L 418.944176 -580.396814 
L 417.493997 -582.36821 
L 416.043817 -585.764141 
L 414.593638 -590.06743 
L 413.143459 -597.715362 
L 411.693279 -600.054024 
L 410.2431 -598.623961 
L 408.792921 -601.548895 
L 407.342741 -608.972842 
L 405.892562 -610.911592 
z
" style="stroke: #9467bd; stroke-opacity: 0.2"/>
    </defs>
    <g clip-path="url(#p760fa0ee94)">
     <use xlink:href="#ma7c18c7948" x="0" y="720" style="fill: #9467bd; fill-opacity: 0.2; stroke: #9467bd; stroke-opacity: 0.2"/>
    </g>
   </g>
   <g id="PolyCollection_2">
    <defs>
     <path id="m659c9f9054" d="M 405.892562 -574.501596 
L 405.892562 -574.501596 
L 407.342741 -573.080729 
L 408.792921 -568.7879 
L 410.2431 -561.686633 
L 411.693279 -572.315114 
L 413.143459 -574.787787 
L 414.593638 -577.01406 
L 416.043817 -577.857656 
L 417.493997 -576.038205 
L 418.944176 -566.130004 
L 420.394355 -563.335872 
L 421.844535 -538.762217 
L 423.294714 -545.361393 
L 424.744893 -543.028776 
L 426.195073 -555.922688 
L 427.645252 -553.47979 
L 429.095431 -549.085439 
L 430.54561 -558.211331 
L 431.99579 -565.713927 
L 433.445969 -566.947651 
L 434.896148 -559.79921 
L 436.346328 -566.374906 
L 437.796507 -558.032444 
L 439.246686 -563.786486 
L 440.696866 -569.448466 
L 442.147045 -576.422984 
L 443.597224 -578.326604 
L 445.047404 -579.697117 
L 446.497583 -577.531299 
L 447.947762 -579.440285 
L 449.397942 -579.548597 
L 450.848121 -579.578521 
L 452.2983 -579.983184 
L 453.74848 -578.916471 
L 455.198659 -580.597777 
L 456.648838 -577.253794 
L 458.099018 -578.708817 
L 459.549197 -579.573657 
L 460.999376 -579.006248 
L 462.449556 -578.227047 
L 463.899735 -576.887862 
L 465.349914 -574.943487 
L 466.800094 -573.040108 
L 468.250273 -562.340074 
L 469.700452 -573.044302 
L 471.150632 -574.956413 
L 472.600811 -576.909223 
L 474.05099 -578.220784 
L 475.501169 -578.853978 
L 476.951349 -579.081406 
L 478.401528 -579.143212 
L 479.851707 -579.156043 
L 481.301887 -579.158031 
L 482.752066 -579.156173 
L 484.202245 -579.147224 
L 485.652425 -579.114294 
L 487.102604 -579.022659 
L 488.552783 -578.833013 
L 490.002963 -578.5515 
L 491.453142 -578.279233 
L 492.903321 -576.284546 
L 494.353501 -578.316035 
L 495.80368 -578.620143 
L 497.253859 -578.88275 
L 498.704039 -578.255746 
L 500.154218 -578.323473 
L 501.604397 -576.963285 
L 503.054577 -574.725738 
L 504.504756 -572.093762 
L 505.954935 -561.351151 
L 507.405115 -569.572436 
L 508.855294 -564.664439 
L 510.305473 -572.964419 
L 511.755653 -575.086978 
L 513.205832 -576.435855 
L 514.656011 -577.326208 
L 516.106191 -579.210596 
L 517.55637 -577.318264 
L 519.006549 -591.365925 
L 520.456729 -590.431584 
L 521.906908 -590.232344 
L 523.357087 -598.474328 
L 524.807266 -609.80274 
L 526.257446 -599.23232 
L 527.707625 -595.953271 
L 529.157804 -594.581244 
L 530.607984 -600.683067 
L 532.058163 -586.176526 
L 533.508342 -588.260995 
L 534.958522 -584.960873 
L 536.408701 -583.353492 
L 537.85888 -578.612595 
L 539.30906 -575.437347 
L 540.759239 -576.812162 
L 542.209418 -572.434526 
L 543.659598 -567.241767 
L 545.109777 -551.0508 
L 546.559956 -552.863665 
L 548.010136 -560.951029 
L 549.460315 -565.342838 
L 550.910494 -565.347081 
L 552.360674 -555.969197 
L 553.810853 -555.417764 
L 555.261032 -563.787293 
L 556.711212 -563.949028 
L 558.161391 -573.737274 
L 559.61157 -577.621655 
L 561.06175 -580.325099 
L 562.511929 -575.326372 
L 563.962108 -578.364917 
L 565.412288 -580.304615 
L 566.862467 -579.57042 
L 568.312646 -579.216034 
L 569.762826 -579.128985 
L 571.213005 -579.135187 
L 572.663184 -579.14982 
L 574.113363 -579.156272 
L 575.563543 -579.157823 
L 577.013722 -579.158367 
L 578.463901 -579.158367 
L 579.914081 -579.158367 
L 581.36426 -579.158367 
L 582.814439 -579.158367 
L 584.264619 -579.158367 
L 585.714798 -579.158367 
L 587.164977 -579.158367 
L 588.615157 -579.158367 
L 590.065336 -579.158367 
L 591.515515 -579.160839 
L 592.965695 -579.174486 
L 594.415874 -579.241047 
L 595.866053 -579.487254 
L 597.316233 -580.180979 
L 598.766412 -581.645009 
L 600.216591 -583.89554 
L 601.666771 -586.205893 
L 603.11695 -576.329156 
L 604.567129 -585.699507 
L 606.017309 -575.958941 
L 607.467488 -573.415467 
L 608.917667 -568.385389 
L 610.367847 -554.363914 
L 611.818026 -569.037745 
L 613.268205 -571.35721 
L 614.718385 -573.815485 
L 616.168564 -570.293793 
L 617.618743 -573.115603 
L 619.068923 -577.132815 
L 620.519102 -574.652172 
L 621.969281 -577.817081 
L 623.41946 -578.1639 
L 624.86964 -578.382789 
L 626.319819 -578.374633 
L 627.769998 -578.201146 
L 629.220178 -575.812061 
L 630.670357 -577.605955 
L 632.120536 -576.761262 
L 633.570716 -575.166256 
L 635.020895 -573.138497 
L 636.471074 -565.869567 
L 636.471074 -577.452193 
L 636.471074 -577.452193 
L 635.020895 -573.138497 
L 633.570716 -575.166256 
L 632.120536 -576.761262 
L 630.670357 -577.605955 
L 629.220178 -580.132634 
L 627.769998 -578.201146 
L 626.319819 -578.374633 
L 624.86964 -578.382789 
L 623.41946 -578.1639 
L 621.969281 -577.817081 
L 620.519102 -580.309145 
L 619.068923 -577.132815 
L 617.618743 -580.042983 
L 616.168564 -580.826441 
L 614.718385 -573.815485 
L 613.268205 -571.35721 
L 611.818026 -569.037745 
L 610.367847 -582.645847 
L 608.917667 -573.53822 
L 607.467488 -578.474898 
L 606.017309 -587.143414 
L 604.567129 -585.699507 
L 603.11695 -598.081503 
L 601.666771 -586.205893 
L 600.216591 -583.89554 
L 598.766412 -581.645009 
L 597.316233 -580.180979 
L 595.866053 -579.487254 
L 594.415874 -579.241047 
L 592.965695 -579.174486 
L 591.515515 -579.160839 
L 590.065336 -579.158367 
L 588.615157 -579.158367 
L 587.164977 -579.158367 
L 585.714798 -579.158367 
L 584.264619 -579.158367 
L 582.814439 -579.158367 
L 581.36426 -579.158367 
L 579.914081 -579.158367 
L 578.463901 -579.158367 
L 577.013722 -579.158367 
L 575.563543 -579.157823 
L 574.113363 -579.156272 
L 572.663184 -579.14982 
L 571.213005 -579.135187 
L 569.762826 -579.128985 
L 568.312646 -579.216034 
L 566.862467 -579.57042 
L 565.412288 -580.304615 
L 563.962108 -583.961214 
L 562.511929 -587.524475 
L 561.06175 -580.325099 
L 559.61157 -577.621655 
L 558.161391 -573.737274 
L 556.711212 -575.090702 
L 555.261032 -568.281064 
L 553.810853 -573.112648 
L 552.360674 -572.859274 
L 550.910494 -565.347081 
L 549.460315 -565.342838 
L 548.010136 -566.868419 
L 546.559956 -572.339634 
L 545.109777 -576.082435 
L 543.659598 -567.455404 
L 542.209418 -572.434526 
L 540.759239 -576.812162 
L 539.30906 -583.762078 
L 537.85888 -584.117218 
L 536.408701 -583.353492 
L 534.958522 -588.052755 
L 533.508342 -593.634738 
L 532.058163 -606.09648 
L 530.607984 -601.846438 
L 529.157804 -616.342996 
L 527.707625 -620.257394 
L 526.257446 -619.4473 
L 524.807266 -609.80274 
L 523.357087 -620.09472 
L 521.906908 -622.368595 
L 520.456729 -609.302226 
L 519.006549 -591.365925 
L 517.55637 -590.275768 
L 516.106191 -579.210596 
L 514.656011 -577.326208 
L 513.205832 -576.435855 
L 511.755653 -575.086978 
L 510.305473 -572.964419 
L 508.855294 -576.874365 
L 507.405115 -569.572436 
L 505.954935 -578.787979 
L 504.504756 -572.093762 
L 503.054577 -574.725738 
L 501.604397 -576.963285 
L 500.154218 -578.323473 
L 498.704039 -579.48665 
L 497.253859 -578.88275 
L 495.80368 -578.620143 
L 494.353501 -578.316035 
L 492.903321 -580.063545 
L 491.453142 -578.279233 
L 490.002963 -578.5515 
L 488.552783 -578.833013 
L 487.102604 -579.022659 
L 485.652425 -579.114294 
L 484.202245 -579.147224 
L 482.752066 -579.156173 
L 481.301887 -579.158031 
L 479.851707 -579.156043 
L 478.401528 -579.143212 
L 476.951349 -579.081406 
L 475.501169 -578.853978 
L 474.05099 -578.220784 
L 472.600811 -576.909223 
L 471.150632 -574.956413 
L 469.700452 -573.044302 
L 468.250273 -582.118848 
L 466.800094 -573.040108 
L 465.349914 -574.943487 
L 463.899735 -576.887862 
L 462.449556 -578.227047 
L 460.999376 -579.006248 
L 459.549197 -579.573657 
L 458.099018 -581.52039 
L 456.648838 -583.784301 
L 455.198659 -580.597777 
L 453.74848 -581.780448 
L 452.2983 -579.983184 
L 450.848121 -579.905244 
L 449.397942 -579.914292 
L 447.947762 -580.32057 
L 446.497583 -582.414706 
L 445.047404 -579.697117 
L 443.597224 -578.962667 
L 442.147045 -576.422984 
L 440.696866 -576.718973 
L 439.246686 -575.251575 
L 437.796507 -576.086174 
L 436.346328 -566.374906 
L 434.896148 -573.844905 
L 433.445969 -566.947651 
L 431.99579 -565.713927 
L 430.54561 -568.421054 
L 429.095431 -572.329413 
L 427.645252 -563.193947 
L 426.195073 -555.922688 
L 424.744893 -564.514137 
L 423.294714 -561.819023 
L 421.844535 -575.398212 
L 420.394355 -564.237745 
L 418.944176 -575.911084 
L 417.493997 -576.038205 
L 416.043817 -577.857656 
L 414.593638 -577.114016 
L 413.143459 -574.787787 
L 411.693279 -572.315114 
L 410.2431 -580.239408 
L 408.792921 -574.040249 
L 407.342741 -573.080729 
L 405.892562 -574.501596 
z
" style="stroke: #1f77b4; stroke-opacity: 0.2"/>
    </defs>
    <g clip-path="url(#p760fa0ee94)">
     <use xlink:href="#m659c9f9054" x="0" y="720" style="fill: #1f77b4; fill-opacity: 0.2; stroke: #1f77b4; stroke-opacity: 0.2"/>
    </g>
   </g>
   <g id="PolyCollection_3">
    <defs>
     <path id="m9de4bc4493" d="M 405.892562 -579.158367 
L 405.892562 -579.158367 
L 407.342741 -579.158367 
L 408.792921 -579.158367 
L 410.2431 -579.158367 
L 411.693279 -579.158367 
L 413.143459 -579.158367 
L 414.593638 -579.156466 
L 416.043817 -579.14597 
L 417.493997 -579.09541 
L 418.944176 -578.909369 
L 420.394355 -578.386953 
L 421.844535 -577.285731 
L 423.294714 -575.549153 
L 424.744893 -573.443532 
L 426.195073 -566.616731 
L 427.645252 -568.130027 
L 429.095431 -563.237328 
L 430.54561 -556.360527 
L 431.99579 -544.380856 
L 433.445969 -540.092239 
L 434.896148 -544.527807 
L 436.346328 -533.917398 
L 437.796507 -551.917101 
L 439.246686 -554.96768 
L 440.696866 -556.351509 
L 442.147045 -553.055299 
L 443.597224 -561.979916 
L 445.047404 -567.709039 
L 446.497583 -573.099157 
L 447.947762 -576.64281 
L 449.397942 -578.343631 
L 450.848121 -578.95237 
L 452.2983 -579.117804 
L 453.74848 -579.152146 
L 455.198659 -579.158367 
L 456.648838 -579.158367 
L 458.099018 -579.158367 
L 459.549197 -579.158367 
L 460.999376 -579.158367 
L 462.449556 -579.158367 
L 463.899735 -579.158367 
L 465.349914 -579.158367 
L 466.800094 -579.158367 
L 468.250273 -579.158367 
L 469.700452 -579.158367 
L 471.150632 -579.158367 
L 472.600811 -579.158367 
L 474.05099 -579.158367 
L 475.501169 -579.158367 
L 476.951349 -579.158367 
L 478.401528 -579.158367 
L 479.851707 -579.158367 
L 481.301887 -579.158367 
L 482.752066 -579.158367 
L 484.202245 -579.158367 
L 485.652425 -579.158367 
L 487.102604 -579.158367 
L 488.552783 -579.158367 
L 490.002963 -579.158367 
L 491.453142 -579.158367 
L 492.903321 -579.158367 
L 494.353501 -579.158367 
L 495.80368 -579.158367 
L 497.253859 -579.158367 
L 498.704039 -579.158367 
L 500.154218 -579.158367 
L 501.604397 -579.158367 
L 503.054577 -579.159934 
L 504.504756 -579.168582 
L 505.954935 -579.210243 
L 507.405115 -579.363542 
L 508.855294 -579.790351 
L 510.305473 -580.674417 
L 511.755653 -581.990721 
L 513.205832 -583.280324 
L 514.656011 -580.861786 
L 516.106191 -583.309418 
L 517.55637 -582.109373 
L 519.006549 -581.039891 
L 520.456729 -580.667076 
L 521.906908 -581.001481 
L 523.357087 -581.593431 
L 524.807266 -577.822471 
L 526.257446 -581.518552 
L 527.707625 -580.671534 
L 529.157804 -579.541609 
L 530.607984 -578.003804 
L 532.058163 -575.63064 
L 533.508342 -572.376035 
L 534.958522 -569.252389 
L 536.408701 -557.225 
L 537.85888 -569.246482 
L 539.30906 -572.346035 
L 540.759239 -575.511988 
L 542.209418 -577.63833 
L 543.659598 -578.664883 
L 545.109777 -579.033595 
L 546.559956 -579.133798 
L 548.010136 -579.154599 
L 549.460315 -579.158367 
L 550.910494 -579.158367 
L 552.360674 -579.158367 
L 553.810853 -579.158367 
L 555.261032 -579.158367 
L 556.711212 -579.158367 
L 558.161391 -579.158367 
L 559.61157 -579.158367 
L 561.06175 -579.158367 
L 562.511929 -579.158367 
L 563.962108 -579.158367 
L 565.412288 -579.158367 
L 566.862467 -579.158367 
L 568.312646 -579.158367 
L 569.762826 -579.158367 
L 571.213005 -579.158367 
L 572.663184 -579.158367 
L 574.113363 -579.158367 
L 575.563543 -579.158367 
L 577.013722 -579.158367 
L 578.463901 -579.158367 
L 579.914081 -579.158367 
L 581.36426 -579.158367 
L 582.814439 -579.158367 
L 584.264619 -579.158367 
L 585.714798 -579.158367 
L 587.164977 -579.158367 
L 588.615157 -579.158367 
L 590.065336 -579.151986 
L 591.515515 -579.116761 
L 592.965695 -578.947072 
L 594.415874 -578.322678 
L 595.866053 -576.584263 
L 597.316233 -572.983413 
L 598.766412 -567.622035 
L 600.216591 -562.366324 
L 601.666771 -549.880841 
L 603.11695 -562.110866 
L 604.567129 -566.542436 
L 606.017309 -569.490185 
L 607.467488 -567.679715 
L 608.917667 -560.410498 
L 610.367847 -550.378597 
L 611.818026 -533.597978 
L 613.268205 -533.893727 
L 614.718385 -543.197707 
L 616.168564 -544.977942 
L 617.618743 -542.307961 
L 619.068923 -529.728684 
L 620.519102 -529.316969 
L 621.969281 -518.433504 
L 623.41946 -518.353933 
L 624.86964 -523.685434 
L 626.319819 -534.300853 
L 627.769998 -538.561155 
L 629.220178 -550.860501 
L 630.670357 -556.03016 
L 632.120536 -554.59064 
L 633.570716 -565.545321 
L 635.020895 -570.172029 
L 636.471074 -573.094395 
L 636.471074 -573.094395 
L 636.471074 -573.094395 
L 635.020895 -570.172029 
L 633.570716 -565.545321 
L 632.120536 -566.772559 
L 630.670357 -556.03016 
L 629.220178 -550.860501 
L 627.769998 -550.312302 
L 626.319819 -539.88433 
L 624.86964 -536.863855 
L 623.41946 -533.483122 
L 621.969281 -532.599579 
L 620.519102 -529.316969 
L 619.068923 -542.141518 
L 617.618743 -542.307961 
L 616.168564 -544.977942 
L 614.718385 -543.197707 
L 613.268205 -547.482749 
L 611.818026 -551.62359 
L 610.367847 -550.378597 
L 608.917667 -560.410498 
L 607.467488 -567.679715 
L 606.017309 -569.490185 
L 604.567129 -566.542436 
L 603.11695 -562.110866 
L 601.666771 -570.295515 
L 600.216591 -562.366324 
L 598.766412 -567.622035 
L 597.316233 -572.983413 
L 595.866053 -576.584263 
L 594.415874 -578.322678 
L 592.965695 -578.947072 
L 591.515515 -579.116761 
L 590.065336 -579.151986 
L 588.615157 -579.158367 
L 587.164977 -579.158367 
L 585.714798 -579.158367 
L 584.264619 -579.158367 
L 582.814439 -579.158367 
L 581.36426 -579.158367 
L 579.914081 -579.158367 
L 578.463901 -579.158367 
L 577.013722 -579.158367 
L 575.563543 -579.158367 
L 574.113363 -579.158367 
L 572.663184 -579.158367 
L 571.213005 -579.158367 
L 569.762826 -579.158367 
L 568.312646 -579.158367 
L 566.862467 -579.158367 
L 565.412288 -579.158367 
L 563.962108 -579.158367 
L 562.511929 -579.158367 
L 561.06175 -579.158367 
L 559.61157 -579.158367 
L 558.161391 -579.158367 
L 556.711212 -579.158367 
L 555.261032 -579.158367 
L 553.810853 -579.158367 
L 552.360674 -579.158367 
L 550.910494 -579.158367 
L 549.460315 -579.158367 
L 548.010136 -579.154599 
L 546.559956 -579.133798 
L 545.109777 -579.033595 
L 543.659598 -578.664883 
L 542.209418 -577.63833 
L 540.759239 -575.511988 
L 539.30906 -572.346035 
L 537.85888 -569.246482 
L 536.408701 -578.630272 
L 534.958522 -569.252389 
L 533.508342 -572.376035 
L 532.058163 -575.63064 
L 530.607984 -578.003804 
L 529.157804 -579.541609 
L 527.707625 -580.671534 
L 526.257446 -581.518552 
L 524.807266 -585.908167 
L 523.357087 -581.593431 
L 521.906908 -581.001481 
L 520.456729 -580.667076 
L 519.006549 -581.039891 
L 517.55637 -582.109373 
L 516.106191 -583.309418 
L 514.656011 -586.806288 
L 513.205832 -583.280324 
L 511.755653 -581.990721 
L 510.305473 -580.674417 
L 508.855294 -579.790351 
L 507.405115 -579.363542 
L 505.954935 -579.210243 
L 504.504756 -579.168582 
L 503.054577 -579.159934 
L 501.604397 -579.158367 
L 500.154218 -579.158367 
L 498.704039 -579.158367 
L 497.253859 -579.158367 
L 495.80368 -579.158367 
L 494.353501 -579.158367 
L 492.903321 -579.158367 
L 491.453142 -579.158367 
L 490.002963 -579.158367 
L 488.552783 -579.158367 
L 487.102604 -579.158367 
L 485.652425 -579.158367 
L 484.202245 -579.158367 
L 482.752066 -579.158367 
L 481.301887 -579.158367 
L 479.851707 -579.158367 
L 478.401528 -579.158367 
L 476.951349 -579.158367 
L 475.501169 -579.158367 
L 474.05099 -579.158367 
L 472.600811 -579.158367 
L 471.150632 -579.158367 
L 469.700452 -579.158367 
L 468.250273 -579.158367 
L 466.800094 -579.158367 
L 465.349914 -579.158367 
L 463.899735 -579.158367 
L 462.449556 -579.158367 
L 460.999376 -579.158367 
L 459.549197 -579.158367 
L 458.099018 -579.158367 
L 456.648838 -579.158367 
L 455.198659 -579.158367 
L 453.74848 -579.152146 
L 452.2983 -579.117804 
L 450.848121 -578.95237 
L 449.397942 -578.343631 
L 447.947762 -576.64281 
L 446.497583 -573.099157 
L 445.047404 -567.709039 
L 443.597224 -561.979916 
L 442.147045 -563.030842 
L 440.696866 -556.351509 
L 439.246686 -554.96768 
L 437.796507 -551.917101 
L 436.346328 -561.345114 
L 434.896148 -544.527807 
L 433.445969 -549.704468 
L 431.99579 -554.316528 
L 430.54561 -556.360527 
L 429.095431 -563.237328 
L 427.645252 -568.130027 
L 426.195073 -575.709385 
L 424.744893 -573.443532 
L 423.294714 -575.549153 
L 421.844535 -577.285731 
L 420.394355 -578.386953 
L 418.944176 -578.909369 
L 417.493997 -579.09541 
L 416.043817 -579.14597 
L 414.593638 -579.156466 
L 413.143459 -579.158367 
L 411.693279 -579.158367 
L 410.2431 -579.158367 
L 408.792921 -579.158367 
L 407.342741 -579.158367 
L 405.892562 -579.158367 
z
" style="stroke: #d62728; stroke-opacity: 0.2"/>
    </defs>
    <g clip-path="url(#p760fa0ee94)">
     <use xlink:href="#m9de4bc4493" x="0" y="720" style="fill: #d62728; fill-opacity: 0.2; stroke: #d62728; stroke-opacity: 0.2"/>
    </g>
   </g>
   <g id="PolyCollection_4">
    <defs>
     <path id="m928f8cf20e" d="M 405.892562 -579.137586 
L 405.892562 -579.137586 
L 407.342741 -579.060114 
L 408.792921 -578.746412 
L 410.2431 -577.797075 
L 411.693279 -575.608246 
L 413.143459 -571.843263 
L 414.593638 -567.239681 
L 416.043817 -559.025889 
L 417.493997 -556.891858 
L 418.944176 -566.540772 
L 420.394355 -571.129382 
L 421.844535 -575.128783 
L 423.294714 -577.565601 
L 424.744893 -578.663272 
L 426.195073 -579.03752 
L 427.645252 -579.135235 
L 429.095431 -579.155178 
L 430.54561 -579.158367 
L 431.99579 -579.158367 
L 433.445969 -579.158367 
L 434.896148 -579.158367 
L 436.346328 -579.158367 
L 437.796507 -579.158367 
L 439.246686 -579.158367 
L 440.696866 -579.158367 
L 442.147045 -579.158367 
L 443.597224 -579.162168 
L 445.047404 -579.183153 
L 446.497583 -579.28424 
L 447.947762 -579.656206 
L 449.397942 -580.691819 
L 450.848121 -582.836927 
L 452.2983 -586.030822 
L 453.74848 -589.15773 
L 455.198659 -582.258112 
L 456.648838 -589.15773 
L 458.099018 -586.028789 
L 459.549197 -582.820182 
L 460.999376 -580.601749 
L 462.449556 -579.272281 
L 463.899735 -577.993257 
L 465.349914 -575.737535 
L 466.800094 -571.829947 
L 468.250273 -566.637998 
L 469.700452 -554.615268 
L 471.150632 -553.279249 
L 472.600811 -560.654491 
L 474.05099 -558.278999 
L 475.501169 -569.308597 
L 476.951349 -573.598712 
L 478.401528 -576.555693 
L 479.851707 -578.174837 
L 481.301887 -578.916836 
L 482.752066 -579.348315 
L 484.202245 -579.99254 
L 485.652425 -581.292873 
L 487.102604 -583.394732 
L 488.552783 -585.779155 
L 490.002963 -581.073864 
L 491.453142 -584.077268 
L 492.903321 -585.346052 
L 494.353501 -583.103461 
L 495.80368 -581.590083 
L 497.253859 -581.351382 
L 498.704039 -582.177658 
L 500.154218 -583.299389 
L 501.604397 -580.368024 
L 503.054577 -583.251407 
L 504.504756 -581.973931 
L 505.954935 -580.684864 
L 507.405115 -579.891442 
L 508.855294 -579.774571 
L 510.305473 -580.454876 
L 511.755653 -582.054131 
L 513.205832 -584.239943 
L 514.656011 -585.80363 
L 516.106191 -580.729364 
L 517.55637 -582.545308 
L 519.006549 -573.846032 
L 520.456729 -577.146031 
L 521.906908 -576.925559 
L 523.357087 -577.687357 
L 524.807266 -578.475407 
L 526.257446 -578.922907 
L 527.707625 -579.096727 
L 529.157804 -579.148285 
L 530.607984 -579.173978 
L 532.058163 -579.247597 
L 533.508342 -579.511279 
L 534.958522 -580.245412 
L 536.408701 -581.766052 
L 537.85888 -584.031311 
L 539.30906 -586.25524 
L 540.759239 -569.361994 
L 542.209418 -586.429079 
L 543.659598 -584.619546 
L 545.109777 -583.265805 
L 546.559956 -583.25338 
L 548.010136 -584.272817 
L 549.460315 -571.903472 
L 550.910494 -572.666748 
L 552.360674 -583.816015 
L 553.810853 -582.193326 
L 555.261032 -581.117408 
L 556.711212 -581.05357 
L 558.161391 -581.874927 
L 559.61157 -583.004215 
L 561.06175 -575.197344 
L 562.511929 -584.597264 
L 563.962108 -586.260876 
L 565.412288 -589.907159 
L 566.862467 -594.980702 
L 568.312646 -591.488178 
L 569.762826 -592.107008 
L 571.213005 -595.165368 
L 572.663184 -589.31074 
L 574.113363 -584.239878 
L 575.563543 -581.162406 
L 577.013722 -579.780096 
L 578.463901 -579.309877 
L 579.914081 -579.187329 
L 581.36426 -579.162337 
L 582.814439 -579.158367 
L 584.264619 -579.158367 
L 585.714798 -579.158367 
L 587.164977 -579.158367 
L 588.615157 -579.158367 
L 590.065336 -579.158367 
L 591.515515 -579.158367 
L 592.965695 -579.159956 
L 594.415874 -579.168731 
L 595.866053 -579.211001 
L 597.316233 -579.366538 
L 598.766412 -579.799579 
L 600.216591 -580.696555 
L 601.666771 -582.03208 
L 603.11695 -583.342275 
L 604.567129 -573.866848 
L 606.017309 -583.42834 
L 607.467488 -582.383074 
L 608.917667 -581.777692 
L 610.367847 -582.393093 
L 611.818026 -584.211859 
L 613.268205 -586.260902 
L 614.718385 -578.563046 
L 616.168564 -586.209857 
L 617.618743 -584.003688 
L 619.068923 -581.753654 
L 620.519102 -580.251066 
L 621.969281 -579.568785 
L 623.41946 -579.484775 
L 624.86964 -579.91993 
L 626.319819 -580.996791 
L 627.769998 -582.757708 
L 629.220178 -584.84398 
L 630.670357 -580.852681 
L 632.120536 -587.297423 
L 633.570716 -581.26952 
L 635.020895 -580.21776 
L 636.471074 -585.705765 
L 636.471074 -585.705765 
L 636.471074 -585.705765 
L 635.020895 -592.410639 
L 633.570716 -592.855883 
L 632.120536 -587.297423 
L 630.670357 -592.242224 
L 629.220178 -584.84398 
L 627.769998 -582.757708 
L 626.319819 -580.996791 
L 624.86964 -579.91993 
L 623.41946 -579.484775 
L 621.969281 -579.568785 
L 620.519102 -580.251066 
L 619.068923 -581.753654 
L 617.618743 -584.003688 
L 616.168564 -586.209857 
L 614.718385 -595.751585 
L 613.268205 -586.260902 
L 611.818026 -584.211859 
L 610.367847 -582.393093 
L 608.917667 -581.777692 
L 607.467488 -582.383074 
L 606.017309 -583.42834 
L 604.567129 -593.960739 
L 603.11695 -583.342275 
L 601.666771 -582.03208 
L 600.216591 -580.696555 
L 598.766412 -579.799579 
L 597.316233 -579.366538 
L 595.866053 -579.211001 
L 594.415874 -579.168731 
L 592.965695 -579.159956 
L 591.515515 -579.158367 
L 590.065336 -579.158367 
L 588.615157 -579.158367 
L 587.164977 -579.158367 
L 585.714798 -579.158367 
L 584.264619 -579.158367 
L 582.814439 -579.158367 
L 581.36426 -579.162337 
L 579.914081 -579.187329 
L 578.463901 -579.309877 
L 577.013722 -579.780096 
L 575.563543 -581.162406 
L 574.113363 -584.239878 
L 572.663184 -589.31074 
L 571.213005 -595.165368 
L 569.762826 -606.132631 
L 568.312646 -606.395233 
L 566.862467 -594.980702 
L 565.412288 -589.907159 
L 563.962108 -586.260876 
L 562.511929 -584.597264 
L 561.06175 -592.539161 
L 559.61157 -583.004215 
L 558.161391 -581.874927 
L 556.711212 -581.05357 
L 555.261032 -581.117408 
L 553.810853 -582.193326 
L 552.360674 -583.816015 
L 550.910494 -597.484477 
L 549.460315 -598.505832 
L 548.010136 -584.272817 
L 546.559956 -583.25338 
L 545.109777 -583.265805 
L 543.659598 -584.619546 
L 542.209418 -586.429079 
L 540.759239 -605.107823 
L 539.30906 -586.25524 
L 537.85888 -584.031311 
L 536.408701 -581.766052 
L 534.958522 -580.245412 
L 533.508342 -579.511279 
L 532.058163 -579.247597 
L 530.607984 -579.173978 
L 529.157804 -579.148285 
L 527.707625 -579.096727 
L 526.257446 -578.922907 
L 524.807266 -578.475407 
L 523.357087 -577.687357 
L 521.906908 -576.925559 
L 520.456729 -577.146031 
L 519.006549 -584.529876 
L 517.55637 -582.545308 
L 516.106191 -589.859626 
L 514.656011 -585.80363 
L 513.205832 -584.239943 
L 511.755653 -582.054131 
L 510.305473 -580.454876 
L 508.855294 -579.774571 
L 507.405115 -579.891442 
L 505.954935 -580.684864 
L 504.504756 -581.973931 
L 503.054577 -583.251407 
L 501.604397 -587.240528 
L 500.154218 -583.299389 
L 498.704039 -582.177658 
L 497.253859 -581.351382 
L 495.80368 -581.590083 
L 494.353501 -583.103461 
L 492.903321 -585.346052 
L 491.453142 -590.181347 
L 490.002963 -593.580261 
L 488.552783 -585.779155 
L 487.102604 -583.394732 
L 485.652425 -581.292873 
L 484.202245 -579.99254 
L 482.752066 -579.348315 
L 481.301887 -578.916836 
L 479.851707 -578.174837 
L 478.401528 -576.555693 
L 476.951349 -573.598712 
L 475.501169 -569.308597 
L 474.05099 -570.677733 
L 472.600811 -560.654491 
L 471.150632 -565.77859 
L 469.700452 -569.07334 
L 468.250273 -566.637998 
L 466.800094 -571.829947 
L 465.349914 -575.737535 
L 463.899735 -577.993257 
L 462.449556 -579.272281 
L 460.999376 -580.601749 
L 459.549197 -582.820182 
L 458.099018 -586.028789 
L 456.648838 -589.15773 
L 455.198659 -598.720148 
L 453.74848 -589.15773 
L 452.2983 -586.030822 
L 450.848121 -582.836927 
L 449.397942 -580.691819 
L 447.947762 -579.656206 
L 446.497583 -579.28424 
L 445.047404 -579.183153 
L 443.597224 -579.162168 
L 442.147045 -579.158367 
L 440.696866 -579.158367 
L 439.246686 -579.158367 
L 437.796507 -579.158367 
L 436.346328 -579.158367 
L 434.896148 -579.158367 
L 433.445969 -579.158367 
L 431.99579 -579.158367 
L 430.54561 -579.158367 
L 429.095431 -579.155178 
L 427.645252 -579.135235 
L 426.195073 -579.03752 
L 424.744893 -578.663272 
L 423.294714 -577.565601 
L 421.844535 -575.128783 
L 420.394355 -571.129382 
L 418.944176 -566.540772 
L 417.493997 -570.107397 
L 416.043817 -568.568541 
L 414.593638 -567.239681 
L 413.143459 -571.843263 
L 411.693279 -575.608246 
L 410.2431 -577.797075 
L 408.792921 -578.746412 
L 407.342741 -579.060114 
L 405.892562 -579.137586 
z
" style="stroke: #ff7f0e; stroke-opacity: 0.2"/>
    </defs>
    <g clip-path="url(#p760fa0ee94)">
     <use xlink:href="#m928f8cf20e" x="0" y="720" style="fill: #ff7f0e; fill-opacity: 0.2; stroke: #ff7f0e; stroke-opacity: 0.2"/>
    </g>
   </g>
   <g id="matplotlib.axis_3">
    <g id="xtick_7">
     <g id="line2d_13">
      <g>
       <use xlink:href="#m9546dd91a4" x="405.863558" y="333.490909" style="stroke: #000000; stroke-width: 0.8"/>
      </g>
     </g>
     <g id="text_13">
      <!-- 0 -->
      <g transform="translate(402.682308 348.089347)scale(0.1 -0.1)">
       <use xlink:href="#DejaVuSans-30"/>
      </g>
     </g>
    </g>
    <g id="xtick_8">
     <g id="line2d_14">
      <g>
       <use xlink:href="#m9546dd91a4" x="463.870731" y="333.490909" style="stroke: #000000; stroke-width: 0.8"/>
      </g>
     </g>
     <g id="text_14">
      <!-- 2000 -->
      <g transform="translate(451.145731 348.089347)scale(0.1 -0.1)">
       <use xlink:href="#DejaVuSans-32"/>
       <use xlink:href="#DejaVuSans-30" x="63.623047"/>
       <use xlink:href="#DejaVuSans-30" x="127.246094"/>
       <use xlink:href="#DejaVuSans-30" x="190.869141"/>
      </g>
     </g>
    </g>
    <g id="xtick_9">
     <g id="line2d_15">
      <g>
       <use xlink:href="#m9546dd91a4" x="521.877904" y="333.490909" style="stroke: #000000; stroke-width: 0.8"/>
      </g>
     </g>
     <g id="text_15">
      <!-- 4000 -->
      <g transform="translate(509.152904 348.089347)scale(0.1 -0.1)">
       <use xlink:href="#DejaVuSans-34"/>
       <use xlink:href="#DejaVuSans-30" x="63.623047"/>
       <use xlink:href="#DejaVuSans-30" x="127.246094"/>
       <use xlink:href="#DejaVuSans-30" x="190.869141"/>
      </g>
     </g>
    </g>
    <g id="xtick_10">
     <g id="line2d_16">
      <g>
       <use xlink:href="#m9546dd91a4" x="579.885077" y="333.490909" style="stroke: #000000; stroke-width: 0.8"/>
      </g>
     </g>
     <g id="text_16">
      <!-- 6000 -->
      <g transform="translate(567.160077 348.089347)scale(0.1 -0.1)">
       <use xlink:href="#DejaVuSans-36"/>
       <use xlink:href="#DejaVuSans-30" x="63.623047"/>
       <use xlink:href="#DejaVuSans-30" x="127.246094"/>
       <use xlink:href="#DejaVuSans-30" x="190.869141"/>
      </g>
     </g>
    </g>
    <g id="xtick_11">
     <g id="line2d_17">
      <g>
       <use xlink:href="#m9546dd91a4" x="637.89225" y="333.490909" style="stroke: #000000; stroke-width: 0.8"/>
      </g>
     </g>
     <g id="text_17">
      <!-- 8000 -->
      <g transform="translate(625.16725 348.089347)scale(0.1 -0.1)">
       <use xlink:href="#DejaVuSans-38"/>
       <use xlink:href="#DejaVuSans-30" x="63.623047"/>
       <use xlink:href="#DejaVuSans-30" x="127.246094"/>
       <use xlink:href="#DejaVuSans-30" x="190.869141"/>
      </g>
     </g>
    </g>
   </g>
   <g id="matplotlib.axis_4">
    <g id="ytick_7">
     <g id="line2d_18">
      <g>
       <use xlink:href="#m20e8c35d48" x="394.363636" y="320.264078" style="stroke: #000000; stroke-width: 0.8"/>
      </g>
     </g>
     <g id="text_18">
      <!-- −3.0 -->
      <g transform="translate(363.080824 324.063297)scale(0.1 -0.1)">
       <defs>
        <path id="DejaVuSans-2212" d="M 678 2272 
L 4684 2272 
L 4684 1741 
L 678 1741 
L 678 2272 
z
" transform="scale(0.015625)"/>
        <path id="DejaVuSans-33" d="M 2597 2516 
Q 3050 2419 3304 2112 
Q 3559 1806 3559 1356 
Q 3559 666 3084 287 
Q 2609 -91 1734 -91 
Q 1441 -91 1130 -33 
Q 819 25 488 141 
L 488 750 
Q 750 597 1062 519 
Q 1375 441 1716 441 
Q 2309 441 2620 675 
Q 2931 909 2931 1356 
Q 2931 1769 2642 2001 
Q 2353 2234 1838 2234 
L 1294 2234 
L 1294 2753 
L 1863 2753 
Q 2328 2753 2575 2939 
Q 2822 3125 2822 3475 
Q 2822 3834 2567 4026 
Q 2313 4219 1838 4219 
Q 1578 4219 1281 4162 
Q 984 4106 628 3988 
L 628 4550 
Q 988 4650 1302 4700 
Q 1616 4750 1894 4750 
Q 2613 4750 3031 4423 
Q 3450 4097 3450 3541 
Q 3450 3153 3228 2886 
Q 3006 2619 2597 2516 
z
" transform="scale(0.015625)"/>
       </defs>
       <use xlink:href="#DejaVuSans-2212"/>
       <use xlink:href="#DejaVuSans-33" x="83.789062"/>
       <use xlink:href="#DejaVuSans-2e" x="147.412109"/>
       <use xlink:href="#DejaVuSans-30" x="179.199219"/>
      </g>
     </g>
    </g>
    <g id="ytick_8">
     <g id="line2d_19">
      <g>
       <use xlink:href="#m20e8c35d48" x="394.363636" y="290.360337" style="stroke: #000000; stroke-width: 0.8"/>
      </g>
     </g>
     <g id="text_19">
      <!-- −2.5 -->
      <g transform="translate(363.080824 294.159556)scale(0.1 -0.1)">
       <defs>
        <path id="DejaVuSans-35" d="M 691 4666 
L 3169 4666 
L 3169 4134 
L 1269 4134 
L 1269 2991 
Q 1406 3038 1543 3061 
Q 1681 3084 1819 3084 
Q 2600 3084 3056 2656 
Q 3513 2228 3513 1497 
Q 3513 744 3044 326 
Q 2575 -91 1722 -91 
Q 1428 -91 1123 -41 
Q 819 9 494 109 
L 494 744 
Q 775 591 1075 516 
Q 1375 441 1709 441 
Q 2250 441 2565 725 
Q 2881 1009 2881 1497 
Q 2881 1984 2565 2268 
Q 2250 2553 1709 2553 
Q 1456 2553 1204 2497 
Q 953 2441 691 2322 
L 691 4666 
z
" transform="scale(0.015625)"/>
       </defs>
       <use xlink:href="#DejaVuSans-2212"/>
       <use xlink:href="#DejaVuSans-32" x="83.789062"/>
       <use xlink:href="#DejaVuSans-2e" x="147.412109"/>
       <use xlink:href="#DejaVuSans-35" x="179.199219"/>
      </g>
     </g>
    </g>
    <g id="ytick_9">
     <g id="line2d_20">
      <g>
       <use xlink:href="#m20e8c35d48" x="394.363636" y="260.456596" style="stroke: #000000; stroke-width: 0.8"/>
      </g>
     </g>
     <g id="text_20">
      <!-- −2.0 -->
      <g transform="translate(363.080824 264.255815)scale(0.1 -0.1)">
       <use xlink:href="#DejaVuSans-2212"/>
       <use xlink:href="#DejaVuSans-32" x="83.789062"/>
       <use xlink:href="#DejaVuSans-2e" x="147.412109"/>
       <use xlink:href="#DejaVuSans-30" x="179.199219"/>
      </g>
     </g>
    </g>
    <g id="ytick_10">
     <g id="line2d_21">
      <g>
       <use xlink:href="#m20e8c35d48" x="394.363636" y="230.552856" style="stroke: #000000; stroke-width: 0.8"/>
      </g>
     </g>
     <g id="text_21">
      <!-- −1.5 -->
      <g transform="translate(363.080824 234.352074)scale(0.1 -0.1)">
       <use xlink:href="#DejaVuSans-2212"/>
       <use xlink:href="#DejaVuSans-31" x="83.789062"/>
       <use xlink:href="#DejaVuSans-2e" x="147.412109"/>
       <use xlink:href="#DejaVuSans-35" x="179.199219"/>
      </g>
     </g>
    </g>
    <g id="ytick_11">
     <g id="line2d_22">
      <g>
       <use xlink:href="#m20e8c35d48" x="394.363636" y="200.649115" style="stroke: #000000; stroke-width: 0.8"/>
      </g>
     </g>
     <g id="text_22">
      <!-- −1.0 -->
      <g transform="translate(363.080824 204.448333)scale(0.1 -0.1)">
       <use xlink:href="#DejaVuSans-2212"/>
       <use xlink:href="#DejaVuSans-31" x="83.789062"/>
       <use xlink:href="#DejaVuSans-2e" x="147.412109"/>
       <use xlink:href="#DejaVuSans-30" x="179.199219"/>
      </g>
     </g>
    </g>
    <g id="ytick_12">
     <g id="line2d_23">
      <g>
       <use xlink:href="#m20e8c35d48" x="394.363636" y="170.745374" style="stroke: #000000; stroke-width: 0.8"/>
      </g>
     </g>
     <g id="text_23">
      <!-- −0.5 -->
      <g transform="translate(363.080824 174.544593)scale(0.1 -0.1)">
       <use xlink:href="#DejaVuSans-2212"/>
       <use xlink:href="#DejaVuSans-30" x="83.789062"/>
       <use xlink:href="#DejaVuSans-2e" x="147.412109"/>
       <use xlink:href="#DejaVuSans-35" x="179.199219"/>
      </g>
     </g>
    </g>
    <g id="ytick_13">
     <g id="line2d_24">
      <g>
       <use xlink:href="#m20e8c35d48" x="394.363636" y="140.841633" style="stroke: #000000; stroke-width: 0.8"/>
      </g>
     </g>
     <g id="text_24">
      <!-- 0.0 -->
      <g transform="translate(371.460511 144.640852)scale(0.1 -0.1)">
       <use xlink:href="#DejaVuSans-30"/>
       <use xlink:href="#DejaVuSans-2e" x="63.623047"/>
       <use xlink:href="#DejaVuSans-30" x="95.410156"/>
      </g>
     </g>
    </g>
    <g id="ytick_14">
     <g id="line2d_25">
      <g>
       <use xlink:href="#m20e8c35d48" x="394.363636" y="110.937892" style="stroke: #000000; stroke-width: 0.8"/>
      </g>
     </g>
     <g id="text_25">
      <!-- 0.5 -->
      <g transform="translate(371.460511 114.737111)scale(0.1 -0.1)">
       <use xlink:href="#DejaVuSans-30"/>
       <use xlink:href="#DejaVuSans-2e" x="63.623047"/>
       <use xlink:href="#DejaVuSans-35" x="95.410156"/>
      </g>
     </g>
    </g>
   </g>
   <g id="line2d_26">
    <path d="M 405.892562 111.493785 
L 407.342741 114.514033 
L 408.792921 118.451105 
L 410.2431 121.376039 
L 411.693279 123.410049 
L 413.143459 126.030735 
L 414.593638 129.93257 
L 416.043817 134.235859 
L 417.493997 137.63179 
L 418.944176 139.603186 
L 420.394355 140.464174 
L 421.844535 140.750893 
L 424.744893 140.839392 
L 434.896148 140.876079 
L 436.346328 141.016564 
L 437.796507 141.533497 
L 439.246686 142.972725 
L 440.696866 145.953858 
L 443.597224 154.738102 
L 445.047404 156.588395 
L 446.497583 154.738102 
L 449.397942 145.993322 
L 450.848121 143.184592 
L 452.2983 142.422511 
L 453.74848 143.97519 
L 455.198659 148.773919 
L 456.648838 157.98139 
L 458.099018 171.588477 
L 459.549197 187.457299 
L 460.999376 201.877561 
L 462.449556 211.017368 
L 463.899735 212.177738 
L 465.349914 204.919385 
L 468.250273 179.341447 
L 469.700452 172.116093 
L 471.150632 172.438406 
L 472.600811 178.398176 
L 474.05099 186.431613 
L 475.501169 193.405529 
L 476.951349 197.254091 
L 478.401528 197.371563 
L 479.851707 194.900298 
L 481.301887 191.8636 
L 482.752066 189.643639 
L 484.202245 188.148005 
L 485.652425 185.92642 
L 487.102604 181.132435 
L 488.552783 173.188438 
L 490.002963 163.949111 
L 491.453142 156.849737 
L 492.903321 154.477432 
L 494.353501 156.720479 
L 495.80368 161.030878 
L 497.253859 164.455343 
L 498.704039 165.65222 
L 500.154218 165.129654 
L 501.604397 163.880264 
L 503.054577 162.214755 
L 504.504756 159.877447 
L 505.954935 156.757321 
L 508.855294 149.612106 
L 510.305473 146.594524 
L 511.755653 144.357028 
L 513.205832 142.85433 
L 514.656011 141.900011 
L 516.106191 141.329604 
L 517.55637 141.02999 
L 520.456729 140.856039 
L 534.958522 140.841633 
L 558.161391 140.897426 
L 559.61157 141.068183 
L 561.06175 141.566078 
L 562.511929 142.715963 
L 563.962108 144.925634 
L 565.412288 148.78939 
L 566.862467 155.439999 
L 568.312646 166.532968 
L 569.762826 183.077769 
L 572.663184 226.492752 
L 574.113363 247.897931 
L 575.563543 266.91208 
L 577.013722 283.044992 
L 578.463901 295.955808 
L 579.914081 305.429543 
L 581.36426 311.316311 
L 582.814439 313.346028 
L 584.264619 311.453595 
L 585.714798 306.260574 
L 587.164977 298.798558 
L 591.515515 272.220007 
L 592.965695 265.918159 
L 594.415874 260.641091 
L 595.866053 252.929639 
L 597.316233 239.278593 
L 598.766412 219.135797 
L 601.666771 174.043057 
L 603.11695 157.869177 
L 604.567129 148.127209 
L 606.017309 143.404915 
L 607.467488 141.573401 
L 608.917667 141.008969 
L 610.367847 140.871252 
L 617.618743 140.841633 
L 636.471074 140.841633 
L 636.471074 140.841633 
" clip-path="url(#p760fa0ee94)" style="fill: none; stroke: #9467bd; stroke-width: 2; stroke-linecap: square"/>
   </g>
   <g id="line2d_27">
    <path d="M 405.892562 145.498404 
L 407.342741 146.919271 
L 408.792921 148.585925 
L 410.2431 149.036979 
L 411.693279 147.684886 
L 414.593638 142.935962 
L 416.043817 142.142344 
L 417.493997 143.961795 
L 418.944176 148.979456 
L 421.844535 162.919785 
L 423.294714 166.409792 
L 424.744893 166.228544 
L 426.195073 164.077312 
L 431.99579 154.286073 
L 433.445969 153.052349 
L 434.896148 153.177943 
L 436.346328 153.625094 
L 437.796507 152.940691 
L 439.246686 150.480969 
L 442.147045 143.577016 
L 443.597224 141.355365 
L 445.047404 140.302883 
L 446.497583 140.026997 
L 450.848121 140.258117 
L 452.2983 140.016816 
L 453.74848 139.65154 
L 455.198659 139.402223 
L 456.648838 139.480952 
L 458.099018 139.885396 
L 460.999376 140.993752 
L 462.449556 141.772953 
L 463.899735 143.112138 
L 466.800094 146.959892 
L 468.250273 147.770539 
L 469.700452 146.955698 
L 472.600811 143.090777 
L 474.05099 141.779216 
L 475.501169 141.146022 
L 476.951349 140.918594 
L 481.301887 140.841969 
L 485.652425 140.885706 
L 488.552783 141.166987 
L 491.453142 141.720767 
L 492.903321 141.825954 
L 494.353501 141.683965 
L 497.253859 141.11725 
L 498.704039 141.128802 
L 500.154218 141.676527 
L 501.604397 143.036715 
L 503.054577 145.274262 
L 504.504756 147.906238 
L 505.954935 149.930435 
L 507.405115 150.427564 
L 508.855294 149.230598 
L 511.755653 144.913022 
L 513.205832 143.564145 
L 514.656011 142.673792 
L 516.106191 140.789404 
L 517.55637 136.202984 
L 519.006549 128.634075 
L 520.456729 120.133095 
L 521.906908 113.699531 
L 523.357087 110.715476 
L 524.807266 110.19726 
L 526.257446 110.66019 
L 527.707625 111.894668 
L 529.157804 114.53788 
L 530.607984 118.735247 
L 533.508342 129.052134 
L 534.958522 133.493186 
L 536.408701 136.646508 
L 537.85888 138.635094 
L 539.30906 140.400288 
L 540.759239 143.187838 
L 542.209418 147.565474 
L 543.659598 152.651415 
L 545.109777 156.433382 
L 546.559956 157.398351 
L 549.460315 154.657162 
L 550.910494 154.652919 
L 552.360674 155.585765 
L 553.810853 155.734794 
L 555.261032 153.965821 
L 556.711212 150.480135 
L 559.61157 142.378345 
L 561.06175 139.674901 
L 562.511929 138.574577 
L 563.962108 138.836934 
L 566.862467 140.42958 
L 568.312646 140.783966 
L 571.213005 140.864813 
L 584.264619 140.841633 
L 594.415874 140.758953 
L 595.866053 140.512746 
L 597.316233 139.819021 
L 598.766412 138.354991 
L 601.666771 133.794107 
L 603.11695 132.79467 
L 604.567129 134.300493 
L 606.017309 138.448822 
L 607.467488 144.054817 
L 608.917667 149.038196 
L 610.367847 151.495119 
L 611.818026 150.962255 
L 614.718385 146.184515 
L 616.168564 144.439883 
L 617.618743 143.420707 
L 619.068923 142.867185 
L 623.41946 141.8361 
L 624.86964 141.617211 
L 626.319819 141.625367 
L 629.220178 142.027653 
L 630.670357 142.394045 
L 632.120536 143.238738 
L 633.570716 144.833744 
L 635.020895 146.861503 
L 636.471074 148.33912 
L 636.471074 148.33912 
" clip-path="url(#p760fa0ee94)" style="fill: none; stroke: #1f77b4; stroke-width: 2; stroke-linecap: square"/>
   </g>
   <g id="line2d_28">
    <path d="M 405.892562 140.841633 
L 417.493997 140.90459 
L 418.944176 141.090631 
L 420.394355 141.613047 
L 421.844535 142.714269 
L 423.294714 144.450847 
L 426.195073 148.836942 
L 427.645252 151.869973 
L 429.095431 156.762672 
L 431.99579 170.651308 
L 433.445969 175.101647 
L 434.896148 175.472193 
L 436.346328 172.368744 
L 437.796507 168.082899 
L 439.246686 165.03232 
L 440.696866 163.648491 
L 442.147045 161.956929 
L 443.597224 158.020084 
L 446.497583 146.900843 
L 447.947762 143.35719 
L 449.397942 141.656369 
L 450.848121 141.04763 
L 452.2983 140.882196 
L 458.099018 140.841633 
L 505.954935 140.789757 
L 507.405115 140.636458 
L 508.855294 140.209649 
L 510.305473 139.325583 
L 513.205832 136.719676 
L 514.656011 136.165963 
L 516.106191 136.690582 
L 519.006549 138.960109 
L 520.456729 139.332924 
L 521.906908 138.998519 
L 523.357087 138.406569 
L 524.807266 138.134681 
L 526.257446 138.481448 
L 527.707625 139.328466 
L 529.157804 140.458391 
L 530.607984 141.996196 
L 532.058163 144.36936 
L 534.958522 150.747611 
L 536.408701 152.072364 
L 537.85888 150.753518 
L 540.759239 144.488012 
L 542.209418 142.36167 
L 543.659598 141.335117 
L 545.109777 140.966405 
L 548.010136 140.845401 
L 588.615157 140.841633 
L 591.515515 140.883239 
L 592.965695 141.052928 
L 594.415874 141.677322 
L 595.866053 143.415737 
L 597.316233 147.016587 
L 600.216591 157.633676 
L 601.666771 159.911822 
L 603.11695 157.889134 
L 604.567129 153.457564 
L 606.017309 150.509815 
L 607.467488 152.320285 
L 608.917667 159.589502 
L 610.367847 169.621403 
L 611.818026 177.389216 
L 613.268205 179.311762 
L 614.718385 176.802293 
L 616.168564 175.022058 
L 617.618743 177.692039 
L 620.519102 190.683031 
L 621.969281 194.483458 
L 623.41946 194.081473 
L 624.86964 189.725355 
L 629.220178 169.139499 
L 630.670357 163.96984 
L 635.020895 149.827971 
L 636.471074 146.905605 
L 636.471074 146.905605 
" clip-path="url(#p760fa0ee94)" style="fill: none; stroke: #d62728; stroke-width: 2; stroke-linecap: square"/>
   </g>
   <g id="line2d_29">
    <path d="M 405.892562 140.862414 
L 407.342741 140.939886 
L 408.792921 141.253588 
L 410.2431 142.202925 
L 411.693279 144.391754 
L 413.143459 148.156737 
L 414.593638 152.760319 
L 416.043817 156.202785 
L 417.493997 156.500373 
L 418.944176 153.459228 
L 420.394355 148.870618 
L 421.844535 144.871217 
L 423.294714 142.434399 
L 424.744893 141.336728 
L 426.195073 140.96248 
L 429.095431 140.844822 
L 446.497583 140.71576 
L 447.947762 140.343794 
L 449.397942 139.308181 
L 450.848121 137.163073 
L 453.74848 130.84227 
L 455.198659 129.51087 
L 456.648838 130.84227 
L 459.549197 137.179818 
L 460.999376 139.398251 
L 463.899735 142.006743 
L 465.349914 144.262465 
L 466.800094 148.170053 
L 469.700452 158.155696 
L 471.150632 160.471081 
L 472.600811 159.345509 
L 474.05099 155.521634 
L 475.501169 150.691403 
L 476.951349 146.401288 
L 478.401528 143.444307 
L 479.851707 141.825163 
L 481.301887 141.083164 
L 482.752066 140.651685 
L 484.202245 140.00746 
L 485.652425 138.707127 
L 487.102604 136.605268 
L 488.552783 134.220845 
L 490.002963 132.672937 
L 491.453142 132.870693 
L 492.903321 134.653948 
L 494.353501 136.896539 
L 495.80368 138.409917 
L 497.253859 138.648618 
L 498.704039 137.822342 
L 500.154218 136.700611 
L 501.604397 136.195724 
L 503.054577 136.748593 
L 505.954935 139.315136 
L 507.405115 140.108558 
L 508.855294 140.225429 
L 510.305473 139.545124 
L 511.755653 137.945869 
L 513.205832 135.760057 
L 514.656011 134.19637 
L 516.106191 134.705505 
L 517.55637 137.454692 
L 519.006549 140.812046 
L 520.456729 142.853969 
L 521.906908 143.074441 
L 524.807266 141.524593 
L 526.257446 141.077093 
L 527.707625 140.903273 
L 532.058163 140.752403 
L 533.508342 140.488721 
L 534.958522 139.754588 
L 536.408701 138.233948 
L 539.30906 133.74476 
L 540.759239 132.765092 
L 542.209418 133.570921 
L 543.659598 135.380454 
L 545.109777 136.734195 
L 546.559956 136.74662 
L 549.460315 134.795348 
L 550.910494 134.924388 
L 552.360674 136.183985 
L 553.810853 137.806674 
L 555.261032 138.882592 
L 556.711212 138.94643 
L 558.161391 138.125073 
L 559.61157 136.995785 
L 561.06175 136.131748 
L 562.511929 135.402736 
L 563.962108 133.739124 
L 565.412288 130.092841 
L 566.862467 125.019298 
L 568.312646 121.058295 
L 569.762826 120.88018 
L 571.213005 124.834632 
L 572.663184 130.68926 
L 574.113363 135.760122 
L 575.563543 138.837594 
L 577.013722 140.219904 
L 578.463901 140.690123 
L 581.36426 140.837663 
L 595.866053 140.788999 
L 597.316233 140.633462 
L 598.766412 140.200421 
L 600.216591 139.303445 
L 603.11695 136.657725 
L 604.567129 136.086206 
L 606.017309 136.57166 
L 607.467488 137.616926 
L 608.917667 138.222308 
L 610.367847 137.606907 
L 611.818026 135.788141 
L 613.268205 133.739098 
L 614.718385 132.842684 
L 616.168564 133.790143 
L 619.068923 138.246346 
L 620.519102 139.748934 
L 621.969281 140.431215 
L 623.41946 140.515225 
L 624.86964 140.08007 
L 626.319819 139.003209 
L 627.769998 137.242292 
L 629.220178 135.15602 
L 630.670357 133.452547 
L 632.120536 132.702577 
L 633.570716 132.937299 
L 635.020895 133.685801 
L 636.471074 134.294235 
L 636.471074 134.294235 
" clip-path="url(#p760fa0ee94)" style="fill: none; stroke: #ff7f0e; stroke-width: 2; stroke-linecap: square"/>
   </g>
   <g id="LineCollection_1">
    <path d="M 521.877904 304.752379 
L 521.877904 113.741953 
" clip-path="url(#p760fa0ee94)" style="fill: none; stroke-dasharray: 7.4,3.2; stroke-dashoffset: 0; stroke: #000000; stroke-width: 2"/>
    <path d="M 536.379697 304.752379 
L 536.379697 113.741953 
" clip-path="url(#p760fa0ee94)" style="fill: none; stroke-dasharray: 7.4,3.2; stroke-dashoffset: 0; stroke: #000000; stroke-width: 2"/>
    <path d="M 565.383284 304.752379 
L 565.383284 113.741953 
" clip-path="url(#p760fa0ee94)" style="fill: none; stroke-dasharray: 7.4,3.2; stroke-dashoffset: 0; stroke: #000000; stroke-width: 2"/>
    <path d="M 623.390457 304.752379 
L 623.390457 113.741953 
" clip-path="url(#p760fa0ee94)" style="fill: none; stroke-dasharray: 7.4,3.2; stroke-dashoffset: 0; stroke: #000000; stroke-width: 2"/>
   </g>
   <g id="patch_8">
    <path d="M 394.363636 333.490909 
L 394.363636 86.4 
" style="fill: none; stroke: #000000; stroke-width: 0.8; stroke-linejoin: miter; stroke-linecap: square"/>
   </g>
   <g id="patch_9">
    <path d="M 648 333.490909 
L 648 86.4 
" style="fill: none; stroke: #000000; stroke-width: 0.8; stroke-linejoin: miter; stroke-linecap: square"/>
   </g>
   <g id="patch_10">
    <path d="M 394.363636 333.490909 
L 648 333.490909 
" style="fill: none; stroke: #000000; stroke-width: 0.8; stroke-linejoin: miter; stroke-linecap: square"/>
   </g>
   <g id="patch_11">
    <path d="M 394.363636 86.4 
L 648 86.4 
" style="fill: none; stroke: #000000; stroke-width: 0.8; stroke-linejoin: miter; stroke-linecap: square"/>
   </g>
   <g id="text_26">
    <!-- unit_119 -->
    <g transform="translate(495.105256 80.4)scale(0.12 -0.12)">
     <defs>
      <path id="DejaVuSans-75" d="M 544 1381 
L 544 3500 
L 1119 3500 
L 1119 1403 
Q 1119 906 1312 657 
Q 1506 409 1894 409 
Q 2359 409 2629 706 
Q 2900 1003 2900 1516 
L 2900 3500 
L 3475 3500 
L 3475 0 
L 2900 0 
L 2900 538 
Q 2691 219 2414 64 
Q 2138 -91 1772 -91 
Q 1169 -91 856 284 
Q 544 659 544 1381 
z
M 1991 3584 
L 1991 3584 
z
" transform="scale(0.015625)"/>
      <path id="DejaVuSans-6e" d="M 3513 2113 
L 3513 0 
L 2938 0 
L 2938 2094 
Q 2938 2591 2744 2837 
Q 2550 3084 2163 3084 
Q 1697 3084 1428 2787 
Q 1159 2491 1159 1978 
L 1159 0 
L 581 0 
L 581 3500 
L 1159 3500 
L 1159 2956 
Q 1366 3272 1645 3428 
Q 1925 3584 2291 3584 
Q 2894 3584 3203 3211 
Q 3513 2838 3513 2113 
z
" transform="scale(0.015625)"/>
      <path id="DejaVuSans-69" d="M 603 3500 
L 1178 3500 
L 1178 0 
L 603 0 
L 603 3500 
z
M 603 4863 
L 1178 4863 
L 1178 4134 
L 603 4134 
L 603 4863 
z
" transform="scale(0.015625)"/>
      <path id="DejaVuSans-74" d="M 1172 4494 
L 1172 3500 
L 2356 3500 
L 2356 3053 
L 1172 3053 
L 1172 1153 
Q 1172 725 1289 603 
Q 1406 481 1766 481 
L 2356 481 
L 2356 0 
L 1766 0 
Q 1100 0 847 248 
Q 594 497 594 1153 
L 594 3053 
L 172 3053 
L 172 3500 
L 594 3500 
L 594 4494 
L 1172 4494 
z
" transform="scale(0.015625)"/>
      <path id="DejaVuSans-5f" d="M 3263 -1063 
L 3263 -1509 
L -63 -1509 
L -63 -1063 
L 3263 -1063 
z
" transform="scale(0.015625)"/>
      <path id="DejaVuSans-39" d="M 703 97 
L 703 672 
Q 941 559 1184 500 
Q 1428 441 1663 441 
Q 2288 441 2617 861 
Q 2947 1281 2994 2138 
Q 2813 1869 2534 1725 
Q 2256 1581 1919 1581 
Q 1219 1581 811 2004 
Q 403 2428 403 3163 
Q 403 3881 828 4315 
Q 1253 4750 1959 4750 
Q 2769 4750 3195 4129 
Q 3622 3509 3622 2328 
Q 3622 1225 3098 567 
Q 2575 -91 1691 -91 
Q 1453 -91 1209 -44 
Q 966 3 703 97 
z
M 1959 2075 
Q 2384 2075 2632 2365 
Q 2881 2656 2881 3163 
Q 2881 3666 2632 3958 
Q 2384 4250 1959 4250 
Q 1534 4250 1286 3958 
Q 1038 3666 1038 3163 
Q 1038 2656 1286 2365 
Q 1534 2075 1959 2075 
z
" transform="scale(0.015625)"/>
     </defs>
     <use xlink:href="#DejaVuSans-75"/>
     <use xlink:href="#DejaVuSans-6e" x="63.378906"/>
     <use xlink:href="#DejaVuSans-69" x="126.757812"/>
     <use xlink:href="#DejaVuSans-74" x="154.541016"/>
     <use xlink:href="#DejaVuSans-5f" x="193.75"/>
     <use xlink:href="#DejaVuSans-31" x="243.75"/>
     <use xlink:href="#DejaVuSans-31" x="307.373047"/>
     <use xlink:href="#DejaVuSans-39" x="370.996094"/>
    </g>
   </g>
  </g>
  <g id="axes_3">
   <g id="patch_12">
    <path d="M 90 630 
L 343.636364 630 
L 343.636364 382.909091 
L 90 382.909091 
z
" style="fill: #ffffff"/>
   </g>
   <g id="matplotlib.axis_5">
    <g id="xtick_12">
     <g id="line2d_30">
      <g>
       <use xlink:href="#m9546dd91a4" x="90" y="630" style="stroke: #000000; stroke-width: 0.8"/>
      </g>
     </g>
     <g id="text_27">
      <!-- 0.0 -->
      <g transform="translate(82.048438 644.598437)scale(0.1 -0.1)">
       <use xlink:href="#DejaVuSans-30"/>
       <use xlink:href="#DejaVuSans-2e" x="63.623047"/>
       <use xlink:href="#DejaVuSans-30" x="95.410156"/>
      </g>
     </g>
    </g>
    <g id="xtick_13">
     <g id="line2d_31">
      <g>
       <use xlink:href="#m9546dd91a4" x="140.727273" y="630" style="stroke: #000000; stroke-width: 0.8"/>
      </g>
     </g>
     <g id="text_28">
      <!-- 0.2 -->
      <g transform="translate(132.77571 644.598437)scale(0.1 -0.1)">
       <use xlink:href="#DejaVuSans-30"/>
       <use xlink:href="#DejaVuSans-2e" x="63.623047"/>
       <use xlink:href="#DejaVuSans-32" x="95.410156"/>
      </g>
     </g>
    </g>
    <g id="xtick_14">
     <g id="line2d_32">
      <g>
       <use xlink:href="#m9546dd91a4" x="191.454545" y="630" style="stroke: #000000; stroke-width: 0.8"/>
      </g>
     </g>
     <g id="text_29">
      <!-- 0.4 -->
      <g transform="translate(183.502983 644.598437)scale(0.1 -0.1)">
       <use xlink:href="#DejaVuSans-30"/>
       <use xlink:href="#DejaVuSans-2e" x="63.623047"/>
       <use xlink:href="#DejaVuSans-34" x="95.410156"/>
      </g>
     </g>
    </g>
    <g id="xtick_15">
     <g id="line2d_33">
      <g>
       <use xlink:href="#m9546dd91a4" x="242.181818" y="630" style="stroke: #000000; stroke-width: 0.8"/>
      </g>
     </g>
     <g id="text_30">
      <!-- 0.6 -->
      <g transform="translate(234.230256 644.598437)scale(0.1 -0.1)">
       <use xlink:href="#DejaVuSans-30"/>
       <use xlink:href="#DejaVuSans-2e" x="63.623047"/>
       <use xlink:href="#DejaVuSans-36" x="95.410156"/>
      </g>
     </g>
    </g>
    <g id="xtick_16">
     <g id="line2d_34">
      <g>
       <use xlink:href="#m9546dd91a4" x="292.909091" y="630" style="stroke: #000000; stroke-width: 0.8"/>
      </g>
     </g>
     <g id="text_31">
      <!-- 0.8 -->
      <g transform="translate(284.957528 644.598437)scale(0.1 -0.1)">
       <use xlink:href="#DejaVuSans-30"/>
       <use xlink:href="#DejaVuSans-2e" x="63.623047"/>
       <use xlink:href="#DejaVuSans-38" x="95.410156"/>
      </g>
     </g>
    </g>
    <g id="xtick_17">
     <g id="line2d_35">
      <g>
       <use xlink:href="#m9546dd91a4" x="343.636364" y="630" style="stroke: #000000; stroke-width: 0.8"/>
      </g>
     </g>
     <g id="text_32">
      <!-- 1.0 -->
      <g transform="translate(335.684801 644.598437)scale(0.1 -0.1)">
       <use xlink:href="#DejaVuSans-31"/>
       <use xlink:href="#DejaVuSans-2e" x="63.623047"/>
       <use xlink:href="#DejaVuSans-30" x="95.410156"/>
      </g>
     </g>
    </g>
   </g>
   <g id="matplotlib.axis_6">
    <g id="ytick_15">
     <g id="line2d_36">
      <g>
       <use xlink:href="#m20e8c35d48" x="90" y="630" style="stroke: #000000; stroke-width: 0.8"/>
      </g>
     </g>
     <g id="text_33">
      <!-- 0.0 -->
      <g transform="translate(67.096875 633.799219)scale(0.1 -0.1)">
       <use xlink:href="#DejaVuSans-30"/>
       <use xlink:href="#DejaVuSans-2e" x="63.623047"/>
       <use xlink:href="#DejaVuSans-30" x="95.410156"/>
      </g>
     </g>
    </g>
    <g id="ytick_16">
     <g id="line2d_37">
      <g>
       <use xlink:href="#m20e8c35d48" x="90" y="580.581818" style="stroke: #000000; stroke-width: 0.8"/>
      </g>
     </g>
     <g id="text_34">
      <!-- 0.2 -->
      <g transform="translate(67.096875 584.381037)scale(0.1 -0.1)">
       <use xlink:href="#DejaVuSans-30"/>
       <use xlink:href="#DejaVuSans-2e" x="63.623047"/>
       <use xlink:href="#DejaVuSans-32" x="95.410156"/>
      </g>
     </g>
    </g>
    <g id="ytick_17">
     <g id="line2d_38">
      <g>
       <use xlink:href="#m20e8c35d48" x="90" y="531.163636" style="stroke: #000000; stroke-width: 0.8"/>
      </g>
     </g>
     <g id="text_35">
      <!-- 0.4 -->
      <g transform="translate(67.096875 534.962855)scale(0.1 -0.1)">
       <use xlink:href="#DejaVuSans-30"/>
       <use xlink:href="#DejaVuSans-2e" x="63.623047"/>
       <use xlink:href="#DejaVuSans-34" x="95.410156"/>
      </g>
     </g>
    </g>
    <g id="ytick_18">
     <g id="line2d_39">
      <g>
       <use xlink:href="#m20e8c35d48" x="90" y="481.745455" style="stroke: #000000; stroke-width: 0.8"/>
      </g>
     </g>
     <g id="text_36">
      <!-- 0.6 -->
      <g transform="translate(67.096875 485.544673)scale(0.1 -0.1)">
       <use xlink:href="#DejaVuSans-30"/>
       <use xlink:href="#DejaVuSans-2e" x="63.623047"/>
       <use xlink:href="#DejaVuSans-36" x="95.410156"/>
      </g>
     </g>
    </g>
    <g id="ytick_19">
     <g id="line2d_40">
      <g>
       <use xlink:href="#m20e8c35d48" x="90" y="432.327273" style="stroke: #000000; stroke-width: 0.8"/>
      </g>
     </g>
     <g id="text_37">
      <!-- 0.8 -->
      <g transform="translate(67.096875 436.126491)scale(0.1 -0.1)">
       <use xlink:href="#DejaVuSans-30"/>
       <use xlink:href="#DejaVuSans-2e" x="63.623047"/>
       <use xlink:href="#DejaVuSans-38" x="95.410156"/>
      </g>
     </g>
    </g>
    <g id="ytick_20">
     <g id="line2d_41">
      <g>
       <use xlink:href="#m20e8c35d48" x="90" y="382.909091" style="stroke: #000000; stroke-width: 0.8"/>
      </g>
     </g>
     <g id="text_38">
      <!-- 1.0 -->
      <g transform="translate(67.096875 386.70831)scale(0.1 -0.1)">
       <use xlink:href="#DejaVuSans-31"/>
       <use xlink:href="#DejaVuSans-2e" x="63.623047"/>
       <use xlink:href="#DejaVuSans-30" x="95.410156"/>
      </g>
     </g>
    </g>
   </g>
   <g id="patch_13">
    <path d="M 90 630 
L 90 382.909091 
" style="fill: none; stroke: #000000; stroke-width: 0.8; stroke-linejoin: miter; stroke-linecap: square"/>
   </g>
   <g id="patch_14">
    <path d="M 343.636364 630 
L 343.636364 382.909091 
" style="fill: none; stroke: #000000; stroke-width: 0.8; stroke-linejoin: miter; stroke-linecap: square"/>
   </g>
   <g id="patch_15">
    <path d="M 90 630 
L 343.636364 630 
" style="fill: none; stroke: #000000; stroke-width: 0.8; stroke-linejoin: miter; stroke-linecap: square"/>
   </g>
   <g id="patch_16">
    <path d="M 90 382.909091 
L 343.636364 382.909091 
" style="fill: none; stroke: #000000; stroke-width: 0.8; stroke-linejoin: miter; stroke-linecap: square"/>
   </g>
  </g>
  <g id="axes_4">
   <g id="patch_17">
    <path d="M 394.363636 630 
L 648 630 
L 648 382.909091 
L 394.363636 382.909091 
z
" style="fill: #ffffff"/>
   </g>
   <g id="matplotlib.axis_7">
    <g id="xtick_18">
     <g id="line2d_42">
      <g>
       <use xlink:href="#m9546dd91a4" x="405.863558" y="630" style="stroke: #000000; stroke-width: 0.8"/>
      </g>
     </g>
     <g id="text_39">
      <!-- 0 -->
      <g transform="translate(402.682308 644.598437)scale(0.1 -0.1)">
       <use xlink:href="#DejaVuSans-30"/>
      </g>
     </g>
    </g>
    <g id="xtick_19">
     <g id="line2d_43">
      <g>
       <use xlink:href="#m9546dd91a4" x="463.870731" y="630" style="stroke: #000000; stroke-width: 0.8"/>
      </g>
     </g>
     <g id="text_40">
      <!-- 2000 -->
      <g transform="translate(451.145731 644.598437)scale(0.1 -0.1)">
       <use xlink:href="#DejaVuSans-32"/>
       <use xlink:href="#DejaVuSans-30" x="63.623047"/>
       <use xlink:href="#DejaVuSans-30" x="127.246094"/>
       <use xlink:href="#DejaVuSans-30" x="190.869141"/>
      </g>
     </g>
    </g>
    <g id="xtick_20">
     <g id="line2d_44">
      <g>
       <use xlink:href="#m9546dd91a4" x="521.877904" y="630" style="stroke: #000000; stroke-width: 0.8"/>
      </g>
     </g>
     <g id="text_41">
      <!-- 4000 -->
      <g transform="translate(509.152904 644.598437)scale(0.1 -0.1)">
       <use xlink:href="#DejaVuSans-34"/>
       <use xlink:href="#DejaVuSans-30" x="63.623047"/>
       <use xlink:href="#DejaVuSans-30" x="127.246094"/>
       <use xlink:href="#DejaVuSans-30" x="190.869141"/>
      </g>
     </g>
    </g>
    <g id="xtick_21">
     <g id="line2d_45">
      <g>
       <use xlink:href="#m9546dd91a4" x="579.885077" y="630" style="stroke: #000000; stroke-width: 0.8"/>
      </g>
     </g>
     <g id="text_42">
      <!-- 6000 -->
      <g transform="translate(567.160077 644.598437)scale(0.1 -0.1)">
       <use xlink:href="#DejaVuSans-36"/>
       <use xlink:href="#DejaVuSans-30" x="63.623047"/>
       <use xlink:href="#DejaVuSans-30" x="127.246094"/>
       <use xlink:href="#DejaVuSans-30" x="190.869141"/>
      </g>
     </g>
    </g>
    <g id="xtick_22">
     <g id="line2d_46">
      <g>
       <use xlink:href="#m9546dd91a4" x="637.89225" y="630" style="stroke: #000000; stroke-width: 0.8"/>
      </g>
     </g>
     <g id="text_43">
      <!-- 8000 -->
      <g transform="translate(625.16725 644.598437)scale(0.1 -0.1)">
       <use xlink:href="#DejaVuSans-38"/>
       <use xlink:href="#DejaVuSans-30" x="63.623047"/>
       <use xlink:href="#DejaVuSans-30" x="127.246094"/>
       <use xlink:href="#DejaVuSans-30" x="190.869141"/>
      </g>
     </g>
    </g>
   </g>
   <g id="matplotlib.axis_8">
    <g id="ytick_21">
     <g id="line2d_47">
      <g>
       <use xlink:href="#m20e8c35d48" x="394.363636" y="616.277553" style="stroke: #000000; stroke-width: 0.8"/>
      </g>
     </g>
     <g id="text_44">
      <!-- 0 -->
      <g transform="translate(381.001136 620.076771)scale(0.1 -0.1)">
       <use xlink:href="#DejaVuSans-30"/>
      </g>
     </g>
    </g>
    <g id="ytick_22">
     <g id="line2d_48">
      <g>
       <use xlink:href="#m20e8c35d48" x="394.363636" y="581.971434" style="stroke: #000000; stroke-width: 0.8"/>
      </g>
     </g>
     <g id="text_45">
      <!-- 5 -->
      <g transform="translate(381.001136 585.770653)scale(0.1 -0.1)">
       <use xlink:href="#DejaVuSans-35"/>
      </g>
     </g>
    </g>
    <g id="ytick_23">
     <g id="line2d_49">
      <g>
       <use xlink:href="#m20e8c35d48" x="394.363636" y="547.665316" style="stroke: #000000; stroke-width: 0.8"/>
      </g>
     </g>
     <g id="text_46">
      <!-- 10 -->
      <g transform="translate(374.638636 551.464535)scale(0.1 -0.1)">
       <use xlink:href="#DejaVuSans-31"/>
       <use xlink:href="#DejaVuSans-30" x="63.623047"/>
      </g>
     </g>
    </g>
    <g id="ytick_24">
     <g id="line2d_50">
      <g>
       <use xlink:href="#m20e8c35d48" x="394.363636" y="513.359197" style="stroke: #000000; stroke-width: 0.8"/>
      </g>
     </g>
     <g id="text_47">
      <!-- 15 -->
      <g transform="translate(374.638636 517.158416)scale(0.1 -0.1)">
       <use xlink:href="#DejaVuSans-31"/>
       <use xlink:href="#DejaVuSans-35" x="63.623047"/>
      </g>
     </g>
    </g>
    <g id="ytick_25">
     <g id="line2d_51">
      <g>
       <use xlink:href="#m20e8c35d48" x="394.363636" y="479.053079" style="stroke: #000000; stroke-width: 0.8"/>
      </g>
     </g>
     <g id="text_48">
      <!-- 20 -->
      <g transform="translate(374.638636 482.852298)scale(0.1 -0.1)">
       <use xlink:href="#DejaVuSans-32"/>
       <use xlink:href="#DejaVuSans-30" x="63.623047"/>
      </g>
     </g>
    </g>
    <g id="ytick_26">
     <g id="line2d_52">
      <g>
       <use xlink:href="#m20e8c35d48" x="394.363636" y="444.746961" style="stroke: #000000; stroke-width: 0.8"/>
      </g>
     </g>
     <g id="text_49">
      <!-- 25 -->
      <g transform="translate(374.638636 448.546179)scale(0.1 -0.1)">
       <use xlink:href="#DejaVuSans-32"/>
       <use xlink:href="#DejaVuSans-35" x="63.623047"/>
      </g>
     </g>
    </g>
    <g id="ytick_27">
     <g id="line2d_53">
      <g>
       <use xlink:href="#m20e8c35d48" x="394.363636" y="410.440842" style="stroke: #000000; stroke-width: 0.8"/>
      </g>
     </g>
     <g id="text_50">
      <!-- 30 -->
      <g transform="translate(374.638636 414.240061)scale(0.1 -0.1)">
       <use xlink:href="#DejaVuSans-33"/>
       <use xlink:href="#DejaVuSans-30" x="63.623047"/>
      </g>
     </g>
    </g>
   </g>
   <g id="line2d_54">
    <path d="M 405.892562 494.041096 
L 407.342741 550.459767 
L 408.792921 587.468534 
L 410.2431 563.8175 
L 411.693279 527.095876 
L 413.143459 551.23272 
L 414.593638 590.319072 
L 416.043817 582.959666 
L 417.493997 561.032878 
L 418.944176 581.68413 
L 420.394355 608.459835 
L 421.844535 615.615079 
L 423.294714 616.04129 
L 426.195073 614.672523 
L 427.645252 615.187101 
L 429.095431 614.550291 
L 430.54561 608.764075 
L 431.99579 600.738377 
L 433.445969 602.511094 
L 434.896148 614.613528 
L 436.346328 623.111535 
L 437.796507 620.892443 
L 439.246686 614.876093 
L 440.696866 605.385306 
L 442.147045 600.662008 
L 445.047404 635.040345 
L 446.497583 628.970555 
L 447.947762 619.149387 
L 449.397942 616.554361 
L 450.848121 617.628 
L 452.2983 632.642459 
L 453.74848 689.619568 
L 454.704624 721 
M 455.701094 721 
L 458.099018 643.686862 
L 459.549197 670.359919 
L 460.999376 711.226945 
L 463.899735 677.903431 
L 465.349914 711.133334 
L 465.90563 721 
M 467.463952 721 
L 468.250273 702.189313 
L 469.266556 721 
M 480.288929 721 
L 481.301887 631.618902 
L 482.752066 615.222316 
L 484.202245 624.16368 
L 485.652425 598.447723 
L 487.102604 577.86876 
L 488.552783 606.247386 
L 490.002963 647.992761 
L 491.453142 644.03818 
L 492.903321 630.21459 
L 494.353501 651.824489 
L 495.80368 698.689763 
L 497.253859 711.679031 
L 498.704039 684.689586 
L 500.154218 667.298989 
L 501.604397 627.438491 
L 503.054577 577.887961 
L 504.504756 592.129451 
L 505.954935 637.363407 
L 507.405115 660.974718 
L 510.305473 631.007105 
L 511.755653 629.261991 
L 513.205832 612.763984 
L 514.656011 583.75267 
L 516.106191 572.757788 
L 519.006549 616.083357 
L 520.456729 618.82738 
L 523.357087 614.27739 
L 524.807266 612.890828 
L 526.257446 614.222393 
L 527.707625 615.818985 
L 529.157804 616.239911 
L 532.058163 616.315045 
L 533.508342 616.734305 
L 536.408701 619.835892 
L 537.85888 620.558448 
L 540.759239 632.821246 
L 542.209418 626.290201 
L 543.659598 618.518539 
L 545.109777 616.702516 
L 546.559956 619.351559 
L 548.010136 631.555002 
L 549.460315 648.302747 
L 550.910494 646.974019 
L 552.360674 629.963798 
L 553.810853 618.926515 
L 555.261032 616.487035 
L 556.711212 616.424868 
L 558.161391 617.999346 
L 559.61157 623.994096 
L 561.06175 628.999912 
L 562.511929 623.984621 
L 563.962108 617.739209 
L 565.412288 613.566694 
L 566.862467 604.915624 
L 568.312646 600.308381 
L 569.762826 600.198621 
L 571.213005 589.200013 
L 572.663184 606.034479 
L 574.113363 657.798986 
L 575.563543 655.39572 
L 577.013722 564.940249 
L 578.463901 542.81438 
L 579.914081 620.2349 
L 581.36426 624.4965 
L 582.814439 533.025504 
L 584.264619 523.216039 
L 585.714798 548.464156 
L 587.164977 458.158686 
L 588.615157 382.909091 
L 590.065336 420.217579 
L 591.515515 485.025113 
L 592.965695 482.778764 
L 594.415874 446.334045 
L 595.866053 445.931539 
L 597.316233 482.945768 
L 600.216591 573.588207 
L 601.666771 606.831373 
L 603.11695 625.197691 
L 604.567129 632.873224 
L 606.017309 626.30761 
L 607.467488 618.352169 
L 608.917667 614.475394 
L 611.818026 599.522238 
L 613.268205 600.010424 
L 614.718385 603.395846 
L 616.168564 607.873875 
L 617.618743 605.535207 
L 619.068923 599.181992 
L 620.519102 598.902665 
L 621.969281 599.395424 
L 623.41946 605.059432 
L 624.86964 612.918917 
L 626.319819 614.084002 
L 627.769998 610.746369 
L 629.220178 607.894793 
L 630.670357 603.913348 
L 632.120536 602.71318 
L 633.570716 606.85502 
L 635.020895 612.936539 
L 636.471074 615.973219 
L 636.471074 615.973219 
" clip-path="url(#p6e78d0dd77)" style="fill: none; stroke: #1f77b4; stroke-width: 1.5; stroke-linecap: square"/>
   </g>
   <g id="patch_18">
    <path d="M 394.363636 630 
L 394.363636 382.909091 
" style="fill: none; stroke: #000000; stroke-width: 0.8; stroke-linejoin: miter; stroke-linecap: square"/>
   </g>
   <g id="patch_19">
    <path d="M 648 630 
L 648 382.909091 
" style="fill: none; stroke: #000000; stroke-width: 0.8; stroke-linejoin: miter; stroke-linecap: square"/>
   </g>
   <g id="patch_20">
    <path d="M 394.363636 630 
L 648 630 
" style="fill: none; stroke: #000000; stroke-width: 0.8; stroke-linejoin: miter; stroke-linecap: square"/>
   </g>
   <g id="patch_21">
    <path d="M 394.363636 382.909091 
L 648 382.909091 
" style="fill: none; stroke: #000000; stroke-width: 0.8; stroke-linejoin: miter; stroke-linecap: square"/>
   </g>
   <g id="text_51">
    <!-- explained variance -->
    <g transform="translate(464.181818 376.909091)scale(0.12 -0.12)">
     <defs>
      <path id="DejaVuSans-65" d="M 3597 1894 
L 3597 1613 
L 953 1613 
Q 991 1019 1311 708 
Q 1631 397 2203 397 
Q 2534 397 2845 478 
Q 3156 559 3463 722 
L 3463 178 
Q 3153 47 2828 -22 
Q 2503 -91 2169 -91 
Q 1331 -91 842 396 
Q 353 884 353 1716 
Q 353 2575 817 3079 
Q 1281 3584 2069 3584 
Q 2775 3584 3186 3129 
Q 3597 2675 3597 1894 
z
M 3022 2063 
Q 3016 2534 2758 2815 
Q 2500 3097 2075 3097 
Q 1594 3097 1305 2825 
Q 1016 2553 972 2059 
L 3022 2063 
z
" transform="scale(0.015625)"/>
      <path id="DejaVuSans-78" d="M 3513 3500 
L 2247 1797 
L 3578 0 
L 2900 0 
L 1881 1375 
L 863 0 
L 184 0 
L 1544 1831 
L 300 3500 
L 978 3500 
L 1906 2253 
L 2834 3500 
L 3513 3500 
z
" transform="scale(0.015625)"/>
      <path id="DejaVuSans-70" d="M 1159 525 
L 1159 -1331 
L 581 -1331 
L 581 3500 
L 1159 3500 
L 1159 2969 
Q 1341 3281 1617 3432 
Q 1894 3584 2278 3584 
Q 2916 3584 3314 3078 
Q 3713 2572 3713 1747 
Q 3713 922 3314 415 
Q 2916 -91 2278 -91 
Q 1894 -91 1617 61 
Q 1341 213 1159 525 
z
M 3116 1747 
Q 3116 2381 2855 2742 
Q 2594 3103 2138 3103 
Q 1681 3103 1420 2742 
Q 1159 2381 1159 1747 
Q 1159 1113 1420 752 
Q 1681 391 2138 391 
Q 2594 391 2855 752 
Q 3116 1113 3116 1747 
z
" transform="scale(0.015625)"/>
      <path id="DejaVuSans-6c" d="M 603 4863 
L 1178 4863 
L 1178 0 
L 603 0 
L 603 4863 
z
" transform="scale(0.015625)"/>
      <path id="DejaVuSans-61" d="M 2194 1759 
Q 1497 1759 1228 1600 
Q 959 1441 959 1056 
Q 959 750 1161 570 
Q 1363 391 1709 391 
Q 2188 391 2477 730 
Q 2766 1069 2766 1631 
L 2766 1759 
L 2194 1759 
z
M 3341 1997 
L 3341 0 
L 2766 0 
L 2766 531 
Q 2569 213 2275 61 
Q 1981 -91 1556 -91 
Q 1019 -91 701 211 
Q 384 513 384 1019 
Q 384 1609 779 1909 
Q 1175 2209 1959 2209 
L 2766 2209 
L 2766 2266 
Q 2766 2663 2505 2880 
Q 2244 3097 1772 3097 
Q 1472 3097 1187 3025 
Q 903 2953 641 2809 
L 641 3341 
Q 956 3463 1253 3523 
Q 1550 3584 1831 3584 
Q 2591 3584 2966 3190 
Q 3341 2797 3341 1997 
z
" transform="scale(0.015625)"/>
      <path id="DejaVuSans-64" d="M 2906 2969 
L 2906 4863 
L 3481 4863 
L 3481 0 
L 2906 0 
L 2906 525 
Q 2725 213 2448 61 
Q 2172 -91 1784 -91 
Q 1150 -91 751 415 
Q 353 922 353 1747 
Q 353 2572 751 3078 
Q 1150 3584 1784 3584 
Q 2172 3584 2448 3432 
Q 2725 3281 2906 2969 
z
M 947 1747 
Q 947 1113 1208 752 
Q 1469 391 1925 391 
Q 2381 391 2643 752 
Q 2906 1113 2906 1747 
Q 2906 2381 2643 2742 
Q 2381 3103 1925 3103 
Q 1469 3103 1208 2742 
Q 947 2381 947 1747 
z
" transform="scale(0.015625)"/>
      <path id="DejaVuSans-20" transform="scale(0.015625)"/>
      <path id="DejaVuSans-76" d="M 191 3500 
L 800 3500 
L 1894 563 
L 2988 3500 
L 3597 3500 
L 2284 0 
L 1503 0 
L 191 3500 
z
" transform="scale(0.015625)"/>
      <path id="DejaVuSans-72" d="M 2631 2963 
Q 2534 3019 2420 3045 
Q 2306 3072 2169 3072 
Q 1681 3072 1420 2755 
Q 1159 2438 1159 1844 
L 1159 0 
L 581 0 
L 581 3500 
L 1159 3500 
L 1159 2956 
Q 1341 3275 1631 3429 
Q 1922 3584 2338 3584 
Q 2397 3584 2469 3576 
Q 2541 3569 2628 3553 
L 2631 2963 
z
" transform="scale(0.015625)"/>
      <path id="DejaVuSans-63" d="M 3122 3366 
L 3122 2828 
Q 2878 2963 2633 3030 
Q 2388 3097 2138 3097 
Q 1578 3097 1268 2742 
Q 959 2388 959 1747 
Q 959 1106 1268 751 
Q 1578 397 2138 397 
Q 2388 397 2633 464 
Q 2878 531 3122 666 
L 3122 134 
Q 2881 22 2623 -34 
Q 2366 -91 2075 -91 
Q 1284 -91 818 406 
Q 353 903 353 1747 
Q 353 2603 823 3093 
Q 1294 3584 2113 3584 
Q 2378 3584 2631 3529 
Q 2884 3475 3122 3366 
z
" transform="scale(0.015625)"/>
     </defs>
     <use xlink:href="#DejaVuSans-65"/>
     <use xlink:href="#DejaVuSans-78" x="59.773438"/>
     <use xlink:href="#DejaVuSans-70" x="118.953125"/>
     <use xlink:href="#DejaVuSans-6c" x="182.429688"/>
     <use xlink:href="#DejaVuSans-61" x="210.212891"/>
     <use xlink:href="#DejaVuSans-69" x="271.492188"/>
     <use xlink:href="#DejaVuSans-6e" x="299.275391"/>
     <use xlink:href="#DejaVuSans-65" x="362.654297"/>
     <use xlink:href="#DejaVuSans-64" x="424.177734"/>
     <use xlink:href="#DejaVuSans-20" x="487.654297"/>
     <use xlink:href="#DejaVuSans-76" x="519.441406"/>
     <use xlink:href="#DejaVuSans-61" x="578.621094"/>
     <use xlink:href="#DejaVuSans-72" x="639.900391"/>
     <use xlink:href="#DejaVuSans-69" x="681.013672"/>
     <use xlink:href="#DejaVuSans-61" x="708.796875"/>
     <use xlink:href="#DejaVuSans-6e" x="770.076172"/>
     <use xlink:href="#DejaVuSans-63" x="833.455078"/>
     <use xlink:href="#DejaVuSans-65" x="888.435547"/>
    </g>
   </g>
  </g>
 </g>
 <defs>
  <clipPath id="p760fa0ee94">
   <rect x="394.363636" y="86.4" width="253.636364" height="247.090909"/>
  </clipPath>
  <clipPath id="p6e78d0dd77">
   <rect x="394.363636" y="382.909091" width="253.636364" height="247.090909"/>
  </clipPath>
 </defs>
</svg>
