<?xml version="1.0" encoding="utf-8" standalone="no"?>
<!DOCTYPE svg PUBLIC "-//W3C//DTD SVG 1.1//EN"
  "http://www.w3.org/Graphics/SVG/1.1/DTD/svg11.dtd">
<svg xmlns:xlink="http://www.w3.org/1999/xlink" width="720pt" height="720pt" viewBox="0 0 720 720" xmlns="http://www.w3.org/2000/svg" version="1.1">
 <metadata>
  <rdf:RDF xmlns:dc="http://purl.org/dc/elements/1.1/" xmlns:cc="http://creativecommons.org/ns#" xmlns:rdf="http://www.w3.org/1999/02/22-rdf-syntax-ns#">
   <cc:Work>
    <dc:type rdf:resource="http://purl.org/dc/dcmitype/StillImage"/>
    <dc:date>2023-12-19T18:23:57.012781</dc:date>
    <dc:format>image/svg+xml</dc:format>
    <dc:creator>
     <cc:Agent>
      <dc:title>Matplotlib v3.5.2, https://matplotlib.org/</dc:title>
     </cc:Agent>
    </dc:creator>
   </cc:Work>
  </rdf:RDF>
 </metadata>
 <defs>
  <style type="text/css">*{stroke-linejoin: round; stroke-linecap: butt}</style>
 </defs>
 <g id="figure_1">
  <g id="patch_1">
   <path d="M 0 720 
L 720 720 
L 720 0 
L 0 0 
z
" style="fill: #ffffff"/>
  </g>
  <g id="axes_1">
   <g id="patch_2">
    <path d="M 90 333.490909 
L 343.636364 333.490909 
L 343.636364 86.4 
L 90 86.4 
z
" style="fill: #ffffff"/>
   </g>
   <g id="matplotlib.axis_1">
    <g id="xtick_1">
     <g id="line2d_1">
      <defs>
       <path id="mbcce6c57cd" d="M 0 0 
L 0 3.5 
" style="stroke: #000000; stroke-width: 0.8"/>
      </defs>
      <g>
       <use xlink:href="#mbcce6c57cd" x="90" y="333.490909" style="stroke: #000000; stroke-width: 0.8"/>
      </g>
     </g>
     <g id="text_1">
      <!-- 0.0 -->
      <g transform="translate(82.048438 348.089347)scale(0.1 -0.1)">
       <defs>
        <path id="DejaVuSans-30" d="M 2034 4250 
Q 1547 4250 1301 3770 
Q 1056 3291 1056 2328 
Q 1056 1369 1301 889 
Q 1547 409 2034 409 
Q 2525 409 2770 889 
Q 3016 1369 3016 2328 
Q 3016 3291 2770 3770 
Q 2525 4250 2034 4250 
z
M 2034 4750 
Q 2819 4750 3233 4129 
Q 3647 3509 3647 2328 
Q 3647 1150 3233 529 
Q 2819 -91 2034 -91 
Q 1250 -91 836 529 
Q 422 1150 422 2328 
Q 422 3509 836 4129 
Q 1250 4750 2034 4750 
z
" transform="scale(0.015625)"/>
        <path id="DejaVuSans-2e" d="M 684 794 
L 1344 794 
L 1344 0 
L 684 0 
L 684 794 
z
" transform="scale(0.015625)"/>
       </defs>
       <use xlink:href="#DejaVuSans-30"/>
       <use xlink:href="#DejaVuSans-2e" x="63.623047"/>
       <use xlink:href="#DejaVuSans-30" x="95.410156"/>
      </g>
     </g>
    </g>
    <g id="xtick_2">
     <g id="line2d_2">
      <g>
       <use xlink:href="#mbcce6c57cd" x="140.727273" y="333.490909" style="stroke: #000000; stroke-width: 0.8"/>
      </g>
     </g>
     <g id="text_2">
      <!-- 0.2 -->
      <g transform="translate(132.77571 348.089347)scale(0.1 -0.1)">
       <defs>
        <path id="DejaVuSans-32" d="M 1228 531 
L 3431 531 
L 3431 0 
L 469 0 
L 469 531 
Q 828 903 1448 1529 
Q 2069 2156 2228 2338 
Q 2531 2678 2651 2914 
Q 2772 3150 2772 3378 
Q 2772 3750 2511 3984 
Q 2250 4219 1831 4219 
Q 1534 4219 1204 4116 
Q 875 4013 500 3803 
L 500 4441 
Q 881 4594 1212 4672 
Q 1544 4750 1819 4750 
Q 2544 4750 2975 4387 
Q 3406 4025 3406 3419 
Q 3406 3131 3298 2873 
Q 3191 2616 2906 2266 
Q 2828 2175 2409 1742 
Q 1991 1309 1228 531 
z
" transform="scale(0.015625)"/>
       </defs>
       <use xlink:href="#DejaVuSans-30"/>
       <use xlink:href="#DejaVuSans-2e" x="63.623047"/>
       <use xlink:href="#DejaVuSans-32" x="95.410156"/>
      </g>
     </g>
    </g>
    <g id="xtick_3">
     <g id="line2d_3">
      <g>
       <use xlink:href="#mbcce6c57cd" x="191.454545" y="333.490909" style="stroke: #000000; stroke-width: 0.8"/>
      </g>
     </g>
     <g id="text_3">
      <!-- 0.4 -->
      <g transform="translate(183.502983 348.089347)scale(0.1 -0.1)">
       <defs>
        <path id="DejaVuSans-34" d="M 2419 4116 
L 825 1625 
L 2419 1625 
L 2419 4116 
z
M 2253 4666 
L 3047 4666 
L 3047 1625 
L 3713 1625 
L 3713 1100 
L 3047 1100 
L 3047 0 
L 2419 0 
L 2419 1100 
L 313 1100 
L 313 1709 
L 2253 4666 
z
" transform="scale(0.015625)"/>
       </defs>
       <use xlink:href="#DejaVuSans-30"/>
       <use xlink:href="#DejaVuSans-2e" x="63.623047"/>
       <use xlink:href="#DejaVuSans-34" x="95.410156"/>
      </g>
     </g>
    </g>
    <g id="xtick_4">
     <g id="line2d_4">
      <g>
       <use xlink:href="#mbcce6c57cd" x="242.181818" y="333.490909" style="stroke: #000000; stroke-width: 0.8"/>
      </g>
     </g>
     <g id="text_4">
      <!-- 0.6 -->
      <g transform="translate(234.230256 348.089347)scale(0.1 -0.1)">
       <defs>
        <path id="DejaVuSans-36" d="M 2113 2584 
Q 1688 2584 1439 2293 
Q 1191 2003 1191 1497 
Q 1191 994 1439 701 
Q 1688 409 2113 409 
Q 2538 409 2786 701 
Q 3034 994 3034 1497 
Q 3034 2003 2786 2293 
Q 2538 2584 2113 2584 
z
M 3366 4563 
L 3366 3988 
Q 3128 4100 2886 4159 
Q 2644 4219 2406 4219 
Q 1781 4219 1451 3797 
Q 1122 3375 1075 2522 
Q 1259 2794 1537 2939 
Q 1816 3084 2150 3084 
Q 2853 3084 3261 2657 
Q 3669 2231 3669 1497 
Q 3669 778 3244 343 
Q 2819 -91 2113 -91 
Q 1303 -91 875 529 
Q 447 1150 447 2328 
Q 447 3434 972 4092 
Q 1497 4750 2381 4750 
Q 2619 4750 2861 4703 
Q 3103 4656 3366 4563 
z
" transform="scale(0.015625)"/>
       </defs>
       <use xlink:href="#DejaVuSans-30"/>
       <use xlink:href="#DejaVuSans-2e" x="63.623047"/>
       <use xlink:href="#DejaVuSans-36" x="95.410156"/>
      </g>
     </g>
    </g>
    <g id="xtick_5">
     <g id="line2d_5">
      <g>
       <use xlink:href="#mbcce6c57cd" x="292.909091" y="333.490909" style="stroke: #000000; stroke-width: 0.8"/>
      </g>
     </g>
     <g id="text_5">
      <!-- 0.8 -->
      <g transform="translate(284.957528 348.089347)scale(0.1 -0.1)">
       <defs>
        <path id="DejaVuSans-38" d="M 2034 2216 
Q 1584 2216 1326 1975 
Q 1069 1734 1069 1313 
Q 1069 891 1326 650 
Q 1584 409 2034 409 
Q 2484 409 2743 651 
Q 3003 894 3003 1313 
Q 3003 1734 2745 1975 
Q 2488 2216 2034 2216 
z
M 1403 2484 
Q 997 2584 770 2862 
Q 544 3141 544 3541 
Q 544 4100 942 4425 
Q 1341 4750 2034 4750 
Q 2731 4750 3128 4425 
Q 3525 4100 3525 3541 
Q 3525 3141 3298 2862 
Q 3072 2584 2669 2484 
Q 3125 2378 3379 2068 
Q 3634 1759 3634 1313 
Q 3634 634 3220 271 
Q 2806 -91 2034 -91 
Q 1263 -91 848 271 
Q 434 634 434 1313 
Q 434 1759 690 2068 
Q 947 2378 1403 2484 
z
M 1172 3481 
Q 1172 3119 1398 2916 
Q 1625 2713 2034 2713 
Q 2441 2713 2670 2916 
Q 2900 3119 2900 3481 
Q 2900 3844 2670 4047 
Q 2441 4250 2034 4250 
Q 1625 4250 1398 4047 
Q 1172 3844 1172 3481 
z
" transform="scale(0.015625)"/>
       </defs>
       <use xlink:href="#DejaVuSans-30"/>
       <use xlink:href="#DejaVuSans-2e" x="63.623047"/>
       <use xlink:href="#DejaVuSans-38" x="95.410156"/>
      </g>
     </g>
    </g>
    <g id="xtick_6">
     <g id="line2d_6">
      <g>
       <use xlink:href="#mbcce6c57cd" x="343.636364" y="333.490909" style="stroke: #000000; stroke-width: 0.8"/>
      </g>
     </g>
     <g id="text_6">
      <!-- 1.0 -->
      <g transform="translate(335.684801 348.089347)scale(0.1 -0.1)">
       <defs>
        <path id="DejaVuSans-31" d="M 794 531 
L 1825 531 
L 1825 4091 
L 703 3866 
L 703 4441 
L 1819 4666 
L 2450 4666 
L 2450 531 
L 3481 531 
L 3481 0 
L 794 0 
L 794 531 
z
" transform="scale(0.015625)"/>
       </defs>
       <use xlink:href="#DejaVuSans-31"/>
       <use xlink:href="#DejaVuSans-2e" x="63.623047"/>
       <use xlink:href="#DejaVuSans-30" x="95.410156"/>
      </g>
     </g>
    </g>
   </g>
   <g id="matplotlib.axis_2">
    <g id="ytick_1">
     <g id="line2d_7">
      <defs>
       <path id="mbafb6ef64e" d="M 0 0 
L -3.5 0 
" style="stroke: #000000; stroke-width: 0.8"/>
      </defs>
      <g>
       <use xlink:href="#mbafb6ef64e" x="90" y="333.490909" style="stroke: #000000; stroke-width: 0.8"/>
      </g>
     </g>
     <g id="text_7">
      <!-- 0.0 -->
      <g transform="translate(67.096875 337.290128)scale(0.1 -0.1)">
       <use xlink:href="#DejaVuSans-30"/>
       <use xlink:href="#DejaVuSans-2e" x="63.623047"/>
       <use xlink:href="#DejaVuSans-30" x="95.410156"/>
      </g>
     </g>
    </g>
    <g id="ytick_2">
     <g id="line2d_8">
      <g>
       <use xlink:href="#mbafb6ef64e" x="90" y="284.072727" style="stroke: #000000; stroke-width: 0.8"/>
      </g>
     </g>
     <g id="text_8">
      <!-- 0.2 -->
      <g transform="translate(67.096875 287.871946)scale(0.1 -0.1)">
       <use xlink:href="#DejaVuSans-30"/>
       <use xlink:href="#DejaVuSans-2e" x="63.623047"/>
       <use xlink:href="#DejaVuSans-32" x="95.410156"/>
      </g>
     </g>
    </g>
    <g id="ytick_3">
     <g id="line2d_9">
      <g>
       <use xlink:href="#mbafb6ef64e" x="90" y="234.654545" style="stroke: #000000; stroke-width: 0.8"/>
      </g>
     </g>
     <g id="text_9">
      <!-- 0.4 -->
      <g transform="translate(67.096875 238.453764)scale(0.1 -0.1)">
       <use xlink:href="#DejaVuSans-30"/>
       <use xlink:href="#DejaVuSans-2e" x="63.623047"/>
       <use xlink:href="#DejaVuSans-34" x="95.410156"/>
      </g>
     </g>
    </g>
    <g id="ytick_4">
     <g id="line2d_10">
      <g>
       <use xlink:href="#mbafb6ef64e" x="90" y="185.236364" style="stroke: #000000; stroke-width: 0.8"/>
      </g>
     </g>
     <g id="text_10">
      <!-- 0.6 -->
      <g transform="translate(67.096875 189.035582)scale(0.1 -0.1)">
       <use xlink:href="#DejaVuSans-30"/>
       <use xlink:href="#DejaVuSans-2e" x="63.623047"/>
       <use xlink:href="#DejaVuSans-36" x="95.410156"/>
      </g>
     </g>
    </g>
    <g id="ytick_5">
     <g id="line2d_11">
      <g>
       <use xlink:href="#mbafb6ef64e" x="90" y="135.818182" style="stroke: #000000; stroke-width: 0.8"/>
      </g>
     </g>
     <g id="text_11">
      <!-- 0.8 -->
      <g transform="translate(67.096875 139.617401)scale(0.1 -0.1)">
       <use xlink:href="#DejaVuSans-30"/>
       <use xlink:href="#DejaVuSans-2e" x="63.623047"/>
       <use xlink:href="#DejaVuSans-38" x="95.410156"/>
      </g>
     </g>
    </g>
    <g id="ytick_6">
     <g id="line2d_12">
      <g>
       <use xlink:href="#mbafb6ef64e" x="90" y="86.4" style="stroke: #000000; stroke-width: 0.8"/>
      </g>
     </g>
     <g id="text_12">
      <!-- 1.0 -->
      <g transform="translate(67.096875 90.199219)scale(0.1 -0.1)">
       <use xlink:href="#DejaVuSans-31"/>
       <use xlink:href="#DejaVuSans-2e" x="63.623047"/>
       <use xlink:href="#DejaVuSans-30" x="95.410156"/>
      </g>
     </g>
    </g>
   </g>
   <g id="patch_3">
    <path d="M 90 333.490909 
L 90 86.4 
" style="fill: none; stroke: #000000; stroke-width: 0.8; stroke-linejoin: miter; stroke-linecap: square"/>
   </g>
   <g id="patch_4">
    <path d="M 343.636364 333.490909 
L 343.636364 86.4 
" style="fill: none; stroke: #000000; stroke-width: 0.8; stroke-linejoin: miter; stroke-linecap: square"/>
   </g>
   <g id="patch_5">
    <path d="M 90 333.490909 
L 343.636364 333.490909 
" style="fill: none; stroke: #000000; stroke-width: 0.8; stroke-linejoin: miter; stroke-linecap: square"/>
   </g>
   <g id="patch_6">
    <path d="M 90 86.4 
L 343.636364 86.4 
" style="fill: none; stroke: #000000; stroke-width: 0.8; stroke-linejoin: miter; stroke-linecap: square"/>
   </g>
  </g>
  <g id="axes_2">
   <g id="patch_7">
    <path d="M 394.363636 333.490909 
L 648 333.490909 
L 648 86.4 
L 394.363636 86.4 
z
" style="fill: #ffffff"/>
   </g>
   <g id="PolyCollection_1">
    <defs>
     <path id="ma25bbec277" d="M 405.892562 -475.013569 
L 405.892562 -475.013569 
L 407.342741 -466.332904 
L 408.792921 -454.851916 
L 410.2431 -431.046485 
L 411.693279 -439.951355 
L 413.143459 -464.838005 
L 414.593638 -477.333363 
L 416.043817 -485.350379 
L 417.493997 -487.603166 
L 418.944176 -478.812313 
L 420.394355 -479.946762 
L 421.844535 -474.762717 
L 423.294714 -455.137645 
L 424.744893 -475.534061 
L 426.195073 -480.847757 
L 427.645252 -484.800645 
L 429.095431 -484.450616 
L 430.54561 -479.843711 
L 431.99579 -474.122293 
L 433.445969 -439.185679 
L 434.896148 -474.352015 
L 436.346328 -480.781279 
L 437.796507 -487.338547 
L 439.246686 -491.729041 
L 440.696866 -493.781642 
L 442.147045 -494.254943 
L 443.597224 -493.594846 
L 445.047404 -491.61674 
L 446.497583 -487.949261 
L 447.947762 -482.575507 
L 449.397942 -453.019259 
L 450.848121 -454.525613 
L 452.2983 -459.48546 
L 453.74848 -433.012317 
L 455.198659 -447.034052 
L 456.648838 -420.108997 
L 458.099018 -462.016447 
L 459.549197 -477.543724 
L 460.999376 -490.457839 
L 462.449556 -479.248745 
L 463.899735 -498.472603 
L 465.349914 -470.668297 
L 466.800094 -477.373687 
L 468.250273 -502.282755 
L 469.700452 -503.466319 
L 471.150632 -504.32002 
L 472.600811 -505.204378 
L 474.05099 -489.195479 
L 475.501169 -504.225045 
L 476.951349 -502.528876 
L 478.401528 -501.843807 
L 479.851707 -502.406587 
L 481.301887 -502.245633 
L 482.752066 -483.526255 
L 484.202245 -492.731414 
L 485.652425 -462.100114 
L 487.102604 -485.218591 
L 488.552783 -487.546961 
L 490.002963 -491.50036 
L 491.453142 -494.163324 
L 492.903321 -493.473334 
L 494.353501 -476.226774 
L 495.80368 -482.489536 
L 497.253859 -465.612224 
L 498.704039 -478.762293 
L 500.154218 -483.441362 
L 501.604397 -489.487186 
L 503.054577 -495.387217 
L 504.504756 -501.586148 
L 505.954935 -508.145972 
L 507.405115 -512.282629 
L 508.855294 -484.435894 
L 510.305473 -497.358659 
L 511.755653 -480.587248 
L 513.205832 -443.349015 
L 514.656011 -460.48291 
L 516.106191 -462.511495 
L 517.55637 -454.257045 
L 519.006549 -486.221931 
L 520.456729 -504.812053 
L 521.906908 -521.612386 
L 523.357087 -516.736386 
L 524.807266 -528.512218 
L 526.257446 -521.397585 
L 527.707625 -516.351637 
L 529.157804 -517.150506 
L 530.607984 -521.178836 
L 532.058163 -507.838304 
L 533.508342 -509.236493 
L 534.958522 -508.463664 
L 536.408701 -497.592505 
L 537.85888 -487.931979 
L 539.30906 -481.031728 
L 540.759239 -460.068056 
L 542.209418 -479.687078 
L 543.659598 -483.392336 
L 545.109777 -486.266 
L 546.559956 -486.685657 
L 548.010136 -485.518368 
L 549.460315 -470.458314 
L 550.910494 -486.219324 
L 552.360674 -488.947401 
L 553.810853 -491.685988 
L 555.261032 -493.416629 
L 556.711212 -493.864683 
L 558.161391 -492.993919 
L 559.61157 -490.781598 
L 561.06175 -487.801609 
L 562.511929 -485.639274 
L 563.962108 -465.570453 
L 565.412288 -487.551949 
L 566.862467 -462.105767 
L 568.312646 -469.424526 
L 569.762826 -489.196284 
L 571.213005 -490.509535 
L 572.663184 -481.138522 
L 574.113363 -494.221345 
L 575.563543 -494.9668 
L 577.013722 -495.121267 
L 578.463901 -495.110347 
L 579.914081 -495.033052 
L 581.36426 -494.458704 
L 582.814439 -492.300753 
L 584.264619 -483.682495 
L 585.714798 -479.555999 
L 587.164977 -472.058428 
L 588.615157 -441.738814 
L 590.065336 -476.240429 
L 591.515515 -490.514538 
L 592.965695 -507.636034 
L 594.415874 -520.692197 
L 595.866053 -490.344464 
L 597.316233 -505.266826 
L 598.766412 -507.052187 
L 600.216591 -497.451026 
L 601.666771 -492.126192 
L 603.11695 -476.082009 
L 604.567129 -494.639485 
L 606.017309 -502.135152 
L 607.467488 -512.583793 
L 608.917667 -522.35265 
L 610.367847 -498.071717 
L 611.818026 -523.295301 
L 613.268205 -515.581088 
L 614.718385 -509.797365 
L 616.168564 -511.259455 
L 617.618743 -521.513132 
L 619.068923 -537.005604 
L 620.519102 -527.136311 
L 621.969281 -532.63735 
L 623.41946 -542.643218 
L 624.86964 -529.055401 
L 626.319819 -520.146091 
L 627.769998 -520.00618 
L 629.220178 -512.25043 
L 630.670357 -510.777776 
L 632.120536 -510.773843 
L 633.570716 -523.943168 
L 635.020895 -514.351511 
L 636.471074 -507.814306 
L 636.471074 -507.814306 
L 636.471074 -507.814306 
L 635.020895 -514.351511 
L 633.570716 -523.943168 
L 632.120536 -551.285007 
L 630.670357 -552.149411 
L 629.220178 -539.653625 
L 627.769998 -520.00618 
L 626.319819 -520.146091 
L 624.86964 -529.055401 
L 623.41946 -542.643218 
L 621.969281 -571.148132 
L 620.519102 -572.284245 
L 619.068923 -537.005604 
L 617.618743 -521.513132 
L 616.168564 -511.259455 
L 614.718385 -509.797365 
L 613.268205 -515.581088 
L 611.818026 -523.295301 
L 610.367847 -555.159235 
L 608.917667 -522.35265 
L 607.467488 -512.583793 
L 606.017309 -502.135152 
L 604.567129 -494.639485 
L 603.11695 -506.474132 
L 601.666771 -492.126192 
L 600.216591 -497.451026 
L 598.766412 -507.052187 
L 597.316233 -530.709302 
L 595.866053 -558.131006 
L 594.415874 -520.692197 
L 592.965695 -507.636034 
L 591.515515 -490.514538 
L 590.065336 -476.240429 
L 588.615157 -497.859035 
L 587.164977 -472.058428 
L 585.714798 -479.555999 
L 584.264619 -490.922552 
L 582.814439 -492.300753 
L 581.36426 -494.458704 
L 579.914081 -495.033052 
L 578.463901 -495.110347 
L 577.013722 -495.121267 
L 575.563543 -494.9668 
L 574.113363 -494.221345 
L 572.663184 -504.018948 
L 571.213005 -490.509535 
L 569.762826 -489.196284 
L 568.312646 -508.767253 
L 566.862467 -515.836206 
L 565.412288 -487.551949 
L 563.962108 -505.907772 
L 562.511929 -485.639274 
L 561.06175 -487.801609 
L 559.61157 -490.781598 
L 558.161391 -492.993919 
L 556.711212 -493.864683 
L 555.261032 -493.416629 
L 553.810853 -491.685988 
L 552.360674 -488.947401 
L 550.910494 -486.219324 
L 549.460315 -499.379945 
L 548.010136 -485.518368 
L 546.559956 -486.685657 
L 545.109777 -486.266 
L 543.659598 -483.392336 
L 542.209418 -479.687078 
L 540.759239 -496.372849 
L 539.30906 -481.031728 
L 537.85888 -487.931979 
L 536.408701 -497.592505 
L 534.958522 -508.463664 
L 533.508342 -526.675545 
L 532.058163 -537.374903 
L 530.607984 -521.178836 
L 529.157804 -517.150506 
L 527.707625 -516.351637 
L 526.257446 -521.397585 
L 524.807266 -528.512218 
L 523.357087 -543.620439 
L 521.906908 -521.612386 
L 520.456729 -504.812053 
L 519.006549 -486.221931 
L 517.55637 -488.501924 
L 516.106191 -462.511495 
L 514.656011 -460.48291 
L 513.205832 -489.896736 
L 511.755653 -480.587248 
L 510.305473 -497.358659 
L 508.855294 -534.215008 
L 507.405115 -512.282629 
L 505.954935 -508.145972 
L 504.504756 -501.586148 
L 503.054577 -495.387217 
L 501.604397 -489.487186 
L 500.154218 -483.441362 
L 498.704039 -478.762293 
L 497.253859 -490.765767 
L 495.80368 -482.489536 
L 494.353501 -501.590478 
L 492.903321 -493.473334 
L 491.453142 -494.163324 
L 490.002963 -491.50036 
L 488.552783 -487.546961 
L 487.102604 -485.218591 
L 485.652425 -511.941948 
L 484.202245 -492.731414 
L 482.752066 -514.368117 
L 481.301887 -502.245633 
L 479.851707 -502.406587 
L 478.401528 -501.843807 
L 476.951349 -502.528876 
L 475.501169 -504.225045 
L 474.05099 -521.577032 
L 472.600811 -505.204378 
L 471.150632 -504.32002 
L 469.700452 -503.466319 
L 468.250273 -502.282755 
L 466.800094 -523.472877 
L 465.349914 -527.130501 
L 463.899735 -498.472603 
L 462.449556 -514.719572 
L 460.999376 -490.457839 
L 459.549197 -477.543724 
L 458.099018 -462.016447 
L 456.648838 -480.69422 
L 455.198659 -447.034052 
L 453.74848 -469.636767 
L 452.2983 -459.48546 
L 450.848121 -481.709678 
L 449.397942 -498.734955 
L 447.947762 -482.575507 
L 446.497583 -487.949261 
L 445.047404 -491.61674 
L 443.597224 -493.594846 
L 442.147045 -494.254943 
L 440.696866 -493.781642 
L 439.246686 -491.729041 
L 437.796507 -487.338547 
L 436.346328 -480.781279 
L 434.896148 -474.352015 
L 433.445969 -503.970456 
L 431.99579 -474.122293 
L 430.54561 -479.843711 
L 429.095431 -484.450616 
L 427.645252 -484.800645 
L 426.195073 -480.847757 
L 424.744893 -475.534061 
L 423.294714 -490.530413 
L 421.844535 -474.762717 
L 420.394355 -479.946762 
L 418.944176 -491.515122 
L 417.493997 -487.603166 
L 416.043817 -485.350379 
L 414.593638 -477.333363 
L 413.143459 -464.838005 
L 411.693279 -466.19781 
L 410.2431 -466.715516 
L 408.792921 -454.851916 
L 407.342741 -466.332904 
L 405.892562 -475.013569 
z
" style="stroke: #9467bd; stroke-opacity: 0.2"/>
    </defs>
    <g clip-path="url(#p0dcd0124b5)">
     <use xlink:href="#ma25bbec277" x="0" y="720" style="fill: #9467bd; fill-opacity: 0.2; stroke: #9467bd; stroke-opacity: 0.2"/>
    </g>
   </g>
   <g id="PolyCollection_2">
    <defs>
     <path id="md8695b07f1" d="M 405.892562 -495.060951 
L 405.892562 -495.060951 
L 407.342741 -495.44505 
L 408.792921 -496.574225 
L 410.2431 -498.921746 
L 411.693279 -502.417017 
L 413.143459 -505.838726 
L 414.593638 -489.062595 
L 416.043817 -505.830519 
L 417.493997 -502.383548 
L 418.944176 -498.818654 
L 420.394355 -496.32692 
L 421.844535 -494.978865 
L 423.294714 -494.361625 
L 424.744893 -491.023465 
L 426.195073 -494.22907 
L 427.645252 -494.43756 
L 429.095431 -494.646673 
L 430.54561 -494.731272 
L 431.99579 -494.491417 
L 433.445969 -493.386331 
L 434.896148 -489.665262 
L 436.346328 -483.789861 
L 437.796507 -470.126002 
L 439.246686 -463.07023 
L 440.696866 -419.883852 
L 442.147045 -443.375057 
L 443.597224 -472.503999 
L 445.047404 -489.130631 
L 446.497583 -502.364467 
L 447.947762 -484.462083 
L 449.397942 -509.005383 
L 450.848121 -505.09401 
L 452.2983 -501.380515 
L 453.74848 -500.732425 
L 455.198659 -498.87257 
L 456.648838 -507.96941 
L 458.099018 -488.349655 
L 459.549197 -510.692801 
L 460.999376 -508.226217 
L 462.449556 -505.096646 
L 463.899735 -491.388464 
L 465.349914 -499.060978 
L 466.800094 -497.380625 
L 468.250273 -481.214642 
L 469.700452 -481.812343 
L 471.150632 -504.47236 
L 472.600811 -507.809821 
L 474.05099 -510.081214 
L 475.501169 -489.140555 
L 476.951349 -508.03989 
L 478.401528 -502.244125 
L 479.851707 -504.143834 
L 481.301887 -504.362699 
L 482.752066 -510.251657 
L 484.202245 -487.401658 
L 485.652425 -510.204439 
L 487.102604 -505.426542 
L 488.552783 -500.526392 
L 490.002963 -497.478552 
L 491.453142 -496.685442 
L 492.903321 -491.861953 
L 494.353501 -498.177965 
L 495.80368 -484.206853 
L 497.253859 -495.497888 
L 498.704039 -481.571037 
L 500.154218 -491.804545 
L 501.604397 -492.047204 
L 503.054577 -493.209232 
L 504.504756 -492.407972 
L 505.954935 -497.358371 
L 507.405115 -500.669477 
L 508.855294 -504.030555 
L 510.305473 -492.76604 
L 511.755653 -499.82916 
L 513.205832 -504.329249 
L 514.656011 -505.207494 
L 516.106191 -511.180493 
L 517.55637 -522.25069 
L 519.006549 -531.555179 
L 520.456729 -479.185377 
L 521.906908 -533.382026 
L 523.357087 -521.304958 
L 524.807266 -509.032261 
L 526.257446 -500.873573 
L 527.707625 -497.191713 
L 529.157804 -496.574046 
L 530.607984 -497.859964 
L 532.058163 -500.272726 
L 533.508342 -502.697891 
L 534.958522 -489.510177 
L 536.408701 -502.637284 
L 537.85888 -499.811877 
L 539.30906 -495.912754 
L 540.759239 -490.852594 
L 542.209418 -484.595826 
L 543.659598 -470.110767 
L 545.109777 -433.370239 
L 546.559956 -466.543227 
L 548.010136 -484.643176 
L 549.460315 -487.745409 
L 550.910494 -486.822142 
L 552.360674 -483.102664 
L 553.810853 -471.359778 
L 555.261032 -464.470282 
L 556.711212 -491.505217 
L 558.161391 -505.846596 
L 559.61157 -519.612795 
L 561.06175 -480.341354 
L 562.511929 -523.752676 
L 563.962108 -514.795195 
L 565.412288 -504.969199 
L 566.862467 -497.597214 
L 568.312646 -492.976869 
L 569.762826 -490.41748 
L 571.213005 -479.135539 
L 572.663184 -490.73332 
L 574.113363 -492.0131 
L 575.563543 -490.398706 
L 577.013722 -482.568513 
L 578.463901 -441.925484 
L 579.914081 -415.618952 
L 581.36426 -411.049624 
L 582.814439 -462.948419 
L 584.264619 -482.388081 
L 585.714798 -502.680891 
L 587.164977 -492.042514 
L 588.615157 -524.926954 
L 590.065336 -502.14362 
L 591.515515 -521.412745 
L 592.965695 -500.340253 
L 594.415874 -507.983599 
L 595.866053 -502.199726 
L 597.316233 -498.298551 
L 598.766412 -496.192747 
L 600.216591 -495.29316 
L 601.666771 -494.993101 
L 603.11695 -494.913977 
L 604.567129 -494.897676 
L 606.017309 -494.890123 
L 607.467488 -494.865626 
L 608.917667 -494.778518 
L 610.367847 -494.493373 
L 611.818026 -493.666358 
L 613.268205 -491.631313 
L 614.718385 -485.149018 
L 616.168564 -481.759088 
L 617.618743 -475.701962 
L 619.068923 -443.485482 
L 620.519102 -471.344303 
L 621.969281 -472.221809 
L 623.41946 -472.898206 
L 624.86964 -452.330618 
L 626.319819 -472.873358 
L 627.769998 -477.320811 
L 629.220178 -486.61633 
L 630.670357 -490.312327 
L 632.120536 -492.118564 
L 633.570716 -492.549407 
L 635.020895 -488.450975 
L 636.471074 -492.221709 
L 636.471074 -492.221709 
L 636.471074 -492.221709 
L 635.020895 -496.351271 
L 633.570716 -492.549407 
L 632.120536 -492.118564 
L 630.670357 -490.312327 
L 629.220178 -486.61633 
L 627.769998 -485.738936 
L 626.319819 -480.596716 
L 624.86964 -495.440754 
L 623.41946 -472.898206 
L 621.969281 -472.221809 
L 620.519102 -471.344303 
L 619.068923 -500.42726 
L 617.618743 -475.701962 
L 616.168564 -481.759088 
L 614.718385 -490.133078 
L 613.268205 -491.631313 
L 611.818026 -493.666358 
L 610.367847 -494.493373 
L 608.917667 -494.778518 
L 607.467488 -494.865626 
L 606.017309 -494.890123 
L 604.567129 -494.897676 
L 603.11695 -494.913977 
L 601.666771 -494.993101 
L 600.216591 -495.29316 
L 598.766412 -496.192747 
L 597.316233 -498.298551 
L 595.866053 -502.199726 
L 594.415874 -507.983599 
L 592.965695 -529.451371 
L 591.515515 -521.412745 
L 590.065336 -548.885572 
L 588.615157 -524.926954 
L 587.164977 -543.121862 
L 585.714798 -502.680891 
L 584.264619 -482.388081 
L 582.814439 -462.948419 
L 581.36426 -494.232948 
L 579.914081 -496.186773 
L 578.463901 -495.855989 
L 577.013722 -482.568513 
L 575.563543 -490.398706 
L 574.113363 -492.0131 
L 572.663184 -490.73332 
L 571.213005 -500.316846 
L 569.762826 -490.41748 
L 568.312646 -492.976869 
L 566.862467 -497.597214 
L 565.412288 -504.969199 
L 563.962108 -514.795195 
L 562.511929 -523.752676 
L 561.06175 -572.469307 
L 559.61157 -519.612795 
L 558.161391 -505.846596 
L 556.711212 -491.505217 
L 555.261032 -500.20349 
L 553.810853 -489.11154 
L 552.360674 -483.102664 
L 550.910494 -486.822142 
L 549.460315 -487.745409 
L 548.010136 -484.643176 
L 546.559956 -492.71788 
L 545.109777 -520.321895 
L 543.659598 -487.68402 
L 542.209418 -484.595826 
L 540.759239 -490.852594 
L 539.30906 -495.912754 
L 537.85888 -499.811877 
L 536.408701 -502.637284 
L 534.958522 -517.962515 
L 533.508342 -502.697891 
L 532.058163 -500.272726 
L 530.607984 -497.859964 
L 529.157804 -496.574046 
L 527.707625 -497.191713 
L 526.257446 -500.873573 
L 524.807266 -509.032261 
L 523.357087 -521.304958 
L 521.906908 -533.382026 
L 520.456729 -598.070147 
L 519.006549 -535.938234 
L 517.55637 -522.25069 
L 516.106191 -511.180493 
L 514.656011 -505.207494 
L 513.205832 -504.329249 
L 511.755653 -511.368489 
L 510.305473 -519.090493 
L 508.855294 -504.030555 
L 507.405115 -500.669477 
L 505.954935 -497.358371 
L 504.504756 -497.408245 
L 503.054577 -493.209232 
L 501.604397 -492.047204 
L 500.154218 -491.804545 
L 498.704039 -504.562785 
L 497.253859 -495.497888 
L 495.80368 -511.040117 
L 494.353501 -498.177965 
L 492.903321 -502.930208 
L 491.453142 -496.685442 
L 490.002963 -497.478552 
L 488.552783 -500.526392 
L 487.102604 -505.426542 
L 485.652425 -510.204439 
L 484.202245 -536.927506 
L 482.752066 -510.251657 
L 481.301887 -508.534803 
L 479.851707 -504.143834 
L 478.401528 -507.928921 
L 476.951349 -508.03989 
L 475.501169 -531.382848 
L 474.05099 -510.081214 
L 472.600811 -507.809821 
L 471.150632 -504.47236 
L 469.700452 -519.913286 
L 468.250273 -514.900575 
L 466.800094 -497.380625 
L 465.349914 -499.060978 
L 463.899735 -512.546703 
L 462.449556 -505.096646 
L 460.999376 -508.226217 
L 459.549197 -510.692801 
L 458.099018 -533.400743 
L 456.648838 -507.96941 
L 455.198659 -508.308852 
L 453.74848 -500.732425 
L 452.2983 -501.380515 
L 450.848121 -505.09401 
L 449.397942 -509.005383 
L 447.947762 -533.678824 
L 446.497583 -502.364467 
L 445.047404 -489.130631 
L 443.597224 -474.027498 
L 442.147045 -478.502585 
L 440.696866 -494.800866 
L 439.246686 -463.07023 
L 437.796507 -477.361403 
L 436.346328 -483.789861 
L 434.896148 -490.901509 
L 433.445969 -493.386331 
L 431.99579 -494.491417 
L 430.54561 -494.731272 
L 429.095431 -494.646673 
L 427.645252 -494.43756 
L 426.195073 -494.22907 
L 424.744893 -497.299973 
L 423.294714 -494.361625 
L 421.844535 -494.978865 
L 420.394355 -496.32692 
L 418.944176 -498.818654 
L 417.493997 -502.383548 
L 416.043817 -505.830519 
L 414.593638 -525.526097 
L 413.143459 -505.838726 
L 411.693279 -502.417017 
L 410.2431 -498.921746 
L 408.792921 -496.574225 
L 407.342741 -495.44505 
L 405.892562 -495.060951 
z
" style="stroke: #1f77b4; stroke-opacity: 0.2"/>
    </defs>
    <g clip-path="url(#p0dcd0124b5)">
     <use xlink:href="#md8695b07f1" x="0" y="720" style="fill: #1f77b4; fill-opacity: 0.2; stroke: #1f77b4; stroke-opacity: 0.2"/>
    </g>
   </g>
   <g id="PolyCollection_3">
    <defs>
     <path id="m3225e20a87" d="M 405.892562 -494.896076 
L 405.892562 -494.896076 
L 407.342741 -494.896076 
L 408.792921 -494.896076 
L 410.2431 -494.896076 
L 411.693279 -494.896076 
L 413.143459 -494.896076 
L 414.593638 -494.896076 
L 416.043817 -494.896076 
L 417.493997 -494.896076 
L 418.944176 -494.896076 
L 420.394355 -494.896076 
L 421.844535 -494.896076 
L 423.294714 -494.896076 
L 424.744893 -494.896076 
L 426.195073 -494.896076 
L 427.645252 -494.896076 
L 429.095431 -494.896076 
L 430.54561 -494.896076 
L 431.99579 -494.896076 
L 433.445969 -494.896076 
L 434.896148 -494.896076 
L 436.346328 -494.896076 
L 437.796507 -494.896076 
L 439.246686 -494.896076 
L 440.696866 -494.896076 
L 442.147045 -494.896076 
L 443.597224 -494.896076 
L 445.047404 -494.896076 
L 446.497583 -494.896076 
L 447.947762 -494.896076 
L 449.397942 -494.896076 
L 450.848121 -494.896076 
L 452.2983 -494.896076 
L 453.74848 -494.896076 
L 455.198659 -494.896076 
L 456.648838 -494.896076 
L 458.099018 -494.896076 
L 459.549197 -494.896076 
L 460.999376 -494.896076 
L 462.449556 -494.896076 
L 463.899735 -494.896076 
L 465.349914 -494.896076 
L 466.800094 -494.896076 
L 468.250273 -494.896076 
L 469.700452 -494.896076 
L 471.150632 -494.896076 
L 472.600811 -494.896076 
L 474.05099 -494.896076 
L 475.501169 -494.910199 
L 476.951349 -494.98817 
L 478.401528 -495.363771 
L 479.851707 -496.745846 
L 481.301887 -500.593769 
L 482.752066 -508.564131 
L 484.202245 -520.431365 
L 485.652425 -532.049703 
L 487.102604 -510.731037 
L 488.552783 -532.049703 
L 490.002963 -520.431365 
L 491.453142 -508.564131 
L 492.903321 -500.593769 
L 494.353501 -496.745846 
L 495.80368 -495.363771 
L 497.253859 -494.98817 
L 498.704039 -494.910199 
L 500.154218 -494.896076 
L 501.604397 -494.896076 
L 503.054577 -494.896076 
L 504.504756 -494.896076 
L 505.954935 -494.896076 
L 507.405115 -494.896076 
L 508.855294 -494.896076 
L 510.305473 -494.896076 
L 511.755653 -494.896076 
L 513.205832 -494.896076 
L 514.656011 -494.896076 
L 516.106191 -494.896076 
L 517.55637 -494.896076 
L 519.006549 -494.896076 
L 520.456729 -494.896076 
L 521.906908 -494.896076 
L 523.357087 -494.896076 
L 524.807266 -494.896076 
L 526.257446 -494.892696 
L 527.707625 -494.874037 
L 529.157804 -494.784153 
L 530.607984 -494.453415 
L 532.058163 -493.532584 
L 533.508342 -491.62523 
L 534.958522 -488.785331 
L 536.408701 -486.004995 
L 537.85888 -472.911804 
L 539.30906 -486.004995 
L 540.759239 -488.785331 
L 542.209418 -491.62523 
L 543.659598 -493.532584 
L 545.109777 -494.464016 
L 546.559956 -494.853279 
L 548.010136 -495.225088 
L 549.460315 -496.281129 
L 550.910494 -499.172752 
L 552.360674 -505.155289 
L 553.810853 -514.06281 
L 555.261032 -522.78351 
L 556.711212 -508.921221 
L 558.161391 -522.78351 
L 559.61157 -514.06281 
L 561.06175 -505.155289 
L 562.511929 -499.172752 
L 563.962108 -496.284509 
L 565.412288 -495.253705 
L 566.862467 -495.008098 
L 568.312646 -495.124523 
L 569.762826 -495.757675 
L 571.213005 -497.549988 
L 572.663184 -501.26248 
L 574.113363 -506.795365 
L 575.563543 -512.23619 
L 577.013722 -491.724079 
L 578.463901 -512.893385 
L 579.914081 -508.930448 
L 581.36426 -506.438153 
L 582.814439 -507.424993 
L 584.264619 -510.934685 
L 585.714798 -499.271469 
L 587.164977 -518.020858 
L 588.615157 -521.028601 
L 590.065336 -522.696505 
L 591.515515 -494.251646 
L 592.965695 -511.743133 
L 594.415874 -487.132741 
L 595.866053 -492.969393 
L 597.316233 -489.462407 
L 598.766412 -485.42512 
L 600.216591 -490.942276 
L 601.666771 -492.556603 
L 603.11695 -493.755553 
L 604.567129 -494.443366 
L 606.017309 -494.753227 
L 607.467488 -494.860892 
L 608.917667 -494.889147 
L 610.367847 -494.895013 
L 611.818026 -494.896076 
L 613.268205 -494.896076 
L 614.718385 -494.896076 
L 616.168564 -494.896076 
L 617.618743 -494.896076 
L 619.068923 -494.896076 
L 620.519102 -494.896076 
L 621.969281 -494.896076 
L 623.41946 -494.896076 
L 624.86964 -494.896076 
L 626.319819 -494.896076 
L 627.769998 -494.896076 
L 629.220178 -494.896076 
L 630.670357 -494.896076 
L 632.120536 -494.896076 
L 633.570716 -494.896076 
L 635.020895 -494.896076 
L 636.471074 -494.896076 
L 636.471074 -494.896076 
L 636.471074 -494.896076 
L 635.020895 -494.896076 
L 633.570716 -494.896076 
L 632.120536 -494.896076 
L 630.670357 -494.896076 
L 629.220178 -494.896076 
L 627.769998 -494.896076 
L 626.319819 -494.896076 
L 624.86964 -494.896076 
L 623.41946 -494.896076 
L 621.969281 -494.896076 
L 620.519102 -494.896076 
L 619.068923 -494.896076 
L 617.618743 -494.896076 
L 616.168564 -494.896076 
L 614.718385 -494.896076 
L 613.268205 -494.896076 
L 611.818026 -494.896076 
L 610.367847 -494.895013 
L 608.917667 -494.889147 
L 607.467488 -494.860892 
L 606.017309 -494.753227 
L 604.567129 -494.443366 
L 603.11695 -493.755553 
L 601.666771 -492.556603 
L 600.216591 -490.942276 
L 598.766412 -493.503502 
L 597.316233 -489.462407 
L 595.866053 -492.969393 
L 594.415874 -515.085718 
L 592.965695 -511.743133 
L 591.515515 -545.770398 
L 590.065336 -522.696505 
L 588.615157 -521.028601 
L 587.164977 -518.020858 
L 585.714798 -530.260778 
L 584.264619 -510.934685 
L 582.814439 -507.424993 
L 581.36426 -506.438153 
L 579.914081 -508.930448 
L 578.463901 -512.893385 
L 577.013722 -537.637625 
L 575.563543 -512.23619 
L 574.113363 -506.795365 
L 572.663184 -501.26248 
L 571.213005 -497.549988 
L 569.762826 -495.757675 
L 568.312646 -495.124523 
L 566.862467 -495.008098 
L 565.412288 -495.253705 
L 563.962108 -496.284509 
L 562.511929 -499.172752 
L 561.06175 -505.155289 
L 559.61157 -514.06281 
L 558.161391 -522.78351 
L 556.711212 -544.072138 
L 555.261032 -522.78351 
L 553.810853 -514.06281 
L 552.360674 -505.155289 
L 550.910494 -499.172752 
L 549.460315 -496.281129 
L 548.010136 -495.225088 
L 546.559956 -494.853279 
L 545.109777 -494.464016 
L 543.659598 -493.532584 
L 542.209418 -491.62523 
L 540.759239 -488.785331 
L 539.30906 -486.004995 
L 537.85888 -496.730518 
L 536.408701 -486.004995 
L 534.958522 -488.785331 
L 533.508342 -491.62523 
L 532.058163 -493.532584 
L 530.607984 -494.453415 
L 529.157804 -494.784153 
L 527.707625 -494.874037 
L 526.257446 -494.892696 
L 524.807266 -494.896076 
L 523.357087 -494.896076 
L 521.906908 -494.896076 
L 520.456729 -494.896076 
L 519.006549 -494.896076 
L 517.55637 -494.896076 
L 516.106191 -494.896076 
L 514.656011 -494.896076 
L 513.205832 -494.896076 
L 511.755653 -494.896076 
L 510.305473 -494.896076 
L 508.855294 -494.896076 
L 507.405115 -494.896076 
L 505.954935 -494.896076 
L 504.504756 -494.896076 
L 503.054577 -494.896076 
L 501.604397 -494.896076 
L 500.154218 -494.896076 
L 498.704039 -494.910199 
L 497.253859 -494.98817 
L 495.80368 -495.363771 
L 494.353501 -496.745846 
L 492.903321 -500.593769 
L 491.453142 -508.564131 
L 490.002963 -520.431365 
L 488.552783 -532.049703 
L 487.102604 -563.262264 
L 485.652425 -532.049703 
L 484.202245 -520.431365 
L 482.752066 -508.564131 
L 481.301887 -500.593769 
L 479.851707 -496.745846 
L 478.401528 -495.363771 
L 476.951349 -494.98817 
L 475.501169 -494.910199 
L 474.05099 -494.896076 
L 472.600811 -494.896076 
L 471.150632 -494.896076 
L 469.700452 -494.896076 
L 468.250273 -494.896076 
L 466.800094 -494.896076 
L 465.349914 -494.896076 
L 463.899735 -494.896076 
L 462.449556 -494.896076 
L 460.999376 -494.896076 
L 459.549197 -494.896076 
L 458.099018 -494.896076 
L 456.648838 -494.896076 
L 455.198659 -494.896076 
L 453.74848 -494.896076 
L 452.2983 -494.896076 
L 450.848121 -494.896076 
L 449.397942 -494.896076 
L 447.947762 -494.896076 
L 446.497583 -494.896076 
L 445.047404 -494.896076 
L 443.597224 -494.896076 
L 442.147045 -494.896076 
L 440.696866 -494.896076 
L 439.246686 -494.896076 
L 437.796507 -494.896076 
L 436.346328 -494.896076 
L 434.896148 -494.896076 
L 433.445969 -494.896076 
L 431.99579 -494.896076 
L 430.54561 -494.896076 
L 429.095431 -494.896076 
L 427.645252 -494.896076 
L 426.195073 -494.896076 
L 424.744893 -494.896076 
L 423.294714 -494.896076 
L 421.844535 -494.896076 
L 420.394355 -494.896076 
L 418.944176 -494.896076 
L 417.493997 -494.896076 
L 416.043817 -494.896076 
L 414.593638 -494.896076 
L 413.143459 -494.896076 
L 411.693279 -494.896076 
L 410.2431 -494.896076 
L 408.792921 -494.896076 
L 407.342741 -494.896076 
L 405.892562 -494.896076 
z
" style="stroke: #d62728; stroke-opacity: 0.2"/>
    </defs>
    <g clip-path="url(#p0dcd0124b5)">
     <use xlink:href="#m3225e20a87" x="0" y="720" style="fill: #d62728; fill-opacity: 0.2; stroke: #d62728; stroke-opacity: 0.2"/>
    </g>
   </g>
   <g id="PolyCollection_4">
    <defs>
     <path id="m35ef508998" d="M 405.892562 -622.368595 
L 405.892562 -588.109242 
L 407.342741 -571.749353 
L 408.792921 -568.275123 
L 410.2431 -552.431392 
L 411.693279 -546.540501 
L 413.143459 -529.774527 
L 414.593638 -543.611507 
L 416.043817 -511.883157 
L 417.493997 -525.336912 
L 418.944176 -517.136465 
L 420.394355 -500.903877 
L 421.844535 -497.248494 
L 423.294714 -520.486425 
L 424.744893 -527.974023 
L 426.195073 -537.345199 
L 427.645252 -523.336788 
L 429.095431 -526.602641 
L 430.54561 -499.477975 
L 431.99579 -480.647012 
L 433.445969 -482.49231 
L 434.896148 -472.42994 
L 436.346328 -440.525942 
L 437.796507 -487.271164 
L 439.246686 -482.004502 
L 440.696866 -508.530638 
L 442.147045 -511.295719 
L 443.597224 -512.448624 
L 445.047404 -513.903891 
L 446.497583 -492.798708 
L 447.947762 -511.22391 
L 449.397942 -506.008325 
L 450.848121 -500.91523 
L 452.2983 -497.866264 
L 453.74848 -497.69718 
L 455.198659 -501.262127 
L 456.648838 -509.722034 
L 458.099018 -522.526306 
L 459.549197 -535.084076 
L 460.999376 -519.174286 
L 462.449556 -534.927981 
L 463.899735 -521.883604 
L 465.349914 -507.716548 
L 466.800094 -496.324682 
L 468.250273 -487.950107 
L 469.700452 -481.986286 
L 471.150632 -465.133723 
L 472.600811 -477.474331 
L 474.05099 -477.419542 
L 475.501169 -477.550379 
L 476.951349 -454.368727 
L 478.401528 -481.562316 
L 479.851707 -485.772371 
L 481.301887 -489.179147 
L 482.752066 -489.944367 
L 484.202245 -487.529499 
L 485.652425 -483.081321 
L 487.102604 -479.122426 
L 488.552783 -462.355805 
L 490.002963 -454.20615 
L 491.453142 -465.185332 
L 492.903321 -483.968907 
L 494.353501 -484.304657 
L 495.80368 -480.709471 
L 497.253859 -471.481496 
L 498.704039 -457.816751 
L 500.154218 -426.506422 
L 501.604397 -419.442943 
L 503.054577 -397.740496 
L 504.504756 -432.114891 
L 505.954935 -433.445514 
L 507.405115 -413.049202 
L 508.855294 -449.783678 
L 510.305473 -463.262177 
L 511.755653 -471.82371 
L 513.205832 -470.941765 
L 514.656011 -444.776058 
L 516.106191 -431.708689 
L 517.55637 -455.013781 
L 519.006549 -458.331023 
L 520.456729 -461.668723 
L 521.906908 -438.31362 
L 523.357087 -467.487603 
L 524.807266 -457.938293 
L 526.257446 -491.388493 
L 527.707625 -506.333198 
L 529.157804 -489.612967 
L 530.607984 -505.127433 
L 532.058163 -514.049485 
L 533.508342 -512.232155 
L 534.958522 -512.847508 
L 536.408701 -487.469495 
L 537.85888 -516.311373 
L 539.30906 -507.497181 
L 540.759239 -525.012549 
L 542.209418 -508.039566 
L 543.659598 -526.697249 
L 545.109777 -520.714378 
L 546.559956 -512.528344 
L 548.010136 -478.553675 
L 549.460315 -494.477269 
L 550.910494 -459.879987 
L 552.360674 -477.210935 
L 553.810853 -493.149984 
L 555.261032 -500.361671 
L 556.711212 -506.786218 
L 558.161391 -507.524425 
L 559.61157 -472.680509 
L 561.06175 -475.326719 
L 562.511929 -433.950941 
L 563.962108 -428.057293 
L 565.412288 -403.658816 
L 566.862467 -425.49505 
L 568.312646 -438.590113 
L 569.762826 -438.976262 
L 571.213005 -475.119388 
L 572.663184 -491.882123 
L 574.113363 -487.701917 
L 575.563543 -486.471657 
L 577.013722 -503.421834 
L 578.463901 -506.305875 
L 579.914081 -514.117562 
L 581.36426 -523.044342 
L 582.814439 -505.896808 
L 584.264619 -523.492993 
L 585.714798 -514.587903 
L 587.164977 -505.442086 
L 588.615157 -499.283439 
L 590.065336 -496.254431 
L 591.515515 -494.904282 
L 592.965695 -493.567867 
L 594.415874 -490.579894 
L 595.866053 -484.433167 
L 597.316233 -474.99827 
L 598.766412 -464.787871 
L 600.216591 -436.214967 
L 601.666771 -455.510245 
L 603.11695 -456.259965 
L 604.567129 -440.218672 
L 606.017309 -443.629111 
L 607.467488 -463.289811 
L 608.917667 -446.862337 
L 610.367847 -494.221295 
L 611.818026 -516.196756 
L 613.268205 -511.684643 
L 614.718385 -538.540504 
L 616.168564 -505.249288 
L 617.618743 -518.385859 
L 619.068923 -500.594958 
L 620.519102 -482.812183 
L 621.969281 -468.957209 
L 623.41946 -440.284347 
L 624.86964 -465.622017 
L 626.319819 -472.826525 
L 627.769998 -477.507372 
L 629.220178 -474.698687 
L 630.670357 -465.425805 
L 632.120536 -457.234379 
L 633.570716 -440.517144 
L 635.020895 -471.284369 
L 636.471074 -460.776556 
L 636.471074 -506.188823 
L 636.471074 -506.188823 
L 635.020895 -471.284369 
L 633.570716 -477.397119 
L 632.120536 -457.234379 
L 630.670357 -465.425805 
L 629.220178 -474.698687 
L 627.769998 -477.507372 
L 626.319819 -472.826525 
L 624.86964 -465.622017 
L 623.41946 -485.570154 
L 621.969281 -468.957209 
L 620.519102 -482.812183 
L 619.068923 -500.594958 
L 617.618743 -518.385859 
L 616.168564 -559.714319 
L 614.718385 -538.540504 
L 613.268205 -554.217059 
L 611.818026 -516.196756 
L 610.367847 -494.221295 
L 608.917667 -503.142281 
L 607.467488 -463.289811 
L 606.017309 -473.522656 
L 604.567129 -474.315993 
L 603.11695 -456.259965 
L 601.666771 -455.510245 
L 600.216591 -479.208155 
L 598.766412 -464.787871 
L 597.316233 -474.99827 
L 595.866053 -484.433167 
L 594.415874 -490.579894 
L 592.965695 -493.567867 
L 591.515515 -494.904282 
L 590.065336 -496.254431 
L 588.615157 -499.283439 
L 587.164977 -505.442086 
L 585.714798 -514.587903 
L 584.264619 -523.492993 
L 582.814439 -548.378109 
L 581.36426 -523.044342 
L 579.914081 -514.117562 
L 578.463901 -506.305875 
L 577.013722 -503.421834 
L 575.563543 -521.191505 
L 574.113363 -515.555685 
L 572.663184 -491.882123 
L 571.213005 -475.119388 
L 569.762826 -473.001687 
L 568.312646 -438.590113 
L 566.862467 -425.49505 
L 565.412288 -437.273681 
L 563.962108 -428.057293 
L 562.511929 -463.374085 
L 561.06175 -475.326719 
L 559.61157 -521.882881 
L 558.161391 -507.524425 
L 556.711212 -506.786218 
L 555.261032 -500.361671 
L 553.810853 -493.149984 
L 552.360674 -499.715689 
L 550.910494 -517.607381 
L 549.460315 -494.477269 
L 548.010136 -528.144659 
L 546.559956 -512.528344 
L 545.109777 -520.714378 
L 543.659598 -526.697249 
L 542.209418 -548.540505 
L 540.759239 -525.012549 
L 539.30906 -532.309527 
L 537.85888 -516.311373 
L 536.408701 -541.326851 
L 534.958522 -512.847508 
L 533.508342 -512.232155 
L 532.058163 -514.049485 
L 530.607984 -528.44951 
L 529.157804 -541.292971 
L 527.707625 -506.333198 
L 526.257446 -491.388493 
L 524.807266 -495.62725 
L 523.357087 -467.487603 
L 521.906908 -489.033951 
L 520.456729 -461.668723 
L 519.006549 -458.331023 
L 517.55637 -455.013781 
L 516.106191 -480.691657 
L 514.656011 -481.717371 
L 513.205832 -470.941765 
L 511.755653 -471.82371 
L 510.305473 -463.262177 
L 508.855294 -449.783678 
L 507.405115 -464.326524 
L 505.954935 -433.445514 
L 504.504756 -432.114891 
L 503.054577 -466.950864 
L 501.604397 -451.579339 
L 500.154218 -462.037728 
L 498.704039 -457.816751 
L 497.253859 -471.481496 
L 495.80368 -480.709471 
L 494.353501 -484.304657 
L 492.903321 -483.968907 
L 491.453142 -498.461049 
L 490.002963 -504.341002 
L 488.552783 -493.319748 
L 487.102604 -479.122426 
L 485.652425 -483.081321 
L 484.202245 -487.529499 
L 482.752066 -489.944367 
L 481.301887 -489.179147 
L 479.851707 -485.772371 
L 478.401528 -481.562316 
L 476.951349 -502.8318 
L 475.501169 -477.550379 
L 474.05099 -477.419542 
L 472.600811 -477.474331 
L 471.150632 -492.002653 
L 469.700452 -481.986286 
L 468.250273 -487.950107 
L 466.800094 -496.324682 
L 465.349914 -507.716548 
L 463.899735 -521.883604 
L 462.449556 -534.927981 
L 460.999376 -561.643434 
L 459.549197 -535.084076 
L 458.099018 -522.526306 
L 456.648838 -509.722034 
L 455.198659 -501.262127 
L 453.74848 -497.69718 
L 452.2983 -497.866264 
L 450.848121 -500.91523 
L 449.397942 -506.008325 
L 447.947762 -511.22391 
L 446.497583 -535.405911 
L 445.047404 -513.903891 
L 443.597224 -512.448624 
L 442.147045 -511.295719 
L 440.696866 -508.530638 
L 439.246686 -518.928856 
L 437.796507 -487.271164 
L 436.346328 -510.003189 
L 434.896148 -472.42994 
L 433.445969 -482.49231 
L 431.99579 -524.850308 
L 430.54561 -551.028958 
L 429.095431 -554.631192 
L 427.645252 -564.283046 
L 426.195073 -537.345199 
L 424.744893 -527.974023 
L 423.294714 -520.486425 
L 421.844535 -534.377586 
L 420.394355 -527.438511 
L 418.944176 -517.136465 
L 417.493997 -525.336912 
L 416.043817 -559.806012 
L 414.593638 -543.611507 
L 413.143459 -562.370095 
L 411.693279 -546.540501 
L 410.2431 -552.431392 
L 408.792921 -568.275123 
L 407.342741 -607.637318 
L 405.892562 -622.368595 
z
" style="stroke: #ff7f0e; stroke-opacity: 0.2"/>
    </defs>
    <g clip-path="url(#p0dcd0124b5)">
     <use xlink:href="#m35ef508998" x="0" y="720" style="fill: #ff7f0e; fill-opacity: 0.2; stroke: #ff7f0e; stroke-opacity: 0.2"/>
    </g>
   </g>
   <g id="matplotlib.axis_3">
    <g id="xtick_7">
     <g id="line2d_13">
      <g>
       <use xlink:href="#mbcce6c57cd" x="405.863558" y="333.490909" style="stroke: #000000; stroke-width: 0.8"/>
      </g>
     </g>
     <g id="text_13">
      <!-- 0 -->
      <g transform="translate(402.682308 348.089347)scale(0.1 -0.1)">
       <use xlink:href="#DejaVuSans-30"/>
      </g>
     </g>
    </g>
    <g id="xtick_8">
     <g id="line2d_14">
      <g>
       <use xlink:href="#mbcce6c57cd" x="463.870731" y="333.490909" style="stroke: #000000; stroke-width: 0.8"/>
      </g>
     </g>
     <g id="text_14">
      <!-- 2000 -->
      <g transform="translate(451.145731 348.089347)scale(0.1 -0.1)">
       <use xlink:href="#DejaVuSans-32"/>
       <use xlink:href="#DejaVuSans-30" x="63.623047"/>
       <use xlink:href="#DejaVuSans-30" x="127.246094"/>
       <use xlink:href="#DejaVuSans-30" x="190.869141"/>
      </g>
     </g>
    </g>
    <g id="xtick_9">
     <g id="line2d_15">
      <g>
       <use xlink:href="#mbcce6c57cd" x="521.877904" y="333.490909" style="stroke: #000000; stroke-width: 0.8"/>
      </g>
     </g>
     <g id="text_15">
      <!-- 4000 -->
      <g transform="translate(509.152904 348.089347)scale(0.1 -0.1)">
       <use xlink:href="#DejaVuSans-34"/>
       <use xlink:href="#DejaVuSans-30" x="63.623047"/>
       <use xlink:href="#DejaVuSans-30" x="127.246094"/>
       <use xlink:href="#DejaVuSans-30" x="190.869141"/>
      </g>
     </g>
    </g>
    <g id="xtick_10">
     <g id="line2d_16">
      <g>
       <use xlink:href="#mbcce6c57cd" x="579.885077" y="333.490909" style="stroke: #000000; stroke-width: 0.8"/>
      </g>
     </g>
     <g id="text_16">
      <!-- 6000 -->
      <g transform="translate(567.160077 348.089347)scale(0.1 -0.1)">
       <use xlink:href="#DejaVuSans-36"/>
       <use xlink:href="#DejaVuSans-30" x="63.623047"/>
       <use xlink:href="#DejaVuSans-30" x="127.246094"/>
       <use xlink:href="#DejaVuSans-30" x="190.869141"/>
      </g>
     </g>
    </g>
    <g id="xtick_11">
     <g id="line2d_17">
      <g>
       <use xlink:href="#mbcce6c57cd" x="637.89225" y="333.490909" style="stroke: #000000; stroke-width: 0.8"/>
      </g>
     </g>
     <g id="text_17">
      <!-- 8000 -->
      <g transform="translate(625.16725 348.089347)scale(0.1 -0.1)">
       <use xlink:href="#DejaVuSans-38"/>
       <use xlink:href="#DejaVuSans-30" x="63.623047"/>
       <use xlink:href="#DejaVuSans-30" x="127.246094"/>
       <use xlink:href="#DejaVuSans-30" x="190.869141"/>
      </g>
     </g>
    </g>
   </g>
   <g id="matplotlib.axis_4">
    <g id="ytick_7">
     <g id="line2d_18">
      <g>
       <use xlink:href="#mbafb6ef64e" x="394.363636" y="304.494186" style="stroke: #000000; stroke-width: 0.8"/>
      </g>
     </g>
     <g id="text_18">
      <!-- −0.2 -->
      <g transform="translate(363.080824 308.293405)scale(0.1 -0.1)">
       <defs>
        <path id="DejaVuSans-2212" d="M 678 2272 
L 4684 2272 
L 4684 1741 
L 678 1741 
L 678 2272 
z
" transform="scale(0.015625)"/>
       </defs>
       <use xlink:href="#DejaVuSans-2212"/>
       <use xlink:href="#DejaVuSans-30" x="83.789062"/>
       <use xlink:href="#DejaVuSans-2e" x="147.412109"/>
       <use xlink:href="#DejaVuSans-32" x="179.199219"/>
      </g>
     </g>
    </g>
    <g id="ytick_8">
     <g id="line2d_19">
      <g>
       <use xlink:href="#mbafb6ef64e" x="394.363636" y="264.799055" style="stroke: #000000; stroke-width: 0.8"/>
      </g>
     </g>
     <g id="text_19">
      <!-- −0.1 -->
      <g transform="translate(363.080824 268.598274)scale(0.1 -0.1)">
       <use xlink:href="#DejaVuSans-2212"/>
       <use xlink:href="#DejaVuSans-30" x="83.789062"/>
       <use xlink:href="#DejaVuSans-2e" x="147.412109"/>
       <use xlink:href="#DejaVuSans-31" x="179.199219"/>
      </g>
     </g>
    </g>
    <g id="ytick_9">
     <g id="line2d_20">
      <g>
       <use xlink:href="#mbafb6ef64e" x="394.363636" y="225.103924" style="stroke: #000000; stroke-width: 0.8"/>
      </g>
     </g>
     <g id="text_20">
      <!-- 0.0 -->
      <g transform="translate(371.460511 228.903143)scale(0.1 -0.1)">
       <use xlink:href="#DejaVuSans-30"/>
       <use xlink:href="#DejaVuSans-2e" x="63.623047"/>
       <use xlink:href="#DejaVuSans-30" x="95.410156"/>
      </g>
     </g>
    </g>
    <g id="ytick_10">
     <g id="line2d_21">
      <g>
       <use xlink:href="#mbafb6ef64e" x="394.363636" y="185.408794" style="stroke: #000000; stroke-width: 0.8"/>
      </g>
     </g>
     <g id="text_21">
      <!-- 0.1 -->
      <g transform="translate(371.460511 189.208012)scale(0.1 -0.1)">
       <use xlink:href="#DejaVuSans-30"/>
       <use xlink:href="#DejaVuSans-2e" x="63.623047"/>
       <use xlink:href="#DejaVuSans-31" x="95.410156"/>
      </g>
     </g>
    </g>
    <g id="ytick_11">
     <g id="line2d_22">
      <g>
       <use xlink:href="#mbafb6ef64e" x="394.363636" y="145.713663" style="stroke: #000000; stroke-width: 0.8"/>
      </g>
     </g>
     <g id="text_22">
      <!-- 0.2 -->
      <g transform="translate(371.460511 149.512882)scale(0.1 -0.1)">
       <use xlink:href="#DejaVuSans-30"/>
       <use xlink:href="#DejaVuSans-2e" x="63.623047"/>
       <use xlink:href="#DejaVuSans-32" x="95.410156"/>
      </g>
     </g>
    </g>
    <g id="ytick_12">
     <g id="line2d_23">
      <g>
       <use xlink:href="#mbafb6ef64e" x="394.363636" y="106.018532" style="stroke: #000000; stroke-width: 0.8"/>
      </g>
     </g>
     <g id="text_23">
      <!-- 0.3 -->
      <g transform="translate(371.460511 109.817751)scale(0.1 -0.1)">
       <defs>
        <path id="DejaVuSans-33" d="M 2597 2516 
Q 3050 2419 3304 2112 
Q 3559 1806 3559 1356 
Q 3559 666 3084 287 
Q 2609 -91 1734 -91 
Q 1441 -91 1130 -33 
Q 819 25 488 141 
L 488 750 
Q 750 597 1062 519 
Q 1375 441 1716 441 
Q 2309 441 2620 675 
Q 2931 909 2931 1356 
Q 2931 1769 2642 2001 
Q 2353 2234 1838 2234 
L 1294 2234 
L 1294 2753 
L 1863 2753 
Q 2328 2753 2575 2939 
Q 2822 3125 2822 3475 
Q 2822 3834 2567 4026 
Q 2313 4219 1838 4219 
Q 1578 4219 1281 4162 
Q 984 4106 628 3988 
L 628 4550 
Q 988 4650 1302 4700 
Q 1616 4750 1894 4750 
Q 2613 4750 3031 4423 
Q 3450 4097 3450 3541 
Q 3450 3153 3228 2886 
Q 3006 2619 2597 2516 
z
" transform="scale(0.015625)"/>
       </defs>
       <use xlink:href="#DejaVuSans-30"/>
       <use xlink:href="#DejaVuSans-2e" x="63.623047"/>
       <use xlink:href="#DejaVuSans-33" x="95.410156"/>
      </g>
     </g>
    </g>
   </g>
   <g id="line2d_24">
    <path d="M 405.892562 244.986431 
L 407.342741 253.667096 
L 408.792921 265.148084 
L 410.2431 271.118999 
L 411.693279 266.925417 
L 414.593638 242.666637 
L 416.043817 234.649621 
L 417.493997 232.396834 
L 418.944176 234.836283 
L 421.844535 245.237283 
L 423.294714 247.165971 
L 424.744893 244.465939 
L 426.195073 239.152243 
L 427.645252 235.199355 
L 429.095431 235.549384 
L 430.54561 240.156289 
L 431.99579 245.877707 
L 433.445969 248.421932 
L 434.896148 245.647985 
L 437.796507 232.661453 
L 439.246686 228.270959 
L 440.696866 226.218358 
L 442.147045 225.745057 
L 443.597224 226.405154 
L 445.047404 228.38326 
L 446.497583 232.050739 
L 447.947762 237.424493 
L 449.397942 244.122893 
L 450.848121 251.882355 
L 453.74848 268.675458 
L 455.198659 272.965948 
L 456.648838 269.598391 
L 458.099018 257.983553 
L 459.549197 242.456276 
L 460.999376 229.542161 
L 462.449556 223.015841 
L 463.899735 221.527397 
L 465.349914 221.100601 
L 466.800094 219.576718 
L 468.250273 217.717245 
L 469.700452 216.533681 
L 472.600811 214.795622 
L 474.05099 214.613744 
L 475.501169 215.774955 
L 476.951349 217.471124 
L 478.401528 218.156193 
L 479.851707 217.593413 
L 481.301887 217.754367 
L 482.752066 221.052814 
L 484.202245 227.268586 
L 485.652425 232.978969 
L 487.102604 234.781409 
L 488.552783 232.453039 
L 490.002963 228.49964 
L 491.453142 225.836676 
L 492.903321 226.526666 
L 494.353501 231.091374 
L 495.80368 237.510464 
L 497.253859 241.811004 
L 498.704039 241.237707 
L 500.154218 236.558638 
L 504.504756 218.413852 
L 505.954935 211.854028 
L 507.405115 207.717371 
L 508.855294 210.674549 
L 510.305473 222.641341 
L 511.755653 239.412752 
L 513.205832 253.377125 
L 514.656011 259.51709 
L 516.106191 257.488505 
L 517.55637 248.620516 
L 519.006549 233.778069 
L 520.456729 215.187947 
L 521.906908 198.387614 
L 523.357087 189.821587 
L 524.807266 191.487782 
L 526.257446 198.602415 
L 527.707625 203.648363 
L 529.157804 202.849494 
L 530.607984 198.821164 
L 532.058163 197.393397 
L 533.508342 202.043981 
L 534.958522 211.536336 
L 536.408701 222.407495 
L 537.85888 232.068021 
L 539.30906 238.968272 
L 540.759239 241.779547 
L 542.209418 240.312922 
L 543.659598 236.607664 
L 545.109777 233.734 
L 546.559956 233.314343 
L 548.010136 234.481632 
L 549.460315 235.08087 
L 550.910494 233.780676 
L 553.810853 228.314012 
L 555.261032 226.583371 
L 556.711212 226.135317 
L 558.161391 227.006081 
L 559.61157 229.218402 
L 561.06175 232.198391 
L 562.511929 234.360726 
L 563.962108 234.260888 
L 565.412288 232.448051 
L 566.862467 231.029013 
L 569.762826 230.803716 
L 571.213005 229.490465 
L 572.663184 227.421265 
L 574.113363 225.778655 
L 575.563543 225.0332 
L 577.013722 224.878733 
L 579.914081 224.966948 
L 581.36426 225.541296 
L 582.814439 227.699247 
L 584.264619 232.697477 
L 587.164977 247.941572 
L 588.615157 250.201075 
L 590.065336 243.759571 
L 591.515515 229.485462 
L 592.965695 212.363966 
L 594.415874 199.307803 
L 595.866053 195.762265 
L 597.316233 202.011936 
L 598.766412 212.947813 
L 600.216591 222.548974 
L 601.666771 227.873808 
L 603.11695 228.72193 
L 604.567129 225.360515 
L 606.017309 217.864848 
L 608.917667 197.64735 
L 610.367847 193.384524 
L 611.818026 196.704699 
L 613.268205 204.418912 
L 614.718385 210.202635 
L 616.168564 208.740545 
L 617.618743 198.486868 
L 619.068923 182.994396 
L 620.519102 170.289722 
L 621.969281 168.107259 
L 623.41946 177.356782 
L 624.86964 190.944599 
L 626.319819 199.853909 
L 627.769998 199.99382 
L 630.670357 188.536407 
L 632.120536 188.970575 
L 633.570716 196.056832 
L 635.020895 205.648489 
L 636.471074 212.185694 
L 636.471074 212.185694 
" clip-path="url(#p0dcd0124b5)" style="fill: none; stroke: #9467bd; stroke-width: 2; stroke-linecap: square"/>
   </g>
   <g id="line2d_25">
    <path d="M 405.892562 224.939049 
L 407.342741 224.55495 
L 408.792921 223.425775 
L 410.2431 221.078254 
L 413.143459 214.161274 
L 414.593638 212.705654 
L 416.043817 214.169481 
L 418.944176 221.181346 
L 420.394355 223.67308 
L 421.844535 225.021135 
L 423.294714 225.638375 
L 424.744893 225.838281 
L 426.195073 225.77093 
L 429.095431 225.353327 
L 430.54561 225.268728 
L 431.99579 225.508583 
L 433.445969 226.613669 
L 434.896148 229.716614 
L 436.346328 236.210139 
L 439.246686 256.92977 
L 440.696866 262.657641 
L 442.147045 259.061179 
L 443.597224 246.734251 
L 445.047404 230.869369 
L 446.497583 217.635533 
L 447.947762 210.929547 
L 449.397942 210.994617 
L 452.2983 218.619485 
L 453.74848 219.267575 
L 455.198659 216.409289 
L 456.648838 212.03059 
L 458.099018 209.124801 
L 459.549197 209.307199 
L 460.999376 211.773783 
L 465.349914 220.939022 
L 466.800094 222.619375 
L 468.250273 221.942391 
L 469.700452 219.137186 
L 472.600811 212.190179 
L 474.05099 209.918786 
L 475.501169 209.738299 
L 476.951349 211.96011 
L 478.401528 214.913477 
L 479.851707 215.856166 
L 481.301887 213.551249 
L 482.752066 209.748343 
L 484.202245 207.835418 
L 485.652425 209.795561 
L 488.552783 219.473608 
L 490.002963 222.521448 
L 491.453142 223.314558 
L 494.353501 221.822035 
L 495.80368 222.376515 
L 497.253859 224.502112 
L 498.704039 226.933089 
L 500.154218 228.195455 
L 501.604397 227.952796 
L 503.054577 226.790768 
L 504.504756 225.091892 
L 505.954935 222.641629 
L 508.855294 215.969445 
L 510.305473 214.071733 
L 511.755653 214.401175 
L 513.205832 215.670751 
L 514.656011 214.792506 
L 516.106191 208.819507 
L 519.006549 186.253294 
L 520.456729 181.372238 
L 521.906908 186.617974 
L 524.807266 210.967739 
L 526.257446 219.126427 
L 527.707625 222.808287 
L 529.157804 223.425954 
L 530.607984 222.140036 
L 533.508342 217.302109 
L 534.958522 216.263654 
L 536.408701 217.362716 
L 537.85888 220.188123 
L 539.30906 224.087246 
L 540.759239 229.147406 
L 542.209418 235.404174 
L 543.659598 241.102607 
L 545.109777 243.153933 
L 546.559956 240.369446 
L 548.010136 235.356824 
L 549.460315 232.254591 
L 550.910494 233.177858 
L 552.360674 236.897336 
L 553.810853 239.764341 
L 555.261032 237.663114 
L 556.711212 228.494783 
L 559.61157 200.387205 
L 561.06175 193.594669 
L 562.511929 196.247324 
L 563.962108 205.204805 
L 565.412288 215.030801 
L 566.862467 222.402786 
L 568.312646 227.023131 
L 569.762826 229.58252 
L 571.213005 230.273807 
L 572.663184 229.26668 
L 574.113363 227.9869 
L 575.563543 229.601294 
L 577.013722 237.431487 
L 579.914081 264.097138 
L 581.36426 267.358714 
L 582.814439 257.051581 
L 585.714798 217.319109 
L 587.164977 202.417812 
L 588.615157 195.073046 
L 590.065336 194.485404 
L 591.515515 198.587255 
L 595.866053 217.800274 
L 597.316233 221.701449 
L 598.766412 223.807253 
L 600.216591 224.70684 
L 601.666771 225.006899 
L 604.567129 225.102324 
L 608.917667 225.221482 
L 610.367847 225.506627 
L 611.818026 226.333642 
L 613.268205 228.368687 
L 614.718385 232.358952 
L 617.618743 244.298038 
L 619.068923 248.043629 
L 620.519102 248.655697 
L 621.969281 247.778191 
L 623.41946 247.101794 
L 624.86964 246.114314 
L 626.319819 243.264963 
L 629.220178 233.38367 
L 630.670357 229.687673 
L 632.120536 227.881436 
L 633.570716 227.450593 
L 636.471074 227.778291 
L 636.471074 227.778291 
" clip-path="url(#p0dcd0124b5)" style="fill: none; stroke: #1f77b4; stroke-width: 2; stroke-linecap: square"/>
   </g>
   <g id="line2d_26">
    <path d="M 405.892562 225.103924 
L 476.951349 225.01183 
L 478.401528 224.636229 
L 479.851707 223.254154 
L 481.301887 219.406231 
L 482.752066 211.435869 
L 485.652425 187.950297 
L 487.102604 183.003349 
L 488.552783 187.950297 
L 491.453142 211.435869 
L 492.903321 219.406231 
L 494.353501 223.254154 
L 495.80368 224.636229 
L 497.253859 225.01183 
L 500.154218 225.103924 
L 527.707625 225.125963 
L 529.157804 225.215847 
L 530.607984 225.546585 
L 532.058163 226.467416 
L 533.508342 228.37477 
L 536.408701 233.995005 
L 537.85888 235.178839 
L 539.30906 233.995005 
L 542.209418 228.37477 
L 543.659598 226.467416 
L 545.109777 225.535984 
L 548.010136 224.774912 
L 549.460315 223.718871 
L 550.910494 220.827248 
L 552.360674 214.844711 
L 555.261032 197.21649 
L 556.711212 193.503321 
L 558.161391 197.21649 
L 561.06175 214.844711 
L 562.511929 220.827248 
L 563.962108 223.715491 
L 565.412288 224.746295 
L 566.862467 224.991902 
L 568.312646 224.875477 
L 569.762826 224.242325 
L 571.213005 222.450012 
L 572.663184 218.73752 
L 575.563543 207.76381 
L 577.013722 205.319148 
L 578.463901 207.106615 
L 579.914081 211.069552 
L 581.36426 213.561847 
L 582.814439 212.575007 
L 584.264619 209.065315 
L 585.714798 205.233876 
L 588.615157 198.971399 
L 590.065336 197.303495 
L 591.515515 199.988978 
L 592.965695 208.256867 
L 594.415874 218.890771 
L 595.866053 227.030607 
L 597.316233 230.537593 
L 598.766412 230.535689 
L 603.11695 226.244447 
L 604.567129 225.556634 
L 606.017309 225.246773 
L 608.917667 225.110853 
L 636.471074 225.103924 
L 636.471074 225.103924 
" clip-path="url(#p0dcd0124b5)" style="fill: none; stroke: #d62728; stroke-width: 2; stroke-linecap: square"/>
   </g>
   <g id="line2d_27">
    <path d="M 405.892562 114.761081 
L 407.342741 130.306665 
L 408.792921 151.724877 
L 410.2431 167.568608 
L 411.693279 173.459499 
L 413.143459 173.927689 
L 414.593638 176.388493 
L 416.043817 184.155416 
L 417.493997 194.663088 
L 418.944176 202.863535 
L 420.394355 205.828806 
L 421.844535 204.18696 
L 423.294714 199.513575 
L 424.744893 192.025977 
L 426.195073 182.654801 
L 427.645252 176.190083 
L 429.095431 179.383083 
L 430.54561 194.746533 
L 431.99579 217.25134 
L 433.445969 237.50769 
L 434.896148 247.57006 
L 436.346328 244.735435 
L 437.796507 232.728836 
L 439.246686 219.533321 
L 440.696866 211.469362 
L 442.147045 208.704281 
L 443.597224 207.551376 
L 445.047404 206.096109 
L 446.497583 205.897691 
L 447.947762 208.77609 
L 450.848121 219.08477 
L 452.2983 222.133736 
L 453.74848 222.30282 
L 455.198659 218.737873 
L 456.648838 210.277966 
L 459.549197 184.915924 
L 460.999376 179.59114 
L 462.449556 185.072019 
L 463.899735 198.116396 
L 465.349914 212.283452 
L 466.800094 223.675318 
L 468.250273 232.049893 
L 469.700452 238.013714 
L 471.150632 241.431812 
L 472.600811 242.525669 
L 474.05099 242.580458 
L 475.501169 242.449621 
L 476.951349 241.399737 
L 478.401528 238.437684 
L 479.851707 234.227629 
L 481.301887 230.820853 
L 482.752066 230.055633 
L 484.202245 232.470501 
L 485.652425 236.918679 
L 487.102604 240.877574 
L 488.552783 242.162224 
L 490.002963 240.726424 
L 491.453142 238.176809 
L 492.903321 236.031093 
L 494.353501 235.695343 
L 495.80368 239.290529 
L 497.253859 248.518504 
L 500.154218 275.727925 
L 501.604397 284.488859 
L 503.054577 287.65432 
L 504.504756 287.885109 
L 505.954935 286.554486 
L 507.405115 281.312137 
L 508.855294 270.216322 
L 510.305473 256.737823 
L 511.755653 248.17629 
L 513.205832 249.058235 
L 514.656011 256.753286 
L 516.106191 263.799827 
L 517.55637 264.986219 
L 520.456729 258.331277 
L 521.906908 256.326215 
L 523.357087 252.512397 
L 524.807266 243.217229 
L 527.707625 213.666802 
L 529.157804 204.547031 
L 530.607984 203.211529 
L 532.058163 205.950515 
L 533.508342 207.767845 
L 534.958522 207.152492 
L 536.408701 205.601827 
L 537.85888 203.688627 
L 539.30906 200.096646 
L 540.759239 194.987451 
L 542.209418 191.709965 
L 543.659598 193.302751 
L 545.109777 199.285622 
L 546.559956 207.471656 
L 549.460315 225.522731 
L 550.910494 231.256316 
L 552.360674 231.536688 
L 553.810853 226.850016 
L 555.261032 219.638329 
L 556.711212 213.213782 
L 558.161391 212.475575 
L 559.61157 222.718305 
L 561.06175 244.673281 
L 562.511929 271.337487 
L 563.962108 291.942707 
L 565.412288 299.533752 
L 566.862467 294.50495 
L 568.312646 281.409887 
L 569.762826 264.011026 
L 571.213005 244.880612 
L 572.663184 228.117877 
L 574.113363 218.371199 
L 575.563543 216.168419 
L 577.013722 216.578166 
L 578.463901 213.694125 
L 579.914081 205.882438 
L 581.36426 196.955658 
L 582.814439 192.862542 
L 584.264619 196.507007 
L 587.164977 214.557914 
L 588.615157 220.716561 
L 590.065336 223.745569 
L 592.965695 226.432133 
L 594.415874 229.420106 
L 595.866053 235.566833 
L 597.316233 245.00173 
L 598.766412 255.212129 
L 600.216591 262.288439 
L 601.666771 264.489755 
L 603.11695 263.740035 
L 604.567129 262.732667 
L 606.017309 261.424116 
L 607.467488 256.710189 
L 608.917667 244.997691 
L 610.367847 225.778705 
L 611.818026 203.803244 
L 613.268205 187.049149 
L 614.718385 181.459496 
L 616.168564 187.518197 
L 617.618743 201.614141 
L 620.519102 237.187817 
L 621.969281 251.042791 
L 623.41946 257.072749 
L 624.86964 254.377983 
L 626.319819 247.173475 
L 627.769998 242.492628 
L 629.220178 245.301313 
L 630.670357 254.574195 
L 632.120536 262.765621 
L 633.570716 261.042868 
L 636.471074 236.51731 
L 636.471074 236.51731 
" clip-path="url(#p0dcd0124b5)" style="fill: none; stroke: #ff7f0e; stroke-width: 2; stroke-linecap: square"/>
   </g>
   <g id="LineCollection_1">
    <path d="M 521.877904 280.508346 
L 521.877904 136.621443 
" clip-path="url(#p0dcd0124b5)" style="fill: none; stroke-dasharray: 7.4,3.2; stroke-dashoffset: 0; stroke: #000000; stroke-width: 2"/>
    <path d="M 536.379697 280.508346 
L 536.379697 136.621443 
" clip-path="url(#p0dcd0124b5)" style="fill: none; stroke-dasharray: 7.4,3.2; stroke-dashoffset: 0; stroke: #000000; stroke-width: 2"/>
    <path d="M 565.383284 280.508346 
L 565.383284 136.621443 
" clip-path="url(#p0dcd0124b5)" style="fill: none; stroke-dasharray: 7.4,3.2; stroke-dashoffset: 0; stroke: #000000; stroke-width: 2"/>
    <path d="M 623.390457 280.508346 
L 623.390457 136.621443 
" clip-path="url(#p0dcd0124b5)" style="fill: none; stroke-dasharray: 7.4,3.2; stroke-dashoffset: 0; stroke: #000000; stroke-width: 2"/>
   </g>
   <g id="patch_8">
    <path d="M 394.363636 333.490909 
L 394.363636 86.4 
" style="fill: none; stroke: #000000; stroke-width: 0.8; stroke-linejoin: miter; stroke-linecap: square"/>
   </g>
   <g id="patch_9">
    <path d="M 648 333.490909 
L 648 86.4 
" style="fill: none; stroke: #000000; stroke-width: 0.8; stroke-linejoin: miter; stroke-linecap: square"/>
   </g>
   <g id="patch_10">
    <path d="M 394.363636 333.490909 
L 648 333.490909 
" style="fill: none; stroke: #000000; stroke-width: 0.8; stroke-linejoin: miter; stroke-linecap: square"/>
   </g>
   <g id="patch_11">
    <path d="M 394.363636 86.4 
L 648 86.4 
" style="fill: none; stroke: #000000; stroke-width: 0.8; stroke-linejoin: miter; stroke-linecap: square"/>
   </g>
   <g id="text_24">
    <!-- unit_122 -->
    <g transform="translate(495.105256 80.4)scale(0.12 -0.12)">
     <defs>
      <path id="DejaVuSans-75" d="M 544 1381 
L 544 3500 
L 1119 3500 
L 1119 1403 
Q 1119 906 1312 657 
Q 1506 409 1894 409 
Q 2359 409 2629 706 
Q 2900 1003 2900 1516 
L 2900 3500 
L 3475 3500 
L 3475 0 
L 2900 0 
L 2900 538 
Q 2691 219 2414 64 
Q 2138 -91 1772 -91 
Q 1169 -91 856 284 
Q 544 659 544 1381 
z
M 1991 3584 
L 1991 3584 
z
" transform="scale(0.015625)"/>
      <path id="DejaVuSans-6e" d="M 3513 2113 
L 3513 0 
L 2938 0 
L 2938 2094 
Q 2938 2591 2744 2837 
Q 2550 3084 2163 3084 
Q 1697 3084 1428 2787 
Q 1159 2491 1159 1978 
L 1159 0 
L 581 0 
L 581 3500 
L 1159 3500 
L 1159 2956 
Q 1366 3272 1645 3428 
Q 1925 3584 2291 3584 
Q 2894 3584 3203 3211 
Q 3513 2838 3513 2113 
z
" transform="scale(0.015625)"/>
      <path id="DejaVuSans-69" d="M 603 3500 
L 1178 3500 
L 1178 0 
L 603 0 
L 603 3500 
z
M 603 4863 
L 1178 4863 
L 1178 4134 
L 603 4134 
L 603 4863 
z
" transform="scale(0.015625)"/>
      <path id="DejaVuSans-74" d="M 1172 4494 
L 1172 3500 
L 2356 3500 
L 2356 3053 
L 1172 3053 
L 1172 1153 
Q 1172 725 1289 603 
Q 1406 481 1766 481 
L 2356 481 
L 2356 0 
L 1766 0 
Q 1100 0 847 248 
Q 594 497 594 1153 
L 594 3053 
L 172 3053 
L 172 3500 
L 594 3500 
L 594 4494 
L 1172 4494 
z
" transform="scale(0.015625)"/>
      <path id="DejaVuSans-5f" d="M 3263 -1063 
L 3263 -1509 
L -63 -1509 
L -63 -1063 
L 3263 -1063 
z
" transform="scale(0.015625)"/>
     </defs>
     <use xlink:href="#DejaVuSans-75"/>
     <use xlink:href="#DejaVuSans-6e" x="63.378906"/>
     <use xlink:href="#DejaVuSans-69" x="126.757812"/>
     <use xlink:href="#DejaVuSans-74" x="154.541016"/>
     <use xlink:href="#DejaVuSans-5f" x="193.75"/>
     <use xlink:href="#DejaVuSans-31" x="243.75"/>
     <use xlink:href="#DejaVuSans-32" x="307.373047"/>
     <use xlink:href="#DejaVuSans-32" x="370.996094"/>
    </g>
   </g>
  </g>
  <g id="axes_3">
   <g id="patch_12">
    <path d="M 90 630 
L 343.636364 630 
L 343.636364 382.909091 
L 90 382.909091 
z
" style="fill: #ffffff"/>
   </g>
   <g id="matplotlib.axis_5">
    <g id="xtick_12">
     <g id="line2d_28">
      <g>
       <use xlink:href="#mbcce6c57cd" x="90" y="630" style="stroke: #000000; stroke-width: 0.8"/>
      </g>
     </g>
     <g id="text_25">
      <!-- 0.0 -->
      <g transform="translate(82.048438 644.598437)scale(0.1 -0.1)">
       <use xlink:href="#DejaVuSans-30"/>
       <use xlink:href="#DejaVuSans-2e" x="63.623047"/>
       <use xlink:href="#DejaVuSans-30" x="95.410156"/>
      </g>
     </g>
    </g>
    <g id="xtick_13">
     <g id="line2d_29">
      <g>
       <use xlink:href="#mbcce6c57cd" x="140.727273" y="630" style="stroke: #000000; stroke-width: 0.8"/>
      </g>
     </g>
     <g id="text_26">
      <!-- 0.2 -->
      <g transform="translate(132.77571 644.598437)scale(0.1 -0.1)">
       <use xlink:href="#DejaVuSans-30"/>
       <use xlink:href="#DejaVuSans-2e" x="63.623047"/>
       <use xlink:href="#DejaVuSans-32" x="95.410156"/>
      </g>
     </g>
    </g>
    <g id="xtick_14">
     <g id="line2d_30">
      <g>
       <use xlink:href="#mbcce6c57cd" x="191.454545" y="630" style="stroke: #000000; stroke-width: 0.8"/>
      </g>
     </g>
     <g id="text_27">
      <!-- 0.4 -->
      <g transform="translate(183.502983 644.598437)scale(0.1 -0.1)">
       <use xlink:href="#DejaVuSans-30"/>
       <use xlink:href="#DejaVuSans-2e" x="63.623047"/>
       <use xlink:href="#DejaVuSans-34" x="95.410156"/>
      </g>
     </g>
    </g>
    <g id="xtick_15">
     <g id="line2d_31">
      <g>
       <use xlink:href="#mbcce6c57cd" x="242.181818" y="630" style="stroke: #000000; stroke-width: 0.8"/>
      </g>
     </g>
     <g id="text_28">
      <!-- 0.6 -->
      <g transform="translate(234.230256 644.598437)scale(0.1 -0.1)">
       <use xlink:href="#DejaVuSans-30"/>
       <use xlink:href="#DejaVuSans-2e" x="63.623047"/>
       <use xlink:href="#DejaVuSans-36" x="95.410156"/>
      </g>
     </g>
    </g>
    <g id="xtick_16">
     <g id="line2d_32">
      <g>
       <use xlink:href="#mbcce6c57cd" x="292.909091" y="630" style="stroke: #000000; stroke-width: 0.8"/>
      </g>
     </g>
     <g id="text_29">
      <!-- 0.8 -->
      <g transform="translate(284.957528 644.598437)scale(0.1 -0.1)">
       <use xlink:href="#DejaVuSans-30"/>
       <use xlink:href="#DejaVuSans-2e" x="63.623047"/>
       <use xlink:href="#DejaVuSans-38" x="95.410156"/>
      </g>
     </g>
    </g>
    <g id="xtick_17">
     <g id="line2d_33">
      <g>
       <use xlink:href="#mbcce6c57cd" x="343.636364" y="630" style="stroke: #000000; stroke-width: 0.8"/>
      </g>
     </g>
     <g id="text_30">
      <!-- 1.0 -->
      <g transform="translate(335.684801 644.598437)scale(0.1 -0.1)">
       <use xlink:href="#DejaVuSans-31"/>
       <use xlink:href="#DejaVuSans-2e" x="63.623047"/>
       <use xlink:href="#DejaVuSans-30" x="95.410156"/>
      </g>
     </g>
    </g>
   </g>
   <g id="matplotlib.axis_6">
    <g id="ytick_13">
     <g id="line2d_34">
      <g>
       <use xlink:href="#mbafb6ef64e" x="90" y="630" style="stroke: #000000; stroke-width: 0.8"/>
      </g>
     </g>
     <g id="text_31">
      <!-- 0.0 -->
      <g transform="translate(67.096875 633.799219)scale(0.1 -0.1)">
       <use xlink:href="#DejaVuSans-30"/>
       <use xlink:href="#DejaVuSans-2e" x="63.623047"/>
       <use xlink:href="#DejaVuSans-30" x="95.410156"/>
      </g>
     </g>
    </g>
    <g id="ytick_14">
     <g id="line2d_35">
      <g>
       <use xlink:href="#mbafb6ef64e" x="90" y="580.581818" style="stroke: #000000; stroke-width: 0.8"/>
      </g>
     </g>
     <g id="text_32">
      <!-- 0.2 -->
      <g transform="translate(67.096875 584.381037)scale(0.1 -0.1)">
       <use xlink:href="#DejaVuSans-30"/>
       <use xlink:href="#DejaVuSans-2e" x="63.623047"/>
       <use xlink:href="#DejaVuSans-32" x="95.410156"/>
      </g>
     </g>
    </g>
    <g id="ytick_15">
     <g id="line2d_36">
      <g>
       <use xlink:href="#mbafb6ef64e" x="90" y="531.163636" style="stroke: #000000; stroke-width: 0.8"/>
      </g>
     </g>
     <g id="text_33">
      <!-- 0.4 -->
      <g transform="translate(67.096875 534.962855)scale(0.1 -0.1)">
       <use xlink:href="#DejaVuSans-30"/>
       <use xlink:href="#DejaVuSans-2e" x="63.623047"/>
       <use xlink:href="#DejaVuSans-34" x="95.410156"/>
      </g>
     </g>
    </g>
    <g id="ytick_16">
     <g id="line2d_37">
      <g>
       <use xlink:href="#mbafb6ef64e" x="90" y="481.745455" style="stroke: #000000; stroke-width: 0.8"/>
      </g>
     </g>
     <g id="text_34">
      <!-- 0.6 -->
      <g transform="translate(67.096875 485.544673)scale(0.1 -0.1)">
       <use xlink:href="#DejaVuSans-30"/>
       <use xlink:href="#DejaVuSans-2e" x="63.623047"/>
       <use xlink:href="#DejaVuSans-36" x="95.410156"/>
      </g>
     </g>
    </g>
    <g id="ytick_17">
     <g id="line2d_38">
      <g>
       <use xlink:href="#mbafb6ef64e" x="90" y="432.327273" style="stroke: #000000; stroke-width: 0.8"/>
      </g>
     </g>
     <g id="text_35">
      <!-- 0.8 -->
      <g transform="translate(67.096875 436.126491)scale(0.1 -0.1)">
       <use xlink:href="#DejaVuSans-30"/>
       <use xlink:href="#DejaVuSans-2e" x="63.623047"/>
       <use xlink:href="#DejaVuSans-38" x="95.410156"/>
      </g>
     </g>
    </g>
    <g id="ytick_18">
     <g id="line2d_39">
      <g>
       <use xlink:href="#mbafb6ef64e" x="90" y="382.909091" style="stroke: #000000; stroke-width: 0.8"/>
      </g>
     </g>
     <g id="text_36">
      <!-- 1.0 -->
      <g transform="translate(67.096875 386.70831)scale(0.1 -0.1)">
       <use xlink:href="#DejaVuSans-31"/>
       <use xlink:href="#DejaVuSans-2e" x="63.623047"/>
       <use xlink:href="#DejaVuSans-30" x="95.410156"/>
      </g>
     </g>
    </g>
   </g>
   <g id="patch_13">
    <path d="M 90 630 
L 90 382.909091 
" style="fill: none; stroke: #000000; stroke-width: 0.8; stroke-linejoin: miter; stroke-linecap: square"/>
   </g>
   <g id="patch_14">
    <path d="M 343.636364 630 
L 343.636364 382.909091 
" style="fill: none; stroke: #000000; stroke-width: 0.8; stroke-linejoin: miter; stroke-linecap: square"/>
   </g>
   <g id="patch_15">
    <path d="M 90 630 
L 343.636364 630 
" style="fill: none; stroke: #000000; stroke-width: 0.8; stroke-linejoin: miter; stroke-linecap: square"/>
   </g>
   <g id="patch_16">
    <path d="M 90 382.909091 
L 343.636364 382.909091 
" style="fill: none; stroke: #000000; stroke-width: 0.8; stroke-linejoin: miter; stroke-linecap: square"/>
   </g>
  </g>
  <g id="axes_4">
   <g id="patch_17">
    <path d="M 394.363636 630 
L 648 630 
L 648 382.909091 
L 394.363636 382.909091 
z
" style="fill: #ffffff"/>
   </g>
   <g id="matplotlib.axis_7">
    <g id="xtick_18">
     <g id="line2d_40">
      <g>
       <use xlink:href="#mbcce6c57cd" x="405.863558" y="630" style="stroke: #000000; stroke-width: 0.8"/>
      </g>
     </g>
     <g id="text_37">
      <!-- 0 -->
      <g transform="translate(402.682308 644.598437)scale(0.1 -0.1)">
       <use xlink:href="#DejaVuSans-30"/>
      </g>
     </g>
    </g>
    <g id="xtick_19">
     <g id="line2d_41">
      <g>
       <use xlink:href="#mbcce6c57cd" x="463.870731" y="630" style="stroke: #000000; stroke-width: 0.8"/>
      </g>
     </g>
     <g id="text_38">
      <!-- 2000 -->
      <g transform="translate(451.145731 644.598437)scale(0.1 -0.1)">
       <use xlink:href="#DejaVuSans-32"/>
       <use xlink:href="#DejaVuSans-30" x="63.623047"/>
       <use xlink:href="#DejaVuSans-30" x="127.246094"/>
       <use xlink:href="#DejaVuSans-30" x="190.869141"/>
      </g>
     </g>
    </g>
    <g id="xtick_20">
     <g id="line2d_42">
      <g>
       <use xlink:href="#mbcce6c57cd" x="521.877904" y="630" style="stroke: #000000; stroke-width: 0.8"/>
      </g>
     </g>
     <g id="text_39">
      <!-- 4000 -->
      <g transform="translate(509.152904 644.598437)scale(0.1 -0.1)">
       <use xlink:href="#DejaVuSans-34"/>
       <use xlink:href="#DejaVuSans-30" x="63.623047"/>
       <use xlink:href="#DejaVuSans-30" x="127.246094"/>
       <use xlink:href="#DejaVuSans-30" x="190.869141"/>
      </g>
     </g>
    </g>
    <g id="xtick_21">
     <g id="line2d_43">
      <g>
       <use xlink:href="#mbcce6c57cd" x="579.885077" y="630" style="stroke: #000000; stroke-width: 0.8"/>
      </g>
     </g>
     <g id="text_40">
      <!-- 6000 -->
      <g transform="translate(567.160077 644.598437)scale(0.1 -0.1)">
       <use xlink:href="#DejaVuSans-36"/>
       <use xlink:href="#DejaVuSans-30" x="63.623047"/>
       <use xlink:href="#DejaVuSans-30" x="127.246094"/>
       <use xlink:href="#DejaVuSans-30" x="190.869141"/>
      </g>
     </g>
    </g>
    <g id="xtick_22">
     <g id="line2d_44">
      <g>
       <use xlink:href="#mbcce6c57cd" x="637.89225" y="630" style="stroke: #000000; stroke-width: 0.8"/>
      </g>
     </g>
     <g id="text_41">
      <!-- 8000 -->
      <g transform="translate(625.16725 644.598437)scale(0.1 -0.1)">
       <use xlink:href="#DejaVuSans-38"/>
       <use xlink:href="#DejaVuSans-30" x="63.623047"/>
       <use xlink:href="#DejaVuSans-30" x="127.246094"/>
       <use xlink:href="#DejaVuSans-30" x="190.869141"/>
      </g>
     </g>
    </g>
   </g>
   <g id="matplotlib.axis_8">
    <g id="ytick_19">
     <g id="line2d_45">
      <g>
       <use xlink:href="#mbafb6ef64e" x="394.363636" y="630" style="stroke: #000000; stroke-width: 0.8"/>
      </g>
     </g>
     <g id="text_42">
      <!-- −2 -->
      <g transform="translate(372.621449 633.799219)scale(0.1 -0.1)">
       <use xlink:href="#DejaVuSans-2212"/>
       <use xlink:href="#DejaVuSans-32" x="83.789062"/>
      </g>
     </g>
    </g>
    <g id="ytick_20">
     <g id="line2d_46">
      <g>
       <use xlink:href="#mbafb6ef64e" x="394.363636" y="577.312976" style="stroke: #000000; stroke-width: 0.8"/>
      </g>
     </g>
     <g id="text_43">
      <!-- 0 -->
      <g transform="translate(381.001136 581.112195)scale(0.1 -0.1)">
       <use xlink:href="#DejaVuSans-30"/>
      </g>
     </g>
    </g>
    <g id="ytick_21">
     <g id="line2d_47">
      <g>
       <use xlink:href="#mbafb6ef64e" x="394.363636" y="524.625952" style="stroke: #000000; stroke-width: 0.8"/>
      </g>
     </g>
     <g id="text_44">
      <!-- 2 -->
      <g transform="translate(381.001136 528.42517)scale(0.1 -0.1)">
       <use xlink:href="#DejaVuSans-32"/>
      </g>
     </g>
    </g>
    <g id="ytick_22">
     <g id="line2d_48">
      <g>
       <use xlink:href="#mbafb6ef64e" x="394.363636" y="471.938927" style="stroke: #000000; stroke-width: 0.8"/>
      </g>
     </g>
     <g id="text_45">
      <!-- 4 -->
      <g transform="translate(381.001136 475.738146)scale(0.1 -0.1)">
       <use xlink:href="#DejaVuSans-34"/>
      </g>
     </g>
    </g>
    <g id="ytick_23">
     <g id="line2d_49">
      <g>
       <use xlink:href="#mbafb6ef64e" x="394.363636" y="419.251903" style="stroke: #000000; stroke-width: 0.8"/>
      </g>
     </g>
     <g id="text_46">
      <!-- 6 -->
      <g transform="translate(381.001136 423.051122)scale(0.1 -0.1)">
       <use xlink:href="#DejaVuSans-36"/>
      </g>
     </g>
    </g>
   </g>
   <g id="line2d_50">
    <path d="M 405.892562 446.032358 
L 407.342741 442.332075 
L 408.792921 409.397999 
L 410.2431 382.909091 
L 411.693279 465.363047 
L 413.143459 536.794887 
L 414.593638 590.788479 
L 416.043817 634.959467 
L 417.493997 623.172153 
L 418.944176 593.938638 
L 420.394355 549.480815 
L 421.844535 500.787969 
L 423.294714 503.372498 
L 426.195073 600.243651 
L 427.645252 617.645476 
L 429.095431 594.826108 
L 430.54561 620.007657 
L 431.835592 721 
M 435.228638 721 
L 436.346328 673.979925 
L 437.796507 684.862074 
L 439.246686 704.786949 
L 442.147045 593.895069 
L 443.597224 582.409174 
L 445.047404 596.450635 
L 446.497583 636.320278 
L 447.6898 721 
M 451.095 721 
L 452.2983 597.156893 
L 453.74848 537.810769 
L 455.198659 584.220076 
L 456.648838 634.297581 
L 458.099018 592.159691 
L 459.549197 481.13059 
L 460.999376 435.014769 
L 462.449556 549.232568 
L 463.899735 645.728493 
L 465.349914 667.1826 
L 466.800094 633.236936 
L 468.250273 595.249743 
L 469.700452 589.936419 
L 471.150632 597.019748 
L 472.600811 599.034728 
L 474.05099 603.380788 
L 475.501169 614.724811 
L 476.951349 623.261627 
L 478.401528 604.448986 
L 479.851707 589.902827 
L 481.301887 608.42546 
L 482.752066 634.983524 
L 484.202245 638.887254 
L 485.652425 607.801152 
L 487.102604 532.684334 
L 488.552783 511.893283 
L 491.453142 645.45817 
L 492.903321 617.853552 
L 494.353501 572.777901 
L 495.80368 574.504688 
L 497.253859 582.961683 
L 498.704039 569.859686 
L 500.154218 587.088464 
L 501.604397 669.971869 
L 503.054577 705.742655 
L 504.504756 634.027969 
L 505.954935 545.711093 
L 507.405115 536.418877 
L 508.855294 608.534987 
L 511.755653 653.416198 
L 513.205832 689.48345 
L 514.656011 627.263389 
L 516.106191 585.026494 
L 517.55637 659.023774 
L 519.006549 671.404252 
L 520.456729 686.201013 
L 521.906908 702.315467 
L 523.357087 601.116355 
L 524.807266 537.476772 
L 526.257446 557.499794 
L 527.707625 586.697489 
L 529.157804 611.720526 
L 530.607984 608.108325 
L 532.058163 586.298342 
L 533.508342 603.629835 
L 534.958522 623.348016 
L 536.408701 634.459638 
L 537.85888 651.082996 
L 539.30906 665.004706 
L 540.759239 656.340537 
L 542.209418 656.811011 
L 543.659598 624.548243 
L 545.109777 585.395021 
L 546.559956 568.398158 
L 548.010136 579.705772 
L 550.910494 713.148709 
L 552.360674 698.440085 
L 553.810853 623.687369 
L 555.261032 559.326434 
L 556.711212 524.886503 
L 558.161391 513.234073 
L 559.61157 504.999538 
L 561.06175 509.705236 
L 562.511929 506.094286 
L 563.962108 506.228499 
L 565.412288 550.373594 
L 566.862467 626.135617 
L 568.312646 643.856893 
L 569.762826 640.04712 
L 571.213005 640.993638 
L 572.663184 634.428464 
L 574.113363 574.587658 
L 575.563543 509.138131 
L 577.013722 519.276759 
L 578.463901 559.137726 
L 579.914081 594.841366 
L 581.36426 670.645093 
L 582.489674 721 
M 583.174761 721 
L 584.264619 677.047966 
L 585.714798 596.436473 
L 587.164977 571.189518 
L 588.615157 566.241948 
L 590.065336 559.234598 
L 591.515515 556.103942 
L 592.965695 599.160081 
L 594.182769 721 
M 597.450111 721 
L 598.766412 577.023139 
L 600.216591 533.922036 
L 601.666771 586.508968 
L 603.11695 651.211601 
L 604.567129 645.834015 
L 606.017309 602.130304 
L 608.917667 550.723835 
L 610.367847 535.34363 
L 611.818026 588.450874 
L 613.268205 660.861472 
L 614.959375 721 
M 616.641513 721 
L 617.618743 668.447351 
L 619.068923 565.914007 
L 620.519102 507.13633 
L 621.969281 473.872376 
L 623.41946 466.417981 
L 626.319819 565.150187 
L 627.769998 580.282095 
L 629.220178 584.590836 
L 630.670357 570.097428 
L 632.120536 520.680892 
L 633.570716 492.030301 
L 635.020895 555.20974 
L 636.471074 633.354028 
L 636.471074 633.354028 
" clip-path="url(#p7edb1f5c4e)" style="fill: none; stroke: #1f77b4; stroke-width: 1.5; stroke-linecap: square"/>
   </g>
   <g id="patch_18">
    <path d="M 394.363636 630 
L 394.363636 382.909091 
" style="fill: none; stroke: #000000; stroke-width: 0.8; stroke-linejoin: miter; stroke-linecap: square"/>
   </g>
   <g id="patch_19">
    <path d="M 648 630 
L 648 382.909091 
" style="fill: none; stroke: #000000; stroke-width: 0.8; stroke-linejoin: miter; stroke-linecap: square"/>
   </g>
   <g id="patch_20">
    <path d="M 394.363636 630 
L 648 630 
" style="fill: none; stroke: #000000; stroke-width: 0.8; stroke-linejoin: miter; stroke-linecap: square"/>
   </g>
   <g id="patch_21">
    <path d="M 394.363636 382.909091 
L 648 382.909091 
" style="fill: none; stroke: #000000; stroke-width: 0.8; stroke-linejoin: miter; stroke-linecap: square"/>
   </g>
   <g id="text_47">
    <!-- explained variance -->
    <g transform="translate(464.181818 376.909091)scale(0.12 -0.12)">
     <defs>
      <path id="DejaVuSans-65" d="M 3597 1894 
L 3597 1613 
L 953 1613 
Q 991 1019 1311 708 
Q 1631 397 2203 397 
Q 2534 397 2845 478 
Q 3156 559 3463 722 
L 3463 178 
Q 3153 47 2828 -22 
Q 2503 -91 2169 -91 
Q 1331 -91 842 396 
Q 353 884 353 1716 
Q 353 2575 817 3079 
Q 1281 3584 2069 3584 
Q 2775 3584 3186 3129 
Q 3597 2675 3597 1894 
z
M 3022 2063 
Q 3016 2534 2758 2815 
Q 2500 3097 2075 3097 
Q 1594 3097 1305 2825 
Q 1016 2553 972 2059 
L 3022 2063 
z
" transform="scale(0.015625)"/>
      <path id="DejaVuSans-78" d="M 3513 3500 
L 2247 1797 
L 3578 0 
L 2900 0 
L 1881 1375 
L 863 0 
L 184 0 
L 1544 1831 
L 300 3500 
L 978 3500 
L 1906 2253 
L 2834 3500 
L 3513 3500 
z
" transform="scale(0.015625)"/>
      <path id="DejaVuSans-70" d="M 1159 525 
L 1159 -1331 
L 581 -1331 
L 581 3500 
L 1159 3500 
L 1159 2969 
Q 1341 3281 1617 3432 
Q 1894 3584 2278 3584 
Q 2916 3584 3314 3078 
Q 3713 2572 3713 1747 
Q 3713 922 3314 415 
Q 2916 -91 2278 -91 
Q 1894 -91 1617 61 
Q 1341 213 1159 525 
z
M 3116 1747 
Q 3116 2381 2855 2742 
Q 2594 3103 2138 3103 
Q 1681 3103 1420 2742 
Q 1159 2381 1159 1747 
Q 1159 1113 1420 752 
Q 1681 391 2138 391 
Q 2594 391 2855 752 
Q 3116 1113 3116 1747 
z
" transform="scale(0.015625)"/>
      <path id="DejaVuSans-6c" d="M 603 4863 
L 1178 4863 
L 1178 0 
L 603 0 
L 603 4863 
z
" transform="scale(0.015625)"/>
      <path id="DejaVuSans-61" d="M 2194 1759 
Q 1497 1759 1228 1600 
Q 959 1441 959 1056 
Q 959 750 1161 570 
Q 1363 391 1709 391 
Q 2188 391 2477 730 
Q 2766 1069 2766 1631 
L 2766 1759 
L 2194 1759 
z
M 3341 1997 
L 3341 0 
L 2766 0 
L 2766 531 
Q 2569 213 2275 61 
Q 1981 -91 1556 -91 
Q 1019 -91 701 211 
Q 384 513 384 1019 
Q 384 1609 779 1909 
Q 1175 2209 1959 2209 
L 2766 2209 
L 2766 2266 
Q 2766 2663 2505 2880 
Q 2244 3097 1772 3097 
Q 1472 3097 1187 3025 
Q 903 2953 641 2809 
L 641 3341 
Q 956 3463 1253 3523 
Q 1550 3584 1831 3584 
Q 2591 3584 2966 3190 
Q 3341 2797 3341 1997 
z
" transform="scale(0.015625)"/>
      <path id="DejaVuSans-64" d="M 2906 2969 
L 2906 4863 
L 3481 4863 
L 3481 0 
L 2906 0 
L 2906 525 
Q 2725 213 2448 61 
Q 2172 -91 1784 -91 
Q 1150 -91 751 415 
Q 353 922 353 1747 
Q 353 2572 751 3078 
Q 1150 3584 1784 3584 
Q 2172 3584 2448 3432 
Q 2725 3281 2906 2969 
z
M 947 1747 
Q 947 1113 1208 752 
Q 1469 391 1925 391 
Q 2381 391 2643 752 
Q 2906 1113 2906 1747 
Q 2906 2381 2643 2742 
Q 2381 3103 1925 3103 
Q 1469 3103 1208 2742 
Q 947 2381 947 1747 
z
" transform="scale(0.015625)"/>
      <path id="DejaVuSans-20" transform="scale(0.015625)"/>
      <path id="DejaVuSans-76" d="M 191 3500 
L 800 3500 
L 1894 563 
L 2988 3500 
L 3597 3500 
L 2284 0 
L 1503 0 
L 191 3500 
z
" transform="scale(0.015625)"/>
      <path id="DejaVuSans-72" d="M 2631 2963 
Q 2534 3019 2420 3045 
Q 2306 3072 2169 3072 
Q 1681 3072 1420 2755 
Q 1159 2438 1159 1844 
L 1159 0 
L 581 0 
L 581 3500 
L 1159 3500 
L 1159 2956 
Q 1341 3275 1631 3429 
Q 1922 3584 2338 3584 
Q 2397 3584 2469 3576 
Q 2541 3569 2628 3553 
L 2631 2963 
z
" transform="scale(0.015625)"/>
      <path id="DejaVuSans-63" d="M 3122 3366 
L 3122 2828 
Q 2878 2963 2633 3030 
Q 2388 3097 2138 3097 
Q 1578 3097 1268 2742 
Q 959 2388 959 1747 
Q 959 1106 1268 751 
Q 1578 397 2138 397 
Q 2388 397 2633 464 
Q 2878 531 3122 666 
L 3122 134 
Q 2881 22 2623 -34 
Q 2366 -91 2075 -91 
Q 1284 -91 818 406 
Q 353 903 353 1747 
Q 353 2603 823 3093 
Q 1294 3584 2113 3584 
Q 2378 3584 2631 3529 
Q 2884 3475 3122 3366 
z
" transform="scale(0.015625)"/>
     </defs>
     <use xlink:href="#DejaVuSans-65"/>
     <use xlink:href="#DejaVuSans-78" x="59.773438"/>
     <use xlink:href="#DejaVuSans-70" x="118.953125"/>
     <use xlink:href="#DejaVuSans-6c" x="182.429688"/>
     <use xlink:href="#DejaVuSans-61" x="210.212891"/>
     <use xlink:href="#DejaVuSans-69" x="271.492188"/>
     <use xlink:href="#DejaVuSans-6e" x="299.275391"/>
     <use xlink:href="#DejaVuSans-65" x="362.654297"/>
     <use xlink:href="#DejaVuSans-64" x="424.177734"/>
     <use xlink:href="#DejaVuSans-20" x="487.654297"/>
     <use xlink:href="#DejaVuSans-76" x="519.441406"/>
     <use xlink:href="#DejaVuSans-61" x="578.621094"/>
     <use xlink:href="#DejaVuSans-72" x="639.900391"/>
     <use xlink:href="#DejaVuSans-69" x="681.013672"/>
     <use xlink:href="#DejaVuSans-61" x="708.796875"/>
     <use xlink:href="#DejaVuSans-6e" x="770.076172"/>
     <use xlink:href="#DejaVuSans-63" x="833.455078"/>
     <use xlink:href="#DejaVuSans-65" x="888.435547"/>
    </g>
   </g>
  </g>
 </g>
 <defs>
  <clipPath id="p0dcd0124b5">
   <rect x="394.363636" y="86.4" width="253.636364" height="247.090909"/>
  </clipPath>
  <clipPath id="p7edb1f5c4e">
   <rect x="394.363636" y="382.909091" width="253.636364" height="247.090909"/>
  </clipPath>
 </defs>
</svg>
