<?xml version="1.0" encoding="utf-8" standalone="no"?>
<!DOCTYPE svg PUBLIC "-//W3C//DTD SVG 1.1//EN"
  "http://www.w3.org/Graphics/SVG/1.1/DTD/svg11.dtd">
<svg xmlns:xlink="http://www.w3.org/1999/xlink" width="720pt" height="720pt" viewBox="0 0 720 720" xmlns="http://www.w3.org/2000/svg" version="1.1">
 <metadata>
  <rdf:RDF xmlns:dc="http://purl.org/dc/elements/1.1/" xmlns:cc="http://creativecommons.org/ns#" xmlns:rdf="http://www.w3.org/1999/02/22-rdf-syntax-ns#">
   <cc:Work>
    <dc:type rdf:resource="http://purl.org/dc/dcmitype/StillImage"/>
    <dc:date>2023-12-19T18:19:27.121971</dc:date>
    <dc:format>image/svg+xml</dc:format>
    <dc:creator>
     <cc:Agent>
      <dc:title>Matplotlib v3.5.2, https://matplotlib.org/</dc:title>
     </cc:Agent>
    </dc:creator>
   </cc:Work>
  </rdf:RDF>
 </metadata>
 <defs>
  <style type="text/css">*{stroke-linejoin: round; stroke-linecap: butt}</style>
 </defs>
 <g id="figure_1">
  <g id="patch_1">
   <path d="M 0 720 
L 720 720 
L 720 0 
L 0 0 
z
" style="fill: #ffffff"/>
  </g>
  <g id="axes_1">
   <g id="patch_2">
    <path d="M 90 333.490909 
L 343.636364 333.490909 
L 343.636364 86.4 
L 90 86.4 
z
" style="fill: #ffffff"/>
   </g>
   <g id="matplotlib.axis_1">
    <g id="xtick_1">
     <g id="line2d_1">
      <defs>
       <path id="ma56f8d895d" d="M 0 0 
L 0 3.5 
" style="stroke: #000000; stroke-width: 0.8"/>
      </defs>
      <g>
       <use xlink:href="#ma56f8d895d" x="90" y="333.490909" style="stroke: #000000; stroke-width: 0.8"/>
      </g>
     </g>
     <g id="text_1">
      <!-- 0.0 -->
      <g transform="translate(82.048438 348.089347)scale(0.1 -0.1)">
       <defs>
        <path id="DejaVuSans-30" d="M 2034 4250 
Q 1547 4250 1301 3770 
Q 1056 3291 1056 2328 
Q 1056 1369 1301 889 
Q 1547 409 2034 409 
Q 2525 409 2770 889 
Q 3016 1369 3016 2328 
Q 3016 3291 2770 3770 
Q 2525 4250 2034 4250 
z
M 2034 4750 
Q 2819 4750 3233 4129 
Q 3647 3509 3647 2328 
Q 3647 1150 3233 529 
Q 2819 -91 2034 -91 
Q 1250 -91 836 529 
Q 422 1150 422 2328 
Q 422 3509 836 4129 
Q 1250 4750 2034 4750 
z
" transform="scale(0.015625)"/>
        <path id="DejaVuSans-2e" d="M 684 794 
L 1344 794 
L 1344 0 
L 684 0 
L 684 794 
z
" transform="scale(0.015625)"/>
       </defs>
       <use xlink:href="#DejaVuSans-30"/>
       <use xlink:href="#DejaVuSans-2e" x="63.623047"/>
       <use xlink:href="#DejaVuSans-30" x="95.410156"/>
      </g>
     </g>
    </g>
    <g id="xtick_2">
     <g id="line2d_2">
      <g>
       <use xlink:href="#ma56f8d895d" x="140.727273" y="333.490909" style="stroke: #000000; stroke-width: 0.8"/>
      </g>
     </g>
     <g id="text_2">
      <!-- 0.2 -->
      <g transform="translate(132.77571 348.089347)scale(0.1 -0.1)">
       <defs>
        <path id="DejaVuSans-32" d="M 1228 531 
L 3431 531 
L 3431 0 
L 469 0 
L 469 531 
Q 828 903 1448 1529 
Q 2069 2156 2228 2338 
Q 2531 2678 2651 2914 
Q 2772 3150 2772 3378 
Q 2772 3750 2511 3984 
Q 2250 4219 1831 4219 
Q 1534 4219 1204 4116 
Q 875 4013 500 3803 
L 500 4441 
Q 881 4594 1212 4672 
Q 1544 4750 1819 4750 
Q 2544 4750 2975 4387 
Q 3406 4025 3406 3419 
Q 3406 3131 3298 2873 
Q 3191 2616 2906 2266 
Q 2828 2175 2409 1742 
Q 1991 1309 1228 531 
z
" transform="scale(0.015625)"/>
       </defs>
       <use xlink:href="#DejaVuSans-30"/>
       <use xlink:href="#DejaVuSans-2e" x="63.623047"/>
       <use xlink:href="#DejaVuSans-32" x="95.410156"/>
      </g>
     </g>
    </g>
    <g id="xtick_3">
     <g id="line2d_3">
      <g>
       <use xlink:href="#ma56f8d895d" x="191.454545" y="333.490909" style="stroke: #000000; stroke-width: 0.8"/>
      </g>
     </g>
     <g id="text_3">
      <!-- 0.4 -->
      <g transform="translate(183.502983 348.089347)scale(0.1 -0.1)">
       <defs>
        <path id="DejaVuSans-34" d="M 2419 4116 
L 825 1625 
L 2419 1625 
L 2419 4116 
z
M 2253 4666 
L 3047 4666 
L 3047 1625 
L 3713 1625 
L 3713 1100 
L 3047 1100 
L 3047 0 
L 2419 0 
L 2419 1100 
L 313 1100 
L 313 1709 
L 2253 4666 
z
" transform="scale(0.015625)"/>
       </defs>
       <use xlink:href="#DejaVuSans-30"/>
       <use xlink:href="#DejaVuSans-2e" x="63.623047"/>
       <use xlink:href="#DejaVuSans-34" x="95.410156"/>
      </g>
     </g>
    </g>
    <g id="xtick_4">
     <g id="line2d_4">
      <g>
       <use xlink:href="#ma56f8d895d" x="242.181818" y="333.490909" style="stroke: #000000; stroke-width: 0.8"/>
      </g>
     </g>
     <g id="text_4">
      <!-- 0.6 -->
      <g transform="translate(234.230256 348.089347)scale(0.1 -0.1)">
       <defs>
        <path id="DejaVuSans-36" d="M 2113 2584 
Q 1688 2584 1439 2293 
Q 1191 2003 1191 1497 
Q 1191 994 1439 701 
Q 1688 409 2113 409 
Q 2538 409 2786 701 
Q 3034 994 3034 1497 
Q 3034 2003 2786 2293 
Q 2538 2584 2113 2584 
z
M 3366 4563 
L 3366 3988 
Q 3128 4100 2886 4159 
Q 2644 4219 2406 4219 
Q 1781 4219 1451 3797 
Q 1122 3375 1075 2522 
Q 1259 2794 1537 2939 
Q 1816 3084 2150 3084 
Q 2853 3084 3261 2657 
Q 3669 2231 3669 1497 
Q 3669 778 3244 343 
Q 2819 -91 2113 -91 
Q 1303 -91 875 529 
Q 447 1150 447 2328 
Q 447 3434 972 4092 
Q 1497 4750 2381 4750 
Q 2619 4750 2861 4703 
Q 3103 4656 3366 4563 
z
" transform="scale(0.015625)"/>
       </defs>
       <use xlink:href="#DejaVuSans-30"/>
       <use xlink:href="#DejaVuSans-2e" x="63.623047"/>
       <use xlink:href="#DejaVuSans-36" x="95.410156"/>
      </g>
     </g>
    </g>
    <g id="xtick_5">
     <g id="line2d_5">
      <g>
       <use xlink:href="#ma56f8d895d" x="292.909091" y="333.490909" style="stroke: #000000; stroke-width: 0.8"/>
      </g>
     </g>
     <g id="text_5">
      <!-- 0.8 -->
      <g transform="translate(284.957528 348.089347)scale(0.1 -0.1)">
       <defs>
        <path id="DejaVuSans-38" d="M 2034 2216 
Q 1584 2216 1326 1975 
Q 1069 1734 1069 1313 
Q 1069 891 1326 650 
Q 1584 409 2034 409 
Q 2484 409 2743 651 
Q 3003 894 3003 1313 
Q 3003 1734 2745 1975 
Q 2488 2216 2034 2216 
z
M 1403 2484 
Q 997 2584 770 2862 
Q 544 3141 544 3541 
Q 544 4100 942 4425 
Q 1341 4750 2034 4750 
Q 2731 4750 3128 4425 
Q 3525 4100 3525 3541 
Q 3525 3141 3298 2862 
Q 3072 2584 2669 2484 
Q 3125 2378 3379 2068 
Q 3634 1759 3634 1313 
Q 3634 634 3220 271 
Q 2806 -91 2034 -91 
Q 1263 -91 848 271 
Q 434 634 434 1313 
Q 434 1759 690 2068 
Q 947 2378 1403 2484 
z
M 1172 3481 
Q 1172 3119 1398 2916 
Q 1625 2713 2034 2713 
Q 2441 2713 2670 2916 
Q 2900 3119 2900 3481 
Q 2900 3844 2670 4047 
Q 2441 4250 2034 4250 
Q 1625 4250 1398 4047 
Q 1172 3844 1172 3481 
z
" transform="scale(0.015625)"/>
       </defs>
       <use xlink:href="#DejaVuSans-30"/>
       <use xlink:href="#DejaVuSans-2e" x="63.623047"/>
       <use xlink:href="#DejaVuSans-38" x="95.410156"/>
      </g>
     </g>
    </g>
    <g id="xtick_6">
     <g id="line2d_6">
      <g>
       <use xlink:href="#ma56f8d895d" x="343.636364" y="333.490909" style="stroke: #000000; stroke-width: 0.8"/>
      </g>
     </g>
     <g id="text_6">
      <!-- 1.0 -->
      <g transform="translate(335.684801 348.089347)scale(0.1 -0.1)">
       <defs>
        <path id="DejaVuSans-31" d="M 794 531 
L 1825 531 
L 1825 4091 
L 703 3866 
L 703 4441 
L 1819 4666 
L 2450 4666 
L 2450 531 
L 3481 531 
L 3481 0 
L 794 0 
L 794 531 
z
" transform="scale(0.015625)"/>
       </defs>
       <use xlink:href="#DejaVuSans-31"/>
       <use xlink:href="#DejaVuSans-2e" x="63.623047"/>
       <use xlink:href="#DejaVuSans-30" x="95.410156"/>
      </g>
     </g>
    </g>
   </g>
   <g id="matplotlib.axis_2">
    <g id="ytick_1">
     <g id="line2d_7">
      <defs>
       <path id="maaf1f082bc" d="M 0 0 
L -3.5 0 
" style="stroke: #000000; stroke-width: 0.8"/>
      </defs>
      <g>
       <use xlink:href="#maaf1f082bc" x="90" y="333.490909" style="stroke: #000000; stroke-width: 0.8"/>
      </g>
     </g>
     <g id="text_7">
      <!-- 0.0 -->
      <g transform="translate(67.096875 337.290128)scale(0.1 -0.1)">
       <use xlink:href="#DejaVuSans-30"/>
       <use xlink:href="#DejaVuSans-2e" x="63.623047"/>
       <use xlink:href="#DejaVuSans-30" x="95.410156"/>
      </g>
     </g>
    </g>
    <g id="ytick_2">
     <g id="line2d_8">
      <g>
       <use xlink:href="#maaf1f082bc" x="90" y="284.072727" style="stroke: #000000; stroke-width: 0.8"/>
      </g>
     </g>
     <g id="text_8">
      <!-- 0.2 -->
      <g transform="translate(67.096875 287.871946)scale(0.1 -0.1)">
       <use xlink:href="#DejaVuSans-30"/>
       <use xlink:href="#DejaVuSans-2e" x="63.623047"/>
       <use xlink:href="#DejaVuSans-32" x="95.410156"/>
      </g>
     </g>
    </g>
    <g id="ytick_3">
     <g id="line2d_9">
      <g>
       <use xlink:href="#maaf1f082bc" x="90" y="234.654545" style="stroke: #000000; stroke-width: 0.8"/>
      </g>
     </g>
     <g id="text_9">
      <!-- 0.4 -->
      <g transform="translate(67.096875 238.453764)scale(0.1 -0.1)">
       <use xlink:href="#DejaVuSans-30"/>
       <use xlink:href="#DejaVuSans-2e" x="63.623047"/>
       <use xlink:href="#DejaVuSans-34" x="95.410156"/>
      </g>
     </g>
    </g>
    <g id="ytick_4">
     <g id="line2d_10">
      <g>
       <use xlink:href="#maaf1f082bc" x="90" y="185.236364" style="stroke: #000000; stroke-width: 0.8"/>
      </g>
     </g>
     <g id="text_10">
      <!-- 0.6 -->
      <g transform="translate(67.096875 189.035582)scale(0.1 -0.1)">
       <use xlink:href="#DejaVuSans-30"/>
       <use xlink:href="#DejaVuSans-2e" x="63.623047"/>
       <use xlink:href="#DejaVuSans-36" x="95.410156"/>
      </g>
     </g>
    </g>
    <g id="ytick_5">
     <g id="line2d_11">
      <g>
       <use xlink:href="#maaf1f082bc" x="90" y="135.818182" style="stroke: #000000; stroke-width: 0.8"/>
      </g>
     </g>
     <g id="text_11">
      <!-- 0.8 -->
      <g transform="translate(67.096875 139.617401)scale(0.1 -0.1)">
       <use xlink:href="#DejaVuSans-30"/>
       <use xlink:href="#DejaVuSans-2e" x="63.623047"/>
       <use xlink:href="#DejaVuSans-38" x="95.410156"/>
      </g>
     </g>
    </g>
    <g id="ytick_6">
     <g id="line2d_12">
      <g>
       <use xlink:href="#maaf1f082bc" x="90" y="86.4" style="stroke: #000000; stroke-width: 0.8"/>
      </g>
     </g>
     <g id="text_12">
      <!-- 1.0 -->
      <g transform="translate(67.096875 90.199219)scale(0.1 -0.1)">
       <use xlink:href="#DejaVuSans-31"/>
       <use xlink:href="#DejaVuSans-2e" x="63.623047"/>
       <use xlink:href="#DejaVuSans-30" x="95.410156"/>
      </g>
     </g>
    </g>
   </g>
   <g id="patch_3">
    <path d="M 90 333.490909 
L 90 86.4 
" style="fill: none; stroke: #000000; stroke-width: 0.8; stroke-linejoin: miter; stroke-linecap: square"/>
   </g>
   <g id="patch_4">
    <path d="M 343.636364 333.490909 
L 343.636364 86.4 
" style="fill: none; stroke: #000000; stroke-width: 0.8; stroke-linejoin: miter; stroke-linecap: square"/>
   </g>
   <g id="patch_5">
    <path d="M 90 333.490909 
L 343.636364 333.490909 
" style="fill: none; stroke: #000000; stroke-width: 0.8; stroke-linejoin: miter; stroke-linecap: square"/>
   </g>
   <g id="patch_6">
    <path d="M 90 86.4 
L 343.636364 86.4 
" style="fill: none; stroke: #000000; stroke-width: 0.8; stroke-linejoin: miter; stroke-linecap: square"/>
   </g>
  </g>
  <g id="axes_2">
   <g id="patch_7">
    <path d="M 394.363636 333.490909 
L 648 333.490909 
L 648 86.4 
L 394.363636 86.4 
z
" style="fill: #ffffff"/>
   </g>
   <g id="PolyCollection_1">
    <defs>
     <path id="mec491dcdee" d="M 405.892562 -622.368595 
L 405.892562 -612.64428 
L 407.342741 -608.825378 
L 408.792921 -602.919052 
L 410.2431 -596.15841 
L 411.693279 -590.102218 
L 413.143459 -585.104662 
L 414.593638 -581.925213 
L 416.043817 -578.825694 
L 417.493997 -576.996372 
L 418.944176 -574.929098 
L 420.394355 -571.400336 
L 421.844535 -566.97429 
L 423.294714 -563.348839 
L 424.744893 -559.576796 
L 426.195073 -556.522265 
L 427.645252 -553.40666 
L 429.095431 -549.505899 
L 430.54561 -546.367721 
L 431.99579 -542.666331 
L 433.445969 -539.440439 
L 434.896148 -536.655297 
L 436.346328 -534.596143 
L 437.796507 -534.141844 
L 439.246686 -533.775442 
L 440.696866 -533.424471 
L 442.147045 -530.696131 
L 443.597224 -526.348281 
L 445.047404 -525.367293 
L 446.497583 -521.65038 
L 447.947762 -519.053455 
L 449.397942 -517.656216 
L 450.848121 -517.073922 
L 452.2983 -516.885412 
L 453.74848 -516.837907 
L 455.198659 -516.828549 
L 456.648838 -516.827148 
L 458.099018 -516.827148 
L 459.549197 -516.827148 
L 460.999376 -516.827148 
L 462.449556 -516.827148 
L 463.899735 -516.827148 
L 465.349914 -516.827148 
L 466.800094 -516.827148 
L 468.250273 -516.827148 
L 469.700452 -516.827148 
L 471.150632 -516.827148 
L 472.600811 -516.827148 
L 474.05099 -516.827148 
L 475.501169 -516.827148 
L 476.951349 -516.827148 
L 478.401528 -516.827148 
L 479.851707 -516.827148 
L 481.301887 -516.827148 
L 482.752066 -516.827148 
L 484.202245 -516.827148 
L 485.652425 -516.827148 
L 487.102604 -516.827148 
L 488.552783 -516.827148 
L 490.002963 -516.827148 
L 491.453142 -516.827148 
L 492.903321 -516.827148 
L 494.353501 -516.827148 
L 495.80368 -516.827148 
L 497.253859 -516.827148 
L 498.704039 -516.827148 
L 500.154218 -516.827148 
L 501.604397 -516.827148 
L 503.054577 -516.827148 
L 504.504756 -516.827148 
L 505.954935 -516.827148 
L 507.405115 -516.827148 
L 508.855294 -516.827148 
L 510.305473 -516.827148 
L 511.755653 -516.827148 
L 513.205832 -516.827148 
L 514.656011 -516.827148 
L 516.106191 -516.827148 
L 517.55637 -516.827148 
L 519.006549 -516.827148 
L 520.456729 -516.827148 
L 521.906908 -516.827148 
L 523.357087 -516.827148 
L 524.807266 -516.827148 
L 526.257446 -516.827148 
L 527.707625 -516.827148 
L 529.157804 -516.827148 
L 530.607984 -516.827148 
L 532.058163 -516.827148 
L 533.508342 -516.825495 
L 534.958522 -516.814633 
L 536.408701 -516.759286 
L 537.85888 -516.5396 
L 539.30906 -515.859126 
L 540.759239 -514.213428 
L 542.209418 -511.097802 
L 543.659598 -506.456619 
L 545.109777 -498.664159 
L 546.559956 -493.559072 
L 548.010136 -489.191436 
L 549.460315 -486.07173 
L 550.910494 -484.800525 
L 552.360674 -486.217583 
L 553.810853 -490.876426 
L 555.261032 -500.807114 
L 556.711212 -507.242416 
L 558.161391 -511.219905 
L 559.61157 -511.707455 
L 561.06175 -508.591058 
L 562.511929 -502.477418 
L 563.962108 -491.264524 
L 565.412288 -483.430851 
L 566.862467 -477.404177 
L 568.312646 -473.690783 
L 569.762826 -472.411911 
L 571.213005 -471.72686 
L 572.663184 -470.945764 
L 574.113363 -469.880163 
L 575.563543 -467.570729 
L 577.013722 -464.816035 
L 578.463901 -462.037672 
L 579.914081 -459.976622 
L 581.36426 -461.10057 
L 582.814439 -465.751586 
L 584.264619 -474.088722 
L 585.714798 -487.515671 
L 587.164977 -491.679161 
L 588.615157 -486.631879 
L 590.065336 -472.061307 
L 591.515515 -446.169821 
L 592.965695 -428.052527 
L 594.415874 -412.923622 
L 595.866053 -403.399852 
L 597.316233 -398.423553 
L 598.766412 -397.740496 
L 600.216591 -400.347101 
L 601.666771 -404.167895 
L 603.11695 -408.882103 
L 604.567129 -414.784596 
L 606.017309 -421.002948 
L 607.467488 -427.594581 
L 608.917667 -434.404267 
L 610.367847 -441.3037 
L 611.818026 -448.045853 
L 613.268205 -455.797447 
L 614.718385 -465.810049 
L 616.168564 -477.127624 
L 617.618743 -495.723468 
L 619.068923 -501.50995 
L 620.519102 -502.744847 
L 621.969281 -492.620496 
L 623.41946 -489.029293 
L 624.86964 -487.016999 
L 626.319819 -485.709088 
L 627.769998 -484.247909 
L 629.220178 -482.684863 
L 630.670357 -481.093036 
L 632.120536 -479.897789 
L 633.570716 -480.087356 
L 635.020895 -481.331267 
L 636.471074 -482.161698 
L 636.471074 -489.983655 
L 636.471074 -489.983655 
L 635.020895 -489.503768 
L 633.570716 -489.286922 
L 632.120536 -489.418543 
L 630.670357 -490.403248 
L 629.220178 -492.728902 
L 627.769998 -495.540331 
L 626.319819 -498.215006 
L 624.86964 -501.438677 
L 623.41946 -505.373564 
L 621.969281 -508.541738 
L 620.519102 -502.744847 
L 619.068923 -501.50995 
L 617.618743 -495.723468 
L 616.168564 -495.35436 
L 614.718385 -484.847489 
L 613.268205 -474.449342 
L 611.818026 -465.123193 
L 610.367847 -457.748899 
L 608.917667 -452.025047 
L 607.467488 -446.253946 
L 606.017309 -439.536933 
L 604.567129 -431.861693 
L 603.11695 -424.229082 
L 601.666771 -417.186755 
L 600.216591 -412.509478 
L 598.766412 -411.103831 
L 597.316233 -411.929088 
L 595.866053 -415.419694 
L 594.415874 -423.671948 
L 592.965695 -437.647706 
L 591.515515 -458.126495 
L 590.065336 -472.061307 
L 588.615157 -486.631879 
L 587.164977 -491.679161 
L 585.714798 -487.515671 
L 584.264619 -482.883767 
L 582.814439 -474.118987 
L 581.36426 -469.173524 
L 579.914081 -468.791033 
L 578.463901 -470.401478 
L 577.013722 -473.258776 
L 575.563543 -475.959195 
L 574.113363 -477.770914 
L 572.663184 -479.146929 
L 571.213005 -479.627423 
L 569.762826 -480.314582 
L 568.312646 -482.32461 
L 566.862467 -485.58811 
L 565.412288 -491.066107 
L 563.962108 -498.225617 
L 562.511929 -502.477418 
L 561.06175 -508.591058 
L 559.61157 -511.707455 
L 558.161391 -511.219905 
L 556.711212 -507.242416 
L 555.261032 -500.807114 
L 553.810853 -497.069625 
L 552.360674 -491.831498 
L 550.910494 -489.544321 
L 549.460315 -490.277381 
L 548.010136 -493.177976 
L 546.559956 -497.62894 
L 545.109777 -503.227981 
L 543.659598 -506.456619 
L 542.209418 -511.097802 
L 540.759239 -514.213428 
L 539.30906 -515.859126 
L 537.85888 -516.5396 
L 536.408701 -516.759286 
L 534.958522 -516.814633 
L 533.508342 -516.825495 
L 532.058163 -516.827148 
L 530.607984 -516.827148 
L 529.157804 -516.827148 
L 527.707625 -516.827148 
L 526.257446 -516.827148 
L 524.807266 -516.827148 
L 523.357087 -516.827148 
L 521.906908 -516.827148 
L 520.456729 -516.827148 
L 519.006549 -516.827148 
L 517.55637 -516.827148 
L 516.106191 -516.827148 
L 514.656011 -516.827148 
L 513.205832 -516.827148 
L 511.755653 -516.827148 
L 510.305473 -516.827148 
L 508.855294 -516.827148 
L 507.405115 -516.827148 
L 505.954935 -516.827148 
L 504.504756 -516.827148 
L 503.054577 -516.827148 
L 501.604397 -516.827148 
L 500.154218 -516.827148 
L 498.704039 -516.827148 
L 497.253859 -516.827148 
L 495.80368 -516.827148 
L 494.353501 -516.827148 
L 492.903321 -516.827148 
L 491.453142 -516.827148 
L 490.002963 -516.827148 
L 488.552783 -516.827148 
L 487.102604 -516.827148 
L 485.652425 -516.827148 
L 484.202245 -516.827148 
L 482.752066 -516.827148 
L 481.301887 -516.827148 
L 479.851707 -516.827148 
L 478.401528 -516.827148 
L 476.951349 -516.827148 
L 475.501169 -516.827148 
L 474.05099 -516.827148 
L 472.600811 -516.827148 
L 471.150632 -516.827148 
L 469.700452 -516.827148 
L 468.250273 -516.827148 
L 466.800094 -516.827148 
L 465.349914 -516.827148 
L 463.899735 -516.827148 
L 462.449556 -516.827148 
L 460.999376 -516.827148 
L 459.549197 -516.827148 
L 458.099018 -516.827148 
L 456.648838 -516.827148 
L 455.198659 -516.828549 
L 453.74848 -516.837907 
L 452.2983 -516.885412 
L 450.848121 -517.073922 
L 449.397942 -517.656216 
L 447.947762 -519.053455 
L 446.497583 -521.65038 
L 445.047404 -525.367293 
L 443.597224 -532.488948 
L 442.147045 -534.719642 
L 440.696866 -535.805942 
L 439.246686 -536.999012 
L 437.796507 -537.514082 
L 436.346328 -538.928913 
L 434.896148 -540.815532 
L 433.445969 -544.378416 
L 431.99579 -549.338342 
L 430.54561 -554.324568 
L 429.095431 -558.973389 
L 427.645252 -561.457148 
L 426.195073 -564.036292 
L 424.744893 -567.173781 
L 423.294714 -570.690856 
L 421.844535 -575.074758 
L 420.394355 -578.46853 
L 418.944176 -581.78143 
L 417.493997 -585.259409 
L 416.043817 -587.971148 
L 414.593638 -589.446573 
L 413.143459 -592.515689 
L 411.693279 -596.921125 
L 410.2431 -603.660006 
L 408.792921 -611.422533 
L 407.342741 -618.479662 
L 405.892562 -622.368595 
z
" style="stroke: #9467bd; stroke-opacity: 0.2"/>
    </defs>
    <g clip-path="url(#p151765b588)">
     <use xlink:href="#mec491dcdee" x="0" y="720" style="fill: #9467bd; fill-opacity: 0.2; stroke: #9467bd; stroke-opacity: 0.2"/>
    </g>
   </g>
   <g id="PolyCollection_2">
    <defs>
     <path id="m49a2a6656a" d="M 405.892562 -516.827148 
L 405.892562 -516.827148 
L 407.342741 -516.827148 
L 408.792921 -516.827148 
L 410.2431 -516.827148 
L 411.693279 -516.827148 
L 413.143459 -516.827148 
L 414.593638 -516.827148 
L 416.043817 -516.827148 
L 417.493997 -516.827148 
L 418.944176 -516.827148 
L 420.394355 -516.827148 
L 421.844535 -516.827148 
L 423.294714 -516.827148 
L 424.744893 -516.827148 
L 426.195073 -516.827148 
L 427.645252 -516.827148 
L 429.095431 -516.827148 
L 430.54561 -516.827148 
L 431.99579 -516.827148 
L 433.445969 -516.827148 
L 434.896148 -516.827148 
L 436.346328 -516.827148 
L 437.796507 -516.827148 
L 439.246686 -516.827148 
L 440.696866 -516.827148 
L 442.147045 -516.827148 
L 443.597224 -516.827148 
L 445.047404 -516.827148 
L 446.497583 -516.827148 
L 447.947762 -516.827148 
L 449.397942 -516.827148 
L 450.848121 -516.827148 
L 452.2983 -516.827148 
L 453.74848 -516.827148 
L 455.198659 -516.827148 
L 456.648838 -516.827148 
L 458.099018 -516.827148 
L 459.549197 -516.827148 
L 460.999376 -516.827148 
L 462.449556 -516.827148 
L 463.899735 -516.827148 
L 465.349914 -516.827148 
L 466.800094 -516.827148 
L 468.250273 -516.827148 
L 469.700452 -516.827148 
L 471.150632 -516.827148 
L 472.600811 -516.827148 
L 474.05099 -516.827148 
L 475.501169 -516.827148 
L 476.951349 -516.827148 
L 478.401528 -516.827148 
L 479.851707 -516.827148 
L 481.301887 -516.827148 
L 482.752066 -516.827388 
L 484.202245 -516.828713 
L 485.652425 -516.83509 
L 487.102604 -516.858445 
L 488.552783 -516.923039 
L 490.002963 -517.054618 
L 491.453142 -517.241891 
L 492.903321 -517.396952 
L 494.353501 -515.578417 
L 495.80368 -517.121623 
L 497.253859 -515.639948 
L 498.704039 -514.820683 
L 500.154218 -515.325495 
L 501.604397 -514.846766 
L 503.054577 -515.478876 
L 504.504756 -516.159322 
L 505.954935 -515.728658 
L 507.405115 -515.992928 
L 508.855294 -516.05877 
L 510.305473 -515.980694 
L 511.755653 -516.087589 
L 513.205832 -515.054007 
L 514.656011 -515.903245 
L 516.106191 -516.000522 
L 517.55637 -515.980184 
L 519.006549 -518.54612 
L 520.456729 -521.368401 
L 521.906908 -524.150006 
L 523.357087 -524.328714 
L 524.807266 -524.600539 
L 526.257446 -524.451759 
L 527.707625 -522.645341 
L 529.157804 -519.392101 
L 530.607984 -517.879859 
L 532.058163 -516.128494 
L 533.508342 -516.777975 
L 534.958522 -515.86448 
L 536.408701 -515.372214 
L 537.85888 -517.346294 
L 539.30906 -517.237231 
L 540.759239 -517.065015 
L 542.209418 -516.931489 
L 543.659598 -516.862212 
L 545.109777 -516.836253 
L 546.559956 -516.828971 
L 548.010136 -516.827444 
L 549.460315 -516.827148 
L 550.910494 -516.827148 
L 552.360674 -516.827148 
L 553.810853 -516.827148 
L 555.261032 -516.827148 
L 556.711212 -516.827148 
L 558.161391 -516.827148 
L 559.61157 -516.827148 
L 561.06175 -516.827148 
L 562.511929 -516.827148 
L 563.962108 -516.827148 
L 565.412288 -516.827148 
L 566.862467 -516.827148 
L 568.312646 -516.827148 
L 569.762826 -516.827148 
L 571.213005 -516.827148 
L 572.663184 -516.827148 
L 574.113363 -516.827148 
L 575.563543 -516.827148 
L 577.013722 -516.827148 
L 578.463901 -516.827148 
L 579.914081 -516.827148 
L 581.36426 -516.827148 
L 582.814439 -516.827148 
L 584.264619 -516.827148 
L 585.714798 -516.827148 
L 587.164977 -516.827148 
L 588.615157 -516.827148 
L 590.065336 -516.827148 
L 591.515515 -516.827148 
L 592.965695 -516.827148 
L 594.415874 -516.827148 
L 595.866053 -516.827148 
L 597.316233 -516.827148 
L 598.766412 -516.827148 
L 600.216591 -516.827148 
L 601.666771 -516.827148 
L 603.11695 -516.827148 
L 604.567129 -516.827148 
L 606.017309 -516.827148 
L 607.467488 -516.827148 
L 608.917667 -516.827148 
L 610.367847 -516.827148 
L 611.818026 -516.827148 
L 613.268205 -516.827148 
L 614.718385 -516.827148 
L 616.168564 -516.827148 
L 617.618743 -516.827148 
L 619.068923 -516.827148 
L 620.519102 -516.827148 
L 621.969281 -516.827148 
L 623.41946 -516.827148 
L 624.86964 -516.827148 
L 626.319819 -516.827148 
L 627.769998 -516.827148 
L 629.220178 -516.827148 
L 630.670357 -516.827148 
L 632.120536 -516.827148 
L 633.570716 -516.827148 
L 635.020895 -516.827148 
L 636.471074 -516.827148 
L 636.471074 -516.827148 
L 636.471074 -516.827148 
L 635.020895 -516.827148 
L 633.570716 -516.827148 
L 632.120536 -516.827148 
L 630.670357 -516.827148 
L 629.220178 -516.827148 
L 627.769998 -516.827148 
L 626.319819 -516.827148 
L 624.86964 -516.827148 
L 623.41946 -516.827148 
L 621.969281 -516.827148 
L 620.519102 -516.827148 
L 619.068923 -516.827148 
L 617.618743 -516.827148 
L 616.168564 -516.827148 
L 614.718385 -516.827148 
L 613.268205 -516.827148 
L 611.818026 -516.827148 
L 610.367847 -516.827148 
L 608.917667 -516.827148 
L 607.467488 -516.827148 
L 606.017309 -516.827148 
L 604.567129 -516.827148 
L 603.11695 -516.827148 
L 601.666771 -516.827148 
L 600.216591 -516.827148 
L 598.766412 -516.827148 
L 597.316233 -516.827148 
L 595.866053 -516.827148 
L 594.415874 -516.827148 
L 592.965695 -516.827148 
L 591.515515 -516.827148 
L 590.065336 -516.827148 
L 588.615157 -516.827148 
L 587.164977 -516.827148 
L 585.714798 -516.827148 
L 584.264619 -516.827148 
L 582.814439 -516.827148 
L 581.36426 -516.827148 
L 579.914081 -516.827148 
L 578.463901 -516.827148 
L 577.013722 -516.827148 
L 575.563543 -516.827148 
L 574.113363 -516.827148 
L 572.663184 -516.827148 
L 571.213005 -516.827148 
L 569.762826 -516.827148 
L 568.312646 -516.827148 
L 566.862467 -516.827148 
L 565.412288 -516.827148 
L 563.962108 -516.827148 
L 562.511929 -516.827148 
L 561.06175 -516.827148 
L 559.61157 -516.827148 
L 558.161391 -516.827148 
L 556.711212 -516.827148 
L 555.261032 -516.827148 
L 553.810853 -516.827148 
L 552.360674 -516.827148 
L 550.910494 -516.827148 
L 549.460315 -516.827148 
L 548.010136 -516.827444 
L 546.559956 -516.828971 
L 545.109777 -516.836253 
L 543.659598 -516.862212 
L 542.209418 -516.931489 
L 540.759239 -517.065015 
L 539.30906 -517.237231 
L 537.85888 -517.346294 
L 536.408701 -519.172754 
L 534.958522 -518.16554 
L 533.508342 -516.777975 
L 532.058163 -517.726264 
L 530.607984 -517.879859 
L 529.157804 -520.469533 
L 527.707625 -523.217613 
L 526.257446 -527.528248 
L 524.807266 -530.846643 
L 523.357087 -530.04352 
L 521.906908 -525.149574 
L 520.456729 -521.368401 
L 519.006549 -518.650989 
L 517.55637 -517.805268 
L 516.106191 -516.255469 
L 514.656011 -515.940346 
L 513.205832 -516.869802 
L 511.755653 -516.087589 
L 510.305473 -516.466569 
L 508.855294 -516.582786 
L 507.405115 -516.702374 
L 505.954935 -516.857375 
L 504.504756 -516.166411 
L 503.054577 -516.514253 
L 501.604397 -516.925396 
L 500.154218 -516.565495 
L 498.704039 -517.641177 
L 497.253859 -517.718017 
L 495.80368 -517.121623 
L 494.353501 -519.187413 
L 492.903321 -517.396952 
L 491.453142 -517.241891 
L 490.002963 -517.054618 
L 488.552783 -516.923039 
L 487.102604 -516.858445 
L 485.652425 -516.83509 
L 484.202245 -516.828713 
L 482.752066 -516.827388 
L 481.301887 -516.827148 
L 479.851707 -516.827148 
L 478.401528 -516.827148 
L 476.951349 -516.827148 
L 475.501169 -516.827148 
L 474.05099 -516.827148 
L 472.600811 -516.827148 
L 471.150632 -516.827148 
L 469.700452 -516.827148 
L 468.250273 -516.827148 
L 466.800094 -516.827148 
L 465.349914 -516.827148 
L 463.899735 -516.827148 
L 462.449556 -516.827148 
L 460.999376 -516.827148 
L 459.549197 -516.827148 
L 458.099018 -516.827148 
L 456.648838 -516.827148 
L 455.198659 -516.827148 
L 453.74848 -516.827148 
L 452.2983 -516.827148 
L 450.848121 -516.827148 
L 449.397942 -516.827148 
L 447.947762 -516.827148 
L 446.497583 -516.827148 
L 445.047404 -516.827148 
L 443.597224 -516.827148 
L 442.147045 -516.827148 
L 440.696866 -516.827148 
L 439.246686 -516.827148 
L 437.796507 -516.827148 
L 436.346328 -516.827148 
L 434.896148 -516.827148 
L 433.445969 -516.827148 
L 431.99579 -516.827148 
L 430.54561 -516.827148 
L 429.095431 -516.827148 
L 427.645252 -516.827148 
L 426.195073 -516.827148 
L 424.744893 -516.827148 
L 423.294714 -516.827148 
L 421.844535 -516.827148 
L 420.394355 -516.827148 
L 418.944176 -516.827148 
L 417.493997 -516.827148 
L 416.043817 -516.827148 
L 414.593638 -516.827148 
L 413.143459 -516.827148 
L 411.693279 -516.827148 
L 410.2431 -516.827148 
L 408.792921 -516.827148 
L 407.342741 -516.827148 
L 405.892562 -516.827148 
z
" style="stroke: #1f77b4; stroke-opacity: 0.2"/>
    </defs>
    <g clip-path="url(#p151765b588)">
     <use xlink:href="#m49a2a6656a" x="0" y="720" style="fill: #1f77b4; fill-opacity: 0.2; stroke: #1f77b4; stroke-opacity: 0.2"/>
    </g>
   </g>
   <g id="PolyCollection_3">
    <defs>
     <path id="ma302163684" d="M 405.892562 -516.827148 
L 405.892562 -516.827148 
L 407.342741 -516.827148 
L 408.792921 -516.827148 
L 410.2431 -516.827148 
L 411.693279 -516.827148 
L 413.143459 -516.827148 
L 414.593638 -516.827148 
L 416.043817 -516.827148 
L 417.493997 -516.827148 
L 418.944176 -516.827148 
L 420.394355 -516.827148 
L 421.844535 -516.827148 
L 423.294714 -516.827148 
L 424.744893 -516.827148 
L 426.195073 -516.827148 
L 427.645252 -516.827148 
L 429.095431 -516.827148 
L 430.54561 -516.827148 
L 431.99579 -516.827148 
L 433.445969 -516.827148 
L 434.896148 -516.826268 
L 436.346328 -516.821132 
L 437.796507 -516.796194 
L 439.246686 -516.702679 
L 440.696866 -516.435677 
L 442.147045 -515.862828 
L 443.597224 -514.96394 
L 445.047404 -513.994585 
L 446.497583 -511.373602 
L 447.947762 -511.44388 
L 449.397942 -514.000976 
L 450.848121 -514.418494 
L 452.2983 -514.428953 
L 453.74848 -511.497037 
L 455.198659 -511.560675 
L 456.648838 -512.2815 
L 458.099018 -513.1418 
L 459.549197 -515.837739 
L 460.999376 -516.343505 
L 462.449556 -516.558008 
L 463.899735 -516.471516 
L 465.349914 -516.072476 
L 466.800094 -515.391366 
L 468.250273 -514.586209 
L 469.700452 -511.881336 
L 471.150632 -513.3255 
L 472.600811 -512.890508 
L 474.05099 -511.174983 
L 475.501169 -510.933302 
L 476.951349 -511.609378 
L 478.401528 -512.952847 
L 479.851707 -513.93717 
L 481.301887 -516.52566 
L 482.752066 -516.823046 
L 484.202245 -516.882334 
L 485.652425 -516.863341 
L 487.102604 -516.841412 
L 488.552783 -516.831192 
L 490.002963 -516.828013 
L 491.453142 -516.827289 
L 492.903321 -516.827148 
L 494.353501 -516.827148 
L 495.80368 -516.827148 
L 497.253859 -516.827148 
L 498.704039 -516.827148 
L 500.154218 -516.827148 
L 501.604397 -516.827148 
L 503.054577 -516.827148 
L 504.504756 -516.827148 
L 505.954935 -516.827148 
L 507.405115 -516.827148 
L 508.855294 -516.827148 
L 510.305473 -516.827148 
L 511.755653 -516.827148 
L 513.205832 -516.827148 
L 514.656011 -516.827148 
L 516.106191 -516.827148 
L 517.55637 -516.827148 
L 519.006549 -516.827148 
L 520.456729 -516.827148 
L 521.906908 -516.827148 
L 523.357087 -516.827148 
L 524.807266 -516.827148 
L 526.257446 -516.82877 
L 527.707625 -516.839037 
L 529.157804 -516.890478 
L 530.607984 -517.090255 
L 532.058163 -517.690859 
L 533.508342 -519.077864 
L 534.958522 -521.511149 
L 536.408701 -524.67075 
L 537.85888 -525.720656 
L 539.30906 -526.925561 
L 540.759239 -526.102022 
L 542.209418 -524.079199 
L 543.659598 -521.119286 
L 545.109777 -520.24182 
L 546.559956 -518.527375 
L 548.010136 -517.545039 
L 549.460315 -517.079807 
L 550.910494 -516.899795 
L 552.360674 -516.843925 
L 553.810853 -516.830155 
L 555.261032 -516.827562 
L 556.711212 -516.827148 
L 558.161391 -516.827148 
L 559.61157 -516.827148 
L 561.06175 -516.827148 
L 562.511929 -516.827148 
L 563.962108 -516.827148 
L 565.412288 -516.827148 
L 566.862467 -516.827148 
L 568.312646 -516.827148 
L 569.762826 -516.827148 
L 571.213005 -516.827148 
L 572.663184 -516.827148 
L 574.113363 -516.827148 
L 575.563543 -516.827148 
L 577.013722 -516.827148 
L 578.463901 -516.827148 
L 579.914081 -516.827148 
L 581.36426 -516.827148 
L 582.814439 -516.827148 
L 584.264619 -516.827148 
L 585.714798 -516.827148 
L 587.164977 -516.827148 
L 588.615157 -516.827148 
L 590.065336 -516.827148 
L 591.515515 -516.827148 
L 592.965695 -516.827148 
L 594.415874 -516.827148 
L 595.866053 -516.827148 
L 597.316233 -516.827148 
L 598.766412 -516.827148 
L 600.216591 -516.827148 
L 601.666771 -516.827148 
L 603.11695 -516.827148 
L 604.567129 -516.827148 
L 606.017309 -516.825061 
L 607.467488 -516.811371 
L 608.917667 -516.742123 
L 610.367847 -516.470432 
L 611.818026 -515.642432 
L 613.268205 -513.700149 
L 614.718385 -510.23904 
L 616.168564 -505.697926 
L 617.618743 -495.800283 
L 619.068923 -494.039668 
L 620.519102 -495.652294 
L 621.969281 -506.213502 
L 623.41946 -510.674533 
L 624.86964 -513.959594 
L 626.319819 -515.757245 
L 627.769998 -516.509018 
L 629.220178 -516.752081 
L 630.670357 -516.813393 
L 632.120536 -516.825371 
L 633.570716 -516.827148 
L 635.020895 -516.827148 
L 636.471074 -516.827148 
L 636.471074 -516.827148 
L 636.471074 -516.827148 
L 635.020895 -516.827148 
L 633.570716 -516.827148 
L 632.120536 -516.825371 
L 630.670357 -516.813393 
L 629.220178 -516.752081 
L 627.769998 -516.509018 
L 626.319819 -515.757245 
L 624.86964 -513.959594 
L 623.41946 -510.674533 
L 621.969281 -506.213502 
L 620.519102 -508.456137 
L 619.068923 -506.361327 
L 617.618743 -507.580837 
L 616.168564 -505.697926 
L 614.718385 -510.23904 
L 613.268205 -513.700149 
L 611.818026 -515.642432 
L 610.367847 -516.470432 
L 608.917667 -516.742123 
L 607.467488 -516.811371 
L 606.017309 -516.825061 
L 604.567129 -516.827148 
L 603.11695 -516.827148 
L 601.666771 -516.827148 
L 600.216591 -516.827148 
L 598.766412 -516.827148 
L 597.316233 -516.827148 
L 595.866053 -516.827148 
L 594.415874 -516.827148 
L 592.965695 -516.827148 
L 591.515515 -516.827148 
L 590.065336 -516.827148 
L 588.615157 -516.827148 
L 587.164977 -516.827148 
L 585.714798 -516.827148 
L 584.264619 -516.827148 
L 582.814439 -516.827148 
L 581.36426 -516.827148 
L 579.914081 -516.827148 
L 578.463901 -516.827148 
L 577.013722 -516.827148 
L 575.563543 -516.827148 
L 574.113363 -516.827148 
L 572.663184 -516.827148 
L 571.213005 -516.827148 
L 569.762826 -516.827148 
L 568.312646 -516.827148 
L 566.862467 -516.827148 
L 565.412288 -516.827148 
L 563.962108 -516.827148 
L 562.511929 -516.827148 
L 561.06175 -516.827148 
L 559.61157 -516.827148 
L 558.161391 -516.827148 
L 556.711212 -516.827148 
L 555.261032 -516.827562 
L 553.810853 -516.830155 
L 552.360674 -516.843925 
L 550.910494 -516.899795 
L 549.460315 -517.079807 
L 548.010136 -517.545039 
L 546.559956 -518.527375 
L 545.109777 -520.24182 
L 543.659598 -524.309048 
L 542.209418 -527.055892 
L 540.759239 -529.763029 
L 539.30906 -530.580501 
L 537.85888 -529.271635 
L 536.408701 -524.67075 
L 534.958522 -521.511149 
L 533.508342 -519.077864 
L 532.058163 -517.690859 
L 530.607984 -517.090255 
L 529.157804 -516.890478 
L 527.707625 -516.839037 
L 526.257446 -516.82877 
L 524.807266 -516.827148 
L 523.357087 -516.827148 
L 521.906908 -516.827148 
L 520.456729 -516.827148 
L 519.006549 -516.827148 
L 517.55637 -516.827148 
L 516.106191 -516.827148 
L 514.656011 -516.827148 
L 513.205832 -516.827148 
L 511.755653 -516.827148 
L 510.305473 -516.827148 
L 508.855294 -516.827148 
L 507.405115 -516.827148 
L 505.954935 -516.827148 
L 504.504756 -516.827148 
L 503.054577 -516.827148 
L 501.604397 -516.827148 
L 500.154218 -516.827148 
L 498.704039 -516.827148 
L 497.253859 -516.827148 
L 495.80368 -516.827148 
L 494.353501 -516.827148 
L 492.903321 -516.827148 
L 491.453142 -516.827289 
L 490.002963 -516.828013 
L 488.552783 -516.831192 
L 487.102604 -516.841412 
L 485.652425 -516.863341 
L 484.202245 -516.882334 
L 482.752066 -516.823046 
L 481.301887 -516.52566 
L 479.851707 -517.711326 
L 478.401528 -516.517344 
L 476.951349 -515.545641 
L 475.501169 -514.673377 
L 474.05099 -514.082083 
L 472.600811 -512.890508 
L 471.150632 -513.3255 
L 469.700452 -515.86198 
L 468.250273 -514.586209 
L 466.800094 -515.391366 
L 465.349914 -516.072476 
L 463.899735 -516.471516 
L 462.449556 -516.558008 
L 460.999376 -516.343505 
L 459.549197 -515.837739 
L 458.099018 -517.116299 
L 456.648838 -516.635751 
L 455.198659 -516.672182 
L 453.74848 -516.885794 
L 452.2983 -514.428953 
L 450.848121 -514.418494 
L 449.397942 -514.000976 
L 447.947762 -515.536825 
L 446.497583 -515.452531 
L 445.047404 -513.994585 
L 443.597224 -514.96394 
L 442.147045 -515.862828 
L 440.696866 -516.435677 
L 439.246686 -516.702679 
L 437.796507 -516.796194 
L 436.346328 -516.821132 
L 434.896148 -516.826268 
L 433.445969 -516.827148 
L 431.99579 -516.827148 
L 430.54561 -516.827148 
L 429.095431 -516.827148 
L 427.645252 -516.827148 
L 426.195073 -516.827148 
L 424.744893 -516.827148 
L 423.294714 -516.827148 
L 421.844535 -516.827148 
L 420.394355 -516.827148 
L 418.944176 -516.827148 
L 417.493997 -516.827148 
L 416.043817 -516.827148 
L 414.593638 -516.827148 
L 413.143459 -516.827148 
L 411.693279 -516.827148 
L 410.2431 -516.827148 
L 408.792921 -516.827148 
L 407.342741 -516.827148 
L 405.892562 -516.827148 
z
" style="stroke: #d62728; stroke-opacity: 0.2"/>
    </defs>
    <g clip-path="url(#p151765b588)">
     <use xlink:href="#ma302163684" x="0" y="720" style="fill: #d62728; fill-opacity: 0.2; stroke: #d62728; stroke-opacity: 0.2"/>
    </g>
   </g>
   <g id="PolyCollection_4">
    <defs>
     <path id="m98cb855e33" d="M 405.892562 -516.827148 
L 405.892562 -516.827148 
L 407.342741 -516.827148 
L 408.792921 -516.827148 
L 410.2431 -516.827148 
L 411.693279 -516.827148 
L 413.143459 -516.827148 
L 414.593638 -516.827148 
L 416.043817 -516.827148 
L 417.493997 -516.827148 
L 418.944176 -516.827148 
L 420.394355 -516.827148 
L 421.844535 -516.827148 
L 423.294714 -516.827148 
L 424.744893 -516.827148 
L 426.195073 -516.827148 
L 427.645252 -516.827148 
L 429.095431 -516.827148 
L 430.54561 -516.827148 
L 431.99579 -516.827148 
L 433.445969 -516.826253 
L 434.896148 -516.821314 
L 436.346328 -516.797519 
L 437.796507 -516.709513 
L 439.246686 -516.462415 
L 440.696866 -515.94008 
L 442.147045 -515.117502 
L 443.597224 -514.155588 
L 445.047404 -511.281804 
L 446.497583 -512.529291 
L 447.947762 -511.746374 
L 449.397942 -507.571229 
L 450.848121 -507.447477 
L 452.2983 -507.328613 
L 453.74848 -512.382211 
L 455.198659 -513.344228 
L 456.648838 -513.398185 
L 458.099018 -512.418043 
L 459.549197 -507.671574 
L 460.999376 -506.892114 
L 462.449556 -505.848605 
L 463.899735 -504.879638 
L 465.349914 -504.588175 
L 466.800094 -504.244886 
L 468.250273 -504.723537 
L 469.700452 -507.276676 
L 471.150632 -506.445808 
L 472.600811 -507.767728 
L 474.05099 -512.019001 
L 475.501169 -514.118587 
L 476.951349 -515.819796 
L 478.401528 -516.978164 
L 479.851707 -517.593077 
L 481.301887 -514.221883 
L 482.752066 -512.908123 
L 484.202245 -511.66396 
L 485.652425 -510.634921 
L 487.102604 -508.625174 
L 488.552783 -506.975794 
L 490.002963 -506.083239 
L 491.453142 -506.471919 
L 492.903321 -506.447743 
L 494.353501 -509.047189 
L 495.80368 -509.505538 
L 497.253859 -512.383249 
L 498.704039 -514.16654 
L 500.154218 -515.517823 
L 501.604397 -516.308267 
L 503.054577 -516.663797 
L 504.504756 -516.786622 
L 505.954935 -516.819369 
L 507.405115 -516.825955 
L 508.855294 -516.827148 
L 510.305473 -516.827148 
L 511.755653 -516.827148 
L 513.205832 -516.827148 
L 514.656011 -516.827148 
L 516.106191 -516.827148 
L 517.55637 -516.827148 
L 519.006549 -516.827148 
L 520.456729 -516.827148 
L 521.906908 -516.82653 
L 523.357087 -516.82312 
L 524.807266 -516.806692 
L 526.257446 -516.746242 
L 527.707625 -516.57794 
L 529.157804 -516.229329 
L 530.607984 -515.710275 
L 532.058163 -515.202107 
L 533.508342 -513.532427 
L 534.958522 -515.202107 
L 536.408701 -515.710275 
L 537.85888 -516.229329 
L 539.30906 -516.57794 
L 540.759239 -516.746242 
L 542.209418 -516.806692 
L 543.659598 -516.824566 
L 545.109777 -516.836983 
L 546.559956 -516.882526 
L 548.010136 -517.056972 
L 549.460315 -517.581119 
L 550.910494 -518.798587 
L 552.360674 -520.98355 
L 553.810853 -524.022829 
L 555.261032 -523.53345 
L 556.711212 -527.180715 
L 558.161391 -529.536347 
L 559.61157 -530.175046 
L 561.06175 -528.96458 
L 562.511929 -525.431211 
L 563.962108 -525.63246 
L 565.412288 -521.919476 
L 566.862467 -519.220536 
L 568.312646 -517.730694 
L 569.762826 -517.098978 
L 571.213005 -516.891902 
L 572.663184 -516.839204 
L 574.113363 -516.83174 
L 575.563543 -516.850385 
L 577.013722 -516.954829 
L 578.463901 -517.374807 
L 579.914081 -518.692955 
L 581.36426 -521.932657 
L 582.814439 -528.144188 
L 584.264619 -537.339879 
L 585.714798 -540.965386 
L 587.164977 -546.687324 
L 588.615157 -546.790143 
L 590.065336 -540.987054 
L 591.515515 -540.778717 
L 592.965695 -530.695538 
L 594.415874 -523.331179 
L 595.866053 -519.276925 
L 597.316233 -517.563007 
L 598.766412 -517.002082 
L 600.216591 -516.859641 
L 601.666771 -516.831473 
L 603.11695 -516.827148 
L 604.567129 -516.827148 
L 606.017309 -516.827148 
L 607.467488 -516.827148 
L 608.917667 -516.827148 
L 610.367847 -516.827148 
L 611.818026 -516.827148 
L 613.268205 -516.827148 
L 614.718385 -516.827148 
L 616.168564 -516.827148 
L 617.618743 -516.827148 
L 619.068923 -516.827148 
L 620.519102 -516.827148 
L 621.969281 -516.827148 
L 623.41946 -516.827148 
L 624.86964 -516.827148 
L 626.319819 -516.827148 
L 627.769998 -516.827148 
L 629.220178 -516.827148 
L 630.670357 -516.827148 
L 632.120536 -516.827148 
L 633.570716 -516.827148 
L 635.020895 -516.827148 
L 636.471074 -516.827148 
L 636.471074 -516.827148 
L 636.471074 -516.827148 
L 635.020895 -516.827148 
L 633.570716 -516.827148 
L 632.120536 -516.827148 
L 630.670357 -516.827148 
L 629.220178 -516.827148 
L 627.769998 -516.827148 
L 626.319819 -516.827148 
L 624.86964 -516.827148 
L 623.41946 -516.827148 
L 621.969281 -516.827148 
L 620.519102 -516.827148 
L 619.068923 -516.827148 
L 617.618743 -516.827148 
L 616.168564 -516.827148 
L 614.718385 -516.827148 
L 613.268205 -516.827148 
L 611.818026 -516.827148 
L 610.367847 -516.827148 
L 608.917667 -516.827148 
L 607.467488 -516.827148 
L 606.017309 -516.827148 
L 604.567129 -516.827148 
L 603.11695 -516.827148 
L 601.666771 -516.831473 
L 600.216591 -516.859641 
L 598.766412 -517.002082 
L 597.316233 -517.563007 
L 595.866053 -519.276925 
L 594.415874 -523.331179 
L 592.965695 -530.695538 
L 591.515515 -540.778717 
L 590.065336 -560.305179 
L 588.615157 -565.644158 
L 587.164977 -563.162296 
L 585.714798 -554.040006 
L 584.264619 -537.339879 
L 582.814439 -528.144188 
L 581.36426 -521.932657 
L 579.914081 -518.692955 
L 578.463901 -517.374807 
L 577.013722 -516.954829 
L 575.563543 -516.850385 
L 574.113363 -516.83174 
L 572.663184 -516.839204 
L 571.213005 -516.891902 
L 569.762826 -517.098978 
L 568.312646 -517.730694 
L 566.862467 -519.220536 
L 565.412288 -521.919476 
L 563.962108 -525.63246 
L 562.511929 -533.394151 
L 561.06175 -535.164648 
L 559.61157 -535.729196 
L 558.161391 -534.867311 
L 556.711212 -533.249618 
L 555.261032 -531.133312 
L 553.810853 -524.022829 
L 552.360674 -520.98355 
L 550.910494 -518.798587 
L 549.460315 -517.581119 
L 548.010136 -517.056972 
L 546.559956 -516.882526 
L 545.109777 -516.836983 
L 543.659598 -516.824566 
L 542.209418 -516.806692 
L 540.759239 -516.746242 
L 539.30906 -516.57794 
L 537.85888 -516.229329 
L 536.408701 -515.710275 
L 534.958522 -515.202107 
L 533.508342 -516.439043 
L 532.058163 -515.202107 
L 530.607984 -515.710275 
L 529.157804 -516.229329 
L 527.707625 -516.57794 
L 526.257446 -516.746242 
L 524.807266 -516.806692 
L 523.357087 -516.82312 
L 521.906908 -516.82653 
L 520.456729 -516.827148 
L 519.006549 -516.827148 
L 517.55637 -516.827148 
L 516.106191 -516.827148 
L 514.656011 -516.827148 
L 513.205832 -516.827148 
L 511.755653 -516.827148 
L 510.305473 -516.827148 
L 508.855294 -516.827148 
L 507.405115 -516.825955 
L 505.954935 -516.819369 
L 504.504756 -516.786622 
L 503.054577 -516.663797 
L 501.604397 -516.308267 
L 500.154218 -515.517823 
L 498.704039 -514.16654 
L 497.253859 -512.383249 
L 495.80368 -511.5881 
L 494.353501 -509.047189 
L 492.903321 -509.731312 
L 491.453142 -509.00113 
L 490.002963 -509.978865 
L 488.552783 -511.051457 
L 487.102604 -512.683724 
L 485.652425 -514.893248 
L 484.202245 -518.21146 
L 482.752066 -520.40109 
L 481.301887 -520.873711 
L 479.851707 -517.593077 
L 478.401528 -516.978164 
L 476.951349 -515.819796 
L 475.501169 -514.118587 
L 474.05099 -512.019001 
L 472.600811 -512.130014 
L 471.150632 -510.229153 
L 469.700452 -507.276676 
L 468.250273 -508.520733 
L 466.800094 -508.399802 
L 465.349914 -508.31396 
L 463.899735 -509.159148 
L 462.449556 -510.077523 
L 460.999376 -511.62372 
L 459.549197 -514.023481 
L 458.099018 -512.418043 
L 456.648838 -513.398185 
L 455.198659 -513.344228 
L 453.74848 -512.382211 
L 452.2983 -515.139925 
L 450.848121 -513.935066 
L 449.397942 -514.405014 
L 447.947762 -511.746374 
L 446.497583 -512.529291 
L 445.047404 -515.282568 
L 443.597224 -514.155588 
L 442.147045 -515.117502 
L 440.696866 -515.94008 
L 439.246686 -516.462415 
L 437.796507 -516.709513 
L 436.346328 -516.797519 
L 434.896148 -516.821314 
L 433.445969 -516.826253 
L 431.99579 -516.827148 
L 430.54561 -516.827148 
L 429.095431 -516.827148 
L 427.645252 -516.827148 
L 426.195073 -516.827148 
L 424.744893 -516.827148 
L 423.294714 -516.827148 
L 421.844535 -516.827148 
L 420.394355 -516.827148 
L 418.944176 -516.827148 
L 417.493997 -516.827148 
L 416.043817 -516.827148 
L 414.593638 -516.827148 
L 413.143459 -516.827148 
L 411.693279 -516.827148 
L 410.2431 -516.827148 
L 408.792921 -516.827148 
L 407.342741 -516.827148 
L 405.892562 -516.827148 
z
" style="stroke: #ff7f0e; stroke-opacity: 0.2"/>
    </defs>
    <g clip-path="url(#p151765b588)">
     <use xlink:href="#m98cb855e33" x="0" y="720" style="fill: #ff7f0e; fill-opacity: 0.2; stroke: #ff7f0e; stroke-opacity: 0.2"/>
    </g>
   </g>
   <g id="matplotlib.axis_3">
    <g id="xtick_7">
     <g id="line2d_13">
      <g>
       <use xlink:href="#ma56f8d895d" x="405.863558" y="333.490909" style="stroke: #000000; stroke-width: 0.8"/>
      </g>
     </g>
     <g id="text_13">
      <!-- 0 -->
      <g transform="translate(402.682308 348.089347)scale(0.1 -0.1)">
       <use xlink:href="#DejaVuSans-30"/>
      </g>
     </g>
    </g>
    <g id="xtick_8">
     <g id="line2d_14">
      <g>
       <use xlink:href="#ma56f8d895d" x="463.870731" y="333.490909" style="stroke: #000000; stroke-width: 0.8"/>
      </g>
     </g>
     <g id="text_14">
      <!-- 2000 -->
      <g transform="translate(451.145731 348.089347)scale(0.1 -0.1)">
       <use xlink:href="#DejaVuSans-32"/>
       <use xlink:href="#DejaVuSans-30" x="63.623047"/>
       <use xlink:href="#DejaVuSans-30" x="127.246094"/>
       <use xlink:href="#DejaVuSans-30" x="190.869141"/>
      </g>
     </g>
    </g>
    <g id="xtick_9">
     <g id="line2d_15">
      <g>
       <use xlink:href="#ma56f8d895d" x="521.877904" y="333.490909" style="stroke: #000000; stroke-width: 0.8"/>
      </g>
     </g>
     <g id="text_15">
      <!-- 4000 -->
      <g transform="translate(509.152904 348.089347)scale(0.1 -0.1)">
       <use xlink:href="#DejaVuSans-34"/>
       <use xlink:href="#DejaVuSans-30" x="63.623047"/>
       <use xlink:href="#DejaVuSans-30" x="127.246094"/>
       <use xlink:href="#DejaVuSans-30" x="190.869141"/>
      </g>
     </g>
    </g>
    <g id="xtick_10">
     <g id="line2d_16">
      <g>
       <use xlink:href="#ma56f8d895d" x="579.885077" y="333.490909" style="stroke: #000000; stroke-width: 0.8"/>
      </g>
     </g>
     <g id="text_16">
      <!-- 6000 -->
      <g transform="translate(567.160077 348.089347)scale(0.1 -0.1)">
       <use xlink:href="#DejaVuSans-36"/>
       <use xlink:href="#DejaVuSans-30" x="63.623047"/>
       <use xlink:href="#DejaVuSans-30" x="127.246094"/>
       <use xlink:href="#DejaVuSans-30" x="190.869141"/>
      </g>
     </g>
    </g>
    <g id="xtick_11">
     <g id="line2d_17">
      <g>
       <use xlink:href="#ma56f8d895d" x="637.89225" y="333.490909" style="stroke: #000000; stroke-width: 0.8"/>
      </g>
     </g>
     <g id="text_17">
      <!-- 8000 -->
      <g transform="translate(625.16725 348.089347)scale(0.1 -0.1)">
       <use xlink:href="#DejaVuSans-38"/>
       <use xlink:href="#DejaVuSans-30" x="63.623047"/>
       <use xlink:href="#DejaVuSans-30" x="127.246094"/>
       <use xlink:href="#DejaVuSans-30" x="190.869141"/>
      </g>
     </g>
    </g>
   </g>
   <g id="matplotlib.axis_4">
    <g id="ytick_7">
     <g id="line2d_18">
      <g>
       <use xlink:href="#maaf1f082bc" x="394.363636" y="330.940585" style="stroke: #000000; stroke-width: 0.8"/>
      </g>
     </g>
     <g id="text_18">
      <!-- −6 -->
      <g transform="translate(372.621449 334.739804)scale(0.1 -0.1)">
       <defs>
        <path id="DejaVuSans-2212" d="M 678 2272 
L 4684 2272 
L 4684 1741 
L 678 1741 
L 678 2272 
z
" transform="scale(0.015625)"/>
       </defs>
       <use xlink:href="#DejaVuSans-2212"/>
       <use xlink:href="#DejaVuSans-36" x="83.789062"/>
      </g>
     </g>
    </g>
    <g id="ytick_8">
     <g id="line2d_19">
      <g>
       <use xlink:href="#maaf1f082bc" x="394.363636" y="288.351341" style="stroke: #000000; stroke-width: 0.8"/>
      </g>
     </g>
     <g id="text_19">
      <!-- −4 -->
      <g transform="translate(372.621449 292.150559)scale(0.1 -0.1)">
       <use xlink:href="#DejaVuSans-2212"/>
       <use xlink:href="#DejaVuSans-34" x="83.789062"/>
      </g>
     </g>
    </g>
    <g id="ytick_9">
     <g id="line2d_20">
      <g>
       <use xlink:href="#maaf1f082bc" x="394.363636" y="245.762096" style="stroke: #000000; stroke-width: 0.8"/>
      </g>
     </g>
     <g id="text_20">
      <!-- −2 -->
      <g transform="translate(372.621449 249.561315)scale(0.1 -0.1)">
       <use xlink:href="#DejaVuSans-2212"/>
       <use xlink:href="#DejaVuSans-32" x="83.789062"/>
      </g>
     </g>
    </g>
    <g id="ytick_10">
     <g id="line2d_21">
      <g>
       <use xlink:href="#maaf1f082bc" x="394.363636" y="203.172852" style="stroke: #000000; stroke-width: 0.8"/>
      </g>
     </g>
     <g id="text_21">
      <!-- 0 -->
      <g transform="translate(381.001136 206.972071)scale(0.1 -0.1)">
       <use xlink:href="#DejaVuSans-30"/>
      </g>
     </g>
    </g>
    <g id="ytick_11">
     <g id="line2d_22">
      <g>
       <use xlink:href="#maaf1f082bc" x="394.363636" y="160.583608" style="stroke: #000000; stroke-width: 0.8"/>
      </g>
     </g>
     <g id="text_22">
      <!-- 2 -->
      <g transform="translate(381.001136 164.382827)scale(0.1 -0.1)">
       <use xlink:href="#DejaVuSans-32"/>
      </g>
     </g>
    </g>
    <g id="ytick_12">
     <g id="line2d_23">
      <g>
       <use xlink:href="#maaf1f082bc" x="394.363636" y="117.994364" style="stroke: #000000; stroke-width: 0.8"/>
      </g>
     </g>
     <g id="text_23">
      <!-- 4 -->
      <g transform="translate(381.001136 121.793582)scale(0.1 -0.1)">
       <use xlink:href="#DejaVuSans-34"/>
      </g>
     </g>
    </g>
   </g>
   <g id="line2d_24">
    <path d="M 405.892562 102.493563 
L 407.342741 106.34748 
L 408.792921 112.829207 
L 410.2431 120.090792 
L 411.693279 126.488329 
L 413.143459 131.189824 
L 414.593638 134.314107 
L 417.493997 138.872109 
L 418.944176 141.644736 
L 420.394355 145.065567 
L 424.744893 156.624712 
L 429.095431 165.760356 
L 430.54561 169.653856 
L 433.445969 178.090573 
L 434.896148 181.264585 
L 436.346328 183.237472 
L 437.796507 184.172037 
L 439.246686 184.612773 
L 440.696866 185.384794 
L 442.147045 187.292114 
L 443.597224 190.581386 
L 445.047404 194.632707 
L 446.497583 198.34962 
L 447.947762 200.946545 
L 449.397942 202.343784 
L 450.848121 202.926078 
L 452.2983 203.114588 
L 456.648838 203.172852 
L 536.408701 203.240714 
L 537.85888 203.4604 
L 539.30906 204.140874 
L 540.759239 205.786572 
L 542.209418 208.902198 
L 543.659598 213.543381 
L 546.559956 224.405994 
L 548.010136 228.815294 
L 549.460315 231.825445 
L 550.910494 232.827577 
L 552.360674 230.975459 
L 553.810853 226.026974 
L 556.711212 212.757584 
L 558.161391 208.780095 
L 559.61157 208.292545 
L 561.06175 211.408942 
L 562.511929 217.522582 
L 565.412288 232.751521 
L 566.862467 238.503856 
L 568.312646 241.992304 
L 569.762826 243.636754 
L 572.663184 244.953653 
L 574.113363 246.174461 
L 575.563543 248.235038 
L 578.463901 253.780425 
L 579.914081 255.616172 
L 581.36426 254.862953 
L 582.814439 250.064714 
L 585.714798 232.484329 
L 587.164977 228.320839 
L 588.615157 233.368121 
L 590.065336 247.938693 
L 592.965695 287.149884 
L 594.415874 301.702215 
L 595.866053 310.590227 
L 597.316233 314.823679 
L 598.766412 315.577837 
L 600.216591 313.57171 
L 601.666771 309.322675 
L 603.11695 303.444407 
L 608.917667 276.785343 
L 610.367847 270.4737 
L 611.818026 263.415477 
L 613.268205 254.876605 
L 617.618743 224.276532 
L 619.068923 218.49005 
L 620.519102 217.255153 
L 621.969281 219.418883 
L 623.41946 222.798572 
L 624.86964 225.772162 
L 627.769998 230.10588 
L 629.220178 232.293117 
L 630.670357 234.251858 
L 632.120536 235.341834 
L 633.570716 235.312861 
L 636.471074 233.927323 
L 636.471074 233.927323 
" clip-path="url(#p151765b588)" style="fill: none; stroke: #9467bd; stroke-width: 2; stroke-linecap: square"/>
   </g>
   <g id="line2d_25">
    <path d="M 405.892562 203.172852 
L 488.552783 203.076961 
L 494.353501 202.617085 
L 495.80368 202.878377 
L 498.704039 203.76907 
L 500.154218 204.054505 
L 501.604397 204.113919 
L 507.405115 203.652349 
L 510.305473 203.776369 
L 514.656011 204.078205 
L 516.106191 203.872004 
L 517.55637 203.107274 
L 519.006549 201.401446 
L 520.456729 198.631599 
L 521.906908 195.35021 
L 523.357087 192.813883 
L 524.807266 192.276409 
L 526.257446 194.009996 
L 529.157804 200.069183 
L 530.607984 202.120141 
L 532.058163 203.072621 
L 533.508342 203.222025 
L 536.408701 202.727516 
L 537.85888 202.653706 
L 545.109777 203.163747 
L 568.312646 203.172852 
L 636.471074 203.172852 
L 636.471074 203.172852 
" clip-path="url(#p151765b588)" style="fill: none; stroke: #1f77b4; stroke-width: 2; stroke-linecap: square"/>
   </g>
   <g id="line2d_26">
    <path d="M 405.892562 203.172852 
L 437.796507 203.203806 
L 439.246686 203.297321 
L 440.696866 203.564323 
L 442.147045 204.137172 
L 445.047404 206.005415 
L 446.497583 206.586933 
L 447.947762 206.509648 
L 450.848121 205.581506 
L 452.2983 205.571047 
L 453.74848 205.808584 
L 455.198659 205.883572 
L 456.648838 205.541375 
L 459.549197 204.162261 
L 460.999376 203.656495 
L 462.449556 203.441992 
L 463.899735 203.528484 
L 465.349914 203.927524 
L 466.800094 204.608634 
L 469.700452 206.128342 
L 472.600811 207.109492 
L 474.05099 207.371467 
L 475.501169 207.19666 
L 476.951349 206.422491 
L 479.851707 204.175752 
L 481.301887 203.47434 
L 482.752066 203.176954 
L 485.652425 203.136659 
L 494.353501 203.172852 
L 529.157804 203.109522 
L 530.607984 202.909745 
L 532.058163 202.309141 
L 533.508342 200.922136 
L 534.958522 198.488851 
L 536.408701 195.32925 
L 537.85888 192.503854 
L 539.30906 191.246969 
L 540.759239 192.067474 
L 542.209418 194.432454 
L 543.659598 197.285833 
L 545.109777 199.75818 
L 546.559956 201.472625 
L 548.010136 202.454961 
L 549.460315 202.920193 
L 550.910494 203.100205 
L 555.261032 203.172438 
L 608.917667 203.257877 
L 610.367847 203.529568 
L 611.818026 204.357568 
L 613.268205 206.299851 
L 614.718385 209.76096 
L 616.168564 214.302074 
L 617.618743 218.30944 
L 619.068923 219.799502 
L 620.519102 217.945784 
L 623.41946 209.325467 
L 624.86964 206.040406 
L 626.319819 204.242755 
L 627.769998 203.490982 
L 629.220178 203.247919 
L 633.570716 203.172852 
L 636.471074 203.172852 
L 636.471074 203.172852 
" clip-path="url(#p151765b588)" style="fill: none; stroke: #d62728; stroke-width: 2; stroke-linecap: square"/>
   </g>
   <g id="line2d_27">
    <path d="M 405.892562 203.172852 
L 436.346328 203.202481 
L 437.796507 203.290487 
L 439.246686 203.537585 
L 440.696866 204.05992 
L 442.147045 204.882498 
L 445.047404 206.717814 
L 449.397942 209.011878 
L 450.848121 209.308728 
L 452.2983 208.765731 
L 453.74848 207.617789 
L 455.198659 206.655772 
L 456.648838 206.601815 
L 458.099018 207.581957 
L 460.999376 210.742083 
L 462.449556 212.036936 
L 463.899735 212.980607 
L 465.349914 213.548932 
L 466.800094 213.677656 
L 468.250273 213.377865 
L 469.700452 212.723324 
L 471.150632 211.66252 
L 472.600811 210.051129 
L 475.501169 205.881413 
L 476.951349 204.180204 
L 478.401528 203.021836 
L 479.851707 202.406923 
L 481.301887 202.452203 
L 482.752066 203.345394 
L 484.202245 205.06229 
L 487.102604 209.345551 
L 488.552783 210.986375 
L 490.002963 211.968948 
L 491.453142 212.263475 
L 492.903321 211.910472 
L 494.353501 210.952811 
L 495.80368 209.453181 
L 498.704039 205.83346 
L 500.154218 204.482177 
L 501.604397 203.691733 
L 503.054577 203.336203 
L 505.954935 203.180631 
L 524.807266 203.193308 
L 527.707625 203.42206 
L 529.157804 203.770671 
L 532.058163 204.797893 
L 533.508342 205.014265 
L 534.958522 204.797893 
L 537.85888 203.770671 
L 539.30906 203.42206 
L 542.209418 203.193308 
L 546.559956 203.117474 
L 548.010136 202.943028 
L 549.460315 202.418881 
L 550.910494 201.201413 
L 552.360674 199.01645 
L 553.810853 195.977171 
L 555.261032 192.666619 
L 556.711212 189.784834 
L 558.161391 187.798171 
L 559.61157 187.047879 
L 561.06175 187.935386 
L 562.511929 190.587319 
L 565.412288 198.080524 
L 566.862467 200.779464 
L 568.312646 202.269306 
L 569.762826 202.901022 
L 571.213005 203.108098 
L 574.113363 203.16826 
L 577.013722 203.045171 
L 578.463901 202.625193 
L 579.914081 201.307045 
L 581.36426 198.067343 
L 582.814439 191.855812 
L 584.264619 182.660121 
L 585.714798 172.497304 
L 587.164977 165.07519 
L 588.615157 163.78285 
L 590.065336 169.353884 
L 592.965695 189.304462 
L 594.415874 196.668821 
L 595.866053 200.723075 
L 597.316233 202.436993 
L 598.766412 202.997918 
L 600.216591 203.140359 
L 607.467488 203.172852 
L 636.471074 203.172852 
L 636.471074 203.172852 
" clip-path="url(#p151765b588)" style="fill: none; stroke: #ff7f0e; stroke-width: 2; stroke-linecap: square"/>
   </g>
   <g id="LineCollection_1">
    <path d="M 521.877904 308.423187 
L 521.877904 109.51622 
" clip-path="url(#p151765b588)" style="fill: none; stroke-dasharray: 7.4,3.2; stroke-dashoffset: 0; stroke: #000000; stroke-width: 2"/>
    <path d="M 536.379697 308.423187 
L 536.379697 109.51622 
" clip-path="url(#p151765b588)" style="fill: none; stroke-dasharray: 7.4,3.2; stroke-dashoffset: 0; stroke: #000000; stroke-width: 2"/>
    <path d="M 565.383284 308.423187 
L 565.383284 109.51622 
" clip-path="url(#p151765b588)" style="fill: none; stroke-dasharray: 7.4,3.2; stroke-dashoffset: 0; stroke: #000000; stroke-width: 2"/>
    <path d="M 623.390457 308.423187 
L 623.390457 109.51622 
" clip-path="url(#p151765b588)" style="fill: none; stroke-dasharray: 7.4,3.2; stroke-dashoffset: 0; stroke: #000000; stroke-width: 2"/>
   </g>
   <g id="patch_8">
    <path d="M 394.363636 333.490909 
L 394.363636 86.4 
" style="fill: none; stroke: #000000; stroke-width: 0.8; stroke-linejoin: miter; stroke-linecap: square"/>
   </g>
   <g id="patch_9">
    <path d="M 648 333.490909 
L 648 86.4 
" style="fill: none; stroke: #000000; stroke-width: 0.8; stroke-linejoin: miter; stroke-linecap: square"/>
   </g>
   <g id="patch_10">
    <path d="M 394.363636 333.490909 
L 648 333.490909 
" style="fill: none; stroke: #000000; stroke-width: 0.8; stroke-linejoin: miter; stroke-linecap: square"/>
   </g>
   <g id="patch_11">
    <path d="M 394.363636 86.4 
L 648 86.4 
" style="fill: none; stroke: #000000; stroke-width: 0.8; stroke-linejoin: miter; stroke-linecap: square"/>
   </g>
   <g id="text_24">
    <!-- unit_73 -->
    <g transform="translate(498.922756 80.4)scale(0.12 -0.12)">
     <defs>
      <path id="DejaVuSans-75" d="M 544 1381 
L 544 3500 
L 1119 3500 
L 1119 1403 
Q 1119 906 1312 657 
Q 1506 409 1894 409 
Q 2359 409 2629 706 
Q 2900 1003 2900 1516 
L 2900 3500 
L 3475 3500 
L 3475 0 
L 2900 0 
L 2900 538 
Q 2691 219 2414 64 
Q 2138 -91 1772 -91 
Q 1169 -91 856 284 
Q 544 659 544 1381 
z
M 1991 3584 
L 1991 3584 
z
" transform="scale(0.015625)"/>
      <path id="DejaVuSans-6e" d="M 3513 2113 
L 3513 0 
L 2938 0 
L 2938 2094 
Q 2938 2591 2744 2837 
Q 2550 3084 2163 3084 
Q 1697 3084 1428 2787 
Q 1159 2491 1159 1978 
L 1159 0 
L 581 0 
L 581 3500 
L 1159 3500 
L 1159 2956 
Q 1366 3272 1645 3428 
Q 1925 3584 2291 3584 
Q 2894 3584 3203 3211 
Q 3513 2838 3513 2113 
z
" transform="scale(0.015625)"/>
      <path id="DejaVuSans-69" d="M 603 3500 
L 1178 3500 
L 1178 0 
L 603 0 
L 603 3500 
z
M 603 4863 
L 1178 4863 
L 1178 4134 
L 603 4134 
L 603 4863 
z
" transform="scale(0.015625)"/>
      <path id="DejaVuSans-74" d="M 1172 4494 
L 1172 3500 
L 2356 3500 
L 2356 3053 
L 1172 3053 
L 1172 1153 
Q 1172 725 1289 603 
Q 1406 481 1766 481 
L 2356 481 
L 2356 0 
L 1766 0 
Q 1100 0 847 248 
Q 594 497 594 1153 
L 594 3053 
L 172 3053 
L 172 3500 
L 594 3500 
L 594 4494 
L 1172 4494 
z
" transform="scale(0.015625)"/>
      <path id="DejaVuSans-5f" d="M 3263 -1063 
L 3263 -1509 
L -63 -1509 
L -63 -1063 
L 3263 -1063 
z
" transform="scale(0.015625)"/>
      <path id="DejaVuSans-37" d="M 525 4666 
L 3525 4666 
L 3525 4397 
L 1831 0 
L 1172 0 
L 2766 4134 
L 525 4134 
L 525 4666 
z
" transform="scale(0.015625)"/>
      <path id="DejaVuSans-33" d="M 2597 2516 
Q 3050 2419 3304 2112 
Q 3559 1806 3559 1356 
Q 3559 666 3084 287 
Q 2609 -91 1734 -91 
Q 1441 -91 1130 -33 
Q 819 25 488 141 
L 488 750 
Q 750 597 1062 519 
Q 1375 441 1716 441 
Q 2309 441 2620 675 
Q 2931 909 2931 1356 
Q 2931 1769 2642 2001 
Q 2353 2234 1838 2234 
L 1294 2234 
L 1294 2753 
L 1863 2753 
Q 2328 2753 2575 2939 
Q 2822 3125 2822 3475 
Q 2822 3834 2567 4026 
Q 2313 4219 1838 4219 
Q 1578 4219 1281 4162 
Q 984 4106 628 3988 
L 628 4550 
Q 988 4650 1302 4700 
Q 1616 4750 1894 4750 
Q 2613 4750 3031 4423 
Q 3450 4097 3450 3541 
Q 3450 3153 3228 2886 
Q 3006 2619 2597 2516 
z
" transform="scale(0.015625)"/>
     </defs>
     <use xlink:href="#DejaVuSans-75"/>
     <use xlink:href="#DejaVuSans-6e" x="63.378906"/>
     <use xlink:href="#DejaVuSans-69" x="126.757812"/>
     <use xlink:href="#DejaVuSans-74" x="154.541016"/>
     <use xlink:href="#DejaVuSans-5f" x="193.75"/>
     <use xlink:href="#DejaVuSans-37" x="243.75"/>
     <use xlink:href="#DejaVuSans-33" x="307.373047"/>
    </g>
   </g>
  </g>
  <g id="axes_3">
   <g id="patch_12">
    <path d="M 90 630 
L 343.636364 630 
L 343.636364 382.909091 
L 90 382.909091 
z
" style="fill: #ffffff"/>
   </g>
   <g id="matplotlib.axis_5">
    <g id="xtick_12">
     <g id="line2d_28">
      <g>
       <use xlink:href="#ma56f8d895d" x="90" y="630" style="stroke: #000000; stroke-width: 0.8"/>
      </g>
     </g>
     <g id="text_25">
      <!-- 0.0 -->
      <g transform="translate(82.048438 644.598437)scale(0.1 -0.1)">
       <use xlink:href="#DejaVuSans-30"/>
       <use xlink:href="#DejaVuSans-2e" x="63.623047"/>
       <use xlink:href="#DejaVuSans-30" x="95.410156"/>
      </g>
     </g>
    </g>
    <g id="xtick_13">
     <g id="line2d_29">
      <g>
       <use xlink:href="#ma56f8d895d" x="140.727273" y="630" style="stroke: #000000; stroke-width: 0.8"/>
      </g>
     </g>
     <g id="text_26">
      <!-- 0.2 -->
      <g transform="translate(132.77571 644.598437)scale(0.1 -0.1)">
       <use xlink:href="#DejaVuSans-30"/>
       <use xlink:href="#DejaVuSans-2e" x="63.623047"/>
       <use xlink:href="#DejaVuSans-32" x="95.410156"/>
      </g>
     </g>
    </g>
    <g id="xtick_14">
     <g id="line2d_30">
      <g>
       <use xlink:href="#ma56f8d895d" x="191.454545" y="630" style="stroke: #000000; stroke-width: 0.8"/>
      </g>
     </g>
     <g id="text_27">
      <!-- 0.4 -->
      <g transform="translate(183.502983 644.598437)scale(0.1 -0.1)">
       <use xlink:href="#DejaVuSans-30"/>
       <use xlink:href="#DejaVuSans-2e" x="63.623047"/>
       <use xlink:href="#DejaVuSans-34" x="95.410156"/>
      </g>
     </g>
    </g>
    <g id="xtick_15">
     <g id="line2d_31">
      <g>
       <use xlink:href="#ma56f8d895d" x="242.181818" y="630" style="stroke: #000000; stroke-width: 0.8"/>
      </g>
     </g>
     <g id="text_28">
      <!-- 0.6 -->
      <g transform="translate(234.230256 644.598437)scale(0.1 -0.1)">
       <use xlink:href="#DejaVuSans-30"/>
       <use xlink:href="#DejaVuSans-2e" x="63.623047"/>
       <use xlink:href="#DejaVuSans-36" x="95.410156"/>
      </g>
     </g>
    </g>
    <g id="xtick_16">
     <g id="line2d_32">
      <g>
       <use xlink:href="#ma56f8d895d" x="292.909091" y="630" style="stroke: #000000; stroke-width: 0.8"/>
      </g>
     </g>
     <g id="text_29">
      <!-- 0.8 -->
      <g transform="translate(284.957528 644.598437)scale(0.1 -0.1)">
       <use xlink:href="#DejaVuSans-30"/>
       <use xlink:href="#DejaVuSans-2e" x="63.623047"/>
       <use xlink:href="#DejaVuSans-38" x="95.410156"/>
      </g>
     </g>
    </g>
    <g id="xtick_17">
     <g id="line2d_33">
      <g>
       <use xlink:href="#ma56f8d895d" x="343.636364" y="630" style="stroke: #000000; stroke-width: 0.8"/>
      </g>
     </g>
     <g id="text_30">
      <!-- 1.0 -->
      <g transform="translate(335.684801 644.598437)scale(0.1 -0.1)">
       <use xlink:href="#DejaVuSans-31"/>
       <use xlink:href="#DejaVuSans-2e" x="63.623047"/>
       <use xlink:href="#DejaVuSans-30" x="95.410156"/>
      </g>
     </g>
    </g>
   </g>
   <g id="matplotlib.axis_6">
    <g id="ytick_13">
     <g id="line2d_34">
      <g>
       <use xlink:href="#maaf1f082bc" x="90" y="630" style="stroke: #000000; stroke-width: 0.8"/>
      </g>
     </g>
     <g id="text_31">
      <!-- 0.0 -->
      <g transform="translate(67.096875 633.799219)scale(0.1 -0.1)">
       <use xlink:href="#DejaVuSans-30"/>
       <use xlink:href="#DejaVuSans-2e" x="63.623047"/>
       <use xlink:href="#DejaVuSans-30" x="95.410156"/>
      </g>
     </g>
    </g>
    <g id="ytick_14">
     <g id="line2d_35">
      <g>
       <use xlink:href="#maaf1f082bc" x="90" y="580.581818" style="stroke: #000000; stroke-width: 0.8"/>
      </g>
     </g>
     <g id="text_32">
      <!-- 0.2 -->
      <g transform="translate(67.096875 584.381037)scale(0.1 -0.1)">
       <use xlink:href="#DejaVuSans-30"/>
       <use xlink:href="#DejaVuSans-2e" x="63.623047"/>
       <use xlink:href="#DejaVuSans-32" x="95.410156"/>
      </g>
     </g>
    </g>
    <g id="ytick_15">
     <g id="line2d_36">
      <g>
       <use xlink:href="#maaf1f082bc" x="90" y="531.163636" style="stroke: #000000; stroke-width: 0.8"/>
      </g>
     </g>
     <g id="text_33">
      <!-- 0.4 -->
      <g transform="translate(67.096875 534.962855)scale(0.1 -0.1)">
       <use xlink:href="#DejaVuSans-30"/>
       <use xlink:href="#DejaVuSans-2e" x="63.623047"/>
       <use xlink:href="#DejaVuSans-34" x="95.410156"/>
      </g>
     </g>
    </g>
    <g id="ytick_16">
     <g id="line2d_37">
      <g>
       <use xlink:href="#maaf1f082bc" x="90" y="481.745455" style="stroke: #000000; stroke-width: 0.8"/>
      </g>
     </g>
     <g id="text_34">
      <!-- 0.6 -->
      <g transform="translate(67.096875 485.544673)scale(0.1 -0.1)">
       <use xlink:href="#DejaVuSans-30"/>
       <use xlink:href="#DejaVuSans-2e" x="63.623047"/>
       <use xlink:href="#DejaVuSans-36" x="95.410156"/>
      </g>
     </g>
    </g>
    <g id="ytick_17">
     <g id="line2d_38">
      <g>
       <use xlink:href="#maaf1f082bc" x="90" y="432.327273" style="stroke: #000000; stroke-width: 0.8"/>
      </g>
     </g>
     <g id="text_35">
      <!-- 0.8 -->
      <g transform="translate(67.096875 436.126491)scale(0.1 -0.1)">
       <use xlink:href="#DejaVuSans-30"/>
       <use xlink:href="#DejaVuSans-2e" x="63.623047"/>
       <use xlink:href="#DejaVuSans-38" x="95.410156"/>
      </g>
     </g>
    </g>
    <g id="ytick_18">
     <g id="line2d_39">
      <g>
       <use xlink:href="#maaf1f082bc" x="90" y="382.909091" style="stroke: #000000; stroke-width: 0.8"/>
      </g>
     </g>
     <g id="text_36">
      <!-- 1.0 -->
      <g transform="translate(67.096875 386.70831)scale(0.1 -0.1)">
       <use xlink:href="#DejaVuSans-31"/>
       <use xlink:href="#DejaVuSans-2e" x="63.623047"/>
       <use xlink:href="#DejaVuSans-30" x="95.410156"/>
      </g>
     </g>
    </g>
   </g>
   <g id="patch_13">
    <path d="M 90 630 
L 90 382.909091 
" style="fill: none; stroke: #000000; stroke-width: 0.8; stroke-linejoin: miter; stroke-linecap: square"/>
   </g>
   <g id="patch_14">
    <path d="M 343.636364 630 
L 343.636364 382.909091 
" style="fill: none; stroke: #000000; stroke-width: 0.8; stroke-linejoin: miter; stroke-linecap: square"/>
   </g>
   <g id="patch_15">
    <path d="M 90 630 
L 343.636364 630 
" style="fill: none; stroke: #000000; stroke-width: 0.8; stroke-linejoin: miter; stroke-linecap: square"/>
   </g>
   <g id="patch_16">
    <path d="M 90 382.909091 
L 343.636364 382.909091 
" style="fill: none; stroke: #000000; stroke-width: 0.8; stroke-linejoin: miter; stroke-linecap: square"/>
   </g>
  </g>
  <g id="axes_4">
   <g id="patch_17">
    <path d="M 394.363636 630 
L 648 630 
L 648 382.909091 
L 394.363636 382.909091 
z
" style="fill: #ffffff"/>
   </g>
   <g id="matplotlib.axis_7">
    <g id="xtick_18">
     <g id="line2d_40">
      <g>
       <use xlink:href="#ma56f8d895d" x="405.863558" y="630" style="stroke: #000000; stroke-width: 0.8"/>
      </g>
     </g>
     <g id="text_37">
      <!-- 0 -->
      <g transform="translate(402.682308 644.598437)scale(0.1 -0.1)">
       <use xlink:href="#DejaVuSans-30"/>
      </g>
     </g>
    </g>
    <g id="xtick_19">
     <g id="line2d_41">
      <g>
       <use xlink:href="#ma56f8d895d" x="463.870731" y="630" style="stroke: #000000; stroke-width: 0.8"/>
      </g>
     </g>
     <g id="text_38">
      <!-- 2000 -->
      <g transform="translate(451.145731 644.598437)scale(0.1 -0.1)">
       <use xlink:href="#DejaVuSans-32"/>
       <use xlink:href="#DejaVuSans-30" x="63.623047"/>
       <use xlink:href="#DejaVuSans-30" x="127.246094"/>
       <use xlink:href="#DejaVuSans-30" x="190.869141"/>
      </g>
     </g>
    </g>
    <g id="xtick_20">
     <g id="line2d_42">
      <g>
       <use xlink:href="#ma56f8d895d" x="521.877904" y="630" style="stroke: #000000; stroke-width: 0.8"/>
      </g>
     </g>
     <g id="text_39">
      <!-- 4000 -->
      <g transform="translate(509.152904 644.598437)scale(0.1 -0.1)">
       <use xlink:href="#DejaVuSans-34"/>
       <use xlink:href="#DejaVuSans-30" x="63.623047"/>
       <use xlink:href="#DejaVuSans-30" x="127.246094"/>
       <use xlink:href="#DejaVuSans-30" x="190.869141"/>
      </g>
     </g>
    </g>
    <g id="xtick_21">
     <g id="line2d_43">
      <g>
       <use xlink:href="#ma56f8d895d" x="579.885077" y="630" style="stroke: #000000; stroke-width: 0.8"/>
      </g>
     </g>
     <g id="text_40">
      <!-- 6000 -->
      <g transform="translate(567.160077 644.598437)scale(0.1 -0.1)">
       <use xlink:href="#DejaVuSans-36"/>
       <use xlink:href="#DejaVuSans-30" x="63.623047"/>
       <use xlink:href="#DejaVuSans-30" x="127.246094"/>
       <use xlink:href="#DejaVuSans-30" x="190.869141"/>
      </g>
     </g>
    </g>
    <g id="xtick_22">
     <g id="line2d_44">
      <g>
       <use xlink:href="#ma56f8d895d" x="637.89225" y="630" style="stroke: #000000; stroke-width: 0.8"/>
      </g>
     </g>
     <g id="text_41">
      <!-- 8000 -->
      <g transform="translate(625.16725 644.598437)scale(0.1 -0.1)">
       <use xlink:href="#DejaVuSans-38"/>
       <use xlink:href="#DejaVuSans-30" x="63.623047"/>
       <use xlink:href="#DejaVuSans-30" x="127.246094"/>
       <use xlink:href="#DejaVuSans-30" x="190.869141"/>
      </g>
     </g>
    </g>
   </g>
   <g id="matplotlib.axis_8">
    <g id="ytick_19">
     <g id="line2d_45">
      <g>
       <use xlink:href="#maaf1f082bc" x="394.363636" y="616.859317" style="stroke: #000000; stroke-width: 0.8"/>
      </g>
     </g>
     <g id="text_42">
      <!-- 0 -->
      <g transform="translate(381.001136 620.658536)scale(0.1 -0.1)">
       <use xlink:href="#DejaVuSans-30"/>
      </g>
     </g>
    </g>
    <g id="ytick_20">
     <g id="line2d_46">
      <g>
       <use xlink:href="#maaf1f082bc" x="394.363636" y="584.007611" style="stroke: #000000; stroke-width: 0.8"/>
      </g>
     </g>
     <g id="text_43">
      <!-- 5 -->
      <g transform="translate(381.001136 587.80683)scale(0.1 -0.1)">
       <defs>
        <path id="DejaVuSans-35" d="M 691 4666 
L 3169 4666 
L 3169 4134 
L 1269 4134 
L 1269 2991 
Q 1406 3038 1543 3061 
Q 1681 3084 1819 3084 
Q 2600 3084 3056 2656 
Q 3513 2228 3513 1497 
Q 3513 744 3044 326 
Q 2575 -91 1722 -91 
Q 1428 -91 1123 -41 
Q 819 9 494 109 
L 494 744 
Q 775 591 1075 516 
Q 1375 441 1709 441 
Q 2250 441 2565 725 
Q 2881 1009 2881 1497 
Q 2881 1984 2565 2268 
Q 2250 2553 1709 2553 
Q 1456 2553 1204 2497 
Q 953 2441 691 2322 
L 691 4666 
z
" transform="scale(0.015625)"/>
       </defs>
       <use xlink:href="#DejaVuSans-35"/>
      </g>
     </g>
    </g>
    <g id="ytick_21">
     <g id="line2d_47">
      <g>
       <use xlink:href="#maaf1f082bc" x="394.363636" y="551.155905" style="stroke: #000000; stroke-width: 0.8"/>
      </g>
     </g>
     <g id="text_44">
      <!-- 10 -->
      <g transform="translate(374.638636 554.955123)scale(0.1 -0.1)">
       <use xlink:href="#DejaVuSans-31"/>
       <use xlink:href="#DejaVuSans-30" x="63.623047"/>
      </g>
     </g>
    </g>
    <g id="ytick_22">
     <g id="line2d_48">
      <g>
       <use xlink:href="#maaf1f082bc" x="394.363636" y="518.304198" style="stroke: #000000; stroke-width: 0.8"/>
      </g>
     </g>
     <g id="text_45">
      <!-- 15 -->
      <g transform="translate(374.638636 522.103417)scale(0.1 -0.1)">
       <use xlink:href="#DejaVuSans-31"/>
       <use xlink:href="#DejaVuSans-35" x="63.623047"/>
      </g>
     </g>
    </g>
    <g id="ytick_23">
     <g id="line2d_49">
      <g>
       <use xlink:href="#maaf1f082bc" x="394.363636" y="485.452492" style="stroke: #000000; stroke-width: 0.8"/>
      </g>
     </g>
     <g id="text_46">
      <!-- 20 -->
      <g transform="translate(374.638636 489.251711)scale(0.1 -0.1)">
       <use xlink:href="#DejaVuSans-32"/>
       <use xlink:href="#DejaVuSans-30" x="63.623047"/>
      </g>
     </g>
    </g>
    <g id="ytick_24">
     <g id="line2d_50">
      <g>
       <use xlink:href="#maaf1f082bc" x="394.363636" y="452.600786" style="stroke: #000000; stroke-width: 0.8"/>
      </g>
     </g>
     <g id="text_47">
      <!-- 25 -->
      <g transform="translate(374.638636 456.400004)scale(0.1 -0.1)">
       <use xlink:href="#DejaVuSans-32"/>
       <use xlink:href="#DejaVuSans-35" x="63.623047"/>
      </g>
     </g>
    </g>
    <g id="ytick_25">
     <g id="line2d_51">
      <g>
       <use xlink:href="#maaf1f082bc" x="394.363636" y="419.749079" style="stroke: #000000; stroke-width: 0.8"/>
      </g>
     </g>
     <g id="text_48">
      <!-- 30 -->
      <g transform="translate(374.638636 423.548298)scale(0.1 -0.1)">
       <use xlink:href="#DejaVuSans-33"/>
       <use xlink:href="#DejaVuSans-30" x="63.623047"/>
      </g>
     </g>
    </g>
    <g id="ytick_26">
     <g id="line2d_52">
      <g>
       <use xlink:href="#maaf1f082bc" x="394.363636" y="386.897373" style="stroke: #000000; stroke-width: 0.8"/>
      </g>
     </g>
     <g id="text_49">
      <!-- 35 -->
      <g transform="translate(374.638636 390.696592)scale(0.1 -0.1)">
       <use xlink:href="#DejaVuSans-33"/>
       <use xlink:href="#DejaVuSans-35" x="63.623047"/>
      </g>
     </g>
    </g>
   </g>
   <g id="line2d_53">
    <path d="M 405.892562 382.909091 
L 407.342741 383.032136 
L 408.792921 384.119097 
L 410.2431 383.120492 
L 411.693279 383.910834 
L 413.143459 393.638843 
L 414.593638 412.5299 
L 416.043817 429.422247 
L 417.493997 436.753129 
L 418.944176 448.878209 
L 420.394355 475.404394 
L 421.844535 507.677385 
L 423.294714 530.521348 
L 424.744893 547.065866 
L 426.195073 555.652762 
L 427.645252 565.931318 
L 429.095431 579.727949 
L 430.54561 577.397868 
L 433.445969 544.629885 
L 434.896148 540.206404 
L 436.346328 544.604116 
L 437.796507 539.081302 
L 439.246686 524.304471 
L 440.696866 515.985316 
L 442.147045 534.008933 
L 443.597224 575.456967 
L 445.047404 605.794589 
L 446.497583 617.462647 
L 449.397942 634.593343 
L 450.848121 638.759846 
L 452.2983 635.545057 
L 453.74848 627.200537 
L 455.198659 622.038011 
L 456.648838 620.894965 
L 458.099018 622.997832 
L 459.549197 628.000682 
L 460.999376 629.629527 
L 462.449556 625.612277 
L 463.899735 621.963819 
L 465.349914 622.054552 
L 466.800094 622.291821 
L 468.250273 618.453427 
L 469.700452 613.139247 
L 471.150632 610.335093 
L 472.600811 609.978468 
L 474.05099 610.390201 
L 475.501169 613.296348 
L 476.951349 617.756631 
L 478.401528 621.21591 
L 479.851707 626.602274 
L 481.301887 634.742341 
L 482.752066 641.420061 
L 484.202245 644.983638 
L 485.652425 646.10744 
L 487.102604 646.194058 
L 488.552783 648.789474 
L 490.002963 653.801323 
L 491.453142 654.488158 
L 492.903321 646.463027 
L 494.353501 632.252906 
L 495.80368 626.638413 
L 497.253859 632.793874 
L 498.704039 640.342043 
L 500.154218 641.986463 
L 501.604397 639.814795 
L 503.054577 631.977391 
L 504.504756 628.479299 
L 505.954935 630.152437 
L 507.405115 627.424562 
L 508.855294 626.937892 
L 510.305473 627.987817 
L 511.755653 630.441624 
L 513.205832 633.414685 
L 514.656011 629.675887 
L 516.106191 633.591956 
L 517.55637 640.6966 
L 520.456729 620.171595 
L 521.906908 644.847327 
L 523.357087 694.015214 
L 524.807266 696.857528 
L 526.257446 657.170418 
L 527.707625 630.842963 
L 529.157804 624.168289 
L 530.607984 622.989243 
L 532.058163 634.370646 
L 533.508342 654.451721 
L 534.958522 660.222684 
L 536.408701 650.219875 
L 539.30906 603.312818 
L 540.759239 597.058238 
L 542.209418 624.526259 
L 543.667719 721 
M 564.112878 721 
L 565.412288 660.173883 
L 566.862467 639.40929 
L 569.762826 686.346868 
L 571.213005 698.540724 
L 572.663184 705.013183 
L 574.000103 721 
M 584.740952 721 
L 585.714798 671.426854 
L 587.164977 645.131756 
L 588.615157 656.445156 
L 590.059486 721 
M 602.804805 721 
L 603.11695 704.059893 
L 604.567129 641.393596 
L 606.017309 611.715109 
L 607.467488 600.369019 
L 608.917667 595.12268 
L 610.367847 592.124595 
L 611.818026 594.527402 
L 613.268205 603.09125 
L 614.718385 612.761376 
L 616.168564 620.511473 
L 617.618743 625.619513 
L 620.519102 629.39549 
L 621.969281 633.000588 
L 623.41946 634.880192 
L 624.86964 634.222482 
L 626.319819 633.752301 
L 627.769998 633.784508 
L 629.220178 632.343525 
L 630.670357 629.615262 
L 632.120536 628.126252 
L 633.570716 627.86793 
L 635.020895 627.132703 
L 636.471074 626.112803 
L 636.471074 626.112803 
" clip-path="url(#pee039b657d)" style="fill: none; stroke: #1f77b4; stroke-width: 1.5; stroke-linecap: square"/>
   </g>
   <g id="patch_18">
    <path d="M 394.363636 630 
L 394.363636 382.909091 
" style="fill: none; stroke: #000000; stroke-width: 0.8; stroke-linejoin: miter; stroke-linecap: square"/>
   </g>
   <g id="patch_19">
    <path d="M 648 630 
L 648 382.909091 
" style="fill: none; stroke: #000000; stroke-width: 0.8; stroke-linejoin: miter; stroke-linecap: square"/>
   </g>
   <g id="patch_20">
    <path d="M 394.363636 630 
L 648 630 
" style="fill: none; stroke: #000000; stroke-width: 0.8; stroke-linejoin: miter; stroke-linecap: square"/>
   </g>
   <g id="patch_21">
    <path d="M 394.363636 382.909091 
L 648 382.909091 
" style="fill: none; stroke: #000000; stroke-width: 0.8; stroke-linejoin: miter; stroke-linecap: square"/>
   </g>
   <g id="text_50">
    <!-- explained variance -->
    <g transform="translate(464.181818 376.909091)scale(0.12 -0.12)">
     <defs>
      <path id="DejaVuSans-65" d="M 3597 1894 
L 3597 1613 
L 953 1613 
Q 991 1019 1311 708 
Q 1631 397 2203 397 
Q 2534 397 2845 478 
Q 3156 559 3463 722 
L 3463 178 
Q 3153 47 2828 -22 
Q 2503 -91 2169 -91 
Q 1331 -91 842 396 
Q 353 884 353 1716 
Q 353 2575 817 3079 
Q 1281 3584 2069 3584 
Q 2775 3584 3186 3129 
Q 3597 2675 3597 1894 
z
M 3022 2063 
Q 3016 2534 2758 2815 
Q 2500 3097 2075 3097 
Q 1594 3097 1305 2825 
Q 1016 2553 972 2059 
L 3022 2063 
z
" transform="scale(0.015625)"/>
      <path id="DejaVuSans-78" d="M 3513 3500 
L 2247 1797 
L 3578 0 
L 2900 0 
L 1881 1375 
L 863 0 
L 184 0 
L 1544 1831 
L 300 3500 
L 978 3500 
L 1906 2253 
L 2834 3500 
L 3513 3500 
z
" transform="scale(0.015625)"/>
      <path id="DejaVuSans-70" d="M 1159 525 
L 1159 -1331 
L 581 -1331 
L 581 3500 
L 1159 3500 
L 1159 2969 
Q 1341 3281 1617 3432 
Q 1894 3584 2278 3584 
Q 2916 3584 3314 3078 
Q 3713 2572 3713 1747 
Q 3713 922 3314 415 
Q 2916 -91 2278 -91 
Q 1894 -91 1617 61 
Q 1341 213 1159 525 
z
M 3116 1747 
Q 3116 2381 2855 2742 
Q 2594 3103 2138 3103 
Q 1681 3103 1420 2742 
Q 1159 2381 1159 1747 
Q 1159 1113 1420 752 
Q 1681 391 2138 391 
Q 2594 391 2855 752 
Q 3116 1113 3116 1747 
z
" transform="scale(0.015625)"/>
      <path id="DejaVuSans-6c" d="M 603 4863 
L 1178 4863 
L 1178 0 
L 603 0 
L 603 4863 
z
" transform="scale(0.015625)"/>
      <path id="DejaVuSans-61" d="M 2194 1759 
Q 1497 1759 1228 1600 
Q 959 1441 959 1056 
Q 959 750 1161 570 
Q 1363 391 1709 391 
Q 2188 391 2477 730 
Q 2766 1069 2766 1631 
L 2766 1759 
L 2194 1759 
z
M 3341 1997 
L 3341 0 
L 2766 0 
L 2766 531 
Q 2569 213 2275 61 
Q 1981 -91 1556 -91 
Q 1019 -91 701 211 
Q 384 513 384 1019 
Q 384 1609 779 1909 
Q 1175 2209 1959 2209 
L 2766 2209 
L 2766 2266 
Q 2766 2663 2505 2880 
Q 2244 3097 1772 3097 
Q 1472 3097 1187 3025 
Q 903 2953 641 2809 
L 641 3341 
Q 956 3463 1253 3523 
Q 1550 3584 1831 3584 
Q 2591 3584 2966 3190 
Q 3341 2797 3341 1997 
z
" transform="scale(0.015625)"/>
      <path id="DejaVuSans-64" d="M 2906 2969 
L 2906 4863 
L 3481 4863 
L 3481 0 
L 2906 0 
L 2906 525 
Q 2725 213 2448 61 
Q 2172 -91 1784 -91 
Q 1150 -91 751 415 
Q 353 922 353 1747 
Q 353 2572 751 3078 
Q 1150 3584 1784 3584 
Q 2172 3584 2448 3432 
Q 2725 3281 2906 2969 
z
M 947 1747 
Q 947 1113 1208 752 
Q 1469 391 1925 391 
Q 2381 391 2643 752 
Q 2906 1113 2906 1747 
Q 2906 2381 2643 2742 
Q 2381 3103 1925 3103 
Q 1469 3103 1208 2742 
Q 947 2381 947 1747 
z
" transform="scale(0.015625)"/>
      <path id="DejaVuSans-20" transform="scale(0.015625)"/>
      <path id="DejaVuSans-76" d="M 191 3500 
L 800 3500 
L 1894 563 
L 2988 3500 
L 3597 3500 
L 2284 0 
L 1503 0 
L 191 3500 
z
" transform="scale(0.015625)"/>
      <path id="DejaVuSans-72" d="M 2631 2963 
Q 2534 3019 2420 3045 
Q 2306 3072 2169 3072 
Q 1681 3072 1420 2755 
Q 1159 2438 1159 1844 
L 1159 0 
L 581 0 
L 581 3500 
L 1159 3500 
L 1159 2956 
Q 1341 3275 1631 3429 
Q 1922 3584 2338 3584 
Q 2397 3584 2469 3576 
Q 2541 3569 2628 3553 
L 2631 2963 
z
" transform="scale(0.015625)"/>
      <path id="DejaVuSans-63" d="M 3122 3366 
L 3122 2828 
Q 2878 2963 2633 3030 
Q 2388 3097 2138 3097 
Q 1578 3097 1268 2742 
Q 959 2388 959 1747 
Q 959 1106 1268 751 
Q 1578 397 2138 397 
Q 2388 397 2633 464 
Q 2878 531 3122 666 
L 3122 134 
Q 2881 22 2623 -34 
Q 2366 -91 2075 -91 
Q 1284 -91 818 406 
Q 353 903 353 1747 
Q 353 2603 823 3093 
Q 1294 3584 2113 3584 
Q 2378 3584 2631 3529 
Q 2884 3475 3122 3366 
z
" transform="scale(0.015625)"/>
     </defs>
     <use xlink:href="#DejaVuSans-65"/>
     <use xlink:href="#DejaVuSans-78" x="59.773438"/>
     <use xlink:href="#DejaVuSans-70" x="118.953125"/>
     <use xlink:href="#DejaVuSans-6c" x="182.429688"/>
     <use xlink:href="#DejaVuSans-61" x="210.212891"/>
     <use xlink:href="#DejaVuSans-69" x="271.492188"/>
     <use xlink:href="#DejaVuSans-6e" x="299.275391"/>
     <use xlink:href="#DejaVuSans-65" x="362.654297"/>
     <use xlink:href="#DejaVuSans-64" x="424.177734"/>
     <use xlink:href="#DejaVuSans-20" x="487.654297"/>
     <use xlink:href="#DejaVuSans-76" x="519.441406"/>
     <use xlink:href="#DejaVuSans-61" x="578.621094"/>
     <use xlink:href="#DejaVuSans-72" x="639.900391"/>
     <use xlink:href="#DejaVuSans-69" x="681.013672"/>
     <use xlink:href="#DejaVuSans-61" x="708.796875"/>
     <use xlink:href="#DejaVuSans-6e" x="770.076172"/>
     <use xlink:href="#DejaVuSans-63" x="833.455078"/>
     <use xlink:href="#DejaVuSans-65" x="888.435547"/>
    </g>
   </g>
  </g>
 </g>
 <defs>
  <clipPath id="p151765b588">
   <rect x="394.363636" y="86.4" width="253.636364" height="247.090909"/>
  </clipPath>
  <clipPath id="pee039b657d">
   <rect x="394.363636" y="382.909091" width="253.636364" height="247.090909"/>
  </clipPath>
 </defs>
</svg>
