<?xml version="1.0" encoding="utf-8" standalone="no"?>
<!DOCTYPE svg PUBLIC "-//W3C//DTD SVG 1.1//EN"
  "http://www.w3.org/Graphics/SVG/1.1/DTD/svg11.dtd">
<svg xmlns:xlink="http://www.w3.org/1999/xlink" width="720pt" height="720pt" viewBox="0 0 720 720" xmlns="http://www.w3.org/2000/svg" version="1.1">
 <metadata>
  <rdf:RDF xmlns:dc="http://purl.org/dc/elements/1.1/" xmlns:cc="http://creativecommons.org/ns#" xmlns:rdf="http://www.w3.org/1999/02/22-rdf-syntax-ns#">
   <cc:Work>
    <dc:type rdf:resource="http://purl.org/dc/dcmitype/StillImage"/>
    <dc:date>2023-12-19T18:23:18.312600</dc:date>
    <dc:format>image/svg+xml</dc:format>
    <dc:creator>
     <cc:Agent>
      <dc:title>Matplotlib v3.5.2, https://matplotlib.org/</dc:title>
     </cc:Agent>
    </dc:creator>
   </cc:Work>
  </rdf:RDF>
 </metadata>
 <defs>
  <style type="text/css">*{stroke-linejoin: round; stroke-linecap: butt}</style>
 </defs>
 <g id="figure_1">
  <g id="patch_1">
   <path d="M 0 720 
L 720 720 
L 720 0 
L 0 0 
z
" style="fill: #ffffff"/>
  </g>
  <g id="axes_1">
   <g id="patch_2">
    <path d="M 90 333.490909 
L 343.636364 333.490909 
L 343.636364 86.4 
L 90 86.4 
z
" style="fill: #ffffff"/>
   </g>
   <g id="matplotlib.axis_1">
    <g id="xtick_1">
     <g id="line2d_1">
      <defs>
       <path id="mec7362deb0" d="M 0 0 
L 0 3.5 
" style="stroke: #000000; stroke-width: 0.8"/>
      </defs>
      <g>
       <use xlink:href="#mec7362deb0" x="90" y="333.490909" style="stroke: #000000; stroke-width: 0.8"/>
      </g>
     </g>
     <g id="text_1">
      <!-- 0.0 -->
      <g transform="translate(82.048438 348.089347)scale(0.1 -0.1)">
       <defs>
        <path id="DejaVuSans-30" d="M 2034 4250 
Q 1547 4250 1301 3770 
Q 1056 3291 1056 2328 
Q 1056 1369 1301 889 
Q 1547 409 2034 409 
Q 2525 409 2770 889 
Q 3016 1369 3016 2328 
Q 3016 3291 2770 3770 
Q 2525 4250 2034 4250 
z
M 2034 4750 
Q 2819 4750 3233 4129 
Q 3647 3509 3647 2328 
Q 3647 1150 3233 529 
Q 2819 -91 2034 -91 
Q 1250 -91 836 529 
Q 422 1150 422 2328 
Q 422 3509 836 4129 
Q 1250 4750 2034 4750 
z
" transform="scale(0.015625)"/>
        <path id="DejaVuSans-2e" d="M 684 794 
L 1344 794 
L 1344 0 
L 684 0 
L 684 794 
z
" transform="scale(0.015625)"/>
       </defs>
       <use xlink:href="#DejaVuSans-30"/>
       <use xlink:href="#DejaVuSans-2e" x="63.623047"/>
       <use xlink:href="#DejaVuSans-30" x="95.410156"/>
      </g>
     </g>
    </g>
    <g id="xtick_2">
     <g id="line2d_2">
      <g>
       <use xlink:href="#mec7362deb0" x="140.727273" y="333.490909" style="stroke: #000000; stroke-width: 0.8"/>
      </g>
     </g>
     <g id="text_2">
      <!-- 0.2 -->
      <g transform="translate(132.77571 348.089347)scale(0.1 -0.1)">
       <defs>
        <path id="DejaVuSans-32" d="M 1228 531 
L 3431 531 
L 3431 0 
L 469 0 
L 469 531 
Q 828 903 1448 1529 
Q 2069 2156 2228 2338 
Q 2531 2678 2651 2914 
Q 2772 3150 2772 3378 
Q 2772 3750 2511 3984 
Q 2250 4219 1831 4219 
Q 1534 4219 1204 4116 
Q 875 4013 500 3803 
L 500 4441 
Q 881 4594 1212 4672 
Q 1544 4750 1819 4750 
Q 2544 4750 2975 4387 
Q 3406 4025 3406 3419 
Q 3406 3131 3298 2873 
Q 3191 2616 2906 2266 
Q 2828 2175 2409 1742 
Q 1991 1309 1228 531 
z
" transform="scale(0.015625)"/>
       </defs>
       <use xlink:href="#DejaVuSans-30"/>
       <use xlink:href="#DejaVuSans-2e" x="63.623047"/>
       <use xlink:href="#DejaVuSans-32" x="95.410156"/>
      </g>
     </g>
    </g>
    <g id="xtick_3">
     <g id="line2d_3">
      <g>
       <use xlink:href="#mec7362deb0" x="191.454545" y="333.490909" style="stroke: #000000; stroke-width: 0.8"/>
      </g>
     </g>
     <g id="text_3">
      <!-- 0.4 -->
      <g transform="translate(183.502983 348.089347)scale(0.1 -0.1)">
       <defs>
        <path id="DejaVuSans-34" d="M 2419 4116 
L 825 1625 
L 2419 1625 
L 2419 4116 
z
M 2253 4666 
L 3047 4666 
L 3047 1625 
L 3713 1625 
L 3713 1100 
L 3047 1100 
L 3047 0 
L 2419 0 
L 2419 1100 
L 313 1100 
L 313 1709 
L 2253 4666 
z
" transform="scale(0.015625)"/>
       </defs>
       <use xlink:href="#DejaVuSans-30"/>
       <use xlink:href="#DejaVuSans-2e" x="63.623047"/>
       <use xlink:href="#DejaVuSans-34" x="95.410156"/>
      </g>
     </g>
    </g>
    <g id="xtick_4">
     <g id="line2d_4">
      <g>
       <use xlink:href="#mec7362deb0" x="242.181818" y="333.490909" style="stroke: #000000; stroke-width: 0.8"/>
      </g>
     </g>
     <g id="text_4">
      <!-- 0.6 -->
      <g transform="translate(234.230256 348.089347)scale(0.1 -0.1)">
       <defs>
        <path id="DejaVuSans-36" d="M 2113 2584 
Q 1688 2584 1439 2293 
Q 1191 2003 1191 1497 
Q 1191 994 1439 701 
Q 1688 409 2113 409 
Q 2538 409 2786 701 
Q 3034 994 3034 1497 
Q 3034 2003 2786 2293 
Q 2538 2584 2113 2584 
z
M 3366 4563 
L 3366 3988 
Q 3128 4100 2886 4159 
Q 2644 4219 2406 4219 
Q 1781 4219 1451 3797 
Q 1122 3375 1075 2522 
Q 1259 2794 1537 2939 
Q 1816 3084 2150 3084 
Q 2853 3084 3261 2657 
Q 3669 2231 3669 1497 
Q 3669 778 3244 343 
Q 2819 -91 2113 -91 
Q 1303 -91 875 529 
Q 447 1150 447 2328 
Q 447 3434 972 4092 
Q 1497 4750 2381 4750 
Q 2619 4750 2861 4703 
Q 3103 4656 3366 4563 
z
" transform="scale(0.015625)"/>
       </defs>
       <use xlink:href="#DejaVuSans-30"/>
       <use xlink:href="#DejaVuSans-2e" x="63.623047"/>
       <use xlink:href="#DejaVuSans-36" x="95.410156"/>
      </g>
     </g>
    </g>
    <g id="xtick_5">
     <g id="line2d_5">
      <g>
       <use xlink:href="#mec7362deb0" x="292.909091" y="333.490909" style="stroke: #000000; stroke-width: 0.8"/>
      </g>
     </g>
     <g id="text_5">
      <!-- 0.8 -->
      <g transform="translate(284.957528 348.089347)scale(0.1 -0.1)">
       <defs>
        <path id="DejaVuSans-38" d="M 2034 2216 
Q 1584 2216 1326 1975 
Q 1069 1734 1069 1313 
Q 1069 891 1326 650 
Q 1584 409 2034 409 
Q 2484 409 2743 651 
Q 3003 894 3003 1313 
Q 3003 1734 2745 1975 
Q 2488 2216 2034 2216 
z
M 1403 2484 
Q 997 2584 770 2862 
Q 544 3141 544 3541 
Q 544 4100 942 4425 
Q 1341 4750 2034 4750 
Q 2731 4750 3128 4425 
Q 3525 4100 3525 3541 
Q 3525 3141 3298 2862 
Q 3072 2584 2669 2484 
Q 3125 2378 3379 2068 
Q 3634 1759 3634 1313 
Q 3634 634 3220 271 
Q 2806 -91 2034 -91 
Q 1263 -91 848 271 
Q 434 634 434 1313 
Q 434 1759 690 2068 
Q 947 2378 1403 2484 
z
M 1172 3481 
Q 1172 3119 1398 2916 
Q 1625 2713 2034 2713 
Q 2441 2713 2670 2916 
Q 2900 3119 2900 3481 
Q 2900 3844 2670 4047 
Q 2441 4250 2034 4250 
Q 1625 4250 1398 4047 
Q 1172 3844 1172 3481 
z
" transform="scale(0.015625)"/>
       </defs>
       <use xlink:href="#DejaVuSans-30"/>
       <use xlink:href="#DejaVuSans-2e" x="63.623047"/>
       <use xlink:href="#DejaVuSans-38" x="95.410156"/>
      </g>
     </g>
    </g>
    <g id="xtick_6">
     <g id="line2d_6">
      <g>
       <use xlink:href="#mec7362deb0" x="343.636364" y="333.490909" style="stroke: #000000; stroke-width: 0.8"/>
      </g>
     </g>
     <g id="text_6">
      <!-- 1.0 -->
      <g transform="translate(335.684801 348.089347)scale(0.1 -0.1)">
       <defs>
        <path id="DejaVuSans-31" d="M 794 531 
L 1825 531 
L 1825 4091 
L 703 3866 
L 703 4441 
L 1819 4666 
L 2450 4666 
L 2450 531 
L 3481 531 
L 3481 0 
L 794 0 
L 794 531 
z
" transform="scale(0.015625)"/>
       </defs>
       <use xlink:href="#DejaVuSans-31"/>
       <use xlink:href="#DejaVuSans-2e" x="63.623047"/>
       <use xlink:href="#DejaVuSans-30" x="95.410156"/>
      </g>
     </g>
    </g>
   </g>
   <g id="matplotlib.axis_2">
    <g id="ytick_1">
     <g id="line2d_7">
      <defs>
       <path id="md0a168d607" d="M 0 0 
L -3.5 0 
" style="stroke: #000000; stroke-width: 0.8"/>
      </defs>
      <g>
       <use xlink:href="#md0a168d607" x="90" y="333.490909" style="stroke: #000000; stroke-width: 0.8"/>
      </g>
     </g>
     <g id="text_7">
      <!-- 0.0 -->
      <g transform="translate(67.096875 337.290128)scale(0.1 -0.1)">
       <use xlink:href="#DejaVuSans-30"/>
       <use xlink:href="#DejaVuSans-2e" x="63.623047"/>
       <use xlink:href="#DejaVuSans-30" x="95.410156"/>
      </g>
     </g>
    </g>
    <g id="ytick_2">
     <g id="line2d_8">
      <g>
       <use xlink:href="#md0a168d607" x="90" y="284.072727" style="stroke: #000000; stroke-width: 0.8"/>
      </g>
     </g>
     <g id="text_8">
      <!-- 0.2 -->
      <g transform="translate(67.096875 287.871946)scale(0.1 -0.1)">
       <use xlink:href="#DejaVuSans-30"/>
       <use xlink:href="#DejaVuSans-2e" x="63.623047"/>
       <use xlink:href="#DejaVuSans-32" x="95.410156"/>
      </g>
     </g>
    </g>
    <g id="ytick_3">
     <g id="line2d_9">
      <g>
       <use xlink:href="#md0a168d607" x="90" y="234.654545" style="stroke: #000000; stroke-width: 0.8"/>
      </g>
     </g>
     <g id="text_9">
      <!-- 0.4 -->
      <g transform="translate(67.096875 238.453764)scale(0.1 -0.1)">
       <use xlink:href="#DejaVuSans-30"/>
       <use xlink:href="#DejaVuSans-2e" x="63.623047"/>
       <use xlink:href="#DejaVuSans-34" x="95.410156"/>
      </g>
     </g>
    </g>
    <g id="ytick_4">
     <g id="line2d_10">
      <g>
       <use xlink:href="#md0a168d607" x="90" y="185.236364" style="stroke: #000000; stroke-width: 0.8"/>
      </g>
     </g>
     <g id="text_10">
      <!-- 0.6 -->
      <g transform="translate(67.096875 189.035582)scale(0.1 -0.1)">
       <use xlink:href="#DejaVuSans-30"/>
       <use xlink:href="#DejaVuSans-2e" x="63.623047"/>
       <use xlink:href="#DejaVuSans-36" x="95.410156"/>
      </g>
     </g>
    </g>
    <g id="ytick_5">
     <g id="line2d_11">
      <g>
       <use xlink:href="#md0a168d607" x="90" y="135.818182" style="stroke: #000000; stroke-width: 0.8"/>
      </g>
     </g>
     <g id="text_11">
      <!-- 0.8 -->
      <g transform="translate(67.096875 139.617401)scale(0.1 -0.1)">
       <use xlink:href="#DejaVuSans-30"/>
       <use xlink:href="#DejaVuSans-2e" x="63.623047"/>
       <use xlink:href="#DejaVuSans-38" x="95.410156"/>
      </g>
     </g>
    </g>
    <g id="ytick_6">
     <g id="line2d_12">
      <g>
       <use xlink:href="#md0a168d607" x="90" y="86.4" style="stroke: #000000; stroke-width: 0.8"/>
      </g>
     </g>
     <g id="text_12">
      <!-- 1.0 -->
      <g transform="translate(67.096875 90.199219)scale(0.1 -0.1)">
       <use xlink:href="#DejaVuSans-31"/>
       <use xlink:href="#DejaVuSans-2e" x="63.623047"/>
       <use xlink:href="#DejaVuSans-30" x="95.410156"/>
      </g>
     </g>
    </g>
   </g>
   <g id="patch_3">
    <path d="M 90 333.490909 
L 90 86.4 
" style="fill: none; stroke: #000000; stroke-width: 0.8; stroke-linejoin: miter; stroke-linecap: square"/>
   </g>
   <g id="patch_4">
    <path d="M 343.636364 333.490909 
L 343.636364 86.4 
" style="fill: none; stroke: #000000; stroke-width: 0.8; stroke-linejoin: miter; stroke-linecap: square"/>
   </g>
   <g id="patch_5">
    <path d="M 90 333.490909 
L 343.636364 333.490909 
" style="fill: none; stroke: #000000; stroke-width: 0.8; stroke-linejoin: miter; stroke-linecap: square"/>
   </g>
   <g id="patch_6">
    <path d="M 90 86.4 
L 343.636364 86.4 
" style="fill: none; stroke: #000000; stroke-width: 0.8; stroke-linejoin: miter; stroke-linecap: square"/>
   </g>
  </g>
  <g id="axes_2">
   <g id="patch_7">
    <path d="M 394.363636 333.490909 
L 648 333.490909 
L 648 86.4 
L 394.363636 86.4 
z
" style="fill: #ffffff"/>
   </g>
   <g id="PolyCollection_1">
    <defs>
     <path id="mbbae5b643a" d="M 405.892562 -447.198313 
L 405.892562 -404.20891 
L 407.342741 -404.279035 
L 408.792921 -402.505708 
L 410.2431 -407.98711 
L 411.693279 -420.611462 
L 413.143459 -441.474519 
L 414.593638 -489.4633 
L 416.043817 -486.297457 
L 417.493997 -528.037778 
L 418.944176 -537.754543 
L 420.394355 -512.513721 
L 421.844535 -551.505429 
L 423.294714 -556.474518 
L 424.744893 -559.320868 
L 426.195073 -529.450263 
L 427.645252 -572.96777 
L 429.095431 -586.319663 
L 430.54561 -598.777327 
L 431.99579 -606.907707 
L 433.445969 -610.600873 
L 434.896148 -611.162532 
L 436.346328 -609.201543 
L 437.796507 -604.429073 
L 439.246686 -597.219736 
L 440.696866 -590.147568 
L 442.147045 -558.974001 
L 443.597224 -590.147568 
L 445.047404 -597.219736 
L 446.497583 -604.443409 
L 447.947762 -609.295028 
L 449.397942 -611.637287 
L 450.848121 -612.478566 
L 452.2983 -612.707197 
L 453.74848 -612.754659 
L 455.198659 -612.763256 
L 456.648838 -612.763256 
L 458.099018 -612.763256 
L 459.549197 -612.763256 
L 460.999376 -612.763256 
L 462.449556 -612.763256 
L 463.899735 -612.763256 
L 465.349914 -612.763256 
L 466.800094 -612.763256 
L 468.250273 -612.763256 
L 469.700452 -612.763256 
L 471.150632 -612.763256 
L 472.600811 -612.763256 
L 474.05099 -612.763256 
L 475.501169 -612.763256 
L 476.951349 -612.763256 
L 478.401528 -612.763256 
L 479.851707 -612.763256 
L 481.301887 -612.763256 
L 482.752066 -612.763256 
L 484.202245 -612.763256 
L 485.652425 -612.763256 
L 487.102604 -612.763256 
L 488.552783 -612.763256 
L 490.002963 -612.763256 
L 491.453142 -612.763256 
L 492.903321 -612.763256 
L 494.353501 -612.763256 
L 495.80368 -612.763256 
L 497.253859 -612.763256 
L 498.704039 -612.763256 
L 500.154218 -612.763256 
L 501.604397 -612.763256 
L 503.054577 -612.763256 
L 504.504756 -612.763256 
L 505.954935 -612.763256 
L 507.405115 -612.763256 
L 508.855294 -612.763256 
L 510.305473 -612.763256 
L 511.755653 -612.763256 
L 513.205832 -612.763256 
L 514.656011 -612.763256 
L 516.106191 -612.763256 
L 517.55637 -612.763256 
L 519.006549 -612.763256 
L 520.456729 -612.763256 
L 521.906908 -612.763256 
L 523.357087 -612.763256 
L 524.807266 -612.763256 
L 526.257446 -612.763256 
L 527.707625 -612.763256 
L 529.157804 -612.763256 
L 530.607984 -612.763256 
L 532.058163 -612.763256 
L 533.508342 -612.763256 
L 534.958522 -612.763256 
L 536.408701 -612.763256 
L 537.85888 -612.763256 
L 539.30906 -612.763256 
L 540.759239 -612.763256 
L 542.209418 -612.763256 
L 543.659598 -612.763256 
L 545.109777 -612.763256 
L 546.559956 -612.763256 
L 548.010136 -612.763256 
L 549.460315 -612.763256 
L 550.910494 -612.763256 
L 552.360674 -612.763256 
L 553.810853 -612.763256 
L 555.261032 -612.763256 
L 556.711212 -612.763256 
L 558.161391 -612.763256 
L 559.61157 -612.763256 
L 561.06175 -612.763256 
L 562.511929 -612.763256 
L 563.962108 -612.763256 
L 565.412288 -612.763256 
L 566.862467 -612.763256 
L 568.312646 -612.763256 
L 569.762826 -612.763256 
L 571.213005 -612.763256 
L 572.663184 -612.763256 
L 574.113363 -612.763256 
L 575.563543 -612.763256 
L 577.013722 -612.763256 
L 578.463901 -612.763256 
L 579.914081 -612.763256 
L 581.36426 -612.763256 
L 582.814439 -612.763256 
L 584.264619 -612.763256 
L 585.714798 -612.763256 
L 587.164977 -612.763256 
L 588.615157 -612.763256 
L 590.065336 -612.763256 
L 591.515515 -612.763256 
L 592.965695 -612.763256 
L 594.415874 -612.763256 
L 595.866053 -612.763256 
L 597.316233 -612.763256 
L 598.766412 -612.763256 
L 600.216591 -612.752178 
L 601.666771 -612.691023 
L 603.11695 -612.396427 
L 604.567129 -611.312422 
L 606.017309 -608.294373 
L 607.467488 -602.042963 
L 608.917667 -592.735112 
L 610.367847 -583.622478 
L 611.818026 -550.420287 
L 613.268205 -583.622478 
L 614.718385 -592.735112 
L 616.168564 -602.042963 
L 617.618743 -608.294373 
L 619.068923 -611.312422 
L 620.519102 -612.396427 
L 621.969281 -612.691023 
L 623.41946 -612.752178 
L 624.86964 -612.763256 
L 626.319819 -612.763256 
L 627.769998 -612.763256 
L 629.220178 -612.763256 
L 630.670357 -612.763256 
L 632.120536 -612.763256 
L 633.570716 -612.763256 
L 635.020895 -612.763256 
L 636.471074 -612.763256 
L 636.471074 -612.763256 
L 636.471074 -612.763256 
L 635.020895 -612.763256 
L 633.570716 -612.763256 
L 632.120536 -612.763256 
L 630.670357 -612.763256 
L 629.220178 -612.763256 
L 627.769998 -612.763256 
L 626.319819 -612.763256 
L 624.86964 -612.763256 
L 623.41946 -612.752178 
L 621.969281 -612.691023 
L 620.519102 -612.396427 
L 619.068923 -611.312422 
L 617.618743 -608.294373 
L 616.168564 -602.042963 
L 614.718385 -592.735112 
L 613.268205 -583.622478 
L 611.818026 -609.06457 
L 610.367847 -583.622478 
L 608.917667 -592.735112 
L 607.467488 -602.042963 
L 606.017309 -608.294373 
L 604.567129 -611.312422 
L 603.11695 -612.396427 
L 601.666771 -612.691023 
L 600.216591 -612.752178 
L 598.766412 -612.763256 
L 597.316233 -612.763256 
L 595.866053 -612.763256 
L 594.415874 -612.763256 
L 592.965695 -612.763256 
L 591.515515 -612.763256 
L 590.065336 -612.763256 
L 588.615157 -612.763256 
L 587.164977 -612.763256 
L 585.714798 -612.763256 
L 584.264619 -612.763256 
L 582.814439 -612.763256 
L 581.36426 -612.763256 
L 579.914081 -612.763256 
L 578.463901 -612.763256 
L 577.013722 -612.763256 
L 575.563543 -612.763256 
L 574.113363 -612.763256 
L 572.663184 -612.763256 
L 571.213005 -612.763256 
L 569.762826 -612.763256 
L 568.312646 -612.763256 
L 566.862467 -612.763256 
L 565.412288 -612.763256 
L 563.962108 -612.763256 
L 562.511929 -612.763256 
L 561.06175 -612.763256 
L 559.61157 -612.763256 
L 558.161391 -612.763256 
L 556.711212 -612.763256 
L 555.261032 -612.763256 
L 553.810853 -612.763256 
L 552.360674 -612.763256 
L 550.910494 -612.763256 
L 549.460315 -612.763256 
L 548.010136 -612.763256 
L 546.559956 -612.763256 
L 545.109777 -612.763256 
L 543.659598 -612.763256 
L 542.209418 -612.763256 
L 540.759239 -612.763256 
L 539.30906 -612.763256 
L 537.85888 -612.763256 
L 536.408701 -612.763256 
L 534.958522 -612.763256 
L 533.508342 -612.763256 
L 532.058163 -612.763256 
L 530.607984 -612.763256 
L 529.157804 -612.763256 
L 527.707625 -612.763256 
L 526.257446 -612.763256 
L 524.807266 -612.763256 
L 523.357087 -612.763256 
L 521.906908 -612.763256 
L 520.456729 -612.763256 
L 519.006549 -612.763256 
L 517.55637 -612.763256 
L 516.106191 -612.763256 
L 514.656011 -612.763256 
L 513.205832 -612.763256 
L 511.755653 -612.763256 
L 510.305473 -612.763256 
L 508.855294 -612.763256 
L 507.405115 -612.763256 
L 505.954935 -612.763256 
L 504.504756 -612.763256 
L 503.054577 -612.763256 
L 501.604397 -612.763256 
L 500.154218 -612.763256 
L 498.704039 -612.763256 
L 497.253859 -612.763256 
L 495.80368 -612.763256 
L 494.353501 -612.763256 
L 492.903321 -612.763256 
L 491.453142 -612.763256 
L 490.002963 -612.763256 
L 488.552783 -612.763256 
L 487.102604 -612.763256 
L 485.652425 -612.763256 
L 484.202245 -612.763256 
L 482.752066 -612.763256 
L 481.301887 -612.763256 
L 479.851707 -612.763256 
L 478.401528 -612.763256 
L 476.951349 -612.763256 
L 475.501169 -612.763256 
L 474.05099 -612.763256 
L 472.600811 -612.763256 
L 471.150632 -612.763256 
L 469.700452 -612.763256 
L 468.250273 -612.763256 
L 466.800094 -612.763256 
L 465.349914 -612.763256 
L 463.899735 -612.763256 
L 462.449556 -612.763256 
L 460.999376 -612.763256 
L 459.549197 -612.763256 
L 458.099018 -612.763256 
L 456.648838 -612.763256 
L 455.198659 -612.763256 
L 453.74848 -612.754659 
L 452.2983 -612.707197 
L 450.848121 -612.478566 
L 449.397942 -611.637287 
L 447.947762 -609.295028 
L 446.497583 -604.443409 
L 445.047404 -597.219736 
L 443.597224 -590.147568 
L 442.147045 -615.298646 
L 440.696866 -590.147568 
L 439.246686 -597.219736 
L 437.796507 -604.429073 
L 436.346328 -609.201543 
L 434.896148 -611.162532 
L 433.445969 -610.600873 
L 431.99579 -606.907707 
L 430.54561 -598.777327 
L 429.095431 -586.319663 
L 427.645252 -572.96777 
L 426.195073 -597.693706 
L 424.744893 -559.320868 
L 423.294714 -556.474518 
L 421.844535 -551.505429 
L 420.394355 -577.229621 
L 418.944176 -537.754543 
L 417.493997 -528.037778 
L 416.043817 -537.980862 
L 414.593638 -489.4633 
L 413.143459 -486.48498 
L 411.693279 -463.538325 
L 410.2431 -449.104114 
L 408.792921 -444.949828 
L 407.342741 -444.102166 
L 405.892562 -447.198313 
z
" style="stroke: #9467bd; stroke-opacity: 0.2"/>
    </defs>
    <g clip-path="url(#pc36162a553)">
     <use xlink:href="#mbbae5b643a" x="0" y="720" style="fill: #9467bd; fill-opacity: 0.2; stroke: #9467bd; stroke-opacity: 0.2"/>
    </g>
   </g>
   <g id="PolyCollection_2">
    <defs>
     <path id="me02db06738" d="M 405.892562 -612.763256 
L 405.892562 -612.763256 
L 407.342741 -612.763256 
L 408.792921 -612.763256 
L 410.2431 -612.763256 
L 411.693279 -612.763256 
L 413.143459 -612.759665 
L 414.593638 -612.739845 
L 416.043817 -612.644365 
L 417.493997 -612.293036 
L 418.944176 -611.314876 
L 420.394355 -609.285012 
L 421.844535 -606.244147 
L 423.294714 -603.168609 
L 424.744893 -584.1961 
L 426.195073 -601.228497 
L 427.645252 -600.727572 
L 429.095431 -597.434056 
L 430.54561 -590.604115 
L 431.99579 -564.857426 
L 433.445969 -560.012858 
L 434.896148 -553.224891 
L 436.346328 -554.972547 
L 437.796507 -559.538161 
L 439.246686 -560.973176 
L 440.696866 -571.887611 
L 442.147045 -587.842468 
L 443.597224 -578.384402 
L 445.047404 -581.570388 
L 446.497583 -582.076378 
L 447.947762 -583.439998 
L 449.397942 -583.208637 
L 450.848121 -583.210616 
L 452.2983 -576.417618 
L 453.74848 -580.444797 
L 455.198659 -579.679367 
L 456.648838 -584.739831 
L 458.099018 -578.274588 
L 459.549197 -557.53901 
L 460.999376 -549.510434 
L 462.449556 -558.615373 
L 463.899735 -546.039676 
L 465.349914 -550.680698 
L 466.800094 -573.237703 
L 468.250273 -579.122517 
L 469.700452 -580.34199 
L 471.150632 -562.620896 
L 472.600811 -576.17087 
L 474.05099 -562.464933 
L 475.501169 -573.38917 
L 476.951349 -570.67859 
L 478.401528 -555.823463 
L 479.851707 -558.803007 
L 481.301887 -581.682274 
L 482.752066 -591.191675 
L 484.202245 -595.975334 
L 485.652425 -593.456856 
L 487.102604 -584.917264 
L 488.552783 -560.311537 
L 490.002963 -563.148472 
L 491.453142 -543.296696 
L 492.903321 -540.044583 
L 494.353501 -543.368088 
L 495.80368 -551.945657 
L 497.253859 -563.880928 
L 498.704039 -571.845044 
L 500.154218 -586.987344 
L 501.604397 -588.209963 
L 503.054577 -576.617685 
L 504.504756 -575.953652 
L 505.954935 -582.461881 
L 507.405115 -578.180347 
L 508.855294 -561.549118 
L 510.305473 -557.80006 
L 511.755653 -558.639 
L 513.205832 -575.910847 
L 514.656011 -574.519989 
L 516.106191 -596.76486 
L 517.55637 -605.382855 
L 519.006549 -599.318319 
L 520.456729 -613.286602 
L 521.906908 -613.758585 
L 523.357087 -613.444906 
L 524.807266 -613.075772 
L 526.257446 -612.868687 
L 527.707625 -612.790812 
L 529.157804 -612.768682 
L 530.607984 -612.764088 
L 532.058163 -612.763256 
L 533.508342 -612.763256 
L 534.958522 -612.763256 
L 536.408701 -612.763256 
L 537.85888 -612.763256 
L 539.30906 -612.763256 
L 540.759239 -612.763256 
L 542.209418 -612.763256 
L 543.659598 -612.763256 
L 545.109777 -612.763256 
L 546.559956 -612.763256 
L 548.010136 -612.763256 
L 549.460315 -612.763256 
L 550.910494 -612.763256 
L 552.360674 -612.763256 
L 553.810853 -612.763256 
L 555.261032 -612.763256 
L 556.711212 -612.763256 
L 558.161391 -612.763256 
L 559.61157 -612.763256 
L 561.06175 -612.763256 
L 562.511929 -612.763256 
L 563.962108 -612.763256 
L 565.412288 -612.763256 
L 566.862467 -612.763256 
L 568.312646 -612.763256 
L 569.762826 -612.763256 
L 571.213005 -612.763256 
L 572.663184 -612.763256 
L 574.113363 -612.763256 
L 575.563543 -612.763256 
L 577.013722 -612.763256 
L 578.463901 -612.763256 
L 579.914081 -612.763256 
L 581.36426 -612.763256 
L 582.814439 -612.763256 
L 584.264619 -612.763256 
L 585.714798 -612.763256 
L 587.164977 -612.763256 
L 588.615157 -612.763256 
L 590.065336 -612.763256 
L 591.515515 -612.763256 
L 592.965695 -612.763256 
L 594.415874 -612.763256 
L 595.866053 -612.763256 
L 597.316233 -612.763256 
L 598.766412 -612.763256 
L 600.216591 -612.763256 
L 601.666771 -612.763256 
L 603.11695 -612.763256 
L 604.567129 -612.763256 
L 606.017309 -612.763256 
L 607.467488 -612.763256 
L 608.917667 -612.763256 
L 610.367847 -612.763256 
L 611.818026 -612.763256 
L 613.268205 -612.763256 
L 614.718385 -612.763256 
L 616.168564 -612.763256 
L 617.618743 -612.763256 
L 619.068923 -612.763256 
L 620.519102 -612.763256 
L 621.969281 -612.763256 
L 623.41946 -612.763256 
L 624.86964 -612.763256 
L 626.319819 -612.763256 
L 627.769998 -612.763256 
L 629.220178 -612.763256 
L 630.670357 -612.763256 
L 632.120536 -612.763256 
L 633.570716 -612.763256 
L 635.020895 -612.763256 
L 636.471074 -612.763256 
L 636.471074 -612.763256 
L 636.471074 -612.763256 
L 635.020895 -612.763256 
L 633.570716 -612.763256 
L 632.120536 -612.763256 
L 630.670357 -612.763256 
L 629.220178 -612.763256 
L 627.769998 -612.763256 
L 626.319819 -612.763256 
L 624.86964 -612.763256 
L 623.41946 -612.763256 
L 621.969281 -612.763256 
L 620.519102 -612.763256 
L 619.068923 -612.763256 
L 617.618743 -612.763256 
L 616.168564 -612.763256 
L 614.718385 -612.763256 
L 613.268205 -612.763256 
L 611.818026 -612.763256 
L 610.367847 -612.763256 
L 608.917667 -612.763256 
L 607.467488 -612.763256 
L 606.017309 -612.763256 
L 604.567129 -612.763256 
L 603.11695 -612.763256 
L 601.666771 -612.763256 
L 600.216591 -612.763256 
L 598.766412 -612.763256 
L 597.316233 -612.763256 
L 595.866053 -612.763256 
L 594.415874 -612.763256 
L 592.965695 -612.763256 
L 591.515515 -612.763256 
L 590.065336 -612.763256 
L 588.615157 -612.763256 
L 587.164977 -612.763256 
L 585.714798 -612.763256 
L 584.264619 -612.763256 
L 582.814439 -612.763256 
L 581.36426 -612.763256 
L 579.914081 -612.763256 
L 578.463901 -612.763256 
L 577.013722 -612.763256 
L 575.563543 -612.763256 
L 574.113363 -612.763256 
L 572.663184 -612.763256 
L 571.213005 -612.763256 
L 569.762826 -612.763256 
L 568.312646 -612.763256 
L 566.862467 -612.763256 
L 565.412288 -612.763256 
L 563.962108 -612.763256 
L 562.511929 -612.763256 
L 561.06175 -612.763256 
L 559.61157 -612.763256 
L 558.161391 -612.763256 
L 556.711212 -612.763256 
L 555.261032 -612.763256 
L 553.810853 -612.763256 
L 552.360674 -612.763256 
L 550.910494 -612.763256 
L 549.460315 -612.763256 
L 548.010136 -612.763256 
L 546.559956 -612.763256 
L 545.109777 -612.763256 
L 543.659598 -612.763256 
L 542.209418 -612.763256 
L 540.759239 -612.763256 
L 539.30906 -612.763256 
L 537.85888 -612.763256 
L 536.408701 -612.763256 
L 534.958522 -612.763256 
L 533.508342 -612.763256 
L 532.058163 -612.763256 
L 530.607984 -612.764088 
L 529.157804 -612.768682 
L 527.707625 -612.790812 
L 526.257446 -612.868687 
L 524.807266 -613.075772 
L 523.357087 -613.444906 
L 521.906908 -613.758585 
L 520.456729 -613.286602 
L 519.006549 -622.368595 
L 517.55637 -605.382855 
L 516.106191 -596.76486 
L 514.656011 -597.762053 
L 513.205832 -575.910847 
L 511.755653 -579.755606 
L 510.305473 -578.693787 
L 508.855294 -583.236812 
L 507.405115 -578.180347 
L 505.954935 -582.461881 
L 504.504756 -593.922471 
L 503.054577 -597.15893 
L 501.604397 -588.209963 
L 500.154218 -586.987344 
L 498.704039 -591.592627 
L 497.253859 -582.057327 
L 495.80368 -574.413738 
L 494.353501 -567.753467 
L 492.903321 -565.419402 
L 491.453142 -567.82383 
L 490.002963 -563.148472 
L 488.552783 -587.137842 
L 487.102604 -584.917264 
L 485.652425 -593.456856 
L 484.202245 -595.975334 
L 482.752066 -591.191675 
L 481.301887 -581.682274 
L 479.851707 -587.055331 
L 478.401528 -582.835526 
L 476.951349 -570.67859 
L 475.501169 -573.38917 
L 474.05099 -587.513291 
L 472.600811 -576.17087 
L 471.150632 -594.015233 
L 469.700452 -580.34199 
L 468.250273 -579.122517 
L 466.800094 -573.237703 
L 465.349914 -579.826728 
L 463.899735 -573.016038 
L 462.449556 -558.615373 
L 460.999376 -575.553035 
L 459.549197 -582.249371 
L 458.099018 -578.274588 
L 456.648838 -584.739831 
L 455.198659 -595.932686 
L 453.74848 -596.617094 
L 452.2983 -601.677949 
L 450.848121 -597.556539 
L 449.397942 -600.797902 
L 447.947762 -602.518257 
L 446.497583 -603.964372 
L 445.047404 -603.081602 
L 443.597224 -603.198112 
L 442.147045 -587.842468 
L 440.696866 -594.676793 
L 439.246686 -595.040124 
L 437.796507 -587.497369 
L 436.346328 -587.050969 
L 434.896148 -589.389629 
L 433.445969 -590.130617 
L 431.99579 -599.428747 
L 430.54561 -590.604115 
L 429.095431 -597.434056 
L 427.645252 -600.727572 
L 426.195073 -601.228497 
L 424.744893 -618.668082 
L 423.294714 -603.168609 
L 421.844535 -606.244147 
L 420.394355 -609.285012 
L 418.944176 -611.314876 
L 417.493997 -612.293036 
L 416.043817 -612.644365 
L 414.593638 -612.739845 
L 413.143459 -612.759665 
L 411.693279 -612.763256 
L 410.2431 -612.763256 
L 408.792921 -612.763256 
L 407.342741 -612.763256 
L 405.892562 -612.763256 
z
" style="stroke: #1f77b4; stroke-opacity: 0.2"/>
    </defs>
    <g clip-path="url(#pc36162a553)">
     <use xlink:href="#me02db06738" x="0" y="720" style="fill: #1f77b4; fill-opacity: 0.2; stroke: #1f77b4; stroke-opacity: 0.2"/>
    </g>
   </g>
   <g id="PolyCollection_3">
    <defs>
     <path id="m5bcd909bb6" d="M 405.892562 -612.763256 
L 405.892562 -612.763256 
L 407.342741 -612.763256 
L 408.792921 -612.763256 
L 410.2431 -612.763256 
L 411.693279 -612.763256 
L 413.143459 -612.763256 
L 414.593638 -612.763256 
L 416.043817 -612.763256 
L 417.493997 -612.763256 
L 418.944176 -612.763256 
L 420.394355 -612.763256 
L 421.844535 -612.763256 
L 423.294714 -612.763256 
L 424.744893 -612.763256 
L 426.195073 -612.763256 
L 427.645252 -612.763256 
L 429.095431 -612.763256 
L 430.54561 -612.763256 
L 431.99579 -612.763256 
L 433.445969 -612.763256 
L 434.896148 -612.763256 
L 436.346328 -612.763256 
L 437.796507 -612.763256 
L 439.246686 -612.763256 
L 440.696866 -612.763256 
L 442.147045 -612.763256 
L 443.597224 -612.763256 
L 445.047404 -612.763256 
L 446.497583 -612.763256 
L 447.947762 -612.763256 
L 449.397942 -612.763256 
L 450.848121 -612.763256 
L 452.2983 -612.763256 
L 453.74848 -612.763256 
L 455.198659 -612.763256 
L 456.648838 -612.763256 
L 458.099018 -612.763256 
L 459.549197 -612.763256 
L 460.999376 -612.763256 
L 462.449556 -612.763256 
L 463.899735 -612.763256 
L 465.349914 -612.763256 
L 466.800094 -612.763256 
L 468.250273 -612.763256 
L 469.700452 -612.763256 
L 471.150632 -612.763256 
L 472.600811 -612.763256 
L 474.05099 -612.763256 
L 475.501169 -612.763256 
L 476.951349 -612.763256 
L 478.401528 -612.763256 
L 479.851707 -612.763256 
L 481.301887 -612.763256 
L 482.752066 -612.763256 
L 484.202245 -612.763256 
L 485.652425 -612.763256 
L 487.102604 -612.763256 
L 488.552783 -612.763256 
L 490.002963 -612.763256 
L 491.453142 -612.763256 
L 492.903321 -612.763256 
L 494.353501 -612.763256 
L 495.80368 -612.763256 
L 497.253859 -612.763256 
L 498.704039 -612.763256 
L 500.154218 -612.763256 
L 501.604397 -612.763256 
L 503.054577 -612.763256 
L 504.504756 -612.763256 
L 505.954935 -612.763256 
L 507.405115 -612.763256 
L 508.855294 -612.763256 
L 510.305473 -612.763256 
L 511.755653 -612.763256 
L 513.205832 -612.763256 
L 514.656011 -612.763256 
L 516.106191 -612.763256 
L 517.55637 -612.763256 
L 519.006549 -612.763256 
L 520.456729 -612.763256 
L 521.906908 -612.763256 
L 523.357087 -612.763256 
L 524.807266 -612.763256 
L 526.257446 -612.763256 
L 527.707625 -612.763256 
L 529.157804 -612.763256 
L 530.607984 -612.763256 
L 532.058163 -612.763256 
L 533.508342 -612.763256 
L 534.958522 -612.763256 
L 536.408701 -612.763256 
L 537.85888 -612.763256 
L 539.30906 -612.763256 
L 540.759239 -612.763256 
L 542.209418 -612.763256 
L 543.659598 -612.763256 
L 545.109777 -612.763256 
L 546.559956 -612.763256 
L 548.010136 -612.763256 
L 549.460315 -612.763256 
L 550.910494 -612.763256 
L 552.360674 -612.763256 
L 553.810853 -612.763256 
L 555.261032 -612.763256 
L 556.711212 -612.763256 
L 558.161391 -612.763256 
L 559.61157 -612.763256 
L 561.06175 -612.763256 
L 562.511929 -612.763256 
L 563.962108 -612.763256 
L 565.412288 -612.763256 
L 566.862467 -612.763256 
L 568.312646 -612.763256 
L 569.762826 -612.763256 
L 571.213005 -612.763256 
L 572.663184 -612.763256 
L 574.113363 -612.763256 
L 575.563543 -612.763256 
L 577.013722 -612.763256 
L 578.463901 -612.763256 
L 579.914081 -612.763256 
L 581.36426 -612.763256 
L 582.814439 -612.763256 
L 584.264619 -612.763256 
L 585.714798 -612.763256 
L 587.164977 -612.763256 
L 588.615157 -612.763256 
L 590.065336 -612.763256 
L 591.515515 -612.763256 
L 592.965695 -612.763256 
L 594.415874 -612.763256 
L 595.866053 -612.763256 
L 597.316233 -612.763256 
L 598.766412 -612.763256 
L 600.216591 -612.763256 
L 601.666771 -612.763256 
L 603.11695 -612.763256 
L 604.567129 -612.763256 
L 606.017309 -612.763256 
L 607.467488 -612.763256 
L 608.917667 -612.763256 
L 610.367847 -612.763256 
L 611.818026 -612.763256 
L 613.268205 -612.763256 
L 614.718385 -612.763256 
L 616.168564 -612.763256 
L 617.618743 -612.763256 
L 619.068923 -612.763256 
L 620.519102 -612.763256 
L 621.969281 -612.763256 
L 623.41946 -612.763256 
L 624.86964 -612.763256 
L 626.319819 -612.763256 
L 627.769998 -612.763256 
L 629.220178 -612.763256 
L 630.670357 -612.763256 
L 632.120536 -612.763256 
L 633.570716 -612.763256 
L 635.020895 -612.763256 
L 636.471074 -612.763256 
L 636.471074 -612.763256 
L 636.471074 -612.763256 
L 635.020895 -612.763256 
L 633.570716 -612.763256 
L 632.120536 -612.763256 
L 630.670357 -612.763256 
L 629.220178 -612.763256 
L 627.769998 -612.763256 
L 626.319819 -612.763256 
L 624.86964 -612.763256 
L 623.41946 -612.763256 
L 621.969281 -612.763256 
L 620.519102 -612.763256 
L 619.068923 -612.763256 
L 617.618743 -612.763256 
L 616.168564 -612.763256 
L 614.718385 -612.763256 
L 613.268205 -612.763256 
L 611.818026 -612.763256 
L 610.367847 -612.763256 
L 608.917667 -612.763256 
L 607.467488 -612.763256 
L 606.017309 -612.763256 
L 604.567129 -612.763256 
L 603.11695 -612.763256 
L 601.666771 -612.763256 
L 600.216591 -612.763256 
L 598.766412 -612.763256 
L 597.316233 -612.763256 
L 595.866053 -612.763256 
L 594.415874 -612.763256 
L 592.965695 -612.763256 
L 591.515515 -612.763256 
L 590.065336 -612.763256 
L 588.615157 -612.763256 
L 587.164977 -612.763256 
L 585.714798 -612.763256 
L 584.264619 -612.763256 
L 582.814439 -612.763256 
L 581.36426 -612.763256 
L 579.914081 -612.763256 
L 578.463901 -612.763256 
L 577.013722 -612.763256 
L 575.563543 -612.763256 
L 574.113363 -612.763256 
L 572.663184 -612.763256 
L 571.213005 -612.763256 
L 569.762826 -612.763256 
L 568.312646 -612.763256 
L 566.862467 -612.763256 
L 565.412288 -612.763256 
L 563.962108 -612.763256 
L 562.511929 -612.763256 
L 561.06175 -612.763256 
L 559.61157 -612.763256 
L 558.161391 -612.763256 
L 556.711212 -612.763256 
L 555.261032 -612.763256 
L 553.810853 -612.763256 
L 552.360674 -612.763256 
L 550.910494 -612.763256 
L 549.460315 -612.763256 
L 548.010136 -612.763256 
L 546.559956 -612.763256 
L 545.109777 -612.763256 
L 543.659598 -612.763256 
L 542.209418 -612.763256 
L 540.759239 -612.763256 
L 539.30906 -612.763256 
L 537.85888 -612.763256 
L 536.408701 -612.763256 
L 534.958522 -612.763256 
L 533.508342 -612.763256 
L 532.058163 -612.763256 
L 530.607984 -612.763256 
L 529.157804 -612.763256 
L 527.707625 -612.763256 
L 526.257446 -612.763256 
L 524.807266 -612.763256 
L 523.357087 -612.763256 
L 521.906908 -612.763256 
L 520.456729 -612.763256 
L 519.006549 -612.763256 
L 517.55637 -612.763256 
L 516.106191 -612.763256 
L 514.656011 -612.763256 
L 513.205832 -612.763256 
L 511.755653 -612.763256 
L 510.305473 -612.763256 
L 508.855294 -612.763256 
L 507.405115 -612.763256 
L 505.954935 -612.763256 
L 504.504756 -612.763256 
L 503.054577 -612.763256 
L 501.604397 -612.763256 
L 500.154218 -612.763256 
L 498.704039 -612.763256 
L 497.253859 -612.763256 
L 495.80368 -612.763256 
L 494.353501 -612.763256 
L 492.903321 -612.763256 
L 491.453142 -612.763256 
L 490.002963 -612.763256 
L 488.552783 -612.763256 
L 487.102604 -612.763256 
L 485.652425 -612.763256 
L 484.202245 -612.763256 
L 482.752066 -612.763256 
L 481.301887 -612.763256 
L 479.851707 -612.763256 
L 478.401528 -612.763256 
L 476.951349 -612.763256 
L 475.501169 -612.763256 
L 474.05099 -612.763256 
L 472.600811 -612.763256 
L 471.150632 -612.763256 
L 469.700452 -612.763256 
L 468.250273 -612.763256 
L 466.800094 -612.763256 
L 465.349914 -612.763256 
L 463.899735 -612.763256 
L 462.449556 -612.763256 
L 460.999376 -612.763256 
L 459.549197 -612.763256 
L 458.099018 -612.763256 
L 456.648838 -612.763256 
L 455.198659 -612.763256 
L 453.74848 -612.763256 
L 452.2983 -612.763256 
L 450.848121 -612.763256 
L 449.397942 -612.763256 
L 447.947762 -612.763256 
L 446.497583 -612.763256 
L 445.047404 -612.763256 
L 443.597224 -612.763256 
L 442.147045 -612.763256 
L 440.696866 -612.763256 
L 439.246686 -612.763256 
L 437.796507 -612.763256 
L 436.346328 -612.763256 
L 434.896148 -612.763256 
L 433.445969 -612.763256 
L 431.99579 -612.763256 
L 430.54561 -612.763256 
L 429.095431 -612.763256 
L 427.645252 -612.763256 
L 426.195073 -612.763256 
L 424.744893 -612.763256 
L 423.294714 -612.763256 
L 421.844535 -612.763256 
L 420.394355 -612.763256 
L 418.944176 -612.763256 
L 417.493997 -612.763256 
L 416.043817 -612.763256 
L 414.593638 -612.763256 
L 413.143459 -612.763256 
L 411.693279 -612.763256 
L 410.2431 -612.763256 
L 408.792921 -612.763256 
L 407.342741 -612.763256 
L 405.892562 -612.763256 
z
" style="stroke: #d62728; stroke-opacity: 0.2"/>
    </defs>
    <g clip-path="url(#pc36162a553)">
     <use xlink:href="#m5bcd909bb6" x="0" y="720" style="fill: #d62728; fill-opacity: 0.2; stroke: #d62728; stroke-opacity: 0.2"/>
    </g>
   </g>
   <g id="PolyCollection_4">
    <defs>
     <path id="mf7041e11f0" d="M 405.892562 -612.446389 
L 405.892562 -612.446389 
L 407.342741 -611.676271 
L 408.792921 -609.313594 
L 410.2431 -603.956344 
L 411.693279 -594.540512 
L 413.143459 -581.557351 
L 414.593638 -554.123728 
L 416.043817 -555.185374 
L 417.493997 -533.10523 
L 418.944176 -529.441073 
L 420.394355 -547.095184 
L 421.844535 -534.755121 
L 423.294714 -540.252172 
L 424.744893 -568.273027 
L 426.195073 -574.433626 
L 427.645252 -557.402637 
L 429.095431 -559.385319 
L 430.54561 -563.794827 
L 431.99579 -595.316634 
L 433.445969 -602.740848 
L 434.896148 -608.088376 
L 436.346328 -611.010536 
L 437.796507 -612.238317 
L 439.246686 -612.638484 
L 440.696866 -612.740291 
L 442.147045 -612.760181 
L 443.597224 -612.763256 
L 445.047404 -612.76024 
L 446.497583 -612.74001 
L 447.947762 -612.640046 
L 449.397942 -612.249743 
L 450.848121 -611.074008 
L 452.2983 -608.375765 
L 453.74848 -603.719651 
L 455.198659 -597.847703 
L 456.648838 -577.098827 
L 458.099018 -573.641858 
L 459.549197 -589.745795 
L 460.999376 -589.299592 
L 462.449556 -570.808036 
L 463.899735 -578.534488 
L 465.349914 -566.81651 
L 466.800094 -537.515851 
L 468.250273 -529.00278 
L 469.700452 -527.546929 
L 471.150632 -548.268282 
L 472.600811 -534.026204 
L 474.05099 -555.501394 
L 475.501169 -540.455859 
L 476.951349 -544.430994 
L 478.401528 -561.526 
L 479.851707 -556.581923 
L 481.301887 -529.419684 
L 482.752066 -518.088311 
L 484.202245 -511.352229 
L 485.652425 -516.128623 
L 487.102604 -524.881914 
L 488.552783 -555.351356 
L 490.002963 -557.28381 
L 491.453142 -585.164704 
L 492.903321 -596.490913 
L 494.353501 -602.987415 
L 495.80368 -603.756914 
L 497.253859 -599.364683 
L 498.704039 -592.12068 
L 500.154218 -573.030412 
L 501.604397 -570.418347 
L 503.054577 -579.598581 
L 504.504756 -578.465852 
L 505.954935 -568.532392 
L 507.405115 -569.808092 
L 508.855294 -582.249057 
L 510.305473 -582.372019 
L 511.755653 -576.847137 
L 513.205832 -555.651608 
L 514.656011 -552.908273 
L 516.106191 -528.603182 
L 517.55637 -517.259001 
L 519.006549 -519.021838 
L 520.456729 -491.827865 
L 521.906908 -482.852111 
L 523.357087 -476.155958 
L 524.807266 -473.318659 
L 526.257446 -474.254496 
L 527.707625 -474.96403 
L 529.157804 -475.436206 
L 530.607984 -472.367661 
L 532.058163 -472.677563 
L 533.508342 -470.443193 
L 534.958522 -467.863929 
L 536.408701 -468.761495 
L 537.85888 -466.572406 
L 539.30906 -466.05209 
L 540.759239 -460.796979 
L 542.209418 -462.292612 
L 543.659598 -460.265708 
L 545.109777 -457.417228 
L 546.559956 -454.630495 
L 548.010136 -454.154304 
L 549.460315 -456.331351 
L 550.910494 -454.512412 
L 552.360674 -453.03708 
L 553.810853 -449.534405 
L 555.261032 -442.913785 
L 556.711212 -435.124832 
L 558.161391 -428.281509 
L 559.61157 -420.169774 
L 561.06175 -413.908304 
L 562.511929 -407.89522 
L 563.962108 -408.985966 
L 565.412288 -406.424774 
L 566.862467 -408.185069 
L 568.312646 -404.453535 
L 569.762826 -402.420632 
L 571.213005 -397.740496 
L 572.663184 -402.023436 
L 574.113363 -402.360509 
L 575.563543 -408.869747 
L 577.013722 -414.238131 
L 578.463901 -421.475844 
L 579.914081 -428.185372 
L 581.36426 -434.518864 
L 582.814439 -437.796541 
L 584.264619 -439.713258 
L 585.714798 -444.822351 
L 587.164977 -445.861124 
L 588.615157 -448.799226 
L 590.065336 -450.162586 
L 591.515515 -451.620749 
L 592.965695 -449.7438 
L 594.415874 -448.626556 
L 595.866053 -446.126468 
L 597.316233 -439.814366 
L 598.766412 -436.637136 
L 600.216591 -439.022305 
L 601.666771 -437.175193 
L 603.11695 -435.936455 
L 604.567129 -438.3517 
L 606.017309 -446.544879 
L 607.467488 -457.687829 
L 608.917667 -474.881733 
L 610.367847 -486.86966 
L 611.818026 -509.7948 
L 613.268205 -496.806768 
L 614.718385 -496.208524 
L 616.168564 -495.93747 
L 617.618743 -502.255397 
L 619.068923 -509.793045 
L 620.519102 -519.135565 
L 621.969281 -525.298593 
L 623.41946 -527.157464 
L 624.86964 -531.433844 
L 626.319819 -535.025883 
L 627.769998 -539.823562 
L 629.220178 -539.408806 
L 630.670357 -544.190572 
L 632.120536 -543.457139 
L 633.570716 -545.094461 
L 635.020895 -548.786879 
L 636.471074 -550.845068 
L 636.471074 -569.476475 
L 636.471074 -569.476475 
L 635.020895 -568.148965 
L 633.570716 -566.96043 
L 632.120536 -564.495189 
L 630.670357 -561.312662 
L 629.220178 -564.211474 
L 627.769998 -560.53839 
L 626.319819 -559.666836 
L 624.86964 -555.799822 
L 623.41946 -552.06243 
L 621.969281 -545.347605 
L 620.519102 -540.771093 
L 619.068923 -536.199797 
L 617.618743 -529.044665 
L 616.168564 -525.320884 
L 614.718385 -523.207572 
L 613.268205 -525.286962 
L 611.818026 -509.7948 
L 610.367847 -517.827456 
L 608.917667 -504.528855 
L 607.467488 -494.513211 
L 606.017309 -483.9407 
L 604.567129 -478.54217 
L 603.11695 -474.400776 
L 601.666771 -471.23051 
L 600.216591 -470.2777 
L 598.766412 -475.743419 
L 597.316233 -477.249966 
L 595.866053 -475.88901 
L 594.415874 -477.434325 
L 592.965695 -479.178471 
L 591.515515 -478.834094 
L 590.065336 -479.826943 
L 588.615157 -478.227454 
L 587.164977 -476.238599 
L 585.714798 -471.763553 
L 584.264619 -471.865519 
L 582.814439 -468.962001 
L 581.36426 -465.926223 
L 579.914081 -462.999836 
L 578.463901 -457.794553 
L 577.013722 -452.233177 
L 575.563543 -445.810793 
L 574.113363 -442.985969 
L 572.663184 -437.829792 
L 571.213005 -441.555902 
L 569.762826 -440.733567 
L 568.312646 -444.246923 
L 566.862467 -444.526459 
L 565.412288 -447.794181 
L 563.962108 -446.39436 
L 562.511929 -451.580937 
L 561.06175 -454.328905 
L 559.61157 -460.878681 
L 558.161391 -467.806684 
L 556.711212 -476.427654 
L 555.261032 -482.94528 
L 553.810853 -487.836523 
L 552.360674 -491.676766 
L 550.910494 -493.083301 
L 549.460315 -490.749597 
L 548.010136 -490.989697 
L 546.559956 -489.477068 
L 545.109777 -488.314678 
L 543.659598 -489.596619 
L 542.209418 -492.081105 
L 540.759239 -496.408878 
L 539.30906 -492.200258 
L 537.85888 -492.354152 
L 536.408701 -491.625984 
L 534.958522 -494.859684 
L 533.508342 -495.088116 
L 532.058163 -495.888294 
L 530.607984 -499.252246 
L 529.157804 -498.656806 
L 527.707625 -500.195366 
L 526.257446 -500.530096 
L 524.807266 -501.761545 
L 523.357087 -504.19163 
L 521.906908 -511.21316 
L 520.456729 -523.204923 
L 519.006549 -519.021838 
L 517.55637 -542.344891 
L 516.106191 -552.647594 
L 514.656011 -552.908273 
L 513.205832 -576.328497 
L 511.755653 -576.847137 
L 510.305473 -582.372019 
L 508.855294 -582.249057 
L 507.405115 -589.395143 
L 505.954935 -587.579016 
L 504.504756 -578.465852 
L 503.054577 -579.598581 
L 501.604397 -592.322023 
L 500.154218 -597.73547 
L 498.704039 -592.12068 
L 497.253859 -599.364683 
L 495.80368 -603.756914 
L 494.353501 -602.987415 
L 492.903321 -596.490913 
L 491.453142 -585.164704 
L 490.002963 -584.267421 
L 488.552783 -555.351356 
L 487.102604 -557.544805 
L 485.652425 -546.686389 
L 484.202245 -546.679786 
L 482.752066 -551.832345 
L 481.301887 -562.881492 
L 479.851707 -556.581923 
L 478.401528 -561.526 
L 476.951349 -577.485596 
L 475.501169 -575.913707 
L 474.05099 -555.501394 
L 472.600811 -570.850078 
L 471.150632 -548.268282 
L 469.700452 -562.298123 
L 468.250273 -563.618283 
L 466.800094 -571.344611 
L 465.349914 -566.81651 
L 463.899735 -578.534488 
L 462.449556 -601.493176 
L 460.999376 -589.299592 
L 459.549197 -589.745795 
L 458.099018 -606.658108 
L 456.648838 -608.40517 
L 455.198659 -597.847703 
L 453.74848 -603.719651 
L 452.2983 -608.375765 
L 450.848121 -611.074008 
L 449.397942 -612.249743 
L 447.947762 -612.640046 
L 446.497583 -612.74001 
L 445.047404 -612.76024 
L 443.597224 -612.763256 
L 442.147045 -612.760181 
L 440.696866 -612.740291 
L 439.246686 -612.638484 
L 437.796507 -612.238317 
L 436.346328 -611.010536 
L 434.896148 -608.088376 
L 433.445969 -602.740848 
L 431.99579 -595.316634 
L 430.54561 -611.55034 
L 429.095431 -604.482481 
L 427.645252 -599.139201 
L 426.195073 -574.433626 
L 424.744893 -568.273027 
L 423.294714 -580.190984 
L 421.844535 -570.334621 
L 420.394355 -547.095184 
L 418.944176 -560.56268 
L 417.493997 -561.802452 
L 416.043817 -555.185374 
L 414.593638 -580.634651 
L 413.143459 -581.557351 
L 411.693279 -594.540512 
L 410.2431 -603.956344 
L 408.792921 -609.313594 
L 407.342741 -611.676271 
L 405.892562 -612.446389 
z
" style="stroke: #ff7f0e; stroke-opacity: 0.2"/>
    </defs>
    <g clip-path="url(#pc36162a553)">
     <use xlink:href="#mf7041e11f0" x="0" y="720" style="fill: #ff7f0e; fill-opacity: 0.2; stroke: #ff7f0e; stroke-opacity: 0.2"/>
    </g>
   </g>
   <g id="matplotlib.axis_3">
    <g id="xtick_7">
     <g id="line2d_13">
      <g>
       <use xlink:href="#mec7362deb0" x="405.863558" y="333.490909" style="stroke: #000000; stroke-width: 0.8"/>
      </g>
     </g>
     <g id="text_13">
      <!-- 0 -->
      <g transform="translate(402.682308 348.089347)scale(0.1 -0.1)">
       <use xlink:href="#DejaVuSans-30"/>
      </g>
     </g>
    </g>
    <g id="xtick_8">
     <g id="line2d_14">
      <g>
       <use xlink:href="#mec7362deb0" x="463.870731" y="333.490909" style="stroke: #000000; stroke-width: 0.8"/>
      </g>
     </g>
     <g id="text_14">
      <!-- 2000 -->
      <g transform="translate(451.145731 348.089347)scale(0.1 -0.1)">
       <use xlink:href="#DejaVuSans-32"/>
       <use xlink:href="#DejaVuSans-30" x="63.623047"/>
       <use xlink:href="#DejaVuSans-30" x="127.246094"/>
       <use xlink:href="#DejaVuSans-30" x="190.869141"/>
      </g>
     </g>
    </g>
    <g id="xtick_9">
     <g id="line2d_15">
      <g>
       <use xlink:href="#mec7362deb0" x="521.877904" y="333.490909" style="stroke: #000000; stroke-width: 0.8"/>
      </g>
     </g>
     <g id="text_15">
      <!-- 4000 -->
      <g transform="translate(509.152904 348.089347)scale(0.1 -0.1)">
       <use xlink:href="#DejaVuSans-34"/>
       <use xlink:href="#DejaVuSans-30" x="63.623047"/>
       <use xlink:href="#DejaVuSans-30" x="127.246094"/>
       <use xlink:href="#DejaVuSans-30" x="190.869141"/>
      </g>
     </g>
    </g>
    <g id="xtick_10">
     <g id="line2d_16">
      <g>
       <use xlink:href="#mec7362deb0" x="579.885077" y="333.490909" style="stroke: #000000; stroke-width: 0.8"/>
      </g>
     </g>
     <g id="text_16">
      <!-- 6000 -->
      <g transform="translate(567.160077 348.089347)scale(0.1 -0.1)">
       <use xlink:href="#DejaVuSans-36"/>
       <use xlink:href="#DejaVuSans-30" x="63.623047"/>
       <use xlink:href="#DejaVuSans-30" x="127.246094"/>
       <use xlink:href="#DejaVuSans-30" x="190.869141"/>
      </g>
     </g>
    </g>
    <g id="xtick_11">
     <g id="line2d_17">
      <g>
       <use xlink:href="#mec7362deb0" x="637.89225" y="333.490909" style="stroke: #000000; stroke-width: 0.8"/>
      </g>
     </g>
     <g id="text_17">
      <!-- 8000 -->
      <g transform="translate(625.16725 348.089347)scale(0.1 -0.1)">
       <use xlink:href="#DejaVuSans-38"/>
       <use xlink:href="#DejaVuSans-30" x="63.623047"/>
       <use xlink:href="#DejaVuSans-30" x="127.246094"/>
       <use xlink:href="#DejaVuSans-30" x="190.869141"/>
      </g>
     </g>
    </g>
   </g>
   <g id="matplotlib.axis_4">
    <g id="ytick_7">
     <g id="line2d_18">
      <g>
       <use xlink:href="#md0a168d607" x="394.363636" y="298.605239" style="stroke: #000000; stroke-width: 0.8"/>
      </g>
     </g>
     <g id="text_18">
      <!-- −2.0 -->
      <g transform="translate(363.080824 302.404458)scale(0.1 -0.1)">
       <defs>
        <path id="DejaVuSans-2212" d="M 678 2272 
L 4684 2272 
L 4684 1741 
L 678 1741 
L 678 2272 
z
" transform="scale(0.015625)"/>
       </defs>
       <use xlink:href="#DejaVuSans-2212"/>
       <use xlink:href="#DejaVuSans-32" x="83.789062"/>
       <use xlink:href="#DejaVuSans-2e" x="147.412109"/>
       <use xlink:href="#DejaVuSans-30" x="179.199219"/>
      </g>
     </g>
    </g>
    <g id="ytick_8">
     <g id="line2d_19">
      <g>
       <use xlink:href="#md0a168d607" x="394.363636" y="250.763116" style="stroke: #000000; stroke-width: 0.8"/>
      </g>
     </g>
     <g id="text_19">
      <!-- −1.5 -->
      <g transform="translate(363.080824 254.562334)scale(0.1 -0.1)">
       <defs>
        <path id="DejaVuSans-35" d="M 691 4666 
L 3169 4666 
L 3169 4134 
L 1269 4134 
L 1269 2991 
Q 1406 3038 1543 3061 
Q 1681 3084 1819 3084 
Q 2600 3084 3056 2656 
Q 3513 2228 3513 1497 
Q 3513 744 3044 326 
Q 2575 -91 1722 -91 
Q 1428 -91 1123 -41 
Q 819 9 494 109 
L 494 744 
Q 775 591 1075 516 
Q 1375 441 1709 441 
Q 2250 441 2565 725 
Q 2881 1009 2881 1497 
Q 2881 1984 2565 2268 
Q 2250 2553 1709 2553 
Q 1456 2553 1204 2497 
Q 953 2441 691 2322 
L 691 4666 
z
" transform="scale(0.015625)"/>
       </defs>
       <use xlink:href="#DejaVuSans-2212"/>
       <use xlink:href="#DejaVuSans-31" x="83.789062"/>
       <use xlink:href="#DejaVuSans-2e" x="147.412109"/>
       <use xlink:href="#DejaVuSans-35" x="179.199219"/>
      </g>
     </g>
    </g>
    <g id="ytick_9">
     <g id="line2d_20">
      <g>
       <use xlink:href="#md0a168d607" x="394.363636" y="202.920992" style="stroke: #000000; stroke-width: 0.8"/>
      </g>
     </g>
     <g id="text_20">
      <!-- −1.0 -->
      <g transform="translate(363.080824 206.720211)scale(0.1 -0.1)">
       <use xlink:href="#DejaVuSans-2212"/>
       <use xlink:href="#DejaVuSans-31" x="83.789062"/>
       <use xlink:href="#DejaVuSans-2e" x="147.412109"/>
       <use xlink:href="#DejaVuSans-30" x="179.199219"/>
      </g>
     </g>
    </g>
    <g id="ytick_10">
     <g id="line2d_21">
      <g>
       <use xlink:href="#md0a168d607" x="394.363636" y="155.078868" style="stroke: #000000; stroke-width: 0.8"/>
      </g>
     </g>
     <g id="text_21">
      <!-- −0.5 -->
      <g transform="translate(363.080824 158.878087)scale(0.1 -0.1)">
       <use xlink:href="#DejaVuSans-2212"/>
       <use xlink:href="#DejaVuSans-30" x="83.789062"/>
       <use xlink:href="#DejaVuSans-2e" x="147.412109"/>
       <use xlink:href="#DejaVuSans-35" x="179.199219"/>
      </g>
     </g>
    </g>
    <g id="ytick_11">
     <g id="line2d_22">
      <g>
       <use xlink:href="#md0a168d607" x="394.363636" y="107.236744" style="stroke: #000000; stroke-width: 0.8"/>
      </g>
     </g>
     <g id="text_22">
      <!-- 0.0 -->
      <g transform="translate(371.460511 111.035963)scale(0.1 -0.1)">
       <use xlink:href="#DejaVuSans-30"/>
       <use xlink:href="#DejaVuSans-2e" x="63.623047"/>
       <use xlink:href="#DejaVuSans-30" x="95.410156"/>
      </g>
     </g>
    </g>
   </g>
   <g id="line2d_23">
    <path d="M 405.892562 294.296389 
L 407.342741 295.8094 
L 408.792921 296.272232 
L 410.2431 291.454388 
L 411.693279 277.925107 
L 413.143459 256.020251 
L 414.593638 230.5367 
L 416.043817 207.860841 
L 417.493997 191.962222 
L 418.944176 182.245457 
L 421.844535 168.494571 
L 423.294714 163.525482 
L 424.744893 160.679132 
L 426.195073 156.428016 
L 427.645252 147.03223 
L 430.54561 121.222673 
L 431.99579 113.092293 
L 433.445969 109.399127 
L 434.896148 108.837468 
L 436.346328 110.798457 
L 437.796507 115.570927 
L 440.696866 129.852432 
L 442.147045 132.863676 
L 443.597224 129.852432 
L 446.497583 115.556591 
L 447.947762 110.704972 
L 449.397942 108.362713 
L 450.848121 107.521434 
L 452.2983 107.292803 
L 456.648838 107.236744 
L 601.666771 107.308977 
L 603.11695 107.603573 
L 604.567129 108.687578 
L 606.017309 111.705627 
L 607.467488 117.957037 
L 610.367847 136.377522 
L 611.818026 140.257571 
L 613.268205 136.377522 
L 616.168564 117.957037 
L 617.618743 111.705627 
L 619.068923 108.687578 
L 620.519102 107.603573 
L 621.969281 107.308977 
L 624.86964 107.236744 
L 636.471074 107.236744 
L 636.471074 107.236744 
" clip-path="url(#pc36162a553)" style="fill: none; stroke: #9467bd; stroke-width: 2; stroke-linecap: square"/>
   </g>
   <g id="line2d_24">
    <path d="M 405.892562 107.236744 
L 414.593638 107.260155 
L 416.043817 107.355635 
L 417.493997 107.706964 
L 418.944176 108.685124 
L 420.394355 110.714988 
L 423.294714 116.831391 
L 424.744893 118.567909 
L 426.195073 118.771503 
L 427.645252 119.272428 
L 429.095431 122.565944 
L 430.54561 129.395885 
L 431.99579 137.856914 
L 433.445969 144.928263 
L 434.896148 148.69274 
L 436.346328 148.988242 
L 437.796507 146.482235 
L 439.246686 141.99335 
L 440.696866 136.717798 
L 442.147045 132.157532 
L 443.597224 129.208743 
L 445.047404 127.674005 
L 446.497583 126.979625 
L 447.947762 127.020873 
L 449.397942 127.996731 
L 450.848121 129.616423 
L 452.2983 130.952217 
L 453.74848 131.469054 
L 455.198659 132.193973 
L 456.648838 135.260169 
L 458.099018 141.725412 
L 459.549197 150.105809 
L 460.999376 157.468266 
L 462.449556 161.384627 
L 463.899735 160.472143 
L 465.349914 154.746287 
L 466.800094 146.762297 
L 468.250273 140.877483 
L 469.700452 139.65801 
L 472.600811 143.82913 
L 474.05099 145.010888 
L 475.501169 146.61083 
L 476.951349 149.32141 
L 478.401528 150.670506 
L 479.851707 147.070831 
L 481.301887 138.317726 
L 482.752066 128.808325 
L 484.202245 124.024666 
L 485.652425 126.543144 
L 487.102604 135.082736 
L 490.002963 156.851528 
L 491.453142 164.439737 
L 492.903321 167.268008 
L 494.353501 164.439223 
L 495.80368 156.820303 
L 497.253859 147.030872 
L 498.704039 138.281164 
L 500.154218 133.012656 
L 501.604397 131.790037 
L 503.054577 133.111693 
L 504.504756 135.061938 
L 505.954935 137.538119 
L 507.405115 141.819653 
L 508.855294 147.607035 
L 510.305473 151.753076 
L 511.755653 150.802697 
L 513.205832 144.089153 
L 516.106191 123.23514 
L 517.55637 114.617145 
L 519.006549 109.156543 
L 520.456729 106.713398 
L 521.906908 106.241415 
L 526.257446 107.131313 
L 529.157804 107.231318 
L 565.412288 107.236744 
L 636.471074 107.236744 
L 636.471074 107.236744 
" clip-path="url(#pc36162a553)" style="fill: none; stroke: #1f77b4; stroke-width: 2; stroke-linecap: square"/>
   </g>
   <g id="line2d_25">
    <path d="M 405.892562 107.236744 
L 636.471074 107.236744 
L 636.471074 107.236744 
" clip-path="url(#pc36162a553)" style="fill: none; stroke: #d62728; stroke-width: 2; stroke-linecap: square"/>
   </g>
   <g id="line2d_26">
    <path d="M 405.892562 107.553611 
L 407.342741 108.323729 
L 408.792921 110.686406 
L 410.2431 116.043656 
L 411.693279 125.459488 
L 413.143459 138.442649 
L 414.593638 152.62081 
L 416.043817 164.814626 
L 417.493997 172.546159 
L 418.944176 174.998123 
L 420.394355 172.904816 
L 421.844535 167.455129 
L 424.744893 151.726973 
L 426.195073 145.566374 
L 429.095431 138.0661 
L 430.54561 132.327416 
L 433.445969 117.259152 
L 434.896148 111.911624 
L 436.346328 108.989464 
L 437.796507 107.761683 
L 439.246686 107.361516 
L 442.147045 107.239819 
L 446.497583 107.25999 
L 447.947762 107.359954 
L 449.397942 107.750257 
L 450.848121 108.925992 
L 452.2983 111.624235 
L 453.74848 116.280349 
L 455.198659 122.152297 
L 456.648838 127.248001 
L 458.099018 129.850017 
L 460.999376 130.700408 
L 462.449556 133.849394 
L 463.899735 141.465512 
L 466.800094 165.569769 
L 468.250273 173.689468 
L 469.700452 175.077474 
L 471.150632 171.731718 
L 472.600811 167.561859 
L 474.05099 164.498606 
L 476.951349 159.041705 
L 478.401528 158.474 
L 479.851707 163.418077 
L 482.752066 185.039672 
L 484.202245 190.983992 
L 485.652425 188.592494 
L 487.102604 178.786641 
L 488.552783 164.648644 
L 491.453142 134.835296 
L 492.903321 123.509087 
L 494.353501 117.012585 
L 495.80368 116.243086 
L 497.253859 120.635317 
L 500.154218 134.617059 
L 501.604397 138.629815 
L 503.054577 140.401419 
L 504.504756 141.534148 
L 505.954935 141.944296 
L 507.405115 140.398383 
L 508.855294 137.750943 
L 510.305473 137.627981 
L 511.755653 143.152863 
L 513.205832 154.009948 
L 516.106191 179.374612 
L 521.906908 222.967364 
L 523.357087 229.826206 
L 524.807266 232.459898 
L 526.257446 232.607704 
L 527.707625 232.420302 
L 529.157804 232.953494 
L 530.607984 234.190046 
L 534.958522 238.638194 
L 536.408701 239.80626 
L 537.85888 240.536721 
L 539.30906 240.873826 
L 540.759239 241.397071 
L 542.209418 242.813141 
L 545.109777 247.134047 
L 546.559956 247.946218 
L 548.010136 247.428 
L 549.460315 246.459526 
L 550.910494 246.202144 
L 552.360674 247.643077 
L 553.810853 251.314536 
L 555.261032 257.070467 
L 556.711212 264.223757 
L 559.61157 279.475772 
L 561.06175 285.881395 
L 562.511929 290.261922 
L 563.962108 292.309837 
L 565.412288 292.890522 
L 566.862467 293.644236 
L 568.312646 295.649771 
L 569.762826 298.422901 
L 571.213005 300.351801 
L 572.663184 300.073386 
L 574.113363 297.326761 
L 575.563543 292.65973 
L 577.013722 286.764346 
L 579.914081 274.407396 
L 581.36426 269.777457 
L 582.814439 266.620729 
L 585.714798 261.707048 
L 587.164977 258.950138 
L 588.615157 256.48666 
L 590.065336 255.005236 
L 591.515515 254.772578 
L 592.965695 255.538864 
L 594.415874 256.96956 
L 595.866053 258.992261 
L 598.766412 263.809722 
L 600.216591 265.349997 
L 601.666771 265.797148 
L 603.11695 264.831384 
L 604.567129 261.553065 
L 606.017309 254.75721 
L 607.467488 243.89948 
L 610.367847 217.651442 
L 611.818026 210.2052 
L 613.268205 208.953135 
L 614.718385 210.291952 
L 616.168564 209.370823 
L 617.618743 204.349969 
L 620.519102 190.046671 
L 621.969281 184.676901 
L 624.86964 176.383167 
L 626.319819 172.653641 
L 627.769998 169.819024 
L 629.220178 168.18986 
L 630.670357 167.248383 
L 632.120536 166.023836 
L 633.570716 163.972555 
L 635.020895 161.532078 
L 636.471074 159.839228 
L 636.471074 159.839228 
" clip-path="url(#pc36162a553)" style="fill: none; stroke: #ff7f0e; stroke-width: 2; stroke-linecap: square"/>
   </g>
   <g id="LineCollection_1">
    <path d="M 521.877904 296.603425 
L 521.877904 107.085668 
" clip-path="url(#pc36162a553)" style="fill: none; stroke-dasharray: 7.4,3.2; stroke-dashoffset: 0; stroke: #000000; stroke-width: 2"/>
    <path d="M 536.379697 296.603425 
L 536.379697 107.085668 
" clip-path="url(#pc36162a553)" style="fill: none; stroke-dasharray: 7.4,3.2; stroke-dashoffset: 0; stroke: #000000; stroke-width: 2"/>
    <path d="M 565.383284 296.603425 
L 565.383284 107.085668 
" clip-path="url(#pc36162a553)" style="fill: none; stroke-dasharray: 7.4,3.2; stroke-dashoffset: 0; stroke: #000000; stroke-width: 2"/>
    <path d="M 623.390457 296.603425 
L 623.390457 107.085668 
" clip-path="url(#pc36162a553)" style="fill: none; stroke-dasharray: 7.4,3.2; stroke-dashoffset: 0; stroke: #000000; stroke-width: 2"/>
   </g>
   <g id="patch_8">
    <path d="M 394.363636 333.490909 
L 394.363636 86.4 
" style="fill: none; stroke: #000000; stroke-width: 0.8; stroke-linejoin: miter; stroke-linecap: square"/>
   </g>
   <g id="patch_9">
    <path d="M 648 333.490909 
L 648 86.4 
" style="fill: none; stroke: #000000; stroke-width: 0.8; stroke-linejoin: miter; stroke-linecap: square"/>
   </g>
   <g id="patch_10">
    <path d="M 394.363636 333.490909 
L 648 333.490909 
" style="fill: none; stroke: #000000; stroke-width: 0.8; stroke-linejoin: miter; stroke-linecap: square"/>
   </g>
   <g id="patch_11">
    <path d="M 394.363636 86.4 
L 648 86.4 
" style="fill: none; stroke: #000000; stroke-width: 0.8; stroke-linejoin: miter; stroke-linecap: square"/>
   </g>
   <g id="text_23">
    <!-- unit_109 -->
    <g transform="translate(495.105256 80.4)scale(0.12 -0.12)">
     <defs>
      <path id="DejaVuSans-75" d="M 544 1381 
L 544 3500 
L 1119 3500 
L 1119 1403 
Q 1119 906 1312 657 
Q 1506 409 1894 409 
Q 2359 409 2629 706 
Q 2900 1003 2900 1516 
L 2900 3500 
L 3475 3500 
L 3475 0 
L 2900 0 
L 2900 538 
Q 2691 219 2414 64 
Q 2138 -91 1772 -91 
Q 1169 -91 856 284 
Q 544 659 544 1381 
z
M 1991 3584 
L 1991 3584 
z
" transform="scale(0.015625)"/>
      <path id="DejaVuSans-6e" d="M 3513 2113 
L 3513 0 
L 2938 0 
L 2938 2094 
Q 2938 2591 2744 2837 
Q 2550 3084 2163 3084 
Q 1697 3084 1428 2787 
Q 1159 2491 1159 1978 
L 1159 0 
L 581 0 
L 581 3500 
L 1159 3500 
L 1159 2956 
Q 1366 3272 1645 3428 
Q 1925 3584 2291 3584 
Q 2894 3584 3203 3211 
Q 3513 2838 3513 2113 
z
" transform="scale(0.015625)"/>
      <path id="DejaVuSans-69" d="M 603 3500 
L 1178 3500 
L 1178 0 
L 603 0 
L 603 3500 
z
M 603 4863 
L 1178 4863 
L 1178 4134 
L 603 4134 
L 603 4863 
z
" transform="scale(0.015625)"/>
      <path id="DejaVuSans-74" d="M 1172 4494 
L 1172 3500 
L 2356 3500 
L 2356 3053 
L 1172 3053 
L 1172 1153 
Q 1172 725 1289 603 
Q 1406 481 1766 481 
L 2356 481 
L 2356 0 
L 1766 0 
Q 1100 0 847 248 
Q 594 497 594 1153 
L 594 3053 
L 172 3053 
L 172 3500 
L 594 3500 
L 594 4494 
L 1172 4494 
z
" transform="scale(0.015625)"/>
      <path id="DejaVuSans-5f" d="M 3263 -1063 
L 3263 -1509 
L -63 -1509 
L -63 -1063 
L 3263 -1063 
z
" transform="scale(0.015625)"/>
      <path id="DejaVuSans-39" d="M 703 97 
L 703 672 
Q 941 559 1184 500 
Q 1428 441 1663 441 
Q 2288 441 2617 861 
Q 2947 1281 2994 2138 
Q 2813 1869 2534 1725 
Q 2256 1581 1919 1581 
Q 1219 1581 811 2004 
Q 403 2428 403 3163 
Q 403 3881 828 4315 
Q 1253 4750 1959 4750 
Q 2769 4750 3195 4129 
Q 3622 3509 3622 2328 
Q 3622 1225 3098 567 
Q 2575 -91 1691 -91 
Q 1453 -91 1209 -44 
Q 966 3 703 97 
z
M 1959 2075 
Q 2384 2075 2632 2365 
Q 2881 2656 2881 3163 
Q 2881 3666 2632 3958 
Q 2384 4250 1959 4250 
Q 1534 4250 1286 3958 
Q 1038 3666 1038 3163 
Q 1038 2656 1286 2365 
Q 1534 2075 1959 2075 
z
" transform="scale(0.015625)"/>
     </defs>
     <use xlink:href="#DejaVuSans-75"/>
     <use xlink:href="#DejaVuSans-6e" x="63.378906"/>
     <use xlink:href="#DejaVuSans-69" x="126.757812"/>
     <use xlink:href="#DejaVuSans-74" x="154.541016"/>
     <use xlink:href="#DejaVuSans-5f" x="193.75"/>
     <use xlink:href="#DejaVuSans-31" x="243.75"/>
     <use xlink:href="#DejaVuSans-30" x="307.373047"/>
     <use xlink:href="#DejaVuSans-39" x="370.996094"/>
    </g>
   </g>
  </g>
  <g id="axes_3">
   <g id="patch_12">
    <path d="M 90 630 
L 343.636364 630 
L 343.636364 382.909091 
L 90 382.909091 
z
" style="fill: #ffffff"/>
   </g>
   <g id="matplotlib.axis_5">
    <g id="xtick_12">
     <g id="line2d_27">
      <g>
       <use xlink:href="#mec7362deb0" x="90" y="630" style="stroke: #000000; stroke-width: 0.8"/>
      </g>
     </g>
     <g id="text_24">
      <!-- 0.0 -->
      <g transform="translate(82.048438 644.598437)scale(0.1 -0.1)">
       <use xlink:href="#DejaVuSans-30"/>
       <use xlink:href="#DejaVuSans-2e" x="63.623047"/>
       <use xlink:href="#DejaVuSans-30" x="95.410156"/>
      </g>
     </g>
    </g>
    <g id="xtick_13">
     <g id="line2d_28">
      <g>
       <use xlink:href="#mec7362deb0" x="140.727273" y="630" style="stroke: #000000; stroke-width: 0.8"/>
      </g>
     </g>
     <g id="text_25">
      <!-- 0.2 -->
      <g transform="translate(132.77571 644.598437)scale(0.1 -0.1)">
       <use xlink:href="#DejaVuSans-30"/>
       <use xlink:href="#DejaVuSans-2e" x="63.623047"/>
       <use xlink:href="#DejaVuSans-32" x="95.410156"/>
      </g>
     </g>
    </g>
    <g id="xtick_14">
     <g id="line2d_29">
      <g>
       <use xlink:href="#mec7362deb0" x="191.454545" y="630" style="stroke: #000000; stroke-width: 0.8"/>
      </g>
     </g>
     <g id="text_26">
      <!-- 0.4 -->
      <g transform="translate(183.502983 644.598437)scale(0.1 -0.1)">
       <use xlink:href="#DejaVuSans-30"/>
       <use xlink:href="#DejaVuSans-2e" x="63.623047"/>
       <use xlink:href="#DejaVuSans-34" x="95.410156"/>
      </g>
     </g>
    </g>
    <g id="xtick_15">
     <g id="line2d_30">
      <g>
       <use xlink:href="#mec7362deb0" x="242.181818" y="630" style="stroke: #000000; stroke-width: 0.8"/>
      </g>
     </g>
     <g id="text_27">
      <!-- 0.6 -->
      <g transform="translate(234.230256 644.598437)scale(0.1 -0.1)">
       <use xlink:href="#DejaVuSans-30"/>
       <use xlink:href="#DejaVuSans-2e" x="63.623047"/>
       <use xlink:href="#DejaVuSans-36" x="95.410156"/>
      </g>
     </g>
    </g>
    <g id="xtick_16">
     <g id="line2d_31">
      <g>
       <use xlink:href="#mec7362deb0" x="292.909091" y="630" style="stroke: #000000; stroke-width: 0.8"/>
      </g>
     </g>
     <g id="text_28">
      <!-- 0.8 -->
      <g transform="translate(284.957528 644.598437)scale(0.1 -0.1)">
       <use xlink:href="#DejaVuSans-30"/>
       <use xlink:href="#DejaVuSans-2e" x="63.623047"/>
       <use xlink:href="#DejaVuSans-38" x="95.410156"/>
      </g>
     </g>
    </g>
    <g id="xtick_17">
     <g id="line2d_32">
      <g>
       <use xlink:href="#mec7362deb0" x="343.636364" y="630" style="stroke: #000000; stroke-width: 0.8"/>
      </g>
     </g>
     <g id="text_29">
      <!-- 1.0 -->
      <g transform="translate(335.684801 644.598437)scale(0.1 -0.1)">
       <use xlink:href="#DejaVuSans-31"/>
       <use xlink:href="#DejaVuSans-2e" x="63.623047"/>
       <use xlink:href="#DejaVuSans-30" x="95.410156"/>
      </g>
     </g>
    </g>
   </g>
   <g id="matplotlib.axis_6">
    <g id="ytick_12">
     <g id="line2d_33">
      <g>
       <use xlink:href="#md0a168d607" x="90" y="630" style="stroke: #000000; stroke-width: 0.8"/>
      </g>
     </g>
     <g id="text_30">
      <!-- 0.0 -->
      <g transform="translate(67.096875 633.799219)scale(0.1 -0.1)">
       <use xlink:href="#DejaVuSans-30"/>
       <use xlink:href="#DejaVuSans-2e" x="63.623047"/>
       <use xlink:href="#DejaVuSans-30" x="95.410156"/>
      </g>
     </g>
    </g>
    <g id="ytick_13">
     <g id="line2d_34">
      <g>
       <use xlink:href="#md0a168d607" x="90" y="580.581818" style="stroke: #000000; stroke-width: 0.8"/>
      </g>
     </g>
     <g id="text_31">
      <!-- 0.2 -->
      <g transform="translate(67.096875 584.381037)scale(0.1 -0.1)">
       <use xlink:href="#DejaVuSans-30"/>
       <use xlink:href="#DejaVuSans-2e" x="63.623047"/>
       <use xlink:href="#DejaVuSans-32" x="95.410156"/>
      </g>
     </g>
    </g>
    <g id="ytick_14">
     <g id="line2d_35">
      <g>
       <use xlink:href="#md0a168d607" x="90" y="531.163636" style="stroke: #000000; stroke-width: 0.8"/>
      </g>
     </g>
     <g id="text_32">
      <!-- 0.4 -->
      <g transform="translate(67.096875 534.962855)scale(0.1 -0.1)">
       <use xlink:href="#DejaVuSans-30"/>
       <use xlink:href="#DejaVuSans-2e" x="63.623047"/>
       <use xlink:href="#DejaVuSans-34" x="95.410156"/>
      </g>
     </g>
    </g>
    <g id="ytick_15">
     <g id="line2d_36">
      <g>
       <use xlink:href="#md0a168d607" x="90" y="481.745455" style="stroke: #000000; stroke-width: 0.8"/>
      </g>
     </g>
     <g id="text_33">
      <!-- 0.6 -->
      <g transform="translate(67.096875 485.544673)scale(0.1 -0.1)">
       <use xlink:href="#DejaVuSans-30"/>
       <use xlink:href="#DejaVuSans-2e" x="63.623047"/>
       <use xlink:href="#DejaVuSans-36" x="95.410156"/>
      </g>
     </g>
    </g>
    <g id="ytick_16">
     <g id="line2d_37">
      <g>
       <use xlink:href="#md0a168d607" x="90" y="432.327273" style="stroke: #000000; stroke-width: 0.8"/>
      </g>
     </g>
     <g id="text_34">
      <!-- 0.8 -->
      <g transform="translate(67.096875 436.126491)scale(0.1 -0.1)">
       <use xlink:href="#DejaVuSans-30"/>
       <use xlink:href="#DejaVuSans-2e" x="63.623047"/>
       <use xlink:href="#DejaVuSans-38" x="95.410156"/>
      </g>
     </g>
    </g>
    <g id="ytick_17">
     <g id="line2d_38">
      <g>
       <use xlink:href="#md0a168d607" x="90" y="382.909091" style="stroke: #000000; stroke-width: 0.8"/>
      </g>
     </g>
     <g id="text_35">
      <!-- 1.0 -->
      <g transform="translate(67.096875 386.70831)scale(0.1 -0.1)">
       <use xlink:href="#DejaVuSans-31"/>
       <use xlink:href="#DejaVuSans-2e" x="63.623047"/>
       <use xlink:href="#DejaVuSans-30" x="95.410156"/>
      </g>
     </g>
    </g>
   </g>
   <g id="patch_13">
    <path d="M 90 630 
L 90 382.909091 
" style="fill: none; stroke: #000000; stroke-width: 0.8; stroke-linejoin: miter; stroke-linecap: square"/>
   </g>
   <g id="patch_14">
    <path d="M 343.636364 630 
L 343.636364 382.909091 
" style="fill: none; stroke: #000000; stroke-width: 0.8; stroke-linejoin: miter; stroke-linecap: square"/>
   </g>
   <g id="patch_15">
    <path d="M 90 630 
L 343.636364 630 
" style="fill: none; stroke: #000000; stroke-width: 0.8; stroke-linejoin: miter; stroke-linecap: square"/>
   </g>
   <g id="patch_16">
    <path d="M 90 382.909091 
L 343.636364 382.909091 
" style="fill: none; stroke: #000000; stroke-width: 0.8; stroke-linejoin: miter; stroke-linecap: square"/>
   </g>
  </g>
  <g id="axes_4">
   <g id="patch_17">
    <path d="M 394.363636 630 
L 648 630 
L 648 382.909091 
L 394.363636 382.909091 
z
" style="fill: #ffffff"/>
   </g>
   <g id="matplotlib.axis_7">
    <g id="xtick_18">
     <g id="line2d_39">
      <g>
       <use xlink:href="#mec7362deb0" x="405.863558" y="630" style="stroke: #000000; stroke-width: 0.8"/>
      </g>
     </g>
     <g id="text_36">
      <!-- 0 -->
      <g transform="translate(402.682308 644.598437)scale(0.1 -0.1)">
       <use xlink:href="#DejaVuSans-30"/>
      </g>
     </g>
    </g>
    <g id="xtick_19">
     <g id="line2d_40">
      <g>
       <use xlink:href="#mec7362deb0" x="463.870731" y="630" style="stroke: #000000; stroke-width: 0.8"/>
      </g>
     </g>
     <g id="text_37">
      <!-- 2000 -->
      <g transform="translate(451.145731 644.598437)scale(0.1 -0.1)">
       <use xlink:href="#DejaVuSans-32"/>
       <use xlink:href="#DejaVuSans-30" x="63.623047"/>
       <use xlink:href="#DejaVuSans-30" x="127.246094"/>
       <use xlink:href="#DejaVuSans-30" x="190.869141"/>
      </g>
     </g>
    </g>
    <g id="xtick_20">
     <g id="line2d_41">
      <g>
       <use xlink:href="#mec7362deb0" x="521.877904" y="630" style="stroke: #000000; stroke-width: 0.8"/>
      </g>
     </g>
     <g id="text_38">
      <!-- 4000 -->
      <g transform="translate(509.152904 644.598437)scale(0.1 -0.1)">
       <use xlink:href="#DejaVuSans-34"/>
       <use xlink:href="#DejaVuSans-30" x="63.623047"/>
       <use xlink:href="#DejaVuSans-30" x="127.246094"/>
       <use xlink:href="#DejaVuSans-30" x="190.869141"/>
      </g>
     </g>
    </g>
    <g id="xtick_21">
     <g id="line2d_42">
      <g>
       <use xlink:href="#mec7362deb0" x="579.885077" y="630" style="stroke: #000000; stroke-width: 0.8"/>
      </g>
     </g>
     <g id="text_39">
      <!-- 6000 -->
      <g transform="translate(567.160077 644.598437)scale(0.1 -0.1)">
       <use xlink:href="#DejaVuSans-36"/>
       <use xlink:href="#DejaVuSans-30" x="63.623047"/>
       <use xlink:href="#DejaVuSans-30" x="127.246094"/>
       <use xlink:href="#DejaVuSans-30" x="190.869141"/>
      </g>
     </g>
    </g>
    <g id="xtick_22">
     <g id="line2d_43">
      <g>
       <use xlink:href="#mec7362deb0" x="637.89225" y="630" style="stroke: #000000; stroke-width: 0.8"/>
      </g>
     </g>
     <g id="text_40">
      <!-- 8000 -->
      <g transform="translate(625.16725 644.598437)scale(0.1 -0.1)">
       <use xlink:href="#DejaVuSans-38"/>
       <use xlink:href="#DejaVuSans-30" x="63.623047"/>
       <use xlink:href="#DejaVuSans-30" x="127.246094"/>
       <use xlink:href="#DejaVuSans-30" x="190.869141"/>
      </g>
     </g>
    </g>
   </g>
   <g id="matplotlib.axis_8">
    <g id="ytick_18">
     <g id="line2d_44">
      <g>
       <use xlink:href="#md0a168d607" x="394.363636" y="630" style="stroke: #000000; stroke-width: 0.8"/>
      </g>
     </g>
     <g id="text_41">
      <!-- −2.0 -->
      <g transform="translate(363.080824 633.799219)scale(0.1 -0.1)">
       <use xlink:href="#DejaVuSans-2212"/>
       <use xlink:href="#DejaVuSans-32" x="83.789062"/>
       <use xlink:href="#DejaVuSans-2e" x="147.412109"/>
       <use xlink:href="#DejaVuSans-30" x="179.199219"/>
      </g>
     </g>
    </g>
    <g id="ytick_19">
     <g id="line2d_45">
      <g>
       <use xlink:href="#md0a168d607" x="394.363636" y="594.115111" style="stroke: #000000; stroke-width: 0.8"/>
      </g>
     </g>
     <g id="text_42">
      <!-- −1.8 -->
      <g transform="translate(363.080824 597.91433)scale(0.1 -0.1)">
       <use xlink:href="#DejaVuSans-2212"/>
       <use xlink:href="#DejaVuSans-31" x="83.789062"/>
       <use xlink:href="#DejaVuSans-2e" x="147.412109"/>
       <use xlink:href="#DejaVuSans-38" x="179.199219"/>
      </g>
     </g>
    </g>
    <g id="ytick_20">
     <g id="line2d_46">
      <g>
       <use xlink:href="#md0a168d607" x="394.363636" y="558.230222" style="stroke: #000000; stroke-width: 0.8"/>
      </g>
     </g>
     <g id="text_43">
      <!-- −1.6 -->
      <g transform="translate(363.080824 562.02944)scale(0.1 -0.1)">
       <use xlink:href="#DejaVuSans-2212"/>
       <use xlink:href="#DejaVuSans-31" x="83.789062"/>
       <use xlink:href="#DejaVuSans-2e" x="147.412109"/>
       <use xlink:href="#DejaVuSans-36" x="179.199219"/>
      </g>
     </g>
    </g>
    <g id="ytick_21">
     <g id="line2d_47">
      <g>
       <use xlink:href="#md0a168d607" x="394.363636" y="522.345332" style="stroke: #000000; stroke-width: 0.8"/>
      </g>
     </g>
     <g id="text_44">
      <!-- −1.4 -->
      <g transform="translate(363.080824 526.144551)scale(0.1 -0.1)">
       <use xlink:href="#DejaVuSans-2212"/>
       <use xlink:href="#DejaVuSans-31" x="83.789062"/>
       <use xlink:href="#DejaVuSans-2e" x="147.412109"/>
       <use xlink:href="#DejaVuSans-34" x="179.199219"/>
      </g>
     </g>
    </g>
    <g id="ytick_22">
     <g id="line2d_48">
      <g>
       <use xlink:href="#md0a168d607" x="394.363636" y="486.460443" style="stroke: #000000; stroke-width: 0.8"/>
      </g>
     </g>
     <g id="text_45">
      <!-- −1.2 -->
      <g transform="translate(363.080824 490.259662)scale(0.1 -0.1)">
       <use xlink:href="#DejaVuSans-2212"/>
       <use xlink:href="#DejaVuSans-31" x="83.789062"/>
       <use xlink:href="#DejaVuSans-2e" x="147.412109"/>
       <use xlink:href="#DejaVuSans-32" x="179.199219"/>
      </g>
     </g>
    </g>
    <g id="ytick_23">
     <g id="line2d_49">
      <g>
       <use xlink:href="#md0a168d607" x="394.363636" y="450.575554" style="stroke: #000000; stroke-width: 0.8"/>
      </g>
     </g>
     <g id="text_46">
      <!-- −1.0 -->
      <g transform="translate(363.080824 454.374773)scale(0.1 -0.1)">
       <use xlink:href="#DejaVuSans-2212"/>
       <use xlink:href="#DejaVuSans-31" x="83.789062"/>
       <use xlink:href="#DejaVuSans-2e" x="147.412109"/>
       <use xlink:href="#DejaVuSans-30" x="179.199219"/>
      </g>
     </g>
    </g>
    <g id="ytick_24">
     <g id="line2d_50">
      <g>
       <use xlink:href="#md0a168d607" x="394.363636" y="414.690665" style="stroke: #000000; stroke-width: 0.8"/>
      </g>
     </g>
     <g id="text_47">
      <!-- −0.8 -->
      <g transform="translate(363.080824 418.489884)scale(0.1 -0.1)">
       <use xlink:href="#DejaVuSans-2212"/>
       <use xlink:href="#DejaVuSans-30" x="83.789062"/>
       <use xlink:href="#DejaVuSans-2e" x="147.412109"/>
       <use xlink:href="#DejaVuSans-38" x="179.199219"/>
      </g>
     </g>
    </g>
   </g>
   <g id="line2d_51">
    <path d="M 405.892562 391.167697 
L 407.904622 721 
M 427.991436 721 
L 429.095431 667.655454 
L 429.671377 721 
M 439.88656 721 
L 440.696866 668.860897 
L 442.147045 657.621314 
L 445.047404 440.145677 
L 446.497583 406.775423 
L 447.947762 395.541058 
L 449.397942 382.909091 
L 450.848121 391.067357 
L 453.74848 429.688026 
L 455.198659 527.173514 
L 456.648838 675.507816 
L 457.959594 721 
M 458.490484 721 
L 459.549197 707.913123 
L 459.957401 721 
M 463.700059 721 
L 463.899735 712.730095 
L 463.998956 721 
M 495.562365 721 
L 495.80368 702.068389 
L 497.253859 665.531844 
L 497.806111 721 
M 504.208973 721 
L 504.504756 683.797312 
L 504.659642 721 
M 630.664574 721 
L 630.670357 720.403845 
L 630.685444 721 
" clip-path="url(#p4bdd2e1020)" style="fill: none; stroke: #1f77b4; stroke-width: 1.5; stroke-linecap: square"/>
   </g>
   <g id="patch_18">
    <path d="M 394.363636 630 
L 394.363636 382.909091 
" style="fill: none; stroke: #000000; stroke-width: 0.8; stroke-linejoin: miter; stroke-linecap: square"/>
   </g>
   <g id="patch_19">
    <path d="M 648 630 
L 648 382.909091 
" style="fill: none; stroke: #000000; stroke-width: 0.8; stroke-linejoin: miter; stroke-linecap: square"/>
   </g>
   <g id="patch_20">
    <path d="M 394.363636 630 
L 648 630 
" style="fill: none; stroke: #000000; stroke-width: 0.8; stroke-linejoin: miter; stroke-linecap: square"/>
   </g>
   <g id="patch_21">
    <path d="M 394.363636 382.909091 
L 648 382.909091 
" style="fill: none; stroke: #000000; stroke-width: 0.8; stroke-linejoin: miter; stroke-linecap: square"/>
   </g>
   <g id="text_48">
    <!-- explained variance -->
    <g transform="translate(464.181818 376.909091)scale(0.12 -0.12)">
     <defs>
      <path id="DejaVuSans-65" d="M 3597 1894 
L 3597 1613 
L 953 1613 
Q 991 1019 1311 708 
Q 1631 397 2203 397 
Q 2534 397 2845 478 
Q 3156 559 3463 722 
L 3463 178 
Q 3153 47 2828 -22 
Q 2503 -91 2169 -91 
Q 1331 -91 842 396 
Q 353 884 353 1716 
Q 353 2575 817 3079 
Q 1281 3584 2069 3584 
Q 2775 3584 3186 3129 
Q 3597 2675 3597 1894 
z
M 3022 2063 
Q 3016 2534 2758 2815 
Q 2500 3097 2075 3097 
Q 1594 3097 1305 2825 
Q 1016 2553 972 2059 
L 3022 2063 
z
" transform="scale(0.015625)"/>
      <path id="DejaVuSans-78" d="M 3513 3500 
L 2247 1797 
L 3578 0 
L 2900 0 
L 1881 1375 
L 863 0 
L 184 0 
L 1544 1831 
L 300 3500 
L 978 3500 
L 1906 2253 
L 2834 3500 
L 3513 3500 
z
" transform="scale(0.015625)"/>
      <path id="DejaVuSans-70" d="M 1159 525 
L 1159 -1331 
L 581 -1331 
L 581 3500 
L 1159 3500 
L 1159 2969 
Q 1341 3281 1617 3432 
Q 1894 3584 2278 3584 
Q 2916 3584 3314 3078 
Q 3713 2572 3713 1747 
Q 3713 922 3314 415 
Q 2916 -91 2278 -91 
Q 1894 -91 1617 61 
Q 1341 213 1159 525 
z
M 3116 1747 
Q 3116 2381 2855 2742 
Q 2594 3103 2138 3103 
Q 1681 3103 1420 2742 
Q 1159 2381 1159 1747 
Q 1159 1113 1420 752 
Q 1681 391 2138 391 
Q 2594 391 2855 752 
Q 3116 1113 3116 1747 
z
" transform="scale(0.015625)"/>
      <path id="DejaVuSans-6c" d="M 603 4863 
L 1178 4863 
L 1178 0 
L 603 0 
L 603 4863 
z
" transform="scale(0.015625)"/>
      <path id="DejaVuSans-61" d="M 2194 1759 
Q 1497 1759 1228 1600 
Q 959 1441 959 1056 
Q 959 750 1161 570 
Q 1363 391 1709 391 
Q 2188 391 2477 730 
Q 2766 1069 2766 1631 
L 2766 1759 
L 2194 1759 
z
M 3341 1997 
L 3341 0 
L 2766 0 
L 2766 531 
Q 2569 213 2275 61 
Q 1981 -91 1556 -91 
Q 1019 -91 701 211 
Q 384 513 384 1019 
Q 384 1609 779 1909 
Q 1175 2209 1959 2209 
L 2766 2209 
L 2766 2266 
Q 2766 2663 2505 2880 
Q 2244 3097 1772 3097 
Q 1472 3097 1187 3025 
Q 903 2953 641 2809 
L 641 3341 
Q 956 3463 1253 3523 
Q 1550 3584 1831 3584 
Q 2591 3584 2966 3190 
Q 3341 2797 3341 1997 
z
" transform="scale(0.015625)"/>
      <path id="DejaVuSans-64" d="M 2906 2969 
L 2906 4863 
L 3481 4863 
L 3481 0 
L 2906 0 
L 2906 525 
Q 2725 213 2448 61 
Q 2172 -91 1784 -91 
Q 1150 -91 751 415 
Q 353 922 353 1747 
Q 353 2572 751 3078 
Q 1150 3584 1784 3584 
Q 2172 3584 2448 3432 
Q 2725 3281 2906 2969 
z
M 947 1747 
Q 947 1113 1208 752 
Q 1469 391 1925 391 
Q 2381 391 2643 752 
Q 2906 1113 2906 1747 
Q 2906 2381 2643 2742 
Q 2381 3103 1925 3103 
Q 1469 3103 1208 2742 
Q 947 2381 947 1747 
z
" transform="scale(0.015625)"/>
      <path id="DejaVuSans-20" transform="scale(0.015625)"/>
      <path id="DejaVuSans-76" d="M 191 3500 
L 800 3500 
L 1894 563 
L 2988 3500 
L 3597 3500 
L 2284 0 
L 1503 0 
L 191 3500 
z
" transform="scale(0.015625)"/>
      <path id="DejaVuSans-72" d="M 2631 2963 
Q 2534 3019 2420 3045 
Q 2306 3072 2169 3072 
Q 1681 3072 1420 2755 
Q 1159 2438 1159 1844 
L 1159 0 
L 581 0 
L 581 3500 
L 1159 3500 
L 1159 2956 
Q 1341 3275 1631 3429 
Q 1922 3584 2338 3584 
Q 2397 3584 2469 3576 
Q 2541 3569 2628 3553 
L 2631 2963 
z
" transform="scale(0.015625)"/>
      <path id="DejaVuSans-63" d="M 3122 3366 
L 3122 2828 
Q 2878 2963 2633 3030 
Q 2388 3097 2138 3097 
Q 1578 3097 1268 2742 
Q 959 2388 959 1747 
Q 959 1106 1268 751 
Q 1578 397 2138 397 
Q 2388 397 2633 464 
Q 2878 531 3122 666 
L 3122 134 
Q 2881 22 2623 -34 
Q 2366 -91 2075 -91 
Q 1284 -91 818 406 
Q 353 903 353 1747 
Q 353 2603 823 3093 
Q 1294 3584 2113 3584 
Q 2378 3584 2631 3529 
Q 2884 3475 3122 3366 
z
" transform="scale(0.015625)"/>
     </defs>
     <use xlink:href="#DejaVuSans-65"/>
     <use xlink:href="#DejaVuSans-78" x="59.773438"/>
     <use xlink:href="#DejaVuSans-70" x="118.953125"/>
     <use xlink:href="#DejaVuSans-6c" x="182.429688"/>
     <use xlink:href="#DejaVuSans-61" x="210.212891"/>
     <use xlink:href="#DejaVuSans-69" x="271.492188"/>
     <use xlink:href="#DejaVuSans-6e" x="299.275391"/>
     <use xlink:href="#DejaVuSans-65" x="362.654297"/>
     <use xlink:href="#DejaVuSans-64" x="424.177734"/>
     <use xlink:href="#DejaVuSans-20" x="487.654297"/>
     <use xlink:href="#DejaVuSans-76" x="519.441406"/>
     <use xlink:href="#DejaVuSans-61" x="578.621094"/>
     <use xlink:href="#DejaVuSans-72" x="639.900391"/>
     <use xlink:href="#DejaVuSans-69" x="681.013672"/>
     <use xlink:href="#DejaVuSans-61" x="708.796875"/>
     <use xlink:href="#DejaVuSans-6e" x="770.076172"/>
     <use xlink:href="#DejaVuSans-63" x="833.455078"/>
     <use xlink:href="#DejaVuSans-65" x="888.435547"/>
    </g>
   </g>
  </g>
 </g>
 <defs>
  <clipPath id="pc36162a553">
   <rect x="394.363636" y="86.4" width="253.636364" height="247.090909"/>
  </clipPath>
  <clipPath id="p4bdd2e1020">
   <rect x="394.363636" y="382.909091" width="253.636364" height="247.090909"/>
  </clipPath>
 </defs>
</svg>
