<?xml version="1.0" encoding="utf-8" standalone="no"?>
<!DOCTYPE svg PUBLIC "-//W3C//DTD SVG 1.1//EN"
  "http://www.w3.org/Graphics/SVG/1.1/DTD/svg11.dtd">
<svg xmlns:xlink="http://www.w3.org/1999/xlink" width="720pt" height="720pt" viewBox="0 0 720 720" xmlns="http://www.w3.org/2000/svg" version="1.1">
 <metadata>
  <rdf:RDF xmlns:dc="http://purl.org/dc/elements/1.1/" xmlns:cc="http://creativecommons.org/ns#" xmlns:rdf="http://www.w3.org/1999/02/22-rdf-syntax-ns#">
   <cc:Work>
    <dc:type rdf:resource="http://purl.org/dc/dcmitype/StillImage"/>
    <dc:date>2023-12-19T18:23:31.297058</dc:date>
    <dc:format>image/svg+xml</dc:format>
    <dc:creator>
     <cc:Agent>
      <dc:title>Matplotlib v3.5.2, https://matplotlib.org/</dc:title>
     </cc:Agent>
    </dc:creator>
   </cc:Work>
  </rdf:RDF>
 </metadata>
 <defs>
  <style type="text/css">*{stroke-linejoin: round; stroke-linecap: butt}</style>
 </defs>
 <g id="figure_1">
  <g id="patch_1">
   <path d="M 0 720 
L 720 720 
L 720 0 
L 0 0 
z
" style="fill: #ffffff"/>
  </g>
  <g id="axes_1">
   <g id="patch_2">
    <path d="M 90 333.490909 
L 343.636364 333.490909 
L 343.636364 86.4 
L 90 86.4 
z
" style="fill: #ffffff"/>
   </g>
   <g id="matplotlib.axis_1">
    <g id="xtick_1">
     <g id="line2d_1">
      <defs>
       <path id="mc7abe8ab1a" d="M 0 0 
L 0 3.5 
" style="stroke: #000000; stroke-width: 0.8"/>
      </defs>
      <g>
       <use xlink:href="#mc7abe8ab1a" x="90" y="333.490909" style="stroke: #000000; stroke-width: 0.8"/>
      </g>
     </g>
     <g id="text_1">
      <!-- 0.0 -->
      <g transform="translate(82.048438 348.089347)scale(0.1 -0.1)">
       <defs>
        <path id="DejaVuSans-30" d="M 2034 4250 
Q 1547 4250 1301 3770 
Q 1056 3291 1056 2328 
Q 1056 1369 1301 889 
Q 1547 409 2034 409 
Q 2525 409 2770 889 
Q 3016 1369 3016 2328 
Q 3016 3291 2770 3770 
Q 2525 4250 2034 4250 
z
M 2034 4750 
Q 2819 4750 3233 4129 
Q 3647 3509 3647 2328 
Q 3647 1150 3233 529 
Q 2819 -91 2034 -91 
Q 1250 -91 836 529 
Q 422 1150 422 2328 
Q 422 3509 836 4129 
Q 1250 4750 2034 4750 
z
" transform="scale(0.015625)"/>
        <path id="DejaVuSans-2e" d="M 684 794 
L 1344 794 
L 1344 0 
L 684 0 
L 684 794 
z
" transform="scale(0.015625)"/>
       </defs>
       <use xlink:href="#DejaVuSans-30"/>
       <use xlink:href="#DejaVuSans-2e" x="63.623047"/>
       <use xlink:href="#DejaVuSans-30" x="95.410156"/>
      </g>
     </g>
    </g>
    <g id="xtick_2">
     <g id="line2d_2">
      <g>
       <use xlink:href="#mc7abe8ab1a" x="140.727273" y="333.490909" style="stroke: #000000; stroke-width: 0.8"/>
      </g>
     </g>
     <g id="text_2">
      <!-- 0.2 -->
      <g transform="translate(132.77571 348.089347)scale(0.1 -0.1)">
       <defs>
        <path id="DejaVuSans-32" d="M 1228 531 
L 3431 531 
L 3431 0 
L 469 0 
L 469 531 
Q 828 903 1448 1529 
Q 2069 2156 2228 2338 
Q 2531 2678 2651 2914 
Q 2772 3150 2772 3378 
Q 2772 3750 2511 3984 
Q 2250 4219 1831 4219 
Q 1534 4219 1204 4116 
Q 875 4013 500 3803 
L 500 4441 
Q 881 4594 1212 4672 
Q 1544 4750 1819 4750 
Q 2544 4750 2975 4387 
Q 3406 4025 3406 3419 
Q 3406 3131 3298 2873 
Q 3191 2616 2906 2266 
Q 2828 2175 2409 1742 
Q 1991 1309 1228 531 
z
" transform="scale(0.015625)"/>
       </defs>
       <use xlink:href="#DejaVuSans-30"/>
       <use xlink:href="#DejaVuSans-2e" x="63.623047"/>
       <use xlink:href="#DejaVuSans-32" x="95.410156"/>
      </g>
     </g>
    </g>
    <g id="xtick_3">
     <g id="line2d_3">
      <g>
       <use xlink:href="#mc7abe8ab1a" x="191.454545" y="333.490909" style="stroke: #000000; stroke-width: 0.8"/>
      </g>
     </g>
     <g id="text_3">
      <!-- 0.4 -->
      <g transform="translate(183.502983 348.089347)scale(0.1 -0.1)">
       <defs>
        <path id="DejaVuSans-34" d="M 2419 4116 
L 825 1625 
L 2419 1625 
L 2419 4116 
z
M 2253 4666 
L 3047 4666 
L 3047 1625 
L 3713 1625 
L 3713 1100 
L 3047 1100 
L 3047 0 
L 2419 0 
L 2419 1100 
L 313 1100 
L 313 1709 
L 2253 4666 
z
" transform="scale(0.015625)"/>
       </defs>
       <use xlink:href="#DejaVuSans-30"/>
       <use xlink:href="#DejaVuSans-2e" x="63.623047"/>
       <use xlink:href="#DejaVuSans-34" x="95.410156"/>
      </g>
     </g>
    </g>
    <g id="xtick_4">
     <g id="line2d_4">
      <g>
       <use xlink:href="#mc7abe8ab1a" x="242.181818" y="333.490909" style="stroke: #000000; stroke-width: 0.8"/>
      </g>
     </g>
     <g id="text_4">
      <!-- 0.6 -->
      <g transform="translate(234.230256 348.089347)scale(0.1 -0.1)">
       <defs>
        <path id="DejaVuSans-36" d="M 2113 2584 
Q 1688 2584 1439 2293 
Q 1191 2003 1191 1497 
Q 1191 994 1439 701 
Q 1688 409 2113 409 
Q 2538 409 2786 701 
Q 3034 994 3034 1497 
Q 3034 2003 2786 2293 
Q 2538 2584 2113 2584 
z
M 3366 4563 
L 3366 3988 
Q 3128 4100 2886 4159 
Q 2644 4219 2406 4219 
Q 1781 4219 1451 3797 
Q 1122 3375 1075 2522 
Q 1259 2794 1537 2939 
Q 1816 3084 2150 3084 
Q 2853 3084 3261 2657 
Q 3669 2231 3669 1497 
Q 3669 778 3244 343 
Q 2819 -91 2113 -91 
Q 1303 -91 875 529 
Q 447 1150 447 2328 
Q 447 3434 972 4092 
Q 1497 4750 2381 4750 
Q 2619 4750 2861 4703 
Q 3103 4656 3366 4563 
z
" transform="scale(0.015625)"/>
       </defs>
       <use xlink:href="#DejaVuSans-30"/>
       <use xlink:href="#DejaVuSans-2e" x="63.623047"/>
       <use xlink:href="#DejaVuSans-36" x="95.410156"/>
      </g>
     </g>
    </g>
    <g id="xtick_5">
     <g id="line2d_5">
      <g>
       <use xlink:href="#mc7abe8ab1a" x="292.909091" y="333.490909" style="stroke: #000000; stroke-width: 0.8"/>
      </g>
     </g>
     <g id="text_5">
      <!-- 0.8 -->
      <g transform="translate(284.957528 348.089347)scale(0.1 -0.1)">
       <defs>
        <path id="DejaVuSans-38" d="M 2034 2216 
Q 1584 2216 1326 1975 
Q 1069 1734 1069 1313 
Q 1069 891 1326 650 
Q 1584 409 2034 409 
Q 2484 409 2743 651 
Q 3003 894 3003 1313 
Q 3003 1734 2745 1975 
Q 2488 2216 2034 2216 
z
M 1403 2484 
Q 997 2584 770 2862 
Q 544 3141 544 3541 
Q 544 4100 942 4425 
Q 1341 4750 2034 4750 
Q 2731 4750 3128 4425 
Q 3525 4100 3525 3541 
Q 3525 3141 3298 2862 
Q 3072 2584 2669 2484 
Q 3125 2378 3379 2068 
Q 3634 1759 3634 1313 
Q 3634 634 3220 271 
Q 2806 -91 2034 -91 
Q 1263 -91 848 271 
Q 434 634 434 1313 
Q 434 1759 690 2068 
Q 947 2378 1403 2484 
z
M 1172 3481 
Q 1172 3119 1398 2916 
Q 1625 2713 2034 2713 
Q 2441 2713 2670 2916 
Q 2900 3119 2900 3481 
Q 2900 3844 2670 4047 
Q 2441 4250 2034 4250 
Q 1625 4250 1398 4047 
Q 1172 3844 1172 3481 
z
" transform="scale(0.015625)"/>
       </defs>
       <use xlink:href="#DejaVuSans-30"/>
       <use xlink:href="#DejaVuSans-2e" x="63.623047"/>
       <use xlink:href="#DejaVuSans-38" x="95.410156"/>
      </g>
     </g>
    </g>
    <g id="xtick_6">
     <g id="line2d_6">
      <g>
       <use xlink:href="#mc7abe8ab1a" x="343.636364" y="333.490909" style="stroke: #000000; stroke-width: 0.8"/>
      </g>
     </g>
     <g id="text_6">
      <!-- 1.0 -->
      <g transform="translate(335.684801 348.089347)scale(0.1 -0.1)">
       <defs>
        <path id="DejaVuSans-31" d="M 794 531 
L 1825 531 
L 1825 4091 
L 703 3866 
L 703 4441 
L 1819 4666 
L 2450 4666 
L 2450 531 
L 3481 531 
L 3481 0 
L 794 0 
L 794 531 
z
" transform="scale(0.015625)"/>
       </defs>
       <use xlink:href="#DejaVuSans-31"/>
       <use xlink:href="#DejaVuSans-2e" x="63.623047"/>
       <use xlink:href="#DejaVuSans-30" x="95.410156"/>
      </g>
     </g>
    </g>
   </g>
   <g id="matplotlib.axis_2">
    <g id="ytick_1">
     <g id="line2d_7">
      <defs>
       <path id="m0f1e5b4858" d="M 0 0 
L -3.5 0 
" style="stroke: #000000; stroke-width: 0.8"/>
      </defs>
      <g>
       <use xlink:href="#m0f1e5b4858" x="90" y="333.490909" style="stroke: #000000; stroke-width: 0.8"/>
      </g>
     </g>
     <g id="text_7">
      <!-- 0.0 -->
      <g transform="translate(67.096875 337.290128)scale(0.1 -0.1)">
       <use xlink:href="#DejaVuSans-30"/>
       <use xlink:href="#DejaVuSans-2e" x="63.623047"/>
       <use xlink:href="#DejaVuSans-30" x="95.410156"/>
      </g>
     </g>
    </g>
    <g id="ytick_2">
     <g id="line2d_8">
      <g>
       <use xlink:href="#m0f1e5b4858" x="90" y="284.072727" style="stroke: #000000; stroke-width: 0.8"/>
      </g>
     </g>
     <g id="text_8">
      <!-- 0.2 -->
      <g transform="translate(67.096875 287.871946)scale(0.1 -0.1)">
       <use xlink:href="#DejaVuSans-30"/>
       <use xlink:href="#DejaVuSans-2e" x="63.623047"/>
       <use xlink:href="#DejaVuSans-32" x="95.410156"/>
      </g>
     </g>
    </g>
    <g id="ytick_3">
     <g id="line2d_9">
      <g>
       <use xlink:href="#m0f1e5b4858" x="90" y="234.654545" style="stroke: #000000; stroke-width: 0.8"/>
      </g>
     </g>
     <g id="text_9">
      <!-- 0.4 -->
      <g transform="translate(67.096875 238.453764)scale(0.1 -0.1)">
       <use xlink:href="#DejaVuSans-30"/>
       <use xlink:href="#DejaVuSans-2e" x="63.623047"/>
       <use xlink:href="#DejaVuSans-34" x="95.410156"/>
      </g>
     </g>
    </g>
    <g id="ytick_4">
     <g id="line2d_10">
      <g>
       <use xlink:href="#m0f1e5b4858" x="90" y="185.236364" style="stroke: #000000; stroke-width: 0.8"/>
      </g>
     </g>
     <g id="text_10">
      <!-- 0.6 -->
      <g transform="translate(67.096875 189.035582)scale(0.1 -0.1)">
       <use xlink:href="#DejaVuSans-30"/>
       <use xlink:href="#DejaVuSans-2e" x="63.623047"/>
       <use xlink:href="#DejaVuSans-36" x="95.410156"/>
      </g>
     </g>
    </g>
    <g id="ytick_5">
     <g id="line2d_11">
      <g>
       <use xlink:href="#m0f1e5b4858" x="90" y="135.818182" style="stroke: #000000; stroke-width: 0.8"/>
      </g>
     </g>
     <g id="text_11">
      <!-- 0.8 -->
      <g transform="translate(67.096875 139.617401)scale(0.1 -0.1)">
       <use xlink:href="#DejaVuSans-30"/>
       <use xlink:href="#DejaVuSans-2e" x="63.623047"/>
       <use xlink:href="#DejaVuSans-38" x="95.410156"/>
      </g>
     </g>
    </g>
    <g id="ytick_6">
     <g id="line2d_12">
      <g>
       <use xlink:href="#m0f1e5b4858" x="90" y="86.4" style="stroke: #000000; stroke-width: 0.8"/>
      </g>
     </g>
     <g id="text_12">
      <!-- 1.0 -->
      <g transform="translate(67.096875 90.199219)scale(0.1 -0.1)">
       <use xlink:href="#DejaVuSans-31"/>
       <use xlink:href="#DejaVuSans-2e" x="63.623047"/>
       <use xlink:href="#DejaVuSans-30" x="95.410156"/>
      </g>
     </g>
    </g>
   </g>
   <g id="patch_3">
    <path d="M 90 333.490909 
L 90 86.4 
" style="fill: none; stroke: #000000; stroke-width: 0.8; stroke-linejoin: miter; stroke-linecap: square"/>
   </g>
   <g id="patch_4">
    <path d="M 343.636364 333.490909 
L 343.636364 86.4 
" style="fill: none; stroke: #000000; stroke-width: 0.8; stroke-linejoin: miter; stroke-linecap: square"/>
   </g>
   <g id="patch_5">
    <path d="M 90 333.490909 
L 343.636364 333.490909 
" style="fill: none; stroke: #000000; stroke-width: 0.8; stroke-linejoin: miter; stroke-linecap: square"/>
   </g>
   <g id="patch_6">
    <path d="M 90 86.4 
L 343.636364 86.4 
" style="fill: none; stroke: #000000; stroke-width: 0.8; stroke-linejoin: miter; stroke-linecap: square"/>
   </g>
  </g>
  <g id="axes_2">
   <g id="patch_7">
    <path d="M 394.363636 333.490909 
L 648 333.490909 
L 648 86.4 
L 394.363636 86.4 
z
" style="fill: #ffffff"/>
   </g>
   <g id="PolyCollection_1">
    <defs>
     <path id="mad917d5982" d="M 405.892562 -491.650379 
L 405.892562 -491.650379 
L 407.342741 -479.312511 
L 408.792921 -458.128983 
L 410.2431 -418.327252 
L 411.693279 -403.381322 
L 413.143459 -397.740496 
L 414.593638 -405.412787 
L 416.043817 -414.627518 
L 417.493997 -435.100965 
L 418.944176 -426.815488 
L 420.394355 -429.230294 
L 421.844535 -438.346793 
L 423.294714 -462.331046 
L 424.744893 -464.544708 
L 426.195073 -489.501019 
L 427.645252 -499.32877 
L 429.095431 -505.606565 
L 430.54561 -508.912077 
L 431.99579 -510.312653 
L 433.445969 -510.780901 
L 434.896148 -510.902911 
L 436.346328 -510.926951 
L 437.796507 -510.931306 
L 439.246686 -510.931306 
L 440.696866 -510.931306 
L 442.147045 -510.931306 
L 443.597224 -510.931306 
L 445.047404 -510.931306 
L 446.497583 -510.931306 
L 447.947762 -510.931306 
L 449.397942 -510.931306 
L 450.848121 -510.931306 
L 452.2983 -510.931306 
L 453.74848 -510.931306 
L 455.198659 -510.931306 
L 456.648838 -510.931306 
L 458.099018 -510.931306 
L 459.549197 -510.925485 
L 460.999376 -510.886283 
L 462.449556 -510.686547 
L 463.899735 -509.896322 
L 465.349914 -507.461498 
L 466.800094 -501.672065 
L 468.250273 -491.180448 
L 469.700452 -477.113667 
L 471.150632 -447.586987 
L 472.600811 -438.516932 
L 474.05099 -445.354961 
L 475.501169 -476.946693 
L 476.951349 -491.03941 
L 478.401528 -501.588042 
L 479.851707 -507.424315 
L 481.301887 -509.883825 
L 482.752066 -510.683322 
L 484.202245 -510.885628 
L 485.652425 -510.925384 
L 487.102604 -510.931306 
L 488.552783 -510.931306 
L 490.002963 -510.931306 
L 491.453142 -510.931306 
L 492.903321 -510.931306 
L 494.353501 -510.931306 
L 495.80368 -510.931306 
L 497.253859 -510.931306 
L 498.704039 -510.931306 
L 500.154218 -510.931306 
L 501.604397 -510.931306 
L 503.054577 -510.931306 
L 504.504756 -510.931306 
L 505.954935 -510.931306 
L 507.405115 -510.931306 
L 508.855294 -510.931306 
L 510.305473 -510.931306 
L 511.755653 -510.931306 
L 513.205832 -510.931306 
L 514.656011 -510.931306 
L 516.106191 -510.931306 
L 517.55637 -510.931306 
L 519.006549 -510.931306 
L 520.456729 -510.931306 
L 521.906908 -510.931306 
L 523.357087 -510.931306 
L 524.807266 -510.931306 
L 526.257446 -510.931306 
L 527.707625 -510.931306 
L 529.157804 -510.931306 
L 530.607984 -510.931306 
L 532.058163 -510.931306 
L 533.508342 -510.931306 
L 534.958522 -510.931306 
L 536.408701 -510.931306 
L 537.85888 -510.931306 
L 539.30906 -510.931306 
L 540.759239 -510.931306 
L 542.209418 -510.93535 
L 543.659598 -510.957677 
L 545.109777 -511.06523 
L 546.559956 -511.460984 
L 548.010136 -512.56283 
L 549.460315 -514.845128 
L 550.910494 -518.243288 
L 552.360674 -521.570177 
L 553.810853 -515.898734 
L 555.261032 -521.570177 
L 556.711212 -518.243288 
L 558.161391 -514.845128 
L 559.61157 -512.56283 
L 561.06175 -511.459301 
L 562.511929 -511.054253 
L 563.962108 -510.901931 
L 565.412288 -510.714871 
L 566.862467 -510.252183 
L 568.312646 -509.303285 
L 569.762826 -507.894931 
L 571.213005 -506.539653 
L 572.663184 -498.288792 
L 574.113363 -506.951004 
L 575.563543 -508.962711 
L 577.013722 -511.310582 
L 578.463901 -513.174399 
L 579.914081 -506.347678 
L 581.36426 -513.797776 
L 582.814439 -512.928737 
L 584.264619 -512.004646 
L 585.714798 -511.382818 
L 587.164977 -511.098805 
L 588.615157 -511.07987 
L 590.065336 -511.383997 
L 591.515515 -512.31604 
L 592.965695 -514.309086 
L 594.415874 -517.473757 
L 595.866053 -521.164901 
L 597.316233 -510.993254 
L 598.766412 -525.878903 
L 600.216591 -525.863002 
L 601.666771 -510.974918 
L 603.11695 -521.121849 
L 604.567129 -517.441341 
L 606.017309 -514.29102 
L 607.467488 -512.307257 
L 608.917667 -511.374242 
L 610.367847 -511.042444 
L 611.818026 -510.95319 
L 613.268205 -510.934662 
L 614.718385 -510.931306 
L 616.168564 -510.931306 
L 617.618743 -510.931306 
L 619.068923 -510.931306 
L 620.519102 -510.931306 
L 621.969281 -510.931306 
L 623.41946 -510.933882 
L 624.86964 -510.948103 
L 626.319819 -511.016609 
L 627.769998 -511.271261 
L 629.220178 -511.987304 
L 630.670357 -513.509523 
L 632.120536 -515.926062 
L 633.570716 -518.74695 
L 635.020895 -510.137614 
L 636.471074 -522.365126 
L 636.471074 -522.365126 
L 636.471074 -522.365126 
L 635.020895 -532.068258 
L 633.570716 -518.74695 
L 632.120536 -515.926062 
L 630.670357 -513.509523 
L 629.220178 -511.987304 
L 627.769998 -511.271261 
L 626.319819 -511.016609 
L 624.86964 -510.948103 
L 623.41946 -510.933882 
L 621.969281 -510.931306 
L 620.519102 -510.931306 
L 619.068923 -510.931306 
L 617.618743 -510.931306 
L 616.168564 -510.931306 
L 614.718385 -510.931306 
L 613.268205 -510.934662 
L 611.818026 -510.95319 
L 610.367847 -511.042444 
L 608.917667 -511.374242 
L 607.467488 -512.307257 
L 606.017309 -514.29102 
L 604.567129 -517.441341 
L 603.11695 -521.121849 
L 601.666771 -537.429671 
L 600.216591 -525.863002 
L 598.766412 -525.878903 
L 597.316233 -537.489163 
L 595.866053 -521.164901 
L 594.415874 -517.473757 
L 592.965695 -514.309086 
L 591.515515 -512.31604 
L 590.065336 -511.383997 
L 588.615157 -511.07987 
L 587.164977 -511.098805 
L 585.714798 -511.382818 
L 584.264619 -512.004646 
L 582.814439 -512.928737 
L 581.36426 -513.797776 
L 579.914081 -521.696585 
L 578.463901 -513.174399 
L 577.013722 -511.310582 
L 575.563543 -508.962711 
L 574.113363 -506.951004 
L 572.663184 -513.828641 
L 571.213005 -506.539653 
L 569.762826 -507.894931 
L 568.312646 -509.303285 
L 566.862467 -510.252183 
L 565.412288 -510.714871 
L 563.962108 -510.901931 
L 562.511929 -511.054253 
L 561.06175 -511.459301 
L 559.61157 -512.56283 
L 558.161391 -514.845128 
L 556.711212 -518.243288 
L 555.261032 -521.570177 
L 553.810853 -530.074719 
L 552.360674 -521.570177 
L 550.910494 -518.243288 
L 549.460315 -514.845128 
L 548.010136 -512.56283 
L 546.559956 -511.460984 
L 545.109777 -511.06523 
L 543.659598 -510.957677 
L 542.209418 -510.93535 
L 540.759239 -510.931306 
L 539.30906 -510.931306 
L 537.85888 -510.931306 
L 536.408701 -510.931306 
L 534.958522 -510.931306 
L 533.508342 -510.931306 
L 532.058163 -510.931306 
L 530.607984 -510.931306 
L 529.157804 -510.931306 
L 527.707625 -510.931306 
L 526.257446 -510.931306 
L 524.807266 -510.931306 
L 523.357087 -510.931306 
L 521.906908 -510.931306 
L 520.456729 -510.931306 
L 519.006549 -510.931306 
L 517.55637 -510.931306 
L 516.106191 -510.931306 
L 514.656011 -510.931306 
L 513.205832 -510.931306 
L 511.755653 -510.931306 
L 510.305473 -510.931306 
L 508.855294 -510.931306 
L 507.405115 -510.931306 
L 505.954935 -510.931306 
L 504.504756 -510.931306 
L 503.054577 -510.931306 
L 501.604397 -510.931306 
L 500.154218 -510.931306 
L 498.704039 -510.931306 
L 497.253859 -510.931306 
L 495.80368 -510.931306 
L 494.353501 -510.931306 
L 492.903321 -510.931306 
L 491.453142 -510.931306 
L 490.002963 -510.931306 
L 488.552783 -510.931306 
L 487.102604 -510.931306 
L 485.652425 -510.925384 
L 484.202245 -510.885628 
L 482.752066 -510.683322 
L 481.301887 -509.883825 
L 479.851707 -507.424315 
L 478.401528 -501.588042 
L 476.951349 -491.03941 
L 475.501169 -476.946693 
L 474.05099 -482.984005 
L 472.600811 -479.443748 
L 471.150632 -480.987526 
L 469.700452 -477.113667 
L 468.250273 -491.180448 
L 466.800094 -501.672065 
L 465.349914 -507.461498 
L 463.899735 -509.896322 
L 462.449556 -510.686547 
L 460.999376 -510.886283 
L 459.549197 -510.925485 
L 458.099018 -510.931306 
L 456.648838 -510.931306 
L 455.198659 -510.931306 
L 453.74848 -510.931306 
L 452.2983 -510.931306 
L 450.848121 -510.931306 
L 449.397942 -510.931306 
L 447.947762 -510.931306 
L 446.497583 -510.931306 
L 445.047404 -510.931306 
L 443.597224 -510.931306 
L 442.147045 -510.931306 
L 440.696866 -510.931306 
L 439.246686 -510.931306 
L 437.796507 -510.931306 
L 436.346328 -510.926951 
L 434.896148 -510.902911 
L 433.445969 -510.780901 
L 431.99579 -510.312653 
L 430.54561 -508.912077 
L 429.095431 -505.606565 
L 427.645252 -499.32877 
L 426.195073 -489.501019 
L 424.744893 -488.572844 
L 423.294714 -462.331046 
L 421.844535 -461.536304 
L 420.394355 -455.0472 
L 418.944176 -450.19544 
L 417.493997 -435.100965 
L 416.043817 -442.107079 
L 414.593638 -433.533939 
L 413.143459 -430.843208 
L 411.693279 -434.674387 
L 410.2431 -452.16828 
L 408.792921 -458.128983 
L 407.342741 -479.312511 
L 405.892562 -491.650379 
z
" style="stroke: #9467bd; stroke-opacity: 0.2"/>
    </defs>
    <g clip-path="url(#p5a644b538f)">
     <use xlink:href="#mad917d5982" x="0" y="720" style="fill: #9467bd; fill-opacity: 0.2; stroke: #9467bd; stroke-opacity: 0.2"/>
    </g>
   </g>
   <g id="PolyCollection_2">
    <defs>
     <path id="me876164ef2" d="M 405.892562 -510.931306 
L 405.892562 -510.931306 
L 407.342741 -510.931306 
L 408.792921 -510.931306 
L 410.2431 -510.931306 
L 411.693279 -510.931306 
L 413.143459 -510.931306 
L 414.593638 -510.931306 
L 416.043817 -510.931306 
L 417.493997 -510.931306 
L 418.944176 -510.931306 
L 420.394355 -510.931306 
L 421.844535 -510.931306 
L 423.294714 -510.931306 
L 424.744893 -510.931306 
L 426.195073 -510.931306 
L 427.645252 -510.931306 
L 429.095431 -510.931306 
L 430.54561 -510.931306 
L 431.99579 -510.931306 
L 433.445969 -510.931231 
L 434.896148 -510.930816 
L 436.346328 -510.928815 
L 437.796507 -510.921456 
L 439.246686 -510.900966 
L 440.696866 -510.858524 
L 442.147045 -510.795332 
L 443.597224 -510.733465 
L 445.047404 -509.583351 
L 446.497583 -510.734074 
L 447.947762 -510.798129 
L 449.397942 -510.86883 
L 450.848121 -510.926149 
L 452.2983 -510.954353 
L 453.74848 -510.881285 
L 455.198659 -510.497411 
L 456.648838 -508.034734 
L 458.099018 -507.302779 
L 459.549197 -499.767828 
L 460.999376 -500.859913 
L 462.449556 -486.783686 
L 463.899735 -489.950927 
L 465.349914 -500.167779 
L 466.800094 -502.406584 
L 468.250273 -499.33859 
L 469.700452 -506.302615 
L 471.150632 -508.071375 
L 472.600811 -509.473128 
L 474.05099 -510.336431 
L 475.501169 -510.740345 
L 476.951349 -510.88331 
L 478.401528 -510.921857 
L 479.851707 -510.929857 
L 481.301887 -510.931306 
L 482.752066 -510.931306 
L 484.202245 -510.931306 
L 485.652425 -510.931306 
L 487.102604 -510.931306 
L 488.552783 -510.931306 
L 490.002963 -510.931306 
L 491.453142 -510.931306 
L 492.903321 -510.931306 
L 494.353501 -510.931306 
L 495.80368 -510.931306 
L 497.253859 -510.931306 
L 498.704039 -510.931306 
L 500.154218 -510.931306 
L 501.604397 -510.931306 
L 503.054577 -510.931306 
L 504.504756 -510.931306 
L 505.954935 -510.931306 
L 507.405115 -510.931306 
L 508.855294 -510.931306 
L 510.305473 -510.931306 
L 511.755653 -510.931306 
L 513.205832 -510.931306 
L 514.656011 -510.931306 
L 516.106191 -510.931306 
L 517.55637 -510.931306 
L 519.006549 -510.931306 
L 520.456729 -510.931306 
L 521.906908 -510.931306 
L 523.357087 -510.931306 
L 524.807266 -510.931306 
L 526.257446 -510.931306 
L 527.707625 -510.931306 
L 529.157804 -510.931306 
L 530.607984 -510.931306 
L 532.058163 -510.931306 
L 533.508342 -510.931306 
L 534.958522 -510.931306 
L 536.408701 -510.931306 
L 537.85888 -510.931306 
L 539.30906 -510.931306 
L 540.759239 -510.931306 
L 542.209418 -510.931306 
L 543.659598 -510.931306 
L 545.109777 -510.931306 
L 546.559956 -510.931306 
L 548.010136 -510.931306 
L 549.460315 -510.931306 
L 550.910494 -510.931306 
L 552.360674 -510.931306 
L 553.810853 -510.931306 
L 555.261032 -510.931306 
L 556.711212 -510.931306 
L 558.161391 -510.931306 
L 559.61157 -510.931306 
L 561.06175 -510.931306 
L 562.511929 -510.931306 
L 563.962108 -510.931306 
L 565.412288 -510.952626 
L 566.862467 -511.07033 
L 568.312646 -511.637328 
L 569.762826 -513.723677 
L 571.213005 -519.532414 
L 572.663184 -531.564293 
L 574.113363 -549.4788 
L 575.563543 -567.017579 
L 577.013722 -546.982396 
L 578.463901 -567.017579 
L 579.914081 -549.4788 
L 581.36426 -531.564293 
L 582.814439 -519.532414 
L 584.264619 -513.723677 
L 585.714798 -511.637328 
L 587.164977 -511.07033 
L 588.615157 -510.952626 
L 590.065336 -510.931306 
L 591.515515 -510.931306 
L 592.965695 -510.929273 
L 594.415874 -510.917919 
L 595.866053 -510.863021 
L 597.316233 -510.66121 
L 598.766412 -510.098308 
L 600.216591 -508.936939 
L 601.666771 -507.243897 
L 603.11695 -505.730902 
L 604.567129 -493.663582 
L 606.017309 -503.276557 
L 607.467488 -508.110339 
L 608.917667 -503.767195 
L 610.367847 -512.99074 
L 611.818026 -512.709123 
L 613.268205 -511.982038 
L 614.718385 -511.391099 
L 616.168564 -511.085789 
L 617.618743 -510.979522 
L 619.068923 -510.983264 
L 620.519102 -511.107011 
L 621.969281 -511.468759 
L 623.41946 -512.220589 
L 624.86964 -513.340004 
L 626.319819 -514.435941 
L 627.769998 -501.653208 
L 629.220178 -514.435941 
L 630.670357 -513.340004 
L 632.120536 -512.220589 
L 633.570716 -511.468759 
L 635.020895 -511.107124 
L 636.471074 -510.98411 
L 636.471074 -510.98411 
L 636.471074 -510.98411 
L 635.020895 -511.107124 
L 633.570716 -511.468759 
L 632.120536 -512.220589 
L 630.670357 -513.340004 
L 629.220178 -514.435941 
L 627.769998 -528.151948 
L 626.319819 -514.435941 
L 624.86964 -513.340004 
L 623.41946 -512.220589 
L 621.969281 -511.468759 
L 620.519102 -511.107011 
L 619.068923 -510.983264 
L 617.618743 -510.979522 
L 616.168564 -511.085789 
L 614.718385 -511.391099 
L 613.268205 -511.982038 
L 611.818026 -512.709123 
L 610.367847 -512.99074 
L 608.917667 -520.370383 
L 607.467488 -511.463143 
L 606.017309 -510.932583 
L 604.567129 -517.347585 
L 603.11695 -505.730902 
L 601.666771 -507.243897 
L 600.216591 -508.936939 
L 598.766412 -510.098308 
L 597.316233 -510.66121 
L 595.866053 -510.863021 
L 594.415874 -510.917919 
L 592.965695 -510.929273 
L 591.515515 -510.931306 
L 590.065336 -510.931306 
L 588.615157 -510.952626 
L 587.164977 -511.07033 
L 585.714798 -511.637328 
L 584.264619 -513.723677 
L 582.814439 -519.532414 
L 581.36426 -531.564293 
L 579.914081 -549.4788 
L 578.463901 -567.017579 
L 577.013722 -601.988364 
L 575.563543 -567.017579 
L 574.113363 -549.4788 
L 572.663184 -531.564293 
L 571.213005 -519.532414 
L 569.762826 -513.723677 
L 568.312646 -511.637328 
L 566.862467 -511.07033 
L 565.412288 -510.952626 
L 563.962108 -510.931306 
L 562.511929 -510.931306 
L 561.06175 -510.931306 
L 559.61157 -510.931306 
L 558.161391 -510.931306 
L 556.711212 -510.931306 
L 555.261032 -510.931306 
L 553.810853 -510.931306 
L 552.360674 -510.931306 
L 550.910494 -510.931306 
L 549.460315 -510.931306 
L 548.010136 -510.931306 
L 546.559956 -510.931306 
L 545.109777 -510.931306 
L 543.659598 -510.931306 
L 542.209418 -510.931306 
L 540.759239 -510.931306 
L 539.30906 -510.931306 
L 537.85888 -510.931306 
L 536.408701 -510.931306 
L 534.958522 -510.931306 
L 533.508342 -510.931306 
L 532.058163 -510.931306 
L 530.607984 -510.931306 
L 529.157804 -510.931306 
L 527.707625 -510.931306 
L 526.257446 -510.931306 
L 524.807266 -510.931306 
L 523.357087 -510.931306 
L 521.906908 -510.931306 
L 520.456729 -510.931306 
L 519.006549 -510.931306 
L 517.55637 -510.931306 
L 516.106191 -510.931306 
L 514.656011 -510.931306 
L 513.205832 -510.931306 
L 511.755653 -510.931306 
L 510.305473 -510.931306 
L 508.855294 -510.931306 
L 507.405115 -510.931306 
L 505.954935 -510.931306 
L 504.504756 -510.931306 
L 503.054577 -510.931306 
L 501.604397 -510.931306 
L 500.154218 -510.931306 
L 498.704039 -510.931306 
L 497.253859 -510.931306 
L 495.80368 -510.931306 
L 494.353501 -510.931306 
L 492.903321 -510.931306 
L 491.453142 -510.931306 
L 490.002963 -510.931306 
L 488.552783 -510.931306 
L 487.102604 -510.931306 
L 485.652425 -510.931306 
L 484.202245 -510.931306 
L 482.752066 -510.931306 
L 481.301887 -510.931306 
L 479.851707 -510.929857 
L 478.401528 -510.921857 
L 476.951349 -510.88331 
L 475.501169 -510.740345 
L 474.05099 -510.336431 
L 472.600811 -509.473128 
L 471.150632 -508.071375 
L 469.700452 -506.302615 
L 468.250273 -509.479087 
L 466.800094 -502.406584 
L 465.349914 -500.452829 
L 463.899735 -507.528591 
L 462.449556 -510.769398 
L 460.999376 -500.859913 
L 459.549197 -508.5549 
L 458.099018 -507.302779 
L 456.648838 -510.823936 
L 455.198659 -510.497411 
L 453.74848 -510.881285 
L 452.2983 -510.954353 
L 450.848121 -510.926149 
L 449.397942 -510.86883 
L 447.947762 -510.798129 
L 446.497583 -510.734074 
L 445.047404 -511.831082 
L 443.597224 -510.733465 
L 442.147045 -510.795332 
L 440.696866 -510.858524 
L 439.246686 -510.900966 
L 437.796507 -510.921456 
L 436.346328 -510.928815 
L 434.896148 -510.930816 
L 433.445969 -510.931231 
L 431.99579 -510.931306 
L 430.54561 -510.931306 
L 429.095431 -510.931306 
L 427.645252 -510.931306 
L 426.195073 -510.931306 
L 424.744893 -510.931306 
L 423.294714 -510.931306 
L 421.844535 -510.931306 
L 420.394355 -510.931306 
L 418.944176 -510.931306 
L 417.493997 -510.931306 
L 416.043817 -510.931306 
L 414.593638 -510.931306 
L 413.143459 -510.931306 
L 411.693279 -510.931306 
L 410.2431 -510.931306 
L 408.792921 -510.931306 
L 407.342741 -510.931306 
L 405.892562 -510.931306 
z
" style="stroke: #1f77b4; stroke-opacity: 0.2"/>
    </defs>
    <g clip-path="url(#p5a644b538f)">
     <use xlink:href="#me876164ef2" x="0" y="720" style="fill: #1f77b4; fill-opacity: 0.2; stroke: #1f77b4; stroke-opacity: 0.2"/>
    </g>
   </g>
   <g id="PolyCollection_3">
    <defs>
     <path id="mfadf33e1aa" d="M 405.892562 -429.061076 
L 405.892562 -404.165855 
L 407.342741 -414.27748 
L 408.792921 -432.406478 
L 410.2431 -470.662789 
L 411.693279 -489.101685 
L 413.143459 -501.159858 
L 414.593638 -507.370493 
L 416.043817 -509.883166 
L 417.493997 -510.658361 
L 418.944176 -510.725826 
L 420.394355 -510.235031 
L 421.844535 -508.573215 
L 423.294714 -504.466917 
L 424.744893 -496.581627 
L 426.195073 -484.868609 
L 427.645252 -459.209383 
L 429.095431 -448.290718 
L 430.54561 -443.095087 
L 431.99579 -441.89817 
L 433.445969 -439.812843 
L 434.896148 -440.597532 
L 436.346328 -439.374284 
L 437.796507 -443.710462 
L 439.246686 -453.700222 
L 440.696866 -475.96629 
L 442.147045 -485.838391 
L 443.597224 -487.77526 
L 445.047404 -480.041519 
L 446.497583 -454.326883 
L 447.947762 -434.808764 
L 449.397942 -421.192242 
L 450.848121 -416.841018 
L 452.2983 -424.980928 
L 453.74848 -439.641686 
L 455.198659 -458.870744 
L 456.648838 -482.717429 
L 458.099018 -484.30825 
L 459.549197 -501.632696 
L 460.999376 -506.159568 
L 462.449556 -508.776615 
L 463.899735 -510.114688 
L 465.349914 -510.680323 
L 466.800094 -510.86694 
L 468.250273 -510.900274 
L 469.700452 -510.825318 
L 471.150632 -510.496011 
L 472.600811 -509.484221 
L 474.05099 -507.01195 
L 475.501169 -502.114862 
L 476.951349 -494.163296 
L 478.401528 -469.637228 
L 479.851707 -472.88418 
L 481.301887 -441.354878 
L 482.752066 -439.032124 
L 484.202245 -464.742729 
L 485.652425 -467.503805 
L 487.102604 -448.589199 
L 488.552783 -455.057022 
L 490.002963 -484.80475 
L 491.453142 -494.847611 
L 492.903321 -502.985874 
L 494.353501 -507.818403 
L 495.80368 -509.969626 
L 497.253859 -510.697333 
L 498.704039 -510.886641 
L 500.154218 -510.925216 
L 501.604397 -510.931306 
L 503.054577 -510.931306 
L 504.504756 -510.931306 
L 505.954935 -510.931306 
L 507.405115 -510.931306 
L 508.855294 -510.931306 
L 510.305473 -510.931306 
L 511.755653 -510.931306 
L 513.205832 -510.931306 
L 514.656011 -510.931306 
L 516.106191 -510.931306 
L 517.55637 -510.931306 
L 519.006549 -510.931306 
L 520.456729 -510.931306 
L 521.906908 -510.931306 
L 523.357087 -510.931306 
L 524.807266 -510.931306 
L 526.257446 -510.931306 
L 527.707625 -510.931306 
L 529.157804 -510.931306 
L 530.607984 -510.931306 
L 532.058163 -510.931306 
L 533.508342 -510.931306 
L 534.958522 -510.931306 
L 536.408701 -510.931306 
L 537.85888 -510.931306 
L 539.30906 -510.931306 
L 540.759239 -510.930703 
L 542.209418 -510.927376 
L 543.659598 -510.911349 
L 545.109777 -510.852376 
L 546.559956 -510.688184 
L 548.010136 -510.344106 
L 549.460315 -509.815748 
L 550.910494 -509.212239 
L 552.360674 -503.115708 
L 553.810853 -507.686609 
L 555.261032 -505.787736 
L 556.711212 -502.567669 
L 558.161391 -498.928023 
L 559.61157 -487.20268 
L 561.06175 -497.715406 
L 562.511929 -494.388451 
L 563.962108 -500.658247 
L 565.412288 -507.987066 
L 566.862467 -505.043976 
L 568.312646 -509.849972 
L 569.762826 -510.122036 
L 571.213005 -510.248925 
L 572.663184 -509.972104 
L 574.113363 -509.029939 
L 575.563543 -507.486841 
L 577.013722 -505.943345 
L 578.463901 -502.152598 
L 579.914081 -506.015241 
L 581.36426 -507.748016 
L 582.814439 -509.782535 
L 584.264619 -511.7551 
L 585.714798 -513.731198 
L 587.164977 -512.048605 
L 588.615157 -517.184653 
L 590.065336 -509.305485 
L 591.515515 -516.453849 
L 592.965695 -514.60993 
L 594.415874 -512.86236 
L 595.866053 -511.726688 
L 597.316233 -511.187638 
L 598.766412 -510.995827 
L 600.216591 -510.943923 
L 601.666771 -510.933241 
L 603.11695 -510.931306 
L 604.567129 -510.931306 
L 606.017309 -510.923699 
L 607.467488 -510.875712 
L 608.917667 -510.63552 
L 610.367847 -509.700934 
L 611.818026 -506.885894 
L 613.268205 -500.347119 
L 614.718385 -488.701901 
L 616.168564 -472.982104 
L 617.618743 -435.527996 
L 619.068923 -427.139032 
L 620.519102 -425.117868 
L 621.969281 -428.532703 
L 623.41946 -435.490477 
L 624.86964 -445.253983 
L 626.319819 -453.709109 
L 627.769998 -475.802644 
L 629.220178 -457.609065 
L 630.670357 -457.347049 
L 632.120536 -460.580469 
L 633.570716 -466.862909 
L 635.020895 -487.232609 
L 636.471074 -492.287409 
L 636.471074 -492.287409 
L 636.471074 -492.287409 
L 635.020895 -487.232609 
L 633.570716 -493.659119 
L 632.120536 -489.979602 
L 630.670357 -490.940327 
L 629.220178 -493.317768 
L 627.769998 -475.802644 
L 626.319819 -490.946656 
L 624.86964 -484.403244 
L 623.41946 -475.530249 
L 621.969281 -466.364545 
L 620.519102 -462.193005 
L 619.068923 -466.236349 
L 617.618743 -479.104708 
L 616.168564 -472.982104 
L 614.718385 -488.701901 
L 613.268205 -500.347119 
L 611.818026 -506.885894 
L 610.367847 -509.700934 
L 608.917667 -510.63552 
L 607.467488 -510.875712 
L 606.017309 -510.923699 
L 604.567129 -510.931306 
L 603.11695 -510.931306 
L 601.666771 -510.933241 
L 600.216591 -510.943923 
L 598.766412 -510.995827 
L 597.316233 -511.187638 
L 595.866053 -511.726688 
L 594.415874 -512.86236 
L 592.965695 -514.60993 
L 591.515515 -516.453849 
L 590.065336 -525.704925 
L 588.615157 -517.184653 
L 587.164977 -519.349524 
L 585.714798 -513.731198 
L 584.264619 -511.7551 
L 582.814439 -509.782535 
L 581.36426 -507.748016 
L 579.914081 -506.015241 
L 578.463901 -508.43985 
L 577.013722 -505.943345 
L 575.563543 -507.486841 
L 574.113363 -509.029939 
L 572.663184 -509.972104 
L 571.213005 -510.248925 
L 569.762826 -510.122036 
L 568.312646 -509.849972 
L 566.862467 -513.642104 
L 565.412288 -507.987066 
L 563.962108 -509.60899 
L 562.511929 -507.881283 
L 561.06175 -497.715406 
L 559.61157 -506.453385 
L 558.161391 -498.928023 
L 556.711212 -502.567669 
L 555.261032 -505.787736 
L 553.810853 -507.686609 
L 552.360674 -514.089411 
L 550.910494 -509.212239 
L 549.460315 -509.815748 
L 548.010136 -510.344106 
L 546.559956 -510.688184 
L 545.109777 -510.852376 
L 543.659598 -510.911349 
L 542.209418 -510.927376 
L 540.759239 -510.930703 
L 539.30906 -510.931306 
L 537.85888 -510.931306 
L 536.408701 -510.931306 
L 534.958522 -510.931306 
L 533.508342 -510.931306 
L 532.058163 -510.931306 
L 530.607984 -510.931306 
L 529.157804 -510.931306 
L 527.707625 -510.931306 
L 526.257446 -510.931306 
L 524.807266 -510.931306 
L 523.357087 -510.931306 
L 521.906908 -510.931306 
L 520.456729 -510.931306 
L 519.006549 -510.931306 
L 517.55637 -510.931306 
L 516.106191 -510.931306 
L 514.656011 -510.931306 
L 513.205832 -510.931306 
L 511.755653 -510.931306 
L 510.305473 -510.931306 
L 508.855294 -510.931306 
L 507.405115 -510.931306 
L 505.954935 -510.931306 
L 504.504756 -510.931306 
L 503.054577 -510.931306 
L 501.604397 -510.931306 
L 500.154218 -510.925216 
L 498.704039 -510.886641 
L 497.253859 -510.697333 
L 495.80368 -509.969626 
L 494.353501 -507.818403 
L 492.903321 -502.985874 
L 491.453142 -494.847611 
L 490.002963 -484.80475 
L 488.552783 -496.977709 
L 487.102604 -492.597076 
L 485.652425 -467.503805 
L 484.202245 -464.742729 
L 482.752066 -486.994694 
L 481.301887 -489.231494 
L 479.851707 -472.88418 
L 478.401528 -497.682581 
L 476.951349 -494.163296 
L 475.501169 -502.114862 
L 474.05099 -507.01195 
L 472.600811 -509.484221 
L 471.150632 -510.496011 
L 469.700452 -510.825318 
L 468.250273 -510.900274 
L 466.800094 -510.86694 
L 465.349914 -510.680323 
L 463.899735 -510.114688 
L 462.449556 -508.776615 
L 460.999376 -506.159568 
L 459.549197 -501.632696 
L 458.099018 -504.146867 
L 456.648838 -482.717429 
L 455.198659 -474.770559 
L 453.74848 -458.311426 
L 452.2983 -443.886708 
L 450.848121 -440.300221 
L 449.397942 -445.988522 
L 447.947762 -459.991971 
L 446.497583 -475.472286 
L 445.047404 -480.041519 
L 443.597224 -487.77526 
L 442.147045 -485.838391 
L 440.696866 -475.96629 
L 439.246686 -473.012131 
L 437.796507 -463.884344 
L 436.346328 -460.779169 
L 434.896148 -460.805748 
L 433.445969 -464.635064 
L 431.99579 -464.13459 
L 430.54561 -466.616314 
L 429.095431 -473.297741 
L 427.645252 -484.100183 
L 426.195073 -484.868609 
L 424.744893 -496.581627 
L 423.294714 -504.466917 
L 421.844535 -508.573215 
L 420.394355 -510.235031 
L 418.944176 -510.725826 
L 417.493997 -510.658361 
L 416.043817 -509.883166 
L 414.593638 -507.370493 
L 413.143459 -501.159858 
L 411.693279 -489.101685 
L 410.2431 -470.662789 
L 408.792921 -464.76722 
L 407.342741 -442.795381 
L 405.892562 -429.061076 
z
" style="stroke: #d62728; stroke-opacity: 0.2"/>
    </defs>
    <g clip-path="url(#p5a644b538f)">
     <use xlink:href="#mfadf33e1aa" x="0" y="720" style="fill: #d62728; fill-opacity: 0.2; stroke: #d62728; stroke-opacity: 0.2"/>
    </g>
   </g>
   <g id="PolyCollection_4">
    <defs>
     <path id="m810998afbe" d="M 405.892562 -510.944194 
L 405.892562 -510.944194 
L 407.342741 -511.015348 
L 408.792921 -511.358109 
L 410.2431 -512.619344 
L 411.693279 -516.14599 
L 413.143459 -523.503171 
L 414.593638 -534.747382 
L 416.043817 -546.89634 
L 417.493997 -516.511414 
L 418.944176 -561.000319 
L 420.394355 -566.240591 
L 421.844535 -574.312233 
L 423.294714 -546.655522 
L 424.744893 -582.473666 
L 426.195073 -532.867752 
L 427.645252 -555.659721 
L 429.095431 -537.670007 
L 430.54561 -524.016981 
L 431.99579 -516.430131 
L 433.445969 -514.207425 
L 434.896148 -516.950567 
L 436.346328 -525.984105 
L 437.796507 -542.895625 
L 439.246686 -565.840669 
L 440.696866 -561.289668 
L 442.147045 -571.687328 
L 443.597224 -562.705641 
L 445.047404 -569.306597 
L 446.497583 -545.811803 
L 447.947762 -527.653915 
L 449.397942 -517.334622 
L 450.848121 -512.906287 
L 452.2983 -511.553871 
L 453.74848 -511.632889 
L 455.198659 -512.838961 
L 456.648838 -515.49414 
L 458.099018 -519.538227 
L 459.549197 -523.786374 
L 460.999376 -510.88693 
L 462.449556 -527.543393 
L 463.899735 -528.266194 
L 465.349914 -530.448662 
L 466.800094 -517.453901 
L 468.250273 -535.921288 
L 469.700452 -523.745852 
L 471.150632 -531.630526 
L 472.600811 -527.844043 
L 474.05099 -525.415852 
L 475.501169 -515.111382 
L 476.951349 -507.483949 
L 478.401528 -513.781888 
L 479.851707 -495.18598 
L 481.301887 -497.258273 
L 482.752066 -490.617647 
L 484.202245 -471.171063 
L 485.652425 -478.107957 
L 487.102604 -483.631879 
L 488.552783 -478.827703 
L 490.002963 -454.44467 
L 491.453142 -449.170084 
L 492.903321 -438.479588 
L 494.353501 -439.027071 
L 495.80368 -447.176814 
L 497.253859 -451.284452 
L 498.704039 -454.399349 
L 500.154218 -452.417253 
L 501.604397 -467.479228 
L 503.054577 -471.191775 
L 504.504756 -472.705251 
L 505.954935 -471.183413 
L 507.405115 -464.952764 
L 508.855294 -465.118263 
L 510.305473 -462.015656 
L 511.755653 -462.826083 
L 513.205832 -461.187113 
L 514.656011 -455.960157 
L 516.106191 -448.885717 
L 517.55637 -447.350444 
L 519.006549 -439.81735 
L 520.456729 -435.405485 
L 521.906908 -433.036255 
L 523.357087 -432.520933 
L 524.807266 -429.460245 
L 526.257446 -420.757925 
L 527.707625 -409.949191 
L 529.157804 -409.592947 
L 530.607984 -406.228072 
L 532.058163 -403.945322 
L 533.508342 -409.645625 
L 534.958522 -412.129709 
L 536.408701 -420.972009 
L 537.85888 -430.670043 
L 539.30906 -440.549858 
L 540.759239 -452.348193 
L 542.209418 -463.025527 
L 543.659598 -465.32874 
L 545.109777 -468.856416 
L 546.559956 -466.969625 
L 548.010136 -468.231344 
L 549.460315 -479.247841 
L 550.910494 -487.452529 
L 552.360674 -491.859715 
L 553.810853 -488.078648 
L 555.261032 -472.601881 
L 556.711212 -466.143229 
L 558.161391 -459.624048 
L 559.61157 -471.63849 
L 561.06175 -465.27545 
L 562.511929 -475.597042 
L 563.962108 -474.066981 
L 565.412288 -459.042892 
L 566.862467 -463.391354 
L 568.312646 -448.13849 
L 569.762826 -436.802177 
L 571.213005 -438.010129 
L 572.663184 -446.356521 
L 574.113363 -443.936119 
L 575.563543 -457.405066 
L 577.013722 -475.368088 
L 578.463901 -484.913888 
L 579.914081 -487.82385 
L 581.36426 -478.076957 
L 582.814439 -474.392267 
L 584.264619 -463.745996 
L 585.714798 -473.66358 
L 587.164977 -485.903909 
L 588.615157 -485.46575 
L 590.065336 -490.5257 
L 591.515515 -478.607983 
L 592.965695 -475.021871 
L 594.415874 -467.281208 
L 595.866053 -466.107522 
L 597.316233 -469.62971 
L 598.766412 -452.490478 
L 600.216591 -454.828067 
L 601.666771 -469.399156 
L 603.11695 -461.146601 
L 604.567129 -486.179358 
L 606.017309 -494.608348 
L 607.467488 -499.729138 
L 608.917667 -501.114441 
L 610.367847 -481.502293 
L 611.818026 -484.809581 
L 613.268205 -486.803755 
L 614.718385 -491.026559 
L 616.168564 -477.884456 
L 617.618743 -507.590675 
L 619.068923 -509.415078 
L 620.519102 -510.379035 
L 621.969281 -510.771657 
L 623.41946 -510.89522 
L 624.86964 -510.928445 
L 626.319819 -510.956471 
L 627.769998 -511.067824 
L 629.220178 -511.496293 
L 630.670357 -512.77134 
L 632.120536 -515.65258 
L 633.570716 -520.488888 
L 635.020895 -526.214555 
L 636.471074 -516.847262 
L 636.471074 -543.658917 
L 636.471074 -543.658917 
L 635.020895 -526.214555 
L 633.570716 -520.488888 
L 632.120536 -515.65258 
L 630.670357 -512.77134 
L 629.220178 -511.496293 
L 627.769998 -511.067824 
L 626.319819 -510.956471 
L 624.86964 -510.928445 
L 623.41946 -510.89522 
L 621.969281 -510.771657 
L 620.519102 -510.379035 
L 619.068923 -509.415078 
L 617.618743 -507.590675 
L 616.168564 -532.012603 
L 614.718385 -513.164954 
L 613.268205 -513.241009 
L 611.818026 -514.152638 
L 610.367847 -519.119956 
L 608.917667 -501.114441 
L 607.467488 -499.729138 
L 606.017309 -494.608348 
L 604.567129 -486.179358 
L 603.11695 -492.484259 
L 601.666771 -469.399156 
L 600.216591 -476.87325 
L 598.766412 -480.308537 
L 597.316233 -469.62971 
L 595.866053 -481.228087 
L 594.415874 -488.280754 
L 592.965695 -489.67471 
L 591.515515 -495.750191 
L 590.065336 -490.5257 
L 588.615157 -494.964489 
L 587.164977 -485.903909 
L 585.714798 -486.82939 
L 584.264619 -491.016407 
L 582.814439 -484.582423 
L 581.36426 -491.118067 
L 579.914081 -487.82385 
L 578.463901 -484.913888 
L 577.013722 -475.368088 
L 575.563543 -468.209396 
L 574.113363 -460.361681 
L 572.663184 -446.356521 
L 571.213005 -453.672326 
L 569.762826 -462.537211 
L 568.312646 -464.244479 
L 566.862467 -463.391354 
L 565.412288 -480.352942 
L 563.962108 -474.066981 
L 562.511929 -475.597042 
L 561.06175 -483.135969 
L 559.61157 -471.63849 
L 558.161391 -482.193853 
L 556.711212 -482.242249 
L 555.261032 -489.337142 
L 553.810853 -488.078648 
L 552.360674 -491.859715 
L 550.910494 -493.897043 
L 549.460315 -492.434216 
L 548.010136 -492.553863 
L 546.559956 -486.570479 
L 545.109777 -481.384679 
L 543.659598 -481.341359 
L 542.209418 -474.5895 
L 540.759239 -468.827589 
L 539.30906 -459.681716 
L 537.85888 -448.953939 
L 536.408701 -441.22288 
L 534.958522 -435.953045 
L 533.508342 -427.513836 
L 532.058163 -426.896476 
L 530.607984 -424.997667 
L 529.157804 -429.274056 
L 527.707625 -441.682145 
L 526.257446 -444.868178 
L 524.807266 -447.811592 
L 523.357087 -452.437618 
L 521.906908 -456.430638 
L 520.456729 -457.912311 
L 519.006549 -459.54738 
L 517.55637 -461.620635 
L 516.106191 -472.053932 
L 514.656011 -476.239087 
L 513.205832 -478.692503 
L 511.755653 -480.583301 
L 510.305473 -483.055071 
L 508.855294 -483.126839 
L 507.405115 -489.398396 
L 505.954935 -489.778684 
L 504.504756 -490.59747 
L 503.054577 -487.212453 
L 501.604397 -480.675882 
L 500.154218 -485.197942 
L 498.704039 -475.397493 
L 497.253859 -472.07769 
L 495.80368 -469.349382 
L 494.353501 -472.555909 
L 492.903321 -475.015155 
L 491.453142 -475.40479 
L 490.002963 -487.144691 
L 488.552783 -478.827703 
L 487.102604 -483.631879 
L 485.652425 -492.630293 
L 484.202245 -502.468657 
L 482.752066 -490.617647 
L 481.301887 -497.258273 
L 479.851707 -515.945698 
L 478.401528 -513.781888 
L 476.951349 -532.669872 
L 475.501169 -532.031556 
L 474.05099 -525.415852 
L 472.600811 -527.844043 
L 471.150632 -531.630526 
L 469.700452 -546.42258 
L 468.250273 -535.921288 
L 466.800094 -550.03949 
L 465.349914 -530.448662 
L 463.899735 -528.266194 
L 462.449556 -527.543393 
L 460.999376 -542.265523 
L 459.549197 -523.786374 
L 458.099018 -519.538227 
L 456.648838 -515.49414 
L 455.198659 -512.838961 
L 453.74848 -511.632889 
L 452.2983 -511.553871 
L 450.848121 -512.906287 
L 449.397942 -517.334622 
L 447.947762 -527.653915 
L 446.497583 -545.811803 
L 445.047404 -569.306597 
L 443.597224 -616.728975 
L 442.147045 -622.368595 
L 440.696866 -613.255641 
L 439.246686 -565.840669 
L 437.796507 -542.895625 
L 436.346328 -525.984105 
L 434.896148 -516.950567 
L 433.445969 -514.207425 
L 431.99579 -516.430131 
L 430.54561 -524.016981 
L 429.095431 -537.670007 
L 427.645252 -555.659721 
L 426.195073 -612.595987 
L 424.744893 -582.473666 
L 423.294714 -617.189502 
L 421.844535 -574.312233 
L 420.394355 -566.240591 
L 418.944176 -561.000319 
L 417.493997 -595.177013 
L 416.043817 -546.89634 
L 414.593638 -534.747382 
L 413.143459 -523.503171 
L 411.693279 -516.14599 
L 410.2431 -512.619344 
L 408.792921 -511.358109 
L 407.342741 -511.015348 
L 405.892562 -510.944194 
z
" style="stroke: #ff7f0e; stroke-opacity: 0.2"/>
    </defs>
    <g clip-path="url(#p5a644b538f)">
     <use xlink:href="#m810998afbe" x="0" y="720" style="fill: #ff7f0e; fill-opacity: 0.2; stroke: #ff7f0e; stroke-opacity: 0.2"/>
    </g>
   </g>
   <g id="matplotlib.axis_3">
    <g id="xtick_7">
     <g id="line2d_13">
      <g>
       <use xlink:href="#mc7abe8ab1a" x="405.863558" y="333.490909" style="stroke: #000000; stroke-width: 0.8"/>
      </g>
     </g>
     <g id="text_13">
      <!-- 0 -->
      <g transform="translate(402.682308 348.089347)scale(0.1 -0.1)">
       <use xlink:href="#DejaVuSans-30"/>
      </g>
     </g>
    </g>
    <g id="xtick_8">
     <g id="line2d_14">
      <g>
       <use xlink:href="#mc7abe8ab1a" x="463.870731" y="333.490909" style="stroke: #000000; stroke-width: 0.8"/>
      </g>
     </g>
     <g id="text_14">
      <!-- 2000 -->
      <g transform="translate(451.145731 348.089347)scale(0.1 -0.1)">
       <use xlink:href="#DejaVuSans-32"/>
       <use xlink:href="#DejaVuSans-30" x="63.623047"/>
       <use xlink:href="#DejaVuSans-30" x="127.246094"/>
       <use xlink:href="#DejaVuSans-30" x="190.869141"/>
      </g>
     </g>
    </g>
    <g id="xtick_9">
     <g id="line2d_15">
      <g>
       <use xlink:href="#mc7abe8ab1a" x="521.877904" y="333.490909" style="stroke: #000000; stroke-width: 0.8"/>
      </g>
     </g>
     <g id="text_15">
      <!-- 4000 -->
      <g transform="translate(509.152904 348.089347)scale(0.1 -0.1)">
       <use xlink:href="#DejaVuSans-34"/>
       <use xlink:href="#DejaVuSans-30" x="63.623047"/>
       <use xlink:href="#DejaVuSans-30" x="127.246094"/>
       <use xlink:href="#DejaVuSans-30" x="190.869141"/>
      </g>
     </g>
    </g>
    <g id="xtick_10">
     <g id="line2d_16">
      <g>
       <use xlink:href="#mc7abe8ab1a" x="579.885077" y="333.490909" style="stroke: #000000; stroke-width: 0.8"/>
      </g>
     </g>
     <g id="text_16">
      <!-- 6000 -->
      <g transform="translate(567.160077 348.089347)scale(0.1 -0.1)">
       <use xlink:href="#DejaVuSans-36"/>
       <use xlink:href="#DejaVuSans-30" x="63.623047"/>
       <use xlink:href="#DejaVuSans-30" x="127.246094"/>
       <use xlink:href="#DejaVuSans-30" x="190.869141"/>
      </g>
     </g>
    </g>
    <g id="xtick_11">
     <g id="line2d_17">
      <g>
       <use xlink:href="#mc7abe8ab1a" x="637.89225" y="333.490909" style="stroke: #000000; stroke-width: 0.8"/>
      </g>
     </g>
     <g id="text_17">
      <!-- 8000 -->
      <g transform="translate(625.16725 348.089347)scale(0.1 -0.1)">
       <use xlink:href="#DejaVuSans-38"/>
       <use xlink:href="#DejaVuSans-30" x="63.623047"/>
       <use xlink:href="#DejaVuSans-30" x="127.246094"/>
       <use xlink:href="#DejaVuSans-30" x="190.869141"/>
      </g>
     </g>
    </g>
   </g>
   <g id="matplotlib.axis_4">
    <g id="ytick_7">
     <g id="line2d_18">
      <g>
       <use xlink:href="#m0f1e5b4858" x="394.363636" y="296.787372" style="stroke: #000000; stroke-width: 0.8"/>
      </g>
     </g>
     <g id="text_18">
      <!-- −0.4 -->
      <g transform="translate(363.080824 300.586591)scale(0.1 -0.1)">
       <defs>
        <path id="DejaVuSans-2212" d="M 678 2272 
L 4684 2272 
L 4684 1741 
L 678 1741 
L 678 2272 
z
" transform="scale(0.015625)"/>
       </defs>
       <use xlink:href="#DejaVuSans-2212"/>
       <use xlink:href="#DejaVuSans-30" x="83.789062"/>
       <use xlink:href="#DejaVuSans-2e" x="147.412109"/>
       <use xlink:href="#DejaVuSans-34" x="179.199219"/>
      </g>
     </g>
    </g>
    <g id="ytick_8">
     <g id="line2d_19">
      <g>
       <use xlink:href="#m0f1e5b4858" x="394.363636" y="252.928033" style="stroke: #000000; stroke-width: 0.8"/>
      </g>
     </g>
     <g id="text_19">
      <!-- −0.2 -->
      <g transform="translate(363.080824 256.727252)scale(0.1 -0.1)">
       <use xlink:href="#DejaVuSans-2212"/>
       <use xlink:href="#DejaVuSans-30" x="83.789062"/>
       <use xlink:href="#DejaVuSans-2e" x="147.412109"/>
       <use xlink:href="#DejaVuSans-32" x="179.199219"/>
      </g>
     </g>
    </g>
    <g id="ytick_9">
     <g id="line2d_20">
      <g>
       <use xlink:href="#m0f1e5b4858" x="394.363636" y="209.068694" style="stroke: #000000; stroke-width: 0.8"/>
      </g>
     </g>
     <g id="text_20">
      <!-- 0.0 -->
      <g transform="translate(371.460511 212.867913)scale(0.1 -0.1)">
       <use xlink:href="#DejaVuSans-30"/>
       <use xlink:href="#DejaVuSans-2e" x="63.623047"/>
       <use xlink:href="#DejaVuSans-30" x="95.410156"/>
      </g>
     </g>
    </g>
    <g id="ytick_10">
     <g id="line2d_21">
      <g>
       <use xlink:href="#m0f1e5b4858" x="394.363636" y="165.209355" style="stroke: #000000; stroke-width: 0.8"/>
      </g>
     </g>
     <g id="text_21">
      <!-- 0.2 -->
      <g transform="translate(371.460511 169.008574)scale(0.1 -0.1)">
       <use xlink:href="#DejaVuSans-30"/>
       <use xlink:href="#DejaVuSans-2e" x="63.623047"/>
       <use xlink:href="#DejaVuSans-32" x="95.410156"/>
      </g>
     </g>
    </g>
    <g id="ytick_11">
     <g id="line2d_22">
      <g>
       <use xlink:href="#m0f1e5b4858" x="394.363636" y="121.350016" style="stroke: #000000; stroke-width: 0.8"/>
      </g>
     </g>
     <g id="text_22">
      <!-- 0.4 -->
      <g transform="translate(371.460511 125.149235)scale(0.1 -0.1)">
       <use xlink:href="#DejaVuSans-30"/>
       <use xlink:href="#DejaVuSans-2e" x="63.623047"/>
       <use xlink:href="#DejaVuSans-34" x="95.410156"/>
      </g>
     </g>
    </g>
   </g>
   <g id="line2d_23">
    <path d="M 405.892562 228.349621 
L 407.342741 240.687489 
L 408.792921 261.871017 
L 410.2431 284.752234 
L 411.693279 300.972146 
L 413.143459 305.708148 
L 414.593638 300.526637 
L 416.043817 291.632702 
L 417.493997 284.899035 
L 420.394355 277.861253 
L 421.844535 270.058452 
L 423.294714 257.668954 
L 424.744893 243.441224 
L 426.195073 230.498981 
L 427.645252 220.67123 
L 429.095431 214.393435 
L 430.54561 211.087923 
L 431.99579 209.687347 
L 433.445969 209.219099 
L 436.346328 209.073049 
L 459.549197 209.074515 
L 460.999376 209.113717 
L 462.449556 209.313453 
L 463.899735 210.103678 
L 465.349914 212.538502 
L 466.800094 218.327935 
L 468.250273 228.819552 
L 469.700452 242.886333 
L 471.150632 255.712743 
L 472.600811 261.01966 
L 474.05099 255.830517 
L 475.501169 243.053307 
L 476.951349 228.96059 
L 478.401528 218.411958 
L 479.851707 212.575685 
L 481.301887 210.116175 
L 482.752066 209.316678 
L 484.202245 209.114372 
L 488.552783 209.068694 
L 543.659598 209.042323 
L 545.109777 208.93477 
L 546.559956 208.539016 
L 548.010136 207.43717 
L 549.460315 205.154872 
L 552.360674 198.429823 
L 553.810853 197.013273 
L 555.261032 198.429823 
L 558.161391 205.154872 
L 559.61157 207.43717 
L 561.06175 208.540699 
L 562.511929 208.945747 
L 565.412288 209.285129 
L 566.862467 209.747817 
L 568.312646 210.696715 
L 571.213005 213.460347 
L 572.663184 213.941284 
L 574.113363 213.048996 
L 575.563543 211.037289 
L 577.013722 208.689418 
L 578.463901 206.825601 
L 579.914081 205.977869 
L 581.36426 206.202224 
L 584.264619 207.995354 
L 585.714798 208.617182 
L 587.164977 208.901195 
L 588.615157 208.92013 
L 590.065336 208.616003 
L 591.515515 207.68396 
L 592.965695 205.690914 
L 594.415874 202.526243 
L 595.866053 198.835099 
L 597.316233 195.758792 
L 598.766412 194.121097 
L 600.216591 194.136998 
L 601.666771 195.797706 
L 603.11695 198.878151 
L 604.567129 202.558659 
L 606.017309 205.70898 
L 607.467488 207.692743 
L 608.917667 208.625758 
L 610.367847 208.957556 
L 613.268205 209.065338 
L 624.86964 209.051897 
L 626.319819 208.983391 
L 627.769998 208.728739 
L 629.220178 208.012696 
L 630.670357 206.490477 
L 632.120536 204.073938 
L 633.570716 201.25305 
L 635.020895 198.897064 
L 636.471074 197.634874 
L 636.471074 197.634874 
" clip-path="url(#p5a644b538f)" style="fill: none; stroke: #9467bd; stroke-width: 2; stroke-linecap: square"/>
   </g>
   <g id="line2d_24">
    <path d="M 405.892562 209.068694 
L 440.696866 209.141476 
L 445.047404 209.292783 
L 449.397942 209.13117 
L 452.2983 209.045647 
L 453.74848 209.118715 
L 455.198659 209.502589 
L 456.648838 210.570665 
L 458.099018 212.697221 
L 460.999376 219.140087 
L 462.449556 221.223458 
L 463.899735 221.260241 
L 465.349914 219.689696 
L 468.250273 215.591162 
L 471.150632 211.928625 
L 472.600811 210.526872 
L 474.05099 209.663569 
L 475.501169 209.259655 
L 478.401528 209.078143 
L 500.154218 209.068694 
L 565.412288 209.047374 
L 566.862467 208.92967 
L 568.312646 208.362672 
L 569.762826 206.276323 
L 571.213005 200.467586 
L 572.663184 188.435707 
L 575.563543 152.982421 
L 577.013722 145.51462 
L 578.463901 152.982421 
L 581.36426 188.435707 
L 582.814439 200.467586 
L 584.264619 206.276323 
L 585.714798 208.362672 
L 587.164977 208.92967 
L 590.065336 209.068694 
L 595.866053 209.136979 
L 597.316233 209.33879 
L 598.766412 209.901692 
L 600.216591 211.063061 
L 601.666771 212.756103 
L 603.11695 214.269098 
L 604.567129 214.494417 
L 606.017309 212.89543 
L 607.467488 210.213259 
L 608.917667 207.931211 
L 610.367847 207.00926 
L 611.818026 207.290877 
L 613.268205 208.017962 
L 614.718385 208.608901 
L 616.168564 208.914211 
L 619.068923 209.016736 
L 620.519102 208.892989 
L 621.969281 208.531241 
L 623.41946 207.779411 
L 626.319819 205.564059 
L 627.769998 205.097422 
L 629.220178 205.564059 
L 632.120536 207.779411 
L 633.570716 208.531241 
L 635.020895 208.892876 
L 636.471074 209.01589 
L 636.471074 209.01589 
" clip-path="url(#p5a644b538f)" style="fill: none; stroke: #1f77b4; stroke-width: 2; stroke-linecap: square"/>
   </g>
   <g id="line2d_25">
    <path d="M 405.892562 303.386534 
L 407.342741 291.46357 
L 408.792921 271.413151 
L 410.2431 249.337211 
L 411.693279 230.898315 
L 413.143459 218.840142 
L 414.593638 212.629507 
L 416.043817 210.116834 
L 417.493997 209.341639 
L 418.944176 209.274174 
L 420.394355 209.764969 
L 421.844535 211.426785 
L 423.294714 215.533083 
L 424.744893 223.418373 
L 426.195073 235.131391 
L 427.645252 248.345217 
L 429.095431 259.205771 
L 430.54561 265.1443 
L 431.99579 266.98362 
L 433.445969 267.776047 
L 434.896148 269.29836 
L 436.346328 269.923274 
L 437.796507 266.202597 
L 439.246686 256.643824 
L 440.696866 244.03371 
L 442.147045 234.161609 
L 443.597224 232.22474 
L 445.047404 239.958481 
L 446.497583 255.100416 
L 447.947762 272.599633 
L 449.397942 286.409618 
L 450.848121 291.429381 
L 452.2983 285.566182 
L 453.74848 271.023444 
L 455.198659 253.179349 
L 456.648838 237.282571 
L 458.099018 225.772442 
L 459.549197 218.367304 
L 460.999376 213.840432 
L 462.449556 211.223385 
L 463.899735 209.885312 
L 465.349914 209.319677 
L 466.800094 209.13306 
L 469.700452 209.174682 
L 471.150632 209.503989 
L 472.600811 210.515779 
L 474.05099 212.98805 
L 475.501169 217.885138 
L 476.951349 225.836704 
L 479.851707 247.11582 
L 481.301887 254.706814 
L 482.752066 256.986591 
L 484.202245 255.257271 
L 485.652425 252.496195 
L 487.102604 249.406863 
L 488.552783 243.982635 
L 490.002963 235.19525 
L 491.453142 225.152389 
L 492.903321 217.014126 
L 494.353501 212.181597 
L 495.80368 210.030374 
L 497.253859 209.302667 
L 498.704039 209.113359 
L 504.504756 209.068694 
L 545.109777 209.147624 
L 546.559956 209.311816 
L 548.010136 209.655894 
L 550.910494 210.787761 
L 552.360674 211.39744 
L 553.810853 212.313391 
L 555.261032 214.212264 
L 556.711212 217.432331 
L 558.161391 221.071977 
L 559.61157 223.171967 
L 561.06175 222.284594 
L 562.511929 218.865133 
L 563.962108 214.866382 
L 565.412288 212.012934 
L 566.862467 210.65696 
L 568.312646 210.150028 
L 569.762826 209.877964 
L 571.213005 209.751075 
L 572.663184 210.027896 
L 574.113363 210.970061 
L 577.013722 214.056655 
L 578.463901 214.703776 
L 579.914081 213.984759 
L 581.36426 212.251984 
L 587.164977 204.300936 
L 588.615157 202.815347 
L 590.065336 202.494795 
L 591.515515 203.546151 
L 594.415874 207.13764 
L 595.866053 208.273312 
L 597.316233 208.812362 
L 598.766412 209.004173 
L 603.11695 209.068694 
L 607.467488 209.124288 
L 608.917667 209.36448 
L 610.367847 210.299066 
L 611.818026 213.114106 
L 613.268205 219.652881 
L 614.718385 231.298099 
L 617.618743 262.683648 
L 619.068923 273.312309 
L 620.519102 276.344564 
L 621.969281 272.551376 
L 623.41946 264.489637 
L 624.86964 255.171386 
L 626.319819 247.672117 
L 627.769998 244.197356 
L 629.220178 244.536584 
L 630.670357 245.856312 
L 632.120536 244.719964 
L 633.570716 239.738986 
L 635.020895 232.767391 
L 636.471074 227.712591 
L 636.471074 227.712591 
" clip-path="url(#p5a644b538f)" style="fill: none; stroke: #d62728; stroke-width: 2; stroke-linecap: square"/>
   </g>
   <g id="line2d_26">
    <path d="M 405.892562 209.055806 
L 407.342741 208.984652 
L 408.792921 208.641891 
L 410.2431 207.380656 
L 411.693279 203.85401 
L 413.143459 196.496829 
L 414.593638 185.252618 
L 416.043817 173.10366 
L 417.493997 164.155787 
L 420.394355 153.759409 
L 423.294714 138.077488 
L 424.744893 137.526334 
L 426.195073 147.268131 
L 429.095431 182.329993 
L 430.54561 195.983019 
L 431.99579 203.569869 
L 433.445969 205.792575 
L 434.896148 203.049433 
L 436.346328 194.015895 
L 437.796507 177.104375 
L 440.696866 132.727346 
L 442.147045 122.972039 
L 443.597224 130.282692 
L 445.047404 150.693403 
L 446.497583 174.188197 
L 447.947762 192.346085 
L 449.397942 202.665378 
L 450.848121 207.093713 
L 452.2983 208.446129 
L 453.74848 208.367111 
L 455.198659 207.161039 
L 456.648838 204.50586 
L 459.549197 196.213626 
L 460.999376 193.423773 
L 462.449556 192.456607 
L 463.899735 191.733806 
L 465.349914 189.551338 
L 466.800094 186.253304 
L 468.250273 184.078712 
L 469.700452 184.915784 
L 471.150632 188.369474 
L 472.600811 192.155957 
L 474.05099 194.584148 
L 475.501169 196.428531 
L 476.951349 199.923089 
L 478.401528 206.218112 
L 481.301887 222.741727 
L 482.752066 229.382353 
L 484.202245 233.18014 
L 485.652425 234.630875 
L 487.102604 236.368121 
L 488.552783 241.172297 
L 491.453142 257.712563 
L 492.903321 263.252628 
L 494.353501 264.20851 
L 495.80368 261.736902 
L 498.704039 255.101579 
L 500.154218 251.192402 
L 503.054577 240.797886 
L 504.504756 238.34864 
L 505.954935 239.518952 
L 508.855294 245.877449 
L 510.305473 247.464636 
L 511.755653 248.295308 
L 513.205832 250.060192 
L 514.656011 253.900378 
L 517.55637 265.514461 
L 519.006549 270.317635 
L 520.456729 273.341102 
L 521.906908 275.266553 
L 523.357087 277.520725 
L 524.807266 281.364081 
L 526.257446 287.186949 
L 527.707625 294.184332 
L 529.157804 300.566498 
L 530.607984 304.387131 
L 532.058163 304.579101 
L 533.508342 301.420269 
L 534.958522 295.958623 
L 536.408701 288.902555 
L 537.85888 280.188009 
L 540.759239 259.412109 
L 542.209418 251.192486 
L 543.659598 246.664951 
L 546.559956 243.229948 
L 548.010136 239.607397 
L 549.460315 234.158971 
L 550.910494 229.325214 
L 552.360674 228.140285 
L 553.810853 231.921352 
L 556.711212 245.807261 
L 558.161391 249.091049 
L 559.61157 248.36151 
L 561.06175 245.79429 
L 562.511929 244.402958 
L 563.962108 245.933019 
L 565.412288 250.302083 
L 566.862467 256.608646 
L 568.312646 263.808515 
L 569.762826 270.330306 
L 571.213005 274.158772 
L 572.663184 273.643479 
L 574.113363 267.8511 
L 575.563543 257.192769 
L 577.013722 244.631912 
L 578.463901 235.086112 
L 579.914081 232.17615 
L 581.36426 235.402488 
L 582.814439 240.512655 
L 584.264619 242.618799 
L 585.714798 239.753515 
L 587.164977 234.096091 
L 588.615157 229.78488 
L 590.065336 229.4743 
L 591.515515 232.820913 
L 594.415874 242.219019 
L 597.316233 250.37029 
L 598.766412 253.600492 
L 600.216591 254.149342 
L 601.666771 250.600844 
L 603.11695 243.18457 
L 604.567129 233.820642 
L 606.017309 225.391652 
L 607.467488 220.270862 
L 608.917667 218.885559 
L 611.818026 220.518891 
L 613.268205 219.977618 
L 614.718385 217.904243 
L 617.618743 212.409325 
L 619.068923 210.584922 
L 620.519102 209.620965 
L 621.969281 209.228343 
L 624.86964 209.071555 
L 627.769998 208.932176 
L 629.220178 208.503707 
L 630.670357 207.22866 
L 632.120536 204.34742 
L 633.570716 199.511112 
L 635.020895 193.785445 
L 636.471074 189.74691 
L 636.471074 189.74691 
" clip-path="url(#p5a644b538f)" style="fill: none; stroke: #ff7f0e; stroke-width: 2; stroke-linecap: square"/>
   </g>
   <g id="LineCollection_1">
    <path d="M 521.877904 297.790036 
L 521.877904 148.904301 
" clip-path="url(#p5a644b538f)" style="fill: none; stroke-dasharray: 7.4,3.2; stroke-dashoffset: 0; stroke: #000000; stroke-width: 2"/>
    <path d="M 536.379697 297.790036 
L 536.379697 148.904301 
" clip-path="url(#p5a644b538f)" style="fill: none; stroke-dasharray: 7.4,3.2; stroke-dashoffset: 0; stroke: #000000; stroke-width: 2"/>
    <path d="M 565.383284 297.790036 
L 565.383284 148.904301 
" clip-path="url(#p5a644b538f)" style="fill: none; stroke-dasharray: 7.4,3.2; stroke-dashoffset: 0; stroke: #000000; stroke-width: 2"/>
    <path d="M 623.390457 297.790036 
L 623.390457 148.904301 
" clip-path="url(#p5a644b538f)" style="fill: none; stroke-dasharray: 7.4,3.2; stroke-dashoffset: 0; stroke: #000000; stroke-width: 2"/>
   </g>
   <g id="patch_8">
    <path d="M 394.363636 333.490909 
L 394.363636 86.4 
" style="fill: none; stroke: #000000; stroke-width: 0.8; stroke-linejoin: miter; stroke-linecap: square"/>
   </g>
   <g id="patch_9">
    <path d="M 648 333.490909 
L 648 86.4 
" style="fill: none; stroke: #000000; stroke-width: 0.8; stroke-linejoin: miter; stroke-linecap: square"/>
   </g>
   <g id="patch_10">
    <path d="M 394.363636 333.490909 
L 648 333.490909 
" style="fill: none; stroke: #000000; stroke-width: 0.8; stroke-linejoin: miter; stroke-linecap: square"/>
   </g>
   <g id="patch_11">
    <path d="M 394.363636 86.4 
L 648 86.4 
" style="fill: none; stroke: #000000; stroke-width: 0.8; stroke-linejoin: miter; stroke-linecap: square"/>
   </g>
   <g id="text_23">
    <!-- unit_114 -->
    <g transform="translate(495.105256 80.4)scale(0.12 -0.12)">
     <defs>
      <path id="DejaVuSans-75" d="M 544 1381 
L 544 3500 
L 1119 3500 
L 1119 1403 
Q 1119 906 1312 657 
Q 1506 409 1894 409 
Q 2359 409 2629 706 
Q 2900 1003 2900 1516 
L 2900 3500 
L 3475 3500 
L 3475 0 
L 2900 0 
L 2900 538 
Q 2691 219 2414 64 
Q 2138 -91 1772 -91 
Q 1169 -91 856 284 
Q 544 659 544 1381 
z
M 1991 3584 
L 1991 3584 
z
" transform="scale(0.015625)"/>
      <path id="DejaVuSans-6e" d="M 3513 2113 
L 3513 0 
L 2938 0 
L 2938 2094 
Q 2938 2591 2744 2837 
Q 2550 3084 2163 3084 
Q 1697 3084 1428 2787 
Q 1159 2491 1159 1978 
L 1159 0 
L 581 0 
L 581 3500 
L 1159 3500 
L 1159 2956 
Q 1366 3272 1645 3428 
Q 1925 3584 2291 3584 
Q 2894 3584 3203 3211 
Q 3513 2838 3513 2113 
z
" transform="scale(0.015625)"/>
      <path id="DejaVuSans-69" d="M 603 3500 
L 1178 3500 
L 1178 0 
L 603 0 
L 603 3500 
z
M 603 4863 
L 1178 4863 
L 1178 4134 
L 603 4134 
L 603 4863 
z
" transform="scale(0.015625)"/>
      <path id="DejaVuSans-74" d="M 1172 4494 
L 1172 3500 
L 2356 3500 
L 2356 3053 
L 1172 3053 
L 1172 1153 
Q 1172 725 1289 603 
Q 1406 481 1766 481 
L 2356 481 
L 2356 0 
L 1766 0 
Q 1100 0 847 248 
Q 594 497 594 1153 
L 594 3053 
L 172 3053 
L 172 3500 
L 594 3500 
L 594 4494 
L 1172 4494 
z
" transform="scale(0.015625)"/>
      <path id="DejaVuSans-5f" d="M 3263 -1063 
L 3263 -1509 
L -63 -1509 
L -63 -1063 
L 3263 -1063 
z
" transform="scale(0.015625)"/>
     </defs>
     <use xlink:href="#DejaVuSans-75"/>
     <use xlink:href="#DejaVuSans-6e" x="63.378906"/>
     <use xlink:href="#DejaVuSans-69" x="126.757812"/>
     <use xlink:href="#DejaVuSans-74" x="154.541016"/>
     <use xlink:href="#DejaVuSans-5f" x="193.75"/>
     <use xlink:href="#DejaVuSans-31" x="243.75"/>
     <use xlink:href="#DejaVuSans-31" x="307.373047"/>
     <use xlink:href="#DejaVuSans-34" x="370.996094"/>
    </g>
   </g>
  </g>
  <g id="axes_3">
   <g id="patch_12">
    <path d="M 90 630 
L 343.636364 630 
L 343.636364 382.909091 
L 90 382.909091 
z
" style="fill: #ffffff"/>
   </g>
   <g id="matplotlib.axis_5">
    <g id="xtick_12">
     <g id="line2d_27">
      <g>
       <use xlink:href="#mc7abe8ab1a" x="90" y="630" style="stroke: #000000; stroke-width: 0.8"/>
      </g>
     </g>
     <g id="text_24">
      <!-- 0.0 -->
      <g transform="translate(82.048438 644.598437)scale(0.1 -0.1)">
       <use xlink:href="#DejaVuSans-30"/>
       <use xlink:href="#DejaVuSans-2e" x="63.623047"/>
       <use xlink:href="#DejaVuSans-30" x="95.410156"/>
      </g>
     </g>
    </g>
    <g id="xtick_13">
     <g id="line2d_28">
      <g>
       <use xlink:href="#mc7abe8ab1a" x="140.727273" y="630" style="stroke: #000000; stroke-width: 0.8"/>
      </g>
     </g>
     <g id="text_25">
      <!-- 0.2 -->
      <g transform="translate(132.77571 644.598437)scale(0.1 -0.1)">
       <use xlink:href="#DejaVuSans-30"/>
       <use xlink:href="#DejaVuSans-2e" x="63.623047"/>
       <use xlink:href="#DejaVuSans-32" x="95.410156"/>
      </g>
     </g>
    </g>
    <g id="xtick_14">
     <g id="line2d_29">
      <g>
       <use xlink:href="#mc7abe8ab1a" x="191.454545" y="630" style="stroke: #000000; stroke-width: 0.8"/>
      </g>
     </g>
     <g id="text_26">
      <!-- 0.4 -->
      <g transform="translate(183.502983 644.598437)scale(0.1 -0.1)">
       <use xlink:href="#DejaVuSans-30"/>
       <use xlink:href="#DejaVuSans-2e" x="63.623047"/>
       <use xlink:href="#DejaVuSans-34" x="95.410156"/>
      </g>
     </g>
    </g>
    <g id="xtick_15">
     <g id="line2d_30">
      <g>
       <use xlink:href="#mc7abe8ab1a" x="242.181818" y="630" style="stroke: #000000; stroke-width: 0.8"/>
      </g>
     </g>
     <g id="text_27">
      <!-- 0.6 -->
      <g transform="translate(234.230256 644.598437)scale(0.1 -0.1)">
       <use xlink:href="#DejaVuSans-30"/>
       <use xlink:href="#DejaVuSans-2e" x="63.623047"/>
       <use xlink:href="#DejaVuSans-36" x="95.410156"/>
      </g>
     </g>
    </g>
    <g id="xtick_16">
     <g id="line2d_31">
      <g>
       <use xlink:href="#mc7abe8ab1a" x="292.909091" y="630" style="stroke: #000000; stroke-width: 0.8"/>
      </g>
     </g>
     <g id="text_28">
      <!-- 0.8 -->
      <g transform="translate(284.957528 644.598437)scale(0.1 -0.1)">
       <use xlink:href="#DejaVuSans-30"/>
       <use xlink:href="#DejaVuSans-2e" x="63.623047"/>
       <use xlink:href="#DejaVuSans-38" x="95.410156"/>
      </g>
     </g>
    </g>
    <g id="xtick_17">
     <g id="line2d_32">
      <g>
       <use xlink:href="#mc7abe8ab1a" x="343.636364" y="630" style="stroke: #000000; stroke-width: 0.8"/>
      </g>
     </g>
     <g id="text_29">
      <!-- 1.0 -->
      <g transform="translate(335.684801 644.598437)scale(0.1 -0.1)">
       <use xlink:href="#DejaVuSans-31"/>
       <use xlink:href="#DejaVuSans-2e" x="63.623047"/>
       <use xlink:href="#DejaVuSans-30" x="95.410156"/>
      </g>
     </g>
    </g>
   </g>
   <g id="matplotlib.axis_6">
    <g id="ytick_12">
     <g id="line2d_33">
      <g>
       <use xlink:href="#m0f1e5b4858" x="90" y="630" style="stroke: #000000; stroke-width: 0.8"/>
      </g>
     </g>
     <g id="text_30">
      <!-- 0.0 -->
      <g transform="translate(67.096875 633.799219)scale(0.1 -0.1)">
       <use xlink:href="#DejaVuSans-30"/>
       <use xlink:href="#DejaVuSans-2e" x="63.623047"/>
       <use xlink:href="#DejaVuSans-30" x="95.410156"/>
      </g>
     </g>
    </g>
    <g id="ytick_13">
     <g id="line2d_34">
      <g>
       <use xlink:href="#m0f1e5b4858" x="90" y="580.581818" style="stroke: #000000; stroke-width: 0.8"/>
      </g>
     </g>
     <g id="text_31">
      <!-- 0.2 -->
      <g transform="translate(67.096875 584.381037)scale(0.1 -0.1)">
       <use xlink:href="#DejaVuSans-30"/>
       <use xlink:href="#DejaVuSans-2e" x="63.623047"/>
       <use xlink:href="#DejaVuSans-32" x="95.410156"/>
      </g>
     </g>
    </g>
    <g id="ytick_14">
     <g id="line2d_35">
      <g>
       <use xlink:href="#m0f1e5b4858" x="90" y="531.163636" style="stroke: #000000; stroke-width: 0.8"/>
      </g>
     </g>
     <g id="text_32">
      <!-- 0.4 -->
      <g transform="translate(67.096875 534.962855)scale(0.1 -0.1)">
       <use xlink:href="#DejaVuSans-30"/>
       <use xlink:href="#DejaVuSans-2e" x="63.623047"/>
       <use xlink:href="#DejaVuSans-34" x="95.410156"/>
      </g>
     </g>
    </g>
    <g id="ytick_15">
     <g id="line2d_36">
      <g>
       <use xlink:href="#m0f1e5b4858" x="90" y="481.745455" style="stroke: #000000; stroke-width: 0.8"/>
      </g>
     </g>
     <g id="text_33">
      <!-- 0.6 -->
      <g transform="translate(67.096875 485.544673)scale(0.1 -0.1)">
       <use xlink:href="#DejaVuSans-30"/>
       <use xlink:href="#DejaVuSans-2e" x="63.623047"/>
       <use xlink:href="#DejaVuSans-36" x="95.410156"/>
      </g>
     </g>
    </g>
    <g id="ytick_16">
     <g id="line2d_37">
      <g>
       <use xlink:href="#m0f1e5b4858" x="90" y="432.327273" style="stroke: #000000; stroke-width: 0.8"/>
      </g>
     </g>
     <g id="text_34">
      <!-- 0.8 -->
      <g transform="translate(67.096875 436.126491)scale(0.1 -0.1)">
       <use xlink:href="#DejaVuSans-30"/>
       <use xlink:href="#DejaVuSans-2e" x="63.623047"/>
       <use xlink:href="#DejaVuSans-38" x="95.410156"/>
      </g>
     </g>
    </g>
    <g id="ytick_17">
     <g id="line2d_38">
      <g>
       <use xlink:href="#m0f1e5b4858" x="90" y="382.909091" style="stroke: #000000; stroke-width: 0.8"/>
      </g>
     </g>
     <g id="text_35">
      <!-- 1.0 -->
      <g transform="translate(67.096875 386.70831)scale(0.1 -0.1)">
       <use xlink:href="#DejaVuSans-31"/>
       <use xlink:href="#DejaVuSans-2e" x="63.623047"/>
       <use xlink:href="#DejaVuSans-30" x="95.410156"/>
      </g>
     </g>
    </g>
   </g>
   <g id="patch_13">
    <path d="M 90 630 
L 90 382.909091 
" style="fill: none; stroke: #000000; stroke-width: 0.8; stroke-linejoin: miter; stroke-linecap: square"/>
   </g>
   <g id="patch_14">
    <path d="M 343.636364 630 
L 343.636364 382.909091 
" style="fill: none; stroke: #000000; stroke-width: 0.8; stroke-linejoin: miter; stroke-linecap: square"/>
   </g>
   <g id="patch_15">
    <path d="M 90 630 
L 343.636364 630 
" style="fill: none; stroke: #000000; stroke-width: 0.8; stroke-linejoin: miter; stroke-linecap: square"/>
   </g>
   <g id="patch_16">
    <path d="M 90 382.909091 
L 343.636364 382.909091 
" style="fill: none; stroke: #000000; stroke-width: 0.8; stroke-linejoin: miter; stroke-linecap: square"/>
   </g>
  </g>
  <g id="axes_4">
   <g id="patch_17">
    <path d="M 394.363636 630 
L 648 630 
L 648 382.909091 
L 394.363636 382.909091 
z
" style="fill: #ffffff"/>
   </g>
   <g id="matplotlib.axis_7">
    <g id="xtick_18">
     <g id="line2d_39">
      <g>
       <use xlink:href="#mc7abe8ab1a" x="405.863558" y="630" style="stroke: #000000; stroke-width: 0.8"/>
      </g>
     </g>
     <g id="text_36">
      <!-- 0 -->
      <g transform="translate(402.682308 644.598437)scale(0.1 -0.1)">
       <use xlink:href="#DejaVuSans-30"/>
      </g>
     </g>
    </g>
    <g id="xtick_19">
     <g id="line2d_40">
      <g>
       <use xlink:href="#mc7abe8ab1a" x="463.870731" y="630" style="stroke: #000000; stroke-width: 0.8"/>
      </g>
     </g>
     <g id="text_37">
      <!-- 2000 -->
      <g transform="translate(451.145731 644.598437)scale(0.1 -0.1)">
       <use xlink:href="#DejaVuSans-32"/>
       <use xlink:href="#DejaVuSans-30" x="63.623047"/>
       <use xlink:href="#DejaVuSans-30" x="127.246094"/>
       <use xlink:href="#DejaVuSans-30" x="190.869141"/>
      </g>
     </g>
    </g>
    <g id="xtick_20">
     <g id="line2d_41">
      <g>
       <use xlink:href="#mc7abe8ab1a" x="521.877904" y="630" style="stroke: #000000; stroke-width: 0.8"/>
      </g>
     </g>
     <g id="text_38">
      <!-- 4000 -->
      <g transform="translate(509.152904 644.598437)scale(0.1 -0.1)">
       <use xlink:href="#DejaVuSans-34"/>
       <use xlink:href="#DejaVuSans-30" x="63.623047"/>
       <use xlink:href="#DejaVuSans-30" x="127.246094"/>
       <use xlink:href="#DejaVuSans-30" x="190.869141"/>
      </g>
     </g>
    </g>
    <g id="xtick_21">
     <g id="line2d_42">
      <g>
       <use xlink:href="#mc7abe8ab1a" x="579.885077" y="630" style="stroke: #000000; stroke-width: 0.8"/>
      </g>
     </g>
     <g id="text_39">
      <!-- 6000 -->
      <g transform="translate(567.160077 644.598437)scale(0.1 -0.1)">
       <use xlink:href="#DejaVuSans-36"/>
       <use xlink:href="#DejaVuSans-30" x="63.623047"/>
       <use xlink:href="#DejaVuSans-30" x="127.246094"/>
       <use xlink:href="#DejaVuSans-30" x="190.869141"/>
      </g>
     </g>
    </g>
    <g id="xtick_22">
     <g id="line2d_43">
      <g>
       <use xlink:href="#mc7abe8ab1a" x="637.89225" y="630" style="stroke: #000000; stroke-width: 0.8"/>
      </g>
     </g>
     <g id="text_40">
      <!-- 8000 -->
      <g transform="translate(625.16725 644.598437)scale(0.1 -0.1)">
       <use xlink:href="#DejaVuSans-38"/>
       <use xlink:href="#DejaVuSans-30" x="63.623047"/>
       <use xlink:href="#DejaVuSans-30" x="127.246094"/>
       <use xlink:href="#DejaVuSans-30" x="190.869141"/>
      </g>
     </g>
    </g>
   </g>
   <g id="matplotlib.axis_8">
    <g id="ytick_18">
     <g id="line2d_44">
      <g>
       <use xlink:href="#m0f1e5b4858" x="394.363636" y="630" style="stroke: #000000; stroke-width: 0.8"/>
      </g>
     </g>
     <g id="text_41">
      <!-- −2 -->
      <g transform="translate(372.621449 633.799219)scale(0.1 -0.1)">
       <use xlink:href="#DejaVuSans-2212"/>
       <use xlink:href="#DejaVuSans-32" x="83.789062"/>
      </g>
     </g>
    </g>
    <g id="ytick_19">
     <g id="line2d_45">
      <g>
       <use xlink:href="#m0f1e5b4858" x="394.363636" y="581.531037" style="stroke: #000000; stroke-width: 0.8"/>
      </g>
     </g>
     <g id="text_42">
      <!-- −1 -->
      <g transform="translate(372.621449 585.330255)scale(0.1 -0.1)">
       <use xlink:href="#DejaVuSans-2212"/>
       <use xlink:href="#DejaVuSans-31" x="83.789062"/>
      </g>
     </g>
    </g>
    <g id="ytick_20">
     <g id="line2d_46">
      <g>
       <use xlink:href="#m0f1e5b4858" x="394.363636" y="533.062073" style="stroke: #000000; stroke-width: 0.8"/>
      </g>
     </g>
     <g id="text_43">
      <!-- 0 -->
      <g transform="translate(381.001136 536.861292)scale(0.1 -0.1)">
       <use xlink:href="#DejaVuSans-30"/>
      </g>
     </g>
    </g>
    <g id="ytick_21">
     <g id="line2d_47">
      <g>
       <use xlink:href="#m0f1e5b4858" x="394.363636" y="484.59311" style="stroke: #000000; stroke-width: 0.8"/>
      </g>
     </g>
     <g id="text_44">
      <!-- 1 -->
      <g transform="translate(381.001136 488.392329)scale(0.1 -0.1)">
       <use xlink:href="#DejaVuSans-31"/>
      </g>
     </g>
    </g>
    <g id="ytick_22">
     <g id="line2d_48">
      <g>
       <use xlink:href="#m0f1e5b4858" x="394.363636" y="436.124147" style="stroke: #000000; stroke-width: 0.8"/>
      </g>
     </g>
     <g id="text_45">
      <!-- 2 -->
      <g transform="translate(381.001136 439.923365)scale(0.1 -0.1)">
       <use xlink:href="#DejaVuSans-32"/>
      </g>
     </g>
    </g>
    <g id="ytick_23">
     <g id="line2d_49">
      <g>
       <use xlink:href="#m0f1e5b4858" x="394.363636" y="387.655183" style="stroke: #000000; stroke-width: 0.8"/>
      </g>
     </g>
     <g id="text_46">
      <!-- 3 -->
      <g transform="translate(381.001136 391.454402)scale(0.1 -0.1)">
       <defs>
        <path id="DejaVuSans-33" d="M 2597 2516 
Q 3050 2419 3304 2112 
Q 3559 1806 3559 1356 
Q 3559 666 3084 287 
Q 2609 -91 1734 -91 
Q 1441 -91 1130 -33 
Q 819 25 488 141 
L 488 750 
Q 750 597 1062 519 
Q 1375 441 1716 441 
Q 2309 441 2620 675 
Q 2931 909 2931 1356 
Q 2931 1769 2642 2001 
Q 2353 2234 1838 2234 
L 1294 2234 
L 1294 2753 
L 1863 2753 
Q 2328 2753 2575 2939 
Q 2822 3125 2822 3475 
Q 2822 3834 2567 4026 
Q 2313 4219 1838 4219 
Q 1578 4219 1281 4162 
Q 984 4106 628 3988 
L 628 4550 
Q 988 4650 1302 4700 
Q 1616 4750 1894 4750 
Q 2613 4750 3031 4423 
Q 3450 4097 3450 3541 
Q 3450 3153 3228 2886 
Q 3006 2619 2597 2516 
z
" transform="scale(0.015625)"/>
       </defs>
       <use xlink:href="#DejaVuSans-33"/>
      </g>
     </g>
    </g>
   </g>
   <g id="line2d_50">
    <path d="M 409.065612 721 
L 410.2431 626.444693 
L 411.693279 586.870482 
L 413.143459 600.147031 
L 414.593638 618.286503 
L 416.043817 615.941863 
L 417.493997 635.634826 
L 418.944176 705.854165 
L 419.384543 721 
M 421.89071 721 
L 423.294714 631.080056 
L 424.744893 648.844249 
L 426.195073 675.993686 
L 429.095431 610.985532 
L 430.54561 589.846756 
L 431.99579 601.299572 
L 433.445969 615.41654 
L 434.896148 569.514371 
L 436.346328 494.354498 
L 437.796507 486.394425 
L 439.246686 495.604908 
L 442.147045 443.252856 
L 443.597224 447.219599 
L 445.047404 502.998144 
L 446.497583 578.593988 
L 447.947762 646.574121 
L 449.397942 664.13072 
L 450.848121 586.634618 
L 452.2983 488.25282 
L 453.74848 496.37849 
L 455.198659 533.245126 
L 456.648838 547.062506 
L 458.099018 556.640654 
L 459.549197 552.389654 
L 460.999376 540.246229 
L 462.449556 537.123405 
L 463.899735 540.335496 
L 465.349914 539.921922 
L 466.800094 530.10042 
L 468.250273 512.120323 
L 469.700452 537.946516 
L 471.150632 635.879576 
L 472.600811 717.636934 
L 474.05099 700.812567 
L 475.501169 622.064815 
L 476.951349 603.719885 
L 478.401528 658.976175 
L 479.30852 721 
M 484.032192 721 
L 484.202245 704.615457 
L 485.652425 713.746448 
L 485.748445 721 
M 489.438465 721 
L 490.002963 679.513493 
L 491.453142 658.38486 
L 492.903321 664.909515 
L 494.353501 645.584288 
L 497.253859 599.596721 
L 498.704039 584.803707 
L 500.154218 576.461238 
L 501.604397 579.668661 
L 503.054577 600.756778 
L 504.504756 635.196658 
L 507.372485 721 
M 509.126281 721 
L 510.305473 696.206265 
L 511.755653 654.265498 
L 513.205832 660.743024 
L 514.342946 721 
M 518.629089 721 
L 519.006549 710.706915 
L 520.456729 717.499922 
L 520.777124 721 
M 522.925168 721 
L 524.807266 697.187697 
L 525.782828 721 
M 529.115294 721 
L 529.157804 719.584798 
L 530.607984 651.705406 
L 532.058163 655.346949 
L 533.508342 685.339888 
L 534.958522 704.740422 
L 536.408701 681.859817 
L 537.85888 636.454991 
L 539.30906 608.23018 
L 540.759239 590.536665 
L 542.209418 570.680391 
L 543.659598 568.186858 
L 545.109777 571.746936 
L 546.559956 566.835102 
L 548.010136 567.678923 
L 549.460315 564.675165 
L 550.910494 559.820364 
L 552.360674 538.268721 
L 553.810853 529.954835 
L 555.261032 597.073181 
L 556.711212 651.697884 
L 558.161391 649.14008 
L 559.61157 608.589024 
L 561.06175 563.889404 
L 562.511929 535.415294 
L 563.962108 563.666241 
L 565.412288 625.168281 
L 566.862467 641.654881 
L 568.312646 616.656928 
L 569.762826 550.138762 
L 571.213005 508.70634 
L 572.663184 479.345745 
L 574.113363 470.117489 
L 575.773905 721 
M 579.482545 721 
L 579.914081 677.557379 
L 581.36426 591.949907 
L 582.814439 466.011138 
L 584.264619 382.909091 
L 585.714798 452.009766 
L 587.164977 528.561466 
L 588.615157 539.652797 
L 590.065336 542.893478 
L 591.515515 579.388077 
L 594.415874 675.226834 
L 595.866053 712.965749 
L 596.004645 721 
M 602.201542 721 
L 603.11695 671.391761 
L 604.567129 577.293011 
L 606.017309 538.977369 
L 607.467488 548.53357 
L 608.917667 594.87347 
L 610.367847 663.802386 
L 611.818026 693.060159 
L 613.268205 685.111929 
L 614.718385 698.298198 
L 615.131583 721 
M 625.51927 721 
L 626.319819 656.518995 
L 627.769998 580.094038 
L 629.220178 555.121208 
L 630.670357 568.299892 
L 632.120536 597.25123 
L 633.570716 597.047429 
L 635.020895 571.096155 
L 636.471074 554.796139 
L 636.471074 554.796139 
" clip-path="url(#p1e3e55a786)" style="fill: none; stroke: #1f77b4; stroke-width: 1.5; stroke-linecap: square"/>
   </g>
   <g id="patch_18">
    <path d="M 394.363636 630 
L 394.363636 382.909091 
" style="fill: none; stroke: #000000; stroke-width: 0.8; stroke-linejoin: miter; stroke-linecap: square"/>
   </g>
   <g id="patch_19">
    <path d="M 648 630 
L 648 382.909091 
" style="fill: none; stroke: #000000; stroke-width: 0.8; stroke-linejoin: miter; stroke-linecap: square"/>
   </g>
   <g id="patch_20">
    <path d="M 394.363636 630 
L 648 630 
" style="fill: none; stroke: #000000; stroke-width: 0.8; stroke-linejoin: miter; stroke-linecap: square"/>
   </g>
   <g id="patch_21">
    <path d="M 394.363636 382.909091 
L 648 382.909091 
" style="fill: none; stroke: #000000; stroke-width: 0.8; stroke-linejoin: miter; stroke-linecap: square"/>
   </g>
   <g id="text_47">
    <!-- explained variance -->
    <g transform="translate(464.181818 376.909091)scale(0.12 -0.12)">
     <defs>
      <path id="DejaVuSans-65" d="M 3597 1894 
L 3597 1613 
L 953 1613 
Q 991 1019 1311 708 
Q 1631 397 2203 397 
Q 2534 397 2845 478 
Q 3156 559 3463 722 
L 3463 178 
Q 3153 47 2828 -22 
Q 2503 -91 2169 -91 
Q 1331 -91 842 396 
Q 353 884 353 1716 
Q 353 2575 817 3079 
Q 1281 3584 2069 3584 
Q 2775 3584 3186 3129 
Q 3597 2675 3597 1894 
z
M 3022 2063 
Q 3016 2534 2758 2815 
Q 2500 3097 2075 3097 
Q 1594 3097 1305 2825 
Q 1016 2553 972 2059 
L 3022 2063 
z
" transform="scale(0.015625)"/>
      <path id="DejaVuSans-78" d="M 3513 3500 
L 2247 1797 
L 3578 0 
L 2900 0 
L 1881 1375 
L 863 0 
L 184 0 
L 1544 1831 
L 300 3500 
L 978 3500 
L 1906 2253 
L 2834 3500 
L 3513 3500 
z
" transform="scale(0.015625)"/>
      <path id="DejaVuSans-70" d="M 1159 525 
L 1159 -1331 
L 581 -1331 
L 581 3500 
L 1159 3500 
L 1159 2969 
Q 1341 3281 1617 3432 
Q 1894 3584 2278 3584 
Q 2916 3584 3314 3078 
Q 3713 2572 3713 1747 
Q 3713 922 3314 415 
Q 2916 -91 2278 -91 
Q 1894 -91 1617 61 
Q 1341 213 1159 525 
z
M 3116 1747 
Q 3116 2381 2855 2742 
Q 2594 3103 2138 3103 
Q 1681 3103 1420 2742 
Q 1159 2381 1159 1747 
Q 1159 1113 1420 752 
Q 1681 391 2138 391 
Q 2594 391 2855 752 
Q 3116 1113 3116 1747 
z
" transform="scale(0.015625)"/>
      <path id="DejaVuSans-6c" d="M 603 4863 
L 1178 4863 
L 1178 0 
L 603 0 
L 603 4863 
z
" transform="scale(0.015625)"/>
      <path id="DejaVuSans-61" d="M 2194 1759 
Q 1497 1759 1228 1600 
Q 959 1441 959 1056 
Q 959 750 1161 570 
Q 1363 391 1709 391 
Q 2188 391 2477 730 
Q 2766 1069 2766 1631 
L 2766 1759 
L 2194 1759 
z
M 3341 1997 
L 3341 0 
L 2766 0 
L 2766 531 
Q 2569 213 2275 61 
Q 1981 -91 1556 -91 
Q 1019 -91 701 211 
Q 384 513 384 1019 
Q 384 1609 779 1909 
Q 1175 2209 1959 2209 
L 2766 2209 
L 2766 2266 
Q 2766 2663 2505 2880 
Q 2244 3097 1772 3097 
Q 1472 3097 1187 3025 
Q 903 2953 641 2809 
L 641 3341 
Q 956 3463 1253 3523 
Q 1550 3584 1831 3584 
Q 2591 3584 2966 3190 
Q 3341 2797 3341 1997 
z
" transform="scale(0.015625)"/>
      <path id="DejaVuSans-64" d="M 2906 2969 
L 2906 4863 
L 3481 4863 
L 3481 0 
L 2906 0 
L 2906 525 
Q 2725 213 2448 61 
Q 2172 -91 1784 -91 
Q 1150 -91 751 415 
Q 353 922 353 1747 
Q 353 2572 751 3078 
Q 1150 3584 1784 3584 
Q 2172 3584 2448 3432 
Q 2725 3281 2906 2969 
z
M 947 1747 
Q 947 1113 1208 752 
Q 1469 391 1925 391 
Q 2381 391 2643 752 
Q 2906 1113 2906 1747 
Q 2906 2381 2643 2742 
Q 2381 3103 1925 3103 
Q 1469 3103 1208 2742 
Q 947 2381 947 1747 
z
" transform="scale(0.015625)"/>
      <path id="DejaVuSans-20" transform="scale(0.015625)"/>
      <path id="DejaVuSans-76" d="M 191 3500 
L 800 3500 
L 1894 563 
L 2988 3500 
L 3597 3500 
L 2284 0 
L 1503 0 
L 191 3500 
z
" transform="scale(0.015625)"/>
      <path id="DejaVuSans-72" d="M 2631 2963 
Q 2534 3019 2420 3045 
Q 2306 3072 2169 3072 
Q 1681 3072 1420 2755 
Q 1159 2438 1159 1844 
L 1159 0 
L 581 0 
L 581 3500 
L 1159 3500 
L 1159 2956 
Q 1341 3275 1631 3429 
Q 1922 3584 2338 3584 
Q 2397 3584 2469 3576 
Q 2541 3569 2628 3553 
L 2631 2963 
z
" transform="scale(0.015625)"/>
      <path id="DejaVuSans-63" d="M 3122 3366 
L 3122 2828 
Q 2878 2963 2633 3030 
Q 2388 3097 2138 3097 
Q 1578 3097 1268 2742 
Q 959 2388 959 1747 
Q 959 1106 1268 751 
Q 1578 397 2138 397 
Q 2388 397 2633 464 
Q 2878 531 3122 666 
L 3122 134 
Q 2881 22 2623 -34 
Q 2366 -91 2075 -91 
Q 1284 -91 818 406 
Q 353 903 353 1747 
Q 353 2603 823 3093 
Q 1294 3584 2113 3584 
Q 2378 3584 2631 3529 
Q 2884 3475 3122 3366 
z
" transform="scale(0.015625)"/>
     </defs>
     <use xlink:href="#DejaVuSans-65"/>
     <use xlink:href="#DejaVuSans-78" x="59.773438"/>
     <use xlink:href="#DejaVuSans-70" x="118.953125"/>
     <use xlink:href="#DejaVuSans-6c" x="182.429688"/>
     <use xlink:href="#DejaVuSans-61" x="210.212891"/>
     <use xlink:href="#DejaVuSans-69" x="271.492188"/>
     <use xlink:href="#DejaVuSans-6e" x="299.275391"/>
     <use xlink:href="#DejaVuSans-65" x="362.654297"/>
     <use xlink:href="#DejaVuSans-64" x="424.177734"/>
     <use xlink:href="#DejaVuSans-20" x="487.654297"/>
     <use xlink:href="#DejaVuSans-76" x="519.441406"/>
     <use xlink:href="#DejaVuSans-61" x="578.621094"/>
     <use xlink:href="#DejaVuSans-72" x="639.900391"/>
     <use xlink:href="#DejaVuSans-69" x="681.013672"/>
     <use xlink:href="#DejaVuSans-61" x="708.796875"/>
     <use xlink:href="#DejaVuSans-6e" x="770.076172"/>
     <use xlink:href="#DejaVuSans-63" x="833.455078"/>
     <use xlink:href="#DejaVuSans-65" x="888.435547"/>
    </g>
   </g>
  </g>
 </g>
 <defs>
  <clipPath id="p5a644b538f">
   <rect x="394.363636" y="86.4" width="253.636364" height="247.090909"/>
  </clipPath>
  <clipPath id="p1e3e55a786">
   <rect x="394.363636" y="382.909091" width="253.636364" height="247.090909"/>
  </clipPath>
 </defs>
</svg>
