<?xml version="1.0" encoding="utf-8" standalone="no"?>
<!DOCTYPE svg PUBLIC "-//W3C//DTD SVG 1.1//EN"
  "http://www.w3.org/Graphics/SVG/1.1/DTD/svg11.dtd">
<svg xmlns:xlink="http://www.w3.org/1999/xlink" width="720pt" height="720pt" viewBox="0 0 720 720" xmlns="http://www.w3.org/2000/svg" version="1.1">
 <metadata>
  <rdf:RDF xmlns:dc="http://purl.org/dc/elements/1.1/" xmlns:cc="http://creativecommons.org/ns#" xmlns:rdf="http://www.w3.org/1999/02/22-rdf-syntax-ns#">
   <cc:Work>
    <dc:type rdf:resource="http://purl.org/dc/dcmitype/StillImage"/>
    <dc:date>2023-12-19T18:22:33.115905</dc:date>
    <dc:format>image/svg+xml</dc:format>
    <dc:creator>
     <cc:Agent>
      <dc:title>Matplotlib v3.5.2, https://matplotlib.org/</dc:title>
     </cc:Agent>
    </dc:creator>
   </cc:Work>
  </rdf:RDF>
 </metadata>
 <defs>
  <style type="text/css">*{stroke-linejoin: round; stroke-linecap: butt}</style>
 </defs>
 <g id="figure_1">
  <g id="patch_1">
   <path d="M 0 720 
L 720 720 
L 720 0 
L 0 0 
z
" style="fill: #ffffff"/>
  </g>
  <g id="axes_1">
   <g id="patch_2">
    <path d="M 90 333.490909 
L 343.636364 333.490909 
L 343.636364 86.4 
L 90 86.4 
z
" style="fill: #ffffff"/>
   </g>
   <g id="matplotlib.axis_1">
    <g id="xtick_1">
     <g id="line2d_1">
      <defs>
       <path id="m65c5043e77" d="M 0 0 
L 0 3.5 
" style="stroke: #000000; stroke-width: 0.8"/>
      </defs>
      <g>
       <use xlink:href="#m65c5043e77" x="90" y="333.490909" style="stroke: #000000; stroke-width: 0.8"/>
      </g>
     </g>
     <g id="text_1">
      <!-- 0.0 -->
      <g transform="translate(82.048438 348.089347)scale(0.1 -0.1)">
       <defs>
        <path id="DejaVuSans-30" d="M 2034 4250 
Q 1547 4250 1301 3770 
Q 1056 3291 1056 2328 
Q 1056 1369 1301 889 
Q 1547 409 2034 409 
Q 2525 409 2770 889 
Q 3016 1369 3016 2328 
Q 3016 3291 2770 3770 
Q 2525 4250 2034 4250 
z
M 2034 4750 
Q 2819 4750 3233 4129 
Q 3647 3509 3647 2328 
Q 3647 1150 3233 529 
Q 2819 -91 2034 -91 
Q 1250 -91 836 529 
Q 422 1150 422 2328 
Q 422 3509 836 4129 
Q 1250 4750 2034 4750 
z
" transform="scale(0.015625)"/>
        <path id="DejaVuSans-2e" d="M 684 794 
L 1344 794 
L 1344 0 
L 684 0 
L 684 794 
z
" transform="scale(0.015625)"/>
       </defs>
       <use xlink:href="#DejaVuSans-30"/>
       <use xlink:href="#DejaVuSans-2e" x="63.623047"/>
       <use xlink:href="#DejaVuSans-30" x="95.410156"/>
      </g>
     </g>
    </g>
    <g id="xtick_2">
     <g id="line2d_2">
      <g>
       <use xlink:href="#m65c5043e77" x="140.727273" y="333.490909" style="stroke: #000000; stroke-width: 0.8"/>
      </g>
     </g>
     <g id="text_2">
      <!-- 0.2 -->
      <g transform="translate(132.77571 348.089347)scale(0.1 -0.1)">
       <defs>
        <path id="DejaVuSans-32" d="M 1228 531 
L 3431 531 
L 3431 0 
L 469 0 
L 469 531 
Q 828 903 1448 1529 
Q 2069 2156 2228 2338 
Q 2531 2678 2651 2914 
Q 2772 3150 2772 3378 
Q 2772 3750 2511 3984 
Q 2250 4219 1831 4219 
Q 1534 4219 1204 4116 
Q 875 4013 500 3803 
L 500 4441 
Q 881 4594 1212 4672 
Q 1544 4750 1819 4750 
Q 2544 4750 2975 4387 
Q 3406 4025 3406 3419 
Q 3406 3131 3298 2873 
Q 3191 2616 2906 2266 
Q 2828 2175 2409 1742 
Q 1991 1309 1228 531 
z
" transform="scale(0.015625)"/>
       </defs>
       <use xlink:href="#DejaVuSans-30"/>
       <use xlink:href="#DejaVuSans-2e" x="63.623047"/>
       <use xlink:href="#DejaVuSans-32" x="95.410156"/>
      </g>
     </g>
    </g>
    <g id="xtick_3">
     <g id="line2d_3">
      <g>
       <use xlink:href="#m65c5043e77" x="191.454545" y="333.490909" style="stroke: #000000; stroke-width: 0.8"/>
      </g>
     </g>
     <g id="text_3">
      <!-- 0.4 -->
      <g transform="translate(183.502983 348.089347)scale(0.1 -0.1)">
       <defs>
        <path id="DejaVuSans-34" d="M 2419 4116 
L 825 1625 
L 2419 1625 
L 2419 4116 
z
M 2253 4666 
L 3047 4666 
L 3047 1625 
L 3713 1625 
L 3713 1100 
L 3047 1100 
L 3047 0 
L 2419 0 
L 2419 1100 
L 313 1100 
L 313 1709 
L 2253 4666 
z
" transform="scale(0.015625)"/>
       </defs>
       <use xlink:href="#DejaVuSans-30"/>
       <use xlink:href="#DejaVuSans-2e" x="63.623047"/>
       <use xlink:href="#DejaVuSans-34" x="95.410156"/>
      </g>
     </g>
    </g>
    <g id="xtick_4">
     <g id="line2d_4">
      <g>
       <use xlink:href="#m65c5043e77" x="242.181818" y="333.490909" style="stroke: #000000; stroke-width: 0.8"/>
      </g>
     </g>
     <g id="text_4">
      <!-- 0.6 -->
      <g transform="translate(234.230256 348.089347)scale(0.1 -0.1)">
       <defs>
        <path id="DejaVuSans-36" d="M 2113 2584 
Q 1688 2584 1439 2293 
Q 1191 2003 1191 1497 
Q 1191 994 1439 701 
Q 1688 409 2113 409 
Q 2538 409 2786 701 
Q 3034 994 3034 1497 
Q 3034 2003 2786 2293 
Q 2538 2584 2113 2584 
z
M 3366 4563 
L 3366 3988 
Q 3128 4100 2886 4159 
Q 2644 4219 2406 4219 
Q 1781 4219 1451 3797 
Q 1122 3375 1075 2522 
Q 1259 2794 1537 2939 
Q 1816 3084 2150 3084 
Q 2853 3084 3261 2657 
Q 3669 2231 3669 1497 
Q 3669 778 3244 343 
Q 2819 -91 2113 -91 
Q 1303 -91 875 529 
Q 447 1150 447 2328 
Q 447 3434 972 4092 
Q 1497 4750 2381 4750 
Q 2619 4750 2861 4703 
Q 3103 4656 3366 4563 
z
" transform="scale(0.015625)"/>
       </defs>
       <use xlink:href="#DejaVuSans-30"/>
       <use xlink:href="#DejaVuSans-2e" x="63.623047"/>
       <use xlink:href="#DejaVuSans-36" x="95.410156"/>
      </g>
     </g>
    </g>
    <g id="xtick_5">
     <g id="line2d_5">
      <g>
       <use xlink:href="#m65c5043e77" x="292.909091" y="333.490909" style="stroke: #000000; stroke-width: 0.8"/>
      </g>
     </g>
     <g id="text_5">
      <!-- 0.8 -->
      <g transform="translate(284.957528 348.089347)scale(0.1 -0.1)">
       <defs>
        <path id="DejaVuSans-38" d="M 2034 2216 
Q 1584 2216 1326 1975 
Q 1069 1734 1069 1313 
Q 1069 891 1326 650 
Q 1584 409 2034 409 
Q 2484 409 2743 651 
Q 3003 894 3003 1313 
Q 3003 1734 2745 1975 
Q 2488 2216 2034 2216 
z
M 1403 2484 
Q 997 2584 770 2862 
Q 544 3141 544 3541 
Q 544 4100 942 4425 
Q 1341 4750 2034 4750 
Q 2731 4750 3128 4425 
Q 3525 4100 3525 3541 
Q 3525 3141 3298 2862 
Q 3072 2584 2669 2484 
Q 3125 2378 3379 2068 
Q 3634 1759 3634 1313 
Q 3634 634 3220 271 
Q 2806 -91 2034 -91 
Q 1263 -91 848 271 
Q 434 634 434 1313 
Q 434 1759 690 2068 
Q 947 2378 1403 2484 
z
M 1172 3481 
Q 1172 3119 1398 2916 
Q 1625 2713 2034 2713 
Q 2441 2713 2670 2916 
Q 2900 3119 2900 3481 
Q 2900 3844 2670 4047 
Q 2441 4250 2034 4250 
Q 1625 4250 1398 4047 
Q 1172 3844 1172 3481 
z
" transform="scale(0.015625)"/>
       </defs>
       <use xlink:href="#DejaVuSans-30"/>
       <use xlink:href="#DejaVuSans-2e" x="63.623047"/>
       <use xlink:href="#DejaVuSans-38" x="95.410156"/>
      </g>
     </g>
    </g>
    <g id="xtick_6">
     <g id="line2d_6">
      <g>
       <use xlink:href="#m65c5043e77" x="343.636364" y="333.490909" style="stroke: #000000; stroke-width: 0.8"/>
      </g>
     </g>
     <g id="text_6">
      <!-- 1.0 -->
      <g transform="translate(335.684801 348.089347)scale(0.1 -0.1)">
       <defs>
        <path id="DejaVuSans-31" d="M 794 531 
L 1825 531 
L 1825 4091 
L 703 3866 
L 703 4441 
L 1819 4666 
L 2450 4666 
L 2450 531 
L 3481 531 
L 3481 0 
L 794 0 
L 794 531 
z
" transform="scale(0.015625)"/>
       </defs>
       <use xlink:href="#DejaVuSans-31"/>
       <use xlink:href="#DejaVuSans-2e" x="63.623047"/>
       <use xlink:href="#DejaVuSans-30" x="95.410156"/>
      </g>
     </g>
    </g>
   </g>
   <g id="matplotlib.axis_2">
    <g id="ytick_1">
     <g id="line2d_7">
      <defs>
       <path id="m757bc1d068" d="M 0 0 
L -3.5 0 
" style="stroke: #000000; stroke-width: 0.8"/>
      </defs>
      <g>
       <use xlink:href="#m757bc1d068" x="90" y="333.490909" style="stroke: #000000; stroke-width: 0.8"/>
      </g>
     </g>
     <g id="text_7">
      <!-- 0.0 -->
      <g transform="translate(67.096875 337.290128)scale(0.1 -0.1)">
       <use xlink:href="#DejaVuSans-30"/>
       <use xlink:href="#DejaVuSans-2e" x="63.623047"/>
       <use xlink:href="#DejaVuSans-30" x="95.410156"/>
      </g>
     </g>
    </g>
    <g id="ytick_2">
     <g id="line2d_8">
      <g>
       <use xlink:href="#m757bc1d068" x="90" y="284.072727" style="stroke: #000000; stroke-width: 0.8"/>
      </g>
     </g>
     <g id="text_8">
      <!-- 0.2 -->
      <g transform="translate(67.096875 287.871946)scale(0.1 -0.1)">
       <use xlink:href="#DejaVuSans-30"/>
       <use xlink:href="#DejaVuSans-2e" x="63.623047"/>
       <use xlink:href="#DejaVuSans-32" x="95.410156"/>
      </g>
     </g>
    </g>
    <g id="ytick_3">
     <g id="line2d_9">
      <g>
       <use xlink:href="#m757bc1d068" x="90" y="234.654545" style="stroke: #000000; stroke-width: 0.8"/>
      </g>
     </g>
     <g id="text_9">
      <!-- 0.4 -->
      <g transform="translate(67.096875 238.453764)scale(0.1 -0.1)">
       <use xlink:href="#DejaVuSans-30"/>
       <use xlink:href="#DejaVuSans-2e" x="63.623047"/>
       <use xlink:href="#DejaVuSans-34" x="95.410156"/>
      </g>
     </g>
    </g>
    <g id="ytick_4">
     <g id="line2d_10">
      <g>
       <use xlink:href="#m757bc1d068" x="90" y="185.236364" style="stroke: #000000; stroke-width: 0.8"/>
      </g>
     </g>
     <g id="text_10">
      <!-- 0.6 -->
      <g transform="translate(67.096875 189.035582)scale(0.1 -0.1)">
       <use xlink:href="#DejaVuSans-30"/>
       <use xlink:href="#DejaVuSans-2e" x="63.623047"/>
       <use xlink:href="#DejaVuSans-36" x="95.410156"/>
      </g>
     </g>
    </g>
    <g id="ytick_5">
     <g id="line2d_11">
      <g>
       <use xlink:href="#m757bc1d068" x="90" y="135.818182" style="stroke: #000000; stroke-width: 0.8"/>
      </g>
     </g>
     <g id="text_11">
      <!-- 0.8 -->
      <g transform="translate(67.096875 139.617401)scale(0.1 -0.1)">
       <use xlink:href="#DejaVuSans-30"/>
       <use xlink:href="#DejaVuSans-2e" x="63.623047"/>
       <use xlink:href="#DejaVuSans-38" x="95.410156"/>
      </g>
     </g>
    </g>
    <g id="ytick_6">
     <g id="line2d_12">
      <g>
       <use xlink:href="#m757bc1d068" x="90" y="86.4" style="stroke: #000000; stroke-width: 0.8"/>
      </g>
     </g>
     <g id="text_12">
      <!-- 1.0 -->
      <g transform="translate(67.096875 90.199219)scale(0.1 -0.1)">
       <use xlink:href="#DejaVuSans-31"/>
       <use xlink:href="#DejaVuSans-2e" x="63.623047"/>
       <use xlink:href="#DejaVuSans-30" x="95.410156"/>
      </g>
     </g>
    </g>
   </g>
   <g id="patch_3">
    <path d="M 90 333.490909 
L 90 86.4 
" style="fill: none; stroke: #000000; stroke-width: 0.8; stroke-linejoin: miter; stroke-linecap: square"/>
   </g>
   <g id="patch_4">
    <path d="M 343.636364 333.490909 
L 343.636364 86.4 
" style="fill: none; stroke: #000000; stroke-width: 0.8; stroke-linejoin: miter; stroke-linecap: square"/>
   </g>
   <g id="patch_5">
    <path d="M 90 333.490909 
L 343.636364 333.490909 
" style="fill: none; stroke: #000000; stroke-width: 0.8; stroke-linejoin: miter; stroke-linecap: square"/>
   </g>
   <g id="patch_6">
    <path d="M 90 86.4 
L 343.636364 86.4 
" style="fill: none; stroke: #000000; stroke-width: 0.8; stroke-linejoin: miter; stroke-linecap: square"/>
   </g>
  </g>
  <g id="axes_2">
   <g id="patch_7">
    <path d="M 394.363636 333.490909 
L 648 333.490909 
L 648 86.4 
L 394.363636 86.4 
z
" style="fill: #ffffff"/>
   </g>
   <g id="PolyCollection_1">
    <defs>
     <path id="m0634442d67" d="M 405.892562 -530.530433 
L 405.892562 -530.530433 
L 407.342741 -530.544797 
L 408.792921 -530.613994 
L 410.2431 -530.868612 
L 411.693279 -531.579776 
L 413.143459 -533.060654 
L 414.593638 -535.307185 
L 416.043817 -537.66929 
L 417.493997 -527.549832 
L 418.944176 -539.564816 
L 420.394355 -539.327759 
L 421.844535 -539.004927 
L 423.294714 -530.181445 
L 424.744893 -536.827655 
L 426.195073 -534.70958 
L 427.645252 -532.737007 
L 429.095431 -531.444282 
L 430.54561 -530.824514 
L 431.99579 -530.602844 
L 433.445969 -530.542602 
L 434.896148 -530.530096 
L 436.346328 -530.527831 
L 437.796507 -530.527831 
L 439.246686 -530.527831 
L 440.696866 -530.527831 
L 442.147045 -530.527831 
L 443.597224 -530.527831 
L 445.047404 -530.527831 
L 446.497583 -530.527831 
L 447.947762 -530.527831 
L 449.397942 -530.527831 
L 450.848121 -530.527831 
L 452.2983 -530.527831 
L 453.74848 -530.527831 
L 455.198659 -530.527831 
L 456.648838 -530.527831 
L 458.099018 -530.527831 
L 459.549197 -530.527831 
L 460.999376 -530.527831 
L 462.449556 -530.527831 
L 463.899735 -530.527831 
L 465.349914 -530.527831 
L 466.800094 -530.527831 
L 468.250273 -530.527831 
L 469.700452 -530.529408 
L 471.150632 -530.538114 
L 472.600811 -530.580054 
L 474.05099 -530.734378 
L 475.501169 -531.164042 
L 476.951349 -532.054022 
L 478.401528 -533.379132 
L 479.851707 -534.676449 
L 481.301887 -528.055004 
L 482.752066 -534.676449 
L 484.202245 -533.379132 
L 485.652425 -532.054022 
L 487.102604 -531.164042 
L 488.552783 -530.734378 
L 490.002963 -530.580054 
L 491.453142 -530.538114 
L 492.903321 -530.529408 
L 494.353501 -530.52876 
L 495.80368 -530.535432 
L 497.253859 -530.571329 
L 498.704039 -530.718017 
L 500.154218 -531.19699 
L 501.604397 -532.424245 
L 503.054577 -534.905896 
L 504.504756 -538.852418 
L 505.954935 -539.474354 
L 507.405115 -542.321895 
L 508.855294 -547.225083 
L 510.305473 -551.450478 
L 511.755653 -542.346525 
L 513.205832 -544.097768 
L 514.656011 -539.006747 
L 516.106191 -535.292555 
L 517.55637 -534.082115 
L 519.006549 -535.706106 
L 520.456729 -539.637011 
L 521.906908 -544.153943 
L 523.357087 -540.145728 
L 524.807266 -541.863047 
L 526.257446 -541.467649 
L 527.707625 -536.201542 
L 529.157804 -531.452486 
L 530.607984 -527.730996 
L 532.058163 -525.232907 
L 533.508342 -519.560414 
L 534.958522 -525.515873 
L 536.408701 -527.867357 
L 537.85888 -530.204874 
L 539.30906 -528.455248 
L 540.759239 -531.116172 
L 542.209418 -529.294205 
L 543.659598 -526.371348 
L 545.109777 -523.049689 
L 546.559956 -515.574224 
L 548.010136 -518.320217 
L 549.460315 -512.809021 
L 550.910494 -517.829899 
L 552.360674 -514.877326 
L 553.810853 -522.201816 
L 555.261032 -525.653487 
L 556.711212 -528.91367 
L 558.161391 -531.479654 
L 559.61157 -533.155284 
L 561.06175 -530.455343 
L 562.511929 -533.381994 
L 563.962108 -532.125512 
L 565.412288 -530.159515 
L 566.862467 -527.108737 
L 568.312646 -522.200548 
L 569.762826 -514.83682 
L 571.213005 -500.343772 
L 572.663184 -494.060699 
L 574.113363 -477.498376 
L 575.563543 -468.867278 
L 577.013722 -465.874391 
L 578.463901 -469.180137 
L 579.914081 -481.890929 
L 581.36426 -478.929787 
L 582.814439 -456.477655 
L 584.264619 -440.745493 
L 585.714798 -428.24359 
L 587.164977 -420.93056 
L 588.615157 -419.737329 
L 590.065336 -421.264046 
L 591.515515 -428.296073 
L 592.965695 -436.079022 
L 594.415874 -448.186725 
L 595.866053 -459.393787 
L 597.316233 -470.026855 
L 598.766412 -489.297752 
L 600.216591 -494.028709 
L 601.666771 -511.92049 
L 603.11695 -520.272997 
L 604.567129 -525.744145 
L 606.017309 -528.598672 
L 607.467488 -529.49235 
L 608.917667 -528.745903 
L 610.367847 -525.905658 
L 611.818026 -520.075842 
L 613.268205 -511.039436 
L 614.718385 -494.936401 
L 616.168564 -486.681039 
L 617.618743 -482.96421 
L 619.068923 -488.782051 
L 620.519102 -499.689495 
L 621.969281 -504.167337 
L 623.41946 -503.895119 
L 624.86964 -495.118321 
L 626.319819 -493.206648 
L 627.769998 -495.008351 
L 629.220178 -497.530038 
L 630.670357 -504.707268 
L 632.120536 -517.691778 
L 633.570716 -522.907179 
L 635.020895 -525.683747 
L 636.471074 -515.938195 
L 636.471074 -537.425992 
L 636.471074 -537.425992 
L 635.020895 -525.683747 
L 633.570716 -522.907179 
L 632.120536 -517.691778 
L 630.670357 -516.338599 
L 629.220178 -509.031929 
L 627.769998 -501.866057 
L 626.319819 -502.087611 
L 624.86964 -505.773426 
L 623.41946 -503.895119 
L 621.969281 -504.167337 
L 620.519102 -499.689495 
L 619.068923 -497.37653 
L 617.618743 -495.829873 
L 616.168564 -497.47582 
L 614.718385 -506.048516 
L 613.268205 -511.039436 
L 611.818026 -520.075842 
L 610.367847 -525.905658 
L 608.917667 -528.745903 
L 607.467488 -529.49235 
L 606.017309 -528.598672 
L 604.567129 -525.744145 
L 603.11695 -520.272997 
L 601.666771 -511.92049 
L 600.216591 -508.390858 
L 598.766412 -489.297752 
L 597.316233 -484.911343 
L 595.866053 -473.566082 
L 594.415874 -464.470593 
L 592.965695 -457.940548 
L 591.515515 -450.176611 
L 590.065336 -446.715964 
L 588.615157 -444.310345 
L 587.164977 -447.780641 
L 585.714798 -456.046945 
L 584.264619 -468.980428 
L 582.814439 -481.268674 
L 581.36426 -478.929787 
L 579.914081 -481.890929 
L 578.463901 -489.46173 
L 577.013722 -486.662003 
L 575.563543 -485.824649 
L 574.113363 -490.240239 
L 572.663184 -494.060699 
L 571.213005 -509.867248 
L 569.762826 -514.83682 
L 568.312646 -522.200548 
L 566.862467 -527.108737 
L 565.412288 -530.159515 
L 563.962108 -532.125512 
L 562.511929 -533.381994 
L 561.06175 -537.1379 
L 559.61157 -533.155284 
L 558.161391 -531.479654 
L 556.711212 -528.91367 
L 555.261032 -525.653487 
L 553.810853 -522.201816 
L 552.360674 -523.903488 
L 550.910494 -517.829899 
L 549.460315 -522.267097 
L 548.010136 -518.320217 
L 546.559956 -524.788884 
L 545.109777 -523.049689 
L 543.659598 -526.371348 
L 542.209418 -529.294205 
L 540.759239 -531.116172 
L 539.30906 -534.427821 
L 537.85888 -530.204874 
L 536.408701 -527.867357 
L 534.958522 -525.515873 
L 533.508342 -529.280235 
L 532.058163 -525.232907 
L 530.607984 -527.730996 
L 529.157804 -531.452486 
L 527.707625 -536.201542 
L 526.257446 -541.467649 
L 524.807266 -549.423162 
L 523.357087 -553.289595 
L 521.906908 -544.153943 
L 520.456729 -539.637011 
L 519.006549 -535.706106 
L 517.55637 -534.082115 
L 516.106191 -535.292555 
L 514.656011 -539.006747 
L 513.205832 -544.097768 
L 511.755653 -555.251413 
L 510.305473 -551.450478 
L 508.855294 -555.256552 
L 507.405115 -554.374712 
L 505.954935 -548.019688 
L 504.504756 -538.852418 
L 503.054577 -534.905896 
L 501.604397 -532.424245 
L 500.154218 -531.19699 
L 498.704039 -530.718017 
L 497.253859 -530.571329 
L 495.80368 -530.535432 
L 494.353501 -530.52876 
L 492.903321 -530.529408 
L 491.453142 -530.538114 
L 490.002963 -530.580054 
L 488.552783 -530.734378 
L 487.102604 -531.164042 
L 485.652425 -532.054022 
L 484.202245 -533.379132 
L 482.752066 -534.676449 
L 481.301887 -542.402658 
L 479.851707 -534.676449 
L 478.401528 -533.379132 
L 476.951349 -532.054022 
L 475.501169 -531.164042 
L 474.05099 -530.734378 
L 472.600811 -530.580054 
L 471.150632 -530.538114 
L 469.700452 -530.529408 
L 468.250273 -530.527831 
L 466.800094 -530.527831 
L 465.349914 -530.527831 
L 463.899735 -530.527831 
L 462.449556 -530.527831 
L 460.999376 -530.527831 
L 459.549197 -530.527831 
L 458.099018 -530.527831 
L 456.648838 -530.527831 
L 455.198659 -530.527831 
L 453.74848 -530.527831 
L 452.2983 -530.527831 
L 450.848121 -530.527831 
L 449.397942 -530.527831 
L 447.947762 -530.527831 
L 446.497583 -530.527831 
L 445.047404 -530.527831 
L 443.597224 -530.527831 
L 442.147045 -530.527831 
L 440.696866 -530.527831 
L 439.246686 -530.527831 
L 437.796507 -530.527831 
L 436.346328 -530.527831 
L 434.896148 -530.530096 
L 433.445969 -530.542602 
L 431.99579 -530.602844 
L 430.54561 -530.824514 
L 429.095431 -531.444282 
L 427.645252 -532.737007 
L 426.195073 -534.70958 
L 424.744893 -536.827655 
L 423.294714 -546.478539 
L 421.844535 -539.004927 
L 420.394355 -539.327759 
L 418.944176 -539.564816 
L 417.493997 -550.845823 
L 416.043817 -537.66929 
L 414.593638 -535.307185 
L 413.143459 -533.060654 
L 411.693279 -531.579776 
L 410.2431 -530.868612 
L 408.792921 -530.613994 
L 407.342741 -530.544797 
L 405.892562 -530.530433 
z
" style="stroke: #9467bd; stroke-opacity: 0.2"/>
    </defs>
    <g clip-path="url(#p1cac945ae5)">
     <use xlink:href="#m0634442d67" x="0" y="720" style="fill: #9467bd; fill-opacity: 0.2; stroke: #9467bd; stroke-opacity: 0.2"/>
    </g>
   </g>
   <g id="PolyCollection_2">
    <defs>
     <path id="m6f8d9cdcc7" d="M 405.892562 -529.672146 
L 405.892562 -529.672146 
L 407.342741 -528.019927 
L 408.792921 -523.569833 
L 410.2431 -515.113025 
L 411.693279 -503.528324 
L 413.143459 -485.708406 
L 414.593638 -478.156827 
L 416.043817 -493.341932 
L 417.493997 -501.900616 
L 418.944176 -507.3634 
L 420.394355 -509.38706 
L 421.844535 -515.733381 
L 423.294714 -518.514316 
L 424.744893 -517.501319 
L 426.195073 -520.772861 
L 427.645252 -524.218554 
L 429.095431 -521.461264 
L 430.54561 -514.634432 
L 431.99579 -506.140925 
L 433.445969 -483.192185 
L 434.896148 -489.301065 
L 436.346328 -508.176946 
L 437.796507 -516.957977 
L 439.246686 -524.011408 
L 440.696866 -528.054089 
L 442.147045 -529.78609 
L 443.597224 -530.352373 
L 445.047404 -530.495134 
L 446.497583 -530.523817 
L 447.947762 -530.527831 
L 449.397942 -530.527831 
L 450.848121 -530.527831 
L 452.2983 -530.527831 
L 453.74848 -530.527831 
L 455.198659 -530.527831 
L 456.648838 -530.527831 
L 458.099018 -530.527831 
L 459.549197 -530.527831 
L 460.999376 -530.527831 
L 462.449556 -530.527831 
L 463.899735 -530.527831 
L 465.349914 -530.527831 
L 466.800094 -530.527831 
L 468.250273 -530.527831 
L 469.700452 -530.527831 
L 471.150632 -530.527831 
L 472.600811 -530.521864 
L 474.05099 -530.48892 
L 475.501169 -530.330225 
L 476.951349 -529.744754 
L 478.401528 -528.110522 
L 479.851707 -524.702286 
L 481.301887 -519.538584 
L 482.752066 -514.213005 
L 484.202245 -503.817536 
L 485.652425 -512.063655 
L 487.102604 -515.708548 
L 488.552783 -517.396839 
L 490.002963 -523.959882 
L 491.453142 -526.558466 
L 492.903321 -527.832098 
L 494.353501 -527.95095 
L 495.80368 -527.437776 
L 497.253859 -523.382989 
L 498.704039 -526.322985 
L 500.154218 -524.918908 
L 501.604397 -523.083627 
L 503.054577 -520.378048 
L 504.504756 -514.143317 
L 505.954935 -516.736143 
L 507.405115 -515.681022 
L 508.855294 -515.053897 
L 510.305473 -510.769488 
L 511.755653 -519.371569 
L 513.205832 -518.651361 
L 514.656011 -525.60156 
L 516.106191 -524.981088 
L 517.55637 -522.867711 
L 519.006549 -515.948573 
L 520.456729 -521.536631 
L 521.906908 -524.300788 
L 523.357087 -526.655815 
L 524.807266 -529.106377 
L 526.257446 -532.602828 
L 527.707625 -532.446676 
L 529.157804 -539.087726 
L 530.607984 -537.98964 
L 532.058163 -541.418001 
L 533.508342 -537.224423 
L 534.958522 -532.904319 
L 536.408701 -529.107881 
L 537.85888 -525.517931 
L 539.30906 -522.160192 
L 540.759239 -515.24997 
L 542.209418 -519.517399 
L 543.659598 -514.796616 
L 545.109777 -522.055606 
L 546.559956 -526.627121 
L 548.010136 -528.548137 
L 549.460315 -529.487761 
L 550.910494 -529.695667 
L 552.360674 -529.575374 
L 553.810853 -527.951934 
L 555.261032 -529.399509 
L 556.711212 -529.197528 
L 558.161391 -528.556081 
L 559.61157 -527.57429 
L 561.06175 -526.983689 
L 562.511929 -519.609139 
L 563.962108 -528.623413 
L 565.412288 -522.380463 
L 566.862467 -531.909273 
L 568.312646 -530.49322 
L 569.762826 -528.727057 
L 571.213005 -530.105755 
L 572.663184 -530.093727 
L 574.113363 -530.265408 
L 575.563543 -530.415413 
L 577.013722 -530.491501 
L 578.463901 -530.518632 
L 579.914081 -530.526078 
L 581.36426 -530.527593 
L 582.814439 -530.527831 
L 584.264619 -530.527831 
L 585.714798 -530.527831 
L 587.164977 -530.527831 
L 588.615157 -530.527831 
L 590.065336 -530.527831 
L 591.515515 -530.527831 
L 592.965695 -530.527831 
L 594.415874 -530.527831 
L 595.866053 -530.527831 
L 597.316233 -530.522502 
L 598.766412 -530.493083 
L 600.216591 -530.351368 
L 601.666771 -529.829908 
L 603.11695 -528.378076 
L 604.567129 -525.370838 
L 606.017309 -520.893299 
L 607.467488 -516.50967 
L 608.917667 -509.888246 
L 610.367847 -516.50967 
L 611.818026 -520.893299 
L 613.268205 -525.370838 
L 614.718385 -528.378076 
L 616.168564 -529.829908 
L 617.618743 -530.351368 
L 619.068923 -530.493083 
L 620.519102 -530.526501 
L 621.969281 -530.559999 
L 623.41946 -530.702821 
L 624.86964 -531.271843 
L 626.319819 -533.03306 
L 627.769998 -537.230418 
L 629.220178 -544.824162 
L 630.670357 -554.94862 
L 632.120536 -549.621104 
L 633.570716 -565.41749 
L 635.020895 -559.870463 
L 636.471074 -565.525062 
L 636.471074 -565.525062 
L 636.471074 -565.525062 
L 635.020895 -576.086046 
L 633.570716 -572.090516 
L 632.120536 -578.796775 
L 630.670357 -554.94862 
L 629.220178 -544.824162 
L 627.769998 -537.230418 
L 626.319819 -533.03306 
L 624.86964 -531.271843 
L 623.41946 -530.702821 
L 621.969281 -530.559999 
L 620.519102 -530.526501 
L 619.068923 -530.493083 
L 617.618743 -530.351368 
L 616.168564 -529.829908 
L 614.718385 -528.378076 
L 613.268205 -525.370838 
L 611.818026 -520.893299 
L 610.367847 -516.50967 
L 608.917667 -519.398101 
L 607.467488 -516.50967 
L 606.017309 -520.893299 
L 604.567129 -525.370838 
L 603.11695 -528.378076 
L 601.666771 -529.829908 
L 600.216591 -530.351368 
L 598.766412 -530.493083 
L 597.316233 -530.522502 
L 595.866053 -530.527831 
L 594.415874 -530.527831 
L 592.965695 -530.527831 
L 591.515515 -530.527831 
L 590.065336 -530.527831 
L 588.615157 -530.527831 
L 587.164977 -530.527831 
L 585.714798 -530.527831 
L 584.264619 -530.527831 
L 582.814439 -530.527831 
L 581.36426 -530.527593 
L 579.914081 -530.526078 
L 578.463901 -530.518632 
L 577.013722 -530.491501 
L 575.563543 -530.415413 
L 574.113363 -530.265408 
L 572.663184 -530.093727 
L 571.213005 -530.105755 
L 569.762826 -532.397912 
L 568.312646 -532.296135 
L 566.862467 -531.909273 
L 565.412288 -540.124732 
L 563.962108 -530.259189 
L 562.511929 -535.644011 
L 561.06175 -526.983689 
L 559.61157 -527.57429 
L 558.161391 -528.556081 
L 556.711212 -529.197528 
L 555.261032 -529.399509 
L 553.810853 -530.952621 
L 552.360674 -529.575374 
L 550.910494 -529.695667 
L 549.460315 -529.487761 
L 548.010136 -528.548137 
L 546.559956 -526.627121 
L 545.109777 -525.754862 
L 543.659598 -527.512288 
L 542.209418 -519.517399 
L 540.759239 -524.482432 
L 539.30906 -522.160192 
L 537.85888 -525.517931 
L 536.408701 -529.107881 
L 534.958522 -532.904319 
L 533.508342 -537.224423 
L 532.058163 -541.418001 
L 530.607984 -549.044233 
L 529.157804 -544.790445 
L 527.707625 -542.462052 
L 526.257446 -532.602828 
L 524.807266 -529.106377 
L 523.357087 -526.655815 
L 521.906908 -524.300788 
L 520.456729 -522.869126 
L 519.006549 -527.126872 
L 517.55637 -522.867711 
L 516.106191 -524.981088 
L 514.656011 -525.60156 
L 513.205832 -528.130887 
L 511.755653 -519.371569 
L 510.305473 -521.383916 
L 508.855294 -515.053897 
L 507.405115 -515.681022 
L 505.954935 -516.736143 
L 504.504756 -522.13572 
L 503.054577 -520.378048 
L 501.604397 -523.083627 
L 500.154218 -525.515169 
L 498.704039 -526.322985 
L 497.253859 -530.365069 
L 495.80368 -527.437776 
L 494.353501 -527.95095 
L 492.903321 -527.832098 
L 491.453142 -526.558466 
L 490.002963 -523.959882 
L 488.552783 -522.921207 
L 487.102604 -515.708548 
L 485.652425 -512.063655 
L 484.202245 -518.701905 
L 482.752066 -514.213005 
L 481.301887 -519.538584 
L 479.851707 -524.702286 
L 478.401528 -528.110522 
L 476.951349 -529.744754 
L 475.501169 -530.330225 
L 474.05099 -530.48892 
L 472.600811 -530.521864 
L 471.150632 -530.527831 
L 469.700452 -530.527831 
L 468.250273 -530.527831 
L 466.800094 -530.527831 
L 465.349914 -530.527831 
L 463.899735 -530.527831 
L 462.449556 -530.527831 
L 460.999376 -530.527831 
L 459.549197 -530.527831 
L 458.099018 -530.527831 
L 456.648838 -530.527831 
L 455.198659 -530.527831 
L 453.74848 -530.527831 
L 452.2983 -530.527831 
L 450.848121 -530.527831 
L 449.397942 -530.527831 
L 447.947762 -530.527831 
L 446.497583 -530.523817 
L 445.047404 -530.495134 
L 443.597224 -530.352373 
L 442.147045 -529.78609 
L 440.696866 -528.054089 
L 439.246686 -524.011408 
L 437.796507 -516.957977 
L 436.346328 -508.176946 
L 434.896148 -513.531012 
L 433.445969 -517.931224 
L 431.99579 -506.140925 
L 430.54561 -514.634432 
L 429.095431 -521.461264 
L 427.645252 -524.218554 
L 426.195073 -525.983585 
L 424.744893 -524.32475 
L 423.294714 -518.514316 
L 421.844535 -517.461423 
L 420.394355 -519.045507 
L 418.944176 -511.871894 
L 417.493997 -501.900616 
L 416.043817 -493.341932 
L 414.593638 -500.15536 
L 413.143459 -500.472232 
L 411.693279 -503.528324 
L 410.2431 -515.113025 
L 408.792921 -523.569833 
L 407.342741 -528.019927 
L 405.892562 -529.672146 
z
" style="stroke: #1f77b4; stroke-opacity: 0.2"/>
    </defs>
    <g clip-path="url(#p1cac945ae5)">
     <use xlink:href="#m6f8d9cdcc7" x="0" y="720" style="fill: #1f77b4; fill-opacity: 0.2; stroke: #1f77b4; stroke-opacity: 0.2"/>
    </g>
   </g>
   <g id="PolyCollection_3">
    <defs>
     <path id="me10611c048" d="M 405.892562 -530.527831 
L 405.892562 -530.527831 
L 407.342741 -530.527831 
L 408.792921 -530.527831 
L 410.2431 -530.527831 
L 411.693279 -530.527831 
L 413.143459 -530.527831 
L 414.593638 -530.527831 
L 416.043817 -530.532302 
L 417.493997 -530.556988 
L 418.944176 -530.675903 
L 420.394355 -531.113467 
L 421.844535 -532.331717 
L 423.294714 -534.855129 
L 424.744893 -538.612288 
L 426.195073 -542.290647 
L 427.645252 -530.712746 
L 429.095431 -542.290647 
L 430.54561 -538.612288 
L 431.99579 -534.855129 
L 433.445969 -532.331717 
L 434.896148 -531.113467 
L 436.346328 -530.675903 
L 437.796507 -530.556988 
L 439.246686 -530.532302 
L 440.696866 -530.527831 
L 442.147045 -530.527831 
L 443.597224 -530.527831 
L 445.047404 -530.527831 
L 446.497583 -530.527831 
L 447.947762 -530.527831 
L 449.397942 -530.527831 
L 450.848121 -530.527831 
L 452.2983 -530.527831 
L 453.74848 -530.527831 
L 455.198659 -530.527831 
L 456.648838 -530.527831 
L 458.099018 -530.527831 
L 459.549197 -530.532136 
L 460.999376 -530.555906 
L 462.449556 -530.674987 
L 463.899735 -531.12421 
L 465.349914 -532.43347 
L 466.800094 -535.380905 
L 468.250273 -540.502224 
L 469.700452 -547.34109 
L 471.150632 -542.530102 
L 472.600811 -558.63129 
L 474.05099 -546.887089 
L 475.501169 -542.182613 
L 476.951349 -547.435147 
L 478.401528 -540.287551 
L 479.851707 -535.17819 
L 481.301887 -532.604251 
L 482.752066 -531.970273 
L 484.202245 -532.415258 
L 485.652425 -533.165992 
L 487.102604 -528.646885 
L 488.552783 -533.794768 
L 490.002963 -534.049934 
L 491.453142 -535.030399 
L 492.903321 -536.927563 
L 494.353501 -533.075683 
L 495.80368 -542.020597 
L 497.253859 -543.800007 
L 498.704039 -535.451891 
L 500.154218 -541.422609 
L 501.604397 -537.768737 
L 503.054577 -534.341168 
L 504.504756 -532.105171 
L 505.954935 -531.042231 
L 507.405115 -530.683781 
L 508.855294 -530.692183 
L 510.305473 -531.085074 
L 511.755653 -532.244232 
L 513.205832 -534.705854 
L 514.656011 -538.573043 
L 516.106191 -542.971679 
L 517.55637 -538.720252 
L 519.006549 -547.842396 
L 520.456729 -547.243629 
L 521.906908 -539.814774 
L 523.357087 -541.427932 
L 524.807266 -537.687401 
L 526.257446 -535.113004 
L 527.707625 -534.739817 
L 529.157804 -536.742755 
L 530.607984 -540.450883 
L 532.058163 -540.083998 
L 533.508342 -548.147969 
L 534.958522 -546.231373 
L 536.408701 -549.13071 
L 537.85888 -537.169587 
L 539.30906 -539.975399 
L 540.759239 -533.7789 
L 542.209418 -524.063152 
L 543.659598 -524.873185 
L 545.109777 -521.998492 
L 546.559956 -519.838624 
L 548.010136 -512.699272 
L 549.460315 -520.49855 
L 550.910494 -523.077738 
L 552.360674 -525.641105 
L 553.810853 -527.886178 
L 555.261032 -526.937023 
L 556.711212 -533.888496 
L 558.161391 -533.699944 
L 559.61157 -533.582957 
L 561.06175 -538.462028 
L 562.511929 -537.950573 
L 563.962108 -538.433776 
L 565.412288 -539.892393 
L 566.862467 -533.890353 
L 568.312646 -541.868804 
L 569.762826 -542.19282 
L 571.213005 -542.663655 
L 572.663184 -532.555661 
L 574.113363 -543.875623 
L 575.563543 -546.538468 
L 577.013722 -552.159905 
L 578.463901 -558.595172 
L 579.914081 -536.392407 
L 581.36426 -557.345809 
L 582.814439 -548.904886 
L 584.264619 -540.355978 
L 585.714798 -534.623409 
L 587.164977 -531.859994 
L 588.615157 -530.880472 
L 590.065336 -530.681833 
L 591.515515 -530.900967 
L 592.965695 -531.725875 
L 594.415874 -533.743587 
L 595.866053 -537.743311 
L 597.316233 -544.497686 
L 598.766412 -544.898994 
L 600.216591 -567.85814 
L 601.666771 -570.543323 
L 603.11695 -577.945811 
L 604.567129 -584.949424 
L 606.017309 -588.248077 
L 607.467488 -586.579945 
L 608.917667 -598.356704 
L 610.367847 -582.396055 
L 611.818026 -573.609417 
L 613.268205 -568.954089 
L 614.718385 -565.083646 
L 616.168564 -553.556879 
L 617.618743 -548.000244 
L 619.068923 -548.328961 
L 620.519102 -542.829879 
L 621.969281 -544.507096 
L 623.41946 -541.353277 
L 624.86964 -544.435976 
L 626.319819 -538.738102 
L 627.769998 -534.440058 
L 629.220178 -532.021849 
L 630.670357 -530.982163 
L 632.120536 -530.637255 
L 633.570716 -530.548226 
L 635.020895 -530.530681 
L 636.471074 -530.527831 
L 636.471074 -530.527831 
L 636.471074 -530.527831 
L 635.020895 -530.530681 
L 633.570716 -530.548226 
L 632.120536 -530.637255 
L 630.670357 -530.982163 
L 629.220178 -532.021849 
L 627.769998 -534.440058 
L 626.319819 -538.738102 
L 624.86964 -544.435976 
L 623.41946 -558.008248 
L 621.969281 -559.829116 
L 620.519102 -559.297331 
L 619.068923 -548.328961 
L 617.618743 -548.000244 
L 616.168564 -553.556879 
L 614.718385 -565.083646 
L 613.268205 -588.387674 
L 611.818026 -605.002999 
L 610.367847 -607.828992 
L 608.917667 -598.356704 
L 607.467488 -617.017171 
L 606.017309 -621.275414 
L 604.567129 -622.368595 
L 603.11695 -613.972633 
L 601.666771 -595.04709 
L 600.216591 -567.85814 
L 598.766412 -564.231577 
L 597.316233 -544.497686 
L 595.866053 -537.743311 
L 594.415874 -533.743587 
L 592.965695 -531.725875 
L 591.515515 -530.900967 
L 590.065336 -530.681833 
L 588.615157 -530.880472 
L 587.164977 -531.859994 
L 585.714798 -534.623409 
L 584.264619 -540.355978 
L 582.814439 -548.904886 
L 581.36426 -557.345809 
L 579.914081 -586.069779 
L 578.463901 -558.595172 
L 577.013722 -552.159905 
L 575.563543 -546.538468 
L 574.113363 -543.875623 
L 572.663184 -553.679031 
L 571.213005 -542.663655 
L 569.762826 -542.19282 
L 568.312646 -541.868804 
L 566.862467 -548.595434 
L 565.412288 -539.892393 
L 563.962108 -538.433776 
L 562.511929 -537.950573 
L 561.06175 -538.462028 
L 559.61157 -543.61705 
L 558.161391 -540.357869 
L 556.711212 -533.888496 
L 555.261032 -534.113921 
L 553.810853 -527.886178 
L 552.360674 -525.641105 
L 550.910494 -523.077738 
L 549.460315 -520.49855 
L 548.010136 -525.630743 
L 546.559956 -519.838624 
L 545.109777 -521.998492 
L 543.659598 -524.873185 
L 542.209418 -533.161174 
L 540.759239 -533.7789 
L 539.30906 -539.975399 
L 537.85888 -554.07915 
L 536.408701 -549.13071 
L 534.958522 -553.519012 
L 533.508342 -548.147969 
L 532.058163 -549.259854 
L 530.607984 -540.450883 
L 529.157804 -536.742755 
L 527.707625 -534.739817 
L 526.257446 -535.113004 
L 524.807266 -537.687401 
L 523.357087 -541.427932 
L 521.906908 -550.073025 
L 520.456729 -547.243629 
L 519.006549 -547.842396 
L 517.55637 -554.078248 
L 516.106191 -542.971679 
L 514.656011 -538.573043 
L 513.205832 -534.705854 
L 511.755653 -532.244232 
L 510.305473 -531.085074 
L 508.855294 -530.692183 
L 507.405115 -530.683781 
L 505.954935 -531.042231 
L 504.504756 -532.105171 
L 503.054577 -534.341168 
L 501.604397 -537.768737 
L 500.154218 -541.422609 
L 498.704039 -552.020455 
L 497.253859 -543.800007 
L 495.80368 -542.020597 
L 494.353501 -545.813806 
L 492.903321 -536.927563 
L 491.453142 -535.030399 
L 490.002963 -534.049934 
L 488.552783 -533.794768 
L 487.102604 -538.667068 
L 485.652425 -533.165992 
L 484.202245 -532.415258 
L 482.752066 -531.970273 
L 481.301887 -532.604251 
L 479.851707 -535.17819 
L 478.401528 -540.287551 
L 476.951349 -547.435147 
L 475.501169 -566.903054 
L 474.05099 -570.805796 
L 472.600811 -558.63129 
L 471.150632 -565.816898 
L 469.700452 -547.34109 
L 468.250273 -540.502224 
L 466.800094 -535.380905 
L 465.349914 -532.43347 
L 463.899735 -531.12421 
L 462.449556 -530.674987 
L 460.999376 -530.555906 
L 459.549197 -530.532136 
L 458.099018 -530.527831 
L 456.648838 -530.527831 
L 455.198659 -530.527831 
L 453.74848 -530.527831 
L 452.2983 -530.527831 
L 450.848121 -530.527831 
L 449.397942 -530.527831 
L 447.947762 -530.527831 
L 446.497583 -530.527831 
L 445.047404 -530.527831 
L 443.597224 -530.527831 
L 442.147045 -530.527831 
L 440.696866 -530.527831 
L 439.246686 -530.532302 
L 437.796507 -530.556988 
L 436.346328 -530.675903 
L 434.896148 -531.113467 
L 433.445969 -532.331717 
L 431.99579 -534.855129 
L 430.54561 -538.612288 
L 429.095431 -542.290647 
L 427.645252 -557.00095 
L 426.195073 -542.290647 
L 424.744893 -538.612288 
L 423.294714 -534.855129 
L 421.844535 -532.331717 
L 420.394355 -531.113467 
L 418.944176 -530.675903 
L 417.493997 -530.556988 
L 416.043817 -530.532302 
L 414.593638 -530.527831 
L 413.143459 -530.527831 
L 411.693279 -530.527831 
L 410.2431 -530.527831 
L 408.792921 -530.527831 
L 407.342741 -530.527831 
L 405.892562 -530.527831 
z
" style="stroke: #d62728; stroke-opacity: 0.2"/>
    </defs>
    <g clip-path="url(#p1cac945ae5)">
     <use xlink:href="#me10611c048" x="0" y="720" style="fill: #d62728; fill-opacity: 0.2; stroke: #d62728; stroke-opacity: 0.2"/>
    </g>
   </g>
   <g id="PolyCollection_4">
    <defs>
     <path id="me56c729f3b" d="M 405.892562 -496.007921 
L 405.892562 -488.524018 
L 407.342741 -486.423401 
L 408.792921 -486.410149 
L 410.2431 -492.430474 
L 411.693279 -496.128523 
L 413.143459 -514.76601 
L 414.593638 -524.973223 
L 416.043817 -522.959045 
L 417.493997 -534.234409 
L 418.944176 -533.803434 
L 420.394355 -532.327715 
L 421.844535 -530.770776 
L 423.294714 -528.740274 
L 424.744893 -524.868661 
L 426.195073 -517.763189 
L 427.645252 -507.501376 
L 429.095431 -489.491104 
L 430.54561 -483.285762 
L 431.99579 -478.711586 
L 433.445969 -483.188708 
L 434.896148 -476.592642 
L 436.346328 -455.219858 
L 437.796507 -433.72274 
L 439.246686 -418.844804 
L 440.696866 -405.979922 
L 442.147045 -398.474287 
L 443.597224 -397.740496 
L 445.047404 -404.333664 
L 446.497583 -411.504973 
L 447.947762 -419.781448 
L 449.397942 -424.675502 
L 450.848121 -429.779123 
L 452.2983 -436.239288 
L 453.74848 -440.433595 
L 455.198659 -440.933019 
L 456.648838 -443.967422 
L 458.099018 -445.991834 
L 459.549197 -447.922048 
L 460.999376 -449.068606 
L 462.449556 -453.136347 
L 463.899735 -460.380496 
L 465.349914 -462.486263 
L 466.800094 -463.466231 
L 468.250273 -465.212968 
L 469.700452 -467.030656 
L 471.150632 -481.835795 
L 472.600811 -484.961078 
L 474.05099 -496.728819 
L 475.501169 -499.640479 
L 476.951349 -492.435273 
L 478.401528 -490.512871 
L 479.851707 -490.038007 
L 481.301887 -496.463405 
L 482.752066 -495.637236 
L 484.202245 -502.728669 
L 485.652425 -500.291277 
L 487.102604 -505.631706 
L 488.552783 -504.422113 
L 490.002963 -492.863883 
L 491.453142 -492.961406 
L 492.903321 -490.874823 
L 494.353501 -504.23168 
L 495.80368 -504.458159 
L 497.253859 -513.980757 
L 498.704039 -514.422357 
L 500.154218 -512.229175 
L 501.604397 -507.557407 
L 503.054577 -508.434881 
L 504.504756 -516.581793 
L 505.954935 -522.128532 
L 507.405115 -526.271157 
L 508.855294 -528.064586 
L 510.305473 -527.68797 
L 511.755653 -525.852762 
L 513.205832 -523.697609 
L 514.656011 -519.476037 
L 516.106191 -518.099086 
L 517.55637 -525.231423 
L 519.006549 -527.308461 
L 520.456729 -528.404242 
L 521.906908 -528.131335 
L 523.357087 -526.787153 
L 524.807266 -525.241443 
L 526.257446 -518.927391 
L 527.707625 -525.187545 
L 529.157804 -526.582457 
L 530.607984 -527.567964 
L 532.058163 -527.259584 
L 533.508342 -525.666045 
L 534.958522 -523.768533 
L 536.408701 -519.680633 
L 537.85888 -523.832694 
L 539.30906 -525.929111 
L 540.759239 -528.074715 
L 542.209418 -529.547883 
L 543.659598 -530.378425 
L 545.109777 -531.01189 
L 546.559956 -531.883158 
L 548.010136 -533.132071 
L 549.460315 -534.493533 
L 550.910494 -529.889404 
L 552.360674 -536.240614 
L 553.810853 -536.840323 
L 555.261032 -537.378504 
L 556.711212 -531.370235 
L 558.161391 -536.204026 
L 559.61157 -534.349156 
L 561.06175 -532.557513 
L 562.511929 -531.371516 
L 563.962108 -530.80128 
L 565.412288 -530.596969 
L 566.862467 -530.541445 
L 568.312646 -530.529919 
L 569.762826 -530.523461 
L 571.213005 -530.499335 
L 572.663184 -530.383118 
L 574.113363 -529.955482 
L 575.563543 -528.764872 
L 577.013722 -526.298712 
L 578.463901 -522.626796 
L 579.914081 -519.031893 
L 581.36426 -506.008958 
L 582.814439 -519.031893 
L 584.264619 -522.626796 
L 585.714798 -526.298712 
L 587.164977 -528.764872 
L 588.615157 -529.955482 
L 590.065336 -530.383118 
L 591.515515 -530.499335 
L 592.965695 -530.523461 
L 594.415874 -530.527831 
L 595.866053 -530.527831 
L 597.316233 -530.527831 
L 598.766412 -530.527831 
L 600.216591 -530.527831 
L 601.666771 -530.527831 
L 603.11695 -530.527831 
L 604.567129 -530.527831 
L 606.017309 -530.527831 
L 607.467488 -530.527831 
L 608.917667 -530.527831 
L 610.367847 -530.527831 
L 611.818026 -530.527831 
L 613.268205 -530.527831 
L 614.718385 -530.527831 
L 616.168564 -530.527831 
L 617.618743 -530.527831 
L 619.068923 -530.527831 
L 620.519102 -530.527831 
L 621.969281 -530.527831 
L 623.41946 -530.527831 
L 624.86964 -530.527831 
L 626.319819 -530.527831 
L 627.769998 -530.527831 
L 629.220178 -530.527831 
L 630.670357 -530.527831 
L 632.120536 -530.527831 
L 633.570716 -530.527831 
L 635.020895 -530.527831 
L 636.471074 -530.527831 
L 636.471074 -530.527831 
L 636.471074 -530.527831 
L 635.020895 -530.527831 
L 633.570716 -530.527831 
L 632.120536 -530.527831 
L 630.670357 -530.527831 
L 629.220178 -530.527831 
L 627.769998 -530.527831 
L 626.319819 -530.527831 
L 624.86964 -530.527831 
L 623.41946 -530.527831 
L 621.969281 -530.527831 
L 620.519102 -530.527831 
L 619.068923 -530.527831 
L 617.618743 -530.527831 
L 616.168564 -530.527831 
L 614.718385 -530.527831 
L 613.268205 -530.527831 
L 611.818026 -530.527831 
L 610.367847 -530.527831 
L 608.917667 -530.527831 
L 607.467488 -530.527831 
L 606.017309 -530.527831 
L 604.567129 -530.527831 
L 603.11695 -530.527831 
L 601.666771 -530.527831 
L 600.216591 -530.527831 
L 598.766412 -530.527831 
L 597.316233 -530.527831 
L 595.866053 -530.527831 
L 594.415874 -530.527831 
L 592.965695 -530.523461 
L 591.515515 -530.499335 
L 590.065336 -530.383118 
L 588.615157 -529.955482 
L 587.164977 -528.764872 
L 585.714798 -526.298712 
L 584.264619 -522.626796 
L 582.814439 -519.031893 
L 581.36426 -528.993497 
L 579.914081 -519.031893 
L 578.463901 -522.626796 
L 577.013722 -526.298712 
L 575.563543 -528.764872 
L 574.113363 -529.955482 
L 572.663184 -530.383118 
L 571.213005 -530.499335 
L 569.762826 -530.523461 
L 568.312646 -530.529919 
L 566.862467 -530.541445 
L 565.412288 -530.596969 
L 563.962108 -530.80128 
L 562.511929 -531.371516 
L 561.06175 -532.557513 
L 559.61157 -534.349156 
L 558.161391 -536.204026 
L 556.711212 -543.265216 
L 555.261032 -537.378504 
L 553.810853 -536.840323 
L 552.360674 -536.240614 
L 550.910494 -541.218564 
L 549.460315 -534.493533 
L 548.010136 -533.132071 
L 546.559956 -531.883158 
L 545.109777 -531.01189 
L 543.659598 -530.378425 
L 542.209418 -529.547883 
L 540.759239 -528.074715 
L 539.30906 -525.929111 
L 537.85888 -523.832694 
L 536.408701 -526.180332 
L 534.958522 -523.768533 
L 533.508342 -525.666045 
L 532.058163 -527.259584 
L 530.607984 -527.567964 
L 529.157804 -526.582457 
L 527.707625 -525.187545 
L 526.257446 -530.174465 
L 524.807266 -525.241443 
L 523.357087 -526.787153 
L 521.906908 -528.131335 
L 520.456729 -528.404242 
L 519.006549 -527.308461 
L 517.55637 -525.231423 
L 516.106191 -528.380224 
L 514.656011 -525.674497 
L 513.205832 -523.697609 
L 511.755653 -525.852762 
L 510.305473 -527.68797 
L 508.855294 -528.064586 
L 507.405115 -526.271157 
L 505.954935 -522.128532 
L 504.504756 -516.581793 
L 503.054577 -515.466486 
L 501.604397 -513.455566 
L 500.154218 -512.229175 
L 498.704039 -514.422357 
L 497.253859 -513.980757 
L 495.80368 -515.483282 
L 494.353501 -504.23168 
L 492.903321 -509.000227 
L 491.453142 -505.485753 
L 490.002963 -510.266615 
L 488.552783 -504.422113 
L 487.102604 -505.631706 
L 485.652425 -509.422371 
L 484.202245 -502.728669 
L 482.752066 -503.741609 
L 481.301887 -496.463405 
L 479.851707 -499.438638 
L 478.401528 -501.102085 
L 476.951349 -504.59318 
L 475.501169 -499.640479 
L 474.05099 -496.728819 
L 472.600811 -495.099859 
L 471.150632 -481.835795 
L 469.700452 -482.49313 
L 468.250273 -475.749544 
L 466.800094 -474.299004 
L 465.349914 -473.900661 
L 463.899735 -472.908343 
L 462.449556 -474.851506 
L 460.999376 -473.011472 
L 459.549197 -468.452723 
L 458.099018 -464.738072 
L 456.648838 -461.768605 
L 455.198659 -461.125586 
L 453.74848 -458.034242 
L 452.2983 -456.498968 
L 450.848121 -454.661208 
L 449.397942 -450.039614 
L 447.947762 -443.672493 
L 446.497583 -437.830832 
L 445.047404 -429.233026 
L 443.597224 -423.959875 
L 442.147045 -421.98876 
L 440.696866 -427.305987 
L 439.246686 -440.12215 
L 437.796507 -459.035888 
L 436.346328 -471.870996 
L 434.896148 -476.592642 
L 433.445969 -483.188708 
L 431.99579 -492.412102 
L 430.54561 -494.583859 
L 429.095431 -503.817856 
L 427.645252 -507.501376 
L 426.195073 -517.763189 
L 424.744893 -524.868661 
L 423.294714 -528.740274 
L 421.844535 -530.770776 
L 420.394355 -532.327715 
L 418.944176 -533.803434 
L 417.493997 -534.234409 
L 416.043817 -540.513909 
L 414.593638 -524.973223 
L 413.143459 -514.76601 
L 411.693279 -512.210064 
L 410.2431 -500.511347 
L 408.792921 -499.298229 
L 407.342741 -497.761338 
L 405.892562 -496.007921 
z
" style="stroke: #ff7f0e; stroke-opacity: 0.2"/>
    </defs>
    <g clip-path="url(#p1cac945ae5)">
     <use xlink:href="#me56c729f3b" x="0" y="720" style="fill: #ff7f0e; fill-opacity: 0.2; stroke: #ff7f0e; stroke-opacity: 0.2"/>
    </g>
   </g>
   <g id="matplotlib.axis_3">
    <g id="xtick_7">
     <g id="line2d_13">
      <g>
       <use xlink:href="#m65c5043e77" x="405.863558" y="333.490909" style="stroke: #000000; stroke-width: 0.8"/>
      </g>
     </g>
     <g id="text_13">
      <!-- 0 -->
      <g transform="translate(402.682308 348.089347)scale(0.1 -0.1)">
       <use xlink:href="#DejaVuSans-30"/>
      </g>
     </g>
    </g>
    <g id="xtick_8">
     <g id="line2d_14">
      <g>
       <use xlink:href="#m65c5043e77" x="463.870731" y="333.490909" style="stroke: #000000; stroke-width: 0.8"/>
      </g>
     </g>
     <g id="text_14">
      <!-- 2000 -->
      <g transform="translate(451.145731 348.089347)scale(0.1 -0.1)">
       <use xlink:href="#DejaVuSans-32"/>
       <use xlink:href="#DejaVuSans-30" x="63.623047"/>
       <use xlink:href="#DejaVuSans-30" x="127.246094"/>
       <use xlink:href="#DejaVuSans-30" x="190.869141"/>
      </g>
     </g>
    </g>
    <g id="xtick_9">
     <g id="line2d_15">
      <g>
       <use xlink:href="#m65c5043e77" x="521.877904" y="333.490909" style="stroke: #000000; stroke-width: 0.8"/>
      </g>
     </g>
     <g id="text_15">
      <!-- 4000 -->
      <g transform="translate(509.152904 348.089347)scale(0.1 -0.1)">
       <use xlink:href="#DejaVuSans-34"/>
       <use xlink:href="#DejaVuSans-30" x="63.623047"/>
       <use xlink:href="#DejaVuSans-30" x="127.246094"/>
       <use xlink:href="#DejaVuSans-30" x="190.869141"/>
      </g>
     </g>
    </g>
    <g id="xtick_10">
     <g id="line2d_16">
      <g>
       <use xlink:href="#m65c5043e77" x="579.885077" y="333.490909" style="stroke: #000000; stroke-width: 0.8"/>
      </g>
     </g>
     <g id="text_16">
      <!-- 6000 -->
      <g transform="translate(567.160077 348.089347)scale(0.1 -0.1)">
       <use xlink:href="#DejaVuSans-36"/>
       <use xlink:href="#DejaVuSans-30" x="63.623047"/>
       <use xlink:href="#DejaVuSans-30" x="127.246094"/>
       <use xlink:href="#DejaVuSans-30" x="190.869141"/>
      </g>
     </g>
    </g>
    <g id="xtick_11">
     <g id="line2d_17">
      <g>
       <use xlink:href="#m65c5043e77" x="637.89225" y="333.490909" style="stroke: #000000; stroke-width: 0.8"/>
      </g>
     </g>
     <g id="text_17">
      <!-- 8000 -->
      <g transform="translate(625.16725 348.089347)scale(0.1 -0.1)">
       <use xlink:href="#DejaVuSans-38"/>
       <use xlink:href="#DejaVuSans-30" x="63.623047"/>
       <use xlink:href="#DejaVuSans-30" x="127.246094"/>
       <use xlink:href="#DejaVuSans-30" x="190.869141"/>
      </g>
     </g>
    </g>
   </g>
   <g id="matplotlib.axis_4">
    <g id="ytick_7">
     <g id="line2d_18">
      <g>
       <use xlink:href="#m757bc1d068" x="394.363636" y="329.632092" style="stroke: #000000; stroke-width: 0.8"/>
      </g>
     </g>
     <g id="text_18">
      <!-- −2.5 -->
      <g transform="translate(363.080824 333.431311)scale(0.1 -0.1)">
       <defs>
        <path id="DejaVuSans-2212" d="M 678 2272 
L 4684 2272 
L 4684 1741 
L 678 1741 
L 678 2272 
z
" transform="scale(0.015625)"/>
        <path id="DejaVuSans-35" d="M 691 4666 
L 3169 4666 
L 3169 4134 
L 1269 4134 
L 1269 2991 
Q 1406 3038 1543 3061 
Q 1681 3084 1819 3084 
Q 2600 3084 3056 2656 
Q 3513 2228 3513 1497 
Q 3513 744 3044 326 
Q 2575 -91 1722 -91 
Q 1428 -91 1123 -41 
Q 819 9 494 109 
L 494 744 
Q 775 591 1075 516 
Q 1375 441 1709 441 
Q 2250 441 2565 725 
Q 2881 1009 2881 1497 
Q 2881 1984 2565 2268 
Q 2250 2553 1709 2553 
Q 1456 2553 1204 2497 
Q 953 2441 691 2322 
L 691 4666 
z
" transform="scale(0.015625)"/>
       </defs>
       <use xlink:href="#DejaVuSans-2212"/>
       <use xlink:href="#DejaVuSans-32" x="83.789062"/>
       <use xlink:href="#DejaVuSans-2e" x="147.412109"/>
       <use xlink:href="#DejaVuSans-35" x="179.199219"/>
      </g>
     </g>
    </g>
    <g id="ytick_8">
     <g id="line2d_19">
      <g>
       <use xlink:href="#m757bc1d068" x="394.363636" y="301.600107" style="stroke: #000000; stroke-width: 0.8"/>
      </g>
     </g>
     <g id="text_19">
      <!-- −2.0 -->
      <g transform="translate(363.080824 305.399326)scale(0.1 -0.1)">
       <use xlink:href="#DejaVuSans-2212"/>
       <use xlink:href="#DejaVuSans-32" x="83.789062"/>
       <use xlink:href="#DejaVuSans-2e" x="147.412109"/>
       <use xlink:href="#DejaVuSans-30" x="179.199219"/>
      </g>
     </g>
    </g>
    <g id="ytick_9">
     <g id="line2d_20">
      <g>
       <use xlink:href="#m757bc1d068" x="394.363636" y="273.568123" style="stroke: #000000; stroke-width: 0.8"/>
      </g>
     </g>
     <g id="text_20">
      <!-- −1.5 -->
      <g transform="translate(363.080824 277.367342)scale(0.1 -0.1)">
       <use xlink:href="#DejaVuSans-2212"/>
       <use xlink:href="#DejaVuSans-31" x="83.789062"/>
       <use xlink:href="#DejaVuSans-2e" x="147.412109"/>
       <use xlink:href="#DejaVuSans-35" x="179.199219"/>
      </g>
     </g>
    </g>
    <g id="ytick_10">
     <g id="line2d_21">
      <g>
       <use xlink:href="#m757bc1d068" x="394.363636" y="245.536138" style="stroke: #000000; stroke-width: 0.8"/>
      </g>
     </g>
     <g id="text_21">
      <!-- −1.0 -->
      <g transform="translate(363.080824 249.335357)scale(0.1 -0.1)">
       <use xlink:href="#DejaVuSans-2212"/>
       <use xlink:href="#DejaVuSans-31" x="83.789062"/>
       <use xlink:href="#DejaVuSans-2e" x="147.412109"/>
       <use xlink:href="#DejaVuSans-30" x="179.199219"/>
      </g>
     </g>
    </g>
    <g id="ytick_11">
     <g id="line2d_22">
      <g>
       <use xlink:href="#m757bc1d068" x="394.363636" y="217.504154" style="stroke: #000000; stroke-width: 0.8"/>
      </g>
     </g>
     <g id="text_22">
      <!-- −0.5 -->
      <g transform="translate(363.080824 221.303373)scale(0.1 -0.1)">
       <use xlink:href="#DejaVuSans-2212"/>
       <use xlink:href="#DejaVuSans-30" x="83.789062"/>
       <use xlink:href="#DejaVuSans-2e" x="147.412109"/>
       <use xlink:href="#DejaVuSans-35" x="179.199219"/>
      </g>
     </g>
    </g>
    <g id="ytick_12">
     <g id="line2d_23">
      <g>
       <use xlink:href="#m757bc1d068" x="394.363636" y="189.472169" style="stroke: #000000; stroke-width: 0.8"/>
      </g>
     </g>
     <g id="text_23">
      <!-- 0.0 -->
      <g transform="translate(371.460511 193.271388)scale(0.1 -0.1)">
       <use xlink:href="#DejaVuSans-30"/>
       <use xlink:href="#DejaVuSans-2e" x="63.623047"/>
       <use xlink:href="#DejaVuSans-30" x="95.410156"/>
      </g>
     </g>
    </g>
    <g id="ytick_13">
     <g id="line2d_24">
      <g>
       <use xlink:href="#m757bc1d068" x="394.363636" y="161.440185" style="stroke: #000000; stroke-width: 0.8"/>
      </g>
     </g>
     <g id="text_24">
      <!-- 0.5 -->
      <g transform="translate(371.460511 165.239403)scale(0.1 -0.1)">
       <use xlink:href="#DejaVuSans-30"/>
       <use xlink:href="#DejaVuSans-2e" x="63.623047"/>
       <use xlink:href="#DejaVuSans-35" x="95.410156"/>
      </g>
     </g>
    </g>
    <g id="ytick_14">
     <g id="line2d_25">
      <g>
       <use xlink:href="#m757bc1d068" x="394.363636" y="133.4082" style="stroke: #000000; stroke-width: 0.8"/>
      </g>
     </g>
     <g id="text_25">
      <!-- 1.0 -->
      <g transform="translate(371.460511 137.207419)scale(0.1 -0.1)">
       <use xlink:href="#DejaVuSans-31"/>
       <use xlink:href="#DejaVuSans-2e" x="63.623047"/>
       <use xlink:href="#DejaVuSans-30" x="95.410156"/>
      </g>
     </g>
    </g>
    <g id="ytick_15">
     <g id="line2d_26">
      <g>
       <use xlink:href="#m757bc1d068" x="394.363636" y="105.376216" style="stroke: #000000; stroke-width: 0.8"/>
      </g>
     </g>
     <g id="text_26">
      <!-- 1.5 -->
      <g transform="translate(371.460511 109.175434)scale(0.1 -0.1)">
       <use xlink:href="#DejaVuSans-31"/>
       <use xlink:href="#DejaVuSans-2e" x="63.623047"/>
       <use xlink:href="#DejaVuSans-35" x="95.410156"/>
      </g>
     </g>
    </g>
   </g>
   <g id="line2d_27">
    <path d="M 405.892562 189.469567 
L 408.792921 189.386006 
L 410.2431 189.131388 
L 411.693279 188.420224 
L 413.143459 186.939346 
L 416.043817 182.33071 
L 417.493997 180.802173 
L 418.944176 180.435184 
L 421.844535 180.995073 
L 423.294714 181.670008 
L 424.744893 183.172345 
L 427.645252 187.262993 
L 429.095431 188.555718 
L 430.54561 189.175486 
L 431.99579 189.397156 
L 436.346328 189.472169 
L 472.600811 189.419946 
L 474.05099 189.265622 
L 475.501169 188.835958 
L 476.951349 187.945978 
L 479.851707 185.323551 
L 481.301887 184.771169 
L 482.752066 185.323551 
L 485.652425 187.945978 
L 487.102604 188.835958 
L 488.552783 189.265622 
L 490.002963 189.419946 
L 494.353501 189.47124 
L 497.253859 189.428671 
L 498.704039 189.281983 
L 500.154218 188.80301 
L 501.604397 187.575755 
L 503.054577 185.094104 
L 504.504756 181.147582 
L 507.405115 171.651696 
L 508.855294 168.759183 
L 510.305473 168.549522 
L 511.755653 171.201031 
L 513.205832 175.902232 
L 514.656011 180.993253 
L 516.106191 184.707445 
L 517.55637 185.917885 
L 519.006549 184.293894 
L 520.456729 180.362989 
L 521.906908 175.846057 
L 523.357087 173.282338 
L 524.807266 174.356895 
L 526.257446 178.532351 
L 527.707625 183.798458 
L 529.157804 188.547514 
L 530.607984 192.269004 
L 532.058163 194.767093 
L 533.508342 195.579676 
L 534.958522 194.484127 
L 537.85888 189.795126 
L 539.30906 188.558466 
L 540.759239 188.883828 
L 542.209418 190.705795 
L 543.659598 193.628652 
L 545.109777 196.950311 
L 546.559956 199.818446 
L 548.010136 201.679783 
L 549.460315 202.461941 
L 550.910494 202.170101 
L 552.360674 200.609593 
L 553.810853 197.798184 
L 556.711212 191.08633 
L 558.161391 188.520346 
L 559.61157 186.844716 
L 561.06175 186.203378 
L 562.511929 186.618006 
L 563.962108 187.874488 
L 565.412288 189.840485 
L 566.862467 192.891263 
L 568.312646 197.799452 
L 569.762826 205.16318 
L 571.213005 214.89449 
L 574.113363 236.130692 
L 575.563543 242.654037 
L 577.013722 243.731803 
L 578.463901 240.679066 
L 579.914081 238.109071 
L 581.36426 241.070213 
L 582.814439 251.126835 
L 584.264619 265.13704 
L 585.714798 277.854732 
L 587.164977 285.644399 
L 588.615157 287.976163 
L 590.065336 286.009995 
L 591.515515 280.763658 
L 592.965695 272.990215 
L 594.415874 263.671341 
L 595.866053 253.520066 
L 598.766412 230.702248 
L 600.216591 218.790216 
L 601.666771 208.07951 
L 603.11695 199.727003 
L 604.567129 194.255855 
L 606.017309 191.401328 
L 607.467488 190.50765 
L 608.917667 191.254097 
L 610.367847 194.094342 
L 611.818026 199.924158 
L 613.268205 208.960564 
L 614.718385 219.507542 
L 616.168564 227.92157 
L 617.618743 230.602958 
L 619.068923 226.92071 
L 620.519102 220.310505 
L 621.969281 215.832663 
L 623.41946 216.104881 
L 624.86964 219.554126 
L 626.319819 222.35287 
L 627.769998 221.562796 
L 629.220178 216.719017 
L 632.120536 202.308222 
L 633.570716 197.092821 
L 635.020895 194.316253 
L 636.471074 193.317907 
L 636.471074 193.317907 
" clip-path="url(#p1cac945ae5)" style="fill: none; stroke: #9467bd; stroke-width: 2; stroke-linecap: square"/>
   </g>
   <g id="line2d_28">
    <path d="M 405.892562 190.327854 
L 407.342741 191.980073 
L 408.792921 196.430167 
L 410.2431 204.886975 
L 411.693279 216.471676 
L 413.143459 226.909681 
L 414.593638 230.843906 
L 416.043817 226.658068 
L 417.493997 218.099384 
L 418.944176 210.382353 
L 420.394355 205.783716 
L 421.844535 203.402598 
L 423.294714 201.485684 
L 426.195073 196.621777 
L 427.645252 195.781446 
L 429.095431 198.538736 
L 430.54561 205.365568 
L 431.99579 213.859075 
L 433.445969 219.438296 
L 434.896148 218.583962 
L 436.346328 211.823054 
L 437.796507 203.042023 
L 439.246686 195.988592 
L 440.696866 191.945911 
L 442.147045 190.21391 
L 443.597224 189.647627 
L 445.047404 189.504866 
L 452.2983 189.472169 
L 474.05099 189.51108 
L 475.501169 189.669775 
L 476.951349 190.255246 
L 478.401528 191.889478 
L 479.851707 195.297714 
L 482.752066 205.786995 
L 484.202245 208.740279 
L 485.652425 207.936345 
L 487.102604 204.291452 
L 488.552783 199.840977 
L 490.002963 196.040118 
L 491.453142 193.441534 
L 492.903321 192.167902 
L 494.353501 192.04905 
L 498.704039 193.677015 
L 500.154218 194.782961 
L 501.604397 196.916373 
L 503.054577 199.621952 
L 504.504756 201.860481 
L 505.954935 203.263857 
L 507.405115 204.318978 
L 508.855294 204.946103 
L 510.305473 203.923298 
L 511.755653 200.628431 
L 513.205832 196.608876 
L 514.656011 194.39844 
L 516.106191 195.018912 
L 517.55637 197.132289 
L 519.006549 198.462277 
L 520.456729 197.797121 
L 521.906908 195.699212 
L 524.807266 190.893623 
L 526.257446 187.397172 
L 529.157804 178.060915 
L 530.607984 176.483064 
L 532.058163 178.581999 
L 536.408701 190.892119 
L 539.30906 197.839808 
L 540.759239 200.133799 
L 542.209418 200.482601 
L 543.659598 198.845548 
L 546.559956 193.372879 
L 548.010136 191.451863 
L 549.460315 190.512239 
L 550.910494 190.304333 
L 556.711212 190.802472 
L 558.161391 191.443919 
L 559.61157 192.42571 
L 561.06175 193.016311 
L 562.511929 192.373425 
L 565.412288 188.747402 
L 566.862467 188.090727 
L 568.312646 188.605323 
L 569.762826 189.437515 
L 571.213005 189.894245 
L 572.663184 189.906273 
L 575.563543 189.584587 
L 578.463901 189.481368 
L 597.316233 189.477498 
L 598.766412 189.506917 
L 600.216591 189.648632 
L 601.666771 190.170092 
L 603.11695 191.621924 
L 604.567129 194.629162 
L 607.467488 203.49033 
L 608.917667 205.356827 
L 610.367847 203.49033 
L 613.268205 194.629162 
L 614.718385 191.621924 
L 616.168564 190.170092 
L 617.618743 189.648632 
L 620.519102 189.473499 
L 623.41946 189.297179 
L 624.86964 188.728157 
L 626.319819 186.96694 
L 627.769998 182.769582 
L 629.220178 175.175838 
L 630.670357 165.05138 
L 632.120536 155.79106 
L 633.570716 151.245997 
L 635.020895 152.021745 
L 636.471074 154.474938 
L 636.471074 154.474938 
" clip-path="url(#p1cac945ae5)" style="fill: none; stroke: #1f77b4; stroke-width: 2; stroke-linecap: square"/>
   </g>
   <g id="line2d_29">
    <path d="M 405.892562 189.472169 
L 417.493997 189.443012 
L 418.944176 189.324097 
L 420.394355 188.886533 
L 421.844535 187.668283 
L 423.294714 185.144871 
L 426.195073 177.709353 
L 427.645252 176.143152 
L 429.095431 177.709353 
L 431.99579 185.144871 
L 433.445969 187.668283 
L 434.896148 188.886533 
L 436.346328 189.324097 
L 439.246686 189.467698 
L 460.999376 189.444094 
L 462.449556 189.325013 
L 463.899735 188.87579 
L 465.349914 187.56653 
L 466.800094 184.619095 
L 468.250273 179.497776 
L 471.150632 165.8265 
L 472.600811 161.36871 
L 474.05099 161.153558 
L 475.501169 165.457167 
L 478.401528 179.712449 
L 479.851707 184.82181 
L 481.301887 187.395749 
L 482.752066 188.029727 
L 484.202245 187.584742 
L 485.652425 186.834008 
L 487.102604 186.343024 
L 488.552783 186.205232 
L 490.002963 185.950066 
L 491.453142 184.969601 
L 492.903321 183.072437 
L 495.80368 177.979403 
L 497.253859 176.199993 
L 498.704039 176.263827 
L 500.154218 178.577391 
L 503.054577 185.658832 
L 504.504756 187.894829 
L 505.954935 188.957769 
L 507.405115 189.316219 
L 508.855294 189.307817 
L 510.305473 188.914926 
L 511.755653 187.755768 
L 513.205832 185.294146 
L 514.656011 181.426957 
L 516.106191 177.028321 
L 517.55637 173.60075 
L 519.006549 172.157604 
L 520.456729 172.756371 
L 521.906908 175.0561 
L 524.807266 182.312599 
L 526.257446 184.886996 
L 527.707625 185.260183 
L 529.157804 183.257245 
L 530.607984 179.549117 
L 532.058163 175.328074 
L 533.508342 171.852031 
L 534.958522 170.124807 
L 536.408701 170.86929 
L 537.85888 174.375631 
L 539.30906 180.024601 
L 540.759239 186.2211 
L 542.209418 191.387837 
L 543.659598 195.126815 
L 545.109777 198.001508 
L 546.559956 200.161376 
L 548.010136 200.834993 
L 549.460315 199.50145 
L 552.360674 194.358895 
L 553.810853 192.113822 
L 555.261032 189.474528 
L 558.161391 182.971094 
L 559.61157 181.399997 
L 561.06175 181.537972 
L 562.511929 182.049427 
L 563.962108 181.566224 
L 566.862467 178.757106 
L 568.312646 178.131196 
L 569.762826 177.80718 
L 572.663184 176.882654 
L 574.113363 176.124377 
L 575.563543 173.461532 
L 577.013722 167.840095 
L 578.463901 161.404828 
L 579.914081 158.768907 
L 581.36426 162.654191 
L 584.264619 179.644022 
L 585.714798 185.376591 
L 587.164977 188.140006 
L 588.615157 189.119528 
L 590.065336 189.318167 
L 591.515515 189.099033 
L 592.965695 188.274125 
L 594.415874 186.256413 
L 595.866053 182.256689 
L 597.316233 175.502314 
L 598.766412 165.434714 
L 600.216591 152.14186 
L 601.666771 137.204794 
L 603.11695 124.040778 
L 604.567129 116.340991 
L 606.017309 115.238255 
L 607.467488 118.201442 
L 610.367847 124.887477 
L 611.818026 130.693792 
L 613.268205 141.329119 
L 614.718385 154.916354 
L 616.168564 166.443121 
L 617.618743 171.999756 
L 619.068923 171.671039 
L 620.519102 168.936395 
L 621.969281 167.831894 
L 623.41946 170.319238 
L 624.86964 175.564024 
L 626.319819 181.261898 
L 627.769998 185.559942 
L 629.220178 187.978151 
L 630.670357 189.017837 
L 632.120536 189.362745 
L 635.020895 189.469319 
L 636.471074 189.472169 
L 636.471074 189.472169 
" clip-path="url(#p1cac945ae5)" style="fill: none; stroke: #d62728; stroke-width: 2; stroke-linecap: square"/>
   </g>
   <g id="line2d_30">
    <path d="M 405.892562 227.734031 
L 407.342741 227.90763 
L 408.792921 227.145811 
L 410.2431 223.529089 
L 411.693279 215.830707 
L 414.593638 195.026777 
L 416.043817 188.263523 
L 417.493997 185.765591 
L 418.944176 186.196566 
L 421.844535 189.229224 
L 423.294714 191.259726 
L 424.744893 195.131339 
L 426.195073 202.236811 
L 429.095431 223.34552 
L 430.54561 231.06519 
L 431.99579 234.438156 
L 433.445969 236.811292 
L 434.896148 243.407358 
L 436.346328 256.454573 
L 439.246686 290.516523 
L 440.696866 303.357046 
L 442.147045 309.768476 
L 443.597224 309.149815 
L 445.047404 303.216655 
L 446.497583 295.332098 
L 447.947762 288.27303 
L 449.397942 282.642442 
L 450.848121 277.779835 
L 452.2983 273.630872 
L 453.74848 270.766082 
L 456.648838 267.131987 
L 458.099018 264.635047 
L 463.899735 253.35558 
L 465.349914 251.806538 
L 466.800094 251.117383 
L 468.250273 249.518744 
L 469.700452 245.238107 
L 471.150632 238.164205 
L 472.600811 229.969531 
L 474.05099 223.271181 
L 475.501169 220.359521 
L 476.951349 221.485773 
L 478.401528 224.192522 
L 479.851707 225.261677 
L 481.301887 223.536595 
L 484.202245 217.271331 
L 485.652425 215.143176 
L 487.102604 214.368294 
L 488.552783 215.577887 
L 490.002963 218.434751 
L 491.453142 220.77642 
L 492.903321 220.062475 
L 494.353501 215.76832 
L 495.80368 210.029279 
L 497.253859 206.019243 
L 498.704039 205.577643 
L 500.154218 207.770825 
L 501.604397 209.493514 
L 503.054577 208.049316 
L 504.504756 203.418207 
L 505.954935 197.871468 
L 507.405115 193.728843 
L 508.855294 191.935414 
L 510.305473 192.31203 
L 511.755653 194.147238 
L 513.205832 196.302391 
L 514.656011 197.424733 
L 516.106191 196.760345 
L 519.006549 192.691539 
L 520.456729 191.595758 
L 521.906908 191.868665 
L 523.357087 193.212847 
L 524.807266 194.758557 
L 526.257446 195.449072 
L 527.707625 194.812455 
L 529.157804 193.417543 
L 530.607984 192.432036 
L 532.058163 192.740416 
L 533.508342 194.333955 
L 534.958522 196.231467 
L 536.408701 197.069517 
L 537.85888 196.167306 
L 540.759239 191.925285 
L 542.209418 190.452117 
L 543.659598 189.621575 
L 545.109777 188.98811 
L 546.559956 188.116842 
L 550.910494 184.446016 
L 553.810853 183.159677 
L 555.261032 182.621496 
L 556.711212 182.682275 
L 558.161391 183.795974 
L 561.06175 187.442487 
L 562.511929 188.628484 
L 563.962108 189.19872 
L 565.412288 189.403031 
L 569.762826 189.476539 
L 572.663184 189.616882 
L 574.113363 190.044518 
L 575.563543 191.235128 
L 577.013722 193.701288 
L 579.914081 200.968107 
L 581.36426 202.498773 
L 582.814439 200.968107 
L 585.714798 193.701288 
L 587.164977 191.235128 
L 588.615157 190.044518 
L 590.065336 189.616882 
L 592.965695 189.476539 
L 630.670357 189.472169 
L 636.471074 189.472169 
L 636.471074 189.472169 
" clip-path="url(#p1cac945ae5)" style="fill: none; stroke: #ff7f0e; stroke-width: 2; stroke-linecap: square"/>
   </g>
   <g id="LineCollection_1">
    <path d="M 521.877904 298.933559 
L 521.877904 123.392376 
" clip-path="url(#p1cac945ae5)" style="fill: none; stroke-dasharray: 7.4,3.2; stroke-dashoffset: 0; stroke: #000000; stroke-width: 2"/>
    <path d="M 536.379697 298.933559 
L 536.379697 123.392376 
" clip-path="url(#p1cac945ae5)" style="fill: none; stroke-dasharray: 7.4,3.2; stroke-dashoffset: 0; stroke: #000000; stroke-width: 2"/>
    <path d="M 565.383284 298.933559 
L 565.383284 123.392376 
" clip-path="url(#p1cac945ae5)" style="fill: none; stroke-dasharray: 7.4,3.2; stroke-dashoffset: 0; stroke: #000000; stroke-width: 2"/>
    <path d="M 623.390457 298.933559 
L 623.390457 123.392376 
" clip-path="url(#p1cac945ae5)" style="fill: none; stroke-dasharray: 7.4,3.2; stroke-dashoffset: 0; stroke: #000000; stroke-width: 2"/>
   </g>
   <g id="patch_8">
    <path d="M 394.363636 333.490909 
L 394.363636 86.4 
" style="fill: none; stroke: #000000; stroke-width: 0.8; stroke-linejoin: miter; stroke-linecap: square"/>
   </g>
   <g id="patch_9">
    <path d="M 648 333.490909 
L 648 86.4 
" style="fill: none; stroke: #000000; stroke-width: 0.8; stroke-linejoin: miter; stroke-linecap: square"/>
   </g>
   <g id="patch_10">
    <path d="M 394.363636 333.490909 
L 648 333.490909 
" style="fill: none; stroke: #000000; stroke-width: 0.8; stroke-linejoin: miter; stroke-linecap: square"/>
   </g>
   <g id="patch_11">
    <path d="M 394.363636 86.4 
L 648 86.4 
" style="fill: none; stroke: #000000; stroke-width: 0.8; stroke-linejoin: miter; stroke-linecap: square"/>
   </g>
   <g id="text_27">
    <!-- unit_100 -->
    <g transform="translate(495.105256 80.4)scale(0.12 -0.12)">
     <defs>
      <path id="DejaVuSans-75" d="M 544 1381 
L 544 3500 
L 1119 3500 
L 1119 1403 
Q 1119 906 1312 657 
Q 1506 409 1894 409 
Q 2359 409 2629 706 
Q 2900 1003 2900 1516 
L 2900 3500 
L 3475 3500 
L 3475 0 
L 2900 0 
L 2900 538 
Q 2691 219 2414 64 
Q 2138 -91 1772 -91 
Q 1169 -91 856 284 
Q 544 659 544 1381 
z
M 1991 3584 
L 1991 3584 
z
" transform="scale(0.015625)"/>
      <path id="DejaVuSans-6e" d="M 3513 2113 
L 3513 0 
L 2938 0 
L 2938 2094 
Q 2938 2591 2744 2837 
Q 2550 3084 2163 3084 
Q 1697 3084 1428 2787 
Q 1159 2491 1159 1978 
L 1159 0 
L 581 0 
L 581 3500 
L 1159 3500 
L 1159 2956 
Q 1366 3272 1645 3428 
Q 1925 3584 2291 3584 
Q 2894 3584 3203 3211 
Q 3513 2838 3513 2113 
z
" transform="scale(0.015625)"/>
      <path id="DejaVuSans-69" d="M 603 3500 
L 1178 3500 
L 1178 0 
L 603 0 
L 603 3500 
z
M 603 4863 
L 1178 4863 
L 1178 4134 
L 603 4134 
L 603 4863 
z
" transform="scale(0.015625)"/>
      <path id="DejaVuSans-74" d="M 1172 4494 
L 1172 3500 
L 2356 3500 
L 2356 3053 
L 1172 3053 
L 1172 1153 
Q 1172 725 1289 603 
Q 1406 481 1766 481 
L 2356 481 
L 2356 0 
L 1766 0 
Q 1100 0 847 248 
Q 594 497 594 1153 
L 594 3053 
L 172 3053 
L 172 3500 
L 594 3500 
L 594 4494 
L 1172 4494 
z
" transform="scale(0.015625)"/>
      <path id="DejaVuSans-5f" d="M 3263 -1063 
L 3263 -1509 
L -63 -1509 
L -63 -1063 
L 3263 -1063 
z
" transform="scale(0.015625)"/>
     </defs>
     <use xlink:href="#DejaVuSans-75"/>
     <use xlink:href="#DejaVuSans-6e" x="63.378906"/>
     <use xlink:href="#DejaVuSans-69" x="126.757812"/>
     <use xlink:href="#DejaVuSans-74" x="154.541016"/>
     <use xlink:href="#DejaVuSans-5f" x="193.75"/>
     <use xlink:href="#DejaVuSans-31" x="243.75"/>
     <use xlink:href="#DejaVuSans-30" x="307.373047"/>
     <use xlink:href="#DejaVuSans-30" x="370.996094"/>
    </g>
   </g>
  </g>
  <g id="axes_3">
   <g id="patch_12">
    <path d="M 90 630 
L 343.636364 630 
L 343.636364 382.909091 
L 90 382.909091 
z
" style="fill: #ffffff"/>
   </g>
   <g id="matplotlib.axis_5">
    <g id="xtick_12">
     <g id="line2d_31">
      <g>
       <use xlink:href="#m65c5043e77" x="90" y="630" style="stroke: #000000; stroke-width: 0.8"/>
      </g>
     </g>
     <g id="text_28">
      <!-- 0.0 -->
      <g transform="translate(82.048438 644.598437)scale(0.1 -0.1)">
       <use xlink:href="#DejaVuSans-30"/>
       <use xlink:href="#DejaVuSans-2e" x="63.623047"/>
       <use xlink:href="#DejaVuSans-30" x="95.410156"/>
      </g>
     </g>
    </g>
    <g id="xtick_13">
     <g id="line2d_32">
      <g>
       <use xlink:href="#m65c5043e77" x="140.727273" y="630" style="stroke: #000000; stroke-width: 0.8"/>
      </g>
     </g>
     <g id="text_29">
      <!-- 0.2 -->
      <g transform="translate(132.77571 644.598437)scale(0.1 -0.1)">
       <use xlink:href="#DejaVuSans-30"/>
       <use xlink:href="#DejaVuSans-2e" x="63.623047"/>
       <use xlink:href="#DejaVuSans-32" x="95.410156"/>
      </g>
     </g>
    </g>
    <g id="xtick_14">
     <g id="line2d_33">
      <g>
       <use xlink:href="#m65c5043e77" x="191.454545" y="630" style="stroke: #000000; stroke-width: 0.8"/>
      </g>
     </g>
     <g id="text_30">
      <!-- 0.4 -->
      <g transform="translate(183.502983 644.598437)scale(0.1 -0.1)">
       <use xlink:href="#DejaVuSans-30"/>
       <use xlink:href="#DejaVuSans-2e" x="63.623047"/>
       <use xlink:href="#DejaVuSans-34" x="95.410156"/>
      </g>
     </g>
    </g>
    <g id="xtick_15">
     <g id="line2d_34">
      <g>
       <use xlink:href="#m65c5043e77" x="242.181818" y="630" style="stroke: #000000; stroke-width: 0.8"/>
      </g>
     </g>
     <g id="text_31">
      <!-- 0.6 -->
      <g transform="translate(234.230256 644.598437)scale(0.1 -0.1)">
       <use xlink:href="#DejaVuSans-30"/>
       <use xlink:href="#DejaVuSans-2e" x="63.623047"/>
       <use xlink:href="#DejaVuSans-36" x="95.410156"/>
      </g>
     </g>
    </g>
    <g id="xtick_16">
     <g id="line2d_35">
      <g>
       <use xlink:href="#m65c5043e77" x="292.909091" y="630" style="stroke: #000000; stroke-width: 0.8"/>
      </g>
     </g>
     <g id="text_32">
      <!-- 0.8 -->
      <g transform="translate(284.957528 644.598437)scale(0.1 -0.1)">
       <use xlink:href="#DejaVuSans-30"/>
       <use xlink:href="#DejaVuSans-2e" x="63.623047"/>
       <use xlink:href="#DejaVuSans-38" x="95.410156"/>
      </g>
     </g>
    </g>
    <g id="xtick_17">
     <g id="line2d_36">
      <g>
       <use xlink:href="#m65c5043e77" x="343.636364" y="630" style="stroke: #000000; stroke-width: 0.8"/>
      </g>
     </g>
     <g id="text_33">
      <!-- 1.0 -->
      <g transform="translate(335.684801 644.598437)scale(0.1 -0.1)">
       <use xlink:href="#DejaVuSans-31"/>
       <use xlink:href="#DejaVuSans-2e" x="63.623047"/>
       <use xlink:href="#DejaVuSans-30" x="95.410156"/>
      </g>
     </g>
    </g>
   </g>
   <g id="matplotlib.axis_6">
    <g id="ytick_16">
     <g id="line2d_37">
      <g>
       <use xlink:href="#m757bc1d068" x="90" y="630" style="stroke: #000000; stroke-width: 0.8"/>
      </g>
     </g>
     <g id="text_34">
      <!-- 0.0 -->
      <g transform="translate(67.096875 633.799219)scale(0.1 -0.1)">
       <use xlink:href="#DejaVuSans-30"/>
       <use xlink:href="#DejaVuSans-2e" x="63.623047"/>
       <use xlink:href="#DejaVuSans-30" x="95.410156"/>
      </g>
     </g>
    </g>
    <g id="ytick_17">
     <g id="line2d_38">
      <g>
       <use xlink:href="#m757bc1d068" x="90" y="580.581818" style="stroke: #000000; stroke-width: 0.8"/>
      </g>
     </g>
     <g id="text_35">
      <!-- 0.2 -->
      <g transform="translate(67.096875 584.381037)scale(0.1 -0.1)">
       <use xlink:href="#DejaVuSans-30"/>
       <use xlink:href="#DejaVuSans-2e" x="63.623047"/>
       <use xlink:href="#DejaVuSans-32" x="95.410156"/>
      </g>
     </g>
    </g>
    <g id="ytick_18">
     <g id="line2d_39">
      <g>
       <use xlink:href="#m757bc1d068" x="90" y="531.163636" style="stroke: #000000; stroke-width: 0.8"/>
      </g>
     </g>
     <g id="text_36">
      <!-- 0.4 -->
      <g transform="translate(67.096875 534.962855)scale(0.1 -0.1)">
       <use xlink:href="#DejaVuSans-30"/>
       <use xlink:href="#DejaVuSans-2e" x="63.623047"/>
       <use xlink:href="#DejaVuSans-34" x="95.410156"/>
      </g>
     </g>
    </g>
    <g id="ytick_19">
     <g id="line2d_40">
      <g>
       <use xlink:href="#m757bc1d068" x="90" y="481.745455" style="stroke: #000000; stroke-width: 0.8"/>
      </g>
     </g>
     <g id="text_37">
      <!-- 0.6 -->
      <g transform="translate(67.096875 485.544673)scale(0.1 -0.1)">
       <use xlink:href="#DejaVuSans-30"/>
       <use xlink:href="#DejaVuSans-2e" x="63.623047"/>
       <use xlink:href="#DejaVuSans-36" x="95.410156"/>
      </g>
     </g>
    </g>
    <g id="ytick_20">
     <g id="line2d_41">
      <g>
       <use xlink:href="#m757bc1d068" x="90" y="432.327273" style="stroke: #000000; stroke-width: 0.8"/>
      </g>
     </g>
     <g id="text_38">
      <!-- 0.8 -->
      <g transform="translate(67.096875 436.126491)scale(0.1 -0.1)">
       <use xlink:href="#DejaVuSans-30"/>
       <use xlink:href="#DejaVuSans-2e" x="63.623047"/>
       <use xlink:href="#DejaVuSans-38" x="95.410156"/>
      </g>
     </g>
    </g>
    <g id="ytick_21">
     <g id="line2d_42">
      <g>
       <use xlink:href="#m757bc1d068" x="90" y="382.909091" style="stroke: #000000; stroke-width: 0.8"/>
      </g>
     </g>
     <g id="text_39">
      <!-- 1.0 -->
      <g transform="translate(67.096875 386.70831)scale(0.1 -0.1)">
       <use xlink:href="#DejaVuSans-31"/>
       <use xlink:href="#DejaVuSans-2e" x="63.623047"/>
       <use xlink:href="#DejaVuSans-30" x="95.410156"/>
      </g>
     </g>
    </g>
   </g>
   <g id="patch_13">
    <path d="M 90 630 
L 90 382.909091 
" style="fill: none; stroke: #000000; stroke-width: 0.8; stroke-linejoin: miter; stroke-linecap: square"/>
   </g>
   <g id="patch_14">
    <path d="M 343.636364 630 
L 343.636364 382.909091 
" style="fill: none; stroke: #000000; stroke-width: 0.8; stroke-linejoin: miter; stroke-linecap: square"/>
   </g>
   <g id="patch_15">
    <path d="M 90 630 
L 343.636364 630 
" style="fill: none; stroke: #000000; stroke-width: 0.8; stroke-linejoin: miter; stroke-linecap: square"/>
   </g>
   <g id="patch_16">
    <path d="M 90 382.909091 
L 343.636364 382.909091 
" style="fill: none; stroke: #000000; stroke-width: 0.8; stroke-linejoin: miter; stroke-linecap: square"/>
   </g>
  </g>
  <g id="axes_4">
   <g id="patch_17">
    <path d="M 394.363636 630 
L 648 630 
L 648 382.909091 
L 394.363636 382.909091 
z
" style="fill: #ffffff"/>
   </g>
   <g id="matplotlib.axis_7">
    <g id="xtick_18">
     <g id="line2d_43">
      <g>
       <use xlink:href="#m65c5043e77" x="405.863558" y="630" style="stroke: #000000; stroke-width: 0.8"/>
      </g>
     </g>
     <g id="text_40">
      <!-- 0 -->
      <g transform="translate(402.682308 644.598437)scale(0.1 -0.1)">
       <use xlink:href="#DejaVuSans-30"/>
      </g>
     </g>
    </g>
    <g id="xtick_19">
     <g id="line2d_44">
      <g>
       <use xlink:href="#m65c5043e77" x="463.870731" y="630" style="stroke: #000000; stroke-width: 0.8"/>
      </g>
     </g>
     <g id="text_41">
      <!-- 2000 -->
      <g transform="translate(451.145731 644.598437)scale(0.1 -0.1)">
       <use xlink:href="#DejaVuSans-32"/>
       <use xlink:href="#DejaVuSans-30" x="63.623047"/>
       <use xlink:href="#DejaVuSans-30" x="127.246094"/>
       <use xlink:href="#DejaVuSans-30" x="190.869141"/>
      </g>
     </g>
    </g>
    <g id="xtick_20">
     <g id="line2d_45">
      <g>
       <use xlink:href="#m65c5043e77" x="521.877904" y="630" style="stroke: #000000; stroke-width: 0.8"/>
      </g>
     </g>
     <g id="text_42">
      <!-- 4000 -->
      <g transform="translate(509.152904 644.598437)scale(0.1 -0.1)">
       <use xlink:href="#DejaVuSans-34"/>
       <use xlink:href="#DejaVuSans-30" x="63.623047"/>
       <use xlink:href="#DejaVuSans-30" x="127.246094"/>
       <use xlink:href="#DejaVuSans-30" x="190.869141"/>
      </g>
     </g>
    </g>
    <g id="xtick_21">
     <g id="line2d_46">
      <g>
       <use xlink:href="#m65c5043e77" x="579.885077" y="630" style="stroke: #000000; stroke-width: 0.8"/>
      </g>
     </g>
     <g id="text_43">
      <!-- 6000 -->
      <g transform="translate(567.160077 644.598437)scale(0.1 -0.1)">
       <use xlink:href="#DejaVuSans-36"/>
       <use xlink:href="#DejaVuSans-30" x="63.623047"/>
       <use xlink:href="#DejaVuSans-30" x="127.246094"/>
       <use xlink:href="#DejaVuSans-30" x="190.869141"/>
      </g>
     </g>
    </g>
    <g id="xtick_22">
     <g id="line2d_47">
      <g>
       <use xlink:href="#m65c5043e77" x="637.89225" y="630" style="stroke: #000000; stroke-width: 0.8"/>
      </g>
     </g>
     <g id="text_44">
      <!-- 8000 -->
      <g transform="translate(625.16725 644.598437)scale(0.1 -0.1)">
       <use xlink:href="#DejaVuSans-38"/>
       <use xlink:href="#DejaVuSans-30" x="63.623047"/>
       <use xlink:href="#DejaVuSans-30" x="127.246094"/>
       <use xlink:href="#DejaVuSans-30" x="190.869141"/>
      </g>
     </g>
    </g>
   </g>
   <g id="matplotlib.axis_8">
    <g id="ytick_22">
     <g id="line2d_48">
      <g>
       <use xlink:href="#m757bc1d068" x="394.363636" y="630" style="stroke: #000000; stroke-width: 0.8"/>
      </g>
     </g>
     <g id="text_45">
      <!-- −2 -->
      <g transform="translate(372.621449 633.799219)scale(0.1 -0.1)">
       <use xlink:href="#DejaVuSans-2212"/>
       <use xlink:href="#DejaVuSans-32" x="83.789062"/>
      </g>
     </g>
    </g>
    <g id="ytick_23">
     <g id="line2d_49">
      <g>
       <use xlink:href="#m757bc1d068" x="394.363636" y="581.637868" style="stroke: #000000; stroke-width: 0.8"/>
      </g>
     </g>
     <g id="text_46">
      <!-- 0 -->
      <g transform="translate(381.001136 585.437086)scale(0.1 -0.1)">
       <use xlink:href="#DejaVuSans-30"/>
      </g>
     </g>
    </g>
    <g id="ytick_24">
     <g id="line2d_50">
      <g>
       <use xlink:href="#m757bc1d068" x="394.363636" y="533.275735" style="stroke: #000000; stroke-width: 0.8"/>
      </g>
     </g>
     <g id="text_47">
      <!-- 2 -->
      <g transform="translate(381.001136 537.074954)scale(0.1 -0.1)">
       <use xlink:href="#DejaVuSans-32"/>
      </g>
     </g>
    </g>
    <g id="ytick_25">
     <g id="line2d_51">
      <g>
       <use xlink:href="#m757bc1d068" x="394.363636" y="484.913603" style="stroke: #000000; stroke-width: 0.8"/>
      </g>
     </g>
     <g id="text_48">
      <!-- 4 -->
      <g transform="translate(381.001136 488.712822)scale(0.1 -0.1)">
       <use xlink:href="#DejaVuSans-34"/>
      </g>
     </g>
    </g>
    <g id="ytick_26">
     <g id="line2d_52">
      <g>
       <use xlink:href="#m757bc1d068" x="394.363636" y="436.551471" style="stroke: #000000; stroke-width: 0.8"/>
      </g>
     </g>
     <g id="text_49">
      <!-- 6 -->
      <g transform="translate(381.001136 440.350689)scale(0.1 -0.1)">
       <use xlink:href="#DejaVuSans-36"/>
      </g>
     </g>
    </g>
    <g id="ytick_27">
     <g id="line2d_53">
      <g>
       <use xlink:href="#m757bc1d068" x="394.363636" y="388.189338" style="stroke: #000000; stroke-width: 0.8"/>
      </g>
     </g>
     <g id="text_50">
      <!-- 8 -->
      <g transform="translate(381.001136 391.988557)scale(0.1 -0.1)">
       <use xlink:href="#DejaVuSans-38"/>
      </g>
     </g>
    </g>
   </g>
   <g id="line2d_54">
    <path d="M 405.892562 608.973219 
L 407.342741 623.423865 
L 408.792921 607.487309 
L 410.2431 568.317031 
L 411.693279 544.358717 
L 413.143459 484.208384 
L 414.593638 437.658881 
L 416.043817 520.204388 
L 417.493997 616.1281 
L 418.944176 645.427925 
L 420.394355 653.741037 
L 421.844535 641.911764 
L 424.744893 592.911687 
L 426.195073 629.752275 
L 427.645252 676.928416 
L 429.095431 613.739081 
L 430.54561 506.505887 
L 431.99579 473.380929 
L 433.445969 517.405386 
L 434.896148 652.816127 
L 435.93588 721 
M 436.961727 721 
L 437.796507 684.488098 
L 439.246686 684.784071 
L 439.761666 721 
M 459.981569 721 
L 460.999376 700.070799 
L 461.560502 721 
M 462.90127 721 
L 463.899735 647.702497 
L 465.349914 485.551017 
L 466.800094 418.608416 
L 468.250273 488.062588 
L 469.700452 620.673331 
L 471.150632 524.149459 
L 472.600811 388.299816 
L 474.05099 495.648314 
L 475.501169 584.346928 
L 478.401528 407.750097 
L 479.851707 456.989722 
L 481.301887 624.895846 
L 482.752066 647.792006 
L 484.202245 496.703069 
L 485.652425 441.245565 
L 487.102604 526.233886 
L 488.552783 601.161023 
L 490.002963 612.929742 
L 491.453142 561.09546 
L 492.903321 523.950441 
L 494.353501 544.175373 
L 495.80368 572.852357 
L 497.253859 638.028083 
L 498.704039 682.939213 
L 500.154218 585.91652 
L 501.604397 464.488992 
L 503.054577 451.034113 
L 504.504756 494.205873 
L 505.954935 524.230658 
L 507.405115 476.35688 
L 508.855294 421.002541 
L 510.305473 472.28491 
L 511.755653 514.761007 
L 513.205832 491.179342 
L 514.656011 486.419995 
L 516.106191 615.103707 
L 517.165467 721 
M 519.246469 721 
L 520.456729 598.606073 
L 521.906908 488.699014 
L 523.357087 540.648628 
L 524.807266 695.414904 
L 525.21554 721 
M 527.869238 721 
L 529.157804 626.103819 
L 530.607984 570.072592 
L 532.058163 576.593824 
L 533.508342 591.592057 
L 534.958522 581.282632 
L 536.408701 652.313644 
L 537.493866 721 
M 538.28408 721 
L 539.30906 665.306099 
L 540.759239 562.210779 
L 542.209418 544.085257 
L 543.659598 569.662311 
L 545.109777 610.60824 
L 546.559956 671.975338 
L 547.593675 721 
M 550.047812 721 
L 552.360674 600.207578 
L 553.810853 583.848114 
L 555.261032 593.965497 
L 556.711212 587.013655 
L 558.161391 570.106694 
L 559.61157 575.263852 
L 561.06175 581.219363 
L 562.511929 594.264558 
L 563.962108 653.781035 
L 565.148109 721 
M 567.147331 721 
L 568.312646 669.684504 
L 569.762826 696.709275 
L 570.10171 721 
M 598.310769 721 
L 598.766412 647.03001 
L 600.216591 707.361004 
L 600.377452 721 
M 603.99134 721 
L 604.567129 664.21697 
L 606.017309 576.323121 
L 607.467488 510.936955 
L 608.917667 505.829288 
L 610.367847 588.744257 
L 611.818026 615.225891 
L 613.268205 495.578489 
L 614.718385 423.058716 
L 616.168564 425.908689 
L 617.618743 408.75163 
L 619.068923 382.909091 
L 620.519102 432.521549 
L 621.969281 533.545574 
L 623.41946 563.811615 
L 624.86964 513.586163 
L 626.319819 441.355636 
L 627.769998 392.344083 
L 629.220178 476.961678 
L 630.670357 684.65455 
L 631.05373 721 
M 633.898826 721 
L 635.020895 666.266354 
L 636.471074 672.102317 
L 636.471074 672.102317 
" clip-path="url(#pded194eb00)" style="fill: none; stroke: #1f77b4; stroke-width: 1.5; stroke-linecap: square"/>
   </g>
   <g id="patch_18">
    <path d="M 394.363636 630 
L 394.363636 382.909091 
" style="fill: none; stroke: #000000; stroke-width: 0.8; stroke-linejoin: miter; stroke-linecap: square"/>
   </g>
   <g id="patch_19">
    <path d="M 648 630 
L 648 382.909091 
" style="fill: none; stroke: #000000; stroke-width: 0.8; stroke-linejoin: miter; stroke-linecap: square"/>
   </g>
   <g id="patch_20">
    <path d="M 394.363636 630 
L 648 630 
" style="fill: none; stroke: #000000; stroke-width: 0.8; stroke-linejoin: miter; stroke-linecap: square"/>
   </g>
   <g id="patch_21">
    <path d="M 394.363636 382.909091 
L 648 382.909091 
" style="fill: none; stroke: #000000; stroke-width: 0.8; stroke-linejoin: miter; stroke-linecap: square"/>
   </g>
   <g id="text_51">
    <!-- explained variance -->
    <g transform="translate(464.181818 376.909091)scale(0.12 -0.12)">
     <defs>
      <path id="DejaVuSans-65" d="M 3597 1894 
L 3597 1613 
L 953 1613 
Q 991 1019 1311 708 
Q 1631 397 2203 397 
Q 2534 397 2845 478 
Q 3156 559 3463 722 
L 3463 178 
Q 3153 47 2828 -22 
Q 2503 -91 2169 -91 
Q 1331 -91 842 396 
Q 353 884 353 1716 
Q 353 2575 817 3079 
Q 1281 3584 2069 3584 
Q 2775 3584 3186 3129 
Q 3597 2675 3597 1894 
z
M 3022 2063 
Q 3016 2534 2758 2815 
Q 2500 3097 2075 3097 
Q 1594 3097 1305 2825 
Q 1016 2553 972 2059 
L 3022 2063 
z
" transform="scale(0.015625)"/>
      <path id="DejaVuSans-78" d="M 3513 3500 
L 2247 1797 
L 3578 0 
L 2900 0 
L 1881 1375 
L 863 0 
L 184 0 
L 1544 1831 
L 300 3500 
L 978 3500 
L 1906 2253 
L 2834 3500 
L 3513 3500 
z
" transform="scale(0.015625)"/>
      <path id="DejaVuSans-70" d="M 1159 525 
L 1159 -1331 
L 581 -1331 
L 581 3500 
L 1159 3500 
L 1159 2969 
Q 1341 3281 1617 3432 
Q 1894 3584 2278 3584 
Q 2916 3584 3314 3078 
Q 3713 2572 3713 1747 
Q 3713 922 3314 415 
Q 2916 -91 2278 -91 
Q 1894 -91 1617 61 
Q 1341 213 1159 525 
z
M 3116 1747 
Q 3116 2381 2855 2742 
Q 2594 3103 2138 3103 
Q 1681 3103 1420 2742 
Q 1159 2381 1159 1747 
Q 1159 1113 1420 752 
Q 1681 391 2138 391 
Q 2594 391 2855 752 
Q 3116 1113 3116 1747 
z
" transform="scale(0.015625)"/>
      <path id="DejaVuSans-6c" d="M 603 4863 
L 1178 4863 
L 1178 0 
L 603 0 
L 603 4863 
z
" transform="scale(0.015625)"/>
      <path id="DejaVuSans-61" d="M 2194 1759 
Q 1497 1759 1228 1600 
Q 959 1441 959 1056 
Q 959 750 1161 570 
Q 1363 391 1709 391 
Q 2188 391 2477 730 
Q 2766 1069 2766 1631 
L 2766 1759 
L 2194 1759 
z
M 3341 1997 
L 3341 0 
L 2766 0 
L 2766 531 
Q 2569 213 2275 61 
Q 1981 -91 1556 -91 
Q 1019 -91 701 211 
Q 384 513 384 1019 
Q 384 1609 779 1909 
Q 1175 2209 1959 2209 
L 2766 2209 
L 2766 2266 
Q 2766 2663 2505 2880 
Q 2244 3097 1772 3097 
Q 1472 3097 1187 3025 
Q 903 2953 641 2809 
L 641 3341 
Q 956 3463 1253 3523 
Q 1550 3584 1831 3584 
Q 2591 3584 2966 3190 
Q 3341 2797 3341 1997 
z
" transform="scale(0.015625)"/>
      <path id="DejaVuSans-64" d="M 2906 2969 
L 2906 4863 
L 3481 4863 
L 3481 0 
L 2906 0 
L 2906 525 
Q 2725 213 2448 61 
Q 2172 -91 1784 -91 
Q 1150 -91 751 415 
Q 353 922 353 1747 
Q 353 2572 751 3078 
Q 1150 3584 1784 3584 
Q 2172 3584 2448 3432 
Q 2725 3281 2906 2969 
z
M 947 1747 
Q 947 1113 1208 752 
Q 1469 391 1925 391 
Q 2381 391 2643 752 
Q 2906 1113 2906 1747 
Q 2906 2381 2643 2742 
Q 2381 3103 1925 3103 
Q 1469 3103 1208 2742 
Q 947 2381 947 1747 
z
" transform="scale(0.015625)"/>
      <path id="DejaVuSans-20" transform="scale(0.015625)"/>
      <path id="DejaVuSans-76" d="M 191 3500 
L 800 3500 
L 1894 563 
L 2988 3500 
L 3597 3500 
L 2284 0 
L 1503 0 
L 191 3500 
z
" transform="scale(0.015625)"/>
      <path id="DejaVuSans-72" d="M 2631 2963 
Q 2534 3019 2420 3045 
Q 2306 3072 2169 3072 
Q 1681 3072 1420 2755 
Q 1159 2438 1159 1844 
L 1159 0 
L 581 0 
L 581 3500 
L 1159 3500 
L 1159 2956 
Q 1341 3275 1631 3429 
Q 1922 3584 2338 3584 
Q 2397 3584 2469 3576 
Q 2541 3569 2628 3553 
L 2631 2963 
z
" transform="scale(0.015625)"/>
      <path id="DejaVuSans-63" d="M 3122 3366 
L 3122 2828 
Q 2878 2963 2633 3030 
Q 2388 3097 2138 3097 
Q 1578 3097 1268 2742 
Q 959 2388 959 1747 
Q 959 1106 1268 751 
Q 1578 397 2138 397 
Q 2388 397 2633 464 
Q 2878 531 3122 666 
L 3122 134 
Q 2881 22 2623 -34 
Q 2366 -91 2075 -91 
Q 1284 -91 818 406 
Q 353 903 353 1747 
Q 353 2603 823 3093 
Q 1294 3584 2113 3584 
Q 2378 3584 2631 3529 
Q 2884 3475 3122 3366 
z
" transform="scale(0.015625)"/>
     </defs>
     <use xlink:href="#DejaVuSans-65"/>
     <use xlink:href="#DejaVuSans-78" x="59.773438"/>
     <use xlink:href="#DejaVuSans-70" x="118.953125"/>
     <use xlink:href="#DejaVuSans-6c" x="182.429688"/>
     <use xlink:href="#DejaVuSans-61" x="210.212891"/>
     <use xlink:href="#DejaVuSans-69" x="271.492188"/>
     <use xlink:href="#DejaVuSans-6e" x="299.275391"/>
     <use xlink:href="#DejaVuSans-65" x="362.654297"/>
     <use xlink:href="#DejaVuSans-64" x="424.177734"/>
     <use xlink:href="#DejaVuSans-20" x="487.654297"/>
     <use xlink:href="#DejaVuSans-76" x="519.441406"/>
     <use xlink:href="#DejaVuSans-61" x="578.621094"/>
     <use xlink:href="#DejaVuSans-72" x="639.900391"/>
     <use xlink:href="#DejaVuSans-69" x="681.013672"/>
     <use xlink:href="#DejaVuSans-61" x="708.796875"/>
     <use xlink:href="#DejaVuSans-6e" x="770.076172"/>
     <use xlink:href="#DejaVuSans-63" x="833.455078"/>
     <use xlink:href="#DejaVuSans-65" x="888.435547"/>
    </g>
   </g>
  </g>
 </g>
 <defs>
  <clipPath id="p1cac945ae5">
   <rect x="394.363636" y="86.4" width="253.636364" height="247.090909"/>
  </clipPath>
  <clipPath id="pded194eb00">
   <rect x="394.363636" y="382.909091" width="253.636364" height="247.090909"/>
  </clipPath>
 </defs>
</svg>
