<?xml version="1.0" encoding="utf-8" standalone="no"?>
<!DOCTYPE svg PUBLIC "-//W3C//DTD SVG 1.1//EN"
  "http://www.w3.org/Graphics/SVG/1.1/DTD/svg11.dtd">
<svg xmlns:xlink="http://www.w3.org/1999/xlink" width="720pt" height="720pt" viewBox="0 0 720 720" xmlns="http://www.w3.org/2000/svg" version="1.1">
 <metadata>
  <rdf:RDF xmlns:dc="http://purl.org/dc/elements/1.1/" xmlns:cc="http://creativecommons.org/ns#" xmlns:rdf="http://www.w3.org/1999/02/22-rdf-syntax-ns#">
   <cc:Work>
    <dc:type rdf:resource="http://purl.org/dc/dcmitype/StillImage"/>
    <dc:date>2023-12-19T18:14:01.409745</dc:date>
    <dc:format>image/svg+xml</dc:format>
    <dc:creator>
     <cc:Agent>
      <dc:title>Matplotlib v3.5.2, https://matplotlib.org/</dc:title>
     </cc:Agent>
    </dc:creator>
   </cc:Work>
  </rdf:RDF>
 </metadata>
 <defs>
  <style type="text/css">*{stroke-linejoin: round; stroke-linecap: butt}</style>
 </defs>
 <g id="figure_1">
  <g id="patch_1">
   <path d="M 0 720 
L 720 720 
L 720 0 
L 0 0 
z
" style="fill: #ffffff"/>
  </g>
  <g id="axes_1">
   <g id="patch_2">
    <path d="M 90 333.490909 
L 343.636364 333.490909 
L 343.636364 86.4 
L 90 86.4 
z
" style="fill: #ffffff"/>
   </g>
   <g id="matplotlib.axis_1">
    <g id="xtick_1">
     <g id="line2d_1">
      <defs>
       <path id="mece3c225ae" d="M 0 0 
L 0 3.5 
" style="stroke: #000000; stroke-width: 0.8"/>
      </defs>
      <g>
       <use xlink:href="#mece3c225ae" x="90" y="333.490909" style="stroke: #000000; stroke-width: 0.8"/>
      </g>
     </g>
     <g id="text_1">
      <!-- 0.0 -->
      <g transform="translate(82.048438 348.089347)scale(0.1 -0.1)">
       <defs>
        <path id="DejaVuSans-30" d="M 2034 4250 
Q 1547 4250 1301 3770 
Q 1056 3291 1056 2328 
Q 1056 1369 1301 889 
Q 1547 409 2034 409 
Q 2525 409 2770 889 
Q 3016 1369 3016 2328 
Q 3016 3291 2770 3770 
Q 2525 4250 2034 4250 
z
M 2034 4750 
Q 2819 4750 3233 4129 
Q 3647 3509 3647 2328 
Q 3647 1150 3233 529 
Q 2819 -91 2034 -91 
Q 1250 -91 836 529 
Q 422 1150 422 2328 
Q 422 3509 836 4129 
Q 1250 4750 2034 4750 
z
" transform="scale(0.015625)"/>
        <path id="DejaVuSans-2e" d="M 684 794 
L 1344 794 
L 1344 0 
L 684 0 
L 684 794 
z
" transform="scale(0.015625)"/>
       </defs>
       <use xlink:href="#DejaVuSans-30"/>
       <use xlink:href="#DejaVuSans-2e" x="63.623047"/>
       <use xlink:href="#DejaVuSans-30" x="95.410156"/>
      </g>
     </g>
    </g>
    <g id="xtick_2">
     <g id="line2d_2">
      <g>
       <use xlink:href="#mece3c225ae" x="140.727273" y="333.490909" style="stroke: #000000; stroke-width: 0.8"/>
      </g>
     </g>
     <g id="text_2">
      <!-- 0.2 -->
      <g transform="translate(132.77571 348.089347)scale(0.1 -0.1)">
       <defs>
        <path id="DejaVuSans-32" d="M 1228 531 
L 3431 531 
L 3431 0 
L 469 0 
L 469 531 
Q 828 903 1448 1529 
Q 2069 2156 2228 2338 
Q 2531 2678 2651 2914 
Q 2772 3150 2772 3378 
Q 2772 3750 2511 3984 
Q 2250 4219 1831 4219 
Q 1534 4219 1204 4116 
Q 875 4013 500 3803 
L 500 4441 
Q 881 4594 1212 4672 
Q 1544 4750 1819 4750 
Q 2544 4750 2975 4387 
Q 3406 4025 3406 3419 
Q 3406 3131 3298 2873 
Q 3191 2616 2906 2266 
Q 2828 2175 2409 1742 
Q 1991 1309 1228 531 
z
" transform="scale(0.015625)"/>
       </defs>
       <use xlink:href="#DejaVuSans-30"/>
       <use xlink:href="#DejaVuSans-2e" x="63.623047"/>
       <use xlink:href="#DejaVuSans-32" x="95.410156"/>
      </g>
     </g>
    </g>
    <g id="xtick_3">
     <g id="line2d_3">
      <g>
       <use xlink:href="#mece3c225ae" x="191.454545" y="333.490909" style="stroke: #000000; stroke-width: 0.8"/>
      </g>
     </g>
     <g id="text_3">
      <!-- 0.4 -->
      <g transform="translate(183.502983 348.089347)scale(0.1 -0.1)">
       <defs>
        <path id="DejaVuSans-34" d="M 2419 4116 
L 825 1625 
L 2419 1625 
L 2419 4116 
z
M 2253 4666 
L 3047 4666 
L 3047 1625 
L 3713 1625 
L 3713 1100 
L 3047 1100 
L 3047 0 
L 2419 0 
L 2419 1100 
L 313 1100 
L 313 1709 
L 2253 4666 
z
" transform="scale(0.015625)"/>
       </defs>
       <use xlink:href="#DejaVuSans-30"/>
       <use xlink:href="#DejaVuSans-2e" x="63.623047"/>
       <use xlink:href="#DejaVuSans-34" x="95.410156"/>
      </g>
     </g>
    </g>
    <g id="xtick_4">
     <g id="line2d_4">
      <g>
       <use xlink:href="#mece3c225ae" x="242.181818" y="333.490909" style="stroke: #000000; stroke-width: 0.8"/>
      </g>
     </g>
     <g id="text_4">
      <!-- 0.6 -->
      <g transform="translate(234.230256 348.089347)scale(0.1 -0.1)">
       <defs>
        <path id="DejaVuSans-36" d="M 2113 2584 
Q 1688 2584 1439 2293 
Q 1191 2003 1191 1497 
Q 1191 994 1439 701 
Q 1688 409 2113 409 
Q 2538 409 2786 701 
Q 3034 994 3034 1497 
Q 3034 2003 2786 2293 
Q 2538 2584 2113 2584 
z
M 3366 4563 
L 3366 3988 
Q 3128 4100 2886 4159 
Q 2644 4219 2406 4219 
Q 1781 4219 1451 3797 
Q 1122 3375 1075 2522 
Q 1259 2794 1537 2939 
Q 1816 3084 2150 3084 
Q 2853 3084 3261 2657 
Q 3669 2231 3669 1497 
Q 3669 778 3244 343 
Q 2819 -91 2113 -91 
Q 1303 -91 875 529 
Q 447 1150 447 2328 
Q 447 3434 972 4092 
Q 1497 4750 2381 4750 
Q 2619 4750 2861 4703 
Q 3103 4656 3366 4563 
z
" transform="scale(0.015625)"/>
       </defs>
       <use xlink:href="#DejaVuSans-30"/>
       <use xlink:href="#DejaVuSans-2e" x="63.623047"/>
       <use xlink:href="#DejaVuSans-36" x="95.410156"/>
      </g>
     </g>
    </g>
    <g id="xtick_5">
     <g id="line2d_5">
      <g>
       <use xlink:href="#mece3c225ae" x="292.909091" y="333.490909" style="stroke: #000000; stroke-width: 0.8"/>
      </g>
     </g>
     <g id="text_5">
      <!-- 0.8 -->
      <g transform="translate(284.957528 348.089347)scale(0.1 -0.1)">
       <defs>
        <path id="DejaVuSans-38" d="M 2034 2216 
Q 1584 2216 1326 1975 
Q 1069 1734 1069 1313 
Q 1069 891 1326 650 
Q 1584 409 2034 409 
Q 2484 409 2743 651 
Q 3003 894 3003 1313 
Q 3003 1734 2745 1975 
Q 2488 2216 2034 2216 
z
M 1403 2484 
Q 997 2584 770 2862 
Q 544 3141 544 3541 
Q 544 4100 942 4425 
Q 1341 4750 2034 4750 
Q 2731 4750 3128 4425 
Q 3525 4100 3525 3541 
Q 3525 3141 3298 2862 
Q 3072 2584 2669 2484 
Q 3125 2378 3379 2068 
Q 3634 1759 3634 1313 
Q 3634 634 3220 271 
Q 2806 -91 2034 -91 
Q 1263 -91 848 271 
Q 434 634 434 1313 
Q 434 1759 690 2068 
Q 947 2378 1403 2484 
z
M 1172 3481 
Q 1172 3119 1398 2916 
Q 1625 2713 2034 2713 
Q 2441 2713 2670 2916 
Q 2900 3119 2900 3481 
Q 2900 3844 2670 4047 
Q 2441 4250 2034 4250 
Q 1625 4250 1398 4047 
Q 1172 3844 1172 3481 
z
" transform="scale(0.015625)"/>
       </defs>
       <use xlink:href="#DejaVuSans-30"/>
       <use xlink:href="#DejaVuSans-2e" x="63.623047"/>
       <use xlink:href="#DejaVuSans-38" x="95.410156"/>
      </g>
     </g>
    </g>
    <g id="xtick_6">
     <g id="line2d_6">
      <g>
       <use xlink:href="#mece3c225ae" x="343.636364" y="333.490909" style="stroke: #000000; stroke-width: 0.8"/>
      </g>
     </g>
     <g id="text_6">
      <!-- 1.0 -->
      <g transform="translate(335.684801 348.089347)scale(0.1 -0.1)">
       <defs>
        <path id="DejaVuSans-31" d="M 794 531 
L 1825 531 
L 1825 4091 
L 703 3866 
L 703 4441 
L 1819 4666 
L 2450 4666 
L 2450 531 
L 3481 531 
L 3481 0 
L 794 0 
L 794 531 
z
" transform="scale(0.015625)"/>
       </defs>
       <use xlink:href="#DejaVuSans-31"/>
       <use xlink:href="#DejaVuSans-2e" x="63.623047"/>
       <use xlink:href="#DejaVuSans-30" x="95.410156"/>
      </g>
     </g>
    </g>
   </g>
   <g id="matplotlib.axis_2">
    <g id="ytick_1">
     <g id="line2d_7">
      <defs>
       <path id="m4346dce437" d="M 0 0 
L -3.5 0 
" style="stroke: #000000; stroke-width: 0.8"/>
      </defs>
      <g>
       <use xlink:href="#m4346dce437" x="90" y="333.490909" style="stroke: #000000; stroke-width: 0.8"/>
      </g>
     </g>
     <g id="text_7">
      <!-- 0.0 -->
      <g transform="translate(67.096875 337.290128)scale(0.1 -0.1)">
       <use xlink:href="#DejaVuSans-30"/>
       <use xlink:href="#DejaVuSans-2e" x="63.623047"/>
       <use xlink:href="#DejaVuSans-30" x="95.410156"/>
      </g>
     </g>
    </g>
    <g id="ytick_2">
     <g id="line2d_8">
      <g>
       <use xlink:href="#m4346dce437" x="90" y="284.072727" style="stroke: #000000; stroke-width: 0.8"/>
      </g>
     </g>
     <g id="text_8">
      <!-- 0.2 -->
      <g transform="translate(67.096875 287.871946)scale(0.1 -0.1)">
       <use xlink:href="#DejaVuSans-30"/>
       <use xlink:href="#DejaVuSans-2e" x="63.623047"/>
       <use xlink:href="#DejaVuSans-32" x="95.410156"/>
      </g>
     </g>
    </g>
    <g id="ytick_3">
     <g id="line2d_9">
      <g>
       <use xlink:href="#m4346dce437" x="90" y="234.654545" style="stroke: #000000; stroke-width: 0.8"/>
      </g>
     </g>
     <g id="text_9">
      <!-- 0.4 -->
      <g transform="translate(67.096875 238.453764)scale(0.1 -0.1)">
       <use xlink:href="#DejaVuSans-30"/>
       <use xlink:href="#DejaVuSans-2e" x="63.623047"/>
       <use xlink:href="#DejaVuSans-34" x="95.410156"/>
      </g>
     </g>
    </g>
    <g id="ytick_4">
     <g id="line2d_10">
      <g>
       <use xlink:href="#m4346dce437" x="90" y="185.236364" style="stroke: #000000; stroke-width: 0.8"/>
      </g>
     </g>
     <g id="text_10">
      <!-- 0.6 -->
      <g transform="translate(67.096875 189.035582)scale(0.1 -0.1)">
       <use xlink:href="#DejaVuSans-30"/>
       <use xlink:href="#DejaVuSans-2e" x="63.623047"/>
       <use xlink:href="#DejaVuSans-36" x="95.410156"/>
      </g>
     </g>
    </g>
    <g id="ytick_5">
     <g id="line2d_11">
      <g>
       <use xlink:href="#m4346dce437" x="90" y="135.818182" style="stroke: #000000; stroke-width: 0.8"/>
      </g>
     </g>
     <g id="text_11">
      <!-- 0.8 -->
      <g transform="translate(67.096875 139.617401)scale(0.1 -0.1)">
       <use xlink:href="#DejaVuSans-30"/>
       <use xlink:href="#DejaVuSans-2e" x="63.623047"/>
       <use xlink:href="#DejaVuSans-38" x="95.410156"/>
      </g>
     </g>
    </g>
    <g id="ytick_6">
     <g id="line2d_12">
      <g>
       <use xlink:href="#m4346dce437" x="90" y="86.4" style="stroke: #000000; stroke-width: 0.8"/>
      </g>
     </g>
     <g id="text_12">
      <!-- 1.0 -->
      <g transform="translate(67.096875 90.199219)scale(0.1 -0.1)">
       <use xlink:href="#DejaVuSans-31"/>
       <use xlink:href="#DejaVuSans-2e" x="63.623047"/>
       <use xlink:href="#DejaVuSans-30" x="95.410156"/>
      </g>
     </g>
    </g>
   </g>
   <g id="patch_3">
    <path d="M 90 333.490909 
L 90 86.4 
" style="fill: none; stroke: #000000; stroke-width: 0.8; stroke-linejoin: miter; stroke-linecap: square"/>
   </g>
   <g id="patch_4">
    <path d="M 343.636364 333.490909 
L 343.636364 86.4 
" style="fill: none; stroke: #000000; stroke-width: 0.8; stroke-linejoin: miter; stroke-linecap: square"/>
   </g>
   <g id="patch_5">
    <path d="M 90 333.490909 
L 343.636364 333.490909 
" style="fill: none; stroke: #000000; stroke-width: 0.8; stroke-linejoin: miter; stroke-linecap: square"/>
   </g>
   <g id="patch_6">
    <path d="M 90 86.4 
L 343.636364 86.4 
" style="fill: none; stroke: #000000; stroke-width: 0.8; stroke-linejoin: miter; stroke-linecap: square"/>
   </g>
  </g>
  <g id="axes_2">
   <g id="patch_7">
    <path d="M 394.363636 333.490909 
L 648 333.490909 
L 648 86.4 
L 394.363636 86.4 
z
" style="fill: #ffffff"/>
   </g>
   <g id="PolyCollection_1">
    <defs>
     <path id="m047bf0fc8b" d="M 405.892562 -596.086814 
L 405.892562 -576.713557 
L 407.342741 -572.870323 
L 408.792921 -565.614052 
L 410.2431 -557.072219 
L 411.693279 -547.792932 
L 413.143459 -539.102824 
L 414.593638 -531.30598 
L 416.043817 -523.636322 
L 417.493997 -515.814698 
L 418.944176 -505.596305 
L 420.394355 -495.194548 
L 421.844535 -491.051974 
L 423.294714 -481.838834 
L 424.744893 -475.771833 
L 426.195073 -472.609982 
L 427.645252 -471.315326 
L 429.095431 -470.900264 
L 430.54561 -470.79639 
L 431.99579 -470.776059 
L 433.445969 -470.773014 
L 434.896148 -470.773014 
L 436.346328 -470.773014 
L 437.796507 -470.773014 
L 439.246686 -470.773014 
L 440.696866 -470.773014 
L 442.147045 -470.773014 
L 443.597224 -470.773014 
L 445.047404 -470.773014 
L 446.497583 -470.773014 
L 447.947762 -470.773014 
L 449.397942 -470.772345 
L 450.848121 -470.767743 
L 452.2983 -470.743637 
L 453.74848 -470.645334 
L 455.198659 -470.329765 
L 456.648838 -469.52718 
L 458.099018 -467.8976 
L 459.549197 -465.223947 
L 460.999376 -459.319551 
L 462.449556 -455.20524 
L 463.899735 -450.878823 
L 465.349914 -446.337382 
L 466.800094 -441.964145 
L 468.250273 -438.327676 
L 469.700452 -435.935328 
L 471.150632 -435.739023 
L 472.600811 -436.939012 
L 474.05099 -440.251816 
L 475.501169 -446.294787 
L 476.951349 -442.231947 
L 478.401528 -447.021981 
L 479.851707 -442.543029 
L 481.301887 -445.723398 
L 482.752066 -455.948756 
L 484.202245 -461.319472 
L 485.652425 -464.811132 
L 487.102604 -465.856828 
L 488.552783 -465.46157 
L 490.002963 -461.834024 
L 491.453142 -465.737603 
L 492.903321 -466.841171 
L 494.353501 -467.485605 
L 495.80368 -467.091268 
L 497.253859 -465.909814 
L 498.704039 -460.998637 
L 500.154218 -463.860434 
L 501.604397 -463.691668 
L 503.054577 -461.368437 
L 504.504756 -464.871034 
L 505.954935 -465.644653 
L 507.405115 -466.201651 
L 508.855294 -464.944029 
L 510.305473 -467.565687 
L 511.755653 -468.594833 
L 513.205832 -469.422825 
L 514.656011 -469.72794 
L 516.106191 -469.528199 
L 517.55637 -469.139984 
L 519.006549 -466.863844 
L 520.456729 -469.176325 
L 521.906908 -469.677211 
L 523.357087 -470.192517 
L 524.807266 -470.562968 
L 526.257446 -470.839484 
L 527.707625 -471.23756 
L 529.157804 -472.040058 
L 530.607984 -473.40705 
L 532.058163 -475.092336 
L 533.508342 -473.467393 
L 534.958522 -472.904503 
L 536.408701 -475.428154 
L 537.85888 -473.750669 
L 539.30906 -472.274389 
L 540.759239 -471.368866 
L 542.209418 -470.95887 
L 543.659598 -470.818511 
L 545.109777 -470.781743 
L 546.559956 -470.774229 
L 548.010136 -470.773014 
L 549.460315 -470.773014 
L 550.910494 -470.773014 
L 552.360674 -470.773014 
L 553.810853 -470.773014 
L 555.261032 -470.773014 
L 556.711212 -470.773014 
L 558.161391 -470.773014 
L 559.61157 -470.773014 
L 561.06175 -470.771765 
L 562.511929 -470.763548 
L 563.962108 -470.721987 
L 565.412288 -470.557906 
L 566.862467 -470.05315 
L 568.312646 -468.847311 
L 569.762826 -466.606413 
L 571.213005 -463.349301 
L 572.663184 -456.042759 
L 574.113363 -452.135588 
L 575.563543 -449.091064 
L 577.013722 -445.599032 
L 578.463901 -440.926827 
L 579.914081 -437.094254 
L 581.36426 -433.203285 
L 582.814439 -431.874815 
L 584.264619 -433.80535 
L 585.714798 -439.317333 
L 587.164977 -452.533418 
L 588.615157 -460.182221 
L 590.065336 -465.230195 
L 591.515515 -466.765815 
L 592.965695 -464.601147 
L 594.415874 -458.803986 
L 595.866053 -449.941239 
L 597.316233 -432.461893 
L 598.766412 -428.989816 
L 600.216591 -413.349561 
L 601.666771 -406.213405 
L 603.11695 -408.591267 
L 604.567129 -397.845308 
L 606.017309 -397.740496 
L 607.467488 -402.122881 
L 608.917667 -417.823137 
L 610.367847 -421.946198 
L 611.818026 -442.960786 
L 613.268205 -454.576757 
L 614.718385 -462.938128 
L 616.168564 -467.697709 
L 617.618743 -469.810179 
L 619.068923 -470.535206 
L 620.519102 -470.727436 
L 621.969281 -470.766024 
L 623.41946 -470.773014 
L 624.86964 -470.773014 
L 626.319819 -470.773014 
L 627.769998 -470.773014 
L 629.220178 -470.773014 
L 630.670357 -470.773014 
L 632.120536 -470.773014 
L 633.570716 -470.773014 
L 635.020895 -470.773014 
L 636.471074 -470.773014 
L 636.471074 -470.773014 
L 636.471074 -470.773014 
L 635.020895 -470.773014 
L 633.570716 -470.773014 
L 632.120536 -470.773014 
L 630.670357 -470.773014 
L 629.220178 -470.773014 
L 627.769998 -470.773014 
L 626.319819 -470.773014 
L 624.86964 -470.773014 
L 623.41946 -470.773014 
L 621.969281 -470.766024 
L 620.519102 -470.727436 
L 619.068923 -470.535206 
L 617.618743 -469.810179 
L 616.168564 -467.697709 
L 614.718385 -462.938128 
L 613.268205 -454.576757 
L 611.818026 -442.960786 
L 610.367847 -437.857824 
L 608.917667 -417.823137 
L 607.467488 -415.793763 
L 606.017309 -411.811137 
L 604.567129 -412.519011 
L 603.11695 -408.591267 
L 601.666771 -421.013907 
L 600.216591 -427.155941 
L 598.766412 -428.989816 
L 597.316233 -446.317025 
L 595.866053 -449.941239 
L 594.415874 -458.803986 
L 592.965695 -464.601147 
L 591.515515 -466.765815 
L 590.065336 -465.230195 
L 588.615157 -460.182221 
L 587.164977 -452.533418 
L 585.714798 -449.472593 
L 584.264619 -442.896468 
L 582.814439 -439.994796 
L 581.36426 -440.717215 
L 579.914081 -443.293215 
L 578.463901 -447.73428 
L 577.013722 -451.323677 
L 575.563543 -455.368056 
L 574.113363 -459.511549 
L 572.663184 -463.089777 
L 571.213005 -463.349301 
L 569.762826 -466.606413 
L 568.312646 -468.847311 
L 566.862467 -470.05315 
L 565.412288 -470.557906 
L 563.962108 -470.721987 
L 562.511929 -470.763548 
L 561.06175 -470.771765 
L 559.61157 -470.773014 
L 558.161391 -470.773014 
L 556.711212 -470.773014 
L 555.261032 -470.773014 
L 553.810853 -470.773014 
L 552.360674 -470.773014 
L 550.910494 -470.773014 
L 549.460315 -470.773014 
L 548.010136 -470.773014 
L 546.559956 -470.774229 
L 545.109777 -470.781743 
L 543.659598 -470.818511 
L 542.209418 -470.95887 
L 540.759239 -471.368866 
L 539.30906 -472.274389 
L 537.85888 -473.750669 
L 536.408701 -475.428154 
L 534.958522 -480.130437 
L 533.508342 -479.281574 
L 532.058163 -475.092336 
L 530.607984 -473.40705 
L 529.157804 -472.040058 
L 527.707625 -471.23756 
L 526.257446 -470.839484 
L 524.807266 -470.562968 
L 523.357087 -470.192517 
L 521.906908 -469.677211 
L 520.456729 -469.176325 
L 519.006549 -471.051419 
L 517.55637 -469.139984 
L 516.106191 -469.528199 
L 514.656011 -469.72794 
L 513.205832 -469.422825 
L 511.755653 -468.594833 
L 510.305473 -467.565687 
L 508.855294 -468.540907 
L 507.405115 -466.201651 
L 505.954935 -465.644653 
L 504.504756 -464.871034 
L 503.054577 -466.826139 
L 501.604397 -463.691668 
L 500.154218 -463.860434 
L 498.704039 -468.306483 
L 497.253859 -465.909814 
L 495.80368 -467.091268 
L 494.353501 -467.485605 
L 492.903321 -466.841171 
L 491.453142 -465.737603 
L 490.002963 -468.469277 
L 488.552783 -465.46157 
L 487.102604 -465.856828 
L 485.652425 -464.811132 
L 484.202245 -461.319472 
L 482.752066 -455.948756 
L 481.301887 -455.753478 
L 479.851707 -452.819066 
L 478.401528 -447.021981 
L 476.951349 -452.110468 
L 475.501169 -446.294787 
L 474.05099 -447.563978 
L 472.600811 -445.249332 
L 471.150632 -443.148641 
L 469.700452 -443.725797 
L 468.250273 -445.785034 
L 466.800094 -448.793767 
L 465.349914 -452.041314 
L 463.899735 -455.619856 
L 462.449556 -459.736111 
L 460.999376 -463.904023 
L 459.549197 -465.223947 
L 458.099018 -467.8976 
L 456.648838 -469.52718 
L 455.198659 -470.329765 
L 453.74848 -470.645334 
L 452.2983 -470.743637 
L 450.848121 -470.767743 
L 449.397942 -470.772345 
L 447.947762 -470.773014 
L 446.497583 -470.773014 
L 445.047404 -470.773014 
L 443.597224 -470.773014 
L 442.147045 -470.773014 
L 440.696866 -470.773014 
L 439.246686 -470.773014 
L 437.796507 -470.773014 
L 436.346328 -470.773014 
L 434.896148 -470.773014 
L 433.445969 -470.773014 
L 431.99579 -470.776059 
L 430.54561 -470.79639 
L 429.095431 -470.900264 
L 427.645252 -471.315326 
L 426.195073 -472.609982 
L 424.744893 -475.771833 
L 423.294714 -481.838834 
L 421.844535 -491.051974 
L 420.394355 -509.380311 
L 418.944176 -521.656516 
L 417.493997 -531.521235 
L 416.043817 -540.88837 
L 414.593638 -549.042416 
L 413.143459 -557.556213 
L 411.693279 -566.664558 
L 410.2431 -576.172785 
L 408.792921 -585.41624 
L 407.342741 -592.183143 
L 405.892562 -596.086814 
z
" style="stroke: #9467bd; stroke-opacity: 0.2"/>
    </defs>
    <g clip-path="url(#p190ab06edb)">
     <use xlink:href="#m047bf0fc8b" x="0" y="720" style="fill: #9467bd; fill-opacity: 0.2; stroke: #9467bd; stroke-opacity: 0.2"/>
    </g>
   </g>
   <g id="PolyCollection_2">
    <defs>
     <path id="m2e48a3e544" d="M 405.892562 -470.773014 
L 405.892562 -470.773014 
L 407.342741 -470.773014 
L 408.792921 -470.773014 
L 410.2431 -470.773014 
L 411.693279 -470.773014 
L 413.143459 -470.773014 
L 414.593638 -470.773014 
L 416.043817 -470.773014 
L 417.493997 -470.773014 
L 418.944176 -470.773014 
L 420.394355 -470.773014 
L 421.844535 -470.773014 
L 423.294714 -470.773014 
L 424.744893 -470.773014 
L 426.195073 -470.773014 
L 427.645252 -470.773014 
L 429.095431 -470.773014 
L 430.54561 -470.773014 
L 431.99579 -470.773014 
L 433.445969 -470.773014 
L 434.896148 -470.773014 
L 436.346328 -470.773014 
L 437.796507 -470.773014 
L 439.246686 -470.773014 
L 440.696866 -470.773014 
L 442.147045 -470.773796 
L 443.597224 -470.779572 
L 445.047404 -470.809301 
L 446.497583 -470.930662 
L 447.947762 -471.31704 
L 449.397942 -472.277027 
L 450.848121 -474.13093 
L 452.2983 -476.885907 
L 453.74848 -478.412486 
L 455.198659 -479.515324 
L 456.648838 -481.310662 
L 458.099018 -479.627328 
L 459.549197 -477.824669 
L 460.999376 -476.203122 
L 462.449556 -473.686608 
L 463.899735 -472.05732 
L 465.349914 -471.232921 
L 466.800094 -470.908028 
L 468.250273 -470.818705 
L 469.700452 -470.850287 
L 471.150632 -471.044224 
L 472.600811 -471.584207 
L 474.05099 -472.710692 
L 475.501169 -473.787868 
L 476.951349 -476.546854 
L 478.401528 -473.17847 
L 479.851707 -479.534504 
L 481.301887 -480.119285 
L 482.752066 -475.408031 
L 484.202245 -477.958689 
L 485.652425 -475.236298 
L 487.102604 -475.256186 
L 488.552783 -472.954793 
L 490.002963 -472.044934 
L 491.453142 -471.357838 
L 492.903321 -470.661812 
L 494.353501 -471.025637 
L 495.80368 -470.916581 
L 497.253859 -470.373235 
L 498.704039 -471.003418 
L 500.154218 -470.170861 
L 501.604397 -470.230572 
L 503.054577 -470.943877 
L 504.504756 -470.894368 
L 505.954935 -470.839601 
L 507.405115 -470.79434 
L 508.855294 -470.751375 
L 510.305473 -470.67567 
L 511.755653 -470.506949 
L 513.205832 -470.067398 
L 514.656011 -469.727524 
L 516.106191 -468.884229 
L 517.55637 -467.115338 
L 519.006549 -469.227666 
L 520.456729 -469.161096 
L 521.906908 -469.972265 
L 523.357087 -470.152377 
L 524.807266 -469.763915 
L 526.257446 -469.884497 
L 527.707625 -468.949521 
L 529.157804 -468.289505 
L 530.607984 -469.025213 
L 532.058163 -467.532818 
L 533.508342 -468.673042 
L 534.958522 -468.281531 
L 536.408701 -467.723222 
L 537.85888 -464.881486 
L 539.30906 -466.94825 
L 540.759239 -466.850104 
L 542.209418 -464.86125 
L 543.659598 -466.796987 
L 545.109777 -464.865021 
L 546.559956 -465.601033 
L 548.010136 -466.647082 
L 549.460315 -468.304209 
L 550.910494 -469.382612 
L 552.360674 -470.181984 
L 553.810853 -470.516738 
L 555.261032 -470.679218 
L 556.711212 -470.740209 
L 558.161391 -470.744722 
L 559.61157 -470.690799 
L 561.06175 -470.515233 
L 562.511929 -470.075633 
L 563.962108 -469.172235 
L 565.412288 -466.796253 
L 566.862467 -465.800724 
L 568.312646 -461.822152 
L 569.762826 -461.179032 
L 571.213005 -461.885432 
L 572.663184 -466.081071 
L 574.113363 -468.012733 
L 575.563543 -469.466344 
L 577.013722 -470.278137 
L 578.463901 -470.62387 
L 579.914081 -470.737402 
L 581.36426 -470.766409 
L 582.814439 -470.772127 
L 584.264619 -470.773014 
L 585.714798 -470.773014 
L 587.164977 -470.773014 
L 588.615157 -470.773014 
L 590.065336 -470.773014 
L 591.515515 -470.773014 
L 592.965695 -470.773014 
L 594.415874 -470.773014 
L 595.866053 -470.773014 
L 597.316233 -470.773014 
L 598.766412 -470.773014 
L 600.216591 -470.773014 
L 601.666771 -470.773014 
L 603.11695 -470.773014 
L 604.567129 -470.773014 
L 606.017309 -470.773014 
L 607.467488 -470.773014 
L 608.917667 -470.773014 
L 610.367847 -470.773014 
L 611.818026 -470.773014 
L 613.268205 -470.773014 
L 614.718385 -470.773014 
L 616.168564 -470.773014 
L 617.618743 -470.773014 
L 619.068923 -470.773014 
L 620.519102 -470.773014 
L 621.969281 -470.773014 
L 623.41946 -470.773014 
L 624.86964 -470.773014 
L 626.319819 -470.773014 
L 627.769998 -470.773014 
L 629.220178 -470.773014 
L 630.670357 -470.773014 
L 632.120536 -470.773014 
L 633.570716 -470.773014 
L 635.020895 -470.773014 
L 636.471074 -470.773014 
L 636.471074 -470.773014 
L 636.471074 -470.773014 
L 635.020895 -470.773014 
L 633.570716 -470.773014 
L 632.120536 -470.773014 
L 630.670357 -470.773014 
L 629.220178 -470.773014 
L 627.769998 -470.773014 
L 626.319819 -470.773014 
L 624.86964 -470.773014 
L 623.41946 -470.773014 
L 621.969281 -470.773014 
L 620.519102 -470.773014 
L 619.068923 -470.773014 
L 617.618743 -470.773014 
L 616.168564 -470.773014 
L 614.718385 -470.773014 
L 613.268205 -470.773014 
L 611.818026 -470.773014 
L 610.367847 -470.773014 
L 608.917667 -470.773014 
L 607.467488 -470.773014 
L 606.017309 -470.773014 
L 604.567129 -470.773014 
L 603.11695 -470.773014 
L 601.666771 -470.773014 
L 600.216591 -470.773014 
L 598.766412 -470.773014 
L 597.316233 -470.773014 
L 595.866053 -470.773014 
L 594.415874 -470.773014 
L 592.965695 -470.773014 
L 591.515515 -470.773014 
L 590.065336 -470.773014 
L 588.615157 -470.773014 
L 587.164977 -470.773014 
L 585.714798 -470.773014 
L 584.264619 -470.773014 
L 582.814439 -470.772127 
L 581.36426 -470.766409 
L 579.914081 -470.737402 
L 578.463901 -470.62387 
L 577.013722 -470.278137 
L 575.563543 -469.466344 
L 574.113363 -468.012733 
L 572.663184 -466.081071 
L 571.213005 -466.751526 
L 569.762826 -465.917574 
L 568.312646 -466.499644 
L 566.862467 -465.800724 
L 565.412288 -468.568242 
L 563.962108 -469.172235 
L 562.511929 -470.075633 
L 561.06175 -470.515233 
L 559.61157 -470.690799 
L 558.161391 -470.744722 
L 556.711212 -470.740209 
L 555.261032 -470.679218 
L 553.810853 -470.516738 
L 552.360674 -470.181984 
L 550.910494 -469.860269 
L 549.460315 -469.421889 
L 548.010136 -469.446475 
L 546.559956 -469.129605 
L 545.109777 -469.033578 
L 543.659598 -466.796987 
L 542.209418 -468.741409 
L 540.759239 -466.850104 
L 539.30906 -466.94825 
L 537.85888 -469.56285 
L 536.408701 -467.723222 
L 534.958522 -468.281531 
L 533.508342 -468.673042 
L 532.058163 -470.20924 
L 530.607984 -469.025213 
L 529.157804 -470.227808 
L 527.707625 -470.192229 
L 526.257446 -469.884497 
L 524.807266 -470.448826 
L 523.357087 -470.152377 
L 521.906908 -469.972265 
L 520.456729 -470.049657 
L 519.006549 -469.227666 
L 517.55637 -471.045532 
L 516.106191 -469.682793 
L 514.656011 -469.727524 
L 513.205832 -470.30485 
L 511.755653 -470.506949 
L 510.305473 -470.67567 
L 508.855294 -470.751375 
L 507.405115 -470.79434 
L 505.954935 -470.839601 
L 504.504756 -470.894368 
L 503.054577 -470.943877 
L 501.604397 -471.715881 
L 500.154218 -471.804798 
L 498.704039 -471.003418 
L 497.253859 -471.666291 
L 495.80368 -471.130675 
L 494.353501 -471.025637 
L 492.903321 -471.518077 
L 491.453142 -471.357838 
L 490.002963 -472.044934 
L 488.552783 -473.742785 
L 487.102604 -475.256186 
L 485.652425 -479.547433 
L 484.202245 -480.325541 
L 482.752066 -484.703152 
L 481.301887 -480.119285 
L 479.851707 -479.534504 
L 478.401528 -483.508088 
L 476.951349 -476.546854 
L 475.501169 -475.170925 
L 474.05099 -472.710692 
L 472.600811 -471.584207 
L 471.150632 -471.044224 
L 469.700452 -470.850287 
L 468.250273 -470.818705 
L 466.800094 -470.908028 
L 465.349914 -471.232921 
L 463.899735 -472.05732 
L 462.449556 -473.686608 
L 460.999376 -476.203122 
L 459.549197 -480.565163 
L 458.099018 -483.925727 
L 456.648838 -484.65407 
L 455.198659 -485.066469 
L 453.74848 -481.493657 
L 452.2983 -476.885907 
L 450.848121 -474.13093 
L 449.397942 -472.277027 
L 447.947762 -471.31704 
L 446.497583 -470.930662 
L 445.047404 -470.809301 
L 443.597224 -470.779572 
L 442.147045 -470.773796 
L 440.696866 -470.773014 
L 439.246686 -470.773014 
L 437.796507 -470.773014 
L 436.346328 -470.773014 
L 434.896148 -470.773014 
L 433.445969 -470.773014 
L 431.99579 -470.773014 
L 430.54561 -470.773014 
L 429.095431 -470.773014 
L 427.645252 -470.773014 
L 426.195073 -470.773014 
L 424.744893 -470.773014 
L 423.294714 -470.773014 
L 421.844535 -470.773014 
L 420.394355 -470.773014 
L 418.944176 -470.773014 
L 417.493997 -470.773014 
L 416.043817 -470.773014 
L 414.593638 -470.773014 
L 413.143459 -470.773014 
L 411.693279 -470.773014 
L 410.2431 -470.773014 
L 408.792921 -470.773014 
L 407.342741 -470.773014 
L 405.892562 -470.773014 
z
" style="stroke: #1f77b4; stroke-opacity: 0.2"/>
    </defs>
    <g clip-path="url(#p190ab06edb)">
     <use xlink:href="#m2e48a3e544" x="0" y="720" style="fill: #1f77b4; fill-opacity: 0.2; stroke: #1f77b4; stroke-opacity: 0.2"/>
    </g>
   </g>
   <g id="PolyCollection_3">
    <defs>
     <path id="m439499643f" d="M 405.892562 -470.773014 
L 405.892562 -470.773014 
L 407.342741 -470.773014 
L 408.792921 -470.773014 
L 410.2431 -470.773014 
L 411.693279 -470.773014 
L 413.143459 -470.773014 
L 414.593638 -470.773014 
L 416.043817 -470.773014 
L 417.493997 -470.773014 
L 418.944176 -470.773014 
L 420.394355 -470.773014 
L 421.844535 -470.773014 
L 423.294714 -470.773014 
L 424.744893 -470.770588 
L 426.195073 -470.755697 
L 427.645252 -470.680634 
L 429.095431 -470.38842 
L 430.54561 -469.505146 
L 431.99579 -467.42892 
L 433.445969 -463.627688 
L 434.896148 -458.189249 
L 436.346328 -447.685988 
L 437.796507 -442.344587 
L 439.246686 -439.996405 
L 440.696866 -439.027636 
L 442.147045 -438.566079 
L 443.597224 -439.343129 
L 445.047404 -439.69875 
L 446.497583 -442.130091 
L 447.947762 -443.569018 
L 449.397942 -447.1351 
L 450.848121 -451.720061 
L 452.2983 -457.120509 
L 453.74848 -464.215041 
L 455.198659 -467.557061 
L 456.648838 -469.46678 
L 458.099018 -470.338289 
L 459.549197 -470.655572 
L 460.999376 -470.747631 
L 462.449556 -470.768769 
L 463.899735 -470.772578 
L 465.349914 -470.773014 
L 466.800094 -470.773014 
L 468.250273 -470.773014 
L 469.700452 -470.773014 
L 471.150632 -470.773014 
L 472.600811 -470.773014 
L 474.05099 -470.773014 
L 475.501169 -470.773014 
L 476.951349 -470.773014 
L 478.401528 -470.773014 
L 479.851707 -470.773014 
L 481.301887 -470.773014 
L 482.752066 -470.773014 
L 484.202245 -470.773014 
L 485.652425 -470.773014 
L 487.102604 -470.773014 
L 488.552783 -470.773014 
L 490.002963 -470.773014 
L 491.453142 -470.773014 
L 492.903321 -470.773014 
L 494.353501 -470.775083 
L 495.80368 -470.78651 
L 497.253859 -470.841553 
L 498.704039 -471.044091 
L 500.154218 -471.607992 
L 501.604397 -472.776023 
L 503.054577 -474.515128 
L 504.504756 -476.217759 
L 505.954935 -471.961556 
L 507.405115 -476.217759 
L 508.855294 -474.515128 
L 510.305473 -472.776023 
L 511.755653 -471.607992 
L 513.205832 -471.044091 
L 514.656011 -470.841553 
L 516.106191 -470.78651 
L 517.55637 -470.775083 
L 519.006549 -470.773014 
L 520.456729 -470.773014 
L 521.906908 -470.773014 
L 523.357087 -470.773014 
L 524.807266 -470.771752 
L 526.257446 -470.76479 
L 527.707625 -470.730901 
L 529.157804 -470.60508 
L 530.607984 -470.249543 
L 532.058163 -469.49062 
L 533.508342 -468.287338 
L 534.958522 -466.914749 
L 536.408701 -461.571175 
L 537.85888 -465.555236 
L 539.30906 -462.842064 
L 540.759239 -463.31424 
L 542.209418 -467.61191 
L 543.659598 -463.978153 
L 545.109777 -469.363715 
L 546.559956 -470.000951 
L 548.010136 -470.416381 
L 549.460315 -470.637671 
L 550.910494 -470.731484 
L 552.360674 -470.762911 
L 553.810853 -470.771118 
L 555.261032 -470.772723 
L 556.711212 -470.773014 
L 558.161391 -470.773014 
L 559.61157 -470.773014 
L 561.06175 -470.773014 
L 562.511929 -470.773014 
L 563.962108 -470.773014 
L 565.412288 -470.773014 
L 566.862467 -470.773014 
L 568.312646 -470.773014 
L 569.762826 -470.773014 
L 571.213005 -470.773014 
L 572.663184 -470.773014 
L 574.113363 -470.773014 
L 575.563543 -470.777528 
L 577.013722 -470.807578 
L 578.463901 -470.961512 
L 579.914081 -471.57607 
L 581.36426 -473.493279 
L 582.814439 -478.173526 
L 584.264619 -487.134526 
L 585.714798 -500.636073 
L 587.164977 -506.284598 
L 588.615157 -521.655146 
L 590.065336 -531.673011 
L 591.515515 -536.146361 
L 592.965695 -536.411011 
L 594.415874 -530.630622 
L 595.866053 -522.072912 
L 597.316233 -527.920876 
L 598.766412 -502.255979 
L 600.216591 -511.374756 
L 601.666771 -506.484287 
L 603.11695 -484.623609 
L 604.567129 -500.106158 
L 606.017309 -500.525874 
L 607.467488 -506.800416 
L 608.917667 -503.712881 
L 610.367847 -538.568805 
L 611.818026 -541.453 
L 613.268205 -560.485969 
L 614.718385 -575.892443 
L 616.168564 -583.05154 
L 617.618743 -585.982525 
L 619.068923 -585.576228 
L 620.519102 -583.285891 
L 621.969281 -582.475378 
L 623.41946 -580.712399 
L 624.86964 -579.379377 
L 626.319819 -577.210978 
L 627.769998 -574.487755 
L 629.220178 -569.985801 
L 630.670357 -564.788452 
L 632.120536 -557.380784 
L 633.570716 -551.221733 
L 635.020895 -544.483351 
L 636.471074 -541.22948 
L 636.471074 -560.662791 
L 636.471074 -560.662791 
L 635.020895 -564.921847 
L 633.570716 -571.132224 
L 632.120536 -580.235773 
L 630.670357 -587.660006 
L 629.220178 -595.281781 
L 627.769998 -600.964414 
L 626.319819 -605.712539 
L 624.86964 -608.793057 
L 623.41946 -611.604282 
L 621.969281 -614.13786 
L 620.519102 -618.334268 
L 619.068923 -620.859124 
L 617.618743 -622.368595 
L 616.168564 -620.142306 
L 614.718385 -610.983987 
L 613.268205 -597.380825 
L 611.818026 -577.599322 
L 610.367847 -538.568805 
L 608.917667 -536.190907 
L 607.467488 -506.800416 
L 606.017309 -500.525874 
L 604.567129 -500.106158 
L 603.11695 -520.928717 
L 601.666771 -506.484287 
L 600.216591 -511.374756 
L 598.766412 -534.773032 
L 597.316233 -527.920876 
L 595.866053 -553.962731 
L 594.415874 -562.061926 
L 592.965695 -564.982667 
L 591.515515 -563.603355 
L 590.065336 -555.435788 
L 588.615157 -542.410151 
L 587.164977 -527.192874 
L 585.714798 -500.636073 
L 584.264619 -487.134526 
L 582.814439 -478.173526 
L 581.36426 -473.493279 
L 579.914081 -471.57607 
L 578.463901 -470.961512 
L 577.013722 -470.807578 
L 575.563543 -470.777528 
L 574.113363 -470.773014 
L 572.663184 -470.773014 
L 571.213005 -470.773014 
L 569.762826 -470.773014 
L 568.312646 -470.773014 
L 566.862467 -470.773014 
L 565.412288 -470.773014 
L 563.962108 -470.773014 
L 562.511929 -470.773014 
L 561.06175 -470.773014 
L 559.61157 -470.773014 
L 558.161391 -470.773014 
L 556.711212 -470.773014 
L 555.261032 -470.772723 
L 553.810853 -470.771118 
L 552.360674 -470.762911 
L 550.910494 -470.731484 
L 549.460315 -470.637671 
L 548.010136 -470.416381 
L 546.559956 -470.000951 
L 545.109777 -469.363715 
L 543.659598 -473.102139 
L 542.209418 -467.61191 
L 540.759239 -470.054618 
L 539.30906 -468.985143 
L 537.85888 -465.555236 
L 536.408701 -470.191581 
L 534.958522 -466.914749 
L 533.508342 -468.287338 
L 532.058163 -469.49062 
L 530.607984 -470.249543 
L 529.157804 -470.60508 
L 527.707625 -470.730901 
L 526.257446 -470.76479 
L 524.807266 -470.771752 
L 523.357087 -470.773014 
L 521.906908 -470.773014 
L 520.456729 -470.773014 
L 519.006549 -470.773014 
L 517.55637 -470.775083 
L 516.106191 -470.78651 
L 514.656011 -470.841553 
L 513.205832 -471.044091 
L 511.755653 -471.607992 
L 510.305473 -472.776023 
L 508.855294 -474.515128 
L 507.405115 -476.217759 
L 505.954935 -481.92388 
L 504.504756 -476.217759 
L 503.054577 -474.515128 
L 501.604397 -472.776023 
L 500.154218 -471.607992 
L 498.704039 -471.044091 
L 497.253859 -470.841553 
L 495.80368 -470.78651 
L 494.353501 -470.775083 
L 492.903321 -470.773014 
L 491.453142 -470.773014 
L 490.002963 -470.773014 
L 488.552783 -470.773014 
L 487.102604 -470.773014 
L 485.652425 -470.773014 
L 484.202245 -470.773014 
L 482.752066 -470.773014 
L 481.301887 -470.773014 
L 479.851707 -470.773014 
L 478.401528 -470.773014 
L 476.951349 -470.773014 
L 475.501169 -470.773014 
L 474.05099 -470.773014 
L 472.600811 -470.773014 
L 471.150632 -470.773014 
L 469.700452 -470.773014 
L 468.250273 -470.773014 
L 466.800094 -470.773014 
L 465.349914 -470.773014 
L 463.899735 -470.772578 
L 462.449556 -470.768769 
L 460.999376 -470.747631 
L 459.549197 -470.655572 
L 458.099018 -470.338289 
L 456.648838 -469.46678 
L 455.198659 -467.557061 
L 453.74848 -464.215041 
L 452.2983 -461.975025 
L 450.848121 -457.010581 
L 449.397942 -452.491526 
L 447.947762 -449.690284 
L 446.497583 -447.303807 
L 445.047404 -447.184857 
L 443.597224 -445.309251 
L 442.147045 -444.383075 
L 440.696866 -443.953799 
L 439.246686 -446.19731 
L 437.796507 -451.076256 
L 436.346328 -456.482545 
L 434.896148 -458.189249 
L 433.445969 -463.627688 
L 431.99579 -467.42892 
L 430.54561 -469.505146 
L 429.095431 -470.38842 
L 427.645252 -470.680634 
L 426.195073 -470.755697 
L 424.744893 -470.770588 
L 423.294714 -470.773014 
L 421.844535 -470.773014 
L 420.394355 -470.773014 
L 418.944176 -470.773014 
L 417.493997 -470.773014 
L 416.043817 -470.773014 
L 414.593638 -470.773014 
L 413.143459 -470.773014 
L 411.693279 -470.773014 
L 410.2431 -470.773014 
L 408.792921 -470.773014 
L 407.342741 -470.773014 
L 405.892562 -470.773014 
z
" style="stroke: #d62728; stroke-opacity: 0.2"/>
    </defs>
    <g clip-path="url(#p190ab06edb)">
     <use xlink:href="#m439499643f" x="0" y="720" style="fill: #d62728; fill-opacity: 0.2; stroke: #d62728; stroke-opacity: 0.2"/>
    </g>
   </g>
   <g id="PolyCollection_4">
    <defs>
     <path id="m510770e6dc" d="M 405.892562 -470.773014 
L 405.892562 -470.773014 
L 407.342741 -470.773014 
L 408.792921 -470.773014 
L 410.2431 -470.768343 
L 411.693279 -470.737456 
L 413.143459 -470.580776 
L 414.593638 -469.959997 
L 416.043817 -468.046244 
L 417.493997 -463.459285 
L 418.944176 -454.930501 
L 420.394355 -442.674304 
L 421.844535 -424.44455 
L 423.294714 -413.098712 
L 424.744893 -406.639623 
L 426.195073 -404.21228 
L 427.645252 -403.675298 
L 429.095431 -403.754367 
L 430.54561 -405.481808 
L 431.99579 -410.307232 
L 433.445969 -418.686121 
L 434.896148 -429.103668 
L 436.346328 -446.630101 
L 437.796507 -457.347488 
L 439.246686 -464.626894 
L 440.696866 -468.492366 
L 442.147045 -470.094827 
L 443.597224 -470.612898 
L 445.047404 -470.743455 
L 446.497583 -470.769112 
L 447.947762 -470.773014 
L 449.397942 -470.773014 
L 450.848121 -470.773014 
L 452.2983 -470.773014 
L 453.74848 -470.773014 
L 455.198659 -470.773014 
L 456.648838 -470.773014 
L 458.099018 -470.773014 
L 459.549197 -470.773014 
L 460.999376 -470.773014 
L 462.449556 -470.773014 
L 463.899735 -470.773014 
L 465.349914 -470.773014 
L 466.800094 -470.773014 
L 468.250273 -470.773014 
L 469.700452 -470.773014 
L 471.150632 -470.773014 
L 472.600811 -470.773014 
L 474.05099 -470.773014 
L 475.501169 -470.772045 
L 476.951349 -470.7667 
L 478.401528 -470.740948 
L 479.851707 -470.645175 
L 481.301887 -470.375738 
L 482.752066 -469.801394 
L 484.202245 -468.883643 
L 485.652425 -467.788085 
L 487.102604 -463.904842 
L 488.552783 -466.057831 
L 490.002963 -465.559762 
L 491.453142 -462.834201 
L 492.903321 -465.572994 
L 494.353501 -464.177681 
L 495.80368 -467.599715 
L 497.253859 -468.786253 
L 498.704039 -469.515717 
L 500.154218 -469.545842 
L 501.604397 -468.877986 
L 503.054577 -467.748389 
L 504.504756 -464.257707 
L 505.954935 -465.737159 
L 507.405115 -463.166045 
L 508.855294 -465.549005 
L 510.305473 -465.945924 
L 511.755653 -463.834844 
L 513.205832 -467.625491 
L 514.656011 -468.76772 
L 516.106191 -469.738369 
L 517.55637 -470.349277 
L 519.006549 -470.636558 
L 520.456729 -470.738764 
L 521.906908 -470.766269 
L 523.357087 -470.771979 
L 524.807266 -470.773014 
L 526.257446 -470.773014 
L 527.707625 -470.773014 
L 529.157804 -470.773014 
L 530.607984 -470.773014 
L 532.058163 -470.773014 
L 533.508342 -470.773014 
L 534.958522 -470.773014 
L 536.408701 -470.773014 
L 537.85888 -470.773014 
L 539.30906 -470.773014 
L 540.759239 -470.771698 
L 542.209418 -470.762784 
L 543.659598 -470.716989 
L 545.109777 -470.533008 
L 546.559956 -469.955394 
L 548.010136 -468.534623 
L 549.460315 -465.791638 
L 550.910494 -461.630238 
L 552.360674 -452.124614 
L 553.810853 -448.021485 
L 555.261032 -444.382865 
L 556.711212 -443.428017 
L 558.161391 -444.652246 
L 559.61157 -447.9823 
L 561.06175 -450.823263 
L 562.511929 -454.483885 
L 563.962108 -461.568026 
L 565.412288 -464.478331 
L 566.862467 -464.681104 
L 568.312646 -468.133237 
L 569.762826 -469.254293 
L 571.213005 -470.028091 
L 572.663184 -470.474996 
L 574.113363 -470.678189 
L 575.563543 -470.74938 
L 577.013722 -470.76836 
L 578.463901 -470.7723 
L 579.914081 -470.773014 
L 581.36426 -470.773014 
L 582.814439 -470.773014 
L 584.264619 -470.773014 
L 585.714798 -470.773014 
L 587.164977 -470.773014 
L 588.615157 -470.773014 
L 590.065336 -470.773014 
L 591.515515 -470.773014 
L 592.965695 -470.773014 
L 594.415874 -470.773014 
L 595.866053 -470.773014 
L 597.316233 -470.773014 
L 598.766412 -470.773014 
L 600.216591 -470.773014 
L 601.666771 -470.773014 
L 603.11695 -470.773014 
L 604.567129 -470.773014 
L 606.017309 -470.773014 
L 607.467488 -470.773014 
L 608.917667 -470.773014 
L 610.367847 -470.773014 
L 611.818026 -470.773014 
L 613.268205 -470.773014 
L 614.718385 -470.773014 
L 616.168564 -470.773014 
L 617.618743 -470.773014 
L 619.068923 -470.773014 
L 620.519102 -470.773014 
L 621.969281 -470.773014 
L 623.41946 -470.773014 
L 624.86964 -470.773014 
L 626.319819 -470.773014 
L 627.769998 -470.773014 
L 629.220178 -470.773014 
L 630.670357 -470.773014 
L 632.120536 -470.773014 
L 633.570716 -470.773014 
L 635.020895 -470.773014 
L 636.471074 -470.773014 
L 636.471074 -470.773014 
L 636.471074 -470.773014 
L 635.020895 -470.773014 
L 633.570716 -470.773014 
L 632.120536 -470.773014 
L 630.670357 -470.773014 
L 629.220178 -470.773014 
L 627.769998 -470.773014 
L 626.319819 -470.773014 
L 624.86964 -470.773014 
L 623.41946 -470.773014 
L 621.969281 -470.773014 
L 620.519102 -470.773014 
L 619.068923 -470.773014 
L 617.618743 -470.773014 
L 616.168564 -470.773014 
L 614.718385 -470.773014 
L 613.268205 -470.773014 
L 611.818026 -470.773014 
L 610.367847 -470.773014 
L 608.917667 -470.773014 
L 607.467488 -470.773014 
L 606.017309 -470.773014 
L 604.567129 -470.773014 
L 603.11695 -470.773014 
L 601.666771 -470.773014 
L 600.216591 -470.773014 
L 598.766412 -470.773014 
L 597.316233 -470.773014 
L 595.866053 -470.773014 
L 594.415874 -470.773014 
L 592.965695 -470.773014 
L 591.515515 -470.773014 
L 590.065336 -470.773014 
L 588.615157 -470.773014 
L 587.164977 -470.773014 
L 585.714798 -470.773014 
L 584.264619 -470.773014 
L 582.814439 -470.773014 
L 581.36426 -470.773014 
L 579.914081 -470.773014 
L 578.463901 -470.7723 
L 577.013722 -470.76836 
L 575.563543 -470.74938 
L 574.113363 -470.678189 
L 572.663184 -470.474996 
L 571.213005 -470.028091 
L 569.762826 -469.254293 
L 568.312646 -468.133237 
L 566.862467 -468.535086 
L 565.412288 -464.478331 
L 563.962108 -461.568026 
L 562.511929 -461.61349 
L 561.06175 -458.049161 
L 559.61157 -454.56391 
L 558.161391 -453.354898 
L 556.711212 -452.799501 
L 555.261032 -453.820408 
L 553.810853 -456.235043 
L 552.360674 -461.234069 
L 550.910494 -461.630238 
L 549.460315 -465.791638 
L 548.010136 -468.534623 
L 546.559956 -469.955394 
L 545.109777 -470.533008 
L 543.659598 -470.716989 
L 542.209418 -470.762784 
L 540.759239 -470.771698 
L 539.30906 -470.773014 
L 537.85888 -470.773014 
L 536.408701 -470.773014 
L 534.958522 -470.773014 
L 533.508342 -470.773014 
L 532.058163 -470.773014 
L 530.607984 -470.773014 
L 529.157804 -470.773014 
L 527.707625 -470.773014 
L 526.257446 -470.773014 
L 524.807266 -470.773014 
L 523.357087 -470.771979 
L 521.906908 -470.766269 
L 520.456729 -470.738764 
L 519.006549 -470.636558 
L 517.55637 -470.349277 
L 516.106191 -469.738369 
L 514.656011 -468.76772 
L 513.205832 -467.625491 
L 511.755653 -469.41937 
L 510.305473 -465.945924 
L 508.855294 -465.549005 
L 507.405115 -467.69559 
L 505.954935 -465.737159 
L 504.504756 -468.876562 
L 503.054577 -467.748389 
L 501.604397 -468.877986 
L 500.154218 -469.545842 
L 498.704039 -469.515717 
L 497.253859 -468.786253 
L 495.80368 -467.599715 
L 494.353501 -468.596081 
L 492.903321 -465.572994 
L 491.453142 -467.838767 
L 490.002963 -465.559762 
L 488.552783 -466.057831 
L 487.102604 -469.685082 
L 485.652425 -467.788085 
L 484.202245 -468.883643 
L 482.752066 -469.801394 
L 481.301887 -470.375738 
L 479.851707 -470.645175 
L 478.401528 -470.740948 
L 476.951349 -470.7667 
L 475.501169 -470.772045 
L 474.05099 -470.773014 
L 472.600811 -470.773014 
L 471.150632 -470.773014 
L 469.700452 -470.773014 
L 468.250273 -470.773014 
L 466.800094 -470.773014 
L 465.349914 -470.773014 
L 463.899735 -470.773014 
L 462.449556 -470.773014 
L 460.999376 -470.773014 
L 459.549197 -470.773014 
L 458.099018 -470.773014 
L 456.648838 -470.773014 
L 455.198659 -470.773014 
L 453.74848 -470.773014 
L 452.2983 -470.773014 
L 450.848121 -470.773014 
L 449.397942 -470.773014 
L 447.947762 -470.773014 
L 446.497583 -470.769112 
L 445.047404 -470.743455 
L 443.597224 -470.612898 
L 442.147045 -470.094827 
L 440.696866 -468.492366 
L 439.246686 -464.626894 
L 437.796507 -457.347488 
L 436.346328 -446.630101 
L 434.896148 -439.417849 
L 433.445969 -427.359474 
L 431.99579 -419.574039 
L 430.54561 -415.128697 
L 429.095431 -412.565577 
L 427.645252 -411.216496 
L 426.195073 -411.783302 
L 424.744893 -415.222672 
L 423.294714 -422.645007 
L 421.844535 -433.871091 
L 420.394355 -442.674304 
L 418.944176 -454.930501 
L 417.493997 -463.459285 
L 416.043817 -468.046244 
L 414.593638 -469.959997 
L 413.143459 -470.580776 
L 411.693279 -470.737456 
L 410.2431 -470.768343 
L 408.792921 -470.773014 
L 407.342741 -470.773014 
L 405.892562 -470.773014 
z
" style="stroke: #ff7f0e; stroke-opacity: 0.2"/>
    </defs>
    <g clip-path="url(#p190ab06edb)">
     <use xlink:href="#m510770e6dc" x="0" y="720" style="fill: #ff7f0e; fill-opacity: 0.2; stroke: #ff7f0e; stroke-opacity: 0.2"/>
    </g>
   </g>
   <g id="matplotlib.axis_3">
    <g id="xtick_7">
     <g id="line2d_13">
      <g>
       <use xlink:href="#mece3c225ae" x="405.863558" y="333.490909" style="stroke: #000000; stroke-width: 0.8"/>
      </g>
     </g>
     <g id="text_13">
      <!-- 0 -->
      <g transform="translate(402.682308 348.089347)scale(0.1 -0.1)">
       <use xlink:href="#DejaVuSans-30"/>
      </g>
     </g>
    </g>
    <g id="xtick_8">
     <g id="line2d_14">
      <g>
       <use xlink:href="#mece3c225ae" x="463.870731" y="333.490909" style="stroke: #000000; stroke-width: 0.8"/>
      </g>
     </g>
     <g id="text_14">
      <!-- 2000 -->
      <g transform="translate(451.145731 348.089347)scale(0.1 -0.1)">
       <use xlink:href="#DejaVuSans-32"/>
       <use xlink:href="#DejaVuSans-30" x="63.623047"/>
       <use xlink:href="#DejaVuSans-30" x="127.246094"/>
       <use xlink:href="#DejaVuSans-30" x="190.869141"/>
      </g>
     </g>
    </g>
    <g id="xtick_9">
     <g id="line2d_15">
      <g>
       <use xlink:href="#mece3c225ae" x="521.877904" y="333.490909" style="stroke: #000000; stroke-width: 0.8"/>
      </g>
     </g>
     <g id="text_15">
      <!-- 4000 -->
      <g transform="translate(509.152904 348.089347)scale(0.1 -0.1)">
       <use xlink:href="#DejaVuSans-34"/>
       <use xlink:href="#DejaVuSans-30" x="63.623047"/>
       <use xlink:href="#DejaVuSans-30" x="127.246094"/>
       <use xlink:href="#DejaVuSans-30" x="190.869141"/>
      </g>
     </g>
    </g>
    <g id="xtick_10">
     <g id="line2d_16">
      <g>
       <use xlink:href="#mece3c225ae" x="579.885077" y="333.490909" style="stroke: #000000; stroke-width: 0.8"/>
      </g>
     </g>
     <g id="text_16">
      <!-- 6000 -->
      <g transform="translate(567.160077 348.089347)scale(0.1 -0.1)">
       <use xlink:href="#DejaVuSans-36"/>
       <use xlink:href="#DejaVuSans-30" x="63.623047"/>
       <use xlink:href="#DejaVuSans-30" x="127.246094"/>
       <use xlink:href="#DejaVuSans-30" x="190.869141"/>
      </g>
     </g>
    </g>
    <g id="xtick_11">
     <g id="line2d_17">
      <g>
       <use xlink:href="#mece3c225ae" x="637.89225" y="333.490909" style="stroke: #000000; stroke-width: 0.8"/>
      </g>
     </g>
     <g id="text_17">
      <!-- 8000 -->
      <g transform="translate(625.16725 348.089347)scale(0.1 -0.1)">
       <use xlink:href="#DejaVuSans-38"/>
       <use xlink:href="#DejaVuSans-30" x="63.623047"/>
       <use xlink:href="#DejaVuSans-30" x="127.246094"/>
       <use xlink:href="#DejaVuSans-30" x="190.869141"/>
      </g>
     </g>
    </g>
   </g>
   <g id="matplotlib.axis_4">
    <g id="ytick_7">
     <g id="line2d_18">
      <g>
       <use xlink:href="#m4346dce437" x="394.363636" y="295.77348" style="stroke: #000000; stroke-width: 0.8"/>
      </g>
     </g>
     <g id="text_18">
      <!-- −1 -->
      <g transform="translate(372.621449 299.572699)scale(0.1 -0.1)">
       <defs>
        <path id="DejaVuSans-2212" d="M 678 2272 
L 4684 2272 
L 4684 1741 
L 678 1741 
L 678 2272 
z
" transform="scale(0.015625)"/>
       </defs>
       <use xlink:href="#DejaVuSans-2212"/>
       <use xlink:href="#DejaVuSans-31" x="83.789062"/>
      </g>
     </g>
    </g>
    <g id="ytick_8">
     <g id="line2d_19">
      <g>
       <use xlink:href="#m4346dce437" x="394.363636" y="249.226986" style="stroke: #000000; stroke-width: 0.8"/>
      </g>
     </g>
     <g id="text_19">
      <!-- 0 -->
      <g transform="translate(381.001136 253.026205)scale(0.1 -0.1)">
       <use xlink:href="#DejaVuSans-30"/>
      </g>
     </g>
    </g>
    <g id="ytick_9">
     <g id="line2d_20">
      <g>
       <use xlink:href="#m4346dce437" x="394.363636" y="202.680493" style="stroke: #000000; stroke-width: 0.8"/>
      </g>
     </g>
     <g id="text_20">
      <!-- 1 -->
      <g transform="translate(381.001136 206.479712)scale(0.1 -0.1)">
       <use xlink:href="#DejaVuSans-31"/>
      </g>
     </g>
    </g>
    <g id="ytick_10">
     <g id="line2d_21">
      <g>
       <use xlink:href="#m4346dce437" x="394.363636" y="156.133999" style="stroke: #000000; stroke-width: 0.8"/>
      </g>
     </g>
     <g id="text_21">
      <!-- 2 -->
      <g transform="translate(381.001136 159.933218)scale(0.1 -0.1)">
       <use xlink:href="#DejaVuSans-32"/>
      </g>
     </g>
    </g>
    <g id="ytick_11">
     <g id="line2d_22">
      <g>
       <use xlink:href="#m4346dce437" x="394.363636" y="109.587506" style="stroke: #000000; stroke-width: 0.8"/>
      </g>
     </g>
     <g id="text_22">
      <!-- 3 -->
      <g transform="translate(381.001136 113.386724)scale(0.1 -0.1)">
       <defs>
        <path id="DejaVuSans-33" d="M 2597 2516 
Q 3050 2419 3304 2112 
Q 3559 1806 3559 1356 
Q 3559 666 3084 287 
Q 2609 -91 1734 -91 
Q 1441 -91 1130 -33 
Q 819 25 488 141 
L 488 750 
Q 750 597 1062 519 
Q 1375 441 1716 441 
Q 2309 441 2620 675 
Q 2931 909 2931 1356 
Q 2931 1769 2642 2001 
Q 2353 2234 1838 2234 
L 1294 2234 
L 1294 2753 
L 1863 2753 
Q 2328 2753 2575 2939 
Q 2822 3125 2822 3475 
Q 2822 3834 2567 4026 
Q 2313 4219 1838 4219 
Q 1578 4219 1281 4162 
Q 984 4106 628 3988 
L 628 4550 
Q 988 4650 1302 4700 
Q 1616 4750 1894 4750 
Q 2613 4750 3031 4423 
Q 3450 4097 3450 3541 
Q 3450 3153 3228 2886 
Q 3006 2619 2597 2516 
z
" transform="scale(0.015625)"/>
       </defs>
       <use xlink:href="#DejaVuSans-33"/>
      </g>
     </g>
    </g>
   </g>
   <g id="line2d_23">
    <path d="M 405.892562 133.599814 
L 407.342741 137.473267 
L 408.792921 144.484854 
L 414.593638 179.825802 
L 416.043817 187.737654 
L 417.493997 196.332034 
L 418.944176 206.37359 
L 421.844535 228.948026 
L 423.294714 238.161166 
L 424.744893 244.228167 
L 426.195073 247.390018 
L 427.645252 248.684674 
L 429.095431 249.099736 
L 431.99579 249.223941 
L 453.74848 249.354666 
L 455.198659 249.670235 
L 456.648838 250.47282 
L 458.099018 252.1024 
L 459.549197 254.776053 
L 460.999376 258.388213 
L 466.800094 274.621044 
L 468.250273 277.943645 
L 469.700452 280.169437 
L 471.150632 280.556168 
L 472.600811 278.905828 
L 474.05099 276.092103 
L 475.501169 273.705213 
L 476.951349 272.828792 
L 478.401528 272.978019 
L 479.851707 272.318952 
L 481.301887 269.261562 
L 484.202245 258.680528 
L 485.652425 255.188868 
L 487.102604 254.143172 
L 490.002963 254.84835 
L 491.453142 254.262397 
L 492.903321 253.158829 
L 494.353501 252.514395 
L 495.80368 252.908732 
L 498.704039 255.34744 
L 500.154218 256.139566 
L 501.604397 256.308332 
L 503.054577 255.902712 
L 505.954935 254.355347 
L 508.855294 253.257532 
L 510.305473 252.434313 
L 511.755653 251.405167 
L 513.205832 250.577175 
L 514.656011 250.27206 
L 516.106191 250.471801 
L 517.55637 250.860016 
L 519.006549 251.042368 
L 520.456729 250.823675 
L 524.807266 249.437032 
L 526.257446 249.160516 
L 527.707625 248.76244 
L 529.157804 247.959942 
L 530.607984 246.59295 
L 532.058163 244.907664 
L 533.508342 243.625517 
L 534.958522 243.48253 
L 536.408701 244.571846 
L 537.85888 246.249331 
L 539.30906 247.725611 
L 540.759239 248.631134 
L 542.209418 249.04113 
L 545.109777 249.218257 
L 563.962108 249.278013 
L 565.412288 249.442094 
L 566.862467 249.94685 
L 568.312646 251.152689 
L 569.762826 253.393587 
L 571.213005 256.650699 
L 578.463901 275.669447 
L 579.914081 279.806265 
L 581.36426 283.03975 
L 582.814439 284.065194 
L 584.264619 281.649091 
L 585.714798 275.605037 
L 588.615157 259.817779 
L 590.065336 254.769805 
L 591.515515 253.234185 
L 592.965695 255.398853 
L 594.415874 261.196014 
L 595.866053 270.058761 
L 598.766412 291.010184 
L 600.216591 299.747249 
L 601.666771 306.386344 
L 603.11695 311.408733 
L 604.567129 314.81784 
L 606.017309 315.224184 
L 607.467488 311.041678 
L 608.917667 302.176863 
L 610.367847 290.097989 
L 611.818026 277.039214 
L 613.268205 265.423243 
L 614.718385 257.061872 
L 616.168564 252.302291 
L 617.618743 250.189821 
L 619.068923 249.464794 
L 620.519102 249.272564 
L 626.319819 249.226986 
L 636.471074 249.226986 
L 636.471074 249.226986 
" clip-path="url(#p190ab06edb)" style="fill: none; stroke: #9467bd; stroke-width: 2; stroke-linecap: square"/>
   </g>
   <g id="line2d_24">
    <path d="M 405.892562 249.226986 
L 445.047404 249.190699 
L 446.497583 249.069338 
L 447.947762 248.68296 
L 449.397942 247.722973 
L 450.848121 245.86907 
L 452.2983 243.114093 
L 453.74848 240.046928 
L 455.198659 237.709103 
L 456.648838 237.017634 
L 458.099018 238.223473 
L 459.549197 240.805084 
L 460.999376 243.796878 
L 462.449556 246.313392 
L 463.899735 247.94268 
L 465.349914 248.767079 
L 466.800094 249.091972 
L 468.250273 249.181295 
L 469.700452 249.149713 
L 471.150632 248.955776 
L 472.600811 248.415793 
L 474.05099 247.289308 
L 475.501169 245.520603 
L 476.951349 243.453146 
L 478.401528 241.656721 
L 479.851707 240.465496 
L 481.301887 239.880715 
L 482.752066 239.944409 
L 484.202245 240.857885 
L 485.652425 242.608134 
L 487.102604 244.743814 
L 488.552783 246.651211 
L 490.002963 247.955066 
L 491.453142 248.642162 
L 492.903321 248.910056 
L 495.80368 248.976372 
L 504.504756 249.105632 
L 510.305473 249.32433 
L 511.755653 249.493051 
L 513.205832 249.813876 
L 516.106191 250.716489 
L 517.55637 250.919565 
L 519.006549 250.772334 
L 521.906908 250.027735 
L 523.357087 249.847623 
L 524.807266 249.893629 
L 527.707625 250.429125 
L 530.607984 250.974787 
L 533.508342 251.326958 
L 534.958522 251.718469 
L 537.85888 252.777832 
L 539.30906 253.05175 
L 542.209418 253.19867 
L 543.659598 253.203013 
L 545.109777 253.0507 
L 546.559956 252.634681 
L 548.010136 251.953221 
L 550.910494 250.37856 
L 552.360674 249.818016 
L 553.810853 249.483262 
L 556.711212 249.259791 
L 559.61157 249.309201 
L 561.06175 249.484767 
L 562.511929 249.924367 
L 563.962108 250.827765 
L 565.412288 252.317752 
L 566.862467 254.199276 
L 568.312646 255.839102 
L 569.762826 256.451697 
L 571.213005 255.681521 
L 575.563543 250.533656 
L 577.013722 249.721863 
L 578.463901 249.37613 
L 581.36426 249.233591 
L 610.367847 249.226986 
L 636.471074 249.226986 
L 636.471074 249.226986 
" clip-path="url(#p190ab06edb)" style="fill: none; stroke: #1f77b4; stroke-width: 2; stroke-linecap: square"/>
   </g>
   <g id="line2d_25">
    <path d="M 405.892562 249.226986 
L 427.645252 249.319366 
L 429.095431 249.61158 
L 430.54561 250.494854 
L 431.99579 252.57108 
L 433.445969 256.372312 
L 434.896148 261.810751 
L 436.346328 267.915734 
L 437.796507 273.289578 
L 439.246686 276.903143 
L 440.696866 278.509282 
L 442.147045 278.525423 
L 443.597224 277.67381 
L 445.047404 276.558196 
L 446.497583 275.283051 
L 447.947762 273.370349 
L 449.397942 270.186687 
L 450.848121 265.634679 
L 452.2983 260.452233 
L 453.74848 255.784959 
L 455.198659 252.442939 
L 456.648838 250.53322 
L 458.099018 249.661711 
L 459.549197 249.344428 
L 462.449556 249.231231 
L 497.253859 249.158447 
L 498.704039 248.955909 
L 500.154218 248.392008 
L 501.604397 247.223977 
L 504.504756 243.782241 
L 505.954935 243.057282 
L 507.405115 243.782241 
L 510.305473 247.223977 
L 511.755653 248.392008 
L 513.205832 248.955909 
L 514.656011 249.158447 
L 519.006549 249.226986 
L 527.707625 249.269099 
L 529.157804 249.39492 
L 530.607984 249.750457 
L 532.058163 250.50938 
L 533.508342 251.712662 
L 534.958522 253.085251 
L 536.408701 254.118622 
L 537.85888 254.444764 
L 539.30906 254.086397 
L 540.759239 253.315571 
L 545.109777 250.636285 
L 546.559956 249.999049 
L 548.010136 249.583619 
L 549.460315 249.362329 
L 552.360674 249.237089 
L 572.663184 249.226986 
L 577.013722 249.192422 
L 578.463901 249.038488 
L 579.914081 248.42393 
L 581.36426 246.506721 
L 582.814439 241.826474 
L 584.264619 232.865474 
L 585.714798 219.363927 
L 588.615157 187.967352 
L 590.065336 176.4456 
L 591.515515 170.125142 
L 592.965695 169.303161 
L 594.415874 173.653726 
L 595.866053 181.982179 
L 598.766412 201.485494 
L 600.216591 208.625244 
L 601.666771 213.515713 
L 603.11695 217.223837 
L 604.567129 219.893842 
L 606.017309 219.474126 
L 607.467488 213.199584 
L 608.917667 200.048106 
L 610.367847 181.431195 
L 613.268205 141.066603 
L 614.718385 126.561785 
L 616.168564 118.403077 
L 617.618743 115.82444 
L 619.068923 116.782324 
L 623.41946 123.84166 
L 624.86964 125.913783 
L 626.319819 128.538241 
L 627.769998 132.273916 
L 629.220178 137.366209 
L 630.670357 143.775771 
L 633.570716 158.823021 
L 635.020895 165.297401 
L 636.471074 169.053865 
L 636.471074 169.053865 
" clip-path="url(#p190ab06edb)" style="fill: none; stroke: #d62728; stroke-width: 2; stroke-linecap: square"/>
   </g>
   <g id="line2d_26">
    <path d="M 405.892562 249.226986 
L 411.693279 249.262544 
L 413.143459 249.419224 
L 414.593638 250.040003 
L 416.043817 251.953756 
L 417.493997 256.540715 
L 418.944176 265.069499 
L 420.394355 277.325696 
L 421.844535 290.84218 
L 423.294714 302.128141 
L 424.744893 309.068852 
L 426.195073 312.002209 
L 427.645252 312.554103 
L 429.095431 311.840028 
L 430.54561 309.694748 
L 431.99579 305.059364 
L 433.445969 296.977202 
L 434.896148 285.739241 
L 436.346328 273.369899 
L 437.796507 262.652512 
L 439.246686 255.373106 
L 440.696866 251.507634 
L 442.147045 249.905173 
L 443.597224 249.387102 
L 446.497583 249.230888 
L 476.951349 249.2333 
L 479.851707 249.354825 
L 481.301887 249.624262 
L 482.752066 250.198606 
L 484.202245 251.116357 
L 487.102604 253.205038 
L 488.552783 253.942169 
L 490.002963 254.440238 
L 491.453142 254.663516 
L 492.903321 254.427006 
L 494.353501 253.613119 
L 497.253859 251.213747 
L 498.704039 250.484283 
L 500.154218 250.454158 
L 501.604397 251.122014 
L 504.504756 253.432866 
L 505.954935 254.262841 
L 507.405115 254.569182 
L 508.855294 254.450995 
L 510.305473 254.054076 
L 511.755653 253.372893 
L 513.205832 252.374509 
L 514.656011 251.23228 
L 516.106191 250.261631 
L 517.55637 249.650723 
L 519.006549 249.363442 
L 521.906908 249.233731 
L 542.209418 249.237216 
L 543.659598 249.283011 
L 545.109777 249.466992 
L 546.559956 250.044606 
L 548.010136 251.465377 
L 549.460315 254.208362 
L 550.910494 258.369762 
L 552.360674 263.320658 
L 553.810853 267.871736 
L 555.261032 270.898363 
L 556.711212 271.886241 
L 558.161391 270.996428 
L 559.61157 268.726895 
L 561.06175 265.563788 
L 563.962108 258.431974 
L 565.412288 255.521669 
L 566.862467 253.391905 
L 568.312646 251.866763 
L 569.762826 250.745707 
L 571.213005 249.971909 
L 572.663184 249.525004 
L 574.113363 249.321811 
L 577.013722 249.23164 
L 619.068923 249.226986 
L 636.471074 249.226986 
L 636.471074 249.226986 
" clip-path="url(#p190ab06edb)" style="fill: none; stroke: #ff7f0e; stroke-width: 2; stroke-linecap: square"/>
   </g>
   <g id="LineCollection_1">
    <path d="M 521.877904 307.433937 
L 521.877904 121.350066 
" clip-path="url(#p190ab06edb)" style="fill: none; stroke-dasharray: 7.4,3.2; stroke-dashoffset: 0; stroke: #000000; stroke-width: 2"/>
    <path d="M 536.379697 307.433937 
L 536.379697 121.350066 
" clip-path="url(#p190ab06edb)" style="fill: none; stroke-dasharray: 7.4,3.2; stroke-dashoffset: 0; stroke: #000000; stroke-width: 2"/>
    <path d="M 565.383284 307.433937 
L 565.383284 121.350066 
" clip-path="url(#p190ab06edb)" style="fill: none; stroke-dasharray: 7.4,3.2; stroke-dashoffset: 0; stroke: #000000; stroke-width: 2"/>
    <path d="M 623.390457 307.433937 
L 623.390457 121.350066 
" clip-path="url(#p190ab06edb)" style="fill: none; stroke-dasharray: 7.4,3.2; stroke-dashoffset: 0; stroke: #000000; stroke-width: 2"/>
   </g>
   <g id="patch_8">
    <path d="M 394.363636 333.490909 
L 394.363636 86.4 
" style="fill: none; stroke: #000000; stroke-width: 0.8; stroke-linejoin: miter; stroke-linecap: square"/>
   </g>
   <g id="patch_9">
    <path d="M 648 333.490909 
L 648 86.4 
" style="fill: none; stroke: #000000; stroke-width: 0.8; stroke-linejoin: miter; stroke-linecap: square"/>
   </g>
   <g id="patch_10">
    <path d="M 394.363636 333.490909 
L 648 333.490909 
" style="fill: none; stroke: #000000; stroke-width: 0.8; stroke-linejoin: miter; stroke-linecap: square"/>
   </g>
   <g id="patch_11">
    <path d="M 394.363636 86.4 
L 648 86.4 
" style="fill: none; stroke: #000000; stroke-width: 0.8; stroke-linejoin: miter; stroke-linecap: square"/>
   </g>
   <g id="text_23">
    <!-- unit_28 -->
    <g transform="translate(498.922756 80.4)scale(0.12 -0.12)">
     <defs>
      <path id="DejaVuSans-75" d="M 544 1381 
L 544 3500 
L 1119 3500 
L 1119 1403 
Q 1119 906 1312 657 
Q 1506 409 1894 409 
Q 2359 409 2629 706 
Q 2900 1003 2900 1516 
L 2900 3500 
L 3475 3500 
L 3475 0 
L 2900 0 
L 2900 538 
Q 2691 219 2414 64 
Q 2138 -91 1772 -91 
Q 1169 -91 856 284 
Q 544 659 544 1381 
z
M 1991 3584 
L 1991 3584 
z
" transform="scale(0.015625)"/>
      <path id="DejaVuSans-6e" d="M 3513 2113 
L 3513 0 
L 2938 0 
L 2938 2094 
Q 2938 2591 2744 2837 
Q 2550 3084 2163 3084 
Q 1697 3084 1428 2787 
Q 1159 2491 1159 1978 
L 1159 0 
L 581 0 
L 581 3500 
L 1159 3500 
L 1159 2956 
Q 1366 3272 1645 3428 
Q 1925 3584 2291 3584 
Q 2894 3584 3203 3211 
Q 3513 2838 3513 2113 
z
" transform="scale(0.015625)"/>
      <path id="DejaVuSans-69" d="M 603 3500 
L 1178 3500 
L 1178 0 
L 603 0 
L 603 3500 
z
M 603 4863 
L 1178 4863 
L 1178 4134 
L 603 4134 
L 603 4863 
z
" transform="scale(0.015625)"/>
      <path id="DejaVuSans-74" d="M 1172 4494 
L 1172 3500 
L 2356 3500 
L 2356 3053 
L 1172 3053 
L 1172 1153 
Q 1172 725 1289 603 
Q 1406 481 1766 481 
L 2356 481 
L 2356 0 
L 1766 0 
Q 1100 0 847 248 
Q 594 497 594 1153 
L 594 3053 
L 172 3053 
L 172 3500 
L 594 3500 
L 594 4494 
L 1172 4494 
z
" transform="scale(0.015625)"/>
      <path id="DejaVuSans-5f" d="M 3263 -1063 
L 3263 -1509 
L -63 -1509 
L -63 -1063 
L 3263 -1063 
z
" transform="scale(0.015625)"/>
     </defs>
     <use xlink:href="#DejaVuSans-75"/>
     <use xlink:href="#DejaVuSans-6e" x="63.378906"/>
     <use xlink:href="#DejaVuSans-69" x="126.757812"/>
     <use xlink:href="#DejaVuSans-74" x="154.541016"/>
     <use xlink:href="#DejaVuSans-5f" x="193.75"/>
     <use xlink:href="#DejaVuSans-32" x="243.75"/>
     <use xlink:href="#DejaVuSans-38" x="307.373047"/>
    </g>
   </g>
  </g>
  <g id="axes_3">
   <g id="patch_12">
    <path d="M 90 630 
L 343.636364 630 
L 343.636364 382.909091 
L 90 382.909091 
z
" style="fill: #ffffff"/>
   </g>
   <g id="matplotlib.axis_5">
    <g id="xtick_12">
     <g id="line2d_27">
      <g>
       <use xlink:href="#mece3c225ae" x="90" y="630" style="stroke: #000000; stroke-width: 0.8"/>
      </g>
     </g>
     <g id="text_24">
      <!-- 0.0 -->
      <g transform="translate(82.048438 644.598437)scale(0.1 -0.1)">
       <use xlink:href="#DejaVuSans-30"/>
       <use xlink:href="#DejaVuSans-2e" x="63.623047"/>
       <use xlink:href="#DejaVuSans-30" x="95.410156"/>
      </g>
     </g>
    </g>
    <g id="xtick_13">
     <g id="line2d_28">
      <g>
       <use xlink:href="#mece3c225ae" x="140.727273" y="630" style="stroke: #000000; stroke-width: 0.8"/>
      </g>
     </g>
     <g id="text_25">
      <!-- 0.2 -->
      <g transform="translate(132.77571 644.598437)scale(0.1 -0.1)">
       <use xlink:href="#DejaVuSans-30"/>
       <use xlink:href="#DejaVuSans-2e" x="63.623047"/>
       <use xlink:href="#DejaVuSans-32" x="95.410156"/>
      </g>
     </g>
    </g>
    <g id="xtick_14">
     <g id="line2d_29">
      <g>
       <use xlink:href="#mece3c225ae" x="191.454545" y="630" style="stroke: #000000; stroke-width: 0.8"/>
      </g>
     </g>
     <g id="text_26">
      <!-- 0.4 -->
      <g transform="translate(183.502983 644.598437)scale(0.1 -0.1)">
       <use xlink:href="#DejaVuSans-30"/>
       <use xlink:href="#DejaVuSans-2e" x="63.623047"/>
       <use xlink:href="#DejaVuSans-34" x="95.410156"/>
      </g>
     </g>
    </g>
    <g id="xtick_15">
     <g id="line2d_30">
      <g>
       <use xlink:href="#mece3c225ae" x="242.181818" y="630" style="stroke: #000000; stroke-width: 0.8"/>
      </g>
     </g>
     <g id="text_27">
      <!-- 0.6 -->
      <g transform="translate(234.230256 644.598437)scale(0.1 -0.1)">
       <use xlink:href="#DejaVuSans-30"/>
       <use xlink:href="#DejaVuSans-2e" x="63.623047"/>
       <use xlink:href="#DejaVuSans-36" x="95.410156"/>
      </g>
     </g>
    </g>
    <g id="xtick_16">
     <g id="line2d_31">
      <g>
       <use xlink:href="#mece3c225ae" x="292.909091" y="630" style="stroke: #000000; stroke-width: 0.8"/>
      </g>
     </g>
     <g id="text_28">
      <!-- 0.8 -->
      <g transform="translate(284.957528 644.598437)scale(0.1 -0.1)">
       <use xlink:href="#DejaVuSans-30"/>
       <use xlink:href="#DejaVuSans-2e" x="63.623047"/>
       <use xlink:href="#DejaVuSans-38" x="95.410156"/>
      </g>
     </g>
    </g>
    <g id="xtick_17">
     <g id="line2d_32">
      <g>
       <use xlink:href="#mece3c225ae" x="343.636364" y="630" style="stroke: #000000; stroke-width: 0.8"/>
      </g>
     </g>
     <g id="text_29">
      <!-- 1.0 -->
      <g transform="translate(335.684801 644.598437)scale(0.1 -0.1)">
       <use xlink:href="#DejaVuSans-31"/>
       <use xlink:href="#DejaVuSans-2e" x="63.623047"/>
       <use xlink:href="#DejaVuSans-30" x="95.410156"/>
      </g>
     </g>
    </g>
   </g>
   <g id="matplotlib.axis_6">
    <g id="ytick_12">
     <g id="line2d_33">
      <g>
       <use xlink:href="#m4346dce437" x="90" y="630" style="stroke: #000000; stroke-width: 0.8"/>
      </g>
     </g>
     <g id="text_30">
      <!-- 0.0 -->
      <g transform="translate(67.096875 633.799219)scale(0.1 -0.1)">
       <use xlink:href="#DejaVuSans-30"/>
       <use xlink:href="#DejaVuSans-2e" x="63.623047"/>
       <use xlink:href="#DejaVuSans-30" x="95.410156"/>
      </g>
     </g>
    </g>
    <g id="ytick_13">
     <g id="line2d_34">
      <g>
       <use xlink:href="#m4346dce437" x="90" y="580.581818" style="stroke: #000000; stroke-width: 0.8"/>
      </g>
     </g>
     <g id="text_31">
      <!-- 0.2 -->
      <g transform="translate(67.096875 584.381037)scale(0.1 -0.1)">
       <use xlink:href="#DejaVuSans-30"/>
       <use xlink:href="#DejaVuSans-2e" x="63.623047"/>
       <use xlink:href="#DejaVuSans-32" x="95.410156"/>
      </g>
     </g>
    </g>
    <g id="ytick_14">
     <g id="line2d_35">
      <g>
       <use xlink:href="#m4346dce437" x="90" y="531.163636" style="stroke: #000000; stroke-width: 0.8"/>
      </g>
     </g>
     <g id="text_32">
      <!-- 0.4 -->
      <g transform="translate(67.096875 534.962855)scale(0.1 -0.1)">
       <use xlink:href="#DejaVuSans-30"/>
       <use xlink:href="#DejaVuSans-2e" x="63.623047"/>
       <use xlink:href="#DejaVuSans-34" x="95.410156"/>
      </g>
     </g>
    </g>
    <g id="ytick_15">
     <g id="line2d_36">
      <g>
       <use xlink:href="#m4346dce437" x="90" y="481.745455" style="stroke: #000000; stroke-width: 0.8"/>
      </g>
     </g>
     <g id="text_33">
      <!-- 0.6 -->
      <g transform="translate(67.096875 485.544673)scale(0.1 -0.1)">
       <use xlink:href="#DejaVuSans-30"/>
       <use xlink:href="#DejaVuSans-2e" x="63.623047"/>
       <use xlink:href="#DejaVuSans-36" x="95.410156"/>
      </g>
     </g>
    </g>
    <g id="ytick_16">
     <g id="line2d_37">
      <g>
       <use xlink:href="#m4346dce437" x="90" y="432.327273" style="stroke: #000000; stroke-width: 0.8"/>
      </g>
     </g>
     <g id="text_34">
      <!-- 0.8 -->
      <g transform="translate(67.096875 436.126491)scale(0.1 -0.1)">
       <use xlink:href="#DejaVuSans-30"/>
       <use xlink:href="#DejaVuSans-2e" x="63.623047"/>
       <use xlink:href="#DejaVuSans-38" x="95.410156"/>
      </g>
     </g>
    </g>
    <g id="ytick_17">
     <g id="line2d_38">
      <g>
       <use xlink:href="#m4346dce437" x="90" y="382.909091" style="stroke: #000000; stroke-width: 0.8"/>
      </g>
     </g>
     <g id="text_35">
      <!-- 1.0 -->
      <g transform="translate(67.096875 386.70831)scale(0.1 -0.1)">
       <use xlink:href="#DejaVuSans-31"/>
       <use xlink:href="#DejaVuSans-2e" x="63.623047"/>
       <use xlink:href="#DejaVuSans-30" x="95.410156"/>
      </g>
     </g>
    </g>
   </g>
   <g id="patch_13">
    <path d="M 90 630 
L 90 382.909091 
" style="fill: none; stroke: #000000; stroke-width: 0.8; stroke-linejoin: miter; stroke-linecap: square"/>
   </g>
   <g id="patch_14">
    <path d="M 343.636364 630 
L 343.636364 382.909091 
" style="fill: none; stroke: #000000; stroke-width: 0.8; stroke-linejoin: miter; stroke-linecap: square"/>
   </g>
   <g id="patch_15">
    <path d="M 90 630 
L 343.636364 630 
" style="fill: none; stroke: #000000; stroke-width: 0.8; stroke-linejoin: miter; stroke-linecap: square"/>
   </g>
   <g id="patch_16">
    <path d="M 90 382.909091 
L 343.636364 382.909091 
" style="fill: none; stroke: #000000; stroke-width: 0.8; stroke-linejoin: miter; stroke-linecap: square"/>
   </g>
  </g>
  <g id="axes_4">
   <g id="patch_17">
    <path d="M 394.363636 630 
L 648 630 
L 648 382.909091 
L 394.363636 382.909091 
z
" style="fill: #ffffff"/>
   </g>
   <g id="matplotlib.axis_7">
    <g id="xtick_18">
     <g id="line2d_39">
      <g>
       <use xlink:href="#mece3c225ae" x="405.863558" y="630" style="stroke: #000000; stroke-width: 0.8"/>
      </g>
     </g>
     <g id="text_36">
      <!-- 0 -->
      <g transform="translate(402.682308 644.598437)scale(0.1 -0.1)">
       <use xlink:href="#DejaVuSans-30"/>
      </g>
     </g>
    </g>
    <g id="xtick_19">
     <g id="line2d_40">
      <g>
       <use xlink:href="#mece3c225ae" x="463.870731" y="630" style="stroke: #000000; stroke-width: 0.8"/>
      </g>
     </g>
     <g id="text_37">
      <!-- 2000 -->
      <g transform="translate(451.145731 644.598437)scale(0.1 -0.1)">
       <use xlink:href="#DejaVuSans-32"/>
       <use xlink:href="#DejaVuSans-30" x="63.623047"/>
       <use xlink:href="#DejaVuSans-30" x="127.246094"/>
       <use xlink:href="#DejaVuSans-30" x="190.869141"/>
      </g>
     </g>
    </g>
    <g id="xtick_20">
     <g id="line2d_41">
      <g>
       <use xlink:href="#mece3c225ae" x="521.877904" y="630" style="stroke: #000000; stroke-width: 0.8"/>
      </g>
     </g>
     <g id="text_38">
      <!-- 4000 -->
      <g transform="translate(509.152904 644.598437)scale(0.1 -0.1)">
       <use xlink:href="#DejaVuSans-34"/>
       <use xlink:href="#DejaVuSans-30" x="63.623047"/>
       <use xlink:href="#DejaVuSans-30" x="127.246094"/>
       <use xlink:href="#DejaVuSans-30" x="190.869141"/>
      </g>
     </g>
    </g>
    <g id="xtick_21">
     <g id="line2d_42">
      <g>
       <use xlink:href="#mece3c225ae" x="579.885077" y="630" style="stroke: #000000; stroke-width: 0.8"/>
      </g>
     </g>
     <g id="text_39">
      <!-- 6000 -->
      <g transform="translate(567.160077 644.598437)scale(0.1 -0.1)">
       <use xlink:href="#DejaVuSans-36"/>
       <use xlink:href="#DejaVuSans-30" x="63.623047"/>
       <use xlink:href="#DejaVuSans-30" x="127.246094"/>
       <use xlink:href="#DejaVuSans-30" x="190.869141"/>
      </g>
     </g>
    </g>
    <g id="xtick_22">
     <g id="line2d_43">
      <g>
       <use xlink:href="#mece3c225ae" x="637.89225" y="630" style="stroke: #000000; stroke-width: 0.8"/>
      </g>
     </g>
     <g id="text_40">
      <!-- 8000 -->
      <g transform="translate(625.16725 644.598437)scale(0.1 -0.1)">
       <use xlink:href="#DejaVuSans-38"/>
       <use xlink:href="#DejaVuSans-30" x="63.623047"/>
       <use xlink:href="#DejaVuSans-30" x="127.246094"/>
       <use xlink:href="#DejaVuSans-30" x="190.869141"/>
      </g>
     </g>
    </g>
   </g>
   <g id="matplotlib.axis_8">
    <g id="ytick_18">
     <g id="line2d_44">
      <g>
       <use xlink:href="#m4346dce437" x="394.363636" y="609.082826" style="stroke: #000000; stroke-width: 0.8"/>
      </g>
     </g>
     <g id="text_41">
      <!-- 0 -->
      <g transform="translate(381.001136 612.882044)scale(0.1 -0.1)">
       <use xlink:href="#DejaVuSans-30"/>
      </g>
     </g>
    </g>
    <g id="ytick_19">
     <g id="line2d_45">
      <g>
       <use xlink:href="#m4346dce437" x="394.363636" y="556.78989" style="stroke: #000000; stroke-width: 0.8"/>
      </g>
     </g>
     <g id="text_42">
      <!-- 5 -->
      <g transform="translate(381.001136 560.589109)scale(0.1 -0.1)">
       <defs>
        <path id="DejaVuSans-35" d="M 691 4666 
L 3169 4666 
L 3169 4134 
L 1269 4134 
L 1269 2991 
Q 1406 3038 1543 3061 
Q 1681 3084 1819 3084 
Q 2600 3084 3056 2656 
Q 3513 2228 3513 1497 
Q 3513 744 3044 326 
Q 2575 -91 1722 -91 
Q 1428 -91 1123 -41 
Q 819 9 494 109 
L 494 744 
Q 775 591 1075 516 
Q 1375 441 1709 441 
Q 2250 441 2565 725 
Q 2881 1009 2881 1497 
Q 2881 1984 2565 2268 
Q 2250 2553 1709 2553 
Q 1456 2553 1204 2497 
Q 953 2441 691 2322 
L 691 4666 
z
" transform="scale(0.015625)"/>
       </defs>
       <use xlink:href="#DejaVuSans-35"/>
      </g>
     </g>
    </g>
    <g id="ytick_20">
     <g id="line2d_46">
      <g>
       <use xlink:href="#m4346dce437" x="394.363636" y="504.496954" style="stroke: #000000; stroke-width: 0.8"/>
      </g>
     </g>
     <g id="text_43">
      <!-- 10 -->
      <g transform="translate(374.638636 508.296173)scale(0.1 -0.1)">
       <use xlink:href="#DejaVuSans-31"/>
       <use xlink:href="#DejaVuSans-30" x="63.623047"/>
      </g>
     </g>
    </g>
    <g id="ytick_21">
     <g id="line2d_47">
      <g>
       <use xlink:href="#m4346dce437" x="394.363636" y="452.204019" style="stroke: #000000; stroke-width: 0.8"/>
      </g>
     </g>
     <g id="text_44">
      <!-- 15 -->
      <g transform="translate(374.638636 456.003238)scale(0.1 -0.1)">
       <use xlink:href="#DejaVuSans-31"/>
       <use xlink:href="#DejaVuSans-35" x="63.623047"/>
      </g>
     </g>
    </g>
    <g id="ytick_22">
     <g id="line2d_48">
      <g>
       <use xlink:href="#m4346dce437" x="394.363636" y="399.911083" style="stroke: #000000; stroke-width: 0.8"/>
      </g>
     </g>
     <g id="text_45">
      <!-- 20 -->
      <g transform="translate(374.638636 403.710302)scale(0.1 -0.1)">
       <use xlink:href="#DejaVuSans-32"/>
       <use xlink:href="#DejaVuSans-30" x="63.623047"/>
      </g>
     </g>
    </g>
   </g>
   <g id="line2d_49">
    <path d="M 405.892562 382.909091 
L 407.342741 389.243442 
L 408.792921 400.028044 
L 410.2431 421.816497 
L 411.693279 449.327069 
L 413.143459 469.883409 
L 414.593638 484.88347 
L 416.043817 501.173628 
L 417.493997 519.593692 
L 418.944176 531.752393 
L 420.394355 539.738255 
L 421.844535 546.437248 
L 423.294714 547.415986 
L 424.744893 550.395271 
L 426.195073 564.668997 
L 427.645252 590.420457 
L 429.095431 619.884621 
L 431.99579 689.231945 
L 433.445969 704.793884 
L 434.896148 682.272098 
L 436.346328 626.532528 
L 437.796507 585.348997 
L 439.246686 560.790718 
L 440.696866 553.642805 
L 442.147045 568.216288 
L 443.597224 588.960972 
L 445.047404 597.384795 
L 447.947762 573.956129 
L 449.397942 577.498193 
L 450.848121 592.002744 
L 452.2983 604.718851 
L 453.74848 608.590935 
L 455.198659 607.840037 
L 456.648838 605.95286 
L 458.099018 606.580721 
L 459.549197 616.065498 
L 460.999376 629.512807 
L 462.449556 635.390078 
L 463.899735 645.120577 
L 465.349914 662.771927 
L 466.800094 679.047511 
L 468.250273 699.632611 
L 469.700452 712.434748 
L 470.814335 721 
M 472.66409 721 
L 474.05099 699.102585 
L 475.028617 721 
M 483.994423 721 
L 484.202245 685.490671 
L 485.652425 631.360116 
L 487.102604 643.313788 
L 488.552783 664.452137 
L 490.002963 691.846815 
L 491.453142 684.970399 
L 492.903321 658.747945 
L 494.353501 648.865218 
L 495.80368 654.102237 
L 497.140181 721 
M 501.476992 721 
L 501.604397 718.64287 
L 501.682725 721 
M 506.971778 721 
L 507.405115 706.887101 
L 508.855294 667.63809 
L 510.305473 650.722692 
L 511.755653 642.540481 
L 513.205832 626.691371 
L 514.656011 613.476737 
L 516.106191 613.121341 
L 517.55637 620.792965 
L 519.006549 625.368641 
L 521.906908 611.115041 
L 523.357087 609.253601 
L 524.807266 609.088416 
L 527.707625 609.164111 
L 529.157804 610.296962 
L 530.607984 617.438775 
L 532.058163 638.870014 
L 533.508342 673.596653 
L 534.958522 715.686385 
L 535.419148 721 
M 536.827516 721 
L 537.85888 692.889367 
L 539.30906 659.265616 
L 540.759239 642.405052 
L 542.209418 630.473947 
L 543.659598 626.966513 
L 545.109777 619.252092 
L 546.559956 612.367512 
L 548.010136 610.589333 
L 549.460315 610.274448 
L 550.910494 611.457565 
L 552.360674 612.037342 
L 553.810853 608.306663 
L 555.261032 602.962943 
L 556.711212 600.133665 
L 558.161391 601.634494 
L 559.61157 605.006629 
L 561.06175 607.823655 
L 562.511929 609.25687 
L 563.962108 609.470834 
L 565.412288 608.761711 
L 566.862467 607.527152 
L 568.312646 607.509059 
L 569.762826 610.075097 
L 571.213005 620.535333 
L 572.663184 640.401497 
L 574.113363 655.348814 
L 575.563543 648.309881 
L 577.013722 610.900364 
L 578.463901 566.511992 
L 579.914081 548.970238 
L 581.36426 542.106102 
L 582.814439 519.298599 
L 584.264619 503.296291 
L 585.714798 510.148395 
L 587.164977 520.669344 
L 588.615157 516.188362 
L 590.065336 513.688379 
L 592.965695 525.969703 
L 594.415874 533.117663 
L 595.866053 535.76923 
L 597.316233 530.85752 
L 598.766412 527.659047 
L 600.216591 529.334982 
L 601.666771 529.141629 
L 603.11695 526.262638 
L 604.567129 523.096951 
L 606.017309 524.084921 
L 608.917667 537.70565 
L 610.367847 536.757014 
L 611.818026 535.260857 
L 613.268205 531.212739 
L 614.718385 521.71895 
L 616.168564 515.950985 
L 617.618743 517.976615 
L 619.068923 517.488109 
L 620.519102 511.702315 
L 621.969281 503.890379 
L 623.41946 494.610786 
L 624.86964 487.488441 
L 626.319819 482.223421 
L 627.769998 483.059676 
L 629.220178 492.375353 
L 630.670357 506.29451 
L 632.120536 522.072649 
L 633.570716 543.006681 
L 635.020895 561.221686 
L 636.471074 567.967001 
L 636.471074 567.967001 
" clip-path="url(#pb63c4233f2)" style="fill: none; stroke: #1f77b4; stroke-width: 1.5; stroke-linecap: square"/>
   </g>
   <g id="patch_18">
    <path d="M 394.363636 630 
L 394.363636 382.909091 
" style="fill: none; stroke: #000000; stroke-width: 0.8; stroke-linejoin: miter; stroke-linecap: square"/>
   </g>
   <g id="patch_19">
    <path d="M 648 630 
L 648 382.909091 
" style="fill: none; stroke: #000000; stroke-width: 0.8; stroke-linejoin: miter; stroke-linecap: square"/>
   </g>
   <g id="patch_20">
    <path d="M 394.363636 630 
L 648 630 
" style="fill: none; stroke: #000000; stroke-width: 0.8; stroke-linejoin: miter; stroke-linecap: square"/>
   </g>
   <g id="patch_21">
    <path d="M 394.363636 382.909091 
L 648 382.909091 
" style="fill: none; stroke: #000000; stroke-width: 0.8; stroke-linejoin: miter; stroke-linecap: square"/>
   </g>
   <g id="text_46">
    <!-- explained variance -->
    <g transform="translate(464.181818 376.909091)scale(0.12 -0.12)">
     <defs>
      <path id="DejaVuSans-65" d="M 3597 1894 
L 3597 1613 
L 953 1613 
Q 991 1019 1311 708 
Q 1631 397 2203 397 
Q 2534 397 2845 478 
Q 3156 559 3463 722 
L 3463 178 
Q 3153 47 2828 -22 
Q 2503 -91 2169 -91 
Q 1331 -91 842 396 
Q 353 884 353 1716 
Q 353 2575 817 3079 
Q 1281 3584 2069 3584 
Q 2775 3584 3186 3129 
Q 3597 2675 3597 1894 
z
M 3022 2063 
Q 3016 2534 2758 2815 
Q 2500 3097 2075 3097 
Q 1594 3097 1305 2825 
Q 1016 2553 972 2059 
L 3022 2063 
z
" transform="scale(0.015625)"/>
      <path id="DejaVuSans-78" d="M 3513 3500 
L 2247 1797 
L 3578 0 
L 2900 0 
L 1881 1375 
L 863 0 
L 184 0 
L 1544 1831 
L 300 3500 
L 978 3500 
L 1906 2253 
L 2834 3500 
L 3513 3500 
z
" transform="scale(0.015625)"/>
      <path id="DejaVuSans-70" d="M 1159 525 
L 1159 -1331 
L 581 -1331 
L 581 3500 
L 1159 3500 
L 1159 2969 
Q 1341 3281 1617 3432 
Q 1894 3584 2278 3584 
Q 2916 3584 3314 3078 
Q 3713 2572 3713 1747 
Q 3713 922 3314 415 
Q 2916 -91 2278 -91 
Q 1894 -91 1617 61 
Q 1341 213 1159 525 
z
M 3116 1747 
Q 3116 2381 2855 2742 
Q 2594 3103 2138 3103 
Q 1681 3103 1420 2742 
Q 1159 2381 1159 1747 
Q 1159 1113 1420 752 
Q 1681 391 2138 391 
Q 2594 391 2855 752 
Q 3116 1113 3116 1747 
z
" transform="scale(0.015625)"/>
      <path id="DejaVuSans-6c" d="M 603 4863 
L 1178 4863 
L 1178 0 
L 603 0 
L 603 4863 
z
" transform="scale(0.015625)"/>
      <path id="DejaVuSans-61" d="M 2194 1759 
Q 1497 1759 1228 1600 
Q 959 1441 959 1056 
Q 959 750 1161 570 
Q 1363 391 1709 391 
Q 2188 391 2477 730 
Q 2766 1069 2766 1631 
L 2766 1759 
L 2194 1759 
z
M 3341 1997 
L 3341 0 
L 2766 0 
L 2766 531 
Q 2569 213 2275 61 
Q 1981 -91 1556 -91 
Q 1019 -91 701 211 
Q 384 513 384 1019 
Q 384 1609 779 1909 
Q 1175 2209 1959 2209 
L 2766 2209 
L 2766 2266 
Q 2766 2663 2505 2880 
Q 2244 3097 1772 3097 
Q 1472 3097 1187 3025 
Q 903 2953 641 2809 
L 641 3341 
Q 956 3463 1253 3523 
Q 1550 3584 1831 3584 
Q 2591 3584 2966 3190 
Q 3341 2797 3341 1997 
z
" transform="scale(0.015625)"/>
      <path id="DejaVuSans-64" d="M 2906 2969 
L 2906 4863 
L 3481 4863 
L 3481 0 
L 2906 0 
L 2906 525 
Q 2725 213 2448 61 
Q 2172 -91 1784 -91 
Q 1150 -91 751 415 
Q 353 922 353 1747 
Q 353 2572 751 3078 
Q 1150 3584 1784 3584 
Q 2172 3584 2448 3432 
Q 2725 3281 2906 2969 
z
M 947 1747 
Q 947 1113 1208 752 
Q 1469 391 1925 391 
Q 2381 391 2643 752 
Q 2906 1113 2906 1747 
Q 2906 2381 2643 2742 
Q 2381 3103 1925 3103 
Q 1469 3103 1208 2742 
Q 947 2381 947 1747 
z
" transform="scale(0.015625)"/>
      <path id="DejaVuSans-20" transform="scale(0.015625)"/>
      <path id="DejaVuSans-76" d="M 191 3500 
L 800 3500 
L 1894 563 
L 2988 3500 
L 3597 3500 
L 2284 0 
L 1503 0 
L 191 3500 
z
" transform="scale(0.015625)"/>
      <path id="DejaVuSans-72" d="M 2631 2963 
Q 2534 3019 2420 3045 
Q 2306 3072 2169 3072 
Q 1681 3072 1420 2755 
Q 1159 2438 1159 1844 
L 1159 0 
L 581 0 
L 581 3500 
L 1159 3500 
L 1159 2956 
Q 1341 3275 1631 3429 
Q 1922 3584 2338 3584 
Q 2397 3584 2469 3576 
Q 2541 3569 2628 3553 
L 2631 2963 
z
" transform="scale(0.015625)"/>
      <path id="DejaVuSans-63" d="M 3122 3366 
L 3122 2828 
Q 2878 2963 2633 3030 
Q 2388 3097 2138 3097 
Q 1578 3097 1268 2742 
Q 959 2388 959 1747 
Q 959 1106 1268 751 
Q 1578 397 2138 397 
Q 2388 397 2633 464 
Q 2878 531 3122 666 
L 3122 134 
Q 2881 22 2623 -34 
Q 2366 -91 2075 -91 
Q 1284 -91 818 406 
Q 353 903 353 1747 
Q 353 2603 823 3093 
Q 1294 3584 2113 3584 
Q 2378 3584 2631 3529 
Q 2884 3475 3122 3366 
z
" transform="scale(0.015625)"/>
     </defs>
     <use xlink:href="#DejaVuSans-65"/>
     <use xlink:href="#DejaVuSans-78" x="59.773438"/>
     <use xlink:href="#DejaVuSans-70" x="118.953125"/>
     <use xlink:href="#DejaVuSans-6c" x="182.429688"/>
     <use xlink:href="#DejaVuSans-61" x="210.212891"/>
     <use xlink:href="#DejaVuSans-69" x="271.492188"/>
     <use xlink:href="#DejaVuSans-6e" x="299.275391"/>
     <use xlink:href="#DejaVuSans-65" x="362.654297"/>
     <use xlink:href="#DejaVuSans-64" x="424.177734"/>
     <use xlink:href="#DejaVuSans-20" x="487.654297"/>
     <use xlink:href="#DejaVuSans-76" x="519.441406"/>
     <use xlink:href="#DejaVuSans-61" x="578.621094"/>
     <use xlink:href="#DejaVuSans-72" x="639.900391"/>
     <use xlink:href="#DejaVuSans-69" x="681.013672"/>
     <use xlink:href="#DejaVuSans-61" x="708.796875"/>
     <use xlink:href="#DejaVuSans-6e" x="770.076172"/>
     <use xlink:href="#DejaVuSans-63" x="833.455078"/>
     <use xlink:href="#DejaVuSans-65" x="888.435547"/>
    </g>
   </g>
  </g>
 </g>
 <defs>
  <clipPath id="p190ab06edb">
   <rect x="394.363636" y="86.4" width="253.636364" height="247.090909"/>
  </clipPath>
  <clipPath id="pb63c4233f2">
   <rect x="394.363636" y="382.909091" width="253.636364" height="247.090909"/>
  </clipPath>
 </defs>
</svg>
