<?xml version="1.0" encoding="utf-8" standalone="no"?>
<!DOCTYPE svg PUBLIC "-//W3C//DTD SVG 1.1//EN"
  "http://www.w3.org/Graphics/SVG/1.1/DTD/svg11.dtd">
<svg xmlns:xlink="http://www.w3.org/1999/xlink" width="720pt" height="720pt" viewBox="0 0 720 720" xmlns="http://www.w3.org/2000/svg" version="1.1">
 <metadata>
  <rdf:RDF xmlns:dc="http://purl.org/dc/elements/1.1/" xmlns:cc="http://creativecommons.org/ns#" xmlns:rdf="http://www.w3.org/1999/02/22-rdf-syntax-ns#">
   <cc:Work>
    <dc:type rdf:resource="http://purl.org/dc/dcmitype/StillImage"/>
    <dc:date>2023-12-19T18:14:34.750510</dc:date>
    <dc:format>image/svg+xml</dc:format>
    <dc:creator>
     <cc:Agent>
      <dc:title>Matplotlib v3.5.2, https://matplotlib.org/</dc:title>
     </cc:Agent>
    </dc:creator>
   </cc:Work>
  </rdf:RDF>
 </metadata>
 <defs>
  <style type="text/css">*{stroke-linejoin: round; stroke-linecap: butt}</style>
 </defs>
 <g id="figure_1">
  <g id="patch_1">
   <path d="M 0 720 
L 720 720 
L 720 0 
L 0 0 
z
" style="fill: #ffffff"/>
  </g>
  <g id="axes_1">
   <g id="patch_2">
    <path d="M 90 333.490909 
L 343.636364 333.490909 
L 343.636364 86.4 
L 90 86.4 
z
" style="fill: #ffffff"/>
   </g>
   <g id="matplotlib.axis_1">
    <g id="xtick_1">
     <g id="line2d_1">
      <defs>
       <path id="m4b7779f900" d="M 0 0 
L 0 3.5 
" style="stroke: #000000; stroke-width: 0.8"/>
      </defs>
      <g>
       <use xlink:href="#m4b7779f900" x="90" y="333.490909" style="stroke: #000000; stroke-width: 0.8"/>
      </g>
     </g>
     <g id="text_1">
      <!-- 0.0 -->
      <g transform="translate(82.048438 348.089347)scale(0.1 -0.1)">
       <defs>
        <path id="DejaVuSans-30" d="M 2034 4250 
Q 1547 4250 1301 3770 
Q 1056 3291 1056 2328 
Q 1056 1369 1301 889 
Q 1547 409 2034 409 
Q 2525 409 2770 889 
Q 3016 1369 3016 2328 
Q 3016 3291 2770 3770 
Q 2525 4250 2034 4250 
z
M 2034 4750 
Q 2819 4750 3233 4129 
Q 3647 3509 3647 2328 
Q 3647 1150 3233 529 
Q 2819 -91 2034 -91 
Q 1250 -91 836 529 
Q 422 1150 422 2328 
Q 422 3509 836 4129 
Q 1250 4750 2034 4750 
z
" transform="scale(0.015625)"/>
        <path id="DejaVuSans-2e" d="M 684 794 
L 1344 794 
L 1344 0 
L 684 0 
L 684 794 
z
" transform="scale(0.015625)"/>
       </defs>
       <use xlink:href="#DejaVuSans-30"/>
       <use xlink:href="#DejaVuSans-2e" x="63.623047"/>
       <use xlink:href="#DejaVuSans-30" x="95.410156"/>
      </g>
     </g>
    </g>
    <g id="xtick_2">
     <g id="line2d_2">
      <g>
       <use xlink:href="#m4b7779f900" x="140.727273" y="333.490909" style="stroke: #000000; stroke-width: 0.8"/>
      </g>
     </g>
     <g id="text_2">
      <!-- 0.2 -->
      <g transform="translate(132.77571 348.089347)scale(0.1 -0.1)">
       <defs>
        <path id="DejaVuSans-32" d="M 1228 531 
L 3431 531 
L 3431 0 
L 469 0 
L 469 531 
Q 828 903 1448 1529 
Q 2069 2156 2228 2338 
Q 2531 2678 2651 2914 
Q 2772 3150 2772 3378 
Q 2772 3750 2511 3984 
Q 2250 4219 1831 4219 
Q 1534 4219 1204 4116 
Q 875 4013 500 3803 
L 500 4441 
Q 881 4594 1212 4672 
Q 1544 4750 1819 4750 
Q 2544 4750 2975 4387 
Q 3406 4025 3406 3419 
Q 3406 3131 3298 2873 
Q 3191 2616 2906 2266 
Q 2828 2175 2409 1742 
Q 1991 1309 1228 531 
z
" transform="scale(0.015625)"/>
       </defs>
       <use xlink:href="#DejaVuSans-30"/>
       <use xlink:href="#DejaVuSans-2e" x="63.623047"/>
       <use xlink:href="#DejaVuSans-32" x="95.410156"/>
      </g>
     </g>
    </g>
    <g id="xtick_3">
     <g id="line2d_3">
      <g>
       <use xlink:href="#m4b7779f900" x="191.454545" y="333.490909" style="stroke: #000000; stroke-width: 0.8"/>
      </g>
     </g>
     <g id="text_3">
      <!-- 0.4 -->
      <g transform="translate(183.502983 348.089347)scale(0.1 -0.1)">
       <defs>
        <path id="DejaVuSans-34" d="M 2419 4116 
L 825 1625 
L 2419 1625 
L 2419 4116 
z
M 2253 4666 
L 3047 4666 
L 3047 1625 
L 3713 1625 
L 3713 1100 
L 3047 1100 
L 3047 0 
L 2419 0 
L 2419 1100 
L 313 1100 
L 313 1709 
L 2253 4666 
z
" transform="scale(0.015625)"/>
       </defs>
       <use xlink:href="#DejaVuSans-30"/>
       <use xlink:href="#DejaVuSans-2e" x="63.623047"/>
       <use xlink:href="#DejaVuSans-34" x="95.410156"/>
      </g>
     </g>
    </g>
    <g id="xtick_4">
     <g id="line2d_4">
      <g>
       <use xlink:href="#m4b7779f900" x="242.181818" y="333.490909" style="stroke: #000000; stroke-width: 0.8"/>
      </g>
     </g>
     <g id="text_4">
      <!-- 0.6 -->
      <g transform="translate(234.230256 348.089347)scale(0.1 -0.1)">
       <defs>
        <path id="DejaVuSans-36" d="M 2113 2584 
Q 1688 2584 1439 2293 
Q 1191 2003 1191 1497 
Q 1191 994 1439 701 
Q 1688 409 2113 409 
Q 2538 409 2786 701 
Q 3034 994 3034 1497 
Q 3034 2003 2786 2293 
Q 2538 2584 2113 2584 
z
M 3366 4563 
L 3366 3988 
Q 3128 4100 2886 4159 
Q 2644 4219 2406 4219 
Q 1781 4219 1451 3797 
Q 1122 3375 1075 2522 
Q 1259 2794 1537 2939 
Q 1816 3084 2150 3084 
Q 2853 3084 3261 2657 
Q 3669 2231 3669 1497 
Q 3669 778 3244 343 
Q 2819 -91 2113 -91 
Q 1303 -91 875 529 
Q 447 1150 447 2328 
Q 447 3434 972 4092 
Q 1497 4750 2381 4750 
Q 2619 4750 2861 4703 
Q 3103 4656 3366 4563 
z
" transform="scale(0.015625)"/>
       </defs>
       <use xlink:href="#DejaVuSans-30"/>
       <use xlink:href="#DejaVuSans-2e" x="63.623047"/>
       <use xlink:href="#DejaVuSans-36" x="95.410156"/>
      </g>
     </g>
    </g>
    <g id="xtick_5">
     <g id="line2d_5">
      <g>
       <use xlink:href="#m4b7779f900" x="292.909091" y="333.490909" style="stroke: #000000; stroke-width: 0.8"/>
      </g>
     </g>
     <g id="text_5">
      <!-- 0.8 -->
      <g transform="translate(284.957528 348.089347)scale(0.1 -0.1)">
       <defs>
        <path id="DejaVuSans-38" d="M 2034 2216 
Q 1584 2216 1326 1975 
Q 1069 1734 1069 1313 
Q 1069 891 1326 650 
Q 1584 409 2034 409 
Q 2484 409 2743 651 
Q 3003 894 3003 1313 
Q 3003 1734 2745 1975 
Q 2488 2216 2034 2216 
z
M 1403 2484 
Q 997 2584 770 2862 
Q 544 3141 544 3541 
Q 544 4100 942 4425 
Q 1341 4750 2034 4750 
Q 2731 4750 3128 4425 
Q 3525 4100 3525 3541 
Q 3525 3141 3298 2862 
Q 3072 2584 2669 2484 
Q 3125 2378 3379 2068 
Q 3634 1759 3634 1313 
Q 3634 634 3220 271 
Q 2806 -91 2034 -91 
Q 1263 -91 848 271 
Q 434 634 434 1313 
Q 434 1759 690 2068 
Q 947 2378 1403 2484 
z
M 1172 3481 
Q 1172 3119 1398 2916 
Q 1625 2713 2034 2713 
Q 2441 2713 2670 2916 
Q 2900 3119 2900 3481 
Q 2900 3844 2670 4047 
Q 2441 4250 2034 4250 
Q 1625 4250 1398 4047 
Q 1172 3844 1172 3481 
z
" transform="scale(0.015625)"/>
       </defs>
       <use xlink:href="#DejaVuSans-30"/>
       <use xlink:href="#DejaVuSans-2e" x="63.623047"/>
       <use xlink:href="#DejaVuSans-38" x="95.410156"/>
      </g>
     </g>
    </g>
    <g id="xtick_6">
     <g id="line2d_6">
      <g>
       <use xlink:href="#m4b7779f900" x="343.636364" y="333.490909" style="stroke: #000000; stroke-width: 0.8"/>
      </g>
     </g>
     <g id="text_6">
      <!-- 1.0 -->
      <g transform="translate(335.684801 348.089347)scale(0.1 -0.1)">
       <defs>
        <path id="DejaVuSans-31" d="M 794 531 
L 1825 531 
L 1825 4091 
L 703 3866 
L 703 4441 
L 1819 4666 
L 2450 4666 
L 2450 531 
L 3481 531 
L 3481 0 
L 794 0 
L 794 531 
z
" transform="scale(0.015625)"/>
       </defs>
       <use xlink:href="#DejaVuSans-31"/>
       <use xlink:href="#DejaVuSans-2e" x="63.623047"/>
       <use xlink:href="#DejaVuSans-30" x="95.410156"/>
      </g>
     </g>
    </g>
   </g>
   <g id="matplotlib.axis_2">
    <g id="ytick_1">
     <g id="line2d_7">
      <defs>
       <path id="m8244ba1cb8" d="M 0 0 
L -3.5 0 
" style="stroke: #000000; stroke-width: 0.8"/>
      </defs>
      <g>
       <use xlink:href="#m8244ba1cb8" x="90" y="333.490909" style="stroke: #000000; stroke-width: 0.8"/>
      </g>
     </g>
     <g id="text_7">
      <!-- 0.0 -->
      <g transform="translate(67.096875 337.290128)scale(0.1 -0.1)">
       <use xlink:href="#DejaVuSans-30"/>
       <use xlink:href="#DejaVuSans-2e" x="63.623047"/>
       <use xlink:href="#DejaVuSans-30" x="95.410156"/>
      </g>
     </g>
    </g>
    <g id="ytick_2">
     <g id="line2d_8">
      <g>
       <use xlink:href="#m8244ba1cb8" x="90" y="284.072727" style="stroke: #000000; stroke-width: 0.8"/>
      </g>
     </g>
     <g id="text_8">
      <!-- 0.2 -->
      <g transform="translate(67.096875 287.871946)scale(0.1 -0.1)">
       <use xlink:href="#DejaVuSans-30"/>
       <use xlink:href="#DejaVuSans-2e" x="63.623047"/>
       <use xlink:href="#DejaVuSans-32" x="95.410156"/>
      </g>
     </g>
    </g>
    <g id="ytick_3">
     <g id="line2d_9">
      <g>
       <use xlink:href="#m8244ba1cb8" x="90" y="234.654545" style="stroke: #000000; stroke-width: 0.8"/>
      </g>
     </g>
     <g id="text_9">
      <!-- 0.4 -->
      <g transform="translate(67.096875 238.453764)scale(0.1 -0.1)">
       <use xlink:href="#DejaVuSans-30"/>
       <use xlink:href="#DejaVuSans-2e" x="63.623047"/>
       <use xlink:href="#DejaVuSans-34" x="95.410156"/>
      </g>
     </g>
    </g>
    <g id="ytick_4">
     <g id="line2d_10">
      <g>
       <use xlink:href="#m8244ba1cb8" x="90" y="185.236364" style="stroke: #000000; stroke-width: 0.8"/>
      </g>
     </g>
     <g id="text_10">
      <!-- 0.6 -->
      <g transform="translate(67.096875 189.035582)scale(0.1 -0.1)">
       <use xlink:href="#DejaVuSans-30"/>
       <use xlink:href="#DejaVuSans-2e" x="63.623047"/>
       <use xlink:href="#DejaVuSans-36" x="95.410156"/>
      </g>
     </g>
    </g>
    <g id="ytick_5">
     <g id="line2d_11">
      <g>
       <use xlink:href="#m8244ba1cb8" x="90" y="135.818182" style="stroke: #000000; stroke-width: 0.8"/>
      </g>
     </g>
     <g id="text_11">
      <!-- 0.8 -->
      <g transform="translate(67.096875 139.617401)scale(0.1 -0.1)">
       <use xlink:href="#DejaVuSans-30"/>
       <use xlink:href="#DejaVuSans-2e" x="63.623047"/>
       <use xlink:href="#DejaVuSans-38" x="95.410156"/>
      </g>
     </g>
    </g>
    <g id="ytick_6">
     <g id="line2d_12">
      <g>
       <use xlink:href="#m8244ba1cb8" x="90" y="86.4" style="stroke: #000000; stroke-width: 0.8"/>
      </g>
     </g>
     <g id="text_12">
      <!-- 1.0 -->
      <g transform="translate(67.096875 90.199219)scale(0.1 -0.1)">
       <use xlink:href="#DejaVuSans-31"/>
       <use xlink:href="#DejaVuSans-2e" x="63.623047"/>
       <use xlink:href="#DejaVuSans-30" x="95.410156"/>
      </g>
     </g>
    </g>
   </g>
   <g id="patch_3">
    <path d="M 90 333.490909 
L 90 86.4 
" style="fill: none; stroke: #000000; stroke-width: 0.8; stroke-linejoin: miter; stroke-linecap: square"/>
   </g>
   <g id="patch_4">
    <path d="M 343.636364 333.490909 
L 343.636364 86.4 
" style="fill: none; stroke: #000000; stroke-width: 0.8; stroke-linejoin: miter; stroke-linecap: square"/>
   </g>
   <g id="patch_5">
    <path d="M 90 333.490909 
L 343.636364 333.490909 
" style="fill: none; stroke: #000000; stroke-width: 0.8; stroke-linejoin: miter; stroke-linecap: square"/>
   </g>
   <g id="patch_6">
    <path d="M 90 86.4 
L 343.636364 86.4 
" style="fill: none; stroke: #000000; stroke-width: 0.8; stroke-linejoin: miter; stroke-linecap: square"/>
   </g>
  </g>
  <g id="axes_2">
   <g id="patch_7">
    <path d="M 394.363636 333.490909 
L 648 333.490909 
L 648 86.4 
L 394.363636 86.4 
z
" style="fill: #ffffff"/>
   </g>
   <g id="PolyCollection_1">
    <defs>
     <path id="m0982ed4281" d="M 405.892562 -473.204506 
L 405.892562 -465.951047 
L 407.342741 -469.388891 
L 408.792921 -465.958973 
L 410.2431 -469.052507 
L 411.693279 -468.894848 
L 413.143459 -465.338693 
L 414.593638 -468.051965 
L 416.043817 -463.812095 
L 417.493997 -466.76698 
L 418.944176 -463.966194 
L 420.394355 -463.313746 
L 421.844535 -465.060689 
L 423.294714 -469.297003 
L 424.744893 -470.782962 
L 426.195073 -471.788166 
L 427.645252 -472.296978 
L 429.095431 -472.493939 
L 430.54561 -472.552771 
L 431.99579 -472.566538 
L 433.445969 -472.569151 
L 434.896148 -472.569406 
L 436.346328 -472.569406 
L 437.796507 -472.569406 
L 439.246686 -472.569406 
L 440.696866 -472.569406 
L 442.147045 -472.569406 
L 443.597224 -472.569406 
L 445.047404 -472.569406 
L 446.497583 -472.569406 
L 447.947762 -472.569406 
L 449.397942 -472.569406 
L 450.848121 -472.569406 
L 452.2983 -472.569406 
L 453.74848 -472.569406 
L 455.198659 -472.569406 
L 456.648838 -472.569406 
L 458.099018 -472.569406 
L 459.549197 -472.569406 
L 460.999376 -472.569406 
L 462.449556 -472.575151 
L 463.899735 -472.612358 
L 465.349914 -472.801431 
L 466.800094 -473.549764 
L 468.250273 -475.856374 
L 469.700452 -481.40073 
L 471.150632 -491.805912 
L 472.600811 -507.02518 
L 474.05099 -516.295701 
L 475.501169 -529.029261 
L 476.951349 -536.548555 
L 478.401528 -532.262623 
L 479.851707 -519.676026 
L 481.301887 -509.426707 
L 482.752066 -493.249175 
L 484.202245 -482.047144 
L 485.652425 -476.077104 
L 487.102604 -473.607915 
L 488.552783 -472.813524 
L 490.002963 -472.614276 
L 491.453142 -472.575195 
L 492.903321 -472.569406 
L 494.353501 -472.569406 
L 495.80368 -472.569406 
L 497.253859 -472.569406 
L 498.704039 -472.569406 
L 500.154218 -472.569406 
L 501.604397 -472.569406 
L 503.054577 -472.569406 
L 504.504756 -472.569406 
L 505.954935 -472.569406 
L 507.405115 -472.569406 
L 508.855294 -472.569406 
L 510.305473 -472.569406 
L 511.755653 -472.569406 
L 513.205832 -472.571738 
L 514.656011 -472.584613 
L 516.106191 -472.646632 
L 517.55637 -472.87484 
L 519.006549 -473.510207 
L 520.456729 -474.826271 
L 521.906908 -476.785784 
L 523.357087 -478.7042 
L 524.807266 -476.247712 
L 526.257446 -478.703316 
L 527.707625 -476.780018 
L 529.157804 -474.796985 
L 530.607984 -473.39438 
L 532.058163 -472.518067 
L 533.508342 -471.788972 
L 534.958522 -470.97388 
L 536.408701 -470.185415 
L 537.85888 -467.312728 
L 539.30906 -469.513515 
L 540.759239 -469.220618 
L 542.209418 -468.444411 
L 543.659598 -467.456059 
L 545.109777 -462.097432 
L 546.559956 -467.783545 
L 548.010136 -469.294496 
L 549.460315 -470.818676 
L 550.910494 -471.839962 
L 552.360674 -472.33259 
L 553.810853 -472.50953 
L 555.261032 -472.557616 
L 556.711212 -472.567598 
L 558.161391 -472.569406 
L 559.61157 -472.569406 
L 561.06175 -472.569406 
L 562.511929 -472.569406 
L 563.962108 -472.569406 
L 565.412288 -472.569406 
L 566.862467 -472.568315 
L 568.312646 -472.562292 
L 569.762826 -472.533276 
L 571.213005 -472.426508 
L 572.663184 -472.129247 
L 574.113363 -471.513519 
L 575.563543 -470.594456 
L 577.013722 -469.681068 
L 578.463901 -465.066781 
L 579.914081 -469.275883 
L 581.36426 -469.16164 
L 582.814439 -467.618926 
L 584.264619 -463.604277 
L 585.714798 -457.20794 
L 587.164977 -444.52609 
L 588.615157 -438.291553 
L 590.065336 -435.99936 
L 591.515515 -435.077279 
L 592.965695 -439.395544 
L 594.415874 -434.449772 
L 595.866053 -433.209044 
L 597.316233 -434.014264 
L 598.766412 -436.637276 
L 600.216591 -449.233728 
L 601.666771 -448.441153 
L 603.11695 -460.35255 
L 604.567129 -463.331688 
L 606.017309 -463.799354 
L 607.467488 -462.42871 
L 608.917667 -453.95121 
L 610.367847 -459.178577 
L 611.818026 -458.101899 
L 613.268205 -452.589866 
L 614.718385 -452.707328 
L 616.168564 -454.579244 
L 617.618743 -460.737413 
L 619.068923 -461.393154 
L 620.519102 -459.87546 
L 621.969281 -452.288413 
L 623.41946 -447.614139 
L 624.86964 -446.22038 
L 626.319819 -445.875294 
L 627.769998 -452.597402 
L 629.220178 -449.223769 
L 630.670357 -451.251877 
L 632.120536 -461.308172 
L 633.570716 -465.765372 
L 635.020895 -469.164027 
L 636.471074 -470.885091 
L 636.471074 -470.885091 
L 636.471074 -470.885091 
L 635.020895 -469.164027 
L 633.570716 -465.765372 
L 632.120536 -461.308172 
L 630.670357 -462.889117 
L 629.220178 -459.044706 
L 627.769998 -452.597402 
L 626.319819 -458.12762 
L 624.86964 -458.397943 
L 623.41946 -460.27814 
L 621.969281 -461.420807 
L 620.519102 -459.87546 
L 619.068923 -461.393154 
L 617.618743 -460.737413 
L 616.168564 -463.147718 
L 614.718385 -462.18327 
L 613.268205 -462.060296 
L 611.818026 -458.101899 
L 610.367847 -459.178577 
L 608.917667 -467.250237 
L 607.467488 -462.42871 
L 606.017309 -463.799354 
L 604.567129 -463.331688 
L 603.11695 -460.35255 
L 601.666771 -462.175713 
L 600.216591 -449.233728 
L 598.766412 -450.131502 
L 597.316233 -444.332668 
L 595.866053 -441.920528 
L 594.415874 -441.863222 
L 592.965695 -439.395544 
L 591.515515 -445.348224 
L 590.065336 -446.576646 
L 588.615157 -450.335586 
L 587.164977 -455.525861 
L 585.714798 -457.20794 
L 584.264619 -463.604277 
L 582.814439 -467.618926 
L 581.36426 -469.16164 
L 579.914081 -469.275883 
L 578.463901 -473.369365 
L 577.013722 -469.681068 
L 575.563543 -470.594456 
L 574.113363 -471.513519 
L 572.663184 -472.129247 
L 571.213005 -472.426508 
L 569.762826 -472.533276 
L 568.312646 -472.562292 
L 566.862467 -472.568315 
L 565.412288 -472.569406 
L 563.962108 -472.569406 
L 562.511929 -472.569406 
L 561.06175 -472.569406 
L 559.61157 -472.569406 
L 558.161391 -472.569406 
L 556.711212 -472.567598 
L 555.261032 -472.557616 
L 553.810853 -472.50953 
L 552.360674 -472.33259 
L 550.910494 -471.839962 
L 549.460315 -470.818676 
L 548.010136 -469.294496 
L 546.559956 -467.783545 
L 545.109777 -472.029915 
L 543.659598 -467.456059 
L 542.209418 -468.444411 
L 540.759239 -469.220618 
L 539.30906 -469.513515 
L 537.85888 -472.080032 
L 536.408701 -470.185415 
L 534.958522 -470.97388 
L 533.508342 -471.788972 
L 532.058163 -472.518067 
L 530.607984 -473.39438 
L 529.157804 -474.796985 
L 527.707625 -476.780018 
L 526.257446 -478.703316 
L 524.807266 -482.794365 
L 523.357087 -478.7042 
L 521.906908 -476.785784 
L 520.456729 -474.826271 
L 519.006549 -473.510207 
L 517.55637 -472.87484 
L 516.106191 -472.646632 
L 514.656011 -472.584613 
L 513.205832 -472.571738 
L 511.755653 -472.569406 
L 510.305473 -472.569406 
L 508.855294 -472.569406 
L 507.405115 -472.569406 
L 505.954935 -472.569406 
L 504.504756 -472.569406 
L 503.054577 -472.569406 
L 501.604397 -472.569406 
L 500.154218 -472.569406 
L 498.704039 -472.569406 
L 497.253859 -472.569406 
L 495.80368 -472.569406 
L 494.353501 -472.569406 
L 492.903321 -472.569406 
L 491.453142 -472.575195 
L 490.002963 -472.614276 
L 488.552783 -472.813524 
L 487.102604 -473.607915 
L 485.652425 -476.077104 
L 484.202245 -482.047144 
L 482.752066 -493.249175 
L 481.301887 -509.426707 
L 479.851707 -534.321217 
L 478.401528 -548.211819 
L 476.951349 -552.286477 
L 475.501169 -547.471699 
L 474.05099 -532.048786 
L 472.600811 -507.02518 
L 471.150632 -491.805912 
L 469.700452 -481.40073 
L 468.250273 -475.856374 
L 466.800094 -473.549764 
L 465.349914 -472.801431 
L 463.899735 -472.612358 
L 462.449556 -472.575151 
L 460.999376 -472.569406 
L 459.549197 -472.569406 
L 458.099018 -472.569406 
L 456.648838 -472.569406 
L 455.198659 -472.569406 
L 453.74848 -472.569406 
L 452.2983 -472.569406 
L 450.848121 -472.569406 
L 449.397942 -472.569406 
L 447.947762 -472.569406 
L 446.497583 -472.569406 
L 445.047404 -472.569406 
L 443.597224 -472.569406 
L 442.147045 -472.569406 
L 440.696866 -472.569406 
L 439.246686 -472.569406 
L 437.796507 -472.569406 
L 436.346328 -472.569406 
L 434.896148 -472.569406 
L 433.445969 -472.569151 
L 431.99579 -472.566538 
L 430.54561 -472.552771 
L 429.095431 -472.493939 
L 427.645252 -472.296978 
L 426.195073 -471.788166 
L 424.744893 -470.782962 
L 423.294714 -469.297003 
L 421.844535 -470.377857 
L 420.394355 -469.963907 
L 418.944176 -468.790738 
L 417.493997 -466.76698 
L 416.043817 -471.014635 
L 414.593638 -468.051965 
L 413.143459 -471.796812 
L 411.693279 -468.894848 
L 410.2431 -469.052507 
L 408.792921 -472.405583 
L 407.342741 -469.388891 
L 405.892562 -473.204506 
z
" style="stroke: #9467bd; stroke-opacity: 0.2"/>
    </defs>
    <g clip-path="url(#p7598e3b44a)">
     <use xlink:href="#m0982ed4281" x="0" y="720" style="fill: #9467bd; fill-opacity: 0.2; stroke: #9467bd; stroke-opacity: 0.2"/>
    </g>
   </g>
   <g id="PolyCollection_2">
    <defs>
     <path id="mdc4e80f625" d="M 405.892562 -472.569406 
L 405.892562 -472.569406 
L 407.342741 -472.569406 
L 408.792921 -472.569406 
L 410.2431 -472.569406 
L 411.693279 -472.569386 
L 413.143459 -472.567164 
L 414.593638 -472.553958 
L 416.043817 -472.489331 
L 417.493997 -472.24449 
L 418.944176 -471.530288 
L 420.394355 -469.936192 
L 421.844535 -467.248765 
L 423.294714 -463.618385 
L 424.744893 -456.633499 
L 426.195073 -456.449546 
L 427.645252 -457.382712 
L 429.095431 -459.023494 
L 430.54561 -462.124489 
L 431.99579 -460.811644 
L 433.445969 -457.565257 
L 434.896148 -457.00901 
L 436.346328 -455.057135 
L 437.796507 -458.90408 
L 439.246686 -455.167723 
L 440.696866 -454.606062 
L 442.147045 -456.206619 
L 443.597224 -453.573119 
L 445.047404 -451.712971 
L 446.497583 -451.887427 
L 447.947762 -446.393327 
L 449.397942 -447.229809 
L 450.848121 -450.144631 
L 452.2983 -455.694943 
L 453.74848 -458.440071 
L 455.198659 -458.671128 
L 456.648838 -463.446466 
L 458.099018 -463.170052 
L 459.549197 -465.230164 
L 460.999376 -467.2286 
L 462.449556 -465.196969 
L 463.899735 -465.891144 
L 465.349914 -464.350424 
L 466.800094 -468.484352 
L 468.250273 -470.364245 
L 469.700452 -469.179336 
L 471.150632 -472.134934 
L 472.600811 -472.438488 
L 474.05099 -472.540803 
L 475.501169 -472.565681 
L 476.951349 -472.569466 
L 478.401528 -472.569682 
L 479.851707 -472.569468 
L 481.301887 -472.569416 
L 482.752066 -472.569406 
L 484.202245 -472.569406 
L 485.652425 -472.569406 
L 487.102604 -472.569406 
L 488.552783 -472.569406 
L 490.002963 -472.569406 
L 491.453142 -472.569406 
L 492.903321 -472.569406 
L 494.353501 -472.569406 
L 495.80368 -472.569406 
L 497.253859 -472.569406 
L 498.704039 -472.569406 
L 500.154218 -472.569406 
L 501.604397 -472.569406 
L 503.054577 -472.569406 
L 504.504756 -472.569237 
L 505.954935 -472.566942 
L 507.405115 -472.554187 
L 508.855294 -472.497338 
L 510.305473 -472.298247 
L 511.755653 -471.758993 
L 513.205832 -470.644915 
L 514.656011 -468.936744 
L 516.106191 -465.434927 
L 517.55637 -461.599977 
L 519.006549 -463.331906 
L 520.456729 -467.771456 
L 521.906908 -466.964514 
L 523.357087 -470.976449 
L 524.807266 -471.683272 
L 526.257446 -471.720468 
L 527.707625 -471.23711 
L 529.157804 -470.442756 
L 530.607984 -466.596089 
L 532.058163 -469.031549 
L 533.508342 -465.203327 
L 534.958522 -466.256265 
L 536.408701 -469.501746 
L 537.85888 -471.100008 
L 539.30906 -471.835985 
L 540.759239 -472.274443 
L 542.209418 -472.47438 
L 543.659598 -472.54503 
L 545.109777 -472.564401 
L 546.559956 -472.568641 
L 548.010136 -472.569361 
L 549.460315 -472.569406 
L 550.910494 -472.569406 
L 552.360674 -472.569073 
L 553.810853 -472.567232 
L 555.261032 -472.558367 
L 556.711212 -472.525744 
L 558.161391 -472.434916 
L 559.61157 -472.24678 
L 561.06175 -471.966661 
L 562.511929 -471.692417 
L 563.962108 -470.183362 
L 565.412288 -471.692417 
L 566.862467 -471.966661 
L 568.312646 -472.248857 
L 569.762826 -472.44768 
L 571.213005 -472.589494 
L 572.663184 -472.804868 
L 574.113363 -473.303692 
L 575.563543 -474.265016 
L 577.013722 -475.560795 
L 578.463901 -476.559988 
L 579.914081 -471.340233 
L 581.36426 -472.295323 
L 582.814439 -472.160985 
L 584.264619 -470.695181 
L 585.714798 -468.772941 
L 587.164977 -473.485765 
L 588.615157 -478.161782 
L 590.065336 -484.85816 
L 591.515515 -491.259563 
L 592.965695 -474.871339 
L 594.415874 -492.43171 
L 595.866053 -488.048328 
L 597.316233 -484.704416 
L 598.766412 -484.542363 
L 600.216591 -479.330431 
L 601.666771 -492.0033 
L 603.11695 -488.789729 
L 604.567129 -490.775164 
L 606.017309 -490.4167 
L 607.467488 -489.383241 
L 608.917667 -491.827696 
L 610.367847 -481.512647 
L 611.818026 -475.123842 
L 613.268205 -479.735847 
L 614.718385 -477.320782 
L 616.168564 -475.657526 
L 617.618743 -472.835672 
L 619.068923 -468.973555 
L 620.519102 -475.047822 
L 621.969281 -477.844703 
L 623.41946 -484.425023 
L 624.86964 -495.383254 
L 626.319819 -509.155778 
L 627.769998 -498.845404 
L 629.220178 -538.336959 
L 630.670357 -555.479893 
L 632.120536 -550.603435 
L 633.570716 -568.621094 
L 635.020895 -582.794877 
L 636.471074 -587.924465 
L 636.471074 -622.368595 
L 636.471074 -622.368595 
L 635.020895 -619.222495 
L 633.570716 -612.931306 
L 632.120536 -598.107838 
L 630.670357 -555.479893 
L 629.220178 -538.336959 
L 627.769998 -548.123239 
L 626.319819 -509.155778 
L 624.86964 -495.383254 
L 623.41946 -484.425023 
L 621.969281 -477.844703 
L 620.519102 -475.047822 
L 619.068923 -479.836798 
L 617.618743 -476.60756 
L 616.168564 -475.657526 
L 614.718385 -477.320782 
L 613.268205 -479.735847 
L 611.818026 -490.546043 
L 610.367847 -492.117366 
L 608.917667 -491.827696 
L 607.467488 -504.592494 
L 606.017309 -510.174503 
L 604.567129 -509.576968 
L 603.11695 -504.934311 
L 601.666771 -492.0033 
L 600.216591 -495.462296 
L 598.766412 -484.542363 
L 597.316233 -484.704416 
L 595.866053 -488.048328 
L 594.415874 -492.43171 
L 592.965695 -513.54789 
L 591.515515 -491.259563 
L 590.065336 -484.85816 
L 588.615157 -478.161782 
L 587.164977 -473.485765 
L 585.714798 -474.033794 
L 584.264619 -472.299131 
L 582.814439 -473.921773 
L 581.36426 -477.838839 
L 579.914081 -481.591961 
L 578.463901 -476.559988 
L 577.013722 -475.560795 
L 575.563543 -474.265016 
L 574.113363 -473.303692 
L 572.663184 -472.804868 
L 571.213005 -472.589494 
L 569.762826 -472.44768 
L 568.312646 -472.248857 
L 566.862467 -471.966661 
L 565.412288 -471.692417 
L 563.962108 -472.967932 
L 562.511929 -471.692417 
L 561.06175 -471.966661 
L 559.61157 -472.24678 
L 558.161391 -472.434916 
L 556.711212 -472.525744 
L 555.261032 -472.558367 
L 553.810853 -472.567232 
L 552.360674 -472.569073 
L 550.910494 -472.569406 
L 549.460315 -472.569406 
L 548.010136 -472.569361 
L 546.559956 -472.568641 
L 545.109777 -472.564401 
L 543.659598 -472.54503 
L 542.209418 -472.47438 
L 540.759239 -472.274443 
L 539.30906 -471.835985 
L 537.85888 -471.100008 
L 536.408701 -470.846296 
L 534.958522 -472.433727 
L 533.508342 -472.633317 
L 532.058163 -469.031549 
L 530.607984 -472.628297 
L 529.157804 -470.442756 
L 527.707625 -471.23711 
L 526.257446 -471.720468 
L 524.807266 -471.683272 
L 523.357087 -470.976449 
L 521.906908 -472.17702 
L 520.456729 -467.771456 
L 519.006549 -469.320042 
L 517.55637 -470.482872 
L 516.106191 -468.793524 
L 514.656011 -468.936744 
L 513.205832 -470.644915 
L 511.755653 -471.758993 
L 510.305473 -472.298247 
L 508.855294 -472.497338 
L 507.405115 -472.554187 
L 505.954935 -472.566942 
L 504.504756 -472.569237 
L 503.054577 -472.569406 
L 501.604397 -472.569406 
L 500.154218 -472.569406 
L 498.704039 -472.569406 
L 497.253859 -472.569406 
L 495.80368 -472.569406 
L 494.353501 -472.569406 
L 492.903321 -472.569406 
L 491.453142 -472.569406 
L 490.002963 -472.569406 
L 488.552783 -472.569406 
L 487.102604 -472.569406 
L 485.652425 -472.569406 
L 484.202245 -472.569406 
L 482.752066 -472.569406 
L 481.301887 -472.569416 
L 479.851707 -472.569468 
L 478.401528 -472.569682 
L 476.951349 -472.569466 
L 475.501169 -472.565681 
L 474.05099 -472.540803 
L 472.600811 -472.438488 
L 471.150632 -472.134934 
L 469.700452 -473.751534 
L 468.250273 -470.364245 
L 466.800094 -469.588433 
L 465.349914 -471.495531 
L 463.899735 -468.83922 
L 462.449556 -469.366285 
L 460.999376 -467.2286 
L 459.549197 -468.320634 
L 458.099018 -468.427201 
L 456.648838 -465.41196 
L 455.198659 -466.814757 
L 453.74848 -462.680116 
L 452.2983 -459.78045 
L 450.848121 -459.35074 
L 449.397942 -458.136705 
L 447.947762 -458.365452 
L 446.497583 -455.378217 
L 445.047404 -459.221919 
L 443.597224 -460.470665 
L 442.147045 -459.830243 
L 440.696866 -462.533587 
L 439.246686 -462.481705 
L 437.796507 -458.90408 
L 436.346328 -463.123125 
L 434.896148 -462.559255 
L 433.445969 -464.514367 
L 431.99579 -463.702683 
L 430.54561 -463.044183 
L 429.095431 -464.440616 
L 427.645252 -463.409224 
L 426.195073 -463.283045 
L 424.744893 -465.544953 
L 423.294714 -464.216954 
L 421.844535 -467.248765 
L 420.394355 -469.936192 
L 418.944176 -471.530288 
L 417.493997 -472.24449 
L 416.043817 -472.489331 
L 414.593638 -472.553958 
L 413.143459 -472.567164 
L 411.693279 -472.569386 
L 410.2431 -472.569406 
L 408.792921 -472.569406 
L 407.342741 -472.569406 
L 405.892562 -472.569406 
z
" style="stroke: #1f77b4; stroke-opacity: 0.2"/>
    </defs>
    <g clip-path="url(#p7598e3b44a)">
     <use xlink:href="#mdc4e80f625" x="0" y="720" style="fill: #1f77b4; fill-opacity: 0.2; stroke: #1f77b4; stroke-opacity: 0.2"/>
    </g>
   </g>
   <g id="PolyCollection_3">
    <defs>
     <path id="m63bab7f3ac" d="M 405.892562 -494.068355 
L 405.892562 -494.068355 
L 407.342741 -484.888496 
L 408.792921 -497.709132 
L 410.2431 -487.903798 
L 411.693279 -488.174097 
L 413.143459 -495.638507 
L 414.593638 -478.075679 
L 416.043817 -485.471989 
L 417.493997 -480.211501 
L 418.944176 -476.302945 
L 420.394355 -474.042389 
L 421.844535 -473.032423 
L 423.294714 -472.683905 
L 424.744893 -472.591399 
L 426.195073 -472.572779 
L 427.645252 -472.569406 
L 429.095431 -472.569406 
L 430.54561 -472.569406 
L 431.99579 -472.569406 
L 433.445969 -472.569406 
L 434.896148 -472.569406 
L 436.346328 -472.569406 
L 437.796507 -472.569406 
L 439.246686 -472.569406 
L 440.696866 -472.569406 
L 442.147045 -472.569406 
L 443.597224 -472.569406 
L 445.047404 -472.569406 
L 446.497583 -472.569406 
L 447.947762 -472.569406 
L 449.397942 -472.569406 
L 450.848121 -472.569406 
L 452.2983 -472.569406 
L 453.74848 -472.569406 
L 455.198659 -472.569406 
L 456.648838 -472.569406 
L 458.099018 -472.569406 
L 459.549197 -472.565403 
L 460.999376 -472.538761 
L 462.449556 -472.407231 
L 463.899735 -471.894752 
L 465.349914 -470.359859 
L 466.800094 -466.864034 
L 468.250273 -460.938959 
L 469.700452 -453.828097 
L 471.150632 -444.639081 
L 472.600811 -444.176593 
L 474.05099 -452.688244 
L 475.501169 -458.159411 
L 476.951349 -460.414666 
L 478.401528 -457.135733 
L 479.851707 -449.032152 
L 481.301887 -434.624626 
L 482.752066 -426.394245 
L 484.202245 -420.871477 
L 485.652425 -415.729286 
L 487.102604 -414.473048 
L 488.552783 -414.287902 
L 490.002963 -414.789786 
L 491.453142 -415.790598 
L 492.903321 -417.981449 
L 494.353501 -418.424742 
L 495.80368 -416.795197 
L 497.253859 -411.777052 
L 498.704039 -405.415738 
L 500.154218 -400.54869 
L 501.604397 -399.256813 
L 503.054577 -397.740496 
L 504.504756 -400.426189 
L 505.954935 -404.004845 
L 507.405115 -405.439547 
L 508.855294 -407.215178 
L 510.305473 -405.194743 
L 511.755653 -408.424308 
L 513.205832 -415.398044 
L 514.656011 -423.447719 
L 516.106191 -438.991415 
L 517.55637 -446.008557 
L 519.006549 -447.889607 
L 520.456729 -440.756572 
L 521.906908 -442.406016 
L 523.357087 -435.119809 
L 524.807266 -438.07421 
L 526.257446 -433.183665 
L 527.707625 -436.190119 
L 529.157804 -442.802828 
L 530.607984 -454.671919 
L 532.058163 -455.162881 
L 533.508342 -464.972326 
L 534.958522 -465.728999 
L 536.408701 -463.063692 
L 537.85888 -457.570027 
L 539.30906 -446.442215 
L 540.759239 -439.57096 
L 542.209418 -436.182297 
L 543.659598 -428.964405 
L 545.109777 -426.801779 
L 546.559956 -415.309006 
L 548.010136 -406.481938 
L 549.460315 -401.522691 
L 550.910494 -400.363576 
L 552.360674 -402.062649 
L 553.810853 -406.792233 
L 555.261032 -413.389489 
L 556.711212 -418.778022 
L 558.161391 -423.576139 
L 559.61157 -428.47784 
L 561.06175 -431.905568 
L 562.511929 -435.389551 
L 563.962108 -438.524897 
L 565.412288 -432.044069 
L 566.862467 -427.484515 
L 568.312646 -424.681092 
L 569.762826 -424.082789 
L 571.213005 -426.254976 
L 572.663184 -428.677509 
L 574.113363 -435.400841 
L 575.563543 -439.843421 
L 577.013722 -447.1025 
L 578.463901 -457.542919 
L 579.914081 -463.98323 
L 581.36426 -468.53898 
L 582.814439 -471.042942 
L 584.264619 -472.108336 
L 585.714798 -472.459174 
L 587.164977 -472.548729 
L 588.615157 -472.566628 
L 590.065336 -472.569406 
L 591.515515 -472.569406 
L 592.965695 -472.569406 
L 594.415874 -472.569406 
L 595.866053 -472.569406 
L 597.316233 -472.569406 
L 598.766412 -472.569406 
L 600.216591 -472.569406 
L 601.666771 -472.569406 
L 603.11695 -472.569406 
L 604.567129 -472.569406 
L 606.017309 -472.569406 
L 607.467488 -472.569406 
L 608.917667 -472.569406 
L 610.367847 -472.569406 
L 611.818026 -472.569406 
L 613.268205 -472.569406 
L 614.718385 -472.569406 
L 616.168564 -472.569406 
L 617.618743 -472.569406 
L 619.068923 -472.569406 
L 620.519102 -472.569406 
L 621.969281 -472.569406 
L 623.41946 -472.569406 
L 624.86964 -472.569406 
L 626.319819 -472.569406 
L 627.769998 -472.569406 
L 629.220178 -472.569406 
L 630.670357 -472.569406 
L 632.120536 -472.569406 
L 633.570716 -472.569406 
L 635.020895 -472.569406 
L 636.471074 -472.569406 
L 636.471074 -472.569406 
L 636.471074 -472.569406 
L 635.020895 -472.569406 
L 633.570716 -472.569406 
L 632.120536 -472.569406 
L 630.670357 -472.569406 
L 629.220178 -472.569406 
L 627.769998 -472.569406 
L 626.319819 -472.569406 
L 624.86964 -472.569406 
L 623.41946 -472.569406 
L 621.969281 -472.569406 
L 620.519102 -472.569406 
L 619.068923 -472.569406 
L 617.618743 -472.569406 
L 616.168564 -472.569406 
L 614.718385 -472.569406 
L 613.268205 -472.569406 
L 611.818026 -472.569406 
L 610.367847 -472.569406 
L 608.917667 -472.569406 
L 607.467488 -472.569406 
L 606.017309 -472.569406 
L 604.567129 -472.569406 
L 603.11695 -472.569406 
L 601.666771 -472.569406 
L 600.216591 -472.569406 
L 598.766412 -472.569406 
L 597.316233 -472.569406 
L 595.866053 -472.569406 
L 594.415874 -472.569406 
L 592.965695 -472.569406 
L 591.515515 -472.569406 
L 590.065336 -472.569406 
L 588.615157 -472.566628 
L 587.164977 -472.548729 
L 585.714798 -472.459174 
L 584.264619 -472.108336 
L 582.814439 -471.042942 
L 581.36426 -468.53898 
L 579.914081 -463.98323 
L 578.463901 -457.542919 
L 577.013722 -453.597178 
L 575.563543 -447.53252 
L 574.113363 -440.738368 
L 572.663184 -438.199089 
L 571.213005 -433.843645 
L 569.762826 -433.17579 
L 568.312646 -434.645717 
L 566.862467 -437.937366 
L 565.412288 -440.549364 
L 563.962108 -438.524897 
L 562.511929 -441.065838 
L 561.06175 -439.355749 
L 559.61157 -434.990074 
L 558.161391 -430.869258 
L 556.711212 -425.591801 
L 555.261032 -419.9324 
L 553.810853 -415.585489 
L 552.360674 -411.583618 
L 550.910494 -409.244761 
L 549.460315 -410.816858 
L 548.010136 -415.916556 
L 546.559956 -422.30311 
L 545.109777 -426.801779 
L 543.659598 -437.944715 
L 542.209418 -441.49066 
L 540.759239 -449.038056 
L 539.30906 -455.071936 
L 537.85888 -457.570027 
L 536.408701 -463.063692 
L 534.958522 -465.728999 
L 533.508342 -464.972326 
L 532.058163 -466.852547 
L 530.607984 -454.671919 
L 529.157804 -452.282822 
L 527.707625 -447.165595 
L 526.257446 -443.839345 
L 524.807266 -438.07421 
L 523.357087 -444.045135 
L 521.906908 -442.406016 
L 520.456729 -450.847155 
L 519.006549 -447.889607 
L 517.55637 -446.008557 
L 516.106191 -438.991415 
L 514.656011 -434.198895 
L 513.205832 -423.278048 
L 511.755653 -418.133747 
L 510.305473 -416.493462 
L 508.855294 -413.715683 
L 507.405115 -415.09175 
L 505.954935 -414.008743 
L 504.504756 -412.771133 
L 503.054577 -410.645438 
L 501.604397 -407.856372 
L 500.154218 -411.100996 
L 498.704039 -415.660893 
L 497.253859 -419.915945 
L 495.80368 -422.818166 
L 494.353501 -424.755648 
L 492.903321 -425.11503 
L 491.453142 -425.147946 
L 490.002963 -423.361065 
L 488.552783 -421.81807 
L 487.102604 -421.724126 
L 485.652425 -423.82826 
L 484.202245 -426.259359 
L 482.752066 -433.532805 
L 481.301887 -443.305663 
L 479.851707 -449.032152 
L 478.401528 -457.135733 
L 476.951349 -460.414666 
L 475.501169 -458.159411 
L 474.05099 -452.688244 
L 472.600811 -452.506071 
L 471.150632 -452.691655 
L 469.700452 -453.828097 
L 468.250273 -460.938959 
L 466.800094 -466.864034 
L 465.349914 -470.359859 
L 463.899735 -471.894752 
L 462.449556 -472.407231 
L 460.999376 -472.538761 
L 459.549197 -472.565403 
L 458.099018 -472.569406 
L 456.648838 -472.569406 
L 455.198659 -472.569406 
L 453.74848 -472.569406 
L 452.2983 -472.569406 
L 450.848121 -472.569406 
L 449.397942 -472.569406 
L 447.947762 -472.569406 
L 446.497583 -472.569406 
L 445.047404 -472.569406 
L 443.597224 -472.569406 
L 442.147045 -472.569406 
L 440.696866 -472.569406 
L 439.246686 -472.569406 
L 437.796507 -472.569406 
L 436.346328 -472.569406 
L 434.896148 -472.569406 
L 433.445969 -472.569406 
L 431.99579 -472.569406 
L 430.54561 -472.569406 
L 429.095431 -472.569406 
L 427.645252 -472.569406 
L 426.195073 -472.572779 
L 424.744893 -472.591399 
L 423.294714 -472.683905 
L 421.844535 -473.032423 
L 420.394355 -474.042389 
L 418.944176 -476.302945 
L 417.493997 -480.211501 
L 416.043817 -485.471989 
L 414.593638 -503.993755 
L 413.143459 -495.638507 
L 411.693279 -508.600237 
L 410.2431 -510.025343 
L 408.792921 -497.709132 
L 407.342741 -506.357848 
L 405.892562 -494.068355 
z
" style="stroke: #d62728; stroke-opacity: 0.2"/>
    </defs>
    <g clip-path="url(#p7598e3b44a)">
     <use xlink:href="#m63bab7f3ac" x="0" y="720" style="fill: #d62728; fill-opacity: 0.2; stroke: #d62728; stroke-opacity: 0.2"/>
    </g>
   </g>
   <g id="PolyCollection_4">
    <defs>
     <path id="m2a299f1636" d="M 405.892562 -472.56755 
L 405.892562 -472.56755 
L 407.342741 -472.557303 
L 408.792921 -472.507942 
L 410.2431 -472.326309 
L 411.693279 -471.820614 
L 413.143459 -470.773146 
L 414.593638 -469.213551 
L 416.043817 -467.686665 
L 417.493997 -459.662278 
L 418.944176 -467.686665 
L 420.394355 -469.213551 
L 421.844535 -470.773146 
L 423.294714 -471.820614 
L 424.744893 -472.326309 
L 426.195073 -472.506205 
L 427.645252 -472.545979 
L 429.095431 -472.510043 
L 430.54561 -472.341962 
L 431.99579 -471.868827 
L 433.445969 -470.888804 
L 434.896148 -469.429628 
L 436.346328 -468.001056 
L 437.796507 -460.835849 
L 439.246686 -468.001056 
L 440.696866 -469.429628 
L 442.147045 -470.888804 
L 443.597224 -471.868827 
L 445.047404 -472.341962 
L 446.497583 -472.511899 
L 447.947762 -472.558082 
L 449.397942 -472.56767 
L 450.848121 -472.569406 
L 452.2983 -472.569406 
L 453.74848 -472.569406 
L 455.198659 -472.569406 
L 456.648838 -472.569406 
L 458.099018 -472.569406 
L 459.549197 -472.569406 
L 460.999376 -472.569406 
L 462.449556 -472.569406 
L 463.899735 -472.569406 
L 465.349914 -472.569406 
L 466.800094 -472.569406 
L 468.250273 -472.569406 
L 469.700452 -472.569406 
L 471.150632 -472.569406 
L 472.600811 -472.569406 
L 474.05099 -472.569406 
L 475.501169 -472.569406 
L 476.951349 -472.569406 
L 478.401528 -472.569406 
L 479.851707 -472.569406 
L 481.301887 -472.569406 
L 482.752066 -472.569406 
L 484.202245 -472.569406 
L 485.652425 -472.569406 
L 487.102604 -472.569406 
L 488.552783 -472.569406 
L 490.002963 -472.569406 
L 491.453142 -472.569406 
L 492.903321 -472.569406 
L 494.353501 -472.569406 
L 495.80368 -472.569406 
L 497.253859 -472.569406 
L 498.704039 -472.569406 
L 500.154218 -472.569406 
L 501.604397 -472.569406 
L 503.054577 -472.569406 
L 504.504756 -472.569406 
L 505.954935 -472.569406 
L 507.405115 -472.569406 
L 508.855294 -472.569406 
L 510.305473 -472.569406 
L 511.755653 -472.569406 
L 513.205832 -472.569406 
L 514.656011 -472.569406 
L 516.106191 -472.569406 
L 517.55637 -472.569406 
L 519.006549 -472.569406 
L 520.456729 -472.569406 
L 521.906908 -472.569406 
L 523.357087 -472.569406 
L 524.807266 -472.569406 
L 526.257446 -472.569406 
L 527.707625 -472.569406 
L 529.157804 -472.569406 
L 530.607984 -472.569406 
L 532.058163 -472.569406 
L 533.508342 -472.569406 
L 534.958522 -472.569406 
L 536.408701 -472.569406 
L 537.85888 -472.569406 
L 539.30906 -472.569406 
L 540.759239 -472.569406 
L 542.209418 -472.569406 
L 543.659598 -472.569406 
L 545.109777 -472.569406 
L 546.559956 -472.569406 
L 548.010136 -472.569406 
L 549.460315 -472.569406 
L 550.910494 -472.569406 
L 552.360674 -472.569406 
L 553.810853 -472.569406 
L 555.261032 -472.569406 
L 556.711212 -472.569406 
L 558.161391 -472.569406 
L 559.61157 -472.569406 
L 561.06175 -472.569406 
L 562.511929 -472.569406 
L 563.962108 -472.569406 
L 565.412288 -472.569406 
L 566.862467 -472.569406 
L 568.312646 -472.569406 
L 569.762826 -472.569406 
L 571.213005 -472.569406 
L 572.663184 -472.569406 
L 574.113363 -472.569406 
L 575.563543 -472.569406 
L 577.013722 -472.569406 
L 578.463901 -472.569406 
L 579.914081 -472.569406 
L 581.36426 -472.569406 
L 582.814439 -472.569406 
L 584.264619 -472.569406 
L 585.714798 -472.569406 
L 587.164977 -472.569406 
L 588.615157 -472.569406 
L 590.065336 -472.569406 
L 591.515515 -472.569406 
L 592.965695 -472.569406 
L 594.415874 -472.569406 
L 595.866053 -472.569406 
L 597.316233 -472.569406 
L 598.766412 -472.569406 
L 600.216591 -472.569406 
L 601.666771 -472.569406 
L 603.11695 -472.569406 
L 604.567129 -472.569406 
L 606.017309 -472.569406 
L 607.467488 -472.569406 
L 608.917667 -472.570655 
L 610.367847 -472.577547 
L 611.818026 -472.610746 
L 613.268205 -472.732909 
L 614.718385 -473.073032 
L 616.168564 -473.777541 
L 617.618743 -474.826498 
L 619.068923 -475.853456 
L 620.519102 -472.633388 
L 621.969281 -475.853456 
L 623.41946 -474.826498 
L 624.86964 -473.777541 
L 626.319819 -473.073032 
L 627.769998 -472.732909 
L 629.220178 -472.610746 
L 630.670357 -472.577547 
L 632.120536 -472.570655 
L 633.570716 -472.569406 
L 635.020895 -472.569406 
L 636.471074 -472.569406 
L 636.471074 -472.569406 
L 636.471074 -472.569406 
L 635.020895 -472.569406 
L 633.570716 -472.569406 
L 632.120536 -472.570655 
L 630.670357 -472.577547 
L 629.220178 -472.610746 
L 627.769998 -472.732909 
L 626.319819 -473.073032 
L 624.86964 -473.777541 
L 623.41946 -474.826498 
L 621.969281 -475.853456 
L 620.519102 -479.948055 
L 619.068923 -475.853456 
L 617.618743 -474.826498 
L 616.168564 -473.777541 
L 614.718385 -473.073032 
L 613.268205 -472.732909 
L 611.818026 -472.610746 
L 610.367847 -472.577547 
L 608.917667 -472.570655 
L 607.467488 -472.569406 
L 606.017309 -472.569406 
L 604.567129 -472.569406 
L 603.11695 -472.569406 
L 601.666771 -472.569406 
L 600.216591 -472.569406 
L 598.766412 -472.569406 
L 597.316233 -472.569406 
L 595.866053 -472.569406 
L 594.415874 -472.569406 
L 592.965695 -472.569406 
L 591.515515 -472.569406 
L 590.065336 -472.569406 
L 588.615157 -472.569406 
L 587.164977 -472.569406 
L 585.714798 -472.569406 
L 584.264619 -472.569406 
L 582.814439 -472.569406 
L 581.36426 -472.569406 
L 579.914081 -472.569406 
L 578.463901 -472.569406 
L 577.013722 -472.569406 
L 575.563543 -472.569406 
L 574.113363 -472.569406 
L 572.663184 -472.569406 
L 571.213005 -472.569406 
L 569.762826 -472.569406 
L 568.312646 -472.569406 
L 566.862467 -472.569406 
L 565.412288 -472.569406 
L 563.962108 -472.569406 
L 562.511929 -472.569406 
L 561.06175 -472.569406 
L 559.61157 -472.569406 
L 558.161391 -472.569406 
L 556.711212 -472.569406 
L 555.261032 -472.569406 
L 553.810853 -472.569406 
L 552.360674 -472.569406 
L 550.910494 -472.569406 
L 549.460315 -472.569406 
L 548.010136 -472.569406 
L 546.559956 -472.569406 
L 545.109777 -472.569406 
L 543.659598 -472.569406 
L 542.209418 -472.569406 
L 540.759239 -472.569406 
L 539.30906 -472.569406 
L 537.85888 -472.569406 
L 536.408701 -472.569406 
L 534.958522 -472.569406 
L 533.508342 -472.569406 
L 532.058163 -472.569406 
L 530.607984 -472.569406 
L 529.157804 -472.569406 
L 527.707625 -472.569406 
L 526.257446 -472.569406 
L 524.807266 -472.569406 
L 523.357087 -472.569406 
L 521.906908 -472.569406 
L 520.456729 -472.569406 
L 519.006549 -472.569406 
L 517.55637 -472.569406 
L 516.106191 -472.569406 
L 514.656011 -472.569406 
L 513.205832 -472.569406 
L 511.755653 -472.569406 
L 510.305473 -472.569406 
L 508.855294 -472.569406 
L 507.405115 -472.569406 
L 505.954935 -472.569406 
L 504.504756 -472.569406 
L 503.054577 -472.569406 
L 501.604397 -472.569406 
L 500.154218 -472.569406 
L 498.704039 -472.569406 
L 497.253859 -472.569406 
L 495.80368 -472.569406 
L 494.353501 -472.569406 
L 492.903321 -472.569406 
L 491.453142 -472.569406 
L 490.002963 -472.569406 
L 488.552783 -472.569406 
L 487.102604 -472.569406 
L 485.652425 -472.569406 
L 484.202245 -472.569406 
L 482.752066 -472.569406 
L 481.301887 -472.569406 
L 479.851707 -472.569406 
L 478.401528 -472.569406 
L 476.951349 -472.569406 
L 475.501169 -472.569406 
L 474.05099 -472.569406 
L 472.600811 -472.569406 
L 471.150632 -472.569406 
L 469.700452 -472.569406 
L 468.250273 -472.569406 
L 466.800094 -472.569406 
L 465.349914 -472.569406 
L 463.899735 -472.569406 
L 462.449556 -472.569406 
L 460.999376 -472.569406 
L 459.549197 -472.569406 
L 458.099018 -472.569406 
L 456.648838 -472.569406 
L 455.198659 -472.569406 
L 453.74848 -472.569406 
L 452.2983 -472.569406 
L 450.848121 -472.569406 
L 449.397942 -472.56767 
L 447.947762 -472.558082 
L 446.497583 -472.511899 
L 445.047404 -472.341962 
L 443.597224 -471.868827 
L 442.147045 -470.888804 
L 440.696866 -469.429628 
L 439.246686 -468.001056 
L 437.796507 -473.949726 
L 436.346328 -468.001056 
L 434.896148 -469.429628 
L 433.445969 -470.888804 
L 431.99579 -471.868827 
L 430.54561 -472.341962 
L 429.095431 -472.510043 
L 427.645252 -472.545979 
L 426.195073 -472.506205 
L 424.744893 -472.326309 
L 423.294714 -471.820614 
L 421.844535 -470.773146 
L 420.394355 -469.213551 
L 418.944176 -467.686665 
L 417.493997 -474.410794 
L 416.043817 -467.686665 
L 414.593638 -469.213551 
L 413.143459 -470.773146 
L 411.693279 -471.820614 
L 410.2431 -472.326309 
L 408.792921 -472.507942 
L 407.342741 -472.557303 
L 405.892562 -472.56755 
z
" style="stroke: #ff7f0e; stroke-opacity: 0.2"/>
    </defs>
    <g clip-path="url(#p7598e3b44a)">
     <use xlink:href="#m2a299f1636" x="0" y="720" style="fill: #ff7f0e; fill-opacity: 0.2; stroke: #ff7f0e; stroke-opacity: 0.2"/>
    </g>
   </g>
   <g id="matplotlib.axis_3">
    <g id="xtick_7">
     <g id="line2d_13">
      <g>
       <use xlink:href="#m4b7779f900" x="405.863558" y="333.490909" style="stroke: #000000; stroke-width: 0.8"/>
      </g>
     </g>
     <g id="text_13">
      <!-- 0 -->
      <g transform="translate(402.682308 348.089347)scale(0.1 -0.1)">
       <use xlink:href="#DejaVuSans-30"/>
      </g>
     </g>
    </g>
    <g id="xtick_8">
     <g id="line2d_14">
      <g>
       <use xlink:href="#m4b7779f900" x="463.870731" y="333.490909" style="stroke: #000000; stroke-width: 0.8"/>
      </g>
     </g>
     <g id="text_14">
      <!-- 2000 -->
      <g transform="translate(451.145731 348.089347)scale(0.1 -0.1)">
       <use xlink:href="#DejaVuSans-32"/>
       <use xlink:href="#DejaVuSans-30" x="63.623047"/>
       <use xlink:href="#DejaVuSans-30" x="127.246094"/>
       <use xlink:href="#DejaVuSans-30" x="190.869141"/>
      </g>
     </g>
    </g>
    <g id="xtick_9">
     <g id="line2d_15">
      <g>
       <use xlink:href="#m4b7779f900" x="521.877904" y="333.490909" style="stroke: #000000; stroke-width: 0.8"/>
      </g>
     </g>
     <g id="text_15">
      <!-- 4000 -->
      <g transform="translate(509.152904 348.089347)scale(0.1 -0.1)">
       <use xlink:href="#DejaVuSans-34"/>
       <use xlink:href="#DejaVuSans-30" x="63.623047"/>
       <use xlink:href="#DejaVuSans-30" x="127.246094"/>
       <use xlink:href="#DejaVuSans-30" x="190.869141"/>
      </g>
     </g>
    </g>
    <g id="xtick_10">
     <g id="line2d_16">
      <g>
       <use xlink:href="#m4b7779f900" x="579.885077" y="333.490909" style="stroke: #000000; stroke-width: 0.8"/>
      </g>
     </g>
     <g id="text_16">
      <!-- 6000 -->
      <g transform="translate(567.160077 348.089347)scale(0.1 -0.1)">
       <use xlink:href="#DejaVuSans-36"/>
       <use xlink:href="#DejaVuSans-30" x="63.623047"/>
       <use xlink:href="#DejaVuSans-30" x="127.246094"/>
       <use xlink:href="#DejaVuSans-30" x="190.869141"/>
      </g>
     </g>
    </g>
    <g id="xtick_11">
     <g id="line2d_17">
      <g>
       <use xlink:href="#m4b7779f900" x="637.89225" y="333.490909" style="stroke: #000000; stroke-width: 0.8"/>
      </g>
     </g>
     <g id="text_17">
      <!-- 8000 -->
      <g transform="translate(625.16725 348.089347)scale(0.1 -0.1)">
       <use xlink:href="#DejaVuSans-38"/>
       <use xlink:href="#DejaVuSans-30" x="63.623047"/>
       <use xlink:href="#DejaVuSans-30" x="127.246094"/>
       <use xlink:href="#DejaVuSans-30" x="190.869141"/>
      </g>
     </g>
    </g>
   </g>
   <g id="matplotlib.axis_4">
    <g id="ytick_7">
     <g id="line2d_18">
      <g>
       <use xlink:href="#m8244ba1cb8" x="394.363636" y="321.945742" style="stroke: #000000; stroke-width: 0.8"/>
      </g>
     </g>
     <g id="text_18">
      <!-- −1.0 -->
      <g transform="translate(363.080824 325.74496)scale(0.1 -0.1)">
       <defs>
        <path id="DejaVuSans-2212" d="M 678 2272 
L 4684 2272 
L 4684 1741 
L 678 1741 
L 678 2272 
z
" transform="scale(0.015625)"/>
       </defs>
       <use xlink:href="#DejaVuSans-2212"/>
       <use xlink:href="#DejaVuSans-31" x="83.789062"/>
       <use xlink:href="#DejaVuSans-2e" x="147.412109"/>
       <use xlink:href="#DejaVuSans-30" x="179.199219"/>
      </g>
     </g>
    </g>
    <g id="ytick_8">
     <g id="line2d_19">
      <g>
       <use xlink:href="#m8244ba1cb8" x="394.363636" y="284.688168" style="stroke: #000000; stroke-width: 0.8"/>
      </g>
     </g>
     <g id="text_19">
      <!-- −0.5 -->
      <g transform="translate(363.080824 288.487386)scale(0.1 -0.1)">
       <defs>
        <path id="DejaVuSans-35" d="M 691 4666 
L 3169 4666 
L 3169 4134 
L 1269 4134 
L 1269 2991 
Q 1406 3038 1543 3061 
Q 1681 3084 1819 3084 
Q 2600 3084 3056 2656 
Q 3513 2228 3513 1497 
Q 3513 744 3044 326 
Q 2575 -91 1722 -91 
Q 1428 -91 1123 -41 
Q 819 9 494 109 
L 494 744 
Q 775 591 1075 516 
Q 1375 441 1709 441 
Q 2250 441 2565 725 
Q 2881 1009 2881 1497 
Q 2881 1984 2565 2268 
Q 2250 2553 1709 2553 
Q 1456 2553 1204 2497 
Q 953 2441 691 2322 
L 691 4666 
z
" transform="scale(0.015625)"/>
       </defs>
       <use xlink:href="#DejaVuSans-2212"/>
       <use xlink:href="#DejaVuSans-30" x="83.789062"/>
       <use xlink:href="#DejaVuSans-2e" x="147.412109"/>
       <use xlink:href="#DejaVuSans-35" x="179.199219"/>
      </g>
     </g>
    </g>
    <g id="ytick_9">
     <g id="line2d_20">
      <g>
       <use xlink:href="#m8244ba1cb8" x="394.363636" y="247.430594" style="stroke: #000000; stroke-width: 0.8"/>
      </g>
     </g>
     <g id="text_20">
      <!-- 0.0 -->
      <g transform="translate(371.460511 251.229812)scale(0.1 -0.1)">
       <use xlink:href="#DejaVuSans-30"/>
       <use xlink:href="#DejaVuSans-2e" x="63.623047"/>
       <use xlink:href="#DejaVuSans-30" x="95.410156"/>
      </g>
     </g>
    </g>
    <g id="ytick_10">
     <g id="line2d_21">
      <g>
       <use xlink:href="#m8244ba1cb8" x="394.363636" y="210.17302" style="stroke: #000000; stroke-width: 0.8"/>
      </g>
     </g>
     <g id="text_21">
      <!-- 0.5 -->
      <g transform="translate(371.460511 213.972238)scale(0.1 -0.1)">
       <use xlink:href="#DejaVuSans-30"/>
       <use xlink:href="#DejaVuSans-2e" x="63.623047"/>
       <use xlink:href="#DejaVuSans-35" x="95.410156"/>
      </g>
     </g>
    </g>
    <g id="ytick_11">
     <g id="line2d_22">
      <g>
       <use xlink:href="#m8244ba1cb8" x="394.363636" y="172.915446" style="stroke: #000000; stroke-width: 0.8"/>
      </g>
     </g>
     <g id="text_22">
      <!-- 1.0 -->
      <g transform="translate(371.460511 176.714665)scale(0.1 -0.1)">
       <use xlink:href="#DejaVuSans-31"/>
       <use xlink:href="#DejaVuSans-2e" x="63.623047"/>
       <use xlink:href="#DejaVuSans-30" x="95.410156"/>
      </g>
     </g>
    </g>
    <g id="ytick_12">
     <g id="line2d_23">
      <g>
       <use xlink:href="#m8244ba1cb8" x="394.363636" y="135.657872" style="stroke: #000000; stroke-width: 0.8"/>
      </g>
     </g>
     <g id="text_23">
      <!-- 1.5 -->
      <g transform="translate(371.460511 139.457091)scale(0.1 -0.1)">
       <use xlink:href="#DejaVuSans-31"/>
       <use xlink:href="#DejaVuSans-2e" x="63.623047"/>
       <use xlink:href="#DejaVuSans-35" x="95.410156"/>
      </g>
     </g>
    </g>
    <g id="ytick_13">
     <g id="line2d_24">
      <g>
       <use xlink:href="#m8244ba1cb8" x="394.363636" y="98.400298" style="stroke: #000000; stroke-width: 0.8"/>
      </g>
     </g>
     <g id="text_24">
      <!-- 2.0 -->
      <g transform="translate(371.460511 102.199517)scale(0.1 -0.1)">
       <use xlink:href="#DejaVuSans-32"/>
       <use xlink:href="#DejaVuSans-2e" x="63.623047"/>
       <use xlink:href="#DejaVuSans-30" x="95.410156"/>
      </g>
     </g>
    </g>
   </g>
   <g id="line2d_25">
    <path d="M 405.892562 250.422223 
L 413.143459 251.432248 
L 414.593638 251.948035 
L 417.493997 253.23302 
L 418.944176 253.621534 
L 420.394355 253.361173 
L 421.844535 252.280727 
L 424.744893 249.217038 
L 426.195073 248.211834 
L 427.645252 247.703022 
L 429.095431 247.506061 
L 433.445969 247.430849 
L 463.899735 247.387642 
L 465.349914 247.198569 
L 466.800094 246.450236 
L 468.250273 244.143626 
L 469.700452 238.59927 
L 471.150632 228.194088 
L 472.600811 212.97482 
L 474.05099 195.827756 
L 475.501169 181.74952 
L 476.951349 175.582484 
L 478.401528 179.762779 
L 479.851707 193.001378 
L 481.301887 210.573293 
L 482.752066 226.750825 
L 484.202245 237.952856 
L 485.652425 243.922896 
L 487.102604 246.392085 
L 488.552783 247.186476 
L 490.002963 247.385724 
L 494.353501 247.430594 
L 516.106191 247.353368 
L 517.55637 247.12516 
L 519.006549 246.489793 
L 520.456729 245.173729 
L 523.357087 241.2958 
L 524.807266 240.478961 
L 526.257446 241.296684 
L 529.157804 245.203015 
L 530.607984 246.60562 
L 532.058163 247.481933 
L 534.958522 249.02612 
L 536.408701 249.814585 
L 537.85888 250.30362 
L 540.759239 250.779382 
L 542.209418 251.555589 
L 543.659598 252.543941 
L 545.109777 252.936326 
L 546.559956 252.216455 
L 549.460315 249.181324 
L 550.910494 248.160038 
L 552.360674 247.66741 
L 553.810853 247.49047 
L 558.161391 247.430594 
L 569.762826 247.466724 
L 571.213005 247.573492 
L 572.663184 247.870753 
L 574.113363 248.486481 
L 577.013722 250.318932 
L 578.463901 250.781927 
L 579.914081 250.724117 
L 581.36426 250.83836 
L 582.814439 252.381074 
L 584.264619 256.395723 
L 585.714798 262.79206 
L 587.164977 269.974024 
L 588.615157 275.68643 
L 590.065336 278.711997 
L 591.515515 279.787249 
L 592.965695 280.604456 
L 594.415874 281.843503 
L 595.866053 282.435214 
L 597.316233 280.826534 
L 598.766412 276.615611 
L 601.666771 264.691567 
L 603.11695 259.64745 
L 604.567129 256.668312 
L 606.017309 256.200646 
L 607.467488 257.57129 
L 608.917667 259.399276 
L 610.367847 260.821423 
L 611.818026 261.898101 
L 613.268205 262.674919 
L 614.718385 262.554701 
L 616.168564 261.136519 
L 617.618743 259.262587 
L 619.068923 258.606846 
L 620.519102 260.12454 
L 623.41946 266.05386 
L 624.86964 267.690838 
L 626.319819 267.998543 
L 627.769998 267.402598 
L 629.220178 265.865763 
L 630.670357 262.929503 
L 633.570716 254.234628 
L 635.020895 250.835973 
L 636.471074 249.114909 
L 636.471074 249.114909 
" clip-path="url(#p7598e3b44a)" style="fill: none; stroke: #9467bd; stroke-width: 2; stroke-linecap: square"/>
   </g>
   <g id="line2d_26">
    <path d="M 405.892562 247.430594 
L 416.043817 247.510669 
L 417.493997 247.75551 
L 418.944176 248.469712 
L 420.394355 250.063808 
L 421.844535 252.751235 
L 423.294714 256.082331 
L 424.744893 258.910774 
L 426.195073 260.133705 
L 427.645252 259.604032 
L 429.095431 258.267945 
L 430.54561 257.415664 
L 431.99579 257.742837 
L 434.896148 260.215867 
L 436.346328 260.90987 
L 440.696866 261.430176 
L 442.147045 261.981569 
L 443.597224 262.978108 
L 445.047404 264.532555 
L 446.497583 266.367178 
L 447.947762 267.62061 
L 449.397942 267.316743 
L 450.848121 265.252315 
L 453.74848 259.439907 
L 455.198659 257.257057 
L 456.648838 255.570787 
L 458.099018 254.201374 
L 459.549197 253.224601 
L 460.999376 252.7714 
L 463.899735 252.634818 
L 465.349914 252.077022 
L 466.800094 250.963607 
L 468.250273 249.635755 
L 469.700452 248.534565 
L 471.150632 247.865066 
L 472.600811 247.561512 
L 475.501169 247.434319 
L 507.405115 247.445813 
L 508.855294 247.502662 
L 510.305473 247.701753 
L 511.755653 248.241007 
L 513.205832 249.355085 
L 516.106191 252.885774 
L 517.55637 253.958576 
L 519.006549 253.674026 
L 520.456729 252.228544 
L 521.906908 250.429233 
L 523.357087 249.023551 
L 524.807266 248.316728 
L 526.257446 248.279532 
L 527.707625 248.76289 
L 530.607984 250.387807 
L 532.058163 250.968451 
L 533.508342 251.081678 
L 534.958522 250.655004 
L 539.30906 248.164015 
L 540.759239 247.725557 
L 542.209418 247.52562 
L 545.109777 247.435599 
L 556.711212 247.474256 
L 559.61157 247.75322 
L 562.511929 248.307583 
L 563.962108 248.424353 
L 565.412288 248.307583 
L 569.762826 247.55232 
L 572.663184 247.195132 
L 574.113363 246.696308 
L 575.563543 245.734984 
L 577.013722 244.439205 
L 578.463901 243.440012 
L 579.914081 243.533903 
L 581.36426 244.932919 
L 582.814439 246.958621 
L 584.264619 248.502844 
L 585.714798 248.596632 
L 587.164977 246.514235 
L 588.615157 241.838218 
L 591.515515 228.740437 
L 592.965695 225.790385 
L 594.415874 227.56829 
L 595.866053 231.951672 
L 597.316233 235.295584 
L 598.766412 235.457637 
L 600.216591 232.603636 
L 603.11695 223.13798 
L 604.567129 219.823934 
L 606.017309 219.704399 
L 607.467488 223.012132 
L 610.367847 233.184993 
L 611.818026 237.165058 
L 613.268205 240.264153 
L 614.718385 242.679218 
L 616.168564 244.342474 
L 617.618743 245.278384 
L 619.068923 245.594824 
L 620.519102 244.952178 
L 621.969281 242.155297 
L 623.41946 235.574977 
L 624.86964 224.616746 
L 627.769998 196.515679 
L 629.220178 181.663041 
L 630.670357 164.520107 
L 632.120536 145.644363 
L 633.570716 129.2238 
L 635.020895 118.991314 
L 636.471074 114.85347 
L 636.471074 114.85347 
" clip-path="url(#p7598e3b44a)" style="fill: none; stroke: #1f77b4; stroke-width: 2; stroke-linecap: square"/>
   </g>
   <g id="line2d_27">
    <path d="M 405.892562 225.931645 
L 407.342741 224.376828 
L 408.792921 222.290868 
L 410.2431 221.035429 
L 411.693279 221.612833 
L 413.143459 224.361493 
L 414.593638 228.965283 
L 417.493997 239.788499 
L 418.944176 243.697055 
L 420.394355 245.957611 
L 421.844535 246.967577 
L 423.294714 247.316095 
L 426.195073 247.427221 
L 462.449556 247.592769 
L 463.899735 248.105248 
L 465.349914 249.640141 
L 466.800094 253.135966 
L 468.250273 259.061041 
L 469.700452 266.171903 
L 471.150632 271.334632 
L 472.600811 271.658668 
L 474.05099 267.311756 
L 475.501169 261.840589 
L 476.951349 259.585334 
L 478.401528 262.864267 
L 479.851707 270.967848 
L 481.301887 281.034855 
L 482.752066 290.036475 
L 484.202245 296.434582 
L 485.652425 300.221227 
L 487.102604 301.901413 
L 488.552783 301.947014 
L 490.002963 300.924574 
L 491.453142 299.530728 
L 492.903321 298.451761 
L 494.353501 298.409805 
L 495.80368 300.193319 
L 497.253859 304.153501 
L 498.704039 309.461685 
L 500.154218 314.175157 
L 501.604397 316.443407 
L 503.054577 315.807033 
L 505.954935 310.993206 
L 507.405115 309.734351 
L 508.855294 309.534569 
L 510.305473 309.155898 
L 511.755653 306.720972 
L 513.205832 300.661954 
L 516.106191 281.008585 
L 517.55637 273.991443 
L 519.006549 272.110393 
L 520.456729 274.198137 
L 521.906908 277.593984 
L 523.357087 280.417528 
L 524.807266 281.92579 
L 526.257446 281.488495 
L 527.707625 278.322143 
L 529.157804 272.457175 
L 530.607984 265.328081 
L 532.058163 258.992286 
L 533.508342 255.027674 
L 534.958522 254.271001 
L 536.408701 256.936308 
L 537.85888 262.429973 
L 540.759239 275.695492 
L 543.659598 286.54544 
L 545.109777 293.198221 
L 548.010136 308.800753 
L 549.460315 313.830226 
L 550.910494 315.195832 
L 552.360674 313.176866 
L 553.810853 308.811139 
L 558.161391 292.777302 
L 559.61157 288.266043 
L 561.06175 284.369341 
L 562.511929 281.772306 
L 563.962108 281.475103 
L 565.412288 283.703283 
L 566.862467 287.289059 
L 568.312646 290.336595 
L 569.762826 291.37071 
L 571.213005 289.950689 
L 572.663184 286.561701 
L 574.113363 281.930395 
L 575.563543 276.31203 
L 577.013722 269.650161 
L 578.463901 262.457081 
L 579.914081 256.01677 
L 581.36426 251.46102 
L 582.814439 248.957058 
L 584.264619 247.891664 
L 585.714798 247.540826 
L 588.615157 247.433372 
L 636.471074 247.430594 
L 636.471074 247.430594 
" clip-path="url(#p7598e3b44a)" style="fill: none; stroke: #d62728; stroke-width: 2; stroke-linecap: square"/>
   </g>
   <g id="line2d_28">
    <path d="M 405.892562 247.43245 
L 408.792921 247.492058 
L 410.2431 247.673691 
L 411.693279 248.179386 
L 413.143459 249.226854 
L 416.043817 252.313335 
L 417.493997 252.963464 
L 418.944176 252.313335 
L 421.844535 249.226854 
L 423.294714 248.179386 
L 424.744893 247.673691 
L 426.195073 247.493795 
L 429.095431 247.489957 
L 430.54561 247.658038 
L 431.99579 248.131173 
L 433.445969 249.111196 
L 436.346328 251.998944 
L 437.796507 252.607213 
L 439.246686 251.998944 
L 442.147045 249.111196 
L 443.597224 248.131173 
L 445.047404 247.658038 
L 446.497583 247.488101 
L 450.848121 247.430594 
L 611.818026 247.389254 
L 613.268205 247.267091 
L 614.718385 246.926968 
L 616.168564 246.222459 
L 619.068923 244.146544 
L 620.519102 243.709278 
L 621.969281 244.146544 
L 624.86964 246.222459 
L 626.319819 246.926968 
L 627.769998 247.267091 
L 630.670357 247.422453 
L 636.471074 247.430594 
L 636.471074 247.430594 
" clip-path="url(#p7598e3b44a)" style="fill: none; stroke: #ff7f0e; stroke-width: 2; stroke-linecap: square"/>
   </g>
   <g id="LineCollection_1">
    <path d="M 521.877904 312.691092 
L 521.877904 126.648751 
" clip-path="url(#p7598e3b44a)" style="fill: none; stroke-dasharray: 7.4,3.2; stroke-dashoffset: 0; stroke: #000000; stroke-width: 2"/>
    <path d="M 536.379697 312.691092 
L 536.379697 126.648751 
" clip-path="url(#p7598e3b44a)" style="fill: none; stroke-dasharray: 7.4,3.2; stroke-dashoffset: 0; stroke: #000000; stroke-width: 2"/>
    <path d="M 565.383284 312.691092 
L 565.383284 126.648751 
" clip-path="url(#p7598e3b44a)" style="fill: none; stroke-dasharray: 7.4,3.2; stroke-dashoffset: 0; stroke: #000000; stroke-width: 2"/>
    <path d="M 623.390457 312.691092 
L 623.390457 126.648751 
" clip-path="url(#p7598e3b44a)" style="fill: none; stroke-dasharray: 7.4,3.2; stroke-dashoffset: 0; stroke: #000000; stroke-width: 2"/>
   </g>
   <g id="patch_8">
    <path d="M 394.363636 333.490909 
L 394.363636 86.4 
" style="fill: none; stroke: #000000; stroke-width: 0.8; stroke-linejoin: miter; stroke-linecap: square"/>
   </g>
   <g id="patch_9">
    <path d="M 648 333.490909 
L 648 86.4 
" style="fill: none; stroke: #000000; stroke-width: 0.8; stroke-linejoin: miter; stroke-linecap: square"/>
   </g>
   <g id="patch_10">
    <path d="M 394.363636 333.490909 
L 648 333.490909 
" style="fill: none; stroke: #000000; stroke-width: 0.8; stroke-linejoin: miter; stroke-linecap: square"/>
   </g>
   <g id="patch_11">
    <path d="M 394.363636 86.4 
L 648 86.4 
" style="fill: none; stroke: #000000; stroke-width: 0.8; stroke-linejoin: miter; stroke-linecap: square"/>
   </g>
   <g id="text_25">
    <!-- unit_34 -->
    <g transform="translate(498.922756 80.4)scale(0.12 -0.12)">
     <defs>
      <path id="DejaVuSans-75" d="M 544 1381 
L 544 3500 
L 1119 3500 
L 1119 1403 
Q 1119 906 1312 657 
Q 1506 409 1894 409 
Q 2359 409 2629 706 
Q 2900 1003 2900 1516 
L 2900 3500 
L 3475 3500 
L 3475 0 
L 2900 0 
L 2900 538 
Q 2691 219 2414 64 
Q 2138 -91 1772 -91 
Q 1169 -91 856 284 
Q 544 659 544 1381 
z
M 1991 3584 
L 1991 3584 
z
" transform="scale(0.015625)"/>
      <path id="DejaVuSans-6e" d="M 3513 2113 
L 3513 0 
L 2938 0 
L 2938 2094 
Q 2938 2591 2744 2837 
Q 2550 3084 2163 3084 
Q 1697 3084 1428 2787 
Q 1159 2491 1159 1978 
L 1159 0 
L 581 0 
L 581 3500 
L 1159 3500 
L 1159 2956 
Q 1366 3272 1645 3428 
Q 1925 3584 2291 3584 
Q 2894 3584 3203 3211 
Q 3513 2838 3513 2113 
z
" transform="scale(0.015625)"/>
      <path id="DejaVuSans-69" d="M 603 3500 
L 1178 3500 
L 1178 0 
L 603 0 
L 603 3500 
z
M 603 4863 
L 1178 4863 
L 1178 4134 
L 603 4134 
L 603 4863 
z
" transform="scale(0.015625)"/>
      <path id="DejaVuSans-74" d="M 1172 4494 
L 1172 3500 
L 2356 3500 
L 2356 3053 
L 1172 3053 
L 1172 1153 
Q 1172 725 1289 603 
Q 1406 481 1766 481 
L 2356 481 
L 2356 0 
L 1766 0 
Q 1100 0 847 248 
Q 594 497 594 1153 
L 594 3053 
L 172 3053 
L 172 3500 
L 594 3500 
L 594 4494 
L 1172 4494 
z
" transform="scale(0.015625)"/>
      <path id="DejaVuSans-5f" d="M 3263 -1063 
L 3263 -1509 
L -63 -1509 
L -63 -1063 
L 3263 -1063 
z
" transform="scale(0.015625)"/>
      <path id="DejaVuSans-33" d="M 2597 2516 
Q 3050 2419 3304 2112 
Q 3559 1806 3559 1356 
Q 3559 666 3084 287 
Q 2609 -91 1734 -91 
Q 1441 -91 1130 -33 
Q 819 25 488 141 
L 488 750 
Q 750 597 1062 519 
Q 1375 441 1716 441 
Q 2309 441 2620 675 
Q 2931 909 2931 1356 
Q 2931 1769 2642 2001 
Q 2353 2234 1838 2234 
L 1294 2234 
L 1294 2753 
L 1863 2753 
Q 2328 2753 2575 2939 
Q 2822 3125 2822 3475 
Q 2822 3834 2567 4026 
Q 2313 4219 1838 4219 
Q 1578 4219 1281 4162 
Q 984 4106 628 3988 
L 628 4550 
Q 988 4650 1302 4700 
Q 1616 4750 1894 4750 
Q 2613 4750 3031 4423 
Q 3450 4097 3450 3541 
Q 3450 3153 3228 2886 
Q 3006 2619 2597 2516 
z
" transform="scale(0.015625)"/>
     </defs>
     <use xlink:href="#DejaVuSans-75"/>
     <use xlink:href="#DejaVuSans-6e" x="63.378906"/>
     <use xlink:href="#DejaVuSans-69" x="126.757812"/>
     <use xlink:href="#DejaVuSans-74" x="154.541016"/>
     <use xlink:href="#DejaVuSans-5f" x="193.75"/>
     <use xlink:href="#DejaVuSans-33" x="243.75"/>
     <use xlink:href="#DejaVuSans-34" x="307.373047"/>
    </g>
   </g>
  </g>
  <g id="axes_3">
   <g id="patch_12">
    <path d="M 90 630 
L 343.636364 630 
L 343.636364 382.909091 
L 90 382.909091 
z
" style="fill: #ffffff"/>
   </g>
   <g id="matplotlib.axis_5">
    <g id="xtick_12">
     <g id="line2d_29">
      <g>
       <use xlink:href="#m4b7779f900" x="90" y="630" style="stroke: #000000; stroke-width: 0.8"/>
      </g>
     </g>
     <g id="text_26">
      <!-- 0.0 -->
      <g transform="translate(82.048438 644.598437)scale(0.1 -0.1)">
       <use xlink:href="#DejaVuSans-30"/>
       <use xlink:href="#DejaVuSans-2e" x="63.623047"/>
       <use xlink:href="#DejaVuSans-30" x="95.410156"/>
      </g>
     </g>
    </g>
    <g id="xtick_13">
     <g id="line2d_30">
      <g>
       <use xlink:href="#m4b7779f900" x="140.727273" y="630" style="stroke: #000000; stroke-width: 0.8"/>
      </g>
     </g>
     <g id="text_27">
      <!-- 0.2 -->
      <g transform="translate(132.77571 644.598437)scale(0.1 -0.1)">
       <use xlink:href="#DejaVuSans-30"/>
       <use xlink:href="#DejaVuSans-2e" x="63.623047"/>
       <use xlink:href="#DejaVuSans-32" x="95.410156"/>
      </g>
     </g>
    </g>
    <g id="xtick_14">
     <g id="line2d_31">
      <g>
       <use xlink:href="#m4b7779f900" x="191.454545" y="630" style="stroke: #000000; stroke-width: 0.8"/>
      </g>
     </g>
     <g id="text_28">
      <!-- 0.4 -->
      <g transform="translate(183.502983 644.598437)scale(0.1 -0.1)">
       <use xlink:href="#DejaVuSans-30"/>
       <use xlink:href="#DejaVuSans-2e" x="63.623047"/>
       <use xlink:href="#DejaVuSans-34" x="95.410156"/>
      </g>
     </g>
    </g>
    <g id="xtick_15">
     <g id="line2d_32">
      <g>
       <use xlink:href="#m4b7779f900" x="242.181818" y="630" style="stroke: #000000; stroke-width: 0.8"/>
      </g>
     </g>
     <g id="text_29">
      <!-- 0.6 -->
      <g transform="translate(234.230256 644.598437)scale(0.1 -0.1)">
       <use xlink:href="#DejaVuSans-30"/>
       <use xlink:href="#DejaVuSans-2e" x="63.623047"/>
       <use xlink:href="#DejaVuSans-36" x="95.410156"/>
      </g>
     </g>
    </g>
    <g id="xtick_16">
     <g id="line2d_33">
      <g>
       <use xlink:href="#m4b7779f900" x="292.909091" y="630" style="stroke: #000000; stroke-width: 0.8"/>
      </g>
     </g>
     <g id="text_30">
      <!-- 0.8 -->
      <g transform="translate(284.957528 644.598437)scale(0.1 -0.1)">
       <use xlink:href="#DejaVuSans-30"/>
       <use xlink:href="#DejaVuSans-2e" x="63.623047"/>
       <use xlink:href="#DejaVuSans-38" x="95.410156"/>
      </g>
     </g>
    </g>
    <g id="xtick_17">
     <g id="line2d_34">
      <g>
       <use xlink:href="#m4b7779f900" x="343.636364" y="630" style="stroke: #000000; stroke-width: 0.8"/>
      </g>
     </g>
     <g id="text_31">
      <!-- 1.0 -->
      <g transform="translate(335.684801 644.598437)scale(0.1 -0.1)">
       <use xlink:href="#DejaVuSans-31"/>
       <use xlink:href="#DejaVuSans-2e" x="63.623047"/>
       <use xlink:href="#DejaVuSans-30" x="95.410156"/>
      </g>
     </g>
    </g>
   </g>
   <g id="matplotlib.axis_6">
    <g id="ytick_14">
     <g id="line2d_35">
      <g>
       <use xlink:href="#m8244ba1cb8" x="90" y="630" style="stroke: #000000; stroke-width: 0.8"/>
      </g>
     </g>
     <g id="text_32">
      <!-- 0.0 -->
      <g transform="translate(67.096875 633.799219)scale(0.1 -0.1)">
       <use xlink:href="#DejaVuSans-30"/>
       <use xlink:href="#DejaVuSans-2e" x="63.623047"/>
       <use xlink:href="#DejaVuSans-30" x="95.410156"/>
      </g>
     </g>
    </g>
    <g id="ytick_15">
     <g id="line2d_36">
      <g>
       <use xlink:href="#m8244ba1cb8" x="90" y="580.581818" style="stroke: #000000; stroke-width: 0.8"/>
      </g>
     </g>
     <g id="text_33">
      <!-- 0.2 -->
      <g transform="translate(67.096875 584.381037)scale(0.1 -0.1)">
       <use xlink:href="#DejaVuSans-30"/>
       <use xlink:href="#DejaVuSans-2e" x="63.623047"/>
       <use xlink:href="#DejaVuSans-32" x="95.410156"/>
      </g>
     </g>
    </g>
    <g id="ytick_16">
     <g id="line2d_37">
      <g>
       <use xlink:href="#m8244ba1cb8" x="90" y="531.163636" style="stroke: #000000; stroke-width: 0.8"/>
      </g>
     </g>
     <g id="text_34">
      <!-- 0.4 -->
      <g transform="translate(67.096875 534.962855)scale(0.1 -0.1)">
       <use xlink:href="#DejaVuSans-30"/>
       <use xlink:href="#DejaVuSans-2e" x="63.623047"/>
       <use xlink:href="#DejaVuSans-34" x="95.410156"/>
      </g>
     </g>
    </g>
    <g id="ytick_17">
     <g id="line2d_38">
      <g>
       <use xlink:href="#m8244ba1cb8" x="90" y="481.745455" style="stroke: #000000; stroke-width: 0.8"/>
      </g>
     </g>
     <g id="text_35">
      <!-- 0.6 -->
      <g transform="translate(67.096875 485.544673)scale(0.1 -0.1)">
       <use xlink:href="#DejaVuSans-30"/>
       <use xlink:href="#DejaVuSans-2e" x="63.623047"/>
       <use xlink:href="#DejaVuSans-36" x="95.410156"/>
      </g>
     </g>
    </g>
    <g id="ytick_18">
     <g id="line2d_39">
      <g>
       <use xlink:href="#m8244ba1cb8" x="90" y="432.327273" style="stroke: #000000; stroke-width: 0.8"/>
      </g>
     </g>
     <g id="text_36">
      <!-- 0.8 -->
      <g transform="translate(67.096875 436.126491)scale(0.1 -0.1)">
       <use xlink:href="#DejaVuSans-30"/>
       <use xlink:href="#DejaVuSans-2e" x="63.623047"/>
       <use xlink:href="#DejaVuSans-38" x="95.410156"/>
      </g>
     </g>
    </g>
    <g id="ytick_19">
     <g id="line2d_40">
      <g>
       <use xlink:href="#m8244ba1cb8" x="90" y="382.909091" style="stroke: #000000; stroke-width: 0.8"/>
      </g>
     </g>
     <g id="text_37">
      <!-- 1.0 -->
      <g transform="translate(67.096875 386.70831)scale(0.1 -0.1)">
       <use xlink:href="#DejaVuSans-31"/>
       <use xlink:href="#DejaVuSans-2e" x="63.623047"/>
       <use xlink:href="#DejaVuSans-30" x="95.410156"/>
      </g>
     </g>
    </g>
   </g>
   <g id="patch_13">
    <path d="M 90 630 
L 90 382.909091 
" style="fill: none; stroke: #000000; stroke-width: 0.8; stroke-linejoin: miter; stroke-linecap: square"/>
   </g>
   <g id="patch_14">
    <path d="M 343.636364 630 
L 343.636364 382.909091 
" style="fill: none; stroke: #000000; stroke-width: 0.8; stroke-linejoin: miter; stroke-linecap: square"/>
   </g>
   <g id="patch_15">
    <path d="M 90 630 
L 343.636364 630 
" style="fill: none; stroke: #000000; stroke-width: 0.8; stroke-linejoin: miter; stroke-linecap: square"/>
   </g>
   <g id="patch_16">
    <path d="M 90 382.909091 
L 343.636364 382.909091 
" style="fill: none; stroke: #000000; stroke-width: 0.8; stroke-linejoin: miter; stroke-linecap: square"/>
   </g>
  </g>
  <g id="axes_4">
   <g id="patch_17">
    <path d="M 394.363636 630 
L 648 630 
L 648 382.909091 
L 394.363636 382.909091 
z
" style="fill: #ffffff"/>
   </g>
   <g id="matplotlib.axis_7">
    <g id="xtick_18">
     <g id="line2d_41">
      <g>
       <use xlink:href="#m4b7779f900" x="405.863558" y="630" style="stroke: #000000; stroke-width: 0.8"/>
      </g>
     </g>
     <g id="text_38">
      <!-- 0 -->
      <g transform="translate(402.682308 644.598437)scale(0.1 -0.1)">
       <use xlink:href="#DejaVuSans-30"/>
      </g>
     </g>
    </g>
    <g id="xtick_19">
     <g id="line2d_42">
      <g>
       <use xlink:href="#m4b7779f900" x="463.870731" y="630" style="stroke: #000000; stroke-width: 0.8"/>
      </g>
     </g>
     <g id="text_39">
      <!-- 2000 -->
      <g transform="translate(451.145731 644.598437)scale(0.1 -0.1)">
       <use xlink:href="#DejaVuSans-32"/>
       <use xlink:href="#DejaVuSans-30" x="63.623047"/>
       <use xlink:href="#DejaVuSans-30" x="127.246094"/>
       <use xlink:href="#DejaVuSans-30" x="190.869141"/>
      </g>
     </g>
    </g>
    <g id="xtick_20">
     <g id="line2d_43">
      <g>
       <use xlink:href="#m4b7779f900" x="521.877904" y="630" style="stroke: #000000; stroke-width: 0.8"/>
      </g>
     </g>
     <g id="text_40">
      <!-- 4000 -->
      <g transform="translate(509.152904 644.598437)scale(0.1 -0.1)">
       <use xlink:href="#DejaVuSans-34"/>
       <use xlink:href="#DejaVuSans-30" x="63.623047"/>
       <use xlink:href="#DejaVuSans-30" x="127.246094"/>
       <use xlink:href="#DejaVuSans-30" x="190.869141"/>
      </g>
     </g>
    </g>
    <g id="xtick_21">
     <g id="line2d_44">
      <g>
       <use xlink:href="#m4b7779f900" x="579.885077" y="630" style="stroke: #000000; stroke-width: 0.8"/>
      </g>
     </g>
     <g id="text_41">
      <!-- 6000 -->
      <g transform="translate(567.160077 644.598437)scale(0.1 -0.1)">
       <use xlink:href="#DejaVuSans-36"/>
       <use xlink:href="#DejaVuSans-30" x="63.623047"/>
       <use xlink:href="#DejaVuSans-30" x="127.246094"/>
       <use xlink:href="#DejaVuSans-30" x="190.869141"/>
      </g>
     </g>
    </g>
    <g id="xtick_22">
     <g id="line2d_45">
      <g>
       <use xlink:href="#m4b7779f900" x="637.89225" y="630" style="stroke: #000000; stroke-width: 0.8"/>
      </g>
     </g>
     <g id="text_42">
      <!-- 8000 -->
      <g transform="translate(625.16725 644.598437)scale(0.1 -0.1)">
       <use xlink:href="#DejaVuSans-38"/>
       <use xlink:href="#DejaVuSans-30" x="63.623047"/>
       <use xlink:href="#DejaVuSans-30" x="127.246094"/>
       <use xlink:href="#DejaVuSans-30" x="190.869141"/>
      </g>
     </g>
    </g>
   </g>
   <g id="matplotlib.axis_8">
    <g id="ytick_20">
     <g id="line2d_46">
      <g>
       <use xlink:href="#m8244ba1cb8" x="394.363636" y="630" style="stroke: #000000; stroke-width: 0.8"/>
      </g>
     </g>
     <g id="text_43">
      <!-- −2 -->
      <g transform="translate(372.621449 633.799219)scale(0.1 -0.1)">
       <use xlink:href="#DejaVuSans-2212"/>
       <use xlink:href="#DejaVuSans-32" x="83.789062"/>
      </g>
     </g>
    </g>
    <g id="ytick_21">
     <g id="line2d_47">
      <g>
       <use xlink:href="#m8244ba1cb8" x="394.363636" y="582.624303" style="stroke: #000000; stroke-width: 0.8"/>
      </g>
     </g>
     <g id="text_44">
      <!-- −1 -->
      <g transform="translate(372.621449 586.423521)scale(0.1 -0.1)">
       <use xlink:href="#DejaVuSans-2212"/>
       <use xlink:href="#DejaVuSans-31" x="83.789062"/>
      </g>
     </g>
    </g>
    <g id="ytick_22">
     <g id="line2d_48">
      <g>
       <use xlink:href="#m8244ba1cb8" x="394.363636" y="535.248605" style="stroke: #000000; stroke-width: 0.8"/>
      </g>
     </g>
     <g id="text_45">
      <!-- 0 -->
      <g transform="translate(381.001136 539.047824)scale(0.1 -0.1)">
       <use xlink:href="#DejaVuSans-30"/>
      </g>
     </g>
    </g>
    <g id="ytick_23">
     <g id="line2d_49">
      <g>
       <use xlink:href="#m8244ba1cb8" x="394.363636" y="487.872908" style="stroke: #000000; stroke-width: 0.8"/>
      </g>
     </g>
     <g id="text_46">
      <!-- 1 -->
      <g transform="translate(381.001136 491.672127)scale(0.1 -0.1)">
       <use xlink:href="#DejaVuSans-31"/>
      </g>
     </g>
    </g>
    <g id="ytick_24">
     <g id="line2d_50">
      <g>
       <use xlink:href="#m8244ba1cb8" x="394.363636" y="440.497211" style="stroke: #000000; stroke-width: 0.8"/>
      </g>
     </g>
     <g id="text_47">
      <!-- 2 -->
      <g transform="translate(381.001136 444.296429)scale(0.1 -0.1)">
       <use xlink:href="#DejaVuSans-32"/>
      </g>
     </g>
    </g>
    <g id="ytick_25">
     <g id="line2d_51">
      <g>
       <use xlink:href="#m8244ba1cb8" x="394.363636" y="393.121513" style="stroke: #000000; stroke-width: 0.8"/>
      </g>
     </g>
     <g id="text_48">
      <!-- 3 -->
      <g transform="translate(381.001136 396.920732)scale(0.1 -0.1)">
       <use xlink:href="#DejaVuSans-33"/>
      </g>
     </g>
    </g>
   </g>
   <g id="line2d_52">
    <path d="M 405.892562 462.417663 
L 407.342741 490.459793 
L 408.409642 721 
M 417.854593 721 
L 418.944176 574.239112 
L 420.394355 432.127532 
L 421.844535 463.241076 
L 423.294714 516.791172 
L 424.744893 530.113718 
L 426.195073 531.841246 
L 427.645252 533.33086 
L 429.095431 534.414894 
L 430.54561 534.890579 
L 431.99579 533.165363 
L 433.445969 530.311193 
L 434.896148 532.160528 
L 436.346328 548.709587 
L 437.796507 566.890855 
L 439.246686 554.15753 
L 440.696866 535.987382 
L 442.147045 532.292501 
L 443.597224 532.483366 
L 445.047404 532.507624 
L 447.947762 532.979796 
L 449.397942 534.404015 
L 452.2983 542.258667 
L 453.74848 537.770688 
L 455.198659 531.949255 
L 456.648838 532.603664 
L 458.099018 534.677619 
L 459.549197 535.749483 
L 460.999376 538.732394 
L 462.449556 547.259014 
L 463.899735 560.998866 
L 465.349914 567.870684 
L 466.800094 560.431809 
L 468.250273 562.167772 
L 469.700452 590.416079 
L 471.150632 687.041963 
L 471.352666 721 
M 483.24677 721 
L 484.202245 606.533208 
L 485.652425 550.716101 
L 487.102604 640.348021 
L 488.12297 721 
M 490.99921 721 
L 491.453142 701.253641 
L 492.903321 621.064676 
L 494.353501 599.868614 
L 495.80368 679.928972 
L 496.236381 721 
M 530.583037 721 
L 530.607984 718.455365 
L 532.058163 632.565192 
L 533.508342 607.196717 
L 534.958522 591.155272 
L 536.408701 579.223814 
L 537.85888 561.030777 
L 539.30906 536.964526 
L 540.759239 483.406978 
L 542.209418 382.909091 
L 543.659598 434.07735 
L 545.574866 721 
M 560.283776 721 
L 561.06175 636.283887 
L 562.511929 681.645203 
L 562.756318 721 
M 578.819526 721 
L 581.36426 581.813334 
L 582.814439 554.532772 
L 584.264619 590.820335 
L 585.149645 721 
M 605.95018 721 
L 606.017309 715.95535 
L 606.233769 721 
M 618.054873 721 
L 619.068923 685.102288 
L 619.852423 721 
L 619.852423 721 
" clip-path="url(#p0433337f43)" style="fill: none; stroke: #1f77b4; stroke-width: 1.5; stroke-linecap: square"/>
   </g>
   <g id="patch_18">
    <path d="M 394.363636 630 
L 394.363636 382.909091 
" style="fill: none; stroke: #000000; stroke-width: 0.8; stroke-linejoin: miter; stroke-linecap: square"/>
   </g>
   <g id="patch_19">
    <path d="M 648 630 
L 648 382.909091 
" style="fill: none; stroke: #000000; stroke-width: 0.8; stroke-linejoin: miter; stroke-linecap: square"/>
   </g>
   <g id="patch_20">
    <path d="M 394.363636 630 
L 648 630 
" style="fill: none; stroke: #000000; stroke-width: 0.8; stroke-linejoin: miter; stroke-linecap: square"/>
   </g>
   <g id="patch_21">
    <path d="M 394.363636 382.909091 
L 648 382.909091 
" style="fill: none; stroke: #000000; stroke-width: 0.8; stroke-linejoin: miter; stroke-linecap: square"/>
   </g>
   <g id="text_49">
    <!-- explained variance -->
    <g transform="translate(464.181818 376.909091)scale(0.12 -0.12)">
     <defs>
      <path id="DejaVuSans-65" d="M 3597 1894 
L 3597 1613 
L 953 1613 
Q 991 1019 1311 708 
Q 1631 397 2203 397 
Q 2534 397 2845 478 
Q 3156 559 3463 722 
L 3463 178 
Q 3153 47 2828 -22 
Q 2503 -91 2169 -91 
Q 1331 -91 842 396 
Q 353 884 353 1716 
Q 353 2575 817 3079 
Q 1281 3584 2069 3584 
Q 2775 3584 3186 3129 
Q 3597 2675 3597 1894 
z
M 3022 2063 
Q 3016 2534 2758 2815 
Q 2500 3097 2075 3097 
Q 1594 3097 1305 2825 
Q 1016 2553 972 2059 
L 3022 2063 
z
" transform="scale(0.015625)"/>
      <path id="DejaVuSans-78" d="M 3513 3500 
L 2247 1797 
L 3578 0 
L 2900 0 
L 1881 1375 
L 863 0 
L 184 0 
L 1544 1831 
L 300 3500 
L 978 3500 
L 1906 2253 
L 2834 3500 
L 3513 3500 
z
" transform="scale(0.015625)"/>
      <path id="DejaVuSans-70" d="M 1159 525 
L 1159 -1331 
L 581 -1331 
L 581 3500 
L 1159 3500 
L 1159 2969 
Q 1341 3281 1617 3432 
Q 1894 3584 2278 3584 
Q 2916 3584 3314 3078 
Q 3713 2572 3713 1747 
Q 3713 922 3314 415 
Q 2916 -91 2278 -91 
Q 1894 -91 1617 61 
Q 1341 213 1159 525 
z
M 3116 1747 
Q 3116 2381 2855 2742 
Q 2594 3103 2138 3103 
Q 1681 3103 1420 2742 
Q 1159 2381 1159 1747 
Q 1159 1113 1420 752 
Q 1681 391 2138 391 
Q 2594 391 2855 752 
Q 3116 1113 3116 1747 
z
" transform="scale(0.015625)"/>
      <path id="DejaVuSans-6c" d="M 603 4863 
L 1178 4863 
L 1178 0 
L 603 0 
L 603 4863 
z
" transform="scale(0.015625)"/>
      <path id="DejaVuSans-61" d="M 2194 1759 
Q 1497 1759 1228 1600 
Q 959 1441 959 1056 
Q 959 750 1161 570 
Q 1363 391 1709 391 
Q 2188 391 2477 730 
Q 2766 1069 2766 1631 
L 2766 1759 
L 2194 1759 
z
M 3341 1997 
L 3341 0 
L 2766 0 
L 2766 531 
Q 2569 213 2275 61 
Q 1981 -91 1556 -91 
Q 1019 -91 701 211 
Q 384 513 384 1019 
Q 384 1609 779 1909 
Q 1175 2209 1959 2209 
L 2766 2209 
L 2766 2266 
Q 2766 2663 2505 2880 
Q 2244 3097 1772 3097 
Q 1472 3097 1187 3025 
Q 903 2953 641 2809 
L 641 3341 
Q 956 3463 1253 3523 
Q 1550 3584 1831 3584 
Q 2591 3584 2966 3190 
Q 3341 2797 3341 1997 
z
" transform="scale(0.015625)"/>
      <path id="DejaVuSans-64" d="M 2906 2969 
L 2906 4863 
L 3481 4863 
L 3481 0 
L 2906 0 
L 2906 525 
Q 2725 213 2448 61 
Q 2172 -91 1784 -91 
Q 1150 -91 751 415 
Q 353 922 353 1747 
Q 353 2572 751 3078 
Q 1150 3584 1784 3584 
Q 2172 3584 2448 3432 
Q 2725 3281 2906 2969 
z
M 947 1747 
Q 947 1113 1208 752 
Q 1469 391 1925 391 
Q 2381 391 2643 752 
Q 2906 1113 2906 1747 
Q 2906 2381 2643 2742 
Q 2381 3103 1925 3103 
Q 1469 3103 1208 2742 
Q 947 2381 947 1747 
z
" transform="scale(0.015625)"/>
      <path id="DejaVuSans-20" transform="scale(0.015625)"/>
      <path id="DejaVuSans-76" d="M 191 3500 
L 800 3500 
L 1894 563 
L 2988 3500 
L 3597 3500 
L 2284 0 
L 1503 0 
L 191 3500 
z
" transform="scale(0.015625)"/>
      <path id="DejaVuSans-72" d="M 2631 2963 
Q 2534 3019 2420 3045 
Q 2306 3072 2169 3072 
Q 1681 3072 1420 2755 
Q 1159 2438 1159 1844 
L 1159 0 
L 581 0 
L 581 3500 
L 1159 3500 
L 1159 2956 
Q 1341 3275 1631 3429 
Q 1922 3584 2338 3584 
Q 2397 3584 2469 3576 
Q 2541 3569 2628 3553 
L 2631 2963 
z
" transform="scale(0.015625)"/>
      <path id="DejaVuSans-63" d="M 3122 3366 
L 3122 2828 
Q 2878 2963 2633 3030 
Q 2388 3097 2138 3097 
Q 1578 3097 1268 2742 
Q 959 2388 959 1747 
Q 959 1106 1268 751 
Q 1578 397 2138 397 
Q 2388 397 2633 464 
Q 2878 531 3122 666 
L 3122 134 
Q 2881 22 2623 -34 
Q 2366 -91 2075 -91 
Q 1284 -91 818 406 
Q 353 903 353 1747 
Q 353 2603 823 3093 
Q 1294 3584 2113 3584 
Q 2378 3584 2631 3529 
Q 2884 3475 3122 3366 
z
" transform="scale(0.015625)"/>
     </defs>
     <use xlink:href="#DejaVuSans-65"/>
     <use xlink:href="#DejaVuSans-78" x="59.773438"/>
     <use xlink:href="#DejaVuSans-70" x="118.953125"/>
     <use xlink:href="#DejaVuSans-6c" x="182.429688"/>
     <use xlink:href="#DejaVuSans-61" x="210.212891"/>
     <use xlink:href="#DejaVuSans-69" x="271.492188"/>
     <use xlink:href="#DejaVuSans-6e" x="299.275391"/>
     <use xlink:href="#DejaVuSans-65" x="362.654297"/>
     <use xlink:href="#DejaVuSans-64" x="424.177734"/>
     <use xlink:href="#DejaVuSans-20" x="487.654297"/>
     <use xlink:href="#DejaVuSans-76" x="519.441406"/>
     <use xlink:href="#DejaVuSans-61" x="578.621094"/>
     <use xlink:href="#DejaVuSans-72" x="639.900391"/>
     <use xlink:href="#DejaVuSans-69" x="681.013672"/>
     <use xlink:href="#DejaVuSans-61" x="708.796875"/>
     <use xlink:href="#DejaVuSans-6e" x="770.076172"/>
     <use xlink:href="#DejaVuSans-63" x="833.455078"/>
     <use xlink:href="#DejaVuSans-65" x="888.435547"/>
    </g>
   </g>
  </g>
 </g>
 <defs>
  <clipPath id="p7598e3b44a">
   <rect x="394.363636" y="86.4" width="253.636364" height="247.090909"/>
  </clipPath>
  <clipPath id="p0433337f43">
   <rect x="394.363636" y="382.909091" width="253.636364" height="247.090909"/>
  </clipPath>
 </defs>
</svg>
