<?xml version="1.0" encoding="utf-8" standalone="no"?>
<!DOCTYPE svg PUBLIC "-//W3C//DTD SVG 1.1//EN"
  "http://www.w3.org/Graphics/SVG/1.1/DTD/svg11.dtd">
<svg xmlns:xlink="http://www.w3.org/1999/xlink" width="720pt" height="720pt" viewBox="0 0 720 720" xmlns="http://www.w3.org/2000/svg" version="1.1">
 <metadata>
  <rdf:RDF xmlns:dc="http://purl.org/dc/elements/1.1/" xmlns:cc="http://creativecommons.org/ns#" xmlns:rdf="http://www.w3.org/1999/02/22-rdf-syntax-ns#">
   <cc:Work>
    <dc:type rdf:resource="http://purl.org/dc/dcmitype/StillImage"/>
    <dc:date>2023-12-19T18:20:45.379419</dc:date>
    <dc:format>image/svg+xml</dc:format>
    <dc:creator>
     <cc:Agent>
      <dc:title>Matplotlib v3.5.2, https://matplotlib.org/</dc:title>
     </cc:Agent>
    </dc:creator>
   </cc:Work>
  </rdf:RDF>
 </metadata>
 <defs>
  <style type="text/css">*{stroke-linejoin: round; stroke-linecap: butt}</style>
 </defs>
 <g id="figure_1">
  <g id="patch_1">
   <path d="M 0 720 
L 720 720 
L 720 0 
L 0 0 
z
" style="fill: #ffffff"/>
  </g>
  <g id="axes_1">
   <g id="patch_2">
    <path d="M 90 333.490909 
L 343.636364 333.490909 
L 343.636364 86.4 
L 90 86.4 
z
" style="fill: #ffffff"/>
   </g>
   <g id="matplotlib.axis_1">
    <g id="xtick_1">
     <g id="line2d_1">
      <defs>
       <path id="m2e7b4dd2b6" d="M 0 0 
L 0 3.5 
" style="stroke: #000000; stroke-width: 0.8"/>
      </defs>
      <g>
       <use xlink:href="#m2e7b4dd2b6" x="90" y="333.490909" style="stroke: #000000; stroke-width: 0.8"/>
      </g>
     </g>
     <g id="text_1">
      <!-- 0.0 -->
      <g transform="translate(82.048438 348.089347)scale(0.1 -0.1)">
       <defs>
        <path id="DejaVuSans-30" d="M 2034 4250 
Q 1547 4250 1301 3770 
Q 1056 3291 1056 2328 
Q 1056 1369 1301 889 
Q 1547 409 2034 409 
Q 2525 409 2770 889 
Q 3016 1369 3016 2328 
Q 3016 3291 2770 3770 
Q 2525 4250 2034 4250 
z
M 2034 4750 
Q 2819 4750 3233 4129 
Q 3647 3509 3647 2328 
Q 3647 1150 3233 529 
Q 2819 -91 2034 -91 
Q 1250 -91 836 529 
Q 422 1150 422 2328 
Q 422 3509 836 4129 
Q 1250 4750 2034 4750 
z
" transform="scale(0.015625)"/>
        <path id="DejaVuSans-2e" d="M 684 794 
L 1344 794 
L 1344 0 
L 684 0 
L 684 794 
z
" transform="scale(0.015625)"/>
       </defs>
       <use xlink:href="#DejaVuSans-30"/>
       <use xlink:href="#DejaVuSans-2e" x="63.623047"/>
       <use xlink:href="#DejaVuSans-30" x="95.410156"/>
      </g>
     </g>
    </g>
    <g id="xtick_2">
     <g id="line2d_2">
      <g>
       <use xlink:href="#m2e7b4dd2b6" x="140.727273" y="333.490909" style="stroke: #000000; stroke-width: 0.8"/>
      </g>
     </g>
     <g id="text_2">
      <!-- 0.2 -->
      <g transform="translate(132.77571 348.089347)scale(0.1 -0.1)">
       <defs>
        <path id="DejaVuSans-32" d="M 1228 531 
L 3431 531 
L 3431 0 
L 469 0 
L 469 531 
Q 828 903 1448 1529 
Q 2069 2156 2228 2338 
Q 2531 2678 2651 2914 
Q 2772 3150 2772 3378 
Q 2772 3750 2511 3984 
Q 2250 4219 1831 4219 
Q 1534 4219 1204 4116 
Q 875 4013 500 3803 
L 500 4441 
Q 881 4594 1212 4672 
Q 1544 4750 1819 4750 
Q 2544 4750 2975 4387 
Q 3406 4025 3406 3419 
Q 3406 3131 3298 2873 
Q 3191 2616 2906 2266 
Q 2828 2175 2409 1742 
Q 1991 1309 1228 531 
z
" transform="scale(0.015625)"/>
       </defs>
       <use xlink:href="#DejaVuSans-30"/>
       <use xlink:href="#DejaVuSans-2e" x="63.623047"/>
       <use xlink:href="#DejaVuSans-32" x="95.410156"/>
      </g>
     </g>
    </g>
    <g id="xtick_3">
     <g id="line2d_3">
      <g>
       <use xlink:href="#m2e7b4dd2b6" x="191.454545" y="333.490909" style="stroke: #000000; stroke-width: 0.8"/>
      </g>
     </g>
     <g id="text_3">
      <!-- 0.4 -->
      <g transform="translate(183.502983 348.089347)scale(0.1 -0.1)">
       <defs>
        <path id="DejaVuSans-34" d="M 2419 4116 
L 825 1625 
L 2419 1625 
L 2419 4116 
z
M 2253 4666 
L 3047 4666 
L 3047 1625 
L 3713 1625 
L 3713 1100 
L 3047 1100 
L 3047 0 
L 2419 0 
L 2419 1100 
L 313 1100 
L 313 1709 
L 2253 4666 
z
" transform="scale(0.015625)"/>
       </defs>
       <use xlink:href="#DejaVuSans-30"/>
       <use xlink:href="#DejaVuSans-2e" x="63.623047"/>
       <use xlink:href="#DejaVuSans-34" x="95.410156"/>
      </g>
     </g>
    </g>
    <g id="xtick_4">
     <g id="line2d_4">
      <g>
       <use xlink:href="#m2e7b4dd2b6" x="242.181818" y="333.490909" style="stroke: #000000; stroke-width: 0.8"/>
      </g>
     </g>
     <g id="text_4">
      <!-- 0.6 -->
      <g transform="translate(234.230256 348.089347)scale(0.1 -0.1)">
       <defs>
        <path id="DejaVuSans-36" d="M 2113 2584 
Q 1688 2584 1439 2293 
Q 1191 2003 1191 1497 
Q 1191 994 1439 701 
Q 1688 409 2113 409 
Q 2538 409 2786 701 
Q 3034 994 3034 1497 
Q 3034 2003 2786 2293 
Q 2538 2584 2113 2584 
z
M 3366 4563 
L 3366 3988 
Q 3128 4100 2886 4159 
Q 2644 4219 2406 4219 
Q 1781 4219 1451 3797 
Q 1122 3375 1075 2522 
Q 1259 2794 1537 2939 
Q 1816 3084 2150 3084 
Q 2853 3084 3261 2657 
Q 3669 2231 3669 1497 
Q 3669 778 3244 343 
Q 2819 -91 2113 -91 
Q 1303 -91 875 529 
Q 447 1150 447 2328 
Q 447 3434 972 4092 
Q 1497 4750 2381 4750 
Q 2619 4750 2861 4703 
Q 3103 4656 3366 4563 
z
" transform="scale(0.015625)"/>
       </defs>
       <use xlink:href="#DejaVuSans-30"/>
       <use xlink:href="#DejaVuSans-2e" x="63.623047"/>
       <use xlink:href="#DejaVuSans-36" x="95.410156"/>
      </g>
     </g>
    </g>
    <g id="xtick_5">
     <g id="line2d_5">
      <g>
       <use xlink:href="#m2e7b4dd2b6" x="292.909091" y="333.490909" style="stroke: #000000; stroke-width: 0.8"/>
      </g>
     </g>
     <g id="text_5">
      <!-- 0.8 -->
      <g transform="translate(284.957528 348.089347)scale(0.1 -0.1)">
       <defs>
        <path id="DejaVuSans-38" d="M 2034 2216 
Q 1584 2216 1326 1975 
Q 1069 1734 1069 1313 
Q 1069 891 1326 650 
Q 1584 409 2034 409 
Q 2484 409 2743 651 
Q 3003 894 3003 1313 
Q 3003 1734 2745 1975 
Q 2488 2216 2034 2216 
z
M 1403 2484 
Q 997 2584 770 2862 
Q 544 3141 544 3541 
Q 544 4100 942 4425 
Q 1341 4750 2034 4750 
Q 2731 4750 3128 4425 
Q 3525 4100 3525 3541 
Q 3525 3141 3298 2862 
Q 3072 2584 2669 2484 
Q 3125 2378 3379 2068 
Q 3634 1759 3634 1313 
Q 3634 634 3220 271 
Q 2806 -91 2034 -91 
Q 1263 -91 848 271 
Q 434 634 434 1313 
Q 434 1759 690 2068 
Q 947 2378 1403 2484 
z
M 1172 3481 
Q 1172 3119 1398 2916 
Q 1625 2713 2034 2713 
Q 2441 2713 2670 2916 
Q 2900 3119 2900 3481 
Q 2900 3844 2670 4047 
Q 2441 4250 2034 4250 
Q 1625 4250 1398 4047 
Q 1172 3844 1172 3481 
z
" transform="scale(0.015625)"/>
       </defs>
       <use xlink:href="#DejaVuSans-30"/>
       <use xlink:href="#DejaVuSans-2e" x="63.623047"/>
       <use xlink:href="#DejaVuSans-38" x="95.410156"/>
      </g>
     </g>
    </g>
    <g id="xtick_6">
     <g id="line2d_6">
      <g>
       <use xlink:href="#m2e7b4dd2b6" x="343.636364" y="333.490909" style="stroke: #000000; stroke-width: 0.8"/>
      </g>
     </g>
     <g id="text_6">
      <!-- 1.0 -->
      <g transform="translate(335.684801 348.089347)scale(0.1 -0.1)">
       <defs>
        <path id="DejaVuSans-31" d="M 794 531 
L 1825 531 
L 1825 4091 
L 703 3866 
L 703 4441 
L 1819 4666 
L 2450 4666 
L 2450 531 
L 3481 531 
L 3481 0 
L 794 0 
L 794 531 
z
" transform="scale(0.015625)"/>
       </defs>
       <use xlink:href="#DejaVuSans-31"/>
       <use xlink:href="#DejaVuSans-2e" x="63.623047"/>
       <use xlink:href="#DejaVuSans-30" x="95.410156"/>
      </g>
     </g>
    </g>
   </g>
   <g id="matplotlib.axis_2">
    <g id="ytick_1">
     <g id="line2d_7">
      <defs>
       <path id="m2c07edaca1" d="M 0 0 
L -3.5 0 
" style="stroke: #000000; stroke-width: 0.8"/>
      </defs>
      <g>
       <use xlink:href="#m2c07edaca1" x="90" y="333.490909" style="stroke: #000000; stroke-width: 0.8"/>
      </g>
     </g>
     <g id="text_7">
      <!-- 0.0 -->
      <g transform="translate(67.096875 337.290128)scale(0.1 -0.1)">
       <use xlink:href="#DejaVuSans-30"/>
       <use xlink:href="#DejaVuSans-2e" x="63.623047"/>
       <use xlink:href="#DejaVuSans-30" x="95.410156"/>
      </g>
     </g>
    </g>
    <g id="ytick_2">
     <g id="line2d_8">
      <g>
       <use xlink:href="#m2c07edaca1" x="90" y="284.072727" style="stroke: #000000; stroke-width: 0.8"/>
      </g>
     </g>
     <g id="text_8">
      <!-- 0.2 -->
      <g transform="translate(67.096875 287.871946)scale(0.1 -0.1)">
       <use xlink:href="#DejaVuSans-30"/>
       <use xlink:href="#DejaVuSans-2e" x="63.623047"/>
       <use xlink:href="#DejaVuSans-32" x="95.410156"/>
      </g>
     </g>
    </g>
    <g id="ytick_3">
     <g id="line2d_9">
      <g>
       <use xlink:href="#m2c07edaca1" x="90" y="234.654545" style="stroke: #000000; stroke-width: 0.8"/>
      </g>
     </g>
     <g id="text_9">
      <!-- 0.4 -->
      <g transform="translate(67.096875 238.453764)scale(0.1 -0.1)">
       <use xlink:href="#DejaVuSans-30"/>
       <use xlink:href="#DejaVuSans-2e" x="63.623047"/>
       <use xlink:href="#DejaVuSans-34" x="95.410156"/>
      </g>
     </g>
    </g>
    <g id="ytick_4">
     <g id="line2d_10">
      <g>
       <use xlink:href="#m2c07edaca1" x="90" y="185.236364" style="stroke: #000000; stroke-width: 0.8"/>
      </g>
     </g>
     <g id="text_10">
      <!-- 0.6 -->
      <g transform="translate(67.096875 189.035582)scale(0.1 -0.1)">
       <use xlink:href="#DejaVuSans-30"/>
       <use xlink:href="#DejaVuSans-2e" x="63.623047"/>
       <use xlink:href="#DejaVuSans-36" x="95.410156"/>
      </g>
     </g>
    </g>
    <g id="ytick_5">
     <g id="line2d_11">
      <g>
       <use xlink:href="#m2c07edaca1" x="90" y="135.818182" style="stroke: #000000; stroke-width: 0.8"/>
      </g>
     </g>
     <g id="text_11">
      <!-- 0.8 -->
      <g transform="translate(67.096875 139.617401)scale(0.1 -0.1)">
       <use xlink:href="#DejaVuSans-30"/>
       <use xlink:href="#DejaVuSans-2e" x="63.623047"/>
       <use xlink:href="#DejaVuSans-38" x="95.410156"/>
      </g>
     </g>
    </g>
    <g id="ytick_6">
     <g id="line2d_12">
      <g>
       <use xlink:href="#m2c07edaca1" x="90" y="86.4" style="stroke: #000000; stroke-width: 0.8"/>
      </g>
     </g>
     <g id="text_12">
      <!-- 1.0 -->
      <g transform="translate(67.096875 90.199219)scale(0.1 -0.1)">
       <use xlink:href="#DejaVuSans-31"/>
       <use xlink:href="#DejaVuSans-2e" x="63.623047"/>
       <use xlink:href="#DejaVuSans-30" x="95.410156"/>
      </g>
     </g>
    </g>
   </g>
   <g id="patch_3">
    <path d="M 90 333.490909 
L 90 86.4 
" style="fill: none; stroke: #000000; stroke-width: 0.8; stroke-linejoin: miter; stroke-linecap: square"/>
   </g>
   <g id="patch_4">
    <path d="M 343.636364 333.490909 
L 343.636364 86.4 
" style="fill: none; stroke: #000000; stroke-width: 0.8; stroke-linejoin: miter; stroke-linecap: square"/>
   </g>
   <g id="patch_5">
    <path d="M 90 333.490909 
L 343.636364 333.490909 
" style="fill: none; stroke: #000000; stroke-width: 0.8; stroke-linejoin: miter; stroke-linecap: square"/>
   </g>
   <g id="patch_6">
    <path d="M 90 86.4 
L 343.636364 86.4 
" style="fill: none; stroke: #000000; stroke-width: 0.8; stroke-linejoin: miter; stroke-linecap: square"/>
   </g>
  </g>
  <g id="axes_2">
   <g id="patch_7">
    <path d="M 394.363636 333.490909 
L 648 333.490909 
L 648 86.4 
L 394.363636 86.4 
z
" style="fill: #ffffff"/>
   </g>
   <g id="PolyCollection_1">
    <defs>
     <path id="m100021b5d2" d="M 405.892562 -533.904158 
L 405.892562 -512.38828 
L 407.342741 -520.063375 
L 408.792921 -515.692648 
L 410.2431 -512.000818 
L 411.693279 -509.80347 
L 413.143459 -508.841559 
L 414.593638 -508.569396 
L 416.043817 -508.687162 
L 417.493997 -509.232917 
L 418.944176 -510.396234 
L 420.394355 -512.132234 
L 421.844535 -513.831824 
L 423.294714 -506.753691 
L 424.744893 -513.831824 
L 426.195073 -512.132234 
L 427.645252 -510.396234 
L 429.095431 -509.230288 
L 430.54561 -508.667395 
L 431.99579 -508.465217 
L 433.445969 -508.410273 
L 434.896148 -508.398867 
L 436.346328 -508.396801 
L 437.796507 -508.396801 
L 439.246686 -508.396801 
L 440.696866 -508.396801 
L 442.147045 -508.396801 
L 443.597224 -508.396801 
L 445.047404 -508.396801 
L 446.497583 -508.396801 
L 447.947762 -508.396801 
L 449.397942 -508.396801 
L 450.848121 -508.396801 
L 452.2983 -508.396801 
L 453.74848 -508.396801 
L 455.198659 -508.396801 
L 456.648838 -508.402274 
L 458.099018 -508.43843 
L 459.549197 -508.616776 
L 460.999376 -509.310303 
L 462.449556 -511.382566 
L 463.899735 -516.089011 
L 465.349914 -524.038505 
L 466.800094 -533.529444 
L 468.250273 -525.303043 
L 469.700452 -524.260723 
L 471.150632 -533.909828 
L 472.600811 -524.427038 
L 474.05099 -516.349961 
L 475.501169 -511.508547 
L 476.951349 -509.355552 
L 478.401528 -508.629073 
L 479.851707 -508.447947 
L 481.301887 -508.454961 
L 482.752066 -508.678969 
L 484.202245 -509.58797 
L 485.652425 -512.38755 
L 487.102604 -519.098071 
L 488.552783 -531.617822 
L 490.002963 -549.731567 
L 491.453142 -551.093364 
L 492.903321 -567.025194 
L 494.353501 -575.125047 
L 495.80368 -570.936377 
L 497.253859 -558.558553 
L 498.704039 -561.915037 
L 500.154218 -548.258455 
L 501.604397 -521.056781 
L 503.054577 -528.253995 
L 504.504756 -520.414772 
L 505.954935 -514.454852 
L 507.405115 -510.853044 
L 508.855294 -509.183653 
L 510.305473 -508.593869 
L 511.755653 -508.435606 
L 513.205832 -508.402752 
L 514.656011 -508.396801 
L 516.106191 -508.396801 
L 517.55637 -508.396801 
L 519.006549 -508.396801 
L 520.456729 -508.396801 
L 521.906908 -508.396801 
L 523.357087 -508.396801 
L 524.807266 -508.396801 
L 526.257446 -508.396801 
L 527.707625 -508.396801 
L 529.157804 -508.40449 
L 530.607984 -508.454469 
L 532.058163 -508.707917 
L 533.508342 -509.708899 
L 534.958522 -512.786636 
L 536.408701 -520.144615 
L 537.85888 -533.825215 
L 539.30906 -553.53319 
L 540.759239 -560.440135 
L 542.209418 -578.603221 
L 543.659598 -588.302527 
L 545.109777 -588.79197 
L 546.559956 -583.07438 
L 548.010136 -589.578753 
L 549.460315 -568.412742 
L 550.910494 -562.217215 
L 552.360674 -567.399287 
L 553.810853 -547.826697 
L 555.261032 -550.812509 
L 556.711212 -531.006868 
L 558.161391 -530.820757 
L 559.61157 -521.512891 
L 561.06175 -514.741941 
L 562.511929 -510.879836 
L 563.962108 -509.171757 
L 565.412288 -508.588277 
L 566.862467 -508.43315 
L 568.312646 -508.402375 
L 569.762826 -508.396801 
L 571.213005 -508.396801 
L 572.663184 -508.396801 
L 574.113363 -508.396801 
L 575.563543 -508.396801 
L 577.013722 -508.396801 
L 578.463901 -508.396801 
L 579.914081 -508.398619 
L 581.36426 -508.410656 
L 582.814439 -508.471491 
L 584.264619 -508.710536 
L 585.714798 -509.439842 
L 587.164977 -511.151583 
L 588.615157 -514.200347 
L 590.065336 -518.190194 
L 591.515515 -515.734048 
L 592.965695 -517.560398 
L 594.415874 -515.88466 
L 595.866053 -517.573449 
L 597.316233 -513.6794 
L 598.766412 -510.843706 
L 600.216591 -509.318659 
L 601.666771 -508.746446 
L 603.11695 -508.787032 
L 604.567129 -509.426735 
L 606.017309 -510.891643 
L 607.467488 -513.253407 
L 608.917667 -516.074026 
L 610.367847 -511.670714 
L 611.818026 -520.105196 
L 613.268205 -520.427454 
L 614.718385 -513.168473 
L 616.168564 -516.94652 
L 617.618743 -513.910373 
L 619.068923 -511.261459 
L 620.519102 -509.61036 
L 621.969281 -508.991205 
L 623.41946 -509.413293 
L 624.86964 -511.538454 
L 626.319819 -516.890369 
L 627.769998 -527.111251 
L 629.220178 -542.303685 
L 630.670357 -545.831891 
L 632.120536 -560.46065 
L 633.570716 -569.938867 
L 635.020895 -574.040109 
L 636.471074 -576.534024 
L 636.471074 -607.450697 
L 636.471074 -607.450697 
L 635.020895 -607.107871 
L 633.570716 -601.529835 
L 632.120536 -590.352379 
L 630.670357 -573.857743 
L 629.220178 -542.303685 
L 627.769998 -527.111251 
L 626.319819 -516.890369 
L 624.86964 -511.538454 
L 623.41946 -509.413293 
L 621.969281 -508.991205 
L 620.519102 -509.61036 
L 619.068923 -511.261459 
L 617.618743 -513.910373 
L 616.168564 -516.94652 
L 614.718385 -525.532236 
L 613.268205 -520.427454 
L 611.818026 -520.105196 
L 610.367847 -525.452726 
L 608.917667 -516.074026 
L 607.467488 -513.253407 
L 606.017309 -510.891643 
L 604.567129 -509.426735 
L 603.11695 -508.787032 
L 601.666771 -508.746446 
L 600.216591 -509.318659 
L 598.766412 -510.843706 
L 597.316233 -513.6794 
L 595.866053 -517.573449 
L 594.415874 -526.615762 
L 592.965695 -528.315847 
L 591.515515 -527.636403 
L 590.065336 -518.190194 
L 588.615157 -514.200347 
L 587.164977 -511.151583 
L 585.714798 -509.439842 
L 584.264619 -508.710536 
L 582.814439 -508.471491 
L 581.36426 -508.410656 
L 579.914081 -508.398619 
L 578.463901 -508.396801 
L 577.013722 -508.396801 
L 575.563543 -508.396801 
L 574.113363 -508.396801 
L 572.663184 -508.396801 
L 571.213005 -508.396801 
L 569.762826 -508.396801 
L 568.312646 -508.402375 
L 566.862467 -508.43315 
L 565.412288 -508.588277 
L 563.962108 -509.171757 
L 562.511929 -510.879836 
L 561.06175 -514.741941 
L 559.61157 -521.512891 
L 558.161391 -530.820757 
L 556.711212 -551.210529 
L 555.261032 -550.812509 
L 553.810853 -571.097439 
L 552.360674 -567.399287 
L 550.910494 -587.524321 
L 549.460315 -595.742646 
L 548.010136 -589.578753 
L 546.559956 -611.497284 
L 545.109777 -617.052163 
L 543.659598 -616.762436 
L 542.209418 -607.685767 
L 540.759239 -590.182111 
L 539.30906 -553.53319 
L 537.85888 -533.825215 
L 536.408701 -520.144615 
L 534.958522 -512.786636 
L 533.508342 -509.708899 
L 532.058163 -508.707917 
L 530.607984 -508.454469 
L 529.157804 -508.40449 
L 527.707625 -508.396801 
L 526.257446 -508.396801 
L 524.807266 -508.396801 
L 523.357087 -508.396801 
L 521.906908 -508.396801 
L 520.456729 -508.396801 
L 519.006549 -508.396801 
L 517.55637 -508.396801 
L 516.106191 -508.396801 
L 514.656011 -508.396801 
L 513.205832 -508.402752 
L 511.755653 -508.435606 
L 510.305473 -508.593869 
L 508.855294 -509.183653 
L 507.405115 -510.853044 
L 505.954935 -514.454852 
L 504.504756 -520.414772 
L 503.054577 -528.253995 
L 501.604397 -553.655233 
L 500.154218 -548.258455 
L 498.704039 -561.915037 
L 497.253859 -595.44776 
L 495.80368 -607.080365 
L 494.353501 -610.422276 
L 492.903321 -604.593442 
L 491.453142 -588.444044 
L 490.002963 -549.731567 
L 488.552783 -531.617822 
L 487.102604 -519.098071 
L 485.652425 -512.38755 
L 484.202245 -509.58797 
L 482.752066 -508.678969 
L 481.301887 -508.454961 
L 479.851707 -508.447947 
L 478.401528 -508.629073 
L 476.951349 -509.355552 
L 475.501169 -511.508547 
L 474.05099 -516.349961 
L 472.600811 -524.427038 
L 471.150632 -533.909828 
L 469.700452 -556.723421 
L 468.250273 -555.357174 
L 466.800094 -533.529444 
L 465.349914 -524.038505 
L 463.899735 -516.089011 
L 462.449556 -511.382566 
L 460.999376 -509.310303 
L 459.549197 -508.616776 
L 458.099018 -508.43843 
L 456.648838 -508.402274 
L 455.198659 -508.396801 
L 453.74848 -508.396801 
L 452.2983 -508.396801 
L 450.848121 -508.396801 
L 449.397942 -508.396801 
L 447.947762 -508.396801 
L 446.497583 -508.396801 
L 445.047404 -508.396801 
L 443.597224 -508.396801 
L 442.147045 -508.396801 
L 440.696866 -508.396801 
L 439.246686 -508.396801 
L 437.796507 -508.396801 
L 436.346328 -508.396801 
L 434.896148 -508.398867 
L 433.445969 -508.410273 
L 431.99579 -508.465217 
L 430.54561 -508.667395 
L 429.095431 -509.230288 
L 427.645252 -510.396234 
L 426.195073 -512.132234 
L 424.744893 -513.831824 
L 423.294714 -522.357287 
L 421.844535 -513.831824 
L 420.394355 -512.132234 
L 418.944176 -510.396234 
L 417.493997 -509.232917 
L 416.043817 -508.687162 
L 414.593638 -508.569396 
L 413.143459 -508.841559 
L 411.693279 -509.80347 
L 410.2431 -512.000818 
L 408.792921 -515.692648 
L 407.342741 -520.063375 
L 405.892562 -533.904158 
z
" style="stroke: #9467bd; stroke-opacity: 0.2"/>
    </defs>
    <g clip-path="url(#p766a1ecb8e)">
     <use xlink:href="#m100021b5d2" x="0" y="720" style="fill: #9467bd; fill-opacity: 0.2; stroke: #9467bd; stroke-opacity: 0.2"/>
    </g>
   </g>
   <g id="PolyCollection_2">
    <defs>
     <path id="m0192802871" d="M 405.892562 -508.396801 
L 405.892562 -508.396801 
L 407.342741 -508.396801 
L 408.792921 -508.396801 
L 410.2431 -508.396801 
L 411.693279 -508.396801 
L 413.143459 -508.396801 
L 414.593638 -508.396801 
L 416.043817 -508.396801 
L 417.493997 -508.396801 
L 418.944176 -508.396801 
L 420.394355 -508.396801 
L 421.844535 -508.396801 
L 423.294714 -508.396801 
L 424.744893 -508.396801 
L 426.195073 -508.396801 
L 427.645252 -508.396801 
L 429.095431 -508.396801 
L 430.54561 -508.396801 
L 431.99579 -508.396801 
L 433.445969 -508.396801 
L 434.896148 -508.396801 
L 436.346328 -508.396801 
L 437.796507 -508.396801 
L 439.246686 -508.396801 
L 440.696866 -508.396801 
L 442.147045 -508.396801 
L 443.597224 -508.396801 
L 445.047404 -508.396801 
L 446.497583 -508.396801 
L 447.947762 -508.395169 
L 449.397942 -508.386164 
L 450.848121 -508.342783 
L 452.2983 -508.183159 
L 453.74848 -507.738737 
L 455.198659 -506.814886 
L 456.648838 -505.426036 
L 458.099018 -503.99636 
L 459.549197 -497.958816 
L 460.999376 -502.756783 
L 462.449556 -502.166058 
L 463.899735 -500.503469 
L 465.349914 -497.977013 
L 466.800094 -490.466263 
L 468.250273 -494.477183 
L 469.700452 -494.137582 
L 471.150632 -488.195594 
L 472.600811 -493.891618 
L 474.05099 -494.074542 
L 475.501169 -489.244916 
L 476.951349 -498.126327 
L 478.401528 -501.597969 
L 479.851707 -504.316821 
L 481.301887 -504.995217 
L 482.752066 -502.937091 
L 484.202245 -498.158073 
L 485.652425 -491.771961 
L 487.102604 -477.739895 
L 488.552783 -483.588277 
L 490.002963 -476.71702 
L 491.453142 -490.494509 
L 492.903321 -495.71205 
L 494.353501 -497.939709 
L 495.80368 -495.633156 
L 497.253859 -489.490928 
L 498.704039 -471.117733 
L 500.154218 -465.260311 
L 501.604397 -464.04559 
L 503.054577 -447.713443 
L 504.504756 -439.691022 
L 505.954935 -433.394272 
L 507.405115 -429.437425 
L 508.855294 -430.696919 
L 510.305473 -433.47923 
L 511.755653 -440.181293 
L 513.205832 -445.302025 
L 514.656011 -456.296484 
L 516.106191 -448.798245 
L 517.55637 -446.813521 
L 519.006549 -441.793893 
L 520.456729 -446.01722 
L 521.906908 -450.477853 
L 523.357087 -458.803663 
L 524.807266 -480.884368 
L 526.257446 -492.54574 
L 527.707625 -500.912398 
L 529.157804 -505.522164 
L 530.607984 -507.386737 
L 532.058163 -507.610155 
L 533.508342 -506.573175 
L 534.958522 -504.110233 
L 536.408701 -500.398419 
L 537.85888 -496.759224 
L 539.30906 -486.927964 
L 540.759239 -496.759224 
L 542.209418 -500.398419 
L 543.659598 -504.115575 
L 545.109777 -506.61212 
L 546.559956 -507.8174 
L 548.010136 -508.250305 
L 549.460315 -508.367954 
L 550.910494 -508.392377 
L 552.360674 -508.396801 
L 553.810853 -508.396801 
L 555.261032 -508.396801 
L 556.711212 -508.396801 
L 558.161391 -508.396801 
L 559.61157 -508.396801 
L 561.06175 -508.396801 
L 562.511929 -508.396801 
L 563.962108 -508.396801 
L 565.412288 -508.396801 
L 566.862467 -508.396801 
L 568.312646 -508.396801 
L 569.762826 -508.396801 
L 571.213005 -508.396801 
L 572.663184 -508.396801 
L 574.113363 -508.396801 
L 575.563543 -508.396801 
L 577.013722 -508.396801 
L 578.463901 -508.394749 
L 579.914081 -508.38342 
L 581.36426 -508.32885 
L 582.814439 -508.12805 
L 584.264619 -507.568991 
L 585.714798 -506.408606 
L 587.164977 -504.670015 
L 588.615157 -502.910668 
L 590.065336 -498.087711 
L 591.515515 -501.830296 
L 592.965695 -501.694057 
L 594.415874 -500.286414 
L 595.866053 -497.426609 
L 597.316233 -490.11824 
L 598.766412 -488.244242 
L 600.216591 -488.099101 
L 601.666771 -488.509247 
L 603.11695 -490.704229 
L 604.567129 -488.628393 
L 606.017309 -489.10304 
L 607.467488 -488.303617 
L 608.917667 -487.539537 
L 610.367847 -496.006142 
L 611.818026 -494.889613 
L 613.268205 -498.830067 
L 614.718385 -504.084134 
L 616.168564 -506.058173 
L 617.618743 -507.339903 
L 619.068923 -508.007669 
L 620.519102 -508.281922 
L 621.969281 -508.369982 
L 623.41946 -508.391791 
L 624.86964 -508.396179 
L 626.319819 -508.396801 
L 627.769998 -508.396801 
L 629.220178 -508.396801 
L 630.670357 -508.396801 
L 632.120536 -508.396801 
L 633.570716 -508.396801 
L 635.020895 -508.396801 
L 636.471074 -508.396801 
L 636.471074 -508.396801 
L 636.471074 -508.396801 
L 635.020895 -508.396801 
L 633.570716 -508.396801 
L 632.120536 -508.396801 
L 630.670357 -508.396801 
L 629.220178 -508.396801 
L 627.769998 -508.396801 
L 626.319819 -508.396801 
L 624.86964 -508.396179 
L 623.41946 -508.391791 
L 621.969281 -508.369982 
L 620.519102 -508.281922 
L 619.068923 -508.007669 
L 617.618743 -507.339903 
L 616.168564 -506.058173 
L 614.718385 -504.084134 
L 613.268205 -504.284308 
L 611.818026 -502.61286 
L 610.367847 -496.006142 
L 608.917667 -499.993552 
L 607.467488 -496.620017 
L 606.017309 -495.196687 
L 604.567129 -496.101183 
L 603.11695 -494.187008 
L 601.666771 -495.670961 
L 600.216591 -495.311071 
L 598.766412 -496.183253 
L 597.316233 -498.416261 
L 595.866053 -497.426609 
L 594.415874 -500.286414 
L 592.965695 -501.694057 
L 591.515515 -501.830296 
L 590.065336 -505.749024 
L 588.615157 -502.910668 
L 587.164977 -504.670015 
L 585.714798 -506.408606 
L 584.264619 -507.568991 
L 582.814439 -508.12805 
L 581.36426 -508.32885 
L 579.914081 -508.38342 
L 578.463901 -508.394749 
L 577.013722 -508.396801 
L 575.563543 -508.396801 
L 574.113363 -508.396801 
L 572.663184 -508.396801 
L 571.213005 -508.396801 
L 569.762826 -508.396801 
L 568.312646 -508.396801 
L 566.862467 -508.396801 
L 565.412288 -508.396801 
L 563.962108 -508.396801 
L 562.511929 -508.396801 
L 561.06175 -508.396801 
L 559.61157 -508.396801 
L 558.161391 -508.396801 
L 556.711212 -508.396801 
L 555.261032 -508.396801 
L 553.810853 -508.396801 
L 552.360674 -508.396801 
L 550.910494 -508.392377 
L 549.460315 -508.367954 
L 548.010136 -508.250305 
L 546.559956 -507.8174 
L 545.109777 -506.61212 
L 543.659598 -504.115575 
L 542.209418 -500.398419 
L 540.759239 -496.759224 
L 539.30906 -503.491433 
L 537.85888 -496.759224 
L 536.408701 -500.398419 
L 534.958522 -504.110233 
L 533.508342 -506.573175 
L 532.058163 -507.610155 
L 530.607984 -507.386737 
L 529.157804 -505.522164 
L 527.707625 -500.912398 
L 526.257446 -492.54574 
L 524.807266 -480.884368 
L 523.357087 -478.036055 
L 521.906908 -466.28692 
L 520.456729 -459.628447 
L 519.006549 -461.934553 
L 517.55637 -461.142946 
L 516.106191 -464.030421 
L 514.656011 -456.296484 
L 513.205832 -459.692899 
L 511.755653 -452.653657 
L 510.305473 -447.766906 
L 508.855294 -443.414711 
L 507.405115 -443.816591 
L 505.954935 -445.98619 
L 504.504756 -452.473913 
L 503.054577 -461.782479 
L 501.604397 -464.04559 
L 500.154218 -480.624458 
L 498.704039 -491.805441 
L 497.253859 -489.490928 
L 495.80368 -495.633156 
L 494.353501 -497.939709 
L 492.903321 -495.71205 
L 491.453142 -490.494509 
L 490.002963 -494.182875 
L 488.552783 -483.588277 
L 487.102604 -494.416179 
L 485.652425 -491.771961 
L 484.202245 -498.158073 
L 482.752066 -502.937091 
L 481.301887 -504.995217 
L 479.851707 -504.316821 
L 478.401528 -501.597969 
L 476.951349 -498.126327 
L 475.501169 -501.491833 
L 474.05099 -494.074542 
L 472.600811 -493.891618 
L 471.150632 -499.882682 
L 469.700452 -494.137582 
L 468.250273 -494.477183 
L 466.800094 -500.929255 
L 465.349914 -497.977013 
L 463.899735 -500.503469 
L 462.449556 -502.166058 
L 460.999376 -502.756783 
L 459.549197 -508.239834 
L 458.099018 -503.99636 
L 456.648838 -505.426036 
L 455.198659 -506.814886 
L 453.74848 -507.738737 
L 452.2983 -508.183159 
L 450.848121 -508.342783 
L 449.397942 -508.386164 
L 447.947762 -508.395169 
L 446.497583 -508.396801 
L 445.047404 -508.396801 
L 443.597224 -508.396801 
L 442.147045 -508.396801 
L 440.696866 -508.396801 
L 439.246686 -508.396801 
L 437.796507 -508.396801 
L 436.346328 -508.396801 
L 434.896148 -508.396801 
L 433.445969 -508.396801 
L 431.99579 -508.396801 
L 430.54561 -508.396801 
L 429.095431 -508.396801 
L 427.645252 -508.396801 
L 426.195073 -508.396801 
L 424.744893 -508.396801 
L 423.294714 -508.396801 
L 421.844535 -508.396801 
L 420.394355 -508.396801 
L 418.944176 -508.396801 
L 417.493997 -508.396801 
L 416.043817 -508.396801 
L 414.593638 -508.396801 
L 413.143459 -508.396801 
L 411.693279 -508.396801 
L 410.2431 -508.396801 
L 408.792921 -508.396801 
L 407.342741 -508.396801 
L 405.892562 -508.396801 
z
" style="stroke: #1f77b4; stroke-opacity: 0.2"/>
    </defs>
    <g clip-path="url(#p766a1ecb8e)">
     <use xlink:href="#m0192802871" x="0" y="720" style="fill: #1f77b4; fill-opacity: 0.2; stroke: #1f77b4; stroke-opacity: 0.2"/>
    </g>
   </g>
   <g id="PolyCollection_3">
    <defs>
     <path id="m892b9fc78d" d="M 405.892562 -453.826394 
L 405.892562 -453.826394 
L 407.342741 -437.139731 
L 408.792921 -426.488515 
L 410.2431 -417.732077 
L 411.693279 -414.461467 
L 413.143459 -413.737755 
L 414.593638 -415.904242 
L 416.043817 -420.043833 
L 417.493997 -423.807363 
L 418.944176 -430.045363 
L 420.394355 -435.497574 
L 421.844535 -441.008293 
L 423.294714 -451.818705 
L 424.744893 -444.404796 
L 426.195073 -441.168207 
L 427.645252 -436.231407 
L 429.095431 -431.575038 
L 430.54561 -426.873805 
L 431.99579 -423.241004 
L 433.445969 -420.289338 
L 434.896148 -417.506064 
L 436.346328 -414.893688 
L 437.796507 -414.35783 
L 439.246686 -413.339297 
L 440.696866 -413.446577 
L 442.147045 -412.715782 
L 443.597224 -410.917384 
L 445.047404 -406.973977 
L 446.497583 -403.127778 
L 447.947762 -399.417933 
L 449.397942 -397.740496 
L 450.848121 -398.177026 
L 452.2983 -402.747915 
L 453.74848 -408.606091 
L 455.198659 -417.251738 
L 456.648838 -427.10315 
L 458.099018 -437.181209 
L 459.549197 -454.247298 
L 460.999376 -450.816536 
L 462.449556 -455.576324 
L 463.899735 -460.087791 
L 465.349914 -466.711656 
L 466.800094 -486.070729 
L 468.250273 -490.792438 
L 469.700452 -489.765173 
L 471.150632 -483.218322 
L 472.600811 -462.087877 
L 474.05099 -453.708576 
L 475.501169 -453.683319 
L 476.951349 -435.268979 
L 478.401528 -426.079288 
L 479.851707 -418.406158 
L 481.301887 -414.831043 
L 482.752066 -415.442457 
L 484.202245 -420.040381 
L 485.652425 -427.851983 
L 487.102604 -451.471245 
L 488.552783 -453.044468 
L 490.002963 -479.184236 
L 491.453142 -491.38227 
L 492.903321 -500.15244 
L 494.353501 -505.156269 
L 495.80368 -507.380843 
L 497.253859 -508.145672 
L 498.704039 -508.348609 
L 500.154218 -508.38941 
L 501.604397 -508.396801 
L 503.054577 -508.389482 
L 504.504756 -508.349078 
L 505.954935 -508.154445 
L 507.405115 -507.438265 
L 508.855294 -505.444303 
L 510.305473 -501.314127 
L 511.755653 -495.164625 
L 513.205832 -489.144099 
L 514.656011 -477.109634 
L 516.106191 -489.144099 
L 517.55637 -495.164625 
L 519.006549 -501.314127 
L 520.456729 -505.444303 
L 521.906908 -507.438265 
L 523.357087 -508.154445 
L 524.807266 -508.339585 
L 526.257446 -508.319258 
L 527.707625 -508.028167 
L 529.157804 -506.877848 
L 530.607984 -503.476915 
L 532.058163 -495.851717 
L 533.508342 -483.177395 
L 534.958522 -468.373374 
L 536.408701 -445.522947 
L 537.85888 -446.193313 
L 539.30906 -469.043321 
L 540.759239 -483.001673 
L 542.209418 -492.921814 
L 543.659598 -495.049598 
L 545.109777 -490.109897 
L 546.559956 -481.748134 
L 548.010136 -464.30148 
L 549.460315 -468.787476 
L 550.910494 -464.999689 
L 552.360674 -453.034127 
L 553.810853 -455.93514 
L 555.261032 -442.091777 
L 556.711212 -441.407932 
L 558.161391 -424.909308 
L 559.61157 -415.85024 
L 561.06175 -410.690274 
L 562.511929 -408.25631 
L 563.962108 -407.006545 
L 565.412288 -407.210206 
L 566.862467 -406.401243 
L 568.312646 -405.753848 
L 569.762826 -406.669297 
L 571.213005 -407.504712 
L 572.663184 -409.250412 
L 574.113363 -411.137046 
L 575.563543 -413.943813 
L 577.013722 -413.622514 
L 578.463901 -414.430354 
L 579.914081 -413.03901 
L 581.36426 -409.596297 
L 582.814439 -408.44435 
L 584.264619 -411.829093 
L 585.714798 -422.445486 
L 587.164977 -439.163408 
L 588.615157 -466.556018 
L 590.065336 -484.834498 
L 591.515515 -497.519715 
L 592.965695 -504.338404 
L 594.415874 -507.185543 
L 595.866053 -508.110079 
L 597.316233 -508.343712 
L 598.766412 -508.389784 
L 600.216591 -508.396801 
L 601.666771 -508.396801 
L 603.11695 -508.396801 
L 604.567129 -508.391698 
L 606.017309 -508.359176 
L 607.467488 -508.194461 
L 608.917667 -507.546279 
L 610.367847 -505.560267 
L 611.818026 -500.818109 
L 613.268205 -491.966571 
L 614.718385 -478.985219 
L 616.168564 -456.472303 
L 617.618743 -441.576249 
L 619.068923 -430.156281 
L 620.519102 -422.622835 
L 621.969281 -420.010949 
L 623.41946 -419.278606 
L 624.86964 -420.403679 
L 626.319819 -424.253009 
L 627.769998 -432.850891 
L 629.220178 -445.609373 
L 630.670357 -473.092145 
L 632.120536 -488.265977 
L 633.570716 -498.989137 
L 635.020895 -504.806445 
L 636.471074 -507.076014 
L 636.471074 -507.076014 
L 636.471074 -507.076014 
L 635.020895 -504.806445 
L 633.570716 -498.989137 
L 632.120536 -488.265977 
L 630.670357 -473.092145 
L 629.220178 -467.5649 
L 627.769998 -452.81863 
L 626.319819 -443.852457 
L 624.86964 -438.99116 
L 623.41946 -437.058859 
L 621.969281 -437.512478 
L 620.519102 -441.386483 
L 619.068923 -447.515833 
L 617.618743 -457.854214 
L 616.168564 -471.286565 
L 614.718385 -478.985219 
L 613.268205 -491.966571 
L 611.818026 -500.818109 
L 610.367847 -505.560267 
L 608.917667 -507.546279 
L 607.467488 -508.194461 
L 606.017309 -508.359176 
L 604.567129 -508.391698 
L 603.11695 -508.396801 
L 601.666771 -508.396801 
L 600.216591 -508.396801 
L 598.766412 -508.389784 
L 597.316233 -508.343712 
L 595.866053 -508.110079 
L 594.415874 -507.185543 
L 592.965695 -504.338404 
L 591.515515 -497.519715 
L 590.065336 -484.834498 
L 588.615157 -466.556018 
L 587.164977 -453.412435 
L 585.714798 -436.135677 
L 584.264619 -426.351962 
L 582.814439 -422.931719 
L 581.36426 -423.5563 
L 579.914081 -424.608748 
L 578.463901 -426.455414 
L 577.013722 -427.755157 
L 575.563543 -425.411942 
L 574.113363 -424.61912 
L 572.663184 -422.433335 
L 571.213005 -420.751101 
L 569.762826 -419.644648 
L 568.312646 -420.22304 
L 566.862467 -420.104844 
L 565.412288 -419.776241 
L 563.962108 -420.39892 
L 562.511929 -421.070166 
L 561.06175 -424.653242 
L 559.61157 -431.458616 
L 558.161391 -439.440577 
L 556.711212 -441.407932 
L 555.261032 -456.949186 
L 553.810853 -455.93514 
L 552.360674 -468.918838 
L 550.910494 -464.999689 
L 549.460315 -468.787476 
L 548.010136 -483.772272 
L 546.559956 -481.748134 
L 545.109777 -490.109897 
L 543.659598 -495.049598 
L 542.209418 -492.921814 
L 540.759239 -483.001673 
L 539.30906 -469.043321 
L 537.85888 -470.910349 
L 536.408701 -470.85961 
L 534.958522 -468.373374 
L 533.508342 -483.177395 
L 532.058163 -495.851717 
L 530.607984 -503.476915 
L 529.157804 -506.877848 
L 527.707625 -508.028167 
L 526.257446 -508.319258 
L 524.807266 -508.339585 
L 523.357087 -508.154445 
L 521.906908 -507.438265 
L 520.456729 -505.444303 
L 519.006549 -501.314127 
L 517.55637 -495.164625 
L 516.106191 -489.144099 
L 514.656011 -496.051629 
L 513.205832 -489.144099 
L 511.755653 -495.164625 
L 510.305473 -501.314127 
L 508.855294 -505.444303 
L 507.405115 -507.438265 
L 505.954935 -508.154445 
L 504.504756 -508.349078 
L 503.054577 -508.389482 
L 501.604397 -508.396801 
L 500.154218 -508.38941 
L 498.704039 -508.348609 
L 497.253859 -508.145672 
L 495.80368 -507.380843 
L 494.353501 -505.156269 
L 492.903321 -500.15244 
L 491.453142 -491.38227 
L 490.002963 -479.184236 
L 488.552783 -477.427607 
L 487.102604 -451.471245 
L 485.652425 -450.870491 
L 484.202245 -440.184226 
L 482.752066 -433.976704 
L 481.301887 -432.434811 
L 479.851707 -435.374876 
L 478.401528 -441.873446 
L 476.951349 -451.742264 
L 475.501169 -453.683319 
L 474.05099 -473.64345 
L 472.600811 -485.340654 
L 471.150632 -483.218322 
L 469.700452 -489.765173 
L 468.250273 -490.792438 
L 466.800094 -486.070729 
L 465.349914 -489.593956 
L 463.899735 -480.818916 
L 462.449556 -473.904345 
L 460.999376 -469.392096 
L 459.549197 -454.247298 
L 458.099018 -454.639682 
L 456.648838 -444.843637 
L 455.198659 -435.318224 
L 453.74848 -427.556993 
L 452.2983 -420.941707 
L 450.848121 -417.779463 
L 449.397942 -415.978434 
L 447.947762 -417.175495 
L 446.497583 -419.631031 
L 445.047404 -422.89481 
L 443.597224 -425.117091 
L 442.147045 -427.518744 
L 440.696866 -428.934245 
L 439.246686 -430.015205 
L 437.796507 -430.30134 
L 436.346328 -432.501618 
L 434.896148 -433.937125 
L 433.445969 -435.773849 
L 431.99579 -438.003922 
L 430.54561 -440.949929 
L 429.095431 -444.726544 
L 427.645252 -449.904944 
L 426.195073 -454.630703 
L 424.744893 -458.25082 
L 423.294714 -451.818705 
L 421.844535 -456.65688 
L 420.394355 -451.620303 
L 418.944176 -445.720047 
L 417.493997 -442.005374 
L 416.043817 -437.531613 
L 414.593638 -435.129254 
L 413.143459 -433.277066 
L 411.693279 -433.167075 
L 410.2431 -438.011564 
L 408.792921 -445.874042 
L 407.342741 -455.83262 
L 405.892562 -453.826394 
z
" style="stroke: #d62728; stroke-opacity: 0.2"/>
    </defs>
    <g clip-path="url(#p766a1ecb8e)">
     <use xlink:href="#m892b9fc78d" x="0" y="720" style="fill: #d62728; fill-opacity: 0.2; stroke: #d62728; stroke-opacity: 0.2"/>
    </g>
   </g>
   <g id="PolyCollection_4">
    <defs>
     <path id="ma540cac592" d="M 405.892562 -508.396801 
L 405.892562 -508.396801 
L 407.342741 -508.396801 
L 408.792921 -508.396801 
L 410.2431 -508.396801 
L 411.693279 -508.396801 
L 413.143459 -508.396801 
L 414.593638 -508.396801 
L 416.043817 -508.396801 
L 417.493997 -508.396801 
L 418.944176 -508.396801 
L 420.394355 -508.396801 
L 421.844535 -508.396801 
L 423.294714 -508.396801 
L 424.744893 -508.396801 
L 426.195073 -508.396801 
L 427.645252 -508.396801 
L 429.095431 -508.396801 
L 430.54561 -508.396801 
L 431.99579 -508.396801 
L 433.445969 -508.396801 
L 434.896148 -508.396801 
L 436.346328 -508.396801 
L 437.796507 -508.396801 
L 439.246686 -508.396801 
L 440.696866 -508.396801 
L 442.147045 -508.396801 
L 443.597224 -508.396801 
L 445.047404 -508.396801 
L 446.497583 -508.396801 
L 447.947762 -508.396801 
L 449.397942 -508.396801 
L 450.848121 -508.396801 
L 452.2983 -508.396801 
L 453.74848 -508.396801 
L 455.198659 -508.396801 
L 456.648838 -508.396801 
L 458.099018 -508.396801 
L 459.549197 -508.396801 
L 460.999376 -508.396801 
L 462.449556 -508.396801 
L 463.899735 -508.396801 
L 465.349914 -508.396801 
L 466.800094 -508.396801 
L 468.250273 -508.396801 
L 469.700452 -508.396801 
L 471.150632 -508.396801 
L 472.600811 -508.396801 
L 474.05099 -508.396801 
L 475.501169 -508.396801 
L 476.951349 -508.396801 
L 478.401528 -508.396801 
L 479.851707 -508.396801 
L 481.301887 -508.396801 
L 482.752066 -508.396801 
L 484.202245 -508.396801 
L 485.652425 -508.396801 
L 487.102604 -508.396801 
L 488.552783 -508.396801 
L 490.002963 -508.396801 
L 491.453142 -508.396801 
L 492.903321 -508.396801 
L 494.353501 -508.396801 
L 495.80368 -508.396801 
L 497.253859 -508.396801 
L 498.704039 -508.396801 
L 500.154218 -508.396801 
L 501.604397 -508.396801 
L 503.054577 -508.396801 
L 504.504756 -508.396801 
L 505.954935 -508.396801 
L 507.405115 -508.396801 
L 508.855294 -508.396801 
L 510.305473 -508.396801 
L 511.755653 -508.396801 
L 513.205832 -508.402769 
L 514.656011 -508.442809 
L 516.106191 -508.647941 
L 517.55637 -509.467992 
L 519.006549 -512.028868 
L 520.456729 -518.281257 
L 521.906908 -530.228498 
L 523.357087 -548.109132 
L 524.807266 -556.724491 
L 526.257446 -574.769391 
L 527.707625 -584.984862 
L 529.157804 -589.189265 
L 530.607984 -586.483818 
L 532.058163 -577.987819 
L 533.508342 -564.388315 
L 534.958522 -546.157606 
L 536.408701 -542.495384 
L 537.85888 -527.090084 
L 539.30906 -516.882033 
L 540.759239 -511.530956 
L 542.209418 -509.326762 
L 543.659598 -508.616077 
L 545.109777 -508.437218 
L 546.559956 -508.402174 
L 548.010136 -508.396801 
L 549.460315 -508.396801 
L 550.910494 -508.396801 
L 552.360674 -508.396801 
L 553.810853 -508.396801 
L 555.261032 -508.396801 
L 556.711212 -508.396801 
L 558.161391 -508.396801 
L 559.61157 -508.396801 
L 561.06175 -508.396801 
L 562.511929 -508.396801 
L 563.962108 -508.396801 
L 565.412288 -508.396801 
L 566.862467 -508.396801 
L 568.312646 -508.396801 
L 569.762826 -508.396801 
L 571.213005 -508.396801 
L 572.663184 -508.396801 
L 574.113363 -508.396801 
L 575.563543 -508.396801 
L 577.013722 -508.404199 
L 578.463901 -508.445044 
L 579.914081 -508.641803 
L 581.36426 -509.365803 
L 582.814439 -511.38154 
L 584.264619 -515.562747 
L 585.714798 -521.812143 
L 587.164977 -528.056129 
L 588.615157 -518.190228 
L 590.065336 -530.25222 
L 591.515515 -527.512726 
L 592.965695 -526.279155 
L 594.415874 -526.982449 
L 595.866053 -516.277046 
L 597.316233 -524.242712 
L 598.766412 -519.167382 
L 600.216591 -514.143453 
L 601.666771 -510.789278 
L 603.11695 -509.173524 
L 604.567129 -508.593187 
L 606.017309 -508.435471 
L 607.467488 -508.402731 
L 608.917667 -508.396801 
L 610.367847 -508.396801 
L 611.818026 -508.396801 
L 613.268205 -508.396801 
L 614.718385 -508.396801 
L 616.168564 -508.396801 
L 617.618743 -508.396801 
L 619.068923 -508.396801 
L 620.519102 -508.396801 
L 621.969281 -508.396801 
L 623.41946 -508.396801 
L 624.86964 -508.396801 
L 626.319819 -508.396801 
L 627.769998 -508.396801 
L 629.220178 -508.396801 
L 630.670357 -508.396801 
L 632.120536 -508.396801 
L 633.570716 -508.396801 
L 635.020895 -508.396801 
L 636.471074 -508.396801 
L 636.471074 -508.396801 
L 636.471074 -508.396801 
L 635.020895 -508.396801 
L 633.570716 -508.396801 
L 632.120536 -508.396801 
L 630.670357 -508.396801 
L 629.220178 -508.396801 
L 627.769998 -508.396801 
L 626.319819 -508.396801 
L 624.86964 -508.396801 
L 623.41946 -508.396801 
L 621.969281 -508.396801 
L 620.519102 -508.396801 
L 619.068923 -508.396801 
L 617.618743 -508.396801 
L 616.168564 -508.396801 
L 614.718385 -508.396801 
L 613.268205 -508.396801 
L 611.818026 -508.396801 
L 610.367847 -508.396801 
L 608.917667 -508.396801 
L 607.467488 -508.402731 
L 606.017309 -508.435471 
L 604.567129 -508.593187 
L 603.11695 -509.173524 
L 601.666771 -510.789278 
L 600.216591 -514.143453 
L 598.766412 -519.167382 
L 597.316233 -524.242712 
L 595.866053 -537.810854 
L 594.415874 -526.982449 
L 592.965695 -526.279155 
L 591.515515 -527.512726 
L 590.065336 -530.25222 
L 588.615157 -544.265626 
L 587.164977 -528.056129 
L 585.714798 -521.812143 
L 584.264619 -515.562747 
L 582.814439 -511.38154 
L 581.36426 -509.365803 
L 579.914081 -508.641803 
L 578.463901 -508.445044 
L 577.013722 -508.404199 
L 575.563543 -508.396801 
L 574.113363 -508.396801 
L 572.663184 -508.396801 
L 571.213005 -508.396801 
L 569.762826 -508.396801 
L 568.312646 -508.396801 
L 566.862467 -508.396801 
L 565.412288 -508.396801 
L 563.962108 -508.396801 
L 562.511929 -508.396801 
L 561.06175 -508.396801 
L 559.61157 -508.396801 
L 558.161391 -508.396801 
L 556.711212 -508.396801 
L 555.261032 -508.396801 
L 553.810853 -508.396801 
L 552.360674 -508.396801 
L 550.910494 -508.396801 
L 549.460315 -508.396801 
L 548.010136 -508.396801 
L 546.559956 -508.402174 
L 545.109777 -508.437218 
L 543.659598 -508.616077 
L 542.209418 -509.326762 
L 540.759239 -511.530956 
L 539.30906 -516.882033 
L 537.85888 -527.090084 
L 536.408701 -542.495384 
L 534.958522 -576.019411 
L 533.508342 -594.235231 
L 532.058163 -609.924765 
L 530.607984 -619.801076 
L 529.157804 -622.368595 
L 527.707625 -616.761506 
L 526.257446 -601.347432 
L 524.807266 -581.36691 
L 523.357087 -548.109132 
L 521.906908 -530.228498 
L 520.456729 -518.281257 
L 519.006549 -512.028868 
L 517.55637 -509.467992 
L 516.106191 -508.647941 
L 514.656011 -508.442809 
L 513.205832 -508.402769 
L 511.755653 -508.396801 
L 510.305473 -508.396801 
L 508.855294 -508.396801 
L 507.405115 -508.396801 
L 505.954935 -508.396801 
L 504.504756 -508.396801 
L 503.054577 -508.396801 
L 501.604397 -508.396801 
L 500.154218 -508.396801 
L 498.704039 -508.396801 
L 497.253859 -508.396801 
L 495.80368 -508.396801 
L 494.353501 -508.396801 
L 492.903321 -508.396801 
L 491.453142 -508.396801 
L 490.002963 -508.396801 
L 488.552783 -508.396801 
L 487.102604 -508.396801 
L 485.652425 -508.396801 
L 484.202245 -508.396801 
L 482.752066 -508.396801 
L 481.301887 -508.396801 
L 479.851707 -508.396801 
L 478.401528 -508.396801 
L 476.951349 -508.396801 
L 475.501169 -508.396801 
L 474.05099 -508.396801 
L 472.600811 -508.396801 
L 471.150632 -508.396801 
L 469.700452 -508.396801 
L 468.250273 -508.396801 
L 466.800094 -508.396801 
L 465.349914 -508.396801 
L 463.899735 -508.396801 
L 462.449556 -508.396801 
L 460.999376 -508.396801 
L 459.549197 -508.396801 
L 458.099018 -508.396801 
L 456.648838 -508.396801 
L 455.198659 -508.396801 
L 453.74848 -508.396801 
L 452.2983 -508.396801 
L 450.848121 -508.396801 
L 449.397942 -508.396801 
L 447.947762 -508.396801 
L 446.497583 -508.396801 
L 445.047404 -508.396801 
L 443.597224 -508.396801 
L 442.147045 -508.396801 
L 440.696866 -508.396801 
L 439.246686 -508.396801 
L 437.796507 -508.396801 
L 436.346328 -508.396801 
L 434.896148 -508.396801 
L 433.445969 -508.396801 
L 431.99579 -508.396801 
L 430.54561 -508.396801 
L 429.095431 -508.396801 
L 427.645252 -508.396801 
L 426.195073 -508.396801 
L 424.744893 -508.396801 
L 423.294714 -508.396801 
L 421.844535 -508.396801 
L 420.394355 -508.396801 
L 418.944176 -508.396801 
L 417.493997 -508.396801 
L 416.043817 -508.396801 
L 414.593638 -508.396801 
L 413.143459 -508.396801 
L 411.693279 -508.396801 
L 410.2431 -508.396801 
L 408.792921 -508.396801 
L 407.342741 -508.396801 
L 405.892562 -508.396801 
z
" style="stroke: #ff7f0e; stroke-opacity: 0.2"/>
    </defs>
    <g clip-path="url(#p766a1ecb8e)">
     <use xlink:href="#ma540cac592" x="0" y="720" style="fill: #ff7f0e; fill-opacity: 0.2; stroke: #ff7f0e; stroke-opacity: 0.2"/>
    </g>
   </g>
   <g id="matplotlib.axis_3">
    <g id="xtick_7">
     <g id="line2d_13">
      <g>
       <use xlink:href="#m2e7b4dd2b6" x="405.863558" y="333.490909" style="stroke: #000000; stroke-width: 0.8"/>
      </g>
     </g>
     <g id="text_13">
      <!-- 0 -->
      <g transform="translate(402.682308 348.089347)scale(0.1 -0.1)">
       <use xlink:href="#DejaVuSans-30"/>
      </g>
     </g>
    </g>
    <g id="xtick_8">
     <g id="line2d_14">
      <g>
       <use xlink:href="#m2e7b4dd2b6" x="463.870731" y="333.490909" style="stroke: #000000; stroke-width: 0.8"/>
      </g>
     </g>
     <g id="text_14">
      <!-- 2000 -->
      <g transform="translate(451.145731 348.089347)scale(0.1 -0.1)">
       <use xlink:href="#DejaVuSans-32"/>
       <use xlink:href="#DejaVuSans-30" x="63.623047"/>
       <use xlink:href="#DejaVuSans-30" x="127.246094"/>
       <use xlink:href="#DejaVuSans-30" x="190.869141"/>
      </g>
     </g>
    </g>
    <g id="xtick_9">
     <g id="line2d_15">
      <g>
       <use xlink:href="#m2e7b4dd2b6" x="521.877904" y="333.490909" style="stroke: #000000; stroke-width: 0.8"/>
      </g>
     </g>
     <g id="text_15">
      <!-- 4000 -->
      <g transform="translate(509.152904 348.089347)scale(0.1 -0.1)">
       <use xlink:href="#DejaVuSans-34"/>
       <use xlink:href="#DejaVuSans-30" x="63.623047"/>
       <use xlink:href="#DejaVuSans-30" x="127.246094"/>
       <use xlink:href="#DejaVuSans-30" x="190.869141"/>
      </g>
     </g>
    </g>
    <g id="xtick_10">
     <g id="line2d_16">
      <g>
       <use xlink:href="#m2e7b4dd2b6" x="579.885077" y="333.490909" style="stroke: #000000; stroke-width: 0.8"/>
      </g>
     </g>
     <g id="text_16">
      <!-- 6000 -->
      <g transform="translate(567.160077 348.089347)scale(0.1 -0.1)">
       <use xlink:href="#DejaVuSans-36"/>
       <use xlink:href="#DejaVuSans-30" x="63.623047"/>
       <use xlink:href="#DejaVuSans-30" x="127.246094"/>
       <use xlink:href="#DejaVuSans-30" x="190.869141"/>
      </g>
     </g>
    </g>
    <g id="xtick_11">
     <g id="line2d_17">
      <g>
       <use xlink:href="#m2e7b4dd2b6" x="637.89225" y="333.490909" style="stroke: #000000; stroke-width: 0.8"/>
      </g>
     </g>
     <g id="text_17">
      <!-- 8000 -->
      <g transform="translate(625.16725 348.089347)scale(0.1 -0.1)">
       <use xlink:href="#DejaVuSans-38"/>
       <use xlink:href="#DejaVuSans-30" x="63.623047"/>
       <use xlink:href="#DejaVuSans-30" x="127.246094"/>
       <use xlink:href="#DejaVuSans-30" x="190.869141"/>
      </g>
     </g>
    </g>
   </g>
   <g id="matplotlib.axis_4">
    <g id="ytick_7">
     <g id="line2d_18">
      <g>
       <use xlink:href="#m2c07edaca1" x="394.363636" y="308.938533" style="stroke: #000000; stroke-width: 0.8"/>
      </g>
     </g>
     <g id="text_18">
      <!-- −2 -->
      <g transform="translate(372.621449 312.737752)scale(0.1 -0.1)">
       <defs>
        <path id="DejaVuSans-2212" d="M 678 2272 
L 4684 2272 
L 4684 1741 
L 678 1741 
L 678 2272 
z
" transform="scale(0.015625)"/>
       </defs>
       <use xlink:href="#DejaVuSans-2212"/>
       <use xlink:href="#DejaVuSans-32" x="83.789062"/>
      </g>
     </g>
    </g>
    <g id="ytick_8">
     <g id="line2d_19">
      <g>
       <use xlink:href="#m2c07edaca1" x="394.363636" y="260.270866" style="stroke: #000000; stroke-width: 0.8"/>
      </g>
     </g>
     <g id="text_19">
      <!-- −1 -->
      <g transform="translate(372.621449 264.070085)scale(0.1 -0.1)">
       <use xlink:href="#DejaVuSans-2212"/>
       <use xlink:href="#DejaVuSans-31" x="83.789062"/>
      </g>
     </g>
    </g>
    <g id="ytick_9">
     <g id="line2d_20">
      <g>
       <use xlink:href="#m2c07edaca1" x="394.363636" y="211.603199" style="stroke: #000000; stroke-width: 0.8"/>
      </g>
     </g>
     <g id="text_20">
      <!-- 0 -->
      <g transform="translate(381.001136 215.402418)scale(0.1 -0.1)">
       <use xlink:href="#DejaVuSans-30"/>
      </g>
     </g>
    </g>
    <g id="ytick_10">
     <g id="line2d_21">
      <g>
       <use xlink:href="#m2c07edaca1" x="394.363636" y="162.935533" style="stroke: #000000; stroke-width: 0.8"/>
      </g>
     </g>
     <g id="text_21">
      <!-- 1 -->
      <g transform="translate(381.001136 166.734751)scale(0.1 -0.1)">
       <use xlink:href="#DejaVuSans-31"/>
      </g>
     </g>
    </g>
    <g id="ytick_11">
     <g id="line2d_22">
      <g>
       <use xlink:href="#m2c07edaca1" x="394.363636" y="114.267866" style="stroke: #000000; stroke-width: 0.8"/>
      </g>
     </g>
     <g id="text_22">
      <!-- 2 -->
      <g transform="translate(381.001136 118.067085)scale(0.1 -0.1)">
       <use xlink:href="#DejaVuSans-32"/>
      </g>
     </g>
    </g>
   </g>
   <g id="line2d_23">
    <path d="M 405.892562 196.853781 
L 407.342741 199.936625 
L 408.792921 204.307352 
L 410.2431 207.999182 
L 411.693279 210.19653 
L 413.143459 211.158441 
L 414.593638 211.430604 
L 416.043817 211.312838 
L 417.493997 210.767083 
L 418.944176 209.603766 
L 421.844535 206.168176 
L 423.294714 205.444511 
L 424.744893 206.168176 
L 427.645252 209.603766 
L 429.095431 210.769712 
L 430.54561 211.332605 
L 431.99579 211.534783 
L 436.346328 211.603199 
L 458.099018 211.56157 
L 459.549197 211.383224 
L 460.999376 210.689697 
L 462.449556 208.617434 
L 463.899735 203.910989 
L 465.349914 195.961495 
L 466.800094 186.470556 
L 468.250273 179.669891 
L 469.700452 179.507928 
L 471.150632 186.090172 
L 472.600811 195.572962 
L 474.05099 203.650039 
L 475.501169 208.491453 
L 476.951349 210.644448 
L 478.401528 211.370927 
L 479.851707 211.552053 
L 481.301887 211.545039 
L 482.752066 211.321031 
L 484.202245 210.41203 
L 485.652425 207.61245 
L 487.102604 200.901929 
L 488.552783 188.382178 
L 490.002963 170.268433 
L 491.453142 150.231296 
L 492.903321 134.190682 
L 494.353501 127.226338 
L 495.80368 130.991629 
L 497.253859 142.996844 
L 498.704039 158.084963 
L 500.154218 171.741545 
L 501.604397 182.643993 
L 503.054577 191.746005 
L 504.504756 199.585228 
L 505.954935 205.545148 
L 507.405115 209.146956 
L 508.855294 210.816347 
L 510.305473 211.406131 
L 511.755653 211.564394 
L 517.55637 211.603199 
L 530.607984 211.545531 
L 532.058163 211.292083 
L 533.508342 210.291101 
L 534.958522 207.213364 
L 536.408701 199.855385 
L 537.85888 186.174785 
L 539.30906 166.46681 
L 540.759239 144.688877 
L 542.209418 126.855506 
L 543.659598 117.467519 
L 545.109777 117.077934 
L 546.559956 122.714168 
L 549.460315 137.922306 
L 552.360674 152.600713 
L 553.810853 160.537932 
L 555.261032 169.187491 
L 559.61157 198.487109 
L 561.06175 205.258059 
L 562.511929 209.120164 
L 563.962108 210.828243 
L 565.412288 211.411723 
L 566.862467 211.56685 
L 572.663184 211.603199 
L 582.814439 211.528509 
L 584.264619 211.289464 
L 585.714798 210.560158 
L 587.164977 208.848417 
L 588.615157 205.799653 
L 590.065336 201.809806 
L 591.515515 198.314775 
L 592.965695 197.061877 
L 594.415874 198.749789 
L 597.316233 206.3206 
L 598.766412 209.156294 
L 600.216591 210.681341 
L 601.666771 211.253554 
L 603.11695 211.212968 
L 604.567129 210.573265 
L 606.017309 209.108357 
L 607.467488 206.746593 
L 608.917667 203.925974 
L 610.367847 201.43828 
L 611.818026 199.894804 
L 613.268205 199.572546 
L 614.718385 200.649645 
L 616.168564 203.05348 
L 617.618743 206.089627 
L 619.068923 208.738541 
L 620.519102 210.38964 
L 621.969281 211.008795 
L 623.41946 210.586707 
L 624.86964 208.461546 
L 626.319819 203.109631 
L 627.769998 192.888749 
L 629.220178 177.696315 
L 630.670357 160.155183 
L 632.120536 144.593486 
L 633.570716 134.265649 
L 635.020895 129.42601 
L 636.471074 128.007639 
L 636.471074 128.007639 
" clip-path="url(#p766a1ecb8e)" style="fill: none; stroke: #9467bd; stroke-width: 2; stroke-linecap: square"/>
   </g>
   <g id="line2d_24">
    <path d="M 405.892562 211.603199 
L 450.848121 211.657217 
L 452.2983 211.816841 
L 453.74848 212.261263 
L 455.198659 213.185114 
L 458.099018 216.00364 
L 459.549197 216.900675 
L 460.999376 217.243217 
L 462.449556 217.833942 
L 463.899735 219.496531 
L 465.349914 222.022987 
L 466.800094 224.302241 
L 468.250273 225.522817 
L 469.700452 225.862418 
L 472.600811 226.108382 
L 474.05099 225.925458 
L 475.501169 224.631626 
L 476.951349 221.873673 
L 478.401528 218.402031 
L 479.851707 215.683179 
L 481.301887 215.004783 
L 482.752066 217.062909 
L 484.202245 221.841927 
L 485.652425 228.228039 
L 487.102604 233.921963 
L 488.552783 236.411723 
L 490.002963 234.550053 
L 492.903321 224.28795 
L 494.353501 222.060291 
L 495.80368 224.366844 
L 497.253859 230.509072 
L 500.154218 247.057616 
L 504.504756 273.917533 
L 505.954935 280.309769 
L 507.405115 283.372992 
L 508.855294 282.944185 
L 510.305473 279.376932 
L 513.205832 267.502538 
L 514.656011 263.703516 
L 516.106191 263.585667 
L 517.55637 266.021766 
L 519.006549 268.135777 
L 520.456729 267.177167 
L 521.906908 261.617614 
L 523.357087 251.580141 
L 526.257446 227.45426 
L 527.707625 219.087602 
L 529.157804 214.477836 
L 530.607984 212.613263 
L 532.058163 212.389845 
L 533.508342 213.426825 
L 534.958522 215.889767 
L 537.85888 223.240776 
L 539.30906 224.790302 
L 540.759239 223.240776 
L 543.659598 215.884425 
L 545.109777 213.38788 
L 546.559956 212.1826 
L 548.010136 211.749695 
L 550.910494 211.607623 
L 579.914081 211.61658 
L 581.36426 211.67115 
L 582.814439 211.87195 
L 584.264619 212.431009 
L 585.714798 213.591394 
L 588.615157 217.089332 
L 590.065336 218.081632 
L 592.965695 218.305943 
L 594.415874 219.713586 
L 595.866053 222.573391 
L 597.316233 225.73275 
L 598.766412 227.786253 
L 600.216591 228.294914 
L 603.11695 227.554382 
L 604.567129 227.635212 
L 606.017309 227.850136 
L 607.467488 227.538183 
L 608.917667 226.233455 
L 610.367847 223.993858 
L 614.718385 215.915866 
L 616.168564 213.941827 
L 617.618743 212.660097 
L 619.068923 211.992331 
L 620.519102 211.718078 
L 623.41946 211.608209 
L 636.471074 211.603199 
L 636.471074 211.603199 
" clip-path="url(#p766a1ecb8e)" style="fill: none; stroke: #1f77b4; stroke-width: 2; stroke-linecap: square"/>
   </g>
   <g id="line2d_25">
    <path d="M 405.892562 266.173606 
L 407.342741 273.513825 
L 408.792921 283.818722 
L 410.2431 292.128179 
L 411.693279 296.185729 
L 413.143459 296.49259 
L 414.593638 294.483252 
L 416.043817 291.212277 
L 417.493997 287.093631 
L 418.944176 282.117295 
L 421.844535 271.167413 
L 423.294714 268.181295 
L 424.744893 268.672192 
L 426.195073 272.100545 
L 429.095431 281.849209 
L 430.54561 286.088133 
L 431.99579 289.377537 
L 433.445969 291.968406 
L 434.896148 294.278406 
L 436.346328 296.302347 
L 437.796507 297.670415 
L 439.246686 298.322749 
L 440.696866 298.809589 
L 442.147045 299.882737 
L 443.597224 301.982762 
L 445.047404 305.065606 
L 446.497583 308.620596 
L 447.947762 311.703286 
L 449.397942 313.140535 
L 450.848121 312.021755 
L 452.2983 308.155189 
L 453.74848 301.918458 
L 455.198659 293.715019 
L 458.099018 274.089555 
L 459.549197 265.752702 
L 460.999376 259.895684 
L 462.449556 255.259665 
L 463.899735 249.546646 
L 466.800094 233.929271 
L 468.250273 229.207562 
L 469.700452 230.234827 
L 471.150632 236.781678 
L 474.05099 256.323987 
L 478.401528 286.023633 
L 479.851707 293.109483 
L 481.301887 296.367073 
L 482.752066 295.29042 
L 484.202245 289.887696 
L 485.652425 280.638763 
L 487.102604 268.528755 
L 490.002963 240.815764 
L 491.453142 228.61773 
L 492.903321 219.84756 
L 494.353501 214.843731 
L 495.80368 212.619157 
L 497.253859 211.854328 
L 498.704039 211.651391 
L 503.054577 211.610518 
L 504.504756 211.650922 
L 505.954935 211.845555 
L 507.405115 212.561735 
L 508.855294 214.555697 
L 510.305473 218.685873 
L 513.205832 230.855901 
L 514.656011 233.419369 
L 516.106191 230.855901 
L 519.006549 218.685873 
L 520.456729 214.555697 
L 521.906908 212.561735 
L 523.357087 211.845555 
L 524.807266 211.660415 
L 526.257446 211.680742 
L 527.707625 211.971833 
L 529.157804 213.122152 
L 530.607984 216.523085 
L 532.058163 224.148283 
L 533.508342 236.822605 
L 534.958522 251.626626 
L 536.408701 261.808721 
L 537.85888 261.448169 
L 539.30906 250.956679 
L 540.759239 236.998327 
L 542.209418 227.078186 
L 543.659598 224.950402 
L 545.109777 229.890103 
L 546.559956 238.251866 
L 548.010136 245.963124 
L 549.460315 251.212524 
L 552.360674 259.023517 
L 553.810853 264.06486 
L 555.261032 270.479518 
L 556.711212 278.592068 
L 559.61157 296.345572 
L 561.06175 302.328242 
L 562.511929 305.336762 
L 563.962108 306.297267 
L 568.312646 307.011556 
L 569.762826 306.843028 
L 571.213005 305.872094 
L 572.663184 304.158127 
L 574.113363 302.121917 
L 575.563543 300.322122 
L 577.013722 299.311164 
L 578.463901 299.557116 
L 579.914081 301.176121 
L 581.36426 303.423702 
L 582.814439 304.311965 
L 584.264619 300.909473 
L 585.714798 290.709418 
L 587.164977 273.712078 
L 588.615157 253.443982 
L 590.065336 235.165502 
L 591.515515 222.480285 
L 592.965695 215.661596 
L 594.415874 212.814457 
L 595.866053 211.889921 
L 597.316233 211.656288 
L 601.666771 211.603199 
L 606.017309 211.640824 
L 607.467488 211.805539 
L 608.917667 212.453721 
L 610.367847 214.439733 
L 611.818026 219.181891 
L 613.268205 228.033429 
L 614.718385 241.014781 
L 617.618743 270.284768 
L 619.068923 281.163943 
L 620.519102 287.995341 
L 621.969281 291.238287 
L 623.41946 291.831267 
L 624.86964 290.302581 
L 626.319819 285.947267 
L 627.769998 277.165239 
L 629.220178 263.412864 
L 630.670357 246.907855 
L 632.120536 231.734023 
L 633.570716 221.010863 
L 635.020895 215.193555 
L 636.471074 212.923986 
L 636.471074 212.923986 
" clip-path="url(#p766a1ecb8e)" style="fill: none; stroke: #d62728; stroke-width: 2; stroke-linecap: square"/>
   </g>
   <g id="line2d_26">
    <path d="M 405.892562 211.603199 
L 514.656011 211.557191 
L 516.106191 211.352059 
L 517.55637 210.532008 
L 519.006549 207.971132 
L 520.456729 201.718743 
L 521.906908 189.771502 
L 523.357087 171.890868 
L 524.807266 150.954299 
L 526.257446 131.941588 
L 527.707625 119.126816 
L 529.157804 114.22107 
L 530.607984 116.857553 
L 532.058163 126.043708 
L 533.508342 140.688227 
L 536.408701 177.504616 
L 537.85888 192.909916 
L 539.30906 203.117967 
L 540.759239 208.469044 
L 542.209418 210.673238 
L 543.659598 211.383923 
L 545.109777 211.562782 
L 550.910494 211.603199 
L 578.463901 211.554956 
L 579.914081 211.358197 
L 581.36426 210.634197 
L 582.814439 208.61846 
L 584.264619 204.437253 
L 587.164977 191.943871 
L 588.615157 188.772073 
L 590.065336 189.74778 
L 591.515515 192.487274 
L 592.965695 193.720845 
L 594.415874 193.017551 
L 595.866053 192.95605 
L 597.316233 195.757288 
L 600.216591 205.856547 
L 601.666771 209.210722 
L 603.11695 210.826476 
L 604.567129 211.406813 
L 606.017309 211.564529 
L 611.818026 211.603199 
L 636.471074 211.603199 
L 636.471074 211.603199 
" clip-path="url(#p766a1ecb8e)" style="fill: none; stroke: #ff7f0e; stroke-width: 2; stroke-linecap: square"/>
   </g>
   <g id="LineCollection_1">
    <path d="M 521.877904 308.198754 
L 521.877904 129.512108 
" clip-path="url(#p766a1ecb8e)" style="fill: none; stroke-dasharray: 7.4,3.2; stroke-dashoffset: 0; stroke: #000000; stroke-width: 2"/>
    <path d="M 536.379697 308.198754 
L 536.379697 129.512108 
" clip-path="url(#p766a1ecb8e)" style="fill: none; stroke-dasharray: 7.4,3.2; stroke-dashoffset: 0; stroke: #000000; stroke-width: 2"/>
    <path d="M 565.383284 308.198754 
L 565.383284 129.512108 
" clip-path="url(#p766a1ecb8e)" style="fill: none; stroke-dasharray: 7.4,3.2; stroke-dashoffset: 0; stroke: #000000; stroke-width: 2"/>
    <path d="M 623.390457 308.198754 
L 623.390457 129.512108 
" clip-path="url(#p766a1ecb8e)" style="fill: none; stroke-dasharray: 7.4,3.2; stroke-dashoffset: 0; stroke: #000000; stroke-width: 2"/>
   </g>
   <g id="patch_8">
    <path d="M 394.363636 333.490909 
L 394.363636 86.4 
" style="fill: none; stroke: #000000; stroke-width: 0.8; stroke-linejoin: miter; stroke-linecap: square"/>
   </g>
   <g id="patch_9">
    <path d="M 648 333.490909 
L 648 86.4 
" style="fill: none; stroke: #000000; stroke-width: 0.8; stroke-linejoin: miter; stroke-linecap: square"/>
   </g>
   <g id="patch_10">
    <path d="M 394.363636 333.490909 
L 648 333.490909 
" style="fill: none; stroke: #000000; stroke-width: 0.8; stroke-linejoin: miter; stroke-linecap: square"/>
   </g>
   <g id="patch_11">
    <path d="M 394.363636 86.4 
L 648 86.4 
" style="fill: none; stroke: #000000; stroke-width: 0.8; stroke-linejoin: miter; stroke-linecap: square"/>
   </g>
   <g id="text_23">
    <!-- unit_87 -->
    <g transform="translate(498.922756 80.4)scale(0.12 -0.12)">
     <defs>
      <path id="DejaVuSans-75" d="M 544 1381 
L 544 3500 
L 1119 3500 
L 1119 1403 
Q 1119 906 1312 657 
Q 1506 409 1894 409 
Q 2359 409 2629 706 
Q 2900 1003 2900 1516 
L 2900 3500 
L 3475 3500 
L 3475 0 
L 2900 0 
L 2900 538 
Q 2691 219 2414 64 
Q 2138 -91 1772 -91 
Q 1169 -91 856 284 
Q 544 659 544 1381 
z
M 1991 3584 
L 1991 3584 
z
" transform="scale(0.015625)"/>
      <path id="DejaVuSans-6e" d="M 3513 2113 
L 3513 0 
L 2938 0 
L 2938 2094 
Q 2938 2591 2744 2837 
Q 2550 3084 2163 3084 
Q 1697 3084 1428 2787 
Q 1159 2491 1159 1978 
L 1159 0 
L 581 0 
L 581 3500 
L 1159 3500 
L 1159 2956 
Q 1366 3272 1645 3428 
Q 1925 3584 2291 3584 
Q 2894 3584 3203 3211 
Q 3513 2838 3513 2113 
z
" transform="scale(0.015625)"/>
      <path id="DejaVuSans-69" d="M 603 3500 
L 1178 3500 
L 1178 0 
L 603 0 
L 603 3500 
z
M 603 4863 
L 1178 4863 
L 1178 4134 
L 603 4134 
L 603 4863 
z
" transform="scale(0.015625)"/>
      <path id="DejaVuSans-74" d="M 1172 4494 
L 1172 3500 
L 2356 3500 
L 2356 3053 
L 1172 3053 
L 1172 1153 
Q 1172 725 1289 603 
Q 1406 481 1766 481 
L 2356 481 
L 2356 0 
L 1766 0 
Q 1100 0 847 248 
Q 594 497 594 1153 
L 594 3053 
L 172 3053 
L 172 3500 
L 594 3500 
L 594 4494 
L 1172 4494 
z
" transform="scale(0.015625)"/>
      <path id="DejaVuSans-5f" d="M 3263 -1063 
L 3263 -1509 
L -63 -1509 
L -63 -1063 
L 3263 -1063 
z
" transform="scale(0.015625)"/>
      <path id="DejaVuSans-37" d="M 525 4666 
L 3525 4666 
L 3525 4397 
L 1831 0 
L 1172 0 
L 2766 4134 
L 525 4134 
L 525 4666 
z
" transform="scale(0.015625)"/>
     </defs>
     <use xlink:href="#DejaVuSans-75"/>
     <use xlink:href="#DejaVuSans-6e" x="63.378906"/>
     <use xlink:href="#DejaVuSans-69" x="126.757812"/>
     <use xlink:href="#DejaVuSans-74" x="154.541016"/>
     <use xlink:href="#DejaVuSans-5f" x="193.75"/>
     <use xlink:href="#DejaVuSans-38" x="243.75"/>
     <use xlink:href="#DejaVuSans-37" x="307.373047"/>
    </g>
   </g>
  </g>
  <g id="axes_3">
   <g id="patch_12">
    <path d="M 90 630 
L 343.636364 630 
L 343.636364 382.909091 
L 90 382.909091 
z
" style="fill: #ffffff"/>
   </g>
   <g id="matplotlib.axis_5">
    <g id="xtick_12">
     <g id="line2d_27">
      <g>
       <use xlink:href="#m2e7b4dd2b6" x="90" y="630" style="stroke: #000000; stroke-width: 0.8"/>
      </g>
     </g>
     <g id="text_24">
      <!-- 0.0 -->
      <g transform="translate(82.048438 644.598437)scale(0.1 -0.1)">
       <use xlink:href="#DejaVuSans-30"/>
       <use xlink:href="#DejaVuSans-2e" x="63.623047"/>
       <use xlink:href="#DejaVuSans-30" x="95.410156"/>
      </g>
     </g>
    </g>
    <g id="xtick_13">
     <g id="line2d_28">
      <g>
       <use xlink:href="#m2e7b4dd2b6" x="140.727273" y="630" style="stroke: #000000; stroke-width: 0.8"/>
      </g>
     </g>
     <g id="text_25">
      <!-- 0.2 -->
      <g transform="translate(132.77571 644.598437)scale(0.1 -0.1)">
       <use xlink:href="#DejaVuSans-30"/>
       <use xlink:href="#DejaVuSans-2e" x="63.623047"/>
       <use xlink:href="#DejaVuSans-32" x="95.410156"/>
      </g>
     </g>
    </g>
    <g id="xtick_14">
     <g id="line2d_29">
      <g>
       <use xlink:href="#m2e7b4dd2b6" x="191.454545" y="630" style="stroke: #000000; stroke-width: 0.8"/>
      </g>
     </g>
     <g id="text_26">
      <!-- 0.4 -->
      <g transform="translate(183.502983 644.598437)scale(0.1 -0.1)">
       <use xlink:href="#DejaVuSans-30"/>
       <use xlink:href="#DejaVuSans-2e" x="63.623047"/>
       <use xlink:href="#DejaVuSans-34" x="95.410156"/>
      </g>
     </g>
    </g>
    <g id="xtick_15">
     <g id="line2d_30">
      <g>
       <use xlink:href="#m2e7b4dd2b6" x="242.181818" y="630" style="stroke: #000000; stroke-width: 0.8"/>
      </g>
     </g>
     <g id="text_27">
      <!-- 0.6 -->
      <g transform="translate(234.230256 644.598437)scale(0.1 -0.1)">
       <use xlink:href="#DejaVuSans-30"/>
       <use xlink:href="#DejaVuSans-2e" x="63.623047"/>
       <use xlink:href="#DejaVuSans-36" x="95.410156"/>
      </g>
     </g>
    </g>
    <g id="xtick_16">
     <g id="line2d_31">
      <g>
       <use xlink:href="#m2e7b4dd2b6" x="292.909091" y="630" style="stroke: #000000; stroke-width: 0.8"/>
      </g>
     </g>
     <g id="text_28">
      <!-- 0.8 -->
      <g transform="translate(284.957528 644.598437)scale(0.1 -0.1)">
       <use xlink:href="#DejaVuSans-30"/>
       <use xlink:href="#DejaVuSans-2e" x="63.623047"/>
       <use xlink:href="#DejaVuSans-38" x="95.410156"/>
      </g>
     </g>
    </g>
    <g id="xtick_17">
     <g id="line2d_32">
      <g>
       <use xlink:href="#m2e7b4dd2b6" x="343.636364" y="630" style="stroke: #000000; stroke-width: 0.8"/>
      </g>
     </g>
     <g id="text_29">
      <!-- 1.0 -->
      <g transform="translate(335.684801 644.598437)scale(0.1 -0.1)">
       <use xlink:href="#DejaVuSans-31"/>
       <use xlink:href="#DejaVuSans-2e" x="63.623047"/>
       <use xlink:href="#DejaVuSans-30" x="95.410156"/>
      </g>
     </g>
    </g>
   </g>
   <g id="matplotlib.axis_6">
    <g id="ytick_12">
     <g id="line2d_33">
      <g>
       <use xlink:href="#m2c07edaca1" x="90" y="630" style="stroke: #000000; stroke-width: 0.8"/>
      </g>
     </g>
     <g id="text_30">
      <!-- 0.0 -->
      <g transform="translate(67.096875 633.799219)scale(0.1 -0.1)">
       <use xlink:href="#DejaVuSans-30"/>
       <use xlink:href="#DejaVuSans-2e" x="63.623047"/>
       <use xlink:href="#DejaVuSans-30" x="95.410156"/>
      </g>
     </g>
    </g>
    <g id="ytick_13">
     <g id="line2d_34">
      <g>
       <use xlink:href="#m2c07edaca1" x="90" y="580.581818" style="stroke: #000000; stroke-width: 0.8"/>
      </g>
     </g>
     <g id="text_31">
      <!-- 0.2 -->
      <g transform="translate(67.096875 584.381037)scale(0.1 -0.1)">
       <use xlink:href="#DejaVuSans-30"/>
       <use xlink:href="#DejaVuSans-2e" x="63.623047"/>
       <use xlink:href="#DejaVuSans-32" x="95.410156"/>
      </g>
     </g>
    </g>
    <g id="ytick_14">
     <g id="line2d_35">
      <g>
       <use xlink:href="#m2c07edaca1" x="90" y="531.163636" style="stroke: #000000; stroke-width: 0.8"/>
      </g>
     </g>
     <g id="text_32">
      <!-- 0.4 -->
      <g transform="translate(67.096875 534.962855)scale(0.1 -0.1)">
       <use xlink:href="#DejaVuSans-30"/>
       <use xlink:href="#DejaVuSans-2e" x="63.623047"/>
       <use xlink:href="#DejaVuSans-34" x="95.410156"/>
      </g>
     </g>
    </g>
    <g id="ytick_15">
     <g id="line2d_36">
      <g>
       <use xlink:href="#m2c07edaca1" x="90" y="481.745455" style="stroke: #000000; stroke-width: 0.8"/>
      </g>
     </g>
     <g id="text_33">
      <!-- 0.6 -->
      <g transform="translate(67.096875 485.544673)scale(0.1 -0.1)">
       <use xlink:href="#DejaVuSans-30"/>
       <use xlink:href="#DejaVuSans-2e" x="63.623047"/>
       <use xlink:href="#DejaVuSans-36" x="95.410156"/>
      </g>
     </g>
    </g>
    <g id="ytick_16">
     <g id="line2d_37">
      <g>
       <use xlink:href="#m2c07edaca1" x="90" y="432.327273" style="stroke: #000000; stroke-width: 0.8"/>
      </g>
     </g>
     <g id="text_34">
      <!-- 0.8 -->
      <g transform="translate(67.096875 436.126491)scale(0.1 -0.1)">
       <use xlink:href="#DejaVuSans-30"/>
       <use xlink:href="#DejaVuSans-2e" x="63.623047"/>
       <use xlink:href="#DejaVuSans-38" x="95.410156"/>
      </g>
     </g>
    </g>
    <g id="ytick_17">
     <g id="line2d_38">
      <g>
       <use xlink:href="#m2c07edaca1" x="90" y="382.909091" style="stroke: #000000; stroke-width: 0.8"/>
      </g>
     </g>
     <g id="text_35">
      <!-- 1.0 -->
      <g transform="translate(67.096875 386.70831)scale(0.1 -0.1)">
       <use xlink:href="#DejaVuSans-31"/>
       <use xlink:href="#DejaVuSans-2e" x="63.623047"/>
       <use xlink:href="#DejaVuSans-30" x="95.410156"/>
      </g>
     </g>
    </g>
   </g>
   <g id="patch_13">
    <path d="M 90 630 
L 90 382.909091 
" style="fill: none; stroke: #000000; stroke-width: 0.8; stroke-linejoin: miter; stroke-linecap: square"/>
   </g>
   <g id="patch_14">
    <path d="M 343.636364 630 
L 343.636364 382.909091 
" style="fill: none; stroke: #000000; stroke-width: 0.8; stroke-linejoin: miter; stroke-linecap: square"/>
   </g>
   <g id="patch_15">
    <path d="M 90 630 
L 343.636364 630 
" style="fill: none; stroke: #000000; stroke-width: 0.8; stroke-linejoin: miter; stroke-linecap: square"/>
   </g>
   <g id="patch_16">
    <path d="M 90 382.909091 
L 343.636364 382.909091 
" style="fill: none; stroke: #000000; stroke-width: 0.8; stroke-linejoin: miter; stroke-linecap: square"/>
   </g>
  </g>
  <g id="axes_4">
   <g id="patch_17">
    <path d="M 394.363636 630 
L 648 630 
L 648 382.909091 
L 394.363636 382.909091 
z
" style="fill: #ffffff"/>
   </g>
   <g id="matplotlib.axis_7">
    <g id="xtick_18">
     <g id="line2d_39">
      <g>
       <use xlink:href="#m2e7b4dd2b6" x="405.863558" y="630" style="stroke: #000000; stroke-width: 0.8"/>
      </g>
     </g>
     <g id="text_36">
      <!-- 0 -->
      <g transform="translate(402.682308 644.598437)scale(0.1 -0.1)">
       <use xlink:href="#DejaVuSans-30"/>
      </g>
     </g>
    </g>
    <g id="xtick_19">
     <g id="line2d_40">
      <g>
       <use xlink:href="#m2e7b4dd2b6" x="463.870731" y="630" style="stroke: #000000; stroke-width: 0.8"/>
      </g>
     </g>
     <g id="text_37">
      <!-- 2000 -->
      <g transform="translate(451.145731 644.598437)scale(0.1 -0.1)">
       <use xlink:href="#DejaVuSans-32"/>
       <use xlink:href="#DejaVuSans-30" x="63.623047"/>
       <use xlink:href="#DejaVuSans-30" x="127.246094"/>
       <use xlink:href="#DejaVuSans-30" x="190.869141"/>
      </g>
     </g>
    </g>
    <g id="xtick_20">
     <g id="line2d_41">
      <g>
       <use xlink:href="#m2e7b4dd2b6" x="521.877904" y="630" style="stroke: #000000; stroke-width: 0.8"/>
      </g>
     </g>
     <g id="text_38">
      <!-- 4000 -->
      <g transform="translate(509.152904 644.598437)scale(0.1 -0.1)">
       <use xlink:href="#DejaVuSans-34"/>
       <use xlink:href="#DejaVuSans-30" x="63.623047"/>
       <use xlink:href="#DejaVuSans-30" x="127.246094"/>
       <use xlink:href="#DejaVuSans-30" x="190.869141"/>
      </g>
     </g>
    </g>
    <g id="xtick_21">
     <g id="line2d_42">
      <g>
       <use xlink:href="#m2e7b4dd2b6" x="579.885077" y="630" style="stroke: #000000; stroke-width: 0.8"/>
      </g>
     </g>
     <g id="text_39">
      <!-- 6000 -->
      <g transform="translate(567.160077 644.598437)scale(0.1 -0.1)">
       <use xlink:href="#DejaVuSans-36"/>
       <use xlink:href="#DejaVuSans-30" x="63.623047"/>
       <use xlink:href="#DejaVuSans-30" x="127.246094"/>
       <use xlink:href="#DejaVuSans-30" x="190.869141"/>
      </g>
     </g>
    </g>
    <g id="xtick_22">
     <g id="line2d_43">
      <g>
       <use xlink:href="#m2e7b4dd2b6" x="637.89225" y="630" style="stroke: #000000; stroke-width: 0.8"/>
      </g>
     </g>
     <g id="text_40">
      <!-- 8000 -->
      <g transform="translate(625.16725 644.598437)scale(0.1 -0.1)">
       <use xlink:href="#DejaVuSans-38"/>
       <use xlink:href="#DejaVuSans-30" x="63.623047"/>
       <use xlink:href="#DejaVuSans-30" x="127.246094"/>
       <use xlink:href="#DejaVuSans-30" x="190.869141"/>
      </g>
     </g>
    </g>
   </g>
   <g id="matplotlib.axis_8">
    <g id="ytick_18">
     <g id="line2d_44">
      <g>
       <use xlink:href="#m2c07edaca1" x="394.363636" y="630" style="stroke: #000000; stroke-width: 0.8"/>
      </g>
     </g>
     <g id="text_41">
      <!-- −2.0 -->
      <g transform="translate(363.080824 633.799219)scale(0.1 -0.1)">
       <use xlink:href="#DejaVuSans-2212"/>
       <use xlink:href="#DejaVuSans-32" x="83.789062"/>
       <use xlink:href="#DejaVuSans-2e" x="147.412109"/>
       <use xlink:href="#DejaVuSans-30" x="179.199219"/>
      </g>
     </g>
    </g>
    <g id="ytick_19">
     <g id="line2d_45">
      <g>
       <use xlink:href="#m2c07edaca1" x="394.363636" y="578.259721" style="stroke: #000000; stroke-width: 0.8"/>
      </g>
     </g>
     <g id="text_42">
      <!-- −1.5 -->
      <g transform="translate(363.080824 582.058939)scale(0.1 -0.1)">
       <defs>
        <path id="DejaVuSans-35" d="M 691 4666 
L 3169 4666 
L 3169 4134 
L 1269 4134 
L 1269 2991 
Q 1406 3038 1543 3061 
Q 1681 3084 1819 3084 
Q 2600 3084 3056 2656 
Q 3513 2228 3513 1497 
Q 3513 744 3044 326 
Q 2575 -91 1722 -91 
Q 1428 -91 1123 -41 
Q 819 9 494 109 
L 494 744 
Q 775 591 1075 516 
Q 1375 441 1709 441 
Q 2250 441 2565 725 
Q 2881 1009 2881 1497 
Q 2881 1984 2565 2268 
Q 2250 2553 1709 2553 
Q 1456 2553 1204 2497 
Q 953 2441 691 2322 
L 691 4666 
z
" transform="scale(0.015625)"/>
       </defs>
       <use xlink:href="#DejaVuSans-2212"/>
       <use xlink:href="#DejaVuSans-31" x="83.789062"/>
       <use xlink:href="#DejaVuSans-2e" x="147.412109"/>
       <use xlink:href="#DejaVuSans-35" x="179.199219"/>
      </g>
     </g>
    </g>
    <g id="ytick_20">
     <g id="line2d_46">
      <g>
       <use xlink:href="#m2c07edaca1" x="394.363636" y="526.519441" style="stroke: #000000; stroke-width: 0.8"/>
      </g>
     </g>
     <g id="text_43">
      <!-- −1.0 -->
      <g transform="translate(363.080824 530.31866)scale(0.1 -0.1)">
       <use xlink:href="#DejaVuSans-2212"/>
       <use xlink:href="#DejaVuSans-31" x="83.789062"/>
       <use xlink:href="#DejaVuSans-2e" x="147.412109"/>
       <use xlink:href="#DejaVuSans-30" x="179.199219"/>
      </g>
     </g>
    </g>
    <g id="ytick_21">
     <g id="line2d_47">
      <g>
       <use xlink:href="#m2c07edaca1" x="394.363636" y="474.779162" style="stroke: #000000; stroke-width: 0.8"/>
      </g>
     </g>
     <g id="text_44">
      <!-- −0.5 -->
      <g transform="translate(363.080824 478.578381)scale(0.1 -0.1)">
       <use xlink:href="#DejaVuSans-2212"/>
       <use xlink:href="#DejaVuSans-30" x="83.789062"/>
       <use xlink:href="#DejaVuSans-2e" x="147.412109"/>
       <use xlink:href="#DejaVuSans-35" x="179.199219"/>
      </g>
     </g>
    </g>
    <g id="ytick_22">
     <g id="line2d_48">
      <g>
       <use xlink:href="#m2c07edaca1" x="394.363636" y="423.038882" style="stroke: #000000; stroke-width: 0.8"/>
      </g>
     </g>
     <g id="text_45">
      <!-- 0.0 -->
      <g transform="translate(371.460511 426.838101)scale(0.1 -0.1)">
       <use xlink:href="#DejaVuSans-30"/>
       <use xlink:href="#DejaVuSans-2e" x="63.623047"/>
       <use xlink:href="#DejaVuSans-30" x="95.410156"/>
      </g>
     </g>
    </g>
   </g>
   <g id="line2d_49">
    <path d="M 407.68599 721 
L 408.792921 551.552688 
L 410.2431 514.7895 
L 413.143459 703.303867 
L 413.333943 721 
M 418.623992 721 
L 418.944176 658.743834 
L 420.394355 465.415706 
L 421.994615 721 
M 425.222205 721 
L 426.195073 561.18031 
L 429.095431 382.909091 
L 430.54561 463.103876 
L 431.639193 721 
M 442.869939 721 
L 443.597224 636.202379 
L 445.047404 630.853525 
L 446.400528 721 
M 461.528853 721 
L 462.449556 690.371337 
L 463.899735 703.314895 
L 464.111801 721 
M 526.023697 721 
L 526.257446 693.720632 
L 527.707625 706.081414 
L 528.211121 721 
M 530.146082 721 
L 530.607984 707.889858 
L 532.058163 684.025773 
L 532.431657 721 
M 599.207451 721 
L 600.216591 705.531543 
L 601.666771 702.093165 
L 603.11695 682.870711 
L 603.589425 721 
L 603.589425 721 
" clip-path="url(#p47b6e4d841)" style="fill: none; stroke: #1f77b4; stroke-width: 1.5; stroke-linecap: square"/>
   </g>
   <g id="patch_18">
    <path d="M 394.363636 630 
L 394.363636 382.909091 
" style="fill: none; stroke: #000000; stroke-width: 0.8; stroke-linejoin: miter; stroke-linecap: square"/>
   </g>
   <g id="patch_19">
    <path d="M 648 630 
L 648 382.909091 
" style="fill: none; stroke: #000000; stroke-width: 0.8; stroke-linejoin: miter; stroke-linecap: square"/>
   </g>
   <g id="patch_20">
    <path d="M 394.363636 630 
L 648 630 
" style="fill: none; stroke: #000000; stroke-width: 0.8; stroke-linejoin: miter; stroke-linecap: square"/>
   </g>
   <g id="patch_21">
    <path d="M 394.363636 382.909091 
L 648 382.909091 
" style="fill: none; stroke: #000000; stroke-width: 0.8; stroke-linejoin: miter; stroke-linecap: square"/>
   </g>
   <g id="text_46">
    <!-- explained variance -->
    <g transform="translate(464.181818 376.909091)scale(0.12 -0.12)">
     <defs>
      <path id="DejaVuSans-65" d="M 3597 1894 
L 3597 1613 
L 953 1613 
Q 991 1019 1311 708 
Q 1631 397 2203 397 
Q 2534 397 2845 478 
Q 3156 559 3463 722 
L 3463 178 
Q 3153 47 2828 -22 
Q 2503 -91 2169 -91 
Q 1331 -91 842 396 
Q 353 884 353 1716 
Q 353 2575 817 3079 
Q 1281 3584 2069 3584 
Q 2775 3584 3186 3129 
Q 3597 2675 3597 1894 
z
M 3022 2063 
Q 3016 2534 2758 2815 
Q 2500 3097 2075 3097 
Q 1594 3097 1305 2825 
Q 1016 2553 972 2059 
L 3022 2063 
z
" transform="scale(0.015625)"/>
      <path id="DejaVuSans-78" d="M 3513 3500 
L 2247 1797 
L 3578 0 
L 2900 0 
L 1881 1375 
L 863 0 
L 184 0 
L 1544 1831 
L 300 3500 
L 978 3500 
L 1906 2253 
L 2834 3500 
L 3513 3500 
z
" transform="scale(0.015625)"/>
      <path id="DejaVuSans-70" d="M 1159 525 
L 1159 -1331 
L 581 -1331 
L 581 3500 
L 1159 3500 
L 1159 2969 
Q 1341 3281 1617 3432 
Q 1894 3584 2278 3584 
Q 2916 3584 3314 3078 
Q 3713 2572 3713 1747 
Q 3713 922 3314 415 
Q 2916 -91 2278 -91 
Q 1894 -91 1617 61 
Q 1341 213 1159 525 
z
M 3116 1747 
Q 3116 2381 2855 2742 
Q 2594 3103 2138 3103 
Q 1681 3103 1420 2742 
Q 1159 2381 1159 1747 
Q 1159 1113 1420 752 
Q 1681 391 2138 391 
Q 2594 391 2855 752 
Q 3116 1113 3116 1747 
z
" transform="scale(0.015625)"/>
      <path id="DejaVuSans-6c" d="M 603 4863 
L 1178 4863 
L 1178 0 
L 603 0 
L 603 4863 
z
" transform="scale(0.015625)"/>
      <path id="DejaVuSans-61" d="M 2194 1759 
Q 1497 1759 1228 1600 
Q 959 1441 959 1056 
Q 959 750 1161 570 
Q 1363 391 1709 391 
Q 2188 391 2477 730 
Q 2766 1069 2766 1631 
L 2766 1759 
L 2194 1759 
z
M 3341 1997 
L 3341 0 
L 2766 0 
L 2766 531 
Q 2569 213 2275 61 
Q 1981 -91 1556 -91 
Q 1019 -91 701 211 
Q 384 513 384 1019 
Q 384 1609 779 1909 
Q 1175 2209 1959 2209 
L 2766 2209 
L 2766 2266 
Q 2766 2663 2505 2880 
Q 2244 3097 1772 3097 
Q 1472 3097 1187 3025 
Q 903 2953 641 2809 
L 641 3341 
Q 956 3463 1253 3523 
Q 1550 3584 1831 3584 
Q 2591 3584 2966 3190 
Q 3341 2797 3341 1997 
z
" transform="scale(0.015625)"/>
      <path id="DejaVuSans-64" d="M 2906 2969 
L 2906 4863 
L 3481 4863 
L 3481 0 
L 2906 0 
L 2906 525 
Q 2725 213 2448 61 
Q 2172 -91 1784 -91 
Q 1150 -91 751 415 
Q 353 922 353 1747 
Q 353 2572 751 3078 
Q 1150 3584 1784 3584 
Q 2172 3584 2448 3432 
Q 2725 3281 2906 2969 
z
M 947 1747 
Q 947 1113 1208 752 
Q 1469 391 1925 391 
Q 2381 391 2643 752 
Q 2906 1113 2906 1747 
Q 2906 2381 2643 2742 
Q 2381 3103 1925 3103 
Q 1469 3103 1208 2742 
Q 947 2381 947 1747 
z
" transform="scale(0.015625)"/>
      <path id="DejaVuSans-20" transform="scale(0.015625)"/>
      <path id="DejaVuSans-76" d="M 191 3500 
L 800 3500 
L 1894 563 
L 2988 3500 
L 3597 3500 
L 2284 0 
L 1503 0 
L 191 3500 
z
" transform="scale(0.015625)"/>
      <path id="DejaVuSans-72" d="M 2631 2963 
Q 2534 3019 2420 3045 
Q 2306 3072 2169 3072 
Q 1681 3072 1420 2755 
Q 1159 2438 1159 1844 
L 1159 0 
L 581 0 
L 581 3500 
L 1159 3500 
L 1159 2956 
Q 1341 3275 1631 3429 
Q 1922 3584 2338 3584 
Q 2397 3584 2469 3576 
Q 2541 3569 2628 3553 
L 2631 2963 
z
" transform="scale(0.015625)"/>
      <path id="DejaVuSans-63" d="M 3122 3366 
L 3122 2828 
Q 2878 2963 2633 3030 
Q 2388 3097 2138 3097 
Q 1578 3097 1268 2742 
Q 959 2388 959 1747 
Q 959 1106 1268 751 
Q 1578 397 2138 397 
Q 2388 397 2633 464 
Q 2878 531 3122 666 
L 3122 134 
Q 2881 22 2623 -34 
Q 2366 -91 2075 -91 
Q 1284 -91 818 406 
Q 353 903 353 1747 
Q 353 2603 823 3093 
Q 1294 3584 2113 3584 
Q 2378 3584 2631 3529 
Q 2884 3475 3122 3366 
z
" transform="scale(0.015625)"/>
     </defs>
     <use xlink:href="#DejaVuSans-65"/>
     <use xlink:href="#DejaVuSans-78" x="59.773438"/>
     <use xlink:href="#DejaVuSans-70" x="118.953125"/>
     <use xlink:href="#DejaVuSans-6c" x="182.429688"/>
     <use xlink:href="#DejaVuSans-61" x="210.212891"/>
     <use xlink:href="#DejaVuSans-69" x="271.492188"/>
     <use xlink:href="#DejaVuSans-6e" x="299.275391"/>
     <use xlink:href="#DejaVuSans-65" x="362.654297"/>
     <use xlink:href="#DejaVuSans-64" x="424.177734"/>
     <use xlink:href="#DejaVuSans-20" x="487.654297"/>
     <use xlink:href="#DejaVuSans-76" x="519.441406"/>
     <use xlink:href="#DejaVuSans-61" x="578.621094"/>
     <use xlink:href="#DejaVuSans-72" x="639.900391"/>
     <use xlink:href="#DejaVuSans-69" x="681.013672"/>
     <use xlink:href="#DejaVuSans-61" x="708.796875"/>
     <use xlink:href="#DejaVuSans-6e" x="770.076172"/>
     <use xlink:href="#DejaVuSans-63" x="833.455078"/>
     <use xlink:href="#DejaVuSans-65" x="888.435547"/>
    </g>
   </g>
  </g>
 </g>
 <defs>
  <clipPath id="p766a1ecb8e">
   <rect x="394.363636" y="86.4" width="253.636364" height="247.090909"/>
  </clipPath>
  <clipPath id="p47b6e4d841">
   <rect x="394.363636" y="382.909091" width="253.636364" height="247.090909"/>
  </clipPath>
 </defs>
</svg>
