<?xml version="1.0" encoding="utf-8" standalone="no"?>
<!DOCTYPE svg PUBLIC "-//W3C//DTD SVG 1.1//EN"
  "http://www.w3.org/Graphics/SVG/1.1/DTD/svg11.dtd">
<svg xmlns:xlink="http://www.w3.org/1999/xlink" width="720pt" height="720pt" viewBox="0 0 720 720" xmlns="http://www.w3.org/2000/svg" version="1.1">
 <metadata>
  <rdf:RDF xmlns:dc="http://purl.org/dc/elements/1.1/" xmlns:cc="http://creativecommons.org/ns#" xmlns:rdf="http://www.w3.org/1999/02/22-rdf-syntax-ns#">
   <cc:Work>
    <dc:type rdf:resource="http://purl.org/dc/dcmitype/StillImage"/>
    <dc:date>2023-12-19T18:21:11.631845</dc:date>
    <dc:format>image/svg+xml</dc:format>
    <dc:creator>
     <cc:Agent>
      <dc:title>Matplotlib v3.5.2, https://matplotlib.org/</dc:title>
     </cc:Agent>
    </dc:creator>
   </cc:Work>
  </rdf:RDF>
 </metadata>
 <defs>
  <style type="text/css">*{stroke-linejoin: round; stroke-linecap: butt}</style>
 </defs>
 <g id="figure_1">
  <g id="patch_1">
   <path d="M 0 720 
L 720 720 
L 720 0 
L 0 0 
z
" style="fill: #ffffff"/>
  </g>
  <g id="axes_1">
   <g id="patch_2">
    <path d="M 90 333.490909 
L 343.636364 333.490909 
L 343.636364 86.4 
L 90 86.4 
z
" style="fill: #ffffff"/>
   </g>
   <g id="matplotlib.axis_1">
    <g id="xtick_1">
     <g id="line2d_1">
      <defs>
       <path id="mdf244aff71" d="M 0 0 
L 0 3.5 
" style="stroke: #000000; stroke-width: 0.8"/>
      </defs>
      <g>
       <use xlink:href="#mdf244aff71" x="90" y="333.490909" style="stroke: #000000; stroke-width: 0.8"/>
      </g>
     </g>
     <g id="text_1">
      <!-- 0.0 -->
      <g transform="translate(82.048438 348.089347)scale(0.1 -0.1)">
       <defs>
        <path id="DejaVuSans-30" d="M 2034 4250 
Q 1547 4250 1301 3770 
Q 1056 3291 1056 2328 
Q 1056 1369 1301 889 
Q 1547 409 2034 409 
Q 2525 409 2770 889 
Q 3016 1369 3016 2328 
Q 3016 3291 2770 3770 
Q 2525 4250 2034 4250 
z
M 2034 4750 
Q 2819 4750 3233 4129 
Q 3647 3509 3647 2328 
Q 3647 1150 3233 529 
Q 2819 -91 2034 -91 
Q 1250 -91 836 529 
Q 422 1150 422 2328 
Q 422 3509 836 4129 
Q 1250 4750 2034 4750 
z
" transform="scale(0.015625)"/>
        <path id="DejaVuSans-2e" d="M 684 794 
L 1344 794 
L 1344 0 
L 684 0 
L 684 794 
z
" transform="scale(0.015625)"/>
       </defs>
       <use xlink:href="#DejaVuSans-30"/>
       <use xlink:href="#DejaVuSans-2e" x="63.623047"/>
       <use xlink:href="#DejaVuSans-30" x="95.410156"/>
      </g>
     </g>
    </g>
    <g id="xtick_2">
     <g id="line2d_2">
      <g>
       <use xlink:href="#mdf244aff71" x="140.727273" y="333.490909" style="stroke: #000000; stroke-width: 0.8"/>
      </g>
     </g>
     <g id="text_2">
      <!-- 0.2 -->
      <g transform="translate(132.77571 348.089347)scale(0.1 -0.1)">
       <defs>
        <path id="DejaVuSans-32" d="M 1228 531 
L 3431 531 
L 3431 0 
L 469 0 
L 469 531 
Q 828 903 1448 1529 
Q 2069 2156 2228 2338 
Q 2531 2678 2651 2914 
Q 2772 3150 2772 3378 
Q 2772 3750 2511 3984 
Q 2250 4219 1831 4219 
Q 1534 4219 1204 4116 
Q 875 4013 500 3803 
L 500 4441 
Q 881 4594 1212 4672 
Q 1544 4750 1819 4750 
Q 2544 4750 2975 4387 
Q 3406 4025 3406 3419 
Q 3406 3131 3298 2873 
Q 3191 2616 2906 2266 
Q 2828 2175 2409 1742 
Q 1991 1309 1228 531 
z
" transform="scale(0.015625)"/>
       </defs>
       <use xlink:href="#DejaVuSans-30"/>
       <use xlink:href="#DejaVuSans-2e" x="63.623047"/>
       <use xlink:href="#DejaVuSans-32" x="95.410156"/>
      </g>
     </g>
    </g>
    <g id="xtick_3">
     <g id="line2d_3">
      <g>
       <use xlink:href="#mdf244aff71" x="191.454545" y="333.490909" style="stroke: #000000; stroke-width: 0.8"/>
      </g>
     </g>
     <g id="text_3">
      <!-- 0.4 -->
      <g transform="translate(183.502983 348.089347)scale(0.1 -0.1)">
       <defs>
        <path id="DejaVuSans-34" d="M 2419 4116 
L 825 1625 
L 2419 1625 
L 2419 4116 
z
M 2253 4666 
L 3047 4666 
L 3047 1625 
L 3713 1625 
L 3713 1100 
L 3047 1100 
L 3047 0 
L 2419 0 
L 2419 1100 
L 313 1100 
L 313 1709 
L 2253 4666 
z
" transform="scale(0.015625)"/>
       </defs>
       <use xlink:href="#DejaVuSans-30"/>
       <use xlink:href="#DejaVuSans-2e" x="63.623047"/>
       <use xlink:href="#DejaVuSans-34" x="95.410156"/>
      </g>
     </g>
    </g>
    <g id="xtick_4">
     <g id="line2d_4">
      <g>
       <use xlink:href="#mdf244aff71" x="242.181818" y="333.490909" style="stroke: #000000; stroke-width: 0.8"/>
      </g>
     </g>
     <g id="text_4">
      <!-- 0.6 -->
      <g transform="translate(234.230256 348.089347)scale(0.1 -0.1)">
       <defs>
        <path id="DejaVuSans-36" d="M 2113 2584 
Q 1688 2584 1439 2293 
Q 1191 2003 1191 1497 
Q 1191 994 1439 701 
Q 1688 409 2113 409 
Q 2538 409 2786 701 
Q 3034 994 3034 1497 
Q 3034 2003 2786 2293 
Q 2538 2584 2113 2584 
z
M 3366 4563 
L 3366 3988 
Q 3128 4100 2886 4159 
Q 2644 4219 2406 4219 
Q 1781 4219 1451 3797 
Q 1122 3375 1075 2522 
Q 1259 2794 1537 2939 
Q 1816 3084 2150 3084 
Q 2853 3084 3261 2657 
Q 3669 2231 3669 1497 
Q 3669 778 3244 343 
Q 2819 -91 2113 -91 
Q 1303 -91 875 529 
Q 447 1150 447 2328 
Q 447 3434 972 4092 
Q 1497 4750 2381 4750 
Q 2619 4750 2861 4703 
Q 3103 4656 3366 4563 
z
" transform="scale(0.015625)"/>
       </defs>
       <use xlink:href="#DejaVuSans-30"/>
       <use xlink:href="#DejaVuSans-2e" x="63.623047"/>
       <use xlink:href="#DejaVuSans-36" x="95.410156"/>
      </g>
     </g>
    </g>
    <g id="xtick_5">
     <g id="line2d_5">
      <g>
       <use xlink:href="#mdf244aff71" x="292.909091" y="333.490909" style="stroke: #000000; stroke-width: 0.8"/>
      </g>
     </g>
     <g id="text_5">
      <!-- 0.8 -->
      <g transform="translate(284.957528 348.089347)scale(0.1 -0.1)">
       <defs>
        <path id="DejaVuSans-38" d="M 2034 2216 
Q 1584 2216 1326 1975 
Q 1069 1734 1069 1313 
Q 1069 891 1326 650 
Q 1584 409 2034 409 
Q 2484 409 2743 651 
Q 3003 894 3003 1313 
Q 3003 1734 2745 1975 
Q 2488 2216 2034 2216 
z
M 1403 2484 
Q 997 2584 770 2862 
Q 544 3141 544 3541 
Q 544 4100 942 4425 
Q 1341 4750 2034 4750 
Q 2731 4750 3128 4425 
Q 3525 4100 3525 3541 
Q 3525 3141 3298 2862 
Q 3072 2584 2669 2484 
Q 3125 2378 3379 2068 
Q 3634 1759 3634 1313 
Q 3634 634 3220 271 
Q 2806 -91 2034 -91 
Q 1263 -91 848 271 
Q 434 634 434 1313 
Q 434 1759 690 2068 
Q 947 2378 1403 2484 
z
M 1172 3481 
Q 1172 3119 1398 2916 
Q 1625 2713 2034 2713 
Q 2441 2713 2670 2916 
Q 2900 3119 2900 3481 
Q 2900 3844 2670 4047 
Q 2441 4250 2034 4250 
Q 1625 4250 1398 4047 
Q 1172 3844 1172 3481 
z
" transform="scale(0.015625)"/>
       </defs>
       <use xlink:href="#DejaVuSans-30"/>
       <use xlink:href="#DejaVuSans-2e" x="63.623047"/>
       <use xlink:href="#DejaVuSans-38" x="95.410156"/>
      </g>
     </g>
    </g>
    <g id="xtick_6">
     <g id="line2d_6">
      <g>
       <use xlink:href="#mdf244aff71" x="343.636364" y="333.490909" style="stroke: #000000; stroke-width: 0.8"/>
      </g>
     </g>
     <g id="text_6">
      <!-- 1.0 -->
      <g transform="translate(335.684801 348.089347)scale(0.1 -0.1)">
       <defs>
        <path id="DejaVuSans-31" d="M 794 531 
L 1825 531 
L 1825 4091 
L 703 3866 
L 703 4441 
L 1819 4666 
L 2450 4666 
L 2450 531 
L 3481 531 
L 3481 0 
L 794 0 
L 794 531 
z
" transform="scale(0.015625)"/>
       </defs>
       <use xlink:href="#DejaVuSans-31"/>
       <use xlink:href="#DejaVuSans-2e" x="63.623047"/>
       <use xlink:href="#DejaVuSans-30" x="95.410156"/>
      </g>
     </g>
    </g>
   </g>
   <g id="matplotlib.axis_2">
    <g id="ytick_1">
     <g id="line2d_7">
      <defs>
       <path id="m7f4677b327" d="M 0 0 
L -3.5 0 
" style="stroke: #000000; stroke-width: 0.8"/>
      </defs>
      <g>
       <use xlink:href="#m7f4677b327" x="90" y="333.490909" style="stroke: #000000; stroke-width: 0.8"/>
      </g>
     </g>
     <g id="text_7">
      <!-- 0.0 -->
      <g transform="translate(67.096875 337.290128)scale(0.1 -0.1)">
       <use xlink:href="#DejaVuSans-30"/>
       <use xlink:href="#DejaVuSans-2e" x="63.623047"/>
       <use xlink:href="#DejaVuSans-30" x="95.410156"/>
      </g>
     </g>
    </g>
    <g id="ytick_2">
     <g id="line2d_8">
      <g>
       <use xlink:href="#m7f4677b327" x="90" y="284.072727" style="stroke: #000000; stroke-width: 0.8"/>
      </g>
     </g>
     <g id="text_8">
      <!-- 0.2 -->
      <g transform="translate(67.096875 287.871946)scale(0.1 -0.1)">
       <use xlink:href="#DejaVuSans-30"/>
       <use xlink:href="#DejaVuSans-2e" x="63.623047"/>
       <use xlink:href="#DejaVuSans-32" x="95.410156"/>
      </g>
     </g>
    </g>
    <g id="ytick_3">
     <g id="line2d_9">
      <g>
       <use xlink:href="#m7f4677b327" x="90" y="234.654545" style="stroke: #000000; stroke-width: 0.8"/>
      </g>
     </g>
     <g id="text_9">
      <!-- 0.4 -->
      <g transform="translate(67.096875 238.453764)scale(0.1 -0.1)">
       <use xlink:href="#DejaVuSans-30"/>
       <use xlink:href="#DejaVuSans-2e" x="63.623047"/>
       <use xlink:href="#DejaVuSans-34" x="95.410156"/>
      </g>
     </g>
    </g>
    <g id="ytick_4">
     <g id="line2d_10">
      <g>
       <use xlink:href="#m7f4677b327" x="90" y="185.236364" style="stroke: #000000; stroke-width: 0.8"/>
      </g>
     </g>
     <g id="text_10">
      <!-- 0.6 -->
      <g transform="translate(67.096875 189.035582)scale(0.1 -0.1)">
       <use xlink:href="#DejaVuSans-30"/>
       <use xlink:href="#DejaVuSans-2e" x="63.623047"/>
       <use xlink:href="#DejaVuSans-36" x="95.410156"/>
      </g>
     </g>
    </g>
    <g id="ytick_5">
     <g id="line2d_11">
      <g>
       <use xlink:href="#m7f4677b327" x="90" y="135.818182" style="stroke: #000000; stroke-width: 0.8"/>
      </g>
     </g>
     <g id="text_11">
      <!-- 0.8 -->
      <g transform="translate(67.096875 139.617401)scale(0.1 -0.1)">
       <use xlink:href="#DejaVuSans-30"/>
       <use xlink:href="#DejaVuSans-2e" x="63.623047"/>
       <use xlink:href="#DejaVuSans-38" x="95.410156"/>
      </g>
     </g>
    </g>
    <g id="ytick_6">
     <g id="line2d_12">
      <g>
       <use xlink:href="#m7f4677b327" x="90" y="86.4" style="stroke: #000000; stroke-width: 0.8"/>
      </g>
     </g>
     <g id="text_12">
      <!-- 1.0 -->
      <g transform="translate(67.096875 90.199219)scale(0.1 -0.1)">
       <use xlink:href="#DejaVuSans-31"/>
       <use xlink:href="#DejaVuSans-2e" x="63.623047"/>
       <use xlink:href="#DejaVuSans-30" x="95.410156"/>
      </g>
     </g>
    </g>
   </g>
   <g id="patch_3">
    <path d="M 90 333.490909 
L 90 86.4 
" style="fill: none; stroke: #000000; stroke-width: 0.8; stroke-linejoin: miter; stroke-linecap: square"/>
   </g>
   <g id="patch_4">
    <path d="M 343.636364 333.490909 
L 343.636364 86.4 
" style="fill: none; stroke: #000000; stroke-width: 0.8; stroke-linejoin: miter; stroke-linecap: square"/>
   </g>
   <g id="patch_5">
    <path d="M 90 333.490909 
L 343.636364 333.490909 
" style="fill: none; stroke: #000000; stroke-width: 0.8; stroke-linejoin: miter; stroke-linecap: square"/>
   </g>
   <g id="patch_6">
    <path d="M 90 86.4 
L 343.636364 86.4 
" style="fill: none; stroke: #000000; stroke-width: 0.8; stroke-linejoin: miter; stroke-linecap: square"/>
   </g>
  </g>
  <g id="axes_2">
   <g id="patch_7">
    <path d="M 394.363636 333.490909 
L 648 333.490909 
L 648 86.4 
L 394.363636 86.4 
z
" style="fill: #ffffff"/>
   </g>
   <g id="PolyCollection_1">
    <defs>
     <path id="m9c2d10479d" d="M 405.892562 -489.059832 
L 405.892562 -489.059832 
L 407.342741 -489.059832 
L 408.792921 -489.059832 
L 410.2431 -489.059832 
L 411.693279 -489.059832 
L 413.143459 -489.059832 
L 414.593638 -489.059832 
L 416.043817 -489.059832 
L 417.493997 -489.059832 
L 418.944176 -489.059832 
L 420.394355 -489.059832 
L 421.844535 -489.059832 
L 423.294714 -489.059832 
L 424.744893 -489.059832 
L 426.195073 -489.065257 
L 427.645252 -489.100517 
L 429.095431 -489.278541 
L 430.54561 -489.979519 
L 431.99579 -492.124071 
L 433.445969 -497.213535 
L 434.896148 -506.560379 
L 436.346328 -519.791313 
L 437.796507 -524.06058 
L 439.246686 -534.668554 
L 440.696866 -542.217659 
L 442.147045 -544.932396 
L 443.597224 -545.50613 
L 445.047404 -547.188928 
L 446.497583 -550.312959 
L 447.947762 -555.316371 
L 449.397942 -559.010297 
L 450.848121 -560.968871 
L 452.2983 -560.806608 
L 453.74848 -558.468414 
L 455.198659 -571.709087 
L 456.648838 -562.317492 
L 458.099018 -568.399476 
L 459.549197 -572.679226 
L 460.999376 -574.316473 
L 462.449556 -571.900431 
L 463.899735 -571.239476 
L 465.349914 -570.080657 
L 466.800094 -569.30638 
L 468.250273 -570.089782 
L 469.700452 -570.830208 
L 471.150632 -570.630181 
L 472.600811 -569.111147 
L 474.05099 -564.158435 
L 475.501169 -558.895452 
L 476.951349 -552.696669 
L 478.401528 -561.120663 
L 479.851707 -553.902902 
L 481.301887 -561.027784 
L 482.752066 -567.93783 
L 484.202245 -576.43817 
L 485.652425 -582.164541 
L 487.102604 -586.782795 
L 488.552783 -591.138587 
L 490.002963 -592.912006 
L 491.453142 -596.424667 
L 492.903321 -597.608116 
L 494.353501 -596.772725 
L 495.80368 -593.221909 
L 497.253859 -584.765313 
L 498.704039 -568.010668 
L 500.154218 -546.146845 
L 501.604397 -534.875443 
L 503.054577 -514.404231 
L 504.504756 -500.621125 
L 505.954935 -493.340858 
L 507.405115 -490.331582 
L 508.855294 -489.359985 
L 510.305473 -489.115142 
L 511.755653 -489.067175 
L 513.205832 -489.059832 
L 514.656011 -489.059832 
L 516.106191 -489.059832 
L 517.55637 -489.059832 
L 519.006549 -489.062508 
L 520.456729 -489.077286 
L 521.906908 -489.148471 
L 523.357087 -489.410408 
L 524.807266 -490.139683 
L 526.257446 -491.650261 
L 527.707625 -493.900652 
L 529.157804 -496.111387 
L 530.607984 -489.727813 
L 532.058163 -496.336511 
L 533.508342 -494.699045 
L 534.958522 -493.825377 
L 536.408701 -494.913252 
L 537.85888 -497.951118 
L 539.30906 -496.082273 
L 540.759239 -498.465678 
L 542.209418 -500.864409 
L 543.659598 -498.609996 
L 545.109777 -495.571252 
L 546.559956 -496.731108 
L 548.010136 -493.312025 
L 549.460315 -491.002124 
L 550.910494 -489.780294 
L 552.360674 -489.274235 
L 553.810853 -489.11047 
L 555.261032 -489.069195 
L 556.711212 -489.061082 
L 558.161391 -489.059832 
L 559.61157 -489.059832 
L 561.06175 -489.059832 
L 562.511929 -489.059832 
L 563.962108 -489.059832 
L 565.412288 -489.059832 
L 566.862467 -489.059832 
L 568.312646 -489.059832 
L 569.762826 -489.059832 
L 571.213005 -489.059832 
L 572.663184 -489.059832 
L 574.113363 -489.059832 
L 575.563543 -489.059832 
L 577.013722 -489.059832 
L 578.463901 -489.059832 
L 579.914081 -489.059832 
L 581.36426 -489.059832 
L 582.814439 -489.059832 
L 584.264619 -489.059832 
L 585.714798 -489.059832 
L 587.164977 -489.059832 
L 588.615157 -489.059832 
L 590.065336 -489.059832 
L 591.515515 -489.059832 
L 592.965695 -489.059832 
L 594.415874 -489.059832 
L 595.866053 -489.059832 
L 597.316233 -489.059832 
L 598.766412 -489.059832 
L 600.216591 -489.059832 
L 601.666771 -489.059832 
L 603.11695 -489.059832 
L 604.567129 -489.059832 
L 606.017309 -489.059832 
L 607.467488 -489.059832 
L 608.917667 -489.059832 
L 610.367847 -489.059832 
L 611.818026 -489.059832 
L 613.268205 -489.059832 
L 614.718385 -489.059832 
L 616.168564 -489.059832 
L 617.618743 -489.059832 
L 619.068923 -489.059832 
L 620.519102 -489.059832 
L 621.969281 -489.059832 
L 623.41946 -489.059832 
L 624.86964 -489.059832 
L 626.319819 -489.059832 
L 627.769998 -489.059832 
L 629.220178 -489.059832 
L 630.670357 -489.059832 
L 632.120536 -489.059832 
L 633.570716 -489.059832 
L 635.020895 -489.059832 
L 636.471074 -489.059832 
L 636.471074 -489.059832 
L 636.471074 -489.059832 
L 635.020895 -489.059832 
L 633.570716 -489.059832 
L 632.120536 -489.059832 
L 630.670357 -489.059832 
L 629.220178 -489.059832 
L 627.769998 -489.059832 
L 626.319819 -489.059832 
L 624.86964 -489.059832 
L 623.41946 -489.059832 
L 621.969281 -489.059832 
L 620.519102 -489.059832 
L 619.068923 -489.059832 
L 617.618743 -489.059832 
L 616.168564 -489.059832 
L 614.718385 -489.059832 
L 613.268205 -489.059832 
L 611.818026 -489.059832 
L 610.367847 -489.059832 
L 608.917667 -489.059832 
L 607.467488 -489.059832 
L 606.017309 -489.059832 
L 604.567129 -489.059832 
L 603.11695 -489.059832 
L 601.666771 -489.059832 
L 600.216591 -489.059832 
L 598.766412 -489.059832 
L 597.316233 -489.059832 
L 595.866053 -489.059832 
L 594.415874 -489.059832 
L 592.965695 -489.059832 
L 591.515515 -489.059832 
L 590.065336 -489.059832 
L 588.615157 -489.059832 
L 587.164977 -489.059832 
L 585.714798 -489.059832 
L 584.264619 -489.059832 
L 582.814439 -489.059832 
L 581.36426 -489.059832 
L 579.914081 -489.059832 
L 578.463901 -489.059832 
L 577.013722 -489.059832 
L 575.563543 -489.059832 
L 574.113363 -489.059832 
L 572.663184 -489.059832 
L 571.213005 -489.059832 
L 569.762826 -489.059832 
L 568.312646 -489.059832 
L 566.862467 -489.059832 
L 565.412288 -489.059832 
L 563.962108 -489.059832 
L 562.511929 -489.059832 
L 561.06175 -489.059832 
L 559.61157 -489.059832 
L 558.161391 -489.059832 
L 556.711212 -489.061082 
L 555.261032 -489.069195 
L 553.810853 -489.11047 
L 552.360674 -489.274235 
L 550.910494 -489.780294 
L 549.460315 -491.002124 
L 548.010136 -493.312025 
L 546.559956 -496.731108 
L 545.109777 -505.741589 
L 543.659598 -509.345202 
L 542.209418 -510.226878 
L 540.759239 -510.966333 
L 539.30906 -507.457366 
L 537.85888 -497.951118 
L 536.408701 -494.913252 
L 534.958522 -493.825377 
L 533.508342 -494.699045 
L 532.058163 -496.336511 
L 530.607984 -504.459879 
L 529.157804 -496.111387 
L 527.707625 -493.900652 
L 526.257446 -491.650261 
L 524.807266 -490.139683 
L 523.357087 -489.410408 
L 521.906908 -489.148471 
L 520.456729 -489.077286 
L 519.006549 -489.062508 
L 517.55637 -489.059832 
L 516.106191 -489.059832 
L 514.656011 -489.059832 
L 513.205832 -489.059832 
L 511.755653 -489.067175 
L 510.305473 -489.115142 
L 508.855294 -489.359985 
L 507.405115 -490.331582 
L 505.954935 -493.340858 
L 504.504756 -500.621125 
L 503.054577 -514.404231 
L 501.604397 -534.875443 
L 500.154218 -571.466012 
L 498.704039 -593.78381 
L 497.253859 -609.200176 
L 495.80368 -618.847319 
L 494.353501 -622.368595 
L 492.903321 -622.095609 
L 491.453142 -620.66721 
L 490.002963 -619.799616 
L 488.552783 -615.533377 
L 487.102604 -611.894915 
L 485.652425 -606.30235 
L 484.202245 -599.347047 
L 482.752066 -592.622073 
L 481.301887 -582.889192 
L 479.851707 -575.547923 
L 478.401528 -561.120663 
L 476.951349 -572.204732 
L 475.501169 -575.941832 
L 474.05099 -582.206845 
L 472.600811 -585.850006 
L 471.150632 -588.46999 
L 469.700452 -588.698035 
L 468.250273 -588.035183 
L 466.800094 -587.728272 
L 465.349914 -587.692153 
L 463.899735 -589.279814 
L 462.449556 -592.216415 
L 460.999376 -592.092446 
L 459.549197 -592.191297 
L 458.099018 -589.966831 
L 456.648838 -587.10574 
L 455.198659 -571.709087 
L 453.74848 -585.047725 
L 452.2983 -586.190229 
L 450.848121 -587.070702 
L 449.397942 -584.45384 
L 447.947762 -579.50393 
L 446.497583 -575.611446 
L 445.047404 -572.348477 
L 443.597224 -570.38336 
L 442.147045 -567.851787 
L 440.696866 -563.966536 
L 439.246686 -557.126699 
L 437.796507 -544.200786 
L 436.346328 -519.791313 
L 434.896148 -506.560379 
L 433.445969 -497.213535 
L 431.99579 -492.124071 
L 430.54561 -489.979519 
L 429.095431 -489.278541 
L 427.645252 -489.100517 
L 426.195073 -489.065257 
L 424.744893 -489.059832 
L 423.294714 -489.059832 
L 421.844535 -489.059832 
L 420.394355 -489.059832 
L 418.944176 -489.059832 
L 417.493997 -489.059832 
L 416.043817 -489.059832 
L 414.593638 -489.059832 
L 413.143459 -489.059832 
L 411.693279 -489.059832 
L 410.2431 -489.059832 
L 408.792921 -489.059832 
L 407.342741 -489.059832 
L 405.892562 -489.059832 
z
" style="stroke: #9467bd; stroke-opacity: 0.2"/>
    </defs>
    <g clip-path="url(#pd4f1e8d2bf)">
     <use xlink:href="#m9c2d10479d" x="0" y="720" style="fill: #9467bd; fill-opacity: 0.2; stroke: #9467bd; stroke-opacity: 0.2"/>
    </g>
   </g>
   <g id="PolyCollection_2">
    <defs>
     <path id="m62528a009d" d="M 405.892562 -466.394439 
L 405.892562 -453.730301 
L 407.342741 -459.305928 
L 408.792921 -451.774179 
L 410.2431 -450.198195 
L 411.693279 -449.171411 
L 413.143459 -449.619334 
L 414.593638 -450.117674 
L 416.043817 -453.849552 
L 417.493997 -459.095968 
L 418.944176 -463.892689 
L 420.394355 -473.089537 
L 421.844535 -475.942589 
L 423.294714 -477.175301 
L 424.744893 -473.108362 
L 426.195073 -480.195188 
L 427.645252 -483.142202 
L 429.095431 -485.924933 
L 430.54561 -487.757907 
L 431.99579 -488.637945 
L 433.445969 -488.953162 
L 434.896148 -489.038827 
L 436.346328 -489.056611 
L 437.796507 -489.059832 
L 439.246686 -489.059832 
L 440.696866 -489.059832 
L 442.147045 -489.059832 
L 443.597224 -489.055644 
L 445.047404 -489.032526 
L 446.497583 -488.921162 
L 447.947762 -488.511382 
L 449.397942 -487.370488 
L 450.848121 -485.007306 
L 452.2983 -481.488718 
L 453.74848 -478.043926 
L 455.198659 -469.924401 
L 456.648838 -478.043926 
L 458.099018 -481.488718 
L 459.549197 -485.007306 
L 460.999376 -487.370488 
L 462.449556 -488.511382 
L 463.899735 -488.921162 
L 465.349914 -489.032526 
L 466.800094 -489.055644 
L 468.250273 -489.059832 
L 469.700452 -489.059832 
L 471.150632 -489.059832 
L 472.600811 -489.059832 
L 474.05099 -489.059832 
L 475.501169 -489.059832 
L 476.951349 -489.059832 
L 478.401528 -489.059832 
L 479.851707 -489.059832 
L 481.301887 -489.059832 
L 482.752066 -489.059832 
L 484.202245 -489.059832 
L 485.652425 -489.059832 
L 487.102604 -489.059832 
L 488.552783 -489.059832 
L 490.002963 -489.059832 
L 491.453142 -489.059832 
L 492.903321 -489.059832 
L 494.353501 -489.059832 
L 495.80368 -489.059832 
L 497.253859 -489.059832 
L 498.704039 -489.059832 
L 500.154218 -489.059832 
L 501.604397 -489.059832 
L 503.054577 -489.059832 
L 504.504756 -489.059832 
L 505.954935 -489.059832 
L 507.405115 -489.059832 
L 508.855294 -489.059832 
L 510.305473 -489.059832 
L 511.755653 -489.059832 
L 513.205832 -489.059832 
L 514.656011 -489.059832 
L 516.106191 -489.059832 
L 517.55637 -489.059832 
L 519.006549 -489.059832 
L 520.456729 -489.059832 
L 521.906908 -489.059832 
L 523.357087 -489.059832 
L 524.807266 -489.059832 
L 526.257446 -489.059832 
L 527.707625 -489.059832 
L 529.157804 -489.059832 
L 530.607984 -489.059832 
L 532.058163 -489.059832 
L 533.508342 -489.059832 
L 534.958522 -489.059832 
L 536.408701 -489.059832 
L 537.85888 -489.059832 
L 539.30906 -489.059832 
L 540.759239 -489.059832 
L 542.209418 -489.059832 
L 543.659598 -489.059832 
L 545.109777 -489.059832 
L 546.559956 -489.059832 
L 548.010136 -489.059832 
L 549.460315 -489.059832 
L 550.910494 -489.059832 
L 552.360674 -489.056599 
L 553.810853 -489.038749 
L 555.261032 -488.952765 
L 556.711212 -488.636374 
L 558.161391 -487.755491 
L 559.61157 -485.930881 
L 561.06175 -483.214181 
L 562.511929 -480.554461 
L 563.962108 -474.817092 
L 565.412288 -480.554461 
L 566.862467 -483.214181 
L 568.312646 -485.930881 
L 569.762826 -487.755491 
L 571.213005 -488.634498 
L 572.663184 -488.937428 
L 574.113363 -488.954797 
L 575.563543 -488.697746 
L 577.013722 -487.842685 
L 578.463901 -485.77355 
L 579.914081 -481.963236 
L 581.36426 -476.709383 
L 582.814439 -468.965485 
L 584.264619 -464.465122 
L 585.714798 -463.296065 
L 587.164977 -465.765461 
L 588.615157 -461.707987 
L 590.065336 -459.94616 
L 591.515515 -458.73162 
L 592.965695 -459.453792 
L 594.415874 -465.213773 
L 595.866053 -469.60105 
L 597.316233 -478.677307 
L 598.766412 -483.229277 
L 600.216591 -486.33863 
L 601.666771 -488.026931 
L 603.11695 -488.745885 
L 604.567129 -488.984311 
L 606.017309 -489.045584 
L 607.467488 -489.057827 
L 608.917667 -489.059832 
L 610.367847 -489.059832 
L 611.818026 -489.059832 
L 613.268205 -489.059832 
L 614.718385 -489.059832 
L 616.168564 -489.059832 
L 617.618743 -489.059832 
L 619.068923 -489.059832 
L 620.519102 -489.059832 
L 621.969281 -489.059832 
L 623.41946 -489.059832 
L 624.86964 -489.059832 
L 626.319819 -489.059832 
L 627.769998 -489.059832 
L 629.220178 -489.059832 
L 630.670357 -489.059832 
L 632.120536 -489.059832 
L 633.570716 -489.059832 
L 635.020895 -489.059832 
L 636.471074 -489.059832 
L 636.471074 -489.059832 
L 636.471074 -489.059832 
L 635.020895 -489.059832 
L 633.570716 -489.059832 
L 632.120536 -489.059832 
L 630.670357 -489.059832 
L 629.220178 -489.059832 
L 627.769998 -489.059832 
L 626.319819 -489.059832 
L 624.86964 -489.059832 
L 623.41946 -489.059832 
L 621.969281 -489.059832 
L 620.519102 -489.059832 
L 619.068923 -489.059832 
L 617.618743 -489.059832 
L 616.168564 -489.059832 
L 614.718385 -489.059832 
L 613.268205 -489.059832 
L 611.818026 -489.059832 
L 610.367847 -489.059832 
L 608.917667 -489.059832 
L 607.467488 -489.057827 
L 606.017309 -489.045584 
L 604.567129 -488.984311 
L 603.11695 -488.745885 
L 601.666771 -488.026931 
L 600.216591 -486.33863 
L 598.766412 -483.229277 
L 597.316233 -478.677307 
L 595.866053 -476.943744 
L 594.415874 -470.781651 
L 592.965695 -468.431674 
L 591.515515 -465.367636 
L 590.065336 -465.094533 
L 588.615157 -466.870192 
L 587.164977 -465.765461 
L 585.714798 -469.828386 
L 584.264619 -471.546156 
L 582.814439 -474.009841 
L 581.36426 -476.709383 
L 579.914081 -481.963236 
L 578.463901 -485.77355 
L 577.013722 -487.842685 
L 575.563543 -488.697746 
L 574.113363 -488.954797 
L 572.663184 -488.937428 
L 571.213005 -488.634498 
L 569.762826 -487.755491 
L 568.312646 -485.930881 
L 566.862467 -483.214181 
L 565.412288 -480.554461 
L 563.962108 -484.026875 
L 562.511929 -480.554461 
L 561.06175 -483.214181 
L 559.61157 -485.930881 
L 558.161391 -487.755491 
L 556.711212 -488.636374 
L 555.261032 -488.952765 
L 553.810853 -489.038749 
L 552.360674 -489.056599 
L 550.910494 -489.059832 
L 549.460315 -489.059832 
L 548.010136 -489.059832 
L 546.559956 -489.059832 
L 545.109777 -489.059832 
L 543.659598 -489.059832 
L 542.209418 -489.059832 
L 540.759239 -489.059832 
L 539.30906 -489.059832 
L 537.85888 -489.059832 
L 536.408701 -489.059832 
L 534.958522 -489.059832 
L 533.508342 -489.059832 
L 532.058163 -489.059832 
L 530.607984 -489.059832 
L 529.157804 -489.059832 
L 527.707625 -489.059832 
L 526.257446 -489.059832 
L 524.807266 -489.059832 
L 523.357087 -489.059832 
L 521.906908 -489.059832 
L 520.456729 -489.059832 
L 519.006549 -489.059832 
L 517.55637 -489.059832 
L 516.106191 -489.059832 
L 514.656011 -489.059832 
L 513.205832 -489.059832 
L 511.755653 -489.059832 
L 510.305473 -489.059832 
L 508.855294 -489.059832 
L 507.405115 -489.059832 
L 505.954935 -489.059832 
L 504.504756 -489.059832 
L 503.054577 -489.059832 
L 501.604397 -489.059832 
L 500.154218 -489.059832 
L 498.704039 -489.059832 
L 497.253859 -489.059832 
L 495.80368 -489.059832 
L 494.353501 -489.059832 
L 492.903321 -489.059832 
L 491.453142 -489.059832 
L 490.002963 -489.059832 
L 488.552783 -489.059832 
L 487.102604 -489.059832 
L 485.652425 -489.059832 
L 484.202245 -489.059832 
L 482.752066 -489.059832 
L 481.301887 -489.059832 
L 479.851707 -489.059832 
L 478.401528 -489.059832 
L 476.951349 -489.059832 
L 475.501169 -489.059832 
L 474.05099 -489.059832 
L 472.600811 -489.059832 
L 471.150632 -489.059832 
L 469.700452 -489.059832 
L 468.250273 -489.059832 
L 466.800094 -489.055644 
L 465.349914 -489.032526 
L 463.899735 -488.921162 
L 462.449556 -488.511382 
L 460.999376 -487.370488 
L 459.549197 -485.007306 
L 458.099018 -481.488718 
L 456.648838 -478.043926 
L 455.198659 -483.229949 
L 453.74848 -478.043926 
L 452.2983 -481.488718 
L 450.848121 -485.007306 
L 449.397942 -487.370488 
L 447.947762 -488.511382 
L 446.497583 -488.921162 
L 445.047404 -489.032526 
L 443.597224 -489.055644 
L 442.147045 -489.059832 
L 440.696866 -489.059832 
L 439.246686 -489.059832 
L 437.796507 -489.059832 
L 436.346328 -489.056611 
L 434.896148 -489.038827 
L 433.445969 -488.953162 
L 431.99579 -488.637945 
L 430.54561 -487.757907 
L 429.095431 -485.924933 
L 427.645252 -483.142202 
L 426.195073 -480.195188 
L 424.744893 -483.224603 
L 423.294714 -477.175301 
L 421.844535 -475.942589 
L 420.394355 -473.089537 
L 418.944176 -473.347643 
L 417.493997 -468.431101 
L 416.043817 -465.593299 
L 414.593638 -463.843562 
L 413.143459 -461.501024 
L 411.693279 -461.63546 
L 410.2431 -462.50276 
L 408.792921 -464.025605 
L 407.342741 -459.305928 
L 405.892562 -466.394439 
z
" style="stroke: #1f77b4; stroke-opacity: 0.2"/>
    </defs>
    <g clip-path="url(#pd4f1e8d2bf)">
     <use xlink:href="#m62528a009d" x="0" y="720" style="fill: #1f77b4; fill-opacity: 0.2; stroke: #1f77b4; stroke-opacity: 0.2"/>
    </g>
   </g>
   <g id="PolyCollection_3">
    <defs>
     <path id="m3e905acd2f" d="M 405.892562 -489.059832 
L 405.892562 -489.059832 
L 407.342741 -489.059832 
L 408.792921 -489.055434 
L 410.2431 -489.027228 
L 411.693279 -488.884165 
L 413.143459 -488.324924 
L 414.593638 -486.620608 
L 416.043817 -482.608853 
L 417.493997 -475.355289 
L 418.944176 -465.401726 
L 420.394355 -446.782526 
L 421.844535 -439.249633 
L 423.294714 -436.306448 
L 424.744893 -441.230447 
L 426.195073 -431.049239 
L 427.645252 -427.81077 
L 429.095431 -425.347525 
L 430.54561 -423.066718 
L 431.99579 -424.291571 
L 433.445969 -427.637821 
L 434.896148 -434.889634 
L 436.346328 -446.171891 
L 437.796507 -465.301634 
L 439.246686 -475.903672 
L 440.696866 -483.066958 
L 442.147045 -486.846752 
L 443.597224 -488.40435 
L 445.047404 -488.905584 
L 446.497583 -489.031496 
L 447.947762 -489.056116 
L 449.397942 -489.059832 
L 450.848121 -489.059832 
L 452.2983 -489.059832 
L 453.74848 -489.059832 
L 455.198659 -489.059832 
L 456.648838 -489.059832 
L 458.099018 -489.059832 
L 459.549197 -489.059832 
L 460.999376 -489.059832 
L 462.449556 -489.059832 
L 463.899735 -489.059832 
L 465.349914 -489.059832 
L 466.800094 -489.054541 
L 468.250273 -489.025331 
L 469.700452 -488.884623 
L 471.150632 -488.366869 
L 472.600811 -486.925357 
L 474.05099 -483.939493 
L 475.501169 -479.49378 
L 476.951349 -475.141308 
L 478.401528 -467.60341 
L 479.851707 -475.141308 
L 481.301887 -479.49378 
L 482.752066 -483.939493 
L 484.202245 -486.925357 
L 485.652425 -488.366869 
L 487.102604 -488.884623 
L 488.552783 -489.025331 
L 490.002963 -489.048376 
L 491.453142 -489.014516 
L 492.903321 -488.817002 
L 494.353501 -488.042337 
L 495.80368 -485.682925 
L 497.253859 -480.100343 
L 498.704039 -469.846054 
L 500.154218 -455.241931 
L 501.604397 -432.814497 
L 503.054577 -419.771874 
L 504.504756 -411.748774 
L 505.954935 -409.527222 
L 507.405115 -409.945742 
L 508.855294 -410.560523 
L 510.305473 -410.347789 
L 511.755653 -408.932423 
L 513.205832 -405.325124 
L 514.656011 -403.042646 
L 516.106191 -401.664471 
L 517.55637 -402.199967 
L 519.006549 -404.327508 
L 520.456729 -407.780786 
L 521.906908 -411.488973 
L 523.357087 -415.098817 
L 524.807266 -418.13407 
L 526.257446 -421.518197 
L 527.707625 -425.101983 
L 529.157804 -428.764724 
L 530.607984 -437.322888 
L 532.058163 -433.220719 
L 533.508342 -431.480599 
L 534.958522 -431.085438 
L 536.408701 -435.721396 
L 537.85888 -444.702636 
L 539.30906 -461.950927 
L 540.759239 -473.466377 
L 542.209418 -481.735246 
L 543.659598 -486.286627 
L 545.109777 -488.230688 
L 546.559956 -488.925629 
L 548.010136 -489.384958 
L 549.460315 -490.604445 
L 550.910494 -494.319527 
L 552.360674 -503.389498 
L 553.810853 -520.668942 
L 555.261032 -546.053219 
L 556.711212 -563.739918 
L 558.161391 -582.98527 
L 559.61157 -584.614338 
L 561.06175 -569.566164 
L 562.511929 -554.001991 
L 563.962108 -526.528743 
L 565.412288 -506.578083 
L 566.862467 -495.640839 
L 568.312646 -491.032233 
L 569.762826 -489.532011 
L 571.213005 -489.174177 
L 572.663184 -489.211292 
L 574.113363 -489.613452 
L 575.563543 -490.769253 
L 577.013722 -493.177626 
L 578.463901 -496.839752 
L 579.914081 -500.723123 
L 581.36426 -494.799481 
L 582.814439 -504.19573 
L 584.264619 -504.205451 
L 585.714798 -504.071356 
L 587.164977 -493.840607 
L 588.615157 -500.656636 
L 590.065336 -497.202078 
L 591.515515 -494.641004 
L 592.965695 -494.426447 
L 594.415874 -496.49385 
L 595.866053 -499.222866 
L 597.316233 -488.875829 
L 598.766412 -499.089591 
L 600.216591 -495.950326 
L 601.666771 -492.748047 
L 603.11695 -490.597309 
L 604.567129 -489.558977 
L 606.017309 -489.186036 
L 607.467488 -489.084683 
L 608.917667 -489.063643 
L 610.367847 -489.059832 
L 611.818026 -489.059832 
L 613.268205 -489.059832 
L 614.718385 -489.059832 
L 616.168564 -489.059832 
L 617.618743 -489.059832 
L 619.068923 -489.059832 
L 620.519102 -489.059832 
L 621.969281 -489.065527 
L 623.41946 -489.096967 
L 624.86964 -489.248422 
L 626.319819 -489.805719 
L 627.769998 -491.357328 
L 629.220178 -494.576933 
L 630.670357 -499.393629 
L 632.120536 -504.229976 
L 633.570716 -494.893321 
L 635.020895 -506.338882 
L 636.471074 -504.8679 
L 636.471074 -504.8679 
L 636.471074 -504.8679 
L 635.020895 -506.338882 
L 633.570716 -518.670769 
L 632.120536 -504.229976 
L 630.670357 -499.393629 
L 629.220178 -494.576933 
L 627.769998 -491.357328 
L 626.319819 -489.805719 
L 624.86964 -489.248422 
L 623.41946 -489.096967 
L 621.969281 -489.065527 
L 620.519102 -489.059832 
L 619.068923 -489.059832 
L 617.618743 -489.059832 
L 616.168564 -489.059832 
L 614.718385 -489.059832 
L 613.268205 -489.059832 
L 611.818026 -489.059832 
L 610.367847 -489.059832 
L 608.917667 -489.063643 
L 607.467488 -489.084683 
L 606.017309 -489.186036 
L 604.567129 -489.558977 
L 603.11695 -490.597309 
L 601.666771 -492.748047 
L 600.216591 -495.950326 
L 598.766412 -499.089591 
L 597.316233 -512.018963 
L 595.866053 -499.222866 
L 594.415874 -496.49385 
L 592.965695 -494.426447 
L 591.515515 -494.641004 
L 590.065336 -497.202078 
L 588.615157 -500.656636 
L 587.164977 -512.480418 
L 585.714798 -504.071356 
L 584.264619 -504.205451 
L 582.814439 -504.19573 
L 581.36426 -511.869221 
L 579.914081 -500.723123 
L 578.463901 -496.839752 
L 577.013722 -493.177626 
L 575.563543 -490.769253 
L 574.113363 -489.613452 
L 572.663184 -489.211292 
L 571.213005 -489.174177 
L 569.762826 -489.532011 
L 568.312646 -491.032233 
L 566.862467 -495.640839 
L 565.412288 -506.578083 
L 563.962108 -526.528743 
L 562.511929 -554.001991 
L 561.06175 -592.695652 
L 559.61157 -608.966922 
L 558.161391 -604.577698 
L 556.711212 -583.920647 
L 555.261032 -546.053219 
L 553.810853 -520.668942 
L 552.360674 -503.389498 
L 550.910494 -494.319527 
L 549.460315 -490.604445 
L 548.010136 -489.384958 
L 546.559956 -488.925629 
L 545.109777 -488.230688 
L 543.659598 -486.286627 
L 542.209418 -481.735246 
L 540.759239 -473.466377 
L 539.30906 -461.950927 
L 537.85888 -455.054035 
L 536.408701 -445.949227 
L 534.958522 -442.587828 
L 533.508342 -442.401817 
L 532.058163 -442.914959 
L 530.607984 -437.322888 
L 529.157804 -439.305535 
L 527.707625 -434.24087 
L 526.257446 -430.14312 
L 524.807266 -427.37658 
L 523.357087 -424.449304 
L 521.906908 -421.432668 
L 520.456729 -418.282784 
L 519.006549 -415.750347 
L 517.55637 -413.821267 
L 516.106191 -413.008267 
L 514.656011 -413.427209 
L 513.205832 -415.758796 
L 511.755653 -417.906485 
L 510.305473 -420.730907 
L 508.855294 -421.349066 
L 507.405115 -420.136414 
L 505.954935 -419.850942 
L 504.504756 -423.368126 
L 503.054577 -431.669393 
L 501.604397 -445.54221 
L 500.154218 -455.241931 
L 498.704039 -469.846054 
L 497.253859 -480.100343 
L 495.80368 -485.682925 
L 494.353501 -488.042337 
L 492.903321 -488.817002 
L 491.453142 -489.014516 
L 490.002963 -489.048376 
L 488.552783 -489.025331 
L 487.102604 -488.884623 
L 485.652425 -488.366869 
L 484.202245 -486.925357 
L 482.752066 -483.939493 
L 481.301887 -479.49378 
L 479.851707 -475.141308 
L 478.401528 -478.972746 
L 476.951349 -475.141308 
L 475.501169 -479.49378 
L 474.05099 -483.939493 
L 472.600811 -486.925357 
L 471.150632 -488.366869 
L 469.700452 -488.884623 
L 468.250273 -489.025331 
L 466.800094 -489.054541 
L 465.349914 -489.059832 
L 463.899735 -489.059832 
L 462.449556 -489.059832 
L 460.999376 -489.059832 
L 459.549197 -489.059832 
L 458.099018 -489.059832 
L 456.648838 -489.059832 
L 455.198659 -489.059832 
L 453.74848 -489.059832 
L 452.2983 -489.059832 
L 450.848121 -489.059832 
L 449.397942 -489.059832 
L 447.947762 -489.056116 
L 446.497583 -489.031496 
L 445.047404 -488.905584 
L 443.597224 -488.40435 
L 442.147045 -486.846752 
L 440.696866 -483.066958 
L 439.246686 -475.903672 
L 437.796507 -465.301634 
L 436.346328 -459.954162 
L 434.896148 -449.266835 
L 433.445969 -441.343437 
L 431.99579 -437.029549 
L 430.54561 -436.620113 
L 429.095431 -437.311696 
L 427.645252 -441.207148 
L 426.195073 -445.416263 
L 424.744893 -441.230447 
L 423.294714 -451.119787 
L 421.844535 -456.29923 
L 420.394355 -463.718163 
L 418.944176 -465.401726 
L 417.493997 -475.355289 
L 416.043817 -482.608853 
L 414.593638 -486.620608 
L 413.143459 -488.324924 
L 411.693279 -488.884165 
L 410.2431 -489.027228 
L 408.792921 -489.055434 
L 407.342741 -489.059832 
L 405.892562 -489.059832 
z
" style="stroke: #d62728; stroke-opacity: 0.2"/>
    </defs>
    <g clip-path="url(#pd4f1e8d2bf)">
     <use xlink:href="#m3e905acd2f" x="0" y="720" style="fill: #d62728; fill-opacity: 0.2; stroke: #d62728; stroke-opacity: 0.2"/>
    </g>
   </g>
   <g id="PolyCollection_4">
    <defs>
     <path id="m14c40f76dd" d="M 405.892562 -479.502626 
L 405.892562 -479.502626 
L 407.342741 -473.108845 
L 408.792921 -482.526956 
L 410.2431 -484.884857 
L 411.693279 -486.904773 
L 413.143459 -488.177153 
L 414.593638 -488.775673 
L 416.043817 -488.98853 
L 417.493997 -489.045792 
L 418.944176 -489.057679 
L 420.394355 -489.059832 
L 421.844535 -489.059832 
L 423.294714 -489.059832 
L 424.744893 -489.059832 
L 426.195073 -489.059832 
L 427.645252 -489.059832 
L 429.095431 -489.059832 
L 430.54561 -489.059832 
L 431.99579 -489.059832 
L 433.445969 -489.059832 
L 434.896148 -489.059832 
L 436.346328 -489.059832 
L 437.796507 -489.059832 
L 439.246686 -489.059832 
L 440.696866 -489.059832 
L 442.147045 -489.059832 
L 443.597224 -489.059832 
L 445.047404 -489.059832 
L 446.497583 -489.059832 
L 447.947762 -489.059832 
L 449.397942 -489.059832 
L 450.848121 -489.059832 
L 452.2983 -489.059832 
L 453.74848 -489.059832 
L 455.198659 -489.059832 
L 456.648838 -489.059832 
L 458.099018 -489.059832 
L 459.549197 -489.059832 
L 460.999376 -489.059832 
L 462.449556 -489.059832 
L 463.899735 -489.059832 
L 465.349914 -489.059832 
L 466.800094 -489.059832 
L 468.250273 -489.059832 
L 469.700452 -489.059832 
L 471.150632 -489.059832 
L 472.600811 -489.059832 
L 474.05099 -489.059832 
L 475.501169 -489.059832 
L 476.951349 -489.059832 
L 478.401528 -489.059832 
L 479.851707 -489.059832 
L 481.301887 -489.059832 
L 482.752066 -489.059832 
L 484.202245 -489.059832 
L 485.652425 -489.059832 
L 487.102604 -489.059832 
L 488.552783 -489.059832 
L 490.002963 -489.059832 
L 491.453142 -489.059832 
L 492.903321 -489.059832 
L 494.353501 -489.059832 
L 495.80368 -489.059832 
L 497.253859 -489.059832 
L 498.704039 -489.059832 
L 500.154218 -489.059832 
L 501.604397 -489.059832 
L 503.054577 -489.059832 
L 504.504756 -489.059832 
L 505.954935 -489.059832 
L 507.405115 -489.059832 
L 508.855294 -489.059832 
L 510.305473 -489.059832 
L 511.755653 -489.059832 
L 513.205832 -489.059832 
L 514.656011 -489.059832 
L 516.106191 -489.059832 
L 517.55637 -489.059832 
L 519.006549 -489.059832 
L 520.456729 -489.059832 
L 521.906908 -489.059832 
L 523.357087 -489.059832 
L 524.807266 -489.059832 
L 526.257446 -489.059832 
L 527.707625 -489.059832 
L 529.157804 -489.059832 
L 530.607984 -489.059832 
L 532.058163 -489.059832 
L 533.508342 -489.059832 
L 534.958522 -489.058768 
L 536.408701 -489.052385 
L 537.85888 -489.02025 
L 539.30906 -488.895058 
L 540.759239 -488.515879 
L 542.209418 -487.614009 
L 543.659598 -485.904883 
L 545.109777 -483.251904 
L 546.559956 -476.097427 
L 548.010136 -472.890974 
L 549.460315 -467.026196 
L 550.910494 -462.444104 
L 552.360674 -460.08895 
L 553.810853 -459.338983 
L 555.261032 -461.7989 
L 556.711212 -470.546764 
L 558.161391 -472.877004 
L 559.61157 -470.428838 
L 561.06175 -462.789126 
L 562.511929 -446.233863 
L 563.962108 -439.463932 
L 565.412288 -422.858704 
L 566.862467 -410.302907 
L 568.312646 -403.533045 
L 569.762826 -399.299134 
L 571.213005 -397.740496 
L 572.663184 -397.864571 
L 574.113363 -398.977965 
L 575.563543 -402.846575 
L 577.013722 -408.049811 
L 578.463901 -417.834676 
L 579.914081 -431.502473 
L 581.36426 -457.385798 
L 582.814439 -471.583658 
L 584.264619 -481.134134 
L 585.714798 -486.147292 
L 587.164977 -488.199051 
L 588.615157 -488.838835 
L 590.065336 -488.913185 
L 591.515515 -488.585035 
L 592.965695 -487.457858 
L 594.415874 -484.665065 
L 595.866053 -479.239381 
L 597.316233 -470.923814 
L 598.766412 -453.695918 
L 600.216591 -444.292988 
L 601.666771 -436.37002 
L 603.11695 -435.814074 
L 604.567129 -435.497881 
L 606.017309 -436.686889 
L 607.467488 -437.847432 
L 608.917667 -437.120307 
L 610.367847 -436.40481 
L 611.818026 -435.395742 
L 613.268205 -435.162932 
L 614.718385 -435.158809 
L 616.168564 -434.227066 
L 617.618743 -431.388872 
L 619.068923 -429.380886 
L 620.519102 -427.831827 
L 621.969281 -426.430583 
L 623.41946 -425.375291 
L 624.86964 -425.922845 
L 626.319819 -425.667239 
L 627.769998 -425.379911 
L 629.220178 -424.816488 
L 630.670357 -425.691829 
L 632.120536 -426.898347 
L 633.570716 -433.436074 
L 635.020895 -426.589837 
L 636.471074 -426.196045 
L 636.471074 -436.943271 
L 636.471074 -436.943271 
L 635.020895 -438.872484 
L 633.570716 -433.436074 
L 632.120536 -438.272605 
L 630.670357 -436.174074 
L 629.220178 -435.087938 
L 627.769998 -434.769705 
L 626.319819 -435.518778 
L 624.86964 -435.796733 
L 623.41946 -436.700354 
L 621.969281 -437.132087 
L 620.519102 -439.251576 
L 619.068923 -442.924984 
L 617.618743 -446.320664 
L 616.168564 -447.252291 
L 614.718385 -447.637379 
L 613.268205 -447.406752 
L 611.818026 -447.328075 
L 610.367847 -448.03893 
L 608.917667 -449.893423 
L 607.467488 -450.578682 
L 606.017309 -450.681711 
L 604.567129 -449.42915 
L 603.11695 -448.699935 
L 601.666771 -453.580096 
L 600.216591 -458.670926 
L 598.766412 -468.080271 
L 597.316233 -470.923814 
L 595.866053 -479.239381 
L 594.415874 -484.665065 
L 592.965695 -487.457858 
L 591.515515 -488.585035 
L 590.065336 -488.913185 
L 588.615157 -488.838835 
L 587.164977 -488.199051 
L 585.714798 -486.147292 
L 584.264619 -481.134134 
L 582.814439 -471.583658 
L 581.36426 -457.385798 
L 579.914081 -450.32846 
L 578.463901 -434.106058 
L 577.013722 -422.412857 
L 575.563543 -414.898983 
L 574.113363 -412.03165 
L 572.663184 -409.985304 
L 571.213005 -410.011826 
L 569.762826 -412.293596 
L 568.312646 -417.070644 
L 566.862467 -425.127045 
L 565.412288 -432.598955 
L 563.962108 -439.463932 
L 562.511929 -457.192788 
L 561.06175 -462.789126 
L 559.61157 -470.428838 
L 558.161391 -472.877004 
L 556.711212 -470.546764 
L 555.261032 -470.651622 
L 553.810853 -467.150173 
L 552.360674 -466.67921 
L 550.910494 -470.259885 
L 549.460315 -474.56374 
L 548.010136 -478.052791 
L 546.559956 -483.339148 
L 545.109777 -483.251904 
L 543.659598 -485.904883 
L 542.209418 -487.614009 
L 540.759239 -488.515879 
L 539.30906 -488.895058 
L 537.85888 -489.02025 
L 536.408701 -489.052385 
L 534.958522 -489.058768 
L 533.508342 -489.059832 
L 532.058163 -489.059832 
L 530.607984 -489.059832 
L 529.157804 -489.059832 
L 527.707625 -489.059832 
L 526.257446 -489.059832 
L 524.807266 -489.059832 
L 523.357087 -489.059832 
L 521.906908 -489.059832 
L 520.456729 -489.059832 
L 519.006549 -489.059832 
L 517.55637 -489.059832 
L 516.106191 -489.059832 
L 514.656011 -489.059832 
L 513.205832 -489.059832 
L 511.755653 -489.059832 
L 510.305473 -489.059832 
L 508.855294 -489.059832 
L 507.405115 -489.059832 
L 505.954935 -489.059832 
L 504.504756 -489.059832 
L 503.054577 -489.059832 
L 501.604397 -489.059832 
L 500.154218 -489.059832 
L 498.704039 -489.059832 
L 497.253859 -489.059832 
L 495.80368 -489.059832 
L 494.353501 -489.059832 
L 492.903321 -489.059832 
L 491.453142 -489.059832 
L 490.002963 -489.059832 
L 488.552783 -489.059832 
L 487.102604 -489.059832 
L 485.652425 -489.059832 
L 484.202245 -489.059832 
L 482.752066 -489.059832 
L 481.301887 -489.059832 
L 479.851707 -489.059832 
L 478.401528 -489.059832 
L 476.951349 -489.059832 
L 475.501169 -489.059832 
L 474.05099 -489.059832 
L 472.600811 -489.059832 
L 471.150632 -489.059832 
L 469.700452 -489.059832 
L 468.250273 -489.059832 
L 466.800094 -489.059832 
L 465.349914 -489.059832 
L 463.899735 -489.059832 
L 462.449556 -489.059832 
L 460.999376 -489.059832 
L 459.549197 -489.059832 
L 458.099018 -489.059832 
L 456.648838 -489.059832 
L 455.198659 -489.059832 
L 453.74848 -489.059832 
L 452.2983 -489.059832 
L 450.848121 -489.059832 
L 449.397942 -489.059832 
L 447.947762 -489.059832 
L 446.497583 -489.059832 
L 445.047404 -489.059832 
L 443.597224 -489.059832 
L 442.147045 -489.059832 
L 440.696866 -489.059832 
L 439.246686 -489.059832 
L 437.796507 -489.059832 
L 436.346328 -489.059832 
L 434.896148 -489.059832 
L 433.445969 -489.059832 
L 431.99579 -489.059832 
L 430.54561 -489.059832 
L 429.095431 -489.059832 
L 427.645252 -489.059832 
L 426.195073 -489.059832 
L 424.744893 -489.059832 
L 423.294714 -489.059832 
L 421.844535 -489.059832 
L 420.394355 -489.059832 
L 418.944176 -489.057679 
L 417.493997 -489.045792 
L 416.043817 -488.98853 
L 414.593638 -488.775673 
L 413.143459 -488.177153 
L 411.693279 -486.904773 
L 410.2431 -484.884857 
L 408.792921 -482.526956 
L 407.342741 -488.006464 
L 405.892562 -479.502626 
z
" style="stroke: #ff7f0e; stroke-opacity: 0.2"/>
    </defs>
    <g clip-path="url(#pd4f1e8d2bf)">
     <use xlink:href="#m14c40f76dd" x="0" y="720" style="fill: #ff7f0e; fill-opacity: 0.2; stroke: #ff7f0e; stroke-opacity: 0.2"/>
    </g>
   </g>
   <g id="matplotlib.axis_3">
    <g id="xtick_7">
     <g id="line2d_13">
      <g>
       <use xlink:href="#mdf244aff71" x="405.863558" y="333.490909" style="stroke: #000000; stroke-width: 0.8"/>
      </g>
     </g>
     <g id="text_13">
      <!-- 0 -->
      <g transform="translate(402.682308 348.089347)scale(0.1 -0.1)">
       <use xlink:href="#DejaVuSans-30"/>
      </g>
     </g>
    </g>
    <g id="xtick_8">
     <g id="line2d_14">
      <g>
       <use xlink:href="#mdf244aff71" x="463.870731" y="333.490909" style="stroke: #000000; stroke-width: 0.8"/>
      </g>
     </g>
     <g id="text_14">
      <!-- 2000 -->
      <g transform="translate(451.145731 348.089347)scale(0.1 -0.1)">
       <use xlink:href="#DejaVuSans-32"/>
       <use xlink:href="#DejaVuSans-30" x="63.623047"/>
       <use xlink:href="#DejaVuSans-30" x="127.246094"/>
       <use xlink:href="#DejaVuSans-30" x="190.869141"/>
      </g>
     </g>
    </g>
    <g id="xtick_9">
     <g id="line2d_15">
      <g>
       <use xlink:href="#mdf244aff71" x="521.877904" y="333.490909" style="stroke: #000000; stroke-width: 0.8"/>
      </g>
     </g>
     <g id="text_15">
      <!-- 4000 -->
      <g transform="translate(509.152904 348.089347)scale(0.1 -0.1)">
       <use xlink:href="#DejaVuSans-34"/>
       <use xlink:href="#DejaVuSans-30" x="63.623047"/>
       <use xlink:href="#DejaVuSans-30" x="127.246094"/>
       <use xlink:href="#DejaVuSans-30" x="190.869141"/>
      </g>
     </g>
    </g>
    <g id="xtick_10">
     <g id="line2d_16">
      <g>
       <use xlink:href="#mdf244aff71" x="579.885077" y="333.490909" style="stroke: #000000; stroke-width: 0.8"/>
      </g>
     </g>
     <g id="text_16">
      <!-- 6000 -->
      <g transform="translate(567.160077 348.089347)scale(0.1 -0.1)">
       <use xlink:href="#DejaVuSans-36"/>
       <use xlink:href="#DejaVuSans-30" x="63.623047"/>
       <use xlink:href="#DejaVuSans-30" x="127.246094"/>
       <use xlink:href="#DejaVuSans-30" x="190.869141"/>
      </g>
     </g>
    </g>
    <g id="xtick_11">
     <g id="line2d_17">
      <g>
       <use xlink:href="#mdf244aff71" x="637.89225" y="333.490909" style="stroke: #000000; stroke-width: 0.8"/>
      </g>
     </g>
     <g id="text_17">
      <!-- 8000 -->
      <g transform="translate(625.16725 348.089347)scale(0.1 -0.1)">
       <use xlink:href="#DejaVuSans-38"/>
       <use xlink:href="#DejaVuSans-30" x="63.623047"/>
       <use xlink:href="#DejaVuSans-30" x="127.246094"/>
       <use xlink:href="#DejaVuSans-30" x="190.869141"/>
      </g>
     </g>
    </g>
   </g>
   <g id="matplotlib.axis_4">
    <g id="ytick_7">
     <g id="line2d_18">
      <g>
       <use xlink:href="#m7f4677b327" x="394.363636" y="308.414954" style="stroke: #000000; stroke-width: 0.8"/>
      </g>
     </g>
     <g id="text_18">
      <!-- −1.0 -->
      <g transform="translate(363.080824 312.214173)scale(0.1 -0.1)">
       <defs>
        <path id="DejaVuSans-2212" d="M 678 2272 
L 4684 2272 
L 4684 1741 
L 678 1741 
L 678 2272 
z
" transform="scale(0.015625)"/>
       </defs>
       <use xlink:href="#DejaVuSans-2212"/>
       <use xlink:href="#DejaVuSans-31" x="83.789062"/>
       <use xlink:href="#DejaVuSans-2e" x="147.412109"/>
       <use xlink:href="#DejaVuSans-30" x="179.199219"/>
      </g>
     </g>
    </g>
    <g id="ytick_8">
     <g id="line2d_19">
      <g>
       <use xlink:href="#m7f4677b327" x="394.363636" y="269.677561" style="stroke: #000000; stroke-width: 0.8"/>
      </g>
     </g>
     <g id="text_19">
      <!-- −0.5 -->
      <g transform="translate(363.080824 273.47678)scale(0.1 -0.1)">
       <defs>
        <path id="DejaVuSans-35" d="M 691 4666 
L 3169 4666 
L 3169 4134 
L 1269 4134 
L 1269 2991 
Q 1406 3038 1543 3061 
Q 1681 3084 1819 3084 
Q 2600 3084 3056 2656 
Q 3513 2228 3513 1497 
Q 3513 744 3044 326 
Q 2575 -91 1722 -91 
Q 1428 -91 1123 -41 
Q 819 9 494 109 
L 494 744 
Q 775 591 1075 516 
Q 1375 441 1709 441 
Q 2250 441 2565 725 
Q 2881 1009 2881 1497 
Q 2881 1984 2565 2268 
Q 2250 2553 1709 2553 
Q 1456 2553 1204 2497 
Q 953 2441 691 2322 
L 691 4666 
z
" transform="scale(0.015625)"/>
       </defs>
       <use xlink:href="#DejaVuSans-2212"/>
       <use xlink:href="#DejaVuSans-30" x="83.789062"/>
       <use xlink:href="#DejaVuSans-2e" x="147.412109"/>
       <use xlink:href="#DejaVuSans-35" x="179.199219"/>
      </g>
     </g>
    </g>
    <g id="ytick_9">
     <g id="line2d_20">
      <g>
       <use xlink:href="#m7f4677b327" x="394.363636" y="230.940168" style="stroke: #000000; stroke-width: 0.8"/>
      </g>
     </g>
     <g id="text_20">
      <!-- 0.0 -->
      <g transform="translate(371.460511 234.739387)scale(0.1 -0.1)">
       <use xlink:href="#DejaVuSans-30"/>
       <use xlink:href="#DejaVuSans-2e" x="63.623047"/>
       <use xlink:href="#DejaVuSans-30" x="95.410156"/>
      </g>
     </g>
    </g>
    <g id="ytick_10">
     <g id="line2d_21">
      <g>
       <use xlink:href="#m7f4677b327" x="394.363636" y="192.202775" style="stroke: #000000; stroke-width: 0.8"/>
      </g>
     </g>
     <g id="text_21">
      <!-- 0.5 -->
      <g transform="translate(371.460511 196.001994)scale(0.1 -0.1)">
       <use xlink:href="#DejaVuSans-30"/>
       <use xlink:href="#DejaVuSans-2e" x="63.623047"/>
       <use xlink:href="#DejaVuSans-35" x="95.410156"/>
      </g>
     </g>
    </g>
    <g id="ytick_11">
     <g id="line2d_22">
      <g>
       <use xlink:href="#m7f4677b327" x="394.363636" y="153.465382" style="stroke: #000000; stroke-width: 0.8"/>
      </g>
     </g>
     <g id="text_22">
      <!-- 1.0 -->
      <g transform="translate(371.460511 157.264601)scale(0.1 -0.1)">
       <use xlink:href="#DejaVuSans-31"/>
       <use xlink:href="#DejaVuSans-2e" x="63.623047"/>
       <use xlink:href="#DejaVuSans-30" x="95.410156"/>
      </g>
     </g>
    </g>
    <g id="ytick_12">
     <g id="line2d_23">
      <g>
       <use xlink:href="#m7f4677b327" x="394.363636" y="114.727989" style="stroke: #000000; stroke-width: 0.8"/>
      </g>
     </g>
     <g id="text_23">
      <!-- 1.5 -->
      <g transform="translate(371.460511 118.527208)scale(0.1 -0.1)">
       <use xlink:href="#DejaVuSans-31"/>
       <use xlink:href="#DejaVuSans-2e" x="63.623047"/>
       <use xlink:href="#DejaVuSans-35" x="95.410156"/>
      </g>
     </g>
    </g>
   </g>
   <g id="line2d_24">
    <path d="M 405.892562 230.940168 
L 427.645252 230.899483 
L 429.095431 230.721459 
L 430.54561 230.020481 
L 431.99579 227.875929 
L 433.445969 222.786465 
L 434.896148 213.439621 
L 436.346328 200.208687 
L 437.796507 185.869317 
L 439.246686 174.102374 
L 440.696866 166.907902 
L 442.147045 163.607908 
L 443.597224 162.055255 
L 445.047404 160.231297 
L 446.497583 157.037797 
L 449.397942 148.267932 
L 450.848121 145.980214 
L 452.2983 146.501581 
L 453.74848 148.241931 
L 455.198659 148.290913 
L 456.648838 145.288384 
L 458.099018 140.816847 
L 459.549197 137.564738 
L 460.999376 136.79554 
L 462.449556 137.941577 
L 463.899735 139.740355 
L 465.349914 141.113595 
L 466.800094 141.482674 
L 468.250273 140.937518 
L 469.700452 140.235879 
L 471.150632 140.449914 
L 472.600811 142.519423 
L 474.05099 146.81736 
L 475.501169 152.581358 
L 476.951349 157.549299 
L 478.401528 158.879337 
L 479.851707 155.274588 
L 481.301887 148.041512 
L 482.752066 139.720048 
L 484.202245 132.107392 
L 485.652425 125.766555 
L 487.102604 120.661145 
L 488.552783 116.664018 
L 490.002963 113.644189 
L 491.453142 111.454061 
L 492.903321 110.148137 
L 494.353501 110.42934 
L 495.80368 113.965386 
L 497.253859 123.017255 
L 498.704039 139.102761 
L 500.154218 161.193572 
L 501.604397 185.124557 
L 503.054577 205.595769 
L 504.504756 219.378875 
L 505.954935 226.659142 
L 507.405115 229.668418 
L 508.855294 230.640015 
L 510.305473 230.884858 
L 514.656011 230.940168 
L 521.906908 230.851529 
L 523.357087 230.589592 
L 524.807266 229.860317 
L 526.257446 228.349739 
L 529.157804 223.888613 
L 530.607984 222.906154 
L 532.058163 223.663489 
L 533.508342 225.300955 
L 534.958522 226.174623 
L 536.408701 225.086748 
L 537.85888 222.048882 
L 539.30906 218.23018 
L 540.759239 215.283995 
L 542.209418 214.454356 
L 543.659598 216.022401 
L 545.109777 219.34358 
L 546.559956 223.268892 
L 548.010136 226.687975 
L 549.460315 228.997876 
L 550.910494 230.219706 
L 552.360674 230.725765 
L 553.810853 230.88953 
L 558.161391 230.940168 
L 636.471074 230.940168 
L 636.471074 230.940168 
" clip-path="url(#pd4f1e8d2bf)" style="fill: none; stroke: #9467bd; stroke-width: 2; stroke-linecap: square"/>
   </g>
   <g id="line2d_25">
    <path d="M 405.892562 259.93763 
L 407.342741 260.694072 
L 410.2431 263.649523 
L 411.693279 264.596565 
L 413.143459 264.439821 
L 414.593638 263.019382 
L 416.043817 260.278575 
L 417.493997 256.236465 
L 420.394355 246.910463 
L 421.844535 244.057411 
L 423.294714 242.824699 
L 424.744893 241.833518 
L 426.195073 239.804812 
L 429.095431 234.075067 
L 430.54561 232.242093 
L 431.99579 231.362055 
L 433.445969 231.046838 
L 436.346328 230.943389 
L 445.047404 230.967474 
L 446.497583 231.078838 
L 447.947762 231.488618 
L 449.397942 232.629512 
L 450.848121 234.992694 
L 453.74848 241.956074 
L 455.198659 243.422825 
L 456.648838 241.956074 
L 459.549197 234.992694 
L 460.999376 232.629512 
L 462.449556 231.488618 
L 463.899735 231.078838 
L 466.800094 230.944356 
L 505.954935 230.940168 
L 555.261032 231.047235 
L 556.711212 231.363626 
L 558.161391 232.244509 
L 559.61157 234.069119 
L 562.511929 239.445539 
L 563.962108 240.578016 
L 565.412288 239.445539 
L 568.312646 234.069119 
L 569.762826 232.244509 
L 571.213005 231.365502 
L 572.663184 231.062572 
L 574.113363 231.045203 
L 575.563543 231.302254 
L 577.013722 232.157315 
L 578.463901 234.22645 
L 579.914081 238.036764 
L 582.814439 248.512337 
L 584.264619 251.994361 
L 585.714798 253.437774 
L 587.164977 254.234539 
L 588.615157 255.71091 
L 590.065336 257.479654 
L 591.515515 257.950372 
L 592.965695 256.057267 
L 594.415874 252.002288 
L 597.316233 241.322693 
L 598.766412 236.770723 
L 600.216591 233.66137 
L 601.666771 231.973069 
L 603.11695 231.254115 
L 604.567129 231.015689 
L 608.917667 230.940168 
L 636.471074 230.940168 
L 636.471074 230.940168 
" clip-path="url(#pd4f1e8d2bf)" style="fill: none; stroke: #1f77b4; stroke-width: 2; stroke-linecap: square"/>
   </g>
   <g id="line2d_26">
    <path d="M 405.892562 230.940168 
L 410.2431 230.972772 
L 411.693279 231.115835 
L 413.143459 231.675076 
L 414.593638 233.379392 
L 416.043817 237.391147 
L 417.493997 244.644711 
L 420.394355 264.749656 
L 421.844535 272.225569 
L 423.294714 276.286882 
L 424.744893 278.769553 
L 426.195073 281.767249 
L 427.645252 285.491041 
L 429.095431 288.67039 
L 430.54561 290.156585 
L 431.99579 289.33944 
L 433.445969 285.509371 
L 434.896148 277.921766 
L 436.346328 266.936974 
L 437.796507 254.698366 
L 439.246686 244.096328 
L 440.696866 236.933042 
L 442.147045 233.153248 
L 443.597224 231.59565 
L 445.047404 231.094416 
L 447.947762 230.943884 
L 468.250273 230.974669 
L 469.700452 231.115377 
L 471.150632 231.633131 
L 472.600811 233.074643 
L 474.05099 236.060507 
L 476.951349 244.858692 
L 478.401528 246.711922 
L 479.851707 244.858692 
L 482.752066 236.060507 
L 484.202245 233.074643 
L 485.652425 231.633131 
L 487.102604 231.115377 
L 488.552783 230.974669 
L 491.453142 230.985484 
L 492.903321 231.182998 
L 494.353501 231.957663 
L 495.80368 234.317075 
L 497.253859 239.899657 
L 498.704039 250.153946 
L 500.154218 264.758069 
L 501.604397 280.821646 
L 503.054577 294.279366 
L 504.504756 302.44155 
L 505.954935 305.310918 
L 507.405115 304.958922 
L 508.855294 304.045206 
L 510.305473 304.460652 
L 511.755653 306.580546 
L 513.205832 309.45804 
L 514.656011 311.765072 
L 516.106191 312.663631 
L 517.55637 311.989383 
L 519.006549 309.961072 
L 520.456729 306.968215 
L 523.357087 300.225939 
L 526.257446 294.169342 
L 527.707625 290.328573 
L 529.157804 285.96487 
L 530.607984 282.677112 
L 532.058163 281.932161 
L 533.508342 283.058792 
L 534.958522 283.163367 
L 536.408701 279.164689 
L 537.85888 270.121665 
L 540.759239 246.533623 
L 542.209418 238.264754 
L 543.659598 233.713373 
L 545.109777 231.769312 
L 546.559956 231.074371 
L 548.010136 230.615042 
L 549.460315 229.395555 
L 550.910494 225.680473 
L 552.360674 216.610502 
L 553.810853 199.331058 
L 555.261032 173.946781 
L 556.711212 146.169717 
L 558.161391 126.218516 
L 559.61157 123.20937 
L 561.06175 138.869092 
L 563.962108 193.471257 
L 565.412288 213.421917 
L 566.862467 224.359161 
L 568.312646 228.967767 
L 569.762826 230.467989 
L 571.213005 230.825823 
L 572.663184 230.788708 
L 574.113363 230.386548 
L 575.563543 229.230747 
L 577.013722 226.822374 
L 579.914081 219.276877 
L 581.36426 216.665649 
L 582.814439 215.80427 
L 584.264619 215.794549 
L 585.714798 215.928644 
L 587.164977 216.839488 
L 588.615157 219.343364 
L 590.065336 222.797922 
L 591.515515 225.358996 
L 592.965695 225.573553 
L 594.415874 223.50615 
L 595.866053 220.777134 
L 597.316233 219.552604 
L 598.766412 220.910409 
L 601.666771 227.251953 
L 603.11695 229.402691 
L 604.567129 230.441023 
L 606.017309 230.813964 
L 608.917667 230.936357 
L 623.41946 230.903033 
L 624.86964 230.751578 
L 626.319819 230.194281 
L 627.769998 228.642672 
L 629.220178 225.423067 
L 632.120536 215.770024 
L 633.570716 213.217955 
L 635.020895 213.661118 
L 636.471074 215.1321 
L 636.471074 215.1321 
" clip-path="url(#pd4f1e8d2bf)" style="fill: none; stroke: #d62728; stroke-width: 2; stroke-linecap: square"/>
   </g>
   <g id="line2d_27">
    <path d="M 405.892562 240.497374 
L 407.342741 239.442346 
L 408.792921 237.473044 
L 410.2431 235.115143 
L 411.693279 233.095227 
L 413.143459 231.822847 
L 414.593638 231.224327 
L 416.043817 231.01147 
L 420.394355 230.940168 
L 537.85888 230.97975 
L 539.30906 231.104942 
L 540.759239 231.484121 
L 542.209418 232.385991 
L 543.659598 234.095117 
L 545.109777 236.748096 
L 546.559956 240.281713 
L 548.010136 244.528118 
L 550.910494 253.648005 
L 552.360674 256.61592 
L 553.810853 256.755422 
L 555.261032 253.774739 
L 556.711212 249.453236 
L 558.161391 247.122996 
L 559.61157 249.571162 
L 561.06175 257.210874 
L 562.511929 268.286674 
L 565.412288 292.271171 
L 566.862467 302.285024 
L 568.312646 309.698156 
L 569.762826 314.203635 
L 571.213005 316.123839 
L 572.663184 316.075062 
L 574.113363 314.495193 
L 575.563543 311.127221 
L 577.013722 304.768666 
L 578.463901 294.029633 
L 579.914081 279.084533 
L 581.36426 262.614202 
L 582.814439 248.416342 
L 584.264619 238.865866 
L 585.714798 233.852708 
L 587.164977 231.800949 
L 588.615157 231.161165 
L 590.065336 231.086815 
L 591.515515 231.414965 
L 592.965695 232.542142 
L 594.415874 235.334935 
L 595.866053 240.760619 
L 597.316233 249.076186 
L 600.216591 268.518043 
L 601.666771 275.024942 
L 603.11695 277.742995 
L 604.567129 277.536485 
L 606.017309 276.3157 
L 607.467488 275.786943 
L 608.917667 276.493135 
L 610.367847 277.77813 
L 611.818026 278.638091 
L 613.268205 278.715158 
L 614.718385 278.601906 
L 616.168564 279.260322 
L 617.618743 281.145232 
L 620.519102 286.458298 
L 621.969281 288.218665 
L 623.41946 288.962178 
L 626.319819 289.406992 
L 627.769998 289.925192 
L 629.220178 290.047787 
L 630.670357 289.067048 
L 632.120536 287.414524 
L 633.570716 286.563926 
L 635.020895 287.26884 
L 636.471074 288.430342 
L 636.471074 288.430342 
" clip-path="url(#pd4f1e8d2bf)" style="fill: none; stroke: #ff7f0e; stroke-width: 2; stroke-linecap: square"/>
   </g>
   <g id="LineCollection_1">
    <path d="M 521.877904 310.912051 
L 521.877904 115.163675 
" clip-path="url(#pd4f1e8d2bf)" style="fill: none; stroke-dasharray: 7.4,3.2; stroke-dashoffset: 0; stroke: #000000; stroke-width: 2"/>
    <path d="M 536.379697 310.912051 
L 536.379697 115.163675 
" clip-path="url(#pd4f1e8d2bf)" style="fill: none; stroke-dasharray: 7.4,3.2; stroke-dashoffset: 0; stroke: #000000; stroke-width: 2"/>
    <path d="M 565.383284 310.912051 
L 565.383284 115.163675 
" clip-path="url(#pd4f1e8d2bf)" style="fill: none; stroke-dasharray: 7.4,3.2; stroke-dashoffset: 0; stroke: #000000; stroke-width: 2"/>
    <path d="M 623.390457 310.912051 
L 623.390457 115.163675 
" clip-path="url(#pd4f1e8d2bf)" style="fill: none; stroke-dasharray: 7.4,3.2; stroke-dashoffset: 0; stroke: #000000; stroke-width: 2"/>
   </g>
   <g id="patch_8">
    <path d="M 394.363636 333.490909 
L 394.363636 86.4 
" style="fill: none; stroke: #000000; stroke-width: 0.8; stroke-linejoin: miter; stroke-linecap: square"/>
   </g>
   <g id="patch_9">
    <path d="M 648 333.490909 
L 648 86.4 
" style="fill: none; stroke: #000000; stroke-width: 0.8; stroke-linejoin: miter; stroke-linecap: square"/>
   </g>
   <g id="patch_10">
    <path d="M 394.363636 333.490909 
L 648 333.490909 
" style="fill: none; stroke: #000000; stroke-width: 0.8; stroke-linejoin: miter; stroke-linecap: square"/>
   </g>
   <g id="patch_11">
    <path d="M 394.363636 86.4 
L 648 86.4 
" style="fill: none; stroke: #000000; stroke-width: 0.8; stroke-linejoin: miter; stroke-linecap: square"/>
   </g>
   <g id="text_24">
    <!-- unit_89 -->
    <g transform="translate(498.922756 80.4)scale(0.12 -0.12)">
     <defs>
      <path id="DejaVuSans-75" d="M 544 1381 
L 544 3500 
L 1119 3500 
L 1119 1403 
Q 1119 906 1312 657 
Q 1506 409 1894 409 
Q 2359 409 2629 706 
Q 2900 1003 2900 1516 
L 2900 3500 
L 3475 3500 
L 3475 0 
L 2900 0 
L 2900 538 
Q 2691 219 2414 64 
Q 2138 -91 1772 -91 
Q 1169 -91 856 284 
Q 544 659 544 1381 
z
M 1991 3584 
L 1991 3584 
z
" transform="scale(0.015625)"/>
      <path id="DejaVuSans-6e" d="M 3513 2113 
L 3513 0 
L 2938 0 
L 2938 2094 
Q 2938 2591 2744 2837 
Q 2550 3084 2163 3084 
Q 1697 3084 1428 2787 
Q 1159 2491 1159 1978 
L 1159 0 
L 581 0 
L 581 3500 
L 1159 3500 
L 1159 2956 
Q 1366 3272 1645 3428 
Q 1925 3584 2291 3584 
Q 2894 3584 3203 3211 
Q 3513 2838 3513 2113 
z
" transform="scale(0.015625)"/>
      <path id="DejaVuSans-69" d="M 603 3500 
L 1178 3500 
L 1178 0 
L 603 0 
L 603 3500 
z
M 603 4863 
L 1178 4863 
L 1178 4134 
L 603 4134 
L 603 4863 
z
" transform="scale(0.015625)"/>
      <path id="DejaVuSans-74" d="M 1172 4494 
L 1172 3500 
L 2356 3500 
L 2356 3053 
L 1172 3053 
L 1172 1153 
Q 1172 725 1289 603 
Q 1406 481 1766 481 
L 2356 481 
L 2356 0 
L 1766 0 
Q 1100 0 847 248 
Q 594 497 594 1153 
L 594 3053 
L 172 3053 
L 172 3500 
L 594 3500 
L 594 4494 
L 1172 4494 
z
" transform="scale(0.015625)"/>
      <path id="DejaVuSans-5f" d="M 3263 -1063 
L 3263 -1509 
L -63 -1509 
L -63 -1063 
L 3263 -1063 
z
" transform="scale(0.015625)"/>
      <path id="DejaVuSans-39" d="M 703 97 
L 703 672 
Q 941 559 1184 500 
Q 1428 441 1663 441 
Q 2288 441 2617 861 
Q 2947 1281 2994 2138 
Q 2813 1869 2534 1725 
Q 2256 1581 1919 1581 
Q 1219 1581 811 2004 
Q 403 2428 403 3163 
Q 403 3881 828 4315 
Q 1253 4750 1959 4750 
Q 2769 4750 3195 4129 
Q 3622 3509 3622 2328 
Q 3622 1225 3098 567 
Q 2575 -91 1691 -91 
Q 1453 -91 1209 -44 
Q 966 3 703 97 
z
M 1959 2075 
Q 2384 2075 2632 2365 
Q 2881 2656 2881 3163 
Q 2881 3666 2632 3958 
Q 2384 4250 1959 4250 
Q 1534 4250 1286 3958 
Q 1038 3666 1038 3163 
Q 1038 2656 1286 2365 
Q 1534 2075 1959 2075 
z
" transform="scale(0.015625)"/>
     </defs>
     <use xlink:href="#DejaVuSans-75"/>
     <use xlink:href="#DejaVuSans-6e" x="63.378906"/>
     <use xlink:href="#DejaVuSans-69" x="126.757812"/>
     <use xlink:href="#DejaVuSans-74" x="154.541016"/>
     <use xlink:href="#DejaVuSans-5f" x="193.75"/>
     <use xlink:href="#DejaVuSans-38" x="243.75"/>
     <use xlink:href="#DejaVuSans-39" x="307.373047"/>
    </g>
   </g>
  </g>
  <g id="axes_3">
   <g id="patch_12">
    <path d="M 90 630 
L 343.636364 630 
L 343.636364 382.909091 
L 90 382.909091 
z
" style="fill: #ffffff"/>
   </g>
   <g id="matplotlib.axis_5">
    <g id="xtick_12">
     <g id="line2d_28">
      <g>
       <use xlink:href="#mdf244aff71" x="90" y="630" style="stroke: #000000; stroke-width: 0.8"/>
      </g>
     </g>
     <g id="text_25">
      <!-- 0.0 -->
      <g transform="translate(82.048438 644.598437)scale(0.1 -0.1)">
       <use xlink:href="#DejaVuSans-30"/>
       <use xlink:href="#DejaVuSans-2e" x="63.623047"/>
       <use xlink:href="#DejaVuSans-30" x="95.410156"/>
      </g>
     </g>
    </g>
    <g id="xtick_13">
     <g id="line2d_29">
      <g>
       <use xlink:href="#mdf244aff71" x="140.727273" y="630" style="stroke: #000000; stroke-width: 0.8"/>
      </g>
     </g>
     <g id="text_26">
      <!-- 0.2 -->
      <g transform="translate(132.77571 644.598437)scale(0.1 -0.1)">
       <use xlink:href="#DejaVuSans-30"/>
       <use xlink:href="#DejaVuSans-2e" x="63.623047"/>
       <use xlink:href="#DejaVuSans-32" x="95.410156"/>
      </g>
     </g>
    </g>
    <g id="xtick_14">
     <g id="line2d_30">
      <g>
       <use xlink:href="#mdf244aff71" x="191.454545" y="630" style="stroke: #000000; stroke-width: 0.8"/>
      </g>
     </g>
     <g id="text_27">
      <!-- 0.4 -->
      <g transform="translate(183.502983 644.598437)scale(0.1 -0.1)">
       <use xlink:href="#DejaVuSans-30"/>
       <use xlink:href="#DejaVuSans-2e" x="63.623047"/>
       <use xlink:href="#DejaVuSans-34" x="95.410156"/>
      </g>
     </g>
    </g>
    <g id="xtick_15">
     <g id="line2d_31">
      <g>
       <use xlink:href="#mdf244aff71" x="242.181818" y="630" style="stroke: #000000; stroke-width: 0.8"/>
      </g>
     </g>
     <g id="text_28">
      <!-- 0.6 -->
      <g transform="translate(234.230256 644.598437)scale(0.1 -0.1)">
       <use xlink:href="#DejaVuSans-30"/>
       <use xlink:href="#DejaVuSans-2e" x="63.623047"/>
       <use xlink:href="#DejaVuSans-36" x="95.410156"/>
      </g>
     </g>
    </g>
    <g id="xtick_16">
     <g id="line2d_32">
      <g>
       <use xlink:href="#mdf244aff71" x="292.909091" y="630" style="stroke: #000000; stroke-width: 0.8"/>
      </g>
     </g>
     <g id="text_29">
      <!-- 0.8 -->
      <g transform="translate(284.957528 644.598437)scale(0.1 -0.1)">
       <use xlink:href="#DejaVuSans-30"/>
       <use xlink:href="#DejaVuSans-2e" x="63.623047"/>
       <use xlink:href="#DejaVuSans-38" x="95.410156"/>
      </g>
     </g>
    </g>
    <g id="xtick_17">
     <g id="line2d_33">
      <g>
       <use xlink:href="#mdf244aff71" x="343.636364" y="630" style="stroke: #000000; stroke-width: 0.8"/>
      </g>
     </g>
     <g id="text_30">
      <!-- 1.0 -->
      <g transform="translate(335.684801 644.598437)scale(0.1 -0.1)">
       <use xlink:href="#DejaVuSans-31"/>
       <use xlink:href="#DejaVuSans-2e" x="63.623047"/>
       <use xlink:href="#DejaVuSans-30" x="95.410156"/>
      </g>
     </g>
    </g>
   </g>
   <g id="matplotlib.axis_6">
    <g id="ytick_13">
     <g id="line2d_34">
      <g>
       <use xlink:href="#m7f4677b327" x="90" y="630" style="stroke: #000000; stroke-width: 0.8"/>
      </g>
     </g>
     <g id="text_31">
      <!-- 0.0 -->
      <g transform="translate(67.096875 633.799219)scale(0.1 -0.1)">
       <use xlink:href="#DejaVuSans-30"/>
       <use xlink:href="#DejaVuSans-2e" x="63.623047"/>
       <use xlink:href="#DejaVuSans-30" x="95.410156"/>
      </g>
     </g>
    </g>
    <g id="ytick_14">
     <g id="line2d_35">
      <g>
       <use xlink:href="#m7f4677b327" x="90" y="580.581818" style="stroke: #000000; stroke-width: 0.8"/>
      </g>
     </g>
     <g id="text_32">
      <!-- 0.2 -->
      <g transform="translate(67.096875 584.381037)scale(0.1 -0.1)">
       <use xlink:href="#DejaVuSans-30"/>
       <use xlink:href="#DejaVuSans-2e" x="63.623047"/>
       <use xlink:href="#DejaVuSans-32" x="95.410156"/>
      </g>
     </g>
    </g>
    <g id="ytick_15">
     <g id="line2d_36">
      <g>
       <use xlink:href="#m7f4677b327" x="90" y="531.163636" style="stroke: #000000; stroke-width: 0.8"/>
      </g>
     </g>
     <g id="text_33">
      <!-- 0.4 -->
      <g transform="translate(67.096875 534.962855)scale(0.1 -0.1)">
       <use xlink:href="#DejaVuSans-30"/>
       <use xlink:href="#DejaVuSans-2e" x="63.623047"/>
       <use xlink:href="#DejaVuSans-34" x="95.410156"/>
      </g>
     </g>
    </g>
    <g id="ytick_16">
     <g id="line2d_37">
      <g>
       <use xlink:href="#m7f4677b327" x="90" y="481.745455" style="stroke: #000000; stroke-width: 0.8"/>
      </g>
     </g>
     <g id="text_34">
      <!-- 0.6 -->
      <g transform="translate(67.096875 485.544673)scale(0.1 -0.1)">
       <use xlink:href="#DejaVuSans-30"/>
       <use xlink:href="#DejaVuSans-2e" x="63.623047"/>
       <use xlink:href="#DejaVuSans-36" x="95.410156"/>
      </g>
     </g>
    </g>
    <g id="ytick_17">
     <g id="line2d_38">
      <g>
       <use xlink:href="#m7f4677b327" x="90" y="432.327273" style="stroke: #000000; stroke-width: 0.8"/>
      </g>
     </g>
     <g id="text_35">
      <!-- 0.8 -->
      <g transform="translate(67.096875 436.126491)scale(0.1 -0.1)">
       <use xlink:href="#DejaVuSans-30"/>
       <use xlink:href="#DejaVuSans-2e" x="63.623047"/>
       <use xlink:href="#DejaVuSans-38" x="95.410156"/>
      </g>
     </g>
    </g>
    <g id="ytick_18">
     <g id="line2d_39">
      <g>
       <use xlink:href="#m7f4677b327" x="90" y="382.909091" style="stroke: #000000; stroke-width: 0.8"/>
      </g>
     </g>
     <g id="text_36">
      <!-- 1.0 -->
      <g transform="translate(67.096875 386.70831)scale(0.1 -0.1)">
       <use xlink:href="#DejaVuSans-31"/>
       <use xlink:href="#DejaVuSans-2e" x="63.623047"/>
       <use xlink:href="#DejaVuSans-30" x="95.410156"/>
      </g>
     </g>
    </g>
   </g>
   <g id="patch_13">
    <path d="M 90 630 
L 90 382.909091 
" style="fill: none; stroke: #000000; stroke-width: 0.8; stroke-linejoin: miter; stroke-linecap: square"/>
   </g>
   <g id="patch_14">
    <path d="M 343.636364 630 
L 343.636364 382.909091 
" style="fill: none; stroke: #000000; stroke-width: 0.8; stroke-linejoin: miter; stroke-linecap: square"/>
   </g>
   <g id="patch_15">
    <path d="M 90 630 
L 343.636364 630 
" style="fill: none; stroke: #000000; stroke-width: 0.8; stroke-linejoin: miter; stroke-linecap: square"/>
   </g>
   <g id="patch_16">
    <path d="M 90 382.909091 
L 343.636364 382.909091 
" style="fill: none; stroke: #000000; stroke-width: 0.8; stroke-linejoin: miter; stroke-linecap: square"/>
   </g>
  </g>
  <g id="axes_4">
   <g id="patch_17">
    <path d="M 394.363636 630 
L 648 630 
L 648 382.909091 
L 394.363636 382.909091 
z
" style="fill: #ffffff"/>
   </g>
   <g id="matplotlib.axis_7">
    <g id="xtick_18">
     <g id="line2d_40">
      <g>
       <use xlink:href="#mdf244aff71" x="405.863558" y="630" style="stroke: #000000; stroke-width: 0.8"/>
      </g>
     </g>
     <g id="text_37">
      <!-- 0 -->
      <g transform="translate(402.682308 644.598437)scale(0.1 -0.1)">
       <use xlink:href="#DejaVuSans-30"/>
      </g>
     </g>
    </g>
    <g id="xtick_19">
     <g id="line2d_41">
      <g>
       <use xlink:href="#mdf244aff71" x="463.870731" y="630" style="stroke: #000000; stroke-width: 0.8"/>
      </g>
     </g>
     <g id="text_38">
      <!-- 2000 -->
      <g transform="translate(451.145731 644.598437)scale(0.1 -0.1)">
       <use xlink:href="#DejaVuSans-32"/>
       <use xlink:href="#DejaVuSans-30" x="63.623047"/>
       <use xlink:href="#DejaVuSans-30" x="127.246094"/>
       <use xlink:href="#DejaVuSans-30" x="190.869141"/>
      </g>
     </g>
    </g>
    <g id="xtick_20">
     <g id="line2d_42">
      <g>
       <use xlink:href="#mdf244aff71" x="521.877904" y="630" style="stroke: #000000; stroke-width: 0.8"/>
      </g>
     </g>
     <g id="text_39">
      <!-- 4000 -->
      <g transform="translate(509.152904 644.598437)scale(0.1 -0.1)">
       <use xlink:href="#DejaVuSans-34"/>
       <use xlink:href="#DejaVuSans-30" x="63.623047"/>
       <use xlink:href="#DejaVuSans-30" x="127.246094"/>
       <use xlink:href="#DejaVuSans-30" x="190.869141"/>
      </g>
     </g>
    </g>
    <g id="xtick_21">
     <g id="line2d_43">
      <g>
       <use xlink:href="#mdf244aff71" x="579.885077" y="630" style="stroke: #000000; stroke-width: 0.8"/>
      </g>
     </g>
     <g id="text_40">
      <!-- 6000 -->
      <g transform="translate(567.160077 644.598437)scale(0.1 -0.1)">
       <use xlink:href="#DejaVuSans-36"/>
       <use xlink:href="#DejaVuSans-30" x="63.623047"/>
       <use xlink:href="#DejaVuSans-30" x="127.246094"/>
       <use xlink:href="#DejaVuSans-30" x="190.869141"/>
      </g>
     </g>
    </g>
    <g id="xtick_22">
     <g id="line2d_44">
      <g>
       <use xlink:href="#mdf244aff71" x="637.89225" y="630" style="stroke: #000000; stroke-width: 0.8"/>
      </g>
     </g>
     <g id="text_41">
      <!-- 8000 -->
      <g transform="translate(625.16725 644.598437)scale(0.1 -0.1)">
       <use xlink:href="#DejaVuSans-38"/>
       <use xlink:href="#DejaVuSans-30" x="63.623047"/>
       <use xlink:href="#DejaVuSans-30" x="127.246094"/>
       <use xlink:href="#DejaVuSans-30" x="190.869141"/>
      </g>
     </g>
    </g>
   </g>
   <g id="matplotlib.axis_8">
    <g id="ytick_19">
     <g id="line2d_45">
      <g>
       <use xlink:href="#m7f4677b327" x="394.363636" y="630" style="stroke: #000000; stroke-width: 0.8"/>
      </g>
     </g>
     <g id="text_42">
      <!-- −2 -->
      <g transform="translate(372.621449 633.799219)scale(0.1 -0.1)">
       <use xlink:href="#DejaVuSans-2212"/>
       <use xlink:href="#DejaVuSans-32" x="83.789062"/>
      </g>
     </g>
    </g>
    <g id="ytick_20">
     <g id="line2d_46">
      <g>
       <use xlink:href="#m7f4677b327" x="394.363636" y="599.860737" style="stroke: #000000; stroke-width: 0.8"/>
      </g>
     </g>
     <g id="text_43">
      <!-- −1 -->
      <g transform="translate(372.621449 603.659956)scale(0.1 -0.1)">
       <use xlink:href="#DejaVuSans-2212"/>
       <use xlink:href="#DejaVuSans-31" x="83.789062"/>
      </g>
     </g>
    </g>
    <g id="ytick_21">
     <g id="line2d_47">
      <g>
       <use xlink:href="#m7f4677b327" x="394.363636" y="569.721475" style="stroke: #000000; stroke-width: 0.8"/>
      </g>
     </g>
     <g id="text_44">
      <!-- 0 -->
      <g transform="translate(381.001136 573.520694)scale(0.1 -0.1)">
       <use xlink:href="#DejaVuSans-30"/>
      </g>
     </g>
    </g>
    <g id="ytick_22">
     <g id="line2d_48">
      <g>
       <use xlink:href="#m7f4677b327" x="394.363636" y="539.582212" style="stroke: #000000; stroke-width: 0.8"/>
      </g>
     </g>
     <g id="text_45">
      <!-- 1 -->
      <g transform="translate(381.001136 543.381431)scale(0.1 -0.1)">
       <use xlink:href="#DejaVuSans-31"/>
      </g>
     </g>
    </g>
    <g id="ytick_23">
     <g id="line2d_49">
      <g>
       <use xlink:href="#m7f4677b327" x="394.363636" y="509.44295" style="stroke: #000000; stroke-width: 0.8"/>
      </g>
     </g>
     <g id="text_46">
      <!-- 2 -->
      <g transform="translate(381.001136 513.242169)scale(0.1 -0.1)">
       <use xlink:href="#DejaVuSans-32"/>
      </g>
     </g>
    </g>
    <g id="ytick_24">
     <g id="line2d_50">
      <g>
       <use xlink:href="#m7f4677b327" x="394.363636" y="479.303687" style="stroke: #000000; stroke-width: 0.8"/>
      </g>
     </g>
     <g id="text_47">
      <!-- 3 -->
      <g transform="translate(381.001136 483.102906)scale(0.1 -0.1)">
       <defs>
        <path id="DejaVuSans-33" d="M 2597 2516 
Q 3050 2419 3304 2112 
Q 3559 1806 3559 1356 
Q 3559 666 3084 287 
Q 2609 -91 1734 -91 
Q 1441 -91 1130 -33 
Q 819 25 488 141 
L 488 750 
Q 750 597 1062 519 
Q 1375 441 1716 441 
Q 2309 441 2620 675 
Q 2931 909 2931 1356 
Q 2931 1769 2642 2001 
Q 2353 2234 1838 2234 
L 1294 2234 
L 1294 2753 
L 1863 2753 
Q 2328 2753 2575 2939 
Q 2822 3125 2822 3475 
Q 2822 3834 2567 4026 
Q 2313 4219 1838 4219 
Q 1578 4219 1281 4162 
Q 984 4106 628 3988 
L 628 4550 
Q 988 4650 1302 4700 
Q 1616 4750 1894 4750 
Q 2613 4750 3031 4423 
Q 3450 4097 3450 3541 
Q 3450 3153 3228 2886 
Q 3006 2619 2597 2516 
z
" transform="scale(0.015625)"/>
       </defs>
       <use xlink:href="#DejaVuSans-33"/>
      </g>
     </g>
    </g>
    <g id="ytick_25">
     <g id="line2d_51">
      <g>
       <use xlink:href="#m7f4677b327" x="394.363636" y="449.164425" style="stroke: #000000; stroke-width: 0.8"/>
      </g>
     </g>
     <g id="text_48">
      <!-- 4 -->
      <g transform="translate(381.001136 452.963644)scale(0.1 -0.1)">
       <use xlink:href="#DejaVuSans-34"/>
      </g>
     </g>
    </g>
    <g id="ytick_26">
     <g id="line2d_52">
      <g>
       <use xlink:href="#m7f4677b327" x="394.363636" y="419.025162" style="stroke: #000000; stroke-width: 0.8"/>
      </g>
     </g>
     <g id="text_49">
      <!-- 5 -->
      <g transform="translate(381.001136 422.824381)scale(0.1 -0.1)">
       <use xlink:href="#DejaVuSans-35"/>
      </g>
     </g>
    </g>
    <g id="ytick_27">
     <g id="line2d_53">
      <g>
       <use xlink:href="#m7f4677b327" x="394.363636" y="388.8859" style="stroke: #000000; stroke-width: 0.8"/>
      </g>
     </g>
     <g id="text_50">
      <!-- 6 -->
      <g transform="translate(381.001136 392.685119)scale(0.1 -0.1)">
       <use xlink:href="#DejaVuSans-36"/>
      </g>
     </g>
    </g>
   </g>
   <g id="line2d_54">
    <path d="M 409.554535 721 
L 410.2431 704.127634 
L 411.693279 698.828701 
L 413.143459 662.862752 
L 414.593638 620.252322 
L 416.043817 592.316173 
L 417.493997 608.722809 
L 418.513162 721 
M 456.452097 721 
L 456.648838 700.899202 
L 458.099018 613.15507 
L 459.549197 548.827125 
L 460.999376 537.280603 
L 462.449556 538.125951 
L 463.899735 545.059538 
L 465.349914 584.921483 
L 466.800094 640.590858 
L 468.250273 688.190726 
L 469.700452 711.212306 
L 471.150632 699.361667 
L 472.600811 660.659959 
L 475.501169 557.526093 
L 476.951349 561.620948 
L 478.401528 622.808508 
L 479.194682 721 
M 520.270582 721 
L 520.456729 704.719922 
L 521.906908 689.502055 
L 522.392352 721 
M 539.627534 721 
L 540.759239 542.898815 
L 542.209418 516.282308 
L 543.659598 577.533948 
L 545.109777 620.2952 
L 546.559956 600.882166 
L 549.460315 540.807379 
L 550.910494 517.963606 
L 552.360674 545.323614 
L 555.261032 648.113719 
L 556.801879 721 
M 562.681032 721 
L 563.962108 577.233896 
L 565.412288 568.31191 
L 566.862467 588.959627 
L 568.312646 571.57121 
L 569.762826 545.079315 
L 571.213005 532.205633 
L 572.663184 574.804508 
L 575.246297 721 
M 579.651222 721 
L 579.914081 708.652525 
L 581.36426 605.97196 
L 582.814439 547.562427 
L 584.264619 539.361544 
L 585.714798 546.34508 
L 587.164977 548.142129 
L 588.615157 540.502385 
L 590.065336 525.417087 
L 591.515515 528.508628 
L 594.415874 565.29984 
L 595.866053 621.692182 
L 597.114492 721 
M 614.516827 721 
L 614.718385 712.227554 
L 616.168564 660.239413 
L 619.068923 599.971647 
L 620.519102 541.253765 
L 621.969281 498.087432 
L 623.41946 496.258747 
L 624.86964 517.583276 
L 626.319819 546.081801 
L 627.769998 509.921984 
L 629.220178 431.142187 
L 630.670357 382.909091 
L 632.120536 385.574126 
L 635.020895 467.936549 
L 636.471074 476.476955 
L 636.471074 476.476955 
" clip-path="url(#pf1754a57c7)" style="fill: none; stroke: #1f77b4; stroke-width: 1.5; stroke-linecap: square"/>
   </g>
   <g id="patch_18">
    <path d="M 394.363636 630 
L 394.363636 382.909091 
" style="fill: none; stroke: #000000; stroke-width: 0.8; stroke-linejoin: miter; stroke-linecap: square"/>
   </g>
   <g id="patch_19">
    <path d="M 648 630 
L 648 382.909091 
" style="fill: none; stroke: #000000; stroke-width: 0.8; stroke-linejoin: miter; stroke-linecap: square"/>
   </g>
   <g id="patch_20">
    <path d="M 394.363636 630 
L 648 630 
" style="fill: none; stroke: #000000; stroke-width: 0.8; stroke-linejoin: miter; stroke-linecap: square"/>
   </g>
   <g id="patch_21">
    <path d="M 394.363636 382.909091 
L 648 382.909091 
" style="fill: none; stroke: #000000; stroke-width: 0.8; stroke-linejoin: miter; stroke-linecap: square"/>
   </g>
   <g id="text_51">
    <!-- explained variance -->
    <g transform="translate(464.181818 376.909091)scale(0.12 -0.12)">
     <defs>
      <path id="DejaVuSans-65" d="M 3597 1894 
L 3597 1613 
L 953 1613 
Q 991 1019 1311 708 
Q 1631 397 2203 397 
Q 2534 397 2845 478 
Q 3156 559 3463 722 
L 3463 178 
Q 3153 47 2828 -22 
Q 2503 -91 2169 -91 
Q 1331 -91 842 396 
Q 353 884 353 1716 
Q 353 2575 817 3079 
Q 1281 3584 2069 3584 
Q 2775 3584 3186 3129 
Q 3597 2675 3597 1894 
z
M 3022 2063 
Q 3016 2534 2758 2815 
Q 2500 3097 2075 3097 
Q 1594 3097 1305 2825 
Q 1016 2553 972 2059 
L 3022 2063 
z
" transform="scale(0.015625)"/>
      <path id="DejaVuSans-78" d="M 3513 3500 
L 2247 1797 
L 3578 0 
L 2900 0 
L 1881 1375 
L 863 0 
L 184 0 
L 1544 1831 
L 300 3500 
L 978 3500 
L 1906 2253 
L 2834 3500 
L 3513 3500 
z
" transform="scale(0.015625)"/>
      <path id="DejaVuSans-70" d="M 1159 525 
L 1159 -1331 
L 581 -1331 
L 581 3500 
L 1159 3500 
L 1159 2969 
Q 1341 3281 1617 3432 
Q 1894 3584 2278 3584 
Q 2916 3584 3314 3078 
Q 3713 2572 3713 1747 
Q 3713 922 3314 415 
Q 2916 -91 2278 -91 
Q 1894 -91 1617 61 
Q 1341 213 1159 525 
z
M 3116 1747 
Q 3116 2381 2855 2742 
Q 2594 3103 2138 3103 
Q 1681 3103 1420 2742 
Q 1159 2381 1159 1747 
Q 1159 1113 1420 752 
Q 1681 391 2138 391 
Q 2594 391 2855 752 
Q 3116 1113 3116 1747 
z
" transform="scale(0.015625)"/>
      <path id="DejaVuSans-6c" d="M 603 4863 
L 1178 4863 
L 1178 0 
L 603 0 
L 603 4863 
z
" transform="scale(0.015625)"/>
      <path id="DejaVuSans-61" d="M 2194 1759 
Q 1497 1759 1228 1600 
Q 959 1441 959 1056 
Q 959 750 1161 570 
Q 1363 391 1709 391 
Q 2188 391 2477 730 
Q 2766 1069 2766 1631 
L 2766 1759 
L 2194 1759 
z
M 3341 1997 
L 3341 0 
L 2766 0 
L 2766 531 
Q 2569 213 2275 61 
Q 1981 -91 1556 -91 
Q 1019 -91 701 211 
Q 384 513 384 1019 
Q 384 1609 779 1909 
Q 1175 2209 1959 2209 
L 2766 2209 
L 2766 2266 
Q 2766 2663 2505 2880 
Q 2244 3097 1772 3097 
Q 1472 3097 1187 3025 
Q 903 2953 641 2809 
L 641 3341 
Q 956 3463 1253 3523 
Q 1550 3584 1831 3584 
Q 2591 3584 2966 3190 
Q 3341 2797 3341 1997 
z
" transform="scale(0.015625)"/>
      <path id="DejaVuSans-64" d="M 2906 2969 
L 2906 4863 
L 3481 4863 
L 3481 0 
L 2906 0 
L 2906 525 
Q 2725 213 2448 61 
Q 2172 -91 1784 -91 
Q 1150 -91 751 415 
Q 353 922 353 1747 
Q 353 2572 751 3078 
Q 1150 3584 1784 3584 
Q 2172 3584 2448 3432 
Q 2725 3281 2906 2969 
z
M 947 1747 
Q 947 1113 1208 752 
Q 1469 391 1925 391 
Q 2381 391 2643 752 
Q 2906 1113 2906 1747 
Q 2906 2381 2643 2742 
Q 2381 3103 1925 3103 
Q 1469 3103 1208 2742 
Q 947 2381 947 1747 
z
" transform="scale(0.015625)"/>
      <path id="DejaVuSans-20" transform="scale(0.015625)"/>
      <path id="DejaVuSans-76" d="M 191 3500 
L 800 3500 
L 1894 563 
L 2988 3500 
L 3597 3500 
L 2284 0 
L 1503 0 
L 191 3500 
z
" transform="scale(0.015625)"/>
      <path id="DejaVuSans-72" d="M 2631 2963 
Q 2534 3019 2420 3045 
Q 2306 3072 2169 3072 
Q 1681 3072 1420 2755 
Q 1159 2438 1159 1844 
L 1159 0 
L 581 0 
L 581 3500 
L 1159 3500 
L 1159 2956 
Q 1341 3275 1631 3429 
Q 1922 3584 2338 3584 
Q 2397 3584 2469 3576 
Q 2541 3569 2628 3553 
L 2631 2963 
z
" transform="scale(0.015625)"/>
      <path id="DejaVuSans-63" d="M 3122 3366 
L 3122 2828 
Q 2878 2963 2633 3030 
Q 2388 3097 2138 3097 
Q 1578 3097 1268 2742 
Q 959 2388 959 1747 
Q 959 1106 1268 751 
Q 1578 397 2138 397 
Q 2388 397 2633 464 
Q 2878 531 3122 666 
L 3122 134 
Q 2881 22 2623 -34 
Q 2366 -91 2075 -91 
Q 1284 -91 818 406 
Q 353 903 353 1747 
Q 353 2603 823 3093 
Q 1294 3584 2113 3584 
Q 2378 3584 2631 3529 
Q 2884 3475 3122 3366 
z
" transform="scale(0.015625)"/>
     </defs>
     <use xlink:href="#DejaVuSans-65"/>
     <use xlink:href="#DejaVuSans-78" x="59.773438"/>
     <use xlink:href="#DejaVuSans-70" x="118.953125"/>
     <use xlink:href="#DejaVuSans-6c" x="182.429688"/>
     <use xlink:href="#DejaVuSans-61" x="210.212891"/>
     <use xlink:href="#DejaVuSans-69" x="271.492188"/>
     <use xlink:href="#DejaVuSans-6e" x="299.275391"/>
     <use xlink:href="#DejaVuSans-65" x="362.654297"/>
     <use xlink:href="#DejaVuSans-64" x="424.177734"/>
     <use xlink:href="#DejaVuSans-20" x="487.654297"/>
     <use xlink:href="#DejaVuSans-76" x="519.441406"/>
     <use xlink:href="#DejaVuSans-61" x="578.621094"/>
     <use xlink:href="#DejaVuSans-72" x="639.900391"/>
     <use xlink:href="#DejaVuSans-69" x="681.013672"/>
     <use xlink:href="#DejaVuSans-61" x="708.796875"/>
     <use xlink:href="#DejaVuSans-6e" x="770.076172"/>
     <use xlink:href="#DejaVuSans-63" x="833.455078"/>
     <use xlink:href="#DejaVuSans-65" x="888.435547"/>
    </g>
   </g>
  </g>
 </g>
 <defs>
  <clipPath id="pd4f1e8d2bf">
   <rect x="394.363636" y="86.4" width="253.636364" height="247.090909"/>
  </clipPath>
  <clipPath id="pf1754a57c7">
   <rect x="394.363636" y="382.909091" width="253.636364" height="247.090909"/>
  </clipPath>
 </defs>
</svg>
