<?xml version="1.0" encoding="utf-8" standalone="no"?>
<!DOCTYPE svg PUBLIC "-//W3C//DTD SVG 1.1//EN"
  "http://www.w3.org/Graphics/SVG/1.1/DTD/svg11.dtd">
<svg xmlns:xlink="http://www.w3.org/1999/xlink" width="720pt" height="720pt" viewBox="0 0 720 720" xmlns="http://www.w3.org/2000/svg" version="1.1">
 <metadata>
  <rdf:RDF xmlns:dc="http://purl.org/dc/elements/1.1/" xmlns:cc="http://creativecommons.org/ns#" xmlns:rdf="http://www.w3.org/1999/02/22-rdf-syntax-ns#">
   <cc:Work>
    <dc:type rdf:resource="http://purl.org/dc/dcmitype/StillImage"/>
    <dc:date>2023-12-19T18:16:19.405457</dc:date>
    <dc:format>image/svg+xml</dc:format>
    <dc:creator>
     <cc:Agent>
      <dc:title>Matplotlib v3.5.2, https://matplotlib.org/</dc:title>
     </cc:Agent>
    </dc:creator>
   </cc:Work>
  </rdf:RDF>
 </metadata>
 <defs>
  <style type="text/css">*{stroke-linejoin: round; stroke-linecap: butt}</style>
 </defs>
 <g id="figure_1">
  <g id="patch_1">
   <path d="M 0 720 
L 720 720 
L 720 0 
L 0 0 
z
" style="fill: #ffffff"/>
  </g>
  <g id="axes_1">
   <g id="patch_2">
    <path d="M 90 333.490909 
L 343.636364 333.490909 
L 343.636364 86.4 
L 90 86.4 
z
" style="fill: #ffffff"/>
   </g>
   <g id="matplotlib.axis_1">
    <g id="xtick_1">
     <g id="line2d_1">
      <defs>
       <path id="mf367fdedfe" d="M 0 0 
L 0 3.5 
" style="stroke: #000000; stroke-width: 0.8"/>
      </defs>
      <g>
       <use xlink:href="#mf367fdedfe" x="90" y="333.490909" style="stroke: #000000; stroke-width: 0.8"/>
      </g>
     </g>
     <g id="text_1">
      <!-- 0.0 -->
      <g transform="translate(82.048438 348.089347)scale(0.1 -0.1)">
       <defs>
        <path id="DejaVuSans-30" d="M 2034 4250 
Q 1547 4250 1301 3770 
Q 1056 3291 1056 2328 
Q 1056 1369 1301 889 
Q 1547 409 2034 409 
Q 2525 409 2770 889 
Q 3016 1369 3016 2328 
Q 3016 3291 2770 3770 
Q 2525 4250 2034 4250 
z
M 2034 4750 
Q 2819 4750 3233 4129 
Q 3647 3509 3647 2328 
Q 3647 1150 3233 529 
Q 2819 -91 2034 -91 
Q 1250 -91 836 529 
Q 422 1150 422 2328 
Q 422 3509 836 4129 
Q 1250 4750 2034 4750 
z
" transform="scale(0.015625)"/>
        <path id="DejaVuSans-2e" d="M 684 794 
L 1344 794 
L 1344 0 
L 684 0 
L 684 794 
z
" transform="scale(0.015625)"/>
       </defs>
       <use xlink:href="#DejaVuSans-30"/>
       <use xlink:href="#DejaVuSans-2e" x="63.623047"/>
       <use xlink:href="#DejaVuSans-30" x="95.410156"/>
      </g>
     </g>
    </g>
    <g id="xtick_2">
     <g id="line2d_2">
      <g>
       <use xlink:href="#mf367fdedfe" x="140.727273" y="333.490909" style="stroke: #000000; stroke-width: 0.8"/>
      </g>
     </g>
     <g id="text_2">
      <!-- 0.2 -->
      <g transform="translate(132.77571 348.089347)scale(0.1 -0.1)">
       <defs>
        <path id="DejaVuSans-32" d="M 1228 531 
L 3431 531 
L 3431 0 
L 469 0 
L 469 531 
Q 828 903 1448 1529 
Q 2069 2156 2228 2338 
Q 2531 2678 2651 2914 
Q 2772 3150 2772 3378 
Q 2772 3750 2511 3984 
Q 2250 4219 1831 4219 
Q 1534 4219 1204 4116 
Q 875 4013 500 3803 
L 500 4441 
Q 881 4594 1212 4672 
Q 1544 4750 1819 4750 
Q 2544 4750 2975 4387 
Q 3406 4025 3406 3419 
Q 3406 3131 3298 2873 
Q 3191 2616 2906 2266 
Q 2828 2175 2409 1742 
Q 1991 1309 1228 531 
z
" transform="scale(0.015625)"/>
       </defs>
       <use xlink:href="#DejaVuSans-30"/>
       <use xlink:href="#DejaVuSans-2e" x="63.623047"/>
       <use xlink:href="#DejaVuSans-32" x="95.410156"/>
      </g>
     </g>
    </g>
    <g id="xtick_3">
     <g id="line2d_3">
      <g>
       <use xlink:href="#mf367fdedfe" x="191.454545" y="333.490909" style="stroke: #000000; stroke-width: 0.8"/>
      </g>
     </g>
     <g id="text_3">
      <!-- 0.4 -->
      <g transform="translate(183.502983 348.089347)scale(0.1 -0.1)">
       <defs>
        <path id="DejaVuSans-34" d="M 2419 4116 
L 825 1625 
L 2419 1625 
L 2419 4116 
z
M 2253 4666 
L 3047 4666 
L 3047 1625 
L 3713 1625 
L 3713 1100 
L 3047 1100 
L 3047 0 
L 2419 0 
L 2419 1100 
L 313 1100 
L 313 1709 
L 2253 4666 
z
" transform="scale(0.015625)"/>
       </defs>
       <use xlink:href="#DejaVuSans-30"/>
       <use xlink:href="#DejaVuSans-2e" x="63.623047"/>
       <use xlink:href="#DejaVuSans-34" x="95.410156"/>
      </g>
     </g>
    </g>
    <g id="xtick_4">
     <g id="line2d_4">
      <g>
       <use xlink:href="#mf367fdedfe" x="242.181818" y="333.490909" style="stroke: #000000; stroke-width: 0.8"/>
      </g>
     </g>
     <g id="text_4">
      <!-- 0.6 -->
      <g transform="translate(234.230256 348.089347)scale(0.1 -0.1)">
       <defs>
        <path id="DejaVuSans-36" d="M 2113 2584 
Q 1688 2584 1439 2293 
Q 1191 2003 1191 1497 
Q 1191 994 1439 701 
Q 1688 409 2113 409 
Q 2538 409 2786 701 
Q 3034 994 3034 1497 
Q 3034 2003 2786 2293 
Q 2538 2584 2113 2584 
z
M 3366 4563 
L 3366 3988 
Q 3128 4100 2886 4159 
Q 2644 4219 2406 4219 
Q 1781 4219 1451 3797 
Q 1122 3375 1075 2522 
Q 1259 2794 1537 2939 
Q 1816 3084 2150 3084 
Q 2853 3084 3261 2657 
Q 3669 2231 3669 1497 
Q 3669 778 3244 343 
Q 2819 -91 2113 -91 
Q 1303 -91 875 529 
Q 447 1150 447 2328 
Q 447 3434 972 4092 
Q 1497 4750 2381 4750 
Q 2619 4750 2861 4703 
Q 3103 4656 3366 4563 
z
" transform="scale(0.015625)"/>
       </defs>
       <use xlink:href="#DejaVuSans-30"/>
       <use xlink:href="#DejaVuSans-2e" x="63.623047"/>
       <use xlink:href="#DejaVuSans-36" x="95.410156"/>
      </g>
     </g>
    </g>
    <g id="xtick_5">
     <g id="line2d_5">
      <g>
       <use xlink:href="#mf367fdedfe" x="292.909091" y="333.490909" style="stroke: #000000; stroke-width: 0.8"/>
      </g>
     </g>
     <g id="text_5">
      <!-- 0.8 -->
      <g transform="translate(284.957528 348.089347)scale(0.1 -0.1)">
       <defs>
        <path id="DejaVuSans-38" d="M 2034 2216 
Q 1584 2216 1326 1975 
Q 1069 1734 1069 1313 
Q 1069 891 1326 650 
Q 1584 409 2034 409 
Q 2484 409 2743 651 
Q 3003 894 3003 1313 
Q 3003 1734 2745 1975 
Q 2488 2216 2034 2216 
z
M 1403 2484 
Q 997 2584 770 2862 
Q 544 3141 544 3541 
Q 544 4100 942 4425 
Q 1341 4750 2034 4750 
Q 2731 4750 3128 4425 
Q 3525 4100 3525 3541 
Q 3525 3141 3298 2862 
Q 3072 2584 2669 2484 
Q 3125 2378 3379 2068 
Q 3634 1759 3634 1313 
Q 3634 634 3220 271 
Q 2806 -91 2034 -91 
Q 1263 -91 848 271 
Q 434 634 434 1313 
Q 434 1759 690 2068 
Q 947 2378 1403 2484 
z
M 1172 3481 
Q 1172 3119 1398 2916 
Q 1625 2713 2034 2713 
Q 2441 2713 2670 2916 
Q 2900 3119 2900 3481 
Q 2900 3844 2670 4047 
Q 2441 4250 2034 4250 
Q 1625 4250 1398 4047 
Q 1172 3844 1172 3481 
z
" transform="scale(0.015625)"/>
       </defs>
       <use xlink:href="#DejaVuSans-30"/>
       <use xlink:href="#DejaVuSans-2e" x="63.623047"/>
       <use xlink:href="#DejaVuSans-38" x="95.410156"/>
      </g>
     </g>
    </g>
    <g id="xtick_6">
     <g id="line2d_6">
      <g>
       <use xlink:href="#mf367fdedfe" x="343.636364" y="333.490909" style="stroke: #000000; stroke-width: 0.8"/>
      </g>
     </g>
     <g id="text_6">
      <!-- 1.0 -->
      <g transform="translate(335.684801 348.089347)scale(0.1 -0.1)">
       <defs>
        <path id="DejaVuSans-31" d="M 794 531 
L 1825 531 
L 1825 4091 
L 703 3866 
L 703 4441 
L 1819 4666 
L 2450 4666 
L 2450 531 
L 3481 531 
L 3481 0 
L 794 0 
L 794 531 
z
" transform="scale(0.015625)"/>
       </defs>
       <use xlink:href="#DejaVuSans-31"/>
       <use xlink:href="#DejaVuSans-2e" x="63.623047"/>
       <use xlink:href="#DejaVuSans-30" x="95.410156"/>
      </g>
     </g>
    </g>
   </g>
   <g id="matplotlib.axis_2">
    <g id="ytick_1">
     <g id="line2d_7">
      <defs>
       <path id="m550bb3a8d9" d="M 0 0 
L -3.5 0 
" style="stroke: #000000; stroke-width: 0.8"/>
      </defs>
      <g>
       <use xlink:href="#m550bb3a8d9" x="90" y="333.490909" style="stroke: #000000; stroke-width: 0.8"/>
      </g>
     </g>
     <g id="text_7">
      <!-- 0.0 -->
      <g transform="translate(67.096875 337.290128)scale(0.1 -0.1)">
       <use xlink:href="#DejaVuSans-30"/>
       <use xlink:href="#DejaVuSans-2e" x="63.623047"/>
       <use xlink:href="#DejaVuSans-30" x="95.410156"/>
      </g>
     </g>
    </g>
    <g id="ytick_2">
     <g id="line2d_8">
      <g>
       <use xlink:href="#m550bb3a8d9" x="90" y="284.072727" style="stroke: #000000; stroke-width: 0.8"/>
      </g>
     </g>
     <g id="text_8">
      <!-- 0.2 -->
      <g transform="translate(67.096875 287.871946)scale(0.1 -0.1)">
       <use xlink:href="#DejaVuSans-30"/>
       <use xlink:href="#DejaVuSans-2e" x="63.623047"/>
       <use xlink:href="#DejaVuSans-32" x="95.410156"/>
      </g>
     </g>
    </g>
    <g id="ytick_3">
     <g id="line2d_9">
      <g>
       <use xlink:href="#m550bb3a8d9" x="90" y="234.654545" style="stroke: #000000; stroke-width: 0.8"/>
      </g>
     </g>
     <g id="text_9">
      <!-- 0.4 -->
      <g transform="translate(67.096875 238.453764)scale(0.1 -0.1)">
       <use xlink:href="#DejaVuSans-30"/>
       <use xlink:href="#DejaVuSans-2e" x="63.623047"/>
       <use xlink:href="#DejaVuSans-34" x="95.410156"/>
      </g>
     </g>
    </g>
    <g id="ytick_4">
     <g id="line2d_10">
      <g>
       <use xlink:href="#m550bb3a8d9" x="90" y="185.236364" style="stroke: #000000; stroke-width: 0.8"/>
      </g>
     </g>
     <g id="text_10">
      <!-- 0.6 -->
      <g transform="translate(67.096875 189.035582)scale(0.1 -0.1)">
       <use xlink:href="#DejaVuSans-30"/>
       <use xlink:href="#DejaVuSans-2e" x="63.623047"/>
       <use xlink:href="#DejaVuSans-36" x="95.410156"/>
      </g>
     </g>
    </g>
    <g id="ytick_5">
     <g id="line2d_11">
      <g>
       <use xlink:href="#m550bb3a8d9" x="90" y="135.818182" style="stroke: #000000; stroke-width: 0.8"/>
      </g>
     </g>
     <g id="text_11">
      <!-- 0.8 -->
      <g transform="translate(67.096875 139.617401)scale(0.1 -0.1)">
       <use xlink:href="#DejaVuSans-30"/>
       <use xlink:href="#DejaVuSans-2e" x="63.623047"/>
       <use xlink:href="#DejaVuSans-38" x="95.410156"/>
      </g>
     </g>
    </g>
    <g id="ytick_6">
     <g id="line2d_12">
      <g>
       <use xlink:href="#m550bb3a8d9" x="90" y="86.4" style="stroke: #000000; stroke-width: 0.8"/>
      </g>
     </g>
     <g id="text_12">
      <!-- 1.0 -->
      <g transform="translate(67.096875 90.199219)scale(0.1 -0.1)">
       <use xlink:href="#DejaVuSans-31"/>
       <use xlink:href="#DejaVuSans-2e" x="63.623047"/>
       <use xlink:href="#DejaVuSans-30" x="95.410156"/>
      </g>
     </g>
    </g>
   </g>
   <g id="patch_3">
    <path d="M 90 333.490909 
L 90 86.4 
" style="fill: none; stroke: #000000; stroke-width: 0.8; stroke-linejoin: miter; stroke-linecap: square"/>
   </g>
   <g id="patch_4">
    <path d="M 343.636364 333.490909 
L 343.636364 86.4 
" style="fill: none; stroke: #000000; stroke-width: 0.8; stroke-linejoin: miter; stroke-linecap: square"/>
   </g>
   <g id="patch_5">
    <path d="M 90 333.490909 
L 343.636364 333.490909 
" style="fill: none; stroke: #000000; stroke-width: 0.8; stroke-linejoin: miter; stroke-linecap: square"/>
   </g>
   <g id="patch_6">
    <path d="M 90 86.4 
L 343.636364 86.4 
" style="fill: none; stroke: #000000; stroke-width: 0.8; stroke-linejoin: miter; stroke-linecap: square"/>
   </g>
  </g>
  <g id="axes_2">
   <g id="patch_7">
    <path d="M 394.363636 333.490909 
L 648 333.490909 
L 648 86.4 
L 394.363636 86.4 
z
" style="fill: #ffffff"/>
   </g>
   <g id="PolyCollection_1">
    <defs>
     <path id="mb7173c0ec2" d="M 405.892562 -451.800456 
L 405.892562 -449.025463 
L 407.342741 -448.013324 
L 408.792921 -446.564159 
L 410.2431 -445.273659 
L 411.693279 -443.498528 
L 413.143459 -441.888316 
L 414.593638 -440.15581 
L 416.043817 -437.958057 
L 417.493997 -437.131687 
L 418.944176 -436.119354 
L 420.394355 -434.93153 
L 421.844535 -434.667093 
L 423.294714 -434.342423 
L 424.744893 -432.668651 
L 426.195073 -431.095676 
L 427.645252 -429.58499 
L 429.095431 -428.084779 
L 430.54561 -428.402467 
L 431.99579 -428.79431 
L 433.445969 -429.355232 
L 434.896148 -434.393954 
L 436.346328 -434.521578 
L 437.796507 -439.000098 
L 439.246686 -438.401703 
L 440.696866 -442.109893 
L 442.147045 -441.630424 
L 443.597224 -436.388633 
L 445.047404 -435.539598 
L 446.497583 -437.307625 
L 447.947762 -440.981415 
L 449.397942 -447.736066 
L 450.848121 -451.119858 
L 452.2983 -453.298871 
L 453.74848 -454.385006 
L 455.198659 -454.809359 
L 456.648838 -454.939889 
L 458.099018 -454.97147 
L 459.549197 -454.975698 
L 460.999376 -454.964746 
L 462.449556 -454.90464 
L 463.899735 -454.663525 
L 465.349914 -453.908254 
L 466.800094 -452.061426 
L 468.250273 -448.531021 
L 469.700452 -443.248197 
L 471.150632 -432.100662 
L 472.600811 -426.409243 
L 474.05099 -422.370362 
L 475.501169 -419.791607 
L 476.951349 -418.340927 
L 478.401528 -417.28599 
L 479.851707 -416.880594 
L 481.301887 -415.085824 
L 482.752066 -413.149472 
L 484.202245 -410.058303 
L 485.652425 -406.713617 
L 487.102604 -404.457077 
L 488.552783 -402.671475 
L 490.002963 -400.5517 
L 491.453142 -399.444252 
L 492.903321 -399.692427 
L 494.353501 -399.888155 
L 495.80368 -400.074768 
L 497.253859 -399.967076 
L 498.704039 -399.175823 
L 500.154218 -398.156867 
L 501.604397 -397.740496 
L 503.054577 -399.661133 
L 504.504756 -403.133913 
L 505.954935 -407.252664 
L 507.405115 -411.159845 
L 508.855294 -420.733532 
L 510.305473 -411.862988 
L 511.755653 -411.987051 
L 513.205832 -417.48609 
L 514.656011 -423.196547 
L 516.106191 -438.091026 
L 517.55637 -441.931732 
L 519.006549 -440.661607 
L 520.456729 -434.539742 
L 521.906908 -420.520679 
L 523.357087 -414.934258 
L 524.807266 -413.002039 
L 526.257446 -416.29407 
L 527.707625 -426.877986 
L 529.157804 -429.240442 
L 530.607984 -423.104395 
L 532.058163 -423.89085 
L 533.508342 -427.652622 
L 534.958522 -439.823006 
L 536.408701 -446.043024 
L 537.85888 -450.724366 
L 539.30906 -453.356777 
L 540.759239 -454.486334 
L 542.209418 -454.8601 
L 543.659598 -454.956204 
L 545.109777 -454.975198 
L 546.559956 -454.978215 
L 548.010136 -454.978215 
L 549.460315 -454.978215 
L 550.910494 -454.978215 
L 552.360674 -454.978215 
L 553.810853 -454.978215 
L 555.261032 -454.978215 
L 556.711212 -454.978215 
L 558.161391 -454.978215 
L 559.61157 -454.978215 
L 561.06175 -454.978215 
L 562.511929 -454.978215 
L 563.962108 -454.978215 
L 565.412288 -454.978215 
L 566.862467 -454.978215 
L 568.312646 -454.978215 
L 569.762826 -454.978215 
L 571.213005 -454.978215 
L 572.663184 -454.978215 
L 574.113363 -454.978215 
L 575.563543 -454.978215 
L 577.013722 -454.978215 
L 578.463901 -454.978215 
L 579.914081 -454.978215 
L 581.36426 -454.978215 
L 582.814439 -454.978215 
L 584.264619 -454.978215 
L 585.714798 -454.978215 
L 587.164977 -454.978215 
L 588.615157 -454.978215 
L 590.065336 -454.978215 
L 591.515515 -454.978215 
L 592.965695 -454.978215 
L 594.415874 -454.978215 
L 595.866053 -454.978215 
L 597.316233 -454.978215 
L 598.766412 -454.978215 
L 600.216591 -454.978215 
L 601.666771 -454.978215 
L 603.11695 -454.978215 
L 604.567129 -454.978215 
L 606.017309 -454.978215 
L 607.467488 -454.978215 
L 608.917667 -454.978215 
L 610.367847 -454.978215 
L 611.818026 -454.978215 
L 613.268205 -454.978215 
L 614.718385 -454.978215 
L 616.168564 -454.978215 
L 617.618743 -454.978215 
L 619.068923 -454.978215 
L 620.519102 -454.978215 
L 621.969281 -454.978215 
L 623.41946 -454.978215 
L 624.86964 -454.978215 
L 626.319819 -454.978215 
L 627.769998 -454.978215 
L 629.220178 -454.978215 
L 630.670357 -454.978215 
L 632.120536 -454.978215 
L 633.570716 -454.978215 
L 635.020895 -454.978215 
L 636.471074 -454.978215 
L 636.471074 -454.978215 
L 636.471074 -454.978215 
L 635.020895 -454.978215 
L 633.570716 -454.978215 
L 632.120536 -454.978215 
L 630.670357 -454.978215 
L 629.220178 -454.978215 
L 627.769998 -454.978215 
L 626.319819 -454.978215 
L 624.86964 -454.978215 
L 623.41946 -454.978215 
L 621.969281 -454.978215 
L 620.519102 -454.978215 
L 619.068923 -454.978215 
L 617.618743 -454.978215 
L 616.168564 -454.978215 
L 614.718385 -454.978215 
L 613.268205 -454.978215 
L 611.818026 -454.978215 
L 610.367847 -454.978215 
L 608.917667 -454.978215 
L 607.467488 -454.978215 
L 606.017309 -454.978215 
L 604.567129 -454.978215 
L 603.11695 -454.978215 
L 601.666771 -454.978215 
L 600.216591 -454.978215 
L 598.766412 -454.978215 
L 597.316233 -454.978215 
L 595.866053 -454.978215 
L 594.415874 -454.978215 
L 592.965695 -454.978215 
L 591.515515 -454.978215 
L 590.065336 -454.978215 
L 588.615157 -454.978215 
L 587.164977 -454.978215 
L 585.714798 -454.978215 
L 584.264619 -454.978215 
L 582.814439 -454.978215 
L 581.36426 -454.978215 
L 579.914081 -454.978215 
L 578.463901 -454.978215 
L 577.013722 -454.978215 
L 575.563543 -454.978215 
L 574.113363 -454.978215 
L 572.663184 -454.978215 
L 571.213005 -454.978215 
L 569.762826 -454.978215 
L 568.312646 -454.978215 
L 566.862467 -454.978215 
L 565.412288 -454.978215 
L 563.962108 -454.978215 
L 562.511929 -454.978215 
L 561.06175 -454.978215 
L 559.61157 -454.978215 
L 558.161391 -454.978215 
L 556.711212 -454.978215 
L 555.261032 -454.978215 
L 553.810853 -454.978215 
L 552.360674 -454.978215 
L 550.910494 -454.978215 
L 549.460315 -454.978215 
L 548.010136 -454.978215 
L 546.559956 -454.978215 
L 545.109777 -454.975198 
L 543.659598 -454.956204 
L 542.209418 -454.8601 
L 540.759239 -454.486334 
L 539.30906 -453.356777 
L 537.85888 -450.724366 
L 536.408701 -446.043024 
L 534.958522 -439.823006 
L 533.508342 -440.238394 
L 532.058163 -437.048222 
L 530.607984 -436.136785 
L 529.157804 -429.240442 
L 527.707625 -426.877986 
L 526.257446 -428.907225 
L 524.807266 -425.762346 
L 523.357087 -426.023702 
L 521.906908 -432.371958 
L 520.456729 -434.539742 
L 519.006549 -440.661607 
L 517.55637 -441.931732 
L 516.106191 -438.091026 
L 514.656011 -439.514948 
L 513.205832 -432.630354 
L 511.755653 -431.233082 
L 510.305473 -429.990729 
L 508.855294 -420.733532 
L 507.405115 -426.261403 
L 505.954935 -421.600511 
L 504.504756 -415.482775 
L 503.054577 -410.733175 
L 501.604397 -408.449994 
L 500.154218 -407.493284 
L 498.704039 -407.665501 
L 497.253859 -407.814845 
L 495.80368 -407.66619 
L 494.353501 -407.421259 
L 492.903321 -407.754806 
L 491.453142 -409.315521 
L 490.002963 -410.964838 
L 488.552783 -413.126326 
L 487.102604 -416.873628 
L 485.652425 -420.63867 
L 484.202245 -422.80706 
L 482.752066 -423.966034 
L 481.301887 -424.831937 
L 479.851707 -424.766318 
L 478.401528 -425.715932 
L 476.951349 -426.47114 
L 475.501169 -428.220897 
L 474.05099 -431.267367 
L 472.600811 -436.038299 
L 471.150632 -441.964595 
L 469.700452 -443.248197 
L 468.250273 -448.531021 
L 466.800094 -452.061426 
L 465.349914 -453.908254 
L 463.899735 -454.663525 
L 462.449556 -454.90464 
L 460.999376 -454.964746 
L 459.549197 -454.975698 
L 458.099018 -454.97147 
L 456.648838 -454.939889 
L 455.198659 -454.809359 
L 453.74848 -454.385006 
L 452.2983 -453.298871 
L 450.848121 -451.119858 
L 449.397942 -447.736066 
L 447.947762 -446.599277 
L 446.497583 -443.9498 
L 445.047404 -443.3459 
L 443.597224 -444.05511 
L 442.147045 -441.630424 
L 440.696866 -442.109893 
L 439.246686 -443.745944 
L 437.796507 -439.000098 
L 436.346328 -438.743859 
L 434.896148 -434.393954 
L 433.445969 -435.590387 
L 431.99579 -433.390361 
L 430.54561 -432.51436 
L 429.095431 -433.121047 
L 427.645252 -433.318597 
L 426.195073 -434.696121 
L 424.744893 -436.594872 
L 423.294714 -437.908691 
L 421.844535 -439.311811 
L 420.394355 -439.806845 
L 418.944176 -439.500106 
L 417.493997 -440.411477 
L 416.043817 -442.657936 
L 414.593638 -444.134023 
L 413.143459 -446.080829 
L 411.693279 -447.907431 
L 410.2431 -449.31056 
L 408.792921 -450.847794 
L 407.342741 -451.595819 
L 405.892562 -451.800456 
z
" style="stroke: #9467bd; stroke-opacity: 0.2"/>
    </defs>
    <g clip-path="url(#paca4bbd48e)">
     <use xlink:href="#mb7173c0ec2" x="0" y="720" style="fill: #9467bd; fill-opacity: 0.2; stroke: #9467bd; stroke-opacity: 0.2"/>
    </g>
   </g>
   <g id="PolyCollection_2">
    <defs>
     <path id="m03dfbef1da" d="M 405.892562 -454.978215 
L 405.892562 -454.978215 
L 407.342741 -454.978215 
L 408.792921 -454.978215 
L 410.2431 -454.978215 
L 411.693279 -454.978215 
L 413.143459 -454.978215 
L 414.593638 -454.978215 
L 416.043817 -454.978215 
L 417.493997 -454.978215 
L 418.944176 -454.978215 
L 420.394355 -454.978215 
L 421.844535 -454.978215 
L 423.294714 -454.978215 
L 424.744893 -454.978215 
L 426.195073 -454.978215 
L 427.645252 -454.978215 
L 429.095431 -454.978215 
L 430.54561 -454.978215 
L 431.99579 -454.978215 
L 433.445969 -454.978215 
L 434.896148 -454.978215 
L 436.346328 -454.978215 
L 437.796507 -454.978215 
L 439.246686 -454.978215 
L 440.696866 -454.976581 
L 442.147045 -454.965946 
L 443.597224 -454.912358 
L 445.047404 -454.702455 
L 446.497583 -454.063539 
L 447.947762 -452.564432 
L 449.397942 -449.871448 
L 450.848121 -446.221738 
L 452.2983 -439.767497 
L 453.74848 -437.465248 
L 455.198659 -436.289755 
L 456.648838 -437.681428 
L 458.099018 -435.820371 
L 459.549197 -435.520288 
L 460.999376 -433.765886 
L 462.449556 -431.065655 
L 463.899735 -427.93742 
L 465.349914 -427.489618 
L 466.800094 -428.262214 
L 468.250273 -430.921216 
L 469.700452 -435.067037 
L 471.150632 -443.741217 
L 472.600811 -448.47997 
L 474.05099 -451.88958 
L 475.501169 -453.793133 
L 476.951349 -454.61561 
L 478.401528 -454.89059 
L 479.851707 -454.96163 
L 481.301887 -454.975882 
L 482.752066 -454.978215 
L 484.202245 -454.978215 
L 485.652425 -454.978215 
L 487.102604 -454.978215 
L 488.552783 -454.978215 
L 490.002963 -454.978215 
L 491.453142 -454.978215 
L 492.903321 -454.978215 
L 494.353501 -454.978215 
L 495.80368 -454.978215 
L 497.253859 -454.974967 
L 498.704039 -454.957035 
L 500.154218 -454.870655 
L 501.604397 -454.552805 
L 503.054577 -453.667859 
L 504.504756 -451.834834 
L 505.954935 -449.105606 
L 507.405115 -446.43362 
L 508.855294 -440.490073 
L 510.305473 -446.43362 
L 511.755653 -449.105606 
L 513.205832 -451.834834 
L 514.656011 -453.667859 
L 516.106191 -454.552805 
L 517.55637 -454.870655 
L 519.006549 -454.957035 
L 520.456729 -454.974967 
L 521.906908 -454.978215 
L 523.357087 -454.978215 
L 524.807266 -454.978215 
L 526.257446 -454.978215 
L 527.707625 -454.978215 
L 529.157804 -454.978215 
L 530.607984 -454.978215 
L 532.058163 -454.978215 
L 533.508342 -454.978215 
L 534.958522 -454.978215 
L 536.408701 -454.978215 
L 537.85888 -454.978215 
L 539.30906 -454.978215 
L 540.759239 -454.976121 
L 542.209418 -454.963222 
L 543.659598 -454.897876 
L 545.109777 -454.643889 
L 546.559956 -453.875305 
L 548.010136 -452.07227 
L 549.460315 -448.800401 
L 550.910494 -444.238994 
L 552.360674 -436.54622 
L 553.810853 -433.233664 
L 555.261032 -431.561677 
L 556.711212 -433.122966 
L 558.161391 -436.061363 
L 559.61157 -439.52948 
L 561.06175 -445.364488 
L 562.511929 -445.880121 
L 563.962108 -443.708884 
L 565.412288 -436.286249 
L 566.862467 -431.915308 
L 568.312646 -428.484646 
L 569.762826 -427.287962 
L 571.213005 -426.527861 
L 572.663184 -426.223561 
L 574.113363 -427.1792 
L 575.563543 -429.205288 
L 577.013722 -432.687289 
L 578.463901 -437.536953 
L 579.914081 -442.810218 
L 581.36426 -449.69684 
L 582.814439 -454.528782 
L 584.264619 -458.382964 
L 585.714798 -459.41308 
L 587.164977 -458.927223 
L 588.615157 -467.548555 
L 590.065336 -466.617619 
L 591.515515 -469.948513 
L 592.965695 -479.965245 
L 594.415874 -495.244083 
L 595.866053 -486.548027 
L 597.316233 -496.75576 
L 598.766412 -499.399329 
L 600.216591 -491.305926 
L 601.666771 -496.75124 
L 603.11695 -470.291985 
L 604.567129 -473.510942 
L 606.017309 -465.255019 
L 607.467488 -459.801559 
L 608.917667 -456.836697 
L 610.367847 -455.553855 
L 611.818026 -455.119462 
L 613.268205 -455.005087 
L 614.718385 -454.987786 
L 616.168564 -455.019898 
L 617.618743 -455.206995 
L 619.068923 -455.959837 
L 620.519102 -458.337644 
L 621.969281 -464.266576 
L 623.41946 -476.05613 
L 624.86964 -495.041387 
L 626.319819 -504.560427 
L 627.769998 -536.151319 
L 629.220178 -568.75719 
L 630.670357 -587.824657 
L 632.120536 -594.476183 
L 633.570716 -590.305534 
L 635.020895 -578.321879 
L 636.471074 -575.70869 
L 636.471074 -575.70869 
L 636.471074 -575.70869 
L 635.020895 -598.740294 
L 633.570716 -616.554973 
L 632.120536 -622.368595 
L 630.670357 -609.603276 
L 629.220178 -585.333763 
L 627.769998 -562.144415 
L 626.319819 -536.210653 
L 624.86964 -495.041387 
L 623.41946 -476.05613 
L 621.969281 -464.266576 
L 620.519102 -458.337644 
L 619.068923 -455.959837 
L 617.618743 -455.206995 
L 616.168564 -455.019898 
L 614.718385 -454.987786 
L 613.268205 -455.005087 
L 611.818026 -455.119462 
L 610.367847 -455.553855 
L 608.917667 -456.836697 
L 607.467488 -459.801559 
L 606.017309 -465.255019 
L 604.567129 -473.510942 
L 603.11695 -498.261641 
L 601.666771 -496.75124 
L 600.216591 -526.951029 
L 598.766412 -536.422564 
L 597.316233 -541.057874 
L 595.866053 -534.142398 
L 594.415874 -495.244083 
L 592.965695 -479.965245 
L 591.515515 -469.948513 
L 590.065336 -466.617619 
L 588.615157 -467.548555 
L 587.164977 -478.656475 
L 585.714798 -475.529567 
L 584.264619 -467.872872 
L 582.814439 -459.733067 
L 581.36426 -452.371032 
L 579.914081 -448.245402 
L 578.463901 -443.684688 
L 577.013722 -439.883094 
L 575.563543 -436.578828 
L 574.113363 -434.434867 
L 572.663184 -433.789279 
L 571.213005 -433.69833 
L 569.762826 -434.497877 
L 568.312646 -436.69472 
L 566.862467 -439.305403 
L 565.412288 -443.183324 
L 563.962108 -443.708884 
L 562.511929 -445.880121 
L 561.06175 -445.364488 
L 559.61157 -445.700392 
L 558.161391 -441.915867 
L 556.711212 -438.818355 
L 555.261032 -437.902192 
L 553.810853 -438.635746 
L 552.360674 -442.360124 
L 550.910494 -444.238994 
L 549.460315 -448.800401 
L 548.010136 -452.07227 
L 546.559956 -453.875305 
L 545.109777 -454.643889 
L 543.659598 -454.897876 
L 542.209418 -454.963222 
L 540.759239 -454.976121 
L 539.30906 -454.978215 
L 537.85888 -454.978215 
L 536.408701 -454.978215 
L 534.958522 -454.978215 
L 533.508342 -454.978215 
L 532.058163 -454.978215 
L 530.607984 -454.978215 
L 529.157804 -454.978215 
L 527.707625 -454.978215 
L 526.257446 -454.978215 
L 524.807266 -454.978215 
L 523.357087 -454.978215 
L 521.906908 -454.978215 
L 520.456729 -454.974967 
L 519.006549 -454.957035 
L 517.55637 -454.870655 
L 516.106191 -454.552805 
L 514.656011 -453.667859 
L 513.205832 -451.834834 
L 511.755653 -449.105606 
L 510.305473 -446.43362 
L 508.855294 -450.101768 
L 507.405115 -446.43362 
L 505.954935 -449.105606 
L 504.504756 -451.834834 
L 503.054577 -453.667859 
L 501.604397 -454.552805 
L 500.154218 -454.870655 
L 498.704039 -454.957035 
L 497.253859 -454.974967 
L 495.80368 -454.978215 
L 494.353501 -454.978215 
L 492.903321 -454.978215 
L 491.453142 -454.978215 
L 490.002963 -454.978215 
L 488.552783 -454.978215 
L 487.102604 -454.978215 
L 485.652425 -454.978215 
L 484.202245 -454.978215 
L 482.752066 -454.978215 
L 481.301887 -454.975882 
L 479.851707 -454.96163 
L 478.401528 -454.89059 
L 476.951349 -454.61561 
L 475.501169 -453.793133 
L 474.05099 -451.88958 
L 472.600811 -448.47997 
L 471.150632 -443.741217 
L 469.700452 -442.141556 
L 468.250273 -437.598202 
L 466.800094 -434.821784 
L 465.349914 -434.061397 
L 463.899735 -435.734076 
L 462.449556 -437.133727 
L 460.999376 -439.392364 
L 459.549197 -441.291821 
L 458.099018 -442.637721 
L 456.648838 -440.853071 
L 455.198659 -442.194166 
L 453.74848 -442.830107 
L 452.2983 -445.433397 
L 450.848121 -446.221738 
L 449.397942 -449.871448 
L 447.947762 -452.564432 
L 446.497583 -454.063539 
L 445.047404 -454.702455 
L 443.597224 -454.912358 
L 442.147045 -454.965946 
L 440.696866 -454.976581 
L 439.246686 -454.978215 
L 437.796507 -454.978215 
L 436.346328 -454.978215 
L 434.896148 -454.978215 
L 433.445969 -454.978215 
L 431.99579 -454.978215 
L 430.54561 -454.978215 
L 429.095431 -454.978215 
L 427.645252 -454.978215 
L 426.195073 -454.978215 
L 424.744893 -454.978215 
L 423.294714 -454.978215 
L 421.844535 -454.978215 
L 420.394355 -454.978215 
L 418.944176 -454.978215 
L 417.493997 -454.978215 
L 416.043817 -454.978215 
L 414.593638 -454.978215 
L 413.143459 -454.978215 
L 411.693279 -454.978215 
L 410.2431 -454.978215 
L 408.792921 -454.978215 
L 407.342741 -454.978215 
L 405.892562 -454.978215 
z
" style="stroke: #1f77b4; stroke-opacity: 0.2"/>
    </defs>
    <g clip-path="url(#paca4bbd48e)">
     <use xlink:href="#m03dfbef1da" x="0" y="720" style="fill: #1f77b4; fill-opacity: 0.2; stroke: #1f77b4; stroke-opacity: 0.2"/>
    </g>
   </g>
   <g id="PolyCollection_3">
    <defs>
     <path id="m143e8830d0" d="M 405.892562 -454.978215 
L 405.892562 -454.978215 
L 407.342741 -454.978215 
L 408.792921 -454.978215 
L 410.2431 -454.978215 
L 411.693279 -454.978215 
L 413.143459 -454.978215 
L 414.593638 -454.978215 
L 416.043817 -454.978215 
L 417.493997 -454.978215 
L 418.944176 -454.978215 
L 420.394355 -454.978215 
L 421.844535 -454.978215 
L 423.294714 -454.981592 
L 424.744893 -455.000233 
L 426.195073 -455.093309 
L 427.645252 -455.441832 
L 429.095431 -456.452276 
L 430.54561 -458.699675 
L 431.99579 -462.533343 
L 433.445969 -467.55853 
L 434.896148 -465.734262 
L 436.346328 -476.806722 
L 437.796507 -475.197546 
L 439.246686 -480.621932 
L 440.696866 -473.479846 
L 442.147045 -468.733237 
L 443.597224 -470.645388 
L 445.047404 -465.995712 
L 446.497583 -463.807296 
L 447.947762 -464.041786 
L 449.397942 -460.264157 
L 450.848121 -460.129125 
L 452.2983 -462.495214 
L 453.74848 -459.671553 
L 455.198659 -457.296708 
L 456.648838 -455.882319 
L 458.099018 -455.255961 
L 459.549197 -455.045334 
L 460.999376 -454.990955 
L 462.449556 -454.979912 
L 463.899735 -454.978215 
L 465.349914 -454.978215 
L 466.800094 -454.978215 
L 468.250273 -454.978215 
L 469.700452 -454.978215 
L 471.150632 -454.978215 
L 472.600811 -454.978215 
L 474.05099 -454.978215 
L 475.501169 -454.978215 
L 476.951349 -454.978215 
L 478.401528 -454.978215 
L 479.851707 -454.978215 
L 481.301887 -454.978215 
L 482.752066 -454.978215 
L 484.202245 -454.978215 
L 485.652425 -454.978215 
L 487.102604 -454.978215 
L 488.552783 -454.978215 
L 490.002963 -454.978215 
L 491.453142 -454.978215 
L 492.903321 -454.978215 
L 494.353501 -454.978215 
L 495.80368 -454.978215 
L 497.253859 -454.978215 
L 498.704039 -454.978215 
L 500.154218 -454.978215 
L 501.604397 -454.978215 
L 503.054577 -454.978215 
L 504.504756 -454.978215 
L 505.954935 -454.978215 
L 507.405115 -454.978215 
L 508.855294 -454.978215 
L 510.305473 -454.978215 
L 511.755653 -454.978215 
L 513.205832 -454.978215 
L 514.656011 -454.978215 
L 516.106191 -454.978215 
L 517.55637 -454.978215 
L 519.006549 -454.978215 
L 520.456729 -454.978215 
L 521.906908 -454.978215 
L 523.357087 -454.978215 
L 524.807266 -454.978215 
L 526.257446 -454.978215 
L 527.707625 -454.978215 
L 529.157804 -454.978215 
L 530.607984 -454.978215 
L 532.058163 -454.978215 
L 533.508342 -454.978215 
L 534.958522 -454.978215 
L 536.408701 -454.978215 
L 537.85888 -454.978215 
L 539.30906 -454.978215 
L 540.759239 -454.978215 
L 542.209418 -454.978215 
L 543.659598 -454.978215 
L 545.109777 -454.978215 
L 546.559956 -454.978215 
L 548.010136 -454.978215 
L 549.460315 -454.976331 
L 550.910494 -454.964409 
L 552.360674 -454.904401 
L 553.810853 -454.67127 
L 555.261032 -453.969068 
L 556.711212 -452.344018 
L 558.161391 -449.49203 
L 559.61157 -445.813461 
L 561.06175 -437.533254 
L 562.511929 -437.286919 
L 563.962108 -438.654848 
L 565.412288 -446.437257 
L 566.862467 -450.018933 
L 568.312646 -452.657922 
L 569.762826 -454.107981 
L 571.213005 -454.717955 
L 572.663184 -454.916448 
L 574.113363 -454.966855 
L 575.563543 -454.976706 
L 577.013722 -454.976205 
L 578.463901 -454.962386 
L 579.914081 -454.891082 
L 581.36426 -454.604335 
L 582.814439 -453.703794 
L 584.264619 -451.496284 
L 585.714798 -447.298257 
L 587.164977 -441.196279 
L 588.615157 -430.321203 
L 590.065336 -426.562814 
L 591.515515 -426.081121 
L 592.965695 -429.047832 
L 594.415874 -440.926017 
L 595.866053 -447.064069 
L 597.316233 -451.212053 
L 598.766412 -453.063665 
L 600.216591 -453.038794 
L 601.666771 -451.683387 
L 603.11695 -449.623691 
L 604.567129 -441.404768 
L 606.017309 -441.027428 
L 607.467488 -444.330267 
L 608.917667 -442.123175 
L 610.367847 -434.790082 
L 611.818026 -431.387431 
L 613.268205 -428.856474 
L 614.718385 -425.724081 
L 616.168564 -423.140282 
L 617.618743 -420.353782 
L 619.068923 -420.764881 
L 620.519102 -423.211958 
L 621.969281 -426.191361 
L 623.41946 -430.417913 
L 624.86964 -435.211257 
L 626.319819 -446.770205 
L 627.769998 -450.663317 
L 629.220178 -453.080669 
L 630.670357 -454.293112 
L 632.120536 -454.778257 
L 633.570716 -454.931633 
L 635.020895 -454.969754 
L 636.471074 -454.977101 
L 636.471074 -454.977101 
L 636.471074 -454.977101 
L 635.020895 -454.969754 
L 633.570716 -454.931633 
L 632.120536 -454.778257 
L 630.670357 -454.293112 
L 629.220178 -453.080669 
L 627.769998 -450.663317 
L 626.319819 -446.770205 
L 624.86964 -448.02921 
L 623.41946 -441.453609 
L 621.969281 -435.184359 
L 620.519102 -430.386749 
L 619.068923 -429.034251 
L 617.618743 -429.872989 
L 616.168564 -430.835438 
L 614.718385 -433.762408 
L 613.268205 -436.698407 
L 611.818026 -440.484211 
L 610.367847 -443.561344 
L 608.917667 -442.123175 
L 607.467488 -444.330267 
L 606.017309 -450.83611 
L 604.567129 -453.75429 
L 603.11695 -449.623691 
L 601.666771 -451.683387 
L 600.216591 -453.038794 
L 598.766412 -453.063665 
L 597.316233 -451.212053 
L 595.866053 -447.064069 
L 594.415874 -440.926017 
L 592.965695 -439.869828 
L 591.515515 -434.470534 
L 590.065336 -434.190492 
L 588.615157 -439.085073 
L 587.164977 -441.196279 
L 585.714798 -447.298257 
L 584.264619 -451.496284 
L 582.814439 -453.703794 
L 581.36426 -454.604335 
L 579.914081 -454.891082 
L 578.463901 -454.962386 
L 577.013722 -454.976205 
L 575.563543 -454.976706 
L 574.113363 -454.966855 
L 572.663184 -454.916448 
L 571.213005 -454.717955 
L 569.762826 -454.107981 
L 568.312646 -452.657922 
L 566.862467 -450.018933 
L 565.412288 -446.437257 
L 563.962108 -447.495787 
L 562.511929 -445.756266 
L 561.06175 -447.737405 
L 559.61157 -445.813461 
L 558.161391 -449.49203 
L 556.711212 -452.344018 
L 555.261032 -453.969068 
L 553.810853 -454.67127 
L 552.360674 -454.904401 
L 550.910494 -454.964409 
L 549.460315 -454.976331 
L 548.010136 -454.978215 
L 546.559956 -454.978215 
L 545.109777 -454.978215 
L 543.659598 -454.978215 
L 542.209418 -454.978215 
L 540.759239 -454.978215 
L 539.30906 -454.978215 
L 537.85888 -454.978215 
L 536.408701 -454.978215 
L 534.958522 -454.978215 
L 533.508342 -454.978215 
L 532.058163 -454.978215 
L 530.607984 -454.978215 
L 529.157804 -454.978215 
L 527.707625 -454.978215 
L 526.257446 -454.978215 
L 524.807266 -454.978215 
L 523.357087 -454.978215 
L 521.906908 -454.978215 
L 520.456729 -454.978215 
L 519.006549 -454.978215 
L 517.55637 -454.978215 
L 516.106191 -454.978215 
L 514.656011 -454.978215 
L 513.205832 -454.978215 
L 511.755653 -454.978215 
L 510.305473 -454.978215 
L 508.855294 -454.978215 
L 507.405115 -454.978215 
L 505.954935 -454.978215 
L 504.504756 -454.978215 
L 503.054577 -454.978215 
L 501.604397 -454.978215 
L 500.154218 -454.978215 
L 498.704039 -454.978215 
L 497.253859 -454.978215 
L 495.80368 -454.978215 
L 494.353501 -454.978215 
L 492.903321 -454.978215 
L 491.453142 -454.978215 
L 490.002963 -454.978215 
L 488.552783 -454.978215 
L 487.102604 -454.978215 
L 485.652425 -454.978215 
L 484.202245 -454.978215 
L 482.752066 -454.978215 
L 481.301887 -454.978215 
L 479.851707 -454.978215 
L 478.401528 -454.978215 
L 476.951349 -454.978215 
L 475.501169 -454.978215 
L 474.05099 -454.978215 
L 472.600811 -454.978215 
L 471.150632 -454.978215 
L 469.700452 -454.978215 
L 468.250273 -454.978215 
L 466.800094 -454.978215 
L 465.349914 -454.978215 
L 463.899735 -454.978215 
L 462.449556 -454.979912 
L 460.999376 -454.990955 
L 459.549197 -455.045334 
L 458.099018 -455.255961 
L 456.648838 -455.882319 
L 455.198659 -457.296708 
L 453.74848 -459.671553 
L 452.2983 -462.495214 
L 450.848121 -468.994665 
L 449.397942 -469.576608 
L 447.947762 -464.041786 
L 446.497583 -463.807296 
L 445.047404 -465.995712 
L 443.597224 -470.645388 
L 442.147045 -483.058558 
L 440.696866 -485.587547 
L 439.246686 -480.621932 
L 437.796507 -483.862816 
L 436.346328 -476.806722 
L 434.896148 -479.602902 
L 433.445969 -467.55853 
L 431.99579 -462.533343 
L 430.54561 -458.699675 
L 429.095431 -456.452276 
L 427.645252 -455.441832 
L 426.195073 -455.093309 
L 424.744893 -455.000233 
L 423.294714 -454.981592 
L 421.844535 -454.978215 
L 420.394355 -454.978215 
L 418.944176 -454.978215 
L 417.493997 -454.978215 
L 416.043817 -454.978215 
L 414.593638 -454.978215 
L 413.143459 -454.978215 
L 411.693279 -454.978215 
L 410.2431 -454.978215 
L 408.792921 -454.978215 
L 407.342741 -454.978215 
L 405.892562 -454.978215 
z
" style="stroke: #d62728; stroke-opacity: 0.2"/>
    </defs>
    <g clip-path="url(#paca4bbd48e)">
     <use xlink:href="#m143e8830d0" x="0" y="720" style="fill: #d62728; fill-opacity: 0.2; stroke: #d62728; stroke-opacity: 0.2"/>
    </g>
   </g>
   <g id="PolyCollection_4">
    <defs>
     <path id="m4a7c237712" d="M 405.892562 -454.978215 
L 405.892562 -454.978215 
L 407.342741 -454.978215 
L 408.792921 -454.978215 
L 410.2431 -454.978215 
L 411.693279 -454.978215 
L 413.143459 -454.978215 
L 414.593638 -454.978215 
L 416.043817 -454.978215 
L 417.493997 -454.978215 
L 418.944176 -454.978215 
L 420.394355 -454.978215 
L 421.844535 -454.978215 
L 423.294714 -454.978215 
L 424.744893 -454.978215 
L 426.195073 -454.978215 
L 427.645252 -454.978215 
L 429.095431 -454.978215 
L 430.54561 -454.978215 
L 431.99579 -454.978215 
L 433.445969 -454.978215 
L 434.896148 -454.978215 
L 436.346328 -454.978215 
L 437.796507 -454.978215 
L 439.246686 -454.978215 
L 440.696866 -454.978215 
L 442.147045 -454.978215 
L 443.597224 -454.978215 
L 445.047404 -454.978215 
L 446.497583 -454.978215 
L 447.947762 -454.978215 
L 449.397942 -454.978215 
L 450.848121 -454.978215 
L 452.2983 -454.978215 
L 453.74848 -454.978215 
L 455.198659 -454.978215 
L 456.648838 -454.978215 
L 458.099018 -454.978215 
L 459.549197 -454.978215 
L 460.999376 -454.978215 
L 462.449556 -454.978215 
L 463.899735 -454.978215 
L 465.349914 -454.978215 
L 466.800094 -454.978215 
L 468.250273 -454.978215 
L 469.700452 -454.978215 
L 471.150632 -454.978215 
L 472.600811 -454.978215 
L 474.05099 -454.978215 
L 475.501169 -454.978215 
L 476.951349 -454.978215 
L 478.401528 -454.978215 
L 479.851707 -454.978215 
L 481.301887 -454.978215 
L 482.752066 -454.978215 
L 484.202245 -454.978215 
L 485.652425 -454.978215 
L 487.102604 -454.978215 
L 488.552783 -454.978215 
L 490.002963 -454.978215 
L 491.453142 -454.978215 
L 492.903321 -454.978215 
L 494.353501 -454.978215 
L 495.80368 -454.978215 
L 497.253859 -454.978215 
L 498.704039 -454.978215 
L 500.154218 -454.978215 
L 501.604397 -454.978215 
L 503.054577 -454.978215 
L 504.504756 -454.980935 
L 505.954935 -454.99878 
L 507.405115 -455.089265 
L 508.855294 -455.447922 
L 510.305473 -456.551231 
L 511.755653 -459.191807 
L 513.205832 -464.083901 
L 514.656011 -471.019022 
L 516.106191 -467.50901 
L 517.55637 -473.069401 
L 519.006549 -474.60807 
L 520.456729 -470.081412 
L 521.906908 -474.10795 
L 523.357087 -470.191772 
L 524.807266 -470.338063 
L 526.257446 -473.727233 
L 527.707625 -468.70727 
L 529.157804 -469.733561 
L 530.607984 -475.780282 
L 532.058163 -474.961122 
L 533.508342 -477.554235 
L 534.958522 -475.591915 
L 536.408701 -480.480127 
L 537.85888 -483.383434 
L 539.30906 -483.509437 
L 540.759239 -481.503556 
L 542.209418 -481.025731 
L 543.659598 -481.87108 
L 545.109777 -482.476535 
L 546.559956 -484.128071 
L 548.010136 -483.754971 
L 549.460315 -478.749449 
L 550.910494 -472.288948 
L 552.360674 -468.885711 
L 553.810853 -462.403277 
L 555.261032 -458.236496 
L 556.711212 -456.14054 
L 558.161391 -455.312141 
L 559.61157 -455.054772 
L 561.06175 -454.991849 
L 562.511929 -454.979882 
L 563.962108 -454.978215 
L 565.412288 -454.978215 
L 566.862467 -454.978215 
L 568.312646 -454.978215 
L 569.762826 -454.978215 
L 571.213005 -454.978215 
L 572.663184 -454.978215 
L 574.113363 -454.978215 
L 575.563543 -454.978215 
L 577.013722 -454.978215 
L 578.463901 -454.978215 
L 579.914081 -454.978215 
L 581.36426 -454.978215 
L 582.814439 -454.977064 
L 584.264619 -454.970707 
L 585.714798 -454.940085 
L 587.164977 -454.827406 
L 588.615157 -454.513691 
L 590.065336 -453.862136 
L 591.515515 -452.884994 
L 592.965695 -451.891411 
L 594.415874 -446.317629 
L 595.866053 -451.24424 
L 597.316233 -451.197674 
L 598.766412 -450.651414 
L 600.216591 -449.681298 
L 601.666771 -444.650661 
L 603.11695 -448.3964 
L 604.567129 -447.979454 
L 606.017309 -447.36453 
L 607.467488 -442.745819 
L 608.917667 -444.6232 
L 610.367847 -449.67144 
L 611.818026 -451.818259 
L 613.268205 -453.482504 
L 614.718385 -454.417559 
L 616.168564 -454.811904 
L 617.618743 -454.939258 
L 619.068923 -454.971018 
L 620.519102 -454.977368 
L 621.969281 -454.978215 
L 623.41946 -454.978215 
L 624.86964 -454.976764 
L 626.319819 -454.967301 
L 627.769998 -454.920695 
L 629.220178 -454.740087 
L 630.670357 -454.202686 
L 632.120536 -452.988315 
L 633.570716 -450.949931 
L 635.020895 -448.536704 
L 636.471074 -442.563926 
L 636.471074 -451.105197 
L 636.471074 -451.105197 
L 635.020895 -448.536704 
L 633.570716 -450.949931 
L 632.120536 -452.988315 
L 630.670357 -454.202686 
L 629.220178 -454.740087 
L 627.769998 -454.920695 
L 626.319819 -454.967301 
L 624.86964 -454.976764 
L 623.41946 -454.978215 
L 621.969281 -454.978215 
L 620.519102 -454.977368 
L 619.068923 -454.971018 
L 617.618743 -454.939258 
L 616.168564 -454.811904 
L 614.718385 -454.417559 
L 613.268205 -453.482504 
L 611.818026 -451.818259 
L 610.367847 -449.67144 
L 608.917667 -451.037196 
L 607.467488 -451.388616 
L 606.017309 -447.36453 
L 604.567129 -447.979454 
L 603.11695 -448.3964 
L 601.666771 -453.042372 
L 600.216591 -449.681298 
L 598.766412 -450.651414 
L 597.316233 -451.197674 
L 595.866053 -451.24424 
L 594.415874 -456.317399 
L 592.965695 -451.891411 
L 591.515515 -452.884994 
L 590.065336 -453.862136 
L 588.615157 -454.513691 
L 587.164977 -454.827406 
L 585.714798 -454.940085 
L 584.264619 -454.970707 
L 582.814439 -454.977064 
L 581.36426 -454.978215 
L 579.914081 -454.978215 
L 578.463901 -454.978215 
L 577.013722 -454.978215 
L 575.563543 -454.978215 
L 574.113363 -454.978215 
L 572.663184 -454.978215 
L 571.213005 -454.978215 
L 569.762826 -454.978215 
L 568.312646 -454.978215 
L 566.862467 -454.978215 
L 565.412288 -454.978215 
L 563.962108 -454.978215 
L 562.511929 -454.979882 
L 561.06175 -454.991849 
L 559.61157 -455.054772 
L 558.161391 -455.312141 
L 556.711212 -456.14054 
L 555.261032 -458.236496 
L 553.810853 -462.403277 
L 552.360674 -468.885711 
L 550.910494 -481.077771 
L 549.460315 -488.653891 
L 548.010136 -492.194844 
L 546.559956 -493.835511 
L 545.109777 -493.273081 
L 543.659598 -491.247336 
L 542.209418 -491.957584 
L 540.759239 -494.368413 
L 539.30906 -496.171794 
L 537.85888 -497.29979 
L 536.408701 -495.378062 
L 534.958522 -490.121942 
L 533.508342 -477.554235 
L 532.058163 -474.961122 
L 530.607984 -475.780282 
L 529.157804 -485.36208 
L 527.707625 -485.386672 
L 526.257446 -473.727233 
L 524.807266 -470.338063 
L 523.357087 -470.191772 
L 521.906908 -474.10795 
L 520.456729 -489.510519 
L 519.006549 -492.701261 
L 517.55637 -493.280262 
L 516.106191 -489.045948 
L 514.656011 -471.019022 
L 513.205832 -464.083901 
L 511.755653 -459.191807 
L 510.305473 -456.551231 
L 508.855294 -455.447922 
L 507.405115 -455.089265 
L 505.954935 -454.99878 
L 504.504756 -454.980935 
L 503.054577 -454.978215 
L 501.604397 -454.978215 
L 500.154218 -454.978215 
L 498.704039 -454.978215 
L 497.253859 -454.978215 
L 495.80368 -454.978215 
L 494.353501 -454.978215 
L 492.903321 -454.978215 
L 491.453142 -454.978215 
L 490.002963 -454.978215 
L 488.552783 -454.978215 
L 487.102604 -454.978215 
L 485.652425 -454.978215 
L 484.202245 -454.978215 
L 482.752066 -454.978215 
L 481.301887 -454.978215 
L 479.851707 -454.978215 
L 478.401528 -454.978215 
L 476.951349 -454.978215 
L 475.501169 -454.978215 
L 474.05099 -454.978215 
L 472.600811 -454.978215 
L 471.150632 -454.978215 
L 469.700452 -454.978215 
L 468.250273 -454.978215 
L 466.800094 -454.978215 
L 465.349914 -454.978215 
L 463.899735 -454.978215 
L 462.449556 -454.978215 
L 460.999376 -454.978215 
L 459.549197 -454.978215 
L 458.099018 -454.978215 
L 456.648838 -454.978215 
L 455.198659 -454.978215 
L 453.74848 -454.978215 
L 452.2983 -454.978215 
L 450.848121 -454.978215 
L 449.397942 -454.978215 
L 447.947762 -454.978215 
L 446.497583 -454.978215 
L 445.047404 -454.978215 
L 443.597224 -454.978215 
L 442.147045 -454.978215 
L 440.696866 -454.978215 
L 439.246686 -454.978215 
L 437.796507 -454.978215 
L 436.346328 -454.978215 
L 434.896148 -454.978215 
L 433.445969 -454.978215 
L 431.99579 -454.978215 
L 430.54561 -454.978215 
L 429.095431 -454.978215 
L 427.645252 -454.978215 
L 426.195073 -454.978215 
L 424.744893 -454.978215 
L 423.294714 -454.978215 
L 421.844535 -454.978215 
L 420.394355 -454.978215 
L 418.944176 -454.978215 
L 417.493997 -454.978215 
L 416.043817 -454.978215 
L 414.593638 -454.978215 
L 413.143459 -454.978215 
L 411.693279 -454.978215 
L 410.2431 -454.978215 
L 408.792921 -454.978215 
L 407.342741 -454.978215 
L 405.892562 -454.978215 
z
" style="stroke: #ff7f0e; stroke-opacity: 0.2"/>
    </defs>
    <g clip-path="url(#paca4bbd48e)">
     <use xlink:href="#m4a7c237712" x="0" y="720" style="fill: #ff7f0e; fill-opacity: 0.2; stroke: #ff7f0e; stroke-opacity: 0.2"/>
    </g>
   </g>
   <g id="matplotlib.axis_3">
    <g id="xtick_7">
     <g id="line2d_13">
      <g>
       <use xlink:href="#mf367fdedfe" x="405.863558" y="333.490909" style="stroke: #000000; stroke-width: 0.8"/>
      </g>
     </g>
     <g id="text_13">
      <!-- 0 -->
      <g transform="translate(402.682308 348.089347)scale(0.1 -0.1)">
       <use xlink:href="#DejaVuSans-30"/>
      </g>
     </g>
    </g>
    <g id="xtick_8">
     <g id="line2d_14">
      <g>
       <use xlink:href="#mf367fdedfe" x="463.870731" y="333.490909" style="stroke: #000000; stroke-width: 0.8"/>
      </g>
     </g>
     <g id="text_14">
      <!-- 2000 -->
      <g transform="translate(451.145731 348.089347)scale(0.1 -0.1)">
       <use xlink:href="#DejaVuSans-32"/>
       <use xlink:href="#DejaVuSans-30" x="63.623047"/>
       <use xlink:href="#DejaVuSans-30" x="127.246094"/>
       <use xlink:href="#DejaVuSans-30" x="190.869141"/>
      </g>
     </g>
    </g>
    <g id="xtick_9">
     <g id="line2d_15">
      <g>
       <use xlink:href="#mf367fdedfe" x="521.877904" y="333.490909" style="stroke: #000000; stroke-width: 0.8"/>
      </g>
     </g>
     <g id="text_15">
      <!-- 4000 -->
      <g transform="translate(509.152904 348.089347)scale(0.1 -0.1)">
       <use xlink:href="#DejaVuSans-34"/>
       <use xlink:href="#DejaVuSans-30" x="63.623047"/>
       <use xlink:href="#DejaVuSans-30" x="127.246094"/>
       <use xlink:href="#DejaVuSans-30" x="190.869141"/>
      </g>
     </g>
    </g>
    <g id="xtick_10">
     <g id="line2d_16">
      <g>
       <use xlink:href="#mf367fdedfe" x="579.885077" y="333.490909" style="stroke: #000000; stroke-width: 0.8"/>
      </g>
     </g>
     <g id="text_16">
      <!-- 6000 -->
      <g transform="translate(567.160077 348.089347)scale(0.1 -0.1)">
       <use xlink:href="#DejaVuSans-36"/>
       <use xlink:href="#DejaVuSans-30" x="63.623047"/>
       <use xlink:href="#DejaVuSans-30" x="127.246094"/>
       <use xlink:href="#DejaVuSans-30" x="190.869141"/>
      </g>
     </g>
    </g>
    <g id="xtick_11">
     <g id="line2d_17">
      <g>
       <use xlink:href="#mf367fdedfe" x="637.89225" y="333.490909" style="stroke: #000000; stroke-width: 0.8"/>
      </g>
     </g>
     <g id="text_17">
      <!-- 8000 -->
      <g transform="translate(625.16725 348.089347)scale(0.1 -0.1)">
       <use xlink:href="#DejaVuSans-38"/>
       <use xlink:href="#DejaVuSans-30" x="63.623047"/>
       <use xlink:href="#DejaVuSans-30" x="127.246094"/>
       <use xlink:href="#DejaVuSans-30" x="190.869141"/>
      </g>
     </g>
    </g>
   </g>
   <g id="matplotlib.axis_4">
    <g id="ytick_7">
     <g id="line2d_18">
      <g>
       <use xlink:href="#m550bb3a8d9" x="394.363636" y="315.554369" style="stroke: #000000; stroke-width: 0.8"/>
      </g>
     </g>
     <g id="text_18">
      <!-- −1 -->
      <g transform="translate(372.621449 319.353588)scale(0.1 -0.1)">
       <defs>
        <path id="DejaVuSans-2212" d="M 678 2272 
L 4684 2272 
L 4684 1741 
L 678 1741 
L 678 2272 
z
" transform="scale(0.015625)"/>
       </defs>
       <use xlink:href="#DejaVuSans-2212"/>
       <use xlink:href="#DejaVuSans-31" x="83.789062"/>
      </g>
     </g>
    </g>
    <g id="ytick_8">
     <g id="line2d_19">
      <g>
       <use xlink:href="#m550bb3a8d9" x="394.363636" y="265.021785" style="stroke: #000000; stroke-width: 0.8"/>
      </g>
     </g>
     <g id="text_19">
      <!-- 0 -->
      <g transform="translate(381.001136 268.821004)scale(0.1 -0.1)">
       <use xlink:href="#DejaVuSans-30"/>
      </g>
     </g>
    </g>
    <g id="ytick_9">
     <g id="line2d_20">
      <g>
       <use xlink:href="#m550bb3a8d9" x="394.363636" y="214.4892" style="stroke: #000000; stroke-width: 0.8"/>
      </g>
     </g>
     <g id="text_20">
      <!-- 1 -->
      <g transform="translate(381.001136 218.288419)scale(0.1 -0.1)">
       <use xlink:href="#DejaVuSans-31"/>
      </g>
     </g>
    </g>
    <g id="ytick_10">
     <g id="line2d_21">
      <g>
       <use xlink:href="#m550bb3a8d9" x="394.363636" y="163.956615" style="stroke: #000000; stroke-width: 0.8"/>
      </g>
     </g>
     <g id="text_21">
      <!-- 2 -->
      <g transform="translate(381.001136 167.755834)scale(0.1 -0.1)">
       <use xlink:href="#DejaVuSans-32"/>
      </g>
     </g>
    </g>
    <g id="ytick_11">
     <g id="line2d_22">
      <g>
       <use xlink:href="#m550bb3a8d9" x="394.363636" y="113.424031" style="stroke: #000000; stroke-width: 0.8"/>
      </g>
     </g>
     <g id="text_22">
      <!-- 3 -->
      <g transform="translate(381.001136 117.22325)scale(0.1 -0.1)">
       <defs>
        <path id="DejaVuSans-33" d="M 2597 2516 
Q 3050 2419 3304 2112 
Q 3559 1806 3559 1356 
Q 3559 666 3084 287 
Q 2609 -91 1734 -91 
Q 1441 -91 1130 -33 
Q 819 25 488 141 
L 488 750 
Q 750 597 1062 519 
Q 1375 441 1716 441 
Q 2309 441 2620 675 
Q 2931 909 2931 1356 
Q 2931 1769 2642 2001 
Q 2353 2234 1838 2234 
L 1294 2234 
L 1294 2753 
L 1863 2753 
Q 2328 2753 2575 2939 
Q 2822 3125 2822 3475 
Q 2822 3834 2567 4026 
Q 2313 4219 1838 4219 
Q 1578 4219 1281 4162 
Q 984 4106 628 3988 
L 628 4550 
Q 988 4650 1302 4700 
Q 1616 4750 1894 4750 
Q 2613 4750 3031 4423 
Q 3450 4097 3450 3541 
Q 3450 3153 3228 2886 
Q 3006 2619 2597 2516 
z
" transform="scale(0.015625)"/>
       </defs>
       <use xlink:href="#DejaVuSans-33"/>
      </g>
     </g>
    </g>
   </g>
   <g id="line2d_23">
    <path d="M 405.892562 269.587041 
L 407.342741 270.195428 
L 408.792921 271.294024 
L 410.2431 272.70789 
L 413.143459 276.015428 
L 416.043817 279.692003 
L 417.493997 281.228418 
L 418.944176 282.19027 
L 421.844535 283.010548 
L 423.294714 283.874443 
L 424.744893 285.368239 
L 426.195073 287.104101 
L 427.645252 288.548206 
L 429.095431 289.397087 
L 430.54561 289.541587 
L 431.99579 288.907665 
L 433.445969 287.52719 
L 434.896148 285.606046 
L 439.246686 278.926177 
L 440.696866 277.890107 
L 442.147045 278.369576 
L 443.597224 279.778129 
L 445.047404 280.557251 
L 446.497583 279.371287 
L 447.947762 276.209654 
L 449.397942 272.263934 
L 450.848121 268.880142 
L 452.2983 266.701129 
L 453.74848 265.614994 
L 455.198659 265.190641 
L 458.099018 265.02853 
L 462.449556 265.09536 
L 463.899735 265.336475 
L 465.349914 266.091746 
L 466.800094 267.938574 
L 468.250273 271.468979 
L 469.700452 276.751803 
L 472.600811 288.776229 
L 474.05099 293.181135 
L 475.501169 295.993748 
L 476.951349 297.593966 
L 478.401528 298.499039 
L 479.851707 299.176544 
L 481.301887 300.04112 
L 482.752066 301.442247 
L 484.202245 303.567318 
L 485.652425 306.323856 
L 488.552783 312.1011 
L 490.002963 314.241731 
L 491.453142 315.620113 
L 492.903321 316.276383 
L 494.353501 316.345293 
L 495.80368 316.129521 
L 497.253859 316.10904 
L 498.704039 316.579338 
L 500.154218 317.174925 
L 501.604397 316.904755 
L 503.054577 314.802846 
L 504.504756 310.691656 
L 505.954935 305.573412 
L 507.405115 301.289376 
L 508.855294 299.266468 
L 510.305473 299.073142 
L 511.755653 298.389933 
L 513.205832 294.941778 
L 516.106191 281.908974 
L 517.55637 278.068268 
L 519.006549 279.338393 
L 520.456729 285.460258 
L 521.906908 293.553681 
L 523.357087 299.52102 
L 524.807266 300.617808 
L 526.257446 297.399353 
L 527.707625 293.122014 
L 529.157804 290.759558 
L 530.607984 290.37941 
L 532.058163 289.530464 
L 533.508342 286.054492 
L 536.408701 273.956976 
L 537.85888 269.275634 
L 539.30906 266.643223 
L 540.759239 265.513666 
L 542.209418 265.1399 
L 545.109777 265.024802 
L 598.766412 265.021785 
L 636.471074 265.021785 
L 636.471074 265.021785 
" clip-path="url(#paca4bbd48e)" style="fill: none; stroke: #9467bd; stroke-width: 2; stroke-linecap: square"/>
   </g>
   <g id="line2d_24">
    <path d="M 405.892562 265.021785 
L 443.597224 265.087642 
L 445.047404 265.297545 
L 446.497583 265.936461 
L 447.947762 267.435568 
L 449.397942 270.128552 
L 452.2983 277.399553 
L 453.74848 279.852323 
L 455.198659 280.75804 
L 458.099018 280.770954 
L 459.549197 281.593946 
L 460.999376 283.420875 
L 463.899735 288.164252 
L 465.349914 289.224493 
L 466.800094 288.458001 
L 468.250273 285.740291 
L 469.700452 281.395704 
L 472.600811 271.52003 
L 474.05099 268.11042 
L 475.501169 266.206867 
L 476.951349 265.38439 
L 478.401528 265.10941 
L 481.301887 265.024118 
L 498.704039 265.042965 
L 500.154218 265.129345 
L 501.604397 265.447195 
L 503.054577 266.332141 
L 504.504756 268.165166 
L 507.405115 273.56638 
L 508.855294 274.70408 
L 510.305473 273.56638 
L 513.205832 268.165166 
L 514.656011 266.332141 
L 516.106191 265.447195 
L 517.55637 265.129345 
L 520.456729 265.025033 
L 542.209418 265.036778 
L 543.659598 265.102124 
L 545.109777 265.356111 
L 546.559956 266.124695 
L 548.010136 267.92773 
L 549.460315 271.199599 
L 552.360674 280.546828 
L 553.810853 284.065295 
L 555.261032 285.268065 
L 556.711212 284.029339 
L 558.161391 281.011385 
L 559.61157 277.385064 
L 561.06175 274.635512 
L 562.511929 274.119879 
L 563.962108 276.291116 
L 566.862467 284.389645 
L 568.312646 287.410317 
L 569.762826 289.10708 
L 571.213005 289.886904 
L 572.663184 289.99358 
L 574.113363 289.192966 
L 575.563543 287.107942 
L 577.013722 283.714809 
L 578.463901 279.38918 
L 579.914081 274.47219 
L 581.36426 268.966064 
L 584.264619 256.872082 
L 585.714798 252.528676 
L 587.164977 251.208151 
L 588.615157 252.451445 
L 590.065336 253.382381 
L 591.515515 250.051487 
L 592.965695 240.034755 
L 595.866053 209.654787 
L 597.316233 201.093183 
L 598.766412 202.089054 
L 600.216591 210.871522 
L 603.11695 235.723187 
L 604.567129 246.489058 
L 606.017309 254.744981 
L 607.467488 260.198441 
L 608.917667 263.163303 
L 610.367847 264.446145 
L 611.818026 264.880538 
L 614.718385 265.012214 
L 616.168564 264.980102 
L 617.618743 264.793005 
L 619.068923 264.040163 
L 620.519102 261.662356 
L 621.969281 255.733424 
L 623.41946 243.94387 
L 624.86964 224.958613 
L 626.319819 199.61446 
L 629.220178 142.954524 
L 630.670357 121.286034 
L 632.120536 111.577611 
L 633.570716 116.569747 
L 635.020895 131.468914 
L 636.471074 144.29131 
L 636.471074 144.29131 
" clip-path="url(#paca4bbd48e)" style="fill: none; stroke: #1f77b4; stroke-width: 2; stroke-linecap: square"/>
   </g>
   <g id="line2d_25">
    <path d="M 405.892562 265.021785 
L 424.744893 264.999767 
L 426.195073 264.906691 
L 427.645252 264.558168 
L 429.095431 263.547724 
L 430.54561 261.300325 
L 431.99579 257.466657 
L 434.896148 247.331418 
L 436.346328 243.193278 
L 437.796507 240.469819 
L 439.246686 239.378068 
L 440.696866 240.466303 
L 442.147045 244.104103 
L 443.597224 249.354612 
L 445.047404 254.004288 
L 446.497583 256.192704 
L 447.947762 255.958214 
L 449.397942 255.079617 
L 450.848121 255.438105 
L 452.2983 257.504786 
L 453.74848 260.328447 
L 455.198659 262.703292 
L 456.648838 264.117681 
L 458.099018 264.744039 
L 459.549197 264.954666 
L 463.899735 265.021785 
L 552.360674 265.095599 
L 553.810853 265.32873 
L 555.261032 266.030932 
L 556.711212 267.655982 
L 558.161391 270.50797 
L 559.61157 274.186539 
L 561.06175 277.36467 
L 562.511929 278.478408 
L 563.962108 276.924683 
L 566.862467 269.981067 
L 568.312646 267.342078 
L 569.762826 265.892019 
L 571.213005 265.282045 
L 572.663184 265.083552 
L 577.013722 265.023795 
L 579.914081 265.108918 
L 581.36426 265.395665 
L 582.814439 266.296206 
L 584.264619 268.503716 
L 585.714798 272.701743 
L 588.615157 285.296862 
L 590.065336 289.623347 
L 591.515515 289.724172 
L 592.965695 285.54117 
L 595.866053 272.935931 
L 597.316233 268.787947 
L 598.766412 266.936335 
L 600.216591 266.961206 
L 601.666771 268.316613 
L 604.567129 272.420471 
L 607.467488 275.669733 
L 608.917667 277.876825 
L 610.367847 280.824287 
L 613.268205 287.222559 
L 614.718385 290.256756 
L 616.168564 293.01214 
L 617.618743 294.886615 
L 619.068923 295.100434 
L 620.519102 293.200647 
L 621.969281 289.31214 
L 623.41946 284.064239 
L 624.86964 278.379766 
L 626.319819 273.229795 
L 627.769998 269.336683 
L 629.220178 266.919331 
L 630.670357 265.706888 
L 632.120536 265.221743 
L 633.570716 265.068367 
L 636.471074 265.022899 
L 636.471074 265.022899 
" clip-path="url(#paca4bbd48e)" style="fill: none; stroke: #d62728; stroke-width: 2; stroke-linecap: square"/>
   </g>
   <g id="line2d_26">
    <path d="M 405.892562 265.021785 
L 507.405115 264.910735 
L 508.855294 264.552078 
L 510.305473 263.448769 
L 511.755653 260.808193 
L 513.205832 255.916099 
L 516.106191 241.722521 
L 517.55637 236.825169 
L 519.006549 236.345334 
L 520.456729 240.204035 
L 521.906908 245.89205 
L 523.357087 249.808228 
L 524.807266 249.661937 
L 527.707625 242.953029 
L 529.157804 242.452179 
L 530.607984 244.219718 
L 532.058163 245.038878 
L 533.508342 242.445765 
L 536.408701 232.070905 
L 537.85888 229.658388 
L 539.30906 230.159385 
L 540.759239 232.064015 
L 542.209418 233.508343 
L 543.659598 233.440792 
L 545.109777 232.125192 
L 546.559956 231.018209 
L 548.010136 232.025093 
L 549.460315 236.29833 
L 550.910494 243.31664 
L 552.360674 251.114289 
L 553.810853 257.596723 
L 555.261032 261.763504 
L 556.711212 263.85946 
L 558.161391 264.687859 
L 559.61157 264.945228 
L 562.511929 265.020118 
L 585.714798 265.059915 
L 587.164977 265.172594 
L 588.615157 265.486309 
L 590.065336 266.137864 
L 592.965695 268.108589 
L 594.415874 268.682486 
L 597.316233 268.802326 
L 598.766412 269.348586 
L 600.216591 270.318702 
L 601.666771 271.153484 
L 604.567129 272.020546 
L 606.017309 272.63547 
L 607.467488 272.932783 
L 608.917667 272.169802 
L 610.367847 270.32856 
L 611.818026 268.181741 
L 613.268205 266.517496 
L 614.718385 265.582441 
L 616.168564 265.188096 
L 619.068923 265.028982 
L 627.769998 265.079305 
L 629.220178 265.259913 
L 630.670357 265.797314 
L 632.120536 267.011685 
L 633.570716 269.050069 
L 635.020895 271.463296 
L 636.471074 273.165438 
L 636.471074 273.165438 
" clip-path="url(#paca4bbd48e)" style="fill: none; stroke: #ff7f0e; stroke-width: 2; stroke-linecap: square"/>
   </g>
   <g id="LineCollection_1">
    <path d="M 521.877904 316.133895 
L 521.877904 130.189539 
" clip-path="url(#paca4bbd48e)" style="fill: none; stroke-dasharray: 7.4,3.2; stroke-dashoffset: 0; stroke: #000000; stroke-width: 2"/>
    <path d="M 536.379697 316.133895 
L 536.379697 130.189539 
" clip-path="url(#paca4bbd48e)" style="fill: none; stroke-dasharray: 7.4,3.2; stroke-dashoffset: 0; stroke: #000000; stroke-width: 2"/>
    <path d="M 565.383284 316.133895 
L 565.383284 130.189539 
" clip-path="url(#paca4bbd48e)" style="fill: none; stroke-dasharray: 7.4,3.2; stroke-dashoffset: 0; stroke: #000000; stroke-width: 2"/>
    <path d="M 623.390457 316.133895 
L 623.390457 130.189539 
" clip-path="url(#paca4bbd48e)" style="fill: none; stroke-dasharray: 7.4,3.2; stroke-dashoffset: 0; stroke: #000000; stroke-width: 2"/>
   </g>
   <g id="patch_8">
    <path d="M 394.363636 333.490909 
L 394.363636 86.4 
" style="fill: none; stroke: #000000; stroke-width: 0.8; stroke-linejoin: miter; stroke-linecap: square"/>
   </g>
   <g id="patch_9">
    <path d="M 648 333.490909 
L 648 86.4 
" style="fill: none; stroke: #000000; stroke-width: 0.8; stroke-linejoin: miter; stroke-linecap: square"/>
   </g>
   <g id="patch_10">
    <path d="M 394.363636 333.490909 
L 648 333.490909 
" style="fill: none; stroke: #000000; stroke-width: 0.8; stroke-linejoin: miter; stroke-linecap: square"/>
   </g>
   <g id="patch_11">
    <path d="M 394.363636 86.4 
L 648 86.4 
" style="fill: none; stroke: #000000; stroke-width: 0.8; stroke-linejoin: miter; stroke-linecap: square"/>
   </g>
   <g id="text_23">
    <!-- unit_51 -->
    <g transform="translate(498.922756 80.4)scale(0.12 -0.12)">
     <defs>
      <path id="DejaVuSans-75" d="M 544 1381 
L 544 3500 
L 1119 3500 
L 1119 1403 
Q 1119 906 1312 657 
Q 1506 409 1894 409 
Q 2359 409 2629 706 
Q 2900 1003 2900 1516 
L 2900 3500 
L 3475 3500 
L 3475 0 
L 2900 0 
L 2900 538 
Q 2691 219 2414 64 
Q 2138 -91 1772 -91 
Q 1169 -91 856 284 
Q 544 659 544 1381 
z
M 1991 3584 
L 1991 3584 
z
" transform="scale(0.015625)"/>
      <path id="DejaVuSans-6e" d="M 3513 2113 
L 3513 0 
L 2938 0 
L 2938 2094 
Q 2938 2591 2744 2837 
Q 2550 3084 2163 3084 
Q 1697 3084 1428 2787 
Q 1159 2491 1159 1978 
L 1159 0 
L 581 0 
L 581 3500 
L 1159 3500 
L 1159 2956 
Q 1366 3272 1645 3428 
Q 1925 3584 2291 3584 
Q 2894 3584 3203 3211 
Q 3513 2838 3513 2113 
z
" transform="scale(0.015625)"/>
      <path id="DejaVuSans-69" d="M 603 3500 
L 1178 3500 
L 1178 0 
L 603 0 
L 603 3500 
z
M 603 4863 
L 1178 4863 
L 1178 4134 
L 603 4134 
L 603 4863 
z
" transform="scale(0.015625)"/>
      <path id="DejaVuSans-74" d="M 1172 4494 
L 1172 3500 
L 2356 3500 
L 2356 3053 
L 1172 3053 
L 1172 1153 
Q 1172 725 1289 603 
Q 1406 481 1766 481 
L 2356 481 
L 2356 0 
L 1766 0 
Q 1100 0 847 248 
Q 594 497 594 1153 
L 594 3053 
L 172 3053 
L 172 3500 
L 594 3500 
L 594 4494 
L 1172 4494 
z
" transform="scale(0.015625)"/>
      <path id="DejaVuSans-5f" d="M 3263 -1063 
L 3263 -1509 
L -63 -1509 
L -63 -1063 
L 3263 -1063 
z
" transform="scale(0.015625)"/>
      <path id="DejaVuSans-35" d="M 691 4666 
L 3169 4666 
L 3169 4134 
L 1269 4134 
L 1269 2991 
Q 1406 3038 1543 3061 
Q 1681 3084 1819 3084 
Q 2600 3084 3056 2656 
Q 3513 2228 3513 1497 
Q 3513 744 3044 326 
Q 2575 -91 1722 -91 
Q 1428 -91 1123 -41 
Q 819 9 494 109 
L 494 744 
Q 775 591 1075 516 
Q 1375 441 1709 441 
Q 2250 441 2565 725 
Q 2881 1009 2881 1497 
Q 2881 1984 2565 2268 
Q 2250 2553 1709 2553 
Q 1456 2553 1204 2497 
Q 953 2441 691 2322 
L 691 4666 
z
" transform="scale(0.015625)"/>
     </defs>
     <use xlink:href="#DejaVuSans-75"/>
     <use xlink:href="#DejaVuSans-6e" x="63.378906"/>
     <use xlink:href="#DejaVuSans-69" x="126.757812"/>
     <use xlink:href="#DejaVuSans-74" x="154.541016"/>
     <use xlink:href="#DejaVuSans-5f" x="193.75"/>
     <use xlink:href="#DejaVuSans-35" x="243.75"/>
     <use xlink:href="#DejaVuSans-31" x="307.373047"/>
    </g>
   </g>
  </g>
  <g id="axes_3">
   <g id="patch_12">
    <path d="M 90 630 
L 343.636364 630 
L 343.636364 382.909091 
L 90 382.909091 
z
" style="fill: #ffffff"/>
   </g>
   <g id="matplotlib.axis_5">
    <g id="xtick_12">
     <g id="line2d_27">
      <g>
       <use xlink:href="#mf367fdedfe" x="90" y="630" style="stroke: #000000; stroke-width: 0.8"/>
      </g>
     </g>
     <g id="text_24">
      <!-- 0.0 -->
      <g transform="translate(82.048438 644.598437)scale(0.1 -0.1)">
       <use xlink:href="#DejaVuSans-30"/>
       <use xlink:href="#DejaVuSans-2e" x="63.623047"/>
       <use xlink:href="#DejaVuSans-30" x="95.410156"/>
      </g>
     </g>
    </g>
    <g id="xtick_13">
     <g id="line2d_28">
      <g>
       <use xlink:href="#mf367fdedfe" x="140.727273" y="630" style="stroke: #000000; stroke-width: 0.8"/>
      </g>
     </g>
     <g id="text_25">
      <!-- 0.2 -->
      <g transform="translate(132.77571 644.598437)scale(0.1 -0.1)">
       <use xlink:href="#DejaVuSans-30"/>
       <use xlink:href="#DejaVuSans-2e" x="63.623047"/>
       <use xlink:href="#DejaVuSans-32" x="95.410156"/>
      </g>
     </g>
    </g>
    <g id="xtick_14">
     <g id="line2d_29">
      <g>
       <use xlink:href="#mf367fdedfe" x="191.454545" y="630" style="stroke: #000000; stroke-width: 0.8"/>
      </g>
     </g>
     <g id="text_26">
      <!-- 0.4 -->
      <g transform="translate(183.502983 644.598437)scale(0.1 -0.1)">
       <use xlink:href="#DejaVuSans-30"/>
       <use xlink:href="#DejaVuSans-2e" x="63.623047"/>
       <use xlink:href="#DejaVuSans-34" x="95.410156"/>
      </g>
     </g>
    </g>
    <g id="xtick_15">
     <g id="line2d_30">
      <g>
       <use xlink:href="#mf367fdedfe" x="242.181818" y="630" style="stroke: #000000; stroke-width: 0.8"/>
      </g>
     </g>
     <g id="text_27">
      <!-- 0.6 -->
      <g transform="translate(234.230256 644.598437)scale(0.1 -0.1)">
       <use xlink:href="#DejaVuSans-30"/>
       <use xlink:href="#DejaVuSans-2e" x="63.623047"/>
       <use xlink:href="#DejaVuSans-36" x="95.410156"/>
      </g>
     </g>
    </g>
    <g id="xtick_16">
     <g id="line2d_31">
      <g>
       <use xlink:href="#mf367fdedfe" x="292.909091" y="630" style="stroke: #000000; stroke-width: 0.8"/>
      </g>
     </g>
     <g id="text_28">
      <!-- 0.8 -->
      <g transform="translate(284.957528 644.598437)scale(0.1 -0.1)">
       <use xlink:href="#DejaVuSans-30"/>
       <use xlink:href="#DejaVuSans-2e" x="63.623047"/>
       <use xlink:href="#DejaVuSans-38" x="95.410156"/>
      </g>
     </g>
    </g>
    <g id="xtick_17">
     <g id="line2d_32">
      <g>
       <use xlink:href="#mf367fdedfe" x="343.636364" y="630" style="stroke: #000000; stroke-width: 0.8"/>
      </g>
     </g>
     <g id="text_29">
      <!-- 1.0 -->
      <g transform="translate(335.684801 644.598437)scale(0.1 -0.1)">
       <use xlink:href="#DejaVuSans-31"/>
       <use xlink:href="#DejaVuSans-2e" x="63.623047"/>
       <use xlink:href="#DejaVuSans-30" x="95.410156"/>
      </g>
     </g>
    </g>
   </g>
   <g id="matplotlib.axis_6">
    <g id="ytick_12">
     <g id="line2d_33">
      <g>
       <use xlink:href="#m550bb3a8d9" x="90" y="630" style="stroke: #000000; stroke-width: 0.8"/>
      </g>
     </g>
     <g id="text_30">
      <!-- 0.0 -->
      <g transform="translate(67.096875 633.799219)scale(0.1 -0.1)">
       <use xlink:href="#DejaVuSans-30"/>
       <use xlink:href="#DejaVuSans-2e" x="63.623047"/>
       <use xlink:href="#DejaVuSans-30" x="95.410156"/>
      </g>
     </g>
    </g>
    <g id="ytick_13">
     <g id="line2d_34">
      <g>
       <use xlink:href="#m550bb3a8d9" x="90" y="580.581818" style="stroke: #000000; stroke-width: 0.8"/>
      </g>
     </g>
     <g id="text_31">
      <!-- 0.2 -->
      <g transform="translate(67.096875 584.381037)scale(0.1 -0.1)">
       <use xlink:href="#DejaVuSans-30"/>
       <use xlink:href="#DejaVuSans-2e" x="63.623047"/>
       <use xlink:href="#DejaVuSans-32" x="95.410156"/>
      </g>
     </g>
    </g>
    <g id="ytick_14">
     <g id="line2d_35">
      <g>
       <use xlink:href="#m550bb3a8d9" x="90" y="531.163636" style="stroke: #000000; stroke-width: 0.8"/>
      </g>
     </g>
     <g id="text_32">
      <!-- 0.4 -->
      <g transform="translate(67.096875 534.962855)scale(0.1 -0.1)">
       <use xlink:href="#DejaVuSans-30"/>
       <use xlink:href="#DejaVuSans-2e" x="63.623047"/>
       <use xlink:href="#DejaVuSans-34" x="95.410156"/>
      </g>
     </g>
    </g>
    <g id="ytick_15">
     <g id="line2d_36">
      <g>
       <use xlink:href="#m550bb3a8d9" x="90" y="481.745455" style="stroke: #000000; stroke-width: 0.8"/>
      </g>
     </g>
     <g id="text_33">
      <!-- 0.6 -->
      <g transform="translate(67.096875 485.544673)scale(0.1 -0.1)">
       <use xlink:href="#DejaVuSans-30"/>
       <use xlink:href="#DejaVuSans-2e" x="63.623047"/>
       <use xlink:href="#DejaVuSans-36" x="95.410156"/>
      </g>
     </g>
    </g>
    <g id="ytick_16">
     <g id="line2d_37">
      <g>
       <use xlink:href="#m550bb3a8d9" x="90" y="432.327273" style="stroke: #000000; stroke-width: 0.8"/>
      </g>
     </g>
     <g id="text_34">
      <!-- 0.8 -->
      <g transform="translate(67.096875 436.126491)scale(0.1 -0.1)">
       <use xlink:href="#DejaVuSans-30"/>
       <use xlink:href="#DejaVuSans-2e" x="63.623047"/>
       <use xlink:href="#DejaVuSans-38" x="95.410156"/>
      </g>
     </g>
    </g>
    <g id="ytick_17">
     <g id="line2d_38">
      <g>
       <use xlink:href="#m550bb3a8d9" x="90" y="382.909091" style="stroke: #000000; stroke-width: 0.8"/>
      </g>
     </g>
     <g id="text_35">
      <!-- 1.0 -->
      <g transform="translate(67.096875 386.70831)scale(0.1 -0.1)">
       <use xlink:href="#DejaVuSans-31"/>
       <use xlink:href="#DejaVuSans-2e" x="63.623047"/>
       <use xlink:href="#DejaVuSans-30" x="95.410156"/>
      </g>
     </g>
    </g>
   </g>
   <g id="patch_13">
    <path d="M 90 630 
L 90 382.909091 
" style="fill: none; stroke: #000000; stroke-width: 0.8; stroke-linejoin: miter; stroke-linecap: square"/>
   </g>
   <g id="patch_14">
    <path d="M 343.636364 630 
L 343.636364 382.909091 
" style="fill: none; stroke: #000000; stroke-width: 0.8; stroke-linejoin: miter; stroke-linecap: square"/>
   </g>
   <g id="patch_15">
    <path d="M 90 630 
L 343.636364 630 
" style="fill: none; stroke: #000000; stroke-width: 0.8; stroke-linejoin: miter; stroke-linecap: square"/>
   </g>
   <g id="patch_16">
    <path d="M 90 382.909091 
L 343.636364 382.909091 
" style="fill: none; stroke: #000000; stroke-width: 0.8; stroke-linejoin: miter; stroke-linecap: square"/>
   </g>
  </g>
  <g id="axes_4">
   <g id="patch_17">
    <path d="M 394.363636 630 
L 648 630 
L 648 382.909091 
L 394.363636 382.909091 
z
" style="fill: #ffffff"/>
   </g>
   <g id="matplotlib.axis_7">
    <g id="xtick_18">
     <g id="line2d_39">
      <g>
       <use xlink:href="#mf367fdedfe" x="405.863558" y="630" style="stroke: #000000; stroke-width: 0.8"/>
      </g>
     </g>
     <g id="text_36">
      <!-- 0 -->
      <g transform="translate(402.682308 644.598437)scale(0.1 -0.1)">
       <use xlink:href="#DejaVuSans-30"/>
      </g>
     </g>
    </g>
    <g id="xtick_19">
     <g id="line2d_40">
      <g>
       <use xlink:href="#mf367fdedfe" x="463.870731" y="630" style="stroke: #000000; stroke-width: 0.8"/>
      </g>
     </g>
     <g id="text_37">
      <!-- 2000 -->
      <g transform="translate(451.145731 644.598437)scale(0.1 -0.1)">
       <use xlink:href="#DejaVuSans-32"/>
       <use xlink:href="#DejaVuSans-30" x="63.623047"/>
       <use xlink:href="#DejaVuSans-30" x="127.246094"/>
       <use xlink:href="#DejaVuSans-30" x="190.869141"/>
      </g>
     </g>
    </g>
    <g id="xtick_20">
     <g id="line2d_41">
      <g>
       <use xlink:href="#mf367fdedfe" x="521.877904" y="630" style="stroke: #000000; stroke-width: 0.8"/>
      </g>
     </g>
     <g id="text_38">
      <!-- 4000 -->
      <g transform="translate(509.152904 644.598437)scale(0.1 -0.1)">
       <use xlink:href="#DejaVuSans-34"/>
       <use xlink:href="#DejaVuSans-30" x="63.623047"/>
       <use xlink:href="#DejaVuSans-30" x="127.246094"/>
       <use xlink:href="#DejaVuSans-30" x="190.869141"/>
      </g>
     </g>
    </g>
    <g id="xtick_21">
     <g id="line2d_42">
      <g>
       <use xlink:href="#mf367fdedfe" x="579.885077" y="630" style="stroke: #000000; stroke-width: 0.8"/>
      </g>
     </g>
     <g id="text_39">
      <!-- 6000 -->
      <g transform="translate(567.160077 644.598437)scale(0.1 -0.1)">
       <use xlink:href="#DejaVuSans-36"/>
       <use xlink:href="#DejaVuSans-30" x="63.623047"/>
       <use xlink:href="#DejaVuSans-30" x="127.246094"/>
       <use xlink:href="#DejaVuSans-30" x="190.869141"/>
      </g>
     </g>
    </g>
    <g id="xtick_22">
     <g id="line2d_43">
      <g>
       <use xlink:href="#mf367fdedfe" x="637.89225" y="630" style="stroke: #000000; stroke-width: 0.8"/>
      </g>
     </g>
     <g id="text_40">
      <!-- 8000 -->
      <g transform="translate(625.16725 644.598437)scale(0.1 -0.1)">
       <use xlink:href="#DejaVuSans-38"/>
       <use xlink:href="#DejaVuSans-30" x="63.623047"/>
       <use xlink:href="#DejaVuSans-30" x="127.246094"/>
       <use xlink:href="#DejaVuSans-30" x="190.869141"/>
      </g>
     </g>
    </g>
   </g>
   <g id="matplotlib.axis_8">
    <g id="ytick_18">
     <g id="line2d_44">
      <g>
       <use xlink:href="#m550bb3a8d9" x="394.363636" y="630" style="stroke: #000000; stroke-width: 0.8"/>
      </g>
     </g>
     <g id="text_41">
      <!-- −2 -->
      <g transform="translate(372.621449 633.799219)scale(0.1 -0.1)">
       <use xlink:href="#DejaVuSans-2212"/>
       <use xlink:href="#DejaVuSans-32" x="83.789062"/>
      </g>
     </g>
    </g>
    <g id="ytick_19">
     <g id="line2d_45">
      <g>
       <use xlink:href="#m550bb3a8d9" x="394.363636" y="598.74743" style="stroke: #000000; stroke-width: 0.8"/>
      </g>
     </g>
     <g id="text_42">
      <!-- 0 -->
      <g transform="translate(381.001136 602.546649)scale(0.1 -0.1)">
       <use xlink:href="#DejaVuSans-30"/>
      </g>
     </g>
    </g>
    <g id="ytick_20">
     <g id="line2d_46">
      <g>
       <use xlink:href="#m550bb3a8d9" x="394.363636" y="567.494861" style="stroke: #000000; stroke-width: 0.8"/>
      </g>
     </g>
     <g id="text_43">
      <!-- 2 -->
      <g transform="translate(381.001136 571.29408)scale(0.1 -0.1)">
       <use xlink:href="#DejaVuSans-32"/>
      </g>
     </g>
    </g>
    <g id="ytick_21">
     <g id="line2d_47">
      <g>
       <use xlink:href="#m550bb3a8d9" x="394.363636" y="536.242291" style="stroke: #000000; stroke-width: 0.8"/>
      </g>
     </g>
     <g id="text_44">
      <!-- 4 -->
      <g transform="translate(381.001136 540.04151)scale(0.1 -0.1)">
       <use xlink:href="#DejaVuSans-34"/>
      </g>
     </g>
    </g>
    <g id="ytick_22">
     <g id="line2d_48">
      <g>
       <use xlink:href="#m550bb3a8d9" x="394.363636" y="504.989722" style="stroke: #000000; stroke-width: 0.8"/>
      </g>
     </g>
     <g id="text_45">
      <!-- 6 -->
      <g transform="translate(381.001136 508.78894)scale(0.1 -0.1)">
       <use xlink:href="#DejaVuSans-36"/>
      </g>
     </g>
    </g>
    <g id="ytick_23">
     <g id="line2d_49">
      <g>
       <use xlink:href="#m550bb3a8d9" x="394.363636" y="473.737152" style="stroke: #000000; stroke-width: 0.8"/>
      </g>
     </g>
     <g id="text_46">
      <!-- 8 -->
      <g transform="translate(381.001136 477.536371)scale(0.1 -0.1)">
       <use xlink:href="#DejaVuSans-38"/>
      </g>
     </g>
    </g>
    <g id="ytick_24">
     <g id="line2d_50">
      <g>
       <use xlink:href="#m550bb3a8d9" x="394.363636" y="442.484583" style="stroke: #000000; stroke-width: 0.8"/>
      </g>
     </g>
     <g id="text_47">
      <!-- 10 -->
      <g transform="translate(374.638636 446.283801)scale(0.1 -0.1)">
       <use xlink:href="#DejaVuSans-31"/>
       <use xlink:href="#DejaVuSans-30" x="63.623047"/>
      </g>
     </g>
    </g>
    <g id="ytick_25">
     <g id="line2d_51">
      <g>
       <use xlink:href="#m550bb3a8d9" x="394.363636" y="411.232013" style="stroke: #000000; stroke-width: 0.8"/>
      </g>
     </g>
     <g id="text_48">
      <!-- 12 -->
      <g transform="translate(374.638636 415.031232)scale(0.1 -0.1)">
       <use xlink:href="#DejaVuSans-31"/>
       <use xlink:href="#DejaVuSans-32" x="63.623047"/>
      </g>
     </g>
    </g>
   </g>
   <g id="line2d_52">
    <path d="M 405.892562 614.591601 
L 407.342741 621.097094 
L 408.792921 630.35205 
L 410.2431 636.732259 
L 411.693279 634.252394 
L 413.143459 629.151898 
L 414.593638 624.88712 
L 416.043817 608.251576 
L 417.493997 568.383743 
L 418.944176 533.27211 
L 420.394355 534.019091 
L 421.844535 552.714433 
L 423.294714 560.593963 
L 424.744893 543.785716 
L 426.195073 525.622332 
L 427.645252 530.081797 
L 429.095431 544.73645 
L 430.54561 556.475837 
L 431.99579 575.707633 
L 433.445969 622.50102 
L 434.896148 650.017794 
L 436.346328 602.706839 
L 437.796507 612.309607 
L 439.173496 721 
M 443.100413 721 
L 443.597224 666.550125 
L 445.047404 551.262596 
L 446.497583 535.358451 
L 447.947762 574.101746 
L 449.397942 607.971956 
L 450.848121 617.721596 
L 452.2983 601.570476 
L 453.74848 588.761943 
L 455.198659 591.664157 
L 456.648838 599.154197 
L 458.099018 602.997877 
L 459.549197 600.591799 
L 460.999376 596.518064 
L 462.449556 593.149248 
L 463.899735 590.329174 
L 465.349914 588.982834 
L 466.800094 591.279654 
L 468.250273 595.641092 
L 469.700452 616.580669 
L 471.150632 672.381844 
L 472.131689 721 
M 477.48476 721 
L 478.401528 657.267439 
L 479.851707 617.838698 
L 481.301887 630.037447 
L 482.752066 645.386636 
L 483.724237 721 
M 492.506711 721 
L 492.903321 608.136367 
L 494.353501 484.909206 
L 495.80368 477.645701 
L 497.253859 524.107913 
L 500.154218 670.35854 
L 501.604397 712.344333 
L 502.081778 721 
M 508.12852 721 
L 508.855294 689.409215 
L 509.490947 721 
M 522.652297 721 
L 523.357087 662.276102 
L 524.807266 584.187587 
L 526.257446 569.73347 
L 527.707625 588.73772 
L 529.157804 616.693417 
L 530.607984 635.803006 
L 532.058163 635.061467 
L 533.508342 614.060862 
L 534.958522 581.021864 
L 536.408701 558.011809 
L 537.85888 559.744323 
L 540.759239 595.471923 
L 542.209418 600.066911 
L 543.659598 595.256413 
L 545.109777 583.79298 
L 546.559956 558.54731 
L 548.010136 537.625851 
L 549.460315 557.182195 
L 550.910494 584.284569 
L 552.360674 590.766467 
L 553.810853 590.481018 
L 555.261032 591.387238 
L 556.711212 595.139165 
L 558.161391 603.144166 
L 559.61157 627.439624 
L 561.06175 664.499334 
L 562.511929 679.258752 
L 563.962108 658.05441 
L 565.412288 621.516996 
L 566.862467 600.573466 
L 568.312646 596.828787 
L 569.762826 596.027196 
L 571.213005 594.229703 
L 572.663184 592.770914 
L 574.113363 591.099718 
L 575.563543 591.175993 
L 578.463901 597.989182 
L 579.914081 600.773545 
L 581.36426 606.902119 
L 582.814439 619.866445 
L 584.264619 642.110716 
L 585.714798 674.939241 
L 586.802008 721 
M 614.511197 721 
L 614.718385 715.415708 
L 616.168564 688.26546 
L 617.618743 682.838947 
L 619.068923 664.787915 
L 620.519102 669.512906 
L 621.969281 691.733319 
L 623.468614 721 
M 627.311327 721 
L 629.220178 471.534287 
L 630.670357 400.917293 
L 632.120536 382.909091 
L 633.570716 401.895028 
L 635.020895 506.285843 
L 636.471074 657.228437 
L 636.471074 657.228437 
" clip-path="url(#pa00ed4e3b1)" style="fill: none; stroke: #1f77b4; stroke-width: 1.5; stroke-linecap: square"/>
   </g>
   <g id="patch_18">
    <path d="M 394.363636 630 
L 394.363636 382.909091 
" style="fill: none; stroke: #000000; stroke-width: 0.8; stroke-linejoin: miter; stroke-linecap: square"/>
   </g>
   <g id="patch_19">
    <path d="M 648 630 
L 648 382.909091 
" style="fill: none; stroke: #000000; stroke-width: 0.8; stroke-linejoin: miter; stroke-linecap: square"/>
   </g>
   <g id="patch_20">
    <path d="M 394.363636 630 
L 648 630 
" style="fill: none; stroke: #000000; stroke-width: 0.8; stroke-linejoin: miter; stroke-linecap: square"/>
   </g>
   <g id="patch_21">
    <path d="M 394.363636 382.909091 
L 648 382.909091 
" style="fill: none; stroke: #000000; stroke-width: 0.8; stroke-linejoin: miter; stroke-linecap: square"/>
   </g>
   <g id="text_49">
    <!-- explained variance -->
    <g transform="translate(464.181818 376.909091)scale(0.12 -0.12)">
     <defs>
      <path id="DejaVuSans-65" d="M 3597 1894 
L 3597 1613 
L 953 1613 
Q 991 1019 1311 708 
Q 1631 397 2203 397 
Q 2534 397 2845 478 
Q 3156 559 3463 722 
L 3463 178 
Q 3153 47 2828 -22 
Q 2503 -91 2169 -91 
Q 1331 -91 842 396 
Q 353 884 353 1716 
Q 353 2575 817 3079 
Q 1281 3584 2069 3584 
Q 2775 3584 3186 3129 
Q 3597 2675 3597 1894 
z
M 3022 2063 
Q 3016 2534 2758 2815 
Q 2500 3097 2075 3097 
Q 1594 3097 1305 2825 
Q 1016 2553 972 2059 
L 3022 2063 
z
" transform="scale(0.015625)"/>
      <path id="DejaVuSans-78" d="M 3513 3500 
L 2247 1797 
L 3578 0 
L 2900 0 
L 1881 1375 
L 863 0 
L 184 0 
L 1544 1831 
L 300 3500 
L 978 3500 
L 1906 2253 
L 2834 3500 
L 3513 3500 
z
" transform="scale(0.015625)"/>
      <path id="DejaVuSans-70" d="M 1159 525 
L 1159 -1331 
L 581 -1331 
L 581 3500 
L 1159 3500 
L 1159 2969 
Q 1341 3281 1617 3432 
Q 1894 3584 2278 3584 
Q 2916 3584 3314 3078 
Q 3713 2572 3713 1747 
Q 3713 922 3314 415 
Q 2916 -91 2278 -91 
Q 1894 -91 1617 61 
Q 1341 213 1159 525 
z
M 3116 1747 
Q 3116 2381 2855 2742 
Q 2594 3103 2138 3103 
Q 1681 3103 1420 2742 
Q 1159 2381 1159 1747 
Q 1159 1113 1420 752 
Q 1681 391 2138 391 
Q 2594 391 2855 752 
Q 3116 1113 3116 1747 
z
" transform="scale(0.015625)"/>
      <path id="DejaVuSans-6c" d="M 603 4863 
L 1178 4863 
L 1178 0 
L 603 0 
L 603 4863 
z
" transform="scale(0.015625)"/>
      <path id="DejaVuSans-61" d="M 2194 1759 
Q 1497 1759 1228 1600 
Q 959 1441 959 1056 
Q 959 750 1161 570 
Q 1363 391 1709 391 
Q 2188 391 2477 730 
Q 2766 1069 2766 1631 
L 2766 1759 
L 2194 1759 
z
M 3341 1997 
L 3341 0 
L 2766 0 
L 2766 531 
Q 2569 213 2275 61 
Q 1981 -91 1556 -91 
Q 1019 -91 701 211 
Q 384 513 384 1019 
Q 384 1609 779 1909 
Q 1175 2209 1959 2209 
L 2766 2209 
L 2766 2266 
Q 2766 2663 2505 2880 
Q 2244 3097 1772 3097 
Q 1472 3097 1187 3025 
Q 903 2953 641 2809 
L 641 3341 
Q 956 3463 1253 3523 
Q 1550 3584 1831 3584 
Q 2591 3584 2966 3190 
Q 3341 2797 3341 1997 
z
" transform="scale(0.015625)"/>
      <path id="DejaVuSans-64" d="M 2906 2969 
L 2906 4863 
L 3481 4863 
L 3481 0 
L 2906 0 
L 2906 525 
Q 2725 213 2448 61 
Q 2172 -91 1784 -91 
Q 1150 -91 751 415 
Q 353 922 353 1747 
Q 353 2572 751 3078 
Q 1150 3584 1784 3584 
Q 2172 3584 2448 3432 
Q 2725 3281 2906 2969 
z
M 947 1747 
Q 947 1113 1208 752 
Q 1469 391 1925 391 
Q 2381 391 2643 752 
Q 2906 1113 2906 1747 
Q 2906 2381 2643 2742 
Q 2381 3103 1925 3103 
Q 1469 3103 1208 2742 
Q 947 2381 947 1747 
z
" transform="scale(0.015625)"/>
      <path id="DejaVuSans-20" transform="scale(0.015625)"/>
      <path id="DejaVuSans-76" d="M 191 3500 
L 800 3500 
L 1894 563 
L 2988 3500 
L 3597 3500 
L 2284 0 
L 1503 0 
L 191 3500 
z
" transform="scale(0.015625)"/>
      <path id="DejaVuSans-72" d="M 2631 2963 
Q 2534 3019 2420 3045 
Q 2306 3072 2169 3072 
Q 1681 3072 1420 2755 
Q 1159 2438 1159 1844 
L 1159 0 
L 581 0 
L 581 3500 
L 1159 3500 
L 1159 2956 
Q 1341 3275 1631 3429 
Q 1922 3584 2338 3584 
Q 2397 3584 2469 3576 
Q 2541 3569 2628 3553 
L 2631 2963 
z
" transform="scale(0.015625)"/>
      <path id="DejaVuSans-63" d="M 3122 3366 
L 3122 2828 
Q 2878 2963 2633 3030 
Q 2388 3097 2138 3097 
Q 1578 3097 1268 2742 
Q 959 2388 959 1747 
Q 959 1106 1268 751 
Q 1578 397 2138 397 
Q 2388 397 2633 464 
Q 2878 531 3122 666 
L 3122 134 
Q 2881 22 2623 -34 
Q 2366 -91 2075 -91 
Q 1284 -91 818 406 
Q 353 903 353 1747 
Q 353 2603 823 3093 
Q 1294 3584 2113 3584 
Q 2378 3584 2631 3529 
Q 2884 3475 3122 3366 
z
" transform="scale(0.015625)"/>
     </defs>
     <use xlink:href="#DejaVuSans-65"/>
     <use xlink:href="#DejaVuSans-78" x="59.773438"/>
     <use xlink:href="#DejaVuSans-70" x="118.953125"/>
     <use xlink:href="#DejaVuSans-6c" x="182.429688"/>
     <use xlink:href="#DejaVuSans-61" x="210.212891"/>
     <use xlink:href="#DejaVuSans-69" x="271.492188"/>
     <use xlink:href="#DejaVuSans-6e" x="299.275391"/>
     <use xlink:href="#DejaVuSans-65" x="362.654297"/>
     <use xlink:href="#DejaVuSans-64" x="424.177734"/>
     <use xlink:href="#DejaVuSans-20" x="487.654297"/>
     <use xlink:href="#DejaVuSans-76" x="519.441406"/>
     <use xlink:href="#DejaVuSans-61" x="578.621094"/>
     <use xlink:href="#DejaVuSans-72" x="639.900391"/>
     <use xlink:href="#DejaVuSans-69" x="681.013672"/>
     <use xlink:href="#DejaVuSans-61" x="708.796875"/>
     <use xlink:href="#DejaVuSans-6e" x="770.076172"/>
     <use xlink:href="#DejaVuSans-63" x="833.455078"/>
     <use xlink:href="#DejaVuSans-65" x="888.435547"/>
    </g>
   </g>
  </g>
 </g>
 <defs>
  <clipPath id="paca4bbd48e">
   <rect x="394.363636" y="86.4" width="253.636364" height="247.090909"/>
  </clipPath>
  <clipPath id="pa00ed4e3b1">
   <rect x="394.363636" y="382.909091" width="253.636364" height="247.090909"/>
  </clipPath>
 </defs>
</svg>
