<?xml version="1.0" encoding="utf-8" standalone="no"?>
<!DOCTYPE svg PUBLIC "-//W3C//DTD SVG 1.1//EN"
  "http://www.w3.org/Graphics/SVG/1.1/DTD/svg11.dtd">
<svg xmlns:xlink="http://www.w3.org/1999/xlink" width="720pt" height="720pt" viewBox="0 0 720 720" xmlns="http://www.w3.org/2000/svg" version="1.1">
 <metadata>
  <rdf:RDF xmlns:dc="http://purl.org/dc/elements/1.1/" xmlns:cc="http://creativecommons.org/ns#" xmlns:rdf="http://www.w3.org/1999/02/22-rdf-syntax-ns#">
   <cc:Work>
    <dc:type rdf:resource="http://purl.org/dc/dcmitype/StillImage"/>
    <dc:date>2023-12-19T18:23:05.399382</dc:date>
    <dc:format>image/svg+xml</dc:format>
    <dc:creator>
     <cc:Agent>
      <dc:title>Matplotlib v3.5.2, https://matplotlib.org/</dc:title>
     </cc:Agent>
    </dc:creator>
   </cc:Work>
  </rdf:RDF>
 </metadata>
 <defs>
  <style type="text/css">*{stroke-linejoin: round; stroke-linecap: butt}</style>
 </defs>
 <g id="figure_1">
  <g id="patch_1">
   <path d="M 0 720 
L 720 720 
L 720 0 
L 0 0 
z
" style="fill: #ffffff"/>
  </g>
  <g id="axes_1">
   <g id="patch_2">
    <path d="M 90 333.490909 
L 343.636364 333.490909 
L 343.636364 86.4 
L 90 86.4 
z
" style="fill: #ffffff"/>
   </g>
   <g id="matplotlib.axis_1">
    <g id="xtick_1">
     <g id="line2d_1">
      <defs>
       <path id="ma30b567735" d="M 0 0 
L 0 3.5 
" style="stroke: #000000; stroke-width: 0.8"/>
      </defs>
      <g>
       <use xlink:href="#ma30b567735" x="90" y="333.490909" style="stroke: #000000; stroke-width: 0.8"/>
      </g>
     </g>
     <g id="text_1">
      <!-- 0.0 -->
      <g transform="translate(82.048438 348.089347)scale(0.1 -0.1)">
       <defs>
        <path id="DejaVuSans-30" d="M 2034 4250 
Q 1547 4250 1301 3770 
Q 1056 3291 1056 2328 
Q 1056 1369 1301 889 
Q 1547 409 2034 409 
Q 2525 409 2770 889 
Q 3016 1369 3016 2328 
Q 3016 3291 2770 3770 
Q 2525 4250 2034 4250 
z
M 2034 4750 
Q 2819 4750 3233 4129 
Q 3647 3509 3647 2328 
Q 3647 1150 3233 529 
Q 2819 -91 2034 -91 
Q 1250 -91 836 529 
Q 422 1150 422 2328 
Q 422 3509 836 4129 
Q 1250 4750 2034 4750 
z
" transform="scale(0.015625)"/>
        <path id="DejaVuSans-2e" d="M 684 794 
L 1344 794 
L 1344 0 
L 684 0 
L 684 794 
z
" transform="scale(0.015625)"/>
       </defs>
       <use xlink:href="#DejaVuSans-30"/>
       <use xlink:href="#DejaVuSans-2e" x="63.623047"/>
       <use xlink:href="#DejaVuSans-30" x="95.410156"/>
      </g>
     </g>
    </g>
    <g id="xtick_2">
     <g id="line2d_2">
      <g>
       <use xlink:href="#ma30b567735" x="140.727273" y="333.490909" style="stroke: #000000; stroke-width: 0.8"/>
      </g>
     </g>
     <g id="text_2">
      <!-- 0.2 -->
      <g transform="translate(132.77571 348.089347)scale(0.1 -0.1)">
       <defs>
        <path id="DejaVuSans-32" d="M 1228 531 
L 3431 531 
L 3431 0 
L 469 0 
L 469 531 
Q 828 903 1448 1529 
Q 2069 2156 2228 2338 
Q 2531 2678 2651 2914 
Q 2772 3150 2772 3378 
Q 2772 3750 2511 3984 
Q 2250 4219 1831 4219 
Q 1534 4219 1204 4116 
Q 875 4013 500 3803 
L 500 4441 
Q 881 4594 1212 4672 
Q 1544 4750 1819 4750 
Q 2544 4750 2975 4387 
Q 3406 4025 3406 3419 
Q 3406 3131 3298 2873 
Q 3191 2616 2906 2266 
Q 2828 2175 2409 1742 
Q 1991 1309 1228 531 
z
" transform="scale(0.015625)"/>
       </defs>
       <use xlink:href="#DejaVuSans-30"/>
       <use xlink:href="#DejaVuSans-2e" x="63.623047"/>
       <use xlink:href="#DejaVuSans-32" x="95.410156"/>
      </g>
     </g>
    </g>
    <g id="xtick_3">
     <g id="line2d_3">
      <g>
       <use xlink:href="#ma30b567735" x="191.454545" y="333.490909" style="stroke: #000000; stroke-width: 0.8"/>
      </g>
     </g>
     <g id="text_3">
      <!-- 0.4 -->
      <g transform="translate(183.502983 348.089347)scale(0.1 -0.1)">
       <defs>
        <path id="DejaVuSans-34" d="M 2419 4116 
L 825 1625 
L 2419 1625 
L 2419 4116 
z
M 2253 4666 
L 3047 4666 
L 3047 1625 
L 3713 1625 
L 3713 1100 
L 3047 1100 
L 3047 0 
L 2419 0 
L 2419 1100 
L 313 1100 
L 313 1709 
L 2253 4666 
z
" transform="scale(0.015625)"/>
       </defs>
       <use xlink:href="#DejaVuSans-30"/>
       <use xlink:href="#DejaVuSans-2e" x="63.623047"/>
       <use xlink:href="#DejaVuSans-34" x="95.410156"/>
      </g>
     </g>
    </g>
    <g id="xtick_4">
     <g id="line2d_4">
      <g>
       <use xlink:href="#ma30b567735" x="242.181818" y="333.490909" style="stroke: #000000; stroke-width: 0.8"/>
      </g>
     </g>
     <g id="text_4">
      <!-- 0.6 -->
      <g transform="translate(234.230256 348.089347)scale(0.1 -0.1)">
       <defs>
        <path id="DejaVuSans-36" d="M 2113 2584 
Q 1688 2584 1439 2293 
Q 1191 2003 1191 1497 
Q 1191 994 1439 701 
Q 1688 409 2113 409 
Q 2538 409 2786 701 
Q 3034 994 3034 1497 
Q 3034 2003 2786 2293 
Q 2538 2584 2113 2584 
z
M 3366 4563 
L 3366 3988 
Q 3128 4100 2886 4159 
Q 2644 4219 2406 4219 
Q 1781 4219 1451 3797 
Q 1122 3375 1075 2522 
Q 1259 2794 1537 2939 
Q 1816 3084 2150 3084 
Q 2853 3084 3261 2657 
Q 3669 2231 3669 1497 
Q 3669 778 3244 343 
Q 2819 -91 2113 -91 
Q 1303 -91 875 529 
Q 447 1150 447 2328 
Q 447 3434 972 4092 
Q 1497 4750 2381 4750 
Q 2619 4750 2861 4703 
Q 3103 4656 3366 4563 
z
" transform="scale(0.015625)"/>
       </defs>
       <use xlink:href="#DejaVuSans-30"/>
       <use xlink:href="#DejaVuSans-2e" x="63.623047"/>
       <use xlink:href="#DejaVuSans-36" x="95.410156"/>
      </g>
     </g>
    </g>
    <g id="xtick_5">
     <g id="line2d_5">
      <g>
       <use xlink:href="#ma30b567735" x="292.909091" y="333.490909" style="stroke: #000000; stroke-width: 0.8"/>
      </g>
     </g>
     <g id="text_5">
      <!-- 0.8 -->
      <g transform="translate(284.957528 348.089347)scale(0.1 -0.1)">
       <defs>
        <path id="DejaVuSans-38" d="M 2034 2216 
Q 1584 2216 1326 1975 
Q 1069 1734 1069 1313 
Q 1069 891 1326 650 
Q 1584 409 2034 409 
Q 2484 409 2743 651 
Q 3003 894 3003 1313 
Q 3003 1734 2745 1975 
Q 2488 2216 2034 2216 
z
M 1403 2484 
Q 997 2584 770 2862 
Q 544 3141 544 3541 
Q 544 4100 942 4425 
Q 1341 4750 2034 4750 
Q 2731 4750 3128 4425 
Q 3525 4100 3525 3541 
Q 3525 3141 3298 2862 
Q 3072 2584 2669 2484 
Q 3125 2378 3379 2068 
Q 3634 1759 3634 1313 
Q 3634 634 3220 271 
Q 2806 -91 2034 -91 
Q 1263 -91 848 271 
Q 434 634 434 1313 
Q 434 1759 690 2068 
Q 947 2378 1403 2484 
z
M 1172 3481 
Q 1172 3119 1398 2916 
Q 1625 2713 2034 2713 
Q 2441 2713 2670 2916 
Q 2900 3119 2900 3481 
Q 2900 3844 2670 4047 
Q 2441 4250 2034 4250 
Q 1625 4250 1398 4047 
Q 1172 3844 1172 3481 
z
" transform="scale(0.015625)"/>
       </defs>
       <use xlink:href="#DejaVuSans-30"/>
       <use xlink:href="#DejaVuSans-2e" x="63.623047"/>
       <use xlink:href="#DejaVuSans-38" x="95.410156"/>
      </g>
     </g>
    </g>
    <g id="xtick_6">
     <g id="line2d_6">
      <g>
       <use xlink:href="#ma30b567735" x="343.636364" y="333.490909" style="stroke: #000000; stroke-width: 0.8"/>
      </g>
     </g>
     <g id="text_6">
      <!-- 1.0 -->
      <g transform="translate(335.684801 348.089347)scale(0.1 -0.1)">
       <defs>
        <path id="DejaVuSans-31" d="M 794 531 
L 1825 531 
L 1825 4091 
L 703 3866 
L 703 4441 
L 1819 4666 
L 2450 4666 
L 2450 531 
L 3481 531 
L 3481 0 
L 794 0 
L 794 531 
z
" transform="scale(0.015625)"/>
       </defs>
       <use xlink:href="#DejaVuSans-31"/>
       <use xlink:href="#DejaVuSans-2e" x="63.623047"/>
       <use xlink:href="#DejaVuSans-30" x="95.410156"/>
      </g>
     </g>
    </g>
   </g>
   <g id="matplotlib.axis_2">
    <g id="ytick_1">
     <g id="line2d_7">
      <defs>
       <path id="m5cb5e8b823" d="M 0 0 
L -3.5 0 
" style="stroke: #000000; stroke-width: 0.8"/>
      </defs>
      <g>
       <use xlink:href="#m5cb5e8b823" x="90" y="333.490909" style="stroke: #000000; stroke-width: 0.8"/>
      </g>
     </g>
     <g id="text_7">
      <!-- 0.0 -->
      <g transform="translate(67.096875 337.290128)scale(0.1 -0.1)">
       <use xlink:href="#DejaVuSans-30"/>
       <use xlink:href="#DejaVuSans-2e" x="63.623047"/>
       <use xlink:href="#DejaVuSans-30" x="95.410156"/>
      </g>
     </g>
    </g>
    <g id="ytick_2">
     <g id="line2d_8">
      <g>
       <use xlink:href="#m5cb5e8b823" x="90" y="284.072727" style="stroke: #000000; stroke-width: 0.8"/>
      </g>
     </g>
     <g id="text_8">
      <!-- 0.2 -->
      <g transform="translate(67.096875 287.871946)scale(0.1 -0.1)">
       <use xlink:href="#DejaVuSans-30"/>
       <use xlink:href="#DejaVuSans-2e" x="63.623047"/>
       <use xlink:href="#DejaVuSans-32" x="95.410156"/>
      </g>
     </g>
    </g>
    <g id="ytick_3">
     <g id="line2d_9">
      <g>
       <use xlink:href="#m5cb5e8b823" x="90" y="234.654545" style="stroke: #000000; stroke-width: 0.8"/>
      </g>
     </g>
     <g id="text_9">
      <!-- 0.4 -->
      <g transform="translate(67.096875 238.453764)scale(0.1 -0.1)">
       <use xlink:href="#DejaVuSans-30"/>
       <use xlink:href="#DejaVuSans-2e" x="63.623047"/>
       <use xlink:href="#DejaVuSans-34" x="95.410156"/>
      </g>
     </g>
    </g>
    <g id="ytick_4">
     <g id="line2d_10">
      <g>
       <use xlink:href="#m5cb5e8b823" x="90" y="185.236364" style="stroke: #000000; stroke-width: 0.8"/>
      </g>
     </g>
     <g id="text_10">
      <!-- 0.6 -->
      <g transform="translate(67.096875 189.035582)scale(0.1 -0.1)">
       <use xlink:href="#DejaVuSans-30"/>
       <use xlink:href="#DejaVuSans-2e" x="63.623047"/>
       <use xlink:href="#DejaVuSans-36" x="95.410156"/>
      </g>
     </g>
    </g>
    <g id="ytick_5">
     <g id="line2d_11">
      <g>
       <use xlink:href="#m5cb5e8b823" x="90" y="135.818182" style="stroke: #000000; stroke-width: 0.8"/>
      </g>
     </g>
     <g id="text_11">
      <!-- 0.8 -->
      <g transform="translate(67.096875 139.617401)scale(0.1 -0.1)">
       <use xlink:href="#DejaVuSans-30"/>
       <use xlink:href="#DejaVuSans-2e" x="63.623047"/>
       <use xlink:href="#DejaVuSans-38" x="95.410156"/>
      </g>
     </g>
    </g>
    <g id="ytick_6">
     <g id="line2d_12">
      <g>
       <use xlink:href="#m5cb5e8b823" x="90" y="86.4" style="stroke: #000000; stroke-width: 0.8"/>
      </g>
     </g>
     <g id="text_12">
      <!-- 1.0 -->
      <g transform="translate(67.096875 90.199219)scale(0.1 -0.1)">
       <use xlink:href="#DejaVuSans-31"/>
       <use xlink:href="#DejaVuSans-2e" x="63.623047"/>
       <use xlink:href="#DejaVuSans-30" x="95.410156"/>
      </g>
     </g>
    </g>
   </g>
   <g id="patch_3">
    <path d="M 90 333.490909 
L 90 86.4 
" style="fill: none; stroke: #000000; stroke-width: 0.8; stroke-linejoin: miter; stroke-linecap: square"/>
   </g>
   <g id="patch_4">
    <path d="M 343.636364 333.490909 
L 343.636364 86.4 
" style="fill: none; stroke: #000000; stroke-width: 0.8; stroke-linejoin: miter; stroke-linecap: square"/>
   </g>
   <g id="patch_5">
    <path d="M 90 333.490909 
L 343.636364 333.490909 
" style="fill: none; stroke: #000000; stroke-width: 0.8; stroke-linejoin: miter; stroke-linecap: square"/>
   </g>
   <g id="patch_6">
    <path d="M 90 86.4 
L 343.636364 86.4 
" style="fill: none; stroke: #000000; stroke-width: 0.8; stroke-linejoin: miter; stroke-linecap: square"/>
   </g>
  </g>
  <g id="axes_2">
   <g id="patch_7">
    <path d="M 394.363636 333.490909 
L 648 333.490909 
L 648 86.4 
L 394.363636 86.4 
z
" style="fill: #ffffff"/>
   </g>
   <g id="PolyCollection_1">
    <defs>
     <path id="ma60c3a53e1" d="M 405.892562 -408.758914 
L 405.892562 -399.964775 
L 407.342741 -399.415992 
L 408.792921 -397.740496 
L 410.2431 -399.149977 
L 411.693279 -404.190086 
L 413.143459 -407.103403 
L 414.593638 -409.121424 
L 416.043817 -411.229486 
L 417.493997 -410.165065 
L 418.944176 -414.795462 
L 420.394355 -429.775523 
L 421.844535 -433.120107 
L 423.294714 -423.838874 
L 424.744893 -418.56461 
L 426.195073 -414.866648 
L 427.645252 -413.709716 
L 429.095431 -417.464801 
L 430.54561 -423.127834 
L 431.99579 -440.614731 
L 433.445969 -440.899966 
L 434.896148 -459.026362 
L 436.346328 -466.442869 
L 437.796507 -471.549521 
L 439.246686 -474.380086 
L 440.696866 -475.615463 
L 442.147045 -476.035201 
L 443.597224 -476.146053 
L 445.047404 -476.168072 
L 446.497583 -476.166216 
L 447.947762 -476.133954 
L 449.397942 -475.978542 
L 450.848121 -475.406681 
L 452.2983 -473.814527 
L 453.74848 -470.516631 
L 455.198659 -465.606329 
L 456.648838 -460.799012 
L 458.099018 -447.863174 
L 459.549197 -460.792083 
L 460.999376 -465.561148 
L 462.449556 -470.287187 
L 463.899735 -472.907057 
L 465.349914 -472.611477 
L 466.800094 -469.269987 
L 468.250273 -463.582269 
L 469.700452 -457.805321 
L 471.150632 -447.589527 
L 472.600811 -455.992261 
L 474.05099 -458.28013 
L 475.501169 -457.433423 
L 476.951349 -450.96727 
L 478.401528 -432.069281 
L 479.851707 -417.497125 
L 481.301887 -405.126019 
L 482.752066 -401.567591 
L 484.202245 -405.570434 
L 485.652425 -408.572815 
L 487.102604 -423.916086 
L 488.552783 -420.71114 
L 490.002963 -424.714922 
L 491.453142 -428.050525 
L 492.903321 -436.496624 
L 494.353501 -441.613363 
L 495.80368 -453.635766 
L 497.253859 -455.464327 
L 498.704039 -466.076383 
L 500.154218 -468.182223 
L 501.604397 -472.957096 
L 503.054577 -475.73272 
L 504.504756 -476.251264 
L 505.954935 -476.292725 
L 507.405115 -476.232893 
L 508.855294 -476.192196 
L 510.305473 -476.177323 
L 511.755653 -476.1729 
L 513.205832 -476.171438 
L 514.656011 -476.1684 
L 516.106191 -476.157585 
L 517.55637 -476.127473 
L 519.006549 -476.065102 
L 520.456729 -475.972236 
L 521.906908 -475.881318 
L 523.357087 -472.825379 
L 524.807266 -475.881318 
L 526.257446 -475.969524 
L 527.707625 -476.044621 
L 529.157804 -476.019426 
L 530.607984 -475.709755 
L 532.058163 -474.707931 
L 533.508342 -472.418182 
L 534.958522 -468.561192 
L 536.408701 -463.979513 
L 537.85888 -452.792636 
L 539.30906 -451.163041 
L 540.759239 -463.908747 
L 542.209418 -468.489021 
L 543.659598 -472.370356 
L 545.109777 -474.691328 
L 546.559956 -475.736512 
L 548.010136 -476.166844 
L 549.460315 -476.566858 
L 550.910494 -477.449875 
L 552.360674 -479.244091 
L 553.810853 -481.911369 
L 555.261032 -484.522705 
L 556.711212 -476.267748 
L 558.161391 -484.522705 
L 559.61157 -481.911369 
L 561.06175 -479.244091 
L 562.511929 -477.452673 
L 563.962108 -476.587814 
L 565.412288 -476.275681 
L 566.862467 -476.181505 
L 568.312646 -476.115939 
L 569.762826 -475.925323 
L 571.213005 -475.364419 
L 572.663184 -474.07862 
L 574.113363 -471.848892 
L 575.563543 -468.994182 
L 577.013722 -460.38122 
L 578.463901 -459.248584 
L 579.914081 -465.334559 
L 581.36426 -460.162969 
L 582.814439 -466.590642 
L 584.264619 -465.771065 
L 585.714798 -458.976642 
L 587.164977 -456.447711 
L 588.615157 -455.436341 
L 590.065336 -458.428695 
L 591.515515 -456.452106 
L 592.965695 -460.715523 
L 594.415874 -457.352739 
L 595.866053 -447.027681 
L 597.316233 -442.937244 
L 598.766412 -444.464582 
L 600.216591 -450.406061 
L 601.666771 -462.950948 
L 603.11695 -468.986128 
L 604.567129 -472.761598 
L 606.017309 -474.111562 
L 607.467488 -473.335817 
L 608.917667 -470.770564 
L 610.367847 -467.086024 
L 611.818026 -458.757614 
L 613.268205 -454.933089 
L 614.718385 -459.522263 
L 616.168564 -458.72199 
L 617.618743 -454.635672 
L 619.068923 -454.65504 
L 620.519102 -464.384926 
L 621.969281 -468.509204 
L 623.41946 -471.424263 
L 624.86964 -472.605654 
L 626.319819 -469.360571 
L 627.769998 -467.963479 
L 629.220178 -473.281067 
L 630.670357 -473.899763 
L 632.120536 -474.04648 
L 633.570716 -473.386978 
L 635.020895 -472.206605 
L 636.471074 -464.665597 
L 636.471074 -477.889184 
L 636.471074 -477.889184 
L 635.020895 -472.206605 
L 633.570716 -473.386978 
L 632.120536 -474.04648 
L 630.670357 -473.899763 
L 629.220178 -473.281067 
L 627.769998 -477.633561 
L 626.319819 -476.09946 
L 624.86964 -472.605654 
L 623.41946 -471.424263 
L 621.969281 -468.509204 
L 620.519102 -464.384926 
L 619.068923 -466.718591 
L 617.618743 -462.988243 
L 616.168564 -458.72199 
L 614.718385 -459.522263 
L 613.268205 -466.961742 
L 611.818026 -468.191262 
L 610.367847 -467.086024 
L 608.917667 -470.770564 
L 607.467488 -473.335817 
L 606.017309 -474.111562 
L 604.567129 -472.761598 
L 603.11695 -468.986128 
L 601.666771 -462.950948 
L 600.216591 -461.750928 
L 598.766412 -457.489695 
L 597.316233 -456.835066 
L 595.866053 -458.586349 
L 594.415874 -457.352739 
L 592.965695 -460.715523 
L 591.515515 -467.086906 
L 590.065336 -464.31528 
L 588.615157 -466.808182 
L 587.164977 -467.60112 
L 585.714798 -468.854329 
L 584.264619 -465.771065 
L 582.814439 -466.590642 
L 581.36426 -472.224134 
L 579.914081 -465.334559 
L 578.463901 -471.084719 
L 577.013722 -472.515443 
L 575.563543 -468.994182 
L 574.113363 -471.848892 
L 572.663184 -474.07862 
L 571.213005 -475.364419 
L 569.762826 -475.925323 
L 568.312646 -476.115939 
L 566.862467 -476.181505 
L 565.412288 -476.275681 
L 563.962108 -476.587814 
L 562.511929 -477.452673 
L 561.06175 -479.244091 
L 559.61157 -481.911369 
L 558.161391 -484.522705 
L 556.711212 -495.001414 
L 555.261032 -484.522705 
L 553.810853 -481.911369 
L 552.360674 -479.244091 
L 550.910494 -477.449875 
L 549.460315 -476.566858 
L 548.010136 -476.166844 
L 546.559956 -475.736512 
L 545.109777 -474.691328 
L 543.659598 -472.370356 
L 542.209418 -468.489021 
L 540.759239 -463.908747 
L 539.30906 -470.232729 
L 537.85888 -468.663396 
L 536.408701 -463.979513 
L 534.958522 -468.561192 
L 533.508342 -472.418182 
L 532.058163 -474.707931 
L 530.607984 -475.709755 
L 529.157804 -476.019426 
L 527.707625 -476.044621 
L 526.257446 -475.969524 
L 524.807266 -475.881318 
L 523.357087 -478.859833 
L 521.906908 -475.881318 
L 520.456729 -475.972236 
L 519.006549 -476.065102 
L 517.55637 -476.127473 
L 516.106191 -476.157585 
L 514.656011 -476.1684 
L 513.205832 -476.171438 
L 511.755653 -476.1729 
L 510.305473 -476.177323 
L 508.855294 -476.192196 
L 507.405115 -476.232893 
L 505.954935 -476.292725 
L 504.504756 -476.251264 
L 503.054577 -475.73272 
L 501.604397 -475.270935 
L 500.154218 -473.579055 
L 498.704039 -466.076383 
L 497.253859 -464.921197 
L 495.80368 -453.635766 
L 494.353501 -451.81072 
L 492.903321 -443.881224 
L 491.453142 -442.145206 
L 490.002963 -438.405161 
L 488.552783 -435.896846 
L 487.102604 -423.916086 
L 485.652425 -428.55646 
L 484.202245 -423.007707 
L 482.752066 -425.785192 
L 481.301887 -431.465547 
L 479.851707 -438.151263 
L 478.401528 -447.817279 
L 476.951349 -450.96727 
L 475.501169 -457.433423 
L 474.05099 -458.28013 
L 472.600811 -455.992261 
L 471.150632 -462.300039 
L 469.700452 -457.805321 
L 468.250273 -463.582269 
L 466.800094 -469.269987 
L 465.349914 -472.611477 
L 463.899735 -472.907057 
L 462.449556 -470.287187 
L 460.999376 -465.561148 
L 459.549197 -460.792083 
L 458.099018 -469.641054 
L 456.648838 -460.799012 
L 455.198659 -465.606329 
L 453.74848 -470.516631 
L 452.2983 -473.814527 
L 450.848121 -475.406681 
L 449.397942 -475.978542 
L 447.947762 -476.133954 
L 446.497583 -476.166216 
L 445.047404 -476.168072 
L 443.597224 -476.146053 
L 442.147045 -476.035201 
L 440.696866 -475.615463 
L 439.246686 -474.380086 
L 437.796507 -471.549521 
L 436.346328 -466.442869 
L 434.896148 -459.026362 
L 433.445969 -459.19435 
L 431.99579 -440.614731 
L 430.54561 -440.662964 
L 429.095431 -432.945956 
L 427.645252 -430.111265 
L 426.195073 -430.633415 
L 424.744893 -435.237854 
L 423.294714 -439.300796 
L 421.844535 -433.120107 
L 420.394355 -429.775523 
L 418.944176 -432.073171 
L 417.493997 -425.697579 
L 416.043817 -419.233749 
L 414.593638 -418.902803 
L 413.143459 -416.638408 
L 411.693279 -412.056975 
L 410.2431 -409.49606 
L 408.792921 -407.279864 
L 407.342741 -406.761286 
L 405.892562 -408.758914 
z
" style="stroke: #9467bd; stroke-opacity: 0.2"/>
    </defs>
    <g clip-path="url(#p6949156b98)">
     <use xlink:href="#ma60c3a53e1" x="0" y="720" style="fill: #9467bd; fill-opacity: 0.2; stroke: #9467bd; stroke-opacity: 0.2"/>
    </g>
   </g>
   <g id="PolyCollection_2">
    <defs>
     <path id="mfd49177173" d="M 405.892562 -476.17206 
L 405.892562 -476.17206 
L 407.342741 -476.17206 
L 408.792921 -476.168855 
L 410.2431 -476.148245 
L 411.693279 -476.046908 
L 413.143459 -475.655701 
L 414.593638 -474.497024 
L 416.043817 -471.893463 
L 417.493997 -467.553934 
L 418.944176 -462.465754 
L 420.394355 -446.757437 
L 421.844535 -453.276817 
L 423.294714 -462.701607 
L 424.744893 -467.794839 
L 426.195073 -472.055261 
L 427.645252 -474.575137 
L 429.095431 -475.683757 
L 430.54561 -476.054533 
L 431.99579 -476.149828 
L 433.445969 -476.169142 
L 434.896148 -476.17206 
L 436.346328 -476.17206 
L 437.796507 -476.17206 
L 439.246686 -476.17206 
L 440.696866 -476.17206 
L 442.147045 -476.17206 
L 443.597224 -476.17206 
L 445.047404 -476.17206 
L 446.497583 -476.17206 
L 447.947762 -476.17206 
L 449.397942 -476.17206 
L 450.848121 -476.17206 
L 452.2983 -476.17206 
L 453.74848 -476.17206 
L 455.198659 -476.17206 
L 456.648838 -476.17206 
L 458.099018 -476.17206 
L 459.549197 -476.17206 
L 460.999376 -476.17206 
L 462.449556 -476.165562 
L 463.899735 -476.123393 
L 465.349914 -475.915829 
L 466.800094 -475.112528 
L 468.250273 -472.726064 
L 469.700452 -467.343694 
L 471.150632 -458.330689 
L 472.600811 -447.694974 
L 474.05099 -432.388613 
L 475.501169 -429.213001 
L 476.951349 -447.860281 
L 478.401528 -458.497232 
L 479.851707 -467.446078 
L 481.301887 -472.745859 
L 482.752066 -475.047958 
L 484.202245 -475.763696 
L 485.652425 -475.895352 
L 487.102604 -469.376698 
L 488.552783 -475.942905 
L 490.002963 -476.014564 
L 491.453142 -476.086262 
L 492.903321 -476.127161 
L 494.353501 -476.109774 
L 495.80368 -475.961809 
L 497.253859 -475.503401 
L 498.704039 -474.436362 
L 500.154218 -472.444867 
L 501.604397 -469.288912 
L 503.054577 -459.525465 
L 504.504756 -458.437875 
L 505.954935 -446.061643 
L 507.405115 -437.196209 
L 508.855294 -426.470219 
L 510.305473 -425.948109 
L 511.755653 -428.356636 
L 513.205832 -431.258186 
L 514.656011 -440.805589 
L 516.106191 -437.86829 
L 517.55637 -445.595646 
L 519.006549 -440.488758 
L 520.456729 -439.898152 
L 521.906908 -443.021958 
L 523.357087 -452.503673 
L 524.807266 -445.664123 
L 526.257446 -458.583699 
L 527.707625 -467.598382 
L 529.157804 -471.701507 
L 530.607984 -474.289235 
L 532.058163 -475.534868 
L 533.508342 -475.899652 
L 534.958522 -470.715256 
L 536.408701 -472.096753 
L 537.85888 -473.457951 
L 539.30906 -470.758989 
L 540.759239 -466.861592 
L 542.209418 -452.989874 
L 543.659598 -451.497854 
L 545.109777 -440.878798 
L 546.559956 -444.858281 
L 548.010136 -429.791319 
L 549.460315 -438.30516 
L 550.910494 -427.307328 
L 552.360674 -434.552527 
L 553.810853 -444.786649 
L 555.261032 -441.242861 
L 556.711212 -452.145359 
L 558.161391 -451.77898 
L 559.61157 -448.469077 
L 561.06175 -434.107132 
L 562.511929 -430.485637 
L 563.962108 -439.286781 
L 565.412288 -427.879611 
L 566.862467 -425.417792 
L 568.312646 -430.332413 
L 569.762826 -414.750782 
L 571.213005 -422.794399 
L 572.663184 -422.622149 
L 574.113363 -439.800231 
L 575.563543 -435.120585 
L 577.013722 -456.818022 
L 578.463901 -463.971063 
L 579.914081 -468.354018 
L 581.36426 -469.950062 
L 582.814439 -464.67445 
L 584.264619 -464.818181 
L 585.714798 -471.525195 
L 587.164977 -473.184267 
L 588.615157 -474.654313 
L 590.065336 -475.565004 
L 591.515515 -475.980174 
L 592.965695 -476.116762 
L 594.415874 -476.119398 
L 595.866053 -475.995573 
L 597.316233 -475.618743 
L 598.766412 -474.785709 
L 600.216591 -473.392307 
L 601.666771 -471.60949 
L 603.11695 -463.631007 
L 604.567129 -467.997998 
L 606.017309 -459.755884 
L 607.467488 -463.04177 
L 608.917667 -460.47388 
L 610.367847 -453.400407 
L 611.818026 -462.420704 
L 613.268205 -466.894964 
L 614.718385 -471.248322 
L 616.168564 -474.127703 
L 617.618743 -475.506792 
L 619.068923 -475.986996 
L 620.519102 -476.048661 
L 621.969281 -475.809213 
L 623.41946 -475.069969 
L 624.86964 -473.528281 
L 626.319819 -471.23283 
L 627.769998 -468.985523 
L 629.220178 -463.974627 
L 630.670357 -468.985523 
L 632.120536 -471.23283 
L 633.570716 -473.525549 
L 635.020895 -475.052155 
L 636.471074 -475.723798 
L 636.471074 -475.723798 
L 636.471074 -475.723798 
L 635.020895 -475.052155 
L 633.570716 -473.525549 
L 632.120536 -471.23283 
L 630.670357 -468.985523 
L 629.220178 -472.082668 
L 627.769998 -468.985523 
L 626.319819 -471.23283 
L 624.86964 -473.528281 
L 623.41946 -475.069969 
L 621.969281 -475.809213 
L 620.519102 -476.048661 
L 619.068923 -475.986996 
L 617.618743 -475.506792 
L 616.168564 -474.127703 
L 614.718385 -471.248322 
L 613.268205 -466.894964 
L 611.818026 -462.420704 
L 610.367847 -466.469432 
L 608.917667 -460.47388 
L 607.467488 -463.04177 
L 606.017309 -471.921242 
L 604.567129 -467.997998 
L 603.11695 -475.93922 
L 601.666771 -471.60949 
L 600.216591 -473.392307 
L 598.766412 -474.785709 
L 597.316233 -475.618743 
L 595.866053 -475.995573 
L 594.415874 -476.119398 
L 592.965695 -476.116762 
L 591.515515 -475.980174 
L 590.065336 -475.565004 
L 588.615157 -474.654313 
L 587.164977 -473.184267 
L 585.714798 -471.525195 
L 584.264619 -475.939088 
L 582.814439 -475.511781 
L 581.36426 -469.950062 
L 579.914081 -468.354018 
L 578.463901 -463.971063 
L 577.013722 -456.818022 
L 575.563543 -461.298807 
L 574.113363 -439.800231 
L 572.663184 -443.337781 
L 571.213005 -435.019887 
L 569.762826 -441.6513 
L 568.312646 -430.332413 
L 566.862467 -442.147285 
L 565.412288 -446.116291 
L 563.962108 -439.286781 
L 562.511929 -452.092766 
L 561.06175 -454.537173 
L 559.61157 -448.469077 
L 558.161391 -451.77898 
L 556.711212 -452.145359 
L 555.261032 -457.445037 
L 553.810853 -444.786649 
L 552.360674 -446.113364 
L 550.910494 -448.246394 
L 549.460315 -438.30516 
L 548.010136 -453.71961 
L 546.559956 -448.765585 
L 545.109777 -463.425678 
L 543.659598 -463.022817 
L 542.209418 -471.405136 
L 540.759239 -466.861592 
L 539.30906 -470.758989 
L 537.85888 -473.457951 
L 536.408701 -477.884338 
L 534.958522 -480.710227 
L 533.508342 -475.899652 
L 532.058163 -475.534868 
L 530.607984 -474.289235 
L 529.157804 -471.701507 
L 527.707625 -467.598382 
L 526.257446 -466.320129 
L 524.807266 -468.643502 
L 523.357087 -452.503673 
L 521.906908 -455.212522 
L 520.456729 -455.041187 
L 519.006549 -454.202136 
L 517.55637 -449.278476 
L 516.106191 -454.276376 
L 514.656011 -444.068509 
L 513.205832 -443.249753 
L 511.755653 -437.006436 
L 510.305473 -436.702501 
L 508.855294 -442.745572 
L 507.405115 -446.318953 
L 505.954935 -454.839072 
L 504.504756 -458.471337 
L 503.054577 -469.937629 
L 501.604397 -469.288912 
L 500.154218 -472.444867 
L 498.704039 -474.436362 
L 497.253859 -475.503401 
L 495.80368 -475.961809 
L 494.353501 -476.109774 
L 492.903321 -476.127161 
L 491.453142 -476.086262 
L 490.002963 -476.014564 
L 488.552783 -475.942905 
L 487.102604 -482.435497 
L 485.652425 -475.895352 
L 484.202245 -475.763696 
L 482.752066 -475.047958 
L 481.301887 -472.745859 
L 479.851707 -467.446078 
L 478.401528 -458.497232 
L 476.951349 -447.860281 
L 475.501169 -451.407205 
L 474.05099 -448.090512 
L 472.600811 -447.694974 
L 471.150632 -458.330689 
L 469.700452 -467.343694 
L 468.250273 -472.726064 
L 466.800094 -475.112528 
L 465.349914 -475.915829 
L 463.899735 -476.123393 
L 462.449556 -476.165562 
L 460.999376 -476.17206 
L 459.549197 -476.17206 
L 458.099018 -476.17206 
L 456.648838 -476.17206 
L 455.198659 -476.17206 
L 453.74848 -476.17206 
L 452.2983 -476.17206 
L 450.848121 -476.17206 
L 449.397942 -476.17206 
L 447.947762 -476.17206 
L 446.497583 -476.17206 
L 445.047404 -476.17206 
L 443.597224 -476.17206 
L 442.147045 -476.17206 
L 440.696866 -476.17206 
L 439.246686 -476.17206 
L 437.796507 -476.17206 
L 436.346328 -476.17206 
L 434.896148 -476.17206 
L 433.445969 -476.169142 
L 431.99579 -476.149828 
L 430.54561 -476.054533 
L 429.095431 -475.683757 
L 427.645252 -474.575137 
L 426.195073 -472.055261 
L 424.744893 -467.794839 
L 423.294714 -462.701607 
L 421.844535 -464.809622 
L 420.394355 -471.128155 
L 418.944176 -462.465754 
L 417.493997 -467.553934 
L 416.043817 -471.893463 
L 414.593638 -474.497024 
L 413.143459 -475.655701 
L 411.693279 -476.046908 
L 410.2431 -476.148245 
L 408.792921 -476.168855 
L 407.342741 -476.17206 
L 405.892562 -476.17206 
z
" style="stroke: #1f77b4; stroke-opacity: 0.2"/>
    </defs>
    <g clip-path="url(#p6949156b98)">
     <use xlink:href="#mfd49177173" x="0" y="720" style="fill: #1f77b4; fill-opacity: 0.2; stroke: #1f77b4; stroke-opacity: 0.2"/>
    </g>
   </g>
   <g id="PolyCollection_3">
    <defs>
     <path id="mb6d84ab3f7" d="M 405.892562 -476.17206 
L 405.892562 -476.17206 
L 407.342741 -476.17206 
L 408.792921 -476.17206 
L 410.2431 -476.17206 
L 411.693279 -476.17206 
L 413.143459 -476.17206 
L 414.593638 -476.17206 
L 416.043817 -476.17206 
L 417.493997 -476.17206 
L 418.944176 -476.17206 
L 420.394355 -476.174967 
L 421.844535 -476.191014 
L 423.294714 -476.271591 
L 424.744893 -476.577993 
L 426.195073 -477.482118 
L 427.645252 -479.572135 
L 429.095431 -483.422463 
L 430.54561 -489.273677 
L 431.99579 -484.510568 
L 433.445969 -506.424423 
L 434.896148 -502.841983 
L 436.346328 -516.399642 
L 437.796507 -525.934092 
L 439.246686 -533.839908 
L 440.696866 -541.041923 
L 442.147045 -538.517649 
L 443.597224 -538.594451 
L 445.047404 -534.193653 
L 446.497583 -527.128532 
L 447.947762 -524.997139 
L 449.397942 -518.475136 
L 450.848121 -514.924287 
L 452.2983 -518.856732 
L 453.74848 -521.037601 
L 455.198659 -526.444601 
L 456.648838 -535.149971 
L 458.099018 -554.66821 
L 459.549197 -558.84193 
L 460.999376 -574.014263 
L 462.449556 -587.895679 
L 463.899735 -596.095948 
L 465.349914 -603.51592 
L 466.800094 -597.338429 
L 468.250273 -582.542244 
L 469.700452 -560.601308 
L 471.150632 -547.378277 
L 472.600811 -512.4846 
L 474.05099 -506.963883 
L 475.501169 -495.929944 
L 476.951349 -479.891627 
L 478.401528 -484.744833 
L 479.851707 -481.252427 
L 481.301887 -478.707767 
L 482.752066 -477.194687 
L 484.202245 -476.499444 
L 485.652425 -476.253791 
L 487.102604 -476.189778 
L 488.552783 -476.185117 
L 490.002963 -476.225833 
L 491.453142 -476.384737 
L 492.903321 -476.827151 
L 494.353501 -477.743541 
L 495.80368 -479.107972 
L 497.253859 -480.443787 
L 498.704039 -477.944331 
L 500.154218 -480.443787 
L 501.604397 -479.107972 
L 503.054577 -477.743541 
L 504.504756 -476.827151 
L 505.954935 -476.384737 
L 507.405115 -476.225833 
L 508.855294 -476.182649 
L 510.305473 -476.173684 
L 511.755653 -476.17206 
L 513.205832 -476.17206 
L 514.656011 -476.17206 
L 516.106191 -476.170769 
L 517.55637 -476.164262 
L 519.006549 -476.134472 
L 520.456729 -476.030799 
L 521.906908 -475.769448 
L 523.357087 -475.319136 
L 524.807266 -474.888743 
L 526.257446 -474.978663 
L 527.707625 -470.22327 
L 529.157804 -473.882146 
L 530.607984 -472.25291 
L 532.058163 -479.113366 
L 533.508342 -478.771248 
L 534.958522 -478.864337 
L 536.408701 -480.326942 
L 537.85888 -483.177349 
L 539.30906 -486.173488 
L 540.759239 -476.333293 
L 542.209418 -486.139469 
L 543.659598 -483.049217 
L 545.109777 -479.992457 
L 546.559956 -478.319899 
L 548.010136 -478.595866 
L 549.460315 -481.008444 
L 550.910494 -485.353252 
L 552.360674 -490.647288 
L 553.810853 -483.21777 
L 555.261032 -499.091198 
L 556.711212 -501.21526 
L 558.161391 -490.379795 
L 559.61157 -488.650487 
L 561.06175 -492.299005 
L 562.511929 -485.823962 
L 563.962108 -480.800273 
L 565.412288 -477.935724 
L 566.862467 -476.703268 
L 568.312646 -476.298525 
L 569.762826 -476.195759 
L 571.213005 -476.175045 
L 572.663184 -476.17206 
L 574.113363 -476.17206 
L 575.563543 -476.17206 
L 577.013722 -476.17206 
L 578.463901 -476.17206 
L 579.914081 -476.17206 
L 581.36426 -476.174036 
L 582.814439 -476.188525 
L 584.264619 -476.260841 
L 585.714798 -476.54941 
L 587.164977 -477.438065 
L 588.615157 -479.528416 
L 590.065336 -483.210268 
L 591.515515 -487.851929 
L 592.965695 -483.988088 
L 594.415874 -485.051408 
L 595.866053 -489.834637 
L 597.316233 -486.231892 
L 598.766412 -483.752964 
L 600.216591 -483.193594 
L 601.666771 -477.48201 
L 603.11695 -484.346036 
L 604.567129 -480.407882 
L 606.017309 -483.977876 
L 607.467488 -478.743747 
L 608.917667 -480.082837 
L 610.367847 -483.402578 
L 611.818026 -485.726588 
L 613.268205 -489.305366 
L 614.718385 -486.902323 
L 616.168564 -489.359366 
L 617.618743 -490.175508 
L 619.068923 -486.936652 
L 620.519102 -484.314878 
L 621.969281 -476.900943 
L 623.41946 -479.017281 
L 624.86964 -478.962905 
L 626.319819 -477.473029 
L 627.769998 -476.415243 
L 629.220178 -475.621897 
L 630.670357 -474.88071 
L 632.120536 -474.230882 
L 633.570716 -471.288676 
L 635.020895 -473.954544 
L 636.471074 -474.143487 
L 636.471074 -474.143487 
L 636.471074 -474.143487 
L 635.020895 -473.954544 
L 633.570716 -476.508214 
L 632.120536 -474.230882 
L 630.670357 -474.88071 
L 629.220178 -475.621897 
L 627.769998 -476.415243 
L 626.319819 -477.473029 
L 624.86964 -478.962905 
L 623.41946 -482.411863 
L 621.969281 -487.974271 
L 620.519102 -484.314878 
L 619.068923 -486.936652 
L 617.618743 -490.175508 
L 616.168564 -495.640059 
L 614.718385 -497.492328 
L 613.268205 -489.305366 
L 611.818026 -485.726588 
L 610.367847 -483.402578 
L 608.917667 -485.572473 
L 607.467488 -487.852472 
L 606.017309 -483.977876 
L 604.567129 -488.403223 
L 603.11695 -484.346036 
L 601.666771 -490.050541 
L 600.216591 -483.193594 
L 598.766412 -483.752964 
L 597.316233 -486.231892 
L 595.866053 -489.834637 
L 594.415874 -499.455757 
L 592.965695 -499.074781 
L 591.515515 -487.851929 
L 590.065336 -483.210268 
L 588.615157 -479.528416 
L 587.164977 -477.438065 
L 585.714798 -476.54941 
L 584.264619 -476.260841 
L 582.814439 -476.188525 
L 581.36426 -476.174036 
L 579.914081 -476.17206 
L 578.463901 -476.17206 
L 577.013722 -476.17206 
L 575.563543 -476.17206 
L 574.113363 -476.17206 
L 572.663184 -476.17206 
L 571.213005 -476.175045 
L 569.762826 -476.195759 
L 568.312646 -476.298525 
L 566.862467 -476.703268 
L 565.412288 -477.935724 
L 563.962108 -480.800273 
L 562.511929 -485.823962 
L 561.06175 -492.299005 
L 559.61157 -507.570623 
L 558.161391 -512.025896 
L 556.711212 -501.21526 
L 555.261032 -499.091198 
L 553.810853 -507.771389 
L 552.360674 -490.647288 
L 550.910494 -485.353252 
L 549.460315 -481.008444 
L 548.010136 -478.595866 
L 546.559956 -478.319899 
L 545.109777 -479.992457 
L 543.659598 -483.049217 
L 542.209418 -486.139469 
L 540.759239 -498.602585 
L 539.30906 -486.173488 
L 537.85888 -483.177349 
L 536.408701 -480.326942 
L 534.958522 -478.864337 
L 533.508342 -478.771248 
L 532.058163 -479.113366 
L 530.607984 -485.405268 
L 529.157804 -481.258874 
L 527.707625 -481.729685 
L 526.257446 -474.978663 
L 524.807266 -474.888743 
L 523.357087 -475.319136 
L 521.906908 -475.769448 
L 520.456729 -476.030799 
L 519.006549 -476.134472 
L 517.55637 -476.164262 
L 516.106191 -476.170769 
L 514.656011 -476.17206 
L 513.205832 -476.17206 
L 511.755653 -476.17206 
L 510.305473 -476.173684 
L 508.855294 -476.182649 
L 507.405115 -476.225833 
L 505.954935 -476.384737 
L 504.504756 -476.827151 
L 503.054577 -477.743541 
L 501.604397 -479.107972 
L 500.154218 -480.443787 
L 498.704039 -484.080792 
L 497.253859 -480.443787 
L 495.80368 -479.107972 
L 494.353501 -477.743541 
L 492.903321 -476.827151 
L 491.453142 -476.384737 
L 490.002963 -476.225833 
L 488.552783 -476.185117 
L 487.102604 -476.189778 
L 485.652425 -476.253791 
L 484.202245 -476.499444 
L 482.752066 -477.194687 
L 481.301887 -478.707767 
L 479.851707 -481.252427 
L 478.401528 -484.744833 
L 476.951349 -498.640294 
L 475.501169 -495.929944 
L 474.05099 -506.963883 
L 472.600811 -536.058581 
L 471.150632 -547.378277 
L 469.700452 -584.573693 
L 468.250273 -606.384099 
L 466.800094 -619.726678 
L 465.349914 -622.368595 
L 463.899735 -620.5826 
L 462.449556 -606.199572 
L 460.999376 -590.555246 
L 459.549197 -575.906374 
L 458.099018 -554.66821 
L 456.648838 -554.03562 
L 455.198659 -545.985239 
L 453.74848 -537.487106 
L 452.2983 -531.147149 
L 450.848121 -534.498683 
L 449.397942 -537.581981 
L 447.947762 -541.571465 
L 446.497583 -550.88702 
L 445.047404 -555.081779 
L 443.597224 -560.997848 
L 442.147045 -568.04072 
L 440.696866 -565.464969 
L 439.246686 -563.389345 
L 437.796507 -553.872152 
L 436.346328 -541.27667 
L 434.896148 -531.655672 
L 433.445969 -506.424423 
L 431.99579 -509.510152 
L 430.54561 -489.273677 
L 429.095431 -483.422463 
L 427.645252 -479.572135 
L 426.195073 -477.482118 
L 424.744893 -476.577993 
L 423.294714 -476.271591 
L 421.844535 -476.191014 
L 420.394355 -476.174967 
L 418.944176 -476.17206 
L 417.493997 -476.17206 
L 416.043817 -476.17206 
L 414.593638 -476.17206 
L 413.143459 -476.17206 
L 411.693279 -476.17206 
L 410.2431 -476.17206 
L 408.792921 -476.17206 
L 407.342741 -476.17206 
L 405.892562 -476.17206 
z
" style="stroke: #d62728; stroke-opacity: 0.2"/>
    </defs>
    <g clip-path="url(#p6949156b98)">
     <use xlink:href="#mb6d84ab3f7" x="0" y="720" style="fill: #d62728; fill-opacity: 0.2; stroke: #d62728; stroke-opacity: 0.2"/>
    </g>
   </g>
   <g id="PolyCollection_4">
    <defs>
     <path id="m59c05cc3c7" d="M 405.892562 -476.17206 
L 405.892562 -476.17206 
L 407.342741 -476.17206 
L 408.792921 -476.17206 
L 410.2431 -476.17206 
L 411.693279 -476.17206 
L 413.143459 -476.17206 
L 414.593638 -476.17206 
L 416.043817 -476.17206 
L 417.493997 -476.17206 
L 418.944176 -476.17206 
L 420.394355 -476.17206 
L 421.844535 -476.17206 
L 423.294714 -476.17206 
L 424.744893 -476.17206 
L 426.195073 -476.17206 
L 427.645252 -476.17206 
L 429.095431 -476.17206 
L 430.54561 -476.17206 
L 431.99579 -476.17206 
L 433.445969 -476.17206 
L 434.896148 -476.17206 
L 436.346328 -476.17206 
L 437.796507 -476.17206 
L 439.246686 -476.17206 
L 440.696866 -476.17206 
L 442.147045 -476.17206 
L 443.597224 -476.17206 
L 445.047404 -476.17206 
L 446.497583 -476.17206 
L 447.947762 -476.17206 
L 449.397942 -476.17206 
L 450.848121 -476.17206 
L 452.2983 -476.17206 
L 453.74848 -476.17206 
L 455.198659 -476.17206 
L 456.648838 -476.17206 
L 458.099018 -476.17206 
L 459.549197 -476.17206 
L 460.999376 -476.17206 
L 462.449556 -476.17206 
L 463.899735 -476.17206 
L 465.349914 -476.17206 
L 466.800094 -476.17206 
L 468.250273 -476.17206 
L 469.700452 -476.17206 
L 471.150632 -476.17206 
L 472.600811 -476.17206 
L 474.05099 -476.17206 
L 475.501169 -476.17206 
L 476.951349 -476.17206 
L 478.401528 -476.17206 
L 479.851707 -476.17206 
L 481.301887 -476.17206 
L 482.752066 -476.17206 
L 484.202245 -476.177457 
L 485.652425 -476.207251 
L 487.102604 -476.350774 
L 488.552783 -476.878889 
L 490.002963 -478.349247 
L 491.453142 -481.39486 
L 492.903321 -485.929534 
L 494.353501 -490.369101 
L 495.80368 -478.802046 
L 497.253859 -490.369101 
L 498.704039 -485.929534 
L 500.154218 -481.39486 
L 501.604397 -478.349247 
L 503.054577 -476.878889 
L 504.504756 -476.350774 
L 505.954935 -476.207251 
L 507.405115 -476.177457 
L 508.855294 -476.17206 
L 510.305473 -476.17206 
L 511.755653 -476.17206 
L 513.205832 -476.17206 
L 514.656011 -476.17206 
L 516.106191 -476.17206 
L 517.55637 -476.17206 
L 519.006549 -476.17206 
L 520.456729 -476.17255 
L 521.906908 -476.175257 
L 523.357087 -476.188296 
L 524.807266 -476.236274 
L 526.257446 -476.369852 
L 527.707625 -476.646539 
L 529.157804 -477.058504 
L 530.607984 -477.461828 
L 532.058163 -472.377233 
L 533.508342 -477.461828 
L 534.958522 -477.058504 
L 536.408701 -476.646539 
L 537.85888 -476.367985 
L 539.30906 -476.224099 
L 540.759239 -476.126466 
L 542.209418 -475.930717 
L 543.659598 -475.419313 
L 545.109777 -474.365139 
L 546.559956 -472.796287 
L 548.010136 -471.260339 
L 549.460315 -463.24944 
L 550.910494 -471.260339 
L 552.360674 -472.796598 
L 553.810853 -474.36717 
L 555.261032 -475.429137 
L 556.711212 -475.967535 
L 558.161391 -476.230811 
L 559.61157 -476.435559 
L 561.06175 -476.631499 
L 562.511929 -476.677411 
L 563.962108 -470.02593 
L 565.412288 -475.573611 
L 566.862467 -474.641679 
L 568.312646 -468.391442 
L 569.762826 -473.901242 
L 571.213005 -474.172213 
L 572.663184 -474.590802 
L 574.113363 -470.485231 
L 575.563543 -476.088721 
L 577.013722 -477.329852 
L 578.463901 -478.504358 
L 579.914081 -470.83925 
L 581.36426 -478.819072 
L 582.814439 -478.012379 
L 584.264619 -477.161258 
L 585.714798 -476.585055 
L 587.164977 -476.30626 
L 588.615157 -476.205991 
L 590.065336 -476.178741 
L 591.515515 -476.173085 
L 592.965695 -476.17206 
L 594.415874 -476.17206 
L 595.866053 -476.17206 
L 597.316233 -476.17206 
L 598.766412 -476.17206 
L 600.216591 -476.17206 
L 601.666771 -476.17206 
L 603.11695 -476.17206 
L 604.567129 -476.17206 
L 606.017309 -476.17206 
L 607.467488 -476.17206 
L 608.917667 -476.17206 
L 610.367847 -476.17206 
L 611.818026 -476.17206 
L 613.268205 -476.1722 
L 614.718385 -476.172974 
L 616.168564 -476.176704 
L 617.618743 -476.190426 
L 619.068923 -476.22863 
L 620.519102 -476.307764 
L 621.969281 -476.425589 
L 623.41946 -476.540942 
L 624.86964 -474.940202 
L 626.319819 -476.540942 
L 627.769998 -476.425589 
L 629.220178 -476.307764 
L 630.670357 -476.22863 
L 632.120536 -476.190426 
L 633.570716 -476.176704 
L 635.020895 -476.172974 
L 636.471074 -476.1722 
L 636.471074 -476.1722 
L 636.471074 -476.1722 
L 635.020895 -476.172974 
L 633.570716 -476.176704 
L 632.120536 -476.190426 
L 630.670357 -476.22863 
L 629.220178 -476.307764 
L 627.769998 -476.425589 
L 626.319819 -476.540942 
L 624.86964 -478.239914 
L 623.41946 -476.540942 
L 621.969281 -476.425589 
L 620.519102 -476.307764 
L 619.068923 -476.22863 
L 617.618743 -476.190426 
L 616.168564 -476.176704 
L 614.718385 -476.172974 
L 613.268205 -476.1722 
L 611.818026 -476.17206 
L 610.367847 -476.17206 
L 608.917667 -476.17206 
L 607.467488 -476.17206 
L 606.017309 -476.17206 
L 604.567129 -476.17206 
L 603.11695 -476.17206 
L 601.666771 -476.17206 
L 600.216591 -476.17206 
L 598.766412 -476.17206 
L 597.316233 -476.17206 
L 595.866053 -476.17206 
L 594.415874 -476.17206 
L 592.965695 -476.17206 
L 591.515515 -476.173085 
L 590.065336 -476.178741 
L 588.615157 -476.205991 
L 587.164977 -476.30626 
L 585.714798 -476.585055 
L 584.264619 -477.161258 
L 582.814439 -478.012379 
L 581.36426 -478.819072 
L 579.914081 -487.313502 
L 578.463901 -478.504358 
L 577.013722 -477.329852 
L 575.563543 -476.088721 
L 574.113363 -479.856333 
L 572.663184 -474.590802 
L 571.213005 -474.172213 
L 569.762826 -473.901242 
L 568.312646 -479.624333 
L 566.862467 -474.641679 
L 565.412288 -475.573611 
L 563.962108 -482.665572 
L 562.511929 -476.677411 
L 561.06175 -476.631499 
L 559.61157 -476.435559 
L 558.161391 -476.230811 
L 556.711212 -475.967535 
L 555.261032 -475.429137 
L 553.810853 -474.36717 
L 552.360674 -472.796598 
L 550.910494 -471.260339 
L 549.460315 -477.963262 
L 548.010136 -471.260339 
L 546.559956 -472.796287 
L 545.109777 -474.365139 
L 543.659598 -475.419313 
L 542.209418 -475.930717 
L 540.759239 -476.126466 
L 539.30906 -476.224099 
L 537.85888 -476.367985 
L 536.408701 -476.646539 
L 534.958522 -477.058504 
L 533.508342 -477.461828 
L 532.058163 -482.889885 
L 530.607984 -477.461828 
L 529.157804 -477.058504 
L 527.707625 -476.646539 
L 526.257446 -476.369852 
L 524.807266 -476.236274 
L 523.357087 -476.188296 
L 521.906908 -476.175257 
L 520.456729 -476.17255 
L 519.006549 -476.17206 
L 517.55637 -476.17206 
L 516.106191 -476.17206 
L 514.656011 -476.17206 
L 513.205832 -476.17206 
L 511.755653 -476.17206 
L 510.305473 -476.17206 
L 508.855294 -476.17206 
L 507.405115 -476.177457 
L 505.954935 -476.207251 
L 504.504756 -476.350774 
L 503.054577 -476.878889 
L 501.604397 -478.349247 
L 500.154218 -481.39486 
L 498.704039 -485.929534 
L 497.253859 -490.369101 
L 495.80368 -505.716785 
L 494.353501 -490.369101 
L 492.903321 -485.929534 
L 491.453142 -481.39486 
L 490.002963 -478.349247 
L 488.552783 -476.878889 
L 487.102604 -476.350774 
L 485.652425 -476.207251 
L 484.202245 -476.177457 
L 482.752066 -476.17206 
L 481.301887 -476.17206 
L 479.851707 -476.17206 
L 478.401528 -476.17206 
L 476.951349 -476.17206 
L 475.501169 -476.17206 
L 474.05099 -476.17206 
L 472.600811 -476.17206 
L 471.150632 -476.17206 
L 469.700452 -476.17206 
L 468.250273 -476.17206 
L 466.800094 -476.17206 
L 465.349914 -476.17206 
L 463.899735 -476.17206 
L 462.449556 -476.17206 
L 460.999376 -476.17206 
L 459.549197 -476.17206 
L 458.099018 -476.17206 
L 456.648838 -476.17206 
L 455.198659 -476.17206 
L 453.74848 -476.17206 
L 452.2983 -476.17206 
L 450.848121 -476.17206 
L 449.397942 -476.17206 
L 447.947762 -476.17206 
L 446.497583 -476.17206 
L 445.047404 -476.17206 
L 443.597224 -476.17206 
L 442.147045 -476.17206 
L 440.696866 -476.17206 
L 439.246686 -476.17206 
L 437.796507 -476.17206 
L 436.346328 -476.17206 
L 434.896148 -476.17206 
L 433.445969 -476.17206 
L 431.99579 -476.17206 
L 430.54561 -476.17206 
L 429.095431 -476.17206 
L 427.645252 -476.17206 
L 426.195073 -476.17206 
L 424.744893 -476.17206 
L 423.294714 -476.17206 
L 421.844535 -476.17206 
L 420.394355 -476.17206 
L 418.944176 -476.17206 
L 417.493997 -476.17206 
L 416.043817 -476.17206 
L 414.593638 -476.17206 
L 413.143459 -476.17206 
L 411.693279 -476.17206 
L 410.2431 -476.17206 
L 408.792921 -476.17206 
L 407.342741 -476.17206 
L 405.892562 -476.17206 
z
" style="stroke: #ff7f0e; stroke-opacity: 0.2"/>
    </defs>
    <g clip-path="url(#p6949156b98)">
     <use xlink:href="#m59c05cc3c7" x="0" y="720" style="fill: #ff7f0e; fill-opacity: 0.2; stroke: #ff7f0e; stroke-opacity: 0.2"/>
    </g>
   </g>
   <g id="matplotlib.axis_3">
    <g id="xtick_7">
     <g id="line2d_13">
      <g>
       <use xlink:href="#ma30b567735" x="405.863558" y="333.490909" style="stroke: #000000; stroke-width: 0.8"/>
      </g>
     </g>
     <g id="text_13">
      <!-- 0 -->
      <g transform="translate(402.682308 348.089347)scale(0.1 -0.1)">
       <use xlink:href="#DejaVuSans-30"/>
      </g>
     </g>
    </g>
    <g id="xtick_8">
     <g id="line2d_14">
      <g>
       <use xlink:href="#ma30b567735" x="463.870731" y="333.490909" style="stroke: #000000; stroke-width: 0.8"/>
      </g>
     </g>
     <g id="text_14">
      <!-- 2000 -->
      <g transform="translate(451.145731 348.089347)scale(0.1 -0.1)">
       <use xlink:href="#DejaVuSans-32"/>
       <use xlink:href="#DejaVuSans-30" x="63.623047"/>
       <use xlink:href="#DejaVuSans-30" x="127.246094"/>
       <use xlink:href="#DejaVuSans-30" x="190.869141"/>
      </g>
     </g>
    </g>
    <g id="xtick_9">
     <g id="line2d_15">
      <g>
       <use xlink:href="#ma30b567735" x="521.877904" y="333.490909" style="stroke: #000000; stroke-width: 0.8"/>
      </g>
     </g>
     <g id="text_15">
      <!-- 4000 -->
      <g transform="translate(509.152904 348.089347)scale(0.1 -0.1)">
       <use xlink:href="#DejaVuSans-34"/>
       <use xlink:href="#DejaVuSans-30" x="63.623047"/>
       <use xlink:href="#DejaVuSans-30" x="127.246094"/>
       <use xlink:href="#DejaVuSans-30" x="190.869141"/>
      </g>
     </g>
    </g>
    <g id="xtick_10">
     <g id="line2d_16">
      <g>
       <use xlink:href="#ma30b567735" x="579.885077" y="333.490909" style="stroke: #000000; stroke-width: 0.8"/>
      </g>
     </g>
     <g id="text_16">
      <!-- 6000 -->
      <g transform="translate(567.160077 348.089347)scale(0.1 -0.1)">
       <use xlink:href="#DejaVuSans-36"/>
       <use xlink:href="#DejaVuSans-30" x="63.623047"/>
       <use xlink:href="#DejaVuSans-30" x="127.246094"/>
       <use xlink:href="#DejaVuSans-30" x="190.869141"/>
      </g>
     </g>
    </g>
    <g id="xtick_11">
     <g id="line2d_17">
      <g>
       <use xlink:href="#ma30b567735" x="637.89225" y="333.490909" style="stroke: #000000; stroke-width: 0.8"/>
      </g>
     </g>
     <g id="text_17">
      <!-- 8000 -->
      <g transform="translate(625.16725 348.089347)scale(0.1 -0.1)">
       <use xlink:href="#DejaVuSans-38"/>
       <use xlink:href="#DejaVuSans-30" x="63.623047"/>
       <use xlink:href="#DejaVuSans-30" x="127.246094"/>
       <use xlink:href="#DejaVuSans-30" x="190.869141"/>
      </g>
     </g>
    </g>
   </g>
   <g id="matplotlib.axis_4">
    <g id="ytick_7">
     <g id="line2d_18">
      <g>
       <use xlink:href="#m5cb5e8b823" x="394.363636" y="288.789428" style="stroke: #000000; stroke-width: 0.8"/>
      </g>
     </g>
     <g id="text_18">
      <!-- −0.2 -->
      <g transform="translate(363.080824 292.588647)scale(0.1 -0.1)">
       <defs>
        <path id="DejaVuSans-2212" d="M 678 2272 
L 4684 2272 
L 4684 1741 
L 678 1741 
L 678 2272 
z
" transform="scale(0.015625)"/>
       </defs>
       <use xlink:href="#DejaVuSans-2212"/>
       <use xlink:href="#DejaVuSans-30" x="83.789062"/>
       <use xlink:href="#DejaVuSans-2e" x="147.412109"/>
       <use xlink:href="#DejaVuSans-32" x="179.199219"/>
      </g>
     </g>
    </g>
    <g id="ytick_8">
     <g id="line2d_19">
      <g>
       <use xlink:href="#m5cb5e8b823" x="394.363636" y="243.82794" style="stroke: #000000; stroke-width: 0.8"/>
      </g>
     </g>
     <g id="text_19">
      <!-- 0.0 -->
      <g transform="translate(371.460511 247.627159)scale(0.1 -0.1)">
       <use xlink:href="#DejaVuSans-30"/>
       <use xlink:href="#DejaVuSans-2e" x="63.623047"/>
       <use xlink:href="#DejaVuSans-30" x="95.410156"/>
      </g>
     </g>
    </g>
    <g id="ytick_9">
     <g id="line2d_20">
      <g>
       <use xlink:href="#m5cb5e8b823" x="394.363636" y="198.866452" style="stroke: #000000; stroke-width: 0.8"/>
      </g>
     </g>
     <g id="text_20">
      <!-- 0.2 -->
      <g transform="translate(371.460511 202.66567)scale(0.1 -0.1)">
       <use xlink:href="#DejaVuSans-30"/>
       <use xlink:href="#DejaVuSans-2e" x="63.623047"/>
       <use xlink:href="#DejaVuSans-32" x="95.410156"/>
      </g>
     </g>
    </g>
    <g id="ytick_10">
     <g id="line2d_21">
      <g>
       <use xlink:href="#m5cb5e8b823" x="394.363636" y="153.904963" style="stroke: #000000; stroke-width: 0.8"/>
      </g>
     </g>
     <g id="text_21">
      <!-- 0.4 -->
      <g transform="translate(371.460511 157.704182)scale(0.1 -0.1)">
       <use xlink:href="#DejaVuSans-30"/>
       <use xlink:href="#DejaVuSans-2e" x="63.623047"/>
       <use xlink:href="#DejaVuSans-34" x="95.410156"/>
      </g>
     </g>
    </g>
    <g id="ytick_11">
     <g id="line2d_22">
      <g>
       <use xlink:href="#m5cb5e8b823" x="394.363636" y="108.943475" style="stroke: #000000; stroke-width: 0.8"/>
      </g>
     </g>
     <g id="text_22">
      <!-- 0.6 -->
      <g transform="translate(371.460511 112.742693)scale(0.1 -0.1)">
       <use xlink:href="#DejaVuSans-30"/>
       <use xlink:href="#DejaVuSans-2e" x="63.623047"/>
       <use xlink:href="#DejaVuSans-36" x="95.410156"/>
      </g>
     </g>
    </g>
   </g>
   <g id="line2d_23">
    <path d="M 405.892562 315.638155 
L 407.342741 316.911361 
L 408.792921 317.48982 
L 410.2431 315.676981 
L 413.143459 308.129094 
L 414.593638 305.987887 
L 416.043817 304.768383 
L 417.493997 302.068678 
L 418.944176 296.565683 
L 420.394355 290.224477 
L 421.844535 286.879893 
L 423.294714 288.430165 
L 424.744893 293.098768 
L 426.195073 297.249968 
L 427.645252 298.08951 
L 429.095431 294.794622 
L 430.54561 288.104601 
L 431.99579 279.385269 
L 434.896148 260.973638 
L 436.346328 253.557131 
L 437.796507 248.450479 
L 439.246686 245.619914 
L 440.696866 244.384537 
L 442.147045 243.964799 
L 445.047404 243.831928 
L 447.947762 243.866046 
L 449.397942 244.021458 
L 450.848121 244.593319 
L 452.2983 246.185473 
L 453.74848 249.483369 
L 456.648838 259.200988 
L 458.099018 261.247886 
L 459.549197 259.207917 
L 462.449556 249.712813 
L 463.899735 247.092943 
L 465.349914 247.388523 
L 466.800094 250.730013 
L 469.700452 262.194679 
L 471.150632 265.055217 
L 472.600811 264.007739 
L 474.05099 261.71987 
L 475.501169 262.566577 
L 476.951349 269.03273 
L 478.401528 280.05672 
L 479.851707 292.175806 
L 481.301887 301.704217 
L 482.752066 306.323609 
L 484.202245 305.71093 
L 485.652425 301.435363 
L 487.102604 296.083914 
L 488.552783 291.696007 
L 490.002963 288.439959 
L 491.453142 284.902134 
L 492.903321 279.811076 
L 498.704039 253.923617 
L 500.154218 249.119361 
L 501.604397 245.885984 
L 503.054577 244.26728 
L 504.504756 243.748736 
L 507.405115 243.767107 
L 513.205832 243.828562 
L 519.006549 243.934898 
L 523.357087 244.157394 
L 529.157804 243.980574 
L 530.607984 244.290245 
L 532.058163 245.292069 
L 533.508342 247.581818 
L 534.958522 251.438808 
L 536.408701 256.020487 
L 537.85888 259.271984 
L 539.30906 259.302115 
L 540.759239 256.091253 
L 542.209418 251.510979 
L 543.659598 247.629644 
L 545.109777 245.308672 
L 546.559956 244.263488 
L 549.460315 243.433142 
L 550.910494 242.550125 
L 552.360674 240.755909 
L 555.261032 235.477295 
L 556.711212 234.365419 
L 558.161391 235.477295 
L 561.06175 240.755909 
L 562.511929 242.547327 
L 563.962108 243.412186 
L 565.412288 243.724319 
L 569.762826 244.074677 
L 571.213005 244.635581 
L 572.663184 245.92138 
L 574.113363 248.151108 
L 575.563543 251.005818 
L 577.013722 253.551669 
L 578.463901 254.833349 
L 579.914081 254.665441 
L 581.36426 253.806449 
L 582.814439 253.409358 
L 584.264619 254.228935 
L 587.164977 257.975585 
L 588.615157 258.877738 
L 590.065336 258.628013 
L 591.515515 258.230494 
L 592.965695 259.284477 
L 594.415874 262.647261 
L 595.866053 267.192985 
L 597.316233 270.113845 
L 598.766412 269.022862 
L 600.216591 263.921505 
L 601.666771 257.049052 
L 603.11695 251.013872 
L 604.567129 247.238402 
L 606.017309 245.888438 
L 607.467488 246.664183 
L 608.917667 249.229436 
L 611.818026 256.525562 
L 613.268205 259.052585 
L 614.718385 260.477737 
L 616.168564 261.27801 
L 617.618743 261.188043 
L 619.068923 259.313185 
L 620.519102 255.615074 
L 621.969281 251.490796 
L 623.41946 248.575737 
L 624.86964 247.394346 
L 627.769998 247.20148 
L 629.220178 246.718933 
L 630.670357 246.100237 
L 632.120536 245.95352 
L 633.570716 246.613022 
L 635.020895 247.793395 
L 636.471074 248.72261 
L 636.471074 248.72261 
" clip-path="url(#p6949156b98)" style="fill: none; stroke: #9467bd; stroke-width: 2; stroke-linecap: square"/>
   </g>
   <g id="line2d_24">
    <path d="M 405.892562 243.82794 
L 410.2431 243.851755 
L 411.693279 243.953092 
L 413.143459 244.344299 
L 414.593638 245.502976 
L 416.043817 248.106537 
L 417.493997 252.446066 
L 418.944176 257.534246 
L 420.394355 261.057204 
L 421.844535 260.956781 
L 423.294714 257.298393 
L 424.744893 252.205161 
L 426.195073 247.944739 
L 427.645252 245.424863 
L 429.095431 244.316243 
L 430.54561 243.945467 
L 433.445969 243.830858 
L 463.899735 243.876607 
L 465.349914 244.084171 
L 466.800094 244.887472 
L 468.250273 247.273936 
L 469.700452 252.656306 
L 471.150632 261.669311 
L 472.600811 272.305026 
L 474.05099 279.760438 
L 475.501169 279.689897 
L 476.951349 272.139719 
L 478.401528 261.502768 
L 479.851707 252.553922 
L 481.301887 247.254141 
L 482.752066 244.952042 
L 484.202245 244.236304 
L 485.652425 244.104648 
L 490.002963 243.985436 
L 492.903321 243.872839 
L 494.353501 243.890226 
L 495.80368 244.038191 
L 497.253859 244.496599 
L 498.704039 245.563638 
L 500.154218 247.555133 
L 501.604397 250.711088 
L 503.054577 255.268453 
L 504.504756 261.545394 
L 505.954935 269.549642 
L 507.405115 278.242419 
L 508.855294 285.392105 
L 510.305473 288.674695 
L 511.755653 287.318464 
L 513.205832 282.74603 
L 514.656011 277.562951 
L 516.106191 273.927667 
L 517.55637 272.562939 
L 519.006549 272.654553 
L 520.456729 272.53033 
L 521.906908 270.88276 
L 523.357087 267.496327 
L 524.807266 262.846188 
L 527.707625 252.401618 
L 529.157804 248.298493 
L 530.607984 245.710765 
L 532.058163 244.465132 
L 533.508342 244.100348 
L 534.958522 244.287259 
L 536.408701 245.009454 
L 537.85888 246.542049 
L 539.30906 249.241011 
L 540.759239 253.138408 
L 543.659598 262.739665 
L 548.010136 278.244535 
L 549.460315 281.69484 
L 550.910494 282.223139 
L 552.360674 279.667054 
L 555.261032 270.656051 
L 556.711212 267.854641 
L 558.161391 268.22102 
L 559.61157 271.530923 
L 561.06175 275.677847 
L 562.511929 278.710799 
L 563.962108 280.713219 
L 565.412288 283.002049 
L 568.312646 289.667587 
L 569.762826 291.798959 
L 571.213005 291.092857 
L 572.663184 287.020035 
L 574.113363 280.199769 
L 577.013722 263.181978 
L 578.463901 256.028937 
L 579.914081 251.645982 
L 581.36426 250.049938 
L 582.814439 249.906885 
L 584.264619 249.621365 
L 585.714798 248.474805 
L 587.164977 246.815733 
L 588.615157 245.345687 
L 590.065336 244.434996 
L 591.515515 244.019826 
L 592.965695 243.883238 
L 594.415874 243.880602 
L 595.866053 244.004427 
L 597.316233 244.381257 
L 598.766412 245.214291 
L 600.216591 246.607693 
L 604.567129 252.002002 
L 606.017309 254.161437 
L 608.917667 259.52612 
L 610.367847 260.065081 
L 611.818026 257.579296 
L 614.718385 248.751678 
L 616.168564 245.872297 
L 617.618743 244.493208 
L 619.068923 244.013004 
L 620.519102 243.951339 
L 621.969281 244.190787 
L 623.41946 244.930031 
L 624.86964 246.471719 
L 627.769998 251.014477 
L 629.220178 251.971353 
L 630.670357 251.014477 
L 633.570716 246.474451 
L 635.020895 244.947845 
L 636.471074 244.276202 
L 636.471074 244.276202 
" clip-path="url(#p6949156b98)" style="fill: none; stroke: #1f77b4; stroke-width: 2; stroke-linecap: square"/>
   </g>
   <g id="line2d_25">
    <path d="M 405.892562 243.82794 
L 423.294714 243.728409 
L 424.744893 243.422007 
L 426.195073 242.517882 
L 427.645252 240.427865 
L 429.095431 236.577537 
L 430.54561 230.726323 
L 431.99579 222.98964 
L 433.445969 213.575577 
L 436.346328 191.161844 
L 437.796507 180.096878 
L 439.246686 171.385374 
L 440.696866 166.746554 
L 442.147045 166.720815 
L 443.597224 170.20385 
L 445.047404 175.362284 
L 449.397942 191.971442 
L 450.848121 195.288515 
L 452.2983 194.99806 
L 453.74848 190.737647 
L 455.198659 183.78508 
L 456.648838 175.407205 
L 458.099018 165.33179 
L 459.549197 152.625848 
L 462.449556 122.952375 
L 463.899735 111.660726 
L 465.349914 107.057742 
L 466.800094 111.467446 
L 468.250273 125.536828 
L 469.700452 147.412499 
L 471.150632 172.621723 
L 472.600811 195.72841 
L 474.05099 213.036117 
L 475.501169 224.070056 
L 476.951349 230.73404 
L 478.401528 235.255167 
L 479.851707 238.747573 
L 481.301887 241.292233 
L 482.752066 242.805313 
L 484.202245 243.500556 
L 485.652425 243.746209 
L 488.552783 243.814883 
L 490.002963 243.774167 
L 491.453142 243.615263 
L 492.903321 243.172849 
L 494.353501 242.256459 
L 497.253859 239.556213 
L 498.704039 238.987439 
L 500.154218 239.556213 
L 503.054577 242.256459 
L 504.504756 243.172849 
L 505.954935 243.615263 
L 507.405115 243.774167 
L 511.755653 243.82794 
L 519.006549 243.865528 
L 520.456729 243.969201 
L 521.906908 244.230552 
L 524.807266 245.111257 
L 526.257446 245.021337 
L 527.707625 244.023523 
L 529.157804 242.42949 
L 530.607984 241.170911 
L 532.058163 240.886634 
L 533.508342 241.228752 
L 534.958522 241.135663 
L 536.408701 239.673058 
L 539.30906 233.826512 
L 540.759239 232.532061 
L 542.209418 233.860531 
L 545.109777 240.007543 
L 546.559956 241.680101 
L 548.010136 241.404134 
L 549.460315 238.991556 
L 550.910494 234.646748 
L 552.360674 229.352712 
L 553.810853 224.50542 
L 555.261032 220.908802 
L 556.711212 218.78474 
L 558.161391 218.797154 
L 559.61157 221.889445 
L 561.06175 227.700995 
L 562.511929 234.176038 
L 563.962108 239.199727 
L 565.412288 242.064276 
L 566.862467 243.296732 
L 568.312646 243.701475 
L 571.213005 243.824955 
L 582.814439 243.811475 
L 584.264619 243.739159 
L 585.714798 243.45059 
L 587.164977 242.561935 
L 588.615157 240.471584 
L 590.065336 236.789732 
L 591.515515 232.148071 
L 592.965695 228.468566 
L 594.415874 227.746418 
L 595.866053 230.165363 
L 597.316233 233.768108 
L 598.766412 236.247036 
L 600.216591 236.806406 
L 603.11695 235.653964 
L 604.567129 235.594448 
L 606.017309 236.022124 
L 607.467488 236.70189 
L 608.917667 237.172345 
L 610.367847 236.597422 
L 611.818026 234.273412 
L 613.268205 230.694634 
L 614.718385 227.802675 
L 616.168564 227.500287 
L 617.618743 229.824492 
L 619.068923 233.063348 
L 620.519102 235.685122 
L 623.41946 239.285428 
L 624.86964 241.037095 
L 626.319819 242.526971 
L 627.769998 243.584757 
L 630.670357 245.11929 
L 632.120536 245.769118 
L 633.570716 246.101555 
L 635.020895 246.045456 
L 636.471074 245.856513 
L 636.471074 245.856513 
" clip-path="url(#p6949156b98)" style="fill: none; stroke: #d62728; stroke-width: 2; stroke-linecap: square"/>
   </g>
   <g id="line2d_26">
    <path d="M 405.892562 243.82794 
L 485.652425 243.792749 
L 487.102604 243.649226 
L 488.552783 243.121111 
L 490.002963 241.650753 
L 491.453142 238.60514 
L 494.353501 229.630899 
L 495.80368 227.740585 
L 497.253859 229.630899 
L 500.154218 238.60514 
L 501.604397 241.650753 
L 503.054577 243.121111 
L 504.504756 243.649226 
L 505.954935 243.792749 
L 511.755653 243.82794 
L 524.807266 243.763726 
L 526.257446 243.630148 
L 527.707625 243.353461 
L 530.607984 242.538172 
L 532.058163 242.366441 
L 533.508342 242.538172 
L 536.408701 243.353461 
L 537.85888 243.632015 
L 542.209418 244.069283 
L 543.659598 244.580687 
L 545.109777 245.634861 
L 548.010136 248.739661 
L 549.460315 249.393649 
L 550.910494 248.739661 
L 553.810853 245.63283 
L 555.261032 244.570863 
L 556.711212 244.032465 
L 559.61157 243.564441 
L 561.06175 243.368501 
L 562.511929 243.322589 
L 563.962108 243.654249 
L 565.412288 244.426389 
L 566.862467 245.358321 
L 568.312646 245.992113 
L 569.762826 246.098758 
L 571.213005 245.827787 
L 572.663184 245.409198 
L 574.113363 244.829218 
L 575.563543 243.911279 
L 578.463901 241.495642 
L 579.914081 240.923624 
L 581.36426 241.180928 
L 584.264619 242.838742 
L 585.714798 243.414945 
L 587.164977 243.69374 
L 590.065336 243.821259 
L 616.168564 243.823296 
L 620.519102 243.692236 
L 624.86964 243.409942 
L 627.769998 243.574411 
L 630.670357 243.77137 
L 636.471074 243.8278 
L 636.471074 243.8278 
" clip-path="url(#p6949156b98)" style="fill: none; stroke: #ff7f0e; stroke-width: 2; stroke-linecap: square"/>
   </g>
   <g id="LineCollection_1">
    <path d="M 521.877904 315.935218 
L 521.877904 125.111119 
" clip-path="url(#p6949156b98)" style="fill: none; stroke-dasharray: 7.4,3.2; stroke-dashoffset: 0; stroke: #000000; stroke-width: 2"/>
    <path d="M 536.379697 315.935218 
L 536.379697 125.111119 
" clip-path="url(#p6949156b98)" style="fill: none; stroke-dasharray: 7.4,3.2; stroke-dashoffset: 0; stroke: #000000; stroke-width: 2"/>
    <path d="M 565.383284 315.935218 
L 565.383284 125.111119 
" clip-path="url(#p6949156b98)" style="fill: none; stroke-dasharray: 7.4,3.2; stroke-dashoffset: 0; stroke: #000000; stroke-width: 2"/>
    <path d="M 623.390457 315.935218 
L 623.390457 125.111119 
" clip-path="url(#p6949156b98)" style="fill: none; stroke-dasharray: 7.4,3.2; stroke-dashoffset: 0; stroke: #000000; stroke-width: 2"/>
   </g>
   <g id="patch_8">
    <path d="M 394.363636 333.490909 
L 394.363636 86.4 
" style="fill: none; stroke: #000000; stroke-width: 0.8; stroke-linejoin: miter; stroke-linecap: square"/>
   </g>
   <g id="patch_9">
    <path d="M 648 333.490909 
L 648 86.4 
" style="fill: none; stroke: #000000; stroke-width: 0.8; stroke-linejoin: miter; stroke-linecap: square"/>
   </g>
   <g id="patch_10">
    <path d="M 394.363636 333.490909 
L 648 333.490909 
" style="fill: none; stroke: #000000; stroke-width: 0.8; stroke-linejoin: miter; stroke-linecap: square"/>
   </g>
   <g id="patch_11">
    <path d="M 394.363636 86.4 
L 648 86.4 
" style="fill: none; stroke: #000000; stroke-width: 0.8; stroke-linejoin: miter; stroke-linecap: square"/>
   </g>
   <g id="text_23">
    <!-- unit_107 -->
    <g transform="translate(495.105256 80.4)scale(0.12 -0.12)">
     <defs>
      <path id="DejaVuSans-75" d="M 544 1381 
L 544 3500 
L 1119 3500 
L 1119 1403 
Q 1119 906 1312 657 
Q 1506 409 1894 409 
Q 2359 409 2629 706 
Q 2900 1003 2900 1516 
L 2900 3500 
L 3475 3500 
L 3475 0 
L 2900 0 
L 2900 538 
Q 2691 219 2414 64 
Q 2138 -91 1772 -91 
Q 1169 -91 856 284 
Q 544 659 544 1381 
z
M 1991 3584 
L 1991 3584 
z
" transform="scale(0.015625)"/>
      <path id="DejaVuSans-6e" d="M 3513 2113 
L 3513 0 
L 2938 0 
L 2938 2094 
Q 2938 2591 2744 2837 
Q 2550 3084 2163 3084 
Q 1697 3084 1428 2787 
Q 1159 2491 1159 1978 
L 1159 0 
L 581 0 
L 581 3500 
L 1159 3500 
L 1159 2956 
Q 1366 3272 1645 3428 
Q 1925 3584 2291 3584 
Q 2894 3584 3203 3211 
Q 3513 2838 3513 2113 
z
" transform="scale(0.015625)"/>
      <path id="DejaVuSans-69" d="M 603 3500 
L 1178 3500 
L 1178 0 
L 603 0 
L 603 3500 
z
M 603 4863 
L 1178 4863 
L 1178 4134 
L 603 4134 
L 603 4863 
z
" transform="scale(0.015625)"/>
      <path id="DejaVuSans-74" d="M 1172 4494 
L 1172 3500 
L 2356 3500 
L 2356 3053 
L 1172 3053 
L 1172 1153 
Q 1172 725 1289 603 
Q 1406 481 1766 481 
L 2356 481 
L 2356 0 
L 1766 0 
Q 1100 0 847 248 
Q 594 497 594 1153 
L 594 3053 
L 172 3053 
L 172 3500 
L 594 3500 
L 594 4494 
L 1172 4494 
z
" transform="scale(0.015625)"/>
      <path id="DejaVuSans-5f" d="M 3263 -1063 
L 3263 -1509 
L -63 -1509 
L -63 -1063 
L 3263 -1063 
z
" transform="scale(0.015625)"/>
      <path id="DejaVuSans-37" d="M 525 4666 
L 3525 4666 
L 3525 4397 
L 1831 0 
L 1172 0 
L 2766 4134 
L 525 4134 
L 525 4666 
z
" transform="scale(0.015625)"/>
     </defs>
     <use xlink:href="#DejaVuSans-75"/>
     <use xlink:href="#DejaVuSans-6e" x="63.378906"/>
     <use xlink:href="#DejaVuSans-69" x="126.757812"/>
     <use xlink:href="#DejaVuSans-74" x="154.541016"/>
     <use xlink:href="#DejaVuSans-5f" x="193.75"/>
     <use xlink:href="#DejaVuSans-31" x="243.75"/>
     <use xlink:href="#DejaVuSans-30" x="307.373047"/>
     <use xlink:href="#DejaVuSans-37" x="370.996094"/>
    </g>
   </g>
  </g>
  <g id="axes_3">
   <g id="patch_12">
    <path d="M 90 630 
L 343.636364 630 
L 343.636364 382.909091 
L 90 382.909091 
z
" style="fill: #ffffff"/>
   </g>
   <g id="matplotlib.axis_5">
    <g id="xtick_12">
     <g id="line2d_27">
      <g>
       <use xlink:href="#ma30b567735" x="90" y="630" style="stroke: #000000; stroke-width: 0.8"/>
      </g>
     </g>
     <g id="text_24">
      <!-- 0.0 -->
      <g transform="translate(82.048438 644.598437)scale(0.1 -0.1)">
       <use xlink:href="#DejaVuSans-30"/>
       <use xlink:href="#DejaVuSans-2e" x="63.623047"/>
       <use xlink:href="#DejaVuSans-30" x="95.410156"/>
      </g>
     </g>
    </g>
    <g id="xtick_13">
     <g id="line2d_28">
      <g>
       <use xlink:href="#ma30b567735" x="140.727273" y="630" style="stroke: #000000; stroke-width: 0.8"/>
      </g>
     </g>
     <g id="text_25">
      <!-- 0.2 -->
      <g transform="translate(132.77571 644.598437)scale(0.1 -0.1)">
       <use xlink:href="#DejaVuSans-30"/>
       <use xlink:href="#DejaVuSans-2e" x="63.623047"/>
       <use xlink:href="#DejaVuSans-32" x="95.410156"/>
      </g>
     </g>
    </g>
    <g id="xtick_14">
     <g id="line2d_29">
      <g>
       <use xlink:href="#ma30b567735" x="191.454545" y="630" style="stroke: #000000; stroke-width: 0.8"/>
      </g>
     </g>
     <g id="text_26">
      <!-- 0.4 -->
      <g transform="translate(183.502983 644.598437)scale(0.1 -0.1)">
       <use xlink:href="#DejaVuSans-30"/>
       <use xlink:href="#DejaVuSans-2e" x="63.623047"/>
       <use xlink:href="#DejaVuSans-34" x="95.410156"/>
      </g>
     </g>
    </g>
    <g id="xtick_15">
     <g id="line2d_30">
      <g>
       <use xlink:href="#ma30b567735" x="242.181818" y="630" style="stroke: #000000; stroke-width: 0.8"/>
      </g>
     </g>
     <g id="text_27">
      <!-- 0.6 -->
      <g transform="translate(234.230256 644.598437)scale(0.1 -0.1)">
       <use xlink:href="#DejaVuSans-30"/>
       <use xlink:href="#DejaVuSans-2e" x="63.623047"/>
       <use xlink:href="#DejaVuSans-36" x="95.410156"/>
      </g>
     </g>
    </g>
    <g id="xtick_16">
     <g id="line2d_31">
      <g>
       <use xlink:href="#ma30b567735" x="292.909091" y="630" style="stroke: #000000; stroke-width: 0.8"/>
      </g>
     </g>
     <g id="text_28">
      <!-- 0.8 -->
      <g transform="translate(284.957528 644.598437)scale(0.1 -0.1)">
       <use xlink:href="#DejaVuSans-30"/>
       <use xlink:href="#DejaVuSans-2e" x="63.623047"/>
       <use xlink:href="#DejaVuSans-38" x="95.410156"/>
      </g>
     </g>
    </g>
    <g id="xtick_17">
     <g id="line2d_32">
      <g>
       <use xlink:href="#ma30b567735" x="343.636364" y="630" style="stroke: #000000; stroke-width: 0.8"/>
      </g>
     </g>
     <g id="text_29">
      <!-- 1.0 -->
      <g transform="translate(335.684801 644.598437)scale(0.1 -0.1)">
       <use xlink:href="#DejaVuSans-31"/>
       <use xlink:href="#DejaVuSans-2e" x="63.623047"/>
       <use xlink:href="#DejaVuSans-30" x="95.410156"/>
      </g>
     </g>
    </g>
   </g>
   <g id="matplotlib.axis_6">
    <g id="ytick_12">
     <g id="line2d_33">
      <g>
       <use xlink:href="#m5cb5e8b823" x="90" y="630" style="stroke: #000000; stroke-width: 0.8"/>
      </g>
     </g>
     <g id="text_30">
      <!-- 0.0 -->
      <g transform="translate(67.096875 633.799219)scale(0.1 -0.1)">
       <use xlink:href="#DejaVuSans-30"/>
       <use xlink:href="#DejaVuSans-2e" x="63.623047"/>
       <use xlink:href="#DejaVuSans-30" x="95.410156"/>
      </g>
     </g>
    </g>
    <g id="ytick_13">
     <g id="line2d_34">
      <g>
       <use xlink:href="#m5cb5e8b823" x="90" y="580.581818" style="stroke: #000000; stroke-width: 0.8"/>
      </g>
     </g>
     <g id="text_31">
      <!-- 0.2 -->
      <g transform="translate(67.096875 584.381037)scale(0.1 -0.1)">
       <use xlink:href="#DejaVuSans-30"/>
       <use xlink:href="#DejaVuSans-2e" x="63.623047"/>
       <use xlink:href="#DejaVuSans-32" x="95.410156"/>
      </g>
     </g>
    </g>
    <g id="ytick_14">
     <g id="line2d_35">
      <g>
       <use xlink:href="#m5cb5e8b823" x="90" y="531.163636" style="stroke: #000000; stroke-width: 0.8"/>
      </g>
     </g>
     <g id="text_32">
      <!-- 0.4 -->
      <g transform="translate(67.096875 534.962855)scale(0.1 -0.1)">
       <use xlink:href="#DejaVuSans-30"/>
       <use xlink:href="#DejaVuSans-2e" x="63.623047"/>
       <use xlink:href="#DejaVuSans-34" x="95.410156"/>
      </g>
     </g>
    </g>
    <g id="ytick_15">
     <g id="line2d_36">
      <g>
       <use xlink:href="#m5cb5e8b823" x="90" y="481.745455" style="stroke: #000000; stroke-width: 0.8"/>
      </g>
     </g>
     <g id="text_33">
      <!-- 0.6 -->
      <g transform="translate(67.096875 485.544673)scale(0.1 -0.1)">
       <use xlink:href="#DejaVuSans-30"/>
       <use xlink:href="#DejaVuSans-2e" x="63.623047"/>
       <use xlink:href="#DejaVuSans-36" x="95.410156"/>
      </g>
     </g>
    </g>
    <g id="ytick_16">
     <g id="line2d_37">
      <g>
       <use xlink:href="#m5cb5e8b823" x="90" y="432.327273" style="stroke: #000000; stroke-width: 0.8"/>
      </g>
     </g>
     <g id="text_34">
      <!-- 0.8 -->
      <g transform="translate(67.096875 436.126491)scale(0.1 -0.1)">
       <use xlink:href="#DejaVuSans-30"/>
       <use xlink:href="#DejaVuSans-2e" x="63.623047"/>
       <use xlink:href="#DejaVuSans-38" x="95.410156"/>
      </g>
     </g>
    </g>
    <g id="ytick_17">
     <g id="line2d_38">
      <g>
       <use xlink:href="#m5cb5e8b823" x="90" y="382.909091" style="stroke: #000000; stroke-width: 0.8"/>
      </g>
     </g>
     <g id="text_35">
      <!-- 1.0 -->
      <g transform="translate(67.096875 386.70831)scale(0.1 -0.1)">
       <use xlink:href="#DejaVuSans-31"/>
       <use xlink:href="#DejaVuSans-2e" x="63.623047"/>
       <use xlink:href="#DejaVuSans-30" x="95.410156"/>
      </g>
     </g>
    </g>
   </g>
   <g id="patch_13">
    <path d="M 90 630 
L 90 382.909091 
" style="fill: none; stroke: #000000; stroke-width: 0.8; stroke-linejoin: miter; stroke-linecap: square"/>
   </g>
   <g id="patch_14">
    <path d="M 343.636364 630 
L 343.636364 382.909091 
" style="fill: none; stroke: #000000; stroke-width: 0.8; stroke-linejoin: miter; stroke-linecap: square"/>
   </g>
   <g id="patch_15">
    <path d="M 90 630 
L 343.636364 630 
" style="fill: none; stroke: #000000; stroke-width: 0.8; stroke-linejoin: miter; stroke-linecap: square"/>
   </g>
   <g id="patch_16">
    <path d="M 90 382.909091 
L 343.636364 382.909091 
" style="fill: none; stroke: #000000; stroke-width: 0.8; stroke-linejoin: miter; stroke-linecap: square"/>
   </g>
  </g>
  <g id="axes_4">
   <g id="patch_17">
    <path d="M 394.363636 630 
L 648 630 
L 648 382.909091 
L 394.363636 382.909091 
z
" style="fill: #ffffff"/>
   </g>
   <g id="matplotlib.axis_7">
    <g id="xtick_18">
     <g id="line2d_39">
      <g>
       <use xlink:href="#ma30b567735" x="405.863558" y="630" style="stroke: #000000; stroke-width: 0.8"/>
      </g>
     </g>
     <g id="text_36">
      <!-- 0 -->
      <g transform="translate(402.682308 644.598437)scale(0.1 -0.1)">
       <use xlink:href="#DejaVuSans-30"/>
      </g>
     </g>
    </g>
    <g id="xtick_19">
     <g id="line2d_40">
      <g>
       <use xlink:href="#ma30b567735" x="463.870731" y="630" style="stroke: #000000; stroke-width: 0.8"/>
      </g>
     </g>
     <g id="text_37">
      <!-- 2000 -->
      <g transform="translate(451.145731 644.598437)scale(0.1 -0.1)">
       <use xlink:href="#DejaVuSans-32"/>
       <use xlink:href="#DejaVuSans-30" x="63.623047"/>
       <use xlink:href="#DejaVuSans-30" x="127.246094"/>
       <use xlink:href="#DejaVuSans-30" x="190.869141"/>
      </g>
     </g>
    </g>
    <g id="xtick_20">
     <g id="line2d_41">
      <g>
       <use xlink:href="#ma30b567735" x="521.877904" y="630" style="stroke: #000000; stroke-width: 0.8"/>
      </g>
     </g>
     <g id="text_38">
      <!-- 4000 -->
      <g transform="translate(509.152904 644.598437)scale(0.1 -0.1)">
       <use xlink:href="#DejaVuSans-34"/>
       <use xlink:href="#DejaVuSans-30" x="63.623047"/>
       <use xlink:href="#DejaVuSans-30" x="127.246094"/>
       <use xlink:href="#DejaVuSans-30" x="190.869141"/>
      </g>
     </g>
    </g>
    <g id="xtick_21">
     <g id="line2d_42">
      <g>
       <use xlink:href="#ma30b567735" x="579.885077" y="630" style="stroke: #000000; stroke-width: 0.8"/>
      </g>
     </g>
     <g id="text_39">
      <!-- 6000 -->
      <g transform="translate(567.160077 644.598437)scale(0.1 -0.1)">
       <use xlink:href="#DejaVuSans-36"/>
       <use xlink:href="#DejaVuSans-30" x="63.623047"/>
       <use xlink:href="#DejaVuSans-30" x="127.246094"/>
       <use xlink:href="#DejaVuSans-30" x="190.869141"/>
      </g>
     </g>
    </g>
    <g id="xtick_22">
     <g id="line2d_43">
      <g>
       <use xlink:href="#ma30b567735" x="637.89225" y="630" style="stroke: #000000; stroke-width: 0.8"/>
      </g>
     </g>
     <g id="text_40">
      <!-- 8000 -->
      <g transform="translate(625.16725 644.598437)scale(0.1 -0.1)">
       <use xlink:href="#DejaVuSans-38"/>
       <use xlink:href="#DejaVuSans-30" x="63.623047"/>
       <use xlink:href="#DejaVuSans-30" x="127.246094"/>
       <use xlink:href="#DejaVuSans-30" x="190.869141"/>
      </g>
     </g>
    </g>
   </g>
   <g id="matplotlib.axis_8">
    <g id="ytick_18">
     <g id="line2d_44">
      <g>
       <use xlink:href="#m5cb5e8b823" x="394.363636" y="630" style="stroke: #000000; stroke-width: 0.8"/>
      </g>
     </g>
     <g id="text_41">
      <!-- −2 -->
      <g transform="translate(372.621449 633.799219)scale(0.1 -0.1)">
       <use xlink:href="#DejaVuSans-2212"/>
       <use xlink:href="#DejaVuSans-32" x="83.789062"/>
      </g>
     </g>
    </g>
    <g id="ytick_19">
     <g id="line2d_45">
      <g>
       <use xlink:href="#m5cb5e8b823" x="394.363636" y="581.391029" style="stroke: #000000; stroke-width: 0.8"/>
      </g>
     </g>
     <g id="text_42">
      <!-- 0 -->
      <g transform="translate(381.001136 585.190248)scale(0.1 -0.1)">
       <use xlink:href="#DejaVuSans-30"/>
      </g>
     </g>
    </g>
    <g id="ytick_20">
     <g id="line2d_46">
      <g>
       <use xlink:href="#m5cb5e8b823" x="394.363636" y="532.782058" style="stroke: #000000; stroke-width: 0.8"/>
      </g>
     </g>
     <g id="text_43">
      <!-- 2 -->
      <g transform="translate(381.001136 536.581276)scale(0.1 -0.1)">
       <use xlink:href="#DejaVuSans-32"/>
      </g>
     </g>
    </g>
    <g id="ytick_21">
     <g id="line2d_47">
      <g>
       <use xlink:href="#m5cb5e8b823" x="394.363636" y="484.173086" style="stroke: #000000; stroke-width: 0.8"/>
      </g>
     </g>
     <g id="text_44">
      <!-- 4 -->
      <g transform="translate(381.001136 487.972305)scale(0.1 -0.1)">
       <use xlink:href="#DejaVuSans-34"/>
      </g>
     </g>
    </g>
    <g id="ytick_22">
     <g id="line2d_48">
      <g>
       <use xlink:href="#m5cb5e8b823" x="394.363636" y="435.564115" style="stroke: #000000; stroke-width: 0.8"/>
      </g>
     </g>
     <g id="text_45">
      <!-- 6 -->
      <g transform="translate(381.001136 439.363334)scale(0.1 -0.1)">
       <use xlink:href="#DejaVuSans-36"/>
      </g>
     </g>
    </g>
    <g id="ytick_23">
     <g id="line2d_49">
      <g>
       <use xlink:href="#m5cb5e8b823" x="394.363636" y="386.955144" style="stroke: #000000; stroke-width: 0.8"/>
      </g>
     </g>
     <g id="text_46">
      <!-- 8 -->
      <g transform="translate(381.001136 390.754363)scale(0.1 -0.1)">
       <use xlink:href="#DejaVuSans-38"/>
      </g>
     </g>
    </g>
   </g>
   <g id="line2d_50">
    <path d="M 405.892562 490.964304 
L 407.342741 436.118554 
L 408.792921 432.56744 
L 410.2431 455.655504 
L 413.143459 496.359179 
L 414.593638 497.457572 
L 416.043817 470.462685 
L 417.493997 476.487184 
L 418.944176 517.086547 
L 420.394355 539.399291 
L 421.844535 544.316564 
L 424.744893 605.102691 
L 426.195073 596.345375 
L 427.645252 563.902097 
L 429.095431 550.65076 
L 430.54561 560.358307 
L 433.445969 616.761742 
L 434.896148 626.738427 
L 436.346328 616.056177 
L 437.796507 603.61913 
L 439.246686 592.503142 
L 440.696866 584.66262 
L 442.147045 578.79513 
L 443.597224 565.088363 
L 445.047404 560.553432 
L 446.497583 551.526627 
L 447.947762 531.630537 
L 449.397942 542.370902 
L 450.848121 554.622581 
L 452.2983 559.708111 
L 453.74848 561.61623 
L 455.198659 541.0641 
L 458.099018 428.059634 
L 459.549197 391.690394 
L 460.999376 382.909091 
L 462.449556 412.471506 
L 463.899735 419.988495 
L 465.349914 412.457349 
L 468.250273 539.257834 
L 469.700452 499.418575 
L 471.150632 487.447411 
L 472.600811 554.407989 
L 474.05099 557.379888 
L 475.501169 538.744559 
L 476.951349 548.956463 
L 478.401528 561.85708 
L 479.851707 579.083947 
L 481.301887 585.360457 
L 482.752066 562.61405 
L 484.202245 537.347015 
L 485.652425 530.493329 
L 487.102604 550.811231 
L 488.552783 561.921974 
L 490.002963 559.709089 
L 491.453142 538.057452 
L 492.903321 501.309024 
L 495.80368 443.144787 
L 497.253859 460.412678 
L 498.704039 522.978115 
L 500.154218 572.33967 
L 501.604397 580.967527 
L 503.054577 572.310634 
L 504.504756 570.112795 
L 505.954935 565.928798 
L 507.405115 556.694976 
L 508.855294 543.228896 
L 510.305473 532.284049 
L 511.755653 538.394427 
L 513.205832 549.55046 
L 514.656011 563.669996 
L 516.106191 571.98964 
L 517.55637 572.951522 
L 519.006549 569.150658 
L 520.456729 567.244761 
L 521.906908 574.954362 
L 523.357087 588.232779 
L 524.807266 598.14847 
L 526.257446 603.822992 
L 527.707625 606.604364 
L 529.157804 610.678083 
L 530.607984 613.65398 
L 532.058163 602.890134 
L 533.508342 591.246672 
L 534.958522 589.927883 
L 536.408701 595.32995 
L 537.85888 601.554585 
L 539.30906 588.387217 
L 540.759239 563.713459 
L 542.209418 565.339067 
L 543.659598 580.043718 
L 545.109777 586.686199 
L 546.559956 586.931278 
L 548.010136 581.205879 
L 549.460315 567.947983 
L 550.910494 560.991204 
L 552.360674 560.220523 
L 553.810853 554.763208 
L 555.261032 560.833137 
L 556.711212 585.474967 
L 558.161391 626.150964 
L 559.61157 649.527829 
L 562.511929 627.265095 
L 563.962108 618.299621 
L 565.412288 604.464503 
L 566.862467 592.133984 
L 568.312646 598.522619 
L 569.762826 590.943924 
L 571.213005 559.630059 
L 572.663184 564.973975 
L 574.113363 605.40241 
L 575.563543 616.289661 
L 577.013722 603.161459 
L 578.463901 603.042422 
L 579.914081 608.536887 
L 581.36426 610.465795 
L 582.814439 607.011019 
L 584.264619 604.435198 
L 585.714798 614.896107 
L 587.164977 623.129673 
L 588.615157 607.476218 
L 590.065336 610.136361 
L 591.515515 638.580406 
L 592.965695 653.54904 
L 594.415874 621.319948 
L 595.866053 547.740469 
L 597.316233 490.256584 
L 598.766412 512.205191 
L 600.216591 559.200397 
L 601.666771 580.732564 
L 603.11695 578.979606 
L 604.567129 578.790835 
L 606.017309 592.822103 
L 607.467488 598.493089 
L 608.917667 578.285012 
L 610.367847 541.638175 
L 611.818026 514.484083 
L 613.268205 517.201502 
L 614.718385 539.001662 
L 616.168564 544.199243 
L 617.618743 578.67618 
L 619.068923 633.735081 
L 620.519102 620.295437 
L 621.969281 588.706204 
L 623.41946 586.343256 
L 624.86964 590.110319 
L 626.319819 589.081208 
L 627.769998 577.751031 
L 629.220178 564.661299 
L 630.670357 568.364973 
L 632.120536 572.901454 
L 633.570716 572.208606 
L 635.020895 578.686419 
L 636.471074 586.722563 
L 636.471074 586.722563 
" clip-path="url(#pfa5051199d)" style="fill: none; stroke: #1f77b4; stroke-width: 1.5; stroke-linecap: square"/>
   </g>
   <g id="patch_18">
    <path d="M 394.363636 630 
L 394.363636 382.909091 
" style="fill: none; stroke: #000000; stroke-width: 0.8; stroke-linejoin: miter; stroke-linecap: square"/>
   </g>
   <g id="patch_19">
    <path d="M 648 630 
L 648 382.909091 
" style="fill: none; stroke: #000000; stroke-width: 0.8; stroke-linejoin: miter; stroke-linecap: square"/>
   </g>
   <g id="patch_20">
    <path d="M 394.363636 630 
L 648 630 
" style="fill: none; stroke: #000000; stroke-width: 0.8; stroke-linejoin: miter; stroke-linecap: square"/>
   </g>
   <g id="patch_21">
    <path d="M 394.363636 382.909091 
L 648 382.909091 
" style="fill: none; stroke: #000000; stroke-width: 0.8; stroke-linejoin: miter; stroke-linecap: square"/>
   </g>
   <g id="text_47">
    <!-- explained variance -->
    <g transform="translate(464.181818 376.909091)scale(0.12 -0.12)">
     <defs>
      <path id="DejaVuSans-65" d="M 3597 1894 
L 3597 1613 
L 953 1613 
Q 991 1019 1311 708 
Q 1631 397 2203 397 
Q 2534 397 2845 478 
Q 3156 559 3463 722 
L 3463 178 
Q 3153 47 2828 -22 
Q 2503 -91 2169 -91 
Q 1331 -91 842 396 
Q 353 884 353 1716 
Q 353 2575 817 3079 
Q 1281 3584 2069 3584 
Q 2775 3584 3186 3129 
Q 3597 2675 3597 1894 
z
M 3022 2063 
Q 3016 2534 2758 2815 
Q 2500 3097 2075 3097 
Q 1594 3097 1305 2825 
Q 1016 2553 972 2059 
L 3022 2063 
z
" transform="scale(0.015625)"/>
      <path id="DejaVuSans-78" d="M 3513 3500 
L 2247 1797 
L 3578 0 
L 2900 0 
L 1881 1375 
L 863 0 
L 184 0 
L 1544 1831 
L 300 3500 
L 978 3500 
L 1906 2253 
L 2834 3500 
L 3513 3500 
z
" transform="scale(0.015625)"/>
      <path id="DejaVuSans-70" d="M 1159 525 
L 1159 -1331 
L 581 -1331 
L 581 3500 
L 1159 3500 
L 1159 2969 
Q 1341 3281 1617 3432 
Q 1894 3584 2278 3584 
Q 2916 3584 3314 3078 
Q 3713 2572 3713 1747 
Q 3713 922 3314 415 
Q 2916 -91 2278 -91 
Q 1894 -91 1617 61 
Q 1341 213 1159 525 
z
M 3116 1747 
Q 3116 2381 2855 2742 
Q 2594 3103 2138 3103 
Q 1681 3103 1420 2742 
Q 1159 2381 1159 1747 
Q 1159 1113 1420 752 
Q 1681 391 2138 391 
Q 2594 391 2855 752 
Q 3116 1113 3116 1747 
z
" transform="scale(0.015625)"/>
      <path id="DejaVuSans-6c" d="M 603 4863 
L 1178 4863 
L 1178 0 
L 603 0 
L 603 4863 
z
" transform="scale(0.015625)"/>
      <path id="DejaVuSans-61" d="M 2194 1759 
Q 1497 1759 1228 1600 
Q 959 1441 959 1056 
Q 959 750 1161 570 
Q 1363 391 1709 391 
Q 2188 391 2477 730 
Q 2766 1069 2766 1631 
L 2766 1759 
L 2194 1759 
z
M 3341 1997 
L 3341 0 
L 2766 0 
L 2766 531 
Q 2569 213 2275 61 
Q 1981 -91 1556 -91 
Q 1019 -91 701 211 
Q 384 513 384 1019 
Q 384 1609 779 1909 
Q 1175 2209 1959 2209 
L 2766 2209 
L 2766 2266 
Q 2766 2663 2505 2880 
Q 2244 3097 1772 3097 
Q 1472 3097 1187 3025 
Q 903 2953 641 2809 
L 641 3341 
Q 956 3463 1253 3523 
Q 1550 3584 1831 3584 
Q 2591 3584 2966 3190 
Q 3341 2797 3341 1997 
z
" transform="scale(0.015625)"/>
      <path id="DejaVuSans-64" d="M 2906 2969 
L 2906 4863 
L 3481 4863 
L 3481 0 
L 2906 0 
L 2906 525 
Q 2725 213 2448 61 
Q 2172 -91 1784 -91 
Q 1150 -91 751 415 
Q 353 922 353 1747 
Q 353 2572 751 3078 
Q 1150 3584 1784 3584 
Q 2172 3584 2448 3432 
Q 2725 3281 2906 2969 
z
M 947 1747 
Q 947 1113 1208 752 
Q 1469 391 1925 391 
Q 2381 391 2643 752 
Q 2906 1113 2906 1747 
Q 2906 2381 2643 2742 
Q 2381 3103 1925 3103 
Q 1469 3103 1208 2742 
Q 947 2381 947 1747 
z
" transform="scale(0.015625)"/>
      <path id="DejaVuSans-20" transform="scale(0.015625)"/>
      <path id="DejaVuSans-76" d="M 191 3500 
L 800 3500 
L 1894 563 
L 2988 3500 
L 3597 3500 
L 2284 0 
L 1503 0 
L 191 3500 
z
" transform="scale(0.015625)"/>
      <path id="DejaVuSans-72" d="M 2631 2963 
Q 2534 3019 2420 3045 
Q 2306 3072 2169 3072 
Q 1681 3072 1420 2755 
Q 1159 2438 1159 1844 
L 1159 0 
L 581 0 
L 581 3500 
L 1159 3500 
L 1159 2956 
Q 1341 3275 1631 3429 
Q 1922 3584 2338 3584 
Q 2397 3584 2469 3576 
Q 2541 3569 2628 3553 
L 2631 2963 
z
" transform="scale(0.015625)"/>
      <path id="DejaVuSans-63" d="M 3122 3366 
L 3122 2828 
Q 2878 2963 2633 3030 
Q 2388 3097 2138 3097 
Q 1578 3097 1268 2742 
Q 959 2388 959 1747 
Q 959 1106 1268 751 
Q 1578 397 2138 397 
Q 2388 397 2633 464 
Q 2878 531 3122 666 
L 3122 134 
Q 2881 22 2623 -34 
Q 2366 -91 2075 -91 
Q 1284 -91 818 406 
Q 353 903 353 1747 
Q 353 2603 823 3093 
Q 1294 3584 2113 3584 
Q 2378 3584 2631 3529 
Q 2884 3475 3122 3366 
z
" transform="scale(0.015625)"/>
     </defs>
     <use xlink:href="#DejaVuSans-65"/>
     <use xlink:href="#DejaVuSans-78" x="59.773438"/>
     <use xlink:href="#DejaVuSans-70" x="118.953125"/>
     <use xlink:href="#DejaVuSans-6c" x="182.429688"/>
     <use xlink:href="#DejaVuSans-61" x="210.212891"/>
     <use xlink:href="#DejaVuSans-69" x="271.492188"/>
     <use xlink:href="#DejaVuSans-6e" x="299.275391"/>
     <use xlink:href="#DejaVuSans-65" x="362.654297"/>
     <use xlink:href="#DejaVuSans-64" x="424.177734"/>
     <use xlink:href="#DejaVuSans-20" x="487.654297"/>
     <use xlink:href="#DejaVuSans-76" x="519.441406"/>
     <use xlink:href="#DejaVuSans-61" x="578.621094"/>
     <use xlink:href="#DejaVuSans-72" x="639.900391"/>
     <use xlink:href="#DejaVuSans-69" x="681.013672"/>
     <use xlink:href="#DejaVuSans-61" x="708.796875"/>
     <use xlink:href="#DejaVuSans-6e" x="770.076172"/>
     <use xlink:href="#DejaVuSans-63" x="833.455078"/>
     <use xlink:href="#DejaVuSans-65" x="888.435547"/>
    </g>
   </g>
  </g>
 </g>
 <defs>
  <clipPath id="p6949156b98">
   <rect x="394.363636" y="86.4" width="253.636364" height="247.090909"/>
  </clipPath>
  <clipPath id="pfa5051199d">
   <rect x="394.363636" y="382.909091" width="253.636364" height="247.090909"/>
  </clipPath>
 </defs>
</svg>
