<?xml version="1.0" encoding="utf-8" standalone="no"?>
<!DOCTYPE svg PUBLIC "-//W3C//DTD SVG 1.1//EN"
  "http://www.w3.org/Graphics/SVG/1.1/DTD/svg11.dtd">
<svg xmlns:xlink="http://www.w3.org/1999/xlink" width="720pt" height="720pt" viewBox="0 0 720 720" xmlns="http://www.w3.org/2000/svg" version="1.1">
 <metadata>
  <rdf:RDF xmlns:dc="http://purl.org/dc/elements/1.1/" xmlns:cc="http://creativecommons.org/ns#" xmlns:rdf="http://www.w3.org/1999/02/22-rdf-syntax-ns#">
   <cc:Work>
    <dc:type rdf:resource="http://purl.org/dc/dcmitype/StillImage"/>
    <dc:date>2023-12-19T18:14:41.427073</dc:date>
    <dc:format>image/svg+xml</dc:format>
    <dc:creator>
     <cc:Agent>
      <dc:title>Matplotlib v3.5.2, https://matplotlib.org/</dc:title>
     </cc:Agent>
    </dc:creator>
   </cc:Work>
  </rdf:RDF>
 </metadata>
 <defs>
  <style type="text/css">*{stroke-linejoin: round; stroke-linecap: butt}</style>
 </defs>
 <g id="figure_1">
  <g id="patch_1">
   <path d="M 0 720 
L 720 720 
L 720 0 
L 0 0 
z
" style="fill: #ffffff"/>
  </g>
  <g id="axes_1">
   <g id="patch_2">
    <path d="M 90 333.490909 
L 343.636364 333.490909 
L 343.636364 86.4 
L 90 86.4 
z
" style="fill: #ffffff"/>
   </g>
   <g id="matplotlib.axis_1">
    <g id="xtick_1">
     <g id="line2d_1">
      <defs>
       <path id="md7d034e68c" d="M 0 0 
L 0 3.5 
" style="stroke: #000000; stroke-width: 0.8"/>
      </defs>
      <g>
       <use xlink:href="#md7d034e68c" x="90" y="333.490909" style="stroke: #000000; stroke-width: 0.8"/>
      </g>
     </g>
     <g id="text_1">
      <!-- 0.0 -->
      <g transform="translate(82.048438 348.089347)scale(0.1 -0.1)">
       <defs>
        <path id="DejaVuSans-30" d="M 2034 4250 
Q 1547 4250 1301 3770 
Q 1056 3291 1056 2328 
Q 1056 1369 1301 889 
Q 1547 409 2034 409 
Q 2525 409 2770 889 
Q 3016 1369 3016 2328 
Q 3016 3291 2770 3770 
Q 2525 4250 2034 4250 
z
M 2034 4750 
Q 2819 4750 3233 4129 
Q 3647 3509 3647 2328 
Q 3647 1150 3233 529 
Q 2819 -91 2034 -91 
Q 1250 -91 836 529 
Q 422 1150 422 2328 
Q 422 3509 836 4129 
Q 1250 4750 2034 4750 
z
" transform="scale(0.015625)"/>
        <path id="DejaVuSans-2e" d="M 684 794 
L 1344 794 
L 1344 0 
L 684 0 
L 684 794 
z
" transform="scale(0.015625)"/>
       </defs>
       <use xlink:href="#DejaVuSans-30"/>
       <use xlink:href="#DejaVuSans-2e" x="63.623047"/>
       <use xlink:href="#DejaVuSans-30" x="95.410156"/>
      </g>
     </g>
    </g>
    <g id="xtick_2">
     <g id="line2d_2">
      <g>
       <use xlink:href="#md7d034e68c" x="140.727273" y="333.490909" style="stroke: #000000; stroke-width: 0.8"/>
      </g>
     </g>
     <g id="text_2">
      <!-- 0.2 -->
      <g transform="translate(132.77571 348.089347)scale(0.1 -0.1)">
       <defs>
        <path id="DejaVuSans-32" d="M 1228 531 
L 3431 531 
L 3431 0 
L 469 0 
L 469 531 
Q 828 903 1448 1529 
Q 2069 2156 2228 2338 
Q 2531 2678 2651 2914 
Q 2772 3150 2772 3378 
Q 2772 3750 2511 3984 
Q 2250 4219 1831 4219 
Q 1534 4219 1204 4116 
Q 875 4013 500 3803 
L 500 4441 
Q 881 4594 1212 4672 
Q 1544 4750 1819 4750 
Q 2544 4750 2975 4387 
Q 3406 4025 3406 3419 
Q 3406 3131 3298 2873 
Q 3191 2616 2906 2266 
Q 2828 2175 2409 1742 
Q 1991 1309 1228 531 
z
" transform="scale(0.015625)"/>
       </defs>
       <use xlink:href="#DejaVuSans-30"/>
       <use xlink:href="#DejaVuSans-2e" x="63.623047"/>
       <use xlink:href="#DejaVuSans-32" x="95.410156"/>
      </g>
     </g>
    </g>
    <g id="xtick_3">
     <g id="line2d_3">
      <g>
       <use xlink:href="#md7d034e68c" x="191.454545" y="333.490909" style="stroke: #000000; stroke-width: 0.8"/>
      </g>
     </g>
     <g id="text_3">
      <!-- 0.4 -->
      <g transform="translate(183.502983 348.089347)scale(0.1 -0.1)">
       <defs>
        <path id="DejaVuSans-34" d="M 2419 4116 
L 825 1625 
L 2419 1625 
L 2419 4116 
z
M 2253 4666 
L 3047 4666 
L 3047 1625 
L 3713 1625 
L 3713 1100 
L 3047 1100 
L 3047 0 
L 2419 0 
L 2419 1100 
L 313 1100 
L 313 1709 
L 2253 4666 
z
" transform="scale(0.015625)"/>
       </defs>
       <use xlink:href="#DejaVuSans-30"/>
       <use xlink:href="#DejaVuSans-2e" x="63.623047"/>
       <use xlink:href="#DejaVuSans-34" x="95.410156"/>
      </g>
     </g>
    </g>
    <g id="xtick_4">
     <g id="line2d_4">
      <g>
       <use xlink:href="#md7d034e68c" x="242.181818" y="333.490909" style="stroke: #000000; stroke-width: 0.8"/>
      </g>
     </g>
     <g id="text_4">
      <!-- 0.6 -->
      <g transform="translate(234.230256 348.089347)scale(0.1 -0.1)">
       <defs>
        <path id="DejaVuSans-36" d="M 2113 2584 
Q 1688 2584 1439 2293 
Q 1191 2003 1191 1497 
Q 1191 994 1439 701 
Q 1688 409 2113 409 
Q 2538 409 2786 701 
Q 3034 994 3034 1497 
Q 3034 2003 2786 2293 
Q 2538 2584 2113 2584 
z
M 3366 4563 
L 3366 3988 
Q 3128 4100 2886 4159 
Q 2644 4219 2406 4219 
Q 1781 4219 1451 3797 
Q 1122 3375 1075 2522 
Q 1259 2794 1537 2939 
Q 1816 3084 2150 3084 
Q 2853 3084 3261 2657 
Q 3669 2231 3669 1497 
Q 3669 778 3244 343 
Q 2819 -91 2113 -91 
Q 1303 -91 875 529 
Q 447 1150 447 2328 
Q 447 3434 972 4092 
Q 1497 4750 2381 4750 
Q 2619 4750 2861 4703 
Q 3103 4656 3366 4563 
z
" transform="scale(0.015625)"/>
       </defs>
       <use xlink:href="#DejaVuSans-30"/>
       <use xlink:href="#DejaVuSans-2e" x="63.623047"/>
       <use xlink:href="#DejaVuSans-36" x="95.410156"/>
      </g>
     </g>
    </g>
    <g id="xtick_5">
     <g id="line2d_5">
      <g>
       <use xlink:href="#md7d034e68c" x="292.909091" y="333.490909" style="stroke: #000000; stroke-width: 0.8"/>
      </g>
     </g>
     <g id="text_5">
      <!-- 0.8 -->
      <g transform="translate(284.957528 348.089347)scale(0.1 -0.1)">
       <defs>
        <path id="DejaVuSans-38" d="M 2034 2216 
Q 1584 2216 1326 1975 
Q 1069 1734 1069 1313 
Q 1069 891 1326 650 
Q 1584 409 2034 409 
Q 2484 409 2743 651 
Q 3003 894 3003 1313 
Q 3003 1734 2745 1975 
Q 2488 2216 2034 2216 
z
M 1403 2484 
Q 997 2584 770 2862 
Q 544 3141 544 3541 
Q 544 4100 942 4425 
Q 1341 4750 2034 4750 
Q 2731 4750 3128 4425 
Q 3525 4100 3525 3541 
Q 3525 3141 3298 2862 
Q 3072 2584 2669 2484 
Q 3125 2378 3379 2068 
Q 3634 1759 3634 1313 
Q 3634 634 3220 271 
Q 2806 -91 2034 -91 
Q 1263 -91 848 271 
Q 434 634 434 1313 
Q 434 1759 690 2068 
Q 947 2378 1403 2484 
z
M 1172 3481 
Q 1172 3119 1398 2916 
Q 1625 2713 2034 2713 
Q 2441 2713 2670 2916 
Q 2900 3119 2900 3481 
Q 2900 3844 2670 4047 
Q 2441 4250 2034 4250 
Q 1625 4250 1398 4047 
Q 1172 3844 1172 3481 
z
" transform="scale(0.015625)"/>
       </defs>
       <use xlink:href="#DejaVuSans-30"/>
       <use xlink:href="#DejaVuSans-2e" x="63.623047"/>
       <use xlink:href="#DejaVuSans-38" x="95.410156"/>
      </g>
     </g>
    </g>
    <g id="xtick_6">
     <g id="line2d_6">
      <g>
       <use xlink:href="#md7d034e68c" x="343.636364" y="333.490909" style="stroke: #000000; stroke-width: 0.8"/>
      </g>
     </g>
     <g id="text_6">
      <!-- 1.0 -->
      <g transform="translate(335.684801 348.089347)scale(0.1 -0.1)">
       <defs>
        <path id="DejaVuSans-31" d="M 794 531 
L 1825 531 
L 1825 4091 
L 703 3866 
L 703 4441 
L 1819 4666 
L 2450 4666 
L 2450 531 
L 3481 531 
L 3481 0 
L 794 0 
L 794 531 
z
" transform="scale(0.015625)"/>
       </defs>
       <use xlink:href="#DejaVuSans-31"/>
       <use xlink:href="#DejaVuSans-2e" x="63.623047"/>
       <use xlink:href="#DejaVuSans-30" x="95.410156"/>
      </g>
     </g>
    </g>
   </g>
   <g id="matplotlib.axis_2">
    <g id="ytick_1">
     <g id="line2d_7">
      <defs>
       <path id="m4373dc659c" d="M 0 0 
L -3.5 0 
" style="stroke: #000000; stroke-width: 0.8"/>
      </defs>
      <g>
       <use xlink:href="#m4373dc659c" x="90" y="333.490909" style="stroke: #000000; stroke-width: 0.8"/>
      </g>
     </g>
     <g id="text_7">
      <!-- 0.0 -->
      <g transform="translate(67.096875 337.290128)scale(0.1 -0.1)">
       <use xlink:href="#DejaVuSans-30"/>
       <use xlink:href="#DejaVuSans-2e" x="63.623047"/>
       <use xlink:href="#DejaVuSans-30" x="95.410156"/>
      </g>
     </g>
    </g>
    <g id="ytick_2">
     <g id="line2d_8">
      <g>
       <use xlink:href="#m4373dc659c" x="90" y="284.072727" style="stroke: #000000; stroke-width: 0.8"/>
      </g>
     </g>
     <g id="text_8">
      <!-- 0.2 -->
      <g transform="translate(67.096875 287.871946)scale(0.1 -0.1)">
       <use xlink:href="#DejaVuSans-30"/>
       <use xlink:href="#DejaVuSans-2e" x="63.623047"/>
       <use xlink:href="#DejaVuSans-32" x="95.410156"/>
      </g>
     </g>
    </g>
    <g id="ytick_3">
     <g id="line2d_9">
      <g>
       <use xlink:href="#m4373dc659c" x="90" y="234.654545" style="stroke: #000000; stroke-width: 0.8"/>
      </g>
     </g>
     <g id="text_9">
      <!-- 0.4 -->
      <g transform="translate(67.096875 238.453764)scale(0.1 -0.1)">
       <use xlink:href="#DejaVuSans-30"/>
       <use xlink:href="#DejaVuSans-2e" x="63.623047"/>
       <use xlink:href="#DejaVuSans-34" x="95.410156"/>
      </g>
     </g>
    </g>
    <g id="ytick_4">
     <g id="line2d_10">
      <g>
       <use xlink:href="#m4373dc659c" x="90" y="185.236364" style="stroke: #000000; stroke-width: 0.8"/>
      </g>
     </g>
     <g id="text_10">
      <!-- 0.6 -->
      <g transform="translate(67.096875 189.035582)scale(0.1 -0.1)">
       <use xlink:href="#DejaVuSans-30"/>
       <use xlink:href="#DejaVuSans-2e" x="63.623047"/>
       <use xlink:href="#DejaVuSans-36" x="95.410156"/>
      </g>
     </g>
    </g>
    <g id="ytick_5">
     <g id="line2d_11">
      <g>
       <use xlink:href="#m4373dc659c" x="90" y="135.818182" style="stroke: #000000; stroke-width: 0.8"/>
      </g>
     </g>
     <g id="text_11">
      <!-- 0.8 -->
      <g transform="translate(67.096875 139.617401)scale(0.1 -0.1)">
       <use xlink:href="#DejaVuSans-30"/>
       <use xlink:href="#DejaVuSans-2e" x="63.623047"/>
       <use xlink:href="#DejaVuSans-38" x="95.410156"/>
      </g>
     </g>
    </g>
    <g id="ytick_6">
     <g id="line2d_12">
      <g>
       <use xlink:href="#m4373dc659c" x="90" y="86.4" style="stroke: #000000; stroke-width: 0.8"/>
      </g>
     </g>
     <g id="text_12">
      <!-- 1.0 -->
      <g transform="translate(67.096875 90.199219)scale(0.1 -0.1)">
       <use xlink:href="#DejaVuSans-31"/>
       <use xlink:href="#DejaVuSans-2e" x="63.623047"/>
       <use xlink:href="#DejaVuSans-30" x="95.410156"/>
      </g>
     </g>
    </g>
   </g>
   <g id="patch_3">
    <path d="M 90 333.490909 
L 90 86.4 
" style="fill: none; stroke: #000000; stroke-width: 0.8; stroke-linejoin: miter; stroke-linecap: square"/>
   </g>
   <g id="patch_4">
    <path d="M 343.636364 333.490909 
L 343.636364 86.4 
" style="fill: none; stroke: #000000; stroke-width: 0.8; stroke-linejoin: miter; stroke-linecap: square"/>
   </g>
   <g id="patch_5">
    <path d="M 90 333.490909 
L 343.636364 333.490909 
" style="fill: none; stroke: #000000; stroke-width: 0.8; stroke-linejoin: miter; stroke-linecap: square"/>
   </g>
   <g id="patch_6">
    <path d="M 90 86.4 
L 343.636364 86.4 
" style="fill: none; stroke: #000000; stroke-width: 0.8; stroke-linejoin: miter; stroke-linecap: square"/>
   </g>
  </g>
  <g id="axes_2">
   <g id="patch_7">
    <path d="M 394.363636 333.490909 
L 648 333.490909 
L 648 86.4 
L 394.363636 86.4 
z
" style="fill: #ffffff"/>
   </g>
   <g id="PolyCollection_1">
    <defs>
     <path id="m4a34218470" d="M 405.892562 -535.271049 
L 405.892562 -535.271049 
L 407.342741 -535.271049 
L 408.792921 -535.271049 
L 410.2431 -535.271049 
L 411.693279 -535.268108 
L 413.143459 -535.251871 
L 414.593638 -535.171282 
L 416.043817 -534.868705 
L 417.493997 -533.99509 
L 418.944176 -532.052724 
L 420.394355 -528.732884 
L 421.844535 -524.32866 
L 423.294714 -500.407059 
L 424.744893 -515.057033 
L 426.195073 -495.288716 
L 427.645252 -491.888971 
L 429.095431 -495.364428 
L 430.54561 -464.769953 
L 431.99579 -451.790462 
L 433.445969 -465.906653 
L 434.896148 -436.75031 
L 436.346328 -428.569735 
L 437.796507 -427.270258 
L 439.246686 -439.559699 
L 440.696866 -472.599412 
L 442.147045 -488.13005 
L 443.597224 -498.629607 
L 445.047404 -488.914619 
L 446.497583 -510.866033 
L 447.947762 -515.825052 
L 449.397942 -518.414827 
L 450.848121 -518.539445 
L 452.2983 -502.351722 
L 453.74848 -519.472976 
L 455.198659 -520.862041 
L 456.648838 -520.540424 
L 458.099018 -518.222695 
L 459.549197 -507.906813 
L 460.999376 -511.494566 
L 462.449556 -505.150466 
L 463.899735 -494.48973 
L 465.349914 -468.93168 
L 466.800094 -468.862543 
L 468.250273 -441.643751 
L 469.700452 -449.709912 
L 471.150632 -436.973478 
L 472.600811 -406.462268 
L 474.05099 -403.802064 
L 475.501169 -421.040327 
L 476.951349 -454.965259 
L 478.401528 -470.991025 
L 479.851707 -475.505619 
L 481.301887 -456.555342 
L 482.752066 -456.752265 
L 484.202245 -459.577676 
L 485.652425 -470.175917 
L 487.102604 -484.225876 
L 488.552783 -502.394226 
L 490.002963 -502.06547 
L 491.453142 -494.431872 
L 492.903321 -475.794909 
L 494.353501 -464.304771 
L 495.80368 -476.71382 
L 497.253859 -471.68322 
L 498.704039 -474.598888 
L 500.154218 -488.880358 
L 501.604397 -483.661985 
L 503.054577 -493.849344 
L 504.504756 -484.143711 
L 505.954935 -490.744367 
L 507.405115 -505.220518 
L 508.855294 -509.099586 
L 510.305473 -500.797447 
L 511.755653 -490.423612 
L 513.205832 -482.333117 
L 514.656011 -470.847969 
L 516.106191 -489.477435 
L 517.55637 -494.65316 
L 519.006549 -480.003168 
L 520.456729 -505.753743 
L 521.906908 -507.976959 
L 523.357087 -507.168737 
L 524.807266 -486.643314 
L 526.257446 -502.052746 
L 527.707625 -500.252742 
L 529.157804 -480.554673 
L 530.607984 -490.075604 
L 532.058163 -505.713294 
L 533.508342 -501.402223 
L 534.958522 -513.737807 
L 536.408701 -507.06033 
L 537.85888 -525.44302 
L 539.30906 -529.365661 
L 540.759239 -531.551165 
L 542.209418 -531.476459 
L 543.659598 -526.86836 
L 545.109777 -526.938898 
L 546.559956 -513.749419 
L 548.010136 -520.385462 
L 549.460315 -529.619506 
L 550.910494 -532.329274 
L 552.360674 -533.423685 
L 553.810853 -525.340513 
L 555.261032 -528.815056 
L 556.711212 -525.088105 
L 558.161391 -515.402165 
L 559.61157 -524.271406 
L 561.06175 -527.169121 
L 562.511929 -529.815602 
L 563.962108 -530.455606 
L 565.412288 -522.964292 
L 566.862467 -518.239325 
L 568.312646 -499.544844 
L 569.762826 -471.734264 
L 571.213005 -427.874321 
L 572.663184 -407.627543 
L 574.113363 -415.980355 
L 575.563543 -453.936667 
L 577.013722 -479.738057 
L 578.463901 -496.908853 
L 579.914081 -503.882644 
L 581.36426 -495.141152 
L 582.814439 -511.991491 
L 584.264619 -519.589385 
L 585.714798 -526.925351 
L 587.164977 -531.798618 
L 588.615157 -534.143716 
L 590.065336 -534.986015 
L 591.515515 -535.214923 
L 592.965695 -535.262442 
L 594.415874 -535.271049 
L 595.866053 -535.271049 
L 597.316233 -535.271049 
L 598.766412 -535.271049 
L 600.216591 -535.271049 
L 601.666771 -535.271049 
L 603.11695 -535.271049 
L 604.567129 -535.271049 
L 606.017309 -535.269716 
L 607.467488 -535.25434 
L 608.917667 -535.170144 
L 610.367847 -534.801737 
L 611.818026 -533.524856 
L 613.268205 -530.086696 
L 614.718385 -522.907374 
L 616.168564 -511.332024 
L 617.618743 -490.551709 
L 619.068923 -465.278226 
L 620.519102 -454.168285 
L 621.969281 -461.182081 
L 623.41946 -428.567452 
L 624.86964 -427.957587 
L 626.319819 -432.422681 
L 627.769998 -461.830088 
L 629.220178 -430.16544 
L 630.670357 -434.481343 
L 632.120536 -454.642698 
L 633.570716 -410.476628 
L 635.020895 -404.139388 
L 636.471074 -397.740496 
L 636.471074 -463.579122 
L 636.471074 -463.579122 
L 635.020895 -468.361997 
L 633.570716 -480.244018 
L 632.120536 -454.642698 
L 630.670357 -487.823504 
L 629.220178 -496.874203 
L 627.769998 -461.830088 
L 626.319819 -482.99225 
L 624.86964 -481.071468 
L 623.41946 -482.359782 
L 621.969281 -461.182081 
L 620.519102 -486.735291 
L 619.068923 -499.795846 
L 617.618743 -503.199242 
L 616.168564 -511.332024 
L 614.718385 -522.907374 
L 613.268205 -530.086696 
L 611.818026 -533.524856 
L 610.367847 -534.801737 
L 608.917667 -535.170144 
L 607.467488 -535.25434 
L 606.017309 -535.269716 
L 604.567129 -535.271049 
L 603.11695 -535.271049 
L 601.666771 -535.271049 
L 600.216591 -535.271049 
L 598.766412 -535.271049 
L 597.316233 -535.271049 
L 595.866053 -535.271049 
L 594.415874 -535.271049 
L 592.965695 -535.262442 
L 591.515515 -535.214923 
L 590.065336 -534.986015 
L 588.615157 -534.143716 
L 587.164977 -531.798618 
L 585.714798 -526.925351 
L 584.264619 -519.589385 
L 582.814439 -511.991491 
L 581.36426 -518.774121 
L 579.914081 -503.882644 
L 578.463901 -496.908853 
L 577.013722 -479.738057 
L 575.563543 -453.936667 
L 574.113363 -446.968906 
L 572.663184 -445.209224 
L 571.213005 -457.818869 
L 569.762826 -471.734264 
L 568.312646 -499.544844 
L 566.862467 -518.239325 
L 565.412288 -532.011045 
L 563.962108 -530.455606 
L 562.511929 -529.815602 
L 561.06175 -527.169121 
L 559.61157 -524.271406 
L 558.161391 -531.070876 
L 556.711212 -525.12284 
L 555.261032 -528.815056 
L 553.810853 -538.935961 
L 552.360674 -533.423685 
L 550.910494 -532.329274 
L 549.460315 -529.619506 
L 548.010136 -533.312966 
L 546.559956 -537.711308 
L 545.109777 -526.938898 
L 543.659598 -532.082432 
L 542.209418 -531.476459 
L 540.759239 -531.551165 
L 539.30906 -529.365661 
L 537.85888 -525.44302 
L 536.408701 -534.276229 
L 534.958522 -517.643241 
L 533.508342 -519.892909 
L 532.058163 -505.713294 
L 530.607984 -513.464351 
L 529.157804 -519.262339 
L 527.707625 -500.252742 
L 526.257446 -502.052746 
L 524.807266 -522.645235 
L 523.357087 -507.168737 
L 521.906908 -507.976959 
L 520.456729 -505.753743 
L 519.006549 -521.614961 
L 517.55637 -494.65316 
L 516.106191 -489.477435 
L 514.656011 -505.471724 
L 513.205832 -502.725671 
L 511.755653 -510.989677 
L 510.305473 -514.443773 
L 508.855294 -509.099586 
L 507.405115 -505.220518 
L 505.954935 -508.501038 
L 504.504756 -507.294468 
L 503.054577 -493.849344 
L 501.604397 -500.490923 
L 500.154218 -488.880358 
L 498.704039 -494.170238 
L 497.253859 -487.788259 
L 495.80368 -476.71382 
L 494.353501 -491.246484 
L 492.903321 -493.055755 
L 491.453142 -494.431872 
L 490.002963 -502.06547 
L 488.552783 -502.394226 
L 487.102604 -505.795491 
L 485.652425 -497.29605 
L 484.202245 -488.308374 
L 482.752066 -483.155598 
L 481.301887 -487.998412 
L 479.851707 -475.505619 
L 478.401528 -470.991025 
L 476.951349 -454.965259 
L 475.501169 -447.745151 
L 474.05099 -440.355653 
L 472.600811 -442.808103 
L 471.150632 -436.973478 
L 469.700452 -449.709912 
L 468.250273 -477.00324 
L 466.800094 -468.862543 
L 465.349914 -493.327359 
L 463.899735 -494.48973 
L 462.449556 -505.150466 
L 460.999376 -511.494566 
L 459.549197 -522.424692 
L 458.099018 -518.222695 
L 456.648838 -520.540424 
L 455.198659 -520.862041 
L 453.74848 -519.472976 
L 452.2983 -534.38334 
L 450.848121 -518.539445 
L 449.397942 -518.414827 
L 447.947762 -515.825052 
L 446.497583 -510.866033 
L 445.047404 -521.538429 
L 443.597224 -498.629607 
L 442.147045 -488.13005 
L 440.696866 -472.599412 
L 439.246686 -473.395877 
L 437.796507 -466.505116 
L 436.346328 -466.044324 
L 434.896148 -473.819094 
L 433.445969 -465.906653 
L 431.99579 -500.611291 
L 430.54561 -507.116217 
L 429.095431 -495.364428 
L 427.645252 -515.474586 
L 426.195073 -524.936476 
L 424.744893 -515.057033 
L 423.294714 -538.827246 
L 421.844535 -524.32866 
L 420.394355 -528.732884 
L 418.944176 -532.052724 
L 417.493997 -533.99509 
L 416.043817 -534.868705 
L 414.593638 -535.171282 
L 413.143459 -535.251871 
L 411.693279 -535.268108 
L 410.2431 -535.271049 
L 408.792921 -535.271049 
L 407.342741 -535.271049 
L 405.892562 -535.271049 
z
" style="stroke: #9467bd; stroke-opacity: 0.2"/>
    </defs>
    <g clip-path="url(#pf0ce43198d)">
     <use xlink:href="#m4a34218470" x="0" y="720" style="fill: #9467bd; fill-opacity: 0.2; stroke: #9467bd; stroke-opacity: 0.2"/>
    </g>
   </g>
   <g id="PolyCollection_2">
    <defs>
     <path id="mff3fc4b915" d="M 405.892562 -531.984321 
L 405.892562 -531.984321 
L 407.342741 -528.02959 
L 408.792921 -519.506631 
L 410.2431 -507.022201 
L 411.693279 -481.759999 
L 413.143459 -460.501262 
L 414.593638 -471.673871 
L 416.043817 -479.341039 
L 417.493997 -503.548617 
L 418.944176 -505.091634 
L 420.394355 -516.660976 
L 421.844535 -506.852274 
L 423.294714 -523.847762 
L 424.744893 -527.304479 
L 426.195073 -531.41345 
L 427.645252 -533.64905 
L 429.095431 -534.727895 
L 430.54561 -535.133028 
L 431.99579 -535.283661 
L 433.445969 -535.441307 
L 434.896148 -535.812606 
L 436.346328 -536.571077 
L 437.796507 -537.699936 
L 439.246686 -538.805059 
L 440.696866 -532.937598 
L 442.147045 -538.805059 
L 443.597224 -537.699936 
L 445.047404 -536.571139 
L 446.497583 -535.813007 
L 447.947762 -535.446997 
L 449.397942 -535.315536 
L 450.848121 -535.279809 
L 452.2983 -535.272393 
L 453.74848 -535.271049 
L 455.198659 -535.271049 
L 456.648838 -535.271049 
L 458.099018 -535.271049 
L 459.549197 -535.271049 
L 460.999376 -535.271049 
L 462.449556 -535.271049 
L 463.899735 -535.271049 
L 465.349914 -535.271049 
L 466.800094 -535.271049 
L 468.250273 -535.271049 
L 469.700452 -535.271049 
L 471.150632 -535.271049 
L 472.600811 -535.271049 
L 474.05099 -535.271049 
L 475.501169 -535.271049 
L 476.951349 -535.271049 
L 478.401528 -535.271049 
L 479.851707 -535.271049 
L 481.301887 -535.271049 
L 482.752066 -535.271049 
L 484.202245 -535.271049 
L 485.652425 -535.271049 
L 487.102604 -535.271049 
L 488.552783 -535.271049 
L 490.002963 -535.271049 
L 491.453142 -535.271049 
L 492.903321 -535.271049 
L 494.353501 -535.271049 
L 495.80368 -535.271049 
L 497.253859 -535.271049 
L 498.704039 -535.271049 
L 500.154218 -535.271049 
L 501.604397 -535.271049 
L 503.054577 -535.271049 
L 504.504756 -535.270559 
L 505.954935 -535.267852 
L 507.405115 -535.254811 
L 508.855294 -535.206827 
L 510.305473 -535.073251 
L 511.755653 -534.796642 
L 513.205832 -534.385178 
L 514.656011 -533.983851 
L 516.106191 -530.236011 
L 517.55637 -534.001408 
L 519.006549 -534.422418 
L 520.456729 -534.851699 
L 521.906908 -534.822231 
L 523.357087 -535.262021 
L 524.807266 -535.292746 
L 526.257446 -535.288157 
L 527.707625 -535.279023 
L 529.157804 -535.273797 
L 530.607984 -535.271744 
L 532.058163 -535.271186 
L 533.508342 -535.27107 
L 534.958522 -535.271049 
L 536.408701 -535.271049 
L 537.85888 -535.271049 
L 539.30906 -535.271049 
L 540.759239 -535.271049 
L 542.209418 -535.271049 
L 543.659598 -535.271049 
L 545.109777 -535.271049 
L 546.559956 -535.271049 
L 548.010136 -535.271049 
L 549.460315 -535.271049 
L 550.910494 -535.271049 
L 552.360674 -535.271049 
L 553.810853 -535.271049 
L 555.261032 -535.271049 
L 556.711212 -535.271049 
L 558.161391 -535.271049 
L 559.61157 -535.271049 
L 561.06175 -535.271049 
L 562.511929 -535.271049 
L 563.962108 -535.271049 
L 565.412288 -535.271049 
L 566.862467 -535.271049 
L 568.312646 -535.271049 
L 569.762826 -535.271049 
L 571.213005 -535.271049 
L 572.663184 -535.271049 
L 574.113363 -535.271049 
L 575.563543 -535.271049 
L 577.013722 -535.271049 
L 578.463901 -535.271049 
L 579.914081 -535.271049 
L 581.36426 -535.271049 
L 582.814439 -535.271049 
L 584.264619 -535.271049 
L 585.714798 -535.271049 
L 587.164977 -535.271049 
L 588.615157 -535.269524 
L 590.065336 -535.261103 
L 591.515515 -535.219481 
L 592.965695 -535.064386 
L 594.415874 -534.620728 
L 595.866053 -533.656617 
L 597.316233 -532.087351 
L 598.766412 -530.236884 
L 600.216591 -521.465684 
L 601.666771 -528.481739 
L 603.11695 -523.912912 
L 604.567129 -531.018256 
L 606.017309 -532.747353 
L 607.467488 -534.049814 
L 608.917667 -534.794731 
L 610.367847 -535.122864 
L 611.818026 -535.234572 
L 613.268205 -535.264167 
L 614.718385 -535.269994 
L 616.168564 -535.271049 
L 617.618743 -535.271049 
L 619.068923 -535.271049 
L 620.519102 -535.268662 
L 621.969281 -535.255481 
L 623.41946 -535.191986 
L 624.86964 -534.958349 
L 626.319819 -534.307865 
L 627.769998 -532.96049 
L 629.220178 -530.954356 
L 630.670357 -528.987911 
L 632.120536 -516.525801 
L 633.570716 -528.911235 
L 635.020895 -530.641656 
L 636.471074 -531.997306 
L 636.471074 -531.997306 
L 636.471074 -531.997306 
L 635.020895 -530.641656 
L 633.570716 -528.911235 
L 632.120536 -539.751114 
L 630.670357 -528.987911 
L 629.220178 -530.954356 
L 627.769998 -532.96049 
L 626.319819 -534.307865 
L 624.86964 -534.958349 
L 623.41946 -535.191986 
L 621.969281 -535.255481 
L 620.519102 -535.268662 
L 619.068923 -535.271049 
L 617.618743 -535.271049 
L 616.168564 -535.271049 
L 614.718385 -535.269994 
L 613.268205 -535.264167 
L 611.818026 -535.234572 
L 610.367847 -535.122864 
L 608.917667 -534.794731 
L 607.467488 -534.049814 
L 606.017309 -532.747353 
L 604.567129 -531.018256 
L 603.11695 -534.820801 
L 601.666771 -528.481739 
L 600.216591 -536.165766 
L 598.766412 -530.236884 
L 597.316233 -532.087351 
L 595.866053 -533.656617 
L 594.415874 -534.620728 
L 592.965695 -535.064386 
L 591.515515 -535.219481 
L 590.065336 -535.261103 
L 588.615157 -535.269524 
L 587.164977 -535.271049 
L 585.714798 -535.271049 
L 584.264619 -535.271049 
L 582.814439 -535.271049 
L 581.36426 -535.271049 
L 579.914081 -535.271049 
L 578.463901 -535.271049 
L 577.013722 -535.271049 
L 575.563543 -535.271049 
L 574.113363 -535.271049 
L 572.663184 -535.271049 
L 571.213005 -535.271049 
L 569.762826 -535.271049 
L 568.312646 -535.271049 
L 566.862467 -535.271049 
L 565.412288 -535.271049 
L 563.962108 -535.271049 
L 562.511929 -535.271049 
L 561.06175 -535.271049 
L 559.61157 -535.271049 
L 558.161391 -535.271049 
L 556.711212 -535.271049 
L 555.261032 -535.271049 
L 553.810853 -535.271049 
L 552.360674 -535.271049 
L 550.910494 -535.271049 
L 549.460315 -535.271049 
L 548.010136 -535.271049 
L 546.559956 -535.271049 
L 545.109777 -535.271049 
L 543.659598 -535.271049 
L 542.209418 -535.271049 
L 540.759239 -535.271049 
L 539.30906 -535.271049 
L 537.85888 -535.271049 
L 536.408701 -535.271049 
L 534.958522 -535.271049 
L 533.508342 -535.27107 
L 532.058163 -535.271186 
L 530.607984 -535.271744 
L 529.157804 -535.273797 
L 527.707625 -535.279023 
L 526.257446 -535.288157 
L 524.807266 -535.292746 
L 523.357087 -535.262021 
L 521.906908 -535.449316 
L 520.456729 -534.851699 
L 519.006549 -534.422418 
L 517.55637 -534.001408 
L 516.106191 -537.399616 
L 514.656011 -533.983851 
L 513.205832 -534.385178 
L 511.755653 -534.796642 
L 510.305473 -535.073251 
L 508.855294 -535.206827 
L 507.405115 -535.254811 
L 505.954935 -535.267852 
L 504.504756 -535.270559 
L 503.054577 -535.271049 
L 501.604397 -535.271049 
L 500.154218 -535.271049 
L 498.704039 -535.271049 
L 497.253859 -535.271049 
L 495.80368 -535.271049 
L 494.353501 -535.271049 
L 492.903321 -535.271049 
L 491.453142 -535.271049 
L 490.002963 -535.271049 
L 488.552783 -535.271049 
L 487.102604 -535.271049 
L 485.652425 -535.271049 
L 484.202245 -535.271049 
L 482.752066 -535.271049 
L 481.301887 -535.271049 
L 479.851707 -535.271049 
L 478.401528 -535.271049 
L 476.951349 -535.271049 
L 475.501169 -535.271049 
L 474.05099 -535.271049 
L 472.600811 -535.271049 
L 471.150632 -535.271049 
L 469.700452 -535.271049 
L 468.250273 -535.271049 
L 466.800094 -535.271049 
L 465.349914 -535.271049 
L 463.899735 -535.271049 
L 462.449556 -535.271049 
L 460.999376 -535.271049 
L 459.549197 -535.271049 
L 458.099018 -535.271049 
L 456.648838 -535.271049 
L 455.198659 -535.271049 
L 453.74848 -535.271049 
L 452.2983 -535.272393 
L 450.848121 -535.279809 
L 449.397942 -535.315536 
L 447.947762 -535.446997 
L 446.497583 -535.813007 
L 445.047404 -536.571139 
L 443.597224 -537.699936 
L 442.147045 -538.805059 
L 440.696866 -545.613615 
L 439.246686 -538.805059 
L 437.796507 -537.699936 
L 436.346328 -536.571077 
L 434.896148 -535.812606 
L 433.445969 -535.441307 
L 431.99579 -535.283661 
L 430.54561 -535.133028 
L 429.095431 -534.727895 
L 427.645252 -533.64905 
L 426.195073 -531.41345 
L 424.744893 -528.531074 
L 423.294714 -523.847762 
L 421.844535 -533.449879 
L 420.394355 -516.660976 
L 418.944176 -518.18522 
L 417.493997 -503.548617 
L 416.043817 -507.882199 
L 414.593638 -500.713052 
L 413.143459 -511.423899 
L 411.693279 -506.371316 
L 410.2431 -507.022201 
L 408.792921 -519.506631 
L 407.342741 -528.02959 
L 405.892562 -531.984321 
z
" style="stroke: #1f77b4; stroke-opacity: 0.2"/>
    </defs>
    <g clip-path="url(#pf0ce43198d)">
     <use xlink:href="#mff3fc4b915" x="0" y="720" style="fill: #1f77b4; fill-opacity: 0.2; stroke: #1f77b4; stroke-opacity: 0.2"/>
    </g>
   </g>
   <g id="PolyCollection_3">
    <defs>
     <path id="mcfe19cbcb9" d="M 405.892562 -459.446642 
L 405.892562 -421.901152 
L 407.342741 -437.232018 
L 408.792921 -447.665364 
L 410.2431 -454.160064 
L 411.693279 -499.415038 
L 413.143459 -515.232954 
L 414.593638 -525.976765 
L 416.043817 -531.763382 
L 417.493997 -534.209322 
L 418.944176 -535.016231 
L 420.394355 -535.223352 
L 421.844535 -535.264322 
L 423.294714 -535.271049 
L 424.744893 -535.271049 
L 426.195073 -535.271049 
L 427.645252 -535.271049 
L 429.095431 -535.271049 
L 430.54561 -535.271049 
L 431.99579 -535.273824 
L 433.445969 -535.289142 
L 434.896148 -535.362931 
L 436.346328 -535.634449 
L 437.796507 -536.390401 
L 439.246686 -537.956234 
L 440.696866 -540.287634 
L 442.147045 -542.570137 
L 443.597224 -527.111726 
L 445.047404 -542.570137 
L 446.497583 -540.287634 
L 447.947762 -537.956234 
L 449.397942 -536.390401 
L 450.848121 -535.634449 
L 452.2983 -535.362931 
L 453.74848 -535.289142 
L 455.198659 -535.275065 
L 456.648838 -535.279143 
L 458.099018 -535.312152 
L 459.549197 -535.433613 
L 460.999376 -535.77178 
L 462.449556 -536.47224 
L 463.899735 -537.51517 
L 465.349914 -538.536225 
L 466.800094 -530.698184 
L 468.250273 -538.536225 
L 469.700452 -537.51517 
L 471.150632 -536.47224 
L 472.600811 -535.77178 
L 474.05099 -535.433613 
L 475.501169 -535.312152 
L 476.951349 -535.283238 
L 478.401528 -535.298995 
L 479.851707 -535.406665 
L 481.301887 -535.80742 
L 482.752066 -536.923187 
L 484.202245 -539.234322 
L 485.652425 -542.675418 
L 487.102604 -546.044342 
L 488.552783 -536.765582 
L 490.002963 -546.101922 
L 491.453142 -542.976989 
L 492.903321 -540.450539 
L 494.353501 -540.788637 
L 495.80368 -545.558065 
L 497.253859 -555.108192 
L 498.704039 -567.611942 
L 500.154218 -564.537683 
L 501.604397 -585.504137 
L 503.054577 -558.451417 
L 504.504756 -582.131764 
L 505.954935 -577.268148 
L 507.405115 -552.882493 
L 508.855294 -549.39942 
L 510.305473 -555.626175 
L 511.755653 -546.974223 
L 513.205832 -540.704696 
L 514.656011 -537.285569 
L 516.106191 -535.862721 
L 517.55637 -535.408955 
L 519.006549 -535.296412 
L 520.456729 -535.273971 
L 521.906908 -535.271049 
L 523.357087 -535.271049 
L 524.807266 -535.271049 
L 526.257446 -535.271049 
L 527.707625 -535.271049 
L 529.157804 -535.271049 
L 530.607984 -535.271049 
L 532.058163 -535.271049 
L 533.508342 -535.271049 
L 534.958522 -535.271049 
L 536.408701 -535.271049 
L 537.85888 -535.271049 
L 539.30906 -535.271049 
L 540.759239 -535.267527 
L 542.209418 -535.248083 
L 543.659598 -535.154415 
L 545.109777 -534.809753 
L 546.559956 -533.850157 
L 548.010136 -531.862506 
L 549.460315 -528.903053 
L 550.910494 -526.005669 
L 552.360674 -510.448037 
L 553.810853 -526.005669 
L 555.261032 -528.903053 
L 556.711212 -531.862506 
L 558.161391 -533.850157 
L 559.61157 -534.809753 
L 561.06175 -535.154415 
L 562.511929 -535.248083 
L 563.962108 -535.267527 
L 565.412288 -535.271049 
L 566.862467 -535.271049 
L 568.312646 -535.272823 
L 569.762826 -535.282615 
L 571.213005 -535.329784 
L 572.663184 -535.501116 
L 574.113363 -535.972013 
L 575.563543 -536.913521 
L 577.013722 -538.18513 
L 578.463901 -539.032123 
L 579.914081 -527.097764 
L 581.36426 -535.792476 
L 582.814439 -532.189414 
L 584.264619 -516.147657 
L 585.714798 -527.087535 
L 587.164977 -525.823625 
L 588.615157 -524.972983 
L 590.065336 -506.767398 
L 591.515515 -527.040397 
L 592.965695 -530.379923 
L 594.415874 -534.212743 
L 595.866053 -537.700884 
L 597.316233 -540.232323 
L 598.766412 -528.591304 
L 600.216591 -540.620584 
L 601.666771 -538.958589 
L 603.11695 -537.246517 
L 604.567129 -536.094547 
L 606.017309 -535.5384 
L 607.467488 -535.338646 
L 608.917667 -535.28436 
L 610.367847 -535.273091 
L 611.818026 -535.271049 
L 613.268205 -535.271049 
L 614.718385 -535.271049 
L 616.168564 -535.271049 
L 617.618743 -535.271049 
L 619.068923 -535.271049 
L 620.519102 -535.271049 
L 621.969281 -535.271049 
L 623.41946 -535.271049 
L 624.86964 -535.271049 
L 626.319819 -535.271049 
L 627.769998 -535.271049 
L 629.220178 -535.271049 
L 630.670357 -535.271049 
L 632.120536 -535.271049 
L 633.570716 -535.271049 
L 635.020895 -535.271049 
L 636.471074 -535.271049 
L 636.471074 -535.271049 
L 636.471074 -535.271049 
L 635.020895 -535.271049 
L 633.570716 -535.271049 
L 632.120536 -535.271049 
L 630.670357 -535.271049 
L 629.220178 -535.271049 
L 627.769998 -535.271049 
L 626.319819 -535.271049 
L 624.86964 -535.271049 
L 623.41946 -535.271049 
L 621.969281 -535.271049 
L 620.519102 -535.271049 
L 619.068923 -535.271049 
L 617.618743 -535.271049 
L 616.168564 -535.271049 
L 614.718385 -535.271049 
L 613.268205 -535.271049 
L 611.818026 -535.271049 
L 610.367847 -535.273091 
L 608.917667 -535.28436 
L 607.467488 -535.338646 
L 606.017309 -535.5384 
L 604.567129 -536.094547 
L 603.11695 -537.246517 
L 601.666771 -538.958589 
L 600.216591 -540.620584 
L 598.766412 -553.913911 
L 597.316233 -540.232323 
L 595.866053 -537.700884 
L 594.415874 -534.212743 
L 592.965695 -530.379923 
L 591.515515 -527.040397 
L 590.065336 -543.530037 
L 588.615157 -524.972983 
L 587.164977 -525.823625 
L 585.714798 -527.087535 
L 584.264619 -541.984746 
L 582.814439 -532.189414 
L 581.36426 -535.792476 
L 579.914081 -549.651804 
L 578.463901 -539.032123 
L 577.013722 -538.18513 
L 575.563543 -536.913521 
L 574.113363 -535.972013 
L 572.663184 -535.501116 
L 571.213005 -535.329784 
L 569.762826 -535.282615 
L 568.312646 -535.272823 
L 566.862467 -535.271049 
L 565.412288 -535.271049 
L 563.962108 -535.267527 
L 562.511929 -535.248083 
L 561.06175 -535.154415 
L 559.61157 -534.809753 
L 558.161391 -533.850157 
L 556.711212 -531.862506 
L 555.261032 -528.903053 
L 553.810853 -526.005669 
L 552.360674 -539.09596 
L 550.910494 -526.005669 
L 549.460315 -528.903053 
L 548.010136 -531.862506 
L 546.559956 -533.850157 
L 545.109777 -534.809753 
L 543.659598 -535.154415 
L 542.209418 -535.248083 
L 540.759239 -535.267527 
L 539.30906 -535.271049 
L 537.85888 -535.271049 
L 536.408701 -535.271049 
L 534.958522 -535.271049 
L 533.508342 -535.271049 
L 532.058163 -535.271049 
L 530.607984 -535.271049 
L 529.157804 -535.271049 
L 527.707625 -535.271049 
L 526.257446 -535.271049 
L 524.807266 -535.271049 
L 523.357087 -535.271049 
L 521.906908 -535.271049 
L 520.456729 -535.273971 
L 519.006549 -535.296412 
L 517.55637 -535.408955 
L 516.106191 -535.862721 
L 514.656011 -537.285569 
L 513.205832 -540.704696 
L 511.755653 -546.974223 
L 510.305473 -555.626175 
L 508.855294 -579.742111 
L 507.405115 -590.69205 
L 505.954935 -577.268148 
L 504.504756 -582.131764 
L 503.054577 -613.156356 
L 501.604397 -585.504137 
L 500.154218 -593.596799 
L 498.704039 -567.611942 
L 497.253859 -555.108192 
L 495.80368 -545.558065 
L 494.353501 -540.788637 
L 492.903321 -540.450539 
L 491.453142 -542.976989 
L 490.002963 -546.101922 
L 488.552783 -558.209656 
L 487.102604 -546.044342 
L 485.652425 -542.675418 
L 484.202245 -539.234322 
L 482.752066 -536.923187 
L 481.301887 -535.80742 
L 479.851707 -535.406665 
L 478.401528 -535.298995 
L 476.951349 -535.283238 
L 475.501169 -535.312152 
L 474.05099 -535.433613 
L 472.600811 -535.77178 
L 471.150632 -536.47224 
L 469.700452 -537.51517 
L 468.250273 -538.536225 
L 466.800094 -547.243772 
L 465.349914 -538.536225 
L 463.899735 -537.51517 
L 462.449556 -536.47224 
L 460.999376 -535.77178 
L 459.549197 -535.433613 
L 458.099018 -535.312152 
L 456.648838 -535.279143 
L 455.198659 -535.275065 
L 453.74848 -535.289142 
L 452.2983 -535.362931 
L 450.848121 -535.634449 
L 449.397942 -536.390401 
L 447.947762 -537.956234 
L 446.497583 -540.287634 
L 445.047404 -542.570137 
L 443.597224 -559.972273 
L 442.147045 -542.570137 
L 440.696866 -540.287634 
L 439.246686 -537.956234 
L 437.796507 -536.390401 
L 436.346328 -535.634449 
L 434.896148 -535.362931 
L 433.445969 -535.289142 
L 431.99579 -535.273824 
L 430.54561 -535.271049 
L 429.095431 -535.271049 
L 427.645252 -535.271049 
L 426.195073 -535.271049 
L 424.744893 -535.271049 
L 423.294714 -535.271049 
L 421.844535 -535.264322 
L 420.394355 -535.223352 
L 418.944176 -535.016231 
L 417.493997 -534.209322 
L 416.043817 -531.763382 
L 414.593638 -525.976765 
L 413.143459 -515.232954 
L 411.693279 -499.415038 
L 410.2431 -507.183729 
L 408.792921 -477.409176 
L 407.342741 -459.555746 
L 405.892562 -459.446642 
z
" style="stroke: #d62728; stroke-opacity: 0.2"/>
    </defs>
    <g clip-path="url(#pf0ce43198d)">
     <use xlink:href="#mcfe19cbcb9" x="0" y="720" style="fill: #d62728; fill-opacity: 0.2; stroke: #d62728; stroke-opacity: 0.2"/>
    </g>
   </g>
   <g id="PolyCollection_4">
    <defs>
     <path id="mcc0222ddbf" d="M 405.892562 -535.271049 
L 405.892562 -535.271049 
L 407.342741 -535.271049 
L 408.792921 -535.271049 
L 410.2431 -535.271049 
L 411.693279 -535.271049 
L 413.143459 -535.271049 
L 414.593638 -535.271049 
L 416.043817 -535.271049 
L 417.493997 -535.271049 
L 418.944176 -535.271049 
L 420.394355 -535.271049 
L 421.844535 -535.271049 
L 423.294714 -535.271049 
L 424.744893 -535.271049 
L 426.195073 -535.271049 
L 427.645252 -535.271049 
L 429.095431 -535.271049 
L 430.54561 -535.271049 
L 431.99579 -535.271049 
L 433.445969 -535.271049 
L 434.896148 -535.271049 
L 436.346328 -535.271049 
L 437.796507 -535.271049 
L 439.246686 -535.271049 
L 440.696866 -535.271049 
L 442.147045 -535.271049 
L 443.597224 -535.271049 
L 445.047404 -535.271049 
L 446.497583 -535.271049 
L 447.947762 -535.271049 
L 449.397942 -535.271049 
L 450.848121 -535.27906 
L 452.2983 -535.323286 
L 453.74848 -535.536328 
L 455.198659 -536.320246 
L 456.648838 -538.502803 
L 458.099018 -543.023623 
L 459.549197 -549.754764 
L 460.999376 -556.34473 
L 462.449556 -548.787775 
L 463.899735 -556.34473 
L 465.349914 -549.754764 
L 466.800094 -543.034973 
L 468.250273 -538.576816 
L 469.700452 -536.696113 
L 471.150632 -537.022911 
L 472.600811 -539.902285 
L 474.05099 -546.263508 
L 475.501169 -555.792699 
L 476.951349 -565.129874 
L 478.401528 -547.36849 
L 479.851707 -565.138234 
L 481.301887 -555.847218 
L 482.752066 -546.532368 
L 484.202245 -540.945094 
L 485.652425 -540.130612 
L 487.102604 -543.738274 
L 488.552783 -550.461708 
L 490.002963 -557.276989 
L 491.453142 -544.863862 
L 492.903321 -557.265639 
L 494.353501 -550.387695 
L 495.80368 -543.362407 
L 497.253859 -538.644029 
L 498.704039 -536.366095 
L 500.154218 -535.54792 
L 501.604397 -535.325568 
L 503.054577 -535.27941 
L 504.504756 -535.271049 
L 505.954935 -535.271049 
L 507.405115 -535.271049 
L 508.855294 -535.271049 
L 510.305473 -535.271049 
L 511.755653 -535.271049 
L 513.205832 -535.271049 
L 514.656011 -535.271049 
L 516.106191 -535.271049 
L 517.55637 -535.271049 
L 519.006549 -535.271049 
L 520.456729 -535.271049 
L 521.906908 -535.271049 
L 523.357087 -535.271049 
L 524.807266 -535.271049 
L 526.257446 -535.269081 
L 527.707625 -535.25743 
L 529.157804 -535.19692 
L 530.607984 -534.962274 
L 532.058163 -534.247269 
L 533.508342 -532.544847 
L 534.958522 -529.388829 
L 536.408701 -524.874686 
L 537.85888 -510.896765 
L 539.30906 -511.204098 
L 540.759239 -504.375256 
L 542.209418 -517.038348 
L 543.659598 -520.179162 
L 545.109777 -512.421936 
L 546.559956 -531.188385 
L 548.010136 -538.90363 
L 549.460315 -545.830865 
L 550.910494 -535.827876 
L 552.360674 -548.823029 
L 553.810853 -546.239349 
L 555.261032 -545.121253 
L 556.711212 -547.758016 
L 558.161391 -553.685777 
L 559.61157 -550.088156 
L 561.06175 -553.56825 
L 562.511929 -553.214115 
L 563.962108 -559.775731 
L 565.412288 -557.691589 
L 566.862467 -557.161066 
L 568.312646 -540.913811 
L 569.762826 -552.476666 
L 571.213005 -546.818168 
L 572.663184 -541.399351 
L 574.113363 -537.817865 
L 575.563543 -536.0966 
L 577.013722 -535.479781 
L 578.463901 -535.312151 
L 579.914081 -535.277352 
L 581.36426 -535.271049 
L 582.814439 -535.271049 
L 584.264619 -535.271049 
L 585.714798 -535.271049 
L 587.164977 -535.271049 
L 588.615157 -535.271049 
L 590.065336 -535.271049 
L 591.515515 -535.271049 
L 592.965695 -535.271049 
L 594.415874 -535.271049 
L 595.866053 -535.271049 
L 597.316233 -535.271049 
L 598.766412 -535.273769 
L 600.216591 -535.294653 
L 601.666771 -535.406533 
L 603.11695 -535.876294 
L 604.567129 -537.430288 
L 606.017309 -541.500455 
L 607.467488 -549.941997 
L 608.917667 -563.737286 
L 610.367847 -569.59348 
L 611.818026 -575.020272 
L 613.268205 -588.958841 
L 614.718385 -587.63094 
L 616.168564 -575.92516 
L 617.618743 -576.364175 
L 619.068923 -566.024726 
L 620.519102 -561.820083 
L 621.969281 -542.222443 
L 623.41946 -563.610674 
L 624.86964 -566.993733 
L 626.319819 -570.565262 
L 627.769998 -536.455047 
L 629.220178 -565.189248 
L 630.670357 -555.470281 
L 632.120536 -546.011396 
L 633.570716 -539.737323 
L 635.020895 -536.730019 
L 636.471074 -535.709227 
L 636.471074 -535.709227 
L 636.471074 -535.709227 
L 635.020895 -536.730019 
L 633.570716 -539.737323 
L 632.120536 -546.011396 
L 630.670357 -555.470281 
L 629.220178 -565.189248 
L 627.769998 -605.154374 
L 626.319819 -570.565262 
L 624.86964 -566.993733 
L 623.41946 -563.610674 
L 621.969281 -581.221491 
L 620.519102 -561.820083 
L 619.068923 -566.024726 
L 617.618743 -576.364175 
L 616.168564 -605.693571 
L 614.718385 -618.003423 
L 613.268205 -622.368595 
L 611.818026 -619.492091 
L 610.367847 -592.770885 
L 608.917667 -563.737286 
L 607.467488 -549.941997 
L 606.017309 -541.500455 
L 604.567129 -537.430288 
L 603.11695 -535.876294 
L 601.666771 -535.406533 
L 600.216591 -535.294653 
L 598.766412 -535.273769 
L 597.316233 -535.271049 
L 595.866053 -535.271049 
L 594.415874 -535.271049 
L 592.965695 -535.271049 
L 591.515515 -535.271049 
L 590.065336 -535.271049 
L 588.615157 -535.271049 
L 587.164977 -535.271049 
L 585.714798 -535.271049 
L 584.264619 -535.271049 
L 582.814439 -535.271049 
L 581.36426 -535.271049 
L 579.914081 -535.277352 
L 578.463901 -535.312151 
L 577.013722 -535.479781 
L 575.563543 -536.0966 
L 574.113363 -537.817865 
L 572.663184 -541.399351 
L 571.213005 -546.818168 
L 569.762826 -552.476666 
L 568.312646 -571.291246 
L 566.862467 -557.161066 
L 565.412288 -557.691589 
L 563.962108 -559.775731 
L 562.511929 -572.124246 
L 561.06175 -573.219122 
L 559.61157 -569.926669 
L 558.161391 -553.685777 
L 556.711212 -547.758016 
L 555.261032 -545.121253 
L 553.810853 -546.239349 
L 552.360674 -548.823029 
L 550.910494 -562.951212 
L 549.460315 -545.830865 
L 548.010136 -538.90363 
L 546.559956 -531.188385 
L 545.109777 -537.15561 
L 543.659598 -520.179162 
L 542.209418 -517.038348 
L 540.759239 -526.798307 
L 539.30906 -521.928997 
L 537.85888 -529.204587 
L 536.408701 -524.874686 
L 534.958522 -529.388829 
L 533.508342 -532.544847 
L 532.058163 -534.247269 
L 530.607984 -534.962274 
L 529.157804 -535.19692 
L 527.707625 -535.25743 
L 526.257446 -535.269081 
L 524.807266 -535.271049 
L 523.357087 -535.271049 
L 521.906908 -535.271049 
L 520.456729 -535.271049 
L 519.006549 -535.271049 
L 517.55637 -535.271049 
L 516.106191 -535.271049 
L 514.656011 -535.271049 
L 513.205832 -535.271049 
L 511.755653 -535.271049 
L 510.305473 -535.271049 
L 508.855294 -535.271049 
L 507.405115 -535.271049 
L 505.954935 -535.271049 
L 504.504756 -535.271049 
L 503.054577 -535.27941 
L 501.604397 -535.325568 
L 500.154218 -535.54792 
L 498.704039 -536.366095 
L 497.253859 -538.644029 
L 495.80368 -543.362407 
L 494.353501 -550.387695 
L 492.903321 -557.265639 
L 491.453142 -575.524507 
L 490.002963 -557.276989 
L 488.552783 -550.461708 
L 487.102604 -543.738274 
L 485.652425 -540.130612 
L 484.202245 -540.945094 
L 482.752066 -546.532368 
L 481.301887 -555.847218 
L 479.851707 -565.138234 
L 478.401528 -590.84257 
L 476.951349 -565.129874 
L 475.501169 -555.792699 
L 474.05099 -546.263508 
L 472.600811 -539.902285 
L 471.150632 -537.022911 
L 469.700452 -536.696113 
L 468.250273 -538.576816 
L 466.800094 -543.034973 
L 465.349914 -549.754764 
L 463.899735 -556.34473 
L 462.449556 -569.513541 
L 460.999376 -556.34473 
L 459.549197 -549.754764 
L 458.099018 -543.023623 
L 456.648838 -538.502803 
L 455.198659 -536.320246 
L 453.74848 -535.536328 
L 452.2983 -535.323286 
L 450.848121 -535.27906 
L 449.397942 -535.271049 
L 447.947762 -535.271049 
L 446.497583 -535.271049 
L 445.047404 -535.271049 
L 443.597224 -535.271049 
L 442.147045 -535.271049 
L 440.696866 -535.271049 
L 439.246686 -535.271049 
L 437.796507 -535.271049 
L 436.346328 -535.271049 
L 434.896148 -535.271049 
L 433.445969 -535.271049 
L 431.99579 -535.271049 
L 430.54561 -535.271049 
L 429.095431 -535.271049 
L 427.645252 -535.271049 
L 426.195073 -535.271049 
L 424.744893 -535.271049 
L 423.294714 -535.271049 
L 421.844535 -535.271049 
L 420.394355 -535.271049 
L 418.944176 -535.271049 
L 417.493997 -535.271049 
L 416.043817 -535.271049 
L 414.593638 -535.271049 
L 413.143459 -535.271049 
L 411.693279 -535.271049 
L 410.2431 -535.271049 
L 408.792921 -535.271049 
L 407.342741 -535.271049 
L 405.892562 -535.271049 
z
" style="stroke: #ff7f0e; stroke-opacity: 0.2"/>
    </defs>
    <g clip-path="url(#pf0ce43198d)">
     <use xlink:href="#mcc0222ddbf" x="0" y="720" style="fill: #ff7f0e; fill-opacity: 0.2; stroke: #ff7f0e; stroke-opacity: 0.2"/>
    </g>
   </g>
   <g id="matplotlib.axis_3">
    <g id="xtick_7">
     <g id="line2d_13">
      <g>
       <use xlink:href="#md7d034e68c" x="405.863558" y="333.490909" style="stroke: #000000; stroke-width: 0.8"/>
      </g>
     </g>
     <g id="text_13">
      <!-- 0 -->
      <g transform="translate(402.682308 348.089347)scale(0.1 -0.1)">
       <use xlink:href="#DejaVuSans-30"/>
      </g>
     </g>
    </g>
    <g id="xtick_8">
     <g id="line2d_14">
      <g>
       <use xlink:href="#md7d034e68c" x="463.870731" y="333.490909" style="stroke: #000000; stroke-width: 0.8"/>
      </g>
     </g>
     <g id="text_14">
      <!-- 2000 -->
      <g transform="translate(451.145731 348.089347)scale(0.1 -0.1)">
       <use xlink:href="#DejaVuSans-32"/>
       <use xlink:href="#DejaVuSans-30" x="63.623047"/>
       <use xlink:href="#DejaVuSans-30" x="127.246094"/>
       <use xlink:href="#DejaVuSans-30" x="190.869141"/>
      </g>
     </g>
    </g>
    <g id="xtick_9">
     <g id="line2d_15">
      <g>
       <use xlink:href="#md7d034e68c" x="521.877904" y="333.490909" style="stroke: #000000; stroke-width: 0.8"/>
      </g>
     </g>
     <g id="text_15">
      <!-- 4000 -->
      <g transform="translate(509.152904 348.089347)scale(0.1 -0.1)">
       <use xlink:href="#DejaVuSans-34"/>
       <use xlink:href="#DejaVuSans-30" x="63.623047"/>
       <use xlink:href="#DejaVuSans-30" x="127.246094"/>
       <use xlink:href="#DejaVuSans-30" x="190.869141"/>
      </g>
     </g>
    </g>
    <g id="xtick_10">
     <g id="line2d_16">
      <g>
       <use xlink:href="#md7d034e68c" x="579.885077" y="333.490909" style="stroke: #000000; stroke-width: 0.8"/>
      </g>
     </g>
     <g id="text_16">
      <!-- 6000 -->
      <g transform="translate(567.160077 348.089347)scale(0.1 -0.1)">
       <use xlink:href="#DejaVuSans-36"/>
       <use xlink:href="#DejaVuSans-30" x="63.623047"/>
       <use xlink:href="#DejaVuSans-30" x="127.246094"/>
       <use xlink:href="#DejaVuSans-30" x="190.869141"/>
      </g>
     </g>
    </g>
    <g id="xtick_11">
     <g id="line2d_17">
      <g>
       <use xlink:href="#md7d034e68c" x="637.89225" y="333.490909" style="stroke: #000000; stroke-width: 0.8"/>
      </g>
     </g>
     <g id="text_17">
      <!-- 8000 -->
      <g transform="translate(625.16725 348.089347)scale(0.1 -0.1)">
       <use xlink:href="#DejaVuSans-38"/>
       <use xlink:href="#DejaVuSans-30" x="63.623047"/>
       <use xlink:href="#DejaVuSans-30" x="127.246094"/>
       <use xlink:href="#DejaVuSans-30" x="190.869141"/>
      </g>
     </g>
    </g>
   </g>
   <g id="matplotlib.axis_4">
    <g id="ytick_7">
     <g id="line2d_18">
      <g>
       <use xlink:href="#m4373dc659c" x="394.363636" y="328.330907" style="stroke: #000000; stroke-width: 0.8"/>
      </g>
     </g>
     <g id="text_18">
      <!-- −0.25 -->
      <g transform="translate(356.718324 332.130125)scale(0.1 -0.1)">
       <defs>
        <path id="DejaVuSans-2212" d="M 678 2272 
L 4684 2272 
L 4684 1741 
L 678 1741 
L 678 2272 
z
" transform="scale(0.015625)"/>
        <path id="DejaVuSans-35" d="M 691 4666 
L 3169 4666 
L 3169 4134 
L 1269 4134 
L 1269 2991 
Q 1406 3038 1543 3061 
Q 1681 3084 1819 3084 
Q 2600 3084 3056 2656 
Q 3513 2228 3513 1497 
Q 3513 744 3044 326 
Q 2575 -91 1722 -91 
Q 1428 -91 1123 -41 
Q 819 9 494 109 
L 494 744 
Q 775 591 1075 516 
Q 1375 441 1709 441 
Q 2250 441 2565 725 
Q 2881 1009 2881 1497 
Q 2881 1984 2565 2268 
Q 2250 2553 1709 2553 
Q 1456 2553 1204 2497 
Q 953 2441 691 2322 
L 691 4666 
z
" transform="scale(0.015625)"/>
       </defs>
       <use xlink:href="#DejaVuSans-2212"/>
       <use xlink:href="#DejaVuSans-30" x="83.789062"/>
       <use xlink:href="#DejaVuSans-2e" x="147.412109"/>
       <use xlink:href="#DejaVuSans-32" x="179.199219"/>
       <use xlink:href="#DejaVuSans-35" x="242.822266"/>
      </g>
     </g>
    </g>
    <g id="ytick_8">
     <g id="line2d_19">
      <g>
       <use xlink:href="#m4373dc659c" x="394.363636" y="299.610515" style="stroke: #000000; stroke-width: 0.8"/>
      </g>
     </g>
     <g id="text_19">
      <!-- −0.20 -->
      <g transform="translate(356.718324 303.409734)scale(0.1 -0.1)">
       <use xlink:href="#DejaVuSans-2212"/>
       <use xlink:href="#DejaVuSans-30" x="83.789062"/>
       <use xlink:href="#DejaVuSans-2e" x="147.412109"/>
       <use xlink:href="#DejaVuSans-32" x="179.199219"/>
       <use xlink:href="#DejaVuSans-30" x="242.822266"/>
      </g>
     </g>
    </g>
    <g id="ytick_9">
     <g id="line2d_20">
      <g>
       <use xlink:href="#m4373dc659c" x="394.363636" y="270.890124" style="stroke: #000000; stroke-width: 0.8"/>
      </g>
     </g>
     <g id="text_20">
      <!-- −0.15 -->
      <g transform="translate(356.718324 274.689343)scale(0.1 -0.1)">
       <use xlink:href="#DejaVuSans-2212"/>
       <use xlink:href="#DejaVuSans-30" x="83.789062"/>
       <use xlink:href="#DejaVuSans-2e" x="147.412109"/>
       <use xlink:href="#DejaVuSans-31" x="179.199219"/>
       <use xlink:href="#DejaVuSans-35" x="242.822266"/>
      </g>
     </g>
    </g>
    <g id="ytick_10">
     <g id="line2d_21">
      <g>
       <use xlink:href="#m4373dc659c" x="394.363636" y="242.169733" style="stroke: #000000; stroke-width: 0.8"/>
      </g>
     </g>
     <g id="text_21">
      <!-- −0.10 -->
      <g transform="translate(356.718324 245.968952)scale(0.1 -0.1)">
       <use xlink:href="#DejaVuSans-2212"/>
       <use xlink:href="#DejaVuSans-30" x="83.789062"/>
       <use xlink:href="#DejaVuSans-2e" x="147.412109"/>
       <use xlink:href="#DejaVuSans-31" x="179.199219"/>
       <use xlink:href="#DejaVuSans-30" x="242.822266"/>
      </g>
     </g>
    </g>
    <g id="ytick_11">
     <g id="line2d_22">
      <g>
       <use xlink:href="#m4373dc659c" x="394.363636" y="213.449342" style="stroke: #000000; stroke-width: 0.8"/>
      </g>
     </g>
     <g id="text_22">
      <!-- −0.05 -->
      <g transform="translate(356.718324 217.248561)scale(0.1 -0.1)">
       <use xlink:href="#DejaVuSans-2212"/>
       <use xlink:href="#DejaVuSans-30" x="83.789062"/>
       <use xlink:href="#DejaVuSans-2e" x="147.412109"/>
       <use xlink:href="#DejaVuSans-30" x="179.199219"/>
       <use xlink:href="#DejaVuSans-35" x="242.822266"/>
      </g>
     </g>
    </g>
    <g id="ytick_12">
     <g id="line2d_23">
      <g>
       <use xlink:href="#m4373dc659c" x="394.363636" y="184.728951" style="stroke: #000000; stroke-width: 0.8"/>
      </g>
     </g>
     <g id="text_23">
      <!-- 0.00 -->
      <g transform="translate(365.098011 188.528169)scale(0.1 -0.1)">
       <use xlink:href="#DejaVuSans-30"/>
       <use xlink:href="#DejaVuSans-2e" x="63.623047"/>
       <use xlink:href="#DejaVuSans-30" x="95.410156"/>
       <use xlink:href="#DejaVuSans-30" x="159.033203"/>
      </g>
     </g>
    </g>
    <g id="ytick_13">
     <g id="line2d_24">
      <g>
       <use xlink:href="#m4373dc659c" x="394.363636" y="156.00856" style="stroke: #000000; stroke-width: 0.8"/>
      </g>
     </g>
     <g id="text_24">
      <!-- 0.05 -->
      <g transform="translate(365.098011 159.807778)scale(0.1 -0.1)">
       <use xlink:href="#DejaVuSans-30"/>
       <use xlink:href="#DejaVuSans-2e" x="63.623047"/>
       <use xlink:href="#DejaVuSans-30" x="95.410156"/>
       <use xlink:href="#DejaVuSans-35" x="159.033203"/>
      </g>
     </g>
    </g>
    <g id="ytick_14">
     <g id="line2d_25">
      <g>
       <use xlink:href="#m4373dc659c" x="394.363636" y="127.288168" style="stroke: #000000; stroke-width: 0.8"/>
      </g>
     </g>
     <g id="text_25">
      <!-- 0.10 -->
      <g transform="translate(365.098011 131.087387)scale(0.1 -0.1)">
       <use xlink:href="#DejaVuSans-30"/>
       <use xlink:href="#DejaVuSans-2e" x="63.623047"/>
       <use xlink:href="#DejaVuSans-31" x="95.410156"/>
       <use xlink:href="#DejaVuSans-30" x="159.033203"/>
      </g>
     </g>
    </g>
    <g id="ytick_15">
     <g id="line2d_26">
      <g>
       <use xlink:href="#m4373dc659c" x="394.363636" y="98.567777" style="stroke: #000000; stroke-width: 0.8"/>
      </g>
     </g>
     <g id="text_26">
      <!-- 0.15 -->
      <g transform="translate(365.098011 102.366996)scale(0.1 -0.1)">
       <use xlink:href="#DejaVuSans-30"/>
       <use xlink:href="#DejaVuSans-2e" x="63.623047"/>
       <use xlink:href="#DejaVuSans-31" x="95.410156"/>
       <use xlink:href="#DejaVuSans-35" x="159.033203"/>
      </g>
     </g>
    </g>
   </g>
   <g id="line2d_27">
    <path d="M 405.892562 184.728951 
L 414.593638 184.828718 
L 416.043817 185.131295 
L 417.493997 186.00491 
L 418.944176 187.947276 
L 420.394355 191.267116 
L 423.294714 200.382848 
L 424.744893 204.942967 
L 426.195073 209.887404 
L 427.645252 216.318222 
L 429.095431 224.635572 
L 431.99579 243.799123 
L 434.896148 264.715298 
L 436.346328 272.692971 
L 437.796507 273.112313 
L 439.246686 263.522212 
L 442.147045 231.86995 
L 443.597224 221.370393 
L 445.047404 214.773476 
L 446.497583 209.133967 
L 447.947762 204.174948 
L 449.397942 201.585173 
L 450.848121 201.460555 
L 452.2983 201.632469 
L 453.74848 200.527024 
L 455.198659 199.137959 
L 456.648838 199.459576 
L 458.099018 201.777305 
L 459.549197 204.834248 
L 460.999376 208.505434 
L 462.449556 214.849534 
L 463.899735 225.51027 
L 465.349914 238.870481 
L 466.800094 251.137457 
L 469.700452 270.290088 
L 472.600811 295.364815 
L 474.05099 297.921141 
L 475.501169 285.607261 
L 476.951349 265.034741 
L 478.401528 249.008975 
L 479.851707 244.494381 
L 481.301887 247.723123 
L 482.752066 250.046069 
L 484.202245 246.056975 
L 485.652425 236.264017 
L 487.102604 224.989317 
L 488.552783 217.605774 
L 490.002963 217.93453 
L 491.453142 225.568128 
L 492.903321 235.574668 
L 494.353501 242.224372 
L 495.80368 243.28618 
L 497.253859 240.264261 
L 500.154218 231.119642 
L 501.604397 227.923546 
L 504.504756 224.28091 
L 505.954935 220.377298 
L 507.405115 214.779482 
L 508.855294 210.900414 
L 510.305473 212.37939 
L 511.755653 219.293355 
L 513.205832 227.470606 
L 514.656011 231.840154 
L 516.106191 230.522565 
L 517.55637 225.34684 
L 519.006549 219.190936 
L 520.456729 214.246257 
L 521.906908 212.023041 
L 523.357087 212.831263 
L 526.257446 217.947254 
L 527.707625 219.747258 
L 529.157804 220.091494 
L 530.607984 218.230023 
L 532.058163 214.286706 
L 537.85888 194.55698 
L 539.30906 190.634339 
L 540.759239 188.448835 
L 542.209418 188.523541 
L 543.659598 190.524604 
L 545.109777 193.061102 
L 546.559956 194.269637 
L 548.010136 193.150786 
L 550.910494 187.670726 
L 552.360674 186.576315 
L 553.810853 187.861763 
L 555.261032 191.184944 
L 556.711212 194.894528 
L 558.161391 196.76348 
L 559.61157 195.728594 
L 561.06175 192.830879 
L 562.511929 190.184398 
L 563.962108 189.544394 
L 565.412288 192.512331 
L 566.862467 201.760675 
L 568.312646 220.455156 
L 571.213005 277.153405 
L 572.663184 293.581617 
L 574.113363 288.525369 
L 575.563543 266.063333 
L 577.013722 240.261943 
L 578.463901 223.091147 
L 579.914081 216.117356 
L 581.36426 213.042363 
L 582.814439 208.008509 
L 585.714798 193.074649 
L 587.164977 188.201382 
L 588.615157 185.856284 
L 590.065336 185.013985 
L 591.515515 184.785077 
L 595.866053 184.728951 
L 608.917667 184.829856 
L 610.367847 185.198263 
L 611.818026 186.475144 
L 613.268205 189.913304 
L 614.718385 197.092626 
L 616.168564 208.667976 
L 619.068923 237.462964 
L 620.519102 249.548212 
L 621.969281 258.817919 
L 623.41946 264.536383 
L 624.86964 265.485473 
L 626.319819 262.292534 
L 627.769998 258.169912 
L 629.220178 256.480179 
L 630.670357 258.847577 
L 632.120536 265.357302 
L 635.020895 283.749308 
L 636.471074 289.340191 
L 636.471074 289.340191 
" clip-path="url(#pf0ce43198d)" style="fill: none; stroke: #9467bd; stroke-width: 2; stroke-linecap: square"/>
   </g>
   <g id="line2d_28">
    <path d="M 405.892562 188.015679 
L 407.342741 191.97041 
L 408.792921 200.493369 
L 411.693279 225.934342 
L 413.143459 234.037419 
L 414.593638 233.806538 
L 416.043817 226.388381 
L 417.493997 216.451383 
L 418.944176 208.361573 
L 420.394355 203.339024 
L 423.294714 196.152238 
L 424.744893 192.082224 
L 426.195073 188.58655 
L 427.645252 186.35095 
L 429.095431 185.272105 
L 430.54561 184.866972 
L 433.445969 184.558693 
L 434.896148 184.187394 
L 436.346328 183.428923 
L 439.246686 181.194941 
L 440.696866 180.724393 
L 442.147045 181.194941 
L 445.047404 183.428861 
L 446.497583 184.186993 
L 447.947762 184.553003 
L 450.848121 184.720191 
L 474.05099 184.728951 
L 508.855294 184.793173 
L 510.305473 184.926749 
L 511.755653 185.203358 
L 514.656011 186.016149 
L 516.106191 186.182186 
L 517.55637 185.998592 
L 520.456729 185.148301 
L 521.906908 184.864227 
L 524.807266 184.707254 
L 565.412288 184.728951 
L 591.515515 184.780519 
L 592.965695 184.935614 
L 594.415874 185.379272 
L 595.866053 186.343383 
L 597.316233 187.912649 
L 598.766412 189.763116 
L 600.216591 191.184275 
L 601.666771 191.518261 
L 603.11695 190.633143 
L 606.017309 187.252647 
L 607.467488 185.950186 
L 608.917667 185.205269 
L 610.367847 184.877136 
L 613.268205 184.735833 
L 621.969281 184.744519 
L 623.41946 184.808014 
L 624.86964 185.041651 
L 626.319819 185.692135 
L 627.769998 187.03951 
L 630.670357 191.012089 
L 632.120536 191.861543 
L 633.570716 191.088765 
L 635.020895 189.358344 
L 636.471074 188.002694 
L 636.471074 188.002694 
" clip-path="url(#pf0ce43198d)" style="fill: none; stroke: #1f77b4; stroke-width: 2; stroke-linecap: square"/>
   </g>
   <g id="line2d_29">
    <path d="M 405.892562 279.326103 
L 407.342741 271.606118 
L 408.792921 257.46273 
L 411.693279 220.584962 
L 413.143459 204.767046 
L 414.593638 194.023235 
L 416.043817 188.236618 
L 417.493997 185.790678 
L 418.944176 184.983769 
L 420.394355 184.776648 
L 424.744893 184.728951 
L 434.896148 184.637069 
L 436.346328 184.365551 
L 437.796507 183.609599 
L 439.246686 182.043766 
L 442.147045 177.429863 
L 443.597224 176.458 
L 445.047404 177.429863 
L 447.947762 182.043766 
L 449.397942 183.609599 
L 450.848121 184.365551 
L 452.2983 184.637069 
L 455.198659 184.724935 
L 458.099018 184.687848 
L 459.549197 184.566387 
L 460.999376 184.22822 
L 462.449556 183.52776 
L 465.349914 181.463775 
L 466.800094 181.029022 
L 468.250273 181.463775 
L 471.150632 183.52776 
L 472.600811 184.22822 
L 474.05099 184.566387 
L 476.951349 184.716762 
L 479.851707 184.593335 
L 481.301887 184.19258 
L 482.752066 183.076813 
L 484.202245 180.765678 
L 487.102604 173.955658 
L 488.552783 172.512381 
L 490.002963 173.898078 
L 491.453142 177.023011 
L 492.903321 179.549461 
L 494.353501 179.211363 
L 495.80368 174.441935 
L 497.253859 164.891808 
L 498.704039 152.388058 
L 500.154218 140.932759 
L 501.604397 134.495863 
L 503.054577 134.196114 
L 504.504756 137.868236 
L 505.954935 142.731852 
L 507.405115 148.212729 
L 508.855294 155.429235 
L 511.755653 173.025777 
L 513.205832 179.295304 
L 514.656011 182.714431 
L 516.106191 184.137279 
L 517.55637 184.591045 
L 520.456729 184.726029 
L 543.659598 184.845585 
L 545.109777 185.190247 
L 546.559956 186.149843 
L 548.010136 188.137494 
L 550.910494 193.994331 
L 552.360674 195.228002 
L 553.810853 193.994331 
L 556.711212 188.137494 
L 558.161391 186.149843 
L 559.61157 185.190247 
L 561.06175 184.845585 
L 563.962108 184.732473 
L 571.213005 184.670216 
L 572.663184 184.498884 
L 574.113363 184.027987 
L 575.563543 183.086479 
L 577.013722 181.81487 
L 578.463901 180.967877 
L 579.914081 181.625216 
L 581.36426 184.207524 
L 582.814439 187.810586 
L 584.264619 190.933799 
L 585.714798 192.912465 
L 587.164977 194.176375 
L 588.615157 195.027017 
L 590.065336 194.851282 
L 591.515515 192.959603 
L 592.965695 189.620077 
L 594.415874 185.787257 
L 595.866053 182.299116 
L 597.316233 179.767677 
L 598.766412 178.747393 
L 600.216591 179.379416 
L 603.11695 182.753483 
L 604.567129 183.905453 
L 606.017309 184.4616 
L 607.467488 184.661354 
L 611.818026 184.728951 
L 636.471074 184.728951 
L 636.471074 184.728951 
" clip-path="url(#pf0ce43198d)" style="fill: none; stroke: #d62728; stroke-width: 2; stroke-linecap: square"/>
   </g>
   <g id="line2d_30">
    <path d="M 405.892562 184.728951 
L 452.2983 184.676714 
L 453.74848 184.463672 
L 455.198659 183.679754 
L 456.648838 181.497197 
L 458.099018 176.976377 
L 460.999376 163.65527 
L 462.449556 160.849342 
L 463.899735 163.65527 
L 466.800094 176.965027 
L 468.250273 181.423184 
L 469.700452 183.303887 
L 471.150632 182.977089 
L 472.600811 180.097715 
L 474.05099 173.736492 
L 476.951349 154.870126 
L 478.401528 150.89447 
L 479.851707 154.861766 
L 482.752066 173.467632 
L 484.202245 179.054906 
L 485.652425 179.869388 
L 487.102604 176.261726 
L 490.002963 162.723011 
L 491.453142 159.805815 
L 492.903321 162.734361 
L 495.80368 176.637593 
L 497.253859 181.355971 
L 498.704039 183.633905 
L 500.154218 184.45208 
L 501.604397 184.674432 
L 505.954935 184.728951 
L 529.157804 184.80308 
L 530.607984 185.037726 
L 532.058163 185.752731 
L 533.508342 187.455153 
L 534.958522 190.611171 
L 537.85888 199.949324 
L 539.30906 203.433453 
L 540.759239 204.413219 
L 542.209418 202.961652 
L 543.659598 199.820838 
L 545.109777 195.211227 
L 546.559956 188.811615 
L 548.010136 181.09637 
L 549.460315 174.169135 
L 550.910494 170.610456 
L 552.360674 171.176971 
L 553.810853 173.760651 
L 555.261032 174.878747 
L 556.711212 172.241984 
L 559.61157 159.992587 
L 561.06175 156.606314 
L 562.511929 157.330819 
L 563.962108 160.224269 
L 565.412288 162.308411 
L 566.862467 162.838934 
L 568.312646 163.897471 
L 569.762826 167.523334 
L 572.663184 178.600649 
L 574.113363 182.182135 
L 575.563543 183.9034 
L 577.013722 184.520219 
L 578.463901 184.687849 
L 584.264619 184.728951 
L 600.216591 184.705347 
L 601.666771 184.593467 
L 603.11695 184.123706 
L 604.567129 182.569712 
L 606.017309 178.499545 
L 607.467488 170.058003 
L 608.917667 156.262714 
L 610.367847 138.817818 
L 611.818026 122.743818 
L 613.268205 114.336282 
L 614.718385 117.182818 
L 616.168564 129.190635 
L 617.618743 143.635825 
L 619.068923 153.975274 
L 620.519102 158.179917 
L 621.969281 158.278033 
L 623.41946 156.389326 
L 626.319819 149.434738 
L 627.769998 149.195289 
L 629.220178 154.810752 
L 632.120536 173.988604 
L 633.570716 180.262677 
L 635.020895 183.269981 
L 636.471074 184.290773 
L 636.471074 184.290773 
" clip-path="url(#pf0ce43198d)" style="fill: none; stroke: #ff7f0e; stroke-width: 2; stroke-linecap: square"/>
   </g>
   <g id="LineCollection_1">
    <path d="M 521.877904 279.907938 
L 521.877904 131.648629 
" clip-path="url(#pf0ce43198d)" style="fill: none; stroke-dasharray: 7.4,3.2; stroke-dashoffset: 0; stroke: #000000; stroke-width: 2"/>
    <path d="M 536.379697 279.907938 
L 536.379697 131.648629 
" clip-path="url(#pf0ce43198d)" style="fill: none; stroke-dasharray: 7.4,3.2; stroke-dashoffset: 0; stroke: #000000; stroke-width: 2"/>
    <path d="M 565.383284 279.907938 
L 565.383284 131.648629 
" clip-path="url(#pf0ce43198d)" style="fill: none; stroke-dasharray: 7.4,3.2; stroke-dashoffset: 0; stroke: #000000; stroke-width: 2"/>
    <path d="M 623.390457 279.907938 
L 623.390457 131.648629 
" clip-path="url(#pf0ce43198d)" style="fill: none; stroke-dasharray: 7.4,3.2; stroke-dashoffset: 0; stroke: #000000; stroke-width: 2"/>
   </g>
   <g id="patch_8">
    <path d="M 394.363636 333.490909 
L 394.363636 86.4 
" style="fill: none; stroke: #000000; stroke-width: 0.8; stroke-linejoin: miter; stroke-linecap: square"/>
   </g>
   <g id="patch_9">
    <path d="M 648 333.490909 
L 648 86.4 
" style="fill: none; stroke: #000000; stroke-width: 0.8; stroke-linejoin: miter; stroke-linecap: square"/>
   </g>
   <g id="patch_10">
    <path d="M 394.363636 333.490909 
L 648 333.490909 
" style="fill: none; stroke: #000000; stroke-width: 0.8; stroke-linejoin: miter; stroke-linecap: square"/>
   </g>
   <g id="patch_11">
    <path d="M 394.363636 86.4 
L 648 86.4 
" style="fill: none; stroke: #000000; stroke-width: 0.8; stroke-linejoin: miter; stroke-linecap: square"/>
   </g>
   <g id="text_27">
    <!-- unit_36 -->
    <g transform="translate(498.922756 80.4)scale(0.12 -0.12)">
     <defs>
      <path id="DejaVuSans-75" d="M 544 1381 
L 544 3500 
L 1119 3500 
L 1119 1403 
Q 1119 906 1312 657 
Q 1506 409 1894 409 
Q 2359 409 2629 706 
Q 2900 1003 2900 1516 
L 2900 3500 
L 3475 3500 
L 3475 0 
L 2900 0 
L 2900 538 
Q 2691 219 2414 64 
Q 2138 -91 1772 -91 
Q 1169 -91 856 284 
Q 544 659 544 1381 
z
M 1991 3584 
L 1991 3584 
z
" transform="scale(0.015625)"/>
      <path id="DejaVuSans-6e" d="M 3513 2113 
L 3513 0 
L 2938 0 
L 2938 2094 
Q 2938 2591 2744 2837 
Q 2550 3084 2163 3084 
Q 1697 3084 1428 2787 
Q 1159 2491 1159 1978 
L 1159 0 
L 581 0 
L 581 3500 
L 1159 3500 
L 1159 2956 
Q 1366 3272 1645 3428 
Q 1925 3584 2291 3584 
Q 2894 3584 3203 3211 
Q 3513 2838 3513 2113 
z
" transform="scale(0.015625)"/>
      <path id="DejaVuSans-69" d="M 603 3500 
L 1178 3500 
L 1178 0 
L 603 0 
L 603 3500 
z
M 603 4863 
L 1178 4863 
L 1178 4134 
L 603 4134 
L 603 4863 
z
" transform="scale(0.015625)"/>
      <path id="DejaVuSans-74" d="M 1172 4494 
L 1172 3500 
L 2356 3500 
L 2356 3053 
L 1172 3053 
L 1172 1153 
Q 1172 725 1289 603 
Q 1406 481 1766 481 
L 2356 481 
L 2356 0 
L 1766 0 
Q 1100 0 847 248 
Q 594 497 594 1153 
L 594 3053 
L 172 3053 
L 172 3500 
L 594 3500 
L 594 4494 
L 1172 4494 
z
" transform="scale(0.015625)"/>
      <path id="DejaVuSans-5f" d="M 3263 -1063 
L 3263 -1509 
L -63 -1509 
L -63 -1063 
L 3263 -1063 
z
" transform="scale(0.015625)"/>
      <path id="DejaVuSans-33" d="M 2597 2516 
Q 3050 2419 3304 2112 
Q 3559 1806 3559 1356 
Q 3559 666 3084 287 
Q 2609 -91 1734 -91 
Q 1441 -91 1130 -33 
Q 819 25 488 141 
L 488 750 
Q 750 597 1062 519 
Q 1375 441 1716 441 
Q 2309 441 2620 675 
Q 2931 909 2931 1356 
Q 2931 1769 2642 2001 
Q 2353 2234 1838 2234 
L 1294 2234 
L 1294 2753 
L 1863 2753 
Q 2328 2753 2575 2939 
Q 2822 3125 2822 3475 
Q 2822 3834 2567 4026 
Q 2313 4219 1838 4219 
Q 1578 4219 1281 4162 
Q 984 4106 628 3988 
L 628 4550 
Q 988 4650 1302 4700 
Q 1616 4750 1894 4750 
Q 2613 4750 3031 4423 
Q 3450 4097 3450 3541 
Q 3450 3153 3228 2886 
Q 3006 2619 2597 2516 
z
" transform="scale(0.015625)"/>
     </defs>
     <use xlink:href="#DejaVuSans-75"/>
     <use xlink:href="#DejaVuSans-6e" x="63.378906"/>
     <use xlink:href="#DejaVuSans-69" x="126.757812"/>
     <use xlink:href="#DejaVuSans-74" x="154.541016"/>
     <use xlink:href="#DejaVuSans-5f" x="193.75"/>
     <use xlink:href="#DejaVuSans-33" x="243.75"/>
     <use xlink:href="#DejaVuSans-36" x="307.373047"/>
    </g>
   </g>
  </g>
  <g id="axes_3">
   <g id="patch_12">
    <path d="M 90 630 
L 343.636364 630 
L 343.636364 382.909091 
L 90 382.909091 
z
" style="fill: #ffffff"/>
   </g>
   <g id="matplotlib.axis_5">
    <g id="xtick_12">
     <g id="line2d_31">
      <g>
       <use xlink:href="#md7d034e68c" x="90" y="630" style="stroke: #000000; stroke-width: 0.8"/>
      </g>
     </g>
     <g id="text_28">
      <!-- 0.0 -->
      <g transform="translate(82.048438 644.598437)scale(0.1 -0.1)">
       <use xlink:href="#DejaVuSans-30"/>
       <use xlink:href="#DejaVuSans-2e" x="63.623047"/>
       <use xlink:href="#DejaVuSans-30" x="95.410156"/>
      </g>
     </g>
    </g>
    <g id="xtick_13">
     <g id="line2d_32">
      <g>
       <use xlink:href="#md7d034e68c" x="140.727273" y="630" style="stroke: #000000; stroke-width: 0.8"/>
      </g>
     </g>
     <g id="text_29">
      <!-- 0.2 -->
      <g transform="translate(132.77571 644.598437)scale(0.1 -0.1)">
       <use xlink:href="#DejaVuSans-30"/>
       <use xlink:href="#DejaVuSans-2e" x="63.623047"/>
       <use xlink:href="#DejaVuSans-32" x="95.410156"/>
      </g>
     </g>
    </g>
    <g id="xtick_14">
     <g id="line2d_33">
      <g>
       <use xlink:href="#md7d034e68c" x="191.454545" y="630" style="stroke: #000000; stroke-width: 0.8"/>
      </g>
     </g>
     <g id="text_30">
      <!-- 0.4 -->
      <g transform="translate(183.502983 644.598437)scale(0.1 -0.1)">
       <use xlink:href="#DejaVuSans-30"/>
       <use xlink:href="#DejaVuSans-2e" x="63.623047"/>
       <use xlink:href="#DejaVuSans-34" x="95.410156"/>
      </g>
     </g>
    </g>
    <g id="xtick_15">
     <g id="line2d_34">
      <g>
       <use xlink:href="#md7d034e68c" x="242.181818" y="630" style="stroke: #000000; stroke-width: 0.8"/>
      </g>
     </g>
     <g id="text_31">
      <!-- 0.6 -->
      <g transform="translate(234.230256 644.598437)scale(0.1 -0.1)">
       <use xlink:href="#DejaVuSans-30"/>
       <use xlink:href="#DejaVuSans-2e" x="63.623047"/>
       <use xlink:href="#DejaVuSans-36" x="95.410156"/>
      </g>
     </g>
    </g>
    <g id="xtick_16">
     <g id="line2d_35">
      <g>
       <use xlink:href="#md7d034e68c" x="292.909091" y="630" style="stroke: #000000; stroke-width: 0.8"/>
      </g>
     </g>
     <g id="text_32">
      <!-- 0.8 -->
      <g transform="translate(284.957528 644.598437)scale(0.1 -0.1)">
       <use xlink:href="#DejaVuSans-30"/>
       <use xlink:href="#DejaVuSans-2e" x="63.623047"/>
       <use xlink:href="#DejaVuSans-38" x="95.410156"/>
      </g>
     </g>
    </g>
    <g id="xtick_17">
     <g id="line2d_36">
      <g>
       <use xlink:href="#md7d034e68c" x="343.636364" y="630" style="stroke: #000000; stroke-width: 0.8"/>
      </g>
     </g>
     <g id="text_33">
      <!-- 1.0 -->
      <g transform="translate(335.684801 644.598437)scale(0.1 -0.1)">
       <use xlink:href="#DejaVuSans-31"/>
       <use xlink:href="#DejaVuSans-2e" x="63.623047"/>
       <use xlink:href="#DejaVuSans-30" x="95.410156"/>
      </g>
     </g>
    </g>
   </g>
   <g id="matplotlib.axis_6">
    <g id="ytick_16">
     <g id="line2d_37">
      <g>
       <use xlink:href="#m4373dc659c" x="90" y="630" style="stroke: #000000; stroke-width: 0.8"/>
      </g>
     </g>
     <g id="text_34">
      <!-- 0.0 -->
      <g transform="translate(67.096875 633.799219)scale(0.1 -0.1)">
       <use xlink:href="#DejaVuSans-30"/>
       <use xlink:href="#DejaVuSans-2e" x="63.623047"/>
       <use xlink:href="#DejaVuSans-30" x="95.410156"/>
      </g>
     </g>
    </g>
    <g id="ytick_17">
     <g id="line2d_38">
      <g>
       <use xlink:href="#m4373dc659c" x="90" y="580.581818" style="stroke: #000000; stroke-width: 0.8"/>
      </g>
     </g>
     <g id="text_35">
      <!-- 0.2 -->
      <g transform="translate(67.096875 584.381037)scale(0.1 -0.1)">
       <use xlink:href="#DejaVuSans-30"/>
       <use xlink:href="#DejaVuSans-2e" x="63.623047"/>
       <use xlink:href="#DejaVuSans-32" x="95.410156"/>
      </g>
     </g>
    </g>
    <g id="ytick_18">
     <g id="line2d_39">
      <g>
       <use xlink:href="#m4373dc659c" x="90" y="531.163636" style="stroke: #000000; stroke-width: 0.8"/>
      </g>
     </g>
     <g id="text_36">
      <!-- 0.4 -->
      <g transform="translate(67.096875 534.962855)scale(0.1 -0.1)">
       <use xlink:href="#DejaVuSans-30"/>
       <use xlink:href="#DejaVuSans-2e" x="63.623047"/>
       <use xlink:href="#DejaVuSans-34" x="95.410156"/>
      </g>
     </g>
    </g>
    <g id="ytick_19">
     <g id="line2d_40">
      <g>
       <use xlink:href="#m4373dc659c" x="90" y="481.745455" style="stroke: #000000; stroke-width: 0.8"/>
      </g>
     </g>
     <g id="text_37">
      <!-- 0.6 -->
      <g transform="translate(67.096875 485.544673)scale(0.1 -0.1)">
       <use xlink:href="#DejaVuSans-30"/>
       <use xlink:href="#DejaVuSans-2e" x="63.623047"/>
       <use xlink:href="#DejaVuSans-36" x="95.410156"/>
      </g>
     </g>
    </g>
    <g id="ytick_20">
     <g id="line2d_41">
      <g>
       <use xlink:href="#m4373dc659c" x="90" y="432.327273" style="stroke: #000000; stroke-width: 0.8"/>
      </g>
     </g>
     <g id="text_38">
      <!-- 0.8 -->
      <g transform="translate(67.096875 436.126491)scale(0.1 -0.1)">
       <use xlink:href="#DejaVuSans-30"/>
       <use xlink:href="#DejaVuSans-2e" x="63.623047"/>
       <use xlink:href="#DejaVuSans-38" x="95.410156"/>
      </g>
     </g>
    </g>
    <g id="ytick_21">
     <g id="line2d_42">
      <g>
       <use xlink:href="#m4373dc659c" x="90" y="382.909091" style="stroke: #000000; stroke-width: 0.8"/>
      </g>
     </g>
     <g id="text_39">
      <!-- 1.0 -->
      <g transform="translate(67.096875 386.70831)scale(0.1 -0.1)">
       <use xlink:href="#DejaVuSans-31"/>
       <use xlink:href="#DejaVuSans-2e" x="63.623047"/>
       <use xlink:href="#DejaVuSans-30" x="95.410156"/>
      </g>
     </g>
    </g>
   </g>
   <g id="patch_13">
    <path d="M 90 630 
L 90 382.909091 
" style="fill: none; stroke: #000000; stroke-width: 0.8; stroke-linejoin: miter; stroke-linecap: square"/>
   </g>
   <g id="patch_14">
    <path d="M 343.636364 630 
L 343.636364 382.909091 
" style="fill: none; stroke: #000000; stroke-width: 0.8; stroke-linejoin: miter; stroke-linecap: square"/>
   </g>
   <g id="patch_15">
    <path d="M 90 630 
L 343.636364 630 
" style="fill: none; stroke: #000000; stroke-width: 0.8; stroke-linejoin: miter; stroke-linecap: square"/>
   </g>
   <g id="patch_16">
    <path d="M 90 382.909091 
L 343.636364 382.909091 
" style="fill: none; stroke: #000000; stroke-width: 0.8; stroke-linejoin: miter; stroke-linecap: square"/>
   </g>
  </g>
  <g id="axes_4">
   <g id="patch_17">
    <path d="M 394.363636 630 
L 648 630 
L 648 382.909091 
L 394.363636 382.909091 
z
" style="fill: #ffffff"/>
   </g>
   <g id="matplotlib.axis_7">
    <g id="xtick_18">
     <g id="line2d_43">
      <g>
       <use xlink:href="#md7d034e68c" x="405.863558" y="630" style="stroke: #000000; stroke-width: 0.8"/>
      </g>
     </g>
     <g id="text_40">
      <!-- 0 -->
      <g transform="translate(402.682308 644.598437)scale(0.1 -0.1)">
       <use xlink:href="#DejaVuSans-30"/>
      </g>
     </g>
    </g>
    <g id="xtick_19">
     <g id="line2d_44">
      <g>
       <use xlink:href="#md7d034e68c" x="463.870731" y="630" style="stroke: #000000; stroke-width: 0.8"/>
      </g>
     </g>
     <g id="text_41">
      <!-- 2000 -->
      <g transform="translate(451.145731 644.598437)scale(0.1 -0.1)">
       <use xlink:href="#DejaVuSans-32"/>
       <use xlink:href="#DejaVuSans-30" x="63.623047"/>
       <use xlink:href="#DejaVuSans-30" x="127.246094"/>
       <use xlink:href="#DejaVuSans-30" x="190.869141"/>
      </g>
     </g>
    </g>
    <g id="xtick_20">
     <g id="line2d_45">
      <g>
       <use xlink:href="#md7d034e68c" x="521.877904" y="630" style="stroke: #000000; stroke-width: 0.8"/>
      </g>
     </g>
     <g id="text_42">
      <!-- 4000 -->
      <g transform="translate(509.152904 644.598437)scale(0.1 -0.1)">
       <use xlink:href="#DejaVuSans-34"/>
       <use xlink:href="#DejaVuSans-30" x="63.623047"/>
       <use xlink:href="#DejaVuSans-30" x="127.246094"/>
       <use xlink:href="#DejaVuSans-30" x="190.869141"/>
      </g>
     </g>
    </g>
    <g id="xtick_21">
     <g id="line2d_46">
      <g>
       <use xlink:href="#md7d034e68c" x="579.885077" y="630" style="stroke: #000000; stroke-width: 0.8"/>
      </g>
     </g>
     <g id="text_43">
      <!-- 6000 -->
      <g transform="translate(567.160077 644.598437)scale(0.1 -0.1)">
       <use xlink:href="#DejaVuSans-36"/>
       <use xlink:href="#DejaVuSans-30" x="63.623047"/>
       <use xlink:href="#DejaVuSans-30" x="127.246094"/>
       <use xlink:href="#DejaVuSans-30" x="190.869141"/>
      </g>
     </g>
    </g>
    <g id="xtick_22">
     <g id="line2d_47">
      <g>
       <use xlink:href="#md7d034e68c" x="637.89225" y="630" style="stroke: #000000; stroke-width: 0.8"/>
      </g>
     </g>
     <g id="text_44">
      <!-- 8000 -->
      <g transform="translate(625.16725 644.598437)scale(0.1 -0.1)">
       <use xlink:href="#DejaVuSans-38"/>
       <use xlink:href="#DejaVuSans-30" x="63.623047"/>
       <use xlink:href="#DejaVuSans-30" x="127.246094"/>
       <use xlink:href="#DejaVuSans-30" x="190.869141"/>
      </g>
     </g>
    </g>
   </g>
   <g id="matplotlib.axis_8">
    <g id="ytick_22">
     <g id="line2d_48">
      <g>
       <use xlink:href="#m4373dc659c" x="394.363636" y="630" style="stroke: #000000; stroke-width: 0.8"/>
      </g>
     </g>
     <g id="text_45">
      <!-- −2 -->
      <g transform="translate(372.621449 633.799219)scale(0.1 -0.1)">
       <use xlink:href="#DejaVuSans-2212"/>
       <use xlink:href="#DejaVuSans-32" x="83.789062"/>
      </g>
     </g>
    </g>
    <g id="ytick_23">
     <g id="line2d_49">
      <g>
       <use xlink:href="#m4373dc659c" x="394.363636" y="576.478795" style="stroke: #000000; stroke-width: 0.8"/>
      </g>
     </g>
     <g id="text_46">
      <!-- 0 -->
      <g transform="translate(381.001136 580.278013)scale(0.1 -0.1)">
       <use xlink:href="#DejaVuSans-30"/>
      </g>
     </g>
    </g>
    <g id="ytick_24">
     <g id="line2d_50">
      <g>
       <use xlink:href="#m4373dc659c" x="394.363636" y="522.957589" style="stroke: #000000; stroke-width: 0.8"/>
      </g>
     </g>
     <g id="text_47">
      <!-- 2 -->
      <g transform="translate(381.001136 526.756808)scale(0.1 -0.1)">
       <use xlink:href="#DejaVuSans-32"/>
      </g>
     </g>
    </g>
    <g id="ytick_25">
     <g id="line2d_51">
      <g>
       <use xlink:href="#m4373dc659c" x="394.363636" y="469.436384" style="stroke: #000000; stroke-width: 0.8"/>
      </g>
     </g>
     <g id="text_48">
      <!-- 4 -->
      <g transform="translate(381.001136 473.235602)scale(0.1 -0.1)">
       <use xlink:href="#DejaVuSans-34"/>
      </g>
     </g>
    </g>
    <g id="ytick_26">
     <g id="line2d_52">
      <g>
       <use xlink:href="#m4373dc659c" x="394.363636" y="415.915178" style="stroke: #000000; stroke-width: 0.8"/>
      </g>
     </g>
     <g id="text_49">
      <!-- 6 -->
      <g transform="translate(381.001136 419.714397)scale(0.1 -0.1)">
       <use xlink:href="#DejaVuSans-36"/>
      </g>
     </g>
    </g>
   </g>
   <g id="line2d_53">
    <path d="M 406.004916 721 
L 407.342741 614.418572 
L 408.792921 567.988626 
L 410.2431 582.878242 
L 411.693279 583.968835 
L 413.143459 577.668412 
L 414.593638 576.193126 
L 417.493997 576.482757 
L 418.944176 576.934292 
L 420.394355 582.333372 
L 423.294714 626.040231 
L 424.744893 629.781893 
L 426.195073 638.38989 
L 427.645252 642.39842 
L 429.095431 679.463529 
L 429.569491 721 
M 434.664645 721 
L 434.896148 709.545862 
L 436.346328 718.239482 
L 436.412407 721 
M 440.233425 721 
L 440.696866 686.630941 
L 442.147045 594.583709 
L 443.597224 607.779107 
L 445.047404 659.030142 
L 446.497583 634.161184 
L 447.947762 590.837967 
L 449.397942 588.185546 
L 450.848121 623.931508 
L 452.2983 654.658471 
L 453.74848 623.891963 
L 455.198659 586.887005 
L 456.648838 575.252307 
L 458.099018 567.217404 
L 459.549197 562.427835 
L 460.999376 574.333966 
L 462.449556 595.387368 
L 465.349914 664.745362 
L 466.800094 662.745079 
L 468.250273 649.6825 
L 469.700452 625.018841 
L 471.150632 619.078849 
L 472.600811 570.642226 
L 474.05099 479.330035 
L 475.501169 518.937177 
L 476.951349 586.895155 
L 478.401528 601.083598 
L 479.851707 591.605318 
L 481.301887 583.815588 
L 482.752066 601.124866 
L 484.202245 640.923131 
L 485.652425 668.727024 
L 487.102604 649.333544 
L 488.552783 585.455992 
L 490.002963 600.688622 
L 491.453142 610.05968 
L 492.903321 509.045191 
L 494.353501 461.276998 
L 495.80368 482.817855 
L 497.253859 457.839331 
L 498.704039 392.770284 
L 500.154218 382.909091 
L 501.604397 502.610373 
L 503.054577 633.277808 
L 504.504756 646.066033 
L 505.954935 577.159227 
L 507.405115 583.728483 
L 508.855294 645.104962 
L 510.305473 662.66936 
L 511.755653 653.075206 
L 513.205832 648.562582 
L 514.656011 651.043985 
L 516.106191 626.71047 
L 517.55637 624.238555 
L 519.006549 640.808967 
L 520.456729 615.716886 
L 521.906908 593.02648 
L 523.357087 612.692127 
L 524.807266 635.745527 
L 526.257446 621.645979 
L 527.707625 631.69488 
L 529.157804 672.313633 
L 530.607984 663.700891 
L 532.058163 619.54223 
L 533.508342 599.153272 
L 534.958522 598.870636 
L 536.408701 591.814582 
L 537.85888 573.116869 
L 539.30906 565.894217 
L 540.759239 570.805642 
L 542.209418 584.286423 
L 543.659598 617.478385 
L 545.109777 661.471945 
L 546.559956 670.380244 
L 548.010136 636.156438 
L 549.460315 609.656457 
L 550.910494 605.672242 
L 552.360674 597.43857 
L 555.261032 577.065015 
L 558.161391 539.500525 
L 559.61157 545.261132 
L 561.06175 562.947067 
L 562.511929 574.863254 
L 563.962108 583.038821 
L 565.412288 593.892312 
L 569.762826 661.101338 
L 570.520019 721 
M 575.641226 721 
L 577.013722 603.625324 
L 578.463901 569.450274 
L 579.914081 567.2327 
L 581.36426 584.561539 
L 582.814439 603.381631 
L 584.264619 611.956986 
L 585.714798 597.682951 
L 587.164977 588.752539 
L 590.065336 633.490986 
L 591.515515 611.051589 
L 592.965695 584.19688 
L 594.415874 577.239592 
L 595.866053 578.05209 
L 597.316233 583.444119 
L 598.766412 587.962673 
L 600.216591 583.444119 
L 601.666771 578.032968 
L 603.11695 576.606369 
L 604.567129 576.484959 
L 606.017309 576.565136 
L 607.467488 577.73092 
L 608.917667 584.448279 
L 610.367847 598.931579 
L 611.818026 597.366936 
L 613.268205 560.089427 
L 614.718385 530.615727 
L 616.168564 545.524716 
L 617.618743 588.145741 
L 619.068923 618.1075 
L 620.519102 579.225832 
L 621.969281 502.915846 
L 623.41946 531.524949 
L 624.86964 661.4458 
L 626.319819 699.489487 
L 627.769998 579.553174 
L 629.220178 565.76695 
L 630.670357 644.94169 
L 632.120536 694.554062 
L 633.524133 721 
M 633.59821 721 
L 635.020895 675.583869 
L 636.471074 609.331506 
L 636.471074 609.331506 
" clip-path="url(#pf239f2445f)" style="fill: none; stroke: #1f77b4; stroke-width: 1.5; stroke-linecap: square"/>
   </g>
   <g id="patch_18">
    <path d="M 394.363636 630 
L 394.363636 382.909091 
" style="fill: none; stroke: #000000; stroke-width: 0.8; stroke-linejoin: miter; stroke-linecap: square"/>
   </g>
   <g id="patch_19">
    <path d="M 648 630 
L 648 382.909091 
" style="fill: none; stroke: #000000; stroke-width: 0.8; stroke-linejoin: miter; stroke-linecap: square"/>
   </g>
   <g id="patch_20">
    <path d="M 394.363636 630 
L 648 630 
" style="fill: none; stroke: #000000; stroke-width: 0.8; stroke-linejoin: miter; stroke-linecap: square"/>
   </g>
   <g id="patch_21">
    <path d="M 394.363636 382.909091 
L 648 382.909091 
" style="fill: none; stroke: #000000; stroke-width: 0.8; stroke-linejoin: miter; stroke-linecap: square"/>
   </g>
   <g id="text_50">
    <!-- explained variance -->
    <g transform="translate(464.181818 376.909091)scale(0.12 -0.12)">
     <defs>
      <path id="DejaVuSans-65" d="M 3597 1894 
L 3597 1613 
L 953 1613 
Q 991 1019 1311 708 
Q 1631 397 2203 397 
Q 2534 397 2845 478 
Q 3156 559 3463 722 
L 3463 178 
Q 3153 47 2828 -22 
Q 2503 -91 2169 -91 
Q 1331 -91 842 396 
Q 353 884 353 1716 
Q 353 2575 817 3079 
Q 1281 3584 2069 3584 
Q 2775 3584 3186 3129 
Q 3597 2675 3597 1894 
z
M 3022 2063 
Q 3016 2534 2758 2815 
Q 2500 3097 2075 3097 
Q 1594 3097 1305 2825 
Q 1016 2553 972 2059 
L 3022 2063 
z
" transform="scale(0.015625)"/>
      <path id="DejaVuSans-78" d="M 3513 3500 
L 2247 1797 
L 3578 0 
L 2900 0 
L 1881 1375 
L 863 0 
L 184 0 
L 1544 1831 
L 300 3500 
L 978 3500 
L 1906 2253 
L 2834 3500 
L 3513 3500 
z
" transform="scale(0.015625)"/>
      <path id="DejaVuSans-70" d="M 1159 525 
L 1159 -1331 
L 581 -1331 
L 581 3500 
L 1159 3500 
L 1159 2969 
Q 1341 3281 1617 3432 
Q 1894 3584 2278 3584 
Q 2916 3584 3314 3078 
Q 3713 2572 3713 1747 
Q 3713 922 3314 415 
Q 2916 -91 2278 -91 
Q 1894 -91 1617 61 
Q 1341 213 1159 525 
z
M 3116 1747 
Q 3116 2381 2855 2742 
Q 2594 3103 2138 3103 
Q 1681 3103 1420 2742 
Q 1159 2381 1159 1747 
Q 1159 1113 1420 752 
Q 1681 391 2138 391 
Q 2594 391 2855 752 
Q 3116 1113 3116 1747 
z
" transform="scale(0.015625)"/>
      <path id="DejaVuSans-6c" d="M 603 4863 
L 1178 4863 
L 1178 0 
L 603 0 
L 603 4863 
z
" transform="scale(0.015625)"/>
      <path id="DejaVuSans-61" d="M 2194 1759 
Q 1497 1759 1228 1600 
Q 959 1441 959 1056 
Q 959 750 1161 570 
Q 1363 391 1709 391 
Q 2188 391 2477 730 
Q 2766 1069 2766 1631 
L 2766 1759 
L 2194 1759 
z
M 3341 1997 
L 3341 0 
L 2766 0 
L 2766 531 
Q 2569 213 2275 61 
Q 1981 -91 1556 -91 
Q 1019 -91 701 211 
Q 384 513 384 1019 
Q 384 1609 779 1909 
Q 1175 2209 1959 2209 
L 2766 2209 
L 2766 2266 
Q 2766 2663 2505 2880 
Q 2244 3097 1772 3097 
Q 1472 3097 1187 3025 
Q 903 2953 641 2809 
L 641 3341 
Q 956 3463 1253 3523 
Q 1550 3584 1831 3584 
Q 2591 3584 2966 3190 
Q 3341 2797 3341 1997 
z
" transform="scale(0.015625)"/>
      <path id="DejaVuSans-64" d="M 2906 2969 
L 2906 4863 
L 3481 4863 
L 3481 0 
L 2906 0 
L 2906 525 
Q 2725 213 2448 61 
Q 2172 -91 1784 -91 
Q 1150 -91 751 415 
Q 353 922 353 1747 
Q 353 2572 751 3078 
Q 1150 3584 1784 3584 
Q 2172 3584 2448 3432 
Q 2725 3281 2906 2969 
z
M 947 1747 
Q 947 1113 1208 752 
Q 1469 391 1925 391 
Q 2381 391 2643 752 
Q 2906 1113 2906 1747 
Q 2906 2381 2643 2742 
Q 2381 3103 1925 3103 
Q 1469 3103 1208 2742 
Q 947 2381 947 1747 
z
" transform="scale(0.015625)"/>
      <path id="DejaVuSans-20" transform="scale(0.015625)"/>
      <path id="DejaVuSans-76" d="M 191 3500 
L 800 3500 
L 1894 563 
L 2988 3500 
L 3597 3500 
L 2284 0 
L 1503 0 
L 191 3500 
z
" transform="scale(0.015625)"/>
      <path id="DejaVuSans-72" d="M 2631 2963 
Q 2534 3019 2420 3045 
Q 2306 3072 2169 3072 
Q 1681 3072 1420 2755 
Q 1159 2438 1159 1844 
L 1159 0 
L 581 0 
L 581 3500 
L 1159 3500 
L 1159 2956 
Q 1341 3275 1631 3429 
Q 1922 3584 2338 3584 
Q 2397 3584 2469 3576 
Q 2541 3569 2628 3553 
L 2631 2963 
z
" transform="scale(0.015625)"/>
      <path id="DejaVuSans-63" d="M 3122 3366 
L 3122 2828 
Q 2878 2963 2633 3030 
Q 2388 3097 2138 3097 
Q 1578 3097 1268 2742 
Q 959 2388 959 1747 
Q 959 1106 1268 751 
Q 1578 397 2138 397 
Q 2388 397 2633 464 
Q 2878 531 3122 666 
L 3122 134 
Q 2881 22 2623 -34 
Q 2366 -91 2075 -91 
Q 1284 -91 818 406 
Q 353 903 353 1747 
Q 353 2603 823 3093 
Q 1294 3584 2113 3584 
Q 2378 3584 2631 3529 
Q 2884 3475 3122 3366 
z
" transform="scale(0.015625)"/>
     </defs>
     <use xlink:href="#DejaVuSans-65"/>
     <use xlink:href="#DejaVuSans-78" x="59.773438"/>
     <use xlink:href="#DejaVuSans-70" x="118.953125"/>
     <use xlink:href="#DejaVuSans-6c" x="182.429688"/>
     <use xlink:href="#DejaVuSans-61" x="210.212891"/>
     <use xlink:href="#DejaVuSans-69" x="271.492188"/>
     <use xlink:href="#DejaVuSans-6e" x="299.275391"/>
     <use xlink:href="#DejaVuSans-65" x="362.654297"/>
     <use xlink:href="#DejaVuSans-64" x="424.177734"/>
     <use xlink:href="#DejaVuSans-20" x="487.654297"/>
     <use xlink:href="#DejaVuSans-76" x="519.441406"/>
     <use xlink:href="#DejaVuSans-61" x="578.621094"/>
     <use xlink:href="#DejaVuSans-72" x="639.900391"/>
     <use xlink:href="#DejaVuSans-69" x="681.013672"/>
     <use xlink:href="#DejaVuSans-61" x="708.796875"/>
     <use xlink:href="#DejaVuSans-6e" x="770.076172"/>
     <use xlink:href="#DejaVuSans-63" x="833.455078"/>
     <use xlink:href="#DejaVuSans-65" x="888.435547"/>
    </g>
   </g>
  </g>
 </g>
 <defs>
  <clipPath id="pf0ce43198d">
   <rect x="394.363636" y="86.4" width="253.636364" height="247.090909"/>
  </clipPath>
  <clipPath id="pf239f2445f">
   <rect x="394.363636" y="382.909091" width="253.636364" height="247.090909"/>
  </clipPath>
 </defs>
</svg>
