<?xml version="1.0" encoding="utf-8" standalone="no"?>
<!DOCTYPE svg PUBLIC "-//W3C//DTD SVG 1.1//EN"
  "http://www.w3.org/Graphics/SVG/1.1/DTD/svg11.dtd">
<svg xmlns:xlink="http://www.w3.org/1999/xlink" width="720pt" height="720pt" viewBox="0 0 720 720" xmlns="http://www.w3.org/2000/svg" version="1.1">
 <metadata>
  <rdf:RDF xmlns:dc="http://purl.org/dc/elements/1.1/" xmlns:cc="http://creativecommons.org/ns#" xmlns:rdf="http://www.w3.org/1999/02/22-rdf-syntax-ns#">
   <cc:Work>
    <dc:type rdf:resource="http://purl.org/dc/dcmitype/StillImage"/>
    <dc:date>2023-12-19T18:22:52.475270</dc:date>
    <dc:format>image/svg+xml</dc:format>
    <dc:creator>
     <cc:Agent>
      <dc:title>Matplotlib v3.5.2, https://matplotlib.org/</dc:title>
     </cc:Agent>
    </dc:creator>
   </cc:Work>
  </rdf:RDF>
 </metadata>
 <defs>
  <style type="text/css">*{stroke-linejoin: round; stroke-linecap: butt}</style>
 </defs>
 <g id="figure_1">
  <g id="patch_1">
   <path d="M 0 720 
L 720 720 
L 720 0 
L 0 0 
z
" style="fill: #ffffff"/>
  </g>
  <g id="axes_1">
   <g id="patch_2">
    <path d="M 90 333.490909 
L 343.636364 333.490909 
L 343.636364 86.4 
L 90 86.4 
z
" style="fill: #ffffff"/>
   </g>
   <g id="matplotlib.axis_1">
    <g id="xtick_1">
     <g id="line2d_1">
      <defs>
       <path id="me3ac9b9b11" d="M 0 0 
L 0 3.5 
" style="stroke: #000000; stroke-width: 0.8"/>
      </defs>
      <g>
       <use xlink:href="#me3ac9b9b11" x="90" y="333.490909" style="stroke: #000000; stroke-width: 0.8"/>
      </g>
     </g>
     <g id="text_1">
      <!-- 0.0 -->
      <g transform="translate(82.048438 348.089347)scale(0.1 -0.1)">
       <defs>
        <path id="DejaVuSans-30" d="M 2034 4250 
Q 1547 4250 1301 3770 
Q 1056 3291 1056 2328 
Q 1056 1369 1301 889 
Q 1547 409 2034 409 
Q 2525 409 2770 889 
Q 3016 1369 3016 2328 
Q 3016 3291 2770 3770 
Q 2525 4250 2034 4250 
z
M 2034 4750 
Q 2819 4750 3233 4129 
Q 3647 3509 3647 2328 
Q 3647 1150 3233 529 
Q 2819 -91 2034 -91 
Q 1250 -91 836 529 
Q 422 1150 422 2328 
Q 422 3509 836 4129 
Q 1250 4750 2034 4750 
z
" transform="scale(0.015625)"/>
        <path id="DejaVuSans-2e" d="M 684 794 
L 1344 794 
L 1344 0 
L 684 0 
L 684 794 
z
" transform="scale(0.015625)"/>
       </defs>
       <use xlink:href="#DejaVuSans-30"/>
       <use xlink:href="#DejaVuSans-2e" x="63.623047"/>
       <use xlink:href="#DejaVuSans-30" x="95.410156"/>
      </g>
     </g>
    </g>
    <g id="xtick_2">
     <g id="line2d_2">
      <g>
       <use xlink:href="#me3ac9b9b11" x="140.727273" y="333.490909" style="stroke: #000000; stroke-width: 0.8"/>
      </g>
     </g>
     <g id="text_2">
      <!-- 0.2 -->
      <g transform="translate(132.77571 348.089347)scale(0.1 -0.1)">
       <defs>
        <path id="DejaVuSans-32" d="M 1228 531 
L 3431 531 
L 3431 0 
L 469 0 
L 469 531 
Q 828 903 1448 1529 
Q 2069 2156 2228 2338 
Q 2531 2678 2651 2914 
Q 2772 3150 2772 3378 
Q 2772 3750 2511 3984 
Q 2250 4219 1831 4219 
Q 1534 4219 1204 4116 
Q 875 4013 500 3803 
L 500 4441 
Q 881 4594 1212 4672 
Q 1544 4750 1819 4750 
Q 2544 4750 2975 4387 
Q 3406 4025 3406 3419 
Q 3406 3131 3298 2873 
Q 3191 2616 2906 2266 
Q 2828 2175 2409 1742 
Q 1991 1309 1228 531 
z
" transform="scale(0.015625)"/>
       </defs>
       <use xlink:href="#DejaVuSans-30"/>
       <use xlink:href="#DejaVuSans-2e" x="63.623047"/>
       <use xlink:href="#DejaVuSans-32" x="95.410156"/>
      </g>
     </g>
    </g>
    <g id="xtick_3">
     <g id="line2d_3">
      <g>
       <use xlink:href="#me3ac9b9b11" x="191.454545" y="333.490909" style="stroke: #000000; stroke-width: 0.8"/>
      </g>
     </g>
     <g id="text_3">
      <!-- 0.4 -->
      <g transform="translate(183.502983 348.089347)scale(0.1 -0.1)">
       <defs>
        <path id="DejaVuSans-34" d="M 2419 4116 
L 825 1625 
L 2419 1625 
L 2419 4116 
z
M 2253 4666 
L 3047 4666 
L 3047 1625 
L 3713 1625 
L 3713 1100 
L 3047 1100 
L 3047 0 
L 2419 0 
L 2419 1100 
L 313 1100 
L 313 1709 
L 2253 4666 
z
" transform="scale(0.015625)"/>
       </defs>
       <use xlink:href="#DejaVuSans-30"/>
       <use xlink:href="#DejaVuSans-2e" x="63.623047"/>
       <use xlink:href="#DejaVuSans-34" x="95.410156"/>
      </g>
     </g>
    </g>
    <g id="xtick_4">
     <g id="line2d_4">
      <g>
       <use xlink:href="#me3ac9b9b11" x="242.181818" y="333.490909" style="stroke: #000000; stroke-width: 0.8"/>
      </g>
     </g>
     <g id="text_4">
      <!-- 0.6 -->
      <g transform="translate(234.230256 348.089347)scale(0.1 -0.1)">
       <defs>
        <path id="DejaVuSans-36" d="M 2113 2584 
Q 1688 2584 1439 2293 
Q 1191 2003 1191 1497 
Q 1191 994 1439 701 
Q 1688 409 2113 409 
Q 2538 409 2786 701 
Q 3034 994 3034 1497 
Q 3034 2003 2786 2293 
Q 2538 2584 2113 2584 
z
M 3366 4563 
L 3366 3988 
Q 3128 4100 2886 4159 
Q 2644 4219 2406 4219 
Q 1781 4219 1451 3797 
Q 1122 3375 1075 2522 
Q 1259 2794 1537 2939 
Q 1816 3084 2150 3084 
Q 2853 3084 3261 2657 
Q 3669 2231 3669 1497 
Q 3669 778 3244 343 
Q 2819 -91 2113 -91 
Q 1303 -91 875 529 
Q 447 1150 447 2328 
Q 447 3434 972 4092 
Q 1497 4750 2381 4750 
Q 2619 4750 2861 4703 
Q 3103 4656 3366 4563 
z
" transform="scale(0.015625)"/>
       </defs>
       <use xlink:href="#DejaVuSans-30"/>
       <use xlink:href="#DejaVuSans-2e" x="63.623047"/>
       <use xlink:href="#DejaVuSans-36" x="95.410156"/>
      </g>
     </g>
    </g>
    <g id="xtick_5">
     <g id="line2d_5">
      <g>
       <use xlink:href="#me3ac9b9b11" x="292.909091" y="333.490909" style="stroke: #000000; stroke-width: 0.8"/>
      </g>
     </g>
     <g id="text_5">
      <!-- 0.8 -->
      <g transform="translate(284.957528 348.089347)scale(0.1 -0.1)">
       <defs>
        <path id="DejaVuSans-38" d="M 2034 2216 
Q 1584 2216 1326 1975 
Q 1069 1734 1069 1313 
Q 1069 891 1326 650 
Q 1584 409 2034 409 
Q 2484 409 2743 651 
Q 3003 894 3003 1313 
Q 3003 1734 2745 1975 
Q 2488 2216 2034 2216 
z
M 1403 2484 
Q 997 2584 770 2862 
Q 544 3141 544 3541 
Q 544 4100 942 4425 
Q 1341 4750 2034 4750 
Q 2731 4750 3128 4425 
Q 3525 4100 3525 3541 
Q 3525 3141 3298 2862 
Q 3072 2584 2669 2484 
Q 3125 2378 3379 2068 
Q 3634 1759 3634 1313 
Q 3634 634 3220 271 
Q 2806 -91 2034 -91 
Q 1263 -91 848 271 
Q 434 634 434 1313 
Q 434 1759 690 2068 
Q 947 2378 1403 2484 
z
M 1172 3481 
Q 1172 3119 1398 2916 
Q 1625 2713 2034 2713 
Q 2441 2713 2670 2916 
Q 2900 3119 2900 3481 
Q 2900 3844 2670 4047 
Q 2441 4250 2034 4250 
Q 1625 4250 1398 4047 
Q 1172 3844 1172 3481 
z
" transform="scale(0.015625)"/>
       </defs>
       <use xlink:href="#DejaVuSans-30"/>
       <use xlink:href="#DejaVuSans-2e" x="63.623047"/>
       <use xlink:href="#DejaVuSans-38" x="95.410156"/>
      </g>
     </g>
    </g>
    <g id="xtick_6">
     <g id="line2d_6">
      <g>
       <use xlink:href="#me3ac9b9b11" x="343.636364" y="333.490909" style="stroke: #000000; stroke-width: 0.8"/>
      </g>
     </g>
     <g id="text_6">
      <!-- 1.0 -->
      <g transform="translate(335.684801 348.089347)scale(0.1 -0.1)">
       <defs>
        <path id="DejaVuSans-31" d="M 794 531 
L 1825 531 
L 1825 4091 
L 703 3866 
L 703 4441 
L 1819 4666 
L 2450 4666 
L 2450 531 
L 3481 531 
L 3481 0 
L 794 0 
L 794 531 
z
" transform="scale(0.015625)"/>
       </defs>
       <use xlink:href="#DejaVuSans-31"/>
       <use xlink:href="#DejaVuSans-2e" x="63.623047"/>
       <use xlink:href="#DejaVuSans-30" x="95.410156"/>
      </g>
     </g>
    </g>
   </g>
   <g id="matplotlib.axis_2">
    <g id="ytick_1">
     <g id="line2d_7">
      <defs>
       <path id="m5f7f733117" d="M 0 0 
L -3.5 0 
" style="stroke: #000000; stroke-width: 0.8"/>
      </defs>
      <g>
       <use xlink:href="#m5f7f733117" x="90" y="333.490909" style="stroke: #000000; stroke-width: 0.8"/>
      </g>
     </g>
     <g id="text_7">
      <!-- 0.0 -->
      <g transform="translate(67.096875 337.290128)scale(0.1 -0.1)">
       <use xlink:href="#DejaVuSans-30"/>
       <use xlink:href="#DejaVuSans-2e" x="63.623047"/>
       <use xlink:href="#DejaVuSans-30" x="95.410156"/>
      </g>
     </g>
    </g>
    <g id="ytick_2">
     <g id="line2d_8">
      <g>
       <use xlink:href="#m5f7f733117" x="90" y="284.072727" style="stroke: #000000; stroke-width: 0.8"/>
      </g>
     </g>
     <g id="text_8">
      <!-- 0.2 -->
      <g transform="translate(67.096875 287.871946)scale(0.1 -0.1)">
       <use xlink:href="#DejaVuSans-30"/>
       <use xlink:href="#DejaVuSans-2e" x="63.623047"/>
       <use xlink:href="#DejaVuSans-32" x="95.410156"/>
      </g>
     </g>
    </g>
    <g id="ytick_3">
     <g id="line2d_9">
      <g>
       <use xlink:href="#m5f7f733117" x="90" y="234.654545" style="stroke: #000000; stroke-width: 0.8"/>
      </g>
     </g>
     <g id="text_9">
      <!-- 0.4 -->
      <g transform="translate(67.096875 238.453764)scale(0.1 -0.1)">
       <use xlink:href="#DejaVuSans-30"/>
       <use xlink:href="#DejaVuSans-2e" x="63.623047"/>
       <use xlink:href="#DejaVuSans-34" x="95.410156"/>
      </g>
     </g>
    </g>
    <g id="ytick_4">
     <g id="line2d_10">
      <g>
       <use xlink:href="#m5f7f733117" x="90" y="185.236364" style="stroke: #000000; stroke-width: 0.8"/>
      </g>
     </g>
     <g id="text_10">
      <!-- 0.6 -->
      <g transform="translate(67.096875 189.035582)scale(0.1 -0.1)">
       <use xlink:href="#DejaVuSans-30"/>
       <use xlink:href="#DejaVuSans-2e" x="63.623047"/>
       <use xlink:href="#DejaVuSans-36" x="95.410156"/>
      </g>
     </g>
    </g>
    <g id="ytick_5">
     <g id="line2d_11">
      <g>
       <use xlink:href="#m5f7f733117" x="90" y="135.818182" style="stroke: #000000; stroke-width: 0.8"/>
      </g>
     </g>
     <g id="text_11">
      <!-- 0.8 -->
      <g transform="translate(67.096875 139.617401)scale(0.1 -0.1)">
       <use xlink:href="#DejaVuSans-30"/>
       <use xlink:href="#DejaVuSans-2e" x="63.623047"/>
       <use xlink:href="#DejaVuSans-38" x="95.410156"/>
      </g>
     </g>
    </g>
    <g id="ytick_6">
     <g id="line2d_12">
      <g>
       <use xlink:href="#m5f7f733117" x="90" y="86.4" style="stroke: #000000; stroke-width: 0.8"/>
      </g>
     </g>
     <g id="text_12">
      <!-- 1.0 -->
      <g transform="translate(67.096875 90.199219)scale(0.1 -0.1)">
       <use xlink:href="#DejaVuSans-31"/>
       <use xlink:href="#DejaVuSans-2e" x="63.623047"/>
       <use xlink:href="#DejaVuSans-30" x="95.410156"/>
      </g>
     </g>
    </g>
   </g>
   <g id="patch_3">
    <path d="M 90 333.490909 
L 90 86.4 
" style="fill: none; stroke: #000000; stroke-width: 0.8; stroke-linejoin: miter; stroke-linecap: square"/>
   </g>
   <g id="patch_4">
    <path d="M 343.636364 333.490909 
L 343.636364 86.4 
" style="fill: none; stroke: #000000; stroke-width: 0.8; stroke-linejoin: miter; stroke-linecap: square"/>
   </g>
   <g id="patch_5">
    <path d="M 90 333.490909 
L 343.636364 333.490909 
" style="fill: none; stroke: #000000; stroke-width: 0.8; stroke-linejoin: miter; stroke-linecap: square"/>
   </g>
   <g id="patch_6">
    <path d="M 90 86.4 
L 343.636364 86.4 
" style="fill: none; stroke: #000000; stroke-width: 0.8; stroke-linejoin: miter; stroke-linecap: square"/>
   </g>
  </g>
  <g id="axes_2">
   <g id="patch_7">
    <path d="M 394.363636 333.490909 
L 648 333.490909 
L 648 86.4 
L 394.363636 86.4 
z
" style="fill: #ffffff"/>
   </g>
   <g id="PolyCollection_1">
    <defs>
     <path id="mef240efb43" d="M 405.892562 -502.332254 
L 405.892562 -502.332254 
L 407.342741 -503.459587 
L 408.792921 -506.045676 
L 410.2431 -504.281645 
L 411.693279 -513.760922 
L 413.143459 -503.870689 
L 414.593638 -513.512463 
L 416.043817 -508.017548 
L 417.493997 -504.680836 
L 418.944176 -499.924351 
L 420.394355 -494.103216 
L 421.844535 -486.607621 
L 423.294714 -479.112148 
L 424.744893 -464.203871 
L 426.195073 -476.084589 
L 427.645252 -474.912598 
L 429.095431 -480.184058 
L 430.54561 -490.854025 
L 431.99579 -490.692007 
L 433.445969 -486.900646 
L 434.896148 -481.792716 
L 436.346328 -456.451507 
L 437.796507 -478.721143 
L 439.246686 -480.614286 
L 440.696866 -482.099525 
L 442.147045 -468.054232 
L 443.597224 -484.278806 
L 445.047404 -476.697133 
L 446.497583 -473.417112 
L 447.947762 -494.680028 
L 449.397942 -498.017415 
L 450.848121 -500.596632 
L 452.2983 -502.725922 
L 453.74848 -504.794297 
L 455.198659 -506.84689 
L 456.648838 -493.428598 
L 458.099018 -511.124132 
L 459.549197 -514.890033 
L 460.999376 -520.708981 
L 462.449556 -509.974394 
L 463.899735 -534.138457 
L 465.349914 -521.997943 
L 466.800094 -511.747478 
L 468.250273 -533.237774 
L 469.700452 -502.818144 
L 471.150632 -519.712107 
L 472.600811 -504.003095 
L 474.05099 -508.274594 
L 475.501169 -505.132941 
L 476.951349 -502.833679 
L 478.401528 -499.835295 
L 479.851707 -502.545643 
L 481.301887 -501.877432 
L 482.752066 -502.714708 
L 484.202245 -502.907074 
L 485.652425 -497.765021 
L 487.102604 -502.40226 
L 488.552783 -500.841706 
L 490.002963 -496.814173 
L 491.453142 -487.830939 
L 492.903321 -471.675332 
L 494.353501 -449.47954 
L 495.80368 -411.29957 
L 497.253859 -397.740496 
L 498.704039 -405.941963 
L 500.154218 -435.719853 
L 501.604397 -455.873204 
L 503.054577 -459.051826 
L 504.504756 -485.123858 
L 505.954935 -492.888835 
L 507.405115 -497.6079 
L 508.855294 -500.231378 
L 510.305473 -501.689253 
L 511.755653 -502.836968 
L 513.205832 -504.093195 
L 514.656011 -505.27643 
L 516.106191 -484.3966 
L 517.55637 -505.783197 
L 519.006549 -505.423087 
L 520.456729 -505.413691 
L 521.906908 -505.758291 
L 523.357087 -488.103949 
L 524.807266 -505.251059 
L 526.257446 -504.097025 
L 527.707625 -502.947913 
L 529.157804 -502.179847 
L 530.607984 -501.809703 
L 532.058163 -501.676756 
L 533.508342 -501.640626 
L 534.958522 -501.633126 
L 536.408701 -501.631767 
L 537.85888 -501.631168 
L 539.30906 -501.627858 
L 540.759239 -501.611915 
L 542.209418 -501.55325 
L 543.659598 -501.389917 
L 545.109777 -501.051462 
L 546.559956 -500.546978 
L 548.010136 -500.050174 
L 549.460315 -486.401325 
L 550.910494 -500.001569 
L 552.360674 -500.425545 
L 553.810853 -500.851305 
L 555.261032 -501.192786 
L 556.711212 -491.711989 
L 558.161391 -501.958703 
L 559.61157 -502.06596 
L 561.06175 -501.39434 
L 562.511929 -484.385941 
L 563.962108 -483.547472 
L 565.412288 -493.881098 
L 566.862467 -509.784188 
L 568.312646 -522.875236 
L 569.762826 -538.797813 
L 571.213005 -527.779366 
L 572.663184 -518.666305 
L 574.113363 -544.188622 
L 575.563543 -529.452916 
L 577.013722 -516.622445 
L 578.463901 -509.663965 
L 579.914081 -508.232989 
L 581.36426 -509.912025 
L 582.814439 -502.58234 
L 584.264619 -513.406929 
L 585.714798 -502.951633 
L 587.164977 -511.213046 
L 588.615157 -504.949836 
L 590.065336 -503.693607 
L 591.515515 -496.955378 
L 592.965695 -502.705803 
L 594.415874 -501.445121 
L 595.866053 -500.981613 
L 597.316233 -493.236725 
L 598.766412 -500.908184 
L 600.216591 -508.44432 
L 601.666771 -499.918201 
L 603.11695 -518.404939 
L 604.567129 -522.086846 
L 606.017309 -500.136519 
L 607.467488 -519.960557 
L 608.917667 -515.564069 
L 610.367847 -508.212056 
L 611.818026 -511.057895 
L 613.268205 -498.131106 
L 614.718385 -510.756789 
L 616.168564 -510.088736 
L 617.618743 -504.29754 
L 619.068923 -507.621018 
L 620.519102 -497.854388 
L 621.969281 -498.835891 
L 623.41946 -481.063553 
L 624.86964 -483.649768 
L 626.319819 -466.82632 
L 627.769998 -464.546255 
L 629.220178 -480.17624 
L 630.670357 -479.721812 
L 632.120536 -476.925855 
L 633.570716 -485.586715 
L 635.020895 -483.972791 
L 636.471074 -492.956067 
L 636.471074 -492.956067 
L 636.471074 -492.956067 
L 635.020895 -499.508013 
L 633.570716 -493.854097 
L 632.120536 -497.357054 
L 630.670357 -488.004296 
L 629.220178 -480.17624 
L 627.769998 -490.839789 
L 626.319819 -490.379005 
L 624.86964 -483.649768 
L 623.41946 -501.475105 
L 621.969281 -498.835891 
L 620.519102 -511.004919 
L 619.068923 -507.621018 
L 617.618743 -514.043568 
L 616.168564 -510.088736 
L 614.718385 -510.756789 
L 613.268205 -523.839324 
L 611.818026 -511.057895 
L 610.367847 -516.292617 
L 608.917667 -515.564069 
L 607.467488 -519.960557 
L 606.017309 -545.374774 
L 604.567129 -522.086846 
L 603.11695 -518.404939 
L 601.666771 -526.879237 
L 600.216591 -508.44432 
L 598.766412 -507.879215 
L 597.316233 -510.457629 
L 595.866053 -500.981613 
L 594.415874 -501.445121 
L 592.965695 -502.705803 
L 591.515515 -511.906947 
L 590.065336 -509.326729 
L 588.615157 -512.777207 
L 587.164977 -511.213046 
L 585.714798 -522.979537 
L 584.264619 -513.406929 
L 582.814439 -521.812093 
L 581.36426 -509.912025 
L 579.914081 -508.232989 
L 578.463901 -509.663965 
L 577.013722 -516.622445 
L 575.563543 -529.452916 
L 574.113363 -544.188622 
L 572.663184 -587.976146 
L 571.213005 -574.526541 
L 569.762826 -538.797813 
L 568.312646 -522.875236 
L 566.862467 -509.784188 
L 565.412288 -510.526155 
L 563.962108 -515.733581 
L 562.511929 -515.84081 
L 561.06175 -501.39434 
L 559.61157 -502.06596 
L 558.161391 -501.958703 
L 556.711212 -511.398266 
L 555.261032 -501.192786 
L 553.810853 -500.851305 
L 552.360674 -500.425545 
L 550.910494 -500.001569 
L 549.460315 -513.252264 
L 548.010136 -500.050174 
L 546.559956 -500.546978 
L 545.109777 -501.051462 
L 543.659598 -501.389917 
L 542.209418 -501.55325 
L 540.759239 -501.611915 
L 539.30906 -501.627858 
L 537.85888 -501.631168 
L 536.408701 -501.631767 
L 534.958522 -501.633126 
L 533.508342 -501.640626 
L 532.058163 -501.676756 
L 530.607984 -501.809703 
L 529.157804 -502.179847 
L 527.707625 -502.947913 
L 526.257446 -504.097025 
L 524.807266 -505.251059 
L 523.357087 -523.617978 
L 521.906908 -505.758291 
L 520.456729 -505.413691 
L 519.006549 -505.423087 
L 517.55637 -505.783197 
L 516.106191 -527.389066 
L 514.656011 -505.27643 
L 513.205832 -504.093195 
L 511.755653 -502.836968 
L 510.305473 -501.689253 
L 508.855294 -500.231378 
L 507.405115 -497.6079 
L 505.954935 -492.888835 
L 504.504756 -485.123858 
L 503.054577 -487.08874 
L 501.604397 -455.873204 
L 500.154218 -435.719853 
L 498.704039 -433.327505 
L 497.253859 -434.323978 
L 495.80368 -444.313548 
L 494.353501 -449.47954 
L 492.903321 -471.675332 
L 491.453142 -487.830939 
L 490.002963 -496.814173 
L 488.552783 -500.841706 
L 487.102604 -502.40226 
L 485.652425 -508.03973 
L 484.202245 -502.907074 
L 482.752066 -502.714708 
L 481.301887 -503.225148 
L 479.851707 -502.545643 
L 478.401528 -505.734283 
L 476.951349 -504.151219 
L 475.501169 -505.132941 
L 474.05099 -508.274594 
L 472.600811 -522.44651 
L 471.150632 -519.712107 
L 469.700452 -550.857679 
L 468.250273 -533.237774 
L 466.800094 -562.85714 
L 465.349914 -553.390204 
L 463.899735 -534.138457 
L 462.449556 -545.590887 
L 460.999376 -520.708981 
L 459.549197 -514.890033 
L 458.099018 -511.124132 
L 456.648838 -524.167402 
L 455.198659 -506.84689 
L 453.74848 -504.794297 
L 452.2983 -502.725922 
L 450.848121 -500.596632 
L 449.397942 -498.017415 
L 447.947762 -494.680028 
L 446.497583 -508.138407 
L 445.047404 -497.339735 
L 443.597224 -484.278806 
L 442.147045 -497.759749 
L 440.696866 -482.099525 
L 439.246686 -480.614286 
L 437.796507 -478.721143 
L 436.346328 -500.74789 
L 434.896148 -481.792716 
L 433.445969 -486.900646 
L 431.99579 -490.692007 
L 430.54561 -490.854025 
L 429.095431 -494.181672 
L 427.645252 -487.618293 
L 426.195073 -476.084589 
L 424.744893 -485.677321 
L 423.294714 -479.112148 
L 421.844535 -486.607621 
L 420.394355 -494.103216 
L 418.944176 -499.924351 
L 417.493997 -504.680836 
L 416.043817 -510.736868 
L 414.593638 -513.512463 
L 413.143459 -526.747434 
L 411.693279 -513.760922 
L 410.2431 -515.616969 
L 408.792921 -506.045676 
L 407.342741 -503.459587 
L 405.892562 -502.332254 
z
" style="stroke: #9467bd; stroke-opacity: 0.2"/>
    </defs>
    <g clip-path="url(#p9fb2112e4a)">
     <use xlink:href="#mef240efb43" x="0" y="720" style="fill: #9467bd; fill-opacity: 0.2; stroke: #9467bd; stroke-opacity: 0.2"/>
    </g>
   </g>
   <g id="PolyCollection_2">
    <defs>
     <path id="m4155c62ec1" d="M 405.892562 -502.267508 
L 405.892562 -498.094391 
L 407.342741 -499.776298 
L 408.792921 -498.209834 
L 410.2431 -494.510658 
L 411.693279 -488.666778 
L 413.143459 -482.562095 
L 414.593638 -465.931309 
L 416.043817 -479.220522 
L 417.493997 -481.621058 
L 418.944176 -484.215487 
L 420.394355 -473.646682 
L 421.844535 -490.070195 
L 423.294714 -493.944041 
L 424.744893 -497.034451 
L 426.195073 -497.998582 
L 427.645252 -496.306486 
L 429.095431 -492.53153 
L 430.54561 -488.541357 
L 431.99579 -472.501962 
L 433.445969 -488.387305 
L 434.896148 -492.278628 
L 436.346328 -496.252773 
L 437.796507 -497.286291 
L 439.246686 -500.352598 
L 440.696866 -500.579949 
L 442.147045 -501.319636 
L 443.597224 -501.47958 
L 445.047404 -501.515538 
L 446.497583 -501.342694 
L 447.947762 -500.680644 
L 449.397942 -499.0124 
L 450.848121 -495.891554 
L 452.2983 -491.658063 
L 453.74848 -477.256536 
L 455.198659 -475.065958 
L 456.648838 -488.438865 
L 458.099018 -487.569754 
L 459.549197 -496.323999 
L 460.999376 -499.127234 
L 462.449556 -500.627233 
L 463.899735 -501.040447 
L 465.349914 -501.435707 
L 466.800094 -501.407566 
L 468.250273 -501.278778 
L 469.700452 -501.136269 
L 471.150632 -498.29599 
L 472.600811 -501.142007 
L 474.05099 -501.295393 
L 475.501169 -501.451755 
L 476.951349 -501.556733 
L 478.401528 -501.607407 
L 479.851707 -501.625104 
L 481.301887 -501.62727 
L 482.752066 -501.614902 
L 484.202245 -501.565799 
L 485.652425 -501.428571 
L 487.102604 -501.144325 
L 488.552783 -500.721106 
L 490.002963 -500.306763 
L 491.453142 -496.092814 
L 492.903321 -500.306115 
L 494.353501 -500.716882 
L 495.80368 -501.122814 
L 497.253859 -501.343332 
L 498.704039 -501.302439 
L 500.154218 -500.980135 
L 501.604397 -500.43242 
L 503.054577 -499.867461 
L 504.504756 -494.583799 
L 505.954935 -499.765154 
L 507.405115 -499.352427 
L 508.855294 -500.842312 
L 510.305473 -501.261833 
L 511.755653 -501.507298 
L 513.205832 -501.685824 
L 514.656011 -502.010417 
L 516.106191 -502.814678 
L 517.55637 -504.426632 
L 519.006549 -506.739835 
L 520.456729 -508.180411 
L 521.906908 -499.099507 
L 523.357087 -507.925939 
L 524.807266 -499.775792 
L 526.257446 -503.081401 
L 527.707625 -501.868898 
L 529.157804 -501.514472 
L 530.607984 -501.531698 
L 532.058163 -501.642613 
L 533.508342 -501.852341 
L 534.958522 -502.351383 
L 536.408701 -503.365559 
L 537.85888 -504.871877 
L 539.30906 -506.345617 
L 540.759239 -495.928141 
L 542.209418 -506.330134 
L 543.659598 -504.808732 
L 545.109777 -503.171573 
L 546.559956 -501.887625 
L 548.010136 -500.990045 
L 549.460315 -500.396815 
L 550.910494 -492.889037 
L 552.360674 -499.980785 
L 553.810853 -499.720389 
L 555.261032 -498.941198 
L 556.711212 -497.675298 
L 558.161391 -489.057857 
L 559.61157 -487.101341 
L 561.06175 -497.15531 
L 562.511929 -498.499132 
L 563.962108 -499.392492 
L 565.412288 -499.223317 
L 566.862467 -498.062622 
L 568.312646 -496.667718 
L 569.762826 -489.095315 
L 571.213005 -496.713393 
L 572.663184 -498.252326 
L 574.113363 -499.822882 
L 575.563543 -500.877155 
L 577.013722 -501.383331 
L 578.463901 -501.551436 
L 579.914081 -501.546668 
L 581.36426 -501.405317 
L 582.814439 -501.092041 
L 584.264619 -500.618849 
L 585.714798 -500.134738 
L 587.164977 -491.626785 
L 588.615157 -499.770096 
L 590.065336 -499.67086 
L 591.515515 -499.302199 
L 592.965695 -498.770839 
L 594.415874 -483.776673 
L 595.866053 -498.666584 
L 597.316233 -499.178924 
L 598.766412 -499.703404 
L 600.216591 -496.730333 
L 601.666771 -500.527109 
L 603.11695 -500.928521 
L 604.567129 -501.266368 
L 606.017309 -501.481136 
L 607.467488 -501.583184 
L 608.917667 -501.619483 
L 610.367847 -501.629379 
L 611.818026 -501.631596 
L 613.268205 -501.632782 
L 614.718385 -501.63578 
L 616.168564 -501.644127 
L 617.618743 -501.661418 
L 619.068923 -501.687162 
L 620.519102 -501.712366 
L 621.969281 -501.265243 
L 623.41946 -501.712366 
L 624.86964 -501.687286 
L 626.319819 -501.662351 
L 627.769998 -501.649046 
L 629.220178 -501.656143 
L 630.670357 -501.6991 
L 632.120536 -501.802131 
L 633.570716 -501.976272 
L 635.020895 -502.182605 
L 636.471074 -500.473633 
L 636.471074 -504.182691 
L 636.471074 -504.182691 
L 635.020895 -502.182605 
L 633.570716 -501.976272 
L 632.120536 -501.802131 
L 630.670357 -501.6991 
L 629.220178 -501.656143 
L 627.769998 -501.649046 
L 626.319819 -501.662351 
L 624.86964 -501.687286 
L 623.41946 -501.712366 
L 621.969281 -502.180952 
L 620.519102 -501.712366 
L 619.068923 -501.687162 
L 617.618743 -501.661418 
L 616.168564 -501.644127 
L 614.718385 -501.63578 
L 613.268205 -501.632782 
L 611.818026 -501.631596 
L 610.367847 -501.629379 
L 608.917667 -501.619483 
L 607.467488 -501.583184 
L 606.017309 -501.481136 
L 604.567129 -501.266368 
L 603.11695 -500.928521 
L 601.666771 -500.527109 
L 600.216591 -503.528008 
L 598.766412 -499.703404 
L 597.316233 -499.178924 
L 595.866053 -498.666584 
L 594.415874 -513.177104 
L 592.965695 -498.770839 
L 591.515515 -499.302199 
L 590.065336 -499.67086 
L 588.615157 -499.770096 
L 587.164977 -508.060188 
L 585.714798 -500.134738 
L 584.264619 -500.618849 
L 582.814439 -501.092041 
L 581.36426 -501.405317 
L 579.914081 -501.546668 
L 578.463901 -501.551436 
L 577.013722 -501.383331 
L 575.563543 -500.877155 
L 574.113363 -499.822882 
L 572.663184 -498.252326 
L 571.213005 -496.713393 
L 569.762826 -503.006498 
L 568.312646 -496.667718 
L 566.862467 -498.062622 
L 565.412288 -499.223317 
L 563.962108 -499.392492 
L 562.511929 -498.499132 
L 561.06175 -497.15531 
L 559.61157 -505.49619 
L 558.161391 -504.019007 
L 556.711212 -497.675298 
L 555.261032 -498.941198 
L 553.810853 -499.720389 
L 552.360674 -499.980785 
L 550.910494 -507.298625 
L 549.460315 -500.396815 
L 548.010136 -500.990045 
L 546.559956 -501.887625 
L 545.109777 -503.171573 
L 543.659598 -504.808732 
L 542.209418 -506.330134 
L 540.759239 -518.013181 
L 539.30906 -506.345617 
L 537.85888 -504.871877 
L 536.408701 -503.365559 
L 534.958522 -502.351383 
L 533.508342 -501.852341 
L 532.058163 -501.642613 
L 530.607984 -501.531698 
L 529.157804 -501.514472 
L 527.707625 -501.868898 
L 526.257446 -503.081401 
L 524.807266 -510.910258 
L 523.357087 -507.925939 
L 521.906908 -519.684563 
L 520.456729 -509.482591 
L 519.006549 -506.739835 
L 517.55637 -504.426632 
L 516.106191 -502.814678 
L 514.656011 -502.010417 
L 513.205832 -501.685824 
L 511.755653 -501.507298 
L 510.305473 -501.261833 
L 508.855294 -500.842312 
L 507.405115 -501.200269 
L 505.954935 -499.765154 
L 504.504756 -504.594467 
L 503.054577 -499.867461 
L 501.604397 -500.43242 
L 500.154218 -500.980135 
L 498.704039 -501.302439 
L 497.253859 -501.343332 
L 495.80368 -501.122814 
L 494.353501 -500.716882 
L 492.903321 -500.306115 
L 491.453142 -504.167867 
L 490.002963 -500.306763 
L 488.552783 -500.721106 
L 487.102604 -501.144325 
L 485.652425 -501.428571 
L 484.202245 -501.565799 
L 482.752066 -501.614902 
L 481.301887 -501.62727 
L 479.851707 -501.625104 
L 478.401528 -501.607407 
L 476.951349 -501.556733 
L 475.501169 -501.451755 
L 474.05099 -501.295393 
L 472.600811 -501.142007 
L 471.150632 -503.854928 
L 469.700452 -501.136269 
L 468.250273 -501.278778 
L 466.800094 -501.407566 
L 465.349914 -501.435707 
L 463.899735 -501.468268 
L 462.449556 -500.627233 
L 460.999376 -499.127234 
L 459.549197 -496.323999 
L 458.099018 -497.126048 
L 456.648838 -488.438865 
L 455.198659 -498.052316 
L 453.74848 -498.507692 
L 452.2983 -491.658063 
L 450.848121 -495.891554 
L 449.397942 -499.0124 
L 447.947762 -500.680644 
L 446.497583 -501.342694 
L 445.047404 -501.515538 
L 443.597224 -501.47958 
L 442.147045 -501.319636 
L 440.696866 -501.423042 
L 439.246686 -500.352598 
L 437.796507 -500.616999 
L 436.346328 -496.252773 
L 434.896148 -492.278628 
L 433.445969 -488.387305 
L 431.99579 -501.037109 
L 430.54561 -488.541357 
L 429.095431 -492.53153 
L 427.645252 -496.306486 
L 426.195073 -497.998582 
L 424.744893 -497.034451 
L 423.294714 -493.944041 
L 421.844535 -490.070195 
L 420.394355 -499.890072 
L 418.944176 -484.215487 
L 417.493997 -481.621058 
L 416.043817 -479.220522 
L 414.593638 -492.119173 
L 413.143459 -482.562095 
L 411.693279 -488.666778 
L 410.2431 -494.510658 
L 408.792921 -498.209834 
L 407.342741 -499.776298 
L 405.892562 -502.267508 
z
" style="stroke: #1f77b4; stroke-opacity: 0.2"/>
    </defs>
    <g clip-path="url(#p9fb2112e4a)">
     <use xlink:href="#m4155c62ec1" x="0" y="720" style="fill: #1f77b4; fill-opacity: 0.2; stroke: #1f77b4; stroke-opacity: 0.2"/>
    </g>
   </g>
   <g id="PolyCollection_3">
    <defs>
     <path id="me263ae25af" d="M 405.892562 -526.355196 
L 405.892562 -526.355196 
L 407.342741 -513.798829 
L 408.792921 -510.326283 
L 410.2431 -520.828101 
L 411.693279 -517.804649 
L 413.143459 -519.836691 
L 414.593638 -528.770719 
L 416.043817 -541.376401 
L 417.493997 -542.673589 
L 418.944176 -539.292285 
L 420.394355 -545.228314 
L 421.844535 -536.822762 
L 423.294714 -519.488268 
L 424.744893 -526.235901 
L 426.195073 -510.04725 
L 427.645252 -515.640471 
L 429.095431 -508.279138 
L 430.54561 -500.391973 
L 431.99579 -492.704955 
L 433.445969 -486.60275 
L 434.896148 -465.688777 
L 436.346328 -486.064102 
L 437.796507 -490.911236 
L 439.246686 -495.851404 
L 440.696866 -499.013135 
L 442.147045 -499.940218 
L 443.597224 -498.531051 
L 445.047404 -494.287326 
L 446.497583 -486.934266 
L 447.947762 -477.754664 
L 449.397942 -443.312202 
L 450.848121 -466.832835 
L 452.2983 -437.172324 
L 453.74848 -477.908126 
L 455.198659 -487.069819 
L 456.648838 -494.403205 
L 458.099018 -498.761533 
L 459.549197 -500.728112 
L 460.999376 -501.407608 
L 462.449556 -501.581153 
L 463.899735 -501.574425 
L 465.349914 -501.373916 
L 466.800094 -500.611947 
L 468.250273 -498.490499 
L 469.700452 -494.096257 
L 471.150632 -487.55358 
L 472.600811 -481.146244 
L 474.05099 -459.590457 
L 475.501169 -481.08582 
L 476.951349 -487.307155 
L 478.401528 -493.337214 
L 479.851707 -496.66965 
L 481.301887 -497.213846 
L 482.752066 -496.448419 
L 484.202245 -487.44071 
L 485.652425 -497.158137 
L 487.102604 -499.719988 
L 488.552783 -503.385278 
L 490.002963 -507.555684 
L 491.453142 -511.135211 
L 492.903321 -503.165339 
L 494.353501 -512.003223 
L 495.80368 -510.328603 
L 497.253859 -509.870194 
L 498.704039 -511.105336 
L 500.154218 -511.446304 
L 501.604397 -494.317482 
L 503.054577 -495.060677 
L 504.504756 -480.070418 
L 505.954935 -459.435057 
L 507.405115 -465.903519 
L 508.855294 -457.681626 
L 510.305473 -479.681621 
L 511.755653 -487.740022 
L 513.205832 -488.851625 
L 514.656011 -497.023736 
L 516.106191 -499.205155 
L 517.55637 -500.503466 
L 519.006549 -501.194252 
L 520.456729 -501.494103 
L 521.906908 -501.594289 
L 523.357087 -501.601233 
L 524.807266 -501.504018 
L 526.257446 -501.111045 
L 527.707625 -499.937705 
L 529.157804 -497.19042 
L 530.607984 -492.088173 
L 532.058163 -484.500275 
L 533.508342 -460.037768 
L 534.958522 -467.738799 
L 536.408701 -445.641349 
L 537.85888 -451.921996 
L 539.30906 -475.736044 
L 540.759239 -485.271432 
L 542.209418 -491.756359 
L 543.659598 -493.12511 
L 545.109777 -489.844816 
L 546.559956 -483.977905 
L 548.010136 -463.51863 
L 549.460315 -472.13863 
L 550.910494 -467.800102 
L 552.360674 -450.540967 
L 553.810853 -450.426863 
L 555.261032 -477.252127 
L 556.711212 -486.714891 
L 558.161391 -494.461763 
L 559.61157 -499.359569 
L 561.06175 -502.500576 
L 562.511929 -505.587926 
L 563.962108 -509.37414 
L 565.412288 -512.949309 
L 566.862467 -499.081517 
L 568.312646 -512.954554 
L 569.762826 -509.418006 
L 571.213005 -505.824633 
L 572.663184 -503.507551 
L 574.113363 -502.746747 
L 575.563543 -503.472273 
L 577.013722 -505.733059 
L 578.463901 -509.245858 
L 579.914081 -512.703942 
L 581.36426 -494.071291 
L 582.814439 -512.73934 
L 584.264619 -509.424229 
L 585.714798 -506.434952 
L 587.164977 -505.616092 
L 588.615157 -507.817672 
L 590.065336 -512.760035 
L 591.515515 -518.756163 
L 592.965695 -506.814399 
L 594.415874 -523.568274 
L 595.866053 -508.903997 
L 597.316233 -514.525675 
L 598.766412 -509.004256 
L 600.216591 -504.84515 
L 601.666771 -502.018107 
L 603.11695 -499.727378 
L 604.567129 -497.397448 
L 606.017309 -495.341722 
L 607.467488 -480.970333 
L 608.917667 -495.315937 
L 610.367847 -497.261069 
L 611.818026 -499.174062 
L 613.268205 -500.243043 
L 614.718385 -500.307242 
L 616.168564 -499.66464 
L 617.618743 -498.87317 
L 619.068923 -493.204979 
L 620.519102 -499.005749 
L 621.969281 -500.220967 
L 623.41946 -502.09033 
L 624.86964 -504.734464 
L 626.319819 -508.078536 
L 627.769998 -511.176149 
L 629.220178 -505.180692 
L 630.670357 -511.20968 
L 632.120536 -508.215281 
L 633.570716 -505.15931 
L 635.020895 -503.124492 
L 636.471074 -502.229257 
L 636.471074 -502.229257 
L 636.471074 -502.229257 
L 635.020895 -503.124492 
L 633.570716 -505.15931 
L 632.120536 -508.215281 
L 630.670357 -511.20968 
L 629.220178 -519.777986 
L 627.769998 -511.176149 
L 626.319819 -508.078536 
L 624.86964 -504.734464 
L 623.41946 -502.09033 
L 621.969281 -500.220967 
L 620.519102 -499.005749 
L 619.068923 -503.876637 
L 617.618743 -498.87317 
L 616.168564 -499.66464 
L 614.718385 -500.307242 
L 613.268205 -500.243043 
L 611.818026 -499.174062 
L 610.367847 -497.261069 
L 608.917667 -495.315937 
L 607.467488 -507.998816 
L 606.017309 -495.341722 
L 604.567129 -497.397448 
L 603.11695 -499.727378 
L 601.666771 -502.018107 
L 600.216591 -504.84515 
L 598.766412 -509.004256 
L 597.316233 -514.525675 
L 595.866053 -531.335246 
L 594.415874 -523.568274 
L 592.965695 -539.345136 
L 591.515515 -518.756163 
L 590.065336 -512.760035 
L 588.615157 -507.817672 
L 587.164977 -505.616092 
L 585.714798 -506.434952 
L 584.264619 -509.424229 
L 582.814439 -512.73934 
L 581.36426 -534.295936 
L 579.914081 -512.703942 
L 578.463901 -509.245858 
L 577.013722 -505.733059 
L 575.563543 -503.472273 
L 574.113363 -502.746747 
L 572.663184 -503.507551 
L 571.213005 -505.824633 
L 569.762826 -509.418006 
L 568.312646 -512.954554 
L 566.862467 -529.842814 
L 565.412288 -512.949309 
L 563.962108 -509.37414 
L 562.511929 -505.587926 
L 561.06175 -502.500576 
L 559.61157 -499.359569 
L 558.161391 -494.461763 
L 556.711212 -486.714891 
L 555.261032 -477.252127 
L 553.810853 -488.406981 
L 552.360674 -481.903742 
L 550.910494 -467.800102 
L 549.460315 -472.13863 
L 548.010136 -491.898625 
L 546.559956 -483.977905 
L 545.109777 -489.844816 
L 543.659598 -493.12511 
L 542.209418 -491.756359 
L 540.759239 -485.271432 
L 539.30906 -475.736044 
L 537.85888 -482.882072 
L 536.408701 -483.048948 
L 534.958522 -467.738799 
L 533.508342 -491.042819 
L 532.058163 -484.500275 
L 530.607984 -492.088173 
L 529.157804 -497.19042 
L 527.707625 -499.937705 
L 526.257446 -501.111045 
L 524.807266 -501.504018 
L 523.357087 -501.601233 
L 521.906908 -501.594289 
L 520.456729 -501.494103 
L 519.006549 -501.194252 
L 517.55637 -500.503466 
L 516.106191 -499.205155 
L 514.656011 -497.023736 
L 513.205832 -498.05282 
L 511.755653 -487.740022 
L 510.305473 -479.681621 
L 508.855294 -484.355473 
L 507.405115 -465.903519 
L 505.954935 -478.000209 
L 504.504756 -480.070418 
L 503.054577 -495.060677 
L 501.604397 -519.083051 
L 500.154218 -511.446304 
L 498.704039 -511.105336 
L 497.253859 -509.870194 
L 495.80368 -510.328603 
L 494.353501 -512.003223 
L 492.903321 -522.335994 
L 491.453142 -511.135211 
L 490.002963 -507.555684 
L 488.552783 -503.385278 
L 487.102604 -499.719988 
L 485.652425 -497.158137 
L 484.202245 -504.748673 
L 482.752066 -496.448419 
L 481.301887 -497.213846 
L 479.851707 -496.66965 
L 478.401528 -493.337214 
L 476.951349 -487.307155 
L 475.501169 -481.08582 
L 474.05099 -497.226527 
L 472.600811 -481.146244 
L 471.150632 -487.55358 
L 469.700452 -494.096257 
L 468.250273 -498.490499 
L 466.800094 -500.611947 
L 465.349914 -501.373916 
L 463.899735 -501.574425 
L 462.449556 -501.581153 
L 460.999376 -501.407608 
L 459.549197 -500.728112 
L 458.099018 -498.761533 
L 456.648838 -494.403205 
L 455.198659 -487.069819 
L 453.74848 -477.908126 
L 452.2983 -502.850165 
L 450.848121 -466.832835 
L 449.397942 -496.493801 
L 447.947762 -477.754664 
L 446.497583 -486.934266 
L 445.047404 -494.287326 
L 443.597224 -498.531051 
L 442.147045 -499.940218 
L 440.696866 -499.013135 
L 439.246686 -495.851404 
L 437.796507 -490.911236 
L 436.346328 -486.064102 
L 434.896148 -502.513879 
L 433.445969 -486.60275 
L 431.99579 -492.704955 
L 430.54561 -500.391973 
L 429.095431 -508.279138 
L 427.645252 -515.640471 
L 426.195073 -533.386168 
L 424.744893 -526.235901 
L 423.294714 -541.565215 
L 421.844535 -536.822762 
L 420.394355 -545.228314 
L 418.944176 -564.054959 
L 417.493997 -558.793068 
L 416.043817 -541.376401 
L 414.593638 -528.770719 
L 413.143459 -519.836691 
L 411.693279 -517.804649 
L 410.2431 -520.828101 
L 408.792921 -538.934159 
L 407.342741 -538.903408 
L 405.892562 -526.355196 
z
" style="stroke: #d62728; stroke-opacity: 0.2"/>
    </defs>
    <g clip-path="url(#p9fb2112e4a)">
     <use xlink:href="#me263ae25af" x="0" y="720" style="fill: #d62728; fill-opacity: 0.2; stroke: #d62728; stroke-opacity: 0.2"/>
    </g>
   </g>
   <g id="PolyCollection_4">
    <defs>
     <path id="m03abd0c079" d="M 405.892562 -501.631767 
L 405.892562 -501.631767 
L 407.342741 -501.631767 
L 408.792921 -501.631767 
L 410.2431 -501.631767 
L 411.693279 -501.631767 
L 413.143459 -501.631767 
L 414.593638 -501.631767 
L 416.043817 -501.631767 
L 417.493997 -501.631767 
L 418.944176 -501.631767 
L 420.394355 -501.631767 
L 421.844535 -501.631767 
L 423.294714 -501.631767 
L 424.744893 -501.631767 
L 426.195073 -501.631767 
L 427.645252 -501.631767 
L 429.095431 -501.631767 
L 430.54561 -501.631767 
L 431.99579 -501.631767 
L 433.445969 -501.631767 
L 434.896148 -501.631767 
L 436.346328 -501.631767 
L 437.796507 -501.631767 
L 439.246686 -501.631767 
L 440.696866 -501.631767 
L 442.147045 -501.631767 
L 443.597224 -501.631767 
L 445.047404 -501.631767 
L 446.497583 -501.631767 
L 447.947762 -501.631767 
L 449.397942 -501.631767 
L 450.848121 -501.631767 
L 452.2983 -501.631767 
L 453.74848 -501.631767 
L 455.198659 -501.631767 
L 456.648838 -501.640078 
L 458.099018 -501.685962 
L 459.549197 -501.906991 
L 460.999376 -502.720298 
L 462.449556 -504.984678 
L 463.899735 -509.674983 
L 465.349914 -516.658473 
L 466.800094 -523.495495 
L 468.250273 -505.334943 
L 469.700452 -523.495495 
L 471.150632 -516.664009 
L 472.600811 -509.71108 
L 474.05099 -505.167995 
L 475.501169 -503.445327 
L 476.951349 -504.167733 
L 478.401528 -507.222531 
L 479.851707 -512.559294 
L 481.301887 -519.795447 
L 482.752066 -508.12112 
L 484.202245 -542.802931 
L 485.652425 -561.351826 
L 487.102604 -579.318619 
L 488.552783 -549.281715 
L 490.002963 -574.686367 
L 491.453142 -551.526421 
L 492.903321 -528.276426 
L 494.353501 -512.729402 
L 495.80368 -505.232844 
L 497.253859 -502.542262 
L 498.704039 -501.811054 
L 500.154218 -501.659262 
L 501.604397 -501.631767 
L 503.054577 -501.631767 
L 504.504756 -501.631767 
L 505.954935 -501.631767 
L 507.405115 -501.631767 
L 508.855294 -501.631767 
L 510.305473 -501.631767 
L 511.755653 -501.631767 
L 513.205832 -501.631767 
L 514.656011 -501.631767 
L 516.106191 -501.631767 
L 517.55637 -501.631767 
L 519.006549 -501.631767 
L 520.456729 -501.631767 
L 521.906908 -501.631767 
L 523.357087 -501.631767 
L 524.807266 -501.631767 
L 526.257446 -501.631767 
L 527.707625 -501.631767 
L 529.157804 -501.631767 
L 530.607984 -501.631767 
L 532.058163 -501.631767 
L 533.508342 -501.631767 
L 534.958522 -501.631767 
L 536.408701 -501.631767 
L 537.85888 -501.631767 
L 539.30906 -501.631767 
L 540.759239 -501.631767 
L 542.209418 -501.631767 
L 543.659598 -501.631767 
L 545.109777 -501.631767 
L 546.559956 -501.631767 
L 548.010136 -501.631767 
L 549.460315 -501.631767 
L 550.910494 -501.631767 
L 552.360674 -501.631767 
L 553.810853 -501.631767 
L 555.261032 -501.631767 
L 556.711212 -501.631767 
L 558.161391 -501.631767 
L 559.61157 -501.631767 
L 561.06175 -501.631767 
L 562.511929 -501.631767 
L 563.962108 -501.625059 
L 565.412288 -501.588024 
L 566.862467 -501.409622 
L 568.312646 -500.753168 
L 569.762826 -498.925491 
L 571.213005 -495.139748 
L 572.663184 -489.503078 
L 574.113363 -483.984629 
L 575.563543 -458.816729 
L 577.013722 -483.984629 
L 578.463901 -489.503078 
L 579.914081 -495.139748 
L 581.36426 -498.925491 
L 582.814439 -500.753168 
L 584.264619 -501.409622 
L 585.714798 -501.588024 
L 587.164977 -501.625059 
L 588.615157 -501.631767 
L 590.065336 -501.631767 
L 591.515515 -501.631767 
L 592.965695 -501.631767 
L 594.415874 -501.631767 
L 595.866053 -501.631767 
L 597.316233 -501.631767 
L 598.766412 -501.631767 
L 600.216591 -501.628965 
L 601.666771 -501.613497 
L 603.11695 -501.538985 
L 604.567129 -501.264806 
L 606.017309 -500.501447 
L 607.467488 -498.920271 
L 608.917667 -496.566025 
L 610.367847 -494.261156 
L 611.818026 -485.527656 
L 613.268205 -494.261771 
L 614.718385 -496.570037 
L 616.168564 -498.940642 
L 617.618743 -500.582018 
L 619.068923 -501.51298 
L 620.519102 -502.134323 
L 621.969281 -502.725735 
L 623.41946 -503.247261 
L 624.86964 -498.731913 
L 626.319819 -503.250063 
L 627.769998 -502.744005 
L 629.220178 -502.227105 
L 630.670357 -501.879941 
L 632.120536 -501.712337 
L 633.570716 -501.652138 
L 635.020895 -501.635778 
L 636.471074 -501.632382 
L 636.471074 -501.632382 
L 636.471074 -501.632382 
L 635.020895 -501.635778 
L 633.570716 -501.652138 
L 632.120536 -501.712337 
L 630.670357 -501.879941 
L 629.220178 -502.227105 
L 627.769998 -502.744005 
L 626.319819 -503.250063 
L 624.86964 -508.199161 
L 623.41946 -503.247261 
L 621.969281 -502.725735 
L 620.519102 -502.134323 
L 619.068923 -501.51298 
L 617.618743 -500.582018 
L 616.168564 -498.940642 
L 614.718385 -496.570037 
L 613.268205 -494.261771 
L 611.818026 -501.031886 
L 610.367847 -494.261156 
L 608.917667 -496.566025 
L 607.467488 -498.920271 
L 606.017309 -500.501447 
L 604.567129 -501.264806 
L 603.11695 -501.538985 
L 601.666771 -501.613497 
L 600.216591 -501.628965 
L 598.766412 -501.631767 
L 597.316233 -501.631767 
L 595.866053 -501.631767 
L 594.415874 -501.631767 
L 592.965695 -501.631767 
L 591.515515 -501.631767 
L 590.065336 -501.631767 
L 588.615157 -501.631767 
L 587.164977 -501.625059 
L 585.714798 -501.588024 
L 584.264619 -501.409622 
L 582.814439 -500.753168 
L 581.36426 -498.925491 
L 579.914081 -495.139748 
L 578.463901 -489.503078 
L 577.013722 -483.984629 
L 575.563543 -504.453151 
L 574.113363 -483.984629 
L 572.663184 -489.503078 
L 571.213005 -495.139748 
L 569.762826 -498.925491 
L 568.312646 -500.753168 
L 566.862467 -501.409622 
L 565.412288 -501.588024 
L 563.962108 -501.625059 
L 562.511929 -501.631767 
L 561.06175 -501.631767 
L 559.61157 -501.631767 
L 558.161391 -501.631767 
L 556.711212 -501.631767 
L 555.261032 -501.631767 
L 553.810853 -501.631767 
L 552.360674 -501.631767 
L 550.910494 -501.631767 
L 549.460315 -501.631767 
L 548.010136 -501.631767 
L 546.559956 -501.631767 
L 545.109777 -501.631767 
L 543.659598 -501.631767 
L 542.209418 -501.631767 
L 540.759239 -501.631767 
L 539.30906 -501.631767 
L 537.85888 -501.631767 
L 536.408701 -501.631767 
L 534.958522 -501.631767 
L 533.508342 -501.631767 
L 532.058163 -501.631767 
L 530.607984 -501.631767 
L 529.157804 -501.631767 
L 527.707625 -501.631767 
L 526.257446 -501.631767 
L 524.807266 -501.631767 
L 523.357087 -501.631767 
L 521.906908 -501.631767 
L 520.456729 -501.631767 
L 519.006549 -501.631767 
L 517.55637 -501.631767 
L 516.106191 -501.631767 
L 514.656011 -501.631767 
L 513.205832 -501.631767 
L 511.755653 -501.631767 
L 510.305473 -501.631767 
L 508.855294 -501.631767 
L 507.405115 -501.631767 
L 505.954935 -501.631767 
L 504.504756 -501.631767 
L 503.054577 -501.631767 
L 501.604397 -501.631767 
L 500.154218 -501.659262 
L 498.704039 -501.811054 
L 497.253859 -502.542262 
L 495.80368 -505.232844 
L 494.353501 -512.729402 
L 492.903321 -528.276426 
L 491.453142 -551.526421 
L 490.002963 -574.686367 
L 488.552783 -622.368595 
L 487.102604 -579.318619 
L 485.652425 -561.351826 
L 484.202245 -542.802931 
L 482.752066 -550.329792 
L 481.301887 -519.795447 
L 479.851707 -512.559294 
L 478.401528 -507.222531 
L 476.951349 -504.167733 
L 475.501169 -503.445327 
L 474.05099 -505.167995 
L 472.600811 -509.71108 
L 471.150632 -516.664009 
L 469.700452 -523.495495 
L 468.250273 -547.47829 
L 466.800094 -523.495495 
L 465.349914 -516.658473 
L 463.899735 -509.674983 
L 462.449556 -504.984678 
L 460.999376 -502.720298 
L 459.549197 -501.906991 
L 458.099018 -501.685962 
L 456.648838 -501.640078 
L 455.198659 -501.631767 
L 453.74848 -501.631767 
L 452.2983 -501.631767 
L 450.848121 -501.631767 
L 449.397942 -501.631767 
L 447.947762 -501.631767 
L 446.497583 -501.631767 
L 445.047404 -501.631767 
L 443.597224 -501.631767 
L 442.147045 -501.631767 
L 440.696866 -501.631767 
L 439.246686 -501.631767 
L 437.796507 -501.631767 
L 436.346328 -501.631767 
L 434.896148 -501.631767 
L 433.445969 -501.631767 
L 431.99579 -501.631767 
L 430.54561 -501.631767 
L 429.095431 -501.631767 
L 427.645252 -501.631767 
L 426.195073 -501.631767 
L 424.744893 -501.631767 
L 423.294714 -501.631767 
L 421.844535 -501.631767 
L 420.394355 -501.631767 
L 418.944176 -501.631767 
L 417.493997 -501.631767 
L 416.043817 -501.631767 
L 414.593638 -501.631767 
L 413.143459 -501.631767 
L 411.693279 -501.631767 
L 410.2431 -501.631767 
L 408.792921 -501.631767 
L 407.342741 -501.631767 
L 405.892562 -501.631767 
z
" style="stroke: #ff7f0e; stroke-opacity: 0.2"/>
    </defs>
    <g clip-path="url(#p9fb2112e4a)">
     <use xlink:href="#m03abd0c079" x="0" y="720" style="fill: #ff7f0e; fill-opacity: 0.2; stroke: #ff7f0e; stroke-opacity: 0.2"/>
    </g>
   </g>
   <g id="matplotlib.axis_3">
    <g id="xtick_7">
     <g id="line2d_13">
      <g>
       <use xlink:href="#me3ac9b9b11" x="405.863558" y="333.490909" style="stroke: #000000; stroke-width: 0.8"/>
      </g>
     </g>
     <g id="text_13">
      <!-- 0 -->
      <g transform="translate(402.682308 348.089347)scale(0.1 -0.1)">
       <use xlink:href="#DejaVuSans-30"/>
      </g>
     </g>
    </g>
    <g id="xtick_8">
     <g id="line2d_14">
      <g>
       <use xlink:href="#me3ac9b9b11" x="463.870731" y="333.490909" style="stroke: #000000; stroke-width: 0.8"/>
      </g>
     </g>
     <g id="text_14">
      <!-- 2000 -->
      <g transform="translate(451.145731 348.089347)scale(0.1 -0.1)">
       <use xlink:href="#DejaVuSans-32"/>
       <use xlink:href="#DejaVuSans-30" x="63.623047"/>
       <use xlink:href="#DejaVuSans-30" x="127.246094"/>
       <use xlink:href="#DejaVuSans-30" x="190.869141"/>
      </g>
     </g>
    </g>
    <g id="xtick_9">
     <g id="line2d_15">
      <g>
       <use xlink:href="#me3ac9b9b11" x="521.877904" y="333.490909" style="stroke: #000000; stroke-width: 0.8"/>
      </g>
     </g>
     <g id="text_15">
      <!-- 4000 -->
      <g transform="translate(509.152904 348.089347)scale(0.1 -0.1)">
       <use xlink:href="#DejaVuSans-34"/>
       <use xlink:href="#DejaVuSans-30" x="63.623047"/>
       <use xlink:href="#DejaVuSans-30" x="127.246094"/>
       <use xlink:href="#DejaVuSans-30" x="190.869141"/>
      </g>
     </g>
    </g>
    <g id="xtick_10">
     <g id="line2d_16">
      <g>
       <use xlink:href="#me3ac9b9b11" x="579.885077" y="333.490909" style="stroke: #000000; stroke-width: 0.8"/>
      </g>
     </g>
     <g id="text_16">
      <!-- 6000 -->
      <g transform="translate(567.160077 348.089347)scale(0.1 -0.1)">
       <use xlink:href="#DejaVuSans-36"/>
       <use xlink:href="#DejaVuSans-30" x="63.623047"/>
       <use xlink:href="#DejaVuSans-30" x="127.246094"/>
       <use xlink:href="#DejaVuSans-30" x="190.869141"/>
      </g>
     </g>
    </g>
    <g id="xtick_11">
     <g id="line2d_17">
      <g>
       <use xlink:href="#me3ac9b9b11" x="637.89225" y="333.490909" style="stroke: #000000; stroke-width: 0.8"/>
      </g>
     </g>
     <g id="text_17">
      <!-- 8000 -->
      <g transform="translate(625.16725 348.089347)scale(0.1 -0.1)">
       <use xlink:href="#DejaVuSans-38"/>
       <use xlink:href="#DejaVuSans-30" x="63.623047"/>
       <use xlink:href="#DejaVuSans-30" x="127.246094"/>
       <use xlink:href="#DejaVuSans-30" x="190.869141"/>
      </g>
     </g>
    </g>
   </g>
   <g id="matplotlib.axis_4">
    <g id="ytick_7">
     <g id="line2d_18">
      <g>
       <use xlink:href="#m5f7f733117" x="394.363636" y="323.791698" style="stroke: #000000; stroke-width: 0.8"/>
      </g>
     </g>
     <g id="text_18">
      <!-- −0.15 -->
      <g transform="translate(356.718324 327.590917)scale(0.1 -0.1)">
       <defs>
        <path id="DejaVuSans-2212" d="M 678 2272 
L 4684 2272 
L 4684 1741 
L 678 1741 
L 678 2272 
z
" transform="scale(0.015625)"/>
        <path id="DejaVuSans-35" d="M 691 4666 
L 3169 4666 
L 3169 4134 
L 1269 4134 
L 1269 2991 
Q 1406 3038 1543 3061 
Q 1681 3084 1819 3084 
Q 2600 3084 3056 2656 
Q 3513 2228 3513 1497 
Q 3513 744 3044 326 
Q 2575 -91 1722 -91 
Q 1428 -91 1123 -41 
Q 819 9 494 109 
L 494 744 
Q 775 591 1075 516 
Q 1375 441 1709 441 
Q 2250 441 2565 725 
Q 2881 1009 2881 1497 
Q 2881 1984 2565 2268 
Q 2250 2553 1709 2553 
Q 1456 2553 1204 2497 
Q 953 2441 691 2322 
L 691 4666 
z
" transform="scale(0.015625)"/>
       </defs>
       <use xlink:href="#DejaVuSans-2212"/>
       <use xlink:href="#DejaVuSans-30" x="83.789062"/>
       <use xlink:href="#DejaVuSans-2e" x="147.412109"/>
       <use xlink:href="#DejaVuSans-31" x="179.199219"/>
       <use xlink:href="#DejaVuSans-35" x="242.822266"/>
      </g>
     </g>
    </g>
    <g id="ytick_8">
     <g id="line2d_19">
      <g>
       <use xlink:href="#m5f7f733117" x="394.363636" y="288.650543" style="stroke: #000000; stroke-width: 0.8"/>
      </g>
     </g>
     <g id="text_19">
      <!-- −0.10 -->
      <g transform="translate(356.718324 292.449762)scale(0.1 -0.1)">
       <use xlink:href="#DejaVuSans-2212"/>
       <use xlink:href="#DejaVuSans-30" x="83.789062"/>
       <use xlink:href="#DejaVuSans-2e" x="147.412109"/>
       <use xlink:href="#DejaVuSans-31" x="179.199219"/>
       <use xlink:href="#DejaVuSans-30" x="242.822266"/>
      </g>
     </g>
    </g>
    <g id="ytick_9">
     <g id="line2d_20">
      <g>
       <use xlink:href="#m5f7f733117" x="394.363636" y="253.509388" style="stroke: #000000; stroke-width: 0.8"/>
      </g>
     </g>
     <g id="text_20">
      <!-- −0.05 -->
      <g transform="translate(356.718324 257.308607)scale(0.1 -0.1)">
       <use xlink:href="#DejaVuSans-2212"/>
       <use xlink:href="#DejaVuSans-30" x="83.789062"/>
       <use xlink:href="#DejaVuSans-2e" x="147.412109"/>
       <use xlink:href="#DejaVuSans-30" x="179.199219"/>
       <use xlink:href="#DejaVuSans-35" x="242.822266"/>
      </g>
     </g>
    </g>
    <g id="ytick_10">
     <g id="line2d_21">
      <g>
       <use xlink:href="#m5f7f733117" x="394.363636" y="218.368233" style="stroke: #000000; stroke-width: 0.8"/>
      </g>
     </g>
     <g id="text_21">
      <!-- 0.00 -->
      <g transform="translate(365.098011 222.167452)scale(0.1 -0.1)">
       <use xlink:href="#DejaVuSans-30"/>
       <use xlink:href="#DejaVuSans-2e" x="63.623047"/>
       <use xlink:href="#DejaVuSans-30" x="95.410156"/>
       <use xlink:href="#DejaVuSans-30" x="159.033203"/>
      </g>
     </g>
    </g>
    <g id="ytick_11">
     <g id="line2d_22">
      <g>
       <use xlink:href="#m5f7f733117" x="394.363636" y="183.227078" style="stroke: #000000; stroke-width: 0.8"/>
      </g>
     </g>
     <g id="text_22">
      <!-- 0.05 -->
      <g transform="translate(365.098011 187.026296)scale(0.1 -0.1)">
       <use xlink:href="#DejaVuSans-30"/>
       <use xlink:href="#DejaVuSans-2e" x="63.623047"/>
       <use xlink:href="#DejaVuSans-30" x="95.410156"/>
       <use xlink:href="#DejaVuSans-35" x="159.033203"/>
      </g>
     </g>
    </g>
    <g id="ytick_12">
     <g id="line2d_23">
      <g>
       <use xlink:href="#m5f7f733117" x="394.363636" y="148.085923" style="stroke: #000000; stroke-width: 0.8"/>
      </g>
     </g>
     <g id="text_23">
      <!-- 0.10 -->
      <g transform="translate(365.098011 151.885141)scale(0.1 -0.1)">
       <use xlink:href="#DejaVuSans-30"/>
       <use xlink:href="#DejaVuSans-2e" x="63.623047"/>
       <use xlink:href="#DejaVuSans-31" x="95.410156"/>
       <use xlink:href="#DejaVuSans-30" x="159.033203"/>
      </g>
     </g>
    </g>
    <g id="ytick_13">
     <g id="line2d_24">
      <g>
       <use xlink:href="#m5f7f733117" x="394.363636" y="112.944767" style="stroke: #000000; stroke-width: 0.8"/>
      </g>
     </g>
     <g id="text_24">
      <!-- 0.15 -->
      <g transform="translate(365.098011 116.743986)scale(0.1 -0.1)">
       <use xlink:href="#DejaVuSans-30"/>
       <use xlink:href="#DejaVuSans-2e" x="63.623047"/>
       <use xlink:href="#DejaVuSans-31" x="95.410156"/>
       <use xlink:href="#DejaVuSans-35" x="159.033203"/>
      </g>
     </g>
    </g>
   </g>
   <g id="line2d_25">
    <path d="M 405.892562 217.667746 
L 407.342741 216.540413 
L 408.792921 213.954324 
L 411.693279 206.239078 
L 413.143459 204.690939 
L 414.593638 206.487537 
L 416.043817 210.622792 
L 418.944176 220.075649 
L 420.394355 225.896784 
L 423.294714 240.887852 
L 424.744893 245.059404 
L 426.195073 243.915411 
L 427.645252 238.734554 
L 429.095431 232.817135 
L 430.54561 229.145975 
L 431.99579 229.307993 
L 433.445969 233.099354 
L 434.896148 238.207284 
L 436.346328 241.400301 
L 437.796507 241.278857 
L 439.246686 239.385714 
L 440.696866 237.900475 
L 442.147045 237.093009 
L 443.597224 235.721194 
L 445.047404 232.981566 
L 449.397942 221.982585 
L 450.848121 219.403368 
L 455.198659 213.15311 
L 456.648838 211.202 
L 458.099018 208.875868 
L 459.549197 205.109967 
L 460.999376 199.291019 
L 462.449556 192.21736 
L 463.899735 185.861543 
L 465.349914 182.305926 
L 466.800094 182.697691 
L 468.250273 186.762226 
L 469.700452 193.162088 
L 471.150632 200.287893 
L 472.600811 206.775197 
L 474.05099 211.725406 
L 475.501169 214.867059 
L 476.951349 216.507551 
L 478.401528 217.215211 
L 479.851707 217.454357 
L 481.301887 217.44871 
L 484.202245 217.092926 
L 485.652425 217.097624 
L 487.102604 217.59774 
L 488.552783 219.158294 
L 490.002963 223.185827 
L 491.453142 232.169061 
L 492.903321 248.324668 
L 495.80368 292.193441 
L 497.253859 303.967763 
L 498.704039 300.365266 
L 500.154218 284.280147 
L 501.604397 264.126796 
L 503.054577 246.929717 
L 504.504756 234.876142 
L 505.954935 227.111165 
L 507.405115 222.3921 
L 508.855294 219.768622 
L 510.305473 218.310747 
L 513.205832 215.906805 
L 514.656011 214.72357 
L 516.106191 214.107167 
L 517.55637 214.216803 
L 519.006549 214.576913 
L 520.456729 214.586309 
L 521.906908 214.241709 
L 523.357087 214.139036 
L 524.807266 214.748941 
L 527.707625 217.052087 
L 529.157804 217.820153 
L 530.607984 218.190297 
L 533.508342 218.359374 
L 542.209418 218.44675 
L 543.659598 218.610083 
L 545.109777 218.948538 
L 548.010136 219.949826 
L 549.460315 220.173206 
L 550.910494 219.998431 
L 555.261032 218.807214 
L 558.161391 218.041297 
L 559.61157 217.93404 
L 561.06175 218.60566 
L 562.511929 219.886624 
L 563.962108 220.359473 
L 565.412288 217.796374 
L 566.862467 210.215812 
L 568.312646 197.124764 
L 569.762826 181.202187 
L 571.213005 168.847046 
L 572.663184 166.678774 
L 574.113363 175.811378 
L 575.563543 190.547084 
L 577.013722 203.377555 
L 578.463901 210.336035 
L 579.914081 211.767011 
L 581.36426 210.087975 
L 582.814439 207.802784 
L 584.264619 206.593071 
L 585.714798 207.034415 
L 587.164977 208.786954 
L 590.065336 213.489832 
L 591.515515 215.568837 
L 592.965695 217.294197 
L 594.415874 218.554879 
L 595.866053 219.018387 
L 597.316233 218.152823 
L 598.766412 215.606301 
L 600.216591 211.55568 
L 603.11695 201.595061 
L 604.567129 197.913154 
L 606.017309 197.244354 
L 607.467488 200.039443 
L 608.917667 204.435931 
L 610.367847 207.747664 
L 611.818026 208.942105 
L 613.268205 209.014785 
L 614.718385 209.243211 
L 616.168564 209.911264 
L 617.618743 210.829446 
L 619.068923 212.378982 
L 620.519102 215.570347 
L 621.969281 221.164109 
L 624.86964 236.350232 
L 626.319819 241.397338 
L 627.769998 242.306978 
L 629.220178 239.82376 
L 630.670357 236.136946 
L 632.120536 232.858545 
L 633.570716 230.279594 
L 635.020895 228.259598 
L 636.471074 227.043933 
L 636.471074 227.043933 
" clip-path="url(#p9fb2112e4a)" style="fill: none; stroke: #9467bd; stroke-width: 2; stroke-linecap: square"/>
   </g>
   <g id="line2d_26">
    <path d="M 405.892562 219.81905 
L 407.342741 220.223702 
L 408.792921 221.790166 
L 410.2431 225.489342 
L 413.143459 237.437905 
L 414.593638 240.974759 
L 416.043817 240.779478 
L 418.944176 235.784513 
L 420.394355 233.231623 
L 421.844535 229.929805 
L 423.294714 226.055959 
L 424.744893 222.965549 
L 426.195073 222.001418 
L 427.645252 223.693514 
L 430.54561 231.458643 
L 431.99579 233.230464 
L 433.445969 231.612695 
L 436.346328 223.747227 
L 437.796507 221.048355 
L 439.246686 219.647402 
L 440.696866 218.998504 
L 442.147045 218.680364 
L 443.597224 218.52042 
L 445.047404 218.484462 
L 446.497583 218.657306 
L 447.947762 219.319356 
L 449.397942 220.9876 
L 450.848121 224.108446 
L 452.2983 228.341937 
L 453.74848 232.117886 
L 455.198659 233.440863 
L 456.648838 231.561135 
L 459.549197 223.676001 
L 460.999376 220.872766 
L 462.449556 219.372767 
L 463.899735 218.745642 
L 465.349914 218.564293 
L 468.250273 218.721222 
L 471.150632 218.924541 
L 474.05099 218.704607 
L 476.951349 218.443267 
L 481.301887 218.37273 
L 484.202245 218.434201 
L 485.652425 218.571429 
L 487.102604 218.855675 
L 490.002963 219.693237 
L 491.453142 219.869659 
L 492.903321 219.693885 
L 495.80368 218.877186 
L 497.253859 218.656668 
L 498.704039 218.697561 
L 500.154218 219.019865 
L 503.054577 220.132539 
L 504.504756 220.410867 
L 505.954935 220.234846 
L 510.305473 218.738167 
L 514.656011 217.989583 
L 516.106191 217.185322 
L 517.55637 215.573368 
L 519.006549 213.260165 
L 520.456729 211.168499 
L 521.906908 210.607965 
L 523.357087 212.074061 
L 524.807266 214.656975 
L 526.257446 216.918599 
L 527.707625 218.131102 
L 529.157804 218.485528 
L 532.058163 218.357387 
L 533.508342 218.147659 
L 534.958522 217.648617 
L 536.408701 216.634441 
L 539.30906 213.654383 
L 540.759239 213.029339 
L 542.209418 213.669866 
L 546.559956 218.112375 
L 548.010136 219.009955 
L 549.460315 219.603185 
L 550.910494 219.906169 
L 552.360674 220.019215 
L 553.810853 220.279611 
L 555.261032 221.058802 
L 558.161391 223.461568 
L 559.61157 223.701234 
L 561.06175 222.84469 
L 562.511929 221.500868 
L 563.962108 220.607508 
L 565.412288 220.776683 
L 566.862467 221.937378 
L 568.312646 223.332282 
L 569.762826 223.949094 
L 571.213005 223.286607 
L 574.113363 220.177118 
L 575.563543 219.122845 
L 577.013722 218.616669 
L 578.463901 218.448564 
L 579.914081 218.453332 
L 581.36426 218.594683 
L 582.814439 218.907959 
L 585.714798 219.865262 
L 587.164977 220.156514 
L 590.065336 220.32914 
L 591.515515 220.697801 
L 592.965695 221.229161 
L 594.415874 221.523111 
L 595.866053 221.333416 
L 600.216591 219.870829 
L 604.567129 218.733632 
L 606.017309 218.518864 
L 608.917667 218.380517 
L 632.120536 218.197869 
L 636.471074 217.671838 
L 636.471074 217.671838 
" clip-path="url(#p9fb2112e4a)" style="fill: none; stroke: #1f77b4; stroke-width: 2; stroke-linecap: square"/>
   </g>
   <g id="line2d_27">
    <path d="M 405.892562 193.644804 
L 407.342741 193.648882 
L 408.792921 195.369779 
L 410.2431 199.171899 
L 411.693279 202.195351 
L 413.143459 200.163309 
L 414.593638 191.229281 
L 416.043817 178.623599 
L 417.493997 169.266671 
L 418.944176 168.326378 
L 420.394355 174.771686 
L 421.844535 183.177238 
L 423.294714 189.473258 
L 426.195073 198.283291 
L 427.645252 204.359529 
L 430.54561 219.608027 
L 431.99579 227.295045 
L 433.445969 233.39725 
L 434.896148 235.898672 
L 436.346328 233.935898 
L 439.246686 224.148596 
L 440.696866 220.986865 
L 442.147045 220.059782 
L 443.597224 221.468949 
L 445.047404 225.712674 
L 446.497583 233.065734 
L 447.947762 242.245336 
L 449.397942 250.096999 
L 450.848121 253.167165 
L 452.2983 249.988756 
L 453.74848 242.091874 
L 455.198659 232.930181 
L 456.648838 225.596795 
L 458.099018 221.238467 
L 459.549197 219.271888 
L 460.999376 218.592392 
L 462.449556 218.418847 
L 463.899735 218.425575 
L 465.349914 218.626084 
L 466.800094 219.388053 
L 468.250273 221.509501 
L 469.700452 225.903743 
L 472.600811 238.853756 
L 474.05099 241.591508 
L 475.501169 238.91418 
L 478.401528 226.662786 
L 479.851707 223.33035 
L 481.301887 222.786154 
L 482.752066 223.551581 
L 484.202245 223.905308 
L 485.652425 222.841863 
L 487.102604 220.280012 
L 488.552783 216.614722 
L 490.002963 212.444316 
L 491.453142 208.864789 
L 492.903321 207.249333 
L 494.353501 207.996777 
L 495.80368 209.671397 
L 497.253859 210.129806 
L 498.704039 208.894664 
L 500.154218 208.553696 
L 501.604397 213.299734 
L 503.054577 224.939323 
L 504.504756 239.929582 
L 505.954935 251.282367 
L 507.405115 254.096481 
L 508.855294 248.98145 
L 511.755653 232.259978 
L 513.205832 226.547778 
L 514.656011 222.976264 
L 516.106191 220.794845 
L 517.55637 219.496534 
L 519.006549 218.805748 
L 520.456729 218.505897 
L 523.357087 218.398767 
L 524.807266 218.495982 
L 526.257446 218.888955 
L 527.707625 220.062295 
L 529.157804 222.80958 
L 530.607984 227.911827 
L 532.058163 235.499725 
L 533.508342 244.459707 
L 534.958522 252.261201 
L 536.408701 255.654851 
L 537.85888 252.597966 
L 539.30906 244.263956 
L 540.759239 234.728568 
L 542.209418 228.243641 
L 543.659598 226.87489 
L 545.109777 230.155184 
L 549.460315 247.86137 
L 550.910494 252.199898 
L 552.360674 253.777646 
L 553.810853 250.583078 
L 555.261032 242.747873 
L 556.711212 233.285109 
L 558.161391 225.538237 
L 559.61157 220.640431 
L 562.511929 214.412074 
L 565.412288 207.050691 
L 566.862467 205.537835 
L 568.312646 207.045446 
L 571.213005 214.175367 
L 572.663184 216.492449 
L 574.113363 217.253253 
L 575.563543 216.527727 
L 577.013722 214.266941 
L 579.914081 207.296058 
L 581.36426 205.816386 
L 582.814439 207.26066 
L 584.264619 210.575771 
L 585.714798 213.565048 
L 587.164977 214.383908 
L 588.615157 212.182328 
L 590.065336 207.239965 
L 591.515515 201.243837 
L 592.965695 196.920233 
L 594.415874 196.431726 
L 595.866053 199.880378 
L 598.766412 210.995744 
L 600.216591 215.15485 
L 601.666771 217.981893 
L 606.017309 224.658278 
L 607.467488 225.515425 
L 608.917667 224.684063 
L 611.818026 220.825938 
L 613.268205 219.756957 
L 614.718385 219.692758 
L 616.168564 220.33536 
L 617.618743 221.12683 
L 619.068923 221.459192 
L 620.519102 220.994251 
L 621.969281 219.779033 
L 623.41946 217.90967 
L 624.86964 215.265536 
L 627.769998 208.823851 
L 629.220178 207.520661 
L 630.670357 208.79032 
L 633.570716 214.84069 
L 635.020895 216.875508 
L 636.471074 217.770743 
L 636.471074 217.770743 
" clip-path="url(#p9fb2112e4a)" style="fill: none; stroke: #d62728; stroke-width: 2; stroke-linecap: square"/>
   </g>
   <g id="line2d_28">
    <path d="M 405.892562 218.368233 
L 458.099018 218.314038 
L 459.549197 218.093009 
L 460.999376 217.279702 
L 462.449556 215.015322 
L 463.899735 210.325017 
L 466.800094 196.504505 
L 468.250273 193.593383 
L 469.700452 196.504505 
L 472.600811 210.28892 
L 474.05099 214.832005 
L 475.501169 216.554673 
L 476.951349 215.832267 
L 478.401528 212.777469 
L 479.851707 207.440706 
L 481.301887 200.204553 
L 482.752066 190.774544 
L 484.202245 177.197069 
L 487.102604 140.681381 
L 488.552783 134.174845 
L 490.002963 145.313633 
L 492.903321 191.723574 
L 494.353501 207.270598 
L 495.80368 214.767156 
L 497.253859 217.457738 
L 498.704039 218.188946 
L 500.154218 218.340738 
L 507.405115 218.368233 
L 565.412288 218.411976 
L 566.862467 218.590378 
L 568.312646 219.246832 
L 569.762826 221.074509 
L 571.213005 224.860252 
L 574.113363 236.015371 
L 575.563543 238.36506 
L 577.013722 236.015371 
L 579.914081 224.860252 
L 581.36426 221.074509 
L 582.814439 219.246832 
L 584.264619 218.590378 
L 585.714798 218.411976 
L 591.515515 218.368233 
L 603.11695 218.461015 
L 604.567129 218.735194 
L 606.017309 219.498553 
L 607.467488 221.079729 
L 610.367847 225.738844 
L 611.818026 226.720229 
L 613.268205 225.738229 
L 616.168564 221.059358 
L 617.618743 219.417982 
L 619.068923 218.48702 
L 621.969281 217.274265 
L 623.41946 216.752739 
L 624.86964 216.534463 
L 626.319819 216.749937 
L 629.220178 217.772895 
L 630.670357 218.120059 
L 633.570716 218.347862 
L 636.471074 218.367618 
L 636.471074 218.367618 
" clip-path="url(#p9fb2112e4a)" style="fill: none; stroke: #ff7f0e; stroke-width: 2; stroke-linecap: square"/>
   </g>
   <g id="LineCollection_1">
    <path d="M 521.877904 280.297023 
L 521.877904 159.204828 
" clip-path="url(#p9fb2112e4a)" style="fill: none; stroke-dasharray: 7.4,3.2; stroke-dashoffset: 0; stroke: #000000; stroke-width: 2"/>
    <path d="M 536.379697 280.297023 
L 536.379697 159.204828 
" clip-path="url(#p9fb2112e4a)" style="fill: none; stroke-dasharray: 7.4,3.2; stroke-dashoffset: 0; stroke: #000000; stroke-width: 2"/>
    <path d="M 565.383284 280.297023 
L 565.383284 159.204828 
" clip-path="url(#p9fb2112e4a)" style="fill: none; stroke-dasharray: 7.4,3.2; stroke-dashoffset: 0; stroke: #000000; stroke-width: 2"/>
    <path d="M 623.390457 280.297023 
L 623.390457 159.204828 
" clip-path="url(#p9fb2112e4a)" style="fill: none; stroke-dasharray: 7.4,3.2; stroke-dashoffset: 0; stroke: #000000; stroke-width: 2"/>
   </g>
   <g id="patch_8">
    <path d="M 394.363636 333.490909 
L 394.363636 86.4 
" style="fill: none; stroke: #000000; stroke-width: 0.8; stroke-linejoin: miter; stroke-linecap: square"/>
   </g>
   <g id="patch_9">
    <path d="M 648 333.490909 
L 648 86.4 
" style="fill: none; stroke: #000000; stroke-width: 0.8; stroke-linejoin: miter; stroke-linecap: square"/>
   </g>
   <g id="patch_10">
    <path d="M 394.363636 333.490909 
L 648 333.490909 
" style="fill: none; stroke: #000000; stroke-width: 0.8; stroke-linejoin: miter; stroke-linecap: square"/>
   </g>
   <g id="patch_11">
    <path d="M 394.363636 86.4 
L 648 86.4 
" style="fill: none; stroke: #000000; stroke-width: 0.8; stroke-linejoin: miter; stroke-linecap: square"/>
   </g>
   <g id="text_25">
    <!-- unit_105 -->
    <g transform="translate(495.105256 80.4)scale(0.12 -0.12)">
     <defs>
      <path id="DejaVuSans-75" d="M 544 1381 
L 544 3500 
L 1119 3500 
L 1119 1403 
Q 1119 906 1312 657 
Q 1506 409 1894 409 
Q 2359 409 2629 706 
Q 2900 1003 2900 1516 
L 2900 3500 
L 3475 3500 
L 3475 0 
L 2900 0 
L 2900 538 
Q 2691 219 2414 64 
Q 2138 -91 1772 -91 
Q 1169 -91 856 284 
Q 544 659 544 1381 
z
M 1991 3584 
L 1991 3584 
z
" transform="scale(0.015625)"/>
      <path id="DejaVuSans-6e" d="M 3513 2113 
L 3513 0 
L 2938 0 
L 2938 2094 
Q 2938 2591 2744 2837 
Q 2550 3084 2163 3084 
Q 1697 3084 1428 2787 
Q 1159 2491 1159 1978 
L 1159 0 
L 581 0 
L 581 3500 
L 1159 3500 
L 1159 2956 
Q 1366 3272 1645 3428 
Q 1925 3584 2291 3584 
Q 2894 3584 3203 3211 
Q 3513 2838 3513 2113 
z
" transform="scale(0.015625)"/>
      <path id="DejaVuSans-69" d="M 603 3500 
L 1178 3500 
L 1178 0 
L 603 0 
L 603 3500 
z
M 603 4863 
L 1178 4863 
L 1178 4134 
L 603 4134 
L 603 4863 
z
" transform="scale(0.015625)"/>
      <path id="DejaVuSans-74" d="M 1172 4494 
L 1172 3500 
L 2356 3500 
L 2356 3053 
L 1172 3053 
L 1172 1153 
Q 1172 725 1289 603 
Q 1406 481 1766 481 
L 2356 481 
L 2356 0 
L 1766 0 
Q 1100 0 847 248 
Q 594 497 594 1153 
L 594 3053 
L 172 3053 
L 172 3500 
L 594 3500 
L 594 4494 
L 1172 4494 
z
" transform="scale(0.015625)"/>
      <path id="DejaVuSans-5f" d="M 3263 -1063 
L 3263 -1509 
L -63 -1509 
L -63 -1063 
L 3263 -1063 
z
" transform="scale(0.015625)"/>
     </defs>
     <use xlink:href="#DejaVuSans-75"/>
     <use xlink:href="#DejaVuSans-6e" x="63.378906"/>
     <use xlink:href="#DejaVuSans-69" x="126.757812"/>
     <use xlink:href="#DejaVuSans-74" x="154.541016"/>
     <use xlink:href="#DejaVuSans-5f" x="193.75"/>
     <use xlink:href="#DejaVuSans-31" x="243.75"/>
     <use xlink:href="#DejaVuSans-30" x="307.373047"/>
     <use xlink:href="#DejaVuSans-35" x="370.996094"/>
    </g>
   </g>
  </g>
  <g id="axes_3">
   <g id="patch_12">
    <path d="M 90 630 
L 343.636364 630 
L 343.636364 382.909091 
L 90 382.909091 
z
" style="fill: #ffffff"/>
   </g>
   <g id="matplotlib.axis_5">
    <g id="xtick_12">
     <g id="line2d_29">
      <g>
       <use xlink:href="#me3ac9b9b11" x="90" y="630" style="stroke: #000000; stroke-width: 0.8"/>
      </g>
     </g>
     <g id="text_26">
      <!-- 0.0 -->
      <g transform="translate(82.048438 644.598437)scale(0.1 -0.1)">
       <use xlink:href="#DejaVuSans-30"/>
       <use xlink:href="#DejaVuSans-2e" x="63.623047"/>
       <use xlink:href="#DejaVuSans-30" x="95.410156"/>
      </g>
     </g>
    </g>
    <g id="xtick_13">
     <g id="line2d_30">
      <g>
       <use xlink:href="#me3ac9b9b11" x="140.727273" y="630" style="stroke: #000000; stroke-width: 0.8"/>
      </g>
     </g>
     <g id="text_27">
      <!-- 0.2 -->
      <g transform="translate(132.77571 644.598437)scale(0.1 -0.1)">
       <use xlink:href="#DejaVuSans-30"/>
       <use xlink:href="#DejaVuSans-2e" x="63.623047"/>
       <use xlink:href="#DejaVuSans-32" x="95.410156"/>
      </g>
     </g>
    </g>
    <g id="xtick_14">
     <g id="line2d_31">
      <g>
       <use xlink:href="#me3ac9b9b11" x="191.454545" y="630" style="stroke: #000000; stroke-width: 0.8"/>
      </g>
     </g>
     <g id="text_28">
      <!-- 0.4 -->
      <g transform="translate(183.502983 644.598437)scale(0.1 -0.1)">
       <use xlink:href="#DejaVuSans-30"/>
       <use xlink:href="#DejaVuSans-2e" x="63.623047"/>
       <use xlink:href="#DejaVuSans-34" x="95.410156"/>
      </g>
     </g>
    </g>
    <g id="xtick_15">
     <g id="line2d_32">
      <g>
       <use xlink:href="#me3ac9b9b11" x="242.181818" y="630" style="stroke: #000000; stroke-width: 0.8"/>
      </g>
     </g>
     <g id="text_29">
      <!-- 0.6 -->
      <g transform="translate(234.230256 644.598437)scale(0.1 -0.1)">
       <use xlink:href="#DejaVuSans-30"/>
       <use xlink:href="#DejaVuSans-2e" x="63.623047"/>
       <use xlink:href="#DejaVuSans-36" x="95.410156"/>
      </g>
     </g>
    </g>
    <g id="xtick_16">
     <g id="line2d_33">
      <g>
       <use xlink:href="#me3ac9b9b11" x="292.909091" y="630" style="stroke: #000000; stroke-width: 0.8"/>
      </g>
     </g>
     <g id="text_30">
      <!-- 0.8 -->
      <g transform="translate(284.957528 644.598437)scale(0.1 -0.1)">
       <use xlink:href="#DejaVuSans-30"/>
       <use xlink:href="#DejaVuSans-2e" x="63.623047"/>
       <use xlink:href="#DejaVuSans-38" x="95.410156"/>
      </g>
     </g>
    </g>
    <g id="xtick_17">
     <g id="line2d_34">
      <g>
       <use xlink:href="#me3ac9b9b11" x="343.636364" y="630" style="stroke: #000000; stroke-width: 0.8"/>
      </g>
     </g>
     <g id="text_31">
      <!-- 1.0 -->
      <g transform="translate(335.684801 644.598437)scale(0.1 -0.1)">
       <use xlink:href="#DejaVuSans-31"/>
       <use xlink:href="#DejaVuSans-2e" x="63.623047"/>
       <use xlink:href="#DejaVuSans-30" x="95.410156"/>
      </g>
     </g>
    </g>
   </g>
   <g id="matplotlib.axis_6">
    <g id="ytick_14">
     <g id="line2d_35">
      <g>
       <use xlink:href="#m5f7f733117" x="90" y="630" style="stroke: #000000; stroke-width: 0.8"/>
      </g>
     </g>
     <g id="text_32">
      <!-- 0.0 -->
      <g transform="translate(67.096875 633.799219)scale(0.1 -0.1)">
       <use xlink:href="#DejaVuSans-30"/>
       <use xlink:href="#DejaVuSans-2e" x="63.623047"/>
       <use xlink:href="#DejaVuSans-30" x="95.410156"/>
      </g>
     </g>
    </g>
    <g id="ytick_15">
     <g id="line2d_36">
      <g>
       <use xlink:href="#m5f7f733117" x="90" y="580.581818" style="stroke: #000000; stroke-width: 0.8"/>
      </g>
     </g>
     <g id="text_33">
      <!-- 0.2 -->
      <g transform="translate(67.096875 584.381037)scale(0.1 -0.1)">
       <use xlink:href="#DejaVuSans-30"/>
       <use xlink:href="#DejaVuSans-2e" x="63.623047"/>
       <use xlink:href="#DejaVuSans-32" x="95.410156"/>
      </g>
     </g>
    </g>
    <g id="ytick_16">
     <g id="line2d_37">
      <g>
       <use xlink:href="#m5f7f733117" x="90" y="531.163636" style="stroke: #000000; stroke-width: 0.8"/>
      </g>
     </g>
     <g id="text_34">
      <!-- 0.4 -->
      <g transform="translate(67.096875 534.962855)scale(0.1 -0.1)">
       <use xlink:href="#DejaVuSans-30"/>
       <use xlink:href="#DejaVuSans-2e" x="63.623047"/>
       <use xlink:href="#DejaVuSans-34" x="95.410156"/>
      </g>
     </g>
    </g>
    <g id="ytick_17">
     <g id="line2d_38">
      <g>
       <use xlink:href="#m5f7f733117" x="90" y="481.745455" style="stroke: #000000; stroke-width: 0.8"/>
      </g>
     </g>
     <g id="text_35">
      <!-- 0.6 -->
      <g transform="translate(67.096875 485.544673)scale(0.1 -0.1)">
       <use xlink:href="#DejaVuSans-30"/>
       <use xlink:href="#DejaVuSans-2e" x="63.623047"/>
       <use xlink:href="#DejaVuSans-36" x="95.410156"/>
      </g>
     </g>
    </g>
    <g id="ytick_18">
     <g id="line2d_39">
      <g>
       <use xlink:href="#m5f7f733117" x="90" y="432.327273" style="stroke: #000000; stroke-width: 0.8"/>
      </g>
     </g>
     <g id="text_36">
      <!-- 0.8 -->
      <g transform="translate(67.096875 436.126491)scale(0.1 -0.1)">
       <use xlink:href="#DejaVuSans-30"/>
       <use xlink:href="#DejaVuSans-2e" x="63.623047"/>
       <use xlink:href="#DejaVuSans-38" x="95.410156"/>
      </g>
     </g>
    </g>
    <g id="ytick_19">
     <g id="line2d_40">
      <g>
       <use xlink:href="#m5f7f733117" x="90" y="382.909091" style="stroke: #000000; stroke-width: 0.8"/>
      </g>
     </g>
     <g id="text_37">
      <!-- 1.0 -->
      <g transform="translate(67.096875 386.70831)scale(0.1 -0.1)">
       <use xlink:href="#DejaVuSans-31"/>
       <use xlink:href="#DejaVuSans-2e" x="63.623047"/>
       <use xlink:href="#DejaVuSans-30" x="95.410156"/>
      </g>
     </g>
    </g>
   </g>
   <g id="patch_13">
    <path d="M 90 630 
L 90 382.909091 
" style="fill: none; stroke: #000000; stroke-width: 0.8; stroke-linejoin: miter; stroke-linecap: square"/>
   </g>
   <g id="patch_14">
    <path d="M 343.636364 630 
L 343.636364 382.909091 
" style="fill: none; stroke: #000000; stroke-width: 0.8; stroke-linejoin: miter; stroke-linecap: square"/>
   </g>
   <g id="patch_15">
    <path d="M 90 630 
L 343.636364 630 
" style="fill: none; stroke: #000000; stroke-width: 0.8; stroke-linejoin: miter; stroke-linecap: square"/>
   </g>
   <g id="patch_16">
    <path d="M 90 382.909091 
L 343.636364 382.909091 
" style="fill: none; stroke: #000000; stroke-width: 0.8; stroke-linejoin: miter; stroke-linecap: square"/>
   </g>
  </g>
  <g id="axes_4">
   <g id="patch_17">
    <path d="M 394.363636 630 
L 648 630 
L 648 382.909091 
L 394.363636 382.909091 
z
" style="fill: #ffffff"/>
   </g>
   <g id="matplotlib.axis_7">
    <g id="xtick_18">
     <g id="line2d_41">
      <g>
       <use xlink:href="#me3ac9b9b11" x="405.863558" y="630" style="stroke: #000000; stroke-width: 0.8"/>
      </g>
     </g>
     <g id="text_38">
      <!-- 0 -->
      <g transform="translate(402.682308 644.598437)scale(0.1 -0.1)">
       <use xlink:href="#DejaVuSans-30"/>
      </g>
     </g>
    </g>
    <g id="xtick_19">
     <g id="line2d_42">
      <g>
       <use xlink:href="#me3ac9b9b11" x="463.870731" y="630" style="stroke: #000000; stroke-width: 0.8"/>
      </g>
     </g>
     <g id="text_39">
      <!-- 2000 -->
      <g transform="translate(451.145731 644.598437)scale(0.1 -0.1)">
       <use xlink:href="#DejaVuSans-32"/>
       <use xlink:href="#DejaVuSans-30" x="63.623047"/>
       <use xlink:href="#DejaVuSans-30" x="127.246094"/>
       <use xlink:href="#DejaVuSans-30" x="190.869141"/>
      </g>
     </g>
    </g>
    <g id="xtick_20">
     <g id="line2d_43">
      <g>
       <use xlink:href="#me3ac9b9b11" x="521.877904" y="630" style="stroke: #000000; stroke-width: 0.8"/>
      </g>
     </g>
     <g id="text_40">
      <!-- 4000 -->
      <g transform="translate(509.152904 644.598437)scale(0.1 -0.1)">
       <use xlink:href="#DejaVuSans-34"/>
       <use xlink:href="#DejaVuSans-30" x="63.623047"/>
       <use xlink:href="#DejaVuSans-30" x="127.246094"/>
       <use xlink:href="#DejaVuSans-30" x="190.869141"/>
      </g>
     </g>
    </g>
    <g id="xtick_21">
     <g id="line2d_44">
      <g>
       <use xlink:href="#me3ac9b9b11" x="579.885077" y="630" style="stroke: #000000; stroke-width: 0.8"/>
      </g>
     </g>
     <g id="text_41">
      <!-- 6000 -->
      <g transform="translate(567.160077 644.598437)scale(0.1 -0.1)">
       <use xlink:href="#DejaVuSans-36"/>
       <use xlink:href="#DejaVuSans-30" x="63.623047"/>
       <use xlink:href="#DejaVuSans-30" x="127.246094"/>
       <use xlink:href="#DejaVuSans-30" x="190.869141"/>
      </g>
     </g>
    </g>
    <g id="xtick_22">
     <g id="line2d_45">
      <g>
       <use xlink:href="#me3ac9b9b11" x="637.89225" y="630" style="stroke: #000000; stroke-width: 0.8"/>
      </g>
     </g>
     <g id="text_42">
      <!-- 8000 -->
      <g transform="translate(625.16725 644.598437)scale(0.1 -0.1)">
       <use xlink:href="#DejaVuSans-38"/>
       <use xlink:href="#DejaVuSans-30" x="63.623047"/>
       <use xlink:href="#DejaVuSans-30" x="127.246094"/>
       <use xlink:href="#DejaVuSans-30" x="190.869141"/>
      </g>
     </g>
    </g>
   </g>
   <g id="matplotlib.axis_8">
    <g id="ytick_20">
     <g id="line2d_46">
      <g>
       <use xlink:href="#m5f7f733117" x="394.363636" y="630" style="stroke: #000000; stroke-width: 0.8"/>
      </g>
     </g>
     <g id="text_43">
      <!-- −2 -->
      <g transform="translate(372.621449 633.799219)scale(0.1 -0.1)">
       <use xlink:href="#DejaVuSans-2212"/>
       <use xlink:href="#DejaVuSans-32" x="83.789062"/>
      </g>
     </g>
    </g>
    <g id="ytick_21">
     <g id="line2d_47">
      <g>
       <use xlink:href="#m5f7f733117" x="394.363636" y="575.92575" style="stroke: #000000; stroke-width: 0.8"/>
      </g>
     </g>
     <g id="text_44">
      <!-- 0 -->
      <g transform="translate(381.001136 579.724969)scale(0.1 -0.1)">
       <use xlink:href="#DejaVuSans-30"/>
      </g>
     </g>
    </g>
    <g id="ytick_22">
     <g id="line2d_48">
      <g>
       <use xlink:href="#m5f7f733117" x="394.363636" y="521.8515" style="stroke: #000000; stroke-width: 0.8"/>
      </g>
     </g>
     <g id="text_45">
      <!-- 2 -->
      <g transform="translate(381.001136 525.650719)scale(0.1 -0.1)">
       <use xlink:href="#DejaVuSans-32"/>
      </g>
     </g>
    </g>
    <g id="ytick_23">
     <g id="line2d_49">
      <g>
       <use xlink:href="#m5f7f733117" x="394.363636" y="467.777251" style="stroke: #000000; stroke-width: 0.8"/>
      </g>
     </g>
     <g id="text_46">
      <!-- 4 -->
      <g transform="translate(381.001136 471.576469)scale(0.1 -0.1)">
       <use xlink:href="#DejaVuSans-34"/>
      </g>
     </g>
    </g>
    <g id="ytick_24">
     <g id="line2d_50">
      <g>
       <use xlink:href="#m5f7f733117" x="394.363636" y="413.703001" style="stroke: #000000; stroke-width: 0.8"/>
      </g>
     </g>
     <g id="text_47">
      <!-- 6 -->
      <g transform="translate(381.001136 417.502219)scale(0.1 -0.1)">
       <use xlink:href="#DejaVuSans-36"/>
      </g>
     </g>
    </g>
   </g>
   <g id="line2d_51">
    <path d="M 405.892562 566.857228 
L 407.342741 562.647629 
L 408.792921 568.318564 
L 410.2431 577.815042 
L 411.693279 575.599614 
L 413.143459 556.138744 
L 414.593638 519.852195 
L 416.043817 448.03258 
L 417.493997 382.909091 
L 418.944176 441.201252 
L 420.394355 528.147824 
L 421.844535 562.325376 
L 423.294714 556.257728 
L 424.744893 539.821007 
L 426.195073 555.102816 
L 427.645252 582.000538 
L 429.095431 586.79572 
L 431.99579 557.590827 
L 433.445969 554.845256 
L 434.896148 566.068739 
L 436.346328 588.746062 
L 437.796507 589.227224 
L 439.246686 578.159991 
L 440.696866 572.123003 
L 442.147045 571.06495 
L 443.597224 581.322012 
L 445.047404 601.54265 
L 446.497583 611.495875 
L 447.947762 599.707139 
L 449.397942 592.163326 
L 450.848121 603.443446 
L 452.2983 616.240992 
L 453.74848 604.470034 
L 455.198659 590.664528 
L 458.099018 585.948712 
L 459.549197 580.848159 
L 460.999376 578.814564 
L 462.449556 578.641118 
L 463.899735 576.487255 
L 465.349914 583.027981 
L 466.800094 594.370239 
L 468.250273 597.988434 
L 469.700452 607.839808 
L 471.150632 606.309365 
L 472.600811 589.417471 
L 474.05099 567.682159 
L 475.501169 567.19587 
L 476.951349 577.798885 
L 478.401528 581.348965 
L 479.851707 578.982826 
L 481.301887 577.93309 
L 482.752066 584.361541 
L 484.202245 592.226048 
L 485.652425 589.346711 
L 487.102604 588.262374 
L 488.552783 591.51501 
L 490.002963 585.523954 
L 491.453142 574.29831 
L 492.903321 570.447224 
L 494.353501 596.754229 
L 495.80368 642.12489 
L 497.253859 634.460576 
L 498.704039 569.709232 
L 500.154218 551.660153 
L 501.604397 570.672238 
L 503.054577 577.659333 
L 504.504756 556.822323 
L 505.954935 540.362069 
L 508.855294 587.458758 
L 510.305473 585.38664 
L 511.755653 577.523436 
L 513.205832 576.478811 
L 514.656011 582.444893 
L 516.106191 587.745857 
L 517.55637 583.093109 
L 519.006549 576.477015 
L 520.456729 571.962802 
L 521.906908 572.372449 
L 523.357087 579.170826 
L 524.807266 580.144192 
L 526.257446 577.183554 
L 527.707625 576.069441 
L 529.157804 575.981599 
L 530.607984 576.527937 
L 532.058163 578.87787 
L 533.508342 583.768384 
L 534.958522 592.5364 
L 536.408701 592.510177 
L 537.85888 573.762163 
L 539.30906 566.647105 
L 540.759239 570.628551 
L 542.209418 573.850329 
L 543.659598 576.117104 
L 545.109777 583.588043 
L 546.559956 611.973251 
L 548.010136 642.837152 
L 549.460315 631.759456 
L 550.910494 603.981403 
L 552.360674 583.217238 
L 553.810853 568.518246 
L 555.261032 573.993239 
L 556.711212 586.013546 
L 558.161391 586.480764 
L 559.61157 582.45613 
L 561.06175 587.417704 
L 562.511929 609.474354 
L 563.962108 628.287021 
L 565.412288 619.345119 
L 566.862467 601.783946 
L 568.312646 585.784443 
L 569.762826 583.956384 
L 572.663184 636.891524 
L 574.113363 625.627564 
L 577.013722 592.036913 
L 578.463901 581.024874 
L 579.914081 583.018441 
L 581.36426 584.4919 
L 582.814439 577.360657 
L 584.264619 576.813411 
L 585.714798 580.590056 
L 587.164977 579.523933 
L 588.615157 580.800772 
L 590.065336 590.194123 
L 591.515515 602.139537 
L 592.965695 604.043855 
L 594.415874 601.779721 
L 595.866053 605.066722 
L 597.316233 602.754263 
L 598.766412 594.503278 
L 600.216591 591.787509 
L 601.666771 594.036645 
L 603.11695 596.520974 
L 604.567129 628.524316 
L 606.017309 670.732386 
L 607.467488 652.998045 
L 608.917667 606.863147 
L 610.367847 580.062792 
L 611.818026 570.379237 
L 613.268205 575.353162 
L 614.718385 577.6639 
L 616.168564 572.698334 
L 617.618743 569.785504 
L 619.068923 577.224995 
L 620.519102 588.106191 
L 621.969281 592.88668 
L 623.41946 589.749105 
L 624.86964 566.810207 
L 626.319819 554.470259 
L 627.769998 576.652784 
L 629.220178 592.53731 
L 630.670357 601.420164 
L 632.120536 612.129694 
L 633.570716 612.88983 
L 635.020895 603.446867 
L 636.471074 592.019596 
L 636.471074 592.019596 
" clip-path="url(#p24c0378107)" style="fill: none; stroke: #1f77b4; stroke-width: 1.5; stroke-linecap: square"/>
   </g>
   <g id="patch_18">
    <path d="M 394.363636 630 
L 394.363636 382.909091 
" style="fill: none; stroke: #000000; stroke-width: 0.8; stroke-linejoin: miter; stroke-linecap: square"/>
   </g>
   <g id="patch_19">
    <path d="M 648 630 
L 648 382.909091 
" style="fill: none; stroke: #000000; stroke-width: 0.8; stroke-linejoin: miter; stroke-linecap: square"/>
   </g>
   <g id="patch_20">
    <path d="M 394.363636 630 
L 648 630 
" style="fill: none; stroke: #000000; stroke-width: 0.8; stroke-linejoin: miter; stroke-linecap: square"/>
   </g>
   <g id="patch_21">
    <path d="M 394.363636 382.909091 
L 648 382.909091 
" style="fill: none; stroke: #000000; stroke-width: 0.8; stroke-linejoin: miter; stroke-linecap: square"/>
   </g>
   <g id="text_48">
    <!-- explained variance -->
    <g transform="translate(464.181818 376.909091)scale(0.12 -0.12)">
     <defs>
      <path id="DejaVuSans-65" d="M 3597 1894 
L 3597 1613 
L 953 1613 
Q 991 1019 1311 708 
Q 1631 397 2203 397 
Q 2534 397 2845 478 
Q 3156 559 3463 722 
L 3463 178 
Q 3153 47 2828 -22 
Q 2503 -91 2169 -91 
Q 1331 -91 842 396 
Q 353 884 353 1716 
Q 353 2575 817 3079 
Q 1281 3584 2069 3584 
Q 2775 3584 3186 3129 
Q 3597 2675 3597 1894 
z
M 3022 2063 
Q 3016 2534 2758 2815 
Q 2500 3097 2075 3097 
Q 1594 3097 1305 2825 
Q 1016 2553 972 2059 
L 3022 2063 
z
" transform="scale(0.015625)"/>
      <path id="DejaVuSans-78" d="M 3513 3500 
L 2247 1797 
L 3578 0 
L 2900 0 
L 1881 1375 
L 863 0 
L 184 0 
L 1544 1831 
L 300 3500 
L 978 3500 
L 1906 2253 
L 2834 3500 
L 3513 3500 
z
" transform="scale(0.015625)"/>
      <path id="DejaVuSans-70" d="M 1159 525 
L 1159 -1331 
L 581 -1331 
L 581 3500 
L 1159 3500 
L 1159 2969 
Q 1341 3281 1617 3432 
Q 1894 3584 2278 3584 
Q 2916 3584 3314 3078 
Q 3713 2572 3713 1747 
Q 3713 922 3314 415 
Q 2916 -91 2278 -91 
Q 1894 -91 1617 61 
Q 1341 213 1159 525 
z
M 3116 1747 
Q 3116 2381 2855 2742 
Q 2594 3103 2138 3103 
Q 1681 3103 1420 2742 
Q 1159 2381 1159 1747 
Q 1159 1113 1420 752 
Q 1681 391 2138 391 
Q 2594 391 2855 752 
Q 3116 1113 3116 1747 
z
" transform="scale(0.015625)"/>
      <path id="DejaVuSans-6c" d="M 603 4863 
L 1178 4863 
L 1178 0 
L 603 0 
L 603 4863 
z
" transform="scale(0.015625)"/>
      <path id="DejaVuSans-61" d="M 2194 1759 
Q 1497 1759 1228 1600 
Q 959 1441 959 1056 
Q 959 750 1161 570 
Q 1363 391 1709 391 
Q 2188 391 2477 730 
Q 2766 1069 2766 1631 
L 2766 1759 
L 2194 1759 
z
M 3341 1997 
L 3341 0 
L 2766 0 
L 2766 531 
Q 2569 213 2275 61 
Q 1981 -91 1556 -91 
Q 1019 -91 701 211 
Q 384 513 384 1019 
Q 384 1609 779 1909 
Q 1175 2209 1959 2209 
L 2766 2209 
L 2766 2266 
Q 2766 2663 2505 2880 
Q 2244 3097 1772 3097 
Q 1472 3097 1187 3025 
Q 903 2953 641 2809 
L 641 3341 
Q 956 3463 1253 3523 
Q 1550 3584 1831 3584 
Q 2591 3584 2966 3190 
Q 3341 2797 3341 1997 
z
" transform="scale(0.015625)"/>
      <path id="DejaVuSans-64" d="M 2906 2969 
L 2906 4863 
L 3481 4863 
L 3481 0 
L 2906 0 
L 2906 525 
Q 2725 213 2448 61 
Q 2172 -91 1784 -91 
Q 1150 -91 751 415 
Q 353 922 353 1747 
Q 353 2572 751 3078 
Q 1150 3584 1784 3584 
Q 2172 3584 2448 3432 
Q 2725 3281 2906 2969 
z
M 947 1747 
Q 947 1113 1208 752 
Q 1469 391 1925 391 
Q 2381 391 2643 752 
Q 2906 1113 2906 1747 
Q 2906 2381 2643 2742 
Q 2381 3103 1925 3103 
Q 1469 3103 1208 2742 
Q 947 2381 947 1747 
z
" transform="scale(0.015625)"/>
      <path id="DejaVuSans-20" transform="scale(0.015625)"/>
      <path id="DejaVuSans-76" d="M 191 3500 
L 800 3500 
L 1894 563 
L 2988 3500 
L 3597 3500 
L 2284 0 
L 1503 0 
L 191 3500 
z
" transform="scale(0.015625)"/>
      <path id="DejaVuSans-72" d="M 2631 2963 
Q 2534 3019 2420 3045 
Q 2306 3072 2169 3072 
Q 1681 3072 1420 2755 
Q 1159 2438 1159 1844 
L 1159 0 
L 581 0 
L 581 3500 
L 1159 3500 
L 1159 2956 
Q 1341 3275 1631 3429 
Q 1922 3584 2338 3584 
Q 2397 3584 2469 3576 
Q 2541 3569 2628 3553 
L 2631 2963 
z
" transform="scale(0.015625)"/>
      <path id="DejaVuSans-63" d="M 3122 3366 
L 3122 2828 
Q 2878 2963 2633 3030 
Q 2388 3097 2138 3097 
Q 1578 3097 1268 2742 
Q 959 2388 959 1747 
Q 959 1106 1268 751 
Q 1578 397 2138 397 
Q 2388 397 2633 464 
Q 2878 531 3122 666 
L 3122 134 
Q 2881 22 2623 -34 
Q 2366 -91 2075 -91 
Q 1284 -91 818 406 
Q 353 903 353 1747 
Q 353 2603 823 3093 
Q 1294 3584 2113 3584 
Q 2378 3584 2631 3529 
Q 2884 3475 3122 3366 
z
" transform="scale(0.015625)"/>
     </defs>
     <use xlink:href="#DejaVuSans-65"/>
     <use xlink:href="#DejaVuSans-78" x="59.773438"/>
     <use xlink:href="#DejaVuSans-70" x="118.953125"/>
     <use xlink:href="#DejaVuSans-6c" x="182.429688"/>
     <use xlink:href="#DejaVuSans-61" x="210.212891"/>
     <use xlink:href="#DejaVuSans-69" x="271.492188"/>
     <use xlink:href="#DejaVuSans-6e" x="299.275391"/>
     <use xlink:href="#DejaVuSans-65" x="362.654297"/>
     <use xlink:href="#DejaVuSans-64" x="424.177734"/>
     <use xlink:href="#DejaVuSans-20" x="487.654297"/>
     <use xlink:href="#DejaVuSans-76" x="519.441406"/>
     <use xlink:href="#DejaVuSans-61" x="578.621094"/>
     <use xlink:href="#DejaVuSans-72" x="639.900391"/>
     <use xlink:href="#DejaVuSans-69" x="681.013672"/>
     <use xlink:href="#DejaVuSans-61" x="708.796875"/>
     <use xlink:href="#DejaVuSans-6e" x="770.076172"/>
     <use xlink:href="#DejaVuSans-63" x="833.455078"/>
     <use xlink:href="#DejaVuSans-65" x="888.435547"/>
    </g>
   </g>
  </g>
 </g>
 <defs>
  <clipPath id="p9fb2112e4a">
   <rect x="394.363636" y="86.4" width="253.636364" height="247.090909"/>
  </clipPath>
  <clipPath id="p24c0378107">
   <rect x="394.363636" y="382.909091" width="253.636364" height="247.090909"/>
  </clipPath>
 </defs>
</svg>
