<?xml version="1.0" encoding="utf-8" standalone="no"?>
<!DOCTYPE svg PUBLIC "-//W3C//DTD SVG 1.1//EN"
  "http://www.w3.org/Graphics/SVG/1.1/DTD/svg11.dtd">
<svg xmlns:xlink="http://www.w3.org/1999/xlink" width="720pt" height="720pt" viewBox="0 0 720 720" xmlns="http://www.w3.org/2000/svg" version="1.1">
 <metadata>
  <rdf:RDF xmlns:dc="http://purl.org/dc/elements/1.1/" xmlns:cc="http://creativecommons.org/ns#" xmlns:rdf="http://www.w3.org/1999/02/22-rdf-syntax-ns#">
   <cc:Work>
    <dc:type rdf:resource="http://purl.org/dc/dcmitype/StillImage"/>
    <dc:date>2023-06-14T13:26:49.858779</dc:date>
    <dc:format>image/svg+xml</dc:format>
    <dc:creator>
     <cc:Agent>
      <dc:title>Matplotlib v3.5.2, https://matplotlib.org/</dc:title>
     </cc:Agent>
    </dc:creator>
   </cc:Work>
  </rdf:RDF>
 </metadata>
 <defs>
  <style type="text/css">*{stroke-linejoin: round; stroke-linecap: butt}</style>
 </defs>
 <g id="figure_1">
  <g id="patch_1">
   <path d="M 0 720 
L 720 720 
L 720 0 
L 0 0 
z
" style="fill: #ffffff"/>
  </g>
  <g id="axes_1">
   <g id="patch_2">
    <path d="M 90 333.490909 
L 343.636364 333.490909 
L 343.636364 86.4 
L 90 86.4 
z
" style="fill: #ffffff"/>
   </g>
   <g id="matplotlib.axis_1">
    <g id="xtick_1">
     <g id="line2d_1">
      <defs>
       <path id="m0c5ad1f71d" d="M 0 0 
L 0 3.5 
" style="stroke: #000000; stroke-width: 0.8"/>
      </defs>
      <g>
       <use xlink:href="#m0c5ad1f71d" x="101.499922" y="333.490909" style="stroke: #000000; stroke-width: 0.8"/>
      </g>
     </g>
     <g id="text_1">
      <!-- 0 -->
      <g transform="translate(98.318672 348.089347)scale(0.1 -0.1)">
       <defs>
        <path id="DejaVuSans-30" d="M 2034 4250 
Q 1547 4250 1301 3770 
Q 1056 3291 1056 2328 
Q 1056 1369 1301 889 
Q 1547 409 2034 409 
Q 2525 409 2770 889 
Q 3016 1369 3016 2328 
Q 3016 3291 2770 3770 
Q 2525 4250 2034 4250 
z
M 2034 4750 
Q 2819 4750 3233 4129 
Q 3647 3509 3647 2328 
Q 3647 1150 3233 529 
Q 2819 -91 2034 -91 
Q 1250 -91 836 529 
Q 422 1150 422 2328 
Q 422 3509 836 4129 
Q 1250 4750 2034 4750 
z
" transform="scale(0.015625)"/>
       </defs>
       <use xlink:href="#DejaVuSans-30"/>
      </g>
     </g>
    </g>
    <g id="xtick_2">
     <g id="line2d_2">
      <g>
       <use xlink:href="#m0c5ad1f71d" x="159.507095" y="333.490909" style="stroke: #000000; stroke-width: 0.8"/>
      </g>
     </g>
     <g id="text_2">
      <!-- 2000 -->
      <g transform="translate(146.782095 348.089347)scale(0.1 -0.1)">
       <defs>
        <path id="DejaVuSans-32" d="M 1228 531 
L 3431 531 
L 3431 0 
L 469 0 
L 469 531 
Q 828 903 1448 1529 
Q 2069 2156 2228 2338 
Q 2531 2678 2651 2914 
Q 2772 3150 2772 3378 
Q 2772 3750 2511 3984 
Q 2250 4219 1831 4219 
Q 1534 4219 1204 4116 
Q 875 4013 500 3803 
L 500 4441 
Q 881 4594 1212 4672 
Q 1544 4750 1819 4750 
Q 2544 4750 2975 4387 
Q 3406 4025 3406 3419 
Q 3406 3131 3298 2873 
Q 3191 2616 2906 2266 
Q 2828 2175 2409 1742 
Q 1991 1309 1228 531 
z
" transform="scale(0.015625)"/>
       </defs>
       <use xlink:href="#DejaVuSans-32"/>
       <use xlink:href="#DejaVuSans-30" x="63.623047"/>
       <use xlink:href="#DejaVuSans-30" x="127.246094"/>
       <use xlink:href="#DejaVuSans-30" x="190.869141"/>
      </g>
     </g>
    </g>
    <g id="xtick_3">
     <g id="line2d_3">
      <g>
       <use xlink:href="#m0c5ad1f71d" x="217.514268" y="333.490909" style="stroke: #000000; stroke-width: 0.8"/>
      </g>
     </g>
     <g id="text_3">
      <!-- 4000 -->
      <g transform="translate(204.789268 348.089347)scale(0.1 -0.1)">
       <defs>
        <path id="DejaVuSans-34" d="M 2419 4116 
L 825 1625 
L 2419 1625 
L 2419 4116 
z
M 2253 4666 
L 3047 4666 
L 3047 1625 
L 3713 1625 
L 3713 1100 
L 3047 1100 
L 3047 0 
L 2419 0 
L 2419 1100 
L 313 1100 
L 313 1709 
L 2253 4666 
z
" transform="scale(0.015625)"/>
       </defs>
       <use xlink:href="#DejaVuSans-34"/>
       <use xlink:href="#DejaVuSans-30" x="63.623047"/>
       <use xlink:href="#DejaVuSans-30" x="127.246094"/>
       <use xlink:href="#DejaVuSans-30" x="190.869141"/>
      </g>
     </g>
    </g>
    <g id="xtick_4">
     <g id="line2d_4">
      <g>
       <use xlink:href="#m0c5ad1f71d" x="275.521441" y="333.490909" style="stroke: #000000; stroke-width: 0.8"/>
      </g>
     </g>
     <g id="text_4">
      <!-- 6000 -->
      <g transform="translate(262.796441 348.089347)scale(0.1 -0.1)">
       <defs>
        <path id="DejaVuSans-36" d="M 2113 2584 
Q 1688 2584 1439 2293 
Q 1191 2003 1191 1497 
Q 1191 994 1439 701 
Q 1688 409 2113 409 
Q 2538 409 2786 701 
Q 3034 994 3034 1497 
Q 3034 2003 2786 2293 
Q 2538 2584 2113 2584 
z
M 3366 4563 
L 3366 3988 
Q 3128 4100 2886 4159 
Q 2644 4219 2406 4219 
Q 1781 4219 1451 3797 
Q 1122 3375 1075 2522 
Q 1259 2794 1537 2939 
Q 1816 3084 2150 3084 
Q 2853 3084 3261 2657 
Q 3669 2231 3669 1497 
Q 3669 778 3244 343 
Q 2819 -91 2113 -91 
Q 1303 -91 875 529 
Q 447 1150 447 2328 
Q 447 3434 972 4092 
Q 1497 4750 2381 4750 
Q 2619 4750 2861 4703 
Q 3103 4656 3366 4563 
z
" transform="scale(0.015625)"/>
       </defs>
       <use xlink:href="#DejaVuSans-36"/>
       <use xlink:href="#DejaVuSans-30" x="63.623047"/>
       <use xlink:href="#DejaVuSans-30" x="127.246094"/>
       <use xlink:href="#DejaVuSans-30" x="190.869141"/>
      </g>
     </g>
    </g>
    <g id="xtick_5">
     <g id="line2d_5">
      <g>
       <use xlink:href="#m0c5ad1f71d" x="333.528614" y="333.490909" style="stroke: #000000; stroke-width: 0.8"/>
      </g>
     </g>
     <g id="text_5">
      <!-- 8000 -->
      <g transform="translate(320.803614 348.089347)scale(0.1 -0.1)">
       <defs>
        <path id="DejaVuSans-38" d="M 2034 2216 
Q 1584 2216 1326 1975 
Q 1069 1734 1069 1313 
Q 1069 891 1326 650 
Q 1584 409 2034 409 
Q 2484 409 2743 651 
Q 3003 894 3003 1313 
Q 3003 1734 2745 1975 
Q 2488 2216 2034 2216 
z
M 1403 2484 
Q 997 2584 770 2862 
Q 544 3141 544 3541 
Q 544 4100 942 4425 
Q 1341 4750 2034 4750 
Q 2731 4750 3128 4425 
Q 3525 4100 3525 3541 
Q 3525 3141 3298 2862 
Q 3072 2584 2669 2484 
Q 3125 2378 3379 2068 
Q 3634 1759 3634 1313 
Q 3634 634 3220 271 
Q 2806 -91 2034 -91 
Q 1263 -91 848 271 
Q 434 634 434 1313 
Q 434 1759 690 2068 
Q 947 2378 1403 2484 
z
M 1172 3481 
Q 1172 3119 1398 2916 
Q 1625 2713 2034 2713 
Q 2441 2713 2670 2916 
Q 2900 3119 2900 3481 
Q 2900 3844 2670 4047 
Q 2441 4250 2034 4250 
Q 1625 4250 1398 4047 
Q 1172 3844 1172 3481 
z
" transform="scale(0.015625)"/>
       </defs>
       <use xlink:href="#DejaVuSans-38"/>
       <use xlink:href="#DejaVuSans-30" x="63.623047"/>
       <use xlink:href="#DejaVuSans-30" x="127.246094"/>
       <use xlink:href="#DejaVuSans-30" x="190.869141"/>
      </g>
     </g>
    </g>
   </g>
   <g id="matplotlib.axis_2">
    <g id="ytick_1">
     <g id="line2d_6">
      <defs>
       <path id="m9e9510219a" d="M 0 0 
L -3.5 0 
" style="stroke: #000000; stroke-width: 0.8"/>
      </defs>
      <g>
       <use xlink:href="#m9e9510219a" x="90" y="310.049971" style="stroke: #000000; stroke-width: 0.8"/>
      </g>
     </g>
     <g id="text_6">
      <!-- 6 -->
      <g transform="translate(76.6375 313.849189)scale(0.1 -0.1)">
       <use xlink:href="#DejaVuSans-36"/>
      </g>
     </g>
    </g>
    <g id="ytick_2">
     <g id="line2d_7">
      <g>
       <use xlink:href="#m9e9510219a" x="90" y="272.31193" style="stroke: #000000; stroke-width: 0.8"/>
      </g>
     </g>
     <g id="text_7">
      <!-- 8 -->
      <g transform="translate(76.6375 276.111148)scale(0.1 -0.1)">
       <use xlink:href="#DejaVuSans-38"/>
      </g>
     </g>
    </g>
    <g id="ytick_3">
     <g id="line2d_8">
      <g>
       <use xlink:href="#m9e9510219a" x="90" y="234.573889" style="stroke: #000000; stroke-width: 0.8"/>
      </g>
     </g>
     <g id="text_8">
      <!-- 10 -->
      <g transform="translate(70.275 238.373108)scale(0.1 -0.1)">
       <defs>
        <path id="DejaVuSans-31" d="M 794 531 
L 1825 531 
L 1825 4091 
L 703 3866 
L 703 4441 
L 1819 4666 
L 2450 4666 
L 2450 531 
L 3481 531 
L 3481 0 
L 794 0 
L 794 531 
z
" transform="scale(0.015625)"/>
       </defs>
       <use xlink:href="#DejaVuSans-31"/>
       <use xlink:href="#DejaVuSans-30" x="63.623047"/>
      </g>
     </g>
    </g>
    <g id="ytick_4">
     <g id="line2d_9">
      <g>
       <use xlink:href="#m9e9510219a" x="90" y="196.835848" style="stroke: #000000; stroke-width: 0.8"/>
      </g>
     </g>
     <g id="text_9">
      <!-- 12 -->
      <g transform="translate(70.275 200.635067)scale(0.1 -0.1)">
       <use xlink:href="#DejaVuSans-31"/>
       <use xlink:href="#DejaVuSans-32" x="63.623047"/>
      </g>
     </g>
    </g>
    <g id="ytick_5">
     <g id="line2d_10">
      <g>
       <use xlink:href="#m9e9510219a" x="90" y="159.097807" style="stroke: #000000; stroke-width: 0.8"/>
      </g>
     </g>
     <g id="text_10">
      <!-- 14 -->
      <g transform="translate(70.275 162.897026)scale(0.1 -0.1)">
       <use xlink:href="#DejaVuSans-31"/>
       <use xlink:href="#DejaVuSans-34" x="63.623047"/>
      </g>
     </g>
    </g>
    <g id="ytick_6">
     <g id="line2d_11">
      <g>
       <use xlink:href="#m9e9510219a" x="90" y="121.359766" style="stroke: #000000; stroke-width: 0.8"/>
      </g>
     </g>
     <g id="text_11">
      <!-- 16 -->
      <g transform="translate(70.275 125.158985)scale(0.1 -0.1)">
       <use xlink:href="#DejaVuSans-31"/>
       <use xlink:href="#DejaVuSans-36" x="63.623047"/>
      </g>
     </g>
    </g>
   </g>
   <g id="line2d_12">
    <path d="M 101.528926 299.886936 
L 102.979105 300.121938 
L 105.879464 301.027952 
L 107.329643 301.679604 
L 108.779822 302.545937 
L 110.230002 303.665464 
L 114.58054 307.541665 
L 116.030719 308.446766 
L 117.480898 309.062942 
L 118.931077 309.320759 
L 120.381257 308.96485 
L 121.831436 307.730878 
L 123.281615 305.517598 
L 124.731795 302.083211 
L 126.181974 296.436188 
L 127.632153 286.752124 
L 129.082333 271.376936 
L 130.532512 250.405871 
L 133.432871 204.113136 
L 134.88305 187.427612 
L 136.333229 178.764802 
L 137.783409 178.090002 
L 139.233588 183.672799 
L 140.683767 193.100138 
L 143.584126 214.790475 
L 145.034305 224.169431 
L 146.484485 231.838349 
L 147.934664 238.029856 
L 149.384843 243.2062 
L 150.835023 247.652551 
L 152.285202 251.323318 
L 153.735381 253.973881 
L 155.185561 255.343351 
L 156.63574 255.238848 
L 158.085919 253.624039 
L 159.536099 250.778859 
L 162.436457 244.080972 
L 163.886637 241.477646 
L 165.336816 239.634457 
L 166.786995 238.460722 
L 168.237174 237.934862 
L 169.687354 238.148038 
L 171.137533 239.152948 
L 172.587712 240.81329 
L 175.488071 244.764099 
L 176.93825 246.481007 
L 179.838609 249.46473 
L 181.288788 251.162969 
L 184.189147 254.835849 
L 185.639326 256.040666 
L 187.089506 256.530639 
L 191.440044 256.600633 
L 192.890223 256.835194 
L 194.340402 257.226644 
L 195.790582 257.837069 
L 197.240761 258.690021 
L 200.14112 260.779346 
L 203.041478 263.130007 
L 205.941837 266.105124 
L 210.292375 270.86766 
L 213.192734 274.530687 
L 216.093092 278.197112 
L 220.44363 282.683521 
L 224.794168 288.334328 
L 226.244347 289.577053 
L 230.594885 291.914788 
L 232.045065 293.040963 
L 236.395603 297.28824 
L 237.845782 298.018654 
L 239.295961 297.932749 
L 240.746141 297.186555 
L 242.19632 296.22552 
L 243.646499 295.468176 
L 245.096679 295.092127 
L 246.546858 295.089028 
L 247.997037 295.411626 
L 249.447217 296.004022 
L 252.347575 297.459839 
L 253.797755 298.034547 
L 256.698113 298.881777 
L 258.148293 299.214015 
L 259.598472 299.321421 
L 261.048651 299.011491 
L 262.498831 298.245103 
L 266.849368 295.11746 
L 271.199906 292.509312 
L 272.650086 291.8122 
L 274.100265 291.459434 
L 275.550444 291.586315 
L 277.000624 292.235965 
L 278.450803 293.418579 
L 279.900982 295.132921 
L 281.351162 297.308646 
L 285.7017 304.584546 
L 288.602058 309.206109 
L 291.502417 314.278654 
L 292.952596 316.551353 
L 294.402776 318.336557 
L 295.852955 319.63009 
L 297.303134 320.573748 
L 298.753314 321.283956 
L 300.203493 321.778683 
L 301.653672 322.062708 
L 304.554031 322.259504 
L 306.00421 322.189389 
L 307.45439 321.89757 
L 311.804927 320.373113 
L 313.255107 320.288486 
L 314.705286 320.608517 
L 317.605645 321.650538 
L 319.055824 321.678848 
L 320.506003 321.02838 
L 321.956183 319.594276 
L 323.406362 317.405044 
L 327.7569 309.504491 
L 329.207079 307.717423 
L 330.657259 306.594539 
L 332.107438 306.065922 
L 332.107438 306.065922 
" clip-path="url(#p5108813dd6)" style="fill: none; stroke: #d62728; stroke-width: 2; stroke-linecap: square"/>
   </g>
   <g id="line2d_13">
    <path d="M 101.528926 289.027297 
L 104.429284 289.300209 
L 107.329643 289.937105 
L 108.779822 290.411003 
L 110.230002 291.023644 
L 111.680181 291.783326 
L 113.13036 292.676682 
L 114.58054 293.720187 
L 116.030719 294.966822 
L 120.381257 299.353175 
L 121.831436 300.226735 
L 123.281615 300.058565 
L 124.731795 297.878652 
L 126.181974 291.881493 
L 127.632153 279.446477 
L 129.082333 258.219502 
L 130.532512 227.988826 
L 133.432871 155.831628 
L 134.88305 125.865546 
L 136.333229 106.114161 
L 137.783409 97.631405 
L 139.233588 98.899309 
L 140.683767 107.075048 
L 142.133947 119.230045 
L 146.484485 159.969996 
L 147.934664 171.471784 
L 149.384843 181.345811 
L 150.835023 189.740394 
L 152.285202 196.862116 
L 153.735381 202.79971 
L 155.185561 207.472607 
L 156.63574 210.647916 
L 158.085919 211.996358 
L 159.536099 211.241658 
L 160.986278 208.375372 
L 162.436457 203.758179 
L 165.336816 191.817118 
L 166.786995 185.890353 
L 168.237174 180.886003 
L 169.687354 177.313803 
L 171.137533 175.430067 
L 172.587712 175.195161 
L 174.037892 176.263494 
L 176.93825 179.906977 
L 178.38843 181.379271 
L 179.838609 182.294067 
L 182.738968 183.36877 
L 184.189147 184.636251 
L 185.639326 187.178916 
L 187.089506 191.203105 
L 188.539685 196.466474 
L 191.440044 208.766623 
L 194.340402 220.992769 
L 195.790582 226.466687 
L 197.240761 231.286175 
L 198.69094 235.47038 
L 201.591299 242.627686 
L 203.041478 245.777323 
L 204.491658 248.534254 
L 205.941837 250.784413 
L 207.392016 252.481427 
L 208.842196 253.652832 
L 210.292375 254.375161 
L 211.742554 254.746539 
L 214.642913 255.010761 
L 216.093092 255.331566 
L 217.543271 256.055377 
L 218.993451 257.210255 
L 220.44363 258.557644 
L 221.893809 259.646762 
L 223.343989 260.069681 
L 224.794168 259.754442 
L 227.694527 258.384817 
L 229.144706 258.145033 
L 230.594885 258.325013 
L 233.495244 259.107526 
L 236.395603 259.523012 
L 237.845782 259.701669 
L 239.295961 260.03121 
L 240.746141 260.584285 
L 242.19632 261.408235 
L 243.646499 262.610967 
L 245.096679 264.338479 
L 246.546858 266.617154 
L 249.447217 271.835517 
L 250.897396 274.023581 
L 252.347575 275.538372 
L 253.797755 276.275495 
L 255.247934 276.330451 
L 258.148293 275.620032 
L 259.598472 275.490288 
L 261.048651 275.729673 
L 262.498831 276.390862 
L 263.94901 277.519915 
L 265.399189 279.112416 
L 269.749727 284.752528 
L 271.199906 286.113256 
L 272.650086 286.964664 
L 274.100265 287.290544 
L 275.550444 287.235549 
L 278.450803 286.989839 
L 281.351162 286.896922 
L 284.25152 286.407379 
L 285.7017 286.344898 
L 287.151879 286.605 
L 288.602058 287.166782 
L 292.952596 289.367074 
L 294.402776 289.780991 
L 295.852955 289.820684 
L 297.303134 289.504272 
L 300.203493 288.449853 
L 301.653672 288.137912 
L 303.103852 288.292947 
L 304.554031 289.100729 
L 306.00421 290.509766 
L 307.45439 292.176286 
L 308.904569 293.664396 
L 310.354748 294.732063 
L 311.804927 295.407032 
L 313.255107 295.814698 
L 314.705286 296.005136 
L 316.155465 295.944982 
L 317.605645 295.596206 
L 319.055824 294.979117 
L 320.506003 294.227778 
L 321.956183 293.621483 
L 323.406362 293.496462 
L 324.856541 294.045229 
L 326.306721 295.173426 
L 327.7569 296.539926 
L 329.207079 297.739745 
L 330.657259 298.515802 
L 332.107438 298.854175 
L 332.107438 298.854175 
" clip-path="url(#p5108813dd6)" style="fill: none; stroke-dasharray: 7.4,3.2; stroke-dashoffset: 0; stroke: #d62728; stroke-width: 2"/>
   </g>
   <g id="patch_3">
    <path d="M 90 333.490909 
L 90 86.4 
" style="fill: none; stroke: #000000; stroke-width: 0.8; stroke-linejoin: miter; stroke-linecap: square"/>
   </g>
   <g id="patch_4">
    <path d="M 343.636364 333.490909 
L 343.636364 86.4 
" style="fill: none; stroke: #000000; stroke-width: 0.8; stroke-linejoin: miter; stroke-linecap: square"/>
   </g>
   <g id="patch_5">
    <path d="M 90 333.490909 
L 343.636364 333.490909 
" style="fill: none; stroke: #000000; stroke-width: 0.8; stroke-linejoin: miter; stroke-linecap: square"/>
   </g>
   <g id="patch_6">
    <path d="M 90 86.4 
L 343.636364 86.4 
" style="fill: none; stroke: #000000; stroke-width: 0.8; stroke-linejoin: miter; stroke-linecap: square"/>
   </g>
   <g id="text_12">
    <!-- Firing rate y -->
    <g transform="translate(180.837869 80.4)scale(0.12 -0.12)">
     <defs>
      <path id="DejaVuSans-46" d="M 628 4666 
L 3309 4666 
L 3309 4134 
L 1259 4134 
L 1259 2759 
L 3109 2759 
L 3109 2228 
L 1259 2228 
L 1259 0 
L 628 0 
L 628 4666 
z
" transform="scale(0.015625)"/>
      <path id="DejaVuSans-69" d="M 603 3500 
L 1178 3500 
L 1178 0 
L 603 0 
L 603 3500 
z
M 603 4863 
L 1178 4863 
L 1178 4134 
L 603 4134 
L 603 4863 
z
" transform="scale(0.015625)"/>
      <path id="DejaVuSans-72" d="M 2631 2963 
Q 2534 3019 2420 3045 
Q 2306 3072 2169 3072 
Q 1681 3072 1420 2755 
Q 1159 2438 1159 1844 
L 1159 0 
L 581 0 
L 581 3500 
L 1159 3500 
L 1159 2956 
Q 1341 3275 1631 3429 
Q 1922 3584 2338 3584 
Q 2397 3584 2469 3576 
Q 2541 3569 2628 3553 
L 2631 2963 
z
" transform="scale(0.015625)"/>
      <path id="DejaVuSans-6e" d="M 3513 2113 
L 3513 0 
L 2938 0 
L 2938 2094 
Q 2938 2591 2744 2837 
Q 2550 3084 2163 3084 
Q 1697 3084 1428 2787 
Q 1159 2491 1159 1978 
L 1159 0 
L 581 0 
L 581 3500 
L 1159 3500 
L 1159 2956 
Q 1366 3272 1645 3428 
Q 1925 3584 2291 3584 
Q 2894 3584 3203 3211 
Q 3513 2838 3513 2113 
z
" transform="scale(0.015625)"/>
      <path id="DejaVuSans-67" d="M 2906 1791 
Q 2906 2416 2648 2759 
Q 2391 3103 1925 3103 
Q 1463 3103 1205 2759 
Q 947 2416 947 1791 
Q 947 1169 1205 825 
Q 1463 481 1925 481 
Q 2391 481 2648 825 
Q 2906 1169 2906 1791 
z
M 3481 434 
Q 3481 -459 3084 -895 
Q 2688 -1331 1869 -1331 
Q 1566 -1331 1297 -1286 
Q 1028 -1241 775 -1147 
L 775 -588 
Q 1028 -725 1275 -790 
Q 1522 -856 1778 -856 
Q 2344 -856 2625 -561 
Q 2906 -266 2906 331 
L 2906 616 
Q 2728 306 2450 153 
Q 2172 0 1784 0 
Q 1141 0 747 490 
Q 353 981 353 1791 
Q 353 2603 747 3093 
Q 1141 3584 1784 3584 
Q 2172 3584 2450 3431 
Q 2728 3278 2906 2969 
L 2906 3500 
L 3481 3500 
L 3481 434 
z
" transform="scale(0.015625)"/>
      <path id="DejaVuSans-20" transform="scale(0.015625)"/>
      <path id="DejaVuSans-61" d="M 2194 1759 
Q 1497 1759 1228 1600 
Q 959 1441 959 1056 
Q 959 750 1161 570 
Q 1363 391 1709 391 
Q 2188 391 2477 730 
Q 2766 1069 2766 1631 
L 2766 1759 
L 2194 1759 
z
M 3341 1997 
L 3341 0 
L 2766 0 
L 2766 531 
Q 2569 213 2275 61 
Q 1981 -91 1556 -91 
Q 1019 -91 701 211 
Q 384 513 384 1019 
Q 384 1609 779 1909 
Q 1175 2209 1959 2209 
L 2766 2209 
L 2766 2266 
Q 2766 2663 2505 2880 
Q 2244 3097 1772 3097 
Q 1472 3097 1187 3025 
Q 903 2953 641 2809 
L 641 3341 
Q 956 3463 1253 3523 
Q 1550 3584 1831 3584 
Q 2591 3584 2966 3190 
Q 3341 2797 3341 1997 
z
" transform="scale(0.015625)"/>
      <path id="DejaVuSans-74" d="M 1172 4494 
L 1172 3500 
L 2356 3500 
L 2356 3053 
L 1172 3053 
L 1172 1153 
Q 1172 725 1289 603 
Q 1406 481 1766 481 
L 2356 481 
L 2356 0 
L 1766 0 
Q 1100 0 847 248 
Q 594 497 594 1153 
L 594 3053 
L 172 3053 
L 172 3500 
L 594 3500 
L 594 4494 
L 1172 4494 
z
" transform="scale(0.015625)"/>
      <path id="DejaVuSans-65" d="M 3597 1894 
L 3597 1613 
L 953 1613 
Q 991 1019 1311 708 
Q 1631 397 2203 397 
Q 2534 397 2845 478 
Q 3156 559 3463 722 
L 3463 178 
Q 3153 47 2828 -22 
Q 2503 -91 2169 -91 
Q 1331 -91 842 396 
Q 353 884 353 1716 
Q 353 2575 817 3079 
Q 1281 3584 2069 3584 
Q 2775 3584 3186 3129 
Q 3597 2675 3597 1894 
z
M 3022 2063 
Q 3016 2534 2758 2815 
Q 2500 3097 2075 3097 
Q 1594 3097 1305 2825 
Q 1016 2553 972 2059 
L 3022 2063 
z
" transform="scale(0.015625)"/>
      <path id="DejaVuSans-79" d="M 2059 -325 
Q 1816 -950 1584 -1140 
Q 1353 -1331 966 -1331 
L 506 -1331 
L 506 -850 
L 844 -850 
Q 1081 -850 1212 -737 
Q 1344 -625 1503 -206 
L 1606 56 
L 191 3500 
L 800 3500 
L 1894 763 
L 2988 3500 
L 3597 3500 
L 2059 -325 
z
" transform="scale(0.015625)"/>
     </defs>
     <use xlink:href="#DejaVuSans-46"/>
     <use xlink:href="#DejaVuSans-69" x="50.269531"/>
     <use xlink:href="#DejaVuSans-72" x="78.052734"/>
     <use xlink:href="#DejaVuSans-69" x="119.166016"/>
     <use xlink:href="#DejaVuSans-6e" x="146.949219"/>
     <use xlink:href="#DejaVuSans-67" x="210.328125"/>
     <use xlink:href="#DejaVuSans-20" x="273.804688"/>
     <use xlink:href="#DejaVuSans-72" x="305.591797"/>
     <use xlink:href="#DejaVuSans-61" x="346.705078"/>
     <use xlink:href="#DejaVuSans-74" x="407.984375"/>
     <use xlink:href="#DejaVuSans-65" x="447.193359"/>
     <use xlink:href="#DejaVuSans-20" x="508.716797"/>
     <use xlink:href="#DejaVuSans-79" x="540.503906"/>
    </g>
   </g>
   <g id="legend_1">
    <g id="patch_7">
     <path d="M 250.616051 123.75625 
L 336.636364 123.75625 
Q 338.636364 123.75625 338.636364 121.75625 
L 338.636364 93.4 
Q 338.636364 91.4 336.636364 91.4 
L 250.616051 91.4 
Q 248.616051 91.4 248.616051 93.4 
L 248.616051 121.75625 
Q 248.616051 123.75625 250.616051 123.75625 
z
" style="fill: #ffffff; opacity: 0.8; stroke: #cccccc; stroke-linejoin: miter"/>
    </g>
    <g id="line2d_14">
     <path d="M 252.616051 99.498437 
L 262.616051 99.498437 
L 272.616051 99.498437 
" style="fill: none; stroke: #d62728; stroke-width: 2; stroke-linecap: square"/>
    </g>
    <g id="text_13">
     <!-- Reward -->
     <g transform="translate(280.616051 102.998437)scale(0.1 -0.1)">
      <defs>
       <path id="DejaVuSans-52" d="M 2841 2188 
Q 3044 2119 3236 1894 
Q 3428 1669 3622 1275 
L 4263 0 
L 3584 0 
L 2988 1197 
Q 2756 1666 2539 1819 
Q 2322 1972 1947 1972 
L 1259 1972 
L 1259 0 
L 628 0 
L 628 4666 
L 2053 4666 
Q 2853 4666 3247 4331 
Q 3641 3997 3641 3322 
Q 3641 2881 3436 2590 
Q 3231 2300 2841 2188 
z
M 1259 4147 
L 1259 2491 
L 2053 2491 
Q 2509 2491 2742 2702 
Q 2975 2913 2975 3322 
Q 2975 3731 2742 3939 
Q 2509 4147 2053 4147 
L 1259 4147 
z
" transform="scale(0.015625)"/>
       <path id="DejaVuSans-77" d="M 269 3500 
L 844 3500 
L 1563 769 
L 2278 3500 
L 2956 3500 
L 3675 769 
L 4391 3500 
L 4966 3500 
L 4050 0 
L 3372 0 
L 2619 2869 
L 1863 0 
L 1184 0 
L 269 3500 
z
" transform="scale(0.015625)"/>
       <path id="DejaVuSans-64" d="M 2906 2969 
L 2906 4863 
L 3481 4863 
L 3481 0 
L 2906 0 
L 2906 525 
Q 2725 213 2448 61 
Q 2172 -91 1784 -91 
Q 1150 -91 751 415 
Q 353 922 353 1747 
Q 353 2572 751 3078 
Q 1150 3584 1784 3584 
Q 2172 3584 2448 3432 
Q 2725 3281 2906 2969 
z
M 947 1747 
Q 947 1113 1208 752 
Q 1469 391 1925 391 
Q 2381 391 2643 752 
Q 2906 1113 2906 1747 
Q 2906 2381 2643 2742 
Q 2381 3103 1925 3103 
Q 1469 3103 1208 2742 
Q 947 2381 947 1747 
z
" transform="scale(0.015625)"/>
      </defs>
      <use xlink:href="#DejaVuSans-52"/>
      <use xlink:href="#DejaVuSans-65" x="64.982422"/>
      <use xlink:href="#DejaVuSans-77" x="126.505859"/>
      <use xlink:href="#DejaVuSans-61" x="208.292969"/>
      <use xlink:href="#DejaVuSans-72" x="269.572266"/>
      <use xlink:href="#DejaVuSans-64" x="308.935547"/>
     </g>
    </g>
    <g id="line2d_15">
     <path d="M 252.616051 114.176562 
L 262.616051 114.176562 
L 272.616051 114.176562 
" style="fill: none; stroke-dasharray: 7.4,3.2; stroke-dashoffset: 0; stroke: #d62728; stroke-width: 2"/>
    </g>
    <g id="text_14">
     <!-- No Reward -->
     <g transform="translate(280.616051 117.676562)scale(0.1 -0.1)">
      <defs>
       <path id="DejaVuSans-4e" d="M 628 4666 
L 1478 4666 
L 3547 763 
L 3547 4666 
L 4159 4666 
L 4159 0 
L 3309 0 
L 1241 3903 
L 1241 0 
L 628 0 
L 628 4666 
z
" transform="scale(0.015625)"/>
       <path id="DejaVuSans-6f" d="M 1959 3097 
Q 1497 3097 1228 2736 
Q 959 2375 959 1747 
Q 959 1119 1226 758 
Q 1494 397 1959 397 
Q 2419 397 2687 759 
Q 2956 1122 2956 1747 
Q 2956 2369 2687 2733 
Q 2419 3097 1959 3097 
z
M 1959 3584 
Q 2709 3584 3137 3096 
Q 3566 2609 3566 1747 
Q 3566 888 3137 398 
Q 2709 -91 1959 -91 
Q 1206 -91 779 398 
Q 353 888 353 1747 
Q 353 2609 779 3096 
Q 1206 3584 1959 3584 
z
" transform="scale(0.015625)"/>
      </defs>
      <use xlink:href="#DejaVuSans-4e"/>
      <use xlink:href="#DejaVuSans-6f" x="74.804688"/>
      <use xlink:href="#DejaVuSans-20" x="135.986328"/>
      <use xlink:href="#DejaVuSans-52" x="167.773438"/>
      <use xlink:href="#DejaVuSans-65" x="232.755859"/>
      <use xlink:href="#DejaVuSans-77" x="294.279297"/>
      <use xlink:href="#DejaVuSans-61" x="376.066406"/>
      <use xlink:href="#DejaVuSans-72" x="437.345703"/>
      <use xlink:href="#DejaVuSans-64" x="476.708984"/>
     </g>
    </g>
   </g>
  </g>
  <g id="axes_2">
   <g id="patch_8">
    <path d="M 394.363636 333.490909 
L 648 333.490909 
L 648 86.4 
L 394.363636 86.4 
z
" style="fill: #ffffff"/>
   </g>
   <g id="PolyCollection_1">
    <defs>
     <path id="med91768d0e" d="M 405.892562 -514.544218 
L 405.892562 -514.544218 
L 407.342741 -514.544218 
L 408.792921 -514.544218 
L 410.2431 -514.544218 
L 411.693279 -514.544218 
L 413.143459 -514.544218 
L 414.593638 -514.544218 
L 416.043817 -514.544218 
L 417.493997 -514.544218 
L 418.944176 -514.544218 
L 420.394355 -514.544218 
L 421.844535 -514.544218 
L 423.294714 -514.543941 
L 424.744893 -514.54182 
L 426.195073 -514.530399 
L 427.645252 -514.482544 
L 429.095431 -514.324218 
L 430.54561 -513.910413 
L 431.99579 -513.058162 
L 433.445969 -511.692483 
L 434.896148 -507.940441 
L 436.346328 -505.90123 
L 437.796507 -505.579281 
L 439.246686 -507.780831 
L 440.696866 -512.992697 
L 442.147045 -518.557123 
L 443.597224 -523.121928 
L 445.047404 -527.377553 
L 446.497583 -528.884588 
L 447.947762 -528.997053 
L 449.397942 -527.354541 
L 450.848121 -524.68749 
L 452.2983 -521.904346 
L 453.74848 -518.912303 
L 455.198659 -516.579312 
L 456.648838 -514.881021 
L 458.099018 -513.706297 
L 459.549197 -513.531897 
L 460.999376 -514.56299 
L 462.449556 -517.872296 
L 463.899735 -525.226727 
L 465.349914 -536.231661 
L 466.800094 -551.765938 
L 468.250273 -569.024057 
L 469.700452 -585.746373 
L 471.150632 -600.684966 
L 472.600811 -610.575086 
L 474.05099 -612.910319 
L 475.501169 -607.784312 
L 476.951349 -595.358597 
L 478.401528 -580.792119 
L 479.851707 -565.454485 
L 481.301887 -554.057522 
L 482.752066 -547.897264 
L 484.202245 -545.624699 
L 485.652425 -545.861684 
L 487.102604 -546.446916 
L 488.552783 -546.872224 
L 490.002963 -546.350456 
L 491.453142 -543.5954 
L 492.903321 -539.951845 
L 494.353501 -534.502027 
L 495.80368 -529.082518 
L 497.253859 -524.6478 
L 498.704039 -520.782882 
L 500.154218 -517.986006 
L 501.604397 -516.586989 
L 503.054577 -515.784177 
L 504.504756 -515.013181 
L 505.954935 -514.902304 
L 507.405115 -514.429466 
L 508.855294 -514.266996 
L 510.305473 -514.182847 
L 511.755653 -514.200235 
L 513.205832 -513.63986 
L 514.656011 -512.787995 
L 516.106191 -512.640809 
L 517.55637 -513.737381 
L 519.006549 -514.845428 
L 520.456729 -516.386291 
L 521.906908 -517.12141 
L 523.357087 -519.407821 
L 524.807266 -521.167312 
L 526.257446 -523.465183 
L 527.707625 -526.591694 
L 529.157804 -529.375543 
L 530.607984 -531.079093 
L 532.058163 -531.474612 
L 533.508342 -531.171041 
L 534.958522 -532.085421 
L 536.408701 -532.006075 
L 537.85888 -532.999147 
L 539.30906 -533.517452 
L 540.759239 -533.179022 
L 542.209418 -531.624694 
L 543.659598 -529.194474 
L 545.109777 -526.671813 
L 546.559956 -522.578715 
L 548.010136 -519.74437 
L 549.460315 -517.599581 
L 550.910494 -516.047126 
L 552.360674 -515.271487 
L 553.810853 -513.891138 
L 555.261032 -512.557855 
L 556.711212 -512.613829 
L 558.161391 -513.243853 
L 559.61157 -513.484119 
L 561.06175 -513.951191 
L 562.511929 -514.891044 
L 563.962108 -515.183852 
L 565.412288 -515.588269 
L 566.862467 -515.602205 
L 568.312646 -516.188684 
L 569.762826 -516.1603 
L 571.213005 -518.281083 
L 572.663184 -520.181237 
L 574.113363 -524.203786 
L 575.563543 -527.702235 
L 577.013722 -531.75641 
L 578.463901 -537.055966 
L 579.914081 -540.608018 
L 581.36426 -542.786936 
L 582.814439 -543.009592 
L 584.264619 -541.714157 
L 585.714798 -539.107402 
L 587.164977 -535.497333 
L 588.615157 -530.739085 
L 590.065336 -526.508676 
L 591.515515 -522.950421 
L 592.965695 -519.695962 
L 594.415874 -517.07376 
L 595.866053 -517.013573 
L 597.316233 -516.353178 
L 598.766412 -515.651445 
L 600.216591 -515.734049 
L 601.666771 -515.100173 
L 603.11695 -515.103843 
L 604.567129 -515.41671 
L 606.017309 -514.893511 
L 607.467488 -514.823922 
L 608.917667 -514.433553 
L 610.367847 -514.210747 
L 611.818026 -513.629673 
L 613.268205 -513.128075 
L 614.718385 -512.218585 
L 616.168564 -511.769961 
L 617.618743 -511.674845 
L 619.068923 -513.096232 
L 620.519102 -514.75961 
L 621.969281 -517.814689 
L 623.41946 -522.912567 
L 624.86964 -525.925261 
L 626.319819 -529.361497 
L 627.769998 -531.644765 
L 629.220178 -532.60372 
L 630.670357 -531.70153 
L 632.120536 -530.143957 
L 633.570716 -528.006663 
L 635.020895 -526.092894 
L 636.471074 -524.824203 
L 636.471074 -529.81197 
L 636.471074 -529.81197 
L 635.020895 -530.423678 
L 633.570716 -532.305915 
L 632.120536 -535.512033 
L 630.670357 -539.560975 
L 629.220178 -542.326548 
L 627.769998 -542.742811 
L 626.319819 -539.282833 
L 624.86964 -532.950941 
L 623.41946 -525.038129 
L 621.969281 -520.934854 
L 620.519102 -517.876703 
L 619.068923 -516.223775 
L 617.618743 -516.20501 
L 616.168564 -515.893377 
L 614.718385 -516.131205 
L 613.268205 -516.476867 
L 611.818026 -517.358807 
L 610.367847 -517.952524 
L 608.917667 -518.601817 
L 607.467488 -518.859656 
L 606.017309 -519.353609 
L 604.567129 -519.427754 
L 603.11695 -520.360381 
L 601.666771 -520.831542 
L 600.216591 -520.384814 
L 598.766412 -520.567313 
L 597.316233 -520.382193 
L 595.866053 -521.199328 
L 594.415874 -524.005895 
L 592.965695 -526.018571 
L 591.515515 -529.456595 
L 590.065336 -534.549419 
L 588.615157 -540.243458 
L 587.164977 -545.555172 
L 585.714798 -550.813157 
L 584.264619 -554.459673 
L 582.814439 -555.674523 
L 581.36426 -554.311191 
L 579.914081 -551.288174 
L 578.463901 -546.82863 
L 577.013722 -542.095567 
L 575.563543 -535.195833 
L 574.113363 -528.542429 
L 572.663184 -524.934176 
L 571.213005 -522.32595 
L 569.762826 -522.302869 
L 568.312646 -521.290209 
L 566.862467 -521.317295 
L 565.412288 -520.945038 
L 563.962108 -520.883726 
L 562.511929 -520.238009 
L 561.06175 -519.535146 
L 559.61157 -517.862494 
L 558.161391 -516.069703 
L 556.711212 -515.471258 
L 555.261032 -515.544762 
L 553.810853 -515.502915 
L 552.360674 -516.470631 
L 550.910494 -518.965398 
L 549.460315 -521.692161 
L 548.010136 -524.925182 
L 546.559956 -528.307906 
L 545.109777 -530.578681 
L 543.659598 -533.740569 
L 542.209418 -535.685766 
L 540.759239 -536.826197 
L 539.30906 -537.385395 
L 537.85888 -537.314797 
L 536.408701 -537.056378 
L 534.958522 -535.998159 
L 533.508342 -536.505451 
L 532.058163 -535.668209 
L 530.607984 -534.269497 
L 529.157804 -532.383725 
L 527.707625 -530.264783 
L 526.257446 -528.09219 
L 524.807266 -525.287751 
L 523.357087 -522.288832 
L 521.906908 -520.221191 
L 520.456729 -517.218166 
L 519.006549 -515.912599 
L 517.55637 -515.214176 
L 516.106191 -515.498281 
L 514.656011 -515.343919 
L 513.205832 -515.014382 
L 511.755653 -515.178465 
L 510.305473 -515.811586 
L 508.855294 -516.054293 
L 507.405115 -515.974515 
L 505.954935 -515.610259 
L 504.504756 -516.020519 
L 503.054577 -516.563048 
L 501.604397 -518.216914 
L 500.154218 -520.802593 
L 498.704039 -523.946262 
L 497.253859 -528.262035 
L 495.80368 -534.01744 
L 494.353501 -539.750858 
L 492.903321 -544.721429 
L 491.453142 -549.136254 
L 490.002963 -551.254367 
L 488.552783 -552.612786 
L 487.102604 -552.851077 
L 485.652425 -552.574117 
L 484.202245 -553.198307 
L 482.752066 -555.353242 
L 481.301887 -561.1939 
L 479.851707 -571.920037 
L 478.401528 -587.327311 
L 476.951349 -605.195277 
L 475.501169 -617.44915 
L 474.05099 -622.368595 
L 472.600811 -618.390341 
L 471.150632 -607.986131 
L 469.700452 -592.963052 
L 468.250273 -574.904838 
L 466.800094 -557.288772 
L 465.349914 -542.064024 
L 463.899735 -529.595249 
L 462.449556 -522.096383 
L 460.999376 -518.203962 
L 459.549197 -517.148429 
L 458.099018 -517.521378 
L 456.648838 -518.269265 
L 455.198659 -519.743038 
L 453.74848 -521.995739 
L 452.2983 -524.765879 
L 450.848121 -528.113141 
L 449.397942 -530.803478 
L 447.947762 -532.628662 
L 446.497583 -533.362949 
L 445.047404 -531.814324 
L 443.597224 -528.984021 
L 442.147045 -523.355692 
L 440.696866 -518.061047 
L 439.246686 -514.680475 
L 437.796507 -512.427173 
L 436.346328 -511.808402 
L 434.896148 -512.186357 
L 433.445969 -511.692483 
L 431.99579 -513.058162 
L 430.54561 -513.910413 
L 429.095431 -514.324218 
L 427.645252 -514.482544 
L 426.195073 -514.530399 
L 424.744893 -514.54182 
L 423.294714 -514.543941 
L 421.844535 -514.544218 
L 420.394355 -514.544218 
L 418.944176 -514.544218 
L 417.493997 -514.544218 
L 416.043817 -514.544218 
L 414.593638 -514.544218 
L 413.143459 -514.544218 
L 411.693279 -514.544218 
L 410.2431 -514.544218 
L 408.792921 -514.544218 
L 407.342741 -514.544218 
L 405.892562 -514.544218 
z
" style="stroke: #9467bd; stroke-opacity: 0.2"/>
    </defs>
    <g clip-path="url(#pf2e96eaeff)">
     <use xlink:href="#med91768d0e" x="0" y="720" style="fill: #9467bd; fill-opacity: 0.2; stroke: #9467bd; stroke-opacity: 0.2"/>
    </g>
   </g>
   <g id="PolyCollection_2">
    <defs>
     <path id="m8487c7ec0b" d="M 405.892562 -514.544218 
L 405.892562 -514.544218 
L 407.342741 -514.544218 
L 408.792921 -514.544218 
L 410.2431 -514.544218 
L 411.693279 -514.544218 
L 413.143459 -514.544218 
L 414.593638 -514.544218 
L 416.043817 -514.544218 
L 417.493997 -514.544218 
L 418.944176 -514.544218 
L 420.394355 -514.544218 
L 421.844535 -514.544218 
L 423.294714 -514.544218 
L 424.744893 -514.544218 
L 426.195073 -514.544218 
L 427.645252 -514.544218 
L 429.095431 -514.544218 
L 430.54561 -514.544218 
L 431.99579 -514.544218 
L 433.445969 -514.544218 
L 434.896148 -514.544218 
L 436.346328 -514.544218 
L 437.796507 -514.544218 
L 439.246686 -514.544218 
L 440.696866 -514.544218 
L 442.147045 -514.544218 
L 443.597224 -514.544218 
L 445.047404 -514.544218 
L 446.497583 -514.544218 
L 447.947762 -514.544218 
L 449.397942 -514.544218 
L 450.848121 -514.544218 
L 452.2983 -514.544218 
L 453.74848 -514.544218 
L 455.198659 -514.544218 
L 456.648838 -514.544218 
L 458.099018 -514.544218 
L 459.549197 -514.544218 
L 460.999376 -514.544218 
L 462.449556 -514.544218 
L 463.899735 -514.544218 
L 465.349914 -514.544218 
L 466.800094 -514.544218 
L 468.250273 -514.544218 
L 469.700452 -514.544218 
L 471.150632 -514.544218 
L 472.600811 -514.544218 
L 474.05099 -514.544218 
L 475.501169 -514.544218 
L 476.951349 -514.544218 
L 478.401528 -514.544218 
L 479.851707 -514.544218 
L 481.301887 -514.544218 
L 482.752066 -514.544218 
L 484.202245 -514.544218 
L 485.652425 -514.544218 
L 487.102604 -514.544218 
L 488.552783 -514.544218 
L 490.002963 -514.544218 
L 491.453142 -514.544218 
L 492.903321 -514.544218 
L 494.353501 -514.544218 
L 495.80368 -514.544218 
L 497.253859 -514.544218 
L 498.704039 -514.544218 
L 500.154218 -514.544218 
L 501.604397 -514.544218 
L 503.054577 -514.544218 
L 504.504756 -514.544218 
L 505.954935 -514.544218 
L 507.405115 -514.544218 
L 508.855294 -514.544218 
L 510.305473 -514.544218 
L 511.755653 -514.544218 
L 513.205832 -514.544218 
L 514.656011 -514.544218 
L 516.106191 -514.544218 
L 517.55637 -514.544218 
L 519.006549 -514.544218 
L 520.456729 -514.544218 
L 521.906908 -514.544218 
L 523.357087 -514.544218 
L 524.807266 -514.544218 
L 526.257446 -514.544218 
L 527.707625 -514.544218 
L 529.157804 -514.544218 
L 530.607984 -514.544218 
L 532.058163 -514.544218 
L 533.508342 -514.544218 
L 534.958522 -514.544218 
L 536.408701 -514.544218 
L 537.85888 -514.544218 
L 539.30906 -514.544218 
L 540.759239 -514.544218 
L 542.209418 -514.544218 
L 543.659598 -514.544218 
L 545.109777 -514.544218 
L 546.559956 -514.544218 
L 548.010136 -514.544218 
L 549.460315 -514.544218 
L 550.910494 -514.544218 
L 552.360674 -514.544218 
L 553.810853 -514.544218 
L 555.261032 -514.544218 
L 556.711212 -514.544218 
L 558.161391 -514.544218 
L 559.61157 -514.544218 
L 561.06175 -514.544218 
L 562.511929 -514.544218 
L 563.962108 -514.544218 
L 565.412288 -514.544218 
L 566.862467 -514.544218 
L 568.312646 -514.544218 
L 569.762826 -514.544218 
L 571.213005 -514.544218 
L 572.663184 -514.544218 
L 574.113363 -514.544218 
L 575.563543 -514.544218 
L 577.013722 -514.544218 
L 578.463901 -514.544218 
L 579.914081 -514.544218 
L 581.36426 -514.544218 
L 582.814439 -514.544218 
L 584.264619 -514.544218 
L 585.714798 -514.544218 
L 587.164977 -514.544218 
L 588.615157 -514.544218 
L 590.065336 -514.544218 
L 591.515515 -514.544218 
L 592.965695 -514.544218 
L 594.415874 -514.544218 
L 595.866053 -514.544218 
L 597.316233 -514.544218 
L 598.766412 -514.544218 
L 600.216591 -514.544218 
L 601.666771 -514.544218 
L 603.11695 -514.544218 
L 604.567129 -514.544218 
L 606.017309 -514.544218 
L 607.467488 -514.544218 
L 608.917667 -514.544218 
L 610.367847 -514.544218 
L 611.818026 -514.544218 
L 613.268205 -514.544218 
L 614.718385 -514.544218 
L 616.168564 -514.544218 
L 617.618743 -514.544218 
L 619.068923 -514.544218 
L 620.519102 -514.544218 
L 621.969281 -514.544218 
L 623.41946 -514.544218 
L 624.86964 -514.544218 
L 626.319819 -514.544218 
L 627.769998 -514.544218 
L 629.220178 -514.544218 
L 630.670357 -514.544218 
L 632.120536 -514.544218 
L 633.570716 -514.544218 
L 635.020895 -514.544218 
L 636.471074 -514.544218 
L 636.471074 -514.544218 
L 636.471074 -514.544218 
L 635.020895 -514.544218 
L 633.570716 -514.544218 
L 632.120536 -514.544218 
L 630.670357 -514.544218 
L 629.220178 -514.544218 
L 627.769998 -514.544218 
L 626.319819 -514.544218 
L 624.86964 -514.544218 
L 623.41946 -514.544218 
L 621.969281 -514.544218 
L 620.519102 -514.544218 
L 619.068923 -514.544218 
L 617.618743 -514.544218 
L 616.168564 -514.544218 
L 614.718385 -514.544218 
L 613.268205 -514.544218 
L 611.818026 -514.544218 
L 610.367847 -514.544218 
L 608.917667 -514.544218 
L 607.467488 -514.544218 
L 606.017309 -514.544218 
L 604.567129 -514.544218 
L 603.11695 -514.544218 
L 601.666771 -514.544218 
L 600.216591 -514.544218 
L 598.766412 -514.544218 
L 597.316233 -514.544218 
L 595.866053 -514.544218 
L 594.415874 -514.544218 
L 592.965695 -514.544218 
L 591.515515 -514.544218 
L 590.065336 -514.544218 
L 588.615157 -514.544218 
L 587.164977 -514.544218 
L 585.714798 -514.544218 
L 584.264619 -514.544218 
L 582.814439 -514.544218 
L 581.36426 -514.544218 
L 579.914081 -514.544218 
L 578.463901 -514.544218 
L 577.013722 -514.544218 
L 575.563543 -514.544218 
L 574.113363 -514.544218 
L 572.663184 -514.544218 
L 571.213005 -514.544218 
L 569.762826 -514.544218 
L 568.312646 -514.544218 
L 566.862467 -514.544218 
L 565.412288 -514.544218 
L 563.962108 -514.544218 
L 562.511929 -514.544218 
L 561.06175 -514.544218 
L 559.61157 -514.544218 
L 558.161391 -514.544218 
L 556.711212 -514.544218 
L 555.261032 -514.544218 
L 553.810853 -514.544218 
L 552.360674 -514.544218 
L 550.910494 -514.544218 
L 549.460315 -514.544218 
L 548.010136 -514.544218 
L 546.559956 -514.544218 
L 545.109777 -514.544218 
L 543.659598 -514.544218 
L 542.209418 -514.544218 
L 540.759239 -514.544218 
L 539.30906 -514.544218 
L 537.85888 -514.544218 
L 536.408701 -514.544218 
L 534.958522 -514.544218 
L 533.508342 -514.544218 
L 532.058163 -514.544218 
L 530.607984 -514.544218 
L 529.157804 -514.544218 
L 527.707625 -514.544218 
L 526.257446 -514.544218 
L 524.807266 -514.544218 
L 523.357087 -514.544218 
L 521.906908 -514.544218 
L 520.456729 -514.544218 
L 519.006549 -514.544218 
L 517.55637 -514.544218 
L 516.106191 -514.544218 
L 514.656011 -514.544218 
L 513.205832 -514.544218 
L 511.755653 -514.544218 
L 510.305473 -514.544218 
L 508.855294 -514.544218 
L 507.405115 -514.544218 
L 505.954935 -514.544218 
L 504.504756 -514.544218 
L 503.054577 -514.544218 
L 501.604397 -514.544218 
L 500.154218 -514.544218 
L 498.704039 -514.544218 
L 497.253859 -514.544218 
L 495.80368 -514.544218 
L 494.353501 -514.544218 
L 492.903321 -514.544218 
L 491.453142 -514.544218 
L 490.002963 -514.544218 
L 488.552783 -514.544218 
L 487.102604 -514.544218 
L 485.652425 -514.544218 
L 484.202245 -514.544218 
L 482.752066 -514.544218 
L 481.301887 -514.544218 
L 479.851707 -514.544218 
L 478.401528 -514.544218 
L 476.951349 -514.544218 
L 475.501169 -514.544218 
L 474.05099 -514.544218 
L 472.600811 -514.544218 
L 471.150632 -514.544218 
L 469.700452 -514.544218 
L 468.250273 -514.544218 
L 466.800094 -514.544218 
L 465.349914 -514.544218 
L 463.899735 -514.544218 
L 462.449556 -514.544218 
L 460.999376 -514.544218 
L 459.549197 -514.544218 
L 458.099018 -514.544218 
L 456.648838 -514.544218 
L 455.198659 -514.544218 
L 453.74848 -514.544218 
L 452.2983 -514.544218 
L 450.848121 -514.544218 
L 449.397942 -514.544218 
L 447.947762 -514.544218 
L 446.497583 -514.544218 
L 445.047404 -514.544218 
L 443.597224 -514.544218 
L 442.147045 -514.544218 
L 440.696866 -514.544218 
L 439.246686 -514.544218 
L 437.796507 -514.544218 
L 436.346328 -514.544218 
L 434.896148 -514.544218 
L 433.445969 -514.544218 
L 431.99579 -514.544218 
L 430.54561 -514.544218 
L 429.095431 -514.544218 
L 427.645252 -514.544218 
L 426.195073 -514.544218 
L 424.744893 -514.544218 
L 423.294714 -514.544218 
L 421.844535 -514.544218 
L 420.394355 -514.544218 
L 418.944176 -514.544218 
L 417.493997 -514.544218 
L 416.043817 -514.544218 
L 414.593638 -514.544218 
L 413.143459 -514.544218 
L 411.693279 -514.544218 
L 410.2431 -514.544218 
L 408.792921 -514.544218 
L 407.342741 -514.544218 
L 405.892562 -514.544218 
z
" style="stroke: #1f77b4; stroke-opacity: 0.2"/>
    </defs>
    <g clip-path="url(#pf2e96eaeff)">
     <use xlink:href="#m8487c7ec0b" x="0" y="720" style="fill: #1f77b4; fill-opacity: 0.2; stroke: #1f77b4; stroke-opacity: 0.2"/>
    </g>
   </g>
   <g id="PolyCollection_3">
    <defs>
     <path id="m30d6472355" d="M 405.892562 -514.544218 
L 405.892562 -514.544218 
L 407.342741 -514.544218 
L 408.792921 -514.544218 
L 410.2431 -514.544218 
L 411.693279 -514.544218 
L 413.143459 -514.544218 
L 414.593638 -514.544218 
L 416.043817 -514.544218 
L 417.493997 -514.544218 
L 418.944176 -514.544218 
L 420.394355 -514.544218 
L 421.844535 -514.544218 
L 423.294714 -514.544218 
L 424.744893 -514.544218 
L 426.195073 -514.544218 
L 427.645252 -514.544218 
L 429.095431 -514.544218 
L 430.54561 -514.544218 
L 431.99579 -514.544218 
L 433.445969 -514.544218 
L 434.896148 -514.544218 
L 436.346328 -514.544218 
L 437.796507 -514.544218 
L 439.246686 -514.544218 
L 440.696866 -514.544218 
L 442.147045 -514.544218 
L 443.597224 -514.544218 
L 445.047404 -514.544218 
L 446.497583 -514.544218 
L 447.947762 -514.544218 
L 449.397942 -514.544218 
L 450.848121 -514.544218 
L 452.2983 -514.544218 
L 453.74848 -514.544218 
L 455.198659 -514.544218 
L 456.648838 -514.544218 
L 458.099018 -514.544218 
L 459.549197 -514.544218 
L 460.999376 -514.544218 
L 462.449556 -514.544218 
L 463.899735 -514.544218 
L 465.349914 -514.544218 
L 466.800094 -514.549711 
L 468.250273 -514.585726 
L 469.700452 -514.768696 
L 471.150632 -515.493087 
L 472.600811 -517.727313 
L 474.05099 -523.09346 
L 475.501169 -533.130012 
L 476.951349 -547.753988 
L 478.401528 -560.442629 
L 479.851707 -575.293302 
L 481.301887 -586.456774 
L 482.752066 -593.123451 
L 484.202245 -597.484855 
L 485.652425 -600.658145 
L 487.102604 -602.8125 
L 488.552783 -603.171954 
L 490.002963 -601.928777 
L 491.453142 -599.035142 
L 492.903321 -595.304334 
L 494.353501 -589.442895 
L 495.80368 -582.999544 
L 497.253859 -576.770252 
L 498.704039 -569.881899 
L 500.154218 -563.762916 
L 501.604397 -558.557337 
L 503.054577 -553.659095 
L 504.504756 -550.229906 
L 505.954935 -547.927662 
L 507.405115 -546.171564 
L 508.855294 -545.168201 
L 510.305473 -544.573811 
L 511.755653 -543.683997 
L 513.205832 -542.348882 
L 514.656011 -541.70749 
L 516.106191 -541.82062 
L 517.55637 -543.467579 
L 519.006549 -545.106612 
L 520.456729 -545.91459 
L 521.906908 -545.61999 
L 523.357087 -543.70918 
L 524.807266 -539.446964 
L 526.257446 -536.109098 
L 527.707625 -532.808859 
L 529.157804 -530.141196 
L 530.607984 -528.666036 
L 532.058163 -528.350363 
L 533.508342 -530.292217 
L 534.958522 -535.05734 
L 536.408701 -538.886529 
L 537.85888 -542.323858 
L 539.30906 -545.049585 
L 540.759239 -546.557889 
L 542.209418 -547.675049 
L 543.659598 -547.584573 
L 545.109777 -547.501128 
L 546.559956 -545.92636 
L 548.010136 -542.088802 
L 549.460315 -537.532029 
L 550.910494 -532.642419 
L 552.360674 -527.21146 
L 553.810853 -522.860985 
L 555.261032 -520.125086 
L 556.711212 -517.702224 
L 558.161391 -515.957642 
L 559.61157 -515.329994 
L 561.06175 -514.652602 
L 562.511929 -513.507839 
L 563.962108 -513.656472 
L 565.412288 -512.541645 
L 566.862467 -512.669857 
L 568.312646 -512.508205 
L 569.762826 -512.167477 
L 571.213005 -508.840897 
L 572.663184 -506.328216 
L 574.113363 -502.893669 
L 575.563543 -498.476099 
L 577.013722 -494.249782 
L 578.463901 -492.003425 
L 579.914081 -489.625708 
L 581.36426 -487.395892 
L 582.814439 -485.607716 
L 584.264619 -485.959058 
L 585.714798 -487.613708 
L 587.164977 -489.520523 
L 588.615157 -491.403445 
L 590.065336 -493.477158 
L 591.515515 -495.882794 
L 592.965695 -498.128471 
L 594.415874 -500.497212 
L 595.866053 -503.824636 
L 597.316233 -505.962725 
L 598.766412 -508.274052 
L 600.216591 -509.554836 
L 601.666771 -511.160016 
L 603.11695 -511.896091 
L 604.567129 -512.007436 
L 606.017309 -512.518308 
L 607.467488 -512.413195 
L 608.917667 -511.664958 
L 610.367847 -511.437182 
L 611.818026 -511.327982 
L 613.268205 -510.874465 
L 614.718385 -510.086207 
L 616.168564 -509.689054 
L 617.618743 -509.129685 
L 619.068923 -508.110984 
L 620.519102 -506.22615 
L 621.969281 -503.668477 
L 623.41946 -498.034749 
L 624.86964 -491.341288 
L 626.319819 -485.175352 
L 627.769998 -482.195864 
L 629.220178 -482.682282 
L 630.670357 -486.05779 
L 632.120536 -490.890014 
L 633.570716 -494.953512 
L 635.020895 -497.520802 
L 636.471074 -498.30475 
L 636.471074 -504.210852 
L 636.471074 -504.210852 
L 635.020895 -502.508582 
L 633.570716 -500.038067 
L 632.120536 -497.005759 
L 630.670357 -494.376211 
L 629.220178 -492.63259 
L 627.769998 -492.850157 
L 626.319819 -495.295529 
L 624.86964 -498.80564 
L 623.41946 -503.017141 
L 621.969281 -506.560232 
L 620.519102 -510.031608 
L 619.068923 -511.385382 
L 617.618743 -512.014905 
L 616.168564 -512.523275 
L 614.718385 -513.065473 
L 613.268205 -513.138035 
L 611.818026 -513.389124 
L 610.367847 -513.818382 
L 608.917667 -514.043667 
L 607.467488 -513.702289 
L 606.017309 -513.837291 
L 604.567129 -514.187719 
L 603.11695 -513.540324 
L 601.666771 -512.845172 
L 600.216591 -512.332387 
L 598.766412 -510.738037 
L 597.316233 -509.302992 
L 595.866053 -506.837953 
L 594.415874 -505.00186 
L 592.965695 -502.201388 
L 591.515515 -499.849759 
L 590.065336 -498.462082 
L 588.615157 -497.248449 
L 587.164977 -495.922629 
L 585.714798 -494.861177 
L 584.264619 -494.65945 
L 582.814439 -495.086981 
L 581.36426 -495.332773 
L 579.914081 -496.493065 
L 578.463901 -498.443501 
L 577.013722 -501.590873 
L 575.563543 -503.946696 
L 574.113363 -506.744955 
L 572.663184 -510.058274 
L 571.213005 -512.880074 
L 569.762826 -513.096459 
L 568.312646 -514.619025 
L 566.862467 -515.085234 
L 565.412288 -515.259825 
L 563.962108 -514.260946 
L 562.511929 -515.040538 
L 561.06175 -515.243793 
L 559.61157 -516.677313 
L 558.161391 -518.960848 
L 556.711212 -521.130763 
L 555.261032 -524.032665 
L 553.810853 -528.426329 
L 552.360674 -533.063851 
L 550.910494 -537.920282 
L 549.460315 -543.344244 
L 548.010136 -547.469676 
L 546.559956 -549.463139 
L 545.109777 -550.734394 
L 543.659598 -551.252292 
L 542.209418 -550.361674 
L 540.759239 -549.665502 
L 539.30906 -548.155818 
L 537.85888 -546.10976 
L 536.408701 -542.752227 
L 534.958522 -538.557646 
L 533.508342 -536.073395 
L 532.058163 -533.831971 
L 530.607984 -533.610136 
L 529.157804 -536.01304 
L 527.707625 -539.508581 
L 526.257446 -543.346333 
L 524.807266 -547.291799 
L 523.357087 -549.423389 
L 521.906908 -551.525786 
L 520.456729 -551.843605 
L 519.006549 -550.338416 
L 517.55637 -548.571823 
L 516.106191 -547.788601 
L 514.656011 -547.637245 
L 513.205832 -548.755957 
L 511.755653 -550.053509 
L 510.305473 -551.428058 
L 508.855294 -552.366266 
L 507.405115 -552.938199 
L 505.954935 -554.073728 
L 504.504756 -556.882741 
L 503.054577 -560.942204 
L 501.604397 -565.473832 
L 500.154218 -570.990649 
L 498.704039 -576.455341 
L 497.253859 -581.943807 
L 495.80368 -588.738858 
L 494.353501 -595.17898 
L 492.903321 -600.758384 
L 491.453142 -605.932219 
L 490.002963 -608.919293 
L 488.552783 -610.383383 
L 487.102604 -610.217001 
L 485.652425 -608.811093 
L 484.202245 -605.824051 
L 482.752066 -601.154544 
L 481.301887 -593.882051 
L 479.851707 -583.32368 
L 478.401528 -568.341883 
L 476.951349 -547.753988 
L 475.501169 -533.130012 
L 474.05099 -523.09346 
L 472.600811 -517.727313 
L 471.150632 -515.493087 
L 469.700452 -514.768696 
L 468.250273 -514.585726 
L 466.800094 -514.549711 
L 465.349914 -514.544218 
L 463.899735 -514.544218 
L 462.449556 -514.544218 
L 460.999376 -514.544218 
L 459.549197 -514.544218 
L 458.099018 -514.544218 
L 456.648838 -514.544218 
L 455.198659 -514.544218 
L 453.74848 -514.544218 
L 452.2983 -514.544218 
L 450.848121 -514.544218 
L 449.397942 -514.544218 
L 447.947762 -514.544218 
L 446.497583 -514.544218 
L 445.047404 -514.544218 
L 443.597224 -514.544218 
L 442.147045 -514.544218 
L 440.696866 -514.544218 
L 439.246686 -514.544218 
L 437.796507 -514.544218 
L 436.346328 -514.544218 
L 434.896148 -514.544218 
L 433.445969 -514.544218 
L 431.99579 -514.544218 
L 430.54561 -514.544218 
L 429.095431 -514.544218 
L 427.645252 -514.544218 
L 426.195073 -514.544218 
L 424.744893 -514.544218 
L 423.294714 -514.544218 
L 421.844535 -514.544218 
L 420.394355 -514.544218 
L 418.944176 -514.544218 
L 417.493997 -514.544218 
L 416.043817 -514.544218 
L 414.593638 -514.544218 
L 413.143459 -514.544218 
L 411.693279 -514.544218 
L 410.2431 -514.544218 
L 408.792921 -514.544218 
L 407.342741 -514.544218 
L 405.892562 -514.544218 
z
" style="stroke: #d62728; stroke-opacity: 0.2"/>
    </defs>
    <g clip-path="url(#pf2e96eaeff)">
     <use xlink:href="#m30d6472355" x="0" y="720" style="fill: #d62728; fill-opacity: 0.2; stroke: #d62728; stroke-opacity: 0.2"/>
    </g>
   </g>
   <g id="PolyCollection_4">
    <defs>
     <path id="m8215bd6efb" d="M 405.892562 -505.377899 
L 405.892562 -500.260216 
L 407.342741 -500.076954 
L 408.792921 -499.403362 
L 410.2431 -499.80062 
L 411.693279 -499.500441 
L 413.143459 -499.071949 
L 414.593638 -498.232698 
L 416.043817 -497.695895 
L 417.493997 -496.388412 
L 418.944176 -496.445396 
L 420.394355 -497.464115 
L 421.844535 -498.919178 
L 423.294714 -500.767525 
L 424.744893 -502.251225 
L 426.195073 -504.904729 
L 427.645252 -507.321556 
L 429.095431 -508.159094 
L 430.54561 -507.708658 
L 431.99579 -504.08826 
L 433.445969 -496.740346 
L 434.896148 -484.13769 
L 436.346328 -467.374757 
L 437.796507 -448.300338 
L 439.246686 -429.631721 
L 440.696866 -414.84593 
L 442.147045 -404.564847 
L 443.597224 -398.656753 
L 445.047404 -397.740496 
L 446.497583 -399.70195 
L 447.947762 -404.116381 
L 449.397942 -410.306757 
L 450.848121 -416.916857 
L 452.2983 -423.561203 
L 453.74848 -429.305855 
L 455.198659 -434.534675 
L 456.648838 -438.924989 
L 458.099018 -443.95349 
L 459.549197 -448.116912 
L 460.999376 -452.717914 
L 462.449556 -457.948129 
L 463.899735 -462.829837 
L 465.349914 -466.333912 
L 466.800094 -468.969214 
L 468.250273 -469.737515 
L 469.700452 -468.941197 
L 471.150632 -467.060359 
L 472.600811 -464.280607 
L 474.05099 -461.15638 
L 475.501169 -458.391238 
L 476.951349 -456.028277 
L 478.401528 -455.002858 
L 479.851707 -455.037503 
L 481.301887 -455.327735 
L 482.752066 -455.782807 
L 484.202245 -455.301279 
L 485.652425 -454.036341 
L 487.102604 -452.439197 
L 488.552783 -451.425493 
L 490.002963 -452.931828 
L 491.453142 -455.548273 
L 492.903321 -460.21209 
L 494.353501 -465.476905 
L 495.80368 -470.965222 
L 497.253859 -476.247962 
L 498.704039 -480.95399 
L 500.154218 -485.539251 
L 501.604397 -488.672911 
L 503.054577 -491.057666 
L 504.504756 -493.630796 
L 505.954935 -496.194266 
L 507.405115 -497.860313 
L 508.855294 -499.420565 
L 510.305473 -500.69636 
L 511.755653 -501.379346 
L 513.205832 -500.383741 
L 514.656011 -499.463385 
L 516.106191 -498.166856 
L 517.55637 -496.02506 
L 519.006549 -494.195687 
L 520.456729 -493.219251 
L 521.906908 -492.694767 
L 523.357087 -492.948959 
L 524.807266 -492.974088 
L 526.257446 -491.695147 
L 527.707625 -488.927377 
L 529.157804 -486.352857 
L 530.607984 -483.407408 
L 532.058163 -481.35593 
L 533.508342 -480.116314 
L 534.958522 -479.814574 
L 536.408701 -480.017298 
L 537.85888 -479.323465 
L 539.30906 -478.020465 
L 540.759239 -476.587969 
L 542.209418 -474.860967 
L 543.659598 -474.917631 
L 545.109777 -475.940575 
L 546.559956 -477.127589 
L 548.010136 -478.106007 
L 549.460315 -479.706503 
L 550.910494 -481.633418 
L 552.360674 -483.890518 
L 553.810853 -485.752978 
L 555.261032 -486.752793 
L 556.711212 -486.981689 
L 558.161391 -486.446107 
L 559.61157 -485.731097 
L 561.06175 -484.383994 
L 562.511929 -483.027503 
L 563.962108 -482.387726 
L 565.412288 -482.901475 
L 566.862467 -484.872075 
L 568.312646 -487.554095 
L 569.762826 -490.993767 
L 571.213005 -494.216646 
L 572.663184 -498.069368 
L 574.113363 -501.610366 
L 575.563543 -504.16863 
L 577.013722 -507.07893 
L 578.463901 -508.489499 
L 579.914081 -509.179249 
L 581.36426 -508.978263 
L 582.814439 -507.720297 
L 584.264619 -505.4812 
L 585.714798 -502.205739 
L 587.164977 -498.065907 
L 588.615157 -493.621723 
L 590.065336 -490.654632 
L 591.515515 -487.354594 
L 592.965695 -484.607548 
L 594.415874 -481.78758 
L 595.866053 -479.637922 
L 597.316233 -477.966919 
L 598.766412 -476.160266 
L 600.216591 -475.246202 
L 601.666771 -473.722436 
L 603.11695 -472.188098 
L 604.567129 -470.59852 
L 606.017309 -469.13943 
L 607.467488 -468.448356 
L 608.917667 -469.28816 
L 610.367847 -471.047041 
L 611.818026 -473.49584 
L 613.268205 -475.773684 
L 614.718385 -477.571912 
L 616.168564 -478.603817 
L 617.618743 -478.549659 
L 619.068923 -478.55646 
L 620.519102 -477.175795 
L 621.969281 -476.458881 
L 623.41946 -475.266398 
L 624.86964 -474.669113 
L 626.319819 -475.057158 
L 627.769998 -478.191448 
L 629.220178 -483.308512 
L 630.670357 -489.331994 
L 632.120536 -495.652311 
L 633.570716 -500.300662 
L 635.020895 -504.035532 
L 636.471074 -504.770068 
L 636.471074 -508.317068 
L 636.471074 -508.317068 
L 635.020895 -506.61228 
L 633.570716 -504.926032 
L 632.120536 -500.910781 
L 630.670357 -496.130683 
L 629.220178 -490.569522 
L 627.769998 -485.982506 
L 626.319819 -482.913393 
L 624.86964 -480.800826 
L 623.41946 -480.536024 
L 621.969281 -481.321375 
L 620.519102 -483.08187 
L 619.068923 -483.664974 
L 617.618743 -484.463296 
L 616.168564 -483.821057 
L 614.718385 -482.842388 
L 613.268205 -481.165102 
L 611.818026 -478.849677 
L 610.367847 -476.645778 
L 608.917667 -475.009887 
L 607.467488 -474.508049 
L 606.017309 -474.564648 
L 604.567129 -475.51485 
L 603.11695 -477.341029 
L 601.666771 -479.436508 
L 600.216591 -481.131736 
L 598.766412 -483.02177 
L 597.316233 -484.230729 
L 595.866053 -486.400847 
L 594.415874 -488.919602 
L 592.965695 -491.175353 
L 591.515515 -493.78228 
L 590.065336 -496.528556 
L 588.615157 -500.683388 
L 587.164977 -504.094703 
L 585.714798 -507.494525 
L 584.264619 -510.388989 
L 582.814439 -512.522062 
L 581.36426 -513.967408 
L 579.914081 -514.90453 
L 578.463901 -514.921074 
L 577.013722 -513.57894 
L 575.563543 -511.85286 
L 574.113363 -508.510143 
L 572.663184 -505.471991 
L 571.213005 -502.397351 
L 569.762826 -498.604381 
L 568.312646 -495.379148 
L 566.862467 -492.446953 
L 565.412288 -490.659771 
L 563.962108 -489.779271 
L 562.511929 -489.933561 
L 561.06175 -490.711717 
L 559.61157 -491.726673 
L 558.161391 -492.698266 
L 556.711212 -492.710519 
L 555.261032 -492.212175 
L 553.810853 -491.217282 
L 552.360674 -490.058862 
L 550.910494 -488.883016 
L 549.460315 -487.632285 
L 548.010136 -486.439237 
L 546.559956 -484.608369 
L 545.109777 -482.895495 
L 543.659598 -481.803905 
L 542.209418 -481.728454 
L 540.759239 -482.107305 
L 539.30906 -483.932191 
L 537.85888 -485.447041 
L 536.408701 -486.201322 
L 534.958522 -486.749884 
L 533.508342 -486.860759 
L 532.058163 -487.43265 
L 530.607984 -489.340852 
L 529.157804 -492.148955 
L 527.707625 -495.658408 
L 526.257446 -497.51418 
L 524.807266 -498.466557 
L 523.357087 -498.86575 
L 521.906908 -499.112491 
L 520.456729 -499.503111 
L 519.006549 -500.781799 
L 517.55637 -502.136573 
L 516.106191 -503.357231 
L 514.656011 -504.94932 
L 513.205832 -506.036824 
L 511.755653 -505.90114 
L 510.305473 -506.071331 
L 508.855294 -505.354127 
L 507.405115 -503.626789 
L 505.954935 -501.234788 
L 504.504756 -499.530023 
L 503.054577 -497.667389 
L 501.604397 -494.739106 
L 500.154218 -490.787506 
L 498.704039 -486.347836 
L 497.253859 -480.839006 
L 495.80368 -475.582876 
L 494.353501 -470.471035 
L 492.903321 -465.19745 
L 491.453142 -460.462619 
L 490.002963 -456.838325 
L 488.552783 -456.615512 
L 487.102604 -457.648334 
L 485.652425 -459.524766 
L 484.202245 -460.963226 
L 482.752066 -461.524744 
L 481.301887 -461.66877 
L 479.851707 -461.217484 
L 478.401528 -461.224806 
L 476.951349 -461.879287 
L 475.501169 -463.280676 
L 474.05099 -465.951532 
L 472.600811 -469.022933 
L 471.150632 -472.137335 
L 469.700452 -474.721517 
L 468.250273 -475.783652 
L 466.800094 -474.853449 
L 465.349914 -472.012024 
L 463.899735 -467.083343 
L 462.449556 -462.093788 
L 460.999376 -457.355948 
L 459.549197 -452.476953 
L 458.099018 -447.641307 
L 456.648838 -443.930992 
L 455.198659 -439.389783 
L 453.74848 -434.676298 
L 452.2983 -428.708805 
L 450.848121 -422.0008 
L 449.397942 -414.968197 
L 447.947762 -409.203017 
L 446.497583 -405.100916 
L 445.047404 -403.33355 
L 443.597224 -404.945151 
L 442.147045 -409.688651 
L 440.696866 -419.722408 
L 439.246686 -434.722722 
L 437.796507 -452.413287 
L 436.346328 -471.056021 
L 434.896148 -487.634264 
L 433.445969 -499.974869 
L 431.99579 -508.084181 
L 430.54561 -511.754107 
L 429.095431 -512.649952 
L 427.645252 -510.987952 
L 426.195073 -508.917421 
L 424.744893 -506.711061 
L 423.294714 -503.960414 
L 421.844535 -502.4879 
L 420.394355 -501.655761 
L 418.944176 -501.718307 
L 417.493997 -502.255808 
L 416.043817 -502.421697 
L 414.593638 -503.607189 
L 413.143459 -504.157518 
L 411.693279 -504.573228 
L 410.2431 -504.714387 
L 408.792921 -505.466623 
L 407.342741 -505.221337 
L 405.892562 -505.377899 
z
" style="stroke: #ff7f0e; stroke-opacity: 0.2"/>
    </defs>
    <g clip-path="url(#pf2e96eaeff)">
     <use xlink:href="#m8215bd6efb" x="0" y="720" style="fill: #ff7f0e; fill-opacity: 0.2; stroke: #ff7f0e; stroke-opacity: 0.2"/>
    </g>
   </g>
   <g id="matplotlib.axis_3">
    <g id="xtick_6">
     <g id="line2d_16">
      <g>
       <use xlink:href="#m0c5ad1f71d" x="405.863558" y="333.490909" style="stroke: #000000; stroke-width: 0.8"/>
      </g>
     </g>
     <g id="text_15">
      <!-- 0 -->
      <g transform="translate(402.682308 348.089347)scale(0.1 -0.1)">
       <use xlink:href="#DejaVuSans-30"/>
      </g>
     </g>
    </g>
    <g id="xtick_7">
     <g id="line2d_17">
      <g>
       <use xlink:href="#m0c5ad1f71d" x="463.870731" y="333.490909" style="stroke: #000000; stroke-width: 0.8"/>
      </g>
     </g>
     <g id="text_16">
      <!-- 2000 -->
      <g transform="translate(451.145731 348.089347)scale(0.1 -0.1)">
       <use xlink:href="#DejaVuSans-32"/>
       <use xlink:href="#DejaVuSans-30" x="63.623047"/>
       <use xlink:href="#DejaVuSans-30" x="127.246094"/>
       <use xlink:href="#DejaVuSans-30" x="190.869141"/>
      </g>
     </g>
    </g>
    <g id="xtick_8">
     <g id="line2d_18">
      <g>
       <use xlink:href="#m0c5ad1f71d" x="521.877904" y="333.490909" style="stroke: #000000; stroke-width: 0.8"/>
      </g>
     </g>
     <g id="text_17">
      <!-- 4000 -->
      <g transform="translate(509.152904 348.089347)scale(0.1 -0.1)">
       <use xlink:href="#DejaVuSans-34"/>
       <use xlink:href="#DejaVuSans-30" x="63.623047"/>
       <use xlink:href="#DejaVuSans-30" x="127.246094"/>
       <use xlink:href="#DejaVuSans-30" x="190.869141"/>
      </g>
     </g>
    </g>
    <g id="xtick_9">
     <g id="line2d_19">
      <g>
       <use xlink:href="#m0c5ad1f71d" x="579.885077" y="333.490909" style="stroke: #000000; stroke-width: 0.8"/>
      </g>
     </g>
     <g id="text_18">
      <!-- 6000 -->
      <g transform="translate(567.160077 348.089347)scale(0.1 -0.1)">
       <use xlink:href="#DejaVuSans-36"/>
       <use xlink:href="#DejaVuSans-30" x="63.623047"/>
       <use xlink:href="#DejaVuSans-30" x="127.246094"/>
       <use xlink:href="#DejaVuSans-30" x="190.869141"/>
      </g>
     </g>
    </g>
    <g id="xtick_10">
     <g id="line2d_20">
      <g>
       <use xlink:href="#m0c5ad1f71d" x="637.89225" y="333.490909" style="stroke: #000000; stroke-width: 0.8"/>
      </g>
     </g>
     <g id="text_19">
      <!-- 8000 -->
      <g transform="translate(625.16725 348.089347)scale(0.1 -0.1)">
       <use xlink:href="#DejaVuSans-38"/>
       <use xlink:href="#DejaVuSans-30" x="63.623047"/>
       <use xlink:href="#DejaVuSans-30" x="127.246094"/>
       <use xlink:href="#DejaVuSans-30" x="190.869141"/>
      </g>
     </g>
    </g>
   </g>
   <g id="matplotlib.axis_4">
    <g id="ytick_7">
     <g id="line2d_21">
      <g>
       <use xlink:href="#m9e9510219a" x="394.363636" y="318.707686" style="stroke: #000000; stroke-width: 0.8"/>
      </g>
     </g>
     <g id="text_20">
      <!-- 4 -->
      <g transform="translate(372.621449 322.506905)scale(0.1 -0.1)">
       <defs>
        <path id="DejaVuSans-2212" d="M 678 2272 
L 4684 2272 
L 4684 1741 
L 678 1741 
L 678 2272 
z
" transform="scale(0.015625)"/>
       </defs>
       <use xlink:href="#DejaVuSans-2212"/>
       <use xlink:href="#DejaVuSans-34" x="83.789062"/>
      </g>
     </g>
    </g>
    <g id="ytick_8">
     <g id="line2d_22">
      <g>
       <use xlink:href="#m9e9510219a" x="394.363636" y="290.39471" style="stroke: #000000; stroke-width: 0.8"/>
      </g>
     </g>
     <g id="text_21">
      <!-- 3 -->
      <g transform="translate(372.621449 294.193929)scale(0.1 -0.1)">
       <defs>
        <path id="DejaVuSans-33" d="M 2597 2516 
Q 3050 2419 3304 2112 
Q 3559 1806 3559 1356 
Q 3559 666 3084 287 
Q 2609 -91 1734 -91 
Q 1441 -91 1130 -33 
Q 819 25 488 141 
L 488 750 
Q 750 597 1062 519 
Q 1375 441 1716 441 
Q 2309 441 2620 675 
Q 2931 909 2931 1356 
Q 2931 1769 2642 2001 
Q 2353 2234 1838 2234 
L 1294 2234 
L 1294 2753 
L 1863 2753 
Q 2328 2753 2575 2939 
Q 2822 3125 2822 3475 
Q 2822 3834 2567 4026 
Q 2313 4219 1838 4219 
Q 1578 4219 1281 4162 
Q 984 4106 628 3988 
L 628 4550 
Q 988 4650 1302 4700 
Q 1616 4750 1894 4750 
Q 2613 4750 3031 4423 
Q 3450 4097 3450 3541 
Q 3450 3153 3228 2886 
Q 3006 2619 2597 2516 
z
" transform="scale(0.015625)"/>
       </defs>
       <use xlink:href="#DejaVuSans-2212"/>
       <use xlink:href="#DejaVuSans-33" x="83.789062"/>
      </g>
     </g>
    </g>
    <g id="ytick_9">
     <g id="line2d_23">
      <g>
       <use xlink:href="#m9e9510219a" x="394.363636" y="262.081734" style="stroke: #000000; stroke-width: 0.8"/>
      </g>
     </g>
     <g id="text_22">
      <!-- 2 -->
      <g transform="translate(372.621449 265.880953)scale(0.1 -0.1)">
       <use xlink:href="#DejaVuSans-2212"/>
       <use xlink:href="#DejaVuSans-32" x="83.789062"/>
      </g>
     </g>
    </g>
    <g id="ytick_10">
     <g id="line2d_24">
      <g>
       <use xlink:href="#m9e9510219a" x="394.363636" y="233.768758" style="stroke: #000000; stroke-width: 0.8"/>
      </g>
     </g>
     <g id="text_23">
      <!-- 1 -->
      <g transform="translate(372.621449 237.567977)scale(0.1 -0.1)">
       <use xlink:href="#DejaVuSans-2212"/>
       <use xlink:href="#DejaVuSans-31" x="83.789062"/>
      </g>
     </g>
    </g>
    <g id="ytick_11">
     <g id="line2d_25">
      <g>
       <use xlink:href="#m9e9510219a" x="394.363636" y="205.455782" style="stroke: #000000; stroke-width: 0.8"/>
      </g>
     </g>
     <g id="text_24">
      <!-- 0 -->
      <g transform="translate(381.001136 209.255)scale(0.1 -0.1)">
       <use xlink:href="#DejaVuSans-30"/>
      </g>
     </g>
    </g>
    <g id="ytick_12">
     <g id="line2d_26">
      <g>
       <use xlink:href="#m9e9510219a" x="394.363636" y="177.142805" style="stroke: #000000; stroke-width: 0.8"/>
      </g>
     </g>
     <g id="text_25">
      <!-- 1 -->
      <g transform="translate(381.001136 180.942024)scale(0.1 -0.1)">
       <use xlink:href="#DejaVuSans-31"/>
      </g>
     </g>
    </g>
    <g id="ytick_13">
     <g id="line2d_27">
      <g>
       <use xlink:href="#m9e9510219a" x="394.363636" y="148.829829" style="stroke: #000000; stroke-width: 0.8"/>
      </g>
     </g>
     <g id="text_26">
      <!-- 2 -->
      <g transform="translate(381.001136 152.629048)scale(0.1 -0.1)">
       <use xlink:href="#DejaVuSans-32"/>
      </g>
     </g>
    </g>
    <g id="ytick_14">
     <g id="line2d_28">
      <g>
       <use xlink:href="#m9e9510219a" x="394.363636" y="120.516853" style="stroke: #000000; stroke-width: 0.8"/>
      </g>
     </g>
     <g id="text_27">
      <!-- 3 -->
      <g transform="translate(381.001136 124.316072)scale(0.1 -0.1)">
       <use xlink:href="#DejaVuSans-33"/>
      </g>
     </g>
    </g>
    <g id="ytick_15">
     <g id="line2d_29">
      <g>
       <use xlink:href="#m9e9510219a" x="394.363636" y="92.203877" style="stroke: #000000; stroke-width: 0.8"/>
      </g>
     </g>
     <g id="text_28">
      <!-- 4 -->
      <g transform="translate(381.001136 96.003096)scale(0.1 -0.1)">
       <use xlink:href="#DejaVuSans-34"/>
      </g>
     </g>
    </g>
   </g>
   <g id="line2d_30">
    <path d="M 405.892562 205.455782 
L 427.645252 205.517456 
L 429.095431 205.675782 
L 430.54561 206.089587 
L 431.99579 206.941838 
L 433.445969 208.307517 
L 434.896148 209.936601 
L 436.346328 211.145184 
L 437.796507 210.996773 
L 439.246686 208.769347 
L 440.696866 204.473128 
L 443.597224 193.947026 
L 445.047404 190.404062 
L 446.497583 188.876231 
L 447.947762 189.187142 
L 449.397942 190.92099 
L 450.848121 193.599685 
L 453.74848 199.545979 
L 455.198659 201.838825 
L 456.648838 203.424857 
L 458.099018 204.386163 
L 459.549197 204.659837 
L 460.999376 203.616524 
L 462.449556 200.01566 
L 463.899735 192.589012 
L 465.349914 180.852158 
L 466.800094 165.472645 
L 469.700452 130.645288 
L 471.150632 115.664452 
L 472.600811 105.517286 
L 474.05099 102.360543 
L 475.501169 107.383269 
L 476.951349 119.723063 
L 479.851707 151.312739 
L 481.301887 162.374289 
L 482.752066 168.374747 
L 484.202245 170.588497 
L 485.652425 170.7821 
L 487.102604 170.351003 
L 488.552783 170.257495 
L 490.002963 171.197589 
L 491.453142 173.634173 
L 492.903321 177.663363 
L 497.253859 193.545082 
L 498.704039 197.635428 
L 500.154218 200.6057 
L 501.604397 202.598049 
L 503.054577 203.826387 
L 504.504756 204.48315 
L 505.954935 204.743719 
L 510.305473 205.002784 
L 514.656011 205.934043 
L 516.106191 205.930455 
L 517.55637 205.524222 
L 519.006549 204.620987 
L 520.456729 203.197771 
L 521.906908 201.3287 
L 523.357087 199.151673 
L 526.257446 194.221314 
L 529.157804 189.120366 
L 530.607984 187.325705 
L 532.058163 186.42859 
L 534.958522 185.95821 
L 536.408701 185.468773 
L 537.85888 184.843028 
L 539.30906 184.548576 
L 540.759239 184.99739 
L 542.209418 186.34477 
L 543.659598 188.532478 
L 545.109777 191.374753 
L 548.010136 197.665224 
L 549.460315 200.354129 
L 550.910494 202.493738 
L 552.360674 204.128941 
L 553.810853 205.302973 
L 555.261032 205.948692 
L 556.711212 205.957457 
L 558.161391 205.343222 
L 561.06175 203.256832 
L 562.511929 202.435474 
L 563.962108 201.966211 
L 568.312646 201.260553 
L 569.762826 200.768416 
L 571.213005 199.696484 
L 572.663184 197.442294 
L 574.113363 193.626892 
L 578.463901 178.057702 
L 579.914081 174.051904 
L 581.36426 171.450937 
L 582.814439 170.657942 
L 584.264619 171.913085 
L 585.714798 175.03972 
L 587.164977 179.473748 
L 590.065336 189.470953 
L 591.515515 193.796492 
L 592.965695 197.142733 
L 594.415874 199.460172 
L 595.866053 200.893549 
L 597.316233 201.632314 
L 598.766412 201.890621 
L 601.666771 202.034142 
L 604.567129 202.577768 
L 608.917667 203.482315 
L 610.367847 203.918365 
L 613.268205 205.197529 
L 614.718385 205.825105 
L 616.168564 206.168331 
L 617.618743 206.060073 
L 619.068923 205.339996 
L 620.519102 203.681844 
L 621.969281 200.625229 
L 623.41946 196.024652 
L 624.86964 190.561899 
L 626.319819 185.677835 
L 627.769998 182.806212 
L 629.220178 182.534866 
L 630.670357 184.368747 
L 633.570716 189.843711 
L 635.020895 191.741714 
L 636.471074 192.681914 
L 636.471074 192.681914 
" clip-path="url(#pf2e96eaeff)" style="fill: none; stroke: #9467bd; stroke-width: 2; stroke-linecap: square"/>
   </g>
   <g id="line2d_31">
    <path d="M 405.892562 205.455782 
L 636.471074 205.455782 
L 636.471074 205.455782 
" clip-path="url(#pf2e96eaeff)" style="fill: none; stroke: #1f77b4; stroke-width: 2; stroke-linecap: square"/>
   </g>
   <g id="line2d_32">
    <path d="M 405.892562 205.455782 
L 468.250273 205.414274 
L 469.700452 205.231304 
L 471.150632 204.506913 
L 472.600811 202.272687 
L 474.05099 196.90654 
L 475.501169 186.869988 
L 476.951349 172.246012 
L 478.401528 155.607744 
L 479.851707 140.691509 
L 481.301887 129.830588 
L 482.752066 122.861003 
L 484.202245 118.345547 
L 485.652425 115.265381 
L 487.102604 113.48525 
L 488.552783 113.222331 
L 490.002963 114.575965 
L 491.453142 117.516319 
L 492.903321 121.968641 
L 494.353501 127.689062 
L 498.704039 146.83138 
L 501.604397 157.984415 
L 503.054577 162.69935 
L 504.504756 166.443676 
L 505.954935 168.999305 
L 507.405115 170.445119 
L 510.305473 171.999066 
L 511.755653 173.131247 
L 513.205832 174.44758 
L 514.656011 175.327632 
L 516.106191 175.195389 
L 517.55637 173.980299 
L 519.006549 172.277486 
L 520.456729 171.120902 
L 521.906908 171.427112 
L 523.357087 173.433716 
L 524.807266 176.630618 
L 527.707625 183.84128 
L 529.157804 186.922882 
L 530.607984 188.861914 
L 532.058163 188.908833 
L 533.508342 186.817194 
L 534.958522 183.192507 
L 536.408701 179.180622 
L 537.85888 175.783191 
L 539.30906 173.397298 
L 540.759239 171.888304 
L 542.209418 170.981639 
L 543.659598 170.581567 
L 545.109777 170.882239 
L 546.559956 172.30525 
L 548.010136 175.220761 
L 549.460315 179.561864 
L 552.360674 189.862345 
L 553.810853 194.356343 
L 555.261032 197.921124 
L 556.711212 200.583507 
L 558.161391 202.540755 
L 559.61157 203.996346 
L 561.06175 205.051803 
L 562.511929 205.725811 
L 563.962108 206.041291 
L 566.862467 206.122454 
L 568.312646 206.436385 
L 569.762826 207.368032 
L 571.213005 209.139515 
L 572.663184 211.806755 
L 577.013722 222.079672 
L 578.463901 224.776537 
L 579.914081 226.940614 
L 581.36426 228.635667 
L 582.814439 229.652652 
L 584.264619 229.690746 
L 585.714798 228.762557 
L 588.615157 225.674053 
L 590.065336 224.03038 
L 591.515515 222.133723 
L 592.965695 219.835071 
L 595.866053 214.668705 
L 597.316233 212.367141 
L 598.766412 210.493955 
L 600.216591 209.056389 
L 601.666771 207.997406 
L 603.11695 207.281792 
L 604.567129 206.902422 
L 606.017309 206.8222 
L 608.917667 207.145687 
L 611.818026 207.641447 
L 614.718385 208.42416 
L 617.618743 209.427705 
L 619.068923 210.251817 
L 620.519102 211.871121 
L 621.969281 214.885646 
L 623.41946 219.474055 
L 624.86964 224.926536 
L 626.319819 229.764559 
L 627.769998 232.476989 
L 629.220178 232.342564 
L 630.670357 229.783 
L 633.570716 222.504211 
L 635.020895 219.985308 
L 636.471074 218.742199 
L 636.471074 218.742199 
" clip-path="url(#pf2e96eaeff)" style="fill: none; stroke: #d62728; stroke-width: 2; stroke-linecap: square"/>
   </g>
   <g id="line2d_33">
    <path d="M 405.892562 217.180942 
L 411.693279 217.963165 
L 413.143459 218.385267 
L 414.593638 219.080056 
L 417.493997 220.67789 
L 418.944176 220.918148 
L 420.394355 220.440062 
L 421.844535 219.296461 
L 423.294714 217.636031 
L 424.744893 215.518857 
L 427.645252 210.845246 
L 429.095431 209.595477 
L 430.54561 210.268618 
L 431.99579 213.913779 
L 433.445969 221.642393 
L 434.896148 234.114023 
L 436.346328 250.784611 
L 439.246686 287.822778 
L 440.696866 302.715831 
L 442.147045 312.873251 
L 443.597224 318.199048 
L 445.047404 319.462977 
L 446.497583 317.598567 
L 447.947762 313.340301 
L 449.397942 307.362523 
L 452.2983 293.864996 
L 453.74848 288.008924 
L 455.198659 283.037771 
L 460.999376 264.963069 
L 463.899735 255.04341 
L 465.349914 250.827032 
L 466.800094 248.088669 
L 468.250273 247.239417 
L 469.700452 248.168643 
L 471.150632 250.401153 
L 475.501169 259.164043 
L 476.951349 261.046218 
L 478.401528 261.886168 
L 479.851707 261.872506 
L 481.301887 261.501747 
L 482.752066 261.346224 
L 484.202245 261.867747 
L 485.652425 263.219446 
L 487.102604 264.956235 
L 488.552783 265.979497 
L 490.002963 265.114923 
L 491.453142 261.994554 
L 492.903321 257.29523 
L 498.704039 236.349087 
L 500.154218 231.836622 
L 501.604397 228.293992 
L 503.054577 225.637473 
L 505.954935 221.285473 
L 507.405115 219.256449 
L 508.855294 217.612654 
L 510.305473 216.616155 
L 511.755653 216.359757 
L 513.205832 216.789717 
L 514.656011 217.793648 
L 516.106191 219.237957 
L 519.006549 222.511257 
L 520.456729 223.638819 
L 521.906908 224.096371 
L 523.357087 224.092646 
L 524.807266 224.279678 
L 526.257446 225.395336 
L 527.707625 227.707107 
L 530.607984 233.62587 
L 532.058163 235.60571 
L 533.508342 236.511463 
L 536.408701 236.89069 
L 537.85888 237.614747 
L 539.30906 239.023672 
L 540.759239 240.652363 
L 542.209418 241.70529 
L 543.659598 241.639232 
L 545.109777 240.581965 
L 550.910494 234.741783 
L 552.360674 233.02531 
L 553.810853 231.51487 
L 555.261032 230.517516 
L 556.711212 230.153896 
L 558.161391 230.427813 
L 559.61157 231.271115 
L 562.511929 233.519468 
L 563.962108 233.916501 
L 565.412288 233.219377 
L 566.862467 231.340486 
L 568.312646 228.533378 
L 571.213005 221.693002 
L 574.113363 214.939746 
L 575.563543 211.989255 
L 577.013722 209.671065 
L 578.463901 208.294714 
L 579.914081 207.95811 
L 581.36426 208.527165 
L 582.814439 209.87882 
L 584.264619 212.064906 
L 585.714798 215.149868 
L 590.065336 226.408406 
L 591.515515 229.431563 
L 594.415874 234.646409 
L 595.866053 236.980615 
L 597.316233 238.901176 
L 601.666771 243.420528 
L 604.567129 246.943315 
L 606.017309 248.147961 
L 607.467488 248.521798 
L 608.917667 247.850976 
L 610.367847 246.15359 
L 613.268205 241.530607 
L 614.718385 239.79285 
L 616.168564 238.787563 
L 617.618743 238.493522 
L 619.068923 238.889283 
L 620.519102 239.871168 
L 621.969281 241.109872 
L 623.41946 242.098789 
L 624.86964 242.265031 
L 626.319819 241.014724 
L 627.769998 237.913023 
L 629.220178 233.060983 
L 632.120536 221.718454 
L 633.570716 217.386653 
L 635.020895 214.676094 
L 636.471074 213.456432 
L 636.471074 213.456432 
" clip-path="url(#pf2e96eaeff)" style="fill: none; stroke: #ff7f0e; stroke-width: 2; stroke-linecap: square"/>
   </g>
   <g id="LineCollection_1">
    <path d="M 434.867145 311.719675 
L 434.867145 117.069254 
" clip-path="url(#pf2e96eaeff)" style="fill: none; stroke-dasharray: 7.4,3.2; stroke-dashoffset: 0; stroke: #000000; stroke-width: 2"/>
    <path d="M 449.368938 311.719675 
L 449.368938 117.069254 
" clip-path="url(#pf2e96eaeff)" style="fill: none; stroke-dasharray: 7.4,3.2; stroke-dashoffset: 0; stroke: #000000; stroke-width: 2"/>
    <path d="M 478.372525 311.719675 
L 478.372525 117.069254 
" clip-path="url(#pf2e96eaeff)" style="fill: none; stroke-dasharray: 7.4,3.2; stroke-dashoffset: 0; stroke: #000000; stroke-width: 2"/>
    <path d="M 536.379697 311.719675 
L 536.379697 117.069254 
" clip-path="url(#pf2e96eaeff)" style="fill: none; stroke-dasharray: 7.4,3.2; stroke-dashoffset: 0; stroke: #000000; stroke-width: 2"/>
   </g>
   <g id="patch_9">
    <path d="M 394.363636 333.490909 
L 394.363636 86.4 
" style="fill: none; stroke: #000000; stroke-width: 0.8; stroke-linejoin: miter; stroke-linecap: square"/>
   </g>
   <g id="patch_10">
    <path d="M 648 333.490909 
L 648 86.4 
" style="fill: none; stroke: #000000; stroke-width: 0.8; stroke-linejoin: miter; stroke-linecap: square"/>
   </g>
   <g id="patch_11">
    <path d="M 394.363636 333.490909 
L 648 333.490909 
" style="fill: none; stroke: #000000; stroke-width: 0.8; stroke-linejoin: miter; stroke-linecap: square"/>
   </g>
   <g id="patch_12">
    <path d="M 394.363636 86.4 
L 648 86.4 
" style="fill: none; stroke: #000000; stroke-width: 0.8; stroke-linejoin: miter; stroke-linecap: square"/>
   </g>
   <g id="text_29">
    <!-- unit_303 -->
    <g transform="translate(495.105256 80.4)scale(0.12 -0.12)">
     <defs>
      <path id="DejaVuSans-75" d="M 544 1381 
L 544 3500 
L 1119 3500 
L 1119 1403 
Q 1119 906 1312 657 
Q 1506 409 1894 409 
Q 2359 409 2629 706 
Q 2900 1003 2900 1516 
L 2900 3500 
L 3475 3500 
L 3475 0 
L 2900 0 
L 2900 538 
Q 2691 219 2414 64 
Q 2138 -91 1772 -91 
Q 1169 -91 856 284 
Q 544 659 544 1381 
z
M 1991 3584 
L 1991 3584 
z
" transform="scale(0.015625)"/>
      <path id="DejaVuSans-5f" d="M 3263 -1063 
L 3263 -1509 
L -63 -1509 
L -63 -1063 
L 3263 -1063 
z
" transform="scale(0.015625)"/>
     </defs>
     <use xlink:href="#DejaVuSans-75"/>
     <use xlink:href="#DejaVuSans-6e" x="63.378906"/>
     <use xlink:href="#DejaVuSans-69" x="126.757812"/>
     <use xlink:href="#DejaVuSans-74" x="154.541016"/>
     <use xlink:href="#DejaVuSans-5f" x="193.75"/>
     <use xlink:href="#DejaVuSans-33" x="243.75"/>
     <use xlink:href="#DejaVuSans-30" x="307.373047"/>
     <use xlink:href="#DejaVuSans-33" x="370.996094"/>
    </g>
   </g>
  </g>
  <g id="axes_3">
   <g id="patch_13">
    <path d="M 90 630 
L 343.636364 630 
L 343.636364 382.909091 
L 90 382.909091 
z
" style="fill: #ffffff"/>
   </g>
   <g id="matplotlib.axis_5">
    <g id="xtick_11">
     <g id="line2d_34">
      <g>
       <use xlink:href="#m0c5ad1f71d" x="90" y="630" style="stroke: #000000; stroke-width: 0.8"/>
      </g>
     </g>
     <g id="text_30">
      <!-- 0.0 -->
      <g transform="translate(82.048438 644.598437)scale(0.1 -0.1)">
       <defs>
        <path id="DejaVuSans-2e" d="M 684 794 
L 1344 794 
L 1344 0 
L 684 0 
L 684 794 
z
" transform="scale(0.015625)"/>
       </defs>
       <use xlink:href="#DejaVuSans-30"/>
       <use xlink:href="#DejaVuSans-2e" x="63.623047"/>
       <use xlink:href="#DejaVuSans-30" x="95.410156"/>
      </g>
     </g>
    </g>
    <g id="xtick_12">
     <g id="line2d_35">
      <g>
       <use xlink:href="#m0c5ad1f71d" x="140.727273" y="630" style="stroke: #000000; stroke-width: 0.8"/>
      </g>
     </g>
     <g id="text_31">
      <!-- 0.2 -->
      <g transform="translate(132.77571 644.598437)scale(0.1 -0.1)">
       <use xlink:href="#DejaVuSans-30"/>
       <use xlink:href="#DejaVuSans-2e" x="63.623047"/>
       <use xlink:href="#DejaVuSans-32" x="95.410156"/>
      </g>
     </g>
    </g>
    <g id="xtick_13">
     <g id="line2d_36">
      <g>
       <use xlink:href="#m0c5ad1f71d" x="191.454545" y="630" style="stroke: #000000; stroke-width: 0.8"/>
      </g>
     </g>
     <g id="text_32">
      <!-- 0.4 -->
      <g transform="translate(183.502983 644.598437)scale(0.1 -0.1)">
       <use xlink:href="#DejaVuSans-30"/>
       <use xlink:href="#DejaVuSans-2e" x="63.623047"/>
       <use xlink:href="#DejaVuSans-34" x="95.410156"/>
      </g>
     </g>
    </g>
    <g id="xtick_14">
     <g id="line2d_37">
      <g>
       <use xlink:href="#m0c5ad1f71d" x="242.181818" y="630" style="stroke: #000000; stroke-width: 0.8"/>
      </g>
     </g>
     <g id="text_33">
      <!-- 0.6 -->
      <g transform="translate(234.230256 644.598437)scale(0.1 -0.1)">
       <use xlink:href="#DejaVuSans-30"/>
       <use xlink:href="#DejaVuSans-2e" x="63.623047"/>
       <use xlink:href="#DejaVuSans-36" x="95.410156"/>
      </g>
     </g>
    </g>
    <g id="xtick_15">
     <g id="line2d_38">
      <g>
       <use xlink:href="#m0c5ad1f71d" x="292.909091" y="630" style="stroke: #000000; stroke-width: 0.8"/>
      </g>
     </g>
     <g id="text_34">
      <!-- 0.8 -->
      <g transform="translate(284.957528 644.598437)scale(0.1 -0.1)">
       <use xlink:href="#DejaVuSans-30"/>
       <use xlink:href="#DejaVuSans-2e" x="63.623047"/>
       <use xlink:href="#DejaVuSans-38" x="95.410156"/>
      </g>
     </g>
    </g>
    <g id="xtick_16">
     <g id="line2d_39">
      <g>
       <use xlink:href="#m0c5ad1f71d" x="343.636364" y="630" style="stroke: #000000; stroke-width: 0.8"/>
      </g>
     </g>
     <g id="text_35">
      <!-- 1.0 -->
      <g transform="translate(335.684801 644.598437)scale(0.1 -0.1)">
       <use xlink:href="#DejaVuSans-31"/>
       <use xlink:href="#DejaVuSans-2e" x="63.623047"/>
       <use xlink:href="#DejaVuSans-30" x="95.410156"/>
      </g>
     </g>
    </g>
   </g>
   <g id="matplotlib.axis_6">
    <g id="ytick_16">
     <g id="line2d_40">
      <g>
       <use xlink:href="#m9e9510219a" x="90" y="630" style="stroke: #000000; stroke-width: 0.8"/>
      </g>
     </g>
     <g id="text_36">
      <!-- 0.0 -->
      <g transform="translate(67.096875 633.799219)scale(0.1 -0.1)">
       <use xlink:href="#DejaVuSans-30"/>
       <use xlink:href="#DejaVuSans-2e" x="63.623047"/>
       <use xlink:href="#DejaVuSans-30" x="95.410156"/>
      </g>
     </g>
    </g>
    <g id="ytick_17">
     <g id="line2d_41">
      <g>
       <use xlink:href="#m9e9510219a" x="90" y="580.581818" style="stroke: #000000; stroke-width: 0.8"/>
      </g>
     </g>
     <g id="text_37">
      <!-- 0.2 -->
      <g transform="translate(67.096875 584.381037)scale(0.1 -0.1)">
       <use xlink:href="#DejaVuSans-30"/>
       <use xlink:href="#DejaVuSans-2e" x="63.623047"/>
       <use xlink:href="#DejaVuSans-32" x="95.410156"/>
      </g>
     </g>
    </g>
    <g id="ytick_18">
     <g id="line2d_42">
      <g>
       <use xlink:href="#m9e9510219a" x="90" y="531.163636" style="stroke: #000000; stroke-width: 0.8"/>
      </g>
     </g>
     <g id="text_38">
      <!-- 0.4 -->
      <g transform="translate(67.096875 534.962855)scale(0.1 -0.1)">
       <use xlink:href="#DejaVuSans-30"/>
       <use xlink:href="#DejaVuSans-2e" x="63.623047"/>
       <use xlink:href="#DejaVuSans-34" x="95.410156"/>
      </g>
     </g>
    </g>
    <g id="ytick_19">
     <g id="line2d_43">
      <g>
       <use xlink:href="#m9e9510219a" x="90" y="481.745455" style="stroke: #000000; stroke-width: 0.8"/>
      </g>
     </g>
     <g id="text_39">
      <!-- 0.6 -->
      <g transform="translate(67.096875 485.544673)scale(0.1 -0.1)">
       <use xlink:href="#DejaVuSans-30"/>
       <use xlink:href="#DejaVuSans-2e" x="63.623047"/>
       <use xlink:href="#DejaVuSans-36" x="95.410156"/>
      </g>
     </g>
    </g>
    <g id="ytick_20">
     <g id="line2d_44">
      <g>
       <use xlink:href="#m9e9510219a" x="90" y="432.327273" style="stroke: #000000; stroke-width: 0.8"/>
      </g>
     </g>
     <g id="text_40">
      <!-- 0.8 -->
      <g transform="translate(67.096875 436.126491)scale(0.1 -0.1)">
       <use xlink:href="#DejaVuSans-30"/>
       <use xlink:href="#DejaVuSans-2e" x="63.623047"/>
       <use xlink:href="#DejaVuSans-38" x="95.410156"/>
      </g>
     </g>
    </g>
    <g id="ytick_21">
     <g id="line2d_45">
      <g>
       <use xlink:href="#m9e9510219a" x="90" y="382.909091" style="stroke: #000000; stroke-width: 0.8"/>
      </g>
     </g>
     <g id="text_41">
      <!-- 1.0 -->
      <g transform="translate(67.096875 386.70831)scale(0.1 -0.1)">
       <use xlink:href="#DejaVuSans-31"/>
       <use xlink:href="#DejaVuSans-2e" x="63.623047"/>
       <use xlink:href="#DejaVuSans-30" x="95.410156"/>
      </g>
     </g>
    </g>
   </g>
   <g id="patch_14">
    <path d="M 90 630 
L 90 382.909091 
" style="fill: none; stroke: #000000; stroke-width: 0.8; stroke-linejoin: miter; stroke-linecap: square"/>
   </g>
   <g id="patch_15">
    <path d="M 343.636364 630 
L 343.636364 382.909091 
" style="fill: none; stroke: #000000; stroke-width: 0.8; stroke-linejoin: miter; stroke-linecap: square"/>
   </g>
   <g id="patch_16">
    <path d="M 90 630 
L 343.636364 630 
" style="fill: none; stroke: #000000; stroke-width: 0.8; stroke-linejoin: miter; stroke-linecap: square"/>
   </g>
   <g id="patch_17">
    <path d="M 90 382.909091 
L 343.636364 382.909091 
" style="fill: none; stroke: #000000; stroke-width: 0.8; stroke-linejoin: miter; stroke-linecap: square"/>
   </g>
  </g>
  <g id="axes_4">
   <g id="patch_18">
    <path d="M 394.363636 630 
L 648 630 
L 648 382.909091 
L 394.363636 382.909091 
z
" style="fill: #ffffff"/>
   </g>
   <g id="matplotlib.axis_7">
    <g id="xtick_17">
     <g id="line2d_46">
      <g>
       <use xlink:href="#m0c5ad1f71d" x="405.863558" y="630" style="stroke: #000000; stroke-width: 0.8"/>
      </g>
     </g>
     <g id="text_42">
      <!-- 0 -->
      <g transform="translate(402.682308 644.598437)scale(0.1 -0.1)">
       <use xlink:href="#DejaVuSans-30"/>
      </g>
     </g>
    </g>
    <g id="xtick_18">
     <g id="line2d_47">
      <g>
       <use xlink:href="#m0c5ad1f71d" x="463.870731" y="630" style="stroke: #000000; stroke-width: 0.8"/>
      </g>
     </g>
     <g id="text_43">
      <!-- 2000 -->
      <g transform="translate(451.145731 644.598437)scale(0.1 -0.1)">
       <use xlink:href="#DejaVuSans-32"/>
       <use xlink:href="#DejaVuSans-30" x="63.623047"/>
       <use xlink:href="#DejaVuSans-30" x="127.246094"/>
       <use xlink:href="#DejaVuSans-30" x="190.869141"/>
      </g>
     </g>
    </g>
    <g id="xtick_19">
     <g id="line2d_48">
      <g>
       <use xlink:href="#m0c5ad1f71d" x="521.877904" y="630" style="stroke: #000000; stroke-width: 0.8"/>
      </g>
     </g>
     <g id="text_44">
      <!-- 4000 -->
      <g transform="translate(509.152904 644.598437)scale(0.1 -0.1)">
       <use xlink:href="#DejaVuSans-34"/>
       <use xlink:href="#DejaVuSans-30" x="63.623047"/>
       <use xlink:href="#DejaVuSans-30" x="127.246094"/>
       <use xlink:href="#DejaVuSans-30" x="190.869141"/>
      </g>
     </g>
    </g>
    <g id="xtick_20">
     <g id="line2d_49">
      <g>
       <use xlink:href="#m0c5ad1f71d" x="579.885077" y="630" style="stroke: #000000; stroke-width: 0.8"/>
      </g>
     </g>
     <g id="text_45">
      <!-- 6000 -->
      <g transform="translate(567.160077 644.598437)scale(0.1 -0.1)">
       <use xlink:href="#DejaVuSans-36"/>
       <use xlink:href="#DejaVuSans-30" x="63.623047"/>
       <use xlink:href="#DejaVuSans-30" x="127.246094"/>
       <use xlink:href="#DejaVuSans-30" x="190.869141"/>
      </g>
     </g>
    </g>
    <g id="xtick_21">
     <g id="line2d_50">
      <g>
       <use xlink:href="#m0c5ad1f71d" x="637.89225" y="630" style="stroke: #000000; stroke-width: 0.8"/>
      </g>
     </g>
     <g id="text_46">
      <!-- 8000 -->
      <g transform="translate(625.16725 644.598437)scale(0.1 -0.1)">
       <use xlink:href="#DejaVuSans-38"/>
       <use xlink:href="#DejaVuSans-30" x="63.623047"/>
       <use xlink:href="#DejaVuSans-30" x="127.246094"/>
       <use xlink:href="#DejaVuSans-30" x="190.869141"/>
      </g>
     </g>
    </g>
   </g>
   <g id="matplotlib.axis_8">
    <g id="ytick_22">
     <g id="line2d_51">
      <g>
       <use xlink:href="#m9e9510219a" x="394.363636" y="630" style="stroke: #000000; stroke-width: 0.8"/>
      </g>
     </g>
     <g id="text_47">
      <!-- 2 -->
      <g transform="translate(372.621449 633.799219)scale(0.1 -0.1)">
       <use xlink:href="#DejaVuSans-2212"/>
       <use xlink:href="#DejaVuSans-32" x="83.789062"/>
      </g>
     </g>
    </g>
    <g id="ytick_23">
     <g id="line2d_52">
      <g>
       <use xlink:href="#m9e9510219a" x="394.363636" y="600.945534" style="stroke: #000000; stroke-width: 0.8"/>
      </g>
     </g>
     <g id="text_48">
      <!-- 0 -->
      <g transform="translate(381.001136 604.744752)scale(0.1 -0.1)">
       <use xlink:href="#DejaVuSans-30"/>
      </g>
     </g>
    </g>
    <g id="ytick_24">
     <g id="line2d_53">
      <g>
       <use xlink:href="#m9e9510219a" x="394.363636" y="571.891067" style="stroke: #000000; stroke-width: 0.8"/>
      </g>
     </g>
     <g id="text_49">
      <!-- 2 -->
      <g transform="translate(381.001136 575.690286)scale(0.1 -0.1)">
       <use xlink:href="#DejaVuSans-32"/>
      </g>
     </g>
    </g>
    <g id="ytick_25">
     <g id="line2d_54">
      <g>
       <use xlink:href="#m9e9510219a" x="394.363636" y="542.836601" style="stroke: #000000; stroke-width: 0.8"/>
      </g>
     </g>
     <g id="text_50">
      <!-- 4 -->
      <g transform="translate(381.001136 546.635819)scale(0.1 -0.1)">
       <use xlink:href="#DejaVuSans-34"/>
      </g>
     </g>
    </g>
    <g id="ytick_26">
     <g id="line2d_55">
      <g>
       <use xlink:href="#m9e9510219a" x="394.363636" y="513.782134" style="stroke: #000000; stroke-width: 0.8"/>
      </g>
     </g>
     <g id="text_51">
      <!-- 6 -->
      <g transform="translate(381.001136 517.581353)scale(0.1 -0.1)">
       <use xlink:href="#DejaVuSans-36"/>
      </g>
     </g>
    </g>
    <g id="ytick_27">
     <g id="line2d_56">
      <g>
       <use xlink:href="#m9e9510219a" x="394.363636" y="484.727668" style="stroke: #000000; stroke-width: 0.8"/>
      </g>
     </g>
     <g id="text_52">
      <!-- 8 -->
      <g transform="translate(381.001136 488.526886)scale(0.1 -0.1)">
       <use xlink:href="#DejaVuSans-38"/>
      </g>
     </g>
    </g>
    <g id="ytick_28">
     <g id="line2d_57">
      <g>
       <use xlink:href="#m9e9510219a" x="394.363636" y="455.673201" style="stroke: #000000; stroke-width: 0.8"/>
      </g>
     </g>
     <g id="text_53">
      <!-- 10 -->
      <g transform="translate(374.638636 459.47242)scale(0.1 -0.1)">
       <use xlink:href="#DejaVuSans-31"/>
       <use xlink:href="#DejaVuSans-30" x="63.623047"/>
      </g>
     </g>
    </g>
    <g id="ytick_29">
     <g id="line2d_58">
      <g>
       <use xlink:href="#m9e9510219a" x="394.363636" y="426.618735" style="stroke: #000000; stroke-width: 0.8"/>
      </g>
     </g>
     <g id="text_54">
      <!-- 12 -->
      <g transform="translate(374.638636 430.417953)scale(0.1 -0.1)">
       <use xlink:href="#DejaVuSans-31"/>
       <use xlink:href="#DejaVuSans-32" x="63.623047"/>
      </g>
     </g>
    </g>
    <g id="ytick_30">
     <g id="line2d_59">
      <g>
       <use xlink:href="#m9e9510219a" x="394.363636" y="397.564268" style="stroke: #000000; stroke-width: 0.8"/>
      </g>
     </g>
     <g id="text_55">
      <!-- 14 -->
      <g transform="translate(374.638636 401.363487)scale(0.1 -0.1)">
       <use xlink:href="#DejaVuSans-31"/>
       <use xlink:href="#DejaVuSans-34" x="63.623047"/>
      </g>
     </g>
    </g>
   </g>
   <g id="line2d_60">
    <path d="M 405.892562 602.966837 
L 407.342741 603.191255 
L 408.792921 603.119652 
L 410.2431 602.609974 
L 411.693279 601.769916 
L 413.143459 600.597163 
L 414.593638 600.111903 
L 416.043817 600.963133 
L 417.493997 600.551959 
L 418.944176 598.271676 
L 420.394355 597.124569 
L 421.844535 598.181449 
L 424.744893 599.026572 
L 427.645252 604.149136 
L 429.095431 605.245752 
L 430.54561 605.308096 
L 431.99579 604.691438 
L 433.445969 602.681933 
L 434.896148 597.742488 
L 436.346328 588.794594 
L 437.796507 577.11848 
L 440.696866 551.79465 
L 442.147045 542.293342 
L 443.597224 536.852288 
L 445.047404 534.481074 
L 446.497583 530.197751 
L 447.947762 526.815161 
L 449.397942 531.470288 
L 450.848121 541.11056 
L 452.2983 549.28215 
L 453.74848 553.778724 
L 455.198659 556.458734 
L 456.648838 559.602655 
L 458.099018 564.702429 
L 459.549197 569.136806 
L 460.999376 573.997154 
L 462.449556 581.565539 
L 463.899735 587.726166 
L 465.349914 585.979182 
L 466.800094 573.231631 
L 468.250273 552.550901 
L 471.150632 501.893241 
L 472.600811 486.606521 
L 475.501169 473.939236 
L 476.951349 465.370261 
L 482.752066 435.204853 
L 484.202245 430.579105 
L 485.652425 421.771971 
L 488.552783 389.407001 
L 490.002963 382.909091 
L 491.453142 391.882828 
L 492.903321 414.980983 
L 495.80368 487.542956 
L 497.253859 516.418318 
L 498.704039 536.223631 
L 501.604397 567.625706 
L 503.054577 577.37876 
L 504.504756 581.877646 
L 505.954935 587.809213 
L 507.405115 593.195642 
L 508.855294 595.356132 
L 510.305473 596.407341 
L 511.755653 599.379755 
L 513.205832 603.098976 
L 514.656011 604.193016 
L 516.106191 601.609717 
L 517.55637 595.371825 
L 519.006549 588.217791 
L 520.456729 582.356538 
L 521.906908 580.130404 
L 523.357087 585.078199 
L 524.807266 591.638645 
L 526.257446 593.05928 
L 527.707625 589.756622 
L 529.157804 583.322539 
L 530.607984 578.743834 
L 532.058163 579.352052 
L 533.508342 581.990328 
L 534.958522 580.874564 
L 536.408701 576.396158 
L 537.85888 574.260914 
L 540.759239 577.456108 
L 542.209418 577.392919 
L 543.659598 579.187211 
L 545.109777 584.636371 
L 546.559956 588.303251 
L 548.010136 587.809596 
L 549.460315 588.535423 
L 550.910494 591.564905 
L 552.360674 594.862657 
L 553.810853 596.620644 
L 555.261032 595.997568 
L 556.711212 596.144147 
L 558.161391 597.522983 
L 559.61157 597.974161 
L 561.06175 598.188235 
L 563.962108 599.23052 
L 565.412288 600.702911 
L 566.862467 604.270688 
L 568.312646 608.450354 
L 569.762826 611.27769 
L 571.213005 613.389557 
L 572.663184 614.826756 
L 574.113363 615.423607 
L 577.013722 617.518542 
L 578.463901 617.859967 
L 579.914081 617.374058 
L 581.36426 616.142817 
L 582.814439 615.485449 
L 584.264619 615.881568 
L 585.714798 616.027821 
L 587.164977 614.151627 
L 588.615157 608.55096 
L 590.065336 601.834166 
L 591.515515 598.503481 
L 592.965695 597.791167 
L 594.415874 596.144112 
L 595.866053 593.312212 
L 597.316233 590.87696 
L 598.766412 589.276742 
L 600.216591 586.904556 
L 603.11695 578.644769 
L 604.567129 576.410375 
L 606.017309 575.883575 
L 607.467488 576.506772 
L 608.917667 577.322887 
L 610.367847 579.734725 
L 611.818026 585.427891 
L 613.268205 590.6182 
L 614.718385 592.868786 
L 616.168564 596.587037 
L 617.618743 601.122495 
L 619.068923 600.943896 
L 620.519102 597.768436 
L 621.969281 596.272263 
L 623.41946 599.010229 
L 624.86964 602.208206 
L 626.319819 602.502618 
L 627.769998 602.554646 
L 629.220178 606.137702 
L 630.670357 611.009211 
L 632.120536 613.313379 
L 633.570716 613.240588 
L 636.471074 610.382048 
L 636.471074 610.382048 
" clip-path="url(#p5a8339c39d)" style="fill: none; stroke: #1f77b4; stroke-width: 1.5; stroke-linecap: square"/>
   </g>
   <g id="patch_19">
    <path d="M 394.363636 630 
L 394.363636 382.909091 
" style="fill: none; stroke: #000000; stroke-width: 0.8; stroke-linejoin: miter; stroke-linecap: square"/>
   </g>
   <g id="patch_20">
    <path d="M 648 630 
L 648 382.909091 
" style="fill: none; stroke: #000000; stroke-width: 0.8; stroke-linejoin: miter; stroke-linecap: square"/>
   </g>
   <g id="patch_21">
    <path d="M 394.363636 630 
L 648 630 
" style="fill: none; stroke: #000000; stroke-width: 0.8; stroke-linejoin: miter; stroke-linecap: square"/>
   </g>
   <g id="patch_22">
    <path d="M 394.363636 382.909091 
L 648 382.909091 
" style="fill: none; stroke: #000000; stroke-width: 0.8; stroke-linejoin: miter; stroke-linecap: square"/>
   </g>
   <g id="text_56">
    <!-- explained variance -->
    <g transform="translate(464.181818 376.909091)scale(0.12 -0.12)">
     <defs>
      <path id="DejaVuSans-78" d="M 3513 3500 
L 2247 1797 
L 3578 0 
L 2900 0 
L 1881 1375 
L 863 0 
L 184 0 
L 1544 1831 
L 300 3500 
L 978 3500 
L 1906 2253 
L 2834 3500 
L 3513 3500 
z
" transform="scale(0.015625)"/>
      <path id="DejaVuSans-70" d="M 1159 525 
L 1159 -1331 
L 581 -1331 
L 581 3500 
L 1159 3500 
L 1159 2969 
Q 1341 3281 1617 3432 
Q 1894 3584 2278 3584 
Q 2916 3584 3314 3078 
Q 3713 2572 3713 1747 
Q 3713 922 3314 415 
Q 2916 -91 2278 -91 
Q 1894 -91 1617 61 
Q 1341 213 1159 525 
z
M 3116 1747 
Q 3116 2381 2855 2742 
Q 2594 3103 2138 3103 
Q 1681 3103 1420 2742 
Q 1159 2381 1159 1747 
Q 1159 1113 1420 752 
Q 1681 391 2138 391 
Q 2594 391 2855 752 
Q 3116 1113 3116 1747 
z
" transform="scale(0.015625)"/>
      <path id="DejaVuSans-6c" d="M 603 4863 
L 1178 4863 
L 1178 0 
L 603 0 
L 603 4863 
z
" transform="scale(0.015625)"/>
      <path id="DejaVuSans-76" d="M 191 3500 
L 800 3500 
L 1894 563 
L 2988 3500 
L 3597 3500 
L 2284 0 
L 1503 0 
L 191 3500 
z
" transform="scale(0.015625)"/>
      <path id="DejaVuSans-63" d="M 3122 3366 
L 3122 2828 
Q 2878 2963 2633 3030 
Q 2388 3097 2138 3097 
Q 1578 3097 1268 2742 
Q 959 2388 959 1747 
Q 959 1106 1268 751 
Q 1578 397 2138 397 
Q 2388 397 2633 464 
Q 2878 531 3122 666 
L 3122 134 
Q 2881 22 2623 -34 
Q 2366 -91 2075 -91 
Q 1284 -91 818 406 
Q 353 903 353 1747 
Q 353 2603 823 3093 
Q 1294 3584 2113 3584 
Q 2378 3584 2631 3529 
Q 2884 3475 3122 3366 
z
" transform="scale(0.015625)"/>
     </defs>
     <use xlink:href="#DejaVuSans-65"/>
     <use xlink:href="#DejaVuSans-78" x="59.773438"/>
     <use xlink:href="#DejaVuSans-70" x="118.953125"/>
     <use xlink:href="#DejaVuSans-6c" x="182.429688"/>
     <use xlink:href="#DejaVuSans-61" x="210.212891"/>
     <use xlink:href="#DejaVuSans-69" x="271.492188"/>
     <use xlink:href="#DejaVuSans-6e" x="299.275391"/>
     <use xlink:href="#DejaVuSans-65" x="362.654297"/>
     <use xlink:href="#DejaVuSans-64" x="424.177734"/>
     <use xlink:href="#DejaVuSans-20" x="487.654297"/>
     <use xlink:href="#DejaVuSans-76" x="519.441406"/>
     <use xlink:href="#DejaVuSans-61" x="578.621094"/>
     <use xlink:href="#DejaVuSans-72" x="639.900391"/>
     <use xlink:href="#DejaVuSans-69" x="681.013672"/>
     <use xlink:href="#DejaVuSans-61" x="708.796875"/>
     <use xlink:href="#DejaVuSans-6e" x="770.076172"/>
     <use xlink:href="#DejaVuSans-63" x="833.455078"/>
     <use xlink:href="#DejaVuSans-65" x="888.435547"/>
    </g>
   </g>
  </g>
 </g>
 <defs>
  <clipPath id="p5108813dd6">
   <rect x="90" y="86.4" width="253.636364" height="247.090909"/>
  </clipPath>
  <clipPath id="pf2e96eaeff">
   <rect x="394.363636" y="86.4" width="253.636364" height="247.090909"/>
  </clipPath>
  <clipPath id="p5a8339c39d">
   <rect x="394.363636" y="382.909091" width="253.636364" height="247.090909"/>
  </clipPath>
 </defs>
</svg>
