<?xml version="1.0" encoding="utf-8" standalone="no"?>
<!DOCTYPE svg PUBLIC "-//W3C//DTD SVG 1.1//EN"
  "http://www.w3.org/Graphics/SVG/1.1/DTD/svg11.dtd">
<svg xmlns:xlink="http://www.w3.org/1999/xlink" width="720pt" height="720pt" viewBox="0 0 720 720" xmlns="http://www.w3.org/2000/svg" version="1.1">
 <metadata>
  <rdf:RDF xmlns:dc="http://purl.org/dc/elements/1.1/" xmlns:cc="http://creativecommons.org/ns#" xmlns:rdf="http://www.w3.org/1999/02/22-rdf-syntax-ns#">
   <cc:Work>
    <dc:type rdf:resource="http://purl.org/dc/dcmitype/StillImage"/>
    <dc:date>2023-12-19T18:19:14.182490</dc:date>
    <dc:format>image/svg+xml</dc:format>
    <dc:creator>
     <cc:Agent>
      <dc:title>Matplotlib v3.5.2, https://matplotlib.org/</dc:title>
     </cc:Agent>
    </dc:creator>
   </cc:Work>
  </rdf:RDF>
 </metadata>
 <defs>
  <style type="text/css">*{stroke-linejoin: round; stroke-linecap: butt}</style>
 </defs>
 <g id="figure_1">
  <g id="patch_1">
   <path d="M 0 720 
L 720 720 
L 720 0 
L 0 0 
z
" style="fill: #ffffff"/>
  </g>
  <g id="axes_1">
   <g id="patch_2">
    <path d="M 90 333.490909 
L 343.636364 333.490909 
L 343.636364 86.4 
L 90 86.4 
z
" style="fill: #ffffff"/>
   </g>
   <g id="matplotlib.axis_1">
    <g id="xtick_1">
     <g id="line2d_1">
      <defs>
       <path id="mf1a3b6a439" d="M 0 0 
L 0 3.5 
" style="stroke: #000000; stroke-width: 0.8"/>
      </defs>
      <g>
       <use xlink:href="#mf1a3b6a439" x="90" y="333.490909" style="stroke: #000000; stroke-width: 0.8"/>
      </g>
     </g>
     <g id="text_1">
      <!-- 0.0 -->
      <g transform="translate(82.048438 348.089347)scale(0.1 -0.1)">
       <defs>
        <path id="DejaVuSans-30" d="M 2034 4250 
Q 1547 4250 1301 3770 
Q 1056 3291 1056 2328 
Q 1056 1369 1301 889 
Q 1547 409 2034 409 
Q 2525 409 2770 889 
Q 3016 1369 3016 2328 
Q 3016 3291 2770 3770 
Q 2525 4250 2034 4250 
z
M 2034 4750 
Q 2819 4750 3233 4129 
Q 3647 3509 3647 2328 
Q 3647 1150 3233 529 
Q 2819 -91 2034 -91 
Q 1250 -91 836 529 
Q 422 1150 422 2328 
Q 422 3509 836 4129 
Q 1250 4750 2034 4750 
z
" transform="scale(0.015625)"/>
        <path id="DejaVuSans-2e" d="M 684 794 
L 1344 794 
L 1344 0 
L 684 0 
L 684 794 
z
" transform="scale(0.015625)"/>
       </defs>
       <use xlink:href="#DejaVuSans-30"/>
       <use xlink:href="#DejaVuSans-2e" x="63.623047"/>
       <use xlink:href="#DejaVuSans-30" x="95.410156"/>
      </g>
     </g>
    </g>
    <g id="xtick_2">
     <g id="line2d_2">
      <g>
       <use xlink:href="#mf1a3b6a439" x="140.727273" y="333.490909" style="stroke: #000000; stroke-width: 0.8"/>
      </g>
     </g>
     <g id="text_2">
      <!-- 0.2 -->
      <g transform="translate(132.77571 348.089347)scale(0.1 -0.1)">
       <defs>
        <path id="DejaVuSans-32" d="M 1228 531 
L 3431 531 
L 3431 0 
L 469 0 
L 469 531 
Q 828 903 1448 1529 
Q 2069 2156 2228 2338 
Q 2531 2678 2651 2914 
Q 2772 3150 2772 3378 
Q 2772 3750 2511 3984 
Q 2250 4219 1831 4219 
Q 1534 4219 1204 4116 
Q 875 4013 500 3803 
L 500 4441 
Q 881 4594 1212 4672 
Q 1544 4750 1819 4750 
Q 2544 4750 2975 4387 
Q 3406 4025 3406 3419 
Q 3406 3131 3298 2873 
Q 3191 2616 2906 2266 
Q 2828 2175 2409 1742 
Q 1991 1309 1228 531 
z
" transform="scale(0.015625)"/>
       </defs>
       <use xlink:href="#DejaVuSans-30"/>
       <use xlink:href="#DejaVuSans-2e" x="63.623047"/>
       <use xlink:href="#DejaVuSans-32" x="95.410156"/>
      </g>
     </g>
    </g>
    <g id="xtick_3">
     <g id="line2d_3">
      <g>
       <use xlink:href="#mf1a3b6a439" x="191.454545" y="333.490909" style="stroke: #000000; stroke-width: 0.8"/>
      </g>
     </g>
     <g id="text_3">
      <!-- 0.4 -->
      <g transform="translate(183.502983 348.089347)scale(0.1 -0.1)">
       <defs>
        <path id="DejaVuSans-34" d="M 2419 4116 
L 825 1625 
L 2419 1625 
L 2419 4116 
z
M 2253 4666 
L 3047 4666 
L 3047 1625 
L 3713 1625 
L 3713 1100 
L 3047 1100 
L 3047 0 
L 2419 0 
L 2419 1100 
L 313 1100 
L 313 1709 
L 2253 4666 
z
" transform="scale(0.015625)"/>
       </defs>
       <use xlink:href="#DejaVuSans-30"/>
       <use xlink:href="#DejaVuSans-2e" x="63.623047"/>
       <use xlink:href="#DejaVuSans-34" x="95.410156"/>
      </g>
     </g>
    </g>
    <g id="xtick_4">
     <g id="line2d_4">
      <g>
       <use xlink:href="#mf1a3b6a439" x="242.181818" y="333.490909" style="stroke: #000000; stroke-width: 0.8"/>
      </g>
     </g>
     <g id="text_4">
      <!-- 0.6 -->
      <g transform="translate(234.230256 348.089347)scale(0.1 -0.1)">
       <defs>
        <path id="DejaVuSans-36" d="M 2113 2584 
Q 1688 2584 1439 2293 
Q 1191 2003 1191 1497 
Q 1191 994 1439 701 
Q 1688 409 2113 409 
Q 2538 409 2786 701 
Q 3034 994 3034 1497 
Q 3034 2003 2786 2293 
Q 2538 2584 2113 2584 
z
M 3366 4563 
L 3366 3988 
Q 3128 4100 2886 4159 
Q 2644 4219 2406 4219 
Q 1781 4219 1451 3797 
Q 1122 3375 1075 2522 
Q 1259 2794 1537 2939 
Q 1816 3084 2150 3084 
Q 2853 3084 3261 2657 
Q 3669 2231 3669 1497 
Q 3669 778 3244 343 
Q 2819 -91 2113 -91 
Q 1303 -91 875 529 
Q 447 1150 447 2328 
Q 447 3434 972 4092 
Q 1497 4750 2381 4750 
Q 2619 4750 2861 4703 
Q 3103 4656 3366 4563 
z
" transform="scale(0.015625)"/>
       </defs>
       <use xlink:href="#DejaVuSans-30"/>
       <use xlink:href="#DejaVuSans-2e" x="63.623047"/>
       <use xlink:href="#DejaVuSans-36" x="95.410156"/>
      </g>
     </g>
    </g>
    <g id="xtick_5">
     <g id="line2d_5">
      <g>
       <use xlink:href="#mf1a3b6a439" x="292.909091" y="333.490909" style="stroke: #000000; stroke-width: 0.8"/>
      </g>
     </g>
     <g id="text_5">
      <!-- 0.8 -->
      <g transform="translate(284.957528 348.089347)scale(0.1 -0.1)">
       <defs>
        <path id="DejaVuSans-38" d="M 2034 2216 
Q 1584 2216 1326 1975 
Q 1069 1734 1069 1313 
Q 1069 891 1326 650 
Q 1584 409 2034 409 
Q 2484 409 2743 651 
Q 3003 894 3003 1313 
Q 3003 1734 2745 1975 
Q 2488 2216 2034 2216 
z
M 1403 2484 
Q 997 2584 770 2862 
Q 544 3141 544 3541 
Q 544 4100 942 4425 
Q 1341 4750 2034 4750 
Q 2731 4750 3128 4425 
Q 3525 4100 3525 3541 
Q 3525 3141 3298 2862 
Q 3072 2584 2669 2484 
Q 3125 2378 3379 2068 
Q 3634 1759 3634 1313 
Q 3634 634 3220 271 
Q 2806 -91 2034 -91 
Q 1263 -91 848 271 
Q 434 634 434 1313 
Q 434 1759 690 2068 
Q 947 2378 1403 2484 
z
M 1172 3481 
Q 1172 3119 1398 2916 
Q 1625 2713 2034 2713 
Q 2441 2713 2670 2916 
Q 2900 3119 2900 3481 
Q 2900 3844 2670 4047 
Q 2441 4250 2034 4250 
Q 1625 4250 1398 4047 
Q 1172 3844 1172 3481 
z
" transform="scale(0.015625)"/>
       </defs>
       <use xlink:href="#DejaVuSans-30"/>
       <use xlink:href="#DejaVuSans-2e" x="63.623047"/>
       <use xlink:href="#DejaVuSans-38" x="95.410156"/>
      </g>
     </g>
    </g>
    <g id="xtick_6">
     <g id="line2d_6">
      <g>
       <use xlink:href="#mf1a3b6a439" x="343.636364" y="333.490909" style="stroke: #000000; stroke-width: 0.8"/>
      </g>
     </g>
     <g id="text_6">
      <!-- 1.0 -->
      <g transform="translate(335.684801 348.089347)scale(0.1 -0.1)">
       <defs>
        <path id="DejaVuSans-31" d="M 794 531 
L 1825 531 
L 1825 4091 
L 703 3866 
L 703 4441 
L 1819 4666 
L 2450 4666 
L 2450 531 
L 3481 531 
L 3481 0 
L 794 0 
L 794 531 
z
" transform="scale(0.015625)"/>
       </defs>
       <use xlink:href="#DejaVuSans-31"/>
       <use xlink:href="#DejaVuSans-2e" x="63.623047"/>
       <use xlink:href="#DejaVuSans-30" x="95.410156"/>
      </g>
     </g>
    </g>
   </g>
   <g id="matplotlib.axis_2">
    <g id="ytick_1">
     <g id="line2d_7">
      <defs>
       <path id="m7cb0726e72" d="M 0 0 
L -3.5 0 
" style="stroke: #000000; stroke-width: 0.8"/>
      </defs>
      <g>
       <use xlink:href="#m7cb0726e72" x="90" y="333.490909" style="stroke: #000000; stroke-width: 0.8"/>
      </g>
     </g>
     <g id="text_7">
      <!-- 0.0 -->
      <g transform="translate(67.096875 337.290128)scale(0.1 -0.1)">
       <use xlink:href="#DejaVuSans-30"/>
       <use xlink:href="#DejaVuSans-2e" x="63.623047"/>
       <use xlink:href="#DejaVuSans-30" x="95.410156"/>
      </g>
     </g>
    </g>
    <g id="ytick_2">
     <g id="line2d_8">
      <g>
       <use xlink:href="#m7cb0726e72" x="90" y="284.072727" style="stroke: #000000; stroke-width: 0.8"/>
      </g>
     </g>
     <g id="text_8">
      <!-- 0.2 -->
      <g transform="translate(67.096875 287.871946)scale(0.1 -0.1)">
       <use xlink:href="#DejaVuSans-30"/>
       <use xlink:href="#DejaVuSans-2e" x="63.623047"/>
       <use xlink:href="#DejaVuSans-32" x="95.410156"/>
      </g>
     </g>
    </g>
    <g id="ytick_3">
     <g id="line2d_9">
      <g>
       <use xlink:href="#m7cb0726e72" x="90" y="234.654545" style="stroke: #000000; stroke-width: 0.8"/>
      </g>
     </g>
     <g id="text_9">
      <!-- 0.4 -->
      <g transform="translate(67.096875 238.453764)scale(0.1 -0.1)">
       <use xlink:href="#DejaVuSans-30"/>
       <use xlink:href="#DejaVuSans-2e" x="63.623047"/>
       <use xlink:href="#DejaVuSans-34" x="95.410156"/>
      </g>
     </g>
    </g>
    <g id="ytick_4">
     <g id="line2d_10">
      <g>
       <use xlink:href="#m7cb0726e72" x="90" y="185.236364" style="stroke: #000000; stroke-width: 0.8"/>
      </g>
     </g>
     <g id="text_10">
      <!-- 0.6 -->
      <g transform="translate(67.096875 189.035582)scale(0.1 -0.1)">
       <use xlink:href="#DejaVuSans-30"/>
       <use xlink:href="#DejaVuSans-2e" x="63.623047"/>
       <use xlink:href="#DejaVuSans-36" x="95.410156"/>
      </g>
     </g>
    </g>
    <g id="ytick_5">
     <g id="line2d_11">
      <g>
       <use xlink:href="#m7cb0726e72" x="90" y="135.818182" style="stroke: #000000; stroke-width: 0.8"/>
      </g>
     </g>
     <g id="text_11">
      <!-- 0.8 -->
      <g transform="translate(67.096875 139.617401)scale(0.1 -0.1)">
       <use xlink:href="#DejaVuSans-30"/>
       <use xlink:href="#DejaVuSans-2e" x="63.623047"/>
       <use xlink:href="#DejaVuSans-38" x="95.410156"/>
      </g>
     </g>
    </g>
    <g id="ytick_6">
     <g id="line2d_12">
      <g>
       <use xlink:href="#m7cb0726e72" x="90" y="86.4" style="stroke: #000000; stroke-width: 0.8"/>
      </g>
     </g>
     <g id="text_12">
      <!-- 1.0 -->
      <g transform="translate(67.096875 90.199219)scale(0.1 -0.1)">
       <use xlink:href="#DejaVuSans-31"/>
       <use xlink:href="#DejaVuSans-2e" x="63.623047"/>
       <use xlink:href="#DejaVuSans-30" x="95.410156"/>
      </g>
     </g>
    </g>
   </g>
   <g id="patch_3">
    <path d="M 90 333.490909 
L 90 86.4 
" style="fill: none; stroke: #000000; stroke-width: 0.8; stroke-linejoin: miter; stroke-linecap: square"/>
   </g>
   <g id="patch_4">
    <path d="M 343.636364 333.490909 
L 343.636364 86.4 
" style="fill: none; stroke: #000000; stroke-width: 0.8; stroke-linejoin: miter; stroke-linecap: square"/>
   </g>
   <g id="patch_5">
    <path d="M 90 333.490909 
L 343.636364 333.490909 
" style="fill: none; stroke: #000000; stroke-width: 0.8; stroke-linejoin: miter; stroke-linecap: square"/>
   </g>
   <g id="patch_6">
    <path d="M 90 86.4 
L 343.636364 86.4 
" style="fill: none; stroke: #000000; stroke-width: 0.8; stroke-linejoin: miter; stroke-linecap: square"/>
   </g>
  </g>
  <g id="axes_2">
   <g id="patch_7">
    <path d="M 394.363636 333.490909 
L 648 333.490909 
L 648 86.4 
L 394.363636 86.4 
z
" style="fill: #ffffff"/>
   </g>
   <g id="PolyCollection_1">
    <defs>
     <path id="m514db32226" d="M 405.892562 -490.506807 
L 405.892562 -490.506807 
L 407.342741 -484.507614 
L 408.792921 -471.828728 
L 410.2431 -453.150208 
L 411.693279 -424.179052 
L 413.143459 -404.939713 
L 414.593638 -398.392389 
L 416.043817 -397.740496 
L 417.493997 -411.395739 
L 418.944176 -429.938379 
L 420.394355 -456.532729 
L 421.844535 -472.732942 
L 423.294714 -481.602927 
L 424.744893 -483.121984 
L 426.195073 -479.882867 
L 427.645252 -468.931951 
L 429.095431 -471.232118 
L 430.54561 -463.256553 
L 431.99579 -460.280844 
L 433.445969 -456.906177 
L 434.896148 -452.438431 
L 436.346328 -452.693679 
L 437.796507 -456.54698 
L 439.246686 -452.556463 
L 440.696866 -456.63076 
L 442.147045 -460.036295 
L 443.597224 -464.166062 
L 445.047404 -475.147598 
L 446.497583 -480.436671 
L 447.947762 -481.830053 
L 449.397942 -487.570106 
L 450.848121 -489.631875 
L 452.2983 -490.120354 
L 453.74848 -488.787542 
L 455.198659 -492.738093 
L 456.648838 -493.840865 
L 458.099018 -494.825237 
L 459.549197 -495.466401 
L 460.999376 -495.774375 
L 462.449556 -495.884729 
L 463.899735 -495.914819 
L 465.349914 -495.921074 
L 466.800094 -495.922217 
L 468.250273 -495.922217 
L 469.700452 -495.922217 
L 471.150632 -495.922217 
L 472.600811 -495.922217 
L 474.05099 -495.922217 
L 475.501169 -495.922217 
L 476.951349 -495.922217 
L 478.401528 -495.922217 
L 479.851707 -495.922217 
L 481.301887 -495.922217 
L 482.752066 -495.922217 
L 484.202245 -495.922217 
L 485.652425 -495.922217 
L 487.102604 -495.924581 
L 488.552783 -495.937634 
L 490.002963 -496.00051 
L 491.453142 -496.231871 
L 492.903321 -496.876018 
L 494.353501 -498.210267 
L 495.80368 -500.196857 
L 497.253859 -502.143922 
L 498.704039 -496.100807 
L 500.154218 -502.224014 
L 501.604397 -500.551182 
L 503.054577 -499.449381 
L 504.504756 -500.445752 
L 505.954935 -504.773826 
L 507.405115 -513.128281 
L 508.855294 -518.147561 
L 510.305473 -538.650819 
L 511.755653 -537.184016 
L 513.205832 -568.178949 
L 514.656011 -585.849535 
L 516.106191 -585.157498 
L 517.55637 -596.037146 
L 519.006549 -591.038758 
L 520.456729 -583.775439 
L 521.906908 -547.760278 
L 523.357087 -538.7175 
L 524.807266 -523.830091 
L 526.257446 -518.708821 
L 527.707625 -523.012862 
L 529.157804 -532.145886 
L 530.607984 -524.481768 
L 532.058163 -541.974063 
L 533.508342 -540.155302 
L 534.958522 -530.275149 
L 536.408701 -537.766536 
L 537.85888 -540.733784 
L 539.30906 -537.447036 
L 540.759239 -541.244889 
L 542.209418 -538.987083 
L 543.659598 -533.09153 
L 545.109777 -535.887898 
L 546.559956 -528.171021 
L 548.010136 -535.572735 
L 549.460315 -533.95522 
L 550.910494 -540.192026 
L 552.360674 -541.967733 
L 553.810853 -541.786078 
L 555.261032 -537.742393 
L 556.711212 -536.596613 
L 558.161391 -532.361106 
L 559.61157 -533.464536 
L 561.06175 -518.879608 
L 562.511929 -517.93911 
L 563.962108 -509.872328 
L 565.412288 -504.424369 
L 566.862467 -502.961372 
L 568.312646 -504.971952 
L 569.762826 -508.322545 
L 571.213005 -498.813074 
L 572.663184 -510.768227 
L 574.113363 -509.743828 
L 575.563543 -508.591042 
L 577.013722 -496.38136 
L 578.463901 -504.84637 
L 579.914081 -501.801057 
L 581.36426 -499.018793 
L 582.814439 -497.205373 
L 584.264619 -496.341995 
L 585.714798 -496.061534 
L 587.164977 -496.128143 
L 588.615157 -496.703737 
L 590.065336 -498.512812 
L 591.515515 -502.811424 
L 592.965695 -510.679077 
L 594.415874 -521.625261 
L 595.866053 -523.026066 
L 597.316233 -529.376174 
L 598.766412 -527.858089 
L 600.216591 -525.012286 
L 601.666771 -525.661851 
L 603.11695 -520.360321 
L 604.567129 -513.206588 
L 606.017309 -513.492367 
L 607.467488 -514.169005 
L 608.917667 -511.388366 
L 610.367847 -512.206013 
L 611.818026 -508.516642 
L 613.268205 -502.84791 
L 614.718385 -506.684485 
L 616.168564 -503.434935 
L 617.618743 -501.840931 
L 619.068923 -503.869338 
L 620.519102 -504.366549 
L 621.969281 -502.741952 
L 623.41946 -506.390455 
L 624.86964 -503.974296 
L 626.319819 -509.659111 
L 627.769998 -507.651261 
L 629.220178 -513.530029 
L 630.670357 -513.211116 
L 632.120536 -512.790378 
L 633.570716 -512.703065 
L 635.020895 -507.17936 
L 636.471074 -509.99492 
L 636.471074 -509.99492 
L 636.471074 -509.99492 
L 635.020895 -517.0477 
L 633.570716 -517.026946 
L 632.120536 -519.89707 
L 630.670357 -518.111983 
L 629.220178 -513.530029 
L 627.769998 -514.995725 
L 626.319819 -509.659111 
L 624.86964 -512.314083 
L 623.41946 -506.390455 
L 621.969281 -506.94533 
L 620.519102 -504.366549 
L 619.068923 -506.437762 
L 617.618743 -510.864099 
L 616.168564 -510.365265 
L 614.718385 -506.684485 
L 613.268205 -510.709698 
L 611.818026 -508.516642 
L 610.367847 -512.206013 
L 608.917667 -521.673109 
L 607.467488 -524.596417 
L 606.017309 -526.00583 
L 604.567129 -524.899071 
L 603.11695 -520.360321 
L 601.666771 -525.661851 
L 600.216591 -542.046984 
L 598.766412 -551.307456 
L 597.316233 -549.864305 
L 595.866053 -542.377101 
L 594.415874 -521.625261 
L 592.965695 -510.679077 
L 591.515515 -502.811424 
L 590.065336 -498.512812 
L 588.615157 -496.703737 
L 587.164977 -496.128143 
L 585.714798 -496.061534 
L 584.264619 -496.341995 
L 582.814439 -497.205373 
L 581.36426 -499.018793 
L 579.914081 -501.801057 
L 578.463901 -504.84637 
L 577.013722 -517.970236 
L 575.563543 -508.591042 
L 574.113363 -509.743828 
L 572.663184 -510.768227 
L 571.213005 -522.350824 
L 569.762826 -508.322545 
L 568.312646 -504.971952 
L 566.862467 -502.961372 
L 565.412288 -504.424369 
L 563.962108 -509.872328 
L 562.511929 -517.93911 
L 561.06175 -533.781734 
L 559.61157 -533.464536 
L 558.161391 -545.866386 
L 556.711212 -550.3815 
L 555.261032 -555.122518 
L 553.810853 -553.475831 
L 552.360674 -551.787033 
L 550.910494 -547.957464 
L 549.460315 -545.518345 
L 548.010136 -535.572735 
L 546.559956 -539.583159 
L 545.109777 -535.887898 
L 543.659598 -548.2302 
L 542.209418 -551.789512 
L 540.759239 -552.970359 
L 539.30906 -552.357825 
L 537.85888 -540.733784 
L 536.408701 -537.766536 
L 534.958522 -545.324507 
L 533.508342 -540.155302 
L 532.058163 -541.974063 
L 530.607984 -554.883918 
L 529.157804 -532.145886 
L 527.707625 -523.012862 
L 526.257446 -518.708821 
L 524.807266 -523.830091 
L 523.357087 -538.7175 
L 521.906908 -572.941965 
L 520.456729 -583.775439 
L 519.006549 -613.616961 
L 517.55637 -622.368595 
L 516.106191 -619.005764 
L 514.656011 -585.849535 
L 513.205832 -568.178949 
L 511.755653 -568.297997 
L 510.305473 -538.650819 
L 508.855294 -531.873577 
L 507.405115 -513.128281 
L 505.954935 -504.773826 
L 504.504756 -500.445752 
L 503.054577 -499.449381 
L 501.604397 -500.551182 
L 500.154218 -502.224014 
L 498.704039 -509.866926 
L 497.253859 -502.143922 
L 495.80368 -500.196857 
L 494.353501 -498.210267 
L 492.903321 -496.876018 
L 491.453142 -496.231871 
L 490.002963 -496.00051 
L 488.552783 -495.937634 
L 487.102604 -495.924581 
L 485.652425 -495.922217 
L 484.202245 -495.922217 
L 482.752066 -495.922217 
L 481.301887 -495.922217 
L 479.851707 -495.922217 
L 478.401528 -495.922217 
L 476.951349 -495.922217 
L 475.501169 -495.922217 
L 474.05099 -495.922217 
L 472.600811 -495.922217 
L 471.150632 -495.922217 
L 469.700452 -495.922217 
L 468.250273 -495.922217 
L 466.800094 -495.922217 
L 465.349914 -495.921074 
L 463.899735 -495.914819 
L 462.449556 -495.884729 
L 460.999376 -495.774375 
L 459.549197 -495.466401 
L 458.099018 -494.825237 
L 456.648838 -493.840865 
L 455.198659 -492.738093 
L 453.74848 -494.785026 
L 452.2983 -491.687887 
L 450.848121 -489.631875 
L 449.397942 -487.570106 
L 447.947762 -487.291938 
L 446.497583 -480.436671 
L 445.047404 -475.147598 
L 443.597224 -474.55653 
L 442.147045 -468.583743 
L 440.696866 -464.768367 
L 439.246686 -463.901151 
L 437.796507 -456.54698 
L 436.346328 -459.656957 
L 434.896148 -463.264197 
L 433.445969 -465.521261 
L 431.99579 -469.566962 
L 430.54561 -472.977498 
L 429.095431 -471.232118 
L 427.645252 -481.48574 
L 426.195073 -479.882867 
L 424.744893 -483.121984 
L 423.294714 -481.602927 
L 421.844535 -472.732942 
L 420.394355 -456.532729 
L 418.944176 -442.764219 
L 417.493997 -424.095493 
L 416.043817 -414.524352 
L 414.593638 -411.290468 
L 413.143459 -423.734445 
L 411.693279 -440.039955 
L 410.2431 -453.150208 
L 408.792921 -471.828728 
L 407.342741 -484.507614 
L 405.892562 -490.506807 
z
" style="stroke: #9467bd; stroke-opacity: 0.2"/>
    </defs>
    <g clip-path="url(#p1f49ff462c)">
     <use xlink:href="#m514db32226" x="0" y="720" style="fill: #9467bd; fill-opacity: 0.2; stroke: #9467bd; stroke-opacity: 0.2"/>
    </g>
   </g>
   <g id="PolyCollection_2">
    <defs>
     <path id="m918e1c5afb" d="M 405.892562 -493.043057 
L 405.892562 -482.9632 
L 407.342741 -487.936267 
L 408.792921 -482.575184 
L 410.2431 -491.354508 
L 411.693279 -493.115823 
L 413.143459 -494.514076 
L 414.593638 -495.338729 
L 416.043817 -495.650103 
L 417.493997 -495.549591 
L 418.944176 -495.005753 
L 420.394355 -493.93401 
L 421.844535 -492.478233 
L 423.294714 -488.862055 
L 424.744893 -486.789158 
L 426.195073 -490.764046 
L 427.645252 -492.429395 
L 429.095431 -491.096708 
L 430.54561 -494.504238 
L 431.99579 -494.93842 
L 433.445969 -494.918987 
L 434.896148 -494.527078 
L 436.346328 -494.035085 
L 437.796507 -490.518145 
L 439.246686 -494.07228 
L 440.696866 -494.651784 
L 442.147045 -495.242358 
L 443.597224 -495.63881 
L 445.047404 -495.830208 
L 446.497583 -495.898954 
L 447.947762 -495.917636 
L 449.397942 -495.921515 
L 450.848121 -495.922217 
L 452.2983 -495.922217 
L 453.74848 -495.922217 
L 455.198659 -495.922217 
L 456.648838 -495.922217 
L 458.099018 -495.922217 
L 459.549197 -495.922217 
L 460.999376 -495.923603 
L 462.449556 -495.931254 
L 463.899735 -495.968112 
L 465.349914 -496.103736 
L 466.800094 -496.481334 
L 468.250273 -497.263468 
L 469.700452 -498.428004 
L 471.150632 -499.568361 
L 472.600811 -493.848498 
L 474.05099 -499.576233 
L 475.501169 -498.460111 
L 476.951349 -497.362364 
L 478.401528 -496.718572 
L 479.851707 -496.546955 
L 481.301887 -496.612993 
L 482.752066 -494.856695 
L 484.202245 -496.568484 
L 485.652425 -496.365437 
L 487.102604 -496.159455 
L 488.552783 -496.021116 
L 490.002963 -495.952977 
L 491.453142 -495.921536 
L 492.903321 -495.876513 
L 494.353501 -495.728655 
L 495.80368 -495.292044 
L 497.253859 -494.280775 
L 498.704039 -492.457906 
L 500.154218 -489.876985 
L 501.604397 -479.586161 
L 503.054577 -485.526448 
L 504.504756 -474.782328 
L 505.954935 -488.022359 
L 507.405115 -490.846197 
L 508.855294 -493.319599 
L 510.305473 -494.866078 
L 511.755653 -495.584976 
L 513.205832 -495.837807 
L 514.656011 -495.905861 
L 516.106191 -495.919706 
L 517.55637 -495.922217 
L 519.006549 -495.922217 
L 520.456729 -495.917999 
L 521.906908 -495.889382 
L 523.357087 -495.747775 
L 524.807266 -495.188085 
L 526.257446 -493.488765 
L 527.707625 -489.518973 
L 529.157804 -482.462404 
L 530.607984 -473.110514 
L 532.058163 -455.358576 
L 533.508342 -449.956975 
L 534.958522 -460.706613 
L 536.408701 -457.78328 
L 537.85888 -474.997821 
L 539.30906 -482.24518 
L 540.759239 -485.88322 
L 542.209418 -485.085061 
L 543.659598 -481.14592 
L 545.109777 -468.658876 
L 546.559956 -474.780484 
L 548.010136 -469.951744 
L 549.460315 -481.099853 
L 550.910494 -486.672795 
L 552.360674 -491.082115 
L 553.810853 -493.335891 
L 555.261032 -493.536152 
L 556.711212 -492.388823 
L 558.161391 -490.889902 
L 559.61157 -486.288448 
L 561.06175 -489.760533 
L 562.511929 -489.503458 
L 563.962108 -488.326429 
L 565.412288 -486.481484 
L 566.862467 -478.600525 
L 568.312646 -485.547977 
L 569.762826 -485.52123 
L 571.213005 -488.979637 
L 572.663184 -483.932512 
L 574.113363 -491.473819 
L 575.563543 -491.40268 
L 577.013722 -489.901237 
L 578.463901 -487.148413 
L 579.914081 -478.165328 
L 581.36426 -475.348574 
L 582.814439 -481.199823 
L 584.264619 -474.845065 
L 585.714798 -479.337638 
L 587.164977 -486.087469 
L 588.615157 -487.579272 
L 590.065336 -483.635619 
L 591.515515 -489.41233 
L 592.965695 -487.692673 
L 594.415874 -492.369326 
L 595.866053 -493.87801 
L 597.316233 -494.95392 
L 598.766412 -495.549934 
L 600.216591 -495.807479 
L 601.666771 -495.894146 
L 603.11695 -495.916975 
L 604.567129 -495.921413 
L 606.017309 -495.922217 
L 607.467488 -495.922217 
L 608.917667 -495.922217 
L 610.367847 -495.922217 
L 611.818026 -495.921532 
L 613.268205 -495.91775 
L 614.718385 -495.897505 
L 616.168564 -495.819288 
L 617.618743 -495.578821 
L 619.068923 -494.994226 
L 620.519102 -493.867586 
L 621.969281 -492.163386 
L 623.41946 -486.712041 
L 624.86964 -488.810553 
L 626.319819 -484.8089 
L 627.769998 -489.974223 
L 629.220178 -491.811686 
L 630.670357 -493.912633 
L 632.120536 -495.109643 
L 633.570716 -495.666907 
L 635.020895 -495.860528 
L 636.471074 -495.909403 
L 636.471074 -495.909403 
L 636.471074 -495.909403 
L 635.020895 -495.860528 
L 633.570716 -495.666907 
L 632.120536 -495.109643 
L 630.670357 -493.912633 
L 629.220178 -492.249757 
L 627.769998 -489.974223 
L 626.319819 -492.546427 
L 624.86964 -488.810553 
L 623.41946 -493.741998 
L 621.969281 -492.163386 
L 620.519102 -493.867586 
L 619.068923 -494.994226 
L 617.618743 -495.578821 
L 616.168564 -495.819288 
L 614.718385 -495.897505 
L 613.268205 -495.91775 
L 611.818026 -495.921532 
L 610.367847 -495.922217 
L 608.917667 -495.922217 
L 607.467488 -495.922217 
L 606.017309 -495.922217 
L 604.567129 -495.921413 
L 603.11695 -495.916975 
L 601.666771 -495.894146 
L 600.216591 -495.807479 
L 598.766412 -495.549934 
L 597.316233 -494.95392 
L 595.866053 -493.87801 
L 594.415874 -492.369326 
L 592.965695 -493.793252 
L 591.515515 -489.41233 
L 590.065336 -493.355164 
L 588.615157 -487.579272 
L 587.164977 -486.087469 
L 585.714798 -488.674779 
L 584.264619 -489.302918 
L 582.814439 -481.199823 
L 581.36426 -488.435591 
L 579.914081 -490.033838 
L 578.463901 -487.148413 
L 577.013722 -489.901237 
L 575.563543 -491.40268 
L 574.113363 -491.473819 
L 572.663184 -497.131031 
L 571.213005 -488.979637 
L 569.762826 -488.691905 
L 568.312646 -485.547977 
L 566.862467 -491.885077 
L 565.412288 -486.481484 
L 563.962108 -488.326429 
L 562.511929 -489.503458 
L 561.06175 -489.760533 
L 559.61157 -493.624501 
L 558.161391 -490.889902 
L 556.711212 -492.388823 
L 555.261032 -493.536152 
L 553.810853 -493.335891 
L 552.360674 -491.082115 
L 550.910494 -486.672795 
L 549.460315 -481.099853 
L 548.010136 -482.925675 
L 546.559956 -474.780484 
L 545.109777 -484.934789 
L 543.659598 -481.14592 
L 542.209418 -485.085061 
L 540.759239 -485.88322 
L 539.30906 -482.24518 
L 537.85888 -474.997821 
L 536.408701 -475.674521 
L 534.958522 -460.706613 
L 533.508342 -469.291442 
L 532.058163 -473.326805 
L 530.607984 -473.110514 
L 529.157804 -482.462404 
L 527.707625 -489.518973 
L 526.257446 -493.488765 
L 524.807266 -495.188085 
L 523.357087 -495.747775 
L 521.906908 -495.889382 
L 520.456729 -495.917999 
L 519.006549 -495.922217 
L 517.55637 -495.922217 
L 516.106191 -495.919706 
L 514.656011 -495.905861 
L 513.205832 -495.837807 
L 511.755653 -495.584976 
L 510.305473 -494.866078 
L 508.855294 -493.319599 
L 507.405115 -490.846197 
L 505.954935 -488.022359 
L 504.504756 -497.232461 
L 503.054577 -486.011148 
L 501.604397 -495.117366 
L 500.154218 -489.981248 
L 498.704039 -492.457906 
L 497.253859 -494.280775 
L 495.80368 -495.292044 
L 494.353501 -495.728655 
L 492.903321 -495.876513 
L 491.453142 -495.921536 
L 490.002963 -495.952977 
L 488.552783 -496.021116 
L 487.102604 -496.159455 
L 485.652425 -496.365437 
L 484.202245 -496.568484 
L 482.752066 -498.467305 
L 481.301887 -496.612993 
L 479.851707 -496.546955 
L 478.401528 -496.718572 
L 476.951349 -497.362364 
L 475.501169 -498.460111 
L 474.05099 -499.576233 
L 472.600811 -506.261821 
L 471.150632 -499.568361 
L 469.700452 -498.428004 
L 468.250273 -497.263468 
L 466.800094 -496.481334 
L 465.349914 -496.103736 
L 463.899735 -495.968112 
L 462.449556 -495.931254 
L 460.999376 -495.923603 
L 459.549197 -495.922217 
L 458.099018 -495.922217 
L 456.648838 -495.922217 
L 455.198659 -495.922217 
L 453.74848 -495.922217 
L 452.2983 -495.922217 
L 450.848121 -495.922217 
L 449.397942 -495.921515 
L 447.947762 -495.917636 
L 446.497583 -495.898954 
L 445.047404 -495.830208 
L 443.597224 -495.63881 
L 442.147045 -495.242358 
L 440.696866 -494.651784 
L 439.246686 -494.07228 
L 437.796507 -497.118941 
L 436.346328 -494.035085 
L 434.896148 -494.527078 
L 433.445969 -494.918987 
L 431.99579 -494.93842 
L 430.54561 -494.504238 
L 429.095431 -496.168023 
L 427.645252 -492.429395 
L 426.195073 -491.742126 
L 424.744893 -494.614903 
L 423.294714 -493.500221 
L 421.844535 -492.478233 
L 420.394355 -493.93401 
L 418.944176 -495.005753 
L 417.493997 -495.549591 
L 416.043817 -495.650103 
L 414.593638 -495.338729 
L 413.143459 -494.514076 
L 411.693279 -493.115823 
L 410.2431 -491.354508 
L 408.792921 -496.816278 
L 407.342741 -489.150602 
L 405.892562 -493.043057 
z
" style="stroke: #1f77b4; stroke-opacity: 0.2"/>
    </defs>
    <g clip-path="url(#p1f49ff462c)">
     <use xlink:href="#m918e1c5afb" x="0" y="720" style="fill: #1f77b4; fill-opacity: 0.2; stroke: #1f77b4; stroke-opacity: 0.2"/>
    </g>
   </g>
   <g id="PolyCollection_3">
    <defs>
     <path id="m2fb76cd82b" d="M 405.892562 -495.922217 
L 405.892562 -495.922217 
L 407.342741 -495.922217 
L 408.792921 -495.926078 
L 410.2431 -495.954161 
L 411.693279 -496.094205 
L 413.143459 -496.652031 
L 414.593638 -498.36632 
L 416.043817 -502.389404 
L 417.493997 -509.453649 
L 418.944176 -518.317675 
L 420.394355 -518.947415 
L 421.844535 -518.241369 
L 423.294714 -520.710573 
L 424.744893 -511.897809 
L 426.195073 -504.03097 
L 427.645252 -499.158833 
L 429.095431 -496.936681 
L 430.54561 -496.171564 
L 431.99579 -495.97022 
L 433.445969 -495.928987 
L 434.896148 -495.922217 
L 436.346328 -495.922217 
L 437.796507 -495.922217 
L 439.246686 -495.922217 
L 440.696866 -495.922217 
L 442.147045 -495.922217 
L 443.597224 -495.92164 
L 445.047404 -495.918455 
L 446.497583 -495.900543 
L 447.947762 -495.82793 
L 449.397942 -495.591521 
L 450.848121 -494.962017 
L 452.2983 -493.584083 
L 453.74848 -491.121434 
L 455.198659 -483.383769 
L 456.648838 -484.065564 
L 458.099018 -477.299571 
L 459.549197 -478.01932 
L 460.999376 -485.483976 
L 462.449556 -489.052382 
L 463.899735 -491.678254 
L 465.349914 -490.849627 
L 466.800094 -492.055289 
L 468.250273 -489.864547 
L 469.700452 -486.327735 
L 471.150632 -478.780067 
L 472.600811 -477.279889 
L 474.05099 -468.919861 
L 475.501169 -465.376493 
L 476.951349 -464.028702 
L 478.401528 -460.372851 
L 479.851707 -460.947675 
L 481.301887 -460.601376 
L 482.752066 -465.757155 
L 484.202245 -458.732235 
L 485.652425 -458.344159 
L 487.102604 -462.366284 
L 488.552783 -455.074264 
L 490.002963 -454.103828 
L 491.453142 -452.060911 
L 492.903321 -454.294065 
L 494.353501 -460.699473 
L 495.80368 -466.51832 
L 497.253859 -474.263889 
L 498.704039 -485.874961 
L 500.154218 -490.367493 
L 501.604397 -492.070051 
L 503.054577 -491.257992 
L 504.504756 -488.349753 
L 505.954935 -478.432477 
L 507.405115 -475.095759 
L 508.855294 -463.034042 
L 510.305473 -440.851191 
L 511.755653 -433.768991 
L 513.205832 -416.551068 
L 514.656011 -420.131303 
L 516.106191 -443.124044 
L 517.55637 -457.266906 
L 519.006549 -466.79283 
L 520.456729 -462.76121 
L 521.906908 -470.902401 
L 523.357087 -469.851373 
L 524.807266 -458.568009 
L 526.257446 -467.573288 
L 527.707625 -467.829407 
L 529.157804 -460.06682 
L 530.607984 -476.040945 
L 532.058163 -483.067692 
L 533.508342 -489.24474 
L 534.958522 -493.178107 
L 536.408701 -495.037389 
L 537.85888 -495.699868 
L 539.30906 -495.878434 
L 540.759239 -495.915503 
L 542.209418 -495.922217 
L 543.659598 -495.922217 
L 545.109777 -495.922217 
L 546.559956 -495.922217 
L 548.010136 -495.922217 
L 549.460315 -495.922217 
L 550.910494 -495.917536 
L 552.360674 -495.888437 
L 553.810853 -495.741742 
L 555.261032 -495.173738 
L 556.711212 -493.463319 
L 558.161391 -489.498617 
L 559.61157 -482.46879 
L 561.06175 -473.101279 
L 562.511929 -458.490596 
L 563.962108 -455.14921 
L 565.412288 -454.719891 
L 566.862467 -462.818131 
L 568.312646 -462.064497 
L 569.762826 -471.262521 
L 571.213005 -469.848801 
L 572.663184 -464.154709 
L 574.113363 -449.811324 
L 575.563543 -450.470625 
L 577.013722 -458.470022 
L 578.463901 -460.439843 
L 579.914081 -475.138783 
L 581.36426 -481.961231 
L 582.814439 -484.193021 
L 584.264619 -481.401227 
L 585.714798 -475.855766 
L 587.164977 -465.183041 
L 588.615157 -463.854693 
L 590.065336 -473.704535 
L 591.515515 -476.577174 
L 592.965695 -478.156709 
L 594.415874 -474.860468 
L 595.866053 -482.680702 
L 597.316233 -487.082811 
L 598.766412 -491.238625 
L 600.216591 -493.977317 
L 601.666771 -495.291812 
L 603.11695 -495.762826 
L 604.567129 -495.890831 
L 606.017309 -495.917404 
L 607.467488 -495.922217 
L 608.917667 -495.922217 
L 610.367847 -495.922217 
L 611.818026 -495.922217 
L 613.268205 -495.922217 
L 614.718385 -495.922217 
L 616.168564 -495.922217 
L 617.618743 -495.922217 
L 619.068923 -495.922217 
L 620.519102 -495.922217 
L 621.969281 -495.922217 
L 623.41946 -495.922217 
L 624.86964 -495.919817 
L 626.319819 -495.904165 
L 627.769998 -495.827076 
L 629.220178 -495.528345 
L 630.670357 -494.639464 
L 632.120536 -492.630851 
L 633.570716 -489.25929 
L 635.020895 -485.267726 
L 636.471074 -478.157155 
L 636.471074 -486.747487 
L 636.471074 -486.747487 
L 635.020895 -485.267726 
L 633.570716 -489.25929 
L 632.120536 -492.630851 
L 630.670357 -494.639464 
L 629.220178 -495.528345 
L 627.769998 -495.827076 
L 626.319819 -495.904165 
L 624.86964 -495.919817 
L 623.41946 -495.922217 
L 621.969281 -495.922217 
L 620.519102 -495.922217 
L 619.068923 -495.922217 
L 617.618743 -495.922217 
L 616.168564 -495.922217 
L 614.718385 -495.922217 
L 613.268205 -495.922217 
L 611.818026 -495.922217 
L 610.367847 -495.922217 
L 608.917667 -495.922217 
L 607.467488 -495.922217 
L 606.017309 -495.917404 
L 604.567129 -495.890831 
L 603.11695 -495.762826 
L 601.666771 -495.291812 
L 600.216591 -493.977317 
L 598.766412 -491.238625 
L 597.316233 -487.082811 
L 595.866053 -482.680702 
L 594.415874 -484.418246 
L 592.965695 -478.156709 
L 591.515515 -476.577174 
L 590.065336 -473.704535 
L 588.615157 -478.23649 
L 587.164977 -477.826618 
L 585.714798 -475.855766 
L 584.264619 -481.401227 
L 582.814439 -484.193021 
L 581.36426 -481.961231 
L 579.914081 -475.138783 
L 578.463901 -471.923657 
L 577.013722 -458.470022 
L 575.563543 -459.956833 
L 574.113363 -465.746706 
L 572.663184 -464.154709 
L 571.213005 -469.848801 
L 569.762826 -471.262521 
L 568.312646 -474.144525 
L 566.862467 -462.818131 
L 565.412288 -462.812343 
L 563.962108 -462.513089 
L 562.511929 -469.759582 
L 561.06175 -473.101279 
L 559.61157 -482.46879 
L 558.161391 -489.498617 
L 556.711212 -493.463319 
L 555.261032 -495.173738 
L 553.810853 -495.741742 
L 552.360674 -495.888437 
L 550.910494 -495.917536 
L 549.460315 -495.922217 
L 548.010136 -495.922217 
L 546.559956 -495.922217 
L 545.109777 -495.922217 
L 543.659598 -495.922217 
L 542.209418 -495.922217 
L 540.759239 -495.915503 
L 539.30906 -495.878434 
L 537.85888 -495.699868 
L 536.408701 -495.037389 
L 534.958522 -493.178107 
L 533.508342 -489.24474 
L 532.058163 -483.067692 
L 530.607984 -476.040945 
L 529.157804 -480.938143 
L 527.707625 -467.829407 
L 526.257446 -467.573288 
L 524.807266 -478.501636 
L 523.357087 -469.851373 
L 521.906908 -470.902401 
L 520.456729 -478.447619 
L 519.006549 -466.79283 
L 517.55637 -457.266906 
L 516.106191 -443.124044 
L 514.656011 -440.851749 
L 513.205832 -436.692558 
L 511.755653 -433.768991 
L 510.305473 -455.01847 
L 508.855294 -463.034042 
L 507.405115 -475.095759 
L 505.954935 -488.064822 
L 504.504756 -488.349753 
L 503.054577 -491.257992 
L 501.604397 -492.070051 
L 500.154218 -490.367493 
L 498.704039 -485.874961 
L 497.253859 -483.839219 
L 495.80368 -476.022309 
L 494.353501 -467.976757 
L 492.903321 -465.058955 
L 491.453142 -463.643321 
L 490.002963 -462.871742 
L 488.552783 -465.758002 
L 487.102604 -462.366284 
L 485.652425 -469.303347 
L 484.202245 -471.151887 
L 482.752066 -465.757155 
L 481.301887 -471.631274 
L 479.851707 -471.46065 
L 478.401528 -472.711776 
L 476.951349 -471.186425 
L 475.501169 -474.084565 
L 474.05099 -477.150849 
L 472.600811 -477.279889 
L 471.150632 -485.065304 
L 469.700452 -486.327735 
L 468.250273 -489.864547 
L 466.800094 -492.055289 
L 465.349914 -494.530544 
L 463.899735 -491.678254 
L 462.449556 -489.052382 
L 460.999376 -485.483976 
L 459.549197 -487.126844 
L 458.099018 -486.663186 
L 456.648838 -484.065564 
L 455.198659 -491.905806 
L 453.74848 -491.121434 
L 452.2983 -493.584083 
L 450.848121 -494.962017 
L 449.397942 -495.591521 
L 447.947762 -495.82793 
L 446.497583 -495.900543 
L 445.047404 -495.918455 
L 443.597224 -495.92164 
L 442.147045 -495.922217 
L 440.696866 -495.922217 
L 439.246686 -495.922217 
L 437.796507 -495.922217 
L 436.346328 -495.922217 
L 434.896148 -495.922217 
L 433.445969 -495.928987 
L 431.99579 -495.97022 
L 430.54561 -496.171564 
L 429.095431 -496.936681 
L 427.645252 -499.158833 
L 426.195073 -504.03097 
L 424.744893 -511.897809 
L 423.294714 -520.710573 
L 421.844535 -534.273872 
L 420.394355 -531.530092 
L 418.944176 -518.317675 
L 417.493997 -509.453649 
L 416.043817 -502.389404 
L 414.593638 -498.36632 
L 413.143459 -496.652031 
L 411.693279 -496.094205 
L 410.2431 -495.954161 
L 408.792921 -495.926078 
L 407.342741 -495.922217 
L 405.892562 -495.922217 
z
" style="stroke: #d62728; stroke-opacity: 0.2"/>
    </defs>
    <g clip-path="url(#p1f49ff462c)">
     <use xlink:href="#m2fb76cd82b" x="0" y="720" style="fill: #d62728; fill-opacity: 0.2; stroke: #d62728; stroke-opacity: 0.2"/>
    </g>
   </g>
   <g id="PolyCollection_4">
    <defs>
     <path id="m0daab127df" d="M 405.892562 -495.415903 
L 405.892562 -495.415903 
L 407.342741 -495.20624 
L 408.792921 -494.938615 
L 410.2431 -491.659691 
L 411.693279 -494.950473 
L 413.143459 -495.254602 
L 414.593638 -495.564868 
L 416.043817 -495.773252 
L 417.493997 -495.873855 
L 418.944176 -495.909989 
L 420.394355 -495.919809 
L 421.844535 -495.921848 
L 423.294714 -495.922217 
L 424.744893 -495.922217 
L 426.195073 -495.922217 
L 427.645252 -495.922217 
L 429.095431 -495.922217 
L 430.54561 -495.922217 
L 431.99579 -495.922217 
L 433.445969 -495.923056 
L 434.896148 -495.929353 
L 436.346328 -495.960857 
L 437.796507 -496.087773 
L 439.246686 -496.483094 
L 440.696866 -497.429198 
L 442.147045 -499.149325 
L 443.597224 -501.469825 
L 445.047404 -500.07651 
L 446.497583 -501.687635 
L 447.947762 -504.799568 
L 449.397942 -501.139806 
L 450.848121 -498.133995 
L 452.2983 -500.112001 
L 453.74848 -498.930963 
L 455.198659 -499.266572 
L 456.648838 -502.133275 
L 458.099018 -507.991121 
L 459.549197 -515.791838 
L 460.999376 -515.139919 
L 462.449556 -519.989173 
L 463.899735 -520.65462 
L 465.349914 -523.339522 
L 466.800094 -514.080312 
L 468.250273 -510.138467 
L 469.700452 -507.416278 
L 471.150632 -502.313952 
L 472.600811 -498.825789 
L 474.05099 -496.982627 
L 475.501169 -496.230354 
L 476.951349 -495.989819 
L 478.401528 -495.917044 
L 479.851707 -495.851627 
L 481.301887 -495.700236 
L 482.752066 -495.389711 
L 484.202245 -494.927365 
L 485.652425 -494.474716 
L 487.102604 -489.843794 
L 488.552783 -494.474716 
L 490.002963 -494.927365 
L 491.453142 -495.389711 
L 492.903321 -495.700236 
L 494.353501 -495.85015 
L 495.80368 -495.903996 
L 497.253859 -495.918629 
L 498.704039 -495.921667 
L 500.154218 -495.922217 
L 501.604397 -495.922217 
L 503.054577 -495.922217 
L 504.504756 -495.922217 
L 505.954935 -495.922217 
L 507.405115 -495.922217 
L 508.855294 -495.922217 
L 510.305473 -495.922217 
L 511.755653 -495.91727 
L 513.205832 -495.889958 
L 514.656011 -495.753386 
L 516.106191 -495.234263 
L 517.55637 -493.71259 
L 519.006549 -490.234857 
L 520.456729 -483.992904 
L 521.906908 -475.090135 
L 523.357087 -456.341192 
L 524.807266 -456.412963 
L 526.257446 -442.876893 
L 527.707625 -443.510907 
L 529.157804 -465.418097 
L 530.607984 -476.837889 
L 532.058163 -485.789867 
L 533.508342 -490.304382 
L 534.958522 -491.131383 
L 536.408701 -490.327942 
L 537.85888 -484.928575 
L 539.30906 -490.597314 
L 540.759239 -492.267535 
L 542.209418 -493.966007 
L 543.659598 -495.106747 
L 545.109777 -495.657473 
L 546.559956 -495.855279 
L 548.010136 -495.909036 
L 549.460315 -495.920196 
L 550.910494 -495.922217 
L 552.360674 -495.922217 
L 553.810853 -495.922217 
L 555.261032 -495.922217 
L 556.711212 -495.922217 
L 558.161391 -495.922217 
L 559.61157 -495.922217 
L 561.06175 -495.922217 
L 562.511929 -495.922217 
L 563.962108 -495.922217 
L 565.412288 -495.922217 
L 566.862467 -495.922217 
L 568.312646 -495.922217 
L 569.762826 -495.922217 
L 571.213005 -495.9218 
L 572.663184 -495.919498 
L 574.113363 -495.908407 
L 575.563543 -495.867596 
L 577.013722 -495.753972 
L 578.463901 -495.518619 
L 579.914081 -495.166839 
L 581.36426 -494.816278 
L 582.814439 -481.993172 
L 584.264619 -494.647484 
L 585.714798 -494.62103 
L 587.164977 -494.206036 
L 588.615157 -493.301745 
L 590.065336 -492.297699 
L 591.515515 -482.881348 
L 592.965695 -492.282549 
L 594.415874 -493.190945 
L 595.866053 -493.728407 
L 597.316233 -493.190272 
L 598.766412 -491.493005 
L 600.216591 -489.374039 
L 601.666771 -482.34762 
L 603.11695 -483.124141 
L 604.567129 -490.354165 
L 606.017309 -492.607128 
L 607.467488 -494.254805 
L 608.917667 -494.884865 
L 610.367847 -493.336977 
L 611.818026 -493.506432 
L 613.268205 -492.341819 
L 614.718385 -487.895145 
L 616.168564 -491.758583 
L 617.618743 -492.307519 
L 619.068923 -492.896969 
L 620.519102 -489.866605 
L 621.969281 -494.022618 
L 623.41946 -494.693231 
L 624.86964 -495.279474 
L 626.319819 -495.656595 
L 627.769998 -495.836419 
L 629.220178 -495.900524 
L 630.670357 -495.917946 
L 632.120536 -495.921562 
L 633.570716 -495.922217 
L 635.020895 -495.922217 
L 636.471074 -495.922217 
L 636.471074 -495.922217 
L 636.471074 -495.922217 
L 635.020895 -495.922217 
L 633.570716 -495.922217 
L 632.120536 -495.921562 
L 630.670357 -495.917946 
L 629.220178 -495.900524 
L 627.769998 -495.836419 
L 626.319819 -495.656595 
L 624.86964 -495.279474 
L 623.41946 -494.693231 
L 621.969281 -494.022618 
L 620.519102 -496.986426 
L 619.068923 -492.896969 
L 617.618743 -492.307519 
L 616.168564 -491.758583 
L 614.718385 -495.450532 
L 613.268205 -492.341819 
L 611.818026 -493.506432 
L 610.367847 -495.736511 
L 608.917667 -494.884865 
L 607.467488 -494.254805 
L 606.017309 -492.607128 
L 604.567129 -490.354165 
L 603.11695 -493.854047 
L 601.666771 -493.818675 
L 600.216591 -489.374039 
L 598.766412 -491.493005 
L 597.316233 -493.190272 
L 595.866053 -493.728407 
L 594.415874 -493.190945 
L 592.965695 -492.282549 
L 591.515515 -500.822671 
L 590.065336 -492.297699 
L 588.615157 -493.301745 
L 587.164977 -494.206036 
L 585.714798 -494.62103 
L 584.264619 -494.647484 
L 582.814439 -507.275092 
L 581.36426 -494.816278 
L 579.914081 -495.166839 
L 578.463901 -495.518619 
L 577.013722 -495.753972 
L 575.563543 -495.867596 
L 574.113363 -495.908407 
L 572.663184 -495.919498 
L 571.213005 -495.9218 
L 569.762826 -495.922217 
L 568.312646 -495.922217 
L 566.862467 -495.922217 
L 565.412288 -495.922217 
L 563.962108 -495.922217 
L 562.511929 -495.922217 
L 561.06175 -495.922217 
L 559.61157 -495.922217 
L 558.161391 -495.922217 
L 556.711212 -495.922217 
L 555.261032 -495.922217 
L 553.810853 -495.922217 
L 552.360674 -495.922217 
L 550.910494 -495.922217 
L 549.460315 -495.920196 
L 548.010136 -495.909036 
L 546.559956 -495.855279 
L 545.109777 -495.657473 
L 543.659598 -495.106747 
L 542.209418 -493.966007 
L 540.759239 -492.267535 
L 539.30906 -490.597314 
L 537.85888 -494.75861 
L 536.408701 -490.327942 
L 534.958522 -491.131383 
L 533.508342 -490.304382 
L 532.058163 -485.789867 
L 530.607984 -476.837889 
L 529.157804 -465.418097 
L 527.707625 -468.449992 
L 526.257446 -462.45006 
L 524.807266 -456.412963 
L 523.357087 -473.641927 
L 521.906908 -475.090135 
L 520.456729 -483.992904 
L 519.006549 -490.234857 
L 517.55637 -493.71259 
L 516.106191 -495.234263 
L 514.656011 -495.753386 
L 513.205832 -495.889958 
L 511.755653 -495.91727 
L 510.305473 -495.922217 
L 508.855294 -495.922217 
L 507.405115 -495.922217 
L 505.954935 -495.922217 
L 504.504756 -495.922217 
L 503.054577 -495.922217 
L 501.604397 -495.922217 
L 500.154218 -495.922217 
L 498.704039 -495.921667 
L 497.253859 -495.918629 
L 495.80368 -495.903996 
L 494.353501 -495.85015 
L 492.903321 -495.700236 
L 491.453142 -495.389711 
L 490.002963 -494.927365 
L 488.552783 -494.474716 
L 487.102604 -498.720174 
L 485.652425 -494.474716 
L 484.202245 -494.927365 
L 482.752066 -495.389711 
L 481.301887 -495.700236 
L 479.851707 -495.851627 
L 478.401528 -495.917044 
L 476.951349 -495.989819 
L 475.501169 -496.230354 
L 474.05099 -496.982627 
L 472.600811 -498.825789 
L 471.150632 -502.313952 
L 469.700452 -507.416278 
L 468.250273 -516.396878 
L 466.800094 -523.48008 
L 465.349914 -523.339522 
L 463.899735 -532.107016 
L 462.449556 -533.263197 
L 460.999376 -530.617494 
L 459.549197 -515.791838 
L 458.099018 -507.991121 
L 456.648838 -502.133275 
L 455.198659 -499.266572 
L 453.74848 -498.930963 
L 452.2983 -500.112001 
L 450.848121 -505.653131 
L 449.397942 -506.115037 
L 447.947762 -504.799568 
L 446.497583 -508.119481 
L 445.047404 -507.269911 
L 443.597224 -501.469825 
L 442.147045 -499.149325 
L 440.696866 -497.429198 
L 439.246686 -496.483094 
L 437.796507 -496.087773 
L 436.346328 -495.960857 
L 434.896148 -495.929353 
L 433.445969 -495.923056 
L 431.99579 -495.922217 
L 430.54561 -495.922217 
L 429.095431 -495.922217 
L 427.645252 -495.922217 
L 426.195073 -495.922217 
L 424.744893 -495.922217 
L 423.294714 -495.922217 
L 421.844535 -495.921848 
L 420.394355 -495.919809 
L 418.944176 -495.909989 
L 417.493997 -495.873855 
L 416.043817 -495.773252 
L 414.593638 -495.564868 
L 413.143459 -495.254602 
L 411.693279 -494.950473 
L 410.2431 -497.978505 
L 408.792921 -494.938615 
L 407.342741 -495.20624 
L 405.892562 -495.415903 
z
" style="stroke: #ff7f0e; stroke-opacity: 0.2"/>
    </defs>
    <g clip-path="url(#p1f49ff462c)">
     <use xlink:href="#m0daab127df" x="0" y="720" style="fill: #ff7f0e; fill-opacity: 0.2; stroke: #ff7f0e; stroke-opacity: 0.2"/>
    </g>
   </g>
   <g id="matplotlib.axis_3">
    <g id="xtick_7">
     <g id="line2d_13">
      <g>
       <use xlink:href="#mf1a3b6a439" x="405.863558" y="333.490909" style="stroke: #000000; stroke-width: 0.8"/>
      </g>
     </g>
     <g id="text_13">
      <!-- 0 -->
      <g transform="translate(402.682308 348.089347)scale(0.1 -0.1)">
       <use xlink:href="#DejaVuSans-30"/>
      </g>
     </g>
    </g>
    <g id="xtick_8">
     <g id="line2d_14">
      <g>
       <use xlink:href="#mf1a3b6a439" x="463.870731" y="333.490909" style="stroke: #000000; stroke-width: 0.8"/>
      </g>
     </g>
     <g id="text_14">
      <!-- 2000 -->
      <g transform="translate(451.145731 348.089347)scale(0.1 -0.1)">
       <use xlink:href="#DejaVuSans-32"/>
       <use xlink:href="#DejaVuSans-30" x="63.623047"/>
       <use xlink:href="#DejaVuSans-30" x="127.246094"/>
       <use xlink:href="#DejaVuSans-30" x="190.869141"/>
      </g>
     </g>
    </g>
    <g id="xtick_9">
     <g id="line2d_15">
      <g>
       <use xlink:href="#mf1a3b6a439" x="521.877904" y="333.490909" style="stroke: #000000; stroke-width: 0.8"/>
      </g>
     </g>
     <g id="text_15">
      <!-- 4000 -->
      <g transform="translate(509.152904 348.089347)scale(0.1 -0.1)">
       <use xlink:href="#DejaVuSans-34"/>
       <use xlink:href="#DejaVuSans-30" x="63.623047"/>
       <use xlink:href="#DejaVuSans-30" x="127.246094"/>
       <use xlink:href="#DejaVuSans-30" x="190.869141"/>
      </g>
     </g>
    </g>
    <g id="xtick_10">
     <g id="line2d_16">
      <g>
       <use xlink:href="#mf1a3b6a439" x="579.885077" y="333.490909" style="stroke: #000000; stroke-width: 0.8"/>
      </g>
     </g>
     <g id="text_16">
      <!-- 6000 -->
      <g transform="translate(567.160077 348.089347)scale(0.1 -0.1)">
       <use xlink:href="#DejaVuSans-36"/>
       <use xlink:href="#DejaVuSans-30" x="63.623047"/>
       <use xlink:href="#DejaVuSans-30" x="127.246094"/>
       <use xlink:href="#DejaVuSans-30" x="190.869141"/>
      </g>
     </g>
    </g>
    <g id="xtick_11">
     <g id="line2d_17">
      <g>
       <use xlink:href="#mf1a3b6a439" x="637.89225" y="333.490909" style="stroke: #000000; stroke-width: 0.8"/>
      </g>
     </g>
     <g id="text_17">
      <!-- 8000 -->
      <g transform="translate(625.16725 348.089347)scale(0.1 -0.1)">
       <use xlink:href="#DejaVuSans-38"/>
       <use xlink:href="#DejaVuSans-30" x="63.623047"/>
       <use xlink:href="#DejaVuSans-30" x="127.246094"/>
       <use xlink:href="#DejaVuSans-30" x="190.869141"/>
      </g>
     </g>
    </g>
   </g>
   <g id="matplotlib.axis_4">
    <g id="ytick_7">
     <g id="line2d_18">
      <g>
       <use xlink:href="#m7cb0726e72" x="394.363636" y="308.130063" style="stroke: #000000; stroke-width: 0.8"/>
      </g>
     </g>
     <g id="text_18">
      <!-- −0.6 -->
      <g transform="translate(363.080824 311.929282)scale(0.1 -0.1)">
       <defs>
        <path id="DejaVuSans-2212" d="M 678 2272 
L 4684 2272 
L 4684 1741 
L 678 1741 
L 678 2272 
z
" transform="scale(0.015625)"/>
       </defs>
       <use xlink:href="#DejaVuSans-2212"/>
       <use xlink:href="#DejaVuSans-30" x="83.789062"/>
       <use xlink:href="#DejaVuSans-2e" x="147.412109"/>
       <use xlink:href="#DejaVuSans-36" x="179.199219"/>
      </g>
     </g>
    </g>
    <g id="ytick_8">
     <g id="line2d_19">
      <g>
       <use xlink:href="#m7cb0726e72" x="394.363636" y="280.112636" style="stroke: #000000; stroke-width: 0.8"/>
      </g>
     </g>
     <g id="text_19">
      <!-- −0.4 -->
      <g transform="translate(363.080824 283.911855)scale(0.1 -0.1)">
       <use xlink:href="#DejaVuSans-2212"/>
       <use xlink:href="#DejaVuSans-30" x="83.789062"/>
       <use xlink:href="#DejaVuSans-2e" x="147.412109"/>
       <use xlink:href="#DejaVuSans-34" x="179.199219"/>
      </g>
     </g>
    </g>
    <g id="ytick_9">
     <g id="line2d_20">
      <g>
       <use xlink:href="#m7cb0726e72" x="394.363636" y="252.09521" style="stroke: #000000; stroke-width: 0.8"/>
      </g>
     </g>
     <g id="text_20">
      <!-- −0.2 -->
      <g transform="translate(363.080824 255.894428)scale(0.1 -0.1)">
       <use xlink:href="#DejaVuSans-2212"/>
       <use xlink:href="#DejaVuSans-30" x="83.789062"/>
       <use xlink:href="#DejaVuSans-2e" x="147.412109"/>
       <use xlink:href="#DejaVuSans-32" x="179.199219"/>
      </g>
     </g>
    </g>
    <g id="ytick_10">
     <g id="line2d_21">
      <g>
       <use xlink:href="#m7cb0726e72" x="394.363636" y="224.077783" style="stroke: #000000; stroke-width: 0.8"/>
      </g>
     </g>
     <g id="text_21">
      <!-- 0.0 -->
      <g transform="translate(371.460511 227.877002)scale(0.1 -0.1)">
       <use xlink:href="#DejaVuSans-30"/>
       <use xlink:href="#DejaVuSans-2e" x="63.623047"/>
       <use xlink:href="#DejaVuSans-30" x="95.410156"/>
      </g>
     </g>
    </g>
    <g id="ytick_11">
     <g id="line2d_22">
      <g>
       <use xlink:href="#m7cb0726e72" x="394.363636" y="196.060356" style="stroke: #000000; stroke-width: 0.8"/>
      </g>
     </g>
     <g id="text_22">
      <!-- 0.2 -->
      <g transform="translate(371.460511 199.859575)scale(0.1 -0.1)">
       <use xlink:href="#DejaVuSans-30"/>
       <use xlink:href="#DejaVuSans-2e" x="63.623047"/>
       <use xlink:href="#DejaVuSans-32" x="95.410156"/>
      </g>
     </g>
    </g>
    <g id="ytick_12">
     <g id="line2d_23">
      <g>
       <use xlink:href="#m7cb0726e72" x="394.363636" y="168.042929" style="stroke: #000000; stroke-width: 0.8"/>
      </g>
     </g>
     <g id="text_23">
      <!-- 0.4 -->
      <g transform="translate(371.460511 171.842148)scale(0.1 -0.1)">
       <use xlink:href="#DejaVuSans-30"/>
       <use xlink:href="#DejaVuSans-2e" x="63.623047"/>
       <use xlink:href="#DejaVuSans-34" x="95.410156"/>
      </g>
     </g>
    </g>
    <g id="ytick_13">
     <g id="line2d_24">
      <g>
       <use xlink:href="#m7cb0726e72" x="394.363636" y="140.025502" style="stroke: #000000; stroke-width: 0.8"/>
      </g>
     </g>
     <g id="text_24">
      <!-- 0.6 -->
      <g transform="translate(371.460511 143.824721)scale(0.1 -0.1)">
       <use xlink:href="#DejaVuSans-30"/>
       <use xlink:href="#DejaVuSans-2e" x="63.623047"/>
       <use xlink:href="#DejaVuSans-36" x="95.410156"/>
      </g>
     </g>
    </g>
    <g id="ytick_14">
     <g id="line2d_25">
      <g>
       <use xlink:href="#m7cb0726e72" x="394.363636" y="112.008076" style="stroke: #000000; stroke-width: 0.8"/>
      </g>
     </g>
     <g id="text_25">
      <!-- 0.8 -->
      <g transform="translate(371.460511 115.807294)scale(0.1 -0.1)">
       <use xlink:href="#DejaVuSans-30"/>
       <use xlink:href="#DejaVuSans-2e" x="63.623047"/>
       <use xlink:href="#DejaVuSans-38" x="95.410156"/>
      </g>
     </g>
    </g>
   </g>
   <g id="line2d_26">
    <path d="M 405.892562 229.493193 
L 407.342741 235.492386 
L 408.792921 248.171272 
L 410.2431 266.849792 
L 411.693279 287.890496 
L 413.143459 305.662921 
L 414.593638 315.158571 
L 416.043817 313.867576 
L 417.493997 302.254384 
L 418.944176 283.648701 
L 420.394355 263.467271 
L 421.844535 247.267058 
L 423.294714 238.397073 
L 424.744893 236.878016 
L 426.195073 240.117133 
L 427.645252 244.791155 
L 429.095431 248.767882 
L 431.99579 255.076097 
L 433.445969 258.786281 
L 434.896148 262.148686 
L 436.346328 263.824682 
L 437.796507 263.45302 
L 439.246686 261.771193 
L 440.696866 259.300436 
L 442.147045 255.689981 
L 443.597224 250.638704 
L 445.047404 244.852402 
L 446.497583 239.563329 
L 447.947762 235.439005 
L 449.397942 232.429894 
L 450.848121 230.368125 
L 452.2983 229.095879 
L 455.198659 227.261907 
L 458.099018 225.174763 
L 459.549197 224.533599 
L 460.999376 224.225625 
L 463.899735 224.085181 
L 490.002963 223.99949 
L 491.453142 223.768129 
L 492.903321 223.123982 
L 494.353501 221.789733 
L 497.253859 217.856078 
L 498.704039 217.016134 
L 500.154218 217.775986 
L 501.604397 219.448818 
L 503.054577 220.550619 
L 504.504756 219.554248 
L 505.954935 215.226174 
L 507.405115 206.871719 
L 508.855294 194.989431 
L 511.755653 167.258993 
L 513.205832 151.821051 
L 514.656011 134.150465 
L 516.106191 117.918369 
L 517.55637 110.79713 
L 519.006549 117.67214 
L 520.456729 136.224561 
L 523.357087 181.2825 
L 524.807266 196.169909 
L 526.257446 201.291179 
L 527.707625 196.987138 
L 529.157804 187.854114 
L 530.607984 180.317157 
L 532.058163 178.025937 
L 533.508342 179.844698 
L 534.958522 182.200172 
L 536.408701 182.233464 
L 537.85888 179.266216 
L 539.30906 175.09757 
L 540.759239 172.892376 
L 542.209418 174.611703 
L 545.109777 184.112102 
L 546.559956 186.12291 
L 548.010136 184.427265 
L 550.910494 175.925255 
L 552.360674 173.122617 
L 553.810853 172.369046 
L 555.261032 173.567544 
L 556.711212 176.510944 
L 558.161391 180.886254 
L 559.61157 186.535464 
L 561.06175 193.669329 
L 563.962108 210.127672 
L 565.412288 215.575631 
L 566.862467 217.038628 
L 568.312646 215.028048 
L 569.762826 211.677455 
L 571.213005 209.418051 
L 572.663184 209.231773 
L 575.563543 211.408958 
L 577.013722 212.824202 
L 578.463901 215.15363 
L 579.914081 218.198943 
L 581.36426 220.981207 
L 582.814439 222.794627 
L 584.264619 223.658005 
L 585.714798 223.938466 
L 587.164977 223.871857 
L 588.615157 223.296263 
L 590.065336 221.487188 
L 591.515515 217.188576 
L 592.965695 209.320923 
L 595.866053 187.298417 
L 597.316233 180.379761 
L 598.766412 180.417227 
L 600.216591 186.470365 
L 601.666771 194.338149 
L 603.11695 199.639679 
L 604.567129 200.947171 
L 606.017309 200.250902 
L 607.467488 200.617289 
L 608.917667 203.469262 
L 610.367847 207.793987 
L 611.818026 211.483358 
L 613.268205 213.221196 
L 614.718385 213.315515 
L 616.168564 213.0999 
L 617.618743 213.647485 
L 619.068923 214.84645 
L 620.519102 215.633451 
L 621.969281 215.156359 
L 623.41946 213.609545 
L 624.86964 211.85581 
L 627.769998 208.676507 
L 630.670357 204.33845 
L 632.120536 203.656276 
L 633.570716 205.134994 
L 635.020895 207.88647 
L 636.471074 210.00508 
L 636.471074 210.00508 
" clip-path="url(#p1f49ff462c)" style="fill: none; stroke: #9467bd; stroke-width: 2; stroke-linecap: square"/>
   </g>
   <g id="line2d_27">
    <path d="M 405.892562 231.996871 
L 407.342741 231.456566 
L 408.792921 230.304269 
L 413.143459 225.485924 
L 414.593638 224.661271 
L 416.043817 224.349897 
L 417.493997 224.450409 
L 418.944176 224.994247 
L 420.394355 226.06599 
L 421.844535 227.521767 
L 423.294714 228.818862 
L 424.744893 229.29797 
L 426.195073 228.746914 
L 429.095431 226.367635 
L 430.54561 225.495762 
L 431.99579 225.06158 
L 433.445969 225.081013 
L 437.796507 226.181457 
L 439.246686 225.92772 
L 442.147045 224.757642 
L 443.597224 224.36119 
L 445.047404 224.169792 
L 447.947762 224.082364 
L 463.899735 224.031888 
L 465.349914 223.896264 
L 466.800094 223.518666 
L 468.250273 222.736532 
L 471.150632 220.431639 
L 472.600811 219.94484 
L 474.05099 220.423767 
L 476.951349 222.637636 
L 478.401528 223.281428 
L 479.851707 223.453045 
L 482.752066 223.338 
L 485.652425 223.634563 
L 488.552783 223.978884 
L 494.353501 224.271345 
L 495.80368 224.707956 
L 497.253859 225.719225 
L 498.704039 227.542094 
L 501.604397 232.648236 
L 503.054577 234.231202 
L 504.504756 233.992606 
L 505.954935 231.977641 
L 507.405115 229.153803 
L 508.855294 226.680401 
L 510.305473 225.133922 
L 511.755653 224.415024 
L 513.205832 224.162193 
L 516.106191 224.080294 
L 521.906908 224.110618 
L 523.357087 224.252225 
L 524.807266 224.811915 
L 526.257446 226.511235 
L 527.707625 230.481027 
L 529.157804 237.537596 
L 532.058163 255.65731 
L 533.508342 260.375792 
L 534.958522 259.293387 
L 536.408701 253.271099 
L 537.85888 245.002179 
L 539.30906 237.75482 
L 540.759239 234.11678 
L 542.209418 234.914939 
L 543.659598 238.85408 
L 545.109777 243.203168 
L 546.559956 245.219516 
L 548.010136 243.56129 
L 549.460315 238.900147 
L 550.910494 233.327205 
L 552.360674 228.917885 
L 553.810853 226.664109 
L 555.261032 226.463848 
L 556.711212 227.611177 
L 558.161391 229.110098 
L 559.61157 230.043526 
L 562.511929 230.496542 
L 563.962108 231.673571 
L 565.412288 233.518516 
L 566.862467 234.757199 
L 568.312646 234.452023 
L 569.762826 232.893432 
L 571.213005 231.020363 
L 572.663184 229.468229 
L 574.113363 228.526181 
L 575.563543 228.59732 
L 577.013722 230.098763 
L 578.463901 232.851587 
L 579.914081 235.900417 
L 581.36426 238.107918 
L 582.814439 238.800177 
L 584.264619 237.926009 
L 587.164977 233.912531 
L 588.615157 232.420728 
L 591.515515 230.58767 
L 592.965695 229.257037 
L 595.866053 226.12199 
L 597.316233 225.04608 
L 598.766412 224.450066 
L 600.216591 224.192521 
L 603.11695 224.083025 
L 614.718385 224.102495 
L 616.168564 224.180712 
L 617.618743 224.421179 
L 619.068923 225.005774 
L 620.519102 226.132414 
L 621.969281 227.836614 
L 623.41946 229.77298 
L 624.86964 231.189447 
L 626.319819 231.322337 
L 627.769998 230.025777 
L 630.670357 226.087367 
L 632.120536 224.890357 
L 633.570716 224.333093 
L 635.020895 224.139472 
L 636.471074 224.090597 
L 636.471074 224.090597 
" clip-path="url(#p1f49ff462c)" style="fill: none; stroke: #1f77b4; stroke-width: 2; stroke-linecap: square"/>
   </g>
   <g id="line2d_28">
    <path d="M 405.892562 224.077783 
L 410.2431 224.045839 
L 411.693279 223.905795 
L 413.143459 223.347969 
L 414.593638 221.63368 
L 416.043817 217.610596 
L 417.493997 210.546351 
L 418.944176 201.682325 
L 420.394355 194.761246 
L 421.844535 193.742379 
L 423.294714 199.289427 
L 424.744893 208.102191 
L 426.195073 215.96903 
L 427.645252 220.841167 
L 429.095431 223.063319 
L 430.54561 223.828436 
L 431.99579 224.02978 
L 436.346328 224.077783 
L 447.947762 224.17207 
L 449.397942 224.408479 
L 450.848121 225.037983 
L 452.2983 226.415917 
L 453.74848 228.878566 
L 456.648838 235.934436 
L 458.099018 238.018621 
L 459.549197 237.426918 
L 460.999376 234.516024 
L 462.449556 230.947618 
L 463.899735 228.321746 
L 465.349914 227.309914 
L 466.800094 227.944711 
L 468.250273 230.135453 
L 469.700452 233.672265 
L 474.05099 246.964645 
L 475.501169 250.269471 
L 476.951349 252.392437 
L 478.401528 253.457686 
L 479.851707 253.795838 
L 481.301887 253.883675 
L 482.752066 254.242845 
L 484.202245 255.057939 
L 485.652425 256.176247 
L 487.102604 257.633716 
L 490.002963 261.512215 
L 491.453142 262.147884 
L 492.903321 260.32349 
L 494.353501 255.661885 
L 495.80368 248.729686 
L 497.253859 240.948446 
L 498.704039 234.125039 
L 500.154218 229.632507 
L 501.604397 227.929949 
L 503.054577 228.742008 
L 504.504756 231.650247 
L 505.954935 236.751351 
L 507.405115 244.904241 
L 508.855294 256.965958 
L 511.755653 286.231009 
L 513.205832 293.378187 
L 514.656011 289.508474 
L 516.106191 276.875956 
L 517.55637 262.733094 
L 519.006549 253.20717 
L 520.456729 249.395586 
L 521.906908 249.097599 
L 523.357087 250.148627 
L 524.807266 251.465177 
L 526.257446 252.426712 
L 527.707625 252.170593 
L 529.157804 249.497518 
L 530.607984 243.959055 
L 532.058163 236.932308 
L 533.508342 230.75526 
L 534.958522 226.821893 
L 536.408701 224.962611 
L 537.85888 224.300132 
L 539.30906 224.121566 
L 545.109777 224.077783 
L 552.360674 224.111563 
L 553.810853 224.258258 
L 555.261032 224.826262 
L 556.711212 226.536681 
L 558.161391 230.501383 
L 559.61157 237.53121 
L 562.511929 255.874911 
L 563.962108 261.16885 
L 565.412288 261.233883 
L 566.862467 257.181869 
L 568.312646 251.895489 
L 569.762826 248.737479 
L 571.213005 250.151199 
L 572.663184 255.845291 
L 574.113363 262.220985 
L 575.563543 264.786271 
L 577.013722 261.529978 
L 578.463901 253.81825 
L 579.914081 244.861217 
L 581.36426 238.038769 
L 582.814439 235.806979 
L 584.264619 238.598773 
L 585.714798 244.144234 
L 587.164977 248.49517 
L 588.615157 248.954409 
L 591.515515 243.422826 
L 594.415874 240.360643 
L 595.866053 237.319298 
L 598.766412 228.761375 
L 600.216591 226.022683 
L 601.666771 224.708188 
L 603.11695 224.237174 
L 606.017309 224.082596 
L 626.319819 224.095835 
L 627.769998 224.172924 
L 629.220178 224.471655 
L 630.670357 225.360536 
L 632.120536 227.369149 
L 633.570716 230.74071 
L 635.020895 234.732274 
L 636.471074 237.547679 
L 636.471074 237.547679 
" clip-path="url(#p1f49ff462c)" style="fill: none; stroke: #d62728; stroke-width: 2; stroke-linecap: square"/>
   </g>
   <g id="line2d_29">
    <path d="M 405.892562 224.584097 
L 410.2431 225.180902 
L 411.693279 225.049527 
L 416.043817 224.226748 
L 418.944176 224.090011 
L 437.796507 223.912227 
L 439.246686 223.516906 
L 440.696866 222.570802 
L 442.147045 220.850675 
L 445.047404 216.326789 
L 446.497583 215.096442 
L 447.947762 215.200432 
L 449.397942 216.372579 
L 452.2983 219.887999 
L 453.74848 221.069037 
L 455.198659 220.733428 
L 456.648838 217.866725 
L 458.099018 212.008879 
L 459.549197 204.208162 
L 460.999376 197.121294 
L 462.449556 193.373815 
L 463.899735 193.619182 
L 465.349914 196.660478 
L 466.800094 201.219804 
L 471.150632 217.686048 
L 472.600811 221.174211 
L 474.05099 223.017373 
L 475.501169 223.769646 
L 476.951349 224.010181 
L 481.301887 224.299764 
L 482.752066 224.610289 
L 485.652425 225.525284 
L 487.102604 225.718016 
L 488.552783 225.525284 
L 491.453142 224.610289 
L 492.903321 224.299764 
L 495.80368 224.096004 
L 507.405115 224.077783 
L 513.205832 224.110042 
L 514.656011 224.246614 
L 516.106191 224.765737 
L 517.55637 226.28741 
L 519.006549 229.765143 
L 520.456729 236.007096 
L 521.906908 244.909865 
L 523.357087 255.008441 
L 524.807266 263.587037 
L 526.257446 267.336524 
L 527.707625 264.01955 
L 529.157804 254.581903 
L 530.607984 243.162111 
L 532.058163 234.210133 
L 533.508342 229.695618 
L 534.958522 228.868617 
L 536.408701 229.672058 
L 537.85888 230.156408 
L 539.30906 229.402686 
L 542.209418 226.033993 
L 543.659598 224.893253 
L 545.109777 224.342527 
L 546.559956 224.144721 
L 550.910494 224.077783 
L 575.563543 224.132404 
L 577.013722 224.246028 
L 578.463901 224.481381 
L 581.36426 225.183722 
L 582.814439 225.365868 
L 585.714798 225.37897 
L 587.164977 225.793964 
L 590.065336 227.702301 
L 591.515515 228.14799 
L 592.965695 227.717451 
L 594.415874 226.809055 
L 595.866053 226.271593 
L 597.316233 226.809728 
L 598.766412 228.506995 
L 600.216591 230.625961 
L 601.666771 231.916852 
L 603.11695 231.510906 
L 604.567129 229.645835 
L 606.017309 227.392872 
L 607.467488 225.745195 
L 608.917667 225.115135 
L 610.367847 225.463256 
L 613.268205 227.658181 
L 614.718385 228.327161 
L 616.168564 228.241417 
L 621.969281 225.977382 
L 624.86964 224.720526 
L 626.319819 224.343405 
L 627.769998 224.163581 
L 632.120536 224.078438 
L 636.471074 224.077783 
L 636.471074 224.077783 
" clip-path="url(#p1f49ff462c)" style="fill: none; stroke: #ff7f0e; stroke-width: 2; stroke-linecap: square"/>
   </g>
   <g id="LineCollection_1">
    <path d="M 521.877904 295.32249 
L 521.877904 133.423901 
" clip-path="url(#p1f49ff462c)" style="fill: none; stroke-dasharray: 7.4,3.2; stroke-dashoffset: 0; stroke: #000000; stroke-width: 2"/>
    <path d="M 536.379697 295.32249 
L 536.379697 133.423901 
" clip-path="url(#p1f49ff462c)" style="fill: none; stroke-dasharray: 7.4,3.2; stroke-dashoffset: 0; stroke: #000000; stroke-width: 2"/>
    <path d="M 565.383284 295.32249 
L 565.383284 133.423901 
" clip-path="url(#p1f49ff462c)" style="fill: none; stroke-dasharray: 7.4,3.2; stroke-dashoffset: 0; stroke: #000000; stroke-width: 2"/>
    <path d="M 623.390457 295.32249 
L 623.390457 133.423901 
" clip-path="url(#p1f49ff462c)" style="fill: none; stroke-dasharray: 7.4,3.2; stroke-dashoffset: 0; stroke: #000000; stroke-width: 2"/>
   </g>
   <g id="patch_8">
    <path d="M 394.363636 333.490909 
L 394.363636 86.4 
" style="fill: none; stroke: #000000; stroke-width: 0.8; stroke-linejoin: miter; stroke-linecap: square"/>
   </g>
   <g id="patch_9">
    <path d="M 648 333.490909 
L 648 86.4 
" style="fill: none; stroke: #000000; stroke-width: 0.8; stroke-linejoin: miter; stroke-linecap: square"/>
   </g>
   <g id="patch_10">
    <path d="M 394.363636 333.490909 
L 648 333.490909 
" style="fill: none; stroke: #000000; stroke-width: 0.8; stroke-linejoin: miter; stroke-linecap: square"/>
   </g>
   <g id="patch_11">
    <path d="M 394.363636 86.4 
L 648 86.4 
" style="fill: none; stroke: #000000; stroke-width: 0.8; stroke-linejoin: miter; stroke-linecap: square"/>
   </g>
   <g id="text_26">
    <!-- unit_70 -->
    <g transform="translate(498.922756 80.4)scale(0.12 -0.12)">
     <defs>
      <path id="DejaVuSans-75" d="M 544 1381 
L 544 3500 
L 1119 3500 
L 1119 1403 
Q 1119 906 1312 657 
Q 1506 409 1894 409 
Q 2359 409 2629 706 
Q 2900 1003 2900 1516 
L 2900 3500 
L 3475 3500 
L 3475 0 
L 2900 0 
L 2900 538 
Q 2691 219 2414 64 
Q 2138 -91 1772 -91 
Q 1169 -91 856 284 
Q 544 659 544 1381 
z
M 1991 3584 
L 1991 3584 
z
" transform="scale(0.015625)"/>
      <path id="DejaVuSans-6e" d="M 3513 2113 
L 3513 0 
L 2938 0 
L 2938 2094 
Q 2938 2591 2744 2837 
Q 2550 3084 2163 3084 
Q 1697 3084 1428 2787 
Q 1159 2491 1159 1978 
L 1159 0 
L 581 0 
L 581 3500 
L 1159 3500 
L 1159 2956 
Q 1366 3272 1645 3428 
Q 1925 3584 2291 3584 
Q 2894 3584 3203 3211 
Q 3513 2838 3513 2113 
z
" transform="scale(0.015625)"/>
      <path id="DejaVuSans-69" d="M 603 3500 
L 1178 3500 
L 1178 0 
L 603 0 
L 603 3500 
z
M 603 4863 
L 1178 4863 
L 1178 4134 
L 603 4134 
L 603 4863 
z
" transform="scale(0.015625)"/>
      <path id="DejaVuSans-74" d="M 1172 4494 
L 1172 3500 
L 2356 3500 
L 2356 3053 
L 1172 3053 
L 1172 1153 
Q 1172 725 1289 603 
Q 1406 481 1766 481 
L 2356 481 
L 2356 0 
L 1766 0 
Q 1100 0 847 248 
Q 594 497 594 1153 
L 594 3053 
L 172 3053 
L 172 3500 
L 594 3500 
L 594 4494 
L 1172 4494 
z
" transform="scale(0.015625)"/>
      <path id="DejaVuSans-5f" d="M 3263 -1063 
L 3263 -1509 
L -63 -1509 
L -63 -1063 
L 3263 -1063 
z
" transform="scale(0.015625)"/>
      <path id="DejaVuSans-37" d="M 525 4666 
L 3525 4666 
L 3525 4397 
L 1831 0 
L 1172 0 
L 2766 4134 
L 525 4134 
L 525 4666 
z
" transform="scale(0.015625)"/>
     </defs>
     <use xlink:href="#DejaVuSans-75"/>
     <use xlink:href="#DejaVuSans-6e" x="63.378906"/>
     <use xlink:href="#DejaVuSans-69" x="126.757812"/>
     <use xlink:href="#DejaVuSans-74" x="154.541016"/>
     <use xlink:href="#DejaVuSans-5f" x="193.75"/>
     <use xlink:href="#DejaVuSans-37" x="243.75"/>
     <use xlink:href="#DejaVuSans-30" x="307.373047"/>
    </g>
   </g>
  </g>
  <g id="axes_3">
   <g id="patch_12">
    <path d="M 90 630 
L 343.636364 630 
L 343.636364 382.909091 
L 90 382.909091 
z
" style="fill: #ffffff"/>
   </g>
   <g id="matplotlib.axis_5">
    <g id="xtick_12">
     <g id="line2d_30">
      <g>
       <use xlink:href="#mf1a3b6a439" x="90" y="630" style="stroke: #000000; stroke-width: 0.8"/>
      </g>
     </g>
     <g id="text_27">
      <!-- 0.0 -->
      <g transform="translate(82.048438 644.598437)scale(0.1 -0.1)">
       <use xlink:href="#DejaVuSans-30"/>
       <use xlink:href="#DejaVuSans-2e" x="63.623047"/>
       <use xlink:href="#DejaVuSans-30" x="95.410156"/>
      </g>
     </g>
    </g>
    <g id="xtick_13">
     <g id="line2d_31">
      <g>
       <use xlink:href="#mf1a3b6a439" x="140.727273" y="630" style="stroke: #000000; stroke-width: 0.8"/>
      </g>
     </g>
     <g id="text_28">
      <!-- 0.2 -->
      <g transform="translate(132.77571 644.598437)scale(0.1 -0.1)">
       <use xlink:href="#DejaVuSans-30"/>
       <use xlink:href="#DejaVuSans-2e" x="63.623047"/>
       <use xlink:href="#DejaVuSans-32" x="95.410156"/>
      </g>
     </g>
    </g>
    <g id="xtick_14">
     <g id="line2d_32">
      <g>
       <use xlink:href="#mf1a3b6a439" x="191.454545" y="630" style="stroke: #000000; stroke-width: 0.8"/>
      </g>
     </g>
     <g id="text_29">
      <!-- 0.4 -->
      <g transform="translate(183.502983 644.598437)scale(0.1 -0.1)">
       <use xlink:href="#DejaVuSans-30"/>
       <use xlink:href="#DejaVuSans-2e" x="63.623047"/>
       <use xlink:href="#DejaVuSans-34" x="95.410156"/>
      </g>
     </g>
    </g>
    <g id="xtick_15">
     <g id="line2d_33">
      <g>
       <use xlink:href="#mf1a3b6a439" x="242.181818" y="630" style="stroke: #000000; stroke-width: 0.8"/>
      </g>
     </g>
     <g id="text_30">
      <!-- 0.6 -->
      <g transform="translate(234.230256 644.598437)scale(0.1 -0.1)">
       <use xlink:href="#DejaVuSans-30"/>
       <use xlink:href="#DejaVuSans-2e" x="63.623047"/>
       <use xlink:href="#DejaVuSans-36" x="95.410156"/>
      </g>
     </g>
    </g>
    <g id="xtick_16">
     <g id="line2d_34">
      <g>
       <use xlink:href="#mf1a3b6a439" x="292.909091" y="630" style="stroke: #000000; stroke-width: 0.8"/>
      </g>
     </g>
     <g id="text_31">
      <!-- 0.8 -->
      <g transform="translate(284.957528 644.598437)scale(0.1 -0.1)">
       <use xlink:href="#DejaVuSans-30"/>
       <use xlink:href="#DejaVuSans-2e" x="63.623047"/>
       <use xlink:href="#DejaVuSans-38" x="95.410156"/>
      </g>
     </g>
    </g>
    <g id="xtick_17">
     <g id="line2d_35">
      <g>
       <use xlink:href="#mf1a3b6a439" x="343.636364" y="630" style="stroke: #000000; stroke-width: 0.8"/>
      </g>
     </g>
     <g id="text_32">
      <!-- 1.0 -->
      <g transform="translate(335.684801 644.598437)scale(0.1 -0.1)">
       <use xlink:href="#DejaVuSans-31"/>
       <use xlink:href="#DejaVuSans-2e" x="63.623047"/>
       <use xlink:href="#DejaVuSans-30" x="95.410156"/>
      </g>
     </g>
    </g>
   </g>
   <g id="matplotlib.axis_6">
    <g id="ytick_15">
     <g id="line2d_36">
      <g>
       <use xlink:href="#m7cb0726e72" x="90" y="630" style="stroke: #000000; stroke-width: 0.8"/>
      </g>
     </g>
     <g id="text_33">
      <!-- 0.0 -->
      <g transform="translate(67.096875 633.799219)scale(0.1 -0.1)">
       <use xlink:href="#DejaVuSans-30"/>
       <use xlink:href="#DejaVuSans-2e" x="63.623047"/>
       <use xlink:href="#DejaVuSans-30" x="95.410156"/>
      </g>
     </g>
    </g>
    <g id="ytick_16">
     <g id="line2d_37">
      <g>
       <use xlink:href="#m7cb0726e72" x="90" y="580.581818" style="stroke: #000000; stroke-width: 0.8"/>
      </g>
     </g>
     <g id="text_34">
      <!-- 0.2 -->
      <g transform="translate(67.096875 584.381037)scale(0.1 -0.1)">
       <use xlink:href="#DejaVuSans-30"/>
       <use xlink:href="#DejaVuSans-2e" x="63.623047"/>
       <use xlink:href="#DejaVuSans-32" x="95.410156"/>
      </g>
     </g>
    </g>
    <g id="ytick_17">
     <g id="line2d_38">
      <g>
       <use xlink:href="#m7cb0726e72" x="90" y="531.163636" style="stroke: #000000; stroke-width: 0.8"/>
      </g>
     </g>
     <g id="text_35">
      <!-- 0.4 -->
      <g transform="translate(67.096875 534.962855)scale(0.1 -0.1)">
       <use xlink:href="#DejaVuSans-30"/>
       <use xlink:href="#DejaVuSans-2e" x="63.623047"/>
       <use xlink:href="#DejaVuSans-34" x="95.410156"/>
      </g>
     </g>
    </g>
    <g id="ytick_18">
     <g id="line2d_39">
      <g>
       <use xlink:href="#m7cb0726e72" x="90" y="481.745455" style="stroke: #000000; stroke-width: 0.8"/>
      </g>
     </g>
     <g id="text_36">
      <!-- 0.6 -->
      <g transform="translate(67.096875 485.544673)scale(0.1 -0.1)">
       <use xlink:href="#DejaVuSans-30"/>
       <use xlink:href="#DejaVuSans-2e" x="63.623047"/>
       <use xlink:href="#DejaVuSans-36" x="95.410156"/>
      </g>
     </g>
    </g>
    <g id="ytick_19">
     <g id="line2d_40">
      <g>
       <use xlink:href="#m7cb0726e72" x="90" y="432.327273" style="stroke: #000000; stroke-width: 0.8"/>
      </g>
     </g>
     <g id="text_37">
      <!-- 0.8 -->
      <g transform="translate(67.096875 436.126491)scale(0.1 -0.1)">
       <use xlink:href="#DejaVuSans-30"/>
       <use xlink:href="#DejaVuSans-2e" x="63.623047"/>
       <use xlink:href="#DejaVuSans-38" x="95.410156"/>
      </g>
     </g>
    </g>
    <g id="ytick_20">
     <g id="line2d_41">
      <g>
       <use xlink:href="#m7cb0726e72" x="90" y="382.909091" style="stroke: #000000; stroke-width: 0.8"/>
      </g>
     </g>
     <g id="text_38">
      <!-- 1.0 -->
      <g transform="translate(67.096875 386.70831)scale(0.1 -0.1)">
       <use xlink:href="#DejaVuSans-31"/>
       <use xlink:href="#DejaVuSans-2e" x="63.623047"/>
       <use xlink:href="#DejaVuSans-30" x="95.410156"/>
      </g>
     </g>
    </g>
   </g>
   <g id="patch_13">
    <path d="M 90 630 
L 90 382.909091 
" style="fill: none; stroke: #000000; stroke-width: 0.8; stroke-linejoin: miter; stroke-linecap: square"/>
   </g>
   <g id="patch_14">
    <path d="M 343.636364 630 
L 343.636364 382.909091 
" style="fill: none; stroke: #000000; stroke-width: 0.8; stroke-linejoin: miter; stroke-linecap: square"/>
   </g>
   <g id="patch_15">
    <path d="M 90 630 
L 343.636364 630 
" style="fill: none; stroke: #000000; stroke-width: 0.8; stroke-linejoin: miter; stroke-linecap: square"/>
   </g>
   <g id="patch_16">
    <path d="M 90 382.909091 
L 343.636364 382.909091 
" style="fill: none; stroke: #000000; stroke-width: 0.8; stroke-linejoin: miter; stroke-linecap: square"/>
   </g>
  </g>
  <g id="axes_4">
   <g id="patch_17">
    <path d="M 394.363636 630 
L 648 630 
L 648 382.909091 
L 394.363636 382.909091 
z
" style="fill: #ffffff"/>
   </g>
   <g id="matplotlib.axis_7">
    <g id="xtick_18">
     <g id="line2d_42">
      <g>
       <use xlink:href="#mf1a3b6a439" x="405.863558" y="630" style="stroke: #000000; stroke-width: 0.8"/>
      </g>
     </g>
     <g id="text_39">
      <!-- 0 -->
      <g transform="translate(402.682308 644.598437)scale(0.1 -0.1)">
       <use xlink:href="#DejaVuSans-30"/>
      </g>
     </g>
    </g>
    <g id="xtick_19">
     <g id="line2d_43">
      <g>
       <use xlink:href="#mf1a3b6a439" x="463.870731" y="630" style="stroke: #000000; stroke-width: 0.8"/>
      </g>
     </g>
     <g id="text_40">
      <!-- 2000 -->
      <g transform="translate(451.145731 644.598437)scale(0.1 -0.1)">
       <use xlink:href="#DejaVuSans-32"/>
       <use xlink:href="#DejaVuSans-30" x="63.623047"/>
       <use xlink:href="#DejaVuSans-30" x="127.246094"/>
       <use xlink:href="#DejaVuSans-30" x="190.869141"/>
      </g>
     </g>
    </g>
    <g id="xtick_20">
     <g id="line2d_44">
      <g>
       <use xlink:href="#mf1a3b6a439" x="521.877904" y="630" style="stroke: #000000; stroke-width: 0.8"/>
      </g>
     </g>
     <g id="text_41">
      <!-- 4000 -->
      <g transform="translate(509.152904 644.598437)scale(0.1 -0.1)">
       <use xlink:href="#DejaVuSans-34"/>
       <use xlink:href="#DejaVuSans-30" x="63.623047"/>
       <use xlink:href="#DejaVuSans-30" x="127.246094"/>
       <use xlink:href="#DejaVuSans-30" x="190.869141"/>
      </g>
     </g>
    </g>
    <g id="xtick_21">
     <g id="line2d_45">
      <g>
       <use xlink:href="#mf1a3b6a439" x="579.885077" y="630" style="stroke: #000000; stroke-width: 0.8"/>
      </g>
     </g>
     <g id="text_42">
      <!-- 6000 -->
      <g transform="translate(567.160077 644.598437)scale(0.1 -0.1)">
       <use xlink:href="#DejaVuSans-36"/>
       <use xlink:href="#DejaVuSans-30" x="63.623047"/>
       <use xlink:href="#DejaVuSans-30" x="127.246094"/>
       <use xlink:href="#DejaVuSans-30" x="190.869141"/>
      </g>
     </g>
    </g>
    <g id="xtick_22">
     <g id="line2d_46">
      <g>
       <use xlink:href="#mf1a3b6a439" x="637.89225" y="630" style="stroke: #000000; stroke-width: 0.8"/>
      </g>
     </g>
     <g id="text_43">
      <!-- 8000 -->
      <g transform="translate(625.16725 644.598437)scale(0.1 -0.1)">
       <use xlink:href="#DejaVuSans-38"/>
       <use xlink:href="#DejaVuSans-30" x="63.623047"/>
       <use xlink:href="#DejaVuSans-30" x="127.246094"/>
       <use xlink:href="#DejaVuSans-30" x="190.869141"/>
      </g>
     </g>
    </g>
   </g>
   <g id="matplotlib.axis_8">
    <g id="ytick_21">
     <g id="line2d_47">
      <g>
       <use xlink:href="#m7cb0726e72" x="394.363636" y="630" style="stroke: #000000; stroke-width: 0.8"/>
      </g>
     </g>
     <g id="text_44">
      <!-- −2 -->
      <g transform="translate(372.621449 633.799219)scale(0.1 -0.1)">
       <use xlink:href="#DejaVuSans-2212"/>
       <use xlink:href="#DejaVuSans-32" x="83.789062"/>
      </g>
     </g>
    </g>
    <g id="ytick_22">
     <g id="line2d_48">
      <g>
       <use xlink:href="#m7cb0726e72" x="394.363636" y="583.939811" style="stroke: #000000; stroke-width: 0.8"/>
      </g>
     </g>
     <g id="text_45">
      <!-- 0 -->
      <g transform="translate(381.001136 587.73903)scale(0.1 -0.1)">
       <use xlink:href="#DejaVuSans-30"/>
      </g>
     </g>
    </g>
    <g id="ytick_23">
     <g id="line2d_49">
      <g>
       <use xlink:href="#m7cb0726e72" x="394.363636" y="537.879623" style="stroke: #000000; stroke-width: 0.8"/>
      </g>
     </g>
     <g id="text_46">
      <!-- 2 -->
      <g transform="translate(381.001136 541.678841)scale(0.1 -0.1)">
       <use xlink:href="#DejaVuSans-32"/>
      </g>
     </g>
    </g>
    <g id="ytick_24">
     <g id="line2d_50">
      <g>
       <use xlink:href="#m7cb0726e72" x="394.363636" y="491.819434" style="stroke: #000000; stroke-width: 0.8"/>
      </g>
     </g>
     <g id="text_47">
      <!-- 4 -->
      <g transform="translate(381.001136 495.618653)scale(0.1 -0.1)">
       <use xlink:href="#DejaVuSans-34"/>
      </g>
     </g>
    </g>
    <g id="ytick_25">
     <g id="line2d_51">
      <g>
       <use xlink:href="#m7cb0726e72" x="394.363636" y="445.759245" style="stroke: #000000; stroke-width: 0.8"/>
      </g>
     </g>
     <g id="text_48">
      <!-- 6 -->
      <g transform="translate(381.001136 449.558464)scale(0.1 -0.1)">
       <use xlink:href="#DejaVuSans-36"/>
      </g>
     </g>
    </g>
    <g id="ytick_26">
     <g id="line2d_52">
      <g>
       <use xlink:href="#m7cb0726e72" x="394.363636" y="399.699057" style="stroke: #000000; stroke-width: 0.8"/>
      </g>
     </g>
     <g id="text_49">
      <!-- 8 -->
      <g transform="translate(381.001136 403.498275)scale(0.1 -0.1)">
       <use xlink:href="#DejaVuSans-38"/>
      </g>
     </g>
    </g>
   </g>
   <g id="line2d_53">
    <path d="M 405.892562 640.725514 
L 407.342741 641.817358 
L 408.792921 652.262919 
L 410.2431 649.073003 
L 411.693279 706.169474 
L 411.848889 721 
M 418.972584 721 
L 420.394355 586.974157 
L 421.844535 526.583884 
L 423.294714 552.102547 
L 424.744893 579.861997 
L 427.645252 655.617688 
L 429.095431 667.751993 
L 430.54561 670.593587 
L 431.99579 629.508849 
L 433.445969 556.534237 
L 434.896148 455.673836 
L 436.346328 398.558806 
L 437.796507 468.450732 
L 439.246686 549.686249 
L 440.696866 593.21841 
L 442.147045 621.924216 
L 443.597224 634.297891 
L 445.047404 597.944711 
L 446.497583 552.479844 
L 447.947762 549.199329 
L 449.397942 567.842415 
L 450.848121 579.905606 
L 452.2983 581.040796 
L 453.74848 577.190612 
L 455.198659 570.975335 
L 456.648838 545.438035 
L 458.099018 524.135351 
L 459.549197 554.188589 
L 460.999376 578.957382 
L 462.449556 561.542093 
L 463.899735 540.955222 
L 465.349914 510.825073 
L 466.800094 478.026565 
L 468.250273 499.031105 
L 471.150632 603.377083 
L 472.600811 642.937482 
L 474.05099 611.315603 
L 475.501169 562.21877 
L 476.951349 572.446539 
L 478.401528 620.171126 
L 480.090261 721 
M 482.406218 721 
L 484.202245 636.577827 
L 485.652425 650.712059 
L 487.102604 673.982646 
L 488.552783 638.684595 
L 490.002963 564.688284 
L 491.453142 533.23159 
L 494.353501 552.703188 
L 495.80368 580.962053 
L 497.253859 642.611224 
L 498.704039 682.232202 
L 500.154218 670.37314 
L 501.604397 652.356626 
L 504.504756 582.609099 
L 505.954935 578.650744 
L 507.405115 611.181507 
L 508.900888 721 
M 533.141969 721 
L 533.508342 626.004531 
L 534.958522 504.751559 
L 536.408701 513.194276 
L 537.85888 505.63528 
L 539.30906 450.123445 
L 540.759239 429.621422 
L 542.209418 452.356096 
L 543.659598 484.143698 
L 545.109777 486.181553 
L 546.559956 448.711554 
L 548.010136 443.506163 
L 549.460315 437.256435 
L 550.910494 427.487708 
L 552.360674 483.157741 
L 553.810853 518.684739 
L 555.261032 456.014007 
L 556.711212 420.166386 
L 558.161391 473.107508 
L 559.61157 575.882592 
L 561.06175 647.503343 
L 562.511929 588.989384 
L 563.962108 507.245437 
L 566.862467 447.516847 
L 568.312646 464.408465 
L 569.762826 559.091432 
L 571.910162 721 
M 574.83496 721 
L 575.563543 650.19282 
L 577.013722 530.522013 
L 578.463901 517.405064 
L 579.914081 597.474743 
L 581.36426 651.441324 
L 582.814439 655.893871 
L 584.264619 656.838576 
L 585.714798 674.835865 
L 587.058835 721 
M 589.026321 721 
L 590.065336 660.371402 
L 591.515515 588.415379 
L 592.965695 600.649676 
L 594.415874 683.507294 
L 594.774056 721 
M 601.189149 721 
L 601.666771 661.810349 
L 603.11695 621.018647 
L 604.567129 631.536933 
L 606.017309 576.5545 
L 607.467488 546.985009 
L 608.917667 576.837759 
L 610.367847 597.267049 
L 611.818026 597.588698 
L 614.718385 581.011284 
L 616.168564 591.999314 
L 617.618743 595.122317 
L 619.068923 588.593032 
L 620.519102 572.348091 
L 621.969281 551.47496 
L 623.41946 518.843944 
L 624.86964 468.285129 
L 626.319819 467.619452 
L 627.769998 499.079383 
L 629.220178 479.887402 
L 630.670357 395.608461 
L 632.120536 382.909091 
L 633.570716 484.846263 
L 635.020895 558.53333 
L 636.471074 576.825073 
L 636.471074 576.825073 
" clip-path="url(#p68b3bba943)" style="fill: none; stroke: #1f77b4; stroke-width: 1.5; stroke-linecap: square"/>
   </g>
   <g id="patch_18">
    <path d="M 394.363636 630 
L 394.363636 382.909091 
" style="fill: none; stroke: #000000; stroke-width: 0.8; stroke-linejoin: miter; stroke-linecap: square"/>
   </g>
   <g id="patch_19">
    <path d="M 648 630 
L 648 382.909091 
" style="fill: none; stroke: #000000; stroke-width: 0.8; stroke-linejoin: miter; stroke-linecap: square"/>
   </g>
   <g id="patch_20">
    <path d="M 394.363636 630 
L 648 630 
" style="fill: none; stroke: #000000; stroke-width: 0.8; stroke-linejoin: miter; stroke-linecap: square"/>
   </g>
   <g id="patch_21">
    <path d="M 394.363636 382.909091 
L 648 382.909091 
" style="fill: none; stroke: #000000; stroke-width: 0.8; stroke-linejoin: miter; stroke-linecap: square"/>
   </g>
   <g id="text_50">
    <!-- explained variance -->
    <g transform="translate(464.181818 376.909091)scale(0.12 -0.12)">
     <defs>
      <path id="DejaVuSans-65" d="M 3597 1894 
L 3597 1613 
L 953 1613 
Q 991 1019 1311 708 
Q 1631 397 2203 397 
Q 2534 397 2845 478 
Q 3156 559 3463 722 
L 3463 178 
Q 3153 47 2828 -22 
Q 2503 -91 2169 -91 
Q 1331 -91 842 396 
Q 353 884 353 1716 
Q 353 2575 817 3079 
Q 1281 3584 2069 3584 
Q 2775 3584 3186 3129 
Q 3597 2675 3597 1894 
z
M 3022 2063 
Q 3016 2534 2758 2815 
Q 2500 3097 2075 3097 
Q 1594 3097 1305 2825 
Q 1016 2553 972 2059 
L 3022 2063 
z
" transform="scale(0.015625)"/>
      <path id="DejaVuSans-78" d="M 3513 3500 
L 2247 1797 
L 3578 0 
L 2900 0 
L 1881 1375 
L 863 0 
L 184 0 
L 1544 1831 
L 300 3500 
L 978 3500 
L 1906 2253 
L 2834 3500 
L 3513 3500 
z
" transform="scale(0.015625)"/>
      <path id="DejaVuSans-70" d="M 1159 525 
L 1159 -1331 
L 581 -1331 
L 581 3500 
L 1159 3500 
L 1159 2969 
Q 1341 3281 1617 3432 
Q 1894 3584 2278 3584 
Q 2916 3584 3314 3078 
Q 3713 2572 3713 1747 
Q 3713 922 3314 415 
Q 2916 -91 2278 -91 
Q 1894 -91 1617 61 
Q 1341 213 1159 525 
z
M 3116 1747 
Q 3116 2381 2855 2742 
Q 2594 3103 2138 3103 
Q 1681 3103 1420 2742 
Q 1159 2381 1159 1747 
Q 1159 1113 1420 752 
Q 1681 391 2138 391 
Q 2594 391 2855 752 
Q 3116 1113 3116 1747 
z
" transform="scale(0.015625)"/>
      <path id="DejaVuSans-6c" d="M 603 4863 
L 1178 4863 
L 1178 0 
L 603 0 
L 603 4863 
z
" transform="scale(0.015625)"/>
      <path id="DejaVuSans-61" d="M 2194 1759 
Q 1497 1759 1228 1600 
Q 959 1441 959 1056 
Q 959 750 1161 570 
Q 1363 391 1709 391 
Q 2188 391 2477 730 
Q 2766 1069 2766 1631 
L 2766 1759 
L 2194 1759 
z
M 3341 1997 
L 3341 0 
L 2766 0 
L 2766 531 
Q 2569 213 2275 61 
Q 1981 -91 1556 -91 
Q 1019 -91 701 211 
Q 384 513 384 1019 
Q 384 1609 779 1909 
Q 1175 2209 1959 2209 
L 2766 2209 
L 2766 2266 
Q 2766 2663 2505 2880 
Q 2244 3097 1772 3097 
Q 1472 3097 1187 3025 
Q 903 2953 641 2809 
L 641 3341 
Q 956 3463 1253 3523 
Q 1550 3584 1831 3584 
Q 2591 3584 2966 3190 
Q 3341 2797 3341 1997 
z
" transform="scale(0.015625)"/>
      <path id="DejaVuSans-64" d="M 2906 2969 
L 2906 4863 
L 3481 4863 
L 3481 0 
L 2906 0 
L 2906 525 
Q 2725 213 2448 61 
Q 2172 -91 1784 -91 
Q 1150 -91 751 415 
Q 353 922 353 1747 
Q 353 2572 751 3078 
Q 1150 3584 1784 3584 
Q 2172 3584 2448 3432 
Q 2725 3281 2906 2969 
z
M 947 1747 
Q 947 1113 1208 752 
Q 1469 391 1925 391 
Q 2381 391 2643 752 
Q 2906 1113 2906 1747 
Q 2906 2381 2643 2742 
Q 2381 3103 1925 3103 
Q 1469 3103 1208 2742 
Q 947 2381 947 1747 
z
" transform="scale(0.015625)"/>
      <path id="DejaVuSans-20" transform="scale(0.015625)"/>
      <path id="DejaVuSans-76" d="M 191 3500 
L 800 3500 
L 1894 563 
L 2988 3500 
L 3597 3500 
L 2284 0 
L 1503 0 
L 191 3500 
z
" transform="scale(0.015625)"/>
      <path id="DejaVuSans-72" d="M 2631 2963 
Q 2534 3019 2420 3045 
Q 2306 3072 2169 3072 
Q 1681 3072 1420 2755 
Q 1159 2438 1159 1844 
L 1159 0 
L 581 0 
L 581 3500 
L 1159 3500 
L 1159 2956 
Q 1341 3275 1631 3429 
Q 1922 3584 2338 3584 
Q 2397 3584 2469 3576 
Q 2541 3569 2628 3553 
L 2631 2963 
z
" transform="scale(0.015625)"/>
      <path id="DejaVuSans-63" d="M 3122 3366 
L 3122 2828 
Q 2878 2963 2633 3030 
Q 2388 3097 2138 3097 
Q 1578 3097 1268 2742 
Q 959 2388 959 1747 
Q 959 1106 1268 751 
Q 1578 397 2138 397 
Q 2388 397 2633 464 
Q 2878 531 3122 666 
L 3122 134 
Q 2881 22 2623 -34 
Q 2366 -91 2075 -91 
Q 1284 -91 818 406 
Q 353 903 353 1747 
Q 353 2603 823 3093 
Q 1294 3584 2113 3584 
Q 2378 3584 2631 3529 
Q 2884 3475 3122 3366 
z
" transform="scale(0.015625)"/>
     </defs>
     <use xlink:href="#DejaVuSans-65"/>
     <use xlink:href="#DejaVuSans-78" x="59.773438"/>
     <use xlink:href="#DejaVuSans-70" x="118.953125"/>
     <use xlink:href="#DejaVuSans-6c" x="182.429688"/>
     <use xlink:href="#DejaVuSans-61" x="210.212891"/>
     <use xlink:href="#DejaVuSans-69" x="271.492188"/>
     <use xlink:href="#DejaVuSans-6e" x="299.275391"/>
     <use xlink:href="#DejaVuSans-65" x="362.654297"/>
     <use xlink:href="#DejaVuSans-64" x="424.177734"/>
     <use xlink:href="#DejaVuSans-20" x="487.654297"/>
     <use xlink:href="#DejaVuSans-76" x="519.441406"/>
     <use xlink:href="#DejaVuSans-61" x="578.621094"/>
     <use xlink:href="#DejaVuSans-72" x="639.900391"/>
     <use xlink:href="#DejaVuSans-69" x="681.013672"/>
     <use xlink:href="#DejaVuSans-61" x="708.796875"/>
     <use xlink:href="#DejaVuSans-6e" x="770.076172"/>
     <use xlink:href="#DejaVuSans-63" x="833.455078"/>
     <use xlink:href="#DejaVuSans-65" x="888.435547"/>
    </g>
   </g>
  </g>
 </g>
 <defs>
  <clipPath id="p1f49ff462c">
   <rect x="394.363636" y="86.4" width="253.636364" height="247.090909"/>
  </clipPath>
  <clipPath id="p68b3bba943">
   <rect x="394.363636" y="382.909091" width="253.636364" height="247.090909"/>
  </clipPath>
 </defs>
</svg>
