<?xml version="1.0" encoding="utf-8" standalone="no"?>
<!DOCTYPE svg PUBLIC "-//W3C//DTD SVG 1.1//EN"
  "http://www.w3.org/Graphics/SVG/1.1/DTD/svg11.dtd">
<svg xmlns:xlink="http://www.w3.org/1999/xlink" width="720pt" height="720pt" viewBox="0 0 720 720" xmlns="http://www.w3.org/2000/svg" version="1.1">
 <metadata>
  <rdf:RDF xmlns:dc="http://purl.org/dc/elements/1.1/" xmlns:cc="http://creativecommons.org/ns#" xmlns:rdf="http://www.w3.org/1999/02/22-rdf-syntax-ns#">
   <cc:Work>
    <dc:type rdf:resource="http://purl.org/dc/dcmitype/StillImage"/>
    <dc:date>2023-12-19T18:14:54.919638</dc:date>
    <dc:format>image/svg+xml</dc:format>
    <dc:creator>
     <cc:Agent>
      <dc:title>Matplotlib v3.5.2, https://matplotlib.org/</dc:title>
     </cc:Agent>
    </dc:creator>
   </cc:Work>
  </rdf:RDF>
 </metadata>
 <defs>
  <style type="text/css">*{stroke-linejoin: round; stroke-linecap: butt}</style>
 </defs>
 <g id="figure_1">
  <g id="patch_1">
   <path d="M 0 720 
L 720 720 
L 720 0 
L 0 0 
z
" style="fill: #ffffff"/>
  </g>
  <g id="axes_1">
   <g id="patch_2">
    <path d="M 90 333.490909 
L 343.636364 333.490909 
L 343.636364 86.4 
L 90 86.4 
z
" style="fill: #ffffff"/>
   </g>
   <g id="matplotlib.axis_1">
    <g id="xtick_1">
     <g id="line2d_1">
      <defs>
       <path id="m34cd371ff9" d="M 0 0 
L 0 3.5 
" style="stroke: #000000; stroke-width: 0.8"/>
      </defs>
      <g>
       <use xlink:href="#m34cd371ff9" x="90" y="333.490909" style="stroke: #000000; stroke-width: 0.8"/>
      </g>
     </g>
     <g id="text_1">
      <!-- 0.0 -->
      <g transform="translate(82.048438 348.089347)scale(0.1 -0.1)">
       <defs>
        <path id="DejaVuSans-30" d="M 2034 4250 
Q 1547 4250 1301 3770 
Q 1056 3291 1056 2328 
Q 1056 1369 1301 889 
Q 1547 409 2034 409 
Q 2525 409 2770 889 
Q 3016 1369 3016 2328 
Q 3016 3291 2770 3770 
Q 2525 4250 2034 4250 
z
M 2034 4750 
Q 2819 4750 3233 4129 
Q 3647 3509 3647 2328 
Q 3647 1150 3233 529 
Q 2819 -91 2034 -91 
Q 1250 -91 836 529 
Q 422 1150 422 2328 
Q 422 3509 836 4129 
Q 1250 4750 2034 4750 
z
" transform="scale(0.015625)"/>
        <path id="DejaVuSans-2e" d="M 684 794 
L 1344 794 
L 1344 0 
L 684 0 
L 684 794 
z
" transform="scale(0.015625)"/>
       </defs>
       <use xlink:href="#DejaVuSans-30"/>
       <use xlink:href="#DejaVuSans-2e" x="63.623047"/>
       <use xlink:href="#DejaVuSans-30" x="95.410156"/>
      </g>
     </g>
    </g>
    <g id="xtick_2">
     <g id="line2d_2">
      <g>
       <use xlink:href="#m34cd371ff9" x="140.727273" y="333.490909" style="stroke: #000000; stroke-width: 0.8"/>
      </g>
     </g>
     <g id="text_2">
      <!-- 0.2 -->
      <g transform="translate(132.77571 348.089347)scale(0.1 -0.1)">
       <defs>
        <path id="DejaVuSans-32" d="M 1228 531 
L 3431 531 
L 3431 0 
L 469 0 
L 469 531 
Q 828 903 1448 1529 
Q 2069 2156 2228 2338 
Q 2531 2678 2651 2914 
Q 2772 3150 2772 3378 
Q 2772 3750 2511 3984 
Q 2250 4219 1831 4219 
Q 1534 4219 1204 4116 
Q 875 4013 500 3803 
L 500 4441 
Q 881 4594 1212 4672 
Q 1544 4750 1819 4750 
Q 2544 4750 2975 4387 
Q 3406 4025 3406 3419 
Q 3406 3131 3298 2873 
Q 3191 2616 2906 2266 
Q 2828 2175 2409 1742 
Q 1991 1309 1228 531 
z
" transform="scale(0.015625)"/>
       </defs>
       <use xlink:href="#DejaVuSans-30"/>
       <use xlink:href="#DejaVuSans-2e" x="63.623047"/>
       <use xlink:href="#DejaVuSans-32" x="95.410156"/>
      </g>
     </g>
    </g>
    <g id="xtick_3">
     <g id="line2d_3">
      <g>
       <use xlink:href="#m34cd371ff9" x="191.454545" y="333.490909" style="stroke: #000000; stroke-width: 0.8"/>
      </g>
     </g>
     <g id="text_3">
      <!-- 0.4 -->
      <g transform="translate(183.502983 348.089347)scale(0.1 -0.1)">
       <defs>
        <path id="DejaVuSans-34" d="M 2419 4116 
L 825 1625 
L 2419 1625 
L 2419 4116 
z
M 2253 4666 
L 3047 4666 
L 3047 1625 
L 3713 1625 
L 3713 1100 
L 3047 1100 
L 3047 0 
L 2419 0 
L 2419 1100 
L 313 1100 
L 313 1709 
L 2253 4666 
z
" transform="scale(0.015625)"/>
       </defs>
       <use xlink:href="#DejaVuSans-30"/>
       <use xlink:href="#DejaVuSans-2e" x="63.623047"/>
       <use xlink:href="#DejaVuSans-34" x="95.410156"/>
      </g>
     </g>
    </g>
    <g id="xtick_4">
     <g id="line2d_4">
      <g>
       <use xlink:href="#m34cd371ff9" x="242.181818" y="333.490909" style="stroke: #000000; stroke-width: 0.8"/>
      </g>
     </g>
     <g id="text_4">
      <!-- 0.6 -->
      <g transform="translate(234.230256 348.089347)scale(0.1 -0.1)">
       <defs>
        <path id="DejaVuSans-36" d="M 2113 2584 
Q 1688 2584 1439 2293 
Q 1191 2003 1191 1497 
Q 1191 994 1439 701 
Q 1688 409 2113 409 
Q 2538 409 2786 701 
Q 3034 994 3034 1497 
Q 3034 2003 2786 2293 
Q 2538 2584 2113 2584 
z
M 3366 4563 
L 3366 3988 
Q 3128 4100 2886 4159 
Q 2644 4219 2406 4219 
Q 1781 4219 1451 3797 
Q 1122 3375 1075 2522 
Q 1259 2794 1537 2939 
Q 1816 3084 2150 3084 
Q 2853 3084 3261 2657 
Q 3669 2231 3669 1497 
Q 3669 778 3244 343 
Q 2819 -91 2113 -91 
Q 1303 -91 875 529 
Q 447 1150 447 2328 
Q 447 3434 972 4092 
Q 1497 4750 2381 4750 
Q 2619 4750 2861 4703 
Q 3103 4656 3366 4563 
z
" transform="scale(0.015625)"/>
       </defs>
       <use xlink:href="#DejaVuSans-30"/>
       <use xlink:href="#DejaVuSans-2e" x="63.623047"/>
       <use xlink:href="#DejaVuSans-36" x="95.410156"/>
      </g>
     </g>
    </g>
    <g id="xtick_5">
     <g id="line2d_5">
      <g>
       <use xlink:href="#m34cd371ff9" x="292.909091" y="333.490909" style="stroke: #000000; stroke-width: 0.8"/>
      </g>
     </g>
     <g id="text_5">
      <!-- 0.8 -->
      <g transform="translate(284.957528 348.089347)scale(0.1 -0.1)">
       <defs>
        <path id="DejaVuSans-38" d="M 2034 2216 
Q 1584 2216 1326 1975 
Q 1069 1734 1069 1313 
Q 1069 891 1326 650 
Q 1584 409 2034 409 
Q 2484 409 2743 651 
Q 3003 894 3003 1313 
Q 3003 1734 2745 1975 
Q 2488 2216 2034 2216 
z
M 1403 2484 
Q 997 2584 770 2862 
Q 544 3141 544 3541 
Q 544 4100 942 4425 
Q 1341 4750 2034 4750 
Q 2731 4750 3128 4425 
Q 3525 4100 3525 3541 
Q 3525 3141 3298 2862 
Q 3072 2584 2669 2484 
Q 3125 2378 3379 2068 
Q 3634 1759 3634 1313 
Q 3634 634 3220 271 
Q 2806 -91 2034 -91 
Q 1263 -91 848 271 
Q 434 634 434 1313 
Q 434 1759 690 2068 
Q 947 2378 1403 2484 
z
M 1172 3481 
Q 1172 3119 1398 2916 
Q 1625 2713 2034 2713 
Q 2441 2713 2670 2916 
Q 2900 3119 2900 3481 
Q 2900 3844 2670 4047 
Q 2441 4250 2034 4250 
Q 1625 4250 1398 4047 
Q 1172 3844 1172 3481 
z
" transform="scale(0.015625)"/>
       </defs>
       <use xlink:href="#DejaVuSans-30"/>
       <use xlink:href="#DejaVuSans-2e" x="63.623047"/>
       <use xlink:href="#DejaVuSans-38" x="95.410156"/>
      </g>
     </g>
    </g>
    <g id="xtick_6">
     <g id="line2d_6">
      <g>
       <use xlink:href="#m34cd371ff9" x="343.636364" y="333.490909" style="stroke: #000000; stroke-width: 0.8"/>
      </g>
     </g>
     <g id="text_6">
      <!-- 1.0 -->
      <g transform="translate(335.684801 348.089347)scale(0.1 -0.1)">
       <defs>
        <path id="DejaVuSans-31" d="M 794 531 
L 1825 531 
L 1825 4091 
L 703 3866 
L 703 4441 
L 1819 4666 
L 2450 4666 
L 2450 531 
L 3481 531 
L 3481 0 
L 794 0 
L 794 531 
z
" transform="scale(0.015625)"/>
       </defs>
       <use xlink:href="#DejaVuSans-31"/>
       <use xlink:href="#DejaVuSans-2e" x="63.623047"/>
       <use xlink:href="#DejaVuSans-30" x="95.410156"/>
      </g>
     </g>
    </g>
   </g>
   <g id="matplotlib.axis_2">
    <g id="ytick_1">
     <g id="line2d_7">
      <defs>
       <path id="mac320481f7" d="M 0 0 
L -3.5 0 
" style="stroke: #000000; stroke-width: 0.8"/>
      </defs>
      <g>
       <use xlink:href="#mac320481f7" x="90" y="333.490909" style="stroke: #000000; stroke-width: 0.8"/>
      </g>
     </g>
     <g id="text_7">
      <!-- 0.0 -->
      <g transform="translate(67.096875 337.290128)scale(0.1 -0.1)">
       <use xlink:href="#DejaVuSans-30"/>
       <use xlink:href="#DejaVuSans-2e" x="63.623047"/>
       <use xlink:href="#DejaVuSans-30" x="95.410156"/>
      </g>
     </g>
    </g>
    <g id="ytick_2">
     <g id="line2d_8">
      <g>
       <use xlink:href="#mac320481f7" x="90" y="284.072727" style="stroke: #000000; stroke-width: 0.8"/>
      </g>
     </g>
     <g id="text_8">
      <!-- 0.2 -->
      <g transform="translate(67.096875 287.871946)scale(0.1 -0.1)">
       <use xlink:href="#DejaVuSans-30"/>
       <use xlink:href="#DejaVuSans-2e" x="63.623047"/>
       <use xlink:href="#DejaVuSans-32" x="95.410156"/>
      </g>
     </g>
    </g>
    <g id="ytick_3">
     <g id="line2d_9">
      <g>
       <use xlink:href="#mac320481f7" x="90" y="234.654545" style="stroke: #000000; stroke-width: 0.8"/>
      </g>
     </g>
     <g id="text_9">
      <!-- 0.4 -->
      <g transform="translate(67.096875 238.453764)scale(0.1 -0.1)">
       <use xlink:href="#DejaVuSans-30"/>
       <use xlink:href="#DejaVuSans-2e" x="63.623047"/>
       <use xlink:href="#DejaVuSans-34" x="95.410156"/>
      </g>
     </g>
    </g>
    <g id="ytick_4">
     <g id="line2d_10">
      <g>
       <use xlink:href="#mac320481f7" x="90" y="185.236364" style="stroke: #000000; stroke-width: 0.8"/>
      </g>
     </g>
     <g id="text_10">
      <!-- 0.6 -->
      <g transform="translate(67.096875 189.035582)scale(0.1 -0.1)">
       <use xlink:href="#DejaVuSans-30"/>
       <use xlink:href="#DejaVuSans-2e" x="63.623047"/>
       <use xlink:href="#DejaVuSans-36" x="95.410156"/>
      </g>
     </g>
    </g>
    <g id="ytick_5">
     <g id="line2d_11">
      <g>
       <use xlink:href="#mac320481f7" x="90" y="135.818182" style="stroke: #000000; stroke-width: 0.8"/>
      </g>
     </g>
     <g id="text_11">
      <!-- 0.8 -->
      <g transform="translate(67.096875 139.617401)scale(0.1 -0.1)">
       <use xlink:href="#DejaVuSans-30"/>
       <use xlink:href="#DejaVuSans-2e" x="63.623047"/>
       <use xlink:href="#DejaVuSans-38" x="95.410156"/>
      </g>
     </g>
    </g>
    <g id="ytick_6">
     <g id="line2d_12">
      <g>
       <use xlink:href="#mac320481f7" x="90" y="86.4" style="stroke: #000000; stroke-width: 0.8"/>
      </g>
     </g>
     <g id="text_12">
      <!-- 1.0 -->
      <g transform="translate(67.096875 90.199219)scale(0.1 -0.1)">
       <use xlink:href="#DejaVuSans-31"/>
       <use xlink:href="#DejaVuSans-2e" x="63.623047"/>
       <use xlink:href="#DejaVuSans-30" x="95.410156"/>
      </g>
     </g>
    </g>
   </g>
   <g id="patch_3">
    <path d="M 90 333.490909 
L 90 86.4 
" style="fill: none; stroke: #000000; stroke-width: 0.8; stroke-linejoin: miter; stroke-linecap: square"/>
   </g>
   <g id="patch_4">
    <path d="M 343.636364 333.490909 
L 343.636364 86.4 
" style="fill: none; stroke: #000000; stroke-width: 0.8; stroke-linejoin: miter; stroke-linecap: square"/>
   </g>
   <g id="patch_5">
    <path d="M 90 333.490909 
L 343.636364 333.490909 
" style="fill: none; stroke: #000000; stroke-width: 0.8; stroke-linejoin: miter; stroke-linecap: square"/>
   </g>
   <g id="patch_6">
    <path d="M 90 86.4 
L 343.636364 86.4 
" style="fill: none; stroke: #000000; stroke-width: 0.8; stroke-linejoin: miter; stroke-linecap: square"/>
   </g>
  </g>
  <g id="axes_2">
   <g id="patch_7">
    <path d="M 394.363636 333.490909 
L 648 333.490909 
L 648 86.4 
L 394.363636 86.4 
z
" style="fill: #ffffff"/>
   </g>
   <g id="PolyCollection_1">
    <defs>
     <path id="m0b0efb8f81" d="M 405.892562 -480.988142 
L 405.892562 -480.988142 
L 407.342741 -477.985962 
L 408.792921 -478.115255 
L 410.2431 -483.751113 
L 411.693279 -485.611919 
L 413.143459 -487.09879 
L 414.593638 -487.954701 
L 416.043817 -488.25802 
L 417.493997 -488.077905 
L 418.944176 -487.181205 
L 420.394355 -485.02291 
L 421.844535 -481.168091 
L 423.294714 -476.04292 
L 424.744893 -462.381048 
L 426.195073 -461.689274 
L 427.645252 -462.019075 
L 429.095431 -474.014814 
L 430.54561 -477.5801 
L 431.99579 -479.144877 
L 433.445969 -474.715921 
L 434.896148 -473.757728 
L 436.346328 -470.566092 
L 437.796507 -474.063945 
L 439.246686 -472.456834 
L 440.696866 -464.925177 
L 442.147045 -467.10572 
L 443.597224 -469.287177 
L 445.047404 -477.60144 
L 446.497583 -479.907705 
L 447.947762 -478.673338 
L 449.397942 -473.3027 
L 450.848121 -465.069665 
L 452.2983 -448.787405 
L 453.74848 -445.230407 
L 455.198659 -432.932364 
L 456.648838 -410.37523 
L 458.099018 -402.418984 
L 459.549197 -397.740496 
L 460.999376 -401.437753 
L 462.449556 -413.507571 
L 463.899735 -425.05647 
L 465.349914 -438.886925 
L 466.800094 -457.437528 
L 468.250273 -459.396319 
L 469.700452 -462.779545 
L 471.150632 -460.165686 
L 472.600811 -457.795851 
L 474.05099 -461.859976 
L 475.501169 -459.337926 
L 476.951349 -459.797339 
L 478.401528 -460.673633 
L 479.851707 -451.189864 
L 481.301887 -445.626682 
L 482.752066 -442.913316 
L 484.202245 -445.456362 
L 485.652425 -439.905469 
L 487.102604 -444.837853 
L 488.552783 -451.382355 
L 490.002963 -467.078394 
L 491.453142 -476.001394 
L 492.903321 -481.882454 
L 494.353501 -483.899617 
L 495.80368 -482.464227 
L 497.253859 -478.499667 
L 498.704039 -469.636364 
L 500.154218 -464.866279 
L 501.604397 -461.157471 
L 503.054577 -463.092545 
L 504.504756 -471.96376 
L 505.954935 -477.911291 
L 507.405115 -482.805137 
L 508.855294 -485.033476 
L 510.305473 -485.234599 
L 511.755653 -487.685794 
L 513.205832 -488.043363 
L 514.656011 -488.27547 
L 516.106191 -488.36783 
L 517.55637 -488.247854 
L 519.006549 -487.757229 
L 520.456729 -486.700335 
L 521.906908 -485.119001 
L 523.357087 -483.569835 
L 524.807266 -477.614103 
L 526.257446 -483.569835 
L 527.707625 -485.119213 
L 529.157804 -486.701782 
L 530.607984 -487.76468 
L 532.058163 -488.277825 
L 533.508342 -488.462133 
L 534.958522 -488.512222 
L 536.408701 -488.52262 
L 537.85888 -488.524503 
L 539.30906 -488.524503 
L 540.759239 -488.524503 
L 542.209418 -488.524503 
L 543.659598 -488.525093 
L 545.109777 -488.528353 
L 546.559956 -488.544055 
L 548.010136 -488.601833 
L 549.460315 -488.762698 
L 550.910494 -489.095903 
L 552.360674 -489.592018 
L 553.810853 -490.077729 
L 555.261032 -484.230128 
L 556.711212 -490.077729 
L 558.161391 -489.592018 
L 559.61157 -489.095903 
L 561.06175 -488.762698 
L 562.511929 -488.601833 
L 563.962108 -488.544055 
L 565.412288 -488.528353 
L 566.862467 -488.525093 
L 568.312646 -488.524503 
L 569.762826 -488.524503 
L 571.213005 -488.525531 
L 572.663184 -488.531209 
L 574.113363 -488.558559 
L 575.563543 -488.659198 
L 577.013722 -488.939392 
L 578.463901 -489.518374 
L 579.914081 -490.374804 
L 581.36426 -491.183693 
L 582.814439 -486.701063 
L 584.264619 -490.666773 
L 585.714798 -489.032991 
L 587.164977 -486.995927 
L 588.615157 -485.267223 
L 590.065336 -477.76399 
L 591.515515 -484.88639 
L 592.965695 -486.007367 
L 594.415874 -487.174616 
L 595.866053 -487.961358 
L 597.316233 -488.341676 
L 598.766412 -488.480082 
L 600.216591 -488.527172 
L 601.666771 -488.584538 
L 603.11695 -488.771704 
L 604.567129 -489.309373 
L 606.017309 -490.50032 
L 607.467488 -492.518144 
L 608.917667 -495.12214 
L 610.367847 -491.312811 
L 611.818026 -499.443248 
L 613.268205 -494.782966 
L 614.718385 -499.200604 
L 616.168564 -490.015373 
L 617.618743 -492.600708 
L 619.068923 -487.579274 
L 620.519102 -478.013959 
L 621.969281 -479.607049 
L 623.41946 -468.338844 
L 624.86964 -480.147964 
L 626.319819 -482.302053 
L 627.769998 -483.518896 
L 629.220178 -482.81248 
L 630.670357 -480.437389 
L 632.120536 -469.027261 
L 633.570716 -475.33444 
L 635.020895 -467.694311 
L 636.471074 -474.116403 
L 636.471074 -474.116403 
L 636.471074 -474.116403 
L 635.020895 -480.945336 
L 633.570716 -475.33444 
L 632.120536 -486.053835 
L 630.670357 -480.437389 
L 629.220178 -482.81248 
L 627.769998 -483.518896 
L 626.319819 -482.302053 
L 624.86964 -480.147964 
L 623.41946 -489.242709 
L 621.969281 -479.607049 
L 620.519102 -487.616719 
L 619.068923 -487.579274 
L 617.618743 -492.600708 
L 616.168564 -503.376166 
L 614.718385 -499.200604 
L 613.268205 -505.305682 
L 611.818026 -499.443248 
L 610.367847 -504.007839 
L 608.917667 -495.12214 
L 607.467488 -492.518144 
L 606.017309 -490.50032 
L 604.567129 -489.309373 
L 603.11695 -488.771704 
L 601.666771 -488.584538 
L 600.216591 -488.527172 
L 598.766412 -488.480082 
L 597.316233 -488.341676 
L 595.866053 -487.961358 
L 594.415874 -487.174616 
L 592.965695 -486.007367 
L 591.515515 -484.88639 
L 590.065336 -491.23218 
L 588.615157 -485.267223 
L 587.164977 -486.995927 
L 585.714798 -489.032991 
L 584.264619 -490.666773 
L 582.814439 -496.113565 
L 581.36426 -491.183693 
L 579.914081 -490.374804 
L 578.463901 -489.518374 
L 577.013722 -488.939392 
L 575.563543 -488.659198 
L 574.113363 -488.558559 
L 572.663184 -488.531209 
L 571.213005 -488.525531 
L 569.762826 -488.524503 
L 568.312646 -488.524503 
L 566.862467 -488.525093 
L 565.412288 -488.528353 
L 563.962108 -488.544055 
L 562.511929 -488.601833 
L 561.06175 -488.762698 
L 559.61157 -489.095903 
L 558.161391 -489.592018 
L 556.711212 -490.077729 
L 555.261032 -496.338948 
L 553.810853 -490.077729 
L 552.360674 -489.592018 
L 550.910494 -489.095903 
L 549.460315 -488.762698 
L 548.010136 -488.601833 
L 546.559956 -488.544055 
L 545.109777 -488.528353 
L 543.659598 -488.525093 
L 542.209418 -488.524503 
L 540.759239 -488.524503 
L 539.30906 -488.524503 
L 537.85888 -488.524503 
L 536.408701 -488.52262 
L 534.958522 -488.512222 
L 533.508342 -488.462133 
L 532.058163 -488.277825 
L 530.607984 -487.76468 
L 529.157804 -486.701782 
L 527.707625 -485.119213 
L 526.257446 -483.569835 
L 524.807266 -488.206153 
L 523.357087 -483.569835 
L 521.906908 -485.119001 
L 520.456729 -486.700335 
L 519.006549 -487.757229 
L 517.55637 -488.247854 
L 516.106191 -488.36783 
L 514.656011 -488.27547 
L 513.205832 -488.043363 
L 511.755653 -487.685794 
L 510.305473 -488.906153 
L 508.855294 -486.39242 
L 507.405115 -482.805137 
L 505.954935 -477.911291 
L 504.504756 -471.96376 
L 503.054577 -471.439019 
L 501.604397 -470.753206 
L 500.154218 -471.954704 
L 498.704039 -476.867428 
L 497.253859 -478.499667 
L 495.80368 -482.464227 
L 494.353501 -483.899617 
L 492.903321 -481.882454 
L 491.453142 -476.001394 
L 490.002963 -467.078394 
L 488.552783 -463.623131 
L 487.102604 -455.332497 
L 485.652425 -452.502501 
L 484.202245 -445.456362 
L 482.752066 -451.200209 
L 481.301887 -455.748186 
L 479.851707 -460.302259 
L 478.401528 -460.673633 
L 476.951349 -467.691747 
L 475.501169 -469.526932 
L 474.05099 -465.819989 
L 472.600811 -469.737404 
L 471.150632 -469.779965 
L 469.700452 -469.337532 
L 468.250273 -469.055176 
L 466.800094 -457.437528 
L 465.349914 -452.988212 
L 463.899735 -438.983681 
L 462.449556 -423.998868 
L 460.999376 -416.666214 
L 459.549197 -413.12192 
L 458.099018 -416.262038 
L 456.648838 -429.102883 
L 455.198659 -432.932364 
L 453.74848 -445.230407 
L 452.2983 -462.531532 
L 450.848121 -465.069665 
L 449.397942 -473.3027 
L 447.947762 -478.673338 
L 446.497583 -479.907705 
L 445.047404 -477.60144 
L 443.597224 -478.632247 
L 442.147045 -475.739421 
L 440.696866 -477.350863 
L 439.246686 -472.456834 
L 437.796507 -474.063945 
L 436.346328 -480.353978 
L 434.896148 -480.192334 
L 433.445969 -482.391811 
L 431.99579 -479.144877 
L 430.54561 -477.5801 
L 429.095431 -474.014814 
L 427.645252 -478.711809 
L 426.195073 -476.487775 
L 424.744893 -480.235458 
L 423.294714 -476.04292 
L 421.844535 -481.168091 
L 420.394355 -485.02291 
L 418.944176 -487.181205 
L 417.493997 -488.077905 
L 416.043817 -488.25802 
L 414.593638 -487.954701 
L 413.143459 -487.09879 
L 411.693279 -485.611919 
L 410.2431 -483.751113 
L 408.792921 -486.151504 
L 407.342741 -484.501428 
L 405.892562 -480.988142 
z
" style="stroke: #9467bd; stroke-opacity: 0.2"/>
    </defs>
    <g clip-path="url(#pc6867ac8a5)">
     <use xlink:href="#m0b0efb8f81" x="0" y="720" style="fill: #9467bd; fill-opacity: 0.2; stroke: #9467bd; stroke-opacity: 0.2"/>
    </g>
   </g>
   <g id="PolyCollection_2">
    <defs>
     <path id="m14b51dfa66" d="M 405.892562 -488.524503 
L 405.892562 -488.524503 
L 407.342741 -488.524503 
L 408.792921 -488.523723 
L 410.2431 -488.519417 
L 411.693279 -488.498675 
L 413.143459 -488.42235 
L 414.593638 -488.209851 
L 416.043817 -487.769691 
L 417.493997 -487.114329 
L 418.944176 -486.471168 
L 420.394355 -482.818246 
L 421.844535 -486.421586 
L 423.294714 -486.912121 
L 424.744893 -487.146846 
L 426.195073 -486.715723 
L 427.645252 -485.635273 
L 429.095431 -484.465387 
L 430.54561 -479.644619 
L 431.99579 -485.0281 
L 433.445969 -487.476004 
L 434.896148 -491.228154 
L 436.346328 -495.822225 
L 437.796507 -500.243195 
L 439.246686 -479.917322 
L 440.696866 -506.650282 
L 442.147045 -512.602619 
L 443.597224 -523.222014 
L 445.047404 -535.292796 
L 446.497583 -506.729893 
L 447.947762 -543.474807 
L 449.397942 -544.460773 
L 450.848121 -552.530463 
L 452.2983 -564.784922 
L 453.74848 -516.560961 
L 455.198659 -558.569976 
L 456.648838 -536.393466 
L 458.099018 -514.105117 
L 459.549197 -499.181093 
L 460.999376 -491.984191 
L 462.449556 -489.399249 
L 463.899735 -488.696751 
L 465.349914 -488.550918 
L 466.800094 -488.524503 
L 468.250273 -488.524503 
L 469.700452 -488.524503 
L 471.150632 -488.524503 
L 472.600811 -488.524503 
L 474.05099 -488.524503 
L 475.501169 -488.524503 
L 476.951349 -488.524503 
L 478.401528 -488.525957 
L 479.851707 -488.533982 
L 481.301887 -488.5769 
L 482.752066 -488.742665 
L 484.202245 -489.255289 
L 485.652425 -490.513568 
L 487.102604 -492.99921 
L 488.552783 -496.998589 
L 490.002963 -497.896141 
L 491.453142 -507.91409 
L 492.903321 -503.70078 
L 494.353501 -515.051274 
L 495.80368 -507.419198 
L 497.253859 -505.27418 
L 498.704039 -503.878821 
L 500.154218 -497.52446 
L 501.604397 -492.802921 
L 503.054577 -490.15375 
L 504.504756 -489.017678 
L 505.954935 -488.642015 
L 507.405115 -488.546706 
L 508.855294 -488.527402 
L 510.305473 -488.524503 
L 511.755653 -488.524652 
L 513.205832 -488.525475 
L 514.656011 -488.529441 
L 516.106191 -488.548687 
L 517.55637 -488.615002 
L 519.006549 -488.825092 
L 520.456729 -489.417838 
L 521.906908 -490.866678 
L 523.357087 -492.269193 
L 524.807266 -498.217529 
L 526.257446 -503.165794 
L 527.707625 -494.873671 
L 529.157804 -506.621094 
L 530.607984 -494.725446 
L 532.058163 -498.829438 
L 533.508342 -494.386975 
L 534.958522 -491.266797 
L 536.408701 -489.567654 
L 537.85888 -488.843484 
L 539.30906 -488.602136 
L 540.759239 -488.538874 
L 542.209418 -488.526707 
L 543.659598 -488.524503 
L 545.109777 -488.524503 
L 546.559956 -488.524503 
L 548.010136 -488.524503 
L 549.460315 -488.524427 
L 550.910494 -488.524011 
L 552.360674 -488.522004 
L 553.810853 -488.514618 
L 555.261032 -488.494056 
L 556.711212 -488.451465 
L 558.161391 -488.388049 
L 559.61157 -488.325964 
L 561.06175 -487.171697 
L 562.511929 -488.325964 
L 563.962108 -488.388049 
L 565.412288 -488.451465 
L 566.862467 -488.494056 
L 568.312646 -488.514618 
L 569.762826 -488.522004 
L 571.213005 -488.524011 
L 572.663184 -488.523358 
L 574.113363 -488.517449 
L 575.563543 -488.488569 
L 577.013722 -488.381815 
L 578.463901 -488.082749 
L 579.914081 -487.457878 
L 581.36426 -486.515204 
L 582.814439 -485.570011 
L 584.264619 -481.730633 
L 585.714798 -484.321632 
L 587.164977 -486.386399 
L 588.615157 -487.34908 
L 590.065336 -488.017932 
L 591.515515 -488.353131 
L 592.965695 -488.478929 
L 594.415874 -488.514962 
L 595.866053 -488.518889 
L 597.316233 -488.498087 
L 598.766412 -488.390743 
L 600.216591 -487.995472 
L 601.666771 -486.894974 
L 603.11695 -484.615466 
L 604.567129 -481.22146 
L 606.017309 -477.898273 
L 607.467488 -466.19574 
L 608.917667 -477.88655 
L 610.367847 -481.173653 
L 611.818026 -484.468209 
L 613.268205 -486.541723 
L 614.718385 -487.334827 
L 616.168564 -487.425967 
L 617.618743 -483.250239 
L 619.068923 -487.46756 
L 620.519102 -487.575085 
L 621.969281 -487.460078 
L 623.41946 -486.990768 
L 624.86964 -486.297352 
L 626.319819 -482.193003 
L 627.769998 -484.709209 
L 629.220178 -485.423047 
L 630.670357 -480.178519 
L 632.120536 -486.490796 
L 633.570716 -487.239728 
L 635.020895 -487.848332 
L 636.471074 -488.172369 
L 636.471074 -488.172369 
L 636.471074 -488.172369 
L 635.020895 -487.848332 
L 633.570716 -487.239728 
L 632.120536 -486.490796 
L 630.670357 -491.473167 
L 629.220178 -485.423047 
L 627.769998 -486.019844 
L 626.319819 -489.162232 
L 624.86964 -486.297352 
L 623.41946 -486.990768 
L 621.969281 -487.460078 
L 620.519102 -487.575085 
L 619.068923 -487.46756 
L 617.618743 -491.523607 
L 616.168564 -487.425967 
L 614.718385 -487.334827 
L 613.268205 -486.541723 
L 611.818026 -484.468209 
L 610.367847 -481.173653 
L 608.917667 -477.88655 
L 607.467488 -486.76714 
L 606.017309 -477.898273 
L 604.567129 -481.22146 
L 603.11695 -484.615466 
L 601.666771 -486.894974 
L 600.216591 -487.995472 
L 598.766412 -488.390743 
L 597.316233 -488.498087 
L 595.866053 -488.518889 
L 594.415874 -488.514962 
L 592.965695 -488.478929 
L 591.515515 -488.353131 
L 590.065336 -488.017932 
L 588.615157 -487.34908 
L 587.164977 -486.386399 
L 585.714798 -486.636688 
L 584.264619 -488.532472 
L 582.814439 -485.570011 
L 581.36426 -486.515204 
L 579.914081 -487.457878 
L 578.463901 -488.082749 
L 577.013722 -488.381815 
L 575.563543 -488.488569 
L 574.113363 -488.517449 
L 572.663184 -488.523358 
L 571.213005 -488.524011 
L 569.762826 -488.522004 
L 568.312646 -488.514618 
L 566.862467 -488.494056 
L 565.412288 -488.451465 
L 563.962108 -488.388049 
L 562.511929 -488.325964 
L 561.06175 -489.427361 
L 559.61157 -488.325964 
L 558.161391 -488.388049 
L 556.711212 -488.451465 
L 555.261032 -488.494056 
L 553.810853 -488.514618 
L 552.360674 -488.522004 
L 550.910494 -488.524011 
L 549.460315 -488.524427 
L 548.010136 -488.524503 
L 546.559956 -488.524503 
L 545.109777 -488.524503 
L 543.659598 -488.524503 
L 542.209418 -488.526707 
L 540.759239 -488.538874 
L 539.30906 -488.602136 
L 537.85888 -488.843484 
L 536.408701 -489.567654 
L 534.958522 -491.266797 
L 533.508342 -494.386975 
L 532.058163 -498.829438 
L 530.607984 -512.324914 
L 529.157804 -506.621094 
L 527.707625 -518.170077 
L 526.257446 -503.165794 
L 524.807266 -498.217529 
L 523.357087 -495.251029 
L 521.906908 -490.866678 
L 520.456729 -489.417838 
L 519.006549 -488.825092 
L 517.55637 -488.615002 
L 516.106191 -488.548687 
L 514.656011 -488.529441 
L 513.205832 -488.525475 
L 511.755653 -488.524652 
L 510.305473 -488.524503 
L 508.855294 -488.527402 
L 507.405115 -488.546706 
L 505.954935 -488.642015 
L 504.504756 -489.017678 
L 503.054577 -490.15375 
L 501.604397 -492.802921 
L 500.154218 -497.52446 
L 498.704039 -503.878821 
L 497.253859 -515.030623 
L 495.80368 -521.114222 
L 494.353501 -515.051274 
L 492.903321 -521.532289 
L 491.453142 -507.91409 
L 490.002963 -506.641468 
L 488.552783 -496.998589 
L 487.102604 -492.99921 
L 485.652425 -490.513568 
L 484.202245 -489.255289 
L 482.752066 -488.742665 
L 481.301887 -488.5769 
L 479.851707 -488.533982 
L 478.401528 -488.525957 
L 476.951349 -488.524503 
L 475.501169 -488.524503 
L 474.05099 -488.524503 
L 472.600811 -488.524503 
L 471.150632 -488.524503 
L 469.700452 -488.524503 
L 468.250273 -488.524503 
L 466.800094 -488.524503 
L 465.349914 -488.550918 
L 463.899735 -488.696751 
L 462.449556 -489.399249 
L 460.999376 -491.984191 
L 459.549197 -499.181093 
L 458.099018 -514.105117 
L 456.648838 -536.393466 
L 455.198659 -558.569976 
L 453.74848 -622.368595 
L 452.2983 -564.784922 
L 450.848121 -552.530463 
L 449.397942 -544.460773 
L 447.947762 -543.474807 
L 446.497583 -578.428639 
L 445.047404 -535.292796 
L 443.597224 -523.222014 
L 442.147045 -512.602619 
L 440.696866 -506.650282 
L 439.246686 -527.182442 
L 437.796507 -500.243195 
L 436.346328 -495.822225 
L 434.896148 -491.228154 
L 433.445969 -487.476004 
L 431.99579 -485.0281 
L 430.54561 -488.475874 
L 429.095431 -484.465387 
L 427.645252 -485.635273 
L 426.195073 -486.715723 
L 424.744893 -487.146846 
L 423.294714 -486.912121 
L 421.844535 -486.421586 
L 420.394355 -489.560658 
L 418.944176 -486.471168 
L 417.493997 -487.114329 
L 416.043817 -487.769691 
L 414.593638 -488.209851 
L 413.143459 -488.42235 
L 411.693279 -488.498675 
L 410.2431 -488.519417 
L 408.792921 -488.523723 
L 407.342741 -488.524503 
L 405.892562 -488.524503 
z
" style="stroke: #1f77b4; stroke-opacity: 0.2"/>
    </defs>
    <g clip-path="url(#pc6867ac8a5)">
     <use xlink:href="#m14b51dfa66" x="0" y="720" style="fill: #1f77b4; fill-opacity: 0.2; stroke: #1f77b4; stroke-opacity: 0.2"/>
    </g>
   </g>
   <g id="PolyCollection_3">
    <defs>
     <path id="m02dd308fe6" d="M 405.892562 -518.803648 
L 405.892562 -500.069582 
L 407.342741 -505.065678 
L 408.792921 -498.868746 
L 410.2431 -493.634373 
L 411.693279 -490.515986 
L 413.143459 -489.135992 
L 414.593638 -488.67221 
L 416.043817 -488.55253 
L 417.493997 -488.528236 
L 418.944176 -488.524547 
L 420.394355 -488.524725 
L 421.844535 -488.525383 
L 423.294714 -488.527214 
L 424.744893 -488.531006 
L 426.195073 -488.536652 
L 427.645252 -488.54218 
L 429.095431 -486.519925 
L 430.54561 -488.54218 
L 431.99579 -488.536652 
L 433.445969 -488.531006 
L 434.896148 -488.527214 
L 436.346328 -488.525383 
L 437.796507 -488.525258 
L 439.246686 -488.528022 
L 440.696866 -488.542158 
L 442.147045 -488.594304 
L 443.597224 -488.740496 
L 445.047404 -489.046728 
L 446.497583 -489.520894 
L 447.947762 -490.056297 
L 449.397942 -486.389431 
L 450.848121 -490.88564 
L 452.2983 -491.280002 
L 453.74848 -491.647506 
L 455.198659 -486.025907 
L 456.648838 -491.201545 
L 458.099018 -490.33408 
L 459.549197 -489.487128 
L 460.999376 -488.924869 
L 462.449556 -488.65431 
L 463.899735 -488.557323 
L 465.349914 -488.530966 
L 466.800094 -488.523383 
L 468.250273 -488.510737 
L 469.700452 -488.454595 
L 471.150632 -488.248012 
L 472.600811 -487.67285 
L 474.05099 -486.481495 
L 475.501169 -484.707661 
L 476.951349 -482.971031 
L 478.401528 -477.309028 
L 479.851707 -482.971031 
L 481.301887 -484.707661 
L 482.752066 -486.481495 
L 484.202245 -487.67285 
L 485.652425 -488.248012 
L 487.102604 -488.454595 
L 488.552783 -488.510737 
L 490.002963 -488.522392 
L 491.453142 -488.524503 
L 492.903321 -488.524503 
L 494.353501 -488.524503 
L 495.80368 -488.526168 
L 497.253859 -488.535362 
L 498.704039 -488.57965 
L 500.154218 -488.742615 
L 501.604397 -489.196336 
L 503.054577 -490.137571 
L 504.504756 -491.54396 
L 505.954935 -492.947504 
L 507.405115 -489.860776 
L 508.855294 -493.378094 
L 510.305473 -492.599381 
L 511.755653 -491.955092 
L 513.205832 -491.522141 
L 514.656011 -485.232011 
L 516.106191 -485.610447 
L 517.55637 -488.70318 
L 519.006549 -487.829357 
L 520.456729 -487.376482 
L 521.906908 -484.623336 
L 523.357087 -487.501705 
L 524.807266 -487.842802 
L 526.257446 -488.164808 
L 527.707625 -488.375307 
L 529.157804 -488.476319 
L 530.607984 -488.513681 
L 532.058163 -488.532148 
L 533.508342 -488.579335 
L 534.958522 -488.761523 
L 536.408701 -489.335576 
L 537.85888 -490.776573 
L 539.30906 -493.678859 
L 540.759239 -498.413346 
L 542.209418 -500.238879 
L 543.659598 -504.937307 
L 545.109777 -510.696617 
L 546.559956 -513.087354 
L 548.010136 -513.224168 
L 549.460315 -511.882351 
L 550.910494 -504.425299 
L 552.360674 -500.179354 
L 553.810853 -499.628652 
L 555.261032 -493.653181 
L 556.711212 -488.833159 
L 558.161391 -480.888687 
L 559.61157 -483.420724 
L 561.06175 -480.980223 
L 562.511929 -477.496727 
L 563.962108 -467.515097 
L 565.412288 -469.414892 
L 566.862467 -461.331479 
L 568.312646 -462.062197 
L 569.762826 -468.717868 
L 571.213005 -470.091989 
L 572.663184 -466.376658 
L 574.113363 -468.639864 
L 575.563543 -473.768111 
L 577.013722 -474.700169 
L 578.463901 -470.631124 
L 579.914081 -476.747861 
L 581.36426 -473.693648 
L 582.814439 -482.023514 
L 584.264619 -484.716008 
L 585.714798 -486.44106 
L 587.164977 -486.848413 
L 588.615157 -485.830054 
L 590.065336 -483.45305 
L 591.515515 -479.973065 
L 592.965695 -468.88005 
L 594.415874 -470.037661 
L 595.866053 -463.039861 
L 597.316233 -450.449592 
L 598.766412 -440.839972 
L 600.216591 -434.060619 
L 601.666771 -430.188674 
L 603.11695 -429.168048 
L 604.567129 -433.492995 
L 606.017309 -439.941437 
L 607.467488 -457.143165 
L 608.917667 -460.153296 
L 610.367847 -468.939536 
L 611.818026 -468.08633 
L 613.268205 -476.438662 
L 614.718385 -480.840868 
L 616.168564 -484.571202 
L 617.618743 -486.911122 
L 619.068923 -488.007128 
L 620.519102 -488.394488 
L 621.969281 -488.505308 
L 623.41946 -488.560814 
L 624.86964 -488.73129 
L 626.319819 -489.351749 
L 627.769998 -491.11597 
L 629.220178 -494.928977 
L 630.670357 -501.118251 
L 632.120536 -508.557107 
L 633.570716 -495.759123 
L 635.020895 -518.917151 
L 636.471074 -508.37719 
L 636.471074 -532.449163 
L 636.471074 -532.449163 
L 635.020895 -518.917151 
L 633.570716 -534.277431 
L 632.120536 -508.557107 
L 630.670357 -501.118251 
L 629.220178 -494.928977 
L 627.769998 -491.11597 
L 626.319819 -489.351749 
L 624.86964 -488.73129 
L 623.41946 -488.560814 
L 621.969281 -488.505308 
L 620.519102 -488.394488 
L 619.068923 -488.007128 
L 617.618743 -486.911122 
L 616.168564 -484.571202 
L 614.718385 -480.840868 
L 613.268205 -476.438662 
L 611.818026 -476.825455 
L 610.367847 -468.939536 
L 608.917667 -468.543121 
L 607.467488 -457.143165 
L 606.017309 -455.879568 
L 604.567129 -445.439751 
L 603.11695 -440.430697 
L 601.666771 -439.992484 
L 600.216591 -445.056682 
L 598.766412 -452.445887 
L 597.316233 -459.345188 
L 595.866053 -463.039861 
L 594.415874 -470.037661 
L 592.965695 -482.270829 
L 591.515515 -479.973065 
L 590.065336 -483.45305 
L 588.615157 -485.830054 
L 587.164977 -486.848413 
L 585.714798 -486.44106 
L 584.264619 -484.716008 
L 582.814439 -482.023514 
L 581.36426 -484.465568 
L 579.914081 -476.747861 
L 578.463901 -480.237775 
L 577.013722 -474.700169 
L 575.563543 -473.768111 
L 574.113363 -476.302985 
L 572.663184 -476.073439 
L 571.213005 -470.091989 
L 569.762826 -468.717868 
L 568.312646 -472.740103 
L 566.862467 -473.344824 
L 565.412288 -469.414892 
L 563.962108 -478.963058 
L 562.511929 -477.496727 
L 561.06175 -480.980223 
L 559.61157 -483.420724 
L 558.161391 -490.375338 
L 556.711212 -488.833159 
L 555.261032 -493.653181 
L 553.810853 -499.628652 
L 552.360674 -511.047348 
L 550.910494 -517.062208 
L 549.460315 -517.820926 
L 548.010136 -522.299153 
L 546.559956 -524.102476 
L 545.109777 -522.069905 
L 543.659598 -517.595684 
L 542.209418 -509.117147 
L 540.759239 -498.413346 
L 539.30906 -493.678859 
L 537.85888 -490.776573 
L 536.408701 -489.335576 
L 534.958522 -488.761523 
L 533.508342 -488.579335 
L 532.058163 -488.532148 
L 530.607984 -488.513681 
L 529.157804 -488.476319 
L 527.707625 -488.375307 
L 526.257446 -488.164808 
L 524.807266 -487.842802 
L 523.357087 -487.501705 
L 521.906908 -489.976081 
L 520.456729 -487.376482 
L 519.006549 -487.829357 
L 517.55637 -488.70318 
L 516.106191 -494.097649 
L 514.656011 -496.547356 
L 513.205832 -491.522141 
L 511.755653 -491.955092 
L 510.305473 -492.599381 
L 508.855294 -493.378094 
L 507.405115 -497.438247 
L 505.954935 -492.947504 
L 504.504756 -491.54396 
L 503.054577 -490.137571 
L 501.604397 -489.196336 
L 500.154218 -488.742615 
L 498.704039 -488.57965 
L 497.253859 -488.535362 
L 495.80368 -488.526168 
L 494.353501 -488.524503 
L 492.903321 -488.524503 
L 491.453142 -488.524503 
L 490.002963 -488.522392 
L 488.552783 -488.510737 
L 487.102604 -488.454595 
L 485.652425 -488.248012 
L 484.202245 -487.67285 
L 482.752066 -486.481495 
L 481.301887 -484.707661 
L 479.851707 -482.971031 
L 478.401528 -487.154162 
L 476.951349 -482.971031 
L 475.501169 -484.707661 
L 474.05099 -486.481495 
L 472.600811 -487.67285 
L 471.150632 -488.248012 
L 469.700452 -488.454595 
L 468.250273 -488.510737 
L 466.800094 -488.523383 
L 465.349914 -488.530966 
L 463.899735 -488.557323 
L 462.449556 -488.65431 
L 460.999376 -488.924869 
L 459.549197 -489.487128 
L 458.099018 -490.33408 
L 456.648838 -491.201545 
L 455.198659 -497.361885 
L 453.74848 -491.647506 
L 452.2983 -491.280002 
L 450.848121 -490.88564 
L 449.397942 -494.636561 
L 447.947762 -490.056297 
L 446.497583 -489.520894 
L 445.047404 -489.046728 
L 443.597224 -488.740496 
L 442.147045 -488.594304 
L 440.696866 -488.542158 
L 439.246686 -488.528022 
L 437.796507 -488.525258 
L 436.346328 -488.525383 
L 434.896148 -488.527214 
L 433.445969 -488.531006 
L 431.99579 -488.536652 
L 430.54561 -488.54218 
L 429.095431 -490.569143 
L 427.645252 -488.54218 
L 426.195073 -488.536652 
L 424.744893 -488.531006 
L 423.294714 -488.527214 
L 421.844535 -488.525383 
L 420.394355 -488.524725 
L 418.944176 -488.524547 
L 417.493997 -488.528236 
L 416.043817 -488.55253 
L 414.593638 -488.67221 
L 413.143459 -489.135992 
L 411.693279 -490.515986 
L 410.2431 -493.634373 
L 408.792921 -498.868746 
L 407.342741 -505.065678 
L 405.892562 -518.803648 
z
" style="stroke: #d62728; stroke-opacity: 0.2"/>
    </defs>
    <g clip-path="url(#pc6867ac8a5)">
     <use xlink:href="#m02dd308fe6" x="0" y="720" style="fill: #d62728; fill-opacity: 0.2; stroke: #d62728; stroke-opacity: 0.2"/>
    </g>
   </g>
   <g id="PolyCollection_4">
    <defs>
     <path id="m8df8eecc73" d="M 405.892562 -488.960952 
L 405.892562 -488.960952 
L 407.342741 -489.691105 
L 408.792921 -491.495583 
L 410.2431 -494.594906 
L 411.693279 -498.422839 
L 413.143459 -494.073453 
L 414.593638 -493.690599 
L 416.043817 -502.74959 
L 417.493997 -502.391697 
L 418.944176 -494.341294 
L 420.394355 -503.326838 
L 421.844535 -494.131941 
L 423.294714 -496.253332 
L 424.744893 -496.930373 
L 426.195073 -493.964721 
L 427.645252 -492.731293 
L 429.095431 -493.363341 
L 430.54561 -494.975073 
L 431.99579 -490.86057 
L 433.445969 -497.525816 
L 434.896148 -498.479894 
L 436.346328 -499.406568 
L 437.796507 -495.660359 
L 439.246686 -498.670475 
L 440.696866 -497.484106 
L 442.147045 -497.357005 
L 443.597224 -498.422715 
L 445.047404 -494.438589 
L 446.497583 -499.348969 
L 447.947762 -495.180998 
L 449.397942 -496.242856 
L 450.848121 -489.913387 
L 452.2983 -492.583942 
L 453.74848 -490.958793 
L 455.198659 -489.730671 
L 456.648838 -488.990477 
L 458.099018 -488.588995 
L 459.549197 -488.212921 
L 460.999376 -487.454481 
L 462.449556 -485.941082 
L 463.899735 -483.695923 
L 465.349914 -481.498961 
L 466.800094 -476.550243 
L 468.250273 -481.498961 
L 469.700452 -483.695923 
L 471.150632 -485.93995 
L 472.600811 -487.449247 
L 474.05099 -488.188713 
L 475.501169 -488.507119 
L 476.951349 -488.788116 
L 478.401528 -489.387458 
L 479.851707 -490.603016 
L 481.301887 -492.416918 
L 482.752066 -494.233852 
L 484.202245 -488.757834 
L 485.652425 -494.936964 
L 487.102604 -494.194081 
L 488.552783 -493.785473 
L 490.002963 -493.639811 
L 491.453142 -490.257447 
L 492.903321 -491.169823 
L 494.353501 -485.602311 
L 495.80368 -487.79825 
L 497.253859 -487.504101 
L 498.704039 -487.809573 
L 500.154218 -488.18381 
L 501.604397 -488.405495 
L 503.054577 -488.493124 
L 504.504756 -488.517933 
L 505.954935 -488.522449 
L 507.405115 -488.515581 
L 508.855294 -488.475087 
L 510.305473 -488.31092 
L 511.755653 -487.791774 
L 513.205832 -486.523939 
L 514.656011 -484.164672 
L 516.106191 -480.921547 
L 517.55637 -475.284246 
L 519.006549 -470.834668 
L 520.456729 -472.90731 
L 521.906908 -478.544336 
L 523.357087 -479.09064 
L 524.807266 -477.444096 
L 526.257446 -464.066548 
L 527.707625 -468.945592 
L 529.157804 -458.310379 
L 530.607984 -456.636948 
L 532.058163 -444.501541 
L 533.508342 -436.893587 
L 534.958522 -432.883712 
L 536.408701 -433.085807 
L 537.85888 -440.615352 
L 539.30906 -451.448635 
L 540.759239 -470.108167 
L 542.209418 -478.886919 
L 543.659598 -484.328143 
L 545.109777 -487.031672 
L 546.559956 -488.130514 
L 548.010136 -488.626139 
L 549.460315 -489.30996 
L 550.910494 -491.02352 
L 552.360674 -494.631059 
L 553.810853 -500.284426 
L 555.261032 -506.570218 
L 556.711212 -499.229879 
L 558.161391 -512.265397 
L 559.61157 -503.756174 
L 561.06175 -510.043831 
L 562.511929 -503.990022 
L 563.962108 -511.874095 
L 565.412288 -508.976882 
L 566.862467 -519.329471 
L 568.312646 -524.642169 
L 569.762826 -516.688676 
L 571.213005 -519.985223 
L 572.663184 -529.123527 
L 574.113363 -527.951719 
L 575.563543 -518.314303 
L 577.013722 -513.231841 
L 578.463901 -513.252789 
L 579.914081 -501.010063 
L 581.36426 -498.417573 
L 582.814439 -496.836252 
L 584.264619 -499.600398 
L 585.714798 -504.753006 
L 587.164977 -502.776199 
L 588.615157 -503.659079 
L 590.065336 -511.303237 
L 591.515515 -506.715337 
L 592.965695 -512.956915 
L 594.415874 -506.4196 
L 595.866053 -504.446281 
L 597.316233 -507.117 
L 598.766412 -500.168751 
L 600.216591 -494.329082 
L 601.666771 -490.812624 
L 603.11695 -489.236351 
L 604.567129 -488.705023 
L 606.017309 -488.594141 
L 607.467488 -488.675511 
L 608.917667 -488.98349 
L 610.367847 -489.666122 
L 611.818026 -490.817769 
L 613.268205 -492.355378 
L 614.718385 -489.600477 
L 616.168564 -495.616403 
L 617.618743 -496.619344 
L 619.068923 -489.598667 
L 620.519102 -495.013358 
L 621.969281 -492.618924 
L 623.41946 -490.045968 
L 624.86964 -487.64082 
L 626.319819 -485.415501 
L 627.769998 -483.633785 
L 629.220178 -475.62445 
L 630.670357 -483.559224 
L 632.120536 -485.110324 
L 633.570716 -486.695136 
L 635.020895 -487.750383 
L 636.471074 -488.214648 
L 636.471074 -488.214648 
L 636.471074 -488.214648 
L 635.020895 -487.750383 
L 633.570716 -486.695136 
L 632.120536 -485.110324 
L 630.670357 -483.559224 
L 629.220178 -490.196776 
L 627.769998 -483.633785 
L 626.319819 -485.415501 
L 624.86964 -487.64082 
L 623.41946 -490.045968 
L 621.969281 -492.618924 
L 620.519102 -495.013358 
L 619.068923 -503.396683 
L 617.618743 -496.619344 
L 616.168564 -495.616403 
L 614.718385 -498.501443 
L 613.268205 -492.355378 
L 611.818026 -490.817769 
L 610.367847 -489.666122 
L 608.917667 -488.98349 
L 607.467488 -488.675511 
L 606.017309 -488.594141 
L 604.567129 -488.705023 
L 603.11695 -489.236351 
L 601.666771 -490.812624 
L 600.216591 -494.329082 
L 598.766412 -500.168751 
L 597.316233 -507.117 
L 595.866053 -520.508327 
L 594.415874 -521.967303 
L 592.965695 -512.956915 
L 591.515515 -516.1896 
L 590.065336 -511.303237 
L 588.615157 -519.068501 
L 587.164977 -515.934784 
L 585.714798 -504.753006 
L 584.264619 -499.600398 
L 582.814439 -496.836252 
L 581.36426 -498.417573 
L 579.914081 -508.015241 
L 578.463901 -513.252789 
L 577.013722 -529.341536 
L 575.563543 -533.783749 
L 574.113363 -527.951719 
L 572.663184 -529.123527 
L 571.213005 -539.958739 
L 569.762826 -540.797232 
L 568.312646 -524.642169 
L 566.862467 -519.329471 
L 565.412288 -520.752703 
L 563.962108 -511.874095 
L 562.511929 -516.455898 
L 561.06175 -510.043831 
L 559.61157 -518.644305 
L 558.161391 -512.265397 
L 556.711212 -522.844019 
L 555.261032 -506.570218 
L 553.810853 -500.284426 
L 552.360674 -494.631059 
L 550.910494 -491.02352 
L 549.460315 -489.30996 
L 548.010136 -488.626139 
L 546.559956 -488.130514 
L 545.109777 -487.031672 
L 543.659598 -484.328143 
L 542.209418 -478.886919 
L 540.759239 -470.108167 
L 539.30906 -466.203961 
L 537.85888 -454.527564 
L 536.408701 -446.297388 
L 534.958522 -442.379435 
L 533.508342 -445.99968 
L 532.058163 -453.067981 
L 530.607984 -456.636948 
L 529.157804 -468.392868 
L 527.707625 -468.945592 
L 526.257446 -483.485765 
L 524.807266 -477.444096 
L 523.357087 -479.09064 
L 521.906908 -478.544336 
L 520.456729 -481.112825 
L 519.006549 -481.980884 
L 517.55637 -480.453117 
L 516.106191 -480.921547 
L 514.656011 -484.164672 
L 513.205832 -486.523939 
L 511.755653 -487.791774 
L 510.305473 -488.31092 
L 508.855294 -488.475087 
L 507.405115 -488.515581 
L 505.954935 -488.522449 
L 504.504756 -488.517933 
L 503.054577 -488.493124 
L 501.604397 -488.405495 
L 500.154218 -488.18381 
L 498.704039 -487.809573 
L 497.253859 -487.504101 
L 495.80368 -487.79825 
L 494.353501 -492.649734 
L 492.903321 -491.169823 
L 491.453142 -495.551138 
L 490.002963 -493.639811 
L 488.552783 -493.785473 
L 487.102604 -494.194081 
L 485.652425 -494.936964 
L 484.202245 -501.59059 
L 482.752066 -494.233852 
L 481.301887 -492.416918 
L 479.851707 -490.603016 
L 478.401528 -489.387458 
L 476.951349 -488.788116 
L 475.501169 -488.507119 
L 474.05099 -488.188713 
L 472.600811 -487.449247 
L 471.150632 -485.93995 
L 469.700452 -483.695923 
L 468.250273 -481.498961 
L 466.800094 -484.576798 
L 465.349914 -481.498961 
L 463.899735 -483.695923 
L 462.449556 -485.941082 
L 460.999376 -487.454481 
L 459.549197 -488.212921 
L 458.099018 -488.588995 
L 456.648838 -488.990477 
L 455.198659 -489.730671 
L 453.74848 -490.958793 
L 452.2983 -492.583942 
L 450.848121 -498.858632 
L 449.397942 -496.242856 
L 447.947762 -500.918209 
L 446.497583 -499.348969 
L 445.047404 -504.496231 
L 443.597224 -498.422715 
L 442.147045 -497.357005 
L 440.696866 -497.484106 
L 439.246686 -498.670475 
L 437.796507 -503.545957 
L 436.346328 -499.406568 
L 434.896148 -498.479894 
L 433.445969 -497.525816 
L 431.99579 -502.100382 
L 430.54561 -494.975073 
L 429.095431 -493.363341 
L 427.645252 -492.731293 
L 426.195073 -493.964721 
L 424.744893 -496.930373 
L 423.294714 -504.523723 
L 421.844535 -511.390806 
L 420.394355 -503.326838 
L 418.944176 -511.184347 
L 417.493997 -502.391697 
L 416.043817 -502.74959 
L 414.593638 -512.185943 
L 413.143459 -509.098727 
L 411.693279 -498.422839 
L 410.2431 -494.594906 
L 408.792921 -491.495583 
L 407.342741 -489.691105 
L 405.892562 -488.960952 
z
" style="stroke: #ff7f0e; stroke-opacity: 0.2"/>
    </defs>
    <g clip-path="url(#pc6867ac8a5)">
     <use xlink:href="#m8df8eecc73" x="0" y="720" style="fill: #ff7f0e; fill-opacity: 0.2; stroke: #ff7f0e; stroke-opacity: 0.2"/>
    </g>
   </g>
   <g id="matplotlib.axis_3">
    <g id="xtick_7">
     <g id="line2d_13">
      <g>
       <use xlink:href="#m34cd371ff9" x="405.863558" y="333.490909" style="stroke: #000000; stroke-width: 0.8"/>
      </g>
     </g>
     <g id="text_13">
      <!-- 0 -->
      <g transform="translate(402.682308 348.089347)scale(0.1 -0.1)">
       <use xlink:href="#DejaVuSans-30"/>
      </g>
     </g>
    </g>
    <g id="xtick_8">
     <g id="line2d_14">
      <g>
       <use xlink:href="#m34cd371ff9" x="463.870731" y="333.490909" style="stroke: #000000; stroke-width: 0.8"/>
      </g>
     </g>
     <g id="text_14">
      <!-- 2000 -->
      <g transform="translate(451.145731 348.089347)scale(0.1 -0.1)">
       <use xlink:href="#DejaVuSans-32"/>
       <use xlink:href="#DejaVuSans-30" x="63.623047"/>
       <use xlink:href="#DejaVuSans-30" x="127.246094"/>
       <use xlink:href="#DejaVuSans-30" x="190.869141"/>
      </g>
     </g>
    </g>
    <g id="xtick_9">
     <g id="line2d_15">
      <g>
       <use xlink:href="#m34cd371ff9" x="521.877904" y="333.490909" style="stroke: #000000; stroke-width: 0.8"/>
      </g>
     </g>
     <g id="text_15">
      <!-- 4000 -->
      <g transform="translate(509.152904 348.089347)scale(0.1 -0.1)">
       <use xlink:href="#DejaVuSans-34"/>
       <use xlink:href="#DejaVuSans-30" x="63.623047"/>
       <use xlink:href="#DejaVuSans-30" x="127.246094"/>
       <use xlink:href="#DejaVuSans-30" x="190.869141"/>
      </g>
     </g>
    </g>
    <g id="xtick_10">
     <g id="line2d_16">
      <g>
       <use xlink:href="#m34cd371ff9" x="579.885077" y="333.490909" style="stroke: #000000; stroke-width: 0.8"/>
      </g>
     </g>
     <g id="text_16">
      <!-- 6000 -->
      <g transform="translate(567.160077 348.089347)scale(0.1 -0.1)">
       <use xlink:href="#DejaVuSans-36"/>
       <use xlink:href="#DejaVuSans-30" x="63.623047"/>
       <use xlink:href="#DejaVuSans-30" x="127.246094"/>
       <use xlink:href="#DejaVuSans-30" x="190.869141"/>
      </g>
     </g>
    </g>
    <g id="xtick_11">
     <g id="line2d_17">
      <g>
       <use xlink:href="#m34cd371ff9" x="637.89225" y="333.490909" style="stroke: #000000; stroke-width: 0.8"/>
      </g>
     </g>
     <g id="text_17">
      <!-- 8000 -->
      <g transform="translate(625.16725 348.089347)scale(0.1 -0.1)">
       <use xlink:href="#DejaVuSans-38"/>
       <use xlink:href="#DejaVuSans-30" x="63.623047"/>
       <use xlink:href="#DejaVuSans-30" x="127.246094"/>
       <use xlink:href="#DejaVuSans-30" x="190.869141"/>
      </g>
     </g>
    </g>
   </g>
   <g id="matplotlib.axis_4">
    <g id="ytick_7">
     <g id="line2d_18">
      <g>
       <use xlink:href="#mac320481f7" x="394.363636" y="328.689906" style="stroke: #000000; stroke-width: 0.8"/>
      </g>
     </g>
     <g id="text_18">
      <!-- −0.6 -->
      <g transform="translate(363.080824 332.489125)scale(0.1 -0.1)">
       <defs>
        <path id="DejaVuSans-2212" d="M 678 2272 
L 4684 2272 
L 4684 1741 
L 678 1741 
L 678 2272 
z
" transform="scale(0.015625)"/>
       </defs>
       <use xlink:href="#DejaVuSans-2212"/>
       <use xlink:href="#DejaVuSans-30" x="83.789062"/>
       <use xlink:href="#DejaVuSans-2e" x="147.412109"/>
       <use xlink:href="#DejaVuSans-36" x="179.199219"/>
      </g>
     </g>
    </g>
    <g id="ytick_8">
     <g id="line2d_19">
      <g>
       <use xlink:href="#mac320481f7" x="394.363636" y="296.285103" style="stroke: #000000; stroke-width: 0.8"/>
      </g>
     </g>
     <g id="text_19">
      <!-- −0.4 -->
      <g transform="translate(363.080824 300.084322)scale(0.1 -0.1)">
       <use xlink:href="#DejaVuSans-2212"/>
       <use xlink:href="#DejaVuSans-30" x="83.789062"/>
       <use xlink:href="#DejaVuSans-2e" x="147.412109"/>
       <use xlink:href="#DejaVuSans-34" x="179.199219"/>
      </g>
     </g>
    </g>
    <g id="ytick_9">
     <g id="line2d_20">
      <g>
       <use xlink:href="#mac320481f7" x="394.363636" y="263.8803" style="stroke: #000000; stroke-width: 0.8"/>
      </g>
     </g>
     <g id="text_20">
      <!-- −0.2 -->
      <g transform="translate(363.080824 267.679519)scale(0.1 -0.1)">
       <use xlink:href="#DejaVuSans-2212"/>
       <use xlink:href="#DejaVuSans-30" x="83.789062"/>
       <use xlink:href="#DejaVuSans-2e" x="147.412109"/>
       <use xlink:href="#DejaVuSans-32" x="179.199219"/>
      </g>
     </g>
    </g>
    <g id="ytick_10">
     <g id="line2d_21">
      <g>
       <use xlink:href="#mac320481f7" x="394.363636" y="231.475497" style="stroke: #000000; stroke-width: 0.8"/>
      </g>
     </g>
     <g id="text_21">
      <!-- 0.0 -->
      <g transform="translate(371.460511 235.274716)scale(0.1 -0.1)">
       <use xlink:href="#DejaVuSans-30"/>
       <use xlink:href="#DejaVuSans-2e" x="63.623047"/>
       <use xlink:href="#DejaVuSans-30" x="95.410156"/>
      </g>
     </g>
    </g>
    <g id="ytick_11">
     <g id="line2d_22">
      <g>
       <use xlink:href="#mac320481f7" x="394.363636" y="199.070694" style="stroke: #000000; stroke-width: 0.8"/>
      </g>
     </g>
     <g id="text_22">
      <!-- 0.2 -->
      <g transform="translate(371.460511 202.869913)scale(0.1 -0.1)">
       <use xlink:href="#DejaVuSans-30"/>
       <use xlink:href="#DejaVuSans-2e" x="63.623047"/>
       <use xlink:href="#DejaVuSans-32" x="95.410156"/>
      </g>
     </g>
    </g>
    <g id="ytick_12">
     <g id="line2d_23">
      <g>
       <use xlink:href="#mac320481f7" x="394.363636" y="166.665891" style="stroke: #000000; stroke-width: 0.8"/>
      </g>
     </g>
     <g id="text_23">
      <!-- 0.4 -->
      <g transform="translate(371.460511 170.46511)scale(0.1 -0.1)">
       <use xlink:href="#DejaVuSans-30"/>
       <use xlink:href="#DejaVuSans-2e" x="63.623047"/>
       <use xlink:href="#DejaVuSans-34" x="95.410156"/>
      </g>
     </g>
    </g>
    <g id="ytick_13">
     <g id="line2d_24">
      <g>
       <use xlink:href="#mac320481f7" x="394.363636" y="134.261088" style="stroke: #000000; stroke-width: 0.8"/>
      </g>
     </g>
     <g id="text_24">
      <!-- 0.6 -->
      <g transform="translate(371.460511 138.060307)scale(0.1 -0.1)">
       <use xlink:href="#DejaVuSans-30"/>
       <use xlink:href="#DejaVuSans-2e" x="63.623047"/>
       <use xlink:href="#DejaVuSans-36" x="95.410156"/>
      </g>
     </g>
    </g>
    <g id="ytick_14">
     <g id="line2d_25">
      <g>
       <use xlink:href="#mac320481f7" x="394.363636" y="101.856285" style="stroke: #000000; stroke-width: 0.8"/>
      </g>
     </g>
     <g id="text_25">
      <!-- 0.8 -->
      <g transform="translate(371.460511 105.655504)scale(0.1 -0.1)">
       <use xlink:href="#DejaVuSans-30"/>
       <use xlink:href="#DejaVuSans-2e" x="63.623047"/>
       <use xlink:href="#DejaVuSans-38" x="95.410156"/>
      </g>
     </g>
    </g>
   </g>
   <g id="line2d_26">
    <path d="M 405.892562 239.011858 
L 407.342741 238.756305 
L 408.792921 237.866621 
L 410.2431 236.248887 
L 411.693279 234.388081 
L 413.143459 232.90121 
L 414.593638 232.045299 
L 416.043817 231.74198 
L 417.493997 231.922095 
L 418.944176 232.818795 
L 420.394355 234.97709 
L 421.844535 238.831909 
L 424.744893 248.691747 
L 426.195073 250.911475 
L 427.645252 249.634558 
L 430.54561 242.4199 
L 431.99579 240.855123 
L 433.445969 241.446134 
L 436.346328 244.539965 
L 437.796507 245.936055 
L 439.246686 247.543166 
L 440.696866 248.86198 
L 442.147045 248.57743 
L 443.597224 246.040288 
L 445.047404 242.39856 
L 446.497583 240.092295 
L 447.947762 241.326662 
L 449.397942 246.6973 
L 450.848121 254.930335 
L 452.2983 264.340531 
L 453.74848 274.769593 
L 456.648838 300.260944 
L 458.099018 310.659489 
L 459.549197 314.568792 
L 460.999376 310.948016 
L 462.449556 301.24678 
L 465.349914 274.062431 
L 466.800094 262.562472 
L 468.250273 255.774253 
L 469.700452 253.941461 
L 472.600811 256.233373 
L 474.05099 256.160017 
L 475.501169 255.567571 
L 476.951349 256.255457 
L 478.401528 259.326367 
L 481.301887 269.312566 
L 482.752066 272.943238 
L 484.202245 274.543638 
L 485.652425 273.796015 
L 487.102604 269.914825 
L 488.552783 262.497257 
L 491.453142 243.998606 
L 492.903321 238.117546 
L 494.353501 236.100383 
L 495.80368 237.535773 
L 497.253859 241.500333 
L 500.154218 251.589509 
L 501.604397 254.044662 
L 503.054577 252.734218 
L 504.504756 248.03624 
L 505.954935 242.088709 
L 507.405115 237.194863 
L 508.855294 234.287052 
L 510.305473 232.929624 
L 511.755653 232.314206 
L 513.205832 231.956637 
L 514.656011 231.72453 
L 516.106191 231.63217 
L 517.55637 231.752146 
L 519.006549 232.242771 
L 520.456729 233.299665 
L 523.357087 236.430165 
L 524.807266 237.089872 
L 526.257446 236.430165 
L 529.157804 233.298218 
L 530.607984 232.23532 
L 532.058163 231.722175 
L 533.508342 231.537867 
L 537.85888 231.475497 
L 548.010136 231.398167 
L 549.460315 231.237302 
L 550.910494 230.904097 
L 553.810853 229.922271 
L 555.261032 229.715462 
L 556.711212 229.922271 
L 559.61157 230.904097 
L 561.06175 231.237302 
L 563.962108 231.455945 
L 572.663184 231.468791 
L 575.563543 231.340802 
L 577.013722 231.060608 
L 578.463901 230.481626 
L 581.36426 228.816307 
L 582.814439 228.592686 
L 584.264619 229.333227 
L 585.714798 230.967009 
L 587.164977 233.004073 
L 588.615157 234.732777 
L 590.065336 235.501915 
L 591.515515 235.11361 
L 594.415874 232.825384 
L 595.866053 232.038642 
L 597.316233 231.658324 
L 600.216591 231.472828 
L 601.666771 231.415462 
L 603.11695 231.228296 
L 604.567129 230.690627 
L 606.017309 229.49968 
L 607.467488 227.481856 
L 610.367847 222.339675 
L 611.818026 220.556752 
L 613.268205 219.955676 
L 614.718385 220.799396 
L 616.168564 223.304231 
L 617.618743 227.399292 
L 620.519102 237.184661 
L 621.969281 240.392951 
L 623.41946 241.209224 
L 624.86964 239.852036 
L 626.319819 237.697947 
L 627.769998 236.481104 
L 629.220178 237.18752 
L 630.670357 239.562611 
L 632.120536 242.459452 
L 633.570716 244.66556 
L 635.020895 245.680176 
L 636.471074 245.883597 
L 636.471074 245.883597 
" clip-path="url(#pc6867ac8a5)" style="fill: none; stroke: #9467bd; stroke-width: 2; stroke-linecap: square"/>
   </g>
   <g id="line2d_27">
    <path d="M 405.892562 231.475497 
L 413.143459 231.57765 
L 414.593638 231.790149 
L 416.043817 232.230309 
L 418.944176 233.528832 
L 420.394355 233.810548 
L 421.844535 233.578414 
L 423.294714 233.087879 
L 424.744893 232.853154 
L 426.195073 233.284277 
L 429.095431 235.534613 
L 430.54561 235.939754 
L 431.99579 234.9719 
L 433.445969 232.523996 
L 434.896148 228.771846 
L 437.796507 219.756805 
L 440.696866 213.349718 
L 442.147045 207.397381 
L 443.597224 196.777986 
L 445.047404 184.707204 
L 446.497583 177.420734 
L 449.397942 175.539227 
L 450.848121 167.469537 
L 452.2983 155.215078 
L 453.74848 150.535222 
L 455.198659 161.430024 
L 458.099018 205.894883 
L 459.549197 220.818907 
L 460.999376 228.015809 
L 462.449556 230.600751 
L 463.899735 231.303249 
L 465.349914 231.449082 
L 472.600811 231.475497 
L 481.301887 231.4231 
L 482.752066 231.257335 
L 484.202245 230.744711 
L 485.652425 229.486432 
L 487.102604 227.00079 
L 488.552783 223.001411 
L 492.903321 207.383465 
L 494.353501 204.948726 
L 495.80368 205.73329 
L 497.253859 209.847599 
L 500.154218 222.47554 
L 501.604397 227.197079 
L 503.054577 229.84625 
L 504.504756 230.982322 
L 505.954935 231.357985 
L 508.855294 231.472598 
L 517.55637 231.384998 
L 519.006549 231.174908 
L 520.456729 230.582162 
L 521.906908 229.133322 
L 523.357087 226.239889 
L 524.807266 221.782471 
L 526.257446 216.834206 
L 527.707625 213.478126 
L 529.157804 213.378906 
L 530.607984 216.47482 
L 533.508342 225.613025 
L 534.958522 228.733203 
L 536.408701 230.432346 
L 537.85888 231.156516 
L 539.30906 231.397864 
L 542.209418 231.473293 
L 556.711212 231.548535 
L 561.06175 231.700471 
L 575.563543 231.511431 
L 577.013722 231.618185 
L 578.463901 231.917251 
L 579.914081 232.542122 
L 582.814439 234.429989 
L 584.264619 234.868448 
L 585.714798 234.52084 
L 588.615157 232.65092 
L 590.065336 231.982068 
L 591.515515 231.646869 
L 594.415874 231.485038 
L 597.316233 231.501913 
L 598.766412 231.609257 
L 600.216591 232.004528 
L 601.666771 233.105026 
L 603.11695 235.384534 
L 606.017309 242.101727 
L 607.467488 243.51856 
L 608.917667 242.11345 
L 611.818026 235.531791 
L 613.268205 233.458277 
L 614.718385 232.665173 
L 616.168564 232.574033 
L 617.618743 232.613077 
L 620.519102 232.424915 
L 621.969281 232.539922 
L 623.41946 233.009232 
L 626.319819 234.322383 
L 627.769998 234.635474 
L 629.220178 234.576953 
L 630.670357 234.174157 
L 635.020895 232.151668 
L 636.471074 231.827631 
L 636.471074 231.827631 
" clip-path="url(#pc6867ac8a5)" style="fill: none; stroke: #1f77b4; stroke-width: 2; stroke-linecap: square"/>
   </g>
   <g id="line2d_28">
    <path d="M 405.892562 210.563385 
L 407.342741 214.934322 
L 408.792921 221.131254 
L 410.2431 226.365627 
L 411.693279 229.484014 
L 413.143459 230.864008 
L 414.593638 231.32779 
L 417.493997 231.471764 
L 440.696866 231.457842 
L 443.597224 231.259504 
L 445.047404 230.953272 
L 450.848121 229.11436 
L 453.74848 228.352494 
L 455.198659 228.306104 
L 456.648838 228.798455 
L 459.549197 230.512872 
L 460.999376 231.075131 
L 462.449556 231.34569 
L 465.349914 231.469034 
L 469.700452 231.545405 
L 471.150632 231.751988 
L 472.600811 232.32715 
L 474.05099 233.518505 
L 476.951349 237.028969 
L 478.401528 237.768405 
L 479.851707 237.028969 
L 482.752066 233.518505 
L 484.202245 232.32715 
L 485.652425 231.751988 
L 487.102604 231.545405 
L 491.453142 231.475497 
L 498.704039 231.42035 
L 500.154218 231.257385 
L 501.604397 230.803664 
L 503.054577 229.862429 
L 505.954935 227.052496 
L 507.405115 226.350488 
L 508.855294 226.621906 
L 510.305473 227.400619 
L 511.755653 228.044908 
L 513.205832 228.477859 
L 514.656011 229.110316 
L 519.006549 232.170643 
L 520.456729 232.623518 
L 521.906908 232.700291 
L 523.357087 232.498295 
L 526.257446 231.835192 
L 529.157804 231.523681 
L 533.508342 231.420665 
L 534.958522 231.238477 
L 536.408701 230.664424 
L 537.85888 229.223427 
L 539.30906 226.321141 
L 540.759239 221.586654 
L 543.659598 208.733505 
L 545.109777 203.616739 
L 546.559956 201.405085 
L 548.010136 202.23834 
L 549.460315 205.148362 
L 550.910494 209.256246 
L 552.360674 214.386649 
L 555.261032 226.346819 
L 556.711212 231.166841 
L 558.161391 234.367988 
L 559.61157 236.579276 
L 561.06175 239.019777 
L 562.511929 242.503273 
L 563.962108 246.760923 
L 565.412288 250.585108 
L 566.862467 252.661848 
L 568.312646 252.59885 
L 572.663184 248.774952 
L 575.563543 246.231889 
L 577.013722 245.299831 
L 578.463901 244.56555 
L 579.914081 243.252139 
L 581.36426 240.920392 
L 584.264619 235.283992 
L 585.714798 233.55894 
L 587.164977 233.151587 
L 588.615157 234.169946 
L 590.065336 236.54695 
L 591.515515 240.026935 
L 592.965695 244.424561 
L 594.415874 249.962339 
L 595.866053 256.960139 
L 598.766412 273.35707 
L 600.216591 280.441349 
L 601.666771 284.909421 
L 603.11695 285.200628 
L 604.567129 280.533627 
L 606.017309 272.089498 
L 607.467488 262.856835 
L 608.917667 255.651792 
L 610.367847 251.060464 
L 611.818026 247.544108 
L 613.268205 243.561338 
L 614.718385 239.159132 
L 616.168564 235.428798 
L 617.618743 233.088878 
L 619.068923 231.992872 
L 620.519102 231.605512 
L 624.86964 231.26871 
L 626.319819 230.648251 
L 627.769998 228.88403 
L 629.220178 225.071023 
L 630.670357 218.881749 
L 632.120536 211.442893 
L 633.570716 204.981723 
L 635.020895 201.082849 
L 636.471074 199.586824 
L 636.471074 199.586824 
" clip-path="url(#pc6867ac8a5)" style="fill: none; stroke: #d62728; stroke-width: 2; stroke-linecap: square"/>
   </g>
   <g id="line2d_29">
    <path d="M 405.892562 231.039048 
L 407.342741 230.308895 
L 408.792921 228.504417 
L 410.2431 225.405094 
L 411.693279 221.577161 
L 413.143459 218.41391 
L 414.593638 217.061729 
L 416.043817 217.25041 
L 417.493997 217.608303 
L 418.944176 217.237179 
L 420.394355 216.673162 
L 421.844535 217.238626 
L 423.294714 219.611472 
L 424.744893 223.069627 
L 426.195073 226.035279 
L 427.645252 227.268707 
L 429.095431 226.636659 
L 431.99579 223.519524 
L 434.896148 221.520106 
L 436.346328 220.593432 
L 437.796507 220.396842 
L 439.246686 221.329525 
L 440.696866 222.515894 
L 442.147045 222.642995 
L 445.047404 220.53259 
L 446.497583 220.651031 
L 447.947762 221.950396 
L 453.74848 229.041207 
L 455.198659 230.269329 
L 456.648838 231.009523 
L 459.549197 231.787079 
L 460.999376 232.545519 
L 462.449556 234.058918 
L 465.349914 238.501039 
L 466.800094 239.436479 
L 468.250273 238.501039 
L 471.150632 234.06005 
L 472.600811 232.550753 
L 474.05099 231.811287 
L 476.951349 231.211884 
L 478.401528 230.612542 
L 479.851707 229.396984 
L 482.752066 225.766148 
L 484.202245 224.825788 
L 485.652425 225.063036 
L 487.102604 225.805919 
L 488.552783 226.214527 
L 490.002963 226.360189 
L 491.453142 227.095708 
L 492.903321 228.830177 
L 494.353501 230.873978 
L 495.80368 232.20175 
L 497.253859 232.495899 
L 501.604397 231.594505 
L 504.504756 231.482067 
L 508.855294 231.524913 
L 510.305473 231.68908 
L 511.755653 232.208226 
L 513.205832 233.476061 
L 514.656011 235.835328 
L 517.55637 242.131319 
L 519.006549 243.592224 
L 520.456729 242.989932 
L 521.906908 241.455664 
L 523.357087 240.90936 
L 524.807266 242.555904 
L 526.257446 246.223843 
L 527.707625 251.054408 
L 529.157804 256.648376 
L 530.607984 263.363052 
L 533.508342 278.553367 
L 534.958522 282.368427 
L 536.408701 280.308402 
L 537.85888 272.428542 
L 540.759239 249.891833 
L 542.209418 241.113081 
L 543.659598 235.671857 
L 545.109777 232.968328 
L 546.559956 231.869486 
L 548.010136 231.373861 
L 549.460315 230.69004 
L 550.910494 228.97648 
L 552.360674 225.368941 
L 553.810853 219.715574 
L 555.261032 213.429782 
L 556.711212 208.963051 
L 558.161391 207.734603 
L 561.06175 209.956169 
L 562.511929 209.77704 
L 563.962108 208.125905 
L 565.412288 205.135207 
L 566.862467 200.670529 
L 568.312646 195.357831 
L 569.762826 191.257046 
L 571.213005 190.028019 
L 572.663184 190.876473 
L 574.113363 192.048281 
L 575.563543 193.950974 
L 577.013722 198.713312 
L 578.463901 206.747211 
L 579.914081 215.487348 
L 581.36426 221.582427 
L 582.814439 223.163748 
L 584.264619 220.399602 
L 585.714798 215.246994 
L 587.164977 210.644509 
L 588.615157 208.63621 
L 590.065336 208.696763 
L 591.515515 208.547532 
L 592.965695 207.043085 
L 594.415874 205.806549 
L 595.866053 207.522696 
L 597.316233 212.883 
L 598.766412 219.831249 
L 600.216591 225.670918 
L 601.666771 229.187376 
L 603.11695 230.763649 
L 604.567129 231.294977 
L 606.017309 231.405859 
L 607.467488 231.324489 
L 608.917667 231.01651 
L 610.367847 230.333878 
L 611.818026 229.182231 
L 614.718385 225.94904 
L 616.168564 224.383597 
L 617.618743 223.380656 
L 619.068923 223.502325 
L 620.519102 224.986642 
L 626.319819 234.584499 
L 627.769998 236.366215 
L 629.220178 237.089387 
L 630.670357 236.440776 
L 633.570716 233.304864 
L 635.020895 232.249617 
L 636.471074 231.785352 
L 636.471074 231.785352 
" clip-path="url(#pc6867ac8a5)" style="fill: none; stroke: #ff7f0e; stroke-width: 2; stroke-linecap: square"/>
   </g>
   <g id="LineCollection_1">
    <path d="M 521.877904 300.940109 
L 521.877904 168.009758 
" clip-path="url(#pc6867ac8a5)" style="fill: none; stroke-dasharray: 7.4,3.2; stroke-dashoffset: 0; stroke: #000000; stroke-width: 2"/>
    <path d="M 536.379697 300.940109 
L 536.379697 168.009758 
" clip-path="url(#pc6867ac8a5)" style="fill: none; stroke-dasharray: 7.4,3.2; stroke-dashoffset: 0; stroke: #000000; stroke-width: 2"/>
    <path d="M 565.383284 300.940109 
L 565.383284 168.009758 
" clip-path="url(#pc6867ac8a5)" style="fill: none; stroke-dasharray: 7.4,3.2; stroke-dashoffset: 0; stroke: #000000; stroke-width: 2"/>
    <path d="M 623.390457 300.940109 
L 623.390457 168.009758 
" clip-path="url(#pc6867ac8a5)" style="fill: none; stroke-dasharray: 7.4,3.2; stroke-dashoffset: 0; stroke: #000000; stroke-width: 2"/>
   </g>
   <g id="patch_8">
    <path d="M 394.363636 333.490909 
L 394.363636 86.4 
" style="fill: none; stroke: #000000; stroke-width: 0.8; stroke-linejoin: miter; stroke-linecap: square"/>
   </g>
   <g id="patch_9">
    <path d="M 648 333.490909 
L 648 86.4 
" style="fill: none; stroke: #000000; stroke-width: 0.8; stroke-linejoin: miter; stroke-linecap: square"/>
   </g>
   <g id="patch_10">
    <path d="M 394.363636 333.490909 
L 648 333.490909 
" style="fill: none; stroke: #000000; stroke-width: 0.8; stroke-linejoin: miter; stroke-linecap: square"/>
   </g>
   <g id="patch_11">
    <path d="M 394.363636 86.4 
L 648 86.4 
" style="fill: none; stroke: #000000; stroke-width: 0.8; stroke-linejoin: miter; stroke-linecap: square"/>
   </g>
   <g id="text_26">
    <!-- unit_39 -->
    <g transform="translate(498.922756 80.4)scale(0.12 -0.12)">
     <defs>
      <path id="DejaVuSans-75" d="M 544 1381 
L 544 3500 
L 1119 3500 
L 1119 1403 
Q 1119 906 1312 657 
Q 1506 409 1894 409 
Q 2359 409 2629 706 
Q 2900 1003 2900 1516 
L 2900 3500 
L 3475 3500 
L 3475 0 
L 2900 0 
L 2900 538 
Q 2691 219 2414 64 
Q 2138 -91 1772 -91 
Q 1169 -91 856 284 
Q 544 659 544 1381 
z
M 1991 3584 
L 1991 3584 
z
" transform="scale(0.015625)"/>
      <path id="DejaVuSans-6e" d="M 3513 2113 
L 3513 0 
L 2938 0 
L 2938 2094 
Q 2938 2591 2744 2837 
Q 2550 3084 2163 3084 
Q 1697 3084 1428 2787 
Q 1159 2491 1159 1978 
L 1159 0 
L 581 0 
L 581 3500 
L 1159 3500 
L 1159 2956 
Q 1366 3272 1645 3428 
Q 1925 3584 2291 3584 
Q 2894 3584 3203 3211 
Q 3513 2838 3513 2113 
z
" transform="scale(0.015625)"/>
      <path id="DejaVuSans-69" d="M 603 3500 
L 1178 3500 
L 1178 0 
L 603 0 
L 603 3500 
z
M 603 4863 
L 1178 4863 
L 1178 4134 
L 603 4134 
L 603 4863 
z
" transform="scale(0.015625)"/>
      <path id="DejaVuSans-74" d="M 1172 4494 
L 1172 3500 
L 2356 3500 
L 2356 3053 
L 1172 3053 
L 1172 1153 
Q 1172 725 1289 603 
Q 1406 481 1766 481 
L 2356 481 
L 2356 0 
L 1766 0 
Q 1100 0 847 248 
Q 594 497 594 1153 
L 594 3053 
L 172 3053 
L 172 3500 
L 594 3500 
L 594 4494 
L 1172 4494 
z
" transform="scale(0.015625)"/>
      <path id="DejaVuSans-5f" d="M 3263 -1063 
L 3263 -1509 
L -63 -1509 
L -63 -1063 
L 3263 -1063 
z
" transform="scale(0.015625)"/>
      <path id="DejaVuSans-33" d="M 2597 2516 
Q 3050 2419 3304 2112 
Q 3559 1806 3559 1356 
Q 3559 666 3084 287 
Q 2609 -91 1734 -91 
Q 1441 -91 1130 -33 
Q 819 25 488 141 
L 488 750 
Q 750 597 1062 519 
Q 1375 441 1716 441 
Q 2309 441 2620 675 
Q 2931 909 2931 1356 
Q 2931 1769 2642 2001 
Q 2353 2234 1838 2234 
L 1294 2234 
L 1294 2753 
L 1863 2753 
Q 2328 2753 2575 2939 
Q 2822 3125 2822 3475 
Q 2822 3834 2567 4026 
Q 2313 4219 1838 4219 
Q 1578 4219 1281 4162 
Q 984 4106 628 3988 
L 628 4550 
Q 988 4650 1302 4700 
Q 1616 4750 1894 4750 
Q 2613 4750 3031 4423 
Q 3450 4097 3450 3541 
Q 3450 3153 3228 2886 
Q 3006 2619 2597 2516 
z
" transform="scale(0.015625)"/>
      <path id="DejaVuSans-39" d="M 703 97 
L 703 672 
Q 941 559 1184 500 
Q 1428 441 1663 441 
Q 2288 441 2617 861 
Q 2947 1281 2994 2138 
Q 2813 1869 2534 1725 
Q 2256 1581 1919 1581 
Q 1219 1581 811 2004 
Q 403 2428 403 3163 
Q 403 3881 828 4315 
Q 1253 4750 1959 4750 
Q 2769 4750 3195 4129 
Q 3622 3509 3622 2328 
Q 3622 1225 3098 567 
Q 2575 -91 1691 -91 
Q 1453 -91 1209 -44 
Q 966 3 703 97 
z
M 1959 2075 
Q 2384 2075 2632 2365 
Q 2881 2656 2881 3163 
Q 2881 3666 2632 3958 
Q 2384 4250 1959 4250 
Q 1534 4250 1286 3958 
Q 1038 3666 1038 3163 
Q 1038 2656 1286 2365 
Q 1534 2075 1959 2075 
z
" transform="scale(0.015625)"/>
     </defs>
     <use xlink:href="#DejaVuSans-75"/>
     <use xlink:href="#DejaVuSans-6e" x="63.378906"/>
     <use xlink:href="#DejaVuSans-69" x="126.757812"/>
     <use xlink:href="#DejaVuSans-74" x="154.541016"/>
     <use xlink:href="#DejaVuSans-5f" x="193.75"/>
     <use xlink:href="#DejaVuSans-33" x="243.75"/>
     <use xlink:href="#DejaVuSans-39" x="307.373047"/>
    </g>
   </g>
  </g>
  <g id="axes_3">
   <g id="patch_12">
    <path d="M 90 630 
L 343.636364 630 
L 343.636364 382.909091 
L 90 382.909091 
z
" style="fill: #ffffff"/>
   </g>
   <g id="matplotlib.axis_5">
    <g id="xtick_12">
     <g id="line2d_30">
      <g>
       <use xlink:href="#m34cd371ff9" x="90" y="630" style="stroke: #000000; stroke-width: 0.8"/>
      </g>
     </g>
     <g id="text_27">
      <!-- 0.0 -->
      <g transform="translate(82.048438 644.598437)scale(0.1 -0.1)">
       <use xlink:href="#DejaVuSans-30"/>
       <use xlink:href="#DejaVuSans-2e" x="63.623047"/>
       <use xlink:href="#DejaVuSans-30" x="95.410156"/>
      </g>
     </g>
    </g>
    <g id="xtick_13">
     <g id="line2d_31">
      <g>
       <use xlink:href="#m34cd371ff9" x="140.727273" y="630" style="stroke: #000000; stroke-width: 0.8"/>
      </g>
     </g>
     <g id="text_28">
      <!-- 0.2 -->
      <g transform="translate(132.77571 644.598437)scale(0.1 -0.1)">
       <use xlink:href="#DejaVuSans-30"/>
       <use xlink:href="#DejaVuSans-2e" x="63.623047"/>
       <use xlink:href="#DejaVuSans-32" x="95.410156"/>
      </g>
     </g>
    </g>
    <g id="xtick_14">
     <g id="line2d_32">
      <g>
       <use xlink:href="#m34cd371ff9" x="191.454545" y="630" style="stroke: #000000; stroke-width: 0.8"/>
      </g>
     </g>
     <g id="text_29">
      <!-- 0.4 -->
      <g transform="translate(183.502983 644.598437)scale(0.1 -0.1)">
       <use xlink:href="#DejaVuSans-30"/>
       <use xlink:href="#DejaVuSans-2e" x="63.623047"/>
       <use xlink:href="#DejaVuSans-34" x="95.410156"/>
      </g>
     </g>
    </g>
    <g id="xtick_15">
     <g id="line2d_33">
      <g>
       <use xlink:href="#m34cd371ff9" x="242.181818" y="630" style="stroke: #000000; stroke-width: 0.8"/>
      </g>
     </g>
     <g id="text_30">
      <!-- 0.6 -->
      <g transform="translate(234.230256 644.598437)scale(0.1 -0.1)">
       <use xlink:href="#DejaVuSans-30"/>
       <use xlink:href="#DejaVuSans-2e" x="63.623047"/>
       <use xlink:href="#DejaVuSans-36" x="95.410156"/>
      </g>
     </g>
    </g>
    <g id="xtick_16">
     <g id="line2d_34">
      <g>
       <use xlink:href="#m34cd371ff9" x="292.909091" y="630" style="stroke: #000000; stroke-width: 0.8"/>
      </g>
     </g>
     <g id="text_31">
      <!-- 0.8 -->
      <g transform="translate(284.957528 644.598437)scale(0.1 -0.1)">
       <use xlink:href="#DejaVuSans-30"/>
       <use xlink:href="#DejaVuSans-2e" x="63.623047"/>
       <use xlink:href="#DejaVuSans-38" x="95.410156"/>
      </g>
     </g>
    </g>
    <g id="xtick_17">
     <g id="line2d_35">
      <g>
       <use xlink:href="#m34cd371ff9" x="343.636364" y="630" style="stroke: #000000; stroke-width: 0.8"/>
      </g>
     </g>
     <g id="text_32">
      <!-- 1.0 -->
      <g transform="translate(335.684801 644.598437)scale(0.1 -0.1)">
       <use xlink:href="#DejaVuSans-31"/>
       <use xlink:href="#DejaVuSans-2e" x="63.623047"/>
       <use xlink:href="#DejaVuSans-30" x="95.410156"/>
      </g>
     </g>
    </g>
   </g>
   <g id="matplotlib.axis_6">
    <g id="ytick_15">
     <g id="line2d_36">
      <g>
       <use xlink:href="#mac320481f7" x="90" y="630" style="stroke: #000000; stroke-width: 0.8"/>
      </g>
     </g>
     <g id="text_33">
      <!-- 0.0 -->
      <g transform="translate(67.096875 633.799219)scale(0.1 -0.1)">
       <use xlink:href="#DejaVuSans-30"/>
       <use xlink:href="#DejaVuSans-2e" x="63.623047"/>
       <use xlink:href="#DejaVuSans-30" x="95.410156"/>
      </g>
     </g>
    </g>
    <g id="ytick_16">
     <g id="line2d_37">
      <g>
       <use xlink:href="#mac320481f7" x="90" y="580.581818" style="stroke: #000000; stroke-width: 0.8"/>
      </g>
     </g>
     <g id="text_34">
      <!-- 0.2 -->
      <g transform="translate(67.096875 584.381037)scale(0.1 -0.1)">
       <use xlink:href="#DejaVuSans-30"/>
       <use xlink:href="#DejaVuSans-2e" x="63.623047"/>
       <use xlink:href="#DejaVuSans-32" x="95.410156"/>
      </g>
     </g>
    </g>
    <g id="ytick_17">
     <g id="line2d_38">
      <g>
       <use xlink:href="#mac320481f7" x="90" y="531.163636" style="stroke: #000000; stroke-width: 0.8"/>
      </g>
     </g>
     <g id="text_35">
      <!-- 0.4 -->
      <g transform="translate(67.096875 534.962855)scale(0.1 -0.1)">
       <use xlink:href="#DejaVuSans-30"/>
       <use xlink:href="#DejaVuSans-2e" x="63.623047"/>
       <use xlink:href="#DejaVuSans-34" x="95.410156"/>
      </g>
     </g>
    </g>
    <g id="ytick_18">
     <g id="line2d_39">
      <g>
       <use xlink:href="#mac320481f7" x="90" y="481.745455" style="stroke: #000000; stroke-width: 0.8"/>
      </g>
     </g>
     <g id="text_36">
      <!-- 0.6 -->
      <g transform="translate(67.096875 485.544673)scale(0.1 -0.1)">
       <use xlink:href="#DejaVuSans-30"/>
       <use xlink:href="#DejaVuSans-2e" x="63.623047"/>
       <use xlink:href="#DejaVuSans-36" x="95.410156"/>
      </g>
     </g>
    </g>
    <g id="ytick_19">
     <g id="line2d_40">
      <g>
       <use xlink:href="#mac320481f7" x="90" y="432.327273" style="stroke: #000000; stroke-width: 0.8"/>
      </g>
     </g>
     <g id="text_37">
      <!-- 0.8 -->
      <g transform="translate(67.096875 436.126491)scale(0.1 -0.1)">
       <use xlink:href="#DejaVuSans-30"/>
       <use xlink:href="#DejaVuSans-2e" x="63.623047"/>
       <use xlink:href="#DejaVuSans-38" x="95.410156"/>
      </g>
     </g>
    </g>
    <g id="ytick_20">
     <g id="line2d_41">
      <g>
       <use xlink:href="#mac320481f7" x="90" y="382.909091" style="stroke: #000000; stroke-width: 0.8"/>
      </g>
     </g>
     <g id="text_38">
      <!-- 1.0 -->
      <g transform="translate(67.096875 386.70831)scale(0.1 -0.1)">
       <use xlink:href="#DejaVuSans-31"/>
       <use xlink:href="#DejaVuSans-2e" x="63.623047"/>
       <use xlink:href="#DejaVuSans-30" x="95.410156"/>
      </g>
     </g>
    </g>
   </g>
   <g id="patch_13">
    <path d="M 90 630 
L 90 382.909091 
" style="fill: none; stroke: #000000; stroke-width: 0.8; stroke-linejoin: miter; stroke-linecap: square"/>
   </g>
   <g id="patch_14">
    <path d="M 343.636364 630 
L 343.636364 382.909091 
" style="fill: none; stroke: #000000; stroke-width: 0.8; stroke-linejoin: miter; stroke-linecap: square"/>
   </g>
   <g id="patch_15">
    <path d="M 90 630 
L 343.636364 630 
" style="fill: none; stroke: #000000; stroke-width: 0.8; stroke-linejoin: miter; stroke-linecap: square"/>
   </g>
   <g id="patch_16">
    <path d="M 90 382.909091 
L 343.636364 382.909091 
" style="fill: none; stroke: #000000; stroke-width: 0.8; stroke-linejoin: miter; stroke-linecap: square"/>
   </g>
  </g>
  <g id="axes_4">
   <g id="patch_17">
    <path d="M 394.363636 630 
L 648 630 
L 648 382.909091 
L 394.363636 382.909091 
z
" style="fill: #ffffff"/>
   </g>
   <g id="matplotlib.axis_7">
    <g id="xtick_18">
     <g id="line2d_42">
      <g>
       <use xlink:href="#m34cd371ff9" x="405.863558" y="630" style="stroke: #000000; stroke-width: 0.8"/>
      </g>
     </g>
     <g id="text_39">
      <!-- 0 -->
      <g transform="translate(402.682308 644.598437)scale(0.1 -0.1)">
       <use xlink:href="#DejaVuSans-30"/>
      </g>
     </g>
    </g>
    <g id="xtick_19">
     <g id="line2d_43">
      <g>
       <use xlink:href="#m34cd371ff9" x="463.870731" y="630" style="stroke: #000000; stroke-width: 0.8"/>
      </g>
     </g>
     <g id="text_40">
      <!-- 2000 -->
      <g transform="translate(451.145731 644.598437)scale(0.1 -0.1)">
       <use xlink:href="#DejaVuSans-32"/>
       <use xlink:href="#DejaVuSans-30" x="63.623047"/>
       <use xlink:href="#DejaVuSans-30" x="127.246094"/>
       <use xlink:href="#DejaVuSans-30" x="190.869141"/>
      </g>
     </g>
    </g>
    <g id="xtick_20">
     <g id="line2d_44">
      <g>
       <use xlink:href="#m34cd371ff9" x="521.877904" y="630" style="stroke: #000000; stroke-width: 0.8"/>
      </g>
     </g>
     <g id="text_41">
      <!-- 4000 -->
      <g transform="translate(509.152904 644.598437)scale(0.1 -0.1)">
       <use xlink:href="#DejaVuSans-34"/>
       <use xlink:href="#DejaVuSans-30" x="63.623047"/>
       <use xlink:href="#DejaVuSans-30" x="127.246094"/>
       <use xlink:href="#DejaVuSans-30" x="190.869141"/>
      </g>
     </g>
    </g>
    <g id="xtick_21">
     <g id="line2d_45">
      <g>
       <use xlink:href="#m34cd371ff9" x="579.885077" y="630" style="stroke: #000000; stroke-width: 0.8"/>
      </g>
     </g>
     <g id="text_42">
      <!-- 6000 -->
      <g transform="translate(567.160077 644.598437)scale(0.1 -0.1)">
       <use xlink:href="#DejaVuSans-36"/>
       <use xlink:href="#DejaVuSans-30" x="63.623047"/>
       <use xlink:href="#DejaVuSans-30" x="127.246094"/>
       <use xlink:href="#DejaVuSans-30" x="190.869141"/>
      </g>
     </g>
    </g>
    <g id="xtick_22">
     <g id="line2d_46">
      <g>
       <use xlink:href="#m34cd371ff9" x="637.89225" y="630" style="stroke: #000000; stroke-width: 0.8"/>
      </g>
     </g>
     <g id="text_43">
      <!-- 8000 -->
      <g transform="translate(625.16725 644.598437)scale(0.1 -0.1)">
       <use xlink:href="#DejaVuSans-38"/>
       <use xlink:href="#DejaVuSans-30" x="63.623047"/>
       <use xlink:href="#DejaVuSans-30" x="127.246094"/>
       <use xlink:href="#DejaVuSans-30" x="190.869141"/>
      </g>
     </g>
    </g>
   </g>
   <g id="matplotlib.axis_8">
    <g id="ytick_21">
     <g id="line2d_47">
      <g>
       <use xlink:href="#mac320481f7" x="394.363636" y="630" style="stroke: #000000; stroke-width: 0.8"/>
      </g>
     </g>
     <g id="text_44">
      <!-- −2 -->
      <g transform="translate(372.621449 633.799219)scale(0.1 -0.1)">
       <use xlink:href="#DejaVuSans-2212"/>
       <use xlink:href="#DejaVuSans-32" x="83.789062"/>
      </g>
     </g>
    </g>
    <g id="ytick_22">
     <g id="line2d_48">
      <g>
       <use xlink:href="#mac320481f7" x="394.363636" y="597.523519" style="stroke: #000000; stroke-width: 0.8"/>
      </g>
     </g>
     <g id="text_45">
      <!-- −1 -->
      <g transform="translate(372.621449 601.322738)scale(0.1 -0.1)">
       <use xlink:href="#DejaVuSans-2212"/>
       <use xlink:href="#DejaVuSans-31" x="83.789062"/>
      </g>
     </g>
    </g>
    <g id="ytick_23">
     <g id="line2d_49">
      <g>
       <use xlink:href="#mac320481f7" x="394.363636" y="565.047038" style="stroke: #000000; stroke-width: 0.8"/>
      </g>
     </g>
     <g id="text_46">
      <!-- 0 -->
      <g transform="translate(381.001136 568.846257)scale(0.1 -0.1)">
       <use xlink:href="#DejaVuSans-30"/>
      </g>
     </g>
    </g>
    <g id="ytick_24">
     <g id="line2d_50">
      <g>
       <use xlink:href="#mac320481f7" x="394.363636" y="532.570557" style="stroke: #000000; stroke-width: 0.8"/>
      </g>
     </g>
     <g id="text_47">
      <!-- 1 -->
      <g transform="translate(381.001136 536.369776)scale(0.1 -0.1)">
       <use xlink:href="#DejaVuSans-31"/>
      </g>
     </g>
    </g>
    <g id="ytick_25">
     <g id="line2d_51">
      <g>
       <use xlink:href="#mac320481f7" x="394.363636" y="500.094077" style="stroke: #000000; stroke-width: 0.8"/>
      </g>
     </g>
     <g id="text_48">
      <!-- 2 -->
      <g transform="translate(381.001136 503.893295)scale(0.1 -0.1)">
       <use xlink:href="#DejaVuSans-32"/>
      </g>
     </g>
    </g>
    <g id="ytick_26">
     <g id="line2d_52">
      <g>
       <use xlink:href="#mac320481f7" x="394.363636" y="467.617596" style="stroke: #000000; stroke-width: 0.8"/>
      </g>
     </g>
     <g id="text_49">
      <!-- 3 -->
      <g transform="translate(381.001136 471.416814)scale(0.1 -0.1)">
       <use xlink:href="#DejaVuSans-33"/>
      </g>
     </g>
    </g>
    <g id="ytick_27">
     <g id="line2d_53">
      <g>
       <use xlink:href="#mac320481f7" x="394.363636" y="435.141115" style="stroke: #000000; stroke-width: 0.8"/>
      </g>
     </g>
     <g id="text_50">
      <!-- 4 -->
      <g transform="translate(381.001136 438.940334)scale(0.1 -0.1)">
       <use xlink:href="#DejaVuSans-34"/>
      </g>
     </g>
    </g>
    <g id="ytick_28">
     <g id="line2d_54">
      <g>
       <use xlink:href="#mac320481f7" x="394.363636" y="402.664634" style="stroke: #000000; stroke-width: 0.8"/>
      </g>
     </g>
     <g id="text_51">
      <!-- 5 -->
      <g transform="translate(381.001136 406.463853)scale(0.1 -0.1)">
       <defs>
        <path id="DejaVuSans-35" d="M 691 4666 
L 3169 4666 
L 3169 4134 
L 1269 4134 
L 1269 2991 
Q 1406 3038 1543 3061 
Q 1681 3084 1819 3084 
Q 2600 3084 3056 2656 
Q 3513 2228 3513 1497 
Q 3513 744 3044 326 
Q 2575 -91 1722 -91 
Q 1428 -91 1123 -41 
Q 819 9 494 109 
L 494 744 
Q 775 591 1075 516 
Q 1375 441 1709 441 
Q 2250 441 2565 725 
Q 2881 1009 2881 1497 
Q 2881 1984 2565 2268 
Q 2250 2553 1709 2553 
Q 1456 2553 1204 2497 
Q 953 2441 691 2322 
L 691 4666 
z
" transform="scale(0.015625)"/>
       </defs>
       <use xlink:href="#DejaVuSans-35"/>
      </g>
     </g>
    </g>
   </g>
   <g id="line2d_55">
    <path d="M 405.892562 467.743199 
L 407.342741 473.853431 
L 410.2431 539.728435 
L 411.693279 536.07607 
L 413.143459 523.966015 
L 414.593638 542.40072 
L 416.043817 556.151079 
L 417.493997 539.877855 
L 418.944176 516.720677 
L 420.394355 505.560827 
L 421.844535 502.320005 
L 423.294714 536.247234 
L 424.744893 593.624956 
L 426.195073 623.328644 
L 429.095431 561.731464 
L 430.54561 522.714865 
L 431.99579 498.355574 
L 433.445969 532.579887 
L 434.896148 518.593677 
L 436.346328 450.990162 
L 437.796507 567.383801 
L 438.702608 721 
M 440.971891 721 
L 442.147045 578.863408 
L 443.597224 574.158133 
L 444.258103 721 
M 449.194854 721 
L 449.397942 671.246174 
L 450.848121 639.414607 
L 451.333024 721 
M 457.870872 721 
L 458.099018 668.418302 
L 459.549197 382.909091 
L 460.999376 466.632111 
L 462.449556 568.043353 
L 465.180314 721 
M 465.63705 721 
L 466.800094 681.809317 
L 468.250273 600.864548 
L 469.700452 560.90091 
L 471.150632 533.465506 
L 472.600811 532.155332 
L 475.501169 557.664964 
L 476.951349 578.845179 
L 478.401528 602.574382 
L 479.851707 643.177275 
L 481.301887 646.57601 
L 482.752066 602.189198 
L 484.202245 607.107955 
L 485.652425 628.460078 
L 487.102604 623.427002 
L 488.552783 620.71202 
L 490.002963 567.635641 
L 491.453142 534.879243 
L 492.903321 587.949704 
L 494.353501 615.385069 
L 495.80368 601.370803 
L 497.253859 566.399162 
L 498.704039 553.896903 
L 500.154218 573.10332 
L 501.604397 511.656271 
L 503.054577 420.250885 
L 505.954935 495.492084 
L 507.405115 486.679712 
L 508.855294 521.68041 
L 510.305473 559.378608 
L 513.205832 579.78873 
L 514.656011 599.196634 
L 516.106191 602.698328 
L 519.006549 537.393621 
L 520.456729 549.106253 
L 521.906908 572.065105 
L 523.357087 579.326865 
L 524.807266 594.568442 
L 526.257446 597.427223 
L 527.707625 561.839657 
L 529.157804 549.306163 
L 530.607984 550.323617 
L 532.058163 507.03183 
L 533.508342 434.477587 
L 534.958522 414.044913 
L 537.85888 523.969728 
L 539.30906 541.813679 
L 540.759239 546.638202 
L 542.209418 556.606387 
L 543.659598 551.234392 
L 545.109777 479.225441 
L 546.559956 416.200712 
L 548.010136 446.609414 
L 549.460315 513.153308 
L 550.910494 553.492931 
L 552.360674 553.4711 
L 553.810853 567.564388 
L 555.261032 609.335089 
L 556.711212 631.69407 
L 558.161391 616.952254 
L 559.61157 608.474957 
L 561.06175 593.137997 
L 562.511929 568.254881 
L 565.412288 496.032048 
L 566.862467 513.836112 
L 568.312646 540.447879 
L 569.762826 527.014895 
L 571.213005 493.619721 
L 572.663184 469.017641 
L 574.113363 432.778683 
L 575.563543 413.933185 
L 577.013722 474.62831 
L 578.463901 508.668307 
L 579.914081 535.194524 
L 581.36426 552.739764 
L 582.814439 554.209893 
L 584.264619 550.23781 
L 585.714798 519.818523 
L 587.164977 494.97101 
L 588.615157 562.712686 
L 590.065336 657.657392 
L 591.515515 662.861222 
L 594.415874 593.228393 
L 595.866053 550.600964 
L 597.316233 503.361685 
L 598.766412 495.827854 
L 601.666771 415.553451 
L 603.11695 456.266515 
L 604.567129 512.595768 
L 606.017309 542.680454 
L 607.467488 554.024087 
L 608.917667 543.593838 
L 610.367847 491.455942 
L 611.818026 472.617176 
L 613.268205 537.355667 
L 614.718385 569.208499 
L 616.168564 554.783647 
L 617.618743 559.344234 
L 619.068923 579.965191 
L 621.969281 646.801585 
L 623.41946 666.090043 
L 624.86964 624.939457 
L 626.319819 579.79622 
L 627.769998 562.264983 
L 629.220178 563.560501 
L 630.670357 598.231935 
L 632.120536 651.845185 
L 635.020895 710.839817 
L 635.215281 721 
L 635.215281 721 
" clip-path="url(#pead29375c0)" style="fill: none; stroke: #1f77b4; stroke-width: 1.5; stroke-linecap: square"/>
   </g>
   <g id="patch_18">
    <path d="M 394.363636 630 
L 394.363636 382.909091 
" style="fill: none; stroke: #000000; stroke-width: 0.8; stroke-linejoin: miter; stroke-linecap: square"/>
   </g>
   <g id="patch_19">
    <path d="M 648 630 
L 648 382.909091 
" style="fill: none; stroke: #000000; stroke-width: 0.8; stroke-linejoin: miter; stroke-linecap: square"/>
   </g>
   <g id="patch_20">
    <path d="M 394.363636 630 
L 648 630 
" style="fill: none; stroke: #000000; stroke-width: 0.8; stroke-linejoin: miter; stroke-linecap: square"/>
   </g>
   <g id="patch_21">
    <path d="M 394.363636 382.909091 
L 648 382.909091 
" style="fill: none; stroke: #000000; stroke-width: 0.8; stroke-linejoin: miter; stroke-linecap: square"/>
   </g>
   <g id="text_52">
    <!-- explained variance -->
    <g transform="translate(464.181818 376.909091)scale(0.12 -0.12)">
     <defs>
      <path id="DejaVuSans-65" d="M 3597 1894 
L 3597 1613 
L 953 1613 
Q 991 1019 1311 708 
Q 1631 397 2203 397 
Q 2534 397 2845 478 
Q 3156 559 3463 722 
L 3463 178 
Q 3153 47 2828 -22 
Q 2503 -91 2169 -91 
Q 1331 -91 842 396 
Q 353 884 353 1716 
Q 353 2575 817 3079 
Q 1281 3584 2069 3584 
Q 2775 3584 3186 3129 
Q 3597 2675 3597 1894 
z
M 3022 2063 
Q 3016 2534 2758 2815 
Q 2500 3097 2075 3097 
Q 1594 3097 1305 2825 
Q 1016 2553 972 2059 
L 3022 2063 
z
" transform="scale(0.015625)"/>
      <path id="DejaVuSans-78" d="M 3513 3500 
L 2247 1797 
L 3578 0 
L 2900 0 
L 1881 1375 
L 863 0 
L 184 0 
L 1544 1831 
L 300 3500 
L 978 3500 
L 1906 2253 
L 2834 3500 
L 3513 3500 
z
" transform="scale(0.015625)"/>
      <path id="DejaVuSans-70" d="M 1159 525 
L 1159 -1331 
L 581 -1331 
L 581 3500 
L 1159 3500 
L 1159 2969 
Q 1341 3281 1617 3432 
Q 1894 3584 2278 3584 
Q 2916 3584 3314 3078 
Q 3713 2572 3713 1747 
Q 3713 922 3314 415 
Q 2916 -91 2278 -91 
Q 1894 -91 1617 61 
Q 1341 213 1159 525 
z
M 3116 1747 
Q 3116 2381 2855 2742 
Q 2594 3103 2138 3103 
Q 1681 3103 1420 2742 
Q 1159 2381 1159 1747 
Q 1159 1113 1420 752 
Q 1681 391 2138 391 
Q 2594 391 2855 752 
Q 3116 1113 3116 1747 
z
" transform="scale(0.015625)"/>
      <path id="DejaVuSans-6c" d="M 603 4863 
L 1178 4863 
L 1178 0 
L 603 0 
L 603 4863 
z
" transform="scale(0.015625)"/>
      <path id="DejaVuSans-61" d="M 2194 1759 
Q 1497 1759 1228 1600 
Q 959 1441 959 1056 
Q 959 750 1161 570 
Q 1363 391 1709 391 
Q 2188 391 2477 730 
Q 2766 1069 2766 1631 
L 2766 1759 
L 2194 1759 
z
M 3341 1997 
L 3341 0 
L 2766 0 
L 2766 531 
Q 2569 213 2275 61 
Q 1981 -91 1556 -91 
Q 1019 -91 701 211 
Q 384 513 384 1019 
Q 384 1609 779 1909 
Q 1175 2209 1959 2209 
L 2766 2209 
L 2766 2266 
Q 2766 2663 2505 2880 
Q 2244 3097 1772 3097 
Q 1472 3097 1187 3025 
Q 903 2953 641 2809 
L 641 3341 
Q 956 3463 1253 3523 
Q 1550 3584 1831 3584 
Q 2591 3584 2966 3190 
Q 3341 2797 3341 1997 
z
" transform="scale(0.015625)"/>
      <path id="DejaVuSans-64" d="M 2906 2969 
L 2906 4863 
L 3481 4863 
L 3481 0 
L 2906 0 
L 2906 525 
Q 2725 213 2448 61 
Q 2172 -91 1784 -91 
Q 1150 -91 751 415 
Q 353 922 353 1747 
Q 353 2572 751 3078 
Q 1150 3584 1784 3584 
Q 2172 3584 2448 3432 
Q 2725 3281 2906 2969 
z
M 947 1747 
Q 947 1113 1208 752 
Q 1469 391 1925 391 
Q 2381 391 2643 752 
Q 2906 1113 2906 1747 
Q 2906 2381 2643 2742 
Q 2381 3103 1925 3103 
Q 1469 3103 1208 2742 
Q 947 2381 947 1747 
z
" transform="scale(0.015625)"/>
      <path id="DejaVuSans-20" transform="scale(0.015625)"/>
      <path id="DejaVuSans-76" d="M 191 3500 
L 800 3500 
L 1894 563 
L 2988 3500 
L 3597 3500 
L 2284 0 
L 1503 0 
L 191 3500 
z
" transform="scale(0.015625)"/>
      <path id="DejaVuSans-72" d="M 2631 2963 
Q 2534 3019 2420 3045 
Q 2306 3072 2169 3072 
Q 1681 3072 1420 2755 
Q 1159 2438 1159 1844 
L 1159 0 
L 581 0 
L 581 3500 
L 1159 3500 
L 1159 2956 
Q 1341 3275 1631 3429 
Q 1922 3584 2338 3584 
Q 2397 3584 2469 3576 
Q 2541 3569 2628 3553 
L 2631 2963 
z
" transform="scale(0.015625)"/>
      <path id="DejaVuSans-63" d="M 3122 3366 
L 3122 2828 
Q 2878 2963 2633 3030 
Q 2388 3097 2138 3097 
Q 1578 3097 1268 2742 
Q 959 2388 959 1747 
Q 959 1106 1268 751 
Q 1578 397 2138 397 
Q 2388 397 2633 464 
Q 2878 531 3122 666 
L 3122 134 
Q 2881 22 2623 -34 
Q 2366 -91 2075 -91 
Q 1284 -91 818 406 
Q 353 903 353 1747 
Q 353 2603 823 3093 
Q 1294 3584 2113 3584 
Q 2378 3584 2631 3529 
Q 2884 3475 3122 3366 
z
" transform="scale(0.015625)"/>
     </defs>
     <use xlink:href="#DejaVuSans-65"/>
     <use xlink:href="#DejaVuSans-78" x="59.773438"/>
     <use xlink:href="#DejaVuSans-70" x="118.953125"/>
     <use xlink:href="#DejaVuSans-6c" x="182.429688"/>
     <use xlink:href="#DejaVuSans-61" x="210.212891"/>
     <use xlink:href="#DejaVuSans-69" x="271.492188"/>
     <use xlink:href="#DejaVuSans-6e" x="299.275391"/>
     <use xlink:href="#DejaVuSans-65" x="362.654297"/>
     <use xlink:href="#DejaVuSans-64" x="424.177734"/>
     <use xlink:href="#DejaVuSans-20" x="487.654297"/>
     <use xlink:href="#DejaVuSans-76" x="519.441406"/>
     <use xlink:href="#DejaVuSans-61" x="578.621094"/>
     <use xlink:href="#DejaVuSans-72" x="639.900391"/>
     <use xlink:href="#DejaVuSans-69" x="681.013672"/>
     <use xlink:href="#DejaVuSans-61" x="708.796875"/>
     <use xlink:href="#DejaVuSans-6e" x="770.076172"/>
     <use xlink:href="#DejaVuSans-63" x="833.455078"/>
     <use xlink:href="#DejaVuSans-65" x="888.435547"/>
    </g>
   </g>
  </g>
 </g>
 <defs>
  <clipPath id="pc6867ac8a5">
   <rect x="394.363636" y="86.4" width="253.636364" height="247.090909"/>
  </clipPath>
  <clipPath id="pead29375c0">
   <rect x="394.363636" y="382.909091" width="253.636364" height="247.090909"/>
  </clipPath>
 </defs>
</svg>
