<?xml version="1.0" encoding="utf-8" standalone="no"?>
<!DOCTYPE svg PUBLIC "-//W3C//DTD SVG 1.1//EN"
  "http://www.w3.org/Graphics/SVG/1.1/DTD/svg11.dtd">
<svg xmlns:xlink="http://www.w3.org/1999/xlink" width="720pt" height="720pt" viewBox="0 0 720 720" xmlns="http://www.w3.org/2000/svg" version="1.1">
 <metadata>
  <rdf:RDF xmlns:dc="http://purl.org/dc/elements/1.1/" xmlns:cc="http://creativecommons.org/ns#" xmlns:rdf="http://www.w3.org/1999/02/22-rdf-syntax-ns#">
   <cc:Work>
    <dc:type rdf:resource="http://purl.org/dc/dcmitype/StillImage"/>
    <dc:date>2023-12-19T18:23:37.718925</dc:date>
    <dc:format>image/svg+xml</dc:format>
    <dc:creator>
     <cc:Agent>
      <dc:title>Matplotlib v3.5.2, https://matplotlib.org/</dc:title>
     </cc:Agent>
    </dc:creator>
   </cc:Work>
  </rdf:RDF>
 </metadata>
 <defs>
  <style type="text/css">*{stroke-linejoin: round; stroke-linecap: butt}</style>
 </defs>
 <g id="figure_1">
  <g id="patch_1">
   <path d="M 0 720 
L 720 720 
L 720 0 
L 0 0 
z
" style="fill: #ffffff"/>
  </g>
  <g id="axes_1">
   <g id="patch_2">
    <path d="M 90 333.490909 
L 343.636364 333.490909 
L 343.636364 86.4 
L 90 86.4 
z
" style="fill: #ffffff"/>
   </g>
   <g id="matplotlib.axis_1">
    <g id="xtick_1">
     <g id="line2d_1">
      <defs>
       <path id="m5fa22c3ac2" d="M 0 0 
L 0 3.5 
" style="stroke: #000000; stroke-width: 0.8"/>
      </defs>
      <g>
       <use xlink:href="#m5fa22c3ac2" x="90" y="333.490909" style="stroke: #000000; stroke-width: 0.8"/>
      </g>
     </g>
     <g id="text_1">
      <!-- 0.0 -->
      <g transform="translate(82.048438 348.089347)scale(0.1 -0.1)">
       <defs>
        <path id="DejaVuSans-30" d="M 2034 4250 
Q 1547 4250 1301 3770 
Q 1056 3291 1056 2328 
Q 1056 1369 1301 889 
Q 1547 409 2034 409 
Q 2525 409 2770 889 
Q 3016 1369 3016 2328 
Q 3016 3291 2770 3770 
Q 2525 4250 2034 4250 
z
M 2034 4750 
Q 2819 4750 3233 4129 
Q 3647 3509 3647 2328 
Q 3647 1150 3233 529 
Q 2819 -91 2034 -91 
Q 1250 -91 836 529 
Q 422 1150 422 2328 
Q 422 3509 836 4129 
Q 1250 4750 2034 4750 
z
" transform="scale(0.015625)"/>
        <path id="DejaVuSans-2e" d="M 684 794 
L 1344 794 
L 1344 0 
L 684 0 
L 684 794 
z
" transform="scale(0.015625)"/>
       </defs>
       <use xlink:href="#DejaVuSans-30"/>
       <use xlink:href="#DejaVuSans-2e" x="63.623047"/>
       <use xlink:href="#DejaVuSans-30" x="95.410156"/>
      </g>
     </g>
    </g>
    <g id="xtick_2">
     <g id="line2d_2">
      <g>
       <use xlink:href="#m5fa22c3ac2" x="140.727273" y="333.490909" style="stroke: #000000; stroke-width: 0.8"/>
      </g>
     </g>
     <g id="text_2">
      <!-- 0.2 -->
      <g transform="translate(132.77571 348.089347)scale(0.1 -0.1)">
       <defs>
        <path id="DejaVuSans-32" d="M 1228 531 
L 3431 531 
L 3431 0 
L 469 0 
L 469 531 
Q 828 903 1448 1529 
Q 2069 2156 2228 2338 
Q 2531 2678 2651 2914 
Q 2772 3150 2772 3378 
Q 2772 3750 2511 3984 
Q 2250 4219 1831 4219 
Q 1534 4219 1204 4116 
Q 875 4013 500 3803 
L 500 4441 
Q 881 4594 1212 4672 
Q 1544 4750 1819 4750 
Q 2544 4750 2975 4387 
Q 3406 4025 3406 3419 
Q 3406 3131 3298 2873 
Q 3191 2616 2906 2266 
Q 2828 2175 2409 1742 
Q 1991 1309 1228 531 
z
" transform="scale(0.015625)"/>
       </defs>
       <use xlink:href="#DejaVuSans-30"/>
       <use xlink:href="#DejaVuSans-2e" x="63.623047"/>
       <use xlink:href="#DejaVuSans-32" x="95.410156"/>
      </g>
     </g>
    </g>
    <g id="xtick_3">
     <g id="line2d_3">
      <g>
       <use xlink:href="#m5fa22c3ac2" x="191.454545" y="333.490909" style="stroke: #000000; stroke-width: 0.8"/>
      </g>
     </g>
     <g id="text_3">
      <!-- 0.4 -->
      <g transform="translate(183.502983 348.089347)scale(0.1 -0.1)">
       <defs>
        <path id="DejaVuSans-34" d="M 2419 4116 
L 825 1625 
L 2419 1625 
L 2419 4116 
z
M 2253 4666 
L 3047 4666 
L 3047 1625 
L 3713 1625 
L 3713 1100 
L 3047 1100 
L 3047 0 
L 2419 0 
L 2419 1100 
L 313 1100 
L 313 1709 
L 2253 4666 
z
" transform="scale(0.015625)"/>
       </defs>
       <use xlink:href="#DejaVuSans-30"/>
       <use xlink:href="#DejaVuSans-2e" x="63.623047"/>
       <use xlink:href="#DejaVuSans-34" x="95.410156"/>
      </g>
     </g>
    </g>
    <g id="xtick_4">
     <g id="line2d_4">
      <g>
       <use xlink:href="#m5fa22c3ac2" x="242.181818" y="333.490909" style="stroke: #000000; stroke-width: 0.8"/>
      </g>
     </g>
     <g id="text_4">
      <!-- 0.6 -->
      <g transform="translate(234.230256 348.089347)scale(0.1 -0.1)">
       <defs>
        <path id="DejaVuSans-36" d="M 2113 2584 
Q 1688 2584 1439 2293 
Q 1191 2003 1191 1497 
Q 1191 994 1439 701 
Q 1688 409 2113 409 
Q 2538 409 2786 701 
Q 3034 994 3034 1497 
Q 3034 2003 2786 2293 
Q 2538 2584 2113 2584 
z
M 3366 4563 
L 3366 3988 
Q 3128 4100 2886 4159 
Q 2644 4219 2406 4219 
Q 1781 4219 1451 3797 
Q 1122 3375 1075 2522 
Q 1259 2794 1537 2939 
Q 1816 3084 2150 3084 
Q 2853 3084 3261 2657 
Q 3669 2231 3669 1497 
Q 3669 778 3244 343 
Q 2819 -91 2113 -91 
Q 1303 -91 875 529 
Q 447 1150 447 2328 
Q 447 3434 972 4092 
Q 1497 4750 2381 4750 
Q 2619 4750 2861 4703 
Q 3103 4656 3366 4563 
z
" transform="scale(0.015625)"/>
       </defs>
       <use xlink:href="#DejaVuSans-30"/>
       <use xlink:href="#DejaVuSans-2e" x="63.623047"/>
       <use xlink:href="#DejaVuSans-36" x="95.410156"/>
      </g>
     </g>
    </g>
    <g id="xtick_5">
     <g id="line2d_5">
      <g>
       <use xlink:href="#m5fa22c3ac2" x="292.909091" y="333.490909" style="stroke: #000000; stroke-width: 0.8"/>
      </g>
     </g>
     <g id="text_5">
      <!-- 0.8 -->
      <g transform="translate(284.957528 348.089347)scale(0.1 -0.1)">
       <defs>
        <path id="DejaVuSans-38" d="M 2034 2216 
Q 1584 2216 1326 1975 
Q 1069 1734 1069 1313 
Q 1069 891 1326 650 
Q 1584 409 2034 409 
Q 2484 409 2743 651 
Q 3003 894 3003 1313 
Q 3003 1734 2745 1975 
Q 2488 2216 2034 2216 
z
M 1403 2484 
Q 997 2584 770 2862 
Q 544 3141 544 3541 
Q 544 4100 942 4425 
Q 1341 4750 2034 4750 
Q 2731 4750 3128 4425 
Q 3525 4100 3525 3541 
Q 3525 3141 3298 2862 
Q 3072 2584 2669 2484 
Q 3125 2378 3379 2068 
Q 3634 1759 3634 1313 
Q 3634 634 3220 271 
Q 2806 -91 2034 -91 
Q 1263 -91 848 271 
Q 434 634 434 1313 
Q 434 1759 690 2068 
Q 947 2378 1403 2484 
z
M 1172 3481 
Q 1172 3119 1398 2916 
Q 1625 2713 2034 2713 
Q 2441 2713 2670 2916 
Q 2900 3119 2900 3481 
Q 2900 3844 2670 4047 
Q 2441 4250 2034 4250 
Q 1625 4250 1398 4047 
Q 1172 3844 1172 3481 
z
" transform="scale(0.015625)"/>
       </defs>
       <use xlink:href="#DejaVuSans-30"/>
       <use xlink:href="#DejaVuSans-2e" x="63.623047"/>
       <use xlink:href="#DejaVuSans-38" x="95.410156"/>
      </g>
     </g>
    </g>
    <g id="xtick_6">
     <g id="line2d_6">
      <g>
       <use xlink:href="#m5fa22c3ac2" x="343.636364" y="333.490909" style="stroke: #000000; stroke-width: 0.8"/>
      </g>
     </g>
     <g id="text_6">
      <!-- 1.0 -->
      <g transform="translate(335.684801 348.089347)scale(0.1 -0.1)">
       <defs>
        <path id="DejaVuSans-31" d="M 794 531 
L 1825 531 
L 1825 4091 
L 703 3866 
L 703 4441 
L 1819 4666 
L 2450 4666 
L 2450 531 
L 3481 531 
L 3481 0 
L 794 0 
L 794 531 
z
" transform="scale(0.015625)"/>
       </defs>
       <use xlink:href="#DejaVuSans-31"/>
       <use xlink:href="#DejaVuSans-2e" x="63.623047"/>
       <use xlink:href="#DejaVuSans-30" x="95.410156"/>
      </g>
     </g>
    </g>
   </g>
   <g id="matplotlib.axis_2">
    <g id="ytick_1">
     <g id="line2d_7">
      <defs>
       <path id="mb04358c03d" d="M 0 0 
L -3.5 0 
" style="stroke: #000000; stroke-width: 0.8"/>
      </defs>
      <g>
       <use xlink:href="#mb04358c03d" x="90" y="333.490909" style="stroke: #000000; stroke-width: 0.8"/>
      </g>
     </g>
     <g id="text_7">
      <!-- 0.0 -->
      <g transform="translate(67.096875 337.290128)scale(0.1 -0.1)">
       <use xlink:href="#DejaVuSans-30"/>
       <use xlink:href="#DejaVuSans-2e" x="63.623047"/>
       <use xlink:href="#DejaVuSans-30" x="95.410156"/>
      </g>
     </g>
    </g>
    <g id="ytick_2">
     <g id="line2d_8">
      <g>
       <use xlink:href="#mb04358c03d" x="90" y="284.072727" style="stroke: #000000; stroke-width: 0.8"/>
      </g>
     </g>
     <g id="text_8">
      <!-- 0.2 -->
      <g transform="translate(67.096875 287.871946)scale(0.1 -0.1)">
       <use xlink:href="#DejaVuSans-30"/>
       <use xlink:href="#DejaVuSans-2e" x="63.623047"/>
       <use xlink:href="#DejaVuSans-32" x="95.410156"/>
      </g>
     </g>
    </g>
    <g id="ytick_3">
     <g id="line2d_9">
      <g>
       <use xlink:href="#mb04358c03d" x="90" y="234.654545" style="stroke: #000000; stroke-width: 0.8"/>
      </g>
     </g>
     <g id="text_9">
      <!-- 0.4 -->
      <g transform="translate(67.096875 238.453764)scale(0.1 -0.1)">
       <use xlink:href="#DejaVuSans-30"/>
       <use xlink:href="#DejaVuSans-2e" x="63.623047"/>
       <use xlink:href="#DejaVuSans-34" x="95.410156"/>
      </g>
     </g>
    </g>
    <g id="ytick_4">
     <g id="line2d_10">
      <g>
       <use xlink:href="#mb04358c03d" x="90" y="185.236364" style="stroke: #000000; stroke-width: 0.8"/>
      </g>
     </g>
     <g id="text_10">
      <!-- 0.6 -->
      <g transform="translate(67.096875 189.035582)scale(0.1 -0.1)">
       <use xlink:href="#DejaVuSans-30"/>
       <use xlink:href="#DejaVuSans-2e" x="63.623047"/>
       <use xlink:href="#DejaVuSans-36" x="95.410156"/>
      </g>
     </g>
    </g>
    <g id="ytick_5">
     <g id="line2d_11">
      <g>
       <use xlink:href="#mb04358c03d" x="90" y="135.818182" style="stroke: #000000; stroke-width: 0.8"/>
      </g>
     </g>
     <g id="text_11">
      <!-- 0.8 -->
      <g transform="translate(67.096875 139.617401)scale(0.1 -0.1)">
       <use xlink:href="#DejaVuSans-30"/>
       <use xlink:href="#DejaVuSans-2e" x="63.623047"/>
       <use xlink:href="#DejaVuSans-38" x="95.410156"/>
      </g>
     </g>
    </g>
    <g id="ytick_6">
     <g id="line2d_12">
      <g>
       <use xlink:href="#mb04358c03d" x="90" y="86.4" style="stroke: #000000; stroke-width: 0.8"/>
      </g>
     </g>
     <g id="text_12">
      <!-- 1.0 -->
      <g transform="translate(67.096875 90.199219)scale(0.1 -0.1)">
       <use xlink:href="#DejaVuSans-31"/>
       <use xlink:href="#DejaVuSans-2e" x="63.623047"/>
       <use xlink:href="#DejaVuSans-30" x="95.410156"/>
      </g>
     </g>
    </g>
   </g>
   <g id="patch_3">
    <path d="M 90 333.490909 
L 90 86.4 
" style="fill: none; stroke: #000000; stroke-width: 0.8; stroke-linejoin: miter; stroke-linecap: square"/>
   </g>
   <g id="patch_4">
    <path d="M 343.636364 333.490909 
L 343.636364 86.4 
" style="fill: none; stroke: #000000; stroke-width: 0.8; stroke-linejoin: miter; stroke-linecap: square"/>
   </g>
   <g id="patch_5">
    <path d="M 90 333.490909 
L 343.636364 333.490909 
" style="fill: none; stroke: #000000; stroke-width: 0.8; stroke-linejoin: miter; stroke-linecap: square"/>
   </g>
   <g id="patch_6">
    <path d="M 90 86.4 
L 343.636364 86.4 
" style="fill: none; stroke: #000000; stroke-width: 0.8; stroke-linejoin: miter; stroke-linecap: square"/>
   </g>
  </g>
  <g id="axes_2">
   <g id="patch_7">
    <path d="M 394.363636 333.490909 
L 648 333.490909 
L 648 86.4 
L 394.363636 86.4 
z
" style="fill: #ffffff"/>
   </g>
   <g id="PolyCollection_1">
    <defs>
     <path id="me13f3c2775" d="M 405.892562 -621.535061 
L 405.892562 -587.905035 
L 407.342741 -580.828197 
L 408.792921 -596.650417 
L 410.2431 -570.64823 
L 411.693279 -568.839961 
L 413.143459 -572.746161 
L 414.593638 -551.107501 
L 416.043817 -541.016752 
L 417.493997 -535.894488 
L 418.944176 -524.347404 
L 420.394355 -497.105074 
L 421.844535 -496.817543 
L 423.294714 -499.432816 
L 424.744893 -521.136298 
L 426.195073 -517.293658 
L 427.645252 -525.197987 
L 429.095431 -536.464246 
L 430.54561 -542.857989 
L 431.99579 -545.886319 
L 433.445969 -547.545235 
L 434.896148 -548.046249 
L 436.346328 -539.494538 
L 437.796507 -539.886817 
L 439.246686 -548.028361 
L 440.696866 -549.498199 
L 442.147045 -551.767514 
L 443.597224 -553.914734 
L 445.047404 -544.377129 
L 446.497583 -553.575929 
L 447.947762 -550.46429 
L 449.397942 -545.912726 
L 450.848121 -540.632134 
L 452.2983 -535.887236 
L 453.74848 -517.106172 
L 455.198659 -531.689227 
L 456.648838 -528.889559 
L 458.099018 -521.550446 
L 459.549197 -510.553208 
L 460.999376 -488.591966 
L 462.449556 -484.738974 
L 463.899735 -510.238019 
L 465.349914 -513.199525 
L 466.800094 -541.56485 
L 468.250273 -555.04911 
L 469.700452 -543.338489 
L 471.150632 -569.889244 
L 472.600811 -553.13237 
L 474.05099 -570.441771 
L 475.501169 -551.37622 
L 476.951349 -544.298906 
L 478.401528 -543.162609 
L 479.851707 -529.63903 
L 481.301887 -502.535047 
L 482.752066 -515.623624 
L 484.202245 -505.970706 
L 485.652425 -508.738712 
L 487.102604 -522.91026 
L 488.552783 -517.341765 
L 490.002963 -524.790036 
L 491.453142 -537.194749 
L 492.903321 -542.020118 
L 494.353501 -545.402299 
L 495.80368 -547.229303 
L 497.253859 -547.995681 
L 498.704039 -548.262399 
L 500.154218 -548.422852 
L 501.604397 -548.80544 
L 503.054577 -549.859364 
L 504.504756 -552.084918 
L 505.954935 -555.456944 
L 507.405115 -544.3146 
L 508.855294 -542.642864 
L 510.305473 -548.808851 
L 511.755653 -552.622873 
L 513.205832 -540.735479 
L 514.656011 -545.032215 
L 516.106191 -543.806554 
L 517.55637 -543.168145 
L 519.006549 -535.949525 
L 520.456729 -538.564689 
L 521.906908 -535.384185 
L 523.357087 -530.895142 
L 524.807266 -516.574421 
L 526.257446 -524.964441 
L 527.707625 -503.377277 
L 529.157804 -515.821542 
L 530.607984 -495.708487 
L 532.058163 -506.113388 
L 533.508342 -525.667055 
L 534.958522 -527.883822 
L 536.408701 -537.607948 
L 537.85888 -540.00819 
L 539.30906 -533.357064 
L 540.759239 -542.823409 
L 542.209418 -544.704153 
L 543.659598 -546.4159 
L 545.109777 -547.528682 
L 546.559956 -548.059783 
L 548.010136 -548.249372 
L 549.460315 -548.297771 
L 550.910494 -548.293478 
L 552.360674 -548.24027 
L 553.810853 -548.086738 
L 555.261032 -547.768722 
L 556.711212 -547.295221 
L 558.161391 -546.831675 
L 559.61157 -535.736025 
L 561.06175 -546.832363 
L 562.511929 -547.297843 
L 563.962108 -547.776141 
L 565.412288 -548.101982 
L 566.862467 -548.263637 
L 568.312646 -548.328029 
L 569.762826 -548.027584 
L 571.213005 -548.533129 
L 572.663184 -546.670887 
L 574.113363 -549.704896 
L 575.563543 -547.953734 
L 577.013722 -554.218941 
L 578.463901 -558.407984 
L 579.914081 -562.46674 
L 581.36426 -549.981653 
L 582.814439 -561.960955 
L 584.264619 -557.160678 
L 585.714798 -551.943013 
L 587.164977 -547.989899 
L 588.615157 -542.447066 
L 590.065336 -539.785023 
L 591.515515 -547.589758 
L 592.965695 -550.709741 
L 594.415874 -548.667957 
L 595.866053 -555.14437 
L 597.316233 -548.877091 
L 598.766412 -555.839916 
L 600.216591 -550.934851 
L 601.666771 -550.016964 
L 603.11695 -544.046171 
L 604.567129 -547.528003 
L 606.017309 -547.625255 
L 607.467488 -546.330906 
L 608.917667 -548.858583 
L 610.367847 -549.101242 
L 611.818026 -543.277833 
L 613.268205 -544.843433 
L 614.718385 -545.855336 
L 616.168564 -537.640948 
L 617.618743 -541.599472 
L 619.068923 -545.230581 
L 620.519102 -552.046327 
L 621.969281 -551.062123 
L 623.41946 -549.768579 
L 624.86964 -548.890858 
L 626.319819 -548.489054 
L 627.769998 -548.355161 
L 629.220178 -548.32208 
L 630.670357 -548.314822 
L 632.120536 -548.314075 
L 633.570716 -548.314075 
L 635.020895 -548.314075 
L 636.471074 -548.314075 
L 636.471074 -548.314075 
L 636.471074 -548.314075 
L 635.020895 -548.314075 
L 633.570716 -548.314075 
L 632.120536 -548.314075 
L 630.670357 -548.314822 
L 629.220178 -548.32208 
L 627.769998 -548.355161 
L 626.319819 -548.489054 
L 624.86964 -548.890858 
L 623.41946 -549.768579 
L 621.969281 -551.062123 
L 620.519102 -552.046327 
L 619.068923 -557.942036 
L 617.618743 -557.174687 
L 616.168564 -556.044175 
L 614.718385 -545.855336 
L 613.268205 -548.759845 
L 611.818026 -553.40425 
L 610.367847 -549.101242 
L 608.917667 -548.858583 
L 607.467488 -550.028609 
L 606.017309 -547.625255 
L 604.567129 -547.528003 
L 603.11695 -552.381929 
L 601.666771 -550.016964 
L 600.216591 -554.791801 
L 598.766412 -555.839916 
L 597.316233 -566.118059 
L 595.866053 -558.614117 
L 594.415874 -559.799477 
L 592.965695 -550.709741 
L 591.515515 -547.589758 
L 590.065336 -551.870217 
L 588.615157 -549.389054 
L 587.164977 -547.989899 
L 585.714798 -551.943013 
L 584.264619 -557.160678 
L 582.814439 -561.960955 
L 581.36426 -578.166421 
L 579.914081 -562.46674 
L 578.463901 -558.407984 
L 577.013722 -554.218941 
L 575.563543 -554.658638 
L 574.113363 -549.704896 
L 572.663184 -551.145241 
L 571.213005 -548.533129 
L 569.762826 -548.739509 
L 568.312646 -548.328029 
L 566.862467 -548.263637 
L 565.412288 -548.101982 
L 563.962108 -547.776141 
L 562.511929 -547.297843 
L 561.06175 -546.832363 
L 559.61157 -557.532822 
L 558.161391 -546.831675 
L 556.711212 -547.295221 
L 555.261032 -547.768722 
L 553.810853 -548.086738 
L 552.360674 -548.24027 
L 550.910494 -548.293478 
L 549.460315 -548.297771 
L 548.010136 -548.249372 
L 546.559956 -548.059783 
L 545.109777 -547.528682 
L 543.659598 -546.4159 
L 542.209418 -544.704153 
L 540.759239 -542.823409 
L 539.30906 -549.28131 
L 537.85888 -540.00819 
L 536.408701 -537.607948 
L 534.958522 -537.607141 
L 533.508342 -525.667055 
L 532.058163 -531.489212 
L 530.607984 -534.546747 
L 529.157804 -515.821542 
L 527.707625 -536.098628 
L 526.257446 -524.964441 
L 524.807266 -543.858118 
L 523.357087 -538.806425 
L 521.906908 -541.506865 
L 520.456729 -543.147277 
L 519.006549 -548.678919 
L 517.55637 -543.168145 
L 516.106191 -543.806554 
L 514.656011 -545.032215 
L 513.205832 -555.109103 
L 511.755653 -552.622873 
L 510.305473 -566.029665 
L 508.855294 -576.966952 
L 507.405115 -573.155646 
L 505.954935 -555.456944 
L 504.504756 -552.084918 
L 503.054577 -549.859364 
L 501.604397 -548.80544 
L 500.154218 -548.422852 
L 498.704039 -548.262399 
L 497.253859 -547.995681 
L 495.80368 -547.229303 
L 494.353501 -545.402299 
L 492.903321 -542.020118 
L 491.453142 -537.194749 
L 490.002963 -538.86623 
L 488.552783 -536.588447 
L 487.102604 -522.91026 
L 485.652425 -529.878459 
L 484.202245 -526.673276 
L 482.752066 -515.623624 
L 481.301887 -536.926504 
L 479.851707 -529.63903 
L 478.401528 -543.162609 
L 476.951349 -568.04861 
L 475.501169 -579.642284 
L 474.05099 -570.441771 
L 472.600811 -590.335018 
L 471.150632 -569.889244 
L 469.700452 -585.706621 
L 468.250273 -555.04911 
L 466.800094 -541.56485 
L 465.349914 -537.757973 
L 463.899735 -510.238019 
L 462.449556 -517.317418 
L 460.999376 -514.667508 
L 459.549197 -510.553208 
L 458.099018 -521.550446 
L 456.648838 -528.889559 
L 455.198659 -531.689227 
L 453.74848 -548.957521 
L 452.2983 -535.887236 
L 450.848121 -540.632134 
L 449.397942 -545.912726 
L 447.947762 -550.46429 
L 446.497583 -553.575929 
L 445.047404 -565.131284 
L 443.597224 -553.914734 
L 442.147045 -551.767514 
L 440.696866 -549.498199 
L 439.246686 -548.028361 
L 437.796507 -555.325694 
L 436.346328 -556.198596 
L 434.896148 -548.046249 
L 433.445969 -547.545235 
L 431.99579 -545.886319 
L 430.54561 -542.857989 
L 429.095431 -540.68368 
L 427.645252 -541.568066 
L 426.195073 -537.711013 
L 424.744893 -521.136298 
L 423.294714 -531.478237 
L 421.844535 -529.136064 
L 420.394355 -534.823807 
L 418.944176 -524.347404 
L 417.493997 -535.894488 
L 416.043817 -555.799895 
L 414.593638 -570.713474 
L 413.143459 -572.746161 
L 411.693279 -596.851972 
L 410.2431 -610.575324 
L 408.792921 -596.650417 
L 407.342741 -622.368595 
L 405.892562 -621.535061 
z
" style="stroke: #9467bd; stroke-opacity: 0.2"/>
    </defs>
    <g clip-path="url(#p8cf0d44977)">
     <use xlink:href="#me13f3c2775" x="0" y="720" style="fill: #9467bd; fill-opacity: 0.2; stroke: #9467bd; stroke-opacity: 0.2"/>
    </g>
   </g>
   <g id="PolyCollection_2">
    <defs>
     <path id="m34d132f60c" d="M 405.892562 -548.314075 
L 405.892562 -548.314075 
L 407.342741 -548.314075 
L 408.792921 -548.314075 
L 410.2431 -548.314075 
L 411.693279 -548.314075 
L 413.143459 -548.314075 
L 414.593638 -548.314075 
L 416.043817 -548.314075 
L 417.493997 -548.314075 
L 418.944176 -548.314075 
L 420.394355 -548.314075 
L 421.844535 -548.314075 
L 423.294714 -548.314075 
L 424.744893 -548.314075 
L 426.195073 -548.314075 
L 427.645252 -548.314075 
L 429.095431 -548.314075 
L 430.54561 -548.313779 
L 431.99579 -548.312145 
L 433.445969 -548.304274 
L 434.896148 -548.275311 
L 436.346328 -548.194673 
L 437.796507 -548.027644 
L 439.246686 -547.778951 
L 440.696866 -547.535473 
L 442.147045 -542.911574 
L 443.597224 -547.535473 
L 445.047404 -547.778951 
L 446.497583 -548.027644 
L 447.947762 -548.194673 
L 449.397942 -548.275311 
L 450.848121 -548.304274 
L 452.2983 -548.312145 
L 453.74848 -548.313779 
L 455.198659 -548.314067 
L 456.648838 -548.314022 
L 458.099018 -548.313804 
L 459.549197 -548.312311 
L 460.999376 -548.306265 
L 462.449556 -548.283276 
L 463.899735 -548.208822 
L 465.349914 -548.013967 
L 466.800094 -547.49892 
L 468.250273 -547.044187 
L 469.700452 -546.482958 
L 471.150632 -540.931542 
L 472.600811 -546.494476 
L 474.05099 -547.064684 
L 475.501169 -547.643849 
L 476.951349 -548.02389 
L 478.401528 -548.164758 
L 479.851707 -548.058333 
L 481.301887 -547.592256 
L 482.752066 -546.585955 
L 484.202245 -545.055756 
L 485.652425 -543.412256 
L 487.102604 -534.343764 
L 488.552783 -540.82451 
L 490.002963 -538.152594 
L 491.453142 -532.963121 
L 492.903321 -526.071105 
L 494.353501 -499.231411 
L 495.80368 -517.338488 
L 497.253859 -507.382722 
L 498.704039 -511.835963 
L 500.154218 -517.005876 
L 501.604397 -506.339013 
L 503.054577 -506.895728 
L 504.504756 -513.777029 
L 505.954935 -524.364136 
L 507.405115 -538.403981 
L 508.855294 -542.879526 
L 510.305473 -544.981337 
L 511.755653 -544.701374 
L 513.205832 -542.732724 
L 514.656011 -540.445542 
L 516.106191 -526.934135 
L 517.55637 -540.489778 
L 519.006549 -542.935685 
L 520.456729 -545.427991 
L 521.906908 -547.082345 
L 523.357087 -547.826001 
L 524.807266 -547.979113 
L 526.257446 -547.852875 
L 527.707625 -547.668273 
L 529.157804 -543.933155 
L 530.607984 -547.665975 
L 532.058163 -547.845493 
L 533.508342 -547.971702 
L 534.958522 -547.88933 
L 536.408701 -547.499704 
L 537.85888 -546.844606 
L 539.30906 -546.187598 
L 540.759239 -541.643434 
L 542.209418 -546.211246 
L 543.659598 -546.909948 
L 545.109777 -547.63933 
L 546.559956 -548.144587 
L 548.010136 -547.049836 
L 549.460315 -548.443978 
L 550.910494 -548.416485 
L 552.360674 -548.370905 
L 553.810853 -548.338102 
L 555.261032 -548.321876 
L 556.711212 -548.316048 
L 558.161391 -548.314464 
L 559.61157 -548.314135 
L 561.06175 -548.314075 
L 562.511929 -548.313857 
L 563.962108 -548.312651 
L 565.412288 -548.306892 
L 566.862467 -548.285798 
L 568.312646 -548.227656 
L 569.762826 -548.109463 
L 571.213005 -547.940119 
L 572.663184 -547.789905 
L 574.113363 -545.338958 
L 575.563543 -547.876887 
L 577.013722 -547.292428 
L 578.463901 -548.238977 
L 579.914081 -548.311699 
L 581.36426 -548.295279 
L 582.814439 -548.152324 
L 584.264619 -547.671065 
L 585.714798 -546.217853 
L 587.164977 -543.694852 
L 588.615157 -539.715401 
L 590.065336 -535.82 
L 591.515515 -523.800019 
L 592.965695 -535.828554 
L 594.415874 -539.733492 
L 595.866053 -543.721334 
L 597.316233 -546.399554 
L 598.766412 -547.692524 
L 600.216591 -548.156923 
L 601.666771 -548.28313 
L 603.11695 -548.30933 
L 604.567129 -548.314075 
L 606.017309 -548.314075 
L 607.467488 -548.314075 
L 608.917667 -548.312027 
L 610.367847 -548.300719 
L 611.818026 -548.246245 
L 613.268205 -548.045803 
L 614.718385 -547.479847 
L 616.168564 -546.277626 
L 617.618743 -544.33168 
L 619.068923 -541.80231 
L 620.519102 -528.170919 
L 621.969281 -534.189079 
L 623.41946 -527.689986 
L 624.86964 -520.551292 
L 626.319819 -501.608528 
L 627.769998 -509.509027 
L 629.220178 -524.337923 
L 630.670357 -530.498355 
L 632.120536 -526.576115 
L 633.570716 -529.27452 
L 635.020895 -515.285638 
L 636.471074 -504.995113 
L 636.471074 -531.612998 
L 636.471074 -531.612998 
L 635.020895 -530.949841 
L 633.570716 -529.27452 
L 632.120536 -538.423848 
L 630.670357 -530.498355 
L 629.220178 -524.337923 
L 627.769998 -526.76355 
L 626.319819 -531.271446 
L 624.86964 -520.551292 
L 623.41946 -527.689986 
L 621.969281 -534.189079 
L 620.519102 -549.166262 
L 619.068923 -541.80231 
L 617.618743 -544.33168 
L 616.168564 -546.277626 
L 614.718385 -547.479847 
L 613.268205 -548.045803 
L 611.818026 -548.246245 
L 610.367847 -548.300719 
L 608.917667 -548.312027 
L 607.467488 -548.314075 
L 606.017309 -548.314075 
L 604.567129 -548.314075 
L 603.11695 -548.30933 
L 601.666771 -548.28313 
L 600.216591 -548.156923 
L 598.766412 -547.692524 
L 597.316233 -546.399554 
L 595.866053 -543.721334 
L 594.415874 -539.733492 
L 592.965695 -535.828554 
L 591.515515 -544.527019 
L 590.065336 -535.82 
L 588.615157 -539.715401 
L 587.164977 -543.694852 
L 585.714798 -546.523363 
L 584.264619 -547.671065 
L 582.814439 -548.152324 
L 581.36426 -548.295279 
L 579.914081 -548.311699 
L 578.463901 -548.238977 
L 577.013722 -548.856986 
L 575.563543 -547.876887 
L 574.113363 -550.175728 
L 572.663184 -547.789905 
L 571.213005 -547.940119 
L 569.762826 -548.109463 
L 568.312646 -548.227656 
L 566.862467 -548.285798 
L 565.412288 -548.306892 
L 563.962108 -548.312651 
L 562.511929 -548.313857 
L 561.06175 -548.314075 
L 559.61157 -548.314135 
L 558.161391 -548.314464 
L 556.711212 -548.316048 
L 555.261032 -548.321876 
L 553.810853 -548.338102 
L 552.360674 -548.370905 
L 550.910494 -548.416485 
L 549.460315 -548.443978 
L 548.010136 -549.721609 
L 546.559956 -548.144587 
L 545.109777 -547.63933 
L 543.659598 -546.909948 
L 542.209418 -546.211246 
L 540.759239 -550.179741 
L 539.30906 -546.187598 
L 537.85888 -546.844606 
L 536.408701 -547.499704 
L 534.958522 -547.88933 
L 533.508342 -547.971702 
L 532.058163 -547.845493 
L 530.607984 -547.665975 
L 529.157804 -551.236539 
L 527.707625 -547.668273 
L 526.257446 -547.852875 
L 524.807266 -547.979113 
L 523.357087 -547.826001 
L 521.906908 -547.082345 
L 520.456729 -545.427991 
L 519.006549 -542.935685 
L 517.55637 -540.489778 
L 516.106191 -551.948616 
L 514.656011 -540.445542 
L 513.205832 -542.732724 
L 511.755653 -544.701374 
L 510.305473 -544.981337 
L 508.855294 -542.879526 
L 507.405115 -538.403981 
L 505.954935 -540.46772 
L 504.504756 -539.412029 
L 503.054577 -538.276723 
L 501.604397 -535.250692 
L 500.154218 -523.195362 
L 498.704039 -526.314671 
L 497.253859 -527.854695 
L 495.80368 -517.338488 
L 494.353501 -541.015176 
L 492.903321 -526.071105 
L 491.453142 -532.963121 
L 490.002963 -538.152594 
L 488.552783 -540.82451 
L 487.102604 -549.889346 
L 485.652425 -543.412256 
L 484.202245 -545.055756 
L 482.752066 -546.585955 
L 481.301887 -547.592256 
L 479.851707 -548.058333 
L 478.401528 -548.164758 
L 476.951349 -548.02389 
L 475.501169 -547.643849 
L 474.05099 -547.064684 
L 472.600811 -546.494476 
L 471.150632 -551.564482 
L 469.700452 -546.482958 
L 468.250273 -547.044187 
L 466.800094 -547.743992 
L 465.349914 -548.013967 
L 463.899735 -548.208822 
L 462.449556 -548.283276 
L 460.999376 -548.306265 
L 459.549197 -548.312311 
L 458.099018 -548.313804 
L 456.648838 -548.314022 
L 455.198659 -548.314067 
L 453.74848 -548.313779 
L 452.2983 -548.312145 
L 450.848121 -548.304274 
L 449.397942 -548.275311 
L 447.947762 -548.194673 
L 446.497583 -548.027644 
L 445.047404 -547.778951 
L 443.597224 -547.535473 
L 442.147045 -551.952034 
L 440.696866 -547.535473 
L 439.246686 -547.778951 
L 437.796507 -548.027644 
L 436.346328 -548.194673 
L 434.896148 -548.275311 
L 433.445969 -548.304274 
L 431.99579 -548.312145 
L 430.54561 -548.313779 
L 429.095431 -548.314075 
L 427.645252 -548.314075 
L 426.195073 -548.314075 
L 424.744893 -548.314075 
L 423.294714 -548.314075 
L 421.844535 -548.314075 
L 420.394355 -548.314075 
L 418.944176 -548.314075 
L 417.493997 -548.314075 
L 416.043817 -548.314075 
L 414.593638 -548.314075 
L 413.143459 -548.314075 
L 411.693279 -548.314075 
L 410.2431 -548.314075 
L 408.792921 -548.314075 
L 407.342741 -548.314075 
L 405.892562 -548.314075 
z
" style="stroke: #1f77b4; stroke-opacity: 0.2"/>
    </defs>
    <g clip-path="url(#p8cf0d44977)">
     <use xlink:href="#m34d132f60c" x="0" y="720" style="fill: #1f77b4; fill-opacity: 0.2; stroke: #1f77b4; stroke-opacity: 0.2"/>
    </g>
   </g>
   <g id="PolyCollection_3">
    <defs>
     <path id="m788b3175b4" d="M 405.892562 -545.585883 
L 405.892562 -545.585883 
L 407.342741 -544.933384 
L 408.792921 -537.902362 
L 410.2431 -542.674526 
L 411.693279 -541.53539 
L 413.143459 -533.321458 
L 414.593638 -540.181872 
L 416.043817 -540.25185 
L 417.493997 -533.334112 
L 418.944176 -542.160737 
L 420.394355 -543.265042 
L 421.844535 -543.629466 
L 423.294714 -543.201584 
L 424.744893 -531.225812 
L 426.195073 -541.389309 
L 427.645252 -539.578771 
L 429.095431 -536.540464 
L 430.54561 -524.263555 
L 431.99579 -523.235572 
L 433.445969 -524.746088 
L 434.896148 -520.104554 
L 436.346328 -532.364371 
L 437.796507 -536.671486 
L 439.246686 -540.272653 
L 440.696866 -538.141616 
L 442.147045 -545.314366 
L 443.597224 -548.293116 
L 445.047404 -552.171864 
L 446.497583 -557.053294 
L 447.947762 -554.956789 
L 449.397942 -569.509831 
L 450.848121 -574.744336 
L 452.2983 -549.014369 
L 453.74848 -571.649219 
L 455.198659 -564.028837 
L 456.648838 -556.643855 
L 458.099018 -551.770351 
L 459.549197 -549.433696 
L 460.999376 -548.596601 
L 462.449556 -548.369708 
L 463.899735 -548.322607 
L 465.349914 -548.314075 
L 466.800094 -548.322794 
L 468.250273 -548.370926 
L 469.700452 -548.602788 
L 471.150632 -549.458172 
L 472.600811 -551.845762 
L 474.05099 -556.824849 
L 475.501169 -564.367351 
L 476.951349 -572.1429 
L 478.401528 -552.283345 
L 479.851707 -575.254012 
L 481.301887 -569.90488 
L 482.752066 -554.479061 
L 484.202245 -557.676122 
L 485.652425 -553.498682 
L 487.102604 -550.745053 
L 488.552783 -548.894488 
L 490.002963 -546.94174 
L 491.453142 -541.705772 
L 492.903321 -539.181994 
L 494.353501 -534.64281 
L 495.80368 -518.326214 
L 497.253859 -534.386483 
L 498.704039 -538.715324 
L 500.154218 -543.169542 
L 501.604397 -546.168197 
L 503.054577 -547.617209 
L 504.504756 -548.137834 
L 505.954935 -548.279371 
L 507.405115 -548.308753 
L 508.855294 -548.314075 
L 510.305473 -548.314075 
L 511.755653 -548.314075 
L 513.205832 -548.314075 
L 514.656011 -548.309874 
L 516.106191 -548.286681 
L 517.55637 -548.174956 
L 519.006549 -547.763846 
L 520.456729 -546.619249 
L 521.906908 -544.248398 
L 523.357087 -540.71839 
L 524.807266 -537.257891 
L 526.257446 -520.744038 
L 527.707625 -537.100306 
L 529.157804 -540.06356 
L 530.607984 -542.175389 
L 532.058163 -541.470762 
L 533.508342 -537.692015 
L 534.958522 -532.546841 
L 536.408701 -519.061705 
L 537.85888 -519.512813 
L 539.30906 -527.41963 
L 540.759239 -525.638396 
L 542.209418 -515.376762 
L 543.659598 -509.278881 
L 545.109777 -498.916311 
L 546.559956 -499.933856 
L 548.010136 -485.490011 
L 549.460315 -452.958926 
L 550.910494 -415.436563 
L 552.360674 -402.318328 
L 553.810853 -397.740496 
L 555.261032 -405.298004 
L 556.711212 -424.736578 
L 558.161391 -441.600714 
L 559.61157 -471.446827 
L 561.06175 -461.417953 
L 562.511929 -461.068758 
L 563.962108 -470.931408 
L 565.412288 -471.259821 
L 566.862467 -490.391128 
L 568.312646 -506.535648 
L 569.762826 -528.054955 
L 571.213005 -537.998866 
L 572.663184 -543.251204 
L 574.113363 -544.266881 
L 575.563543 -541.433134 
L 577.013722 -535.152795 
L 578.463901 -526.782516 
L 579.914081 -510.752755 
L 581.36426 -514.925492 
L 582.814439 -500.603559 
L 584.264619 -513.399276 
L 585.714798 -532.325726 
L 587.164977 -532.74494 
L 588.615157 -545.981596 
L 590.065336 -548.219361 
L 591.515515 -548.681393 
L 592.965695 -548.558862 
L 594.415874 -548.398181 
L 595.866053 -548.279194 
L 597.316233 -548.076548 
L 598.766412 -547.576862 
L 600.216591 -546.599282 
L 601.666771 -545.345185 
L 603.11695 -544.772477 
L 604.567129 -541.397852 
L 606.017309 -550.779148 
L 607.467488 -556.892762 
L 608.917667 -553.868681 
L 610.367847 -556.083332 
L 611.818026 -560.464439 
L 613.268205 -556.087906 
L 614.718385 -552.21109 
L 616.168564 -549.849276 
L 617.618743 -548.789693 
L 619.068923 -548.429723 
L 620.519102 -548.336141 
L 621.969281 -548.317078 
L 623.41946 -548.314075 
L 624.86964 -548.314075 
L 626.319819 -548.314075 
L 627.769998 -548.314075 
L 629.220178 -548.314075 
L 630.670357 -548.314075 
L 632.120536 -548.314075 
L 633.570716 -548.314075 
L 635.020895 -548.314075 
L 636.471074 -548.314075 
L 636.471074 -548.314075 
L 636.471074 -548.314075 
L 635.020895 -548.314075 
L 633.570716 -548.314075 
L 632.120536 -548.314075 
L 630.670357 -548.314075 
L 629.220178 -548.314075 
L 627.769998 -548.314075 
L 626.319819 -548.314075 
L 624.86964 -548.314075 
L 623.41946 -548.314075 
L 621.969281 -548.317078 
L 620.519102 -548.336141 
L 619.068923 -548.429723 
L 617.618743 -548.789693 
L 616.168564 -549.849276 
L 614.718385 -552.21109 
L 613.268205 -556.087906 
L 611.818026 -560.464439 
L 610.367847 -570.018916 
L 608.917667 -569.754168 
L 607.467488 -556.892762 
L 606.017309 -550.779148 
L 604.567129 -551.275896 
L 603.11695 -544.772477 
L 601.666771 -545.345185 
L 600.216591 -546.599282 
L 598.766412 -547.576862 
L 597.316233 -548.076548 
L 595.866053 -548.279194 
L 594.415874 -548.398181 
L 592.965695 -548.558862 
L 591.515515 -548.681393 
L 590.065336 -548.219361 
L 588.615157 -545.981596 
L 587.164977 -548.627436 
L 585.714798 -532.325726 
L 584.264619 -532.757339 
L 582.814439 -532.199477 
L 581.36426 -514.925492 
L 579.914081 -527.279262 
L 578.463901 -526.782516 
L 577.013722 -535.152795 
L 575.563543 -541.433134 
L 574.113363 -544.266881 
L 572.663184 -543.251204 
L 571.213005 -537.998866 
L 569.762826 -528.054955 
L 568.312646 -521.363779 
L 566.862467 -506.11892 
L 565.412288 -498.985846 
L 563.962108 -484.801437 
L 562.511929 -491.334295 
L 561.06175 -490.291739 
L 559.61157 -471.446827 
L 558.161391 -479.462621 
L 556.711212 -465.86329 
L 555.261032 -456.676781 
L 553.810853 -448.88238 
L 552.360674 -450.958472 
L 550.910494 -468.210914 
L 549.460315 -475.454626 
L 548.010136 -485.490011 
L 546.559956 -499.933856 
L 545.109777 -517.6281 
L 543.659598 -519.956056 
L 542.209418 -526.393949 
L 540.759239 -525.638396 
L 539.30906 -527.41963 
L 537.85888 -535.426754 
L 536.408701 -538.315487 
L 534.958522 -532.546841 
L 533.508342 -537.692015 
L 532.058163 -541.470762 
L 530.607984 -542.175389 
L 529.157804 -540.06356 
L 527.707625 -537.100306 
L 526.257446 -550.774992 
L 524.807266 -537.257891 
L 523.357087 -540.71839 
L 521.906908 -544.248398 
L 520.456729 -546.619249 
L 519.006549 -547.763846 
L 517.55637 -548.174956 
L 516.106191 -548.286681 
L 514.656011 -548.309874 
L 513.205832 -548.314075 
L 511.755653 -548.314075 
L 510.305473 -548.314075 
L 508.855294 -548.314075 
L 507.405115 -548.308753 
L 505.954935 -548.279371 
L 504.504756 -548.137834 
L 503.054577 -547.617209 
L 501.604397 -546.168197 
L 500.154218 -543.169542 
L 498.704039 -538.715324 
L 497.253859 -534.386483 
L 495.80368 -546.922637 
L 494.353501 -534.64281 
L 492.903321 -539.181994 
L 491.453142 -545.846601 
L 490.002963 -546.94174 
L 488.552783 -548.894488 
L 487.102604 -550.745053 
L 485.652425 -553.498682 
L 484.202245 -557.676122 
L 482.752066 -572.240352 
L 481.301887 -569.90488 
L 479.851707 -575.254012 
L 478.401528 -600.609881 
L 476.951349 -572.1429 
L 475.501169 -564.367351 
L 474.05099 -556.824849 
L 472.600811 -551.845762 
L 471.150632 -549.458172 
L 469.700452 -548.602788 
L 468.250273 -548.370926 
L 466.800094 -548.322794 
L 465.349914 -548.314075 
L 463.899735 -548.322607 
L 462.449556 -548.369708 
L 460.999376 -548.596601 
L 459.549197 -549.433696 
L 458.099018 -551.770351 
L 456.648838 -556.643855 
L 455.198659 -564.028837 
L 453.74848 -571.649219 
L 452.2983 -602.751999 
L 450.848121 -574.744336 
L 449.397942 -569.509831 
L 447.947762 -571.025531 
L 446.497583 -557.053294 
L 445.047404 -552.171864 
L 443.597224 -548.293116 
L 442.147045 -545.314366 
L 440.696866 -547.66108 
L 439.246686 -540.272653 
L 437.796507 -536.671486 
L 436.346328 -532.364371 
L 434.896148 -537.630263 
L 433.445969 -530.718326 
L 431.99579 -535.370664 
L 430.54561 -541.148562 
L 429.095431 -536.540464 
L 427.645252 -539.578771 
L 426.195073 -541.389309 
L 424.744893 -553.611842 
L 423.294714 -543.201584 
L 421.844535 -543.629466 
L 420.394355 -543.265042 
L 418.944176 -542.160737 
L 417.493997 -548.584233 
L 416.043817 -540.25185 
L 414.593638 -540.181872 
L 413.143459 -547.978119 
L 411.693279 -541.53539 
L 410.2431 -542.674526 
L 408.792921 -549.84537 
L 407.342741 -544.933384 
L 405.892562 -545.585883 
z
" style="stroke: #d62728; stroke-opacity: 0.2"/>
    </defs>
    <g clip-path="url(#p8cf0d44977)">
     <use xlink:href="#m788b3175b4" x="0" y="720" style="fill: #d62728; fill-opacity: 0.2; stroke: #d62728; stroke-opacity: 0.2"/>
    </g>
   </g>
   <g id="PolyCollection_4">
    <defs>
     <path id="mc32b270f96" d="M 405.892562 -548.314075 
L 405.892562 -548.314075 
L 407.342741 -548.309843 
L 408.792921 -548.286479 
L 410.2431 -548.173928 
L 411.693279 -547.759783 
L 413.143459 -546.606734 
L 414.593638 -544.218376 
L 416.043817 -540.662302 
L 417.493997 -537.18081 
L 418.944176 -520.518032 
L 420.394355 -537.18081 
L 421.844535 -540.662302 
L 423.294714 -544.218376 
L 424.744893 -546.606734 
L 426.195073 -547.759783 
L 427.645252 -548.17195 
L 429.095431 -548.273582 
L 430.54561 -548.244349 
L 431.99579 -548.055039 
L 433.445969 -547.516186 
L 434.896148 -546.397724 
L 436.346328 -544.723097 
L 437.796507 -543.033613 
L 439.246686 -533.601273 
L 440.696866 -542.146218 
L 442.147045 -542.374164 
L 443.597224 -541.83196 
L 445.047404 -540.506218 
L 446.497583 -528.516955 
L 447.947762 -539.651411 
L 449.397942 -536.629716 
L 450.848121 -543.562174 
L 452.2983 -545.654992 
L 453.74848 -547.087344 
L 455.198659 -547.852399 
L 456.648838 -548.173978 
L 458.099018 -548.280154 
L 459.549197 -548.307851 
L 460.999376 -548.313121 
L 462.449556 -548.314075 
L 463.899735 -548.314075 
L 465.349914 -548.314075 
L 466.800094 -548.314075 
L 468.250273 -548.314075 
L 469.700452 -548.314075 
L 471.150632 -548.314075 
L 472.600811 -548.314075 
L 474.05099 -548.314075 
L 475.501169 -548.314075 
L 476.951349 -548.314075 
L 478.401528 -548.314075 
L 479.851707 -548.314075 
L 481.301887 -548.314075 
L 482.752066 -548.314075 
L 484.202245 -548.314075 
L 485.652425 -548.314075 
L 487.102604 -548.314075 
L 488.552783 -548.314075 
L 490.002963 -548.314075 
L 491.453142 -548.314075 
L 492.903321 -548.314075 
L 494.353501 -548.314075 
L 495.80368 -548.314075 
L 497.253859 -548.314075 
L 498.704039 -548.314075 
L 500.154218 -548.314075 
L 501.604397 -548.314075 
L 503.054577 -548.314075 
L 504.504756 -548.314075 
L 505.954935 -548.314075 
L 507.405115 -548.314075 
L 508.855294 -548.314075 
L 510.305473 -548.314075 
L 511.755653 -548.314075 
L 513.205832 -548.314075 
L 514.656011 -548.314075 
L 516.106191 -548.314075 
L 517.55637 -548.314075 
L 519.006549 -548.314075 
L 520.456729 -548.314075 
L 521.906908 -548.314075 
L 523.357087 -548.314075 
L 524.807266 -548.314075 
L 526.257446 -548.314075 
L 527.707625 -548.314075 
L 529.157804 -548.314075 
L 530.607984 -548.314075 
L 532.058163 -548.314075 
L 533.508342 -548.314075 
L 534.958522 -548.314075 
L 536.408701 -548.314075 
L 537.85888 -548.314075 
L 539.30906 -548.314075 
L 540.759239 -548.314075 
L 542.209418 -548.314075 
L 543.659598 -548.314075 
L 545.109777 -548.314075 
L 546.559956 -548.314075 
L 548.010136 -548.314075 
L 549.460315 -548.314075 
L 550.910494 -548.314075 
L 552.360674 -548.314075 
L 553.810853 -548.314075 
L 555.261032 -548.314075 
L 556.711212 -548.314075 
L 558.161391 -548.314075 
L 559.61157 -548.314075 
L 561.06175 -548.314075 
L 562.511929 -548.314075 
L 563.962108 -548.314075 
L 565.412288 -548.314075 
L 566.862467 -548.314075 
L 568.312646 -548.314075 
L 569.762826 -548.314075 
L 571.213005 -548.314075 
L 572.663184 -548.314075 
L 574.113363 -548.314075 
L 575.563543 -548.314075 
L 577.013722 -548.314075 
L 578.463901 -548.314075 
L 579.914081 -548.314075 
L 581.36426 -548.314075 
L 582.814439 -548.314075 
L 584.264619 -548.314075 
L 585.714798 -548.314075 
L 587.164977 -548.314075 
L 588.615157 -548.314075 
L 590.065336 -548.314075 
L 591.515515 -548.314075 
L 592.965695 -548.314075 
L 594.415874 -548.318018 
L 595.866053 -548.339787 
L 597.316233 -548.444649 
L 598.766412 -548.830506 
L 600.216591 -549.904792 
L 601.666771 -552.130007 
L 603.11695 -555.443175 
L 604.567129 -558.686854 
L 606.017309 -549.176683 
L 607.467488 -558.686854 
L 608.917667 -555.443175 
L 610.367847 -552.130007 
L 611.818026 -549.90257 
L 613.268205 -548.816013 
L 614.718385 -548.371051 
L 616.168564 -548.048701 
L 617.618743 -547.419945 
L 619.068923 -546.153671 
L 620.519102 -544.24725 
L 621.969281 -542.269842 
L 623.41946 -532.882021 
L 624.86964 -540.858622 
L 626.319819 -540.890644 
L 627.769998 -539.978511 
L 629.220178 -525.878092 
L 630.670357 -533.682161 
L 632.120536 -530.196059 
L 633.570716 -510.647422 
L 635.020895 -530.174764 
L 636.471074 -532.029992 
L 636.471074 -532.029992 
L 636.471074 -532.029992 
L 635.020895 -530.174764 
L 633.570716 -547.14109 
L 632.120536 -530.196059 
L 630.670357 -533.682161 
L 629.220178 -549.026172 
L 627.769998 -539.978511 
L 626.319819 -540.890644 
L 624.86964 -540.858622 
L 623.41946 -549.238818 
L 621.969281 -542.269842 
L 620.519102 -544.24725 
L 619.068923 -546.153671 
L 617.618743 -547.419945 
L 616.168564 -548.048701 
L 614.718385 -548.371051 
L 613.268205 -548.816013 
L 611.818026 -549.90257 
L 610.367847 -552.130007 
L 608.917667 -555.443175 
L 607.467488 -558.686854 
L 606.017309 -570.959264 
L 604.567129 -558.686854 
L 603.11695 -555.443175 
L 601.666771 -552.130007 
L 600.216591 -549.904792 
L 598.766412 -548.830506 
L 597.316233 -548.444649 
L 595.866053 -548.339787 
L 594.415874 -548.318018 
L 592.965695 -548.314075 
L 591.515515 -548.314075 
L 590.065336 -548.314075 
L 588.615157 -548.314075 
L 587.164977 -548.314075 
L 585.714798 -548.314075 
L 584.264619 -548.314075 
L 582.814439 -548.314075 
L 581.36426 -548.314075 
L 579.914081 -548.314075 
L 578.463901 -548.314075 
L 577.013722 -548.314075 
L 575.563543 -548.314075 
L 574.113363 -548.314075 
L 572.663184 -548.314075 
L 571.213005 -548.314075 
L 569.762826 -548.314075 
L 568.312646 -548.314075 
L 566.862467 -548.314075 
L 565.412288 -548.314075 
L 563.962108 -548.314075 
L 562.511929 -548.314075 
L 561.06175 -548.314075 
L 559.61157 -548.314075 
L 558.161391 -548.314075 
L 556.711212 -548.314075 
L 555.261032 -548.314075 
L 553.810853 -548.314075 
L 552.360674 -548.314075 
L 550.910494 -548.314075 
L 549.460315 -548.314075 
L 548.010136 -548.314075 
L 546.559956 -548.314075 
L 545.109777 -548.314075 
L 543.659598 -548.314075 
L 542.209418 -548.314075 
L 540.759239 -548.314075 
L 539.30906 -548.314075 
L 537.85888 -548.314075 
L 536.408701 -548.314075 
L 534.958522 -548.314075 
L 533.508342 -548.314075 
L 532.058163 -548.314075 
L 530.607984 -548.314075 
L 529.157804 -548.314075 
L 527.707625 -548.314075 
L 526.257446 -548.314075 
L 524.807266 -548.314075 
L 523.357087 -548.314075 
L 521.906908 -548.314075 
L 520.456729 -548.314075 
L 519.006549 -548.314075 
L 517.55637 -548.314075 
L 516.106191 -548.314075 
L 514.656011 -548.314075 
L 513.205832 -548.314075 
L 511.755653 -548.314075 
L 510.305473 -548.314075 
L 508.855294 -548.314075 
L 507.405115 -548.314075 
L 505.954935 -548.314075 
L 504.504756 -548.314075 
L 503.054577 -548.314075 
L 501.604397 -548.314075 
L 500.154218 -548.314075 
L 498.704039 -548.314075 
L 497.253859 -548.314075 
L 495.80368 -548.314075 
L 494.353501 -548.314075 
L 492.903321 -548.314075 
L 491.453142 -548.314075 
L 490.002963 -548.314075 
L 488.552783 -548.314075 
L 487.102604 -548.314075 
L 485.652425 -548.314075 
L 484.202245 -548.314075 
L 482.752066 -548.314075 
L 481.301887 -548.314075 
L 479.851707 -548.314075 
L 478.401528 -548.314075 
L 476.951349 -548.314075 
L 475.501169 -548.314075 
L 474.05099 -548.314075 
L 472.600811 -548.314075 
L 471.150632 -548.314075 
L 469.700452 -548.314075 
L 468.250273 -548.314075 
L 466.800094 -548.314075 
L 465.349914 -548.314075 
L 463.899735 -548.314075 
L 462.449556 -548.314075 
L 460.999376 -548.313121 
L 459.549197 -548.307851 
L 458.099018 -548.280154 
L 456.648838 -548.173978 
L 455.198659 -547.852399 
L 453.74848 -547.087344 
L 452.2983 -545.654992 
L 450.848121 -543.562174 
L 449.397942 -545.916126 
L 447.947762 -539.651411 
L 446.497583 -550.348414 
L 445.047404 -540.506218 
L 443.597224 -541.83196 
L 442.147045 -542.374164 
L 440.696866 -542.146218 
L 439.246686 -550.617097 
L 437.796507 -543.033613 
L 436.346328 -544.723097 
L 434.896148 -546.397724 
L 433.445969 -547.516186 
L 431.99579 -548.055039 
L 430.54561 -548.244349 
L 429.095431 -548.273582 
L 427.645252 -548.17195 
L 426.195073 -547.759783 
L 424.744893 -546.606734 
L 423.294714 -544.218376 
L 421.844535 -540.662302 
L 420.394355 -537.18081 
L 418.944176 -550.878834 
L 417.493997 -537.18081 
L 416.043817 -540.662302 
L 414.593638 -544.218376 
L 413.143459 -546.606734 
L 411.693279 -547.759783 
L 410.2431 -548.173928 
L 408.792921 -548.286479 
L 407.342741 -548.309843 
L 405.892562 -548.314075 
z
" style="stroke: #ff7f0e; stroke-opacity: 0.2"/>
    </defs>
    <g clip-path="url(#p8cf0d44977)">
     <use xlink:href="#mc32b270f96" x="0" y="720" style="fill: #ff7f0e; fill-opacity: 0.2; stroke: #ff7f0e; stroke-opacity: 0.2"/>
    </g>
   </g>
   <g id="matplotlib.axis_3">
    <g id="xtick_7">
     <g id="line2d_13">
      <g>
       <use xlink:href="#m5fa22c3ac2" x="405.863558" y="333.490909" style="stroke: #000000; stroke-width: 0.8"/>
      </g>
     </g>
     <g id="text_13">
      <!-- 0 -->
      <g transform="translate(402.682308 348.089347)scale(0.1 -0.1)">
       <use xlink:href="#DejaVuSans-30"/>
      </g>
     </g>
    </g>
    <g id="xtick_8">
     <g id="line2d_14">
      <g>
       <use xlink:href="#m5fa22c3ac2" x="463.870731" y="333.490909" style="stroke: #000000; stroke-width: 0.8"/>
      </g>
     </g>
     <g id="text_14">
      <!-- 2000 -->
      <g transform="translate(451.145731 348.089347)scale(0.1 -0.1)">
       <use xlink:href="#DejaVuSans-32"/>
       <use xlink:href="#DejaVuSans-30" x="63.623047"/>
       <use xlink:href="#DejaVuSans-30" x="127.246094"/>
       <use xlink:href="#DejaVuSans-30" x="190.869141"/>
      </g>
     </g>
    </g>
    <g id="xtick_9">
     <g id="line2d_15">
      <g>
       <use xlink:href="#m5fa22c3ac2" x="521.877904" y="333.490909" style="stroke: #000000; stroke-width: 0.8"/>
      </g>
     </g>
     <g id="text_15">
      <!-- 4000 -->
      <g transform="translate(509.152904 348.089347)scale(0.1 -0.1)">
       <use xlink:href="#DejaVuSans-34"/>
       <use xlink:href="#DejaVuSans-30" x="63.623047"/>
       <use xlink:href="#DejaVuSans-30" x="127.246094"/>
       <use xlink:href="#DejaVuSans-30" x="190.869141"/>
      </g>
     </g>
    </g>
    <g id="xtick_10">
     <g id="line2d_16">
      <g>
       <use xlink:href="#m5fa22c3ac2" x="579.885077" y="333.490909" style="stroke: #000000; stroke-width: 0.8"/>
      </g>
     </g>
     <g id="text_16">
      <!-- 6000 -->
      <g transform="translate(567.160077 348.089347)scale(0.1 -0.1)">
       <use xlink:href="#DejaVuSans-36"/>
       <use xlink:href="#DejaVuSans-30" x="63.623047"/>
       <use xlink:href="#DejaVuSans-30" x="127.246094"/>
       <use xlink:href="#DejaVuSans-30" x="190.869141"/>
      </g>
     </g>
    </g>
    <g id="xtick_11">
     <g id="line2d_17">
      <g>
       <use xlink:href="#m5fa22c3ac2" x="637.89225" y="333.490909" style="stroke: #000000; stroke-width: 0.8"/>
      </g>
     </g>
     <g id="text_17">
      <!-- 8000 -->
      <g transform="translate(625.16725 348.089347)scale(0.1 -0.1)">
       <use xlink:href="#DejaVuSans-38"/>
       <use xlink:href="#DejaVuSans-30" x="63.623047"/>
       <use xlink:href="#DejaVuSans-30" x="127.246094"/>
       <use xlink:href="#DejaVuSans-30" x="190.869141"/>
      </g>
     </g>
    </g>
   </g>
   <g id="matplotlib.axis_4">
    <g id="ytick_7">
     <g id="line2d_18">
      <g>
       <use xlink:href="#mb04358c03d" x="394.363636" y="324.284135" style="stroke: #000000; stroke-width: 0.8"/>
      </g>
     </g>
     <g id="text_18">
      <!-- −0.3 -->
      <g transform="translate(363.080824 328.083354)scale(0.1 -0.1)">
       <defs>
        <path id="DejaVuSans-2212" d="M 678 2272 
L 4684 2272 
L 4684 1741 
L 678 1741 
L 678 2272 
z
" transform="scale(0.015625)"/>
        <path id="DejaVuSans-33" d="M 2597 2516 
Q 3050 2419 3304 2112 
Q 3559 1806 3559 1356 
Q 3559 666 3084 287 
Q 2609 -91 1734 -91 
Q 1441 -91 1130 -33 
Q 819 25 488 141 
L 488 750 
Q 750 597 1062 519 
Q 1375 441 1716 441 
Q 2309 441 2620 675 
Q 2931 909 2931 1356 
Q 2931 1769 2642 2001 
Q 2353 2234 1838 2234 
L 1294 2234 
L 1294 2753 
L 1863 2753 
Q 2328 2753 2575 2939 
Q 2822 3125 2822 3475 
Q 2822 3834 2567 4026 
Q 2313 4219 1838 4219 
Q 1578 4219 1281 4162 
Q 984 4106 628 3988 
L 628 4550 
Q 988 4650 1302 4700 
Q 1616 4750 1894 4750 
Q 2613 4750 3031 4423 
Q 3450 4097 3450 3541 
Q 3450 3153 3228 2886 
Q 3006 2619 2597 2516 
z
" transform="scale(0.015625)"/>
       </defs>
       <use xlink:href="#DejaVuSans-2212"/>
       <use xlink:href="#DejaVuSans-30" x="83.789062"/>
       <use xlink:href="#DejaVuSans-2e" x="147.412109"/>
       <use xlink:href="#DejaVuSans-33" x="179.199219"/>
      </g>
     </g>
    </g>
    <g id="ytick_8">
     <g id="line2d_19">
      <g>
       <use xlink:href="#mb04358c03d" x="394.363636" y="273.418065" style="stroke: #000000; stroke-width: 0.8"/>
      </g>
     </g>
     <g id="text_19">
      <!-- −0.2 -->
      <g transform="translate(363.080824 277.217284)scale(0.1 -0.1)">
       <use xlink:href="#DejaVuSans-2212"/>
       <use xlink:href="#DejaVuSans-30" x="83.789062"/>
       <use xlink:href="#DejaVuSans-2e" x="147.412109"/>
       <use xlink:href="#DejaVuSans-32" x="179.199219"/>
      </g>
     </g>
    </g>
    <g id="ytick_9">
     <g id="line2d_20">
      <g>
       <use xlink:href="#mb04358c03d" x="394.363636" y="222.551995" style="stroke: #000000; stroke-width: 0.8"/>
      </g>
     </g>
     <g id="text_20">
      <!-- −0.1 -->
      <g transform="translate(363.080824 226.351213)scale(0.1 -0.1)">
       <use xlink:href="#DejaVuSans-2212"/>
       <use xlink:href="#DejaVuSans-30" x="83.789062"/>
       <use xlink:href="#DejaVuSans-2e" x="147.412109"/>
       <use xlink:href="#DejaVuSans-31" x="179.199219"/>
      </g>
     </g>
    </g>
    <g id="ytick_10">
     <g id="line2d_21">
      <g>
       <use xlink:href="#mb04358c03d" x="394.363636" y="171.685925" style="stroke: #000000; stroke-width: 0.8"/>
      </g>
     </g>
     <g id="text_21">
      <!-- 0.0 -->
      <g transform="translate(371.460511 175.485143)scale(0.1 -0.1)">
       <use xlink:href="#DejaVuSans-30"/>
       <use xlink:href="#DejaVuSans-2e" x="63.623047"/>
       <use xlink:href="#DejaVuSans-30" x="95.410156"/>
      </g>
     </g>
    </g>
    <g id="ytick_11">
     <g id="line2d_22">
      <g>
       <use xlink:href="#mb04358c03d" x="394.363636" y="120.819855" style="stroke: #000000; stroke-width: 0.8"/>
      </g>
     </g>
     <g id="text_22">
      <!-- 0.1 -->
      <g transform="translate(371.460511 124.619073)scale(0.1 -0.1)">
       <use xlink:href="#DejaVuSans-30"/>
       <use xlink:href="#DejaVuSans-2e" x="63.623047"/>
       <use xlink:href="#DejaVuSans-31" x="95.410156"/>
      </g>
     </g>
    </g>
   </g>
   <g id="line2d_23">
    <path d="M 405.892562 115.279952 
L 407.342741 118.401604 
L 408.792921 123.349583 
L 410.2431 129.388223 
L 411.693279 137.154034 
L 413.143459 147.253839 
L 416.043817 171.591676 
L 417.493997 184.105512 
L 418.944176 195.652596 
L 420.394355 204.03556 
L 421.844535 207.023196 
L 423.294714 204.544473 
L 424.744893 198.863702 
L 427.645252 186.616973 
L 429.095431 181.426037 
L 430.54561 177.142011 
L 431.99579 174.113681 
L 433.445969 172.454765 
L 434.896148 171.953751 
L 437.796507 172.393744 
L 439.246686 171.971639 
L 440.696866 170.501801 
L 443.597224 166.085266 
L 445.047404 165.245794 
L 446.497583 166.424071 
L 447.947762 169.53571 
L 449.397942 174.087274 
L 450.848121 179.367866 
L 452.2983 184.112764 
L 453.74848 186.968154 
L 455.198659 188.310773 
L 456.648838 191.110441 
L 458.099018 198.449554 
L 459.549197 209.446792 
L 460.999376 218.370263 
L 462.449556 218.971804 
L 463.899735 209.761981 
L 468.250273 164.95089 
L 469.700452 155.477445 
L 471.150632 150.110756 
L 472.600811 148.266306 
L 474.05099 149.558229 
L 475.501169 154.490748 
L 476.951349 163.826242 
L 479.851707 190.36097 
L 481.301887 200.269224 
L 482.752066 204.376376 
L 484.202245 203.678009 
L 485.652425 200.691415 
L 487.102604 197.08974 
L 488.552783 193.034894 
L 490.002963 188.171867 
L 491.453142 182.805251 
L 492.903321 177.979882 
L 494.353501 174.597701 
L 495.80368 172.770697 
L 497.253859 172.004319 
L 501.604397 171.19456 
L 503.054577 170.140636 
L 504.504756 167.915082 
L 507.405115 161.264877 
L 508.855294 160.195092 
L 510.305473 162.580742 
L 513.205832 172.077709 
L 514.656011 174.967785 
L 516.106191 176.193446 
L 517.55637 176.831855 
L 519.006549 177.685778 
L 520.456729 179.144017 
L 521.906908 181.554475 
L 523.357087 185.149216 
L 524.807266 189.78373 
L 527.707625 200.262047 
L 529.157804 204.178458 
L 530.607984 204.872383 
L 532.058163 201.1987 
L 534.958522 187.254519 
L 536.408701 182.392052 
L 537.85888 179.99181 
L 539.30906 178.680813 
L 540.759239 177.176591 
L 543.659598 173.5841 
L 545.109777 172.471318 
L 546.559956 171.940217 
L 548.010136 171.750628 
L 550.910494 171.706522 
L 553.810853 171.913262 
L 555.261032 172.231278 
L 558.161391 173.168325 
L 559.61157 173.365576 
L 561.06175 173.167637 
L 563.962108 172.223859 
L 565.412288 171.898018 
L 568.312646 171.671971 
L 571.213005 171.466871 
L 572.663184 171.091936 
L 574.113363 170.295104 
L 575.563543 168.693814 
L 577.013722 165.781059 
L 579.914081 157.53326 
L 581.36426 155.925963 
L 582.814439 158.039045 
L 584.264619 162.839322 
L 585.714798 168.056987 
L 587.164977 172.010101 
L 588.615157 174.08194 
L 590.065336 174.17238 
L 591.515515 172.410242 
L 592.965695 169.290259 
L 594.415874 165.766283 
L 595.866053 163.120757 
L 597.316233 162.502425 
L 598.766412 164.160084 
L 601.666771 169.983036 
L 603.11695 171.78595 
L 604.567129 172.471997 
L 606.017309 172.374745 
L 607.467488 171.820242 
L 608.917667 171.141417 
L 610.367847 170.898758 
L 611.818026 171.658958 
L 613.268205 173.198361 
L 614.718385 174.144664 
L 616.168564 173.157438 
L 617.618743 170.612921 
L 619.068923 168.413691 
L 620.519102 167.953673 
L 621.969281 168.937877 
L 623.41946 170.231421 
L 624.86964 171.109142 
L 626.319819 171.510946 
L 629.220178 171.67792 
L 636.471074 171.685925 
L 636.471074 171.685925 
" clip-path="url(#p8cf0d44977)" style="fill: none; stroke: #9467bd; stroke-width: 2; stroke-linecap: square"/>
   </g>
   <g id="line2d_24">
    <path d="M 405.892562 171.685925 
L 434.896148 171.724689 
L 437.796507 171.972356 
L 440.696866 172.464527 
L 442.147045 172.568196 
L 443.597224 172.464527 
L 447.947762 171.805327 
L 450.848121 171.695726 
L 462.449556 171.716724 
L 463.899735 171.791178 
L 465.349914 171.986033 
L 466.800094 172.378544 
L 469.700452 173.517042 
L 471.150632 173.751988 
L 472.600811 173.505524 
L 475.501169 172.356151 
L 476.951349 171.97611 
L 478.401528 171.835242 
L 479.851707 171.941667 
L 481.301887 172.407744 
L 482.752066 173.414045 
L 487.102604 177.883445 
L 488.552783 179.17549 
L 490.002963 181.847406 
L 491.453142 187.036879 
L 492.903321 193.928895 
L 494.353501 199.876707 
L 495.80368 202.661512 
L 497.253859 202.381292 
L 498.704039 200.924683 
L 500.154218 199.899381 
L 501.604397 199.205148 
L 503.054577 197.413774 
L 504.504756 193.405471 
L 507.405115 181.596019 
L 508.855294 177.120474 
L 510.305473 175.018663 
L 511.755653 175.298626 
L 513.205832 177.267276 
L 514.656011 179.554458 
L 516.106191 180.558624 
L 517.55637 179.510222 
L 520.456729 174.572009 
L 521.906908 172.917655 
L 523.357087 172.173999 
L 524.807266 172.020887 
L 529.157804 172.415153 
L 532.058163 172.154507 
L 533.508342 172.028298 
L 534.958522 172.11067 
L 536.408701 172.500296 
L 539.30906 173.812402 
L 540.759239 174.088412 
L 542.209418 173.788754 
L 545.109777 172.36067 
L 546.559956 171.855413 
L 548.010136 171.614278 
L 550.910494 171.583515 
L 556.711212 171.683952 
L 568.312646 171.772344 
L 574.113363 172.242657 
L 577.013722 171.925293 
L 579.914081 171.688301 
L 581.36426 171.704721 
L 582.814439 171.847676 
L 584.264619 172.328935 
L 585.714798 173.629392 
L 587.164977 176.305148 
L 590.065336 184.18 
L 591.515515 185.836481 
L 592.965695 184.171446 
L 595.866053 176.278666 
L 597.316233 173.600446 
L 598.766412 172.307476 
L 600.216591 171.843077 
L 603.11695 171.69067 
L 611.818026 171.753755 
L 613.268205 171.954197 
L 614.718385 172.520153 
L 616.168564 173.722374 
L 617.618743 175.66832 
L 619.068923 178.19769 
L 620.519102 181.331409 
L 621.969281 185.810921 
L 623.41946 192.310014 
L 624.86964 199.448708 
L 626.319819 203.560013 
L 627.769998 201.863711 
L 630.670357 189.501645 
L 632.120536 187.500018 
L 633.570716 190.72548 
L 635.020895 196.88226 
L 636.471074 201.695945 
L 636.471074 201.695945 
" clip-path="url(#p8cf0d44977)" style="fill: none; stroke: #1f77b4; stroke-width: 2; stroke-linecap: square"/>
   </g>
   <g id="line2d_25">
    <path d="M 405.892562 174.414117 
L 407.342741 175.066616 
L 408.792921 176.126134 
L 411.693279 178.46461 
L 413.143459 179.350211 
L 414.593638 179.818128 
L 416.043817 179.74815 
L 417.493997 179.040827 
L 420.394355 176.734958 
L 421.844535 176.370534 
L 423.294714 176.798416 
L 424.744893 177.581173 
L 426.195073 178.610691 
L 427.645252 180.421229 
L 429.095431 183.459536 
L 430.54561 187.293942 
L 431.99579 190.696882 
L 433.445969 192.267793 
L 434.896148 191.132591 
L 436.346328 187.635629 
L 437.796507 183.328514 
L 439.246686 179.727347 
L 443.597224 171.706884 
L 445.047404 167.828136 
L 446.497583 162.946706 
L 447.947762 157.00884 
L 449.397942 150.490169 
L 450.848121 145.255664 
L 452.2983 144.116816 
L 453.74848 148.350781 
L 456.648838 163.356145 
L 458.099018 168.229649 
L 459.549197 170.566304 
L 460.999376 171.403399 
L 462.449556 171.630292 
L 466.800094 171.677206 
L 468.250273 171.629074 
L 469.700452 171.397212 
L 471.150632 170.541828 
L 472.600811 168.154238 
L 474.05099 163.175151 
L 476.951349 147.8571 
L 478.401528 143.553387 
L 479.851707 144.745988 
L 481.301887 150.09512 
L 482.752066 156.640293 
L 484.202245 162.323878 
L 485.652425 166.501318 
L 487.102604 169.254947 
L 490.002963 173.05826 
L 491.453142 176.223813 
L 494.353501 185.35719 
L 495.80368 187.375575 
L 497.253859 185.613517 
L 500.154218 176.830458 
L 501.604397 173.831803 
L 503.054577 172.382791 
L 504.504756 171.862166 
L 505.954935 171.720629 
L 511.755653 171.685925 
L 516.106191 171.713319 
L 517.55637 171.825044 
L 519.006549 172.236154 
L 520.456729 173.380751 
L 521.906908 175.751602 
L 524.807266 182.742109 
L 526.257446 184.240485 
L 527.707625 182.899694 
L 529.157804 179.93644 
L 530.607984 177.824611 
L 532.058163 178.529238 
L 533.508342 182.307985 
L 534.958522 187.453159 
L 536.408701 191.311404 
L 537.85888 192.530217 
L 539.30906 192.58037 
L 540.759239 194.361604 
L 542.209418 199.114645 
L 545.109777 211.727794 
L 546.559956 220.066144 
L 548.010136 234.509989 
L 550.910494 278.176262 
L 552.360674 293.3616 
L 553.810853 296.688562 
L 555.261032 289.012607 
L 558.161391 259.468332 
L 559.61157 248.553173 
L 561.06175 244.145154 
L 562.511929 243.798474 
L 563.962108 242.133577 
L 565.412288 234.877167 
L 566.862467 221.744976 
L 568.312646 206.050286 
L 569.762826 191.945045 
L 571.213005 182.001134 
L 572.663184 176.748796 
L 574.113363 175.733119 
L 575.563543 178.566866 
L 577.013722 184.847205 
L 579.914081 200.983991 
L 581.36426 205.074508 
L 582.814439 203.598482 
L 584.264619 196.921692 
L 585.714798 187.674274 
L 587.164977 179.313812 
L 588.615157 174.018404 
L 590.065336 171.780639 
L 591.515515 171.318607 
L 595.866053 171.720806 
L 597.316233 171.923452 
L 598.766412 172.423138 
L 600.216591 173.400718 
L 601.666771 174.654815 
L 603.11695 175.227523 
L 604.567129 173.663126 
L 606.017309 169.220852 
L 607.467488 163.107238 
L 608.917667 158.188575 
L 610.367847 156.948876 
L 611.818026 159.535561 
L 613.268205 163.912094 
L 614.718385 167.78891 
L 616.168564 170.150724 
L 617.618743 171.210307 
L 619.068923 171.570277 
L 621.969281 171.682922 
L 636.471074 171.685925 
L 636.471074 171.685925 
" clip-path="url(#p8cf0d44977)" style="fill: none; stroke: #d62728; stroke-width: 2; stroke-linecap: square"/>
   </g>
   <g id="line2d_26">
    <path d="M 405.892562 171.685925 
L 408.792921 171.713521 
L 410.2431 171.826072 
L 411.693279 172.240217 
L 413.143459 173.393266 
L 414.593638 175.781624 
L 417.493997 182.81919 
L 418.944176 184.301567 
L 420.394355 182.81919 
L 423.294714 175.781624 
L 424.744893 173.393266 
L 426.195073 172.240217 
L 427.645252 171.82805 
L 429.095431 171.726418 
L 430.54561 171.755651 
L 431.99579 171.944961 
L 433.445969 172.483814 
L 434.896148 173.602276 
L 437.796507 176.966387 
L 439.246686 177.890815 
L 440.696866 177.853782 
L 442.147045 177.625836 
L 443.597224 178.16804 
L 445.047404 179.493782 
L 446.497583 180.567316 
L 447.947762 180.348589 
L 449.397942 178.727079 
L 452.2983 174.345008 
L 453.74848 172.912656 
L 455.198659 172.147601 
L 456.648838 171.826022 
L 459.549197 171.692149 
L 491.453142 171.685925 
L 595.866053 171.660213 
L 597.316233 171.555351 
L 598.766412 171.169494 
L 600.216591 170.095208 
L 601.666771 167.869993 
L 604.567129 161.313146 
L 606.017309 159.932027 
L 607.467488 161.313146 
L 610.367847 167.869993 
L 611.818026 170.09743 
L 613.268205 171.183987 
L 614.718385 171.628949 
L 616.168564 171.951299 
L 617.618743 172.580055 
L 619.068923 173.846329 
L 621.969281 177.730158 
L 623.41946 178.93958 
L 624.86964 179.141378 
L 626.319819 179.109356 
L 627.769998 180.021489 
L 629.220178 182.547868 
L 632.120536 189.803941 
L 633.570716 191.105744 
L 635.020895 189.825236 
L 636.471074 187.970008 
L 636.471074 187.970008 
" clip-path="url(#p8cf0d44977)" style="fill: none; stroke: #ff7f0e; stroke-width: 2; stroke-linecap: square"/>
   </g>
   <g id="LineCollection_1">
    <path d="M 521.877904 277.614501 
L 521.877904 121.364096 
" clip-path="url(#p8cf0d44977)" style="fill: none; stroke-dasharray: 7.4,3.2; stroke-dashoffset: 0; stroke: #000000; stroke-width: 2"/>
    <path d="M 536.379697 277.614501 
L 536.379697 121.364096 
" clip-path="url(#p8cf0d44977)" style="fill: none; stroke-dasharray: 7.4,3.2; stroke-dashoffset: 0; stroke: #000000; stroke-width: 2"/>
    <path d="M 565.383284 277.614501 
L 565.383284 121.364096 
" clip-path="url(#p8cf0d44977)" style="fill: none; stroke-dasharray: 7.4,3.2; stroke-dashoffset: 0; stroke: #000000; stroke-width: 2"/>
    <path d="M 623.390457 277.614501 
L 623.390457 121.364096 
" clip-path="url(#p8cf0d44977)" style="fill: none; stroke-dasharray: 7.4,3.2; stroke-dashoffset: 0; stroke: #000000; stroke-width: 2"/>
   </g>
   <g id="patch_8">
    <path d="M 394.363636 333.490909 
L 394.363636 86.4 
" style="fill: none; stroke: #000000; stroke-width: 0.8; stroke-linejoin: miter; stroke-linecap: square"/>
   </g>
   <g id="patch_9">
    <path d="M 648 333.490909 
L 648 86.4 
" style="fill: none; stroke: #000000; stroke-width: 0.8; stroke-linejoin: miter; stroke-linecap: square"/>
   </g>
   <g id="patch_10">
    <path d="M 394.363636 333.490909 
L 648 333.490909 
" style="fill: none; stroke: #000000; stroke-width: 0.8; stroke-linejoin: miter; stroke-linecap: square"/>
   </g>
   <g id="patch_11">
    <path d="M 394.363636 86.4 
L 648 86.4 
" style="fill: none; stroke: #000000; stroke-width: 0.8; stroke-linejoin: miter; stroke-linecap: square"/>
   </g>
   <g id="text_23">
    <!-- unit_116 -->
    <g transform="translate(495.105256 80.4)scale(0.12 -0.12)">
     <defs>
      <path id="DejaVuSans-75" d="M 544 1381 
L 544 3500 
L 1119 3500 
L 1119 1403 
Q 1119 906 1312 657 
Q 1506 409 1894 409 
Q 2359 409 2629 706 
Q 2900 1003 2900 1516 
L 2900 3500 
L 3475 3500 
L 3475 0 
L 2900 0 
L 2900 538 
Q 2691 219 2414 64 
Q 2138 -91 1772 -91 
Q 1169 -91 856 284 
Q 544 659 544 1381 
z
M 1991 3584 
L 1991 3584 
z
" transform="scale(0.015625)"/>
      <path id="DejaVuSans-6e" d="M 3513 2113 
L 3513 0 
L 2938 0 
L 2938 2094 
Q 2938 2591 2744 2837 
Q 2550 3084 2163 3084 
Q 1697 3084 1428 2787 
Q 1159 2491 1159 1978 
L 1159 0 
L 581 0 
L 581 3500 
L 1159 3500 
L 1159 2956 
Q 1366 3272 1645 3428 
Q 1925 3584 2291 3584 
Q 2894 3584 3203 3211 
Q 3513 2838 3513 2113 
z
" transform="scale(0.015625)"/>
      <path id="DejaVuSans-69" d="M 603 3500 
L 1178 3500 
L 1178 0 
L 603 0 
L 603 3500 
z
M 603 4863 
L 1178 4863 
L 1178 4134 
L 603 4134 
L 603 4863 
z
" transform="scale(0.015625)"/>
      <path id="DejaVuSans-74" d="M 1172 4494 
L 1172 3500 
L 2356 3500 
L 2356 3053 
L 1172 3053 
L 1172 1153 
Q 1172 725 1289 603 
Q 1406 481 1766 481 
L 2356 481 
L 2356 0 
L 1766 0 
Q 1100 0 847 248 
Q 594 497 594 1153 
L 594 3053 
L 172 3053 
L 172 3500 
L 594 3500 
L 594 4494 
L 1172 4494 
z
" transform="scale(0.015625)"/>
      <path id="DejaVuSans-5f" d="M 3263 -1063 
L 3263 -1509 
L -63 -1509 
L -63 -1063 
L 3263 -1063 
z
" transform="scale(0.015625)"/>
     </defs>
     <use xlink:href="#DejaVuSans-75"/>
     <use xlink:href="#DejaVuSans-6e" x="63.378906"/>
     <use xlink:href="#DejaVuSans-69" x="126.757812"/>
     <use xlink:href="#DejaVuSans-74" x="154.541016"/>
     <use xlink:href="#DejaVuSans-5f" x="193.75"/>
     <use xlink:href="#DejaVuSans-31" x="243.75"/>
     <use xlink:href="#DejaVuSans-31" x="307.373047"/>
     <use xlink:href="#DejaVuSans-36" x="370.996094"/>
    </g>
   </g>
  </g>
  <g id="axes_3">
   <g id="patch_12">
    <path d="M 90 630 
L 343.636364 630 
L 343.636364 382.909091 
L 90 382.909091 
z
" style="fill: #ffffff"/>
   </g>
   <g id="matplotlib.axis_5">
    <g id="xtick_12">
     <g id="line2d_27">
      <g>
       <use xlink:href="#m5fa22c3ac2" x="90" y="630" style="stroke: #000000; stroke-width: 0.8"/>
      </g>
     </g>
     <g id="text_24">
      <!-- 0.0 -->
      <g transform="translate(82.048438 644.598437)scale(0.1 -0.1)">
       <use xlink:href="#DejaVuSans-30"/>
       <use xlink:href="#DejaVuSans-2e" x="63.623047"/>
       <use xlink:href="#DejaVuSans-30" x="95.410156"/>
      </g>
     </g>
    </g>
    <g id="xtick_13">
     <g id="line2d_28">
      <g>
       <use xlink:href="#m5fa22c3ac2" x="140.727273" y="630" style="stroke: #000000; stroke-width: 0.8"/>
      </g>
     </g>
     <g id="text_25">
      <!-- 0.2 -->
      <g transform="translate(132.77571 644.598437)scale(0.1 -0.1)">
       <use xlink:href="#DejaVuSans-30"/>
       <use xlink:href="#DejaVuSans-2e" x="63.623047"/>
       <use xlink:href="#DejaVuSans-32" x="95.410156"/>
      </g>
     </g>
    </g>
    <g id="xtick_14">
     <g id="line2d_29">
      <g>
       <use xlink:href="#m5fa22c3ac2" x="191.454545" y="630" style="stroke: #000000; stroke-width: 0.8"/>
      </g>
     </g>
     <g id="text_26">
      <!-- 0.4 -->
      <g transform="translate(183.502983 644.598437)scale(0.1 -0.1)">
       <use xlink:href="#DejaVuSans-30"/>
       <use xlink:href="#DejaVuSans-2e" x="63.623047"/>
       <use xlink:href="#DejaVuSans-34" x="95.410156"/>
      </g>
     </g>
    </g>
    <g id="xtick_15">
     <g id="line2d_30">
      <g>
       <use xlink:href="#m5fa22c3ac2" x="242.181818" y="630" style="stroke: #000000; stroke-width: 0.8"/>
      </g>
     </g>
     <g id="text_27">
      <!-- 0.6 -->
      <g transform="translate(234.230256 644.598437)scale(0.1 -0.1)">
       <use xlink:href="#DejaVuSans-30"/>
       <use xlink:href="#DejaVuSans-2e" x="63.623047"/>
       <use xlink:href="#DejaVuSans-36" x="95.410156"/>
      </g>
     </g>
    </g>
    <g id="xtick_16">
     <g id="line2d_31">
      <g>
       <use xlink:href="#m5fa22c3ac2" x="292.909091" y="630" style="stroke: #000000; stroke-width: 0.8"/>
      </g>
     </g>
     <g id="text_28">
      <!-- 0.8 -->
      <g transform="translate(284.957528 644.598437)scale(0.1 -0.1)">
       <use xlink:href="#DejaVuSans-30"/>
       <use xlink:href="#DejaVuSans-2e" x="63.623047"/>
       <use xlink:href="#DejaVuSans-38" x="95.410156"/>
      </g>
     </g>
    </g>
    <g id="xtick_17">
     <g id="line2d_32">
      <g>
       <use xlink:href="#m5fa22c3ac2" x="343.636364" y="630" style="stroke: #000000; stroke-width: 0.8"/>
      </g>
     </g>
     <g id="text_29">
      <!-- 1.0 -->
      <g transform="translate(335.684801 644.598437)scale(0.1 -0.1)">
       <use xlink:href="#DejaVuSans-31"/>
       <use xlink:href="#DejaVuSans-2e" x="63.623047"/>
       <use xlink:href="#DejaVuSans-30" x="95.410156"/>
      </g>
     </g>
    </g>
   </g>
   <g id="matplotlib.axis_6">
    <g id="ytick_12">
     <g id="line2d_33">
      <g>
       <use xlink:href="#mb04358c03d" x="90" y="630" style="stroke: #000000; stroke-width: 0.8"/>
      </g>
     </g>
     <g id="text_30">
      <!-- 0.0 -->
      <g transform="translate(67.096875 633.799219)scale(0.1 -0.1)">
       <use xlink:href="#DejaVuSans-30"/>
       <use xlink:href="#DejaVuSans-2e" x="63.623047"/>
       <use xlink:href="#DejaVuSans-30" x="95.410156"/>
      </g>
     </g>
    </g>
    <g id="ytick_13">
     <g id="line2d_34">
      <g>
       <use xlink:href="#mb04358c03d" x="90" y="580.581818" style="stroke: #000000; stroke-width: 0.8"/>
      </g>
     </g>
     <g id="text_31">
      <!-- 0.2 -->
      <g transform="translate(67.096875 584.381037)scale(0.1 -0.1)">
       <use xlink:href="#DejaVuSans-30"/>
       <use xlink:href="#DejaVuSans-2e" x="63.623047"/>
       <use xlink:href="#DejaVuSans-32" x="95.410156"/>
      </g>
     </g>
    </g>
    <g id="ytick_14">
     <g id="line2d_35">
      <g>
       <use xlink:href="#mb04358c03d" x="90" y="531.163636" style="stroke: #000000; stroke-width: 0.8"/>
      </g>
     </g>
     <g id="text_32">
      <!-- 0.4 -->
      <g transform="translate(67.096875 534.962855)scale(0.1 -0.1)">
       <use xlink:href="#DejaVuSans-30"/>
       <use xlink:href="#DejaVuSans-2e" x="63.623047"/>
       <use xlink:href="#DejaVuSans-34" x="95.410156"/>
      </g>
     </g>
    </g>
    <g id="ytick_15">
     <g id="line2d_36">
      <g>
       <use xlink:href="#mb04358c03d" x="90" y="481.745455" style="stroke: #000000; stroke-width: 0.8"/>
      </g>
     </g>
     <g id="text_33">
      <!-- 0.6 -->
      <g transform="translate(67.096875 485.544673)scale(0.1 -0.1)">
       <use xlink:href="#DejaVuSans-30"/>
       <use xlink:href="#DejaVuSans-2e" x="63.623047"/>
       <use xlink:href="#DejaVuSans-36" x="95.410156"/>
      </g>
     </g>
    </g>
    <g id="ytick_16">
     <g id="line2d_37">
      <g>
       <use xlink:href="#mb04358c03d" x="90" y="432.327273" style="stroke: #000000; stroke-width: 0.8"/>
      </g>
     </g>
     <g id="text_34">
      <!-- 0.8 -->
      <g transform="translate(67.096875 436.126491)scale(0.1 -0.1)">
       <use xlink:href="#DejaVuSans-30"/>
       <use xlink:href="#DejaVuSans-2e" x="63.623047"/>
       <use xlink:href="#DejaVuSans-38" x="95.410156"/>
      </g>
     </g>
    </g>
    <g id="ytick_17">
     <g id="line2d_38">
      <g>
       <use xlink:href="#mb04358c03d" x="90" y="382.909091" style="stroke: #000000; stroke-width: 0.8"/>
      </g>
     </g>
     <g id="text_35">
      <!-- 1.0 -->
      <g transform="translate(67.096875 386.70831)scale(0.1 -0.1)">
       <use xlink:href="#DejaVuSans-31"/>
       <use xlink:href="#DejaVuSans-2e" x="63.623047"/>
       <use xlink:href="#DejaVuSans-30" x="95.410156"/>
      </g>
     </g>
    </g>
   </g>
   <g id="patch_13">
    <path d="M 90 630 
L 90 382.909091 
" style="fill: none; stroke: #000000; stroke-width: 0.8; stroke-linejoin: miter; stroke-linecap: square"/>
   </g>
   <g id="patch_14">
    <path d="M 343.636364 630 
L 343.636364 382.909091 
" style="fill: none; stroke: #000000; stroke-width: 0.8; stroke-linejoin: miter; stroke-linecap: square"/>
   </g>
   <g id="patch_15">
    <path d="M 90 630 
L 343.636364 630 
" style="fill: none; stroke: #000000; stroke-width: 0.8; stroke-linejoin: miter; stroke-linecap: square"/>
   </g>
   <g id="patch_16">
    <path d="M 90 382.909091 
L 343.636364 382.909091 
" style="fill: none; stroke: #000000; stroke-width: 0.8; stroke-linejoin: miter; stroke-linecap: square"/>
   </g>
  </g>
  <g id="axes_4">
   <g id="patch_17">
    <path d="M 394.363636 630 
L 648 630 
L 648 382.909091 
L 394.363636 382.909091 
z
" style="fill: #ffffff"/>
   </g>
   <g id="matplotlib.axis_7">
    <g id="xtick_18">
     <g id="line2d_39">
      <g>
       <use xlink:href="#m5fa22c3ac2" x="405.863558" y="630" style="stroke: #000000; stroke-width: 0.8"/>
      </g>
     </g>
     <g id="text_36">
      <!-- 0 -->
      <g transform="translate(402.682308 644.598437)scale(0.1 -0.1)">
       <use xlink:href="#DejaVuSans-30"/>
      </g>
     </g>
    </g>
    <g id="xtick_19">
     <g id="line2d_40">
      <g>
       <use xlink:href="#m5fa22c3ac2" x="463.870731" y="630" style="stroke: #000000; stroke-width: 0.8"/>
      </g>
     </g>
     <g id="text_37">
      <!-- 2000 -->
      <g transform="translate(451.145731 644.598437)scale(0.1 -0.1)">
       <use xlink:href="#DejaVuSans-32"/>
       <use xlink:href="#DejaVuSans-30" x="63.623047"/>
       <use xlink:href="#DejaVuSans-30" x="127.246094"/>
       <use xlink:href="#DejaVuSans-30" x="190.869141"/>
      </g>
     </g>
    </g>
    <g id="xtick_20">
     <g id="line2d_41">
      <g>
       <use xlink:href="#m5fa22c3ac2" x="521.877904" y="630" style="stroke: #000000; stroke-width: 0.8"/>
      </g>
     </g>
     <g id="text_38">
      <!-- 4000 -->
      <g transform="translate(509.152904 644.598437)scale(0.1 -0.1)">
       <use xlink:href="#DejaVuSans-34"/>
       <use xlink:href="#DejaVuSans-30" x="63.623047"/>
       <use xlink:href="#DejaVuSans-30" x="127.246094"/>
       <use xlink:href="#DejaVuSans-30" x="190.869141"/>
      </g>
     </g>
    </g>
    <g id="xtick_21">
     <g id="line2d_42">
      <g>
       <use xlink:href="#m5fa22c3ac2" x="579.885077" y="630" style="stroke: #000000; stroke-width: 0.8"/>
      </g>
     </g>
     <g id="text_39">
      <!-- 6000 -->
      <g transform="translate(567.160077 644.598437)scale(0.1 -0.1)">
       <use xlink:href="#DejaVuSans-36"/>
       <use xlink:href="#DejaVuSans-30" x="63.623047"/>
       <use xlink:href="#DejaVuSans-30" x="127.246094"/>
       <use xlink:href="#DejaVuSans-30" x="190.869141"/>
      </g>
     </g>
    </g>
    <g id="xtick_22">
     <g id="line2d_43">
      <g>
       <use xlink:href="#m5fa22c3ac2" x="637.89225" y="630" style="stroke: #000000; stroke-width: 0.8"/>
      </g>
     </g>
     <g id="text_40">
      <!-- 8000 -->
      <g transform="translate(625.16725 644.598437)scale(0.1 -0.1)">
       <use xlink:href="#DejaVuSans-38"/>
       <use xlink:href="#DejaVuSans-30" x="63.623047"/>
       <use xlink:href="#DejaVuSans-30" x="127.246094"/>
       <use xlink:href="#DejaVuSans-30" x="190.869141"/>
      </g>
     </g>
    </g>
   </g>
   <g id="matplotlib.axis_8">
    <g id="ytick_18">
     <g id="line2d_44">
      <g>
       <use xlink:href="#mb04358c03d" x="394.363636" y="630" style="stroke: #000000; stroke-width: 0.8"/>
      </g>
     </g>
     <g id="text_41">
      <!-- −2.0 -->
      <g transform="translate(363.080824 633.799219)scale(0.1 -0.1)">
       <use xlink:href="#DejaVuSans-2212"/>
       <use xlink:href="#DejaVuSans-32" x="83.789062"/>
       <use xlink:href="#DejaVuSans-2e" x="147.412109"/>
       <use xlink:href="#DejaVuSans-30" x="179.199219"/>
      </g>
     </g>
    </g>
    <g id="ytick_19">
     <g id="line2d_45">
      <g>
       <use xlink:href="#mb04358c03d" x="394.363636" y="596.615097" style="stroke: #000000; stroke-width: 0.8"/>
      </g>
     </g>
     <g id="text_42">
      <!-- −1.5 -->
      <g transform="translate(363.080824 600.414316)scale(0.1 -0.1)">
       <defs>
        <path id="DejaVuSans-35" d="M 691 4666 
L 3169 4666 
L 3169 4134 
L 1269 4134 
L 1269 2991 
Q 1406 3038 1543 3061 
Q 1681 3084 1819 3084 
Q 2600 3084 3056 2656 
Q 3513 2228 3513 1497 
Q 3513 744 3044 326 
Q 2575 -91 1722 -91 
Q 1428 -91 1123 -41 
Q 819 9 494 109 
L 494 744 
Q 775 591 1075 516 
Q 1375 441 1709 441 
Q 2250 441 2565 725 
Q 2881 1009 2881 1497 
Q 2881 1984 2565 2268 
Q 2250 2553 1709 2553 
Q 1456 2553 1204 2497 
Q 953 2441 691 2322 
L 691 4666 
z
" transform="scale(0.015625)"/>
       </defs>
       <use xlink:href="#DejaVuSans-2212"/>
       <use xlink:href="#DejaVuSans-31" x="83.789062"/>
       <use xlink:href="#DejaVuSans-2e" x="147.412109"/>
       <use xlink:href="#DejaVuSans-35" x="179.199219"/>
      </g>
     </g>
    </g>
    <g id="ytick_20">
     <g id="line2d_46">
      <g>
       <use xlink:href="#mb04358c03d" x="394.363636" y="563.230194" style="stroke: #000000; stroke-width: 0.8"/>
      </g>
     </g>
     <g id="text_43">
      <!-- −1.0 -->
      <g transform="translate(363.080824 567.029412)scale(0.1 -0.1)">
       <use xlink:href="#DejaVuSans-2212"/>
       <use xlink:href="#DejaVuSans-31" x="83.789062"/>
       <use xlink:href="#DejaVuSans-2e" x="147.412109"/>
       <use xlink:href="#DejaVuSans-30" x="179.199219"/>
      </g>
     </g>
    </g>
    <g id="ytick_21">
     <g id="line2d_47">
      <g>
       <use xlink:href="#mb04358c03d" x="394.363636" y="529.84529" style="stroke: #000000; stroke-width: 0.8"/>
      </g>
     </g>
     <g id="text_44">
      <!-- −0.5 -->
      <g transform="translate(363.080824 533.644509)scale(0.1 -0.1)">
       <use xlink:href="#DejaVuSans-2212"/>
       <use xlink:href="#DejaVuSans-30" x="83.789062"/>
       <use xlink:href="#DejaVuSans-2e" x="147.412109"/>
       <use xlink:href="#DejaVuSans-35" x="179.199219"/>
      </g>
     </g>
    </g>
    <g id="ytick_22">
     <g id="line2d_48">
      <g>
       <use xlink:href="#mb04358c03d" x="394.363636" y="496.460387" style="stroke: #000000; stroke-width: 0.8"/>
      </g>
     </g>
     <g id="text_45">
      <!-- 0.0 -->
      <g transform="translate(371.460511 500.259606)scale(0.1 -0.1)">
       <use xlink:href="#DejaVuSans-30"/>
       <use xlink:href="#DejaVuSans-2e" x="63.623047"/>
       <use xlink:href="#DejaVuSans-30" x="95.410156"/>
      </g>
     </g>
    </g>
    <g id="ytick_23">
     <g id="line2d_49">
      <g>
       <use xlink:href="#mb04358c03d" x="394.363636" y="463.075484" style="stroke: #000000; stroke-width: 0.8"/>
      </g>
     </g>
     <g id="text_46">
      <!-- 0.5 -->
      <g transform="translate(371.460511 466.874703)scale(0.1 -0.1)">
       <use xlink:href="#DejaVuSans-30"/>
       <use xlink:href="#DejaVuSans-2e" x="63.623047"/>
       <use xlink:href="#DejaVuSans-35" x="95.410156"/>
      </g>
     </g>
    </g>
    <g id="ytick_24">
     <g id="line2d_50">
      <g>
       <use xlink:href="#mb04358c03d" x="394.363636" y="429.690581" style="stroke: #000000; stroke-width: 0.8"/>
      </g>
     </g>
     <g id="text_47">
      <!-- 1.0 -->
      <g transform="translate(371.460511 433.489799)scale(0.1 -0.1)">
       <use xlink:href="#DejaVuSans-31"/>
       <use xlink:href="#DejaVuSans-2e" x="63.623047"/>
       <use xlink:href="#DejaVuSans-30" x="95.410156"/>
      </g>
     </g>
    </g>
    <g id="ytick_25">
     <g id="line2d_51">
      <g>
       <use xlink:href="#mb04358c03d" x="394.363636" y="396.305677" style="stroke: #000000; stroke-width: 0.8"/>
      </g>
     </g>
     <g id="text_48">
      <!-- 1.5 -->
      <g transform="translate(371.460511 400.104896)scale(0.1 -0.1)">
       <use xlink:href="#DejaVuSans-31"/>
       <use xlink:href="#DejaVuSans-2e" x="63.623047"/>
       <use xlink:href="#DejaVuSans-35" x="95.410156"/>
      </g>
     </g>
    </g>
   </g>
   <g id="line2d_52">
    <path d="M 405.892562 571.068847 
L 407.342741 560.640841 
L 410.2431 636.103591 
L 411.693279 572.128292 
L 413.143459 531.505381 
L 414.593638 543.641255 
L 416.043817 529.6164 
L 417.493997 489.866485 
L 418.944176 415.25522 
L 420.394355 390.860135 
L 421.844535 535.052522 
L 423.294714 654.660664 
L 424.744893 666.736616 
L 426.195073 653.340059 
L 427.645252 591.209208 
L 429.095431 535.256114 
L 430.54561 521.62506 
L 431.99579 512.152251 
L 433.445969 485.267237 
L 434.896148 477.66139 
L 436.346328 533.681716 
L 437.796507 554.554674 
L 439.246686 515.427749 
L 440.696866 497.78233 
L 442.147045 505.264576 
L 443.597224 489.917073 
L 445.047404 472.330081 
L 446.497583 480.585771 
L 447.947762 487.505603 
L 449.397942 496.200016 
L 450.848121 532.040697 
L 452.2983 593.006745 
L 453.74848 611.104763 
L 455.198659 555.925409 
L 456.648838 509.206782 
L 458.099018 501.563431 
L 459.549197 519.137792 
L 460.999376 553.108893 
L 462.449556 566.364566 
L 463.899735 550.287197 
L 465.349914 538.26874 
L 466.800094 535.312251 
L 468.250273 582.958114 
L 469.700452 641.405545 
L 471.150632 625.032501 
L 472.600811 597.18167 
L 474.05099 578.593894 
L 475.501169 603.750968 
L 477.350992 721 
M 483.624391 721 
L 484.202245 671.756379 
L 487.102604 536.08071 
L 488.552783 512.90956 
L 490.002963 526.121679 
L 491.453142 513.971588 
L 492.903321 472.684973 
L 494.353501 445.176776 
L 495.80368 456.465584 
L 497.253859 466.541671 
L 498.704039 480.252696 
L 501.604397 526.370302 
L 503.054577 535.333247 
L 504.504756 537.290285 
L 505.954935 555.33751 
L 507.405115 571.753892 
L 508.855294 565.157731 
L 510.305473 546.273545 
L 511.755653 525.487581 
L 513.205832 512.807922 
L 514.656011 498.436222 
L 516.106191 492.317454 
L 517.55637 516.148529 
L 519.006549 542.816534 
L 520.456729 542.477552 
L 521.906908 554.538189 
L 523.357087 610.195115 
L 524.807266 693.637973 
L 525.733802 721 
M 526.749163 721 
L 527.707625 690.857297 
L 529.157804 599.507676 
L 530.607984 546.200454 
L 532.058163 522.380613 
L 533.508342 505.754369 
L 534.958522 464.796621 
L 536.408701 430.468605 
L 537.85888 484.739058 
L 539.30906 525.397588 
L 540.759239 515.042249 
L 542.209418 499.5713 
L 543.659598 444.973931 
L 545.109777 382.909091 
L 546.559956 429.424702 
L 548.010136 503.596485 
L 549.460315 495.209871 
L 550.910494 428.700815 
L 552.360674 471.890998 
L 553.810853 597.658009 
L 555.261032 604.937699 
L 556.711212 569.473603 
L 558.161391 594.440654 
L 559.61157 582.406678 
L 561.06175 528.902869 
L 562.511929 461.76873 
L 563.962108 434.219624 
L 565.412288 491.164292 
L 566.862467 512.006401 
L 568.312646 479.177814 
L 569.762826 479.173496 
L 571.213005 499.218545 
L 572.663184 513.803914 
L 574.113363 523.786335 
L 575.563543 524.380955 
L 577.013722 509.412638 
L 578.463901 499.08275 
L 579.914081 539.965217 
L 581.36426 603.609967 
L 582.814439 574.205407 
L 584.264619 509.767875 
L 585.714798 501.831751 
L 587.164977 520.374769 
L 588.615157 523.610051 
L 590.065336 498.166687 
L 591.515515 467.544915 
L 592.965695 488.924476 
L 594.415874 520.591119 
L 595.866053 510.660449 
L 597.316233 493.694642 
L 598.766412 502.53892 
L 600.216591 520.336759 
L 601.666771 530.79455 
L 603.11695 512.688347 
L 604.567129 450.311963 
L 606.017309 434.005832 
L 607.467488 482.064909 
L 608.917667 521.892402 
L 610.367847 543.582895 
L 611.818026 544.1046 
L 613.268205 529.540088 
L 614.718385 530.248137 
L 616.168564 524.289206 
L 617.618743 494.51556 
L 619.068923 497.255599 
L 620.519102 502.578052 
L 621.969281 492.361001 
L 623.41946 484.215737 
L 624.86964 475.214509 
L 626.319819 448.736181 
L 627.769998 436.384645 
L 629.220178 471.258123 
L 630.670357 502.421898 
L 632.120536 504.803347 
L 633.570716 493.943048 
L 635.020895 460.766357 
L 636.471074 390.140775 
L 636.471074 390.140775 
" clip-path="url(#p592dc5bfa9)" style="fill: none; stroke: #1f77b4; stroke-width: 1.5; stroke-linecap: square"/>
   </g>
   <g id="patch_18">
    <path d="M 394.363636 630 
L 394.363636 382.909091 
" style="fill: none; stroke: #000000; stroke-width: 0.8; stroke-linejoin: miter; stroke-linecap: square"/>
   </g>
   <g id="patch_19">
    <path d="M 648 630 
L 648 382.909091 
" style="fill: none; stroke: #000000; stroke-width: 0.8; stroke-linejoin: miter; stroke-linecap: square"/>
   </g>
   <g id="patch_20">
    <path d="M 394.363636 630 
L 648 630 
" style="fill: none; stroke: #000000; stroke-width: 0.8; stroke-linejoin: miter; stroke-linecap: square"/>
   </g>
   <g id="patch_21">
    <path d="M 394.363636 382.909091 
L 648 382.909091 
" style="fill: none; stroke: #000000; stroke-width: 0.8; stroke-linejoin: miter; stroke-linecap: square"/>
   </g>
   <g id="text_49">
    <!-- explained variance -->
    <g transform="translate(464.181818 376.909091)scale(0.12 -0.12)">
     <defs>
      <path id="DejaVuSans-65" d="M 3597 1894 
L 3597 1613 
L 953 1613 
Q 991 1019 1311 708 
Q 1631 397 2203 397 
Q 2534 397 2845 478 
Q 3156 559 3463 722 
L 3463 178 
Q 3153 47 2828 -22 
Q 2503 -91 2169 -91 
Q 1331 -91 842 396 
Q 353 884 353 1716 
Q 353 2575 817 3079 
Q 1281 3584 2069 3584 
Q 2775 3584 3186 3129 
Q 3597 2675 3597 1894 
z
M 3022 2063 
Q 3016 2534 2758 2815 
Q 2500 3097 2075 3097 
Q 1594 3097 1305 2825 
Q 1016 2553 972 2059 
L 3022 2063 
z
" transform="scale(0.015625)"/>
      <path id="DejaVuSans-78" d="M 3513 3500 
L 2247 1797 
L 3578 0 
L 2900 0 
L 1881 1375 
L 863 0 
L 184 0 
L 1544 1831 
L 300 3500 
L 978 3500 
L 1906 2253 
L 2834 3500 
L 3513 3500 
z
" transform="scale(0.015625)"/>
      <path id="DejaVuSans-70" d="M 1159 525 
L 1159 -1331 
L 581 -1331 
L 581 3500 
L 1159 3500 
L 1159 2969 
Q 1341 3281 1617 3432 
Q 1894 3584 2278 3584 
Q 2916 3584 3314 3078 
Q 3713 2572 3713 1747 
Q 3713 922 3314 415 
Q 2916 -91 2278 -91 
Q 1894 -91 1617 61 
Q 1341 213 1159 525 
z
M 3116 1747 
Q 3116 2381 2855 2742 
Q 2594 3103 2138 3103 
Q 1681 3103 1420 2742 
Q 1159 2381 1159 1747 
Q 1159 1113 1420 752 
Q 1681 391 2138 391 
Q 2594 391 2855 752 
Q 3116 1113 3116 1747 
z
" transform="scale(0.015625)"/>
      <path id="DejaVuSans-6c" d="M 603 4863 
L 1178 4863 
L 1178 0 
L 603 0 
L 603 4863 
z
" transform="scale(0.015625)"/>
      <path id="DejaVuSans-61" d="M 2194 1759 
Q 1497 1759 1228 1600 
Q 959 1441 959 1056 
Q 959 750 1161 570 
Q 1363 391 1709 391 
Q 2188 391 2477 730 
Q 2766 1069 2766 1631 
L 2766 1759 
L 2194 1759 
z
M 3341 1997 
L 3341 0 
L 2766 0 
L 2766 531 
Q 2569 213 2275 61 
Q 1981 -91 1556 -91 
Q 1019 -91 701 211 
Q 384 513 384 1019 
Q 384 1609 779 1909 
Q 1175 2209 1959 2209 
L 2766 2209 
L 2766 2266 
Q 2766 2663 2505 2880 
Q 2244 3097 1772 3097 
Q 1472 3097 1187 3025 
Q 903 2953 641 2809 
L 641 3341 
Q 956 3463 1253 3523 
Q 1550 3584 1831 3584 
Q 2591 3584 2966 3190 
Q 3341 2797 3341 1997 
z
" transform="scale(0.015625)"/>
      <path id="DejaVuSans-64" d="M 2906 2969 
L 2906 4863 
L 3481 4863 
L 3481 0 
L 2906 0 
L 2906 525 
Q 2725 213 2448 61 
Q 2172 -91 1784 -91 
Q 1150 -91 751 415 
Q 353 922 353 1747 
Q 353 2572 751 3078 
Q 1150 3584 1784 3584 
Q 2172 3584 2448 3432 
Q 2725 3281 2906 2969 
z
M 947 1747 
Q 947 1113 1208 752 
Q 1469 391 1925 391 
Q 2381 391 2643 752 
Q 2906 1113 2906 1747 
Q 2906 2381 2643 2742 
Q 2381 3103 1925 3103 
Q 1469 3103 1208 2742 
Q 947 2381 947 1747 
z
" transform="scale(0.015625)"/>
      <path id="DejaVuSans-20" transform="scale(0.015625)"/>
      <path id="DejaVuSans-76" d="M 191 3500 
L 800 3500 
L 1894 563 
L 2988 3500 
L 3597 3500 
L 2284 0 
L 1503 0 
L 191 3500 
z
" transform="scale(0.015625)"/>
      <path id="DejaVuSans-72" d="M 2631 2963 
Q 2534 3019 2420 3045 
Q 2306 3072 2169 3072 
Q 1681 3072 1420 2755 
Q 1159 2438 1159 1844 
L 1159 0 
L 581 0 
L 581 3500 
L 1159 3500 
L 1159 2956 
Q 1341 3275 1631 3429 
Q 1922 3584 2338 3584 
Q 2397 3584 2469 3576 
Q 2541 3569 2628 3553 
L 2631 2963 
z
" transform="scale(0.015625)"/>
      <path id="DejaVuSans-63" d="M 3122 3366 
L 3122 2828 
Q 2878 2963 2633 3030 
Q 2388 3097 2138 3097 
Q 1578 3097 1268 2742 
Q 959 2388 959 1747 
Q 959 1106 1268 751 
Q 1578 397 2138 397 
Q 2388 397 2633 464 
Q 2878 531 3122 666 
L 3122 134 
Q 2881 22 2623 -34 
Q 2366 -91 2075 -91 
Q 1284 -91 818 406 
Q 353 903 353 1747 
Q 353 2603 823 3093 
Q 1294 3584 2113 3584 
Q 2378 3584 2631 3529 
Q 2884 3475 3122 3366 
z
" transform="scale(0.015625)"/>
     </defs>
     <use xlink:href="#DejaVuSans-65"/>
     <use xlink:href="#DejaVuSans-78" x="59.773438"/>
     <use xlink:href="#DejaVuSans-70" x="118.953125"/>
     <use xlink:href="#DejaVuSans-6c" x="182.429688"/>
     <use xlink:href="#DejaVuSans-61" x="210.212891"/>
     <use xlink:href="#DejaVuSans-69" x="271.492188"/>
     <use xlink:href="#DejaVuSans-6e" x="299.275391"/>
     <use xlink:href="#DejaVuSans-65" x="362.654297"/>
     <use xlink:href="#DejaVuSans-64" x="424.177734"/>
     <use xlink:href="#DejaVuSans-20" x="487.654297"/>
     <use xlink:href="#DejaVuSans-76" x="519.441406"/>
     <use xlink:href="#DejaVuSans-61" x="578.621094"/>
     <use xlink:href="#DejaVuSans-72" x="639.900391"/>
     <use xlink:href="#DejaVuSans-69" x="681.013672"/>
     <use xlink:href="#DejaVuSans-61" x="708.796875"/>
     <use xlink:href="#DejaVuSans-6e" x="770.076172"/>
     <use xlink:href="#DejaVuSans-63" x="833.455078"/>
     <use xlink:href="#DejaVuSans-65" x="888.435547"/>
    </g>
   </g>
  </g>
 </g>
 <defs>
  <clipPath id="p8cf0d44977">
   <rect x="394.363636" y="86.4" width="253.636364" height="247.090909"/>
  </clipPath>
  <clipPath id="p592dc5bfa9">
   <rect x="394.363636" y="382.909091" width="253.636364" height="247.090909"/>
  </clipPath>
 </defs>
</svg>
