<?xml version="1.0" encoding="utf-8" standalone="no"?>
<!DOCTYPE svg PUBLIC "-//W3C//DTD SVG 1.1//EN"
  "http://www.w3.org/Graphics/SVG/1.1/DTD/svg11.dtd">
<svg xmlns:xlink="http://www.w3.org/1999/xlink" width="720pt" height="720pt" viewBox="0 0 720 720" xmlns="http://www.w3.org/2000/svg" version="1.1">
 <metadata>
  <rdf:RDF xmlns:dc="http://purl.org/dc/elements/1.1/" xmlns:cc="http://creativecommons.org/ns#" xmlns:rdf="http://www.w3.org/1999/02/22-rdf-syntax-ns#">
   <cc:Work>
    <dc:type rdf:resource="http://purl.org/dc/dcmitype/StillImage"/>
    <dc:date>2023-12-19T18:16:59.050820</dc:date>
    <dc:format>image/svg+xml</dc:format>
    <dc:creator>
     <cc:Agent>
      <dc:title>Matplotlib v3.5.2, https://matplotlib.org/</dc:title>
     </cc:Agent>
    </dc:creator>
   </cc:Work>
  </rdf:RDF>
 </metadata>
 <defs>
  <style type="text/css">*{stroke-linejoin: round; stroke-linecap: butt}</style>
 </defs>
 <g id="figure_1">
  <g id="patch_1">
   <path d="M 0 720 
L 720 720 
L 720 0 
L 0 0 
z
" style="fill: #ffffff"/>
  </g>
  <g id="axes_1">
   <g id="patch_2">
    <path d="M 90 333.490909 
L 343.636364 333.490909 
L 343.636364 86.4 
L 90 86.4 
z
" style="fill: #ffffff"/>
   </g>
   <g id="matplotlib.axis_1">
    <g id="xtick_1">
     <g id="line2d_1">
      <defs>
       <path id="mb7051d611f" d="M 0 0 
L 0 3.5 
" style="stroke: #000000; stroke-width: 0.8"/>
      </defs>
      <g>
       <use xlink:href="#mb7051d611f" x="90" y="333.490909" style="stroke: #000000; stroke-width: 0.8"/>
      </g>
     </g>
     <g id="text_1">
      <!-- 0.0 -->
      <g transform="translate(82.048438 348.089347)scale(0.1 -0.1)">
       <defs>
        <path id="DejaVuSans-30" d="M 2034 4250 
Q 1547 4250 1301 3770 
Q 1056 3291 1056 2328 
Q 1056 1369 1301 889 
Q 1547 409 2034 409 
Q 2525 409 2770 889 
Q 3016 1369 3016 2328 
Q 3016 3291 2770 3770 
Q 2525 4250 2034 4250 
z
M 2034 4750 
Q 2819 4750 3233 4129 
Q 3647 3509 3647 2328 
Q 3647 1150 3233 529 
Q 2819 -91 2034 -91 
Q 1250 -91 836 529 
Q 422 1150 422 2328 
Q 422 3509 836 4129 
Q 1250 4750 2034 4750 
z
" transform="scale(0.015625)"/>
        <path id="DejaVuSans-2e" d="M 684 794 
L 1344 794 
L 1344 0 
L 684 0 
L 684 794 
z
" transform="scale(0.015625)"/>
       </defs>
       <use xlink:href="#DejaVuSans-30"/>
       <use xlink:href="#DejaVuSans-2e" x="63.623047"/>
       <use xlink:href="#DejaVuSans-30" x="95.410156"/>
      </g>
     </g>
    </g>
    <g id="xtick_2">
     <g id="line2d_2">
      <g>
       <use xlink:href="#mb7051d611f" x="140.727273" y="333.490909" style="stroke: #000000; stroke-width: 0.8"/>
      </g>
     </g>
     <g id="text_2">
      <!-- 0.2 -->
      <g transform="translate(132.77571 348.089347)scale(0.1 -0.1)">
       <defs>
        <path id="DejaVuSans-32" d="M 1228 531 
L 3431 531 
L 3431 0 
L 469 0 
L 469 531 
Q 828 903 1448 1529 
Q 2069 2156 2228 2338 
Q 2531 2678 2651 2914 
Q 2772 3150 2772 3378 
Q 2772 3750 2511 3984 
Q 2250 4219 1831 4219 
Q 1534 4219 1204 4116 
Q 875 4013 500 3803 
L 500 4441 
Q 881 4594 1212 4672 
Q 1544 4750 1819 4750 
Q 2544 4750 2975 4387 
Q 3406 4025 3406 3419 
Q 3406 3131 3298 2873 
Q 3191 2616 2906 2266 
Q 2828 2175 2409 1742 
Q 1991 1309 1228 531 
z
" transform="scale(0.015625)"/>
       </defs>
       <use xlink:href="#DejaVuSans-30"/>
       <use xlink:href="#DejaVuSans-2e" x="63.623047"/>
       <use xlink:href="#DejaVuSans-32" x="95.410156"/>
      </g>
     </g>
    </g>
    <g id="xtick_3">
     <g id="line2d_3">
      <g>
       <use xlink:href="#mb7051d611f" x="191.454545" y="333.490909" style="stroke: #000000; stroke-width: 0.8"/>
      </g>
     </g>
     <g id="text_3">
      <!-- 0.4 -->
      <g transform="translate(183.502983 348.089347)scale(0.1 -0.1)">
       <defs>
        <path id="DejaVuSans-34" d="M 2419 4116 
L 825 1625 
L 2419 1625 
L 2419 4116 
z
M 2253 4666 
L 3047 4666 
L 3047 1625 
L 3713 1625 
L 3713 1100 
L 3047 1100 
L 3047 0 
L 2419 0 
L 2419 1100 
L 313 1100 
L 313 1709 
L 2253 4666 
z
" transform="scale(0.015625)"/>
       </defs>
       <use xlink:href="#DejaVuSans-30"/>
       <use xlink:href="#DejaVuSans-2e" x="63.623047"/>
       <use xlink:href="#DejaVuSans-34" x="95.410156"/>
      </g>
     </g>
    </g>
    <g id="xtick_4">
     <g id="line2d_4">
      <g>
       <use xlink:href="#mb7051d611f" x="242.181818" y="333.490909" style="stroke: #000000; stroke-width: 0.8"/>
      </g>
     </g>
     <g id="text_4">
      <!-- 0.6 -->
      <g transform="translate(234.230256 348.089347)scale(0.1 -0.1)">
       <defs>
        <path id="DejaVuSans-36" d="M 2113 2584 
Q 1688 2584 1439 2293 
Q 1191 2003 1191 1497 
Q 1191 994 1439 701 
Q 1688 409 2113 409 
Q 2538 409 2786 701 
Q 3034 994 3034 1497 
Q 3034 2003 2786 2293 
Q 2538 2584 2113 2584 
z
M 3366 4563 
L 3366 3988 
Q 3128 4100 2886 4159 
Q 2644 4219 2406 4219 
Q 1781 4219 1451 3797 
Q 1122 3375 1075 2522 
Q 1259 2794 1537 2939 
Q 1816 3084 2150 3084 
Q 2853 3084 3261 2657 
Q 3669 2231 3669 1497 
Q 3669 778 3244 343 
Q 2819 -91 2113 -91 
Q 1303 -91 875 529 
Q 447 1150 447 2328 
Q 447 3434 972 4092 
Q 1497 4750 2381 4750 
Q 2619 4750 2861 4703 
Q 3103 4656 3366 4563 
z
" transform="scale(0.015625)"/>
       </defs>
       <use xlink:href="#DejaVuSans-30"/>
       <use xlink:href="#DejaVuSans-2e" x="63.623047"/>
       <use xlink:href="#DejaVuSans-36" x="95.410156"/>
      </g>
     </g>
    </g>
    <g id="xtick_5">
     <g id="line2d_5">
      <g>
       <use xlink:href="#mb7051d611f" x="292.909091" y="333.490909" style="stroke: #000000; stroke-width: 0.8"/>
      </g>
     </g>
     <g id="text_5">
      <!-- 0.8 -->
      <g transform="translate(284.957528 348.089347)scale(0.1 -0.1)">
       <defs>
        <path id="DejaVuSans-38" d="M 2034 2216 
Q 1584 2216 1326 1975 
Q 1069 1734 1069 1313 
Q 1069 891 1326 650 
Q 1584 409 2034 409 
Q 2484 409 2743 651 
Q 3003 894 3003 1313 
Q 3003 1734 2745 1975 
Q 2488 2216 2034 2216 
z
M 1403 2484 
Q 997 2584 770 2862 
Q 544 3141 544 3541 
Q 544 4100 942 4425 
Q 1341 4750 2034 4750 
Q 2731 4750 3128 4425 
Q 3525 4100 3525 3541 
Q 3525 3141 3298 2862 
Q 3072 2584 2669 2484 
Q 3125 2378 3379 2068 
Q 3634 1759 3634 1313 
Q 3634 634 3220 271 
Q 2806 -91 2034 -91 
Q 1263 -91 848 271 
Q 434 634 434 1313 
Q 434 1759 690 2068 
Q 947 2378 1403 2484 
z
M 1172 3481 
Q 1172 3119 1398 2916 
Q 1625 2713 2034 2713 
Q 2441 2713 2670 2916 
Q 2900 3119 2900 3481 
Q 2900 3844 2670 4047 
Q 2441 4250 2034 4250 
Q 1625 4250 1398 4047 
Q 1172 3844 1172 3481 
z
" transform="scale(0.015625)"/>
       </defs>
       <use xlink:href="#DejaVuSans-30"/>
       <use xlink:href="#DejaVuSans-2e" x="63.623047"/>
       <use xlink:href="#DejaVuSans-38" x="95.410156"/>
      </g>
     </g>
    </g>
    <g id="xtick_6">
     <g id="line2d_6">
      <g>
       <use xlink:href="#mb7051d611f" x="343.636364" y="333.490909" style="stroke: #000000; stroke-width: 0.8"/>
      </g>
     </g>
     <g id="text_6">
      <!-- 1.0 -->
      <g transform="translate(335.684801 348.089347)scale(0.1 -0.1)">
       <defs>
        <path id="DejaVuSans-31" d="M 794 531 
L 1825 531 
L 1825 4091 
L 703 3866 
L 703 4441 
L 1819 4666 
L 2450 4666 
L 2450 531 
L 3481 531 
L 3481 0 
L 794 0 
L 794 531 
z
" transform="scale(0.015625)"/>
       </defs>
       <use xlink:href="#DejaVuSans-31"/>
       <use xlink:href="#DejaVuSans-2e" x="63.623047"/>
       <use xlink:href="#DejaVuSans-30" x="95.410156"/>
      </g>
     </g>
    </g>
   </g>
   <g id="matplotlib.axis_2">
    <g id="ytick_1">
     <g id="line2d_7">
      <defs>
       <path id="m73666d6a0f" d="M 0 0 
L -3.5 0 
" style="stroke: #000000; stroke-width: 0.8"/>
      </defs>
      <g>
       <use xlink:href="#m73666d6a0f" x="90" y="333.490909" style="stroke: #000000; stroke-width: 0.8"/>
      </g>
     </g>
     <g id="text_7">
      <!-- 0.0 -->
      <g transform="translate(67.096875 337.290128)scale(0.1 -0.1)">
       <use xlink:href="#DejaVuSans-30"/>
       <use xlink:href="#DejaVuSans-2e" x="63.623047"/>
       <use xlink:href="#DejaVuSans-30" x="95.410156"/>
      </g>
     </g>
    </g>
    <g id="ytick_2">
     <g id="line2d_8">
      <g>
       <use xlink:href="#m73666d6a0f" x="90" y="284.072727" style="stroke: #000000; stroke-width: 0.8"/>
      </g>
     </g>
     <g id="text_8">
      <!-- 0.2 -->
      <g transform="translate(67.096875 287.871946)scale(0.1 -0.1)">
       <use xlink:href="#DejaVuSans-30"/>
       <use xlink:href="#DejaVuSans-2e" x="63.623047"/>
       <use xlink:href="#DejaVuSans-32" x="95.410156"/>
      </g>
     </g>
    </g>
    <g id="ytick_3">
     <g id="line2d_9">
      <g>
       <use xlink:href="#m73666d6a0f" x="90" y="234.654545" style="stroke: #000000; stroke-width: 0.8"/>
      </g>
     </g>
     <g id="text_9">
      <!-- 0.4 -->
      <g transform="translate(67.096875 238.453764)scale(0.1 -0.1)">
       <use xlink:href="#DejaVuSans-30"/>
       <use xlink:href="#DejaVuSans-2e" x="63.623047"/>
       <use xlink:href="#DejaVuSans-34" x="95.410156"/>
      </g>
     </g>
    </g>
    <g id="ytick_4">
     <g id="line2d_10">
      <g>
       <use xlink:href="#m73666d6a0f" x="90" y="185.236364" style="stroke: #000000; stroke-width: 0.8"/>
      </g>
     </g>
     <g id="text_10">
      <!-- 0.6 -->
      <g transform="translate(67.096875 189.035582)scale(0.1 -0.1)">
       <use xlink:href="#DejaVuSans-30"/>
       <use xlink:href="#DejaVuSans-2e" x="63.623047"/>
       <use xlink:href="#DejaVuSans-36" x="95.410156"/>
      </g>
     </g>
    </g>
    <g id="ytick_5">
     <g id="line2d_11">
      <g>
       <use xlink:href="#m73666d6a0f" x="90" y="135.818182" style="stroke: #000000; stroke-width: 0.8"/>
      </g>
     </g>
     <g id="text_11">
      <!-- 0.8 -->
      <g transform="translate(67.096875 139.617401)scale(0.1 -0.1)">
       <use xlink:href="#DejaVuSans-30"/>
       <use xlink:href="#DejaVuSans-2e" x="63.623047"/>
       <use xlink:href="#DejaVuSans-38" x="95.410156"/>
      </g>
     </g>
    </g>
    <g id="ytick_6">
     <g id="line2d_12">
      <g>
       <use xlink:href="#m73666d6a0f" x="90" y="86.4" style="stroke: #000000; stroke-width: 0.8"/>
      </g>
     </g>
     <g id="text_12">
      <!-- 1.0 -->
      <g transform="translate(67.096875 90.199219)scale(0.1 -0.1)">
       <use xlink:href="#DejaVuSans-31"/>
       <use xlink:href="#DejaVuSans-2e" x="63.623047"/>
       <use xlink:href="#DejaVuSans-30" x="95.410156"/>
      </g>
     </g>
    </g>
   </g>
   <g id="patch_3">
    <path d="M 90 333.490909 
L 90 86.4 
" style="fill: none; stroke: #000000; stroke-width: 0.8; stroke-linejoin: miter; stroke-linecap: square"/>
   </g>
   <g id="patch_4">
    <path d="M 343.636364 333.490909 
L 343.636364 86.4 
" style="fill: none; stroke: #000000; stroke-width: 0.8; stroke-linejoin: miter; stroke-linecap: square"/>
   </g>
   <g id="patch_5">
    <path d="M 90 333.490909 
L 343.636364 333.490909 
" style="fill: none; stroke: #000000; stroke-width: 0.8; stroke-linejoin: miter; stroke-linecap: square"/>
   </g>
   <g id="patch_6">
    <path d="M 90 86.4 
L 343.636364 86.4 
" style="fill: none; stroke: #000000; stroke-width: 0.8; stroke-linejoin: miter; stroke-linecap: square"/>
   </g>
  </g>
  <g id="axes_2">
   <g id="patch_7">
    <path d="M 394.363636 333.490909 
L 648 333.490909 
L 648 86.4 
L 394.363636 86.4 
z
" style="fill: #ffffff"/>
   </g>
   <g id="PolyCollection_1">
    <defs>
     <path id="m81e7bab924" d="M 405.892562 -488.360622 
L 405.892562 -488.360622 
L 407.342741 -491.365494 
L 408.792921 -489.840438 
L 410.2431 -494.216805 
L 411.693279 -497.29728 
L 413.143459 -507.793627 
L 414.593638 -505.794146 
L 416.043817 -523.908834 
L 417.493997 -528.055502 
L 418.944176 -539.983444 
L 420.394355 -541.907344 
L 421.844535 -545.456283 
L 423.294714 -551.66186 
L 424.744893 -554.595443 
L 426.195073 -555.477132 
L 427.645252 -561.783892 
L 429.095431 -560.077163 
L 430.54561 -559.818637 
L 431.99579 -551.302326 
L 433.445969 -545.756144 
L 434.896148 -553.312629 
L 436.346328 -543.802063 
L 437.796507 -545.58999 
L 439.246686 -542.200101 
L 440.696866 -537.322825 
L 442.147045 -530.060997 
L 443.597224 -525.825017 
L 445.047404 -510.419361 
L 446.497583 -515.110419 
L 447.947762 -516.38383 
L 449.397942 -512.437043 
L 450.848121 -528.030001 
L 452.2983 -524.89011 
L 453.74848 -540.678225 
L 455.198659 -538.564284 
L 456.648838 -542.057991 
L 458.099018 -543.692278 
L 459.549197 -545.066928 
L 460.999376 -545.874438 
L 462.449556 -545.64665 
L 463.899735 -540.097829 
L 465.349914 -528.818853 
L 466.800094 -516.408146 
L 468.250273 -513.237785 
L 469.700452 -506.844421 
L 471.150632 -498.735058 
L 472.600811 -499.513553 
L 474.05099 -505.631137 
L 475.501169 -509.326377 
L 476.951349 -510.103544 
L 478.401528 -522.995111 
L 479.851707 -535.873876 
L 481.301887 -545.877623 
L 482.752066 -562.71218 
L 484.202245 -573.655525 
L 485.652425 -580.475631 
L 487.102604 -585.73374 
L 488.552783 -587.45275 
L 490.002963 -591.245017 
L 491.453142 -593.620923 
L 492.903321 -598.824546 
L 494.353501 -600.816104 
L 495.80368 -606.144714 
L 497.253859 -608.251667 
L 498.704039 -606.777755 
L 500.154218 -604.418062 
L 501.604397 -597.077957 
L 503.054577 -591.666427 
L 504.504756 -585.005182 
L 505.954935 -576.13259 
L 507.405115 -565.156254 
L 508.855294 -549.682294 
L 510.305473 -531.699967 
L 511.755653 -524.100855 
L 513.205832 -510.765329 
L 514.656011 -503.08389 
L 516.106191 -487.501908 
L 517.55637 -494.270645 
L 519.006549 -489.796451 
L 520.456729 -487.236449 
L 521.906908 -488.396912 
L 523.357087 -493.049229 
L 524.807266 -491.139316 
L 526.257446 -495.300506 
L 527.707625 -499.665238 
L 529.157804 -508.165087 
L 530.607984 -505.094063 
L 532.058163 -505.801398 
L 533.508342 -506.736286 
L 534.958522 -505.992747 
L 536.408701 -507.496423 
L 537.85888 -502.848662 
L 539.30906 -503.69141 
L 540.759239 -502.333141 
L 542.209418 -499.625589 
L 543.659598 -497.711829 
L 545.109777 -495.390869 
L 546.559956 -493.226652 
L 548.010136 -496.463204 
L 549.460315 -489.639726 
L 550.910494 -484.329321 
L 552.360674 -488.305989 
L 553.810853 -484.336587 
L 555.261032 -481.281739 
L 556.711212 -479.759791 
L 558.161391 -479.951794 
L 559.61157 -482.103316 
L 561.06175 -486.525142 
L 562.511929 -492.850165 
L 563.962108 -492.895723 
L 565.412288 -499.616158 
L 566.862467 -496.942959 
L 568.312646 -500.460441 
L 569.762826 -490.940775 
L 571.213005 -493.394339 
L 572.663184 -486.145782 
L 574.113363 -490.458855 
L 575.563543 -489.393702 
L 577.013722 -497.382738 
L 578.463901 -491.982415 
L 579.914081 -501.526071 
L 581.36426 -495.409929 
L 582.814439 -502.453162 
L 584.264619 -502.091787 
L 585.714798 -493.75051 
L 587.164977 -490.001478 
L 588.615157 -493.500487 
L 590.065336 -487.66706 
L 591.515515 -482.867053 
L 592.965695 -479.988094 
L 594.415874 -478.695266 
L 595.866053 -478.254377 
L 597.316233 -478.134493 
L 598.766412 -478.087912 
L 600.216591 -477.999233 
L 601.666771 -477.762867 
L 603.11695 -477.273272 
L 604.567129 -476.544303 
L 606.017309 -475.830624 
L 607.467488 -470.382762 
L 608.917667 -475.830624 
L 610.367847 -476.544303 
L 611.818026 -477.273272 
L 613.268205 -477.762867 
L 614.718385 -477.999233 
L 616.168564 -478.08413 
L 617.618743 -478.107202 
L 619.068923 -478.111992 
L 620.519102 -478.112859 
L 621.969281 -478.112859 
L 623.41946 -478.112859 
L 624.86964 -478.115216 
L 626.319819 -478.130583 
L 627.769998 -478.206266 
L 629.220178 -478.499553 
L 630.670357 -479.372234 
L 632.120536 -481.344242 
L 633.570716 -484.654357 
L 635.020895 -488.573176 
L 636.471074 -486.251234 
L 636.471074 -496.423307 
L 636.471074 -496.423307 
L 635.020895 -488.573176 
L 633.570716 -484.654357 
L 632.120536 -481.344242 
L 630.670357 -479.372234 
L 629.220178 -478.499553 
L 627.769998 -478.206266 
L 626.319819 -478.130583 
L 624.86964 -478.115216 
L 623.41946 -478.112859 
L 621.969281 -478.112859 
L 620.519102 -478.112859 
L 619.068923 -478.111992 
L 617.618743 -478.107202 
L 616.168564 -478.08413 
L 614.718385 -477.999233 
L 613.268205 -477.762867 
L 611.818026 -477.273272 
L 610.367847 -476.544303 
L 608.917667 -475.830624 
L 607.467488 -480.670733 
L 606.017309 -475.830624 
L 604.567129 -476.544303 
L 603.11695 -477.273272 
L 601.666771 -477.762867 
L 600.216591 -477.999233 
L 598.766412 -478.087912 
L 597.316233 -478.134493 
L 595.866053 -478.254377 
L 594.415874 -478.695266 
L 592.965695 -479.988094 
L 591.515515 -482.867053 
L 590.065336 -487.66706 
L 588.615157 -493.500487 
L 587.164977 -506.884774 
L 585.714798 -508.562441 
L 584.264619 -502.091787 
L 582.814439 -502.453162 
L 581.36426 -509.51747 
L 579.914081 -501.526071 
L 578.463901 -507.213163 
L 577.013722 -497.382738 
L 575.563543 -501.44053 
L 574.113363 -497.118607 
L 572.663184 -499.48534 
L 571.213005 -493.394339 
L 569.762826 -501.470092 
L 568.312646 -500.460441 
L 566.862467 -510.543657 
L 565.412288 -507.536249 
L 563.962108 -505.864261 
L 562.511929 -492.850165 
L 561.06175 -486.525142 
L 559.61157 -482.103316 
L 558.161391 -479.951794 
L 556.711212 -479.759791 
L 555.261032 -481.281739 
L 553.810853 -484.336587 
L 552.360674 -488.305989 
L 550.910494 -499.81916 
L 549.460315 -499.931598 
L 548.010136 -496.463204 
L 546.559956 -502.213708 
L 545.109777 -502.907178 
L 543.659598 -504.515211 
L 542.209418 -507.719782 
L 540.759239 -510.60595 
L 539.30906 -514.275035 
L 537.85888 -519.114212 
L 536.408701 -517.521843 
L 534.958522 -520.808546 
L 533.508342 -519.621472 
L 532.058163 -517.642489 
L 530.607984 -514.42519 
L 529.157804 -508.165087 
L 527.707625 -513.719939 
L 526.257446 -512.61043 
L 524.807266 -506.989463 
L 523.357087 -493.049229 
L 521.906908 -488.396912 
L 520.456729 -487.236449 
L 519.006549 -489.796451 
L 517.55637 -494.270645 
L 516.106191 -509.693952 
L 514.656011 -503.08389 
L 513.205832 -510.765329 
L 511.755653 -524.100855 
L 510.305473 -551.549967 
L 508.855294 -568.19715 
L 507.405115 -580.347764 
L 505.954935 -589.737231 
L 504.504756 -597.173112 
L 503.054577 -605.346273 
L 501.604397 -613.941879 
L 500.154218 -618.32569 
L 498.704039 -622.368595 
L 497.253859 -619.909373 
L 495.80368 -615.137922 
L 494.353501 -611.694659 
L 492.903321 -605.994194 
L 491.453142 -604.899466 
L 490.002963 -601.46066 
L 488.552783 -599.41695 
L 487.102604 -594.791695 
L 485.652425 -591.35924 
L 484.202245 -584.079218 
L 482.752066 -573.626545 
L 481.301887 -563.288326 
L 479.851707 -544.504652 
L 478.401528 -531.079353 
L 476.951349 -522.849763 
L 475.501169 -509.326377 
L 474.05099 -505.631137 
L 472.600811 -509.165448 
L 471.150632 -510.232206 
L 469.700452 -506.844421 
L 468.250273 -513.237785 
L 466.800094 -531.152238 
L 465.349914 -542.632396 
L 463.899735 -550.678605 
L 462.449556 -555.987012 
L 460.999376 -559.36911 
L 459.549197 -560.047699 
L 458.099018 -559.506447 
L 456.648838 -556.891322 
L 455.198659 -552.943785 
L 453.74848 -540.678225 
L 452.2983 -544.499489 
L 450.848121 -528.030001 
L 449.397942 -530.265819 
L 447.947762 -516.38383 
L 446.497583 -515.110419 
L 445.047404 -526.446299 
L 443.597224 -525.825017 
L 442.147045 -541.396596 
L 440.696866 -553.926099 
L 439.246686 -562.743965 
L 437.796507 -563.582942 
L 436.346328 -563.261705 
L 434.896148 -553.312629 
L 433.445969 -567.75918 
L 431.99579 -574.556183 
L 430.54561 -577.147188 
L 429.095431 -581.944648 
L 427.645252 -579.290159 
L 426.195073 -581.41147 
L 424.744893 -577.295921 
L 423.294714 -575.15073 
L 421.844535 -574.946284 
L 420.394355 -568.017596 
L 418.944176 -553.184932 
L 417.493997 -542.958041 
L 416.043817 -523.908834 
L 414.593638 -522.799374 
L 413.143459 -507.793627 
L 411.693279 -509.96556 
L 410.2431 -505.887224 
L 408.792921 -501.824758 
L 407.342741 -491.365494 
L 405.892562 -488.360622 
z
" style="stroke: #9467bd; stroke-opacity: 0.2"/>
    </defs>
    <g clip-path="url(#p87aa7a0491)">
     <use xlink:href="#m81e7bab924" x="0" y="720" style="fill: #9467bd; fill-opacity: 0.2; stroke: #9467bd; stroke-opacity: 0.2"/>
    </g>
   </g>
   <g id="PolyCollection_2">
    <defs>
     <path id="ma8345a2d32" d="M 405.892562 -478.112859 
L 405.892562 -478.112859 
L 407.342741 -478.112859 
L 408.792921 -478.112859 
L 410.2431 -478.112859 
L 411.693279 -478.112859 
L 413.143459 -478.112859 
L 414.593638 -478.112859 
L 416.043817 -478.112859 
L 417.493997 -478.112859 
L 418.944176 -478.112859 
L 420.394355 -478.112859 
L 421.844535 -478.112859 
L 423.294714 -478.112859 
L 424.744893 -478.112859 
L 426.195073 -478.112859 
L 427.645252 -478.112859 
L 429.095431 -478.112859 
L 430.54561 -478.112859 
L 431.99579 -478.112859 
L 433.445969 -478.112859 
L 434.896148 -478.112859 
L 436.346328 -478.112859 
L 437.796507 -478.112859 
L 439.246686 -478.112859 
L 440.696866 -478.112859 
L 442.147045 -478.112859 
L 443.597224 -478.112859 
L 445.047404 -478.112859 
L 446.497583 -478.112859 
L 447.947762 -478.112859 
L 449.397942 -478.112859 
L 450.848121 -478.112859 
L 452.2983 -478.112859 
L 453.74848 -478.112859 
L 455.198659 -478.112859 
L 456.648838 -478.112859 
L 458.099018 -478.112859 
L 459.549197 -478.112859 
L 460.999376 -478.112859 
L 462.449556 -478.112859 
L 463.899735 -478.112859 
L 465.349914 -478.112859 
L 466.800094 -478.112859 
L 468.250273 -478.112859 
L 469.700452 -478.112859 
L 471.150632 -478.112859 
L 472.600811 -478.112859 
L 474.05099 -478.112859 
L 475.501169 -478.112859 
L 476.951349 -478.112859 
L 478.401528 -478.112859 
L 479.851707 -478.112859 
L 481.301887 -478.112859 
L 482.752066 -478.112859 
L 484.202245 -478.112859 
L 485.652425 -478.112859 
L 487.102604 -478.112859 
L 488.552783 -478.112859 
L 490.002963 -478.112859 
L 491.453142 -478.112859 
L 492.903321 -478.112859 
L 494.353501 -478.112859 
L 495.80368 -478.112859 
L 497.253859 -478.112859 
L 498.704039 -478.112859 
L 500.154218 -478.112859 
L 501.604397 -478.112859 
L 503.054577 -478.112859 
L 504.504756 -478.112859 
L 505.954935 -478.112859 
L 507.405115 -478.112859 
L 508.855294 -478.112859 
L 510.305473 -478.112859 
L 511.755653 -478.112859 
L 513.205832 -478.112859 
L 514.656011 -478.112859 
L 516.106191 -478.112859 
L 517.55637 -478.112859 
L 519.006549 -478.112859 
L 520.456729 -478.112859 
L 521.906908 -478.112859 
L 523.357087 -478.112859 
L 524.807266 -478.112859 
L 526.257446 -478.112859 
L 527.707625 -478.112859 
L 529.157804 -478.112859 
L 530.607984 -478.112859 
L 532.058163 -478.112859 
L 533.508342 -478.112859 
L 534.958522 -478.112859 
L 536.408701 -478.112859 
L 537.85888 -478.112859 
L 539.30906 -478.112859 
L 540.759239 -478.112859 
L 542.209418 -478.112808 
L 543.659598 -478.112525 
L 545.109777 -478.11116 
L 546.559956 -478.106137 
L 548.010136 -478.092152 
L 549.460315 -478.063186 
L 550.910494 -478.019474 
L 552.360674 -477.974035 
L 553.810853 -477.173526 
L 555.261032 -477.901564 
L 556.711212 -477.785236 
L 558.161391 -477.500293 
L 559.61157 -477.042633 
L 561.06175 -476.58741 
L 562.511929 -473.157561 
L 563.962108 -476.677833 
L 565.412288 -477.241535 
L 566.862467 -477.813497 
L 568.312646 -476.676553 
L 569.762826 -478.300776 
L 571.213005 -478.275147 
L 572.663184 -478.20625 
L 574.113363 -478.152791 
L 575.563543 -478.126012 
L 577.013722 -478.116185 
L 578.463901 -478.113514 
L 579.914081 -478.11296 
L 581.36426 -478.112624 
L 582.814439 -478.111326 
L 584.264619 -478.105072 
L 585.714798 -478.082059 
L 587.164977 -478.018009 
L 588.615157 -477.88515 
L 590.065336 -477.686027 
L 591.515515 -477.48412 
L 592.965695 -474.999257 
L 594.415874 -477.324582 
L 595.866053 -477.212856 
L 597.316233 -476.846818 
L 598.766412 -469.586382 
L 600.216591 -468.529567 
L 601.666771 -467.344898 
L 603.11695 -475.905805 
L 604.567129 -463.638577 
L 606.017309 -475.813678 
L 607.467488 -473.901332 
L 608.917667 -470.578812 
L 610.367847 -467.107324 
L 611.818026 -458.513359 
L 613.268205 -464.722216 
L 614.718385 -469.200868 
L 616.168564 -470.935956 
L 617.618743 -475.122797 
L 619.068923 -476.351972 
L 620.519102 -472.673041 
L 621.969281 -477.222966 
L 623.41946 -477.278418 
L 624.86964 -476.951118 
L 626.319819 -476.091971 
L 627.769998 -474.710565 
L 629.220178 -465.462283 
L 630.670357 -471.299205 
L 632.120536 -465.992807 
L 633.570716 -465.552915 
L 635.020895 -471.048216 
L 636.471074 -471.990648 
L 636.471074 -471.990648 
L 636.471074 -471.990648 
L 635.020895 -471.048216 
L 633.570716 -474.714586 
L 632.120536 -474.364255 
L 630.670357 -471.299205 
L 629.220178 -480.523812 
L 627.769998 -474.710565 
L 626.319819 -476.091971 
L 624.86964 -476.951118 
L 623.41946 -477.278418 
L 621.969281 -477.222966 
L 620.519102 -481.194445 
L 619.068923 -476.351972 
L 617.618743 -475.122797 
L 616.168564 -474.69914 
L 614.718385 -469.890453 
L 613.268205 -468.254501 
L 611.818026 -472.296416 
L 610.367847 -467.107324 
L 608.917667 -470.578812 
L 607.467488 -473.901332 
L 606.017309 -475.813678 
L 604.567129 -488.871158 
L 603.11695 -475.905805 
L 601.666771 -483.778015 
L 600.216591 -482.844747 
L 598.766412 -482.89083 
L 597.316233 -476.846818 
L 595.866053 -477.212856 
L 594.415874 -477.324582 
L 592.965695 -479.730195 
L 591.515515 -477.48412 
L 590.065336 -477.686027 
L 588.615157 -477.88515 
L 587.164977 -478.018009 
L 585.714798 -478.082059 
L 584.264619 -478.105072 
L 582.814439 -478.111326 
L 581.36426 -478.112624 
L 579.914081 -478.11296 
L 578.463901 -478.113514 
L 577.013722 -478.116185 
L 575.563543 -478.126012 
L 574.113363 -478.152791 
L 572.663184 -478.20625 
L 571.213005 -478.275147 
L 569.762826 -478.300776 
L 568.312646 -479.678043 
L 566.862467 -477.813497 
L 565.412288 -477.241535 
L 563.962108 -476.677833 
L 562.511929 -479.674091 
L 561.06175 -476.58741 
L 559.61157 -477.042633 
L 558.161391 -477.500293 
L 556.711212 -477.785236 
L 555.261032 -477.901564 
L 553.810853 -478.707614 
L 552.360674 -477.974035 
L 550.910494 -478.019474 
L 549.460315 -478.063186 
L 548.010136 -478.092152 
L 546.559956 -478.106137 
L 545.109777 -478.11116 
L 543.659598 -478.112525 
L 542.209418 -478.112808 
L 540.759239 -478.112859 
L 539.30906 -478.112859 
L 537.85888 -478.112859 
L 536.408701 -478.112859 
L 534.958522 -478.112859 
L 533.508342 -478.112859 
L 532.058163 -478.112859 
L 530.607984 -478.112859 
L 529.157804 -478.112859 
L 527.707625 -478.112859 
L 526.257446 -478.112859 
L 524.807266 -478.112859 
L 523.357087 -478.112859 
L 521.906908 -478.112859 
L 520.456729 -478.112859 
L 519.006549 -478.112859 
L 517.55637 -478.112859 
L 516.106191 -478.112859 
L 514.656011 -478.112859 
L 513.205832 -478.112859 
L 511.755653 -478.112859 
L 510.305473 -478.112859 
L 508.855294 -478.112859 
L 507.405115 -478.112859 
L 505.954935 -478.112859 
L 504.504756 -478.112859 
L 503.054577 -478.112859 
L 501.604397 -478.112859 
L 500.154218 -478.112859 
L 498.704039 -478.112859 
L 497.253859 -478.112859 
L 495.80368 -478.112859 
L 494.353501 -478.112859 
L 492.903321 -478.112859 
L 491.453142 -478.112859 
L 490.002963 -478.112859 
L 488.552783 -478.112859 
L 487.102604 -478.112859 
L 485.652425 -478.112859 
L 484.202245 -478.112859 
L 482.752066 -478.112859 
L 481.301887 -478.112859 
L 479.851707 -478.112859 
L 478.401528 -478.112859 
L 476.951349 -478.112859 
L 475.501169 -478.112859 
L 474.05099 -478.112859 
L 472.600811 -478.112859 
L 471.150632 -478.112859 
L 469.700452 -478.112859 
L 468.250273 -478.112859 
L 466.800094 -478.112859 
L 465.349914 -478.112859 
L 463.899735 -478.112859 
L 462.449556 -478.112859 
L 460.999376 -478.112859 
L 459.549197 -478.112859 
L 458.099018 -478.112859 
L 456.648838 -478.112859 
L 455.198659 -478.112859 
L 453.74848 -478.112859 
L 452.2983 -478.112859 
L 450.848121 -478.112859 
L 449.397942 -478.112859 
L 447.947762 -478.112859 
L 446.497583 -478.112859 
L 445.047404 -478.112859 
L 443.597224 -478.112859 
L 442.147045 -478.112859 
L 440.696866 -478.112859 
L 439.246686 -478.112859 
L 437.796507 -478.112859 
L 436.346328 -478.112859 
L 434.896148 -478.112859 
L 433.445969 -478.112859 
L 431.99579 -478.112859 
L 430.54561 -478.112859 
L 429.095431 -478.112859 
L 427.645252 -478.112859 
L 426.195073 -478.112859 
L 424.744893 -478.112859 
L 423.294714 -478.112859 
L 421.844535 -478.112859 
L 420.394355 -478.112859 
L 418.944176 -478.112859 
L 417.493997 -478.112859 
L 416.043817 -478.112859 
L 414.593638 -478.112859 
L 413.143459 -478.112859 
L 411.693279 -478.112859 
L 410.2431 -478.112859 
L 408.792921 -478.112859 
L 407.342741 -478.112859 
L 405.892562 -478.112859 
z
" style="stroke: #1f77b4; stroke-opacity: 0.2"/>
    </defs>
    <g clip-path="url(#p87aa7a0491)">
     <use xlink:href="#ma8345a2d32" x="0" y="720" style="fill: #1f77b4; fill-opacity: 0.2; stroke: #1f77b4; stroke-opacity: 0.2"/>
    </g>
   </g>
   <g id="PolyCollection_3">
    <defs>
     <path id="m5d3def5054" d="M 405.892562 -434.218212 
L 405.892562 -421.451449 
L 407.342741 -428.978375 
L 408.792921 -444.790335 
L 410.2431 -452.450654 
L 411.693279 -455.727177 
L 413.143459 -448.553465 
L 414.593638 -457.559559 
L 416.043817 -455.015713 
L 417.493997 -466.012961 
L 418.944176 -471.022405 
L 420.394355 -474.711569 
L 421.844535 -476.793953 
L 423.294714 -477.694099 
L 424.744893 -477.946907 
L 426.195073 -477.760836 
L 427.645252 -476.79225 
L 429.095431 -474.054002 
L 430.54561 -468.376166 
L 431.99579 -459.915476 
L 433.445969 -451.601141 
L 434.896148 -442.133982 
L 436.346328 -450.700912 
L 437.796507 -456.906136 
L 439.246686 -460.686211 
L 440.696866 -458.170044 
L 442.147045 -449.590498 
L 443.597224 -427.91213 
L 445.047404 -426.674623 
L 446.497583 -410.227392 
L 447.947762 -402.824093 
L 449.397942 -407.951478 
L 450.848121 -397.740496 
L 452.2983 -412.803579 
L 453.74848 -417.397462 
L 455.198659 -438.812521 
L 456.648838 -454.398524 
L 458.099018 -466.370819 
L 459.549197 -473.179667 
L 460.999376 -475.3841 
L 462.449556 -473.601307 
L 463.899735 -467.387242 
L 465.349914 -456.448402 
L 466.800094 -443.048256 
L 468.250273 -426.441735 
L 469.700452 -421.610996 
L 471.150632 -429.886157 
L 472.600811 -434.077224 
L 474.05099 -432.835783 
L 475.501169 -439.55174 
L 476.951349 -453.841276 
L 478.401528 -463.373746 
L 479.851707 -470.905449 
L 481.301887 -475.312195 
L 482.752066 -477.2535 
L 484.202245 -477.90492 
L 485.652425 -478.073346 
L 487.102604 -478.107573 
L 488.552783 -478.112859 
L 490.002963 -478.112859 
L 491.453142 -478.112859 
L 492.903321 -478.112859 
L 494.353501 -478.112859 
L 495.80368 -478.112859 
L 497.253859 -478.112859 
L 498.704039 -478.112859 
L 500.154218 -478.106942 
L 501.604397 -478.069838 
L 503.054577 -477.882185 
L 504.504756 -477.153173 
L 505.954935 -474.947247 
L 507.405115 -469.796379 
L 508.855294 -460.56325 
L 510.305473 -448.002899 
L 511.755653 -429.116781 
L 513.205832 -421.101279 
L 514.656011 -415.439132 
L 516.106191 -423.031737 
L 517.55637 -420.271473 
L 519.006549 -430.318113 
L 520.456729 -439.247301 
L 521.906908 -456.682047 
L 523.357087 -466.675059 
L 524.807266 -473.131119 
L 526.257446 -476.358491 
L 527.707625 -477.616992 
L 529.157804 -478.000597 
L 530.607984 -478.093308 
L 532.058163 -478.110647 
L 533.508342 -478.112859 
L 534.958522 -478.112859 
L 536.408701 -478.107377 
L 537.85888 -478.077109 
L 539.30906 -477.931303 
L 540.759239 -477.392056 
L 542.209418 -475.883221 
L 543.659598 -472.714075 
L 545.109777 -467.82382 
L 546.559956 -462.488347 
L 548.010136 -453.445674 
L 549.460315 -457.344869 
L 550.910494 -457.244947 
L 552.360674 -450.306892 
L 553.810853 -454.191365 
L 555.261032 -443.243949 
L 556.711212 -442.231105 
L 558.161391 -440.111424 
L 559.61157 -442.478853 
L 561.06175 -447.412977 
L 562.511929 -461.556078 
L 563.962108 -468.490688 
L 565.412288 -473.546803 
L 566.862467 -476.343351 
L 568.312646 -477.427471 
L 569.762826 -477.349223 
L 571.213005 -476.041894 
L 572.663184 -472.855798 
L 574.113363 -467.207993 
L 575.563543 -459.4819 
L 577.013722 -445.909741 
L 578.463901 -444.882176 
L 579.914081 -437.773901 
L 581.36426 -441.418523 
L 582.814439 -438.154474 
L 584.264619 -441.269919 
L 585.714798 -447.306062 
L 587.164977 -445.251939 
L 588.615157 -435.160549 
L 590.065336 -429.722953 
L 591.515515 -425.174061 
L 592.965695 -424.630106 
L 594.415874 -417.655316 
L 595.866053 -416.204025 
L 597.316233 -428.49565 
L 598.766412 -448.462893 
L 600.216591 -458.968622 
L 601.666771 -465.41289 
L 603.11695 -461.147701 
L 604.567129 -471.378052 
L 606.017309 -473.798342 
L 607.467488 -475.871941 
L 608.917667 -477.25207 
L 610.367847 -478.106753 
L 611.818026 -479.009094 
L 613.268205 -480.625983 
L 614.718385 -483.315507 
L 616.168564 -486.637713 
L 617.618743 -481.939531 
L 619.068923 -480.39814 
L 620.519102 -488.964987 
L 621.969281 -486.739896 
L 623.41946 -478.45044 
L 624.86964 -482.306399 
L 626.319819 -480.58513 
L 627.769998 -479.337986 
L 629.220178 -478.605071 
L 630.670357 -478.269716 
L 632.120536 -478.151979 
L 633.570716 -478.120562 
L 635.020895 -478.114041 
L 636.471074 -478.112859 
L 636.471074 -478.112859 
L 636.471074 -478.112859 
L 635.020895 -478.114041 
L 633.570716 -478.120562 
L 632.120536 -478.151979 
L 630.670357 -478.269716 
L 629.220178 -478.605071 
L 627.769998 -479.337986 
L 626.319819 -480.58513 
L 624.86964 -482.306399 
L 623.41946 -490.33391 
L 621.969281 -486.739896 
L 620.519102 -488.964987 
L 619.068923 -499.862855 
L 617.618743 -496.693367 
L 616.168564 -486.637713 
L 614.718385 -483.315507 
L 613.268205 -480.625983 
L 611.818026 -479.009094 
L 610.367847 -478.106753 
L 608.917667 -477.25207 
L 607.467488 -475.871941 
L 606.017309 -473.798342 
L 604.567129 -471.378052 
L 603.11695 -476.604736 
L 601.666771 -465.41289 
L 600.216591 -458.968622 
L 598.766412 -448.462893 
L 597.316233 -443.569514 
L 595.866053 -436.432478 
L 594.415874 -427.732247 
L 592.965695 -424.630106 
L 591.515515 -433.441788 
L 590.065336 -439.917203 
L 588.615157 -445.876663 
L 587.164977 -445.251939 
L 585.714798 -447.306062 
L 584.264619 -451.22571 
L 582.814439 -448.970184 
L 581.36426 -441.418523 
L 579.914081 -445.306292 
L 578.463901 -444.882176 
L 577.013722 -456.749718 
L 575.563543 -459.4819 
L 574.113363 -467.207993 
L 572.663184 -472.855798 
L 571.213005 -476.041894 
L 569.762826 -477.349223 
L 568.312646 -477.427471 
L 566.862467 -476.343351 
L 565.412288 -473.546803 
L 563.962108 -468.490688 
L 562.511929 -461.556078 
L 561.06175 -461.414662 
L 559.61157 -455.863032 
L 558.161391 -454.045195 
L 556.711212 -453.811565 
L 555.261032 -458.556424 
L 553.810853 -454.191365 
L 552.360674 -462.679697 
L 550.910494 -457.244947 
L 549.460315 -457.344869 
L 548.010136 -463.966563 
L 546.559956 -462.488347 
L 545.109777 -467.82382 
L 543.659598 -472.714075 
L 542.209418 -475.883221 
L 540.759239 -477.392056 
L 539.30906 -477.931303 
L 537.85888 -478.077109 
L 536.408701 -478.107377 
L 534.958522 -478.112859 
L 533.508342 -478.112859 
L 532.058163 -478.110647 
L 530.607984 -478.093308 
L 529.157804 -478.000597 
L 527.707625 -477.616992 
L 526.257446 -476.358491 
L 524.807266 -473.131119 
L 523.357087 -466.675059 
L 521.906908 -456.682047 
L 520.456729 -450.417102 
L 519.006549 -438.008494 
L 517.55637 -433.404074 
L 516.106191 -423.031737 
L 514.656011 -429.611386 
L 513.205832 -431.535067 
L 511.755653 -441.543229 
L 510.305473 -448.002899 
L 508.855294 -460.56325 
L 507.405115 -469.796379 
L 505.954935 -474.947247 
L 504.504756 -477.153173 
L 503.054577 -477.882185 
L 501.604397 -478.069838 
L 500.154218 -478.106942 
L 498.704039 -478.112859 
L 497.253859 -478.112859 
L 495.80368 -478.112859 
L 494.353501 -478.112859 
L 492.903321 -478.112859 
L 491.453142 -478.112859 
L 490.002963 -478.112859 
L 488.552783 -478.112859 
L 487.102604 -478.107573 
L 485.652425 -478.073346 
L 484.202245 -477.90492 
L 482.752066 -477.2535 
L 481.301887 -475.312195 
L 479.851707 -470.905449 
L 478.401528 -463.373746 
L 476.951349 -453.841276 
L 475.501169 -450.488637 
L 474.05099 -444.597383 
L 472.600811 -434.077224 
L 471.150632 -429.886157 
L 469.700452 -434.44008 
L 468.250273 -437.980667 
L 466.800094 -443.048256 
L 465.349914 -456.448402 
L 463.899735 -467.387242 
L 462.449556 -473.601307 
L 460.999376 -475.3841 
L 459.549197 -473.179667 
L 458.099018 -466.370819 
L 456.648838 -454.398524 
L 455.198659 -438.812521 
L 453.74848 -429.803827 
L 452.2983 -412.803579 
L 450.848121 -418.114996 
L 449.397942 -407.951478 
L 447.947762 -419.913906 
L 446.497583 -424.987947 
L 445.047404 -426.674623 
L 443.597224 -448.077467 
L 442.147045 -449.590498 
L 440.696866 -458.170044 
L 439.246686 -460.686211 
L 437.796507 -456.906136 
L 436.346328 -450.700912 
L 434.896148 -453.643286 
L 433.445969 -451.601141 
L 431.99579 -459.915476 
L 430.54561 -468.376166 
L 429.095431 -474.054002 
L 427.645252 -476.79225 
L 426.195073 -477.760836 
L 424.744893 -477.946907 
L 423.294714 -477.694099 
L 421.844535 -476.793953 
L 420.394355 -474.711569 
L 418.944176 -471.022405 
L 417.493997 -466.012961 
L 416.043817 -466.92393 
L 414.593638 -457.559559 
L 413.143459 -464.188562 
L 411.693279 -455.727177 
L 410.2431 -452.450654 
L 408.792921 -444.790335 
L 407.342741 -440.798653 
L 405.892562 -434.218212 
z
" style="stroke: #d62728; stroke-opacity: 0.2"/>
    </defs>
    <g clip-path="url(#p87aa7a0491)">
     <use xlink:href="#m5d3def5054" x="0" y="720" style="fill: #d62728; fill-opacity: 0.2; stroke: #d62728; stroke-opacity: 0.2"/>
    </g>
   </g>
   <g id="PolyCollection_4">
    <defs>
     <path id="mfe29397205" d="M 405.892562 -478.112859 
L 405.892562 -478.112859 
L 407.342741 -478.112859 
L 408.792921 -478.112859 
L 410.2431 -478.112859 
L 411.693279 -478.112859 
L 413.143459 -478.112859 
L 414.593638 -478.112859 
L 416.043817 -478.112859 
L 417.493997 -478.112859 
L 418.944176 -478.112859 
L 420.394355 -478.112859 
L 421.844535 -478.112859 
L 423.294714 -478.112859 
L 424.744893 -478.112859 
L 426.195073 -478.112859 
L 427.645252 -478.112859 
L 429.095431 -478.112859 
L 430.54561 -478.112859 
L 431.99579 -478.112859 
L 433.445969 -478.112859 
L 434.896148 -478.112859 
L 436.346328 -478.112859 
L 437.796507 -478.112859 
L 439.246686 -478.112859 
L 440.696866 -478.112859 
L 442.147045 -478.112859 
L 443.597224 -478.112859 
L 445.047404 -478.112859 
L 446.497583 -478.112859 
L 447.947762 -478.112859 
L 449.397942 -478.112859 
L 450.848121 -478.112859 
L 452.2983 -478.112859 
L 453.74848 -478.112859 
L 455.198659 -478.112859 
L 456.648838 -478.112859 
L 458.099018 -478.112859 
L 459.549197 -478.112859 
L 460.999376 -478.112859 
L 462.449556 -478.112859 
L 463.899735 -478.112859 
L 465.349914 -478.112859 
L 466.800094 -478.112859 
L 468.250273 -478.112859 
L 469.700452 -478.112859 
L 471.150632 -478.112859 
L 472.600811 -478.112859 
L 474.05099 -478.112859 
L 475.501169 -478.112859 
L 476.951349 -478.112859 
L 478.401528 -478.112859 
L 479.851707 -478.112859 
L 481.301887 -478.112859 
L 482.752066 -478.112859 
L 484.202245 -478.112859 
L 485.652425 -478.112859 
L 487.102604 -478.112859 
L 488.552783 -478.112859 
L 490.002963 -478.112859 
L 491.453142 -478.112859 
L 492.903321 -478.112859 
L 494.353501 -478.112859 
L 495.80368 -478.112859 
L 497.253859 -478.112859 
L 498.704039 -478.112859 
L 500.154218 -478.112859 
L 501.604397 -478.112859 
L 503.054577 -478.112859 
L 504.504756 -478.112859 
L 505.954935 -478.112859 
L 507.405115 -478.112859 
L 508.855294 -478.112859 
L 510.305473 -478.1105 
L 511.755653 -478.093912 
L 513.205832 -478.011503 
L 514.656011 -477.685913 
L 516.106191 -476.694638 
L 517.55637 -474.392104 
L 519.006549 -470.395108 
L 520.456729 -465.437483 
L 521.906908 -454.483739 
L 523.357087 -448.725662 
L 524.807266 -463.563637 
L 526.257446 -467.677826 
L 527.707625 -471.220373 
L 529.157804 -467.974849 
L 530.607984 -475.073061 
L 532.058163 -476.264517 
L 533.508342 -477.169276 
L 534.958522 -477.726616 
L 536.408701 -477.98862 
L 537.85888 -478.081447 
L 539.30906 -478.106674 
L 540.759239 -478.111911 
L 542.209418 -478.112859 
L 543.659598 -478.112859 
L 545.109777 -478.112859 
L 546.559956 -478.112859 
L 548.010136 -478.112859 
L 549.460315 -478.112859 
L 550.910494 -478.112859 
L 552.360674 -478.112859 
L 553.810853 -478.112859 
L 555.261032 -478.112859 
L 556.711212 -478.112859 
L 558.161391 -478.112859 
L 559.61157 -478.112859 
L 561.06175 -478.112859 
L 562.511929 -478.112859 
L 563.962108 -478.112859 
L 565.412288 -478.112859 
L 566.862467 -478.112859 
L 568.312646 -478.112859 
L 569.762826 -478.112859 
L 571.213005 -478.112859 
L 572.663184 -478.112859 
L 574.113363 -478.112859 
L 575.563543 -478.112859 
L 577.013722 -478.112859 
L 578.463901 -478.112859 
L 579.914081 -478.112859 
L 581.36426 -478.112859 
L 582.814439 -478.112859 
L 584.264619 -478.112859 
L 585.714798 -478.112859 
L 587.164977 -478.112859 
L 588.615157 -478.112859 
L 590.065336 -478.112859 
L 591.515515 -478.112859 
L 592.965695 -478.112859 
L 594.415874 -478.112859 
L 595.866053 -478.112859 
L 597.316233 -478.112859 
L 598.766412 -478.112859 
L 600.216591 -478.112859 
L 601.666771 -478.112859 
L 603.11695 -478.112859 
L 604.567129 -478.112859 
L 606.017309 -478.112859 
L 607.467488 -478.112859 
L 608.917667 -478.112859 
L 610.367847 -478.112859 
L 611.818026 -478.112859 
L 613.268205 -478.110286 
L 614.718385 -478.094856 
L 616.168564 -478.017612 
L 617.618743 -477.721923 
L 619.068923 -476.845675 
L 620.519102 -474.854683 
L 621.969281 -471.420712 
L 623.41946 -467.035556 
L 624.86964 -451.458458 
L 626.319819 -453.337725 
L 627.769998 -453.094409 
L 629.220178 -465.565217 
L 630.670357 -462.504601 
L 632.120536 -471.897438 
L 633.570716 -473.640361 
L 635.020895 -469.613098 
L 636.471074 -474.813583 
L 636.471074 -474.813583 
L 636.471074 -474.813583 
L 635.020895 -479.376214 
L 633.570716 -473.640361 
L 632.120536 -471.897438 
L 630.670357 -475.643645 
L 629.220178 -465.565217 
L 627.769998 -471.977771 
L 626.319819 -469.604324 
L 624.86964 -474.887639 
L 623.41946 -467.035556 
L 621.969281 -471.420712 
L 620.519102 -474.854683 
L 619.068923 -476.845675 
L 617.618743 -477.721923 
L 616.168564 -478.017612 
L 614.718385 -478.094856 
L 613.268205 -478.110286 
L 611.818026 -478.112859 
L 610.367847 -478.112859 
L 608.917667 -478.112859 
L 607.467488 -478.112859 
L 606.017309 -478.112859 
L 604.567129 -478.112859 
L 603.11695 -478.112859 
L 601.666771 -478.112859 
L 600.216591 -478.112859 
L 598.766412 -478.112859 
L 597.316233 -478.112859 
L 595.866053 -478.112859 
L 594.415874 -478.112859 
L 592.965695 -478.112859 
L 591.515515 -478.112859 
L 590.065336 -478.112859 
L 588.615157 -478.112859 
L 587.164977 -478.112859 
L 585.714798 -478.112859 
L 584.264619 -478.112859 
L 582.814439 -478.112859 
L 581.36426 -478.112859 
L 579.914081 -478.112859 
L 578.463901 -478.112859 
L 577.013722 -478.112859 
L 575.563543 -478.112859 
L 574.113363 -478.112859 
L 572.663184 -478.112859 
L 571.213005 -478.112859 
L 569.762826 -478.112859 
L 568.312646 -478.112859 
L 566.862467 -478.112859 
L 565.412288 -478.112859 
L 563.962108 -478.112859 
L 562.511929 -478.112859 
L 561.06175 -478.112859 
L 559.61157 -478.112859 
L 558.161391 -478.112859 
L 556.711212 -478.112859 
L 555.261032 -478.112859 
L 553.810853 -478.112859 
L 552.360674 -478.112859 
L 550.910494 -478.112859 
L 549.460315 -478.112859 
L 548.010136 -478.112859 
L 546.559956 -478.112859 
L 545.109777 -478.112859 
L 543.659598 -478.112859 
L 542.209418 -478.112859 
L 540.759239 -478.111911 
L 539.30906 -478.106674 
L 537.85888 -478.081447 
L 536.408701 -477.98862 
L 534.958522 -477.726616 
L 533.508342 -477.169276 
L 532.058163 -476.264517 
L 530.607984 -475.073061 
L 529.157804 -479.105141 
L 527.707625 -471.220373 
L 526.257446 -467.677826 
L 524.807266 -463.563637 
L 523.357087 -473.096049 
L 521.906908 -468.695579 
L 520.456729 -465.437483 
L 519.006549 -470.395108 
L 517.55637 -474.392104 
L 516.106191 -476.694638 
L 514.656011 -477.685913 
L 513.205832 -478.011503 
L 511.755653 -478.093912 
L 510.305473 -478.1105 
L 508.855294 -478.112859 
L 507.405115 -478.112859 
L 505.954935 -478.112859 
L 504.504756 -478.112859 
L 503.054577 -478.112859 
L 501.604397 -478.112859 
L 500.154218 -478.112859 
L 498.704039 -478.112859 
L 497.253859 -478.112859 
L 495.80368 -478.112859 
L 494.353501 -478.112859 
L 492.903321 -478.112859 
L 491.453142 -478.112859 
L 490.002963 -478.112859 
L 488.552783 -478.112859 
L 487.102604 -478.112859 
L 485.652425 -478.112859 
L 484.202245 -478.112859 
L 482.752066 -478.112859 
L 481.301887 -478.112859 
L 479.851707 -478.112859 
L 478.401528 -478.112859 
L 476.951349 -478.112859 
L 475.501169 -478.112859 
L 474.05099 -478.112859 
L 472.600811 -478.112859 
L 471.150632 -478.112859 
L 469.700452 -478.112859 
L 468.250273 -478.112859 
L 466.800094 -478.112859 
L 465.349914 -478.112859 
L 463.899735 -478.112859 
L 462.449556 -478.112859 
L 460.999376 -478.112859 
L 459.549197 -478.112859 
L 458.099018 -478.112859 
L 456.648838 -478.112859 
L 455.198659 -478.112859 
L 453.74848 -478.112859 
L 452.2983 -478.112859 
L 450.848121 -478.112859 
L 449.397942 -478.112859 
L 447.947762 -478.112859 
L 446.497583 -478.112859 
L 445.047404 -478.112859 
L 443.597224 -478.112859 
L 442.147045 -478.112859 
L 440.696866 -478.112859 
L 439.246686 -478.112859 
L 437.796507 -478.112859 
L 436.346328 -478.112859 
L 434.896148 -478.112859 
L 433.445969 -478.112859 
L 431.99579 -478.112859 
L 430.54561 -478.112859 
L 429.095431 -478.112859 
L 427.645252 -478.112859 
L 426.195073 -478.112859 
L 424.744893 -478.112859 
L 423.294714 -478.112859 
L 421.844535 -478.112859 
L 420.394355 -478.112859 
L 418.944176 -478.112859 
L 417.493997 -478.112859 
L 416.043817 -478.112859 
L 414.593638 -478.112859 
L 413.143459 -478.112859 
L 411.693279 -478.112859 
L 410.2431 -478.112859 
L 408.792921 -478.112859 
L 407.342741 -478.112859 
L 405.892562 -478.112859 
z
" style="stroke: #ff7f0e; stroke-opacity: 0.2"/>
    </defs>
    <g clip-path="url(#p87aa7a0491)">
     <use xlink:href="#mfe29397205" x="0" y="720" style="fill: #ff7f0e; fill-opacity: 0.2; stroke: #ff7f0e; stroke-opacity: 0.2"/>
    </g>
   </g>
   <g id="matplotlib.axis_3">
    <g id="xtick_7">
     <g id="line2d_13">
      <g>
       <use xlink:href="#mb7051d611f" x="405.863558" y="333.490909" style="stroke: #000000; stroke-width: 0.8"/>
      </g>
     </g>
     <g id="text_13">
      <!-- 0 -->
      <g transform="translate(402.682308 348.089347)scale(0.1 -0.1)">
       <use xlink:href="#DejaVuSans-30"/>
      </g>
     </g>
    </g>
    <g id="xtick_8">
     <g id="line2d_14">
      <g>
       <use xlink:href="#mb7051d611f" x="463.870731" y="333.490909" style="stroke: #000000; stroke-width: 0.8"/>
      </g>
     </g>
     <g id="text_14">
      <!-- 2000 -->
      <g transform="translate(451.145731 348.089347)scale(0.1 -0.1)">
       <use xlink:href="#DejaVuSans-32"/>
       <use xlink:href="#DejaVuSans-30" x="63.623047"/>
       <use xlink:href="#DejaVuSans-30" x="127.246094"/>
       <use xlink:href="#DejaVuSans-30" x="190.869141"/>
      </g>
     </g>
    </g>
    <g id="xtick_9">
     <g id="line2d_15">
      <g>
       <use xlink:href="#mb7051d611f" x="521.877904" y="333.490909" style="stroke: #000000; stroke-width: 0.8"/>
      </g>
     </g>
     <g id="text_15">
      <!-- 4000 -->
      <g transform="translate(509.152904 348.089347)scale(0.1 -0.1)">
       <use xlink:href="#DejaVuSans-34"/>
       <use xlink:href="#DejaVuSans-30" x="63.623047"/>
       <use xlink:href="#DejaVuSans-30" x="127.246094"/>
       <use xlink:href="#DejaVuSans-30" x="190.869141"/>
      </g>
     </g>
    </g>
    <g id="xtick_10">
     <g id="line2d_16">
      <g>
       <use xlink:href="#mb7051d611f" x="579.885077" y="333.490909" style="stroke: #000000; stroke-width: 0.8"/>
      </g>
     </g>
     <g id="text_16">
      <!-- 6000 -->
      <g transform="translate(567.160077 348.089347)scale(0.1 -0.1)">
       <use xlink:href="#DejaVuSans-36"/>
       <use xlink:href="#DejaVuSans-30" x="63.623047"/>
       <use xlink:href="#DejaVuSans-30" x="127.246094"/>
       <use xlink:href="#DejaVuSans-30" x="190.869141"/>
      </g>
     </g>
    </g>
    <g id="xtick_11">
     <g id="line2d_17">
      <g>
       <use xlink:href="#mb7051d611f" x="637.89225" y="333.490909" style="stroke: #000000; stroke-width: 0.8"/>
      </g>
     </g>
     <g id="text_17">
      <!-- 8000 -->
      <g transform="translate(625.16725 348.089347)scale(0.1 -0.1)">
       <use xlink:href="#DejaVuSans-38"/>
       <use xlink:href="#DejaVuSans-30" x="63.623047"/>
       <use xlink:href="#DejaVuSans-30" x="127.246094"/>
       <use xlink:href="#DejaVuSans-30" x="190.869141"/>
      </g>
     </g>
    </g>
   </g>
   <g id="matplotlib.axis_4">
    <g id="ytick_7">
     <g id="line2d_18">
      <g>
       <use xlink:href="#m73666d6a0f" x="394.363636" y="310.066937" style="stroke: #000000; stroke-width: 0.8"/>
      </g>
     </g>
     <g id="text_18">
      <!-- −0.4 -->
      <g transform="translate(363.080824 313.866156)scale(0.1 -0.1)">
       <defs>
        <path id="DejaVuSans-2212" d="M 678 2272 
L 4684 2272 
L 4684 1741 
L 678 1741 
L 678 2272 
z
" transform="scale(0.015625)"/>
       </defs>
       <use xlink:href="#DejaVuSans-2212"/>
       <use xlink:href="#DejaVuSans-30" x="83.789062"/>
       <use xlink:href="#DejaVuSans-2e" x="147.412109"/>
       <use xlink:href="#DejaVuSans-34" x="179.199219"/>
      </g>
     </g>
    </g>
    <g id="ytick_8">
     <g id="line2d_19">
      <g>
       <use xlink:href="#m73666d6a0f" x="394.363636" y="275.977039" style="stroke: #000000; stroke-width: 0.8"/>
      </g>
     </g>
     <g id="text_19">
      <!-- −0.2 -->
      <g transform="translate(363.080824 279.776258)scale(0.1 -0.1)">
       <use xlink:href="#DejaVuSans-2212"/>
       <use xlink:href="#DejaVuSans-30" x="83.789062"/>
       <use xlink:href="#DejaVuSans-2e" x="147.412109"/>
       <use xlink:href="#DejaVuSans-32" x="179.199219"/>
      </g>
     </g>
    </g>
    <g id="ytick_9">
     <g id="line2d_20">
      <g>
       <use xlink:href="#m73666d6a0f" x="394.363636" y="241.887141" style="stroke: #000000; stroke-width: 0.8"/>
      </g>
     </g>
     <g id="text_20">
      <!-- 0.0 -->
      <g transform="translate(371.460511 245.686359)scale(0.1 -0.1)">
       <use xlink:href="#DejaVuSans-30"/>
       <use xlink:href="#DejaVuSans-2e" x="63.623047"/>
       <use xlink:href="#DejaVuSans-30" x="95.410156"/>
      </g>
     </g>
    </g>
    <g id="ytick_10">
     <g id="line2d_21">
      <g>
       <use xlink:href="#m73666d6a0f" x="394.363636" y="207.797242" style="stroke: #000000; stroke-width: 0.8"/>
      </g>
     </g>
     <g id="text_21">
      <!-- 0.2 -->
      <g transform="translate(371.460511 211.596461)scale(0.1 -0.1)">
       <use xlink:href="#DejaVuSans-30"/>
       <use xlink:href="#DejaVuSans-2e" x="63.623047"/>
       <use xlink:href="#DejaVuSans-32" x="95.410156"/>
      </g>
     </g>
    </g>
    <g id="ytick_11">
     <g id="line2d_22">
      <g>
       <use xlink:href="#m73666d6a0f" x="394.363636" y="173.707344" style="stroke: #000000; stroke-width: 0.8"/>
      </g>
     </g>
     <g id="text_22">
      <!-- 0.4 -->
      <g transform="translate(371.460511 177.506563)scale(0.1 -0.1)">
       <use xlink:href="#DejaVuSans-30"/>
       <use xlink:href="#DejaVuSans-2e" x="63.623047"/>
       <use xlink:href="#DejaVuSans-34" x="95.410156"/>
      </g>
     </g>
    </g>
    <g id="ytick_12">
     <g id="line2d_23">
      <g>
       <use xlink:href="#m73666d6a0f" x="394.363636" y="139.617446" style="stroke: #000000; stroke-width: 0.8"/>
      </g>
     </g>
     <g id="text_23">
      <!-- 0.6 -->
      <g transform="translate(371.460511 143.416665)scale(0.1 -0.1)">
       <use xlink:href="#DejaVuSans-30"/>
       <use xlink:href="#DejaVuSans-2e" x="63.623047"/>
       <use xlink:href="#DejaVuSans-36" x="95.410156"/>
      </g>
     </g>
    </g>
    <g id="ytick_13">
     <g id="line2d_24">
      <g>
       <use xlink:href="#m73666d6a0f" x="394.363636" y="105.527548" style="stroke: #000000; stroke-width: 0.8"/>
      </g>
     </g>
     <g id="text_24">
      <!-- 0.8 -->
      <g transform="translate(371.460511 109.326766)scale(0.1 -0.1)">
       <use xlink:href="#DejaVuSans-30"/>
       <use xlink:href="#DejaVuSans-2e" x="63.623047"/>
       <use xlink:href="#DejaVuSans-38" x="95.410156"/>
      </g>
     </g>
    </g>
   </g>
   <g id="line2d_25">
    <path d="M 405.892562 231.639378 
L 407.342741 228.634506 
L 410.2431 219.947985 
L 411.693279 216.36858 
L 413.143459 212.206373 
L 414.593638 205.70324 
L 416.043817 196.091166 
L 418.944176 173.415812 
L 420.394355 165.03753 
L 421.844535 159.798716 
L 423.294714 156.593705 
L 426.195073 151.555699 
L 427.645252 149.462975 
L 429.095431 148.989094 
L 430.54561 151.517088 
L 431.99579 157.070745 
L 433.445969 163.242338 
L 434.896148 166.687371 
L 436.346328 166.468116 
L 437.796507 165.413534 
L 439.246686 167.527967 
L 440.696866 174.375538 
L 443.597224 194.174983 
L 445.047404 201.56717 
L 446.497583 204.889581 
L 447.947762 203.61617 
L 449.397942 198.648569 
L 452.2983 185.305201 
L 453.74848 179.321775 
L 455.198659 174.245965 
L 456.648838 170.525344 
L 458.099018 168.400637 
L 459.549197 167.442687 
L 460.999376 167.378226 
L 462.449556 169.183169 
L 463.899735 174.611783 
L 465.349914 184.274376 
L 466.800094 196.219808 
L 468.250273 206.762215 
L 469.700452 213.155579 
L 471.150632 215.516368 
L 472.600811 215.660499 
L 474.05099 214.368863 
L 475.501169 210.673623 
L 476.951349 203.523346 
L 478.401528 192.962768 
L 479.851707 179.810736 
L 482.752066 151.830638 
L 484.202245 141.132629 
L 485.652425 134.082564 
L 487.102604 129.737282 
L 490.002963 123.647162 
L 492.903321 117.59063 
L 494.353501 113.744619 
L 495.80368 109.358682 
L 497.253859 105.91948 
L 498.704039 105.426825 
L 500.154218 108.628124 
L 501.604397 114.490082 
L 504.504756 128.910853 
L 505.954935 137.06509 
L 507.405115 147.247991 
L 508.855294 161.060278 
L 511.755653 195.899145 
L 513.205832 209.234671 
L 514.656011 216.91611 
L 519.006549 230.203549 
L 520.456729 232.763551 
L 521.906908 231.603088 
L 523.357087 226.950771 
L 524.807266 220.935611 
L 526.257446 216.044532 
L 527.707625 213.307412 
L 530.607984 210.240374 
L 532.058163 208.278057 
L 533.508342 206.821121 
L 534.958522 206.599353 
L 536.408701 207.490867 
L 537.85888 209.018563 
L 539.30906 211.016778 
L 540.759239 213.530454 
L 543.659598 218.88648 
L 545.109777 220.850976 
L 546.559956 222.27982 
L 548.010136 223.536796 
L 549.460315 225.214338 
L 550.910494 227.925759 
L 553.810853 235.663413 
L 555.261032 238.718261 
L 556.711212 240.240209 
L 558.161391 240.048206 
L 559.61157 237.896684 
L 561.06175 233.474858 
L 563.962108 220.620008 
L 565.412288 216.423797 
L 566.862467 216.256692 
L 568.312646 219.539559 
L 569.762826 223.794567 
L 571.213005 226.605661 
L 572.663184 227.184439 
L 574.113363 226.211269 
L 575.563543 224.582884 
L 577.013722 222.617262 
L 578.463901 220.402211 
L 579.914081 218.473929 
L 581.36426 217.5363 
L 582.814439 217.546838 
L 584.264619 217.908213 
L 585.714798 218.843524 
L 587.164977 221.556874 
L 588.615157 226.499513 
L 590.065336 232.33294 
L 591.515515 237.132947 
L 592.965695 240.011906 
L 594.415874 241.304734 
L 595.866053 241.745623 
L 601.666771 242.237133 
L 603.11695 242.726728 
L 606.017309 244.169376 
L 607.467488 244.473253 
L 608.917667 244.169376 
L 611.818026 242.726728 
L 613.268205 242.237133 
L 614.718385 242.000767 
L 617.618743 241.892798 
L 627.769998 241.793734 
L 629.220178 241.500447 
L 630.670357 240.627766 
L 632.120536 238.655758 
L 633.570716 235.345643 
L 635.020895 231.426824 
L 636.471074 228.662729 
L 636.471074 228.662729 
" clip-path="url(#p87aa7a0491)" style="fill: none; stroke: #9467bd; stroke-width: 2; stroke-linecap: square"/>
   </g>
   <g id="line2d_26">
    <path d="M 405.892562 241.887141 
L 550.910494 241.980526 
L 556.711212 242.214764 
L 558.161391 242.499707 
L 561.06175 243.41259 
L 562.511929 243.584174 
L 563.962108 243.322167 
L 566.862467 242.186503 
L 568.312646 241.822702 
L 569.762826 241.699224 
L 588.615157 242.11485 
L 592.965695 242.635274 
L 595.866053 242.787144 
L 597.316233 243.153182 
L 600.216591 244.312843 
L 601.666771 244.438544 
L 604.567129 243.745132 
L 606.017309 244.186322 
L 607.467488 246.098668 
L 610.367847 252.892676 
L 611.818026 254.595112 
L 613.268205 253.511642 
L 616.168564 247.182452 
L 617.618743 244.877203 
L 619.068923 243.648028 
L 620.519102 243.066257 
L 621.969281 242.777034 
L 623.41946 242.721582 
L 624.86964 243.048882 
L 626.319819 243.908029 
L 627.769998 245.289435 
L 630.670357 248.700795 
L 632.120536 249.821469 
L 633.570716 249.86625 
L 636.471074 248.009352 
L 636.471074 248.009352 
" clip-path="url(#p87aa7a0491)" style="fill: none; stroke: #1f77b4; stroke-width: 2; stroke-linecap: square"/>
   </g>
   <g id="line2d_27">
    <path d="M 405.892562 292.165169 
L 407.342741 285.111486 
L 408.792921 275.209665 
L 410.2431 267.549346 
L 411.693279 264.272823 
L 413.143459 263.628987 
L 414.593638 262.440441 
L 416.043817 259.030178 
L 418.944176 248.977595 
L 420.394355 245.288431 
L 421.844535 243.206047 
L 423.294714 242.305901 
L 424.744893 242.053093 
L 426.195073 242.239164 
L 427.645252 243.20775 
L 429.095431 245.945998 
L 430.54561 251.623834 
L 433.445969 268.398859 
L 434.896148 272.111366 
L 436.346328 269.299088 
L 437.796507 263.093864 
L 439.246686 259.313789 
L 440.696866 261.829956 
L 442.147045 270.409502 
L 445.047404 293.325377 
L 446.497583 302.39233 
L 447.947762 308.631001 
L 449.397942 312.048522 
L 450.848121 312.072254 
L 452.2983 307.196421 
L 453.74848 296.399355 
L 456.648838 265.601476 
L 458.099018 253.629181 
L 459.549197 246.820333 
L 460.999376 244.6159 
L 462.449556 246.398693 
L 463.899735 252.612758 
L 465.349914 263.551598 
L 466.800094 276.951744 
L 468.250273 287.788799 
L 469.700452 291.974462 
L 471.150632 290.113843 
L 472.600811 285.922776 
L 474.05099 281.283417 
L 475.501169 274.979811 
L 476.951349 266.158724 
L 478.401528 256.626254 
L 479.851707 249.094551 
L 481.301887 244.687805 
L 482.752066 242.7465 
L 484.202245 242.09508 
L 485.652425 241.926654 
L 491.453142 241.887141 
L 501.604397 241.930162 
L 503.054577 242.117815 
L 504.504756 242.846827 
L 505.954935 245.052753 
L 507.405115 250.203621 
L 508.855294 259.43675 
L 511.755653 284.669995 
L 513.205832 293.681827 
L 514.656011 297.474741 
L 516.106191 296.968263 
L 517.55637 293.162227 
L 519.006549 285.836696 
L 520.456729 275.167799 
L 521.906908 263.317953 
L 523.357087 253.324941 
L 524.807266 246.868881 
L 526.257446 243.641509 
L 527.707625 242.383008 
L 529.157804 241.999403 
L 532.058163 241.889353 
L 537.85888 241.922891 
L 539.30906 242.068697 
L 540.759239 242.607944 
L 542.209418 244.116779 
L 543.659598 247.285925 
L 545.109777 252.17618 
L 546.559956 257.511653 
L 548.010136 261.293881 
L 549.460315 262.655131 
L 550.910494 262.755053 
L 552.360674 263.506705 
L 553.810853 265.808635 
L 555.261032 269.099814 
L 556.711212 271.978665 
L 558.161391 272.921691 
L 559.61157 270.829057 
L 561.06175 265.58618 
L 563.962108 251.509312 
L 565.412288 246.453197 
L 566.862467 243.656649 
L 568.312646 242.572529 
L 569.762826 242.650777 
L 571.213005 243.958106 
L 572.663184 247.144202 
L 574.113363 252.792007 
L 577.013722 268.670271 
L 578.463901 275.117824 
L 579.914081 278.459904 
L 581.36426 278.581477 
L 582.814439 276.437671 
L 584.264619 273.752186 
L 585.714798 272.693938 
L 587.164977 274.748061 
L 588.615157 279.481394 
L 591.515515 290.692075 
L 592.965695 295.369894 
L 594.415874 297.306219 
L 595.866053 293.681748 
L 597.316233 283.967418 
L 598.766412 271.537107 
L 600.216591 261.031378 
L 601.666771 254.58711 
L 603.11695 251.123782 
L 606.017309 246.201658 
L 607.467488 244.128059 
L 608.917667 242.74793 
L 611.818026 240.990906 
L 613.268205 239.374017 
L 614.718385 236.684493 
L 616.168564 233.362287 
L 617.618743 230.683551 
L 619.068923 229.869502 
L 620.519102 231.035013 
L 624.86964 237.693601 
L 626.319819 239.41487 
L 627.769998 240.662014 
L 629.220178 241.394929 
L 630.670357 241.730284 
L 633.570716 241.879438 
L 636.471074 241.887141 
L 636.471074 241.887141 
" clip-path="url(#p87aa7a0491)" style="fill: none; stroke: #d62728; stroke-width: 2; stroke-linecap: square"/>
   </g>
   <g id="line2d_28">
    <path d="M 405.892562 241.887141 
L 513.205832 241.988497 
L 514.656011 242.314087 
L 516.106191 243.305362 
L 517.55637 245.607896 
L 519.006549 249.604892 
L 520.456729 254.562517 
L 521.906908 258.410341 
L 523.357087 259.089144 
L 524.807266 256.436363 
L 526.257446 252.322174 
L 527.707625 248.779627 
L 529.157804 246.460005 
L 530.607984 244.926939 
L 532.058163 243.735483 
L 533.508342 242.830724 
L 534.958522 242.273384 
L 536.408701 242.01138 
L 539.30906 241.893326 
L 571.213005 241.887141 
L 616.168564 241.982388 
L 617.618743 242.278077 
L 619.068923 243.154325 
L 620.519102 245.145317 
L 621.969281 248.579288 
L 623.41946 252.964444 
L 624.86964 256.826952 
L 626.319819 258.528975 
L 627.769998 257.46391 
L 629.220178 254.434783 
L 630.670357 250.925877 
L 632.120536 248.102562 
L 633.570716 246.359639 
L 635.020895 245.505344 
L 636.471074 245.186417 
L 636.471074 245.186417 
" clip-path="url(#p87aa7a0491)" style="fill: none; stroke: #ff7f0e; stroke-width: 2; stroke-linecap: square"/>
   </g>
   <g id="LineCollection_1">
    <path d="M 521.877904 303.060216 
L 521.877904 111.183884 
" clip-path="url(#p87aa7a0491)" style="fill: none; stroke-dasharray: 7.4,3.2; stroke-dashoffset: 0; stroke: #000000; stroke-width: 2"/>
    <path d="M 536.379697 303.060216 
L 536.379697 111.183884 
" clip-path="url(#p87aa7a0491)" style="fill: none; stroke-dasharray: 7.4,3.2; stroke-dashoffset: 0; stroke: #000000; stroke-width: 2"/>
    <path d="M 565.383284 303.060216 
L 565.383284 111.183884 
" clip-path="url(#p87aa7a0491)" style="fill: none; stroke-dasharray: 7.4,3.2; stroke-dashoffset: 0; stroke: #000000; stroke-width: 2"/>
    <path d="M 623.390457 303.060216 
L 623.390457 111.183884 
" clip-path="url(#p87aa7a0491)" style="fill: none; stroke-dasharray: 7.4,3.2; stroke-dashoffset: 0; stroke: #000000; stroke-width: 2"/>
   </g>
   <g id="patch_8">
    <path d="M 394.363636 333.490909 
L 394.363636 86.4 
" style="fill: none; stroke: #000000; stroke-width: 0.8; stroke-linejoin: miter; stroke-linecap: square"/>
   </g>
   <g id="patch_9">
    <path d="M 648 333.490909 
L 648 86.4 
" style="fill: none; stroke: #000000; stroke-width: 0.8; stroke-linejoin: miter; stroke-linecap: square"/>
   </g>
   <g id="patch_10">
    <path d="M 394.363636 333.490909 
L 648 333.490909 
" style="fill: none; stroke: #000000; stroke-width: 0.8; stroke-linejoin: miter; stroke-linecap: square"/>
   </g>
   <g id="patch_11">
    <path d="M 394.363636 86.4 
L 648 86.4 
" style="fill: none; stroke: #000000; stroke-width: 0.8; stroke-linejoin: miter; stroke-linecap: square"/>
   </g>
   <g id="text_25">
    <!-- unit_56 -->
    <g transform="translate(498.922756 80.4)scale(0.12 -0.12)">
     <defs>
      <path id="DejaVuSans-75" d="M 544 1381 
L 544 3500 
L 1119 3500 
L 1119 1403 
Q 1119 906 1312 657 
Q 1506 409 1894 409 
Q 2359 409 2629 706 
Q 2900 1003 2900 1516 
L 2900 3500 
L 3475 3500 
L 3475 0 
L 2900 0 
L 2900 538 
Q 2691 219 2414 64 
Q 2138 -91 1772 -91 
Q 1169 -91 856 284 
Q 544 659 544 1381 
z
M 1991 3584 
L 1991 3584 
z
" transform="scale(0.015625)"/>
      <path id="DejaVuSans-6e" d="M 3513 2113 
L 3513 0 
L 2938 0 
L 2938 2094 
Q 2938 2591 2744 2837 
Q 2550 3084 2163 3084 
Q 1697 3084 1428 2787 
Q 1159 2491 1159 1978 
L 1159 0 
L 581 0 
L 581 3500 
L 1159 3500 
L 1159 2956 
Q 1366 3272 1645 3428 
Q 1925 3584 2291 3584 
Q 2894 3584 3203 3211 
Q 3513 2838 3513 2113 
z
" transform="scale(0.015625)"/>
      <path id="DejaVuSans-69" d="M 603 3500 
L 1178 3500 
L 1178 0 
L 603 0 
L 603 3500 
z
M 603 4863 
L 1178 4863 
L 1178 4134 
L 603 4134 
L 603 4863 
z
" transform="scale(0.015625)"/>
      <path id="DejaVuSans-74" d="M 1172 4494 
L 1172 3500 
L 2356 3500 
L 2356 3053 
L 1172 3053 
L 1172 1153 
Q 1172 725 1289 603 
Q 1406 481 1766 481 
L 2356 481 
L 2356 0 
L 1766 0 
Q 1100 0 847 248 
Q 594 497 594 1153 
L 594 3053 
L 172 3053 
L 172 3500 
L 594 3500 
L 594 4494 
L 1172 4494 
z
" transform="scale(0.015625)"/>
      <path id="DejaVuSans-5f" d="M 3263 -1063 
L 3263 -1509 
L -63 -1509 
L -63 -1063 
L 3263 -1063 
z
" transform="scale(0.015625)"/>
      <path id="DejaVuSans-35" d="M 691 4666 
L 3169 4666 
L 3169 4134 
L 1269 4134 
L 1269 2991 
Q 1406 3038 1543 3061 
Q 1681 3084 1819 3084 
Q 2600 3084 3056 2656 
Q 3513 2228 3513 1497 
Q 3513 744 3044 326 
Q 2575 -91 1722 -91 
Q 1428 -91 1123 -41 
Q 819 9 494 109 
L 494 744 
Q 775 591 1075 516 
Q 1375 441 1709 441 
Q 2250 441 2565 725 
Q 2881 1009 2881 1497 
Q 2881 1984 2565 2268 
Q 2250 2553 1709 2553 
Q 1456 2553 1204 2497 
Q 953 2441 691 2322 
L 691 4666 
z
" transform="scale(0.015625)"/>
     </defs>
     <use xlink:href="#DejaVuSans-75"/>
     <use xlink:href="#DejaVuSans-6e" x="63.378906"/>
     <use xlink:href="#DejaVuSans-69" x="126.757812"/>
     <use xlink:href="#DejaVuSans-74" x="154.541016"/>
     <use xlink:href="#DejaVuSans-5f" x="193.75"/>
     <use xlink:href="#DejaVuSans-35" x="243.75"/>
     <use xlink:href="#DejaVuSans-36" x="307.373047"/>
    </g>
   </g>
  </g>
  <g id="axes_3">
   <g id="patch_12">
    <path d="M 90 630 
L 343.636364 630 
L 343.636364 382.909091 
L 90 382.909091 
z
" style="fill: #ffffff"/>
   </g>
   <g id="matplotlib.axis_5">
    <g id="xtick_12">
     <g id="line2d_29">
      <g>
       <use xlink:href="#mb7051d611f" x="90" y="630" style="stroke: #000000; stroke-width: 0.8"/>
      </g>
     </g>
     <g id="text_26">
      <!-- 0.0 -->
      <g transform="translate(82.048438 644.598437)scale(0.1 -0.1)">
       <use xlink:href="#DejaVuSans-30"/>
       <use xlink:href="#DejaVuSans-2e" x="63.623047"/>
       <use xlink:href="#DejaVuSans-30" x="95.410156"/>
      </g>
     </g>
    </g>
    <g id="xtick_13">
     <g id="line2d_30">
      <g>
       <use xlink:href="#mb7051d611f" x="140.727273" y="630" style="stroke: #000000; stroke-width: 0.8"/>
      </g>
     </g>
     <g id="text_27">
      <!-- 0.2 -->
      <g transform="translate(132.77571 644.598437)scale(0.1 -0.1)">
       <use xlink:href="#DejaVuSans-30"/>
       <use xlink:href="#DejaVuSans-2e" x="63.623047"/>
       <use xlink:href="#DejaVuSans-32" x="95.410156"/>
      </g>
     </g>
    </g>
    <g id="xtick_14">
     <g id="line2d_31">
      <g>
       <use xlink:href="#mb7051d611f" x="191.454545" y="630" style="stroke: #000000; stroke-width: 0.8"/>
      </g>
     </g>
     <g id="text_28">
      <!-- 0.4 -->
      <g transform="translate(183.502983 644.598437)scale(0.1 -0.1)">
       <use xlink:href="#DejaVuSans-30"/>
       <use xlink:href="#DejaVuSans-2e" x="63.623047"/>
       <use xlink:href="#DejaVuSans-34" x="95.410156"/>
      </g>
     </g>
    </g>
    <g id="xtick_15">
     <g id="line2d_32">
      <g>
       <use xlink:href="#mb7051d611f" x="242.181818" y="630" style="stroke: #000000; stroke-width: 0.8"/>
      </g>
     </g>
     <g id="text_29">
      <!-- 0.6 -->
      <g transform="translate(234.230256 644.598437)scale(0.1 -0.1)">
       <use xlink:href="#DejaVuSans-30"/>
       <use xlink:href="#DejaVuSans-2e" x="63.623047"/>
       <use xlink:href="#DejaVuSans-36" x="95.410156"/>
      </g>
     </g>
    </g>
    <g id="xtick_16">
     <g id="line2d_33">
      <g>
       <use xlink:href="#mb7051d611f" x="292.909091" y="630" style="stroke: #000000; stroke-width: 0.8"/>
      </g>
     </g>
     <g id="text_30">
      <!-- 0.8 -->
      <g transform="translate(284.957528 644.598437)scale(0.1 -0.1)">
       <use xlink:href="#DejaVuSans-30"/>
       <use xlink:href="#DejaVuSans-2e" x="63.623047"/>
       <use xlink:href="#DejaVuSans-38" x="95.410156"/>
      </g>
     </g>
    </g>
    <g id="xtick_17">
     <g id="line2d_34">
      <g>
       <use xlink:href="#mb7051d611f" x="343.636364" y="630" style="stroke: #000000; stroke-width: 0.8"/>
      </g>
     </g>
     <g id="text_31">
      <!-- 1.0 -->
      <g transform="translate(335.684801 644.598437)scale(0.1 -0.1)">
       <use xlink:href="#DejaVuSans-31"/>
       <use xlink:href="#DejaVuSans-2e" x="63.623047"/>
       <use xlink:href="#DejaVuSans-30" x="95.410156"/>
      </g>
     </g>
    </g>
   </g>
   <g id="matplotlib.axis_6">
    <g id="ytick_14">
     <g id="line2d_35">
      <g>
       <use xlink:href="#m73666d6a0f" x="90" y="630" style="stroke: #000000; stroke-width: 0.8"/>
      </g>
     </g>
     <g id="text_32">
      <!-- 0.0 -->
      <g transform="translate(67.096875 633.799219)scale(0.1 -0.1)">
       <use xlink:href="#DejaVuSans-30"/>
       <use xlink:href="#DejaVuSans-2e" x="63.623047"/>
       <use xlink:href="#DejaVuSans-30" x="95.410156"/>
      </g>
     </g>
    </g>
    <g id="ytick_15">
     <g id="line2d_36">
      <g>
       <use xlink:href="#m73666d6a0f" x="90" y="580.581818" style="stroke: #000000; stroke-width: 0.8"/>
      </g>
     </g>
     <g id="text_33">
      <!-- 0.2 -->
      <g transform="translate(67.096875 584.381037)scale(0.1 -0.1)">
       <use xlink:href="#DejaVuSans-30"/>
       <use xlink:href="#DejaVuSans-2e" x="63.623047"/>
       <use xlink:href="#DejaVuSans-32" x="95.410156"/>
      </g>
     </g>
    </g>
    <g id="ytick_16">
     <g id="line2d_37">
      <g>
       <use xlink:href="#m73666d6a0f" x="90" y="531.163636" style="stroke: #000000; stroke-width: 0.8"/>
      </g>
     </g>
     <g id="text_34">
      <!-- 0.4 -->
      <g transform="translate(67.096875 534.962855)scale(0.1 -0.1)">
       <use xlink:href="#DejaVuSans-30"/>
       <use xlink:href="#DejaVuSans-2e" x="63.623047"/>
       <use xlink:href="#DejaVuSans-34" x="95.410156"/>
      </g>
     </g>
    </g>
    <g id="ytick_17">
     <g id="line2d_38">
      <g>
       <use xlink:href="#m73666d6a0f" x="90" y="481.745455" style="stroke: #000000; stroke-width: 0.8"/>
      </g>
     </g>
     <g id="text_35">
      <!-- 0.6 -->
      <g transform="translate(67.096875 485.544673)scale(0.1 -0.1)">
       <use xlink:href="#DejaVuSans-30"/>
       <use xlink:href="#DejaVuSans-2e" x="63.623047"/>
       <use xlink:href="#DejaVuSans-36" x="95.410156"/>
      </g>
     </g>
    </g>
    <g id="ytick_18">
     <g id="line2d_39">
      <g>
       <use xlink:href="#m73666d6a0f" x="90" y="432.327273" style="stroke: #000000; stroke-width: 0.8"/>
      </g>
     </g>
     <g id="text_36">
      <!-- 0.8 -->
      <g transform="translate(67.096875 436.126491)scale(0.1 -0.1)">
       <use xlink:href="#DejaVuSans-30"/>
       <use xlink:href="#DejaVuSans-2e" x="63.623047"/>
       <use xlink:href="#DejaVuSans-38" x="95.410156"/>
      </g>
     </g>
    </g>
    <g id="ytick_19">
     <g id="line2d_40">
      <g>
       <use xlink:href="#m73666d6a0f" x="90" y="382.909091" style="stroke: #000000; stroke-width: 0.8"/>
      </g>
     </g>
     <g id="text_37">
      <!-- 1.0 -->
      <g transform="translate(67.096875 386.70831)scale(0.1 -0.1)">
       <use xlink:href="#DejaVuSans-31"/>
       <use xlink:href="#DejaVuSans-2e" x="63.623047"/>
       <use xlink:href="#DejaVuSans-30" x="95.410156"/>
      </g>
     </g>
    </g>
   </g>
   <g id="patch_13">
    <path d="M 90 630 
L 90 382.909091 
" style="fill: none; stroke: #000000; stroke-width: 0.8; stroke-linejoin: miter; stroke-linecap: square"/>
   </g>
   <g id="patch_14">
    <path d="M 343.636364 630 
L 343.636364 382.909091 
" style="fill: none; stroke: #000000; stroke-width: 0.8; stroke-linejoin: miter; stroke-linecap: square"/>
   </g>
   <g id="patch_15">
    <path d="M 90 630 
L 343.636364 630 
" style="fill: none; stroke: #000000; stroke-width: 0.8; stroke-linejoin: miter; stroke-linecap: square"/>
   </g>
   <g id="patch_16">
    <path d="M 90 382.909091 
L 343.636364 382.909091 
" style="fill: none; stroke: #000000; stroke-width: 0.8; stroke-linejoin: miter; stroke-linecap: square"/>
   </g>
  </g>
  <g id="axes_4">
   <g id="patch_17">
    <path d="M 394.363636 630 
L 648 630 
L 648 382.909091 
L 394.363636 382.909091 
z
" style="fill: #ffffff"/>
   </g>
   <g id="matplotlib.axis_7">
    <g id="xtick_18">
     <g id="line2d_41">
      <g>
       <use xlink:href="#mb7051d611f" x="405.863558" y="630" style="stroke: #000000; stroke-width: 0.8"/>
      </g>
     </g>
     <g id="text_38">
      <!-- 0 -->
      <g transform="translate(402.682308 644.598437)scale(0.1 -0.1)">
       <use xlink:href="#DejaVuSans-30"/>
      </g>
     </g>
    </g>
    <g id="xtick_19">
     <g id="line2d_42">
      <g>
       <use xlink:href="#mb7051d611f" x="463.870731" y="630" style="stroke: #000000; stroke-width: 0.8"/>
      </g>
     </g>
     <g id="text_39">
      <!-- 2000 -->
      <g transform="translate(451.145731 644.598437)scale(0.1 -0.1)">
       <use xlink:href="#DejaVuSans-32"/>
       <use xlink:href="#DejaVuSans-30" x="63.623047"/>
       <use xlink:href="#DejaVuSans-30" x="127.246094"/>
       <use xlink:href="#DejaVuSans-30" x="190.869141"/>
      </g>
     </g>
    </g>
    <g id="xtick_20">
     <g id="line2d_43">
      <g>
       <use xlink:href="#mb7051d611f" x="521.877904" y="630" style="stroke: #000000; stroke-width: 0.8"/>
      </g>
     </g>
     <g id="text_40">
      <!-- 4000 -->
      <g transform="translate(509.152904 644.598437)scale(0.1 -0.1)">
       <use xlink:href="#DejaVuSans-34"/>
       <use xlink:href="#DejaVuSans-30" x="63.623047"/>
       <use xlink:href="#DejaVuSans-30" x="127.246094"/>
       <use xlink:href="#DejaVuSans-30" x="190.869141"/>
      </g>
     </g>
    </g>
    <g id="xtick_21">
     <g id="line2d_44">
      <g>
       <use xlink:href="#mb7051d611f" x="579.885077" y="630" style="stroke: #000000; stroke-width: 0.8"/>
      </g>
     </g>
     <g id="text_41">
      <!-- 6000 -->
      <g transform="translate(567.160077 644.598437)scale(0.1 -0.1)">
       <use xlink:href="#DejaVuSans-36"/>
       <use xlink:href="#DejaVuSans-30" x="63.623047"/>
       <use xlink:href="#DejaVuSans-30" x="127.246094"/>
       <use xlink:href="#DejaVuSans-30" x="190.869141"/>
      </g>
     </g>
    </g>
    <g id="xtick_22">
     <g id="line2d_45">
      <g>
       <use xlink:href="#mb7051d611f" x="637.89225" y="630" style="stroke: #000000; stroke-width: 0.8"/>
      </g>
     </g>
     <g id="text_42">
      <!-- 8000 -->
      <g transform="translate(625.16725 644.598437)scale(0.1 -0.1)">
       <use xlink:href="#DejaVuSans-38"/>
       <use xlink:href="#DejaVuSans-30" x="63.623047"/>
       <use xlink:href="#DejaVuSans-30" x="127.246094"/>
       <use xlink:href="#DejaVuSans-30" x="190.869141"/>
      </g>
     </g>
    </g>
   </g>
   <g id="matplotlib.axis_8">
    <g id="ytick_20">
     <g id="line2d_46">
      <g>
       <use xlink:href="#m73666d6a0f" x="394.363636" y="615.032882" style="stroke: #000000; stroke-width: 0.8"/>
      </g>
     </g>
     <g id="text_43">
      <!-- 0 -->
      <g transform="translate(381.001136 618.832101)scale(0.1 -0.1)">
       <use xlink:href="#DejaVuSans-30"/>
      </g>
     </g>
    </g>
    <g id="ytick_21">
     <g id="line2d_47">
      <g>
       <use xlink:href="#m73666d6a0f" x="394.363636" y="577.615088" style="stroke: #000000; stroke-width: 0.8"/>
      </g>
     </g>
     <g id="text_44">
      <!-- 5 -->
      <g transform="translate(381.001136 581.414306)scale(0.1 -0.1)">
       <use xlink:href="#DejaVuSans-35"/>
      </g>
     </g>
    </g>
    <g id="ytick_22">
     <g id="line2d_48">
      <g>
       <use xlink:href="#m73666d6a0f" x="394.363636" y="540.197293" style="stroke: #000000; stroke-width: 0.8"/>
      </g>
     </g>
     <g id="text_45">
      <!-- 10 -->
      <g transform="translate(374.638636 543.996512)scale(0.1 -0.1)">
       <use xlink:href="#DejaVuSans-31"/>
       <use xlink:href="#DejaVuSans-30" x="63.623047"/>
      </g>
     </g>
    </g>
    <g id="ytick_23">
     <g id="line2d_49">
      <g>
       <use xlink:href="#m73666d6a0f" x="394.363636" y="502.779499" style="stroke: #000000; stroke-width: 0.8"/>
      </g>
     </g>
     <g id="text_46">
      <!-- 15 -->
      <g transform="translate(374.638636 506.578717)scale(0.1 -0.1)">
       <use xlink:href="#DejaVuSans-31"/>
       <use xlink:href="#DejaVuSans-35" x="63.623047"/>
      </g>
     </g>
    </g>
    <g id="ytick_24">
     <g id="line2d_50">
      <g>
       <use xlink:href="#m73666d6a0f" x="394.363636" y="465.361704" style="stroke: #000000; stroke-width: 0.8"/>
      </g>
     </g>
     <g id="text_47">
      <!-- 20 -->
      <g transform="translate(374.638636 469.160923)scale(0.1 -0.1)">
       <use xlink:href="#DejaVuSans-32"/>
       <use xlink:href="#DejaVuSans-30" x="63.623047"/>
      </g>
     </g>
    </g>
    <g id="ytick_25">
     <g id="line2d_51">
      <g>
       <use xlink:href="#m73666d6a0f" x="394.363636" y="427.943909" style="stroke: #000000; stroke-width: 0.8"/>
      </g>
     </g>
     <g id="text_48">
      <!-- 25 -->
      <g transform="translate(374.638636 431.743128)scale(0.1 -0.1)">
       <use xlink:href="#DejaVuSans-32"/>
       <use xlink:href="#DejaVuSans-35" x="63.623047"/>
      </g>
     </g>
    </g>
    <g id="ytick_26">
     <g id="line2d_52">
      <g>
       <use xlink:href="#m73666d6a0f" x="394.363636" y="390.526115" style="stroke: #000000; stroke-width: 0.8"/>
      </g>
     </g>
     <g id="text_49">
      <!-- 30 -->
      <g transform="translate(374.638636 394.325334)scale(0.1 -0.1)">
       <defs>
        <path id="DejaVuSans-33" d="M 2597 2516 
Q 3050 2419 3304 2112 
Q 3559 1806 3559 1356 
Q 3559 666 3084 287 
Q 2609 -91 1734 -91 
Q 1441 -91 1130 -33 
Q 819 25 488 141 
L 488 750 
Q 750 597 1062 519 
Q 1375 441 1716 441 
Q 2309 441 2620 675 
Q 2931 909 2931 1356 
Q 2931 1769 2642 2001 
Q 2353 2234 1838 2234 
L 1294 2234 
L 1294 2753 
L 1863 2753 
Q 2328 2753 2575 2939 
Q 2822 3125 2822 3475 
Q 2822 3834 2567 4026 
Q 2313 4219 1838 4219 
Q 1578 4219 1281 4162 
Q 984 4106 628 3988 
L 628 4550 
Q 988 4650 1302 4700 
Q 1616 4750 1894 4750 
Q 2613 4750 3031 4423 
Q 3450 4097 3450 3541 
Q 3450 3153 3228 2886 
Q 3006 2619 2597 2516 
z
" transform="scale(0.015625)"/>
       </defs>
       <use xlink:href="#DejaVuSans-33"/>
       <use xlink:href="#DejaVuSans-30" x="63.623047"/>
      </g>
     </g>
    </g>
   </g>
   <g id="line2d_53">
    <path d="M 405.892562 609.652902 
L 407.342741 601.717995 
L 410.2431 603.214279 
L 411.693279 591.201721 
L 413.143459 582.753546 
L 414.593638 593.512254 
L 416.043817 590.324614 
L 417.493997 566.437655 
L 418.944176 583.384061 
L 420.394355 637.394546 
L 421.844535 647.33037 
L 423.294714 624.600808 
L 424.744893 612.312334 
L 426.195073 602.716858 
L 427.645252 584.073085 
L 429.095431 573.41412 
L 430.54561 585.870972 
L 431.99579 611.27738 
L 433.445969 596.954447 
L 434.896148 562.961444 
L 436.346328 557.876289 
L 437.796507 554.891139 
L 439.246686 546.703036 
L 440.696866 548.302699 
L 442.147045 550.57653 
L 443.597224 551.756573 
L 445.047404 548.14905 
L 446.497583 550.009455 
L 447.947762 551.458052 
L 449.397942 539.033428 
L 450.848121 524.148614 
L 452.2983 512.359446 
L 453.74848 499.44032 
L 455.198659 499.229321 
L 456.648838 513.195944 
L 458.099018 520.202626 
L 459.549197 520.369127 
L 460.999376 505.54626 
L 462.449556 468.724859 
L 463.899735 452.371612 
L 465.349914 465.240638 
L 466.800094 483.168282 
L 468.250273 495.450004 
L 469.700452 512.701799 
L 471.150632 525.978508 
L 472.600811 533.110362 
L 474.05099 543.552153 
L 475.501169 543.687184 
L 476.951349 540.469664 
L 478.401528 544.435223 
L 479.851707 538.73293 
L 481.301887 510.145424 
L 482.752066 448.739858 
L 484.202245 392.618813 
L 485.652425 390.149824 
L 487.102604 400.763876 
L 488.552783 401.752468 
L 490.002963 395.019839 
L 491.453142 382.909091 
L 492.903321 383.220429 
L 494.353501 397.425706 
L 495.80368 396.540889 
L 497.253859 399.483644 
L 498.704039 423.771742 
L 500.154218 459.565263 
L 501.604397 474.531495 
L 503.054577 470.089779 
L 504.504756 483.059731 
L 505.954935 516.896091 
L 507.405115 541.889856 
L 508.855294 547.632733 
L 510.305473 560.83646 
L 513.205832 618.889929 
L 514.656011 624.381427 
L 516.106191 603.372015 
L 517.55637 588.884335 
L 519.006549 591.865447 
L 520.456729 609.111842 
L 521.906908 622.815533 
L 523.357087 622.806272 
L 524.807266 617.777875 
L 526.257446 619.385117 
L 527.707625 619.315445 
L 529.157804 614.061696 
L 530.607984 607.352532 
L 532.058163 601.93134 
L 533.508342 598.8731 
L 534.958522 603.782844 
L 536.408701 611.555528 
L 537.85888 614.941258 
L 539.30906 612.786654 
L 540.759239 609.047856 
L 543.659598 612.0427 
L 545.109777 603.500514 
L 546.559956 582.181729 
L 548.010136 572.218448 
L 549.460315 596.115713 
L 550.910494 614.874753 
L 552.360674 611.360323 
L 553.810853 605.176444 
L 555.261032 602.854007 
L 556.711212 609.691863 
L 558.161391 619.490837 
L 559.61157 623.320558 
L 561.06175 622.635181 
L 562.511929 621.541177 
L 563.962108 619.302937 
L 566.862467 589.281638 
L 568.312646 605.968527 
L 569.762826 626.265074 
L 571.213005 626.61047 
L 572.663184 620.381009 
L 575.563543 603.679806 
L 577.013722 598.98843 
L 578.463901 593.503088 
L 579.914081 586.567924 
L 582.814439 613.987021 
L 584.264619 606.519641 
L 585.714798 591.913897 
L 587.164977 585.382937 
L 588.615157 598.431613 
L 590.065336 614.156019 
L 591.515515 615.257899 
L 592.965695 601.288825 
L 594.415874 588.796703 
L 595.866053 599.711576 
L 597.316233 616.345091 
L 598.766412 625.527291 
L 600.216591 629.651215 
L 601.666771 630.410716 
L 603.11695 632.0617 
L 604.567129 632.429415 
L 606.017309 627.740821 
L 607.467488 623.889881 
L 608.917667 619.433081 
L 610.367847 615.882592 
L 611.818026 615.254332 
L 613.268205 615.662734 
L 616.168564 615.313286 
L 617.618743 617.075945 
L 619.068923 620.945652 
L 620.519102 622.291934 
L 621.969281 621.788598 
L 623.41946 632.196366 
L 624.86964 646.349686 
L 626.319819 640.524854 
L 627.769998 628.901556 
L 629.220178 626.288419 
L 630.670357 625.282395 
L 632.120536 621.915299 
L 633.570716 619.919179 
L 635.020895 623.224906 
L 636.471074 628.440179 
L 636.471074 628.440179 
" clip-path="url(#pb2c0cb83d9)" style="fill: none; stroke: #1f77b4; stroke-width: 1.5; stroke-linecap: square"/>
   </g>
   <g id="patch_18">
    <path d="M 394.363636 630 
L 394.363636 382.909091 
" style="fill: none; stroke: #000000; stroke-width: 0.8; stroke-linejoin: miter; stroke-linecap: square"/>
   </g>
   <g id="patch_19">
    <path d="M 648 630 
L 648 382.909091 
" style="fill: none; stroke: #000000; stroke-width: 0.8; stroke-linejoin: miter; stroke-linecap: square"/>
   </g>
   <g id="patch_20">
    <path d="M 394.363636 630 
L 648 630 
" style="fill: none; stroke: #000000; stroke-width: 0.8; stroke-linejoin: miter; stroke-linecap: square"/>
   </g>
   <g id="patch_21">
    <path d="M 394.363636 382.909091 
L 648 382.909091 
" style="fill: none; stroke: #000000; stroke-width: 0.8; stroke-linejoin: miter; stroke-linecap: square"/>
   </g>
   <g id="text_50">
    <!-- explained variance -->
    <g transform="translate(464.181818 376.909091)scale(0.12 -0.12)">
     <defs>
      <path id="DejaVuSans-65" d="M 3597 1894 
L 3597 1613 
L 953 1613 
Q 991 1019 1311 708 
Q 1631 397 2203 397 
Q 2534 397 2845 478 
Q 3156 559 3463 722 
L 3463 178 
Q 3153 47 2828 -22 
Q 2503 -91 2169 -91 
Q 1331 -91 842 396 
Q 353 884 353 1716 
Q 353 2575 817 3079 
Q 1281 3584 2069 3584 
Q 2775 3584 3186 3129 
Q 3597 2675 3597 1894 
z
M 3022 2063 
Q 3016 2534 2758 2815 
Q 2500 3097 2075 3097 
Q 1594 3097 1305 2825 
Q 1016 2553 972 2059 
L 3022 2063 
z
" transform="scale(0.015625)"/>
      <path id="DejaVuSans-78" d="M 3513 3500 
L 2247 1797 
L 3578 0 
L 2900 0 
L 1881 1375 
L 863 0 
L 184 0 
L 1544 1831 
L 300 3500 
L 978 3500 
L 1906 2253 
L 2834 3500 
L 3513 3500 
z
" transform="scale(0.015625)"/>
      <path id="DejaVuSans-70" d="M 1159 525 
L 1159 -1331 
L 581 -1331 
L 581 3500 
L 1159 3500 
L 1159 2969 
Q 1341 3281 1617 3432 
Q 1894 3584 2278 3584 
Q 2916 3584 3314 3078 
Q 3713 2572 3713 1747 
Q 3713 922 3314 415 
Q 2916 -91 2278 -91 
Q 1894 -91 1617 61 
Q 1341 213 1159 525 
z
M 3116 1747 
Q 3116 2381 2855 2742 
Q 2594 3103 2138 3103 
Q 1681 3103 1420 2742 
Q 1159 2381 1159 1747 
Q 1159 1113 1420 752 
Q 1681 391 2138 391 
Q 2594 391 2855 752 
Q 3116 1113 3116 1747 
z
" transform="scale(0.015625)"/>
      <path id="DejaVuSans-6c" d="M 603 4863 
L 1178 4863 
L 1178 0 
L 603 0 
L 603 4863 
z
" transform="scale(0.015625)"/>
      <path id="DejaVuSans-61" d="M 2194 1759 
Q 1497 1759 1228 1600 
Q 959 1441 959 1056 
Q 959 750 1161 570 
Q 1363 391 1709 391 
Q 2188 391 2477 730 
Q 2766 1069 2766 1631 
L 2766 1759 
L 2194 1759 
z
M 3341 1997 
L 3341 0 
L 2766 0 
L 2766 531 
Q 2569 213 2275 61 
Q 1981 -91 1556 -91 
Q 1019 -91 701 211 
Q 384 513 384 1019 
Q 384 1609 779 1909 
Q 1175 2209 1959 2209 
L 2766 2209 
L 2766 2266 
Q 2766 2663 2505 2880 
Q 2244 3097 1772 3097 
Q 1472 3097 1187 3025 
Q 903 2953 641 2809 
L 641 3341 
Q 956 3463 1253 3523 
Q 1550 3584 1831 3584 
Q 2591 3584 2966 3190 
Q 3341 2797 3341 1997 
z
" transform="scale(0.015625)"/>
      <path id="DejaVuSans-64" d="M 2906 2969 
L 2906 4863 
L 3481 4863 
L 3481 0 
L 2906 0 
L 2906 525 
Q 2725 213 2448 61 
Q 2172 -91 1784 -91 
Q 1150 -91 751 415 
Q 353 922 353 1747 
Q 353 2572 751 3078 
Q 1150 3584 1784 3584 
Q 2172 3584 2448 3432 
Q 2725 3281 2906 2969 
z
M 947 1747 
Q 947 1113 1208 752 
Q 1469 391 1925 391 
Q 2381 391 2643 752 
Q 2906 1113 2906 1747 
Q 2906 2381 2643 2742 
Q 2381 3103 1925 3103 
Q 1469 3103 1208 2742 
Q 947 2381 947 1747 
z
" transform="scale(0.015625)"/>
      <path id="DejaVuSans-20" transform="scale(0.015625)"/>
      <path id="DejaVuSans-76" d="M 191 3500 
L 800 3500 
L 1894 563 
L 2988 3500 
L 3597 3500 
L 2284 0 
L 1503 0 
L 191 3500 
z
" transform="scale(0.015625)"/>
      <path id="DejaVuSans-72" d="M 2631 2963 
Q 2534 3019 2420 3045 
Q 2306 3072 2169 3072 
Q 1681 3072 1420 2755 
Q 1159 2438 1159 1844 
L 1159 0 
L 581 0 
L 581 3500 
L 1159 3500 
L 1159 2956 
Q 1341 3275 1631 3429 
Q 1922 3584 2338 3584 
Q 2397 3584 2469 3576 
Q 2541 3569 2628 3553 
L 2631 2963 
z
" transform="scale(0.015625)"/>
      <path id="DejaVuSans-63" d="M 3122 3366 
L 3122 2828 
Q 2878 2963 2633 3030 
Q 2388 3097 2138 3097 
Q 1578 3097 1268 2742 
Q 959 2388 959 1747 
Q 959 1106 1268 751 
Q 1578 397 2138 397 
Q 2388 397 2633 464 
Q 2878 531 3122 666 
L 3122 134 
Q 2881 22 2623 -34 
Q 2366 -91 2075 -91 
Q 1284 -91 818 406 
Q 353 903 353 1747 
Q 353 2603 823 3093 
Q 1294 3584 2113 3584 
Q 2378 3584 2631 3529 
Q 2884 3475 3122 3366 
z
" transform="scale(0.015625)"/>
     </defs>
     <use xlink:href="#DejaVuSans-65"/>
     <use xlink:href="#DejaVuSans-78" x="59.773438"/>
     <use xlink:href="#DejaVuSans-70" x="118.953125"/>
     <use xlink:href="#DejaVuSans-6c" x="182.429688"/>
     <use xlink:href="#DejaVuSans-61" x="210.212891"/>
     <use xlink:href="#DejaVuSans-69" x="271.492188"/>
     <use xlink:href="#DejaVuSans-6e" x="299.275391"/>
     <use xlink:href="#DejaVuSans-65" x="362.654297"/>
     <use xlink:href="#DejaVuSans-64" x="424.177734"/>
     <use xlink:href="#DejaVuSans-20" x="487.654297"/>
     <use xlink:href="#DejaVuSans-76" x="519.441406"/>
     <use xlink:href="#DejaVuSans-61" x="578.621094"/>
     <use xlink:href="#DejaVuSans-72" x="639.900391"/>
     <use xlink:href="#DejaVuSans-69" x="681.013672"/>
     <use xlink:href="#DejaVuSans-61" x="708.796875"/>
     <use xlink:href="#DejaVuSans-6e" x="770.076172"/>
     <use xlink:href="#DejaVuSans-63" x="833.455078"/>
     <use xlink:href="#DejaVuSans-65" x="888.435547"/>
    </g>
   </g>
  </g>
 </g>
 <defs>
  <clipPath id="p87aa7a0491">
   <rect x="394.363636" y="86.4" width="253.636364" height="247.090909"/>
  </clipPath>
  <clipPath id="pb2c0cb83d9">
   <rect x="394.363636" y="382.909091" width="253.636364" height="247.090909"/>
  </clipPath>
 </defs>
</svg>
