<?xml version="1.0" encoding="utf-8" standalone="no"?>
<!DOCTYPE svg PUBLIC "-//W3C//DTD SVG 1.1//EN"
  "http://www.w3.org/Graphics/SVG/1.1/DTD/svg11.dtd">
<svg xmlns:xlink="http://www.w3.org/1999/xlink" width="720pt" height="720pt" viewBox="0 0 720 720" xmlns="http://www.w3.org/2000/svg" version="1.1">
 <metadata>
  <rdf:RDF xmlns:dc="http://purl.org/dc/elements/1.1/" xmlns:cc="http://creativecommons.org/ns#" xmlns:rdf="http://www.w3.org/1999/02/22-rdf-syntax-ns#">
   <cc:Work>
    <dc:type rdf:resource="http://purl.org/dc/dcmitype/StillImage"/>
    <dc:date>2023-12-19T18:24:35.763126</dc:date>
    <dc:format>image/svg+xml</dc:format>
    <dc:creator>
     <cc:Agent>
      <dc:title>Matplotlib v3.5.2, https://matplotlib.org/</dc:title>
     </cc:Agent>
    </dc:creator>
   </cc:Work>
  </rdf:RDF>
 </metadata>
 <defs>
  <style type="text/css">*{stroke-linejoin: round; stroke-linecap: butt}</style>
 </defs>
 <g id="figure_1">
  <g id="patch_1">
   <path d="M 0 720 
L 720 720 
L 720 0 
L 0 0 
z
" style="fill: #ffffff"/>
  </g>
  <g id="axes_1">
   <g id="patch_2">
    <path d="M 90 333.490909 
L 343.636364 333.490909 
L 343.636364 86.4 
L 90 86.4 
z
" style="fill: #ffffff"/>
   </g>
   <g id="matplotlib.axis_1">
    <g id="xtick_1">
     <g id="line2d_1">
      <defs>
       <path id="mc488fccce8" d="M 0 0 
L 0 3.5 
" style="stroke: #000000; stroke-width: 0.8"/>
      </defs>
      <g>
       <use xlink:href="#mc488fccce8" x="90" y="333.490909" style="stroke: #000000; stroke-width: 0.8"/>
      </g>
     </g>
     <g id="text_1">
      <!-- 0.0 -->
      <g transform="translate(82.048438 348.089347)scale(0.1 -0.1)">
       <defs>
        <path id="DejaVuSans-30" d="M 2034 4250 
Q 1547 4250 1301 3770 
Q 1056 3291 1056 2328 
Q 1056 1369 1301 889 
Q 1547 409 2034 409 
Q 2525 409 2770 889 
Q 3016 1369 3016 2328 
Q 3016 3291 2770 3770 
Q 2525 4250 2034 4250 
z
M 2034 4750 
Q 2819 4750 3233 4129 
Q 3647 3509 3647 2328 
Q 3647 1150 3233 529 
Q 2819 -91 2034 -91 
Q 1250 -91 836 529 
Q 422 1150 422 2328 
Q 422 3509 836 4129 
Q 1250 4750 2034 4750 
z
" transform="scale(0.015625)"/>
        <path id="DejaVuSans-2e" d="M 684 794 
L 1344 794 
L 1344 0 
L 684 0 
L 684 794 
z
" transform="scale(0.015625)"/>
       </defs>
       <use xlink:href="#DejaVuSans-30"/>
       <use xlink:href="#DejaVuSans-2e" x="63.623047"/>
       <use xlink:href="#DejaVuSans-30" x="95.410156"/>
      </g>
     </g>
    </g>
    <g id="xtick_2">
     <g id="line2d_2">
      <g>
       <use xlink:href="#mc488fccce8" x="140.727273" y="333.490909" style="stroke: #000000; stroke-width: 0.8"/>
      </g>
     </g>
     <g id="text_2">
      <!-- 0.2 -->
      <g transform="translate(132.77571 348.089347)scale(0.1 -0.1)">
       <defs>
        <path id="DejaVuSans-32" d="M 1228 531 
L 3431 531 
L 3431 0 
L 469 0 
L 469 531 
Q 828 903 1448 1529 
Q 2069 2156 2228 2338 
Q 2531 2678 2651 2914 
Q 2772 3150 2772 3378 
Q 2772 3750 2511 3984 
Q 2250 4219 1831 4219 
Q 1534 4219 1204 4116 
Q 875 4013 500 3803 
L 500 4441 
Q 881 4594 1212 4672 
Q 1544 4750 1819 4750 
Q 2544 4750 2975 4387 
Q 3406 4025 3406 3419 
Q 3406 3131 3298 2873 
Q 3191 2616 2906 2266 
Q 2828 2175 2409 1742 
Q 1991 1309 1228 531 
z
" transform="scale(0.015625)"/>
       </defs>
       <use xlink:href="#DejaVuSans-30"/>
       <use xlink:href="#DejaVuSans-2e" x="63.623047"/>
       <use xlink:href="#DejaVuSans-32" x="95.410156"/>
      </g>
     </g>
    </g>
    <g id="xtick_3">
     <g id="line2d_3">
      <g>
       <use xlink:href="#mc488fccce8" x="191.454545" y="333.490909" style="stroke: #000000; stroke-width: 0.8"/>
      </g>
     </g>
     <g id="text_3">
      <!-- 0.4 -->
      <g transform="translate(183.502983 348.089347)scale(0.1 -0.1)">
       <defs>
        <path id="DejaVuSans-34" d="M 2419 4116 
L 825 1625 
L 2419 1625 
L 2419 4116 
z
M 2253 4666 
L 3047 4666 
L 3047 1625 
L 3713 1625 
L 3713 1100 
L 3047 1100 
L 3047 0 
L 2419 0 
L 2419 1100 
L 313 1100 
L 313 1709 
L 2253 4666 
z
" transform="scale(0.015625)"/>
       </defs>
       <use xlink:href="#DejaVuSans-30"/>
       <use xlink:href="#DejaVuSans-2e" x="63.623047"/>
       <use xlink:href="#DejaVuSans-34" x="95.410156"/>
      </g>
     </g>
    </g>
    <g id="xtick_4">
     <g id="line2d_4">
      <g>
       <use xlink:href="#mc488fccce8" x="242.181818" y="333.490909" style="stroke: #000000; stroke-width: 0.8"/>
      </g>
     </g>
     <g id="text_4">
      <!-- 0.6 -->
      <g transform="translate(234.230256 348.089347)scale(0.1 -0.1)">
       <defs>
        <path id="DejaVuSans-36" d="M 2113 2584 
Q 1688 2584 1439 2293 
Q 1191 2003 1191 1497 
Q 1191 994 1439 701 
Q 1688 409 2113 409 
Q 2538 409 2786 701 
Q 3034 994 3034 1497 
Q 3034 2003 2786 2293 
Q 2538 2584 2113 2584 
z
M 3366 4563 
L 3366 3988 
Q 3128 4100 2886 4159 
Q 2644 4219 2406 4219 
Q 1781 4219 1451 3797 
Q 1122 3375 1075 2522 
Q 1259 2794 1537 2939 
Q 1816 3084 2150 3084 
Q 2853 3084 3261 2657 
Q 3669 2231 3669 1497 
Q 3669 778 3244 343 
Q 2819 -91 2113 -91 
Q 1303 -91 875 529 
Q 447 1150 447 2328 
Q 447 3434 972 4092 
Q 1497 4750 2381 4750 
Q 2619 4750 2861 4703 
Q 3103 4656 3366 4563 
z
" transform="scale(0.015625)"/>
       </defs>
       <use xlink:href="#DejaVuSans-30"/>
       <use xlink:href="#DejaVuSans-2e" x="63.623047"/>
       <use xlink:href="#DejaVuSans-36" x="95.410156"/>
      </g>
     </g>
    </g>
    <g id="xtick_5">
     <g id="line2d_5">
      <g>
       <use xlink:href="#mc488fccce8" x="292.909091" y="333.490909" style="stroke: #000000; stroke-width: 0.8"/>
      </g>
     </g>
     <g id="text_5">
      <!-- 0.8 -->
      <g transform="translate(284.957528 348.089347)scale(0.1 -0.1)">
       <defs>
        <path id="DejaVuSans-38" d="M 2034 2216 
Q 1584 2216 1326 1975 
Q 1069 1734 1069 1313 
Q 1069 891 1326 650 
Q 1584 409 2034 409 
Q 2484 409 2743 651 
Q 3003 894 3003 1313 
Q 3003 1734 2745 1975 
Q 2488 2216 2034 2216 
z
M 1403 2484 
Q 997 2584 770 2862 
Q 544 3141 544 3541 
Q 544 4100 942 4425 
Q 1341 4750 2034 4750 
Q 2731 4750 3128 4425 
Q 3525 4100 3525 3541 
Q 3525 3141 3298 2862 
Q 3072 2584 2669 2484 
Q 3125 2378 3379 2068 
Q 3634 1759 3634 1313 
Q 3634 634 3220 271 
Q 2806 -91 2034 -91 
Q 1263 -91 848 271 
Q 434 634 434 1313 
Q 434 1759 690 2068 
Q 947 2378 1403 2484 
z
M 1172 3481 
Q 1172 3119 1398 2916 
Q 1625 2713 2034 2713 
Q 2441 2713 2670 2916 
Q 2900 3119 2900 3481 
Q 2900 3844 2670 4047 
Q 2441 4250 2034 4250 
Q 1625 4250 1398 4047 
Q 1172 3844 1172 3481 
z
" transform="scale(0.015625)"/>
       </defs>
       <use xlink:href="#DejaVuSans-30"/>
       <use xlink:href="#DejaVuSans-2e" x="63.623047"/>
       <use xlink:href="#DejaVuSans-38" x="95.410156"/>
      </g>
     </g>
    </g>
    <g id="xtick_6">
     <g id="line2d_6">
      <g>
       <use xlink:href="#mc488fccce8" x="343.636364" y="333.490909" style="stroke: #000000; stroke-width: 0.8"/>
      </g>
     </g>
     <g id="text_6">
      <!-- 1.0 -->
      <g transform="translate(335.684801 348.089347)scale(0.1 -0.1)">
       <defs>
        <path id="DejaVuSans-31" d="M 794 531 
L 1825 531 
L 1825 4091 
L 703 3866 
L 703 4441 
L 1819 4666 
L 2450 4666 
L 2450 531 
L 3481 531 
L 3481 0 
L 794 0 
L 794 531 
z
" transform="scale(0.015625)"/>
       </defs>
       <use xlink:href="#DejaVuSans-31"/>
       <use xlink:href="#DejaVuSans-2e" x="63.623047"/>
       <use xlink:href="#DejaVuSans-30" x="95.410156"/>
      </g>
     </g>
    </g>
   </g>
   <g id="matplotlib.axis_2">
    <g id="ytick_1">
     <g id="line2d_7">
      <defs>
       <path id="m054a0e592d" d="M 0 0 
L -3.5 0 
" style="stroke: #000000; stroke-width: 0.8"/>
      </defs>
      <g>
       <use xlink:href="#m054a0e592d" x="90" y="333.490909" style="stroke: #000000; stroke-width: 0.8"/>
      </g>
     </g>
     <g id="text_7">
      <!-- 0.0 -->
      <g transform="translate(67.096875 337.290128)scale(0.1 -0.1)">
       <use xlink:href="#DejaVuSans-30"/>
       <use xlink:href="#DejaVuSans-2e" x="63.623047"/>
       <use xlink:href="#DejaVuSans-30" x="95.410156"/>
      </g>
     </g>
    </g>
    <g id="ytick_2">
     <g id="line2d_8">
      <g>
       <use xlink:href="#m054a0e592d" x="90" y="284.072727" style="stroke: #000000; stroke-width: 0.8"/>
      </g>
     </g>
     <g id="text_8">
      <!-- 0.2 -->
      <g transform="translate(67.096875 287.871946)scale(0.1 -0.1)">
       <use xlink:href="#DejaVuSans-30"/>
       <use xlink:href="#DejaVuSans-2e" x="63.623047"/>
       <use xlink:href="#DejaVuSans-32" x="95.410156"/>
      </g>
     </g>
    </g>
    <g id="ytick_3">
     <g id="line2d_9">
      <g>
       <use xlink:href="#m054a0e592d" x="90" y="234.654545" style="stroke: #000000; stroke-width: 0.8"/>
      </g>
     </g>
     <g id="text_9">
      <!-- 0.4 -->
      <g transform="translate(67.096875 238.453764)scale(0.1 -0.1)">
       <use xlink:href="#DejaVuSans-30"/>
       <use xlink:href="#DejaVuSans-2e" x="63.623047"/>
       <use xlink:href="#DejaVuSans-34" x="95.410156"/>
      </g>
     </g>
    </g>
    <g id="ytick_4">
     <g id="line2d_10">
      <g>
       <use xlink:href="#m054a0e592d" x="90" y="185.236364" style="stroke: #000000; stroke-width: 0.8"/>
      </g>
     </g>
     <g id="text_10">
      <!-- 0.6 -->
      <g transform="translate(67.096875 189.035582)scale(0.1 -0.1)">
       <use xlink:href="#DejaVuSans-30"/>
       <use xlink:href="#DejaVuSans-2e" x="63.623047"/>
       <use xlink:href="#DejaVuSans-36" x="95.410156"/>
      </g>
     </g>
    </g>
    <g id="ytick_5">
     <g id="line2d_11">
      <g>
       <use xlink:href="#m054a0e592d" x="90" y="135.818182" style="stroke: #000000; stroke-width: 0.8"/>
      </g>
     </g>
     <g id="text_11">
      <!-- 0.8 -->
      <g transform="translate(67.096875 139.617401)scale(0.1 -0.1)">
       <use xlink:href="#DejaVuSans-30"/>
       <use xlink:href="#DejaVuSans-2e" x="63.623047"/>
       <use xlink:href="#DejaVuSans-38" x="95.410156"/>
      </g>
     </g>
    </g>
    <g id="ytick_6">
     <g id="line2d_12">
      <g>
       <use xlink:href="#m054a0e592d" x="90" y="86.4" style="stroke: #000000; stroke-width: 0.8"/>
      </g>
     </g>
     <g id="text_12">
      <!-- 1.0 -->
      <g transform="translate(67.096875 90.199219)scale(0.1 -0.1)">
       <use xlink:href="#DejaVuSans-31"/>
       <use xlink:href="#DejaVuSans-2e" x="63.623047"/>
       <use xlink:href="#DejaVuSans-30" x="95.410156"/>
      </g>
     </g>
    </g>
   </g>
   <g id="patch_3">
    <path d="M 90 333.490909 
L 90 86.4 
" style="fill: none; stroke: #000000; stroke-width: 0.8; stroke-linejoin: miter; stroke-linecap: square"/>
   </g>
   <g id="patch_4">
    <path d="M 343.636364 333.490909 
L 343.636364 86.4 
" style="fill: none; stroke: #000000; stroke-width: 0.8; stroke-linejoin: miter; stroke-linecap: square"/>
   </g>
   <g id="patch_5">
    <path d="M 90 333.490909 
L 343.636364 333.490909 
" style="fill: none; stroke: #000000; stroke-width: 0.8; stroke-linejoin: miter; stroke-linecap: square"/>
   </g>
   <g id="patch_6">
    <path d="M 90 86.4 
L 343.636364 86.4 
" style="fill: none; stroke: #000000; stroke-width: 0.8; stroke-linejoin: miter; stroke-linecap: square"/>
   </g>
  </g>
  <g id="axes_2">
   <g id="patch_7">
    <path d="M 394.363636 333.490909 
L 648 333.490909 
L 648 86.4 
L 394.363636 86.4 
z
" style="fill: #ffffff"/>
   </g>
   <g id="PolyCollection_1">
    <defs>
     <path id="me1adc2003c" d="M 405.892562 -475.371724 
L 405.892562 -475.371724 
L 407.342741 -475.371724 
L 408.792921 -475.371724 
L 410.2431 -475.371724 
L 411.693279 -475.375039 
L 413.143459 -475.393339 
L 414.593638 -475.485946 
L 416.043817 -475.834902 
L 417.493997 -476.856403 
L 418.944176 -479.162639 
L 420.394355 -483.160551 
L 421.844535 -488.39912 
L 423.294714 -485.239847 
L 424.744893 -495.834961 
L 426.195073 -486.290095 
L 427.645252 -491.064117 
L 429.095431 -487.31083 
L 430.54561 -486.745911 
L 431.99579 -490.881349 
L 433.445969 -498.049236 
L 434.896148 -492.475447 
L 436.346328 -492.723284 
L 437.796507 -500.096044 
L 439.246686 -494.163921 
L 440.696866 -490.853756 
L 442.147045 -491.148576 
L 443.597224 -483.574269 
L 445.047404 -495.976733 
L 446.497583 -498.266981 
L 447.947762 -492.9777 
L 449.397942 -493.104228 
L 450.848121 -498.858654 
L 452.2983 -489.512365 
L 453.74848 -494.052578 
L 455.198659 -492.346119 
L 456.648838 -483.263733 
L 458.099018 -489.718187 
L 459.549197 -487.93531 
L 460.999376 -477.083418 
L 462.449556 -482.84664 
L 463.899735 -480.011557 
L 465.349914 -477.730537 
L 466.800094 -476.330803 
L 468.250273 -475.679377 
L 469.700452 -475.44867 
L 471.150632 -475.386875 
L 472.600811 -475.374047 
L 474.05099 -475.371724 
L 475.501169 -475.371724 
L 476.951349 -475.371724 
L 478.401528 -475.371724 
L 479.851707 -475.371724 
L 481.301887 -475.371724 
L 482.752066 -475.371724 
L 484.202245 -475.374842 
L 485.652425 -475.392057 
L 487.102604 -475.479369 
L 488.552783 -475.808716 
L 490.002963 -476.774871 
L 491.453142 -478.963596 
L 492.903321 -482.778039 
L 494.353501 -487.81702 
L 495.80368 -481.605096 
L 497.253859 -495.106298 
L 498.704039 -485.269118 
L 500.154218 -489.920946 
L 501.604397 -484.555165 
L 503.054577 -480.022322 
L 504.504756 -477.243394 
L 505.954935 -475.966175 
L 507.405115 -475.520002 
L 508.855294 -475.398153 
L 510.305473 -475.362057 
L 511.755653 -475.30037 
L 513.205832 -475.086302 
L 514.656011 -474.479076 
L 516.106191 -473.16135 
L 517.55637 -470.953326 
L 519.006549 -467.976849 
L 520.456729 -459.916468 
L 521.906908 -460.044057 
L 523.357087 -454.804313 
L 524.807266 -442.756836 
L 526.257446 -440.288977 
L 527.707625 -439.57152 
L 529.157804 -445.001664 
L 530.607984 -459.670006 
L 532.058163 -466.479601 
L 533.508342 -471.266084 
L 534.958522 -473.842131 
L 536.408701 -474.915872 
L 537.85888 -475.264144 
L 539.30906 -475.35183 
L 540.759239 -475.369111 
L 542.209418 -475.371724 
L 543.659598 -475.371724 
L 545.109777 -475.369516 
L 546.559956 -475.354964 
L 548.010136 -475.281417 
L 549.460315 -474.990457 
L 550.910494 -474.095572 
L 552.360674 -471.95608 
L 553.810853 -467.982109 
L 555.261032 -462.243524 
L 556.711212 -448.731059 
L 558.161391 -443.901136 
L 559.61157 -438.798586 
L 561.06175 -436.703115 
L 562.511929 -435.486077 
L 563.962108 -436.973951 
L 565.412288 -438.041502 
L 566.862467 -439.633887 
L 568.312646 -438.051113 
L 569.762826 -436.179326 
L 571.213005 -432.542015 
L 572.663184 -429.009446 
L 574.113363 -427.646179 
L 575.563543 -427.544262 
L 577.013722 -430.47638 
L 578.463901 -439.897894 
L 579.914081 -440.951789 
L 581.36426 -443.794413 
L 582.814439 -449.564393 
L 584.264619 -451.591405 
L 585.714798 -454.029224 
L 587.164977 -444.990232 
L 588.615157 -439.635653 
L 590.065336 -435.799734 
L 591.515515 -436.685088 
L 592.965695 -442.889553 
L 594.415874 -458.583757 
L 595.866053 -466.022581 
L 597.316233 -471.074181 
L 598.766412 -473.552993 
L 600.216591 -474.071674 
L 601.666771 -473.192653 
L 603.11695 -471.307388 
L 604.567129 -468.923223 
L 606.017309 -455.131899 
L 607.467488 -464.69996 
L 608.917667 -463.287067 
L 610.367847 -456.500022 
L 611.818026 -457.440424 
L 613.268205 -466.838464 
L 614.718385 -470.153693 
L 616.168564 -472.821544 
L 617.618743 -474.376879 
L 619.068923 -475.030928 
L 620.519102 -475.134186 
L 621.969281 -474.807165 
L 623.41946 -473.897092 
L 624.86964 -472.168774 
L 626.319819 -469.566136 
L 627.769998 -461.701783 
L 629.220178 -457.345574 
L 630.670357 -459.507656 
L 632.120536 -450.703451 
L 633.570716 -451.167416 
L 635.020895 -452.812071 
L 636.471074 -460.708894 
L 636.471074 -460.708894 
L 636.471074 -460.708894 
L 635.020895 -465.255589 
L 633.570716 -463.594161 
L 632.120536 -464.175521 
L 630.670357 -459.507656 
L 629.220178 -468.182677 
L 627.769998 -470.908666 
L 626.319819 -469.566136 
L 624.86964 -472.168774 
L 623.41946 -473.897092 
L 621.969281 -474.807165 
L 620.519102 -475.134186 
L 619.068923 -475.030928 
L 617.618743 -474.376879 
L 616.168564 -472.821544 
L 614.718385 -470.153693 
L 613.268205 -466.838464 
L 611.818026 -470.670038 
L 610.367847 -469.204403 
L 608.917667 -463.287067 
L 607.467488 -464.69996 
L 606.017309 -478.109203 
L 604.567129 -468.923223 
L 603.11695 -471.307388 
L 601.666771 -473.192653 
L 600.216591 -474.071674 
L 598.766412 -473.552993 
L 597.316233 -471.074181 
L 595.866053 -466.022581 
L 594.415874 -458.583757 
L 592.965695 -458.131087 
L 591.515515 -452.559203 
L 590.065336 -450.291168 
L 588.615157 -451.755987 
L 587.164977 -455.687919 
L 585.714798 -454.029224 
L 584.264619 -458.064168 
L 582.814439 -455.796852 
L 581.36426 -453.904075 
L 579.914081 -447.997068 
L 578.463901 -439.897894 
L 577.013722 -440.391479 
L 575.563543 -436.724489 
L 574.113363 -434.711413 
L 572.663184 -436.555846 
L 571.213005 -439.651838 
L 569.762826 -443.508623 
L 568.312646 -447.488188 
L 566.862467 -448.381147 
L 565.412288 -449.190223 
L 563.962108 -448.295639 
L 562.511929 -449.100422 
L 561.06175 -449.835811 
L 559.61157 -452.768879 
L 558.161391 -456.07978 
L 556.711212 -462.812517 
L 555.261032 -462.243524 
L 553.810853 -467.982109 
L 552.360674 -471.95608 
L 550.910494 -474.095572 
L 549.460315 -474.990457 
L 548.010136 -475.281417 
L 546.559956 -475.354964 
L 545.109777 -475.369516 
L 543.659598 -475.371724 
L 542.209418 -475.371724 
L 540.759239 -475.369111 
L 539.30906 -475.35183 
L 537.85888 -475.264144 
L 536.408701 -474.915872 
L 534.958522 -473.842131 
L 533.508342 -471.266084 
L 532.058163 -466.479601 
L 530.607984 -459.670006 
L 529.157804 -459.977769 
L 527.707625 -455.410561 
L 526.257446 -452.825388 
L 524.807266 -456.468609 
L 523.357087 -454.804313 
L 521.906908 -460.044057 
L 520.456729 -468.876978 
L 519.006549 -467.976849 
L 517.55637 -470.953326 
L 516.106191 -473.16135 
L 514.656011 -474.479076 
L 513.205832 -475.086302 
L 511.755653 -475.30037 
L 510.305473 -475.362057 
L 508.855294 -475.398153 
L 507.405115 -475.520002 
L 505.954935 -475.966175 
L 504.504756 -477.243394 
L 503.054577 -480.022322 
L 501.604397 -484.555165 
L 500.154218 -489.920946 
L 498.704039 -502.883874 
L 497.253859 -495.106298 
L 495.80368 -503.579935 
L 494.353501 -487.81702 
L 492.903321 -482.778039 
L 491.453142 -478.963596 
L 490.002963 -476.774871 
L 488.552783 -475.808716 
L 487.102604 -475.479369 
L 485.652425 -475.392057 
L 484.202245 -475.374842 
L 482.752066 -475.371724 
L 481.301887 -475.371724 
L 479.851707 -475.371724 
L 478.401528 -475.371724 
L 476.951349 -475.371724 
L 475.501169 -475.371724 
L 474.05099 -475.371724 
L 472.600811 -475.374047 
L 471.150632 -475.386875 
L 469.700452 -475.44867 
L 468.250273 -475.679377 
L 466.800094 -476.330803 
L 465.349914 -477.730537 
L 463.899735 -480.011557 
L 462.449556 -482.84664 
L 460.999376 -494.165907 
L 459.549197 -487.93531 
L 458.099018 -489.718187 
L 456.648838 -498.898796 
L 455.198659 -492.346119 
L 453.74848 -494.052578 
L 452.2983 -503.336857 
L 450.848121 -498.858654 
L 449.397942 -507.388259 
L 447.947762 -506.890241 
L 446.497583 -498.266981 
L 445.047404 -495.976733 
L 443.597224 -503.257347 
L 442.147045 -491.148576 
L 440.696866 -490.853756 
L 439.246686 -494.163921 
L 437.796507 -500.096044 
L 436.346328 -516.525515 
L 434.896148 -515.379935 
L 433.445969 -498.049236 
L 431.99579 -490.881349 
L 430.54561 -486.745911 
L 429.095431 -487.31083 
L 427.645252 -491.064117 
L 426.195073 -503.345497 
L 424.744893 -495.834961 
L 423.294714 -501.368857 
L 421.844535 -488.39912 
L 420.394355 -483.160551 
L 418.944176 -479.162639 
L 417.493997 -476.856403 
L 416.043817 -475.834902 
L 414.593638 -475.485946 
L 413.143459 -475.393339 
L 411.693279 -475.375039 
L 410.2431 -475.371724 
L 408.792921 -475.371724 
L 407.342741 -475.371724 
L 405.892562 -475.371724 
z
" style="stroke: #9467bd; stroke-opacity: 0.2"/>
    </defs>
    <g clip-path="url(#p2ef7cfc01b)">
     <use xlink:href="#me1adc2003c" x="0" y="720" style="fill: #9467bd; fill-opacity: 0.2; stroke: #9467bd; stroke-opacity: 0.2"/>
    </g>
   </g>
   <g id="PolyCollection_2">
    <defs>
     <path id="mcd302570ac" d="M 405.892562 -475.371724 
L 405.892562 -475.371724 
L 407.342741 -475.371724 
L 408.792921 -475.371724 
L 410.2431 -475.371724 
L 411.693279 -475.371724 
L 413.143459 -475.371724 
L 414.593638 -475.371724 
L 416.043817 -475.371724 
L 417.493997 -475.371724 
L 418.944176 -475.371724 
L 420.394355 -475.371724 
L 421.844535 -475.371724 
L 423.294714 -475.371724 
L 424.744893 -475.371724 
L 426.195073 -475.371724 
L 427.645252 -475.371724 
L 429.095431 -475.371724 
L 430.54561 -475.371724 
L 431.99579 -475.371724 
L 433.445969 -475.371724 
L 434.896148 -475.371724 
L 436.346328 -475.371724 
L 437.796507 -475.371724 
L 439.246686 -475.371724 
L 440.696866 -475.371724 
L 442.147045 -475.371724 
L 443.597224 -475.371724 
L 445.047404 -475.371724 
L 446.497583 -475.371724 
L 447.947762 -475.371724 
L 449.397942 -475.371724 
L 450.848121 -475.371724 
L 452.2983 -475.371724 
L 453.74848 -475.371724 
L 455.198659 -475.371724 
L 456.648838 -475.371724 
L 458.099018 -475.371724 
L 459.549197 -475.371724 
L 460.999376 -475.371724 
L 462.449556 -475.371724 
L 463.899735 -475.371724 
L 465.349914 -475.371724 
L 466.800094 -475.371724 
L 468.250273 -475.371724 
L 469.700452 -475.371724 
L 471.150632 -475.371724 
L 472.600811 -475.371724 
L 474.05099 -475.371724 
L 475.501169 -475.371724 
L 476.951349 -475.371724 
L 478.401528 -475.371724 
L 479.851707 -475.371724 
L 481.301887 -475.371724 
L 482.752066 -475.371724 
L 484.202245 -475.371724 
L 485.652425 -475.371724 
L 487.102604 -475.371724 
L 488.552783 -475.371724 
L 490.002963 -475.371724 
L 491.453142 -475.371724 
L 492.903321 -475.371724 
L 494.353501 -475.371724 
L 495.80368 -475.371724 
L 497.253859 -475.371724 
L 498.704039 -475.371724 
L 500.154218 -475.371724 
L 501.604397 -475.371724 
L 503.054577 -475.371724 
L 504.504756 -475.371724 
L 505.954935 -475.371724 
L 507.405115 -475.371724 
L 508.855294 -475.371724 
L 510.305473 -475.371724 
L 511.755653 -475.371724 
L 513.205832 -475.371724 
L 514.656011 -475.371724 
L 516.106191 -475.371724 
L 517.55637 -475.371724 
L 519.006549 -475.371724 
L 520.456729 -475.371724 
L 521.906908 -475.371724 
L 523.357087 -475.371724 
L 524.807266 -475.371724 
L 526.257446 -475.371724 
L 527.707625 -475.371724 
L 529.157804 -475.371724 
L 530.607984 -475.371724 
L 532.058163 -475.371724 
L 533.508342 -475.371724 
L 534.958522 -475.371724 
L 536.408701 -475.371724 
L 537.85888 -475.371724 
L 539.30906 -475.371724 
L 540.759239 -475.371724 
L 542.209418 -475.371724 
L 543.659598 -475.371724 
L 545.109777 -475.371724 
L 546.559956 -475.371724 
L 548.010136 -475.371724 
L 549.460315 -475.371724 
L 550.910494 -475.371724 
L 552.360674 -475.371724 
L 553.810853 -475.371724 
L 555.261032 -475.371724 
L 556.711212 -475.371724 
L 558.161391 -475.371724 
L 559.61157 -475.371724 
L 561.06175 -475.371724 
L 562.511929 -475.371724 
L 563.962108 -475.371724 
L 565.412288 -475.371724 
L 566.862467 -475.371724 
L 568.312646 -475.371724 
L 569.762826 -475.371724 
L 571.213005 -475.371724 
L 572.663184 -475.371724 
L 574.113363 -475.371724 
L 575.563543 -475.371724 
L 577.013722 -475.371724 
L 578.463901 -475.371724 
L 579.914081 -475.371724 
L 581.36426 -475.371724 
L 582.814439 -475.371724 
L 584.264619 -475.371724 
L 585.714798 -475.371724 
L 587.164977 -475.371724 
L 588.615157 -475.371724 
L 590.065336 -475.371724 
L 591.515515 -475.371724 
L 592.965695 -475.371724 
L 594.415874 -475.371724 
L 595.866053 -475.371724 
L 597.316233 -475.371724 
L 598.766412 -475.371724 
L 600.216591 -475.371724 
L 601.666771 -475.371724 
L 603.11695 -475.371724 
L 604.567129 -475.371724 
L 606.017309 -475.371724 
L 607.467488 -475.371724 
L 608.917667 -475.371724 
L 610.367847 -475.371724 
L 611.818026 -475.371724 
L 613.268205 -475.371724 
L 614.718385 -475.371724 
L 616.168564 -475.371724 
L 617.618743 -475.371724 
L 619.068923 -475.371724 
L 620.519102 -475.371724 
L 621.969281 -475.371724 
L 623.41946 -475.371724 
L 624.86964 -475.371724 
L 626.319819 -475.371724 
L 627.769998 -475.371724 
L 629.220178 -475.371724 
L 630.670357 -475.371724 
L 632.120536 -475.371724 
L 633.570716 -475.371724 
L 635.020895 -475.371724 
L 636.471074 -475.371724 
L 636.471074 -475.371724 
L 636.471074 -475.371724 
L 635.020895 -475.371724 
L 633.570716 -475.371724 
L 632.120536 -475.371724 
L 630.670357 -475.371724 
L 629.220178 -475.371724 
L 627.769998 -475.371724 
L 626.319819 -475.371724 
L 624.86964 -475.371724 
L 623.41946 -475.371724 
L 621.969281 -475.371724 
L 620.519102 -475.371724 
L 619.068923 -475.371724 
L 617.618743 -475.371724 
L 616.168564 -475.371724 
L 614.718385 -475.371724 
L 613.268205 -475.371724 
L 611.818026 -475.371724 
L 610.367847 -475.371724 
L 608.917667 -475.371724 
L 607.467488 -475.371724 
L 606.017309 -475.371724 
L 604.567129 -475.371724 
L 603.11695 -475.371724 
L 601.666771 -475.371724 
L 600.216591 -475.371724 
L 598.766412 -475.371724 
L 597.316233 -475.371724 
L 595.866053 -475.371724 
L 594.415874 -475.371724 
L 592.965695 -475.371724 
L 591.515515 -475.371724 
L 590.065336 -475.371724 
L 588.615157 -475.371724 
L 587.164977 -475.371724 
L 585.714798 -475.371724 
L 584.264619 -475.371724 
L 582.814439 -475.371724 
L 581.36426 -475.371724 
L 579.914081 -475.371724 
L 578.463901 -475.371724 
L 577.013722 -475.371724 
L 575.563543 -475.371724 
L 574.113363 -475.371724 
L 572.663184 -475.371724 
L 571.213005 -475.371724 
L 569.762826 -475.371724 
L 568.312646 -475.371724 
L 566.862467 -475.371724 
L 565.412288 -475.371724 
L 563.962108 -475.371724 
L 562.511929 -475.371724 
L 561.06175 -475.371724 
L 559.61157 -475.371724 
L 558.161391 -475.371724 
L 556.711212 -475.371724 
L 555.261032 -475.371724 
L 553.810853 -475.371724 
L 552.360674 -475.371724 
L 550.910494 -475.371724 
L 549.460315 -475.371724 
L 548.010136 -475.371724 
L 546.559956 -475.371724 
L 545.109777 -475.371724 
L 543.659598 -475.371724 
L 542.209418 -475.371724 
L 540.759239 -475.371724 
L 539.30906 -475.371724 
L 537.85888 -475.371724 
L 536.408701 -475.371724 
L 534.958522 -475.371724 
L 533.508342 -475.371724 
L 532.058163 -475.371724 
L 530.607984 -475.371724 
L 529.157804 -475.371724 
L 527.707625 -475.371724 
L 526.257446 -475.371724 
L 524.807266 -475.371724 
L 523.357087 -475.371724 
L 521.906908 -475.371724 
L 520.456729 -475.371724 
L 519.006549 -475.371724 
L 517.55637 -475.371724 
L 516.106191 -475.371724 
L 514.656011 -475.371724 
L 513.205832 -475.371724 
L 511.755653 -475.371724 
L 510.305473 -475.371724 
L 508.855294 -475.371724 
L 507.405115 -475.371724 
L 505.954935 -475.371724 
L 504.504756 -475.371724 
L 503.054577 -475.371724 
L 501.604397 -475.371724 
L 500.154218 -475.371724 
L 498.704039 -475.371724 
L 497.253859 -475.371724 
L 495.80368 -475.371724 
L 494.353501 -475.371724 
L 492.903321 -475.371724 
L 491.453142 -475.371724 
L 490.002963 -475.371724 
L 488.552783 -475.371724 
L 487.102604 -475.371724 
L 485.652425 -475.371724 
L 484.202245 -475.371724 
L 482.752066 -475.371724 
L 481.301887 -475.371724 
L 479.851707 -475.371724 
L 478.401528 -475.371724 
L 476.951349 -475.371724 
L 475.501169 -475.371724 
L 474.05099 -475.371724 
L 472.600811 -475.371724 
L 471.150632 -475.371724 
L 469.700452 -475.371724 
L 468.250273 -475.371724 
L 466.800094 -475.371724 
L 465.349914 -475.371724 
L 463.899735 -475.371724 
L 462.449556 -475.371724 
L 460.999376 -475.371724 
L 459.549197 -475.371724 
L 458.099018 -475.371724 
L 456.648838 -475.371724 
L 455.198659 -475.371724 
L 453.74848 -475.371724 
L 452.2983 -475.371724 
L 450.848121 -475.371724 
L 449.397942 -475.371724 
L 447.947762 -475.371724 
L 446.497583 -475.371724 
L 445.047404 -475.371724 
L 443.597224 -475.371724 
L 442.147045 -475.371724 
L 440.696866 -475.371724 
L 439.246686 -475.371724 
L 437.796507 -475.371724 
L 436.346328 -475.371724 
L 434.896148 -475.371724 
L 433.445969 -475.371724 
L 431.99579 -475.371724 
L 430.54561 -475.371724 
L 429.095431 -475.371724 
L 427.645252 -475.371724 
L 426.195073 -475.371724 
L 424.744893 -475.371724 
L 423.294714 -475.371724 
L 421.844535 -475.371724 
L 420.394355 -475.371724 
L 418.944176 -475.371724 
L 417.493997 -475.371724 
L 416.043817 -475.371724 
L 414.593638 -475.371724 
L 413.143459 -475.371724 
L 411.693279 -475.371724 
L 410.2431 -475.371724 
L 408.792921 -475.371724 
L 407.342741 -475.371724 
L 405.892562 -475.371724 
z
" style="stroke: #1f77b4; stroke-opacity: 0.2"/>
    </defs>
    <g clip-path="url(#p2ef7cfc01b)">
     <use xlink:href="#mcd302570ac" x="0" y="720" style="fill: #1f77b4; fill-opacity: 0.2; stroke: #1f77b4; stroke-opacity: 0.2"/>
    </g>
   </g>
   <g id="PolyCollection_3">
    <defs>
     <path id="mee752a5a74" d="M 405.892562 -454.050316 
L 405.892562 -454.050316 
L 407.342741 -443.672576 
L 408.792921 -459.2321 
L 410.2431 -461.567228 
L 411.693279 -460.462212 
L 413.143459 -454.924299 
L 414.593638 -436.261001 
L 416.043817 -428.782432 
L 417.493997 -428.053853 
L 418.944176 -431.424016 
L 420.394355 -445.51196 
L 421.844535 -447.310472 
L 423.294714 -443.403944 
L 424.744893 -426.384623 
L 426.195073 -423.00852 
L 427.645252 -403.477362 
L 429.095431 -397.774183 
L 430.54561 -398.871769 
L 431.99579 -406.597103 
L 433.445969 -415.97073 
L 434.896148 -430.930826 
L 436.346328 -431.208064 
L 437.796507 -414.530066 
L 439.246686 -410.102115 
L 440.696866 -409.123426 
L 442.147045 -411.950171 
L 443.597224 -427.196445 
L 445.047404 -424.891624 
L 446.497583 -434.068143 
L 447.947762 -446.673308 
L 449.397942 -450.14462 
L 450.848121 -444.820159 
L 452.2983 -448.707224 
L 453.74848 -442.73407 
L 455.198659 -443.828996 
L 456.648838 -454.149467 
L 458.099018 -457.120883 
L 459.549197 -456.655633 
L 460.999376 -453.878869 
L 462.449556 -445.225647 
L 463.899735 -454.077826 
L 465.349914 -457.291475 
L 466.800094 -458.722558 
L 468.250273 -457.545177 
L 469.700452 -451.478601 
L 471.150632 -452.057111 
L 472.600811 -464.416954 
L 474.05099 -474.322737 
L 475.501169 -486.785328 
L 476.951349 -500.204786 
L 478.401528 -500.898497 
L 479.851707 -503.936749 
L 481.301887 -498.904763 
L 482.752066 -502.446725 
L 484.202245 -491.373804 
L 485.652425 -482.962362 
L 487.102604 -478.24799 
L 488.552783 -476.238298 
L 490.002963 -475.578452 
L 491.453142 -475.410079 
L 492.903321 -475.376831 
L 494.353501 -475.371724 
L 495.80368 -475.371724 
L 497.253859 -475.371724 
L 498.704039 -475.371724 
L 500.154218 -475.371724 
L 501.604397 -475.371724 
L 503.054577 -475.368768 
L 504.504756 -475.352451 
L 505.954935 -475.273848 
L 507.405115 -474.984617 
L 508.855294 -474.179352 
L 510.305473 -472.511372 
L 511.755653 -470.027883 
L 513.205832 -467.596481 
L 514.656011 -461.549212 
L 516.106191 -467.596481 
L 517.55637 -470.027883 
L 519.006549 -472.507367 
L 520.456729 -474.14732 
L 521.906908 -474.807127 
L 523.357087 -474.507459 
L 524.807266 -472.715957 
L 526.257446 -468.083273 
L 527.707625 -459.039814 
L 529.157804 -445.341383 
L 530.607984 -420.489944 
L 532.058163 -404.708473 
L 533.508342 -397.740496 
L 534.958522 -401.193801 
L 536.408701 -411.203148 
L 537.85888 -441.794469 
L 539.30906 -453.687313 
L 540.759239 -457.993569 
L 542.209418 -453.307817 
L 543.659598 -441.882616 
L 545.109777 -417.33485 
L 546.559956 -409.285523 
L 548.010136 -404.318161 
L 549.460315 -403.203403 
L 550.910494 -405.993936 
L 552.360674 -412.354768 
L 553.810853 -418.761299 
L 555.261032 -431.582048 
L 556.711212 -450.808947 
L 558.161391 -461.762371 
L 559.61157 -469.161491 
L 561.06175 -473.072312 
L 562.511929 -474.68858 
L 563.962108 -475.210507 
L 565.412288 -475.342045 
L 566.862467 -475.369443 
L 568.312646 -475.382606 
L 569.762826 -475.426989 
L 571.213005 -475.590302 
L 572.663184 -476.044991 
L 574.113363 -476.989422 
L 575.563543 -478.40614 
L 577.013722 -479.84852 
L 578.463901 -477.16039 
L 579.914081 -480.816257 
L 581.36426 -480.918178 
L 582.814439 -481.711749 
L 584.264619 -482.91974 
L 585.714798 -478.932852 
L 587.164977 -482.27764 
L 588.615157 -479.975077 
L 590.065336 -477.332304 
L 591.515515 -474.475321 
L 592.965695 -470.36159 
L 594.415874 -463.566389 
L 595.866053 -453.752731 
L 597.316233 -433.151723 
L 598.766412 -423.346036 
L 600.216591 -419.744636 
L 601.666771 -422.368497 
L 603.11695 -431.058455 
L 604.567129 -453.797712 
L 606.017309 -463.481691 
L 607.467488 -469.985059 
L 608.917667 -473.324205 
L 610.367847 -474.471558 
L 611.818026 -474.242229 
L 613.268205 -472.958267 
L 614.718385 -470.894784 
L 616.168564 -468.80736 
L 617.618743 -460.171333 
L 619.068923 -467.945296 
L 620.519102 -468.660175 
L 621.969281 -468.776189 
L 623.41946 -468.252809 
L 624.86964 -459.703568 
L 626.319819 -469.166002 
L 627.769998 -471.146643 
L 629.220178 -473.116342 
L 630.670357 -474.432569 
L 632.120536 -475.066825 
L 633.570716 -475.294633 
L 635.020895 -475.356544 
L 636.471074 -475.369396 
L 636.471074 -475.369396 
L 636.471074 -475.369396 
L 635.020895 -475.356544 
L 633.570716 -475.294633 
L 632.120536 -475.066825 
L 630.670357 -474.432569 
L 629.220178 -473.116342 
L 627.769998 -471.146643 
L 626.319819 -469.166002 
L 624.86964 -476.514979 
L 623.41946 -468.252809 
L 621.969281 -468.776189 
L 620.519102 -468.660175 
L 619.068923 -467.945296 
L 617.618743 -475.26023 
L 616.168564 -468.80736 
L 614.718385 -470.894784 
L 613.268205 -472.958267 
L 611.818026 -474.242229 
L 610.367847 -474.471558 
L 608.917667 -473.324205 
L 607.467488 -469.985059 
L 606.017309 -463.481691 
L 604.567129 -453.797712 
L 603.11695 -454.587711 
L 601.666771 -445.595492 
L 600.216591 -441.347787 
L 598.766412 -444.417387 
L 597.316233 -452.265564 
L 595.866053 -453.752731 
L 594.415874 -463.566389 
L 592.965695 -470.36159 
L 591.515515 -474.475321 
L 590.065336 -477.332304 
L 588.615157 -479.975077 
L 587.164977 -482.27764 
L 585.714798 -487.821947 
L 584.264619 -482.91974 
L 582.814439 -481.711749 
L 581.36426 -480.918178 
L 579.914081 -480.816257 
L 578.463901 -484.217228 
L 577.013722 -479.84852 
L 575.563543 -478.40614 
L 574.113363 -476.989422 
L 572.663184 -476.044991 
L 571.213005 -475.590302 
L 569.762826 -475.426989 
L 568.312646 -475.382606 
L 566.862467 -475.369443 
L 565.412288 -475.342045 
L 563.962108 -475.210507 
L 562.511929 -474.68858 
L 561.06175 -473.072312 
L 559.61157 -469.161491 
L 558.161391 -461.762371 
L 556.711212 -450.808947 
L 555.261032 -444.679674 
L 553.810853 -434.600231 
L 552.360674 -424.874953 
L 550.910494 -422.27342 
L 549.460315 -421.52822 
L 548.010136 -422.308476 
L 546.559956 -427.567679 
L 545.109777 -439.929366 
L 543.659598 -441.882616 
L 542.209418 -453.307817 
L 540.759239 -457.993569 
L 539.30906 -453.687313 
L 537.85888 -441.794469 
L 536.408701 -442.538172 
L 534.958522 -428.605562 
L 533.508342 -423.885389 
L 532.058163 -428.053675 
L 530.607984 -438.504296 
L 529.157804 -445.341383 
L 527.707625 -459.039814 
L 526.257446 -468.083273 
L 524.807266 -472.715957 
L 523.357087 -474.507459 
L 521.906908 -474.807127 
L 520.456729 -474.14732 
L 519.006549 -472.507367 
L 517.55637 -470.027883 
L 516.106191 -467.596481 
L 514.656011 -471.573226 
L 513.205832 -467.596481 
L 511.755653 -470.027883 
L 510.305473 -472.511372 
L 508.855294 -474.179352 
L 507.405115 -474.984617 
L 505.954935 -475.273848 
L 504.504756 -475.352451 
L 503.054577 -475.368768 
L 501.604397 -475.371724 
L 500.154218 -475.371724 
L 498.704039 -475.371724 
L 497.253859 -475.371724 
L 495.80368 -475.371724 
L 494.353501 -475.371724 
L 492.903321 -475.376831 
L 491.453142 -475.410079 
L 490.002963 -475.578452 
L 488.552783 -476.238298 
L 487.102604 -478.24799 
L 485.652425 -482.962362 
L 484.202245 -491.373804 
L 482.752066 -502.446725 
L 481.301887 -525.67369 
L 479.851707 -528.097386 
L 478.401528 -521.772905 
L 476.951349 -500.204786 
L 475.501169 -486.785328 
L 474.05099 -474.322737 
L 472.600811 -464.416954 
L 471.150632 -464.302043 
L 469.700452 -461.108366 
L 468.250273 -457.545177 
L 466.800094 -458.722558 
L 465.349914 -457.291475 
L 463.899735 -454.077826 
L 462.449556 -459.470999 
L 460.999376 -453.878869 
L 459.549197 -456.655633 
L 458.099018 -457.120883 
L 456.648838 -454.149467 
L 455.198659 -456.311863 
L 453.74848 -453.227662 
L 452.2983 -448.707224 
L 450.848121 -455.87642 
L 449.397942 -450.14462 
L 447.947762 -446.673308 
L 446.497583 -447.240175 
L 445.047404 -442.673823 
L 443.597224 -427.196445 
L 442.147045 -431.521706 
L 440.696866 -429.044947 
L 439.246686 -431.736397 
L 437.796507 -438.176449 
L 436.346328 -431.208064 
L 434.896148 -430.930826 
L 433.445969 -432.900106 
L 431.99579 -423.494785 
L 430.54561 -417.096908 
L 429.095431 -416.292898 
L 427.645252 -422.06211 
L 426.195073 -423.00852 
L 424.744893 -442.364295 
L 423.294714 -443.403944 
L 421.844535 -447.310472 
L 420.394355 -445.51196 
L 418.944176 -450.17209 
L 417.493997 -447.712553 
L 416.043817 -451.258442 
L 414.593638 -457.388551 
L 413.143459 -454.924299 
L 411.693279 -460.462212 
L 410.2431 -461.567228 
L 408.792921 -459.2321 
L 407.342741 -468.397486 
L 405.892562 -454.050316 
z
" style="stroke: #d62728; stroke-opacity: 0.2"/>
    </defs>
    <g clip-path="url(#p2ef7cfc01b)">
     <use xlink:href="#mee752a5a74" x="0" y="720" style="fill: #d62728; fill-opacity: 0.2; stroke: #d62728; stroke-opacity: 0.2"/>
    </g>
   </g>
   <g id="PolyCollection_4">
    <defs>
     <path id="mcf17f12779" d="M 405.892562 -475.371724 
L 405.892562 -475.371724 
L 407.342741 -475.371724 
L 408.792921 -475.371724 
L 410.2431 -475.371724 
L 411.693279 -475.371724 
L 413.143459 -475.371724 
L 414.593638 -475.371724 
L 416.043817 -475.371724 
L 417.493997 -475.371724 
L 418.944176 -475.371724 
L 420.394355 -475.371724 
L 421.844535 -475.371724 
L 423.294714 -475.371724 
L 424.744893 -475.371724 
L 426.195073 -475.371724 
L 427.645252 -475.371724 
L 429.095431 -475.371724 
L 430.54561 -475.371724 
L 431.99579 -475.371724 
L 433.445969 -475.371724 
L 434.896148 -475.371724 
L 436.346328 -475.371724 
L 437.796507 -475.371724 
L 439.246686 -475.371724 
L 440.696866 -475.371724 
L 442.147045 -475.371724 
L 443.597224 -475.371724 
L 445.047404 -475.371724 
L 446.497583 -475.371724 
L 447.947762 -475.371724 
L 449.397942 -475.371724 
L 450.848121 -475.371724 
L 452.2983 -475.371724 
L 453.74848 -475.371724 
L 455.198659 -475.371724 
L 456.648838 -475.370939 
L 458.099018 -475.366607 
L 459.549197 -475.345737 
L 460.999376 -475.26782 
L 462.449556 -475.045135 
L 463.899735 -474.554172 
L 465.349914 -473.690617 
L 466.800094 -472.363247 
L 468.250273 -465.066284 
L 469.700452 -466.770273 
L 471.150632 -461.201769 
L 472.600811 -450.251621 
L 474.05099 -442.331587 
L 475.501169 -440.410955 
L 476.951349 -443.061931 
L 478.401528 -452.672079 
L 479.851707 -458.044279 
L 481.301887 -461.03039 
L 482.752066 -455.539793 
L 484.202245 -459.258926 
L 485.652425 -454.502777 
L 487.102604 -442.34476 
L 488.552783 -433.587471 
L 490.002963 -424.928575 
L 491.453142 -422.615798 
L 492.903321 -425.086052 
L 494.353501 -427.519326 
L 495.80368 -440.677703 
L 497.253859 -435.626191 
L 498.704039 -443.092471 
L 500.154218 -434.594979 
L 501.604397 -431.074277 
L 503.054577 -430.607239 
L 504.504756 -432.052662 
L 505.954935 -430.78921 
L 507.405115 -435.520287 
L 508.855294 -435.686595 
L 510.305473 -439.424524 
L 511.755653 -448.481201 
L 513.205832 -452.711029 
L 514.656011 -463.297216 
L 516.106191 -466.552601 
L 517.55637 -468.017045 
L 519.006549 -464.90881 
L 520.456729 -470.183745 
L 521.906908 -471.928003 
L 523.357087 -473.550974 
L 524.807266 -474.616004 
L 526.257446 -475.137118 
L 527.707625 -475.383918 
L 529.157804 -475.746969 
L 530.607984 -476.971828 
L 532.058163 -480.591417 
L 533.508342 -488.876357 
L 534.958522 -503.487043 
L 536.408701 -523.449955 
L 537.85888 -513.180273 
L 539.30906 -535.49027 
L 540.759239 -577.237082 
L 542.209418 -538.033987 
L 543.659598 -517.647108 
L 545.109777 -545.843414 
L 546.559956 -518.591001 
L 548.010136 -496.645071 
L 549.460315 -483.692069 
L 550.910494 -477.94121 
L 552.360674 -475.995846 
L 553.810853 -475.491004 
L 555.261032 -475.388063 
L 556.711212 -475.371724 
L 558.161391 -475.371724 
L 559.61157 -475.371724 
L 561.06175 -475.371724 
L 562.511929 -475.371724 
L 563.962108 -475.371724 
L 565.412288 -475.371724 
L 566.862467 -475.371724 
L 568.312646 -475.371724 
L 569.762826 -475.371724 
L 571.213005 -475.371724 
L 572.663184 -475.371724 
L 574.113363 -475.371724 
L 575.563543 -475.371724 
L 577.013722 -475.371724 
L 578.463901 -475.371724 
L 579.914081 -475.371724 
L 581.36426 -475.371724 
L 582.814439 -475.371724 
L 584.264619 -475.377746 
L 585.714798 -475.410993 
L 587.164977 -475.571147 
L 588.615157 -476.16046 
L 590.065336 -477.801201 
L 591.515515 -481.199737 
L 592.965695 -486.259886 
L 594.415874 -491.213906 
L 595.866053 -468.333875 
L 597.316233 -491.213906 
L 598.766412 -486.259886 
L 600.216591 -481.199737 
L 601.666771 -477.801201 
L 603.11695 -476.16046 
L 604.567129 -475.571147 
L 606.017309 -475.410993 
L 607.467488 -475.377746 
L 608.917667 -475.371724 
L 610.367847 -475.371724 
L 611.818026 -475.371724 
L 613.268205 -475.371724 
L 614.718385 -475.371724 
L 616.168564 -475.371724 
L 617.618743 -475.371724 
L 619.068923 -475.371724 
L 620.519102 -475.371724 
L 621.969281 -475.371724 
L 623.41946 -475.371724 
L 624.86964 -475.371724 
L 626.319819 -475.371724 
L 627.769998 -475.371724 
L 629.220178 -475.371724 
L 630.670357 -475.371724 
L 632.120536 -475.371724 
L 633.570716 -475.371724 
L 635.020895 -475.371724 
L 636.471074 -475.371724 
L 636.471074 -475.371724 
L 636.471074 -475.371724 
L 635.020895 -475.371724 
L 633.570716 -475.371724 
L 632.120536 -475.371724 
L 630.670357 -475.371724 
L 629.220178 -475.371724 
L 627.769998 -475.371724 
L 626.319819 -475.371724 
L 624.86964 -475.371724 
L 623.41946 -475.371724 
L 621.969281 -475.371724 
L 620.519102 -475.371724 
L 619.068923 -475.371724 
L 617.618743 -475.371724 
L 616.168564 -475.371724 
L 614.718385 -475.371724 
L 613.268205 -475.371724 
L 611.818026 -475.371724 
L 610.367847 -475.371724 
L 608.917667 -475.371724 
L 607.467488 -475.377746 
L 606.017309 -475.410993 
L 604.567129 -475.571147 
L 603.11695 -476.16046 
L 601.666771 -477.801201 
L 600.216591 -481.199737 
L 598.766412 -486.259886 
L 597.316233 -491.213906 
L 595.866053 -518.312662 
L 594.415874 -491.213906 
L 592.965695 -486.259886 
L 591.515515 -481.199737 
L 590.065336 -477.801201 
L 588.615157 -476.16046 
L 587.164977 -475.571147 
L 585.714798 -475.410993 
L 584.264619 -475.377746 
L 582.814439 -475.371724 
L 581.36426 -475.371724 
L 579.914081 -475.371724 
L 578.463901 -475.371724 
L 577.013722 -475.371724 
L 575.563543 -475.371724 
L 574.113363 -475.371724 
L 572.663184 -475.371724 
L 571.213005 -475.371724 
L 569.762826 -475.371724 
L 568.312646 -475.371724 
L 566.862467 -475.371724 
L 565.412288 -475.371724 
L 563.962108 -475.371724 
L 562.511929 -475.371724 
L 561.06175 -475.371724 
L 559.61157 -475.371724 
L 558.161391 -475.371724 
L 556.711212 -475.371724 
L 555.261032 -475.388063 
L 553.810853 -475.491004 
L 552.360674 -475.995846 
L 550.910494 -477.94121 
L 549.460315 -483.692069 
L 548.010136 -496.645071 
L 546.559956 -518.591001 
L 545.109777 -545.843414 
L 543.659598 -620.746214 
L 542.209418 -622.368595 
L 540.759239 -577.237082 
L 539.30906 -592.751454 
L 537.85888 -576.90267 
L 536.408701 -523.449955 
L 534.958522 -503.487043 
L 533.508342 -488.876357 
L 532.058163 -480.591417 
L 530.607984 -476.971828 
L 529.157804 -475.746969 
L 527.707625 -475.383918 
L 526.257446 -475.137118 
L 524.807266 -474.616004 
L 523.357087 -473.550974 
L 521.906908 -471.928003 
L 520.456729 -470.183745 
L 519.006549 -472.885691 
L 517.55637 -468.017045 
L 516.106191 -466.552601 
L 514.656011 -463.297216 
L 513.205832 -463.064537 
L 511.755653 -454.011677 
L 510.305473 -450.938051 
L 508.855294 -446.84835 
L 507.405115 -443.766713 
L 505.954935 -447.281915 
L 504.504756 -444.593135 
L 503.054577 -445.041794 
L 501.604397 -446.217554 
L 500.154218 -447.217035 
L 498.704039 -443.092471 
L 497.253859 -450.918126 
L 495.80368 -440.677703 
L 494.353501 -444.93867 
L 492.903321 -438.930332 
L 491.453142 -438.009918 
L 490.002963 -440.412796 
L 488.552783 -444.323167 
L 487.102604 -451.975553 
L 485.652425 -454.502777 
L 484.202245 -459.258926 
L 482.752066 -467.141288 
L 481.301887 -461.03039 
L 479.851707 -458.044279 
L 478.401528 -452.672079 
L 476.951349 -451.343342 
L 475.501169 -449.542832 
L 474.05099 -453.06721 
L 472.600811 -457.925073 
L 471.150632 -461.201769 
L 469.700452 -466.770273 
L 468.250273 -475.496217 
L 466.800094 -472.363247 
L 465.349914 -473.690617 
L 463.899735 -474.554172 
L 462.449556 -475.045135 
L 460.999376 -475.26782 
L 459.549197 -475.345737 
L 458.099018 -475.366607 
L 456.648838 -475.370939 
L 455.198659 -475.371724 
L 453.74848 -475.371724 
L 452.2983 -475.371724 
L 450.848121 -475.371724 
L 449.397942 -475.371724 
L 447.947762 -475.371724 
L 446.497583 -475.371724 
L 445.047404 -475.371724 
L 443.597224 -475.371724 
L 442.147045 -475.371724 
L 440.696866 -475.371724 
L 439.246686 -475.371724 
L 437.796507 -475.371724 
L 436.346328 -475.371724 
L 434.896148 -475.371724 
L 433.445969 -475.371724 
L 431.99579 -475.371724 
L 430.54561 -475.371724 
L 429.095431 -475.371724 
L 427.645252 -475.371724 
L 426.195073 -475.371724 
L 424.744893 -475.371724 
L 423.294714 -475.371724 
L 421.844535 -475.371724 
L 420.394355 -475.371724 
L 418.944176 -475.371724 
L 417.493997 -475.371724 
L 416.043817 -475.371724 
L 414.593638 -475.371724 
L 413.143459 -475.371724 
L 411.693279 -475.371724 
L 410.2431 -475.371724 
L 408.792921 -475.371724 
L 407.342741 -475.371724 
L 405.892562 -475.371724 
z
" style="stroke: #ff7f0e; stroke-opacity: 0.2"/>
    </defs>
    <g clip-path="url(#p2ef7cfc01b)">
     <use xlink:href="#mcf17f12779" x="0" y="720" style="fill: #ff7f0e; fill-opacity: 0.2; stroke: #ff7f0e; stroke-opacity: 0.2"/>
    </g>
   </g>
   <g id="matplotlib.axis_3">
    <g id="xtick_7">
     <g id="line2d_13">
      <g>
       <use xlink:href="#mc488fccce8" x="405.863558" y="333.490909" style="stroke: #000000; stroke-width: 0.8"/>
      </g>
     </g>
     <g id="text_13">
      <!-- 0 -->
      <g transform="translate(402.682308 348.089347)scale(0.1 -0.1)">
       <use xlink:href="#DejaVuSans-30"/>
      </g>
     </g>
    </g>
    <g id="xtick_8">
     <g id="line2d_14">
      <g>
       <use xlink:href="#mc488fccce8" x="463.870731" y="333.490909" style="stroke: #000000; stroke-width: 0.8"/>
      </g>
     </g>
     <g id="text_14">
      <!-- 2000 -->
      <g transform="translate(451.145731 348.089347)scale(0.1 -0.1)">
       <use xlink:href="#DejaVuSans-32"/>
       <use xlink:href="#DejaVuSans-30" x="63.623047"/>
       <use xlink:href="#DejaVuSans-30" x="127.246094"/>
       <use xlink:href="#DejaVuSans-30" x="190.869141"/>
      </g>
     </g>
    </g>
    <g id="xtick_9">
     <g id="line2d_15">
      <g>
       <use xlink:href="#mc488fccce8" x="521.877904" y="333.490909" style="stroke: #000000; stroke-width: 0.8"/>
      </g>
     </g>
     <g id="text_15">
      <!-- 4000 -->
      <g transform="translate(509.152904 348.089347)scale(0.1 -0.1)">
       <use xlink:href="#DejaVuSans-34"/>
       <use xlink:href="#DejaVuSans-30" x="63.623047"/>
       <use xlink:href="#DejaVuSans-30" x="127.246094"/>
       <use xlink:href="#DejaVuSans-30" x="190.869141"/>
      </g>
     </g>
    </g>
    <g id="xtick_10">
     <g id="line2d_16">
      <g>
       <use xlink:href="#mc488fccce8" x="579.885077" y="333.490909" style="stroke: #000000; stroke-width: 0.8"/>
      </g>
     </g>
     <g id="text_16">
      <!-- 6000 -->
      <g transform="translate(567.160077 348.089347)scale(0.1 -0.1)">
       <use xlink:href="#DejaVuSans-36"/>
       <use xlink:href="#DejaVuSans-30" x="63.623047"/>
       <use xlink:href="#DejaVuSans-30" x="127.246094"/>
       <use xlink:href="#DejaVuSans-30" x="190.869141"/>
      </g>
     </g>
    </g>
    <g id="xtick_11">
     <g id="line2d_17">
      <g>
       <use xlink:href="#mc488fccce8" x="637.89225" y="333.490909" style="stroke: #000000; stroke-width: 0.8"/>
      </g>
     </g>
     <g id="text_17">
      <!-- 8000 -->
      <g transform="translate(625.16725 348.089347)scale(0.1 -0.1)">
       <use xlink:href="#DejaVuSans-38"/>
       <use xlink:href="#DejaVuSans-30" x="63.623047"/>
       <use xlink:href="#DejaVuSans-30" x="127.246094"/>
       <use xlink:href="#DejaVuSans-30" x="190.869141"/>
      </g>
     </g>
    </g>
   </g>
   <g id="matplotlib.axis_4">
    <g id="ytick_7">
     <g id="line2d_18">
      <g>
       <use xlink:href="#m054a0e592d" x="394.363636" y="295.465497" style="stroke: #000000; stroke-width: 0.8"/>
      </g>
     </g>
     <g id="text_18">
      <!-- −0.5 -->
      <g transform="translate(363.080824 299.264716)scale(0.1 -0.1)">
       <defs>
        <path id="DejaVuSans-2212" d="M 678 2272 
L 4684 2272 
L 4684 1741 
L 678 1741 
L 678 2272 
z
" transform="scale(0.015625)"/>
        <path id="DejaVuSans-35" d="M 691 4666 
L 3169 4666 
L 3169 4134 
L 1269 4134 
L 1269 2991 
Q 1406 3038 1543 3061 
Q 1681 3084 1819 3084 
Q 2600 3084 3056 2656 
Q 3513 2228 3513 1497 
Q 3513 744 3044 326 
Q 2575 -91 1722 -91 
Q 1428 -91 1123 -41 
Q 819 9 494 109 
L 494 744 
Q 775 591 1075 516 
Q 1375 441 1709 441 
Q 2250 441 2565 725 
Q 2881 1009 2881 1497 
Q 2881 1984 2565 2268 
Q 2250 2553 1709 2553 
Q 1456 2553 1204 2497 
Q 953 2441 691 2322 
L 691 4666 
z
" transform="scale(0.015625)"/>
       </defs>
       <use xlink:href="#DejaVuSans-2212"/>
       <use xlink:href="#DejaVuSans-30" x="83.789062"/>
       <use xlink:href="#DejaVuSans-2e" x="147.412109"/>
       <use xlink:href="#DejaVuSans-35" x="179.199219"/>
      </g>
     </g>
    </g>
    <g id="ytick_8">
     <g id="line2d_19">
      <g>
       <use xlink:href="#m054a0e592d" x="394.363636" y="244.628276" style="stroke: #000000; stroke-width: 0.8"/>
      </g>
     </g>
     <g id="text_19">
      <!-- 0.0 -->
      <g transform="translate(371.460511 248.427495)scale(0.1 -0.1)">
       <use xlink:href="#DejaVuSans-30"/>
       <use xlink:href="#DejaVuSans-2e" x="63.623047"/>
       <use xlink:href="#DejaVuSans-30" x="95.410156"/>
      </g>
     </g>
    </g>
    <g id="ytick_9">
     <g id="line2d_20">
      <g>
       <use xlink:href="#m054a0e592d" x="394.363636" y="193.791056" style="stroke: #000000; stroke-width: 0.8"/>
      </g>
     </g>
     <g id="text_20">
      <!-- 0.5 -->
      <g transform="translate(371.460511 197.590274)scale(0.1 -0.1)">
       <use xlink:href="#DejaVuSans-30"/>
       <use xlink:href="#DejaVuSans-2e" x="63.623047"/>
       <use xlink:href="#DejaVuSans-35" x="95.410156"/>
      </g>
     </g>
    </g>
    <g id="ytick_10">
     <g id="line2d_21">
      <g>
       <use xlink:href="#m054a0e592d" x="394.363636" y="142.953835" style="stroke: #000000; stroke-width: 0.8"/>
      </g>
     </g>
     <g id="text_21">
      <!-- 1.0 -->
      <g transform="translate(371.460511 146.753054)scale(0.1 -0.1)">
       <use xlink:href="#DejaVuSans-31"/>
       <use xlink:href="#DejaVuSans-2e" x="63.623047"/>
       <use xlink:href="#DejaVuSans-30" x="95.410156"/>
      </g>
     </g>
    </g>
    <g id="ytick_11">
     <g id="line2d_22">
      <g>
       <use xlink:href="#m054a0e592d" x="394.363636" y="92.116614" style="stroke: #000000; stroke-width: 0.8"/>
      </g>
     </g>
     <g id="text_22">
      <!-- 1.5 -->
      <g transform="translate(371.460511 95.915833)scale(0.1 -0.1)">
       <use xlink:href="#DejaVuSans-31"/>
       <use xlink:href="#DejaVuSans-2e" x="63.623047"/>
       <use xlink:href="#DejaVuSans-35" x="95.410156"/>
      </g>
     </g>
    </g>
   </g>
   <g id="line2d_23">
    <path d="M 405.892562 244.628276 
L 413.143459 244.606661 
L 414.593638 244.514054 
L 416.043817 244.165098 
L 417.493997 243.143597 
L 418.944176 240.837361 
L 420.394355 236.839449 
L 423.294714 226.695648 
L 424.744893 224.165039 
L 426.195073 225.182204 
L 429.095431 232.68917 
L 430.54561 233.254089 
L 431.99579 229.118651 
L 433.445969 221.950764 
L 434.896148 216.072309 
L 436.346328 215.375601 
L 437.796507 219.903956 
L 439.246686 225.836079 
L 440.696866 229.146244 
L 442.147045 228.851424 
L 443.597224 226.584192 
L 445.047404 224.023267 
L 446.497583 221.733019 
L 447.947762 220.066029 
L 449.397942 219.753756 
L 450.848121 221.141346 
L 453.74848 225.947422 
L 455.198659 227.653881 
L 458.099018 230.281813 
L 459.549197 232.06469 
L 460.999376 234.375337 
L 463.899735 239.988443 
L 465.349914 242.269463 
L 466.800094 243.669197 
L 468.250273 244.320623 
L 469.700452 244.55133 
L 474.05099 244.628276 
L 487.102604 244.520631 
L 488.552783 244.191284 
L 490.002963 243.225129 
L 491.453142 241.036404 
L 492.903321 237.221961 
L 495.80368 227.407484 
L 497.253859 224.893702 
L 498.704039 225.923504 
L 500.154218 230.079054 
L 501.604397 235.444835 
L 503.054577 239.977678 
L 504.504756 242.756606 
L 505.954935 244.033825 
L 507.405115 244.479998 
L 510.305473 244.637943 
L 511.755653 244.69963 
L 513.205832 244.913698 
L 514.656011 245.520924 
L 516.106191 246.83865 
L 517.55637 249.046674 
L 519.006549 252.023151 
L 520.456729 255.603277 
L 521.906908 259.955943 
L 524.807266 270.387277 
L 526.257446 273.442818 
L 527.707625 272.508959 
L 529.157804 267.510283 
L 532.058163 253.520399 
L 533.508342 248.733916 
L 534.958522 246.157869 
L 536.408701 245.084128 
L 537.85888 244.735856 
L 540.759239 244.630889 
L 548.010136 244.718583 
L 549.460315 245.009543 
L 550.910494 245.904428 
L 552.360674 248.04392 
L 553.810853 252.017891 
L 555.261032 257.756476 
L 556.711212 264.228212 
L 558.161391 270.009542 
L 559.61157 274.216268 
L 561.06175 276.730537 
L 562.511929 277.706751 
L 563.962108 277.365205 
L 565.412288 276.384137 
L 566.862467 275.992483 
L 568.312646 277.23035 
L 569.762826 280.156026 
L 571.213005 283.903073 
L 572.663184 287.217354 
L 574.113363 288.821204 
L 575.563543 287.865625 
L 577.013722 284.56607 
L 581.36426 271.150756 
L 582.814439 267.319377 
L 584.264619 265.172213 
L 585.714798 265.970776 
L 587.164977 269.660924 
L 588.615157 274.30418 
L 590.065336 276.954549 
L 591.515515 275.377855 
L 592.965695 269.48968 
L 594.415874 261.416243 
L 595.866053 253.977419 
L 597.316233 248.925819 
L 598.766412 246.447007 
L 600.216591 245.928326 
L 601.666771 246.807347 
L 603.11695 248.692612 
L 606.017309 253.379449 
L 607.467488 255.30004 
L 608.917667 256.712933 
L 610.367847 257.147788 
L 611.818026 255.944769 
L 613.268205 253.161536 
L 614.718385 249.846307 
L 616.168564 247.178456 
L 617.618743 245.623121 
L 619.068923 244.969072 
L 620.519102 244.865814 
L 621.969281 245.192835 
L 623.41946 246.102908 
L 624.86964 247.831226 
L 626.319819 250.433864 
L 627.769998 253.694776 
L 630.670357 260.492344 
L 632.120536 262.560514 
L 633.570716 262.619212 
L 636.471074 259.291106 
L 636.471074 259.291106 
" clip-path="url(#p2ef7cfc01b)" style="fill: none; stroke: #9467bd; stroke-width: 2; stroke-linecap: square"/>
   </g>
   <g id="line2d_24">
    <path d="M 405.892562 244.628276 
L 636.471074 244.628276 
L 636.471074 244.628276 
" clip-path="url(#p2ef7cfc01b)" style="fill: none; stroke: #1f77b4; stroke-width: 2; stroke-linecap: square"/>
   </g>
   <g id="line2d_25">
    <path d="M 405.892562 265.949684 
L 407.342741 263.964969 
L 408.792921 260.7679 
L 410.2431 258.432772 
L 411.693279 259.537788 
L 413.143459 265.075701 
L 414.593638 273.175224 
L 416.043817 279.979563 
L 417.493997 282.116797 
L 418.944176 279.201947 
L 420.394355 274.48804 
L 421.844535 272.689528 
L 423.294714 276.596056 
L 424.744893 285.625541 
L 426.195073 296.99148 
L 427.645252 307.230264 
L 429.095431 312.966459 
L 430.54561 312.015662 
L 431.99579 304.954056 
L 433.445969 295.564582 
L 434.896148 289.069174 
L 436.346328 288.791936 
L 437.796507 293.646742 
L 439.246686 299.080744 
L 440.696866 300.915813 
L 442.147045 298.264061 
L 443.597224 292.803555 
L 447.947762 273.326692 
L 449.397942 269.85538 
L 450.848121 269.65171 
L 452.2983 271.292776 
L 453.74848 272.019134 
L 455.198659 269.929571 
L 456.648838 265.850533 
L 458.099018 262.879117 
L 459.549197 263.344367 
L 460.999376 266.121131 
L 462.449556 267.651677 
L 463.899735 265.922174 
L 465.349914 262.708525 
L 466.800094 261.277442 
L 469.700452 263.706516 
L 471.150632 261.820423 
L 472.600811 255.583046 
L 474.05099 245.677263 
L 478.401528 208.664299 
L 479.851707 203.982933 
L 481.301887 207.710773 
L 482.752066 217.553275 
L 484.202245 228.626196 
L 485.652425 237.037638 
L 487.102604 241.75201 
L 488.552783 243.761702 
L 490.002963 244.421548 
L 491.453142 244.589921 
L 497.253859 244.628276 
L 505.954935 244.726152 
L 507.405115 245.015383 
L 508.855294 245.820648 
L 510.305473 247.488628 
L 513.205832 252.403519 
L 514.656011 253.438781 
L 516.106191 252.403519 
L 519.006549 247.492633 
L 520.456729 245.85268 
L 521.906908 245.192873 
L 523.357087 245.492541 
L 524.807266 247.284043 
L 526.257446 251.916727 
L 527.707625 260.960186 
L 529.157804 274.658617 
L 530.607984 290.50288 
L 532.058163 303.618926 
L 533.508342 309.187058 
L 534.958522 305.100319 
L 536.408701 293.12934 
L 537.85888 278.205531 
L 539.30906 266.312687 
L 540.759239 262.006431 
L 542.209418 266.692183 
L 543.659598 278.117384 
L 545.109777 291.367892 
L 546.559956 301.573399 
L 548.010136 306.686681 
L 549.460315 307.634189 
L 550.910494 305.866322 
L 552.360674 301.385139 
L 553.810853 293.319235 
L 555.261032 281.869139 
L 556.711212 269.191053 
L 558.161391 258.237629 
L 559.61157 250.838509 
L 561.06175 246.927688 
L 562.511929 245.31142 
L 563.962108 244.789493 
L 566.862467 244.630557 
L 569.762826 244.573011 
L 571.213005 244.409698 
L 572.663184 243.955009 
L 574.113363 243.010578 
L 577.013722 240.15148 
L 578.463901 239.311191 
L 581.36426 239.081822 
L 582.814439 238.288251 
L 584.264619 237.08026 
L 585.714798 236.622601 
L 587.164977 237.72236 
L 588.615157 240.024923 
L 591.515515 245.524679 
L 592.965695 249.63841 
L 594.415874 256.433611 
L 595.866053 266.247269 
L 597.316233 277.291356 
L 598.766412 286.118289 
L 600.216591 289.453789 
L 601.666771 286.018005 
L 603.11695 277.176917 
L 604.567129 266.202288 
L 606.017309 256.518309 
L 607.467488 250.014941 
L 608.917667 246.675795 
L 610.367847 245.528442 
L 611.818026 245.757771 
L 613.268205 247.041733 
L 616.168564 251.19264 
L 617.618743 252.284218 
L 619.068923 252.054704 
L 620.519102 251.339825 
L 621.969281 251.223811 
L 623.41946 251.747191 
L 624.86964 251.890727 
L 626.319819 250.833998 
L 629.220178 246.883658 
L 630.670357 245.567431 
L 632.120536 244.933175 
L 633.570716 244.705367 
L 636.471074 244.630604 
L 636.471074 244.630604 
" clip-path="url(#p2ef7cfc01b)" style="fill: none; stroke: #d62728; stroke-width: 2; stroke-linecap: square"/>
   </g>
   <g id="line2d_26">
    <path d="M 405.892562 244.628276 
L 460.999376 244.73218 
L 462.449556 244.954865 
L 463.899735 245.445828 
L 465.349914 246.309383 
L 466.800094 247.636753 
L 468.250273 249.718749 
L 469.700452 253.229727 
L 471.150632 258.798231 
L 472.600811 265.911653 
L 474.05099 272.300602 
L 475.501169 275.023107 
L 476.951349 272.797363 
L 479.851707 261.955721 
L 481.301887 258.96961 
L 482.752066 258.65946 
L 484.202245 260.741074 
L 485.652425 265.497223 
L 487.102604 272.839844 
L 488.552783 281.044681 
L 490.002963 287.329314 
L 491.453142 289.687142 
L 492.903321 287.991808 
L 495.80368 279.322297 
L 497.253859 276.727841 
L 498.704039 276.907529 
L 501.604397 281.354084 
L 503.054577 282.175483 
L 504.504756 281.677102 
L 507.405115 280.3565 
L 508.855294 278.732527 
L 510.305473 274.818712 
L 511.755653 268.753561 
L 513.205832 262.112217 
L 514.656011 256.702784 
L 516.106191 253.447399 
L 517.55637 251.982955 
L 519.006549 251.10275 
L 520.456729 249.816255 
L 523.357087 246.449026 
L 524.807266 245.383996 
L 526.257446 244.862882 
L 527.707625 244.616082 
L 529.157804 244.253031 
L 530.607984 243.028172 
L 532.058163 239.408583 
L 533.508342 231.123643 
L 534.958522 216.512957 
L 536.408701 196.550045 
L 537.85888 174.958529 
L 539.30906 155.879138 
L 540.759239 142.762918 
L 542.209418 139.798709 
L 543.659598 150.803339 
L 545.109777 174.156586 
L 546.559956 201.408999 
L 548.010136 223.354929 
L 549.460315 236.307931 
L 550.910494 242.05879 
L 552.360674 244.004154 
L 553.810853 244.508996 
L 556.711212 244.628276 
L 585.714798 244.589007 
L 587.164977 244.428853 
L 588.615157 243.83954 
L 590.065336 242.198799 
L 591.515515 238.800263 
L 594.415874 228.786094 
L 595.866053 226.676732 
L 597.316233 228.786094 
L 600.216591 238.800263 
L 601.666771 242.198799 
L 603.11695 243.83954 
L 604.567129 244.428853 
L 606.017309 244.589007 
L 611.818026 244.628276 
L 636.471074 244.628276 
L 636.471074 244.628276 
" clip-path="url(#p2ef7cfc01b)" style="fill: none; stroke: #ff7f0e; stroke-width: 2; stroke-linecap: square"/>
   </g>
   <g id="LineCollection_1">
    <path d="M 521.877904 302.825119 
L 521.877904 163.900258 
" clip-path="url(#p2ef7cfc01b)" style="fill: none; stroke-dasharray: 7.4,3.2; stroke-dashoffset: 0; stroke: #000000; stroke-width: 2"/>
    <path d="M 536.379697 302.825119 
L 536.379697 163.900258 
" clip-path="url(#p2ef7cfc01b)" style="fill: none; stroke-dasharray: 7.4,3.2; stroke-dashoffset: 0; stroke: #000000; stroke-width: 2"/>
    <path d="M 565.383284 302.825119 
L 565.383284 163.900258 
" clip-path="url(#p2ef7cfc01b)" style="fill: none; stroke-dasharray: 7.4,3.2; stroke-dashoffset: 0; stroke: #000000; stroke-width: 2"/>
    <path d="M 623.390457 302.825119 
L 623.390457 163.900258 
" clip-path="url(#p2ef7cfc01b)" style="fill: none; stroke-dasharray: 7.4,3.2; stroke-dashoffset: 0; stroke: #000000; stroke-width: 2"/>
   </g>
   <g id="patch_8">
    <path d="M 394.363636 333.490909 
L 394.363636 86.4 
" style="fill: none; stroke: #000000; stroke-width: 0.8; stroke-linejoin: miter; stroke-linecap: square"/>
   </g>
   <g id="patch_9">
    <path d="M 648 333.490909 
L 648 86.4 
" style="fill: none; stroke: #000000; stroke-width: 0.8; stroke-linejoin: miter; stroke-linecap: square"/>
   </g>
   <g id="patch_10">
    <path d="M 394.363636 333.490909 
L 648 333.490909 
" style="fill: none; stroke: #000000; stroke-width: 0.8; stroke-linejoin: miter; stroke-linecap: square"/>
   </g>
   <g id="patch_11">
    <path d="M 394.363636 86.4 
L 648 86.4 
" style="fill: none; stroke: #000000; stroke-width: 0.8; stroke-linejoin: miter; stroke-linecap: square"/>
   </g>
   <g id="text_23">
    <!-- unit_138 -->
    <g transform="translate(495.105256 80.4)scale(0.12 -0.12)">
     <defs>
      <path id="DejaVuSans-75" d="M 544 1381 
L 544 3500 
L 1119 3500 
L 1119 1403 
Q 1119 906 1312 657 
Q 1506 409 1894 409 
Q 2359 409 2629 706 
Q 2900 1003 2900 1516 
L 2900 3500 
L 3475 3500 
L 3475 0 
L 2900 0 
L 2900 538 
Q 2691 219 2414 64 
Q 2138 -91 1772 -91 
Q 1169 -91 856 284 
Q 544 659 544 1381 
z
M 1991 3584 
L 1991 3584 
z
" transform="scale(0.015625)"/>
      <path id="DejaVuSans-6e" d="M 3513 2113 
L 3513 0 
L 2938 0 
L 2938 2094 
Q 2938 2591 2744 2837 
Q 2550 3084 2163 3084 
Q 1697 3084 1428 2787 
Q 1159 2491 1159 1978 
L 1159 0 
L 581 0 
L 581 3500 
L 1159 3500 
L 1159 2956 
Q 1366 3272 1645 3428 
Q 1925 3584 2291 3584 
Q 2894 3584 3203 3211 
Q 3513 2838 3513 2113 
z
" transform="scale(0.015625)"/>
      <path id="DejaVuSans-69" d="M 603 3500 
L 1178 3500 
L 1178 0 
L 603 0 
L 603 3500 
z
M 603 4863 
L 1178 4863 
L 1178 4134 
L 603 4134 
L 603 4863 
z
" transform="scale(0.015625)"/>
      <path id="DejaVuSans-74" d="M 1172 4494 
L 1172 3500 
L 2356 3500 
L 2356 3053 
L 1172 3053 
L 1172 1153 
Q 1172 725 1289 603 
Q 1406 481 1766 481 
L 2356 481 
L 2356 0 
L 1766 0 
Q 1100 0 847 248 
Q 594 497 594 1153 
L 594 3053 
L 172 3053 
L 172 3500 
L 594 3500 
L 594 4494 
L 1172 4494 
z
" transform="scale(0.015625)"/>
      <path id="DejaVuSans-5f" d="M 3263 -1063 
L 3263 -1509 
L -63 -1509 
L -63 -1063 
L 3263 -1063 
z
" transform="scale(0.015625)"/>
      <path id="DejaVuSans-33" d="M 2597 2516 
Q 3050 2419 3304 2112 
Q 3559 1806 3559 1356 
Q 3559 666 3084 287 
Q 2609 -91 1734 -91 
Q 1441 -91 1130 -33 
Q 819 25 488 141 
L 488 750 
Q 750 597 1062 519 
Q 1375 441 1716 441 
Q 2309 441 2620 675 
Q 2931 909 2931 1356 
Q 2931 1769 2642 2001 
Q 2353 2234 1838 2234 
L 1294 2234 
L 1294 2753 
L 1863 2753 
Q 2328 2753 2575 2939 
Q 2822 3125 2822 3475 
Q 2822 3834 2567 4026 
Q 2313 4219 1838 4219 
Q 1578 4219 1281 4162 
Q 984 4106 628 3988 
L 628 4550 
Q 988 4650 1302 4700 
Q 1616 4750 1894 4750 
Q 2613 4750 3031 4423 
Q 3450 4097 3450 3541 
Q 3450 3153 3228 2886 
Q 3006 2619 2597 2516 
z
" transform="scale(0.015625)"/>
     </defs>
     <use xlink:href="#DejaVuSans-75"/>
     <use xlink:href="#DejaVuSans-6e" x="63.378906"/>
     <use xlink:href="#DejaVuSans-69" x="126.757812"/>
     <use xlink:href="#DejaVuSans-74" x="154.541016"/>
     <use xlink:href="#DejaVuSans-5f" x="193.75"/>
     <use xlink:href="#DejaVuSans-31" x="243.75"/>
     <use xlink:href="#DejaVuSans-33" x="307.373047"/>
     <use xlink:href="#DejaVuSans-38" x="370.996094"/>
    </g>
   </g>
  </g>
  <g id="axes_3">
   <g id="patch_12">
    <path d="M 90 630 
L 343.636364 630 
L 343.636364 382.909091 
L 90 382.909091 
z
" style="fill: #ffffff"/>
   </g>
   <g id="matplotlib.axis_5">
    <g id="xtick_12">
     <g id="line2d_27">
      <g>
       <use xlink:href="#mc488fccce8" x="90" y="630" style="stroke: #000000; stroke-width: 0.8"/>
      </g>
     </g>
     <g id="text_24">
      <!-- 0.0 -->
      <g transform="translate(82.048438 644.598437)scale(0.1 -0.1)">
       <use xlink:href="#DejaVuSans-30"/>
       <use xlink:href="#DejaVuSans-2e" x="63.623047"/>
       <use xlink:href="#DejaVuSans-30" x="95.410156"/>
      </g>
     </g>
    </g>
    <g id="xtick_13">
     <g id="line2d_28">
      <g>
       <use xlink:href="#mc488fccce8" x="140.727273" y="630" style="stroke: #000000; stroke-width: 0.8"/>
      </g>
     </g>
     <g id="text_25">
      <!-- 0.2 -->
      <g transform="translate(132.77571 644.598437)scale(0.1 -0.1)">
       <use xlink:href="#DejaVuSans-30"/>
       <use xlink:href="#DejaVuSans-2e" x="63.623047"/>
       <use xlink:href="#DejaVuSans-32" x="95.410156"/>
      </g>
     </g>
    </g>
    <g id="xtick_14">
     <g id="line2d_29">
      <g>
       <use xlink:href="#mc488fccce8" x="191.454545" y="630" style="stroke: #000000; stroke-width: 0.8"/>
      </g>
     </g>
     <g id="text_26">
      <!-- 0.4 -->
      <g transform="translate(183.502983 644.598437)scale(0.1 -0.1)">
       <use xlink:href="#DejaVuSans-30"/>
       <use xlink:href="#DejaVuSans-2e" x="63.623047"/>
       <use xlink:href="#DejaVuSans-34" x="95.410156"/>
      </g>
     </g>
    </g>
    <g id="xtick_15">
     <g id="line2d_30">
      <g>
       <use xlink:href="#mc488fccce8" x="242.181818" y="630" style="stroke: #000000; stroke-width: 0.8"/>
      </g>
     </g>
     <g id="text_27">
      <!-- 0.6 -->
      <g transform="translate(234.230256 644.598437)scale(0.1 -0.1)">
       <use xlink:href="#DejaVuSans-30"/>
       <use xlink:href="#DejaVuSans-2e" x="63.623047"/>
       <use xlink:href="#DejaVuSans-36" x="95.410156"/>
      </g>
     </g>
    </g>
    <g id="xtick_16">
     <g id="line2d_31">
      <g>
       <use xlink:href="#mc488fccce8" x="292.909091" y="630" style="stroke: #000000; stroke-width: 0.8"/>
      </g>
     </g>
     <g id="text_28">
      <!-- 0.8 -->
      <g transform="translate(284.957528 644.598437)scale(0.1 -0.1)">
       <use xlink:href="#DejaVuSans-30"/>
       <use xlink:href="#DejaVuSans-2e" x="63.623047"/>
       <use xlink:href="#DejaVuSans-38" x="95.410156"/>
      </g>
     </g>
    </g>
    <g id="xtick_17">
     <g id="line2d_32">
      <g>
       <use xlink:href="#mc488fccce8" x="343.636364" y="630" style="stroke: #000000; stroke-width: 0.8"/>
      </g>
     </g>
     <g id="text_29">
      <!-- 1.0 -->
      <g transform="translate(335.684801 644.598437)scale(0.1 -0.1)">
       <use xlink:href="#DejaVuSans-31"/>
       <use xlink:href="#DejaVuSans-2e" x="63.623047"/>
       <use xlink:href="#DejaVuSans-30" x="95.410156"/>
      </g>
     </g>
    </g>
   </g>
   <g id="matplotlib.axis_6">
    <g id="ytick_12">
     <g id="line2d_33">
      <g>
       <use xlink:href="#m054a0e592d" x="90" y="630" style="stroke: #000000; stroke-width: 0.8"/>
      </g>
     </g>
     <g id="text_30">
      <!-- 0.0 -->
      <g transform="translate(67.096875 633.799219)scale(0.1 -0.1)">
       <use xlink:href="#DejaVuSans-30"/>
       <use xlink:href="#DejaVuSans-2e" x="63.623047"/>
       <use xlink:href="#DejaVuSans-30" x="95.410156"/>
      </g>
     </g>
    </g>
    <g id="ytick_13">
     <g id="line2d_34">
      <g>
       <use xlink:href="#m054a0e592d" x="90" y="580.581818" style="stroke: #000000; stroke-width: 0.8"/>
      </g>
     </g>
     <g id="text_31">
      <!-- 0.2 -->
      <g transform="translate(67.096875 584.381037)scale(0.1 -0.1)">
       <use xlink:href="#DejaVuSans-30"/>
       <use xlink:href="#DejaVuSans-2e" x="63.623047"/>
       <use xlink:href="#DejaVuSans-32" x="95.410156"/>
      </g>
     </g>
    </g>
    <g id="ytick_14">
     <g id="line2d_35">
      <g>
       <use xlink:href="#m054a0e592d" x="90" y="531.163636" style="stroke: #000000; stroke-width: 0.8"/>
      </g>
     </g>
     <g id="text_32">
      <!-- 0.4 -->
      <g transform="translate(67.096875 534.962855)scale(0.1 -0.1)">
       <use xlink:href="#DejaVuSans-30"/>
       <use xlink:href="#DejaVuSans-2e" x="63.623047"/>
       <use xlink:href="#DejaVuSans-34" x="95.410156"/>
      </g>
     </g>
    </g>
    <g id="ytick_15">
     <g id="line2d_36">
      <g>
       <use xlink:href="#m054a0e592d" x="90" y="481.745455" style="stroke: #000000; stroke-width: 0.8"/>
      </g>
     </g>
     <g id="text_33">
      <!-- 0.6 -->
      <g transform="translate(67.096875 485.544673)scale(0.1 -0.1)">
       <use xlink:href="#DejaVuSans-30"/>
       <use xlink:href="#DejaVuSans-2e" x="63.623047"/>
       <use xlink:href="#DejaVuSans-36" x="95.410156"/>
      </g>
     </g>
    </g>
    <g id="ytick_16">
     <g id="line2d_37">
      <g>
       <use xlink:href="#m054a0e592d" x="90" y="432.327273" style="stroke: #000000; stroke-width: 0.8"/>
      </g>
     </g>
     <g id="text_34">
      <!-- 0.8 -->
      <g transform="translate(67.096875 436.126491)scale(0.1 -0.1)">
       <use xlink:href="#DejaVuSans-30"/>
       <use xlink:href="#DejaVuSans-2e" x="63.623047"/>
       <use xlink:href="#DejaVuSans-38" x="95.410156"/>
      </g>
     </g>
    </g>
    <g id="ytick_17">
     <g id="line2d_38">
      <g>
       <use xlink:href="#m054a0e592d" x="90" y="382.909091" style="stroke: #000000; stroke-width: 0.8"/>
      </g>
     </g>
     <g id="text_35">
      <!-- 1.0 -->
      <g transform="translate(67.096875 386.70831)scale(0.1 -0.1)">
       <use xlink:href="#DejaVuSans-31"/>
       <use xlink:href="#DejaVuSans-2e" x="63.623047"/>
       <use xlink:href="#DejaVuSans-30" x="95.410156"/>
      </g>
     </g>
    </g>
   </g>
   <g id="patch_13">
    <path d="M 90 630 
L 90 382.909091 
" style="fill: none; stroke: #000000; stroke-width: 0.8; stroke-linejoin: miter; stroke-linecap: square"/>
   </g>
   <g id="patch_14">
    <path d="M 343.636364 630 
L 343.636364 382.909091 
" style="fill: none; stroke: #000000; stroke-width: 0.8; stroke-linejoin: miter; stroke-linecap: square"/>
   </g>
   <g id="patch_15">
    <path d="M 90 630 
L 343.636364 630 
" style="fill: none; stroke: #000000; stroke-width: 0.8; stroke-linejoin: miter; stroke-linecap: square"/>
   </g>
   <g id="patch_16">
    <path d="M 90 382.909091 
L 343.636364 382.909091 
" style="fill: none; stroke: #000000; stroke-width: 0.8; stroke-linejoin: miter; stroke-linecap: square"/>
   </g>
  </g>
  <g id="axes_4">
   <g id="patch_17">
    <path d="M 394.363636 630 
L 648 630 
L 648 382.909091 
L 394.363636 382.909091 
z
" style="fill: #ffffff"/>
   </g>
   <g id="matplotlib.axis_7">
    <g id="xtick_18">
     <g id="line2d_39">
      <g>
       <use xlink:href="#mc488fccce8" x="405.863558" y="630" style="stroke: #000000; stroke-width: 0.8"/>
      </g>
     </g>
     <g id="text_36">
      <!-- 0 -->
      <g transform="translate(402.682308 644.598437)scale(0.1 -0.1)">
       <use xlink:href="#DejaVuSans-30"/>
      </g>
     </g>
    </g>
    <g id="xtick_19">
     <g id="line2d_40">
      <g>
       <use xlink:href="#mc488fccce8" x="463.870731" y="630" style="stroke: #000000; stroke-width: 0.8"/>
      </g>
     </g>
     <g id="text_37">
      <!-- 2000 -->
      <g transform="translate(451.145731 644.598437)scale(0.1 -0.1)">
       <use xlink:href="#DejaVuSans-32"/>
       <use xlink:href="#DejaVuSans-30" x="63.623047"/>
       <use xlink:href="#DejaVuSans-30" x="127.246094"/>
       <use xlink:href="#DejaVuSans-30" x="190.869141"/>
      </g>
     </g>
    </g>
    <g id="xtick_20">
     <g id="line2d_41">
      <g>
       <use xlink:href="#mc488fccce8" x="521.877904" y="630" style="stroke: #000000; stroke-width: 0.8"/>
      </g>
     </g>
     <g id="text_38">
      <!-- 4000 -->
      <g transform="translate(509.152904 644.598437)scale(0.1 -0.1)">
       <use xlink:href="#DejaVuSans-34"/>
       <use xlink:href="#DejaVuSans-30" x="63.623047"/>
       <use xlink:href="#DejaVuSans-30" x="127.246094"/>
       <use xlink:href="#DejaVuSans-30" x="190.869141"/>
      </g>
     </g>
    </g>
    <g id="xtick_21">
     <g id="line2d_42">
      <g>
       <use xlink:href="#mc488fccce8" x="579.885077" y="630" style="stroke: #000000; stroke-width: 0.8"/>
      </g>
     </g>
     <g id="text_39">
      <!-- 6000 -->
      <g transform="translate(567.160077 644.598437)scale(0.1 -0.1)">
       <use xlink:href="#DejaVuSans-36"/>
       <use xlink:href="#DejaVuSans-30" x="63.623047"/>
       <use xlink:href="#DejaVuSans-30" x="127.246094"/>
       <use xlink:href="#DejaVuSans-30" x="190.869141"/>
      </g>
     </g>
    </g>
    <g id="xtick_22">
     <g id="line2d_43">
      <g>
       <use xlink:href="#mc488fccce8" x="637.89225" y="630" style="stroke: #000000; stroke-width: 0.8"/>
      </g>
     </g>
     <g id="text_40">
      <!-- 8000 -->
      <g transform="translate(625.16725 644.598437)scale(0.1 -0.1)">
       <use xlink:href="#DejaVuSans-38"/>
       <use xlink:href="#DejaVuSans-30" x="63.623047"/>
       <use xlink:href="#DejaVuSans-30" x="127.246094"/>
       <use xlink:href="#DejaVuSans-30" x="190.869141"/>
      </g>
     </g>
    </g>
   </g>
   <g id="matplotlib.axis_8">
    <g id="ytick_18">
     <g id="line2d_44">
      <g>
       <use xlink:href="#m054a0e592d" x="394.363636" y="630" style="stroke: #000000; stroke-width: 0.8"/>
      </g>
     </g>
     <g id="text_41">
      <!-- −2 -->
      <g transform="translate(372.621449 633.799219)scale(0.1 -0.1)">
       <use xlink:href="#DejaVuSans-2212"/>
       <use xlink:href="#DejaVuSans-32" x="83.789062"/>
      </g>
     </g>
    </g>
    <g id="ytick_19">
     <g id="line2d_45">
      <g>
       <use xlink:href="#m054a0e592d" x="394.363636" y="575.372489" style="stroke: #000000; stroke-width: 0.8"/>
      </g>
     </g>
     <g id="text_42">
      <!-- −1 -->
      <g transform="translate(372.621449 579.171708)scale(0.1 -0.1)">
       <use xlink:href="#DejaVuSans-2212"/>
       <use xlink:href="#DejaVuSans-31" x="83.789062"/>
      </g>
     </g>
    </g>
    <g id="ytick_20">
     <g id="line2d_46">
      <g>
       <use xlink:href="#m054a0e592d" x="394.363636" y="520.744978" style="stroke: #000000; stroke-width: 0.8"/>
      </g>
     </g>
     <g id="text_43">
      <!-- 0 -->
      <g transform="translate(381.001136 524.544196)scale(0.1 -0.1)">
       <use xlink:href="#DejaVuSans-30"/>
      </g>
     </g>
    </g>
    <g id="ytick_21">
     <g id="line2d_47">
      <g>
       <use xlink:href="#m054a0e592d" x="394.363636" y="466.117466" style="stroke: #000000; stroke-width: 0.8"/>
      </g>
     </g>
     <g id="text_44">
      <!-- 1 -->
      <g transform="translate(381.001136 469.916685)scale(0.1 -0.1)">
       <use xlink:href="#DejaVuSans-31"/>
      </g>
     </g>
    </g>
    <g id="ytick_22">
     <g id="line2d_48">
      <g>
       <use xlink:href="#m054a0e592d" x="394.363636" y="411.489955" style="stroke: #000000; stroke-width: 0.8"/>
      </g>
     </g>
     <g id="text_45">
      <!-- 2 -->
      <g transform="translate(381.001136 415.289174)scale(0.1 -0.1)">
       <use xlink:href="#DejaVuSans-32"/>
      </g>
     </g>
    </g>
   </g>
   <g id="line2d_49">
    <path d="M 405.892562 550.820547 
L 407.342741 561.735779 
L 408.792921 545.370083 
L 410.2431 527.000969 
L 411.693279 531.111963 
L 413.143459 572.270159 
L 414.593638 644.090341 
L 416.043817 699.184949 
L 416.931175 721 
M 418.788236 721 
L 418.944176 719.332867 
L 420.394355 623.955741 
L 421.844535 581.624807 
L 423.294714 668.140711 
L 423.827204 721 
M 465.825283 721 
L 466.800094 626.325276 
L 467.441879 721 
M 472.262495 721 
L 472.600811 655.351396 
L 474.05099 499.821187 
L 475.501169 469.716149 
L 476.951349 568.407739 
L 477.849462 721 
M 482.469398 721 
L 482.752066 673.252563 
L 484.202245 538.819902 
L 485.652425 512.072413 
L 487.102604 491.74614 
L 488.552783 464.541814 
L 490.002963 453.549423 
L 491.453142 464.547949 
L 492.903321 494.052879 
L 494.353501 600.681603 
L 495.411007 721 
M 500.180758 721 
L 501.604397 508.877673 
L 503.054577 490.025411 
L 504.504756 535.317509 
L 505.954935 526.802849 
L 507.405115 471.494747 
L 508.855294 421.081692 
L 510.305473 431.457334 
L 511.755653 497.761451 
L 513.205832 625.886783 
L 514.482722 721 
M 514.89076 721 
L 516.106191 654.167778 
L 517.55637 551.500425 
L 519.006549 579.188168 
L 520.456729 653.375927 
L 521.906908 685.871722 
L 522.112879 721 
M 533.064383 721 
L 533.508342 689.731102 
L 534.958522 644.29595 
L 536.408701 618.555159 
L 537.85888 613.881117 
L 539.30906 639.188481 
L 540.337648 721 
M 557.46438 721 
L 558.161391 687.876812 
L 558.988219 721 
M 566.941874 721 
L 569.762826 382.909091 
L 571.213005 426.158966 
L 572.311035 721 
M 585.29622 721 
L 585.714798 676.838328 
L 587.164977 716.128385 
L 587.194692 721 
M 593.66486 721 
L 594.415874 648.289343 
L 595.2223 721 
M 604.98773 721 
L 606.017309 575.804441 
L 607.467488 529.39036 
L 608.917667 524.202701 
L 610.367847 544.167705 
L 611.818026 567.819012 
L 613.268205 555.650807 
L 614.718385 583.043779 
L 615.791554 721 
M 619.443219 721 
L 620.519102 582.764045 
L 621.969281 606.337409 
L 622.565973 721 
M 627.523459 721 
L 627.769998 676.803884 
L 629.220178 556.272655 
L 630.670357 535.894039 
L 632.120536 567.290864 
L 633.570716 575.521526 
L 635.020895 552.020358 
L 636.471074 531.187904 
L 636.471074 531.187904 
" clip-path="url(#p5af045849c)" style="fill: none; stroke: #1f77b4; stroke-width: 1.5; stroke-linecap: square"/>
   </g>
   <g id="patch_18">
    <path d="M 394.363636 630 
L 394.363636 382.909091 
" style="fill: none; stroke: #000000; stroke-width: 0.8; stroke-linejoin: miter; stroke-linecap: square"/>
   </g>
   <g id="patch_19">
    <path d="M 648 630 
L 648 382.909091 
" style="fill: none; stroke: #000000; stroke-width: 0.8; stroke-linejoin: miter; stroke-linecap: square"/>
   </g>
   <g id="patch_20">
    <path d="M 394.363636 630 
L 648 630 
" style="fill: none; stroke: #000000; stroke-width: 0.8; stroke-linejoin: miter; stroke-linecap: square"/>
   </g>
   <g id="patch_21">
    <path d="M 394.363636 382.909091 
L 648 382.909091 
" style="fill: none; stroke: #000000; stroke-width: 0.8; stroke-linejoin: miter; stroke-linecap: square"/>
   </g>
   <g id="text_46">
    <!-- explained variance -->
    <g transform="translate(464.181818 376.909091)scale(0.12 -0.12)">
     <defs>
      <path id="DejaVuSans-65" d="M 3597 1894 
L 3597 1613 
L 953 1613 
Q 991 1019 1311 708 
Q 1631 397 2203 397 
Q 2534 397 2845 478 
Q 3156 559 3463 722 
L 3463 178 
Q 3153 47 2828 -22 
Q 2503 -91 2169 -91 
Q 1331 -91 842 396 
Q 353 884 353 1716 
Q 353 2575 817 3079 
Q 1281 3584 2069 3584 
Q 2775 3584 3186 3129 
Q 3597 2675 3597 1894 
z
M 3022 2063 
Q 3016 2534 2758 2815 
Q 2500 3097 2075 3097 
Q 1594 3097 1305 2825 
Q 1016 2553 972 2059 
L 3022 2063 
z
" transform="scale(0.015625)"/>
      <path id="DejaVuSans-78" d="M 3513 3500 
L 2247 1797 
L 3578 0 
L 2900 0 
L 1881 1375 
L 863 0 
L 184 0 
L 1544 1831 
L 300 3500 
L 978 3500 
L 1906 2253 
L 2834 3500 
L 3513 3500 
z
" transform="scale(0.015625)"/>
      <path id="DejaVuSans-70" d="M 1159 525 
L 1159 -1331 
L 581 -1331 
L 581 3500 
L 1159 3500 
L 1159 2969 
Q 1341 3281 1617 3432 
Q 1894 3584 2278 3584 
Q 2916 3584 3314 3078 
Q 3713 2572 3713 1747 
Q 3713 922 3314 415 
Q 2916 -91 2278 -91 
Q 1894 -91 1617 61 
Q 1341 213 1159 525 
z
M 3116 1747 
Q 3116 2381 2855 2742 
Q 2594 3103 2138 3103 
Q 1681 3103 1420 2742 
Q 1159 2381 1159 1747 
Q 1159 1113 1420 752 
Q 1681 391 2138 391 
Q 2594 391 2855 752 
Q 3116 1113 3116 1747 
z
" transform="scale(0.015625)"/>
      <path id="DejaVuSans-6c" d="M 603 4863 
L 1178 4863 
L 1178 0 
L 603 0 
L 603 4863 
z
" transform="scale(0.015625)"/>
      <path id="DejaVuSans-61" d="M 2194 1759 
Q 1497 1759 1228 1600 
Q 959 1441 959 1056 
Q 959 750 1161 570 
Q 1363 391 1709 391 
Q 2188 391 2477 730 
Q 2766 1069 2766 1631 
L 2766 1759 
L 2194 1759 
z
M 3341 1997 
L 3341 0 
L 2766 0 
L 2766 531 
Q 2569 213 2275 61 
Q 1981 -91 1556 -91 
Q 1019 -91 701 211 
Q 384 513 384 1019 
Q 384 1609 779 1909 
Q 1175 2209 1959 2209 
L 2766 2209 
L 2766 2266 
Q 2766 2663 2505 2880 
Q 2244 3097 1772 3097 
Q 1472 3097 1187 3025 
Q 903 2953 641 2809 
L 641 3341 
Q 956 3463 1253 3523 
Q 1550 3584 1831 3584 
Q 2591 3584 2966 3190 
Q 3341 2797 3341 1997 
z
" transform="scale(0.015625)"/>
      <path id="DejaVuSans-64" d="M 2906 2969 
L 2906 4863 
L 3481 4863 
L 3481 0 
L 2906 0 
L 2906 525 
Q 2725 213 2448 61 
Q 2172 -91 1784 -91 
Q 1150 -91 751 415 
Q 353 922 353 1747 
Q 353 2572 751 3078 
Q 1150 3584 1784 3584 
Q 2172 3584 2448 3432 
Q 2725 3281 2906 2969 
z
M 947 1747 
Q 947 1113 1208 752 
Q 1469 391 1925 391 
Q 2381 391 2643 752 
Q 2906 1113 2906 1747 
Q 2906 2381 2643 2742 
Q 2381 3103 1925 3103 
Q 1469 3103 1208 2742 
Q 947 2381 947 1747 
z
" transform="scale(0.015625)"/>
      <path id="DejaVuSans-20" transform="scale(0.015625)"/>
      <path id="DejaVuSans-76" d="M 191 3500 
L 800 3500 
L 1894 563 
L 2988 3500 
L 3597 3500 
L 2284 0 
L 1503 0 
L 191 3500 
z
" transform="scale(0.015625)"/>
      <path id="DejaVuSans-72" d="M 2631 2963 
Q 2534 3019 2420 3045 
Q 2306 3072 2169 3072 
Q 1681 3072 1420 2755 
Q 1159 2438 1159 1844 
L 1159 0 
L 581 0 
L 581 3500 
L 1159 3500 
L 1159 2956 
Q 1341 3275 1631 3429 
Q 1922 3584 2338 3584 
Q 2397 3584 2469 3576 
Q 2541 3569 2628 3553 
L 2631 2963 
z
" transform="scale(0.015625)"/>
      <path id="DejaVuSans-63" d="M 3122 3366 
L 3122 2828 
Q 2878 2963 2633 3030 
Q 2388 3097 2138 3097 
Q 1578 3097 1268 2742 
Q 959 2388 959 1747 
Q 959 1106 1268 751 
Q 1578 397 2138 397 
Q 2388 397 2633 464 
Q 2878 531 3122 666 
L 3122 134 
Q 2881 22 2623 -34 
Q 2366 -91 2075 -91 
Q 1284 -91 818 406 
Q 353 903 353 1747 
Q 353 2603 823 3093 
Q 1294 3584 2113 3584 
Q 2378 3584 2631 3529 
Q 2884 3475 3122 3366 
z
" transform="scale(0.015625)"/>
     </defs>
     <use xlink:href="#DejaVuSans-65"/>
     <use xlink:href="#DejaVuSans-78" x="59.773438"/>
     <use xlink:href="#DejaVuSans-70" x="118.953125"/>
     <use xlink:href="#DejaVuSans-6c" x="182.429688"/>
     <use xlink:href="#DejaVuSans-61" x="210.212891"/>
     <use xlink:href="#DejaVuSans-69" x="271.492188"/>
     <use xlink:href="#DejaVuSans-6e" x="299.275391"/>
     <use xlink:href="#DejaVuSans-65" x="362.654297"/>
     <use xlink:href="#DejaVuSans-64" x="424.177734"/>
     <use xlink:href="#DejaVuSans-20" x="487.654297"/>
     <use xlink:href="#DejaVuSans-76" x="519.441406"/>
     <use xlink:href="#DejaVuSans-61" x="578.621094"/>
     <use xlink:href="#DejaVuSans-72" x="639.900391"/>
     <use xlink:href="#DejaVuSans-69" x="681.013672"/>
     <use xlink:href="#DejaVuSans-61" x="708.796875"/>
     <use xlink:href="#DejaVuSans-6e" x="770.076172"/>
     <use xlink:href="#DejaVuSans-63" x="833.455078"/>
     <use xlink:href="#DejaVuSans-65" x="888.435547"/>
    </g>
   </g>
  </g>
 </g>
 <defs>
  <clipPath id="p2ef7cfc01b">
   <rect x="394.363636" y="86.4" width="253.636364" height="247.090909"/>
  </clipPath>
  <clipPath id="p5af045849c">
   <rect x="394.363636" y="382.909091" width="253.636364" height="247.090909"/>
  </clipPath>
 </defs>
</svg>
