<?xml version="1.0" encoding="utf-8" standalone="no"?>
<!DOCTYPE svg PUBLIC "-//W3C//DTD SVG 1.1//EN"
  "http://www.w3.org/Graphics/SVG/1.1/DTD/svg11.dtd">
<svg xmlns:xlink="http://www.w3.org/1999/xlink" width="720pt" height="720pt" viewBox="0 0 720 720" xmlns="http://www.w3.org/2000/svg" version="1.1">
 <metadata>
  <rdf:RDF xmlns:dc="http://purl.org/dc/elements/1.1/" xmlns:cc="http://creativecommons.org/ns#" xmlns:rdf="http://www.w3.org/1999/02/22-rdf-syntax-ns#">
   <cc:Work>
    <dc:type rdf:resource="http://purl.org/dc/dcmitype/StillImage"/>
    <dc:date>2023-12-19T18:14:07.906013</dc:date>
    <dc:format>image/svg+xml</dc:format>
    <dc:creator>
     <cc:Agent>
      <dc:title>Matplotlib v3.5.2, https://matplotlib.org/</dc:title>
     </cc:Agent>
    </dc:creator>
   </cc:Work>
  </rdf:RDF>
 </metadata>
 <defs>
  <style type="text/css">*{stroke-linejoin: round; stroke-linecap: butt}</style>
 </defs>
 <g id="figure_1">
  <g id="patch_1">
   <path d="M 0 720 
L 720 720 
L 720 0 
L 0 0 
z
" style="fill: #ffffff"/>
  </g>
  <g id="axes_1">
   <g id="patch_2">
    <path d="M 90 333.490909 
L 343.636364 333.490909 
L 343.636364 86.4 
L 90 86.4 
z
" style="fill: #ffffff"/>
   </g>
   <g id="matplotlib.axis_1">
    <g id="xtick_1">
     <g id="line2d_1">
      <defs>
       <path id="m4343b8446d" d="M 0 0 
L 0 3.5 
" style="stroke: #000000; stroke-width: 0.8"/>
      </defs>
      <g>
       <use xlink:href="#m4343b8446d" x="90" y="333.490909" style="stroke: #000000; stroke-width: 0.8"/>
      </g>
     </g>
     <g id="text_1">
      <!-- 0.0 -->
      <g transform="translate(82.048438 348.089347)scale(0.1 -0.1)">
       <defs>
        <path id="DejaVuSans-30" d="M 2034 4250 
Q 1547 4250 1301 3770 
Q 1056 3291 1056 2328 
Q 1056 1369 1301 889 
Q 1547 409 2034 409 
Q 2525 409 2770 889 
Q 3016 1369 3016 2328 
Q 3016 3291 2770 3770 
Q 2525 4250 2034 4250 
z
M 2034 4750 
Q 2819 4750 3233 4129 
Q 3647 3509 3647 2328 
Q 3647 1150 3233 529 
Q 2819 -91 2034 -91 
Q 1250 -91 836 529 
Q 422 1150 422 2328 
Q 422 3509 836 4129 
Q 1250 4750 2034 4750 
z
" transform="scale(0.015625)"/>
        <path id="DejaVuSans-2e" d="M 684 794 
L 1344 794 
L 1344 0 
L 684 0 
L 684 794 
z
" transform="scale(0.015625)"/>
       </defs>
       <use xlink:href="#DejaVuSans-30"/>
       <use xlink:href="#DejaVuSans-2e" x="63.623047"/>
       <use xlink:href="#DejaVuSans-30" x="95.410156"/>
      </g>
     </g>
    </g>
    <g id="xtick_2">
     <g id="line2d_2">
      <g>
       <use xlink:href="#m4343b8446d" x="140.727273" y="333.490909" style="stroke: #000000; stroke-width: 0.8"/>
      </g>
     </g>
     <g id="text_2">
      <!-- 0.2 -->
      <g transform="translate(132.77571 348.089347)scale(0.1 -0.1)">
       <defs>
        <path id="DejaVuSans-32" d="M 1228 531 
L 3431 531 
L 3431 0 
L 469 0 
L 469 531 
Q 828 903 1448 1529 
Q 2069 2156 2228 2338 
Q 2531 2678 2651 2914 
Q 2772 3150 2772 3378 
Q 2772 3750 2511 3984 
Q 2250 4219 1831 4219 
Q 1534 4219 1204 4116 
Q 875 4013 500 3803 
L 500 4441 
Q 881 4594 1212 4672 
Q 1544 4750 1819 4750 
Q 2544 4750 2975 4387 
Q 3406 4025 3406 3419 
Q 3406 3131 3298 2873 
Q 3191 2616 2906 2266 
Q 2828 2175 2409 1742 
Q 1991 1309 1228 531 
z
" transform="scale(0.015625)"/>
       </defs>
       <use xlink:href="#DejaVuSans-30"/>
       <use xlink:href="#DejaVuSans-2e" x="63.623047"/>
       <use xlink:href="#DejaVuSans-32" x="95.410156"/>
      </g>
     </g>
    </g>
    <g id="xtick_3">
     <g id="line2d_3">
      <g>
       <use xlink:href="#m4343b8446d" x="191.454545" y="333.490909" style="stroke: #000000; stroke-width: 0.8"/>
      </g>
     </g>
     <g id="text_3">
      <!-- 0.4 -->
      <g transform="translate(183.502983 348.089347)scale(0.1 -0.1)">
       <defs>
        <path id="DejaVuSans-34" d="M 2419 4116 
L 825 1625 
L 2419 1625 
L 2419 4116 
z
M 2253 4666 
L 3047 4666 
L 3047 1625 
L 3713 1625 
L 3713 1100 
L 3047 1100 
L 3047 0 
L 2419 0 
L 2419 1100 
L 313 1100 
L 313 1709 
L 2253 4666 
z
" transform="scale(0.015625)"/>
       </defs>
       <use xlink:href="#DejaVuSans-30"/>
       <use xlink:href="#DejaVuSans-2e" x="63.623047"/>
       <use xlink:href="#DejaVuSans-34" x="95.410156"/>
      </g>
     </g>
    </g>
    <g id="xtick_4">
     <g id="line2d_4">
      <g>
       <use xlink:href="#m4343b8446d" x="242.181818" y="333.490909" style="stroke: #000000; stroke-width: 0.8"/>
      </g>
     </g>
     <g id="text_4">
      <!-- 0.6 -->
      <g transform="translate(234.230256 348.089347)scale(0.1 -0.1)">
       <defs>
        <path id="DejaVuSans-36" d="M 2113 2584 
Q 1688 2584 1439 2293 
Q 1191 2003 1191 1497 
Q 1191 994 1439 701 
Q 1688 409 2113 409 
Q 2538 409 2786 701 
Q 3034 994 3034 1497 
Q 3034 2003 2786 2293 
Q 2538 2584 2113 2584 
z
M 3366 4563 
L 3366 3988 
Q 3128 4100 2886 4159 
Q 2644 4219 2406 4219 
Q 1781 4219 1451 3797 
Q 1122 3375 1075 2522 
Q 1259 2794 1537 2939 
Q 1816 3084 2150 3084 
Q 2853 3084 3261 2657 
Q 3669 2231 3669 1497 
Q 3669 778 3244 343 
Q 2819 -91 2113 -91 
Q 1303 -91 875 529 
Q 447 1150 447 2328 
Q 447 3434 972 4092 
Q 1497 4750 2381 4750 
Q 2619 4750 2861 4703 
Q 3103 4656 3366 4563 
z
" transform="scale(0.015625)"/>
       </defs>
       <use xlink:href="#DejaVuSans-30"/>
       <use xlink:href="#DejaVuSans-2e" x="63.623047"/>
       <use xlink:href="#DejaVuSans-36" x="95.410156"/>
      </g>
     </g>
    </g>
    <g id="xtick_5">
     <g id="line2d_5">
      <g>
       <use xlink:href="#m4343b8446d" x="292.909091" y="333.490909" style="stroke: #000000; stroke-width: 0.8"/>
      </g>
     </g>
     <g id="text_5">
      <!-- 0.8 -->
      <g transform="translate(284.957528 348.089347)scale(0.1 -0.1)">
       <defs>
        <path id="DejaVuSans-38" d="M 2034 2216 
Q 1584 2216 1326 1975 
Q 1069 1734 1069 1313 
Q 1069 891 1326 650 
Q 1584 409 2034 409 
Q 2484 409 2743 651 
Q 3003 894 3003 1313 
Q 3003 1734 2745 1975 
Q 2488 2216 2034 2216 
z
M 1403 2484 
Q 997 2584 770 2862 
Q 544 3141 544 3541 
Q 544 4100 942 4425 
Q 1341 4750 2034 4750 
Q 2731 4750 3128 4425 
Q 3525 4100 3525 3541 
Q 3525 3141 3298 2862 
Q 3072 2584 2669 2484 
Q 3125 2378 3379 2068 
Q 3634 1759 3634 1313 
Q 3634 634 3220 271 
Q 2806 -91 2034 -91 
Q 1263 -91 848 271 
Q 434 634 434 1313 
Q 434 1759 690 2068 
Q 947 2378 1403 2484 
z
M 1172 3481 
Q 1172 3119 1398 2916 
Q 1625 2713 2034 2713 
Q 2441 2713 2670 2916 
Q 2900 3119 2900 3481 
Q 2900 3844 2670 4047 
Q 2441 4250 2034 4250 
Q 1625 4250 1398 4047 
Q 1172 3844 1172 3481 
z
" transform="scale(0.015625)"/>
       </defs>
       <use xlink:href="#DejaVuSans-30"/>
       <use xlink:href="#DejaVuSans-2e" x="63.623047"/>
       <use xlink:href="#DejaVuSans-38" x="95.410156"/>
      </g>
     </g>
    </g>
    <g id="xtick_6">
     <g id="line2d_6">
      <g>
       <use xlink:href="#m4343b8446d" x="343.636364" y="333.490909" style="stroke: #000000; stroke-width: 0.8"/>
      </g>
     </g>
     <g id="text_6">
      <!-- 1.0 -->
      <g transform="translate(335.684801 348.089347)scale(0.1 -0.1)">
       <defs>
        <path id="DejaVuSans-31" d="M 794 531 
L 1825 531 
L 1825 4091 
L 703 3866 
L 703 4441 
L 1819 4666 
L 2450 4666 
L 2450 531 
L 3481 531 
L 3481 0 
L 794 0 
L 794 531 
z
" transform="scale(0.015625)"/>
       </defs>
       <use xlink:href="#DejaVuSans-31"/>
       <use xlink:href="#DejaVuSans-2e" x="63.623047"/>
       <use xlink:href="#DejaVuSans-30" x="95.410156"/>
      </g>
     </g>
    </g>
   </g>
   <g id="matplotlib.axis_2">
    <g id="ytick_1">
     <g id="line2d_7">
      <defs>
       <path id="m03dc8529fd" d="M 0 0 
L -3.5 0 
" style="stroke: #000000; stroke-width: 0.8"/>
      </defs>
      <g>
       <use xlink:href="#m03dc8529fd" x="90" y="333.490909" style="stroke: #000000; stroke-width: 0.8"/>
      </g>
     </g>
     <g id="text_7">
      <!-- 0.0 -->
      <g transform="translate(67.096875 337.290128)scale(0.1 -0.1)">
       <use xlink:href="#DejaVuSans-30"/>
       <use xlink:href="#DejaVuSans-2e" x="63.623047"/>
       <use xlink:href="#DejaVuSans-30" x="95.410156"/>
      </g>
     </g>
    </g>
    <g id="ytick_2">
     <g id="line2d_8">
      <g>
       <use xlink:href="#m03dc8529fd" x="90" y="284.072727" style="stroke: #000000; stroke-width: 0.8"/>
      </g>
     </g>
     <g id="text_8">
      <!-- 0.2 -->
      <g transform="translate(67.096875 287.871946)scale(0.1 -0.1)">
       <use xlink:href="#DejaVuSans-30"/>
       <use xlink:href="#DejaVuSans-2e" x="63.623047"/>
       <use xlink:href="#DejaVuSans-32" x="95.410156"/>
      </g>
     </g>
    </g>
    <g id="ytick_3">
     <g id="line2d_9">
      <g>
       <use xlink:href="#m03dc8529fd" x="90" y="234.654545" style="stroke: #000000; stroke-width: 0.8"/>
      </g>
     </g>
     <g id="text_9">
      <!-- 0.4 -->
      <g transform="translate(67.096875 238.453764)scale(0.1 -0.1)">
       <use xlink:href="#DejaVuSans-30"/>
       <use xlink:href="#DejaVuSans-2e" x="63.623047"/>
       <use xlink:href="#DejaVuSans-34" x="95.410156"/>
      </g>
     </g>
    </g>
    <g id="ytick_4">
     <g id="line2d_10">
      <g>
       <use xlink:href="#m03dc8529fd" x="90" y="185.236364" style="stroke: #000000; stroke-width: 0.8"/>
      </g>
     </g>
     <g id="text_10">
      <!-- 0.6 -->
      <g transform="translate(67.096875 189.035582)scale(0.1 -0.1)">
       <use xlink:href="#DejaVuSans-30"/>
       <use xlink:href="#DejaVuSans-2e" x="63.623047"/>
       <use xlink:href="#DejaVuSans-36" x="95.410156"/>
      </g>
     </g>
    </g>
    <g id="ytick_5">
     <g id="line2d_11">
      <g>
       <use xlink:href="#m03dc8529fd" x="90" y="135.818182" style="stroke: #000000; stroke-width: 0.8"/>
      </g>
     </g>
     <g id="text_11">
      <!-- 0.8 -->
      <g transform="translate(67.096875 139.617401)scale(0.1 -0.1)">
       <use xlink:href="#DejaVuSans-30"/>
       <use xlink:href="#DejaVuSans-2e" x="63.623047"/>
       <use xlink:href="#DejaVuSans-38" x="95.410156"/>
      </g>
     </g>
    </g>
    <g id="ytick_6">
     <g id="line2d_12">
      <g>
       <use xlink:href="#m03dc8529fd" x="90" y="86.4" style="stroke: #000000; stroke-width: 0.8"/>
      </g>
     </g>
     <g id="text_12">
      <!-- 1.0 -->
      <g transform="translate(67.096875 90.199219)scale(0.1 -0.1)">
       <use xlink:href="#DejaVuSans-31"/>
       <use xlink:href="#DejaVuSans-2e" x="63.623047"/>
       <use xlink:href="#DejaVuSans-30" x="95.410156"/>
      </g>
     </g>
    </g>
   </g>
   <g id="patch_3">
    <path d="M 90 333.490909 
L 90 86.4 
" style="fill: none; stroke: #000000; stroke-width: 0.8; stroke-linejoin: miter; stroke-linecap: square"/>
   </g>
   <g id="patch_4">
    <path d="M 343.636364 333.490909 
L 343.636364 86.4 
" style="fill: none; stroke: #000000; stroke-width: 0.8; stroke-linejoin: miter; stroke-linecap: square"/>
   </g>
   <g id="patch_5">
    <path d="M 90 333.490909 
L 343.636364 333.490909 
" style="fill: none; stroke: #000000; stroke-width: 0.8; stroke-linejoin: miter; stroke-linecap: square"/>
   </g>
   <g id="patch_6">
    <path d="M 90 86.4 
L 343.636364 86.4 
" style="fill: none; stroke: #000000; stroke-width: 0.8; stroke-linejoin: miter; stroke-linecap: square"/>
   </g>
  </g>
  <g id="axes_2">
   <g id="patch_7">
    <path d="M 394.363636 333.490909 
L 648 333.490909 
L 648 86.4 
L 394.363636 86.4 
z
" style="fill: #ffffff"/>
   </g>
   <g id="PolyCollection_1">
    <defs>
     <path id="ma1d0196eb3" d="M 405.892562 -554.33516 
L 405.892562 -554.33516 
L 407.342741 -528.521718 
L 408.792921 -533.57479 
L 410.2431 -527.370669 
L 411.693279 -518.901978 
L 413.143459 -515.777455 
L 414.593638 -516.529561 
L 416.043817 -505.49828 
L 417.493997 -518.117034 
L 418.944176 -517.684498 
L 420.394355 -517.686329 
L 421.844535 -507.918605 
L 423.294714 -516.777111 
L 424.744893 -501.237593 
L 426.195073 -510.365874 
L 427.645252 -506.90758 
L 429.095431 -504.481184 
L 430.54561 -503.101894 
L 431.99579 -502.850798 
L 433.445969 -503.097469 
L 434.896148 -503.707676 
L 436.346328 -504.362871 
L 437.796507 -493.887276 
L 439.246686 -504.694965 
L 440.696866 -504.666486 
L 442.147045 -505.141463 
L 443.597224 -506.230737 
L 445.047404 -502.751009 
L 446.497583 -500.424396 
L 447.947762 -508.566381 
L 449.397942 -508.730146 
L 450.848121 -505.013913 
L 452.2983 -498.04362 
L 453.74848 -507.304396 
L 455.198659 -505.542663 
L 456.648838 -503.849906 
L 458.099018 -502.559202 
L 459.549197 -501.638016 
L 460.999376 -501.263085 
L 462.449556 -502.422647 
L 463.899735 -496.338487 
L 465.349914 -514.642627 
L 466.800094 -524.676495 
L 468.250273 -512.78084 
L 469.700452 -535.748109 
L 471.150632 -521.726538 
L 472.600811 -524.181259 
L 474.05099 -508.333322 
L 475.501169 -516.680242 
L 476.951349 -511.94699 
L 478.401528 -510.176881 
L 479.851707 -513.405326 
L 481.301887 -518.28498 
L 482.752066 -507.22804 
L 484.202245 -527.122201 
L 485.652425 -524.421422 
L 487.102604 -515.597603 
L 488.552783 -525.588438 
L 490.002963 -518.01207 
L 491.453142 -519.901368 
L 492.903321 -521.652164 
L 494.353501 -514.261853 
L 495.80368 -511.61814 
L 497.253859 -520.717483 
L 498.704039 -520.7182 
L 500.154218 -525.675074 
L 501.604397 -533.861728 
L 503.054577 -523.892724 
L 504.504756 -544.418275 
L 505.954935 -543.585796 
L 507.405115 -523.258722 
L 508.855294 -517.924686 
L 510.305473 -523.35614 
L 511.755653 -516.635961 
L 513.205832 -514.044706 
L 514.656011 -514.289899 
L 516.106191 -503.026264 
L 517.55637 -511.733745 
L 519.006549 -513.484387 
L 520.456729 -500.472476 
L 521.906908 -514.606269 
L 523.357087 -513.035792 
L 524.807266 -513.568508 
L 526.257446 -503.974692 
L 527.707625 -500.48451 
L 529.157804 -506.412474 
L 530.607984 -519.7273 
L 532.058163 -521.770453 
L 533.508342 -507.339889 
L 534.958522 -518.486316 
L 536.408701 -520.949667 
L 537.85888 -509.317947 
L 539.30906 -525.374831 
L 540.759239 -510.999401 
L 542.209418 -499.268565 
L 543.659598 -497.954168 
L 545.109777 -490.913333 
L 546.559956 -471.808264 
L 548.010136 -469.426822 
L 549.460315 -484.568135 
L 550.910494 -483.775719 
L 552.360674 -480.138301 
L 553.810853 -461.415092 
L 555.261032 -448.093193 
L 556.711212 -475.197845 
L 558.161391 -465.720265 
L 559.61157 -487.531261 
L 561.06175 -487.39055 
L 562.511929 -496.712735 
L 563.962108 -494.434869 
L 565.412288 -498.069645 
L 566.862467 -495.343713 
L 568.312646 -490.244735 
L 569.762826 -480.714279 
L 571.213005 -456.100955 
L 572.663184 -475.825938 
L 574.113363 -473.126473 
L 575.563543 -460.419451 
L 577.013722 -449.972136 
L 578.463901 -468.992607 
L 579.914081 -462.754855 
L 581.36426 -440.087184 
L 582.814439 -452.278247 
L 584.264619 -437.108243 
L 585.714798 -404.973178 
L 587.164977 -397.740496 
L 588.615157 -421.696057 
L 590.065336 -407.821725 
L 591.515515 -415.439447 
L 592.965695 -456.632477 
L 594.415874 -467.564519 
L 595.866053 -473.335857 
L 597.316233 -459.44001 
L 598.766412 -460.679863 
L 600.216591 -480.917931 
L 601.666771 -491.349637 
L 603.11695 -496.690441 
L 604.567129 -500.123137 
L 606.017309 -501.570883 
L 607.467488 -502.012042 
L 608.917667 -501.98909 
L 610.367847 -501.7223 
L 611.818026 -501.338913 
L 613.268205 -500.083894 
L 614.718385 -496.321217 
L 616.168564 -501.917636 
L 617.618743 -503.380117 
L 619.068923 -501.413474 
L 620.519102 -508.871647 
L 621.969281 -508.384013 
L 623.41946 -504.653135 
L 624.86964 -516.484805 
L 626.319819 -500.818803 
L 627.769998 -503.143861 
L 629.220178 -509.10823 
L 630.670357 -504.015516 
L 632.120536 -506.377046 
L 633.570716 -500.408716 
L 635.020895 -499.470696 
L 636.471074 -503.515531 
L 636.471074 -517.970102 
L 636.471074 -517.970102 
L 635.020895 -519.270704 
L 633.570716 -514.597118 
L 632.120536 -506.377046 
L 630.670357 -509.749954 
L 629.220178 -509.10823 
L 627.769998 -521.480415 
L 626.319819 -529.599033 
L 624.86964 -516.484805 
L 623.41946 -526.252704 
L 621.969281 -516.634594 
L 620.519102 -508.871647 
L 619.068923 -509.946513 
L 617.618743 -503.380117 
L 616.168564 -501.917636 
L 614.718385 -506.034622 
L 613.268205 -502.032048 
L 611.818026 -501.338913 
L 610.367847 -501.7223 
L 608.917667 -501.98909 
L 607.467488 -502.012042 
L 606.017309 -501.570883 
L 604.567129 -500.123137 
L 603.11695 -497.012306 
L 601.666771 -491.349637 
L 600.216591 -488.333862 
L 598.766412 -497.29037 
L 597.316233 -492.213558 
L 595.866053 -473.335857 
L 594.415874 -467.564519 
L 592.965695 -456.632477 
L 591.515515 -470.348174 
L 590.065336 -452.883595 
L 588.615157 -421.696057 
L 587.164977 -440.202519 
L 585.714798 -443.636182 
L 584.264619 -437.108243 
L 582.814439 -452.278247 
L 581.36426 -487.154062 
L 579.914081 -474.317644 
L 578.463901 -468.992607 
L 577.013722 -487.768282 
L 575.563543 -480.451933 
L 574.113363 -473.126473 
L 572.663184 -475.825938 
L 571.213005 -502.155732 
L 569.762826 -487.593316 
L 568.312646 -490.244735 
L 566.862467 -495.343713 
L 565.412288 -498.069645 
L 563.962108 -502.355354 
L 562.511929 -496.712735 
L 561.06175 -498.780824 
L 559.61157 -487.531261 
L 558.161391 -496.025778 
L 556.711212 -475.197845 
L 555.261032 -498.011344 
L 553.810853 -489.342978 
L 552.360674 -480.138301 
L 550.910494 -483.775719 
L 549.460315 -484.568135 
L 548.010136 -498.958689 
L 546.559956 -499.776751 
L 545.109777 -490.913333 
L 543.659598 -499.510204 
L 542.209418 -516.198351 
L 540.759239 -522.921749 
L 539.30906 -525.374831 
L 537.85888 -552.944317 
L 536.408701 -544.294166 
L 534.958522 -541.686432 
L 533.508342 -543.939788 
L 532.058163 -521.770453 
L 530.607984 -519.7273 
L 529.157804 -531.406166 
L 527.707625 -535.088892 
L 526.257446 -527.385042 
L 524.807266 -513.568508 
L 523.357087 -513.035792 
L 521.906908 -514.606269 
L 520.456729 -534.080101 
L 519.006549 -525.306088 
L 517.55637 -527.679179 
L 516.106191 -532.874267 
L 514.656011 -516.235023 
L 513.205832 -514.044706 
L 511.755653 -516.635961 
L 510.305473 -523.35614 
L 508.855294 -545.915852 
L 507.405115 -555.213922 
L 505.954935 -543.585796 
L 504.504756 -544.418275 
L 503.054577 -558.290207 
L 501.604397 -533.861728 
L 500.154218 -525.675074 
L 498.704039 -520.7182 
L 497.253859 -520.717483 
L 495.80368 -535.801115 
L 494.353501 -538.931276 
L 492.903321 -534.686087 
L 491.453142 -538.592826 
L 490.002963 -543.092028 
L 488.552783 -537.483965 
L 487.102604 -547.026576 
L 485.652425 -535.090455 
L 484.202245 -527.122201 
L 482.752066 -539.343294 
L 481.301887 -518.28498 
L 479.851707 -513.405326 
L 478.401528 -511.425346 
L 476.951349 -511.94699 
L 475.501169 -516.680242 
L 474.05099 -538.720619 
L 472.600811 -536.895713 
L 471.150632 -549.703611 
L 469.700452 -538.35623 
L 468.250273 -553.547556 
L 466.800094 -524.676495 
L 465.349914 -514.642627 
L 463.899735 -516.982795 
L 462.449556 -502.422647 
L 460.999376 -501.263085 
L 459.549197 -501.638016 
L 458.099018 -502.559202 
L 456.648838 -503.849906 
L 455.198659 -505.542663 
L 453.74848 -507.304396 
L 452.2983 -518.962165 
L 450.848121 -512.699431 
L 449.397942 -508.730146 
L 447.947762 -508.566381 
L 446.497583 -516.109907 
L 445.047404 -512.179542 
L 443.597224 -506.230737 
L 442.147045 -505.141463 
L 440.696866 -504.666486 
L 439.246686 -504.694965 
L 437.796507 -515.545635 
L 436.346328 -504.362871 
L 434.896148 -503.707676 
L 433.445969 -503.097469 
L 431.99579 -502.850798 
L 430.54561 -503.328994 
L 429.095431 -504.481184 
L 427.645252 -506.90758 
L 426.195073 -510.365874 
L 424.744893 -526.878964 
L 423.294714 -516.777111 
L 421.844535 -527.690196 
L 420.394355 -517.686329 
L 418.944176 -517.684498 
L 417.493997 -518.117034 
L 416.043817 -530.335688 
L 414.593638 -516.529561 
L 413.143459 -515.777455 
L 411.693279 -518.901978 
L 410.2431 -527.370669 
L 408.792921 -544.157109 
L 407.342741 -569.294452 
L 405.892562 -554.33516 
z
" style="stroke: #9467bd; stroke-opacity: 0.2"/>
    </defs>
    <g clip-path="url(#p1328533664)">
     <use xlink:href="#ma1d0196eb3" x="0" y="720" style="fill: #9467bd; fill-opacity: 0.2; stroke: #9467bd; stroke-opacity: 0.2"/>
    </g>
   </g>
   <g id="PolyCollection_2">
    <defs>
     <path id="m212a013bdf" d="M 405.892562 -502.256901 
L 405.892562 -502.256901 
L 407.342741 -502.256901 
L 408.792921 -502.256901 
L 410.2431 -502.256901 
L 411.693279 -502.256901 
L 413.143459 -502.256901 
L 414.593638 -502.256901 
L 416.043817 -502.256901 
L 417.493997 -502.256901 
L 418.944176 -502.256901 
L 420.394355 -502.256901 
L 421.844535 -502.256901 
L 423.294714 -502.256901 
L 424.744893 -502.256901 
L 426.195073 -502.256901 
L 427.645252 -502.256901 
L 429.095431 -502.256901 
L 430.54561 -502.256901 
L 431.99579 -502.256901 
L 433.445969 -502.256901 
L 434.896148 -502.256901 
L 436.346328 -502.256901 
L 437.796507 -502.256901 
L 439.246686 -502.256901 
L 440.696866 -502.256901 
L 442.147045 -502.256901 
L 443.597224 -502.256901 
L 445.047404 -502.256901 
L 446.497583 -502.256901 
L 447.947762 -502.256901 
L 449.397942 -502.256901 
L 450.848121 -502.256901 
L 452.2983 -502.256901 
L 453.74848 -502.256901 
L 455.198659 -502.256901 
L 456.648838 -502.256901 
L 458.099018 -502.256901 
L 459.549197 -502.256901 
L 460.999376 -502.256901 
L 462.449556 -502.256901 
L 463.899735 -502.256901 
L 465.349914 -502.256901 
L 466.800094 -502.256901 
L 468.250273 -502.254548 
L 469.700452 -502.241558 
L 471.150632 -502.178982 
L 472.600811 -501.948728 
L 474.05099 -501.307663 
L 475.501169 -499.979797 
L 476.951349 -498.002711 
L 478.401528 -496.067092 
L 479.851707 -485.149575 
L 481.301887 -496.067092 
L 482.752066 -498.002711 
L 484.202245 -499.979797 
L 485.652425 -501.307663 
L 487.102604 -501.948728 
L 488.552783 -502.178982 
L 490.002963 -502.241558 
L 491.453142 -502.254548 
L 492.903321 -502.256901 
L 494.353501 -502.256901 
L 495.80368 -502.256901 
L 497.253859 -502.256901 
L 498.704039 -502.256901 
L 500.154218 -502.256901 
L 501.604397 -502.256901 
L 503.054577 -502.256901 
L 504.504756 -502.256901 
L 505.954935 -502.256901 
L 507.405115 -502.256901 
L 508.855294 -502.256901 
L 510.305473 -502.256901 
L 511.755653 -502.256901 
L 513.205832 -502.256901 
L 514.656011 -502.256901 
L 516.106191 -502.256901 
L 517.55637 -502.256901 
L 519.006549 -502.256901 
L 520.456729 -502.256901 
L 521.906908 -502.256901 
L 523.357087 -502.256901 
L 524.807266 -502.256901 
L 526.257446 -502.256901 
L 527.707625 -502.256901 
L 529.157804 -502.256901 
L 530.607984 -502.256901 
L 532.058163 -502.256901 
L 533.508342 -502.256901 
L 534.958522 -502.256901 
L 536.408701 -502.256901 
L 537.85888 -502.256901 
L 539.30906 -502.256901 
L 540.759239 -502.256901 
L 542.209418 -502.256901 
L 543.659598 -502.256901 
L 545.109777 -502.276393 
L 546.559956 -502.384008 
L 548.010136 -502.902404 
L 549.460315 -504.809914 
L 550.910494 -510.120736 
L 552.360674 -521.12126 
L 553.810853 -537.500165 
L 555.261032 -553.535547 
L 556.711212 -499.854677 
L 558.161391 -553.535547 
L 559.61157 -537.500165 
L 561.06175 -521.12126 
L 562.511929 -510.120736 
L 563.962108 -504.809914 
L 565.412288 -502.902404 
L 566.862467 -502.384008 
L 568.312646 -502.276393 
L 569.762826 -502.256901 
L 571.213005 -502.256901 
L 572.663184 -502.256901 
L 574.113363 -502.256901 
L 575.563543 -502.256901 
L 577.013722 -502.256901 
L 578.463901 -502.256901 
L 579.914081 -502.256901 
L 581.36426 -502.256901 
L 582.814439 -502.256901 
L 584.264619 -502.256901 
L 585.714798 -502.256901 
L 587.164977 -502.256901 
L 588.615157 -502.256901 
L 590.065336 -502.256901 
L 591.515515 -502.256901 
L 592.965695 -502.256901 
L 594.415874 -502.256901 
L 595.866053 -502.256901 
L 597.316233 -502.256901 
L 598.766412 -502.256901 
L 600.216591 -502.256901 
L 601.666771 -502.256901 
L 603.11695 -502.256901 
L 604.567129 -502.256901 
L 606.017309 -502.256901 
L 607.467488 -502.256901 
L 608.917667 -502.256901 
L 610.367847 -502.256901 
L 611.818026 -502.256901 
L 613.268205 -502.256901 
L 614.718385 -502.256901 
L 616.168564 -502.256901 
L 617.618743 -502.256901 
L 619.068923 -502.256901 
L 620.519102 -502.259982 
L 621.969281 -502.276994 
L 623.41946 -502.358943 
L 624.86964 -502.660488 
L 626.319819 -503.500036 
L 627.769998 -505.239027 
L 629.220178 -507.828247 
L 630.670357 -510.366243 
L 632.120536 -498.153829 
L 633.570716 -510.465204 
L 635.020895 -508.231834 
L 636.471074 -506.482163 
L 636.471074 -506.482163 
L 636.471074 -506.482163 
L 635.020895 -508.231834 
L 633.570716 -510.465204 
L 632.120536 -524.771353 
L 630.670357 -510.366243 
L 629.220178 -507.828247 
L 627.769998 -505.239027 
L 626.319819 -503.500036 
L 624.86964 -502.660488 
L 623.41946 -502.358943 
L 621.969281 -502.276994 
L 620.519102 -502.259982 
L 619.068923 -502.256901 
L 617.618743 -502.256901 
L 616.168564 -502.256901 
L 614.718385 -502.256901 
L 613.268205 -502.256901 
L 611.818026 -502.256901 
L 610.367847 -502.256901 
L 608.917667 -502.256901 
L 607.467488 -502.256901 
L 606.017309 -502.256901 
L 604.567129 -502.256901 
L 603.11695 -502.256901 
L 601.666771 -502.256901 
L 600.216591 -502.256901 
L 598.766412 -502.256901 
L 597.316233 -502.256901 
L 595.866053 -502.256901 
L 594.415874 -502.256901 
L 592.965695 -502.256901 
L 591.515515 -502.256901 
L 590.065336 -502.256901 
L 588.615157 -502.256901 
L 587.164977 -502.256901 
L 585.714798 -502.256901 
L 584.264619 -502.256901 
L 582.814439 -502.256901 
L 581.36426 -502.256901 
L 579.914081 -502.256901 
L 578.463901 -502.256901 
L 577.013722 -502.256901 
L 575.563543 -502.256901 
L 574.113363 -502.256901 
L 572.663184 -502.256901 
L 571.213005 -502.256901 
L 569.762826 -502.256901 
L 568.312646 -502.276393 
L 566.862467 -502.384008 
L 565.412288 -502.902404 
L 563.962108 -504.809914 
L 562.511929 -510.120736 
L 561.06175 -521.12126 
L 559.61157 -537.500165 
L 558.161391 -553.535547 
L 556.711212 -620.871762 
L 555.261032 -553.535547 
L 553.810853 -537.500165 
L 552.360674 -521.12126 
L 550.910494 -510.120736 
L 549.460315 -504.809914 
L 548.010136 -502.902404 
L 546.559956 -502.384008 
L 545.109777 -502.276393 
L 543.659598 -502.256901 
L 542.209418 -502.256901 
L 540.759239 -502.256901 
L 539.30906 -502.256901 
L 537.85888 -502.256901 
L 536.408701 -502.256901 
L 534.958522 -502.256901 
L 533.508342 -502.256901 
L 532.058163 -502.256901 
L 530.607984 -502.256901 
L 529.157804 -502.256901 
L 527.707625 -502.256901 
L 526.257446 -502.256901 
L 524.807266 -502.256901 
L 523.357087 -502.256901 
L 521.906908 -502.256901 
L 520.456729 -502.256901 
L 519.006549 -502.256901 
L 517.55637 -502.256901 
L 516.106191 -502.256901 
L 514.656011 -502.256901 
L 513.205832 -502.256901 
L 511.755653 -502.256901 
L 510.305473 -502.256901 
L 508.855294 -502.256901 
L 507.405115 -502.256901 
L 505.954935 -502.256901 
L 504.504756 -502.256901 
L 503.054577 -502.256901 
L 501.604397 -502.256901 
L 500.154218 -502.256901 
L 498.704039 -502.256901 
L 497.253859 -502.256901 
L 495.80368 -502.256901 
L 494.353501 -502.256901 
L 492.903321 -502.256901 
L 491.453142 -502.254548 
L 490.002963 -502.241558 
L 488.552783 -502.178982 
L 487.102604 -501.948728 
L 485.652425 -501.307663 
L 484.202245 -499.979797 
L 482.752066 -498.002711 
L 481.301887 -496.067092 
L 479.851707 -505.336282 
L 478.401528 -496.067092 
L 476.951349 -498.002711 
L 475.501169 -499.979797 
L 474.05099 -501.307663 
L 472.600811 -501.948728 
L 471.150632 -502.178982 
L 469.700452 -502.241558 
L 468.250273 -502.254548 
L 466.800094 -502.256901 
L 465.349914 -502.256901 
L 463.899735 -502.256901 
L 462.449556 -502.256901 
L 460.999376 -502.256901 
L 459.549197 -502.256901 
L 458.099018 -502.256901 
L 456.648838 -502.256901 
L 455.198659 -502.256901 
L 453.74848 -502.256901 
L 452.2983 -502.256901 
L 450.848121 -502.256901 
L 449.397942 -502.256901 
L 447.947762 -502.256901 
L 446.497583 -502.256901 
L 445.047404 -502.256901 
L 443.597224 -502.256901 
L 442.147045 -502.256901 
L 440.696866 -502.256901 
L 439.246686 -502.256901 
L 437.796507 -502.256901 
L 436.346328 -502.256901 
L 434.896148 -502.256901 
L 433.445969 -502.256901 
L 431.99579 -502.256901 
L 430.54561 -502.256901 
L 429.095431 -502.256901 
L 427.645252 -502.256901 
L 426.195073 -502.256901 
L 424.744893 -502.256901 
L 423.294714 -502.256901 
L 421.844535 -502.256901 
L 420.394355 -502.256901 
L 418.944176 -502.256901 
L 417.493997 -502.256901 
L 416.043817 -502.256901 
L 414.593638 -502.256901 
L 413.143459 -502.256901 
L 411.693279 -502.256901 
L 410.2431 -502.256901 
L 408.792921 -502.256901 
L 407.342741 -502.256901 
L 405.892562 -502.256901 
z
" style="stroke: #1f77b4; stroke-opacity: 0.2"/>
    </defs>
    <g clip-path="url(#p1328533664)">
     <use xlink:href="#m212a013bdf" x="0" y="720" style="fill: #1f77b4; fill-opacity: 0.2; stroke: #1f77b4; stroke-opacity: 0.2"/>
    </g>
   </g>
   <g id="PolyCollection_3">
    <defs>
     <path id="m54d25c1202" d="M 405.892562 -495.395902 
L 405.892562 -472.350733 
L 407.342741 -485.102935 
L 408.792921 -484.584774 
L 410.2431 -479.783064 
L 411.693279 -472.119109 
L 413.143459 -439.062821 
L 414.593638 -448.736457 
L 416.043817 -476.152783 
L 417.493997 -486.160845 
L 418.944176 -493.405638 
L 420.394355 -495.295513 
L 421.844535 -491.162212 
L 423.294714 -481.866073 
L 424.744893 -470.60189 
L 426.195073 -439.388852 
L 427.645252 -437.24457 
L 429.095431 -464.072697 
L 430.54561 -469.265882 
L 431.99579 -445.921973 
L 433.445969 -477.245613 
L 434.896148 -480.530564 
L 436.346328 -470.994944 
L 437.796507 -487.60602 
L 439.246686 -491.221324 
L 440.696866 -487.149508 
L 442.147045 -496.294568 
L 443.597224 -496.891939 
L 445.047404 -496.080995 
L 446.497583 -494.671866 
L 447.947762 -480.782493 
L 449.397942 -494.561951 
L 450.848121 -495.318842 
L 452.2983 -494.118919 
L 453.74848 -489.581898 
L 455.198659 -482.745235 
L 456.648838 -465.911018 
L 458.099018 -459.893826 
L 459.549197 -481.145974 
L 460.999376 -488.671142 
L 462.449556 -495.369198 
L 463.899735 -499.51042 
L 465.349914 -501.396788 
L 466.800094 -502.045641 
L 468.250273 -502.216253 
L 469.700452 -502.251181 
L 471.150632 -502.256901 
L 472.600811 -502.256901 
L 474.05099 -502.256901 
L 475.501169 -502.256901 
L 476.951349 -502.256901 
L 478.401528 -502.256901 
L 479.851707 -502.256901 
L 481.301887 -502.256901 
L 482.752066 -502.256901 
L 484.202245 -502.256901 
L 485.652425 -502.256901 
L 487.102604 -502.256901 
L 488.552783 -502.248489 
L 490.002963 -502.202047 
L 491.453142 -501.978331 
L 492.903321 -501.155138 
L 494.353501 -498.863234 
L 495.80368 -494.115917 
L 497.253859 -487.047541 
L 498.704039 -480.121986 
L 500.154218 -461.666565 
L 501.604397 -479.947692 
L 503.054577 -486.336733 
L 504.504756 -491.926476 
L 505.954935 -493.611038 
L 507.405115 -491.342744 
L 508.855294 -487.701382 
L 510.305473 -472.214071 
L 511.755653 -487.971539 
L 513.205832 -492.444506 
L 514.656011 -497.004704 
L 516.106191 -500.067459 
L 517.55637 -501.546093 
L 519.006549 -502.07718 
L 520.456729 -502.221512 
L 521.906908 -502.251474 
L 523.357087 -502.256901 
L 524.807266 -502.256901 
L 526.257446 -502.256901 
L 527.707625 -502.256901 
L 529.157804 -502.256901 
L 530.607984 -502.256901 
L 532.058163 -502.256901 
L 533.508342 -502.256901 
L 534.958522 -502.256901 
L 536.408701 -502.256901 
L 537.85888 -502.256901 
L 539.30906 -502.268688 
L 540.759239 -502.333764 
L 542.209418 -502.647243 
L 543.659598 -503.800736 
L 545.109777 -507.012249 
L 546.559956 -513.664389 
L 548.010136 -523.568895 
L 549.460315 -533.26567 
L 550.910494 -500.569181 
L 552.360674 -533.26567 
L 553.810853 -523.568895 
L 555.261032 -513.669009 
L 556.711212 -507.05339 
L 558.161391 -504.025557 
L 559.61157 -503.617137 
L 561.06175 -505.64557 
L 562.511929 -511.231503 
L 563.962108 -521.531953 
L 565.412288 -535.459942 
L 566.862467 -522.812262 
L 568.312646 -525.405835 
L 569.762826 -562.540819 
L 571.213005 -566.260988 
L 572.663184 -551.930507 
L 574.113363 -539.10108 
L 575.563543 -566.565926 
L 577.013722 -562.029956 
L 578.463901 -531.233848 
L 579.914081 -571.693129 
L 581.36426 -584.489264 
L 582.814439 -561.663303 
L 584.264619 -564.535714 
L 585.714798 -570.538464 
L 587.164977 -550.646042 
L 588.615157 -513.762627 
L 590.065336 -521.672142 
L 591.515515 -513.157074 
L 592.965695 -507.533027 
L 594.415874 -504.3604 
L 595.866053 -502.954788 
L 597.316233 -502.591368 
L 598.766412 -502.957272 
L 600.216591 -504.318738 
L 601.666771 -507.190993 
L 603.11695 -511.474998 
L 604.567129 -515.669153 
L 606.017309 -498.135363 
L 607.467488 -515.669153 
L 608.917667 -511.474998 
L 610.367847 -507.190993 
L 611.818026 -504.313736 
L 613.268205 -502.924657 
L 614.718385 -502.425736 
L 616.168564 -502.290146 
L 617.618743 -502.261999 
L 619.068923 -502.256901 
L 620.519102 -502.256901 
L 621.969281 -502.256901 
L 623.41946 -502.256901 
L 624.86964 -502.256901 
L 626.319819 -502.256901 
L 627.769998 -502.256901 
L 629.220178 -502.256901 
L 630.670357 -502.256901 
L 632.120536 -502.256901 
L 633.570716 -502.256901 
L 635.020895 -502.256901 
L 636.471074 -502.256901 
L 636.471074 -502.256901 
L 636.471074 -502.256901 
L 635.020895 -502.256901 
L 633.570716 -502.256901 
L 632.120536 -502.256901 
L 630.670357 -502.256901 
L 629.220178 -502.256901 
L 627.769998 -502.256901 
L 626.319819 -502.256901 
L 624.86964 -502.256901 
L 623.41946 -502.256901 
L 621.969281 -502.256901 
L 620.519102 -502.256901 
L 619.068923 -502.256901 
L 617.618743 -502.261999 
L 616.168564 -502.290146 
L 614.718385 -502.425736 
L 613.268205 -502.924657 
L 611.818026 -504.313736 
L 610.367847 -507.190993 
L 608.917667 -511.474998 
L 607.467488 -515.669153 
L 606.017309 -536.774584 
L 604.567129 -515.669153 
L 603.11695 -511.474998 
L 601.666771 -507.190993 
L 600.216591 -504.318738 
L 598.766412 -502.957272 
L 597.316233 -502.591368 
L 595.866053 -502.954788 
L 594.415874 -504.3604 
L 592.965695 -507.533027 
L 591.515515 -513.157074 
L 590.065336 -521.672142 
L 588.615157 -553.920391 
L 587.164977 -550.646042 
L 585.714798 -570.538464 
L 584.264619 -609.358788 
L 582.814439 -622.368595 
L 581.36426 -584.489264 
L 579.914081 -571.693129 
L 578.463901 -594.47876 
L 577.013722 -562.029956 
L 575.563543 -566.565926 
L 574.113363 -601.782704 
L 572.663184 -587.803785 
L 571.213005 -566.260988 
L 569.762826 -562.540819 
L 568.312646 -590.30668 
L 566.862467 -574.991682 
L 565.412288 -535.459942 
L 563.962108 -521.531953 
L 562.511929 -511.231503 
L 561.06175 -505.64557 
L 559.61157 -503.617137 
L 558.161391 -504.025557 
L 556.711212 -507.05339 
L 555.261032 -513.669009 
L 553.810853 -523.568895 
L 552.360674 -533.26567 
L 550.910494 -574.219698 
L 549.460315 -533.26567 
L 548.010136 -523.568895 
L 546.559956 -513.664389 
L 545.109777 -507.012249 
L 543.659598 -503.800736 
L 542.209418 -502.647243 
L 540.759239 -502.333764 
L 539.30906 -502.268688 
L 537.85888 -502.256901 
L 536.408701 -502.256901 
L 534.958522 -502.256901 
L 533.508342 -502.256901 
L 532.058163 -502.256901 
L 530.607984 -502.256901 
L 529.157804 -502.256901 
L 527.707625 -502.256901 
L 526.257446 -502.256901 
L 524.807266 -502.256901 
L 523.357087 -502.256901 
L 521.906908 -502.251474 
L 520.456729 -502.221512 
L 519.006549 -502.07718 
L 517.55637 -501.546093 
L 516.106191 -500.067459 
L 514.656011 -497.004704 
L 513.205832 -492.444506 
L 511.755653 -487.971539 
L 510.305473 -499.834217 
L 508.855294 -487.701382 
L 507.405115 -491.342744 
L 505.954935 -493.611038 
L 504.504756 -491.926476 
L 503.054577 -486.336733 
L 501.604397 -479.947692 
L 500.154218 -492.624468 
L 498.704039 -480.121986 
L 497.253859 -487.047541 
L 495.80368 -494.115917 
L 494.353501 -498.863234 
L 492.903321 -501.155138 
L 491.453142 -501.978331 
L 490.002963 -502.202047 
L 488.552783 -502.248489 
L 487.102604 -502.256901 
L 485.652425 -502.256901 
L 484.202245 -502.256901 
L 482.752066 -502.256901 
L 481.301887 -502.256901 
L 479.851707 -502.256901 
L 478.401528 -502.256901 
L 476.951349 -502.256901 
L 475.501169 -502.256901 
L 474.05099 -502.256901 
L 472.600811 -502.256901 
L 471.150632 -502.256901 
L 469.700452 -502.251181 
L 468.250273 -502.216253 
L 466.800094 -502.045641 
L 465.349914 -501.396788 
L 463.899735 -499.51042 
L 462.449556 -495.369198 
L 460.999376 -488.671142 
L 459.549197 -481.145974 
L 458.099018 -492.845016 
L 456.648838 -488.343239 
L 455.198659 -482.745235 
L 453.74848 -489.581898 
L 452.2983 -494.118919 
L 450.848121 -495.318842 
L 449.397942 -494.561951 
L 447.947762 -507.17721 
L 446.497583 -494.671866 
L 445.047404 -496.080995 
L 443.597224 -496.891939 
L 442.147045 -496.294568 
L 440.696866 -501.412644 
L 439.246686 -491.221324 
L 437.796507 -487.60602 
L 436.346328 -496.910809 
L 434.896148 -480.530564 
L 433.445969 -477.245613 
L 431.99579 -501.480643 
L 430.54561 -469.265882 
L 429.095431 -464.072697 
L 427.645252 -483.855971 
L 426.195073 -485.362394 
L 424.744893 -470.60189 
L 423.294714 -481.866073 
L 421.844535 -491.162212 
L 420.394355 -495.295513 
L 418.944176 -493.405638 
L 417.493997 -486.160845 
L 416.043817 -476.152783 
L 414.593638 -487.628989 
L 413.143459 -494.436135 
L 411.693279 -472.119109 
L 410.2431 -479.783064 
L 408.792921 -484.584774 
L 407.342741 -485.102935 
L 405.892562 -495.395902 
z
" style="stroke: #d62728; stroke-opacity: 0.2"/>
    </defs>
    <g clip-path="url(#p1328533664)">
     <use xlink:href="#m54d25c1202" x="0" y="720" style="fill: #d62728; fill-opacity: 0.2; stroke: #d62728; stroke-opacity: 0.2"/>
    </g>
   </g>
   <g id="PolyCollection_4">
    <defs>
     <path id="m6d3c13b3fd" d="M 405.892562 -502.256901 
L 405.892562 -502.256901 
L 407.342741 -502.259437 
L 408.792921 -502.273437 
L 410.2431 -502.340879 
L 411.693279 -502.589042 
L 413.143459 -503.279969 
L 414.593638 -504.711115 
L 416.043817 -506.841976 
L 417.493997 -508.928146 
L 418.944176 -497.065332 
L 420.394355 -508.928146 
L 421.844535 -506.841976 
L 423.294714 -504.711115 
L 424.744893 -503.279969 
L 426.195073 -502.589042 
L 427.645252 -502.340879 
L 429.095431 -502.273437 
L 430.54561 -502.265558 
L 431.99579 -502.296815 
L 433.445969 -502.4596 
L 434.896148 -503.058594 
L 436.346328 -504.72629 
L 437.796507 -508.180658 
L 439.246686 -513.323937 
L 440.696866 -518.359344 
L 442.147045 -495.558237 
L 443.597224 -518.359344 
L 445.047404 -513.323937 
L 446.497583 -508.180658 
L 447.947762 -504.72629 
L 449.397942 -503.058594 
L 450.848121 -502.45104 
L 452.2983 -502.240995 
L 453.74848 -501.979545 
L 455.198659 -501.129221 
L 456.648838 -498.761013 
L 458.099018 -493.756992 
L 459.549197 -485.92725 
L 460.999376 -477.112134 
L 462.449556 -445.7893 
L 463.899735 -467.971197 
L 465.349914 -469.659637 
L 466.800094 -460.476342 
L 468.250273 -481.683483 
L 469.700452 -489.36936 
L 471.150632 -495.675341 
L 472.600811 -499.575649 
L 474.05099 -501.395987 
L 475.501169 -502.041392 
L 476.951349 -502.214464 
L 478.401528 -502.250393 
L 479.851707 -502.256901 
L 481.301887 -502.256901 
L 482.752066 -502.256901 
L 484.202245 -502.256901 
L 485.652425 -502.256901 
L 487.102604 -502.256901 
L 488.552783 -502.256901 
L 490.002963 -502.256901 
L 491.453142 -502.256901 
L 492.903321 -502.249524 
L 494.353501 -502.212114 
L 495.80368 -502.034236 
L 497.253859 -501.400528 
L 498.704039 -499.71513 
L 500.154218 -496.466595 
L 501.604397 -492.20434 
L 503.054577 -489.238134 
L 504.504756 -468.818408 
L 505.954935 -482.545867 
L 507.405115 -509.795836 
L 508.855294 -524.490197 
L 510.305473 -537.754943 
L 511.755653 -529.165431 
L 513.205832 -527.540615 
L 514.656011 -530.895553 
L 516.106191 -518.817548 
L 517.55637 -509.826998 
L 519.006549 -504.986141 
L 520.456729 -502.99802 
L 521.906908 -502.225091 
L 523.357087 -501.46297 
L 524.807266 -499.717086 
L 526.257446 -496.156702 
L 527.707625 -490.860229 
L 529.157804 -485.674841 
L 530.607984 -457.791314 
L 532.058163 -485.674841 
L 533.508342 -490.860229 
L 534.958522 -496.156702 
L 536.408701 -499.713959 
L 537.85888 -501.431328 
L 539.30906 -502.048163 
L 540.759239 -502.215798 
L 542.209418 -502.250597 
L 543.659598 -502.256901 
L 545.109777 -502.256901 
L 546.559956 -502.256901 
L 548.010136 -502.254448 
L 549.460315 -502.240905 
L 550.910494 -502.173817 
L 552.360674 -501.923554 
L 553.810853 -501.214441 
L 555.261032 -499.695552 
L 556.711212 -497.354262 
L 558.161391 -495.116052 
L 559.61157 -485.959445 
L 561.06175 -499.081926 
L 562.511929 -494.16417 
L 563.962108 -517.153195 
L 565.412288 -488.119661 
L 566.862467 -522.28105 
L 568.312646 -516.642839 
L 569.762826 -510.141746 
L 571.213005 -505.587735 
L 572.663184 -503.346883 
L 574.113363 -502.533691 
L 575.563543 -502.311768 
L 577.013722 -502.265315 
L 578.463901 -502.256901 
L 579.914081 -502.256901 
L 581.36426 -502.245996 
L 582.814439 -502.180638 
L 584.264619 -501.854175 
L 585.714798 -500.605806 
L 587.164977 -496.91761 
L 588.615157 -488.576452 
L 590.065336 -474.325573 
L 591.515515 -456.510583 
L 592.965695 -426.337853 
L 594.415874 -419.032169 
L 595.866053 -412.072947 
L 597.316233 -460.401378 
L 598.766412 -475.360681 
L 600.216591 -483.171358 
L 601.666771 -481.639042 
L 603.11695 -472.615619 
L 604.567129 -432.70526 
L 606.017309 -447.280138 
L 607.467488 -421.426152 
L 608.917667 -434.749101 
L 610.367847 -411.733961 
L 611.818026 -449.931972 
L 613.268205 -460.125499 
L 614.718385 -464.589256 
L 616.168564 -450.547542 
L 617.618743 -443.143117 
L 619.068923 -460.774885 
L 620.519102 -447.940293 
L 621.969281 -476.274699 
L 623.41946 -486.52553 
L 624.86964 -494.488301 
L 626.319819 -499.176322 
L 627.769998 -501.286802 
L 629.220178 -502.016498 
L 630.670357 -502.210785 
L 632.120536 -502.249829 
L 633.570716 -502.256901 
L 635.020895 -502.256901 
L 636.471074 -502.256901 
L 636.471074 -502.256901 
L 636.471074 -502.256901 
L 635.020895 -502.256901 
L 633.570716 -502.256901 
L 632.120536 -502.249829 
L 630.670357 -502.210785 
L 629.220178 -502.016498 
L 627.769998 -501.286802 
L 626.319819 -499.176322 
L 624.86964 -494.488301 
L 623.41946 -486.52553 
L 621.969281 -476.274699 
L 620.519102 -485.27564 
L 619.068923 -460.774885 
L 617.618743 -477.331507 
L 616.168564 -475.696678 
L 614.718385 -464.589256 
L 613.268205 -460.125499 
L 611.818026 -449.931972 
L 610.367847 -467.183833 
L 608.917667 -434.749101 
L 607.467488 -454.408437 
L 606.017309 -447.280138 
L 604.567129 -487.103433 
L 603.11695 -472.615619 
L 601.666771 -481.639042 
L 600.216591 -483.171358 
L 598.766412 -475.360681 
L 597.316233 -460.401378 
L 595.866053 -477.749332 
L 594.415874 -455.216376 
L 592.965695 -457.111906 
L 591.515515 -456.510583 
L 590.065336 -474.325573 
L 588.615157 -488.576452 
L 587.164977 -496.91761 
L 585.714798 -500.605806 
L 584.264619 -501.854175 
L 582.814439 -502.180638 
L 581.36426 -502.245996 
L 579.914081 -502.256901 
L 578.463901 -502.256901 
L 577.013722 -502.265315 
L 575.563543 -502.311768 
L 574.113363 -502.533691 
L 572.663184 -503.346883 
L 571.213005 -505.587735 
L 569.762826 -510.141746 
L 568.312646 -516.642839 
L 566.862467 -522.28105 
L 565.412288 -557.89253 
L 563.962108 -517.153195 
L 562.511929 -520.880528 
L 561.06175 -499.081926 
L 559.61157 -504.031433 
L 558.161391 -495.116052 
L 556.711212 -497.354262 
L 555.261032 -499.695552 
L 553.810853 -501.214441 
L 552.360674 -501.923554 
L 550.910494 -502.173817 
L 549.460315 -502.240905 
L 548.010136 -502.254448 
L 546.559956 -502.256901 
L 545.109777 -502.256901 
L 543.659598 -502.256901 
L 542.209418 -502.250597 
L 540.759239 -502.215798 
L 539.30906 -502.048163 
L 537.85888 -501.431328 
L 536.408701 -499.713959 
L 534.958522 -496.156702 
L 533.508342 -490.860229 
L 532.058163 -485.674841 
L 530.607984 -509.142617 
L 529.157804 -485.674841 
L 527.707625 -490.860229 
L 526.257446 -496.156702 
L 524.807266 -499.717086 
L 523.357087 -501.46297 
L 521.906908 -502.225091 
L 520.456729 -502.99802 
L 519.006549 -504.986141 
L 517.55637 -509.826998 
L 516.106191 -518.817548 
L 514.656011 -530.895553 
L 513.205832 -555.217921 
L 511.755653 -559.651789 
L 510.305473 -537.754943 
L 508.855294 -524.490197 
L 507.405115 -509.795836 
L 505.954935 -512.82227 
L 504.504756 -512.313852 
L 503.054577 -489.238134 
L 501.604397 -492.20434 
L 500.154218 -496.466595 
L 498.704039 -499.71513 
L 497.253859 -501.400528 
L 495.80368 -502.034236 
L 494.353501 -502.212114 
L 492.903321 -502.249524 
L 491.453142 -502.256901 
L 490.002963 -502.256901 
L 488.552783 -502.256901 
L 487.102604 -502.256901 
L 485.652425 -502.256901 
L 484.202245 -502.256901 
L 482.752066 -502.256901 
L 481.301887 -502.256901 
L 479.851707 -502.256901 
L 478.401528 -502.250393 
L 476.951349 -502.214464 
L 475.501169 -502.041392 
L 474.05099 -501.395987 
L 472.600811 -499.575649 
L 471.150632 -495.675341 
L 469.700452 -489.36936 
L 468.250273 -481.683483 
L 466.800094 -488.669733 
L 465.349914 -469.659637 
L 463.899735 -467.971197 
L 462.449556 -495.092835 
L 460.999376 -477.112134 
L 459.549197 -485.92725 
L 458.099018 -493.756992 
L 456.648838 -498.761013 
L 455.198659 -501.129221 
L 453.74848 -501.979545 
L 452.2983 -502.240995 
L 450.848121 -502.45104 
L 449.397942 -503.058594 
L 447.947762 -504.72629 
L 446.497583 -508.180658 
L 445.047404 -513.323937 
L 443.597224 -518.359344 
L 442.147045 -545.448482 
L 440.696866 -518.359344 
L 439.246686 -513.323937 
L 437.796507 -508.180658 
L 436.346328 -504.72629 
L 434.896148 -503.058594 
L 433.445969 -502.4596 
L 431.99579 -502.296815 
L 430.54561 -502.265558 
L 429.095431 -502.273437 
L 427.645252 -502.340879 
L 426.195073 -502.589042 
L 424.744893 -503.279969 
L 423.294714 -504.711115 
L 421.844535 -506.841976 
L 420.394355 -508.928146 
L 418.944176 -522.567492 
L 417.493997 -508.928146 
L 416.043817 -506.841976 
L 414.593638 -504.711115 
L 413.143459 -503.279969 
L 411.693279 -502.589042 
L 410.2431 -502.340879 
L 408.792921 -502.273437 
L 407.342741 -502.259437 
L 405.892562 -502.256901 
z
" style="stroke: #ff7f0e; stroke-opacity: 0.2"/>
    </defs>
    <g clip-path="url(#p1328533664)">
     <use xlink:href="#m6d3c13b3fd" x="0" y="720" style="fill: #ff7f0e; fill-opacity: 0.2; stroke: #ff7f0e; stroke-opacity: 0.2"/>
    </g>
   </g>
   <g id="matplotlib.axis_3">
    <g id="xtick_7">
     <g id="line2d_13">
      <g>
       <use xlink:href="#m4343b8446d" x="405.863558" y="333.490909" style="stroke: #000000; stroke-width: 0.8"/>
      </g>
     </g>
     <g id="text_13">
      <!-- 0 -->
      <g transform="translate(402.682308 348.089347)scale(0.1 -0.1)">
       <use xlink:href="#DejaVuSans-30"/>
      </g>
     </g>
    </g>
    <g id="xtick_8">
     <g id="line2d_14">
      <g>
       <use xlink:href="#m4343b8446d" x="463.870731" y="333.490909" style="stroke: #000000; stroke-width: 0.8"/>
      </g>
     </g>
     <g id="text_14">
      <!-- 2000 -->
      <g transform="translate(451.145731 348.089347)scale(0.1 -0.1)">
       <use xlink:href="#DejaVuSans-32"/>
       <use xlink:href="#DejaVuSans-30" x="63.623047"/>
       <use xlink:href="#DejaVuSans-30" x="127.246094"/>
       <use xlink:href="#DejaVuSans-30" x="190.869141"/>
      </g>
     </g>
    </g>
    <g id="xtick_9">
     <g id="line2d_15">
      <g>
       <use xlink:href="#m4343b8446d" x="521.877904" y="333.490909" style="stroke: #000000; stroke-width: 0.8"/>
      </g>
     </g>
     <g id="text_15">
      <!-- 4000 -->
      <g transform="translate(509.152904 348.089347)scale(0.1 -0.1)">
       <use xlink:href="#DejaVuSans-34"/>
       <use xlink:href="#DejaVuSans-30" x="63.623047"/>
       <use xlink:href="#DejaVuSans-30" x="127.246094"/>
       <use xlink:href="#DejaVuSans-30" x="190.869141"/>
      </g>
     </g>
    </g>
    <g id="xtick_10">
     <g id="line2d_16">
      <g>
       <use xlink:href="#m4343b8446d" x="579.885077" y="333.490909" style="stroke: #000000; stroke-width: 0.8"/>
      </g>
     </g>
     <g id="text_16">
      <!-- 6000 -->
      <g transform="translate(567.160077 348.089347)scale(0.1 -0.1)">
       <use xlink:href="#DejaVuSans-36"/>
       <use xlink:href="#DejaVuSans-30" x="63.623047"/>
       <use xlink:href="#DejaVuSans-30" x="127.246094"/>
       <use xlink:href="#DejaVuSans-30" x="190.869141"/>
      </g>
     </g>
    </g>
    <g id="xtick_11">
     <g id="line2d_17">
      <g>
       <use xlink:href="#m4343b8446d" x="637.89225" y="333.490909" style="stroke: #000000; stroke-width: 0.8"/>
      </g>
     </g>
     <g id="text_17">
      <!-- 8000 -->
      <g transform="translate(625.16725 348.089347)scale(0.1 -0.1)">
       <use xlink:href="#DejaVuSans-38"/>
       <use xlink:href="#DejaVuSans-30" x="63.623047"/>
       <use xlink:href="#DejaVuSans-30" x="127.246094"/>
       <use xlink:href="#DejaVuSans-30" x="190.869141"/>
      </g>
     </g>
    </g>
   </g>
   <g id="matplotlib.axis_4">
    <g id="ytick_7">
     <g id="line2d_18">
      <g>
       <use xlink:href="#m03dc8529fd" x="394.363636" y="315.525198" style="stroke: #000000; stroke-width: 0.8"/>
      </g>
     </g>
     <g id="text_18">
      <!-- −0.075 -->
      <g transform="translate(350.355824 319.324417)scale(0.1 -0.1)">
       <defs>
        <path id="DejaVuSans-2212" d="M 678 2272 
L 4684 2272 
L 4684 1741 
L 678 1741 
L 678 2272 
z
" transform="scale(0.015625)"/>
        <path id="DejaVuSans-37" d="M 525 4666 
L 3525 4666 
L 3525 4397 
L 1831 0 
L 1172 0 
L 2766 4134 
L 525 4134 
L 525 4666 
z
" transform="scale(0.015625)"/>
        <path id="DejaVuSans-35" d="M 691 4666 
L 3169 4666 
L 3169 4134 
L 1269 4134 
L 1269 2991 
Q 1406 3038 1543 3061 
Q 1681 3084 1819 3084 
Q 2600 3084 3056 2656 
Q 3513 2228 3513 1497 
Q 3513 744 3044 326 
Q 2575 -91 1722 -91 
Q 1428 -91 1123 -41 
Q 819 9 494 109 
L 494 744 
Q 775 591 1075 516 
Q 1375 441 1709 441 
Q 2250 441 2565 725 
Q 2881 1009 2881 1497 
Q 2881 1984 2565 2268 
Q 2250 2553 1709 2553 
Q 1456 2553 1204 2497 
Q 953 2441 691 2322 
L 691 4666 
z
" transform="scale(0.015625)"/>
       </defs>
       <use xlink:href="#DejaVuSans-2212"/>
       <use xlink:href="#DejaVuSans-30" x="83.789062"/>
       <use xlink:href="#DejaVuSans-2e" x="147.412109"/>
       <use xlink:href="#DejaVuSans-30" x="179.199219"/>
       <use xlink:href="#DejaVuSans-37" x="242.822266"/>
       <use xlink:href="#DejaVuSans-35" x="306.445312"/>
      </g>
     </g>
    </g>
    <g id="ytick_8">
     <g id="line2d_19">
      <g>
       <use xlink:href="#m03dc8529fd" x="394.363636" y="282.931165" style="stroke: #000000; stroke-width: 0.8"/>
      </g>
     </g>
     <g id="text_19">
      <!-- −0.050 -->
      <g transform="translate(350.355824 286.730384)scale(0.1 -0.1)">
       <use xlink:href="#DejaVuSans-2212"/>
       <use xlink:href="#DejaVuSans-30" x="83.789062"/>
       <use xlink:href="#DejaVuSans-2e" x="147.412109"/>
       <use xlink:href="#DejaVuSans-30" x="179.199219"/>
       <use xlink:href="#DejaVuSans-35" x="242.822266"/>
       <use xlink:href="#DejaVuSans-30" x="306.445312"/>
      </g>
     </g>
    </g>
    <g id="ytick_9">
     <g id="line2d_20">
      <g>
       <use xlink:href="#m03dc8529fd" x="394.363636" y="250.337132" style="stroke: #000000; stroke-width: 0.8"/>
      </g>
     </g>
     <g id="text_20">
      <!-- −0.025 -->
      <g transform="translate(350.355824 254.136351)scale(0.1 -0.1)">
       <use xlink:href="#DejaVuSans-2212"/>
       <use xlink:href="#DejaVuSans-30" x="83.789062"/>
       <use xlink:href="#DejaVuSans-2e" x="147.412109"/>
       <use xlink:href="#DejaVuSans-30" x="179.199219"/>
       <use xlink:href="#DejaVuSans-32" x="242.822266"/>
       <use xlink:href="#DejaVuSans-35" x="306.445312"/>
      </g>
     </g>
    </g>
    <g id="ytick_10">
     <g id="line2d_21">
      <g>
       <use xlink:href="#m03dc8529fd" x="394.363636" y="217.743099" style="stroke: #000000; stroke-width: 0.8"/>
      </g>
     </g>
     <g id="text_21">
      <!-- 0.000 -->
      <g transform="translate(358.735511 221.542318)scale(0.1 -0.1)">
       <use xlink:href="#DejaVuSans-30"/>
       <use xlink:href="#DejaVuSans-2e" x="63.623047"/>
       <use xlink:href="#DejaVuSans-30" x="95.410156"/>
       <use xlink:href="#DejaVuSans-30" x="159.033203"/>
       <use xlink:href="#DejaVuSans-30" x="222.65625"/>
      </g>
     </g>
    </g>
    <g id="ytick_11">
     <g id="line2d_22">
      <g>
       <use xlink:href="#m03dc8529fd" x="394.363636" y="185.149066" style="stroke: #000000; stroke-width: 0.8"/>
      </g>
     </g>
     <g id="text_22">
      <!-- 0.025 -->
      <g transform="translate(358.735511 188.948285)scale(0.1 -0.1)">
       <use xlink:href="#DejaVuSans-30"/>
       <use xlink:href="#DejaVuSans-2e" x="63.623047"/>
       <use xlink:href="#DejaVuSans-30" x="95.410156"/>
       <use xlink:href="#DejaVuSans-32" x="159.033203"/>
       <use xlink:href="#DejaVuSans-35" x="222.65625"/>
      </g>
     </g>
    </g>
    <g id="ytick_12">
     <g id="line2d_23">
      <g>
       <use xlink:href="#m03dc8529fd" x="394.363636" y="152.555033" style="stroke: #000000; stroke-width: 0.8"/>
      </g>
     </g>
     <g id="text_23">
      <!-- 0.050 -->
      <g transform="translate(358.735511 156.354252)scale(0.1 -0.1)">
       <use xlink:href="#DejaVuSans-30"/>
       <use xlink:href="#DejaVuSans-2e" x="63.623047"/>
       <use xlink:href="#DejaVuSans-30" x="95.410156"/>
       <use xlink:href="#DejaVuSans-35" x="159.033203"/>
       <use xlink:href="#DejaVuSans-30" x="222.65625"/>
      </g>
     </g>
    </g>
    <g id="ytick_13">
     <g id="line2d_24">
      <g>
       <use xlink:href="#m03dc8529fd" x="394.363636" y="119.961" style="stroke: #000000; stroke-width: 0.8"/>
      </g>
     </g>
     <g id="text_24">
      <!-- 0.075 -->
      <g transform="translate(358.735511 123.760219)scale(0.1 -0.1)">
       <use xlink:href="#DejaVuSans-30"/>
       <use xlink:href="#DejaVuSans-2e" x="63.623047"/>
       <use xlink:href="#DejaVuSans-30" x="95.410156"/>
       <use xlink:href="#DejaVuSans-37" x="159.033203"/>
       <use xlink:href="#DejaVuSans-35" x="222.65625"/>
      </g>
     </g>
    </g>
    <g id="ytick_14">
     <g id="line2d_25">
      <g>
       <use xlink:href="#m03dc8529fd" x="394.363636" y="87.366967" style="stroke: #000000; stroke-width: 0.8"/>
      </g>
     </g>
     <g id="text_25">
      <!-- 0.100 -->
      <g transform="translate(358.735511 91.166186)scale(0.1 -0.1)">
       <use xlink:href="#DejaVuSans-30"/>
       <use xlink:href="#DejaVuSans-2e" x="63.623047"/>
       <use xlink:href="#DejaVuSans-31" x="95.410156"/>
       <use xlink:href="#DejaVuSans-30" x="159.033203"/>
       <use xlink:href="#DejaVuSans-30" x="222.65625"/>
      </g>
     </g>
    </g>
   </g>
   <g id="line2d_26">
    <path d="M 405.892562 165.66484 
L 407.342741 171.091915 
L 408.792921 181.134051 
L 410.2431 192.629331 
L 411.693279 201.098022 
L 413.143459 204.222545 
L 414.593638 203.470439 
L 416.043817 202.083016 
L 417.493997 201.882966 
L 418.944176 202.315502 
L 420.394355 202.313671 
L 421.844535 202.1956 
L 423.294714 203.222889 
L 424.744893 205.941721 
L 427.645252 213.09242 
L 429.095431 215.518816 
L 430.54561 216.784556 
L 431.99579 217.149202 
L 433.445969 216.902531 
L 436.346328 215.637129 
L 437.796507 215.283545 
L 440.696866 215.333514 
L 442.147045 214.858537 
L 443.597224 213.769263 
L 445.047404 212.534725 
L 446.497583 211.732849 
L 447.947762 211.433619 
L 450.848121 211.143328 
L 452.2983 211.497108 
L 453.74848 212.695604 
L 456.648838 216.150094 
L 458.099018 217.440798 
L 459.549197 218.361984 
L 460.999376 218.736915 
L 462.449556 217.577353 
L 463.899735 213.339359 
L 465.349914 205.357373 
L 466.800094 195.323505 
L 468.250273 186.835802 
L 469.700452 182.94783 
L 471.150632 184.284925 
L 472.600811 189.461514 
L 475.501169 203.319758 
L 476.951349 208.05301 
L 478.401528 209.198887 
L 479.851707 206.594674 
L 482.752066 196.714333 
L 484.202245 192.877799 
L 485.652425 190.244062 
L 487.102604 188.68791 
L 488.552783 188.463798 
L 490.002963 189.447951 
L 491.453142 190.752903 
L 492.903321 191.830875 
L 494.353501 193.403436 
L 497.253859 199.282517 
L 498.704039 199.2818 
L 500.154218 194.324926 
L 501.604397 186.138272 
L 503.054577 178.908534 
L 504.504756 175.581725 
L 505.954935 176.414204 
L 507.405115 180.763678 
L 508.855294 188.079731 
L 510.305473 196.64386 
L 511.755653 203.364039 
L 513.205832 205.955294 
L 514.656011 204.737539 
L 516.106191 202.049734 
L 517.55637 200.293538 
L 519.006549 200.604763 
L 520.456729 202.723712 
L 521.906908 205.393731 
L 523.357087 206.964208 
L 524.807266 206.431492 
L 527.707625 202.213299 
L 529.157804 201.09068 
L 530.607984 200.2727 
L 532.058163 198.229547 
L 533.508342 194.360162 
L 534.958522 189.913626 
L 536.408701 187.378084 
L 537.85888 188.868868 
L 539.30906 194.625169 
L 540.759239 203.039425 
L 543.659598 221.267814 
L 545.109777 229.086667 
L 546.559956 234.207493 
L 548.010136 235.807245 
L 549.460315 235.431865 
L 550.910494 236.224281 
L 552.360674 239.861699 
L 553.810853 244.620965 
L 555.261032 246.947732 
L 556.711212 244.802155 
L 558.161391 239.126979 
L 559.61157 232.468739 
L 561.06175 226.914313 
L 562.511929 223.287265 
L 563.962108 221.604888 
L 565.412288 221.930355 
L 566.862467 224.656287 
L 568.312646 229.755265 
L 569.762826 235.846202 
L 571.213005 240.871656 
L 572.663184 244.174062 
L 575.563543 249.564308 
L 577.013722 251.129791 
L 578.463901 251.007393 
L 579.914081 251.46375 
L 581.36426 256.379377 
L 582.814439 267.721753 
L 584.264619 282.891757 
L 585.714798 295.69532 
L 587.164977 301.028493 
L 588.615157 298.303943 
L 590.065336 289.64734 
L 591.515515 277.106189 
L 592.965695 263.367523 
L 594.415874 252.435481 
L 595.866053 246.664143 
L 597.316233 244.173216 
L 598.766412 241.014884 
L 600.216591 235.374104 
L 601.666771 228.650363 
L 603.11695 223.148627 
L 604.567129 219.876863 
L 606.017309 218.429117 
L 607.467488 217.987958 
L 608.917667 218.01091 
L 610.367847 218.2777 
L 613.268205 218.942029 
L 614.718385 218.822081 
L 616.168564 218.082364 
L 617.618743 216.619883 
L 619.068923 214.320007 
L 620.519102 211.128353 
L 621.969281 207.490696 
L 623.41946 204.547081 
L 624.86964 203.515195 
L 626.319819 204.791082 
L 627.769998 207.687862 
L 629.220178 210.89177 
L 630.670357 213.117265 
L 632.120536 213.622954 
L 633.570716 212.497083 
L 635.020895 210.6293 
L 636.471074 209.257184 
L 636.471074 209.257184 
" clip-path="url(#p1328533664)" style="fill: none; stroke: #9467bd; stroke-width: 2; stroke-linecap: square"/>
   </g>
   <g id="line2d_27">
    <path d="M 405.892562 217.743099 
L 471.150632 217.821018 
L 472.600811 218.051272 
L 474.05099 218.692337 
L 475.501169 220.020203 
L 478.401528 223.932908 
L 479.851707 224.757072 
L 481.301887 223.932908 
L 484.202245 220.020203 
L 485.652425 218.692337 
L 487.102604 218.051272 
L 488.552783 217.821018 
L 492.903321 217.743099 
L 545.109777 217.723607 
L 546.559956 217.615992 
L 548.010136 217.097596 
L 549.460315 215.190086 
L 550.910494 209.879264 
L 552.360674 198.87874 
L 555.261032 166.464453 
L 556.711212 159.63678 
L 558.161391 166.464453 
L 561.06175 198.87874 
L 562.511929 209.879264 
L 563.962108 215.190086 
L 565.412288 217.097596 
L 566.862467 217.615992 
L 569.762826 217.743099 
L 623.41946 217.641057 
L 624.86964 217.339512 
L 626.319819 216.499964 
L 627.769998 214.760973 
L 630.670357 209.633757 
L 632.120536 208.537409 
L 633.570716 209.534796 
L 635.020895 211.768166 
L 636.471074 213.517837 
L 636.471074 213.517837 
" clip-path="url(#p1328533664)" style="fill: none; stroke: #1f77b4; stroke-width: 2; stroke-linecap: square"/>
   </g>
   <g id="line2d_28">
    <path d="M 405.892562 236.126683 
L 407.342741 234.897065 
L 408.792921 235.415226 
L 410.2431 240.216936 
L 411.693279 247.880891 
L 413.143459 253.250522 
L 414.593638 251.817277 
L 416.043817 243.847217 
L 417.493997 233.839155 
L 418.944176 226.594362 
L 420.394355 224.704487 
L 421.844535 228.837788 
L 423.294714 238.133927 
L 424.744893 249.39811 
L 426.195073 257.624377 
L 427.645252 259.449729 
L 429.095431 255.927303 
L 430.54561 250.734118 
L 431.99579 246.298692 
L 434.896148 239.469436 
L 437.796507 232.39398 
L 439.246686 228.778676 
L 440.696866 225.718924 
L 442.147045 223.705432 
L 443.597224 223.108061 
L 445.047404 223.919005 
L 446.497583 225.328134 
L 447.947762 226.020148 
L 449.397942 225.438049 
L 450.848121 224.681158 
L 452.2983 225.881081 
L 453.74848 230.418102 
L 455.198659 237.254765 
L 456.648838 242.872871 
L 458.099018 243.630579 
L 459.549197 238.854026 
L 460.999376 231.328858 
L 462.449556 224.630802 
L 463.899735 220.48958 
L 465.349914 218.603212 
L 466.800094 217.954359 
L 468.250273 217.783747 
L 474.05099 217.743099 
L 490.002963 217.797953 
L 491.453142 218.021669 
L 492.903321 218.844862 
L 494.353501 221.136766 
L 495.80368 225.884083 
L 498.704039 239.878014 
L 500.154218 242.854483 
L 501.604397 240.052308 
L 503.054577 233.663267 
L 504.504756 228.073524 
L 505.954935 226.388962 
L 507.405115 228.657256 
L 508.855294 232.298618 
L 510.305473 233.975856 
L 511.755653 232.028461 
L 514.656011 222.995296 
L 516.106191 219.932541 
L 517.55637 218.453907 
L 519.006549 217.92282 
L 520.456729 217.778488 
L 526.257446 217.743099 
L 540.759239 217.666236 
L 542.209418 217.352757 
L 543.659598 216.199264 
L 545.109777 212.987751 
L 546.559956 206.335611 
L 549.460315 186.73433 
L 550.910494 182.605561 
L 552.360674 186.73433 
L 555.261032 206.330991 
L 556.711212 212.94661 
L 558.161391 215.974443 
L 559.61157 216.382863 
L 561.06175 214.35443 
L 562.511929 208.768497 
L 563.962108 198.468047 
L 566.862467 171.098028 
L 568.312646 162.143743 
L 569.762826 157.459181 
L 572.663184 150.132854 
L 574.113363 149.558108 
L 575.563543 153.434074 
L 577.013722 157.970044 
L 578.463901 157.143696 
L 579.914081 148.306871 
L 581.36426 135.510736 
L 582.814439 127.984051 
L 584.264619 133.052749 
L 585.714798 149.461536 
L 587.164977 169.353958 
L 588.615157 186.158491 
L 590.065336 198.327858 
L 591.515515 206.842926 
L 592.965695 212.466973 
L 594.415874 215.6396 
L 595.866053 217.045212 
L 597.316233 217.408632 
L 598.766412 217.042728 
L 600.216591 215.681262 
L 601.666771 212.809007 
L 604.567129 204.330847 
L 606.017309 202.545026 
L 607.467488 204.330847 
L 610.367847 212.809007 
L 611.818026 215.686264 
L 613.268205 217.075343 
L 614.718385 217.574264 
L 617.618743 217.738001 
L 636.471074 217.743099 
L 636.471074 217.743099 
" clip-path="url(#p1328533664)" style="fill: none; stroke: #d62728; stroke-width: 2; stroke-linecap: square"/>
   </g>
   <g id="line2d_29">
    <path d="M 405.892562 217.743099 
L 410.2431 217.659121 
L 411.693279 217.410958 
L 413.143459 216.720031 
L 414.593638 215.288885 
L 417.493997 211.071854 
L 418.944176 210.183588 
L 420.394355 211.071854 
L 423.294714 215.288885 
L 424.744893 216.720031 
L 426.195073 217.410958 
L 427.645252 217.659121 
L 430.54561 217.734442 
L 431.99579 217.703185 
L 433.445969 217.5404 
L 434.896148 216.941406 
L 436.346328 215.27371 
L 437.796507 211.819342 
L 440.696866 201.640656 
L 442.147045 199.496641 
L 443.597224 201.640656 
L 446.497583 211.819342 
L 447.947762 215.27371 
L 449.397942 216.941406 
L 450.848121 217.54896 
L 453.74848 218.020455 
L 455.198659 218.870779 
L 456.648838 221.238987 
L 458.099018 226.243008 
L 459.549197 234.07275 
L 460.999376 242.887866 
L 462.449556 249.558932 
L 463.899735 252.028803 
L 465.349914 250.340363 
L 466.800094 245.426963 
L 468.250273 238.316517 
L 469.700452 230.63064 
L 471.150632 224.324659 
L 472.600811 220.424351 
L 474.05099 218.604013 
L 475.501169 217.958608 
L 476.951349 217.785536 
L 482.752066 217.743099 
L 494.353501 217.787886 
L 495.80368 217.965764 
L 497.253859 218.599472 
L 498.704039 220.28487 
L 500.154218 223.533405 
L 501.604397 227.79566 
L 503.054577 230.761866 
L 504.504756 229.43387 
L 505.954935 222.315931 
L 507.405115 210.204164 
L 508.855294 195.509803 
L 510.305473 182.245057 
L 511.755653 175.59139 
L 513.205832 178.620732 
L 514.656011 189.104447 
L 516.106191 201.182452 
L 517.55637 210.173002 
L 519.006549 215.013859 
L 520.456729 217.00198 
L 523.357087 218.53703 
L 524.807266 220.282914 
L 526.257446 223.843298 
L 529.157804 234.325159 
L 530.607984 236.533034 
L 532.058163 234.325159 
L 534.958522 223.843298 
L 536.408701 220.286041 
L 537.85888 218.568672 
L 539.30906 217.951837 
L 540.759239 217.784202 
L 546.559956 217.743099 
L 550.910494 217.826183 
L 552.360674 218.076446 
L 553.810853 218.785559 
L 555.261032 220.304448 
L 558.161391 224.883948 
L 559.61157 225.004561 
L 561.06175 220.918074 
L 562.511929 212.477651 
L 563.962108 202.846805 
L 565.412288 196.993905 
L 566.862467 197.71895 
L 568.312646 203.357161 
L 569.762826 209.858254 
L 571.213005 214.412265 
L 572.663184 216.653117 
L 574.113363 217.466309 
L 575.563543 217.688232 
L 579.914081 217.743099 
L 582.814439 217.819362 
L 584.264619 218.145825 
L 585.714798 219.394194 
L 587.164977 223.08239 
L 588.615157 231.423548 
L 590.065336 245.674427 
L 591.515515 263.489417 
L 592.965695 278.27512 
L 594.415874 282.875727 
L 595.866053 275.088861 
L 598.766412 244.639319 
L 600.216591 236.828642 
L 601.666771 238.360958 
L 603.11695 247.384381 
L 606.017309 272.719862 
L 607.467488 282.082705 
L 608.917667 285.250899 
L 610.367847 280.541103 
L 613.268205 259.874501 
L 614.718385 255.410744 
L 616.168564 256.87789 
L 617.618743 259.762688 
L 619.068923 259.225115 
L 620.519102 253.392033 
L 623.41946 233.47447 
L 624.86964 225.511699 
L 626.319819 220.823678 
L 627.769998 218.713198 
L 629.220178 217.983502 
L 630.670357 217.789215 
L 636.471074 217.743099 
L 636.471074 217.743099 
" clip-path="url(#p1328533664)" style="fill: none; stroke: #ff7f0e; stroke-width: 2; stroke-linecap: square"/>
   </g>
   <g id="LineCollection_1">
    <path d="M 521.877904 286.953646 
L 521.877904 144.639234 
" clip-path="url(#p1328533664)" style="fill: none; stroke-dasharray: 7.4,3.2; stroke-dashoffset: 0; stroke: #000000; stroke-width: 2"/>
    <path d="M 536.379697 286.953646 
L 536.379697 144.639234 
" clip-path="url(#p1328533664)" style="fill: none; stroke-dasharray: 7.4,3.2; stroke-dashoffset: 0; stroke: #000000; stroke-width: 2"/>
    <path d="M 565.383284 286.953646 
L 565.383284 144.639234 
" clip-path="url(#p1328533664)" style="fill: none; stroke-dasharray: 7.4,3.2; stroke-dashoffset: 0; stroke: #000000; stroke-width: 2"/>
    <path d="M 623.390457 286.953646 
L 623.390457 144.639234 
" clip-path="url(#p1328533664)" style="fill: none; stroke-dasharray: 7.4,3.2; stroke-dashoffset: 0; stroke: #000000; stroke-width: 2"/>
   </g>
   <g id="patch_8">
    <path d="M 394.363636 333.490909 
L 394.363636 86.4 
" style="fill: none; stroke: #000000; stroke-width: 0.8; stroke-linejoin: miter; stroke-linecap: square"/>
   </g>
   <g id="patch_9">
    <path d="M 648 333.490909 
L 648 86.4 
" style="fill: none; stroke: #000000; stroke-width: 0.8; stroke-linejoin: miter; stroke-linecap: square"/>
   </g>
   <g id="patch_10">
    <path d="M 394.363636 333.490909 
L 648 333.490909 
" style="fill: none; stroke: #000000; stroke-width: 0.8; stroke-linejoin: miter; stroke-linecap: square"/>
   </g>
   <g id="patch_11">
    <path d="M 394.363636 86.4 
L 648 86.4 
" style="fill: none; stroke: #000000; stroke-width: 0.8; stroke-linejoin: miter; stroke-linecap: square"/>
   </g>
   <g id="text_26">
    <!-- unit_29 -->
    <g transform="translate(498.922756 80.4)scale(0.12 -0.12)">
     <defs>
      <path id="DejaVuSans-75" d="M 544 1381 
L 544 3500 
L 1119 3500 
L 1119 1403 
Q 1119 906 1312 657 
Q 1506 409 1894 409 
Q 2359 409 2629 706 
Q 2900 1003 2900 1516 
L 2900 3500 
L 3475 3500 
L 3475 0 
L 2900 0 
L 2900 538 
Q 2691 219 2414 64 
Q 2138 -91 1772 -91 
Q 1169 -91 856 284 
Q 544 659 544 1381 
z
M 1991 3584 
L 1991 3584 
z
" transform="scale(0.015625)"/>
      <path id="DejaVuSans-6e" d="M 3513 2113 
L 3513 0 
L 2938 0 
L 2938 2094 
Q 2938 2591 2744 2837 
Q 2550 3084 2163 3084 
Q 1697 3084 1428 2787 
Q 1159 2491 1159 1978 
L 1159 0 
L 581 0 
L 581 3500 
L 1159 3500 
L 1159 2956 
Q 1366 3272 1645 3428 
Q 1925 3584 2291 3584 
Q 2894 3584 3203 3211 
Q 3513 2838 3513 2113 
z
" transform="scale(0.015625)"/>
      <path id="DejaVuSans-69" d="M 603 3500 
L 1178 3500 
L 1178 0 
L 603 0 
L 603 3500 
z
M 603 4863 
L 1178 4863 
L 1178 4134 
L 603 4134 
L 603 4863 
z
" transform="scale(0.015625)"/>
      <path id="DejaVuSans-74" d="M 1172 4494 
L 1172 3500 
L 2356 3500 
L 2356 3053 
L 1172 3053 
L 1172 1153 
Q 1172 725 1289 603 
Q 1406 481 1766 481 
L 2356 481 
L 2356 0 
L 1766 0 
Q 1100 0 847 248 
Q 594 497 594 1153 
L 594 3053 
L 172 3053 
L 172 3500 
L 594 3500 
L 594 4494 
L 1172 4494 
z
" transform="scale(0.015625)"/>
      <path id="DejaVuSans-5f" d="M 3263 -1063 
L 3263 -1509 
L -63 -1509 
L -63 -1063 
L 3263 -1063 
z
" transform="scale(0.015625)"/>
      <path id="DejaVuSans-39" d="M 703 97 
L 703 672 
Q 941 559 1184 500 
Q 1428 441 1663 441 
Q 2288 441 2617 861 
Q 2947 1281 2994 2138 
Q 2813 1869 2534 1725 
Q 2256 1581 1919 1581 
Q 1219 1581 811 2004 
Q 403 2428 403 3163 
Q 403 3881 828 4315 
Q 1253 4750 1959 4750 
Q 2769 4750 3195 4129 
Q 3622 3509 3622 2328 
Q 3622 1225 3098 567 
Q 2575 -91 1691 -91 
Q 1453 -91 1209 -44 
Q 966 3 703 97 
z
M 1959 2075 
Q 2384 2075 2632 2365 
Q 2881 2656 2881 3163 
Q 2881 3666 2632 3958 
Q 2384 4250 1959 4250 
Q 1534 4250 1286 3958 
Q 1038 3666 1038 3163 
Q 1038 2656 1286 2365 
Q 1534 2075 1959 2075 
z
" transform="scale(0.015625)"/>
     </defs>
     <use xlink:href="#DejaVuSans-75"/>
     <use xlink:href="#DejaVuSans-6e" x="63.378906"/>
     <use xlink:href="#DejaVuSans-69" x="126.757812"/>
     <use xlink:href="#DejaVuSans-74" x="154.541016"/>
     <use xlink:href="#DejaVuSans-5f" x="193.75"/>
     <use xlink:href="#DejaVuSans-32" x="243.75"/>
     <use xlink:href="#DejaVuSans-39" x="307.373047"/>
    </g>
   </g>
  </g>
  <g id="axes_3">
   <g id="patch_12">
    <path d="M 90 630 
L 343.636364 630 
L 343.636364 382.909091 
L 90 382.909091 
z
" style="fill: #ffffff"/>
   </g>
   <g id="matplotlib.axis_5">
    <g id="xtick_12">
     <g id="line2d_30">
      <g>
       <use xlink:href="#m4343b8446d" x="90" y="630" style="stroke: #000000; stroke-width: 0.8"/>
      </g>
     </g>
     <g id="text_27">
      <!-- 0.0 -->
      <g transform="translate(82.048438 644.598437)scale(0.1 -0.1)">
       <use xlink:href="#DejaVuSans-30"/>
       <use xlink:href="#DejaVuSans-2e" x="63.623047"/>
       <use xlink:href="#DejaVuSans-30" x="95.410156"/>
      </g>
     </g>
    </g>
    <g id="xtick_13">
     <g id="line2d_31">
      <g>
       <use xlink:href="#m4343b8446d" x="140.727273" y="630" style="stroke: #000000; stroke-width: 0.8"/>
      </g>
     </g>
     <g id="text_28">
      <!-- 0.2 -->
      <g transform="translate(132.77571 644.598437)scale(0.1 -0.1)">
       <use xlink:href="#DejaVuSans-30"/>
       <use xlink:href="#DejaVuSans-2e" x="63.623047"/>
       <use xlink:href="#DejaVuSans-32" x="95.410156"/>
      </g>
     </g>
    </g>
    <g id="xtick_14">
     <g id="line2d_32">
      <g>
       <use xlink:href="#m4343b8446d" x="191.454545" y="630" style="stroke: #000000; stroke-width: 0.8"/>
      </g>
     </g>
     <g id="text_29">
      <!-- 0.4 -->
      <g transform="translate(183.502983 644.598437)scale(0.1 -0.1)">
       <use xlink:href="#DejaVuSans-30"/>
       <use xlink:href="#DejaVuSans-2e" x="63.623047"/>
       <use xlink:href="#DejaVuSans-34" x="95.410156"/>
      </g>
     </g>
    </g>
    <g id="xtick_15">
     <g id="line2d_33">
      <g>
       <use xlink:href="#m4343b8446d" x="242.181818" y="630" style="stroke: #000000; stroke-width: 0.8"/>
      </g>
     </g>
     <g id="text_30">
      <!-- 0.6 -->
      <g transform="translate(234.230256 644.598437)scale(0.1 -0.1)">
       <use xlink:href="#DejaVuSans-30"/>
       <use xlink:href="#DejaVuSans-2e" x="63.623047"/>
       <use xlink:href="#DejaVuSans-36" x="95.410156"/>
      </g>
     </g>
    </g>
    <g id="xtick_16">
     <g id="line2d_34">
      <g>
       <use xlink:href="#m4343b8446d" x="292.909091" y="630" style="stroke: #000000; stroke-width: 0.8"/>
      </g>
     </g>
     <g id="text_31">
      <!-- 0.8 -->
      <g transform="translate(284.957528 644.598437)scale(0.1 -0.1)">
       <use xlink:href="#DejaVuSans-30"/>
       <use xlink:href="#DejaVuSans-2e" x="63.623047"/>
       <use xlink:href="#DejaVuSans-38" x="95.410156"/>
      </g>
     </g>
    </g>
    <g id="xtick_17">
     <g id="line2d_35">
      <g>
       <use xlink:href="#m4343b8446d" x="343.636364" y="630" style="stroke: #000000; stroke-width: 0.8"/>
      </g>
     </g>
     <g id="text_32">
      <!-- 1.0 -->
      <g transform="translate(335.684801 644.598437)scale(0.1 -0.1)">
       <use xlink:href="#DejaVuSans-31"/>
       <use xlink:href="#DejaVuSans-2e" x="63.623047"/>
       <use xlink:href="#DejaVuSans-30" x="95.410156"/>
      </g>
     </g>
    </g>
   </g>
   <g id="matplotlib.axis_6">
    <g id="ytick_15">
     <g id="line2d_36">
      <g>
       <use xlink:href="#m03dc8529fd" x="90" y="630" style="stroke: #000000; stroke-width: 0.8"/>
      </g>
     </g>
     <g id="text_33">
      <!-- 0.0 -->
      <g transform="translate(67.096875 633.799219)scale(0.1 -0.1)">
       <use xlink:href="#DejaVuSans-30"/>
       <use xlink:href="#DejaVuSans-2e" x="63.623047"/>
       <use xlink:href="#DejaVuSans-30" x="95.410156"/>
      </g>
     </g>
    </g>
    <g id="ytick_16">
     <g id="line2d_37">
      <g>
       <use xlink:href="#m03dc8529fd" x="90" y="580.581818" style="stroke: #000000; stroke-width: 0.8"/>
      </g>
     </g>
     <g id="text_34">
      <!-- 0.2 -->
      <g transform="translate(67.096875 584.381037)scale(0.1 -0.1)">
       <use xlink:href="#DejaVuSans-30"/>
       <use xlink:href="#DejaVuSans-2e" x="63.623047"/>
       <use xlink:href="#DejaVuSans-32" x="95.410156"/>
      </g>
     </g>
    </g>
    <g id="ytick_17">
     <g id="line2d_38">
      <g>
       <use xlink:href="#m03dc8529fd" x="90" y="531.163636" style="stroke: #000000; stroke-width: 0.8"/>
      </g>
     </g>
     <g id="text_35">
      <!-- 0.4 -->
      <g transform="translate(67.096875 534.962855)scale(0.1 -0.1)">
       <use xlink:href="#DejaVuSans-30"/>
       <use xlink:href="#DejaVuSans-2e" x="63.623047"/>
       <use xlink:href="#DejaVuSans-34" x="95.410156"/>
      </g>
     </g>
    </g>
    <g id="ytick_18">
     <g id="line2d_39">
      <g>
       <use xlink:href="#m03dc8529fd" x="90" y="481.745455" style="stroke: #000000; stroke-width: 0.8"/>
      </g>
     </g>
     <g id="text_36">
      <!-- 0.6 -->
      <g transform="translate(67.096875 485.544673)scale(0.1 -0.1)">
       <use xlink:href="#DejaVuSans-30"/>
       <use xlink:href="#DejaVuSans-2e" x="63.623047"/>
       <use xlink:href="#DejaVuSans-36" x="95.410156"/>
      </g>
     </g>
    </g>
    <g id="ytick_19">
     <g id="line2d_40">
      <g>
       <use xlink:href="#m03dc8529fd" x="90" y="432.327273" style="stroke: #000000; stroke-width: 0.8"/>
      </g>
     </g>
     <g id="text_37">
      <!-- 0.8 -->
      <g transform="translate(67.096875 436.126491)scale(0.1 -0.1)">
       <use xlink:href="#DejaVuSans-30"/>
       <use xlink:href="#DejaVuSans-2e" x="63.623047"/>
       <use xlink:href="#DejaVuSans-38" x="95.410156"/>
      </g>
     </g>
    </g>
    <g id="ytick_20">
     <g id="line2d_41">
      <g>
       <use xlink:href="#m03dc8529fd" x="90" y="382.909091" style="stroke: #000000; stroke-width: 0.8"/>
      </g>
     </g>
     <g id="text_38">
      <!-- 1.0 -->
      <g transform="translate(67.096875 386.70831)scale(0.1 -0.1)">
       <use xlink:href="#DejaVuSans-31"/>
       <use xlink:href="#DejaVuSans-2e" x="63.623047"/>
       <use xlink:href="#DejaVuSans-30" x="95.410156"/>
      </g>
     </g>
    </g>
   </g>
   <g id="patch_13">
    <path d="M 90 630 
L 90 382.909091 
" style="fill: none; stroke: #000000; stroke-width: 0.8; stroke-linejoin: miter; stroke-linecap: square"/>
   </g>
   <g id="patch_14">
    <path d="M 343.636364 630 
L 343.636364 382.909091 
" style="fill: none; stroke: #000000; stroke-width: 0.8; stroke-linejoin: miter; stroke-linecap: square"/>
   </g>
   <g id="patch_15">
    <path d="M 90 630 
L 343.636364 630 
" style="fill: none; stroke: #000000; stroke-width: 0.8; stroke-linejoin: miter; stroke-linecap: square"/>
   </g>
   <g id="patch_16">
    <path d="M 90 382.909091 
L 343.636364 382.909091 
" style="fill: none; stroke: #000000; stroke-width: 0.8; stroke-linejoin: miter; stroke-linecap: square"/>
   </g>
  </g>
  <g id="axes_4">
   <g id="patch_17">
    <path d="M 394.363636 630 
L 648 630 
L 648 382.909091 
L 394.363636 382.909091 
z
" style="fill: #ffffff"/>
   </g>
   <g id="matplotlib.axis_7">
    <g id="xtick_18">
     <g id="line2d_42">
      <g>
       <use xlink:href="#m4343b8446d" x="405.863558" y="630" style="stroke: #000000; stroke-width: 0.8"/>
      </g>
     </g>
     <g id="text_39">
      <!-- 0 -->
      <g transform="translate(402.682308 644.598437)scale(0.1 -0.1)">
       <use xlink:href="#DejaVuSans-30"/>
      </g>
     </g>
    </g>
    <g id="xtick_19">
     <g id="line2d_43">
      <g>
       <use xlink:href="#m4343b8446d" x="463.870731" y="630" style="stroke: #000000; stroke-width: 0.8"/>
      </g>
     </g>
     <g id="text_40">
      <!-- 2000 -->
      <g transform="translate(451.145731 644.598437)scale(0.1 -0.1)">
       <use xlink:href="#DejaVuSans-32"/>
       <use xlink:href="#DejaVuSans-30" x="63.623047"/>
       <use xlink:href="#DejaVuSans-30" x="127.246094"/>
       <use xlink:href="#DejaVuSans-30" x="190.869141"/>
      </g>
     </g>
    </g>
    <g id="xtick_20">
     <g id="line2d_44">
      <g>
       <use xlink:href="#m4343b8446d" x="521.877904" y="630" style="stroke: #000000; stroke-width: 0.8"/>
      </g>
     </g>
     <g id="text_41">
      <!-- 4000 -->
      <g transform="translate(509.152904 644.598437)scale(0.1 -0.1)">
       <use xlink:href="#DejaVuSans-34"/>
       <use xlink:href="#DejaVuSans-30" x="63.623047"/>
       <use xlink:href="#DejaVuSans-30" x="127.246094"/>
       <use xlink:href="#DejaVuSans-30" x="190.869141"/>
      </g>
     </g>
    </g>
    <g id="xtick_21">
     <g id="line2d_45">
      <g>
       <use xlink:href="#m4343b8446d" x="579.885077" y="630" style="stroke: #000000; stroke-width: 0.8"/>
      </g>
     </g>
     <g id="text_42">
      <!-- 6000 -->
      <g transform="translate(567.160077 644.598437)scale(0.1 -0.1)">
       <use xlink:href="#DejaVuSans-36"/>
       <use xlink:href="#DejaVuSans-30" x="63.623047"/>
       <use xlink:href="#DejaVuSans-30" x="127.246094"/>
       <use xlink:href="#DejaVuSans-30" x="190.869141"/>
      </g>
     </g>
    </g>
    <g id="xtick_22">
     <g id="line2d_46">
      <g>
       <use xlink:href="#m4343b8446d" x="637.89225" y="630" style="stroke: #000000; stroke-width: 0.8"/>
      </g>
     </g>
     <g id="text_43">
      <!-- 8000 -->
      <g transform="translate(625.16725 644.598437)scale(0.1 -0.1)">
       <use xlink:href="#DejaVuSans-38"/>
       <use xlink:href="#DejaVuSans-30" x="63.623047"/>
       <use xlink:href="#DejaVuSans-30" x="127.246094"/>
       <use xlink:href="#DejaVuSans-30" x="190.869141"/>
      </g>
     </g>
    </g>
   </g>
   <g id="matplotlib.axis_8">
    <g id="ytick_21">
     <g id="line2d_47">
      <g>
       <use xlink:href="#m03dc8529fd" x="394.363636" y="630" style="stroke: #000000; stroke-width: 0.8"/>
      </g>
     </g>
     <g id="text_44">
      <!-- −2 -->
      <g transform="translate(372.621449 633.799219)scale(0.1 -0.1)">
       <use xlink:href="#DejaVuSans-2212"/>
       <use xlink:href="#DejaVuSans-32" x="83.789062"/>
      </g>
     </g>
    </g>
    <g id="ytick_22">
     <g id="line2d_48">
      <g>
       <use xlink:href="#m03dc8529fd" x="394.363636" y="595.301731" style="stroke: #000000; stroke-width: 0.8"/>
      </g>
     </g>
     <g id="text_45">
      <!-- −1 -->
      <g transform="translate(372.621449 599.10095)scale(0.1 -0.1)">
       <use xlink:href="#DejaVuSans-2212"/>
       <use xlink:href="#DejaVuSans-31" x="83.789062"/>
      </g>
     </g>
    </g>
    <g id="ytick_23">
     <g id="line2d_49">
      <g>
       <use xlink:href="#m03dc8529fd" x="394.363636" y="560.603463" style="stroke: #000000; stroke-width: 0.8"/>
      </g>
     </g>
     <g id="text_46">
      <!-- 0 -->
      <g transform="translate(381.001136 564.402681)scale(0.1 -0.1)">
       <use xlink:href="#DejaVuSans-30"/>
      </g>
     </g>
    </g>
    <g id="ytick_24">
     <g id="line2d_50">
      <g>
       <use xlink:href="#m03dc8529fd" x="394.363636" y="525.905194" style="stroke: #000000; stroke-width: 0.8"/>
      </g>
     </g>
     <g id="text_47">
      <!-- 1 -->
      <g transform="translate(381.001136 529.704413)scale(0.1 -0.1)">
       <use xlink:href="#DejaVuSans-31"/>
      </g>
     </g>
    </g>
    <g id="ytick_25">
     <g id="line2d_51">
      <g>
       <use xlink:href="#m03dc8529fd" x="394.363636" y="491.206925" style="stroke: #000000; stroke-width: 0.8"/>
      </g>
     </g>
     <g id="text_48">
      <!-- 2 -->
      <g transform="translate(381.001136 495.006144)scale(0.1 -0.1)">
       <use xlink:href="#DejaVuSans-32"/>
      </g>
     </g>
    </g>
    <g id="ytick_26">
     <g id="line2d_52">
      <g>
       <use xlink:href="#m03dc8529fd" x="394.363636" y="456.508657" style="stroke: #000000; stroke-width: 0.8"/>
      </g>
     </g>
     <g id="text_49">
      <!-- 3 -->
      <g transform="translate(381.001136 460.307875)scale(0.1 -0.1)">
       <defs>
        <path id="DejaVuSans-33" d="M 2597 2516 
Q 3050 2419 3304 2112 
Q 3559 1806 3559 1356 
Q 3559 666 3084 287 
Q 2609 -91 1734 -91 
Q 1441 -91 1130 -33 
Q 819 25 488 141 
L 488 750 
Q 750 597 1062 519 
Q 1375 441 1716 441 
Q 2309 441 2620 675 
Q 2931 909 2931 1356 
Q 2931 1769 2642 2001 
Q 2353 2234 1838 2234 
L 1294 2234 
L 1294 2753 
L 1863 2753 
Q 2328 2753 2575 2939 
Q 2822 3125 2822 3475 
Q 2822 3834 2567 4026 
Q 2313 4219 1838 4219 
Q 1578 4219 1281 4162 
Q 984 4106 628 3988 
L 628 4550 
Q 988 4650 1302 4700 
Q 1616 4750 1894 4750 
Q 2613 4750 3031 4423 
Q 3450 4097 3450 3541 
Q 3450 3153 3228 2886 
Q 3006 2619 2597 2516 
z
" transform="scale(0.015625)"/>
       </defs>
       <use xlink:href="#DejaVuSans-33"/>
      </g>
     </g>
    </g>
    <g id="ytick_27">
     <g id="line2d_53">
      <g>
       <use xlink:href="#m03dc8529fd" x="394.363636" y="421.810388" style="stroke: #000000; stroke-width: 0.8"/>
      </g>
     </g>
     <g id="text_50">
      <!-- 4 -->
      <g transform="translate(381.001136 425.609607)scale(0.1 -0.1)">
       <use xlink:href="#DejaVuSans-34"/>
      </g>
     </g>
    </g>
    <g id="ytick_28">
     <g id="line2d_54">
      <g>
       <use xlink:href="#m03dc8529fd" x="394.363636" y="387.112119" style="stroke: #000000; stroke-width: 0.8"/>
      </g>
     </g>
     <g id="text_51">
      <!-- 5 -->
      <g transform="translate(381.001136 390.911338)scale(0.1 -0.1)">
       <use xlink:href="#DejaVuSans-35"/>
      </g>
     </g>
    </g>
   </g>
   <g id="line2d_55">
    <path d="M 405.892562 517.644729 
L 407.342741 510.610756 
L 408.792921 540.59975 
L 410.2431 561.756715 
L 411.693279 563.400635 
L 413.143459 573.864196 
L 414.593638 591.088911 
L 416.043817 590.1196 
L 417.493997 578.829362 
L 418.944176 568.777214 
L 420.394355 543.089888 
L 421.844535 526.1187 
L 423.294714 557.295434 
L 424.744893 580.025489 
L 426.195073 566.070047 
L 427.645252 571.201642 
L 429.095431 580.926153 
L 431.99579 627.095497 
L 433.445969 599.67483 
L 434.896148 565.547686 
L 436.346328 559.669608 
L 437.796507 567.206996 
L 439.246686 564.951739 
L 440.696866 563.077308 
L 442.147045 569.304221 
L 443.597224 569.641788 
L 445.047404 568.309029 
L 446.497583 569.781086 
L 447.947762 570.063575 
L 450.848121 563.936637 
L 452.2983 561.237394 
L 453.74848 556.009552 
L 455.198659 532.444315 
L 456.648838 477.813792 
L 458.099018 449.876188 
L 459.549197 495.198929 
L 460.999376 529.990621 
L 462.449556 538.165144 
L 463.899735 552.719725 
L 465.349914 523.963415 
L 466.800094 459.67531 
L 468.250273 451.2744 
L 469.700452 515.742338 
L 471.150632 571.131005 
L 472.600811 594.785357 
L 474.05099 600.996076 
L 476.951349 565.57861 
L 478.401528 560.657339 
L 479.851707 553.16773 
L 481.301887 526.603421 
L 482.752066 505.641764 
L 484.202245 528.427951 
L 485.652425 538.207009 
L 487.102604 525.501332 
L 488.552783 546.664708 
L 490.002963 572.423035 
L 491.453142 583.366948 
L 492.903321 575.429854 
L 494.353501 551.211255 
L 495.80368 545.660745 
L 497.253859 554.415478 
L 498.704039 557.78585 
L 500.154218 551.370983 
L 501.604397 521.59674 
L 503.054577 471.580611 
L 504.504756 466.829618 
L 505.954935 502.101291 
L 507.405115 512.392199 
L 508.855294 519.806152 
L 511.755653 415.830059 
L 513.205832 482.155201 
L 514.656011 563.379954 
L 516.106191 599.083801 
L 517.55637 605.743717 
L 519.006549 605.489439 
L 520.456729 602.888442 
L 521.906908 582.708585 
L 523.357087 566.433115 
L 524.807266 567.929512 
L 526.257446 581.953118 
L 529.157804 619.245883 
L 530.607984 629.31534 
L 532.058163 619.076883 
L 533.508342 621.821638 
L 534.958522 628.30703 
L 536.408701 624.271885 
L 537.85888 610.342642 
L 539.30906 591.147182 
L 540.759239 586.492686 
L 542.209418 585.548546 
L 543.659598 576.271695 
L 545.109777 575.529741 
L 546.559956 588.469832 
L 548.010136 588.587527 
L 549.460315 558.971554 
L 550.910494 535.061763 
L 552.360674 550.069195 
L 553.810853 585.544188 
L 555.261032 606.209586 
L 556.711212 592.241048 
L 558.161391 571.727562 
L 559.61157 556.686565 
L 561.06175 559.696272 
L 562.511929 580.042938 
L 563.962108 633.696373 
L 565.412288 679.137093 
L 566.862467 639.973755 
L 568.312646 587.863327 
L 571.213005 558.965362 
L 572.663184 520.26306 
L 574.113363 496.943895 
L 575.563543 506.942549 
L 577.013722 510.966174 
L 578.463901 546.463412 
L 579.914081 589.413315 
L 581.36426 556.592018 
L 582.814439 444.395099 
L 584.264619 382.909091 
L 585.714798 412.914263 
L 587.164977 500.161654 
L 588.615157 544.098578 
L 590.065336 546.988124 
L 591.515515 540.653825 
L 592.965695 527.364454 
L 594.415874 552.755394 
L 595.866053 584.176489 
L 597.316233 581.080477 
L 598.766412 578.668066 
L 600.216591 573.030356 
L 601.666771 565.185139 
L 603.11695 570.714257 
L 606.017309 624.004992 
L 607.467488 601.603147 
L 608.917667 534.999452 
L 610.367847 490.122295 
L 611.818026 517.02544 
L 613.268205 553.350432 
L 614.718385 568.118839 
L 616.168564 610.03624 
L 617.618743 661.354318 
L 619.068923 627.836529 
L 620.519102 575.985217 
L 621.969281 564.528444 
L 623.41946 568.800498 
L 624.86964 588.658465 
L 626.319819 611.070746 
L 627.769998 599.843795 
L 629.220178 576.206971 
L 630.670357 567.843669 
L 632.120536 573.234626 
L 633.570716 585.450846 
L 635.020895 592.011951 
L 636.471074 591.837048 
L 636.471074 591.837048 
" clip-path="url(#pf619eb9e18)" style="fill: none; stroke: #1f77b4; stroke-width: 1.5; stroke-linecap: square"/>
   </g>
   <g id="patch_18">
    <path d="M 394.363636 630 
L 394.363636 382.909091 
" style="fill: none; stroke: #000000; stroke-width: 0.8; stroke-linejoin: miter; stroke-linecap: square"/>
   </g>
   <g id="patch_19">
    <path d="M 648 630 
L 648 382.909091 
" style="fill: none; stroke: #000000; stroke-width: 0.8; stroke-linejoin: miter; stroke-linecap: square"/>
   </g>
   <g id="patch_20">
    <path d="M 394.363636 630 
L 648 630 
" style="fill: none; stroke: #000000; stroke-width: 0.8; stroke-linejoin: miter; stroke-linecap: square"/>
   </g>
   <g id="patch_21">
    <path d="M 394.363636 382.909091 
L 648 382.909091 
" style="fill: none; stroke: #000000; stroke-width: 0.8; stroke-linejoin: miter; stroke-linecap: square"/>
   </g>
   <g id="text_52">
    <!-- explained variance -->
    <g transform="translate(464.181818 376.909091)scale(0.12 -0.12)">
     <defs>
      <path id="DejaVuSans-65" d="M 3597 1894 
L 3597 1613 
L 953 1613 
Q 991 1019 1311 708 
Q 1631 397 2203 397 
Q 2534 397 2845 478 
Q 3156 559 3463 722 
L 3463 178 
Q 3153 47 2828 -22 
Q 2503 -91 2169 -91 
Q 1331 -91 842 396 
Q 353 884 353 1716 
Q 353 2575 817 3079 
Q 1281 3584 2069 3584 
Q 2775 3584 3186 3129 
Q 3597 2675 3597 1894 
z
M 3022 2063 
Q 3016 2534 2758 2815 
Q 2500 3097 2075 3097 
Q 1594 3097 1305 2825 
Q 1016 2553 972 2059 
L 3022 2063 
z
" transform="scale(0.015625)"/>
      <path id="DejaVuSans-78" d="M 3513 3500 
L 2247 1797 
L 3578 0 
L 2900 0 
L 1881 1375 
L 863 0 
L 184 0 
L 1544 1831 
L 300 3500 
L 978 3500 
L 1906 2253 
L 2834 3500 
L 3513 3500 
z
" transform="scale(0.015625)"/>
      <path id="DejaVuSans-70" d="M 1159 525 
L 1159 -1331 
L 581 -1331 
L 581 3500 
L 1159 3500 
L 1159 2969 
Q 1341 3281 1617 3432 
Q 1894 3584 2278 3584 
Q 2916 3584 3314 3078 
Q 3713 2572 3713 1747 
Q 3713 922 3314 415 
Q 2916 -91 2278 -91 
Q 1894 -91 1617 61 
Q 1341 213 1159 525 
z
M 3116 1747 
Q 3116 2381 2855 2742 
Q 2594 3103 2138 3103 
Q 1681 3103 1420 2742 
Q 1159 2381 1159 1747 
Q 1159 1113 1420 752 
Q 1681 391 2138 391 
Q 2594 391 2855 752 
Q 3116 1113 3116 1747 
z
" transform="scale(0.015625)"/>
      <path id="DejaVuSans-6c" d="M 603 4863 
L 1178 4863 
L 1178 0 
L 603 0 
L 603 4863 
z
" transform="scale(0.015625)"/>
      <path id="DejaVuSans-61" d="M 2194 1759 
Q 1497 1759 1228 1600 
Q 959 1441 959 1056 
Q 959 750 1161 570 
Q 1363 391 1709 391 
Q 2188 391 2477 730 
Q 2766 1069 2766 1631 
L 2766 1759 
L 2194 1759 
z
M 3341 1997 
L 3341 0 
L 2766 0 
L 2766 531 
Q 2569 213 2275 61 
Q 1981 -91 1556 -91 
Q 1019 -91 701 211 
Q 384 513 384 1019 
Q 384 1609 779 1909 
Q 1175 2209 1959 2209 
L 2766 2209 
L 2766 2266 
Q 2766 2663 2505 2880 
Q 2244 3097 1772 3097 
Q 1472 3097 1187 3025 
Q 903 2953 641 2809 
L 641 3341 
Q 956 3463 1253 3523 
Q 1550 3584 1831 3584 
Q 2591 3584 2966 3190 
Q 3341 2797 3341 1997 
z
" transform="scale(0.015625)"/>
      <path id="DejaVuSans-64" d="M 2906 2969 
L 2906 4863 
L 3481 4863 
L 3481 0 
L 2906 0 
L 2906 525 
Q 2725 213 2448 61 
Q 2172 -91 1784 -91 
Q 1150 -91 751 415 
Q 353 922 353 1747 
Q 353 2572 751 3078 
Q 1150 3584 1784 3584 
Q 2172 3584 2448 3432 
Q 2725 3281 2906 2969 
z
M 947 1747 
Q 947 1113 1208 752 
Q 1469 391 1925 391 
Q 2381 391 2643 752 
Q 2906 1113 2906 1747 
Q 2906 2381 2643 2742 
Q 2381 3103 1925 3103 
Q 1469 3103 1208 2742 
Q 947 2381 947 1747 
z
" transform="scale(0.015625)"/>
      <path id="DejaVuSans-20" transform="scale(0.015625)"/>
      <path id="DejaVuSans-76" d="M 191 3500 
L 800 3500 
L 1894 563 
L 2988 3500 
L 3597 3500 
L 2284 0 
L 1503 0 
L 191 3500 
z
" transform="scale(0.015625)"/>
      <path id="DejaVuSans-72" d="M 2631 2963 
Q 2534 3019 2420 3045 
Q 2306 3072 2169 3072 
Q 1681 3072 1420 2755 
Q 1159 2438 1159 1844 
L 1159 0 
L 581 0 
L 581 3500 
L 1159 3500 
L 1159 2956 
Q 1341 3275 1631 3429 
Q 1922 3584 2338 3584 
Q 2397 3584 2469 3576 
Q 2541 3569 2628 3553 
L 2631 2963 
z
" transform="scale(0.015625)"/>
      <path id="DejaVuSans-63" d="M 3122 3366 
L 3122 2828 
Q 2878 2963 2633 3030 
Q 2388 3097 2138 3097 
Q 1578 3097 1268 2742 
Q 959 2388 959 1747 
Q 959 1106 1268 751 
Q 1578 397 2138 397 
Q 2388 397 2633 464 
Q 2878 531 3122 666 
L 3122 134 
Q 2881 22 2623 -34 
Q 2366 -91 2075 -91 
Q 1284 -91 818 406 
Q 353 903 353 1747 
Q 353 2603 823 3093 
Q 1294 3584 2113 3584 
Q 2378 3584 2631 3529 
Q 2884 3475 3122 3366 
z
" transform="scale(0.015625)"/>
     </defs>
     <use xlink:href="#DejaVuSans-65"/>
     <use xlink:href="#DejaVuSans-78" x="59.773438"/>
     <use xlink:href="#DejaVuSans-70" x="118.953125"/>
     <use xlink:href="#DejaVuSans-6c" x="182.429688"/>
     <use xlink:href="#DejaVuSans-61" x="210.212891"/>
     <use xlink:href="#DejaVuSans-69" x="271.492188"/>
     <use xlink:href="#DejaVuSans-6e" x="299.275391"/>
     <use xlink:href="#DejaVuSans-65" x="362.654297"/>
     <use xlink:href="#DejaVuSans-64" x="424.177734"/>
     <use xlink:href="#DejaVuSans-20" x="487.654297"/>
     <use xlink:href="#DejaVuSans-76" x="519.441406"/>
     <use xlink:href="#DejaVuSans-61" x="578.621094"/>
     <use xlink:href="#DejaVuSans-72" x="639.900391"/>
     <use xlink:href="#DejaVuSans-69" x="681.013672"/>
     <use xlink:href="#DejaVuSans-61" x="708.796875"/>
     <use xlink:href="#DejaVuSans-6e" x="770.076172"/>
     <use xlink:href="#DejaVuSans-63" x="833.455078"/>
     <use xlink:href="#DejaVuSans-65" x="888.435547"/>
    </g>
   </g>
  </g>
 </g>
 <defs>
  <clipPath id="p1328533664">
   <rect x="394.363636" y="86.4" width="253.636364" height="247.090909"/>
  </clipPath>
  <clipPath id="pf619eb9e18">
   <rect x="394.363636" y="382.909091" width="253.636364" height="247.090909"/>
  </clipPath>
 </defs>
</svg>
