<?xml version="1.0" encoding="utf-8" standalone="no"?>
<!DOCTYPE svg PUBLIC "-//W3C//DTD SVG 1.1//EN"
  "http://www.w3.org/Graphics/SVG/1.1/DTD/svg11.dtd">
<svg xmlns:xlink="http://www.w3.org/1999/xlink" width="720pt" height="720pt" viewBox="0 0 720 720" xmlns="http://www.w3.org/2000/svg" version="1.1">
 <metadata>
  <rdf:RDF xmlns:dc="http://purl.org/dc/elements/1.1/" xmlns:cc="http://creativecommons.org/ns#" xmlns:rdf="http://www.w3.org/1999/02/22-rdf-syntax-ns#">
   <cc:Work>
    <dc:type rdf:resource="http://purl.org/dc/dcmitype/StillImage"/>
    <dc:date>2023-12-19T18:15:15.038131</dc:date>
    <dc:format>image/svg+xml</dc:format>
    <dc:creator>
     <cc:Agent>
      <dc:title>Matplotlib v3.5.2, https://matplotlib.org/</dc:title>
     </cc:Agent>
    </dc:creator>
   </cc:Work>
  </rdf:RDF>
 </metadata>
 <defs>
  <style type="text/css">*{stroke-linejoin: round; stroke-linecap: butt}</style>
 </defs>
 <g id="figure_1">
  <g id="patch_1">
   <path d="M 0 720 
L 720 720 
L 720 0 
L 0 0 
z
" style="fill: #ffffff"/>
  </g>
  <g id="axes_1">
   <g id="patch_2">
    <path d="M 90 333.490909 
L 343.636364 333.490909 
L 343.636364 86.4 
L 90 86.4 
z
" style="fill: #ffffff"/>
   </g>
   <g id="matplotlib.axis_1">
    <g id="xtick_1">
     <g id="line2d_1">
      <defs>
       <path id="ma01281ad2e" d="M 0 0 
L 0 3.5 
" style="stroke: #000000; stroke-width: 0.8"/>
      </defs>
      <g>
       <use xlink:href="#ma01281ad2e" x="90" y="333.490909" style="stroke: #000000; stroke-width: 0.8"/>
      </g>
     </g>
     <g id="text_1">
      <!-- 0.0 -->
      <g transform="translate(82.048438 348.089347)scale(0.1 -0.1)">
       <defs>
        <path id="DejaVuSans-30" d="M 2034 4250 
Q 1547 4250 1301 3770 
Q 1056 3291 1056 2328 
Q 1056 1369 1301 889 
Q 1547 409 2034 409 
Q 2525 409 2770 889 
Q 3016 1369 3016 2328 
Q 3016 3291 2770 3770 
Q 2525 4250 2034 4250 
z
M 2034 4750 
Q 2819 4750 3233 4129 
Q 3647 3509 3647 2328 
Q 3647 1150 3233 529 
Q 2819 -91 2034 -91 
Q 1250 -91 836 529 
Q 422 1150 422 2328 
Q 422 3509 836 4129 
Q 1250 4750 2034 4750 
z
" transform="scale(0.015625)"/>
        <path id="DejaVuSans-2e" d="M 684 794 
L 1344 794 
L 1344 0 
L 684 0 
L 684 794 
z
" transform="scale(0.015625)"/>
       </defs>
       <use xlink:href="#DejaVuSans-30"/>
       <use xlink:href="#DejaVuSans-2e" x="63.623047"/>
       <use xlink:href="#DejaVuSans-30" x="95.410156"/>
      </g>
     </g>
    </g>
    <g id="xtick_2">
     <g id="line2d_2">
      <g>
       <use xlink:href="#ma01281ad2e" x="140.727273" y="333.490909" style="stroke: #000000; stroke-width: 0.8"/>
      </g>
     </g>
     <g id="text_2">
      <!-- 0.2 -->
      <g transform="translate(132.77571 348.089347)scale(0.1 -0.1)">
       <defs>
        <path id="DejaVuSans-32" d="M 1228 531 
L 3431 531 
L 3431 0 
L 469 0 
L 469 531 
Q 828 903 1448 1529 
Q 2069 2156 2228 2338 
Q 2531 2678 2651 2914 
Q 2772 3150 2772 3378 
Q 2772 3750 2511 3984 
Q 2250 4219 1831 4219 
Q 1534 4219 1204 4116 
Q 875 4013 500 3803 
L 500 4441 
Q 881 4594 1212 4672 
Q 1544 4750 1819 4750 
Q 2544 4750 2975 4387 
Q 3406 4025 3406 3419 
Q 3406 3131 3298 2873 
Q 3191 2616 2906 2266 
Q 2828 2175 2409 1742 
Q 1991 1309 1228 531 
z
" transform="scale(0.015625)"/>
       </defs>
       <use xlink:href="#DejaVuSans-30"/>
       <use xlink:href="#DejaVuSans-2e" x="63.623047"/>
       <use xlink:href="#DejaVuSans-32" x="95.410156"/>
      </g>
     </g>
    </g>
    <g id="xtick_3">
     <g id="line2d_3">
      <g>
       <use xlink:href="#ma01281ad2e" x="191.454545" y="333.490909" style="stroke: #000000; stroke-width: 0.8"/>
      </g>
     </g>
     <g id="text_3">
      <!-- 0.4 -->
      <g transform="translate(183.502983 348.089347)scale(0.1 -0.1)">
       <defs>
        <path id="DejaVuSans-34" d="M 2419 4116 
L 825 1625 
L 2419 1625 
L 2419 4116 
z
M 2253 4666 
L 3047 4666 
L 3047 1625 
L 3713 1625 
L 3713 1100 
L 3047 1100 
L 3047 0 
L 2419 0 
L 2419 1100 
L 313 1100 
L 313 1709 
L 2253 4666 
z
" transform="scale(0.015625)"/>
       </defs>
       <use xlink:href="#DejaVuSans-30"/>
       <use xlink:href="#DejaVuSans-2e" x="63.623047"/>
       <use xlink:href="#DejaVuSans-34" x="95.410156"/>
      </g>
     </g>
    </g>
    <g id="xtick_4">
     <g id="line2d_4">
      <g>
       <use xlink:href="#ma01281ad2e" x="242.181818" y="333.490909" style="stroke: #000000; stroke-width: 0.8"/>
      </g>
     </g>
     <g id="text_4">
      <!-- 0.6 -->
      <g transform="translate(234.230256 348.089347)scale(0.1 -0.1)">
       <defs>
        <path id="DejaVuSans-36" d="M 2113 2584 
Q 1688 2584 1439 2293 
Q 1191 2003 1191 1497 
Q 1191 994 1439 701 
Q 1688 409 2113 409 
Q 2538 409 2786 701 
Q 3034 994 3034 1497 
Q 3034 2003 2786 2293 
Q 2538 2584 2113 2584 
z
M 3366 4563 
L 3366 3988 
Q 3128 4100 2886 4159 
Q 2644 4219 2406 4219 
Q 1781 4219 1451 3797 
Q 1122 3375 1075 2522 
Q 1259 2794 1537 2939 
Q 1816 3084 2150 3084 
Q 2853 3084 3261 2657 
Q 3669 2231 3669 1497 
Q 3669 778 3244 343 
Q 2819 -91 2113 -91 
Q 1303 -91 875 529 
Q 447 1150 447 2328 
Q 447 3434 972 4092 
Q 1497 4750 2381 4750 
Q 2619 4750 2861 4703 
Q 3103 4656 3366 4563 
z
" transform="scale(0.015625)"/>
       </defs>
       <use xlink:href="#DejaVuSans-30"/>
       <use xlink:href="#DejaVuSans-2e" x="63.623047"/>
       <use xlink:href="#DejaVuSans-36" x="95.410156"/>
      </g>
     </g>
    </g>
    <g id="xtick_5">
     <g id="line2d_5">
      <g>
       <use xlink:href="#ma01281ad2e" x="292.909091" y="333.490909" style="stroke: #000000; stroke-width: 0.8"/>
      </g>
     </g>
     <g id="text_5">
      <!-- 0.8 -->
      <g transform="translate(284.957528 348.089347)scale(0.1 -0.1)">
       <defs>
        <path id="DejaVuSans-38" d="M 2034 2216 
Q 1584 2216 1326 1975 
Q 1069 1734 1069 1313 
Q 1069 891 1326 650 
Q 1584 409 2034 409 
Q 2484 409 2743 651 
Q 3003 894 3003 1313 
Q 3003 1734 2745 1975 
Q 2488 2216 2034 2216 
z
M 1403 2484 
Q 997 2584 770 2862 
Q 544 3141 544 3541 
Q 544 4100 942 4425 
Q 1341 4750 2034 4750 
Q 2731 4750 3128 4425 
Q 3525 4100 3525 3541 
Q 3525 3141 3298 2862 
Q 3072 2584 2669 2484 
Q 3125 2378 3379 2068 
Q 3634 1759 3634 1313 
Q 3634 634 3220 271 
Q 2806 -91 2034 -91 
Q 1263 -91 848 271 
Q 434 634 434 1313 
Q 434 1759 690 2068 
Q 947 2378 1403 2484 
z
M 1172 3481 
Q 1172 3119 1398 2916 
Q 1625 2713 2034 2713 
Q 2441 2713 2670 2916 
Q 2900 3119 2900 3481 
Q 2900 3844 2670 4047 
Q 2441 4250 2034 4250 
Q 1625 4250 1398 4047 
Q 1172 3844 1172 3481 
z
" transform="scale(0.015625)"/>
       </defs>
       <use xlink:href="#DejaVuSans-30"/>
       <use xlink:href="#DejaVuSans-2e" x="63.623047"/>
       <use xlink:href="#DejaVuSans-38" x="95.410156"/>
      </g>
     </g>
    </g>
    <g id="xtick_6">
     <g id="line2d_6">
      <g>
       <use xlink:href="#ma01281ad2e" x="343.636364" y="333.490909" style="stroke: #000000; stroke-width: 0.8"/>
      </g>
     </g>
     <g id="text_6">
      <!-- 1.0 -->
      <g transform="translate(335.684801 348.089347)scale(0.1 -0.1)">
       <defs>
        <path id="DejaVuSans-31" d="M 794 531 
L 1825 531 
L 1825 4091 
L 703 3866 
L 703 4441 
L 1819 4666 
L 2450 4666 
L 2450 531 
L 3481 531 
L 3481 0 
L 794 0 
L 794 531 
z
" transform="scale(0.015625)"/>
       </defs>
       <use xlink:href="#DejaVuSans-31"/>
       <use xlink:href="#DejaVuSans-2e" x="63.623047"/>
       <use xlink:href="#DejaVuSans-30" x="95.410156"/>
      </g>
     </g>
    </g>
   </g>
   <g id="matplotlib.axis_2">
    <g id="ytick_1">
     <g id="line2d_7">
      <defs>
       <path id="m7aa3078022" d="M 0 0 
L -3.5 0 
" style="stroke: #000000; stroke-width: 0.8"/>
      </defs>
      <g>
       <use xlink:href="#m7aa3078022" x="90" y="333.490909" style="stroke: #000000; stroke-width: 0.8"/>
      </g>
     </g>
     <g id="text_7">
      <!-- 0.0 -->
      <g transform="translate(67.096875 337.290128)scale(0.1 -0.1)">
       <use xlink:href="#DejaVuSans-30"/>
       <use xlink:href="#DejaVuSans-2e" x="63.623047"/>
       <use xlink:href="#DejaVuSans-30" x="95.410156"/>
      </g>
     </g>
    </g>
    <g id="ytick_2">
     <g id="line2d_8">
      <g>
       <use xlink:href="#m7aa3078022" x="90" y="284.072727" style="stroke: #000000; stroke-width: 0.8"/>
      </g>
     </g>
     <g id="text_8">
      <!-- 0.2 -->
      <g transform="translate(67.096875 287.871946)scale(0.1 -0.1)">
       <use xlink:href="#DejaVuSans-30"/>
       <use xlink:href="#DejaVuSans-2e" x="63.623047"/>
       <use xlink:href="#DejaVuSans-32" x="95.410156"/>
      </g>
     </g>
    </g>
    <g id="ytick_3">
     <g id="line2d_9">
      <g>
       <use xlink:href="#m7aa3078022" x="90" y="234.654545" style="stroke: #000000; stroke-width: 0.8"/>
      </g>
     </g>
     <g id="text_9">
      <!-- 0.4 -->
      <g transform="translate(67.096875 238.453764)scale(0.1 -0.1)">
       <use xlink:href="#DejaVuSans-30"/>
       <use xlink:href="#DejaVuSans-2e" x="63.623047"/>
       <use xlink:href="#DejaVuSans-34" x="95.410156"/>
      </g>
     </g>
    </g>
    <g id="ytick_4">
     <g id="line2d_10">
      <g>
       <use xlink:href="#m7aa3078022" x="90" y="185.236364" style="stroke: #000000; stroke-width: 0.8"/>
      </g>
     </g>
     <g id="text_10">
      <!-- 0.6 -->
      <g transform="translate(67.096875 189.035582)scale(0.1 -0.1)">
       <use xlink:href="#DejaVuSans-30"/>
       <use xlink:href="#DejaVuSans-2e" x="63.623047"/>
       <use xlink:href="#DejaVuSans-36" x="95.410156"/>
      </g>
     </g>
    </g>
    <g id="ytick_5">
     <g id="line2d_11">
      <g>
       <use xlink:href="#m7aa3078022" x="90" y="135.818182" style="stroke: #000000; stroke-width: 0.8"/>
      </g>
     </g>
     <g id="text_11">
      <!-- 0.8 -->
      <g transform="translate(67.096875 139.617401)scale(0.1 -0.1)">
       <use xlink:href="#DejaVuSans-30"/>
       <use xlink:href="#DejaVuSans-2e" x="63.623047"/>
       <use xlink:href="#DejaVuSans-38" x="95.410156"/>
      </g>
     </g>
    </g>
    <g id="ytick_6">
     <g id="line2d_12">
      <g>
       <use xlink:href="#m7aa3078022" x="90" y="86.4" style="stroke: #000000; stroke-width: 0.8"/>
      </g>
     </g>
     <g id="text_12">
      <!-- 1.0 -->
      <g transform="translate(67.096875 90.199219)scale(0.1 -0.1)">
       <use xlink:href="#DejaVuSans-31"/>
       <use xlink:href="#DejaVuSans-2e" x="63.623047"/>
       <use xlink:href="#DejaVuSans-30" x="95.410156"/>
      </g>
     </g>
    </g>
   </g>
   <g id="patch_3">
    <path d="M 90 333.490909 
L 90 86.4 
" style="fill: none; stroke: #000000; stroke-width: 0.8; stroke-linejoin: miter; stroke-linecap: square"/>
   </g>
   <g id="patch_4">
    <path d="M 343.636364 333.490909 
L 343.636364 86.4 
" style="fill: none; stroke: #000000; stroke-width: 0.8; stroke-linejoin: miter; stroke-linecap: square"/>
   </g>
   <g id="patch_5">
    <path d="M 90 333.490909 
L 343.636364 333.490909 
" style="fill: none; stroke: #000000; stroke-width: 0.8; stroke-linejoin: miter; stroke-linecap: square"/>
   </g>
   <g id="patch_6">
    <path d="M 90 86.4 
L 343.636364 86.4 
" style="fill: none; stroke: #000000; stroke-width: 0.8; stroke-linejoin: miter; stroke-linecap: square"/>
   </g>
  </g>
  <g id="axes_2">
   <g id="patch_7">
    <path d="M 394.363636 333.490909 
L 648 333.490909 
L 648 86.4 
L 394.363636 86.4 
z
" style="fill: #ffffff"/>
   </g>
   <g id="PolyCollection_1">
    <defs>
     <path id="m2f53934b3b" d="M 405.892562 -493.963357 
L 405.892562 -493.963357 
L 407.342741 -493.963357 
L 408.792921 -493.963357 
L 410.2431 -493.963357 
L 411.693279 -493.963357 
L 413.143459 -493.963357 
L 414.593638 -493.963357 
L 416.043817 -493.963357 
L 417.493997 -493.963357 
L 418.944176 -493.963357 
L 420.394355 -493.963357 
L 421.844535 -493.963357 
L 423.294714 -493.963357 
L 424.744893 -493.958841 
L 426.195073 -493.929896 
L 427.645252 -493.787642 
L 429.095431 -493.239006 
L 430.54561 -491.610123 
L 431.99579 -487.930765 
L 433.445969 -481.682465 
L 434.896148 -473.85363 
L 436.346328 -453.99241 
L 437.796507 -451.042193 
L 439.246686 -457.071533 
L 440.696866 -450.771014 
L 442.147045 -431.068991 
L 443.597224 -423.143208 
L 445.047404 -417.47165 
L 446.497583 -414.246341 
L 447.947762 -407.495779 
L 449.397942 -404.790614 
L 450.848121 -405.532489 
L 452.2983 -413.846899 
L 453.74848 -429.057534 
L 455.198659 -455.360862 
L 456.648838 -472.164011 
L 458.099018 -483.356048 
L 459.549197 -488.190241 
L 460.999376 -487.858449 
L 462.449556 -484.344501 
L 463.899735 -480.295702 
L 465.349914 -472.129894 
L 466.800094 -480.343238 
L 468.250273 -484.602395 
L 469.700452 -488.952795 
L 471.150632 -491.874644 
L 472.600811 -493.287661 
L 474.05099 -493.809517 
L 475.501169 -494.021778 
L 476.951349 -494.336685 
L 478.401528 -495.185514 
L 479.851707 -497.069792 
L 481.301887 -500.19941 
L 482.752066 -503.898301 
L 484.202245 -494.864959 
L 485.652425 -498.317864 
L 487.102604 -505.536592 
L 488.552783 -502.957865 
L 490.002963 -492.759152 
L 491.453142 -498.272496 
L 492.903321 -496.509875 
L 494.353501 -495.229122 
L 495.80368 -494.473025 
L 497.253859 -494.125917 
L 498.704039 -494.003978 
L 500.154218 -493.971356 
L 501.604397 -493.964584 
L 503.054577 -493.963357 
L 504.504756 -493.963357 
L 505.954935 -493.963357 
L 507.405115 -493.963357 
L 508.855294 -493.963357 
L 510.305473 -493.963357 
L 511.755653 -493.963357 
L 513.205832 -493.963357 
L 514.656011 -493.963357 
L 516.106191 -493.963357 
L 517.55637 -493.963357 
L 519.006549 -493.963357 
L 520.456729 -493.963357 
L 521.906908 -493.958081 
L 523.357087 -493.921992 
L 524.807266 -493.737872 
L 526.257446 -493.006748 
L 527.707625 -490.745015 
L 529.157804 -485.344559 
L 530.607984 -475.517493 
L 532.058163 -462.293293 
L 533.508342 -438.291818 
L 534.958522 -435.599009 
L 536.408701 -440.498219 
L 537.85888 -461.616086 
L 539.30906 -473.797225 
L 540.759239 -481.46698 
L 542.209418 -483.618098 
L 543.659598 -482.677904 
L 545.109777 -464.477449 
L 546.559956 -483.545981 
L 548.010136 -486.55864 
L 549.460315 -488.893699 
L 550.910494 -488.246806 
L 552.360674 -482.887794 
L 553.810853 -472.556569 
L 555.261032 -460.08748 
L 556.711212 -441.131999 
L 558.161391 -439.97669 
L 559.61157 -459.797151 
L 561.06175 -470.523514 
L 562.511929 -477.207103 
L 563.962108 -477.697917 
L 565.412288 -474.73681 
L 566.862467 -459.2355 
L 568.312646 -474.384713 
L 569.762826 -477.705654 
L 571.213005 -479.846899 
L 572.663184 -479.662717 
L 574.113363 -470.9705 
L 575.563543 -475.472959 
L 577.013722 -471.162742 
L 578.463901 -465.211215 
L 579.914081 -453.412752 
L 581.36426 -451.290716 
L 582.814439 -460.303674 
L 584.264619 -459.400355 
L 585.714798 -453.006438 
L 587.164977 -434.397758 
L 588.615157 -425.986646 
L 590.065336 -426.170957 
L 591.515515 -429.589861 
L 592.965695 -436.319635 
L 594.415874 -444.021978 
L 595.866053 -449.147831 
L 597.316233 -450.970496 
L 598.766412 -457.975465 
L 600.216591 -473.620781 
L 601.666771 -480.502937 
L 603.11695 -484.167724 
L 604.567129 -484.039012 
L 606.017309 -482.025023 
L 607.467488 -470.126118 
L 608.917667 -482.660627 
L 610.367847 -486.21184 
L 611.818026 -489.816498 
L 613.268205 -492.234689 
L 614.718385 -493.40214 
L 616.168564 -493.821459 
L 617.618743 -493.931311 
L 619.068923 -493.926593 
L 620.519102 -493.790176 
L 621.969281 -493.236563 
L 623.41946 -491.551547 
L 624.86964 -487.630991 
L 626.319819 -480.719416 
L 627.769998 -471.612555 
L 629.220178 -448.618843 
L 630.670357 -438.503044 
L 632.120536 -449.157128 
L 633.570716 -441.146046 
L 635.020895 -417.562403 
L 636.471074 -413.674783 
L 636.471074 -436.991168 
L 636.471074 -436.991168 
L 635.020895 -446.236282 
L 633.570716 -441.146046 
L 632.120536 -449.157128 
L 630.670357 -472.619651 
L 629.220178 -476.724309 
L 627.769998 -471.612555 
L 626.319819 -480.719416 
L 624.86964 -487.630991 
L 623.41946 -491.551547 
L 621.969281 -493.236563 
L 620.519102 -493.790176 
L 619.068923 -493.926593 
L 617.618743 -493.931311 
L 616.168564 -493.821459 
L 614.718385 -493.40214 
L 613.268205 -492.234689 
L 611.818026 -489.816498 
L 610.367847 -486.21184 
L 608.917667 -482.660627 
L 607.467488 -491.932526 
L 606.017309 -482.025023 
L 604.567129 -484.039012 
L 603.11695 -484.167724 
L 601.666771 -480.502937 
L 600.216591 -473.620781 
L 598.766412 -474.111534 
L 597.316233 -468.946684 
L 595.866053 -461.277864 
L 594.415874 -455.691756 
L 592.965695 -449.254358 
L 591.515515 -441.640572 
L 590.065336 -437.615143 
L 588.615157 -442.96068 
L 587.164977 -451.46437 
L 585.714798 -453.006438 
L 584.264619 -459.400355 
L 582.814439 -460.303674 
L 581.36426 -466.747321 
L 579.914081 -467.113356 
L 578.463901 -465.211215 
L 577.013722 -471.162742 
L 575.563543 -475.472959 
L 574.113363 -485.109388 
L 572.663184 -479.662717 
L 571.213005 -479.846899 
L 569.762826 -477.705654 
L 568.312646 -474.384713 
L 566.862467 -486.51599 
L 565.412288 -474.73681 
L 563.962108 -477.697917 
L 562.511929 -477.207103 
L 561.06175 -470.523514 
L 559.61157 -459.797151 
L 558.161391 -462.886266 
L 556.711212 -461.601236 
L 555.261032 -460.08748 
L 553.810853 -472.556569 
L 552.360674 -482.887794 
L 550.910494 -488.246806 
L 549.460315 -488.893699 
L 548.010136 -486.55864 
L 546.559956 -483.545981 
L 545.109777 -499.595682 
L 543.659598 -482.677904 
L 542.209418 -483.618098 
L 540.759239 -481.46698 
L 539.30906 -473.797225 
L 537.85888 -461.616086 
L 536.408701 -459.413407 
L 534.958522 -454.727525 
L 533.508342 -462.102447 
L 532.058163 -462.293293 
L 530.607984 -475.517493 
L 529.157804 -485.344559 
L 527.707625 -490.745015 
L 526.257446 -493.006748 
L 524.807266 -493.737872 
L 523.357087 -493.921992 
L 521.906908 -493.958081 
L 520.456729 -493.963357 
L 519.006549 -493.963357 
L 517.55637 -493.963357 
L 516.106191 -493.963357 
L 514.656011 -493.963357 
L 513.205832 -493.963357 
L 511.755653 -493.963357 
L 510.305473 -493.963357 
L 508.855294 -493.963357 
L 507.405115 -493.963357 
L 505.954935 -493.963357 
L 504.504756 -493.963357 
L 503.054577 -493.963357 
L 501.604397 -493.964584 
L 500.154218 -493.971356 
L 498.704039 -494.003978 
L 497.253859 -494.125917 
L 495.80368 -494.473025 
L 494.353501 -495.229122 
L 492.903321 -496.509875 
L 491.453142 -498.272496 
L 490.002963 -508.102911 
L 488.552783 -502.957865 
L 487.102604 -505.536592 
L 485.652425 -515.989357 
L 484.202245 -518.414464 
L 482.752066 -503.898301 
L 481.301887 -500.19941 
L 479.851707 -497.069792 
L 478.401528 -495.185514 
L 476.951349 -494.336685 
L 475.501169 -494.021778 
L 474.05099 -493.809517 
L 472.600811 -493.287661 
L 471.150632 -491.874644 
L 469.700452 -488.952795 
L 468.250273 -484.602395 
L 466.800094 -480.343238 
L 465.349914 -484.917172 
L 463.899735 -480.295702 
L 462.449556 -484.344501 
L 460.999376 -487.858449 
L 459.549197 -488.190241 
L 458.099018 -483.356048 
L 456.648838 -472.164011 
L 455.198659 -455.360862 
L 453.74848 -444.302044 
L 452.2983 -429.212483 
L 450.848121 -421.898039 
L 449.397942 -421.737393 
L 447.947762 -426.945477 
L 446.497583 -430.571133 
L 445.047404 -438.053549 
L 443.597224 -445.355776 
L 442.147045 -453.82526 
L 440.696866 -450.771014 
L 439.246686 -457.071533 
L 437.796507 -472.117271 
L 436.346328 -479.4348 
L 434.896148 -473.85363 
L 433.445969 -481.682465 
L 431.99579 -487.930765 
L 430.54561 -491.610123 
L 429.095431 -493.239006 
L 427.645252 -493.787642 
L 426.195073 -493.929896 
L 424.744893 -493.958841 
L 423.294714 -493.963357 
L 421.844535 -493.963357 
L 420.394355 -493.963357 
L 418.944176 -493.963357 
L 417.493997 -493.963357 
L 416.043817 -493.963357 
L 414.593638 -493.963357 
L 413.143459 -493.963357 
L 411.693279 -493.963357 
L 410.2431 -493.963357 
L 408.792921 -493.963357 
L 407.342741 -493.963357 
L 405.892562 -493.963357 
z
" style="stroke: #9467bd; stroke-opacity: 0.2"/>
    </defs>
    <g clip-path="url(#p53bfd44cbd)">
     <use xlink:href="#m2f53934b3b" x="0" y="720" style="fill: #9467bd; fill-opacity: 0.2; stroke: #9467bd; stroke-opacity: 0.2"/>
    </g>
   </g>
   <g id="PolyCollection_2">
    <defs>
     <path id="m53a2997342" d="M 405.892562 -493.963357 
L 405.892562 -493.963357 
L 407.342741 -493.960758 
L 408.792921 -493.94641 
L 410.2431 -493.877292 
L 411.693279 -493.622964 
L 413.143459 -492.914874 
L 414.593638 -491.444616 
L 416.043817 -489.237517 
L 417.493997 -486.984696 
L 418.944176 -475.979128 
L 420.394355 -485.212162 
L 421.844535 -484.346728 
L 423.294714 -481.483125 
L 424.744893 -476.974344 
L 426.195073 -466.203604 
L 427.645252 -464.210779 
L 429.095431 -479.348584 
L 430.54561 -487.371151 
L 431.99579 -495.452436 
L 433.445969 -501.432536 
L 434.896148 -488.837386 
L 436.346328 -503.310602 
L 437.796507 -500.541865 
L 439.246686 -496.846305 
L 440.696866 -495.558926 
L 442.147045 -494.538125 
L 443.597224 -494.139525 
L 445.047404 -494.013628 
L 446.497583 -493.992596 
L 447.947762 -494.04273 
L 449.397942 -494.236143 
L 450.848121 -494.751264 
L 452.2983 -495.849228 
L 453.74848 -497.700362 
L 455.198659 -492.447482 
L 456.648838 -502.037142 
L 458.099018 -497.817532 
L 459.549197 -501.252743 
L 460.999376 -498.772001 
L 462.449556 -496.164417 
L 463.899735 -493.781239 
L 465.349914 -491.079778 
L 466.800094 -487.393706 
L 468.250273 -482.905117 
L 469.700452 -473.739388 
L 471.150632 -470.958616 
L 472.600811 -473.049067 
L 474.05099 -474.38948 
L 475.501169 -478.290851 
L 476.951349 -483.608822 
L 478.401528 -485.014008 
L 479.851707 -486.280934 
L 481.301887 -494.735564 
L 482.752066 -499.036555 
L 484.202245 -506.463245 
L 485.652425 -517.034032 
L 487.102604 -521.008323 
L 488.552783 -533.905908 
L 490.002963 -553.345607 
L 491.453142 -548.1757 
L 492.903321 -550.910355 
L 494.353501 -546.213025 
L 495.80368 -539.26632 
L 497.253859 -525.334348 
L 498.704039 -519.813208 
L 500.154218 -518.440822 
L 501.604397 -517.313799 
L 503.054577 -516.569961 
L 504.504756 -522.97714 
L 505.954935 -525.836591 
L 507.405115 -534.663679 
L 508.855294 -533.646749 
L 510.305473 -527.007512 
L 511.755653 -521.87503 
L 513.205832 -522.961539 
L 514.656011 -510.876596 
L 516.106191 -495.833557 
L 517.55637 -491.894692 
L 519.006549 -494.97151 
L 520.456729 -493.003722 
L 521.906908 -490.632934 
L 523.357087 -484.495322 
L 524.807266 -480.76234 
L 526.257446 -480.946003 
L 527.707625 -487.776078 
L 529.157804 -495.822349 
L 530.607984 -484.287897 
L 532.058163 -499.459501 
L 533.508342 -497.35389 
L 534.958522 -494.231067 
L 536.408701 -491.75268 
L 537.85888 -486.102036 
L 539.30906 -487.618911 
L 540.759239 -498.145132 
L 542.209418 -503.996635 
L 543.659598 -513.164543 
L 545.109777 -536.182944 
L 546.559956 -538.039228 
L 548.010136 -552.673644 
L 549.460315 -562.034918 
L 550.910494 -575.673102 
L 552.360674 -578.014888 
L 553.810853 -563.610247 
L 555.261032 -560.322574 
L 556.711212 -574.581429 
L 558.161391 -569.400951 
L 559.61157 -543.736953 
L 561.06175 -542.737607 
L 562.511929 -528.469832 
L 563.962108 -523.703699 
L 565.412288 -509.129881 
L 566.862467 -500.227255 
L 568.312646 -496.093303 
L 569.762826 -494.764015 
L 571.213005 -495.049339 
L 572.663184 -496.987873 
L 574.113363 -501.327199 
L 575.563543 -508.347973 
L 577.013722 -516.960417 
L 578.463901 -515.380951 
L 579.914081 -532.803859 
L 581.36426 -539.002946 
L 582.814439 -533.121138 
L 584.264619 -528.531722 
L 585.714798 -522.743844 
L 587.164977 -519.188691 
L 588.615157 -507.833411 
L 590.065336 -500.139958 
L 591.515515 -496.12626 
L 592.965695 -494.354026 
L 594.415874 -493.326628 
L 595.866053 -492.077424 
L 597.316233 -490.307984 
L 598.766412 -488.440604 
L 600.216591 -482.356921 
L 601.666771 -486.699656 
L 603.11695 -486.404363 
L 604.567129 -491.242503 
L 606.017309 -488.698905 
L 607.467488 -495.645782 
L 608.917667 -496.763524 
L 610.367847 -481.366744 
L 611.818026 -492.038604 
L 613.268205 -486.475368 
L 614.718385 -472.368591 
L 616.168564 -471.576192 
L 617.618743 -472.52783 
L 619.068923 -484.004658 
L 620.519102 -488.11556 
L 621.969281 -491.203235 
L 623.41946 -492.916885 
L 624.86964 -493.632921 
L 626.319819 -493.833292 
L 627.769998 -493.806684 
L 629.220178 -493.66995 
L 630.670357 -493.492605 
L 632.120536 -480.941459 
L 633.570716 -483.888693 
L 635.020895 -493.421826 
L 636.471074 -493.508114 
L 636.471074 -493.508114 
L 636.471074 -493.508114 
L 635.020895 -493.421826 
L 633.570716 -502.792461 
L 632.120536 -505.777911 
L 630.670357 -493.492605 
L 629.220178 -493.66995 
L 627.769998 -493.806684 
L 626.319819 -493.833292 
L 624.86964 -493.632921 
L 623.41946 -492.916885 
L 621.969281 -491.203235 
L 620.519102 -488.11556 
L 619.068923 -484.004658 
L 617.618743 -488.12842 
L 616.168564 -486.579098 
L 614.718385 -490.399452 
L 613.268205 -486.475368 
L 611.818026 -492.038604 
L 610.367847 -510.168874 
L 608.917667 -496.763524 
L 607.467488 -495.645782 
L 606.017309 -498.406001 
L 604.567129 -491.242503 
L 603.11695 -491.797896 
L 601.666771 -488.51301 
L 600.216591 -492.3232 
L 598.766412 -488.440604 
L 597.316233 -490.307984 
L 595.866053 -492.077424 
L 594.415874 -493.326628 
L 592.965695 -494.354026 
L 591.515515 -496.12626 
L 590.065336 -500.139958 
L 588.615157 -507.833411 
L 587.164977 -519.188691 
L 585.714798 -540.195895 
L 584.264619 -551.837093 
L 582.814439 -551.694562 
L 581.36426 -539.002946 
L 579.914081 -532.803859 
L 578.463901 -535.406671 
L 577.013722 -516.960417 
L 575.563543 -508.347973 
L 574.113363 -501.327199 
L 572.663184 -496.987873 
L 571.213005 -495.049339 
L 569.762826 -494.764015 
L 568.312646 -496.093303 
L 566.862467 -500.227255 
L 565.412288 -509.129881 
L 563.962108 -523.703699 
L 562.511929 -554.413485 
L 561.06175 -570.665896 
L 559.61157 -587.00253 
L 558.161391 -569.400951 
L 556.711212 -574.581429 
L 555.261032 -606.700239 
L 553.810853 -622.368595 
L 552.360674 -618.190115 
L 550.910494 -616.511506 
L 549.460315 -610.945623 
L 548.010136 -588.896423 
L 546.559956 -567.27531 
L 545.109777 -536.182944 
L 543.659598 -532.669168 
L 542.209418 -519.72505 
L 540.759239 -506.351504 
L 539.30906 -502.48663 
L 537.85888 -497.056003 
L 536.408701 -491.75268 
L 534.958522 -494.231067 
L 533.508342 -497.35389 
L 532.058163 -499.459501 
L 530.607984 -513.853298 
L 529.157804 -495.822349 
L 527.707625 -494.589359 
L 526.257446 -494.251934 
L 524.807266 -492.53882 
L 523.357087 -491.733139 
L 521.906908 -490.632934 
L 520.456729 -493.003722 
L 519.006549 -494.97151 
L 517.55637 -502.969421 
L 516.106191 -508.556138 
L 514.656011 -510.876596 
L 513.205832 -522.961539 
L 511.755653 -547.886259 
L 510.305473 -557.120185 
L 508.855294 -551.566753 
L 507.405115 -542.386481 
L 505.954935 -540.54772 
L 504.504756 -533.65093 
L 503.054577 -531.318318 
L 501.604397 -523.96354 
L 500.154218 -522.239292 
L 498.704039 -529.958749 
L 497.253859 -543.176239 
L 495.80368 -553.157767 
L 494.353501 -567.740923 
L 492.903321 -574.288873 
L 491.453142 -573.928521 
L 490.002963 -553.345607 
L 488.552783 -550.284196 
L 487.102604 -537.923182 
L 485.652425 -517.034032 
L 484.202245 -506.463245 
L 482.752066 -499.036555 
L 481.301887 -494.735564 
L 479.851707 -498.250588 
L 478.401528 -494.905943 
L 476.951349 -490.027499 
L 475.501169 -487.67129 
L 474.05099 -484.322987 
L 472.600811 -480.893736 
L 471.150632 -482.400323 
L 469.700452 -483.97277 
L 468.250273 -482.905117 
L 466.800094 -487.393706 
L 465.349914 -491.079778 
L 463.899735 -493.781239 
L 462.449556 -496.164417 
L 460.999376 -498.772001 
L 459.549197 -501.252743 
L 458.099018 -507.320218 
L 456.648838 -502.037142 
L 455.198659 -507.659028 
L 453.74848 -497.700362 
L 452.2983 -495.849228 
L 450.848121 -494.751264 
L 449.397942 -494.236143 
L 447.947762 -494.04273 
L 446.497583 -493.992596 
L 445.047404 -494.013628 
L 443.597224 -494.139525 
L 442.147045 -494.538125 
L 440.696866 -495.558926 
L 439.246686 -498.332011 
L 437.796507 -500.541865 
L 436.346328 -503.310602 
L 434.896148 -519.279072 
L 433.445969 -501.432536 
L 431.99579 -495.452436 
L 430.54561 -487.371151 
L 429.095431 -479.348584 
L 427.645252 -483.989832 
L 426.195073 -480.852664 
L 424.744893 -476.974344 
L 423.294714 -481.483125 
L 421.844535 -484.346728 
L 420.394355 -485.212162 
L 418.944176 -495.278718 
L 417.493997 -486.984696 
L 416.043817 -489.237517 
L 414.593638 -491.444616 
L 413.143459 -492.914874 
L 411.693279 -493.622964 
L 410.2431 -493.877292 
L 408.792921 -493.94641 
L 407.342741 -493.960758 
L 405.892562 -493.963357 
z
" style="stroke: #1f77b4; stroke-opacity: 0.2"/>
    </defs>
    <g clip-path="url(#p53bfd44cbd)">
     <use xlink:href="#m53a2997342" x="0" y="720" style="fill: #1f77b4; fill-opacity: 0.2; stroke: #1f77b4; stroke-opacity: 0.2"/>
    </g>
   </g>
   <g id="PolyCollection_3">
    <defs>
     <path id="m5379bcaffb" d="M 405.892562 -493.963357 
L 405.892562 -493.963357 
L 407.342741 -493.963357 
L 408.792921 -493.963357 
L 410.2431 -493.963357 
L 411.693279 -493.963357 
L 413.143459 -493.963357 
L 414.593638 -493.963357 
L 416.043817 -493.963357 
L 417.493997 -493.968369 
L 418.944176 -494.000922 
L 420.394355 -494.161175 
L 421.844535 -494.781515 
L 423.294714 -496.624946 
L 424.744893 -500.783977 
L 426.195073 -507.751383 
L 427.645252 -515.977939 
L 429.095431 -507.533579 
L 430.54561 -510.980278 
L 431.99579 -515.87232 
L 433.445969 -507.643502 
L 434.896148 -500.711521 
L 436.346328 -496.589965 
L 437.796507 -494.768951 
L 439.246686 -494.15776 
L 440.696866 -494.000214 
L 442.147045 -493.96824 
L 443.597224 -493.963357 
L 445.047404 -493.966954 
L 446.497583 -493.986812 
L 447.947762 -494.085838 
L 449.397942 -494.46284 
L 450.848121 -495.572995 
L 452.2983 -498.135709 
L 453.74848 -502.863539 
L 455.198659 -510.091449 
L 456.648838 -510.520834 
L 458.099018 -530.721792 
L 459.549197 -532.340431 
L 460.999376 -538.259071 
L 462.449556 -540.68652 
L 463.899735 -537.694348 
L 465.349914 -537.28044 
L 466.800094 -519.471014 
L 468.250273 -516.586576 
L 469.700452 -507.278523 
L 471.150632 -500.470913 
L 472.600811 -496.509017 
L 474.05099 -494.638797 
L 475.501169 -493.719915 
L 476.951349 -492.86314 
L 478.401528 -491.668927 
L 479.851707 -490.294438 
L 481.301887 -484.255941 
L 482.752066 -484.728715 
L 484.202245 -490.324661 
L 485.652425 -491.693835 
L 487.102604 -492.844996 
L 488.552783 -493.52846 
L 490.002963 -493.830082 
L 491.453142 -493.931218 
L 492.903321 -493.957267 
L 494.353501 -493.962552 
L 495.80368 -493.963357 
L 497.253859 -493.963357 
L 498.704039 -493.963357 
L 500.154218 -493.963357 
L 501.604397 -493.963357 
L 503.054577 -493.963357 
L 504.504756 -493.963357 
L 505.954935 -493.963357 
L 507.405115 -493.961025 
L 508.855294 -493.945551 
L 510.305473 -493.866885 
L 511.755653 -493.556869 
L 513.205832 -492.606064 
L 514.656011 -490.357114 
L 516.106191 -486.305205 
L 517.55637 -480.905049 
L 519.006549 -463.553768 
L 520.456729 -462.937728 
L 521.906908 -463.724218 
L 523.357087 -480.072168 
L 524.807266 -484.204671 
L 526.257446 -486.365566 
L 527.707625 -486.766527 
L 529.157804 -479.134136 
L 530.607984 -488.014626 
L 532.058163 -489.922771 
L 533.508342 -491.807693 
L 534.958522 -493.065699 
L 536.408701 -493.67193 
L 537.85888 -493.889673 
L 539.30906 -493.948848 
L 540.759239 -493.961132 
L 542.209418 -493.963357 
L 543.659598 -493.963357 
L 545.109777 -493.963357 
L 546.559956 -493.963357 
L 548.010136 -493.963357 
L 549.460315 -493.963357 
L 550.910494 -493.963357 
L 552.360674 -493.969453 
L 553.810853 -494.007263 
L 555.261032 -494.192318 
L 556.711212 -494.905631 
L 558.161391 -497.013317 
L 559.61157 -501.788417 
L 561.06175 -510.052987 
L 562.511929 -520.986453 
L 563.962108 -520.666221 
L 565.412288 -531.106254 
L 566.862467 -550.006834 
L 568.312646 -542.26236 
L 569.762826 -548.231968 
L 571.213005 -548.92857 
L 572.663184 -538.464898 
L 574.113363 -542.074428 
L 575.563543 -521.42288 
L 577.013722 -511.763931 
L 578.463901 -511.112212 
L 579.914081 -503.396749 
L 581.36426 -498.271695 
L 582.814439 -495.560748 
L 584.264619 -494.437355 
L 585.714798 -494.074532 
L 587.164977 -493.984159 
L 588.615157 -493.965959 
L 590.065336 -493.963357 
L 591.515515 -493.963357 
L 592.965695 -493.963357 
L 594.415874 -493.963357 
L 595.866053 -493.963357 
L 597.316233 -493.963357 
L 598.766412 -493.963357 
L 600.216591 -493.963357 
L 601.666771 -493.963357 
L 603.11695 -493.963357 
L 604.567129 -493.963357 
L 606.017309 -493.963357 
L 607.467488 -493.963357 
L 608.917667 -493.963357 
L 610.367847 -493.963357 
L 611.818026 -493.963357 
L 613.268205 -493.963357 
L 614.718385 -493.963357 
L 616.168564 -493.963357 
L 617.618743 -493.963357 
L 619.068923 -493.963357 
L 620.519102 -493.963357 
L 621.969281 -493.963357 
L 623.41946 -493.963357 
L 624.86964 -493.963357 
L 626.319819 -493.963357 
L 627.769998 -493.963357 
L 629.220178 -493.963357 
L 630.670357 -493.963357 
L 632.120536 -493.963357 
L 633.570716 -493.963357 
L 635.020895 -493.963357 
L 636.471074 -493.963357 
L 636.471074 -493.963357 
L 636.471074 -493.963357 
L 635.020895 -493.963357 
L 633.570716 -493.963357 
L 632.120536 -493.963357 
L 630.670357 -493.963357 
L 629.220178 -493.963357 
L 627.769998 -493.963357 
L 626.319819 -493.963357 
L 624.86964 -493.963357 
L 623.41946 -493.963357 
L 621.969281 -493.963357 
L 620.519102 -493.963357 
L 619.068923 -493.963357 
L 617.618743 -493.963357 
L 616.168564 -493.963357 
L 614.718385 -493.963357 
L 613.268205 -493.963357 
L 611.818026 -493.963357 
L 610.367847 -493.963357 
L 608.917667 -493.963357 
L 607.467488 -493.963357 
L 606.017309 -493.963357 
L 604.567129 -493.963357 
L 603.11695 -493.963357 
L 601.666771 -493.963357 
L 600.216591 -493.963357 
L 598.766412 -493.963357 
L 597.316233 -493.963357 
L 595.866053 -493.963357 
L 594.415874 -493.963357 
L 592.965695 -493.963357 
L 591.515515 -493.963357 
L 590.065336 -493.963357 
L 588.615157 -493.965959 
L 587.164977 -493.984159 
L 585.714798 -494.074532 
L 584.264619 -494.437355 
L 582.814439 -495.560748 
L 581.36426 -498.271695 
L 579.914081 -503.396749 
L 578.463901 -511.112212 
L 577.013722 -529.701098 
L 575.563543 -541.20317 
L 574.113363 -542.074428 
L 572.663184 -565.085403 
L 571.213005 -567.60155 
L 569.762826 -571.21569 
L 568.312646 -570.440766 
L 566.862467 -550.006834 
L 565.412288 -552.91496 
L 563.962108 -543.870583 
L 562.511929 -520.986453 
L 561.06175 -510.052987 
L 559.61157 -501.788417 
L 558.161391 -497.013317 
L 556.711212 -494.905631 
L 555.261032 -494.192318 
L 553.810853 -494.007263 
L 552.360674 -493.969453 
L 550.910494 -493.963357 
L 549.460315 -493.963357 
L 548.010136 -493.963357 
L 546.559956 -493.963357 
L 545.109777 -493.963357 
L 543.659598 -493.963357 
L 542.209418 -493.963357 
L 540.759239 -493.961132 
L 539.30906 -493.948848 
L 537.85888 -493.889673 
L 536.408701 -493.67193 
L 534.958522 -493.065699 
L 533.508342 -491.807693 
L 532.058163 -489.922771 
L 530.607984 -488.014626 
L 529.157804 -494.723272 
L 527.707625 -486.766527 
L 526.257446 -486.365566 
L 524.807266 -484.204671 
L 523.357087 -480.072168 
L 521.906908 -487.828481 
L 520.456729 -484.99953 
L 519.006549 -488.464526 
L 517.55637 -480.905049 
L 516.106191 -486.305205 
L 514.656011 -490.357114 
L 513.205832 -492.606064 
L 511.755653 -493.556869 
L 510.305473 -493.866885 
L 508.855294 -493.945551 
L 507.405115 -493.961025 
L 505.954935 -493.963357 
L 504.504756 -493.963357 
L 503.054577 -493.963357 
L 501.604397 -493.963357 
L 500.154218 -493.963357 
L 498.704039 -493.963357 
L 497.253859 -493.963357 
L 495.80368 -493.963357 
L 494.353501 -493.962552 
L 492.903321 -493.957267 
L 491.453142 -493.931218 
L 490.002963 -493.830082 
L 488.552783 -493.52846 
L 487.102604 -492.844996 
L 485.652425 -491.693835 
L 484.202245 -490.324661 
L 482.752066 -493.972246 
L 481.301887 -494.419283 
L 479.851707 -490.294438 
L 478.401528 -491.668927 
L 476.951349 -492.86314 
L 475.501169 -493.719915 
L 474.05099 -494.638797 
L 472.600811 -496.509017 
L 471.150632 -500.470913 
L 469.700452 -507.278523 
L 468.250273 -516.586576 
L 466.800094 -534.678801 
L 465.349914 -537.28044 
L 463.899735 -553.682308 
L 462.449556 -559.65918 
L 460.999376 -559.211557 
L 459.549197 -550.512748 
L 458.099018 -530.721792 
L 456.648838 -528.761097 
L 455.198659 -510.091449 
L 453.74848 -502.863539 
L 452.2983 -498.135709 
L 450.848121 -495.572995 
L 449.397942 -494.46284 
L 447.947762 -494.085838 
L 446.497583 -493.986812 
L 445.047404 -493.966954 
L 443.597224 -493.963357 
L 442.147045 -493.96824 
L 440.696866 -494.000214 
L 439.246686 -494.15776 
L 437.796507 -494.768951 
L 436.346328 -496.589965 
L 434.896148 -500.711521 
L 433.445969 -507.643502 
L 431.99579 -515.87232 
L 430.54561 -532.431623 
L 429.095431 -535.968265 
L 427.645252 -515.977939 
L 426.195073 -507.751383 
L 424.744893 -500.783977 
L 423.294714 -496.624946 
L 421.844535 -494.781515 
L 420.394355 -494.161175 
L 418.944176 -494.000922 
L 417.493997 -493.968369 
L 416.043817 -493.963357 
L 414.593638 -493.963357 
L 413.143459 -493.963357 
L 411.693279 -493.963357 
L 410.2431 -493.963357 
L 408.792921 -493.963357 
L 407.342741 -493.963357 
L 405.892562 -493.963357 
z
" style="stroke: #d62728; stroke-opacity: 0.2"/>
    </defs>
    <g clip-path="url(#p53bfd44cbd)">
     <use xlink:href="#m5379bcaffb" x="0" y="720" style="fill: #d62728; fill-opacity: 0.2; stroke: #d62728; stroke-opacity: 0.2"/>
    </g>
   </g>
   <g id="PolyCollection_4">
    <defs>
     <path id="m65008213bb" d="M 405.892562 -425.282224 
L 405.892562 -397.740496 
L 407.342741 -399.578514 
L 408.792921 -403.543333 
L 410.2431 -405.417444 
L 411.693279 -406.760824 
L 413.143459 -409.366534 
L 414.593638 -415.276529 
L 416.043817 -422.528869 
L 417.493997 -430.691989 
L 418.944176 -447.643337 
L 420.394355 -439.766406 
L 421.844535 -443.019823 
L 423.294714 -448.523879 
L 424.744893 -455.262798 
L 426.195073 -475.910009 
L 427.645252 -486.519234 
L 429.095431 -496.428969 
L 430.54561 -504.666837 
L 431.99579 -499.440345 
L 433.445969 -500.149726 
L 434.896148 -509.387631 
L 436.346328 -506.533982 
L 437.796507 -505.216453 
L 439.246686 -505.517025 
L 440.696866 -490.569296 
L 442.147045 -503.835673 
L 443.597224 -500.679068 
L 445.047404 -497.547369 
L 446.497583 -495.455808 
L 447.947762 -494.447885 
L 449.397942 -494.085865 
L 450.848121 -493.98748 
L 452.2983 -493.967056 
L 453.74848 -493.963357 
L 455.198659 -493.963357 
L 456.648838 -493.963357 
L 458.099018 -493.963357 
L 459.549197 -493.963357 
L 460.999376 -493.963357 
L 462.449556 -493.963357 
L 463.899735 -493.963357 
L 465.349914 -493.963357 
L 466.800094 -493.963357 
L 468.250273 -493.963357 
L 469.700452 -493.963357 
L 471.150632 -493.963357 
L 472.600811 -493.963357 
L 474.05099 -493.963357 
L 475.501169 -493.963357 
L 476.951349 -493.963357 
L 478.401528 -493.963357 
L 479.851707 -493.963357 
L 481.301887 -493.963357 
L 482.752066 -493.963357 
L 484.202245 -493.963357 
L 485.652425 -493.963357 
L 487.102604 -493.963357 
L 488.552783 -493.963357 
L 490.002963 -493.963357 
L 491.453142 -493.963357 
L 492.903321 -493.963357 
L 494.353501 -493.963357 
L 495.80368 -493.963357 
L 497.253859 -493.963357 
L 498.704039 -493.963357 
L 500.154218 -493.963357 
L 501.604397 -493.96566 
L 503.054577 -493.982801 
L 504.504756 -494.068483 
L 505.954935 -494.411536 
L 507.405115 -495.471979 
L 508.855294 -497.977034 
L 510.305473 -502.408681 
L 511.755653 -508.020066 
L 513.205832 -503.622559 
L 514.656011 -501.800246 
L 516.106191 -509.763364 
L 517.55637 -504.189325 
L 519.006549 -499.172964 
L 520.456729 -496.055174 
L 521.906908 -494.656898 
L 523.357087 -494.317748 
L 524.807266 -494.757464 
L 526.257446 -496.317872 
L 527.707625 -499.600935 
L 529.157804 -504.49574 
L 530.607984 -509.287883 
L 532.058163 -494.230513 
L 533.508342 -509.287883 
L 534.958522 -504.49574 
L 536.408701 -499.600935 
L 537.85888 -496.313449 
L 539.30906 -494.72632 
L 540.759239 -494.156264 
L 542.209418 -494.001343 
L 543.659598 -493.969182 
L 545.109777 -493.963357 
L 546.559956 -493.963357 
L 548.010136 -493.963357 
L 549.460315 -493.963357 
L 550.910494 -493.963357 
L 552.360674 -493.963357 
L 553.810853 -493.963357 
L 555.261032 -493.963357 
L 556.711212 -493.963357 
L 558.161391 -493.963357 
L 559.61157 -493.963357 
L 561.06175 -493.963357 
L 562.511929 -493.963357 
L 563.962108 -493.963357 
L 565.412288 -493.963357 
L 566.862467 -493.963357 
L 568.312646 -493.963357 
L 569.762826 -493.963357 
L 571.213005 -493.963357 
L 572.663184 -493.963357 
L 574.113363 -493.963357 
L 575.563543 -493.963357 
L 577.013722 -493.963357 
L 578.463901 -493.963357 
L 579.914081 -493.963357 
L 581.36426 -493.963357 
L 582.814439 -493.963357 
L 584.264619 -493.963357 
L 585.714798 -493.963357 
L 587.164977 -493.963357 
L 588.615157 -493.963357 
L 590.065336 -493.963357 
L 591.515515 -493.963357 
L 592.965695 -493.960592 
L 594.415874 -493.945325 
L 595.866053 -493.871783 
L 597.316233 -493.598021 
L 598.766412 -492.82719 
L 600.216591 -491.176577 
L 601.666771 -488.504883 
L 603.11695 -485.176863 
L 604.567129 -474.235482 
L 606.017309 -477.786164 
L 607.467488 -472.495916 
L 608.917667 -453.492551 
L 610.367847 -458.346796 
L 611.818026 -435.172866 
L 613.268205 -436.614199 
L 614.718385 -464.401226 
L 616.168564 -471.5895 
L 617.618743 -474.509323 
L 619.068923 -459.20883 
L 620.519102 -454.316867 
L 621.969281 -449.119413 
L 623.41946 -445.857989 
L 624.86964 -448.898583 
L 626.319819 -453.702106 
L 627.769998 -464.211547 
L 629.220178 -479.582273 
L 630.670357 -486.32067 
L 632.120536 -490.611968 
L 633.570716 -492.766493 
L 635.020895 -493.617229 
L 636.471074 -493.870291 
L 636.471074 -493.870291 
L 636.471074 -493.870291 
L 635.020895 -493.617229 
L 633.570716 -492.766493 
L 632.120536 -490.611968 
L 630.670357 -486.32067 
L 629.220178 -479.582273 
L 627.769998 -478.354006 
L 626.319819 -473.23099 
L 624.86964 -467.927918 
L 623.41946 -469.192002 
L 621.969281 -472.34651 
L 620.519102 -478.677639 
L 619.068923 -485.058589 
L 617.618743 -474.509323 
L 616.168564 -471.5895 
L 614.718385 -464.401226 
L 613.268205 -477.881622 
L 611.818026 -474.39587 
L 610.367847 -458.346796 
L 608.917667 -477.364232 
L 607.467488 -472.495916 
L 606.017309 -477.786164 
L 604.567129 -489.125781 
L 603.11695 -485.176863 
L 601.666771 -488.504883 
L 600.216591 -491.176577 
L 598.766412 -492.82719 
L 597.316233 -493.598021 
L 595.866053 -493.871783 
L 594.415874 -493.945325 
L 592.965695 -493.960592 
L 591.515515 -493.963357 
L 590.065336 -493.963357 
L 588.615157 -493.963357 
L 587.164977 -493.963357 
L 585.714798 -493.963357 
L 584.264619 -493.963357 
L 582.814439 -493.963357 
L 581.36426 -493.963357 
L 579.914081 -493.963357 
L 578.463901 -493.963357 
L 577.013722 -493.963357 
L 575.563543 -493.963357 
L 574.113363 -493.963357 
L 572.663184 -493.963357 
L 571.213005 -493.963357 
L 569.762826 -493.963357 
L 568.312646 -493.963357 
L 566.862467 -493.963357 
L 565.412288 -493.963357 
L 563.962108 -493.963357 
L 562.511929 -493.963357 
L 561.06175 -493.963357 
L 559.61157 -493.963357 
L 558.161391 -493.963357 
L 556.711212 -493.963357 
L 555.261032 -493.963357 
L 553.810853 -493.963357 
L 552.360674 -493.963357 
L 550.910494 -493.963357 
L 549.460315 -493.963357 
L 548.010136 -493.963357 
L 546.559956 -493.963357 
L 545.109777 -493.963357 
L 543.659598 -493.969182 
L 542.209418 -494.001343 
L 540.759239 -494.156264 
L 539.30906 -494.72632 
L 537.85888 -496.313449 
L 536.408701 -499.600935 
L 534.958522 -504.49574 
L 533.508342 -509.287883 
L 532.058163 -528.426128 
L 530.607984 -509.287883 
L 529.157804 -504.49574 
L 527.707625 -499.600935 
L 526.257446 -496.317872 
L 524.807266 -494.757464 
L 523.357087 -494.317748 
L 521.906908 -494.656898 
L 520.456729 -496.055174 
L 519.006549 -499.172964 
L 517.55637 -504.189325 
L 516.106191 -509.763364 
L 514.656011 -524.614971 
L 513.205832 -521.308108 
L 511.755653 -508.020066 
L 510.305473 -502.408681 
L 508.855294 -497.977034 
L 507.405115 -495.471979 
L 505.954935 -494.411536 
L 504.504756 -494.068483 
L 503.054577 -493.982801 
L 501.604397 -493.96566 
L 500.154218 -493.963357 
L 498.704039 -493.963357 
L 497.253859 -493.963357 
L 495.80368 -493.963357 
L 494.353501 -493.963357 
L 492.903321 -493.963357 
L 491.453142 -493.963357 
L 490.002963 -493.963357 
L 488.552783 -493.963357 
L 487.102604 -493.963357 
L 485.652425 -493.963357 
L 484.202245 -493.963357 
L 482.752066 -493.963357 
L 481.301887 -493.963357 
L 479.851707 -493.963357 
L 478.401528 -493.963357 
L 476.951349 -493.963357 
L 475.501169 -493.963357 
L 474.05099 -493.963357 
L 472.600811 -493.963357 
L 471.150632 -493.963357 
L 469.700452 -493.963357 
L 468.250273 -493.963357 
L 466.800094 -493.963357 
L 465.349914 -493.963357 
L 463.899735 -493.963357 
L 462.449556 -493.963357 
L 460.999376 -493.963357 
L 459.549197 -493.963357 
L 458.099018 -493.963357 
L 456.648838 -493.963357 
L 455.198659 -493.963357 
L 453.74848 -493.963357 
L 452.2983 -493.967056 
L 450.848121 -493.98748 
L 449.397942 -494.085865 
L 447.947762 -494.447885 
L 446.497583 -495.455808 
L 445.047404 -497.547369 
L 443.597224 -500.679068 
L 442.147045 -503.835673 
L 440.696866 -520.554852 
L 439.246686 -505.517025 
L 437.796507 -505.216453 
L 436.346328 -506.533982 
L 434.896148 -509.387631 
L 433.445969 -522.63721 
L 431.99579 -520.594689 
L 430.54561 -504.666837 
L 429.095431 -496.428969 
L 427.645252 -486.519234 
L 426.195073 -475.910009 
L 424.744893 -476.961576 
L 423.294714 -469.426849 
L 421.844535 -466.943526 
L 420.394355 -464.60323 
L 418.944176 -447.643337 
L 417.493997 -449.673862 
L 416.043817 -440.405764 
L 414.593638 -433.234112 
L 413.143459 -430.59278 
L 411.693279 -429.304372 
L 410.2431 -428.188655 
L 408.792921 -426.697314 
L 407.342741 -426.474616 
L 405.892562 -425.282224 
z
" style="stroke: #ff7f0e; stroke-opacity: 0.2"/>
    </defs>
    <g clip-path="url(#p53bfd44cbd)">
     <use xlink:href="#m65008213bb" x="0" y="720" style="fill: #ff7f0e; fill-opacity: 0.2; stroke: #ff7f0e; stroke-opacity: 0.2"/>
    </g>
   </g>
   <g id="matplotlib.axis_3">
    <g id="xtick_7">
     <g id="line2d_13">
      <g>
       <use xlink:href="#ma01281ad2e" x="405.863558" y="333.490909" style="stroke: #000000; stroke-width: 0.8"/>
      </g>
     </g>
     <g id="text_13">
      <!-- 0 -->
      <g transform="translate(402.682308 348.089347)scale(0.1 -0.1)">
       <use xlink:href="#DejaVuSans-30"/>
      </g>
     </g>
    </g>
    <g id="xtick_8">
     <g id="line2d_14">
      <g>
       <use xlink:href="#ma01281ad2e" x="463.870731" y="333.490909" style="stroke: #000000; stroke-width: 0.8"/>
      </g>
     </g>
     <g id="text_14">
      <!-- 2000 -->
      <g transform="translate(451.145731 348.089347)scale(0.1 -0.1)">
       <use xlink:href="#DejaVuSans-32"/>
       <use xlink:href="#DejaVuSans-30" x="63.623047"/>
       <use xlink:href="#DejaVuSans-30" x="127.246094"/>
       <use xlink:href="#DejaVuSans-30" x="190.869141"/>
      </g>
     </g>
    </g>
    <g id="xtick_9">
     <g id="line2d_15">
      <g>
       <use xlink:href="#ma01281ad2e" x="521.877904" y="333.490909" style="stroke: #000000; stroke-width: 0.8"/>
      </g>
     </g>
     <g id="text_15">
      <!-- 4000 -->
      <g transform="translate(509.152904 348.089347)scale(0.1 -0.1)">
       <use xlink:href="#DejaVuSans-34"/>
       <use xlink:href="#DejaVuSans-30" x="63.623047"/>
       <use xlink:href="#DejaVuSans-30" x="127.246094"/>
       <use xlink:href="#DejaVuSans-30" x="190.869141"/>
      </g>
     </g>
    </g>
    <g id="xtick_10">
     <g id="line2d_16">
      <g>
       <use xlink:href="#ma01281ad2e" x="579.885077" y="333.490909" style="stroke: #000000; stroke-width: 0.8"/>
      </g>
     </g>
     <g id="text_16">
      <!-- 6000 -->
      <g transform="translate(567.160077 348.089347)scale(0.1 -0.1)">
       <use xlink:href="#DejaVuSans-36"/>
       <use xlink:href="#DejaVuSans-30" x="63.623047"/>
       <use xlink:href="#DejaVuSans-30" x="127.246094"/>
       <use xlink:href="#DejaVuSans-30" x="190.869141"/>
      </g>
     </g>
    </g>
    <g id="xtick_11">
     <g id="line2d_17">
      <g>
       <use xlink:href="#ma01281ad2e" x="637.89225" y="333.490909" style="stroke: #000000; stroke-width: 0.8"/>
      </g>
     </g>
     <g id="text_17">
      <!-- 8000 -->
      <g transform="translate(625.16725 348.089347)scale(0.1 -0.1)">
       <use xlink:href="#DejaVuSans-38"/>
       <use xlink:href="#DejaVuSans-30" x="63.623047"/>
       <use xlink:href="#DejaVuSans-30" x="127.246094"/>
       <use xlink:href="#DejaVuSans-30" x="190.869141"/>
      </g>
     </g>
    </g>
   </g>
   <g id="matplotlib.axis_4">
    <g id="ytick_7">
     <g id="line2d_18">
      <g>
       <use xlink:href="#m7aa3078022" x="394.363636" y="312.899471" style="stroke: #000000; stroke-width: 0.8"/>
      </g>
     </g>
     <g id="text_18">
      <!-- −1.0 -->
      <g transform="translate(363.080824 316.69869)scale(0.1 -0.1)">
       <defs>
        <path id="DejaVuSans-2212" d="M 678 2272 
L 4684 2272 
L 4684 1741 
L 678 1741 
L 678 2272 
z
" transform="scale(0.015625)"/>
       </defs>
       <use xlink:href="#DejaVuSans-2212"/>
       <use xlink:href="#DejaVuSans-31" x="83.789062"/>
       <use xlink:href="#DejaVuSans-2e" x="147.412109"/>
       <use xlink:href="#DejaVuSans-30" x="179.199219"/>
      </g>
     </g>
    </g>
    <g id="ytick_8">
     <g id="line2d_19">
      <g>
       <use xlink:href="#m7aa3078022" x="394.363636" y="269.468057" style="stroke: #000000; stroke-width: 0.8"/>
      </g>
     </g>
     <g id="text_19">
      <!-- −0.5 -->
      <g transform="translate(363.080824 273.267276)scale(0.1 -0.1)">
       <defs>
        <path id="DejaVuSans-35" d="M 691 4666 
L 3169 4666 
L 3169 4134 
L 1269 4134 
L 1269 2991 
Q 1406 3038 1543 3061 
Q 1681 3084 1819 3084 
Q 2600 3084 3056 2656 
Q 3513 2228 3513 1497 
Q 3513 744 3044 326 
Q 2575 -91 1722 -91 
Q 1428 -91 1123 -41 
Q 819 9 494 109 
L 494 744 
Q 775 591 1075 516 
Q 1375 441 1709 441 
Q 2250 441 2565 725 
Q 2881 1009 2881 1497 
Q 2881 1984 2565 2268 
Q 2250 2553 1709 2553 
Q 1456 2553 1204 2497 
Q 953 2441 691 2322 
L 691 4666 
z
" transform="scale(0.015625)"/>
       </defs>
       <use xlink:href="#DejaVuSans-2212"/>
       <use xlink:href="#DejaVuSans-30" x="83.789062"/>
       <use xlink:href="#DejaVuSans-2e" x="147.412109"/>
       <use xlink:href="#DejaVuSans-35" x="179.199219"/>
      </g>
     </g>
    </g>
    <g id="ytick_9">
     <g id="line2d_20">
      <g>
       <use xlink:href="#m7aa3078022" x="394.363636" y="226.036643" style="stroke: #000000; stroke-width: 0.8"/>
      </g>
     </g>
     <g id="text_20">
      <!-- 0.0 -->
      <g transform="translate(371.460511 229.835862)scale(0.1 -0.1)">
       <use xlink:href="#DejaVuSans-30"/>
       <use xlink:href="#DejaVuSans-2e" x="63.623047"/>
       <use xlink:href="#DejaVuSans-30" x="95.410156"/>
      </g>
     </g>
    </g>
    <g id="ytick_10">
     <g id="line2d_21">
      <g>
       <use xlink:href="#m7aa3078022" x="394.363636" y="182.605229" style="stroke: #000000; stroke-width: 0.8"/>
      </g>
     </g>
     <g id="text_21">
      <!-- 0.5 -->
      <g transform="translate(371.460511 186.404448)scale(0.1 -0.1)">
       <use xlink:href="#DejaVuSans-30"/>
       <use xlink:href="#DejaVuSans-2e" x="63.623047"/>
       <use xlink:href="#DejaVuSans-35" x="95.410156"/>
      </g>
     </g>
    </g>
    <g id="ytick_11">
     <g id="line2d_22">
      <g>
       <use xlink:href="#m7aa3078022" x="394.363636" y="139.173815" style="stroke: #000000; stroke-width: 0.8"/>
      </g>
     </g>
     <g id="text_22">
      <!-- 1.0 -->
      <g transform="translate(371.460511 142.973034)scale(0.1 -0.1)">
       <use xlink:href="#DejaVuSans-31"/>
       <use xlink:href="#DejaVuSans-2e" x="63.623047"/>
       <use xlink:href="#DejaVuSans-30" x="95.410156"/>
      </g>
     </g>
    </g>
    <g id="ytick_12">
     <g id="line2d_23">
      <g>
       <use xlink:href="#m7aa3078022" x="394.363636" y="95.742401" style="stroke: #000000; stroke-width: 0.8"/>
      </g>
     </g>
     <g id="text_23">
      <!-- 1.5 -->
      <g transform="translate(371.460511 99.54162)scale(0.1 -0.1)">
       <use xlink:href="#DejaVuSans-31"/>
       <use xlink:href="#DejaVuSans-2e" x="63.623047"/>
       <use xlink:href="#DejaVuSans-35" x="95.410156"/>
      </g>
     </g>
    </g>
   </g>
   <g id="line2d_24">
    <path d="M 405.892562 226.036643 
L 426.195073 226.070104 
L 427.645252 226.212358 
L 429.095431 226.760994 
L 430.54561 228.389877 
L 431.99579 232.069235 
L 433.445969 238.317535 
L 434.896148 246.14637 
L 436.346328 253.286395 
L 437.796507 258.420268 
L 439.246686 262.928467 
L 440.696866 269.228986 
L 443.597224 285.750508 
L 445.047404 292.2374 
L 447.947762 302.779372 
L 449.397942 306.735996 
L 450.848121 306.284736 
L 452.2983 298.470309 
L 453.74848 283.320211 
L 455.198659 264.639138 
L 456.648838 247.835989 
L 458.099018 236.643952 
L 459.549197 231.809759 
L 460.999376 232.141551 
L 462.449556 235.655499 
L 463.899735 239.704298 
L 465.349914 241.476467 
L 466.800094 239.656762 
L 469.700452 231.047205 
L 471.150632 228.125356 
L 472.600811 226.712339 
L 474.05099 226.190483 
L 476.951349 225.663315 
L 478.401528 224.814486 
L 479.851707 222.930208 
L 481.301887 219.80059 
L 482.752066 216.101699 
L 484.202245 213.360289 
L 485.652425 212.84639 
L 487.102604 214.463408 
L 490.002963 219.568969 
L 491.453142 221.727504 
L 492.903321 223.490125 
L 494.353501 224.770878 
L 495.80368 225.526975 
L 497.253859 225.874083 
L 500.154218 226.028644 
L 523.357087 226.078008 
L 524.807266 226.262128 
L 526.257446 226.993252 
L 527.707625 229.254985 
L 529.157804 234.655441 
L 530.607984 244.482507 
L 532.058163 257.706707 
L 533.508342 269.802868 
L 534.958522 274.836733 
L 536.408701 270.044187 
L 539.30906 246.202775 
L 540.759239 238.53302 
L 542.209418 236.381902 
L 543.659598 237.322096 
L 545.109777 237.963435 
L 546.559956 236.454019 
L 548.010136 233.44136 
L 549.460315 231.106301 
L 550.910494 231.753194 
L 552.360674 237.112206 
L 553.810853 247.443431 
L 555.261032 259.91252 
L 556.711212 268.633382 
L 558.161391 268.568522 
L 559.61157 260.202849 
L 561.06175 249.476486 
L 562.511929 242.792897 
L 563.962108 242.302083 
L 565.412288 245.26319 
L 566.862467 247.124255 
L 568.312646 245.615287 
L 569.762826 242.294346 
L 571.213005 240.153101 
L 572.663184 240.337283 
L 574.113363 241.960056 
L 575.563543 244.527041 
L 577.013722 248.837258 
L 578.463901 254.788785 
L 579.914081 259.736946 
L 581.36426 260.980981 
L 582.814439 259.696326 
L 584.264619 260.599645 
L 585.714798 266.993562 
L 587.164977 277.068936 
L 588.615157 285.526337 
L 590.065336 288.10695 
L 591.515515 284.384784 
L 594.415874 270.143133 
L 595.866053 264.787153 
L 597.316233 260.04141 
L 598.766412 253.9565 
L 600.216591 246.379219 
L 601.666771 239.497063 
L 603.11695 235.832276 
L 604.567129 235.960988 
L 606.017309 237.974977 
L 607.467488 238.970678 
L 608.917667 237.339373 
L 611.818026 230.183502 
L 613.268205 227.765311 
L 614.718385 226.59786 
L 616.168564 226.178541 
L 617.618743 226.068689 
L 619.068923 226.073407 
L 620.519102 226.209824 
L 621.969281 226.763437 
L 623.41946 228.448453 
L 624.86964 232.369009 
L 626.319819 239.280584 
L 629.220178 257.328424 
L 630.670357 264.438653 
L 632.120536 270.842872 
L 633.570716 278.853954 
L 635.020895 288.100657 
L 636.471074 294.667024 
L 636.471074 294.667024 
" clip-path="url(#p53bfd44cbd)" style="fill: none; stroke: #9467bd; stroke-width: 2; stroke-linecap: square"/>
   </g>
   <g id="line2d_25">
    <path d="M 405.892562 226.036643 
L 410.2431 226.122708 
L 411.693279 226.377036 
L 413.143459 227.085126 
L 414.593638 228.555384 
L 417.493997 233.015304 
L 418.944176 234.371077 
L 420.394355 234.787838 
L 421.844535 235.653272 
L 423.294714 238.516875 
L 424.744893 243.025656 
L 426.195073 246.471866 
L 427.645252 245.899695 
L 429.095431 240.651416 
L 431.99579 224.547564 
L 433.445969 218.567464 
L 434.896148 215.941771 
L 436.346328 216.689398 
L 439.246686 222.410842 
L 440.696866 224.441074 
L 442.147045 225.461875 
L 443.597224 225.860475 
L 446.497583 226.007404 
L 447.947762 225.95727 
L 449.397942 225.763857 
L 450.848121 225.248736 
L 452.2983 224.150772 
L 453.74848 222.299638 
L 455.198659 219.946745 
L 456.648838 217.962858 
L 458.099018 217.431125 
L 459.549197 218.747257 
L 463.899735 226.218761 
L 465.349914 228.920222 
L 466.800094 232.606294 
L 468.250273 237.094883 
L 469.700452 241.143921 
L 471.150632 243.32053 
L 472.600811 243.028598 
L 474.05099 240.643767 
L 478.401528 230.040024 
L 481.301887 225.264436 
L 482.752066 220.963445 
L 484.202245 213.536755 
L 485.652425 202.965968 
L 488.552783 177.904948 
L 490.002963 166.654393 
L 491.453142 158.94789 
L 492.903321 157.400386 
L 494.353501 163.023026 
L 495.80368 173.787957 
L 497.253859 185.744707 
L 498.704039 195.114022 
L 500.154218 199.659943 
L 501.604397 199.361331 
L 503.054577 196.055861 
L 504.504756 191.685965 
L 505.954935 186.807845 
L 507.405115 181.47492 
L 508.855294 177.393249 
L 510.305473 177.936151 
L 511.755653 185.119356 
L 514.656011 209.123404 
L 516.106191 217.805152 
L 517.55637 222.567944 
L 519.006549 225.02849 
L 520.456729 226.996278 
L 523.357087 231.885769 
L 524.807266 233.34942 
L 526.257446 232.401032 
L 527.707625 228.817281 
L 529.157804 224.177651 
L 530.607984 220.929403 
L 532.058163 220.540499 
L 533.508342 222.64611 
L 534.958522 225.768933 
L 536.408701 228.24732 
L 537.85888 228.420981 
L 539.30906 224.947229 
L 540.759239 217.751682 
L 542.209418 208.139157 
L 543.659598 197.083145 
L 545.109777 183.817056 
L 546.559956 167.342731 
L 548.010136 149.214966 
L 549.460315 133.50973 
L 550.910494 123.907696 
L 552.360674 121.897498 
L 553.810853 127.010579 
L 556.711212 145.418571 
L 558.161391 150.599049 
L 559.61157 154.630259 
L 561.06175 163.298249 
L 562.511929 178.558342 
L 563.962108 196.296301 
L 565.412288 210.870119 
L 566.862467 219.772745 
L 568.312646 223.906697 
L 569.762826 225.235985 
L 571.213005 224.950661 
L 572.663184 223.012127 
L 574.113363 218.672801 
L 575.563543 211.652027 
L 578.463901 194.606189 
L 579.914081 187.196141 
L 581.36426 180.997054 
L 582.814439 177.59215 
L 584.264619 179.815593 
L 585.714798 188.530131 
L 588.615157 212.166589 
L 590.065336 219.860042 
L 591.515515 223.87374 
L 592.965695 225.645974 
L 594.415874 226.673372 
L 595.866053 227.922576 
L 598.766412 231.559396 
L 600.216591 232.65994 
L 601.666771 232.393667 
L 603.11695 230.89887 
L 607.467488 224.354218 
L 608.917667 223.236476 
L 610.367847 224.232191 
L 611.818026 227.961396 
L 613.268205 233.524632 
L 614.718385 238.615978 
L 616.168564 240.922355 
L 617.618743 239.671875 
L 619.068923 235.995342 
L 620.519102 231.88444 
L 621.969281 228.796765 
L 623.41946 227.083115 
L 624.86964 226.367079 
L 626.319819 226.166708 
L 629.220178 226.33005 
L 632.120536 226.640315 
L 635.020895 226.578174 
L 636.471074 226.491886 
L 636.471074 226.491886 
" clip-path="url(#p53bfd44cbd)" style="fill: none; stroke: #1f77b4; stroke-width: 2; stroke-linecap: square"/>
   </g>
   <g id="line2d_26">
    <path d="M 405.892562 226.036643 
L 418.944176 225.999078 
L 420.394355 225.838825 
L 421.844535 225.218485 
L 423.294714 223.375054 
L 424.744893 219.216023 
L 426.195073 212.248617 
L 427.645252 204.022061 
L 429.095431 198.249078 
L 430.54561 198.294049 
L 431.99579 204.12768 
L 433.445969 212.356498 
L 434.896148 219.288479 
L 436.346328 223.410035 
L 437.796507 225.231049 
L 439.246686 225.84224 
L 440.696866 225.999786 
L 445.047404 226.033046 
L 447.947762 225.914162 
L 449.397942 225.53716 
L 450.848121 224.427005 
L 452.2983 221.864291 
L 453.74848 217.136461 
L 455.198659 209.908551 
L 456.648838 200.359034 
L 459.549197 178.573411 
L 460.999376 171.264686 
L 462.449556 169.82715 
L 463.899735 174.311672 
L 465.349914 182.71956 
L 469.700452 212.721477 
L 471.150632 219.529087 
L 472.600811 223.490983 
L 474.05099 225.361203 
L 476.951349 227.13686 
L 478.401528 228.331073 
L 479.851707 229.705562 
L 481.301887 230.662388 
L 482.752066 230.64952 
L 484.202245 229.675339 
L 485.652425 228.306165 
L 487.102604 227.155004 
L 488.552783 226.47154 
L 490.002963 226.169918 
L 492.903321 226.042733 
L 508.855294 226.054449 
L 510.305473 226.133115 
L 511.755653 226.443131 
L 513.205832 227.393936 
L 514.656011 229.642886 
L 516.106191 233.694795 
L 517.55637 239.094951 
L 519.006549 243.990853 
L 520.456729 246.031371 
L 521.906908 244.223651 
L 524.807266 235.795329 
L 526.257446 233.634434 
L 527.707625 233.233473 
L 529.157804 233.071296 
L 530.607984 231.985374 
L 533.508342 228.192307 
L 534.958522 226.934301 
L 536.408701 226.32807 
L 537.85888 226.110327 
L 542.209418 226.036643 
L 553.810853 225.992737 
L 555.261032 225.807682 
L 556.711212 225.094369 
L 558.161391 222.986683 
L 559.61157 218.211583 
L 561.06175 209.947013 
L 565.412288 177.989393 
L 566.862467 169.993166 
L 568.312646 163.648437 
L 569.762826 160.276171 
L 571.213005 161.73494 
L 572.663184 168.224849 
L 574.113363 177.925572 
L 577.013722 199.267485 
L 578.463901 208.887788 
L 579.914081 216.603251 
L 581.36426 221.728305 
L 582.814439 224.439252 
L 584.264619 225.562645 
L 585.714798 225.925468 
L 588.615157 226.034041 
L 636.471074 226.036643 
L 636.471074 226.036643 
" clip-path="url(#p53bfd44cbd)" style="fill: none; stroke: #d62728; stroke-width: 2; stroke-linecap: square"/>
   </g>
   <g id="line2d_27">
    <path d="M 405.892562 308.48864 
L 407.342741 306.973435 
L 408.792921 304.879676 
L 410.2431 303.19695 
L 411.693279 301.967402 
L 413.143459 300.020343 
L 414.593638 295.744679 
L 416.043817 288.532684 
L 417.493997 279.817074 
L 418.944176 272.356663 
L 420.394355 267.815182 
L 421.844535 265.018325 
L 423.294714 261.024636 
L 424.744893 253.887813 
L 426.195073 244.089991 
L 429.095431 223.571031 
L 430.54561 215.333163 
L 431.99579 209.982483 
L 433.445969 208.606532 
L 434.896148 210.612369 
L 436.346328 213.466018 
L 437.796507 214.783547 
L 439.246686 214.482975 
L 440.696866 214.437926 
L 442.147045 216.164327 
L 445.047404 222.452631 
L 446.497583 224.544192 
L 447.947762 225.552115 
L 449.397942 225.914135 
L 452.2983 226.032944 
L 497.253859 226.036643 
L 504.504756 225.931517 
L 505.954935 225.588464 
L 507.405115 224.528021 
L 508.855294 222.022966 
L 510.305473 217.591319 
L 511.755653 211.979934 
L 513.205832 207.534667 
L 514.656011 206.792391 
L 516.106191 210.236636 
L 517.55637 215.810675 
L 519.006549 220.827036 
L 520.456729 223.944826 
L 521.906908 225.343102 
L 523.357087 225.682252 
L 524.807266 225.242536 
L 526.257446 223.682128 
L 527.707625 220.399065 
L 530.607984 210.712117 
L 532.058163 208.67168 
L 533.508342 210.712117 
L 536.408701 220.399065 
L 537.85888 223.686551 
L 539.30906 225.27368 
L 540.759239 225.843736 
L 542.209418 225.998657 
L 548.010136 226.036643 
L 595.866053 226.128217 
L 597.316233 226.401979 
L 598.766412 227.17281 
L 600.216591 228.823423 
L 601.666771 231.495117 
L 604.567129 238.319368 
L 606.017309 242.213836 
L 607.467488 247.504084 
L 610.367847 261.653204 
L 611.818026 265.215632 
L 613.268205 262.752089 
L 616.168564 248.4105 
L 617.618743 245.490677 
L 619.068923 247.86629 
L 621.969281 259.267039 
L 623.41946 262.475004 
L 624.86964 261.58675 
L 626.319819 256.533452 
L 630.670357 233.67933 
L 632.120536 229.388032 
L 633.570716 227.233507 
L 635.020895 226.382771 
L 636.471074 226.129709 
L 636.471074 226.129709 
" clip-path="url(#p53bfd44cbd)" style="fill: none; stroke: #ff7f0e; stroke-width: 2; stroke-linecap: square"/>
   </g>
   <g id="LineCollection_1">
    <path d="M 521.877904 306.175593 
L 521.877904 134.745691 
" clip-path="url(#p53bfd44cbd)" style="fill: none; stroke-dasharray: 7.4,3.2; stroke-dashoffset: 0; stroke: #000000; stroke-width: 2"/>
    <path d="M 536.379697 306.175593 
L 536.379697 134.745691 
" clip-path="url(#p53bfd44cbd)" style="fill: none; stroke-dasharray: 7.4,3.2; stroke-dashoffset: 0; stroke: #000000; stroke-width: 2"/>
    <path d="M 565.383284 306.175593 
L 565.383284 134.745691 
" clip-path="url(#p53bfd44cbd)" style="fill: none; stroke-dasharray: 7.4,3.2; stroke-dashoffset: 0; stroke: #000000; stroke-width: 2"/>
    <path d="M 623.390457 306.175593 
L 623.390457 134.745691 
" clip-path="url(#p53bfd44cbd)" style="fill: none; stroke-dasharray: 7.4,3.2; stroke-dashoffset: 0; stroke: #000000; stroke-width: 2"/>
   </g>
   <g id="patch_8">
    <path d="M 394.363636 333.490909 
L 394.363636 86.4 
" style="fill: none; stroke: #000000; stroke-width: 0.8; stroke-linejoin: miter; stroke-linecap: square"/>
   </g>
   <g id="patch_9">
    <path d="M 648 333.490909 
L 648 86.4 
" style="fill: none; stroke: #000000; stroke-width: 0.8; stroke-linejoin: miter; stroke-linecap: square"/>
   </g>
   <g id="patch_10">
    <path d="M 394.363636 333.490909 
L 648 333.490909 
" style="fill: none; stroke: #000000; stroke-width: 0.8; stroke-linejoin: miter; stroke-linecap: square"/>
   </g>
   <g id="patch_11">
    <path d="M 394.363636 86.4 
L 648 86.4 
" style="fill: none; stroke: #000000; stroke-width: 0.8; stroke-linejoin: miter; stroke-linecap: square"/>
   </g>
   <g id="text_24">
    <!-- unit_43 -->
    <g transform="translate(498.922756 80.4)scale(0.12 -0.12)">
     <defs>
      <path id="DejaVuSans-75" d="M 544 1381 
L 544 3500 
L 1119 3500 
L 1119 1403 
Q 1119 906 1312 657 
Q 1506 409 1894 409 
Q 2359 409 2629 706 
Q 2900 1003 2900 1516 
L 2900 3500 
L 3475 3500 
L 3475 0 
L 2900 0 
L 2900 538 
Q 2691 219 2414 64 
Q 2138 -91 1772 -91 
Q 1169 -91 856 284 
Q 544 659 544 1381 
z
M 1991 3584 
L 1991 3584 
z
" transform="scale(0.015625)"/>
      <path id="DejaVuSans-6e" d="M 3513 2113 
L 3513 0 
L 2938 0 
L 2938 2094 
Q 2938 2591 2744 2837 
Q 2550 3084 2163 3084 
Q 1697 3084 1428 2787 
Q 1159 2491 1159 1978 
L 1159 0 
L 581 0 
L 581 3500 
L 1159 3500 
L 1159 2956 
Q 1366 3272 1645 3428 
Q 1925 3584 2291 3584 
Q 2894 3584 3203 3211 
Q 3513 2838 3513 2113 
z
" transform="scale(0.015625)"/>
      <path id="DejaVuSans-69" d="M 603 3500 
L 1178 3500 
L 1178 0 
L 603 0 
L 603 3500 
z
M 603 4863 
L 1178 4863 
L 1178 4134 
L 603 4134 
L 603 4863 
z
" transform="scale(0.015625)"/>
      <path id="DejaVuSans-74" d="M 1172 4494 
L 1172 3500 
L 2356 3500 
L 2356 3053 
L 1172 3053 
L 1172 1153 
Q 1172 725 1289 603 
Q 1406 481 1766 481 
L 2356 481 
L 2356 0 
L 1766 0 
Q 1100 0 847 248 
Q 594 497 594 1153 
L 594 3053 
L 172 3053 
L 172 3500 
L 594 3500 
L 594 4494 
L 1172 4494 
z
" transform="scale(0.015625)"/>
      <path id="DejaVuSans-5f" d="M 3263 -1063 
L 3263 -1509 
L -63 -1509 
L -63 -1063 
L 3263 -1063 
z
" transform="scale(0.015625)"/>
      <path id="DejaVuSans-33" d="M 2597 2516 
Q 3050 2419 3304 2112 
Q 3559 1806 3559 1356 
Q 3559 666 3084 287 
Q 2609 -91 1734 -91 
Q 1441 -91 1130 -33 
Q 819 25 488 141 
L 488 750 
Q 750 597 1062 519 
Q 1375 441 1716 441 
Q 2309 441 2620 675 
Q 2931 909 2931 1356 
Q 2931 1769 2642 2001 
Q 2353 2234 1838 2234 
L 1294 2234 
L 1294 2753 
L 1863 2753 
Q 2328 2753 2575 2939 
Q 2822 3125 2822 3475 
Q 2822 3834 2567 4026 
Q 2313 4219 1838 4219 
Q 1578 4219 1281 4162 
Q 984 4106 628 3988 
L 628 4550 
Q 988 4650 1302 4700 
Q 1616 4750 1894 4750 
Q 2613 4750 3031 4423 
Q 3450 4097 3450 3541 
Q 3450 3153 3228 2886 
Q 3006 2619 2597 2516 
z
" transform="scale(0.015625)"/>
     </defs>
     <use xlink:href="#DejaVuSans-75"/>
     <use xlink:href="#DejaVuSans-6e" x="63.378906"/>
     <use xlink:href="#DejaVuSans-69" x="126.757812"/>
     <use xlink:href="#DejaVuSans-74" x="154.541016"/>
     <use xlink:href="#DejaVuSans-5f" x="193.75"/>
     <use xlink:href="#DejaVuSans-34" x="243.75"/>
     <use xlink:href="#DejaVuSans-33" x="307.373047"/>
    </g>
   </g>
  </g>
  <g id="axes_3">
   <g id="patch_12">
    <path d="M 90 630 
L 343.636364 630 
L 343.636364 382.909091 
L 90 382.909091 
z
" style="fill: #ffffff"/>
   </g>
   <g id="matplotlib.axis_5">
    <g id="xtick_12">
     <g id="line2d_28">
      <g>
       <use xlink:href="#ma01281ad2e" x="90" y="630" style="stroke: #000000; stroke-width: 0.8"/>
      </g>
     </g>
     <g id="text_25">
      <!-- 0.0 -->
      <g transform="translate(82.048438 644.598437)scale(0.1 -0.1)">
       <use xlink:href="#DejaVuSans-30"/>
       <use xlink:href="#DejaVuSans-2e" x="63.623047"/>
       <use xlink:href="#DejaVuSans-30" x="95.410156"/>
      </g>
     </g>
    </g>
    <g id="xtick_13">
     <g id="line2d_29">
      <g>
       <use xlink:href="#ma01281ad2e" x="140.727273" y="630" style="stroke: #000000; stroke-width: 0.8"/>
      </g>
     </g>
     <g id="text_26">
      <!-- 0.2 -->
      <g transform="translate(132.77571 644.598437)scale(0.1 -0.1)">
       <use xlink:href="#DejaVuSans-30"/>
       <use xlink:href="#DejaVuSans-2e" x="63.623047"/>
       <use xlink:href="#DejaVuSans-32" x="95.410156"/>
      </g>
     </g>
    </g>
    <g id="xtick_14">
     <g id="line2d_30">
      <g>
       <use xlink:href="#ma01281ad2e" x="191.454545" y="630" style="stroke: #000000; stroke-width: 0.8"/>
      </g>
     </g>
     <g id="text_27">
      <!-- 0.4 -->
      <g transform="translate(183.502983 644.598437)scale(0.1 -0.1)">
       <use xlink:href="#DejaVuSans-30"/>
       <use xlink:href="#DejaVuSans-2e" x="63.623047"/>
       <use xlink:href="#DejaVuSans-34" x="95.410156"/>
      </g>
     </g>
    </g>
    <g id="xtick_15">
     <g id="line2d_31">
      <g>
       <use xlink:href="#ma01281ad2e" x="242.181818" y="630" style="stroke: #000000; stroke-width: 0.8"/>
      </g>
     </g>
     <g id="text_28">
      <!-- 0.6 -->
      <g transform="translate(234.230256 644.598437)scale(0.1 -0.1)">
       <use xlink:href="#DejaVuSans-30"/>
       <use xlink:href="#DejaVuSans-2e" x="63.623047"/>
       <use xlink:href="#DejaVuSans-36" x="95.410156"/>
      </g>
     </g>
    </g>
    <g id="xtick_16">
     <g id="line2d_32">
      <g>
       <use xlink:href="#ma01281ad2e" x="292.909091" y="630" style="stroke: #000000; stroke-width: 0.8"/>
      </g>
     </g>
     <g id="text_29">
      <!-- 0.8 -->
      <g transform="translate(284.957528 644.598437)scale(0.1 -0.1)">
       <use xlink:href="#DejaVuSans-30"/>
       <use xlink:href="#DejaVuSans-2e" x="63.623047"/>
       <use xlink:href="#DejaVuSans-38" x="95.410156"/>
      </g>
     </g>
    </g>
    <g id="xtick_17">
     <g id="line2d_33">
      <g>
       <use xlink:href="#ma01281ad2e" x="343.636364" y="630" style="stroke: #000000; stroke-width: 0.8"/>
      </g>
     </g>
     <g id="text_30">
      <!-- 1.0 -->
      <g transform="translate(335.684801 644.598437)scale(0.1 -0.1)">
       <use xlink:href="#DejaVuSans-31"/>
       <use xlink:href="#DejaVuSans-2e" x="63.623047"/>
       <use xlink:href="#DejaVuSans-30" x="95.410156"/>
      </g>
     </g>
    </g>
   </g>
   <g id="matplotlib.axis_6">
    <g id="ytick_13">
     <g id="line2d_34">
      <g>
       <use xlink:href="#m7aa3078022" x="90" y="630" style="stroke: #000000; stroke-width: 0.8"/>
      </g>
     </g>
     <g id="text_31">
      <!-- 0.0 -->
      <g transform="translate(67.096875 633.799219)scale(0.1 -0.1)">
       <use xlink:href="#DejaVuSans-30"/>
       <use xlink:href="#DejaVuSans-2e" x="63.623047"/>
       <use xlink:href="#DejaVuSans-30" x="95.410156"/>
      </g>
     </g>
    </g>
    <g id="ytick_14">
     <g id="line2d_35">
      <g>
       <use xlink:href="#m7aa3078022" x="90" y="580.581818" style="stroke: #000000; stroke-width: 0.8"/>
      </g>
     </g>
     <g id="text_32">
      <!-- 0.2 -->
      <g transform="translate(67.096875 584.381037)scale(0.1 -0.1)">
       <use xlink:href="#DejaVuSans-30"/>
       <use xlink:href="#DejaVuSans-2e" x="63.623047"/>
       <use xlink:href="#DejaVuSans-32" x="95.410156"/>
      </g>
     </g>
    </g>
    <g id="ytick_15">
     <g id="line2d_36">
      <g>
       <use xlink:href="#m7aa3078022" x="90" y="531.163636" style="stroke: #000000; stroke-width: 0.8"/>
      </g>
     </g>
     <g id="text_33">
      <!-- 0.4 -->
      <g transform="translate(67.096875 534.962855)scale(0.1 -0.1)">
       <use xlink:href="#DejaVuSans-30"/>
       <use xlink:href="#DejaVuSans-2e" x="63.623047"/>
       <use xlink:href="#DejaVuSans-34" x="95.410156"/>
      </g>
     </g>
    </g>
    <g id="ytick_16">
     <g id="line2d_37">
      <g>
       <use xlink:href="#m7aa3078022" x="90" y="481.745455" style="stroke: #000000; stroke-width: 0.8"/>
      </g>
     </g>
     <g id="text_34">
      <!-- 0.6 -->
      <g transform="translate(67.096875 485.544673)scale(0.1 -0.1)">
       <use xlink:href="#DejaVuSans-30"/>
       <use xlink:href="#DejaVuSans-2e" x="63.623047"/>
       <use xlink:href="#DejaVuSans-36" x="95.410156"/>
      </g>
     </g>
    </g>
    <g id="ytick_17">
     <g id="line2d_38">
      <g>
       <use xlink:href="#m7aa3078022" x="90" y="432.327273" style="stroke: #000000; stroke-width: 0.8"/>
      </g>
     </g>
     <g id="text_35">
      <!-- 0.8 -->
      <g transform="translate(67.096875 436.126491)scale(0.1 -0.1)">
       <use xlink:href="#DejaVuSans-30"/>
       <use xlink:href="#DejaVuSans-2e" x="63.623047"/>
       <use xlink:href="#DejaVuSans-38" x="95.410156"/>
      </g>
     </g>
    </g>
    <g id="ytick_18">
     <g id="line2d_39">
      <g>
       <use xlink:href="#m7aa3078022" x="90" y="382.909091" style="stroke: #000000; stroke-width: 0.8"/>
      </g>
     </g>
     <g id="text_36">
      <!-- 1.0 -->
      <g transform="translate(67.096875 386.70831)scale(0.1 -0.1)">
       <use xlink:href="#DejaVuSans-31"/>
       <use xlink:href="#DejaVuSans-2e" x="63.623047"/>
       <use xlink:href="#DejaVuSans-30" x="95.410156"/>
      </g>
     </g>
    </g>
   </g>
   <g id="patch_13">
    <path d="M 90 630 
L 90 382.909091 
" style="fill: none; stroke: #000000; stroke-width: 0.8; stroke-linejoin: miter; stroke-linecap: square"/>
   </g>
   <g id="patch_14">
    <path d="M 343.636364 630 
L 343.636364 382.909091 
" style="fill: none; stroke: #000000; stroke-width: 0.8; stroke-linejoin: miter; stroke-linecap: square"/>
   </g>
   <g id="patch_15">
    <path d="M 90 630 
L 343.636364 630 
" style="fill: none; stroke: #000000; stroke-width: 0.8; stroke-linejoin: miter; stroke-linecap: square"/>
   </g>
   <g id="patch_16">
    <path d="M 90 382.909091 
L 343.636364 382.909091 
" style="fill: none; stroke: #000000; stroke-width: 0.8; stroke-linejoin: miter; stroke-linecap: square"/>
   </g>
  </g>
  <g id="axes_4">
   <g id="patch_17">
    <path d="M 394.363636 630 
L 648 630 
L 648 382.909091 
L 394.363636 382.909091 
z
" style="fill: #ffffff"/>
   </g>
   <g id="matplotlib.axis_7">
    <g id="xtick_18">
     <g id="line2d_40">
      <g>
       <use xlink:href="#ma01281ad2e" x="405.863558" y="630" style="stroke: #000000; stroke-width: 0.8"/>
      </g>
     </g>
     <g id="text_37">
      <!-- 0 -->
      <g transform="translate(402.682308 644.598437)scale(0.1 -0.1)">
       <use xlink:href="#DejaVuSans-30"/>
      </g>
     </g>
    </g>
    <g id="xtick_19">
     <g id="line2d_41">
      <g>
       <use xlink:href="#ma01281ad2e" x="463.870731" y="630" style="stroke: #000000; stroke-width: 0.8"/>
      </g>
     </g>
     <g id="text_38">
      <!-- 2000 -->
      <g transform="translate(451.145731 644.598437)scale(0.1 -0.1)">
       <use xlink:href="#DejaVuSans-32"/>
       <use xlink:href="#DejaVuSans-30" x="63.623047"/>
       <use xlink:href="#DejaVuSans-30" x="127.246094"/>
       <use xlink:href="#DejaVuSans-30" x="190.869141"/>
      </g>
     </g>
    </g>
    <g id="xtick_20">
     <g id="line2d_42">
      <g>
       <use xlink:href="#ma01281ad2e" x="521.877904" y="630" style="stroke: #000000; stroke-width: 0.8"/>
      </g>
     </g>
     <g id="text_39">
      <!-- 4000 -->
      <g transform="translate(509.152904 644.598437)scale(0.1 -0.1)">
       <use xlink:href="#DejaVuSans-34"/>
       <use xlink:href="#DejaVuSans-30" x="63.623047"/>
       <use xlink:href="#DejaVuSans-30" x="127.246094"/>
       <use xlink:href="#DejaVuSans-30" x="190.869141"/>
      </g>
     </g>
    </g>
    <g id="xtick_21">
     <g id="line2d_43">
      <g>
       <use xlink:href="#ma01281ad2e" x="579.885077" y="630" style="stroke: #000000; stroke-width: 0.8"/>
      </g>
     </g>
     <g id="text_40">
      <!-- 6000 -->
      <g transform="translate(567.160077 644.598437)scale(0.1 -0.1)">
       <use xlink:href="#DejaVuSans-36"/>
       <use xlink:href="#DejaVuSans-30" x="63.623047"/>
       <use xlink:href="#DejaVuSans-30" x="127.246094"/>
       <use xlink:href="#DejaVuSans-30" x="190.869141"/>
      </g>
     </g>
    </g>
    <g id="xtick_22">
     <g id="line2d_44">
      <g>
       <use xlink:href="#ma01281ad2e" x="637.89225" y="630" style="stroke: #000000; stroke-width: 0.8"/>
      </g>
     </g>
     <g id="text_41">
      <!-- 8000 -->
      <g transform="translate(625.16725 644.598437)scale(0.1 -0.1)">
       <use xlink:href="#DejaVuSans-38"/>
       <use xlink:href="#DejaVuSans-30" x="63.623047"/>
       <use xlink:href="#DejaVuSans-30" x="127.246094"/>
       <use xlink:href="#DejaVuSans-30" x="190.869141"/>
      </g>
     </g>
    </g>
   </g>
   <g id="matplotlib.axis_8">
    <g id="ytick_19">
     <g id="line2d_45">
      <g>
       <use xlink:href="#m7aa3078022" x="394.363636" y="630" style="stroke: #000000; stroke-width: 0.8"/>
      </g>
     </g>
     <g id="text_42">
      <!-- −2 -->
      <g transform="translate(372.621449 633.799219)scale(0.1 -0.1)">
       <use xlink:href="#DejaVuSans-2212"/>
       <use xlink:href="#DejaVuSans-32" x="83.789062"/>
      </g>
     </g>
    </g>
    <g id="ytick_20">
     <g id="line2d_46">
      <g>
       <use xlink:href="#m7aa3078022" x="394.363636" y="583.299301" style="stroke: #000000; stroke-width: 0.8"/>
      </g>
     </g>
     <g id="text_43">
      <!-- −1 -->
      <g transform="translate(372.621449 587.098519)scale(0.1 -0.1)">
       <use xlink:href="#DejaVuSans-2212"/>
       <use xlink:href="#DejaVuSans-31" x="83.789062"/>
      </g>
     </g>
    </g>
    <g id="ytick_21">
     <g id="line2d_47">
      <g>
       <use xlink:href="#m7aa3078022" x="394.363636" y="536.598601" style="stroke: #000000; stroke-width: 0.8"/>
      </g>
     </g>
     <g id="text_44">
      <!-- 0 -->
      <g transform="translate(381.001136 540.39782)scale(0.1 -0.1)">
       <use xlink:href="#DejaVuSans-30"/>
      </g>
     </g>
    </g>
    <g id="ytick_22">
     <g id="line2d_48">
      <g>
       <use xlink:href="#m7aa3078022" x="394.363636" y="489.897902" style="stroke: #000000; stroke-width: 0.8"/>
      </g>
     </g>
     <g id="text_45">
      <!-- 1 -->
      <g transform="translate(381.001136 493.697121)scale(0.1 -0.1)">
       <use xlink:href="#DejaVuSans-31"/>
      </g>
     </g>
    </g>
    <g id="ytick_23">
     <g id="line2d_49">
      <g>
       <use xlink:href="#m7aa3078022" x="394.363636" y="443.197203" style="stroke: #000000; stroke-width: 0.8"/>
      </g>
     </g>
     <g id="text_46">
      <!-- 2 -->
      <g transform="translate(381.001136 446.996422)scale(0.1 -0.1)">
       <use xlink:href="#DejaVuSans-32"/>
      </g>
     </g>
    </g>
    <g id="ytick_24">
     <g id="line2d_50">
      <g>
       <use xlink:href="#m7aa3078022" x="394.363636" y="396.496504" style="stroke: #000000; stroke-width: 0.8"/>
      </g>
     </g>
     <g id="text_47">
      <!-- 3 -->
      <g transform="translate(381.001136 400.295722)scale(0.1 -0.1)">
       <use xlink:href="#DejaVuSans-33"/>
      </g>
     </g>
    </g>
   </g>
   <g id="line2d_51">
    <path d="M 413.028631 721 
L 413.143459 711.397382 
L 414.593638 643.515295 
L 416.043817 672.957545 
L 417.038576 721 
M 426.086745 721 
L 426.195073 707.59676 
L 427.645252 686.373616 
L 428.270415 721 
M 430.741117 721 
L 431.99579 670.17337 
L 433.445969 662.721945 
L 434.896148 667.49513 
L 436.346328 652.169562 
L 437.796507 624.046084 
L 439.246686 613.072878 
L 440.696866 608.394904 
L 442.147045 562.893097 
L 443.597224 541.661014 
L 445.047404 568.791106 
L 446.497583 604.356295 
L 447.947762 601.469423 
L 449.397942 556.6793 
L 450.848121 575.052232 
L 452.2983 636.523234 
L 453.74848 690.963666 
L 455.198659 661.535166 
L 456.648838 590.202439 
L 458.099018 555.374247 
L 459.549197 552.619041 
L 460.999376 536.289233 
L 462.449556 512.159972 
L 463.899735 512.587607 
L 465.349914 520.852685 
L 466.800094 515.70071 
L 468.250273 519.177685 
L 469.700452 527.095601 
L 471.150632 532.105875 
L 472.600811 534.25152 
L 474.05099 534.381706 
L 475.501169 537.519385 
L 476.951349 543.205172 
L 479.851707 550.452977 
L 481.301887 551.193069 
L 482.752066 543.31695 
L 485.652425 519.305698 
L 487.102604 513.602162 
L 488.552783 519.555536 
L 490.002963 517.386716 
L 491.453142 480.075608 
L 492.903321 463.388468 
L 494.353501 494.261392 
L 495.80368 518.663742 
L 497.253859 526.982218 
L 498.704039 532.610221 
L 500.154218 531.600461 
L 501.604397 514.564229 
L 503.054577 489.542914 
L 504.504756 492.594083 
L 505.954935 521.224915 
L 507.405115 544.076151 
L 508.855294 579.335201 
L 510.305473 621.353453 
L 511.755653 625.780197 
L 513.205832 651.730803 
L 514.656011 702.314489 
L 516.106191 647.148766 
L 517.55637 568.954245 
L 519.006549 541.918382 
L 520.456729 541.937073 
L 521.906908 552.393388 
L 523.357087 550.014344 
L 524.807266 542.415098 
L 526.257446 538.8466 
L 527.707625 536.552803 
L 529.157804 559.572443 
L 530.607984 615.855926 
L 532.058163 652.599317 
L 533.508342 632.983538 
L 534.958522 572.333527 
L 536.408701 553.801314 
L 537.85888 556.013402 
L 539.30906 545.567565 
L 540.759239 536.576853 
L 542.209418 530.232549 
L 543.659598 528.142361 
L 545.109777 563.567972 
L 546.559956 636.591239 
L 548.010136 683.081438 
L 549.460315 703.230098 
L 550.935475 721 
M 555.310789 721 
L 556.711212 558.714919 
L 558.161391 494.865978 
L 559.61157 532.35602 
L 562.511929 631.440555 
L 563.962108 665.40784 
L 565.412288 669.026735 
L 566.862467 630.472768 
L 568.312646 552.732463 
L 569.762826 510.124611 
L 571.213005 543.23674 
L 572.663184 586.839036 
L 574.113363 563.432792 
L 575.563543 512.983947 
L 577.013722 490.713791 
L 578.463901 496.355763 
L 579.914081 515.645903 
L 581.36426 511.512208 
L 582.814439 489.92687 
L 584.264619 487.336128 
L 585.714798 482.87775 
L 587.164977 472.643649 
L 588.615157 455.434274 
L 590.065336 395.891001 
L 591.515515 382.909091 
L 594.415874 523.827751 
L 595.866053 577.781926 
L 597.316233 655.386781 
L 598.766412 685.478862 
L 600.216591 617.671631 
L 601.666771 567.153476 
L 603.11695 600.596456 
L 604.567129 678.486072 
L 605.165349 721 
M 614.246808 721 
L 614.718385 654.618316 
L 616.168564 561.824002 
L 617.618743 544.826054 
L 619.068923 537.090804 
L 620.519102 523.696906 
L 621.969281 522.090274 
L 623.41946 532.461878 
L 624.86964 546.699033 
L 626.319819 573.896241 
L 627.769998 677.892501 
L 628.060222 721 
L 628.060222 721 
" clip-path="url(#pccc32f9a74)" style="fill: none; stroke: #1f77b4; stroke-width: 1.5; stroke-linecap: square"/>
   </g>
   <g id="patch_18">
    <path d="M 394.363636 630 
L 394.363636 382.909091 
" style="fill: none; stroke: #000000; stroke-width: 0.8; stroke-linejoin: miter; stroke-linecap: square"/>
   </g>
   <g id="patch_19">
    <path d="M 648 630 
L 648 382.909091 
" style="fill: none; stroke: #000000; stroke-width: 0.8; stroke-linejoin: miter; stroke-linecap: square"/>
   </g>
   <g id="patch_20">
    <path d="M 394.363636 630 
L 648 630 
" style="fill: none; stroke: #000000; stroke-width: 0.8; stroke-linejoin: miter; stroke-linecap: square"/>
   </g>
   <g id="patch_21">
    <path d="M 394.363636 382.909091 
L 648 382.909091 
" style="fill: none; stroke: #000000; stroke-width: 0.8; stroke-linejoin: miter; stroke-linecap: square"/>
   </g>
   <g id="text_48">
    <!-- explained variance -->
    <g transform="translate(464.181818 376.909091)scale(0.12 -0.12)">
     <defs>
      <path id="DejaVuSans-65" d="M 3597 1894 
L 3597 1613 
L 953 1613 
Q 991 1019 1311 708 
Q 1631 397 2203 397 
Q 2534 397 2845 478 
Q 3156 559 3463 722 
L 3463 178 
Q 3153 47 2828 -22 
Q 2503 -91 2169 -91 
Q 1331 -91 842 396 
Q 353 884 353 1716 
Q 353 2575 817 3079 
Q 1281 3584 2069 3584 
Q 2775 3584 3186 3129 
Q 3597 2675 3597 1894 
z
M 3022 2063 
Q 3016 2534 2758 2815 
Q 2500 3097 2075 3097 
Q 1594 3097 1305 2825 
Q 1016 2553 972 2059 
L 3022 2063 
z
" transform="scale(0.015625)"/>
      <path id="DejaVuSans-78" d="M 3513 3500 
L 2247 1797 
L 3578 0 
L 2900 0 
L 1881 1375 
L 863 0 
L 184 0 
L 1544 1831 
L 300 3500 
L 978 3500 
L 1906 2253 
L 2834 3500 
L 3513 3500 
z
" transform="scale(0.015625)"/>
      <path id="DejaVuSans-70" d="M 1159 525 
L 1159 -1331 
L 581 -1331 
L 581 3500 
L 1159 3500 
L 1159 2969 
Q 1341 3281 1617 3432 
Q 1894 3584 2278 3584 
Q 2916 3584 3314 3078 
Q 3713 2572 3713 1747 
Q 3713 922 3314 415 
Q 2916 -91 2278 -91 
Q 1894 -91 1617 61 
Q 1341 213 1159 525 
z
M 3116 1747 
Q 3116 2381 2855 2742 
Q 2594 3103 2138 3103 
Q 1681 3103 1420 2742 
Q 1159 2381 1159 1747 
Q 1159 1113 1420 752 
Q 1681 391 2138 391 
Q 2594 391 2855 752 
Q 3116 1113 3116 1747 
z
" transform="scale(0.015625)"/>
      <path id="DejaVuSans-6c" d="M 603 4863 
L 1178 4863 
L 1178 0 
L 603 0 
L 603 4863 
z
" transform="scale(0.015625)"/>
      <path id="DejaVuSans-61" d="M 2194 1759 
Q 1497 1759 1228 1600 
Q 959 1441 959 1056 
Q 959 750 1161 570 
Q 1363 391 1709 391 
Q 2188 391 2477 730 
Q 2766 1069 2766 1631 
L 2766 1759 
L 2194 1759 
z
M 3341 1997 
L 3341 0 
L 2766 0 
L 2766 531 
Q 2569 213 2275 61 
Q 1981 -91 1556 -91 
Q 1019 -91 701 211 
Q 384 513 384 1019 
Q 384 1609 779 1909 
Q 1175 2209 1959 2209 
L 2766 2209 
L 2766 2266 
Q 2766 2663 2505 2880 
Q 2244 3097 1772 3097 
Q 1472 3097 1187 3025 
Q 903 2953 641 2809 
L 641 3341 
Q 956 3463 1253 3523 
Q 1550 3584 1831 3584 
Q 2591 3584 2966 3190 
Q 3341 2797 3341 1997 
z
" transform="scale(0.015625)"/>
      <path id="DejaVuSans-64" d="M 2906 2969 
L 2906 4863 
L 3481 4863 
L 3481 0 
L 2906 0 
L 2906 525 
Q 2725 213 2448 61 
Q 2172 -91 1784 -91 
Q 1150 -91 751 415 
Q 353 922 353 1747 
Q 353 2572 751 3078 
Q 1150 3584 1784 3584 
Q 2172 3584 2448 3432 
Q 2725 3281 2906 2969 
z
M 947 1747 
Q 947 1113 1208 752 
Q 1469 391 1925 391 
Q 2381 391 2643 752 
Q 2906 1113 2906 1747 
Q 2906 2381 2643 2742 
Q 2381 3103 1925 3103 
Q 1469 3103 1208 2742 
Q 947 2381 947 1747 
z
" transform="scale(0.015625)"/>
      <path id="DejaVuSans-20" transform="scale(0.015625)"/>
      <path id="DejaVuSans-76" d="M 191 3500 
L 800 3500 
L 1894 563 
L 2988 3500 
L 3597 3500 
L 2284 0 
L 1503 0 
L 191 3500 
z
" transform="scale(0.015625)"/>
      <path id="DejaVuSans-72" d="M 2631 2963 
Q 2534 3019 2420 3045 
Q 2306 3072 2169 3072 
Q 1681 3072 1420 2755 
Q 1159 2438 1159 1844 
L 1159 0 
L 581 0 
L 581 3500 
L 1159 3500 
L 1159 2956 
Q 1341 3275 1631 3429 
Q 1922 3584 2338 3584 
Q 2397 3584 2469 3576 
Q 2541 3569 2628 3553 
L 2631 2963 
z
" transform="scale(0.015625)"/>
      <path id="DejaVuSans-63" d="M 3122 3366 
L 3122 2828 
Q 2878 2963 2633 3030 
Q 2388 3097 2138 3097 
Q 1578 3097 1268 2742 
Q 959 2388 959 1747 
Q 959 1106 1268 751 
Q 1578 397 2138 397 
Q 2388 397 2633 464 
Q 2878 531 3122 666 
L 3122 134 
Q 2881 22 2623 -34 
Q 2366 -91 2075 -91 
Q 1284 -91 818 406 
Q 353 903 353 1747 
Q 353 2603 823 3093 
Q 1294 3584 2113 3584 
Q 2378 3584 2631 3529 
Q 2884 3475 3122 3366 
z
" transform="scale(0.015625)"/>
     </defs>
     <use xlink:href="#DejaVuSans-65"/>
     <use xlink:href="#DejaVuSans-78" x="59.773438"/>
     <use xlink:href="#DejaVuSans-70" x="118.953125"/>
     <use xlink:href="#DejaVuSans-6c" x="182.429688"/>
     <use xlink:href="#DejaVuSans-61" x="210.212891"/>
     <use xlink:href="#DejaVuSans-69" x="271.492188"/>
     <use xlink:href="#DejaVuSans-6e" x="299.275391"/>
     <use xlink:href="#DejaVuSans-65" x="362.654297"/>
     <use xlink:href="#DejaVuSans-64" x="424.177734"/>
     <use xlink:href="#DejaVuSans-20" x="487.654297"/>
     <use xlink:href="#DejaVuSans-76" x="519.441406"/>
     <use xlink:href="#DejaVuSans-61" x="578.621094"/>
     <use xlink:href="#DejaVuSans-72" x="639.900391"/>
     <use xlink:href="#DejaVuSans-69" x="681.013672"/>
     <use xlink:href="#DejaVuSans-61" x="708.796875"/>
     <use xlink:href="#DejaVuSans-6e" x="770.076172"/>
     <use xlink:href="#DejaVuSans-63" x="833.455078"/>
     <use xlink:href="#DejaVuSans-65" x="888.435547"/>
    </g>
   </g>
  </g>
 </g>
 <defs>
  <clipPath id="p53bfd44cbd">
   <rect x="394.363636" y="86.4" width="253.636364" height="247.090909"/>
  </clipPath>
  <clipPath id="pccc32f9a74">
   <rect x="394.363636" y="382.909091" width="253.636364" height="247.090909"/>
  </clipPath>
 </defs>
</svg>
