<?xml version="1.0" encoding="utf-8" standalone="no"?>
<!DOCTYPE svg PUBLIC "-//W3C//DTD SVG 1.1//EN"
  "http://www.w3.org/Graphics/SVG/1.1/DTD/svg11.dtd">
<svg xmlns:xlink="http://www.w3.org/1999/xlink" width="720pt" height="720pt" viewBox="0 0 720 720" xmlns="http://www.w3.org/2000/svg" version="1.1">
 <metadata>
  <rdf:RDF xmlns:dc="http://purl.org/dc/elements/1.1/" xmlns:cc="http://creativecommons.org/ns#" xmlns:rdf="http://www.w3.org/1999/02/22-rdf-syntax-ns#">
   <cc:Work>
    <dc:type rdf:resource="http://purl.org/dc/dcmitype/StillImage"/>
    <dc:date>2023-12-19T18:20:58.514904</dc:date>
    <dc:format>image/svg+xml</dc:format>
    <dc:creator>
     <cc:Agent>
      <dc:title>Matplotlib v3.5.2, https://matplotlib.org/</dc:title>
     </cc:Agent>
    </dc:creator>
   </cc:Work>
  </rdf:RDF>
 </metadata>
 <defs>
  <style type="text/css">*{stroke-linejoin: round; stroke-linecap: butt}</style>
 </defs>
 <g id="figure_1">
  <g id="patch_1">
   <path d="M 0 720 
L 720 720 
L 720 0 
L 0 0 
z
" style="fill: #ffffff"/>
  </g>
  <g id="axes_1">
   <g id="patch_2">
    <path d="M 90 333.490909 
L 343.636364 333.490909 
L 343.636364 86.4 
L 90 86.4 
z
" style="fill: #ffffff"/>
   </g>
   <g id="matplotlib.axis_1">
    <g id="xtick_1">
     <g id="line2d_1">
      <defs>
       <path id="m398fa0350a" d="M 0 0 
L 0 3.5 
" style="stroke: #000000; stroke-width: 0.8"/>
      </defs>
      <g>
       <use xlink:href="#m398fa0350a" x="90" y="333.490909" style="stroke: #000000; stroke-width: 0.8"/>
      </g>
     </g>
     <g id="text_1">
      <!-- 0.0 -->
      <g transform="translate(82.048438 348.089347)scale(0.1 -0.1)">
       <defs>
        <path id="DejaVuSans-30" d="M 2034 4250 
Q 1547 4250 1301 3770 
Q 1056 3291 1056 2328 
Q 1056 1369 1301 889 
Q 1547 409 2034 409 
Q 2525 409 2770 889 
Q 3016 1369 3016 2328 
Q 3016 3291 2770 3770 
Q 2525 4250 2034 4250 
z
M 2034 4750 
Q 2819 4750 3233 4129 
Q 3647 3509 3647 2328 
Q 3647 1150 3233 529 
Q 2819 -91 2034 -91 
Q 1250 -91 836 529 
Q 422 1150 422 2328 
Q 422 3509 836 4129 
Q 1250 4750 2034 4750 
z
" transform="scale(0.015625)"/>
        <path id="DejaVuSans-2e" d="M 684 794 
L 1344 794 
L 1344 0 
L 684 0 
L 684 794 
z
" transform="scale(0.015625)"/>
       </defs>
       <use xlink:href="#DejaVuSans-30"/>
       <use xlink:href="#DejaVuSans-2e" x="63.623047"/>
       <use xlink:href="#DejaVuSans-30" x="95.410156"/>
      </g>
     </g>
    </g>
    <g id="xtick_2">
     <g id="line2d_2">
      <g>
       <use xlink:href="#m398fa0350a" x="140.727273" y="333.490909" style="stroke: #000000; stroke-width: 0.8"/>
      </g>
     </g>
     <g id="text_2">
      <!-- 0.2 -->
      <g transform="translate(132.77571 348.089347)scale(0.1 -0.1)">
       <defs>
        <path id="DejaVuSans-32" d="M 1228 531 
L 3431 531 
L 3431 0 
L 469 0 
L 469 531 
Q 828 903 1448 1529 
Q 2069 2156 2228 2338 
Q 2531 2678 2651 2914 
Q 2772 3150 2772 3378 
Q 2772 3750 2511 3984 
Q 2250 4219 1831 4219 
Q 1534 4219 1204 4116 
Q 875 4013 500 3803 
L 500 4441 
Q 881 4594 1212 4672 
Q 1544 4750 1819 4750 
Q 2544 4750 2975 4387 
Q 3406 4025 3406 3419 
Q 3406 3131 3298 2873 
Q 3191 2616 2906 2266 
Q 2828 2175 2409 1742 
Q 1991 1309 1228 531 
z
" transform="scale(0.015625)"/>
       </defs>
       <use xlink:href="#DejaVuSans-30"/>
       <use xlink:href="#DejaVuSans-2e" x="63.623047"/>
       <use xlink:href="#DejaVuSans-32" x="95.410156"/>
      </g>
     </g>
    </g>
    <g id="xtick_3">
     <g id="line2d_3">
      <g>
       <use xlink:href="#m398fa0350a" x="191.454545" y="333.490909" style="stroke: #000000; stroke-width: 0.8"/>
      </g>
     </g>
     <g id="text_3">
      <!-- 0.4 -->
      <g transform="translate(183.502983 348.089347)scale(0.1 -0.1)">
       <defs>
        <path id="DejaVuSans-34" d="M 2419 4116 
L 825 1625 
L 2419 1625 
L 2419 4116 
z
M 2253 4666 
L 3047 4666 
L 3047 1625 
L 3713 1625 
L 3713 1100 
L 3047 1100 
L 3047 0 
L 2419 0 
L 2419 1100 
L 313 1100 
L 313 1709 
L 2253 4666 
z
" transform="scale(0.015625)"/>
       </defs>
       <use xlink:href="#DejaVuSans-30"/>
       <use xlink:href="#DejaVuSans-2e" x="63.623047"/>
       <use xlink:href="#DejaVuSans-34" x="95.410156"/>
      </g>
     </g>
    </g>
    <g id="xtick_4">
     <g id="line2d_4">
      <g>
       <use xlink:href="#m398fa0350a" x="242.181818" y="333.490909" style="stroke: #000000; stroke-width: 0.8"/>
      </g>
     </g>
     <g id="text_4">
      <!-- 0.6 -->
      <g transform="translate(234.230256 348.089347)scale(0.1 -0.1)">
       <defs>
        <path id="DejaVuSans-36" d="M 2113 2584 
Q 1688 2584 1439 2293 
Q 1191 2003 1191 1497 
Q 1191 994 1439 701 
Q 1688 409 2113 409 
Q 2538 409 2786 701 
Q 3034 994 3034 1497 
Q 3034 2003 2786 2293 
Q 2538 2584 2113 2584 
z
M 3366 4563 
L 3366 3988 
Q 3128 4100 2886 4159 
Q 2644 4219 2406 4219 
Q 1781 4219 1451 3797 
Q 1122 3375 1075 2522 
Q 1259 2794 1537 2939 
Q 1816 3084 2150 3084 
Q 2853 3084 3261 2657 
Q 3669 2231 3669 1497 
Q 3669 778 3244 343 
Q 2819 -91 2113 -91 
Q 1303 -91 875 529 
Q 447 1150 447 2328 
Q 447 3434 972 4092 
Q 1497 4750 2381 4750 
Q 2619 4750 2861 4703 
Q 3103 4656 3366 4563 
z
" transform="scale(0.015625)"/>
       </defs>
       <use xlink:href="#DejaVuSans-30"/>
       <use xlink:href="#DejaVuSans-2e" x="63.623047"/>
       <use xlink:href="#DejaVuSans-36" x="95.410156"/>
      </g>
     </g>
    </g>
    <g id="xtick_5">
     <g id="line2d_5">
      <g>
       <use xlink:href="#m398fa0350a" x="292.909091" y="333.490909" style="stroke: #000000; stroke-width: 0.8"/>
      </g>
     </g>
     <g id="text_5">
      <!-- 0.8 -->
      <g transform="translate(284.957528 348.089347)scale(0.1 -0.1)">
       <defs>
        <path id="DejaVuSans-38" d="M 2034 2216 
Q 1584 2216 1326 1975 
Q 1069 1734 1069 1313 
Q 1069 891 1326 650 
Q 1584 409 2034 409 
Q 2484 409 2743 651 
Q 3003 894 3003 1313 
Q 3003 1734 2745 1975 
Q 2488 2216 2034 2216 
z
M 1403 2484 
Q 997 2584 770 2862 
Q 544 3141 544 3541 
Q 544 4100 942 4425 
Q 1341 4750 2034 4750 
Q 2731 4750 3128 4425 
Q 3525 4100 3525 3541 
Q 3525 3141 3298 2862 
Q 3072 2584 2669 2484 
Q 3125 2378 3379 2068 
Q 3634 1759 3634 1313 
Q 3634 634 3220 271 
Q 2806 -91 2034 -91 
Q 1263 -91 848 271 
Q 434 634 434 1313 
Q 434 1759 690 2068 
Q 947 2378 1403 2484 
z
M 1172 3481 
Q 1172 3119 1398 2916 
Q 1625 2713 2034 2713 
Q 2441 2713 2670 2916 
Q 2900 3119 2900 3481 
Q 2900 3844 2670 4047 
Q 2441 4250 2034 4250 
Q 1625 4250 1398 4047 
Q 1172 3844 1172 3481 
z
" transform="scale(0.015625)"/>
       </defs>
       <use xlink:href="#DejaVuSans-30"/>
       <use xlink:href="#DejaVuSans-2e" x="63.623047"/>
       <use xlink:href="#DejaVuSans-38" x="95.410156"/>
      </g>
     </g>
    </g>
    <g id="xtick_6">
     <g id="line2d_6">
      <g>
       <use xlink:href="#m398fa0350a" x="343.636364" y="333.490909" style="stroke: #000000; stroke-width: 0.8"/>
      </g>
     </g>
     <g id="text_6">
      <!-- 1.0 -->
      <g transform="translate(335.684801 348.089347)scale(0.1 -0.1)">
       <defs>
        <path id="DejaVuSans-31" d="M 794 531 
L 1825 531 
L 1825 4091 
L 703 3866 
L 703 4441 
L 1819 4666 
L 2450 4666 
L 2450 531 
L 3481 531 
L 3481 0 
L 794 0 
L 794 531 
z
" transform="scale(0.015625)"/>
       </defs>
       <use xlink:href="#DejaVuSans-31"/>
       <use xlink:href="#DejaVuSans-2e" x="63.623047"/>
       <use xlink:href="#DejaVuSans-30" x="95.410156"/>
      </g>
     </g>
    </g>
   </g>
   <g id="matplotlib.axis_2">
    <g id="ytick_1">
     <g id="line2d_7">
      <defs>
       <path id="m03a6cffb77" d="M 0 0 
L -3.5 0 
" style="stroke: #000000; stroke-width: 0.8"/>
      </defs>
      <g>
       <use xlink:href="#m03a6cffb77" x="90" y="333.490909" style="stroke: #000000; stroke-width: 0.8"/>
      </g>
     </g>
     <g id="text_7">
      <!-- 0.0 -->
      <g transform="translate(67.096875 337.290128)scale(0.1 -0.1)">
       <use xlink:href="#DejaVuSans-30"/>
       <use xlink:href="#DejaVuSans-2e" x="63.623047"/>
       <use xlink:href="#DejaVuSans-30" x="95.410156"/>
      </g>
     </g>
    </g>
    <g id="ytick_2">
     <g id="line2d_8">
      <g>
       <use xlink:href="#m03a6cffb77" x="90" y="284.072727" style="stroke: #000000; stroke-width: 0.8"/>
      </g>
     </g>
     <g id="text_8">
      <!-- 0.2 -->
      <g transform="translate(67.096875 287.871946)scale(0.1 -0.1)">
       <use xlink:href="#DejaVuSans-30"/>
       <use xlink:href="#DejaVuSans-2e" x="63.623047"/>
       <use xlink:href="#DejaVuSans-32" x="95.410156"/>
      </g>
     </g>
    </g>
    <g id="ytick_3">
     <g id="line2d_9">
      <g>
       <use xlink:href="#m03a6cffb77" x="90" y="234.654545" style="stroke: #000000; stroke-width: 0.8"/>
      </g>
     </g>
     <g id="text_9">
      <!-- 0.4 -->
      <g transform="translate(67.096875 238.453764)scale(0.1 -0.1)">
       <use xlink:href="#DejaVuSans-30"/>
       <use xlink:href="#DejaVuSans-2e" x="63.623047"/>
       <use xlink:href="#DejaVuSans-34" x="95.410156"/>
      </g>
     </g>
    </g>
    <g id="ytick_4">
     <g id="line2d_10">
      <g>
       <use xlink:href="#m03a6cffb77" x="90" y="185.236364" style="stroke: #000000; stroke-width: 0.8"/>
      </g>
     </g>
     <g id="text_10">
      <!-- 0.6 -->
      <g transform="translate(67.096875 189.035582)scale(0.1 -0.1)">
       <use xlink:href="#DejaVuSans-30"/>
       <use xlink:href="#DejaVuSans-2e" x="63.623047"/>
       <use xlink:href="#DejaVuSans-36" x="95.410156"/>
      </g>
     </g>
    </g>
    <g id="ytick_5">
     <g id="line2d_11">
      <g>
       <use xlink:href="#m03a6cffb77" x="90" y="135.818182" style="stroke: #000000; stroke-width: 0.8"/>
      </g>
     </g>
     <g id="text_11">
      <!-- 0.8 -->
      <g transform="translate(67.096875 139.617401)scale(0.1 -0.1)">
       <use xlink:href="#DejaVuSans-30"/>
       <use xlink:href="#DejaVuSans-2e" x="63.623047"/>
       <use xlink:href="#DejaVuSans-38" x="95.410156"/>
      </g>
     </g>
    </g>
    <g id="ytick_6">
     <g id="line2d_12">
      <g>
       <use xlink:href="#m03a6cffb77" x="90" y="86.4" style="stroke: #000000; stroke-width: 0.8"/>
      </g>
     </g>
     <g id="text_12">
      <!-- 1.0 -->
      <g transform="translate(67.096875 90.199219)scale(0.1 -0.1)">
       <use xlink:href="#DejaVuSans-31"/>
       <use xlink:href="#DejaVuSans-2e" x="63.623047"/>
       <use xlink:href="#DejaVuSans-30" x="95.410156"/>
      </g>
     </g>
    </g>
   </g>
   <g id="patch_3">
    <path d="M 90 333.490909 
L 90 86.4 
" style="fill: none; stroke: #000000; stroke-width: 0.8; stroke-linejoin: miter; stroke-linecap: square"/>
   </g>
   <g id="patch_4">
    <path d="M 343.636364 333.490909 
L 343.636364 86.4 
" style="fill: none; stroke: #000000; stroke-width: 0.8; stroke-linejoin: miter; stroke-linecap: square"/>
   </g>
   <g id="patch_5">
    <path d="M 90 333.490909 
L 343.636364 333.490909 
" style="fill: none; stroke: #000000; stroke-width: 0.8; stroke-linejoin: miter; stroke-linecap: square"/>
   </g>
   <g id="patch_6">
    <path d="M 90 86.4 
L 343.636364 86.4 
" style="fill: none; stroke: #000000; stroke-width: 0.8; stroke-linejoin: miter; stroke-linecap: square"/>
   </g>
  </g>
  <g id="axes_2">
   <g id="patch_7">
    <path d="M 394.363636 333.490909 
L 648 333.490909 
L 648 86.4 
L 394.363636 86.4 
z
" style="fill: #ffffff"/>
   </g>
   <g id="PolyCollection_1">
    <defs>
     <path id="mf098313a54" d="M 405.892562 -479.267582 
L 405.892562 -465.63074 
L 407.342741 -470.087206 
L 408.792921 -478.302594 
L 410.2431 -489.343822 
L 411.693279 -507.547422 
L 413.143459 -512.059934 
L 414.593638 -499.663622 
L 416.043817 -495.635988 
L 417.493997 -471.699387 
L 418.944176 -454.311786 
L 420.394355 -440.52259 
L 421.844535 -430.78503 
L 423.294714 -424.466299 
L 424.744893 -420.390681 
L 426.195073 -419.406968 
L 427.645252 -420.000639 
L 429.095431 -421.569017 
L 430.54561 -426.118086 
L 431.99579 -432.091958 
L 433.445969 -434.804906 
L 434.896148 -436.004832 
L 436.346328 -435.241122 
L 437.796507 -436.03746 
L 439.246686 -437.463664 
L 440.696866 -440.105728 
L 442.147045 -441.792745 
L 443.597224 -444.026305 
L 445.047404 -444.889504 
L 446.497583 -441.837582 
L 447.947762 -434.540086 
L 449.397942 -427.813344 
L 450.848121 -419.492919 
L 452.2983 -414.189348 
L 453.74848 -409.574439 
L 455.198659 -406.550583 
L 456.648838 -404.773429 
L 458.099018 -403.564462 
L 459.549197 -401.996907 
L 460.999376 -399.496402 
L 462.449556 -397.740496 
L 463.899735 -397.795578 
L 465.349914 -400.995896 
L 466.800094 -404.848766 
L 468.250273 -411.612938 
L 469.700452 -419.374928 
L 471.150632 -425.725665 
L 472.600811 -431.824118 
L 474.05099 -438.404923 
L 475.501169 -443.503442 
L 476.951349 -448.254432 
L 478.401528 -453.758849 
L 479.851707 -458.260793 
L 481.301887 -463.631528 
L 482.752066 -469.697158 
L 484.202245 -476.984293 
L 485.652425 -483.620697 
L 487.102604 -490.950514 
L 488.552783 -495.15684 
L 490.002963 -497.593004 
L 491.453142 -499.218524 
L 492.903321 -498.237491 
L 494.353501 -498.677103 
L 495.80368 -497.179607 
L 497.253859 -497.621903 
L 498.704039 -499.534778 
L 500.154218 -500.80714 
L 501.604397 -502.83036 
L 503.054577 -508.600564 
L 504.504756 -515.886944 
L 505.954935 -523.97664 
L 507.405115 -538.969779 
L 508.855294 -541.795818 
L 510.305473 -533.703713 
L 511.755653 -535.410063 
L 513.205832 -538.631667 
L 514.656011 -550.227261 
L 516.106191 -552.870993 
L 517.55637 -552.847799 
L 519.006549 -544.075771 
L 520.456729 -547.378849 
L 521.906908 -538.883721 
L 523.357087 -538.615425 
L 524.807266 -543.030949 
L 526.257446 -538.420597 
L 527.707625 -538.876492 
L 529.157804 -538.172939 
L 530.607984 -538.099731 
L 532.058163 -537.472674 
L 533.508342 -536.308931 
L 534.958522 -533.863752 
L 536.408701 -535.095612 
L 537.85888 -537.966859 
L 539.30906 -544.19294 
L 540.759239 -548.972522 
L 542.209418 -556.660516 
L 543.659598 -560.495728 
L 545.109777 -562.875389 
L 546.559956 -564.017334 
L 548.010136 -564.291303 
L 549.460315 -563.986342 
L 550.910494 -563.330789 
L 552.360674 -562.645578 
L 553.810853 -556.313569 
L 555.261032 -562.338144 
L 556.711212 -562.341651 
L 558.161391 -561.635577 
L 559.61157 -560.017104 
L 561.06175 -558.201279 
L 562.511929 -551.75087 
L 563.962108 -558.304065 
L 565.412288 -560.349471 
L 566.862467 -562.434865 
L 568.312646 -563.834918 
L 569.762826 -564.510834 
L 571.213005 -564.753605 
L 572.663184 -564.819582 
L 574.113363 -564.833279 
L 575.563543 -564.83576 
L 577.013722 -564.83576 
L 578.463901 -564.83576 
L 579.914081 -564.83576 
L 581.36426 -564.83576 
L 582.814439 -564.83576 
L 584.264619 -564.83576 
L 585.714798 -564.83576 
L 587.164977 -564.83576 
L 588.615157 -564.83576 
L 590.065336 -564.83576 
L 591.515515 -564.83576 
L 592.965695 -564.83576 
L 594.415874 -564.83576 
L 595.866053 -564.83576 
L 597.316233 -564.836522 
L 598.766412 -564.840734 
L 600.216591 -564.861023 
L 601.666771 -564.935677 
L 603.11695 -565.143527 
L 604.567129 -565.576089 
L 606.017309 -566.228342 
L 607.467488 -566.91002 
L 608.917667 -562.323771 
L 610.367847 -567.663348 
L 611.818026 -568.183821 
L 613.268205 -569.254565 
L 614.718385 -570.510858 
L 616.168564 -562.108433 
L 617.618743 -570.528572 
L 619.068923 -569.492019 
L 620.519102 -569.141528 
L 621.969281 -570.02911 
L 623.41946 -571.506618 
L 624.86964 -563.427793 
L 626.319819 -571.96105 
L 627.769998 -571.1779 
L 629.220178 -571.349256 
L 630.670357 -573.225643 
L 632.120536 -570.293418 
L 633.570716 -580.554528 
L 635.020895 -575.914579 
L 636.471074 -577.440258 
L 636.471074 -595.353081 
L 636.471074 -595.353081 
L 635.020895 -592.465648 
L 633.570716 -580.554528 
L 632.120536 -582.833463 
L 630.670357 -573.225643 
L 629.220178 -571.349256 
L 627.769998 -571.1779 
L 626.319819 -571.96105 
L 624.86964 -581.236173 
L 623.41946 -571.506618 
L 621.969281 -570.02911 
L 620.519102 -569.141528 
L 619.068923 -569.492019 
L 617.618743 -570.528572 
L 616.168564 -580.051007 
L 614.718385 -570.510858 
L 613.268205 -569.254565 
L 611.818026 -568.183821 
L 610.367847 -567.663348 
L 608.917667 -572.428847 
L 607.467488 -566.91002 
L 606.017309 -566.228342 
L 604.567129 -565.576089 
L 603.11695 -565.143527 
L 601.666771 -564.935677 
L 600.216591 -564.861023 
L 598.766412 -564.840734 
L 597.316233 -564.836522 
L 595.866053 -564.83576 
L 594.415874 -564.83576 
L 592.965695 -564.83576 
L 591.515515 -564.83576 
L 590.065336 -564.83576 
L 588.615157 -564.83576 
L 587.164977 -564.83576 
L 585.714798 -564.83576 
L 584.264619 -564.83576 
L 582.814439 -564.83576 
L 581.36426 -564.83576 
L 579.914081 -564.83576 
L 578.463901 -564.83576 
L 577.013722 -564.83576 
L 575.563543 -564.83576 
L 574.113363 -564.833279 
L 572.663184 -564.819582 
L 571.213005 -564.753605 
L 569.762826 -564.510834 
L 568.312646 -563.834918 
L 566.862467 -562.434865 
L 565.412288 -560.349471 
L 563.962108 -558.304065 
L 562.511929 -563.075395 
L 561.06175 -558.201279 
L 559.61157 -560.017104 
L 558.161391 -561.635577 
L 556.711212 -562.341651 
L 555.261032 -562.338144 
L 553.810853 -568.269681 
L 552.360674 -562.645578 
L 550.910494 -563.330789 
L 549.460315 -563.986342 
L 548.010136 -564.291303 
L 546.559956 -564.017334 
L 545.109777 -562.875389 
L 543.659598 -560.495728 
L 542.209418 -556.660516 
L 540.759239 -554.220228 
L 539.30906 -547.987586 
L 537.85888 -544.711506 
L 536.408701 -541.891162 
L 534.958522 -542.128527 
L 533.508342 -542.128784 
L 532.058163 -544.28607 
L 530.607984 -545.881144 
L 529.157804 -546.694818 
L 527.707625 -546.370308 
L 526.257446 -547.218268 
L 524.807266 -543.030949 
L 523.357087 -548.39312 
L 521.906908 -550.805758 
L 520.456729 -547.378849 
L 519.006549 -556.96882 
L 517.55637 -552.847799 
L 516.106191 -552.870993 
L 514.656011 -550.227261 
L 513.205832 -554.046582 
L 511.755653 -551.489714 
L 510.305473 -551.20121 
L 508.855294 -541.795818 
L 507.405115 -538.969779 
L 505.954935 -542.058089 
L 504.504756 -534.759896 
L 503.054577 -527.808461 
L 501.604397 -523.419914 
L 500.154218 -519.396185 
L 498.704039 -517.133767 
L 497.253859 -516.807196 
L 495.80368 -516.311304 
L 494.353501 -515.520316 
L 492.903321 -517.765017 
L 491.453142 -518.104605 
L 490.002963 -518.732039 
L 488.552783 -516.541639 
L 487.102604 -512.10043 
L 485.652425 -507.366758 
L 484.202245 -499.940928 
L 482.752066 -492.914868 
L 481.301887 -485.871416 
L 479.851707 -480.0291 
L 478.401528 -475.022123 
L 476.951349 -471.924474 
L 475.501169 -468.097213 
L 474.05099 -464.010506 
L 472.600811 -460.289964 
L 471.150632 -454.415946 
L 469.700452 -446.951726 
L 468.250273 -440.01123 
L 466.800094 -433.286263 
L 465.349914 -427.102261 
L 463.899735 -425.015161 
L 462.449556 -424.469503 
L 460.999376 -425.487268 
L 459.549197 -427.12212 
L 458.099018 -429.398022 
L 456.648838 -431.331277 
L 455.198659 -432.752064 
L 453.74848 -434.164033 
L 452.2983 -436.320729 
L 450.848121 -440.920349 
L 449.397942 -445.547924 
L 447.947762 -452.941672 
L 446.497583 -457.414805 
L 445.047404 -460.624857 
L 443.597224 -461.622503 
L 442.147045 -459.845026 
L 440.696866 -456.280594 
L 439.246686 -454.784814 
L 437.796507 -454.270761 
L 436.346328 -454.729985 
L 434.896148 -453.157566 
L 433.445969 -450.794032 
L 431.99579 -446.435476 
L 430.54561 -443.407111 
L 429.095431 -439.973476 
L 427.645252 -436.957534 
L 426.195073 -437.112342 
L 424.744893 -439.629622 
L 423.294714 -443.055783 
L 421.844535 -449.232846 
L 420.394355 -458.707378 
L 418.944176 -471.842496 
L 417.493997 -487.103465 
L 416.043817 -495.635988 
L 414.593638 -515.755526 
L 413.143459 -512.059934 
L 411.693279 -507.547422 
L 410.2431 -504.223711 
L 408.792921 -491.638573 
L 407.342741 -482.787906 
L 405.892562 -479.267582 
z
" style="stroke: #9467bd; stroke-opacity: 0.2"/>
    </defs>
    <g clip-path="url(#p5f1f5e748d)">
     <use xlink:href="#mf098313a54" x="0" y="720" style="fill: #9467bd; fill-opacity: 0.2; stroke: #9467bd; stroke-opacity: 0.2"/>
    </g>
   </g>
   <g id="PolyCollection_2">
    <defs>
     <path id="m08ecf680b6" d="M 405.892562 -564.83576 
L 405.892562 -564.83576 
L 407.342741 -564.83576 
L 408.792921 -564.83576 
L 410.2431 -564.83576 
L 411.693279 -564.83576 
L 413.143459 -564.83576 
L 414.593638 -564.83576 
L 416.043817 -564.83576 
L 417.493997 -564.83576 
L 418.944176 -564.83576 
L 420.394355 -564.83576 
L 421.844535 -564.83576 
L 423.294714 -564.83576 
L 424.744893 -564.83576 
L 426.195073 -564.83576 
L 427.645252 -564.83576 
L 429.095431 -564.83576 
L 430.54561 -564.83576 
L 431.99579 -564.83576 
L 433.445969 -564.83576 
L 434.896148 -564.83576 
L 436.346328 -564.83576 
L 437.796507 -564.83576 
L 439.246686 -564.83576 
L 440.696866 -564.83576 
L 442.147045 -564.83576 
L 443.597224 -564.83576 
L 445.047404 -564.83576 
L 446.497583 -564.83576 
L 447.947762 -564.83576 
L 449.397942 -564.83576 
L 450.848121 -564.83576 
L 452.2983 -564.83576 
L 453.74848 -564.83576 
L 455.198659 -564.83576 
L 456.648838 -564.83576 
L 458.099018 -564.83576 
L 459.549197 -564.83576 
L 460.999376 -564.83576 
L 462.449556 -564.83576 
L 463.899735 -564.83576 
L 465.349914 -564.83576 
L 466.800094 -564.83576 
L 468.250273 -564.83576 
L 469.700452 -564.83576 
L 471.150632 -564.83576 
L 472.600811 -564.83576 
L 474.05099 -564.83576 
L 475.501169 -564.83576 
L 476.951349 -564.83576 
L 478.401528 -564.83576 
L 479.851707 -564.83576 
L 481.301887 -564.83576 
L 482.752066 -564.83576 
L 484.202245 -564.83576 
L 485.652425 -564.83576 
L 487.102604 -564.83576 
L 488.552783 -564.83576 
L 490.002963 -564.83576 
L 491.453142 -564.83576 
L 492.903321 -564.83576 
L 494.353501 -564.83576 
L 495.80368 -564.835087 
L 497.253859 -564.83143 
L 498.704039 -564.81386 
L 500.154218 -564.749577 
L 501.604397 -564.572012 
L 503.054577 -564.208336 
L 504.504756 -563.676233 
L 505.954935 -563.172301 
L 507.405115 -559.139378 
L 508.855294 -561.492919 
L 510.305473 -563.768776 
L 511.755653 -564.262122 
L 513.205832 -564.505806 
L 514.656011 -564.415171 
L 516.106191 -563.966506 
L 517.55637 -563.236518 
L 519.006549 -562.512126 
L 520.456729 -557.170459 
L 521.906908 -562.512414 
L 523.357087 -563.238949 
L 524.807266 -563.981048 
L 526.257446 -564.479463 
L 527.707625 -564.720087 
L 529.157804 -564.806513 
L 530.607984 -564.830001 
L 532.058163 -564.834624 
L 533.508342 -564.833629 
L 534.958522 -564.823586 
L 536.408701 -564.780979 
L 537.85888 -564.639238 
L 539.30906 -564.259178 
L 540.759239 -563.435534 
L 542.209418 -561.973034 
L 543.659598 -558.190518 
L 545.109777 -554.862582 
L 546.559956 -551.241134 
L 548.010136 -547.652495 
L 549.460315 -549.60959 
L 550.910494 -548.358536 
L 552.360674 -551.528634 
L 553.810853 -557.825353 
L 555.261032 -559.225793 
L 556.711212 -562.181374 
L 558.161391 -561.734222 
L 559.61157 -563.470646 
L 561.06175 -562.543933 
L 562.511929 -564.093346 
L 563.962108 -564.394389 
L 565.412288 -564.620181 
L 566.862467 -564.750916 
L 568.312646 -564.809315 
L 569.762826 -564.829808 
L 571.213005 -564.836964 
L 572.663184 -564.843127 
L 574.113363 -564.853894 
L 575.563543 -564.869639 
L 577.013722 -564.885054 
L 578.463901 -563.165581 
L 579.914081 -564.885054 
L 581.36426 -564.869639 
L 582.814439 -564.853752 
L 584.264619 -564.841648 
L 585.714798 -564.82831 
L 587.164977 -564.78957 
L 588.615157 -564.660492 
L 590.065336 -564.305329 
L 591.515515 -563.526464 
L 592.965695 -562.168088 
L 594.415874 -558.846186 
L 595.866053 -555.539207 
L 597.316233 -554.375491 
L 598.766412 -552.789298 
L 600.216591 -553.833865 
L 601.666771 -559.381964 
L 603.11695 -559.736359 
L 604.567129 -561.75825 
L 606.017309 -561.850422 
L 607.467488 -557.845361 
L 608.917667 -561.595517 
L 610.367847 -559.511398 
L 611.818026 -560.93545 
L 613.268205 -561.819727 
L 614.718385 -558.366098 
L 616.168564 -562.446595 
L 617.618743 -561.535293 
L 619.068923 -563.562045 
L 620.519102 -563.878012 
L 621.969281 -562.416782 
L 623.41946 -564.18509 
L 624.86964 -564.240677 
L 626.319819 -564.112934 
L 627.769998 -563.771498 
L 629.220178 -563.379033 
L 630.670357 -560.227817 
L 632.120536 -563.403436 
L 633.570716 -563.848863 
L 635.020895 -564.29151 
L 636.471074 -564.54517 
L 636.471074 -564.54517 
L 636.471074 -564.54517 
L 635.020895 -564.29151 
L 633.570716 -563.848863 
L 632.120536 -563.403436 
L 630.670357 -566.188581 
L 629.220178 -563.379033 
L 627.769998 -563.771498 
L 626.319819 -564.112934 
L 624.86964 -564.240677 
L 623.41946 -564.18509 
L 621.969281 -565.694147 
L 620.519102 -563.878012 
L 619.068923 -563.562045 
L 617.618743 -564.555023 
L 616.168564 -562.446595 
L 614.718385 -565.64015 
L 613.268205 -561.819727 
L 611.818026 -562.595789 
L 610.367847 -563.845762 
L 608.917667 -561.595517 
L 607.467488 -565.491167 
L 606.017309 -561.850422 
L 604.567129 -561.75825 
L 603.11695 -562.156797 
L 601.666771 -559.381964 
L 600.216591 -561.465619 
L 598.766412 -560.473174 
L 597.316233 -559.399854 
L 595.866053 -561.081651 
L 594.415874 -561.741883 
L 592.965695 -562.168088 
L 591.515515 -563.526464 
L 590.065336 -564.305329 
L 588.615157 -564.660492 
L 587.164977 -564.78957 
L 585.714798 -564.82831 
L 584.264619 -564.841648 
L 582.814439 -564.853752 
L 581.36426 -564.869639 
L 579.914081 -564.885054 
L 578.463901 -566.617655 
L 577.013722 -564.885054 
L 575.563543 -564.869639 
L 574.113363 -564.853894 
L 572.663184 -564.843127 
L 571.213005 -564.836964 
L 569.762826 -564.829808 
L 568.312646 -564.809315 
L 566.862467 -564.750916 
L 565.412288 -564.620181 
L 563.962108 -564.394389 
L 562.511929 -564.093346 
L 561.06175 -565.010084 
L 559.61157 -563.470646 
L 558.161391 -564.366442 
L 556.711212 -562.181374 
L 555.261032 -561.702755 
L 553.810853 -557.825353 
L 552.360674 -558.151434 
L 550.910494 -556.698243 
L 549.460315 -553.7902 
L 548.010136 -557.361627 
L 546.559956 -557.853974 
L 545.109777 -559.523505 
L 543.659598 -561.455419 
L 542.209418 -561.973034 
L 540.759239 -563.435534 
L 539.30906 -564.259178 
L 537.85888 -564.639238 
L 536.408701 -564.780979 
L 534.958522 -564.823586 
L 533.508342 -564.833629 
L 532.058163 -564.834624 
L 530.607984 -564.830001 
L 529.157804 -564.806513 
L 527.707625 -564.720087 
L 526.257446 -564.479463 
L 524.807266 -563.981048 
L 523.357087 -563.238949 
L 521.906908 -562.512414 
L 520.456729 -567.235788 
L 519.006549 -562.512126 
L 517.55637 -563.236518 
L 516.106191 -563.966506 
L 514.656011 -564.415171 
L 513.205832 -564.505806 
L 511.755653 -564.262122 
L 510.305473 -563.768776 
L 508.855294 -564.988588 
L 507.405115 -566.831048 
L 505.954935 -563.172301 
L 504.504756 -563.676233 
L 503.054577 -564.208336 
L 501.604397 -564.572012 
L 500.154218 -564.749577 
L 498.704039 -564.81386 
L 497.253859 -564.83143 
L 495.80368 -564.835087 
L 494.353501 -564.83576 
L 492.903321 -564.83576 
L 491.453142 -564.83576 
L 490.002963 -564.83576 
L 488.552783 -564.83576 
L 487.102604 -564.83576 
L 485.652425 -564.83576 
L 484.202245 -564.83576 
L 482.752066 -564.83576 
L 481.301887 -564.83576 
L 479.851707 -564.83576 
L 478.401528 -564.83576 
L 476.951349 -564.83576 
L 475.501169 -564.83576 
L 474.05099 -564.83576 
L 472.600811 -564.83576 
L 471.150632 -564.83576 
L 469.700452 -564.83576 
L 468.250273 -564.83576 
L 466.800094 -564.83576 
L 465.349914 -564.83576 
L 463.899735 -564.83576 
L 462.449556 -564.83576 
L 460.999376 -564.83576 
L 459.549197 -564.83576 
L 458.099018 -564.83576 
L 456.648838 -564.83576 
L 455.198659 -564.83576 
L 453.74848 -564.83576 
L 452.2983 -564.83576 
L 450.848121 -564.83576 
L 449.397942 -564.83576 
L 447.947762 -564.83576 
L 446.497583 -564.83576 
L 445.047404 -564.83576 
L 443.597224 -564.83576 
L 442.147045 -564.83576 
L 440.696866 -564.83576 
L 439.246686 -564.83576 
L 437.796507 -564.83576 
L 436.346328 -564.83576 
L 434.896148 -564.83576 
L 433.445969 -564.83576 
L 431.99579 -564.83576 
L 430.54561 -564.83576 
L 429.095431 -564.83576 
L 427.645252 -564.83576 
L 426.195073 -564.83576 
L 424.744893 -564.83576 
L 423.294714 -564.83576 
L 421.844535 -564.83576 
L 420.394355 -564.83576 
L 418.944176 -564.83576 
L 417.493997 -564.83576 
L 416.043817 -564.83576 
L 414.593638 -564.83576 
L 413.143459 -564.83576 
L 411.693279 -564.83576 
L 410.2431 -564.83576 
L 408.792921 -564.83576 
L 407.342741 -564.83576 
L 405.892562 -564.83576 
z
" style="stroke: #1f77b4; stroke-opacity: 0.2"/>
    </defs>
    <g clip-path="url(#p5f1f5e748d)">
     <use xlink:href="#m08ecf680b6" x="0" y="720" style="fill: #1f77b4; fill-opacity: 0.2; stroke: #1f77b4; stroke-opacity: 0.2"/>
    </g>
   </g>
   <g id="PolyCollection_3">
    <defs>
     <path id="m7c04ff5dd2" d="M 405.892562 -564.83576 
L 405.892562 -564.83576 
L 407.342741 -564.83576 
L 408.792921 -564.83576 
L 410.2431 -564.83576 
L 411.693279 -564.83576 
L 413.143459 -564.83576 
L 414.593638 -564.83576 
L 416.043817 -564.83576 
L 417.493997 -564.83576 
L 418.944176 -564.83576 
L 420.394355 -564.83576 
L 421.844535 -564.83576 
L 423.294714 -564.83576 
L 424.744893 -564.83576 
L 426.195073 -564.83576 
L 427.645252 -564.83576 
L 429.095431 -564.83576 
L 430.54561 -564.83576 
L 431.99579 -564.83576 
L 433.445969 -564.83576 
L 434.896148 -564.83576 
L 436.346328 -564.83576 
L 437.796507 -564.83576 
L 439.246686 -564.83576 
L 440.696866 -564.83576 
L 442.147045 -564.83576 
L 443.597224 -564.83576 
L 445.047404 -564.83576 
L 446.497583 -564.83576 
L 447.947762 -564.83576 
L 449.397942 -564.83576 
L 450.848121 -564.83576 
L 452.2983 -564.83576 
L 453.74848 -564.83576 
L 455.198659 -564.83576 
L 456.648838 -564.83576 
L 458.099018 -564.83576 
L 459.549197 -564.83576 
L 460.999376 -564.83576 
L 462.449556 -564.83576 
L 463.899735 -564.83576 
L 465.349914 -564.83576 
L 466.800094 -564.83576 
L 468.250273 -564.83576 
L 469.700452 -564.83576 
L 471.150632 -564.83576 
L 472.600811 -564.83576 
L 474.05099 -564.83576 
L 475.501169 -564.83576 
L 476.951349 -564.83576 
L 478.401528 -564.83576 
L 479.851707 -564.83576 
L 481.301887 -564.83576 
L 482.752066 -564.83576 
L 484.202245 -564.83576 
L 485.652425 -564.83576 
L 487.102604 -564.83576 
L 488.552783 -564.83576 
L 490.002963 -564.83576 
L 491.453142 -564.83576 
L 492.903321 -564.83576 
L 494.353501 -564.83576 
L 495.80368 -564.83576 
L 497.253859 -564.83576 
L 498.704039 -564.83576 
L 500.154218 -564.83576 
L 501.604397 -564.83576 
L 503.054577 -564.83576 
L 504.504756 -564.83576 
L 505.954935 -564.83576 
L 507.405115 -564.83576 
L 508.855294 -564.83576 
L 510.305473 -564.83576 
L 511.755653 -564.83576 
L 513.205832 -564.83576 
L 514.656011 -564.83576 
L 516.106191 -564.83576 
L 517.55637 -564.83576 
L 519.006549 -564.83576 
L 520.456729 -564.83576 
L 521.906908 -564.83576 
L 523.357087 -564.83576 
L 524.807266 -564.83576 
L 526.257446 -564.83576 
L 527.707625 -564.83576 
L 529.157804 -564.83576 
L 530.607984 -564.83576 
L 532.058163 -564.83576 
L 533.508342 -564.83576 
L 534.958522 -564.83576 
L 536.408701 -564.83576 
L 537.85888 -564.83576 
L 539.30906 -564.83576 
L 540.759239 -564.83576 
L 542.209418 -564.83576 
L 543.659598 -564.83576 
L 545.109777 -564.83576 
L 546.559956 -564.83576 
L 548.010136 -564.83576 
L 549.460315 -564.83576 
L 550.910494 -564.83576 
L 552.360674 -564.83576 
L 553.810853 -564.83576 
L 555.261032 -564.83576 
L 556.711212 -564.83576 
L 558.161391 -564.83576 
L 559.61157 -564.83576 
L 561.06175 -564.83576 
L 562.511929 -564.83576 
L 563.962108 -564.83576 
L 565.412288 -564.83576 
L 566.862467 -564.83576 
L 568.312646 -564.83576 
L 569.762826 -564.83576 
L 571.213005 -564.83576 
L 572.663184 -564.83576 
L 574.113363 -564.83576 
L 575.563543 -564.83576 
L 577.013722 -564.83576 
L 578.463901 -564.83576 
L 579.914081 -564.83576 
L 581.36426 -564.83576 
L 582.814439 -564.83576 
L 584.264619 -564.83576 
L 585.714798 -564.83576 
L 587.164977 -564.83576 
L 588.615157 -564.83576 
L 590.065336 -564.83576 
L 591.515515 -564.83576 
L 592.965695 -564.835737 
L 594.415874 -564.835613 
L 595.866053 -564.835014 
L 597.316233 -564.832811 
L 598.766412 -564.826676 
L 600.216591 -564.813969 
L 601.666771 -564.79505 
L 603.11695 -564.776528 
L 604.567129 -563.295658 
L 606.017309 -564.776528 
L 607.467488 -564.794529 
L 608.917667 -564.810088 
L 610.367847 -564.806267 
L 611.818026 -564.748052 
L 613.268205 -564.558226 
L 614.718385 -564.119729 
L 616.168564 -563.357916 
L 617.618743 -562.37286 
L 619.068923 -557.098323 
L 620.519102 -556.916798 
L 621.969281 -560.302226 
L 623.41946 -555.489451 
L 624.86964 -557.903287 
L 626.319819 -555.961628 
L 627.769998 -549.311132 
L 629.220178 -550.461779 
L 630.670357 -557.610072 
L 632.120536 -560.449606 
L 633.570716 -562.721476 
L 635.020895 -564.019341 
L 636.471074 -564.535516 
L 636.471074 -564.535516 
L 636.471074 -564.535516 
L 635.020895 -564.019341 
L 633.570716 -562.721476 
L 632.120536 -560.449606 
L 630.670357 -557.610072 
L 629.220178 -560.219557 
L 627.769998 -560.217622 
L 626.319819 -555.961628 
L 624.86964 -557.903287 
L 623.41946 -563.438629 
L 621.969281 -560.302226 
L 620.519102 -564.68289 
L 619.068923 -565.792872 
L 617.618743 -562.37286 
L 616.168564 -563.357916 
L 614.718385 -564.119729 
L 613.268205 -564.558226 
L 611.818026 -564.748052 
L 610.367847 -564.806267 
L 608.917667 -564.810088 
L 607.467488 -564.794529 
L 606.017309 -564.776528 
L 604.567129 -566.241625 
L 603.11695 -564.776528 
L 601.666771 -564.79505 
L 600.216591 -564.813969 
L 598.766412 -564.826676 
L 597.316233 -564.832811 
L 595.866053 -564.835014 
L 594.415874 -564.835613 
L 592.965695 -564.835737 
L 591.515515 -564.83576 
L 590.065336 -564.83576 
L 588.615157 -564.83576 
L 587.164977 -564.83576 
L 585.714798 -564.83576 
L 584.264619 -564.83576 
L 582.814439 -564.83576 
L 581.36426 -564.83576 
L 579.914081 -564.83576 
L 578.463901 -564.83576 
L 577.013722 -564.83576 
L 575.563543 -564.83576 
L 574.113363 -564.83576 
L 572.663184 -564.83576 
L 571.213005 -564.83576 
L 569.762826 -564.83576 
L 568.312646 -564.83576 
L 566.862467 -564.83576 
L 565.412288 -564.83576 
L 563.962108 -564.83576 
L 562.511929 -564.83576 
L 561.06175 -564.83576 
L 559.61157 -564.83576 
L 558.161391 -564.83576 
L 556.711212 -564.83576 
L 555.261032 -564.83576 
L 553.810853 -564.83576 
L 552.360674 -564.83576 
L 550.910494 -564.83576 
L 549.460315 -564.83576 
L 548.010136 -564.83576 
L 546.559956 -564.83576 
L 545.109777 -564.83576 
L 543.659598 -564.83576 
L 542.209418 -564.83576 
L 540.759239 -564.83576 
L 539.30906 -564.83576 
L 537.85888 -564.83576 
L 536.408701 -564.83576 
L 534.958522 -564.83576 
L 533.508342 -564.83576 
L 532.058163 -564.83576 
L 530.607984 -564.83576 
L 529.157804 -564.83576 
L 527.707625 -564.83576 
L 526.257446 -564.83576 
L 524.807266 -564.83576 
L 523.357087 -564.83576 
L 521.906908 -564.83576 
L 520.456729 -564.83576 
L 519.006549 -564.83576 
L 517.55637 -564.83576 
L 516.106191 -564.83576 
L 514.656011 -564.83576 
L 513.205832 -564.83576 
L 511.755653 -564.83576 
L 510.305473 -564.83576 
L 508.855294 -564.83576 
L 507.405115 -564.83576 
L 505.954935 -564.83576 
L 504.504756 -564.83576 
L 503.054577 -564.83576 
L 501.604397 -564.83576 
L 500.154218 -564.83576 
L 498.704039 -564.83576 
L 497.253859 -564.83576 
L 495.80368 -564.83576 
L 494.353501 -564.83576 
L 492.903321 -564.83576 
L 491.453142 -564.83576 
L 490.002963 -564.83576 
L 488.552783 -564.83576 
L 487.102604 -564.83576 
L 485.652425 -564.83576 
L 484.202245 -564.83576 
L 482.752066 -564.83576 
L 481.301887 -564.83576 
L 479.851707 -564.83576 
L 478.401528 -564.83576 
L 476.951349 -564.83576 
L 475.501169 -564.83576 
L 474.05099 -564.83576 
L 472.600811 -564.83576 
L 471.150632 -564.83576 
L 469.700452 -564.83576 
L 468.250273 -564.83576 
L 466.800094 -564.83576 
L 465.349914 -564.83576 
L 463.899735 -564.83576 
L 462.449556 -564.83576 
L 460.999376 -564.83576 
L 459.549197 -564.83576 
L 458.099018 -564.83576 
L 456.648838 -564.83576 
L 455.198659 -564.83576 
L 453.74848 -564.83576 
L 452.2983 -564.83576 
L 450.848121 -564.83576 
L 449.397942 -564.83576 
L 447.947762 -564.83576 
L 446.497583 -564.83576 
L 445.047404 -564.83576 
L 443.597224 -564.83576 
L 442.147045 -564.83576 
L 440.696866 -564.83576 
L 439.246686 -564.83576 
L 437.796507 -564.83576 
L 436.346328 -564.83576 
L 434.896148 -564.83576 
L 433.445969 -564.83576 
L 431.99579 -564.83576 
L 430.54561 -564.83576 
L 429.095431 -564.83576 
L 427.645252 -564.83576 
L 426.195073 -564.83576 
L 424.744893 -564.83576 
L 423.294714 -564.83576 
L 421.844535 -564.83576 
L 420.394355 -564.83576 
L 418.944176 -564.83576 
L 417.493997 -564.83576 
L 416.043817 -564.83576 
L 414.593638 -564.83576 
L 413.143459 -564.83576 
L 411.693279 -564.83576 
L 410.2431 -564.83576 
L 408.792921 -564.83576 
L 407.342741 -564.83576 
L 405.892562 -564.83576 
z
" style="stroke: #d62728; stroke-opacity: 0.2"/>
    </defs>
    <g clip-path="url(#p5f1f5e748d)">
     <use xlink:href="#m7c04ff5dd2" x="0" y="720" style="fill: #d62728; fill-opacity: 0.2; stroke: #d62728; stroke-opacity: 0.2"/>
    </g>
   </g>
   <g id="PolyCollection_4">
    <defs>
     <path id="m6b953dfa91" d="M 405.892562 -569.255627 
L 405.892562 -569.255627 
L 407.342741 -573.838199 
L 408.792921 -582.93337 
L 410.2431 -594.806962 
L 411.693279 -593.500629 
L 413.143459 -598.836118 
L 414.593638 -608.509972 
L 416.043817 -586.265908 
L 417.493997 -589.771466 
L 418.944176 -579.501297 
L 420.394355 -571.949925 
L 421.844535 -567.628551 
L 423.294714 -565.710436 
L 424.744893 -565.051484 
L 426.195073 -564.87708 
L 427.645252 -564.842096 
L 429.095431 -564.83576 
L 430.54561 -564.83576 
L 431.99579 -564.83576 
L 433.445969 -564.83576 
L 434.896148 -564.83576 
L 436.346328 -564.83576 
L 437.796507 -564.83576 
L 439.246686 -564.83576 
L 440.696866 -564.83576 
L 442.147045 -564.83576 
L 443.597224 -564.83576 
L 445.047404 -564.83576 
L 446.497583 -564.83576 
L 447.947762 -564.83576 
L 449.397942 -564.83576 
L 450.848121 -564.83576 
L 452.2983 -564.83576 
L 453.74848 -564.83576 
L 455.198659 -564.83576 
L 456.648838 -564.83576 
L 458.099018 -564.83576 
L 459.549197 -564.83576 
L 460.999376 -564.83576 
L 462.449556 -564.83576 
L 463.899735 -564.83576 
L 465.349914 -564.83576 
L 466.800094 -564.83576 
L 468.250273 -564.83576 
L 469.700452 -564.83576 
L 471.150632 -564.83576 
L 472.600811 -564.83576 
L 474.05099 -564.83576 
L 475.501169 -564.83576 
L 476.951349 -564.83576 
L 478.401528 -564.83576 
L 479.851707 -564.83576 
L 481.301887 -564.83576 
L 482.752066 -564.83576 
L 484.202245 -564.83576 
L 485.652425 -564.83576 
L 487.102604 -564.83576 
L 488.552783 -564.83576 
L 490.002963 -564.83576 
L 491.453142 -564.83576 
L 492.903321 -564.83576 
L 494.353501 -564.83576 
L 495.80368 -564.83576 
L 497.253859 -564.83576 
L 498.704039 -564.83576 
L 500.154218 -564.83576 
L 501.604397 -564.83576 
L 503.054577 -564.834848 
L 504.504756 -564.82819 
L 505.954935 -564.794566 
L 507.405115 -564.659873 
L 508.855294 -564.241565 
L 510.305473 -563.244268 
L 511.755653 -561.449836 
L 513.205832 -559.103671 
L 514.656011 -551.385019 
L 516.106191 -551.094637 
L 517.55637 -554.203193 
L 519.006549 -559.678779 
L 520.456729 -561.517428 
L 521.906908 -562.464298 
L 523.357087 -562.677144 
L 524.807266 -558.897639 
L 526.257446 -563.058668 
L 527.707625 -563.627241 
L 529.157804 -564.190764 
L 530.607984 -564.566136 
L 532.058163 -564.742536 
L 533.508342 -564.783295 
L 534.958522 -564.711149 
L 536.408701 -564.464645 
L 537.85888 -563.947099 
L 539.30906 -563.175524 
L 540.759239 -562.42013 
L 542.209418 -558.957703 
L 543.659598 -562.42013 
L 545.109777 -563.175524 
L 546.559956 -563.947099 
L 548.010136 -564.465311 
L 549.460315 -564.715492 
L 550.910494 -564.805351 
L 552.360674 -564.828037 
L 553.810853 -564.822251 
L 555.261032 -564.768581 
L 556.711212 -564.555934 
L 558.161391 -563.912289 
L 559.61157 -562.40248 
L 561.06175 -559.654445 
L 562.511929 -555.757833 
L 563.962108 -546.062048 
L 565.412288 -542.012407 
L 566.862467 -538.408678 
L 568.312646 -536.447127 
L 569.762826 -534.251236 
L 571.213005 -532.593161 
L 572.663184 -531.707238 
L 574.113363 -532.269453 
L 575.563543 -533.35849 
L 577.013722 -535.791798 
L 578.463901 -542.598263 
L 579.914081 -540.547106 
L 581.36426 -539.325745 
L 582.814439 -536.766878 
L 584.264619 -532.491121 
L 585.714798 -530.061346 
L 587.164977 -528.438879 
L 588.615157 -528.948276 
L 590.065336 -531.627463 
L 591.515515 -535.954355 
L 592.965695 -540.366027 
L 594.415874 -552.820552 
L 595.866053 -558.428046 
L 597.316233 -562.024608 
L 598.766412 -563.834817 
L 600.216591 -564.549261 
L 601.666771 -564.770451 
L 603.11695 -564.824091 
L 604.567129 -564.834402 
L 606.017309 -564.83576 
L 607.467488 -564.83576 
L 608.917667 -564.83576 
L 610.367847 -564.83576 
L 611.818026 -564.83576 
L 613.268205 -564.83576 
L 614.718385 -564.833411 
L 616.168564 -564.820445 
L 617.618743 -564.757985 
L 619.068923 -564.528156 
L 620.519102 -563.888275 
L 621.969281 -562.560853 
L 623.41946 -560.576319 
L 624.86964 -558.590801 
L 626.319819 -551.846906 
L 627.769998 -557.846203 
L 629.220178 -558.641491 
L 630.670357 -558.914279 
L 632.120536 -558.532108 
L 633.570716 -551.440797 
L 635.020895 -558.65722 
L 636.471074 -559.236695 
L 636.471074 -559.236695 
L 636.471074 -559.236695 
L 635.020895 -558.65722 
L 633.570716 -565.101048 
L 632.120536 -558.532108 
L 630.670357 -558.914279 
L 629.220178 -558.641491 
L 627.769998 -557.846203 
L 626.319819 -563.295881 
L 624.86964 -558.590801 
L 623.41946 -560.576319 
L 621.969281 -562.560853 
L 620.519102 -563.888275 
L 619.068923 -564.528156 
L 617.618743 -564.757985 
L 616.168564 -564.820445 
L 614.718385 -564.833411 
L 613.268205 -564.83576 
L 611.818026 -564.83576 
L 610.367847 -564.83576 
L 608.917667 -564.83576 
L 607.467488 -564.83576 
L 606.017309 -564.83576 
L 604.567129 -564.834402 
L 603.11695 -564.824091 
L 601.666771 -564.770451 
L 600.216591 -564.549261 
L 598.766412 -563.834817 
L 597.316233 -562.024608 
L 595.866053 -558.428046 
L 594.415874 -552.820552 
L 592.965695 -551.539353 
L 591.515515 -542.706859 
L 590.065336 -537.039248 
L 588.615157 -534.231642 
L 587.164977 -533.788059 
L 585.714798 -535.193232 
L 584.264619 -538.679023 
L 582.814439 -541.436506 
L 581.36426 -544.805505 
L 579.914081 -546.279 
L 578.463901 -542.598263 
L 577.013722 -544.412103 
L 575.563543 -541.295706 
L 574.113363 -539.059027 
L 572.663184 -539.534267 
L 571.213005 -541.149421 
L 569.762826 -543.501445 
L 568.312646 -546.129361 
L 566.862467 -549.699501 
L 565.412288 -552.73642 
L 563.962108 -556.724591 
L 562.511929 -555.757833 
L 561.06175 -559.654445 
L 559.61157 -562.40248 
L 558.161391 -563.912289 
L 556.711212 -564.555934 
L 555.261032 -564.768581 
L 553.810853 -564.822251 
L 552.360674 -564.828037 
L 550.910494 -564.805351 
L 549.460315 -564.715492 
L 548.010136 -564.465311 
L 546.559956 -563.947099 
L 545.109777 -563.175524 
L 543.659598 -562.42013 
L 542.209418 -565.239283 
L 540.759239 -562.42013 
L 539.30906 -563.175524 
L 537.85888 -563.947099 
L 536.408701 -564.464645 
L 534.958522 -564.711149 
L 533.508342 -564.783295 
L 532.058163 -564.742536 
L 530.607984 -564.566136 
L 529.157804 -564.190764 
L 527.707625 -563.627241 
L 526.257446 -563.058668 
L 524.807266 -566.577348 
L 523.357087 -562.677144 
L 521.906908 -562.464298 
L 520.456729 -561.517428 
L 519.006549 -559.678779 
L 517.55637 -561.024613 
L 516.106191 -561.907112 
L 514.656011 -562.819162 
L 513.205832 -559.103671 
L 511.755653 -561.449836 
L 510.305473 -563.244268 
L 508.855294 -564.241565 
L 507.405115 -564.659873 
L 505.954935 -564.794566 
L 504.504756 -564.82819 
L 503.054577 -564.834848 
L 501.604397 -564.83576 
L 500.154218 -564.83576 
L 498.704039 -564.83576 
L 497.253859 -564.83576 
L 495.80368 -564.83576 
L 494.353501 -564.83576 
L 492.903321 -564.83576 
L 491.453142 -564.83576 
L 490.002963 -564.83576 
L 488.552783 -564.83576 
L 487.102604 -564.83576 
L 485.652425 -564.83576 
L 484.202245 -564.83576 
L 482.752066 -564.83576 
L 481.301887 -564.83576 
L 479.851707 -564.83576 
L 478.401528 -564.83576 
L 476.951349 -564.83576 
L 475.501169 -564.83576 
L 474.05099 -564.83576 
L 472.600811 -564.83576 
L 471.150632 -564.83576 
L 469.700452 -564.83576 
L 468.250273 -564.83576 
L 466.800094 -564.83576 
L 465.349914 -564.83576 
L 463.899735 -564.83576 
L 462.449556 -564.83576 
L 460.999376 -564.83576 
L 459.549197 -564.83576 
L 458.099018 -564.83576 
L 456.648838 -564.83576 
L 455.198659 -564.83576 
L 453.74848 -564.83576 
L 452.2983 -564.83576 
L 450.848121 -564.83576 
L 449.397942 -564.83576 
L 447.947762 -564.83576 
L 446.497583 -564.83576 
L 445.047404 -564.83576 
L 443.597224 -564.83576 
L 442.147045 -564.83576 
L 440.696866 -564.83576 
L 439.246686 -564.83576 
L 437.796507 -564.83576 
L 436.346328 -564.83576 
L 434.896148 -564.83576 
L 433.445969 -564.83576 
L 431.99579 -564.83576 
L 430.54561 -564.83576 
L 429.095431 -564.83576 
L 427.645252 -564.842096 
L 426.195073 -564.87708 
L 424.744893 -565.051484 
L 423.294714 -565.710436 
L 421.844535 -567.628551 
L 420.394355 -571.949925 
L 418.944176 -579.501297 
L 417.493997 -589.771466 
L 416.043817 -614.799355 
L 414.593638 -608.509972 
L 413.143459 -622.368595 
L 411.693279 -617.39913 
L 410.2431 -594.806962 
L 408.792921 -582.93337 
L 407.342741 -573.838199 
L 405.892562 -569.255627 
z
" style="stroke: #ff7f0e; stroke-opacity: 0.2"/>
    </defs>
    <g clip-path="url(#p5f1f5e748d)">
     <use xlink:href="#m6b953dfa91" x="0" y="720" style="fill: #ff7f0e; fill-opacity: 0.2; stroke: #ff7f0e; stroke-opacity: 0.2"/>
    </g>
   </g>
   <g id="matplotlib.axis_3">
    <g id="xtick_7">
     <g id="line2d_13">
      <g>
       <use xlink:href="#m398fa0350a" x="405.863558" y="333.490909" style="stroke: #000000; stroke-width: 0.8"/>
      </g>
     </g>
     <g id="text_13">
      <!-- 0 -->
      <g transform="translate(402.682308 348.089347)scale(0.1 -0.1)">
       <use xlink:href="#DejaVuSans-30"/>
      </g>
     </g>
    </g>
    <g id="xtick_8">
     <g id="line2d_14">
      <g>
       <use xlink:href="#m398fa0350a" x="463.870731" y="333.490909" style="stroke: #000000; stroke-width: 0.8"/>
      </g>
     </g>
     <g id="text_14">
      <!-- 2000 -->
      <g transform="translate(451.145731 348.089347)scale(0.1 -0.1)">
       <use xlink:href="#DejaVuSans-32"/>
       <use xlink:href="#DejaVuSans-30" x="63.623047"/>
       <use xlink:href="#DejaVuSans-30" x="127.246094"/>
       <use xlink:href="#DejaVuSans-30" x="190.869141"/>
      </g>
     </g>
    </g>
    <g id="xtick_9">
     <g id="line2d_15">
      <g>
       <use xlink:href="#m398fa0350a" x="521.877904" y="333.490909" style="stroke: #000000; stroke-width: 0.8"/>
      </g>
     </g>
     <g id="text_15">
      <!-- 4000 -->
      <g transform="translate(509.152904 348.089347)scale(0.1 -0.1)">
       <use xlink:href="#DejaVuSans-34"/>
       <use xlink:href="#DejaVuSans-30" x="63.623047"/>
       <use xlink:href="#DejaVuSans-30" x="127.246094"/>
       <use xlink:href="#DejaVuSans-30" x="190.869141"/>
      </g>
     </g>
    </g>
    <g id="xtick_10">
     <g id="line2d_16">
      <g>
       <use xlink:href="#m398fa0350a" x="579.885077" y="333.490909" style="stroke: #000000; stroke-width: 0.8"/>
      </g>
     </g>
     <g id="text_16">
      <!-- 6000 -->
      <g transform="translate(567.160077 348.089347)scale(0.1 -0.1)">
       <use xlink:href="#DejaVuSans-36"/>
       <use xlink:href="#DejaVuSans-30" x="63.623047"/>
       <use xlink:href="#DejaVuSans-30" x="127.246094"/>
       <use xlink:href="#DejaVuSans-30" x="190.869141"/>
      </g>
     </g>
    </g>
    <g id="xtick_11">
     <g id="line2d_17">
      <g>
       <use xlink:href="#m398fa0350a" x="637.89225" y="333.490909" style="stroke: #000000; stroke-width: 0.8"/>
      </g>
     </g>
     <g id="text_17">
      <!-- 8000 -->
      <g transform="translate(625.16725 348.089347)scale(0.1 -0.1)">
       <use xlink:href="#DejaVuSans-38"/>
       <use xlink:href="#DejaVuSans-30" x="63.623047"/>
       <use xlink:href="#DejaVuSans-30" x="127.246094"/>
       <use xlink:href="#DejaVuSans-30" x="190.869141"/>
      </g>
     </g>
    </g>
   </g>
   <g id="matplotlib.axis_4">
    <g id="ytick_7">
     <g id="line2d_18">
      <g>
       <use xlink:href="#m03a6cffb77" x="394.363636" y="313.829355" style="stroke: #000000; stroke-width: 0.8"/>
      </g>
     </g>
     <g id="text_18">
      <!-- −2.0 -->
      <g transform="translate(363.080824 317.628574)scale(0.1 -0.1)">
       <defs>
        <path id="DejaVuSans-2212" d="M 678 2272 
L 4684 2272 
L 4684 1741 
L 678 1741 
L 678 2272 
z
" transform="scale(0.015625)"/>
       </defs>
       <use xlink:href="#DejaVuSans-2212"/>
       <use xlink:href="#DejaVuSans-32" x="83.789062"/>
       <use xlink:href="#DejaVuSans-2e" x="147.412109"/>
       <use xlink:href="#DejaVuSans-30" x="179.199219"/>
      </g>
     </g>
    </g>
    <g id="ytick_8">
     <g id="line2d_19">
      <g>
       <use xlink:href="#m03a6cffb77" x="394.363636" y="274.163077" style="stroke: #000000; stroke-width: 0.8"/>
      </g>
     </g>
     <g id="text_19">
      <!-- −1.5 -->
      <g transform="translate(363.080824 277.962295)scale(0.1 -0.1)">
       <defs>
        <path id="DejaVuSans-35" d="M 691 4666 
L 3169 4666 
L 3169 4134 
L 1269 4134 
L 1269 2991 
Q 1406 3038 1543 3061 
Q 1681 3084 1819 3084 
Q 2600 3084 3056 2656 
Q 3513 2228 3513 1497 
Q 3513 744 3044 326 
Q 2575 -91 1722 -91 
Q 1428 -91 1123 -41 
Q 819 9 494 109 
L 494 744 
Q 775 591 1075 516 
Q 1375 441 1709 441 
Q 2250 441 2565 725 
Q 2881 1009 2881 1497 
Q 2881 1984 2565 2268 
Q 2250 2553 1709 2553 
Q 1456 2553 1204 2497 
Q 953 2441 691 2322 
L 691 4666 
z
" transform="scale(0.015625)"/>
       </defs>
       <use xlink:href="#DejaVuSans-2212"/>
       <use xlink:href="#DejaVuSans-31" x="83.789062"/>
       <use xlink:href="#DejaVuSans-2e" x="147.412109"/>
       <use xlink:href="#DejaVuSans-35" x="179.199219"/>
      </g>
     </g>
    </g>
    <g id="ytick_9">
     <g id="line2d_20">
      <g>
       <use xlink:href="#m03a6cffb77" x="394.363636" y="234.496798" style="stroke: #000000; stroke-width: 0.8"/>
      </g>
     </g>
     <g id="text_20">
      <!-- −1.0 -->
      <g transform="translate(363.080824 238.296017)scale(0.1 -0.1)">
       <use xlink:href="#DejaVuSans-2212"/>
       <use xlink:href="#DejaVuSans-31" x="83.789062"/>
       <use xlink:href="#DejaVuSans-2e" x="147.412109"/>
       <use xlink:href="#DejaVuSans-30" x="179.199219"/>
      </g>
     </g>
    </g>
    <g id="ytick_10">
     <g id="line2d_21">
      <g>
       <use xlink:href="#m03a6cffb77" x="394.363636" y="194.830519" style="stroke: #000000; stroke-width: 0.8"/>
      </g>
     </g>
     <g id="text_21">
      <!-- −0.5 -->
      <g transform="translate(363.080824 198.629738)scale(0.1 -0.1)">
       <use xlink:href="#DejaVuSans-2212"/>
       <use xlink:href="#DejaVuSans-30" x="83.789062"/>
       <use xlink:href="#DejaVuSans-2e" x="147.412109"/>
       <use xlink:href="#DejaVuSans-35" x="179.199219"/>
      </g>
     </g>
    </g>
    <g id="ytick_11">
     <g id="line2d_22">
      <g>
       <use xlink:href="#m03a6cffb77" x="394.363636" y="155.16424" style="stroke: #000000; stroke-width: 0.8"/>
      </g>
     </g>
     <g id="text_22">
      <!-- 0.0 -->
      <g transform="translate(371.460511 158.963459)scale(0.1 -0.1)">
       <use xlink:href="#DejaVuSans-30"/>
       <use xlink:href="#DejaVuSans-2e" x="63.623047"/>
       <use xlink:href="#DejaVuSans-30" x="95.410156"/>
      </g>
     </g>
    </g>
    <g id="ytick_12">
     <g id="line2d_23">
      <g>
       <use xlink:href="#m03a6cffb77" x="394.363636" y="115.497962" style="stroke: #000000; stroke-width: 0.8"/>
      </g>
     </g>
     <g id="text_23">
      <!-- 0.5 -->
      <g transform="translate(371.460511 119.29718)scale(0.1 -0.1)">
       <use xlink:href="#DejaVuSans-30"/>
       <use xlink:href="#DejaVuSans-2e" x="63.623047"/>
       <use xlink:href="#DejaVuSans-35" x="95.410156"/>
      </g>
     </g>
    </g>
   </g>
   <g id="line2d_24">
    <path d="M 405.892562 247.550839 
L 407.342741 243.562444 
L 408.792921 235.029416 
L 410.2431 223.216233 
L 411.693279 212.452578 
L 413.143459 207.940066 
L 414.593638 212.290426 
L 416.043817 224.364012 
L 418.944176 256.922859 
L 420.394355 270.385016 
L 421.844535 279.991062 
L 423.294714 286.238959 
L 424.744893 289.989848 
L 426.195073 291.740345 
L 427.645252 291.520913 
L 429.095431 289.228754 
L 430.54561 285.237402 
L 431.99579 280.736283 
L 433.445969 277.200531 
L 434.896148 275.418801 
L 436.346328 275.014446 
L 437.796507 274.84589 
L 439.246686 273.875761 
L 440.696866 271.806839 
L 442.147045 269.181114 
L 443.597224 267.175596 
L 445.047404 267.242819 
L 446.497583 270.373807 
L 447.947762 276.259121 
L 449.397942 283.319366 
L 450.848121 289.793366 
L 452.2983 294.744962 
L 453.74848 298.130764 
L 455.198659 300.348677 
L 458.099018 303.518758 
L 460.999376 307.508165 
L 462.449556 308.895001 
L 463.899735 308.594631 
L 465.349914 305.950921 
L 466.800094 300.932485 
L 468.250273 294.187916 
L 471.150632 279.929195 
L 472.600811 273.942959 
L 474.05099 268.792285 
L 476.951349 259.910547 
L 478.401528 255.609514 
L 479.851707 250.855054 
L 481.301887 245.248528 
L 482.752066 238.693987 
L 485.652425 224.506272 
L 487.102604 218.474528 
L 488.552783 214.150761 
L 490.002963 211.837479 
L 491.453142 211.338436 
L 492.903321 211.998746 
L 494.353501 212.901291 
L 495.80368 213.254544 
L 497.253859 212.785451 
L 498.704039 211.665728 
L 500.154218 209.898338 
L 501.604397 206.874863 
L 503.054577 201.795487 
L 504.504756 194.67658 
L 505.954935 186.982636 
L 507.405115 181.030221 
L 508.855294 178.204182 
L 510.305473 177.547539 
L 511.755653 176.550111 
L 513.205832 173.660875 
L 514.656011 169.772739 
L 516.106191 167.129007 
L 517.55637 167.152201 
L 519.006549 169.477704 
L 520.456729 172.621151 
L 521.906908 175.15526 
L 523.357087 176.495727 
L 524.807266 176.969051 
L 529.157804 177.566122 
L 530.607984 178.009562 
L 532.058163 179.120628 
L 533.508342 180.781142 
L 534.958522 182.003861 
L 536.408701 181.506613 
L 537.85888 178.660818 
L 539.30906 173.909737 
L 540.759239 168.403625 
L 542.209418 163.339484 
L 543.659598 159.504272 
L 545.109777 157.124611 
L 546.559956 155.982666 
L 548.010136 155.708697 
L 549.460315 156.013658 
L 552.360674 157.354422 
L 553.810853 157.708375 
L 556.711212 157.658349 
L 558.161391 158.364423 
L 559.61157 159.982896 
L 561.06175 161.798721 
L 562.511929 162.586868 
L 563.962108 161.695935 
L 566.862467 157.565135 
L 568.312646 156.165082 
L 569.762826 155.489166 
L 571.213005 155.246395 
L 574.113363 155.166721 
L 601.666771 155.064323 
L 603.11695 154.856473 
L 604.567129 154.423911 
L 607.467488 153.08998 
L 608.917667 152.623691 
L 610.367847 152.336652 
L 611.818026 151.816179 
L 613.268205 150.745435 
L 614.718385 149.489142 
L 616.168564 148.92028 
L 617.618743 149.471428 
L 619.068923 150.507981 
L 620.519102 150.858472 
L 621.969281 149.97089 
L 623.41946 148.493382 
L 624.86964 147.668017 
L 626.319819 148.03895 
L 627.769998 148.8221 
L 629.220178 148.650744 
L 630.670357 146.774357 
L 632.120536 143.436559 
L 633.570716 139.445472 
L 635.020895 135.809886 
L 636.471074 133.603331 
L 636.471074 133.603331 
" clip-path="url(#p5f1f5e748d)" style="fill: none; stroke: #9467bd; stroke-width: 2; stroke-linecap: square"/>
   </g>
   <g id="line2d_25">
    <path d="M 405.892562 155.16424 
L 500.154218 155.250423 
L 501.604397 155.427988 
L 503.054577 155.791664 
L 505.954935 156.827699 
L 507.405115 157.014787 
L 508.855294 156.759246 
L 511.755653 155.737878 
L 513.205832 155.494194 
L 514.656011 155.584829 
L 516.106191 156.033494 
L 519.006549 157.487874 
L 520.456729 157.796877 
L 521.906908 157.487586 
L 524.807266 156.018952 
L 526.257446 155.520537 
L 527.707625 155.279913 
L 530.607984 155.169999 
L 536.408701 155.219021 
L 537.85888 155.360762 
L 539.30906 155.740822 
L 540.759239 156.564466 
L 542.209418 158.026966 
L 543.659598 160.177032 
L 546.559956 165.452446 
L 548.010136 167.492939 
L 549.460315 168.300105 
L 550.910494 167.47161 
L 552.360674 165.159966 
L 553.810853 162.174647 
L 555.261032 159.535726 
L 556.711212 157.818626 
L 558.161391 156.949668 
L 561.06175 156.222992 
L 565.412288 155.379819 
L 568.312646 155.190685 
L 579.914081 155.114946 
L 587.164977 155.21043 
L 588.615157 155.339508 
L 590.065336 155.694671 
L 591.515515 156.473536 
L 592.965695 157.831912 
L 595.866053 161.689571 
L 597.316233 163.112327 
L 598.766412 163.368764 
L 600.216591 162.350258 
L 603.11695 159.053422 
L 604.567129 158.24175 
L 606.017309 158.149578 
L 608.917667 158.404483 
L 614.718385 157.996876 
L 616.168564 157.553405 
L 619.068923 156.437955 
L 620.519102 156.121988 
L 623.41946 155.81491 
L 624.86964 155.759323 
L 626.319819 155.887066 
L 629.220178 156.620967 
L 630.670357 156.791801 
L 632.120536 156.596564 
L 635.020895 155.70849 
L 636.471074 155.45483 
L 636.471074 155.45483 
" clip-path="url(#p5f1f5e748d)" style="fill: none; stroke: #1f77b4; stroke-width: 2; stroke-linecap: square"/>
   </g>
   <g id="line2d_26">
    <path d="M 405.892562 155.16424 
L 611.818026 155.251948 
L 613.268205 155.441774 
L 614.718385 155.880271 
L 616.168564 156.642084 
L 619.068923 158.554402 
L 620.519102 159.200156 
L 621.969281 159.697774 
L 623.41946 160.53596 
L 624.86964 162.096713 
L 626.319819 164.038372 
L 627.769998 165.235623 
L 629.220178 164.659332 
L 630.670357 162.389928 
L 632.120536 159.550394 
L 633.570716 157.278524 
L 635.020895 155.980659 
L 636.471074 155.464484 
L 636.471074 155.464484 
" clip-path="url(#p5f1f5e748d)" style="fill: none; stroke: #d62728; stroke-width: 2; stroke-linecap: square"/>
   </g>
   <g id="line2d_27">
    <path d="M 405.892562 150.744373 
L 407.342741 146.161801 
L 408.792921 137.06663 
L 410.2431 125.193038 
L 411.693279 114.550121 
L 413.143459 109.397643 
L 414.593638 111.490028 
L 416.043817 119.467368 
L 418.944176 140.498703 
L 420.394355 148.050075 
L 421.844535 152.371449 
L 423.294714 154.289564 
L 424.744893 154.948516 
L 426.195073 155.12292 
L 431.99579 155.16424 
L 505.954935 155.205434 
L 507.405115 155.340127 
L 508.855294 155.758435 
L 510.305473 156.755732 
L 511.755653 158.550164 
L 513.205832 160.896329 
L 514.656011 162.897909 
L 516.106191 163.499125 
L 517.55637 162.386097 
L 519.006549 160.321221 
L 520.456729 158.482572 
L 521.906908 157.535702 
L 523.357087 157.322856 
L 524.807266 157.262506 
L 526.257446 156.941332 
L 529.157804 155.809236 
L 530.607984 155.433864 
L 532.058163 155.257464 
L 533.508342 155.216705 
L 534.958522 155.288851 
L 536.408701 155.535355 
L 537.85888 156.052901 
L 540.759239 157.57987 
L 542.209418 157.901507 
L 543.659598 157.57987 
L 546.559956 156.052901 
L 548.010136 155.534689 
L 549.460315 155.284508 
L 552.360674 155.171963 
L 555.261032 155.231419 
L 556.711212 155.444066 
L 558.161391 156.087711 
L 559.61157 157.59752 
L 561.06175 160.345555 
L 562.511929 164.242167 
L 565.412288 172.625587 
L 566.862467 175.94591 
L 568.312646 178.711756 
L 569.762826 181.123659 
L 571.213005 183.128709 
L 572.663184 184.379248 
L 574.113363 184.33576 
L 575.563543 182.672902 
L 577.013722 179.89805 
L 578.463901 177.401737 
L 579.914081 176.586947 
L 581.36426 177.934375 
L 582.814439 180.898308 
L 584.264619 184.414928 
L 585.714798 187.372711 
L 587.164977 188.886531 
L 588.615157 188.410041 
L 590.065336 185.666645 
L 591.515515 180.669393 
L 594.415874 167.179448 
L 595.866053 161.571954 
L 597.316233 157.975392 
L 598.766412 156.165183 
L 600.216591 155.450739 
L 601.666771 155.229549 
L 606.017309 155.16424 
L 617.618743 155.242015 
L 619.068923 155.471844 
L 620.519102 156.111725 
L 621.969281 157.439147 
L 624.86964 161.409199 
L 626.319819 162.428607 
L 627.769998 162.153797 
L 629.220178 161.358509 
L 630.670357 161.085721 
L 632.120536 161.467892 
L 633.570716 161.729078 
L 635.020895 161.34278 
L 636.471074 160.763305 
L 636.471074 160.763305 
" clip-path="url(#p5f1f5e748d)" style="fill: none; stroke: #ff7f0e; stroke-width: 2; stroke-linecap: square"/>
   </g>
   <g id="LineCollection_1">
    <path d="M 521.877904 305.463407 
L 521.877904 121.340158 
" clip-path="url(#p5f1f5e748d)" style="fill: none; stroke-dasharray: 7.4,3.2; stroke-dashoffset: 0; stroke: #000000; stroke-width: 2"/>
    <path d="M 536.379697 305.463407 
L 536.379697 121.340158 
" clip-path="url(#p5f1f5e748d)" style="fill: none; stroke-dasharray: 7.4,3.2; stroke-dashoffset: 0; stroke: #000000; stroke-width: 2"/>
    <path d="M 565.383284 305.463407 
L 565.383284 121.340158 
" clip-path="url(#p5f1f5e748d)" style="fill: none; stroke-dasharray: 7.4,3.2; stroke-dashoffset: 0; stroke: #000000; stroke-width: 2"/>
    <path d="M 623.390457 305.463407 
L 623.390457 121.340158 
" clip-path="url(#p5f1f5e748d)" style="fill: none; stroke-dasharray: 7.4,3.2; stroke-dashoffset: 0; stroke: #000000; stroke-width: 2"/>
   </g>
   <g id="patch_8">
    <path d="M 394.363636 333.490909 
L 394.363636 86.4 
" style="fill: none; stroke: #000000; stroke-width: 0.8; stroke-linejoin: miter; stroke-linecap: square"/>
   </g>
   <g id="patch_9">
    <path d="M 648 333.490909 
L 648 86.4 
" style="fill: none; stroke: #000000; stroke-width: 0.8; stroke-linejoin: miter; stroke-linecap: square"/>
   </g>
   <g id="patch_10">
    <path d="M 394.363636 333.490909 
L 648 333.490909 
" style="fill: none; stroke: #000000; stroke-width: 0.8; stroke-linejoin: miter; stroke-linecap: square"/>
   </g>
   <g id="patch_11">
    <path d="M 394.363636 86.4 
L 648 86.4 
" style="fill: none; stroke: #000000; stroke-width: 0.8; stroke-linejoin: miter; stroke-linecap: square"/>
   </g>
   <g id="text_24">
    <!-- unit_88 -->
    <g transform="translate(498.922756 80.4)scale(0.12 -0.12)">
     <defs>
      <path id="DejaVuSans-75" d="M 544 1381 
L 544 3500 
L 1119 3500 
L 1119 1403 
Q 1119 906 1312 657 
Q 1506 409 1894 409 
Q 2359 409 2629 706 
Q 2900 1003 2900 1516 
L 2900 3500 
L 3475 3500 
L 3475 0 
L 2900 0 
L 2900 538 
Q 2691 219 2414 64 
Q 2138 -91 1772 -91 
Q 1169 -91 856 284 
Q 544 659 544 1381 
z
M 1991 3584 
L 1991 3584 
z
" transform="scale(0.015625)"/>
      <path id="DejaVuSans-6e" d="M 3513 2113 
L 3513 0 
L 2938 0 
L 2938 2094 
Q 2938 2591 2744 2837 
Q 2550 3084 2163 3084 
Q 1697 3084 1428 2787 
Q 1159 2491 1159 1978 
L 1159 0 
L 581 0 
L 581 3500 
L 1159 3500 
L 1159 2956 
Q 1366 3272 1645 3428 
Q 1925 3584 2291 3584 
Q 2894 3584 3203 3211 
Q 3513 2838 3513 2113 
z
" transform="scale(0.015625)"/>
      <path id="DejaVuSans-69" d="M 603 3500 
L 1178 3500 
L 1178 0 
L 603 0 
L 603 3500 
z
M 603 4863 
L 1178 4863 
L 1178 4134 
L 603 4134 
L 603 4863 
z
" transform="scale(0.015625)"/>
      <path id="DejaVuSans-74" d="M 1172 4494 
L 1172 3500 
L 2356 3500 
L 2356 3053 
L 1172 3053 
L 1172 1153 
Q 1172 725 1289 603 
Q 1406 481 1766 481 
L 2356 481 
L 2356 0 
L 1766 0 
Q 1100 0 847 248 
Q 594 497 594 1153 
L 594 3053 
L 172 3053 
L 172 3500 
L 594 3500 
L 594 4494 
L 1172 4494 
z
" transform="scale(0.015625)"/>
      <path id="DejaVuSans-5f" d="M 3263 -1063 
L 3263 -1509 
L -63 -1509 
L -63 -1063 
L 3263 -1063 
z
" transform="scale(0.015625)"/>
     </defs>
     <use xlink:href="#DejaVuSans-75"/>
     <use xlink:href="#DejaVuSans-6e" x="63.378906"/>
     <use xlink:href="#DejaVuSans-69" x="126.757812"/>
     <use xlink:href="#DejaVuSans-74" x="154.541016"/>
     <use xlink:href="#DejaVuSans-5f" x="193.75"/>
     <use xlink:href="#DejaVuSans-38" x="243.75"/>
     <use xlink:href="#DejaVuSans-38" x="307.373047"/>
    </g>
   </g>
  </g>
  <g id="axes_3">
   <g id="patch_12">
    <path d="M 90 630 
L 343.636364 630 
L 343.636364 382.909091 
L 90 382.909091 
z
" style="fill: #ffffff"/>
   </g>
   <g id="matplotlib.axis_5">
    <g id="xtick_12">
     <g id="line2d_28">
      <g>
       <use xlink:href="#m398fa0350a" x="90" y="630" style="stroke: #000000; stroke-width: 0.8"/>
      </g>
     </g>
     <g id="text_25">
      <!-- 0.0 -->
      <g transform="translate(82.048438 644.598437)scale(0.1 -0.1)">
       <use xlink:href="#DejaVuSans-30"/>
       <use xlink:href="#DejaVuSans-2e" x="63.623047"/>
       <use xlink:href="#DejaVuSans-30" x="95.410156"/>
      </g>
     </g>
    </g>
    <g id="xtick_13">
     <g id="line2d_29">
      <g>
       <use xlink:href="#m398fa0350a" x="140.727273" y="630" style="stroke: #000000; stroke-width: 0.8"/>
      </g>
     </g>
     <g id="text_26">
      <!-- 0.2 -->
      <g transform="translate(132.77571 644.598437)scale(0.1 -0.1)">
       <use xlink:href="#DejaVuSans-30"/>
       <use xlink:href="#DejaVuSans-2e" x="63.623047"/>
       <use xlink:href="#DejaVuSans-32" x="95.410156"/>
      </g>
     </g>
    </g>
    <g id="xtick_14">
     <g id="line2d_30">
      <g>
       <use xlink:href="#m398fa0350a" x="191.454545" y="630" style="stroke: #000000; stroke-width: 0.8"/>
      </g>
     </g>
     <g id="text_27">
      <!-- 0.4 -->
      <g transform="translate(183.502983 644.598437)scale(0.1 -0.1)">
       <use xlink:href="#DejaVuSans-30"/>
       <use xlink:href="#DejaVuSans-2e" x="63.623047"/>
       <use xlink:href="#DejaVuSans-34" x="95.410156"/>
      </g>
     </g>
    </g>
    <g id="xtick_15">
     <g id="line2d_31">
      <g>
       <use xlink:href="#m398fa0350a" x="242.181818" y="630" style="stroke: #000000; stroke-width: 0.8"/>
      </g>
     </g>
     <g id="text_28">
      <!-- 0.6 -->
      <g transform="translate(234.230256 644.598437)scale(0.1 -0.1)">
       <use xlink:href="#DejaVuSans-30"/>
       <use xlink:href="#DejaVuSans-2e" x="63.623047"/>
       <use xlink:href="#DejaVuSans-36" x="95.410156"/>
      </g>
     </g>
    </g>
    <g id="xtick_16">
     <g id="line2d_32">
      <g>
       <use xlink:href="#m398fa0350a" x="292.909091" y="630" style="stroke: #000000; stroke-width: 0.8"/>
      </g>
     </g>
     <g id="text_29">
      <!-- 0.8 -->
      <g transform="translate(284.957528 644.598437)scale(0.1 -0.1)">
       <use xlink:href="#DejaVuSans-30"/>
       <use xlink:href="#DejaVuSans-2e" x="63.623047"/>
       <use xlink:href="#DejaVuSans-38" x="95.410156"/>
      </g>
     </g>
    </g>
    <g id="xtick_17">
     <g id="line2d_33">
      <g>
       <use xlink:href="#m398fa0350a" x="343.636364" y="630" style="stroke: #000000; stroke-width: 0.8"/>
      </g>
     </g>
     <g id="text_30">
      <!-- 1.0 -->
      <g transform="translate(335.684801 644.598437)scale(0.1 -0.1)">
       <use xlink:href="#DejaVuSans-31"/>
       <use xlink:href="#DejaVuSans-2e" x="63.623047"/>
       <use xlink:href="#DejaVuSans-30" x="95.410156"/>
      </g>
     </g>
    </g>
   </g>
   <g id="matplotlib.axis_6">
    <g id="ytick_13">
     <g id="line2d_34">
      <g>
       <use xlink:href="#m03a6cffb77" x="90" y="630" style="stroke: #000000; stroke-width: 0.8"/>
      </g>
     </g>
     <g id="text_31">
      <!-- 0.0 -->
      <g transform="translate(67.096875 633.799219)scale(0.1 -0.1)">
       <use xlink:href="#DejaVuSans-30"/>
       <use xlink:href="#DejaVuSans-2e" x="63.623047"/>
       <use xlink:href="#DejaVuSans-30" x="95.410156"/>
      </g>
     </g>
    </g>
    <g id="ytick_14">
     <g id="line2d_35">
      <g>
       <use xlink:href="#m03a6cffb77" x="90" y="580.581818" style="stroke: #000000; stroke-width: 0.8"/>
      </g>
     </g>
     <g id="text_32">
      <!-- 0.2 -->
      <g transform="translate(67.096875 584.381037)scale(0.1 -0.1)">
       <use xlink:href="#DejaVuSans-30"/>
       <use xlink:href="#DejaVuSans-2e" x="63.623047"/>
       <use xlink:href="#DejaVuSans-32" x="95.410156"/>
      </g>
     </g>
    </g>
    <g id="ytick_15">
     <g id="line2d_36">
      <g>
       <use xlink:href="#m03a6cffb77" x="90" y="531.163636" style="stroke: #000000; stroke-width: 0.8"/>
      </g>
     </g>
     <g id="text_33">
      <!-- 0.4 -->
      <g transform="translate(67.096875 534.962855)scale(0.1 -0.1)">
       <use xlink:href="#DejaVuSans-30"/>
       <use xlink:href="#DejaVuSans-2e" x="63.623047"/>
       <use xlink:href="#DejaVuSans-34" x="95.410156"/>
      </g>
     </g>
    </g>
    <g id="ytick_16">
     <g id="line2d_37">
      <g>
       <use xlink:href="#m03a6cffb77" x="90" y="481.745455" style="stroke: #000000; stroke-width: 0.8"/>
      </g>
     </g>
     <g id="text_34">
      <!-- 0.6 -->
      <g transform="translate(67.096875 485.544673)scale(0.1 -0.1)">
       <use xlink:href="#DejaVuSans-30"/>
       <use xlink:href="#DejaVuSans-2e" x="63.623047"/>
       <use xlink:href="#DejaVuSans-36" x="95.410156"/>
      </g>
     </g>
    </g>
    <g id="ytick_17">
     <g id="line2d_38">
      <g>
       <use xlink:href="#m03a6cffb77" x="90" y="432.327273" style="stroke: #000000; stroke-width: 0.8"/>
      </g>
     </g>
     <g id="text_35">
      <!-- 0.8 -->
      <g transform="translate(67.096875 436.126491)scale(0.1 -0.1)">
       <use xlink:href="#DejaVuSans-30"/>
       <use xlink:href="#DejaVuSans-2e" x="63.623047"/>
       <use xlink:href="#DejaVuSans-38" x="95.410156"/>
      </g>
     </g>
    </g>
    <g id="ytick_18">
     <g id="line2d_39">
      <g>
       <use xlink:href="#m03a6cffb77" x="90" y="382.909091" style="stroke: #000000; stroke-width: 0.8"/>
      </g>
     </g>
     <g id="text_36">
      <!-- 1.0 -->
      <g transform="translate(67.096875 386.70831)scale(0.1 -0.1)">
       <use xlink:href="#DejaVuSans-31"/>
       <use xlink:href="#DejaVuSans-2e" x="63.623047"/>
       <use xlink:href="#DejaVuSans-30" x="95.410156"/>
      </g>
     </g>
    </g>
   </g>
   <g id="patch_13">
    <path d="M 90 630 
L 90 382.909091 
" style="fill: none; stroke: #000000; stroke-width: 0.8; stroke-linejoin: miter; stroke-linecap: square"/>
   </g>
   <g id="patch_14">
    <path d="M 343.636364 630 
L 343.636364 382.909091 
" style="fill: none; stroke: #000000; stroke-width: 0.8; stroke-linejoin: miter; stroke-linecap: square"/>
   </g>
   <g id="patch_15">
    <path d="M 90 630 
L 343.636364 630 
" style="fill: none; stroke: #000000; stroke-width: 0.8; stroke-linejoin: miter; stroke-linecap: square"/>
   </g>
   <g id="patch_16">
    <path d="M 90 382.909091 
L 343.636364 382.909091 
" style="fill: none; stroke: #000000; stroke-width: 0.8; stroke-linejoin: miter; stroke-linecap: square"/>
   </g>
  </g>
  <g id="axes_4">
   <g id="patch_17">
    <path d="M 394.363636 630 
L 648 630 
L 648 382.909091 
L 394.363636 382.909091 
z
" style="fill: #ffffff"/>
   </g>
   <g id="matplotlib.axis_7">
    <g id="xtick_18">
     <g id="line2d_40">
      <g>
       <use xlink:href="#m398fa0350a" x="405.863558" y="630" style="stroke: #000000; stroke-width: 0.8"/>
      </g>
     </g>
     <g id="text_37">
      <!-- 0 -->
      <g transform="translate(402.682308 644.598437)scale(0.1 -0.1)">
       <use xlink:href="#DejaVuSans-30"/>
      </g>
     </g>
    </g>
    <g id="xtick_19">
     <g id="line2d_41">
      <g>
       <use xlink:href="#m398fa0350a" x="463.870731" y="630" style="stroke: #000000; stroke-width: 0.8"/>
      </g>
     </g>
     <g id="text_38">
      <!-- 2000 -->
      <g transform="translate(451.145731 644.598437)scale(0.1 -0.1)">
       <use xlink:href="#DejaVuSans-32"/>
       <use xlink:href="#DejaVuSans-30" x="63.623047"/>
       <use xlink:href="#DejaVuSans-30" x="127.246094"/>
       <use xlink:href="#DejaVuSans-30" x="190.869141"/>
      </g>
     </g>
    </g>
    <g id="xtick_20">
     <g id="line2d_42">
      <g>
       <use xlink:href="#m398fa0350a" x="521.877904" y="630" style="stroke: #000000; stroke-width: 0.8"/>
      </g>
     </g>
     <g id="text_39">
      <!-- 4000 -->
      <g transform="translate(509.152904 644.598437)scale(0.1 -0.1)">
       <use xlink:href="#DejaVuSans-34"/>
       <use xlink:href="#DejaVuSans-30" x="63.623047"/>
       <use xlink:href="#DejaVuSans-30" x="127.246094"/>
       <use xlink:href="#DejaVuSans-30" x="190.869141"/>
      </g>
     </g>
    </g>
    <g id="xtick_21">
     <g id="line2d_43">
      <g>
       <use xlink:href="#m398fa0350a" x="579.885077" y="630" style="stroke: #000000; stroke-width: 0.8"/>
      </g>
     </g>
     <g id="text_40">
      <!-- 6000 -->
      <g transform="translate(567.160077 644.598437)scale(0.1 -0.1)">
       <use xlink:href="#DejaVuSans-36"/>
       <use xlink:href="#DejaVuSans-30" x="63.623047"/>
       <use xlink:href="#DejaVuSans-30" x="127.246094"/>
       <use xlink:href="#DejaVuSans-30" x="190.869141"/>
      </g>
     </g>
    </g>
    <g id="xtick_22">
     <g id="line2d_44">
      <g>
       <use xlink:href="#m398fa0350a" x="637.89225" y="630" style="stroke: #000000; stroke-width: 0.8"/>
      </g>
     </g>
     <g id="text_41">
      <!-- 8000 -->
      <g transform="translate(625.16725 644.598437)scale(0.1 -0.1)">
       <use xlink:href="#DejaVuSans-38"/>
       <use xlink:href="#DejaVuSans-30" x="63.623047"/>
       <use xlink:href="#DejaVuSans-30" x="127.246094"/>
       <use xlink:href="#DejaVuSans-30" x="190.869141"/>
      </g>
     </g>
    </g>
   </g>
   <g id="matplotlib.axis_8">
    <g id="ytick_19">
     <g id="line2d_45">
      <g>
       <use xlink:href="#m03a6cffb77" x="394.363636" y="630" style="stroke: #000000; stroke-width: 0.8"/>
      </g>
     </g>
     <g id="text_42">
      <!-- −2 -->
      <g transform="translate(372.621449 633.799219)scale(0.1 -0.1)">
       <use xlink:href="#DejaVuSans-2212"/>
       <use xlink:href="#DejaVuSans-32" x="83.789062"/>
      </g>
     </g>
    </g>
    <g id="ytick_20">
     <g id="line2d_46">
      <g>
       <use xlink:href="#m03a6cffb77" x="394.363636" y="582.456792" style="stroke: #000000; stroke-width: 0.8"/>
      </g>
     </g>
     <g id="text_43">
      <!-- 0 -->
      <g transform="translate(381.001136 586.25601)scale(0.1 -0.1)">
       <use xlink:href="#DejaVuSans-30"/>
      </g>
     </g>
    </g>
    <g id="ytick_21">
     <g id="line2d_47">
      <g>
       <use xlink:href="#m03a6cffb77" x="394.363636" y="534.913583" style="stroke: #000000; stroke-width: 0.8"/>
      </g>
     </g>
     <g id="text_44">
      <!-- 2 -->
      <g transform="translate(381.001136 538.712802)scale(0.1 -0.1)">
       <use xlink:href="#DejaVuSans-32"/>
      </g>
     </g>
    </g>
    <g id="ytick_22">
     <g id="line2d_48">
      <g>
       <use xlink:href="#m03a6cffb77" x="394.363636" y="487.370375" style="stroke: #000000; stroke-width: 0.8"/>
      </g>
     </g>
     <g id="text_45">
      <!-- 4 -->
      <g transform="translate(381.001136 491.169593)scale(0.1 -0.1)">
       <use xlink:href="#DejaVuSans-34"/>
      </g>
     </g>
    </g>
    <g id="ytick_23">
     <g id="line2d_49">
      <g>
       <use xlink:href="#m03a6cffb77" x="394.363636" y="439.827166" style="stroke: #000000; stroke-width: 0.8"/>
      </g>
     </g>
     <g id="text_46">
      <!-- 6 -->
      <g transform="translate(381.001136 443.626385)scale(0.1 -0.1)">
       <use xlink:href="#DejaVuSans-36"/>
      </g>
     </g>
    </g>
    <g id="ytick_24">
     <g id="line2d_50">
      <g>
       <use xlink:href="#m03a6cffb77" x="394.363636" y="392.283958" style="stroke: #000000; stroke-width: 0.8"/>
      </g>
     </g>
     <g id="text_47">
      <!-- 8 -->
      <g transform="translate(381.001136 396.083176)scale(0.1 -0.1)">
       <use xlink:href="#DejaVuSans-38"/>
      </g>
     </g>
    </g>
   </g>
   <g id="line2d_51">
    <path d="M 463.287844 721 
L 463.899735 701.288623 
L 465.349914 709.794079 
L 465.635778 721 
M 471.866054 721 
L 474.05099 598.392317 
L 475.501169 535.80873 
L 476.951349 524.708881 
L 478.401528 554.430201 
L 479.851707 576.615621 
L 481.301887 547.209131 
L 482.752066 485.124912 
L 484.202245 439.517459 
L 485.652425 427.813103 
L 487.102604 452.425943 
L 488.552783 482.332621 
L 490.002963 479.229368 
L 491.453142 448.273476 
L 492.903321 411.916881 
L 494.353501 382.909091 
L 495.80368 391.810454 
L 497.253859 457.587426 
L 498.704039 513.563525 
L 500.154218 546.550071 
L 503.054577 622.915486 
L 504.504756 640.630267 
L 507.405115 610.801742 
L 508.855294 624.078344 
L 510.305473 649.731302 
L 511.755653 657.86131 
L 513.205832 661.35428 
L 514.656011 649.563804 
L 516.106191 634.745121 
L 517.55637 649.468081 
L 519.006549 667.887251 
L 520.456729 655.395339 
L 523.357087 590.505763 
L 524.807266 575.814777 
L 526.257446 562.472523 
L 527.707625 570.807265 
L 529.157804 603.951921 
L 530.607984 640.64092 
L 532.058163 616.607689 
L 533.508342 536.016415 
L 534.958522 485.010536 
L 536.408701 466.448513 
L 537.85888 484.759144 
L 539.30906 533.183657 
L 542.209418 610.402848 
L 543.659598 612.667554 
L 545.109777 599.307308 
L 546.559956 598.295157 
L 548.010136 596.182766 
L 549.460315 586.489399 
L 550.910494 582.596015 
L 553.810853 615.446538 
L 555.261032 603.911947 
L 556.711212 589.693793 
L 558.161391 588.552937 
L 559.61157 605.910321 
L 561.06175 673.037938 
L 562.344062 721 
M 562.6849 721 
L 563.962108 674.63845 
L 565.412288 626.587521 
L 566.862467 629.194344 
L 568.312646 619.358469 
L 569.762826 589.84303 
L 571.213005 588.996839 
L 572.663184 584.304193 
L 574.113363 559.527623 
L 575.563543 594.561129 
L 577.013722 674.267255 
L 578.463901 662.219287 
L 579.914081 604.240951 
L 581.36426 555.206837 
L 582.814439 522.364961 
L 584.264619 510.770204 
L 585.714798 489.182902 
L 587.164977 476.192168 
L 588.615157 491.497065 
L 590.065336 534.251551 
L 591.515515 607.2043 
L 592.965695 651.830607 
L 594.415874 631.745398 
L 595.866053 608.285801 
L 597.316233 609.110049 
L 598.766412 615.512876 
L 600.216591 609.32558 
L 601.666771 595.636141 
L 603.11695 589.074713 
L 604.567129 588.484031 
L 606.017309 597.402628 
L 607.467488 627.919083 
L 608.917667 651.010159 
L 610.367847 627.235943 
L 611.818026 597.816507 
L 613.268205 603.866918 
L 614.718385 654.427699 
L 616.168564 690.283222 
L 617.618743 636.48225 
L 619.068923 569.567295 
L 620.519102 555.077238 
L 621.969281 579.066579 
L 624.86964 669.844133 
L 626.319819 646.376444 
L 627.769998 580.539522 
L 629.220178 555.359606 
L 630.670357 597.339935 
L 632.388891 721 
L 632.388891 721 
" clip-path="url(#peaefeef5df)" style="fill: none; stroke: #1f77b4; stroke-width: 1.5; stroke-linecap: square"/>
   </g>
   <g id="patch_18">
    <path d="M 394.363636 630 
L 394.363636 382.909091 
" style="fill: none; stroke: #000000; stroke-width: 0.8; stroke-linejoin: miter; stroke-linecap: square"/>
   </g>
   <g id="patch_19">
    <path d="M 648 630 
L 648 382.909091 
" style="fill: none; stroke: #000000; stroke-width: 0.8; stroke-linejoin: miter; stroke-linecap: square"/>
   </g>
   <g id="patch_20">
    <path d="M 394.363636 630 
L 648 630 
" style="fill: none; stroke: #000000; stroke-width: 0.8; stroke-linejoin: miter; stroke-linecap: square"/>
   </g>
   <g id="patch_21">
    <path d="M 394.363636 382.909091 
L 648 382.909091 
" style="fill: none; stroke: #000000; stroke-width: 0.8; stroke-linejoin: miter; stroke-linecap: square"/>
   </g>
   <g id="text_48">
    <!-- explained variance -->
    <g transform="translate(464.181818 376.909091)scale(0.12 -0.12)">
     <defs>
      <path id="DejaVuSans-65" d="M 3597 1894 
L 3597 1613 
L 953 1613 
Q 991 1019 1311 708 
Q 1631 397 2203 397 
Q 2534 397 2845 478 
Q 3156 559 3463 722 
L 3463 178 
Q 3153 47 2828 -22 
Q 2503 -91 2169 -91 
Q 1331 -91 842 396 
Q 353 884 353 1716 
Q 353 2575 817 3079 
Q 1281 3584 2069 3584 
Q 2775 3584 3186 3129 
Q 3597 2675 3597 1894 
z
M 3022 2063 
Q 3016 2534 2758 2815 
Q 2500 3097 2075 3097 
Q 1594 3097 1305 2825 
Q 1016 2553 972 2059 
L 3022 2063 
z
" transform="scale(0.015625)"/>
      <path id="DejaVuSans-78" d="M 3513 3500 
L 2247 1797 
L 3578 0 
L 2900 0 
L 1881 1375 
L 863 0 
L 184 0 
L 1544 1831 
L 300 3500 
L 978 3500 
L 1906 2253 
L 2834 3500 
L 3513 3500 
z
" transform="scale(0.015625)"/>
      <path id="DejaVuSans-70" d="M 1159 525 
L 1159 -1331 
L 581 -1331 
L 581 3500 
L 1159 3500 
L 1159 2969 
Q 1341 3281 1617 3432 
Q 1894 3584 2278 3584 
Q 2916 3584 3314 3078 
Q 3713 2572 3713 1747 
Q 3713 922 3314 415 
Q 2916 -91 2278 -91 
Q 1894 -91 1617 61 
Q 1341 213 1159 525 
z
M 3116 1747 
Q 3116 2381 2855 2742 
Q 2594 3103 2138 3103 
Q 1681 3103 1420 2742 
Q 1159 2381 1159 1747 
Q 1159 1113 1420 752 
Q 1681 391 2138 391 
Q 2594 391 2855 752 
Q 3116 1113 3116 1747 
z
" transform="scale(0.015625)"/>
      <path id="DejaVuSans-6c" d="M 603 4863 
L 1178 4863 
L 1178 0 
L 603 0 
L 603 4863 
z
" transform="scale(0.015625)"/>
      <path id="DejaVuSans-61" d="M 2194 1759 
Q 1497 1759 1228 1600 
Q 959 1441 959 1056 
Q 959 750 1161 570 
Q 1363 391 1709 391 
Q 2188 391 2477 730 
Q 2766 1069 2766 1631 
L 2766 1759 
L 2194 1759 
z
M 3341 1997 
L 3341 0 
L 2766 0 
L 2766 531 
Q 2569 213 2275 61 
Q 1981 -91 1556 -91 
Q 1019 -91 701 211 
Q 384 513 384 1019 
Q 384 1609 779 1909 
Q 1175 2209 1959 2209 
L 2766 2209 
L 2766 2266 
Q 2766 2663 2505 2880 
Q 2244 3097 1772 3097 
Q 1472 3097 1187 3025 
Q 903 2953 641 2809 
L 641 3341 
Q 956 3463 1253 3523 
Q 1550 3584 1831 3584 
Q 2591 3584 2966 3190 
Q 3341 2797 3341 1997 
z
" transform="scale(0.015625)"/>
      <path id="DejaVuSans-64" d="M 2906 2969 
L 2906 4863 
L 3481 4863 
L 3481 0 
L 2906 0 
L 2906 525 
Q 2725 213 2448 61 
Q 2172 -91 1784 -91 
Q 1150 -91 751 415 
Q 353 922 353 1747 
Q 353 2572 751 3078 
Q 1150 3584 1784 3584 
Q 2172 3584 2448 3432 
Q 2725 3281 2906 2969 
z
M 947 1747 
Q 947 1113 1208 752 
Q 1469 391 1925 391 
Q 2381 391 2643 752 
Q 2906 1113 2906 1747 
Q 2906 2381 2643 2742 
Q 2381 3103 1925 3103 
Q 1469 3103 1208 2742 
Q 947 2381 947 1747 
z
" transform="scale(0.015625)"/>
      <path id="DejaVuSans-20" transform="scale(0.015625)"/>
      <path id="DejaVuSans-76" d="M 191 3500 
L 800 3500 
L 1894 563 
L 2988 3500 
L 3597 3500 
L 2284 0 
L 1503 0 
L 191 3500 
z
" transform="scale(0.015625)"/>
      <path id="DejaVuSans-72" d="M 2631 2963 
Q 2534 3019 2420 3045 
Q 2306 3072 2169 3072 
Q 1681 3072 1420 2755 
Q 1159 2438 1159 1844 
L 1159 0 
L 581 0 
L 581 3500 
L 1159 3500 
L 1159 2956 
Q 1341 3275 1631 3429 
Q 1922 3584 2338 3584 
Q 2397 3584 2469 3576 
Q 2541 3569 2628 3553 
L 2631 2963 
z
" transform="scale(0.015625)"/>
      <path id="DejaVuSans-63" d="M 3122 3366 
L 3122 2828 
Q 2878 2963 2633 3030 
Q 2388 3097 2138 3097 
Q 1578 3097 1268 2742 
Q 959 2388 959 1747 
Q 959 1106 1268 751 
Q 1578 397 2138 397 
Q 2388 397 2633 464 
Q 2878 531 3122 666 
L 3122 134 
Q 2881 22 2623 -34 
Q 2366 -91 2075 -91 
Q 1284 -91 818 406 
Q 353 903 353 1747 
Q 353 2603 823 3093 
Q 1294 3584 2113 3584 
Q 2378 3584 2631 3529 
Q 2884 3475 3122 3366 
z
" transform="scale(0.015625)"/>
     </defs>
     <use xlink:href="#DejaVuSans-65"/>
     <use xlink:href="#DejaVuSans-78" x="59.773438"/>
     <use xlink:href="#DejaVuSans-70" x="118.953125"/>
     <use xlink:href="#DejaVuSans-6c" x="182.429688"/>
     <use xlink:href="#DejaVuSans-61" x="210.212891"/>
     <use xlink:href="#DejaVuSans-69" x="271.492188"/>
     <use xlink:href="#DejaVuSans-6e" x="299.275391"/>
     <use xlink:href="#DejaVuSans-65" x="362.654297"/>
     <use xlink:href="#DejaVuSans-64" x="424.177734"/>
     <use xlink:href="#DejaVuSans-20" x="487.654297"/>
     <use xlink:href="#DejaVuSans-76" x="519.441406"/>
     <use xlink:href="#DejaVuSans-61" x="578.621094"/>
     <use xlink:href="#DejaVuSans-72" x="639.900391"/>
     <use xlink:href="#DejaVuSans-69" x="681.013672"/>
     <use xlink:href="#DejaVuSans-61" x="708.796875"/>
     <use xlink:href="#DejaVuSans-6e" x="770.076172"/>
     <use xlink:href="#DejaVuSans-63" x="833.455078"/>
     <use xlink:href="#DejaVuSans-65" x="888.435547"/>
    </g>
   </g>
  </g>
 </g>
 <defs>
  <clipPath id="p5f1f5e748d">
   <rect x="394.363636" y="86.4" width="253.636364" height="247.090909"/>
  </clipPath>
  <clipPath id="peaefeef5df">
   <rect x="394.363636" y="382.909091" width="253.636364" height="247.090909"/>
  </clipPath>
 </defs>
</svg>
