<?xml version="1.0" encoding="utf-8" standalone="no"?>
<!DOCTYPE svg PUBLIC "-//W3C//DTD SVG 1.1//EN"
  "http://www.w3.org/Graphics/SVG/1.1/DTD/svg11.dtd">
<svg xmlns:xlink="http://www.w3.org/1999/xlink" width="720pt" height="720pt" viewBox="0 0 720 720" xmlns="http://www.w3.org/2000/svg" version="1.1">
 <metadata>
  <rdf:RDF xmlns:dc="http://purl.org/dc/elements/1.1/" xmlns:cc="http://creativecommons.org/ns#" xmlns:rdf="http://www.w3.org/1999/02/22-rdf-syntax-ns#">
   <cc:Work>
    <dc:type rdf:resource="http://purl.org/dc/dcmitype/StillImage"/>
    <dc:date>2023-12-19T18:22:04.150006</dc:date>
    <dc:format>image/svg+xml</dc:format>
    <dc:creator>
     <cc:Agent>
      <dc:title>Matplotlib v3.5.2, https://matplotlib.org/</dc:title>
     </cc:Agent>
    </dc:creator>
   </cc:Work>
  </rdf:RDF>
 </metadata>
 <defs>
  <style type="text/css">*{stroke-linejoin: round; stroke-linecap: butt}</style>
 </defs>
 <g id="figure_1">
  <g id="patch_1">
   <path d="M 0 720 
L 720 720 
L 720 0 
L 0 0 
z
" style="fill: #ffffff"/>
  </g>
  <g id="axes_1">
   <g id="patch_2">
    <path d="M 90 333.490909 
L 343.636364 333.490909 
L 343.636364 86.4 
L 90 86.4 
z
" style="fill: #ffffff"/>
   </g>
   <g id="matplotlib.axis_1">
    <g id="xtick_1">
     <g id="line2d_1">
      <defs>
       <path id="m5649ef38ea" d="M 0 0 
L 0 3.5 
" style="stroke: #000000; stroke-width: 0.8"/>
      </defs>
      <g>
       <use xlink:href="#m5649ef38ea" x="90" y="333.490909" style="stroke: #000000; stroke-width: 0.8"/>
      </g>
     </g>
     <g id="text_1">
      <!-- 0.0 -->
      <g transform="translate(82.048438 348.089347)scale(0.1 -0.1)">
       <defs>
        <path id="DejaVuSans-30" d="M 2034 4250 
Q 1547 4250 1301 3770 
Q 1056 3291 1056 2328 
Q 1056 1369 1301 889 
Q 1547 409 2034 409 
Q 2525 409 2770 889 
Q 3016 1369 3016 2328 
Q 3016 3291 2770 3770 
Q 2525 4250 2034 4250 
z
M 2034 4750 
Q 2819 4750 3233 4129 
Q 3647 3509 3647 2328 
Q 3647 1150 3233 529 
Q 2819 -91 2034 -91 
Q 1250 -91 836 529 
Q 422 1150 422 2328 
Q 422 3509 836 4129 
Q 1250 4750 2034 4750 
z
" transform="scale(0.015625)"/>
        <path id="DejaVuSans-2e" d="M 684 794 
L 1344 794 
L 1344 0 
L 684 0 
L 684 794 
z
" transform="scale(0.015625)"/>
       </defs>
       <use xlink:href="#DejaVuSans-30"/>
       <use xlink:href="#DejaVuSans-2e" x="63.623047"/>
       <use xlink:href="#DejaVuSans-30" x="95.410156"/>
      </g>
     </g>
    </g>
    <g id="xtick_2">
     <g id="line2d_2">
      <g>
       <use xlink:href="#m5649ef38ea" x="140.727273" y="333.490909" style="stroke: #000000; stroke-width: 0.8"/>
      </g>
     </g>
     <g id="text_2">
      <!-- 0.2 -->
      <g transform="translate(132.77571 348.089347)scale(0.1 -0.1)">
       <defs>
        <path id="DejaVuSans-32" d="M 1228 531 
L 3431 531 
L 3431 0 
L 469 0 
L 469 531 
Q 828 903 1448 1529 
Q 2069 2156 2228 2338 
Q 2531 2678 2651 2914 
Q 2772 3150 2772 3378 
Q 2772 3750 2511 3984 
Q 2250 4219 1831 4219 
Q 1534 4219 1204 4116 
Q 875 4013 500 3803 
L 500 4441 
Q 881 4594 1212 4672 
Q 1544 4750 1819 4750 
Q 2544 4750 2975 4387 
Q 3406 4025 3406 3419 
Q 3406 3131 3298 2873 
Q 3191 2616 2906 2266 
Q 2828 2175 2409 1742 
Q 1991 1309 1228 531 
z
" transform="scale(0.015625)"/>
       </defs>
       <use xlink:href="#DejaVuSans-30"/>
       <use xlink:href="#DejaVuSans-2e" x="63.623047"/>
       <use xlink:href="#DejaVuSans-32" x="95.410156"/>
      </g>
     </g>
    </g>
    <g id="xtick_3">
     <g id="line2d_3">
      <g>
       <use xlink:href="#m5649ef38ea" x="191.454545" y="333.490909" style="stroke: #000000; stroke-width: 0.8"/>
      </g>
     </g>
     <g id="text_3">
      <!-- 0.4 -->
      <g transform="translate(183.502983 348.089347)scale(0.1 -0.1)">
       <defs>
        <path id="DejaVuSans-34" d="M 2419 4116 
L 825 1625 
L 2419 1625 
L 2419 4116 
z
M 2253 4666 
L 3047 4666 
L 3047 1625 
L 3713 1625 
L 3713 1100 
L 3047 1100 
L 3047 0 
L 2419 0 
L 2419 1100 
L 313 1100 
L 313 1709 
L 2253 4666 
z
" transform="scale(0.015625)"/>
       </defs>
       <use xlink:href="#DejaVuSans-30"/>
       <use xlink:href="#DejaVuSans-2e" x="63.623047"/>
       <use xlink:href="#DejaVuSans-34" x="95.410156"/>
      </g>
     </g>
    </g>
    <g id="xtick_4">
     <g id="line2d_4">
      <g>
       <use xlink:href="#m5649ef38ea" x="242.181818" y="333.490909" style="stroke: #000000; stroke-width: 0.8"/>
      </g>
     </g>
     <g id="text_4">
      <!-- 0.6 -->
      <g transform="translate(234.230256 348.089347)scale(0.1 -0.1)">
       <defs>
        <path id="DejaVuSans-36" d="M 2113 2584 
Q 1688 2584 1439 2293 
Q 1191 2003 1191 1497 
Q 1191 994 1439 701 
Q 1688 409 2113 409 
Q 2538 409 2786 701 
Q 3034 994 3034 1497 
Q 3034 2003 2786 2293 
Q 2538 2584 2113 2584 
z
M 3366 4563 
L 3366 3988 
Q 3128 4100 2886 4159 
Q 2644 4219 2406 4219 
Q 1781 4219 1451 3797 
Q 1122 3375 1075 2522 
Q 1259 2794 1537 2939 
Q 1816 3084 2150 3084 
Q 2853 3084 3261 2657 
Q 3669 2231 3669 1497 
Q 3669 778 3244 343 
Q 2819 -91 2113 -91 
Q 1303 -91 875 529 
Q 447 1150 447 2328 
Q 447 3434 972 4092 
Q 1497 4750 2381 4750 
Q 2619 4750 2861 4703 
Q 3103 4656 3366 4563 
z
" transform="scale(0.015625)"/>
       </defs>
       <use xlink:href="#DejaVuSans-30"/>
       <use xlink:href="#DejaVuSans-2e" x="63.623047"/>
       <use xlink:href="#DejaVuSans-36" x="95.410156"/>
      </g>
     </g>
    </g>
    <g id="xtick_5">
     <g id="line2d_5">
      <g>
       <use xlink:href="#m5649ef38ea" x="292.909091" y="333.490909" style="stroke: #000000; stroke-width: 0.8"/>
      </g>
     </g>
     <g id="text_5">
      <!-- 0.8 -->
      <g transform="translate(284.957528 348.089347)scale(0.1 -0.1)">
       <defs>
        <path id="DejaVuSans-38" d="M 2034 2216 
Q 1584 2216 1326 1975 
Q 1069 1734 1069 1313 
Q 1069 891 1326 650 
Q 1584 409 2034 409 
Q 2484 409 2743 651 
Q 3003 894 3003 1313 
Q 3003 1734 2745 1975 
Q 2488 2216 2034 2216 
z
M 1403 2484 
Q 997 2584 770 2862 
Q 544 3141 544 3541 
Q 544 4100 942 4425 
Q 1341 4750 2034 4750 
Q 2731 4750 3128 4425 
Q 3525 4100 3525 3541 
Q 3525 3141 3298 2862 
Q 3072 2584 2669 2484 
Q 3125 2378 3379 2068 
Q 3634 1759 3634 1313 
Q 3634 634 3220 271 
Q 2806 -91 2034 -91 
Q 1263 -91 848 271 
Q 434 634 434 1313 
Q 434 1759 690 2068 
Q 947 2378 1403 2484 
z
M 1172 3481 
Q 1172 3119 1398 2916 
Q 1625 2713 2034 2713 
Q 2441 2713 2670 2916 
Q 2900 3119 2900 3481 
Q 2900 3844 2670 4047 
Q 2441 4250 2034 4250 
Q 1625 4250 1398 4047 
Q 1172 3844 1172 3481 
z
" transform="scale(0.015625)"/>
       </defs>
       <use xlink:href="#DejaVuSans-30"/>
       <use xlink:href="#DejaVuSans-2e" x="63.623047"/>
       <use xlink:href="#DejaVuSans-38" x="95.410156"/>
      </g>
     </g>
    </g>
    <g id="xtick_6">
     <g id="line2d_6">
      <g>
       <use xlink:href="#m5649ef38ea" x="343.636364" y="333.490909" style="stroke: #000000; stroke-width: 0.8"/>
      </g>
     </g>
     <g id="text_6">
      <!-- 1.0 -->
      <g transform="translate(335.684801 348.089347)scale(0.1 -0.1)">
       <defs>
        <path id="DejaVuSans-31" d="M 794 531 
L 1825 531 
L 1825 4091 
L 703 3866 
L 703 4441 
L 1819 4666 
L 2450 4666 
L 2450 531 
L 3481 531 
L 3481 0 
L 794 0 
L 794 531 
z
" transform="scale(0.015625)"/>
       </defs>
       <use xlink:href="#DejaVuSans-31"/>
       <use xlink:href="#DejaVuSans-2e" x="63.623047"/>
       <use xlink:href="#DejaVuSans-30" x="95.410156"/>
      </g>
     </g>
    </g>
   </g>
   <g id="matplotlib.axis_2">
    <g id="ytick_1">
     <g id="line2d_7">
      <defs>
       <path id="m7dab375ffd" d="M 0 0 
L -3.5 0 
" style="stroke: #000000; stroke-width: 0.8"/>
      </defs>
      <g>
       <use xlink:href="#m7dab375ffd" x="90" y="333.490909" style="stroke: #000000; stroke-width: 0.8"/>
      </g>
     </g>
     <g id="text_7">
      <!-- 0.0 -->
      <g transform="translate(67.096875 337.290128)scale(0.1 -0.1)">
       <use xlink:href="#DejaVuSans-30"/>
       <use xlink:href="#DejaVuSans-2e" x="63.623047"/>
       <use xlink:href="#DejaVuSans-30" x="95.410156"/>
      </g>
     </g>
    </g>
    <g id="ytick_2">
     <g id="line2d_8">
      <g>
       <use xlink:href="#m7dab375ffd" x="90" y="284.072727" style="stroke: #000000; stroke-width: 0.8"/>
      </g>
     </g>
     <g id="text_8">
      <!-- 0.2 -->
      <g transform="translate(67.096875 287.871946)scale(0.1 -0.1)">
       <use xlink:href="#DejaVuSans-30"/>
       <use xlink:href="#DejaVuSans-2e" x="63.623047"/>
       <use xlink:href="#DejaVuSans-32" x="95.410156"/>
      </g>
     </g>
    </g>
    <g id="ytick_3">
     <g id="line2d_9">
      <g>
       <use xlink:href="#m7dab375ffd" x="90" y="234.654545" style="stroke: #000000; stroke-width: 0.8"/>
      </g>
     </g>
     <g id="text_9">
      <!-- 0.4 -->
      <g transform="translate(67.096875 238.453764)scale(0.1 -0.1)">
       <use xlink:href="#DejaVuSans-30"/>
       <use xlink:href="#DejaVuSans-2e" x="63.623047"/>
       <use xlink:href="#DejaVuSans-34" x="95.410156"/>
      </g>
     </g>
    </g>
    <g id="ytick_4">
     <g id="line2d_10">
      <g>
       <use xlink:href="#m7dab375ffd" x="90" y="185.236364" style="stroke: #000000; stroke-width: 0.8"/>
      </g>
     </g>
     <g id="text_10">
      <!-- 0.6 -->
      <g transform="translate(67.096875 189.035582)scale(0.1 -0.1)">
       <use xlink:href="#DejaVuSans-30"/>
       <use xlink:href="#DejaVuSans-2e" x="63.623047"/>
       <use xlink:href="#DejaVuSans-36" x="95.410156"/>
      </g>
     </g>
    </g>
    <g id="ytick_5">
     <g id="line2d_11">
      <g>
       <use xlink:href="#m7dab375ffd" x="90" y="135.818182" style="stroke: #000000; stroke-width: 0.8"/>
      </g>
     </g>
     <g id="text_11">
      <!-- 0.8 -->
      <g transform="translate(67.096875 139.617401)scale(0.1 -0.1)">
       <use xlink:href="#DejaVuSans-30"/>
       <use xlink:href="#DejaVuSans-2e" x="63.623047"/>
       <use xlink:href="#DejaVuSans-38" x="95.410156"/>
      </g>
     </g>
    </g>
    <g id="ytick_6">
     <g id="line2d_12">
      <g>
       <use xlink:href="#m7dab375ffd" x="90" y="86.4" style="stroke: #000000; stroke-width: 0.8"/>
      </g>
     </g>
     <g id="text_12">
      <!-- 1.0 -->
      <g transform="translate(67.096875 90.199219)scale(0.1 -0.1)">
       <use xlink:href="#DejaVuSans-31"/>
       <use xlink:href="#DejaVuSans-2e" x="63.623047"/>
       <use xlink:href="#DejaVuSans-30" x="95.410156"/>
      </g>
     </g>
    </g>
   </g>
   <g id="patch_3">
    <path d="M 90 333.490909 
L 90 86.4 
" style="fill: none; stroke: #000000; stroke-width: 0.8; stroke-linejoin: miter; stroke-linecap: square"/>
   </g>
   <g id="patch_4">
    <path d="M 343.636364 333.490909 
L 343.636364 86.4 
" style="fill: none; stroke: #000000; stroke-width: 0.8; stroke-linejoin: miter; stroke-linecap: square"/>
   </g>
   <g id="patch_5">
    <path d="M 90 333.490909 
L 343.636364 333.490909 
" style="fill: none; stroke: #000000; stroke-width: 0.8; stroke-linejoin: miter; stroke-linecap: square"/>
   </g>
   <g id="patch_6">
    <path d="M 90 86.4 
L 343.636364 86.4 
" style="fill: none; stroke: #000000; stroke-width: 0.8; stroke-linejoin: miter; stroke-linecap: square"/>
   </g>
  </g>
  <g id="axes_2">
   <g id="patch_7">
    <path d="M 394.363636 333.490909 
L 648 333.490909 
L 648 86.4 
L 394.363636 86.4 
z
" style="fill: #ffffff"/>
   </g>
   <g id="PolyCollection_1">
    <defs>
     <path id="mde45fbd6e0" d="M 405.892562 -488.606364 
L 405.892562 -488.606364 
L 407.342741 -488.186226 
L 408.792921 -486.066983 
L 410.2431 -488.788565 
L 411.693279 -490.177307 
L 413.143459 -491.601875 
L 414.593638 -492.770528 
L 416.043817 -494.205033 
L 417.493997 -497.44165 
L 418.944176 -504.950949 
L 420.394355 -519.144079 
L 421.844535 -540.313056 
L 423.294714 -562.120063 
L 424.744893 -583.504005 
L 426.195073 -600.667267 
L 427.645252 -608.867696 
L 429.095431 -610.756058 
L 430.54561 -610.405264 
L 431.99579 -607.568102 
L 433.445969 -605.058129 
L 434.896148 -603.053303 
L 436.346328 -598.978276 
L 437.796507 -594.208518 
L 439.246686 -590.198587 
L 440.696866 -584.306669 
L 442.147045 -577.754754 
L 443.597224 -568.016742 
L 445.047404 -552.935098 
L 446.497583 -536.034901 
L 447.947762 -523.686392 
L 449.397942 -509.986739 
L 450.848121 -501.183227 
L 452.2983 -497.28589 
L 453.74848 -497.167187 
L 455.198659 -499.303479 
L 456.648838 -501.86256 
L 458.099018 -498.574069 
L 459.549197 -501.825593 
L 460.999376 -499.103702 
L 462.449556 -496.323502 
L 463.899735 -494.456242 
L 465.349914 -493.556112 
L 466.800094 -493.239746 
L 468.250273 -493.187495 
L 469.700452 -493.303698 
L 471.150632 -493.685406 
L 472.600811 -494.539166 
L 474.05099 -496.040178 
L 475.501169 -498.273739 
L 476.951349 -499.587326 
L 478.401528 -505.629213 
L 479.851707 -510.842794 
L 481.301887 -513.610794 
L 482.752066 -516.555648 
L 484.202245 -516.362863 
L 485.652425 -515.783633 
L 487.102604 -510.115256 
L 488.552783 -506.480689 
L 490.002963 -505.743303 
L 491.453142 -503.398679 
L 492.903321 -500.451904 
L 494.353501 -501.712191 
L 495.80368 -501.950584 
L 497.253859 -500.421028 
L 498.704039 -499.754978 
L 500.154218 -501.157568 
L 501.604397 -500.112389 
L 503.054577 -497.286898 
L 504.504756 -497.426447 
L 505.954935 -495.875386 
L 507.405115 -494.660802 
L 508.855294 -494.154615 
L 510.305473 -494.527231 
L 511.755653 -495.757147 
L 513.205832 -497.527531 
L 514.656011 -497.58978 
L 516.106191 -498.495916 
L 517.55637 -499.357575 
L 519.006549 -496.802466 
L 520.456729 -496.285458 
L 521.906908 -494.866709 
L 523.357087 -493.923837 
L 524.807266 -493.424096 
L 526.257446 -493.213644 
L 527.707625 -493.143748 
L 529.157804 -493.125567 
L 530.607984 -493.12205 
L 532.058163 -493.121413 
L 533.508342 -493.121413 
L 534.958522 -493.121413 
L 536.408701 -493.121413 
L 537.85888 -493.121413 
L 539.30906 -493.121413 
L 540.759239 -493.121413 
L 542.209418 -493.121413 
L 543.659598 -493.121413 
L 545.109777 -493.121413 
L 546.559956 -493.12061 
L 548.010136 -493.116177 
L 549.460315 -493.094824 
L 550.910494 -493.014642 
L 552.360674 -492.786998 
L 553.810853 -492.291068 
L 555.261032 -491.458883 
L 556.711212 -490.359797 
L 558.161391 -483.901835 
L 559.61157 -488.098758 
L 561.06175 -487.434092 
L 562.511929 -482.396813 
L 563.962108 -488.531473 
L 565.412288 -489.979598 
L 566.862467 -491.140546 
L 568.312646 -491.476765 
L 569.762826 -490.905868 
L 571.213005 -489.677033 
L 572.663184 -484.044335 
L 574.113363 -486.591703 
L 575.563543 -485.534712 
L 577.013722 -480.74671 
L 578.463901 -486.864243 
L 579.914081 -488.958764 
L 581.36426 -490.923324 
L 582.814439 -492.185443 
L 584.264619 -492.704269 
L 585.714798 -492.628335 
L 587.164977 -491.974972 
L 588.615157 -490.665749 
L 590.065336 -488.80882 
L 591.515515 -484.296017 
L 592.965695 -482.500969 
L 594.415874 -485.378613 
L 595.866053 -482.575469 
L 597.316233 -487.573884 
L 598.766412 -488.836732 
L 600.216591 -489.684933 
L 601.666771 -487.638771 
L 603.11695 -490.940561 
L 604.567129 -491.701171 
L 606.017309 -492.376435 
L 607.467488 -492.812069 
L 608.917667 -493.015023 
L 610.367847 -493.061521 
L 611.818026 -492.976771 
L 613.268205 -492.678116 
L 614.718385 -492.007124 
L 616.168564 -490.85004 
L 617.618743 -489.26824 
L 619.068923 -485.099896 
L 620.519102 -485.663246 
L 621.969281 -482.556572 
L 623.41946 -481.172981 
L 624.86964 -480.055848 
L 626.319819 -483.903393 
L 627.769998 -482.958572 
L 629.220178 -485.78092 
L 630.670357 -484.15028 
L 632.120536 -485.286243 
L 633.570716 -485.783605 
L 635.020895 -486.675106 
L 636.471074 -489.009469 
L 636.471074 -489.009469 
L 636.471074 -489.009469 
L 635.020895 -490.171892 
L 633.570716 -489.372404 
L 632.120536 -488.396852 
L 630.670357 -488.483357 
L 629.220178 -485.78092 
L 627.769998 -486.954576 
L 626.319819 -483.903393 
L 624.86964 -486.177912 
L 623.41946 -485.112611 
L 621.969281 -485.638513 
L 620.519102 -485.663246 
L 619.068923 -489.834868 
L 617.618743 -489.26824 
L 616.168564 -490.85004 
L 614.718385 -492.007124 
L 613.268205 -492.678116 
L 611.818026 -492.976771 
L 610.367847 -493.061521 
L 608.917667 -493.015023 
L 607.467488 -492.812069 
L 606.017309 -492.376435 
L 604.567129 -491.701171 
L 603.11695 -490.940561 
L 601.666771 -492.930282 
L 600.216591 -489.684933 
L 598.766412 -488.836732 
L 597.316233 -487.573884 
L 595.866053 -489.842548 
L 594.415874 -485.378613 
L 592.965695 -488.681206 
L 591.515515 -489.481828 
L 590.065336 -488.80882 
L 588.615157 -490.665749 
L 587.164977 -491.974972 
L 585.714798 -492.628335 
L 584.264619 -492.704269 
L 582.814439 -492.185443 
L 581.36426 -490.923324 
L 579.914081 -488.958764 
L 578.463901 -486.864243 
L 577.013722 -490.34884 
L 575.563543 -485.534712 
L 574.113363 -486.591703 
L 572.663184 -492.211461 
L 571.213005 -489.677033 
L 569.762826 -490.905868 
L 568.312646 -491.476765 
L 566.862467 -491.140546 
L 565.412288 -489.979598 
L 563.962108 -488.531473 
L 562.511929 -492.682558 
L 561.06175 -487.434092 
L 559.61157 -488.098758 
L 558.161391 -494.4384 
L 556.711212 -490.359797 
L 555.261032 -491.458883 
L 553.810853 -492.291068 
L 552.360674 -492.786998 
L 550.910494 -493.014642 
L 549.460315 -493.094824 
L 548.010136 -493.116177 
L 546.559956 -493.12061 
L 545.109777 -493.121413 
L 543.659598 -493.121413 
L 542.209418 -493.121413 
L 540.759239 -493.121413 
L 539.30906 -493.121413 
L 537.85888 -493.121413 
L 536.408701 -493.121413 
L 534.958522 -493.121413 
L 533.508342 -493.121413 
L 532.058163 -493.121413 
L 530.607984 -493.12205 
L 529.157804 -493.125567 
L 527.707625 -493.143748 
L 526.257446 -493.213644 
L 524.807266 -493.424096 
L 523.357087 -493.923837 
L 521.906908 -494.866709 
L 520.456729 -496.285458 
L 519.006549 -499.108746 
L 517.55637 -499.357575 
L 516.106191 -501.228614 
L 514.656011 -500.709056 
L 513.205832 -497.527531 
L 511.755653 -495.757147 
L 510.305473 -494.527231 
L 508.855294 -494.154615 
L 507.405115 -494.660802 
L 505.954935 -495.875386 
L 504.504756 -497.426447 
L 503.054577 -500.496996 
L 501.604397 -500.112389 
L 500.154218 -501.157568 
L 498.704039 -504.122346 
L 497.253859 -503.962163 
L 495.80368 -501.950584 
L 494.353501 -501.712191 
L 492.903321 -503.691385 
L 491.453142 -503.398679 
L 490.002963 -505.743303 
L 488.552783 -511.211015 
L 487.102604 -514.552221 
L 485.652425 -515.783633 
L 484.202245 -520.257966 
L 482.752066 -520.541629 
L 481.301887 -517.916342 
L 479.851707 -510.842794 
L 478.401528 -505.629213 
L 476.951349 -503.179101 
L 475.501169 -498.273739 
L 474.05099 -496.040178 
L 472.600811 -494.539166 
L 471.150632 -493.685406 
L 469.700452 -493.303698 
L 468.250273 -493.187495 
L 466.800094 -493.239746 
L 465.349914 -493.556112 
L 463.899735 -494.456242 
L 462.449556 -496.323502 
L 460.999376 -499.103702 
L 459.549197 -501.825593 
L 458.099018 -507.405036 
L 456.648838 -501.86256 
L 455.198659 -499.303479 
L 453.74848 -497.167187 
L 452.2983 -497.28589 
L 450.848121 -501.183227 
L 449.397942 -509.986739 
L 447.947762 -523.686392 
L 446.497583 -544.860312 
L 445.047404 -561.56877 
L 443.597224 -575.053123 
L 442.147045 -586.819711 
L 440.696866 -595.599143 
L 439.246686 -601.066029 
L 437.796507 -606.351201 
L 436.346328 -609.582499 
L 434.896148 -612.110415 
L 433.445969 -615.442186 
L 431.99579 -617.923873 
L 430.54561 -620.069055 
L 429.095431 -622.368595 
L 427.645252 -619.438135 
L 426.195073 -609.750045 
L 424.744893 -593.261291 
L 423.294714 -568.324128 
L 421.844535 -540.313056 
L 420.394355 -519.144079 
L 418.944176 -504.950949 
L 417.493997 -497.44165 
L 416.043817 -494.205033 
L 414.593638 -492.770528 
L 413.143459 -491.601875 
L 411.693279 -490.177307 
L 410.2431 -488.788565 
L 408.792921 -490.052321 
L 407.342741 -488.186226 
L 405.892562 -488.606364 
z
" style="stroke: #9467bd; stroke-opacity: 0.2"/>
    </defs>
    <g clip-path="url(#p38e7931aa1)">
     <use xlink:href="#mde45fbd6e0" x="0" y="720" style="fill: #9467bd; fill-opacity: 0.2; stroke: #9467bd; stroke-opacity: 0.2"/>
    </g>
   </g>
   <g id="PolyCollection_2">
    <defs>
     <path id="madb3da9ac2" d="M 405.892562 -493.121413 
L 405.892562 -493.121413 
L 407.342741 -493.121413 
L 408.792921 -493.121413 
L 410.2431 -493.121413 
L 411.693279 -493.121413 
L 413.143459 -493.121413 
L 414.593638 -493.121413 
L 416.043817 -493.121413 
L 417.493997 -493.121413 
L 418.944176 -493.121413 
L 420.394355 -493.121413 
L 421.844535 -493.121413 
L 423.294714 -493.121413 
L 424.744893 -493.121413 
L 426.195073 -493.121413 
L 427.645252 -493.121413 
L 429.095431 -493.121413 
L 430.54561 -493.121413 
L 431.99579 -493.121413 
L 433.445969 -493.121413 
L 434.896148 -493.121413 
L 436.346328 -493.121413 
L 437.796507 -493.121413 
L 439.246686 -493.121413 
L 440.696866 -493.121413 
L 442.147045 -493.121413 
L 443.597224 -493.121413 
L 445.047404 -493.121413 
L 446.497583 -493.121413 
L 447.947762 -493.121413 
L 449.397942 -493.121413 
L 450.848121 -493.121413 
L 452.2983 -493.121413 
L 453.74848 -493.121413 
L 455.198659 -493.121413 
L 456.648838 -493.121413 
L 458.099018 -493.121413 
L 459.549197 -493.121413 
L 460.999376 -493.121413 
L 462.449556 -493.121413 
L 463.899735 -493.121413 
L 465.349914 -493.121413 
L 466.800094 -493.121413 
L 468.250273 -493.121413 
L 469.700452 -493.121413 
L 471.150632 -493.121413 
L 472.600811 -493.121413 
L 474.05099 -493.121413 
L 475.501169 -493.121413 
L 476.951349 -493.121413 
L 478.401528 -493.121413 
L 479.851707 -493.121413 
L 481.301887 -493.121413 
L 482.752066 -493.121413 
L 484.202245 -493.121413 
L 485.652425 -493.121413 
L 487.102604 -493.121413 
L 488.552783 -493.121413 
L 490.002963 -493.121413 
L 491.453142 -493.121413 
L 492.903321 -493.121413 
L 494.353501 -493.121413 
L 495.80368 -493.121413 
L 497.253859 -493.121413 
L 498.704039 -493.121413 
L 500.154218 -493.121413 
L 501.604397 -493.121413 
L 503.054577 -493.121413 
L 504.504756 -493.121413 
L 505.954935 -493.121413 
L 507.405115 -493.121413 
L 508.855294 -493.121413 
L 510.305473 -493.121413 
L 511.755653 -493.121413 
L 513.205832 -493.121413 
L 514.656011 -493.121413 
L 516.106191 -493.121413 
L 517.55637 -493.121413 
L 519.006549 -493.121413 
L 520.456729 -493.121413 
L 521.906908 -493.121413 
L 523.357087 -493.121413 
L 524.807266 -493.121413 
L 526.257446 -493.121413 
L 527.707625 -493.121413 
L 529.157804 -493.121413 
L 530.607984 -493.121413 
L 532.058163 -493.121413 
L 533.508342 -493.121413 
L 534.958522 -493.121413 
L 536.408701 -493.121413 
L 537.85888 -493.121413 
L 539.30906 -493.121413 
L 540.759239 -493.121413 
L 542.209418 -493.121413 
L 543.659598 -493.121413 
L 545.109777 -493.121413 
L 546.559956 -493.121413 
L 548.010136 -493.121413 
L 549.460315 -493.121413 
L 550.910494 -493.121413 
L 552.360674 -493.121413 
L 553.810853 -493.121413 
L 555.261032 -493.121413 
L 556.711212 -493.121413 
L 558.161391 -493.121413 
L 559.61157 -493.121413 
L 561.06175 -493.121413 
L 562.511929 -493.121413 
L 563.962108 -493.121413 
L 565.412288 -493.121413 
L 566.862467 -493.121413 
L 568.312646 -493.121413 
L 569.762826 -493.121413 
L 571.213005 -493.121413 
L 572.663184 -493.121413 
L 574.113363 -493.121413 
L 575.563543 -493.121413 
L 577.013722 -493.121413 
L 578.463901 -493.121413 
L 579.914081 -493.121413 
L 581.36426 -493.121413 
L 582.814439 -493.121413 
L 584.264619 -493.121413 
L 585.714798 -493.121413 
L 587.164977 -493.121413 
L 588.615157 -493.121413 
L 590.065336 -493.121413 
L 591.515515 -493.121413 
L 592.965695 -493.121413 
L 594.415874 -493.121413 
L 595.866053 -493.121413 
L 597.316233 -493.121413 
L 598.766412 -493.121413 
L 600.216591 -493.121413 
L 601.666771 -493.121413 
L 603.11695 -493.121413 
L 604.567129 -493.121413 
L 606.017309 -493.121413 
L 607.467488 -493.121413 
L 608.917667 -493.121413 
L 610.367847 -493.121413 
L 611.818026 -493.121413 
L 613.268205 -493.121413 
L 614.718385 -493.121413 
L 616.168564 -493.121413 
L 617.618743 -493.121413 
L 619.068923 -493.121413 
L 620.519102 -493.121413 
L 621.969281 -493.121413 
L 623.41946 -493.121413 
L 624.86964 -493.121413 
L 626.319819 -493.121413 
L 627.769998 -493.121413 
L 629.220178 -493.121413 
L 630.670357 -493.121413 
L 632.120536 -493.121413 
L 633.570716 -493.121413 
L 635.020895 -493.121413 
L 636.471074 -493.121413 
L 636.471074 -493.121413 
L 636.471074 -493.121413 
L 635.020895 -493.121413 
L 633.570716 -493.121413 
L 632.120536 -493.121413 
L 630.670357 -493.121413 
L 629.220178 -493.121413 
L 627.769998 -493.121413 
L 626.319819 -493.121413 
L 624.86964 -493.121413 
L 623.41946 -493.121413 
L 621.969281 -493.121413 
L 620.519102 -493.121413 
L 619.068923 -493.121413 
L 617.618743 -493.121413 
L 616.168564 -493.121413 
L 614.718385 -493.121413 
L 613.268205 -493.121413 
L 611.818026 -493.121413 
L 610.367847 -493.121413 
L 608.917667 -493.121413 
L 607.467488 -493.121413 
L 606.017309 -493.121413 
L 604.567129 -493.121413 
L 603.11695 -493.121413 
L 601.666771 -493.121413 
L 600.216591 -493.121413 
L 598.766412 -493.121413 
L 597.316233 -493.121413 
L 595.866053 -493.121413 
L 594.415874 -493.121413 
L 592.965695 -493.121413 
L 591.515515 -493.121413 
L 590.065336 -493.121413 
L 588.615157 -493.121413 
L 587.164977 -493.121413 
L 585.714798 -493.121413 
L 584.264619 -493.121413 
L 582.814439 -493.121413 
L 581.36426 -493.121413 
L 579.914081 -493.121413 
L 578.463901 -493.121413 
L 577.013722 -493.121413 
L 575.563543 -493.121413 
L 574.113363 -493.121413 
L 572.663184 -493.121413 
L 571.213005 -493.121413 
L 569.762826 -493.121413 
L 568.312646 -493.121413 
L 566.862467 -493.121413 
L 565.412288 -493.121413 
L 563.962108 -493.121413 
L 562.511929 -493.121413 
L 561.06175 -493.121413 
L 559.61157 -493.121413 
L 558.161391 -493.121413 
L 556.711212 -493.121413 
L 555.261032 -493.121413 
L 553.810853 -493.121413 
L 552.360674 -493.121413 
L 550.910494 -493.121413 
L 549.460315 -493.121413 
L 548.010136 -493.121413 
L 546.559956 -493.121413 
L 545.109777 -493.121413 
L 543.659598 -493.121413 
L 542.209418 -493.121413 
L 540.759239 -493.121413 
L 539.30906 -493.121413 
L 537.85888 -493.121413 
L 536.408701 -493.121413 
L 534.958522 -493.121413 
L 533.508342 -493.121413 
L 532.058163 -493.121413 
L 530.607984 -493.121413 
L 529.157804 -493.121413 
L 527.707625 -493.121413 
L 526.257446 -493.121413 
L 524.807266 -493.121413 
L 523.357087 -493.121413 
L 521.906908 -493.121413 
L 520.456729 -493.121413 
L 519.006549 -493.121413 
L 517.55637 -493.121413 
L 516.106191 -493.121413 
L 514.656011 -493.121413 
L 513.205832 -493.121413 
L 511.755653 -493.121413 
L 510.305473 -493.121413 
L 508.855294 -493.121413 
L 507.405115 -493.121413 
L 505.954935 -493.121413 
L 504.504756 -493.121413 
L 503.054577 -493.121413 
L 501.604397 -493.121413 
L 500.154218 -493.121413 
L 498.704039 -493.121413 
L 497.253859 -493.121413 
L 495.80368 -493.121413 
L 494.353501 -493.121413 
L 492.903321 -493.121413 
L 491.453142 -493.121413 
L 490.002963 -493.121413 
L 488.552783 -493.121413 
L 487.102604 -493.121413 
L 485.652425 -493.121413 
L 484.202245 -493.121413 
L 482.752066 -493.121413 
L 481.301887 -493.121413 
L 479.851707 -493.121413 
L 478.401528 -493.121413 
L 476.951349 -493.121413 
L 475.501169 -493.121413 
L 474.05099 -493.121413 
L 472.600811 -493.121413 
L 471.150632 -493.121413 
L 469.700452 -493.121413 
L 468.250273 -493.121413 
L 466.800094 -493.121413 
L 465.349914 -493.121413 
L 463.899735 -493.121413 
L 462.449556 -493.121413 
L 460.999376 -493.121413 
L 459.549197 -493.121413 
L 458.099018 -493.121413 
L 456.648838 -493.121413 
L 455.198659 -493.121413 
L 453.74848 -493.121413 
L 452.2983 -493.121413 
L 450.848121 -493.121413 
L 449.397942 -493.121413 
L 447.947762 -493.121413 
L 446.497583 -493.121413 
L 445.047404 -493.121413 
L 443.597224 -493.121413 
L 442.147045 -493.121413 
L 440.696866 -493.121413 
L 439.246686 -493.121413 
L 437.796507 -493.121413 
L 436.346328 -493.121413 
L 434.896148 -493.121413 
L 433.445969 -493.121413 
L 431.99579 -493.121413 
L 430.54561 -493.121413 
L 429.095431 -493.121413 
L 427.645252 -493.121413 
L 426.195073 -493.121413 
L 424.744893 -493.121413 
L 423.294714 -493.121413 
L 421.844535 -493.121413 
L 420.394355 -493.121413 
L 418.944176 -493.121413 
L 417.493997 -493.121413 
L 416.043817 -493.121413 
L 414.593638 -493.121413 
L 413.143459 -493.121413 
L 411.693279 -493.121413 
L 410.2431 -493.121413 
L 408.792921 -493.121413 
L 407.342741 -493.121413 
L 405.892562 -493.121413 
z
" style="stroke: #1f77b4; stroke-opacity: 0.2"/>
    </defs>
    <g clip-path="url(#p38e7931aa1)">
     <use xlink:href="#madb3da9ac2" x="0" y="720" style="fill: #1f77b4; fill-opacity: 0.2; stroke: #1f77b4; stroke-opacity: 0.2"/>
    </g>
   </g>
   <g id="PolyCollection_3">
    <defs>
     <path id="m888c6229d4" d="M 405.892562 -509.144969 
L 405.892562 -509.144969 
L 407.342741 -504.525035 
L 408.792921 -510.667981 
L 410.2431 -501.373605 
L 411.693279 -505.604241 
L 413.143459 -501.02263 
L 414.593638 -497.138096 
L 416.043817 -494.742595 
L 417.493997 -493.637453 
L 418.944176 -493.250312 
L 420.394355 -493.146316 
L 421.844535 -493.125232 
L 423.294714 -493.121413 
L 424.744893 -493.121413 
L 426.195073 -493.121413 
L 427.645252 -493.121413 
L 429.095431 -493.121413 
L 430.54561 -493.121413 
L 431.99579 -493.121413 
L 433.445969 -493.121413 
L 434.896148 -493.121413 
L 436.346328 -493.118093 
L 437.796507 -493.096839 
L 439.246686 -492.992394 
L 440.696866 -492.589689 
L 442.147045 -491.398762 
L 443.597224 -488.725252 
L 445.047404 -484.270108 
L 446.497583 -479.013897 
L 447.947762 -468.308149 
L 449.397942 -468.735075 
L 450.848121 -476.986203 
L 452.2983 -479.953997 
L 453.74848 -481.799151 
L 455.198659 -476.993014 
L 456.648838 -483.052466 
L 458.099018 -484.024252 
L 459.549197 -482.272632 
L 460.999376 -487.585261 
L 462.449556 -489.677337 
L 463.899735 -491.368663 
L 465.349914 -492.408624 
L 466.800094 -492.892744 
L 468.250273 -493.062652 
L 469.700452 -493.09995 
L 471.150632 -493.067887 
L 472.600811 -492.916546 
L 474.05099 -492.490379 
L 475.501169 -491.607641 
L 476.951349 -490.293315 
L 478.401528 -489.006555 
L 479.851707 -485.107124 
L 481.301887 -489.006555 
L 482.752066 -490.293315 
L 484.202245 -491.607641 
L 485.652425 -492.490379 
L 487.102604 -492.916546 
L 488.552783 -493.069614 
L 490.002963 -493.111213 
L 491.453142 -493.119848 
L 492.903321 -493.121413 
L 494.353501 -493.121413 
L 495.80368 -493.121413 
L 497.253859 -493.121413 
L 498.704039 -493.121413 
L 500.154218 -493.121413 
L 501.604397 -493.121413 
L 503.054577 -493.121413 
L 504.504756 -493.121413 
L 505.954935 -493.121413 
L 507.405115 -493.121413 
L 508.855294 -493.121413 
L 510.305473 -493.121413 
L 511.755653 -493.121413 
L 513.205832 -493.121413 
L 514.656011 -493.121413 
L 516.106191 -493.121413 
L 517.55637 -493.121413 
L 519.006549 -493.121413 
L 520.456729 -493.121413 
L 521.906908 -493.121413 
L 523.357087 -493.122211 
L 524.807266 -493.126618 
L 526.257446 -493.147848 
L 527.707625 -493.225969 
L 529.157804 -493.443468 
L 530.607984 -493.893984 
L 532.058163 -494.564766 
L 533.508342 -495.22148 
L 534.958522 -492.257957 
L 536.408701 -495.22148 
L 537.85888 -494.564766 
L 539.30906 -493.893984 
L 540.759239 -493.443468 
L 542.209418 -493.225969 
L 543.659598 -493.147848 
L 545.109777 -493.126618 
L 546.559956 -493.122211 
L 548.010136 -493.121413 
L 549.460315 -493.121413 
L 550.910494 -493.121413 
L 552.360674 -493.121413 
L 553.810853 -493.121413 
L 555.261032 -493.121413 
L 556.711212 -493.121413 
L 558.161391 -493.121413 
L 559.61157 -493.121413 
L 561.06175 -493.121413 
L 562.511929 -493.121413 
L 563.962108 -493.121413 
L 565.412288 -493.121413 
L 566.862467 -493.121413 
L 568.312646 -493.121413 
L 569.762826 -493.121413 
L 571.213005 -493.121413 
L 572.663184 -493.121413 
L 574.113363 -493.121413 
L 575.563543 -493.121413 
L 577.013722 -493.121413 
L 578.463901 -493.124096 
L 579.914081 -493.138913 
L 581.36426 -493.210286 
L 582.814439 -493.472913 
L 584.264619 -494.204111 
L 585.714798 -495.718671 
L 587.164977 -497.97373 
L 588.615157 -500.181493 
L 590.065336 -495.495975 
L 591.515515 -500.181493 
L 592.965695 -497.97373 
L 594.415874 -495.718671 
L 595.866053 -494.204111 
L 597.316233 -493.472913 
L 598.766412 -493.210286 
L 600.216591 -493.138913 
L 601.666771 -493.124096 
L 603.11695 -493.123648 
L 604.567129 -493.137568 
L 606.017309 -493.206561 
L 607.467488 -493.471863 
L 608.917667 -494.257362 
L 610.367847 -496.029804 
L 611.818026 -499.023882 
L 613.268205 -502.654889 
L 614.718385 -501.19377 
L 616.168564 -501.718056 
L 617.618743 -501.800582 
L 619.068923 -500.525996 
L 620.519102 -497.711515 
L 621.969281 -496.455007 
L 623.41946 -496.735018 
L 624.86964 -497.661441 
L 626.319819 -494.493077 
L 627.769998 -497.493539 
L 629.220178 -496.122372 
L 630.670357 -494.727269 
L 632.120536 -493.790833 
L 633.570716 -493.338742 
L 635.020895 -493.176362 
L 636.471074 -493.133892 
L 636.471074 -493.133892 
L 636.471074 -493.133892 
L 635.020895 -493.176362 
L 633.570716 -493.338742 
L 632.120536 -493.790833 
L 630.670357 -494.727269 
L 629.220178 -496.122372 
L 627.769998 -497.493539 
L 626.319819 -501.722195 
L 624.86964 -497.661441 
L 623.41946 -496.735018 
L 621.969281 -496.455007 
L 620.519102 -497.711515 
L 619.068923 -500.525996 
L 617.618743 -505.858775 
L 616.168564 -510.059467 
L 614.718385 -509.668771 
L 613.268205 -502.654889 
L 611.818026 -499.023882 
L 610.367847 -496.029804 
L 608.917667 -494.257362 
L 607.467488 -493.471863 
L 606.017309 -493.206561 
L 604.567129 -493.137568 
L 603.11695 -493.123648 
L 601.666771 -493.124096 
L 600.216591 -493.138913 
L 598.766412 -493.210286 
L 597.316233 -493.472913 
L 595.866053 -494.204111 
L 594.415874 -495.718671 
L 592.965695 -497.97373 
L 591.515515 -500.181493 
L 590.065336 -506.747089 
L 588.615157 -500.181493 
L 587.164977 -497.97373 
L 585.714798 -495.718671 
L 584.264619 -494.204111 
L 582.814439 -493.472913 
L 581.36426 -493.210286 
L 579.914081 -493.138913 
L 578.463901 -493.124096 
L 577.013722 -493.121413 
L 575.563543 -493.121413 
L 574.113363 -493.121413 
L 572.663184 -493.121413 
L 571.213005 -493.121413 
L 569.762826 -493.121413 
L 568.312646 -493.121413 
L 566.862467 -493.121413 
L 565.412288 -493.121413 
L 563.962108 -493.121413 
L 562.511929 -493.121413 
L 561.06175 -493.121413 
L 559.61157 -493.121413 
L 558.161391 -493.121413 
L 556.711212 -493.121413 
L 555.261032 -493.121413 
L 553.810853 -493.121413 
L 552.360674 -493.121413 
L 550.910494 -493.121413 
L 549.460315 -493.121413 
L 548.010136 -493.121413 
L 546.559956 -493.122211 
L 545.109777 -493.126618 
L 543.659598 -493.147848 
L 542.209418 -493.225969 
L 540.759239 -493.443468 
L 539.30906 -493.893984 
L 537.85888 -494.564766 
L 536.408701 -495.22148 
L 534.958522 -498.744244 
L 533.508342 -495.22148 
L 532.058163 -494.564766 
L 530.607984 -493.893984 
L 529.157804 -493.443468 
L 527.707625 -493.225969 
L 526.257446 -493.147848 
L 524.807266 -493.126618 
L 523.357087 -493.122211 
L 521.906908 -493.121413 
L 520.456729 -493.121413 
L 519.006549 -493.121413 
L 517.55637 -493.121413 
L 516.106191 -493.121413 
L 514.656011 -493.121413 
L 513.205832 -493.121413 
L 511.755653 -493.121413 
L 510.305473 -493.121413 
L 508.855294 -493.121413 
L 507.405115 -493.121413 
L 505.954935 -493.121413 
L 504.504756 -493.121413 
L 503.054577 -493.121413 
L 501.604397 -493.121413 
L 500.154218 -493.121413 
L 498.704039 -493.121413 
L 497.253859 -493.121413 
L 495.80368 -493.121413 
L 494.353501 -493.121413 
L 492.903321 -493.121413 
L 491.453142 -493.119848 
L 490.002963 -493.111213 
L 488.552783 -493.069614 
L 487.102604 -492.916546 
L 485.652425 -492.490379 
L 484.202245 -491.607641 
L 482.752066 -490.293315 
L 481.301887 -489.006555 
L 479.851707 -491.810213 
L 478.401528 -489.006555 
L 476.951349 -490.293315 
L 475.501169 -491.607641 
L 474.05099 -492.490379 
L 472.600811 -492.916546 
L 471.150632 -493.067887 
L 469.700452 -493.09995 
L 468.250273 -493.062652 
L 466.800094 -492.892744 
L 465.349914 -492.408624 
L 463.899735 -491.368663 
L 462.449556 -489.677337 
L 460.999376 -487.585261 
L 459.549197 -488.880422 
L 458.099018 -484.024252 
L 456.648838 -483.052466 
L 455.198659 -488.051029 
L 453.74848 -481.799151 
L 452.2983 -479.953997 
L 450.848121 -476.986203 
L 449.397942 -480.585116 
L 447.947762 -482.093412 
L 446.497583 -479.013897 
L 445.047404 -484.270108 
L 443.597224 -488.725252 
L 442.147045 -491.398762 
L 440.696866 -492.589689 
L 439.246686 -492.992394 
L 437.796507 -493.096839 
L 436.346328 -493.118093 
L 434.896148 -493.121413 
L 433.445969 -493.121413 
L 431.99579 -493.121413 
L 430.54561 -493.121413 
L 429.095431 -493.121413 
L 427.645252 -493.121413 
L 426.195073 -493.121413 
L 424.744893 -493.121413 
L 423.294714 -493.121413 
L 421.844535 -493.125232 
L 420.394355 -493.146316 
L 418.944176 -493.250312 
L 417.493997 -493.637453 
L 416.043817 -494.742595 
L 414.593638 -497.138096 
L 413.143459 -501.02263 
L 411.693279 -505.604241 
L 410.2431 -517.112061 
L 408.792921 -510.667981 
L 407.342741 -515.72034 
L 405.892562 -509.144969 
z
" style="stroke: #d62728; stroke-opacity: 0.2"/>
    </defs>
    <g clip-path="url(#p38e7931aa1)">
     <use xlink:href="#m888c6229d4" x="0" y="720" style="fill: #d62728; fill-opacity: 0.2; stroke: #d62728; stroke-opacity: 0.2"/>
    </g>
   </g>
   <g id="PolyCollection_4">
    <defs>
     <path id="mfe4fe4ef37" d="M 405.892562 -487.727848 
L 405.892562 -481.913666 
L 407.342741 -481.959459 
L 408.792921 -474.72504 
L 410.2431 -462.061415 
L 411.693279 -441.334058 
L 413.143459 -422.942562 
L 414.593638 -408.774863 
L 416.043817 -399.556809 
L 417.493997 -397.740496 
L 418.944176 -402.697197 
L 420.394355 -415.483594 
L 421.844535 -433.583568 
L 423.294714 -456.191292 
L 424.744893 -472.661403 
L 426.195073 -483.770513 
L 427.645252 -489.651298 
L 429.095431 -492.08819 
L 430.54561 -492.877038 
L 431.99579 -493.076308 
L 433.445969 -493.115368 
L 434.896148 -493.121413 
L 436.346328 -493.121413 
L 437.796507 -493.121413 
L 439.246686 -493.121413 
L 440.696866 -493.118317 
L 442.147045 -493.10123 
L 443.597224 -493.018919 
L 445.047404 -492.713135 
L 446.497583 -491.853826 
L 447.947762 -490.029823 
L 449.397942 -487.141742 
L 450.848121 -483.787524 
L 452.2983 -475.253458 
L 453.74848 -479.316979 
L 455.198659 -478.566166 
L 456.648838 -473.589969 
L 458.099018 -476.981144 
L 459.549197 -474.597182 
L 460.999376 -466.924237 
L 462.449556 -466.216689 
L 463.899735 -459.842734 
L 465.349914 -459.053997 
L 466.800094 -464.443106 
L 468.250273 -466.341972 
L 469.700452 -472.930501 
L 471.150632 -475.230048 
L 472.600811 -482.483419 
L 474.05099 -486.256861 
L 475.501169 -488.536731 
L 476.951349 -489.495508 
L 478.401528 -488.321691 
L 479.851707 -490.511546 
L 481.301887 -491.308105 
L 482.752066 -491.909816 
L 484.202245 -491.852337 
L 485.652425 -490.856787 
L 487.102604 -489.013471 
L 488.552783 -486.919556 
L 490.002963 -483.565226 
L 491.453142 -484.832268 
L 492.903321 -484.944254 
L 494.353501 -483.486891 
L 495.80368 -484.781818 
L 497.253859 -487.170468 
L 498.704039 -488.423256 
L 500.154218 -488.603041 
L 501.604397 -490.650363 
L 503.054577 -491.366992 
L 504.504756 -491.587354 
L 505.954935 -491.284048 
L 507.405115 -490.766212 
L 508.855294 -488.657169 
L 510.305473 -490.765317 
L 511.755653 -491.282726 
L 513.205832 -491.592774 
L 514.656011 -491.410184 
L 516.106191 -490.813188 
L 517.55637 -489.059875 
L 519.006549 -489.237214 
L 520.456729 -488.469992 
L 521.906908 -486.695702 
L 523.357087 -485.841787 
L 524.807266 -489.282166 
L 526.257446 -490.682892 
L 527.707625 -491.880617 
L 529.157804 -492.571088 
L 530.607984 -492.725966 
L 532.058163 -492.336961 
L 533.508342 -491.322533 
L 534.958522 -489.773157 
L 536.408701 -488.251211 
L 537.85888 -481.885813 
L 539.30906 -488.251211 
L 540.759239 -489.774175 
L 542.209418 -491.329766 
L 543.659598 -492.374543 
L 545.109777 -492.878939 
L 546.559956 -493.060106 
L 548.010136 -493.10934 
L 549.460315 -493.119561 
L 550.910494 -493.121413 
L 552.360674 -493.121413 
L 553.810853 -493.121413 
L 555.261032 -493.121413 
L 556.711212 -493.121413 
L 558.161391 -493.121413 
L 559.61157 -493.121413 
L 561.06175 -493.121413 
L 562.511929 -493.122913 
L 563.962108 -493.131198 
L 565.412288 -493.171109 
L 566.862467 -493.317964 
L 568.312646 -493.727584 
L 569.762826 -494.578634 
L 571.213005 -495.859558 
L 572.663184 -497.167474 
L 574.113363 -494.114872 
L 575.563543 -497.792161 
L 577.013722 -497.175629 
L 578.463901 -496.485852 
L 579.914081 -493.216249 
L 581.36426 -494.789813 
L 582.814439 -493.48909 
L 584.264619 -492.101847 
L 585.714798 -488.974603 
L 587.164977 -490.392914 
L 588.615157 -488.704571 
L 590.065336 -490.965277 
L 591.515515 -491.580894 
L 592.965695 -491.81348 
L 594.415874 -491.339165 
L 595.866053 -490.21629 
L 597.316233 -488.999459 
L 598.766412 -485.975903 
L 600.216591 -489.027546 
L 601.666771 -490.3382 
L 603.11695 -491.748992 
L 604.567129 -492.902524 
L 606.017309 -493.865384 
L 607.467488 -494.732712 
L 608.917667 -495.269961 
L 610.367847 -493.180394 
L 611.818026 -494.118773 
L 613.268205 -491.51291 
L 614.718385 -492.037352 
L 616.168564 -491.53892 
L 617.618743 -491.143669 
L 619.068923 -490.764697 
L 620.519102 -488.426321 
L 621.969281 -491.073616 
L 623.41946 -491.952231 
L 624.86964 -493.043323 
L 626.319819 -494.105772 
L 627.769998 -494.902284 
L 629.220178 -493.589712 
L 630.670357 -494.673142 
L 632.120536 -493.522117 
L 633.570716 -491.977206 
L 635.020895 -490.463388 
L 636.471074 -486.702692 
L 636.471074 -492.304248 
L 636.471074 -492.304248 
L 635.020895 -490.463388 
L 633.570716 -491.977206 
L 632.120536 -493.522117 
L 630.670357 -494.673142 
L 629.220178 -496.716321 
L 627.769998 -494.902284 
L 626.319819 -494.105772 
L 624.86964 -493.043323 
L 623.41946 -491.952231 
L 621.969281 -491.073616 
L 620.519102 -492.891848 
L 619.068923 -490.764697 
L 617.618743 -491.143669 
L 616.168564 -491.53892 
L 614.718385 -492.037352 
L 613.268205 -494.324573 
L 611.818026 -494.118773 
L 610.367847 -496.971391 
L 608.917667 -495.269961 
L 607.467488 -494.732712 
L 606.017309 -493.865384 
L 604.567129 -492.902524 
L 603.11695 -491.748992 
L 601.666771 -490.3382 
L 600.216591 -489.027546 
L 598.766412 -490.968373 
L 597.316233 -488.999459 
L 595.866053 -490.21629 
L 594.415874 -491.339165 
L 592.965695 -491.81348 
L 591.515515 -491.580894 
L 590.065336 -490.965277 
L 588.615157 -492.174636 
L 587.164977 -490.392914 
L 585.714798 -492.983186 
L 584.264619 -492.101847 
L 582.814439 -493.48909 
L 581.36426 -494.789813 
L 579.914081 -498.318187 
L 578.463901 -496.485852 
L 577.013722 -497.175629 
L 575.563543 -497.792161 
L 574.113363 -501.679127 
L 572.663184 -497.167474 
L 571.213005 -495.859558 
L 569.762826 -494.578634 
L 568.312646 -493.727584 
L 566.862467 -493.317964 
L 565.412288 -493.171109 
L 563.962108 -493.131198 
L 562.511929 -493.122913 
L 561.06175 -493.121413 
L 559.61157 -493.121413 
L 558.161391 -493.121413 
L 556.711212 -493.121413 
L 555.261032 -493.121413 
L 553.810853 -493.121413 
L 552.360674 -493.121413 
L 550.910494 -493.121413 
L 549.460315 -493.119561 
L 548.010136 -493.10934 
L 546.559956 -493.060106 
L 545.109777 -492.878939 
L 543.659598 -492.374543 
L 542.209418 -491.329766 
L 540.759239 -489.774175 
L 539.30906 -488.251211 
L 537.85888 -493.31969 
L 536.408701 -488.251211 
L 534.958522 -489.773157 
L 533.508342 -491.322533 
L 532.058163 -492.336961 
L 530.607984 -492.725966 
L 529.157804 -492.571088 
L 527.707625 -491.880617 
L 526.257446 -490.682892 
L 524.807266 -489.282166 
L 523.357087 -490.658324 
L 521.906908 -489.321111 
L 520.456729 -488.469992 
L 519.006549 -489.237214 
L 517.55637 -491.026555 
L 516.106191 -490.813188 
L 514.656011 -491.410184 
L 513.205832 -491.592774 
L 511.755653 -491.282726 
L 510.305473 -490.765317 
L 508.855294 -492.372171 
L 507.405115 -490.766212 
L 505.954935 -491.284048 
L 504.504756 -491.587354 
L 503.054577 -491.366992 
L 501.604397 -490.650363 
L 500.154218 -490.646598 
L 498.704039 -488.423256 
L 497.253859 -487.170468 
L 495.80368 -487.412013 
L 494.353501 -487.257894 
L 492.903321 -484.944254 
L 491.453142 -484.832268 
L 490.002963 -487.232813 
L 488.552783 -486.919556 
L 487.102604 -489.013471 
L 485.652425 -490.856787 
L 484.202245 -491.852337 
L 482.752066 -491.909816 
L 481.301887 -491.308105 
L 479.851707 -490.511546 
L 478.401528 -491.533335 
L 476.951349 -489.495508 
L 475.501169 -488.536731 
L 474.05099 -486.256861 
L 472.600811 -482.483419 
L 471.150632 -480.366298 
L 469.700452 -472.930501 
L 468.250273 -470.288293 
L 466.800094 -464.443106 
L 465.349914 -465.575482 
L 463.899735 -466.031424 
L 462.449556 -466.216689 
L 460.999376 -474.474464 
L 459.549197 -474.597182 
L 458.099018 -476.981144 
L 456.648838 -482.512839 
L 455.198659 -478.566166 
L 453.74848 -479.316979 
L 452.2983 -486.710912 
L 450.848121 -483.787524 
L 449.397942 -487.141742 
L 447.947762 -490.029823 
L 446.497583 -491.853826 
L 445.047404 -492.713135 
L 443.597224 -493.018919 
L 442.147045 -493.10123 
L 440.696866 -493.118317 
L 439.246686 -493.121413 
L 437.796507 -493.121413 
L 436.346328 -493.121413 
L 434.896148 -493.121413 
L 433.445969 -493.115368 
L 431.99579 -493.076308 
L 430.54561 -492.877038 
L 429.095431 -492.08819 
L 427.645252 -489.651298 
L 426.195073 -483.770513 
L 424.744893 -472.661403 
L 423.294714 -456.191292 
L 421.844535 -440.390058 
L 420.394355 -423.401012 
L 418.944176 -411.953649 
L 417.493997 -406.929505 
L 416.043817 -409.539693 
L 414.593638 -418.050439 
L 413.143459 -432.648266 
L 411.693279 -449.186154 
L 410.2431 -462.061415 
L 408.792921 -474.72504 
L 407.342741 -481.959459 
L 405.892562 -487.727848 
z
" style="stroke: #ff7f0e; stroke-opacity: 0.2"/>
    </defs>
    <g clip-path="url(#p38e7931aa1)">
     <use xlink:href="#mfe4fe4ef37" x="0" y="720" style="fill: #ff7f0e; fill-opacity: 0.2; stroke: #ff7f0e; stroke-opacity: 0.2"/>
    </g>
   </g>
   <g id="matplotlib.axis_3">
    <g id="xtick_7">
     <g id="line2d_13">
      <g>
       <use xlink:href="#m5649ef38ea" x="405.863558" y="333.490909" style="stroke: #000000; stroke-width: 0.8"/>
      </g>
     </g>
     <g id="text_13">
      <!-- 0 -->
      <g transform="translate(402.682308 348.089347)scale(0.1 -0.1)">
       <use xlink:href="#DejaVuSans-30"/>
      </g>
     </g>
    </g>
    <g id="xtick_8">
     <g id="line2d_14">
      <g>
       <use xlink:href="#m5649ef38ea" x="463.870731" y="333.490909" style="stroke: #000000; stroke-width: 0.8"/>
      </g>
     </g>
     <g id="text_14">
      <!-- 2000 -->
      <g transform="translate(451.145731 348.089347)scale(0.1 -0.1)">
       <use xlink:href="#DejaVuSans-32"/>
       <use xlink:href="#DejaVuSans-30" x="63.623047"/>
       <use xlink:href="#DejaVuSans-30" x="127.246094"/>
       <use xlink:href="#DejaVuSans-30" x="190.869141"/>
      </g>
     </g>
    </g>
    <g id="xtick_9">
     <g id="line2d_15">
      <g>
       <use xlink:href="#m5649ef38ea" x="521.877904" y="333.490909" style="stroke: #000000; stroke-width: 0.8"/>
      </g>
     </g>
     <g id="text_15">
      <!-- 4000 -->
      <g transform="translate(509.152904 348.089347)scale(0.1 -0.1)">
       <use xlink:href="#DejaVuSans-34"/>
       <use xlink:href="#DejaVuSans-30" x="63.623047"/>
       <use xlink:href="#DejaVuSans-30" x="127.246094"/>
       <use xlink:href="#DejaVuSans-30" x="190.869141"/>
      </g>
     </g>
    </g>
    <g id="xtick_10">
     <g id="line2d_16">
      <g>
       <use xlink:href="#m5649ef38ea" x="579.885077" y="333.490909" style="stroke: #000000; stroke-width: 0.8"/>
      </g>
     </g>
     <g id="text_16">
      <!-- 6000 -->
      <g transform="translate(567.160077 348.089347)scale(0.1 -0.1)">
       <use xlink:href="#DejaVuSans-36"/>
       <use xlink:href="#DejaVuSans-30" x="63.623047"/>
       <use xlink:href="#DejaVuSans-30" x="127.246094"/>
       <use xlink:href="#DejaVuSans-30" x="190.869141"/>
      </g>
     </g>
    </g>
    <g id="xtick_11">
     <g id="line2d_17">
      <g>
       <use xlink:href="#m5649ef38ea" x="637.89225" y="333.490909" style="stroke: #000000; stroke-width: 0.8"/>
      </g>
     </g>
     <g id="text_17">
      <!-- 8000 -->
      <g transform="translate(625.16725 348.089347)scale(0.1 -0.1)">
       <use xlink:href="#DejaVuSans-38"/>
       <use xlink:href="#DejaVuSans-30" x="63.623047"/>
       <use xlink:href="#DejaVuSans-30" x="127.246094"/>
       <use xlink:href="#DejaVuSans-30" x="190.869141"/>
      </g>
     </g>
    </g>
   </g>
   <g id="matplotlib.axis_4">
    <g id="ytick_7">
     <g id="line2d_18">
      <g>
       <use xlink:href="#m7dab375ffd" x="394.363636" y="313.829101" style="stroke: #000000; stroke-width: 0.8"/>
      </g>
     </g>
     <g id="text_18">
      <!-- −4 -->
      <g transform="translate(372.621449 317.628319)scale(0.1 -0.1)">
       <defs>
        <path id="DejaVuSans-2212" d="M 678 2272 
L 4684 2272 
L 4684 1741 
L 678 1741 
L 678 2272 
z
" transform="scale(0.015625)"/>
       </defs>
       <use xlink:href="#DejaVuSans-2212"/>
       <use xlink:href="#DejaVuSans-34" x="83.789062"/>
      </g>
     </g>
    </g>
    <g id="ytick_8">
     <g id="line2d_19">
      <g>
       <use xlink:href="#m7dab375ffd" x="394.363636" y="270.353844" style="stroke: #000000; stroke-width: 0.8"/>
      </g>
     </g>
     <g id="text_19">
      <!-- −2 -->
      <g transform="translate(372.621449 274.153063)scale(0.1 -0.1)">
       <use xlink:href="#DejaVuSans-2212"/>
       <use xlink:href="#DejaVuSans-32" x="83.789062"/>
      </g>
     </g>
    </g>
    <g id="ytick_9">
     <g id="line2d_20">
      <g>
       <use xlink:href="#m7dab375ffd" x="394.363636" y="226.878587" style="stroke: #000000; stroke-width: 0.8"/>
      </g>
     </g>
     <g id="text_20">
      <!-- 0 -->
      <g transform="translate(381.001136 230.677806)scale(0.1 -0.1)">
       <use xlink:href="#DejaVuSans-30"/>
      </g>
     </g>
    </g>
    <g id="ytick_10">
     <g id="line2d_21">
      <g>
       <use xlink:href="#m7dab375ffd" x="394.363636" y="183.403331" style="stroke: #000000; stroke-width: 0.8"/>
      </g>
     </g>
     <g id="text_21">
      <!-- 2 -->
      <g transform="translate(381.001136 187.20255)scale(0.1 -0.1)">
       <use xlink:href="#DejaVuSans-32"/>
      </g>
     </g>
    </g>
    <g id="ytick_11">
     <g id="line2d_22">
      <g>
       <use xlink:href="#m7dab375ffd" x="394.363636" y="139.928074" style="stroke: #000000; stroke-width: 0.8"/>
      </g>
     </g>
     <g id="text_22">
      <!-- 4 -->
      <g transform="translate(381.001136 143.727293)scale(0.1 -0.1)">
       <use xlink:href="#DejaVuSans-34"/>
      </g>
     </g>
    </g>
    <g id="ytick_12">
     <g id="line2d_23">
      <g>
       <use xlink:href="#m7dab375ffd" x="394.363636" y="96.452818" style="stroke: #000000; stroke-width: 0.8"/>
      </g>
     </g>
     <g id="text_23">
      <!-- 6 -->
      <g transform="translate(381.001136 100.252036)scale(0.1 -0.1)">
       <use xlink:href="#DejaVuSans-36"/>
      </g>
     </g>
    </g>
   </g>
   <g id="line2d_24">
    <path d="M 405.892562 231.393636 
L 407.342741 231.813774 
L 408.792921 231.940348 
L 410.2431 231.211435 
L 413.143459 228.398125 
L 414.593638 227.229472 
L 416.043817 225.794967 
L 417.493997 222.55835 
L 418.944176 215.049051 
L 420.394355 200.855921 
L 421.844535 179.686944 
L 424.744893 131.617352 
L 426.195073 114.791344 
L 427.645252 105.847085 
L 429.095431 103.437673 
L 430.54561 104.762841 
L 434.896148 112.418141 
L 436.346328 115.719612 
L 437.796507 119.72014 
L 439.246686 124.367692 
L 440.696866 130.047094 
L 442.147045 137.712767 
L 443.597224 148.465068 
L 445.047404 162.748066 
L 447.947762 196.313608 
L 449.397942 210.013261 
L 450.848121 218.816773 
L 452.2983 222.71411 
L 453.74848 222.832813 
L 455.198659 220.696521 
L 456.648838 218.13744 
L 458.099018 217.010447 
L 459.549197 218.174407 
L 462.449556 223.676498 
L 463.899735 225.543758 
L 465.349914 226.443888 
L 466.800094 226.760254 
L 468.250273 226.812505 
L 469.700452 226.696302 
L 471.150632 226.314594 
L 472.600811 225.460834 
L 474.05099 223.959822 
L 475.501169 221.726261 
L 476.951349 218.616786 
L 478.401528 214.370787 
L 481.301887 204.236432 
L 482.752066 201.451362 
L 484.202245 201.689586 
L 485.652425 204.216367 
L 488.552783 211.154148 
L 490.002963 214.256697 
L 491.453142 216.601321 
L 492.903321 217.928355 
L 494.353501 218.287809 
L 497.253859 217.808404 
L 498.704039 218.061338 
L 500.154218 218.842432 
L 501.604397 219.887611 
L 503.054577 221.108053 
L 505.954935 224.124614 
L 507.405115 225.339198 
L 508.855294 225.845385 
L 510.305473 225.472769 
L 511.755653 224.242853 
L 514.656011 220.850582 
L 516.106191 220.137735 
L 517.55637 220.642425 
L 519.006549 222.044394 
L 520.456729 223.714542 
L 521.906908 225.133291 
L 523.357087 226.076163 
L 524.807266 226.575904 
L 526.257446 226.786356 
L 529.157804 226.874433 
L 550.910494 226.985358 
L 552.360674 227.213002 
L 553.810853 227.708932 
L 555.261032 228.541117 
L 559.61157 231.901242 
L 561.06175 232.565908 
L 562.511929 232.460314 
L 563.962108 231.468527 
L 565.412288 230.020402 
L 566.862467 228.859454 
L 568.312646 228.523235 
L 569.762826 229.094132 
L 571.213005 230.322967 
L 574.113363 233.408297 
L 575.563543 234.465288 
L 577.013722 234.452225 
L 578.463901 233.135757 
L 581.36426 229.076676 
L 582.814439 227.814557 
L 584.264619 227.295731 
L 585.714798 227.371665 
L 587.164977 228.025028 
L 588.615157 229.334251 
L 591.515515 233.111077 
L 592.965695 234.408913 
L 594.415874 234.621387 
L 595.866053 233.790992 
L 598.766412 231.163268 
L 600.216591 230.315067 
L 603.11695 229.059439 
L 606.017309 227.623565 
L 607.467488 227.187931 
L 608.917667 226.984977 
L 610.367847 226.938479 
L 611.818026 227.023229 
L 613.268205 227.321884 
L 614.718385 227.992876 
L 616.168564 229.14996 
L 617.618743 230.73176 
L 620.519102 234.336754 
L 621.969281 235.902457 
L 623.41946 236.857204 
L 624.86964 236.88312 
L 626.319819 236.096607 
L 627.769998 235.043426 
L 629.220178 234.21908 
L 632.120536 233.158452 
L 636.471074 230.990531 
L 636.471074 230.990531 
" clip-path="url(#p38e7931aa1)" style="fill: none; stroke: #9467bd; stroke-width: 2; stroke-linecap: square"/>
   </g>
   <g id="line2d_25">
    <path d="M 405.892562 226.878587 
L 636.471074 226.878587 
L 636.471074 226.878587 
" clip-path="url(#p38e7931aa1)" style="fill: none; stroke: #1f77b4; stroke-width: 2; stroke-linecap: square"/>
   </g>
   <g id="line2d_26">
    <path d="M 405.892562 210.855031 
L 407.342741 209.877313 
L 408.792921 209.332019 
L 410.2431 210.757167 
L 411.693279 214.395759 
L 413.143459 218.97737 
L 414.593638 222.861904 
L 416.043817 225.257405 
L 417.493997 226.362547 
L 418.944176 226.749688 
L 421.844535 226.874768 
L 439.246686 227.007606 
L 440.696866 227.410311 
L 442.147045 228.601238 
L 443.597224 231.274748 
L 445.047404 235.729892 
L 446.497583 240.986103 
L 447.947762 244.799219 
L 449.397942 245.339904 
L 450.848121 243.013797 
L 452.2983 240.046003 
L 453.74848 238.200849 
L 455.198659 237.477979 
L 456.648838 236.947534 
L 458.099018 235.975748 
L 459.549197 234.423473 
L 462.449556 230.322663 
L 463.899735 228.631337 
L 465.349914 227.591376 
L 466.800094 227.107256 
L 468.250273 226.937348 
L 471.150632 226.932113 
L 472.600811 227.083454 
L 474.05099 227.509621 
L 475.501169 228.392359 
L 478.401528 230.993445 
L 479.851707 231.541332 
L 481.301887 230.993445 
L 484.202245 228.392359 
L 485.652425 227.509621 
L 487.102604 227.083454 
L 490.002963 226.888787 
L 510.305473 226.878587 
L 527.707625 226.774031 
L 529.157804 226.556532 
L 530.607984 226.106016 
L 533.508342 224.77852 
L 534.958522 224.498899 
L 536.408701 224.77852 
L 539.30906 226.106016 
L 540.759239 226.556532 
L 542.209418 226.774031 
L 545.109777 226.873382 
L 578.463901 226.875904 
L 581.36426 226.789714 
L 582.814439 226.527087 
L 584.264619 225.795889 
L 585.714798 224.281329 
L 588.615157 219.818507 
L 590.065336 218.878468 
L 591.515515 219.818507 
L 594.415874 224.281329 
L 595.866053 225.795889 
L 597.316233 226.527087 
L 598.766412 226.789714 
L 601.666771 226.875904 
L 606.017309 226.793439 
L 607.467488 226.528137 
L 608.917667 225.742638 
L 610.367847 223.970196 
L 611.818026 220.976118 
L 613.268205 217.345111 
L 614.718385 214.56873 
L 616.168564 214.111239 
L 617.618743 216.170321 
L 619.068923 219.474004 
L 620.519102 222.288485 
L 621.969281 223.544993 
L 623.41946 223.264982 
L 624.86964 222.338559 
L 626.319819 221.892364 
L 627.769998 222.506461 
L 630.670357 225.272731 
L 632.120536 226.209167 
L 633.570716 226.661258 
L 635.020895 226.823638 
L 636.471074 226.866108 
L 636.471074 226.866108 
" clip-path="url(#p38e7931aa1)" style="fill: none; stroke: #d62728; stroke-width: 2; stroke-linecap: square"/>
   </g>
   <g id="line2d_27">
    <path d="M 405.892562 235.179243 
L 407.342741 238.040541 
L 408.792921 245.27496 
L 410.2431 257.938585 
L 413.143459 292.204586 
L 414.593638 306.587349 
L 416.043817 315.451749 
L 417.493997 317.665 
L 418.944176 312.674577 
L 420.394355 300.557697 
L 421.844535 283.013187 
L 423.294714 263.808708 
L 424.744893 247.338597 
L 426.195073 236.229487 
L 427.645252 230.348702 
L 429.095431 227.91181 
L 430.54561 227.122962 
L 431.99579 226.923692 
L 437.796507 226.878587 
L 443.597224 226.981081 
L 445.047404 227.286865 
L 446.497583 228.146174 
L 447.947762 229.970177 
L 449.397942 232.858258 
L 450.848121 236.212476 
L 452.2983 239.017815 
L 453.74848 240.683021 
L 455.198659 241.433834 
L 456.648838 241.948596 
L 458.099018 243.018856 
L 459.549197 245.402818 
L 460.999376 249.30065 
L 462.449556 253.783311 
L 463.899735 257.062921 
L 465.349914 257.68526 
L 466.800094 255.556894 
L 468.250273 251.684868 
L 472.600811 237.516581 
L 474.05099 233.743139 
L 475.501169 231.463269 
L 476.951349 230.504492 
L 478.401528 230.072487 
L 479.851707 229.488454 
L 481.301887 228.691895 
L 482.752066 228.090184 
L 484.202245 228.147663 
L 485.652425 229.143213 
L 487.102604 230.986529 
L 488.552783 233.080444 
L 490.002963 234.600981 
L 491.453142 235.167732 
L 492.903321 235.055746 
L 494.353501 234.627607 
L 495.80368 233.903084 
L 497.253859 232.829532 
L 500.154218 230.375181 
L 501.604397 229.349637 
L 503.054577 228.633008 
L 504.504756 228.412646 
L 505.954935 228.715952 
L 507.405115 229.233788 
L 508.855294 229.48533 
L 510.305473 229.234683 
L 511.755653 228.717274 
L 513.205832 228.407226 
L 514.656011 228.589816 
L 516.106191 229.186812 
L 520.456729 231.530008 
L 521.906908 231.991593 
L 523.357087 231.749945 
L 524.807266 230.717834 
L 526.257446 229.317108 
L 527.707625 228.119383 
L 529.157804 227.428912 
L 530.607984 227.274034 
L 532.058163 227.663039 
L 533.508342 228.677467 
L 536.408701 231.748789 
L 537.85888 232.397249 
L 539.30906 231.748789 
L 542.209418 228.670234 
L 543.659598 227.625457 
L 545.109777 227.121061 
L 546.559956 226.939894 
L 550.910494 226.878587 
L 565.412288 226.828891 
L 566.862467 226.682036 
L 568.312646 226.272416 
L 569.762826 225.421366 
L 572.663184 222.832526 
L 574.113363 222.103001 
L 575.563543 222.207839 
L 578.463901 223.514148 
L 579.914081 224.232782 
L 581.36426 225.210187 
L 585.714798 229.021106 
L 587.164977 229.607086 
L 588.615157 229.560397 
L 591.515515 228.419106 
L 592.965695 228.18652 
L 594.415874 228.660835 
L 597.316233 231.000541 
L 598.766412 231.527862 
L 600.216591 230.972454 
L 604.567129 227.097476 
L 607.467488 225.267288 
L 608.917667 224.730039 
L 610.367847 224.924107 
L 611.818026 225.881227 
L 613.268205 227.081259 
L 614.718385 227.962648 
L 617.618743 228.856331 
L 619.068923 229.235303 
L 620.519102 229.340915 
L 621.969281 228.926384 
L 623.41946 228.047769 
L 626.319819 225.894228 
L 627.769998 225.097716 
L 629.220178 224.846984 
L 630.670357 225.326858 
L 632.120536 226.477883 
L 635.020895 229.536612 
L 636.471074 230.49653 
L 636.471074 230.49653 
" clip-path="url(#p38e7931aa1)" style="fill: none; stroke: #ff7f0e; stroke-width: 2; stroke-linecap: square"/>
   </g>
   <g id="LineCollection_1">
    <path d="M 521.877904 302.346566 
L 521.877904 109.784046 
" clip-path="url(#p38e7931aa1)" style="fill: none; stroke-dasharray: 7.4,3.2; stroke-dashoffset: 0; stroke: #000000; stroke-width: 2"/>
    <path d="M 536.379697 302.346566 
L 536.379697 109.784046 
" clip-path="url(#p38e7931aa1)" style="fill: none; stroke-dasharray: 7.4,3.2; stroke-dashoffset: 0; stroke: #000000; stroke-width: 2"/>
    <path d="M 565.383284 302.346566 
L 565.383284 109.784046 
" clip-path="url(#p38e7931aa1)" style="fill: none; stroke-dasharray: 7.4,3.2; stroke-dashoffset: 0; stroke: #000000; stroke-width: 2"/>
    <path d="M 623.390457 302.346566 
L 623.390457 109.784046 
" clip-path="url(#p38e7931aa1)" style="fill: none; stroke-dasharray: 7.4,3.2; stroke-dashoffset: 0; stroke: #000000; stroke-width: 2"/>
   </g>
   <g id="patch_8">
    <path d="M 394.363636 333.490909 
L 394.363636 86.4 
" style="fill: none; stroke: #000000; stroke-width: 0.8; stroke-linejoin: miter; stroke-linecap: square"/>
   </g>
   <g id="patch_9">
    <path d="M 648 333.490909 
L 648 86.4 
" style="fill: none; stroke: #000000; stroke-width: 0.8; stroke-linejoin: miter; stroke-linecap: square"/>
   </g>
   <g id="patch_10">
    <path d="M 394.363636 333.490909 
L 648 333.490909 
" style="fill: none; stroke: #000000; stroke-width: 0.8; stroke-linejoin: miter; stroke-linecap: square"/>
   </g>
   <g id="patch_11">
    <path d="M 394.363636 86.4 
L 648 86.4 
" style="fill: none; stroke: #000000; stroke-width: 0.8; stroke-linejoin: miter; stroke-linecap: square"/>
   </g>
   <g id="text_24">
    <!-- unit_96 -->
    <g transform="translate(498.922756 80.4)scale(0.12 -0.12)">
     <defs>
      <path id="DejaVuSans-75" d="M 544 1381 
L 544 3500 
L 1119 3500 
L 1119 1403 
Q 1119 906 1312 657 
Q 1506 409 1894 409 
Q 2359 409 2629 706 
Q 2900 1003 2900 1516 
L 2900 3500 
L 3475 3500 
L 3475 0 
L 2900 0 
L 2900 538 
Q 2691 219 2414 64 
Q 2138 -91 1772 -91 
Q 1169 -91 856 284 
Q 544 659 544 1381 
z
M 1991 3584 
L 1991 3584 
z
" transform="scale(0.015625)"/>
      <path id="DejaVuSans-6e" d="M 3513 2113 
L 3513 0 
L 2938 0 
L 2938 2094 
Q 2938 2591 2744 2837 
Q 2550 3084 2163 3084 
Q 1697 3084 1428 2787 
Q 1159 2491 1159 1978 
L 1159 0 
L 581 0 
L 581 3500 
L 1159 3500 
L 1159 2956 
Q 1366 3272 1645 3428 
Q 1925 3584 2291 3584 
Q 2894 3584 3203 3211 
Q 3513 2838 3513 2113 
z
" transform="scale(0.015625)"/>
      <path id="DejaVuSans-69" d="M 603 3500 
L 1178 3500 
L 1178 0 
L 603 0 
L 603 3500 
z
M 603 4863 
L 1178 4863 
L 1178 4134 
L 603 4134 
L 603 4863 
z
" transform="scale(0.015625)"/>
      <path id="DejaVuSans-74" d="M 1172 4494 
L 1172 3500 
L 2356 3500 
L 2356 3053 
L 1172 3053 
L 1172 1153 
Q 1172 725 1289 603 
Q 1406 481 1766 481 
L 2356 481 
L 2356 0 
L 1766 0 
Q 1100 0 847 248 
Q 594 497 594 1153 
L 594 3053 
L 172 3053 
L 172 3500 
L 594 3500 
L 594 4494 
L 1172 4494 
z
" transform="scale(0.015625)"/>
      <path id="DejaVuSans-5f" d="M 3263 -1063 
L 3263 -1509 
L -63 -1509 
L -63 -1063 
L 3263 -1063 
z
" transform="scale(0.015625)"/>
      <path id="DejaVuSans-39" d="M 703 97 
L 703 672 
Q 941 559 1184 500 
Q 1428 441 1663 441 
Q 2288 441 2617 861 
Q 2947 1281 2994 2138 
Q 2813 1869 2534 1725 
Q 2256 1581 1919 1581 
Q 1219 1581 811 2004 
Q 403 2428 403 3163 
Q 403 3881 828 4315 
Q 1253 4750 1959 4750 
Q 2769 4750 3195 4129 
Q 3622 3509 3622 2328 
Q 3622 1225 3098 567 
Q 2575 -91 1691 -91 
Q 1453 -91 1209 -44 
Q 966 3 703 97 
z
M 1959 2075 
Q 2384 2075 2632 2365 
Q 2881 2656 2881 3163 
Q 2881 3666 2632 3958 
Q 2384 4250 1959 4250 
Q 1534 4250 1286 3958 
Q 1038 3666 1038 3163 
Q 1038 2656 1286 2365 
Q 1534 2075 1959 2075 
z
" transform="scale(0.015625)"/>
     </defs>
     <use xlink:href="#DejaVuSans-75"/>
     <use xlink:href="#DejaVuSans-6e" x="63.378906"/>
     <use xlink:href="#DejaVuSans-69" x="126.757812"/>
     <use xlink:href="#DejaVuSans-74" x="154.541016"/>
     <use xlink:href="#DejaVuSans-5f" x="193.75"/>
     <use xlink:href="#DejaVuSans-39" x="243.75"/>
     <use xlink:href="#DejaVuSans-36" x="307.373047"/>
    </g>
   </g>
  </g>
  <g id="axes_3">
   <g id="patch_12">
    <path d="M 90 630 
L 343.636364 630 
L 343.636364 382.909091 
L 90 382.909091 
z
" style="fill: #ffffff"/>
   </g>
   <g id="matplotlib.axis_5">
    <g id="xtick_12">
     <g id="line2d_28">
      <g>
       <use xlink:href="#m5649ef38ea" x="90" y="630" style="stroke: #000000; stroke-width: 0.8"/>
      </g>
     </g>
     <g id="text_25">
      <!-- 0.0 -->
      <g transform="translate(82.048438 644.598437)scale(0.1 -0.1)">
       <use xlink:href="#DejaVuSans-30"/>
       <use xlink:href="#DejaVuSans-2e" x="63.623047"/>
       <use xlink:href="#DejaVuSans-30" x="95.410156"/>
      </g>
     </g>
    </g>
    <g id="xtick_13">
     <g id="line2d_29">
      <g>
       <use xlink:href="#m5649ef38ea" x="140.727273" y="630" style="stroke: #000000; stroke-width: 0.8"/>
      </g>
     </g>
     <g id="text_26">
      <!-- 0.2 -->
      <g transform="translate(132.77571 644.598437)scale(0.1 -0.1)">
       <use xlink:href="#DejaVuSans-30"/>
       <use xlink:href="#DejaVuSans-2e" x="63.623047"/>
       <use xlink:href="#DejaVuSans-32" x="95.410156"/>
      </g>
     </g>
    </g>
    <g id="xtick_14">
     <g id="line2d_30">
      <g>
       <use xlink:href="#m5649ef38ea" x="191.454545" y="630" style="stroke: #000000; stroke-width: 0.8"/>
      </g>
     </g>
     <g id="text_27">
      <!-- 0.4 -->
      <g transform="translate(183.502983 644.598437)scale(0.1 -0.1)">
       <use xlink:href="#DejaVuSans-30"/>
       <use xlink:href="#DejaVuSans-2e" x="63.623047"/>
       <use xlink:href="#DejaVuSans-34" x="95.410156"/>
      </g>
     </g>
    </g>
    <g id="xtick_15">
     <g id="line2d_31">
      <g>
       <use xlink:href="#m5649ef38ea" x="242.181818" y="630" style="stroke: #000000; stroke-width: 0.8"/>
      </g>
     </g>
     <g id="text_28">
      <!-- 0.6 -->
      <g transform="translate(234.230256 644.598437)scale(0.1 -0.1)">
       <use xlink:href="#DejaVuSans-30"/>
       <use xlink:href="#DejaVuSans-2e" x="63.623047"/>
       <use xlink:href="#DejaVuSans-36" x="95.410156"/>
      </g>
     </g>
    </g>
    <g id="xtick_16">
     <g id="line2d_32">
      <g>
       <use xlink:href="#m5649ef38ea" x="292.909091" y="630" style="stroke: #000000; stroke-width: 0.8"/>
      </g>
     </g>
     <g id="text_29">
      <!-- 0.8 -->
      <g transform="translate(284.957528 644.598437)scale(0.1 -0.1)">
       <use xlink:href="#DejaVuSans-30"/>
       <use xlink:href="#DejaVuSans-2e" x="63.623047"/>
       <use xlink:href="#DejaVuSans-38" x="95.410156"/>
      </g>
     </g>
    </g>
    <g id="xtick_17">
     <g id="line2d_33">
      <g>
       <use xlink:href="#m5649ef38ea" x="343.636364" y="630" style="stroke: #000000; stroke-width: 0.8"/>
      </g>
     </g>
     <g id="text_30">
      <!-- 1.0 -->
      <g transform="translate(335.684801 644.598437)scale(0.1 -0.1)">
       <use xlink:href="#DejaVuSans-31"/>
       <use xlink:href="#DejaVuSans-2e" x="63.623047"/>
       <use xlink:href="#DejaVuSans-30" x="95.410156"/>
      </g>
     </g>
    </g>
   </g>
   <g id="matplotlib.axis_6">
    <g id="ytick_13">
     <g id="line2d_34">
      <g>
       <use xlink:href="#m7dab375ffd" x="90" y="630" style="stroke: #000000; stroke-width: 0.8"/>
      </g>
     </g>
     <g id="text_31">
      <!-- 0.0 -->
      <g transform="translate(67.096875 633.799219)scale(0.1 -0.1)">
       <use xlink:href="#DejaVuSans-30"/>
       <use xlink:href="#DejaVuSans-2e" x="63.623047"/>
       <use xlink:href="#DejaVuSans-30" x="95.410156"/>
      </g>
     </g>
    </g>
    <g id="ytick_14">
     <g id="line2d_35">
      <g>
       <use xlink:href="#m7dab375ffd" x="90" y="580.581818" style="stroke: #000000; stroke-width: 0.8"/>
      </g>
     </g>
     <g id="text_32">
      <!-- 0.2 -->
      <g transform="translate(67.096875 584.381037)scale(0.1 -0.1)">
       <use xlink:href="#DejaVuSans-30"/>
       <use xlink:href="#DejaVuSans-2e" x="63.623047"/>
       <use xlink:href="#DejaVuSans-32" x="95.410156"/>
      </g>
     </g>
    </g>
    <g id="ytick_15">
     <g id="line2d_36">
      <g>
       <use xlink:href="#m7dab375ffd" x="90" y="531.163636" style="stroke: #000000; stroke-width: 0.8"/>
      </g>
     </g>
     <g id="text_33">
      <!-- 0.4 -->
      <g transform="translate(67.096875 534.962855)scale(0.1 -0.1)">
       <use xlink:href="#DejaVuSans-30"/>
       <use xlink:href="#DejaVuSans-2e" x="63.623047"/>
       <use xlink:href="#DejaVuSans-34" x="95.410156"/>
      </g>
     </g>
    </g>
    <g id="ytick_16">
     <g id="line2d_37">
      <g>
       <use xlink:href="#m7dab375ffd" x="90" y="481.745455" style="stroke: #000000; stroke-width: 0.8"/>
      </g>
     </g>
     <g id="text_34">
      <!-- 0.6 -->
      <g transform="translate(67.096875 485.544673)scale(0.1 -0.1)">
       <use xlink:href="#DejaVuSans-30"/>
       <use xlink:href="#DejaVuSans-2e" x="63.623047"/>
       <use xlink:href="#DejaVuSans-36" x="95.410156"/>
      </g>
     </g>
    </g>
    <g id="ytick_17">
     <g id="line2d_38">
      <g>
       <use xlink:href="#m7dab375ffd" x="90" y="432.327273" style="stroke: #000000; stroke-width: 0.8"/>
      </g>
     </g>
     <g id="text_35">
      <!-- 0.8 -->
      <g transform="translate(67.096875 436.126491)scale(0.1 -0.1)">
       <use xlink:href="#DejaVuSans-30"/>
       <use xlink:href="#DejaVuSans-2e" x="63.623047"/>
       <use xlink:href="#DejaVuSans-38" x="95.410156"/>
      </g>
     </g>
    </g>
    <g id="ytick_18">
     <g id="line2d_39">
      <g>
       <use xlink:href="#m7dab375ffd" x="90" y="382.909091" style="stroke: #000000; stroke-width: 0.8"/>
      </g>
     </g>
     <g id="text_36">
      <!-- 1.0 -->
      <g transform="translate(67.096875 386.70831)scale(0.1 -0.1)">
       <use xlink:href="#DejaVuSans-31"/>
       <use xlink:href="#DejaVuSans-2e" x="63.623047"/>
       <use xlink:href="#DejaVuSans-30" x="95.410156"/>
      </g>
     </g>
    </g>
   </g>
   <g id="patch_13">
    <path d="M 90 630 
L 90 382.909091 
" style="fill: none; stroke: #000000; stroke-width: 0.8; stroke-linejoin: miter; stroke-linecap: square"/>
   </g>
   <g id="patch_14">
    <path d="M 343.636364 630 
L 343.636364 382.909091 
" style="fill: none; stroke: #000000; stroke-width: 0.8; stroke-linejoin: miter; stroke-linecap: square"/>
   </g>
   <g id="patch_15">
    <path d="M 90 630 
L 343.636364 630 
" style="fill: none; stroke: #000000; stroke-width: 0.8; stroke-linejoin: miter; stroke-linecap: square"/>
   </g>
   <g id="patch_16">
    <path d="M 90 382.909091 
L 343.636364 382.909091 
" style="fill: none; stroke: #000000; stroke-width: 0.8; stroke-linejoin: miter; stroke-linecap: square"/>
   </g>
  </g>
  <g id="axes_4">
   <g id="patch_17">
    <path d="M 394.363636 630 
L 648 630 
L 648 382.909091 
L 394.363636 382.909091 
z
" style="fill: #ffffff"/>
   </g>
   <g id="matplotlib.axis_7">
    <g id="xtick_18">
     <g id="line2d_40">
      <g>
       <use xlink:href="#m5649ef38ea" x="405.863558" y="630" style="stroke: #000000; stroke-width: 0.8"/>
      </g>
     </g>
     <g id="text_37">
      <!-- 0 -->
      <g transform="translate(402.682308 644.598437)scale(0.1 -0.1)">
       <use xlink:href="#DejaVuSans-30"/>
      </g>
     </g>
    </g>
    <g id="xtick_19">
     <g id="line2d_41">
      <g>
       <use xlink:href="#m5649ef38ea" x="463.870731" y="630" style="stroke: #000000; stroke-width: 0.8"/>
      </g>
     </g>
     <g id="text_38">
      <!-- 2000 -->
      <g transform="translate(451.145731 644.598437)scale(0.1 -0.1)">
       <use xlink:href="#DejaVuSans-32"/>
       <use xlink:href="#DejaVuSans-30" x="63.623047"/>
       <use xlink:href="#DejaVuSans-30" x="127.246094"/>
       <use xlink:href="#DejaVuSans-30" x="190.869141"/>
      </g>
     </g>
    </g>
    <g id="xtick_20">
     <g id="line2d_42">
      <g>
       <use xlink:href="#m5649ef38ea" x="521.877904" y="630" style="stroke: #000000; stroke-width: 0.8"/>
      </g>
     </g>
     <g id="text_39">
      <!-- 4000 -->
      <g transform="translate(509.152904 644.598437)scale(0.1 -0.1)">
       <use xlink:href="#DejaVuSans-34"/>
       <use xlink:href="#DejaVuSans-30" x="63.623047"/>
       <use xlink:href="#DejaVuSans-30" x="127.246094"/>
       <use xlink:href="#DejaVuSans-30" x="190.869141"/>
      </g>
     </g>
    </g>
    <g id="xtick_21">
     <g id="line2d_43">
      <g>
       <use xlink:href="#m5649ef38ea" x="579.885077" y="630" style="stroke: #000000; stroke-width: 0.8"/>
      </g>
     </g>
     <g id="text_40">
      <!-- 6000 -->
      <g transform="translate(567.160077 644.598437)scale(0.1 -0.1)">
       <use xlink:href="#DejaVuSans-36"/>
       <use xlink:href="#DejaVuSans-30" x="63.623047"/>
       <use xlink:href="#DejaVuSans-30" x="127.246094"/>
       <use xlink:href="#DejaVuSans-30" x="190.869141"/>
      </g>
     </g>
    </g>
    <g id="xtick_22">
     <g id="line2d_44">
      <g>
       <use xlink:href="#m5649ef38ea" x="637.89225" y="630" style="stroke: #000000; stroke-width: 0.8"/>
      </g>
     </g>
     <g id="text_41">
      <!-- 8000 -->
      <g transform="translate(625.16725 644.598437)scale(0.1 -0.1)">
       <use xlink:href="#DejaVuSans-38"/>
       <use xlink:href="#DejaVuSans-30" x="63.623047"/>
       <use xlink:href="#DejaVuSans-30" x="127.246094"/>
       <use xlink:href="#DejaVuSans-30" x="190.869141"/>
      </g>
     </g>
    </g>
   </g>
   <g id="matplotlib.axis_8">
    <g id="ytick_19">
     <g id="line2d_45">
      <g>
       <use xlink:href="#m7dab375ffd" x="394.363636" y="630" style="stroke: #000000; stroke-width: 0.8"/>
      </g>
     </g>
     <g id="text_42">
      <!-- −2 -->
      <g transform="translate(372.621449 633.799219)scale(0.1 -0.1)">
       <use xlink:href="#DejaVuSans-2212"/>
       <use xlink:href="#DejaVuSans-32" x="83.789062"/>
      </g>
     </g>
    </g>
    <g id="ytick_20">
     <g id="line2d_46">
      <g>
       <use xlink:href="#m7dab375ffd" x="394.363636" y="598.126207" style="stroke: #000000; stroke-width: 0.8"/>
      </g>
     </g>
     <g id="text_43">
      <!-- 0 -->
      <g transform="translate(381.001136 601.925426)scale(0.1 -0.1)">
       <use xlink:href="#DejaVuSans-30"/>
      </g>
     </g>
    </g>
    <g id="ytick_21">
     <g id="line2d_47">
      <g>
       <use xlink:href="#m7dab375ffd" x="394.363636" y="566.252414" style="stroke: #000000; stroke-width: 0.8"/>
      </g>
     </g>
     <g id="text_44">
      <!-- 2 -->
      <g transform="translate(381.001136 570.051633)scale(0.1 -0.1)">
       <use xlink:href="#DejaVuSans-32"/>
      </g>
     </g>
    </g>
    <g id="ytick_22">
     <g id="line2d_48">
      <g>
       <use xlink:href="#m7dab375ffd" x="394.363636" y="534.378621" style="stroke: #000000; stroke-width: 0.8"/>
      </g>
     </g>
     <g id="text_45">
      <!-- 4 -->
      <g transform="translate(381.001136 538.17784)scale(0.1 -0.1)">
       <use xlink:href="#DejaVuSans-34"/>
      </g>
     </g>
    </g>
    <g id="ytick_23">
     <g id="line2d_49">
      <g>
       <use xlink:href="#m7dab375ffd" x="394.363636" y="502.504829" style="stroke: #000000; stroke-width: 0.8"/>
      </g>
     </g>
     <g id="text_46">
      <!-- 6 -->
      <g transform="translate(381.001136 506.304047)scale(0.1 -0.1)">
       <use xlink:href="#DejaVuSans-36"/>
      </g>
     </g>
    </g>
    <g id="ytick_24">
     <g id="line2d_50">
      <g>
       <use xlink:href="#m7dab375ffd" x="394.363636" y="470.631036" style="stroke: #000000; stroke-width: 0.8"/>
      </g>
     </g>
     <g id="text_47">
      <!-- 8 -->
      <g transform="translate(381.001136 474.430254)scale(0.1 -0.1)">
       <use xlink:href="#DejaVuSans-38"/>
      </g>
     </g>
    </g>
    <g id="ytick_25">
     <g id="line2d_51">
      <g>
       <use xlink:href="#m7dab375ffd" x="394.363636" y="438.757243" style="stroke: #000000; stroke-width: 0.8"/>
      </g>
     </g>
     <g id="text_48">
      <!-- 10 -->
      <g transform="translate(374.638636 442.556462)scale(0.1 -0.1)">
       <use xlink:href="#DejaVuSans-31"/>
       <use xlink:href="#DejaVuSans-30" x="63.623047"/>
      </g>
     </g>
    </g>
    <g id="ytick_26">
     <g id="line2d_52">
      <g>
       <use xlink:href="#m7dab375ffd" x="394.363636" y="406.88345" style="stroke: #000000; stroke-width: 0.8"/>
      </g>
     </g>
     <g id="text_49">
      <!-- 12 -->
      <g transform="translate(374.638636 410.682669)scale(0.1 -0.1)">
       <use xlink:href="#DejaVuSans-31"/>
       <use xlink:href="#DejaVuSans-32" x="63.623047"/>
      </g>
     </g>
    </g>
   </g>
   <g id="line2d_53">
    <path d="M 405.892562 483.362676 
L 407.342741 405.328808 
L 408.792921 382.909091 
L 410.2431 533.116229 
L 410.840652 721 
M 433.009568 721 
L 433.445969 616.00409 
L 434.896148 547.897215 
L 436.081707 721 
M 440.909581 721 
L 442.147045 431.176318 
L 443.597224 465.929105 
L 444.856708 721 
M 446.973213 721 
L 447.947762 600.891684 
L 449.397942 565.249257 
L 450.538517 721 
M 471.402991 721 
L 472.600811 667.913978 
L 474.05099 609.436748 
L 475.501169 584.767194 
L 476.951349 586.308005 
L 478.401528 602.14943 
L 479.851707 611.39916 
L 481.301887 670.089129 
L 482.431122 721 
M 484.492677 721 
L 485.652425 687.617065 
L 487.102604 679.568042 
L 488.552783 664.190862 
L 490.002963 632.025999 
L 491.453142 652.721024 
L 492.903321 693.491781 
L 494.353501 667.097222 
L 495.80368 627.851628 
L 497.253859 638.043277 
L 498.704039 656.039186 
L 500.154218 633.904264 
L 501.604397 596.128481 
L 503.054577 576.842656 
L 504.504756 584.788954 
L 505.954935 601.479917 
L 507.405115 626.872137 
L 508.855294 645.939973 
L 510.305473 627.295107 
L 511.755653 606.552786 
L 513.205832 606.484128 
L 514.656011 606.796594 
L 516.106191 595.242957 
L 517.55637 587.081685 
L 519.006549 589.962016 
L 520.456729 613.943112 
L 521.906908 631.947441 
L 523.357087 614.063697 
L 524.807266 598.385467 
L 526.257446 597.406106 
L 527.707625 598.043577 
L 529.157804 598.121699 
L 530.607984 598.073248 
L 532.058163 597.526002 
L 533.508342 596.723803 
L 534.958522 611.499326 
L 536.408701 676.534021 
L 537.581411 721 
M 538.151452 721 
L 539.30906 679.372514 
L 540.759239 616.264926 
L 542.209418 599.615255 
L 543.659598 598.171172 
L 548.010136 598.126207 
L 552.360674 598.140627 
L 553.810853 598.603728 
L 555.261032 603.943602 
L 556.711212 624.222341 
L 558.161391 641.918612 
L 559.61157 634.033481 
L 561.06175 648.023342 
L 562.511929 671.278933 
L 563.962108 642.220367 
L 565.412288 607.961727 
L 566.862467 598.948526 
L 568.312646 598.67071 
L 569.762826 604.972568 
L 571.213005 635.031823 
L 572.663184 687.122574 
L 574.113363 701.737954 
L 575.563543 665.688879 
L 577.013722 635.987084 
L 578.463901 609.930355 
L 579.914081 591.176391 
L 581.36426 592.007374 
L 582.814439 598.804299 
L 584.264619 608.407498 
L 585.714798 624.065184 
L 587.164977 642.585408 
L 588.615157 609.286694 
L 590.065336 529.253846 
L 591.515515 536.047121 
L 592.965695 557.518488 
L 595.866053 531.921526 
L 597.316233 548.962688 
L 598.766412 562.383252 
L 601.666771 539.13112 
L 603.11695 563.781447 
L 604.567129 590.512203 
L 606.017309 597.709945 
L 607.467488 600.665608 
L 608.917667 609.996727 
L 610.367847 621.69579 
L 611.818026 618.295409 
L 613.268205 554.379906 
L 614.718385 449.617381 
L 616.168564 447.807553 
L 619.068923 599.394962 
L 620.519102 632.640405 
L 621.969281 601.320495 
L 623.41946 536.05956 
L 624.86964 458.855875 
L 626.319819 411.133555 
L 627.769998 442.836538 
L 630.670357 589.555075 
L 632.120536 632.121025 
L 633.570716 642.728002 
L 635.020895 695.08606 
L 635.456552 721 
L 635.456552 721 
" clip-path="url(#pd9750127c3)" style="fill: none; stroke: #1f77b4; stroke-width: 1.5; stroke-linecap: square"/>
   </g>
   <g id="patch_18">
    <path d="M 394.363636 630 
L 394.363636 382.909091 
" style="fill: none; stroke: #000000; stroke-width: 0.8; stroke-linejoin: miter; stroke-linecap: square"/>
   </g>
   <g id="patch_19">
    <path d="M 648 630 
L 648 382.909091 
" style="fill: none; stroke: #000000; stroke-width: 0.8; stroke-linejoin: miter; stroke-linecap: square"/>
   </g>
   <g id="patch_20">
    <path d="M 394.363636 630 
L 648 630 
" style="fill: none; stroke: #000000; stroke-width: 0.8; stroke-linejoin: miter; stroke-linecap: square"/>
   </g>
   <g id="patch_21">
    <path d="M 394.363636 382.909091 
L 648 382.909091 
" style="fill: none; stroke: #000000; stroke-width: 0.8; stroke-linejoin: miter; stroke-linecap: square"/>
   </g>
   <g id="text_50">
    <!-- explained variance -->
    <g transform="translate(464.181818 376.909091)scale(0.12 -0.12)">
     <defs>
      <path id="DejaVuSans-65" d="M 3597 1894 
L 3597 1613 
L 953 1613 
Q 991 1019 1311 708 
Q 1631 397 2203 397 
Q 2534 397 2845 478 
Q 3156 559 3463 722 
L 3463 178 
Q 3153 47 2828 -22 
Q 2503 -91 2169 -91 
Q 1331 -91 842 396 
Q 353 884 353 1716 
Q 353 2575 817 3079 
Q 1281 3584 2069 3584 
Q 2775 3584 3186 3129 
Q 3597 2675 3597 1894 
z
M 3022 2063 
Q 3016 2534 2758 2815 
Q 2500 3097 2075 3097 
Q 1594 3097 1305 2825 
Q 1016 2553 972 2059 
L 3022 2063 
z
" transform="scale(0.015625)"/>
      <path id="DejaVuSans-78" d="M 3513 3500 
L 2247 1797 
L 3578 0 
L 2900 0 
L 1881 1375 
L 863 0 
L 184 0 
L 1544 1831 
L 300 3500 
L 978 3500 
L 1906 2253 
L 2834 3500 
L 3513 3500 
z
" transform="scale(0.015625)"/>
      <path id="DejaVuSans-70" d="M 1159 525 
L 1159 -1331 
L 581 -1331 
L 581 3500 
L 1159 3500 
L 1159 2969 
Q 1341 3281 1617 3432 
Q 1894 3584 2278 3584 
Q 2916 3584 3314 3078 
Q 3713 2572 3713 1747 
Q 3713 922 3314 415 
Q 2916 -91 2278 -91 
Q 1894 -91 1617 61 
Q 1341 213 1159 525 
z
M 3116 1747 
Q 3116 2381 2855 2742 
Q 2594 3103 2138 3103 
Q 1681 3103 1420 2742 
Q 1159 2381 1159 1747 
Q 1159 1113 1420 752 
Q 1681 391 2138 391 
Q 2594 391 2855 752 
Q 3116 1113 3116 1747 
z
" transform="scale(0.015625)"/>
      <path id="DejaVuSans-6c" d="M 603 4863 
L 1178 4863 
L 1178 0 
L 603 0 
L 603 4863 
z
" transform="scale(0.015625)"/>
      <path id="DejaVuSans-61" d="M 2194 1759 
Q 1497 1759 1228 1600 
Q 959 1441 959 1056 
Q 959 750 1161 570 
Q 1363 391 1709 391 
Q 2188 391 2477 730 
Q 2766 1069 2766 1631 
L 2766 1759 
L 2194 1759 
z
M 3341 1997 
L 3341 0 
L 2766 0 
L 2766 531 
Q 2569 213 2275 61 
Q 1981 -91 1556 -91 
Q 1019 -91 701 211 
Q 384 513 384 1019 
Q 384 1609 779 1909 
Q 1175 2209 1959 2209 
L 2766 2209 
L 2766 2266 
Q 2766 2663 2505 2880 
Q 2244 3097 1772 3097 
Q 1472 3097 1187 3025 
Q 903 2953 641 2809 
L 641 3341 
Q 956 3463 1253 3523 
Q 1550 3584 1831 3584 
Q 2591 3584 2966 3190 
Q 3341 2797 3341 1997 
z
" transform="scale(0.015625)"/>
      <path id="DejaVuSans-64" d="M 2906 2969 
L 2906 4863 
L 3481 4863 
L 3481 0 
L 2906 0 
L 2906 525 
Q 2725 213 2448 61 
Q 2172 -91 1784 -91 
Q 1150 -91 751 415 
Q 353 922 353 1747 
Q 353 2572 751 3078 
Q 1150 3584 1784 3584 
Q 2172 3584 2448 3432 
Q 2725 3281 2906 2969 
z
M 947 1747 
Q 947 1113 1208 752 
Q 1469 391 1925 391 
Q 2381 391 2643 752 
Q 2906 1113 2906 1747 
Q 2906 2381 2643 2742 
Q 2381 3103 1925 3103 
Q 1469 3103 1208 2742 
Q 947 2381 947 1747 
z
" transform="scale(0.015625)"/>
      <path id="DejaVuSans-20" transform="scale(0.015625)"/>
      <path id="DejaVuSans-76" d="M 191 3500 
L 800 3500 
L 1894 563 
L 2988 3500 
L 3597 3500 
L 2284 0 
L 1503 0 
L 191 3500 
z
" transform="scale(0.015625)"/>
      <path id="DejaVuSans-72" d="M 2631 2963 
Q 2534 3019 2420 3045 
Q 2306 3072 2169 3072 
Q 1681 3072 1420 2755 
Q 1159 2438 1159 1844 
L 1159 0 
L 581 0 
L 581 3500 
L 1159 3500 
L 1159 2956 
Q 1341 3275 1631 3429 
Q 1922 3584 2338 3584 
Q 2397 3584 2469 3576 
Q 2541 3569 2628 3553 
L 2631 2963 
z
" transform="scale(0.015625)"/>
      <path id="DejaVuSans-63" d="M 3122 3366 
L 3122 2828 
Q 2878 2963 2633 3030 
Q 2388 3097 2138 3097 
Q 1578 3097 1268 2742 
Q 959 2388 959 1747 
Q 959 1106 1268 751 
Q 1578 397 2138 397 
Q 2388 397 2633 464 
Q 2878 531 3122 666 
L 3122 134 
Q 2881 22 2623 -34 
Q 2366 -91 2075 -91 
Q 1284 -91 818 406 
Q 353 903 353 1747 
Q 353 2603 823 3093 
Q 1294 3584 2113 3584 
Q 2378 3584 2631 3529 
Q 2884 3475 3122 3366 
z
" transform="scale(0.015625)"/>
     </defs>
     <use xlink:href="#DejaVuSans-65"/>
     <use xlink:href="#DejaVuSans-78" x="59.773438"/>
     <use xlink:href="#DejaVuSans-70" x="118.953125"/>
     <use xlink:href="#DejaVuSans-6c" x="182.429688"/>
     <use xlink:href="#DejaVuSans-61" x="210.212891"/>
     <use xlink:href="#DejaVuSans-69" x="271.492188"/>
     <use xlink:href="#DejaVuSans-6e" x="299.275391"/>
     <use xlink:href="#DejaVuSans-65" x="362.654297"/>
     <use xlink:href="#DejaVuSans-64" x="424.177734"/>
     <use xlink:href="#DejaVuSans-20" x="487.654297"/>
     <use xlink:href="#DejaVuSans-76" x="519.441406"/>
     <use xlink:href="#DejaVuSans-61" x="578.621094"/>
     <use xlink:href="#DejaVuSans-72" x="639.900391"/>
     <use xlink:href="#DejaVuSans-69" x="681.013672"/>
     <use xlink:href="#DejaVuSans-61" x="708.796875"/>
     <use xlink:href="#DejaVuSans-6e" x="770.076172"/>
     <use xlink:href="#DejaVuSans-63" x="833.455078"/>
     <use xlink:href="#DejaVuSans-65" x="888.435547"/>
    </g>
   </g>
  </g>
 </g>
 <defs>
  <clipPath id="p38e7931aa1">
   <rect x="394.363636" y="86.4" width="253.636364" height="247.090909"/>
  </clipPath>
  <clipPath id="pd9750127c3">
   <rect x="394.363636" y="382.909091" width="253.636364" height="247.090909"/>
  </clipPath>
 </defs>
</svg>
