<?xml version="1.0" encoding="utf-8" standalone="no"?>
<!DOCTYPE svg PUBLIC "-//W3C//DTD SVG 1.1//EN"
  "http://www.w3.org/Graphics/SVG/1.1/DTD/svg11.dtd">
<svg xmlns:xlink="http://www.w3.org/1999/xlink" width="720pt" height="720pt" viewBox="0 0 720 720" xmlns="http://www.w3.org/2000/svg" version="1.1">
 <metadata>
  <rdf:RDF xmlns:dc="http://purl.org/dc/elements/1.1/" xmlns:cc="http://creativecommons.org/ns#" xmlns:rdf="http://www.w3.org/1999/02/22-rdf-syntax-ns#">
   <cc:Work>
    <dc:type rdf:resource="http://purl.org/dc/dcmitype/StillImage"/>
    <dc:date>2023-12-19T18:24:29.205077</dc:date>
    <dc:format>image/svg+xml</dc:format>
    <dc:creator>
     <cc:Agent>
      <dc:title>Matplotlib v3.5.2, https://matplotlib.org/</dc:title>
     </cc:Agent>
    </dc:creator>
   </cc:Work>
  </rdf:RDF>
 </metadata>
 <defs>
  <style type="text/css">*{stroke-linejoin: round; stroke-linecap: butt}</style>
 </defs>
 <g id="figure_1">
  <g id="patch_1">
   <path d="M 0 720 
L 720 720 
L 720 0 
L 0 0 
z
" style="fill: #ffffff"/>
  </g>
  <g id="axes_1">
   <g id="patch_2">
    <path d="M 90 333.490909 
L 343.636364 333.490909 
L 343.636364 86.4 
L 90 86.4 
z
" style="fill: #ffffff"/>
   </g>
   <g id="matplotlib.axis_1">
    <g id="xtick_1">
     <g id="line2d_1">
      <defs>
       <path id="m64212909c9" d="M 0 0 
L 0 3.5 
" style="stroke: #000000; stroke-width: 0.8"/>
      </defs>
      <g>
       <use xlink:href="#m64212909c9" x="90" y="333.490909" style="stroke: #000000; stroke-width: 0.8"/>
      </g>
     </g>
     <g id="text_1">
      <!-- 0.0 -->
      <g transform="translate(82.048438 348.089347)scale(0.1 -0.1)">
       <defs>
        <path id="DejaVuSans-30" d="M 2034 4250 
Q 1547 4250 1301 3770 
Q 1056 3291 1056 2328 
Q 1056 1369 1301 889 
Q 1547 409 2034 409 
Q 2525 409 2770 889 
Q 3016 1369 3016 2328 
Q 3016 3291 2770 3770 
Q 2525 4250 2034 4250 
z
M 2034 4750 
Q 2819 4750 3233 4129 
Q 3647 3509 3647 2328 
Q 3647 1150 3233 529 
Q 2819 -91 2034 -91 
Q 1250 -91 836 529 
Q 422 1150 422 2328 
Q 422 3509 836 4129 
Q 1250 4750 2034 4750 
z
" transform="scale(0.015625)"/>
        <path id="DejaVuSans-2e" d="M 684 794 
L 1344 794 
L 1344 0 
L 684 0 
L 684 794 
z
" transform="scale(0.015625)"/>
       </defs>
       <use xlink:href="#DejaVuSans-30"/>
       <use xlink:href="#DejaVuSans-2e" x="63.623047"/>
       <use xlink:href="#DejaVuSans-30" x="95.410156"/>
      </g>
     </g>
    </g>
    <g id="xtick_2">
     <g id="line2d_2">
      <g>
       <use xlink:href="#m64212909c9" x="140.727273" y="333.490909" style="stroke: #000000; stroke-width: 0.8"/>
      </g>
     </g>
     <g id="text_2">
      <!-- 0.2 -->
      <g transform="translate(132.77571 348.089347)scale(0.1 -0.1)">
       <defs>
        <path id="DejaVuSans-32" d="M 1228 531 
L 3431 531 
L 3431 0 
L 469 0 
L 469 531 
Q 828 903 1448 1529 
Q 2069 2156 2228 2338 
Q 2531 2678 2651 2914 
Q 2772 3150 2772 3378 
Q 2772 3750 2511 3984 
Q 2250 4219 1831 4219 
Q 1534 4219 1204 4116 
Q 875 4013 500 3803 
L 500 4441 
Q 881 4594 1212 4672 
Q 1544 4750 1819 4750 
Q 2544 4750 2975 4387 
Q 3406 4025 3406 3419 
Q 3406 3131 3298 2873 
Q 3191 2616 2906 2266 
Q 2828 2175 2409 1742 
Q 1991 1309 1228 531 
z
" transform="scale(0.015625)"/>
       </defs>
       <use xlink:href="#DejaVuSans-30"/>
       <use xlink:href="#DejaVuSans-2e" x="63.623047"/>
       <use xlink:href="#DejaVuSans-32" x="95.410156"/>
      </g>
     </g>
    </g>
    <g id="xtick_3">
     <g id="line2d_3">
      <g>
       <use xlink:href="#m64212909c9" x="191.454545" y="333.490909" style="stroke: #000000; stroke-width: 0.8"/>
      </g>
     </g>
     <g id="text_3">
      <!-- 0.4 -->
      <g transform="translate(183.502983 348.089347)scale(0.1 -0.1)">
       <defs>
        <path id="DejaVuSans-34" d="M 2419 4116 
L 825 1625 
L 2419 1625 
L 2419 4116 
z
M 2253 4666 
L 3047 4666 
L 3047 1625 
L 3713 1625 
L 3713 1100 
L 3047 1100 
L 3047 0 
L 2419 0 
L 2419 1100 
L 313 1100 
L 313 1709 
L 2253 4666 
z
" transform="scale(0.015625)"/>
       </defs>
       <use xlink:href="#DejaVuSans-30"/>
       <use xlink:href="#DejaVuSans-2e" x="63.623047"/>
       <use xlink:href="#DejaVuSans-34" x="95.410156"/>
      </g>
     </g>
    </g>
    <g id="xtick_4">
     <g id="line2d_4">
      <g>
       <use xlink:href="#m64212909c9" x="242.181818" y="333.490909" style="stroke: #000000; stroke-width: 0.8"/>
      </g>
     </g>
     <g id="text_4">
      <!-- 0.6 -->
      <g transform="translate(234.230256 348.089347)scale(0.1 -0.1)">
       <defs>
        <path id="DejaVuSans-36" d="M 2113 2584 
Q 1688 2584 1439 2293 
Q 1191 2003 1191 1497 
Q 1191 994 1439 701 
Q 1688 409 2113 409 
Q 2538 409 2786 701 
Q 3034 994 3034 1497 
Q 3034 2003 2786 2293 
Q 2538 2584 2113 2584 
z
M 3366 4563 
L 3366 3988 
Q 3128 4100 2886 4159 
Q 2644 4219 2406 4219 
Q 1781 4219 1451 3797 
Q 1122 3375 1075 2522 
Q 1259 2794 1537 2939 
Q 1816 3084 2150 3084 
Q 2853 3084 3261 2657 
Q 3669 2231 3669 1497 
Q 3669 778 3244 343 
Q 2819 -91 2113 -91 
Q 1303 -91 875 529 
Q 447 1150 447 2328 
Q 447 3434 972 4092 
Q 1497 4750 2381 4750 
Q 2619 4750 2861 4703 
Q 3103 4656 3366 4563 
z
" transform="scale(0.015625)"/>
       </defs>
       <use xlink:href="#DejaVuSans-30"/>
       <use xlink:href="#DejaVuSans-2e" x="63.623047"/>
       <use xlink:href="#DejaVuSans-36" x="95.410156"/>
      </g>
     </g>
    </g>
    <g id="xtick_5">
     <g id="line2d_5">
      <g>
       <use xlink:href="#m64212909c9" x="292.909091" y="333.490909" style="stroke: #000000; stroke-width: 0.8"/>
      </g>
     </g>
     <g id="text_5">
      <!-- 0.8 -->
      <g transform="translate(284.957528 348.089347)scale(0.1 -0.1)">
       <defs>
        <path id="DejaVuSans-38" d="M 2034 2216 
Q 1584 2216 1326 1975 
Q 1069 1734 1069 1313 
Q 1069 891 1326 650 
Q 1584 409 2034 409 
Q 2484 409 2743 651 
Q 3003 894 3003 1313 
Q 3003 1734 2745 1975 
Q 2488 2216 2034 2216 
z
M 1403 2484 
Q 997 2584 770 2862 
Q 544 3141 544 3541 
Q 544 4100 942 4425 
Q 1341 4750 2034 4750 
Q 2731 4750 3128 4425 
Q 3525 4100 3525 3541 
Q 3525 3141 3298 2862 
Q 3072 2584 2669 2484 
Q 3125 2378 3379 2068 
Q 3634 1759 3634 1313 
Q 3634 634 3220 271 
Q 2806 -91 2034 -91 
Q 1263 -91 848 271 
Q 434 634 434 1313 
Q 434 1759 690 2068 
Q 947 2378 1403 2484 
z
M 1172 3481 
Q 1172 3119 1398 2916 
Q 1625 2713 2034 2713 
Q 2441 2713 2670 2916 
Q 2900 3119 2900 3481 
Q 2900 3844 2670 4047 
Q 2441 4250 2034 4250 
Q 1625 4250 1398 4047 
Q 1172 3844 1172 3481 
z
" transform="scale(0.015625)"/>
       </defs>
       <use xlink:href="#DejaVuSans-30"/>
       <use xlink:href="#DejaVuSans-2e" x="63.623047"/>
       <use xlink:href="#DejaVuSans-38" x="95.410156"/>
      </g>
     </g>
    </g>
    <g id="xtick_6">
     <g id="line2d_6">
      <g>
       <use xlink:href="#m64212909c9" x="343.636364" y="333.490909" style="stroke: #000000; stroke-width: 0.8"/>
      </g>
     </g>
     <g id="text_6">
      <!-- 1.0 -->
      <g transform="translate(335.684801 348.089347)scale(0.1 -0.1)">
       <defs>
        <path id="DejaVuSans-31" d="M 794 531 
L 1825 531 
L 1825 4091 
L 703 3866 
L 703 4441 
L 1819 4666 
L 2450 4666 
L 2450 531 
L 3481 531 
L 3481 0 
L 794 0 
L 794 531 
z
" transform="scale(0.015625)"/>
       </defs>
       <use xlink:href="#DejaVuSans-31"/>
       <use xlink:href="#DejaVuSans-2e" x="63.623047"/>
       <use xlink:href="#DejaVuSans-30" x="95.410156"/>
      </g>
     </g>
    </g>
   </g>
   <g id="matplotlib.axis_2">
    <g id="ytick_1">
     <g id="line2d_7">
      <defs>
       <path id="mee9ab2578e" d="M 0 0 
L -3.5 0 
" style="stroke: #000000; stroke-width: 0.8"/>
      </defs>
      <g>
       <use xlink:href="#mee9ab2578e" x="90" y="333.490909" style="stroke: #000000; stroke-width: 0.8"/>
      </g>
     </g>
     <g id="text_7">
      <!-- 0.0 -->
      <g transform="translate(67.096875 337.290128)scale(0.1 -0.1)">
       <use xlink:href="#DejaVuSans-30"/>
       <use xlink:href="#DejaVuSans-2e" x="63.623047"/>
       <use xlink:href="#DejaVuSans-30" x="95.410156"/>
      </g>
     </g>
    </g>
    <g id="ytick_2">
     <g id="line2d_8">
      <g>
       <use xlink:href="#mee9ab2578e" x="90" y="284.072727" style="stroke: #000000; stroke-width: 0.8"/>
      </g>
     </g>
     <g id="text_8">
      <!-- 0.2 -->
      <g transform="translate(67.096875 287.871946)scale(0.1 -0.1)">
       <use xlink:href="#DejaVuSans-30"/>
       <use xlink:href="#DejaVuSans-2e" x="63.623047"/>
       <use xlink:href="#DejaVuSans-32" x="95.410156"/>
      </g>
     </g>
    </g>
    <g id="ytick_3">
     <g id="line2d_9">
      <g>
       <use xlink:href="#mee9ab2578e" x="90" y="234.654545" style="stroke: #000000; stroke-width: 0.8"/>
      </g>
     </g>
     <g id="text_9">
      <!-- 0.4 -->
      <g transform="translate(67.096875 238.453764)scale(0.1 -0.1)">
       <use xlink:href="#DejaVuSans-30"/>
       <use xlink:href="#DejaVuSans-2e" x="63.623047"/>
       <use xlink:href="#DejaVuSans-34" x="95.410156"/>
      </g>
     </g>
    </g>
    <g id="ytick_4">
     <g id="line2d_10">
      <g>
       <use xlink:href="#mee9ab2578e" x="90" y="185.236364" style="stroke: #000000; stroke-width: 0.8"/>
      </g>
     </g>
     <g id="text_10">
      <!-- 0.6 -->
      <g transform="translate(67.096875 189.035582)scale(0.1 -0.1)">
       <use xlink:href="#DejaVuSans-30"/>
       <use xlink:href="#DejaVuSans-2e" x="63.623047"/>
       <use xlink:href="#DejaVuSans-36" x="95.410156"/>
      </g>
     </g>
    </g>
    <g id="ytick_5">
     <g id="line2d_11">
      <g>
       <use xlink:href="#mee9ab2578e" x="90" y="135.818182" style="stroke: #000000; stroke-width: 0.8"/>
      </g>
     </g>
     <g id="text_11">
      <!-- 0.8 -->
      <g transform="translate(67.096875 139.617401)scale(0.1 -0.1)">
       <use xlink:href="#DejaVuSans-30"/>
       <use xlink:href="#DejaVuSans-2e" x="63.623047"/>
       <use xlink:href="#DejaVuSans-38" x="95.410156"/>
      </g>
     </g>
    </g>
    <g id="ytick_6">
     <g id="line2d_12">
      <g>
       <use xlink:href="#mee9ab2578e" x="90" y="86.4" style="stroke: #000000; stroke-width: 0.8"/>
      </g>
     </g>
     <g id="text_12">
      <!-- 1.0 -->
      <g transform="translate(67.096875 90.199219)scale(0.1 -0.1)">
       <use xlink:href="#DejaVuSans-31"/>
       <use xlink:href="#DejaVuSans-2e" x="63.623047"/>
       <use xlink:href="#DejaVuSans-30" x="95.410156"/>
      </g>
     </g>
    </g>
   </g>
   <g id="patch_3">
    <path d="M 90 333.490909 
L 90 86.4 
" style="fill: none; stroke: #000000; stroke-width: 0.8; stroke-linejoin: miter; stroke-linecap: square"/>
   </g>
   <g id="patch_4">
    <path d="M 343.636364 333.490909 
L 343.636364 86.4 
" style="fill: none; stroke: #000000; stroke-width: 0.8; stroke-linejoin: miter; stroke-linecap: square"/>
   </g>
   <g id="patch_5">
    <path d="M 90 333.490909 
L 343.636364 333.490909 
" style="fill: none; stroke: #000000; stroke-width: 0.8; stroke-linejoin: miter; stroke-linecap: square"/>
   </g>
   <g id="patch_6">
    <path d="M 90 86.4 
L 343.636364 86.4 
" style="fill: none; stroke: #000000; stroke-width: 0.8; stroke-linejoin: miter; stroke-linecap: square"/>
   </g>
  </g>
  <g id="axes_2">
   <g id="patch_7">
    <path d="M 394.363636 333.490909 
L 648 333.490909 
L 648 86.4 
L 394.363636 86.4 
z
" style="fill: #ffffff"/>
   </g>
   <g id="PolyCollection_1">
    <defs>
     <path id="m8429520beb" d="M 405.892562 -499.761414 
L 405.892562 -499.761414 
L 407.342741 -499.761414 
L 408.792921 -499.761414 
L 410.2431 -499.761414 
L 411.693279 -499.763698 
L 413.143459 -499.778729 
L 414.593638 -499.855631 
L 416.043817 -500.16219 
L 417.493997 -501.113578 
L 418.944176 -503.421701 
L 420.394355 -507.785305 
L 421.844535 -514.15765 
L 423.294714 -517.105619 
L 424.744893 -522.095135 
L 426.195073 -522.571004 
L 427.645252 -517.175648 
L 429.095431 -516.598046 
L 430.54561 -509.597398 
L 431.99579 -504.415943 
L 433.445969 -501.529142 
L 434.896148 -500.296243 
L 436.346328 -499.889318 
L 437.796507 -499.78533 
L 439.246686 -499.764654 
L 440.696866 -499.761414 
L 442.147045 -499.761414 
L 443.597224 -499.761414 
L 445.047404 -499.7677 
L 446.497583 -499.8024 
L 447.947762 -499.976311 
L 449.397942 -500.6351 
L 450.848121 -502.562662 
L 452.2983 -506.941583 
L 453.74848 -514.691898 
L 455.198659 -525.424876 
L 456.648838 -525.200869 
L 458.099018 -545.683188 
L 459.549197 -536.826028 
L 460.999376 -530.846344 
L 462.449556 -531.48869 
L 463.899735 -519.037583 
L 465.349914 -509.872198 
L 466.800094 -505.774411 
L 468.250273 -506.149535 
L 469.700452 -509.495227 
L 471.150632 -507.455301 
L 472.600811 -519.080918 
L 474.05099 -516.636835 
L 475.501169 -518.689925 
L 476.951349 -524.545815 
L 478.401528 -517.475973 
L 479.851707 -515.971774 
L 481.301887 -521.65207 
L 482.752066 -523.460534 
L 484.202245 -520.640573 
L 485.652425 -522.438383 
L 487.102604 -521.764528 
L 488.552783 -524.602329 
L 490.002963 -520.142773 
L 491.453142 -508.301179 
L 492.903321 -511.523597 
L 494.353501 -508.226283 
L 495.80368 -507.170064 
L 497.253859 -509.314009 
L 498.704039 -514.209618 
L 500.154218 -513.273562 
L 501.604397 -519.467591 
L 503.054577 -521.822856 
L 504.504756 -523.012731 
L 505.954935 -529.949789 
L 507.405115 -519.078152 
L 508.855294 -514.582499 
L 510.305473 -517.8283 
L 511.755653 -510.755643 
L 513.205832 -505.449776 
L 514.656011 -503.311165 
L 516.106191 -505.249975 
L 517.55637 -512.571865 
L 519.006549 -526.214671 
L 520.456729 -544.510481 
L 521.906908 -549.479216 
L 523.357087 -561.106415 
L 524.807266 -580.177581 
L 526.257446 -566.772025 
L 527.707625 -562.393516 
L 529.157804 -569.694659 
L 530.607984 -569.331621 
L 532.058163 -559.696882 
L 533.508342 -559.863639 
L 534.958522 -568.96754 
L 536.408701 -549.920666 
L 537.85888 -552.232678 
L 539.30906 -529.483168 
L 540.759239 -528.569263 
L 542.209418 -516.911207 
L 543.659598 -508.172295 
L 545.109777 -503.085278 
L 546.559956 -500.805495 
L 548.010136 -500.02048 
L 549.460315 -499.810934 
L 550.910494 -499.769009 
L 552.360674 -499.761414 
L 553.810853 -499.761414 
L 555.261032 -499.761414 
L 556.711212 -499.761414 
L 558.161391 -499.761414 
L 559.61157 -499.761414 
L 561.06175 -499.761414 
L 562.511929 -499.761414 
L 563.962108 -499.761414 
L 565.412288 -499.761414 
L 566.862467 -499.761414 
L 568.312646 -499.761414 
L 569.762826 -499.761414 
L 571.213005 -499.761414 
L 572.663184 -499.761414 
L 574.113363 -499.761414 
L 575.563543 -499.761414 
L 577.013722 -499.761414 
L 578.463901 -499.761414 
L 579.914081 -499.761414 
L 581.36426 -499.761414 
L 582.814439 -499.761414 
L 584.264619 -499.761414 
L 585.714798 -499.761414 
L 587.164977 -499.761414 
L 588.615157 -499.761414 
L 590.065336 -499.761414 
L 591.515515 -499.761414 
L 592.965695 -499.761414 
L 594.415874 -499.761414 
L 595.866053 -499.761414 
L 597.316233 -499.761414 
L 598.766412 -499.761414 
L 600.216591 -499.761414 
L 601.666771 -499.761414 
L 603.11695 -499.761414 
L 604.567129 -499.761414 
L 606.017309 -499.761414 
L 607.467488 -499.761414 
L 608.917667 -499.761414 
L 610.367847 -499.761414 
L 611.818026 -499.761414 
L 613.268205 -499.761414 
L 614.718385 -499.761414 
L 616.168564 -499.761414 
L 617.618743 -499.761414 
L 619.068923 -499.761414 
L 620.519102 -499.761414 
L 621.969281 -499.761414 
L 623.41946 -499.761414 
L 624.86964 -499.761414 
L 626.319819 -499.761414 
L 627.769998 -499.761414 
L 629.220178 -499.761414 
L 630.670357 -499.761414 
L 632.120536 -499.761414 
L 633.570716 -499.761414 
L 635.020895 -499.761414 
L 636.471074 -499.761414 
L 636.471074 -499.761414 
L 636.471074 -499.761414 
L 635.020895 -499.761414 
L 633.570716 -499.761414 
L 632.120536 -499.761414 
L 630.670357 -499.761414 
L 629.220178 -499.761414 
L 627.769998 -499.761414 
L 626.319819 -499.761414 
L 624.86964 -499.761414 
L 623.41946 -499.761414 
L 621.969281 -499.761414 
L 620.519102 -499.761414 
L 619.068923 -499.761414 
L 617.618743 -499.761414 
L 616.168564 -499.761414 
L 614.718385 -499.761414 
L 613.268205 -499.761414 
L 611.818026 -499.761414 
L 610.367847 -499.761414 
L 608.917667 -499.761414 
L 607.467488 -499.761414 
L 606.017309 -499.761414 
L 604.567129 -499.761414 
L 603.11695 -499.761414 
L 601.666771 -499.761414 
L 600.216591 -499.761414 
L 598.766412 -499.761414 
L 597.316233 -499.761414 
L 595.866053 -499.761414 
L 594.415874 -499.761414 
L 592.965695 -499.761414 
L 591.515515 -499.761414 
L 590.065336 -499.761414 
L 588.615157 -499.761414 
L 587.164977 -499.761414 
L 585.714798 -499.761414 
L 584.264619 -499.761414 
L 582.814439 -499.761414 
L 581.36426 -499.761414 
L 579.914081 -499.761414 
L 578.463901 -499.761414 
L 577.013722 -499.761414 
L 575.563543 -499.761414 
L 574.113363 -499.761414 
L 572.663184 -499.761414 
L 571.213005 -499.761414 
L 569.762826 -499.761414 
L 568.312646 -499.761414 
L 566.862467 -499.761414 
L 565.412288 -499.761414 
L 563.962108 -499.761414 
L 562.511929 -499.761414 
L 561.06175 -499.761414 
L 559.61157 -499.761414 
L 558.161391 -499.761414 
L 556.711212 -499.761414 
L 555.261032 -499.761414 
L 553.810853 -499.761414 
L 552.360674 -499.761414 
L 550.910494 -499.769009 
L 549.460315 -499.810934 
L 548.010136 -500.02048 
L 546.559956 -500.805495 
L 545.109777 -503.085278 
L 543.659598 -508.172295 
L 542.209418 -516.911207 
L 540.759239 -528.569263 
L 539.30906 -552.47386 
L 537.85888 -552.232678 
L 536.408701 -573.53113 
L 534.958522 -568.96754 
L 533.508342 -585.090327 
L 532.058163 -583.649159 
L 530.607984 -569.331621 
L 529.157804 -569.694659 
L 527.707625 -585.288474 
L 526.257446 -590.660297 
L 524.807266 -580.177581 
L 523.357087 -589.236634 
L 521.906908 -575.654406 
L 520.456729 -544.510481 
L 519.006549 -526.214671 
L 517.55637 -512.571865 
L 516.106191 -505.249975 
L 514.656011 -503.311165 
L 513.205832 -505.449776 
L 511.755653 -510.755643 
L 510.305473 -517.8283 
L 508.855294 -534.180209 
L 507.405115 -537.905706 
L 505.954935 -529.949789 
L 504.504756 -536.392484 
L 503.054577 -534.631228 
L 501.604397 -530.748661 
L 500.154218 -526.96167 
L 498.704039 -514.209618 
L 497.253859 -509.314009 
L 495.80368 -507.170064 
L 494.353501 -508.226283 
L 492.903321 -511.523597 
L 491.453142 -523.118694 
L 490.002963 -520.142773 
L 488.552783 -524.602329 
L 487.102604 -534.358059 
L 485.652425 -535.282587 
L 484.202245 -532.714429 
L 482.752066 -523.460534 
L 481.301887 -521.65207 
L 479.851707 -527.972691 
L 478.401528 -529.298637 
L 476.951349 -524.545815 
L 475.501169 -530.336852 
L 474.05099 -528.79028 
L 472.600811 -519.080918 
L 471.150632 -521.098977 
L 469.700452 -509.495227 
L 468.250273 -506.149535 
L 466.800094 -505.774411 
L 465.349914 -509.872198 
L 463.899735 -519.037583 
L 462.449556 -531.48869 
L 460.999376 -554.721832 
L 459.549197 -559.50967 
L 458.099018 -545.683188 
L 456.648838 -548.655827 
L 455.198659 -525.424876 
L 453.74848 -514.691898 
L 452.2983 -506.941583 
L 450.848121 -502.562662 
L 449.397942 -500.6351 
L 447.947762 -499.976311 
L 446.497583 -499.8024 
L 445.047404 -499.7677 
L 443.597224 -499.761414 
L 442.147045 -499.761414 
L 440.696866 -499.761414 
L 439.246686 -499.764654 
L 437.796507 -499.78533 
L 436.346328 -499.889318 
L 434.896148 -500.296243 
L 433.445969 -501.529142 
L 431.99579 -504.415943 
L 430.54561 -509.597398 
L 429.095431 -516.598046 
L 427.645252 -529.532508 
L 426.195073 -531.646715 
L 424.744893 -530.29011 
L 423.294714 -525.143825 
L 421.844535 -514.15765 
L 420.394355 -507.785305 
L 418.944176 -503.421701 
L 417.493997 -501.113578 
L 416.043817 -500.16219 
L 414.593638 -499.855631 
L 413.143459 -499.778729 
L 411.693279 -499.763698 
L 410.2431 -499.761414 
L 408.792921 -499.761414 
L 407.342741 -499.761414 
L 405.892562 -499.761414 
z
" style="stroke: #9467bd; stroke-opacity: 0.2"/>
    </defs>
    <g clip-path="url(#p85e2379520)">
     <use xlink:href="#m8429520beb" x="0" y="720" style="fill: #9467bd; fill-opacity: 0.2; stroke: #9467bd; stroke-opacity: 0.2"/>
    </g>
   </g>
   <g id="PolyCollection_2">
    <defs>
     <path id="m22d5dc6dc0" d="M 405.892562 -499.761414 
L 405.892562 -499.761414 
L 407.342741 -499.761414 
L 408.792921 -499.761414 
L 410.2431 -499.761414 
L 411.693279 -499.761414 
L 413.143459 -499.761414 
L 414.593638 -499.761414 
L 416.043817 -499.761414 
L 417.493997 -499.761414 
L 418.944176 -499.761414 
L 420.394355 -499.761414 
L 421.844535 -499.761414 
L 423.294714 -499.761414 
L 424.744893 -499.761414 
L 426.195073 -499.761414 
L 427.645252 -499.761414 
L 429.095431 -499.761414 
L 430.54561 -499.761414 
L 431.99579 -499.761414 
L 433.445969 -499.761414 
L 434.896148 -499.761414 
L 436.346328 -499.761414 
L 437.796507 -499.761414 
L 439.246686 -499.761414 
L 440.696866 -499.761414 
L 442.147045 -499.761414 
L 443.597224 -499.761414 
L 445.047404 -499.761414 
L 446.497583 -499.761414 
L 447.947762 -499.761414 
L 449.397942 -499.761414 
L 450.848121 -499.761414 
L 452.2983 -499.761414 
L 453.74848 -499.761414 
L 455.198659 -499.761414 
L 456.648838 -499.761414 
L 458.099018 -499.761414 
L 459.549197 -499.761414 
L 460.999376 -499.761414 
L 462.449556 -499.761414 
L 463.899735 -499.761414 
L 465.349914 -499.761414 
L 466.800094 -499.761414 
L 468.250273 -499.761414 
L 469.700452 -499.761414 
L 471.150632 -499.761414 
L 472.600811 -499.761414 
L 474.05099 -499.761414 
L 475.501169 -499.761414 
L 476.951349 -499.761414 
L 478.401528 -499.761414 
L 479.851707 -499.761414 
L 481.301887 -499.761414 
L 482.752066 -499.761414 
L 484.202245 -499.761414 
L 485.652425 -499.761414 
L 487.102604 -499.761414 
L 488.552783 -499.761414 
L 490.002963 -499.761414 
L 491.453142 -499.761414 
L 492.903321 -499.761414 
L 494.353501 -499.761414 
L 495.80368 -499.761414 
L 497.253859 -499.761414 
L 498.704039 -499.761414 
L 500.154218 -499.761414 
L 501.604397 -499.761414 
L 503.054577 -499.761414 
L 504.504756 -499.761414 
L 505.954935 -499.761414 
L 507.405115 -499.761414 
L 508.855294 -499.761414 
L 510.305473 -499.761414 
L 511.755653 -499.761414 
L 513.205832 -499.761414 
L 514.656011 -499.761414 
L 516.106191 -499.761414 
L 517.55637 -499.761414 
L 519.006549 -499.761414 
L 520.456729 -499.761414 
L 521.906908 -499.761414 
L 523.357087 -499.761414 
L 524.807266 -499.761414 
L 526.257446 -499.761414 
L 527.707625 -499.761414 
L 529.157804 -499.761414 
L 530.607984 -499.761414 
L 532.058163 -499.761414 
L 533.508342 -499.761414 
L 534.958522 -499.761414 
L 536.408701 -499.761414 
L 537.85888 -499.761414 
L 539.30906 -499.761414 
L 540.759239 -499.761414 
L 542.209418 -499.761414 
L 543.659598 -499.761414 
L 545.109777 -499.761414 
L 546.559956 -499.761414 
L 548.010136 -499.761414 
L 549.460315 -499.761414 
L 550.910494 -499.761414 
L 552.360674 -499.761414 
L 553.810853 -499.761414 
L 555.261032 -499.761414 
L 556.711212 -499.761414 
L 558.161391 -499.761414 
L 559.61157 -499.761414 
L 561.06175 -499.761414 
L 562.511929 -499.761414 
L 563.962108 -499.761414 
L 565.412288 -499.761414 
L 566.862467 -499.761414 
L 568.312646 -499.761414 
L 569.762826 -499.761414 
L 571.213005 -499.761414 
L 572.663184 -499.761414 
L 574.113363 -499.761414 
L 575.563543 -499.761414 
L 577.013722 -499.761414 
L 578.463901 -499.761414 
L 579.914081 -499.761414 
L 581.36426 -499.761414 
L 582.814439 -499.761414 
L 584.264619 -499.761414 
L 585.714798 -499.761414 
L 587.164977 -499.761414 
L 588.615157 -499.761414 
L 590.065336 -499.761414 
L 591.515515 -499.761414 
L 592.965695 -499.761414 
L 594.415874 -499.761414 
L 595.866053 -499.761414 
L 597.316233 -499.761414 
L 598.766412 -499.761414 
L 600.216591 -499.761414 
L 601.666771 -499.761414 
L 603.11695 -499.761414 
L 604.567129 -499.761414 
L 606.017309 -499.761414 
L 607.467488 -499.761414 
L 608.917667 -499.761414 
L 610.367847 -499.761414 
L 611.818026 -499.761414 
L 613.268205 -499.761414 
L 614.718385 -499.761414 
L 616.168564 -499.761414 
L 617.618743 -499.761414 
L 619.068923 -499.761414 
L 620.519102 -499.761414 
L 621.969281 -499.761414 
L 623.41946 -499.761414 
L 624.86964 -499.761414 
L 626.319819 -499.761414 
L 627.769998 -499.761414 
L 629.220178 -499.761414 
L 630.670357 -499.761414 
L 632.120536 -499.761414 
L 633.570716 -499.761414 
L 635.020895 -499.761414 
L 636.471074 -499.761414 
L 636.471074 -499.761414 
L 636.471074 -499.761414 
L 635.020895 -499.761414 
L 633.570716 -499.761414 
L 632.120536 -499.761414 
L 630.670357 -499.761414 
L 629.220178 -499.761414 
L 627.769998 -499.761414 
L 626.319819 -499.761414 
L 624.86964 -499.761414 
L 623.41946 -499.761414 
L 621.969281 -499.761414 
L 620.519102 -499.761414 
L 619.068923 -499.761414 
L 617.618743 -499.761414 
L 616.168564 -499.761414 
L 614.718385 -499.761414 
L 613.268205 -499.761414 
L 611.818026 -499.761414 
L 610.367847 -499.761414 
L 608.917667 -499.761414 
L 607.467488 -499.761414 
L 606.017309 -499.761414 
L 604.567129 -499.761414 
L 603.11695 -499.761414 
L 601.666771 -499.761414 
L 600.216591 -499.761414 
L 598.766412 -499.761414 
L 597.316233 -499.761414 
L 595.866053 -499.761414 
L 594.415874 -499.761414 
L 592.965695 -499.761414 
L 591.515515 -499.761414 
L 590.065336 -499.761414 
L 588.615157 -499.761414 
L 587.164977 -499.761414 
L 585.714798 -499.761414 
L 584.264619 -499.761414 
L 582.814439 -499.761414 
L 581.36426 -499.761414 
L 579.914081 -499.761414 
L 578.463901 -499.761414 
L 577.013722 -499.761414 
L 575.563543 -499.761414 
L 574.113363 -499.761414 
L 572.663184 -499.761414 
L 571.213005 -499.761414 
L 569.762826 -499.761414 
L 568.312646 -499.761414 
L 566.862467 -499.761414 
L 565.412288 -499.761414 
L 563.962108 -499.761414 
L 562.511929 -499.761414 
L 561.06175 -499.761414 
L 559.61157 -499.761414 
L 558.161391 -499.761414 
L 556.711212 -499.761414 
L 555.261032 -499.761414 
L 553.810853 -499.761414 
L 552.360674 -499.761414 
L 550.910494 -499.761414 
L 549.460315 -499.761414 
L 548.010136 -499.761414 
L 546.559956 -499.761414 
L 545.109777 -499.761414 
L 543.659598 -499.761414 
L 542.209418 -499.761414 
L 540.759239 -499.761414 
L 539.30906 -499.761414 
L 537.85888 -499.761414 
L 536.408701 -499.761414 
L 534.958522 -499.761414 
L 533.508342 -499.761414 
L 532.058163 -499.761414 
L 530.607984 -499.761414 
L 529.157804 -499.761414 
L 527.707625 -499.761414 
L 526.257446 -499.761414 
L 524.807266 -499.761414 
L 523.357087 -499.761414 
L 521.906908 -499.761414 
L 520.456729 -499.761414 
L 519.006549 -499.761414 
L 517.55637 -499.761414 
L 516.106191 -499.761414 
L 514.656011 -499.761414 
L 513.205832 -499.761414 
L 511.755653 -499.761414 
L 510.305473 -499.761414 
L 508.855294 -499.761414 
L 507.405115 -499.761414 
L 505.954935 -499.761414 
L 504.504756 -499.761414 
L 503.054577 -499.761414 
L 501.604397 -499.761414 
L 500.154218 -499.761414 
L 498.704039 -499.761414 
L 497.253859 -499.761414 
L 495.80368 -499.761414 
L 494.353501 -499.761414 
L 492.903321 -499.761414 
L 491.453142 -499.761414 
L 490.002963 -499.761414 
L 488.552783 -499.761414 
L 487.102604 -499.761414 
L 485.652425 -499.761414 
L 484.202245 -499.761414 
L 482.752066 -499.761414 
L 481.301887 -499.761414 
L 479.851707 -499.761414 
L 478.401528 -499.761414 
L 476.951349 -499.761414 
L 475.501169 -499.761414 
L 474.05099 -499.761414 
L 472.600811 -499.761414 
L 471.150632 -499.761414 
L 469.700452 -499.761414 
L 468.250273 -499.761414 
L 466.800094 -499.761414 
L 465.349914 -499.761414 
L 463.899735 -499.761414 
L 462.449556 -499.761414 
L 460.999376 -499.761414 
L 459.549197 -499.761414 
L 458.099018 -499.761414 
L 456.648838 -499.761414 
L 455.198659 -499.761414 
L 453.74848 -499.761414 
L 452.2983 -499.761414 
L 450.848121 -499.761414 
L 449.397942 -499.761414 
L 447.947762 -499.761414 
L 446.497583 -499.761414 
L 445.047404 -499.761414 
L 443.597224 -499.761414 
L 442.147045 -499.761414 
L 440.696866 -499.761414 
L 439.246686 -499.761414 
L 437.796507 -499.761414 
L 436.346328 -499.761414 
L 434.896148 -499.761414 
L 433.445969 -499.761414 
L 431.99579 -499.761414 
L 430.54561 -499.761414 
L 429.095431 -499.761414 
L 427.645252 -499.761414 
L 426.195073 -499.761414 
L 424.744893 -499.761414 
L 423.294714 -499.761414 
L 421.844535 -499.761414 
L 420.394355 -499.761414 
L 418.944176 -499.761414 
L 417.493997 -499.761414 
L 416.043817 -499.761414 
L 414.593638 -499.761414 
L 413.143459 -499.761414 
L 411.693279 -499.761414 
L 410.2431 -499.761414 
L 408.792921 -499.761414 
L 407.342741 -499.761414 
L 405.892562 -499.761414 
z
" style="stroke: #1f77b4; stroke-opacity: 0.2"/>
    </defs>
    <g clip-path="url(#p85e2379520)">
     <use xlink:href="#m22d5dc6dc0" x="0" y="720" style="fill: #1f77b4; fill-opacity: 0.2; stroke: #1f77b4; stroke-opacity: 0.2"/>
    </g>
   </g>
   <g id="PolyCollection_3">
    <defs>
     <path id="m38a5adaa7f" d="M 405.892562 -499.761414 
L 405.892562 -499.761414 
L 407.342741 -499.761414 
L 408.792921 -499.761414 
L 410.2431 -499.761414 
L 411.693279 -499.761414 
L 413.143459 -499.761414 
L 414.593638 -499.761414 
L 416.043817 -499.761414 
L 417.493997 -499.761414 
L 418.944176 -499.761414 
L 420.394355 -499.761414 
L 421.844535 -499.761414 
L 423.294714 -499.761414 
L 424.744893 -499.761414 
L 426.195073 -499.761414 
L 427.645252 -499.761414 
L 429.095431 -499.761414 
L 430.54561 -499.761414 
L 431.99579 -499.761414 
L 433.445969 -499.761414 
L 434.896148 -499.761414 
L 436.346328 -499.761414 
L 437.796507 -499.761414 
L 439.246686 -499.761414 
L 440.696866 -499.761414 
L 442.147045 -499.756767 
L 443.597224 -499.726164 
L 445.047404 -499.57526 
L 446.497583 -498.983686 
L 447.947762 -497.204505 
L 449.397942 -493.094806 
L 450.848121 -485.885997 
L 452.2983 -476.480896 
L 453.74848 -458.125161 
L 455.198659 -453.900982 
L 456.648838 -464.586946 
L 458.099018 -460.807734 
L 459.549197 -479.34213 
L 460.999376 -487.702233 
L 462.449556 -493.898892 
L 463.899735 -497.457693 
L 465.349914 -499.039627 
L 466.800094 -499.583303 
L 468.250273 -499.727316 
L 469.700452 -499.756185 
L 471.150632 -499.75816 
L 472.600811 -499.740194 
L 474.05099 -499.653649 
L 475.501169 -499.335193 
L 476.951349 -498.44505 
L 478.401528 -496.585364 
L 479.851707 -493.736666 
L 481.301887 -490.611523 
L 482.752066 -482.494969 
L 484.202245 -486.131151 
L 485.652425 -483.270945 
L 487.102604 -478.594924 
L 488.552783 -467.122634 
L 490.002963 -463.756356 
L 491.453142 -465.817586 
L 492.903321 -458.742226 
L 494.353501 -460.79987 
L 495.80368 -463.075364 
L 497.253859 -469.375807 
L 498.704039 -476.247226 
L 500.154218 -488.414287 
L 501.604397 -492.957024 
L 503.054577 -495.025114 
L 504.504756 -494.925695 
L 505.954935 -487.126787 
L 507.405115 -490.187382 
L 508.855294 -485.860156 
L 510.305473 -472.048579 
L 511.755653 -466.670443 
L 513.205832 -460.997135 
L 514.656011 -465.743632 
L 516.106191 -452.107283 
L 517.55637 -451.054379 
L 519.006549 -452.553644 
L 520.456729 -466.7844 
L 521.906908 -469.168537 
L 523.357087 -469.399587 
L 524.807266 -459.419159 
L 526.257446 -475.539737 
L 527.707625 -483.418121 
L 529.157804 -490.775393 
L 530.607984 -494.79066 
L 532.058163 -494.217495 
L 533.508342 -488.387436 
L 534.958522 -477.054367 
L 536.408701 -461.471202 
L 537.85888 -434.276255 
L 539.30906 -429.235429 
L 540.759239 -407.610045 
L 542.209418 -399.85152 
L 543.659598 -397.740496 
L 545.109777 -399.047116 
L 546.559956 -403.931645 
L 548.010136 -408.862841 
L 549.460315 -415.378289 
L 550.910494 -419.625005 
L 552.360674 -422.265036 
L 553.810853 -424.155437 
L 555.261032 -425.64957 
L 556.711212 -428.362448 
L 558.161391 -432.070531 
L 559.61157 -437.401893 
L 561.06175 -442.449437 
L 562.511929 -445.530486 
L 563.962108 -448.324102 
L 565.412288 -453.686174 
L 566.862467 -442.29885 
L 568.312646 -441.538812 
L 569.762826 -428.683764 
L 571.213005 -429.000419 
L 572.663184 -437.485243 
L 574.113363 -458.659637 
L 575.563543 -472.435729 
L 577.013722 -480.667843 
L 578.463901 -483.280497 
L 579.914081 -476.893919 
L 581.36426 -482.497678 
L 582.814439 -480.09846 
L 584.264619 -474.192628 
L 585.714798 -459.214699 
L 587.164977 -450.193544 
L 588.615157 -442.16382 
L 590.065336 -437.427731 
L 591.515515 -436.962261 
L 592.965695 -437.430376 
L 594.415874 -439.638205 
L 595.866053 -441.55989 
L 597.316233 -443.567938 
L 598.766412 -444.893596 
L 600.216591 -445.505784 
L 601.666771 -446.280404 
L 603.11695 -447.934785 
L 604.567129 -448.627361 
L 606.017309 -451.209877 
L 607.467488 -451.902463 
L 608.917667 -455.477269 
L 610.367847 -460.95216 
L 611.818026 -469.517502 
L 613.268205 -477.592605 
L 614.718385 -488.259814 
L 616.168564 -493.855709 
L 617.618743 -497.227003 
L 619.068923 -498.866966 
L 620.519102 -499.505449 
L 621.969281 -499.702852 
L 623.41946 -499.750972 
L 624.86964 -499.760097 
L 626.319819 -499.761414 
L 627.769998 -499.761414 
L 629.220178 -499.761414 
L 630.670357 -499.761414 
L 632.120536 -499.761414 
L 633.570716 -499.761414 
L 635.020895 -499.761414 
L 636.471074 -499.761414 
L 636.471074 -499.761414 
L 636.471074 -499.761414 
L 635.020895 -499.761414 
L 633.570716 -499.761414 
L 632.120536 -499.761414 
L 630.670357 -499.761414 
L 629.220178 -499.761414 
L 627.769998 -499.761414 
L 626.319819 -499.761414 
L 624.86964 -499.760097 
L 623.41946 -499.750972 
L 621.969281 -499.702852 
L 620.519102 -499.505449 
L 619.068923 -498.866966 
L 617.618743 -497.227003 
L 616.168564 -493.855709 
L 614.718385 -488.259814 
L 613.268205 -483.800429 
L 611.818026 -475.163517 
L 610.367847 -468.735007 
L 608.917667 -463.527098 
L 607.467488 -461.247953 
L 606.017309 -459.347941 
L 604.567129 -460.356387 
L 603.11695 -459.151058 
L 601.666771 -458.533537 
L 600.216591 -457.107935 
L 598.766412 -455.582665 
L 597.316233 -454.180723 
L 595.866053 -452.277282 
L 594.415874 -449.403453 
L 592.965695 -447.222621 
L 591.515515 -445.545835 
L 590.065336 -447.363355 
L 588.615157 -451.476502 
L 587.164977 -459.420409 
L 585.714798 -470.614136 
L 584.264619 -474.192628 
L 582.814439 -480.09846 
L 581.36426 -482.497678 
L 579.914081 -489.597195 
L 578.463901 -483.280497 
L 577.013722 -480.667843 
L 575.563543 -472.435729 
L 574.113363 -458.659637 
L 572.663184 -450.871192 
L 571.213005 -441.904426 
L 569.762826 -442.118364 
L 568.312646 -441.538812 
L 566.862467 -455.422258 
L 565.412288 -453.686174 
L 563.962108 -461.633962 
L 562.511929 -461.2338 
L 561.06175 -457.44414 
L 559.61157 -453.834595 
L 558.161391 -450.498578 
L 556.711212 -447.081753 
L 555.261032 -444.796549 
L 553.810853 -442.530135 
L 552.360674 -440.002145 
L 550.910494 -435.91975 
L 549.460315 -430.749543 
L 548.010136 -426.23983 
L 546.559956 -420.528117 
L 545.109777 -417.564711 
L 543.659598 -416.531349 
L 542.209418 -420.091942 
L 540.759239 -427.222619 
L 539.30906 -429.235429 
L 537.85888 -454.797056 
L 536.408701 -461.471202 
L 534.958522 -477.054367 
L 533.508342 -488.387436 
L 532.058163 -494.217495 
L 530.607984 -494.79066 
L 529.157804 -490.775393 
L 527.707625 -483.418121 
L 526.257446 -475.539737 
L 524.807266 -481.73593 
L 523.357087 -469.399587 
L 521.906908 -469.168537 
L 520.456729 -466.7844 
L 519.006549 -472.968185 
L 517.55637 -469.704418 
L 516.106191 -471.258703 
L 514.656011 -465.743632 
L 513.205832 -480.266937 
L 511.755653 -484.497782 
L 510.305473 -489.432924 
L 508.855294 -485.860156 
L 507.405115 -490.187382 
L 505.954935 -499.343511 
L 504.504756 -494.925695 
L 503.054577 -495.025114 
L 501.604397 -492.957024 
L 500.154218 -488.414287 
L 498.704039 -487.786852 
L 497.253859 -481.145944 
L 495.80368 -476.425958 
L 494.353501 -471.97007 
L 492.903321 -471.598664 
L 491.453142 -465.817586 
L 490.002963 -473.063769 
L 488.552783 -478.902561 
L 487.102604 -478.594924 
L 485.652425 -483.270945 
L 484.202245 -486.131151 
L 482.752066 -493.747247 
L 481.301887 -490.611523 
L 479.851707 -493.736666 
L 478.401528 -496.585364 
L 476.951349 -498.44505 
L 475.501169 -499.335193 
L 474.05099 -499.653649 
L 472.600811 -499.740194 
L 471.150632 -499.75816 
L 469.700452 -499.756185 
L 468.250273 -499.727316 
L 466.800094 -499.583303 
L 465.349914 -499.039627 
L 463.899735 -497.457693 
L 462.449556 -493.898892 
L 460.999376 -487.702233 
L 459.549197 -479.34213 
L 458.099018 -480.653162 
L 456.648838 -464.586946 
L 455.198659 -472.764298 
L 453.74848 -477.538479 
L 452.2983 -476.480896 
L 450.848121 -485.885997 
L 449.397942 -493.094806 
L 447.947762 -497.204505 
L 446.497583 -498.983686 
L 445.047404 -499.57526 
L 443.597224 -499.726164 
L 442.147045 -499.756767 
L 440.696866 -499.761414 
L 439.246686 -499.761414 
L 437.796507 -499.761414 
L 436.346328 -499.761414 
L 434.896148 -499.761414 
L 433.445969 -499.761414 
L 431.99579 -499.761414 
L 430.54561 -499.761414 
L 429.095431 -499.761414 
L 427.645252 -499.761414 
L 426.195073 -499.761414 
L 424.744893 -499.761414 
L 423.294714 -499.761414 
L 421.844535 -499.761414 
L 420.394355 -499.761414 
L 418.944176 -499.761414 
L 417.493997 -499.761414 
L 416.043817 -499.761414 
L 414.593638 -499.761414 
L 413.143459 -499.761414 
L 411.693279 -499.761414 
L 410.2431 -499.761414 
L 408.792921 -499.761414 
L 407.342741 -499.761414 
L 405.892562 -499.761414 
z
" style="stroke: #d62728; stroke-opacity: 0.2"/>
    </defs>
    <g clip-path="url(#p85e2379520)">
     <use xlink:href="#m38a5adaa7f" x="0" y="720" style="fill: #d62728; fill-opacity: 0.2; stroke: #d62728; stroke-opacity: 0.2"/>
    </g>
   </g>
   <g id="PolyCollection_4">
    <defs>
     <path id="m217db78398" d="M 405.892562 -499.761414 
L 405.892562 -499.761414 
L 407.342741 -499.761414 
L 408.792921 -499.761414 
L 410.2431 -499.761414 
L 411.693279 -499.761414 
L 413.143459 -499.761414 
L 414.593638 -499.761414 
L 416.043817 -499.761414 
L 417.493997 -499.761414 
L 418.944176 -499.761414 
L 420.394355 -499.760575 
L 421.844535 -499.755941 
L 423.294714 -499.733618 
L 424.744893 -499.651478 
L 426.195073 -499.419136 
L 427.645252 -498.923557 
L 429.095431 -498.108291 
L 430.54561 -496.993071 
L 431.99579 -491.805744 
L 433.445969 -492.779702 
L 434.896148 -488.190063 
L 436.346328 -481.584892 
L 437.796507 -469.054415 
L 439.246686 -463.935489 
L 440.696866 -460.111778 
L 442.147045 -457.654393 
L 443.597224 -461.591268 
L 445.047404 -453.800507 
L 446.497583 -452.345535 
L 447.947762 -452.347683 
L 449.397942 -454.818492 
L 450.848121 -460.340549 
L 452.2983 -468.092003 
L 453.74848 -482.059375 
L 455.198659 -489.495519 
L 456.648838 -493.817388 
L 458.099018 -494.284242 
L 459.549197 -491.027841 
L 460.999376 -484.943773 
L 462.449556 -472.731354 
L 463.899735 -466.486925 
L 465.349914 -462.864338 
L 466.800094 -461.539793 
L 468.250273 -464.003131 
L 469.700452 -468.20687 
L 471.150632 -477.09618 
L 472.600811 -476.897652 
L 474.05099 -483.295516 
L 475.501169 -483.772988 
L 476.951349 -478.978322 
L 478.401528 -482.689364 
L 479.851707 -482.877884 
L 481.301887 -479.955513 
L 482.752066 -487.908264 
L 484.202245 -492.115629 
L 485.652425 -495.794761 
L 487.102604 -498.132411 
L 488.552783 -499.236318 
L 490.002963 -499.629501 
L 491.453142 -499.735439 
L 492.903321 -499.757431 
L 494.353501 -499.761414 
L 495.80368 -499.761414 
L 497.253859 -499.761414 
L 498.704039 -499.761414 
L 500.154218 -499.761414 
L 501.604397 -499.761414 
L 503.054577 -499.758074 
L 504.504756 -499.739635 
L 505.954935 -499.650809 
L 507.405115 -499.323962 
L 508.855294 -498.413967 
L 510.305473 -496.529055 
L 511.755653 -493.722572 
L 513.205832 -490.97495 
L 514.656011 -483.056512 
L 516.106191 -490.97495 
L 517.55637 -493.717026 
L 519.006549 -496.492894 
L 520.456729 -498.230327 
L 521.906908 -498.597654 
L 523.357087 -497.408423 
L 524.807266 -494.339 
L 526.257446 -489.559533 
L 527.707625 -484.492204 
L 529.157804 -473.883669 
L 530.607984 -480.141799 
L 532.058163 -480.335292 
L 533.508342 -480.718135 
L 534.958522 -474.956111 
L 536.408701 -485.35856 
L 537.85888 -490.178032 
L 539.30906 -494.693934 
L 540.759239 -497.658503 
L 542.209418 -499.080499 
L 543.659598 -499.589252 
L 545.109777 -499.727514 
L 546.559956 -499.756216 
L 548.010136 -499.761414 
L 549.460315 -499.761414 
L 550.910494 -499.761414 
L 552.360674 -499.761414 
L 553.810853 -499.76739 
L 555.261032 -499.800379 
L 556.711212 -499.966867 
L 558.161391 -500.593432 
L 559.61157 -502.422915 
L 561.06175 -506.536409 
L 562.511929 -513.630346 
L 563.962108 -522.881902 
L 565.412288 -522.914434 
L 566.862467 -537.01646 
L 568.312646 -530.244426 
L 569.762826 -539.95989 
L 571.213005 -547.147818 
L 572.663184 -562.689394 
L 574.113363 -558.000756 
L 575.563543 -566.047785 
L 577.013722 -563.574806 
L 578.463901 -546.859994 
L 579.914081 -551.602922 
L 581.36426 -528.944346 
L 582.814439 -513.171381 
L 584.264619 -504.741725 
L 585.714798 -501.24347 
L 587.164977 -500.11125 
L 588.615157 -499.825802 
L 590.065336 -499.769989 
L 591.515515 -499.761414 
L 592.965695 -499.761414 
L 594.415874 -499.761414 
L 595.866053 -499.761414 
L 597.316233 -499.761414 
L 598.766412 -499.761414 
L 600.216591 -499.761414 
L 601.666771 -499.761414 
L 603.11695 -499.761414 
L 604.567129 -499.761414 
L 606.017309 -499.761414 
L 607.467488 -499.761414 
L 608.917667 -499.761414 
L 610.367847 -499.761414 
L 611.818026 -499.761414 
L 613.268205 -499.761414 
L 614.718385 -499.760146 
L 616.168564 -499.753143 
L 617.618743 -499.719408 
L 619.068923 -499.593438 
L 620.519102 -499.237689 
L 621.969281 -498.472952 
L 623.41946 -497.22725 
L 624.86964 -495.683045 
L 626.319819 -489.229129 
L 627.769998 -493.101752 
L 629.220178 -492.633468 
L 630.670357 -488.009532 
L 632.120536 -494.413358 
L 633.570716 -496.260609 
L 635.020895 -497.880046 
L 636.471074 -498.769789 
L 636.471074 -498.769789 
L 636.471074 -498.769789 
L 635.020895 -497.880046 
L 633.570716 -496.260609 
L 632.120536 -494.413358 
L 630.670357 -498.101726 
L 629.220178 -492.633468 
L 627.769998 -493.101752 
L 626.319819 -499.174107 
L 624.86964 -495.683045 
L 623.41946 -497.22725 
L 621.969281 -498.472952 
L 620.519102 -499.237689 
L 619.068923 -499.593438 
L 617.618743 -499.719408 
L 616.168564 -499.753143 
L 614.718385 -499.760146 
L 613.268205 -499.761414 
L 611.818026 -499.761414 
L 610.367847 -499.761414 
L 608.917667 -499.761414 
L 607.467488 -499.761414 
L 606.017309 -499.761414 
L 604.567129 -499.761414 
L 603.11695 -499.761414 
L 601.666771 -499.761414 
L 600.216591 -499.761414 
L 598.766412 -499.761414 
L 597.316233 -499.761414 
L 595.866053 -499.761414 
L 594.415874 -499.761414 
L 592.965695 -499.761414 
L 591.515515 -499.761414 
L 590.065336 -499.769989 
L 588.615157 -499.825802 
L 587.164977 -500.11125 
L 585.714798 -501.24347 
L 584.264619 -504.741725 
L 582.814439 -513.171381 
L 581.36426 -528.944346 
L 579.914081 -551.602922 
L 578.463901 -604.509985 
L 577.013722 -620.918994 
L 575.563543 -622.368595 
L 574.113363 -605.438757 
L 572.663184 -562.689394 
L 571.213005 -547.147818 
L 569.762826 -539.95989 
L 568.312646 -546.847757 
L 566.862467 -537.01646 
L 565.412288 -540.38416 
L 563.962108 -522.881902 
L 562.511929 -513.630346 
L 561.06175 -506.536409 
L 559.61157 -502.422915 
L 558.161391 -500.593432 
L 556.711212 -499.966867 
L 555.261032 -499.800379 
L 553.810853 -499.76739 
L 552.360674 -499.761414 
L 550.910494 -499.761414 
L 549.460315 -499.761414 
L 548.010136 -499.761414 
L 546.559956 -499.756216 
L 545.109777 -499.727514 
L 543.659598 -499.589252 
L 542.209418 -499.080499 
L 540.759239 -497.658503 
L 539.30906 -494.693934 
L 537.85888 -490.178032 
L 536.408701 -485.35856 
L 534.958522 -489.09723 
L 533.508342 -480.718135 
L 532.058163 -480.335292 
L 530.607984 -480.141799 
L 529.157804 -488.38302 
L 527.707625 -484.492204 
L 526.257446 -489.559533 
L 524.807266 -494.339 
L 523.357087 -497.408423 
L 521.906908 -498.597654 
L 520.456729 -498.230327 
L 519.006549 -496.492894 
L 517.55637 -493.717026 
L 516.106191 -490.97495 
L 514.656011 -496.553581 
L 513.205832 -490.97495 
L 511.755653 -493.722572 
L 510.305473 -496.529055 
L 508.855294 -498.413967 
L 507.405115 -499.323962 
L 505.954935 -499.650809 
L 504.504756 -499.739635 
L 503.054577 -499.758074 
L 501.604397 -499.761414 
L 500.154218 -499.761414 
L 498.704039 -499.761414 
L 497.253859 -499.761414 
L 495.80368 -499.761414 
L 494.353501 -499.761414 
L 492.903321 -499.757431 
L 491.453142 -499.735439 
L 490.002963 -499.629501 
L 488.552783 -499.236318 
L 487.102604 -498.132411 
L 485.652425 -495.794761 
L 484.202245 -492.115629 
L 482.752066 -487.908264 
L 481.301887 -489.143251 
L 479.851707 -482.877884 
L 478.401528 -482.689364 
L 476.951349 -487.540862 
L 475.501169 -483.772988 
L 474.05099 -483.295516 
L 472.600811 -485.233469 
L 471.150632 -477.09618 
L 469.700452 -476.528485 
L 468.250273 -472.767585 
L 466.800094 -471.431563 
L 465.349914 -472.007117 
L 463.899735 -476.275178 
L 462.449556 -482.709839 
L 460.999376 -484.943773 
L 459.549197 -491.027841 
L 458.099018 -494.284242 
L 456.648838 -493.817388 
L 455.198659 -489.495519 
L 453.74848 -482.059375 
L 452.2983 -478.449297 
L 450.848121 -470.38391 
L 449.397942 -465.150103 
L 447.947762 -462.968105 
L 446.497583 -463.523493 
L 445.047404 -465.582684 
L 443.597224 -461.591268 
L 442.147045 -468.40247 
L 440.696866 -469.464494 
L 439.246686 -472.756414 
L 437.796507 -479.555742 
L 436.346328 -481.584892 
L 434.896148 -488.190063 
L 433.445969 -492.779702 
L 431.99579 -499.053348 
L 430.54561 -496.993071 
L 429.095431 -498.108291 
L 427.645252 -498.923557 
L 426.195073 -499.419136 
L 424.744893 -499.651478 
L 423.294714 -499.733618 
L 421.844535 -499.755941 
L 420.394355 -499.760575 
L 418.944176 -499.761414 
L 417.493997 -499.761414 
L 416.043817 -499.761414 
L 414.593638 -499.761414 
L 413.143459 -499.761414 
L 411.693279 -499.761414 
L 410.2431 -499.761414 
L 408.792921 -499.761414 
L 407.342741 -499.761414 
L 405.892562 -499.761414 
z
" style="stroke: #ff7f0e; stroke-opacity: 0.2"/>
    </defs>
    <g clip-path="url(#p85e2379520)">
     <use xlink:href="#m217db78398" x="0" y="720" style="fill: #ff7f0e; fill-opacity: 0.2; stroke: #ff7f0e; stroke-opacity: 0.2"/>
    </g>
   </g>
   <g id="matplotlib.axis_3">
    <g id="xtick_7">
     <g id="line2d_13">
      <g>
       <use xlink:href="#m64212909c9" x="405.863558" y="333.490909" style="stroke: #000000; stroke-width: 0.8"/>
      </g>
     </g>
     <g id="text_13">
      <!-- 0 -->
      <g transform="translate(402.682308 348.089347)scale(0.1 -0.1)">
       <use xlink:href="#DejaVuSans-30"/>
      </g>
     </g>
    </g>
    <g id="xtick_8">
     <g id="line2d_14">
      <g>
       <use xlink:href="#m64212909c9" x="463.870731" y="333.490909" style="stroke: #000000; stroke-width: 0.8"/>
      </g>
     </g>
     <g id="text_14">
      <!-- 2000 -->
      <g transform="translate(451.145731 348.089347)scale(0.1 -0.1)">
       <use xlink:href="#DejaVuSans-32"/>
       <use xlink:href="#DejaVuSans-30" x="63.623047"/>
       <use xlink:href="#DejaVuSans-30" x="127.246094"/>
       <use xlink:href="#DejaVuSans-30" x="190.869141"/>
      </g>
     </g>
    </g>
    <g id="xtick_9">
     <g id="line2d_15">
      <g>
       <use xlink:href="#m64212909c9" x="521.877904" y="333.490909" style="stroke: #000000; stroke-width: 0.8"/>
      </g>
     </g>
     <g id="text_15">
      <!-- 4000 -->
      <g transform="translate(509.152904 348.089347)scale(0.1 -0.1)">
       <use xlink:href="#DejaVuSans-34"/>
       <use xlink:href="#DejaVuSans-30" x="63.623047"/>
       <use xlink:href="#DejaVuSans-30" x="127.246094"/>
       <use xlink:href="#DejaVuSans-30" x="190.869141"/>
      </g>
     </g>
    </g>
    <g id="xtick_10">
     <g id="line2d_16">
      <g>
       <use xlink:href="#m64212909c9" x="579.885077" y="333.490909" style="stroke: #000000; stroke-width: 0.8"/>
      </g>
     </g>
     <g id="text_16">
      <!-- 6000 -->
      <g transform="translate(567.160077 348.089347)scale(0.1 -0.1)">
       <use xlink:href="#DejaVuSans-36"/>
       <use xlink:href="#DejaVuSans-30" x="63.623047"/>
       <use xlink:href="#DejaVuSans-30" x="127.246094"/>
       <use xlink:href="#DejaVuSans-30" x="190.869141"/>
      </g>
     </g>
    </g>
    <g id="xtick_11">
     <g id="line2d_17">
      <g>
       <use xlink:href="#m64212909c9" x="637.89225" y="333.490909" style="stroke: #000000; stroke-width: 0.8"/>
      </g>
     </g>
     <g id="text_17">
      <!-- 8000 -->
      <g transform="translate(625.16725 348.089347)scale(0.1 -0.1)">
       <use xlink:href="#DejaVuSans-38"/>
       <use xlink:href="#DejaVuSans-30" x="63.623047"/>
       <use xlink:href="#DejaVuSans-30" x="127.246094"/>
       <use xlink:href="#DejaVuSans-30" x="190.869141"/>
      </g>
     </g>
    </g>
   </g>
   <g id="matplotlib.axis_4">
    <g id="ytick_7">
     <g id="line2d_18">
      <g>
       <use xlink:href="#mee9ab2578e" x="394.363636" y="308.332839" style="stroke: #000000; stroke-width: 0.8"/>
      </g>
     </g>
     <g id="text_18">
      <!-- −2 -->
      <g transform="translate(372.621449 312.132058)scale(0.1 -0.1)">
       <defs>
        <path id="DejaVuSans-2212" d="M 678 2272 
L 4684 2272 
L 4684 1741 
L 678 1741 
L 678 2272 
z
" transform="scale(0.015625)"/>
       </defs>
       <use xlink:href="#DejaVuSans-2212"/>
       <use xlink:href="#DejaVuSans-32" x="83.789062"/>
      </g>
     </g>
    </g>
    <g id="ytick_8">
     <g id="line2d_19">
      <g>
       <use xlink:href="#mee9ab2578e" x="394.363636" y="264.285712" style="stroke: #000000; stroke-width: 0.8"/>
      </g>
     </g>
     <g id="text_19">
      <!-- −1 -->
      <g transform="translate(372.621449 268.084931)scale(0.1 -0.1)">
       <use xlink:href="#DejaVuSans-2212"/>
       <use xlink:href="#DejaVuSans-31" x="83.789062"/>
      </g>
     </g>
    </g>
    <g id="ytick_9">
     <g id="line2d_20">
      <g>
       <use xlink:href="#mee9ab2578e" x="394.363636" y="220.238586" style="stroke: #000000; stroke-width: 0.8"/>
      </g>
     </g>
     <g id="text_20">
      <!-- 0 -->
      <g transform="translate(381.001136 224.037804)scale(0.1 -0.1)">
       <use xlink:href="#DejaVuSans-30"/>
      </g>
     </g>
    </g>
    <g id="ytick_10">
     <g id="line2d_21">
      <g>
       <use xlink:href="#mee9ab2578e" x="394.363636" y="176.191459" style="stroke: #000000; stroke-width: 0.8"/>
      </g>
     </g>
     <g id="text_21">
      <!-- 1 -->
      <g transform="translate(381.001136 179.990678)scale(0.1 -0.1)">
       <use xlink:href="#DejaVuSans-31"/>
      </g>
     </g>
    </g>
    <g id="ytick_11">
     <g id="line2d_22">
      <g>
       <use xlink:href="#mee9ab2578e" x="394.363636" y="132.144332" style="stroke: #000000; stroke-width: 0.8"/>
      </g>
     </g>
     <g id="text_22">
      <!-- 2 -->
      <g transform="translate(381.001136 135.943551)scale(0.1 -0.1)">
       <use xlink:href="#DejaVuSans-32"/>
      </g>
     </g>
    </g>
    <g id="ytick_12">
     <g id="line2d_23">
      <g>
       <use xlink:href="#mee9ab2578e" x="394.363636" y="88.097205" style="stroke: #000000; stroke-width: 0.8"/>
      </g>
     </g>
     <g id="text_23">
      <!-- 3 -->
      <g transform="translate(381.001136 91.896424)scale(0.1 -0.1)">
       <defs>
        <path id="DejaVuSans-33" d="M 2597 2516 
Q 3050 2419 3304 2112 
Q 3559 1806 3559 1356 
Q 3559 666 3084 287 
Q 2609 -91 1734 -91 
Q 1441 -91 1130 -33 
Q 819 25 488 141 
L 488 750 
Q 750 597 1062 519 
Q 1375 441 1716 441 
Q 2309 441 2620 675 
Q 2931 909 2931 1356 
Q 2931 1769 2642 2001 
Q 2353 2234 1838 2234 
L 1294 2234 
L 1294 2753 
L 1863 2753 
Q 2328 2753 2575 2939 
Q 2822 3125 2822 3475 
Q 2822 3834 2567 4026 
Q 2313 4219 1838 4219 
Q 1578 4219 1281 4162 
Q 984 4106 628 3988 
L 628 4550 
Q 988 4650 1302 4700 
Q 1616 4750 1894 4750 
Q 2613 4750 3031 4423 
Q 3450 4097 3450 3541 
Q 3450 3153 3228 2886 
Q 3006 2619 2597 2516 
z
" transform="scale(0.015625)"/>
       </defs>
       <use xlink:href="#DejaVuSans-33"/>
      </g>
     </g>
    </g>
   </g>
   <g id="line2d_24">
    <path d="M 405.892562 220.238586 
L 414.593638 220.144369 
L 416.043817 219.83781 
L 417.493997 218.886422 
L 418.944176 216.578299 
L 420.394355 212.214695 
L 421.844535 205.84235 
L 423.294714 198.875278 
L 424.744893 193.807378 
L 426.195073 192.891141 
L 427.645252 196.645922 
L 430.54561 210.402602 
L 431.99579 215.584057 
L 433.445969 218.470858 
L 434.896148 219.703757 
L 436.346328 220.110682 
L 439.246686 220.235346 
L 446.497583 220.1976 
L 447.947762 220.023689 
L 449.397942 219.3649 
L 450.848121 217.437338 
L 452.2983 213.058417 
L 453.74848 205.308102 
L 456.648838 183.071652 
L 458.099018 174.316812 
L 459.549197 171.832151 
L 460.999376 177.215912 
L 462.449556 188.51131 
L 463.899735 200.962417 
L 465.349914 210.127802 
L 466.800094 214.225589 
L 468.250273 213.850465 
L 469.700452 210.504773 
L 472.600811 200.919082 
L 474.05099 197.286443 
L 475.501169 195.486612 
L 476.951349 195.454185 
L 478.401528 196.612695 
L 479.851707 198.027767 
L 481.301887 198.34793 
L 482.752066 196.539466 
L 484.202245 193.322499 
L 485.652425 191.139515 
L 487.102604 191.938707 
L 488.552783 195.397671 
L 492.903321 208.476403 
L 494.353501 211.773717 
L 495.80368 212.829936 
L 497.253859 210.685991 
L 498.704039 205.790382 
L 500.154218 199.882384 
L 501.604397 194.891874 
L 503.054577 191.772958 
L 504.504756 190.297393 
L 505.954935 190.050211 
L 507.405115 191.508071 
L 508.855294 195.618646 
L 510.305473 202.1717 
L 511.755653 209.244357 
L 513.205832 214.550224 
L 514.656011 216.688835 
L 516.106191 214.750025 
L 517.55637 207.428135 
L 519.006549 193.785329 
L 521.906908 157.433189 
L 523.357087 144.828475 
L 524.807266 139.822419 
L 526.257446 141.283839 
L 527.707625 146.159005 
L 529.157804 150.305341 
L 530.607984 150.668379 
L 532.058163 148.326979 
L 533.508342 147.523017 
L 534.958522 151.03246 
L 536.408701 158.274102 
L 537.85888 167.767322 
L 539.30906 179.021486 
L 542.209418 203.088793 
L 543.659598 211.827705 
L 545.109777 216.914722 
L 546.559956 219.194505 
L 548.010136 219.97952 
L 549.460315 220.189066 
L 553.810853 220.238586 
L 636.471074 220.238586 
L 636.471074 220.238586 
" clip-path="url(#p85e2379520)" style="fill: none; stroke: #9467bd; stroke-width: 2; stroke-linecap: square"/>
   </g>
   <g id="line2d_25">
    <path d="M 405.892562 220.238586 
L 636.471074 220.238586 
L 636.471074 220.238586 
" clip-path="url(#p85e2379520)" style="fill: none; stroke: #1f77b4; stroke-width: 2; stroke-linecap: square"/>
   </g>
   <g id="line2d_26">
    <path d="M 405.892562 220.238586 
L 443.597224 220.273836 
L 445.047404 220.42474 
L 446.497583 221.016314 
L 447.947762 222.795495 
L 449.397942 226.905194 
L 450.848121 234.114003 
L 452.2983 243.519104 
L 453.74848 252.16818 
L 455.198659 256.66736 
L 456.648838 255.413054 
L 458.099018 249.269552 
L 460.999376 232.297767 
L 462.449556 226.101108 
L 463.899735 222.542307 
L 465.349914 220.960373 
L 466.800094 220.416697 
L 468.250273 220.272684 
L 472.600811 220.259806 
L 474.05099 220.346351 
L 475.501169 220.664807 
L 476.951349 221.55495 
L 478.401528 223.414636 
L 479.851707 226.263334 
L 481.301887 229.388477 
L 482.752066 231.878892 
L 484.202245 233.868849 
L 485.652425 236.729055 
L 487.102604 241.405076 
L 488.552783 246.987403 
L 490.002963 251.589938 
L 491.453142 254.182414 
L 492.903321 254.829555 
L 494.353501 253.61503 
L 495.80368 250.249339 
L 497.253859 244.739124 
L 500.154218 231.585713 
L 501.604397 227.042976 
L 503.054577 224.974886 
L 504.504756 225.074305 
L 505.954935 226.764851 
L 507.405115 229.812618 
L 508.855294 234.139844 
L 514.656011 254.256368 
L 516.106191 258.317007 
L 517.55637 259.620602 
L 519.006549 257.239086 
L 520.456729 253.2156 
L 521.906908 250.831463 
L 523.357087 250.600413 
L 524.807266 249.422455 
L 526.257446 244.460263 
L 529.157804 229.224607 
L 530.607984 225.20934 
L 532.058163 225.782505 
L 533.508342 231.612564 
L 534.958522 242.945633 
L 536.408701 258.528798 
L 537.85888 275.463344 
L 539.30906 290.764571 
L 540.759239 302.583668 
L 542.209418 310.028269 
L 543.659598 312.864077 
L 545.109777 311.694087 
L 546.559956 307.770119 
L 550.910494 292.227622 
L 552.360674 288.866409 
L 553.810853 286.657214 
L 555.261032 284.776941 
L 556.711212 282.2779 
L 558.161391 278.715445 
L 561.06175 270.053212 
L 562.511929 266.617857 
L 563.962108 265.020968 
L 565.412288 266.313826 
L 566.862467 271.139446 
L 568.312646 278.461188 
L 569.762826 284.598936 
L 571.213005 284.547577 
L 572.663184 275.821783 
L 575.563543 247.564271 
L 577.013722 239.332157 
L 578.463901 236.719503 
L 579.914081 236.754443 
L 581.36426 237.502322 
L 582.814439 239.90154 
L 584.264619 245.807372 
L 585.714798 255.085583 
L 587.164977 265.193024 
L 588.615157 273.179839 
L 590.065336 277.604457 
L 591.515515 278.745952 
L 592.965695 277.673501 
L 594.415874 275.479171 
L 595.866053 273.081414 
L 597.316233 271.125669 
L 598.766412 269.76187 
L 604.567129 265.508126 
L 606.017309 264.721091 
L 607.467488 263.424792 
L 608.917667 260.497817 
L 610.367847 255.156416 
L 611.818026 247.65949 
L 613.268205 239.303483 
L 614.718385 231.740186 
L 616.168564 226.144291 
L 617.618743 222.772997 
L 619.068923 221.133034 
L 620.519102 220.494551 
L 621.969281 220.297148 
L 626.319819 220.238586 
L 636.471074 220.238586 
L 636.471074 220.238586 
" clip-path="url(#p85e2379520)" style="fill: none; stroke: #d62728; stroke-width: 2; stroke-linecap: square"/>
   </g>
   <g id="line2d_27">
    <path d="M 405.892562 220.238586 
L 424.744893 220.348522 
L 426.195073 220.580864 
L 427.645252 221.076443 
L 429.095431 221.891709 
L 430.54561 223.006929 
L 431.99579 224.570454 
L 433.445969 227.220298 
L 434.896148 231.809937 
L 436.346328 238.415108 
L 437.796507 245.694922 
L 439.246686 251.654049 
L 440.696866 255.211864 
L 442.147045 256.971569 
L 443.597224 258.408732 
L 446.497583 262.065486 
L 447.947762 262.342106 
L 449.397942 260.015703 
L 450.848121 254.63777 
L 452.2983 246.72935 
L 453.74848 237.940625 
L 455.198659 230.504481 
L 456.648838 226.182612 
L 458.099018 225.715758 
L 459.549197 228.972159 
L 460.999376 235.056227 
L 462.449556 242.279403 
L 463.899735 248.618948 
L 465.349914 252.564273 
L 466.800094 253.514322 
L 468.250273 251.614642 
L 469.700452 247.632323 
L 471.150632 242.90382 
L 472.600811 238.93444 
L 474.05099 236.704484 
L 475.501169 236.227012 
L 478.401528 237.310636 
L 479.851707 237.122116 
L 481.301887 235.450618 
L 482.752066 232.091736 
L 484.202245 227.884371 
L 485.652425 224.205239 
L 487.102604 221.867589 
L 488.552783 220.763682 
L 490.002963 220.370499 
L 492.903321 220.242569 
L 504.504756 220.260365 
L 505.954935 220.349191 
L 507.405115 220.676038 
L 508.855294 221.586033 
L 510.305473 223.470945 
L 513.205832 229.02505 
L 514.656011 230.194954 
L 516.106191 229.02505 
L 519.006549 223.507106 
L 520.456729 221.769673 
L 521.906908 221.402346 
L 523.357087 222.591577 
L 524.807266 225.661 
L 527.707625 235.507796 
L 529.157804 238.866656 
L 530.607984 239.858201 
L 532.058163 239.664708 
L 533.508342 239.281865 
L 534.958522 237.97333 
L 536.408701 234.64144 
L 539.30906 225.306066 
L 540.759239 222.341497 
L 542.209418 220.919501 
L 543.659598 220.410748 
L 546.559956 220.243784 
L 555.261032 220.199621 
L 556.711212 220.033133 
L 558.161391 219.406568 
L 559.61157 217.577085 
L 561.06175 213.463591 
L 562.511929 206.369654 
L 565.412288 188.350703 
L 566.862467 182.98354 
L 569.762826 180.04011 
L 571.213005 172.852182 
L 572.663184 157.310606 
L 574.113363 138.280243 
L 575.563543 125.79181 
L 577.013722 127.7531 
L 578.463901 144.315011 
L 581.36426 191.055654 
L 582.814439 206.828619 
L 584.264619 215.258275 
L 585.714798 218.75653 
L 587.164977 219.88875 
L 588.615157 220.174198 
L 592.965695 220.238586 
L 617.618743 220.280592 
L 619.068923 220.406562 
L 620.519102 220.762311 
L 621.969281 221.527048 
L 623.41946 222.77275 
L 626.319819 225.798382 
L 627.769998 226.898248 
L 629.220178 227.366532 
L 630.670357 226.944371 
L 632.120536 225.586642 
L 633.570716 223.739391 
L 635.020895 222.119954 
L 636.471074 221.230211 
L 636.471074 221.230211 
" clip-path="url(#p85e2379520)" style="fill: none; stroke: #ff7f0e; stroke-width: 2; stroke-linecap: square"/>
   </g>
   <g id="LineCollection_1">
    <path d="M 521.877904 305.345369 
L 521.877904 147.278275 
" clip-path="url(#p85e2379520)" style="fill: none; stroke-dasharray: 7.4,3.2; stroke-dashoffset: 0; stroke: #000000; stroke-width: 2"/>
    <path d="M 536.379697 305.345369 
L 536.379697 147.278275 
" clip-path="url(#p85e2379520)" style="fill: none; stroke-dasharray: 7.4,3.2; stroke-dashoffset: 0; stroke: #000000; stroke-width: 2"/>
    <path d="M 565.383284 305.345369 
L 565.383284 147.278275 
" clip-path="url(#p85e2379520)" style="fill: none; stroke-dasharray: 7.4,3.2; stroke-dashoffset: 0; stroke: #000000; stroke-width: 2"/>
    <path d="M 623.390457 305.345369 
L 623.390457 147.278275 
" clip-path="url(#p85e2379520)" style="fill: none; stroke-dasharray: 7.4,3.2; stroke-dashoffset: 0; stroke: #000000; stroke-width: 2"/>
   </g>
   <g id="patch_8">
    <path d="M 394.363636 333.490909 
L 394.363636 86.4 
" style="fill: none; stroke: #000000; stroke-width: 0.8; stroke-linejoin: miter; stroke-linecap: square"/>
   </g>
   <g id="patch_9">
    <path d="M 648 333.490909 
L 648 86.4 
" style="fill: none; stroke: #000000; stroke-width: 0.8; stroke-linejoin: miter; stroke-linecap: square"/>
   </g>
   <g id="patch_10">
    <path d="M 394.363636 333.490909 
L 648 333.490909 
" style="fill: none; stroke: #000000; stroke-width: 0.8; stroke-linejoin: miter; stroke-linecap: square"/>
   </g>
   <g id="patch_11">
    <path d="M 394.363636 86.4 
L 648 86.4 
" style="fill: none; stroke: #000000; stroke-width: 0.8; stroke-linejoin: miter; stroke-linecap: square"/>
   </g>
   <g id="text_24">
    <!-- unit_137 -->
    <g transform="translate(495.105256 80.4)scale(0.12 -0.12)">
     <defs>
      <path id="DejaVuSans-75" d="M 544 1381 
L 544 3500 
L 1119 3500 
L 1119 1403 
Q 1119 906 1312 657 
Q 1506 409 1894 409 
Q 2359 409 2629 706 
Q 2900 1003 2900 1516 
L 2900 3500 
L 3475 3500 
L 3475 0 
L 2900 0 
L 2900 538 
Q 2691 219 2414 64 
Q 2138 -91 1772 -91 
Q 1169 -91 856 284 
Q 544 659 544 1381 
z
M 1991 3584 
L 1991 3584 
z
" transform="scale(0.015625)"/>
      <path id="DejaVuSans-6e" d="M 3513 2113 
L 3513 0 
L 2938 0 
L 2938 2094 
Q 2938 2591 2744 2837 
Q 2550 3084 2163 3084 
Q 1697 3084 1428 2787 
Q 1159 2491 1159 1978 
L 1159 0 
L 581 0 
L 581 3500 
L 1159 3500 
L 1159 2956 
Q 1366 3272 1645 3428 
Q 1925 3584 2291 3584 
Q 2894 3584 3203 3211 
Q 3513 2838 3513 2113 
z
" transform="scale(0.015625)"/>
      <path id="DejaVuSans-69" d="M 603 3500 
L 1178 3500 
L 1178 0 
L 603 0 
L 603 3500 
z
M 603 4863 
L 1178 4863 
L 1178 4134 
L 603 4134 
L 603 4863 
z
" transform="scale(0.015625)"/>
      <path id="DejaVuSans-74" d="M 1172 4494 
L 1172 3500 
L 2356 3500 
L 2356 3053 
L 1172 3053 
L 1172 1153 
Q 1172 725 1289 603 
Q 1406 481 1766 481 
L 2356 481 
L 2356 0 
L 1766 0 
Q 1100 0 847 248 
Q 594 497 594 1153 
L 594 3053 
L 172 3053 
L 172 3500 
L 594 3500 
L 594 4494 
L 1172 4494 
z
" transform="scale(0.015625)"/>
      <path id="DejaVuSans-5f" d="M 3263 -1063 
L 3263 -1509 
L -63 -1509 
L -63 -1063 
L 3263 -1063 
z
" transform="scale(0.015625)"/>
      <path id="DejaVuSans-37" d="M 525 4666 
L 3525 4666 
L 3525 4397 
L 1831 0 
L 1172 0 
L 2766 4134 
L 525 4134 
L 525 4666 
z
" transform="scale(0.015625)"/>
     </defs>
     <use xlink:href="#DejaVuSans-75"/>
     <use xlink:href="#DejaVuSans-6e" x="63.378906"/>
     <use xlink:href="#DejaVuSans-69" x="126.757812"/>
     <use xlink:href="#DejaVuSans-74" x="154.541016"/>
     <use xlink:href="#DejaVuSans-5f" x="193.75"/>
     <use xlink:href="#DejaVuSans-31" x="243.75"/>
     <use xlink:href="#DejaVuSans-33" x="307.373047"/>
     <use xlink:href="#DejaVuSans-37" x="370.996094"/>
    </g>
   </g>
  </g>
  <g id="axes_3">
   <g id="patch_12">
    <path d="M 90 630 
L 343.636364 630 
L 343.636364 382.909091 
L 90 382.909091 
z
" style="fill: #ffffff"/>
   </g>
   <g id="matplotlib.axis_5">
    <g id="xtick_12">
     <g id="line2d_28">
      <g>
       <use xlink:href="#m64212909c9" x="90" y="630" style="stroke: #000000; stroke-width: 0.8"/>
      </g>
     </g>
     <g id="text_25">
      <!-- 0.0 -->
      <g transform="translate(82.048438 644.598437)scale(0.1 -0.1)">
       <use xlink:href="#DejaVuSans-30"/>
       <use xlink:href="#DejaVuSans-2e" x="63.623047"/>
       <use xlink:href="#DejaVuSans-30" x="95.410156"/>
      </g>
     </g>
    </g>
    <g id="xtick_13">
     <g id="line2d_29">
      <g>
       <use xlink:href="#m64212909c9" x="140.727273" y="630" style="stroke: #000000; stroke-width: 0.8"/>
      </g>
     </g>
     <g id="text_26">
      <!-- 0.2 -->
      <g transform="translate(132.77571 644.598437)scale(0.1 -0.1)">
       <use xlink:href="#DejaVuSans-30"/>
       <use xlink:href="#DejaVuSans-2e" x="63.623047"/>
       <use xlink:href="#DejaVuSans-32" x="95.410156"/>
      </g>
     </g>
    </g>
    <g id="xtick_14">
     <g id="line2d_30">
      <g>
       <use xlink:href="#m64212909c9" x="191.454545" y="630" style="stroke: #000000; stroke-width: 0.8"/>
      </g>
     </g>
     <g id="text_27">
      <!-- 0.4 -->
      <g transform="translate(183.502983 644.598437)scale(0.1 -0.1)">
       <use xlink:href="#DejaVuSans-30"/>
       <use xlink:href="#DejaVuSans-2e" x="63.623047"/>
       <use xlink:href="#DejaVuSans-34" x="95.410156"/>
      </g>
     </g>
    </g>
    <g id="xtick_15">
     <g id="line2d_31">
      <g>
       <use xlink:href="#m64212909c9" x="242.181818" y="630" style="stroke: #000000; stroke-width: 0.8"/>
      </g>
     </g>
     <g id="text_28">
      <!-- 0.6 -->
      <g transform="translate(234.230256 644.598437)scale(0.1 -0.1)">
       <use xlink:href="#DejaVuSans-30"/>
       <use xlink:href="#DejaVuSans-2e" x="63.623047"/>
       <use xlink:href="#DejaVuSans-36" x="95.410156"/>
      </g>
     </g>
    </g>
    <g id="xtick_16">
     <g id="line2d_32">
      <g>
       <use xlink:href="#m64212909c9" x="292.909091" y="630" style="stroke: #000000; stroke-width: 0.8"/>
      </g>
     </g>
     <g id="text_29">
      <!-- 0.8 -->
      <g transform="translate(284.957528 644.598437)scale(0.1 -0.1)">
       <use xlink:href="#DejaVuSans-30"/>
       <use xlink:href="#DejaVuSans-2e" x="63.623047"/>
       <use xlink:href="#DejaVuSans-38" x="95.410156"/>
      </g>
     </g>
    </g>
    <g id="xtick_17">
     <g id="line2d_33">
      <g>
       <use xlink:href="#m64212909c9" x="343.636364" y="630" style="stroke: #000000; stroke-width: 0.8"/>
      </g>
     </g>
     <g id="text_30">
      <!-- 1.0 -->
      <g transform="translate(335.684801 644.598437)scale(0.1 -0.1)">
       <use xlink:href="#DejaVuSans-31"/>
       <use xlink:href="#DejaVuSans-2e" x="63.623047"/>
       <use xlink:href="#DejaVuSans-30" x="95.410156"/>
      </g>
     </g>
    </g>
   </g>
   <g id="matplotlib.axis_6">
    <g id="ytick_13">
     <g id="line2d_34">
      <g>
       <use xlink:href="#mee9ab2578e" x="90" y="630" style="stroke: #000000; stroke-width: 0.8"/>
      </g>
     </g>
     <g id="text_31">
      <!-- 0.0 -->
      <g transform="translate(67.096875 633.799219)scale(0.1 -0.1)">
       <use xlink:href="#DejaVuSans-30"/>
       <use xlink:href="#DejaVuSans-2e" x="63.623047"/>
       <use xlink:href="#DejaVuSans-30" x="95.410156"/>
      </g>
     </g>
    </g>
    <g id="ytick_14">
     <g id="line2d_35">
      <g>
       <use xlink:href="#mee9ab2578e" x="90" y="580.581818" style="stroke: #000000; stroke-width: 0.8"/>
      </g>
     </g>
     <g id="text_32">
      <!-- 0.2 -->
      <g transform="translate(67.096875 584.381037)scale(0.1 -0.1)">
       <use xlink:href="#DejaVuSans-30"/>
       <use xlink:href="#DejaVuSans-2e" x="63.623047"/>
       <use xlink:href="#DejaVuSans-32" x="95.410156"/>
      </g>
     </g>
    </g>
    <g id="ytick_15">
     <g id="line2d_36">
      <g>
       <use xlink:href="#mee9ab2578e" x="90" y="531.163636" style="stroke: #000000; stroke-width: 0.8"/>
      </g>
     </g>
     <g id="text_33">
      <!-- 0.4 -->
      <g transform="translate(67.096875 534.962855)scale(0.1 -0.1)">
       <use xlink:href="#DejaVuSans-30"/>
       <use xlink:href="#DejaVuSans-2e" x="63.623047"/>
       <use xlink:href="#DejaVuSans-34" x="95.410156"/>
      </g>
     </g>
    </g>
    <g id="ytick_16">
     <g id="line2d_37">
      <g>
       <use xlink:href="#mee9ab2578e" x="90" y="481.745455" style="stroke: #000000; stroke-width: 0.8"/>
      </g>
     </g>
     <g id="text_34">
      <!-- 0.6 -->
      <g transform="translate(67.096875 485.544673)scale(0.1 -0.1)">
       <use xlink:href="#DejaVuSans-30"/>
       <use xlink:href="#DejaVuSans-2e" x="63.623047"/>
       <use xlink:href="#DejaVuSans-36" x="95.410156"/>
      </g>
     </g>
    </g>
    <g id="ytick_17">
     <g id="line2d_38">
      <g>
       <use xlink:href="#mee9ab2578e" x="90" y="432.327273" style="stroke: #000000; stroke-width: 0.8"/>
      </g>
     </g>
     <g id="text_35">
      <!-- 0.8 -->
      <g transform="translate(67.096875 436.126491)scale(0.1 -0.1)">
       <use xlink:href="#DejaVuSans-30"/>
       <use xlink:href="#DejaVuSans-2e" x="63.623047"/>
       <use xlink:href="#DejaVuSans-38" x="95.410156"/>
      </g>
     </g>
    </g>
    <g id="ytick_18">
     <g id="line2d_39">
      <g>
       <use xlink:href="#mee9ab2578e" x="90" y="382.909091" style="stroke: #000000; stroke-width: 0.8"/>
      </g>
     </g>
     <g id="text_36">
      <!-- 1.0 -->
      <g transform="translate(67.096875 386.70831)scale(0.1 -0.1)">
       <use xlink:href="#DejaVuSans-31"/>
       <use xlink:href="#DejaVuSans-2e" x="63.623047"/>
       <use xlink:href="#DejaVuSans-30" x="95.410156"/>
      </g>
     </g>
    </g>
   </g>
   <g id="patch_13">
    <path d="M 90 630 
L 90 382.909091 
" style="fill: none; stroke: #000000; stroke-width: 0.8; stroke-linejoin: miter; stroke-linecap: square"/>
   </g>
   <g id="patch_14">
    <path d="M 343.636364 630 
L 343.636364 382.909091 
" style="fill: none; stroke: #000000; stroke-width: 0.8; stroke-linejoin: miter; stroke-linecap: square"/>
   </g>
   <g id="patch_15">
    <path d="M 90 630 
L 343.636364 630 
" style="fill: none; stroke: #000000; stroke-width: 0.8; stroke-linejoin: miter; stroke-linecap: square"/>
   </g>
   <g id="patch_16">
    <path d="M 90 382.909091 
L 343.636364 382.909091 
" style="fill: none; stroke: #000000; stroke-width: 0.8; stroke-linejoin: miter; stroke-linecap: square"/>
   </g>
  </g>
  <g id="axes_4">
   <g id="patch_17">
    <path d="M 394.363636 630 
L 648 630 
L 648 382.909091 
L 394.363636 382.909091 
z
" style="fill: #ffffff"/>
   </g>
   <g id="matplotlib.axis_7">
    <g id="xtick_18">
     <g id="line2d_40">
      <g>
       <use xlink:href="#m64212909c9" x="405.863558" y="630" style="stroke: #000000; stroke-width: 0.8"/>
      </g>
     </g>
     <g id="text_37">
      <!-- 0 -->
      <g transform="translate(402.682308 644.598437)scale(0.1 -0.1)">
       <use xlink:href="#DejaVuSans-30"/>
      </g>
     </g>
    </g>
    <g id="xtick_19">
     <g id="line2d_41">
      <g>
       <use xlink:href="#m64212909c9" x="463.870731" y="630" style="stroke: #000000; stroke-width: 0.8"/>
      </g>
     </g>
     <g id="text_38">
      <!-- 2000 -->
      <g transform="translate(451.145731 644.598437)scale(0.1 -0.1)">
       <use xlink:href="#DejaVuSans-32"/>
       <use xlink:href="#DejaVuSans-30" x="63.623047"/>
       <use xlink:href="#DejaVuSans-30" x="127.246094"/>
       <use xlink:href="#DejaVuSans-30" x="190.869141"/>
      </g>
     </g>
    </g>
    <g id="xtick_20">
     <g id="line2d_42">
      <g>
       <use xlink:href="#m64212909c9" x="521.877904" y="630" style="stroke: #000000; stroke-width: 0.8"/>
      </g>
     </g>
     <g id="text_39">
      <!-- 4000 -->
      <g transform="translate(509.152904 644.598437)scale(0.1 -0.1)">
       <use xlink:href="#DejaVuSans-34"/>
       <use xlink:href="#DejaVuSans-30" x="63.623047"/>
       <use xlink:href="#DejaVuSans-30" x="127.246094"/>
       <use xlink:href="#DejaVuSans-30" x="190.869141"/>
      </g>
     </g>
    </g>
    <g id="xtick_21">
     <g id="line2d_43">
      <g>
       <use xlink:href="#m64212909c9" x="579.885077" y="630" style="stroke: #000000; stroke-width: 0.8"/>
      </g>
     </g>
     <g id="text_40">
      <!-- 6000 -->
      <g transform="translate(567.160077 644.598437)scale(0.1 -0.1)">
       <use xlink:href="#DejaVuSans-36"/>
       <use xlink:href="#DejaVuSans-30" x="63.623047"/>
       <use xlink:href="#DejaVuSans-30" x="127.246094"/>
       <use xlink:href="#DejaVuSans-30" x="190.869141"/>
      </g>
     </g>
    </g>
    <g id="xtick_22">
     <g id="line2d_44">
      <g>
       <use xlink:href="#m64212909c9" x="637.89225" y="630" style="stroke: #000000; stroke-width: 0.8"/>
      </g>
     </g>
     <g id="text_41">
      <!-- 8000 -->
      <g transform="translate(625.16725 644.598437)scale(0.1 -0.1)">
       <use xlink:href="#DejaVuSans-38"/>
       <use xlink:href="#DejaVuSans-30" x="63.623047"/>
       <use xlink:href="#DejaVuSans-30" x="127.246094"/>
       <use xlink:href="#DejaVuSans-30" x="190.869141"/>
      </g>
     </g>
    </g>
   </g>
   <g id="matplotlib.axis_8">
    <g id="ytick_19">
     <g id="line2d_45">
      <g>
       <use xlink:href="#mee9ab2578e" x="394.363636" y="630" style="stroke: #000000; stroke-width: 0.8"/>
      </g>
     </g>
     <g id="text_42">
      <!-- −2 -->
      <g transform="translate(372.621449 633.799219)scale(0.1 -0.1)">
       <use xlink:href="#DejaVuSans-2212"/>
       <use xlink:href="#DejaVuSans-32" x="83.789062"/>
      </g>
     </g>
    </g>
    <g id="ytick_20">
     <g id="line2d_46">
      <g>
       <use xlink:href="#mee9ab2578e" x="394.363636" y="596.45346" style="stroke: #000000; stroke-width: 0.8"/>
      </g>
     </g>
     <g id="text_43">
      <!-- −1 -->
      <g transform="translate(372.621449 600.252679)scale(0.1 -0.1)">
       <use xlink:href="#DejaVuSans-2212"/>
       <use xlink:href="#DejaVuSans-31" x="83.789062"/>
      </g>
     </g>
    </g>
    <g id="ytick_21">
     <g id="line2d_47">
      <g>
       <use xlink:href="#mee9ab2578e" x="394.363636" y="562.90692" style="stroke: #000000; stroke-width: 0.8"/>
      </g>
     </g>
     <g id="text_44">
      <!-- 0 -->
      <g transform="translate(381.001136 566.706139)scale(0.1 -0.1)">
       <use xlink:href="#DejaVuSans-30"/>
      </g>
     </g>
    </g>
    <g id="ytick_22">
     <g id="line2d_48">
      <g>
       <use xlink:href="#mee9ab2578e" x="394.363636" y="529.36038" style="stroke: #000000; stroke-width: 0.8"/>
      </g>
     </g>
     <g id="text_45">
      <!-- 1 -->
      <g transform="translate(381.001136 533.159599)scale(0.1 -0.1)">
       <use xlink:href="#DejaVuSans-31"/>
      </g>
     </g>
    </g>
    <g id="ytick_23">
     <g id="line2d_49">
      <g>
       <use xlink:href="#mee9ab2578e" x="394.363636" y="495.81384" style="stroke: #000000; stroke-width: 0.8"/>
      </g>
     </g>
     <g id="text_46">
      <!-- 2 -->
      <g transform="translate(381.001136 499.613059)scale(0.1 -0.1)">
       <use xlink:href="#DejaVuSans-32"/>
      </g>
     </g>
    </g>
    <g id="ytick_24">
     <g id="line2d_50">
      <g>
       <use xlink:href="#mee9ab2578e" x="394.363636" y="462.2673" style="stroke: #000000; stroke-width: 0.8"/>
      </g>
     </g>
     <g id="text_47">
      <!-- 3 -->
      <g transform="translate(381.001136 466.066519)scale(0.1 -0.1)">
       <use xlink:href="#DejaVuSans-33"/>
      </g>
     </g>
    </g>
    <g id="ytick_25">
     <g id="line2d_51">
      <g>
       <use xlink:href="#mee9ab2578e" x="394.363636" y="428.72076" style="stroke: #000000; stroke-width: 0.8"/>
      </g>
     </g>
     <g id="text_48">
      <!-- 4 -->
      <g transform="translate(381.001136 432.519979)scale(0.1 -0.1)">
       <use xlink:href="#DejaVuSans-34"/>
      </g>
     </g>
    </g>
    <g id="ytick_26">
     <g id="line2d_52">
      <g>
       <use xlink:href="#mee9ab2578e" x="394.363636" y="395.17422" style="stroke: #000000; stroke-width: 0.8"/>
      </g>
     </g>
     <g id="text_49">
      <!-- 5 -->
      <g transform="translate(381.001136 398.973439)scale(0.1 -0.1)">
       <defs>
        <path id="DejaVuSans-35" d="M 691 4666 
L 3169 4666 
L 3169 4134 
L 1269 4134 
L 1269 2991 
Q 1406 3038 1543 3061 
Q 1681 3084 1819 3084 
Q 2600 3084 3056 2656 
Q 3513 2228 3513 1497 
Q 3513 744 3044 326 
Q 2575 -91 1722 -91 
Q 1428 -91 1123 -41 
Q 819 9 494 109 
L 494 744 
Q 775 591 1075 516 
Q 1375 441 1709 441 
Q 2250 441 2565 725 
Q 2881 1009 2881 1497 
Q 2881 1984 2565 2268 
Q 2250 2553 1709 2553 
Q 1456 2553 1204 2497 
Q 953 2441 691 2322 
L 691 4666 
z
" transform="scale(0.015625)"/>
       </defs>
       <use xlink:href="#DejaVuSans-35"/>
      </g>
     </g>
    </g>
   </g>
   <g id="line2d_53">
    <path d="M 405.892562 562.90692 
L 417.493997 562.911435 
L 418.944176 563.074183 
L 420.394355 565.347806 
L 421.844535 579.337438 
L 423.294714 623.18509 
L 424.986499 721 
M 428.674606 721 
L 429.095431 686.01764 
L 430.54561 593.104192 
L 431.99579 572.972214 
L 434.896148 562.904684 
L 436.346328 559.686733 
L 437.796507 566.663866 
L 439.246686 590.661562 
L 440.696866 604.855717 
L 442.147045 591.68053 
L 443.597224 572.28215 
L 445.047404 572.003495 
L 446.497583 590.879862 
L 447.947762 606.962441 
L 449.397942 613.017037 
L 450.848121 619.830992 
L 452.2983 676.730697 
L 452.857157 721 
M 462.79273 721 
L 463.899735 612.780581 
L 465.349914 566.589088 
L 466.800094 551.605644 
L 468.250273 568.751911 
L 470.979184 721 
M 502.055457 721 
L 503.054577 646.398314 
L 504.504756 609.147234 
L 505.954935 628.188035 
L 507.405115 685.919619 
L 508.798223 721 
M 509.048256 721 
L 510.305473 711.636698 
L 513.205832 678.720711 
L 514.656011 644.262557 
L 516.106191 648.442703 
L 517.55637 682.820432 
L 519.006549 683.01179 
L 520.200572 721 
M 549.104684 721 
L 549.460315 663.695404 
L 550.910494 592.290694 
L 552.360674 614.006149 
L 553.810853 645.762082 
L 555.261032 650.186969 
L 556.711212 644.116574 
L 558.161391 645.733341 
L 559.61157 648.301808 
L 561.06175 642.740132 
L 562.511929 600.340101 
L 563.962108 514.162205 
L 565.412288 435.834515 
L 566.862467 386.633294 
L 568.312646 382.909091 
L 569.762826 458.577002 
L 571.213005 509.008819 
L 572.663184 519.281357 
L 574.113363 530.531371 
L 575.563543 583.778649 
L 577.013722 629.364377 
L 579.914081 591.591871 
L 581.36426 579.324187 
L 582.814439 569.338849 
L 584.264619 570.575488 
L 585.714798 549.842506 
L 587.164977 486.561198 
L 588.615157 445.25544 
L 590.065336 454.256604 
L 591.515515 457.028303 
L 592.965695 433.405516 
L 594.415874 423.616044 
L 595.866053 428.515984 
L 597.316233 412.956982 
L 598.766412 414.10462 
L 600.216591 467.458388 
L 601.666771 528.977369 
L 603.11695 559.068641 
L 604.567129 554.166698 
L 606.017309 532.879726 
L 607.467488 529.480306 
L 608.917667 532.968194 
L 610.367847 516.037129 
L 611.818026 506.56093 
L 614.718385 556.403552 
L 616.168564 562.380872 
L 617.618743 562.891107 
L 621.969281 562.891676 
L 623.41946 562.721211 
L 626.319819 561.490436 
L 627.769998 561.535314 
L 629.220178 560.304162 
L 630.670357 558.906636 
L 632.120536 560.489411 
L 633.570716 562.367604 
L 635.020895 562.86265 
L 636.471074 562.905583 
L 636.471074 562.905583 
" clip-path="url(#p3500eea0ff)" style="fill: none; stroke: #1f77b4; stroke-width: 1.5; stroke-linecap: square"/>
   </g>
   <g id="patch_18">
    <path d="M 394.363636 630 
L 394.363636 382.909091 
" style="fill: none; stroke: #000000; stroke-width: 0.8; stroke-linejoin: miter; stroke-linecap: square"/>
   </g>
   <g id="patch_19">
    <path d="M 648 630 
L 648 382.909091 
" style="fill: none; stroke: #000000; stroke-width: 0.8; stroke-linejoin: miter; stroke-linecap: square"/>
   </g>
   <g id="patch_20">
    <path d="M 394.363636 630 
L 648 630 
" style="fill: none; stroke: #000000; stroke-width: 0.8; stroke-linejoin: miter; stroke-linecap: square"/>
   </g>
   <g id="patch_21">
    <path d="M 394.363636 382.909091 
L 648 382.909091 
" style="fill: none; stroke: #000000; stroke-width: 0.8; stroke-linejoin: miter; stroke-linecap: square"/>
   </g>
   <g id="text_50">
    <!-- explained variance -->
    <g transform="translate(464.181818 376.909091)scale(0.12 -0.12)">
     <defs>
      <path id="DejaVuSans-65" d="M 3597 1894 
L 3597 1613 
L 953 1613 
Q 991 1019 1311 708 
Q 1631 397 2203 397 
Q 2534 397 2845 478 
Q 3156 559 3463 722 
L 3463 178 
Q 3153 47 2828 -22 
Q 2503 -91 2169 -91 
Q 1331 -91 842 396 
Q 353 884 353 1716 
Q 353 2575 817 3079 
Q 1281 3584 2069 3584 
Q 2775 3584 3186 3129 
Q 3597 2675 3597 1894 
z
M 3022 2063 
Q 3016 2534 2758 2815 
Q 2500 3097 2075 3097 
Q 1594 3097 1305 2825 
Q 1016 2553 972 2059 
L 3022 2063 
z
" transform="scale(0.015625)"/>
      <path id="DejaVuSans-78" d="M 3513 3500 
L 2247 1797 
L 3578 0 
L 2900 0 
L 1881 1375 
L 863 0 
L 184 0 
L 1544 1831 
L 300 3500 
L 978 3500 
L 1906 2253 
L 2834 3500 
L 3513 3500 
z
" transform="scale(0.015625)"/>
      <path id="DejaVuSans-70" d="M 1159 525 
L 1159 -1331 
L 581 -1331 
L 581 3500 
L 1159 3500 
L 1159 2969 
Q 1341 3281 1617 3432 
Q 1894 3584 2278 3584 
Q 2916 3584 3314 3078 
Q 3713 2572 3713 1747 
Q 3713 922 3314 415 
Q 2916 -91 2278 -91 
Q 1894 -91 1617 61 
Q 1341 213 1159 525 
z
M 3116 1747 
Q 3116 2381 2855 2742 
Q 2594 3103 2138 3103 
Q 1681 3103 1420 2742 
Q 1159 2381 1159 1747 
Q 1159 1113 1420 752 
Q 1681 391 2138 391 
Q 2594 391 2855 752 
Q 3116 1113 3116 1747 
z
" transform="scale(0.015625)"/>
      <path id="DejaVuSans-6c" d="M 603 4863 
L 1178 4863 
L 1178 0 
L 603 0 
L 603 4863 
z
" transform="scale(0.015625)"/>
      <path id="DejaVuSans-61" d="M 2194 1759 
Q 1497 1759 1228 1600 
Q 959 1441 959 1056 
Q 959 750 1161 570 
Q 1363 391 1709 391 
Q 2188 391 2477 730 
Q 2766 1069 2766 1631 
L 2766 1759 
L 2194 1759 
z
M 3341 1997 
L 3341 0 
L 2766 0 
L 2766 531 
Q 2569 213 2275 61 
Q 1981 -91 1556 -91 
Q 1019 -91 701 211 
Q 384 513 384 1019 
Q 384 1609 779 1909 
Q 1175 2209 1959 2209 
L 2766 2209 
L 2766 2266 
Q 2766 2663 2505 2880 
Q 2244 3097 1772 3097 
Q 1472 3097 1187 3025 
Q 903 2953 641 2809 
L 641 3341 
Q 956 3463 1253 3523 
Q 1550 3584 1831 3584 
Q 2591 3584 2966 3190 
Q 3341 2797 3341 1997 
z
" transform="scale(0.015625)"/>
      <path id="DejaVuSans-64" d="M 2906 2969 
L 2906 4863 
L 3481 4863 
L 3481 0 
L 2906 0 
L 2906 525 
Q 2725 213 2448 61 
Q 2172 -91 1784 -91 
Q 1150 -91 751 415 
Q 353 922 353 1747 
Q 353 2572 751 3078 
Q 1150 3584 1784 3584 
Q 2172 3584 2448 3432 
Q 2725 3281 2906 2969 
z
M 947 1747 
Q 947 1113 1208 752 
Q 1469 391 1925 391 
Q 2381 391 2643 752 
Q 2906 1113 2906 1747 
Q 2906 2381 2643 2742 
Q 2381 3103 1925 3103 
Q 1469 3103 1208 2742 
Q 947 2381 947 1747 
z
" transform="scale(0.015625)"/>
      <path id="DejaVuSans-20" transform="scale(0.015625)"/>
      <path id="DejaVuSans-76" d="M 191 3500 
L 800 3500 
L 1894 563 
L 2988 3500 
L 3597 3500 
L 2284 0 
L 1503 0 
L 191 3500 
z
" transform="scale(0.015625)"/>
      <path id="DejaVuSans-72" d="M 2631 2963 
Q 2534 3019 2420 3045 
Q 2306 3072 2169 3072 
Q 1681 3072 1420 2755 
Q 1159 2438 1159 1844 
L 1159 0 
L 581 0 
L 581 3500 
L 1159 3500 
L 1159 2956 
Q 1341 3275 1631 3429 
Q 1922 3584 2338 3584 
Q 2397 3584 2469 3576 
Q 2541 3569 2628 3553 
L 2631 2963 
z
" transform="scale(0.015625)"/>
      <path id="DejaVuSans-63" d="M 3122 3366 
L 3122 2828 
Q 2878 2963 2633 3030 
Q 2388 3097 2138 3097 
Q 1578 3097 1268 2742 
Q 959 2388 959 1747 
Q 959 1106 1268 751 
Q 1578 397 2138 397 
Q 2388 397 2633 464 
Q 2878 531 3122 666 
L 3122 134 
Q 2881 22 2623 -34 
Q 2366 -91 2075 -91 
Q 1284 -91 818 406 
Q 353 903 353 1747 
Q 353 2603 823 3093 
Q 1294 3584 2113 3584 
Q 2378 3584 2631 3529 
Q 2884 3475 3122 3366 
z
" transform="scale(0.015625)"/>
     </defs>
     <use xlink:href="#DejaVuSans-65"/>
     <use xlink:href="#DejaVuSans-78" x="59.773438"/>
     <use xlink:href="#DejaVuSans-70" x="118.953125"/>
     <use xlink:href="#DejaVuSans-6c" x="182.429688"/>
     <use xlink:href="#DejaVuSans-61" x="210.212891"/>
     <use xlink:href="#DejaVuSans-69" x="271.492188"/>
     <use xlink:href="#DejaVuSans-6e" x="299.275391"/>
     <use xlink:href="#DejaVuSans-65" x="362.654297"/>
     <use xlink:href="#DejaVuSans-64" x="424.177734"/>
     <use xlink:href="#DejaVuSans-20" x="487.654297"/>
     <use xlink:href="#DejaVuSans-76" x="519.441406"/>
     <use xlink:href="#DejaVuSans-61" x="578.621094"/>
     <use xlink:href="#DejaVuSans-72" x="639.900391"/>
     <use xlink:href="#DejaVuSans-69" x="681.013672"/>
     <use xlink:href="#DejaVuSans-61" x="708.796875"/>
     <use xlink:href="#DejaVuSans-6e" x="770.076172"/>
     <use xlink:href="#DejaVuSans-63" x="833.455078"/>
     <use xlink:href="#DejaVuSans-65" x="888.435547"/>
    </g>
   </g>
  </g>
 </g>
 <defs>
  <clipPath id="p85e2379520">
   <rect x="394.363636" y="86.4" width="253.636364" height="247.090909"/>
  </clipPath>
  <clipPath id="p3500eea0ff">
   <rect x="394.363636" y="382.909091" width="253.636364" height="247.090909"/>
  </clipPath>
 </defs>
</svg>
