<?xml version="1.0" encoding="utf-8" standalone="no"?>
<!DOCTYPE svg PUBLIC "-//W3C//DTD SVG 1.1//EN"
  "http://www.w3.org/Graphics/SVG/1.1/DTD/svg11.dtd">
<svg xmlns:xlink="http://www.w3.org/1999/xlink" width="720pt" height="720pt" viewBox="0 0 720 720" xmlns="http://www.w3.org/2000/svg" version="1.1">
 <metadata>
  <rdf:RDF xmlns:dc="http://purl.org/dc/elements/1.1/" xmlns:cc="http://creativecommons.org/ns#" xmlns:rdf="http://www.w3.org/1999/02/22-rdf-syntax-ns#">
   <cc:Work>
    <dc:type rdf:resource="http://purl.org/dc/dcmitype/StillImage"/>
    <dc:date>2023-12-19T18:24:48.635229</dc:date>
    <dc:format>image/svg+xml</dc:format>
    <dc:creator>
     <cc:Agent>
      <dc:title>Matplotlib v3.5.2, https://matplotlib.org/</dc:title>
     </cc:Agent>
    </dc:creator>
   </cc:Work>
  </rdf:RDF>
 </metadata>
 <defs>
  <style type="text/css">*{stroke-linejoin: round; stroke-linecap: butt}</style>
 </defs>
 <g id="figure_1">
  <g id="patch_1">
   <path d="M 0 720 
L 720 720 
L 720 0 
L 0 0 
z
" style="fill: #ffffff"/>
  </g>
  <g id="axes_1">
   <g id="patch_2">
    <path d="M 90 333.490909 
L 343.636364 333.490909 
L 343.636364 86.4 
L 90 86.4 
z
" style="fill: #ffffff"/>
   </g>
   <g id="matplotlib.axis_1">
    <g id="xtick_1">
     <g id="line2d_1">
      <defs>
       <path id="mfe5a80d26a" d="M 0 0 
L 0 3.5 
" style="stroke: #000000; stroke-width: 0.8"/>
      </defs>
      <g>
       <use xlink:href="#mfe5a80d26a" x="90" y="333.490909" style="stroke: #000000; stroke-width: 0.8"/>
      </g>
     </g>
     <g id="text_1">
      <!-- 0.0 -->
      <g transform="translate(82.048438 348.089347)scale(0.1 -0.1)">
       <defs>
        <path id="DejaVuSans-30" d="M 2034 4250 
Q 1547 4250 1301 3770 
Q 1056 3291 1056 2328 
Q 1056 1369 1301 889 
Q 1547 409 2034 409 
Q 2525 409 2770 889 
Q 3016 1369 3016 2328 
Q 3016 3291 2770 3770 
Q 2525 4250 2034 4250 
z
M 2034 4750 
Q 2819 4750 3233 4129 
Q 3647 3509 3647 2328 
Q 3647 1150 3233 529 
Q 2819 -91 2034 -91 
Q 1250 -91 836 529 
Q 422 1150 422 2328 
Q 422 3509 836 4129 
Q 1250 4750 2034 4750 
z
" transform="scale(0.015625)"/>
        <path id="DejaVuSans-2e" d="M 684 794 
L 1344 794 
L 1344 0 
L 684 0 
L 684 794 
z
" transform="scale(0.015625)"/>
       </defs>
       <use xlink:href="#DejaVuSans-30"/>
       <use xlink:href="#DejaVuSans-2e" x="63.623047"/>
       <use xlink:href="#DejaVuSans-30" x="95.410156"/>
      </g>
     </g>
    </g>
    <g id="xtick_2">
     <g id="line2d_2">
      <g>
       <use xlink:href="#mfe5a80d26a" x="140.727273" y="333.490909" style="stroke: #000000; stroke-width: 0.8"/>
      </g>
     </g>
     <g id="text_2">
      <!-- 0.2 -->
      <g transform="translate(132.77571 348.089347)scale(0.1 -0.1)">
       <defs>
        <path id="DejaVuSans-32" d="M 1228 531 
L 3431 531 
L 3431 0 
L 469 0 
L 469 531 
Q 828 903 1448 1529 
Q 2069 2156 2228 2338 
Q 2531 2678 2651 2914 
Q 2772 3150 2772 3378 
Q 2772 3750 2511 3984 
Q 2250 4219 1831 4219 
Q 1534 4219 1204 4116 
Q 875 4013 500 3803 
L 500 4441 
Q 881 4594 1212 4672 
Q 1544 4750 1819 4750 
Q 2544 4750 2975 4387 
Q 3406 4025 3406 3419 
Q 3406 3131 3298 2873 
Q 3191 2616 2906 2266 
Q 2828 2175 2409 1742 
Q 1991 1309 1228 531 
z
" transform="scale(0.015625)"/>
       </defs>
       <use xlink:href="#DejaVuSans-30"/>
       <use xlink:href="#DejaVuSans-2e" x="63.623047"/>
       <use xlink:href="#DejaVuSans-32" x="95.410156"/>
      </g>
     </g>
    </g>
    <g id="xtick_3">
     <g id="line2d_3">
      <g>
       <use xlink:href="#mfe5a80d26a" x="191.454545" y="333.490909" style="stroke: #000000; stroke-width: 0.8"/>
      </g>
     </g>
     <g id="text_3">
      <!-- 0.4 -->
      <g transform="translate(183.502983 348.089347)scale(0.1 -0.1)">
       <defs>
        <path id="DejaVuSans-34" d="M 2419 4116 
L 825 1625 
L 2419 1625 
L 2419 4116 
z
M 2253 4666 
L 3047 4666 
L 3047 1625 
L 3713 1625 
L 3713 1100 
L 3047 1100 
L 3047 0 
L 2419 0 
L 2419 1100 
L 313 1100 
L 313 1709 
L 2253 4666 
z
" transform="scale(0.015625)"/>
       </defs>
       <use xlink:href="#DejaVuSans-30"/>
       <use xlink:href="#DejaVuSans-2e" x="63.623047"/>
       <use xlink:href="#DejaVuSans-34" x="95.410156"/>
      </g>
     </g>
    </g>
    <g id="xtick_4">
     <g id="line2d_4">
      <g>
       <use xlink:href="#mfe5a80d26a" x="242.181818" y="333.490909" style="stroke: #000000; stroke-width: 0.8"/>
      </g>
     </g>
     <g id="text_4">
      <!-- 0.6 -->
      <g transform="translate(234.230256 348.089347)scale(0.1 -0.1)">
       <defs>
        <path id="DejaVuSans-36" d="M 2113 2584 
Q 1688 2584 1439 2293 
Q 1191 2003 1191 1497 
Q 1191 994 1439 701 
Q 1688 409 2113 409 
Q 2538 409 2786 701 
Q 3034 994 3034 1497 
Q 3034 2003 2786 2293 
Q 2538 2584 2113 2584 
z
M 3366 4563 
L 3366 3988 
Q 3128 4100 2886 4159 
Q 2644 4219 2406 4219 
Q 1781 4219 1451 3797 
Q 1122 3375 1075 2522 
Q 1259 2794 1537 2939 
Q 1816 3084 2150 3084 
Q 2853 3084 3261 2657 
Q 3669 2231 3669 1497 
Q 3669 778 3244 343 
Q 2819 -91 2113 -91 
Q 1303 -91 875 529 
Q 447 1150 447 2328 
Q 447 3434 972 4092 
Q 1497 4750 2381 4750 
Q 2619 4750 2861 4703 
Q 3103 4656 3366 4563 
z
" transform="scale(0.015625)"/>
       </defs>
       <use xlink:href="#DejaVuSans-30"/>
       <use xlink:href="#DejaVuSans-2e" x="63.623047"/>
       <use xlink:href="#DejaVuSans-36" x="95.410156"/>
      </g>
     </g>
    </g>
    <g id="xtick_5">
     <g id="line2d_5">
      <g>
       <use xlink:href="#mfe5a80d26a" x="292.909091" y="333.490909" style="stroke: #000000; stroke-width: 0.8"/>
      </g>
     </g>
     <g id="text_5">
      <!-- 0.8 -->
      <g transform="translate(284.957528 348.089347)scale(0.1 -0.1)">
       <defs>
        <path id="DejaVuSans-38" d="M 2034 2216 
Q 1584 2216 1326 1975 
Q 1069 1734 1069 1313 
Q 1069 891 1326 650 
Q 1584 409 2034 409 
Q 2484 409 2743 651 
Q 3003 894 3003 1313 
Q 3003 1734 2745 1975 
Q 2488 2216 2034 2216 
z
M 1403 2484 
Q 997 2584 770 2862 
Q 544 3141 544 3541 
Q 544 4100 942 4425 
Q 1341 4750 2034 4750 
Q 2731 4750 3128 4425 
Q 3525 4100 3525 3541 
Q 3525 3141 3298 2862 
Q 3072 2584 2669 2484 
Q 3125 2378 3379 2068 
Q 3634 1759 3634 1313 
Q 3634 634 3220 271 
Q 2806 -91 2034 -91 
Q 1263 -91 848 271 
Q 434 634 434 1313 
Q 434 1759 690 2068 
Q 947 2378 1403 2484 
z
M 1172 3481 
Q 1172 3119 1398 2916 
Q 1625 2713 2034 2713 
Q 2441 2713 2670 2916 
Q 2900 3119 2900 3481 
Q 2900 3844 2670 4047 
Q 2441 4250 2034 4250 
Q 1625 4250 1398 4047 
Q 1172 3844 1172 3481 
z
" transform="scale(0.015625)"/>
       </defs>
       <use xlink:href="#DejaVuSans-30"/>
       <use xlink:href="#DejaVuSans-2e" x="63.623047"/>
       <use xlink:href="#DejaVuSans-38" x="95.410156"/>
      </g>
     </g>
    </g>
    <g id="xtick_6">
     <g id="line2d_6">
      <g>
       <use xlink:href="#mfe5a80d26a" x="343.636364" y="333.490909" style="stroke: #000000; stroke-width: 0.8"/>
      </g>
     </g>
     <g id="text_6">
      <!-- 1.0 -->
      <g transform="translate(335.684801 348.089347)scale(0.1 -0.1)">
       <defs>
        <path id="DejaVuSans-31" d="M 794 531 
L 1825 531 
L 1825 4091 
L 703 3866 
L 703 4441 
L 1819 4666 
L 2450 4666 
L 2450 531 
L 3481 531 
L 3481 0 
L 794 0 
L 794 531 
z
" transform="scale(0.015625)"/>
       </defs>
       <use xlink:href="#DejaVuSans-31"/>
       <use xlink:href="#DejaVuSans-2e" x="63.623047"/>
       <use xlink:href="#DejaVuSans-30" x="95.410156"/>
      </g>
     </g>
    </g>
   </g>
   <g id="matplotlib.axis_2">
    <g id="ytick_1">
     <g id="line2d_7">
      <defs>
       <path id="m57f1f6c7ca" d="M 0 0 
L -3.5 0 
" style="stroke: #000000; stroke-width: 0.8"/>
      </defs>
      <g>
       <use xlink:href="#m57f1f6c7ca" x="90" y="333.490909" style="stroke: #000000; stroke-width: 0.8"/>
      </g>
     </g>
     <g id="text_7">
      <!-- 0.0 -->
      <g transform="translate(67.096875 337.290128)scale(0.1 -0.1)">
       <use xlink:href="#DejaVuSans-30"/>
       <use xlink:href="#DejaVuSans-2e" x="63.623047"/>
       <use xlink:href="#DejaVuSans-30" x="95.410156"/>
      </g>
     </g>
    </g>
    <g id="ytick_2">
     <g id="line2d_8">
      <g>
       <use xlink:href="#m57f1f6c7ca" x="90" y="284.072727" style="stroke: #000000; stroke-width: 0.8"/>
      </g>
     </g>
     <g id="text_8">
      <!-- 0.2 -->
      <g transform="translate(67.096875 287.871946)scale(0.1 -0.1)">
       <use xlink:href="#DejaVuSans-30"/>
       <use xlink:href="#DejaVuSans-2e" x="63.623047"/>
       <use xlink:href="#DejaVuSans-32" x="95.410156"/>
      </g>
     </g>
    </g>
    <g id="ytick_3">
     <g id="line2d_9">
      <g>
       <use xlink:href="#m57f1f6c7ca" x="90" y="234.654545" style="stroke: #000000; stroke-width: 0.8"/>
      </g>
     </g>
     <g id="text_9">
      <!-- 0.4 -->
      <g transform="translate(67.096875 238.453764)scale(0.1 -0.1)">
       <use xlink:href="#DejaVuSans-30"/>
       <use xlink:href="#DejaVuSans-2e" x="63.623047"/>
       <use xlink:href="#DejaVuSans-34" x="95.410156"/>
      </g>
     </g>
    </g>
    <g id="ytick_4">
     <g id="line2d_10">
      <g>
       <use xlink:href="#m57f1f6c7ca" x="90" y="185.236364" style="stroke: #000000; stroke-width: 0.8"/>
      </g>
     </g>
     <g id="text_10">
      <!-- 0.6 -->
      <g transform="translate(67.096875 189.035582)scale(0.1 -0.1)">
       <use xlink:href="#DejaVuSans-30"/>
       <use xlink:href="#DejaVuSans-2e" x="63.623047"/>
       <use xlink:href="#DejaVuSans-36" x="95.410156"/>
      </g>
     </g>
    </g>
    <g id="ytick_5">
     <g id="line2d_11">
      <g>
       <use xlink:href="#m57f1f6c7ca" x="90" y="135.818182" style="stroke: #000000; stroke-width: 0.8"/>
      </g>
     </g>
     <g id="text_11">
      <!-- 0.8 -->
      <g transform="translate(67.096875 139.617401)scale(0.1 -0.1)">
       <use xlink:href="#DejaVuSans-30"/>
       <use xlink:href="#DejaVuSans-2e" x="63.623047"/>
       <use xlink:href="#DejaVuSans-38" x="95.410156"/>
      </g>
     </g>
    </g>
    <g id="ytick_6">
     <g id="line2d_12">
      <g>
       <use xlink:href="#m57f1f6c7ca" x="90" y="86.4" style="stroke: #000000; stroke-width: 0.8"/>
      </g>
     </g>
     <g id="text_12">
      <!-- 1.0 -->
      <g transform="translate(67.096875 90.199219)scale(0.1 -0.1)">
       <use xlink:href="#DejaVuSans-31"/>
       <use xlink:href="#DejaVuSans-2e" x="63.623047"/>
       <use xlink:href="#DejaVuSans-30" x="95.410156"/>
      </g>
     </g>
    </g>
   </g>
   <g id="patch_3">
    <path d="M 90 333.490909 
L 90 86.4 
" style="fill: none; stroke: #000000; stroke-width: 0.8; stroke-linejoin: miter; stroke-linecap: square"/>
   </g>
   <g id="patch_4">
    <path d="M 343.636364 333.490909 
L 343.636364 86.4 
" style="fill: none; stroke: #000000; stroke-width: 0.8; stroke-linejoin: miter; stroke-linecap: square"/>
   </g>
   <g id="patch_5">
    <path d="M 90 333.490909 
L 343.636364 333.490909 
" style="fill: none; stroke: #000000; stroke-width: 0.8; stroke-linejoin: miter; stroke-linecap: square"/>
   </g>
   <g id="patch_6">
    <path d="M 90 86.4 
L 343.636364 86.4 
" style="fill: none; stroke: #000000; stroke-width: 0.8; stroke-linejoin: miter; stroke-linecap: square"/>
   </g>
  </g>
  <g id="axes_2">
   <g id="patch_7">
    <path d="M 394.363636 333.490909 
L 648 333.490909 
L 648 86.4 
L 394.363636 86.4 
z
" style="fill: #ffffff"/>
   </g>
   <g id="PolyCollection_1">
    <defs>
     <path id="m1f3517be52" d="M 405.892562 -461.425688 
L 405.892562 -461.425688 
L 407.342741 -452.743453 
L 408.792921 -439.75098 
L 410.2431 -399.481907 
L 411.693279 -397.740496 
L 413.143459 -438.242668 
L 414.593638 -450.030798 
L 416.043817 -458.176019 
L 417.493997 -460.679129 
L 418.944176 -445.193159 
L 420.394355 -448.054441 
L 421.844535 -453.74852 
L 423.294714 -466.772971 
L 424.744893 -470.294537 
L 426.195073 -472.519139 
L 427.645252 -467.268156 
L 429.095431 -474.683507 
L 430.54561 -475.599527 
L 431.99579 -476.383158 
L 433.445969 -476.885954 
L 434.896148 -477.125549 
L 436.346328 -477.211124 
L 437.796507 -477.23438 
L 439.246686 -477.239208 
L 440.696866 -477.240083 
L 442.147045 -477.240083 
L 443.597224 -477.240083 
L 445.047404 -477.240083 
L 446.497583 -477.240083 
L 447.947762 -477.240083 
L 449.397942 -477.240083 
L 450.848121 -477.240083 
L 452.2983 -477.240083 
L 453.74848 -477.240083 
L 455.198659 -477.240083 
L 456.648838 -477.240083 
L 458.099018 -477.240083 
L 459.549197 -477.240083 
L 460.999376 -477.239337 
L 462.449556 -477.235222 
L 463.899735 -477.2154 
L 465.349914 -477.143887 
L 466.800094 -476.953184 
L 468.250273 -476.598281 
L 469.700452 -476.251175 
L 471.150632 -476.565734 
L 472.600811 -468.560478 
L 474.05099 -483.881016 
L 475.501169 -492.099902 
L 476.951349 -488.090545 
L 478.401528 -486.935816 
L 479.851707 -490.274099 
L 481.301887 -484.765132 
L 482.752066 -496.592714 
L 484.202245 -487.813442 
L 485.652425 -481.144581 
L 487.102604 -477.226059 
L 488.552783 -467.740316 
L 490.002963 -475.392359 
L 491.453142 -475.922898 
L 492.903321 -476.609331 
L 494.353501 -477.223135 
L 495.80368 -477.835976 
L 497.253859 -478.630494 
L 498.704039 -471.08176 
L 500.154218 -472.736471 
L 501.604397 -473.031453 
L 503.054577 -470.22365 
L 504.504756 -482.455058 
L 505.954935 -467.466135 
L 507.405115 -465.186845 
L 508.855294 -480.269045 
L 510.305473 -481.335792 
L 511.755653 -483.966602 
L 513.205832 -474.827977 
L 514.656011 -472.628638 
L 516.106191 -476.194499 
L 517.55637 -475.735045 
L 519.006549 -489.859972 
L 520.456729 -472.726164 
L 521.906908 -473.097116 
L 523.357087 -476.074276 
L 524.807266 -479.278604 
L 526.257446 -477.434752 
L 527.707625 -470.519761 
L 529.157804 -468.184503 
L 530.607984 -491.436888 
L 532.058163 -489.913938 
L 533.508342 -464.389156 
L 534.958522 -490.850956 
L 536.408701 -469.806667 
L 537.85888 -473.706517 
L 539.30906 -477.476287 
L 540.759239 -475.021702 
L 542.209418 -473.813613 
L 543.659598 -474.321062 
L 545.109777 -470.203481 
L 546.559956 -487.6146 
L 548.010136 -483.397054 
L 549.460315 -480.71658 
L 550.910494 -479.474208 
L 552.360674 -457.727381 
L 553.810853 -478.72257 
L 555.261032 -478.526564 
L 556.711212 -462.158644 
L 558.161391 -478.549845 
L 559.61157 -466.703804 
L 561.06175 -469.347919 
L 562.511929 -467.014632 
L 563.962108 -469.397384 
L 565.412288 -469.62785 
L 566.862467 -476.491796 
L 568.312646 -473.876538 
L 569.762826 -474.517684 
L 571.213005 -476.138946 
L 572.663184 -472.734601 
L 574.113363 -479.282363 
L 575.563543 -479.543239 
L 577.013722 -479.97119 
L 578.463901 -470.874725 
L 579.914081 -472.21225 
L 581.36426 -481.024196 
L 582.814439 -474.190532 
L 584.264619 -469.573105 
L 585.714798 -480.705884 
L 587.164977 -480.383752 
L 588.615157 -469.68263 
L 590.065336 -479.287059 
L 591.515515 -478.549292 
L 592.965695 -477.917714 
L 594.415874 -477.518236 
L 595.866053 -477.332918 
L 597.316233 -477.283627 
L 598.766412 -477.351221 
L 600.216591 -477.662774 
L 601.666771 -478.539967 
L 603.11695 -480.368292 
L 604.567129 -483.14046 
L 606.017309 -486.119744 
L 607.467488 -475.849895 
L 608.917667 -491.399021 
L 610.367847 -498.251699 
L 611.818026 -513.111923 
L 613.268205 -536.305481 
L 614.718385 -530.368357 
L 616.168564 -551.02145 
L 617.618743 -562.830691 
L 619.068923 -563.887748 
L 620.519102 -551.776444 
L 621.969281 -542.382963 
L 623.41946 -558.714143 
L 624.86964 -531.308393 
L 626.319819 -530.443585 
L 627.769998 -526.701237 
L 629.220178 -520.01055 
L 630.670357 -510.415293 
L 632.120536 -501.484542 
L 633.570716 -497.066797 
L 635.020895 -493.406675 
L 636.471074 -487.600918 
L 636.471074 -511.868888 
L 636.471074 -511.868888 
L 635.020895 -509.052451 
L 633.570716 -513.899757 
L 632.120536 -525.536284 
L 630.670357 -538.772376 
L 629.220178 -552.329642 
L 627.769998 -563.742211 
L 626.319819 -570.438836 
L 624.86964 -575.996526 
L 623.41946 -558.714143 
L 621.969281 -593.794789 
L 620.519102 -608.743108 
L 619.068923 -616.792456 
L 617.618743 -622.368595 
L 616.168564 -615.245713 
L 614.718385 -594.46735 
L 613.268205 -536.305481 
L 611.818026 -513.111923 
L 610.367847 -498.251699 
L 608.917667 -491.399021 
L 607.467488 -501.239916 
L 606.017309 -486.119744 
L 604.567129 -483.14046 
L 603.11695 -480.368292 
L 601.666771 -478.539967 
L 600.216591 -477.662774 
L 598.766412 -477.351221 
L 597.316233 -477.283627 
L 595.866053 -477.332918 
L 594.415874 -477.518236 
L 592.965695 -477.917714 
L 591.515515 -478.549292 
L 590.065336 -479.287059 
L 588.615157 -490.176023 
L 587.164977 -480.383752 
L 585.714798 -480.705884 
L 584.264619 -492.313327 
L 582.814439 -487.930301 
L 581.36426 -481.024196 
L 579.914081 -489.442594 
L 578.463901 -490.039079 
L 577.013722 -479.97119 
L 575.563543 -479.543239 
L 574.113363 -479.282363 
L 572.663184 -485.408073 
L 571.213005 -481.244193 
L 569.762826 -481.587207 
L 568.312646 -480.618033 
L 566.862467 -476.491796 
L 565.412288 -482.521158 
L 563.962108 -483.070299 
L 562.511929 -486.858099 
L 561.06175 -486.266952 
L 559.61157 -490.087802 
L 558.161391 -478.549845 
L 556.711212 -494.828467 
L 555.261032 -478.526564 
L 553.810853 -478.72257 
L 552.360674 -500.264374 
L 550.910494 -479.474208 
L 549.460315 -480.71658 
L 548.010136 -483.397054 
L 546.559956 -487.6146 
L 545.109777 -514.769029 
L 543.659598 -518.741713 
L 542.209418 -523.396833 
L 540.759239 -522.07084 
L 539.30906 -516.570069 
L 537.85888 -516.063456 
L 536.408701 -515.606983 
L 534.958522 -490.850956 
L 533.508342 -515.112632 
L 532.058163 -489.913938 
L 530.607984 -491.436888 
L 529.157804 -518.892055 
L 527.707625 -519.322052 
L 526.257446 -512.137214 
L 524.807266 -507.397269 
L 523.357087 -506.684443 
L 521.906908 -506.434309 
L 520.456729 -505.63616 
L 519.006549 -489.859972 
L 517.55637 -506.607304 
L 516.106191 -507.313545 
L 514.656011 -508.360098 
L 513.205832 -500.143711 
L 511.755653 -483.966602 
L 510.305473 -481.335792 
L 508.855294 -480.269045 
L 507.405115 -495.961822 
L 505.954935 -495.656444 
L 504.504756 -482.455058 
L 503.054577 -495.164128 
L 501.604397 -491.20774 
L 500.154218 -489.228553 
L 498.704039 -488.340379 
L 497.253859 -478.630494 
L 495.80368 -477.835976 
L 494.353501 -477.223135 
L 492.903321 -476.609331 
L 491.453142 -475.922898 
L 490.002963 -475.392359 
L 488.552783 -483.408834 
L 487.102604 -477.226059 
L 485.652425 -481.144581 
L 484.202245 -487.813442 
L 482.752066 -496.592714 
L 481.301887 -525.361771 
L 479.851707 -529.259671 
L 478.401528 -529.800806 
L 476.951349 -514.784927 
L 475.501169 -492.099902 
L 474.05099 -483.881016 
L 472.600811 -488.883019 
L 471.150632 -476.565734 
L 469.700452 -476.251175 
L 468.250273 -476.598281 
L 466.800094 -476.953184 
L 465.349914 -477.143887 
L 463.899735 -477.2154 
L 462.449556 -477.235222 
L 460.999376 -477.239337 
L 459.549197 -477.240083 
L 458.099018 -477.240083 
L 456.648838 -477.240083 
L 455.198659 -477.240083 
L 453.74848 -477.240083 
L 452.2983 -477.240083 
L 450.848121 -477.240083 
L 449.397942 -477.240083 
L 447.947762 -477.240083 
L 446.497583 -477.240083 
L 445.047404 -477.240083 
L 443.597224 -477.240083 
L 442.147045 -477.240083 
L 440.696866 -477.240083 
L 439.246686 -477.239208 
L 437.796507 -477.23438 
L 436.346328 -477.211124 
L 434.896148 -477.125549 
L 433.445969 -476.885954 
L 431.99579 -476.383158 
L 430.54561 -475.599527 
L 429.095431 -474.683507 
L 427.645252 -480.239477 
L 426.195073 -472.519139 
L 424.744893 -470.294537 
L 423.294714 -466.772971 
L 421.844535 -471.983711 
L 420.394355 -472.670121 
L 418.944176 -475.156715 
L 417.493997 -460.679129 
L 416.043817 -458.176019 
L 414.593638 -450.030798 
L 413.143459 -438.242668 
L 411.693279 -461.185247 
L 410.2431 -460.37396 
L 408.792921 -439.75098 
L 407.342741 -452.743453 
L 405.892562 -461.425688 
z
" style="stroke: #9467bd; stroke-opacity: 0.2"/>
    </defs>
    <g clip-path="url(#pec1715bf33)">
     <use xlink:href="#m1f3517be52" x="0" y="720" style="fill: #9467bd; fill-opacity: 0.2; stroke: #9467bd; stroke-opacity: 0.2"/>
    </g>
   </g>
   <g id="PolyCollection_2">
    <defs>
     <path id="me0785f978d" d="M 405.892562 -477.240083 
L 405.892562 -477.240083 
L 407.342741 -477.240083 
L 408.792921 -477.240083 
L 410.2431 -477.240083 
L 411.693279 -477.240083 
L 413.143459 -477.240083 
L 414.593638 -477.240083 
L 416.043817 -477.240083 
L 417.493997 -477.240083 
L 418.944176 -477.240083 
L 420.394355 -477.240083 
L 421.844535 -477.240083 
L 423.294714 -477.240083 
L 424.744893 -477.240083 
L 426.195073 -477.240083 
L 427.645252 -477.240083 
L 429.095431 -477.240083 
L 430.54561 -477.240083 
L 431.99579 -477.240083 
L 433.445969 -477.240083 
L 434.896148 -477.240083 
L 436.346328 -477.240083 
L 437.796507 -477.240083 
L 439.246686 -477.240083 
L 440.696866 -477.240083 
L 442.147045 -477.240083 
L 443.597224 -477.240083 
L 445.047404 -477.240083 
L 446.497583 -477.240083 
L 447.947762 -477.240083 
L 449.397942 -477.240083 
L 450.848121 -477.240083 
L 452.2983 -477.240083 
L 453.74848 -477.240083 
L 455.198659 -477.240083 
L 456.648838 -477.240083 
L 458.099018 -477.240083 
L 459.549197 -477.240083 
L 460.999376 -477.240083 
L 462.449556 -477.240083 
L 463.899735 -477.240083 
L 465.349914 -477.240083 
L 466.800094 -477.240083 
L 468.250273 -477.240083 
L 469.700452 -477.240083 
L 471.150632 -477.240083 
L 472.600811 -477.240083 
L 474.05099 -477.240083 
L 475.501169 -477.240083 
L 476.951349 -477.240083 
L 478.401528 -477.240083 
L 479.851707 -477.240083 
L 481.301887 -477.240083 
L 482.752066 -477.240083 
L 484.202245 -477.240083 
L 485.652425 -477.240083 
L 487.102604 -477.240083 
L 488.552783 -477.240083 
L 490.002963 -477.240083 
L 491.453142 -477.240083 
L 492.903321 -477.240083 
L 494.353501 -477.240083 
L 495.80368 -477.240083 
L 497.253859 -477.240083 
L 498.704039 -477.240083 
L 500.154218 -477.240083 
L 501.604397 -477.240083 
L 503.054577 -477.240083 
L 504.504756 -477.240083 
L 505.954935 -477.240083 
L 507.405115 -477.240083 
L 508.855294 -477.240083 
L 510.305473 -477.240083 
L 511.755653 -477.240083 
L 513.205832 -477.240083 
L 514.656011 -477.240083 
L 516.106191 -477.240083 
L 517.55637 -477.240083 
L 519.006549 -477.240083 
L 520.456729 -477.240083 
L 521.906908 -477.240083 
L 523.357087 -477.240083 
L 524.807266 -477.240083 
L 526.257446 -477.240083 
L 527.707625 -477.240083 
L 529.157804 -477.240083 
L 530.607984 -477.240083 
L 532.058163 -477.240083 
L 533.508342 -477.240083 
L 534.958522 -477.240083 
L 536.408701 -477.240083 
L 537.85888 -477.240083 
L 539.30906 -477.240083 
L 540.759239 -477.240083 
L 542.209418 -477.240083 
L 543.659598 -477.240083 
L 545.109777 -477.240083 
L 546.559956 -477.240083 
L 548.010136 -477.240083 
L 549.460315 -477.240083 
L 550.910494 -477.240083 
L 552.360674 -477.240083 
L 553.810853 -477.240083 
L 555.261032 -477.240083 
L 556.711212 -477.240083 
L 558.161391 -477.240083 
L 559.61157 -477.240083 
L 561.06175 -477.240083 
L 562.511929 -477.240083 
L 563.962108 -477.240083 
L 565.412288 -477.240083 
L 566.862467 -477.240083 
L 568.312646 -477.240083 
L 569.762826 -477.240083 
L 571.213005 -477.240083 
L 572.663184 -477.240083 
L 574.113363 -477.240083 
L 575.563543 -477.240083 
L 577.013722 -477.240083 
L 578.463901 -477.240083 
L 579.914081 -477.240083 
L 581.36426 -477.240083 
L 582.814439 -477.240083 
L 584.264619 -477.240083 
L 585.714798 -477.240083 
L 587.164977 -477.240083 
L 588.615157 -477.240083 
L 590.065336 -477.240083 
L 591.515515 -477.240083 
L 592.965695 -477.240083 
L 594.415874 -477.240083 
L 595.866053 -477.240083 
L 597.316233 -477.240083 
L 598.766412 -477.240083 
L 600.216591 -477.240083 
L 601.666771 -477.240083 
L 603.11695 -477.240083 
L 604.567129 -477.240083 
L 606.017309 -477.240083 
L 607.467488 -477.240083 
L 608.917667 -477.240083 
L 610.367847 -477.240083 
L 611.818026 -477.240083 
L 613.268205 -477.240083 
L 614.718385 -477.240083 
L 616.168564 -477.240083 
L 617.618743 -477.240083 
L 619.068923 -477.240083 
L 620.519102 -477.240083 
L 621.969281 -477.240083 
L 623.41946 -477.240083 
L 624.86964 -477.240083 
L 626.319819 -477.240083 
L 627.769998 -477.240083 
L 629.220178 -477.240083 
L 630.670357 -477.240083 
L 632.120536 -477.240083 
L 633.570716 -477.240083 
L 635.020895 -477.240083 
L 636.471074 -477.240083 
L 636.471074 -477.240083 
L 636.471074 -477.240083 
L 635.020895 -477.240083 
L 633.570716 -477.240083 
L 632.120536 -477.240083 
L 630.670357 -477.240083 
L 629.220178 -477.240083 
L 627.769998 -477.240083 
L 626.319819 -477.240083 
L 624.86964 -477.240083 
L 623.41946 -477.240083 
L 621.969281 -477.240083 
L 620.519102 -477.240083 
L 619.068923 -477.240083 
L 617.618743 -477.240083 
L 616.168564 -477.240083 
L 614.718385 -477.240083 
L 613.268205 -477.240083 
L 611.818026 -477.240083 
L 610.367847 -477.240083 
L 608.917667 -477.240083 
L 607.467488 -477.240083 
L 606.017309 -477.240083 
L 604.567129 -477.240083 
L 603.11695 -477.240083 
L 601.666771 -477.240083 
L 600.216591 -477.240083 
L 598.766412 -477.240083 
L 597.316233 -477.240083 
L 595.866053 -477.240083 
L 594.415874 -477.240083 
L 592.965695 -477.240083 
L 591.515515 -477.240083 
L 590.065336 -477.240083 
L 588.615157 -477.240083 
L 587.164977 -477.240083 
L 585.714798 -477.240083 
L 584.264619 -477.240083 
L 582.814439 -477.240083 
L 581.36426 -477.240083 
L 579.914081 -477.240083 
L 578.463901 -477.240083 
L 577.013722 -477.240083 
L 575.563543 -477.240083 
L 574.113363 -477.240083 
L 572.663184 -477.240083 
L 571.213005 -477.240083 
L 569.762826 -477.240083 
L 568.312646 -477.240083 
L 566.862467 -477.240083 
L 565.412288 -477.240083 
L 563.962108 -477.240083 
L 562.511929 -477.240083 
L 561.06175 -477.240083 
L 559.61157 -477.240083 
L 558.161391 -477.240083 
L 556.711212 -477.240083 
L 555.261032 -477.240083 
L 553.810853 -477.240083 
L 552.360674 -477.240083 
L 550.910494 -477.240083 
L 549.460315 -477.240083 
L 548.010136 -477.240083 
L 546.559956 -477.240083 
L 545.109777 -477.240083 
L 543.659598 -477.240083 
L 542.209418 -477.240083 
L 540.759239 -477.240083 
L 539.30906 -477.240083 
L 537.85888 -477.240083 
L 536.408701 -477.240083 
L 534.958522 -477.240083 
L 533.508342 -477.240083 
L 532.058163 -477.240083 
L 530.607984 -477.240083 
L 529.157804 -477.240083 
L 527.707625 -477.240083 
L 526.257446 -477.240083 
L 524.807266 -477.240083 
L 523.357087 -477.240083 
L 521.906908 -477.240083 
L 520.456729 -477.240083 
L 519.006549 -477.240083 
L 517.55637 -477.240083 
L 516.106191 -477.240083 
L 514.656011 -477.240083 
L 513.205832 -477.240083 
L 511.755653 -477.240083 
L 510.305473 -477.240083 
L 508.855294 -477.240083 
L 507.405115 -477.240083 
L 505.954935 -477.240083 
L 504.504756 -477.240083 
L 503.054577 -477.240083 
L 501.604397 -477.240083 
L 500.154218 -477.240083 
L 498.704039 -477.240083 
L 497.253859 -477.240083 
L 495.80368 -477.240083 
L 494.353501 -477.240083 
L 492.903321 -477.240083 
L 491.453142 -477.240083 
L 490.002963 -477.240083 
L 488.552783 -477.240083 
L 487.102604 -477.240083 
L 485.652425 -477.240083 
L 484.202245 -477.240083 
L 482.752066 -477.240083 
L 481.301887 -477.240083 
L 479.851707 -477.240083 
L 478.401528 -477.240083 
L 476.951349 -477.240083 
L 475.501169 -477.240083 
L 474.05099 -477.240083 
L 472.600811 -477.240083 
L 471.150632 -477.240083 
L 469.700452 -477.240083 
L 468.250273 -477.240083 
L 466.800094 -477.240083 
L 465.349914 -477.240083 
L 463.899735 -477.240083 
L 462.449556 -477.240083 
L 460.999376 -477.240083 
L 459.549197 -477.240083 
L 458.099018 -477.240083 
L 456.648838 -477.240083 
L 455.198659 -477.240083 
L 453.74848 -477.240083 
L 452.2983 -477.240083 
L 450.848121 -477.240083 
L 449.397942 -477.240083 
L 447.947762 -477.240083 
L 446.497583 -477.240083 
L 445.047404 -477.240083 
L 443.597224 -477.240083 
L 442.147045 -477.240083 
L 440.696866 -477.240083 
L 439.246686 -477.240083 
L 437.796507 -477.240083 
L 436.346328 -477.240083 
L 434.896148 -477.240083 
L 433.445969 -477.240083 
L 431.99579 -477.240083 
L 430.54561 -477.240083 
L 429.095431 -477.240083 
L 427.645252 -477.240083 
L 426.195073 -477.240083 
L 424.744893 -477.240083 
L 423.294714 -477.240083 
L 421.844535 -477.240083 
L 420.394355 -477.240083 
L 418.944176 -477.240083 
L 417.493997 -477.240083 
L 416.043817 -477.240083 
L 414.593638 -477.240083 
L 413.143459 -477.240083 
L 411.693279 -477.240083 
L 410.2431 -477.240083 
L 408.792921 -477.240083 
L 407.342741 -477.240083 
L 405.892562 -477.240083 
z
" style="stroke: #1f77b4; stroke-opacity: 0.2"/>
    </defs>
    <g clip-path="url(#pec1715bf33)">
     <use xlink:href="#me0785f978d" x="0" y="720" style="fill: #1f77b4; fill-opacity: 0.2; stroke: #1f77b4; stroke-opacity: 0.2"/>
    </g>
   </g>
   <g id="PolyCollection_3">
    <defs>
     <path id="m4a64f7dfb6" d="M 405.892562 -477.312653 
L 405.892562 -477.312653 
L 407.342741 -477.559623 
L 408.792921 -478.503889 
L 410.2431 -481.132881 
L 411.693279 -486.583208 
L 413.143459 -494.717612 
L 414.593638 -502.787155 
L 416.043817 -477.65017 
L 417.493997 -504.698201 
L 418.944176 -499.883204 
L 420.394355 -496.970586 
L 421.844535 -497.892419 
L 423.294714 -483.281795 
L 424.744893 -501.476792 
L 426.195073 -483.167305 
L 427.645252 -493.205629 
L 429.095431 -486.951344 
L 430.54561 -482.020471 
L 431.99579 -479.086824 
L 433.445969 -477.686388 
L 434.896148 -477.030788 
L 436.346328 -476.601897 
L 437.796507 -476.274994 
L 439.246686 -467.250958 
L 440.696866 -476.27069 
L 442.147045 -476.573829 
L 443.597224 -476.883463 
L 445.047404 -477.091421 
L 446.497583 -477.191819 
L 447.947762 -477.22788 
L 449.397942 -477.23768 
L 450.848121 -477.239714 
L 452.2983 -477.240083 
L 453.74848 -477.240083 
L 455.198659 -477.240083 
L 456.648838 -477.240083 
L 458.099018 -477.240083 
L 459.549197 -477.240083 
L 460.999376 -477.240083 
L 462.449556 -477.240083 
L 463.899735 -477.240083 
L 465.349914 -477.240083 
L 466.800094 -477.240083 
L 468.250273 -477.240083 
L 469.700452 -477.240083 
L 471.150632 -477.236523 
L 472.600811 -477.210996 
L 474.05099 -477.078176 
L 475.501169 -476.542018 
L 476.951349 -474.845156 
L 478.401528 -470.675941 
L 479.851707 -462.811199 
L 481.301887 -451.719021 
L 482.752066 -419.093072 
L 484.202245 -405.425588 
L 485.652425 -410.158148 
L 487.102604 -448.130832 
L 488.552783 -459.780357 
L 490.002963 -468.870311 
L 491.453142 -474.046103 
L 492.903321 -476.273475 
L 494.353501 -477.008878 
L 495.80368 -477.196926 
L 497.253859 -477.234365 
L 498.704039 -477.240083 
L 500.154218 -477.240083 
L 501.604397 -477.240083 
L 503.054577 -477.240083 
L 504.504756 -477.240083 
L 505.954935 -477.240083 
L 507.405115 -477.240083 
L 508.855294 -477.240083 
L 510.305473 -477.240083 
L 511.755653 -477.240083 
L 513.205832 -477.240083 
L 514.656011 -477.240083 
L 516.106191 -477.240083 
L 517.55637 -477.240083 
L 519.006549 -477.235873 
L 520.456729 -477.207693 
L 521.906908 -477.068466 
L 523.357087 -476.52512 
L 524.807266 -474.894653 
L 526.257446 -471.172635 
L 527.707625 -464.84656 
L 529.157804 -457.230939 
L 530.607984 -429.333973 
L 532.058163 -430.349636 
L 533.508342 -456.627695 
L 534.958522 -464.230393 
L 536.408701 -470.7588 
L 537.85888 -474.694862 
L 539.30906 -476.45336 
L 540.759239 -477.048964 
L 542.209418 -477.203645 
L 543.659598 -477.23514 
L 545.109777 -477.240083 
L 546.559956 -477.240083 
L 548.010136 -477.240083 
L 549.460315 -477.240083 
L 550.910494 -477.240083 
L 552.360674 -477.240083 
L 553.810853 -477.240083 
L 555.261032 -477.240083 
L 556.711212 -477.240083 
L 558.161391 -477.240083 
L 559.61157 -477.240083 
L 561.06175 -477.240083 
L 562.511929 -477.240083 
L 563.962108 -477.240083 
L 565.412288 -477.240083 
L 566.862467 -477.240083 
L 568.312646 -477.240083 
L 569.762826 -477.240083 
L 571.213005 -477.240083 
L 572.663184 -477.240083 
L 574.113363 -477.240083 
L 575.563543 -477.240083 
L 577.013722 -477.240083 
L 578.463901 -477.240083 
L 579.914081 -477.240083 
L 581.36426 -477.240083 
L 582.814439 -477.240083 
L 584.264619 -477.240083 
L 585.714798 -477.240083 
L 587.164977 -477.240083 
L 588.615157 -477.240083 
L 590.065336 -477.240083 
L 591.515515 -477.240083 
L 592.965695 -477.240083 
L 594.415874 -477.240083 
L 595.866053 -477.240083 
L 597.316233 -477.240083 
L 598.766412 -477.240083 
L 600.216591 -477.240083 
L 601.666771 -477.240083 
L 603.11695 -477.240083 
L 604.567129 -477.240083 
L 606.017309 -477.240083 
L 607.467488 -477.240083 
L 608.917667 -477.240083 
L 610.367847 -477.240083 
L 611.818026 -477.236593 
L 613.268205 -477.217327 
L 614.718385 -477.124518 
L 616.168564 -476.783015 
L 617.618743 -475.832216 
L 619.068923 -473.862786 
L 620.519102 -470.930461 
L 621.969281 -468.059638 
L 623.41946 -449.831302 
L 624.86964 -468.059638 
L 626.319819 -470.930461 
L 627.769998 -473.862786 
L 629.220178 -475.832216 
L 630.670357 -476.783015 
L 632.120536 -477.124518 
L 633.570716 -477.217327 
L 635.020895 -477.236593 
L 636.471074 -477.240083 
L 636.471074 -477.240083 
L 636.471074 -477.240083 
L 635.020895 -477.236593 
L 633.570716 -477.217327 
L 632.120536 -477.124518 
L 630.670357 -476.783015 
L 629.220178 -475.832216 
L 627.769998 -473.862786 
L 626.319819 -470.930461 
L 624.86964 -468.059638 
L 623.41946 -483.843249 
L 621.969281 -468.059638 
L 620.519102 -470.930461 
L 619.068923 -473.862786 
L 617.618743 -475.832216 
L 616.168564 -476.783015 
L 614.718385 -477.124518 
L 613.268205 -477.217327 
L 611.818026 -477.236593 
L 610.367847 -477.240083 
L 608.917667 -477.240083 
L 607.467488 -477.240083 
L 606.017309 -477.240083 
L 604.567129 -477.240083 
L 603.11695 -477.240083 
L 601.666771 -477.240083 
L 600.216591 -477.240083 
L 598.766412 -477.240083 
L 597.316233 -477.240083 
L 595.866053 -477.240083 
L 594.415874 -477.240083 
L 592.965695 -477.240083 
L 591.515515 -477.240083 
L 590.065336 -477.240083 
L 588.615157 -477.240083 
L 587.164977 -477.240083 
L 585.714798 -477.240083 
L 584.264619 -477.240083 
L 582.814439 -477.240083 
L 581.36426 -477.240083 
L 579.914081 -477.240083 
L 578.463901 -477.240083 
L 577.013722 -477.240083 
L 575.563543 -477.240083 
L 574.113363 -477.240083 
L 572.663184 -477.240083 
L 571.213005 -477.240083 
L 569.762826 -477.240083 
L 568.312646 -477.240083 
L 566.862467 -477.240083 
L 565.412288 -477.240083 
L 563.962108 -477.240083 
L 562.511929 -477.240083 
L 561.06175 -477.240083 
L 559.61157 -477.240083 
L 558.161391 -477.240083 
L 556.711212 -477.240083 
L 555.261032 -477.240083 
L 553.810853 -477.240083 
L 552.360674 -477.240083 
L 550.910494 -477.240083 
L 549.460315 -477.240083 
L 548.010136 -477.240083 
L 546.559956 -477.240083 
L 545.109777 -477.240083 
L 543.659598 -477.23514 
L 542.209418 -477.203645 
L 540.759239 -477.048964 
L 539.30906 -476.45336 
L 537.85888 -474.694862 
L 536.408701 -470.7588 
L 534.958522 -464.230393 
L 533.508342 -456.627695 
L 532.058163 -472.518074 
L 530.607984 -474.047445 
L 529.157804 -457.230939 
L 527.707625 -464.84656 
L 526.257446 -471.172635 
L 524.807266 -474.894653 
L 523.357087 -476.52512 
L 521.906908 -477.068466 
L 520.456729 -477.207693 
L 519.006549 -477.235873 
L 517.55637 -477.240083 
L 516.106191 -477.240083 
L 514.656011 -477.240083 
L 513.205832 -477.240083 
L 511.755653 -477.240083 
L 510.305473 -477.240083 
L 508.855294 -477.240083 
L 507.405115 -477.240083 
L 505.954935 -477.240083 
L 504.504756 -477.240083 
L 503.054577 -477.240083 
L 501.604397 -477.240083 
L 500.154218 -477.240083 
L 498.704039 -477.240083 
L 497.253859 -477.234365 
L 495.80368 -477.196926 
L 494.353501 -477.008878 
L 492.903321 -476.273475 
L 491.453142 -474.046103 
L 490.002963 -468.870311 
L 488.552783 -459.780357 
L 487.102604 -448.130832 
L 485.652425 -466.448631 
L 484.202245 -465.213544 
L 482.752066 -462.575487 
L 481.301887 -451.719021 
L 479.851707 -462.811199 
L 478.401528 -470.675941 
L 476.951349 -474.845156 
L 475.501169 -476.542018 
L 474.05099 -477.078176 
L 472.600811 -477.210996 
L 471.150632 -477.236523 
L 469.700452 -477.240083 
L 468.250273 -477.240083 
L 466.800094 -477.240083 
L 465.349914 -477.240083 
L 463.899735 -477.240083 
L 462.449556 -477.240083 
L 460.999376 -477.240083 
L 459.549197 -477.240083 
L 458.099018 -477.240083 
L 456.648838 -477.240083 
L 455.198659 -477.240083 
L 453.74848 -477.240083 
L 452.2983 -477.240083 
L 450.848121 -477.239714 
L 449.397942 -477.23768 
L 447.947762 -477.22788 
L 446.497583 -477.191819 
L 445.047404 -477.091421 
L 443.597224 -476.883463 
L 442.147045 -476.573829 
L 440.696866 -476.27069 
L 439.246686 -485.032275 
L 437.796507 -476.274994 
L 436.346328 -476.601897 
L 434.896148 -477.030788 
L 433.445969 -477.686388 
L 431.99579 -479.086824 
L 430.54561 -482.020471 
L 429.095431 -486.951344 
L 427.645252 -493.205629 
L 426.195073 -514.41184 
L 424.744893 -501.476792 
L 423.294714 -517.83228 
L 421.844535 -497.892419 
L 420.394355 -496.970586 
L 418.944176 -499.883204 
L 417.493997 -504.698201 
L 416.043817 -535.668374 
L 414.593638 -502.787155 
L 413.143459 -494.717612 
L 411.693279 -486.583208 
L 410.2431 -481.132881 
L 408.792921 -478.503889 
L 407.342741 -477.559623 
L 405.892562 -477.312653 
z
" style="stroke: #d62728; stroke-opacity: 0.2"/>
    </defs>
    <g clip-path="url(#pec1715bf33)">
     <use xlink:href="#m4a64f7dfb6" x="0" y="720" style="fill: #d62728; fill-opacity: 0.2; stroke: #d62728; stroke-opacity: 0.2"/>
    </g>
   </g>
   <g id="PolyCollection_4">
    <defs>
     <path id="m69b40d6bc4" d="M 405.892562 -477.240083 
L 405.892562 -477.240083 
L 407.342741 -477.240083 
L 408.792921 -477.240083 
L 410.2431 -477.240083 
L 411.693279 -477.240083 
L 413.143459 -477.240083 
L 414.593638 -477.240083 
L 416.043817 -477.240083 
L 417.493997 -477.240083 
L 418.944176 -477.240083 
L 420.394355 -477.240083 
L 421.844535 -477.240083 
L 423.294714 -477.240083 
L 424.744893 -477.240083 
L 426.195073 -477.240083 
L 427.645252 -477.240083 
L 429.095431 -477.240083 
L 430.54561 -477.240083 
L 431.99579 -477.240083 
L 433.445969 -477.240083 
L 434.896148 -477.240083 
L 436.346328 -477.240083 
L 437.796507 -477.240083 
L 439.246686 -477.240083 
L 440.696866 -477.240083 
L 442.147045 -477.240083 
L 443.597224 -477.240083 
L 445.047404 -477.240083 
L 446.497583 -477.240083 
L 447.947762 -477.240083 
L 449.397942 -477.240083 
L 450.848121 -477.240083 
L 452.2983 -477.240083 
L 453.74848 -477.240083 
L 455.198659 -477.240083 
L 456.648838 -477.240083 
L 458.099018 -477.240083 
L 459.549197 -477.240083 
L 460.999376 -477.240083 
L 462.449556 -477.240083 
L 463.899735 -477.240083 
L 465.349914 -477.240083 
L 466.800094 -477.240083 
L 468.250273 -477.240083 
L 469.700452 -477.240083 
L 471.150632 -477.240083 
L 472.600811 -477.240083 
L 474.05099 -477.240083 
L 475.501169 -477.240083 
L 476.951349 -477.240083 
L 478.401528 -477.240083 
L 479.851707 -477.240083 
L 481.301887 -477.240083 
L 482.752066 -477.240083 
L 484.202245 -477.240083 
L 485.652425 -477.240083 
L 487.102604 -477.240083 
L 488.552783 -477.240083 
L 490.002963 -477.240083 
L 491.453142 -477.240083 
L 492.903321 -477.240083 
L 494.353501 -477.240083 
L 495.80368 -477.240083 
L 497.253859 -477.240083 
L 498.704039 -477.240083 
L 500.154218 -477.240083 
L 501.604397 -477.240083 
L 503.054577 -477.240083 
L 504.504756 -477.240083 
L 505.954935 -477.240083 
L 507.405115 -477.240083 
L 508.855294 -477.240083 
L 510.305473 -477.240083 
L 511.755653 -477.240083 
L 513.205832 -477.240083 
L 514.656011 -477.240083 
L 516.106191 -477.240083 
L 517.55637 -477.240083 
L 519.006549 -477.240083 
L 520.456729 -477.240083 
L 521.906908 -477.240083 
L 523.357087 -477.240083 
L 524.807266 -477.240083 
L 526.257446 -477.240083 
L 527.707625 -477.240083 
L 529.157804 -477.240083 
L 530.607984 -477.240083 
L 532.058163 -477.240083 
L 533.508342 -477.240083 
L 534.958522 -477.240083 
L 536.408701 -477.240083 
L 537.85888 -477.240083 
L 539.30906 -477.240083 
L 540.759239 -477.240083 
L 542.209418 -477.240083 
L 543.659598 -477.240083 
L 545.109777 -477.240083 
L 546.559956 -477.240083 
L 548.010136 -477.240083 
L 549.460315 -477.240083 
L 550.910494 -477.240083 
L 552.360674 -477.240083 
L 553.810853 -477.240083 
L 555.261032 -477.240083 
L 556.711212 -477.240083 
L 558.161391 -477.240083 
L 559.61157 -477.240083 
L 561.06175 -477.240083 
L 562.511929 -477.240083 
L 563.962108 -477.240083 
L 565.412288 -477.240083 
L 566.862467 -477.240083 
L 568.312646 -477.240083 
L 569.762826 -477.240083 
L 571.213005 -477.240083 
L 572.663184 -477.240083 
L 574.113363 -477.240083 
L 575.563543 -477.240083 
L 577.013722 -477.240083 
L 578.463901 -477.240083 
L 579.914081 -477.240083 
L 581.36426 -477.240083 
L 582.814439 -477.240083 
L 584.264619 -477.240083 
L 585.714798 -477.240083 
L 587.164977 -477.240083 
L 588.615157 -477.240083 
L 590.065336 -477.240083 
L 591.515515 -477.240083 
L 592.965695 -477.240083 
L 594.415874 -477.240083 
L 595.866053 -477.240083 
L 597.316233 -477.240083 
L 598.766412 -477.240083 
L 600.216591 -477.240083 
L 601.666771 -477.240083 
L 603.11695 -477.240083 
L 604.567129 -477.240083 
L 606.017309 -477.240083 
L 607.467488 -477.240083 
L 608.917667 -477.240083 
L 610.367847 -477.240083 
L 611.818026 -477.240083 
L 613.268205 -477.240083 
L 614.718385 -477.240083 
L 616.168564 -477.240083 
L 617.618743 -477.240083 
L 619.068923 -477.240083 
L 620.519102 -477.240083 
L 621.969281 -477.240083 
L 623.41946 -477.240083 
L 624.86964 -477.240083 
L 626.319819 -477.240083 
L 627.769998 -477.240083 
L 629.220178 -477.240083 
L 630.670357 -477.240083 
L 632.120536 -477.240083 
L 633.570716 -477.240083 
L 635.020895 -477.240083 
L 636.471074 -477.240083 
L 636.471074 -477.240083 
L 636.471074 -477.240083 
L 635.020895 -477.240083 
L 633.570716 -477.240083 
L 632.120536 -477.240083 
L 630.670357 -477.240083 
L 629.220178 -477.240083 
L 627.769998 -477.240083 
L 626.319819 -477.240083 
L 624.86964 -477.240083 
L 623.41946 -477.240083 
L 621.969281 -477.240083 
L 620.519102 -477.240083 
L 619.068923 -477.240083 
L 617.618743 -477.240083 
L 616.168564 -477.240083 
L 614.718385 -477.240083 
L 613.268205 -477.240083 
L 611.818026 -477.240083 
L 610.367847 -477.240083 
L 608.917667 -477.240083 
L 607.467488 -477.240083 
L 606.017309 -477.240083 
L 604.567129 -477.240083 
L 603.11695 -477.240083 
L 601.666771 -477.240083 
L 600.216591 -477.240083 
L 598.766412 -477.240083 
L 597.316233 -477.240083 
L 595.866053 -477.240083 
L 594.415874 -477.240083 
L 592.965695 -477.240083 
L 591.515515 -477.240083 
L 590.065336 -477.240083 
L 588.615157 -477.240083 
L 587.164977 -477.240083 
L 585.714798 -477.240083 
L 584.264619 -477.240083 
L 582.814439 -477.240083 
L 581.36426 -477.240083 
L 579.914081 -477.240083 
L 578.463901 -477.240083 
L 577.013722 -477.240083 
L 575.563543 -477.240083 
L 574.113363 -477.240083 
L 572.663184 -477.240083 
L 571.213005 -477.240083 
L 569.762826 -477.240083 
L 568.312646 -477.240083 
L 566.862467 -477.240083 
L 565.412288 -477.240083 
L 563.962108 -477.240083 
L 562.511929 -477.240083 
L 561.06175 -477.240083 
L 559.61157 -477.240083 
L 558.161391 -477.240083 
L 556.711212 -477.240083 
L 555.261032 -477.240083 
L 553.810853 -477.240083 
L 552.360674 -477.240083 
L 550.910494 -477.240083 
L 549.460315 -477.240083 
L 548.010136 -477.240083 
L 546.559956 -477.240083 
L 545.109777 -477.240083 
L 543.659598 -477.240083 
L 542.209418 -477.240083 
L 540.759239 -477.240083 
L 539.30906 -477.240083 
L 537.85888 -477.240083 
L 536.408701 -477.240083 
L 534.958522 -477.240083 
L 533.508342 -477.240083 
L 532.058163 -477.240083 
L 530.607984 -477.240083 
L 529.157804 -477.240083 
L 527.707625 -477.240083 
L 526.257446 -477.240083 
L 524.807266 -477.240083 
L 523.357087 -477.240083 
L 521.906908 -477.240083 
L 520.456729 -477.240083 
L 519.006549 -477.240083 
L 517.55637 -477.240083 
L 516.106191 -477.240083 
L 514.656011 -477.240083 
L 513.205832 -477.240083 
L 511.755653 -477.240083 
L 510.305473 -477.240083 
L 508.855294 -477.240083 
L 507.405115 -477.240083 
L 505.954935 -477.240083 
L 504.504756 -477.240083 
L 503.054577 -477.240083 
L 501.604397 -477.240083 
L 500.154218 -477.240083 
L 498.704039 -477.240083 
L 497.253859 -477.240083 
L 495.80368 -477.240083 
L 494.353501 -477.240083 
L 492.903321 -477.240083 
L 491.453142 -477.240083 
L 490.002963 -477.240083 
L 488.552783 -477.240083 
L 487.102604 -477.240083 
L 485.652425 -477.240083 
L 484.202245 -477.240083 
L 482.752066 -477.240083 
L 481.301887 -477.240083 
L 479.851707 -477.240083 
L 478.401528 -477.240083 
L 476.951349 -477.240083 
L 475.501169 -477.240083 
L 474.05099 -477.240083 
L 472.600811 -477.240083 
L 471.150632 -477.240083 
L 469.700452 -477.240083 
L 468.250273 -477.240083 
L 466.800094 -477.240083 
L 465.349914 -477.240083 
L 463.899735 -477.240083 
L 462.449556 -477.240083 
L 460.999376 -477.240083 
L 459.549197 -477.240083 
L 458.099018 -477.240083 
L 456.648838 -477.240083 
L 455.198659 -477.240083 
L 453.74848 -477.240083 
L 452.2983 -477.240083 
L 450.848121 -477.240083 
L 449.397942 -477.240083 
L 447.947762 -477.240083 
L 446.497583 -477.240083 
L 445.047404 -477.240083 
L 443.597224 -477.240083 
L 442.147045 -477.240083 
L 440.696866 -477.240083 
L 439.246686 -477.240083 
L 437.796507 -477.240083 
L 436.346328 -477.240083 
L 434.896148 -477.240083 
L 433.445969 -477.240083 
L 431.99579 -477.240083 
L 430.54561 -477.240083 
L 429.095431 -477.240083 
L 427.645252 -477.240083 
L 426.195073 -477.240083 
L 424.744893 -477.240083 
L 423.294714 -477.240083 
L 421.844535 -477.240083 
L 420.394355 -477.240083 
L 418.944176 -477.240083 
L 417.493997 -477.240083 
L 416.043817 -477.240083 
L 414.593638 -477.240083 
L 413.143459 -477.240083 
L 411.693279 -477.240083 
L 410.2431 -477.240083 
L 408.792921 -477.240083 
L 407.342741 -477.240083 
L 405.892562 -477.240083 
z
" style="stroke: #ff7f0e; stroke-opacity: 0.2"/>
    </defs>
    <g clip-path="url(#pec1715bf33)">
     <use xlink:href="#m69b40d6bc4" x="0" y="720" style="fill: #ff7f0e; fill-opacity: 0.2; stroke: #ff7f0e; stroke-opacity: 0.2"/>
    </g>
   </g>
   <g id="matplotlib.axis_3">
    <g id="xtick_7">
     <g id="line2d_13">
      <g>
       <use xlink:href="#mfe5a80d26a" x="405.863558" y="333.490909" style="stroke: #000000; stroke-width: 0.8"/>
      </g>
     </g>
     <g id="text_13">
      <!-- 0 -->
      <g transform="translate(402.682308 348.089347)scale(0.1 -0.1)">
       <use xlink:href="#DejaVuSans-30"/>
      </g>
     </g>
    </g>
    <g id="xtick_8">
     <g id="line2d_14">
      <g>
       <use xlink:href="#mfe5a80d26a" x="463.870731" y="333.490909" style="stroke: #000000; stroke-width: 0.8"/>
      </g>
     </g>
     <g id="text_14">
      <!-- 2000 -->
      <g transform="translate(451.145731 348.089347)scale(0.1 -0.1)">
       <use xlink:href="#DejaVuSans-32"/>
       <use xlink:href="#DejaVuSans-30" x="63.623047"/>
       <use xlink:href="#DejaVuSans-30" x="127.246094"/>
       <use xlink:href="#DejaVuSans-30" x="190.869141"/>
      </g>
     </g>
    </g>
    <g id="xtick_9">
     <g id="line2d_15">
      <g>
       <use xlink:href="#mfe5a80d26a" x="521.877904" y="333.490909" style="stroke: #000000; stroke-width: 0.8"/>
      </g>
     </g>
     <g id="text_15">
      <!-- 4000 -->
      <g transform="translate(509.152904 348.089347)scale(0.1 -0.1)">
       <use xlink:href="#DejaVuSans-34"/>
       <use xlink:href="#DejaVuSans-30" x="63.623047"/>
       <use xlink:href="#DejaVuSans-30" x="127.246094"/>
       <use xlink:href="#DejaVuSans-30" x="190.869141"/>
      </g>
     </g>
    </g>
    <g id="xtick_10">
     <g id="line2d_16">
      <g>
       <use xlink:href="#mfe5a80d26a" x="579.885077" y="333.490909" style="stroke: #000000; stroke-width: 0.8"/>
      </g>
     </g>
     <g id="text_16">
      <!-- 6000 -->
      <g transform="translate(567.160077 348.089347)scale(0.1 -0.1)">
       <use xlink:href="#DejaVuSans-36"/>
       <use xlink:href="#DejaVuSans-30" x="63.623047"/>
       <use xlink:href="#DejaVuSans-30" x="127.246094"/>
       <use xlink:href="#DejaVuSans-30" x="190.869141"/>
      </g>
     </g>
    </g>
    <g id="xtick_11">
     <g id="line2d_17">
      <g>
       <use xlink:href="#mfe5a80d26a" x="637.89225" y="333.490909" style="stroke: #000000; stroke-width: 0.8"/>
      </g>
     </g>
     <g id="text_17">
      <!-- 8000 -->
      <g transform="translate(625.16725 348.089347)scale(0.1 -0.1)">
       <use xlink:href="#DejaVuSans-38"/>
       <use xlink:href="#DejaVuSans-30" x="63.623047"/>
       <use xlink:href="#DejaVuSans-30" x="127.246094"/>
       <use xlink:href="#DejaVuSans-30" x="190.869141"/>
      </g>
     </g>
    </g>
   </g>
   <g id="matplotlib.axis_4">
    <g id="ytick_7">
     <g id="line2d_18">
      <g>
       <use xlink:href="#m57f1f6c7ca" x="394.363636" y="308.159841" style="stroke: #000000; stroke-width: 0.8"/>
      </g>
     </g>
     <g id="text_18">
      <!-- −0.050 -->
      <g transform="translate(350.355824 311.95906)scale(0.1 -0.1)">
       <defs>
        <path id="DejaVuSans-2212" d="M 678 2272 
L 4684 2272 
L 4684 1741 
L 678 1741 
L 678 2272 
z
" transform="scale(0.015625)"/>
        <path id="DejaVuSans-35" d="M 691 4666 
L 3169 4666 
L 3169 4134 
L 1269 4134 
L 1269 2991 
Q 1406 3038 1543 3061 
Q 1681 3084 1819 3084 
Q 2600 3084 3056 2656 
Q 3513 2228 3513 1497 
Q 3513 744 3044 326 
Q 2575 -91 1722 -91 
Q 1428 -91 1123 -41 
Q 819 9 494 109 
L 494 744 
Q 775 591 1075 516 
Q 1375 441 1709 441 
Q 2250 441 2565 725 
Q 2881 1009 2881 1497 
Q 2881 1984 2565 2268 
Q 2250 2553 1709 2553 
Q 1456 2553 1204 2497 
Q 953 2441 691 2322 
L 691 4666 
z
" transform="scale(0.015625)"/>
       </defs>
       <use xlink:href="#DejaVuSans-2212"/>
       <use xlink:href="#DejaVuSans-30" x="83.789062"/>
       <use xlink:href="#DejaVuSans-2e" x="147.412109"/>
       <use xlink:href="#DejaVuSans-30" x="179.199219"/>
       <use xlink:href="#DejaVuSans-35" x="242.822266"/>
       <use xlink:href="#DejaVuSans-30" x="306.445312"/>
      </g>
     </g>
    </g>
    <g id="ytick_8">
     <g id="line2d_19">
      <g>
       <use xlink:href="#m57f1f6c7ca" x="394.363636" y="275.459879" style="stroke: #000000; stroke-width: 0.8"/>
      </g>
     </g>
     <g id="text_19">
      <!-- −0.025 -->
      <g transform="translate(350.355824 279.259098)scale(0.1 -0.1)">
       <use xlink:href="#DejaVuSans-2212"/>
       <use xlink:href="#DejaVuSans-30" x="83.789062"/>
       <use xlink:href="#DejaVuSans-2e" x="147.412109"/>
       <use xlink:href="#DejaVuSans-30" x="179.199219"/>
       <use xlink:href="#DejaVuSans-32" x="242.822266"/>
       <use xlink:href="#DejaVuSans-35" x="306.445312"/>
      </g>
     </g>
    </g>
    <g id="ytick_9">
     <g id="line2d_20">
      <g>
       <use xlink:href="#m57f1f6c7ca" x="394.363636" y="242.759917" style="stroke: #000000; stroke-width: 0.8"/>
      </g>
     </g>
     <g id="text_20">
      <!-- 0.000 -->
      <g transform="translate(358.735511 246.559136)scale(0.1 -0.1)">
       <use xlink:href="#DejaVuSans-30"/>
       <use xlink:href="#DejaVuSans-2e" x="63.623047"/>
       <use xlink:href="#DejaVuSans-30" x="95.410156"/>
       <use xlink:href="#DejaVuSans-30" x="159.033203"/>
       <use xlink:href="#DejaVuSans-30" x="222.65625"/>
      </g>
     </g>
    </g>
    <g id="ytick_10">
     <g id="line2d_21">
      <g>
       <use xlink:href="#m57f1f6c7ca" x="394.363636" y="210.059956" style="stroke: #000000; stroke-width: 0.8"/>
      </g>
     </g>
     <g id="text_21">
      <!-- 0.025 -->
      <g transform="translate(358.735511 213.859174)scale(0.1 -0.1)">
       <use xlink:href="#DejaVuSans-30"/>
       <use xlink:href="#DejaVuSans-2e" x="63.623047"/>
       <use xlink:href="#DejaVuSans-30" x="95.410156"/>
       <use xlink:href="#DejaVuSans-32" x="159.033203"/>
       <use xlink:href="#DejaVuSans-35" x="222.65625"/>
      </g>
     </g>
    </g>
    <g id="ytick_11">
     <g id="line2d_22">
      <g>
       <use xlink:href="#m57f1f6c7ca" x="394.363636" y="177.359994" style="stroke: #000000; stroke-width: 0.8"/>
      </g>
     </g>
     <g id="text_22">
      <!-- 0.050 -->
      <g transform="translate(358.735511 181.159213)scale(0.1 -0.1)">
       <use xlink:href="#DejaVuSans-30"/>
       <use xlink:href="#DejaVuSans-2e" x="63.623047"/>
       <use xlink:href="#DejaVuSans-30" x="95.410156"/>
       <use xlink:href="#DejaVuSans-35" x="159.033203"/>
       <use xlink:href="#DejaVuSans-30" x="222.65625"/>
      </g>
     </g>
    </g>
    <g id="ytick_12">
     <g id="line2d_23">
      <g>
       <use xlink:href="#m57f1f6c7ca" x="394.363636" y="144.660032" style="stroke: #000000; stroke-width: 0.8"/>
      </g>
     </g>
     <g id="text_23">
      <!-- 0.075 -->
      <g transform="translate(358.735511 148.459251)scale(0.1 -0.1)">
       <defs>
        <path id="DejaVuSans-37" d="M 525 4666 
L 3525 4666 
L 3525 4397 
L 1831 0 
L 1172 0 
L 2766 4134 
L 525 4134 
L 525 4666 
z
" transform="scale(0.015625)"/>
       </defs>
       <use xlink:href="#DejaVuSans-30"/>
       <use xlink:href="#DejaVuSans-2e" x="63.623047"/>
       <use xlink:href="#DejaVuSans-30" x="95.410156"/>
       <use xlink:href="#DejaVuSans-37" x="159.033203"/>
       <use xlink:href="#DejaVuSans-35" x="222.65625"/>
      </g>
     </g>
    </g>
    <g id="ytick_13">
     <g id="line2d_24">
      <g>
       <use xlink:href="#m57f1f6c7ca" x="394.363636" y="111.960071" style="stroke: #000000; stroke-width: 0.8"/>
      </g>
     </g>
     <g id="text_24">
      <!-- 0.100 -->
      <g transform="translate(358.735511 115.759289)scale(0.1 -0.1)">
       <use xlink:href="#DejaVuSans-30"/>
       <use xlink:href="#DejaVuSans-2e" x="63.623047"/>
       <use xlink:href="#DejaVuSans-31" x="95.410156"/>
       <use xlink:href="#DejaVuSans-30" x="159.033203"/>
       <use xlink:href="#DejaVuSans-30" x="222.65625"/>
      </g>
     </g>
    </g>
   </g>
   <g id="line2d_25">
    <path d="M 405.892562 258.574312 
L 407.342741 267.256547 
L 408.792921 280.24902 
L 410.2431 290.072067 
L 411.693279 290.537129 
L 413.143459 281.757332 
L 414.593638 269.969202 
L 416.043817 261.823981 
L 417.493997 259.320871 
L 418.944176 259.825063 
L 420.394355 259.637719 
L 421.844535 257.133885 
L 423.294714 253.227029 
L 424.744893 249.705463 
L 426.195073 247.480861 
L 427.645252 246.246184 
L 430.54561 244.400473 
L 431.99579 243.616842 
L 433.445969 243.114046 
L 434.896148 242.874451 
L 437.796507 242.76562 
L 463.899735 242.7846 
L 465.349914 242.856113 
L 466.800094 243.046816 
L 469.700452 243.748825 
L 471.150632 243.434266 
L 472.600811 241.278252 
L 474.05099 236.118984 
L 475.501169 227.900098 
L 476.951349 218.562264 
L 478.401528 211.631689 
L 479.851707 210.233115 
L 481.301887 214.936549 
L 484.202245 232.186558 
L 485.652425 238.855419 
L 487.102604 242.773941 
L 488.552783 244.425425 
L 490.002963 244.607641 
L 491.453142 244.077102 
L 494.353501 242.776865 
L 495.80368 242.164024 
L 497.253859 241.369506 
L 498.704039 240.28893 
L 501.604397 237.880403 
L 503.054577 237.306111 
L 504.504756 237.544942 
L 507.405115 239.425667 
L 508.855294 239.730955 
L 510.305473 238.664208 
L 511.755653 236.033398 
L 513.205832 232.514156 
L 514.656011 229.505632 
L 516.106191 228.245978 
L 517.55637 228.828825 
L 519.006549 230.140028 
L 520.456729 230.818838 
L 521.906908 230.234288 
L 523.357087 228.620641 
L 524.807266 226.662064 
L 526.257446 225.214017 
L 527.707625 225.079094 
L 529.157804 226.461721 
L 530.607984 228.563112 
L 532.058163 230.086062 
L 533.508342 230.249106 
L 534.958522 229.149044 
L 536.408701 227.293175 
L 539.30906 222.976822 
L 540.759239 221.453729 
L 542.209418 221.394777 
L 543.659598 223.468612 
L 545.109777 227.513745 
L 546.559956 232.3854 
L 548.010136 236.602946 
L 549.460315 239.28342 
L 550.910494 240.525792 
L 552.360674 241.004122 
L 555.261032 241.473436 
L 559.61157 241.604197 
L 561.06175 242.192564 
L 562.511929 243.063635 
L 563.962108 243.766158 
L 565.412288 243.925496 
L 566.862467 243.508204 
L 571.213005 241.308431 
L 572.663184 240.928663 
L 575.563543 240.456761 
L 579.914081 239.172578 
L 581.36426 238.975804 
L 582.814439 238.939583 
L 584.264619 239.056784 
L 587.164977 239.616248 
L 588.615157 240.070673 
L 592.965695 242.082286 
L 594.415874 242.481764 
L 595.866053 242.667082 
L 597.316233 242.716373 
L 598.766412 242.648779 
L 600.216591 242.337226 
L 601.666771 241.460033 
L 603.11695 239.631708 
L 608.917667 228.600979 
L 610.367847 221.748301 
L 611.818026 206.888077 
L 613.268205 183.694519 
L 614.718385 157.582146 
L 616.168564 136.866419 
L 617.618743 127.400357 
L 619.068923 129.659898 
L 620.519102 139.740224 
L 621.969281 151.911124 
L 623.41946 161.285857 
L 624.86964 166.347541 
L 626.319819 169.55879 
L 627.769998 174.778276 
L 629.220178 183.829904 
L 632.120536 206.489587 
L 633.570716 214.516723 
L 635.020895 218.770437 
L 636.471074 220.265097 
L 636.471074 220.265097 
" clip-path="url(#pec1715bf33)" style="fill: none; stroke: #9467bd; stroke-width: 2; stroke-linecap: square"/>
   </g>
   <g id="line2d_26">
    <path d="M 405.892562 242.759917 
L 636.471074 242.759917 
L 636.471074 242.759917 
" clip-path="url(#pec1715bf33)" style="fill: none; stroke: #1f77b4; stroke-width: 2; stroke-linecap: square"/>
   </g>
   <g id="line2d_27">
    <path d="M 405.892562 242.687347 
L 407.342741 242.440377 
L 408.792921 241.496111 
L 410.2431 238.867119 
L 411.693279 233.416792 
L 414.593638 217.212845 
L 416.043817 213.340728 
L 417.493997 215.301799 
L 418.944176 220.116796 
L 420.394355 223.029414 
L 421.844535 222.107581 
L 423.294714 219.442963 
L 424.744893 218.523208 
L 426.195073 221.210427 
L 427.645252 226.794371 
L 429.095431 233.048656 
L 430.54561 237.979529 
L 431.99579 240.913176 
L 433.445969 242.313612 
L 434.896148 242.969212 
L 437.796507 243.725006 
L 439.246686 243.858383 
L 440.696866 243.72931 
L 445.047404 242.908579 
L 447.947762 242.77212 
L 465.349914 242.759917 
L 472.600811 242.789004 
L 474.05099 242.921824 
L 475.501169 243.457982 
L 476.951349 245.154844 
L 478.401528 249.324059 
L 479.851707 257.188801 
L 482.752066 279.165721 
L 484.202245 284.680434 
L 485.652425 281.69661 
L 487.102604 271.869168 
L 488.552783 260.219643 
L 490.002963 251.129689 
L 491.453142 245.953897 
L 492.903321 243.726525 
L 494.353501 242.991122 
L 495.80368 242.803074 
L 501.604397 242.759917 
L 520.456729 242.792307 
L 521.906908 242.931534 
L 523.357087 243.47488 
L 524.807266 245.105347 
L 526.257446 248.827365 
L 527.707625 255.15344 
L 529.157804 262.769061 
L 530.607984 268.309291 
L 532.058163 268.566145 
L 533.508342 263.372305 
L 534.958522 255.769607 
L 536.408701 249.2412 
L 537.85888 245.305138 
L 539.30906 243.54664 
L 540.759239 242.951036 
L 542.209418 242.796355 
L 548.010136 242.759917 
L 613.268205 242.782673 
L 614.718385 242.875482 
L 616.168564 243.216985 
L 617.618743 244.167784 
L 619.068923 246.137214 
L 621.969281 251.940362 
L 623.41946 253.162724 
L 624.86964 251.940362 
L 627.769998 246.137214 
L 629.220178 244.167784 
L 630.670357 243.216985 
L 632.120536 242.875482 
L 635.020895 242.763407 
L 636.471074 242.759917 
L 636.471074 242.759917 
" clip-path="url(#pec1715bf33)" style="fill: none; stroke: #d62728; stroke-width: 2; stroke-linecap: square"/>
   </g>
   <g id="line2d_28">
    <path d="M 405.892562 242.759917 
L 636.471074 242.759917 
L 636.471074 242.759917 
" clip-path="url(#pec1715bf33)" style="fill: none; stroke: #ff7f0e; stroke-width: 2; stroke-linecap: square"/>
   </g>
   <g id="LineCollection_1">
    <path d="M 521.877904 278.05404 
L 521.877904 144.680519 
" clip-path="url(#pec1715bf33)" style="fill: none; stroke-dasharray: 7.4,3.2; stroke-dashoffset: 0; stroke: #000000; stroke-width: 2"/>
    <path d="M 536.379697 278.05404 
L 536.379697 144.680519 
" clip-path="url(#pec1715bf33)" style="fill: none; stroke-dasharray: 7.4,3.2; stroke-dashoffset: 0; stroke: #000000; stroke-width: 2"/>
    <path d="M 565.383284 278.05404 
L 565.383284 144.680519 
" clip-path="url(#pec1715bf33)" style="fill: none; stroke-dasharray: 7.4,3.2; stroke-dashoffset: 0; stroke: #000000; stroke-width: 2"/>
    <path d="M 623.390457 278.05404 
L 623.390457 144.680519 
" clip-path="url(#pec1715bf33)" style="fill: none; stroke-dasharray: 7.4,3.2; stroke-dashoffset: 0; stroke: #000000; stroke-width: 2"/>
   </g>
   <g id="patch_8">
    <path d="M 394.363636 333.490909 
L 394.363636 86.4 
" style="fill: none; stroke: #000000; stroke-width: 0.8; stroke-linejoin: miter; stroke-linecap: square"/>
   </g>
   <g id="patch_9">
    <path d="M 648 333.490909 
L 648 86.4 
" style="fill: none; stroke: #000000; stroke-width: 0.8; stroke-linejoin: miter; stroke-linecap: square"/>
   </g>
   <g id="patch_10">
    <path d="M 394.363636 333.490909 
L 648 333.490909 
" style="fill: none; stroke: #000000; stroke-width: 0.8; stroke-linejoin: miter; stroke-linecap: square"/>
   </g>
   <g id="patch_11">
    <path d="M 394.363636 86.4 
L 648 86.4 
" style="fill: none; stroke: #000000; stroke-width: 0.8; stroke-linejoin: miter; stroke-linecap: square"/>
   </g>
   <g id="text_25">
    <!-- unit_141 -->
    <g transform="translate(495.105256 80.4)scale(0.12 -0.12)">
     <defs>
      <path id="DejaVuSans-75" d="M 544 1381 
L 544 3500 
L 1119 3500 
L 1119 1403 
Q 1119 906 1312 657 
Q 1506 409 1894 409 
Q 2359 409 2629 706 
Q 2900 1003 2900 1516 
L 2900 3500 
L 3475 3500 
L 3475 0 
L 2900 0 
L 2900 538 
Q 2691 219 2414 64 
Q 2138 -91 1772 -91 
Q 1169 -91 856 284 
Q 544 659 544 1381 
z
M 1991 3584 
L 1991 3584 
z
" transform="scale(0.015625)"/>
      <path id="DejaVuSans-6e" d="M 3513 2113 
L 3513 0 
L 2938 0 
L 2938 2094 
Q 2938 2591 2744 2837 
Q 2550 3084 2163 3084 
Q 1697 3084 1428 2787 
Q 1159 2491 1159 1978 
L 1159 0 
L 581 0 
L 581 3500 
L 1159 3500 
L 1159 2956 
Q 1366 3272 1645 3428 
Q 1925 3584 2291 3584 
Q 2894 3584 3203 3211 
Q 3513 2838 3513 2113 
z
" transform="scale(0.015625)"/>
      <path id="DejaVuSans-69" d="M 603 3500 
L 1178 3500 
L 1178 0 
L 603 0 
L 603 3500 
z
M 603 4863 
L 1178 4863 
L 1178 4134 
L 603 4134 
L 603 4863 
z
" transform="scale(0.015625)"/>
      <path id="DejaVuSans-74" d="M 1172 4494 
L 1172 3500 
L 2356 3500 
L 2356 3053 
L 1172 3053 
L 1172 1153 
Q 1172 725 1289 603 
Q 1406 481 1766 481 
L 2356 481 
L 2356 0 
L 1766 0 
Q 1100 0 847 248 
Q 594 497 594 1153 
L 594 3053 
L 172 3053 
L 172 3500 
L 594 3500 
L 594 4494 
L 1172 4494 
z
" transform="scale(0.015625)"/>
      <path id="DejaVuSans-5f" d="M 3263 -1063 
L 3263 -1509 
L -63 -1509 
L -63 -1063 
L 3263 -1063 
z
" transform="scale(0.015625)"/>
     </defs>
     <use xlink:href="#DejaVuSans-75"/>
     <use xlink:href="#DejaVuSans-6e" x="63.378906"/>
     <use xlink:href="#DejaVuSans-69" x="126.757812"/>
     <use xlink:href="#DejaVuSans-74" x="154.541016"/>
     <use xlink:href="#DejaVuSans-5f" x="193.75"/>
     <use xlink:href="#DejaVuSans-31" x="243.75"/>
     <use xlink:href="#DejaVuSans-34" x="307.373047"/>
     <use xlink:href="#DejaVuSans-31" x="370.996094"/>
    </g>
   </g>
  </g>
  <g id="axes_3">
   <g id="patch_12">
    <path d="M 90 630 
L 343.636364 630 
L 343.636364 382.909091 
L 90 382.909091 
z
" style="fill: #ffffff"/>
   </g>
   <g id="matplotlib.axis_5">
    <g id="xtick_12">
     <g id="line2d_29">
      <g>
       <use xlink:href="#mfe5a80d26a" x="90" y="630" style="stroke: #000000; stroke-width: 0.8"/>
      </g>
     </g>
     <g id="text_26">
      <!-- 0.0 -->
      <g transform="translate(82.048438 644.598437)scale(0.1 -0.1)">
       <use xlink:href="#DejaVuSans-30"/>
       <use xlink:href="#DejaVuSans-2e" x="63.623047"/>
       <use xlink:href="#DejaVuSans-30" x="95.410156"/>
      </g>
     </g>
    </g>
    <g id="xtick_13">
     <g id="line2d_30">
      <g>
       <use xlink:href="#mfe5a80d26a" x="140.727273" y="630" style="stroke: #000000; stroke-width: 0.8"/>
      </g>
     </g>
     <g id="text_27">
      <!-- 0.2 -->
      <g transform="translate(132.77571 644.598437)scale(0.1 -0.1)">
       <use xlink:href="#DejaVuSans-30"/>
       <use xlink:href="#DejaVuSans-2e" x="63.623047"/>
       <use xlink:href="#DejaVuSans-32" x="95.410156"/>
      </g>
     </g>
    </g>
    <g id="xtick_14">
     <g id="line2d_31">
      <g>
       <use xlink:href="#mfe5a80d26a" x="191.454545" y="630" style="stroke: #000000; stroke-width: 0.8"/>
      </g>
     </g>
     <g id="text_28">
      <!-- 0.4 -->
      <g transform="translate(183.502983 644.598437)scale(0.1 -0.1)">
       <use xlink:href="#DejaVuSans-30"/>
       <use xlink:href="#DejaVuSans-2e" x="63.623047"/>
       <use xlink:href="#DejaVuSans-34" x="95.410156"/>
      </g>
     </g>
    </g>
    <g id="xtick_15">
     <g id="line2d_32">
      <g>
       <use xlink:href="#mfe5a80d26a" x="242.181818" y="630" style="stroke: #000000; stroke-width: 0.8"/>
      </g>
     </g>
     <g id="text_29">
      <!-- 0.6 -->
      <g transform="translate(234.230256 644.598437)scale(0.1 -0.1)">
       <use xlink:href="#DejaVuSans-30"/>
       <use xlink:href="#DejaVuSans-2e" x="63.623047"/>
       <use xlink:href="#DejaVuSans-36" x="95.410156"/>
      </g>
     </g>
    </g>
    <g id="xtick_16">
     <g id="line2d_33">
      <g>
       <use xlink:href="#mfe5a80d26a" x="292.909091" y="630" style="stroke: #000000; stroke-width: 0.8"/>
      </g>
     </g>
     <g id="text_30">
      <!-- 0.8 -->
      <g transform="translate(284.957528 644.598437)scale(0.1 -0.1)">
       <use xlink:href="#DejaVuSans-30"/>
       <use xlink:href="#DejaVuSans-2e" x="63.623047"/>
       <use xlink:href="#DejaVuSans-38" x="95.410156"/>
      </g>
     </g>
    </g>
    <g id="xtick_17">
     <g id="line2d_34">
      <g>
       <use xlink:href="#mfe5a80d26a" x="343.636364" y="630" style="stroke: #000000; stroke-width: 0.8"/>
      </g>
     </g>
     <g id="text_31">
      <!-- 1.0 -->
      <g transform="translate(335.684801 644.598437)scale(0.1 -0.1)">
       <use xlink:href="#DejaVuSans-31"/>
       <use xlink:href="#DejaVuSans-2e" x="63.623047"/>
       <use xlink:href="#DejaVuSans-30" x="95.410156"/>
      </g>
     </g>
    </g>
   </g>
   <g id="matplotlib.axis_6">
    <g id="ytick_14">
     <g id="line2d_35">
      <g>
       <use xlink:href="#m57f1f6c7ca" x="90" y="630" style="stroke: #000000; stroke-width: 0.8"/>
      </g>
     </g>
     <g id="text_32">
      <!-- 0.0 -->
      <g transform="translate(67.096875 633.799219)scale(0.1 -0.1)">
       <use xlink:href="#DejaVuSans-30"/>
       <use xlink:href="#DejaVuSans-2e" x="63.623047"/>
       <use xlink:href="#DejaVuSans-30" x="95.410156"/>
      </g>
     </g>
    </g>
    <g id="ytick_15">
     <g id="line2d_36">
      <g>
       <use xlink:href="#m57f1f6c7ca" x="90" y="580.581818" style="stroke: #000000; stroke-width: 0.8"/>
      </g>
     </g>
     <g id="text_33">
      <!-- 0.2 -->
      <g transform="translate(67.096875 584.381037)scale(0.1 -0.1)">
       <use xlink:href="#DejaVuSans-30"/>
       <use xlink:href="#DejaVuSans-2e" x="63.623047"/>
       <use xlink:href="#DejaVuSans-32" x="95.410156"/>
      </g>
     </g>
    </g>
    <g id="ytick_16">
     <g id="line2d_37">
      <g>
       <use xlink:href="#m57f1f6c7ca" x="90" y="531.163636" style="stroke: #000000; stroke-width: 0.8"/>
      </g>
     </g>
     <g id="text_34">
      <!-- 0.4 -->
      <g transform="translate(67.096875 534.962855)scale(0.1 -0.1)">
       <use xlink:href="#DejaVuSans-30"/>
       <use xlink:href="#DejaVuSans-2e" x="63.623047"/>
       <use xlink:href="#DejaVuSans-34" x="95.410156"/>
      </g>
     </g>
    </g>
    <g id="ytick_17">
     <g id="line2d_38">
      <g>
       <use xlink:href="#m57f1f6c7ca" x="90" y="481.745455" style="stroke: #000000; stroke-width: 0.8"/>
      </g>
     </g>
     <g id="text_35">
      <!-- 0.6 -->
      <g transform="translate(67.096875 485.544673)scale(0.1 -0.1)">
       <use xlink:href="#DejaVuSans-30"/>
       <use xlink:href="#DejaVuSans-2e" x="63.623047"/>
       <use xlink:href="#DejaVuSans-36" x="95.410156"/>
      </g>
     </g>
    </g>
    <g id="ytick_18">
     <g id="line2d_39">
      <g>
       <use xlink:href="#m57f1f6c7ca" x="90" y="432.327273" style="stroke: #000000; stroke-width: 0.8"/>
      </g>
     </g>
     <g id="text_36">
      <!-- 0.8 -->
      <g transform="translate(67.096875 436.126491)scale(0.1 -0.1)">
       <use xlink:href="#DejaVuSans-30"/>
       <use xlink:href="#DejaVuSans-2e" x="63.623047"/>
       <use xlink:href="#DejaVuSans-38" x="95.410156"/>
      </g>
     </g>
    </g>
    <g id="ytick_19">
     <g id="line2d_40">
      <g>
       <use xlink:href="#m57f1f6c7ca" x="90" y="382.909091" style="stroke: #000000; stroke-width: 0.8"/>
      </g>
     </g>
     <g id="text_37">
      <!-- 1.0 -->
      <g transform="translate(67.096875 386.70831)scale(0.1 -0.1)">
       <use xlink:href="#DejaVuSans-31"/>
       <use xlink:href="#DejaVuSans-2e" x="63.623047"/>
       <use xlink:href="#DejaVuSans-30" x="95.410156"/>
      </g>
     </g>
    </g>
   </g>
   <g id="patch_13">
    <path d="M 90 630 
L 90 382.909091 
" style="fill: none; stroke: #000000; stroke-width: 0.8; stroke-linejoin: miter; stroke-linecap: square"/>
   </g>
   <g id="patch_14">
    <path d="M 343.636364 630 
L 343.636364 382.909091 
" style="fill: none; stroke: #000000; stroke-width: 0.8; stroke-linejoin: miter; stroke-linecap: square"/>
   </g>
   <g id="patch_15">
    <path d="M 90 630 
L 343.636364 630 
" style="fill: none; stroke: #000000; stroke-width: 0.8; stroke-linejoin: miter; stroke-linecap: square"/>
   </g>
   <g id="patch_16">
    <path d="M 90 382.909091 
L 343.636364 382.909091 
" style="fill: none; stroke: #000000; stroke-width: 0.8; stroke-linejoin: miter; stroke-linecap: square"/>
   </g>
  </g>
  <g id="axes_4">
   <g id="patch_17">
    <path d="M 394.363636 630 
L 648 630 
L 648 382.909091 
L 394.363636 382.909091 
z
" style="fill: #ffffff"/>
   </g>
   <g id="matplotlib.axis_7">
    <g id="xtick_18">
     <g id="line2d_41">
      <g>
       <use xlink:href="#mfe5a80d26a" x="405.863558" y="630" style="stroke: #000000; stroke-width: 0.8"/>
      </g>
     </g>
     <g id="text_38">
      <!-- 0 -->
      <g transform="translate(402.682308 644.598437)scale(0.1 -0.1)">
       <use xlink:href="#DejaVuSans-30"/>
      </g>
     </g>
    </g>
    <g id="xtick_19">
     <g id="line2d_42">
      <g>
       <use xlink:href="#mfe5a80d26a" x="463.870731" y="630" style="stroke: #000000; stroke-width: 0.8"/>
      </g>
     </g>
     <g id="text_39">
      <!-- 2000 -->
      <g transform="translate(451.145731 644.598437)scale(0.1 -0.1)">
       <use xlink:href="#DejaVuSans-32"/>
       <use xlink:href="#DejaVuSans-30" x="63.623047"/>
       <use xlink:href="#DejaVuSans-30" x="127.246094"/>
       <use xlink:href="#DejaVuSans-30" x="190.869141"/>
      </g>
     </g>
    </g>
    <g id="xtick_20">
     <g id="line2d_43">
      <g>
       <use xlink:href="#mfe5a80d26a" x="521.877904" y="630" style="stroke: #000000; stroke-width: 0.8"/>
      </g>
     </g>
     <g id="text_40">
      <!-- 4000 -->
      <g transform="translate(509.152904 644.598437)scale(0.1 -0.1)">
       <use xlink:href="#DejaVuSans-34"/>
       <use xlink:href="#DejaVuSans-30" x="63.623047"/>
       <use xlink:href="#DejaVuSans-30" x="127.246094"/>
       <use xlink:href="#DejaVuSans-30" x="190.869141"/>
      </g>
     </g>
    </g>
    <g id="xtick_21">
     <g id="line2d_44">
      <g>
       <use xlink:href="#mfe5a80d26a" x="579.885077" y="630" style="stroke: #000000; stroke-width: 0.8"/>
      </g>
     </g>
     <g id="text_41">
      <!-- 6000 -->
      <g transform="translate(567.160077 644.598437)scale(0.1 -0.1)">
       <use xlink:href="#DejaVuSans-36"/>
       <use xlink:href="#DejaVuSans-30" x="63.623047"/>
       <use xlink:href="#DejaVuSans-30" x="127.246094"/>
       <use xlink:href="#DejaVuSans-30" x="190.869141"/>
      </g>
     </g>
    </g>
    <g id="xtick_22">
     <g id="line2d_45">
      <g>
       <use xlink:href="#mfe5a80d26a" x="637.89225" y="630" style="stroke: #000000; stroke-width: 0.8"/>
      </g>
     </g>
     <g id="text_42">
      <!-- 8000 -->
      <g transform="translate(625.16725 644.598437)scale(0.1 -0.1)">
       <use xlink:href="#DejaVuSans-38"/>
       <use xlink:href="#DejaVuSans-30" x="63.623047"/>
       <use xlink:href="#DejaVuSans-30" x="127.246094"/>
       <use xlink:href="#DejaVuSans-30" x="190.869141"/>
      </g>
     </g>
    </g>
   </g>
   <g id="matplotlib.axis_8">
    <g id="ytick_20">
     <g id="line2d_46">
      <g>
       <use xlink:href="#m57f1f6c7ca" x="394.363636" y="630" style="stroke: #000000; stroke-width: 0.8"/>
      </g>
     </g>
     <g id="text_43">
      <!-- −2.0 -->
      <g transform="translate(363.080824 633.799219)scale(0.1 -0.1)">
       <use xlink:href="#DejaVuSans-2212"/>
       <use xlink:href="#DejaVuSans-32" x="83.789062"/>
       <use xlink:href="#DejaVuSans-2e" x="147.412109"/>
       <use xlink:href="#DejaVuSans-30" x="179.199219"/>
      </g>
     </g>
    </g>
    <g id="ytick_21">
     <g id="line2d_47">
      <g>
       <use xlink:href="#m57f1f6c7ca" x="394.363636" y="595.056206" style="stroke: #000000; stroke-width: 0.8"/>
      </g>
     </g>
     <g id="text_44">
      <!-- −1.5 -->
      <g transform="translate(363.080824 598.855425)scale(0.1 -0.1)">
       <use xlink:href="#DejaVuSans-2212"/>
       <use xlink:href="#DejaVuSans-31" x="83.789062"/>
       <use xlink:href="#DejaVuSans-2e" x="147.412109"/>
       <use xlink:href="#DejaVuSans-35" x="179.199219"/>
      </g>
     </g>
    </g>
    <g id="ytick_22">
     <g id="line2d_48">
      <g>
       <use xlink:href="#m57f1f6c7ca" x="394.363636" y="560.112412" style="stroke: #000000; stroke-width: 0.8"/>
      </g>
     </g>
     <g id="text_45">
      <!-- −1.0 -->
      <g transform="translate(363.080824 563.911631)scale(0.1 -0.1)">
       <use xlink:href="#DejaVuSans-2212"/>
       <use xlink:href="#DejaVuSans-31" x="83.789062"/>
       <use xlink:href="#DejaVuSans-2e" x="147.412109"/>
       <use xlink:href="#DejaVuSans-30" x="179.199219"/>
      </g>
     </g>
    </g>
    <g id="ytick_23">
     <g id="line2d_49">
      <g>
       <use xlink:href="#m57f1f6c7ca" x="394.363636" y="525.168618" style="stroke: #000000; stroke-width: 0.8"/>
      </g>
     </g>
     <g id="text_46">
      <!-- −0.5 -->
      <g transform="translate(363.080824 528.967837)scale(0.1 -0.1)">
       <use xlink:href="#DejaVuSans-2212"/>
       <use xlink:href="#DejaVuSans-30" x="83.789062"/>
       <use xlink:href="#DejaVuSans-2e" x="147.412109"/>
       <use xlink:href="#DejaVuSans-35" x="179.199219"/>
      </g>
     </g>
    </g>
    <g id="ytick_24">
     <g id="line2d_50">
      <g>
       <use xlink:href="#m57f1f6c7ca" x="394.363636" y="490.224824" style="stroke: #000000; stroke-width: 0.8"/>
      </g>
     </g>
     <g id="text_47">
      <!-- 0.0 -->
      <g transform="translate(371.460511 494.024043)scale(0.1 -0.1)">
       <use xlink:href="#DejaVuSans-30"/>
       <use xlink:href="#DejaVuSans-2e" x="63.623047"/>
       <use xlink:href="#DejaVuSans-30" x="95.410156"/>
      </g>
     </g>
    </g>
    <g id="ytick_25">
     <g id="line2d_51">
      <g>
       <use xlink:href="#m57f1f6c7ca" x="394.363636" y="455.28103" style="stroke: #000000; stroke-width: 0.8"/>
      </g>
     </g>
     <g id="text_48">
      <!-- 0.5 -->
      <g transform="translate(371.460511 459.080249)scale(0.1 -0.1)">
       <use xlink:href="#DejaVuSans-30"/>
       <use xlink:href="#DejaVuSans-2e" x="63.623047"/>
       <use xlink:href="#DejaVuSans-35" x="95.410156"/>
      </g>
     </g>
    </g>
    <g id="ytick_26">
     <g id="line2d_52">
      <g>
       <use xlink:href="#m57f1f6c7ca" x="394.363636" y="420.337236" style="stroke: #000000; stroke-width: 0.8"/>
      </g>
     </g>
     <g id="text_49">
      <!-- 1.0 -->
      <g transform="translate(371.460511 424.136454)scale(0.1 -0.1)">
       <use xlink:href="#DejaVuSans-31"/>
       <use xlink:href="#DejaVuSans-2e" x="63.623047"/>
       <use xlink:href="#DejaVuSans-30" x="95.410156"/>
      </g>
     </g>
    </g>
    <g id="ytick_27">
     <g id="line2d_53">
      <g>
       <use xlink:href="#m57f1f6c7ca" x="394.363636" y="385.393442" style="stroke: #000000; stroke-width: 0.8"/>
      </g>
     </g>
     <g id="text_50">
      <!-- 1.5 -->
      <g transform="translate(371.460511 389.19266)scale(0.1 -0.1)">
       <use xlink:href="#DejaVuSans-31"/>
       <use xlink:href="#DejaVuSans-2e" x="63.623047"/>
       <use xlink:href="#DejaVuSans-35" x="95.410156"/>
      </g>
     </g>
    </g>
   </g>
   <g id="line2d_54">
    <path d="M 405.892562 491.391498 
L 407.342741 504.809636 
L 408.792921 565.033366 
L 410.2431 655.913126 
L 411.693279 661.314988 
L 413.143459 580.647962 
L 414.593638 552.019491 
L 416.043817 572.764406 
L 417.493997 569.078848 
L 418.944176 573.76651 
L 420.394355 580.222672 
L 421.844535 582.703949 
L 423.294714 584.804841 
L 424.744893 582.602003 
L 426.195073 592.646338 
L 427.645252 566.362606 
L 429.095431 518.439687 
L 430.54561 495.075141 
L 431.99579 490.579464 
L 433.445969 490.234733 
L 447.947762 490.224824 
L 466.800094 490.232123 
L 468.250273 490.466536 
L 469.700452 493.169483 
L 471.150632 503.436066 
L 472.600811 512.477637 
L 474.05099 509.991876 
L 475.501169 529.832919 
L 476.951349 591.475038 
L 478.401528 662.07051 
L 479.851707 699.358096 
L 481.301887 665.337987 
L 482.752066 582.036305 
L 484.202245 526.943406 
L 485.652425 506.723114 
L 487.102604 499.431366 
L 488.552783 497.924247 
L 491.453142 491.153446 
L 492.903321 490.303168 
L 494.353501 490.304548 
L 495.80368 491.223823 
L 497.253859 495.433762 
L 501.604397 517.246676 
L 503.054577 520.498935 
L 504.504756 517.462867 
L 505.954935 520.726686 
L 507.405115 517.30772 
L 508.855294 502.623443 
L 510.305473 495.816699 
L 511.755653 508.729837 
L 513.205832 540.700704 
L 514.656011 569.657205 
L 516.106191 575.867743 
L 519.006549 548.166291 
L 521.906908 574.520783 
L 523.357087 574.633589 
L 524.807266 574.944814 
L 526.257446 583.070809 
L 527.707625 585.122073 
L 529.157804 526.872691 
L 530.607984 413.667622 
L 532.058163 382.909091 
L 533.508342 456.627018 
L 534.958522 513.327421 
L 536.408701 538.552654 
L 537.85888 548.222586 
L 539.30906 538.572624 
L 540.759239 517.226656 
L 542.209418 502.840697 
L 543.659598 505.691766 
L 545.109777 506.755395 
L 546.559956 498.181613 
L 548.010136 492.243027 
L 549.460315 495.589188 
L 550.910494 513.723907 
L 552.360674 529.356943 
L 553.810853 518.776224 
L 555.261032 518.414998 
L 556.711212 531.499595 
L 558.161391 530.447668 
L 559.61157 535.721198 
L 561.06175 546.220181 
L 562.511929 550.71002 
L 563.962108 546.909134 
L 565.412288 533.810387 
L 566.862467 518.658567 
L 568.312646 519.499747 
L 569.762826 525.922693 
L 571.213005 524.957012 
L 572.663184 517.983651 
L 574.113363 503.645552 
L 575.563543 496.713959 
L 577.013722 511.137715 
L 578.463901 541.258154 
L 579.914081 551.147447 
L 581.36426 534.139028 
L 582.814439 532.761846 
L 584.264619 534.52218 
L 585.714798 516.56934 
L 587.164977 511.156073 
L 588.615157 517.253532 
L 590.065336 506.398006 
L 591.515515 493.831008 
L 592.965695 490.520837 
L 594.415874 490.233763 
L 601.666771 490.248576 
L 603.11695 491.011391 
L 604.567129 499.807171 
L 606.017309 533.169926 
L 607.467488 561.029328 
L 608.917667 533.236549 
L 610.367847 502.040488 
L 611.818026 518.793285 
L 613.268205 621.891911 
L 614.473103 721 
M 615.635202 721 
L 616.168564 709.262858 
L 617.618743 610.038438 
L 619.068923 567.474478 
L 620.519102 561.275922 
L 621.969281 552.196935 
L 623.41946 529.166921 
L 624.86964 497.95328 
L 626.319819 477.586776 
L 627.769998 475.511884 
L 629.220178 471.429343 
L 630.670357 467.695374 
L 632.120536 492.138935 
L 633.570716 532.883839 
L 635.020895 558.041322 
L 636.471074 556.3569 
L 636.471074 556.3569 
" clip-path="url(#pfdc124252a)" style="fill: none; stroke: #1f77b4; stroke-width: 1.5; stroke-linecap: square"/>
   </g>
   <g id="patch_18">
    <path d="M 394.363636 630 
L 394.363636 382.909091 
" style="fill: none; stroke: #000000; stroke-width: 0.8; stroke-linejoin: miter; stroke-linecap: square"/>
   </g>
   <g id="patch_19">
    <path d="M 648 630 
L 648 382.909091 
" style="fill: none; stroke: #000000; stroke-width: 0.8; stroke-linejoin: miter; stroke-linecap: square"/>
   </g>
   <g id="patch_20">
    <path d="M 394.363636 630 
L 648 630 
" style="fill: none; stroke: #000000; stroke-width: 0.8; stroke-linejoin: miter; stroke-linecap: square"/>
   </g>
   <g id="patch_21">
    <path d="M 394.363636 382.909091 
L 648 382.909091 
" style="fill: none; stroke: #000000; stroke-width: 0.8; stroke-linejoin: miter; stroke-linecap: square"/>
   </g>
   <g id="text_51">
    <!-- explained variance -->
    <g transform="translate(464.181818 376.909091)scale(0.12 -0.12)">
     <defs>
      <path id="DejaVuSans-65" d="M 3597 1894 
L 3597 1613 
L 953 1613 
Q 991 1019 1311 708 
Q 1631 397 2203 397 
Q 2534 397 2845 478 
Q 3156 559 3463 722 
L 3463 178 
Q 3153 47 2828 -22 
Q 2503 -91 2169 -91 
Q 1331 -91 842 396 
Q 353 884 353 1716 
Q 353 2575 817 3079 
Q 1281 3584 2069 3584 
Q 2775 3584 3186 3129 
Q 3597 2675 3597 1894 
z
M 3022 2063 
Q 3016 2534 2758 2815 
Q 2500 3097 2075 3097 
Q 1594 3097 1305 2825 
Q 1016 2553 972 2059 
L 3022 2063 
z
" transform="scale(0.015625)"/>
      <path id="DejaVuSans-78" d="M 3513 3500 
L 2247 1797 
L 3578 0 
L 2900 0 
L 1881 1375 
L 863 0 
L 184 0 
L 1544 1831 
L 300 3500 
L 978 3500 
L 1906 2253 
L 2834 3500 
L 3513 3500 
z
" transform="scale(0.015625)"/>
      <path id="DejaVuSans-70" d="M 1159 525 
L 1159 -1331 
L 581 -1331 
L 581 3500 
L 1159 3500 
L 1159 2969 
Q 1341 3281 1617 3432 
Q 1894 3584 2278 3584 
Q 2916 3584 3314 3078 
Q 3713 2572 3713 1747 
Q 3713 922 3314 415 
Q 2916 -91 2278 -91 
Q 1894 -91 1617 61 
Q 1341 213 1159 525 
z
M 3116 1747 
Q 3116 2381 2855 2742 
Q 2594 3103 2138 3103 
Q 1681 3103 1420 2742 
Q 1159 2381 1159 1747 
Q 1159 1113 1420 752 
Q 1681 391 2138 391 
Q 2594 391 2855 752 
Q 3116 1113 3116 1747 
z
" transform="scale(0.015625)"/>
      <path id="DejaVuSans-6c" d="M 603 4863 
L 1178 4863 
L 1178 0 
L 603 0 
L 603 4863 
z
" transform="scale(0.015625)"/>
      <path id="DejaVuSans-61" d="M 2194 1759 
Q 1497 1759 1228 1600 
Q 959 1441 959 1056 
Q 959 750 1161 570 
Q 1363 391 1709 391 
Q 2188 391 2477 730 
Q 2766 1069 2766 1631 
L 2766 1759 
L 2194 1759 
z
M 3341 1997 
L 3341 0 
L 2766 0 
L 2766 531 
Q 2569 213 2275 61 
Q 1981 -91 1556 -91 
Q 1019 -91 701 211 
Q 384 513 384 1019 
Q 384 1609 779 1909 
Q 1175 2209 1959 2209 
L 2766 2209 
L 2766 2266 
Q 2766 2663 2505 2880 
Q 2244 3097 1772 3097 
Q 1472 3097 1187 3025 
Q 903 2953 641 2809 
L 641 3341 
Q 956 3463 1253 3523 
Q 1550 3584 1831 3584 
Q 2591 3584 2966 3190 
Q 3341 2797 3341 1997 
z
" transform="scale(0.015625)"/>
      <path id="DejaVuSans-64" d="M 2906 2969 
L 2906 4863 
L 3481 4863 
L 3481 0 
L 2906 0 
L 2906 525 
Q 2725 213 2448 61 
Q 2172 -91 1784 -91 
Q 1150 -91 751 415 
Q 353 922 353 1747 
Q 353 2572 751 3078 
Q 1150 3584 1784 3584 
Q 2172 3584 2448 3432 
Q 2725 3281 2906 2969 
z
M 947 1747 
Q 947 1113 1208 752 
Q 1469 391 1925 391 
Q 2381 391 2643 752 
Q 2906 1113 2906 1747 
Q 2906 2381 2643 2742 
Q 2381 3103 1925 3103 
Q 1469 3103 1208 2742 
Q 947 2381 947 1747 
z
" transform="scale(0.015625)"/>
      <path id="DejaVuSans-20" transform="scale(0.015625)"/>
      <path id="DejaVuSans-76" d="M 191 3500 
L 800 3500 
L 1894 563 
L 2988 3500 
L 3597 3500 
L 2284 0 
L 1503 0 
L 191 3500 
z
" transform="scale(0.015625)"/>
      <path id="DejaVuSans-72" d="M 2631 2963 
Q 2534 3019 2420 3045 
Q 2306 3072 2169 3072 
Q 1681 3072 1420 2755 
Q 1159 2438 1159 1844 
L 1159 0 
L 581 0 
L 581 3500 
L 1159 3500 
L 1159 2956 
Q 1341 3275 1631 3429 
Q 1922 3584 2338 3584 
Q 2397 3584 2469 3576 
Q 2541 3569 2628 3553 
L 2631 2963 
z
" transform="scale(0.015625)"/>
      <path id="DejaVuSans-63" d="M 3122 3366 
L 3122 2828 
Q 2878 2963 2633 3030 
Q 2388 3097 2138 3097 
Q 1578 3097 1268 2742 
Q 959 2388 959 1747 
Q 959 1106 1268 751 
Q 1578 397 2138 397 
Q 2388 397 2633 464 
Q 2878 531 3122 666 
L 3122 134 
Q 2881 22 2623 -34 
Q 2366 -91 2075 -91 
Q 1284 -91 818 406 
Q 353 903 353 1747 
Q 353 2603 823 3093 
Q 1294 3584 2113 3584 
Q 2378 3584 2631 3529 
Q 2884 3475 3122 3366 
z
" transform="scale(0.015625)"/>
     </defs>
     <use xlink:href="#DejaVuSans-65"/>
     <use xlink:href="#DejaVuSans-78" x="59.773438"/>
     <use xlink:href="#DejaVuSans-70" x="118.953125"/>
     <use xlink:href="#DejaVuSans-6c" x="182.429688"/>
     <use xlink:href="#DejaVuSans-61" x="210.212891"/>
     <use xlink:href="#DejaVuSans-69" x="271.492188"/>
     <use xlink:href="#DejaVuSans-6e" x="299.275391"/>
     <use xlink:href="#DejaVuSans-65" x="362.654297"/>
     <use xlink:href="#DejaVuSans-64" x="424.177734"/>
     <use xlink:href="#DejaVuSans-20" x="487.654297"/>
     <use xlink:href="#DejaVuSans-76" x="519.441406"/>
     <use xlink:href="#DejaVuSans-61" x="578.621094"/>
     <use xlink:href="#DejaVuSans-72" x="639.900391"/>
     <use xlink:href="#DejaVuSans-69" x="681.013672"/>
     <use xlink:href="#DejaVuSans-61" x="708.796875"/>
     <use xlink:href="#DejaVuSans-6e" x="770.076172"/>
     <use xlink:href="#DejaVuSans-63" x="833.455078"/>
     <use xlink:href="#DejaVuSans-65" x="888.435547"/>
    </g>
   </g>
  </g>
 </g>
 <defs>
  <clipPath id="pec1715bf33">
   <rect x="394.363636" y="86.4" width="253.636364" height="247.090909"/>
  </clipPath>
  <clipPath id="pfdc124252a">
   <rect x="394.363636" y="382.909091" width="253.636364" height="247.090909"/>
  </clipPath>
 </defs>
</svg>
