<?xml version="1.0" encoding="utf-8" standalone="no"?>
<!DOCTYPE svg PUBLIC "-//W3C//DTD SVG 1.1//EN"
  "http://www.w3.org/Graphics/SVG/1.1/DTD/svg11.dtd">
<svg xmlns:xlink="http://www.w3.org/1999/xlink" width="720pt" height="720pt" viewBox="0 0 720 720" xmlns="http://www.w3.org/2000/svg" version="1.1">
 <metadata>
  <rdf:RDF xmlns:dc="http://purl.org/dc/elements/1.1/" xmlns:cc="http://creativecommons.org/ns#" xmlns:rdf="http://www.w3.org/1999/02/22-rdf-syntax-ns#">
   <cc:Work>
    <dc:type rdf:resource="http://purl.org/dc/dcmitype/StillImage"/>
    <dc:date>2023-12-19T18:24:03.495285</dc:date>
    <dc:format>image/svg+xml</dc:format>
    <dc:creator>
     <cc:Agent>
      <dc:title>Matplotlib v3.5.2, https://matplotlib.org/</dc:title>
     </cc:Agent>
    </dc:creator>
   </cc:Work>
  </rdf:RDF>
 </metadata>
 <defs>
  <style type="text/css">*{stroke-linejoin: round; stroke-linecap: butt}</style>
 </defs>
 <g id="figure_1">
  <g id="patch_1">
   <path d="M 0 720 
L 720 720 
L 720 0 
L 0 0 
z
" style="fill: #ffffff"/>
  </g>
  <g id="axes_1">
   <g id="patch_2">
    <path d="M 90 333.490909 
L 343.636364 333.490909 
L 343.636364 86.4 
L 90 86.4 
z
" style="fill: #ffffff"/>
   </g>
   <g id="matplotlib.axis_1">
    <g id="xtick_1">
     <g id="line2d_1">
      <defs>
       <path id="m1554a39c6b" d="M 0 0 
L 0 3.5 
" style="stroke: #000000; stroke-width: 0.8"/>
      </defs>
      <g>
       <use xlink:href="#m1554a39c6b" x="90" y="333.490909" style="stroke: #000000; stroke-width: 0.8"/>
      </g>
     </g>
     <g id="text_1">
      <!-- 0.0 -->
      <g transform="translate(82.048438 348.089347)scale(0.1 -0.1)">
       <defs>
        <path id="DejaVuSans-30" d="M 2034 4250 
Q 1547 4250 1301 3770 
Q 1056 3291 1056 2328 
Q 1056 1369 1301 889 
Q 1547 409 2034 409 
Q 2525 409 2770 889 
Q 3016 1369 3016 2328 
Q 3016 3291 2770 3770 
Q 2525 4250 2034 4250 
z
M 2034 4750 
Q 2819 4750 3233 4129 
Q 3647 3509 3647 2328 
Q 3647 1150 3233 529 
Q 2819 -91 2034 -91 
Q 1250 -91 836 529 
Q 422 1150 422 2328 
Q 422 3509 836 4129 
Q 1250 4750 2034 4750 
z
" transform="scale(0.015625)"/>
        <path id="DejaVuSans-2e" d="M 684 794 
L 1344 794 
L 1344 0 
L 684 0 
L 684 794 
z
" transform="scale(0.015625)"/>
       </defs>
       <use xlink:href="#DejaVuSans-30"/>
       <use xlink:href="#DejaVuSans-2e" x="63.623047"/>
       <use xlink:href="#DejaVuSans-30" x="95.410156"/>
      </g>
     </g>
    </g>
    <g id="xtick_2">
     <g id="line2d_2">
      <g>
       <use xlink:href="#m1554a39c6b" x="140.727273" y="333.490909" style="stroke: #000000; stroke-width: 0.8"/>
      </g>
     </g>
     <g id="text_2">
      <!-- 0.2 -->
      <g transform="translate(132.77571 348.089347)scale(0.1 -0.1)">
       <defs>
        <path id="DejaVuSans-32" d="M 1228 531 
L 3431 531 
L 3431 0 
L 469 0 
L 469 531 
Q 828 903 1448 1529 
Q 2069 2156 2228 2338 
Q 2531 2678 2651 2914 
Q 2772 3150 2772 3378 
Q 2772 3750 2511 3984 
Q 2250 4219 1831 4219 
Q 1534 4219 1204 4116 
Q 875 4013 500 3803 
L 500 4441 
Q 881 4594 1212 4672 
Q 1544 4750 1819 4750 
Q 2544 4750 2975 4387 
Q 3406 4025 3406 3419 
Q 3406 3131 3298 2873 
Q 3191 2616 2906 2266 
Q 2828 2175 2409 1742 
Q 1991 1309 1228 531 
z
" transform="scale(0.015625)"/>
       </defs>
       <use xlink:href="#DejaVuSans-30"/>
       <use xlink:href="#DejaVuSans-2e" x="63.623047"/>
       <use xlink:href="#DejaVuSans-32" x="95.410156"/>
      </g>
     </g>
    </g>
    <g id="xtick_3">
     <g id="line2d_3">
      <g>
       <use xlink:href="#m1554a39c6b" x="191.454545" y="333.490909" style="stroke: #000000; stroke-width: 0.8"/>
      </g>
     </g>
     <g id="text_3">
      <!-- 0.4 -->
      <g transform="translate(183.502983 348.089347)scale(0.1 -0.1)">
       <defs>
        <path id="DejaVuSans-34" d="M 2419 4116 
L 825 1625 
L 2419 1625 
L 2419 4116 
z
M 2253 4666 
L 3047 4666 
L 3047 1625 
L 3713 1625 
L 3713 1100 
L 3047 1100 
L 3047 0 
L 2419 0 
L 2419 1100 
L 313 1100 
L 313 1709 
L 2253 4666 
z
" transform="scale(0.015625)"/>
       </defs>
       <use xlink:href="#DejaVuSans-30"/>
       <use xlink:href="#DejaVuSans-2e" x="63.623047"/>
       <use xlink:href="#DejaVuSans-34" x="95.410156"/>
      </g>
     </g>
    </g>
    <g id="xtick_4">
     <g id="line2d_4">
      <g>
       <use xlink:href="#m1554a39c6b" x="242.181818" y="333.490909" style="stroke: #000000; stroke-width: 0.8"/>
      </g>
     </g>
     <g id="text_4">
      <!-- 0.6 -->
      <g transform="translate(234.230256 348.089347)scale(0.1 -0.1)">
       <defs>
        <path id="DejaVuSans-36" d="M 2113 2584 
Q 1688 2584 1439 2293 
Q 1191 2003 1191 1497 
Q 1191 994 1439 701 
Q 1688 409 2113 409 
Q 2538 409 2786 701 
Q 3034 994 3034 1497 
Q 3034 2003 2786 2293 
Q 2538 2584 2113 2584 
z
M 3366 4563 
L 3366 3988 
Q 3128 4100 2886 4159 
Q 2644 4219 2406 4219 
Q 1781 4219 1451 3797 
Q 1122 3375 1075 2522 
Q 1259 2794 1537 2939 
Q 1816 3084 2150 3084 
Q 2853 3084 3261 2657 
Q 3669 2231 3669 1497 
Q 3669 778 3244 343 
Q 2819 -91 2113 -91 
Q 1303 -91 875 529 
Q 447 1150 447 2328 
Q 447 3434 972 4092 
Q 1497 4750 2381 4750 
Q 2619 4750 2861 4703 
Q 3103 4656 3366 4563 
z
" transform="scale(0.015625)"/>
       </defs>
       <use xlink:href="#DejaVuSans-30"/>
       <use xlink:href="#DejaVuSans-2e" x="63.623047"/>
       <use xlink:href="#DejaVuSans-36" x="95.410156"/>
      </g>
     </g>
    </g>
    <g id="xtick_5">
     <g id="line2d_5">
      <g>
       <use xlink:href="#m1554a39c6b" x="292.909091" y="333.490909" style="stroke: #000000; stroke-width: 0.8"/>
      </g>
     </g>
     <g id="text_5">
      <!-- 0.8 -->
      <g transform="translate(284.957528 348.089347)scale(0.1 -0.1)">
       <defs>
        <path id="DejaVuSans-38" d="M 2034 2216 
Q 1584 2216 1326 1975 
Q 1069 1734 1069 1313 
Q 1069 891 1326 650 
Q 1584 409 2034 409 
Q 2484 409 2743 651 
Q 3003 894 3003 1313 
Q 3003 1734 2745 1975 
Q 2488 2216 2034 2216 
z
M 1403 2484 
Q 997 2584 770 2862 
Q 544 3141 544 3541 
Q 544 4100 942 4425 
Q 1341 4750 2034 4750 
Q 2731 4750 3128 4425 
Q 3525 4100 3525 3541 
Q 3525 3141 3298 2862 
Q 3072 2584 2669 2484 
Q 3125 2378 3379 2068 
Q 3634 1759 3634 1313 
Q 3634 634 3220 271 
Q 2806 -91 2034 -91 
Q 1263 -91 848 271 
Q 434 634 434 1313 
Q 434 1759 690 2068 
Q 947 2378 1403 2484 
z
M 1172 3481 
Q 1172 3119 1398 2916 
Q 1625 2713 2034 2713 
Q 2441 2713 2670 2916 
Q 2900 3119 2900 3481 
Q 2900 3844 2670 4047 
Q 2441 4250 2034 4250 
Q 1625 4250 1398 4047 
Q 1172 3844 1172 3481 
z
" transform="scale(0.015625)"/>
       </defs>
       <use xlink:href="#DejaVuSans-30"/>
       <use xlink:href="#DejaVuSans-2e" x="63.623047"/>
       <use xlink:href="#DejaVuSans-38" x="95.410156"/>
      </g>
     </g>
    </g>
    <g id="xtick_6">
     <g id="line2d_6">
      <g>
       <use xlink:href="#m1554a39c6b" x="343.636364" y="333.490909" style="stroke: #000000; stroke-width: 0.8"/>
      </g>
     </g>
     <g id="text_6">
      <!-- 1.0 -->
      <g transform="translate(335.684801 348.089347)scale(0.1 -0.1)">
       <defs>
        <path id="DejaVuSans-31" d="M 794 531 
L 1825 531 
L 1825 4091 
L 703 3866 
L 703 4441 
L 1819 4666 
L 2450 4666 
L 2450 531 
L 3481 531 
L 3481 0 
L 794 0 
L 794 531 
z
" transform="scale(0.015625)"/>
       </defs>
       <use xlink:href="#DejaVuSans-31"/>
       <use xlink:href="#DejaVuSans-2e" x="63.623047"/>
       <use xlink:href="#DejaVuSans-30" x="95.410156"/>
      </g>
     </g>
    </g>
   </g>
   <g id="matplotlib.axis_2">
    <g id="ytick_1">
     <g id="line2d_7">
      <defs>
       <path id="m7cc5737df3" d="M 0 0 
L -3.5 0 
" style="stroke: #000000; stroke-width: 0.8"/>
      </defs>
      <g>
       <use xlink:href="#m7cc5737df3" x="90" y="333.490909" style="stroke: #000000; stroke-width: 0.8"/>
      </g>
     </g>
     <g id="text_7">
      <!-- 0.0 -->
      <g transform="translate(67.096875 337.290128)scale(0.1 -0.1)">
       <use xlink:href="#DejaVuSans-30"/>
       <use xlink:href="#DejaVuSans-2e" x="63.623047"/>
       <use xlink:href="#DejaVuSans-30" x="95.410156"/>
      </g>
     </g>
    </g>
    <g id="ytick_2">
     <g id="line2d_8">
      <g>
       <use xlink:href="#m7cc5737df3" x="90" y="284.072727" style="stroke: #000000; stroke-width: 0.8"/>
      </g>
     </g>
     <g id="text_8">
      <!-- 0.2 -->
      <g transform="translate(67.096875 287.871946)scale(0.1 -0.1)">
       <use xlink:href="#DejaVuSans-30"/>
       <use xlink:href="#DejaVuSans-2e" x="63.623047"/>
       <use xlink:href="#DejaVuSans-32" x="95.410156"/>
      </g>
     </g>
    </g>
    <g id="ytick_3">
     <g id="line2d_9">
      <g>
       <use xlink:href="#m7cc5737df3" x="90" y="234.654545" style="stroke: #000000; stroke-width: 0.8"/>
      </g>
     </g>
     <g id="text_9">
      <!-- 0.4 -->
      <g transform="translate(67.096875 238.453764)scale(0.1 -0.1)">
       <use xlink:href="#DejaVuSans-30"/>
       <use xlink:href="#DejaVuSans-2e" x="63.623047"/>
       <use xlink:href="#DejaVuSans-34" x="95.410156"/>
      </g>
     </g>
    </g>
    <g id="ytick_4">
     <g id="line2d_10">
      <g>
       <use xlink:href="#m7cc5737df3" x="90" y="185.236364" style="stroke: #000000; stroke-width: 0.8"/>
      </g>
     </g>
     <g id="text_10">
      <!-- 0.6 -->
      <g transform="translate(67.096875 189.035582)scale(0.1 -0.1)">
       <use xlink:href="#DejaVuSans-30"/>
       <use xlink:href="#DejaVuSans-2e" x="63.623047"/>
       <use xlink:href="#DejaVuSans-36" x="95.410156"/>
      </g>
     </g>
    </g>
    <g id="ytick_5">
     <g id="line2d_11">
      <g>
       <use xlink:href="#m7cc5737df3" x="90" y="135.818182" style="stroke: #000000; stroke-width: 0.8"/>
      </g>
     </g>
     <g id="text_11">
      <!-- 0.8 -->
      <g transform="translate(67.096875 139.617401)scale(0.1 -0.1)">
       <use xlink:href="#DejaVuSans-30"/>
       <use xlink:href="#DejaVuSans-2e" x="63.623047"/>
       <use xlink:href="#DejaVuSans-38" x="95.410156"/>
      </g>
     </g>
    </g>
    <g id="ytick_6">
     <g id="line2d_12">
      <g>
       <use xlink:href="#m7cc5737df3" x="90" y="86.4" style="stroke: #000000; stroke-width: 0.8"/>
      </g>
     </g>
     <g id="text_12">
      <!-- 1.0 -->
      <g transform="translate(67.096875 90.199219)scale(0.1 -0.1)">
       <use xlink:href="#DejaVuSans-31"/>
       <use xlink:href="#DejaVuSans-2e" x="63.623047"/>
       <use xlink:href="#DejaVuSans-30" x="95.410156"/>
      </g>
     </g>
    </g>
   </g>
   <g id="patch_3">
    <path d="M 90 333.490909 
L 90 86.4 
" style="fill: none; stroke: #000000; stroke-width: 0.8; stroke-linejoin: miter; stroke-linecap: square"/>
   </g>
   <g id="patch_4">
    <path d="M 343.636364 333.490909 
L 343.636364 86.4 
" style="fill: none; stroke: #000000; stroke-width: 0.8; stroke-linejoin: miter; stroke-linecap: square"/>
   </g>
   <g id="patch_5">
    <path d="M 90 333.490909 
L 343.636364 333.490909 
" style="fill: none; stroke: #000000; stroke-width: 0.8; stroke-linejoin: miter; stroke-linecap: square"/>
   </g>
   <g id="patch_6">
    <path d="M 90 86.4 
L 343.636364 86.4 
" style="fill: none; stroke: #000000; stroke-width: 0.8; stroke-linejoin: miter; stroke-linecap: square"/>
   </g>
  </g>
  <g id="axes_2">
   <g id="patch_7">
    <path d="M 394.363636 333.490909 
L 648 333.490909 
L 648 86.4 
L 394.363636 86.4 
z
" style="fill: #ffffff"/>
   </g>
   <g id="PolyCollection_1">
    <defs>
     <path id="m52f64aa211" d="M 405.892562 -499.951166 
L 405.892562 -499.951166 
L 407.342741 -499.954819 
L 408.792921 -499.978616 
L 410.2431 -500.095801 
L 411.693279 -500.549789 
L 413.143459 -501.900188 
L 414.593638 -504.950457 
L 416.043817 -510.072003 
L 417.493997 -516.148988 
L 418.944176 -511.256042 
L 420.394355 -508.263985 
L 421.844535 -517.757307 
L 423.294714 -514.017638 
L 424.744893 -512.353858 
L 426.195073 -512.68685 
L 427.645252 -501.188222 
L 429.095431 -510.941637 
L 430.54561 -507.628091 
L 431.99579 -504.72203 
L 433.445969 -503.852709 
L 434.896148 -505.809856 
L 436.346328 -510.853669 
L 437.796507 -509.954994 
L 439.246686 -527.951358 
L 440.696866 -522.109532 
L 442.147045 -530.128392 
L 443.597224 -519.207459 
L 445.047404 -524.987265 
L 446.497583 -516.6475 
L 447.947762 -512.653544 
L 449.397942 -514.34119 
L 450.848121 -520.104258 
L 452.2983 -515.882617 
L 453.74848 -531.707964 
L 455.198659 -526.654755 
L 456.648838 -523.95181 
L 458.099018 -517.102996 
L 459.549197 -517.778116 
L 460.999376 -511.434351 
L 462.449556 -507.761634 
L 463.899735 -506.556269 
L 465.349914 -497.271644 
L 466.800094 -504.489408 
L 468.250273 -492.561738 
L 469.700452 -488.374064 
L 471.150632 -496.774483 
L 472.600811 -496.932863 
L 474.05099 -498.022841 
L 475.501169 -499.057302 
L 476.951349 -499.666355 
L 478.401528 -500.017967 
L 479.851707 -500.528693 
L 481.301887 -501.773226 
L 482.752066 -504.294532 
L 484.202245 -507.92847 
L 485.652425 -511.135554 
L 487.102604 -504.278521 
L 488.552783 -508.347471 
L 490.002963 -502.966676 
L 491.453142 -489.913321 
L 492.903321 -496.571108 
L 494.353501 -496.983306 
L 495.80368 -498.306611 
L 497.253859 -499.685008 
L 498.704039 -501.288712 
L 500.154218 -503.867718 
L 501.604397 -507.918461 
L 503.054577 -513.000743 
L 504.504756 -510.651348 
L 505.954935 -520.896611 
L 507.405115 -511.500465 
L 508.855294 -511.845416 
L 510.305473 -516.99797 
L 511.755653 -509.612998 
L 513.205832 -517.610953 
L 514.656011 -524.087503 
L 516.106191 -517.749987 
L 517.55637 -525.933836 
L 519.006549 -522.869026 
L 520.456729 -532.202135 
L 521.906908 -514.713362 
L 523.357087 -500.386608 
L 524.807266 -492.925638 
L 526.257446 -499.85225 
L 527.707625 -499.786868 
L 529.157804 -496.230703 
L 530.607984 -502.066318 
L 532.058163 -502.583591 
L 533.508342 -503.345757 
L 534.958522 -504.608649 
L 536.408701 -505.60527 
L 537.85888 -494.01764 
L 539.30906 -496.680044 
L 540.759239 -504.182283 
L 542.209418 -507.333303 
L 543.659598 -514.344921 
L 545.109777 -523.009979 
L 546.559956 -511.398229 
L 548.010136 -512.909075 
L 549.460315 -522.410792 
L 550.910494 -513.82798 
L 552.360674 -506.72815 
L 553.810853 -502.564664 
L 555.261032 -500.746152 
L 556.711212 -500.141636 
L 558.161391 -499.987056 
L 559.61157 -499.955798 
L 561.06175 -499.951166 
L 562.511929 -499.951166 
L 563.962108 -499.951166 
L 565.412288 -499.951166 
L 566.862467 -499.951166 
L 568.312646 -499.951166 
L 569.762826 -499.951166 
L 571.213005 -499.951166 
L 572.663184 -499.951166 
L 574.113363 -499.951166 
L 575.563543 -499.951166 
L 577.013722 -499.951166 
L 578.463901 -499.951166 
L 579.914081 -499.951166 
L 581.36426 -499.951166 
L 582.814439 -499.951166 
L 584.264619 -499.951166 
L 585.714798 -499.951166 
L 587.164977 -499.951166 
L 588.615157 -499.951166 
L 590.065336 -499.951166 
L 591.515515 -499.951166 
L 592.965695 -499.951166 
L 594.415874 -499.951166 
L 595.866053 -499.951166 
L 597.316233 -499.951166 
L 598.766412 -499.951166 
L 600.216591 -499.951166 
L 601.666771 -499.951166 
L 603.11695 -499.951166 
L 604.567129 -499.951166 
L 606.017309 -499.951166 
L 607.467488 -499.949027 
L 608.917667 -499.933939 
L 610.367847 -499.856233 
L 611.818026 -499.54471 
L 613.268205 -498.568798 
L 614.718385 -496.20242 
L 616.168564 -491.814408 
L 617.618743 -485.766384 
L 619.068923 -472.221357 
L 620.519102 -465.079806 
L 621.969281 -467.952552 
L 623.41946 -484.587295 
L 624.86964 -490.136759 
L 626.319819 -493.043708 
L 627.769998 -491.904623 
L 629.220178 -487.287428 
L 630.670357 -481.659277 
L 632.120536 -467.571063 
L 633.570716 -478.205962 
L 635.020895 -480.508186 
L 636.471074 -475.363745 
L 636.471074 -489.643959 
L 636.471074 -489.643959 
L 635.020895 -480.508186 
L 633.570716 -478.205962 
L 632.120536 -488.730434 
L 630.670357 -481.659277 
L 629.220178 -487.287428 
L 627.769998 -491.904623 
L 626.319819 -493.043708 
L 624.86964 -490.136759 
L 623.41946 -484.587295 
L 621.969281 -490.680507 
L 620.519102 -489.712802 
L 619.068923 -487.852643 
L 617.618743 -485.766384 
L 616.168564 -491.814408 
L 614.718385 -496.20242 
L 613.268205 -498.568798 
L 611.818026 -499.54471 
L 610.367847 -499.856233 
L 608.917667 -499.933939 
L 607.467488 -499.949027 
L 606.017309 -499.951166 
L 604.567129 -499.951166 
L 603.11695 -499.951166 
L 601.666771 -499.951166 
L 600.216591 -499.951166 
L 598.766412 -499.951166 
L 597.316233 -499.951166 
L 595.866053 -499.951166 
L 594.415874 -499.951166 
L 592.965695 -499.951166 
L 591.515515 -499.951166 
L 590.065336 -499.951166 
L 588.615157 -499.951166 
L 587.164977 -499.951166 
L 585.714798 -499.951166 
L 584.264619 -499.951166 
L 582.814439 -499.951166 
L 581.36426 -499.951166 
L 579.914081 -499.951166 
L 578.463901 -499.951166 
L 577.013722 -499.951166 
L 575.563543 -499.951166 
L 574.113363 -499.951166 
L 572.663184 -499.951166 
L 571.213005 -499.951166 
L 569.762826 -499.951166 
L 568.312646 -499.951166 
L 566.862467 -499.951166 
L 565.412288 -499.951166 
L 563.962108 -499.951166 
L 562.511929 -499.951166 
L 561.06175 -499.951166 
L 559.61157 -499.955798 
L 558.161391 -499.987056 
L 556.711212 -500.141636 
L 555.261032 -500.746152 
L 553.810853 -502.564664 
L 552.360674 -506.72815 
L 550.910494 -513.82798 
L 549.460315 -522.410792 
L 548.010136 -544.457569 
L 546.559956 -546.539298 
L 545.109777 -523.009979 
L 543.659598 -514.344921 
L 542.209418 -507.333303 
L 540.759239 -504.182283 
L 539.30906 -511.871687 
L 537.85888 -516.763884 
L 536.408701 -505.60527 
L 534.958522 -504.608649 
L 533.508342 -503.345757 
L 532.058163 -502.583591 
L 530.607984 -502.066318 
L 529.157804 -505.928454 
L 527.707625 -499.786868 
L 526.257446 -499.85225 
L 524.807266 -513.847477 
L 523.357087 -521.903613 
L 521.906908 -528.803081 
L 520.456729 -532.202135 
L 519.006549 -554.643295 
L 517.55637 -551.552121 
L 516.106191 -547.475573 
L 514.656011 -524.087503 
L 513.205832 -517.610953 
L 511.755653 -521.332183 
L 510.305473 -516.99797 
L 508.855294 -527.741066 
L 507.405115 -531.533159 
L 505.954935 -520.896611 
L 504.504756 -524.943842 
L 503.054577 -513.000743 
L 501.604397 -507.918461 
L 500.154218 -503.867718 
L 498.704039 -501.288712 
L 497.253859 -499.685008 
L 495.80368 -498.306611 
L 494.353501 -496.983306 
L 492.903321 -496.571108 
L 491.453142 -506.973126 
L 490.002963 -502.966676 
L 488.552783 -508.347471 
L 487.102604 -518.943805 
L 485.652425 -511.135554 
L 484.202245 -507.92847 
L 482.752066 -504.294532 
L 481.301887 -501.773226 
L 479.851707 -500.528693 
L 478.401528 -500.017967 
L 476.951349 -499.666355 
L 475.501169 -499.057302 
L 474.05099 -498.022841 
L 472.600811 -496.932863 
L 471.150632 -496.774483 
L 469.700452 -508.462677 
L 468.250273 -510.458948 
L 466.800094 -504.489408 
L 465.349914 -514.847475 
L 463.899735 -506.556269 
L 462.449556 -507.761634 
L 460.999376 -511.434351 
L 459.549197 -517.778116 
L 458.099018 -533.048374 
L 456.648838 -537.672329 
L 455.198659 -539.740883 
L 453.74848 -531.707964 
L 452.2983 -537.765832 
L 450.848121 -520.104258 
L 449.397942 -514.34119 
L 447.947762 -512.653544 
L 446.497583 -516.6475 
L 445.047404 -524.987265 
L 443.597224 -547.972991 
L 442.147045 -545.526981 
L 440.696866 -548.852203 
L 439.246686 -527.951358 
L 437.796507 -527.489066 
L 436.346328 -510.853669 
L 434.896148 -505.809856 
L 433.445969 -503.852709 
L 431.99579 -504.72203 
L 430.54561 -507.628091 
L 429.095431 -510.941637 
L 427.645252 -524.383555 
L 426.195073 -512.68685 
L 424.744893 -512.353858 
L 423.294714 -514.017638 
L 421.844535 -517.757307 
L 420.394355 -533.567718 
L 418.944176 -529.789723 
L 417.493997 -516.148988 
L 416.043817 -510.072003 
L 414.593638 -504.950457 
L 413.143459 -501.900188 
L 411.693279 -500.549789 
L 410.2431 -500.095801 
L 408.792921 -499.978616 
L 407.342741 -499.954819 
L 405.892562 -499.951166 
z
" style="stroke: #9467bd; stroke-opacity: 0.2"/>
    </defs>
    <g clip-path="url(#p56d833390d)">
     <use xlink:href="#m52f64aa211" x="0" y="720" style="fill: #9467bd; fill-opacity: 0.2; stroke: #9467bd; stroke-opacity: 0.2"/>
    </g>
   </g>
   <g id="PolyCollection_2">
    <defs>
     <path id="m43ace5d803" d="M 405.892562 -488.055028 
L 405.892562 -484.292563 
L 407.342741 -479.87385 
L 408.792921 -459.939242 
L 410.2431 -481.735797 
L 411.693279 -477.802297 
L 413.143459 -485.093352 
L 414.593638 -475.92937 
L 416.043817 -489.14243 
L 417.493997 -494.595407 
L 418.944176 -498.363014 
L 420.394355 -501.209634 
L 421.844535 -498.972916 
L 423.294714 -502.811423 
L 424.744893 -499.937758 
L 426.195073 -501.884815 
L 427.645252 -501.397831 
L 429.095431 -501.476577 
L 430.54561 -501.11448 
L 431.99579 -501.724139 
L 433.445969 -492.638118 
L 434.896148 -491.339267 
L 436.346328 -482.534502 
L 437.796507 -478.680384 
L 439.246686 -443.528622 
L 440.696866 -484.648727 
L 442.147045 -498.200466 
L 443.597224 -512.184586 
L 445.047404 -495.542849 
L 446.497583 -506.64241 
L 447.947762 -510.268539 
L 449.397942 -500.065726 
L 450.848121 -475.16758 
L 452.2983 -493.20349 
L 453.74848 -490.226027 
L 455.198659 -498.64798 
L 456.648838 -499.218705 
L 458.099018 -497.430282 
L 459.549197 -493.855202 
L 460.999376 -489.636821 
L 462.449556 -477.283187 
L 463.899735 -475.147679 
L 465.349914 -486.971712 
L 466.800094 -487.430999 
L 468.250273 -484.989924 
L 469.700452 -480.096245 
L 471.150632 -457.900601 
L 472.600811 -459.376064 
L 474.05099 -477.366429 
L 475.501169 -480.530788 
L 476.951349 -474.732421 
L 478.401528 -482.817125 
L 479.851707 -467.733077 
L 481.301887 -482.711406 
L 482.752066 -478.286866 
L 484.202245 -477.697266 
L 485.652425 -447.816861 
L 487.102604 -477.121788 
L 488.552783 -474.419183 
L 490.002963 -488.125192 
L 491.453142 -492.573561 
L 492.903321 -494.126768 
L 494.353501 -493.081259 
L 495.80368 -491.04882 
L 497.253859 -476.730594 
L 498.704039 -491.041236 
L 500.154218 -493.450599 
L 501.604397 -495.915007 
L 503.054577 -495.566727 
L 504.504756 -498.642148 
L 505.954935 -499.236935 
L 507.405115 -499.605382 
L 508.855294 -499.812621 
L 510.305473 -499.907245 
L 511.755653 -499.940061 
L 513.205832 -499.948979 
L 514.656011 -499.950831 
L 516.106191 -499.951166 
L 517.55637 -499.951166 
L 519.006549 -499.951166 
L 520.456729 -499.951166 
L 521.906908 -499.951166 
L 523.357087 -499.952532 
L 524.807266 -499.960075 
L 526.257446 -499.996408 
L 527.707625 -500.130103 
L 529.157804 -500.502331 
L 530.607984 -501.273342 
L 532.058163 -502.422332 
L 533.508342 -503.549962 
L 534.958522 -497.989365 
L 536.408701 -503.616153 
L 537.85888 -502.585449 
L 539.30906 -501.499588 
L 540.759239 -500.520607 
L 542.209418 -499.393517 
L 543.659598 -493.517052 
L 545.109777 -487.953391 
L 546.559956 -495.842958 
L 548.010136 -495.156028 
L 549.460315 -494.009065 
L 550.910494 -493.207263 
L 552.360674 -480.340417 
L 553.810853 -488.154943 
L 555.261032 -494.185985 
L 556.711212 -491.51348 
L 558.161391 -483.823905 
L 559.61157 -471.757631 
L 561.06175 -445.550442 
L 562.511929 -404.321897 
L 563.962108 -450.837941 
L 565.412288 -450.719131 
L 566.862467 -471.977413 
L 568.312646 -467.76497 
L 569.762826 -467.64474 
L 571.213005 -483.668122 
L 572.663184 -485.146396 
L 574.113363 -471.20241 
L 575.563543 -483.673969 
L 577.013722 -482.008445 
L 578.463901 -465.306411 
L 579.914081 -458.327571 
L 581.36426 -468.527896 
L 582.814439 -439.421327 
L 584.264619 -469.534318 
L 585.714798 -458.094962 
L 587.164977 -474.952496 
L 588.615157 -484.954913 
L 590.065336 -474.263709 
L 591.515515 -490.374899 
L 592.965695 -500.705901 
L 594.415874 -505.732454 
L 595.866053 -493.898987 
L 597.316233 -508.159876 
L 598.766412 -506.613921 
L 600.216591 -505.67907 
L 601.666771 -506.530717 
L 603.11695 -504.380233 
L 604.567129 -511.29562 
L 606.017309 -497.862232 
L 607.467488 -511.83873 
L 608.917667 -510.581642 
L 610.367847 -509.45763 
L 611.818026 -498.09047 
L 613.268205 -506.541022 
L 614.718385 -504.285911 
L 616.168564 -502.233228 
L 617.618743 -500.896684 
L 619.068923 -500.257037 
L 620.519102 -500.028502 
L 621.969281 -499.966394 
L 623.41946 -499.953501 
L 624.86964 -499.951166 
L 626.319819 -499.951166 
L 627.769998 -499.951166 
L 629.220178 -499.951166 
L 630.670357 -499.951166 
L 632.120536 -499.951166 
L 633.570716 -499.951166 
L 635.020895 -499.951166 
L 636.471074 -499.951166 
L 636.471074 -499.951166 
L 636.471074 -499.951166 
L 635.020895 -499.951166 
L 633.570716 -499.951166 
L 632.120536 -499.951166 
L 630.670357 -499.951166 
L 629.220178 -499.951166 
L 627.769998 -499.951166 
L 626.319819 -499.951166 
L 624.86964 -499.951166 
L 623.41946 -499.953501 
L 621.969281 -499.966394 
L 620.519102 -500.028502 
L 619.068923 -500.257037 
L 617.618743 -500.896684 
L 616.168564 -502.233228 
L 614.718385 -504.285911 
L 613.268205 -506.541022 
L 611.818026 -518.504835 
L 610.367847 -509.45763 
L 608.917667 -510.581642 
L 607.467488 -511.83873 
L 606.017309 -526.899661 
L 604.567129 -511.29562 
L 603.11695 -513.362276 
L 601.666771 -506.530717 
L 600.216591 -505.67907 
L 598.766412 -506.613921 
L 597.316233 -508.159876 
L 595.866053 -522.746841 
L 594.415874 -505.732454 
L 592.965695 -500.705901 
L 591.515515 -499.329597 
L 590.065336 -504.90772 
L 588.615157 -484.954913 
L 587.164977 -485.077159 
L 585.714798 -490.799574 
L 584.264619 -469.534318 
L 582.814439 -495.074093 
L 581.36426 -468.527896 
L 579.914081 -486.868515 
L 578.463901 -490.028174 
L 577.013722 -482.008445 
L 575.563543 -485.672605 
L 574.113363 -499.992462 
L 572.663184 -485.146396 
L 571.213005 -483.668122 
L 569.762826 -495.058554 
L 568.312646 -487.863488 
L 566.862467 -471.977413 
L 565.412288 -476.580634 
L 563.962108 -460.669387 
L 562.511929 -502.618736 
L 561.06175 -473.807044 
L 559.61157 -471.757631 
L 558.161391 -483.823905 
L 556.711212 -491.51348 
L 555.261032 -494.185985 
L 553.810853 -499.530672 
L 552.360674 -505.729145 
L 550.910494 -493.207263 
L 549.460315 -494.385 
L 548.010136 -495.156028 
L 546.559956 -495.842958 
L 545.109777 -505.464046 
L 543.659598 -502.49266 
L 542.209418 -499.393517 
L 540.759239 -500.520607 
L 539.30906 -501.499588 
L 537.85888 -502.585449 
L 536.408701 -503.616153 
L 534.958522 -510.100971 
L 533.508342 -503.549962 
L 532.058163 -502.422332 
L 530.607984 -501.273342 
L 529.157804 -500.502331 
L 527.707625 -500.130103 
L 526.257446 -499.996408 
L 524.807266 -499.960075 
L 523.357087 -499.952532 
L 521.906908 -499.951166 
L 520.456729 -499.951166 
L 519.006549 -499.951166 
L 517.55637 -499.951166 
L 516.106191 -499.951166 
L 514.656011 -499.950831 
L 513.205832 -499.948979 
L 511.755653 -499.940061 
L 510.305473 -499.907245 
L 508.855294 -499.812621 
L 507.405115 -499.605382 
L 505.954935 -499.236935 
L 504.504756 -498.642148 
L 503.054577 -499.706786 
L 501.604397 -495.915007 
L 500.154218 -493.450599 
L 498.704039 -491.041236 
L 497.253859 -503.335985 
L 495.80368 -491.04882 
L 494.353501 -493.081259 
L 492.903321 -494.126768 
L 491.453142 -492.573561 
L 490.002963 -488.125192 
L 488.552783 -489.777838 
L 487.102604 -477.121788 
L 485.652425 -503.429506 
L 484.202245 -477.697266 
L 482.752066 -483.46607 
L 481.301887 -482.711406 
L 479.851707 -498.251694 
L 478.401528 -482.817125 
L 476.951349 -489.918017 
L 475.501169 -480.530788 
L 474.05099 -477.366429 
L 472.600811 -490.489355 
L 471.150632 -493.703041 
L 469.700452 -480.096245 
L 468.250273 -484.989924 
L 466.800094 -487.430999 
L 465.349914 -486.971712 
L 463.899735 -496.51623 
L 462.449556 -495.754316 
L 460.999376 -489.636821 
L 459.549197 -493.855202 
L 458.099018 -497.430282 
L 456.648838 -499.218705 
L 455.198659 -498.64798 
L 453.74848 -501.725051 
L 452.2983 -493.20349 
L 450.848121 -512.434319 
L 449.397942 -500.065726 
L 447.947762 -510.268539 
L 446.497583 -531.11058 
L 445.047404 -544.766613 
L 443.597224 -512.184586 
L 442.147045 -498.200466 
L 440.696866 -484.648727 
L 439.246686 -511.396856 
L 437.796507 -478.680384 
L 436.346328 -488.841139 
L 434.896148 -496.157256 
L 433.445969 -506.099343 
L 431.99579 -501.724139 
L 430.54561 -502.71045 
L 429.095431 -501.476577 
L 427.645252 -501.397831 
L 426.195073 -501.884815 
L 424.744893 -505.324482 
L 423.294714 -503.406787 
L 421.844535 -506.56095 
L 420.394355 -501.209634 
L 418.944176 -498.363014 
L 417.493997 -494.595407 
L 416.043817 -492.290517 
L 414.593638 -499.100882 
L 413.143459 -485.093352 
L 411.693279 -488.363116 
L 410.2431 -481.735797 
L 408.792921 -504.144795 
L 407.342741 -488.346125 
L 405.892562 -488.055028 
z
" style="stroke: #1f77b4; stroke-opacity: 0.2"/>
    </defs>
    <g clip-path="url(#p56d833390d)">
     <use xlink:href="#m43ace5d803" x="0" y="720" style="fill: #1f77b4; fill-opacity: 0.2; stroke: #1f77b4; stroke-opacity: 0.2"/>
    </g>
   </g>
   <g id="PolyCollection_3">
    <defs>
     <path id="mde3e8f2593" d="M 405.892562 -499.951166 
L 405.892562 -499.951166 
L 407.342741 -499.951166 
L 408.792921 -499.951166 
L 410.2431 -499.951166 
L 411.693279 -499.951166 
L 413.143459 -499.951166 
L 414.593638 -499.951166 
L 416.043817 -499.951166 
L 417.493997 -499.951166 
L 418.944176 -499.951166 
L 420.394355 -499.951166 
L 421.844535 -499.951166 
L 423.294714 -499.951166 
L 424.744893 -499.951166 
L 426.195073 -499.951166 
L 427.645252 -499.951166 
L 429.095431 -499.951166 
L 430.54561 -499.951166 
L 431.99579 -499.951166 
L 433.445969 -499.951166 
L 434.896148 -499.951166 
L 436.346328 -499.948325 
L 437.796507 -499.93264 
L 439.246686 -499.857084 
L 440.696866 -499.579065 
L 442.147045 -498.805014 
L 443.597224 -497.201691 
L 445.047404 -494.814471 
L 446.497583 -492.477319 
L 447.947762 -484.675465 
L 449.397942 -492.477319 
L 450.848121 -494.814471 
L 452.2983 -497.201691 
L 453.74848 -498.805014 
L 455.198659 -499.579065 
L 456.648838 -499.857084 
L 458.099018 -499.93264 
L 459.549197 -499.948325 
L 460.999376 -499.951166 
L 462.449556 -499.951166 
L 463.899735 -499.951166 
L 465.349914 -499.951166 
L 466.800094 -499.951166 
L 468.250273 -499.951166 
L 469.700452 -499.951166 
L 471.150632 -499.951166 
L 472.600811 -499.951166 
L 474.05099 -499.951166 
L 475.501169 -499.951166 
L 476.951349 -499.951166 
L 478.401528 -499.951166 
L 479.851707 -499.951166 
L 481.301887 -499.951166 
L 482.752066 -499.951166 
L 484.202245 -499.951166 
L 485.652425 -499.951166 
L 487.102604 -499.951166 
L 488.552783 -499.951166 
L 490.002963 -499.951166 
L 491.453142 -499.951166 
L 492.903321 -499.951166 
L 494.353501 -499.951166 
L 495.80368 -499.951166 
L 497.253859 -499.951166 
L 498.704039 -499.951166 
L 500.154218 -499.951166 
L 501.604397 -499.951166 
L 503.054577 -499.951166 
L 504.504756 -499.951166 
L 505.954935 -499.951166 
L 507.405115 -499.951166 
L 508.855294 -499.951166 
L 510.305473 -499.951166 
L 511.755653 -499.951166 
L 513.205832 -499.951166 
L 514.656011 -499.951166 
L 516.106191 -499.951166 
L 517.55637 -499.951166 
L 519.006549 -499.951166 
L 520.456729 -499.951166 
L 521.906908 -499.951166 
L 523.357087 -499.951166 
L 524.807266 -499.951166 
L 526.257446 -499.951166 
L 527.707625 -499.951166 
L 529.157804 -499.951166 
L 530.607984 -499.951166 
L 532.058163 -499.951166 
L 533.508342 -499.951166 
L 534.958522 -499.951166 
L 536.408701 -499.951166 
L 537.85888 -499.951166 
L 539.30906 -499.951166 
L 540.759239 -499.951166 
L 542.209418 -499.951166 
L 543.659598 -499.951166 
L 545.109777 -499.951166 
L 546.559956 -499.938718 
L 548.010136 -499.857433 
L 549.460315 -499.457033 
L 550.910494 -497.904832 
L 552.360674 -493.284148 
L 553.810853 -482.837033 
L 555.261032 -465.289124 
L 556.711212 -444.495168 
L 558.161391 -406.611793 
L 559.61157 -397.740496 
L 561.06175 -444.403758 
L 562.511929 -465.195756 
L 563.962108 -482.774324 
L 565.412288 -493.242712 
L 566.862467 -497.821173 
L 568.312646 -499.084443 
L 569.762826 -498.383092 
L 571.213005 -495.358625 
L 572.663184 -488.750759 
L 574.113363 -478.175983 
L 575.563543 -465.580148 
L 577.013722 -437.868863 
L 578.463901 -446.191073 
L 579.914081 -441.27458 
L 581.36426 -425.297843 
L 582.814439 -442.332802 
L 584.264619 -432.888905 
L 585.714798 -458.007367 
L 587.164977 -466.243952 
L 588.615157 -459.383444 
L 590.065336 -478.761388 
L 591.515515 -481.954089 
L 592.965695 -480.592726 
L 594.415874 -464.408732 
L 595.866053 -461.287983 
L 597.316233 -426.935842 
L 598.766412 -436.027464 
L 600.216591 -417.225276 
L 601.666771 -419.641918 
L 603.11695 -456.15515 
L 604.567129 -473.763637 
L 606.017309 -487.116734 
L 607.467488 -493.914129 
L 608.917667 -494.561594 
L 610.367847 -489.863078 
L 611.818026 -480.806274 
L 613.268205 -470.077733 
L 614.718385 -451.004688 
L 616.168564 -460.898275 
L 617.618743 -457.937031 
L 619.068923 -476.396567 
L 620.519102 -486.201501 
L 621.969281 -493.383379 
L 623.41946 -497.401445 
L 624.86964 -499.087975 
L 626.319819 -499.35888 
L 627.769998 -498.321035 
L 629.220178 -494.9939 
L 630.670357 -487.861505 
L 632.120536 -476.529976 
L 633.570716 -463.30239 
L 635.020895 -429.538474 
L 636.471074 -446.336201 
L 636.471074 -446.336201 
L 636.471074 -446.336201 
L 635.020895 -474.971136 
L 633.570716 -463.30239 
L 632.120536 -476.529976 
L 630.670357 -487.861505 
L 629.220178 -494.9939 
L 627.769998 -498.321035 
L 626.319819 -499.35888 
L 624.86964 -499.087975 
L 623.41946 -497.401445 
L 621.969281 -493.383379 
L 620.519102 -486.201501 
L 619.068923 -476.396567 
L 617.618743 -475.32295 
L 616.168564 -460.898275 
L 614.718385 -473.353284 
L 613.268205 -470.077733 
L 611.818026 -480.806274 
L 610.367847 -489.863078 
L 608.917667 -494.561594 
L 607.467488 -493.914129 
L 606.017309 -487.116734 
L 604.567129 -473.763637 
L 603.11695 -456.15515 
L 601.666771 -460.974463 
L 600.216591 -448.342632 
L 598.766412 -436.027464 
L 597.316233 -467.582305 
L 595.866053 -461.287983 
L 594.415874 -482.412373 
L 592.965695 -480.592726 
L 591.515515 -481.954089 
L 590.065336 -478.761388 
L 588.615157 -486.920288 
L 587.164977 -466.243952 
L 585.714798 -458.007367 
L 584.264619 -465.540996 
L 582.814439 -442.332802 
L 581.36426 -453.991438 
L 579.914081 -441.27458 
L 578.463901 -446.191073 
L 577.013722 -470.676176 
L 575.563543 -465.580148 
L 574.113363 -478.175983 
L 572.663184 -488.750759 
L 571.213005 -495.358625 
L 569.762826 -498.383092 
L 568.312646 -499.084443 
L 566.862467 -497.821173 
L 565.412288 -493.242712 
L 563.962108 -482.774324 
L 562.511929 -465.195756 
L 561.06175 -444.403758 
L 559.61157 -461.787321 
L 558.161391 -452.993866 
L 556.711212 -444.495168 
L 555.261032 -465.289124 
L 553.810853 -482.837033 
L 552.360674 -493.284148 
L 550.910494 -497.904832 
L 549.460315 -499.457033 
L 548.010136 -499.857433 
L 546.559956 -499.938718 
L 545.109777 -499.951166 
L 543.659598 -499.951166 
L 542.209418 -499.951166 
L 540.759239 -499.951166 
L 539.30906 -499.951166 
L 537.85888 -499.951166 
L 536.408701 -499.951166 
L 534.958522 -499.951166 
L 533.508342 -499.951166 
L 532.058163 -499.951166 
L 530.607984 -499.951166 
L 529.157804 -499.951166 
L 527.707625 -499.951166 
L 526.257446 -499.951166 
L 524.807266 -499.951166 
L 523.357087 -499.951166 
L 521.906908 -499.951166 
L 520.456729 -499.951166 
L 519.006549 -499.951166 
L 517.55637 -499.951166 
L 516.106191 -499.951166 
L 514.656011 -499.951166 
L 513.205832 -499.951166 
L 511.755653 -499.951166 
L 510.305473 -499.951166 
L 508.855294 -499.951166 
L 507.405115 -499.951166 
L 505.954935 -499.951166 
L 504.504756 -499.951166 
L 503.054577 -499.951166 
L 501.604397 -499.951166 
L 500.154218 -499.951166 
L 498.704039 -499.951166 
L 497.253859 -499.951166 
L 495.80368 -499.951166 
L 494.353501 -499.951166 
L 492.903321 -499.951166 
L 491.453142 -499.951166 
L 490.002963 -499.951166 
L 488.552783 -499.951166 
L 487.102604 -499.951166 
L 485.652425 -499.951166 
L 484.202245 -499.951166 
L 482.752066 -499.951166 
L 481.301887 -499.951166 
L 479.851707 -499.951166 
L 478.401528 -499.951166 
L 476.951349 -499.951166 
L 475.501169 -499.951166 
L 474.05099 -499.951166 
L 472.600811 -499.951166 
L 471.150632 -499.951166 
L 469.700452 -499.951166 
L 468.250273 -499.951166 
L 466.800094 -499.951166 
L 465.349914 -499.951166 
L 463.899735 -499.951166 
L 462.449556 -499.951166 
L 460.999376 -499.951166 
L 459.549197 -499.948325 
L 458.099018 -499.93264 
L 456.648838 -499.857084 
L 455.198659 -499.579065 
L 453.74848 -498.805014 
L 452.2983 -497.201691 
L 450.848121 -494.814471 
L 449.397942 -492.477319 
L 447.947762 -498.288911 
L 446.497583 -492.477319 
L 445.047404 -494.814471 
L 443.597224 -497.201691 
L 442.147045 -498.805014 
L 440.696866 -499.579065 
L 439.246686 -499.857084 
L 437.796507 -499.93264 
L 436.346328 -499.948325 
L 434.896148 -499.951166 
L 433.445969 -499.951166 
L 431.99579 -499.951166 
L 430.54561 -499.951166 
L 429.095431 -499.951166 
L 427.645252 -499.951166 
L 426.195073 -499.951166 
L 424.744893 -499.951166 
L 423.294714 -499.951166 
L 421.844535 -499.951166 
L 420.394355 -499.951166 
L 418.944176 -499.951166 
L 417.493997 -499.951166 
L 416.043817 -499.951166 
L 414.593638 -499.951166 
L 413.143459 -499.951166 
L 411.693279 -499.951166 
L 410.2431 -499.951166 
L 408.792921 -499.951166 
L 407.342741 -499.951166 
L 405.892562 -499.951166 
z
" style="stroke: #d62728; stroke-opacity: 0.2"/>
    </defs>
    <g clip-path="url(#p56d833390d)">
     <use xlink:href="#mde3e8f2593" x="0" y="720" style="fill: #d62728; fill-opacity: 0.2; stroke: #d62728; stroke-opacity: 0.2"/>
    </g>
   </g>
   <g id="PolyCollection_4">
    <defs>
     <path id="md7c5b268c9" d="M 405.892562 -491.738517 
L 405.892562 -491.738517 
L 407.342741 -487.548764 
L 408.792921 -481.13657 
L 410.2431 -457.619944 
L 411.693279 -474.515056 
L 413.143459 -467.784609 
L 414.593638 -486.080353 
L 416.043817 -494.290058 
L 417.493997 -488.324924 
L 418.944176 -502.181284 
L 420.394355 -501.133487 
L 421.844535 -498.077697 
L 423.294714 -494.034258 
L 424.744893 -490.245022 
L 426.195073 -478.034057 
L 427.645252 -490.206895 
L 429.095431 -488.179096 
L 430.54561 -501.381217 
L 431.99579 -499.74314 
L 433.445969 -506.831777 
L 434.896148 -505.286635 
L 436.346328 -502.979514 
L 437.796507 -501.257824 
L 439.246686 -500.410388 
L 440.696866 -500.20648 
L 442.147045 -500.548246 
L 443.597224 -501.726048 
L 445.047404 -504.20081 
L 446.497583 -507.890546 
L 447.947762 -511.502896 
L 449.397942 -498.599086 
L 450.848121 -511.482364 
L 452.2983 -507.78628 
L 453.74848 -503.788431 
L 455.198659 -500.452465 
L 456.648838 -497.479202 
L 458.099018 -494.403865 
L 459.549197 -491.696948 
L 460.999376 -484.155234 
L 462.449556 -491.674484 
L 463.899735 -494.301646 
L 465.349914 -497.127713 
L 466.800094 -499.590923 
L 468.250273 -502.440497 
L 469.700452 -507.137997 
L 471.150632 -514.447079 
L 472.600811 -523.052286 
L 474.05099 -522.316437 
L 475.501169 -523.103096 
L 476.951349 -528.169189 
L 478.401528 -509.695972 
L 479.851707 -510.339857 
L 481.301887 -499.54313 
L 482.752066 -490.4118 
L 484.202245 -472.974411 
L 485.652425 -483.134461 
L 487.102604 -483.195003 
L 488.552783 -483.351185 
L 490.002963 -476.524926 
L 491.453142 -483.889731 
L 492.903321 -481.783216 
L 494.353501 -484.717001 
L 495.80368 -475.290945 
L 497.253859 -486.347544 
L 498.704039 -488.531187 
L 500.154218 -483.07872 
L 501.604397 -493.84105 
L 503.054577 -495.987457 
L 504.504756 -496.984718 
L 505.954935 -496.249262 
L 507.405115 -493.621758 
L 508.855294 -489.588092 
L 510.305473 -479.614262 
L 511.755653 -481.629748 
L 513.205832 -469.583812 
L 514.656011 -467.559681 
L 516.106191 -483.134732 
L 517.55637 -485.428469 
L 519.006549 -486.751557 
L 520.456729 -477.782014 
L 521.906908 -489.251903 
L 523.357087 -491.628806 
L 524.807266 -494.471875 
L 526.257446 -491.485918 
L 527.707625 -491.617467 
L 529.157804 -502.344407 
L 530.607984 -504.207382 
L 532.058163 -507.085116 
L 533.508342 -511.771038 
L 534.958522 -517.205797 
L 536.408701 -511.274453 
L 537.85888 -521.257683 
L 539.30906 -518.124565 
L 540.759239 -504.634405 
L 542.209418 -501.440773 
L 543.659598 -503.166016 
L 545.109777 -501.403746 
L 546.559956 -502.235113 
L 548.010136 -505.567347 
L 549.460315 -512.0121 
L 550.910494 -511.70688 
L 552.360674 -540.22545 
L 553.810853 -560.130506 
L 555.261032 -544.864865 
L 556.711212 -527.078436 
L 558.161391 -560.064791 
L 559.61157 -539.286089 
L 561.06175 -523.384404 
L 562.511929 -518.24777 
L 563.962108 -523.081524 
L 565.412288 -532.871643 
L 566.862467 -506.074536 
L 568.312646 -548.144894 
L 569.762826 -550.922118 
L 571.213005 -514.994774 
L 572.663184 -519.220373 
L 574.113363 -532.650537 
L 575.563543 -519.85909 
L 577.013722 -509.673378 
L 578.463901 -503.721695 
L 579.914081 -501.105096 
L 581.36426 -500.2298 
L 582.814439 -500.004019 
L 584.264619 -499.958185 
L 585.714798 -499.951166 
L 587.164977 -499.951166 
L 588.615157 -499.951166 
L 590.065336 -499.951166 
L 591.515515 -499.951166 
L 592.965695 -499.951166 
L 594.415874 -499.951166 
L 595.866053 -499.955319 
L 597.316233 -499.983631 
L 598.766412 -500.127428 
L 600.216591 -500.697039 
L 601.666771 -502.45183 
L 603.11695 -506.617127 
L 604.567129 -514.136075 
L 606.017309 -524.141198 
L 607.467488 -520.497877 
L 608.917667 -526.944339 
L 610.367847 -525.575881 
L 611.818026 -526.865014 
L 613.268205 -520.200242 
L 614.718385 -516.211309 
L 616.168564 -503.490245 
L 617.618743 -512.937105 
L 619.068923 -513.642757 
L 620.519102 -518.837821 
L 621.969281 -529.806834 
L 623.41946 -535.016553 
L 624.86964 -554.617091 
L 626.319819 -555.918906 
L 627.769998 -560.638287 
L 629.220178 -562.669786 
L 630.670357 -558.283955 
L 632.120536 -556.207268 
L 633.570716 -534.409103 
L 635.020895 -533.104916 
L 636.471074 -526.098022 
L 636.471074 -526.098022 
L 636.471074 -526.098022 
L 635.020895 -533.104916 
L 633.570716 -554.130656 
L 632.120536 -556.207268 
L 630.670357 -574.735749 
L 629.220178 -584.030995 
L 627.769998 -589.386125 
L 626.319819 -584.788722 
L 624.86964 -564.494704 
L 623.41946 -554.450175 
L 621.969281 -529.806834 
L 620.519102 -518.837821 
L 619.068923 -513.642757 
L 617.618743 -512.937105 
L 616.168564 -524.812762 
L 614.718385 -516.211309 
L 613.268205 -520.200242 
L 611.818026 -526.865014 
L 610.367847 -542.284435 
L 608.917667 -546.941585 
L 607.467488 -545.836289 
L 606.017309 -524.141198 
L 604.567129 -514.136075 
L 603.11695 -506.617127 
L 601.666771 -502.45183 
L 600.216591 -500.697039 
L 598.766412 -500.127428 
L 597.316233 -499.983631 
L 595.866053 -499.955319 
L 594.415874 -499.951166 
L 592.965695 -499.951166 
L 591.515515 -499.951166 
L 590.065336 -499.951166 
L 588.615157 -499.951166 
L 587.164977 -499.951166 
L 585.714798 -499.951166 
L 584.264619 -499.958185 
L 582.814439 -500.004019 
L 581.36426 -500.2298 
L 579.914081 -501.105096 
L 578.463901 -503.721695 
L 577.013722 -509.673378 
L 575.563543 -519.85909 
L 574.113363 -532.650537 
L 572.663184 -568.575826 
L 571.213005 -585.10851 
L 569.762826 -550.922118 
L 568.312646 -548.144894 
L 566.862467 -578.180633 
L 565.412288 -532.871643 
L 563.962108 -523.081524 
L 562.511929 -518.24777 
L 561.06175 -523.384404 
L 559.61157 -539.286089 
L 558.161391 -560.064791 
L 556.711212 -622.368595 
L 555.261032 -604.168887 
L 553.810853 -560.130506 
L 552.360674 -540.22545 
L 550.910494 -534.700745 
L 549.460315 -512.0121 
L 548.010136 -505.567347 
L 546.559956 -502.235113 
L 545.109777 -501.403746 
L 543.659598 -503.166016 
L 542.209418 -513.26332 
L 540.759239 -521.169611 
L 539.30906 -518.124565 
L 537.85888 -521.257683 
L 536.408701 -530.655799 
L 534.958522 -517.205797 
L 533.508342 -511.771038 
L 532.058163 -507.085116 
L 530.607984 -504.207382 
L 529.157804 -502.344407 
L 527.707625 -508.83569 
L 526.257446 -503.454372 
L 524.807266 -494.471875 
L 523.357087 -491.628806 
L 521.906908 -489.251903 
L 520.456729 -497.604086 
L 519.006549 -486.751557 
L 517.55637 -485.428469 
L 516.106191 -483.134732 
L 514.656011 -494.01521 
L 513.205832 -490.4594 
L 511.755653 -481.629748 
L 510.305473 -490.745063 
L 508.855294 -489.588092 
L 507.405115 -493.621758 
L 505.954935 -496.249262 
L 504.504756 -496.984718 
L 503.054577 -495.987457 
L 501.604397 -493.84105 
L 500.154218 -499.302002 
L 498.704039 -488.531187 
L 497.253859 -486.347544 
L 495.80368 -494.91466 
L 494.353501 -484.717001 
L 492.903321 -487.123195 
L 491.453142 -483.889731 
L 490.002963 -490.347422 
L 488.552783 -483.351185 
L 487.102604 -483.195003 
L 485.652425 -483.134461 
L 484.202245 -496.860182 
L 482.752066 -490.4118 
L 481.301887 -499.54313 
L 479.851707 -510.339857 
L 478.401528 -531.294612 
L 476.951349 -528.169189 
L 475.501169 -540.236132 
L 474.05099 -537.194616 
L 472.600811 -523.052286 
L 471.150632 -514.447079 
L 469.700452 -507.137997 
L 468.250273 -502.440497 
L 466.800094 -499.590923 
L 465.349914 -497.127713 
L 463.899735 -494.301646 
L 462.449556 -491.674484 
L 460.999376 -496.984478 
L 459.549197 -491.696948 
L 458.099018 -494.403865 
L 456.648838 -497.479202 
L 455.198659 -500.452465 
L 453.74848 -503.788431 
L 452.2983 -507.78628 
L 450.848121 -511.482364 
L 449.397942 -527.476598 
L 447.947762 -511.502896 
L 446.497583 -507.890546 
L 445.047404 -504.20081 
L 443.597224 -501.726048 
L 442.147045 -500.548246 
L 440.696866 -500.20648 
L 439.246686 -500.410388 
L 437.796507 -501.257824 
L 436.346328 -502.979514 
L 434.896148 -505.286635 
L 433.445969 -506.831777 
L 431.99579 -511.781117 
L 430.54561 -501.381217 
L 429.095431 -502.289436 
L 427.645252 -490.206895 
L 426.195073 -498.931268 
L 424.744893 -490.245022 
L 423.294714 -494.034258 
L 421.844535 -498.077697 
L 420.394355 -501.133487 
L 418.944176 -502.181284 
L 417.493997 -511.826643 
L 416.043817 -494.290058 
L 414.593638 -486.080353 
L 413.143459 -489.091477 
L 411.693279 -474.515056 
L 410.2431 -493.941363 
L 408.792921 -481.13657 
L 407.342741 -487.548764 
L 405.892562 -491.738517 
z
" style="stroke: #ff7f0e; stroke-opacity: 0.2"/>
    </defs>
    <g clip-path="url(#p56d833390d)">
     <use xlink:href="#md7c5b268c9" x="0" y="720" style="fill: #ff7f0e; fill-opacity: 0.2; stroke: #ff7f0e; stroke-opacity: 0.2"/>
    </g>
   </g>
   <g id="matplotlib.axis_3">
    <g id="xtick_7">
     <g id="line2d_13">
      <g>
       <use xlink:href="#m1554a39c6b" x="405.863558" y="333.490909" style="stroke: #000000; stroke-width: 0.8"/>
      </g>
     </g>
     <g id="text_13">
      <!-- 0 -->
      <g transform="translate(402.682308 348.089347)scale(0.1 -0.1)">
       <use xlink:href="#DejaVuSans-30"/>
      </g>
     </g>
    </g>
    <g id="xtick_8">
     <g id="line2d_14">
      <g>
       <use xlink:href="#m1554a39c6b" x="463.870731" y="333.490909" style="stroke: #000000; stroke-width: 0.8"/>
      </g>
     </g>
     <g id="text_14">
      <!-- 2000 -->
      <g transform="translate(451.145731 348.089347)scale(0.1 -0.1)">
       <use xlink:href="#DejaVuSans-32"/>
       <use xlink:href="#DejaVuSans-30" x="63.623047"/>
       <use xlink:href="#DejaVuSans-30" x="127.246094"/>
       <use xlink:href="#DejaVuSans-30" x="190.869141"/>
      </g>
     </g>
    </g>
    <g id="xtick_9">
     <g id="line2d_15">
      <g>
       <use xlink:href="#m1554a39c6b" x="521.877904" y="333.490909" style="stroke: #000000; stroke-width: 0.8"/>
      </g>
     </g>
     <g id="text_15">
      <!-- 4000 -->
      <g transform="translate(509.152904 348.089347)scale(0.1 -0.1)">
       <use xlink:href="#DejaVuSans-34"/>
       <use xlink:href="#DejaVuSans-30" x="63.623047"/>
       <use xlink:href="#DejaVuSans-30" x="127.246094"/>
       <use xlink:href="#DejaVuSans-30" x="190.869141"/>
      </g>
     </g>
    </g>
    <g id="xtick_10">
     <g id="line2d_16">
      <g>
       <use xlink:href="#m1554a39c6b" x="579.885077" y="333.490909" style="stroke: #000000; stroke-width: 0.8"/>
      </g>
     </g>
     <g id="text_16">
      <!-- 6000 -->
      <g transform="translate(567.160077 348.089347)scale(0.1 -0.1)">
       <use xlink:href="#DejaVuSans-36"/>
       <use xlink:href="#DejaVuSans-30" x="63.623047"/>
       <use xlink:href="#DejaVuSans-30" x="127.246094"/>
       <use xlink:href="#DejaVuSans-30" x="190.869141"/>
      </g>
     </g>
    </g>
    <g id="xtick_11">
     <g id="line2d_17">
      <g>
       <use xlink:href="#m1554a39c6b" x="637.89225" y="333.490909" style="stroke: #000000; stroke-width: 0.8"/>
      </g>
     </g>
     <g id="text_17">
      <!-- 8000 -->
      <g transform="translate(625.16725 348.089347)scale(0.1 -0.1)">
       <use xlink:href="#DejaVuSans-38"/>
       <use xlink:href="#DejaVuSans-30" x="63.623047"/>
       <use xlink:href="#DejaVuSans-30" x="127.246094"/>
       <use xlink:href="#DejaVuSans-30" x="190.869141"/>
      </g>
     </g>
    </g>
   </g>
   <g id="matplotlib.axis_4">
    <g id="ytick_7">
     <g id="line2d_18">
      <g>
       <use xlink:href="#m7cc5737df3" x="394.363636" y="310.8807" style="stroke: #000000; stroke-width: 0.8"/>
      </g>
     </g>
     <g id="text_18">
      <!-- −0.6 -->
      <g transform="translate(363.080824 314.679919)scale(0.1 -0.1)">
       <defs>
        <path id="DejaVuSans-2212" d="M 678 2272 
L 4684 2272 
L 4684 1741 
L 678 1741 
L 678 2272 
z
" transform="scale(0.015625)"/>
       </defs>
       <use xlink:href="#DejaVuSans-2212"/>
       <use xlink:href="#DejaVuSans-30" x="83.789062"/>
       <use xlink:href="#DejaVuSans-2e" x="147.412109"/>
       <use xlink:href="#DejaVuSans-36" x="179.199219"/>
      </g>
     </g>
    </g>
    <g id="ytick_8">
     <g id="line2d_19">
      <g>
       <use xlink:href="#m7cc5737df3" x="394.363636" y="280.603411" style="stroke: #000000; stroke-width: 0.8"/>
      </g>
     </g>
     <g id="text_19">
      <!-- −0.4 -->
      <g transform="translate(363.080824 284.40263)scale(0.1 -0.1)">
       <use xlink:href="#DejaVuSans-2212"/>
       <use xlink:href="#DejaVuSans-30" x="83.789062"/>
       <use xlink:href="#DejaVuSans-2e" x="147.412109"/>
       <use xlink:href="#DejaVuSans-34" x="179.199219"/>
      </g>
     </g>
    </g>
    <g id="ytick_9">
     <g id="line2d_20">
      <g>
       <use xlink:href="#m7cc5737df3" x="394.363636" y="250.326123" style="stroke: #000000; stroke-width: 0.8"/>
      </g>
     </g>
     <g id="text_20">
      <!-- −0.2 -->
      <g transform="translate(363.080824 254.125341)scale(0.1 -0.1)">
       <use xlink:href="#DejaVuSans-2212"/>
       <use xlink:href="#DejaVuSans-30" x="83.789062"/>
       <use xlink:href="#DejaVuSans-2e" x="147.412109"/>
       <use xlink:href="#DejaVuSans-32" x="179.199219"/>
      </g>
     </g>
    </g>
    <g id="ytick_10">
     <g id="line2d_21">
      <g>
       <use xlink:href="#m7cc5737df3" x="394.363636" y="220.048834" style="stroke: #000000; stroke-width: 0.8"/>
      </g>
     </g>
     <g id="text_21">
      <!-- 0.0 -->
      <g transform="translate(371.460511 223.848053)scale(0.1 -0.1)">
       <use xlink:href="#DejaVuSans-30"/>
       <use xlink:href="#DejaVuSans-2e" x="63.623047"/>
       <use xlink:href="#DejaVuSans-30" x="95.410156"/>
      </g>
     </g>
    </g>
    <g id="ytick_11">
     <g id="line2d_22">
      <g>
       <use xlink:href="#m7cc5737df3" x="394.363636" y="189.771545" style="stroke: #000000; stroke-width: 0.8"/>
      </g>
     </g>
     <g id="text_22">
      <!-- 0.2 -->
      <g transform="translate(371.460511 193.570764)scale(0.1 -0.1)">
       <use xlink:href="#DejaVuSans-30"/>
       <use xlink:href="#DejaVuSans-2e" x="63.623047"/>
       <use xlink:href="#DejaVuSans-32" x="95.410156"/>
      </g>
     </g>
    </g>
    <g id="ytick_12">
     <g id="line2d_23">
      <g>
       <use xlink:href="#m7cc5737df3" x="394.363636" y="159.494257" style="stroke: #000000; stroke-width: 0.8"/>
      </g>
     </g>
     <g id="text_23">
      <!-- 0.4 -->
      <g transform="translate(371.460511 163.293476)scale(0.1 -0.1)">
       <use xlink:href="#DejaVuSans-30"/>
       <use xlink:href="#DejaVuSans-2e" x="63.623047"/>
       <use xlink:href="#DejaVuSans-34" x="95.410156"/>
      </g>
     </g>
    </g>
    <g id="ytick_13">
     <g id="line2d_24">
      <g>
       <use xlink:href="#m7cc5737df3" x="394.363636" y="129.216968" style="stroke: #000000; stroke-width: 0.8"/>
      </g>
     </g>
     <g id="text_24">
      <!-- 0.6 -->
      <g transform="translate(371.460511 133.016187)scale(0.1 -0.1)">
       <use xlink:href="#DejaVuSans-30"/>
       <use xlink:href="#DejaVuSans-2e" x="63.623047"/>
       <use xlink:href="#DejaVuSans-36" x="95.410156"/>
      </g>
     </g>
    </g>
    <g id="ytick_14">
     <g id="line2d_25">
      <g>
       <use xlink:href="#m7cc5737df3" x="394.363636" y="98.93968" style="stroke: #000000; stroke-width: 0.8"/>
      </g>
     </g>
     <g id="text_25">
      <!-- 0.8 -->
      <g transform="translate(371.460511 102.738898)scale(0.1 -0.1)">
       <use xlink:href="#DejaVuSans-30"/>
       <use xlink:href="#DejaVuSans-2e" x="63.623047"/>
       <use xlink:href="#DejaVuSans-38" x="95.410156"/>
      </g>
     </g>
    </g>
   </g>
   <g id="line2d_26">
    <path d="M 405.892562 220.048834 
L 408.792921 220.021384 
L 410.2431 219.904199 
L 411.693279 219.450211 
L 413.143459 218.099812 
L 414.593638 215.049543 
L 416.043817 209.927997 
L 417.493997 203.851012 
L 418.944176 199.477117 
L 420.394355 199.084149 
L 421.844535 202.242693 
L 423.294714 205.982362 
L 424.744893 207.646142 
L 426.195073 207.31315 
L 427.645252 207.214112 
L 429.095431 209.058363 
L 430.54561 212.371909 
L 431.99579 215.27797 
L 433.445969 216.147291 
L 434.896148 214.190144 
L 436.346328 209.146331 
L 437.796507 201.27797 
L 439.246686 192.048642 
L 440.696866 184.519132 
L 442.147045 182.172314 
L 443.597224 186.409775 
L 446.497583 203.3525 
L 447.947762 207.346456 
L 449.397942 205.65881 
L 450.848121 199.895742 
L 452.2983 193.175775 
L 453.74848 188.292036 
L 455.198659 186.802181 
L 456.648838 189.187931 
L 458.099018 194.924315 
L 459.549197 202.221884 
L 460.999376 208.565649 
L 462.449556 212.238366 
L 463.899735 213.443731 
L 465.349914 213.940441 
L 466.800094 215.510592 
L 469.700452 221.58163 
L 471.150632 223.225517 
L 472.600811 223.067137 
L 475.501169 220.942698 
L 476.951349 220.333645 
L 478.401528 219.982033 
L 479.851707 219.471307 
L 481.301887 218.226774 
L 482.752066 215.705468 
L 484.202245 212.07153 
L 485.652425 208.864446 
L 487.102604 208.388837 
L 488.552783 211.652529 
L 490.002963 217.033324 
L 491.453142 221.556776 
L 492.903321 223.428892 
L 494.353501 223.016694 
L 497.253859 220.314992 
L 498.704039 218.711288 
L 500.154218 216.132282 
L 501.604397 212.081539 
L 504.504756 202.202405 
L 505.954935 199.103389 
L 507.405115 198.483188 
L 508.855294 200.206759 
L 510.305473 203.00203 
L 511.755653 204.52741 
L 513.205832 202.389047 
L 514.656011 195.912497 
L 516.106191 187.38722 
L 517.55637 181.257022 
L 519.006549 181.24384 
L 520.456729 187.797865 
L 523.357087 208.854889 
L 524.807266 216.613442 
L 526.257446 220.14775 
L 527.707625 220.213132 
L 529.157804 218.920422 
L 530.607984 217.933682 
L 532.058163 217.416409 
L 533.508342 216.654243 
L 534.958522 215.391351 
L 536.408701 214.39473 
L 537.85888 214.609238 
L 539.30906 215.724135 
L 540.759239 215.817717 
L 542.209418 212.666697 
L 543.659598 205.655079 
L 545.109777 196.990021 
L 546.559956 191.031236 
L 548.010136 191.316678 
L 549.460315 197.589208 
L 550.910494 206.17202 
L 552.360674 213.27185 
L 553.810853 217.435336 
L 555.261032 219.253848 
L 556.711212 219.858364 
L 558.161391 220.012944 
L 563.962108 220.048834 
L 610.367847 220.143767 
L 611.818026 220.45529 
L 613.268205 221.431202 
L 614.718385 223.79758 
L 616.168564 228.185592 
L 619.068923 239.963 
L 620.519102 242.603696 
L 621.969281 240.68347 
L 624.86964 229.863241 
L 626.319819 226.956292 
L 627.769998 228.095377 
L 629.220178 232.712572 
L 630.670357 238.340723 
L 632.120536 241.849252 
L 633.570716 241.794038 
L 635.020895 239.491814 
L 636.471074 237.496148 
L 636.471074 237.496148 
" clip-path="url(#p56d833390d)" style="fill: none; stroke: #9467bd; stroke-width: 2; stroke-linecap: square"/>
   </g>
   <g id="line2d_27">
    <path d="M 405.892562 233.826204 
L 408.792921 237.957981 
L 410.2431 238.264203 
L 411.693279 236.917294 
L 413.143459 234.906648 
L 414.593638 232.484874 
L 416.043817 229.283527 
L 418.944176 221.636986 
L 420.394355 218.790366 
L 421.844535 217.233067 
L 423.294714 216.890895 
L 424.744893 217.36888 
L 426.195073 218.115185 
L 427.645252 218.602169 
L 429.095431 218.523423 
L 430.54561 218.087535 
L 431.99579 218.275861 
L 433.445969 220.63127 
L 434.896148 226.251738 
L 436.346328 234.312179 
L 437.796507 241.319616 
L 439.246686 242.537261 
L 440.696866 235.351273 
L 443.597224 207.815414 
L 445.047404 199.845269 
L 446.497583 201.123505 
L 447.947762 209.731461 
L 449.397942 219.934274 
L 450.848121 226.199051 
L 452.2983 226.79651 
L 455.198659 221.35202 
L 456.648838 220.781295 
L 458.099018 222.569718 
L 459.549197 226.144798 
L 460.999376 230.363179 
L 462.449556 233.481249 
L 463.899735 234.168046 
L 465.349914 233.028288 
L 466.800094 232.569001 
L 468.250273 235.010076 
L 469.700452 239.903755 
L 471.150632 244.198179 
L 472.600811 245.067291 
L 474.05099 242.633571 
L 475.501169 239.469212 
L 476.951349 237.674781 
L 478.401528 237.182875 
L 479.851707 237.007614 
L 481.301887 237.288594 
L 482.752066 239.123532 
L 484.202245 242.302734 
L 485.652425 244.376816 
L 487.102604 242.878212 
L 488.552783 237.90149 
L 490.002963 231.874808 
L 491.453142 227.426439 
L 492.903321 225.873232 
L 494.353501 226.918741 
L 495.80368 228.95118 
L 497.253859 229.96671 
L 498.704039 228.958764 
L 501.604397 224.084993 
L 503.054577 222.363243 
L 504.504756 221.357852 
L 505.954935 220.763065 
L 507.405115 220.394618 
L 508.855294 220.187379 
L 511.755653 220.059939 
L 527.707625 219.869897 
L 529.157804 219.497669 
L 530.607984 218.726658 
L 533.508342 216.450038 
L 534.958522 215.954832 
L 536.408701 216.383847 
L 542.209418 220.606483 
L 545.109777 223.291282 
L 546.559956 224.157042 
L 548.010136 224.843972 
L 550.910494 226.792737 
L 552.360674 226.965219 
L 553.810853 226.157192 
L 555.261032 225.814015 
L 556.711212 228.48652 
L 558.161391 236.176095 
L 561.06175 260.321257 
L 562.511929 266.529683 
L 563.962108 264.246336 
L 566.862467 248.022587 
L 568.312646 242.185771 
L 569.762826 238.648353 
L 571.213005 236.331878 
L 572.663184 234.853604 
L 574.113363 234.402564 
L 575.563543 235.326713 
L 577.013722 237.991555 
L 578.463901 242.332707 
L 579.914081 247.401957 
L 581.36426 251.472104 
L 582.814439 252.75229 
L 584.264619 250.465682 
L 585.714798 245.552732 
L 587.164977 239.985172 
L 591.515515 225.147752 
L 592.965695 219.294099 
L 594.415874 214.267546 
L 595.866053 211.677086 
L 597.316233 211.840124 
L 598.766412 213.386079 
L 600.216591 214.32093 
L 601.666771 213.469283 
L 604.567129 208.70438 
L 606.017309 207.619053 
L 607.467488 208.16127 
L 610.367847 210.54237 
L 611.818026 211.702347 
L 613.268205 213.458978 
L 616.168564 217.766772 
L 617.618743 219.103316 
L 619.068923 219.742963 
L 620.519102 219.971498 
L 624.86964 220.048834 
L 636.471074 220.048834 
L 636.471074 220.048834 
" clip-path="url(#p56d833390d)" style="fill: none; stroke: #1f77b4; stroke-width: 2; stroke-linecap: square"/>
   </g>
   <g id="line2d_28">
    <path d="M 405.892562 220.048834 
L 439.246686 220.142916 
L 440.696866 220.420935 
L 442.147045 221.194986 
L 443.597224 222.798309 
L 446.497583 227.522681 
L 447.947762 228.517812 
L 449.397942 227.522681 
L 452.2983 222.798309 
L 453.74848 221.194986 
L 455.198659 220.420935 
L 456.648838 220.142916 
L 459.549197 220.051675 
L 517.55637 220.048834 
L 548.010136 220.142567 
L 549.460315 220.542967 
L 550.910494 222.095168 
L 552.360674 226.715852 
L 553.810853 237.162967 
L 555.261032 254.710876 
L 556.711212 275.504832 
L 558.161391 290.197171 
L 559.61157 290.236092 
L 561.06175 275.596242 
L 562.511929 254.804244 
L 563.962108 237.225676 
L 565.412288 226.757288 
L 566.862467 222.178827 
L 568.312646 220.915557 
L 569.762826 221.616908 
L 571.213005 224.641375 
L 572.663184 231.249241 
L 574.113363 241.824017 
L 575.563543 254.419852 
L 577.013722 265.727481 
L 578.463901 273.808927 
L 579.914081 278.72542 
L 581.36426 280.355359 
L 582.814439 277.667198 
L 584.264619 270.785049 
L 587.164977 253.756048 
L 588.615157 246.848134 
L 590.065336 241.238612 
L 591.515515 238.045911 
L 592.965695 239.407274 
L 594.415874 246.589448 
L 595.866053 258.712017 
L 597.316233 272.740927 
L 598.766412 283.972536 
L 600.216591 287.216046 
L 601.666771 279.691809 
L 603.11695 263.84485 
L 604.567129 246.236363 
L 606.017309 232.883266 
L 607.467488 226.085871 
L 608.917667 225.438406 
L 610.367847 230.136922 
L 611.818026 239.193726 
L 613.268205 249.922267 
L 614.718385 257.821014 
L 616.168564 259.101725 
L 617.618743 253.370009 
L 620.519102 233.798499 
L 621.969281 226.616621 
L 623.41946 222.598555 
L 624.86964 220.912025 
L 626.319819 220.64112 
L 627.769998 221.678965 
L 629.220178 225.0061 
L 630.670357 232.138495 
L 632.120536 243.470024 
L 633.570716 256.69761 
L 635.020895 267.745195 
L 636.471074 273.663799 
L 636.471074 273.663799 
" clip-path="url(#p56d833390d)" style="fill: none; stroke: #d62728; stroke-width: 2; stroke-linecap: square"/>
   </g>
   <g id="line2d_29">
    <path d="M 405.892562 228.261483 
L 407.342741 232.451236 
L 408.792921 238.86343 
L 410.2431 244.219347 
L 411.693279 245.484944 
L 413.143459 241.561957 
L 416.043817 225.709942 
L 417.493997 219.924216 
L 418.944176 217.818716 
L 420.394355 218.866513 
L 421.844535 221.922303 
L 424.744893 229.754978 
L 426.195073 231.517337 
L 427.645252 229.793105 
L 429.095431 224.765734 
L 430.54561 218.618783 
L 431.99579 214.237872 
L 433.445969 213.168223 
L 434.896148 214.713365 
L 436.346328 217.020486 
L 437.796507 218.742176 
L 439.246686 219.589612 
L 440.696866 219.79352 
L 442.147045 219.451754 
L 443.597224 218.273952 
L 445.047404 215.79919 
L 447.947762 208.497104 
L 449.397942 206.962158 
L 450.848121 208.517636 
L 455.198659 219.547535 
L 459.549197 228.303052 
L 460.999376 229.430144 
L 462.449556 228.325516 
L 466.800094 220.409077 
L 468.250273 217.559503 
L 469.700452 212.862003 
L 471.150632 205.552921 
L 472.600811 196.947714 
L 474.05099 190.244473 
L 475.501169 188.330386 
L 476.951349 191.830811 
L 478.401528 199.504708 
L 482.752066 229.5882 
L 484.202245 235.082703 
L 485.652425 236.865539 
L 488.552783 236.648815 
L 490.002963 236.563826 
L 494.353501 235.282999 
L 495.80368 234.897198 
L 497.253859 233.652456 
L 498.704039 231.468813 
L 501.604397 226.15895 
L 503.054577 224.012543 
L 504.504756 223.015282 
L 505.954935 223.750738 
L 507.405115 226.378242 
L 508.855294 230.411908 
L 510.305473 234.820337 
L 511.755653 238.370252 
L 513.205832 239.978394 
L 514.656011 239.212554 
L 517.55637 234.571531 
L 519.006549 233.248443 
L 520.456729 232.30695 
L 521.906908 230.748097 
L 523.357087 228.371194 
L 527.707625 219.773421 
L 529.157804 217.655593 
L 530.607984 215.792618 
L 532.058163 212.914884 
L 533.508342 208.228962 
L 534.958522 202.794203 
L 536.408701 199.034874 
L 537.85888 198.742317 
L 539.30906 201.875435 
L 542.209418 212.647953 
L 543.659598 216.833984 
L 545.109777 218.596254 
L 546.559956 217.764887 
L 548.010136 214.432653 
L 549.460315 207.9879 
L 550.910494 196.796187 
L 552.360674 179.77455 
L 553.810853 159.869494 
L 555.261032 145.483124 
L 556.711212 145.276484 
L 558.161391 159.935209 
L 559.61157 180.713911 
L 561.06175 196.615596 
L 562.511929 201.75223 
L 563.962108 196.918476 
L 566.862467 177.872415 
L 568.312646 171.855106 
L 569.762826 169.077882 
L 571.213005 169.948358 
L 572.663184 176.101901 
L 574.113363 187.349463 
L 575.563543 200.14091 
L 577.013722 210.326622 
L 578.463901 216.278305 
L 579.914081 218.894904 
L 581.36426 219.7702 
L 582.814439 219.995981 
L 587.164977 220.048834 
L 597.316233 220.016369 
L 598.766412 219.872572 
L 600.216591 219.302961 
L 601.666771 217.54817 
L 603.11695 213.382873 
L 604.567129 205.863925 
L 606.017309 195.858802 
L 607.467488 186.832917 
L 608.917667 183.057038 
L 610.367847 186.069842 
L 613.268205 199.799758 
L 614.718385 203.788691 
L 616.168564 205.848497 
L 617.618743 207.062895 
L 619.068923 206.357243 
L 620.519102 201.162179 
L 621.969281 190.193166 
L 624.86964 160.444102 
L 626.319819 149.646186 
L 627.769998 144.987794 
L 629.220178 146.64961 
L 630.670357 153.490148 
L 632.120536 163.792732 
L 635.020895 186.895084 
L 636.471074 193.901978 
L 636.471074 193.901978 
" clip-path="url(#p56d833390d)" style="fill: none; stroke: #ff7f0e; stroke-width: 2; stroke-linecap: square"/>
   </g>
   <g id="LineCollection_1">
    <path d="M 521.877904 271.793513 
L 521.877904 157.327867 
" clip-path="url(#p56d833390d)" style="fill: none; stroke-dasharray: 7.4,3.2; stroke-dashoffset: 0; stroke: #000000; stroke-width: 2"/>
    <path d="M 536.379697 271.793513 
L 536.379697 157.327867 
" clip-path="url(#p56d833390d)" style="fill: none; stroke-dasharray: 7.4,3.2; stroke-dashoffset: 0; stroke: #000000; stroke-width: 2"/>
    <path d="M 565.383284 271.793513 
L 565.383284 157.327867 
" clip-path="url(#p56d833390d)" style="fill: none; stroke-dasharray: 7.4,3.2; stroke-dashoffset: 0; stroke: #000000; stroke-width: 2"/>
    <path d="M 623.390457 271.793513 
L 623.390457 157.327867 
" clip-path="url(#p56d833390d)" style="fill: none; stroke-dasharray: 7.4,3.2; stroke-dashoffset: 0; stroke: #000000; stroke-width: 2"/>
   </g>
   <g id="patch_8">
    <path d="M 394.363636 333.490909 
L 394.363636 86.4 
" style="fill: none; stroke: #000000; stroke-width: 0.8; stroke-linejoin: miter; stroke-linecap: square"/>
   </g>
   <g id="patch_9">
    <path d="M 648 333.490909 
L 648 86.4 
" style="fill: none; stroke: #000000; stroke-width: 0.8; stroke-linejoin: miter; stroke-linecap: square"/>
   </g>
   <g id="patch_10">
    <path d="M 394.363636 333.490909 
L 648 333.490909 
" style="fill: none; stroke: #000000; stroke-width: 0.8; stroke-linejoin: miter; stroke-linecap: square"/>
   </g>
   <g id="patch_11">
    <path d="M 394.363636 86.4 
L 648 86.4 
" style="fill: none; stroke: #000000; stroke-width: 0.8; stroke-linejoin: miter; stroke-linecap: square"/>
   </g>
   <g id="text_26">
    <!-- unit_123 -->
    <g transform="translate(495.105256 80.4)scale(0.12 -0.12)">
     <defs>
      <path id="DejaVuSans-75" d="M 544 1381 
L 544 3500 
L 1119 3500 
L 1119 1403 
Q 1119 906 1312 657 
Q 1506 409 1894 409 
Q 2359 409 2629 706 
Q 2900 1003 2900 1516 
L 2900 3500 
L 3475 3500 
L 3475 0 
L 2900 0 
L 2900 538 
Q 2691 219 2414 64 
Q 2138 -91 1772 -91 
Q 1169 -91 856 284 
Q 544 659 544 1381 
z
M 1991 3584 
L 1991 3584 
z
" transform="scale(0.015625)"/>
      <path id="DejaVuSans-6e" d="M 3513 2113 
L 3513 0 
L 2938 0 
L 2938 2094 
Q 2938 2591 2744 2837 
Q 2550 3084 2163 3084 
Q 1697 3084 1428 2787 
Q 1159 2491 1159 1978 
L 1159 0 
L 581 0 
L 581 3500 
L 1159 3500 
L 1159 2956 
Q 1366 3272 1645 3428 
Q 1925 3584 2291 3584 
Q 2894 3584 3203 3211 
Q 3513 2838 3513 2113 
z
" transform="scale(0.015625)"/>
      <path id="DejaVuSans-69" d="M 603 3500 
L 1178 3500 
L 1178 0 
L 603 0 
L 603 3500 
z
M 603 4863 
L 1178 4863 
L 1178 4134 
L 603 4134 
L 603 4863 
z
" transform="scale(0.015625)"/>
      <path id="DejaVuSans-74" d="M 1172 4494 
L 1172 3500 
L 2356 3500 
L 2356 3053 
L 1172 3053 
L 1172 1153 
Q 1172 725 1289 603 
Q 1406 481 1766 481 
L 2356 481 
L 2356 0 
L 1766 0 
Q 1100 0 847 248 
Q 594 497 594 1153 
L 594 3053 
L 172 3053 
L 172 3500 
L 594 3500 
L 594 4494 
L 1172 4494 
z
" transform="scale(0.015625)"/>
      <path id="DejaVuSans-5f" d="M 3263 -1063 
L 3263 -1509 
L -63 -1509 
L -63 -1063 
L 3263 -1063 
z
" transform="scale(0.015625)"/>
      <path id="DejaVuSans-33" d="M 2597 2516 
Q 3050 2419 3304 2112 
Q 3559 1806 3559 1356 
Q 3559 666 3084 287 
Q 2609 -91 1734 -91 
Q 1441 -91 1130 -33 
Q 819 25 488 141 
L 488 750 
Q 750 597 1062 519 
Q 1375 441 1716 441 
Q 2309 441 2620 675 
Q 2931 909 2931 1356 
Q 2931 1769 2642 2001 
Q 2353 2234 1838 2234 
L 1294 2234 
L 1294 2753 
L 1863 2753 
Q 2328 2753 2575 2939 
Q 2822 3125 2822 3475 
Q 2822 3834 2567 4026 
Q 2313 4219 1838 4219 
Q 1578 4219 1281 4162 
Q 984 4106 628 3988 
L 628 4550 
Q 988 4650 1302 4700 
Q 1616 4750 1894 4750 
Q 2613 4750 3031 4423 
Q 3450 4097 3450 3541 
Q 3450 3153 3228 2886 
Q 3006 2619 2597 2516 
z
" transform="scale(0.015625)"/>
     </defs>
     <use xlink:href="#DejaVuSans-75"/>
     <use xlink:href="#DejaVuSans-6e" x="63.378906"/>
     <use xlink:href="#DejaVuSans-69" x="126.757812"/>
     <use xlink:href="#DejaVuSans-74" x="154.541016"/>
     <use xlink:href="#DejaVuSans-5f" x="193.75"/>
     <use xlink:href="#DejaVuSans-31" x="243.75"/>
     <use xlink:href="#DejaVuSans-32" x="307.373047"/>
     <use xlink:href="#DejaVuSans-33" x="370.996094"/>
    </g>
   </g>
  </g>
  <g id="axes_3">
   <g id="patch_12">
    <path d="M 90 630 
L 343.636364 630 
L 343.636364 382.909091 
L 90 382.909091 
z
" style="fill: #ffffff"/>
   </g>
   <g id="matplotlib.axis_5">
    <g id="xtick_12">
     <g id="line2d_30">
      <g>
       <use xlink:href="#m1554a39c6b" x="90" y="630" style="stroke: #000000; stroke-width: 0.8"/>
      </g>
     </g>
     <g id="text_27">
      <!-- 0.0 -->
      <g transform="translate(82.048438 644.598437)scale(0.1 -0.1)">
       <use xlink:href="#DejaVuSans-30"/>
       <use xlink:href="#DejaVuSans-2e" x="63.623047"/>
       <use xlink:href="#DejaVuSans-30" x="95.410156"/>
      </g>
     </g>
    </g>
    <g id="xtick_13">
     <g id="line2d_31">
      <g>
       <use xlink:href="#m1554a39c6b" x="140.727273" y="630" style="stroke: #000000; stroke-width: 0.8"/>
      </g>
     </g>
     <g id="text_28">
      <!-- 0.2 -->
      <g transform="translate(132.77571 644.598437)scale(0.1 -0.1)">
       <use xlink:href="#DejaVuSans-30"/>
       <use xlink:href="#DejaVuSans-2e" x="63.623047"/>
       <use xlink:href="#DejaVuSans-32" x="95.410156"/>
      </g>
     </g>
    </g>
    <g id="xtick_14">
     <g id="line2d_32">
      <g>
       <use xlink:href="#m1554a39c6b" x="191.454545" y="630" style="stroke: #000000; stroke-width: 0.8"/>
      </g>
     </g>
     <g id="text_29">
      <!-- 0.4 -->
      <g transform="translate(183.502983 644.598437)scale(0.1 -0.1)">
       <use xlink:href="#DejaVuSans-30"/>
       <use xlink:href="#DejaVuSans-2e" x="63.623047"/>
       <use xlink:href="#DejaVuSans-34" x="95.410156"/>
      </g>
     </g>
    </g>
    <g id="xtick_15">
     <g id="line2d_33">
      <g>
       <use xlink:href="#m1554a39c6b" x="242.181818" y="630" style="stroke: #000000; stroke-width: 0.8"/>
      </g>
     </g>
     <g id="text_30">
      <!-- 0.6 -->
      <g transform="translate(234.230256 644.598437)scale(0.1 -0.1)">
       <use xlink:href="#DejaVuSans-30"/>
       <use xlink:href="#DejaVuSans-2e" x="63.623047"/>
       <use xlink:href="#DejaVuSans-36" x="95.410156"/>
      </g>
     </g>
    </g>
    <g id="xtick_16">
     <g id="line2d_34">
      <g>
       <use xlink:href="#m1554a39c6b" x="292.909091" y="630" style="stroke: #000000; stroke-width: 0.8"/>
      </g>
     </g>
     <g id="text_31">
      <!-- 0.8 -->
      <g transform="translate(284.957528 644.598437)scale(0.1 -0.1)">
       <use xlink:href="#DejaVuSans-30"/>
       <use xlink:href="#DejaVuSans-2e" x="63.623047"/>
       <use xlink:href="#DejaVuSans-38" x="95.410156"/>
      </g>
     </g>
    </g>
    <g id="xtick_17">
     <g id="line2d_35">
      <g>
       <use xlink:href="#m1554a39c6b" x="343.636364" y="630" style="stroke: #000000; stroke-width: 0.8"/>
      </g>
     </g>
     <g id="text_32">
      <!-- 1.0 -->
      <g transform="translate(335.684801 644.598437)scale(0.1 -0.1)">
       <use xlink:href="#DejaVuSans-31"/>
       <use xlink:href="#DejaVuSans-2e" x="63.623047"/>
       <use xlink:href="#DejaVuSans-30" x="95.410156"/>
      </g>
     </g>
    </g>
   </g>
   <g id="matplotlib.axis_6">
    <g id="ytick_15">
     <g id="line2d_36">
      <g>
       <use xlink:href="#m7cc5737df3" x="90" y="630" style="stroke: #000000; stroke-width: 0.8"/>
      </g>
     </g>
     <g id="text_33">
      <!-- 0.0 -->
      <g transform="translate(67.096875 633.799219)scale(0.1 -0.1)">
       <use xlink:href="#DejaVuSans-30"/>
       <use xlink:href="#DejaVuSans-2e" x="63.623047"/>
       <use xlink:href="#DejaVuSans-30" x="95.410156"/>
      </g>
     </g>
    </g>
    <g id="ytick_16">
     <g id="line2d_37">
      <g>
       <use xlink:href="#m7cc5737df3" x="90" y="580.581818" style="stroke: #000000; stroke-width: 0.8"/>
      </g>
     </g>
     <g id="text_34">
      <!-- 0.2 -->
      <g transform="translate(67.096875 584.381037)scale(0.1 -0.1)">
       <use xlink:href="#DejaVuSans-30"/>
       <use xlink:href="#DejaVuSans-2e" x="63.623047"/>
       <use xlink:href="#DejaVuSans-32" x="95.410156"/>
      </g>
     </g>
    </g>
    <g id="ytick_17">
     <g id="line2d_38">
      <g>
       <use xlink:href="#m7cc5737df3" x="90" y="531.163636" style="stroke: #000000; stroke-width: 0.8"/>
      </g>
     </g>
     <g id="text_35">
      <!-- 0.4 -->
      <g transform="translate(67.096875 534.962855)scale(0.1 -0.1)">
       <use xlink:href="#DejaVuSans-30"/>
       <use xlink:href="#DejaVuSans-2e" x="63.623047"/>
       <use xlink:href="#DejaVuSans-34" x="95.410156"/>
      </g>
     </g>
    </g>
    <g id="ytick_18">
     <g id="line2d_39">
      <g>
       <use xlink:href="#m7cc5737df3" x="90" y="481.745455" style="stroke: #000000; stroke-width: 0.8"/>
      </g>
     </g>
     <g id="text_36">
      <!-- 0.6 -->
      <g transform="translate(67.096875 485.544673)scale(0.1 -0.1)">
       <use xlink:href="#DejaVuSans-30"/>
       <use xlink:href="#DejaVuSans-2e" x="63.623047"/>
       <use xlink:href="#DejaVuSans-36" x="95.410156"/>
      </g>
     </g>
    </g>
    <g id="ytick_19">
     <g id="line2d_40">
      <g>
       <use xlink:href="#m7cc5737df3" x="90" y="432.327273" style="stroke: #000000; stroke-width: 0.8"/>
      </g>
     </g>
     <g id="text_37">
      <!-- 0.8 -->
      <g transform="translate(67.096875 436.126491)scale(0.1 -0.1)">
       <use xlink:href="#DejaVuSans-30"/>
       <use xlink:href="#DejaVuSans-2e" x="63.623047"/>
       <use xlink:href="#DejaVuSans-38" x="95.410156"/>
      </g>
     </g>
    </g>
    <g id="ytick_20">
     <g id="line2d_41">
      <g>
       <use xlink:href="#m7cc5737df3" x="90" y="382.909091" style="stroke: #000000; stroke-width: 0.8"/>
      </g>
     </g>
     <g id="text_38">
      <!-- 1.0 -->
      <g transform="translate(67.096875 386.70831)scale(0.1 -0.1)">
       <use xlink:href="#DejaVuSans-31"/>
       <use xlink:href="#DejaVuSans-2e" x="63.623047"/>
       <use xlink:href="#DejaVuSans-30" x="95.410156"/>
      </g>
     </g>
    </g>
   </g>
   <g id="patch_13">
    <path d="M 90 630 
L 90 382.909091 
" style="fill: none; stroke: #000000; stroke-width: 0.8; stroke-linejoin: miter; stroke-linecap: square"/>
   </g>
   <g id="patch_14">
    <path d="M 343.636364 630 
L 343.636364 382.909091 
" style="fill: none; stroke: #000000; stroke-width: 0.8; stroke-linejoin: miter; stroke-linecap: square"/>
   </g>
   <g id="patch_15">
    <path d="M 90 630 
L 343.636364 630 
" style="fill: none; stroke: #000000; stroke-width: 0.8; stroke-linejoin: miter; stroke-linecap: square"/>
   </g>
   <g id="patch_16">
    <path d="M 90 382.909091 
L 343.636364 382.909091 
" style="fill: none; stroke: #000000; stroke-width: 0.8; stroke-linejoin: miter; stroke-linecap: square"/>
   </g>
  </g>
  <g id="axes_4">
   <g id="patch_17">
    <path d="M 394.363636 630 
L 648 630 
L 648 382.909091 
L 394.363636 382.909091 
z
" style="fill: #ffffff"/>
   </g>
   <g id="matplotlib.axis_7">
    <g id="xtick_18">
     <g id="line2d_42">
      <g>
       <use xlink:href="#m1554a39c6b" x="405.863558" y="630" style="stroke: #000000; stroke-width: 0.8"/>
      </g>
     </g>
     <g id="text_39">
      <!-- 0 -->
      <g transform="translate(402.682308 644.598437)scale(0.1 -0.1)">
       <use xlink:href="#DejaVuSans-30"/>
      </g>
     </g>
    </g>
    <g id="xtick_19">
     <g id="line2d_43">
      <g>
       <use xlink:href="#m1554a39c6b" x="463.870731" y="630" style="stroke: #000000; stroke-width: 0.8"/>
      </g>
     </g>
     <g id="text_40">
      <!-- 2000 -->
      <g transform="translate(451.145731 644.598437)scale(0.1 -0.1)">
       <use xlink:href="#DejaVuSans-32"/>
       <use xlink:href="#DejaVuSans-30" x="63.623047"/>
       <use xlink:href="#DejaVuSans-30" x="127.246094"/>
       <use xlink:href="#DejaVuSans-30" x="190.869141"/>
      </g>
     </g>
    </g>
    <g id="xtick_20">
     <g id="line2d_44">
      <g>
       <use xlink:href="#m1554a39c6b" x="521.877904" y="630" style="stroke: #000000; stroke-width: 0.8"/>
      </g>
     </g>
     <g id="text_41">
      <!-- 4000 -->
      <g transform="translate(509.152904 644.598437)scale(0.1 -0.1)">
       <use xlink:href="#DejaVuSans-34"/>
       <use xlink:href="#DejaVuSans-30" x="63.623047"/>
       <use xlink:href="#DejaVuSans-30" x="127.246094"/>
       <use xlink:href="#DejaVuSans-30" x="190.869141"/>
      </g>
     </g>
    </g>
    <g id="xtick_21">
     <g id="line2d_45">
      <g>
       <use xlink:href="#m1554a39c6b" x="579.885077" y="630" style="stroke: #000000; stroke-width: 0.8"/>
      </g>
     </g>
     <g id="text_42">
      <!-- 6000 -->
      <g transform="translate(567.160077 644.598437)scale(0.1 -0.1)">
       <use xlink:href="#DejaVuSans-36"/>
       <use xlink:href="#DejaVuSans-30" x="63.623047"/>
       <use xlink:href="#DejaVuSans-30" x="127.246094"/>
       <use xlink:href="#DejaVuSans-30" x="190.869141"/>
      </g>
     </g>
    </g>
    <g id="xtick_22">
     <g id="line2d_46">
      <g>
       <use xlink:href="#m1554a39c6b" x="637.89225" y="630" style="stroke: #000000; stroke-width: 0.8"/>
      </g>
     </g>
     <g id="text_43">
      <!-- 8000 -->
      <g transform="translate(625.16725 644.598437)scale(0.1 -0.1)">
       <use xlink:href="#DejaVuSans-38"/>
       <use xlink:href="#DejaVuSans-30" x="63.623047"/>
       <use xlink:href="#DejaVuSans-30" x="127.246094"/>
       <use xlink:href="#DejaVuSans-30" x="190.869141"/>
      </g>
     </g>
    </g>
   </g>
   <g id="matplotlib.axis_8">
    <g id="ytick_21">
     <g id="line2d_47">
      <g>
       <use xlink:href="#m7cc5737df3" x="394.363636" y="630" style="stroke: #000000; stroke-width: 0.8"/>
      </g>
     </g>
     <g id="text_44">
      <!-- −2 -->
      <g transform="translate(372.621449 633.799219)scale(0.1 -0.1)">
       <use xlink:href="#DejaVuSans-2212"/>
       <use xlink:href="#DejaVuSans-32" x="83.789062"/>
      </g>
     </g>
    </g>
    <g id="ytick_22">
     <g id="line2d_48">
      <g>
       <use xlink:href="#m7cc5737df3" x="394.363636" y="598.960761" style="stroke: #000000; stroke-width: 0.8"/>
      </g>
     </g>
     <g id="text_45">
      <!-- −1 -->
      <g transform="translate(372.621449 602.759979)scale(0.1 -0.1)">
       <use xlink:href="#DejaVuSans-2212"/>
       <use xlink:href="#DejaVuSans-31" x="83.789062"/>
      </g>
     </g>
    </g>
    <g id="ytick_23">
     <g id="line2d_49">
      <g>
       <use xlink:href="#m7cc5737df3" x="394.363636" y="567.921521" style="stroke: #000000; stroke-width: 0.8"/>
      </g>
     </g>
     <g id="text_46">
      <!-- 0 -->
      <g transform="translate(381.001136 571.72074)scale(0.1 -0.1)">
       <use xlink:href="#DejaVuSans-30"/>
      </g>
     </g>
    </g>
    <g id="ytick_24">
     <g id="line2d_50">
      <g>
       <use xlink:href="#m7cc5737df3" x="394.363636" y="536.882282" style="stroke: #000000; stroke-width: 0.8"/>
      </g>
     </g>
     <g id="text_47">
      <!-- 1 -->
      <g transform="translate(381.001136 540.681501)scale(0.1 -0.1)">
       <use xlink:href="#DejaVuSans-31"/>
      </g>
     </g>
    </g>
    <g id="ytick_25">
     <g id="line2d_51">
      <g>
       <use xlink:href="#m7cc5737df3" x="394.363636" y="505.843043" style="stroke: #000000; stroke-width: 0.8"/>
      </g>
     </g>
     <g id="text_48">
      <!-- 2 -->
      <g transform="translate(381.001136 509.642262)scale(0.1 -0.1)">
       <use xlink:href="#DejaVuSans-32"/>
      </g>
     </g>
    </g>
    <g id="ytick_26">
     <g id="line2d_52">
      <g>
       <use xlink:href="#m7cc5737df3" x="394.363636" y="474.803804" style="stroke: #000000; stroke-width: 0.8"/>
      </g>
     </g>
     <g id="text_49">
      <!-- 3 -->
      <g transform="translate(381.001136 478.603022)scale(0.1 -0.1)">
       <use xlink:href="#DejaVuSans-33"/>
      </g>
     </g>
    </g>
    <g id="ytick_27">
     <g id="line2d_53">
      <g>
       <use xlink:href="#m7cc5737df3" x="394.363636" y="443.764564" style="stroke: #000000; stroke-width: 0.8"/>
      </g>
     </g>
     <g id="text_50">
      <!-- 4 -->
      <g transform="translate(381.001136 447.563783)scale(0.1 -0.1)">
       <use xlink:href="#DejaVuSans-34"/>
      </g>
     </g>
    </g>
    <g id="ytick_28">
     <g id="line2d_54">
      <g>
       <use xlink:href="#m7cc5737df3" x="394.363636" y="412.725325" style="stroke: #000000; stroke-width: 0.8"/>
      </g>
     </g>
     <g id="text_51">
      <!-- 5 -->
      <g transform="translate(381.001136 416.524544)scale(0.1 -0.1)">
       <defs>
        <path id="DejaVuSans-35" d="M 691 4666 
L 3169 4666 
L 3169 4134 
L 1269 4134 
L 1269 2991 
Q 1406 3038 1543 3061 
Q 1681 3084 1819 3084 
Q 2600 3084 3056 2656 
Q 3513 2228 3513 1497 
Q 3513 744 3044 326 
Q 2575 -91 1722 -91 
Q 1428 -91 1123 -41 
Q 819 9 494 109 
L 494 744 
Q 775 591 1075 516 
Q 1375 441 1709 441 
Q 2250 441 2565 725 
Q 2881 1009 2881 1497 
Q 2881 1984 2565 2268 
Q 2250 2553 1709 2553 
Q 1456 2553 1204 2497 
Q 953 2441 691 2322 
L 691 4666 
z
" transform="scale(0.015625)"/>
       </defs>
       <use xlink:href="#DejaVuSans-35"/>
      </g>
     </g>
    </g>
   </g>
   <g id="line2d_55">
    <path d="M 405.892562 568.816762 
L 407.342741 578.521862 
L 410.2431 651.698193 
L 411.693279 640.264399 
L 414.593638 599.53929 
L 416.043817 597.500207 
L 418.944176 609.879448 
L 420.394355 634.830072 
L 421.844535 614.267482 
L 423.294714 587.195588 
L 424.744893 612.889312 
L 426.195073 669.834955 
L 427.645252 688.809904 
L 429.095431 656.880406 
L 430.54561 641.638444 
L 431.99579 647.947311 
L 433.445969 615.898361 
L 434.896148 603.461924 
L 437.051832 721 
M 438.717682 721 
L 439.246686 697.92397 
L 440.696866 579.226545 
L 442.147045 512.65027 
L 443.597224 556.543582 
L 445.047404 585.152715 
L 446.497583 576.600549 
L 447.947762 603.938652 
L 449.397942 644.307646 
L 450.848121 629.55584 
L 452.2983 583.813331 
L 455.198659 382.909091 
L 456.648838 441.745377 
L 458.099018 569.461898 
L 459.549197 572.328892 
L 460.999376 527.380416 
L 462.449556 544.115717 
L 463.899735 589.376375 
L 465.349914 622.472397 
L 466.800094 644.482678 
L 468.250273 679.928542 
L 469.700452 674.229399 
L 471.150632 621.713626 
L 472.600811 611.533454 
L 474.05099 672.631545 
L 475.501169 714.368639 
L 478.401528 625.514355 
L 479.851707 593.954478 
L 481.301887 574.171663 
L 484.202245 568.34836 
L 485.652425 547.945366 
L 487.102604 522.157542 
L 488.552783 523.816267 
L 490.002963 624.593041 
L 490.956198 721 
M 493.291538 721 
L 494.353501 680.025297 
L 495.80368 689.955318 
L 497.253859 633.066228 
L 498.704039 553.666906 
L 500.154218 517.85838 
L 501.604397 518.481354 
L 504.504756 428.638928 
L 505.954935 507.419142 
L 507.405115 627.957861 
L 508.855294 658.272897 
L 510.305473 600.739397 
L 511.755653 618.806877 
L 513.431646 721 
M 520.914379 721 
L 521.906908 697.096959 
L 523.357087 699.716966 
L 524.807266 621.037835 
L 526.257446 535.719716 
L 529.157804 599.900551 
L 532.058163 569.98265 
L 533.508342 555.468469 
L 534.958522 517.845307 
L 536.408701 524.402839 
L 538.547554 721 
M 549.697104 721 
L 550.910494 624.318431 
L 552.360674 631.301577 
L 552.97733 721 
M 559.540197 721 
L 559.61157 703.566259 
L 561.06175 602.401431 
L 562.511929 581.437671 
L 563.962108 653.153972 
L 564.296285 721 
M 571.501049 721 
L 572.663184 680.341205 
L 574.113363 598.189731 
L 575.563543 547.521837 
L 577.013722 525.368516 
L 578.463901 536.950596 
L 579.914081 538.641293 
L 581.36426 526.4784 
L 582.814439 533.298615 
L 585.714798 554.505622 
L 587.164977 557.73752 
L 588.615157 555.095386 
L 590.065336 560.254351 
L 591.515515 566.133305 
L 594.415874 568.916868 
L 595.866053 574.238745 
L 597.316233 571.678622 
L 598.766412 536.449183 
L 600.216591 498.29258 
L 601.666771 512.885211 
L 603.11695 548.728457 
L 604.567129 569.745735 
L 606.017309 597.51094 
L 607.467488 647.759557 
L 608.917667 659.809013 
L 611.818026 547.401211 
L 613.268205 479.900887 
L 614.718385 429.112165 
L 616.168564 468.393761 
L 617.618743 510.689574 
L 619.068923 579.342525 
L 620.519102 663.12072 
L 621.969281 661.59461 
L 623.41946 508.055139 
L 624.86964 385.615641 
L 626.319819 516.50051 
L 627.769998 663.416058 
L 629.348195 721 
M 631.038812 721 
L 632.120536 680.858416 
L 633.570716 591.805588 
L 635.020895 570.265429 
L 636.471074 601.852965 
L 636.471074 601.852965 
" clip-path="url(#p39d09117a3)" style="fill: none; stroke: #1f77b4; stroke-width: 1.5; stroke-linecap: square"/>
   </g>
   <g id="patch_18">
    <path d="M 394.363636 630 
L 394.363636 382.909091 
" style="fill: none; stroke: #000000; stroke-width: 0.8; stroke-linejoin: miter; stroke-linecap: square"/>
   </g>
   <g id="patch_19">
    <path d="M 648 630 
L 648 382.909091 
" style="fill: none; stroke: #000000; stroke-width: 0.8; stroke-linejoin: miter; stroke-linecap: square"/>
   </g>
   <g id="patch_20">
    <path d="M 394.363636 630 
L 648 630 
" style="fill: none; stroke: #000000; stroke-width: 0.8; stroke-linejoin: miter; stroke-linecap: square"/>
   </g>
   <g id="patch_21">
    <path d="M 394.363636 382.909091 
L 648 382.909091 
" style="fill: none; stroke: #000000; stroke-width: 0.8; stroke-linejoin: miter; stroke-linecap: square"/>
   </g>
   <g id="text_52">
    <!-- explained variance -->
    <g transform="translate(464.181818 376.909091)scale(0.12 -0.12)">
     <defs>
      <path id="DejaVuSans-65" d="M 3597 1894 
L 3597 1613 
L 953 1613 
Q 991 1019 1311 708 
Q 1631 397 2203 397 
Q 2534 397 2845 478 
Q 3156 559 3463 722 
L 3463 178 
Q 3153 47 2828 -22 
Q 2503 -91 2169 -91 
Q 1331 -91 842 396 
Q 353 884 353 1716 
Q 353 2575 817 3079 
Q 1281 3584 2069 3584 
Q 2775 3584 3186 3129 
Q 3597 2675 3597 1894 
z
M 3022 2063 
Q 3016 2534 2758 2815 
Q 2500 3097 2075 3097 
Q 1594 3097 1305 2825 
Q 1016 2553 972 2059 
L 3022 2063 
z
" transform="scale(0.015625)"/>
      <path id="DejaVuSans-78" d="M 3513 3500 
L 2247 1797 
L 3578 0 
L 2900 0 
L 1881 1375 
L 863 0 
L 184 0 
L 1544 1831 
L 300 3500 
L 978 3500 
L 1906 2253 
L 2834 3500 
L 3513 3500 
z
" transform="scale(0.015625)"/>
      <path id="DejaVuSans-70" d="M 1159 525 
L 1159 -1331 
L 581 -1331 
L 581 3500 
L 1159 3500 
L 1159 2969 
Q 1341 3281 1617 3432 
Q 1894 3584 2278 3584 
Q 2916 3584 3314 3078 
Q 3713 2572 3713 1747 
Q 3713 922 3314 415 
Q 2916 -91 2278 -91 
Q 1894 -91 1617 61 
Q 1341 213 1159 525 
z
M 3116 1747 
Q 3116 2381 2855 2742 
Q 2594 3103 2138 3103 
Q 1681 3103 1420 2742 
Q 1159 2381 1159 1747 
Q 1159 1113 1420 752 
Q 1681 391 2138 391 
Q 2594 391 2855 752 
Q 3116 1113 3116 1747 
z
" transform="scale(0.015625)"/>
      <path id="DejaVuSans-6c" d="M 603 4863 
L 1178 4863 
L 1178 0 
L 603 0 
L 603 4863 
z
" transform="scale(0.015625)"/>
      <path id="DejaVuSans-61" d="M 2194 1759 
Q 1497 1759 1228 1600 
Q 959 1441 959 1056 
Q 959 750 1161 570 
Q 1363 391 1709 391 
Q 2188 391 2477 730 
Q 2766 1069 2766 1631 
L 2766 1759 
L 2194 1759 
z
M 3341 1997 
L 3341 0 
L 2766 0 
L 2766 531 
Q 2569 213 2275 61 
Q 1981 -91 1556 -91 
Q 1019 -91 701 211 
Q 384 513 384 1019 
Q 384 1609 779 1909 
Q 1175 2209 1959 2209 
L 2766 2209 
L 2766 2266 
Q 2766 2663 2505 2880 
Q 2244 3097 1772 3097 
Q 1472 3097 1187 3025 
Q 903 2953 641 2809 
L 641 3341 
Q 956 3463 1253 3523 
Q 1550 3584 1831 3584 
Q 2591 3584 2966 3190 
Q 3341 2797 3341 1997 
z
" transform="scale(0.015625)"/>
      <path id="DejaVuSans-64" d="M 2906 2969 
L 2906 4863 
L 3481 4863 
L 3481 0 
L 2906 0 
L 2906 525 
Q 2725 213 2448 61 
Q 2172 -91 1784 -91 
Q 1150 -91 751 415 
Q 353 922 353 1747 
Q 353 2572 751 3078 
Q 1150 3584 1784 3584 
Q 2172 3584 2448 3432 
Q 2725 3281 2906 2969 
z
M 947 1747 
Q 947 1113 1208 752 
Q 1469 391 1925 391 
Q 2381 391 2643 752 
Q 2906 1113 2906 1747 
Q 2906 2381 2643 2742 
Q 2381 3103 1925 3103 
Q 1469 3103 1208 2742 
Q 947 2381 947 1747 
z
" transform="scale(0.015625)"/>
      <path id="DejaVuSans-20" transform="scale(0.015625)"/>
      <path id="DejaVuSans-76" d="M 191 3500 
L 800 3500 
L 1894 563 
L 2988 3500 
L 3597 3500 
L 2284 0 
L 1503 0 
L 191 3500 
z
" transform="scale(0.015625)"/>
      <path id="DejaVuSans-72" d="M 2631 2963 
Q 2534 3019 2420 3045 
Q 2306 3072 2169 3072 
Q 1681 3072 1420 2755 
Q 1159 2438 1159 1844 
L 1159 0 
L 581 0 
L 581 3500 
L 1159 3500 
L 1159 2956 
Q 1341 3275 1631 3429 
Q 1922 3584 2338 3584 
Q 2397 3584 2469 3576 
Q 2541 3569 2628 3553 
L 2631 2963 
z
" transform="scale(0.015625)"/>
      <path id="DejaVuSans-63" d="M 3122 3366 
L 3122 2828 
Q 2878 2963 2633 3030 
Q 2388 3097 2138 3097 
Q 1578 3097 1268 2742 
Q 959 2388 959 1747 
Q 959 1106 1268 751 
Q 1578 397 2138 397 
Q 2388 397 2633 464 
Q 2878 531 3122 666 
L 3122 134 
Q 2881 22 2623 -34 
Q 2366 -91 2075 -91 
Q 1284 -91 818 406 
Q 353 903 353 1747 
Q 353 2603 823 3093 
Q 1294 3584 2113 3584 
Q 2378 3584 2631 3529 
Q 2884 3475 3122 3366 
z
" transform="scale(0.015625)"/>
     </defs>
     <use xlink:href="#DejaVuSans-65"/>
     <use xlink:href="#DejaVuSans-78" x="59.773438"/>
     <use xlink:href="#DejaVuSans-70" x="118.953125"/>
     <use xlink:href="#DejaVuSans-6c" x="182.429688"/>
     <use xlink:href="#DejaVuSans-61" x="210.212891"/>
     <use xlink:href="#DejaVuSans-69" x="271.492188"/>
     <use xlink:href="#DejaVuSans-6e" x="299.275391"/>
     <use xlink:href="#DejaVuSans-65" x="362.654297"/>
     <use xlink:href="#DejaVuSans-64" x="424.177734"/>
     <use xlink:href="#DejaVuSans-20" x="487.654297"/>
     <use xlink:href="#DejaVuSans-76" x="519.441406"/>
     <use xlink:href="#DejaVuSans-61" x="578.621094"/>
     <use xlink:href="#DejaVuSans-72" x="639.900391"/>
     <use xlink:href="#DejaVuSans-69" x="681.013672"/>
     <use xlink:href="#DejaVuSans-61" x="708.796875"/>
     <use xlink:href="#DejaVuSans-6e" x="770.076172"/>
     <use xlink:href="#DejaVuSans-63" x="833.455078"/>
     <use xlink:href="#DejaVuSans-65" x="888.435547"/>
    </g>
   </g>
  </g>
 </g>
 <defs>
  <clipPath id="p56d833390d">
   <rect x="394.363636" y="86.4" width="253.636364" height="247.090909"/>
  </clipPath>
  <clipPath id="p39d09117a3">
   <rect x="394.363636" y="382.909091" width="253.636364" height="247.090909"/>
  </clipPath>
 </defs>
</svg>
