<?xml version="1.0" encoding="utf-8" standalone="no"?>
<!DOCTYPE svg PUBLIC "-//W3C//DTD SVG 1.1//EN"
  "http://www.w3.org/Graphics/SVG/1.1/DTD/svg11.dtd">
<svg xmlns:xlink="http://www.w3.org/1999/xlink" width="720pt" height="720pt" viewBox="0 0 720 720" xmlns="http://www.w3.org/2000/svg" version="1.1">
 <metadata>
  <rdf:RDF xmlns:dc="http://purl.org/dc/elements/1.1/" xmlns:cc="http://creativecommons.org/ns#" xmlns:rdf="http://www.w3.org/1999/02/22-rdf-syntax-ns#">
   <cc:Work>
    <dc:type rdf:resource="http://purl.org/dc/dcmitype/StillImage"/>
    <dc:date>2023-12-19T18:17:27.043643</dc:date>
    <dc:format>image/svg+xml</dc:format>
    <dc:creator>
     <cc:Agent>
      <dc:title>Matplotlib v3.5.2, https://matplotlib.org/</dc:title>
     </cc:Agent>
    </dc:creator>
   </cc:Work>
  </rdf:RDF>
 </metadata>
 <defs>
  <style type="text/css">*{stroke-linejoin: round; stroke-linecap: butt}</style>
 </defs>
 <g id="figure_1">
  <g id="patch_1">
   <path d="M 0 720 
L 720 720 
L 720 0 
L 0 0 
z
" style="fill: #ffffff"/>
  </g>
  <g id="axes_1">
   <g id="patch_2">
    <path d="M 90 333.490909 
L 343.636364 333.490909 
L 343.636364 86.4 
L 90 86.4 
z
" style="fill: #ffffff"/>
   </g>
   <g id="matplotlib.axis_1">
    <g id="xtick_1">
     <g id="line2d_1">
      <defs>
       <path id="m02e5a22ced" d="M 0 0 
L 0 3.5 
" style="stroke: #000000; stroke-width: 0.8"/>
      </defs>
      <g>
       <use xlink:href="#m02e5a22ced" x="90" y="333.490909" style="stroke: #000000; stroke-width: 0.8"/>
      </g>
     </g>
     <g id="text_1">
      <!-- 0.0 -->
      <g transform="translate(82.048438 348.089347)scale(0.1 -0.1)">
       <defs>
        <path id="DejaVuSans-30" d="M 2034 4250 
Q 1547 4250 1301 3770 
Q 1056 3291 1056 2328 
Q 1056 1369 1301 889 
Q 1547 409 2034 409 
Q 2525 409 2770 889 
Q 3016 1369 3016 2328 
Q 3016 3291 2770 3770 
Q 2525 4250 2034 4250 
z
M 2034 4750 
Q 2819 4750 3233 4129 
Q 3647 3509 3647 2328 
Q 3647 1150 3233 529 
Q 2819 -91 2034 -91 
Q 1250 -91 836 529 
Q 422 1150 422 2328 
Q 422 3509 836 4129 
Q 1250 4750 2034 4750 
z
" transform="scale(0.015625)"/>
        <path id="DejaVuSans-2e" d="M 684 794 
L 1344 794 
L 1344 0 
L 684 0 
L 684 794 
z
" transform="scale(0.015625)"/>
       </defs>
       <use xlink:href="#DejaVuSans-30"/>
       <use xlink:href="#DejaVuSans-2e" x="63.623047"/>
       <use xlink:href="#DejaVuSans-30" x="95.410156"/>
      </g>
     </g>
    </g>
    <g id="xtick_2">
     <g id="line2d_2">
      <g>
       <use xlink:href="#m02e5a22ced" x="140.727273" y="333.490909" style="stroke: #000000; stroke-width: 0.8"/>
      </g>
     </g>
     <g id="text_2">
      <!-- 0.2 -->
      <g transform="translate(132.77571 348.089347)scale(0.1 -0.1)">
       <defs>
        <path id="DejaVuSans-32" d="M 1228 531 
L 3431 531 
L 3431 0 
L 469 0 
L 469 531 
Q 828 903 1448 1529 
Q 2069 2156 2228 2338 
Q 2531 2678 2651 2914 
Q 2772 3150 2772 3378 
Q 2772 3750 2511 3984 
Q 2250 4219 1831 4219 
Q 1534 4219 1204 4116 
Q 875 4013 500 3803 
L 500 4441 
Q 881 4594 1212 4672 
Q 1544 4750 1819 4750 
Q 2544 4750 2975 4387 
Q 3406 4025 3406 3419 
Q 3406 3131 3298 2873 
Q 3191 2616 2906 2266 
Q 2828 2175 2409 1742 
Q 1991 1309 1228 531 
z
" transform="scale(0.015625)"/>
       </defs>
       <use xlink:href="#DejaVuSans-30"/>
       <use xlink:href="#DejaVuSans-2e" x="63.623047"/>
       <use xlink:href="#DejaVuSans-32" x="95.410156"/>
      </g>
     </g>
    </g>
    <g id="xtick_3">
     <g id="line2d_3">
      <g>
       <use xlink:href="#m02e5a22ced" x="191.454545" y="333.490909" style="stroke: #000000; stroke-width: 0.8"/>
      </g>
     </g>
     <g id="text_3">
      <!-- 0.4 -->
      <g transform="translate(183.502983 348.089347)scale(0.1 -0.1)">
       <defs>
        <path id="DejaVuSans-34" d="M 2419 4116 
L 825 1625 
L 2419 1625 
L 2419 4116 
z
M 2253 4666 
L 3047 4666 
L 3047 1625 
L 3713 1625 
L 3713 1100 
L 3047 1100 
L 3047 0 
L 2419 0 
L 2419 1100 
L 313 1100 
L 313 1709 
L 2253 4666 
z
" transform="scale(0.015625)"/>
       </defs>
       <use xlink:href="#DejaVuSans-30"/>
       <use xlink:href="#DejaVuSans-2e" x="63.623047"/>
       <use xlink:href="#DejaVuSans-34" x="95.410156"/>
      </g>
     </g>
    </g>
    <g id="xtick_4">
     <g id="line2d_4">
      <g>
       <use xlink:href="#m02e5a22ced" x="242.181818" y="333.490909" style="stroke: #000000; stroke-width: 0.8"/>
      </g>
     </g>
     <g id="text_4">
      <!-- 0.6 -->
      <g transform="translate(234.230256 348.089347)scale(0.1 -0.1)">
       <defs>
        <path id="DejaVuSans-36" d="M 2113 2584 
Q 1688 2584 1439 2293 
Q 1191 2003 1191 1497 
Q 1191 994 1439 701 
Q 1688 409 2113 409 
Q 2538 409 2786 701 
Q 3034 994 3034 1497 
Q 3034 2003 2786 2293 
Q 2538 2584 2113 2584 
z
M 3366 4563 
L 3366 3988 
Q 3128 4100 2886 4159 
Q 2644 4219 2406 4219 
Q 1781 4219 1451 3797 
Q 1122 3375 1075 2522 
Q 1259 2794 1537 2939 
Q 1816 3084 2150 3084 
Q 2853 3084 3261 2657 
Q 3669 2231 3669 1497 
Q 3669 778 3244 343 
Q 2819 -91 2113 -91 
Q 1303 -91 875 529 
Q 447 1150 447 2328 
Q 447 3434 972 4092 
Q 1497 4750 2381 4750 
Q 2619 4750 2861 4703 
Q 3103 4656 3366 4563 
z
" transform="scale(0.015625)"/>
       </defs>
       <use xlink:href="#DejaVuSans-30"/>
       <use xlink:href="#DejaVuSans-2e" x="63.623047"/>
       <use xlink:href="#DejaVuSans-36" x="95.410156"/>
      </g>
     </g>
    </g>
    <g id="xtick_5">
     <g id="line2d_5">
      <g>
       <use xlink:href="#m02e5a22ced" x="292.909091" y="333.490909" style="stroke: #000000; stroke-width: 0.8"/>
      </g>
     </g>
     <g id="text_5">
      <!-- 0.8 -->
      <g transform="translate(284.957528 348.089347)scale(0.1 -0.1)">
       <defs>
        <path id="DejaVuSans-38" d="M 2034 2216 
Q 1584 2216 1326 1975 
Q 1069 1734 1069 1313 
Q 1069 891 1326 650 
Q 1584 409 2034 409 
Q 2484 409 2743 651 
Q 3003 894 3003 1313 
Q 3003 1734 2745 1975 
Q 2488 2216 2034 2216 
z
M 1403 2484 
Q 997 2584 770 2862 
Q 544 3141 544 3541 
Q 544 4100 942 4425 
Q 1341 4750 2034 4750 
Q 2731 4750 3128 4425 
Q 3525 4100 3525 3541 
Q 3525 3141 3298 2862 
Q 3072 2584 2669 2484 
Q 3125 2378 3379 2068 
Q 3634 1759 3634 1313 
Q 3634 634 3220 271 
Q 2806 -91 2034 -91 
Q 1263 -91 848 271 
Q 434 634 434 1313 
Q 434 1759 690 2068 
Q 947 2378 1403 2484 
z
M 1172 3481 
Q 1172 3119 1398 2916 
Q 1625 2713 2034 2713 
Q 2441 2713 2670 2916 
Q 2900 3119 2900 3481 
Q 2900 3844 2670 4047 
Q 2441 4250 2034 4250 
Q 1625 4250 1398 4047 
Q 1172 3844 1172 3481 
z
" transform="scale(0.015625)"/>
       </defs>
       <use xlink:href="#DejaVuSans-30"/>
       <use xlink:href="#DejaVuSans-2e" x="63.623047"/>
       <use xlink:href="#DejaVuSans-38" x="95.410156"/>
      </g>
     </g>
    </g>
    <g id="xtick_6">
     <g id="line2d_6">
      <g>
       <use xlink:href="#m02e5a22ced" x="343.636364" y="333.490909" style="stroke: #000000; stroke-width: 0.8"/>
      </g>
     </g>
     <g id="text_6">
      <!-- 1.0 -->
      <g transform="translate(335.684801 348.089347)scale(0.1 -0.1)">
       <defs>
        <path id="DejaVuSans-31" d="M 794 531 
L 1825 531 
L 1825 4091 
L 703 3866 
L 703 4441 
L 1819 4666 
L 2450 4666 
L 2450 531 
L 3481 531 
L 3481 0 
L 794 0 
L 794 531 
z
" transform="scale(0.015625)"/>
       </defs>
       <use xlink:href="#DejaVuSans-31"/>
       <use xlink:href="#DejaVuSans-2e" x="63.623047"/>
       <use xlink:href="#DejaVuSans-30" x="95.410156"/>
      </g>
     </g>
    </g>
   </g>
   <g id="matplotlib.axis_2">
    <g id="ytick_1">
     <g id="line2d_7">
      <defs>
       <path id="m0378b2fd13" d="M 0 0 
L -3.5 0 
" style="stroke: #000000; stroke-width: 0.8"/>
      </defs>
      <g>
       <use xlink:href="#m0378b2fd13" x="90" y="333.490909" style="stroke: #000000; stroke-width: 0.8"/>
      </g>
     </g>
     <g id="text_7">
      <!-- 0.0 -->
      <g transform="translate(67.096875 337.290128)scale(0.1 -0.1)">
       <use xlink:href="#DejaVuSans-30"/>
       <use xlink:href="#DejaVuSans-2e" x="63.623047"/>
       <use xlink:href="#DejaVuSans-30" x="95.410156"/>
      </g>
     </g>
    </g>
    <g id="ytick_2">
     <g id="line2d_8">
      <g>
       <use xlink:href="#m0378b2fd13" x="90" y="284.072727" style="stroke: #000000; stroke-width: 0.8"/>
      </g>
     </g>
     <g id="text_8">
      <!-- 0.2 -->
      <g transform="translate(67.096875 287.871946)scale(0.1 -0.1)">
       <use xlink:href="#DejaVuSans-30"/>
       <use xlink:href="#DejaVuSans-2e" x="63.623047"/>
       <use xlink:href="#DejaVuSans-32" x="95.410156"/>
      </g>
     </g>
    </g>
    <g id="ytick_3">
     <g id="line2d_9">
      <g>
       <use xlink:href="#m0378b2fd13" x="90" y="234.654545" style="stroke: #000000; stroke-width: 0.8"/>
      </g>
     </g>
     <g id="text_9">
      <!-- 0.4 -->
      <g transform="translate(67.096875 238.453764)scale(0.1 -0.1)">
       <use xlink:href="#DejaVuSans-30"/>
       <use xlink:href="#DejaVuSans-2e" x="63.623047"/>
       <use xlink:href="#DejaVuSans-34" x="95.410156"/>
      </g>
     </g>
    </g>
    <g id="ytick_4">
     <g id="line2d_10">
      <g>
       <use xlink:href="#m0378b2fd13" x="90" y="185.236364" style="stroke: #000000; stroke-width: 0.8"/>
      </g>
     </g>
     <g id="text_10">
      <!-- 0.6 -->
      <g transform="translate(67.096875 189.035582)scale(0.1 -0.1)">
       <use xlink:href="#DejaVuSans-30"/>
       <use xlink:href="#DejaVuSans-2e" x="63.623047"/>
       <use xlink:href="#DejaVuSans-36" x="95.410156"/>
      </g>
     </g>
    </g>
    <g id="ytick_5">
     <g id="line2d_11">
      <g>
       <use xlink:href="#m0378b2fd13" x="90" y="135.818182" style="stroke: #000000; stroke-width: 0.8"/>
      </g>
     </g>
     <g id="text_11">
      <!-- 0.8 -->
      <g transform="translate(67.096875 139.617401)scale(0.1 -0.1)">
       <use xlink:href="#DejaVuSans-30"/>
       <use xlink:href="#DejaVuSans-2e" x="63.623047"/>
       <use xlink:href="#DejaVuSans-38" x="95.410156"/>
      </g>
     </g>
    </g>
    <g id="ytick_6">
     <g id="line2d_12">
      <g>
       <use xlink:href="#m0378b2fd13" x="90" y="86.4" style="stroke: #000000; stroke-width: 0.8"/>
      </g>
     </g>
     <g id="text_12">
      <!-- 1.0 -->
      <g transform="translate(67.096875 90.199219)scale(0.1 -0.1)">
       <use xlink:href="#DejaVuSans-31"/>
       <use xlink:href="#DejaVuSans-2e" x="63.623047"/>
       <use xlink:href="#DejaVuSans-30" x="95.410156"/>
      </g>
     </g>
    </g>
   </g>
   <g id="patch_3">
    <path d="M 90 333.490909 
L 90 86.4 
" style="fill: none; stroke: #000000; stroke-width: 0.8; stroke-linejoin: miter; stroke-linecap: square"/>
   </g>
   <g id="patch_4">
    <path d="M 343.636364 333.490909 
L 343.636364 86.4 
" style="fill: none; stroke: #000000; stroke-width: 0.8; stroke-linejoin: miter; stroke-linecap: square"/>
   </g>
   <g id="patch_5">
    <path d="M 90 333.490909 
L 343.636364 333.490909 
" style="fill: none; stroke: #000000; stroke-width: 0.8; stroke-linejoin: miter; stroke-linecap: square"/>
   </g>
   <g id="patch_6">
    <path d="M 90 86.4 
L 343.636364 86.4 
" style="fill: none; stroke: #000000; stroke-width: 0.8; stroke-linejoin: miter; stroke-linecap: square"/>
   </g>
  </g>
  <g id="axes_2">
   <g id="patch_7">
    <path d="M 394.363636 333.490909 
L 648 333.490909 
L 648 86.4 
L 394.363636 86.4 
z
" style="fill: #ffffff"/>
   </g>
   <g id="PolyCollection_1">
    <defs>
     <path id="mef335e87c2" d="M 405.892562 -546.535597 
L 405.892562 -537.499539 
L 407.342741 -537.415686 
L 408.792921 -537.016119 
L 410.2431 -537.072683 
L 411.693279 -536.444687 
L 413.143459 -535.79523 
L 414.593638 -534.377459 
L 416.043817 -531.764782 
L 417.493997 -528.047762 
L 418.944176 -522.310607 
L 420.394355 -515.185733 
L 421.844535 -511.908193 
L 423.294714 -505.658514 
L 424.744893 -501.533723 
L 426.195073 -499.401748 
L 427.645252 -495.371854 
L 429.095431 -498.190176 
L 430.54561 -495.423728 
L 431.99579 -497.928492 
L 433.445969 -497.868272 
L 434.896148 -497.840617 
L 436.346328 -497.830887 
L 437.796507 -497.828334 
L 439.246686 -497.827837 
L 440.696866 -497.827753 
L 442.147045 -497.827757 
L 443.597224 -497.827758 
L 445.047404 -497.827758 
L 446.497583 -497.827758 
L 447.947762 -497.827758 
L 449.397942 -497.827758 
L 450.848121 -497.827758 
L 452.2983 -497.827758 
L 453.74848 -497.827758 
L 455.198659 -497.827758 
L 456.648838 -497.827758 
L 458.099018 -497.827758 
L 459.549197 -497.827758 
L 460.999376 -497.827758 
L 462.449556 -497.826949 
L 463.899735 -497.822481 
L 465.349914 -497.800333 
L 466.800094 -497.716744 
L 468.250273 -497.473444 
L 469.700452 -496.924018 
L 471.150632 -495.949449 
L 472.600811 -494.548204 
L 474.05099 -489.476372 
L 475.501169 -490.913809 
L 476.951349 -486.522353 
L 478.401528 -484.980243 
L 479.851707 -483.732685 
L 481.301887 -482.826109 
L 482.752066 -483.979141 
L 484.202245 -480.102821 
L 485.652425 -478.266565 
L 487.102604 -477.667943 
L 488.552783 -479.564351 
L 490.002963 -482.672502 
L 491.453142 -489.565859 
L 492.903321 -493.27188 
L 494.353501 -495.769405 
L 495.80368 -497.07462 
L 497.253859 -497.603872 
L 498.704039 -497.754521 
L 500.154218 -497.704243 
L 501.604397 -497.352935 
L 503.054577 -496.27933 
L 504.504756 -493.813651 
L 505.954935 -489.498192 
L 507.405115 -483.761207 
L 508.855294 -473.61235 
L 510.305473 -468.656245 
L 511.755653 -469.097415 
L 513.205832 -461.005926 
L 514.656011 -456.932933 
L 516.106191 -452.859682 
L 517.55637 -448.899726 
L 519.006549 -445.618781 
L 520.456729 -441.945017 
L 521.906908 -436.768189 
L 523.357087 -430.157572 
L 524.807266 -423.348057 
L 526.257446 -418.302458 
L 527.707625 -417.185984 
L 529.157804 -422.61768 
L 530.607984 -433.411294 
L 532.058163 -448.883466 
L 533.508342 -453.25441 
L 534.958522 -447.172153 
L 536.408701 -428.407018 
L 537.85888 -413.510722 
L 539.30906 -403.141948 
L 540.759239 -398.594091 
L 542.209418 -398.259766 
L 543.659598 -399.411034 
L 545.109777 -399.785137 
L 546.559956 -399.837537 
L 548.010136 -399.874108 
L 549.460315 -399.465871 
L 550.910494 -398.388796 
L 552.360674 -398.16289 
L 553.810853 -397.740496 
L 555.261032 -398.598468 
L 556.711212 -400.824381 
L 558.161391 -405.017528 
L 559.61157 -412.816479 
L 561.06175 -424.065065 
L 562.511929 -437.515447 
L 563.962108 -455.011122 
L 565.412288 -458.307622 
L 566.862467 -451.734961 
L 568.312646 -432.72921 
L 569.762826 -419.437644 
L 571.213005 -409.804966 
L 572.663184 -405.271234 
L 574.113363 -404.110023 
L 575.563543 -405.146159 
L 577.013722 -408.467925 
L 578.463901 -414.78663 
L 579.914081 -425.604927 
L 581.36426 -441.542176 
L 582.814439 -463.046277 
L 584.264619 -477.126684 
L 585.714798 -485.049958 
L 587.164977 -486.508943 
L 588.615157 -484.028718 
L 590.065336 -474.668192 
L 591.515515 -474.903075 
L 592.965695 -485.151434 
L 594.415874 -489.934664 
L 595.866053 -493.942771 
L 597.316233 -496.318598 
L 598.766412 -497.365705 
L 600.216591 -497.716427 
L 601.666771 -497.806678 
L 603.11695 -497.82498 
L 604.567129 -497.827758 
L 606.017309 -497.827758 
L 607.467488 -497.827758 
L 608.917667 -497.827758 
L 610.367847 -497.827758 
L 611.818026 -497.827758 
L 613.268205 -497.827758 
L 614.718385 -497.827758 
L 616.168564 -497.827758 
L 617.618743 -497.827758 
L 619.068923 -497.827758 
L 620.519102 -497.827758 
L 621.969281 -497.827758 
L 623.41946 -497.827758 
L 624.86964 -497.827758 
L 626.319819 -497.827758 
L 627.769998 -497.827758 
L 629.220178 -497.827758 
L 630.670357 -497.827758 
L 632.120536 -497.827758 
L 633.570716 -497.827758 
L 635.020895 -497.827758 
L 636.471074 -497.827758 
L 636.471074 -497.827758 
L 636.471074 -497.827758 
L 635.020895 -497.827758 
L 633.570716 -497.827758 
L 632.120536 -497.827758 
L 630.670357 -497.827758 
L 629.220178 -497.827758 
L 627.769998 -497.827758 
L 626.319819 -497.827758 
L 624.86964 -497.827758 
L 623.41946 -497.827758 
L 621.969281 -497.827758 
L 620.519102 -497.827758 
L 619.068923 -497.827758 
L 617.618743 -497.827758 
L 616.168564 -497.827758 
L 614.718385 -497.827758 
L 613.268205 -497.827758 
L 611.818026 -497.827758 
L 610.367847 -497.827758 
L 608.917667 -497.827758 
L 607.467488 -497.827758 
L 606.017309 -497.827758 
L 604.567129 -497.827758 
L 603.11695 -497.82498 
L 601.666771 -497.806678 
L 600.216591 -497.716427 
L 598.766412 -497.365705 
L 597.316233 -496.318598 
L 595.866053 -493.942771 
L 594.415874 -489.934664 
L 592.965695 -485.151434 
L 591.515515 -488.499698 
L 590.065336 -488.227416 
L 588.615157 -484.028718 
L 587.164977 -486.508943 
L 585.714798 -485.049958 
L 584.264619 -477.126684 
L 582.814439 -463.046277 
L 581.36426 -450.572346 
L 579.914081 -435.533082 
L 578.463901 -424.255758 
L 577.013722 -417.874097 
L 575.563543 -415.070067 
L 574.113363 -414.066477 
L 572.663184 -415.165087 
L 571.213005 -420.098229 
L 569.762826 -429.965341 
L 568.312646 -444.262804 
L 566.862467 -451.734961 
L 565.412288 -458.307622 
L 563.962108 -455.011122 
L 562.511929 -450.411564 
L 561.06175 -436.993345 
L 559.61157 -425.663801 
L 558.161391 -418.434007 
L 556.711212 -414.12921 
L 555.261032 -412.22035 
L 553.810853 -411.560886 
L 552.360674 -411.071669 
L 550.910494 -411.476033 
L 549.460315 -411.317365 
L 548.010136 -411.913121 
L 546.559956 -412.778342 
L 545.109777 -412.932662 
L 543.659598 -412.156659 
L 542.209418 -411.519122 
L 540.759239 -411.792532 
L 539.30906 -415.407988 
L 537.85888 -424.730221 
L 536.408701 -438.684484 
L 534.958522 -447.172153 
L 533.508342 -453.25441 
L 532.058163 -448.883466 
L 530.607984 -441.758958 
L 529.157804 -430.344285 
L 527.707625 -424.800601 
L 526.257446 -425.943648 
L 524.807266 -431.889216 
L 523.357087 -438.926932 
L 521.906908 -444.992098 
L 520.456729 -449.842239 
L 519.006549 -453.988198 
L 517.55637 -457.663527 
L 516.106191 -461.05533 
L 514.656011 -465.141193 
L 513.205832 -469.394866 
L 511.755653 -469.097415 
L 510.305473 -477.474528 
L 508.855294 -482.223679 
L 507.405115 -483.761207 
L 505.954935 -489.498192 
L 504.504756 -493.813651 
L 503.054577 -496.27933 
L 501.604397 -497.352935 
L 500.154218 -497.704243 
L 498.704039 -497.754521 
L 497.253859 -497.603872 
L 495.80368 -497.07462 
L 494.353501 -495.769405 
L 492.903321 -493.27188 
L 491.453142 -489.565859 
L 490.002963 -488.071714 
L 488.552783 -484.322047 
L 487.102604 -482.990917 
L 485.652425 -483.134626 
L 484.202245 -484.464099 
L 482.752066 -483.979141 
L 481.301887 -487.55819 
L 479.851707 -488.529512 
L 478.401528 -489.670486 
L 476.951349 -491.450146 
L 475.501169 -490.913809 
L 474.05099 -496.176123 
L 472.600811 -494.548204 
L 471.150632 -495.949449 
L 469.700452 -496.924018 
L 468.250273 -497.473444 
L 466.800094 -497.716744 
L 465.349914 -497.800333 
L 463.899735 -497.822481 
L 462.449556 -497.826949 
L 460.999376 -497.827758 
L 459.549197 -497.827758 
L 458.099018 -497.827758 
L 456.648838 -497.827758 
L 455.198659 -497.827758 
L 453.74848 -497.827758 
L 452.2983 -497.827758 
L 450.848121 -497.827758 
L 449.397942 -497.827758 
L 447.947762 -497.827758 
L 446.497583 -497.827758 
L 445.047404 -497.827758 
L 443.597224 -497.827758 
L 442.147045 -497.827757 
L 440.696866 -497.827753 
L 439.246686 -497.827837 
L 437.796507 -497.828334 
L 436.346328 -497.830887 
L 434.896148 -497.840617 
L 433.445969 -497.868272 
L 431.99579 -497.928492 
L 430.54561 -500.636443 
L 429.095431 -498.190176 
L 427.645252 -501.672978 
L 426.195073 -499.401748 
L 424.744893 -501.533723 
L 423.294714 -505.658514 
L 421.844535 -511.908193 
L 420.394355 -523.621772 
L 418.944176 -531.027239 
L 417.493997 -537.016235 
L 416.043817 -541.442909 
L 414.593638 -543.766467 
L 413.143459 -544.886356 
L 411.693279 -545.313365 
L 410.2431 -545.208667 
L 408.792921 -545.830467 
L 407.342741 -546.117988 
L 405.892562 -546.535597 
z
" style="stroke: #9467bd; stroke-opacity: 0.2"/>
    </defs>
    <g clip-path="url(#pdd5ac0d02b)">
     <use xlink:href="#mef335e87c2" x="0" y="720" style="fill: #9467bd; fill-opacity: 0.2; stroke: #9467bd; stroke-opacity: 0.2"/>
    </g>
   </g>
   <g id="PolyCollection_2">
    <defs>
     <path id="m51a9b0cdf3" d="M 405.892562 -497.827758 
L 405.892562 -497.827758 
L 407.342741 -497.827758 
L 408.792921 -497.827758 
L 410.2431 -497.827758 
L 411.693279 -497.827758 
L 413.143459 -497.827758 
L 414.593638 -497.827758 
L 416.043817 -497.827758 
L 417.493997 -497.827758 
L 418.944176 -497.827758 
L 420.394355 -497.827758 
L 421.844535 -497.827758 
L 423.294714 -497.827758 
L 424.744893 -497.827758 
L 426.195073 -497.827758 
L 427.645252 -497.827758 
L 429.095431 -497.827758 
L 430.54561 -497.827758 
L 431.99579 -497.827758 
L 433.445969 -497.827758 
L 434.896148 -497.827758 
L 436.346328 -497.827758 
L 437.796507 -497.827758 
L 439.246686 -497.827758 
L 440.696866 -497.827758 
L 442.147045 -497.827758 
L 443.597224 -497.827758 
L 445.047404 -497.827758 
L 446.497583 -497.82673 
L 447.947762 -497.821052 
L 449.397942 -497.793703 
L 450.848121 -497.693067 
L 452.2983 -497.412879 
L 453.74848 -496.832514 
L 455.198659 -495.968398 
L 456.648838 -495.122404 
L 458.099018 -492.153079 
L 459.549197 -495.122404 
L 460.999376 -495.968398 
L 462.449556 -496.832514 
L 463.899735 -497.412879 
L 465.349914 -497.693067 
L 466.800094 -497.793703 
L 468.250273 -497.821052 
L 469.700452 -497.82673 
L 471.150632 -497.826724 
L 472.600811 -497.821015 
L 474.05099 -497.793514 
L 475.501169 -497.69232 
L 476.951349 -497.41058 
L 478.401528 -496.826999 
L 479.851707 -495.958093 
L 481.301887 -495.107412 
L 482.752066 -492.671273 
L 484.202245 -495.107412 
L 485.652425 -495.958093 
L 487.102604 -496.826999 
L 488.552783 -497.41058 
L 490.002963 -497.69232 
L 491.453142 -497.793514 
L 492.903321 -497.821015 
L 494.353501 -497.826724 
L 495.80368 -497.827758 
L 497.253859 -497.827758 
L 498.704039 -497.827758 
L 500.154218 -497.827758 
L 501.604397 -497.827758 
L 503.054577 -497.827758 
L 504.504756 -497.827758 
L 505.954935 -497.827758 
L 507.405115 -497.827758 
L 508.855294 -497.827758 
L 510.305473 -497.827758 
L 511.755653 -497.827758 
L 513.205832 -497.827758 
L 514.656011 -497.827758 
L 516.106191 -497.827758 
L 517.55637 -497.827758 
L 519.006549 -497.827758 
L 520.456729 -497.841175 
L 521.906908 -497.928629 
L 523.357087 -498.373754 
L 524.807266 -500.122256 
L 526.257446 -505.470995 
L 527.707625 -518.100641 
L 529.157804 -540.857409 
L 530.607984 -571.281451 
L 532.058163 -584.467826 
L 533.508342 -599.570489 
L 534.958522 -588.301742 
L 536.408701 -572.962519 
L 537.85888 -542.27736 
L 539.30906 -518.946579 
L 540.759239 -505.845352 
L 542.209418 -500.248068 
L 543.659598 -498.40622 
L 545.109777 -497.935221 
L 546.559956 -497.842186 
L 548.010136 -497.827758 
L 549.460315 -497.827758 
L 550.910494 -497.827758 
L 552.360674 -497.827758 
L 553.810853 -497.834296 
L 555.261032 -497.878143 
L 556.711212 -498.094813 
L 558.161391 -498.940763 
L 559.61157 -501.480638 
L 561.06175 -507.282326 
L 562.511929 -517.150677 
L 563.962108 -529.042719 
L 565.412288 -530.048364 
L 566.862467 -533.692004 
L 568.312646 -530.04141 
L 569.762826 -518.170763 
L 571.213005 -507.967445 
L 572.663184 -501.811398 
L 574.113363 -499.059564 
L 575.563543 -498.127099 
L 577.013722 -497.884845 
L 578.463901 -497.83551 
L 579.914081 -497.827758 
L 581.36426 -497.827758 
L 582.814439 -497.827758 
L 584.264619 -497.827758 
L 585.714798 -497.827758 
L 587.164977 -497.827758 
L 588.615157 -497.827758 
L 590.065336 -497.827758 
L 591.515515 -497.827758 
L 592.965695 -497.827758 
L 594.415874 -497.831582 
L 595.866053 -497.85672 
L 597.316233 -497.984423 
L 598.766412 -498.486556 
L 600.216591 -500.022844 
L 601.666771 -503.650109 
L 603.11695 -510.179347 
L 604.567129 -518.913529 
L 606.017309 -512.029789 
L 607.467488 -517.162327 
L 608.917667 -516.55823 
L 610.367847 -524.805507 
L 611.818026 -520.376957 
L 613.268205 -508.390323 
L 614.718385 -518.91541 
L 616.168564 -510.705534 
L 617.618743 -510.009618 
L 619.068923 -505.187268 
L 620.519102 -513.421726 
L 621.969281 -511.117368 
L 623.41946 -511.474949 
L 624.86964 -506.209917 
L 626.319819 -508.122902 
L 627.769998 -510.054404 
L 629.220178 -507.944814 
L 630.670357 -508.48866 
L 632.120536 -503.960089 
L 633.570716 -500.697368 
L 635.020895 -498.921627 
L 636.471074 -498.229506 
L 636.471074 -498.229506 
L 636.471074 -498.229506 
L 635.020895 -498.921627 
L 633.570716 -500.697368 
L 632.120536 -503.960089 
L 630.670357 -508.48866 
L 629.220178 -518.174411 
L 627.769998 -521.801678 
L 626.319819 -523.891537 
L 624.86964 -521.469886 
L 623.41946 -511.474949 
L 621.969281 -511.117368 
L 620.519102 -513.421726 
L 619.068923 -528.712613 
L 617.618743 -528.93503 
L 616.168564 -529.049694 
L 614.718385 -518.91541 
L 613.268205 -528.589733 
L 611.818026 -520.376957 
L 610.367847 -524.805507 
L 608.917667 -542.547147 
L 607.467488 -544.829013 
L 606.017309 -542.001824 
L 604.567129 -518.913529 
L 603.11695 -510.179347 
L 601.666771 -503.650109 
L 600.216591 -500.022844 
L 598.766412 -498.486556 
L 597.316233 -497.984423 
L 595.866053 -497.85672 
L 594.415874 -497.831582 
L 592.965695 -497.827758 
L 591.515515 -497.827758 
L 590.065336 -497.827758 
L 588.615157 -497.827758 
L 587.164977 -497.827758 
L 585.714798 -497.827758 
L 584.264619 -497.827758 
L 582.814439 -497.827758 
L 581.36426 -497.827758 
L 579.914081 -497.827758 
L 578.463901 -497.83551 
L 577.013722 -497.884845 
L 575.563543 -498.127099 
L 574.113363 -499.059564 
L 572.663184 -501.811398 
L 571.213005 -507.967445 
L 569.762826 -518.170763 
L 568.312646 -530.04141 
L 566.862467 -542.578103 
L 565.412288 -545.371281 
L 563.962108 -529.042719 
L 562.511929 -517.150677 
L 561.06175 -507.282326 
L 559.61157 -501.480638 
L 558.161391 -498.940763 
L 556.711212 -498.094813 
L 555.261032 -497.878143 
L 553.810853 -497.834296 
L 552.360674 -497.827758 
L 550.910494 -497.827758 
L 549.460315 -497.827758 
L 548.010136 -497.827758 
L 546.559956 -497.842186 
L 545.109777 -497.935221 
L 543.659598 -498.40622 
L 542.209418 -500.248068 
L 540.759239 -505.845352 
L 539.30906 -518.946579 
L 537.85888 -542.27736 
L 536.408701 -572.962519 
L 534.958522 -612.29535 
L 533.508342 -622.368595 
L 532.058163 -613.757821 
L 530.607984 -571.281451 
L 529.157804 -540.857409 
L 527.707625 -518.100641 
L 526.257446 -505.470995 
L 524.807266 -500.122256 
L 523.357087 -498.373754 
L 521.906908 -497.928629 
L 520.456729 -497.841175 
L 519.006549 -497.827758 
L 517.55637 -497.827758 
L 516.106191 -497.827758 
L 514.656011 -497.827758 
L 513.205832 -497.827758 
L 511.755653 -497.827758 
L 510.305473 -497.827758 
L 508.855294 -497.827758 
L 507.405115 -497.827758 
L 505.954935 -497.827758 
L 504.504756 -497.827758 
L 503.054577 -497.827758 
L 501.604397 -497.827758 
L 500.154218 -497.827758 
L 498.704039 -497.827758 
L 497.253859 -497.827758 
L 495.80368 -497.827758 
L 494.353501 -497.826724 
L 492.903321 -497.821015 
L 491.453142 -497.793514 
L 490.002963 -497.69232 
L 488.552783 -497.41058 
L 487.102604 -496.826999 
L 485.652425 -495.958093 
L 484.202245 -495.107412 
L 482.752066 -496.81913 
L 481.301887 -495.107412 
L 479.851707 -495.958093 
L 478.401528 -496.826999 
L 476.951349 -497.41058 
L 475.501169 -497.69232 
L 474.05099 -497.793514 
L 472.600811 -497.821015 
L 471.150632 -497.826724 
L 469.700452 -497.82673 
L 468.250273 -497.821052 
L 466.800094 -497.793703 
L 465.349914 -497.693067 
L 463.899735 -497.412879 
L 462.449556 -496.832514 
L 460.999376 -495.968398 
L 459.549197 -495.122404 
L 458.099018 -497.371303 
L 456.648838 -495.122404 
L 455.198659 -495.968398 
L 453.74848 -496.832514 
L 452.2983 -497.412879 
L 450.848121 -497.693067 
L 449.397942 -497.793703 
L 447.947762 -497.821052 
L 446.497583 -497.82673 
L 445.047404 -497.827758 
L 443.597224 -497.827758 
L 442.147045 -497.827758 
L 440.696866 -497.827758 
L 439.246686 -497.827758 
L 437.796507 -497.827758 
L 436.346328 -497.827758 
L 434.896148 -497.827758 
L 433.445969 -497.827758 
L 431.99579 -497.827758 
L 430.54561 -497.827758 
L 429.095431 -497.827758 
L 427.645252 -497.827758 
L 426.195073 -497.827758 
L 424.744893 -497.827758 
L 423.294714 -497.827758 
L 421.844535 -497.827758 
L 420.394355 -497.827758 
L 418.944176 -497.827758 
L 417.493997 -497.827758 
L 416.043817 -497.827758 
L 414.593638 -497.827758 
L 413.143459 -497.827758 
L 411.693279 -497.827758 
L 410.2431 -497.827758 
L 408.792921 -497.827758 
L 407.342741 -497.827758 
L 405.892562 -497.827758 
z
" style="stroke: #1f77b4; stroke-opacity: 0.2"/>
    </defs>
    <g clip-path="url(#pdd5ac0d02b)">
     <use xlink:href="#m51a9b0cdf3" x="0" y="720" style="fill: #1f77b4; fill-opacity: 0.2; stroke: #1f77b4; stroke-opacity: 0.2"/>
    </g>
   </g>
   <g id="PolyCollection_3">
    <defs>
     <path id="meae03c7cca" d="M 405.892562 -497.827758 
L 405.892562 -497.827758 
L 407.342741 -497.827758 
L 408.792921 -497.827758 
L 410.2431 -497.827758 
L 411.693279 -497.827758 
L 413.143459 -497.827758 
L 414.593638 -497.827758 
L 416.043817 -497.827758 
L 417.493997 -497.827758 
L 418.944176 -497.827758 
L 420.394355 -497.827758 
L 421.844535 -497.827758 
L 423.294714 -497.827758 
L 424.744893 -497.827758 
L 426.195073 -497.827758 
L 427.645252 -497.827758 
L 429.095431 -497.827758 
L 430.54561 -497.827758 
L 431.99579 -497.827758 
L 433.445969 -497.827758 
L 434.896148 -497.831215 
L 436.346328 -497.853784 
L 437.796507 -497.967685 
L 439.246686 -498.416629 
L 440.696866 -499.791111 
L 442.147045 -503.055169 
L 443.597224 -509.052161 
L 445.047404 -517.5388 
L 446.497583 -520.451762 
L 447.947762 -527.805106 
L 449.397942 -532.479256 
L 450.848121 -533.611116 
L 452.2983 -533.168562 
L 453.74848 -531.160513 
L 455.198659 -528.252974 
L 456.648838 -525.275075 
L 458.099018 -528.685016 
L 459.549197 -521.169208 
L 460.999376 -520.422263 
L 462.449556 -525.199403 
L 463.899735 -517.807056 
L 465.349914 -513.838606 
L 466.800094 -512.684705 
L 468.250273 -506.675965 
L 469.700452 -502.103466 
L 471.150632 -499.480071 
L 472.600811 -498.33365 
L 474.05099 -497.949755 
L 475.501169 -497.850982 
L 476.951349 -497.830889 
L 478.401528 -497.827758 
L 479.851707 -497.831336 
L 481.301887 -497.855072 
L 482.752066 -497.976279 
L 484.202245 -498.45909 
L 485.652425 -499.959573 
L 487.102604 -503.602298 
L 488.552783 -510.517207 
L 490.002963 -520.793532 
L 491.453142 -528.155726 
L 492.903321 -538.238037 
L 494.353501 -545.042353 
L 495.80368 -548.829985 
L 497.253859 -550.260846 
L 498.704039 -550.325856 
L 500.154218 -548.927939 
L 501.604397 -548.056248 
L 503.054577 -546.520614 
L 504.504756 -544.425617 
L 505.954935 -539.300197 
L 507.405115 -531.504785 
L 508.855294 -528.827964 
L 510.305473 -521.292622 
L 511.755653 -509.799167 
L 513.205832 -509.899676 
L 514.656011 -505.191638 
L 516.106191 -501.554078 
L 517.55637 -499.34128 
L 519.006549 -498.313039 
L 520.456729 -497.94936 
L 521.906908 -497.851703 
L 523.357087 -497.83143 
L 524.807266 -497.827758 
L 526.257446 -497.827758 
L 527.707625 -497.827758 
L 529.157804 -497.827758 
L 530.607984 -497.827758 
L 532.058163 -497.827758 
L 533.508342 -497.827758 
L 534.958522 -497.827758 
L 536.408701 -497.827758 
L 537.85888 -497.827758 
L 539.30906 -497.827758 
L 540.759239 -497.827758 
L 542.209418 -497.827758 
L 543.659598 -497.827758 
L 545.109777 -497.827758 
L 546.559956 -497.827758 
L 548.010136 -497.827758 
L 549.460315 -497.827758 
L 550.910494 -497.827758 
L 552.360674 -497.827758 
L 553.810853 -497.827758 
L 555.261032 -497.827758 
L 556.711212 -497.827758 
L 558.161391 -497.827758 
L 559.61157 -497.827758 
L 561.06175 -497.827758 
L 562.511929 -497.827758 
L 563.962108 -497.827758 
L 565.412288 -497.827758 
L 566.862467 -497.827758 
L 568.312646 -497.827758 
L 569.762826 -497.827758 
L 571.213005 -497.827758 
L 572.663184 -497.827758 
L 574.113363 -497.827758 
L 575.563543 -497.827758 
L 577.013722 -497.827758 
L 578.463901 -497.827758 
L 579.914081 -497.827758 
L 581.36426 -497.827758 
L 582.814439 -497.827758 
L 584.264619 -497.827758 
L 585.714798 -497.827758 
L 587.164977 -497.827758 
L 588.615157 -497.827758 
L 590.065336 -497.827758 
L 591.515515 -497.827265 
L 592.965695 -497.824544 
L 594.415874 -497.811435 
L 595.866053 -497.763199 
L 597.316233 -497.628903 
L 598.766412 -497.350729 
L 600.216591 -496.93655 
L 601.666771 -496.531058 
L 603.11695 -491.941195 
L 604.567129 -496.531058 
L 606.017309 -496.93655 
L 607.467488 -497.350729 
L 608.917667 -497.627457 
L 610.367847 -497.752259 
L 611.818026 -497.752253 
L 613.268205 -497.575688 
L 614.718385 -496.998129 
L 616.168564 -495.629578 
L 617.618743 -493.168856 
L 619.068923 -489.894792 
L 620.519102 -482.415936 
L 621.969281 -481.264692 
L 623.41946 -482.600176 
L 624.86964 -488.887794 
L 626.319819 -490.510215 
L 627.769998 -490.075648 
L 629.220178 -487.667441 
L 630.670357 -481.352943 
L 632.120536 -479.70953 
L 633.570716 -479.860984 
L 635.020895 -480.938082 
L 636.471074 -482.456948 
L 636.471074 -490.0834 
L 636.471074 -490.0834 
L 635.020895 -489.028458 
L 633.570716 -487.07213 
L 632.120536 -486.596785 
L 630.670357 -488.209069 
L 629.220178 -487.667441 
L 627.769998 -490.075648 
L 626.319819 -490.510215 
L 624.86964 -488.887794 
L 623.41946 -490.67605 
L 621.969281 -490.052229 
L 620.519102 -491.432465 
L 619.068923 -489.894792 
L 617.618743 -493.168856 
L 616.168564 -495.629578 
L 614.718385 -496.998129 
L 613.268205 -497.575688 
L 611.818026 -497.752253 
L 610.367847 -497.752259 
L 608.917667 -497.627457 
L 607.467488 -497.350729 
L 606.017309 -496.93655 
L 604.567129 -496.531058 
L 603.11695 -500.775613 
L 601.666771 -496.531058 
L 600.216591 -496.93655 
L 598.766412 -497.350729 
L 597.316233 -497.628903 
L 595.866053 -497.763199 
L 594.415874 -497.811435 
L 592.965695 -497.824544 
L 591.515515 -497.827265 
L 590.065336 -497.827758 
L 588.615157 -497.827758 
L 587.164977 -497.827758 
L 585.714798 -497.827758 
L 584.264619 -497.827758 
L 582.814439 -497.827758 
L 581.36426 -497.827758 
L 579.914081 -497.827758 
L 578.463901 -497.827758 
L 577.013722 -497.827758 
L 575.563543 -497.827758 
L 574.113363 -497.827758 
L 572.663184 -497.827758 
L 571.213005 -497.827758 
L 569.762826 -497.827758 
L 568.312646 -497.827758 
L 566.862467 -497.827758 
L 565.412288 -497.827758 
L 563.962108 -497.827758 
L 562.511929 -497.827758 
L 561.06175 -497.827758 
L 559.61157 -497.827758 
L 558.161391 -497.827758 
L 556.711212 -497.827758 
L 555.261032 -497.827758 
L 553.810853 -497.827758 
L 552.360674 -497.827758 
L 550.910494 -497.827758 
L 549.460315 -497.827758 
L 548.010136 -497.827758 
L 546.559956 -497.827758 
L 545.109777 -497.827758 
L 543.659598 -497.827758 
L 542.209418 -497.827758 
L 540.759239 -497.827758 
L 539.30906 -497.827758 
L 537.85888 -497.827758 
L 536.408701 -497.827758 
L 534.958522 -497.827758 
L 533.508342 -497.827758 
L 532.058163 -497.827758 
L 530.607984 -497.827758 
L 529.157804 -497.827758 
L 527.707625 -497.827758 
L 526.257446 -497.827758 
L 524.807266 -497.827758 
L 523.357087 -497.83143 
L 521.906908 -497.851703 
L 520.456729 -497.94936 
L 519.006549 -498.313039 
L 517.55637 -499.34128 
L 516.106191 -501.554078 
L 514.656011 -505.191638 
L 513.205832 -509.899676 
L 511.755653 -520.585881 
L 510.305473 -521.292622 
L 508.855294 -528.827964 
L 507.405115 -543.315682 
L 505.954935 -551.24839 
L 504.504756 -557.103507 
L 503.054577 -560.83645 
L 501.604397 -561.908216 
L 500.154218 -562.518745 
L 498.704039 -562.362963 
L 497.253859 -562.812517 
L 495.80368 -561.794966 
L 494.353501 -557.616518 
L 492.903321 -549.075533 
L 491.453142 -537.362622 
L 490.002963 -520.793532 
L 488.552783 -510.517207 
L 487.102604 -503.602298 
L 485.652425 -499.959573 
L 484.202245 -498.45909 
L 482.752066 -497.976279 
L 481.301887 -497.855072 
L 479.851707 -497.831336 
L 478.401528 -497.827758 
L 476.951349 -497.830889 
L 475.501169 -497.850982 
L 474.05099 -497.949755 
L 472.600811 -498.33365 
L 471.150632 -499.480071 
L 469.700452 -502.103466 
L 468.250273 -506.675965 
L 466.800094 -512.684705 
L 465.349914 -523.310654 
L 463.899735 -527.898493 
L 462.449556 -525.199403 
L 460.999376 -532.238236 
L 459.549197 -533.263237 
L 458.099018 -528.685016 
L 456.648838 -537.010775 
L 455.198659 -540.255977 
L 453.74848 -543.202822 
L 452.2983 -545.263077 
L 450.848121 -546.154902 
L 449.397942 -544.517865 
L 447.947762 -540.529125 
L 446.497583 -532.976357 
L 445.047404 -517.5388 
L 443.597224 -509.052161 
L 442.147045 -503.055169 
L 440.696866 -499.791111 
L 439.246686 -498.416629 
L 437.796507 -497.967685 
L 436.346328 -497.853784 
L 434.896148 -497.831215 
L 433.445969 -497.827758 
L 431.99579 -497.827758 
L 430.54561 -497.827758 
L 429.095431 -497.827758 
L 427.645252 -497.827758 
L 426.195073 -497.827758 
L 424.744893 -497.827758 
L 423.294714 -497.827758 
L 421.844535 -497.827758 
L 420.394355 -497.827758 
L 418.944176 -497.827758 
L 417.493997 -497.827758 
L 416.043817 -497.827758 
L 414.593638 -497.827758 
L 413.143459 -497.827758 
L 411.693279 -497.827758 
L 410.2431 -497.827758 
L 408.792921 -497.827758 
L 407.342741 -497.827758 
L 405.892562 -497.827758 
z
" style="stroke: #d62728; stroke-opacity: 0.2"/>
    </defs>
    <g clip-path="url(#pdd5ac0d02b)">
     <use xlink:href="#meae03c7cca" x="0" y="720" style="fill: #d62728; fill-opacity: 0.2; stroke: #d62728; stroke-opacity: 0.2"/>
    </g>
   </g>
   <g id="PolyCollection_4">
    <defs>
     <path id="mf682a771b0" d="M 405.892562 -497.827758 
L 405.892562 -497.827758 
L 407.342741 -497.827758 
L 408.792921 -497.827758 
L 410.2431 -497.824626 
L 411.693279 -497.804558 
L 413.143459 -497.704054 
L 414.593638 -497.312064 
L 416.043817 -496.129989 
L 417.493997 -493.387275 
L 418.944176 -488.547172 
L 420.394355 -482.206406 
L 421.844535 -474.127932 
L 423.294714 -471.366515 
L 424.744893 -471.767549 
L 426.195073 -474.646856 
L 427.645252 -482.951994 
L 429.095431 -480.709229 
L 430.54561 -484.823136 
L 431.99579 -478.845838 
L 433.445969 -475.183369 
L 434.896148 -471.628865 
L 436.346328 -469.023677 
L 437.796507 -467.456568 
L 439.246686 -466.911929 
L 440.696866 -467.021537 
L 442.147045 -468.753366 
L 443.597224 -472.323936 
L 445.047404 -477.042321 
L 446.497583 -485.858857 
L 447.947762 -491.154039 
L 449.397942 -494.773652 
L 450.848121 -496.694801 
L 452.2983 -497.479879 
L 453.74848 -497.685766 
L 455.198659 -497.562 
L 456.648838 -497.04293 
L 458.099018 -495.903032 
L 459.549197 -494.035914 
L 460.999376 -491.649486 
L 462.449556 -484.611701 
L 463.899735 -486.113827 
L 465.349914 -482.584487 
L 466.800094 -474.671692 
L 468.250273 -471.70493 
L 469.700452 -470.549838 
L 471.150632 -471.439796 
L 472.600811 -474.308539 
L 474.05099 -480.847716 
L 475.501169 -482.584324 
L 476.951349 -489.141988 
L 478.401528 -492.767398 
L 479.851707 -495.374336 
L 481.301887 -496.862861 
L 482.752066 -497.525125 
L 484.202245 -497.752924 
L 485.652425 -497.813391 
L 487.102604 -497.825555 
L 488.552783 -497.827758 
L 490.002963 -497.827758 
L 491.453142 -497.827758 
L 492.903321 -497.827758 
L 494.353501 -497.827758 
L 495.80368 -497.827758 
L 497.253859 -497.827758 
L 498.704039 -497.827758 
L 500.154218 -497.827758 
L 501.604397 -497.827758 
L 503.054577 -497.827758 
L 504.504756 -497.827758 
L 505.954935 -497.827758 
L 507.405115 -497.827758 
L 508.855294 -497.827758 
L 510.305473 -497.827758 
L 511.755653 -497.827758 
L 513.205832 -497.827758 
L 514.656011 -497.827758 
L 516.106191 -497.827758 
L 517.55637 -497.827758 
L 519.006549 -497.827758 
L 520.456729 -497.827758 
L 521.906908 -497.827758 
L 523.357087 -497.827758 
L 524.807266 -497.827758 
L 526.257446 -497.827758 
L 527.707625 -497.827758 
L 529.157804 -497.827758 
L 530.607984 -497.827758 
L 532.058163 -497.827758 
L 533.508342 -497.827758 
L 534.958522 -497.827758 
L 536.408701 -497.827758 
L 537.85888 -497.827758 
L 539.30906 -497.827758 
L 540.759239 -497.827758 
L 542.209418 -497.827758 
L 543.659598 -497.827758 
L 545.109777 -497.827758 
L 546.559956 -497.827758 
L 548.010136 -497.827758 
L 549.460315 -497.827758 
L 550.910494 -497.827758 
L 552.360674 -497.833898 
L 553.810853 -497.867793 
L 555.261032 -498.031069 
L 556.711212 -498.631868 
L 558.161391 -500.304592 
L 559.61157 -503.769373 
L 561.06175 -508.928155 
L 562.511929 -513.97874 
L 563.962108 -504.960156 
L 565.412288 -513.97874 
L 566.862467 -508.928155 
L 568.312646 -503.769373 
L 569.762826 -500.304592 
L 571.213005 -498.63787 
L 572.663184 -498.075363 
L 574.113363 -498.105004 
L 575.563543 -498.826165 
L 577.013722 -501.11401 
L 578.463901 -506.505107 
L 579.914081 -516.26439 
L 581.36426 -529.724794 
L 582.814439 -535.318605 
L 584.264619 -545.573582 
L 585.714798 -547.572124 
L 587.164977 -543.455729 
L 588.615157 -535.314809 
L 590.065336 -534.847649 
L 591.515515 -532.113944 
L 592.965695 -526.04846 
L 594.415874 -528.605631 
L 595.866053 -529.856544 
L 597.316233 -528.215529 
L 598.766412 -524.637956 
L 600.216591 -519.964184 
L 601.666771 -514.861937 
L 603.11695 -516.734811 
L 604.567129 -505.812185 
L 606.017309 -508.846254 
L 607.467488 -507.726421 
L 608.917667 -508.524481 
L 610.367847 -504.549307 
L 611.818026 -505.237257 
L 613.268205 -509.657497 
L 614.718385 -502.88105 
L 616.168564 -504.208979 
L 617.618743 -501.496956 
L 619.068923 -499.578095 
L 620.519102 -498.507041 
L 621.969281 -498.038931 
L 623.41946 -497.879572 
L 624.86964 -497.837617 
L 626.319819 -497.82927 
L 627.769998 -497.827758 
L 629.220178 -497.827758 
L 630.670357 -497.827758 
L 632.120536 -497.827758 
L 633.570716 -497.827758 
L 635.020895 -497.827758 
L 636.471074 -497.827758 
L 636.471074 -497.827758 
L 636.471074 -497.827758 
L 635.020895 -497.827758 
L 633.570716 -497.827758 
L 632.120536 -497.827758 
L 630.670357 -497.827758 
L 629.220178 -497.827758 
L 627.769998 -497.827758 
L 626.319819 -497.82927 
L 624.86964 -497.837617 
L 623.41946 -497.879572 
L 621.969281 -498.038931 
L 620.519102 -498.507041 
L 619.068923 -499.578095 
L 617.618743 -501.496956 
L 616.168564 -504.208979 
L 614.718385 -511.544442 
L 613.268205 -509.657497 
L 611.818026 -516.133719 
L 610.367847 -515.516966 
L 608.917667 -508.524481 
L 607.467488 -507.726421 
L 606.017309 -508.846254 
L 604.567129 -518.279142 
L 603.11695 -516.734811 
L 601.666771 -529.392213 
L 600.216591 -534.981906 
L 598.766412 -539.635277 
L 597.316233 -542.870975 
L 595.866053 -544.115046 
L 594.415874 -543.360593 
L 592.965695 -540.83176 
L 591.515515 -532.113944 
L 590.065336 -534.847649 
L 588.615157 -548.427481 
L 587.164977 -556.701906 
L 585.714798 -562.199643 
L 584.264619 -560.090247 
L 582.814439 -551.602105 
L 581.36426 -529.724794 
L 579.914081 -516.26439 
L 578.463901 -506.505107 
L 577.013722 -501.11401 
L 575.563543 -498.826165 
L 574.113363 -498.105004 
L 572.663184 -498.075363 
L 571.213005 -498.63787 
L 569.762826 -500.304592 
L 568.312646 -503.769373 
L 566.862467 -508.928155 
L 565.412288 -513.97874 
L 563.962108 -527.298281 
L 562.511929 -513.97874 
L 561.06175 -508.928155 
L 559.61157 -503.769373 
L 558.161391 -500.304592 
L 556.711212 -498.631868 
L 555.261032 -498.031069 
L 553.810853 -497.867793 
L 552.360674 -497.833898 
L 550.910494 -497.827758 
L 549.460315 -497.827758 
L 548.010136 -497.827758 
L 546.559956 -497.827758 
L 545.109777 -497.827758 
L 543.659598 -497.827758 
L 542.209418 -497.827758 
L 540.759239 -497.827758 
L 539.30906 -497.827758 
L 537.85888 -497.827758 
L 536.408701 -497.827758 
L 534.958522 -497.827758 
L 533.508342 -497.827758 
L 532.058163 -497.827758 
L 530.607984 -497.827758 
L 529.157804 -497.827758 
L 527.707625 -497.827758 
L 526.257446 -497.827758 
L 524.807266 -497.827758 
L 523.357087 -497.827758 
L 521.906908 -497.827758 
L 520.456729 -497.827758 
L 519.006549 -497.827758 
L 517.55637 -497.827758 
L 516.106191 -497.827758 
L 514.656011 -497.827758 
L 513.205832 -497.827758 
L 511.755653 -497.827758 
L 510.305473 -497.827758 
L 508.855294 -497.827758 
L 507.405115 -497.827758 
L 505.954935 -497.827758 
L 504.504756 -497.827758 
L 503.054577 -497.827758 
L 501.604397 -497.827758 
L 500.154218 -497.827758 
L 498.704039 -497.827758 
L 497.253859 -497.827758 
L 495.80368 -497.827758 
L 494.353501 -497.827758 
L 492.903321 -497.827758 
L 491.453142 -497.827758 
L 490.002963 -497.827758 
L 488.552783 -497.827758 
L 487.102604 -497.825555 
L 485.652425 -497.813391 
L 484.202245 -497.752924 
L 482.752066 -497.525125 
L 481.301887 -496.862861 
L 479.851707 -495.374336 
L 478.401528 -492.767398 
L 476.951349 -489.141988 
L 475.501169 -487.383333 
L 474.05099 -480.847716 
L 472.600811 -480.121839 
L 471.150632 -477.909226 
L 469.700452 -477.329112 
L 468.250273 -479.115338 
L 466.800094 -482.670796 
L 465.349914 -482.584487 
L 463.899735 -486.113827 
L 462.449556 -493.456715 
L 460.999376 -491.649486 
L 459.549197 -494.035914 
L 458.099018 -495.903032 
L 456.648838 -497.04293 
L 455.198659 -497.562 
L 453.74848 -497.685766 
L 452.2983 -497.479879 
L 450.848121 -496.694801 
L 449.397942 -494.773652 
L 447.947762 -491.154039 
L 446.497583 -485.858857 
L 445.047404 -482.67989 
L 443.597224 -476.96614 
L 442.147045 -473.721852 
L 440.696866 -472.382919 
L 439.246686 -472.13907 
L 437.796507 -473.148371 
L 436.346328 -475.008101 
L 434.896148 -477.945441 
L 433.445969 -481.671811 
L 431.99579 -485.503168 
L 430.54561 -484.823136 
L 429.095431 -489.746536 
L 427.645252 -482.951994 
L 426.195073 -482.96691 
L 424.744893 -478.009718 
L 423.294714 -475.9899 
L 421.844535 -478.74737 
L 420.394355 -482.206406 
L 418.944176 -488.547172 
L 417.493997 -493.387275 
L 416.043817 -496.129989 
L 414.593638 -497.312064 
L 413.143459 -497.704054 
L 411.693279 -497.804558 
L 410.2431 -497.824626 
L 408.792921 -497.827758 
L 407.342741 -497.827758 
L 405.892562 -497.827758 
z
" style="stroke: #ff7f0e; stroke-opacity: 0.2"/>
    </defs>
    <g clip-path="url(#pdd5ac0d02b)">
     <use xlink:href="#mf682a771b0" x="0" y="720" style="fill: #ff7f0e; fill-opacity: 0.2; stroke: #ff7f0e; stroke-opacity: 0.2"/>
    </g>
   </g>
   <g id="matplotlib.axis_3">
    <g id="xtick_7">
     <g id="line2d_13">
      <g>
       <use xlink:href="#m02e5a22ced" x="405.863558" y="333.490909" style="stroke: #000000; stroke-width: 0.8"/>
      </g>
     </g>
     <g id="text_13">
      <!-- 0 -->
      <g transform="translate(402.682308 348.089347)scale(0.1 -0.1)">
       <use xlink:href="#DejaVuSans-30"/>
      </g>
     </g>
    </g>
    <g id="xtick_8">
     <g id="line2d_14">
      <g>
       <use xlink:href="#m02e5a22ced" x="463.870731" y="333.490909" style="stroke: #000000; stroke-width: 0.8"/>
      </g>
     </g>
     <g id="text_14">
      <!-- 2000 -->
      <g transform="translate(451.145731 348.089347)scale(0.1 -0.1)">
       <use xlink:href="#DejaVuSans-32"/>
       <use xlink:href="#DejaVuSans-30" x="63.623047"/>
       <use xlink:href="#DejaVuSans-30" x="127.246094"/>
       <use xlink:href="#DejaVuSans-30" x="190.869141"/>
      </g>
     </g>
    </g>
    <g id="xtick_9">
     <g id="line2d_15">
      <g>
       <use xlink:href="#m02e5a22ced" x="521.877904" y="333.490909" style="stroke: #000000; stroke-width: 0.8"/>
      </g>
     </g>
     <g id="text_15">
      <!-- 4000 -->
      <g transform="translate(509.152904 348.089347)scale(0.1 -0.1)">
       <use xlink:href="#DejaVuSans-34"/>
       <use xlink:href="#DejaVuSans-30" x="63.623047"/>
       <use xlink:href="#DejaVuSans-30" x="127.246094"/>
       <use xlink:href="#DejaVuSans-30" x="190.869141"/>
      </g>
     </g>
    </g>
    <g id="xtick_10">
     <g id="line2d_16">
      <g>
       <use xlink:href="#m02e5a22ced" x="579.885077" y="333.490909" style="stroke: #000000; stroke-width: 0.8"/>
      </g>
     </g>
     <g id="text_16">
      <!-- 6000 -->
      <g transform="translate(567.160077 348.089347)scale(0.1 -0.1)">
       <use xlink:href="#DejaVuSans-36"/>
       <use xlink:href="#DejaVuSans-30" x="63.623047"/>
       <use xlink:href="#DejaVuSans-30" x="127.246094"/>
       <use xlink:href="#DejaVuSans-30" x="190.869141"/>
      </g>
     </g>
    </g>
    <g id="xtick_11">
     <g id="line2d_17">
      <g>
       <use xlink:href="#m02e5a22ced" x="637.89225" y="333.490909" style="stroke: #000000; stroke-width: 0.8"/>
      </g>
     </g>
     <g id="text_17">
      <!-- 8000 -->
      <g transform="translate(625.16725 348.089347)scale(0.1 -0.1)">
       <use xlink:href="#DejaVuSans-38"/>
       <use xlink:href="#DejaVuSans-30" x="63.623047"/>
       <use xlink:href="#DejaVuSans-30" x="127.246094"/>
       <use xlink:href="#DejaVuSans-30" x="190.869141"/>
      </g>
     </g>
    </g>
   </g>
   <g id="matplotlib.axis_4">
    <g id="ytick_7">
     <g id="line2d_18">
      <g>
       <use xlink:href="#m0378b2fd13" x="394.363636" y="297.4525" style="stroke: #000000; stroke-width: 0.8"/>
      </g>
     </g>
     <g id="text_18">
      <!-- −4 -->
      <g transform="translate(372.621449 301.251719)scale(0.1 -0.1)">
       <defs>
        <path id="DejaVuSans-2212" d="M 678 2272 
L 4684 2272 
L 4684 1741 
L 678 1741 
L 678 2272 
z
" transform="scale(0.015625)"/>
       </defs>
       <use xlink:href="#DejaVuSans-2212"/>
       <use xlink:href="#DejaVuSans-34" x="83.789062"/>
      </g>
     </g>
    </g>
    <g id="ytick_8">
     <g id="line2d_19">
      <g>
       <use xlink:href="#m0378b2fd13" x="394.363636" y="259.812371" style="stroke: #000000; stroke-width: 0.8"/>
      </g>
     </g>
     <g id="text_19">
      <!-- −2 -->
      <g transform="translate(372.621449 263.61159)scale(0.1 -0.1)">
       <use xlink:href="#DejaVuSans-2212"/>
       <use xlink:href="#DejaVuSans-32" x="83.789062"/>
      </g>
     </g>
    </g>
    <g id="ytick_9">
     <g id="line2d_20">
      <g>
       <use xlink:href="#m0378b2fd13" x="394.363636" y="222.172242" style="stroke: #000000; stroke-width: 0.8"/>
      </g>
     </g>
     <g id="text_20">
      <!-- 0 -->
      <g transform="translate(381.001136 225.97146)scale(0.1 -0.1)">
       <use xlink:href="#DejaVuSans-30"/>
      </g>
     </g>
    </g>
    <g id="ytick_10">
     <g id="line2d_21">
      <g>
       <use xlink:href="#m0378b2fd13" x="394.363636" y="184.532113" style="stroke: #000000; stroke-width: 0.8"/>
      </g>
     </g>
     <g id="text_21">
      <!-- 2 -->
      <g transform="translate(381.001136 188.331331)scale(0.1 -0.1)">
       <use xlink:href="#DejaVuSans-32"/>
      </g>
     </g>
    </g>
    <g id="ytick_11">
     <g id="line2d_22">
      <g>
       <use xlink:href="#m0378b2fd13" x="394.363636" y="146.891983" style="stroke: #000000; stroke-width: 0.8"/>
      </g>
     </g>
     <g id="text_22">
      <!-- 4 -->
      <g transform="translate(381.001136 150.691202)scale(0.1 -0.1)">
       <use xlink:href="#DejaVuSans-34"/>
      </g>
     </g>
    </g>
    <g id="ytick_12">
     <g id="line2d_23">
      <g>
       <use xlink:href="#m0378b2fd13" x="394.363636" y="109.251854" style="stroke: #000000; stroke-width: 0.8"/>
      </g>
     </g>
     <g id="text_23">
      <!-- 6 -->
      <g transform="translate(381.001136 113.051073)scale(0.1 -0.1)">
       <use xlink:href="#DejaVuSans-36"/>
      </g>
     </g>
    </g>
   </g>
   <g id="line2d_24">
    <path d="M 405.892562 177.982432 
L 408.792921 178.576707 
L 411.693279 179.120974 
L 413.143459 179.659207 
L 414.593638 180.928037 
L 416.043817 183.396154 
L 417.493997 187.468002 
L 418.944176 193.331077 
L 421.844535 208.091807 
L 423.294714 214.341486 
L 424.744893 218.466277 
L 426.195073 220.598252 
L 427.645252 221.477584 
L 429.095431 221.809824 
L 431.99579 222.071508 
L 436.346328 222.169113 
L 466.800094 222.283256 
L 468.250273 222.526556 
L 469.700452 223.075982 
L 471.150632 224.050551 
L 472.600811 225.451796 
L 474.05099 227.173752 
L 476.951349 231.013751 
L 478.401528 232.674636 
L 479.851707 233.868902 
L 481.301887 234.80785 
L 482.752066 236.020859 
L 485.652425 239.299405 
L 487.102604 239.67057 
L 488.552783 238.056801 
L 490.002963 234.627892 
L 491.453142 230.434141 
L 492.903321 226.72812 
L 494.353501 224.230595 
L 495.80368 222.92538 
L 497.253859 222.396128 
L 498.704039 222.245479 
L 500.154218 222.295757 
L 501.604397 222.647065 
L 503.054577 223.72067 
L 504.504756 226.186349 
L 505.954935 230.501808 
L 508.855294 242.081985 
L 510.305473 246.934613 
L 517.55637 266.718373 
L 519.006549 270.19651 
L 520.456729 274.106372 
L 521.906908 279.119857 
L 523.357087 285.457748 
L 524.807266 292.381364 
L 526.257446 297.876947 
L 527.707625 299.006707 
L 529.157804 293.519017 
L 532.058163 271.116534 
L 533.508342 266.74559 
L 534.958522 272.827847 
L 537.85888 300.879529 
L 539.30906 310.725032 
L 540.759239 314.806689 
L 542.209418 315.110556 
L 543.659598 314.216154 
L 545.109777 313.641101 
L 546.559956 313.69206 
L 549.460315 314.608382 
L 550.910494 315.067585 
L 552.360674 315.38272 
L 553.810853 315.349309 
L 555.261032 314.590591 
L 556.711212 312.523205 
L 558.161391 308.274232 
L 559.61157 300.75986 
L 561.06175 289.470795 
L 562.511929 276.036495 
L 563.962108 264.988878 
L 565.412288 261.692378 
L 566.862467 268.265039 
L 569.762826 295.298507 
L 571.213005 305.048403 
L 572.663184 309.78184 
L 574.113363 310.91175 
L 575.563543 309.891887 
L 577.013722 306.828989 
L 578.463901 300.478806 
L 579.914081 289.430995 
L 581.36426 273.942739 
L 582.814439 256.953723 
L 584.264619 242.873316 
L 585.714798 234.950042 
L 587.164977 233.491057 
L 590.065336 238.552196 
L 591.515515 238.298614 
L 592.965695 234.848566 
L 594.415874 230.065336 
L 595.866053 226.057229 
L 597.316233 223.681402 
L 598.766412 222.634295 
L 600.216591 222.283573 
L 603.11695 222.17502 
L 636.471074 222.172242 
L 636.471074 222.172242 
" clip-path="url(#pdd5ac0d02b)" style="fill: none; stroke: #9467bd; stroke-width: 2; stroke-linecap: square"/>
   </g>
   <g id="line2d_25">
    <path d="M 405.892562 222.172242 
L 449.397942 222.206297 
L 450.848121 222.306933 
L 452.2983 222.587121 
L 453.74848 223.167486 
L 456.648838 224.877596 
L 458.099018 225.237809 
L 459.549197 224.877596 
L 462.449556 223.167486 
L 463.899735 222.587121 
L 465.349914 222.306933 
L 468.250273 222.178948 
L 474.05099 222.206486 
L 475.501169 222.30768 
L 476.951349 222.58942 
L 478.401528 223.173001 
L 481.301887 224.892588 
L 482.752066 225.254798 
L 484.202245 224.892588 
L 487.102604 223.173001 
L 488.552783 222.58942 
L 490.002963 222.30768 
L 492.903321 222.178985 
L 521.906908 222.071371 
L 523.357087 221.626246 
L 524.807266 219.877744 
L 526.257446 214.529005 
L 527.707625 201.899359 
L 529.157804 179.142591 
L 530.607984 148.718549 
L 532.058163 120.887177 
L 533.508342 109.030458 
L 534.958522 119.701454 
L 536.408701 147.037481 
L 537.85888 177.72264 
L 539.30906 201.053421 
L 540.759239 214.154648 
L 542.209418 219.751932 
L 543.659598 221.59378 
L 545.109777 222.064779 
L 548.010136 222.172242 
L 555.261032 222.121857 
L 556.711212 221.905187 
L 558.161391 221.059237 
L 559.61157 218.519362 
L 561.06175 212.717674 
L 562.511929 202.849323 
L 563.962108 190.957281 
L 565.412288 182.290177 
L 566.862467 181.864947 
L 568.312646 189.95859 
L 569.762826 201.829237 
L 571.213005 212.032555 
L 572.663184 218.188602 
L 574.113363 220.940436 
L 575.563543 221.872901 
L 577.013722 222.115155 
L 581.36426 222.172242 
L 595.866053 222.14328 
L 597.316233 222.015577 
L 598.766412 221.513444 
L 600.216591 219.977156 
L 601.666771 216.349891 
L 603.11695 209.820653 
L 606.017309 192.984194 
L 607.467488 189.00433 
L 608.917667 190.447312 
L 611.818026 199.623043 
L 613.268205 201.509972 
L 614.718385 201.08459 
L 616.168564 200.122386 
L 617.618743 200.527676 
L 619.068923 203.050059 
L 620.519102 206.578274 
L 621.969281 208.882632 
L 623.41946 208.525051 
L 626.319819 203.99278 
L 627.769998 204.071959 
L 629.220178 206.940388 
L 632.120536 216.039911 
L 633.570716 219.302632 
L 635.020895 221.078373 
L 636.471074 221.770494 
L 636.471074 221.770494 
" clip-path="url(#pdd5ac0d02b)" style="fill: none; stroke: #1f77b4; stroke-width: 2; stroke-linecap: square"/>
   </g>
   <g id="line2d_26">
    <path d="M 405.892562 222.172242 
L 436.346328 222.146216 
L 437.796507 222.032315 
L 439.246686 221.583371 
L 440.696866 220.208889 
L 442.147045 216.944831 
L 443.597224 210.947839 
L 445.047404 202.4612 
L 446.497583 193.28594 
L 447.947762 185.832884 
L 449.397942 181.50144 
L 450.848121 180.116991 
L 452.2983 180.784181 
L 453.74848 182.818332 
L 456.648838 188.857075 
L 458.099018 191.314984 
L 459.549197 192.783778 
L 460.999376 193.669751 
L 462.449556 194.800597 
L 463.899735 197.147225 
L 465.349914 201.42537 
L 468.250273 213.324035 
L 469.700452 217.896534 
L 471.150632 220.519929 
L 472.600811 221.66635 
L 474.05099 222.050245 
L 476.951349 222.169111 
L 481.301887 222.144928 
L 482.752066 222.023721 
L 484.202245 221.54091 
L 485.652425 220.040427 
L 487.102604 216.397702 
L 488.552783 209.482793 
L 490.002963 199.206468 
L 491.453142 187.240826 
L 492.903321 176.343215 
L 494.353501 168.670564 
L 495.80368 164.687524 
L 497.253859 163.463319 
L 498.704039 163.65559 
L 501.604397 165.017768 
L 503.054577 166.321468 
L 504.504756 169.235438 
L 505.954935 174.725706 
L 507.405115 182.589767 
L 508.855294 191.172036 
L 510.305473 198.707378 
L 511.755653 204.807476 
L 513.205832 210.100324 
L 514.656011 214.808362 
L 516.106191 218.445922 
L 517.55637 220.65872 
L 519.006549 221.686961 
L 520.456729 222.05064 
L 523.357087 222.16857 
L 568.312646 222.172242 
L 595.866053 222.236801 
L 597.316233 222.371097 
L 598.766412 222.649271 
L 601.666771 223.468942 
L 603.11695 223.641596 
L 604.567129 223.468942 
L 607.467488 222.649271 
L 608.917667 222.372543 
L 610.367847 222.247741 
L 611.818026 222.247747 
L 613.268205 222.424312 
L 614.718385 223.001871 
L 616.168564 224.370422 
L 617.618743 226.831144 
L 619.068923 230.105208 
L 620.519102 233.0758 
L 621.969281 234.34154 
L 623.41946 233.361887 
L 624.86964 231.112206 
L 626.319819 229.489785 
L 627.769998 229.924352 
L 629.220178 232.332559 
L 630.670357 235.218994 
L 632.120536 236.846842 
L 633.570716 236.533443 
L 635.020895 235.01673 
L 636.471074 233.729826 
L 636.471074 233.729826 
" clip-path="url(#pdd5ac0d02b)" style="fill: none; stroke: #d62728; stroke-width: 2; stroke-linecap: square"/>
   </g>
   <g id="line2d_27">
    <path d="M 405.892562 222.172242 
L 411.693279 222.195442 
L 413.143459 222.295946 
L 414.593638 222.687936 
L 416.043817 223.870011 
L 417.493997 226.612725 
L 418.944176 231.452828 
L 420.394355 237.793594 
L 421.844535 243.562349 
L 423.294714 246.321792 
L 424.744893 245.111367 
L 427.645252 237.048006 
L 429.095431 234.772117 
L 430.54561 235.176864 
L 431.99579 237.825497 
L 434.896148 245.212847 
L 436.346328 247.984111 
L 437.796507 249.697531 
L 439.246686 250.4745 
L 440.696866 250.297772 
L 442.147045 248.762391 
L 443.597224 245.354962 
L 445.047404 240.138894 
L 446.497583 234.141143 
L 447.947762 228.845961 
L 449.397942 225.226348 
L 450.848121 223.305199 
L 452.2983 222.520121 
L 453.74848 222.314234 
L 455.198659 222.438 
L 456.648838 222.95707 
L 458.099018 224.096968 
L 459.549197 225.964086 
L 460.999376 228.350514 
L 462.449556 230.965792 
L 463.899735 233.886173 
L 465.349914 237.415513 
L 466.800094 241.328756 
L 468.250273 244.589866 
L 469.700452 246.060525 
L 471.150632 245.325489 
L 472.600811 242.784811 
L 474.05099 239.152284 
L 476.951349 230.858012 
L 478.401528 227.232602 
L 479.851707 224.625664 
L 481.301887 223.137139 
L 482.752066 222.474875 
L 484.202245 222.247076 
L 488.552783 222.172242 
L 553.810853 222.132207 
L 555.261032 221.968931 
L 556.711212 221.368132 
L 558.161391 219.695408 
L 559.61157 216.230627 
L 562.511929 206.02126 
L 563.962108 203.870781 
L 565.412288 206.02126 
L 568.312646 216.230627 
L 569.762826 219.695408 
L 571.213005 221.36213 
L 572.663184 221.924637 
L 574.113363 221.894996 
L 575.563543 221.173835 
L 577.013722 218.88599 
L 578.463901 213.494893 
L 579.914081 203.73561 
L 582.814439 176.539645 
L 584.264619 167.168086 
L 585.714798 165.114117 
L 587.164977 169.921183 
L 588.615157 178.128855 
L 590.065336 185.152351 
L 591.515515 187.886056 
L 592.965695 186.55989 
L 594.415874 184.016888 
L 595.866053 183.014205 
L 597.316233 184.456748 
L 598.766412 187.863383 
L 600.216591 192.526955 
L 603.11695 203.265189 
L 604.567129 207.954336 
L 606.017309 211.153746 
L 607.467488 212.273579 
L 608.917667 211.475519 
L 610.367847 209.966863 
L 611.818026 209.314512 
L 613.268205 210.342503 
L 614.718385 212.787254 
L 616.168564 215.791021 
L 617.618743 218.503044 
L 619.068923 220.421905 
L 620.519102 221.492959 
L 621.969281 221.961069 
L 623.41946 222.120428 
L 627.769998 222.172242 
L 636.471074 222.172242 
L 636.471074 222.172242 
" clip-path="url(#pdd5ac0d02b)" style="fill: none; stroke: #ff7f0e; stroke-width: 2; stroke-linecap: square"/>
   </g>
   <g id="LineCollection_1">
    <path d="M 521.877904 314.459941 
L 521.877904 143.231771 
" clip-path="url(#pdd5ac0d02b)" style="fill: none; stroke-dasharray: 7.4,3.2; stroke-dashoffset: 0; stroke: #000000; stroke-width: 2"/>
    <path d="M 536.379697 314.459941 
L 536.379697 143.231771 
" clip-path="url(#pdd5ac0d02b)" style="fill: none; stroke-dasharray: 7.4,3.2; stroke-dashoffset: 0; stroke: #000000; stroke-width: 2"/>
    <path d="M 565.383284 314.459941 
L 565.383284 143.231771 
" clip-path="url(#pdd5ac0d02b)" style="fill: none; stroke-dasharray: 7.4,3.2; stroke-dashoffset: 0; stroke: #000000; stroke-width: 2"/>
    <path d="M 623.390457 314.459941 
L 623.390457 143.231771 
" clip-path="url(#pdd5ac0d02b)" style="fill: none; stroke-dasharray: 7.4,3.2; stroke-dashoffset: 0; stroke: #000000; stroke-width: 2"/>
   </g>
   <g id="patch_8">
    <path d="M 394.363636 333.490909 
L 394.363636 86.4 
" style="fill: none; stroke: #000000; stroke-width: 0.8; stroke-linejoin: miter; stroke-linecap: square"/>
   </g>
   <g id="patch_9">
    <path d="M 648 333.490909 
L 648 86.4 
" style="fill: none; stroke: #000000; stroke-width: 0.8; stroke-linejoin: miter; stroke-linecap: square"/>
   </g>
   <g id="patch_10">
    <path d="M 394.363636 333.490909 
L 648 333.490909 
" style="fill: none; stroke: #000000; stroke-width: 0.8; stroke-linejoin: miter; stroke-linecap: square"/>
   </g>
   <g id="patch_11">
    <path d="M 394.363636 86.4 
L 648 86.4 
" style="fill: none; stroke: #000000; stroke-width: 0.8; stroke-linejoin: miter; stroke-linecap: square"/>
   </g>
   <g id="text_24">
    <!-- unit_58 -->
    <g transform="translate(498.922756 80.4)scale(0.12 -0.12)">
     <defs>
      <path id="DejaVuSans-75" d="M 544 1381 
L 544 3500 
L 1119 3500 
L 1119 1403 
Q 1119 906 1312 657 
Q 1506 409 1894 409 
Q 2359 409 2629 706 
Q 2900 1003 2900 1516 
L 2900 3500 
L 3475 3500 
L 3475 0 
L 2900 0 
L 2900 538 
Q 2691 219 2414 64 
Q 2138 -91 1772 -91 
Q 1169 -91 856 284 
Q 544 659 544 1381 
z
M 1991 3584 
L 1991 3584 
z
" transform="scale(0.015625)"/>
      <path id="DejaVuSans-6e" d="M 3513 2113 
L 3513 0 
L 2938 0 
L 2938 2094 
Q 2938 2591 2744 2837 
Q 2550 3084 2163 3084 
Q 1697 3084 1428 2787 
Q 1159 2491 1159 1978 
L 1159 0 
L 581 0 
L 581 3500 
L 1159 3500 
L 1159 2956 
Q 1366 3272 1645 3428 
Q 1925 3584 2291 3584 
Q 2894 3584 3203 3211 
Q 3513 2838 3513 2113 
z
" transform="scale(0.015625)"/>
      <path id="DejaVuSans-69" d="M 603 3500 
L 1178 3500 
L 1178 0 
L 603 0 
L 603 3500 
z
M 603 4863 
L 1178 4863 
L 1178 4134 
L 603 4134 
L 603 4863 
z
" transform="scale(0.015625)"/>
      <path id="DejaVuSans-74" d="M 1172 4494 
L 1172 3500 
L 2356 3500 
L 2356 3053 
L 1172 3053 
L 1172 1153 
Q 1172 725 1289 603 
Q 1406 481 1766 481 
L 2356 481 
L 2356 0 
L 1766 0 
Q 1100 0 847 248 
Q 594 497 594 1153 
L 594 3053 
L 172 3053 
L 172 3500 
L 594 3500 
L 594 4494 
L 1172 4494 
z
" transform="scale(0.015625)"/>
      <path id="DejaVuSans-5f" d="M 3263 -1063 
L 3263 -1509 
L -63 -1509 
L -63 -1063 
L 3263 -1063 
z
" transform="scale(0.015625)"/>
      <path id="DejaVuSans-35" d="M 691 4666 
L 3169 4666 
L 3169 4134 
L 1269 4134 
L 1269 2991 
Q 1406 3038 1543 3061 
Q 1681 3084 1819 3084 
Q 2600 3084 3056 2656 
Q 3513 2228 3513 1497 
Q 3513 744 3044 326 
Q 2575 -91 1722 -91 
Q 1428 -91 1123 -41 
Q 819 9 494 109 
L 494 744 
Q 775 591 1075 516 
Q 1375 441 1709 441 
Q 2250 441 2565 725 
Q 2881 1009 2881 1497 
Q 2881 1984 2565 2268 
Q 2250 2553 1709 2553 
Q 1456 2553 1204 2497 
Q 953 2441 691 2322 
L 691 4666 
z
" transform="scale(0.015625)"/>
     </defs>
     <use xlink:href="#DejaVuSans-75"/>
     <use xlink:href="#DejaVuSans-6e" x="63.378906"/>
     <use xlink:href="#DejaVuSans-69" x="126.757812"/>
     <use xlink:href="#DejaVuSans-74" x="154.541016"/>
     <use xlink:href="#DejaVuSans-5f" x="193.75"/>
     <use xlink:href="#DejaVuSans-35" x="243.75"/>
     <use xlink:href="#DejaVuSans-38" x="307.373047"/>
    </g>
   </g>
  </g>
  <g id="axes_3">
   <g id="patch_12">
    <path d="M 90 630 
L 343.636364 630 
L 343.636364 382.909091 
L 90 382.909091 
z
" style="fill: #ffffff"/>
   </g>
   <g id="matplotlib.axis_5">
    <g id="xtick_12">
     <g id="line2d_28">
      <g>
       <use xlink:href="#m02e5a22ced" x="90" y="630" style="stroke: #000000; stroke-width: 0.8"/>
      </g>
     </g>
     <g id="text_25">
      <!-- 0.0 -->
      <g transform="translate(82.048438 644.598437)scale(0.1 -0.1)">
       <use xlink:href="#DejaVuSans-30"/>
       <use xlink:href="#DejaVuSans-2e" x="63.623047"/>
       <use xlink:href="#DejaVuSans-30" x="95.410156"/>
      </g>
     </g>
    </g>
    <g id="xtick_13">
     <g id="line2d_29">
      <g>
       <use xlink:href="#m02e5a22ced" x="140.727273" y="630" style="stroke: #000000; stroke-width: 0.8"/>
      </g>
     </g>
     <g id="text_26">
      <!-- 0.2 -->
      <g transform="translate(132.77571 644.598437)scale(0.1 -0.1)">
       <use xlink:href="#DejaVuSans-30"/>
       <use xlink:href="#DejaVuSans-2e" x="63.623047"/>
       <use xlink:href="#DejaVuSans-32" x="95.410156"/>
      </g>
     </g>
    </g>
    <g id="xtick_14">
     <g id="line2d_30">
      <g>
       <use xlink:href="#m02e5a22ced" x="191.454545" y="630" style="stroke: #000000; stroke-width: 0.8"/>
      </g>
     </g>
     <g id="text_27">
      <!-- 0.4 -->
      <g transform="translate(183.502983 644.598437)scale(0.1 -0.1)">
       <use xlink:href="#DejaVuSans-30"/>
       <use xlink:href="#DejaVuSans-2e" x="63.623047"/>
       <use xlink:href="#DejaVuSans-34" x="95.410156"/>
      </g>
     </g>
    </g>
    <g id="xtick_15">
     <g id="line2d_31">
      <g>
       <use xlink:href="#m02e5a22ced" x="242.181818" y="630" style="stroke: #000000; stroke-width: 0.8"/>
      </g>
     </g>
     <g id="text_28">
      <!-- 0.6 -->
      <g transform="translate(234.230256 644.598437)scale(0.1 -0.1)">
       <use xlink:href="#DejaVuSans-30"/>
       <use xlink:href="#DejaVuSans-2e" x="63.623047"/>
       <use xlink:href="#DejaVuSans-36" x="95.410156"/>
      </g>
     </g>
    </g>
    <g id="xtick_16">
     <g id="line2d_32">
      <g>
       <use xlink:href="#m02e5a22ced" x="292.909091" y="630" style="stroke: #000000; stroke-width: 0.8"/>
      </g>
     </g>
     <g id="text_29">
      <!-- 0.8 -->
      <g transform="translate(284.957528 644.598437)scale(0.1 -0.1)">
       <use xlink:href="#DejaVuSans-30"/>
       <use xlink:href="#DejaVuSans-2e" x="63.623047"/>
       <use xlink:href="#DejaVuSans-38" x="95.410156"/>
      </g>
     </g>
    </g>
    <g id="xtick_17">
     <g id="line2d_33">
      <g>
       <use xlink:href="#m02e5a22ced" x="343.636364" y="630" style="stroke: #000000; stroke-width: 0.8"/>
      </g>
     </g>
     <g id="text_30">
      <!-- 1.0 -->
      <g transform="translate(335.684801 644.598437)scale(0.1 -0.1)">
       <use xlink:href="#DejaVuSans-31"/>
       <use xlink:href="#DejaVuSans-2e" x="63.623047"/>
       <use xlink:href="#DejaVuSans-30" x="95.410156"/>
      </g>
     </g>
    </g>
   </g>
   <g id="matplotlib.axis_6">
    <g id="ytick_13">
     <g id="line2d_34">
      <g>
       <use xlink:href="#m0378b2fd13" x="90" y="630" style="stroke: #000000; stroke-width: 0.8"/>
      </g>
     </g>
     <g id="text_31">
      <!-- 0.0 -->
      <g transform="translate(67.096875 633.799219)scale(0.1 -0.1)">
       <use xlink:href="#DejaVuSans-30"/>
       <use xlink:href="#DejaVuSans-2e" x="63.623047"/>
       <use xlink:href="#DejaVuSans-30" x="95.410156"/>
      </g>
     </g>
    </g>
    <g id="ytick_14">
     <g id="line2d_35">
      <g>
       <use xlink:href="#m0378b2fd13" x="90" y="580.581818" style="stroke: #000000; stroke-width: 0.8"/>
      </g>
     </g>
     <g id="text_32">
      <!-- 0.2 -->
      <g transform="translate(67.096875 584.381037)scale(0.1 -0.1)">
       <use xlink:href="#DejaVuSans-30"/>
       <use xlink:href="#DejaVuSans-2e" x="63.623047"/>
       <use xlink:href="#DejaVuSans-32" x="95.410156"/>
      </g>
     </g>
    </g>
    <g id="ytick_15">
     <g id="line2d_36">
      <g>
       <use xlink:href="#m0378b2fd13" x="90" y="531.163636" style="stroke: #000000; stroke-width: 0.8"/>
      </g>
     </g>
     <g id="text_33">
      <!-- 0.4 -->
      <g transform="translate(67.096875 534.962855)scale(0.1 -0.1)">
       <use xlink:href="#DejaVuSans-30"/>
       <use xlink:href="#DejaVuSans-2e" x="63.623047"/>
       <use xlink:href="#DejaVuSans-34" x="95.410156"/>
      </g>
     </g>
    </g>
    <g id="ytick_16">
     <g id="line2d_37">
      <g>
       <use xlink:href="#m0378b2fd13" x="90" y="481.745455" style="stroke: #000000; stroke-width: 0.8"/>
      </g>
     </g>
     <g id="text_34">
      <!-- 0.6 -->
      <g transform="translate(67.096875 485.544673)scale(0.1 -0.1)">
       <use xlink:href="#DejaVuSans-30"/>
       <use xlink:href="#DejaVuSans-2e" x="63.623047"/>
       <use xlink:href="#DejaVuSans-36" x="95.410156"/>
      </g>
     </g>
    </g>
    <g id="ytick_17">
     <g id="line2d_38">
      <g>
       <use xlink:href="#m0378b2fd13" x="90" y="432.327273" style="stroke: #000000; stroke-width: 0.8"/>
      </g>
     </g>
     <g id="text_35">
      <!-- 0.8 -->
      <g transform="translate(67.096875 436.126491)scale(0.1 -0.1)">
       <use xlink:href="#DejaVuSans-30"/>
       <use xlink:href="#DejaVuSans-2e" x="63.623047"/>
       <use xlink:href="#DejaVuSans-38" x="95.410156"/>
      </g>
     </g>
    </g>
    <g id="ytick_18">
     <g id="line2d_39">
      <g>
       <use xlink:href="#m0378b2fd13" x="90" y="382.909091" style="stroke: #000000; stroke-width: 0.8"/>
      </g>
     </g>
     <g id="text_36">
      <!-- 1.0 -->
      <g transform="translate(67.096875 386.70831)scale(0.1 -0.1)">
       <use xlink:href="#DejaVuSans-31"/>
       <use xlink:href="#DejaVuSans-2e" x="63.623047"/>
       <use xlink:href="#DejaVuSans-30" x="95.410156"/>
      </g>
     </g>
    </g>
   </g>
   <g id="patch_13">
    <path d="M 90 630 
L 90 382.909091 
" style="fill: none; stroke: #000000; stroke-width: 0.8; stroke-linejoin: miter; stroke-linecap: square"/>
   </g>
   <g id="patch_14">
    <path d="M 343.636364 630 
L 343.636364 382.909091 
" style="fill: none; stroke: #000000; stroke-width: 0.8; stroke-linejoin: miter; stroke-linecap: square"/>
   </g>
   <g id="patch_15">
    <path d="M 90 630 
L 343.636364 630 
" style="fill: none; stroke: #000000; stroke-width: 0.8; stroke-linejoin: miter; stroke-linecap: square"/>
   </g>
   <g id="patch_16">
    <path d="M 90 382.909091 
L 343.636364 382.909091 
" style="fill: none; stroke: #000000; stroke-width: 0.8; stroke-linejoin: miter; stroke-linecap: square"/>
   </g>
  </g>
  <g id="axes_4">
   <g id="patch_17">
    <path d="M 394.363636 630 
L 648 630 
L 648 382.909091 
L 394.363636 382.909091 
z
" style="fill: #ffffff"/>
   </g>
   <g id="matplotlib.axis_7">
    <g id="xtick_18">
     <g id="line2d_40">
      <g>
       <use xlink:href="#m02e5a22ced" x="405.863558" y="630" style="stroke: #000000; stroke-width: 0.8"/>
      </g>
     </g>
     <g id="text_37">
      <!-- 0 -->
      <g transform="translate(402.682308 644.598437)scale(0.1 -0.1)">
       <use xlink:href="#DejaVuSans-30"/>
      </g>
     </g>
    </g>
    <g id="xtick_19">
     <g id="line2d_41">
      <g>
       <use xlink:href="#m02e5a22ced" x="463.870731" y="630" style="stroke: #000000; stroke-width: 0.8"/>
      </g>
     </g>
     <g id="text_38">
      <!-- 2000 -->
      <g transform="translate(451.145731 644.598437)scale(0.1 -0.1)">
       <use xlink:href="#DejaVuSans-32"/>
       <use xlink:href="#DejaVuSans-30" x="63.623047"/>
       <use xlink:href="#DejaVuSans-30" x="127.246094"/>
       <use xlink:href="#DejaVuSans-30" x="190.869141"/>
      </g>
     </g>
    </g>
    <g id="xtick_20">
     <g id="line2d_42">
      <g>
       <use xlink:href="#m02e5a22ced" x="521.877904" y="630" style="stroke: #000000; stroke-width: 0.8"/>
      </g>
     </g>
     <g id="text_39">
      <!-- 4000 -->
      <g transform="translate(509.152904 644.598437)scale(0.1 -0.1)">
       <use xlink:href="#DejaVuSans-34"/>
       <use xlink:href="#DejaVuSans-30" x="63.623047"/>
       <use xlink:href="#DejaVuSans-30" x="127.246094"/>
       <use xlink:href="#DejaVuSans-30" x="190.869141"/>
      </g>
     </g>
    </g>
    <g id="xtick_21">
     <g id="line2d_43">
      <g>
       <use xlink:href="#m02e5a22ced" x="579.885077" y="630" style="stroke: #000000; stroke-width: 0.8"/>
      </g>
     </g>
     <g id="text_40">
      <!-- 6000 -->
      <g transform="translate(567.160077 644.598437)scale(0.1 -0.1)">
       <use xlink:href="#DejaVuSans-36"/>
       <use xlink:href="#DejaVuSans-30" x="63.623047"/>
       <use xlink:href="#DejaVuSans-30" x="127.246094"/>
       <use xlink:href="#DejaVuSans-30" x="190.869141"/>
      </g>
     </g>
    </g>
    <g id="xtick_22">
     <g id="line2d_44">
      <g>
       <use xlink:href="#m02e5a22ced" x="637.89225" y="630" style="stroke: #000000; stroke-width: 0.8"/>
      </g>
     </g>
     <g id="text_41">
      <!-- 8000 -->
      <g transform="translate(625.16725 644.598437)scale(0.1 -0.1)">
       <use xlink:href="#DejaVuSans-38"/>
       <use xlink:href="#DejaVuSans-30" x="63.623047"/>
       <use xlink:href="#DejaVuSans-30" x="127.246094"/>
       <use xlink:href="#DejaVuSans-30" x="190.869141"/>
      </g>
     </g>
    </g>
   </g>
   <g id="matplotlib.axis_8">
    <g id="ytick_19">
     <g id="line2d_45">
      <g>
       <use xlink:href="#m0378b2fd13" x="394.363636" y="614.238818" style="stroke: #000000; stroke-width: 0.8"/>
      </g>
     </g>
     <g id="text_42">
      <!-- 0 -->
      <g transform="translate(381.001136 618.038037)scale(0.1 -0.1)">
       <use xlink:href="#DejaVuSans-30"/>
      </g>
     </g>
    </g>
    <g id="ytick_20">
     <g id="line2d_46">
      <g>
       <use xlink:href="#m0378b2fd13" x="394.363636" y="574.835864" style="stroke: #000000; stroke-width: 0.8"/>
      </g>
     </g>
     <g id="text_43">
      <!-- 5 -->
      <g transform="translate(381.001136 578.635082)scale(0.1 -0.1)">
       <use xlink:href="#DejaVuSans-35"/>
      </g>
     </g>
    </g>
    <g id="ytick_21">
     <g id="line2d_47">
      <g>
       <use xlink:href="#m0378b2fd13" x="394.363636" y="535.432909" style="stroke: #000000; stroke-width: 0.8"/>
      </g>
     </g>
     <g id="text_44">
      <!-- 10 -->
      <g transform="translate(374.638636 539.232128)scale(0.1 -0.1)">
       <use xlink:href="#DejaVuSans-31"/>
       <use xlink:href="#DejaVuSans-30" x="63.623047"/>
      </g>
     </g>
    </g>
    <g id="ytick_22">
     <g id="line2d_48">
      <g>
       <use xlink:href="#m0378b2fd13" x="394.363636" y="496.029955" style="stroke: #000000; stroke-width: 0.8"/>
      </g>
     </g>
     <g id="text_45">
      <!-- 15 -->
      <g transform="translate(374.638636 499.829173)scale(0.1 -0.1)">
       <use xlink:href="#DejaVuSans-31"/>
       <use xlink:href="#DejaVuSans-35" x="63.623047"/>
      </g>
     </g>
    </g>
    <g id="ytick_23">
     <g id="line2d_49">
      <g>
       <use xlink:href="#m0378b2fd13" x="394.363636" y="456.627" style="stroke: #000000; stroke-width: 0.8"/>
      </g>
     </g>
     <g id="text_46">
      <!-- 20 -->
      <g transform="translate(374.638636 460.426219)scale(0.1 -0.1)">
       <use xlink:href="#DejaVuSans-32"/>
       <use xlink:href="#DejaVuSans-30" x="63.623047"/>
      </g>
     </g>
    </g>
    <g id="ytick_24">
     <g id="line2d_50">
      <g>
       <use xlink:href="#m0378b2fd13" x="394.363636" y="417.224046" style="stroke: #000000; stroke-width: 0.8"/>
      </g>
     </g>
     <g id="text_47">
      <!-- 25 -->
      <g transform="translate(374.638636 421.023264)scale(0.1 -0.1)">
       <use xlink:href="#DejaVuSans-32"/>
       <use xlink:href="#DejaVuSans-35" x="63.623047"/>
      </g>
     </g>
    </g>
   </g>
   <g id="line2d_51">
    <path d="M 405.892562 528.431888 
L 407.342741 520.039622 
L 408.792921 508.666658 
L 410.2431 488.885133 
L 411.693279 472.685318 
L 413.143459 470.743287 
L 414.593638 483.343081 
L 416.043817 500.209473 
L 417.493997 512.473277 
L 420.394355 562.447558 
L 421.844535 568.09045 
L 423.294714 581.048195 
L 424.744893 612.465086 
L 426.195073 636.481641 
L 427.645252 648.381347 
L 429.095431 654.715096 
L 430.54561 652.194429 
L 431.99579 645.23582 
L 433.445969 632.492669 
L 434.896148 615.514047 
L 436.346328 601.868342 
L 437.796507 594.819797 
L 439.246686 589.899335 
L 440.696866 586.561165 
L 442.147045 590.509341 
L 443.597224 608.483623 
L 445.047404 638.105604 
L 446.497583 664.063127 
L 447.947762 672.755882 
L 449.397942 672.550569 
L 450.848121 671.838748 
L 452.2983 674.681786 
L 453.74848 678.355876 
L 455.198659 675.609408 
L 456.648838 665.46065 
L 458.099018 659.342626 
L 460.999376 677.679862 
L 462.449556 684.776448 
L 463.899735 699.441438 
L 465.349914 716.415681 
L 466.800094 718.589246 
L 468.250273 708.979763 
L 471.150632 686.955849 
L 472.600811 686.052241 
L 474.05099 692.683781 
L 475.501169 693.354096 
L 476.951349 687.893486 
L 478.401528 694.669905 
L 479.851707 708.761638 
L 481.301887 702.720075 
L 482.752066 686.697432 
L 484.202245 681.73634 
L 485.652425 677.30432 
L 487.102604 672.280005 
L 488.552783 674.398148 
L 490.084319 721 
M 527.19386 721 
L 527.707625 673.232037 
L 530.607984 552.042927 
L 532.058163 446.796257 
L 533.508342 382.909091 
L 534.958522 412.931151 
L 536.408701 500.23741 
L 537.85888 563.099931 
L 539.30906 585.49846 
L 540.759239 594.866897 
L 542.209418 592.52986 
L 543.659598 585.486287 
L 545.109777 594.771277 
L 546.559956 614.882392 
L 548.010136 618.706841 
L 549.460315 610.06241 
L 550.910494 597.840394 
L 555.261032 573.864646 
L 556.711212 568.64121 
L 558.161391 567.092003 
L 559.61157 563.609264 
L 561.06175 562.130262 
L 562.511929 564.896746 
L 563.962108 556.399463 
L 566.862467 495.798026 
L 568.312646 488.147671 
L 569.762826 491.035956 
L 571.213005 495.774466 
L 572.663184 504.417955 
L 574.113363 515.010243 
L 575.563543 517.606043 
L 577.013722 508.676651 
L 578.463901 496.164275 
L 579.914081 486.400417 
L 581.36426 483.484084 
L 582.814439 491.986418 
L 584.264619 507.974606 
L 585.714798 528.187995 
L 587.164977 550.658251 
L 588.615157 577.537763 
L 590.065336 606.676835 
L 591.515515 613.722844 
L 592.965695 600.690695 
L 594.415874 595.582876 
L 595.866053 601.127538 
L 597.316233 608.44307 
L 598.766412 613.010235 
L 601.666771 619.698556 
L 603.11695 621.988693 
L 604.567129 627.943868 
L 606.017309 638.791658 
L 607.467488 641.47379 
L 608.917667 631.378021 
L 610.367847 617.955033 
L 611.818026 615.88823 
L 613.268205 621.017504 
L 614.718385 623.481393 
L 616.168564 631.185542 
L 617.618743 641.315345 
L 619.068923 646.030298 
L 620.519102 646.656706 
L 621.969281 648.592352 
L 623.41946 647.179075 
L 626.319819 628.827931 
L 627.769998 621.40591 
L 629.220178 617.51814 
L 630.670357 617.601815 
L 632.120536 618.728897 
L 633.570716 620.877298 
L 635.020895 624.202057 
L 636.471074 626.914861 
L 636.471074 626.914861 
" clip-path="url(#p7acfee3edf)" style="fill: none; stroke: #1f77b4; stroke-width: 1.5; stroke-linecap: square"/>
   </g>
   <g id="patch_18">
    <path d="M 394.363636 630 
L 394.363636 382.909091 
" style="fill: none; stroke: #000000; stroke-width: 0.8; stroke-linejoin: miter; stroke-linecap: square"/>
   </g>
   <g id="patch_19">
    <path d="M 648 630 
L 648 382.909091 
" style="fill: none; stroke: #000000; stroke-width: 0.8; stroke-linejoin: miter; stroke-linecap: square"/>
   </g>
   <g id="patch_20">
    <path d="M 394.363636 630 
L 648 630 
" style="fill: none; stroke: #000000; stroke-width: 0.8; stroke-linejoin: miter; stroke-linecap: square"/>
   </g>
   <g id="patch_21">
    <path d="M 394.363636 382.909091 
L 648 382.909091 
" style="fill: none; stroke: #000000; stroke-width: 0.8; stroke-linejoin: miter; stroke-linecap: square"/>
   </g>
   <g id="text_48">
    <!-- explained variance -->
    <g transform="translate(464.181818 376.909091)scale(0.12 -0.12)">
     <defs>
      <path id="DejaVuSans-65" d="M 3597 1894 
L 3597 1613 
L 953 1613 
Q 991 1019 1311 708 
Q 1631 397 2203 397 
Q 2534 397 2845 478 
Q 3156 559 3463 722 
L 3463 178 
Q 3153 47 2828 -22 
Q 2503 -91 2169 -91 
Q 1331 -91 842 396 
Q 353 884 353 1716 
Q 353 2575 817 3079 
Q 1281 3584 2069 3584 
Q 2775 3584 3186 3129 
Q 3597 2675 3597 1894 
z
M 3022 2063 
Q 3016 2534 2758 2815 
Q 2500 3097 2075 3097 
Q 1594 3097 1305 2825 
Q 1016 2553 972 2059 
L 3022 2063 
z
" transform="scale(0.015625)"/>
      <path id="DejaVuSans-78" d="M 3513 3500 
L 2247 1797 
L 3578 0 
L 2900 0 
L 1881 1375 
L 863 0 
L 184 0 
L 1544 1831 
L 300 3500 
L 978 3500 
L 1906 2253 
L 2834 3500 
L 3513 3500 
z
" transform="scale(0.015625)"/>
      <path id="DejaVuSans-70" d="M 1159 525 
L 1159 -1331 
L 581 -1331 
L 581 3500 
L 1159 3500 
L 1159 2969 
Q 1341 3281 1617 3432 
Q 1894 3584 2278 3584 
Q 2916 3584 3314 3078 
Q 3713 2572 3713 1747 
Q 3713 922 3314 415 
Q 2916 -91 2278 -91 
Q 1894 -91 1617 61 
Q 1341 213 1159 525 
z
M 3116 1747 
Q 3116 2381 2855 2742 
Q 2594 3103 2138 3103 
Q 1681 3103 1420 2742 
Q 1159 2381 1159 1747 
Q 1159 1113 1420 752 
Q 1681 391 2138 391 
Q 2594 391 2855 752 
Q 3116 1113 3116 1747 
z
" transform="scale(0.015625)"/>
      <path id="DejaVuSans-6c" d="M 603 4863 
L 1178 4863 
L 1178 0 
L 603 0 
L 603 4863 
z
" transform="scale(0.015625)"/>
      <path id="DejaVuSans-61" d="M 2194 1759 
Q 1497 1759 1228 1600 
Q 959 1441 959 1056 
Q 959 750 1161 570 
Q 1363 391 1709 391 
Q 2188 391 2477 730 
Q 2766 1069 2766 1631 
L 2766 1759 
L 2194 1759 
z
M 3341 1997 
L 3341 0 
L 2766 0 
L 2766 531 
Q 2569 213 2275 61 
Q 1981 -91 1556 -91 
Q 1019 -91 701 211 
Q 384 513 384 1019 
Q 384 1609 779 1909 
Q 1175 2209 1959 2209 
L 2766 2209 
L 2766 2266 
Q 2766 2663 2505 2880 
Q 2244 3097 1772 3097 
Q 1472 3097 1187 3025 
Q 903 2953 641 2809 
L 641 3341 
Q 956 3463 1253 3523 
Q 1550 3584 1831 3584 
Q 2591 3584 2966 3190 
Q 3341 2797 3341 1997 
z
" transform="scale(0.015625)"/>
      <path id="DejaVuSans-64" d="M 2906 2969 
L 2906 4863 
L 3481 4863 
L 3481 0 
L 2906 0 
L 2906 525 
Q 2725 213 2448 61 
Q 2172 -91 1784 -91 
Q 1150 -91 751 415 
Q 353 922 353 1747 
Q 353 2572 751 3078 
Q 1150 3584 1784 3584 
Q 2172 3584 2448 3432 
Q 2725 3281 2906 2969 
z
M 947 1747 
Q 947 1113 1208 752 
Q 1469 391 1925 391 
Q 2381 391 2643 752 
Q 2906 1113 2906 1747 
Q 2906 2381 2643 2742 
Q 2381 3103 1925 3103 
Q 1469 3103 1208 2742 
Q 947 2381 947 1747 
z
" transform="scale(0.015625)"/>
      <path id="DejaVuSans-20" transform="scale(0.015625)"/>
      <path id="DejaVuSans-76" d="M 191 3500 
L 800 3500 
L 1894 563 
L 2988 3500 
L 3597 3500 
L 2284 0 
L 1503 0 
L 191 3500 
z
" transform="scale(0.015625)"/>
      <path id="DejaVuSans-72" d="M 2631 2963 
Q 2534 3019 2420 3045 
Q 2306 3072 2169 3072 
Q 1681 3072 1420 2755 
Q 1159 2438 1159 1844 
L 1159 0 
L 581 0 
L 581 3500 
L 1159 3500 
L 1159 2956 
Q 1341 3275 1631 3429 
Q 1922 3584 2338 3584 
Q 2397 3584 2469 3576 
Q 2541 3569 2628 3553 
L 2631 2963 
z
" transform="scale(0.015625)"/>
      <path id="DejaVuSans-63" d="M 3122 3366 
L 3122 2828 
Q 2878 2963 2633 3030 
Q 2388 3097 2138 3097 
Q 1578 3097 1268 2742 
Q 959 2388 959 1747 
Q 959 1106 1268 751 
Q 1578 397 2138 397 
Q 2388 397 2633 464 
Q 2878 531 3122 666 
L 3122 134 
Q 2881 22 2623 -34 
Q 2366 -91 2075 -91 
Q 1284 -91 818 406 
Q 353 903 353 1747 
Q 353 2603 823 3093 
Q 1294 3584 2113 3584 
Q 2378 3584 2631 3529 
Q 2884 3475 3122 3366 
z
" transform="scale(0.015625)"/>
     </defs>
     <use xlink:href="#DejaVuSans-65"/>
     <use xlink:href="#DejaVuSans-78" x="59.773438"/>
     <use xlink:href="#DejaVuSans-70" x="118.953125"/>
     <use xlink:href="#DejaVuSans-6c" x="182.429688"/>
     <use xlink:href="#DejaVuSans-61" x="210.212891"/>
     <use xlink:href="#DejaVuSans-69" x="271.492188"/>
     <use xlink:href="#DejaVuSans-6e" x="299.275391"/>
     <use xlink:href="#DejaVuSans-65" x="362.654297"/>
     <use xlink:href="#DejaVuSans-64" x="424.177734"/>
     <use xlink:href="#DejaVuSans-20" x="487.654297"/>
     <use xlink:href="#DejaVuSans-76" x="519.441406"/>
     <use xlink:href="#DejaVuSans-61" x="578.621094"/>
     <use xlink:href="#DejaVuSans-72" x="639.900391"/>
     <use xlink:href="#DejaVuSans-69" x="681.013672"/>
     <use xlink:href="#DejaVuSans-61" x="708.796875"/>
     <use xlink:href="#DejaVuSans-6e" x="770.076172"/>
     <use xlink:href="#DejaVuSans-63" x="833.455078"/>
     <use xlink:href="#DejaVuSans-65" x="888.435547"/>
    </g>
   </g>
  </g>
 </g>
 <defs>
  <clipPath id="pdd5ac0d02b">
   <rect x="394.363636" y="86.4" width="253.636364" height="247.090909"/>
  </clipPath>
  <clipPath id="p7acfee3edf">
   <rect x="394.363636" y="382.909091" width="253.636364" height="247.090909"/>
  </clipPath>
 </defs>
</svg>
