<?xml version="1.0" encoding="utf-8" standalone="no"?>
<!DOCTYPE svg PUBLIC "-//W3C//DTD SVG 1.1//EN"
  "http://www.w3.org/Graphics/SVG/1.1/DTD/svg11.dtd">
<svg xmlns:xlink="http://www.w3.org/1999/xlink" width="720pt" height="720pt" viewBox="0 0 720 720" xmlns="http://www.w3.org/2000/svg" version="1.1">
 <metadata>
  <rdf:RDF xmlns:dc="http://purl.org/dc/elements/1.1/" xmlns:cc="http://creativecommons.org/ns#" xmlns:rdf="http://www.w3.org/1999/02/22-rdf-syntax-ns#">
   <cc:Work>
    <dc:type rdf:resource="http://purl.org/dc/dcmitype/StillImage"/>
    <dc:date>2023-12-19T18:22:26.534053</dc:date>
    <dc:format>image/svg+xml</dc:format>
    <dc:creator>
     <cc:Agent>
      <dc:title>Matplotlib v3.5.2, https://matplotlib.org/</dc:title>
     </cc:Agent>
    </dc:creator>
   </cc:Work>
  </rdf:RDF>
 </metadata>
 <defs>
  <style type="text/css">*{stroke-linejoin: round; stroke-linecap: butt}</style>
 </defs>
 <g id="figure_1">
  <g id="patch_1">
   <path d="M 0 720 
L 720 720 
L 720 0 
L 0 0 
z
" style="fill: #ffffff"/>
  </g>
  <g id="axes_1">
   <g id="patch_2">
    <path d="M 90 333.490909 
L 343.636364 333.490909 
L 343.636364 86.4 
L 90 86.4 
z
" style="fill: #ffffff"/>
   </g>
   <g id="matplotlib.axis_1">
    <g id="xtick_1">
     <g id="line2d_1">
      <defs>
       <path id="m89f02fa366" d="M 0 0 
L 0 3.5 
" style="stroke: #000000; stroke-width: 0.8"/>
      </defs>
      <g>
       <use xlink:href="#m89f02fa366" x="90" y="333.490909" style="stroke: #000000; stroke-width: 0.8"/>
      </g>
     </g>
     <g id="text_1">
      <!-- 0.0 -->
      <g transform="translate(82.048438 348.089347)scale(0.1 -0.1)">
       <defs>
        <path id="DejaVuSans-30" d="M 2034 4250 
Q 1547 4250 1301 3770 
Q 1056 3291 1056 2328 
Q 1056 1369 1301 889 
Q 1547 409 2034 409 
Q 2525 409 2770 889 
Q 3016 1369 3016 2328 
Q 3016 3291 2770 3770 
Q 2525 4250 2034 4250 
z
M 2034 4750 
Q 2819 4750 3233 4129 
Q 3647 3509 3647 2328 
Q 3647 1150 3233 529 
Q 2819 -91 2034 -91 
Q 1250 -91 836 529 
Q 422 1150 422 2328 
Q 422 3509 836 4129 
Q 1250 4750 2034 4750 
z
" transform="scale(0.015625)"/>
        <path id="DejaVuSans-2e" d="M 684 794 
L 1344 794 
L 1344 0 
L 684 0 
L 684 794 
z
" transform="scale(0.015625)"/>
       </defs>
       <use xlink:href="#DejaVuSans-30"/>
       <use xlink:href="#DejaVuSans-2e" x="63.623047"/>
       <use xlink:href="#DejaVuSans-30" x="95.410156"/>
      </g>
     </g>
    </g>
    <g id="xtick_2">
     <g id="line2d_2">
      <g>
       <use xlink:href="#m89f02fa366" x="140.727273" y="333.490909" style="stroke: #000000; stroke-width: 0.8"/>
      </g>
     </g>
     <g id="text_2">
      <!-- 0.2 -->
      <g transform="translate(132.77571 348.089347)scale(0.1 -0.1)">
       <defs>
        <path id="DejaVuSans-32" d="M 1228 531 
L 3431 531 
L 3431 0 
L 469 0 
L 469 531 
Q 828 903 1448 1529 
Q 2069 2156 2228 2338 
Q 2531 2678 2651 2914 
Q 2772 3150 2772 3378 
Q 2772 3750 2511 3984 
Q 2250 4219 1831 4219 
Q 1534 4219 1204 4116 
Q 875 4013 500 3803 
L 500 4441 
Q 881 4594 1212 4672 
Q 1544 4750 1819 4750 
Q 2544 4750 2975 4387 
Q 3406 4025 3406 3419 
Q 3406 3131 3298 2873 
Q 3191 2616 2906 2266 
Q 2828 2175 2409 1742 
Q 1991 1309 1228 531 
z
" transform="scale(0.015625)"/>
       </defs>
       <use xlink:href="#DejaVuSans-30"/>
       <use xlink:href="#DejaVuSans-2e" x="63.623047"/>
       <use xlink:href="#DejaVuSans-32" x="95.410156"/>
      </g>
     </g>
    </g>
    <g id="xtick_3">
     <g id="line2d_3">
      <g>
       <use xlink:href="#m89f02fa366" x="191.454545" y="333.490909" style="stroke: #000000; stroke-width: 0.8"/>
      </g>
     </g>
     <g id="text_3">
      <!-- 0.4 -->
      <g transform="translate(183.502983 348.089347)scale(0.1 -0.1)">
       <defs>
        <path id="DejaVuSans-34" d="M 2419 4116 
L 825 1625 
L 2419 1625 
L 2419 4116 
z
M 2253 4666 
L 3047 4666 
L 3047 1625 
L 3713 1625 
L 3713 1100 
L 3047 1100 
L 3047 0 
L 2419 0 
L 2419 1100 
L 313 1100 
L 313 1709 
L 2253 4666 
z
" transform="scale(0.015625)"/>
       </defs>
       <use xlink:href="#DejaVuSans-30"/>
       <use xlink:href="#DejaVuSans-2e" x="63.623047"/>
       <use xlink:href="#DejaVuSans-34" x="95.410156"/>
      </g>
     </g>
    </g>
    <g id="xtick_4">
     <g id="line2d_4">
      <g>
       <use xlink:href="#m89f02fa366" x="242.181818" y="333.490909" style="stroke: #000000; stroke-width: 0.8"/>
      </g>
     </g>
     <g id="text_4">
      <!-- 0.6 -->
      <g transform="translate(234.230256 348.089347)scale(0.1 -0.1)">
       <defs>
        <path id="DejaVuSans-36" d="M 2113 2584 
Q 1688 2584 1439 2293 
Q 1191 2003 1191 1497 
Q 1191 994 1439 701 
Q 1688 409 2113 409 
Q 2538 409 2786 701 
Q 3034 994 3034 1497 
Q 3034 2003 2786 2293 
Q 2538 2584 2113 2584 
z
M 3366 4563 
L 3366 3988 
Q 3128 4100 2886 4159 
Q 2644 4219 2406 4219 
Q 1781 4219 1451 3797 
Q 1122 3375 1075 2522 
Q 1259 2794 1537 2939 
Q 1816 3084 2150 3084 
Q 2853 3084 3261 2657 
Q 3669 2231 3669 1497 
Q 3669 778 3244 343 
Q 2819 -91 2113 -91 
Q 1303 -91 875 529 
Q 447 1150 447 2328 
Q 447 3434 972 4092 
Q 1497 4750 2381 4750 
Q 2619 4750 2861 4703 
Q 3103 4656 3366 4563 
z
" transform="scale(0.015625)"/>
       </defs>
       <use xlink:href="#DejaVuSans-30"/>
       <use xlink:href="#DejaVuSans-2e" x="63.623047"/>
       <use xlink:href="#DejaVuSans-36" x="95.410156"/>
      </g>
     </g>
    </g>
    <g id="xtick_5">
     <g id="line2d_5">
      <g>
       <use xlink:href="#m89f02fa366" x="292.909091" y="333.490909" style="stroke: #000000; stroke-width: 0.8"/>
      </g>
     </g>
     <g id="text_5">
      <!-- 0.8 -->
      <g transform="translate(284.957528 348.089347)scale(0.1 -0.1)">
       <defs>
        <path id="DejaVuSans-38" d="M 2034 2216 
Q 1584 2216 1326 1975 
Q 1069 1734 1069 1313 
Q 1069 891 1326 650 
Q 1584 409 2034 409 
Q 2484 409 2743 651 
Q 3003 894 3003 1313 
Q 3003 1734 2745 1975 
Q 2488 2216 2034 2216 
z
M 1403 2484 
Q 997 2584 770 2862 
Q 544 3141 544 3541 
Q 544 4100 942 4425 
Q 1341 4750 2034 4750 
Q 2731 4750 3128 4425 
Q 3525 4100 3525 3541 
Q 3525 3141 3298 2862 
Q 3072 2584 2669 2484 
Q 3125 2378 3379 2068 
Q 3634 1759 3634 1313 
Q 3634 634 3220 271 
Q 2806 -91 2034 -91 
Q 1263 -91 848 271 
Q 434 634 434 1313 
Q 434 1759 690 2068 
Q 947 2378 1403 2484 
z
M 1172 3481 
Q 1172 3119 1398 2916 
Q 1625 2713 2034 2713 
Q 2441 2713 2670 2916 
Q 2900 3119 2900 3481 
Q 2900 3844 2670 4047 
Q 2441 4250 2034 4250 
Q 1625 4250 1398 4047 
Q 1172 3844 1172 3481 
z
" transform="scale(0.015625)"/>
       </defs>
       <use xlink:href="#DejaVuSans-30"/>
       <use xlink:href="#DejaVuSans-2e" x="63.623047"/>
       <use xlink:href="#DejaVuSans-38" x="95.410156"/>
      </g>
     </g>
    </g>
    <g id="xtick_6">
     <g id="line2d_6">
      <g>
       <use xlink:href="#m89f02fa366" x="343.636364" y="333.490909" style="stroke: #000000; stroke-width: 0.8"/>
      </g>
     </g>
     <g id="text_6">
      <!-- 1.0 -->
      <g transform="translate(335.684801 348.089347)scale(0.1 -0.1)">
       <defs>
        <path id="DejaVuSans-31" d="M 794 531 
L 1825 531 
L 1825 4091 
L 703 3866 
L 703 4441 
L 1819 4666 
L 2450 4666 
L 2450 531 
L 3481 531 
L 3481 0 
L 794 0 
L 794 531 
z
" transform="scale(0.015625)"/>
       </defs>
       <use xlink:href="#DejaVuSans-31"/>
       <use xlink:href="#DejaVuSans-2e" x="63.623047"/>
       <use xlink:href="#DejaVuSans-30" x="95.410156"/>
      </g>
     </g>
    </g>
   </g>
   <g id="matplotlib.axis_2">
    <g id="ytick_1">
     <g id="line2d_7">
      <defs>
       <path id="m2de2e546a1" d="M 0 0 
L -3.5 0 
" style="stroke: #000000; stroke-width: 0.8"/>
      </defs>
      <g>
       <use xlink:href="#m2de2e546a1" x="90" y="333.490909" style="stroke: #000000; stroke-width: 0.8"/>
      </g>
     </g>
     <g id="text_7">
      <!-- 0.0 -->
      <g transform="translate(67.096875 337.290128)scale(0.1 -0.1)">
       <use xlink:href="#DejaVuSans-30"/>
       <use xlink:href="#DejaVuSans-2e" x="63.623047"/>
       <use xlink:href="#DejaVuSans-30" x="95.410156"/>
      </g>
     </g>
    </g>
    <g id="ytick_2">
     <g id="line2d_8">
      <g>
       <use xlink:href="#m2de2e546a1" x="90" y="284.072727" style="stroke: #000000; stroke-width: 0.8"/>
      </g>
     </g>
     <g id="text_8">
      <!-- 0.2 -->
      <g transform="translate(67.096875 287.871946)scale(0.1 -0.1)">
       <use xlink:href="#DejaVuSans-30"/>
       <use xlink:href="#DejaVuSans-2e" x="63.623047"/>
       <use xlink:href="#DejaVuSans-32" x="95.410156"/>
      </g>
     </g>
    </g>
    <g id="ytick_3">
     <g id="line2d_9">
      <g>
       <use xlink:href="#m2de2e546a1" x="90" y="234.654545" style="stroke: #000000; stroke-width: 0.8"/>
      </g>
     </g>
     <g id="text_9">
      <!-- 0.4 -->
      <g transform="translate(67.096875 238.453764)scale(0.1 -0.1)">
       <use xlink:href="#DejaVuSans-30"/>
       <use xlink:href="#DejaVuSans-2e" x="63.623047"/>
       <use xlink:href="#DejaVuSans-34" x="95.410156"/>
      </g>
     </g>
    </g>
    <g id="ytick_4">
     <g id="line2d_10">
      <g>
       <use xlink:href="#m2de2e546a1" x="90" y="185.236364" style="stroke: #000000; stroke-width: 0.8"/>
      </g>
     </g>
     <g id="text_10">
      <!-- 0.6 -->
      <g transform="translate(67.096875 189.035582)scale(0.1 -0.1)">
       <use xlink:href="#DejaVuSans-30"/>
       <use xlink:href="#DejaVuSans-2e" x="63.623047"/>
       <use xlink:href="#DejaVuSans-36" x="95.410156"/>
      </g>
     </g>
    </g>
    <g id="ytick_5">
     <g id="line2d_11">
      <g>
       <use xlink:href="#m2de2e546a1" x="90" y="135.818182" style="stroke: #000000; stroke-width: 0.8"/>
      </g>
     </g>
     <g id="text_11">
      <!-- 0.8 -->
      <g transform="translate(67.096875 139.617401)scale(0.1 -0.1)">
       <use xlink:href="#DejaVuSans-30"/>
       <use xlink:href="#DejaVuSans-2e" x="63.623047"/>
       <use xlink:href="#DejaVuSans-38" x="95.410156"/>
      </g>
     </g>
    </g>
    <g id="ytick_6">
     <g id="line2d_12">
      <g>
       <use xlink:href="#m2de2e546a1" x="90" y="86.4" style="stroke: #000000; stroke-width: 0.8"/>
      </g>
     </g>
     <g id="text_12">
      <!-- 1.0 -->
      <g transform="translate(67.096875 90.199219)scale(0.1 -0.1)">
       <use xlink:href="#DejaVuSans-31"/>
       <use xlink:href="#DejaVuSans-2e" x="63.623047"/>
       <use xlink:href="#DejaVuSans-30" x="95.410156"/>
      </g>
     </g>
    </g>
   </g>
   <g id="patch_3">
    <path d="M 90 333.490909 
L 90 86.4 
" style="fill: none; stroke: #000000; stroke-width: 0.8; stroke-linejoin: miter; stroke-linecap: square"/>
   </g>
   <g id="patch_4">
    <path d="M 343.636364 333.490909 
L 343.636364 86.4 
" style="fill: none; stroke: #000000; stroke-width: 0.8; stroke-linejoin: miter; stroke-linecap: square"/>
   </g>
   <g id="patch_5">
    <path d="M 90 333.490909 
L 343.636364 333.490909 
" style="fill: none; stroke: #000000; stroke-width: 0.8; stroke-linejoin: miter; stroke-linecap: square"/>
   </g>
   <g id="patch_6">
    <path d="M 90 86.4 
L 343.636364 86.4 
" style="fill: none; stroke: #000000; stroke-width: 0.8; stroke-linejoin: miter; stroke-linecap: square"/>
   </g>
  </g>
  <g id="axes_2">
   <g id="patch_7">
    <path d="M 394.363636 333.490909 
L 648 333.490909 
L 648 86.4 
L 394.363636 86.4 
z
" style="fill: #ffffff"/>
   </g>
   <g id="PolyCollection_1">
    <defs>
     <path id="m0364f5fc24" d="M 405.892562 -529.786485 
L 405.892562 -529.786485 
L 407.342741 -530.455147 
L 408.792921 -532.420877 
L 410.2431 -536.507575 
L 411.693279 -542.592342 
L 413.143459 -548.54949 
L 414.593638 -534.895527 
L 416.043817 -548.54949 
L 417.493997 -542.592342 
L 418.944176 -536.501531 
L 420.394355 -532.373204 
L 421.844535 -530.193883 
L 423.294714 -528.674069 
L 424.744893 -526.026303 
L 426.195073 -520.324526 
L 427.645252 -510.576374 
L 429.095431 -498.662497 
L 430.54561 -476.164272 
L 431.99579 -476.468982 
L 433.445969 -496.838439 
L 434.896148 -508.71324 
L 436.346328 -519.065952 
L 437.796507 -525.374966 
L 439.246686 -528.217282 
L 440.696866 -529.186469 
L 442.147045 -529.439546 
L 443.597224 -529.491199 
L 445.047404 -529.499461 
L 446.497583 -529.499461 
L 447.947762 -529.499461 
L 449.397942 -529.499461 
L 450.848121 -529.499461 
L 452.2983 -529.499461 
L 453.74848 -529.499461 
L 455.198659 -529.499461 
L 456.648838 -529.499461 
L 458.099018 -529.499461 
L 459.549197 -529.499461 
L 460.999376 -529.499461 
L 462.449556 -529.499461 
L 463.899735 -529.499461 
L 465.349914 -529.499461 
L 466.800094 -529.499461 
L 468.250273 -529.499461 
L 469.700452 -529.499461 
L 471.150632 -529.504499 
L 472.600811 -529.538604 
L 474.05099 -529.712715 
L 475.501169 -530.402799 
L 476.951349 -532.5415 
L 478.401528 -537.665318 
L 479.851707 -547.106168 
L 481.301887 -560.273216 
L 482.752066 -564.171802 
L 484.202245 -571.496764 
L 485.652425 -573.435285 
L 487.102604 -578.601585 
L 488.552783 -560.479313 
L 490.002963 -556.80384 
L 491.453142 -546.20541 
L 492.903321 -539.033694 
L 494.353501 -535.806258 
L 495.80368 -535.156886 
L 497.253859 -525.236235 
L 498.704039 -534.226796 
L 500.154218 -532.679613 
L 501.604397 -530.965866 
L 503.054577 -529.137423 
L 504.504756 -526.15689 
L 505.954935 -520.207678 
L 507.405115 -510.101358 
L 508.855294 -497.257261 
L 510.305473 -475.608847 
L 511.755653 -471.512931 
L 513.205832 -478.850983 
L 514.656011 -480.293389 
L 516.106191 -471.923854 
L 517.55637 -475.708587 
L 519.006549 -492.562641 
L 520.456729 -495.067634 
L 521.906908 -492.562061 
L 523.357087 -472.143652 
L 524.807266 -470.446435 
L 526.257446 -477.90685 
L 527.707625 -463.476254 
L 529.157804 -462.475791 
L 530.607984 -471.21458 
L 532.058163 -480.723172 
L 533.508342 -504.824566 
L 534.958522 -515.890179 
L 536.408701 -523.341673 
L 537.85888 -527.238477 
L 539.30906 -528.83169 
L 540.759239 -529.3425 
L 542.209418 -529.470928 
L 543.659598 -529.495634 
L 545.109777 -529.499461 
L 546.559956 -529.499461 
L 548.010136 -529.499461 
L 549.460315 -529.500852 
L 550.910494 -529.508531 
L 552.360674 -529.545524 
L 553.810853 -529.681646 
L 555.261032 -530.060632 
L 556.711212 -530.845641 
L 558.161391 -532.008506 
L 559.61157 -533.119951 
L 561.06175 -522.15819 
L 562.511929 -532.379296 
L 563.962108 -529.606142 
L 565.412288 -525.037888 
L 566.862467 -519.055396 
L 568.312646 -513.049076 
L 569.762826 -495.567385 
L 571.213005 -506.442457 
L 572.663184 -504.365507 
L 574.113363 -501.135958 
L 575.563543 -487.315952 
L 577.013722 -493.777366 
L 578.463901 -491.279303 
L 579.914081 -483.096299 
L 581.36426 -492.569853 
L 582.814439 -492.42753 
L 584.264619 -507.459169 
L 585.714798 -516.318655 
L 587.164977 -522.813218 
L 588.615157 -525.986704 
L 590.065336 -526.059665 
L 591.515515 -523.647234 
L 592.965695 -519.571978 
L 594.415874 -508.089414 
L 595.866053 -512.37633 
L 597.316233 -506.343999 
L 598.766412 -515.968111 
L 600.216591 -520.764792 
L 601.666771 -525.00765 
L 603.11695 -527.673397 
L 604.567129 -528.915761 
L 606.017309 -529.35328 
L 607.467488 -529.471101 
L 608.917667 -529.495112 
L 610.367847 -529.499461 
L 611.818026 -529.506059 
L 613.268205 -529.542485 
L 614.718385 -529.717959 
L 616.168564 -530.363637 
L 617.618743 -532.16131 
L 619.068923 -535.884906 
L 620.519102 -541.429043 
L 621.969281 -546.856901 
L 623.41946 -537.658476 
L 624.86964 -546.877735 
L 626.319819 -541.534845 
L 627.769998 -536.306556 
L 629.220178 -533.471076 
L 630.670357 -533.561426 
L 632.120536 -535.913007 
L 633.570716 -539.236312 
L 635.020895 -534.237304 
L 636.471074 -543.680948 
L 636.471074 -543.680948 
L 636.471074 -543.680948 
L 635.020895 -550.006775 
L 633.570716 -539.236312 
L 632.120536 -535.913007 
L 630.670357 -533.561426 
L 629.220178 -533.471076 
L 627.769998 -536.306556 
L 626.319819 -541.534845 
L 624.86964 -546.877735 
L 623.41946 -560.683949 
L 621.969281 -546.856901 
L 620.519102 -541.429043 
L 619.068923 -535.884906 
L 617.618743 -532.16131 
L 616.168564 -530.363637 
L 614.718385 -529.717959 
L 613.268205 -529.542485 
L 611.818026 -529.506059 
L 610.367847 -529.499461 
L 608.917667 -529.495112 
L 607.467488 -529.471101 
L 606.017309 -529.35328 
L 604.567129 -528.915761 
L 603.11695 -527.673397 
L 601.666771 -525.00765 
L 600.216591 -520.764792 
L 598.766412 -515.968111 
L 597.316233 -518.915669 
L 595.866053 -512.37633 
L 594.415874 -522.294392 
L 592.965695 -519.571978 
L 591.515515 -523.647234 
L 590.065336 -526.059665 
L 588.615157 -525.986704 
L 587.164977 -522.813218 
L 585.714798 -516.318655 
L 584.264619 -507.459169 
L 582.814439 -504.864345 
L 581.36426 -492.569853 
L 579.914081 -497.700481 
L 578.463901 -491.279303 
L 577.013722 -493.777366 
L 575.563543 -507.142964 
L 574.113363 -501.135958 
L 572.663184 -504.365507 
L 571.213005 -506.442457 
L 569.762826 -521.975826 
L 568.312646 -513.049076 
L 566.862467 -519.055396 
L 565.412288 -525.037888 
L 563.962108 -529.606142 
L 562.511929 -532.379296 
L 561.06175 -544.739629 
L 559.61157 -533.119951 
L 558.161391 -532.008506 
L 556.711212 -530.845641 
L 555.261032 -530.060632 
L 553.810853 -529.681646 
L 552.360674 -529.545524 
L 550.910494 -529.508531 
L 549.460315 -529.500852 
L 548.010136 -529.499461 
L 546.559956 -529.499461 
L 545.109777 -529.499461 
L 543.659598 -529.495634 
L 542.209418 -529.470928 
L 540.759239 -529.3425 
L 539.30906 -528.83169 
L 537.85888 -527.238477 
L 536.408701 -523.341673 
L 534.958522 -515.890179 
L 533.508342 -504.824566 
L 532.058163 -503.885275 
L 530.607984 -492.821693 
L 529.157804 -490.824206 
L 527.707625 -488.423279 
L 526.257446 -477.90685 
L 524.807266 -492.586943 
L 523.357087 -501.633545 
L 521.906908 -492.562061 
L 520.456729 -495.067634 
L 519.006549 -492.562641 
L 517.55637 -498.900729 
L 516.106191 -493.841509 
L 514.656011 -480.293389 
L 513.205832 -478.850983 
L 511.755653 -488.086769 
L 510.305473 -496.185466 
L 508.855294 -497.257261 
L 507.405115 -510.101358 
L 505.954935 -520.207678 
L 504.504756 -526.15689 
L 503.054577 -529.137423 
L 501.604397 -530.965866 
L 500.154218 -532.679613 
L 498.704039 -534.226796 
L 497.253859 -544.865815 
L 495.80368 -535.156886 
L 494.353501 -535.806258 
L 492.903321 -539.033694 
L 491.453142 -546.20541 
L 490.002963 -556.80384 
L 488.552783 -576.655804 
L 487.102604 -578.601585 
L 485.652425 -594.674493 
L 484.202245 -593.60921 
L 482.752066 -583.179878 
L 481.301887 -560.273216 
L 479.851707 -547.106168 
L 478.401528 -537.665318 
L 476.951349 -532.5415 
L 475.501169 -530.402799 
L 474.05099 -529.712715 
L 472.600811 -529.538604 
L 471.150632 -529.504499 
L 469.700452 -529.499461 
L 468.250273 -529.499461 
L 466.800094 -529.499461 
L 465.349914 -529.499461 
L 463.899735 -529.499461 
L 462.449556 -529.499461 
L 460.999376 -529.499461 
L 459.549197 -529.499461 
L 458.099018 -529.499461 
L 456.648838 -529.499461 
L 455.198659 -529.499461 
L 453.74848 -529.499461 
L 452.2983 -529.499461 
L 450.848121 -529.499461 
L 449.397942 -529.499461 
L 447.947762 -529.499461 
L 446.497583 -529.499461 
L 445.047404 -529.499461 
L 443.597224 -529.491199 
L 442.147045 -529.439546 
L 440.696866 -529.186469 
L 439.246686 -528.217282 
L 437.796507 -525.374966 
L 436.346328 -519.065952 
L 434.896148 -508.71324 
L 433.445969 -496.838439 
L 431.99579 -501.476214 
L 430.54561 -503.334247 
L 429.095431 -498.662497 
L 427.645252 -510.576374 
L 426.195073 -520.324526 
L 424.744893 -526.026303 
L 423.294714 -528.674069 
L 421.844535 -530.193883 
L 420.394355 -532.373204 
L 418.944176 -536.501531 
L 417.493997 -542.592342 
L 416.043817 -548.54949 
L 414.593638 -567.276417 
L 413.143459 -548.54949 
L 411.693279 -542.592342 
L 410.2431 -536.507575 
L 408.792921 -532.420877 
L 407.342741 -530.455147 
L 405.892562 -529.786485 
z
" style="stroke: #9467bd; stroke-opacity: 0.2"/>
    </defs>
    <g clip-path="url(#pd0c2ae1090)">
     <use xlink:href="#m0364f5fc24" x="0" y="720" style="fill: #9467bd; fill-opacity: 0.2; stroke: #9467bd; stroke-opacity: 0.2"/>
    </g>
   </g>
   <g id="PolyCollection_2">
    <defs>
     <path id="medf27738fa" d="M 405.892562 -529.499461 
L 405.892562 -529.499461 
L 407.342741 -529.499461 
L 408.792921 -529.499461 
L 410.2431 -529.499461 
L 411.693279 -529.499461 
L 413.143459 -529.499461 
L 414.593638 -529.499461 
L 416.043817 -529.499461 
L 417.493997 -529.499461 
L 418.944176 -529.499461 
L 420.394355 -529.499461 
L 421.844535 -529.499461 
L 423.294714 -529.499461 
L 424.744893 -529.499461 
L 426.195073 -529.499461 
L 427.645252 -529.499461 
L 429.095431 -529.499461 
L 430.54561 -529.499461 
L 431.99579 -529.499461 
L 433.445969 -529.499461 
L 434.896148 -529.499461 
L 436.346328 -529.499461 
L 437.796507 -529.499461 
L 439.246686 -529.499461 
L 440.696866 -529.499461 
L 442.147045 -529.499461 
L 443.597224 -529.499461 
L 445.047404 -529.499461 
L 446.497583 -529.499461 
L 447.947762 -529.499461 
L 449.397942 -529.499461 
L 450.848121 -529.499461 
L 452.2983 -529.499461 
L 453.74848 -529.499461 
L 455.198659 -529.499461 
L 456.648838 -529.499461 
L 458.099018 -529.499461 
L 459.549197 -529.499461 
L 460.999376 -529.499461 
L 462.449556 -529.499461 
L 463.899735 -529.499461 
L 465.349914 -529.499461 
L 466.800094 -529.499461 
L 468.250273 -529.499461 
L 469.700452 -529.499461 
L 471.150632 -529.499461 
L 472.600811 -529.499461 
L 474.05099 -529.499461 
L 475.501169 -529.499461 
L 476.951349 -529.499461 
L 478.401528 -529.499461 
L 479.851707 -529.499461 
L 481.301887 -529.499461 
L 482.752066 -529.499461 
L 484.202245 -529.499461 
L 485.652425 -529.499461 
L 487.102604 -529.499461 
L 488.552783 -529.499461 
L 490.002963 -529.499461 
L 491.453142 -529.499461 
L 492.903321 -529.499461 
L 494.353501 -529.499461 
L 495.80368 -529.499461 
L 497.253859 -529.499461 
L 498.704039 -529.499461 
L 500.154218 -529.499461 
L 501.604397 -529.499461 
L 503.054577 -529.499461 
L 504.504756 -529.499461 
L 505.954935 -529.499461 
L 507.405115 -529.499461 
L 508.855294 -529.499461 
L 510.305473 -529.499461 
L 511.755653 -529.499461 
L 513.205832 -529.499461 
L 514.656011 -529.499461 
L 516.106191 -529.499461 
L 517.55637 -529.499461 
L 519.006549 -529.499461 
L 520.456729 -529.499461 
L 521.906908 -529.499461 
L 523.357087 -529.499461 
L 524.807266 -529.499461 
L 526.257446 -529.499461 
L 527.707625 -529.499461 
L 529.157804 -529.499461 
L 530.607984 -529.499461 
L 532.058163 -529.499461 
L 533.508342 -529.499461 
L 534.958522 -529.499461 
L 536.408701 -529.499461 
L 537.85888 -529.499461 
L 539.30906 -529.499461 
L 540.759239 -529.499461 
L 542.209418 -529.499461 
L 543.659598 -529.499461 
L 545.109777 -529.499461 
L 546.559956 -529.499461 
L 548.010136 -529.499461 
L 549.460315 -529.499461 
L 550.910494 -529.499461 
L 552.360674 -529.499461 
L 553.810853 -529.499461 
L 555.261032 -529.499461 
L 556.711212 -529.499461 
L 558.161391 -529.499461 
L 559.61157 -529.499461 
L 561.06175 -529.499461 
L 562.511929 -529.499461 
L 563.962108 -529.499461 
L 565.412288 -529.499461 
L 566.862467 -529.499461 
L 568.312646 -529.499461 
L 569.762826 -529.499461 
L 571.213005 -529.499461 
L 572.663184 -529.499461 
L 574.113363 -529.499461 
L 575.563543 -529.499461 
L 577.013722 -529.499461 
L 578.463901 -529.499461 
L 579.914081 -529.499461 
L 581.36426 -529.499461 
L 582.814439 -529.499461 
L 584.264619 -529.499461 
L 585.714798 -529.499461 
L 587.164977 -529.499461 
L 588.615157 -529.499461 
L 590.065336 -529.499461 
L 591.515515 -529.499461 
L 592.965695 -529.499461 
L 594.415874 -529.499461 
L 595.866053 -529.499461 
L 597.316233 -529.499461 
L 598.766412 -529.499461 
L 600.216591 -529.499461 
L 601.666771 -529.499461 
L 603.11695 -529.499461 
L 604.567129 -529.499461 
L 606.017309 -529.499461 
L 607.467488 -529.499461 
L 608.917667 -529.499461 
L 610.367847 -529.499461 
L 611.818026 -529.499461 
L 613.268205 -529.499461 
L 614.718385 -529.499461 
L 616.168564 -529.499461 
L 617.618743 -529.499461 
L 619.068923 -529.499461 
L 620.519102 -529.499461 
L 621.969281 -529.499461 
L 623.41946 -529.499461 
L 624.86964 -529.499461 
L 626.319819 -529.499461 
L 627.769998 -529.499461 
L 629.220178 -529.499461 
L 630.670357 -529.499461 
L 632.120536 -529.499461 
L 633.570716 -529.499461 
L 635.020895 -529.499461 
L 636.471074 -529.499461 
L 636.471074 -529.499461 
L 636.471074 -529.499461 
L 635.020895 -529.499461 
L 633.570716 -529.499461 
L 632.120536 -529.499461 
L 630.670357 -529.499461 
L 629.220178 -529.499461 
L 627.769998 -529.499461 
L 626.319819 -529.499461 
L 624.86964 -529.499461 
L 623.41946 -529.499461 
L 621.969281 -529.499461 
L 620.519102 -529.499461 
L 619.068923 -529.499461 
L 617.618743 -529.499461 
L 616.168564 -529.499461 
L 614.718385 -529.499461 
L 613.268205 -529.499461 
L 611.818026 -529.499461 
L 610.367847 -529.499461 
L 608.917667 -529.499461 
L 607.467488 -529.499461 
L 606.017309 -529.499461 
L 604.567129 -529.499461 
L 603.11695 -529.499461 
L 601.666771 -529.499461 
L 600.216591 -529.499461 
L 598.766412 -529.499461 
L 597.316233 -529.499461 
L 595.866053 -529.499461 
L 594.415874 -529.499461 
L 592.965695 -529.499461 
L 591.515515 -529.499461 
L 590.065336 -529.499461 
L 588.615157 -529.499461 
L 587.164977 -529.499461 
L 585.714798 -529.499461 
L 584.264619 -529.499461 
L 582.814439 -529.499461 
L 581.36426 -529.499461 
L 579.914081 -529.499461 
L 578.463901 -529.499461 
L 577.013722 -529.499461 
L 575.563543 -529.499461 
L 574.113363 -529.499461 
L 572.663184 -529.499461 
L 571.213005 -529.499461 
L 569.762826 -529.499461 
L 568.312646 -529.499461 
L 566.862467 -529.499461 
L 565.412288 -529.499461 
L 563.962108 -529.499461 
L 562.511929 -529.499461 
L 561.06175 -529.499461 
L 559.61157 -529.499461 
L 558.161391 -529.499461 
L 556.711212 -529.499461 
L 555.261032 -529.499461 
L 553.810853 -529.499461 
L 552.360674 -529.499461 
L 550.910494 -529.499461 
L 549.460315 -529.499461 
L 548.010136 -529.499461 
L 546.559956 -529.499461 
L 545.109777 -529.499461 
L 543.659598 -529.499461 
L 542.209418 -529.499461 
L 540.759239 -529.499461 
L 539.30906 -529.499461 
L 537.85888 -529.499461 
L 536.408701 -529.499461 
L 534.958522 -529.499461 
L 533.508342 -529.499461 
L 532.058163 -529.499461 
L 530.607984 -529.499461 
L 529.157804 -529.499461 
L 527.707625 -529.499461 
L 526.257446 -529.499461 
L 524.807266 -529.499461 
L 523.357087 -529.499461 
L 521.906908 -529.499461 
L 520.456729 -529.499461 
L 519.006549 -529.499461 
L 517.55637 -529.499461 
L 516.106191 -529.499461 
L 514.656011 -529.499461 
L 513.205832 -529.499461 
L 511.755653 -529.499461 
L 510.305473 -529.499461 
L 508.855294 -529.499461 
L 507.405115 -529.499461 
L 505.954935 -529.499461 
L 504.504756 -529.499461 
L 503.054577 -529.499461 
L 501.604397 -529.499461 
L 500.154218 -529.499461 
L 498.704039 -529.499461 
L 497.253859 -529.499461 
L 495.80368 -529.499461 
L 494.353501 -529.499461 
L 492.903321 -529.499461 
L 491.453142 -529.499461 
L 490.002963 -529.499461 
L 488.552783 -529.499461 
L 487.102604 -529.499461 
L 485.652425 -529.499461 
L 484.202245 -529.499461 
L 482.752066 -529.499461 
L 481.301887 -529.499461 
L 479.851707 -529.499461 
L 478.401528 -529.499461 
L 476.951349 -529.499461 
L 475.501169 -529.499461 
L 474.05099 -529.499461 
L 472.600811 -529.499461 
L 471.150632 -529.499461 
L 469.700452 -529.499461 
L 468.250273 -529.499461 
L 466.800094 -529.499461 
L 465.349914 -529.499461 
L 463.899735 -529.499461 
L 462.449556 -529.499461 
L 460.999376 -529.499461 
L 459.549197 -529.499461 
L 458.099018 -529.499461 
L 456.648838 -529.499461 
L 455.198659 -529.499461 
L 453.74848 -529.499461 
L 452.2983 -529.499461 
L 450.848121 -529.499461 
L 449.397942 -529.499461 
L 447.947762 -529.499461 
L 446.497583 -529.499461 
L 445.047404 -529.499461 
L 443.597224 -529.499461 
L 442.147045 -529.499461 
L 440.696866 -529.499461 
L 439.246686 -529.499461 
L 437.796507 -529.499461 
L 436.346328 -529.499461 
L 434.896148 -529.499461 
L 433.445969 -529.499461 
L 431.99579 -529.499461 
L 430.54561 -529.499461 
L 429.095431 -529.499461 
L 427.645252 -529.499461 
L 426.195073 -529.499461 
L 424.744893 -529.499461 
L 423.294714 -529.499461 
L 421.844535 -529.499461 
L 420.394355 -529.499461 
L 418.944176 -529.499461 
L 417.493997 -529.499461 
L 416.043817 -529.499461 
L 414.593638 -529.499461 
L 413.143459 -529.499461 
L 411.693279 -529.499461 
L 410.2431 -529.499461 
L 408.792921 -529.499461 
L 407.342741 -529.499461 
L 405.892562 -529.499461 
z
" style="stroke: #1f77b4; stroke-opacity: 0.2"/>
    </defs>
    <g clip-path="url(#pd0c2ae1090)">
     <use xlink:href="#medf27738fa" x="0" y="720" style="fill: #1f77b4; fill-opacity: 0.2; stroke: #1f77b4; stroke-opacity: 0.2"/>
    </g>
   </g>
   <g id="PolyCollection_3">
    <defs>
     <path id="m23967a5f11" d="M 405.892562 -529.499461 
L 405.892562 -529.499461 
L 407.342741 -529.499461 
L 408.792921 -529.499461 
L 410.2431 -529.499461 
L 411.693279 -529.499461 
L 413.143459 -529.499461 
L 414.593638 -529.499461 
L 416.043817 -529.499461 
L 417.493997 -529.499461 
L 418.944176 -529.499461 
L 420.394355 -529.499461 
L 421.844535 -529.499461 
L 423.294714 -529.499461 
L 424.744893 -529.499461 
L 426.195073 -529.499461 
L 427.645252 -529.499461 
L 429.095431 -529.499461 
L 430.54561 -529.499461 
L 431.99579 -529.499461 
L 433.445969 -529.499461 
L 434.896148 -529.499461 
L 436.346328 -529.499461 
L 437.796507 -529.499461 
L 439.246686 -529.499461 
L 440.696866 -529.499461 
L 442.147045 -529.499461 
L 443.597224 -529.499461 
L 445.047404 -529.499461 
L 446.497583 -529.499461 
L 447.947762 -529.499461 
L 449.397942 -529.499461 
L 450.848121 -529.499461 
L 452.2983 -529.499461 
L 453.74848 -529.499461 
L 455.198659 -529.499461 
L 456.648838 -529.499461 
L 458.099018 -529.499461 
L 459.549197 -529.499461 
L 460.999376 -529.499461 
L 462.449556 -529.499461 
L 463.899735 -529.499461 
L 465.349914 -529.499461 
L 466.800094 -529.499461 
L 468.250273 -529.499461 
L 469.700452 -529.499461 
L 471.150632 -529.499461 
L 472.600811 -529.499461 
L 474.05099 -529.499461 
L 475.501169 -529.499461 
L 476.951349 -529.499461 
L 478.401528 -529.499461 
L 479.851707 -529.499461 
L 481.301887 -529.499461 
L 482.752066 -529.510833 
L 484.202245 -529.573617 
L 485.652425 -529.876056 
L 487.102604 -530.988926 
L 488.552783 -534.087336 
L 490.002963 -540.5052 
L 491.453142 -550.068545 
L 492.903321 -559.472568 
L 494.353501 -537.002948 
L 495.80368 -560.63358 
L 497.253859 -553.99867 
L 498.704039 -550.530134 
L 500.154218 -554.20458 
L 501.604397 -562.85285 
L 503.054577 -552.143707 
L 504.504756 -556.946392 
L 505.954935 -560.411683 
L 507.405115 -548.633 
L 508.855294 -538.86371 
L 510.305473 -533.118277 
L 511.755653 -530.602314 
L 513.205832 -529.764127 
L 514.656011 -529.549402 
L 516.106191 -529.505945 
L 517.55637 -529.499461 
L 519.006549 -529.499461 
L 520.456729 -529.499461 
L 521.906908 -529.499461 
L 523.357087 -529.499461 
L 524.807266 -529.499461 
L 526.257446 -529.499461 
L 527.707625 -529.499461 
L 529.157804 -529.499461 
L 530.607984 -529.499461 
L 532.058163 -529.499461 
L 533.508342 -529.499461 
L 534.958522 -529.499461 
L 536.408701 -529.499461 
L 537.85888 -529.499461 
L 539.30906 -529.499461 
L 540.759239 -529.499461 
L 542.209418 -529.499461 
L 543.659598 -529.499461 
L 545.109777 -529.499461 
L 546.559956 -529.499461 
L 548.010136 -529.499461 
L 549.460315 -529.499461 
L 550.910494 -529.499461 
L 552.360674 -529.499461 
L 553.810853 -529.499461 
L 555.261032 -529.499461 
L 556.711212 -529.507722 
L 558.161391 -529.553334 
L 559.61157 -529.773054 
L 561.06175 -530.583385 
L 562.511929 -532.853489 
L 563.962108 -537.6145 
L 565.412288 -544.975373 
L 566.862467 -553.161079 
L 568.312646 -542.187516 
L 569.762826 -563.564092 
L 571.213005 -566.762523 
L 572.663184 -563.946906 
L 574.113363 -556.426102 
L 575.563543 -574.890509 
L 577.013722 -573.05768 
L 578.463901 -549.100962 
L 579.914081 -558.650666 
L 581.36426 -548.133235 
L 582.814439 -539.231481 
L 584.264619 -533.925517 
L 585.714798 -532.273908 
L 587.164977 -533.432699 
L 588.615157 -536.315901 
L 590.065336 -539.335767 
L 591.515515 -526.148663 
L 592.965695 -539.326158 
L 594.415874 -536.253244 
L 595.866053 -533.12073 
L 597.316233 -531.047055 
L 598.766412 -530.194996 
L 600.216591 -530.439065 
L 601.666771 -532.036983 
L 603.11695 -535.531964 
L 604.567129 -540.762681 
L 606.017309 -545.88735 
L 607.467488 -524.159331 
L 608.917667 -545.88735 
L 610.367847 -540.762681 
L 611.818026 -535.528228 
L 613.268205 -532.012625 
L 614.718385 -530.315366 
L 616.168564 -529.705754 
L 617.618743 -529.536298 
L 619.068923 -529.481016 
L 620.519102 -529.374155 
L 621.969281 -529.003869 
L 623.41946 -527.97293 
L 624.86964 -525.837505 
L 626.319819 -522.658027 
L 627.769998 -519.545234 
L 629.220178 -507.410502 
L 630.670357 -519.545234 
L 632.120536 -522.658027 
L 633.570716 -525.833721 
L 635.020895 -527.948256 
L 636.471074 -528.878564 
L 636.471074 -528.878564 
L 636.471074 -528.878564 
L 635.020895 -527.948256 
L 633.570716 -525.833721 
L 632.120536 -522.658027 
L 630.670357 -519.545234 
L 629.220178 -529.029185 
L 627.769998 -519.545234 
L 626.319819 -522.658027 
L 624.86964 -525.837505 
L 623.41946 -527.97293 
L 621.969281 -529.003869 
L 620.519102 -529.374155 
L 619.068923 -529.481016 
L 617.618743 -529.536298 
L 616.168564 -529.705754 
L 614.718385 -530.315366 
L 613.268205 -532.012625 
L 611.818026 -535.528228 
L 610.367847 -540.762681 
L 608.917667 -545.88735 
L 607.467488 -571.979413 
L 606.017309 -545.88735 
L 604.567129 -540.762681 
L 603.11695 -535.531964 
L 601.666771 -532.036983 
L 600.216591 -530.439065 
L 598.766412 -530.194996 
L 597.316233 -531.047055 
L 595.866053 -533.12073 
L 594.415874 -536.253244 
L 592.965695 -539.326158 
L 591.515515 -555.120472 
L 590.065336 -539.335767 
L 588.615157 -536.315901 
L 587.164977 -533.432699 
L 585.714798 -532.273908 
L 584.264619 -533.925517 
L 582.814439 -539.231481 
L 581.36426 -548.133235 
L 579.914081 -558.650666 
L 578.463901 -586.147564 
L 577.013722 -573.05768 
L 575.563543 -574.890509 
L 574.113363 -591.023439 
L 572.663184 -576.984392 
L 571.213005 -566.762523 
L 569.762826 -563.564092 
L 568.312646 -576.995641 
L 566.862467 -553.161079 
L 565.412288 -544.975373 
L 563.962108 -537.6145 
L 562.511929 -532.853489 
L 561.06175 -530.583385 
L 559.61157 -529.773054 
L 558.161391 -529.553334 
L 556.711212 -529.507722 
L 555.261032 -529.499461 
L 553.810853 -529.499461 
L 552.360674 -529.499461 
L 550.910494 -529.499461 
L 549.460315 -529.499461 
L 548.010136 -529.499461 
L 546.559956 -529.499461 
L 545.109777 -529.499461 
L 543.659598 -529.499461 
L 542.209418 -529.499461 
L 540.759239 -529.499461 
L 539.30906 -529.499461 
L 537.85888 -529.499461 
L 536.408701 -529.499461 
L 534.958522 -529.499461 
L 533.508342 -529.499461 
L 532.058163 -529.499461 
L 530.607984 -529.499461 
L 529.157804 -529.499461 
L 527.707625 -529.499461 
L 526.257446 -529.499461 
L 524.807266 -529.499461 
L 523.357087 -529.499461 
L 521.906908 -529.499461 
L 520.456729 -529.499461 
L 519.006549 -529.499461 
L 517.55637 -529.499461 
L 516.106191 -529.505945 
L 514.656011 -529.549402 
L 513.205832 -529.764127 
L 511.755653 -530.602314 
L 510.305473 -533.118277 
L 508.855294 -538.86371 
L 507.405115 -548.633 
L 505.954935 -560.411683 
L 504.504756 -581.140881 
L 503.054577 -587.368576 
L 501.604397 -562.85285 
L 500.154218 -554.20458 
L 498.704039 -550.530134 
L 497.253859 -553.99867 
L 495.80368 -560.63358 
L 494.353501 -590.387706 
L 492.903321 -559.472568 
L 491.453142 -550.068545 
L 490.002963 -540.5052 
L 488.552783 -534.087336 
L 487.102604 -530.988926 
L 485.652425 -529.876056 
L 484.202245 -529.573617 
L 482.752066 -529.510833 
L 481.301887 -529.499461 
L 479.851707 -529.499461 
L 478.401528 -529.499461 
L 476.951349 -529.499461 
L 475.501169 -529.499461 
L 474.05099 -529.499461 
L 472.600811 -529.499461 
L 471.150632 -529.499461 
L 469.700452 -529.499461 
L 468.250273 -529.499461 
L 466.800094 -529.499461 
L 465.349914 -529.499461 
L 463.899735 -529.499461 
L 462.449556 -529.499461 
L 460.999376 -529.499461 
L 459.549197 -529.499461 
L 458.099018 -529.499461 
L 456.648838 -529.499461 
L 455.198659 -529.499461 
L 453.74848 -529.499461 
L 452.2983 -529.499461 
L 450.848121 -529.499461 
L 449.397942 -529.499461 
L 447.947762 -529.499461 
L 446.497583 -529.499461 
L 445.047404 -529.499461 
L 443.597224 -529.499461 
L 442.147045 -529.499461 
L 440.696866 -529.499461 
L 439.246686 -529.499461 
L 437.796507 -529.499461 
L 436.346328 -529.499461 
L 434.896148 -529.499461 
L 433.445969 -529.499461 
L 431.99579 -529.499461 
L 430.54561 -529.499461 
L 429.095431 -529.499461 
L 427.645252 -529.499461 
L 426.195073 -529.499461 
L 424.744893 -529.499461 
L 423.294714 -529.499461 
L 421.844535 -529.499461 
L 420.394355 -529.499461 
L 418.944176 -529.499461 
L 417.493997 -529.499461 
L 416.043817 -529.499461 
L 414.593638 -529.499461 
L 413.143459 -529.499461 
L 411.693279 -529.499461 
L 410.2431 -529.499461 
L 408.792921 -529.499461 
L 407.342741 -529.499461 
L 405.892562 -529.499461 
z
" style="stroke: #d62728; stroke-opacity: 0.2"/>
    </defs>
    <g clip-path="url(#pd0c2ae1090)">
     <use xlink:href="#m23967a5f11" x="0" y="720" style="fill: #d62728; fill-opacity: 0.2; stroke: #d62728; stroke-opacity: 0.2"/>
    </g>
   </g>
   <g id="PolyCollection_4">
    <defs>
     <path id="mb304588e2e" d="M 405.892562 -462.940922 
L 405.892562 -447.396828 
L 407.342741 -434.757391 
L 408.792921 -423.671175 
L 410.2431 -403.288379 
L 411.693279 -397.740496 
L 413.143459 -404.301686 
L 414.593638 -429.885571 
L 416.043817 -434.159535 
L 417.493997 -462.838306 
L 418.944176 -492.132774 
L 420.394355 -511.45456 
L 421.844535 -529.06683 
L 423.294714 -546.560518 
L 424.744893 -564.757641 
L 426.195073 -569.313919 
L 427.645252 -580.242959 
L 429.095431 -576.41562 
L 430.54561 -571.696467 
L 431.99579 -558.291168 
L 433.445969 -552.161082 
L 434.896148 -556.838668 
L 436.346328 -570.473486 
L 437.796507 -579.651328 
L 439.246686 -591.077172 
L 440.696866 -597.606532 
L 442.147045 -600.879879 
L 443.597224 -594.15514 
L 445.047404 -582.722208 
L 446.497583 -569.512993 
L 447.947762 -569.383701 
L 449.397942 -562.230747 
L 450.848121 -548.736256 
L 452.2983 -549.452228 
L 453.74848 -541.494176 
L 455.198659 -533.23083 
L 456.648838 -524.384777 
L 458.099018 -513.463047 
L 459.549197 -500.053752 
L 460.999376 -474.468015 
L 462.449556 -463.707848 
L 463.899735 -456.078223 
L 465.349914 -462.384769 
L 466.800094 -462.55487 
L 468.250273 -467.135319 
L 469.700452 -470.99465 
L 471.150632 -476.416209 
L 472.600811 -493.699263 
L 474.05099 -493.185563 
L 475.501169 -513.793603 
L 476.951349 -521.069038 
L 478.401528 -525.501569 
L 479.851707 -527.23522 
L 481.301887 -526.329533 
L 482.752066 -522.291238 
L 484.202245 -514.412611 
L 485.652425 -502.714513 
L 487.102604 -479.188708 
L 488.552783 -474.523703 
L 490.002963 -453.7365 
L 491.453142 -449.635083 
L 492.903321 -455.581703 
L 494.353501 -470.288956 
L 495.80368 -460.110321 
L 497.253859 -475.672222 
L 498.704039 -455.750144 
L 500.154218 -465.325088 
L 501.604397 -474.119508 
L 503.054577 -496.052694 
L 504.504756 -509.983139 
L 505.954935 -521.286059 
L 507.405115 -529.803334 
L 508.855294 -537.843248 
L 510.305473 -546.887837 
L 511.755653 -555.137146 
L 513.205832 -546.547303 
L 514.656011 -555.187035 
L 516.106191 -547.154255 
L 517.55637 -538.949391 
L 519.006549 -533.438778 
L 520.456729 -530.77837 
L 521.906908 -529.822819 
L 523.357087 -529.563134 
L 524.807266 -529.509225 
L 526.257446 -529.499461 
L 527.707625 -529.499461 
L 529.157804 -529.499461 
L 530.607984 -529.499461 
L 532.058163 -529.499461 
L 533.508342 -529.499461 
L 534.958522 -529.499461 
L 536.408701 -529.499461 
L 537.85888 -529.499461 
L 539.30906 -529.499461 
L 540.759239 -529.499461 
L 542.209418 -529.499461 
L 543.659598 -529.499461 
L 545.109777 -529.499461 
L 546.559956 -529.499461 
L 548.010136 -529.499461 
L 549.460315 -529.499461 
L 550.910494 -529.499461 
L 552.360674 -529.499461 
L 553.810853 -529.499461 
L 555.261032 -529.499461 
L 556.711212 -529.499461 
L 558.161391 -529.499461 
L 559.61157 -529.499461 
L 561.06175 -529.499461 
L 562.511929 -529.499461 
L 563.962108 -529.499461 
L 565.412288 -529.499461 
L 566.862467 -529.499461 
L 568.312646 -529.499461 
L 569.762826 -529.499461 
L 571.213005 -529.499461 
L 572.663184 -529.499461 
L 574.113363 -529.497625 
L 575.563543 -529.482772 
L 577.013722 -529.403692 
L 578.463901 -529.075331 
L 579.914081 -528.001509 
L 581.36426 -525.268033 
L 582.814439 -519.915605 
L 584.264619 -512.064223 
L 585.714798 -495.801879 
L 587.164977 -491.154848 
L 588.615157 -492.42092 
L 590.065336 -508.330544 
L 591.515515 -517.515967 
L 592.965695 -526.466883 
L 594.415874 -535.772908 
L 595.866053 -547.720343 
L 597.316233 -563.099738 
L 598.766412 -568.174023 
L 600.216591 -582.160821 
L 601.666771 -586.183533 
L 603.11695 -577.706664 
L 604.567129 -564.222903 
L 606.017309 -556.921449 
L 607.467488 -544.50558 
L 608.917667 -536.325521 
L 610.367847 -532.049257 
L 611.818026 -526.679292 
L 613.268205 -529.702961 
L 614.718385 -529.549292 
L 616.168564 -529.513043 
L 617.618743 -529.503196 
L 619.068923 -529.500673 
L 620.519102 -529.499767 
L 621.969281 -529.499521 
L 623.41946 -529.49947 
L 624.86964 -529.499461 
L 626.319819 -529.499461 
L 627.769998 -529.499461 
L 629.220178 -529.499461 
L 630.670357 -529.499461 
L 632.120536 -529.499461 
L 633.570716 -529.499461 
L 635.020895 -529.499461 
L 636.471074 -529.499461 
L 636.471074 -529.499461 
L 636.471074 -529.499461 
L 635.020895 -529.499461 
L 633.570716 -529.499461 
L 632.120536 -529.499461 
L 630.670357 -529.499461 
L 629.220178 -529.499461 
L 627.769998 -529.499461 
L 626.319819 -529.499461 
L 624.86964 -529.499461 
L 623.41946 -529.49947 
L 621.969281 -529.499521 
L 620.519102 -529.499767 
L 619.068923 -529.500673 
L 617.618743 -529.503196 
L 616.168564 -529.513043 
L 614.718385 -529.549292 
L 613.268205 -529.702961 
L 611.818026 -533.883262 
L 610.367847 -532.049257 
L 608.917667 -536.325521 
L 607.467488 -544.50558 
L 606.017309 -556.921449 
L 604.567129 -579.359585 
L 603.11695 -592.714865 
L 601.666771 -598.736229 
L 600.216591 -598.393401 
L 598.766412 -589.963829 
L 597.316233 -563.099738 
L 595.866053 -547.720343 
L 594.415874 -535.772908 
L 592.965695 -526.466883 
L 591.515515 -517.515967 
L 590.065336 -508.330544 
L 588.615157 -510.082479 
L 587.164977 -507.905763 
L 585.714798 -512.199192 
L 584.264619 -512.064223 
L 582.814439 -519.915605 
L 581.36426 -525.268033 
L 579.914081 -528.001509 
L 578.463901 -529.075331 
L 577.013722 -529.403692 
L 575.563543 -529.482772 
L 574.113363 -529.497625 
L 572.663184 -529.499461 
L 571.213005 -529.499461 
L 569.762826 -529.499461 
L 568.312646 -529.499461 
L 566.862467 -529.499461 
L 565.412288 -529.499461 
L 563.962108 -529.499461 
L 562.511929 -529.499461 
L 561.06175 -529.499461 
L 559.61157 -529.499461 
L 558.161391 -529.499461 
L 556.711212 -529.499461 
L 555.261032 -529.499461 
L 553.810853 -529.499461 
L 552.360674 -529.499461 
L 550.910494 -529.499461 
L 549.460315 -529.499461 
L 548.010136 -529.499461 
L 546.559956 -529.499461 
L 545.109777 -529.499461 
L 543.659598 -529.499461 
L 542.209418 -529.499461 
L 540.759239 -529.499461 
L 539.30906 -529.499461 
L 537.85888 -529.499461 
L 536.408701 -529.499461 
L 534.958522 -529.499461 
L 533.508342 -529.499461 
L 532.058163 -529.499461 
L 530.607984 -529.499461 
L 529.157804 -529.499461 
L 527.707625 -529.499461 
L 526.257446 -529.499461 
L 524.807266 -529.509225 
L 523.357087 -529.563134 
L 521.906908 -529.822819 
L 520.456729 -530.77837 
L 519.006549 -533.438778 
L 517.55637 -538.949391 
L 516.106191 -547.154255 
L 514.656011 -555.187035 
L 513.205832 -570.653589 
L 511.755653 -555.137146 
L 510.305473 -546.887837 
L 508.855294 -537.843248 
L 507.405115 -529.803334 
L 505.954935 -521.286059 
L 504.504756 -509.983139 
L 503.054577 -496.052694 
L 501.604397 -492.057206 
L 500.154218 -485.547684 
L 498.704039 -492.501333 
L 497.253859 -475.672222 
L 495.80368 -490.10857 
L 494.353501 -470.288956 
L 492.903321 -471.830457 
L 491.453142 -471.27552 
L 490.002963 -474.553129 
L 488.552783 -474.523703 
L 487.102604 -497.898107 
L 485.652425 -502.714513 
L 484.202245 -514.412611 
L 482.752066 -522.291238 
L 481.301887 -526.329533 
L 479.851707 -527.23522 
L 478.401528 -525.501569 
L 476.951349 -521.069038 
L 475.501169 -513.793603 
L 474.05099 -515.151745 
L 472.600811 -493.699263 
L 471.150632 -492.699345 
L 469.700452 -485.721159 
L 468.250273 -482.846971 
L 466.800094 -483.470415 
L 465.349914 -480.752703 
L 463.899735 -487.680159 
L 462.449556 -489.212329 
L 460.999376 -498.514365 
L 459.549197 -500.053752 
L 458.099018 -513.463047 
L 456.648838 -524.384777 
L 455.198659 -533.23083 
L 453.74848 -541.494176 
L 452.2983 -549.452228 
L 450.848121 -563.8244 
L 449.397942 -562.230747 
L 447.947762 -569.383701 
L 446.497583 -589.485083 
L 445.047404 -600.832462 
L 443.597224 -612.107236 
L 442.147045 -619.196398 
L 440.696866 -622.368595 
L 439.246686 -613.08112 
L 437.796507 -595.492607 
L 436.346328 -570.473486 
L 434.896148 -556.838668 
L 433.445969 -552.161082 
L 431.99579 -558.291168 
L 430.54561 -571.696467 
L 429.095431 -592.420293 
L 427.645252 -596.517427 
L 426.195073 -591.986168 
L 424.744893 -564.757641 
L 423.294714 -546.560518 
L 421.844535 -529.06683 
L 420.394355 -511.45456 
L 418.944176 -492.132774 
L 417.493997 -479.615003 
L 416.043817 -465.772818 
L 414.593638 -429.885571 
L 413.143459 -424.15503 
L 411.693279 -418.421243 
L 410.2431 -425.159224 
L 408.792921 -434.832788 
L 407.342741 -455.863662 
L 405.892562 -462.940922 
z
" style="stroke: #ff7f0e; stroke-opacity: 0.2"/>
    </defs>
    <g clip-path="url(#pd0c2ae1090)">
     <use xlink:href="#mb304588e2e" x="0" y="720" style="fill: #ff7f0e; fill-opacity: 0.2; stroke: #ff7f0e; stroke-opacity: 0.2"/>
    </g>
   </g>
   <g id="matplotlib.axis_3">
    <g id="xtick_7">
     <g id="line2d_13">
      <g>
       <use xlink:href="#m89f02fa366" x="405.863558" y="333.490909" style="stroke: #000000; stroke-width: 0.8"/>
      </g>
     </g>
     <g id="text_13">
      <!-- 0 -->
      <g transform="translate(402.682308 348.089347)scale(0.1 -0.1)">
       <use xlink:href="#DejaVuSans-30"/>
      </g>
     </g>
    </g>
    <g id="xtick_8">
     <g id="line2d_14">
      <g>
       <use xlink:href="#m89f02fa366" x="463.870731" y="333.490909" style="stroke: #000000; stroke-width: 0.8"/>
      </g>
     </g>
     <g id="text_14">
      <!-- 2000 -->
      <g transform="translate(451.145731 348.089347)scale(0.1 -0.1)">
       <use xlink:href="#DejaVuSans-32"/>
       <use xlink:href="#DejaVuSans-30" x="63.623047"/>
       <use xlink:href="#DejaVuSans-30" x="127.246094"/>
       <use xlink:href="#DejaVuSans-30" x="190.869141"/>
      </g>
     </g>
    </g>
    <g id="xtick_9">
     <g id="line2d_15">
      <g>
       <use xlink:href="#m89f02fa366" x="521.877904" y="333.490909" style="stroke: #000000; stroke-width: 0.8"/>
      </g>
     </g>
     <g id="text_15">
      <!-- 4000 -->
      <g transform="translate(509.152904 348.089347)scale(0.1 -0.1)">
       <use xlink:href="#DejaVuSans-34"/>
       <use xlink:href="#DejaVuSans-30" x="63.623047"/>
       <use xlink:href="#DejaVuSans-30" x="127.246094"/>
       <use xlink:href="#DejaVuSans-30" x="190.869141"/>
      </g>
     </g>
    </g>
    <g id="xtick_10">
     <g id="line2d_16">
      <g>
       <use xlink:href="#m89f02fa366" x="579.885077" y="333.490909" style="stroke: #000000; stroke-width: 0.8"/>
      </g>
     </g>
     <g id="text_16">
      <!-- 6000 -->
      <g transform="translate(567.160077 348.089347)scale(0.1 -0.1)">
       <use xlink:href="#DejaVuSans-36"/>
       <use xlink:href="#DejaVuSans-30" x="63.623047"/>
       <use xlink:href="#DejaVuSans-30" x="127.246094"/>
       <use xlink:href="#DejaVuSans-30" x="190.869141"/>
      </g>
     </g>
    </g>
    <g id="xtick_11">
     <g id="line2d_17">
      <g>
       <use xlink:href="#m89f02fa366" x="637.89225" y="333.490909" style="stroke: #000000; stroke-width: 0.8"/>
      </g>
     </g>
     <g id="text_17">
      <!-- 8000 -->
      <g transform="translate(625.16725 348.089347)scale(0.1 -0.1)">
       <use xlink:href="#DejaVuSans-38"/>
       <use xlink:href="#DejaVuSans-30" x="63.623047"/>
       <use xlink:href="#DejaVuSans-30" x="127.246094"/>
       <use xlink:href="#DejaVuSans-30" x="190.869141"/>
      </g>
     </g>
    </g>
   </g>
   <g id="matplotlib.axis_4">
    <g id="ytick_7">
     <g id="line2d_18">
      <g>
       <use xlink:href="#m2de2e546a1" x="394.363636" y="319.663652" style="stroke: #000000; stroke-width: 0.8"/>
      </g>
     </g>
     <g id="text_18">
      <!-- −2.0 -->
      <g transform="translate(363.080824 323.462871)scale(0.1 -0.1)">
       <defs>
        <path id="DejaVuSans-2212" d="M 678 2272 
L 4684 2272 
L 4684 1741 
L 678 1741 
L 678 2272 
z
" transform="scale(0.015625)"/>
       </defs>
       <use xlink:href="#DejaVuSans-2212"/>
       <use xlink:href="#DejaVuSans-32" x="83.789062"/>
       <use xlink:href="#DejaVuSans-2e" x="147.412109"/>
       <use xlink:href="#DejaVuSans-30" x="179.199219"/>
      </g>
     </g>
    </g>
    <g id="ytick_8">
     <g id="line2d_19">
      <g>
       <use xlink:href="#m2de2e546a1" x="394.363636" y="287.372874" style="stroke: #000000; stroke-width: 0.8"/>
      </g>
     </g>
     <g id="text_19">
      <!-- −1.5 -->
      <g transform="translate(363.080824 291.172093)scale(0.1 -0.1)">
       <defs>
        <path id="DejaVuSans-35" d="M 691 4666 
L 3169 4666 
L 3169 4134 
L 1269 4134 
L 1269 2991 
Q 1406 3038 1543 3061 
Q 1681 3084 1819 3084 
Q 2600 3084 3056 2656 
Q 3513 2228 3513 1497 
Q 3513 744 3044 326 
Q 2575 -91 1722 -91 
Q 1428 -91 1123 -41 
Q 819 9 494 109 
L 494 744 
Q 775 591 1075 516 
Q 1375 441 1709 441 
Q 2250 441 2565 725 
Q 2881 1009 2881 1497 
Q 2881 1984 2565 2268 
Q 2250 2553 1709 2553 
Q 1456 2553 1204 2497 
Q 953 2441 691 2322 
L 691 4666 
z
" transform="scale(0.015625)"/>
       </defs>
       <use xlink:href="#DejaVuSans-2212"/>
       <use xlink:href="#DejaVuSans-31" x="83.789062"/>
       <use xlink:href="#DejaVuSans-2e" x="147.412109"/>
       <use xlink:href="#DejaVuSans-35" x="179.199219"/>
      </g>
     </g>
    </g>
    <g id="ytick_9">
     <g id="line2d_20">
      <g>
       <use xlink:href="#m2de2e546a1" x="394.363636" y="255.082096" style="stroke: #000000; stroke-width: 0.8"/>
      </g>
     </g>
     <g id="text_20">
      <!-- −1.0 -->
      <g transform="translate(363.080824 258.881314)scale(0.1 -0.1)">
       <use xlink:href="#DejaVuSans-2212"/>
       <use xlink:href="#DejaVuSans-31" x="83.789062"/>
       <use xlink:href="#DejaVuSans-2e" x="147.412109"/>
       <use xlink:href="#DejaVuSans-30" x="179.199219"/>
      </g>
     </g>
    </g>
    <g id="ytick_10">
     <g id="line2d_21">
      <g>
       <use xlink:href="#m2de2e546a1" x="394.363636" y="222.791318" style="stroke: #000000; stroke-width: 0.8"/>
      </g>
     </g>
     <g id="text_21">
      <!-- −0.5 -->
      <g transform="translate(363.080824 226.590536)scale(0.1 -0.1)">
       <use xlink:href="#DejaVuSans-2212"/>
       <use xlink:href="#DejaVuSans-30" x="83.789062"/>
       <use xlink:href="#DejaVuSans-2e" x="147.412109"/>
       <use xlink:href="#DejaVuSans-35" x="179.199219"/>
      </g>
     </g>
    </g>
    <g id="ytick_11">
     <g id="line2d_22">
      <g>
       <use xlink:href="#m2de2e546a1" x="394.363636" y="190.500539" style="stroke: #000000; stroke-width: 0.8"/>
      </g>
     </g>
     <g id="text_22">
      <!-- 0.0 -->
      <g transform="translate(371.460511 194.299758)scale(0.1 -0.1)">
       <use xlink:href="#DejaVuSans-30"/>
       <use xlink:href="#DejaVuSans-2e" x="63.623047"/>
       <use xlink:href="#DejaVuSans-30" x="95.410156"/>
      </g>
     </g>
    </g>
    <g id="ytick_12">
     <g id="line2d_23">
      <g>
       <use xlink:href="#m2de2e546a1" x="394.363636" y="158.209761" style="stroke: #000000; stroke-width: 0.8"/>
      </g>
     </g>
     <g id="text_23">
      <!-- 0.5 -->
      <g transform="translate(371.460511 162.00898)scale(0.1 -0.1)">
       <use xlink:href="#DejaVuSans-30"/>
       <use xlink:href="#DejaVuSans-2e" x="63.623047"/>
       <use xlink:href="#DejaVuSans-35" x="95.410156"/>
      </g>
     </g>
    </g>
    <g id="ytick_13">
     <g id="line2d_24">
      <g>
       <use xlink:href="#m2de2e546a1" x="394.363636" y="125.918983" style="stroke: #000000; stroke-width: 0.8"/>
      </g>
     </g>
     <g id="text_24">
      <!-- 1.0 -->
      <g transform="translate(371.460511 129.718202)scale(0.1 -0.1)">
       <use xlink:href="#DejaVuSans-31"/>
       <use xlink:href="#DejaVuSans-2e" x="63.623047"/>
       <use xlink:href="#DejaVuSans-30" x="95.410156"/>
      </g>
     </g>
    </g>
    <g id="ytick_14">
     <g id="line2d_25">
      <g>
       <use xlink:href="#m2de2e546a1" x="394.363636" y="93.628205" style="stroke: #000000; stroke-width: 0.8"/>
      </g>
     </g>
     <g id="text_25">
      <!-- 1.5 -->
      <g transform="translate(371.460511 97.427424)scale(0.1 -0.1)">
       <use xlink:href="#DejaVuSans-31"/>
       <use xlink:href="#DejaVuSans-2e" x="63.623047"/>
       <use xlink:href="#DejaVuSans-35" x="95.410156"/>
      </g>
     </g>
    </g>
   </g>
   <g id="line2d_26">
    <path d="M 405.892562 190.213515 
L 407.342741 189.544853 
L 408.792921 187.579123 
L 410.2431 183.492425 
L 413.143459 171.45051 
L 414.593638 168.914028 
L 416.043817 171.45051 
L 418.944176 183.498469 
L 420.394355 187.626796 
L 421.844535 189.806117 
L 423.294714 191.325931 
L 424.744893 193.973697 
L 426.195073 199.675474 
L 427.645252 209.423626 
L 429.095431 221.337503 
L 430.54561 230.25074 
L 431.99579 231.027402 
L 433.445969 223.161561 
L 434.896148 211.28676 
L 436.346328 200.934048 
L 437.796507 194.625034 
L 439.246686 191.782718 
L 440.696866 190.813531 
L 442.147045 190.560454 
L 446.497583 190.500539 
L 472.600811 190.461396 
L 474.05099 190.287285 
L 475.501169 189.597201 
L 476.951349 187.4585 
L 478.401528 182.334682 
L 479.851707 172.893832 
L 482.752066 146.32416 
L 484.202245 137.447013 
L 485.652425 135.945111 
L 487.102604 141.398415 
L 488.552783 151.432442 
L 490.002963 163.19616 
L 491.453142 173.79459 
L 492.903321 180.966306 
L 494.353501 184.193742 
L 495.80368 184.843114 
L 497.253859 184.948975 
L 498.704039 185.773204 
L 500.154218 187.320387 
L 503.054577 190.862577 
L 504.504756 193.84311 
L 505.954935 199.792322 
L 507.405115 209.898642 
L 508.855294 222.742739 
L 510.305473 234.102844 
L 511.755653 240.20015 
L 513.205832 241.149017 
L 514.656011 239.706611 
L 516.106191 237.117318 
L 517.55637 232.695342 
L 519.006549 227.437359 
L 520.456729 224.932366 
L 521.906908 227.437939 
L 524.807266 238.483311 
L 526.257446 242.09315 
L 527.707625 244.050234 
L 529.157804 243.350002 
L 530.607984 237.981864 
L 532.058163 227.695777 
L 533.508342 215.175434 
L 534.958522 204.109821 
L 536.408701 196.658327 
L 537.85888 192.761523 
L 539.30906 191.16831 
L 540.759239 190.6575 
L 543.659598 190.504366 
L 552.360674 190.454476 
L 553.810853 190.318354 
L 555.261032 189.939368 
L 556.711212 189.154359 
L 559.61157 186.880049 
L 561.06175 186.55109 
L 562.511929 187.620704 
L 563.962108 190.393858 
L 565.412288 194.962112 
L 568.312646 206.950924 
L 569.762826 211.228394 
L 571.213005 213.557543 
L 572.663184 215.634493 
L 574.113363 218.864042 
L 575.563543 222.770542 
L 577.013722 226.222634 
L 578.463901 228.720697 
L 579.914081 229.60161 
L 581.36426 227.430147 
L 582.814439 221.354063 
L 585.714798 203.681345 
L 587.164977 197.186782 
L 588.615157 194.013296 
L 590.065336 193.940335 
L 591.515515 196.352766 
L 594.415874 204.808097 
L 595.866053 207.62367 
L 597.316233 207.370166 
L 598.766412 204.031889 
L 600.216591 199.235208 
L 601.666771 194.99235 
L 603.11695 192.326603 
L 604.567129 191.084239 
L 606.017309 190.64672 
L 608.917667 190.504888 
L 613.268205 190.457515 
L 614.718385 190.282041 
L 616.168564 189.636363 
L 617.618743 187.83869 
L 619.068923 184.115094 
L 621.969281 173.143099 
L 623.41946 170.828788 
L 624.86964 173.122265 
L 627.769998 183.693444 
L 629.220178 186.528924 
L 630.670357 186.438574 
L 632.120536 184.086993 
L 633.570716 180.763688 
L 635.020895 177.877961 
L 636.471074 176.319052 
L 636.471074 176.319052 
" clip-path="url(#pd0c2ae1090)" style="fill: none; stroke: #9467bd; stroke-width: 2; stroke-linecap: square"/>
   </g>
   <g id="line2d_27">
    <path d="M 405.892562 190.500539 
L 636.471074 190.500539 
L 636.471074 190.500539 
" clip-path="url(#pd0c2ae1090)" style="fill: none; stroke: #1f77b4; stroke-width: 2; stroke-linecap: square"/>
   </g>
   <g id="line2d_28">
    <path d="M 405.892562 190.500539 
L 484.202245 190.426383 
L 485.652425 190.123944 
L 487.102604 189.011074 
L 488.552783 185.912664 
L 490.002963 179.4948 
L 492.903321 160.527432 
L 494.353501 156.304673 
L 495.80368 159.36642 
L 497.253859 166.00133 
L 498.704039 169.469866 
L 500.154218 165.79542 
L 501.604397 157.14715 
L 503.054577 150.243858 
L 504.504756 150.956363 
L 505.954935 159.588317 
L 507.405115 171.367 
L 508.855294 181.13629 
L 510.305473 186.881723 
L 511.755653 189.397686 
L 513.205832 190.235873 
L 514.656011 190.450598 
L 519.006549 190.500539 
L 558.161391 190.446666 
L 559.61157 190.226946 
L 561.06175 189.416615 
L 562.511929 187.146511 
L 563.962108 182.3855 
L 565.412288 175.024627 
L 566.862467 166.838921 
L 568.312646 160.408422 
L 569.762826 156.435908 
L 571.213005 153.237477 
L 572.663184 149.534351 
L 574.113363 146.27523 
L 575.563543 145.109491 
L 577.013722 146.94232 
L 578.463901 152.375737 
L 579.914081 161.349334 
L 581.36426 171.866765 
L 582.814439 180.768519 
L 584.264619 186.074483 
L 585.714798 187.726092 
L 587.164977 186.567301 
L 590.065336 180.664233 
L 591.515515 179.365433 
L 592.965695 180.673842 
L 595.866053 186.87927 
L 597.316233 188.952945 
L 598.766412 189.805004 
L 600.216591 189.560935 
L 601.666771 187.963017 
L 603.11695 184.468036 
L 606.017309 174.11265 
L 607.467488 171.930628 
L 608.917667 174.11265 
L 611.818026 184.471772 
L 613.268205 187.987375 
L 614.718385 189.684634 
L 616.168564 190.294246 
L 617.618743 190.463702 
L 620.519102 190.625845 
L 621.969281 190.996131 
L 623.41946 192.02707 
L 624.86964 194.162495 
L 627.769998 200.454766 
L 629.220178 201.780156 
L 630.670357 200.454766 
L 633.570716 194.166279 
L 635.020895 192.051744 
L 636.471074 191.121436 
L 636.471074 191.121436 
" clip-path="url(#pd0c2ae1090)" style="fill: none; stroke: #d62728; stroke-width: 2; stroke-linecap: square"/>
   </g>
   <g id="line2d_29">
    <path d="M 405.892562 264.831125 
L 407.342741 274.689474 
L 410.2431 305.776198 
L 411.693279 311.91913 
L 413.143459 305.771642 
L 414.593638 290.114429 
L 417.493997 248.773346 
L 420.394355 208.54544 
L 426.195073 139.349956 
L 427.645252 131.619807 
L 429.095431 135.582044 
L 431.99579 161.708832 
L 433.445969 167.838918 
L 434.896148 163.161332 
L 436.346328 149.526514 
L 437.796507 132.428033 
L 439.246686 117.920854 
L 440.696866 110.012436 
L 442.147045 109.961861 
L 443.597224 116.868812 
L 445.047404 128.222665 
L 446.497583 140.500962 
L 447.947762 150.616299 
L 449.397942 157.769253 
L 450.848121 163.719672 
L 452.2983 170.547772 
L 455.198659 186.76917 
L 456.648838 195.615223 
L 458.099018 206.536953 
L 460.999376 233.50881 
L 462.449556 243.539912 
L 463.899735 248.120809 
L 465.349914 248.431264 
L 466.800094 246.987358 
L 468.250273 245.008855 
L 469.700452 241.642096 
L 471.150632 235.442223 
L 472.600811 226.300737 
L 474.05099 215.831346 
L 475.501169 206.206397 
L 476.951349 198.930962 
L 478.401528 194.498431 
L 479.851707 192.76478 
L 481.301887 193.670467 
L 482.752066 197.708762 
L 484.202245 205.587389 
L 485.652425 217.285487 
L 488.552783 245.476297 
L 490.002963 255.855186 
L 491.453142 259.544698 
L 492.903321 256.29392 
L 494.353501 249.711044 
L 495.80368 244.890554 
L 497.253859 244.327778 
L 498.704039 245.874262 
L 500.154218 244.563614 
L 501.604397 236.911643 
L 505.954935 198.713941 
L 511.755653 164.862854 
L 513.205832 161.399554 
L 514.656011 164.812965 
L 517.55637 181.050609 
L 519.006549 186.561222 
L 520.456729 189.22163 
L 521.906908 190.177181 
L 523.357087 190.436866 
L 527.707625 190.500539 
L 577.013722 190.596308 
L 578.463901 190.924669 
L 579.914081 191.998491 
L 581.36426 194.731967 
L 582.814439 200.084395 
L 585.714798 215.999464 
L 587.164977 220.469695 
L 588.615157 218.7483 
L 590.065336 211.669456 
L 594.415874 184.227092 
L 595.866053 172.279657 
L 598.766412 140.931074 
L 600.216591 129.722889 
L 601.666771 127.540119 
L 603.11695 134.789236 
L 604.567129 148.208756 
L 606.017309 163.078551 
L 607.467488 175.49442 
L 608.917667 183.674479 
L 610.367847 187.950743 
L 611.818026 189.718723 
L 613.268205 190.297039 
L 614.718385 190.450708 
L 620.519102 190.500233 
L 636.471074 190.500539 
L 636.471074 190.500539 
" clip-path="url(#pd0c2ae1090)" style="fill: none; stroke: #ff7f0e; stroke-width: 2; stroke-linecap: square"/>
   </g>
   <g id="LineCollection_1">
    <path d="M 521.877904 292.238766 
L 521.877904 123.163825 
" clip-path="url(#pd0c2ae1090)" style="fill: none; stroke-dasharray: 7.4,3.2; stroke-dashoffset: 0; stroke: #000000; stroke-width: 2"/>
    <path d="M 536.379697 292.238766 
L 536.379697 123.163825 
" clip-path="url(#pd0c2ae1090)" style="fill: none; stroke-dasharray: 7.4,3.2; stroke-dashoffset: 0; stroke: #000000; stroke-width: 2"/>
    <path d="M 565.383284 292.238766 
L 565.383284 123.163825 
" clip-path="url(#pd0c2ae1090)" style="fill: none; stroke-dasharray: 7.4,3.2; stroke-dashoffset: 0; stroke: #000000; stroke-width: 2"/>
    <path d="M 623.390457 292.238766 
L 623.390457 123.163825 
" clip-path="url(#pd0c2ae1090)" style="fill: none; stroke-dasharray: 7.4,3.2; stroke-dashoffset: 0; stroke: #000000; stroke-width: 2"/>
   </g>
   <g id="patch_8">
    <path d="M 394.363636 333.490909 
L 394.363636 86.4 
" style="fill: none; stroke: #000000; stroke-width: 0.8; stroke-linejoin: miter; stroke-linecap: square"/>
   </g>
   <g id="patch_9">
    <path d="M 648 333.490909 
L 648 86.4 
" style="fill: none; stroke: #000000; stroke-width: 0.8; stroke-linejoin: miter; stroke-linecap: square"/>
   </g>
   <g id="patch_10">
    <path d="M 394.363636 333.490909 
L 648 333.490909 
" style="fill: none; stroke: #000000; stroke-width: 0.8; stroke-linejoin: miter; stroke-linecap: square"/>
   </g>
   <g id="patch_11">
    <path d="M 394.363636 86.4 
L 648 86.4 
" style="fill: none; stroke: #000000; stroke-width: 0.8; stroke-linejoin: miter; stroke-linecap: square"/>
   </g>
   <g id="text_26">
    <!-- unit_99 -->
    <g transform="translate(498.922756 80.4)scale(0.12 -0.12)">
     <defs>
      <path id="DejaVuSans-75" d="M 544 1381 
L 544 3500 
L 1119 3500 
L 1119 1403 
Q 1119 906 1312 657 
Q 1506 409 1894 409 
Q 2359 409 2629 706 
Q 2900 1003 2900 1516 
L 2900 3500 
L 3475 3500 
L 3475 0 
L 2900 0 
L 2900 538 
Q 2691 219 2414 64 
Q 2138 -91 1772 -91 
Q 1169 -91 856 284 
Q 544 659 544 1381 
z
M 1991 3584 
L 1991 3584 
z
" transform="scale(0.015625)"/>
      <path id="DejaVuSans-6e" d="M 3513 2113 
L 3513 0 
L 2938 0 
L 2938 2094 
Q 2938 2591 2744 2837 
Q 2550 3084 2163 3084 
Q 1697 3084 1428 2787 
Q 1159 2491 1159 1978 
L 1159 0 
L 581 0 
L 581 3500 
L 1159 3500 
L 1159 2956 
Q 1366 3272 1645 3428 
Q 1925 3584 2291 3584 
Q 2894 3584 3203 3211 
Q 3513 2838 3513 2113 
z
" transform="scale(0.015625)"/>
      <path id="DejaVuSans-69" d="M 603 3500 
L 1178 3500 
L 1178 0 
L 603 0 
L 603 3500 
z
M 603 4863 
L 1178 4863 
L 1178 4134 
L 603 4134 
L 603 4863 
z
" transform="scale(0.015625)"/>
      <path id="DejaVuSans-74" d="M 1172 4494 
L 1172 3500 
L 2356 3500 
L 2356 3053 
L 1172 3053 
L 1172 1153 
Q 1172 725 1289 603 
Q 1406 481 1766 481 
L 2356 481 
L 2356 0 
L 1766 0 
Q 1100 0 847 248 
Q 594 497 594 1153 
L 594 3053 
L 172 3053 
L 172 3500 
L 594 3500 
L 594 4494 
L 1172 4494 
z
" transform="scale(0.015625)"/>
      <path id="DejaVuSans-5f" d="M 3263 -1063 
L 3263 -1509 
L -63 -1509 
L -63 -1063 
L 3263 -1063 
z
" transform="scale(0.015625)"/>
      <path id="DejaVuSans-39" d="M 703 97 
L 703 672 
Q 941 559 1184 500 
Q 1428 441 1663 441 
Q 2288 441 2617 861 
Q 2947 1281 2994 2138 
Q 2813 1869 2534 1725 
Q 2256 1581 1919 1581 
Q 1219 1581 811 2004 
Q 403 2428 403 3163 
Q 403 3881 828 4315 
Q 1253 4750 1959 4750 
Q 2769 4750 3195 4129 
Q 3622 3509 3622 2328 
Q 3622 1225 3098 567 
Q 2575 -91 1691 -91 
Q 1453 -91 1209 -44 
Q 966 3 703 97 
z
M 1959 2075 
Q 2384 2075 2632 2365 
Q 2881 2656 2881 3163 
Q 2881 3666 2632 3958 
Q 2384 4250 1959 4250 
Q 1534 4250 1286 3958 
Q 1038 3666 1038 3163 
Q 1038 2656 1286 2365 
Q 1534 2075 1959 2075 
z
" transform="scale(0.015625)"/>
     </defs>
     <use xlink:href="#DejaVuSans-75"/>
     <use xlink:href="#DejaVuSans-6e" x="63.378906"/>
     <use xlink:href="#DejaVuSans-69" x="126.757812"/>
     <use xlink:href="#DejaVuSans-74" x="154.541016"/>
     <use xlink:href="#DejaVuSans-5f" x="193.75"/>
     <use xlink:href="#DejaVuSans-39" x="243.75"/>
     <use xlink:href="#DejaVuSans-39" x="307.373047"/>
    </g>
   </g>
  </g>
  <g id="axes_3">
   <g id="patch_12">
    <path d="M 90 630 
L 343.636364 630 
L 343.636364 382.909091 
L 90 382.909091 
z
" style="fill: #ffffff"/>
   </g>
   <g id="matplotlib.axis_5">
    <g id="xtick_12">
     <g id="line2d_30">
      <g>
       <use xlink:href="#m89f02fa366" x="90" y="630" style="stroke: #000000; stroke-width: 0.8"/>
      </g>
     </g>
     <g id="text_27">
      <!-- 0.0 -->
      <g transform="translate(82.048438 644.598437)scale(0.1 -0.1)">
       <use xlink:href="#DejaVuSans-30"/>
       <use xlink:href="#DejaVuSans-2e" x="63.623047"/>
       <use xlink:href="#DejaVuSans-30" x="95.410156"/>
      </g>
     </g>
    </g>
    <g id="xtick_13">
     <g id="line2d_31">
      <g>
       <use xlink:href="#m89f02fa366" x="140.727273" y="630" style="stroke: #000000; stroke-width: 0.8"/>
      </g>
     </g>
     <g id="text_28">
      <!-- 0.2 -->
      <g transform="translate(132.77571 644.598437)scale(0.1 -0.1)">
       <use xlink:href="#DejaVuSans-30"/>
       <use xlink:href="#DejaVuSans-2e" x="63.623047"/>
       <use xlink:href="#DejaVuSans-32" x="95.410156"/>
      </g>
     </g>
    </g>
    <g id="xtick_14">
     <g id="line2d_32">
      <g>
       <use xlink:href="#m89f02fa366" x="191.454545" y="630" style="stroke: #000000; stroke-width: 0.8"/>
      </g>
     </g>
     <g id="text_29">
      <!-- 0.4 -->
      <g transform="translate(183.502983 644.598437)scale(0.1 -0.1)">
       <use xlink:href="#DejaVuSans-30"/>
       <use xlink:href="#DejaVuSans-2e" x="63.623047"/>
       <use xlink:href="#DejaVuSans-34" x="95.410156"/>
      </g>
     </g>
    </g>
    <g id="xtick_15">
     <g id="line2d_33">
      <g>
       <use xlink:href="#m89f02fa366" x="242.181818" y="630" style="stroke: #000000; stroke-width: 0.8"/>
      </g>
     </g>
     <g id="text_30">
      <!-- 0.6 -->
      <g transform="translate(234.230256 644.598437)scale(0.1 -0.1)">
       <use xlink:href="#DejaVuSans-30"/>
       <use xlink:href="#DejaVuSans-2e" x="63.623047"/>
       <use xlink:href="#DejaVuSans-36" x="95.410156"/>
      </g>
     </g>
    </g>
    <g id="xtick_16">
     <g id="line2d_34">
      <g>
       <use xlink:href="#m89f02fa366" x="292.909091" y="630" style="stroke: #000000; stroke-width: 0.8"/>
      </g>
     </g>
     <g id="text_31">
      <!-- 0.8 -->
      <g transform="translate(284.957528 644.598437)scale(0.1 -0.1)">
       <use xlink:href="#DejaVuSans-30"/>
       <use xlink:href="#DejaVuSans-2e" x="63.623047"/>
       <use xlink:href="#DejaVuSans-38" x="95.410156"/>
      </g>
     </g>
    </g>
    <g id="xtick_17">
     <g id="line2d_35">
      <g>
       <use xlink:href="#m89f02fa366" x="343.636364" y="630" style="stroke: #000000; stroke-width: 0.8"/>
      </g>
     </g>
     <g id="text_32">
      <!-- 1.0 -->
      <g transform="translate(335.684801 644.598437)scale(0.1 -0.1)">
       <use xlink:href="#DejaVuSans-31"/>
       <use xlink:href="#DejaVuSans-2e" x="63.623047"/>
       <use xlink:href="#DejaVuSans-30" x="95.410156"/>
      </g>
     </g>
    </g>
   </g>
   <g id="matplotlib.axis_6">
    <g id="ytick_15">
     <g id="line2d_36">
      <g>
       <use xlink:href="#m2de2e546a1" x="90" y="630" style="stroke: #000000; stroke-width: 0.8"/>
      </g>
     </g>
     <g id="text_33">
      <!-- 0.0 -->
      <g transform="translate(67.096875 633.799219)scale(0.1 -0.1)">
       <use xlink:href="#DejaVuSans-30"/>
       <use xlink:href="#DejaVuSans-2e" x="63.623047"/>
       <use xlink:href="#DejaVuSans-30" x="95.410156"/>
      </g>
     </g>
    </g>
    <g id="ytick_16">
     <g id="line2d_37">
      <g>
       <use xlink:href="#m2de2e546a1" x="90" y="580.581818" style="stroke: #000000; stroke-width: 0.8"/>
      </g>
     </g>
     <g id="text_34">
      <!-- 0.2 -->
      <g transform="translate(67.096875 584.381037)scale(0.1 -0.1)">
       <use xlink:href="#DejaVuSans-30"/>
       <use xlink:href="#DejaVuSans-2e" x="63.623047"/>
       <use xlink:href="#DejaVuSans-32" x="95.410156"/>
      </g>
     </g>
    </g>
    <g id="ytick_17">
     <g id="line2d_38">
      <g>
       <use xlink:href="#m2de2e546a1" x="90" y="531.163636" style="stroke: #000000; stroke-width: 0.8"/>
      </g>
     </g>
     <g id="text_35">
      <!-- 0.4 -->
      <g transform="translate(67.096875 534.962855)scale(0.1 -0.1)">
       <use xlink:href="#DejaVuSans-30"/>
       <use xlink:href="#DejaVuSans-2e" x="63.623047"/>
       <use xlink:href="#DejaVuSans-34" x="95.410156"/>
      </g>
     </g>
    </g>
    <g id="ytick_18">
     <g id="line2d_39">
      <g>
       <use xlink:href="#m2de2e546a1" x="90" y="481.745455" style="stroke: #000000; stroke-width: 0.8"/>
      </g>
     </g>
     <g id="text_36">
      <!-- 0.6 -->
      <g transform="translate(67.096875 485.544673)scale(0.1 -0.1)">
       <use xlink:href="#DejaVuSans-30"/>
       <use xlink:href="#DejaVuSans-2e" x="63.623047"/>
       <use xlink:href="#DejaVuSans-36" x="95.410156"/>
      </g>
     </g>
    </g>
    <g id="ytick_19">
     <g id="line2d_40">
      <g>
       <use xlink:href="#m2de2e546a1" x="90" y="432.327273" style="stroke: #000000; stroke-width: 0.8"/>
      </g>
     </g>
     <g id="text_37">
      <!-- 0.8 -->
      <g transform="translate(67.096875 436.126491)scale(0.1 -0.1)">
       <use xlink:href="#DejaVuSans-30"/>
       <use xlink:href="#DejaVuSans-2e" x="63.623047"/>
       <use xlink:href="#DejaVuSans-38" x="95.410156"/>
      </g>
     </g>
    </g>
    <g id="ytick_20">
     <g id="line2d_41">
      <g>
       <use xlink:href="#m2de2e546a1" x="90" y="382.909091" style="stroke: #000000; stroke-width: 0.8"/>
      </g>
     </g>
     <g id="text_38">
      <!-- 1.0 -->
      <g transform="translate(67.096875 386.70831)scale(0.1 -0.1)">
       <use xlink:href="#DejaVuSans-31"/>
       <use xlink:href="#DejaVuSans-2e" x="63.623047"/>
       <use xlink:href="#DejaVuSans-30" x="95.410156"/>
      </g>
     </g>
    </g>
   </g>
   <g id="patch_13">
    <path d="M 90 630 
L 90 382.909091 
" style="fill: none; stroke: #000000; stroke-width: 0.8; stroke-linejoin: miter; stroke-linecap: square"/>
   </g>
   <g id="patch_14">
    <path d="M 343.636364 630 
L 343.636364 382.909091 
" style="fill: none; stroke: #000000; stroke-width: 0.8; stroke-linejoin: miter; stroke-linecap: square"/>
   </g>
   <g id="patch_15">
    <path d="M 90 630 
L 343.636364 630 
" style="fill: none; stroke: #000000; stroke-width: 0.8; stroke-linejoin: miter; stroke-linecap: square"/>
   </g>
   <g id="patch_16">
    <path d="M 90 382.909091 
L 343.636364 382.909091 
" style="fill: none; stroke: #000000; stroke-width: 0.8; stroke-linejoin: miter; stroke-linecap: square"/>
   </g>
  </g>
  <g id="axes_4">
   <g id="patch_17">
    <path d="M 394.363636 630 
L 648 630 
L 648 382.909091 
L 394.363636 382.909091 
z
" style="fill: #ffffff"/>
   </g>
   <g id="matplotlib.axis_7">
    <g id="xtick_18">
     <g id="line2d_42">
      <g>
       <use xlink:href="#m89f02fa366" x="405.863558" y="630" style="stroke: #000000; stroke-width: 0.8"/>
      </g>
     </g>
     <g id="text_39">
      <!-- 0 -->
      <g transform="translate(402.682308 644.598437)scale(0.1 -0.1)">
       <use xlink:href="#DejaVuSans-30"/>
      </g>
     </g>
    </g>
    <g id="xtick_19">
     <g id="line2d_43">
      <g>
       <use xlink:href="#m89f02fa366" x="463.870731" y="630" style="stroke: #000000; stroke-width: 0.8"/>
      </g>
     </g>
     <g id="text_40">
      <!-- 2000 -->
      <g transform="translate(451.145731 644.598437)scale(0.1 -0.1)">
       <use xlink:href="#DejaVuSans-32"/>
       <use xlink:href="#DejaVuSans-30" x="63.623047"/>
       <use xlink:href="#DejaVuSans-30" x="127.246094"/>
       <use xlink:href="#DejaVuSans-30" x="190.869141"/>
      </g>
     </g>
    </g>
    <g id="xtick_20">
     <g id="line2d_44">
      <g>
       <use xlink:href="#m89f02fa366" x="521.877904" y="630" style="stroke: #000000; stroke-width: 0.8"/>
      </g>
     </g>
     <g id="text_41">
      <!-- 4000 -->
      <g transform="translate(509.152904 644.598437)scale(0.1 -0.1)">
       <use xlink:href="#DejaVuSans-34"/>
       <use xlink:href="#DejaVuSans-30" x="63.623047"/>
       <use xlink:href="#DejaVuSans-30" x="127.246094"/>
       <use xlink:href="#DejaVuSans-30" x="190.869141"/>
      </g>
     </g>
    </g>
    <g id="xtick_21">
     <g id="line2d_45">
      <g>
       <use xlink:href="#m89f02fa366" x="579.885077" y="630" style="stroke: #000000; stroke-width: 0.8"/>
      </g>
     </g>
     <g id="text_42">
      <!-- 6000 -->
      <g transform="translate(567.160077 644.598437)scale(0.1 -0.1)">
       <use xlink:href="#DejaVuSans-36"/>
       <use xlink:href="#DejaVuSans-30" x="63.623047"/>
       <use xlink:href="#DejaVuSans-30" x="127.246094"/>
       <use xlink:href="#DejaVuSans-30" x="190.869141"/>
      </g>
     </g>
    </g>
    <g id="xtick_22">
     <g id="line2d_46">
      <g>
       <use xlink:href="#m89f02fa366" x="637.89225" y="630" style="stroke: #000000; stroke-width: 0.8"/>
      </g>
     </g>
     <g id="text_43">
      <!-- 8000 -->
      <g transform="translate(625.16725 644.598437)scale(0.1 -0.1)">
       <use xlink:href="#DejaVuSans-38"/>
       <use xlink:href="#DejaVuSans-30" x="63.623047"/>
       <use xlink:href="#DejaVuSans-30" x="127.246094"/>
       <use xlink:href="#DejaVuSans-30" x="190.869141"/>
      </g>
     </g>
    </g>
   </g>
   <g id="matplotlib.axis_8">
    <g id="ytick_21">
     <g id="line2d_47">
      <g>
       <use xlink:href="#m2de2e546a1" x="394.363636" y="603.013979" style="stroke: #000000; stroke-width: 0.8"/>
      </g>
     </g>
     <g id="text_44">
      <!-- 0.0 -->
      <g transform="translate(371.460511 606.813198)scale(0.1 -0.1)">
       <use xlink:href="#DejaVuSans-30"/>
       <use xlink:href="#DejaVuSans-2e" x="63.623047"/>
       <use xlink:href="#DejaVuSans-30" x="95.410156"/>
      </g>
     </g>
    </g>
    <g id="ytick_22">
     <g id="line2d_48">
      <g>
       <use xlink:href="#m2de2e546a1" x="394.363636" y="569.281454" style="stroke: #000000; stroke-width: 0.8"/>
      </g>
     </g>
     <g id="text_45">
      <!-- 2.5 -->
      <g transform="translate(371.460511 573.080673)scale(0.1 -0.1)">
       <use xlink:href="#DejaVuSans-32"/>
       <use xlink:href="#DejaVuSans-2e" x="63.623047"/>
       <use xlink:href="#DejaVuSans-35" x="95.410156"/>
      </g>
     </g>
    </g>
    <g id="ytick_23">
     <g id="line2d_49">
      <g>
       <use xlink:href="#m2de2e546a1" x="394.363636" y="535.548928" style="stroke: #000000; stroke-width: 0.8"/>
      </g>
     </g>
     <g id="text_46">
      <!-- 5.0 -->
      <g transform="translate(371.460511 539.348147)scale(0.1 -0.1)">
       <use xlink:href="#DejaVuSans-35"/>
       <use xlink:href="#DejaVuSans-2e" x="63.623047"/>
       <use xlink:href="#DejaVuSans-30" x="95.410156"/>
      </g>
     </g>
    </g>
    <g id="ytick_24">
     <g id="line2d_50">
      <g>
       <use xlink:href="#m2de2e546a1" x="394.363636" y="501.816402" style="stroke: #000000; stroke-width: 0.8"/>
      </g>
     </g>
     <g id="text_47">
      <!-- 7.5 -->
      <g transform="translate(371.460511 505.615621)scale(0.1 -0.1)">
       <defs>
        <path id="DejaVuSans-37" d="M 525 4666 
L 3525 4666 
L 3525 4397 
L 1831 0 
L 1172 0 
L 2766 4134 
L 525 4134 
L 525 4666 
z
" transform="scale(0.015625)"/>
       </defs>
       <use xlink:href="#DejaVuSans-37"/>
       <use xlink:href="#DejaVuSans-2e" x="63.623047"/>
       <use xlink:href="#DejaVuSans-35" x="95.410156"/>
      </g>
     </g>
    </g>
    <g id="ytick_25">
     <g id="line2d_51">
      <g>
       <use xlink:href="#m2de2e546a1" x="394.363636" y="468.083877" style="stroke: #000000; stroke-width: 0.8"/>
      </g>
     </g>
     <g id="text_48">
      <!-- 10.0 -->
      <g transform="translate(365.098011 471.883095)scale(0.1 -0.1)">
       <use xlink:href="#DejaVuSans-31"/>
       <use xlink:href="#DejaVuSans-30" x="63.623047"/>
       <use xlink:href="#DejaVuSans-2e" x="127.246094"/>
       <use xlink:href="#DejaVuSans-30" x="159.033203"/>
      </g>
     </g>
    </g>
    <g id="ytick_26">
     <g id="line2d_52">
      <g>
       <use xlink:href="#m2de2e546a1" x="394.363636" y="434.351351" style="stroke: #000000; stroke-width: 0.8"/>
      </g>
     </g>
     <g id="text_49">
      <!-- 12.5 -->
      <g transform="translate(365.098011 438.15057)scale(0.1 -0.1)">
       <use xlink:href="#DejaVuSans-31"/>
       <use xlink:href="#DejaVuSans-32" x="63.623047"/>
       <use xlink:href="#DejaVuSans-2e" x="127.246094"/>
       <use xlink:href="#DejaVuSans-35" x="159.033203"/>
      </g>
     </g>
    </g>
    <g id="ytick_27">
     <g id="line2d_53">
      <g>
       <use xlink:href="#m2de2e546a1" x="394.363636" y="400.618825" style="stroke: #000000; stroke-width: 0.8"/>
      </g>
     </g>
     <g id="text_50">
      <!-- 15.0 -->
      <g transform="translate(365.098011 404.418044)scale(0.1 -0.1)">
       <use xlink:href="#DejaVuSans-31"/>
       <use xlink:href="#DejaVuSans-35" x="63.623047"/>
       <use xlink:href="#DejaVuSans-2e" x="127.246094"/>
       <use xlink:href="#DejaVuSans-30" x="159.033203"/>
      </g>
     </g>
    </g>
   </g>
   <g id="line2d_54">
    <path d="M 405.892562 579.553641 
L 407.342741 569.732937 
L 408.792921 495.144632 
L 410.2431 437.650433 
L 411.693279 536.605566 
L 413.105173 721 
M 415.152538 721 
L 416.043817 671.614075 
L 417.493997 625.460202 
L 418.944176 609.759263 
L 420.394355 604.230658 
L 421.844535 602.939305 
L 423.294714 600.746319 
L 424.744893 589.62214 
L 426.195073 558.511023 
L 427.645252 507.323351 
L 429.095431 517.845758 
L 430.54561 669.524189 
L 431.241482 721 
M 433.152247 721 
L 433.445969 706.828008 
L 434.896148 613.829383 
L 436.346328 550.198209 
L 437.796507 519.590394 
L 439.246686 607.764602 
L 440.599495 721 
M 442.168313 721 
L 443.597224 639.461437 
L 445.047404 600.970757 
L 446.497583 603.577898 
L 447.947762 602.77915 
L 449.397942 589.837834 
L 450.848121 580.003131 
L 452.2983 589.015311 
L 453.74848 599.889945 
L 455.198659 602.771231 
L 456.648838 603.486149 
L 458.099018 609.425901 
L 459.549197 638.805411 
L 460.999376 696.346471 
L 461.912533 721 
M 465.917025 721 
L 466.800094 691.774288 
L 468.250273 637.165443 
L 469.700452 612.377891 
L 471.150632 616.943633 
L 472.600811 622.854294 
L 474.05099 622.216047 
L 475.501169 613.382353 
L 476.951349 605.317481 
L 478.401528 604.206574 
L 479.851707 615.152933 
L 481.301887 655.86879 
L 482.752066 683.99229 
L 484.202245 644.787221 
L 485.652425 609.855774 
L 487.102604 589.759254 
L 488.552783 567.18148 
L 490.002963 558.773582 
L 491.453142 548.448341 
L 492.903321 521.307013 
L 494.353501 511.319297 
L 495.80368 552.696069 
L 497.253859 567.388264 
L 498.704039 498.324368 
L 500.154218 407.812259 
L 501.604397 382.909091 
L 503.054577 427.791295 
L 505.954935 558.802969 
L 507.405115 593.876681 
L 510.305473 603.844598 
L 511.755653 661.565115 
L 512.827489 721 
M 518.230194 721 
L 519.006549 672.719607 
L 520.456729 623.098246 
L 521.906908 632.144198 
L 523.357087 637.189473 
L 524.807266 604.687953 
L 526.257446 596.274551 
L 527.707625 607.180301 
L 529.157804 610.85441 
L 530.607984 619.441795 
L 532.058163 621.651127 
L 533.508342 612.010951 
L 534.958522 604.81133 
L 536.408701 603.154936 
L 537.85888 603.018117 
L 555.261032 603.041062 
L 556.711212 603.910825 
L 558.161391 613.93979 
L 559.61157 651.980066 
L 561.06175 683.745409 
L 562.511929 651.96494 
L 563.962108 613.480038 
L 565.412288 599.171393 
L 566.862467 592.292406 
L 568.312646 632.198817 
L 569.762826 696.054387 
L 571.213005 653.143243 
L 572.663184 554.032041 
L 574.113363 507.912969 
L 575.563543 541.962011 
L 577.013722 555.949617 
L 578.463901 537.022937 
L 579.914081 557.692505 
L 581.36426 596.263238 
L 582.814439 615.301631 
L 584.264619 614.344915 
L 585.714798 600.323325 
L 587.164977 577.021908 
L 588.615157 571.650613 
L 592.965695 617.806906 
L 594.415874 627.702591 
L 597.316233 594.837056 
L 598.766412 572.827202 
L 600.216591 513.380961 
L 601.666771 493.895209 
L 603.11695 569.75165 
L 604.567129 632.377984 
L 606.017309 629.041418 
L 607.467488 613.760179 
L 608.917667 607.383117 
L 610.367847 606.300092 
L 611.818026 607.22626 
L 613.268205 605.533074 
L 614.718385 603.575647 
L 616.168564 603.060084 
L 617.618743 603.042162 
L 619.068923 603.901144 
L 620.519102 613.82186 
L 621.969281 651.451541 
L 623.41946 682.873188 
L 624.86964 651.424047 
L 626.319819 613.486915 
L 627.769998 602.400022 
L 629.220178 600.564635 
L 630.670357 601.473046 
L 632.120536 602.194035 
L 635.020895 599.389659 
L 636.471074 600.35537 
L 636.471074 600.35537 
" clip-path="url(#pba1b754eb8)" style="fill: none; stroke: #1f77b4; stroke-width: 1.5; stroke-linecap: square"/>
   </g>
   <g id="patch_18">
    <path d="M 394.363636 630 
L 394.363636 382.909091 
" style="fill: none; stroke: #000000; stroke-width: 0.8; stroke-linejoin: miter; stroke-linecap: square"/>
   </g>
   <g id="patch_19">
    <path d="M 648 630 
L 648 382.909091 
" style="fill: none; stroke: #000000; stroke-width: 0.8; stroke-linejoin: miter; stroke-linecap: square"/>
   </g>
   <g id="patch_20">
    <path d="M 394.363636 630 
L 648 630 
" style="fill: none; stroke: #000000; stroke-width: 0.8; stroke-linejoin: miter; stroke-linecap: square"/>
   </g>
   <g id="patch_21">
    <path d="M 394.363636 382.909091 
L 648 382.909091 
" style="fill: none; stroke: #000000; stroke-width: 0.8; stroke-linejoin: miter; stroke-linecap: square"/>
   </g>
   <g id="text_51">
    <!-- explained variance -->
    <g transform="translate(464.181818 376.909091)scale(0.12 -0.12)">
     <defs>
      <path id="DejaVuSans-65" d="M 3597 1894 
L 3597 1613 
L 953 1613 
Q 991 1019 1311 708 
Q 1631 397 2203 397 
Q 2534 397 2845 478 
Q 3156 559 3463 722 
L 3463 178 
Q 3153 47 2828 -22 
Q 2503 -91 2169 -91 
Q 1331 -91 842 396 
Q 353 884 353 1716 
Q 353 2575 817 3079 
Q 1281 3584 2069 3584 
Q 2775 3584 3186 3129 
Q 3597 2675 3597 1894 
z
M 3022 2063 
Q 3016 2534 2758 2815 
Q 2500 3097 2075 3097 
Q 1594 3097 1305 2825 
Q 1016 2553 972 2059 
L 3022 2063 
z
" transform="scale(0.015625)"/>
      <path id="DejaVuSans-78" d="M 3513 3500 
L 2247 1797 
L 3578 0 
L 2900 0 
L 1881 1375 
L 863 0 
L 184 0 
L 1544 1831 
L 300 3500 
L 978 3500 
L 1906 2253 
L 2834 3500 
L 3513 3500 
z
" transform="scale(0.015625)"/>
      <path id="DejaVuSans-70" d="M 1159 525 
L 1159 -1331 
L 581 -1331 
L 581 3500 
L 1159 3500 
L 1159 2969 
Q 1341 3281 1617 3432 
Q 1894 3584 2278 3584 
Q 2916 3584 3314 3078 
Q 3713 2572 3713 1747 
Q 3713 922 3314 415 
Q 2916 -91 2278 -91 
Q 1894 -91 1617 61 
Q 1341 213 1159 525 
z
M 3116 1747 
Q 3116 2381 2855 2742 
Q 2594 3103 2138 3103 
Q 1681 3103 1420 2742 
Q 1159 2381 1159 1747 
Q 1159 1113 1420 752 
Q 1681 391 2138 391 
Q 2594 391 2855 752 
Q 3116 1113 3116 1747 
z
" transform="scale(0.015625)"/>
      <path id="DejaVuSans-6c" d="M 603 4863 
L 1178 4863 
L 1178 0 
L 603 0 
L 603 4863 
z
" transform="scale(0.015625)"/>
      <path id="DejaVuSans-61" d="M 2194 1759 
Q 1497 1759 1228 1600 
Q 959 1441 959 1056 
Q 959 750 1161 570 
Q 1363 391 1709 391 
Q 2188 391 2477 730 
Q 2766 1069 2766 1631 
L 2766 1759 
L 2194 1759 
z
M 3341 1997 
L 3341 0 
L 2766 0 
L 2766 531 
Q 2569 213 2275 61 
Q 1981 -91 1556 -91 
Q 1019 -91 701 211 
Q 384 513 384 1019 
Q 384 1609 779 1909 
Q 1175 2209 1959 2209 
L 2766 2209 
L 2766 2266 
Q 2766 2663 2505 2880 
Q 2244 3097 1772 3097 
Q 1472 3097 1187 3025 
Q 903 2953 641 2809 
L 641 3341 
Q 956 3463 1253 3523 
Q 1550 3584 1831 3584 
Q 2591 3584 2966 3190 
Q 3341 2797 3341 1997 
z
" transform="scale(0.015625)"/>
      <path id="DejaVuSans-64" d="M 2906 2969 
L 2906 4863 
L 3481 4863 
L 3481 0 
L 2906 0 
L 2906 525 
Q 2725 213 2448 61 
Q 2172 -91 1784 -91 
Q 1150 -91 751 415 
Q 353 922 353 1747 
Q 353 2572 751 3078 
Q 1150 3584 1784 3584 
Q 2172 3584 2448 3432 
Q 2725 3281 2906 2969 
z
M 947 1747 
Q 947 1113 1208 752 
Q 1469 391 1925 391 
Q 2381 391 2643 752 
Q 2906 1113 2906 1747 
Q 2906 2381 2643 2742 
Q 2381 3103 1925 3103 
Q 1469 3103 1208 2742 
Q 947 2381 947 1747 
z
" transform="scale(0.015625)"/>
      <path id="DejaVuSans-20" transform="scale(0.015625)"/>
      <path id="DejaVuSans-76" d="M 191 3500 
L 800 3500 
L 1894 563 
L 2988 3500 
L 3597 3500 
L 2284 0 
L 1503 0 
L 191 3500 
z
" transform="scale(0.015625)"/>
      <path id="DejaVuSans-72" d="M 2631 2963 
Q 2534 3019 2420 3045 
Q 2306 3072 2169 3072 
Q 1681 3072 1420 2755 
Q 1159 2438 1159 1844 
L 1159 0 
L 581 0 
L 581 3500 
L 1159 3500 
L 1159 2956 
Q 1341 3275 1631 3429 
Q 1922 3584 2338 3584 
Q 2397 3584 2469 3576 
Q 2541 3569 2628 3553 
L 2631 2963 
z
" transform="scale(0.015625)"/>
      <path id="DejaVuSans-63" d="M 3122 3366 
L 3122 2828 
Q 2878 2963 2633 3030 
Q 2388 3097 2138 3097 
Q 1578 3097 1268 2742 
Q 959 2388 959 1747 
Q 959 1106 1268 751 
Q 1578 397 2138 397 
Q 2388 397 2633 464 
Q 2878 531 3122 666 
L 3122 134 
Q 2881 22 2623 -34 
Q 2366 -91 2075 -91 
Q 1284 -91 818 406 
Q 353 903 353 1747 
Q 353 2603 823 3093 
Q 1294 3584 2113 3584 
Q 2378 3584 2631 3529 
Q 2884 3475 3122 3366 
z
" transform="scale(0.015625)"/>
     </defs>
     <use xlink:href="#DejaVuSans-65"/>
     <use xlink:href="#DejaVuSans-78" x="59.773438"/>
     <use xlink:href="#DejaVuSans-70" x="118.953125"/>
     <use xlink:href="#DejaVuSans-6c" x="182.429688"/>
     <use xlink:href="#DejaVuSans-61" x="210.212891"/>
     <use xlink:href="#DejaVuSans-69" x="271.492188"/>
     <use xlink:href="#DejaVuSans-6e" x="299.275391"/>
     <use xlink:href="#DejaVuSans-65" x="362.654297"/>
     <use xlink:href="#DejaVuSans-64" x="424.177734"/>
     <use xlink:href="#DejaVuSans-20" x="487.654297"/>
     <use xlink:href="#DejaVuSans-76" x="519.441406"/>
     <use xlink:href="#DejaVuSans-61" x="578.621094"/>
     <use xlink:href="#DejaVuSans-72" x="639.900391"/>
     <use xlink:href="#DejaVuSans-69" x="681.013672"/>
     <use xlink:href="#DejaVuSans-61" x="708.796875"/>
     <use xlink:href="#DejaVuSans-6e" x="770.076172"/>
     <use xlink:href="#DejaVuSans-63" x="833.455078"/>
     <use xlink:href="#DejaVuSans-65" x="888.435547"/>
    </g>
   </g>
  </g>
 </g>
 <defs>
  <clipPath id="pd0c2ae1090">
   <rect x="394.363636" y="86.4" width="253.636364" height="247.090909"/>
  </clipPath>
  <clipPath id="pba1b754eb8">
   <rect x="394.363636" y="382.909091" width="253.636364" height="247.090909"/>
  </clipPath>
 </defs>
</svg>
