<?xml version="1.0" encoding="utf-8" standalone="no"?>
<!DOCTYPE svg PUBLIC "-//W3C//DTD SVG 1.1//EN"
  "http://www.w3.org/Graphics/SVG/1.1/DTD/svg11.dtd">
<svg xmlns:xlink="http://www.w3.org/1999/xlink" width="720pt" height="720pt" viewBox="0 0 720 720" xmlns="http://www.w3.org/2000/svg" version="1.1">
 <metadata>
  <rdf:RDF xmlns:dc="http://purl.org/dc/elements/1.1/" xmlns:cc="http://creativecommons.org/ns#" xmlns:rdf="http://www.w3.org/1999/02/22-rdf-syntax-ns#">
   <cc:Work>
    <dc:type rdf:resource="http://purl.org/dc/dcmitype/StillImage"/>
    <dc:date>2023-12-19T18:23:24.762568</dc:date>
    <dc:format>image/svg+xml</dc:format>
    <dc:creator>
     <cc:Agent>
      <dc:title>Matplotlib v3.5.2, https://matplotlib.org/</dc:title>
     </cc:Agent>
    </dc:creator>
   </cc:Work>
  </rdf:RDF>
 </metadata>
 <defs>
  <style type="text/css">*{stroke-linejoin: round; stroke-linecap: butt}</style>
 </defs>
 <g id="figure_1">
  <g id="patch_1">
   <path d="M 0 720 
L 720 720 
L 720 0 
L 0 0 
z
" style="fill: #ffffff"/>
  </g>
  <g id="axes_1">
   <g id="patch_2">
    <path d="M 90 333.490909 
L 343.636364 333.490909 
L 343.636364 86.4 
L 90 86.4 
z
" style="fill: #ffffff"/>
   </g>
   <g id="matplotlib.axis_1">
    <g id="xtick_1">
     <g id="line2d_1">
      <defs>
       <path id="m64ed8f6a94" d="M 0 0 
L 0 3.5 
" style="stroke: #000000; stroke-width: 0.8"/>
      </defs>
      <g>
       <use xlink:href="#m64ed8f6a94" x="90" y="333.490909" style="stroke: #000000; stroke-width: 0.8"/>
      </g>
     </g>
     <g id="text_1">
      <!-- 0.0 -->
      <g transform="translate(82.048438 348.089347)scale(0.1 -0.1)">
       <defs>
        <path id="DejaVuSans-30" d="M 2034 4250 
Q 1547 4250 1301 3770 
Q 1056 3291 1056 2328 
Q 1056 1369 1301 889 
Q 1547 409 2034 409 
Q 2525 409 2770 889 
Q 3016 1369 3016 2328 
Q 3016 3291 2770 3770 
Q 2525 4250 2034 4250 
z
M 2034 4750 
Q 2819 4750 3233 4129 
Q 3647 3509 3647 2328 
Q 3647 1150 3233 529 
Q 2819 -91 2034 -91 
Q 1250 -91 836 529 
Q 422 1150 422 2328 
Q 422 3509 836 4129 
Q 1250 4750 2034 4750 
z
" transform="scale(0.015625)"/>
        <path id="DejaVuSans-2e" d="M 684 794 
L 1344 794 
L 1344 0 
L 684 0 
L 684 794 
z
" transform="scale(0.015625)"/>
       </defs>
       <use xlink:href="#DejaVuSans-30"/>
       <use xlink:href="#DejaVuSans-2e" x="63.623047"/>
       <use xlink:href="#DejaVuSans-30" x="95.410156"/>
      </g>
     </g>
    </g>
    <g id="xtick_2">
     <g id="line2d_2">
      <g>
       <use xlink:href="#m64ed8f6a94" x="140.727273" y="333.490909" style="stroke: #000000; stroke-width: 0.8"/>
      </g>
     </g>
     <g id="text_2">
      <!-- 0.2 -->
      <g transform="translate(132.77571 348.089347)scale(0.1 -0.1)">
       <defs>
        <path id="DejaVuSans-32" d="M 1228 531 
L 3431 531 
L 3431 0 
L 469 0 
L 469 531 
Q 828 903 1448 1529 
Q 2069 2156 2228 2338 
Q 2531 2678 2651 2914 
Q 2772 3150 2772 3378 
Q 2772 3750 2511 3984 
Q 2250 4219 1831 4219 
Q 1534 4219 1204 4116 
Q 875 4013 500 3803 
L 500 4441 
Q 881 4594 1212 4672 
Q 1544 4750 1819 4750 
Q 2544 4750 2975 4387 
Q 3406 4025 3406 3419 
Q 3406 3131 3298 2873 
Q 3191 2616 2906 2266 
Q 2828 2175 2409 1742 
Q 1991 1309 1228 531 
z
" transform="scale(0.015625)"/>
       </defs>
       <use xlink:href="#DejaVuSans-30"/>
       <use xlink:href="#DejaVuSans-2e" x="63.623047"/>
       <use xlink:href="#DejaVuSans-32" x="95.410156"/>
      </g>
     </g>
    </g>
    <g id="xtick_3">
     <g id="line2d_3">
      <g>
       <use xlink:href="#m64ed8f6a94" x="191.454545" y="333.490909" style="stroke: #000000; stroke-width: 0.8"/>
      </g>
     </g>
     <g id="text_3">
      <!-- 0.4 -->
      <g transform="translate(183.502983 348.089347)scale(0.1 -0.1)">
       <defs>
        <path id="DejaVuSans-34" d="M 2419 4116 
L 825 1625 
L 2419 1625 
L 2419 4116 
z
M 2253 4666 
L 3047 4666 
L 3047 1625 
L 3713 1625 
L 3713 1100 
L 3047 1100 
L 3047 0 
L 2419 0 
L 2419 1100 
L 313 1100 
L 313 1709 
L 2253 4666 
z
" transform="scale(0.015625)"/>
       </defs>
       <use xlink:href="#DejaVuSans-30"/>
       <use xlink:href="#DejaVuSans-2e" x="63.623047"/>
       <use xlink:href="#DejaVuSans-34" x="95.410156"/>
      </g>
     </g>
    </g>
    <g id="xtick_4">
     <g id="line2d_4">
      <g>
       <use xlink:href="#m64ed8f6a94" x="242.181818" y="333.490909" style="stroke: #000000; stroke-width: 0.8"/>
      </g>
     </g>
     <g id="text_4">
      <!-- 0.6 -->
      <g transform="translate(234.230256 348.089347)scale(0.1 -0.1)">
       <defs>
        <path id="DejaVuSans-36" d="M 2113 2584 
Q 1688 2584 1439 2293 
Q 1191 2003 1191 1497 
Q 1191 994 1439 701 
Q 1688 409 2113 409 
Q 2538 409 2786 701 
Q 3034 994 3034 1497 
Q 3034 2003 2786 2293 
Q 2538 2584 2113 2584 
z
M 3366 4563 
L 3366 3988 
Q 3128 4100 2886 4159 
Q 2644 4219 2406 4219 
Q 1781 4219 1451 3797 
Q 1122 3375 1075 2522 
Q 1259 2794 1537 2939 
Q 1816 3084 2150 3084 
Q 2853 3084 3261 2657 
Q 3669 2231 3669 1497 
Q 3669 778 3244 343 
Q 2819 -91 2113 -91 
Q 1303 -91 875 529 
Q 447 1150 447 2328 
Q 447 3434 972 4092 
Q 1497 4750 2381 4750 
Q 2619 4750 2861 4703 
Q 3103 4656 3366 4563 
z
" transform="scale(0.015625)"/>
       </defs>
       <use xlink:href="#DejaVuSans-30"/>
       <use xlink:href="#DejaVuSans-2e" x="63.623047"/>
       <use xlink:href="#DejaVuSans-36" x="95.410156"/>
      </g>
     </g>
    </g>
    <g id="xtick_5">
     <g id="line2d_5">
      <g>
       <use xlink:href="#m64ed8f6a94" x="292.909091" y="333.490909" style="stroke: #000000; stroke-width: 0.8"/>
      </g>
     </g>
     <g id="text_5">
      <!-- 0.8 -->
      <g transform="translate(284.957528 348.089347)scale(0.1 -0.1)">
       <defs>
        <path id="DejaVuSans-38" d="M 2034 2216 
Q 1584 2216 1326 1975 
Q 1069 1734 1069 1313 
Q 1069 891 1326 650 
Q 1584 409 2034 409 
Q 2484 409 2743 651 
Q 3003 894 3003 1313 
Q 3003 1734 2745 1975 
Q 2488 2216 2034 2216 
z
M 1403 2484 
Q 997 2584 770 2862 
Q 544 3141 544 3541 
Q 544 4100 942 4425 
Q 1341 4750 2034 4750 
Q 2731 4750 3128 4425 
Q 3525 4100 3525 3541 
Q 3525 3141 3298 2862 
Q 3072 2584 2669 2484 
Q 3125 2378 3379 2068 
Q 3634 1759 3634 1313 
Q 3634 634 3220 271 
Q 2806 -91 2034 -91 
Q 1263 -91 848 271 
Q 434 634 434 1313 
Q 434 1759 690 2068 
Q 947 2378 1403 2484 
z
M 1172 3481 
Q 1172 3119 1398 2916 
Q 1625 2713 2034 2713 
Q 2441 2713 2670 2916 
Q 2900 3119 2900 3481 
Q 2900 3844 2670 4047 
Q 2441 4250 2034 4250 
Q 1625 4250 1398 4047 
Q 1172 3844 1172 3481 
z
" transform="scale(0.015625)"/>
       </defs>
       <use xlink:href="#DejaVuSans-30"/>
       <use xlink:href="#DejaVuSans-2e" x="63.623047"/>
       <use xlink:href="#DejaVuSans-38" x="95.410156"/>
      </g>
     </g>
    </g>
    <g id="xtick_6">
     <g id="line2d_6">
      <g>
       <use xlink:href="#m64ed8f6a94" x="343.636364" y="333.490909" style="stroke: #000000; stroke-width: 0.8"/>
      </g>
     </g>
     <g id="text_6">
      <!-- 1.0 -->
      <g transform="translate(335.684801 348.089347)scale(0.1 -0.1)">
       <defs>
        <path id="DejaVuSans-31" d="M 794 531 
L 1825 531 
L 1825 4091 
L 703 3866 
L 703 4441 
L 1819 4666 
L 2450 4666 
L 2450 531 
L 3481 531 
L 3481 0 
L 794 0 
L 794 531 
z
" transform="scale(0.015625)"/>
       </defs>
       <use xlink:href="#DejaVuSans-31"/>
       <use xlink:href="#DejaVuSans-2e" x="63.623047"/>
       <use xlink:href="#DejaVuSans-30" x="95.410156"/>
      </g>
     </g>
    </g>
   </g>
   <g id="matplotlib.axis_2">
    <g id="ytick_1">
     <g id="line2d_7">
      <defs>
       <path id="m4d20bda352" d="M 0 0 
L -3.5 0 
" style="stroke: #000000; stroke-width: 0.8"/>
      </defs>
      <g>
       <use xlink:href="#m4d20bda352" x="90" y="333.490909" style="stroke: #000000; stroke-width: 0.8"/>
      </g>
     </g>
     <g id="text_7">
      <!-- 0.0 -->
      <g transform="translate(67.096875 337.290128)scale(0.1 -0.1)">
       <use xlink:href="#DejaVuSans-30"/>
       <use xlink:href="#DejaVuSans-2e" x="63.623047"/>
       <use xlink:href="#DejaVuSans-30" x="95.410156"/>
      </g>
     </g>
    </g>
    <g id="ytick_2">
     <g id="line2d_8">
      <g>
       <use xlink:href="#m4d20bda352" x="90" y="284.072727" style="stroke: #000000; stroke-width: 0.8"/>
      </g>
     </g>
     <g id="text_8">
      <!-- 0.2 -->
      <g transform="translate(67.096875 287.871946)scale(0.1 -0.1)">
       <use xlink:href="#DejaVuSans-30"/>
       <use xlink:href="#DejaVuSans-2e" x="63.623047"/>
       <use xlink:href="#DejaVuSans-32" x="95.410156"/>
      </g>
     </g>
    </g>
    <g id="ytick_3">
     <g id="line2d_9">
      <g>
       <use xlink:href="#m4d20bda352" x="90" y="234.654545" style="stroke: #000000; stroke-width: 0.8"/>
      </g>
     </g>
     <g id="text_9">
      <!-- 0.4 -->
      <g transform="translate(67.096875 238.453764)scale(0.1 -0.1)">
       <use xlink:href="#DejaVuSans-30"/>
       <use xlink:href="#DejaVuSans-2e" x="63.623047"/>
       <use xlink:href="#DejaVuSans-34" x="95.410156"/>
      </g>
     </g>
    </g>
    <g id="ytick_4">
     <g id="line2d_10">
      <g>
       <use xlink:href="#m4d20bda352" x="90" y="185.236364" style="stroke: #000000; stroke-width: 0.8"/>
      </g>
     </g>
     <g id="text_10">
      <!-- 0.6 -->
      <g transform="translate(67.096875 189.035582)scale(0.1 -0.1)">
       <use xlink:href="#DejaVuSans-30"/>
       <use xlink:href="#DejaVuSans-2e" x="63.623047"/>
       <use xlink:href="#DejaVuSans-36" x="95.410156"/>
      </g>
     </g>
    </g>
    <g id="ytick_5">
     <g id="line2d_11">
      <g>
       <use xlink:href="#m4d20bda352" x="90" y="135.818182" style="stroke: #000000; stroke-width: 0.8"/>
      </g>
     </g>
     <g id="text_11">
      <!-- 0.8 -->
      <g transform="translate(67.096875 139.617401)scale(0.1 -0.1)">
       <use xlink:href="#DejaVuSans-30"/>
       <use xlink:href="#DejaVuSans-2e" x="63.623047"/>
       <use xlink:href="#DejaVuSans-38" x="95.410156"/>
      </g>
     </g>
    </g>
    <g id="ytick_6">
     <g id="line2d_12">
      <g>
       <use xlink:href="#m4d20bda352" x="90" y="86.4" style="stroke: #000000; stroke-width: 0.8"/>
      </g>
     </g>
     <g id="text_12">
      <!-- 1.0 -->
      <g transform="translate(67.096875 90.199219)scale(0.1 -0.1)">
       <use xlink:href="#DejaVuSans-31"/>
       <use xlink:href="#DejaVuSans-2e" x="63.623047"/>
       <use xlink:href="#DejaVuSans-30" x="95.410156"/>
      </g>
     </g>
    </g>
   </g>
   <g id="patch_3">
    <path d="M 90 333.490909 
L 90 86.4 
" style="fill: none; stroke: #000000; stroke-width: 0.8; stroke-linejoin: miter; stroke-linecap: square"/>
   </g>
   <g id="patch_4">
    <path d="M 343.636364 333.490909 
L 343.636364 86.4 
" style="fill: none; stroke: #000000; stroke-width: 0.8; stroke-linejoin: miter; stroke-linecap: square"/>
   </g>
   <g id="patch_5">
    <path d="M 90 333.490909 
L 343.636364 333.490909 
" style="fill: none; stroke: #000000; stroke-width: 0.8; stroke-linejoin: miter; stroke-linecap: square"/>
   </g>
   <g id="patch_6">
    <path d="M 90 86.4 
L 343.636364 86.4 
" style="fill: none; stroke: #000000; stroke-width: 0.8; stroke-linejoin: miter; stroke-linecap: square"/>
   </g>
  </g>
  <g id="axes_2">
   <g id="patch_7">
    <path d="M 394.363636 333.490909 
L 648 333.490909 
L 648 86.4 
L 394.363636 86.4 
z
" style="fill: #ffffff"/>
   </g>
   <g id="PolyCollection_1">
    <defs>
     <path id="mafb28fb14a" d="M 405.892562 -451.369728 
L 405.892562 -451.369728 
L 407.342741 -451.359789 
L 408.792921 -451.310483 
L 410.2431 -451.120063 
L 411.693279 -450.553168 
L 413.143459 -449.265916 
L 414.593638 -447.07174 
L 416.043817 -444.3674 
L 417.493997 -439.502118 
L 418.944176 -439.634743 
L 420.394355 -440.441692 
L 421.844535 -444.480914 
L 423.294714 -443.824843 
L 424.744893 -447.567378 
L 426.195073 -445.965975 
L 427.645252 -447.492249 
L 429.095431 -450.487123 
L 430.54561 -451.043022 
L 431.99579 -451.298605 
L 433.445969 -451.372955 
L 434.896148 -451.384502 
L 436.346328 -451.402237 
L 437.796507 -451.480853 
L 439.246686 -451.706246 
L 440.696866 -452.174191 
L 442.147045 -452.8713 
L 443.597224 -453.553788 
L 445.047404 -447.784322 
L 446.497583 -453.553788 
L 447.947762 -452.8713 
L 449.397942 -452.174191 
L 450.848121 -451.705993 
L 452.2983 -451.479957 
L 453.74848 -451.398771 
L 455.198659 -451.376707 
L 456.648838 -451.372127 
L 458.099018 -451.371297 
L 459.549197 -451.371297 
L 460.999376 -451.371297 
L 462.449556 -451.371297 
L 463.899735 -451.371297 
L 465.349914 -451.371297 
L 466.800094 -451.371297 
L 468.250273 -451.371297 
L 469.700452 -451.371297 
L 471.150632 -451.371297 
L 472.600811 -451.371297 
L 474.05099 -451.371297 
L 475.501169 -451.371297 
L 476.951349 -451.371297 
L 478.401528 -451.371297 
L 479.851707 -451.371297 
L 481.301887 -451.371259 
L 482.752066 -451.370676 
L 484.202245 -451.367602 
L 485.652425 -451.353943 
L 487.102604 -451.307002 
L 488.552783 -451.18367 
L 490.002963 -450.940665 
L 491.453142 -450.595087 
L 492.903321 -446.964079 
L 494.353501 -446.755039 
L 495.80368 -450.318455 
L 497.253859 -450.658107 
L 498.704039 -450.993896 
L 500.154218 -451.215383 
L 501.604397 -451.321036 
L 503.054577 -451.358659 
L 504.504756 -451.368819 
L 505.954935 -451.370923 
L 507.405115 -451.371297 
L 508.855294 -451.371297 
L 510.305473 -451.371297 
L 511.755653 -451.371297 
L 513.205832 -451.371297 
L 514.656011 -451.371297 
L 516.106191 -451.371297 
L 517.55637 -451.371297 
L 519.006549 -451.371297 
L 520.456729 -451.371297 
L 521.906908 -451.371297 
L 523.357087 -451.371297 
L 524.807266 -451.371297 
L 526.257446 -451.371297 
L 527.707625 -451.371297 
L 529.157804 -451.371297 
L 530.607984 -451.371297 
L 532.058163 -451.371297 
L 533.508342 -451.371297 
L 534.958522 -451.37563 
L 536.408701 -451.399549 
L 537.85888 -451.514771 
L 539.30906 -451.943893 
L 540.759239 -453.158233 
L 542.209418 -455.775928 
L 543.659598 -460.096177 
L 545.109777 -465.744367 
L 546.559956 -466.038323 
L 548.010136 -479.614899 
L 549.460315 -488.135022 
L 550.910494 -490.333401 
L 552.360674 -495.123266 
L 553.810853 -494.983836 
L 555.261032 -499.979846 
L 556.711212 -503.019105 
L 558.161391 -506.408268 
L 559.61157 -515.719303 
L 561.06175 -522.739926 
L 562.511929 -524.891797 
L 563.962108 -524.880587 
L 565.412288 -524.305523 
L 566.862467 -521.599699 
L 568.312646 -518.297743 
L 569.762826 -512.038904 
L 571.213005 -504.357146 
L 572.663184 -494.040028 
L 574.113363 -487.564321 
L 575.563543 -471.793092 
L 577.013722 -467.868989 
L 578.463901 -460.575326 
L 579.914081 -455.699077 
L 581.36426 -453.039515 
L 582.814439 -451.888017 
L 584.264619 -451.497964 
L 585.714798 -451.395373 
L 587.164977 -451.374989 
L 588.615157 -451.371297 
L 590.065336 -451.371297 
L 591.515515 -451.371297 
L 592.965695 -451.371297 
L 594.415874 -451.371297 
L 595.866053 -451.371297 
L 597.316233 -451.371297 
L 598.766412 -451.371335 
L 600.216591 -451.371545 
L 601.666771 -451.372556 
L 603.11695 -451.376276 
L 604.567129 -451.386633 
L 606.017309 -451.408085 
L 607.467488 -451.440027 
L 608.917667 -451.471298 
L 610.367847 -449.983925 
L 611.818026 -451.471298 
L 613.268205 -451.440027 
L 614.718385 -451.408085 
L 616.168564 -451.386633 
L 617.618743 -451.376276 
L 619.068923 -451.372556 
L 620.519102 -451.371545 
L 621.969281 -451.371335 
L 623.41946 -451.371297 
L 624.86964 -451.371297 
L 626.319819 -451.371297 
L 627.769998 -451.371297 
L 629.220178 -451.371297 
L 630.670357 -451.371297 
L 632.120536 -451.371297 
L 633.570716 -451.371297 
L 635.020895 -451.371297 
L 636.471074 -451.371297 
L 636.471074 -451.371297 
L 636.471074 -451.371297 
L 635.020895 -451.371297 
L 633.570716 -451.371297 
L 632.120536 -451.371297 
L 630.670357 -451.371297 
L 629.220178 -451.371297 
L 627.769998 -451.371297 
L 626.319819 -451.371297 
L 624.86964 -451.371297 
L 623.41946 -451.371297 
L 621.969281 -451.371335 
L 620.519102 -451.371545 
L 619.068923 -451.372556 
L 617.618743 -451.376276 
L 616.168564 -451.386633 
L 614.718385 -451.408085 
L 613.268205 -451.440027 
L 611.818026 -451.471298 
L 610.367847 -452.985301 
L 608.917667 -451.471298 
L 607.467488 -451.440027 
L 606.017309 -451.408085 
L 604.567129 -451.386633 
L 603.11695 -451.376276 
L 601.666771 -451.372556 
L 600.216591 -451.371545 
L 598.766412 -451.371335 
L 597.316233 -451.371297 
L 595.866053 -451.371297 
L 594.415874 -451.371297 
L 592.965695 -451.371297 
L 591.515515 -451.371297 
L 590.065336 -451.371297 
L 588.615157 -451.371297 
L 587.164977 -451.374989 
L 585.714798 -451.395373 
L 584.264619 -451.497964 
L 582.814439 -451.888017 
L 581.36426 -453.039515 
L 579.914081 -455.699077 
L 578.463901 -460.575326 
L 577.013722 -467.868989 
L 575.563543 -482.481756 
L 574.113363 -487.564321 
L 572.663184 -502.306937 
L 571.213005 -511.469012 
L 569.762826 -519.777828 
L 568.312646 -525.171574 
L 566.862467 -529.397386 
L 565.412288 -531.210158 
L 563.962108 -533.233925 
L 562.511929 -533.266969 
L 561.06175 -530.064526 
L 559.61157 -524.020084 
L 558.161391 -515.118826 
L 556.711212 -503.019105 
L 555.261032 -499.979846 
L 553.810853 -506.380595 
L 552.360674 -505.947671 
L 550.910494 -501.863968 
L 549.460315 -488.135022 
L 548.010136 -479.614899 
L 546.559956 -478.358607 
L 545.109777 -465.744367 
L 543.659598 -460.096177 
L 542.209418 -455.775928 
L 540.759239 -453.158233 
L 539.30906 -451.943893 
L 537.85888 -451.514771 
L 536.408701 -451.399549 
L 534.958522 -451.37563 
L 533.508342 -451.371297 
L 532.058163 -451.371297 
L 530.607984 -451.371297 
L 529.157804 -451.371297 
L 527.707625 -451.371297 
L 526.257446 -451.371297 
L 524.807266 -451.371297 
L 523.357087 -451.371297 
L 521.906908 -451.371297 
L 520.456729 -451.371297 
L 519.006549 -451.371297 
L 517.55637 -451.371297 
L 516.106191 -451.371297 
L 514.656011 -451.371297 
L 513.205832 -451.371297 
L 511.755653 -451.371297 
L 510.305473 -451.371297 
L 508.855294 -451.371297 
L 507.405115 -451.371297 
L 505.954935 -451.370923 
L 504.504756 -451.368819 
L 503.054577 -451.358659 
L 501.604397 -451.321036 
L 500.154218 -451.215383 
L 498.704039 -450.993896 
L 497.253859 -450.658107 
L 495.80368 -450.318455 
L 494.353501 -453.557397 
L 492.903321 -453.58393 
L 491.453142 -450.595087 
L 490.002963 -450.940665 
L 488.552783 -451.18367 
L 487.102604 -451.307002 
L 485.652425 -451.353943 
L 484.202245 -451.367602 
L 482.752066 -451.370676 
L 481.301887 -451.371259 
L 479.851707 -451.371297 
L 478.401528 -451.371297 
L 476.951349 -451.371297 
L 475.501169 -451.371297 
L 474.05099 -451.371297 
L 472.600811 -451.371297 
L 471.150632 -451.371297 
L 469.700452 -451.371297 
L 468.250273 -451.371297 
L 466.800094 -451.371297 
L 465.349914 -451.371297 
L 463.899735 -451.371297 
L 462.449556 -451.371297 
L 460.999376 -451.371297 
L 459.549197 -451.371297 
L 458.099018 -451.371297 
L 456.648838 -451.372127 
L 455.198659 -451.376707 
L 453.74848 -451.398771 
L 452.2983 -451.479957 
L 450.848121 -451.705993 
L 449.397942 -452.174191 
L 447.947762 -452.8713 
L 446.497583 -453.553788 
L 445.047404 -459.904444 
L 443.597224 -453.553788 
L 442.147045 -452.8713 
L 440.696866 -452.174191 
L 439.246686 -451.706246 
L 437.796507 -451.480853 
L 436.346328 -451.402237 
L 434.896148 -451.384502 
L 433.445969 -451.372955 
L 431.99579 -451.298605 
L 430.54561 -451.043022 
L 429.095431 -450.487123 
L 427.645252 -451.781642 
L 426.195073 -451.31199 
L 424.744893 -447.567378 
L 423.294714 -448.661897 
L 421.844535 -444.480914 
L 420.394355 -444.781337 
L 418.944176 -443.512465 
L 417.493997 -444.89185 
L 416.043817 -444.3674 
L 414.593638 -447.07174 
L 413.143459 -449.265916 
L 411.693279 -450.553168 
L 410.2431 -451.120063 
L 408.792921 -451.310483 
L 407.342741 -451.359789 
L 405.892562 -451.369728 
z
" style="stroke: #9467bd; stroke-opacity: 0.2"/>
    </defs>
    <g clip-path="url(#p685f2dd8e7)">
     <use xlink:href="#mafb28fb14a" x="0" y="720" style="fill: #9467bd; fill-opacity: 0.2; stroke: #9467bd; stroke-opacity: 0.2"/>
    </g>
   </g>
   <g id="PolyCollection_2">
    <defs>
     <path id="mc4fe5c9a39" d="M 405.892562 -451.371297 
L 405.892562 -451.371297 
L 407.342741 -451.371297 
L 408.792921 -451.371297 
L 410.2431 -451.37127 
L 411.693279 -451.371121 
L 413.143459 -451.370186 
L 414.593638 -451.366347 
L 416.043817 -451.353224 
L 417.493997 -451.316768 
L 418.944176 -451.235005 
L 420.394355 -451.090388 
L 421.844535 -450.494164 
L 423.294714 -450.721991 
L 424.744893 -449.500431 
L 426.195073 -450.613677 
L 427.645252 -450.453154 
L 429.095431 -449.848716 
L 430.54561 -448.636618 
L 431.99579 -446.470591 
L 433.445969 -441.902236 
L 434.896148 -442.532634 
L 436.346328 -446.53475 
L 437.796507 -446.948037 
L 439.246686 -448.327701 
L 440.696866 -449.859537 
L 442.147045 -448.964977 
L 443.597224 -448.499067 
L 445.047404 -450.829286 
L 446.497583 -451.063867 
L 447.947762 -451.229375 
L 449.397942 -451.318734 
L 450.848121 -451.355841 
L 452.2983 -451.367698 
L 453.74848 -451.370634 
L 455.198659 -451.37122 
L 456.648838 -451.371297 
L 458.099018 -451.371297 
L 459.549197 -451.371297 
L 460.999376 -451.371297 
L 462.449556 -451.370601 
L 463.899735 -451.366758 
L 465.349914 -451.348246 
L 466.800094 -451.280129 
L 468.250273 -451.090479 
L 469.700452 -450.69765 
L 471.150632 -450.112759 
L 472.600811 -449.539913 
L 474.05099 -444.766599 
L 475.501169 -449.532706 
L 476.951349 -450.084052 
L 478.401528 -450.612896 
L 479.851707 -450.905036 
L 481.301887 -450.998765 
L 482.752066 -451.127188 
L 484.202245 -449.858963 
L 485.652425 -451.719432 
L 487.102604 -450.937889 
L 488.552783 -452.445836 
L 490.002963 -453.208027 
L 491.453142 -449.640914 
L 492.903321 -455.992446 
L 494.353501 -458.22317 
L 495.80368 -462.130421 
L 497.253859 -466.231636 
L 498.704039 -439.827233 
L 500.154218 -465.953873 
L 501.604397 -461.382091 
L 503.054577 -456.727929 
L 504.504756 -453.60399 
L 505.954935 -452.096146 
L 507.405115 -451.554568 
L 508.855294 -451.407385 
L 510.305473 -451.376831 
L 511.755653 -451.371297 
L 513.205832 -451.371297 
L 514.656011 -451.371297 
L 516.106191 -451.371297 
L 517.55637 -451.371297 
L 519.006549 -451.371297 
L 520.456729 -451.371297 
L 521.906908 -451.371297 
L 523.357087 -451.371297 
L 524.807266 -451.371297 
L 526.257446 -451.371297 
L 527.707625 -451.371297 
L 529.157804 -451.371297 
L 530.607984 -451.371297 
L 532.058163 -451.371297 
L 533.508342 -451.371152 
L 534.958522 -451.370351 
L 536.408701 -451.366492 
L 537.85888 -451.352293 
L 539.30906 -451.312761 
L 540.759239 -451.230876 
L 542.209418 -451.108956 
L 543.659598 -450.989593 
L 545.109777 -449.516965 
L 546.559956 -450.989593 
L 548.010136 -451.108956 
L 549.460315 -451.230876 
L 550.910494 -451.312761 
L 552.360674 -451.352293 
L 553.810853 -451.366492 
L 555.261032 -451.370351 
L 556.711212 -451.371152 
L 558.161391 -451.371297 
L 559.61157 -451.371297 
L 561.06175 -451.371297 
L 562.511929 -451.371297 
L 563.962108 -451.371297 
L 565.412288 -451.371297 
L 566.862467 -451.371297 
L 568.312646 -451.371297 
L 569.762826 -451.371297 
L 571.213005 -451.371297 
L 572.663184 -451.371297 
L 574.113363 -451.371297 
L 575.563543 -451.371297 
L 577.013722 -451.371297 
L 578.463901 -451.371297 
L 579.914081 -451.371297 
L 581.36426 -451.371297 
L 582.814439 -451.371297 
L 584.264619 -451.371297 
L 585.714798 -451.371297 
L 587.164977 -451.371297 
L 588.615157 -451.371297 
L 590.065336 -451.371297 
L 591.515515 -451.371297 
L 592.965695 -451.374681 
L 594.415874 -451.393365 
L 595.866053 -451.483365 
L 597.316233 -451.814536 
L 598.766412 -452.736567 
L 600.216591 -454.64641 
L 601.666771 -457.490014 
L 603.11695 -460.277317 
L 604.567129 -443.835994 
L 606.017309 -460.430686 
L 607.467488 -458.183982 
L 608.917667 -457.106698 
L 610.367847 -459.821379 
L 611.818026 -468.618205 
L 613.268205 -484.852828 
L 614.718385 -492.518764 
L 616.168564 -521.154324 
L 617.618743 -544.727013 
L 619.068923 -561.117587 
L 620.519102 -572.668894 
L 621.969281 -572.489475 
L 623.41946 -572.181523 
L 624.86964 -562.892164 
L 626.319819 -554.236372 
L 627.769998 -541.068727 
L 629.220178 -528.688547 
L 630.670357 -521.730438 
L 632.120536 -517.304438 
L 633.570716 -512.547403 
L 635.020895 -506.024575 
L 636.471074 -503.746235 
L 636.471074 -539.411965 
L 636.471074 -539.411965 
L 635.020895 -543.494039 
L 633.570716 -547.337216 
L 632.120536 -554.30611 
L 630.670357 -562.114729 
L 629.220178 -569.258409 
L 627.769998 -574.982292 
L 626.319819 -584.532162 
L 624.86964 -600.616894 
L 623.41946 -612.368522 
L 621.969281 -622.368595 
L 620.519102 -616.03893 
L 619.068923 -602.661876 
L 617.618743 -577.341927 
L 616.168564 -548.597534 
L 614.718385 -523.371693 
L 613.268205 -484.852828 
L 611.818026 -468.618205 
L 610.367847 -459.821379 
L 608.917667 -457.106698 
L 607.467488 -458.183982 
L 606.017309 -460.430686 
L 604.567129 -479.137872 
L 603.11695 -460.277317 
L 601.666771 -457.490014 
L 600.216591 -454.64641 
L 598.766412 -452.736567 
L 597.316233 -451.814536 
L 595.866053 -451.483365 
L 594.415874 -451.393365 
L 592.965695 -451.374681 
L 591.515515 -451.371297 
L 590.065336 -451.371297 
L 588.615157 -451.371297 
L 587.164977 -451.371297 
L 585.714798 -451.371297 
L 584.264619 -451.371297 
L 582.814439 -451.371297 
L 581.36426 -451.371297 
L 579.914081 -451.371297 
L 578.463901 -451.371297 
L 577.013722 -451.371297 
L 575.563543 -451.371297 
L 574.113363 -451.371297 
L 572.663184 -451.371297 
L 571.213005 -451.371297 
L 569.762826 -451.371297 
L 568.312646 -451.371297 
L 566.862467 -451.371297 
L 565.412288 -451.371297 
L 563.962108 -451.371297 
L 562.511929 -451.371297 
L 561.06175 -451.371297 
L 559.61157 -451.371297 
L 558.161391 -451.371297 
L 556.711212 -451.371152 
L 555.261032 -451.370351 
L 553.810853 -451.366492 
L 552.360674 -451.352293 
L 550.910494 -451.312761 
L 549.460315 -451.230876 
L 548.010136 -451.108956 
L 546.559956 -450.989593 
L 545.109777 -452.360573 
L 543.659598 -450.989593 
L 542.209418 -451.108956 
L 540.759239 -451.230876 
L 539.30906 -451.312761 
L 537.85888 -451.352293 
L 536.408701 -451.366492 
L 534.958522 -451.370351 
L 533.508342 -451.371152 
L 532.058163 -451.371297 
L 530.607984 -451.371297 
L 529.157804 -451.371297 
L 527.707625 -451.371297 
L 526.257446 -451.371297 
L 524.807266 -451.371297 
L 523.357087 -451.371297 
L 521.906908 -451.371297 
L 520.456729 -451.371297 
L 519.006549 -451.371297 
L 517.55637 -451.371297 
L 516.106191 -451.371297 
L 514.656011 -451.371297 
L 513.205832 -451.371297 
L 511.755653 -451.371297 
L 510.305473 -451.376831 
L 508.855294 -451.407385 
L 507.405115 -451.554568 
L 505.954935 -452.096146 
L 504.504756 -453.60399 
L 503.054577 -456.727929 
L 501.604397 -461.382091 
L 500.154218 -465.953873 
L 498.704039 -496.100768 
L 497.253859 -466.231636 
L 495.80368 -462.130421 
L 494.353501 -458.22317 
L 492.903321 -455.992446 
L 491.453142 -460.759297 
L 490.002963 -456.538514 
L 488.552783 -456.196936 
L 487.102604 -455.879594 
L 485.652425 -453.027313 
L 484.202245 -453.249473 
L 482.752066 -451.127188 
L 481.301887 -450.998765 
L 479.851707 -450.905036 
L 478.401528 -450.612896 
L 476.951349 -450.084052 
L 475.501169 -449.532706 
L 474.05099 -453.823011 
L 472.600811 -449.539913 
L 471.150632 -450.112759 
L 469.700452 -450.69765 
L 468.250273 -451.090479 
L 466.800094 -451.280129 
L 465.349914 -451.348246 
L 463.899735 -451.366758 
L 462.449556 -451.370601 
L 460.999376 -451.371297 
L 459.549197 -451.371297 
L 458.099018 -451.371297 
L 456.648838 -451.371297 
L 455.198659 -451.37122 
L 453.74848 -451.370634 
L 452.2983 -451.367698 
L 450.848121 -451.355841 
L 449.397942 -451.318734 
L 447.947762 -451.229375 
L 446.497583 -451.063867 
L 445.047404 -450.829286 
L 443.597224 -452.630756 
L 442.147045 -451.591857 
L 440.696866 -449.859537 
L 439.246686 -449.870109 
L 437.796507 -448.845463 
L 436.346328 -446.53475 
L 434.896148 -448.809375 
L 433.445969 -449.841823 
L 431.99579 -447.689003 
L 430.54561 -448.636618 
L 429.095431 -449.848716 
L 427.645252 -450.453154 
L 426.195073 -450.613677 
L 424.744893 -451.771884 
L 423.294714 -450.721991 
L 421.844535 -451.301179 
L 420.394355 -451.090388 
L 418.944176 -451.235005 
L 417.493997 -451.316768 
L 416.043817 -451.353224 
L 414.593638 -451.366347 
L 413.143459 -451.370186 
L 411.693279 -451.371121 
L 410.2431 -451.37127 
L 408.792921 -451.371297 
L 407.342741 -451.371297 
L 405.892562 -451.371297 
z
" style="stroke: #1f77b4; stroke-opacity: 0.2"/>
    </defs>
    <g clip-path="url(#p685f2dd8e7)">
     <use xlink:href="#mc4fe5c9a39" x="0" y="720" style="fill: #1f77b4; fill-opacity: 0.2; stroke: #1f77b4; stroke-opacity: 0.2"/>
    </g>
   </g>
   <g id="PolyCollection_3">
    <defs>
     <path id="mbe5caa903d" d="M 405.892562 -496.6803 
L 405.892562 -483.484706 
L 407.342741 -483.449811 
L 408.792921 -482.123275 
L 410.2431 -481.91496 
L 411.693279 -479.826652 
L 413.143459 -477.321584 
L 414.593638 -472.017481 
L 416.043817 -465.579463 
L 417.493997 -464.140484 
L 418.944176 -458.368767 
L 420.394355 -454.5263 
L 421.844535 -452.524642 
L 423.294714 -451.709581 
L 424.744893 -451.450216 
L 426.195073 -451.385687 
L 427.645252 -451.37312 
L 429.095431 -451.371297 
L 430.54561 -451.371297 
L 431.99579 -451.371297 
L 433.445969 -451.371297 
L 434.896148 -451.371297 
L 436.346328 -451.371297 
L 437.796507 -451.371297 
L 439.246686 -451.371297 
L 440.696866 -451.371297 
L 442.147045 -451.371297 
L 443.597224 -451.371297 
L 445.047404 -451.371297 
L 446.497583 -451.371297 
L 447.947762 -451.371297 
L 449.397942 -451.371297 
L 450.848121 -451.368864 
L 452.2983 -451.353428 
L 453.74848 -451.274965 
L 455.198659 -450.965986 
L 456.648838 -450.01733 
L 458.099018 -447.742434 
L 459.549197 -443.465666 
L 460.999376 -437.117243 
L 462.449556 -421.8937 
L 463.899735 -414.290932 
L 465.349914 -408.738823 
L 466.800094 -404.179567 
L 468.250273 -401.594956 
L 469.700452 -402.110729 
L 471.150632 -403.111315 
L 472.600811 -406.592463 
L 474.05099 -417.111249 
L 475.501169 -411.816661 
L 476.951349 -414.013758 
L 478.401528 -416.150661 
L 479.851707 -420.529171 
L 481.301887 -426.828331 
L 482.752066 -438.602223 
L 484.202245 -444.261971 
L 485.652425 -448.104982 
L 487.102604 -450.153099 
L 488.552783 -451.007299 
L 490.002963 -451.285024 
L 491.453142 -451.355269 
L 492.903321 -451.36915 
L 494.353501 -451.36895 
L 495.80368 -451.355995 
L 497.253859 -451.293585 
L 498.704039 -451.063941 
L 500.154218 -450.421639 
L 501.604397 -449.078561 
L 503.054577 -447.014707 
L 504.504756 -444.729822 
L 505.954935 -434.055915 
L 507.405115 -441.338914 
L 508.855294 -439.37589 
L 510.305473 -436.794172 
L 511.755653 -425.26259 
L 513.205832 -427.501682 
L 514.656011 -437.728046 
L 516.106191 -439.657095 
L 517.55637 -438.529512 
L 519.006549 -433.716415 
L 520.456729 -420.834772 
L 521.906908 -414.827665 
L 523.357087 -410.636886 
L 524.807266 -407.597776 
L 526.257446 -408.825569 
L 527.707625 -409.72523 
L 529.157804 -413.094905 
L 530.607984 -417.68667 
L 532.058163 -423.773349 
L 533.508342 -422.29449 
L 534.958522 -413.788448 
L 536.408701 -406.149505 
L 537.85888 -400.271665 
L 539.30906 -397.740496 
L 540.759239 -399.696157 
L 542.209418 -404.208898 
L 543.659598 -410.791234 
L 545.109777 -421.8314 
L 546.559956 -424.607441 
L 548.010136 -420.650449 
L 549.460315 -422.569858 
L 550.910494 -429.495355 
L 552.360674 -430.740934 
L 553.810853 -429.990446 
L 555.261032 -424.166044 
L 556.711212 -426.307737 
L 558.161391 -435.412178 
L 559.61157 -441.541732 
L 561.06175 -446.564875 
L 562.511929 -449.510012 
L 563.962108 -450.783164 
L 565.412288 -451.124209 
L 566.862467 -450.897369 
L 568.312646 -449.941973 
L 569.762826 -447.758395 
L 571.213005 -443.969885 
L 572.663184 -438.82279 
L 574.113363 -428.492046 
L 575.563543 -428.069907 
L 577.013722 -418.085207 
L 578.463901 -414.600197 
L 579.914081 -412.208444 
L 581.36426 -411.688283 
L 582.814439 -411.551377 
L 584.264619 -411.576986 
L 585.714798 -410.541641 
L 587.164977 -412.329875 
L 588.615157 -414.603782 
L 590.065336 -416.852188 
L 591.515515 -421.14984 
L 592.965695 -426.427906 
L 594.415874 -436.35197 
L 595.866053 -434.890162 
L 597.316233 -439.493757 
L 598.766412 -445.160349 
L 600.216591 -446.584175 
L 601.666771 -443.263061 
L 603.11695 -448.636577 
L 604.567129 -449.591917 
L 606.017309 -450.263962 
L 607.467488 -450.421945 
L 608.917667 -450.051015 
L 610.367847 -449.394925 
L 611.818026 -446.370192 
L 613.268205 -446.448074 
L 614.718385 -449.356089 
L 616.168564 -450.097586 
L 617.618743 -450.735934 
L 619.068923 -451.121504 
L 620.519102 -451.29401 
L 621.969281 -451.352506 
L 623.41946 -451.367712 
L 624.86964 -451.370809 
L 626.319819 -451.371297 
L 627.769998 -451.371297 
L 629.220178 -451.371297 
L 630.670357 -451.371297 
L 632.120536 -451.371297 
L 633.570716 -451.371297 
L 635.020895 -451.371297 
L 636.471074 -451.371297 
L 636.471074 -451.371297 
L 636.471074 -451.371297 
L 635.020895 -451.371297 
L 633.570716 -451.371297 
L 632.120536 -451.371297 
L 630.670357 -451.371297 
L 629.220178 -451.371297 
L 627.769998 -451.371297 
L 626.319819 -451.371297 
L 624.86964 -451.370809 
L 623.41946 -451.367712 
L 621.969281 -451.352506 
L 620.519102 -451.29401 
L 619.068923 -451.121504 
L 617.618743 -450.735934 
L 616.168564 -450.097586 
L 614.718385 -449.356089 
L 613.268205 -451.254365 
L 611.818026 -451.38045 
L 610.367847 -449.394925 
L 608.917667 -450.051015 
L 607.467488 -450.421945 
L 606.017309 -450.263962 
L 604.567129 -449.591917 
L 603.11695 -448.636577 
L 601.666771 -452.018249 
L 600.216591 -446.584175 
L 598.766412 -445.160349 
L 597.316233 -446.612273 
L 595.866053 -445.344222 
L 594.415874 -436.35197 
L 592.965695 -437.514993 
L 591.515515 -433.873569 
L 590.065336 -430.375961 
L 588.615157 -426.715753 
L 587.164977 -425.105062 
L 585.714798 -424.929384 
L 584.264619 -423.60587 
L 582.814439 -424.464214 
L 581.36426 -425.69157 
L 579.914081 -427.093034 
L 578.463901 -427.966396 
L 577.013722 -429.982747 
L 575.563543 -428.069907 
L 574.113363 -437.906781 
L 572.663184 -438.82279 
L 571.213005 -443.969885 
L 569.762826 -447.758395 
L 568.312646 -449.941973 
L 566.862467 -450.897369 
L 565.412288 -451.124209 
L 563.962108 -450.783164 
L 562.511929 -449.510012 
L 561.06175 -446.564875 
L 559.61157 -441.541732 
L 558.161391 -435.412178 
L 556.711212 -434.859904 
L 555.261032 -433.84907 
L 553.810853 -429.990446 
L 552.360674 -430.740934 
L 550.910494 -429.495355 
L 549.460315 -431.91553 
L 548.010136 -430.797019 
L 546.559956 -424.607441 
L 545.109777 -421.8314 
L 543.659598 -422.040365 
L 542.209418 -415.501837 
L 540.759239 -409.851808 
L 539.30906 -408.346732 
L 537.85888 -410.075913 
L 536.408701 -414.813858 
L 534.958522 -420.425322 
L 533.508342 -422.29449 
L 532.058163 -423.773349 
L 530.607984 -425.154368 
L 529.157804 -421.475479 
L 527.707625 -417.915509 
L 526.257446 -415.782343 
L 524.807266 -418.141572 
L 523.357087 -420.284666 
L 521.906908 -425.608804 
L 520.456729 -432.802952 
L 519.006549 -433.716415 
L 517.55637 -438.529512 
L 516.106191 -439.657095 
L 514.656011 -437.728046 
L 513.205832 -443.161673 
L 511.755653 -444.577093 
L 510.305473 -436.794172 
L 508.855294 -439.37589 
L 507.405115 -441.338914 
L 505.954935 -451.666248 
L 504.504756 -444.729822 
L 503.054577 -447.014707 
L 501.604397 -449.078561 
L 500.154218 -450.421639 
L 498.704039 -451.063941 
L 497.253859 -451.293585 
L 495.80368 -451.355995 
L 494.353501 -451.36895 
L 492.903321 -451.36915 
L 491.453142 -451.355269 
L 490.002963 -451.285024 
L 488.552783 -451.007299 
L 487.102604 -450.153099 
L 485.652425 -448.104982 
L 484.202245 -444.261971 
L 482.752066 -438.602223 
L 481.301887 -437.23538 
L 479.851707 -431.533001 
L 478.401528 -427.474148 
L 476.951349 -425.215097 
L 475.501169 -425.236979 
L 474.05099 -417.111249 
L 472.600811 -422.68409 
L 471.150632 -420.437738 
L 469.700452 -417.692638 
L 468.250273 -418.329101 
L 466.800094 -420.092981 
L 465.349914 -423.847289 
L 463.899735 -430.246162 
L 462.449556 -437.269561 
L 460.999376 -437.117243 
L 459.549197 -443.465666 
L 458.099018 -447.742434 
L 456.648838 -450.01733 
L 455.198659 -450.965986 
L 453.74848 -451.274965 
L 452.2983 -451.353428 
L 450.848121 -451.368864 
L 449.397942 -451.371297 
L 447.947762 -451.371297 
L 446.497583 -451.371297 
L 445.047404 -451.371297 
L 443.597224 -451.371297 
L 442.147045 -451.371297 
L 440.696866 -451.371297 
L 439.246686 -451.371297 
L 437.796507 -451.371297 
L 436.346328 -451.371297 
L 434.896148 -451.371297 
L 433.445969 -451.371297 
L 431.99579 -451.371297 
L 430.54561 -451.371297 
L 429.095431 -451.371297 
L 427.645252 -451.37312 
L 426.195073 -451.385687 
L 424.744893 -451.450216 
L 423.294714 -451.709581 
L 421.844535 -452.524642 
L 420.394355 -454.5263 
L 418.944176 -458.368767 
L 417.493997 -464.140484 
L 416.043817 -476.30565 
L 414.593638 -482.565971 
L 413.143459 -486.906526 
L 411.693279 -490.746849 
L 410.2431 -492.67798 
L 408.792921 -495.163758 
L 407.342741 -495.694441 
L 405.892562 -496.6803 
z
" style="stroke: #d62728; stroke-opacity: 0.2"/>
    </defs>
    <g clip-path="url(#p685f2dd8e7)">
     <use xlink:href="#mbe5caa903d" x="0" y="720" style="fill: #d62728; fill-opacity: 0.2; stroke: #d62728; stroke-opacity: 0.2"/>
    </g>
   </g>
   <g id="PolyCollection_4">
    <defs>
     <path id="m3e3301f791" d="M 405.892562 -451.371297 
L 405.892562 -451.371297 
L 407.342741 -451.371297 
L 408.792921 -451.371297 
L 410.2431 -451.371297 
L 411.693279 -451.371297 
L 413.143459 -451.371297 
L 414.593638 -451.371297 
L 416.043817 -451.371297 
L 417.493997 -451.376364 
L 418.944176 -451.409571 
L 420.394355 -451.573214 
L 421.844535 -452.208231 
L 423.294714 -454.100858 
L 424.744893 -458.388932 
L 426.195073 -465.615008 
L 427.645252 -474.253316 
L 429.095431 -462.181402 
L 430.54561 -463.478115 
L 431.99579 -476.939968 
L 433.445969 -470.669158 
L 434.896148 -465.655863 
L 436.346328 -449.728157 
L 437.796507 -459.388235 
L 439.246686 -456.454138 
L 440.696866 -453.84748 
L 442.147045 -451.872806 
L 443.597224 -450.250471 
L 445.047404 -448.448926 
L 446.497583 -442.909655 
L 447.947762 -437.615275 
L 449.397942 -435.424881 
L 450.848121 -432.605314 
L 452.2983 -430.031519 
L 453.74848 -427.416804 
L 455.198659 -429.118911 
L 456.648838 -427.516933 
L 458.099018 -432.492655 
L 459.549197 -435.370897 
L 460.999376 -440.384944 
L 462.449556 -446.621628 
L 463.899735 -448.940616 
L 465.349914 -450.338392 
L 466.800094 -451.012258 
L 468.250273 -451.270361 
L 469.700452 -451.348674 
L 471.150632 -451.369735 
L 472.600811 -451.386647 
L 474.05099 -451.451542 
L 475.501169 -451.688671 
L 476.951349 -452.348879 
L 478.401528 -453.716393 
L 479.851707 -455.752513 
L 481.301887 -457.745929 
L 482.752066 -449.426556 
L 484.202245 -457.74592 
L 485.652425 -455.752421 
L 487.102604 -453.715876 
L 488.552783 -452.345929 
L 490.002963 -451.675656 
L 491.453142 -451.401513 
L 492.903321 -451.219516 
L 494.353501 -450.88331 
L 495.80368 -450.005986 
L 497.253859 -448.206474 
L 498.704039 -446.672387 
L 500.154218 -440.950622 
L 501.604397 -438.73933 
L 503.054577 -437.505209 
L 504.504756 -437.644572 
L 505.954935 -439.576372 
L 507.405115 -434.833057 
L 508.855294 -434.420249 
L 510.305473 -434.949654 
L 511.755653 -440.101328 
L 513.205832 -440.357778 
L 514.656011 -435.443509 
L 516.106191 -434.442151 
L 517.55637 -435.930882 
L 519.006549 -438.459265 
L 520.456729 -445.677469 
L 521.906908 -448.235691 
L 523.357087 -449.945992 
L 524.807266 -450.804594 
L 526.257446 -451.074848 
L 527.707625 -451.026731 
L 529.157804 -450.880935 
L 530.607984 -450.842072 
L 532.058163 -447.489241 
L 533.508342 -448.707964 
L 534.958522 -451.618058 
L 536.408701 -451.679119 
L 537.85888 -451.593683 
L 539.30906 -451.482708 
L 540.759239 -451.412197 
L 542.209418 -451.38257 
L 543.659598 -451.37366 
L 545.109777 -451.371737 
L 546.559956 -451.371297 
L 548.010136 -451.371297 
L 549.460315 -451.371297 
L 550.910494 -451.371297 
L 552.360674 -451.371297 
L 553.810853 -451.371297 
L 555.261032 -451.371297 
L 556.711212 -451.371297 
L 558.161391 -451.371297 
L 559.61157 -451.371297 
L 561.06175 -451.371297 
L 562.511929 -451.371297 
L 563.962108 -451.371297 
L 565.412288 -451.371297 
L 566.862467 -451.371297 
L 568.312646 -451.371297 
L 569.762826 -451.371297 
L 571.213005 -451.371297 
L 572.663184 -451.371297 
L 574.113363 -451.371297 
L 575.563543 -451.371297 
L 577.013722 -451.371297 
L 578.463901 -451.371297 
L 579.914081 -451.371297 
L 581.36426 -451.371297 
L 582.814439 -451.371149 
L 584.264619 -451.37033 
L 585.714798 -451.366386 
L 587.164977 -451.351133 
L 588.615157 -451.30636 
L 590.065336 -451.201434 
L 591.515515 -450.996278 
L 592.965695 -450.641531 
L 594.415874 -448.557794 
L 595.866053 -449.280069 
L 597.316233 -448.356227 
L 598.766412 -445.370916 
L 600.216591 -444.994738 
L 601.666771 -446.569403 
L 603.11695 -443.720104 
L 604.567129 -445.556325 
L 606.017309 -443.377534 
L 607.467488 -443.099049 
L 608.917667 -443.629647 
L 610.367847 -447.425176 
L 611.818026 -448.99408 
L 613.268205 -450.211991 
L 614.718385 -450.918937 
L 616.168564 -451.231292 
L 617.618743 -451.33707 
L 619.068923 -451.364809 
L 620.519102 -451.370359 
L 621.969281 -451.371297 
L 623.41946 -451.371297 
L 624.86964 -451.371297 
L 626.319819 -451.371297 
L 627.769998 -451.371297 
L 629.220178 -451.371297 
L 630.670357 -451.371297 
L 632.120536 -451.371297 
L 633.570716 -451.371297 
L 635.020895 -451.371297 
L 636.471074 -451.371297 
L 636.471074 -451.371297 
L 636.471074 -451.371297 
L 635.020895 -451.371297 
L 633.570716 -451.371297 
L 632.120536 -451.371297 
L 630.670357 -451.371297 
L 629.220178 -451.371297 
L 627.769998 -451.371297 
L 626.319819 -451.371297 
L 624.86964 -451.371297 
L 623.41946 -451.371297 
L 621.969281 -451.371297 
L 620.519102 -451.370359 
L 619.068923 -451.364809 
L 617.618743 -451.33707 
L 616.168564 -451.231292 
L 614.718385 -450.918937 
L 613.268205 -450.211991 
L 611.818026 -448.99408 
L 610.367847 -447.425176 
L 608.917667 -448.32751 
L 607.467488 -447.206141 
L 606.017309 -446.820634 
L 604.567129 -445.556325 
L 603.11695 -448.52307 
L 601.666771 -446.569403 
L 600.216591 -448.941786 
L 598.766412 -449.698093 
L 597.316233 -448.356227 
L 595.866053 -449.280069 
L 594.415874 -451.596557 
L 592.965695 -450.641531 
L 591.515515 -450.996278 
L 590.065336 -451.201434 
L 588.615157 -451.30636 
L 587.164977 -451.351133 
L 585.714798 -451.366386 
L 584.264619 -451.37033 
L 582.814439 -451.371149 
L 581.36426 -451.371297 
L 579.914081 -451.371297 
L 578.463901 -451.371297 
L 577.013722 -451.371297 
L 575.563543 -451.371297 
L 574.113363 -451.371297 
L 572.663184 -451.371297 
L 571.213005 -451.371297 
L 569.762826 -451.371297 
L 568.312646 -451.371297 
L 566.862467 -451.371297 
L 565.412288 -451.371297 
L 563.962108 -451.371297 
L 562.511929 -451.371297 
L 561.06175 -451.371297 
L 559.61157 -451.371297 
L 558.161391 -451.371297 
L 556.711212 -451.371297 
L 555.261032 -451.371297 
L 553.810853 -451.371297 
L 552.360674 -451.371297 
L 550.910494 -451.371297 
L 549.460315 -451.371297 
L 548.010136 -451.371297 
L 546.559956 -451.371297 
L 545.109777 -451.371737 
L 543.659598 -451.37366 
L 542.209418 -451.38257 
L 540.759239 -451.412197 
L 539.30906 -451.482708 
L 537.85888 -451.593683 
L 536.408701 -451.679119 
L 534.958522 -451.618058 
L 533.508342 -454.008617 
L 532.058163 -454.567224 
L 530.607984 -450.842072 
L 529.157804 -450.880935 
L 527.707625 -451.026731 
L 526.257446 -451.074848 
L 524.807266 -450.804594 
L 523.357087 -449.945992 
L 521.906908 -448.235691 
L 520.456729 -445.677469 
L 519.006549 -447.139353 
L 517.55637 -445.126359 
L 516.106191 -444.743002 
L 514.656011 -444.28764 
L 513.205832 -440.357778 
L 511.755653 -440.101328 
L 510.305473 -443.350366 
L 508.855294 -442.507139 
L 507.405115 -442.600126 
L 505.954935 -439.576372 
L 504.504756 -443.105195 
L 503.054577 -444.69528 
L 501.604397 -445.896003 
L 500.154218 -447.665827 
L 498.704039 -446.672387 
L 497.253859 -449.280707 
L 495.80368 -450.268949 
L 494.353501 -450.88331 
L 492.903321 -451.219516 
L 491.453142 -451.401513 
L 490.002963 -451.675656 
L 488.552783 -452.345929 
L 487.102604 -453.715876 
L 485.652425 -455.752421 
L 484.202245 -457.74592 
L 482.752066 -467.762847 
L 481.301887 -457.745929 
L 479.851707 -455.752513 
L 478.401528 -453.716393 
L 476.951349 -452.348879 
L 475.501169 -451.688671 
L 474.05099 -451.451542 
L 472.600811 -451.386647 
L 471.150632 -451.369735 
L 469.700452 -451.348674 
L 468.250273 -451.270361 
L 466.800094 -451.012258 
L 465.349914 -450.338392 
L 463.899735 -448.940616 
L 462.449556 -446.621628 
L 460.999376 -446.658013 
L 459.549197 -444.953262 
L 458.099018 -441.971097 
L 456.648838 -443.063328 
L 455.198659 -440.064498 
L 453.74848 -442.728989 
L 452.2983 -442.897152 
L 450.848121 -444.340859 
L 449.397942 -446.367293 
L 447.947762 -449.499277 
L 446.497583 -449.452181 
L 445.047404 -448.448926 
L 443.597224 -450.250471 
L 442.147045 -451.872806 
L 440.696866 -453.84748 
L 439.246686 -456.454138 
L 437.796507 -459.388235 
L 436.346328 -474.822774 
L 434.896148 -465.655863 
L 433.445969 -470.669158 
L 431.99579 -476.939968 
L 430.54561 -499.325761 
L 429.095431 -499.019312 
L 427.645252 -474.253316 
L 426.195073 -465.615008 
L 424.744893 -458.388932 
L 423.294714 -454.100858 
L 421.844535 -452.208231 
L 420.394355 -451.573214 
L 418.944176 -451.409571 
L 417.493997 -451.376364 
L 416.043817 -451.371297 
L 414.593638 -451.371297 
L 413.143459 -451.371297 
L 411.693279 -451.371297 
L 410.2431 -451.371297 
L 408.792921 -451.371297 
L 407.342741 -451.371297 
L 405.892562 -451.371297 
z
" style="stroke: #ff7f0e; stroke-opacity: 0.2"/>
    </defs>
    <g clip-path="url(#p685f2dd8e7)">
     <use xlink:href="#m3e3301f791" x="0" y="720" style="fill: #ff7f0e; fill-opacity: 0.2; stroke: #ff7f0e; stroke-opacity: 0.2"/>
    </g>
   </g>
   <g id="matplotlib.axis_3">
    <g id="xtick_7">
     <g id="line2d_13">
      <g>
       <use xlink:href="#m64ed8f6a94" x="405.863558" y="333.490909" style="stroke: #000000; stroke-width: 0.8"/>
      </g>
     </g>
     <g id="text_13">
      <!-- 0 -->
      <g transform="translate(402.682308 348.089347)scale(0.1 -0.1)">
       <use xlink:href="#DejaVuSans-30"/>
      </g>
     </g>
    </g>
    <g id="xtick_8">
     <g id="line2d_14">
      <g>
       <use xlink:href="#m64ed8f6a94" x="463.870731" y="333.490909" style="stroke: #000000; stroke-width: 0.8"/>
      </g>
     </g>
     <g id="text_14">
      <!-- 2000 -->
      <g transform="translate(451.145731 348.089347)scale(0.1 -0.1)">
       <use xlink:href="#DejaVuSans-32"/>
       <use xlink:href="#DejaVuSans-30" x="63.623047"/>
       <use xlink:href="#DejaVuSans-30" x="127.246094"/>
       <use xlink:href="#DejaVuSans-30" x="190.869141"/>
      </g>
     </g>
    </g>
    <g id="xtick_9">
     <g id="line2d_15">
      <g>
       <use xlink:href="#m64ed8f6a94" x="521.877904" y="333.490909" style="stroke: #000000; stroke-width: 0.8"/>
      </g>
     </g>
     <g id="text_15">
      <!-- 4000 -->
      <g transform="translate(509.152904 348.089347)scale(0.1 -0.1)">
       <use xlink:href="#DejaVuSans-34"/>
       <use xlink:href="#DejaVuSans-30" x="63.623047"/>
       <use xlink:href="#DejaVuSans-30" x="127.246094"/>
       <use xlink:href="#DejaVuSans-30" x="190.869141"/>
      </g>
     </g>
    </g>
    <g id="xtick_10">
     <g id="line2d_16">
      <g>
       <use xlink:href="#m64ed8f6a94" x="579.885077" y="333.490909" style="stroke: #000000; stroke-width: 0.8"/>
      </g>
     </g>
     <g id="text_16">
      <!-- 6000 -->
      <g transform="translate(567.160077 348.089347)scale(0.1 -0.1)">
       <use xlink:href="#DejaVuSans-36"/>
       <use xlink:href="#DejaVuSans-30" x="63.623047"/>
       <use xlink:href="#DejaVuSans-30" x="127.246094"/>
       <use xlink:href="#DejaVuSans-30" x="190.869141"/>
      </g>
     </g>
    </g>
    <g id="xtick_11">
     <g id="line2d_17">
      <g>
       <use xlink:href="#m64ed8f6a94" x="637.89225" y="333.490909" style="stroke: #000000; stroke-width: 0.8"/>
      </g>
     </g>
     <g id="text_17">
      <!-- 8000 -->
      <g transform="translate(625.16725 348.089347)scale(0.1 -0.1)">
       <use xlink:href="#DejaVuSans-38"/>
       <use xlink:href="#DejaVuSans-30" x="63.623047"/>
       <use xlink:href="#DejaVuSans-30" x="127.246094"/>
       <use xlink:href="#DejaVuSans-30" x="190.869141"/>
      </g>
     </g>
    </g>
   </g>
   <g id="matplotlib.axis_4">
    <g id="ytick_7">
     <g id="line2d_18">
      <g>
       <use xlink:href="#m4d20bda352" x="394.363636" y="314.368689" style="stroke: #000000; stroke-width: 0.8"/>
      </g>
     </g>
     <g id="text_18">
      <!-- −0.5 -->
      <g transform="translate(363.080824 318.167907)scale(0.1 -0.1)">
       <defs>
        <path id="DejaVuSans-2212" d="M 678 2272 
L 4684 2272 
L 4684 1741 
L 678 1741 
L 678 2272 
z
" transform="scale(0.015625)"/>
        <path id="DejaVuSans-35" d="M 691 4666 
L 3169 4666 
L 3169 4134 
L 1269 4134 
L 1269 2991 
Q 1406 3038 1543 3061 
Q 1681 3084 1819 3084 
Q 2600 3084 3056 2656 
Q 3513 2228 3513 1497 
Q 3513 744 3044 326 
Q 2575 -91 1722 -91 
Q 1428 -91 1123 -41 
Q 819 9 494 109 
L 494 744 
Q 775 591 1075 516 
Q 1375 441 1709 441 
Q 2250 441 2565 725 
Q 2881 1009 2881 1497 
Q 2881 1984 2565 2268 
Q 2250 2553 1709 2553 
Q 1456 2553 1204 2497 
Q 953 2441 691 2322 
L 691 4666 
z
" transform="scale(0.015625)"/>
       </defs>
       <use xlink:href="#DejaVuSans-2212"/>
       <use xlink:href="#DejaVuSans-30" x="83.789062"/>
       <use xlink:href="#DejaVuSans-2e" x="147.412109"/>
       <use xlink:href="#DejaVuSans-35" x="179.199219"/>
      </g>
     </g>
    </g>
    <g id="ytick_8">
     <g id="line2d_19">
      <g>
       <use xlink:href="#m4d20bda352" x="394.363636" y="268.628703" style="stroke: #000000; stroke-width: 0.8"/>
      </g>
     </g>
     <g id="text_19">
      <!-- 0.0 -->
      <g transform="translate(371.460511 272.427922)scale(0.1 -0.1)">
       <use xlink:href="#DejaVuSans-30"/>
       <use xlink:href="#DejaVuSans-2e" x="63.623047"/>
       <use xlink:href="#DejaVuSans-30" x="95.410156"/>
      </g>
     </g>
    </g>
    <g id="ytick_9">
     <g id="line2d_20">
      <g>
       <use xlink:href="#m4d20bda352" x="394.363636" y="222.888717" style="stroke: #000000; stroke-width: 0.8"/>
      </g>
     </g>
     <g id="text_20">
      <!-- 0.5 -->
      <g transform="translate(371.460511 226.687936)scale(0.1 -0.1)">
       <use xlink:href="#DejaVuSans-30"/>
       <use xlink:href="#DejaVuSans-2e" x="63.623047"/>
       <use xlink:href="#DejaVuSans-35" x="95.410156"/>
      </g>
     </g>
    </g>
    <g id="ytick_10">
     <g id="line2d_21">
      <g>
       <use xlink:href="#m4d20bda352" x="394.363636" y="177.148731" style="stroke: #000000; stroke-width: 0.8"/>
      </g>
     </g>
     <g id="text_21">
      <!-- 1.0 -->
      <g transform="translate(371.460511 180.94795)scale(0.1 -0.1)">
       <use xlink:href="#DejaVuSans-31"/>
       <use xlink:href="#DejaVuSans-2e" x="63.623047"/>
       <use xlink:href="#DejaVuSans-30" x="95.410156"/>
      </g>
     </g>
    </g>
    <g id="ytick_11">
     <g id="line2d_22">
      <g>
       <use xlink:href="#m4d20bda352" x="394.363636" y="131.408745" style="stroke: #000000; stroke-width: 0.8"/>
      </g>
     </g>
     <g id="text_22">
      <!-- 1.5 -->
      <g transform="translate(371.460511 135.207964)scale(0.1 -0.1)">
       <use xlink:href="#DejaVuSans-31"/>
       <use xlink:href="#DejaVuSans-2e" x="63.623047"/>
       <use xlink:href="#DejaVuSans-35" x="95.410156"/>
      </g>
     </g>
    </g>
   </g>
   <g id="line2d_23">
    <path d="M 405.892562 268.630272 
L 408.792921 268.689517 
L 410.2431 268.879937 
L 411.693279 269.446832 
L 413.143459 270.734084 
L 414.593638 272.92826 
L 416.043817 275.6326 
L 417.493997 277.803016 
L 418.944176 278.426396 
L 420.394355 277.388485 
L 423.294714 273.75663 
L 424.744893 272.432622 
L 427.645252 270.363055 
L 429.095431 269.512877 
L 430.54561 268.956978 
L 431.99579 268.701395 
L 434.896148 268.615498 
L 437.796507 268.519147 
L 439.246686 268.293754 
L 440.696866 267.825809 
L 443.597224 266.446212 
L 445.047404 266.155617 
L 446.497583 266.446212 
L 449.397942 267.825809 
L 450.848121 268.294007 
L 452.2983 268.520043 
L 455.198659 268.623293 
L 488.552783 268.81633 
L 491.453142 269.404913 
L 492.903321 269.725996 
L 494.353501 269.843782 
L 495.80368 269.681545 
L 498.704039 269.006104 
L 500.154218 268.784617 
L 503.054577 268.641341 
L 520.456729 268.628703 
L 536.408701 268.600451 
L 537.85888 268.485229 
L 539.30906 268.056107 
L 540.759239 266.841767 
L 542.209418 264.224072 
L 543.659598 259.903823 
L 545.109777 254.255633 
L 546.559956 247.801535 
L 548.010136 240.385101 
L 550.910494 223.901315 
L 552.360674 219.464532 
L 553.810853 219.317785 
L 555.261032 220.020154 
L 556.711212 216.980895 
L 558.161391 209.236453 
L 559.61157 200.130307 
L 561.06175 193.597774 
L 562.511929 190.920617 
L 563.962108 190.942744 
L 565.412288 192.24216 
L 566.862467 194.501457 
L 568.312646 198.265341 
L 569.762826 204.091634 
L 571.213005 212.086921 
L 572.663184 221.826517 
L 575.563543 242.862576 
L 577.013722 252.131011 
L 578.463901 259.424674 
L 579.914081 264.300923 
L 581.36426 266.960485 
L 582.814439 268.111983 
L 584.264619 268.502036 
L 587.164977 268.625011 
L 606.017309 268.591915 
L 611.818026 268.528702 
L 620.519102 268.628455 
L 636.471074 268.628703 
L 636.471074 268.628703 
" clip-path="url(#p685f2dd8e7)" style="fill: none; stroke: #9467bd; stroke-width: 2; stroke-linecap: square"/>
   </g>
   <g id="line2d_24">
    <path d="M 405.892562 268.628703 
L 417.493997 268.683232 
L 420.394355 268.909612 
L 423.294714 269.278009 
L 427.645252 269.546846 
L 429.095431 270.151284 
L 430.54561 271.363382 
L 431.99579 272.920203 
L 433.445969 274.127971 
L 434.896148 274.328996 
L 436.346328 273.46525 
L 437.796507 272.10325 
L 439.246686 270.901095 
L 440.696866 270.140463 
L 442.147045 269.721583 
L 446.497583 268.936133 
L 449.397942 268.681266 
L 455.198659 268.62878 
L 466.800094 268.719871 
L 468.250273 268.909521 
L 469.700452 269.30235 
L 472.600811 270.460087 
L 474.05099 270.705195 
L 475.501169 270.467294 
L 478.401528 269.387104 
L 479.851707 269.094964 
L 482.752066 268.872812 
L 484.202245 268.445782 
L 485.652425 267.626628 
L 488.552783 265.678614 
L 490.002963 265.126729 
L 491.453142 264.799895 
L 492.903321 264.007554 
L 494.353501 261.77683 
L 497.253859 253.768364 
L 498.704039 252.036 
L 500.154218 254.046127 
L 503.054577 263.272071 
L 504.504756 266.39601 
L 505.954935 267.903854 
L 507.405115 268.445432 
L 508.855294 268.592615 
L 514.656011 268.628703 
L 539.30906 268.687239 
L 546.559956 269.010407 
L 550.910494 268.687239 
L 556.711212 268.628848 
L 595.866053 268.516635 
L 597.316233 268.185464 
L 598.766412 267.263433 
L 600.216591 265.35359 
L 603.11695 259.722683 
L 604.567129 258.513067 
L 606.017309 259.569314 
L 607.467488 261.816018 
L 608.917667 262.893302 
L 610.367847 260.178621 
L 611.818026 251.381795 
L 613.268205 235.147172 
L 614.718385 212.054772 
L 617.618743 158.96553 
L 619.068923 138.110269 
L 620.519102 125.646088 
L 621.969281 122.570965 
L 623.41946 127.724977 
L 624.86964 138.245471 
L 626.319819 150.615733 
L 627.769998 161.974491 
L 629.220178 171.026522 
L 630.670357 178.077417 
L 633.570716 190.057691 
L 635.020895 195.240693 
L 636.471074 198.4209 
L 636.471074 198.4209 
" clip-path="url(#p685f2dd8e7)" style="fill: none; stroke: #1f77b4; stroke-width: 2; stroke-linecap: square"/>
   </g>
   <g id="line2d_25">
    <path d="M 405.892562 229.917497 
L 407.342741 230.427874 
L 408.792921 231.356484 
L 410.2431 232.70353 
L 411.693279 234.713249 
L 413.143459 237.885945 
L 414.593638 242.708274 
L 418.944176 261.631233 
L 420.394355 265.4737 
L 421.844535 267.475358 
L 423.294714 268.290419 
L 424.744893 268.549784 
L 427.645252 268.62688 
L 453.74848 268.725035 
L 455.198659 269.034014 
L 456.648838 269.98267 
L 458.099018 272.257566 
L 459.549197 276.534334 
L 460.999376 282.882757 
L 463.899735 297.731453 
L 465.349914 303.706944 
L 466.800094 307.863726 
L 468.250273 310.037972 
L 469.700452 310.098317 
L 471.150632 308.225473 
L 472.600811 305.361724 
L 474.05099 302.888751 
L 475.501169 301.47318 
L 476.951349 300.385573 
L 478.401528 298.187596 
L 479.851707 293.968914 
L 481.301887 287.968145 
L 482.752066 281.397777 
L 484.202245 275.738029 
L 485.652425 271.895018 
L 487.102604 269.846901 
L 488.552783 268.992701 
L 490.002963 268.714976 
L 492.903321 268.63085 
L 497.253859 268.706415 
L 498.704039 268.936059 
L 500.154218 269.578361 
L 501.604397 270.921439 
L 503.054577 272.985293 
L 504.504756 275.270178 
L 505.954935 277.138918 
L 507.405115 278.661086 
L 508.855294 280.62411 
L 510.305473 283.205828 
L 511.755653 285.080159 
L 513.205832 284.668323 
L 514.656011 282.271954 
L 516.106191 280.342905 
L 517.55637 281.470488 
L 519.006549 286.283585 
L 521.906908 299.781765 
L 523.357087 304.539224 
L 524.807266 307.130326 
L 526.257446 307.696044 
L 527.707625 306.179631 
L 529.157804 302.714808 
L 530.607984 298.579481 
L 532.058163 296.226651 
L 533.508342 297.70551 
L 534.958522 302.893115 
L 536.408701 309.518319 
L 537.85888 314.826211 
L 539.30906 316.956386 
L 540.759239 315.226017 
L 542.209418 310.144633 
L 543.659598 303.5842 
L 545.109777 298.1686 
L 546.559956 295.392559 
L 548.010136 294.276266 
L 549.460315 292.757306 
L 550.910494 290.504645 
L 552.360674 289.259066 
L 553.810853 290.009554 
L 555.261032 290.992443 
L 556.711212 289.416179 
L 558.161391 284.587822 
L 559.61157 278.458268 
L 561.06175 273.435125 
L 562.511929 270.489988 
L 563.962108 269.216836 
L 565.412288 268.875791 
L 566.862467 269.102631 
L 568.312646 270.058027 
L 569.762826 272.241605 
L 571.213005 276.030115 
L 572.663184 281.17721 
L 574.113363 286.800587 
L 575.563543 291.930093 
L 577.013722 295.966023 
L 578.463901 298.716703 
L 579.914081 300.349261 
L 581.36426 301.310074 
L 582.814439 301.992205 
L 584.264619 302.408572 
L 585.714798 302.264487 
L 587.164977 301.282532 
L 588.615157 299.340232 
L 590.065336 296.385925 
L 591.515515 292.488296 
L 594.415874 283.64803 
L 595.866053 279.882808 
L 597.316233 276.946985 
L 598.766412 274.839651 
L 600.216591 273.415825 
L 603.11695 271.363423 
L 604.567129 270.408083 
L 606.017309 269.736038 
L 607.467488 269.578055 
L 608.917667 269.948985 
L 610.367847 270.605075 
L 611.818026 271.124679 
L 613.268205 271.14878 
L 614.718385 270.643911 
L 617.618743 269.264066 
L 619.068923 268.878496 
L 620.519102 268.70599 
L 624.86964 268.629191 
L 636.471074 268.628703 
L 636.471074 268.628703 
" clip-path="url(#p685f2dd8e7)" style="fill: none; stroke: #d62728; stroke-width: 2; stroke-linecap: square"/>
   </g>
   <g id="line2d_26">
    <path d="M 405.892562 268.628703 
L 418.944176 268.590429 
L 420.394355 268.426786 
L 421.844535 267.791769 
L 423.294714 265.899142 
L 424.744893 261.611068 
L 426.195073 254.384992 
L 427.645252 245.746684 
L 429.095431 239.399643 
L 430.54561 238.598062 
L 431.99579 243.060032 
L 433.445969 249.330842 
L 434.896148 254.344137 
L 436.346328 257.724535 
L 440.696866 266.15252 
L 442.147045 268.127194 
L 443.597224 269.749529 
L 445.047404 271.551074 
L 446.497583 273.819082 
L 450.848121 281.526913 
L 452.2983 283.535664 
L 453.74848 284.927103 
L 455.198659 285.408295 
L 456.648838 284.709869 
L 458.099018 282.768124 
L 459.549197 279.837921 
L 462.449556 273.378372 
L 463.899735 271.059384 
L 465.349914 269.661608 
L 466.800094 268.987742 
L 468.250273 268.729639 
L 471.150632 268.630265 
L 474.05099 268.548458 
L 475.501169 268.311329 
L 476.951349 267.651121 
L 478.401528 266.283607 
L 481.301887 262.254071 
L 482.752066 261.405298 
L 484.202245 262.25408 
L 487.102604 266.284124 
L 488.552783 267.654071 
L 490.002963 268.324344 
L 494.353501 269.11669 
L 495.80368 269.862533 
L 497.253859 271.25641 
L 498.704039 273.327613 
L 500.154218 275.691775 
L 501.604397 277.682333 
L 503.054577 278.899756 
L 505.954935 280.423628 
L 507.405115 281.283409 
L 508.855294 281.536306 
L 510.305473 280.84999 
L 511.755653 279.898672 
L 513.205832 279.642222 
L 514.656011 280.134425 
L 516.106191 280.407423 
L 517.55637 279.471379 
L 519.006549 277.200691 
L 520.456729 274.322531 
L 521.906908 271.764309 
L 523.357087 270.054008 
L 524.807266 269.195406 
L 526.257446 268.925152 
L 530.607984 269.157928 
L 532.058163 268.971767 
L 534.958522 268.381942 
L 536.408701 268.320881 
L 542.209418 268.61743 
L 561.06175 268.628703 
L 588.615157 268.69364 
L 591.515515 269.003722 
L 592.965695 269.358469 
L 594.415874 269.922825 
L 597.316233 271.643773 
L 598.766412 272.465496 
L 600.216591 273.031738 
L 603.11695 273.878413 
L 606.017309 274.900916 
L 607.467488 274.847405 
L 608.917667 274.021422 
L 613.268205 269.788009 
L 614.718385 269.081063 
L 616.168564 268.768708 
L 619.068923 268.635191 
L 636.471074 268.628703 
L 636.471074 268.628703 
" clip-path="url(#p685f2dd8e7)" style="fill: none; stroke: #ff7f0e; stroke-width: 2; stroke-linecap: square"/>
   </g>
   <g id="LineCollection_1">
    <path d="M 521.877904 310.385192 
L 521.877904 139.145116 
" clip-path="url(#p685f2dd8e7)" style="fill: none; stroke-dasharray: 7.4,3.2; stroke-dashoffset: 0; stroke: #000000; stroke-width: 2"/>
    <path d="M 536.379697 310.385192 
L 536.379697 139.145116 
" clip-path="url(#p685f2dd8e7)" style="fill: none; stroke-dasharray: 7.4,3.2; stroke-dashoffset: 0; stroke: #000000; stroke-width: 2"/>
    <path d="M 565.383284 310.385192 
L 565.383284 139.145116 
" clip-path="url(#p685f2dd8e7)" style="fill: none; stroke-dasharray: 7.4,3.2; stroke-dashoffset: 0; stroke: #000000; stroke-width: 2"/>
    <path d="M 623.390457 310.385192 
L 623.390457 139.145116 
" clip-path="url(#p685f2dd8e7)" style="fill: none; stroke-dasharray: 7.4,3.2; stroke-dashoffset: 0; stroke: #000000; stroke-width: 2"/>
   </g>
   <g id="patch_8">
    <path d="M 394.363636 333.490909 
L 394.363636 86.4 
" style="fill: none; stroke: #000000; stroke-width: 0.8; stroke-linejoin: miter; stroke-linecap: square"/>
   </g>
   <g id="patch_9">
    <path d="M 648 333.490909 
L 648 86.4 
" style="fill: none; stroke: #000000; stroke-width: 0.8; stroke-linejoin: miter; stroke-linecap: square"/>
   </g>
   <g id="patch_10">
    <path d="M 394.363636 333.490909 
L 648 333.490909 
" style="fill: none; stroke: #000000; stroke-width: 0.8; stroke-linejoin: miter; stroke-linecap: square"/>
   </g>
   <g id="patch_11">
    <path d="M 394.363636 86.4 
L 648 86.4 
" style="fill: none; stroke: #000000; stroke-width: 0.8; stroke-linejoin: miter; stroke-linecap: square"/>
   </g>
   <g id="text_23">
    <!-- unit_113 -->
    <g transform="translate(495.105256 80.4)scale(0.12 -0.12)">
     <defs>
      <path id="DejaVuSans-75" d="M 544 1381 
L 544 3500 
L 1119 3500 
L 1119 1403 
Q 1119 906 1312 657 
Q 1506 409 1894 409 
Q 2359 409 2629 706 
Q 2900 1003 2900 1516 
L 2900 3500 
L 3475 3500 
L 3475 0 
L 2900 0 
L 2900 538 
Q 2691 219 2414 64 
Q 2138 -91 1772 -91 
Q 1169 -91 856 284 
Q 544 659 544 1381 
z
M 1991 3584 
L 1991 3584 
z
" transform="scale(0.015625)"/>
      <path id="DejaVuSans-6e" d="M 3513 2113 
L 3513 0 
L 2938 0 
L 2938 2094 
Q 2938 2591 2744 2837 
Q 2550 3084 2163 3084 
Q 1697 3084 1428 2787 
Q 1159 2491 1159 1978 
L 1159 0 
L 581 0 
L 581 3500 
L 1159 3500 
L 1159 2956 
Q 1366 3272 1645 3428 
Q 1925 3584 2291 3584 
Q 2894 3584 3203 3211 
Q 3513 2838 3513 2113 
z
" transform="scale(0.015625)"/>
      <path id="DejaVuSans-69" d="M 603 3500 
L 1178 3500 
L 1178 0 
L 603 0 
L 603 3500 
z
M 603 4863 
L 1178 4863 
L 1178 4134 
L 603 4134 
L 603 4863 
z
" transform="scale(0.015625)"/>
      <path id="DejaVuSans-74" d="M 1172 4494 
L 1172 3500 
L 2356 3500 
L 2356 3053 
L 1172 3053 
L 1172 1153 
Q 1172 725 1289 603 
Q 1406 481 1766 481 
L 2356 481 
L 2356 0 
L 1766 0 
Q 1100 0 847 248 
Q 594 497 594 1153 
L 594 3053 
L 172 3053 
L 172 3500 
L 594 3500 
L 594 4494 
L 1172 4494 
z
" transform="scale(0.015625)"/>
      <path id="DejaVuSans-5f" d="M 3263 -1063 
L 3263 -1509 
L -63 -1509 
L -63 -1063 
L 3263 -1063 
z
" transform="scale(0.015625)"/>
      <path id="DejaVuSans-33" d="M 2597 2516 
Q 3050 2419 3304 2112 
Q 3559 1806 3559 1356 
Q 3559 666 3084 287 
Q 2609 -91 1734 -91 
Q 1441 -91 1130 -33 
Q 819 25 488 141 
L 488 750 
Q 750 597 1062 519 
Q 1375 441 1716 441 
Q 2309 441 2620 675 
Q 2931 909 2931 1356 
Q 2931 1769 2642 2001 
Q 2353 2234 1838 2234 
L 1294 2234 
L 1294 2753 
L 1863 2753 
Q 2328 2753 2575 2939 
Q 2822 3125 2822 3475 
Q 2822 3834 2567 4026 
Q 2313 4219 1838 4219 
Q 1578 4219 1281 4162 
Q 984 4106 628 3988 
L 628 4550 
Q 988 4650 1302 4700 
Q 1616 4750 1894 4750 
Q 2613 4750 3031 4423 
Q 3450 4097 3450 3541 
Q 3450 3153 3228 2886 
Q 3006 2619 2597 2516 
z
" transform="scale(0.015625)"/>
     </defs>
     <use xlink:href="#DejaVuSans-75"/>
     <use xlink:href="#DejaVuSans-6e" x="63.378906"/>
     <use xlink:href="#DejaVuSans-69" x="126.757812"/>
     <use xlink:href="#DejaVuSans-74" x="154.541016"/>
     <use xlink:href="#DejaVuSans-5f" x="193.75"/>
     <use xlink:href="#DejaVuSans-31" x="243.75"/>
     <use xlink:href="#DejaVuSans-31" x="307.373047"/>
     <use xlink:href="#DejaVuSans-33" x="370.996094"/>
    </g>
   </g>
  </g>
  <g id="axes_3">
   <g id="patch_12">
    <path d="M 90 630 
L 343.636364 630 
L 343.636364 382.909091 
L 90 382.909091 
z
" style="fill: #ffffff"/>
   </g>
   <g id="matplotlib.axis_5">
    <g id="xtick_12">
     <g id="line2d_27">
      <g>
       <use xlink:href="#m64ed8f6a94" x="90" y="630" style="stroke: #000000; stroke-width: 0.8"/>
      </g>
     </g>
     <g id="text_24">
      <!-- 0.0 -->
      <g transform="translate(82.048438 644.598437)scale(0.1 -0.1)">
       <use xlink:href="#DejaVuSans-30"/>
       <use xlink:href="#DejaVuSans-2e" x="63.623047"/>
       <use xlink:href="#DejaVuSans-30" x="95.410156"/>
      </g>
     </g>
    </g>
    <g id="xtick_13">
     <g id="line2d_28">
      <g>
       <use xlink:href="#m64ed8f6a94" x="140.727273" y="630" style="stroke: #000000; stroke-width: 0.8"/>
      </g>
     </g>
     <g id="text_25">
      <!-- 0.2 -->
      <g transform="translate(132.77571 644.598437)scale(0.1 -0.1)">
       <use xlink:href="#DejaVuSans-30"/>
       <use xlink:href="#DejaVuSans-2e" x="63.623047"/>
       <use xlink:href="#DejaVuSans-32" x="95.410156"/>
      </g>
     </g>
    </g>
    <g id="xtick_14">
     <g id="line2d_29">
      <g>
       <use xlink:href="#m64ed8f6a94" x="191.454545" y="630" style="stroke: #000000; stroke-width: 0.8"/>
      </g>
     </g>
     <g id="text_26">
      <!-- 0.4 -->
      <g transform="translate(183.502983 644.598437)scale(0.1 -0.1)">
       <use xlink:href="#DejaVuSans-30"/>
       <use xlink:href="#DejaVuSans-2e" x="63.623047"/>
       <use xlink:href="#DejaVuSans-34" x="95.410156"/>
      </g>
     </g>
    </g>
    <g id="xtick_15">
     <g id="line2d_30">
      <g>
       <use xlink:href="#m64ed8f6a94" x="242.181818" y="630" style="stroke: #000000; stroke-width: 0.8"/>
      </g>
     </g>
     <g id="text_27">
      <!-- 0.6 -->
      <g transform="translate(234.230256 644.598437)scale(0.1 -0.1)">
       <use xlink:href="#DejaVuSans-30"/>
       <use xlink:href="#DejaVuSans-2e" x="63.623047"/>
       <use xlink:href="#DejaVuSans-36" x="95.410156"/>
      </g>
     </g>
    </g>
    <g id="xtick_16">
     <g id="line2d_31">
      <g>
       <use xlink:href="#m64ed8f6a94" x="292.909091" y="630" style="stroke: #000000; stroke-width: 0.8"/>
      </g>
     </g>
     <g id="text_28">
      <!-- 0.8 -->
      <g transform="translate(284.957528 644.598437)scale(0.1 -0.1)">
       <use xlink:href="#DejaVuSans-30"/>
       <use xlink:href="#DejaVuSans-2e" x="63.623047"/>
       <use xlink:href="#DejaVuSans-38" x="95.410156"/>
      </g>
     </g>
    </g>
    <g id="xtick_17">
     <g id="line2d_32">
      <g>
       <use xlink:href="#m64ed8f6a94" x="343.636364" y="630" style="stroke: #000000; stroke-width: 0.8"/>
      </g>
     </g>
     <g id="text_29">
      <!-- 1.0 -->
      <g transform="translate(335.684801 644.598437)scale(0.1 -0.1)">
       <use xlink:href="#DejaVuSans-31"/>
       <use xlink:href="#DejaVuSans-2e" x="63.623047"/>
       <use xlink:href="#DejaVuSans-30" x="95.410156"/>
      </g>
     </g>
    </g>
   </g>
   <g id="matplotlib.axis_6">
    <g id="ytick_12">
     <g id="line2d_33">
      <g>
       <use xlink:href="#m4d20bda352" x="90" y="630" style="stroke: #000000; stroke-width: 0.8"/>
      </g>
     </g>
     <g id="text_30">
      <!-- 0.0 -->
      <g transform="translate(67.096875 633.799219)scale(0.1 -0.1)">
       <use xlink:href="#DejaVuSans-30"/>
       <use xlink:href="#DejaVuSans-2e" x="63.623047"/>
       <use xlink:href="#DejaVuSans-30" x="95.410156"/>
      </g>
     </g>
    </g>
    <g id="ytick_13">
     <g id="line2d_34">
      <g>
       <use xlink:href="#m4d20bda352" x="90" y="580.581818" style="stroke: #000000; stroke-width: 0.8"/>
      </g>
     </g>
     <g id="text_31">
      <!-- 0.2 -->
      <g transform="translate(67.096875 584.381037)scale(0.1 -0.1)">
       <use xlink:href="#DejaVuSans-30"/>
       <use xlink:href="#DejaVuSans-2e" x="63.623047"/>
       <use xlink:href="#DejaVuSans-32" x="95.410156"/>
      </g>
     </g>
    </g>
    <g id="ytick_14">
     <g id="line2d_35">
      <g>
       <use xlink:href="#m4d20bda352" x="90" y="531.163636" style="stroke: #000000; stroke-width: 0.8"/>
      </g>
     </g>
     <g id="text_32">
      <!-- 0.4 -->
      <g transform="translate(67.096875 534.962855)scale(0.1 -0.1)">
       <use xlink:href="#DejaVuSans-30"/>
       <use xlink:href="#DejaVuSans-2e" x="63.623047"/>
       <use xlink:href="#DejaVuSans-34" x="95.410156"/>
      </g>
     </g>
    </g>
    <g id="ytick_15">
     <g id="line2d_36">
      <g>
       <use xlink:href="#m4d20bda352" x="90" y="481.745455" style="stroke: #000000; stroke-width: 0.8"/>
      </g>
     </g>
     <g id="text_33">
      <!-- 0.6 -->
      <g transform="translate(67.096875 485.544673)scale(0.1 -0.1)">
       <use xlink:href="#DejaVuSans-30"/>
       <use xlink:href="#DejaVuSans-2e" x="63.623047"/>
       <use xlink:href="#DejaVuSans-36" x="95.410156"/>
      </g>
     </g>
    </g>
    <g id="ytick_16">
     <g id="line2d_37">
      <g>
       <use xlink:href="#m4d20bda352" x="90" y="432.327273" style="stroke: #000000; stroke-width: 0.8"/>
      </g>
     </g>
     <g id="text_34">
      <!-- 0.8 -->
      <g transform="translate(67.096875 436.126491)scale(0.1 -0.1)">
       <use xlink:href="#DejaVuSans-30"/>
       <use xlink:href="#DejaVuSans-2e" x="63.623047"/>
       <use xlink:href="#DejaVuSans-38" x="95.410156"/>
      </g>
     </g>
    </g>
    <g id="ytick_17">
     <g id="line2d_38">
      <g>
       <use xlink:href="#m4d20bda352" x="90" y="382.909091" style="stroke: #000000; stroke-width: 0.8"/>
      </g>
     </g>
     <g id="text_35">
      <!-- 1.0 -->
      <g transform="translate(67.096875 386.70831)scale(0.1 -0.1)">
       <use xlink:href="#DejaVuSans-31"/>
       <use xlink:href="#DejaVuSans-2e" x="63.623047"/>
       <use xlink:href="#DejaVuSans-30" x="95.410156"/>
      </g>
     </g>
    </g>
   </g>
   <g id="patch_13">
    <path d="M 90 630 
L 90 382.909091 
" style="fill: none; stroke: #000000; stroke-width: 0.8; stroke-linejoin: miter; stroke-linecap: square"/>
   </g>
   <g id="patch_14">
    <path d="M 343.636364 630 
L 343.636364 382.909091 
" style="fill: none; stroke: #000000; stroke-width: 0.8; stroke-linejoin: miter; stroke-linecap: square"/>
   </g>
   <g id="patch_15">
    <path d="M 90 630 
L 343.636364 630 
" style="fill: none; stroke: #000000; stroke-width: 0.8; stroke-linejoin: miter; stroke-linecap: square"/>
   </g>
   <g id="patch_16">
    <path d="M 90 382.909091 
L 343.636364 382.909091 
" style="fill: none; stroke: #000000; stroke-width: 0.8; stroke-linejoin: miter; stroke-linecap: square"/>
   </g>
  </g>
  <g id="axes_4">
   <g id="patch_17">
    <path d="M 394.363636 630 
L 648 630 
L 648 382.909091 
L 394.363636 382.909091 
z
" style="fill: #ffffff"/>
   </g>
   <g id="matplotlib.axis_7">
    <g id="xtick_18">
     <g id="line2d_39">
      <g>
       <use xlink:href="#m64ed8f6a94" x="405.863558" y="630" style="stroke: #000000; stroke-width: 0.8"/>
      </g>
     </g>
     <g id="text_36">
      <!-- 0 -->
      <g transform="translate(402.682308 644.598437)scale(0.1 -0.1)">
       <use xlink:href="#DejaVuSans-30"/>
      </g>
     </g>
    </g>
    <g id="xtick_19">
     <g id="line2d_40">
      <g>
       <use xlink:href="#m64ed8f6a94" x="463.870731" y="630" style="stroke: #000000; stroke-width: 0.8"/>
      </g>
     </g>
     <g id="text_37">
      <!-- 2000 -->
      <g transform="translate(451.145731 644.598437)scale(0.1 -0.1)">
       <use xlink:href="#DejaVuSans-32"/>
       <use xlink:href="#DejaVuSans-30" x="63.623047"/>
       <use xlink:href="#DejaVuSans-30" x="127.246094"/>
       <use xlink:href="#DejaVuSans-30" x="190.869141"/>
      </g>
     </g>
    </g>
    <g id="xtick_20">
     <g id="line2d_41">
      <g>
       <use xlink:href="#m64ed8f6a94" x="521.877904" y="630" style="stroke: #000000; stroke-width: 0.8"/>
      </g>
     </g>
     <g id="text_38">
      <!-- 4000 -->
      <g transform="translate(509.152904 644.598437)scale(0.1 -0.1)">
       <use xlink:href="#DejaVuSans-34"/>
       <use xlink:href="#DejaVuSans-30" x="63.623047"/>
       <use xlink:href="#DejaVuSans-30" x="127.246094"/>
       <use xlink:href="#DejaVuSans-30" x="190.869141"/>
      </g>
     </g>
    </g>
    <g id="xtick_21">
     <g id="line2d_42">
      <g>
       <use xlink:href="#m64ed8f6a94" x="579.885077" y="630" style="stroke: #000000; stroke-width: 0.8"/>
      </g>
     </g>
     <g id="text_39">
      <!-- 6000 -->
      <g transform="translate(567.160077 644.598437)scale(0.1 -0.1)">
       <use xlink:href="#DejaVuSans-36"/>
       <use xlink:href="#DejaVuSans-30" x="63.623047"/>
       <use xlink:href="#DejaVuSans-30" x="127.246094"/>
       <use xlink:href="#DejaVuSans-30" x="190.869141"/>
      </g>
     </g>
    </g>
    <g id="xtick_22">
     <g id="line2d_43">
      <g>
       <use xlink:href="#m64ed8f6a94" x="637.89225" y="630" style="stroke: #000000; stroke-width: 0.8"/>
      </g>
     </g>
     <g id="text_40">
      <!-- 8000 -->
      <g transform="translate(625.16725 644.598437)scale(0.1 -0.1)">
       <use xlink:href="#DejaVuSans-38"/>
       <use xlink:href="#DejaVuSans-30" x="63.623047"/>
       <use xlink:href="#DejaVuSans-30" x="127.246094"/>
       <use xlink:href="#DejaVuSans-30" x="190.869141"/>
      </g>
     </g>
    </g>
   </g>
   <g id="matplotlib.axis_8">
    <g id="ytick_18">
     <g id="line2d_44">
      <g>
       <use xlink:href="#m4d20bda352" x="394.363636" y="630" style="stroke: #000000; stroke-width: 0.8"/>
      </g>
     </g>
     <g id="text_41">
      <!-- −2 -->
      <g transform="translate(372.621449 633.799219)scale(0.1 -0.1)">
       <use xlink:href="#DejaVuSans-2212"/>
       <use xlink:href="#DejaVuSans-32" x="83.789062"/>
      </g>
     </g>
    </g>
    <g id="ytick_19">
     <g id="line2d_45">
      <g>
       <use xlink:href="#m4d20bda352" x="394.363636" y="590.150617" style="stroke: #000000; stroke-width: 0.8"/>
      </g>
     </g>
     <g id="text_42">
      <!-- −1 -->
      <g transform="translate(372.621449 593.949835)scale(0.1 -0.1)">
       <use xlink:href="#DejaVuSans-2212"/>
       <use xlink:href="#DejaVuSans-31" x="83.789062"/>
      </g>
     </g>
    </g>
    <g id="ytick_20">
     <g id="line2d_46">
      <g>
       <use xlink:href="#m4d20bda352" x="394.363636" y="550.301233" style="stroke: #000000; stroke-width: 0.8"/>
      </g>
     </g>
     <g id="text_43">
      <!-- 0 -->
      <g transform="translate(381.001136 554.100452)scale(0.1 -0.1)">
       <use xlink:href="#DejaVuSans-30"/>
      </g>
     </g>
    </g>
    <g id="ytick_21">
     <g id="line2d_47">
      <g>
       <use xlink:href="#m4d20bda352" x="394.363636" y="510.45185" style="stroke: #000000; stroke-width: 0.8"/>
      </g>
     </g>
     <g id="text_44">
      <!-- 1 -->
      <g transform="translate(381.001136 514.251068)scale(0.1 -0.1)">
       <use xlink:href="#DejaVuSans-31"/>
      </g>
     </g>
    </g>
    <g id="ytick_22">
     <g id="line2d_48">
      <g>
       <use xlink:href="#m4d20bda352" x="394.363636" y="470.602466" style="stroke: #000000; stroke-width: 0.8"/>
      </g>
     </g>
     <g id="text_45">
      <!-- 2 -->
      <g transform="translate(381.001136 474.401685)scale(0.1 -0.1)">
       <use xlink:href="#DejaVuSans-32"/>
      </g>
     </g>
    </g>
    <g id="ytick_23">
     <g id="line2d_49">
      <g>
       <use xlink:href="#m4d20bda352" x="394.363636" y="430.753083" style="stroke: #000000; stroke-width: 0.8"/>
      </g>
     </g>
     <g id="text_46">
      <!-- 3 -->
      <g transform="translate(381.001136 434.552301)scale(0.1 -0.1)">
       <use xlink:href="#DejaVuSans-33"/>
      </g>
     </g>
    </g>
    <g id="ytick_24">
     <g id="line2d_50">
      <g>
       <use xlink:href="#m4d20bda352" x="394.363636" y="390.903699" style="stroke: #000000; stroke-width: 0.8"/>
      </g>
     </g>
     <g id="text_47">
      <!-- 4 -->
      <g transform="translate(381.001136 394.702918)scale(0.1 -0.1)">
       <use xlink:href="#DejaVuSans-34"/>
      </g>
     </g>
    </g>
   </g>
   <g id="line2d_51">
    <path d="M 405.892562 382.909091 
L 407.342741 403.037888 
L 408.792921 409.771387 
L 410.2431 403.892733 
L 411.693279 421.333447 
L 413.143459 452.127068 
L 414.593638 473.290584 
L 416.043817 463.065594 
L 417.493997 433.419138 
L 418.944176 458.668344 
L 420.394355 526.169132 
L 421.844535 547.159945 
L 423.294714 531.508657 
L 424.744893 523.414264 
L 426.195073 602.782013 
L 426.66769 721 
M 433.205254 721 
L 433.445969 677.993062 
L 434.896148 649.865807 
L 436.346328 667.615724 
L 439.246686 566.276897 
L 440.696866 556.72896 
L 442.147045 568.676914 
L 445.047404 628.620116 
L 446.497583 644.117658 
L 447.947762 667.478528 
L 449.397942 695.706447 
L 450.848121 710.841429 
L 452.2983 693.115414 
L 453.74848 646.343165 
L 455.198659 609.723886 
L 458.099018 573.094809 
L 459.549197 562.572035 
L 460.999376 569.285151 
L 463.899735 612.860854 
L 465.349914 622.025591 
L 466.800094 616.709653 
L 468.250273 594.575902 
L 469.700452 559.555444 
L 471.150632 542.148386 
L 474.05099 562.973157 
L 475.501169 538.519012 
L 476.951349 516.052285 
L 478.401528 519.777219 
L 479.851707 525.82795 
L 481.301887 551.400013 
L 482.752066 585.092128 
L 484.202245 580.153905 
L 485.652425 561.646179 
L 487.102604 554.452466 
L 488.552783 552.584002 
L 490.002963 553.607851 
L 491.453142 565.413804 
L 492.903321 585.229893 
L 494.353501 584.157966 
L 495.80368 571.199341 
L 497.253859 582.351055 
L 498.704039 598.515847 
L 500.154218 578.704909 
L 501.604397 555.945073 
L 503.054577 555.893221 
L 504.504756 576.675282 
L 505.954935 593.482969 
L 507.405115 580.002125 
L 508.855294 577.823465 
L 510.305473 620.097162 
L 511.755653 670.899204 
L 513.205832 657.275154 
L 514.656011 606.947251 
L 516.106191 587.479905 
L 517.55637 598.592038 
L 520.456729 677.570186 
L 521.906908 687.318246 
L 523.357087 695.238663 
L 524.807266 684.171975 
L 526.257446 670.780173 
L 527.707625 698.800727 
L 529.157804 705.347691 
L 530.607984 686.844326 
L 532.058163 646.359322 
L 533.508342 621.190097 
L 534.958522 685.216714 
L 535.468722 721 
M 547.293238 721 
L 548.010136 691.416781 
L 549.460315 667.188911 
L 549.963152 721 
M 555.445298 721 
L 556.711212 529.684297 
L 558.161391 481.964145 
L 559.61157 504.781481 
L 561.06175 532.916024 
L 562.511929 539.245322 
L 563.962108 532.810388 
L 565.412288 523.814134 
L 566.862467 500.763457 
L 568.312646 502.160824 
L 569.762826 585.793156 
L 571.232716 721 
M 576.77534 721 
L 577.013722 702.242024 
L 578.463901 664.641368 
L 579.914081 667.293249 
L 581.36426 694.561808 
L 582.814439 684.064709 
L 584.264619 640.60798 
L 585.714798 645.024817 
L 587.164977 666.863093 
L 588.615157 669.265801 
L 590.065336 687.568688 
L 591.515515 704.36533 
L 592.965695 675.57643 
L 594.415874 651.515245 
L 595.866053 652.400931 
L 598.766412 557.00175 
L 600.216591 587.139823 
L 601.666771 629.399435 
L 603.11695 633.623867 
L 604.567129 639.806365 
L 606.017309 608.283277 
L 607.467488 571.821649 
L 608.917667 555.023415 
L 610.367847 572.255333 
L 611.818026 623.401336 
L 612.872229 721 
M 625.21208 721 
L 626.319819 613.379841 
L 627.769998 670.293978 
L 628.517742 721 
L 628.517742 721 
" clip-path="url(#p0f35f63a35)" style="fill: none; stroke: #1f77b4; stroke-width: 1.5; stroke-linecap: square"/>
   </g>
   <g id="patch_18">
    <path d="M 394.363636 630 
L 394.363636 382.909091 
" style="fill: none; stroke: #000000; stroke-width: 0.8; stroke-linejoin: miter; stroke-linecap: square"/>
   </g>
   <g id="patch_19">
    <path d="M 648 630 
L 648 382.909091 
" style="fill: none; stroke: #000000; stroke-width: 0.8; stroke-linejoin: miter; stroke-linecap: square"/>
   </g>
   <g id="patch_20">
    <path d="M 394.363636 630 
L 648 630 
" style="fill: none; stroke: #000000; stroke-width: 0.8; stroke-linejoin: miter; stroke-linecap: square"/>
   </g>
   <g id="patch_21">
    <path d="M 394.363636 382.909091 
L 648 382.909091 
" style="fill: none; stroke: #000000; stroke-width: 0.8; stroke-linejoin: miter; stroke-linecap: square"/>
   </g>
   <g id="text_48">
    <!-- explained variance -->
    <g transform="translate(464.181818 376.909091)scale(0.12 -0.12)">
     <defs>
      <path id="DejaVuSans-65" d="M 3597 1894 
L 3597 1613 
L 953 1613 
Q 991 1019 1311 708 
Q 1631 397 2203 397 
Q 2534 397 2845 478 
Q 3156 559 3463 722 
L 3463 178 
Q 3153 47 2828 -22 
Q 2503 -91 2169 -91 
Q 1331 -91 842 396 
Q 353 884 353 1716 
Q 353 2575 817 3079 
Q 1281 3584 2069 3584 
Q 2775 3584 3186 3129 
Q 3597 2675 3597 1894 
z
M 3022 2063 
Q 3016 2534 2758 2815 
Q 2500 3097 2075 3097 
Q 1594 3097 1305 2825 
Q 1016 2553 972 2059 
L 3022 2063 
z
" transform="scale(0.015625)"/>
      <path id="DejaVuSans-78" d="M 3513 3500 
L 2247 1797 
L 3578 0 
L 2900 0 
L 1881 1375 
L 863 0 
L 184 0 
L 1544 1831 
L 300 3500 
L 978 3500 
L 1906 2253 
L 2834 3500 
L 3513 3500 
z
" transform="scale(0.015625)"/>
      <path id="DejaVuSans-70" d="M 1159 525 
L 1159 -1331 
L 581 -1331 
L 581 3500 
L 1159 3500 
L 1159 2969 
Q 1341 3281 1617 3432 
Q 1894 3584 2278 3584 
Q 2916 3584 3314 3078 
Q 3713 2572 3713 1747 
Q 3713 922 3314 415 
Q 2916 -91 2278 -91 
Q 1894 -91 1617 61 
Q 1341 213 1159 525 
z
M 3116 1747 
Q 3116 2381 2855 2742 
Q 2594 3103 2138 3103 
Q 1681 3103 1420 2742 
Q 1159 2381 1159 1747 
Q 1159 1113 1420 752 
Q 1681 391 2138 391 
Q 2594 391 2855 752 
Q 3116 1113 3116 1747 
z
" transform="scale(0.015625)"/>
      <path id="DejaVuSans-6c" d="M 603 4863 
L 1178 4863 
L 1178 0 
L 603 0 
L 603 4863 
z
" transform="scale(0.015625)"/>
      <path id="DejaVuSans-61" d="M 2194 1759 
Q 1497 1759 1228 1600 
Q 959 1441 959 1056 
Q 959 750 1161 570 
Q 1363 391 1709 391 
Q 2188 391 2477 730 
Q 2766 1069 2766 1631 
L 2766 1759 
L 2194 1759 
z
M 3341 1997 
L 3341 0 
L 2766 0 
L 2766 531 
Q 2569 213 2275 61 
Q 1981 -91 1556 -91 
Q 1019 -91 701 211 
Q 384 513 384 1019 
Q 384 1609 779 1909 
Q 1175 2209 1959 2209 
L 2766 2209 
L 2766 2266 
Q 2766 2663 2505 2880 
Q 2244 3097 1772 3097 
Q 1472 3097 1187 3025 
Q 903 2953 641 2809 
L 641 3341 
Q 956 3463 1253 3523 
Q 1550 3584 1831 3584 
Q 2591 3584 2966 3190 
Q 3341 2797 3341 1997 
z
" transform="scale(0.015625)"/>
      <path id="DejaVuSans-64" d="M 2906 2969 
L 2906 4863 
L 3481 4863 
L 3481 0 
L 2906 0 
L 2906 525 
Q 2725 213 2448 61 
Q 2172 -91 1784 -91 
Q 1150 -91 751 415 
Q 353 922 353 1747 
Q 353 2572 751 3078 
Q 1150 3584 1784 3584 
Q 2172 3584 2448 3432 
Q 2725 3281 2906 2969 
z
M 947 1747 
Q 947 1113 1208 752 
Q 1469 391 1925 391 
Q 2381 391 2643 752 
Q 2906 1113 2906 1747 
Q 2906 2381 2643 2742 
Q 2381 3103 1925 3103 
Q 1469 3103 1208 2742 
Q 947 2381 947 1747 
z
" transform="scale(0.015625)"/>
      <path id="DejaVuSans-20" transform="scale(0.015625)"/>
      <path id="DejaVuSans-76" d="M 191 3500 
L 800 3500 
L 1894 563 
L 2988 3500 
L 3597 3500 
L 2284 0 
L 1503 0 
L 191 3500 
z
" transform="scale(0.015625)"/>
      <path id="DejaVuSans-72" d="M 2631 2963 
Q 2534 3019 2420 3045 
Q 2306 3072 2169 3072 
Q 1681 3072 1420 2755 
Q 1159 2438 1159 1844 
L 1159 0 
L 581 0 
L 581 3500 
L 1159 3500 
L 1159 2956 
Q 1341 3275 1631 3429 
Q 1922 3584 2338 3584 
Q 2397 3584 2469 3576 
Q 2541 3569 2628 3553 
L 2631 2963 
z
" transform="scale(0.015625)"/>
      <path id="DejaVuSans-63" d="M 3122 3366 
L 3122 2828 
Q 2878 2963 2633 3030 
Q 2388 3097 2138 3097 
Q 1578 3097 1268 2742 
Q 959 2388 959 1747 
Q 959 1106 1268 751 
Q 1578 397 2138 397 
Q 2388 397 2633 464 
Q 2878 531 3122 666 
L 3122 134 
Q 2881 22 2623 -34 
Q 2366 -91 2075 -91 
Q 1284 -91 818 406 
Q 353 903 353 1747 
Q 353 2603 823 3093 
Q 1294 3584 2113 3584 
Q 2378 3584 2631 3529 
Q 2884 3475 3122 3366 
z
" transform="scale(0.015625)"/>
     </defs>
     <use xlink:href="#DejaVuSans-65"/>
     <use xlink:href="#DejaVuSans-78" x="59.773438"/>
     <use xlink:href="#DejaVuSans-70" x="118.953125"/>
     <use xlink:href="#DejaVuSans-6c" x="182.429688"/>
     <use xlink:href="#DejaVuSans-61" x="210.212891"/>
     <use xlink:href="#DejaVuSans-69" x="271.492188"/>
     <use xlink:href="#DejaVuSans-6e" x="299.275391"/>
     <use xlink:href="#DejaVuSans-65" x="362.654297"/>
     <use xlink:href="#DejaVuSans-64" x="424.177734"/>
     <use xlink:href="#DejaVuSans-20" x="487.654297"/>
     <use xlink:href="#DejaVuSans-76" x="519.441406"/>
     <use xlink:href="#DejaVuSans-61" x="578.621094"/>
     <use xlink:href="#DejaVuSans-72" x="639.900391"/>
     <use xlink:href="#DejaVuSans-69" x="681.013672"/>
     <use xlink:href="#DejaVuSans-61" x="708.796875"/>
     <use xlink:href="#DejaVuSans-6e" x="770.076172"/>
     <use xlink:href="#DejaVuSans-63" x="833.455078"/>
     <use xlink:href="#DejaVuSans-65" x="888.435547"/>
    </g>
   </g>
  </g>
 </g>
 <defs>
  <clipPath id="p685f2dd8e7">
   <rect x="394.363636" y="86.4" width="253.636364" height="247.090909"/>
  </clipPath>
  <clipPath id="p0f35f63a35">
   <rect x="394.363636" y="382.909091" width="253.636364" height="247.090909"/>
  </clipPath>
 </defs>
</svg>
