<?xml version="1.0" encoding="utf-8" standalone="no"?>
<!DOCTYPE svg PUBLIC "-//W3C//DTD SVG 1.1//EN"
  "http://www.w3.org/Graphics/SVG/1.1/DTD/svg11.dtd">
<svg xmlns:xlink="http://www.w3.org/1999/xlink" width="720pt" height="720pt" viewBox="0 0 720 720" xmlns="http://www.w3.org/2000/svg" version="1.1">
 <metadata>
  <rdf:RDF xmlns:dc="http://purl.org/dc/elements/1.1/" xmlns:cc="http://creativecommons.org/ns#" xmlns:rdf="http://www.w3.org/1999/02/22-rdf-syntax-ns#">
   <cc:Work>
    <dc:type rdf:resource="http://purl.org/dc/dcmitype/StillImage"/>
    <dc:date>2023-12-19T18:16:05.572423</dc:date>
    <dc:format>image/svg+xml</dc:format>
    <dc:creator>
     <cc:Agent>
      <dc:title>Matplotlib v3.5.2, https://matplotlib.org/</dc:title>
     </cc:Agent>
    </dc:creator>
   </cc:Work>
  </rdf:RDF>
 </metadata>
 <defs>
  <style type="text/css">*{stroke-linejoin: round; stroke-linecap: butt}</style>
 </defs>
 <g id="figure_1">
  <g id="patch_1">
   <path d="M 0 720 
L 720 720 
L 720 0 
L 0 0 
z
" style="fill: #ffffff"/>
  </g>
  <g id="axes_1">
   <g id="patch_2">
    <path d="M 90 333.490909 
L 343.636364 333.490909 
L 343.636364 86.4 
L 90 86.4 
z
" style="fill: #ffffff"/>
   </g>
   <g id="matplotlib.axis_1">
    <g id="xtick_1">
     <g id="line2d_1">
      <defs>
       <path id="mc59f26ea48" d="M 0 0 
L 0 3.5 
" style="stroke: #000000; stroke-width: 0.8"/>
      </defs>
      <g>
       <use xlink:href="#mc59f26ea48" x="90" y="333.490909" style="stroke: #000000; stroke-width: 0.8"/>
      </g>
     </g>
     <g id="text_1">
      <!-- 0.0 -->
      <g transform="translate(82.048438 348.089347)scale(0.1 -0.1)">
       <defs>
        <path id="DejaVuSans-30" d="M 2034 4250 
Q 1547 4250 1301 3770 
Q 1056 3291 1056 2328 
Q 1056 1369 1301 889 
Q 1547 409 2034 409 
Q 2525 409 2770 889 
Q 3016 1369 3016 2328 
Q 3016 3291 2770 3770 
Q 2525 4250 2034 4250 
z
M 2034 4750 
Q 2819 4750 3233 4129 
Q 3647 3509 3647 2328 
Q 3647 1150 3233 529 
Q 2819 -91 2034 -91 
Q 1250 -91 836 529 
Q 422 1150 422 2328 
Q 422 3509 836 4129 
Q 1250 4750 2034 4750 
z
" transform="scale(0.015625)"/>
        <path id="DejaVuSans-2e" d="M 684 794 
L 1344 794 
L 1344 0 
L 684 0 
L 684 794 
z
" transform="scale(0.015625)"/>
       </defs>
       <use xlink:href="#DejaVuSans-30"/>
       <use xlink:href="#DejaVuSans-2e" x="63.623047"/>
       <use xlink:href="#DejaVuSans-30" x="95.410156"/>
      </g>
     </g>
    </g>
    <g id="xtick_2">
     <g id="line2d_2">
      <g>
       <use xlink:href="#mc59f26ea48" x="140.727273" y="333.490909" style="stroke: #000000; stroke-width: 0.8"/>
      </g>
     </g>
     <g id="text_2">
      <!-- 0.2 -->
      <g transform="translate(132.77571 348.089347)scale(0.1 -0.1)">
       <defs>
        <path id="DejaVuSans-32" d="M 1228 531 
L 3431 531 
L 3431 0 
L 469 0 
L 469 531 
Q 828 903 1448 1529 
Q 2069 2156 2228 2338 
Q 2531 2678 2651 2914 
Q 2772 3150 2772 3378 
Q 2772 3750 2511 3984 
Q 2250 4219 1831 4219 
Q 1534 4219 1204 4116 
Q 875 4013 500 3803 
L 500 4441 
Q 881 4594 1212 4672 
Q 1544 4750 1819 4750 
Q 2544 4750 2975 4387 
Q 3406 4025 3406 3419 
Q 3406 3131 3298 2873 
Q 3191 2616 2906 2266 
Q 2828 2175 2409 1742 
Q 1991 1309 1228 531 
z
" transform="scale(0.015625)"/>
       </defs>
       <use xlink:href="#DejaVuSans-30"/>
       <use xlink:href="#DejaVuSans-2e" x="63.623047"/>
       <use xlink:href="#DejaVuSans-32" x="95.410156"/>
      </g>
     </g>
    </g>
    <g id="xtick_3">
     <g id="line2d_3">
      <g>
       <use xlink:href="#mc59f26ea48" x="191.454545" y="333.490909" style="stroke: #000000; stroke-width: 0.8"/>
      </g>
     </g>
     <g id="text_3">
      <!-- 0.4 -->
      <g transform="translate(183.502983 348.089347)scale(0.1 -0.1)">
       <defs>
        <path id="DejaVuSans-34" d="M 2419 4116 
L 825 1625 
L 2419 1625 
L 2419 4116 
z
M 2253 4666 
L 3047 4666 
L 3047 1625 
L 3713 1625 
L 3713 1100 
L 3047 1100 
L 3047 0 
L 2419 0 
L 2419 1100 
L 313 1100 
L 313 1709 
L 2253 4666 
z
" transform="scale(0.015625)"/>
       </defs>
       <use xlink:href="#DejaVuSans-30"/>
       <use xlink:href="#DejaVuSans-2e" x="63.623047"/>
       <use xlink:href="#DejaVuSans-34" x="95.410156"/>
      </g>
     </g>
    </g>
    <g id="xtick_4">
     <g id="line2d_4">
      <g>
       <use xlink:href="#mc59f26ea48" x="242.181818" y="333.490909" style="stroke: #000000; stroke-width: 0.8"/>
      </g>
     </g>
     <g id="text_4">
      <!-- 0.6 -->
      <g transform="translate(234.230256 348.089347)scale(0.1 -0.1)">
       <defs>
        <path id="DejaVuSans-36" d="M 2113 2584 
Q 1688 2584 1439 2293 
Q 1191 2003 1191 1497 
Q 1191 994 1439 701 
Q 1688 409 2113 409 
Q 2538 409 2786 701 
Q 3034 994 3034 1497 
Q 3034 2003 2786 2293 
Q 2538 2584 2113 2584 
z
M 3366 4563 
L 3366 3988 
Q 3128 4100 2886 4159 
Q 2644 4219 2406 4219 
Q 1781 4219 1451 3797 
Q 1122 3375 1075 2522 
Q 1259 2794 1537 2939 
Q 1816 3084 2150 3084 
Q 2853 3084 3261 2657 
Q 3669 2231 3669 1497 
Q 3669 778 3244 343 
Q 2819 -91 2113 -91 
Q 1303 -91 875 529 
Q 447 1150 447 2328 
Q 447 3434 972 4092 
Q 1497 4750 2381 4750 
Q 2619 4750 2861 4703 
Q 3103 4656 3366 4563 
z
" transform="scale(0.015625)"/>
       </defs>
       <use xlink:href="#DejaVuSans-30"/>
       <use xlink:href="#DejaVuSans-2e" x="63.623047"/>
       <use xlink:href="#DejaVuSans-36" x="95.410156"/>
      </g>
     </g>
    </g>
    <g id="xtick_5">
     <g id="line2d_5">
      <g>
       <use xlink:href="#mc59f26ea48" x="292.909091" y="333.490909" style="stroke: #000000; stroke-width: 0.8"/>
      </g>
     </g>
     <g id="text_5">
      <!-- 0.8 -->
      <g transform="translate(284.957528 348.089347)scale(0.1 -0.1)">
       <defs>
        <path id="DejaVuSans-38" d="M 2034 2216 
Q 1584 2216 1326 1975 
Q 1069 1734 1069 1313 
Q 1069 891 1326 650 
Q 1584 409 2034 409 
Q 2484 409 2743 651 
Q 3003 894 3003 1313 
Q 3003 1734 2745 1975 
Q 2488 2216 2034 2216 
z
M 1403 2484 
Q 997 2584 770 2862 
Q 544 3141 544 3541 
Q 544 4100 942 4425 
Q 1341 4750 2034 4750 
Q 2731 4750 3128 4425 
Q 3525 4100 3525 3541 
Q 3525 3141 3298 2862 
Q 3072 2584 2669 2484 
Q 3125 2378 3379 2068 
Q 3634 1759 3634 1313 
Q 3634 634 3220 271 
Q 2806 -91 2034 -91 
Q 1263 -91 848 271 
Q 434 634 434 1313 
Q 434 1759 690 2068 
Q 947 2378 1403 2484 
z
M 1172 3481 
Q 1172 3119 1398 2916 
Q 1625 2713 2034 2713 
Q 2441 2713 2670 2916 
Q 2900 3119 2900 3481 
Q 2900 3844 2670 4047 
Q 2441 4250 2034 4250 
Q 1625 4250 1398 4047 
Q 1172 3844 1172 3481 
z
" transform="scale(0.015625)"/>
       </defs>
       <use xlink:href="#DejaVuSans-30"/>
       <use xlink:href="#DejaVuSans-2e" x="63.623047"/>
       <use xlink:href="#DejaVuSans-38" x="95.410156"/>
      </g>
     </g>
    </g>
    <g id="xtick_6">
     <g id="line2d_6">
      <g>
       <use xlink:href="#mc59f26ea48" x="343.636364" y="333.490909" style="stroke: #000000; stroke-width: 0.8"/>
      </g>
     </g>
     <g id="text_6">
      <!-- 1.0 -->
      <g transform="translate(335.684801 348.089347)scale(0.1 -0.1)">
       <defs>
        <path id="DejaVuSans-31" d="M 794 531 
L 1825 531 
L 1825 4091 
L 703 3866 
L 703 4441 
L 1819 4666 
L 2450 4666 
L 2450 531 
L 3481 531 
L 3481 0 
L 794 0 
L 794 531 
z
" transform="scale(0.015625)"/>
       </defs>
       <use xlink:href="#DejaVuSans-31"/>
       <use xlink:href="#DejaVuSans-2e" x="63.623047"/>
       <use xlink:href="#DejaVuSans-30" x="95.410156"/>
      </g>
     </g>
    </g>
   </g>
   <g id="matplotlib.axis_2">
    <g id="ytick_1">
     <g id="line2d_7">
      <defs>
       <path id="m136a3fae6c" d="M 0 0 
L -3.5 0 
" style="stroke: #000000; stroke-width: 0.8"/>
      </defs>
      <g>
       <use xlink:href="#m136a3fae6c" x="90" y="333.490909" style="stroke: #000000; stroke-width: 0.8"/>
      </g>
     </g>
     <g id="text_7">
      <!-- 0.0 -->
      <g transform="translate(67.096875 337.290128)scale(0.1 -0.1)">
       <use xlink:href="#DejaVuSans-30"/>
       <use xlink:href="#DejaVuSans-2e" x="63.623047"/>
       <use xlink:href="#DejaVuSans-30" x="95.410156"/>
      </g>
     </g>
    </g>
    <g id="ytick_2">
     <g id="line2d_8">
      <g>
       <use xlink:href="#m136a3fae6c" x="90" y="284.072727" style="stroke: #000000; stroke-width: 0.8"/>
      </g>
     </g>
     <g id="text_8">
      <!-- 0.2 -->
      <g transform="translate(67.096875 287.871946)scale(0.1 -0.1)">
       <use xlink:href="#DejaVuSans-30"/>
       <use xlink:href="#DejaVuSans-2e" x="63.623047"/>
       <use xlink:href="#DejaVuSans-32" x="95.410156"/>
      </g>
     </g>
    </g>
    <g id="ytick_3">
     <g id="line2d_9">
      <g>
       <use xlink:href="#m136a3fae6c" x="90" y="234.654545" style="stroke: #000000; stroke-width: 0.8"/>
      </g>
     </g>
     <g id="text_9">
      <!-- 0.4 -->
      <g transform="translate(67.096875 238.453764)scale(0.1 -0.1)">
       <use xlink:href="#DejaVuSans-30"/>
       <use xlink:href="#DejaVuSans-2e" x="63.623047"/>
       <use xlink:href="#DejaVuSans-34" x="95.410156"/>
      </g>
     </g>
    </g>
    <g id="ytick_4">
     <g id="line2d_10">
      <g>
       <use xlink:href="#m136a3fae6c" x="90" y="185.236364" style="stroke: #000000; stroke-width: 0.8"/>
      </g>
     </g>
     <g id="text_10">
      <!-- 0.6 -->
      <g transform="translate(67.096875 189.035582)scale(0.1 -0.1)">
       <use xlink:href="#DejaVuSans-30"/>
       <use xlink:href="#DejaVuSans-2e" x="63.623047"/>
       <use xlink:href="#DejaVuSans-36" x="95.410156"/>
      </g>
     </g>
    </g>
    <g id="ytick_5">
     <g id="line2d_11">
      <g>
       <use xlink:href="#m136a3fae6c" x="90" y="135.818182" style="stroke: #000000; stroke-width: 0.8"/>
      </g>
     </g>
     <g id="text_11">
      <!-- 0.8 -->
      <g transform="translate(67.096875 139.617401)scale(0.1 -0.1)">
       <use xlink:href="#DejaVuSans-30"/>
       <use xlink:href="#DejaVuSans-2e" x="63.623047"/>
       <use xlink:href="#DejaVuSans-38" x="95.410156"/>
      </g>
     </g>
    </g>
    <g id="ytick_6">
     <g id="line2d_12">
      <g>
       <use xlink:href="#m136a3fae6c" x="90" y="86.4" style="stroke: #000000; stroke-width: 0.8"/>
      </g>
     </g>
     <g id="text_12">
      <!-- 1.0 -->
      <g transform="translate(67.096875 90.199219)scale(0.1 -0.1)">
       <use xlink:href="#DejaVuSans-31"/>
       <use xlink:href="#DejaVuSans-2e" x="63.623047"/>
       <use xlink:href="#DejaVuSans-30" x="95.410156"/>
      </g>
     </g>
    </g>
   </g>
   <g id="patch_3">
    <path d="M 90 333.490909 
L 90 86.4 
" style="fill: none; stroke: #000000; stroke-width: 0.8; stroke-linejoin: miter; stroke-linecap: square"/>
   </g>
   <g id="patch_4">
    <path d="M 343.636364 333.490909 
L 343.636364 86.4 
" style="fill: none; stroke: #000000; stroke-width: 0.8; stroke-linejoin: miter; stroke-linecap: square"/>
   </g>
   <g id="patch_5">
    <path d="M 90 333.490909 
L 343.636364 333.490909 
" style="fill: none; stroke: #000000; stroke-width: 0.8; stroke-linejoin: miter; stroke-linecap: square"/>
   </g>
   <g id="patch_6">
    <path d="M 90 86.4 
L 343.636364 86.4 
" style="fill: none; stroke: #000000; stroke-width: 0.8; stroke-linejoin: miter; stroke-linecap: square"/>
   </g>
  </g>
  <g id="axes_2">
   <g id="patch_7">
    <path d="M 394.363636 333.490909 
L 648 333.490909 
L 648 86.4 
L 394.363636 86.4 
z
" style="fill: #ffffff"/>
   </g>
   <g id="PolyCollection_1">
    <defs>
     <path id="m841cd08b35" d="M 405.892562 -610.751375 
L 405.892562 -589.148666 
L 407.342741 -599.744631 
L 408.792921 -592.07743 
L 410.2431 -592.056721 
L 411.693279 -593.211219 
L 413.143459 -590.070983 
L 414.593638 -586.372406 
L 416.043817 -583.772327 
L 417.493997 -579.202057 
L 418.944176 -576.876294 
L 420.394355 -572.865461 
L 421.844535 -572.701487 
L 423.294714 -570.085242 
L 424.744893 -568.471802 
L 426.195073 -567.662081 
L 427.645252 -567.336779 
L 429.095431 -567.233279 
L 430.54561 -567.207314 
L 431.99579 -567.202335 
L 433.445969 -567.201546 
L 434.896148 -567.201546 
L 436.346328 -567.202427 
L 437.796507 -567.207295 
L 439.246686 -567.230744 
L 440.696866 -567.316396 
L 442.147045 -567.553138 
L 443.597224 -568.033934 
L 445.047404 -568.712997 
L 446.497583 -569.26578 
L 447.947762 -566.638089 
L 449.397942 -568.364041 
L 450.848121 -567.073885 
L 452.2983 -563.656534 
L 453.74848 -565.421629 
L 455.198659 -565.203908 
L 456.648838 -564.92539 
L 458.099018 -562.62396 
L 459.549197 -563.183929 
L 460.999376 -560.547051 
L 462.449556 -557.606595 
L 463.899735 -558.438031 
L 465.349914 -554.055612 
L 466.800094 -554.786781 
L 468.250273 -556.978125 
L 469.700452 -552.292841 
L 471.150632 -559.998244 
L 472.600811 -562.181657 
L 474.05099 -563.321202 
L 475.501169 -562.380921 
L 476.951349 -559.230877 
L 478.401528 -555.008331 
L 479.851707 -545.357049 
L 481.301887 -545.476211 
L 482.752066 -552.589883 
L 484.202245 -550.31161 
L 485.652425 -557.576046 
L 487.102604 -558.123384 
L 488.552783 -557.103521 
L 490.002963 -550.188646 
L 491.453142 -551.644153 
L 492.903321 -552.601648 
L 494.353501 -558.167135 
L 495.80368 -559.913093 
L 497.253859 -557.659282 
L 498.704039 -563.005282 
L 500.154218 -564.565335 
L 501.604397 -565.846866 
L 503.054577 -566.647329 
L 504.504756 -567.023153 
L 505.954935 -567.15672 
L 507.405115 -567.192719 
L 508.855294 -567.200192 
L 510.305473 -567.201546 
L 511.755653 -567.201546 
L 513.205832 -567.201546 
L 514.656011 -567.203396 
L 516.106191 -567.213614 
L 517.55637 -567.262832 
L 519.006549 -567.44394 
L 520.456729 -567.948173 
L 521.906908 -568.992611 
L 523.357087 -570.547696 
L 524.807266 -572.070166 
L 526.257446 -566.611854 
L 527.707625 -572.070166 
L 529.157804 -570.547696 
L 530.607984 -568.992611 
L 532.058163 -567.948173 
L 533.508342 -567.44394 
L 534.958522 -567.262832 
L 536.408701 -567.213614 
L 537.85888 -567.203396 
L 539.30906 -567.201546 
L 540.759239 -567.201546 
L 542.209418 -567.201546 
L 543.659598 -567.199365 
L 545.109777 -567.187324 
L 546.559956 -567.12932 
L 548.010136 -566.915888 
L 549.460315 -566.318974 
L 550.910494 -565.069511 
L 552.360674 -563.144551 
L 553.810853 -560.986816 
L 555.261032 -553.20263 
L 556.711212 -557.307903 
L 558.161391 -554.587841 
L 559.61157 -550.581178 
L 561.06175 -542.011649 
L 562.511929 -537.924539 
L 563.962108 -542.669265 
L 565.412288 -541.593216 
L 566.862467 -533.535885 
L 568.312646 -536.839067 
L 569.762826 -529.52526 
L 571.213005 -527.965357 
L 572.663184 -528.778826 
L 574.113363 -520.110168 
L 575.563543 -516.886967 
L 577.013722 -517.898255 
L 578.463901 -522.000804 
L 579.914081 -530.02578 
L 581.36426 -530.390693 
L 582.814439 -521.987024 
L 584.264619 -509.261162 
L 585.714798 -493.12679 
L 587.164977 -475.971944 
L 588.615157 -456.882668 
L 590.065336 -440.123423 
L 591.515515 -424.144059 
L 592.965695 -410.106936 
L 594.415874 -402.04822 
L 595.866053 -397.740496 
L 597.316233 -399.091919 
L 598.766412 -401.7896 
L 600.216591 -406.272057 
L 601.666771 -410.588224 
L 603.11695 -416.689198 
L 604.567129 -419.776706 
L 606.017309 -419.762671 
L 607.467488 -419.820899 
L 608.917667 -415.547141 
L 610.367847 -413.739025 
L 611.818026 -414.065478 
L 613.268205 -415.935904 
L 614.718385 -419.527256 
L 616.168564 -423.634433 
L 617.618743 -424.45553 
L 619.068923 -423.938567 
L 620.519102 -423.774254 
L 621.969281 -423.489302 
L 623.41946 -424.153909 
L 624.86964 -428.849041 
L 626.319819 -432.426919 
L 627.769998 -442.390878 
L 629.220178 -453.359848 
L 630.670357 -464.343813 
L 632.120536 -475.118908 
L 633.570716 -484.11998 
L 635.020895 -492.252528 
L 636.471074 -495.876604 
L 636.471074 -509.932246 
L 636.471074 -509.932246 
L 635.020895 -506.440336 
L 633.570716 -501.021397 
L 632.120536 -491.158729 
L 630.670357 -479.508164 
L 629.220178 -467.246052 
L 627.769998 -457.434876 
L 626.319819 -451.554447 
L 624.86964 -444.836845 
L 623.41946 -443.897395 
L 621.969281 -442.308877 
L 620.519102 -441.944272 
L 619.068923 -442.462547 
L 617.618743 -441.713815 
L 616.168564 -439.936156 
L 614.718385 -438.622597 
L 613.268205 -435.395258 
L 611.818026 -432.376315 
L 610.367847 -432.777545 
L 608.917667 -435.632637 
L 607.467488 -436.585624 
L 606.017309 -438.371929 
L 604.567129 -435.676408 
L 603.11695 -433.054446 
L 601.666771 -431.497138 
L 600.216591 -426.730114 
L 598.766412 -422.25237 
L 597.316233 -418.980298 
L 595.866053 -420.209418 
L 594.415874 -423.35237 
L 592.965695 -430.778588 
L 591.515515 -439.716174 
L 590.065336 -452.846375 
L 588.615157 -469.353687 
L 587.164977 -485.330692 
L 585.714798 -502.478327 
L 584.264619 -516.913107 
L 582.814439 -527.210163 
L 581.36426 -530.390693 
L 579.914081 -530.02578 
L 578.463901 -529.873888 
L 577.013722 -526.801944 
L 575.563543 -527.428232 
L 574.113363 -529.984708 
L 572.663184 -528.778826 
L 571.213005 -535.628932 
L 569.762826 -538.961461 
L 568.312646 -536.839067 
L 566.862467 -545.560496 
L 565.412288 -541.593216 
L 563.962108 -542.669265 
L 562.511929 -549.714193 
L 561.06175 -550.926701 
L 559.61157 -550.581178 
L 558.161391 -554.587841 
L 556.711212 -557.307903 
L 555.261032 -565.029497 
L 553.810853 -560.986816 
L 552.360674 -563.144551 
L 550.910494 -565.069511 
L 549.460315 -566.318974 
L 548.010136 -566.915888 
L 546.559956 -567.12932 
L 545.109777 -567.187324 
L 543.659598 -567.199365 
L 542.209418 -567.201546 
L 540.759239 -567.201546 
L 539.30906 -567.201546 
L 537.85888 -567.203396 
L 536.408701 -567.213614 
L 534.958522 -567.262832 
L 533.508342 -567.44394 
L 532.058163 -567.948173 
L 530.607984 -568.992611 
L 529.157804 -570.547696 
L 527.707625 -572.070166 
L 526.257446 -578.824977 
L 524.807266 -572.070166 
L 523.357087 -570.547696 
L 521.906908 -568.992611 
L 520.456729 -567.948173 
L 519.006549 -567.44394 
L 517.55637 -567.262832 
L 516.106191 -567.213614 
L 514.656011 -567.203396 
L 513.205832 -567.201546 
L 511.755653 -567.201546 
L 510.305473 -567.201546 
L 508.855294 -567.200192 
L 507.405115 -567.192719 
L 505.954935 -567.15672 
L 504.504756 -567.023153 
L 503.054577 -566.647329 
L 501.604397 -565.846866 
L 500.154218 -564.565335 
L 498.704039 -563.005282 
L 497.253859 -565.24763 
L 495.80368 -559.913093 
L 494.353501 -558.167135 
L 492.903321 -560.156579 
L 491.453142 -559.035027 
L 490.002963 -561.245985 
L 488.552783 -557.103521 
L 487.102604 -558.123384 
L 485.652425 -557.576046 
L 484.202245 -560.43676 
L 482.752066 -552.589883 
L 481.301887 -556.345677 
L 479.851707 -558.07351 
L 478.401528 -555.008331 
L 476.951349 -559.230877 
L 475.501169 -562.380921 
L 474.05099 -563.321202 
L 472.600811 -562.181657 
L 471.150632 -559.998244 
L 469.700452 -563.747348 
L 468.250273 -556.978125 
L 466.800094 -558.939369 
L 465.349914 -560.725995 
L 463.899735 -558.438031 
L 462.449556 -562.274827 
L 460.999376 -562.74862 
L 459.549197 -563.183929 
L 458.099018 -565.959424 
L 456.648838 -564.92539 
L 455.198659 -565.203908 
L 453.74848 -565.421629 
L 452.2983 -568.309546 
L 450.848121 -567.073885 
L 449.397942 -568.364041 
L 447.947762 -571.793185 
L 446.497583 -569.26578 
L 445.047404 -568.712997 
L 443.597224 -568.033934 
L 442.147045 -567.553138 
L 440.696866 -567.316396 
L 439.246686 -567.230744 
L 437.796507 -567.207295 
L 436.346328 -567.202427 
L 434.896148 -567.201546 
L 433.445969 -567.201546 
L 431.99579 -567.202335 
L 430.54561 -567.207314 
L 429.095431 -567.233279 
L 427.645252 -567.336779 
L 426.195073 -567.662081 
L 424.744893 -568.471802 
L 423.294714 -570.085242 
L 421.844535 -572.701487 
L 420.394355 -579.609923 
L 418.944176 -583.851693 
L 417.493997 -590.244376 
L 416.043817 -594.382156 
L 414.593638 -600.017315 
L 413.143459 -603.202376 
L 411.693279 -604.479795 
L 410.2431 -607.282208 
L 408.792921 -607.325573 
L 407.342741 -599.744631 
L 405.892562 -610.751375 
z
" style="stroke: #9467bd; stroke-opacity: 0.2"/>
    </defs>
    <g clip-path="url(#p442719ca3e)">
     <use xlink:href="#m841cd08b35" x="0" y="720" style="fill: #9467bd; fill-opacity: 0.2; stroke: #9467bd; stroke-opacity: 0.2"/>
    </g>
   </g>
   <g id="PolyCollection_2">
    <defs>
     <path id="me40f7eafc8" d="M 405.892562 -567.201546 
L 405.892562 -567.201546 
L 407.342741 -567.201546 
L 408.792921 -567.201546 
L 410.2431 -567.201443 
L 411.693279 -567.200874 
L 413.143459 -567.196749 
L 414.593638 -567.179014 
L 416.043817 -567.114059 
L 417.493997 -566.920156 
L 418.944176 -566.455539 
L 420.394355 -565.587593 
L 421.844535 -563.336158 
L 423.294714 -563.278286 
L 424.744893 -559.152837 
L 426.195073 -563.42817 
L 427.645252 -564.584119 
L 429.095431 -565.673211 
L 430.54561 -566.242108 
L 431.99579 -565.537974 
L 433.445969 -565.776142 
L 434.896148 -565.21862 
L 436.346328 -562.227402 
L 437.796507 -564.69777 
L 439.246686 -564.676441 
L 440.696866 -564.671729 
L 442.147045 -562.71374 
L 443.597224 -565.245361 
L 445.047404 -565.896019 
L 446.497583 -566.510409 
L 447.947762 -566.914612 
L 449.397942 -567.108614 
L 450.848121 -567.178049 
L 452.2983 -567.196341 
L 453.74848 -567.197068 
L 455.198659 -567.18241 
L 456.648838 -567.125561 
L 458.099018 -566.966458 
L 459.549197 -566.63233 
L 460.999376 -566.116661 
L 462.449556 -565.555762 
L 463.899735 -563.385938 
L 465.349914 -565.055752 
L 466.800094 -565.114151 
L 468.250273 -563.465911 
L 469.700452 -565.009302 
L 471.150632 -564.782486 
L 472.600811 -561.241689 
L 474.05099 -564.603152 
L 475.501169 -564.792495 
L 476.951349 -562.792301 
L 478.401528 -565.562677 
L 479.851707 -566.240608 
L 481.301887 -566.706823 
L 482.752066 -566.998099 
L 484.202245 -567.135486 
L 485.652425 -567.184773 
L 487.102604 -567.19802 
L 488.552783 -567.199935 
L 490.002963 -567.196034 
L 491.453142 -567.179777 
L 492.903321 -567.134494 
L 494.353501 -567.040697 
L 495.80368 -566.90104 
L 497.253859 -566.764313 
L 498.704039 -565.118223 
L 500.154218 -566.764313 
L 501.604397 -566.90104 
L 503.054577 -567.040683 
L 504.504756 -567.134403 
L 505.954935 -567.179314 
L 507.405115 -567.19421 
L 508.855294 -567.194821 
L 510.305473 -567.187848 
L 511.755653 -567.175009 
L 513.205832 -567.156566 
L 514.656011 -566.930231 
L 516.106191 -567.000114 
L 517.55637 -566.671155 
L 519.006549 -565.985634 
L 520.456729 -564.996503 
L 521.906908 -564.195491 
L 523.357087 -560.385369 
L 524.807266 -566.416819 
L 526.257446 -570.227679 
L 527.707625 -575.290476 
L 529.157804 -571.521133 
L 530.607984 -580.118566 
L 532.058163 -591.343249 
L 533.508342 -579.268595 
L 534.958522 -598.549462 
L 536.408701 -599.582338 
L 537.85888 -572.152186 
L 539.30906 -591.06199 
L 540.759239 -582.75212 
L 542.209418 -575.312768 
L 543.659598 -570.541262 
L 545.109777 -568.279478 
L 546.559956 -567.47266 
L 548.010136 -567.254931 
L 549.460315 -567.209733 
L 550.910494 -567.201546 
L 552.360674 -567.201546 
L 553.810853 -567.201546 
L 555.261032 -567.201546 
L 556.711212 -567.201546 
L 558.161391 -567.201546 
L 559.61157 -567.201546 
L 561.06175 -567.201546 
L 562.511929 -567.201546 
L 563.962108 -567.201546 
L 565.412288 -567.201546 
L 566.862467 -567.201546 
L 568.312646 -567.201546 
L 569.762826 -567.201546 
L 571.213005 -567.201546 
L 572.663184 -567.201546 
L 574.113363 -567.201546 
L 575.563543 -567.201546 
L 577.013722 -567.201546 
L 578.463901 -567.201546 
L 579.914081 -567.201546 
L 581.36426 -567.201546 
L 582.814439 -567.201546 
L 584.264619 -567.201546 
L 585.714798 -567.201546 
L 587.164977 -567.201546 
L 588.615157 -567.201546 
L 590.065336 -567.201546 
L 591.515515 -567.201546 
L 592.965695 -567.201546 
L 594.415874 -567.201546 
L 595.866053 -567.201546 
L 597.316233 -567.201546 
L 598.766412 -567.201546 
L 600.216591 -567.201546 
L 601.666771 -567.201546 
L 603.11695 -567.201546 
L 604.567129 -567.201546 
L 606.017309 -567.201546 
L 607.467488 -567.201546 
L 608.917667 -567.201546 
L 610.367847 -567.201546 
L 611.818026 -567.201546 
L 613.268205 -567.201546 
L 614.718385 -567.201546 
L 616.168564 -567.201546 
L 617.618743 -567.201546 
L 619.068923 -567.201546 
L 620.519102 -567.201546 
L 621.969281 -567.201546 
L 623.41946 -567.201546 
L 624.86964 -567.201546 
L 626.319819 -567.201546 
L 627.769998 -567.201546 
L 629.220178 -567.201546 
L 630.670357 -567.201546 
L 632.120536 -567.201546 
L 633.570716 -567.201546 
L 635.020895 -567.201546 
L 636.471074 -567.201546 
L 636.471074 -567.201546 
L 636.471074 -567.201546 
L 635.020895 -567.201546 
L 633.570716 -567.201546 
L 632.120536 -567.201546 
L 630.670357 -567.201546 
L 629.220178 -567.201546 
L 627.769998 -567.201546 
L 626.319819 -567.201546 
L 624.86964 -567.201546 
L 623.41946 -567.201546 
L 621.969281 -567.201546 
L 620.519102 -567.201546 
L 619.068923 -567.201546 
L 617.618743 -567.201546 
L 616.168564 -567.201546 
L 614.718385 -567.201546 
L 613.268205 -567.201546 
L 611.818026 -567.201546 
L 610.367847 -567.201546 
L 608.917667 -567.201546 
L 607.467488 -567.201546 
L 606.017309 -567.201546 
L 604.567129 -567.201546 
L 603.11695 -567.201546 
L 601.666771 -567.201546 
L 600.216591 -567.201546 
L 598.766412 -567.201546 
L 597.316233 -567.201546 
L 595.866053 -567.201546 
L 594.415874 -567.201546 
L 592.965695 -567.201546 
L 591.515515 -567.201546 
L 590.065336 -567.201546 
L 588.615157 -567.201546 
L 587.164977 -567.201546 
L 585.714798 -567.201546 
L 584.264619 -567.201546 
L 582.814439 -567.201546 
L 581.36426 -567.201546 
L 579.914081 -567.201546 
L 578.463901 -567.201546 
L 577.013722 -567.201546 
L 575.563543 -567.201546 
L 574.113363 -567.201546 
L 572.663184 -567.201546 
L 571.213005 -567.201546 
L 569.762826 -567.201546 
L 568.312646 -567.201546 
L 566.862467 -567.201546 
L 565.412288 -567.201546 
L 563.962108 -567.201546 
L 562.511929 -567.201546 
L 561.06175 -567.201546 
L 559.61157 -567.201546 
L 558.161391 -567.201546 
L 556.711212 -567.201546 
L 555.261032 -567.201546 
L 553.810853 -567.201546 
L 552.360674 -567.201546 
L 550.910494 -567.201546 
L 549.460315 -567.209733 
L 548.010136 -567.254931 
L 546.559956 -567.47266 
L 545.109777 -568.279478 
L 543.659598 -570.541262 
L 542.209418 -575.312768 
L 540.759239 -582.75212 
L 539.30906 -591.06199 
L 537.85888 -622.368595 
L 536.408701 -599.582338 
L 534.958522 -598.549462 
L 533.508342 -611.802629 
L 532.058163 -591.343249 
L 530.607984 -592.542111 
L 529.157804 -590.171761 
L 527.707625 -575.290476 
L 526.257446 -570.227679 
L 524.807266 -566.416819 
L 523.357087 -568.477415 
L 521.906908 -564.195491 
L 520.456729 -564.996503 
L 519.006549 -565.985634 
L 517.55637 -566.671155 
L 516.106191 -567.000114 
L 514.656011 -567.306241 
L 513.205832 -567.156566 
L 511.755653 -567.175009 
L 510.305473 -567.187848 
L 508.855294 -567.194821 
L 507.405115 -567.19421 
L 505.954935 -567.179314 
L 504.504756 -567.134403 
L 503.054577 -567.040683 
L 501.604397 -566.90104 
L 500.154218 -566.764313 
L 498.704039 -568.293969 
L 497.253859 -566.764313 
L 495.80368 -566.90104 
L 494.353501 -567.040697 
L 492.903321 -567.134494 
L 491.453142 -567.179777 
L 490.002963 -567.196034 
L 488.552783 -567.199935 
L 487.102604 -567.19802 
L 485.652425 -567.184773 
L 484.202245 -567.135486 
L 482.752066 -566.998099 
L 481.301887 -566.706823 
L 479.851707 -566.240608 
L 478.401528 -565.794415 
L 476.951349 -567.532161 
L 475.501169 -564.792495 
L 474.05099 -564.603152 
L 472.600811 -567.974453 
L 471.150632 -564.782486 
L 469.700452 -565.009302 
L 468.250273 -566.808143 
L 466.800094 -565.114151 
L 465.349914 -565.055752 
L 463.899735 -566.947937 
L 462.449556 -565.555762 
L 460.999376 -566.116661 
L 459.549197 -566.63233 
L 458.099018 -566.966458 
L 456.648838 -567.125561 
L 455.198659 -567.18241 
L 453.74848 -567.197068 
L 452.2983 -567.196341 
L 450.848121 -567.178049 
L 449.397942 -567.108614 
L 447.947762 -566.914612 
L 446.497583 -566.510409 
L 445.047404 -565.896019 
L 443.597224 -565.245361 
L 442.147045 -566.906827 
L 440.696866 -564.671729 
L 439.246686 -564.676441 
L 437.796507 -564.69777 
L 436.346328 -567.435911 
L 434.896148 -565.21862 
L 433.445969 -565.776142 
L 431.99579 -566.89653 
L 430.54561 -566.242108 
L 429.095431 -565.673211 
L 427.645252 -564.584119 
L 426.195073 -563.42817 
L 424.744893 -566.590593 
L 423.294714 -563.278286 
L 421.844535 -565.43411 
L 420.394355 -565.587593 
L 418.944176 -566.455539 
L 417.493997 -566.920156 
L 416.043817 -567.114059 
L 414.593638 -567.179014 
L 413.143459 -567.196749 
L 411.693279 -567.200874 
L 410.2431 -567.201443 
L 408.792921 -567.201546 
L 407.342741 -567.201546 
L 405.892562 -567.201546 
z
" style="stroke: #1f77b4; stroke-opacity: 0.2"/>
    </defs>
    <g clip-path="url(#p442719ca3e)">
     <use xlink:href="#me40f7eafc8" x="0" y="720" style="fill: #1f77b4; fill-opacity: 0.2; stroke: #1f77b4; stroke-opacity: 0.2"/>
    </g>
   </g>
   <g id="PolyCollection_3">
    <defs>
     <path id="mbf30f5b917" d="M 405.892562 -567.201546 
L 405.892562 -567.201546 
L 407.342741 -567.201546 
L 408.792921 -567.201546 
L 410.2431 -567.201546 
L 411.693279 -567.200006 
L 413.143459 -567.191504 
L 414.593638 -567.150548 
L 416.043817 -566.999771 
L 417.493997 -566.579779 
L 418.944176 -565.708701 
L 420.394355 -564.407385 
L 421.844535 -563.119878 
L 423.294714 -559.854629 
L 424.744893 -563.000256 
L 426.195073 -564.154051 
L 427.645252 -564.335437 
L 429.095431 -565.730182 
L 430.54561 -565.383036 
L 431.99579 -564.32916 
L 433.445969 -560.440407 
L 434.896148 -558.801731 
L 436.346328 -561.234956 
L 437.796507 -557.294177 
L 439.246686 -563.237429 
L 440.696866 -565.044696 
L 442.147045 -566.512384 
L 443.597224 -565.77479 
L 445.047404 -566.867951 
L 446.497583 -565.924247 
L 447.947762 -564.87979 
L 449.397942 -562.790326 
L 450.848121 -564.425731 
L 452.2983 -564.986489 
L 453.74848 -565.590209 
L 455.198659 -564.249017 
L 456.648838 -566.405477 
L 458.099018 -566.709986 
L 459.549197 -566.949375 
L 460.999376 -567.098103 
L 462.449556 -567.16828 
L 463.899735 -567.193135 
L 465.349914 -567.199889 
L 466.800094 -567.201292 
L 468.250273 -567.201546 
L 469.700452 -567.201546 
L 471.150632 -567.201546 
L 472.600811 -567.201546 
L 474.05099 -567.20694 
L 475.501169 -567.242116 
L 476.951349 -567.419078 
L 478.401528 -568.110965 
L 479.851707 -570.207493 
L 481.301887 -575.085416 
L 482.752066 -583.67534 
L 484.202245 -594.74327 
L 485.652425 -594.0181 
L 487.102604 -597.925102 
L 488.552783 -591.442608 
L 490.002963 -591.948925 
L 491.453142 -581.315035 
L 492.903321 -573.67926 
L 494.353501 -569.585221 
L 495.80368 -567.902037 
L 497.253859 -567.366435 
L 498.704039 -567.235988 
L 500.154218 -567.216829 
L 501.604397 -567.201481 
L 503.054577 -567.04951 
L 504.504756 -566.392039 
L 505.954935 -564.571259 
L 507.405115 -559.702429 
L 508.855294 -555.880808 
L 510.305473 -545.806685 
L 511.755653 -544.329899 
L 513.205832 -542.465419 
L 514.656011 -547.458337 
L 516.106191 -545.906145 
L 517.55637 -546.34911 
L 519.006549 -545.647281 
L 520.456729 -547.124423 
L 521.906908 -548.372066 
L 523.357087 -554.780645 
L 524.807266 -557.304745 
L 526.257446 -558.776523 
L 527.707625 -554.749271 
L 529.157804 -559.127729 
L 530.607984 -557.80798 
L 532.058163 -551.182997 
L 533.508342 -550.689928 
L 534.958522 -537.094242 
L 536.408701 -537.323297 
L 537.85888 -542.564116 
L 539.30906 -532.997053 
L 540.759239 -536.309541 
L 542.209418 -538.986179 
L 543.659598 -551.95775 
L 545.109777 -556.374115 
L 546.559956 -559.270616 
L 548.010136 -555.820647 
L 549.460315 -562.588928 
L 550.910494 -564.222938 
L 552.360674 -565.643006 
L 553.810853 -566.557179 
L 555.261032 -566.99319 
L 556.711212 -567.148865 
L 558.161391 -567.191172 
L 559.61157 -567.199955 
L 561.06175 -567.201546 
L 562.511929 -567.201546 
L 563.962108 -567.201546 
L 565.412288 -567.201546 
L 566.862467 -567.201546 
L 568.312646 -567.201546 
L 569.762826 -567.201546 
L 571.213005 -567.201546 
L 572.663184 -567.201546 
L 574.113363 -567.201546 
L 575.563543 -567.201546 
L 577.013722 -567.201546 
L 578.463901 -567.201546 
L 579.914081 -567.201546 
L 581.36426 -567.201546 
L 582.814439 -567.201546 
L 584.264619 -567.201546 
L 585.714798 -567.201546 
L 587.164977 -567.201546 
L 588.615157 -567.201546 
L 590.065336 -567.201546 
L 591.515515 -567.201546 
L 592.965695 -567.201546 
L 594.415874 -567.201546 
L 595.866053 -567.201546 
L 597.316233 -567.201546 
L 598.766412 -567.201546 
L 600.216591 -567.201546 
L 601.666771 -567.201546 
L 603.11695 -567.201546 
L 604.567129 -567.201546 
L 606.017309 -567.201546 
L 607.467488 -567.201546 
L 608.917667 -567.201546 
L 610.367847 -567.201546 
L 611.818026 -567.201546 
L 613.268205 -567.201546 
L 614.718385 -567.201546 
L 616.168564 -567.201546 
L 617.618743 -567.201546 
L 619.068923 -567.201546 
L 620.519102 -567.201546 
L 621.969281 -567.201546 
L 623.41946 -567.201546 
L 624.86964 -567.201546 
L 626.319819 -567.201546 
L 627.769998 -567.201546 
L 629.220178 -567.201546 
L 630.670357 -567.201546 
L 632.120536 -567.201546 
L 633.570716 -567.201546 
L 635.020895 -567.201546 
L 636.471074 -567.201546 
L 636.471074 -567.201546 
L 636.471074 -567.201546 
L 635.020895 -567.201546 
L 633.570716 -567.201546 
L 632.120536 -567.201546 
L 630.670357 -567.201546 
L 629.220178 -567.201546 
L 627.769998 -567.201546 
L 626.319819 -567.201546 
L 624.86964 -567.201546 
L 623.41946 -567.201546 
L 621.969281 -567.201546 
L 620.519102 -567.201546 
L 619.068923 -567.201546 
L 617.618743 -567.201546 
L 616.168564 -567.201546 
L 614.718385 -567.201546 
L 613.268205 -567.201546 
L 611.818026 -567.201546 
L 610.367847 -567.201546 
L 608.917667 -567.201546 
L 607.467488 -567.201546 
L 606.017309 -567.201546 
L 604.567129 -567.201546 
L 603.11695 -567.201546 
L 601.666771 -567.201546 
L 600.216591 -567.201546 
L 598.766412 -567.201546 
L 597.316233 -567.201546 
L 595.866053 -567.201546 
L 594.415874 -567.201546 
L 592.965695 -567.201546 
L 591.515515 -567.201546 
L 590.065336 -567.201546 
L 588.615157 -567.201546 
L 587.164977 -567.201546 
L 585.714798 -567.201546 
L 584.264619 -567.201546 
L 582.814439 -567.201546 
L 581.36426 -567.201546 
L 579.914081 -567.201546 
L 578.463901 -567.201546 
L 577.013722 -567.201546 
L 575.563543 -567.201546 
L 574.113363 -567.201546 
L 572.663184 -567.201546 
L 571.213005 -567.201546 
L 569.762826 -567.201546 
L 568.312646 -567.201546 
L 566.862467 -567.201546 
L 565.412288 -567.201546 
L 563.962108 -567.201546 
L 562.511929 -567.201546 
L 561.06175 -567.201546 
L 559.61157 -567.199955 
L 558.161391 -567.191172 
L 556.711212 -567.148865 
L 555.261032 -566.99319 
L 553.810853 -566.557179 
L 552.360674 -565.643006 
L 550.910494 -564.222938 
L 549.460315 -562.588928 
L 548.010136 -566.263382 
L 546.559956 -559.270616 
L 545.109777 -556.374115 
L 543.659598 -551.95775 
L 542.209418 -555.148376 
L 540.759239 -550.692114 
L 539.30906 -551.319353 
L 537.85888 -542.564116 
L 536.408701 -550.824619 
L 534.958522 -556.451788 
L 533.508342 -550.689928 
L 532.058163 -558.484615 
L 530.607984 -557.80798 
L 529.157804 -559.127729 
L 527.707625 -563.87028 
L 526.257446 -558.776523 
L 524.807266 -557.304745 
L 523.357087 -554.780645 
L 521.906908 -555.497048 
L 520.456729 -552.563784 
L 519.006549 -552.221219 
L 517.55637 -551.103395 
L 516.106191 -550.842965 
L 514.656011 -547.458337 
L 513.205832 -550.799928 
L 511.755653 -550.467721 
L 510.305473 -555.637827 
L 508.855294 -555.880808 
L 507.405115 -562.276749 
L 505.954935 -564.571259 
L 504.504756 -566.392039 
L 503.054577 -567.04951 
L 501.604397 -567.201481 
L 500.154218 -567.216829 
L 498.704039 -567.235988 
L 497.253859 -567.366435 
L 495.80368 -567.902037 
L 494.353501 -569.585221 
L 492.903321 -573.67926 
L 491.453142 -581.315035 
L 490.002963 -591.948925 
L 488.552783 -613.000988 
L 487.102604 -616.572368 
L 485.652425 -614.367417 
L 484.202245 -594.74327 
L 482.752066 -583.67534 
L 481.301887 -575.085416 
L 479.851707 -570.207493 
L 478.401528 -568.110965 
L 476.951349 -567.419078 
L 475.501169 -567.242116 
L 474.05099 -567.20694 
L 472.600811 -567.201546 
L 471.150632 -567.201546 
L 469.700452 -567.201546 
L 468.250273 -567.201546 
L 466.800094 -567.201292 
L 465.349914 -567.199889 
L 463.899735 -567.193135 
L 462.449556 -567.16828 
L 460.999376 -567.098103 
L 459.549197 -566.949375 
L 458.099018 -566.709986 
L 456.648838 -566.405477 
L 455.198659 -567.85245 
L 453.74848 -565.590209 
L 452.2983 -564.986489 
L 450.848121 -564.425731 
L 449.397942 -565.823796 
L 447.947762 -564.87979 
L 446.497583 -565.924247 
L 445.047404 -566.867951 
L 443.597224 -568.535943 
L 442.147045 -566.512384 
L 440.696866 -565.044696 
L 439.246686 -563.237429 
L 437.796507 -566.273208 
L 436.346328 -561.234956 
L 434.896148 -564.633624 
L 433.445969 -565.417254 
L 431.99579 -564.32916 
L 430.54561 -565.383036 
L 429.095431 -565.730182 
L 427.645252 -566.175355 
L 426.195073 -564.154051 
L 424.744893 -563.000256 
L 423.294714 -565.217146 
L 421.844535 -563.119878 
L 420.394355 -564.407385 
L 418.944176 -565.708701 
L 417.493997 -566.579779 
L 416.043817 -566.999771 
L 414.593638 -567.150548 
L 413.143459 -567.191504 
L 411.693279 -567.200006 
L 410.2431 -567.201546 
L 408.792921 -567.201546 
L 407.342741 -567.201546 
L 405.892562 -567.201546 
z
" style="stroke: #d62728; stroke-opacity: 0.2"/>
    </defs>
    <g clip-path="url(#p442719ca3e)">
     <use xlink:href="#mbf30f5b917" x="0" y="720" style="fill: #d62728; fill-opacity: 0.2; stroke: #d62728; stroke-opacity: 0.2"/>
    </g>
   </g>
   <g id="PolyCollection_4">
    <defs>
     <path id="m85b78e2c50" d="M 405.892562 -559.294279 
L 405.892562 -559.294279 
L 407.342741 -553.362108 
L 408.792921 -561.796494 
L 410.2431 -563.747331 
L 411.693279 -565.418533 
L 413.143459 -566.471251 
L 414.593638 -566.966443 
L 416.043817 -567.142553 
L 417.493997 -567.189929 
L 418.944176 -567.199764 
L 420.394355 -567.201546 
L 421.844535 -567.201546 
L 423.294714 -567.201546 
L 424.744893 -567.201546 
L 426.195073 -567.201546 
L 427.645252 -567.201546 
L 429.095431 -567.201546 
L 430.54561 -567.201546 
L 431.99579 -567.201546 
L 433.445969 -567.201546 
L 434.896148 -567.201546 
L 436.346328 -567.201546 
L 437.796507 -567.201546 
L 439.246686 -567.20247 
L 440.696866 -567.20757 
L 442.147045 -567.232142 
L 443.597224 -567.322558 
L 445.047404 -567.575871 
L 446.497583 -568.106017 
L 447.947762 -568.92439 
L 449.397942 -569.83906 
L 450.848121 -566.831634 
L 452.2983 -571.161004 
L 453.74848 -571.728346 
L 455.198659 -572.251564 
L 456.648838 -567.58514 
L 458.099018 -571.478407 
L 459.549197 -570.088412 
L 460.999376 -568.736422 
L 462.449556 -567.83979 
L 463.899735 -567.408453 
L 465.349914 -567.25386 
L 466.800094 -567.211847 
L 468.250273 -567.203125 
L 469.700452 -567.201546 
L 471.150632 -567.201546 
L 472.600811 -567.201546 
L 474.05099 -567.201546 
L 475.501169 -567.201546 
L 476.951349 -567.201546 
L 478.401528 -567.201546 
L 479.851707 -567.201546 
L 481.301887 -567.201546 
L 482.752066 -567.200639 
L 484.202245 -567.195633 
L 485.652425 -567.17152 
L 487.102604 -567.082792 
L 488.552783 -566.835759 
L 490.002963 -566.324069 
L 491.453142 -565.562203 
L 492.903321 -564.816316 
L 494.353501 -561.115558 
L 495.80368 -564.816316 
L 497.253859 -565.562203 
L 498.704039 -566.324069 
L 500.154218 -566.835759 
L 501.604397 -567.082792 
L 503.054577 -567.17152 
L 504.504756 -567.195633 
L 505.954935 -567.200639 
L 507.405115 -567.201546 
L 508.855294 -567.201546 
L 510.305473 -567.201546 
L 511.755653 -567.201546 
L 513.205832 -567.201546 
L 514.656011 -567.201546 
L 516.106191 -567.201546 
L 517.55637 -567.201546 
L 519.006549 -567.201546 
L 520.456729 -567.201546 
L 521.906908 -567.201546 
L 523.357087 -567.201546 
L 524.807266 -567.201546 
L 526.257446 -567.201546 
L 527.707625 -567.201546 
L 529.157804 -567.201546 
L 530.607984 -567.201546 
L 532.058163 -567.198589 
L 533.508342 -567.179468 
L 534.958522 -567.081711 
L 536.408701 -566.697659 
L 537.85888 -565.519608 
L 539.30906 -562.721352 
L 540.759239 -557.616973 
L 542.209418 -550.594896 
L 543.659598 -535.67921 
L 545.109777 -530.549441 
L 546.559956 -532.924659 
L 548.010136 -540.764111 
L 549.460315 -538.806002 
L 550.910494 -539.006786 
L 552.360674 -542.781007 
L 553.810853 -543.547496 
L 555.261032 -546.664373 
L 556.711212 -541.328876 
L 558.161391 -542.206818 
L 559.61157 -542.223627 
L 561.06175 -548.12228 
L 562.511929 -548.777124 
L 563.962108 -544.378342 
L 565.412288 -543.72704 
L 566.862467 -551.846345 
L 568.312646 -550.471038 
L 569.762826 -556.656053 
L 571.213005 -558.066405 
L 572.663184 -554.024222 
L 574.113363 -559.956067 
L 575.563543 -559.988578 
L 577.013722 -558.485084 
L 578.463901 -555.931753 
L 579.914081 -549.156055 
L 581.36426 -550.568438 
L 582.814439 -557.787669 
L 584.264619 -561.530843 
L 585.714798 -564.497647 
L 587.164977 -566.181643 
L 588.615157 -566.897548 
L 590.065336 -567.130023 
L 591.515515 -567.188281 
L 592.965695 -567.199953 
L 594.415874 -567.201546 
L 595.866053 -567.201546 
L 597.316233 -567.201546 
L 598.766412 -567.201546 
L 600.216591 -567.201546 
L 601.666771 -567.201546 
L 603.11695 -567.201546 
L 604.567129 -567.201546 
L 606.017309 -567.201546 
L 607.467488 -567.201546 
L 608.917667 -567.201546 
L 610.367847 -567.201546 
L 611.818026 -567.201546 
L 613.268205 -567.201546 
L 614.718385 -567.201546 
L 616.168564 -567.201546 
L 617.618743 -567.201546 
L 619.068923 -567.201546 
L 620.519102 -567.201546 
L 621.969281 -567.201546 
L 623.41946 -567.201546 
L 624.86964 -567.201546 
L 626.319819 -567.201546 
L 627.769998 -567.201546 
L 629.220178 -567.201546 
L 630.670357 -567.201546 
L 632.120536 -567.201546 
L 633.570716 -567.201546 
L 635.020895 -567.201546 
L 636.471074 -567.201546 
L 636.471074 -567.201546 
L 636.471074 -567.201546 
L 635.020895 -567.201546 
L 633.570716 -567.201546 
L 632.120536 -567.201546 
L 630.670357 -567.201546 
L 629.220178 -567.201546 
L 627.769998 -567.201546 
L 626.319819 -567.201546 
L 624.86964 -567.201546 
L 623.41946 -567.201546 
L 621.969281 -567.201546 
L 620.519102 -567.201546 
L 619.068923 -567.201546 
L 617.618743 -567.201546 
L 616.168564 -567.201546 
L 614.718385 -567.201546 
L 613.268205 -567.201546 
L 611.818026 -567.201546 
L 610.367847 -567.201546 
L 608.917667 -567.201546 
L 607.467488 -567.201546 
L 606.017309 -567.201546 
L 604.567129 -567.201546 
L 603.11695 -567.201546 
L 601.666771 -567.201546 
L 600.216591 -567.201546 
L 598.766412 -567.201546 
L 597.316233 -567.201546 
L 595.866053 -567.201546 
L 594.415874 -567.201546 
L 592.965695 -567.199953 
L 591.515515 -567.188281 
L 590.065336 -567.130023 
L 588.615157 -566.897548 
L 587.164977 -566.181643 
L 585.714798 -564.497647 
L 584.264619 -561.530843 
L 582.814439 -557.787669 
L 581.36426 -559.042997 
L 579.914081 -559.161296 
L 578.463901 -555.931753 
L 577.013722 -558.485084 
L 575.563543 -559.988578 
L 574.113363 -559.956067 
L 572.663184 -564.189922 
L 571.213005 -558.066405 
L 569.762826 -556.656053 
L 568.312646 -558.490733 
L 566.862467 -551.846345 
L 565.412288 -555.812326 
L 563.962108 -553.489387 
L 562.511929 -548.777124 
L 561.06175 -548.12228 
L 559.61157 -551.291848 
L 558.161391 -549.265422 
L 556.711212 -550.43245 
L 555.261032 -546.664373 
L 553.810853 -550.41008 
L 552.360674 -550.041422 
L 550.910494 -551.35081 
L 549.460315 -547.773445 
L 548.010136 -540.764111 
L 546.559956 -544.543755 
L 545.109777 -548.050095 
L 543.659598 -551.587113 
L 542.209418 -550.594896 
L 540.759239 -557.616973 
L 539.30906 -562.721352 
L 537.85888 -565.519608 
L 536.408701 -566.697659 
L 534.958522 -567.081711 
L 533.508342 -567.179468 
L 532.058163 -567.198589 
L 530.607984 -567.201546 
L 529.157804 -567.201546 
L 527.707625 -567.201546 
L 526.257446 -567.201546 
L 524.807266 -567.201546 
L 523.357087 -567.201546 
L 521.906908 -567.201546 
L 520.456729 -567.201546 
L 519.006549 -567.201546 
L 517.55637 -567.201546 
L 516.106191 -567.201546 
L 514.656011 -567.201546 
L 513.205832 -567.201546 
L 511.755653 -567.201546 
L 510.305473 -567.201546 
L 508.855294 -567.201546 
L 507.405115 -567.201546 
L 505.954935 -567.200639 
L 504.504756 -567.195633 
L 503.054577 -567.17152 
L 501.604397 -567.082792 
L 500.154218 -566.835759 
L 498.704039 -566.324069 
L 497.253859 -565.562203 
L 495.80368 -564.816316 
L 494.353501 -567.881895 
L 492.903321 -564.816316 
L 491.453142 -565.562203 
L 490.002963 -566.324069 
L 488.552783 -566.835759 
L 487.102604 -567.082792 
L 485.652425 -567.17152 
L 484.202245 -567.195633 
L 482.752066 -567.200639 
L 481.301887 -567.201546 
L 479.851707 -567.201546 
L 478.401528 -567.201546 
L 476.951349 -567.201546 
L 475.501169 -567.201546 
L 474.05099 -567.201546 
L 472.600811 -567.201546 
L 471.150632 -567.201546 
L 469.700452 -567.201546 
L 468.250273 -567.203125 
L 466.800094 -567.211847 
L 465.349914 -567.25386 
L 463.899735 -567.408453 
L 462.449556 -567.83979 
L 460.999376 -568.736422 
L 459.549197 -570.088412 
L 458.099018 -571.478407 
L 456.648838 -576.981828 
L 455.198659 -572.251564 
L 453.74848 -571.728346 
L 452.2983 -571.161004 
L 450.848121 -574.354574 
L 449.397942 -569.83906 
L 447.947762 -568.92439 
L 446.497583 -568.106017 
L 445.047404 -567.575871 
L 443.597224 -567.322558 
L 442.147045 -567.232142 
L 440.696866 -567.20757 
L 439.246686 -567.20247 
L 437.796507 -567.201546 
L 436.346328 -567.201546 
L 434.896148 -567.201546 
L 433.445969 -567.201546 
L 431.99579 -567.201546 
L 430.54561 -567.201546 
L 429.095431 -567.201546 
L 427.645252 -567.201546 
L 426.195073 -567.201546 
L 424.744893 -567.201546 
L 423.294714 -567.201546 
L 421.844535 -567.201546 
L 420.394355 -567.201546 
L 418.944176 -567.199764 
L 417.493997 -567.189929 
L 416.043817 -567.142553 
L 414.593638 -566.966443 
L 413.143459 -566.471251 
L 411.693279 -565.418533 
L 410.2431 -563.747331 
L 408.792921 -561.796494 
L 407.342741 -566.972231 
L 405.892562 -559.294279 
z
" style="stroke: #ff7f0e; stroke-opacity: 0.2"/>
    </defs>
    <g clip-path="url(#p442719ca3e)">
     <use xlink:href="#m85b78e2c50" x="0" y="720" style="fill: #ff7f0e; fill-opacity: 0.2; stroke: #ff7f0e; stroke-opacity: 0.2"/>
    </g>
   </g>
   <g id="matplotlib.axis_3">
    <g id="xtick_7">
     <g id="line2d_13">
      <g>
       <use xlink:href="#mc59f26ea48" x="405.863558" y="333.490909" style="stroke: #000000; stroke-width: 0.8"/>
      </g>
     </g>
     <g id="text_13">
      <!-- 0 -->
      <g transform="translate(402.682308 348.089347)scale(0.1 -0.1)">
       <use xlink:href="#DejaVuSans-30"/>
      </g>
     </g>
    </g>
    <g id="xtick_8">
     <g id="line2d_14">
      <g>
       <use xlink:href="#mc59f26ea48" x="463.870731" y="333.490909" style="stroke: #000000; stroke-width: 0.8"/>
      </g>
     </g>
     <g id="text_14">
      <!-- 2000 -->
      <g transform="translate(451.145731 348.089347)scale(0.1 -0.1)">
       <use xlink:href="#DejaVuSans-32"/>
       <use xlink:href="#DejaVuSans-30" x="63.623047"/>
       <use xlink:href="#DejaVuSans-30" x="127.246094"/>
       <use xlink:href="#DejaVuSans-30" x="190.869141"/>
      </g>
     </g>
    </g>
    <g id="xtick_9">
     <g id="line2d_15">
      <g>
       <use xlink:href="#mc59f26ea48" x="521.877904" y="333.490909" style="stroke: #000000; stroke-width: 0.8"/>
      </g>
     </g>
     <g id="text_15">
      <!-- 4000 -->
      <g transform="translate(509.152904 348.089347)scale(0.1 -0.1)">
       <use xlink:href="#DejaVuSans-34"/>
       <use xlink:href="#DejaVuSans-30" x="63.623047"/>
       <use xlink:href="#DejaVuSans-30" x="127.246094"/>
       <use xlink:href="#DejaVuSans-30" x="190.869141"/>
      </g>
     </g>
    </g>
    <g id="xtick_10">
     <g id="line2d_16">
      <g>
       <use xlink:href="#mc59f26ea48" x="579.885077" y="333.490909" style="stroke: #000000; stroke-width: 0.8"/>
      </g>
     </g>
     <g id="text_16">
      <!-- 6000 -->
      <g transform="translate(567.160077 348.089347)scale(0.1 -0.1)">
       <use xlink:href="#DejaVuSans-36"/>
       <use xlink:href="#DejaVuSans-30" x="63.623047"/>
       <use xlink:href="#DejaVuSans-30" x="127.246094"/>
       <use xlink:href="#DejaVuSans-30" x="190.869141"/>
      </g>
     </g>
    </g>
    <g id="xtick_11">
     <g id="line2d_17">
      <g>
       <use xlink:href="#mc59f26ea48" x="637.89225" y="333.490909" style="stroke: #000000; stroke-width: 0.8"/>
      </g>
     </g>
     <g id="text_17">
      <!-- 8000 -->
      <g transform="translate(625.16725 348.089347)scale(0.1 -0.1)">
       <use xlink:href="#DejaVuSans-38"/>
       <use xlink:href="#DejaVuSans-30" x="63.623047"/>
       <use xlink:href="#DejaVuSans-30" x="127.246094"/>
       <use xlink:href="#DejaVuSans-30" x="190.869141"/>
      </g>
     </g>
    </g>
   </g>
   <g id="matplotlib.axis_4">
    <g id="ytick_7">
     <g id="line2d_18">
      <g>
       <use xlink:href="#m136a3fae6c" x="394.363636" y="320.034711" style="stroke: #000000; stroke-width: 0.8"/>
      </g>
     </g>
     <g id="text_18">
      <!-- −1.50 -->
      <g transform="translate(356.718324 323.83393)scale(0.1 -0.1)">
       <defs>
        <path id="DejaVuSans-2212" d="M 678 2272 
L 4684 2272 
L 4684 1741 
L 678 1741 
L 678 2272 
z
" transform="scale(0.015625)"/>
        <path id="DejaVuSans-35" d="M 691 4666 
L 3169 4666 
L 3169 4134 
L 1269 4134 
L 1269 2991 
Q 1406 3038 1543 3061 
Q 1681 3084 1819 3084 
Q 2600 3084 3056 2656 
Q 3513 2228 3513 1497 
Q 3513 744 3044 326 
Q 2575 -91 1722 -91 
Q 1428 -91 1123 -41 
Q 819 9 494 109 
L 494 744 
Q 775 591 1075 516 
Q 1375 441 1709 441 
Q 2250 441 2565 725 
Q 2881 1009 2881 1497 
Q 2881 1984 2565 2268 
Q 2250 2553 1709 2553 
Q 1456 2553 1204 2497 
Q 953 2441 691 2322 
L 691 4666 
z
" transform="scale(0.015625)"/>
       </defs>
       <use xlink:href="#DejaVuSans-2212"/>
       <use xlink:href="#DejaVuSans-31" x="83.789062"/>
       <use xlink:href="#DejaVuSans-2e" x="147.412109"/>
       <use xlink:href="#DejaVuSans-35" x="179.199219"/>
       <use xlink:href="#DejaVuSans-30" x="242.822266"/>
      </g>
     </g>
    </g>
    <g id="ytick_8">
     <g id="line2d_19">
      <g>
       <use xlink:href="#m136a3fae6c" x="394.363636" y="292.162001" style="stroke: #000000; stroke-width: 0.8"/>
      </g>
     </g>
     <g id="text_19">
      <!-- −1.25 -->
      <g transform="translate(356.718324 295.96122)scale(0.1 -0.1)">
       <use xlink:href="#DejaVuSans-2212"/>
       <use xlink:href="#DejaVuSans-31" x="83.789062"/>
       <use xlink:href="#DejaVuSans-2e" x="147.412109"/>
       <use xlink:href="#DejaVuSans-32" x="179.199219"/>
       <use xlink:href="#DejaVuSans-35" x="242.822266"/>
      </g>
     </g>
    </g>
    <g id="ytick_9">
     <g id="line2d_20">
      <g>
       <use xlink:href="#m136a3fae6c" x="394.363636" y="264.289292" style="stroke: #000000; stroke-width: 0.8"/>
      </g>
     </g>
     <g id="text_20">
      <!-- −1.00 -->
      <g transform="translate(356.718324 268.088511)scale(0.1 -0.1)">
       <use xlink:href="#DejaVuSans-2212"/>
       <use xlink:href="#DejaVuSans-31" x="83.789062"/>
       <use xlink:href="#DejaVuSans-2e" x="147.412109"/>
       <use xlink:href="#DejaVuSans-30" x="179.199219"/>
       <use xlink:href="#DejaVuSans-30" x="242.822266"/>
      </g>
     </g>
    </g>
    <g id="ytick_10">
     <g id="line2d_21">
      <g>
       <use xlink:href="#m136a3fae6c" x="394.363636" y="236.416583" style="stroke: #000000; stroke-width: 0.8"/>
      </g>
     </g>
     <g id="text_21">
      <!-- −0.75 -->
      <g transform="translate(356.718324 240.215801)scale(0.1 -0.1)">
       <defs>
        <path id="DejaVuSans-37" d="M 525 4666 
L 3525 4666 
L 3525 4397 
L 1831 0 
L 1172 0 
L 2766 4134 
L 525 4134 
L 525 4666 
z
" transform="scale(0.015625)"/>
       </defs>
       <use xlink:href="#DejaVuSans-2212"/>
       <use xlink:href="#DejaVuSans-30" x="83.789062"/>
       <use xlink:href="#DejaVuSans-2e" x="147.412109"/>
       <use xlink:href="#DejaVuSans-37" x="179.199219"/>
       <use xlink:href="#DejaVuSans-35" x="242.822266"/>
      </g>
     </g>
    </g>
    <g id="ytick_11">
     <g id="line2d_22">
      <g>
       <use xlink:href="#m136a3fae6c" x="394.363636" y="208.543873" style="stroke: #000000; stroke-width: 0.8"/>
      </g>
     </g>
     <g id="text_22">
      <!-- −0.50 -->
      <g transform="translate(356.718324 212.343092)scale(0.1 -0.1)">
       <use xlink:href="#DejaVuSans-2212"/>
       <use xlink:href="#DejaVuSans-30" x="83.789062"/>
       <use xlink:href="#DejaVuSans-2e" x="147.412109"/>
       <use xlink:href="#DejaVuSans-35" x="179.199219"/>
       <use xlink:href="#DejaVuSans-30" x="242.822266"/>
      </g>
     </g>
    </g>
    <g id="ytick_12">
     <g id="line2d_23">
      <g>
       <use xlink:href="#m136a3fae6c" x="394.363636" y="180.671164" style="stroke: #000000; stroke-width: 0.8"/>
      </g>
     </g>
     <g id="text_23">
      <!-- −0.25 -->
      <g transform="translate(356.718324 184.470383)scale(0.1 -0.1)">
       <use xlink:href="#DejaVuSans-2212"/>
       <use xlink:href="#DejaVuSans-30" x="83.789062"/>
       <use xlink:href="#DejaVuSans-2e" x="147.412109"/>
       <use xlink:href="#DejaVuSans-32" x="179.199219"/>
       <use xlink:href="#DejaVuSans-35" x="242.822266"/>
      </g>
     </g>
    </g>
    <g id="ytick_13">
     <g id="line2d_24">
      <g>
       <use xlink:href="#m136a3fae6c" x="394.363636" y="152.798454" style="stroke: #000000; stroke-width: 0.8"/>
      </g>
     </g>
     <g id="text_24">
      <!-- 0.00 -->
      <g transform="translate(365.098011 156.597673)scale(0.1 -0.1)">
       <use xlink:href="#DejaVuSans-30"/>
       <use xlink:href="#DejaVuSans-2e" x="63.623047"/>
       <use xlink:href="#DejaVuSans-30" x="95.410156"/>
       <use xlink:href="#DejaVuSans-30" x="159.033203"/>
      </g>
     </g>
    </g>
    <g id="ytick_14">
     <g id="line2d_25">
      <g>
       <use xlink:href="#m136a3fae6c" x="394.363636" y="124.925745" style="stroke: #000000; stroke-width: 0.8"/>
      </g>
     </g>
     <g id="text_25">
      <!-- 0.25 -->
      <g transform="translate(365.098011 128.724964)scale(0.1 -0.1)">
       <use xlink:href="#DejaVuSans-30"/>
       <use xlink:href="#DejaVuSans-2e" x="63.623047"/>
       <use xlink:href="#DejaVuSans-32" x="95.410156"/>
       <use xlink:href="#DejaVuSans-35" x="159.033203"/>
      </g>
     </g>
    </g>
    <g id="ytick_15">
     <g id="line2d_26">
      <g>
       <use xlink:href="#m136a3fae6c" x="394.363636" y="97.053036" style="stroke: #000000; stroke-width: 0.8"/>
      </g>
     </g>
     <g id="text_26">
      <!-- 0.50 -->
      <g transform="translate(365.098011 100.852254)scale(0.1 -0.1)">
       <use xlink:href="#DejaVuSans-30"/>
       <use xlink:href="#DejaVuSans-2e" x="63.623047"/>
       <use xlink:href="#DejaVuSans-35" x="95.410156"/>
       <use xlink:href="#DejaVuSans-30" x="159.033203"/>
      </g>
     </g>
    </g>
   </g>
   <g id="line2d_27">
    <path d="M 405.892562 120.049979 
L 407.342741 120.255369 
L 410.2431 120.330535 
L 411.693279 121.154493 
L 413.143459 123.363321 
L 414.593638 126.805139 
L 417.493997 135.276784 
L 420.394355 143.762308 
L 421.844535 147.298513 
L 423.294714 149.914758 
L 424.744893 151.528198 
L 426.195073 152.337919 
L 427.645252 152.663221 
L 430.54561 152.792686 
L 439.246686 152.769256 
L 440.696866 152.683604 
L 442.147045 152.446862 
L 443.597224 151.966066 
L 445.047404 151.287003 
L 446.497583 150.73422 
L 447.947762 150.784363 
L 449.397942 151.635959 
L 450.848121 152.926115 
L 452.2983 154.01696 
L 453.74848 154.578371 
L 456.648838 155.07461 
L 458.099018 155.708308 
L 459.549197 156.816071 
L 460.999376 158.352164 
L 462.449556 160.059289 
L 463.899735 161.561969 
L 465.349914 162.609197 
L 466.800094 163.136925 
L 468.250273 163.021875 
L 469.700452 161.979905 
L 471.150632 160.001756 
L 472.600811 157.818343 
L 474.05099 156.678798 
L 475.501169 157.619079 
L 476.951349 160.769123 
L 478.401528 164.991669 
L 479.851707 168.284721 
L 481.301887 169.089056 
L 482.752066 167.410117 
L 484.202245 164.625815 
L 485.652425 162.423954 
L 487.102604 161.876616 
L 488.552783 162.896479 
L 490.002963 164.282685 
L 491.453142 164.66041 
L 492.903321 163.620886 
L 495.80368 160.086907 
L 500.154218 155.434665 
L 501.604397 154.153134 
L 503.054577 153.352671 
L 504.504756 152.976847 
L 507.405115 152.807281 
L 517.55637 152.737168 
L 519.006549 152.55606 
L 520.456729 152.051827 
L 521.906908 151.007389 
L 524.807266 147.929834 
L 526.257446 147.281585 
L 527.707625 147.929834 
L 530.607984 151.007389 
L 532.058163 152.051827 
L 533.508342 152.55606 
L 534.958522 152.737168 
L 539.30906 152.798454 
L 546.559956 152.87068 
L 548.010136 153.084112 
L 549.460315 153.681026 
L 550.910494 154.930489 
L 552.360674 156.855449 
L 553.810853 159.013184 
L 556.711212 162.692097 
L 558.161391 165.412159 
L 561.06175 173.530825 
L 562.511929 176.180634 
L 565.412288 178.406784 
L 566.862467 180.45181 
L 569.762826 185.756639 
L 571.213005 188.202855 
L 572.663184 191.221174 
L 574.113363 194.952562 
L 575.563543 197.8424 
L 577.013722 197.6499 
L 578.463901 194.062654 
L 579.914081 189.97422 
L 581.36426 189.609307 
L 582.814439 195.401406 
L 584.264619 206.912865 
L 585.714798 222.197442 
L 590.065336 273.515101 
L 591.515515 288.069883 
L 592.965695 299.557238 
L 594.415874 307.299705 
L 595.866053 311.025043 
L 597.316233 310.963891 
L 598.766412 307.979015 
L 601.666771 298.957319 
L 603.11695 295.128178 
L 604.567129 292.273443 
L 606.017309 290.9327 
L 607.467488 291.796738 
L 608.917667 294.410111 
L 610.367847 296.741715 
L 611.818026 296.779104 
L 613.268205 294.334419 
L 614.718385 290.925073 
L 616.168564 288.214706 
L 617.618743 286.915328 
L 619.068923 286.799443 
L 620.519102 287.140737 
L 621.969281 287.10091 
L 623.41946 285.974348 
L 624.86964 283.157057 
L 626.319819 278.009317 
L 627.769998 270.087123 
L 629.220178 259.69705 
L 632.120536 236.861181 
L 633.570716 227.429312 
L 635.020895 220.653568 
L 636.471074 217.095575 
L 636.471074 217.095575 
" clip-path="url(#p442719ca3e)" style="fill: none; stroke: #9467bd; stroke-width: 2; stroke-linecap: square"/>
   </g>
   <g id="line2d_28">
    <path d="M 405.892562 152.798454 
L 416.043817 152.885941 
L 417.493997 153.079844 
L 418.944176 153.544461 
L 420.394355 154.412407 
L 423.294714 156.721714 
L 424.744893 157.128285 
L 426.195073 156.57183 
L 429.095431 154.326789 
L 430.54561 153.757892 
L 431.99579 153.782748 
L 433.445969 154.223858 
L 434.896148 154.78138 
L 436.346328 155.168344 
L 437.796507 155.30223 
L 440.696866 155.328271 
L 442.147045 155.189717 
L 443.597224 154.754639 
L 446.497583 153.489591 
L 447.947762 153.085388 
L 449.397942 152.891386 
L 452.2983 152.803659 
L 456.648838 152.874439 
L 458.099018 153.033542 
L 459.549197 153.36767 
L 463.899735 154.833063 
L 465.349914 154.944248 
L 468.250273 154.862973 
L 471.150632 155.217514 
L 472.600811 155.391929 
L 474.05099 155.396848 
L 475.501169 155.207505 
L 476.951349 154.837769 
L 481.301887 153.293177 
L 482.752066 153.001901 
L 485.652425 152.815227 
L 491.453142 152.820223 
L 494.353501 152.959303 
L 498.704039 153.293904 
L 501.604397 153.09896 
L 504.504756 152.865597 
L 508.855294 152.805179 
L 514.656011 152.881764 
L 516.106191 152.999886 
L 517.55637 153.328845 
L 519.006549 154.014366 
L 520.456729 155.003497 
L 521.906908 155.804509 
L 523.357087 155.568608 
L 524.807266 153.583181 
L 526.257446 149.772321 
L 527.707625 144.709524 
L 530.607984 133.669661 
L 532.058163 128.656751 
L 533.508342 124.464388 
L 534.958522 121.450538 
L 536.408701 120.417662 
L 537.85888 122.739609 
L 539.30906 128.93801 
L 540.759239 137.24788 
L 542.209418 144.687232 
L 543.659598 149.458738 
L 545.109777 151.720522 
L 546.559956 152.52734 
L 548.010136 152.745069 
L 552.360674 152.798454 
L 636.471074 152.798454 
L 636.471074 152.798454 
" clip-path="url(#p442719ca3e)" style="fill: none; stroke: #1f77b4; stroke-width: 2; stroke-linecap: square"/>
   </g>
   <g id="line2d_29">
    <path d="M 405.892562 152.798454 
L 414.593638 152.849452 
L 416.043817 153.000229 
L 417.493997 153.420221 
L 418.944176 154.291299 
L 421.844535 156.880122 
L 423.294714 157.464112 
L 424.744893 156.999744 
L 427.645252 154.744604 
L 429.095431 154.269818 
L 430.54561 154.616964 
L 431.99579 155.67084 
L 433.445969 157.071169 
L 434.896148 158.282323 
L 436.346328 158.765044 
L 437.796507 158.216308 
L 439.246686 156.762571 
L 440.696866 154.955304 
L 442.147045 153.487616 
L 443.597224 152.844633 
L 445.047404 153.132049 
L 447.947762 155.12021 
L 449.397942 155.692939 
L 450.848121 155.574269 
L 455.198659 153.949267 
L 458.099018 153.290014 
L 460.999376 152.901897 
L 465.349914 152.800111 
L 475.501169 152.757884 
L 476.951349 152.580922 
L 478.401528 151.889035 
L 479.851707 149.792507 
L 481.301887 144.914584 
L 482.752066 136.32466 
L 484.202245 125.25673 
L 485.652425 115.807241 
L 487.102604 112.751265 
L 488.552783 117.778202 
L 491.453142 138.684965 
L 492.903321 146.32074 
L 494.353501 150.414779 
L 495.80368 152.097963 
L 497.253859 152.633565 
L 500.154218 152.783171 
L 501.604397 152.798519 
L 503.054577 152.95049 
L 504.504756 153.607961 
L 505.954935 155.428741 
L 507.405115 159.010411 
L 510.305473 169.277744 
L 511.755653 172.60119 
L 513.205832 173.367326 
L 516.106191 171.625445 
L 517.55637 171.273748 
L 519.006549 171.06575 
L 520.456729 170.155896 
L 521.906908 168.065443 
L 523.357087 165.219355 
L 524.807266 162.695255 
L 526.257446 161.223477 
L 527.707625 160.690224 
L 529.157804 160.872271 
L 530.607984 162.19202 
L 532.058163 165.166194 
L 534.958522 173.226985 
L 536.408701 175.926042 
L 537.85888 177.435884 
L 539.30906 177.841797 
L 540.759239 176.499172 
L 542.209418 172.932722 
L 543.659598 168.04225 
L 545.109777 163.625885 
L 546.559956 160.729384 
L 548.010136 158.957985 
L 552.360674 154.356994 
L 553.810853 153.442821 
L 555.261032 153.00681 
L 556.711212 152.851135 
L 561.06175 152.798454 
L 636.471074 152.798454 
L 636.471074 152.798454 
" clip-path="url(#p442719ca3e)" style="fill: none; stroke: #d62728; stroke-width: 2; stroke-linecap: square"/>
   </g>
   <g id="line2d_30">
    <path d="M 405.892562 160.705721 
L 407.342741 159.832831 
L 408.792921 158.203506 
L 410.2431 156.252669 
L 411.693279 154.581467 
L 413.143459 153.528749 
L 414.593638 153.033557 
L 416.043817 152.857447 
L 420.394355 152.798454 
L 442.147045 152.767858 
L 443.597224 152.677442 
L 445.047404 152.424129 
L 446.497583 151.893983 
L 450.848121 149.406896 
L 455.198659 147.748436 
L 456.648838 147.716516 
L 458.099018 148.521593 
L 460.999376 151.263578 
L 462.449556 152.16021 
L 463.899735 152.591547 
L 465.349914 152.74614 
L 469.700452 152.798454 
L 485.652425 152.82848 
L 487.102604 152.917208 
L 488.552783 153.164241 
L 490.002963 153.675931 
L 492.903321 155.183684 
L 494.353501 155.501273 
L 495.80368 155.183684 
L 498.704039 153.675931 
L 500.154218 153.164241 
L 501.604397 152.917208 
L 504.504756 152.804367 
L 532.058163 152.801411 
L 534.958522 152.918289 
L 536.408701 153.302341 
L 537.85888 154.480392 
L 539.30906 157.278648 
L 540.759239 162.383027 
L 543.659598 176.366838 
L 545.109777 180.700232 
L 546.559956 181.265793 
L 548.010136 179.235889 
L 549.460315 176.710276 
L 550.910494 174.821202 
L 552.360674 173.588786 
L 553.810853 173.021212 
L 555.261032 173.335627 
L 556.711212 174.119337 
L 558.161391 174.26388 
L 559.61157 173.242262 
L 561.06175 171.87772 
L 562.511929 171.222876 
L 563.962108 171.066135 
L 565.412288 170.230317 
L 566.862467 168.153655 
L 568.312646 165.519115 
L 569.762826 163.343947 
L 571.213005 161.933595 
L 572.663184 160.892928 
L 574.113363 160.043933 
L 575.563543 160.011422 
L 577.013722 161.514916 
L 578.463901 164.068247 
L 579.914081 165.841324 
L 581.36426 165.194283 
L 582.814439 162.212331 
L 584.264619 158.469157 
L 585.714798 155.502353 
L 587.164977 153.818357 
L 588.615157 153.102452 
L 590.065336 152.869977 
L 594.415874 152.798454 
L 636.471074 152.798454 
L 636.471074 152.798454 
" clip-path="url(#p442719ca3e)" style="fill: none; stroke: #ff7f0e; stroke-width: 2; stroke-linecap: square"/>
   </g>
   <g id="LineCollection_1">
    <path d="M 521.877904 304.725081 
L 521.877904 120.372307 
" clip-path="url(#p442719ca3e)" style="fill: none; stroke-dasharray: 7.4,3.2; stroke-dashoffset: 0; stroke: #000000; stroke-width: 2"/>
    <path d="M 536.379697 304.725081 
L 536.379697 120.372307 
" clip-path="url(#p442719ca3e)" style="fill: none; stroke-dasharray: 7.4,3.2; stroke-dashoffset: 0; stroke: #000000; stroke-width: 2"/>
    <path d="M 565.383284 304.725081 
L 565.383284 120.372307 
" clip-path="url(#p442719ca3e)" style="fill: none; stroke-dasharray: 7.4,3.2; stroke-dashoffset: 0; stroke: #000000; stroke-width: 2"/>
    <path d="M 623.390457 304.725081 
L 623.390457 120.372307 
" clip-path="url(#p442719ca3e)" style="fill: none; stroke-dasharray: 7.4,3.2; stroke-dashoffset: 0; stroke: #000000; stroke-width: 2"/>
   </g>
   <g id="patch_8">
    <path d="M 394.363636 333.490909 
L 394.363636 86.4 
" style="fill: none; stroke: #000000; stroke-width: 0.8; stroke-linejoin: miter; stroke-linecap: square"/>
   </g>
   <g id="patch_9">
    <path d="M 648 333.490909 
L 648 86.4 
" style="fill: none; stroke: #000000; stroke-width: 0.8; stroke-linejoin: miter; stroke-linecap: square"/>
   </g>
   <g id="patch_10">
    <path d="M 394.363636 333.490909 
L 648 333.490909 
" style="fill: none; stroke: #000000; stroke-width: 0.8; stroke-linejoin: miter; stroke-linecap: square"/>
   </g>
   <g id="patch_11">
    <path d="M 394.363636 86.4 
L 648 86.4 
" style="fill: none; stroke: #000000; stroke-width: 0.8; stroke-linejoin: miter; stroke-linecap: square"/>
   </g>
   <g id="text_27">
    <!-- unit_49 -->
    <g transform="translate(498.922756 80.4)scale(0.12 -0.12)">
     <defs>
      <path id="DejaVuSans-75" d="M 544 1381 
L 544 3500 
L 1119 3500 
L 1119 1403 
Q 1119 906 1312 657 
Q 1506 409 1894 409 
Q 2359 409 2629 706 
Q 2900 1003 2900 1516 
L 2900 3500 
L 3475 3500 
L 3475 0 
L 2900 0 
L 2900 538 
Q 2691 219 2414 64 
Q 2138 -91 1772 -91 
Q 1169 -91 856 284 
Q 544 659 544 1381 
z
M 1991 3584 
L 1991 3584 
z
" transform="scale(0.015625)"/>
      <path id="DejaVuSans-6e" d="M 3513 2113 
L 3513 0 
L 2938 0 
L 2938 2094 
Q 2938 2591 2744 2837 
Q 2550 3084 2163 3084 
Q 1697 3084 1428 2787 
Q 1159 2491 1159 1978 
L 1159 0 
L 581 0 
L 581 3500 
L 1159 3500 
L 1159 2956 
Q 1366 3272 1645 3428 
Q 1925 3584 2291 3584 
Q 2894 3584 3203 3211 
Q 3513 2838 3513 2113 
z
" transform="scale(0.015625)"/>
      <path id="DejaVuSans-69" d="M 603 3500 
L 1178 3500 
L 1178 0 
L 603 0 
L 603 3500 
z
M 603 4863 
L 1178 4863 
L 1178 4134 
L 603 4134 
L 603 4863 
z
" transform="scale(0.015625)"/>
      <path id="DejaVuSans-74" d="M 1172 4494 
L 1172 3500 
L 2356 3500 
L 2356 3053 
L 1172 3053 
L 1172 1153 
Q 1172 725 1289 603 
Q 1406 481 1766 481 
L 2356 481 
L 2356 0 
L 1766 0 
Q 1100 0 847 248 
Q 594 497 594 1153 
L 594 3053 
L 172 3053 
L 172 3500 
L 594 3500 
L 594 4494 
L 1172 4494 
z
" transform="scale(0.015625)"/>
      <path id="DejaVuSans-5f" d="M 3263 -1063 
L 3263 -1509 
L -63 -1509 
L -63 -1063 
L 3263 -1063 
z
" transform="scale(0.015625)"/>
      <path id="DejaVuSans-39" d="M 703 97 
L 703 672 
Q 941 559 1184 500 
Q 1428 441 1663 441 
Q 2288 441 2617 861 
Q 2947 1281 2994 2138 
Q 2813 1869 2534 1725 
Q 2256 1581 1919 1581 
Q 1219 1581 811 2004 
Q 403 2428 403 3163 
Q 403 3881 828 4315 
Q 1253 4750 1959 4750 
Q 2769 4750 3195 4129 
Q 3622 3509 3622 2328 
Q 3622 1225 3098 567 
Q 2575 -91 1691 -91 
Q 1453 -91 1209 -44 
Q 966 3 703 97 
z
M 1959 2075 
Q 2384 2075 2632 2365 
Q 2881 2656 2881 3163 
Q 2881 3666 2632 3958 
Q 2384 4250 1959 4250 
Q 1534 4250 1286 3958 
Q 1038 3666 1038 3163 
Q 1038 2656 1286 2365 
Q 1534 2075 1959 2075 
z
" transform="scale(0.015625)"/>
     </defs>
     <use xlink:href="#DejaVuSans-75"/>
     <use xlink:href="#DejaVuSans-6e" x="63.378906"/>
     <use xlink:href="#DejaVuSans-69" x="126.757812"/>
     <use xlink:href="#DejaVuSans-74" x="154.541016"/>
     <use xlink:href="#DejaVuSans-5f" x="193.75"/>
     <use xlink:href="#DejaVuSans-34" x="243.75"/>
     <use xlink:href="#DejaVuSans-39" x="307.373047"/>
    </g>
   </g>
  </g>
  <g id="axes_3">
   <g id="patch_12">
    <path d="M 90 630 
L 343.636364 630 
L 343.636364 382.909091 
L 90 382.909091 
z
" style="fill: #ffffff"/>
   </g>
   <g id="matplotlib.axis_5">
    <g id="xtick_12">
     <g id="line2d_31">
      <g>
       <use xlink:href="#mc59f26ea48" x="90" y="630" style="stroke: #000000; stroke-width: 0.8"/>
      </g>
     </g>
     <g id="text_28">
      <!-- 0.0 -->
      <g transform="translate(82.048438 644.598437)scale(0.1 -0.1)">
       <use xlink:href="#DejaVuSans-30"/>
       <use xlink:href="#DejaVuSans-2e" x="63.623047"/>
       <use xlink:href="#DejaVuSans-30" x="95.410156"/>
      </g>
     </g>
    </g>
    <g id="xtick_13">
     <g id="line2d_32">
      <g>
       <use xlink:href="#mc59f26ea48" x="140.727273" y="630" style="stroke: #000000; stroke-width: 0.8"/>
      </g>
     </g>
     <g id="text_29">
      <!-- 0.2 -->
      <g transform="translate(132.77571 644.598437)scale(0.1 -0.1)">
       <use xlink:href="#DejaVuSans-30"/>
       <use xlink:href="#DejaVuSans-2e" x="63.623047"/>
       <use xlink:href="#DejaVuSans-32" x="95.410156"/>
      </g>
     </g>
    </g>
    <g id="xtick_14">
     <g id="line2d_33">
      <g>
       <use xlink:href="#mc59f26ea48" x="191.454545" y="630" style="stroke: #000000; stroke-width: 0.8"/>
      </g>
     </g>
     <g id="text_30">
      <!-- 0.4 -->
      <g transform="translate(183.502983 644.598437)scale(0.1 -0.1)">
       <use xlink:href="#DejaVuSans-30"/>
       <use xlink:href="#DejaVuSans-2e" x="63.623047"/>
       <use xlink:href="#DejaVuSans-34" x="95.410156"/>
      </g>
     </g>
    </g>
    <g id="xtick_15">
     <g id="line2d_34">
      <g>
       <use xlink:href="#mc59f26ea48" x="242.181818" y="630" style="stroke: #000000; stroke-width: 0.8"/>
      </g>
     </g>
     <g id="text_31">
      <!-- 0.6 -->
      <g transform="translate(234.230256 644.598437)scale(0.1 -0.1)">
       <use xlink:href="#DejaVuSans-30"/>
       <use xlink:href="#DejaVuSans-2e" x="63.623047"/>
       <use xlink:href="#DejaVuSans-36" x="95.410156"/>
      </g>
     </g>
    </g>
    <g id="xtick_16">
     <g id="line2d_35">
      <g>
       <use xlink:href="#mc59f26ea48" x="292.909091" y="630" style="stroke: #000000; stroke-width: 0.8"/>
      </g>
     </g>
     <g id="text_32">
      <!-- 0.8 -->
      <g transform="translate(284.957528 644.598437)scale(0.1 -0.1)">
       <use xlink:href="#DejaVuSans-30"/>
       <use xlink:href="#DejaVuSans-2e" x="63.623047"/>
       <use xlink:href="#DejaVuSans-38" x="95.410156"/>
      </g>
     </g>
    </g>
    <g id="xtick_17">
     <g id="line2d_36">
      <g>
       <use xlink:href="#mc59f26ea48" x="343.636364" y="630" style="stroke: #000000; stroke-width: 0.8"/>
      </g>
     </g>
     <g id="text_33">
      <!-- 1.0 -->
      <g transform="translate(335.684801 644.598437)scale(0.1 -0.1)">
       <use xlink:href="#DejaVuSans-31"/>
       <use xlink:href="#DejaVuSans-2e" x="63.623047"/>
       <use xlink:href="#DejaVuSans-30" x="95.410156"/>
      </g>
     </g>
    </g>
   </g>
   <g id="matplotlib.axis_6">
    <g id="ytick_16">
     <g id="line2d_37">
      <g>
       <use xlink:href="#m136a3fae6c" x="90" y="630" style="stroke: #000000; stroke-width: 0.8"/>
      </g>
     </g>
     <g id="text_34">
      <!-- 0.0 -->
      <g transform="translate(67.096875 633.799219)scale(0.1 -0.1)">
       <use xlink:href="#DejaVuSans-30"/>
       <use xlink:href="#DejaVuSans-2e" x="63.623047"/>
       <use xlink:href="#DejaVuSans-30" x="95.410156"/>
      </g>
     </g>
    </g>
    <g id="ytick_17">
     <g id="line2d_38">
      <g>
       <use xlink:href="#m136a3fae6c" x="90" y="580.581818" style="stroke: #000000; stroke-width: 0.8"/>
      </g>
     </g>
     <g id="text_35">
      <!-- 0.2 -->
      <g transform="translate(67.096875 584.381037)scale(0.1 -0.1)">
       <use xlink:href="#DejaVuSans-30"/>
       <use xlink:href="#DejaVuSans-2e" x="63.623047"/>
       <use xlink:href="#DejaVuSans-32" x="95.410156"/>
      </g>
     </g>
    </g>
    <g id="ytick_18">
     <g id="line2d_39">
      <g>
       <use xlink:href="#m136a3fae6c" x="90" y="531.163636" style="stroke: #000000; stroke-width: 0.8"/>
      </g>
     </g>
     <g id="text_36">
      <!-- 0.4 -->
      <g transform="translate(67.096875 534.962855)scale(0.1 -0.1)">
       <use xlink:href="#DejaVuSans-30"/>
       <use xlink:href="#DejaVuSans-2e" x="63.623047"/>
       <use xlink:href="#DejaVuSans-34" x="95.410156"/>
      </g>
     </g>
    </g>
    <g id="ytick_19">
     <g id="line2d_40">
      <g>
       <use xlink:href="#m136a3fae6c" x="90" y="481.745455" style="stroke: #000000; stroke-width: 0.8"/>
      </g>
     </g>
     <g id="text_37">
      <!-- 0.6 -->
      <g transform="translate(67.096875 485.544673)scale(0.1 -0.1)">
       <use xlink:href="#DejaVuSans-30"/>
       <use xlink:href="#DejaVuSans-2e" x="63.623047"/>
       <use xlink:href="#DejaVuSans-36" x="95.410156"/>
      </g>
     </g>
    </g>
    <g id="ytick_20">
     <g id="line2d_41">
      <g>
       <use xlink:href="#m136a3fae6c" x="90" y="432.327273" style="stroke: #000000; stroke-width: 0.8"/>
      </g>
     </g>
     <g id="text_38">
      <!-- 0.8 -->
      <g transform="translate(67.096875 436.126491)scale(0.1 -0.1)">
       <use xlink:href="#DejaVuSans-30"/>
       <use xlink:href="#DejaVuSans-2e" x="63.623047"/>
       <use xlink:href="#DejaVuSans-38" x="95.410156"/>
      </g>
     </g>
    </g>
    <g id="ytick_21">
     <g id="line2d_42">
      <g>
       <use xlink:href="#m136a3fae6c" x="90" y="382.909091" style="stroke: #000000; stroke-width: 0.8"/>
      </g>
     </g>
     <g id="text_39">
      <!-- 1.0 -->
      <g transform="translate(67.096875 386.70831)scale(0.1 -0.1)">
       <use xlink:href="#DejaVuSans-31"/>
       <use xlink:href="#DejaVuSans-2e" x="63.623047"/>
       <use xlink:href="#DejaVuSans-30" x="95.410156"/>
      </g>
     </g>
    </g>
   </g>
   <g id="patch_13">
    <path d="M 90 630 
L 90 382.909091 
" style="fill: none; stroke: #000000; stroke-width: 0.8; stroke-linejoin: miter; stroke-linecap: square"/>
   </g>
   <g id="patch_14">
    <path d="M 343.636364 630 
L 343.636364 382.909091 
" style="fill: none; stroke: #000000; stroke-width: 0.8; stroke-linejoin: miter; stroke-linecap: square"/>
   </g>
   <g id="patch_15">
    <path d="M 90 630 
L 343.636364 630 
" style="fill: none; stroke: #000000; stroke-width: 0.8; stroke-linejoin: miter; stroke-linecap: square"/>
   </g>
   <g id="patch_16">
    <path d="M 90 382.909091 
L 343.636364 382.909091 
" style="fill: none; stroke: #000000; stroke-width: 0.8; stroke-linejoin: miter; stroke-linecap: square"/>
   </g>
  </g>
  <g id="axes_4">
   <g id="patch_17">
    <path d="M 394.363636 630 
L 648 630 
L 648 382.909091 
L 394.363636 382.909091 
z
" style="fill: #ffffff"/>
   </g>
   <g id="matplotlib.axis_7">
    <g id="xtick_18">
     <g id="line2d_43">
      <g>
       <use xlink:href="#mc59f26ea48" x="405.863558" y="630" style="stroke: #000000; stroke-width: 0.8"/>
      </g>
     </g>
     <g id="text_40">
      <!-- 0 -->
      <g transform="translate(402.682308 644.598437)scale(0.1 -0.1)">
       <use xlink:href="#DejaVuSans-30"/>
      </g>
     </g>
    </g>
    <g id="xtick_19">
     <g id="line2d_44">
      <g>
       <use xlink:href="#mc59f26ea48" x="463.870731" y="630" style="stroke: #000000; stroke-width: 0.8"/>
      </g>
     </g>
     <g id="text_41">
      <!-- 2000 -->
      <g transform="translate(451.145731 644.598437)scale(0.1 -0.1)">
       <use xlink:href="#DejaVuSans-32"/>
       <use xlink:href="#DejaVuSans-30" x="63.623047"/>
       <use xlink:href="#DejaVuSans-30" x="127.246094"/>
       <use xlink:href="#DejaVuSans-30" x="190.869141"/>
      </g>
     </g>
    </g>
    <g id="xtick_20">
     <g id="line2d_45">
      <g>
       <use xlink:href="#mc59f26ea48" x="521.877904" y="630" style="stroke: #000000; stroke-width: 0.8"/>
      </g>
     </g>
     <g id="text_42">
      <!-- 4000 -->
      <g transform="translate(509.152904 644.598437)scale(0.1 -0.1)">
       <use xlink:href="#DejaVuSans-34"/>
       <use xlink:href="#DejaVuSans-30" x="63.623047"/>
       <use xlink:href="#DejaVuSans-30" x="127.246094"/>
       <use xlink:href="#DejaVuSans-30" x="190.869141"/>
      </g>
     </g>
    </g>
    <g id="xtick_21">
     <g id="line2d_46">
      <g>
       <use xlink:href="#mc59f26ea48" x="579.885077" y="630" style="stroke: #000000; stroke-width: 0.8"/>
      </g>
     </g>
     <g id="text_43">
      <!-- 6000 -->
      <g transform="translate(567.160077 644.598437)scale(0.1 -0.1)">
       <use xlink:href="#DejaVuSans-36"/>
       <use xlink:href="#DejaVuSans-30" x="63.623047"/>
       <use xlink:href="#DejaVuSans-30" x="127.246094"/>
       <use xlink:href="#DejaVuSans-30" x="190.869141"/>
      </g>
     </g>
    </g>
    <g id="xtick_22">
     <g id="line2d_47">
      <g>
       <use xlink:href="#mc59f26ea48" x="637.89225" y="630" style="stroke: #000000; stroke-width: 0.8"/>
      </g>
     </g>
     <g id="text_44">
      <!-- 8000 -->
      <g transform="translate(625.16725 644.598437)scale(0.1 -0.1)">
       <use xlink:href="#DejaVuSans-38"/>
       <use xlink:href="#DejaVuSans-30" x="63.623047"/>
       <use xlink:href="#DejaVuSans-30" x="127.246094"/>
       <use xlink:href="#DejaVuSans-30" x="190.869141"/>
      </g>
     </g>
    </g>
   </g>
   <g id="matplotlib.axis_8">
    <g id="ytick_22">
     <g id="line2d_48">
      <g>
       <use xlink:href="#m136a3fae6c" x="394.363636" y="630" style="stroke: #000000; stroke-width: 0.8"/>
      </g>
     </g>
     <g id="text_45">
      <!-- −2 -->
      <g transform="translate(372.621449 633.799219)scale(0.1 -0.1)">
       <use xlink:href="#DejaVuSans-2212"/>
       <use xlink:href="#DejaVuSans-32" x="83.789062"/>
      </g>
     </g>
    </g>
    <g id="ytick_23">
     <g id="line2d_49">
      <g>
       <use xlink:href="#m136a3fae6c" x="394.363636" y="601.54448" style="stroke: #000000; stroke-width: 0.8"/>
      </g>
     </g>
     <g id="text_46">
      <!-- 0 -->
      <g transform="translate(381.001136 605.343699)scale(0.1 -0.1)">
       <use xlink:href="#DejaVuSans-30"/>
      </g>
     </g>
    </g>
    <g id="ytick_24">
     <g id="line2d_50">
      <g>
       <use xlink:href="#m136a3fae6c" x="394.363636" y="573.08896" style="stroke: #000000; stroke-width: 0.8"/>
      </g>
     </g>
     <g id="text_47">
      <!-- 2 -->
      <g transform="translate(381.001136 576.888179)scale(0.1 -0.1)">
       <use xlink:href="#DejaVuSans-32"/>
      </g>
     </g>
    </g>
    <g id="ytick_25">
     <g id="line2d_51">
      <g>
       <use xlink:href="#m136a3fae6c" x="394.363636" y="544.63344" style="stroke: #000000; stroke-width: 0.8"/>
      </g>
     </g>
     <g id="text_48">
      <!-- 4 -->
      <g transform="translate(381.001136 548.432658)scale(0.1 -0.1)">
       <use xlink:href="#DejaVuSans-34"/>
      </g>
     </g>
    </g>
    <g id="ytick_26">
     <g id="line2d_52">
      <g>
       <use xlink:href="#m136a3fae6c" x="394.363636" y="516.17792" style="stroke: #000000; stroke-width: 0.8"/>
      </g>
     </g>
     <g id="text_49">
      <!-- 6 -->
      <g transform="translate(381.001136 519.977138)scale(0.1 -0.1)">
       <use xlink:href="#DejaVuSans-36"/>
      </g>
     </g>
    </g>
    <g id="ytick_27">
     <g id="line2d_53">
      <g>
       <use xlink:href="#m136a3fae6c" x="394.363636" y="487.7224" style="stroke: #000000; stroke-width: 0.8"/>
      </g>
     </g>
     <g id="text_50">
      <!-- 8 -->
      <g transform="translate(381.001136 491.521618)scale(0.1 -0.1)">
       <use xlink:href="#DejaVuSans-38"/>
      </g>
     </g>
    </g>
    <g id="ytick_28">
     <g id="line2d_54">
      <g>
       <use xlink:href="#m136a3fae6c" x="394.363636" y="459.266879" style="stroke: #000000; stroke-width: 0.8"/>
      </g>
     </g>
     <g id="text_51">
      <!-- 10 -->
      <g transform="translate(374.638636 463.066098)scale(0.1 -0.1)">
       <use xlink:href="#DejaVuSans-31"/>
       <use xlink:href="#DejaVuSans-30" x="63.623047"/>
      </g>
     </g>
    </g>
    <g id="ytick_29">
     <g id="line2d_55">
      <g>
       <use xlink:href="#m136a3fae6c" x="394.363636" y="430.811359" style="stroke: #000000; stroke-width: 0.8"/>
      </g>
     </g>
     <g id="text_52">
      <!-- 12 -->
      <g transform="translate(374.638636 434.610578)scale(0.1 -0.1)">
       <use xlink:href="#DejaVuSans-31"/>
       <use xlink:href="#DejaVuSans-32" x="63.623047"/>
      </g>
     </g>
    </g>
    <g id="ytick_30">
     <g id="line2d_56">
      <g>
       <use xlink:href="#m136a3fae6c" x="394.363636" y="402.355839" style="stroke: #000000; stroke-width: 0.8"/>
      </g>
     </g>
     <g id="text_53">
      <!-- 14 -->
      <g transform="translate(374.638636 406.155058)scale(0.1 -0.1)">
       <use xlink:href="#DejaVuSans-31"/>
       <use xlink:href="#DejaVuSans-34" x="63.623047"/>
      </g>
     </g>
    </g>
   </g>
   <g id="line2d_57">
    <path d="M 415.767594 721 
L 416.043817 715.627941 
L 417.493997 668.65372 
L 418.944176 655.163194 
L 420.394355 651.960327 
L 421.844535 607.472492 
L 423.294714 568.22959 
L 424.744893 577.653074 
L 426.195073 596.163765 
L 427.645252 601.520309 
L 429.095431 601.84495 
L 430.54561 601.784604 
L 431.99579 601.448089 
L 433.445969 597.260726 
L 436.346328 582.498247 
L 437.796507 578.20685 
L 440.696866 598.220029 
L 442.147045 601.229318 
L 443.597224 602.228105 
L 445.047404 601.387328 
L 446.497583 594.829579 
L 447.947762 575.742515 
L 449.397942 563.496375 
L 450.848121 580.024474 
L 452.2983 594.56696 
L 453.74848 601.925179 
L 455.198659 611.343116 
L 456.648838 617.246337 
L 458.099018 614.488573 
L 459.549197 608.948151 
L 460.999376 604.81595 
L 462.449556 608.063554 
L 465.349914 678.720723 
L 468.250273 642.915781 
L 469.700452 646.047852 
L 471.150632 627.385271 
L 472.600811 607.280868 
L 474.05099 601.998914 
L 475.501169 602.333033 
L 476.951349 613.378551 
L 478.401528 658.887941 
L 479.851707 711.087791 
L 481.301887 709.285341 
L 481.753133 721 
M 491.414063 721 
L 491.453142 716.257746 
L 492.903321 655.34394 
L 494.353501 631.065027 
L 495.80368 604.753963 
L 497.253859 587.527642 
L 498.704039 591.669844 
L 500.154218 599.303563 
L 501.604397 601.360533 
L 503.054577 601.540825 
L 504.504756 601.575306 
L 505.954935 601.916612 
L 507.405115 605.081039 
L 508.855294 618.177723 
L 510.305473 642.067358 
L 511.755653 678.752269 
L 513.205832 704.488499 
L 514.656011 673.324555 
L 516.106191 630.931297 
L 517.55637 607.189599 
L 519.006549 614.879987 
L 520.456729 631.296594 
L 521.906908 635.280914 
L 523.357087 618.922193 
L 524.807266 603.986047 
L 526.257446 591.970628 
L 527.707625 582.401038 
L 529.157804 592.862951 
L 530.607984 604.207658 
L 532.058163 605.096013 
L 533.508342 596.663453 
L 534.958522 589.981828 
L 536.408701 604.026822 
L 537.85888 616.140226 
L 539.30906 609.890261 
L 540.759239 613.367501 
L 542.209418 665.759839 
L 543.235213 721 
M 545.94799 721 
L 546.559956 695.994724 
L 548.010136 658.819225 
L 549.460315 686.732622 
L 550.910494 711.828664 
L 552.360674 678.116509 
L 553.810853 651.108661 
L 555.261032 654.27847 
L 556.711212 651.792732 
L 558.161391 631.504769 
L 559.61157 640.58203 
L 561.06175 680.791419 
L 562.511929 699.170351 
L 563.962108 678.193368 
L 565.412288 661.623258 
L 566.862467 660.994611 
L 568.312646 642.408144 
L 569.762826 617.328924 
L 571.213005 627.658583 
L 572.663184 655.179133 
L 574.113363 634.390303 
L 575.563543 594.720103 
L 577.013722 589.603215 
L 578.463901 613.021129 
L 579.914081 638.962426 
L 581.36426 623.177873 
L 582.814439 580.123961 
L 584.264619 566.147549 
L 585.714798 567.12224 
L 587.164977 567.403856 
L 588.615157 585.681836 
L 590.065336 592.913849 
L 591.515515 587.434047 
L 592.965695 567.558522 
L 594.415874 496.626624 
L 595.866053 437.623382 
L 597.316233 413.552496 
L 598.766412 401.761256 
L 600.216591 404.714163 
L 601.666771 402.287304 
L 603.11695 382.909091 
L 604.567129 393.223986 
L 606.017309 435.432046 
L 607.467488 457.007672 
L 608.917667 455.706425 
L 610.367847 477.669811 
L 611.818026 564.870319 
L 613.268205 690.374849 
L 614.36728 721 
M 614.925052 721 
L 616.168564 662.134107 
L 617.618743 649.578449 
L 619.068923 680.336759 
L 620.372585 721 
M 625.186551 721 
L 626.319819 613.409959 
L 627.769998 514.897039 
L 629.220178 491.665672 
L 630.670357 500.298734 
L 632.120536 528.665363 
L 633.570716 560.246154 
L 635.020895 573.949364 
L 636.471074 571.556739 
L 636.471074 571.556739 
" clip-path="url(#pbc3560bef8)" style="fill: none; stroke: #1f77b4; stroke-width: 1.5; stroke-linecap: square"/>
   </g>
   <g id="patch_18">
    <path d="M 394.363636 630 
L 394.363636 382.909091 
" style="fill: none; stroke: #000000; stroke-width: 0.8; stroke-linejoin: miter; stroke-linecap: square"/>
   </g>
   <g id="patch_19">
    <path d="M 648 630 
L 648 382.909091 
" style="fill: none; stroke: #000000; stroke-width: 0.8; stroke-linejoin: miter; stroke-linecap: square"/>
   </g>
   <g id="patch_20">
    <path d="M 394.363636 630 
L 648 630 
" style="fill: none; stroke: #000000; stroke-width: 0.8; stroke-linejoin: miter; stroke-linecap: square"/>
   </g>
   <g id="patch_21">
    <path d="M 394.363636 382.909091 
L 648 382.909091 
" style="fill: none; stroke: #000000; stroke-width: 0.8; stroke-linejoin: miter; stroke-linecap: square"/>
   </g>
   <g id="text_54">
    <!-- explained variance -->
    <g transform="translate(464.181818 376.909091)scale(0.12 -0.12)">
     <defs>
      <path id="DejaVuSans-65" d="M 3597 1894 
L 3597 1613 
L 953 1613 
Q 991 1019 1311 708 
Q 1631 397 2203 397 
Q 2534 397 2845 478 
Q 3156 559 3463 722 
L 3463 178 
Q 3153 47 2828 -22 
Q 2503 -91 2169 -91 
Q 1331 -91 842 396 
Q 353 884 353 1716 
Q 353 2575 817 3079 
Q 1281 3584 2069 3584 
Q 2775 3584 3186 3129 
Q 3597 2675 3597 1894 
z
M 3022 2063 
Q 3016 2534 2758 2815 
Q 2500 3097 2075 3097 
Q 1594 3097 1305 2825 
Q 1016 2553 972 2059 
L 3022 2063 
z
" transform="scale(0.015625)"/>
      <path id="DejaVuSans-78" d="M 3513 3500 
L 2247 1797 
L 3578 0 
L 2900 0 
L 1881 1375 
L 863 0 
L 184 0 
L 1544 1831 
L 300 3500 
L 978 3500 
L 1906 2253 
L 2834 3500 
L 3513 3500 
z
" transform="scale(0.015625)"/>
      <path id="DejaVuSans-70" d="M 1159 525 
L 1159 -1331 
L 581 -1331 
L 581 3500 
L 1159 3500 
L 1159 2969 
Q 1341 3281 1617 3432 
Q 1894 3584 2278 3584 
Q 2916 3584 3314 3078 
Q 3713 2572 3713 1747 
Q 3713 922 3314 415 
Q 2916 -91 2278 -91 
Q 1894 -91 1617 61 
Q 1341 213 1159 525 
z
M 3116 1747 
Q 3116 2381 2855 2742 
Q 2594 3103 2138 3103 
Q 1681 3103 1420 2742 
Q 1159 2381 1159 1747 
Q 1159 1113 1420 752 
Q 1681 391 2138 391 
Q 2594 391 2855 752 
Q 3116 1113 3116 1747 
z
" transform="scale(0.015625)"/>
      <path id="DejaVuSans-6c" d="M 603 4863 
L 1178 4863 
L 1178 0 
L 603 0 
L 603 4863 
z
" transform="scale(0.015625)"/>
      <path id="DejaVuSans-61" d="M 2194 1759 
Q 1497 1759 1228 1600 
Q 959 1441 959 1056 
Q 959 750 1161 570 
Q 1363 391 1709 391 
Q 2188 391 2477 730 
Q 2766 1069 2766 1631 
L 2766 1759 
L 2194 1759 
z
M 3341 1997 
L 3341 0 
L 2766 0 
L 2766 531 
Q 2569 213 2275 61 
Q 1981 -91 1556 -91 
Q 1019 -91 701 211 
Q 384 513 384 1019 
Q 384 1609 779 1909 
Q 1175 2209 1959 2209 
L 2766 2209 
L 2766 2266 
Q 2766 2663 2505 2880 
Q 2244 3097 1772 3097 
Q 1472 3097 1187 3025 
Q 903 2953 641 2809 
L 641 3341 
Q 956 3463 1253 3523 
Q 1550 3584 1831 3584 
Q 2591 3584 2966 3190 
Q 3341 2797 3341 1997 
z
" transform="scale(0.015625)"/>
      <path id="DejaVuSans-64" d="M 2906 2969 
L 2906 4863 
L 3481 4863 
L 3481 0 
L 2906 0 
L 2906 525 
Q 2725 213 2448 61 
Q 2172 -91 1784 -91 
Q 1150 -91 751 415 
Q 353 922 353 1747 
Q 353 2572 751 3078 
Q 1150 3584 1784 3584 
Q 2172 3584 2448 3432 
Q 2725 3281 2906 2969 
z
M 947 1747 
Q 947 1113 1208 752 
Q 1469 391 1925 391 
Q 2381 391 2643 752 
Q 2906 1113 2906 1747 
Q 2906 2381 2643 2742 
Q 2381 3103 1925 3103 
Q 1469 3103 1208 2742 
Q 947 2381 947 1747 
z
" transform="scale(0.015625)"/>
      <path id="DejaVuSans-20" transform="scale(0.015625)"/>
      <path id="DejaVuSans-76" d="M 191 3500 
L 800 3500 
L 1894 563 
L 2988 3500 
L 3597 3500 
L 2284 0 
L 1503 0 
L 191 3500 
z
" transform="scale(0.015625)"/>
      <path id="DejaVuSans-72" d="M 2631 2963 
Q 2534 3019 2420 3045 
Q 2306 3072 2169 3072 
Q 1681 3072 1420 2755 
Q 1159 2438 1159 1844 
L 1159 0 
L 581 0 
L 581 3500 
L 1159 3500 
L 1159 2956 
Q 1341 3275 1631 3429 
Q 1922 3584 2338 3584 
Q 2397 3584 2469 3576 
Q 2541 3569 2628 3553 
L 2631 2963 
z
" transform="scale(0.015625)"/>
      <path id="DejaVuSans-63" d="M 3122 3366 
L 3122 2828 
Q 2878 2963 2633 3030 
Q 2388 3097 2138 3097 
Q 1578 3097 1268 2742 
Q 959 2388 959 1747 
Q 959 1106 1268 751 
Q 1578 397 2138 397 
Q 2388 397 2633 464 
Q 2878 531 3122 666 
L 3122 134 
Q 2881 22 2623 -34 
Q 2366 -91 2075 -91 
Q 1284 -91 818 406 
Q 353 903 353 1747 
Q 353 2603 823 3093 
Q 1294 3584 2113 3584 
Q 2378 3584 2631 3529 
Q 2884 3475 3122 3366 
z
" transform="scale(0.015625)"/>
     </defs>
     <use xlink:href="#DejaVuSans-65"/>
     <use xlink:href="#DejaVuSans-78" x="59.773438"/>
     <use xlink:href="#DejaVuSans-70" x="118.953125"/>
     <use xlink:href="#DejaVuSans-6c" x="182.429688"/>
     <use xlink:href="#DejaVuSans-61" x="210.212891"/>
     <use xlink:href="#DejaVuSans-69" x="271.492188"/>
     <use xlink:href="#DejaVuSans-6e" x="299.275391"/>
     <use xlink:href="#DejaVuSans-65" x="362.654297"/>
     <use xlink:href="#DejaVuSans-64" x="424.177734"/>
     <use xlink:href="#DejaVuSans-20" x="487.654297"/>
     <use xlink:href="#DejaVuSans-76" x="519.441406"/>
     <use xlink:href="#DejaVuSans-61" x="578.621094"/>
     <use xlink:href="#DejaVuSans-72" x="639.900391"/>
     <use xlink:href="#DejaVuSans-69" x="681.013672"/>
     <use xlink:href="#DejaVuSans-61" x="708.796875"/>
     <use xlink:href="#DejaVuSans-6e" x="770.076172"/>
     <use xlink:href="#DejaVuSans-63" x="833.455078"/>
     <use xlink:href="#DejaVuSans-65" x="888.435547"/>
    </g>
   </g>
  </g>
 </g>
 <defs>
  <clipPath id="p442719ca3e">
   <rect x="394.363636" y="86.4" width="253.636364" height="247.090909"/>
  </clipPath>
  <clipPath id="pbc3560bef8">
   <rect x="394.363636" y="382.909091" width="253.636364" height="247.090909"/>
  </clipPath>
 </defs>
</svg>
