<?xml version="1.0" encoding="utf-8" standalone="no"?>
<!DOCTYPE svg PUBLIC "-//W3C//DTD SVG 1.1//EN"
  "http://www.w3.org/Graphics/SVG/1.1/DTD/svg11.dtd">
<svg xmlns:xlink="http://www.w3.org/1999/xlink" width="720pt" height="720pt" viewBox="0 0 720 720" xmlns="http://www.w3.org/2000/svg" version="1.1">
 <metadata>
  <rdf:RDF xmlns:dc="http://purl.org/dc/elements/1.1/" xmlns:cc="http://creativecommons.org/ns#" xmlns:rdf="http://www.w3.org/1999/02/22-rdf-syntax-ns#">
   <cc:Work>
    <dc:type rdf:resource="http://purl.org/dc/dcmitype/StillImage"/>
    <dc:date>2023-06-15T13:58:43.833532</dc:date>
    <dc:format>image/svg+xml</dc:format>
    <dc:creator>
     <cc:Agent>
      <dc:title>Matplotlib v3.5.2, https://matplotlib.org/</dc:title>
     </cc:Agent>
    </dc:creator>
   </cc:Work>
  </rdf:RDF>
 </metadata>
 <defs>
  <style type="text/css">*{stroke-linejoin: round; stroke-linecap: butt}</style>
 </defs>
 <g id="figure_1">
  <g id="patch_1">
   <path d="M 0 720 
L 720 720 
L 720 0 
L 0 0 
z
" style="fill: #ffffff"/>
  </g>
  <g id="axes_1">
   <g id="patch_2">
    <path d="M 90 333.490909 
L 343.636364 333.490909 
L 343.636364 86.4 
L 90 86.4 
z
" style="fill: #ffffff"/>
   </g>
   <g id="matplotlib.axis_1">
    <g id="xtick_1">
     <g id="line2d_1">
      <defs>
       <path id="mccd093424a" d="M 0 0 
L 0 3.5 
" style="stroke: #000000; stroke-width: 0.8"/>
      </defs>
      <g>
       <use xlink:href="#mccd093424a" x="101.499922" y="333.490909" style="stroke: #000000; stroke-width: 0.8"/>
      </g>
     </g>
     <g id="text_1">
      <!-- 0 -->
      <g transform="translate(98.318672 348.089347)scale(0.1 -0.1)">
       <defs>
        <path id="DejaVuSans-30" d="M 2034 4250 
Q 1547 4250 1301 3770 
Q 1056 3291 1056 2328 
Q 1056 1369 1301 889 
Q 1547 409 2034 409 
Q 2525 409 2770 889 
Q 3016 1369 3016 2328 
Q 3016 3291 2770 3770 
Q 2525 4250 2034 4250 
z
M 2034 4750 
Q 2819 4750 3233 4129 
Q 3647 3509 3647 2328 
Q 3647 1150 3233 529 
Q 2819 -91 2034 -91 
Q 1250 -91 836 529 
Q 422 1150 422 2328 
Q 422 3509 836 4129 
Q 1250 4750 2034 4750 
z
" transform="scale(0.015625)"/>
       </defs>
       <use xlink:href="#DejaVuSans-30"/>
      </g>
     </g>
    </g>
    <g id="xtick_2">
     <g id="line2d_2">
      <g>
       <use xlink:href="#mccd093424a" x="159.507095" y="333.490909" style="stroke: #000000; stroke-width: 0.8"/>
      </g>
     </g>
     <g id="text_2">
      <!-- 2000 -->
      <g transform="translate(146.782095 348.089347)scale(0.1 -0.1)">
       <defs>
        <path id="DejaVuSans-32" d="M 1228 531 
L 3431 531 
L 3431 0 
L 469 0 
L 469 531 
Q 828 903 1448 1529 
Q 2069 2156 2228 2338 
Q 2531 2678 2651 2914 
Q 2772 3150 2772 3378 
Q 2772 3750 2511 3984 
Q 2250 4219 1831 4219 
Q 1534 4219 1204 4116 
Q 875 4013 500 3803 
L 500 4441 
Q 881 4594 1212 4672 
Q 1544 4750 1819 4750 
Q 2544 4750 2975 4387 
Q 3406 4025 3406 3419 
Q 3406 3131 3298 2873 
Q 3191 2616 2906 2266 
Q 2828 2175 2409 1742 
Q 1991 1309 1228 531 
z
" transform="scale(0.015625)"/>
       </defs>
       <use xlink:href="#DejaVuSans-32"/>
       <use xlink:href="#DejaVuSans-30" x="63.623047"/>
       <use xlink:href="#DejaVuSans-30" x="127.246094"/>
       <use xlink:href="#DejaVuSans-30" x="190.869141"/>
      </g>
     </g>
    </g>
    <g id="xtick_3">
     <g id="line2d_3">
      <g>
       <use xlink:href="#mccd093424a" x="217.514268" y="333.490909" style="stroke: #000000; stroke-width: 0.8"/>
      </g>
     </g>
     <g id="text_3">
      <!-- 4000 -->
      <g transform="translate(204.789268 348.089347)scale(0.1 -0.1)">
       <defs>
        <path id="DejaVuSans-34" d="M 2419 4116 
L 825 1625 
L 2419 1625 
L 2419 4116 
z
M 2253 4666 
L 3047 4666 
L 3047 1625 
L 3713 1625 
L 3713 1100 
L 3047 1100 
L 3047 0 
L 2419 0 
L 2419 1100 
L 313 1100 
L 313 1709 
L 2253 4666 
z
" transform="scale(0.015625)"/>
       </defs>
       <use xlink:href="#DejaVuSans-34"/>
       <use xlink:href="#DejaVuSans-30" x="63.623047"/>
       <use xlink:href="#DejaVuSans-30" x="127.246094"/>
       <use xlink:href="#DejaVuSans-30" x="190.869141"/>
      </g>
     </g>
    </g>
    <g id="xtick_4">
     <g id="line2d_4">
      <g>
       <use xlink:href="#mccd093424a" x="275.521441" y="333.490909" style="stroke: #000000; stroke-width: 0.8"/>
      </g>
     </g>
     <g id="text_4">
      <!-- 6000 -->
      <g transform="translate(262.796441 348.089347)scale(0.1 -0.1)">
       <defs>
        <path id="DejaVuSans-36" d="M 2113 2584 
Q 1688 2584 1439 2293 
Q 1191 2003 1191 1497 
Q 1191 994 1439 701 
Q 1688 409 2113 409 
Q 2538 409 2786 701 
Q 3034 994 3034 1497 
Q 3034 2003 2786 2293 
Q 2538 2584 2113 2584 
z
M 3366 4563 
L 3366 3988 
Q 3128 4100 2886 4159 
Q 2644 4219 2406 4219 
Q 1781 4219 1451 3797 
Q 1122 3375 1075 2522 
Q 1259 2794 1537 2939 
Q 1816 3084 2150 3084 
Q 2853 3084 3261 2657 
Q 3669 2231 3669 1497 
Q 3669 778 3244 343 
Q 2819 -91 2113 -91 
Q 1303 -91 875 529 
Q 447 1150 447 2328 
Q 447 3434 972 4092 
Q 1497 4750 2381 4750 
Q 2619 4750 2861 4703 
Q 3103 4656 3366 4563 
z
" transform="scale(0.015625)"/>
       </defs>
       <use xlink:href="#DejaVuSans-36"/>
       <use xlink:href="#DejaVuSans-30" x="63.623047"/>
       <use xlink:href="#DejaVuSans-30" x="127.246094"/>
       <use xlink:href="#DejaVuSans-30" x="190.869141"/>
      </g>
     </g>
    </g>
    <g id="xtick_5">
     <g id="line2d_5">
      <g>
       <use xlink:href="#mccd093424a" x="333.528614" y="333.490909" style="stroke: #000000; stroke-width: 0.8"/>
      </g>
     </g>
     <g id="text_5">
      <!-- 8000 -->
      <g transform="translate(320.803614 348.089347)scale(0.1 -0.1)">
       <defs>
        <path id="DejaVuSans-38" d="M 2034 2216 
Q 1584 2216 1326 1975 
Q 1069 1734 1069 1313 
Q 1069 891 1326 650 
Q 1584 409 2034 409 
Q 2484 409 2743 651 
Q 3003 894 3003 1313 
Q 3003 1734 2745 1975 
Q 2488 2216 2034 2216 
z
M 1403 2484 
Q 997 2584 770 2862 
Q 544 3141 544 3541 
Q 544 4100 942 4425 
Q 1341 4750 2034 4750 
Q 2731 4750 3128 4425 
Q 3525 4100 3525 3541 
Q 3525 3141 3298 2862 
Q 3072 2584 2669 2484 
Q 3125 2378 3379 2068 
Q 3634 1759 3634 1313 
Q 3634 634 3220 271 
Q 2806 -91 2034 -91 
Q 1263 -91 848 271 
Q 434 634 434 1313 
Q 434 1759 690 2068 
Q 947 2378 1403 2484 
z
M 1172 3481 
Q 1172 3119 1398 2916 
Q 1625 2713 2034 2713 
Q 2441 2713 2670 2916 
Q 2900 3119 2900 3481 
Q 2900 3844 2670 4047 
Q 2441 4250 2034 4250 
Q 1625 4250 1398 4047 
Q 1172 3844 1172 3481 
z
" transform="scale(0.015625)"/>
       </defs>
       <use xlink:href="#DejaVuSans-38"/>
       <use xlink:href="#DejaVuSans-30" x="63.623047"/>
       <use xlink:href="#DejaVuSans-30" x="127.246094"/>
       <use xlink:href="#DejaVuSans-30" x="190.869141"/>
      </g>
     </g>
    </g>
   </g>
   <g id="matplotlib.axis_2">
    <g id="ytick_1">
     <g id="line2d_6">
      <defs>
       <path id="m15b7feb564" d="M 0 0 
L -3.5 0 
" style="stroke: #000000; stroke-width: 0.8"/>
      </defs>
      <g>
       <use xlink:href="#m15b7feb564" x="90" y="313.981839" style="stroke: #000000; stroke-width: 0.8"/>
      </g>
     </g>
     <g id="text_6">
      <!-- 1 -->
      <g transform="translate(76.6375 317.781058)scale(0.1 -0.1)">
       <defs>
        <path id="DejaVuSans-31" d="M 794 531 
L 1825 531 
L 1825 4091 
L 703 3866 
L 703 4441 
L 1819 4666 
L 2450 4666 
L 2450 531 
L 3481 531 
L 3481 0 
L 794 0 
L 794 531 
z
" transform="scale(0.015625)"/>
       </defs>
       <use xlink:href="#DejaVuSans-31"/>
      </g>
     </g>
    </g>
    <g id="ytick_2">
     <g id="line2d_7">
      <g>
       <use xlink:href="#m15b7feb564" x="90" y="275.469508" style="stroke: #000000; stroke-width: 0.8"/>
      </g>
     </g>
     <g id="text_7">
      <!-- 2 -->
      <g transform="translate(76.6375 279.268727)scale(0.1 -0.1)">
       <use xlink:href="#DejaVuSans-32"/>
      </g>
     </g>
    </g>
    <g id="ytick_3">
     <g id="line2d_8">
      <g>
       <use xlink:href="#m15b7feb564" x="90" y="236.957178" style="stroke: #000000; stroke-width: 0.8"/>
      </g>
     </g>
     <g id="text_8">
      <!-- 3 -->
      <g transform="translate(76.6375 240.756396)scale(0.1 -0.1)">
       <defs>
        <path id="DejaVuSans-33" d="M 2597 2516 
Q 3050 2419 3304 2112 
Q 3559 1806 3559 1356 
Q 3559 666 3084 287 
Q 2609 -91 1734 -91 
Q 1441 -91 1130 -33 
Q 819 25 488 141 
L 488 750 
Q 750 597 1062 519 
Q 1375 441 1716 441 
Q 2309 441 2620 675 
Q 2931 909 2931 1356 
Q 2931 1769 2642 2001 
Q 2353 2234 1838 2234 
L 1294 2234 
L 1294 2753 
L 1863 2753 
Q 2328 2753 2575 2939 
Q 2822 3125 2822 3475 
Q 2822 3834 2567 4026 
Q 2313 4219 1838 4219 
Q 1578 4219 1281 4162 
Q 984 4106 628 3988 
L 628 4550 
Q 988 4650 1302 4700 
Q 1616 4750 1894 4750 
Q 2613 4750 3031 4423 
Q 3450 4097 3450 3541 
Q 3450 3153 3228 2886 
Q 3006 2619 2597 2516 
z
" transform="scale(0.015625)"/>
       </defs>
       <use xlink:href="#DejaVuSans-33"/>
      </g>
     </g>
    </g>
    <g id="ytick_4">
     <g id="line2d_9">
      <g>
       <use xlink:href="#m15b7feb564" x="90" y="198.444847" style="stroke: #000000; stroke-width: 0.8"/>
      </g>
     </g>
     <g id="text_9">
      <!-- 4 -->
      <g transform="translate(76.6375 202.244066)scale(0.1 -0.1)">
       <use xlink:href="#DejaVuSans-34"/>
      </g>
     </g>
    </g>
    <g id="ytick_5">
     <g id="line2d_10">
      <g>
       <use xlink:href="#m15b7feb564" x="90" y="159.932516" style="stroke: #000000; stroke-width: 0.8"/>
      </g>
     </g>
     <g id="text_10">
      <!-- 5 -->
      <g transform="translate(76.6375 163.731735)scale(0.1 -0.1)">
       <defs>
        <path id="DejaVuSans-35" d="M 691 4666 
L 3169 4666 
L 3169 4134 
L 1269 4134 
L 1269 2991 
Q 1406 3038 1543 3061 
Q 1681 3084 1819 3084 
Q 2600 3084 3056 2656 
Q 3513 2228 3513 1497 
Q 3513 744 3044 326 
Q 2575 -91 1722 -91 
Q 1428 -91 1123 -41 
Q 819 9 494 109 
L 494 744 
Q 775 591 1075 516 
Q 1375 441 1709 441 
Q 2250 441 2565 725 
Q 2881 1009 2881 1497 
Q 2881 1984 2565 2268 
Q 2250 2553 1709 2553 
Q 1456 2553 1204 2497 
Q 953 2441 691 2322 
L 691 4666 
z
" transform="scale(0.015625)"/>
       </defs>
       <use xlink:href="#DejaVuSans-35"/>
      </g>
     </g>
    </g>
    <g id="ytick_6">
     <g id="line2d_11">
      <g>
       <use xlink:href="#m15b7feb564" x="90" y="121.420186" style="stroke: #000000; stroke-width: 0.8"/>
      </g>
     </g>
     <g id="text_11">
      <!-- 6 -->
      <g transform="translate(76.6375 125.219404)scale(0.1 -0.1)">
       <use xlink:href="#DejaVuSans-36"/>
      </g>
     </g>
    </g>
   </g>
   <g id="line2d_12">
    <path d="M 101.528926 301.66882 
L 102.979105 302.731437 
L 107.329643 307.815935 
L 108.779822 309.053526 
L 110.230002 309.977401 
L 111.680181 310.584665 
L 113.13036 310.869191 
L 117.480898 311.048716 
L 118.931077 311.442834 
L 123.281615 313.175285 
L 124.731795 313.173888 
L 126.181974 311.693227 
L 127.632153 306.569128 
L 129.082333 294.631928 
L 130.532512 273.21343 
L 131.982691 242.374023 
L 134.88305 170.231645 
L 136.333229 140.784529 
L 137.783409 120.589268 
L 139.233588 109.873763 
L 140.683767 107.234342 
L 142.133947 110.672902 
L 143.584126 118.223708 
L 145.034305 128.298346 
L 147.934664 152.105581 
L 152.285202 189.654965 
L 155.185561 211.83358 
L 158.085919 230.770802 
L 160.986278 247.574822 
L 162.436457 255.27746 
L 163.886637 262.3384 
L 165.336816 268.607437 
L 166.786995 274.080091 
L 168.237174 278.912908 
L 169.687354 283.280413 
L 171.137533 287.225495 
L 172.587712 290.642327 
L 174.037892 293.350903 
L 175.488071 295.186603 
L 176.93825 296.105771 
L 178.38843 296.249208 
L 179.838609 295.872567 
L 182.738968 294.630537 
L 184.189147 294.345865 
L 185.639326 294.538809 
L 187.089506 295.020477 
L 188.539685 295.363697 
L 189.989864 295.256003 
L 191.440044 294.671674 
L 192.890223 293.702221 
L 194.340402 292.389481 
L 197.240761 289.237722 
L 198.69094 287.989697 
L 200.14112 287.287075 
L 201.591299 287.160163 
L 203.041478 287.540731 
L 204.491658 288.318042 
L 207.392016 290.255157 
L 208.842196 290.948622 
L 210.292375 291.289784 
L 211.742554 291.285564 
L 216.093092 290.399415 
L 217.543271 290.421413 
L 218.993451 290.772353 
L 221.893809 291.911539 
L 223.343989 292.29451 
L 224.794168 292.31319 
L 226.244347 291.793792 
L 227.694527 290.607576 
L 229.144706 288.768428 
L 232.045065 284.26526 
L 233.495244 282.631717 
L 234.945423 282.014517 
L 236.395603 282.417472 
L 237.845782 283.523734 
L 239.295961 285.004663 
L 242.19632 288.244647 
L 243.646499 289.504043 
L 245.096679 290.281747 
L 247.997037 291.325472 
L 249.447217 292.219155 
L 250.897396 293.299341 
L 252.347575 294.213348 
L 253.797755 294.760177 
L 256.698113 295.421644 
L 258.148293 296.016797 
L 259.598472 296.856359 
L 262.498831 298.941297 
L 268.299548 303.259026 
L 269.749727 304.785163 
L 272.650086 308.377059 
L 274.100265 309.716339 
L 275.550444 310.348996 
L 277.000624 310.312368 
L 278.450803 309.856588 
L 281.351162 308.772056 
L 282.801341 308.539431 
L 284.25152 308.718122 
L 285.7017 309.338736 
L 287.151879 310.151757 
L 288.602058 310.681745 
L 290.052238 310.611657 
L 292.952596 309.620452 
L 294.402776 309.477317 
L 295.852955 309.558723 
L 297.303134 309.514379 
L 298.753314 309.144075 
L 300.203493 308.592679 
L 301.653672 308.192557 
L 303.103852 308.173299 
L 304.554031 308.563084 
L 306.00421 309.306441 
L 307.45439 310.357437 
L 314.705286 316.886751 
L 317.605645 319.554512 
L 319.055824 320.639352 
L 320.506003 321.25475 
L 321.956183 321.343274 
L 326.306721 320.47262 
L 327.7569 320.667252 
L 332.107438 322.259504 
L 332.107438 322.259504 
" clip-path="url(#pb756ae4cce)" style="fill: none; stroke: #d62728; stroke-width: 2; stroke-linecap: square"/>
   </g>
   <g id="line2d_13">
    <path d="M 101.528926 308.746686 
L 102.979105 308.95929 
L 105.879464 309.718923 
L 107.329643 309.925487 
L 108.779822 309.77171 
L 110.230002 309.210163 
L 114.58054 306.478051 
L 116.030719 305.981492 
L 117.480898 305.872106 
L 120.381257 306.062727 
L 121.831436 305.946701 
L 123.281615 305.462518 
L 124.731795 304.227081 
L 126.181974 301.210318 
L 127.632153 294.343858 
L 129.082333 280.745053 
L 130.532512 258.061422 
L 131.982691 226.49071 
L 134.88305 154.240041 
L 136.333229 125.4203 
L 137.783409 106.516159 
L 139.233588 97.79872 
L 140.683767 97.631405 
L 142.133947 103.679883 
L 143.584126 113.805146 
L 145.034305 126.439931 
L 147.934664 155.191619 
L 150.835023 184.149574 
L 153.735381 210.374175 
L 155.185561 221.953889 
L 156.63574 232.397615 
L 158.085919 241.772927 
L 159.536099 250.251587 
L 160.986278 258.019071 
L 162.436457 265.144994 
L 163.886637 271.511732 
L 165.336816 276.896476 
L 166.786995 281.164712 
L 168.237174 284.400114 
L 169.687354 286.842831 
L 171.137533 288.708765 
L 172.587712 290.061578 
L 174.037892 290.836542 
L 175.488071 290.958943 
L 176.93825 290.437878 
L 178.38843 289.377625 
L 179.838609 287.933794 
L 185.639326 281.334665 
L 187.089506 280.342433 
L 188.539685 279.886093 
L 192.890223 279.641598 
L 195.790582 278.903628 
L 197.240761 278.453961 
L 198.69094 277.877202 
L 200.14112 277.044753 
L 201.591299 275.923089 
L 205.941837 271.877087 
L 211.742554 266.409992 
L 213.192734 265.681148 
L 214.642913 265.428669 
L 216.093092 265.528307 
L 217.543271 265.845543 
L 218.993451 266.382113 
L 220.44363 267.232093 
L 223.343989 269.5301 
L 224.794168 270.383602 
L 226.244347 270.761957 
L 227.694527 270.741718 
L 230.594885 270.476908 
L 232.045065 270.693188 
L 233.495244 271.24244 
L 234.945423 272.047457 
L 236.395603 273.033966 
L 239.295961 275.454662 
L 242.19632 277.98808 
L 245.096679 280.388215 
L 250.897396 285.667053 
L 253.797755 288.037193 
L 258.148293 291.969238 
L 261.048651 294.446547 
L 263.94901 296.784614 
L 274.100265 306.575638 
L 277.000624 309.443131 
L 278.450803 310.60493 
L 279.900982 311.395801 
L 281.351162 311.769346 
L 282.801341 311.787973 
L 284.25152 311.561921 
L 285.7017 311.168752 
L 288.602058 310.004216 
L 290.052238 309.368208 
L 291.502417 308.89019 
L 292.952596 308.714228 
L 294.402776 308.865857 
L 297.303134 309.52824 
L 298.753314 309.643436 
L 300.203493 309.502655 
L 301.653672 309.156141 
L 307.45439 307.363941 
L 308.904569 307.18989 
L 310.354748 307.273763 
L 311.804927 307.658096 
L 313.255107 308.328916 
L 316.155465 309.974392 
L 317.605645 310.543716 
L 319.055824 310.79955 
L 320.506003 310.784932 
L 323.406362 310.306786 
L 330.657259 308.864018 
L 332.107438 308.686012 
L 332.107438 308.686012 
" clip-path="url(#pb756ae4cce)" style="fill: none; stroke-dasharray: 7.4,3.2; stroke-dashoffset: 0; stroke: #d62728; stroke-width: 2"/>
   </g>
   <g id="patch_3">
    <path d="M 90 333.490909 
L 90 86.4 
" style="fill: none; stroke: #000000; stroke-width: 0.8; stroke-linejoin: miter; stroke-linecap: square"/>
   </g>
   <g id="patch_4">
    <path d="M 343.636364 333.490909 
L 343.636364 86.4 
" style="fill: none; stroke: #000000; stroke-width: 0.8; stroke-linejoin: miter; stroke-linecap: square"/>
   </g>
   <g id="patch_5">
    <path d="M 90 333.490909 
L 343.636364 333.490909 
" style="fill: none; stroke: #000000; stroke-width: 0.8; stroke-linejoin: miter; stroke-linecap: square"/>
   </g>
   <g id="patch_6">
    <path d="M 90 86.4 
L 343.636364 86.4 
" style="fill: none; stroke: #000000; stroke-width: 0.8; stroke-linejoin: miter; stroke-linecap: square"/>
   </g>
   <g id="text_12">
    <!-- Firing rate y -->
    <g transform="translate(180.837869 80.4)scale(0.12 -0.12)">
     <defs>
      <path id="DejaVuSans-46" d="M 628 4666 
L 3309 4666 
L 3309 4134 
L 1259 4134 
L 1259 2759 
L 3109 2759 
L 3109 2228 
L 1259 2228 
L 1259 0 
L 628 0 
L 628 4666 
z
" transform="scale(0.015625)"/>
      <path id="DejaVuSans-69" d="M 603 3500 
L 1178 3500 
L 1178 0 
L 603 0 
L 603 3500 
z
M 603 4863 
L 1178 4863 
L 1178 4134 
L 603 4134 
L 603 4863 
z
" transform="scale(0.015625)"/>
      <path id="DejaVuSans-72" d="M 2631 2963 
Q 2534 3019 2420 3045 
Q 2306 3072 2169 3072 
Q 1681 3072 1420 2755 
Q 1159 2438 1159 1844 
L 1159 0 
L 581 0 
L 581 3500 
L 1159 3500 
L 1159 2956 
Q 1341 3275 1631 3429 
Q 1922 3584 2338 3584 
Q 2397 3584 2469 3576 
Q 2541 3569 2628 3553 
L 2631 2963 
z
" transform="scale(0.015625)"/>
      <path id="DejaVuSans-6e" d="M 3513 2113 
L 3513 0 
L 2938 0 
L 2938 2094 
Q 2938 2591 2744 2837 
Q 2550 3084 2163 3084 
Q 1697 3084 1428 2787 
Q 1159 2491 1159 1978 
L 1159 0 
L 581 0 
L 581 3500 
L 1159 3500 
L 1159 2956 
Q 1366 3272 1645 3428 
Q 1925 3584 2291 3584 
Q 2894 3584 3203 3211 
Q 3513 2838 3513 2113 
z
" transform="scale(0.015625)"/>
      <path id="DejaVuSans-67" d="M 2906 1791 
Q 2906 2416 2648 2759 
Q 2391 3103 1925 3103 
Q 1463 3103 1205 2759 
Q 947 2416 947 1791 
Q 947 1169 1205 825 
Q 1463 481 1925 481 
Q 2391 481 2648 825 
Q 2906 1169 2906 1791 
z
M 3481 434 
Q 3481 -459 3084 -895 
Q 2688 -1331 1869 -1331 
Q 1566 -1331 1297 -1286 
Q 1028 -1241 775 -1147 
L 775 -588 
Q 1028 -725 1275 -790 
Q 1522 -856 1778 -856 
Q 2344 -856 2625 -561 
Q 2906 -266 2906 331 
L 2906 616 
Q 2728 306 2450 153 
Q 2172 0 1784 0 
Q 1141 0 747 490 
Q 353 981 353 1791 
Q 353 2603 747 3093 
Q 1141 3584 1784 3584 
Q 2172 3584 2450 3431 
Q 2728 3278 2906 2969 
L 2906 3500 
L 3481 3500 
L 3481 434 
z
" transform="scale(0.015625)"/>
      <path id="DejaVuSans-20" transform="scale(0.015625)"/>
      <path id="DejaVuSans-61" d="M 2194 1759 
Q 1497 1759 1228 1600 
Q 959 1441 959 1056 
Q 959 750 1161 570 
Q 1363 391 1709 391 
Q 2188 391 2477 730 
Q 2766 1069 2766 1631 
L 2766 1759 
L 2194 1759 
z
M 3341 1997 
L 3341 0 
L 2766 0 
L 2766 531 
Q 2569 213 2275 61 
Q 1981 -91 1556 -91 
Q 1019 -91 701 211 
Q 384 513 384 1019 
Q 384 1609 779 1909 
Q 1175 2209 1959 2209 
L 2766 2209 
L 2766 2266 
Q 2766 2663 2505 2880 
Q 2244 3097 1772 3097 
Q 1472 3097 1187 3025 
Q 903 2953 641 2809 
L 641 3341 
Q 956 3463 1253 3523 
Q 1550 3584 1831 3584 
Q 2591 3584 2966 3190 
Q 3341 2797 3341 1997 
z
" transform="scale(0.015625)"/>
      <path id="DejaVuSans-74" d="M 1172 4494 
L 1172 3500 
L 2356 3500 
L 2356 3053 
L 1172 3053 
L 1172 1153 
Q 1172 725 1289 603 
Q 1406 481 1766 481 
L 2356 481 
L 2356 0 
L 1766 0 
Q 1100 0 847 248 
Q 594 497 594 1153 
L 594 3053 
L 172 3053 
L 172 3500 
L 594 3500 
L 594 4494 
L 1172 4494 
z
" transform="scale(0.015625)"/>
      <path id="DejaVuSans-65" d="M 3597 1894 
L 3597 1613 
L 953 1613 
Q 991 1019 1311 708 
Q 1631 397 2203 397 
Q 2534 397 2845 478 
Q 3156 559 3463 722 
L 3463 178 
Q 3153 47 2828 -22 
Q 2503 -91 2169 -91 
Q 1331 -91 842 396 
Q 353 884 353 1716 
Q 353 2575 817 3079 
Q 1281 3584 2069 3584 
Q 2775 3584 3186 3129 
Q 3597 2675 3597 1894 
z
M 3022 2063 
Q 3016 2534 2758 2815 
Q 2500 3097 2075 3097 
Q 1594 3097 1305 2825 
Q 1016 2553 972 2059 
L 3022 2063 
z
" transform="scale(0.015625)"/>
      <path id="DejaVuSans-79" d="M 2059 -325 
Q 1816 -950 1584 -1140 
Q 1353 -1331 966 -1331 
L 506 -1331 
L 506 -850 
L 844 -850 
Q 1081 -850 1212 -737 
Q 1344 -625 1503 -206 
L 1606 56 
L 191 3500 
L 800 3500 
L 1894 763 
L 2988 3500 
L 3597 3500 
L 2059 -325 
z
" transform="scale(0.015625)"/>
     </defs>
     <use xlink:href="#DejaVuSans-46"/>
     <use xlink:href="#DejaVuSans-69" x="50.269531"/>
     <use xlink:href="#DejaVuSans-72" x="78.052734"/>
     <use xlink:href="#DejaVuSans-69" x="119.166016"/>
     <use xlink:href="#DejaVuSans-6e" x="146.949219"/>
     <use xlink:href="#DejaVuSans-67" x="210.328125"/>
     <use xlink:href="#DejaVuSans-20" x="273.804688"/>
     <use xlink:href="#DejaVuSans-72" x="305.591797"/>
     <use xlink:href="#DejaVuSans-61" x="346.705078"/>
     <use xlink:href="#DejaVuSans-74" x="407.984375"/>
     <use xlink:href="#DejaVuSans-65" x="447.193359"/>
     <use xlink:href="#DejaVuSans-20" x="508.716797"/>
     <use xlink:href="#DejaVuSans-79" x="540.503906"/>
    </g>
   </g>
   <g id="legend_1">
    <g id="patch_7">
     <path d="M 250.616051 123.75625 
L 336.636364 123.75625 
Q 338.636364 123.75625 338.636364 121.75625 
L 338.636364 93.4 
Q 338.636364 91.4 336.636364 91.4 
L 250.616051 91.4 
Q 248.616051 91.4 248.616051 93.4 
L 248.616051 121.75625 
Q 248.616051 123.75625 250.616051 123.75625 
z
" style="fill: #ffffff; opacity: 0.8; stroke: #cccccc; stroke-linejoin: miter"/>
    </g>
    <g id="line2d_14">
     <path d="M 252.616051 99.498437 
L 262.616051 99.498437 
L 272.616051 99.498437 
" style="fill: none; stroke: #d62728; stroke-width: 2; stroke-linecap: square"/>
    </g>
    <g id="text_13">
     <!-- Reward -->
     <g transform="translate(280.616051 102.998437)scale(0.1 -0.1)">
      <defs>
       <path id="DejaVuSans-52" d="M 2841 2188 
Q 3044 2119 3236 1894 
Q 3428 1669 3622 1275 
L 4263 0 
L 3584 0 
L 2988 1197 
Q 2756 1666 2539 1819 
Q 2322 1972 1947 1972 
L 1259 1972 
L 1259 0 
L 628 0 
L 628 4666 
L 2053 4666 
Q 2853 4666 3247 4331 
Q 3641 3997 3641 3322 
Q 3641 2881 3436 2590 
Q 3231 2300 2841 2188 
z
M 1259 4147 
L 1259 2491 
L 2053 2491 
Q 2509 2491 2742 2702 
Q 2975 2913 2975 3322 
Q 2975 3731 2742 3939 
Q 2509 4147 2053 4147 
L 1259 4147 
z
" transform="scale(0.015625)"/>
       <path id="DejaVuSans-77" d="M 269 3500 
L 844 3500 
L 1563 769 
L 2278 3500 
L 2956 3500 
L 3675 769 
L 4391 3500 
L 4966 3500 
L 4050 0 
L 3372 0 
L 2619 2869 
L 1863 0 
L 1184 0 
L 269 3500 
z
" transform="scale(0.015625)"/>
       <path id="DejaVuSans-64" d="M 2906 2969 
L 2906 4863 
L 3481 4863 
L 3481 0 
L 2906 0 
L 2906 525 
Q 2725 213 2448 61 
Q 2172 -91 1784 -91 
Q 1150 -91 751 415 
Q 353 922 353 1747 
Q 353 2572 751 3078 
Q 1150 3584 1784 3584 
Q 2172 3584 2448 3432 
Q 2725 3281 2906 2969 
z
M 947 1747 
Q 947 1113 1208 752 
Q 1469 391 1925 391 
Q 2381 391 2643 752 
Q 2906 1113 2906 1747 
Q 2906 2381 2643 2742 
Q 2381 3103 1925 3103 
Q 1469 3103 1208 2742 
Q 947 2381 947 1747 
z
" transform="scale(0.015625)"/>
      </defs>
      <use xlink:href="#DejaVuSans-52"/>
      <use xlink:href="#DejaVuSans-65" x="64.982422"/>
      <use xlink:href="#DejaVuSans-77" x="126.505859"/>
      <use xlink:href="#DejaVuSans-61" x="208.292969"/>
      <use xlink:href="#DejaVuSans-72" x="269.572266"/>
      <use xlink:href="#DejaVuSans-64" x="308.935547"/>
     </g>
    </g>
    <g id="line2d_15">
     <path d="M 252.616051 114.176562 
L 262.616051 114.176562 
L 272.616051 114.176562 
" style="fill: none; stroke-dasharray: 7.4,3.2; stroke-dashoffset: 0; stroke: #d62728; stroke-width: 2"/>
    </g>
    <g id="text_14">
     <!-- No Reward -->
     <g transform="translate(280.616051 117.676562)scale(0.1 -0.1)">
      <defs>
       <path id="DejaVuSans-4e" d="M 628 4666 
L 1478 4666 
L 3547 763 
L 3547 4666 
L 4159 4666 
L 4159 0 
L 3309 0 
L 1241 3903 
L 1241 0 
L 628 0 
L 628 4666 
z
" transform="scale(0.015625)"/>
       <path id="DejaVuSans-6f" d="M 1959 3097 
Q 1497 3097 1228 2736 
Q 959 2375 959 1747 
Q 959 1119 1226 758 
Q 1494 397 1959 397 
Q 2419 397 2687 759 
Q 2956 1122 2956 1747 
Q 2956 2369 2687 2733 
Q 2419 3097 1959 3097 
z
M 1959 3584 
Q 2709 3584 3137 3096 
Q 3566 2609 3566 1747 
Q 3566 888 3137 398 
Q 2709 -91 1959 -91 
Q 1206 -91 779 398 
Q 353 888 353 1747 
Q 353 2609 779 3096 
Q 1206 3584 1959 3584 
z
" transform="scale(0.015625)"/>
      </defs>
      <use xlink:href="#DejaVuSans-4e"/>
      <use xlink:href="#DejaVuSans-6f" x="74.804688"/>
      <use xlink:href="#DejaVuSans-20" x="135.986328"/>
      <use xlink:href="#DejaVuSans-52" x="167.773438"/>
      <use xlink:href="#DejaVuSans-65" x="232.755859"/>
      <use xlink:href="#DejaVuSans-77" x="294.279297"/>
      <use xlink:href="#DejaVuSans-61" x="376.066406"/>
      <use xlink:href="#DejaVuSans-72" x="437.345703"/>
      <use xlink:href="#DejaVuSans-64" x="476.708984"/>
     </g>
    </g>
   </g>
  </g>
  <g id="axes_2">
   <g id="patch_8">
    <path d="M 394.363636 333.490909 
L 648 333.490909 
L 648 86.4 
L 394.363636 86.4 
z
" style="fill: #ffffff"/>
   </g>
   <g id="PolyCollection_1">
    <defs>
     <path id="mecd4cee3e9" d="M 405.892562 -471.287999 
L 405.892562 -471.287999 
L 407.342741 -471.287999 
L 408.792921 -471.287999 
L 410.2431 -471.287999 
L 411.693279 -471.287999 
L 413.143459 -471.287999 
L 414.593638 -471.287999 
L 416.043817 -471.287999 
L 417.493997 -471.287999 
L 418.944176 -471.287999 
L 420.394355 -471.287999 
L 421.844535 -471.287999 
L 423.294714 -471.287999 
L 424.744893 -471.287999 
L 426.195073 -471.287999 
L 427.645252 -471.287999 
L 429.095431 -471.287999 
L 430.54561 -471.287999 
L 431.99579 -471.287999 
L 433.445969 -471.287999 
L 434.896148 -471.287999 
L 436.346328 -471.287999 
L 437.796507 -471.287999 
L 439.246686 -471.287999 
L 440.696866 -471.287999 
L 442.147045 -471.287999 
L 443.597224 -471.287999 
L 445.047404 -471.287999 
L 446.497583 -471.287999 
L 447.947762 -471.287999 
L 449.397942 -471.287999 
L 450.848121 -471.287999 
L 452.2983 -471.287999 
L 453.74848 -471.287999 
L 455.198659 -471.287999 
L 456.648838 -471.287999 
L 458.099018 -471.287999 
L 459.549197 -471.287999 
L 460.999376 -471.287999 
L 462.449556 -471.287999 
L 463.899735 -471.287999 
L 465.349914 -471.287999 
L 466.800094 -471.287999 
L 468.250273 -471.287999 
L 469.700452 -471.287999 
L 471.150632 -471.287999 
L 472.600811 -471.287999 
L 474.05099 -471.287999 
L 475.501169 -471.287999 
L 476.951349 -471.287999 
L 478.401528 -471.287999 
L 479.851707 -471.287999 
L 481.301887 -471.287999 
L 482.752066 -471.287999 
L 484.202245 -471.287999 
L 485.652425 -471.287999 
L 487.102604 -471.287999 
L 488.552783 -471.287999 
L 490.002963 -471.287999 
L 491.453142 -471.287999 
L 492.903321 -471.287999 
L 494.353501 -471.287999 
L 495.80368 -471.287999 
L 497.253859 -471.287999 
L 498.704039 -471.287999 
L 500.154218 -471.287999 
L 501.604397 -471.287999 
L 503.054577 -471.287999 
L 504.504756 -471.287999 
L 505.954935 -471.287999 
L 507.405115 -471.287999 
L 508.855294 -471.287999 
L 510.305473 -471.287999 
L 511.755653 -471.287999 
L 513.205832 -471.287999 
L 514.656011 -471.287999 
L 516.106191 -471.287999 
L 517.55637 -471.287999 
L 519.006549 -471.287999 
L 520.456729 -471.287999 
L 521.906908 -471.287999 
L 523.357087 -471.287999 
L 524.807266 -471.287999 
L 526.257446 -471.287999 
L 527.707625 -471.287999 
L 529.157804 -471.287999 
L 530.607984 -471.287999 
L 532.058163 -471.287999 
L 533.508342 -471.287999 
L 534.958522 -471.287999 
L 536.408701 -471.287999 
L 537.85888 -471.287999 
L 539.30906 -471.287999 
L 540.759239 -471.287999 
L 542.209418 -471.287999 
L 543.659598 -471.287999 
L 545.109777 -471.287999 
L 546.559956 -471.287999 
L 548.010136 -471.287999 
L 549.460315 -471.287999 
L 550.910494 -471.287999 
L 552.360674 -471.287999 
L 553.810853 -471.287999 
L 555.261032 -471.287999 
L 556.711212 -471.287999 
L 558.161391 -471.287999 
L 559.61157 -471.287999 
L 561.06175 -471.287999 
L 562.511929 -471.287999 
L 563.962108 -471.287999 
L 565.412288 -471.287999 
L 566.862467 -471.287999 
L 568.312646 -471.287999 
L 569.762826 -471.287999 
L 571.213005 -471.287999 
L 572.663184 -471.287999 
L 574.113363 -471.287999 
L 575.563543 -471.287999 
L 577.013722 -471.287999 
L 578.463901 -471.287999 
L 579.914081 -471.287999 
L 581.36426 -471.287999 
L 582.814439 -471.287999 
L 584.264619 -471.287999 
L 585.714798 -471.287999 
L 587.164977 -471.287999 
L 588.615157 -471.287999 
L 590.065336 -471.287999 
L 591.515515 -471.287999 
L 592.965695 -471.287999 
L 594.415874 -471.287999 
L 595.866053 -471.287999 
L 597.316233 -471.287999 
L 598.766412 -471.287999 
L 600.216591 -471.287999 
L 601.666771 -471.287999 
L 603.11695 -471.287999 
L 604.567129 -471.287999 
L 606.017309 -471.287999 
L 607.467488 -471.287999 
L 608.917667 -471.287999 
L 610.367847 -471.287999 
L 611.818026 -471.287999 
L 613.268205 -471.287999 
L 614.718385 -471.287999 
L 616.168564 -471.287999 
L 617.618743 -471.287999 
L 619.068923 -471.287999 
L 620.519102 -471.287999 
L 621.969281 -471.287999 
L 623.41946 -471.287999 
L 624.86964 -471.287999 
L 626.319819 -471.287999 
L 627.769998 -471.287999 
L 629.220178 -471.287999 
L 630.670357 -471.287999 
L 632.120536 -471.287999 
L 633.570716 -471.287999 
L 635.020895 -471.287999 
L 636.471074 -471.287999 
L 636.471074 -471.287999 
L 636.471074 -471.287999 
L 635.020895 -471.287999 
L 633.570716 -471.287999 
L 632.120536 -471.287999 
L 630.670357 -471.287999 
L 629.220178 -471.287999 
L 627.769998 -471.287999 
L 626.319819 -471.287999 
L 624.86964 -471.287999 
L 623.41946 -471.287999 
L 621.969281 -471.287999 
L 620.519102 -471.287999 
L 619.068923 -471.287999 
L 617.618743 -471.287999 
L 616.168564 -471.287999 
L 614.718385 -471.287999 
L 613.268205 -471.287999 
L 611.818026 -471.287999 
L 610.367847 -471.287999 
L 608.917667 -471.287999 
L 607.467488 -471.287999 
L 606.017309 -471.287999 
L 604.567129 -471.287999 
L 603.11695 -471.287999 
L 601.666771 -471.287999 
L 600.216591 -471.287999 
L 598.766412 -471.287999 
L 597.316233 -471.287999 
L 595.866053 -471.287999 
L 594.415874 -471.287999 
L 592.965695 -471.287999 
L 591.515515 -471.287999 
L 590.065336 -471.287999 
L 588.615157 -471.287999 
L 587.164977 -471.287999 
L 585.714798 -471.287999 
L 584.264619 -471.287999 
L 582.814439 -471.287999 
L 581.36426 -471.287999 
L 579.914081 -471.287999 
L 578.463901 -471.287999 
L 577.013722 -471.287999 
L 575.563543 -471.287999 
L 574.113363 -471.287999 
L 572.663184 -471.287999 
L 571.213005 -471.287999 
L 569.762826 -471.287999 
L 568.312646 -471.287999 
L 566.862467 -471.287999 
L 565.412288 -471.287999 
L 563.962108 -471.287999 
L 562.511929 -471.287999 
L 561.06175 -471.287999 
L 559.61157 -471.287999 
L 558.161391 -471.287999 
L 556.711212 -471.287999 
L 555.261032 -471.287999 
L 553.810853 -471.287999 
L 552.360674 -471.287999 
L 550.910494 -471.287999 
L 549.460315 -471.287999 
L 548.010136 -471.287999 
L 546.559956 -471.287999 
L 545.109777 -471.287999 
L 543.659598 -471.287999 
L 542.209418 -471.287999 
L 540.759239 -471.287999 
L 539.30906 -471.287999 
L 537.85888 -471.287999 
L 536.408701 -471.287999 
L 534.958522 -471.287999 
L 533.508342 -471.287999 
L 532.058163 -471.287999 
L 530.607984 -471.287999 
L 529.157804 -471.287999 
L 527.707625 -471.287999 
L 526.257446 -471.287999 
L 524.807266 -471.287999 
L 523.357087 -471.287999 
L 521.906908 -471.287999 
L 520.456729 -471.287999 
L 519.006549 -471.287999 
L 517.55637 -471.287999 
L 516.106191 -471.287999 
L 514.656011 -471.287999 
L 513.205832 -471.287999 
L 511.755653 -471.287999 
L 510.305473 -471.287999 
L 508.855294 -471.287999 
L 507.405115 -471.287999 
L 505.954935 -471.287999 
L 504.504756 -471.287999 
L 503.054577 -471.287999 
L 501.604397 -471.287999 
L 500.154218 -471.287999 
L 498.704039 -471.287999 
L 497.253859 -471.287999 
L 495.80368 -471.287999 
L 494.353501 -471.287999 
L 492.903321 -471.287999 
L 491.453142 -471.287999 
L 490.002963 -471.287999 
L 488.552783 -471.287999 
L 487.102604 -471.287999 
L 485.652425 -471.287999 
L 484.202245 -471.287999 
L 482.752066 -471.287999 
L 481.301887 -471.287999 
L 479.851707 -471.287999 
L 478.401528 -471.287999 
L 476.951349 -471.287999 
L 475.501169 -471.287999 
L 474.05099 -471.287999 
L 472.600811 -471.287999 
L 471.150632 -471.287999 
L 469.700452 -471.287999 
L 468.250273 -471.287999 
L 466.800094 -471.287999 
L 465.349914 -471.287999 
L 463.899735 -471.287999 
L 462.449556 -471.287999 
L 460.999376 -471.287999 
L 459.549197 -471.287999 
L 458.099018 -471.287999 
L 456.648838 -471.287999 
L 455.198659 -471.287999 
L 453.74848 -471.287999 
L 452.2983 -471.287999 
L 450.848121 -471.287999 
L 449.397942 -471.287999 
L 447.947762 -471.287999 
L 446.497583 -471.287999 
L 445.047404 -471.287999 
L 443.597224 -471.287999 
L 442.147045 -471.287999 
L 440.696866 -471.287999 
L 439.246686 -471.287999 
L 437.796507 -471.287999 
L 436.346328 -471.287999 
L 434.896148 -471.287999 
L 433.445969 -471.287999 
L 431.99579 -471.287999 
L 430.54561 -471.287999 
L 429.095431 -471.287999 
L 427.645252 -471.287999 
L 426.195073 -471.287999 
L 424.744893 -471.287999 
L 423.294714 -471.287999 
L 421.844535 -471.287999 
L 420.394355 -471.287999 
L 418.944176 -471.287999 
L 417.493997 -471.287999 
L 416.043817 -471.287999 
L 414.593638 -471.287999 
L 413.143459 -471.287999 
L 411.693279 -471.287999 
L 410.2431 -471.287999 
L 408.792921 -471.287999 
L 407.342741 -471.287999 
L 405.892562 -471.287999 
z
" style="stroke: #9467bd; stroke-opacity: 0.2"/>
    </defs>
    <g clip-path="url(#pa54fc5e237)">
     <use xlink:href="#mecd4cee3e9" x="0" y="720" style="fill: #9467bd; fill-opacity: 0.2; stroke: #9467bd; stroke-opacity: 0.2"/>
    </g>
   </g>
   <g id="PolyCollection_2">
    <defs>
     <path id="mf4799de088" d="M 405.892562 -471.287999 
L 405.892562 -471.287999 
L 407.342741 -471.287999 
L 408.792921 -471.287999 
L 410.2431 -471.287999 
L 411.693279 -471.287999 
L 413.143459 -471.287999 
L 414.593638 -471.287999 
L 416.043817 -471.287999 
L 417.493997 -471.287999 
L 418.944176 -471.287999 
L 420.394355 -471.287999 
L 421.844535 -471.287999 
L 423.294714 -471.28711 
L 424.744893 -471.279824 
L 426.195073 -471.239661 
L 427.645252 -471.066063 
L 429.095431 -470.470299 
L 430.54561 -468.832437 
L 431.99579 -465.197415 
L 433.445969 -458.625061 
L 434.896148 -446.463138 
L 436.346328 -434.664364 
L 437.796507 -421.532728 
L 439.246686 -410.726782 
L 440.696866 -402.336925 
L 442.147045 -398.438571 
L 443.597224 -397.740496 
L 445.047404 -399.197077 
L 446.497583 -402.177975 
L 447.947762 -405.554157 
L 449.397942 -410.844382 
L 450.848121 -415.633198 
L 452.2983 -421.593047 
L 453.74848 -426.903741 
L 455.198659 -431.287147 
L 456.648838 -435.58875 
L 458.099018 -439.712112 
L 459.549197 -442.823925 
L 460.999376 -447.017603 
L 462.449556 -451.429212 
L 463.899735 -455.554587 
L 465.349914 -459.549357 
L 466.800094 -463.071431 
L 468.250273 -464.912381 
L 469.700452 -465.306956 
L 471.150632 -466.254962 
L 472.600811 -465.679311 
L 474.05099 -465.822549 
L 475.501169 -467.240593 
L 476.951349 -466.05912 
L 478.401528 -465.977727 
L 479.851707 -465.699711 
L 481.301887 -464.836777 
L 482.752066 -462.801165 
L 484.202245 -462.280809 
L 485.652425 -462.138326 
L 487.102604 -463.223736 
L 488.552783 -465.746466 
L 490.002963 -466.90327 
L 491.453142 -468.789958 
L 492.903321 -470.694242 
L 494.353501 -471.94062 
L 495.80368 -474.085022 
L 497.253859 -474.973476 
L 498.704039 -477.037939 
L 500.154218 -478.126794 
L 501.604397 -479.515261 
L 503.054577 -480.484964 
L 504.504756 -480.99209 
L 505.954935 -480.131533 
L 507.405115 -479.783776 
L 508.855294 -480.648346 
L 510.305473 -481.921347 
L 511.755653 -483.687297 
L 513.205832 -485.608337 
L 514.656011 -488.618038 
L 516.106191 -491.015337 
L 517.55637 -493.567155 
L 519.006549 -495.274059 
L 520.456729 -495.719664 
L 521.906908 -495.386383 
L 523.357087 -494.482086 
L 524.807266 -493.614655 
L 526.257446 -493.278121 
L 527.707625 -494.387568 
L 529.157804 -497.103469 
L 530.607984 -500.602021 
L 532.058163 -505.32948 
L 533.508342 -509.366587 
L 534.958522 -513.258581 
L 536.408701 -515.734454 
L 537.85888 -515.138842 
L 539.30906 -513.431049 
L 540.759239 -511.284545 
L 542.209418 -509.196619 
L 543.659598 -506.901433 
L 545.109777 -504.985414 
L 546.559956 -502.9199 
L 548.010136 -501.507106 
L 549.460315 -500.961721 
L 550.910494 -500.18128 
L 552.360674 -500.282861 
L 553.810853 -499.410707 
L 555.261032 -498.160583 
L 556.711212 -498.862159 
L 558.161391 -499.940945 
L 559.61157 -500.57389 
L 561.06175 -501.161656 
L 562.511929 -501.212527 
L 563.962108 -500.16829 
L 565.412288 -498.473488 
L 566.862467 -496.745142 
L 568.312646 -494.533092 
L 569.762826 -492.384264 
L 571.213005 -490.476028 
L 572.663184 -488.003359 
L 574.113363 -487.142273 
L 575.563543 -486.245492 
L 577.013722 -485.879178 
L 578.463901 -485.962622 
L 579.914081 -485.473014 
L 581.36426 -484.175581 
L 582.814439 -482.756081 
L 584.264619 -480.001455 
L 585.714798 -478.868684 
L 587.164977 -476.215438 
L 588.615157 -475.065747 
L 590.065336 -474.50898 
L 591.515515 -473.27285 
L 592.965695 -473.003943 
L 594.415874 -470.404752 
L 595.866053 -468.358497 
L 597.316233 -465.099537 
L 598.766412 -463.937297 
L 600.216591 -461.537548 
L 601.666771 -461.01254 
L 603.11695 -459.482166 
L 604.567129 -458.224049 
L 606.017309 -456.962999 
L 607.467488 -456.701271 
L 608.917667 -456.097769 
L 610.367847 -456.280609 
L 611.818026 -456.544925 
L 613.268205 -458.895703 
L 614.718385 -459.205732 
L 616.168564 -459.884935 
L 617.618743 -461.132922 
L 619.068923 -460.140204 
L 620.519102 -460.793147 
L 621.969281 -460.389592 
L 623.41946 -462.875953 
L 624.86964 -464.429292 
L 626.319819 -465.852942 
L 627.769998 -467.749152 
L 629.220178 -468.192555 
L 630.670357 -470.09165 
L 632.120536 -470.17169 
L 633.570716 -471.259478 
L 635.020895 -472.267801 
L 636.471074 -473.290253 
L 636.471074 -476.063918 
L 636.471074 -476.063918 
L 635.020895 -475.410468 
L 633.570716 -473.860117 
L 632.120536 -472.477395 
L 630.670357 -470.655864 
L 629.220178 -471.019671 
L 627.769998 -469.69385 
L 626.319819 -469.074356 
L 624.86964 -467.22817 
L 623.41946 -465.392116 
L 621.969281 -465.322989 
L 620.519102 -463.776286 
L 619.068923 -464.409757 
L 617.618743 -463.589858 
L 616.168564 -464.358798 
L 614.718385 -463.683058 
L 613.268205 -462.144901 
L 611.818026 -462.792759 
L 610.367847 -462.010923 
L 608.917667 -461.974414 
L 607.467488 -461.908036 
L 606.017309 -462.853849 
L 604.567129 -463.36427 
L 603.11695 -464.198478 
L 601.666771 -464.832557 
L 600.216591 -466.581269 
L 598.766412 -466.914918 
L 597.316233 -469.2952 
L 595.866053 -470.365425 
L 594.415874 -472.878575 
L 592.965695 -474.187245 
L 591.515515 -476.507423 
L 590.065336 -476.661495 
L 588.615157 -477.343728 
L 587.164977 -478.637848 
L 585.714798 -480.21913 
L 584.264619 -484.341286 
L 582.814439 -486.347623 
L 581.36426 -488.168981 
L 579.914081 -488.595961 
L 578.463901 -488.875834 
L 577.013722 -489.327497 
L 575.563543 -489.477234 
L 574.113363 -489.969919 
L 572.663184 -491.963953 
L 571.213005 -493.676245 
L 569.762826 -496.433382 
L 568.312646 -498.638872 
L 566.862467 -500.305548 
L 565.412288 -502.14792 
L 563.962108 -503.606372 
L 562.511929 -504.742684 
L 561.06175 -505.366539 
L 559.61157 -504.818019 
L 558.161391 -503.44294 
L 556.711212 -503.043866 
L 555.261032 -503.680387 
L 553.810853 -503.462862 
L 552.360674 -503.71895 
L 550.910494 -504.456415 
L 549.460315 -504.201626 
L 548.010136 -505.014175 
L 546.559956 -506.406993 
L 545.109777 -508.375169 
L 543.659598 -511.023665 
L 542.209418 -513.419136 
L 540.759239 -516.163263 
L 539.30906 -518.627137 
L 537.85888 -519.996146 
L 536.408701 -519.328127 
L 534.958522 -517.854807 
L 533.508342 -514.550353 
L 532.058163 -509.65389 
L 530.607984 -505.3951 
L 529.157804 -501.353179 
L 527.707625 -499.160413 
L 526.257446 -498.500917 
L 524.807266 -498.929858 
L 523.357087 -499.924875 
L 521.906908 -500.592301 
L 520.456729 -500.638382 
L 519.006549 -499.660807 
L 517.55637 -497.891371 
L 516.106191 -495.433643 
L 514.656011 -492.380756 
L 513.205832 -490.316115 
L 511.755653 -487.773449 
L 510.305473 -485.964518 
L 508.855294 -485.199005 
L 507.405115 -485.856772 
L 505.954935 -486.352104 
L 504.504756 -485.965364 
L 503.054577 -485.667247 
L 501.604397 -484.665899 
L 500.154218 -483.507746 
L 498.704039 -481.772568 
L 497.253859 -480.654473 
L 495.80368 -477.969025 
L 494.353501 -476.376058 
L 492.903321 -473.982511 
L 491.453142 -472.361502 
L 490.002963 -470.648096 
L 488.552783 -468.092961 
L 487.102604 -467.24914 
L 485.652425 -466.143335 
L 484.202245 -465.604484 
L 482.752066 -466.37444 
L 481.301887 -466.495969 
L 479.851707 -467.661514 
L 478.401528 -468.685618 
L 476.951349 -469.115474 
L 475.501169 -467.884115 
L 474.05099 -469.006949 
L 472.600811 -468.877197 
L 471.150632 -468.045069 
L 469.700452 -468.325845 
L 468.250273 -466.952713 
L 466.800094 -465.315519 
L 465.349914 -463.389048 
L 463.899735 -460.188039 
L 462.449556 -456.060348 
L 460.999376 -452.06992 
L 459.549197 -448.382387 
L 458.099018 -444.196639 
L 456.648838 -441.053896 
L 455.198659 -437.319558 
L 453.74848 -432.396277 
L 452.2983 -427.302915 
L 450.848121 -422.492612 
L 449.397942 -416.984983 
L 447.947762 -413.060721 
L 446.497583 -408.661821 
L 445.047404 -405.721883 
L 443.597224 -404.08654 
L 442.147045 -404.851818 
L 440.696866 -408.877222 
L 439.246686 -415.824873 
L 437.796507 -426.792031 
L 436.346328 -438.791081 
L 434.896148 -451.220678 
L 433.445969 -458.625061 
L 431.99579 -465.197415 
L 430.54561 -468.832437 
L 429.095431 -470.470299 
L 427.645252 -471.066063 
L 426.195073 -471.239661 
L 424.744893 -471.279824 
L 423.294714 -471.28711 
L 421.844535 -471.287999 
L 420.394355 -471.287999 
L 418.944176 -471.287999 
L 417.493997 -471.287999 
L 416.043817 -471.287999 
L 414.593638 -471.287999 
L 413.143459 -471.287999 
L 411.693279 -471.287999 
L 410.2431 -471.287999 
L 408.792921 -471.287999 
L 407.342741 -471.287999 
L 405.892562 -471.287999 
z
" style="stroke: #1f77b4; stroke-opacity: 0.2"/>
    </defs>
    <g clip-path="url(#pa54fc5e237)">
     <use xlink:href="#mf4799de088" x="0" y="720" style="fill: #1f77b4; fill-opacity: 0.2; stroke: #1f77b4; stroke-opacity: 0.2"/>
    </g>
   </g>
   <g id="PolyCollection_3">
    <defs>
     <path id="m33c8f8ecb5" d="M 405.892562 -471.287999 
L 405.892562 -471.287999 
L 407.342741 -471.287999 
L 408.792921 -471.287999 
L 410.2431 -471.287999 
L 411.693279 -471.287999 
L 413.143459 -471.287999 
L 414.593638 -471.287999 
L 416.043817 -471.287999 
L 417.493997 -471.287999 
L 418.944176 -471.287999 
L 420.394355 -471.287999 
L 421.844535 -471.287999 
L 423.294714 -471.287999 
L 424.744893 -471.287999 
L 426.195073 -471.287999 
L 427.645252 -471.287999 
L 429.095431 -471.287999 
L 430.54561 -471.287999 
L 431.99579 -471.287999 
L 433.445969 -471.287999 
L 434.896148 -471.287999 
L 436.346328 -471.287999 
L 437.796507 -471.287999 
L 439.246686 -471.287999 
L 440.696866 -471.287999 
L 442.147045 -471.287999 
L 443.597224 -471.287999 
L 445.047404 -471.287999 
L 446.497583 -471.287999 
L 447.947762 -471.287999 
L 449.397942 -471.287999 
L 450.848121 -471.287999 
L 452.2983 -471.287999 
L 453.74848 -471.287999 
L 455.198659 -471.287999 
L 456.648838 -471.287999 
L 458.099018 -471.287999 
L 459.549197 -471.287999 
L 460.999376 -471.287999 
L 462.449556 -471.287999 
L 463.899735 -471.287999 
L 465.349914 -471.287999 
L 466.800094 -471.289364 
L 468.250273 -471.298875 
L 469.700452 -471.348019 
L 471.150632 -471.548127 
L 472.600811 -472.186982 
L 474.05099 -473.798455 
L 475.501169 -477.041717 
L 476.951349 -482.33833 
L 478.401528 -487.704001 
L 479.851707 -495.706936 
L 481.301887 -504.963558 
L 482.752066 -514.530921 
L 484.202245 -524.057175 
L 485.652425 -532.189403 
L 487.102604 -540.88404 
L 488.552783 -548.464734 
L 490.002963 -555.291464 
L 491.453142 -562.034263 
L 492.903321 -568.042691 
L 494.353501 -574.820995 
L 495.80368 -581.005004 
L 497.253859 -587.301515 
L 498.704039 -591.471238 
L 500.154218 -595.12224 
L 501.604397 -597.186258 
L 503.054577 -598.892229 
L 504.504756 -599.231836 
L 505.954935 -600.454067 
L 507.405115 -600.932658 
L 508.855294 -601.315917 
L 510.305473 -602.437782 
L 511.755653 -603.313219 
L 513.205832 -605.119439 
L 514.656011 -607.009581 
L 516.106191 -609.887301 
L 517.55637 -611.430879 
L 519.006549 -613.515029 
L 520.456729 -614.628222 
L 521.906908 -614.699629 
L 523.357087 -614.661052 
L 524.807266 -614.271817 
L 526.257446 -613.512417 
L 527.707625 -613.741732 
L 529.157804 -613.065008 
L 530.607984 -611.75623 
L 532.058163 -610.840253 
L 533.508342 -609.512451 
L 534.958522 -607.847822 
L 536.408701 -604.637424 
L 537.85888 -601.072373 
L 539.30906 -597.591394 
L 540.759239 -593.344801 
L 542.209418 -590.30665 
L 543.659598 -585.857245 
L 545.109777 -581.283048 
L 546.559956 -577.313549 
L 548.010136 -573.418158 
L 549.460315 -569.546034 
L 550.910494 -565.694494 
L 552.360674 -562.494533 
L 553.810853 -559.019184 
L 555.261032 -555.939604 
L 556.711212 -553.382352 
L 558.161391 -551.40118 
L 559.61157 -548.785452 
L 561.06175 -546.231055 
L 562.511929 -543.571873 
L 563.962108 -540.596954 
L 565.412288 -537.92926 
L 566.862467 -535.788504 
L 568.312646 -533.809126 
L 569.762826 -531.19378 
L 571.213005 -530.284917 
L 572.663184 -528.930067 
L 574.113363 -526.8539 
L 575.563543 -523.957549 
L 577.013722 -521.176229 
L 578.463901 -519.094301 
L 579.914081 -516.427007 
L 581.36426 -513.981008 
L 582.814439 -511.127301 
L 584.264619 -509.784493 
L 585.714798 -508.826299 
L 587.164977 -508.622954 
L 588.615157 -508.73062 
L 590.065336 -507.250335 
L 591.515515 -506.1474 
L 592.965695 -503.925577 
L 594.415874 -501.733049 
L 595.866053 -499.586427 
L 597.316233 -496.903357 
L 598.766412 -494.473355 
L 600.216591 -492.487591 
L 601.666771 -491.342987 
L 603.11695 -489.571965 
L 604.567129 -488.632304 
L 606.017309 -486.683244 
L 607.467488 -485.798433 
L 608.917667 -485.528123 
L 610.367847 -485.41971 
L 611.818026 -486.019232 
L 613.268205 -485.27479 
L 614.718385 -484.632242 
L 616.168564 -481.184683 
L 617.618743 -479.948168 
L 619.068923 -476.869832 
L 620.519102 -476.286914 
L 621.969281 -474.888874 
L 623.41946 -473.70609 
L 624.86964 -473.493081 
L 626.319819 -473.673382 
L 627.769998 -473.317518 
L 629.220178 -473.70337 
L 630.670357 -472.820686 
L 632.120536 -472.966371 
L 633.570716 -473.186863 
L 635.020895 -472.894258 
L 636.471074 -473.032273 
L 636.471074 -475.036527 
L 636.471074 -475.036527 
L 635.020895 -475.343397 
L 633.570716 -475.174921 
L 632.120536 -475.267382 
L 630.670357 -475.089248 
L 629.220178 -474.04064 
L 627.769998 -474.765265 
L 626.319819 -475.216228 
L 624.86964 -476.300703 
L 623.41946 -476.924199 
L 621.969281 -476.954075 
L 620.519102 -477.876042 
L 619.068923 -481.032306 
L 617.618743 -482.710167 
L 616.168564 -486.380642 
L 614.718385 -487.036283 
L 613.268205 -488.980397 
L 611.818026 -489.171513 
L 610.367847 -489.651678 
L 608.917667 -489.430454 
L 607.467488 -490.014945 
L 606.017309 -491.326006 
L 604.567129 -492.554965 
L 603.11695 -494.974163 
L 601.666771 -496.139215 
L 600.216591 -497.637649 
L 598.766412 -498.725139 
L 597.316233 -500.343078 
L 595.866053 -502.488546 
L 594.415874 -505.304116 
L 592.965695 -507.736033 
L 591.515515 -509.581549 
L 590.065336 -511.661426 
L 588.615157 -512.102515 
L 587.164977 -513.012709 
L 585.714798 -513.43418 
L 584.264619 -514.161936 
L 582.814439 -516.21725 
L 581.36426 -518.123814 
L 579.914081 -520.939449 
L 578.463901 -523.477492 
L 577.013722 -526.48051 
L 575.563543 -528.614817 
L 574.113363 -530.166257 
L 572.663184 -531.859416 
L 571.213005 -533.836481 
L 569.762826 -536.37425 
L 568.312646 -537.700985 
L 566.862467 -540.103767 
L 565.412288 -542.589781 
L 563.962108 -544.909739 
L 562.511929 -547.565674 
L 561.06175 -551.015416 
L 559.61157 -554.315808 
L 558.161391 -556.74526 
L 556.711212 -559.313302 
L 555.261032 -561.720796 
L 553.810853 -564.644155 
L 552.360674 -568.08174 
L 550.910494 -572.128309 
L 549.460315 -575.432279 
L 548.010136 -578.698856 
L 546.559956 -582.374999 
L 545.109777 -586.753702 
L 543.659598 -591.076101 
L 542.209418 -595.334498 
L 540.759239 -600.260022 
L 539.30906 -603.418975 
L 537.85888 -607.32746 
L 536.408701 -611.041725 
L 534.958522 -614.032911 
L 533.508342 -616.662952 
L 532.058163 -617.964141 
L 530.607984 -618.92937 
L 529.157804 -619.339801 
L 527.707625 -620.210898 
L 526.257446 -621.695468 
L 524.807266 -621.920631 
L 523.357087 -622.216637 
L 521.906908 -622.368595 
L 520.456729 -621.815296 
L 519.006549 -621.007801 
L 517.55637 -619.41698 
L 516.106191 -615.736522 
L 514.656011 -613.007068 
L 513.205832 -610.242166 
L 511.755653 -608.812575 
L 510.305473 -607.477022 
L 508.855294 -606.937898 
L 507.405115 -606.016982 
L 505.954935 -605.323489 
L 504.504756 -604.990529 
L 503.054577 -602.838426 
L 501.604397 -600.863097 
L 500.154218 -597.956364 
L 498.704039 -594.976458 
L 497.253859 -590.266411 
L 495.80368 -585.286033 
L 494.353501 -578.529003 
L 492.903321 -571.883783 
L 491.453142 -564.738194 
L 490.002963 -558.483084 
L 488.552783 -551.783749 
L 487.102604 -544.663357 
L 485.652425 -537.2287 
L 484.202245 -527.910525 
L 482.752066 -519.014916 
L 481.301887 -509.751619 
L 479.851707 -500.526403 
L 478.401528 -491.412036 
L 476.951349 -482.33833 
L 475.501169 -477.041717 
L 474.05099 -473.798455 
L 472.600811 -472.186982 
L 471.150632 -471.548127 
L 469.700452 -471.348019 
L 468.250273 -471.298875 
L 466.800094 -471.289364 
L 465.349914 -471.287999 
L 463.899735 -471.287999 
L 462.449556 -471.287999 
L 460.999376 -471.287999 
L 459.549197 -471.287999 
L 458.099018 -471.287999 
L 456.648838 -471.287999 
L 455.198659 -471.287999 
L 453.74848 -471.287999 
L 452.2983 -471.287999 
L 450.848121 -471.287999 
L 449.397942 -471.287999 
L 447.947762 -471.287999 
L 446.497583 -471.287999 
L 445.047404 -471.287999 
L 443.597224 -471.287999 
L 442.147045 -471.287999 
L 440.696866 -471.287999 
L 439.246686 -471.287999 
L 437.796507 -471.287999 
L 436.346328 -471.287999 
L 434.896148 -471.287999 
L 433.445969 -471.287999 
L 431.99579 -471.287999 
L 430.54561 -471.287999 
L 429.095431 -471.287999 
L 427.645252 -471.287999 
L 426.195073 -471.287999 
L 424.744893 -471.287999 
L 423.294714 -471.287999 
L 421.844535 -471.287999 
L 420.394355 -471.287999 
L 418.944176 -471.287999 
L 417.493997 -471.287999 
L 416.043817 -471.287999 
L 414.593638 -471.287999 
L 413.143459 -471.287999 
L 411.693279 -471.287999 
L 410.2431 -471.287999 
L 408.792921 -471.287999 
L 407.342741 -471.287999 
L 405.892562 -471.287999 
z
" style="stroke: #d62728; stroke-opacity: 0.2"/>
    </defs>
    <g clip-path="url(#pa54fc5e237)">
     <use xlink:href="#m33c8f8ecb5" x="0" y="720" style="fill: #d62728; fill-opacity: 0.2; stroke: #d62728; stroke-opacity: 0.2"/>
    </g>
   </g>
   <g id="PolyCollection_4">
    <defs>
     <path id="m1bb9249a8e" d="M 405.892562 -480.702854 
L 405.892562 -478.089472 
L 407.342741 -476.928992 
L 408.792921 -476.037143 
L 410.2431 -473.842477 
L 411.693279 -472.093882 
L 413.143459 -470.801367 
L 414.593638 -469.859748 
L 416.043817 -467.849382 
L 417.493997 -467.265782 
L 418.944176 -466.04082 
L 420.394355 -465.900733 
L 421.844535 -465.927782 
L 423.294714 -465.669062 
L 424.744893 -464.217983 
L 426.195073 -464.385681 
L 427.645252 -462.642574 
L 429.095431 -461.09356 
L 430.54561 -458.936373 
L 431.99579 -456.928795 
L 433.445969 -454.927145 
L 434.896148 -453.054334 
L 436.346328 -452.429208 
L 437.796507 -452.398415 
L 439.246686 -451.825332 
L 440.696866 -452.542269 
L 442.147045 -453.864602 
L 443.597224 -457.345678 
L 445.047404 -459.370201 
L 446.497583 -463.39431 
L 447.947762 -466.788877 
L 449.397942 -469.624775 
L 450.848121 -471.48736 
L 452.2983 -473.280218 
L 453.74848 -476.345541 
L 455.198659 -477.33 
L 456.648838 -478.406975 
L 458.099018 -480.118367 
L 459.549197 -481.035058 
L 460.999376 -482.414804 
L 462.449556 -482.468943 
L 463.899735 -482.037879 
L 465.349914 -481.466287 
L 466.800094 -481.624414 
L 468.250273 -480.277851 
L 469.700452 -479.029874 
L 471.150632 -478.002141 
L 472.600811 -475.706195 
L 474.05099 -474.72358 
L 475.501169 -472.967857 
L 476.951349 -471.758834 
L 478.401528 -470.150404 
L 479.851707 -468.777126 
L 481.301887 -469.269977 
L 482.752066 -468.650905 
L 484.202245 -468.843741 
L 485.652425 -467.727933 
L 487.102604 -467.541672 
L 488.552783 -466.805454 
L 490.002963 -465.955818 
L 491.453142 -463.915005 
L 492.903321 -462.556542 
L 494.353501 -464.476295 
L 495.80368 -465.109599 
L 497.253859 -465.804164 
L 498.704039 -467.191271 
L 500.154218 -468.37391 
L 501.604397 -469.744617 
L 503.054577 -470.312251 
L 504.504756 -469.867947 
L 505.954935 -469.156835 
L 507.405115 -467.608621 
L 508.855294 -464.858511 
L 510.305473 -462.057355 
L 511.755653 -459.741517 
L 513.205832 -457.841851 
L 514.656011 -456.427985 
L 516.106191 -456.033291 
L 517.55637 -456.033659 
L 519.006549 -456.343055 
L 520.456729 -456.855562 
L 521.906908 -457.672704 
L 523.357087 -457.835627 
L 524.807266 -457.483656 
L 526.257446 -458.83141 
L 527.707625 -459.959747 
L 529.157804 -460.594587 
L 530.607984 -461.403852 
L 532.058163 -462.625249 
L 533.508342 -463.927206 
L 534.958522 -465.469407 
L 536.408701 -468.043333 
L 537.85888 -469.26777 
L 539.30906 -470.299283 
L 540.759239 -471.354918 
L 542.209418 -470.8222 
L 543.659598 -470.854728 
L 545.109777 -469.669715 
L 546.559956 -468.795393 
L 548.010136 -469.859187 
L 549.460315 -469.126211 
L 550.910494 -470.592201 
L 552.360674 -469.812026 
L 553.810853 -470.654793 
L 555.261032 -470.707321 
L 556.711212 -470.238606 
L 558.161391 -471.37701 
L 559.61157 -471.385666 
L 561.06175 -471.744401 
L 562.511929 -472.309168 
L 563.962108 -472.732791 
L 565.412288 -472.007296 
L 566.862467 -472.982704 
L 568.312646 -472.501488 
L 569.762826 -472.848777 
L 571.213005 -472.793945 
L 572.663184 -473.024904 
L 574.113363 -472.79854 
L 575.563543 -472.56547 
L 577.013722 -472.861694 
L 578.463901 -472.46081 
L 579.914081 -473.085159 
L 581.36426 -474.050995 
L 582.814439 -474.99105 
L 584.264619 -475.94825 
L 585.714798 -476.744079 
L 587.164977 -477.330287 
L 588.615157 -476.685663 
L 590.065336 -475.609727 
L 591.515515 -474.075285 
L 592.965695 -472.293173 
L 594.415874 -472.135986 
L 595.866053 -472.097345 
L 597.316233 -471.59402 
L 598.766412 -471.472598 
L 600.216591 -472.342264 
L 601.666771 -472.614172 
L 603.11695 -473.688265 
L 604.567129 -472.888099 
L 606.017309 -473.863836 
L 607.467488 -473.477806 
L 608.917667 -472.438749 
L 610.367847 -471.849742 
L 611.818026 -470.823152 
L 613.268205 -469.958323 
L 614.718385 -468.075488 
L 616.168564 -468.170042 
L 617.618743 -465.769377 
L 619.068923 -466.628437 
L 620.519102 -465.25404 
L 621.969281 -464.644821 
L 623.41946 -463.203646 
L 624.86964 -462.91077 
L 626.319819 -462.409254 
L 627.769998 -462.774295 
L 629.220178 -462.136494 
L 630.670357 -462.061245 
L 632.120536 -460.947939 
L 633.570716 -459.699155 
L 635.020895 -457.69675 
L 636.471074 -456.131483 
L 636.471074 -459.764056 
L 636.471074 -459.764056 
L 635.020895 -460.294603 
L 633.570716 -461.566091 
L 632.120536 -463.430799 
L 630.670357 -464.291816 
L 629.220178 -464.916564 
L 627.769998 -464.239029 
L 626.319819 -464.551725 
L 624.86964 -464.586015 
L 623.41946 -465.693626 
L 621.969281 -466.296488 
L 620.519102 -467.777224 
L 619.068923 -468.074128 
L 617.618743 -470.237728 
L 616.168564 -469.179194 
L 614.718385 -470.98668 
L 613.268205 -471.236134 
L 611.818026 -472.744018 
L 610.367847 -474.083835 
L 608.917667 -475.628636 
L 607.467488 -476.23502 
L 606.017309 -476.666935 
L 604.567129 -477.403584 
L 603.11695 -475.515438 
L 601.666771 -475.28333 
L 600.216591 -474.598947 
L 598.766412 -474.964873 
L 597.316233 -474.586607 
L 595.866053 -474.082265 
L 594.415874 -474.770402 
L 592.965695 -476.573101 
L 591.515515 -477.807676 
L 590.065336 -479.386485 
L 588.615157 -480.491952 
L 587.164977 -480.654491 
L 585.714798 -480.744082 
L 584.264619 -479.955936 
L 582.814439 -478.542631 
L 581.36426 -476.8386 
L 579.914081 -475.568675 
L 578.463901 -474.952975 
L 577.013722 -474.488645 
L 575.563543 -475.529088 
L 574.113363 -476.12962 
L 572.663184 -476.220567 
L 571.213005 -476.133365 
L 569.762826 -475.499101 
L 568.312646 -475.500526 
L 566.862467 -475.063864 
L 565.412288 -476.208028 
L 563.962108 -475.459593 
L 562.511929 -475.575011 
L 561.06175 -475.507479 
L 559.61157 -474.826093 
L 558.161391 -473.565415 
L 556.711212 -473.755702 
L 555.261032 -473.029715 
L 553.810853 -473.164777 
L 552.360674 -473.676584 
L 550.910494 -471.888602 
L 549.460315 -472.254144 
L 548.010136 -471.130576 
L 546.559956 -472.704188 
L 545.109777 -472.747389 
L 543.659598 -472.336969 
L 542.209418 -472.824408 
L 540.759239 -472.373568 
L 539.30906 -472.813608 
L 537.85888 -472.106965 
L 536.408701 -470.465957 
L 534.958522 -469.585372 
L 533.508342 -467.769246 
L 532.058163 -466.269112 
L 530.607984 -465.364898 
L 529.157804 -464.50125 
L 527.707625 -463.568576 
L 526.257446 -463.202997 
L 524.807266 -463.462987 
L 523.357087 -462.566293 
L 521.906908 -462.318068 
L 520.456729 -462.33026 
L 519.006549 -461.62976 
L 517.55637 -460.91501 
L 516.106191 -460.868213 
L 514.656011 -461.877065 
L 513.205832 -463.267292 
L 511.755653 -465.197788 
L 510.305473 -467.342633 
L 508.855294 -469.255487 
L 507.405115 -470.970151 
L 505.954935 -473.004641 
L 504.504756 -474.411989 
L 503.054577 -474.326161 
L 501.604397 -473.670492 
L 500.154218 -472.867517 
L 498.704039 -471.620058 
L 497.253859 -470.603203 
L 495.80368 -468.869752 
L 494.353501 -467.302375 
L 492.903321 -468.082789 
L 491.453142 -467.356748 
L 490.002963 -467.403337 
L 488.552783 -468.911332 
L 487.102604 -469.839555 
L 485.652425 -470.534431 
L 484.202245 -469.934753 
L 482.752066 -470.620023 
L 481.301887 -470.645493 
L 479.851707 -472.095547 
L 478.401528 -472.143807 
L 476.951349 -472.554648 
L 475.501169 -474.109027 
L 474.05099 -475.880938 
L 472.600811 -478.85656 
L 471.150632 -480.336296 
L 469.700452 -482.419022 
L 468.250273 -483.573676 
L 466.800094 -484.206301 
L 465.349914 -486.132081 
L 463.899735 -486.980828 
L 462.449556 -487.209417 
L 460.999376 -486.793897 
L 459.549197 -486.559376 
L 458.099018 -485.088174 
L 456.648838 -484.082395 
L 455.198659 -482.260399 
L 453.74848 -479.939366 
L 452.2983 -478.993625 
L 450.848121 -476.063331 
L 449.397942 -472.776887 
L 447.947762 -470.224959 
L 446.497583 -467.873972 
L 445.047404 -465.740449 
L 443.597224 -461.672711 
L 442.147045 -459.996133 
L 440.696866 -457.684408 
L 439.246686 -456.229681 
L 437.796507 -454.619535 
L 436.346328 -454.649163 
L 434.896148 -455.478145 
L 433.445969 -456.621339 
L 431.99579 -458.789268 
L 430.54561 -461.187633 
L 429.095431 -462.852907 
L 427.645252 -464.305115 
L 426.195073 -464.936128 
L 424.744893 -467.002145 
L 423.294714 -466.914898 
L 421.844535 -467.474022 
L 420.394355 -468.086305 
L 418.944176 -468.821015 
L 417.493997 -469.082971 
L 416.043817 -470.530991 
L 414.593638 -470.840567 
L 413.143459 -472.364958 
L 411.693279 -473.806538 
L 410.2431 -475.319852 
L 408.792921 -476.89735 
L 407.342741 -479.605583 
L 405.892562 -480.702854 
z
" style="stroke: #ff7f0e; stroke-opacity: 0.2"/>
    </defs>
    <g clip-path="url(#pa54fc5e237)">
     <use xlink:href="#m1bb9249a8e" x="0" y="720" style="fill: #ff7f0e; fill-opacity: 0.2; stroke: #ff7f0e; stroke-opacity: 0.2"/>
    </g>
   </g>
   <g id="matplotlib.axis_3">
    <g id="xtick_6">
     <g id="line2d_16">
      <g>
       <use xlink:href="#mccd093424a" x="405.863558" y="333.490909" style="stroke: #000000; stroke-width: 0.8"/>
      </g>
     </g>
     <g id="text_15">
      <!-- 0 -->
      <g transform="translate(402.682308 348.089347)scale(0.1 -0.1)">
       <use xlink:href="#DejaVuSans-30"/>
      </g>
     </g>
    </g>
    <g id="xtick_7">
     <g id="line2d_17">
      <g>
       <use xlink:href="#mccd093424a" x="463.870731" y="333.490909" style="stroke: #000000; stroke-width: 0.8"/>
      </g>
     </g>
     <g id="text_16">
      <!-- 2000 -->
      <g transform="translate(451.145731 348.089347)scale(0.1 -0.1)">
       <use xlink:href="#DejaVuSans-32"/>
       <use xlink:href="#DejaVuSans-30" x="63.623047"/>
       <use xlink:href="#DejaVuSans-30" x="127.246094"/>
       <use xlink:href="#DejaVuSans-30" x="190.869141"/>
      </g>
     </g>
    </g>
    <g id="xtick_8">
     <g id="line2d_18">
      <g>
       <use xlink:href="#mccd093424a" x="521.877904" y="333.490909" style="stroke: #000000; stroke-width: 0.8"/>
      </g>
     </g>
     <g id="text_17">
      <!-- 4000 -->
      <g transform="translate(509.152904 348.089347)scale(0.1 -0.1)">
       <use xlink:href="#DejaVuSans-34"/>
       <use xlink:href="#DejaVuSans-30" x="63.623047"/>
       <use xlink:href="#DejaVuSans-30" x="127.246094"/>
       <use xlink:href="#DejaVuSans-30" x="190.869141"/>
      </g>
     </g>
    </g>
    <g id="xtick_9">
     <g id="line2d_19">
      <g>
       <use xlink:href="#mccd093424a" x="579.885077" y="333.490909" style="stroke: #000000; stroke-width: 0.8"/>
      </g>
     </g>
     <g id="text_18">
      <!-- 6000 -->
      <g transform="translate(567.160077 348.089347)scale(0.1 -0.1)">
       <use xlink:href="#DejaVuSans-36"/>
       <use xlink:href="#DejaVuSans-30" x="63.623047"/>
       <use xlink:href="#DejaVuSans-30" x="127.246094"/>
       <use xlink:href="#DejaVuSans-30" x="190.869141"/>
      </g>
     </g>
    </g>
    <g id="xtick_10">
     <g id="line2d_20">
      <g>
       <use xlink:href="#mccd093424a" x="637.89225" y="333.490909" style="stroke: #000000; stroke-width: 0.8"/>
      </g>
     </g>
     <g id="text_19">
      <!-- 8000 -->
      <g transform="translate(625.16725 348.089347)scale(0.1 -0.1)">
       <use xlink:href="#DejaVuSans-38"/>
       <use xlink:href="#DejaVuSans-30" x="63.623047"/>
       <use xlink:href="#DejaVuSans-30" x="127.246094"/>
       <use xlink:href="#DejaVuSans-30" x="190.869141"/>
      </g>
     </g>
    </g>
   </g>
   <g id="matplotlib.axis_4">
    <g id="ytick_7">
     <g id="line2d_21">
      <g>
       <use xlink:href="#m15b7feb564" x="394.363636" y="308.310345" style="stroke: #000000; stroke-width: 0.8"/>
      </g>
     </g>
     <g id="text_20">
      <!-- 1.0 -->
      <g transform="translate(363.080824 312.109564)scale(0.1 -0.1)">
       <defs>
        <path id="DejaVuSans-2212" d="M 678 2272 
L 4684 2272 
L 4684 1741 
L 678 1741 
L 678 2272 
z
" transform="scale(0.015625)"/>
        <path id="DejaVuSans-2e" d="M 684 794 
L 1344 794 
L 1344 0 
L 684 0 
L 684 794 
z
" transform="scale(0.015625)"/>
       </defs>
       <use xlink:href="#DejaVuSans-2212"/>
       <use xlink:href="#DejaVuSans-31" x="83.789062"/>
       <use xlink:href="#DejaVuSans-2e" x="147.412109"/>
       <use xlink:href="#DejaVuSans-30" x="179.199219"/>
      </g>
     </g>
    </g>
    <g id="ytick_8">
     <g id="line2d_22">
      <g>
       <use xlink:href="#m15b7feb564" x="394.363636" y="278.511173" style="stroke: #000000; stroke-width: 0.8"/>
      </g>
     </g>
     <g id="text_21">
      <!-- 0.5 -->
      <g transform="translate(363.080824 282.310392)scale(0.1 -0.1)">
       <use xlink:href="#DejaVuSans-2212"/>
       <use xlink:href="#DejaVuSans-30" x="83.789062"/>
       <use xlink:href="#DejaVuSans-2e" x="147.412109"/>
       <use xlink:href="#DejaVuSans-35" x="179.199219"/>
      </g>
     </g>
    </g>
    <g id="ytick_9">
     <g id="line2d_23">
      <g>
       <use xlink:href="#m15b7feb564" x="394.363636" y="248.712001" style="stroke: #000000; stroke-width: 0.8"/>
      </g>
     </g>
     <g id="text_22">
      <!-- 0.0 -->
      <g transform="translate(371.460511 252.511219)scale(0.1 -0.1)">
       <use xlink:href="#DejaVuSans-30"/>
       <use xlink:href="#DejaVuSans-2e" x="63.623047"/>
       <use xlink:href="#DejaVuSans-30" x="95.410156"/>
      </g>
     </g>
    </g>
    <g id="ytick_10">
     <g id="line2d_24">
      <g>
       <use xlink:href="#m15b7feb564" x="394.363636" y="218.912828" style="stroke: #000000; stroke-width: 0.8"/>
      </g>
     </g>
     <g id="text_23">
      <!-- 0.5 -->
      <g transform="translate(371.460511 222.712047)scale(0.1 -0.1)">
       <use xlink:href="#DejaVuSans-30"/>
       <use xlink:href="#DejaVuSans-2e" x="63.623047"/>
       <use xlink:href="#DejaVuSans-35" x="95.410156"/>
      </g>
     </g>
    </g>
    <g id="ytick_11">
     <g id="line2d_25">
      <g>
       <use xlink:href="#m15b7feb564" x="394.363636" y="189.113656" style="stroke: #000000; stroke-width: 0.8"/>
      </g>
     </g>
     <g id="text_24">
      <!-- 1.0 -->
      <g transform="translate(371.460511 192.912874)scale(0.1 -0.1)">
       <use xlink:href="#DejaVuSans-31"/>
       <use xlink:href="#DejaVuSans-2e" x="63.623047"/>
       <use xlink:href="#DejaVuSans-30" x="95.410156"/>
      </g>
     </g>
    </g>
    <g id="ytick_12">
     <g id="line2d_26">
      <g>
       <use xlink:href="#m15b7feb564" x="394.363636" y="159.314483" style="stroke: #000000; stroke-width: 0.8"/>
      </g>
     </g>
     <g id="text_25">
      <!-- 1.5 -->
      <g transform="translate(371.460511 163.113702)scale(0.1 -0.1)">
       <use xlink:href="#DejaVuSans-31"/>
       <use xlink:href="#DejaVuSans-2e" x="63.623047"/>
       <use xlink:href="#DejaVuSans-35" x="95.410156"/>
      </g>
     </g>
    </g>
    <g id="ytick_13">
     <g id="line2d_27">
      <g>
       <use xlink:href="#m15b7feb564" x="394.363636" y="129.515311" style="stroke: #000000; stroke-width: 0.8"/>
      </g>
     </g>
     <g id="text_26">
      <!-- 2.0 -->
      <g transform="translate(371.460511 133.31453)scale(0.1 -0.1)">
       <use xlink:href="#DejaVuSans-32"/>
       <use xlink:href="#DejaVuSans-2e" x="63.623047"/>
       <use xlink:href="#DejaVuSans-30" x="95.410156"/>
      </g>
     </g>
    </g>
    <g id="ytick_14">
     <g id="line2d_28">
      <g>
       <use xlink:href="#m15b7feb564" x="394.363636" y="99.716139" style="stroke: #000000; stroke-width: 0.8"/>
      </g>
     </g>
     <g id="text_27">
      <!-- 2.5 -->
      <g transform="translate(371.460511 103.515357)scale(0.1 -0.1)">
       <use xlink:href="#DejaVuSans-32"/>
       <use xlink:href="#DejaVuSans-2e" x="63.623047"/>
       <use xlink:href="#DejaVuSans-35" x="95.410156"/>
      </g>
     </g>
    </g>
   </g>
   <g id="line2d_29">
    <path d="M 405.892562 248.712001 
L 636.471074 248.712001 
L 636.471074 248.712001 
" clip-path="url(#pa54fc5e237)" style="fill: none; stroke: #9467bd; stroke-width: 2; stroke-linecap: square"/>
   </g>
   <g id="line2d_30">
    <path d="M 405.892562 248.712001 
L 426.195073 248.760339 
L 427.645252 248.933937 
L 429.095431 249.529701 
L 430.54561 251.167563 
L 431.99579 254.802585 
L 433.445969 261.374939 
L 434.896148 271.158092 
L 439.246686 306.724173 
L 440.696866 314.392926 
L 442.147045 318.354805 
L 443.597224 319.086482 
L 445.047404 317.54052 
L 446.497583 314.580102 
L 447.947762 310.692561 
L 449.397942 306.085317 
L 455.198659 285.696647 
L 456.648838 281.678677 
L 459.549197 274.396844 
L 462.449556 266.25522 
L 463.899735 262.128687 
L 465.349914 258.530797 
L 466.800094 255.806525 
L 468.250273 254.067453 
L 469.700452 253.183599 
L 471.150632 252.849984 
L 476.951349 252.412703 
L 478.401528 252.668328 
L 479.851707 253.319387 
L 482.752066 255.412198 
L 484.202245 256.057354 
L 485.652425 255.85917 
L 487.102604 254.763562 
L 488.552783 253.080286 
L 492.903321 247.661623 
L 497.253859 242.186025 
L 498.704039 240.594746 
L 501.604397 237.90942 
L 503.054577 236.923895 
L 504.504756 236.521273 
L 505.954935 236.758181 
L 507.405115 237.179726 
L 508.855294 237.076325 
L 510.305473 236.057067 
L 511.755653 234.269627 
L 513.205832 232.037774 
L 517.55637 224.270737 
L 519.006549 222.532567 
L 520.456729 221.820977 
L 521.906908 222.010658 
L 523.357087 222.796519 
L 524.807266 223.727743 
L 526.257446 224.110481 
L 527.707625 223.226009 
L 529.157804 220.771676 
L 530.607984 217.00144 
L 533.508342 208.04153 
L 534.958522 204.443306 
L 536.408701 202.46871 
L 537.85888 202.432506 
L 539.30906 203.970907 
L 546.559956 215.336553 
L 548.010136 216.73936 
L 549.460315 217.418327 
L 552.360674 217.999095 
L 555.261032 219.079515 
L 556.711212 219.046987 
L 558.161391 218.308058 
L 559.61157 217.304045 
L 561.06175 216.735903 
L 562.511929 217.022395 
L 563.962108 218.112669 
L 565.412288 219.689296 
L 568.312646 223.414018 
L 572.663184 230.016344 
L 574.113363 231.443904 
L 575.563543 232.138637 
L 579.914081 232.965513 
L 581.36426 233.827719 
L 582.814439 235.448148 
L 584.264619 237.82863 
L 585.714798 240.456093 
L 587.164977 242.573357 
L 588.615157 243.795262 
L 591.515515 245.109864 
L 592.965695 246.404406 
L 594.415874 248.358336 
L 597.316233 252.802632 
L 598.766412 254.573892 
L 600.216591 255.940592 
L 603.11695 258.159678 
L 604.567129 259.205841 
L 606.017309 260.091576 
L 607.467488 260.695347 
L 608.917667 260.963908 
L 610.367847 260.854234 
L 611.818026 260.331158 
L 616.168564 257.878134 
L 617.618743 257.63861 
L 620.519102 257.715283 
L 621.969281 257.143709 
L 623.41946 255.865966 
L 626.319819 252.536351 
L 627.769998 251.278499 
L 632.120536 248.675457 
L 635.020895 246.160866 
L 636.471074 245.322914 
L 636.471074 245.322914 
" clip-path="url(#pa54fc5e237)" style="fill: none; stroke: #1f77b4; stroke-width: 2; stroke-linecap: square"/>
   </g>
   <g id="line2d_31">
    <path d="M 405.892562 248.712001 
L 469.700452 248.651981 
L 471.150632 248.451873 
L 472.600811 247.813018 
L 474.05099 246.201545 
L 475.501169 242.958283 
L 476.951349 237.66167 
L 478.401528 230.441982 
L 479.851707 221.88333 
L 485.652425 185.290948 
L 487.102604 177.226302 
L 488.552783 169.875758 
L 494.353501 143.325001 
L 495.80368 136.854482 
L 497.253859 131.216037 
L 498.704039 126.776152 
L 500.154218 123.460698 
L 501.604397 120.975323 
L 503.054577 119.134673 
L 504.504756 117.888818 
L 505.954935 117.111222 
L 508.855294 115.873092 
L 510.305473 115.042598 
L 511.755653 113.937103 
L 513.205832 112.319197 
L 514.656011 109.991676 
L 517.55637 104.576071 
L 519.006549 102.738585 
L 520.456729 101.778241 
L 521.906908 101.465888 
L 523.357087 101.561155 
L 524.807266 101.903776 
L 526.257446 102.396058 
L 527.707625 103.023685 
L 530.607984 104.6572 
L 532.058163 105.597803 
L 533.508342 106.912298 
L 534.958522 109.059633 
L 536.408701 112.160426 
L 540.759239 123.197588 
L 542.209418 127.179426 
L 546.559956 140.155726 
L 549.460315 147.510844 
L 553.810853 158.16833 
L 555.261032 161.1698 
L 559.61157 168.44937 
L 563.962108 177.246654 
L 566.862467 182.053864 
L 568.312646 184.244945 
L 569.762826 186.215985 
L 574.113363 191.489921 
L 575.563543 193.713817 
L 578.463901 198.714104 
L 582.814439 206.327724 
L 584.264619 208.026785 
L 585.714798 208.869761 
L 588.615157 209.583433 
L 590.065336 210.54412 
L 591.515515 212.135526 
L 592.965695 214.169195 
L 595.866053 218.962514 
L 597.316233 221.376782 
L 598.766412 223.400753 
L 600.216591 224.93738 
L 603.11695 227.726936 
L 606.017309 230.995375 
L 607.467488 232.093311 
L 608.917667 232.520711 
L 611.818026 232.404628 
L 613.268205 232.872407 
L 614.718385 234.165738 
L 616.168564 236.217338 
L 619.068923 241.048931 
L 620.519102 242.918522 
L 621.969281 244.078526 
L 623.41946 244.684856 
L 627.769998 245.958609 
L 629.220178 246.127995 
L 635.020895 245.881173 
L 636.471074 245.9656 
L 636.471074 245.9656 
" clip-path="url(#pa54fc5e237)" style="fill: none; stroke: #d62728; stroke-width: 2; stroke-linecap: square"/>
   </g>
   <g id="line2d_32">
    <path d="M 405.892562 240.603837 
L 407.342741 241.732712 
L 411.693279 247.04979 
L 414.593638 249.649843 
L 416.043817 250.809813 
L 417.493997 251.825624 
L 418.944176 252.569082 
L 420.394355 253.006481 
L 421.844535 253.299098 
L 423.294714 253.70802 
L 424.744893 254.389936 
L 426.195073 255.339096 
L 427.645252 256.526156 
L 429.095431 258.026766 
L 430.54561 259.937997 
L 433.445969 264.225758 
L 434.896148 265.733761 
L 436.346328 266.460814 
L 437.796507 266.491025 
L 439.246686 265.972494 
L 440.696866 264.886661 
L 442.147045 263.069632 
L 443.597224 260.490805 
L 447.947762 251.493082 
L 450.848121 246.224655 
L 452.2983 243.863078 
L 453.74848 241.857546 
L 455.198659 240.204801 
L 458.099018 237.39673 
L 459.549197 236.202783 
L 460.999376 235.395649 
L 462.449556 235.16082 
L 463.899735 235.490647 
L 465.349914 236.200816 
L 468.250273 238.074236 
L 469.700452 239.275552 
L 471.150632 240.830782 
L 475.501169 246.461558 
L 476.951349 247.843259 
L 478.401528 248.852894 
L 479.851707 249.563664 
L 481.301887 250.042265 
L 484.202245 250.610753 
L 485.652425 250.868818 
L 487.102604 251.309387 
L 488.552783 252.141607 
L 491.453142 254.364123 
L 492.903321 254.680334 
L 494.353501 254.110665 
L 497.253859 251.796317 
L 501.604397 248.292446 
L 503.054577 247.680794 
L 504.504756 247.860032 
L 505.954935 248.919262 
L 507.405115 250.710614 
L 513.205832 259.445429 
L 514.656011 260.847475 
L 516.106191 261.549248 
L 517.55637 261.525665 
L 521.906908 260.004614 
L 524.807266 259.526679 
L 526.257446 258.982797 
L 529.157804 257.452081 
L 530.607984 256.615625 
L 532.058163 255.55282 
L 533.508342 254.151774 
L 536.408701 250.745355 
L 537.85888 249.312633 
L 539.30906 248.443555 
L 540.759239 248.135757 
L 542.209418 248.176696 
L 543.659598 248.404152 
L 548.010136 249.505118 
L 549.460315 249.309823 
L 552.360674 248.255695 
L 553.810853 248.090215 
L 555.261032 248.131482 
L 556.711212 248.002846 
L 558.161391 247.528788 
L 561.06175 246.37406 
L 562.511929 246.05791 
L 563.962108 245.903808 
L 566.862467 245.976716 
L 568.312646 245.998993 
L 569.762826 245.826061 
L 571.213005 245.536345 
L 572.663184 245.377264 
L 574.113363 245.53592 
L 577.013722 246.32483 
L 578.463901 246.293107 
L 579.914081 245.673083 
L 581.36426 244.555203 
L 584.264619 242.047907 
L 585.714798 241.255919 
L 587.164977 241.007611 
L 588.615157 241.411193 
L 590.065336 242.501894 
L 592.965695 245.566863 
L 594.415874 246.546806 
L 595.866053 246.910195 
L 597.316233 246.909687 
L 598.766412 246.781265 
L 600.216591 246.529394 
L 601.666771 246.051249 
L 604.567129 244.854158 
L 606.017309 244.734615 
L 607.467488 245.143587 
L 608.917667 245.966307 
L 611.818026 248.216415 
L 614.718385 250.468916 
L 616.168564 251.325382 
L 619.068923 252.648718 
L 620.519102 253.484368 
L 623.41946 255.551364 
L 624.86964 256.251607 
L 626.319819 256.519511 
L 629.220178 256.473471 
L 630.670357 256.823469 
L 632.120536 257.810631 
L 635.020895 261.004323 
L 636.471074 262.05223 
L 636.471074 262.05223 
" clip-path="url(#pa54fc5e237)" style="fill: none; stroke: #ff7f0e; stroke-width: 2; stroke-linecap: square"/>
   </g>
   <g id="LineCollection_1">
    <path d="M 434.867145 313.518768 
L 434.867145 102.324608 
" clip-path="url(#pa54fc5e237)" style="fill: none; stroke-dasharray: 7.4,3.2; stroke-dashoffset: 0; stroke: #000000; stroke-width: 2"/>
    <path d="M 449.368938 313.518768 
L 449.368938 102.324608 
" clip-path="url(#pa54fc5e237)" style="fill: none; stroke-dasharray: 7.4,3.2; stroke-dashoffset: 0; stroke: #000000; stroke-width: 2"/>
    <path d="M 478.372525 313.518768 
L 478.372525 102.324608 
" clip-path="url(#pa54fc5e237)" style="fill: none; stroke-dasharray: 7.4,3.2; stroke-dashoffset: 0; stroke: #000000; stroke-width: 2"/>
    <path d="M 536.379697 313.518768 
L 536.379697 102.324608 
" clip-path="url(#pa54fc5e237)" style="fill: none; stroke-dasharray: 7.4,3.2; stroke-dashoffset: 0; stroke: #000000; stroke-width: 2"/>
   </g>
   <g id="patch_9">
    <path d="M 394.363636 333.490909 
L 394.363636 86.4 
" style="fill: none; stroke: #000000; stroke-width: 0.8; stroke-linejoin: miter; stroke-linecap: square"/>
   </g>
   <g id="patch_10">
    <path d="M 648 333.490909 
L 648 86.4 
" style="fill: none; stroke: #000000; stroke-width: 0.8; stroke-linejoin: miter; stroke-linecap: square"/>
   </g>
   <g id="patch_11">
    <path d="M 394.363636 333.490909 
L 648 333.490909 
" style="fill: none; stroke: #000000; stroke-width: 0.8; stroke-linejoin: miter; stroke-linecap: square"/>
   </g>
   <g id="patch_12">
    <path d="M 394.363636 86.4 
L 648 86.4 
" style="fill: none; stroke: #000000; stroke-width: 0.8; stroke-linejoin: miter; stroke-linecap: square"/>
   </g>
   <g id="text_28">
    <!-- unit_127 -->
    <g transform="translate(495.105256 80.4)scale(0.12 -0.12)">
     <defs>
      <path id="DejaVuSans-75" d="M 544 1381 
L 544 3500 
L 1119 3500 
L 1119 1403 
Q 1119 906 1312 657 
Q 1506 409 1894 409 
Q 2359 409 2629 706 
Q 2900 1003 2900 1516 
L 2900 3500 
L 3475 3500 
L 3475 0 
L 2900 0 
L 2900 538 
Q 2691 219 2414 64 
Q 2138 -91 1772 -91 
Q 1169 -91 856 284 
Q 544 659 544 1381 
z
M 1991 3584 
L 1991 3584 
z
" transform="scale(0.015625)"/>
      <path id="DejaVuSans-5f" d="M 3263 -1063 
L 3263 -1509 
L -63 -1509 
L -63 -1063 
L 3263 -1063 
z
" transform="scale(0.015625)"/>
      <path id="DejaVuSans-37" d="M 525 4666 
L 3525 4666 
L 3525 4397 
L 1831 0 
L 1172 0 
L 2766 4134 
L 525 4134 
L 525 4666 
z
" transform="scale(0.015625)"/>
     </defs>
     <use xlink:href="#DejaVuSans-75"/>
     <use xlink:href="#DejaVuSans-6e" x="63.378906"/>
     <use xlink:href="#DejaVuSans-69" x="126.757812"/>
     <use xlink:href="#DejaVuSans-74" x="154.541016"/>
     <use xlink:href="#DejaVuSans-5f" x="193.75"/>
     <use xlink:href="#DejaVuSans-31" x="243.75"/>
     <use xlink:href="#DejaVuSans-32" x="307.373047"/>
     <use xlink:href="#DejaVuSans-37" x="370.996094"/>
    </g>
   </g>
  </g>
  <g id="axes_3">
   <g id="patch_13">
    <path d="M 90 630 
L 343.636364 630 
L 343.636364 382.909091 
L 90 382.909091 
z
" style="fill: #ffffff"/>
   </g>
   <g id="matplotlib.axis_5">
    <g id="xtick_11">
     <g id="line2d_33">
      <g>
       <use xlink:href="#mccd093424a" x="90" y="630" style="stroke: #000000; stroke-width: 0.8"/>
      </g>
     </g>
     <g id="text_29">
      <!-- 0.0 -->
      <g transform="translate(82.048438 644.598437)scale(0.1 -0.1)">
       <use xlink:href="#DejaVuSans-30"/>
       <use xlink:href="#DejaVuSans-2e" x="63.623047"/>
       <use xlink:href="#DejaVuSans-30" x="95.410156"/>
      </g>
     </g>
    </g>
    <g id="xtick_12">
     <g id="line2d_34">
      <g>
       <use xlink:href="#mccd093424a" x="140.727273" y="630" style="stroke: #000000; stroke-width: 0.8"/>
      </g>
     </g>
     <g id="text_30">
      <!-- 0.2 -->
      <g transform="translate(132.77571 644.598437)scale(0.1 -0.1)">
       <use xlink:href="#DejaVuSans-30"/>
       <use xlink:href="#DejaVuSans-2e" x="63.623047"/>
       <use xlink:href="#DejaVuSans-32" x="95.410156"/>
      </g>
     </g>
    </g>
    <g id="xtick_13">
     <g id="line2d_35">
      <g>
       <use xlink:href="#mccd093424a" x="191.454545" y="630" style="stroke: #000000; stroke-width: 0.8"/>
      </g>
     </g>
     <g id="text_31">
      <!-- 0.4 -->
      <g transform="translate(183.502983 644.598437)scale(0.1 -0.1)">
       <use xlink:href="#DejaVuSans-30"/>
       <use xlink:href="#DejaVuSans-2e" x="63.623047"/>
       <use xlink:href="#DejaVuSans-34" x="95.410156"/>
      </g>
     </g>
    </g>
    <g id="xtick_14">
     <g id="line2d_36">
      <g>
       <use xlink:href="#mccd093424a" x="242.181818" y="630" style="stroke: #000000; stroke-width: 0.8"/>
      </g>
     </g>
     <g id="text_32">
      <!-- 0.6 -->
      <g transform="translate(234.230256 644.598437)scale(0.1 -0.1)">
       <use xlink:href="#DejaVuSans-30"/>
       <use xlink:href="#DejaVuSans-2e" x="63.623047"/>
       <use xlink:href="#DejaVuSans-36" x="95.410156"/>
      </g>
     </g>
    </g>
    <g id="xtick_15">
     <g id="line2d_37">
      <g>
       <use xlink:href="#mccd093424a" x="292.909091" y="630" style="stroke: #000000; stroke-width: 0.8"/>
      </g>
     </g>
     <g id="text_33">
      <!-- 0.8 -->
      <g transform="translate(284.957528 644.598437)scale(0.1 -0.1)">
       <use xlink:href="#DejaVuSans-30"/>
       <use xlink:href="#DejaVuSans-2e" x="63.623047"/>
       <use xlink:href="#DejaVuSans-38" x="95.410156"/>
      </g>
     </g>
    </g>
    <g id="xtick_16">
     <g id="line2d_38">
      <g>
       <use xlink:href="#mccd093424a" x="343.636364" y="630" style="stroke: #000000; stroke-width: 0.8"/>
      </g>
     </g>
     <g id="text_34">
      <!-- 1.0 -->
      <g transform="translate(335.684801 644.598437)scale(0.1 -0.1)">
       <use xlink:href="#DejaVuSans-31"/>
       <use xlink:href="#DejaVuSans-2e" x="63.623047"/>
       <use xlink:href="#DejaVuSans-30" x="95.410156"/>
      </g>
     </g>
    </g>
   </g>
   <g id="matplotlib.axis_6">
    <g id="ytick_15">
     <g id="line2d_39">
      <g>
       <use xlink:href="#m15b7feb564" x="90" y="630" style="stroke: #000000; stroke-width: 0.8"/>
      </g>
     </g>
     <g id="text_35">
      <!-- 0.0 -->
      <g transform="translate(67.096875 633.799219)scale(0.1 -0.1)">
       <use xlink:href="#DejaVuSans-30"/>
       <use xlink:href="#DejaVuSans-2e" x="63.623047"/>
       <use xlink:href="#DejaVuSans-30" x="95.410156"/>
      </g>
     </g>
    </g>
    <g id="ytick_16">
     <g id="line2d_40">
      <g>
       <use xlink:href="#m15b7feb564" x="90" y="580.581818" style="stroke: #000000; stroke-width: 0.8"/>
      </g>
     </g>
     <g id="text_36">
      <!-- 0.2 -->
      <g transform="translate(67.096875 584.381037)scale(0.1 -0.1)">
       <use xlink:href="#DejaVuSans-30"/>
       <use xlink:href="#DejaVuSans-2e" x="63.623047"/>
       <use xlink:href="#DejaVuSans-32" x="95.410156"/>
      </g>
     </g>
    </g>
    <g id="ytick_17">
     <g id="line2d_41">
      <g>
       <use xlink:href="#m15b7feb564" x="90" y="531.163636" style="stroke: #000000; stroke-width: 0.8"/>
      </g>
     </g>
     <g id="text_37">
      <!-- 0.4 -->
      <g transform="translate(67.096875 534.962855)scale(0.1 -0.1)">
       <use xlink:href="#DejaVuSans-30"/>
       <use xlink:href="#DejaVuSans-2e" x="63.623047"/>
       <use xlink:href="#DejaVuSans-34" x="95.410156"/>
      </g>
     </g>
    </g>
    <g id="ytick_18">
     <g id="line2d_42">
      <g>
       <use xlink:href="#m15b7feb564" x="90" y="481.745455" style="stroke: #000000; stroke-width: 0.8"/>
      </g>
     </g>
     <g id="text_38">
      <!-- 0.6 -->
      <g transform="translate(67.096875 485.544673)scale(0.1 -0.1)">
       <use xlink:href="#DejaVuSans-30"/>
       <use xlink:href="#DejaVuSans-2e" x="63.623047"/>
       <use xlink:href="#DejaVuSans-36" x="95.410156"/>
      </g>
     </g>
    </g>
    <g id="ytick_19">
     <g id="line2d_43">
      <g>
       <use xlink:href="#m15b7feb564" x="90" y="432.327273" style="stroke: #000000; stroke-width: 0.8"/>
      </g>
     </g>
     <g id="text_39">
      <!-- 0.8 -->
      <g transform="translate(67.096875 436.126491)scale(0.1 -0.1)">
       <use xlink:href="#DejaVuSans-30"/>
       <use xlink:href="#DejaVuSans-2e" x="63.623047"/>
       <use xlink:href="#DejaVuSans-38" x="95.410156"/>
      </g>
     </g>
    </g>
    <g id="ytick_20">
     <g id="line2d_44">
      <g>
       <use xlink:href="#m15b7feb564" x="90" y="382.909091" style="stroke: #000000; stroke-width: 0.8"/>
      </g>
     </g>
     <g id="text_40">
      <!-- 1.0 -->
      <g transform="translate(67.096875 386.70831)scale(0.1 -0.1)">
       <use xlink:href="#DejaVuSans-31"/>
       <use xlink:href="#DejaVuSans-2e" x="63.623047"/>
       <use xlink:href="#DejaVuSans-30" x="95.410156"/>
      </g>
     </g>
    </g>
   </g>
   <g id="patch_14">
    <path d="M 90 630 
L 90 382.909091 
" style="fill: none; stroke: #000000; stroke-width: 0.8; stroke-linejoin: miter; stroke-linecap: square"/>
   </g>
   <g id="patch_15">
    <path d="M 343.636364 630 
L 343.636364 382.909091 
" style="fill: none; stroke: #000000; stroke-width: 0.8; stroke-linejoin: miter; stroke-linecap: square"/>
   </g>
   <g id="patch_16">
    <path d="M 90 630 
L 343.636364 630 
" style="fill: none; stroke: #000000; stroke-width: 0.8; stroke-linejoin: miter; stroke-linecap: square"/>
   </g>
   <g id="patch_17">
    <path d="M 90 382.909091 
L 343.636364 382.909091 
" style="fill: none; stroke: #000000; stroke-width: 0.8; stroke-linejoin: miter; stroke-linecap: square"/>
   </g>
  </g>
  <g id="axes_4">
   <g id="patch_18">
    <path d="M 394.363636 630 
L 648 630 
L 648 382.909091 
L 394.363636 382.909091 
z
" style="fill: #ffffff"/>
   </g>
   <g id="matplotlib.axis_7">
    <g id="xtick_17">
     <g id="line2d_45">
      <g>
       <use xlink:href="#mccd093424a" x="405.863558" y="630" style="stroke: #000000; stroke-width: 0.8"/>
      </g>
     </g>
     <g id="text_41">
      <!-- 0 -->
      <g transform="translate(402.682308 644.598437)scale(0.1 -0.1)">
       <use xlink:href="#DejaVuSans-30"/>
      </g>
     </g>
    </g>
    <g id="xtick_18">
     <g id="line2d_46">
      <g>
       <use xlink:href="#mccd093424a" x="463.870731" y="630" style="stroke: #000000; stroke-width: 0.8"/>
      </g>
     </g>
     <g id="text_42">
      <!-- 2000 -->
      <g transform="translate(451.145731 644.598437)scale(0.1 -0.1)">
       <use xlink:href="#DejaVuSans-32"/>
       <use xlink:href="#DejaVuSans-30" x="63.623047"/>
       <use xlink:href="#DejaVuSans-30" x="127.246094"/>
       <use xlink:href="#DejaVuSans-30" x="190.869141"/>
      </g>
     </g>
    </g>
    <g id="xtick_19">
     <g id="line2d_47">
      <g>
       <use xlink:href="#mccd093424a" x="521.877904" y="630" style="stroke: #000000; stroke-width: 0.8"/>
      </g>
     </g>
     <g id="text_43">
      <!-- 4000 -->
      <g transform="translate(509.152904 644.598437)scale(0.1 -0.1)">
       <use xlink:href="#DejaVuSans-34"/>
       <use xlink:href="#DejaVuSans-30" x="63.623047"/>
       <use xlink:href="#DejaVuSans-30" x="127.246094"/>
       <use xlink:href="#DejaVuSans-30" x="190.869141"/>
      </g>
     </g>
    </g>
    <g id="xtick_20">
     <g id="line2d_48">
      <g>
       <use xlink:href="#mccd093424a" x="579.885077" y="630" style="stroke: #000000; stroke-width: 0.8"/>
      </g>
     </g>
     <g id="text_44">
      <!-- 6000 -->
      <g transform="translate(567.160077 644.598437)scale(0.1 -0.1)">
       <use xlink:href="#DejaVuSans-36"/>
       <use xlink:href="#DejaVuSans-30" x="63.623047"/>
       <use xlink:href="#DejaVuSans-30" x="127.246094"/>
       <use xlink:href="#DejaVuSans-30" x="190.869141"/>
      </g>
     </g>
    </g>
    <g id="xtick_21">
     <g id="line2d_49">
      <g>
       <use xlink:href="#mccd093424a" x="637.89225" y="630" style="stroke: #000000; stroke-width: 0.8"/>
      </g>
     </g>
     <g id="text_45">
      <!-- 8000 -->
      <g transform="translate(625.16725 644.598437)scale(0.1 -0.1)">
       <use xlink:href="#DejaVuSans-38"/>
       <use xlink:href="#DejaVuSans-30" x="63.623047"/>
       <use xlink:href="#DejaVuSans-30" x="127.246094"/>
       <use xlink:href="#DejaVuSans-30" x="190.869141"/>
      </g>
     </g>
    </g>
   </g>
   <g id="matplotlib.axis_8">
    <g id="ytick_21">
     <g id="line2d_50">
      <g>
       <use xlink:href="#m15b7feb564" x="394.363636" y="610.288767" style="stroke: #000000; stroke-width: 0.8"/>
      </g>
     </g>
     <g id="text_46">
      <!-- 0 -->
      <g transform="translate(381.001136 614.087986)scale(0.1 -0.1)">
       <use xlink:href="#DejaVuSans-30"/>
      </g>
     </g>
    </g>
    <g id="ytick_22">
     <g id="line2d_51">
      <g>
       <use xlink:href="#m15b7feb564" x="394.363636" y="561.010686" style="stroke: #000000; stroke-width: 0.8"/>
      </g>
     </g>
     <g id="text_47">
      <!-- 5 -->
      <g transform="translate(381.001136 564.809905)scale(0.1 -0.1)">
       <use xlink:href="#DejaVuSans-35"/>
      </g>
     </g>
    </g>
    <g id="ytick_23">
     <g id="line2d_52">
      <g>
       <use xlink:href="#m15b7feb564" x="394.363636" y="511.732605" style="stroke: #000000; stroke-width: 0.8"/>
      </g>
     </g>
     <g id="text_48">
      <!-- 10 -->
      <g transform="translate(374.638636 515.531823)scale(0.1 -0.1)">
       <use xlink:href="#DejaVuSans-31"/>
       <use xlink:href="#DejaVuSans-30" x="63.623047"/>
      </g>
     </g>
    </g>
    <g id="ytick_24">
     <g id="line2d_53">
      <g>
       <use xlink:href="#m15b7feb564" x="394.363636" y="462.454523" style="stroke: #000000; stroke-width: 0.8"/>
      </g>
     </g>
     <g id="text_49">
      <!-- 15 -->
      <g transform="translate(374.638636 466.253742)scale(0.1 -0.1)">
       <use xlink:href="#DejaVuSans-31"/>
       <use xlink:href="#DejaVuSans-35" x="63.623047"/>
      </g>
     </g>
    </g>
    <g id="ytick_25">
     <g id="line2d_54">
      <g>
       <use xlink:href="#m15b7feb564" x="394.363636" y="413.176442" style="stroke: #000000; stroke-width: 0.8"/>
      </g>
     </g>
     <g id="text_50">
      <!-- 20 -->
      <g transform="translate(374.638636 416.975661)scale(0.1 -0.1)">
       <use xlink:href="#DejaVuSans-32"/>
       <use xlink:href="#DejaVuSans-30" x="63.623047"/>
      </g>
     </g>
    </g>
   </g>
   <g id="line2d_55">
    <path d="M 405.892562 611.987786 
L 407.342741 611.753989 
L 408.792921 611.23148 
L 410.2431 611.042772 
L 417.493997 612.020855 
L 423.294714 611.057453 
L 426.195073 610.278687 
L 427.645252 610.237121 
L 429.095431 610.496811 
L 430.54561 610.109156 
L 433.445969 607.335035 
L 434.896148 603.729208 
L 436.346328 592.997445 
L 437.796507 576.874537 
L 439.246686 563.993179 
L 440.696866 559.62226 
L 442.147045 561.427098 
L 443.597224 565.84387 
L 445.047404 571.38997 
L 446.497583 575.557075 
L 447.947762 577.839521 
L 449.397942 583.009949 
L 450.848121 588.816528 
L 453.74848 596.033378 
L 455.198659 598.81298 
L 456.648838 600.167786 
L 458.099018 602.258006 
L 459.549197 605.763755 
L 460.999376 608.703644 
L 462.449556 611.252438 
L 463.899735 613.401594 
L 465.349914 613.562398 
L 466.800094 612.944875 
L 468.250273 613.258844 
L 469.700452 614.334601 
L 471.150632 613.870241 
L 472.600811 612.360209 
L 474.05099 612.216114 
L 475.501169 611.762922 
L 476.951349 609.691837 
L 478.401528 606.086448 
L 479.851707 600.334419 
L 481.301887 588.884675 
L 482.752066 573.629608 
L 484.202245 564.505793 
L 485.652425 560.723127 
L 487.102604 553.827746 
L 488.552783 543.693004 
L 490.002963 538.242445 
L 491.453142 535.27876 
L 492.903321 530.59886 
L 494.353501 523.844165 
L 495.80368 513.876958 
L 497.253859 502.371002 
L 498.704039 493.05408 
L 500.154218 489.129592 
L 501.604397 486.370626 
L 504.504756 475.769976 
L 505.954935 472.930009 
L 507.405115 472.124255 
L 508.855294 470.608865 
L 510.305473 459.419405 
L 511.755653 444.165226 
L 514.656011 427.018429 
L 516.106191 413.73849 
L 517.55637 401.980545 
L 519.006549 398.573048 
L 520.456729 399.971581 
L 523.357087 400.736814 
L 524.807266 402.235789 
L 526.257446 401.012985 
L 527.707625 394.654764 
L 529.157804 390.035892 
L 530.607984 388.579 
L 532.058163 388.867101 
L 533.508342 384.705627 
L 534.958522 382.909091 
L 537.85888 408.560665 
L 539.30906 414.278994 
L 540.759239 422.599256 
L 542.209418 429.312842 
L 543.659598 434.558027 
L 545.109777 443.8556 
L 546.559956 450.772269 
L 548.010136 458.311376 
L 549.460315 468.400721 
L 550.910494 480.476753 
L 552.360674 495.782167 
L 553.810853 505.519086 
L 555.261032 509.818433 
L 556.711212 513.606216 
L 558.161391 512.823682 
L 559.61157 517.265033 
L 561.06175 523.344233 
L 562.511929 527.407129 
L 563.962108 534.031626 
L 565.412288 542.136761 
L 566.862467 547.451106 
L 568.312646 550.634626 
L 571.213005 555.2088 
L 572.663184 558.980905 
L 574.113363 559.449659 
L 575.563543 561.367065 
L 577.013722 567.865994 
L 578.463901 571.456376 
L 579.914081 577.125468 
L 581.36426 586.651263 
L 582.814439 594.438849 
L 585.714798 605.686877 
L 587.164977 609.743203 
L 588.615157 609.604724 
L 590.065336 607.836803 
L 591.515515 608.559448 
L 592.965695 610.861676 
L 594.415874 612.259373 
L 595.866053 613.187765 
L 598.766412 615.971363 
L 600.216591 616.605818 
L 601.666771 616.820532 
L 603.11695 618.141565 
L 604.567129 620.862801 
L 606.017309 621.603187 
L 610.367847 616.227673 
L 611.818026 614.03047 
L 613.268205 611.096865 
L 614.718385 610.087889 
L 616.168564 611.125009 
L 617.618743 611.969536 
L 620.519102 612.311952 
L 621.969281 610.424959 
L 623.41946 607.461148 
L 624.86964 607.402158 
L 626.319819 608.027255 
L 629.220178 608.86002 
L 632.120536 610.831418 
L 633.570716 610.389017 
L 635.020895 609.668237 
L 636.471074 609.586797 
L 636.471074 609.586797 
" clip-path="url(#p119af4890d)" style="fill: none; stroke: #1f77b4; stroke-width: 1.5; stroke-linecap: square"/>
   </g>
   <g id="patch_19">
    <path d="M 394.363636 630 
L 394.363636 382.909091 
" style="fill: none; stroke: #000000; stroke-width: 0.8; stroke-linejoin: miter; stroke-linecap: square"/>
   </g>
   <g id="patch_20">
    <path d="M 648 630 
L 648 382.909091 
" style="fill: none; stroke: #000000; stroke-width: 0.8; stroke-linejoin: miter; stroke-linecap: square"/>
   </g>
   <g id="patch_21">
    <path d="M 394.363636 630 
L 648 630 
" style="fill: none; stroke: #000000; stroke-width: 0.8; stroke-linejoin: miter; stroke-linecap: square"/>
   </g>
   <g id="patch_22">
    <path d="M 394.363636 382.909091 
L 648 382.909091 
" style="fill: none; stroke: #000000; stroke-width: 0.8; stroke-linejoin: miter; stroke-linecap: square"/>
   </g>
   <g id="text_51">
    <!-- explained variance -->
    <g transform="translate(464.181818 376.909091)scale(0.12 -0.12)">
     <defs>
      <path id="DejaVuSans-78" d="M 3513 3500 
L 2247 1797 
L 3578 0 
L 2900 0 
L 1881 1375 
L 863 0 
L 184 0 
L 1544 1831 
L 300 3500 
L 978 3500 
L 1906 2253 
L 2834 3500 
L 3513 3500 
z
" transform="scale(0.015625)"/>
      <path id="DejaVuSans-70" d="M 1159 525 
L 1159 -1331 
L 581 -1331 
L 581 3500 
L 1159 3500 
L 1159 2969 
Q 1341 3281 1617 3432 
Q 1894 3584 2278 3584 
Q 2916 3584 3314 3078 
Q 3713 2572 3713 1747 
Q 3713 922 3314 415 
Q 2916 -91 2278 -91 
Q 1894 -91 1617 61 
Q 1341 213 1159 525 
z
M 3116 1747 
Q 3116 2381 2855 2742 
Q 2594 3103 2138 3103 
Q 1681 3103 1420 2742 
Q 1159 2381 1159 1747 
Q 1159 1113 1420 752 
Q 1681 391 2138 391 
Q 2594 391 2855 752 
Q 3116 1113 3116 1747 
z
" transform="scale(0.015625)"/>
      <path id="DejaVuSans-6c" d="M 603 4863 
L 1178 4863 
L 1178 0 
L 603 0 
L 603 4863 
z
" transform="scale(0.015625)"/>
      <path id="DejaVuSans-76" d="M 191 3500 
L 800 3500 
L 1894 563 
L 2988 3500 
L 3597 3500 
L 2284 0 
L 1503 0 
L 191 3500 
z
" transform="scale(0.015625)"/>
      <path id="DejaVuSans-63" d="M 3122 3366 
L 3122 2828 
Q 2878 2963 2633 3030 
Q 2388 3097 2138 3097 
Q 1578 3097 1268 2742 
Q 959 2388 959 1747 
Q 959 1106 1268 751 
Q 1578 397 2138 397 
Q 2388 397 2633 464 
Q 2878 531 3122 666 
L 3122 134 
Q 2881 22 2623 -34 
Q 2366 -91 2075 -91 
Q 1284 -91 818 406 
Q 353 903 353 1747 
Q 353 2603 823 3093 
Q 1294 3584 2113 3584 
Q 2378 3584 2631 3529 
Q 2884 3475 3122 3366 
z
" transform="scale(0.015625)"/>
     </defs>
     <use xlink:href="#DejaVuSans-65"/>
     <use xlink:href="#DejaVuSans-78" x="59.773438"/>
     <use xlink:href="#DejaVuSans-70" x="118.953125"/>
     <use xlink:href="#DejaVuSans-6c" x="182.429688"/>
     <use xlink:href="#DejaVuSans-61" x="210.212891"/>
     <use xlink:href="#DejaVuSans-69" x="271.492188"/>
     <use xlink:href="#DejaVuSans-6e" x="299.275391"/>
     <use xlink:href="#DejaVuSans-65" x="362.654297"/>
     <use xlink:href="#DejaVuSans-64" x="424.177734"/>
     <use xlink:href="#DejaVuSans-20" x="487.654297"/>
     <use xlink:href="#DejaVuSans-76" x="519.441406"/>
     <use xlink:href="#DejaVuSans-61" x="578.621094"/>
     <use xlink:href="#DejaVuSans-72" x="639.900391"/>
     <use xlink:href="#DejaVuSans-69" x="681.013672"/>
     <use xlink:href="#DejaVuSans-61" x="708.796875"/>
     <use xlink:href="#DejaVuSans-6e" x="770.076172"/>
     <use xlink:href="#DejaVuSans-63" x="833.455078"/>
     <use xlink:href="#DejaVuSans-65" x="888.435547"/>
    </g>
   </g>
  </g>
 </g>
 <defs>
  <clipPath id="pb756ae4cce">
   <rect x="90" y="86.4" width="253.636364" height="247.090909"/>
  </clipPath>
  <clipPath id="pa54fc5e237">
   <rect x="394.363636" y="86.4" width="253.636364" height="247.090909"/>
  </clipPath>
  <clipPath id="p119af4890d">
   <rect x="394.363636" y="382.909091" width="253.636364" height="247.090909"/>
  </clipPath>
 </defs>
</svg>
