<?xml version="1.0" encoding="utf-8" standalone="no"?>
<!DOCTYPE svg PUBLIC "-//W3C//DTD SVG 1.1//EN"
  "http://www.w3.org/Graphics/SVG/1.1/DTD/svg11.dtd">
<svg xmlns:xlink="http://www.w3.org/1999/xlink" width="720pt" height="720pt" viewBox="0 0 720 720" xmlns="http://www.w3.org/2000/svg" version="1.1">
 <metadata>
  <rdf:RDF xmlns:dc="http://purl.org/dc/elements/1.1/" xmlns:cc="http://creativecommons.org/ns#" xmlns:rdf="http://www.w3.org/1999/02/22-rdf-syntax-ns#">
   <cc:Work>
    <dc:type rdf:resource="http://purl.org/dc/dcmitype/StillImage"/>
    <dc:date>2023-12-19T18:20:32.256235</dc:date>
    <dc:format>image/svg+xml</dc:format>
    <dc:creator>
     <cc:Agent>
      <dc:title>Matplotlib v3.5.2, https://matplotlib.org/</dc:title>
     </cc:Agent>
    </dc:creator>
   </cc:Work>
  </rdf:RDF>
 </metadata>
 <defs>
  <style type="text/css">*{stroke-linejoin: round; stroke-linecap: butt}</style>
 </defs>
 <g id="figure_1">
  <g id="patch_1">
   <path d="M 0 720 
L 720 720 
L 720 0 
L 0 0 
z
" style="fill: #ffffff"/>
  </g>
  <g id="axes_1">
   <g id="patch_2">
    <path d="M 90 333.490909 
L 343.636364 333.490909 
L 343.636364 86.4 
L 90 86.4 
z
" style="fill: #ffffff"/>
   </g>
   <g id="matplotlib.axis_1">
    <g id="xtick_1">
     <g id="line2d_1">
      <defs>
       <path id="ma044f9d29d" d="M 0 0 
L 0 3.5 
" style="stroke: #000000; stroke-width: 0.8"/>
      </defs>
      <g>
       <use xlink:href="#ma044f9d29d" x="90" y="333.490909" style="stroke: #000000; stroke-width: 0.8"/>
      </g>
     </g>
     <g id="text_1">
      <!-- 0.0 -->
      <g transform="translate(82.048438 348.089347)scale(0.1 -0.1)">
       <defs>
        <path id="DejaVuSans-30" d="M 2034 4250 
Q 1547 4250 1301 3770 
Q 1056 3291 1056 2328 
Q 1056 1369 1301 889 
Q 1547 409 2034 409 
Q 2525 409 2770 889 
Q 3016 1369 3016 2328 
Q 3016 3291 2770 3770 
Q 2525 4250 2034 4250 
z
M 2034 4750 
Q 2819 4750 3233 4129 
Q 3647 3509 3647 2328 
Q 3647 1150 3233 529 
Q 2819 -91 2034 -91 
Q 1250 -91 836 529 
Q 422 1150 422 2328 
Q 422 3509 836 4129 
Q 1250 4750 2034 4750 
z
" transform="scale(0.015625)"/>
        <path id="DejaVuSans-2e" d="M 684 794 
L 1344 794 
L 1344 0 
L 684 0 
L 684 794 
z
" transform="scale(0.015625)"/>
       </defs>
       <use xlink:href="#DejaVuSans-30"/>
       <use xlink:href="#DejaVuSans-2e" x="63.623047"/>
       <use xlink:href="#DejaVuSans-30" x="95.410156"/>
      </g>
     </g>
    </g>
    <g id="xtick_2">
     <g id="line2d_2">
      <g>
       <use xlink:href="#ma044f9d29d" x="140.727273" y="333.490909" style="stroke: #000000; stroke-width: 0.8"/>
      </g>
     </g>
     <g id="text_2">
      <!-- 0.2 -->
      <g transform="translate(132.77571 348.089347)scale(0.1 -0.1)">
       <defs>
        <path id="DejaVuSans-32" d="M 1228 531 
L 3431 531 
L 3431 0 
L 469 0 
L 469 531 
Q 828 903 1448 1529 
Q 2069 2156 2228 2338 
Q 2531 2678 2651 2914 
Q 2772 3150 2772 3378 
Q 2772 3750 2511 3984 
Q 2250 4219 1831 4219 
Q 1534 4219 1204 4116 
Q 875 4013 500 3803 
L 500 4441 
Q 881 4594 1212 4672 
Q 1544 4750 1819 4750 
Q 2544 4750 2975 4387 
Q 3406 4025 3406 3419 
Q 3406 3131 3298 2873 
Q 3191 2616 2906 2266 
Q 2828 2175 2409 1742 
Q 1991 1309 1228 531 
z
" transform="scale(0.015625)"/>
       </defs>
       <use xlink:href="#DejaVuSans-30"/>
       <use xlink:href="#DejaVuSans-2e" x="63.623047"/>
       <use xlink:href="#DejaVuSans-32" x="95.410156"/>
      </g>
     </g>
    </g>
    <g id="xtick_3">
     <g id="line2d_3">
      <g>
       <use xlink:href="#ma044f9d29d" x="191.454545" y="333.490909" style="stroke: #000000; stroke-width: 0.8"/>
      </g>
     </g>
     <g id="text_3">
      <!-- 0.4 -->
      <g transform="translate(183.502983 348.089347)scale(0.1 -0.1)">
       <defs>
        <path id="DejaVuSans-34" d="M 2419 4116 
L 825 1625 
L 2419 1625 
L 2419 4116 
z
M 2253 4666 
L 3047 4666 
L 3047 1625 
L 3713 1625 
L 3713 1100 
L 3047 1100 
L 3047 0 
L 2419 0 
L 2419 1100 
L 313 1100 
L 313 1709 
L 2253 4666 
z
" transform="scale(0.015625)"/>
       </defs>
       <use xlink:href="#DejaVuSans-30"/>
       <use xlink:href="#DejaVuSans-2e" x="63.623047"/>
       <use xlink:href="#DejaVuSans-34" x="95.410156"/>
      </g>
     </g>
    </g>
    <g id="xtick_4">
     <g id="line2d_4">
      <g>
       <use xlink:href="#ma044f9d29d" x="242.181818" y="333.490909" style="stroke: #000000; stroke-width: 0.8"/>
      </g>
     </g>
     <g id="text_4">
      <!-- 0.6 -->
      <g transform="translate(234.230256 348.089347)scale(0.1 -0.1)">
       <defs>
        <path id="DejaVuSans-36" d="M 2113 2584 
Q 1688 2584 1439 2293 
Q 1191 2003 1191 1497 
Q 1191 994 1439 701 
Q 1688 409 2113 409 
Q 2538 409 2786 701 
Q 3034 994 3034 1497 
Q 3034 2003 2786 2293 
Q 2538 2584 2113 2584 
z
M 3366 4563 
L 3366 3988 
Q 3128 4100 2886 4159 
Q 2644 4219 2406 4219 
Q 1781 4219 1451 3797 
Q 1122 3375 1075 2522 
Q 1259 2794 1537 2939 
Q 1816 3084 2150 3084 
Q 2853 3084 3261 2657 
Q 3669 2231 3669 1497 
Q 3669 778 3244 343 
Q 2819 -91 2113 -91 
Q 1303 -91 875 529 
Q 447 1150 447 2328 
Q 447 3434 972 4092 
Q 1497 4750 2381 4750 
Q 2619 4750 2861 4703 
Q 3103 4656 3366 4563 
z
" transform="scale(0.015625)"/>
       </defs>
       <use xlink:href="#DejaVuSans-30"/>
       <use xlink:href="#DejaVuSans-2e" x="63.623047"/>
       <use xlink:href="#DejaVuSans-36" x="95.410156"/>
      </g>
     </g>
    </g>
    <g id="xtick_5">
     <g id="line2d_5">
      <g>
       <use xlink:href="#ma044f9d29d" x="292.909091" y="333.490909" style="stroke: #000000; stroke-width: 0.8"/>
      </g>
     </g>
     <g id="text_5">
      <!-- 0.8 -->
      <g transform="translate(284.957528 348.089347)scale(0.1 -0.1)">
       <defs>
        <path id="DejaVuSans-38" d="M 2034 2216 
Q 1584 2216 1326 1975 
Q 1069 1734 1069 1313 
Q 1069 891 1326 650 
Q 1584 409 2034 409 
Q 2484 409 2743 651 
Q 3003 894 3003 1313 
Q 3003 1734 2745 1975 
Q 2488 2216 2034 2216 
z
M 1403 2484 
Q 997 2584 770 2862 
Q 544 3141 544 3541 
Q 544 4100 942 4425 
Q 1341 4750 2034 4750 
Q 2731 4750 3128 4425 
Q 3525 4100 3525 3541 
Q 3525 3141 3298 2862 
Q 3072 2584 2669 2484 
Q 3125 2378 3379 2068 
Q 3634 1759 3634 1313 
Q 3634 634 3220 271 
Q 2806 -91 2034 -91 
Q 1263 -91 848 271 
Q 434 634 434 1313 
Q 434 1759 690 2068 
Q 947 2378 1403 2484 
z
M 1172 3481 
Q 1172 3119 1398 2916 
Q 1625 2713 2034 2713 
Q 2441 2713 2670 2916 
Q 2900 3119 2900 3481 
Q 2900 3844 2670 4047 
Q 2441 4250 2034 4250 
Q 1625 4250 1398 4047 
Q 1172 3844 1172 3481 
z
" transform="scale(0.015625)"/>
       </defs>
       <use xlink:href="#DejaVuSans-30"/>
       <use xlink:href="#DejaVuSans-2e" x="63.623047"/>
       <use xlink:href="#DejaVuSans-38" x="95.410156"/>
      </g>
     </g>
    </g>
    <g id="xtick_6">
     <g id="line2d_6">
      <g>
       <use xlink:href="#ma044f9d29d" x="343.636364" y="333.490909" style="stroke: #000000; stroke-width: 0.8"/>
      </g>
     </g>
     <g id="text_6">
      <!-- 1.0 -->
      <g transform="translate(335.684801 348.089347)scale(0.1 -0.1)">
       <defs>
        <path id="DejaVuSans-31" d="M 794 531 
L 1825 531 
L 1825 4091 
L 703 3866 
L 703 4441 
L 1819 4666 
L 2450 4666 
L 2450 531 
L 3481 531 
L 3481 0 
L 794 0 
L 794 531 
z
" transform="scale(0.015625)"/>
       </defs>
       <use xlink:href="#DejaVuSans-31"/>
       <use xlink:href="#DejaVuSans-2e" x="63.623047"/>
       <use xlink:href="#DejaVuSans-30" x="95.410156"/>
      </g>
     </g>
    </g>
   </g>
   <g id="matplotlib.axis_2">
    <g id="ytick_1">
     <g id="line2d_7">
      <defs>
       <path id="mb718fa5f90" d="M 0 0 
L -3.5 0 
" style="stroke: #000000; stroke-width: 0.8"/>
      </defs>
      <g>
       <use xlink:href="#mb718fa5f90" x="90" y="333.490909" style="stroke: #000000; stroke-width: 0.8"/>
      </g>
     </g>
     <g id="text_7">
      <!-- 0.0 -->
      <g transform="translate(67.096875 337.290128)scale(0.1 -0.1)">
       <use xlink:href="#DejaVuSans-30"/>
       <use xlink:href="#DejaVuSans-2e" x="63.623047"/>
       <use xlink:href="#DejaVuSans-30" x="95.410156"/>
      </g>
     </g>
    </g>
    <g id="ytick_2">
     <g id="line2d_8">
      <g>
       <use xlink:href="#mb718fa5f90" x="90" y="284.072727" style="stroke: #000000; stroke-width: 0.8"/>
      </g>
     </g>
     <g id="text_8">
      <!-- 0.2 -->
      <g transform="translate(67.096875 287.871946)scale(0.1 -0.1)">
       <use xlink:href="#DejaVuSans-30"/>
       <use xlink:href="#DejaVuSans-2e" x="63.623047"/>
       <use xlink:href="#DejaVuSans-32" x="95.410156"/>
      </g>
     </g>
    </g>
    <g id="ytick_3">
     <g id="line2d_9">
      <g>
       <use xlink:href="#mb718fa5f90" x="90" y="234.654545" style="stroke: #000000; stroke-width: 0.8"/>
      </g>
     </g>
     <g id="text_9">
      <!-- 0.4 -->
      <g transform="translate(67.096875 238.453764)scale(0.1 -0.1)">
       <use xlink:href="#DejaVuSans-30"/>
       <use xlink:href="#DejaVuSans-2e" x="63.623047"/>
       <use xlink:href="#DejaVuSans-34" x="95.410156"/>
      </g>
     </g>
    </g>
    <g id="ytick_4">
     <g id="line2d_10">
      <g>
       <use xlink:href="#mb718fa5f90" x="90" y="185.236364" style="stroke: #000000; stroke-width: 0.8"/>
      </g>
     </g>
     <g id="text_10">
      <!-- 0.6 -->
      <g transform="translate(67.096875 189.035582)scale(0.1 -0.1)">
       <use xlink:href="#DejaVuSans-30"/>
       <use xlink:href="#DejaVuSans-2e" x="63.623047"/>
       <use xlink:href="#DejaVuSans-36" x="95.410156"/>
      </g>
     </g>
    </g>
    <g id="ytick_5">
     <g id="line2d_11">
      <g>
       <use xlink:href="#mb718fa5f90" x="90" y="135.818182" style="stroke: #000000; stroke-width: 0.8"/>
      </g>
     </g>
     <g id="text_11">
      <!-- 0.8 -->
      <g transform="translate(67.096875 139.617401)scale(0.1 -0.1)">
       <use xlink:href="#DejaVuSans-30"/>
       <use xlink:href="#DejaVuSans-2e" x="63.623047"/>
       <use xlink:href="#DejaVuSans-38" x="95.410156"/>
      </g>
     </g>
    </g>
    <g id="ytick_6">
     <g id="line2d_12">
      <g>
       <use xlink:href="#mb718fa5f90" x="90" y="86.4" style="stroke: #000000; stroke-width: 0.8"/>
      </g>
     </g>
     <g id="text_12">
      <!-- 1.0 -->
      <g transform="translate(67.096875 90.199219)scale(0.1 -0.1)">
       <use xlink:href="#DejaVuSans-31"/>
       <use xlink:href="#DejaVuSans-2e" x="63.623047"/>
       <use xlink:href="#DejaVuSans-30" x="95.410156"/>
      </g>
     </g>
    </g>
   </g>
   <g id="patch_3">
    <path d="M 90 333.490909 
L 90 86.4 
" style="fill: none; stroke: #000000; stroke-width: 0.8; stroke-linejoin: miter; stroke-linecap: square"/>
   </g>
   <g id="patch_4">
    <path d="M 343.636364 333.490909 
L 343.636364 86.4 
" style="fill: none; stroke: #000000; stroke-width: 0.8; stroke-linejoin: miter; stroke-linecap: square"/>
   </g>
   <g id="patch_5">
    <path d="M 90 333.490909 
L 343.636364 333.490909 
" style="fill: none; stroke: #000000; stroke-width: 0.8; stroke-linejoin: miter; stroke-linecap: square"/>
   </g>
   <g id="patch_6">
    <path d="M 90 86.4 
L 343.636364 86.4 
" style="fill: none; stroke: #000000; stroke-width: 0.8; stroke-linejoin: miter; stroke-linecap: square"/>
   </g>
  </g>
  <g id="axes_2">
   <g id="patch_7">
    <path d="M 394.363636 333.490909 
L 648 333.490909 
L 648 86.4 
L 394.363636 86.4 
z
" style="fill: #ffffff"/>
   </g>
   <g id="PolyCollection_1">
    <defs>
     <path id="m6818181cab" d="M 405.892562 -513.999762 
L 405.892562 -513.999762 
L 407.342741 -513.999762 
L 408.792921 -513.999762 
L 410.2431 -513.999762 
L 411.693279 -513.999762 
L 413.143459 -513.999762 
L 414.593638 -513.999762 
L 416.043817 -513.999762 
L 417.493997 -513.999762 
L 418.944176 -513.999762 
L 420.394355 -513.999762 
L 421.844535 -513.999762 
L 423.294714 -513.999762 
L 424.744893 -513.999762 
L 426.195073 -513.999762 
L 427.645252 -513.999762 
L 429.095431 -513.999762 
L 430.54561 -513.999762 
L 431.99579 -513.999762 
L 433.445969 -513.999762 
L 434.896148 -513.999762 
L 436.346328 -514.006216 
L 437.796507 -514.048991 
L 439.246686 -514.264956 
L 440.696866 -515.120364 
L 442.147045 -517.753429 
L 443.597224 -524.051134 
L 445.047404 -535.751132 
L 446.497583 -552.635637 
L 447.947762 -562.162226 
L 449.397942 -574.334895 
L 450.848121 -589.739894 
L 452.2983 -591.685475 
L 453.74848 -593.690044 
L 455.198659 -594.009723 
L 456.648838 -591.000891 
L 458.099018 -588.008126 
L 459.549197 -582.785593 
L 460.999376 -579.979519 
L 462.449556 -576.247158 
L 463.899735 -574.631785 
L 465.349914 -578.538561 
L 466.800094 -579.690165 
L 468.250273 -585.036077 
L 469.700452 -583.136802 
L 471.150632 -572.335773 
L 472.600811 -558.475606 
L 474.05099 -551.094024 
L 475.501169 -536.346823 
L 476.951349 -528.560994 
L 478.401528 -528.809115 
L 479.851707 -535.621365 
L 481.301887 -534.018883 
L 482.752066 -556.65079 
L 484.202245 -553.447434 
L 485.652425 -556.4477 
L 487.102604 -561.213742 
L 488.552783 -555.248696 
L 490.002963 -537.12224 
L 491.453142 -539.059728 
L 492.903321 -529.773715 
L 494.353501 -522.098542 
L 495.80368 -517.31163 
L 497.253859 -515.064726 
L 498.704039 -514.267184 
L 500.154218 -514.05242 
L 501.604397 -514.007837 
L 503.054577 -513.999762 
L 504.504756 -513.999762 
L 505.954935 -514.002165 
L 507.405115 -514.01543 
L 508.855294 -514.082114 
L 510.305473 -514.332613 
L 511.755653 -515.061292 
L 513.205832 -516.689718 
L 514.656011 -519.467204 
L 516.106191 -523.014562 
L 517.55637 -517.738464 
L 519.006549 -527.629929 
L 520.456729 -516.868553 
L 521.906908 -523.468581 
L 523.357087 -519.56957 
L 524.807266 -516.199285 
L 526.257446 -514.024595 
L 527.707625 -509.453069 
L 529.157804 -512.916432 
L 530.607984 -513.208338 
L 532.058163 -513.56921 
L 533.508342 -513.81912 
L 534.958522 -513.945373 
L 536.408701 -514.015478 
L 537.85888 -514.162836 
L 539.30906 -514.699084 
L 540.759239 -516.343341 
L 542.209418 -520.32092 
L 543.659598 -527.887907 
L 545.109777 -539.210553 
L 546.559956 -545.144892 
L 548.010136 -560.381669 
L 549.460315 -564.619136 
L 550.910494 -570.691352 
L 552.360674 -576.067834 
L 553.810853 -573.213285 
L 555.261032 -572.401684 
L 556.711212 -575.237979 
L 558.161391 -568.550936 
L 559.61157 -560.898369 
L 561.06175 -549.971244 
L 562.511929 -551.361129 
L 563.962108 -550.132406 
L 565.412288 -540.969812 
L 566.862467 -538.307319 
L 568.312646 -541.574287 
L 569.762826 -536.425226 
L 571.213005 -538.999101 
L 572.663184 -553.061477 
L 574.113363 -575.659813 
L 575.563543 -586.000467 
L 577.013722 -596.098515 
L 578.463901 -590.460735 
L 579.914081 -585.977331 
L 581.36426 -569.999351 
L 582.814439 -545.503502 
L 584.264619 -552.926706 
L 585.714798 -554.020019 
L 587.164977 -561.005864 
L 588.615157 -561.939143 
L 590.065336 -565.631182 
L 591.515515 -569.001927 
L 592.965695 -549.274874 
L 594.415874 -544.093346 
L 595.866053 -531.445759 
L 597.316233 -522.634436 
L 598.766412 -518.528846 
L 600.216591 -519.227307 
L 601.666771 -525.195843 
L 603.11695 -536.858269 
L 604.567129 -552.891908 
L 606.017309 -561.577673 
L 607.467488 -574.312752 
L 608.917667 -596.394191 
L 610.367847 -591.961103 
L 611.818026 -593.266049 
L 613.268205 -583.840534 
L 614.718385 -567.720694 
L 616.168564 -556.563129 
L 617.618743 -537.780145 
L 619.068923 -525.535344 
L 620.519102 -520.562176 
L 621.969281 -521.86937 
L 623.41946 -527.983372 
L 624.86964 -536.607691 
L 626.319819 -534.229704 
L 627.769998 -542.655224 
L 629.220178 -551.858003 
L 630.670357 -549.93594 
L 632.120536 -551.734785 
L 633.570716 -554.575049 
L 635.020895 -559.710015 
L 636.471074 -560.892016 
L 636.471074 -576.392001 
L 636.471074 -576.392001 
L 635.020895 -573.433998 
L 633.570716 -570.931137 
L 632.120536 -564.589284 
L 630.670357 -558.664725 
L 629.220178 -551.858003 
L 627.769998 -556.158948 
L 626.319819 -554.79687 
L 624.86964 -536.607691 
L 623.41946 -527.983372 
L 621.969281 -521.86937 
L 620.519102 -520.562176 
L 619.068923 -525.535344 
L 617.618743 -537.780145 
L 616.168564 -556.563129 
L 614.718385 -588.086864 
L 613.268205 -607.183733 
L 611.818026 -615.501012 
L 610.367847 -615.594404 
L 608.917667 -596.394191 
L 607.467488 -595.3281 
L 606.017309 -578.270147 
L 604.567129 -552.891908 
L 603.11695 -536.858269 
L 601.666771 -525.195843 
L 600.216591 -519.227307 
L 598.766412 -518.528846 
L 597.316233 -522.634436 
L 595.866053 -531.445759 
L 594.415874 -544.093346 
L 592.965695 -566.651867 
L 591.515515 -569.001927 
L 590.065336 -580.89145 
L 588.615157 -577.018583 
L 587.164977 -561.005864 
L 585.714798 -554.020019 
L 584.264619 -552.926706 
L 582.814439 -571.461767 
L 581.36426 -569.999351 
L 579.914081 -585.977331 
L 578.463901 -611.945552 
L 577.013722 -617.56758 
L 575.563543 -608.26251 
L 574.113363 -575.659813 
L 572.663184 -553.061477 
L 571.213005 -538.999101 
L 569.762826 -536.425226 
L 568.312646 -541.574287 
L 566.862467 -557.20471 
L 565.412288 -559.793545 
L 563.962108 -550.132406 
L 562.511929 -551.361129 
L 561.06175 -564.38248 
L 559.61157 -571.95818 
L 558.161391 -581.72278 
L 556.711212 -584.613517 
L 555.261032 -588.029906 
L 553.810853 -582.92431 
L 552.360674 -576.067834 
L 550.910494 -578.624029 
L 549.460315 -578.460254 
L 548.010136 -567.880447 
L 546.559956 -559.707152 
L 545.109777 -539.210553 
L 543.659598 -527.887907 
L 542.209418 -520.32092 
L 540.759239 -516.343341 
L 539.30906 -514.699084 
L 537.85888 -514.162836 
L 536.408701 -514.015478 
L 534.958522 -513.945373 
L 533.508342 -513.81912 
L 532.058163 -513.56921 
L 530.607984 -513.208338 
L 529.157804 -512.916432 
L 527.707625 -516.637548 
L 526.257446 -514.024595 
L 524.807266 -516.199285 
L 523.357087 -519.56957 
L 521.906908 -523.468581 
L 520.456729 -536.300879 
L 519.006549 -527.629929 
L 517.55637 -534.647749 
L 516.106191 -523.014562 
L 514.656011 -519.467204 
L 513.205832 -516.689718 
L 511.755653 -515.061292 
L 510.305473 -514.332613 
L 508.855294 -514.082114 
L 507.405115 -514.01543 
L 505.954935 -514.002165 
L 504.504756 -513.999762 
L 503.054577 -513.999762 
L 501.604397 -514.007837 
L 500.154218 -514.05242 
L 498.704039 -514.267184 
L 497.253859 -515.064726 
L 495.80368 -517.31163 
L 494.353501 -522.098542 
L 492.903321 -529.773715 
L 491.453142 -539.059728 
L 490.002963 -558.636192 
L 488.552783 -555.248696 
L 487.102604 -561.213742 
L 485.652425 -573.030086 
L 484.202245 -573.604366 
L 482.752066 -556.65079 
L 481.301887 -558.22011 
L 479.851707 -535.621365 
L 478.401528 -528.809115 
L 476.951349 -528.560994 
L 475.501169 -536.346823 
L 474.05099 -551.094024 
L 472.600811 -578.933311 
L 471.150632 -595.040364 
L 469.700452 -601.315766 
L 468.250273 -602.916006 
L 466.800094 -602.981261 
L 465.349914 -596.573452 
L 463.899735 -596.068291 
L 462.449556 -596.060315 
L 460.999376 -599.652243 
L 459.549197 -607.146854 
L 458.099018 -612.105622 
L 456.648838 -617.410365 
L 455.198659 -620.08683 
L 453.74848 -622.368595 
L 452.2983 -620.506171 
L 450.848121 -610.051862 
L 449.397942 -602.263704 
L 447.947762 -581.045989 
L 446.497583 -552.635637 
L 445.047404 -535.751132 
L 443.597224 -524.051134 
L 442.147045 -517.753429 
L 440.696866 -515.120364 
L 439.246686 -514.264956 
L 437.796507 -514.048991 
L 436.346328 -514.006216 
L 434.896148 -513.999762 
L 433.445969 -513.999762 
L 431.99579 -513.999762 
L 430.54561 -513.999762 
L 429.095431 -513.999762 
L 427.645252 -513.999762 
L 426.195073 -513.999762 
L 424.744893 -513.999762 
L 423.294714 -513.999762 
L 421.844535 -513.999762 
L 420.394355 -513.999762 
L 418.944176 -513.999762 
L 417.493997 -513.999762 
L 416.043817 -513.999762 
L 414.593638 -513.999762 
L 413.143459 -513.999762 
L 411.693279 -513.999762 
L 410.2431 -513.999762 
L 408.792921 -513.999762 
L 407.342741 -513.999762 
L 405.892562 -513.999762 
z
" style="stroke: #9467bd; stroke-opacity: 0.2"/>
    </defs>
    <g clip-path="url(#p80e7a0ae88)">
     <use xlink:href="#m6818181cab" x="0" y="720" style="fill: #9467bd; fill-opacity: 0.2; stroke: #9467bd; stroke-opacity: 0.2"/>
    </g>
   </g>
   <g id="PolyCollection_2">
    <defs>
     <path id="m562645c76c" d="M 405.892562 -513.902596 
L 405.892562 -513.902596 
L 407.342741 -513.893555 
L 408.792921 -513.538488 
L 410.2431 -513.906517 
L 411.693279 -513.93667 
L 413.143459 -513.970497 
L 414.593638 -514.01311 
L 416.043817 -514.122018 
L 417.493997 -514.465739 
L 418.944176 -515.382245 
L 420.394355 -517.320035 
L 421.844535 -520.540777 
L 423.294714 -519.376845 
L 424.744893 -521.536291 
L 426.195073 -525.442561 
L 427.645252 -527.656097 
L 429.095431 -527.575899 
L 430.54561 -525.19644 
L 431.99579 -524.032454 
L 433.445969 -528.475335 
L 434.896148 -522.634441 
L 436.346328 -517.652803 
L 437.796507 -513.972106 
L 439.246686 -511.253466 
L 440.696866 -509.349096 
L 442.147045 -503.972499 
L 443.597224 -509.219612 
L 445.047404 -510.711847 
L 446.497583 -512.239868 
L 447.947762 -513.266129 
L 449.397942 -513.761586 
L 450.848121 -513.939542 
L 452.2983 -513.987904 
L 453.74848 -513.997943 
L 455.198659 -513.999762 
L 456.648838 -513.999762 
L 458.099018 -513.999762 
L 459.549197 -513.999762 
L 460.999376 -513.999762 
L 462.449556 -513.999762 
L 463.899735 -513.999762 
L 465.349914 -513.999762 
L 466.800094 -513.999762 
L 468.250273 -513.999762 
L 469.700452 -513.999762 
L 471.150632 -513.999762 
L 472.600811 -513.999762 
L 474.05099 -513.999762 
L 475.501169 -513.999762 
L 476.951349 -513.999762 
L 478.401528 -513.999762 
L 479.851707 -513.999762 
L 481.301887 -513.999762 
L 482.752066 -513.999762 
L 484.202245 -513.999762 
L 485.652425 -513.999762 
L 487.102604 -513.999762 
L 488.552783 -513.999762 
L 490.002963 -513.999762 
L 491.453142 -513.999762 
L 492.903321 -513.999762 
L 494.353501 -513.999762 
L 495.80368 -513.999762 
L 497.253859 -513.999762 
L 498.704039 -513.999762 
L 500.154218 -513.999762 
L 501.604397 -513.999762 
L 503.054577 -513.999762 
L 504.504756 -513.999762 
L 505.954935 -513.999762 
L 507.405115 -513.999762 
L 508.855294 -513.999762 
L 510.305473 -513.999762 
L 511.755653 -513.999762 
L 513.205832 -513.999762 
L 514.656011 -513.999762 
L 516.106191 -513.999762 
L 517.55637 -513.999762 
L 519.006549 -513.999762 
L 520.456729 -513.999762 
L 521.906908 -513.999762 
L 523.357087 -513.99996 
L 524.807266 -514.004311 
L 526.257446 -514.027562 
L 527.707625 -514.135706 
L 529.157804 -514.520226 
L 530.607984 -515.576416 
L 532.058163 -517.791108 
L 533.508342 -521.277087 
L 534.958522 -523.538416 
L 536.408701 -514.204854 
L 537.85888 -528.613281 
L 539.30906 -518.914222 
L 540.759239 -522.595731 
L 542.209418 -519.282936 
L 543.659598 -516.553139 
L 545.109777 -514.997841 
L 546.559956 -514.311905 
L 548.010136 -514.077206 
L 549.460315 -514.014543 
L 550.910494 -514.002063 
L 552.360674 -513.999785 
L 553.810853 -513.999762 
L 555.261032 -513.999762 
L 556.711212 -513.999762 
L 558.161391 -513.999762 
L 559.61157 -513.999762 
L 561.06175 -513.999762 
L 562.511929 -513.999762 
L 563.962108 -513.999762 
L 565.412288 -513.999762 
L 566.862467 -513.999762 
L 568.312646 -513.993803 
L 569.762826 -513.954252 
L 571.213005 -513.759042 
L 572.663184 -512.995854 
L 574.113363 -510.704052 
L 575.563543 -505.442279 
L 577.013722 -496.357397 
L 578.463901 -484.926671 
L 579.914081 -466.32626 
L 581.36426 -463.999031 
L 582.814439 -474.15349 
L 584.264619 -475.26078 
L 585.714798 -487.692921 
L 587.164977 -486.298137 
L 588.615157 -500.609279 
L 590.065336 -506.081119 
L 591.515515 -510.113279 
L 592.965695 -512.458173 
L 594.415874 -513.503426 
L 595.866053 -513.819941 
L 597.316233 -513.742162 
L 598.766412 -513.273986 
L 600.216591 -512.267224 
L 601.666771 -510.762955 
L 603.11695 -509.290235 
L 604.567129 -499.03718 
L 606.017309 -509.269888 
L 607.467488 -510.659625 
L 608.917667 -511.858549 
L 610.367847 -512.018725 
L 611.818026 -510.745565 
L 613.268205 -508.298893 
L 614.718385 -505.77963 
L 616.168564 -497.048726 
L 617.618743 -505.791304 
L 619.068923 -508.358177 
L 620.519102 -510.980039 
L 621.969281 -512.740954 
L 623.41946 -513.591087 
L 624.86964 -513.896433 
L 626.319819 -513.979415 
L 627.769998 -513.996642 
L 629.220178 -513.999762 
L 630.670357 -513.999762 
L 632.120536 -513.999762 
L 633.570716 -513.999762 
L 635.020895 -513.999762 
L 636.471074 -513.999762 
L 636.471074 -513.999762 
L 636.471074 -513.999762 
L 635.020895 -513.999762 
L 633.570716 -513.999762 
L 632.120536 -513.999762 
L 630.670357 -513.999762 
L 629.220178 -513.999762 
L 627.769998 -513.996642 
L 626.319819 -513.979415 
L 624.86964 -513.896433 
L 623.41946 -513.591087 
L 621.969281 -512.740954 
L 620.519102 -510.980039 
L 619.068923 -508.358177 
L 617.618743 -505.791304 
L 616.168564 -512.344415 
L 614.718385 -505.77963 
L 613.268205 -508.298893 
L 611.818026 -510.745565 
L 610.367847 -512.018725 
L 608.917667 -511.858549 
L 607.467488 -510.659625 
L 606.017309 -509.269888 
L 604.567129 -518.282917 
L 603.11695 -509.290235 
L 601.666771 -510.762955 
L 600.216591 -512.267224 
L 598.766412 -513.273986 
L 597.316233 -513.742162 
L 595.866053 -513.819941 
L 594.415874 -513.503426 
L 592.965695 -512.458173 
L 591.515515 -510.113279 
L 590.065336 -506.081119 
L 588.615157 -500.609279 
L 587.164977 -502.448115 
L 585.714798 -487.692921 
L 584.264619 -485.884367 
L 582.814439 -474.15349 
L 581.36426 -478.930886 
L 579.914081 -484.219412 
L 578.463901 -484.926671 
L 577.013722 -496.357397 
L 575.563543 -505.442279 
L 574.113363 -510.704052 
L 572.663184 -512.995854 
L 571.213005 -513.759042 
L 569.762826 -513.954252 
L 568.312646 -513.993803 
L 566.862467 -513.999762 
L 565.412288 -513.999762 
L 563.962108 -513.999762 
L 562.511929 -513.999762 
L 561.06175 -513.999762 
L 559.61157 -513.999762 
L 558.161391 -513.999762 
L 556.711212 -513.999762 
L 555.261032 -513.999762 
L 553.810853 -513.999762 
L 552.360674 -513.999785 
L 550.910494 -514.002063 
L 549.460315 -514.014543 
L 548.010136 -514.077206 
L 546.559956 -514.311905 
L 545.109777 -514.997841 
L 543.659598 -516.553139 
L 542.209418 -519.282936 
L 540.759239 -523.301554 
L 539.30906 -534.165477 
L 537.85888 -528.613281 
L 536.408701 -542.05685 
L 534.958522 -526.947077 
L 533.508342 -521.277087 
L 532.058163 -517.791108 
L 530.607984 -515.576416 
L 529.157804 -514.520226 
L 527.707625 -514.135706 
L 526.257446 -514.027562 
L 524.807266 -514.004311 
L 523.357087 -513.99996 
L 521.906908 -513.999762 
L 520.456729 -513.999762 
L 519.006549 -513.999762 
L 517.55637 -513.999762 
L 516.106191 -513.999762 
L 514.656011 -513.999762 
L 513.205832 -513.999762 
L 511.755653 -513.999762 
L 510.305473 -513.999762 
L 508.855294 -513.999762 
L 507.405115 -513.999762 
L 505.954935 -513.999762 
L 504.504756 -513.999762 
L 503.054577 -513.999762 
L 501.604397 -513.999762 
L 500.154218 -513.999762 
L 498.704039 -513.999762 
L 497.253859 -513.999762 
L 495.80368 -513.999762 
L 494.353501 -513.999762 
L 492.903321 -513.999762 
L 491.453142 -513.999762 
L 490.002963 -513.999762 
L 488.552783 -513.999762 
L 487.102604 -513.999762 
L 485.652425 -513.999762 
L 484.202245 -513.999762 
L 482.752066 -513.999762 
L 481.301887 -513.999762 
L 479.851707 -513.999762 
L 478.401528 -513.999762 
L 476.951349 -513.999762 
L 475.501169 -513.999762 
L 474.05099 -513.999762 
L 472.600811 -513.999762 
L 471.150632 -513.999762 
L 469.700452 -513.999762 
L 468.250273 -513.999762 
L 466.800094 -513.999762 
L 465.349914 -513.999762 
L 463.899735 -513.999762 
L 462.449556 -513.999762 
L 460.999376 -513.999762 
L 459.549197 -513.999762 
L 458.099018 -513.999762 
L 456.648838 -513.999762 
L 455.198659 -513.999762 
L 453.74848 -513.997943 
L 452.2983 -513.987904 
L 450.848121 -513.939542 
L 449.397942 -513.761586 
L 447.947762 -513.266129 
L 446.497583 -512.239868 
L 445.047404 -510.711847 
L 443.597224 -509.219612 
L 442.147045 -513.236393 
L 440.696866 -509.349096 
L 439.246686 -511.253466 
L 437.796507 -513.972106 
L 436.346328 -517.652803 
L 434.896148 -522.634441 
L 433.445969 -528.475335 
L 431.99579 -543.346037 
L 430.54561 -548.350945 
L 429.095431 -547.059066 
L 427.645252 -544.088528 
L 426.195073 -540.673663 
L 424.744893 -536.881482 
L 423.294714 -530.158766 
L 421.844535 -520.540777 
L 420.394355 -517.320035 
L 418.944176 -515.382245 
L 417.493997 -514.465739 
L 416.043817 -514.122018 
L 414.593638 -514.01311 
L 413.143459 -513.970497 
L 411.693279 -513.93667 
L 410.2431 -513.906517 
L 408.792921 -514.243173 
L 407.342741 -513.893555 
L 405.892562 -513.902596 
z
" style="stroke: #1f77b4; stroke-opacity: 0.2"/>
    </defs>
    <g clip-path="url(#p80e7a0ae88)">
     <use xlink:href="#m562645c76c" x="0" y="720" style="fill: #1f77b4; fill-opacity: 0.2; stroke: #1f77b4; stroke-opacity: 0.2"/>
    </g>
   </g>
   <g id="PolyCollection_3">
    <defs>
     <path id="mf0261abbb8" d="M 405.892562 -513.246498 
L 405.892562 -513.246498 
L 407.342741 -512.321776 
L 408.792921 -510.225816 
L 410.2431 -506.740495 
L 411.693279 -499.199597 
L 413.143459 -491.696847 
L 414.593638 -486.755127 
L 416.043817 -479.570385 
L 417.493997 -479.117521 
L 418.944176 -482.80468 
L 420.394355 -488.058304 
L 421.844535 -496.7348 
L 423.294714 -505.737673 
L 424.744893 -509.983443 
L 426.195073 -512.381271 
L 427.645252 -513.46564 
L 429.095431 -513.85719 
L 430.54561 -513.96946 
L 431.99579 -513.994672 
L 433.445969 -513.999304 
L 434.896148 -513.999762 
L 436.346328 -513.999762 
L 437.796507 -513.999762 
L 439.246686 -513.999762 
L 440.696866 -513.999762 
L 442.147045 -513.999762 
L 443.597224 -513.999762 
L 445.047404 -513.999762 
L 446.497583 -513.999762 
L 447.947762 -513.999762 
L 449.397942 -513.999762 
L 450.848121 -513.999762 
L 452.2983 -513.999762 
L 453.74848 -513.999762 
L 455.198659 -513.999762 
L 456.648838 -513.999762 
L 458.099018 -513.999762 
L 459.549197 -513.999762 
L 460.999376 -513.999762 
L 462.449556 -513.999762 
L 463.899735 -513.999762 
L 465.349914 -513.999762 
L 466.800094 -513.999762 
L 468.250273 -513.999762 
L 469.700452 -513.999762 
L 471.150632 -513.999762 
L 472.600811 -513.999762 
L 474.05099 -513.999762 
L 475.501169 -513.999762 
L 476.951349 -513.999762 
L 478.401528 -513.999762 
L 479.851707 -513.999762 
L 481.301887 -513.999762 
L 482.752066 -513.999762 
L 484.202245 -513.999762 
L 485.652425 -513.999762 
L 487.102604 -513.999762 
L 488.552783 -513.999762 
L 490.002963 -513.999762 
L 491.453142 -513.999762 
L 492.903321 -513.999762 
L 494.353501 -513.999762 
L 495.80368 -513.999762 
L 497.253859 -513.999762 
L 498.704039 -513.999762 
L 500.154218 -513.999762 
L 501.604397 -513.999762 
L 503.054577 -513.999762 
L 504.504756 -513.999762 
L 505.954935 -513.999762 
L 507.405115 -513.998323 
L 508.855294 -513.990382 
L 510.305473 -513.952127 
L 511.755653 -513.811363 
L 513.205832 -513.419454 
L 514.656011 -512.605094 
L 516.106191 -511.38217 
L 517.55637 -510.127922 
L 519.006549 -505.131008 
L 520.456729 -509.079274 
L 521.906908 -508.500735 
L 523.357087 -506.613132 
L 524.807266 -503.137351 
L 526.257446 -493.192743 
L 527.707625 -494.845763 
L 529.157804 -487.915091 
L 530.607984 -489.000098 
L 532.058163 -495.210684 
L 533.508342 -494.134513 
L 534.958522 -504.238345 
L 536.408701 -508.017888 
L 537.85888 -509.854935 
L 539.30906 -509.277332 
L 540.759239 -506.53748 
L 542.209418 -499.571723 
L 543.659598 -496.50476 
L 545.109777 -497.354021 
L 546.559956 -501.992329 
L 548.010136 -504.775131 
L 549.460315 -506.419411 
L 550.910494 -506.742064 
L 552.360674 -503.356552 
L 553.810853 -507.981095 
L 555.261032 -509.67146 
L 556.711212 -510.93358 
L 558.161391 -510.904351 
L 559.61157 -509.588862 
L 561.06175 -507.88601 
L 562.511929 -501.952283 
L 563.962108 -507.049151 
L 565.412288 -507.167527 
L 566.862467 -505.757377 
L 568.312646 -502.504121 
L 569.762826 -494.312681 
L 571.213005 -492.304941 
L 572.663184 -500.513284 
L 574.113363 -504.999905 
L 575.563543 -509.292645 
L 577.013722 -512.072912 
L 578.463901 -513.383148 
L 579.914081 -513.845618 
L 581.36426 -513.969679 
L 582.814439 -513.995294 
L 584.264619 -513.999762 
L 585.714798 -513.999762 
L 587.164977 -513.999762 
L 588.615157 -513.999762 
L 590.065336 -513.999762 
L 591.515515 -513.999762 
L 592.965695 -513.999762 
L 594.415874 -513.999762 
L 595.866053 -513.999762 
L 597.316233 -513.999762 
L 598.766412 -513.999762 
L 600.216591 -513.999762 
L 601.666771 -513.999762 
L 603.11695 -513.999762 
L 604.567129 -513.999762 
L 606.017309 -513.997271 
L 607.467488 -513.98352 
L 608.917667 -513.917277 
L 610.367847 -513.670116 
L 611.818026 -512.97264 
L 613.268205 -511.476203 
L 614.718385 -509.049325 
L 616.168564 -506.070574 
L 617.618743 -495.373299 
L 619.068923 -501.277655 
L 620.519102 -500.519636 
L 621.969281 -492.107091 
L 623.41946 -504.018283 
L 624.86964 -507.504002 
L 626.319819 -510.614968 
L 627.769998 -512.606912 
L 629.220178 -513.550352 
L 630.670357 -513.886763 
L 632.120536 -513.977511 
L 633.570716 -513.99635 
L 635.020895 -513.999762 
L 636.471074 -513.999762 
L 636.471074 -513.999762 
L 636.471074 -513.999762 
L 635.020895 -513.999762 
L 633.570716 -513.99635 
L 632.120536 -513.977511 
L 630.670357 -513.886763 
L 629.220178 -513.550352 
L 627.769998 -512.606912 
L 626.319819 -510.614968 
L 624.86964 -507.504002 
L 623.41946 -504.018283 
L 621.969281 -510.727655 
L 620.519102 -500.519636 
L 619.068923 -501.277655 
L 617.618743 -511.171513 
L 616.168564 -506.070574 
L 614.718385 -509.049325 
L 613.268205 -511.476203 
L 611.818026 -512.97264 
L 610.367847 -513.670116 
L 608.917667 -513.917277 
L 607.467488 -513.98352 
L 606.017309 -513.997271 
L 604.567129 -513.999762 
L 603.11695 -513.999762 
L 601.666771 -513.999762 
L 600.216591 -513.999762 
L 598.766412 -513.999762 
L 597.316233 -513.999762 
L 595.866053 -513.999762 
L 594.415874 -513.999762 
L 592.965695 -513.999762 
L 591.515515 -513.999762 
L 590.065336 -513.999762 
L 588.615157 -513.999762 
L 587.164977 -513.999762 
L 585.714798 -513.999762 
L 584.264619 -513.999762 
L 582.814439 -513.995294 
L 581.36426 -513.969679 
L 579.914081 -513.845618 
L 578.463901 -513.383148 
L 577.013722 -512.072912 
L 575.563543 -509.292645 
L 574.113363 -504.999905 
L 572.663184 -500.513284 
L 571.213005 -503.906752 
L 569.762826 -503.91777 
L 568.312646 -502.504121 
L 566.862467 -505.757377 
L 565.412288 -507.167527 
L 563.962108 -507.049151 
L 562.511929 -511.921611 
L 561.06175 -507.88601 
L 559.61157 -509.588862 
L 558.161391 -510.904351 
L 556.711212 -510.93358 
L 555.261032 -509.67146 
L 553.810853 -507.981095 
L 552.360674 -510.501391 
L 550.910494 -506.742064 
L 549.460315 -506.419411 
L 548.010136 -504.775131 
L 546.559956 -501.992329 
L 545.109777 -502.310958 
L 543.659598 -503.638889 
L 542.209418 -506.083582 
L 540.759239 -506.53748 
L 539.30906 -509.277332 
L 537.85888 -509.854935 
L 536.408701 -508.017888 
L 534.958522 -504.238345 
L 533.508342 -504.913719 
L 532.058163 -495.210684 
L 530.607984 -496.213492 
L 529.157804 -497.099578 
L 527.707625 -494.845763 
L 526.257446 -504.403379 
L 524.807266 -503.137351 
L 523.357087 -506.613132 
L 521.906908 -508.500735 
L 520.456729 -509.079274 
L 519.006549 -513.580782 
L 517.55637 -510.127922 
L 516.106191 -511.38217 
L 514.656011 -512.605094 
L 513.205832 -513.419454 
L 511.755653 -513.811363 
L 510.305473 -513.952127 
L 508.855294 -513.990382 
L 507.405115 -513.998323 
L 505.954935 -513.999762 
L 504.504756 -513.999762 
L 503.054577 -513.999762 
L 501.604397 -513.999762 
L 500.154218 -513.999762 
L 498.704039 -513.999762 
L 497.253859 -513.999762 
L 495.80368 -513.999762 
L 494.353501 -513.999762 
L 492.903321 -513.999762 
L 491.453142 -513.999762 
L 490.002963 -513.999762 
L 488.552783 -513.999762 
L 487.102604 -513.999762 
L 485.652425 -513.999762 
L 484.202245 -513.999762 
L 482.752066 -513.999762 
L 481.301887 -513.999762 
L 479.851707 -513.999762 
L 478.401528 -513.999762 
L 476.951349 -513.999762 
L 475.501169 -513.999762 
L 474.05099 -513.999762 
L 472.600811 -513.999762 
L 471.150632 -513.999762 
L 469.700452 -513.999762 
L 468.250273 -513.999762 
L 466.800094 -513.999762 
L 465.349914 -513.999762 
L 463.899735 -513.999762 
L 462.449556 -513.999762 
L 460.999376 -513.999762 
L 459.549197 -513.999762 
L 458.099018 -513.999762 
L 456.648838 -513.999762 
L 455.198659 -513.999762 
L 453.74848 -513.999762 
L 452.2983 -513.999762 
L 450.848121 -513.999762 
L 449.397942 -513.999762 
L 447.947762 -513.999762 
L 446.497583 -513.999762 
L 445.047404 -513.999762 
L 443.597224 -513.999762 
L 442.147045 -513.999762 
L 440.696866 -513.999762 
L 439.246686 -513.999762 
L 437.796507 -513.999762 
L 436.346328 -513.999762 
L 434.896148 -513.999762 
L 433.445969 -513.999304 
L 431.99579 -513.994672 
L 430.54561 -513.96946 
L 429.095431 -513.85719 
L 427.645252 -513.46564 
L 426.195073 -512.381271 
L 424.744893 -509.983443 
L 423.294714 -505.737673 
L 421.844535 -502.695051 
L 420.394355 -497.891456 
L 418.944176 -491.993518 
L 417.493997 -490.604865 
L 416.043817 -492.710091 
L 414.593638 -494.184198 
L 413.143459 -500.736985 
L 411.693279 -504.661314 
L 410.2431 -506.740495 
L 408.792921 -510.225816 
L 407.342741 -512.321776 
L 405.892562 -513.246498 
z
" style="stroke: #d62728; stroke-opacity: 0.2"/>
    </defs>
    <g clip-path="url(#p80e7a0ae88)">
     <use xlink:href="#mf0261abbb8" x="0" y="720" style="fill: #d62728; fill-opacity: 0.2; stroke: #d62728; stroke-opacity: 0.2"/>
    </g>
   </g>
   <g id="PolyCollection_4">
    <defs>
     <path id="m8b3c75c672" d="M 405.892562 -504.629584 
L 405.892562 -494.69986 
L 407.342741 -493.735775 
L 408.792921 -501.790494 
L 410.2431 -496.720382 
L 411.693279 -506.834893 
L 413.143459 -509.65514 
L 414.593638 -511.840599 
L 416.043817 -513.138299 
L 417.493997 -513.727249 
L 418.944176 -513.93199 
L 420.394355 -513.986684 
L 421.844535 -513.994546 
L 423.294714 -513.973939 
L 424.744893 -513.856255 
L 426.195073 -513.379324 
L 427.645252 -511.861896 
L 429.095431 -508.079368 
L 430.54561 -500.702797 
L 431.99579 -489.480511 
L 433.445969 -469.014373 
L 434.896148 -457.282118 
L 436.346328 -449.894909 
L 437.796507 -448.501763 
L 439.246686 -448.11589 
L 440.696866 -454.776932 
L 442.147045 -466.723916 
L 443.597224 -460.40735 
L 445.047404 -467.363401 
L 446.497583 -472.81541 
L 447.947762 -489.95998 
L 449.397942 -499.613141 
L 450.848121 -507.018272 
L 452.2983 -511.289515 
L 453.74848 -513.165266 
L 455.198659 -513.796735 
L 456.648838 -513.961345 
L 458.099018 -513.994343 
L 459.549197 -513.999762 
L 460.999376 -513.999762 
L 462.449556 -513.995106 
L 463.899735 -513.962341 
L 465.349914 -513.794962 
L 466.800094 -513.121944 
L 468.250273 -511.012643 
L 469.700452 -505.875206 
L 471.150632 -496.194948 
L 472.600811 -482.25319 
L 474.05099 -461.604227 
L 475.501169 -450.660248 
L 476.951349 -446.818805 
L 478.401528 -452.831692 
L 479.851707 -460.899339 
L 481.301887 -480.467338 
L 482.752066 -481.918991 
L 484.202245 -490.262821 
L 485.652425 -486.737487 
L 487.102604 -473.662062 
L 488.552783 -463.391797 
L 490.002963 -463.828198 
L 491.453142 -447.398742 
L 492.903321 -438.151954 
L 494.353501 -426.33327 
L 495.80368 -419.797915 
L 497.253859 -417.563684 
L 498.704039 -415.152887 
L 500.154218 -412.410589 
L 501.604397 -413.376315 
L 503.054577 -406.301762 
L 504.504756 -403.938637 
L 505.954935 -400.493407 
L 507.405115 -397.740496 
L 508.855294 -404.039102 
L 510.305473 -411.190709 
L 511.755653 -423.314463 
L 513.205832 -434.826546 
L 514.656011 -448.437801 
L 516.106191 -459.999234 
L 517.55637 -481.843062 
L 519.006549 -490.322923 
L 520.456729 -493.756172 
L 521.906908 -488.486451 
L 523.357087 -489.13514 
L 524.807266 -494.873971 
L 526.257446 -504.808277 
L 527.707625 -511.619217 
L 529.157804 -518.109536 
L 530.607984 -523.100083 
L 532.058163 -520.253525 
L 533.508342 -525.195096 
L 534.958522 -523.290728 
L 536.408701 -521.248394 
L 537.85888 -513.430974 
L 539.30906 -518.086527 
L 540.759239 -516.59343 
L 542.209418 -515.345692 
L 543.659598 -514.554333 
L 545.109777 -514.178577 
L 546.559956 -514.044974 
L 548.010136 -514.008665 
L 549.460315 -514.001127 
L 550.910494 -513.999762 
L 552.360674 -513.997312 
L 553.810853 -513.98379 
L 555.261032 -513.918649 
L 556.711212 -513.674211 
L 558.161391 -512.980677 
L 559.61157 -511.472227 
L 561.06175 -508.942612 
L 562.511929 -505.587716 
L 563.962108 -492.537712 
L 565.412288 -497.78241 
L 566.862467 -493.193267 
L 568.312646 -479.977127 
L 569.762826 -480.291704 
L 571.213005 -472.749117 
L 572.663184 -460.193496 
L 574.113363 -463.466154 
L 575.563543 -481.040011 
L 577.013722 -493.504309 
L 578.463901 -503.429929 
L 579.914081 -508.35631 
L 581.36426 -508.571308 
L 582.814439 -505.646774 
L 584.264619 -501.601142 
L 585.714798 -488.525292 
L 587.164977 -494.926033 
L 588.615157 -490.390162 
L 590.065336 -482.820959 
L 591.515515 -464.802059 
L 592.965695 -460.361993 
L 594.415874 -441.353807 
L 595.866053 -432.959397 
L 597.316233 -425.711349 
L 598.766412 -429.652151 
L 600.216591 -438.123488 
L 601.666771 -449.511682 
L 603.11695 -464.362515 
L 604.567129 -481.701991 
L 606.017309 -489.822881 
L 607.467488 -493.542548 
L 608.917667 -489.267119 
L 610.367847 -499.209475 
L 611.818026 -503.708546 
L 613.268205 -507.06648 
L 614.718385 -507.115947 
L 616.168564 -503.086077 
L 617.618743 -495.955222 
L 619.068923 -479.780782 
L 620.519102 -472.098752 
L 621.969281 -480.473025 
L 623.41946 -476.845019 
L 624.86964 -479.381174 
L 626.319819 -492.930437 
L 627.769998 -498.947352 
L 629.220178 -499.783845 
L 630.670357 -507.565059 
L 632.120536 -510.319434 
L 633.570716 -512.202946 
L 635.020895 -513.272584 
L 636.471074 -513.715898 
L 636.471074 -513.715898 
L 636.471074 -513.715898 
L 635.020895 -513.272584 
L 633.570716 -512.202946 
L 632.120536 -510.319434 
L 630.670357 -507.565059 
L 629.220178 -507.923678 
L 627.769998 -498.947352 
L 626.319819 -492.930437 
L 624.86964 -494.226627 
L 623.41946 -487.520269 
L 621.969281 -480.473025 
L 620.519102 -492.897891 
L 619.068923 -496.579961 
L 617.618743 -495.955222 
L 616.168564 -503.086077 
L 614.718385 -507.115947 
L 613.268205 -507.06648 
L 611.818026 -503.708546 
L 610.367847 -499.209475 
L 608.917667 -502.308522 
L 607.467488 -493.542548 
L 606.017309 -489.822881 
L 604.567129 -481.701991 
L 603.11695 -473.67484 
L 601.666771 -459.73355 
L 600.216591 -446.307003 
L 598.766412 -439.634882 
L 597.316233 -441.19994 
L 595.866053 -444.289652 
L 594.415874 -455.49397 
L 592.965695 -460.361993 
L 591.515515 -479.92472 
L 590.065336 -482.820959 
L 588.615157 -490.390162 
L 587.164977 -494.926033 
L 585.714798 -507.581451 
L 584.264619 -501.601142 
L 582.814439 -505.646774 
L 581.36426 -508.571308 
L 579.914081 -508.35631 
L 578.463901 -503.429929 
L 577.013722 -493.504309 
L 575.563543 -481.040011 
L 574.113363 -478.936902 
L 572.663184 -476.695048 
L 571.213005 -472.749117 
L 569.762826 -480.291704 
L 568.312646 -494.996296 
L 566.862467 -493.193267 
L 565.412288 -497.78241 
L 563.962108 -511.099222 
L 562.511929 -505.587716 
L 561.06175 -508.942612 
L 559.61157 -511.472227 
L 558.161391 -512.980677 
L 556.711212 -513.674211 
L 555.261032 -513.918649 
L 553.810853 -513.98379 
L 552.360674 -513.997312 
L 550.910494 -513.999762 
L 549.460315 -514.001127 
L 548.010136 -514.008665 
L 546.559956 -514.044974 
L 545.109777 -514.178577 
L 543.659598 -514.554333 
L 542.209418 -515.345692 
L 540.759239 -516.59343 
L 539.30906 -518.086527 
L 537.85888 -525.758591 
L 536.408701 -521.248394 
L 534.958522 -523.290728 
L 533.508342 -525.195096 
L 532.058163 -530.780764 
L 530.607984 -523.100083 
L 529.157804 -518.109536 
L 527.707625 -511.619217 
L 526.257446 -504.808277 
L 524.807266 -503.020711 
L 523.357087 -501.583607 
L 521.906908 -500.099968 
L 520.456729 -493.756172 
L 519.006549 -490.322923 
L 517.55637 -481.843062 
L 516.106191 -478.457842 
L 514.656011 -462.011361 
L 513.205832 -448.683092 
L 511.755653 -434.94612 
L 510.305473 -424.014635 
L 508.855294 -413.268858 
L 507.405115 -410.755938 
L 505.954935 -409.778164 
L 504.504756 -416.053688 
L 503.054577 -425.636424 
L 501.604397 -427.063886 
L 500.154218 -431.001366 
L 498.704039 -428.449448 
L 497.253859 -428.682823 
L 495.80368 -435.401509 
L 494.353501 -444.427686 
L 492.903321 -452.060766 
L 491.453142 -462.511991 
L 490.002963 -463.828198 
L 488.552783 -480.457908 
L 487.102604 -485.984571 
L 485.652425 -486.737487 
L 484.202245 -490.262821 
L 482.752066 -494.496736 
L 481.301887 -480.467338 
L 479.851707 -477.894743 
L 478.401528 -465.221344 
L 476.951349 -460.690359 
L 475.501169 -462.530481 
L 474.05099 -473.09517 
L 472.600811 -482.25319 
L 471.150632 -496.194948 
L 469.700452 -505.875206 
L 468.250273 -511.012643 
L 466.800094 -513.121944 
L 465.349914 -513.794962 
L 463.899735 -513.962341 
L 462.449556 -513.995106 
L 460.999376 -513.999762 
L 459.549197 -513.999762 
L 458.099018 -513.994343 
L 456.648838 -513.961345 
L 455.198659 -513.796735 
L 453.74848 -513.165266 
L 452.2983 -511.289515 
L 450.848121 -507.018272 
L 449.397942 -499.613141 
L 447.947762 -489.95998 
L 446.497583 -488.505902 
L 445.047404 -480.75733 
L 443.597224 -479.779844 
L 442.147045 -466.723916 
L 440.696866 -470.224275 
L 439.246686 -468.082025 
L 437.796507 -462.82157 
L 436.346328 -464.970483 
L 434.896148 -471.923447 
L 433.445969 -483.564263 
L 431.99579 -489.480511 
L 430.54561 -500.702797 
L 429.095431 -508.079368 
L 427.645252 -511.861896 
L 426.195073 -513.379324 
L 424.744893 -513.856255 
L 423.294714 -513.973939 
L 421.844535 -513.994546 
L 420.394355 -513.986684 
L 418.944176 -513.93199 
L 417.493997 -513.727249 
L 416.043817 -513.138299 
L 414.593638 -511.840599 
L 413.143459 -509.65514 
L 411.693279 -506.834893 
L 410.2431 -511.31858 
L 408.792921 -501.790494 
L 407.342741 -506.972504 
L 405.892562 -504.629584 
z
" style="stroke: #ff7f0e; stroke-opacity: 0.2"/>
    </defs>
    <g clip-path="url(#p80e7a0ae88)">
     <use xlink:href="#m8b3c75c672" x="0" y="720" style="fill: #ff7f0e; fill-opacity: 0.2; stroke: #ff7f0e; stroke-opacity: 0.2"/>
    </g>
   </g>
   <g id="matplotlib.axis_3">
    <g id="xtick_7">
     <g id="line2d_13">
      <g>
       <use xlink:href="#ma044f9d29d" x="405.863558" y="333.490909" style="stroke: #000000; stroke-width: 0.8"/>
      </g>
     </g>
     <g id="text_13">
      <!-- 0 -->
      <g transform="translate(402.682308 348.089347)scale(0.1 -0.1)">
       <use xlink:href="#DejaVuSans-30"/>
      </g>
     </g>
    </g>
    <g id="xtick_8">
     <g id="line2d_14">
      <g>
       <use xlink:href="#ma044f9d29d" x="463.870731" y="333.490909" style="stroke: #000000; stroke-width: 0.8"/>
      </g>
     </g>
     <g id="text_14">
      <!-- 2000 -->
      <g transform="translate(451.145731 348.089347)scale(0.1 -0.1)">
       <use xlink:href="#DejaVuSans-32"/>
       <use xlink:href="#DejaVuSans-30" x="63.623047"/>
       <use xlink:href="#DejaVuSans-30" x="127.246094"/>
       <use xlink:href="#DejaVuSans-30" x="190.869141"/>
      </g>
     </g>
    </g>
    <g id="xtick_9">
     <g id="line2d_15">
      <g>
       <use xlink:href="#ma044f9d29d" x="521.877904" y="333.490909" style="stroke: #000000; stroke-width: 0.8"/>
      </g>
     </g>
     <g id="text_15">
      <!-- 4000 -->
      <g transform="translate(509.152904 348.089347)scale(0.1 -0.1)">
       <use xlink:href="#DejaVuSans-34"/>
       <use xlink:href="#DejaVuSans-30" x="63.623047"/>
       <use xlink:href="#DejaVuSans-30" x="127.246094"/>
       <use xlink:href="#DejaVuSans-30" x="190.869141"/>
      </g>
     </g>
    </g>
    <g id="xtick_10">
     <g id="line2d_16">
      <g>
       <use xlink:href="#ma044f9d29d" x="579.885077" y="333.490909" style="stroke: #000000; stroke-width: 0.8"/>
      </g>
     </g>
     <g id="text_16">
      <!-- 6000 -->
      <g transform="translate(567.160077 348.089347)scale(0.1 -0.1)">
       <use xlink:href="#DejaVuSans-36"/>
       <use xlink:href="#DejaVuSans-30" x="63.623047"/>
       <use xlink:href="#DejaVuSans-30" x="127.246094"/>
       <use xlink:href="#DejaVuSans-30" x="190.869141"/>
      </g>
     </g>
    </g>
    <g id="xtick_11">
     <g id="line2d_17">
      <g>
       <use xlink:href="#ma044f9d29d" x="637.89225" y="333.490909" style="stroke: #000000; stroke-width: 0.8"/>
      </g>
     </g>
     <g id="text_17">
      <!-- 8000 -->
      <g transform="translate(625.16725 348.089347)scale(0.1 -0.1)">
       <use xlink:href="#DejaVuSans-38"/>
       <use xlink:href="#DejaVuSans-30" x="63.623047"/>
       <use xlink:href="#DejaVuSans-30" x="127.246094"/>
       <use xlink:href="#DejaVuSans-30" x="190.869141"/>
      </g>
     </g>
    </g>
   </g>
   <g id="matplotlib.axis_4">
    <g id="ytick_7">
     <g id="line2d_18">
      <g>
       <use xlink:href="#mb718fa5f90" x="394.363636" y="307.227233" style="stroke: #000000; stroke-width: 0.8"/>
      </g>
     </g>
     <g id="text_18">
      <!-- −0.6 -->
      <g transform="translate(363.080824 311.026452)scale(0.1 -0.1)">
       <defs>
        <path id="DejaVuSans-2212" d="M 678 2272 
L 4684 2272 
L 4684 1741 
L 678 1741 
L 678 2272 
z
" transform="scale(0.015625)"/>
       </defs>
       <use xlink:href="#DejaVuSans-2212"/>
       <use xlink:href="#DejaVuSans-30" x="83.789062"/>
       <use xlink:href="#DejaVuSans-2e" x="147.412109"/>
       <use xlink:href="#DejaVuSans-36" x="179.199219"/>
      </g>
     </g>
    </g>
    <g id="ytick_8">
     <g id="line2d_19">
      <g>
       <use xlink:href="#mb718fa5f90" x="394.363636" y="273.484902" style="stroke: #000000; stroke-width: 0.8"/>
      </g>
     </g>
     <g id="text_19">
      <!-- −0.4 -->
      <g transform="translate(363.080824 277.28412)scale(0.1 -0.1)">
       <use xlink:href="#DejaVuSans-2212"/>
       <use xlink:href="#DejaVuSans-30" x="83.789062"/>
       <use xlink:href="#DejaVuSans-2e" x="147.412109"/>
       <use xlink:href="#DejaVuSans-34" x="179.199219"/>
      </g>
     </g>
    </g>
    <g id="ytick_9">
     <g id="line2d_20">
      <g>
       <use xlink:href="#mb718fa5f90" x="394.363636" y="239.74257" style="stroke: #000000; stroke-width: 0.8"/>
      </g>
     </g>
     <g id="text_20">
      <!-- −0.2 -->
      <g transform="translate(363.080824 243.541789)scale(0.1 -0.1)">
       <use xlink:href="#DejaVuSans-2212"/>
       <use xlink:href="#DejaVuSans-30" x="83.789062"/>
       <use xlink:href="#DejaVuSans-2e" x="147.412109"/>
       <use xlink:href="#DejaVuSans-32" x="179.199219"/>
      </g>
     </g>
    </g>
    <g id="ytick_10">
     <g id="line2d_21">
      <g>
       <use xlink:href="#mb718fa5f90" x="394.363636" y="206.000238" style="stroke: #000000; stroke-width: 0.8"/>
      </g>
     </g>
     <g id="text_21">
      <!-- 0.0 -->
      <g transform="translate(371.460511 209.799457)scale(0.1 -0.1)">
       <use xlink:href="#DejaVuSans-30"/>
       <use xlink:href="#DejaVuSans-2e" x="63.623047"/>
       <use xlink:href="#DejaVuSans-30" x="95.410156"/>
      </g>
     </g>
    </g>
    <g id="ytick_11">
     <g id="line2d_22">
      <g>
       <use xlink:href="#mb718fa5f90" x="394.363636" y="172.257906" style="stroke: #000000; stroke-width: 0.8"/>
      </g>
     </g>
     <g id="text_22">
      <!-- 0.2 -->
      <g transform="translate(371.460511 176.057125)scale(0.1 -0.1)">
       <use xlink:href="#DejaVuSans-30"/>
       <use xlink:href="#DejaVuSans-2e" x="63.623047"/>
       <use xlink:href="#DejaVuSans-32" x="95.410156"/>
      </g>
     </g>
    </g>
    <g id="ytick_12">
     <g id="line2d_23">
      <g>
       <use xlink:href="#mb718fa5f90" x="394.363636" y="138.515575" style="stroke: #000000; stroke-width: 0.8"/>
      </g>
     </g>
     <g id="text_23">
      <!-- 0.4 -->
      <g transform="translate(371.460511 142.314793)scale(0.1 -0.1)">
       <use xlink:href="#DejaVuSans-30"/>
       <use xlink:href="#DejaVuSans-2e" x="63.623047"/>
       <use xlink:href="#DejaVuSans-34" x="95.410156"/>
      </g>
     </g>
    </g>
    <g id="ytick_13">
     <g id="line2d_24">
      <g>
       <use xlink:href="#mb718fa5f90" x="394.363636" y="104.773243" style="stroke: #000000; stroke-width: 0.8"/>
      </g>
     </g>
     <g id="text_24">
      <!-- 0.6 -->
      <g transform="translate(371.460511 108.572462)scale(0.1 -0.1)">
       <use xlink:href="#DejaVuSans-30"/>
       <use xlink:href="#DejaVuSans-2e" x="63.623047"/>
       <use xlink:href="#DejaVuSans-36" x="95.410156"/>
      </g>
     </g>
    </g>
   </g>
   <g id="line2d_25">
    <path d="M 405.892562 206.000238 
L 437.796507 205.951009 
L 439.246686 205.735044 
L 440.696866 204.879636 
L 442.147045 202.246571 
L 443.597224 195.948866 
L 445.047404 184.248868 
L 446.497583 167.364363 
L 447.947762 148.395893 
L 449.397942 131.7007 
L 450.848121 120.104122 
L 452.2983 113.904177 
L 453.74848 111.97068 
L 455.198659 112.951723 
L 456.648838 115.794372 
L 458.099018 119.943126 
L 460.999376 130.184119 
L 462.449556 133.846264 
L 463.899735 134.649962 
L 465.349914 132.443994 
L 466.800094 128.664287 
L 468.250273 126.023958 
L 469.700452 127.773716 
L 471.150632 136.311932 
L 472.600811 151.295542 
L 474.05099 168.905976 
L 475.501169 183.653177 
L 476.951349 191.439006 
L 478.401528 191.190885 
L 479.851707 184.378635 
L 482.752066 163.34921 
L 484.202245 156.4741 
L 485.652425 155.261107 
L 487.102604 158.786258 
L 488.552783 164.751304 
L 490.002963 172.120784 
L 494.353501 197.901458 
L 495.80368 202.68837 
L 497.253859 204.935274 
L 498.704039 205.732816 
L 500.154218 205.94758 
L 504.504756 206.000238 
L 508.855294 205.917886 
L 510.305473 205.667387 
L 511.755653 204.938708 
L 513.205832 203.310282 
L 514.656011 200.532796 
L 516.106191 196.985438 
L 517.55637 193.806894 
L 519.006549 192.370071 
L 520.456729 193.415284 
L 521.906908 196.531419 
L 523.357087 200.43043 
L 524.807266 203.800715 
L 526.257446 205.975405 
L 527.707625 206.954692 
L 529.157804 207.083568 
L 533.508342 206.18088 
L 537.85888 205.837164 
L 539.30906 205.300916 
L 540.759239 203.656659 
L 542.209418 199.67908 
L 543.659598 192.112093 
L 545.109777 180.789447 
L 546.559956 167.573978 
L 548.010136 155.868942 
L 549.460315 148.460305 
L 550.910494 145.342309 
L 552.360674 143.932166 
L 555.261032 139.784205 
L 556.711212 140.074252 
L 558.161391 144.863142 
L 561.06175 162.823138 
L 562.511929 168.638871 
L 563.962108 169.867594 
L 565.412288 169.618322 
L 566.862467 172.243985 
L 568.312646 178.425713 
L 569.762826 183.574774 
L 571.213005 181.000899 
L 572.663184 166.938523 
L 575.563543 122.868512 
L 577.013722 113.166952 
L 578.463901 118.796856 
L 581.36426 150.000649 
L 582.814439 161.517365 
L 584.264619 167.073294 
L 585.714798 165.979981 
L 587.164977 158.994136 
L 588.615157 150.521137 
L 590.065336 146.738684 
L 591.515515 150.998073 
L 592.965695 162.03663 
L 594.415874 175.906654 
L 595.866053 188.554241 
L 597.316233 197.365564 
L 598.766412 201.471154 
L 600.216591 200.772693 
L 601.666771 194.804157 
L 603.11695 183.141731 
L 607.467488 135.179574 
L 608.917667 123.605809 
L 610.367847 116.222247 
L 611.818026 115.61647 
L 613.268205 124.487867 
L 614.718385 142.096221 
L 616.168564 163.436871 
L 617.618743 182.219855 
L 619.068923 194.464656 
L 620.519102 199.437824 
L 621.969281 198.13063 
L 623.41946 192.016628 
L 624.86964 183.392309 
L 626.319819 175.486713 
L 627.769998 170.592914 
L 630.670357 165.699667 
L 632.120536 161.837965 
L 633.570716 157.246907 
L 635.020895 153.427994 
L 636.471074 151.357992 
L 636.471074 151.357992 
" clip-path="url(#p80e7a0ae88)" style="fill: none; stroke: #9467bd; stroke-width: 2; stroke-linecap: square"/>
   </g>
   <g id="line2d_26">
    <path d="M 405.892562 206.097404 
L 411.693279 206.06333 
L 416.043817 205.877982 
L 417.493997 205.534261 
L 418.944176 204.617755 
L 420.394355 202.679965 
L 421.844535 199.459223 
L 426.195073 186.941888 
L 427.645252 184.127688 
L 429.095431 182.682517 
L 430.54561 183.226308 
L 431.99579 186.310755 
L 433.445969 191.524665 
L 434.896148 197.365559 
L 436.346328 202.347197 
L 437.796507 206.027894 
L 439.246686 208.746534 
L 440.696866 210.650904 
L 442.147045 211.395554 
L 443.597224 210.780388 
L 446.497583 207.760132 
L 447.947762 206.733871 
L 449.397942 206.238414 
L 450.848121 206.060458 
L 455.198659 206.000238 
L 526.257446 205.972438 
L 527.707625 205.864294 
L 529.157804 205.479774 
L 530.607984 204.423584 
L 532.058163 202.208892 
L 533.508342 198.722913 
L 534.958522 194.757254 
L 536.408701 191.869148 
L 537.85888 191.386719 
L 539.30906 193.46015 
L 542.209418 200.717064 
L 543.659598 203.446861 
L 545.109777 205.002159 
L 546.559956 205.688095 
L 548.010136 205.922794 
L 552.360674 206.000215 
L 569.762826 206.045748 
L 571.213005 206.240958 
L 572.663184 207.004146 
L 574.113363 209.295948 
L 575.563543 214.557721 
L 577.013722 223.642603 
L 578.463901 235.073329 
L 579.914081 244.727164 
L 581.36426 248.535041 
L 582.814439 245.84651 
L 584.264619 239.427426 
L 587.164977 225.626874 
L 588.615157 219.390721 
L 590.065336 213.918881 
L 591.515515 209.886721 
L 592.965695 207.541827 
L 594.415874 206.496574 
L 595.866053 206.180059 
L 597.316233 206.257838 
L 598.766412 206.726014 
L 600.216591 207.732776 
L 603.11695 210.709765 
L 604.567129 211.339951 
L 606.017309 210.730112 
L 607.467488 209.340375 
L 608.917667 208.141451 
L 610.367847 207.981275 
L 611.818026 209.254435 
L 614.718385 214.22037 
L 616.168564 215.30343 
L 617.618743 214.208696 
L 620.519102 209.019961 
L 621.969281 207.259046 
L 623.41946 206.408913 
L 624.86964 206.103567 
L 627.769998 206.003358 
L 636.471074 206.000238 
L 636.471074 206.000238 
" clip-path="url(#p80e7a0ae88)" style="fill: none; stroke: #1f77b4; stroke-width: 2; stroke-linecap: square"/>
   </g>
   <g id="line2d_27">
    <path d="M 405.892562 206.753502 
L 407.342741 207.678224 
L 408.792921 209.774184 
L 410.2431 213.259505 
L 411.693279 218.069545 
L 414.593638 229.530337 
L 416.043817 233.859762 
L 417.493997 235.138807 
L 418.944176 232.600901 
L 420.394355 227.02512 
L 421.844535 220.285075 
L 423.294714 214.262327 
L 424.744893 210.016557 
L 426.195073 207.618729 
L 427.645252 206.53436 
L 429.095431 206.14281 
L 431.99579 206.005328 
L 468.250273 206.000238 
L 510.305473 206.047873 
L 511.755653 206.188637 
L 513.205832 206.580546 
L 514.656011 207.394906 
L 517.55637 209.872078 
L 519.006549 210.644105 
L 520.456729 210.920726 
L 521.906908 211.499265 
L 523.357087 213.386868 
L 524.807266 216.862649 
L 526.257446 221.201939 
L 527.707625 225.154237 
L 529.157804 227.492665 
L 530.607984 227.393205 
L 532.058163 224.789316 
L 533.508342 220.475884 
L 534.958522 215.761655 
L 536.408701 211.982112 
L 537.85888 210.145065 
L 539.30906 210.722668 
L 540.759239 213.46252 
L 542.209418 217.172347 
L 543.659598 219.928176 
L 545.109777 220.16751 
L 546.559956 218.007671 
L 548.010136 215.224869 
L 549.460315 213.580589 
L 550.910494 213.257936 
L 552.360674 213.071028 
L 553.810853 212.018905 
L 555.261032 210.32854 
L 556.711212 209.06642 
L 558.161391 209.095649 
L 559.61157 210.411138 
L 561.06175 212.11399 
L 562.511929 213.063053 
L 565.412288 212.832473 
L 566.862467 214.242623 
L 569.762826 220.884774 
L 571.213005 221.894153 
L 572.663184 219.486716 
L 575.563543 210.707355 
L 577.013722 207.927088 
L 578.463901 206.616852 
L 579.914081 206.154382 
L 582.814439 206.004706 
L 607.467488 206.01648 
L 608.917667 206.082723 
L 610.367847 206.329884 
L 611.818026 207.02736 
L 613.268205 208.523797 
L 614.718385 210.950675 
L 617.618743 216.727594 
L 619.068923 218.722345 
L 620.519102 219.480364 
L 621.969281 218.582627 
L 623.41946 215.981717 
L 624.86964 212.495998 
L 626.319819 209.385032 
L 627.769998 207.393088 
L 629.220178 206.449648 
L 630.670357 206.113237 
L 633.570716 206.00365 
L 636.471074 206.000238 
L 636.471074 206.000238 
" clip-path="url(#p80e7a0ae88)" style="fill: none; stroke: #d62728; stroke-width: 2; stroke-linecap: square"/>
   </g>
   <g id="line2d_28">
    <path d="M 405.892562 220.335278 
L 407.342741 219.64586 
L 408.792921 218.209506 
L 410.2431 215.980519 
L 413.143459 210.34486 
L 414.593638 208.159401 
L 416.043817 206.861701 
L 417.493997 206.272751 
L 418.944176 206.06801 
L 421.844535 206.005454 
L 424.744893 206.143745 
L 426.195073 206.620676 
L 427.645252 208.138104 
L 429.095431 211.920632 
L 430.54561 219.297203 
L 431.99579 230.519489 
L 433.445969 243.710682 
L 434.896148 255.397218 
L 436.346328 262.567304 
L 437.796507 264.338334 
L 439.246686 261.901042 
L 442.147045 253.276084 
L 443.597224 249.906403 
L 445.047404 245.939635 
L 446.497583 239.339344 
L 449.397942 220.386859 
L 450.848121 212.981728 
L 452.2983 208.710485 
L 453.74848 206.834734 
L 455.198659 206.203265 
L 456.648838 206.038655 
L 462.449556 206.004894 
L 463.899735 206.037659 
L 465.349914 206.205038 
L 466.800094 206.878056 
L 468.250273 208.987357 
L 469.700452 214.124794 
L 471.150632 223.805052 
L 474.05099 252.650301 
L 475.501169 263.404635 
L 476.951349 266.245418 
L 478.401528 260.973482 
L 481.301887 239.532662 
L 482.752066 231.792137 
L 484.202245 229.737179 
L 485.652425 233.262513 
L 487.102604 240.176684 
L 490.002963 256.171802 
L 491.453142 265.044633 
L 494.353501 284.619522 
L 495.80368 292.400288 
L 497.253859 296.876747 
L 498.704039 298.198833 
L 500.154218 298.294023 
L 501.604397 299.7799 
L 503.054577 304.030907 
L 504.504756 310.003837 
L 505.954935 314.864214 
L 507.405115 315.751783 
L 508.855294 311.34602 
L 510.305473 302.397328 
L 511.755653 290.869709 
L 514.656011 264.775419 
L 516.106191 250.771462 
L 517.55637 238.156938 
L 519.006549 229.677077 
L 520.456729 226.243828 
L 521.906908 225.706791 
L 523.357087 224.640627 
L 524.807266 221.052659 
L 526.257446 215.191723 
L 529.157804 201.890464 
L 530.607984 196.899917 
L 532.058163 194.482856 
L 533.508342 194.804904 
L 537.85888 200.405218 
L 540.759239 203.40657 
L 542.209418 204.654308 
L 543.659598 205.445667 
L 545.109777 205.821423 
L 548.010136 205.991335 
L 555.261032 206.081351 
L 556.711212 206.325789 
L 558.161391 207.019323 
L 559.61157 208.527773 
L 561.06175 211.057388 
L 562.511929 214.412284 
L 565.412288 222.21759 
L 566.862467 226.806733 
L 568.312646 232.513288 
L 571.213005 247.250883 
L 572.663184 251.555728 
L 574.113363 248.798472 
L 575.563543 238.959989 
L 577.013722 226.495691 
L 578.463901 216.570071 
L 579.914081 211.64369 
L 581.36426 211.428692 
L 582.814439 214.353226 
L 584.264619 218.398858 
L 585.714798 221.946629 
L 587.164977 225.073967 
L 588.615157 229.609838 
L 590.065336 237.179041 
L 591.515515 247.63661 
L 594.415874 271.576112 
L 595.866053 281.375475 
L 597.316233 286.544355 
L 598.766412 285.356483 
L 600.216591 277.784754 
L 601.666771 265.377384 
L 603.11695 250.981323 
L 604.567129 238.298009 
L 606.017309 230.177119 
L 607.467488 226.457452 
L 608.917667 224.21218 
L 610.367847 220.790525 
L 611.818026 216.291454 
L 613.268205 212.93352 
L 614.718385 212.884053 
L 616.168564 216.913923 
L 617.618743 224.044778 
L 619.068923 231.819628 
L 620.519102 237.501679 
L 621.969281 239.526975 
L 623.41946 237.817356 
L 624.86964 233.1961 
L 627.769998 221.052648 
L 629.220178 216.146239 
L 630.670357 212.434941 
L 632.120536 209.680566 
L 633.570716 207.797054 
L 635.020895 206.727416 
L 636.471074 206.284102 
L 636.471074 206.284102 
" clip-path="url(#p80e7a0ae88)" style="fill: none; stroke: #ff7f0e; stroke-width: 2; stroke-linecap: square"/>
   </g>
   <g id="LineCollection_1">
    <path d="M 521.877904 307.780914 
L 521.877904 118.244426 
" clip-path="url(#p80e7a0ae88)" style="fill: none; stroke-dasharray: 7.4,3.2; stroke-dashoffset: 0; stroke: #000000; stroke-width: 2"/>
    <path d="M 536.379697 307.780914 
L 536.379697 118.244426 
" clip-path="url(#p80e7a0ae88)" style="fill: none; stroke-dasharray: 7.4,3.2; stroke-dashoffset: 0; stroke: #000000; stroke-width: 2"/>
    <path d="M 565.383284 307.780914 
L 565.383284 118.244426 
" clip-path="url(#p80e7a0ae88)" style="fill: none; stroke-dasharray: 7.4,3.2; stroke-dashoffset: 0; stroke: #000000; stroke-width: 2"/>
    <path d="M 623.390457 307.780914 
L 623.390457 118.244426 
" clip-path="url(#p80e7a0ae88)" style="fill: none; stroke-dasharray: 7.4,3.2; stroke-dashoffset: 0; stroke: #000000; stroke-width: 2"/>
   </g>
   <g id="patch_8">
    <path d="M 394.363636 333.490909 
L 394.363636 86.4 
" style="fill: none; stroke: #000000; stroke-width: 0.8; stroke-linejoin: miter; stroke-linecap: square"/>
   </g>
   <g id="patch_9">
    <path d="M 648 333.490909 
L 648 86.4 
" style="fill: none; stroke: #000000; stroke-width: 0.8; stroke-linejoin: miter; stroke-linecap: square"/>
   </g>
   <g id="patch_10">
    <path d="M 394.363636 333.490909 
L 648 333.490909 
" style="fill: none; stroke: #000000; stroke-width: 0.8; stroke-linejoin: miter; stroke-linecap: square"/>
   </g>
   <g id="patch_11">
    <path d="M 394.363636 86.4 
L 648 86.4 
" style="fill: none; stroke: #000000; stroke-width: 0.8; stroke-linejoin: miter; stroke-linecap: square"/>
   </g>
   <g id="text_25">
    <!-- unit_86 -->
    <g transform="translate(498.922756 80.4)scale(0.12 -0.12)">
     <defs>
      <path id="DejaVuSans-75" d="M 544 1381 
L 544 3500 
L 1119 3500 
L 1119 1403 
Q 1119 906 1312 657 
Q 1506 409 1894 409 
Q 2359 409 2629 706 
Q 2900 1003 2900 1516 
L 2900 3500 
L 3475 3500 
L 3475 0 
L 2900 0 
L 2900 538 
Q 2691 219 2414 64 
Q 2138 -91 1772 -91 
Q 1169 -91 856 284 
Q 544 659 544 1381 
z
M 1991 3584 
L 1991 3584 
z
" transform="scale(0.015625)"/>
      <path id="DejaVuSans-6e" d="M 3513 2113 
L 3513 0 
L 2938 0 
L 2938 2094 
Q 2938 2591 2744 2837 
Q 2550 3084 2163 3084 
Q 1697 3084 1428 2787 
Q 1159 2491 1159 1978 
L 1159 0 
L 581 0 
L 581 3500 
L 1159 3500 
L 1159 2956 
Q 1366 3272 1645 3428 
Q 1925 3584 2291 3584 
Q 2894 3584 3203 3211 
Q 3513 2838 3513 2113 
z
" transform="scale(0.015625)"/>
      <path id="DejaVuSans-69" d="M 603 3500 
L 1178 3500 
L 1178 0 
L 603 0 
L 603 3500 
z
M 603 4863 
L 1178 4863 
L 1178 4134 
L 603 4134 
L 603 4863 
z
" transform="scale(0.015625)"/>
      <path id="DejaVuSans-74" d="M 1172 4494 
L 1172 3500 
L 2356 3500 
L 2356 3053 
L 1172 3053 
L 1172 1153 
Q 1172 725 1289 603 
Q 1406 481 1766 481 
L 2356 481 
L 2356 0 
L 1766 0 
Q 1100 0 847 248 
Q 594 497 594 1153 
L 594 3053 
L 172 3053 
L 172 3500 
L 594 3500 
L 594 4494 
L 1172 4494 
z
" transform="scale(0.015625)"/>
      <path id="DejaVuSans-5f" d="M 3263 -1063 
L 3263 -1509 
L -63 -1509 
L -63 -1063 
L 3263 -1063 
z
" transform="scale(0.015625)"/>
     </defs>
     <use xlink:href="#DejaVuSans-75"/>
     <use xlink:href="#DejaVuSans-6e" x="63.378906"/>
     <use xlink:href="#DejaVuSans-69" x="126.757812"/>
     <use xlink:href="#DejaVuSans-74" x="154.541016"/>
     <use xlink:href="#DejaVuSans-5f" x="193.75"/>
     <use xlink:href="#DejaVuSans-38" x="243.75"/>
     <use xlink:href="#DejaVuSans-36" x="307.373047"/>
    </g>
   </g>
  </g>
  <g id="axes_3">
   <g id="patch_12">
    <path d="M 90 630 
L 343.636364 630 
L 343.636364 382.909091 
L 90 382.909091 
z
" style="fill: #ffffff"/>
   </g>
   <g id="matplotlib.axis_5">
    <g id="xtick_12">
     <g id="line2d_29">
      <g>
       <use xlink:href="#ma044f9d29d" x="90" y="630" style="stroke: #000000; stroke-width: 0.8"/>
      </g>
     </g>
     <g id="text_26">
      <!-- 0.0 -->
      <g transform="translate(82.048438 644.598437)scale(0.1 -0.1)">
       <use xlink:href="#DejaVuSans-30"/>
       <use xlink:href="#DejaVuSans-2e" x="63.623047"/>
       <use xlink:href="#DejaVuSans-30" x="95.410156"/>
      </g>
     </g>
    </g>
    <g id="xtick_13">
     <g id="line2d_30">
      <g>
       <use xlink:href="#ma044f9d29d" x="140.727273" y="630" style="stroke: #000000; stroke-width: 0.8"/>
      </g>
     </g>
     <g id="text_27">
      <!-- 0.2 -->
      <g transform="translate(132.77571 644.598437)scale(0.1 -0.1)">
       <use xlink:href="#DejaVuSans-30"/>
       <use xlink:href="#DejaVuSans-2e" x="63.623047"/>
       <use xlink:href="#DejaVuSans-32" x="95.410156"/>
      </g>
     </g>
    </g>
    <g id="xtick_14">
     <g id="line2d_31">
      <g>
       <use xlink:href="#ma044f9d29d" x="191.454545" y="630" style="stroke: #000000; stroke-width: 0.8"/>
      </g>
     </g>
     <g id="text_28">
      <!-- 0.4 -->
      <g transform="translate(183.502983 644.598437)scale(0.1 -0.1)">
       <use xlink:href="#DejaVuSans-30"/>
       <use xlink:href="#DejaVuSans-2e" x="63.623047"/>
       <use xlink:href="#DejaVuSans-34" x="95.410156"/>
      </g>
     </g>
    </g>
    <g id="xtick_15">
     <g id="line2d_32">
      <g>
       <use xlink:href="#ma044f9d29d" x="242.181818" y="630" style="stroke: #000000; stroke-width: 0.8"/>
      </g>
     </g>
     <g id="text_29">
      <!-- 0.6 -->
      <g transform="translate(234.230256 644.598437)scale(0.1 -0.1)">
       <use xlink:href="#DejaVuSans-30"/>
       <use xlink:href="#DejaVuSans-2e" x="63.623047"/>
       <use xlink:href="#DejaVuSans-36" x="95.410156"/>
      </g>
     </g>
    </g>
    <g id="xtick_16">
     <g id="line2d_33">
      <g>
       <use xlink:href="#ma044f9d29d" x="292.909091" y="630" style="stroke: #000000; stroke-width: 0.8"/>
      </g>
     </g>
     <g id="text_30">
      <!-- 0.8 -->
      <g transform="translate(284.957528 644.598437)scale(0.1 -0.1)">
       <use xlink:href="#DejaVuSans-30"/>
       <use xlink:href="#DejaVuSans-2e" x="63.623047"/>
       <use xlink:href="#DejaVuSans-38" x="95.410156"/>
      </g>
     </g>
    </g>
    <g id="xtick_17">
     <g id="line2d_34">
      <g>
       <use xlink:href="#ma044f9d29d" x="343.636364" y="630" style="stroke: #000000; stroke-width: 0.8"/>
      </g>
     </g>
     <g id="text_31">
      <!-- 1.0 -->
      <g transform="translate(335.684801 644.598437)scale(0.1 -0.1)">
       <use xlink:href="#DejaVuSans-31"/>
       <use xlink:href="#DejaVuSans-2e" x="63.623047"/>
       <use xlink:href="#DejaVuSans-30" x="95.410156"/>
      </g>
     </g>
    </g>
   </g>
   <g id="matplotlib.axis_6">
    <g id="ytick_14">
     <g id="line2d_35">
      <g>
       <use xlink:href="#mb718fa5f90" x="90" y="630" style="stroke: #000000; stroke-width: 0.8"/>
      </g>
     </g>
     <g id="text_32">
      <!-- 0.0 -->
      <g transform="translate(67.096875 633.799219)scale(0.1 -0.1)">
       <use xlink:href="#DejaVuSans-30"/>
       <use xlink:href="#DejaVuSans-2e" x="63.623047"/>
       <use xlink:href="#DejaVuSans-30" x="95.410156"/>
      </g>
     </g>
    </g>
    <g id="ytick_15">
     <g id="line2d_36">
      <g>
       <use xlink:href="#mb718fa5f90" x="90" y="580.581818" style="stroke: #000000; stroke-width: 0.8"/>
      </g>
     </g>
     <g id="text_33">
      <!-- 0.2 -->
      <g transform="translate(67.096875 584.381037)scale(0.1 -0.1)">
       <use xlink:href="#DejaVuSans-30"/>
       <use xlink:href="#DejaVuSans-2e" x="63.623047"/>
       <use xlink:href="#DejaVuSans-32" x="95.410156"/>
      </g>
     </g>
    </g>
    <g id="ytick_16">
     <g id="line2d_37">
      <g>
       <use xlink:href="#mb718fa5f90" x="90" y="531.163636" style="stroke: #000000; stroke-width: 0.8"/>
      </g>
     </g>
     <g id="text_34">
      <!-- 0.4 -->
      <g transform="translate(67.096875 534.962855)scale(0.1 -0.1)">
       <use xlink:href="#DejaVuSans-30"/>
       <use xlink:href="#DejaVuSans-2e" x="63.623047"/>
       <use xlink:href="#DejaVuSans-34" x="95.410156"/>
      </g>
     </g>
    </g>
    <g id="ytick_17">
     <g id="line2d_38">
      <g>
       <use xlink:href="#mb718fa5f90" x="90" y="481.745455" style="stroke: #000000; stroke-width: 0.8"/>
      </g>
     </g>
     <g id="text_35">
      <!-- 0.6 -->
      <g transform="translate(67.096875 485.544673)scale(0.1 -0.1)">
       <use xlink:href="#DejaVuSans-30"/>
       <use xlink:href="#DejaVuSans-2e" x="63.623047"/>
       <use xlink:href="#DejaVuSans-36" x="95.410156"/>
      </g>
     </g>
    </g>
    <g id="ytick_18">
     <g id="line2d_39">
      <g>
       <use xlink:href="#mb718fa5f90" x="90" y="432.327273" style="stroke: #000000; stroke-width: 0.8"/>
      </g>
     </g>
     <g id="text_36">
      <!-- 0.8 -->
      <g transform="translate(67.096875 436.126491)scale(0.1 -0.1)">
       <use xlink:href="#DejaVuSans-30"/>
       <use xlink:href="#DejaVuSans-2e" x="63.623047"/>
       <use xlink:href="#DejaVuSans-38" x="95.410156"/>
      </g>
     </g>
    </g>
    <g id="ytick_19">
     <g id="line2d_40">
      <g>
       <use xlink:href="#mb718fa5f90" x="90" y="382.909091" style="stroke: #000000; stroke-width: 0.8"/>
      </g>
     </g>
     <g id="text_37">
      <!-- 1.0 -->
      <g transform="translate(67.096875 386.70831)scale(0.1 -0.1)">
       <use xlink:href="#DejaVuSans-31"/>
       <use xlink:href="#DejaVuSans-2e" x="63.623047"/>
       <use xlink:href="#DejaVuSans-30" x="95.410156"/>
      </g>
     </g>
    </g>
   </g>
   <g id="patch_13">
    <path d="M 90 630 
L 90 382.909091 
" style="fill: none; stroke: #000000; stroke-width: 0.8; stroke-linejoin: miter; stroke-linecap: square"/>
   </g>
   <g id="patch_14">
    <path d="M 343.636364 630 
L 343.636364 382.909091 
" style="fill: none; stroke: #000000; stroke-width: 0.8; stroke-linejoin: miter; stroke-linecap: square"/>
   </g>
   <g id="patch_15">
    <path d="M 90 630 
L 343.636364 630 
" style="fill: none; stroke: #000000; stroke-width: 0.8; stroke-linejoin: miter; stroke-linecap: square"/>
   </g>
   <g id="patch_16">
    <path d="M 90 382.909091 
L 343.636364 382.909091 
" style="fill: none; stroke: #000000; stroke-width: 0.8; stroke-linejoin: miter; stroke-linecap: square"/>
   </g>
  </g>
  <g id="axes_4">
   <g id="patch_17">
    <path d="M 394.363636 630 
L 648 630 
L 648 382.909091 
L 394.363636 382.909091 
z
" style="fill: #ffffff"/>
   </g>
   <g id="matplotlib.axis_7">
    <g id="xtick_18">
     <g id="line2d_41">
      <g>
       <use xlink:href="#ma044f9d29d" x="405.863558" y="630" style="stroke: #000000; stroke-width: 0.8"/>
      </g>
     </g>
     <g id="text_38">
      <!-- 0 -->
      <g transform="translate(402.682308 644.598437)scale(0.1 -0.1)">
       <use xlink:href="#DejaVuSans-30"/>
      </g>
     </g>
    </g>
    <g id="xtick_19">
     <g id="line2d_42">
      <g>
       <use xlink:href="#ma044f9d29d" x="463.870731" y="630" style="stroke: #000000; stroke-width: 0.8"/>
      </g>
     </g>
     <g id="text_39">
      <!-- 2000 -->
      <g transform="translate(451.145731 644.598437)scale(0.1 -0.1)">
       <use xlink:href="#DejaVuSans-32"/>
       <use xlink:href="#DejaVuSans-30" x="63.623047"/>
       <use xlink:href="#DejaVuSans-30" x="127.246094"/>
       <use xlink:href="#DejaVuSans-30" x="190.869141"/>
      </g>
     </g>
    </g>
    <g id="xtick_20">
     <g id="line2d_43">
      <g>
       <use xlink:href="#ma044f9d29d" x="521.877904" y="630" style="stroke: #000000; stroke-width: 0.8"/>
      </g>
     </g>
     <g id="text_40">
      <!-- 4000 -->
      <g transform="translate(509.152904 644.598437)scale(0.1 -0.1)">
       <use xlink:href="#DejaVuSans-34"/>
       <use xlink:href="#DejaVuSans-30" x="63.623047"/>
       <use xlink:href="#DejaVuSans-30" x="127.246094"/>
       <use xlink:href="#DejaVuSans-30" x="190.869141"/>
      </g>
     </g>
    </g>
    <g id="xtick_21">
     <g id="line2d_44">
      <g>
       <use xlink:href="#ma044f9d29d" x="579.885077" y="630" style="stroke: #000000; stroke-width: 0.8"/>
      </g>
     </g>
     <g id="text_41">
      <!-- 6000 -->
      <g transform="translate(567.160077 644.598437)scale(0.1 -0.1)">
       <use xlink:href="#DejaVuSans-36"/>
       <use xlink:href="#DejaVuSans-30" x="63.623047"/>
       <use xlink:href="#DejaVuSans-30" x="127.246094"/>
       <use xlink:href="#DejaVuSans-30" x="190.869141"/>
      </g>
     </g>
    </g>
    <g id="xtick_22">
     <g id="line2d_45">
      <g>
       <use xlink:href="#ma044f9d29d" x="637.89225" y="630" style="stroke: #000000; stroke-width: 0.8"/>
      </g>
     </g>
     <g id="text_42">
      <!-- 8000 -->
      <g transform="translate(625.16725 644.598437)scale(0.1 -0.1)">
       <use xlink:href="#DejaVuSans-38"/>
       <use xlink:href="#DejaVuSans-30" x="63.623047"/>
       <use xlink:href="#DejaVuSans-30" x="127.246094"/>
       <use xlink:href="#DejaVuSans-30" x="190.869141"/>
      </g>
     </g>
    </g>
   </g>
   <g id="matplotlib.axis_8">
    <g id="ytick_20">
     <g id="line2d_46">
      <g>
       <use xlink:href="#mb718fa5f90" x="394.363636" y="630" style="stroke: #000000; stroke-width: 0.8"/>
      </g>
     </g>
     <g id="text_43">
      <!-- −2 -->
      <g transform="translate(372.621449 633.799219)scale(0.1 -0.1)">
       <use xlink:href="#DejaVuSans-2212"/>
       <use xlink:href="#DejaVuSans-32" x="83.789062"/>
      </g>
     </g>
    </g>
    <g id="ytick_21">
     <g id="line2d_47">
      <g>
       <use xlink:href="#mb718fa5f90" x="394.363636" y="598.774287" style="stroke: #000000; stroke-width: 0.8"/>
      </g>
     </g>
     <g id="text_44">
      <!-- 0 -->
      <g transform="translate(381.001136 602.573506)scale(0.1 -0.1)">
       <use xlink:href="#DejaVuSans-30"/>
      </g>
     </g>
    </g>
    <g id="ytick_22">
     <g id="line2d_48">
      <g>
       <use xlink:href="#mb718fa5f90" x="394.363636" y="567.548574" style="stroke: #000000; stroke-width: 0.8"/>
      </g>
     </g>
     <g id="text_45">
      <!-- 2 -->
      <g transform="translate(381.001136 571.347793)scale(0.1 -0.1)">
       <use xlink:href="#DejaVuSans-32"/>
      </g>
     </g>
    </g>
    <g id="ytick_23">
     <g id="line2d_49">
      <g>
       <use xlink:href="#mb718fa5f90" x="394.363636" y="536.322861" style="stroke: #000000; stroke-width: 0.8"/>
      </g>
     </g>
     <g id="text_46">
      <!-- 4 -->
      <g transform="translate(381.001136 540.122079)scale(0.1 -0.1)">
       <use xlink:href="#DejaVuSans-34"/>
      </g>
     </g>
    </g>
    <g id="ytick_24">
     <g id="line2d_50">
      <g>
       <use xlink:href="#mb718fa5f90" x="394.363636" y="505.097148" style="stroke: #000000; stroke-width: 0.8"/>
      </g>
     </g>
     <g id="text_47">
      <!-- 6 -->
      <g transform="translate(381.001136 508.896366)scale(0.1 -0.1)">
       <use xlink:href="#DejaVuSans-36"/>
      </g>
     </g>
    </g>
    <g id="ytick_25">
     <g id="line2d_51">
      <g>
       <use xlink:href="#mb718fa5f90" x="394.363636" y="473.871434" style="stroke: #000000; stroke-width: 0.8"/>
      </g>
     </g>
     <g id="text_48">
      <!-- 8 -->
      <g transform="translate(381.001136 477.670653)scale(0.1 -0.1)">
       <use xlink:href="#DejaVuSans-38"/>
      </g>
     </g>
    </g>
    <g id="ytick_26">
     <g id="line2d_52">
      <g>
       <use xlink:href="#mb718fa5f90" x="394.363636" y="442.645721" style="stroke: #000000; stroke-width: 0.8"/>
      </g>
     </g>
     <g id="text_49">
      <!-- 10 -->
      <g transform="translate(374.638636 446.44494)scale(0.1 -0.1)">
       <use xlink:href="#DejaVuSans-31"/>
       <use xlink:href="#DejaVuSans-30" x="63.623047"/>
      </g>
     </g>
    </g>
    <g id="ytick_27">
     <g id="line2d_53">
      <g>
       <use xlink:href="#mb718fa5f90" x="394.363636" y="411.420008" style="stroke: #000000; stroke-width: 0.8"/>
      </g>
     </g>
     <g id="text_50">
      <!-- 12 -->
      <g transform="translate(374.638636 415.219227)scale(0.1 -0.1)">
       <use xlink:href="#DejaVuSans-31"/>
       <use xlink:href="#DejaVuSans-32" x="63.623047"/>
      </g>
     </g>
    </g>
   </g>
   <g id="line2d_54">
    <path d="M 405.892562 678.324039 
L 407.342741 668.916491 
L 408.792921 644.872256 
L 410.2431 625.167155 
L 411.693279 602.182048 
L 413.143459 588.791998 
L 414.593638 590.811251 
L 416.043817 590.143272 
L 417.493997 582.528859 
L 418.944176 583.519137 
L 420.394355 592.718297 
L 421.844535 598.455897 
L 423.294714 595.344824 
L 424.744893 589.50846 
L 426.195073 588.890421 
L 427.645252 591.215288 
L 429.095431 591.036846 
L 430.54561 580.996685 
L 431.99579 578.868676 
L 433.445969 605.362657 
L 434.896148 615.185024 
L 436.346328 602.096354 
L 437.796507 614.36443 
L 439.246686 623.379286 
L 440.696866 596.712697 
L 442.147045 594.582439 
L 443.597224 615.007242 
L 445.047404 614.668762 
L 446.497583 658.314171 
L 447.220707 721 
M 459.255456 721 
L 459.549197 701.977618 
L 460.999376 674.321113 
L 462.449556 640.888678 
L 463.899735 598.288576 
L 465.349914 549.658677 
L 466.800094 505.096324 
L 468.250273 481.195688 
L 469.700452 503.945574 
L 471.150632 540.470241 
L 472.600811 542.905202 
L 474.05099 516.117256 
L 475.501169 509.683491 
L 476.951349 544.841327 
L 478.401528 574.115648 
L 479.851707 620.39735 
L 481.301887 676.733272 
L 482.752066 662.489109 
L 484.202245 608.663649 
L 485.652425 537.319808 
L 487.102604 487.111679 
L 488.552783 517.592937 
L 490.002963 564.708812 
L 491.453142 537.836816 
L 492.903321 514.651402 
L 494.353501 505.112487 
L 495.80368 476.565928 
L 497.253859 458.755295 
L 498.704039 461.128717 
L 500.154218 489.767516 
L 501.604397 514.284855 
L 503.054577 478.224177 
L 504.504756 405.628454 
L 505.954935 382.909091 
L 507.405115 385.076539 
L 508.855294 388.929694 
L 510.305473 429.175129 
L 511.755653 488.794041 
L 514.656011 559.468057 
L 516.106191 614.491815 
L 517.55637 630.362901 
L 519.006549 607.159726 
L 520.456729 596.376695 
L 521.906908 593.575046 
L 523.357087 594.292573 
L 524.807266 609.380055 
L 526.257446 642.941322 
L 527.707625 647.628261 
L 529.157804 629.328065 
L 530.607984 607.070395 
L 532.058163 590.784626 
L 533.508342 604.672268 
L 534.958522 633.381432 
L 536.408701 652.430205 
L 537.85888 633.732141 
L 539.30906 605.066011 
L 540.759239 598.394644 
L 542.209418 592.935754 
L 543.659598 566.816859 
L 545.109777 544.789779 
L 546.559956 562.237435 
L 548.010136 617.698034 
L 549.460315 666.544881 
L 550.910494 640.479692 
L 552.360674 559.090671 
L 553.810853 493.324222 
L 555.261032 483.514665 
L 556.711212 467.282511 
L 558.161391 474.797597 
L 559.61157 554.554943 
L 561.06175 623.451397 
L 562.511929 650.364131 
L 563.962108 670.906424 
L 565.412288 682.552866 
L 566.862467 668.773522 
L 568.312646 640.500103 
L 569.762826 620.689442 
L 571.213005 604.565139 
L 572.663184 586.036732 
L 574.113363 577.930767 
L 575.563543 625.689518 
L 576.862009 721 
M 579.239271 721 
L 579.914081 684.436296 
L 581.36426 677.888789 
L 582.620734 721 
M 583.048436 721 
L 584.264619 686.45631 
L 585.714798 650.783117 
L 587.164977 705.770208 
L 587.370257 721 
M 594.090892 721 
L 594.415874 698.75044 
L 595.866053 613.195517 
L 598.766412 521.511832 
L 600.216591 511.657463 
L 601.666771 537.442879 
L 604.567129 641.157268 
L 606.214245 721 
M 616.04785 721 
L 616.168564 710.799843 
L 617.618743 684.087421 
L 619.068923 686.064427 
L 620.519102 690.322268 
L 621.969281 681.945764 
L 623.41946 645.208718 
L 624.86964 642.713431 
L 626.319819 658.489602 
L 627.769998 635.186947 
L 629.220178 607.3459 
L 630.670357 627.377895 
L 632.120536 681.124039 
L 633.570716 716.691191 
L 635.020895 675.001306 
L 636.471074 590.841446 
L 636.471074 590.841446 
" clip-path="url(#p4702eff7e4)" style="fill: none; stroke: #1f77b4; stroke-width: 1.5; stroke-linecap: square"/>
   </g>
   <g id="patch_18">
    <path d="M 394.363636 630 
L 394.363636 382.909091 
" style="fill: none; stroke: #000000; stroke-width: 0.8; stroke-linejoin: miter; stroke-linecap: square"/>
   </g>
   <g id="patch_19">
    <path d="M 648 630 
L 648 382.909091 
" style="fill: none; stroke: #000000; stroke-width: 0.8; stroke-linejoin: miter; stroke-linecap: square"/>
   </g>
   <g id="patch_20">
    <path d="M 394.363636 630 
L 648 630 
" style="fill: none; stroke: #000000; stroke-width: 0.8; stroke-linejoin: miter; stroke-linecap: square"/>
   </g>
   <g id="patch_21">
    <path d="M 394.363636 382.909091 
L 648 382.909091 
" style="fill: none; stroke: #000000; stroke-width: 0.8; stroke-linejoin: miter; stroke-linecap: square"/>
   </g>
   <g id="text_51">
    <!-- explained variance -->
    <g transform="translate(464.181818 376.909091)scale(0.12 -0.12)">
     <defs>
      <path id="DejaVuSans-65" d="M 3597 1894 
L 3597 1613 
L 953 1613 
Q 991 1019 1311 708 
Q 1631 397 2203 397 
Q 2534 397 2845 478 
Q 3156 559 3463 722 
L 3463 178 
Q 3153 47 2828 -22 
Q 2503 -91 2169 -91 
Q 1331 -91 842 396 
Q 353 884 353 1716 
Q 353 2575 817 3079 
Q 1281 3584 2069 3584 
Q 2775 3584 3186 3129 
Q 3597 2675 3597 1894 
z
M 3022 2063 
Q 3016 2534 2758 2815 
Q 2500 3097 2075 3097 
Q 1594 3097 1305 2825 
Q 1016 2553 972 2059 
L 3022 2063 
z
" transform="scale(0.015625)"/>
      <path id="DejaVuSans-78" d="M 3513 3500 
L 2247 1797 
L 3578 0 
L 2900 0 
L 1881 1375 
L 863 0 
L 184 0 
L 1544 1831 
L 300 3500 
L 978 3500 
L 1906 2253 
L 2834 3500 
L 3513 3500 
z
" transform="scale(0.015625)"/>
      <path id="DejaVuSans-70" d="M 1159 525 
L 1159 -1331 
L 581 -1331 
L 581 3500 
L 1159 3500 
L 1159 2969 
Q 1341 3281 1617 3432 
Q 1894 3584 2278 3584 
Q 2916 3584 3314 3078 
Q 3713 2572 3713 1747 
Q 3713 922 3314 415 
Q 2916 -91 2278 -91 
Q 1894 -91 1617 61 
Q 1341 213 1159 525 
z
M 3116 1747 
Q 3116 2381 2855 2742 
Q 2594 3103 2138 3103 
Q 1681 3103 1420 2742 
Q 1159 2381 1159 1747 
Q 1159 1113 1420 752 
Q 1681 391 2138 391 
Q 2594 391 2855 752 
Q 3116 1113 3116 1747 
z
" transform="scale(0.015625)"/>
      <path id="DejaVuSans-6c" d="M 603 4863 
L 1178 4863 
L 1178 0 
L 603 0 
L 603 4863 
z
" transform="scale(0.015625)"/>
      <path id="DejaVuSans-61" d="M 2194 1759 
Q 1497 1759 1228 1600 
Q 959 1441 959 1056 
Q 959 750 1161 570 
Q 1363 391 1709 391 
Q 2188 391 2477 730 
Q 2766 1069 2766 1631 
L 2766 1759 
L 2194 1759 
z
M 3341 1997 
L 3341 0 
L 2766 0 
L 2766 531 
Q 2569 213 2275 61 
Q 1981 -91 1556 -91 
Q 1019 -91 701 211 
Q 384 513 384 1019 
Q 384 1609 779 1909 
Q 1175 2209 1959 2209 
L 2766 2209 
L 2766 2266 
Q 2766 2663 2505 2880 
Q 2244 3097 1772 3097 
Q 1472 3097 1187 3025 
Q 903 2953 641 2809 
L 641 3341 
Q 956 3463 1253 3523 
Q 1550 3584 1831 3584 
Q 2591 3584 2966 3190 
Q 3341 2797 3341 1997 
z
" transform="scale(0.015625)"/>
      <path id="DejaVuSans-64" d="M 2906 2969 
L 2906 4863 
L 3481 4863 
L 3481 0 
L 2906 0 
L 2906 525 
Q 2725 213 2448 61 
Q 2172 -91 1784 -91 
Q 1150 -91 751 415 
Q 353 922 353 1747 
Q 353 2572 751 3078 
Q 1150 3584 1784 3584 
Q 2172 3584 2448 3432 
Q 2725 3281 2906 2969 
z
M 947 1747 
Q 947 1113 1208 752 
Q 1469 391 1925 391 
Q 2381 391 2643 752 
Q 2906 1113 2906 1747 
Q 2906 2381 2643 2742 
Q 2381 3103 1925 3103 
Q 1469 3103 1208 2742 
Q 947 2381 947 1747 
z
" transform="scale(0.015625)"/>
      <path id="DejaVuSans-20" transform="scale(0.015625)"/>
      <path id="DejaVuSans-76" d="M 191 3500 
L 800 3500 
L 1894 563 
L 2988 3500 
L 3597 3500 
L 2284 0 
L 1503 0 
L 191 3500 
z
" transform="scale(0.015625)"/>
      <path id="DejaVuSans-72" d="M 2631 2963 
Q 2534 3019 2420 3045 
Q 2306 3072 2169 3072 
Q 1681 3072 1420 2755 
Q 1159 2438 1159 1844 
L 1159 0 
L 581 0 
L 581 3500 
L 1159 3500 
L 1159 2956 
Q 1341 3275 1631 3429 
Q 1922 3584 2338 3584 
Q 2397 3584 2469 3576 
Q 2541 3569 2628 3553 
L 2631 2963 
z
" transform="scale(0.015625)"/>
      <path id="DejaVuSans-63" d="M 3122 3366 
L 3122 2828 
Q 2878 2963 2633 3030 
Q 2388 3097 2138 3097 
Q 1578 3097 1268 2742 
Q 959 2388 959 1747 
Q 959 1106 1268 751 
Q 1578 397 2138 397 
Q 2388 397 2633 464 
Q 2878 531 3122 666 
L 3122 134 
Q 2881 22 2623 -34 
Q 2366 -91 2075 -91 
Q 1284 -91 818 406 
Q 353 903 353 1747 
Q 353 2603 823 3093 
Q 1294 3584 2113 3584 
Q 2378 3584 2631 3529 
Q 2884 3475 3122 3366 
z
" transform="scale(0.015625)"/>
     </defs>
     <use xlink:href="#DejaVuSans-65"/>
     <use xlink:href="#DejaVuSans-78" x="59.773438"/>
     <use xlink:href="#DejaVuSans-70" x="118.953125"/>
     <use xlink:href="#DejaVuSans-6c" x="182.429688"/>
     <use xlink:href="#DejaVuSans-61" x="210.212891"/>
     <use xlink:href="#DejaVuSans-69" x="271.492188"/>
     <use xlink:href="#DejaVuSans-6e" x="299.275391"/>
     <use xlink:href="#DejaVuSans-65" x="362.654297"/>
     <use xlink:href="#DejaVuSans-64" x="424.177734"/>
     <use xlink:href="#DejaVuSans-20" x="487.654297"/>
     <use xlink:href="#DejaVuSans-76" x="519.441406"/>
     <use xlink:href="#DejaVuSans-61" x="578.621094"/>
     <use xlink:href="#DejaVuSans-72" x="639.900391"/>
     <use xlink:href="#DejaVuSans-69" x="681.013672"/>
     <use xlink:href="#DejaVuSans-61" x="708.796875"/>
     <use xlink:href="#DejaVuSans-6e" x="770.076172"/>
     <use xlink:href="#DejaVuSans-63" x="833.455078"/>
     <use xlink:href="#DejaVuSans-65" x="888.435547"/>
    </g>
   </g>
  </g>
 </g>
 <defs>
  <clipPath id="p80e7a0ae88">
   <rect x="394.363636" y="86.4" width="253.636364" height="247.090909"/>
  </clipPath>
  <clipPath id="p4702eff7e4">
   <rect x="394.363636" y="382.909091" width="253.636364" height="247.090909"/>
  </clipPath>
 </defs>
</svg>
