<?xml version="1.0" encoding="utf-8" standalone="no"?>
<!DOCTYPE svg PUBLIC "-//W3C//DTD SVG 1.1//EN"
  "http://www.w3.org/Graphics/SVG/1.1/DTD/svg11.dtd">
<svg xmlns:xlink="http://www.w3.org/1999/xlink" width="720pt" height="720pt" viewBox="0 0 720 720" xmlns="http://www.w3.org/2000/svg" version="1.1">
 <metadata>
  <rdf:RDF xmlns:dc="http://purl.org/dc/elements/1.1/" xmlns:cc="http://creativecommons.org/ns#" xmlns:rdf="http://www.w3.org/1999/02/22-rdf-syntax-ns#">
   <cc:Work>
    <dc:type rdf:resource="http://purl.org/dc/dcmitype/StillImage"/>
    <dc:date>2023-12-19T18:19:53.139071</dc:date>
    <dc:format>image/svg+xml</dc:format>
    <dc:creator>
     <cc:Agent>
      <dc:title>Matplotlib v3.5.2, https://matplotlib.org/</dc:title>
     </cc:Agent>
    </dc:creator>
   </cc:Work>
  </rdf:RDF>
 </metadata>
 <defs>
  <style type="text/css">*{stroke-linejoin: round; stroke-linecap: butt}</style>
 </defs>
 <g id="figure_1">
  <g id="patch_1">
   <path d="M 0 720 
L 720 720 
L 720 0 
L 0 0 
z
" style="fill: #ffffff"/>
  </g>
  <g id="axes_1">
   <g id="patch_2">
    <path d="M 90 333.490909 
L 343.636364 333.490909 
L 343.636364 86.4 
L 90 86.4 
z
" style="fill: #ffffff"/>
   </g>
   <g id="matplotlib.axis_1">
    <g id="xtick_1">
     <g id="line2d_1">
      <defs>
       <path id="m38f9f95e99" d="M 0 0 
L 0 3.5 
" style="stroke: #000000; stroke-width: 0.8"/>
      </defs>
      <g>
       <use xlink:href="#m38f9f95e99" x="90" y="333.490909" style="stroke: #000000; stroke-width: 0.8"/>
      </g>
     </g>
     <g id="text_1">
      <!-- 0.0 -->
      <g transform="translate(82.048438 348.089347)scale(0.1 -0.1)">
       <defs>
        <path id="DejaVuSans-30" d="M 2034 4250 
Q 1547 4250 1301 3770 
Q 1056 3291 1056 2328 
Q 1056 1369 1301 889 
Q 1547 409 2034 409 
Q 2525 409 2770 889 
Q 3016 1369 3016 2328 
Q 3016 3291 2770 3770 
Q 2525 4250 2034 4250 
z
M 2034 4750 
Q 2819 4750 3233 4129 
Q 3647 3509 3647 2328 
Q 3647 1150 3233 529 
Q 2819 -91 2034 -91 
Q 1250 -91 836 529 
Q 422 1150 422 2328 
Q 422 3509 836 4129 
Q 1250 4750 2034 4750 
z
" transform="scale(0.015625)"/>
        <path id="DejaVuSans-2e" d="M 684 794 
L 1344 794 
L 1344 0 
L 684 0 
L 684 794 
z
" transform="scale(0.015625)"/>
       </defs>
       <use xlink:href="#DejaVuSans-30"/>
       <use xlink:href="#DejaVuSans-2e" x="63.623047"/>
       <use xlink:href="#DejaVuSans-30" x="95.410156"/>
      </g>
     </g>
    </g>
    <g id="xtick_2">
     <g id="line2d_2">
      <g>
       <use xlink:href="#m38f9f95e99" x="140.727273" y="333.490909" style="stroke: #000000; stroke-width: 0.8"/>
      </g>
     </g>
     <g id="text_2">
      <!-- 0.2 -->
      <g transform="translate(132.77571 348.089347)scale(0.1 -0.1)">
       <defs>
        <path id="DejaVuSans-32" d="M 1228 531 
L 3431 531 
L 3431 0 
L 469 0 
L 469 531 
Q 828 903 1448 1529 
Q 2069 2156 2228 2338 
Q 2531 2678 2651 2914 
Q 2772 3150 2772 3378 
Q 2772 3750 2511 3984 
Q 2250 4219 1831 4219 
Q 1534 4219 1204 4116 
Q 875 4013 500 3803 
L 500 4441 
Q 881 4594 1212 4672 
Q 1544 4750 1819 4750 
Q 2544 4750 2975 4387 
Q 3406 4025 3406 3419 
Q 3406 3131 3298 2873 
Q 3191 2616 2906 2266 
Q 2828 2175 2409 1742 
Q 1991 1309 1228 531 
z
" transform="scale(0.015625)"/>
       </defs>
       <use xlink:href="#DejaVuSans-30"/>
       <use xlink:href="#DejaVuSans-2e" x="63.623047"/>
       <use xlink:href="#DejaVuSans-32" x="95.410156"/>
      </g>
     </g>
    </g>
    <g id="xtick_3">
     <g id="line2d_3">
      <g>
       <use xlink:href="#m38f9f95e99" x="191.454545" y="333.490909" style="stroke: #000000; stroke-width: 0.8"/>
      </g>
     </g>
     <g id="text_3">
      <!-- 0.4 -->
      <g transform="translate(183.502983 348.089347)scale(0.1 -0.1)">
       <defs>
        <path id="DejaVuSans-34" d="M 2419 4116 
L 825 1625 
L 2419 1625 
L 2419 4116 
z
M 2253 4666 
L 3047 4666 
L 3047 1625 
L 3713 1625 
L 3713 1100 
L 3047 1100 
L 3047 0 
L 2419 0 
L 2419 1100 
L 313 1100 
L 313 1709 
L 2253 4666 
z
" transform="scale(0.015625)"/>
       </defs>
       <use xlink:href="#DejaVuSans-30"/>
       <use xlink:href="#DejaVuSans-2e" x="63.623047"/>
       <use xlink:href="#DejaVuSans-34" x="95.410156"/>
      </g>
     </g>
    </g>
    <g id="xtick_4">
     <g id="line2d_4">
      <g>
       <use xlink:href="#m38f9f95e99" x="242.181818" y="333.490909" style="stroke: #000000; stroke-width: 0.8"/>
      </g>
     </g>
     <g id="text_4">
      <!-- 0.6 -->
      <g transform="translate(234.230256 348.089347)scale(0.1 -0.1)">
       <defs>
        <path id="DejaVuSans-36" d="M 2113 2584 
Q 1688 2584 1439 2293 
Q 1191 2003 1191 1497 
Q 1191 994 1439 701 
Q 1688 409 2113 409 
Q 2538 409 2786 701 
Q 3034 994 3034 1497 
Q 3034 2003 2786 2293 
Q 2538 2584 2113 2584 
z
M 3366 4563 
L 3366 3988 
Q 3128 4100 2886 4159 
Q 2644 4219 2406 4219 
Q 1781 4219 1451 3797 
Q 1122 3375 1075 2522 
Q 1259 2794 1537 2939 
Q 1816 3084 2150 3084 
Q 2853 3084 3261 2657 
Q 3669 2231 3669 1497 
Q 3669 778 3244 343 
Q 2819 -91 2113 -91 
Q 1303 -91 875 529 
Q 447 1150 447 2328 
Q 447 3434 972 4092 
Q 1497 4750 2381 4750 
Q 2619 4750 2861 4703 
Q 3103 4656 3366 4563 
z
" transform="scale(0.015625)"/>
       </defs>
       <use xlink:href="#DejaVuSans-30"/>
       <use xlink:href="#DejaVuSans-2e" x="63.623047"/>
       <use xlink:href="#DejaVuSans-36" x="95.410156"/>
      </g>
     </g>
    </g>
    <g id="xtick_5">
     <g id="line2d_5">
      <g>
       <use xlink:href="#m38f9f95e99" x="292.909091" y="333.490909" style="stroke: #000000; stroke-width: 0.8"/>
      </g>
     </g>
     <g id="text_5">
      <!-- 0.8 -->
      <g transform="translate(284.957528 348.089347)scale(0.1 -0.1)">
       <defs>
        <path id="DejaVuSans-38" d="M 2034 2216 
Q 1584 2216 1326 1975 
Q 1069 1734 1069 1313 
Q 1069 891 1326 650 
Q 1584 409 2034 409 
Q 2484 409 2743 651 
Q 3003 894 3003 1313 
Q 3003 1734 2745 1975 
Q 2488 2216 2034 2216 
z
M 1403 2484 
Q 997 2584 770 2862 
Q 544 3141 544 3541 
Q 544 4100 942 4425 
Q 1341 4750 2034 4750 
Q 2731 4750 3128 4425 
Q 3525 4100 3525 3541 
Q 3525 3141 3298 2862 
Q 3072 2584 2669 2484 
Q 3125 2378 3379 2068 
Q 3634 1759 3634 1313 
Q 3634 634 3220 271 
Q 2806 -91 2034 -91 
Q 1263 -91 848 271 
Q 434 634 434 1313 
Q 434 1759 690 2068 
Q 947 2378 1403 2484 
z
M 1172 3481 
Q 1172 3119 1398 2916 
Q 1625 2713 2034 2713 
Q 2441 2713 2670 2916 
Q 2900 3119 2900 3481 
Q 2900 3844 2670 4047 
Q 2441 4250 2034 4250 
Q 1625 4250 1398 4047 
Q 1172 3844 1172 3481 
z
" transform="scale(0.015625)"/>
       </defs>
       <use xlink:href="#DejaVuSans-30"/>
       <use xlink:href="#DejaVuSans-2e" x="63.623047"/>
       <use xlink:href="#DejaVuSans-38" x="95.410156"/>
      </g>
     </g>
    </g>
    <g id="xtick_6">
     <g id="line2d_6">
      <g>
       <use xlink:href="#m38f9f95e99" x="343.636364" y="333.490909" style="stroke: #000000; stroke-width: 0.8"/>
      </g>
     </g>
     <g id="text_6">
      <!-- 1.0 -->
      <g transform="translate(335.684801 348.089347)scale(0.1 -0.1)">
       <defs>
        <path id="DejaVuSans-31" d="M 794 531 
L 1825 531 
L 1825 4091 
L 703 3866 
L 703 4441 
L 1819 4666 
L 2450 4666 
L 2450 531 
L 3481 531 
L 3481 0 
L 794 0 
L 794 531 
z
" transform="scale(0.015625)"/>
       </defs>
       <use xlink:href="#DejaVuSans-31"/>
       <use xlink:href="#DejaVuSans-2e" x="63.623047"/>
       <use xlink:href="#DejaVuSans-30" x="95.410156"/>
      </g>
     </g>
    </g>
   </g>
   <g id="matplotlib.axis_2">
    <g id="ytick_1">
     <g id="line2d_7">
      <defs>
       <path id="m1f980e8fa3" d="M 0 0 
L -3.5 0 
" style="stroke: #000000; stroke-width: 0.8"/>
      </defs>
      <g>
       <use xlink:href="#m1f980e8fa3" x="90" y="333.490909" style="stroke: #000000; stroke-width: 0.8"/>
      </g>
     </g>
     <g id="text_7">
      <!-- 0.0 -->
      <g transform="translate(67.096875 337.290128)scale(0.1 -0.1)">
       <use xlink:href="#DejaVuSans-30"/>
       <use xlink:href="#DejaVuSans-2e" x="63.623047"/>
       <use xlink:href="#DejaVuSans-30" x="95.410156"/>
      </g>
     </g>
    </g>
    <g id="ytick_2">
     <g id="line2d_8">
      <g>
       <use xlink:href="#m1f980e8fa3" x="90" y="284.072727" style="stroke: #000000; stroke-width: 0.8"/>
      </g>
     </g>
     <g id="text_8">
      <!-- 0.2 -->
      <g transform="translate(67.096875 287.871946)scale(0.1 -0.1)">
       <use xlink:href="#DejaVuSans-30"/>
       <use xlink:href="#DejaVuSans-2e" x="63.623047"/>
       <use xlink:href="#DejaVuSans-32" x="95.410156"/>
      </g>
     </g>
    </g>
    <g id="ytick_3">
     <g id="line2d_9">
      <g>
       <use xlink:href="#m1f980e8fa3" x="90" y="234.654545" style="stroke: #000000; stroke-width: 0.8"/>
      </g>
     </g>
     <g id="text_9">
      <!-- 0.4 -->
      <g transform="translate(67.096875 238.453764)scale(0.1 -0.1)">
       <use xlink:href="#DejaVuSans-30"/>
       <use xlink:href="#DejaVuSans-2e" x="63.623047"/>
       <use xlink:href="#DejaVuSans-34" x="95.410156"/>
      </g>
     </g>
    </g>
    <g id="ytick_4">
     <g id="line2d_10">
      <g>
       <use xlink:href="#m1f980e8fa3" x="90" y="185.236364" style="stroke: #000000; stroke-width: 0.8"/>
      </g>
     </g>
     <g id="text_10">
      <!-- 0.6 -->
      <g transform="translate(67.096875 189.035582)scale(0.1 -0.1)">
       <use xlink:href="#DejaVuSans-30"/>
       <use xlink:href="#DejaVuSans-2e" x="63.623047"/>
       <use xlink:href="#DejaVuSans-36" x="95.410156"/>
      </g>
     </g>
    </g>
    <g id="ytick_5">
     <g id="line2d_11">
      <g>
       <use xlink:href="#m1f980e8fa3" x="90" y="135.818182" style="stroke: #000000; stroke-width: 0.8"/>
      </g>
     </g>
     <g id="text_11">
      <!-- 0.8 -->
      <g transform="translate(67.096875 139.617401)scale(0.1 -0.1)">
       <use xlink:href="#DejaVuSans-30"/>
       <use xlink:href="#DejaVuSans-2e" x="63.623047"/>
       <use xlink:href="#DejaVuSans-38" x="95.410156"/>
      </g>
     </g>
    </g>
    <g id="ytick_6">
     <g id="line2d_12">
      <g>
       <use xlink:href="#m1f980e8fa3" x="90" y="86.4" style="stroke: #000000; stroke-width: 0.8"/>
      </g>
     </g>
     <g id="text_12">
      <!-- 1.0 -->
      <g transform="translate(67.096875 90.199219)scale(0.1 -0.1)">
       <use xlink:href="#DejaVuSans-31"/>
       <use xlink:href="#DejaVuSans-2e" x="63.623047"/>
       <use xlink:href="#DejaVuSans-30" x="95.410156"/>
      </g>
     </g>
    </g>
   </g>
   <g id="patch_3">
    <path d="M 90 333.490909 
L 90 86.4 
" style="fill: none; stroke: #000000; stroke-width: 0.8; stroke-linejoin: miter; stroke-linecap: square"/>
   </g>
   <g id="patch_4">
    <path d="M 343.636364 333.490909 
L 343.636364 86.4 
" style="fill: none; stroke: #000000; stroke-width: 0.8; stroke-linejoin: miter; stroke-linecap: square"/>
   </g>
   <g id="patch_5">
    <path d="M 90 333.490909 
L 343.636364 333.490909 
" style="fill: none; stroke: #000000; stroke-width: 0.8; stroke-linejoin: miter; stroke-linecap: square"/>
   </g>
   <g id="patch_6">
    <path d="M 90 86.4 
L 343.636364 86.4 
" style="fill: none; stroke: #000000; stroke-width: 0.8; stroke-linejoin: miter; stroke-linecap: square"/>
   </g>
  </g>
  <g id="axes_2">
   <g id="patch_7">
    <path d="M 394.363636 333.490909 
L 648 333.490909 
L 648 86.4 
L 394.363636 86.4 
z
" style="fill: #ffffff"/>
   </g>
   <g id="PolyCollection_1">
    <defs>
     <path id="mb8c098462c" d="M 405.892562 -553.406533 
L 405.892562 -553.406533 
L 407.342741 -548.757233 
L 408.792921 -542.822626 
L 410.2431 -518.7642 
L 411.693279 -543.08559 
L 413.143459 -549.829661 
L 414.593638 -556.702936 
L 416.043817 -561.276723 
L 417.493997 -563.265736 
L 418.944176 -563.104902 
L 420.394355 -560.325348 
L 421.844535 -553.139969 
L 423.294714 -539.710637 
L 424.744893 -520.77548 
L 426.195073 -487.451326 
L 427.645252 -473.889557 
L 429.095431 -473.137575 
L 430.54561 -491.680124 
L 431.99579 -484.623641 
L 433.445969 -508.403704 
L 434.896148 -510.614155 
L 436.346328 -489.160658 
L 437.796507 -485.990543 
L 439.246686 -496.310521 
L 440.696866 -484.611716 
L 442.147045 -448.737142 
L 443.597224 -439.763717 
L 445.047404 -443.803502 
L 446.497583 -464.01364 
L 447.947762 -449.740657 
L 449.397942 -453.150885 
L 450.848121 -459.90448 
L 452.2983 -468.40859 
L 453.74848 -480.69217 
L 455.198659 -495.116725 
L 456.648838 -517.698313 
L 458.099018 -524.05422 
L 459.549197 -517.638057 
L 460.999376 -531.158636 
L 462.449556 -525.528133 
L 463.899735 -541.412205 
L 465.349914 -544.36691 
L 466.800094 -543.796237 
L 468.250273 -533.494991 
L 469.700452 -528.438512 
L 471.150632 -534.318936 
L 472.600811 -527.12312 
L 474.05099 -524.425705 
L 475.501169 -532.384463 
L 476.951349 -547.518213 
L 478.401528 -554.055336 
L 479.851707 -558.120725 
L 481.301887 -559.731788 
L 482.752066 -555.437036 
L 484.202245 -560.263096 
L 485.652425 -557.80149 
L 487.102604 -558.359338 
L 488.552783 -558.563847 
L 490.002963 -557.069193 
L 491.453142 -549.65813 
L 492.903321 -558.239625 
L 494.353501 -560.934193 
L 495.80368 -558.937937 
L 497.253859 -564.18738 
L 498.704039 -563.232965 
L 500.154218 -557.824578 
L 501.604397 -557.279794 
L 503.054577 -547.503966 
L 504.504756 -547.957874 
L 505.954935 -544.640178 
L 507.405115 -539.290392 
L 508.855294 -540.685065 
L 510.305473 -534.098012 
L 511.755653 -537.266719 
L 513.205832 -547.087326 
L 514.656011 -548.235065 
L 516.106191 -554.449223 
L 517.55637 -555.726758 
L 519.006549 -548.417246 
L 520.456729 -558.057538 
L 521.906908 -560.246248 
L 523.357087 -562.311803 
L 524.807266 -563.670664 
L 526.257446 -564.321769 
L 527.707625 -564.555219 
L 529.157804 -564.61855 
L 530.607984 -564.631697 
L 532.058163 -564.634078 
L 533.508342 -564.634078 
L 534.958522 -564.634078 
L 536.408701 -564.634078 
L 537.85888 -564.634078 
L 539.30906 -564.634078 
L 540.759239 -564.634078 
L 542.209418 -564.634078 
L 543.659598 -564.634078 
L 545.109777 -564.634078 
L 546.559956 -564.634078 
L 548.010136 -564.634078 
L 549.460315 -564.634078 
L 550.910494 -564.634078 
L 552.360674 -564.634078 
L 553.810853 -564.634078 
L 555.261032 -564.634078 
L 556.711212 -564.634078 
L 558.161391 -564.634078 
L 559.61157 -564.634078 
L 561.06175 -564.634078 
L 562.511929 -564.634078 
L 563.962108 -564.630729 
L 565.412288 -564.612237 
L 566.862467 -564.523161 
L 568.312646 -564.191245 
L 569.762826 -563.255415 
L 571.213005 -561.252837 
L 572.663184 -558.02272 
L 574.113363 -554.101207 
L 575.563543 -543.510398 
L 577.013722 -547.941197 
L 578.463901 -546.867533 
L 579.914081 -542.424004 
L 581.36426 -546.322224 
L 582.814439 -551.730024 
L 584.264619 -552.305744 
L 585.714798 -551.422412 
L 587.164977 -542.654135 
L 588.615157 -552.090878 
L 590.065336 -554.975848 
L 591.515515 -552.594315 
L 592.965695 -558.713429 
L 594.415874 -562.830816 
L 595.866053 -563.890979 
L 597.316233 -564.391817 
L 598.766412 -564.575689 
L 600.216591 -564.625442 
L 601.666771 -564.633527 
L 603.11695 -564.634036 
L 604.567129 -564.635559 
L 606.017309 -564.648014 
L 607.467488 -564.716095 
L 608.917667 -564.968634 
L 610.367847 -565.643101 
L 611.818026 -566.947563 
L 613.268205 -566.744717 
L 614.718385 -567.316261 
L 616.168564 -566.511664 
L 617.618743 -569.546274 
L 619.068923 -567.66528 
L 620.519102 -565.90335 
L 621.969281 -563.879861 
L 623.41946 -564.397971 
L 624.86964 -564.374685 
L 626.319819 -564.476559 
L 627.769998 -564.565516 
L 629.220178 -564.611324 
L 630.670357 -564.628325 
L 632.120536 -564.632945 
L 633.570716 -564.633904 
L 635.020895 -564.634078 
L 636.471074 -564.634078 
L 636.471074 -564.634078 
L 636.471074 -564.634078 
L 635.020895 -564.634078 
L 633.570716 -564.633904 
L 632.120536 -564.632945 
L 630.670357 -564.628325 
L 629.220178 -564.611324 
L 627.769998 -564.565516 
L 626.319819 -564.476559 
L 624.86964 -564.374685 
L 623.41946 -564.397971 
L 621.969281 -565.748353 
L 620.519102 -565.90335 
L 619.068923 -567.66528 
L 617.618743 -569.546274 
L 616.168564 -574.706271 
L 614.718385 -573.16607 
L 613.268205 -570.70036 
L 611.818026 -566.947563 
L 610.367847 -565.643101 
L 608.917667 -564.968634 
L 607.467488 -564.716095 
L 606.017309 -564.648014 
L 604.567129 -564.635559 
L 603.11695 -564.634036 
L 601.666771 -564.633527 
L 600.216591 -564.625442 
L 598.766412 -564.575689 
L 597.316233 -564.391817 
L 595.866053 -563.890979 
L 594.415874 -562.830816 
L 592.965695 -563.261253 
L 591.515515 -563.9417 
L 590.065336 -554.975848 
L 588.615157 -552.090878 
L 587.164977 -559.041496 
L 585.714798 -551.422412 
L 584.264619 -552.305744 
L 582.814439 -551.730024 
L 581.36426 -552.913365 
L 579.914081 -552.627447 
L 578.463901 -546.867533 
L 577.013722 -547.941197 
L 575.563543 -557.455499 
L 574.113363 -554.101207 
L 572.663184 -558.02272 
L 571.213005 -561.252837 
L 569.762826 -563.255415 
L 568.312646 -564.191245 
L 566.862467 -564.523161 
L 565.412288 -564.612237 
L 563.962108 -564.630729 
L 562.511929 -564.634078 
L 561.06175 -564.634078 
L 559.61157 -564.634078 
L 558.161391 -564.634078 
L 556.711212 -564.634078 
L 555.261032 -564.634078 
L 553.810853 -564.634078 
L 552.360674 -564.634078 
L 550.910494 -564.634078 
L 549.460315 -564.634078 
L 548.010136 -564.634078 
L 546.559956 -564.634078 
L 545.109777 -564.634078 
L 543.659598 -564.634078 
L 542.209418 -564.634078 
L 540.759239 -564.634078 
L 539.30906 -564.634078 
L 537.85888 -564.634078 
L 536.408701 -564.634078 
L 534.958522 -564.634078 
L 533.508342 -564.634078 
L 532.058163 -564.634078 
L 530.607984 -564.631697 
L 529.157804 -564.61855 
L 527.707625 -564.555219 
L 526.257446 -564.321769 
L 524.807266 -563.670664 
L 523.357087 -562.311803 
L 521.906908 -560.246248 
L 520.456729 -558.057538 
L 519.006549 -564.669486 
L 517.55637 -555.726758 
L 516.106191 -554.449223 
L 514.656011 -554.715426 
L 513.205832 -547.087326 
L 511.755653 -549.129228 
L 510.305473 -549.220275 
L 508.855294 -544.728541 
L 507.405115 -551.123785 
L 505.954935 -551.37534 
L 504.504756 -553.599075 
L 503.054577 -560.126621 
L 501.604397 -557.279794 
L 500.154218 -563.578023 
L 498.704039 -563.232965 
L 497.253859 -564.18738 
L 495.80368 -567.668061 
L 494.353501 -560.934193 
L 492.903321 -558.239625 
L 491.453142 -563.786511 
L 490.002963 -557.069193 
L 488.552783 -558.563847 
L 487.102604 -561.422902 
L 485.652425 -562.935226 
L 484.202245 -560.263096 
L 482.752066 -564.753466 
L 481.301887 -559.731788 
L 479.851707 -558.120725 
L 478.401528 -554.055336 
L 476.951349 -547.518213 
L 475.501169 -548.285944 
L 474.05099 -545.787868 
L 472.600811 -539.383188 
L 471.150632 -534.318936 
L 469.700452 -545.83769 
L 468.250273 -547.988348 
L 466.800094 -543.796237 
L 465.349914 -544.36691 
L 463.899735 -541.412205 
L 462.449556 -546.804114 
L 460.999376 -531.158636 
L 459.549197 -537.602964 
L 458.099018 -524.05422 
L 456.648838 -517.698313 
L 455.198659 -519.777982 
L 453.74848 -509.207843 
L 452.2983 -497.926859 
L 450.848121 -489.111886 
L 449.397942 -486.128704 
L 447.947762 -484.135085 
L 446.497583 -464.01364 
L 445.047404 -478.75405 
L 443.597224 -485.845437 
L 442.147045 -494.286985 
L 440.696866 -484.611716 
L 439.246686 -496.310521 
L 437.796507 -521.873107 
L 436.346328 -527.946187 
L 434.896148 -510.614155 
L 433.445969 -508.403704 
L 431.99579 -517.721073 
L 430.54561 -491.680124 
L 429.095431 -497.906507 
L 427.645252 -502.479357 
L 426.195073 -515.11389 
L 424.744893 -520.77548 
L 423.294714 -539.710637 
L 421.844535 -553.139969 
L 420.394355 -560.325348 
L 418.944176 -563.104902 
L 417.493997 -563.265736 
L 416.043817 -561.276723 
L 414.593638 -556.702936 
L 413.143459 -549.829661 
L 411.693279 -543.08559 
L 410.2431 -561.580455 
L 408.792921 -542.822626 
L 407.342741 -548.757233 
L 405.892562 -553.406533 
z
" style="stroke: #9467bd; stroke-opacity: 0.2"/>
    </defs>
    <g clip-path="url(#pe78e9f9c05)">
     <use xlink:href="#mb8c098462c" x="0" y="720" style="fill: #9467bd; fill-opacity: 0.2; stroke: #9467bd; stroke-opacity: 0.2"/>
    </g>
   </g>
   <g id="PolyCollection_2">
    <defs>
     <path id="m68f7dbc1d1" d="M 405.892562 -562.377519 
L 405.892562 -558.152998 
L 407.342741 -555.32992 
L 408.792921 -556.101271 
L 410.2431 -556.605115 
L 411.693279 -548.532258 
L 413.143459 -550.46308 
L 414.593638 -555.195643 
L 416.043817 -557.584455 
L 417.493997 -553.155873 
L 418.944176 -552.157302 
L 420.394355 -554.703057 
L 421.844535 -545.735741 
L 423.294714 -550.131321 
L 424.744893 -541.650316 
L 426.195073 -553.65336 
L 427.645252 -555.351428 
L 429.095431 -554.54802 
L 430.54561 -550.545704 
L 431.99579 -545.242696 
L 433.445969 -528.381311 
L 434.896148 -540.877958 
L 436.346328 -541.125486 
L 437.796507 -540.550859 
L 439.246686 -525.652784 
L 440.696866 -526.773105 
L 442.147045 -547.436399 
L 443.597224 -554.053745 
L 445.047404 -559.456414 
L 446.497583 -562.622966 
L 447.947762 -563.97862 
L 449.397942 -564.313424 
L 450.848121 -564.071508 
L 452.2983 -563.347167 
L 453.74848 -562.234709 
L 455.198659 -561.133412 
L 456.648838 -553.35606 
L 458.099018 -560.982894 
L 459.549197 -561.843994 
L 460.999376 -562.616304 
L 462.449556 -563.03002 
L 463.899735 -558.68251 
L 465.349914 -563.520903 
L 466.800094 -563.890137 
L 468.250273 -564.237157 
L 469.700452 -564.459259 
L 471.150632 -564.540452 
L 472.600811 -564.50602 
L 474.05099 -564.386748 
L 475.501169 -564.24906 
L 476.951349 -564.208607 
L 478.401528 -562.216449 
L 479.851707 -561.419196 
L 481.301887 -564.636263 
L 482.752066 -564.314023 
L 484.202245 -563.442178 
L 485.652425 -562.022081 
L 487.102604 -560.259559 
L 488.552783 -552.706569 
L 490.002963 -556.845807 
L 491.453142 -555.492847 
L 492.903321 -549.019097 
L 494.353501 -553.944523 
L 495.80368 -553.934554 
L 497.253859 -545.659218 
L 498.704039 -552.834437 
L 500.154218 -559.104746 
L 501.604397 -561.540584 
L 503.054577 -563.245122 
L 504.504756 -564.138969 
L 505.954935 -564.500494 
L 507.405115 -564.625367 
L 508.855294 -564.688249 
L 510.305473 -564.763943 
L 511.755653 -564.881321 
L 513.205832 -564.266774 
L 514.656011 -565.260765 
L 516.106191 -565.43976 
L 517.55637 -562.995141 
L 519.006549 -565.365938 
L 520.456729 -565.129389 
L 521.906908 -564.897255 
L 523.357087 -564.743404 
L 524.807266 -564.669512 
L 526.257446 -564.643024 
L 527.707625 -564.63584 
L 529.157804 -564.622208 
L 530.607984 -564.554912 
L 532.058163 -564.22633 
L 533.508342 -563.000946 
L 534.958522 -559.509299 
L 536.408701 -551.940168 
L 537.85888 -539.588412 
L 539.30906 -524.667506 
L 540.759239 -492.022923 
L 542.209418 -505.133954 
L 543.659598 -490.230777 
L 545.109777 -496.070026 
L 546.559956 -518.715843 
L 548.010136 -515.359316 
L 549.460315 -526.237752 
L 550.910494 -542.0551 
L 552.360674 -546.390524 
L 553.810853 -537.839199 
L 555.261032 -553.49731 
L 556.711212 -557.511933 
L 558.161391 -560.93361 
L 559.61157 -563.088842 
L 561.06175 -564.06496 
L 562.511929 -564.320665 
L 563.962108 -564.254843 
L 565.412288 -564.113931 
L 566.862467 -562.220623 
L 568.312646 -564.117659 
L 569.762826 -564.279149 
L 571.213005 -564.444098 
L 572.663184 -564.554883 
L 574.113363 -564.611804 
L 575.563543 -564.64999 
L 577.013722 -564.746617 
L 578.463901 -565.08475 
L 579.914081 -566.025275 
L 581.36426 -567.983698 
L 582.814439 -570.940687 
L 584.264619 -573.957582 
L 585.714798 -567.18118 
L 587.164977 -574.865443 
L 588.615157 -572.368146 
L 590.065336 -565.54948 
L 591.515515 -565.4057 
L 592.965695 -561.740458 
L 594.415874 -558.681845 
L 595.866053 -551.784208 
L 597.316233 -557.525305 
L 598.766412 -558.854594 
L 600.216591 -559.942318 
L 601.666771 -560.363133 
L 603.11695 -556.572768 
L 604.567129 -561.306574 
L 606.017309 -562.388523 
L 607.467488 -563.438468 
L 608.917667 -564.136737 
L 610.367847 -564.472615 
L 611.818026 -564.593254 
L 613.268205 -564.626039 
L 614.718385 -564.632845 
L 616.168564 -564.633633 
L 617.618743 -564.631174 
L 619.068923 -564.619331 
L 620.519102 -564.575754 
L 621.969281 -564.454428 
L 623.41946 -564.203119 
L 624.86964 -563.828941 
L 626.319819 -563.462611 
L 627.769998 -554.828144 
L 629.220178 -563.462611 
L 630.670357 -563.828941 
L 632.120536 -564.203119 
L 633.570716 -564.454428 
L 635.020895 -564.575309 
L 636.471074 -564.616428 
L 636.471074 -564.616428 
L 636.471074 -564.616428 
L 635.020895 -564.575309 
L 633.570716 -564.454428 
L 632.120536 -564.203119 
L 630.670357 -563.828941 
L 629.220178 -563.462611 
L 627.769998 -571.785119 
L 626.319819 -563.462611 
L 624.86964 -563.828941 
L 623.41946 -564.203119 
L 621.969281 -564.454428 
L 620.519102 -564.575754 
L 619.068923 -564.619331 
L 617.618743 -564.631174 
L 616.168564 -564.633633 
L 614.718385 -564.632845 
L 613.268205 -564.626039 
L 611.818026 -564.593254 
L 610.367847 -564.472615 
L 608.917667 -564.136737 
L 607.467488 -563.438468 
L 606.017309 -562.388523 
L 604.567129 -561.306574 
L 603.11695 -564.677761 
L 601.666771 -560.363133 
L 600.216591 -559.942318 
L 598.766412 -558.854594 
L 597.316233 -557.525305 
L 595.866053 -562.573976 
L 594.415874 -558.681845 
L 592.965695 -561.740458 
L 591.515515 -565.4057 
L 590.065336 -572.515081 
L 588.615157 -572.368146 
L 587.164977 -574.865443 
L 585.714798 -583.908949 
L 584.264619 -573.957582 
L 582.814439 -570.940687 
L 581.36426 -567.983698 
L 579.914081 -566.025275 
L 578.463901 -565.08475 
L 577.013722 -564.746617 
L 575.563543 -564.64999 
L 574.113363 -564.611804 
L 572.663184 -564.554883 
L 571.213005 -564.444098 
L 569.762826 -564.279149 
L 568.312646 -564.117659 
L 566.862467 -565.877174 
L 565.412288 -564.113931 
L 563.962108 -564.254843 
L 562.511929 -564.320665 
L 561.06175 -564.06496 
L 559.61157 -563.088842 
L 558.161391 -560.93361 
L 556.711212 -557.511933 
L 555.261032 -553.49731 
L 553.810853 -561.770994 
L 552.360674 -546.390524 
L 550.910494 -542.0551 
L 549.460315 -545.234734 
L 548.010136 -539.814667 
L 546.559956 -518.715843 
L 545.109777 -525.214174 
L 543.659598 -520.408841 
L 542.209418 -505.133954 
L 540.759239 -531.685834 
L 539.30906 -524.667506 
L 537.85888 -539.588412 
L 536.408701 -551.940168 
L 534.958522 -559.509299 
L 533.508342 -563.000946 
L 532.058163 -564.22633 
L 530.607984 -564.554912 
L 529.157804 -564.622208 
L 527.707625 -564.63584 
L 526.257446 -564.643024 
L 524.807266 -564.669512 
L 523.357087 -564.743404 
L 521.906908 -564.897255 
L 520.456729 -565.129389 
L 519.006549 -565.365938 
L 517.55637 -567.985302 
L 516.106191 -565.43976 
L 514.656011 -565.260765 
L 513.205832 -565.837593 
L 511.755653 -564.881321 
L 510.305473 -564.763943 
L 508.855294 -564.688249 
L 507.405115 -564.625367 
L 505.954935 -564.500494 
L 504.504756 -564.138969 
L 503.054577 -563.245122 
L 501.604397 -561.540584 
L 500.154218 -559.104746 
L 498.704039 -560.305219 
L 497.253859 -563.815932 
L 495.80368 -553.934554 
L 494.353501 -553.944523 
L 492.903321 -559.976956 
L 491.453142 -555.492847 
L 490.002963 -556.845807 
L 488.552783 -564.222518 
L 487.102604 -560.259559 
L 485.652425 -562.022081 
L 484.202245 -563.442178 
L 482.752066 -564.314023 
L 481.301887 -564.636263 
L 479.851707 -567.707139 
L 478.401528 -566.467331 
L 476.951349 -564.208607 
L 475.501169 -564.24906 
L 474.05099 -564.386748 
L 472.600811 -564.50602 
L 471.150632 -564.540452 
L 469.700452 -564.459259 
L 468.250273 -564.237157 
L 466.800094 -563.890137 
L 465.349914 -563.520903 
L 463.899735 -567.81511 
L 462.449556 -563.03002 
L 460.999376 -562.616304 
L 459.549197 -561.843994 
L 458.099018 -560.982894 
L 456.648838 -567.902581 
L 455.198659 -561.133412 
L 453.74848 -562.234709 
L 452.2983 -563.347167 
L 450.848121 -564.071508 
L 449.397942 -564.313424 
L 447.947762 -563.97862 
L 446.497583 -562.622966 
L 445.047404 -559.456414 
L 443.597224 -554.053745 
L 442.147045 -547.436399 
L 440.696866 -557.450189 
L 439.246686 -554.453493 
L 437.796507 -540.550859 
L 436.346328 -541.125486 
L 434.896148 -540.877958 
L 433.445969 -554.931864 
L 431.99579 -545.242696 
L 430.54561 -550.545704 
L 429.095431 -554.54802 
L 427.645252 -555.351428 
L 426.195073 -553.65336 
L 424.744893 -561.741334 
L 423.294714 -552.390597 
L 421.844535 -559.403756 
L 420.394355 -554.703057 
L 418.944176 -561.086903 
L 417.493997 -562.198686 
L 416.043817 -557.584455 
L 414.593638 -557.916416 
L 413.143459 -560.495034 
L 411.693279 -562.289317 
L 410.2431 -556.605115 
L 408.792921 -560.530587 
L 407.342741 -563.957404 
L 405.892562 -562.377519 
z
" style="stroke: #1f77b4; stroke-opacity: 0.2"/>
    </defs>
    <g clip-path="url(#pe78e9f9c05)">
     <use xlink:href="#m68f7dbc1d1" x="0" y="720" style="fill: #1f77b4; fill-opacity: 0.2; stroke: #1f77b4; stroke-opacity: 0.2"/>
    </g>
   </g>
   <g id="PolyCollection_3">
    <defs>
     <path id="m5a4d2d82e2" d="M 405.892562 -564.634078 
L 405.892562 -564.634078 
L 407.342741 -564.634078 
L 408.792921 -564.634078 
L 410.2431 -564.634078 
L 411.693279 -564.634078 
L 413.143459 -564.634078 
L 414.593638 -564.634078 
L 416.043817 -564.634078 
L 417.493997 -564.634078 
L 418.944176 -564.630936 
L 420.394355 -564.613587 
L 421.844535 -564.530018 
L 423.294714 -564.217248 
L 424.744893 -563.332042 
L 426.195073 -561.418694 
L 427.645252 -558.263229 
L 429.095431 -554.244208 
L 430.54561 -540.22746 
L 431.99579 -546.851441 
L 433.445969 -545.106736 
L 434.896148 -533.609067 
L 436.346328 -549.500574 
L 437.796507 -554.605088 
L 439.246686 -559.035658 
L 440.696866 -561.255829 
L 442.147045 -560.980346 
L 443.597224 -558.927449 
L 445.047404 -556.550257 
L 446.497583 -546.377045 
L 447.947762 -556.584577 
L 449.397942 -559.101742 
L 450.848121 -561.672832 
L 452.2983 -563.399647 
L 453.74848 -564.233547 
L 455.198659 -564.537444 
L 456.648838 -564.642569 
L 458.099018 -564.766892 
L 459.549197 -565.145058 
L 460.999376 -566.144649 
L 462.449556 -568.139384 
L 463.899735 -571.010631 
L 465.349914 -570.772198 
L 466.800094 -569.589422 
L 468.250273 -573.446404 
L 469.700452 -570.627338 
L 471.150632 -567.815628 
L 472.600811 -565.953516 
L 474.05099 -565.071081 
L 475.501169 -564.799051 
L 476.951349 -564.883663 
L 478.401528 -565.343047 
L 479.851707 -566.334626 
L 481.301887 -567.849082 
L 482.752066 -569.462025 
L 484.202245 -563.973509 
L 485.652425 -570.979579 
L 487.102604 -571.067943 
L 488.552783 -571.093595 
L 490.002963 -564.121037 
L 491.453142 -569.633416 
L 492.903321 -567.970779 
L 494.353501 -566.400534 
L 495.80368 -565.367448 
L 497.253859 -564.871602 
L 498.704039 -564.694133 
L 500.154218 -564.645904 
L 501.604397 -564.635892 
L 503.054577 -564.634078 
L 504.504756 -564.634078 
L 505.954935 -564.634078 
L 507.405115 -564.634078 
L 508.855294 -564.636297 
L 510.305473 -564.648546 
L 511.755653 -564.71148 
L 513.205832 -564.953829 
L 514.656011 -565.688877 
L 516.106191 -567.455624 
L 517.55637 -570.910209 
L 519.006549 -576.555115 
L 520.456729 -577.405314 
L 521.906908 -593.514603 
L 523.357087 -592.592474 
L 524.807266 -596.931596 
L 526.257446 -592.872638 
L 527.707625 -592.270168 
L 529.157804 -581.500371 
L 530.607984 -572.897593 
L 532.058163 -567.858906 
L 533.508342 -565.630387 
L 534.958522 -564.88497 
L 536.408701 -564.732872 
L 537.85888 -564.908545 
L 539.30906 -565.697517 
L 540.759239 -567.929496 
L 542.209418 -572.633056 
L 543.659598 -579.981823 
L 545.109777 -588.343429 
L 546.559956 -569.208161 
L 548.010136 -599.619958 
L 549.460315 -602.384327 
L 550.910494 -588.160641 
L 552.360674 -583.005493 
L 553.810853 -598.254445 
L 555.261032 -591.816628 
L 556.711212 -571.34616 
L 558.161391 -580.16187 
L 559.61157 -577.285642 
L 561.06175 -577.156493 
L 562.511929 -578.61249 
L 563.962108 -569.376803 
L 565.412288 -577.267417 
L 566.862467 -573.774802 
L 568.312646 -571.205662 
L 569.762826 -571.775416 
L 571.213005 -576.344441 
L 572.663184 -584.294831 
L 574.113363 -586.313559 
L 575.563543 -601.682159 
L 577.013722 -595.551713 
L 578.463901 -596.278228 
L 579.914081 -596.327058 
L 581.36426 -588.226262 
L 582.814439 -573.055446 
L 584.264619 -575.292743 
L 585.714798 -570.93245 
L 587.164977 -568.155922 
L 588.615157 -567.343425 
L 590.065336 -568.624082 
L 591.515515 -571.571451 
L 592.965695 -575.009243 
L 594.415874 -570.533678 
L 595.866053 -578.804155 
L 597.316233 -577.385926 
L 598.766412 -580.730122 
L 600.216591 -574.566822 
L 601.666771 -581.854191 
L 603.11695 -580.893652 
L 604.567129 -572.486978 
L 606.017309 -578.653099 
L 607.467488 -579.809527 
L 608.917667 -583.141462 
L 610.367847 -581.156473 
L 611.818026 -580.461318 
L 613.268205 -583.028973 
L 614.718385 -576.67126 
L 616.168564 -570.837975 
L 617.618743 -567.143821 
L 619.068923 -565.429875 
L 620.519102 -564.831546 
L 621.969281 -564.672388 
L 623.41946 -564.639643 
L 624.86964 -564.634078 
L 626.319819 -564.634078 
L 627.769998 -564.634078 
L 629.220178 -564.634078 
L 630.670357 -564.634078 
L 632.120536 -564.634078 
L 633.570716 -564.634078 
L 635.020895 -564.634078 
L 636.471074 -564.634078 
L 636.471074 -564.634078 
L 636.471074 -564.634078 
L 635.020895 -564.634078 
L 633.570716 -564.634078 
L 632.120536 -564.634078 
L 630.670357 -564.634078 
L 629.220178 -564.634078 
L 627.769998 -564.634078 
L 626.319819 -564.634078 
L 624.86964 -564.634078 
L 623.41946 -564.639643 
L 621.969281 -564.672388 
L 620.519102 -564.831546 
L 619.068923 -565.429875 
L 617.618743 -567.143821 
L 616.168564 -570.837975 
L 614.718385 -576.67126 
L 613.268205 -583.028973 
L 611.818026 -593.432351 
L 610.367847 -591.985114 
L 608.917667 -583.141462 
L 607.467488 -579.809527 
L 606.017309 -578.653099 
L 604.567129 -586.419572 
L 603.11695 -580.893652 
L 601.666771 -581.854191 
L 600.216591 -588.928054 
L 598.766412 -580.730122 
L 597.316233 -581.848482 
L 595.866053 -578.804155 
L 594.415874 -584.568884 
L 592.965695 -575.009243 
L 591.515515 -571.571451 
L 590.065336 -568.624082 
L 588.615157 -567.343425 
L 587.164977 -568.155922 
L 585.714798 -570.93245 
L 584.264619 -575.292743 
L 582.814439 -589.000264 
L 581.36426 -588.226262 
L 579.914081 -596.327058 
L 578.463901 -609.781298 
L 577.013722 -614.974665 
L 575.563543 -601.682159 
L 574.113363 -601.09301 
L 572.663184 -584.294831 
L 571.213005 -576.344441 
L 569.762826 -571.775416 
L 568.312646 -571.205662 
L 566.862467 -573.774802 
L 565.412288 -577.267417 
L 563.962108 -588.975765 
L 562.511929 -578.61249 
L 561.06175 -577.156493 
L 559.61157 -577.285642 
L 558.161391 -580.16187 
L 556.711212 -599.32486 
L 555.261032 -591.816628 
L 553.810853 -598.254445 
L 552.360674 -622.368595 
L 550.910494 -619.491357 
L 549.460315 -602.384327 
L 548.010136 -599.619958 
L 546.559956 -621.23758 
L 545.109777 -588.343429 
L 543.659598 -579.981823 
L 542.209418 -572.633056 
L 540.759239 -567.929496 
L 539.30906 -565.697517 
L 537.85888 -564.908545 
L 536.408701 -564.732872 
L 534.958522 -564.88497 
L 533.508342 -565.630387 
L 532.058163 -567.858906 
L 530.607984 -572.897593 
L 529.157804 -581.500371 
L 527.707625 -592.270168 
L 526.257446 -609.869524 
L 524.807266 -612.694877 
L 523.357087 -610.314266 
L 521.906908 -593.514603 
L 520.456729 -591.409119 
L 519.006549 -576.555115 
L 517.55637 -570.910209 
L 516.106191 -567.455624 
L 514.656011 -565.688877 
L 513.205832 -564.953829 
L 511.755653 -564.71148 
L 510.305473 -564.648546 
L 508.855294 -564.636297 
L 507.405115 -564.634078 
L 505.954935 -564.634078 
L 504.504756 -564.634078 
L 503.054577 -564.634078 
L 501.604397 -564.635892 
L 500.154218 -564.645904 
L 498.704039 -564.694133 
L 497.253859 -564.871602 
L 495.80368 -565.367448 
L 494.353501 -566.400534 
L 492.903321 -567.970779 
L 491.453142 -569.633416 
L 490.002963 -577.367084 
L 488.552783 -571.093595 
L 487.102604 -571.067943 
L 485.652425 -570.979579 
L 484.202245 -577.161159 
L 482.752066 -569.462025 
L 481.301887 -567.849082 
L 479.851707 -566.334626 
L 478.401528 -565.343047 
L 476.951349 -564.883663 
L 475.501169 -564.799051 
L 474.05099 -565.071081 
L 472.600811 -565.953516 
L 471.150632 -567.815628 
L 469.700452 -570.627338 
L 468.250273 -573.446404 
L 466.800094 -579.918334 
L 465.349914 -576.661311 
L 463.899735 -571.010631 
L 462.449556 -568.139384 
L 460.999376 -566.144649 
L 459.549197 -565.145058 
L 458.099018 -564.766892 
L 456.648838 -564.642569 
L 455.198659 -564.537444 
L 453.74848 -564.233547 
L 452.2983 -563.399647 
L 450.848121 -561.672832 
L 449.397942 -559.101742 
L 447.947762 -556.584577 
L 446.497583 -564.638025 
L 445.047404 -556.550257 
L 443.597224 -558.927449 
L 442.147045 -560.980346 
L 440.696866 -561.255829 
L 439.246686 -559.035658 
L 437.796507 -554.605088 
L 436.346328 -549.500574 
L 434.896148 -558.192012 
L 433.445969 -545.106736 
L 431.99579 -546.851441 
L 430.54561 -560.119061 
L 429.095431 -554.244208 
L 427.645252 -558.263229 
L 426.195073 -561.418694 
L 424.744893 -563.332042 
L 423.294714 -564.217248 
L 421.844535 -564.530018 
L 420.394355 -564.613587 
L 418.944176 -564.630936 
L 417.493997 -564.634078 
L 416.043817 -564.634078 
L 414.593638 -564.634078 
L 413.143459 -564.634078 
L 411.693279 -564.634078 
L 410.2431 -564.634078 
L 408.792921 -564.634078 
L 407.342741 -564.634078 
L 405.892562 -564.634078 
z
" style="stroke: #d62728; stroke-opacity: 0.2"/>
    </defs>
    <g clip-path="url(#pe78e9f9c05)">
     <use xlink:href="#m5a4d2d82e2" x="0" y="720" style="fill: #d62728; fill-opacity: 0.2; stroke: #d62728; stroke-opacity: 0.2"/>
    </g>
   </g>
   <g id="PolyCollection_4">
    <defs>
     <path id="m8f60bbd05e" d="M 405.892562 -564.634078 
L 405.892562 -564.634078 
L 407.342741 -564.634078 
L 408.792921 -564.634078 
L 410.2431 -564.634078 
L 411.693279 -564.634078 
L 413.143459 -564.634078 
L 414.593638 -564.634078 
L 416.043817 -564.634078 
L 417.493997 -564.634078 
L 418.944176 -564.634078 
L 420.394355 -564.634078 
L 421.844535 -564.634078 
L 423.294714 -564.634078 
L 424.744893 -564.634078 
L 426.195073 -564.634078 
L 427.645252 -564.634078 
L 429.095431 -564.634078 
L 430.54561 -564.634078 
L 431.99579 -564.634078 
L 433.445969 -564.634078 
L 434.896148 -564.634078 
L 436.346328 -564.634078 
L 437.796507 -564.634078 
L 439.246686 -564.634078 
L 440.696866 -564.634078 
L 442.147045 -564.634078 
L 443.597224 -564.634078 
L 445.047404 -564.634078 
L 446.497583 -564.639228 
L 447.947762 -564.667661 
L 449.397942 -564.812532 
L 450.848121 -565.360163 
L 452.2983 -566.973607 
L 453.74848 -570.653801 
L 455.198659 -577.135545 
L 456.648838 -585.834538 
L 458.099018 -575.682547 
L 459.549197 -598.983291 
L 460.999376 -576.455257 
L 462.449556 -590.419201 
L 463.899735 -581.00808 
L 465.349914 -572.960871 
L 466.800094 -567.994565 
L 468.250273 -565.703283 
L 469.700452 -564.901074 
L 471.150632 -564.685639 
L 472.600811 -564.641985 
L 474.05099 -564.634078 
L 475.501169 -564.634078 
L 476.951349 -564.634078 
L 478.401528 -564.634078 
L 479.851707 -564.634078 
L 481.301887 -564.634078 
L 482.752066 -564.636159 
L 484.202245 -564.647646 
L 485.652425 -564.70298 
L 487.102604 -564.906592 
L 488.552783 -565.473479 
L 490.002963 -566.649363 
L 491.453142 -568.406886 
L 492.903321 -570.162883 
L 494.353501 -562.548253 
L 495.80368 -570.780438 
L 497.253859 -570.009926 
L 498.704039 -569.662887 
L 500.154218 -569.860556 
L 501.604397 -563.756229 
L 503.054577 -569.090057 
L 504.504756 -567.663592 
L 505.954935 -566.254997 
L 507.405115 -565.33186 
L 508.855294 -564.951382 
L 510.305473 -564.993551 
L 511.755653 -565.37342 
L 513.205832 -565.989668 
L 514.656011 -566.576199 
L 516.106191 -561.672367 
L 517.55637 -566.264819 
L 519.006549 -565.22664 
L 520.456729 -563.775106 
L 521.906908 -558.923196 
L 523.357087 -557.246732 
L 524.807266 -549.261781 
L 526.257446 -536.675224 
L 527.707625 -510.89169 
L 529.157804 -487.800444 
L 530.607984 -469.01961 
L 532.058163 -445.524659 
L 533.508342 -417.515494 
L 534.958522 -405.448216 
L 536.408701 -397.740496 
L 537.85888 -409.231814 
L 539.30906 -427.858851 
L 540.759239 -471.624247 
L 542.209418 -484.831431 
L 543.659598 -521.489307 
L 545.109777 -540.382234 
L 546.559956 -553.005735 
L 548.010136 -559.452118 
L 549.460315 -560.853037 
L 550.910494 -558.191024 
L 552.360674 -552.042021 
L 553.810853 -543.324121 
L 555.261032 -523.773457 
L 556.711212 -524.869111 
L 558.161391 -511.388246 
L 559.61157 -504.297668 
L 561.06175 -509.565796 
L 562.511929 -513.38722 
L 563.962108 -533.000521 
L 565.412288 -534.950698 
L 566.862467 -546.815906 
L 568.312646 -546.088847 
L 569.762826 -540.766768 
L 571.213005 -525.273803 
L 572.663184 -524.794402 
L 574.113363 -539.474702 
L 575.563543 -548.1873 
L 577.013722 -556.170665 
L 578.463901 -561.195445 
L 579.914081 -563.436864 
L 581.36426 -563.906916 
L 582.814439 -563.167414 
L 584.264619 -561.232737 
L 585.714798 -558.293558 
L 587.164977 -555.404643 
L 588.615157 -545.123856 
L 590.065336 -555.272281 
L 591.515515 -557.746772 
L 592.965695 -559.518767 
L 594.415874 -558.939862 
L 595.866053 -555.714192 
L 597.316233 -551.060008 
L 598.766412 -542.461222 
L 600.216591 -545.491839 
L 601.666771 -536.705197 
L 603.11695 -548.688181 
L 604.567129 -551.258721 
L 606.017309 -544.365236 
L 607.467488 -556.735339 
L 608.917667 -559.539715 
L 610.367847 -561.409152 
L 611.818026 -561.325431 
L 613.268205 -558.489825 
L 614.718385 -552.808086 
L 616.168564 -545.660504 
L 617.618743 -529.337805 
L 619.068923 -528.680197 
L 620.519102 -533.188228 
L 621.969281 -537.752955 
L 623.41946 -532.050584 
L 624.86964 -528.939775 
L 626.319819 -528.109116 
L 627.769998 -536.492882 
L 629.220178 -530.941781 
L 630.670357 -504.166757 
L 632.120536 -493.526462 
L 633.570716 -481.717693 
L 635.020895 -472.855867 
L 636.471074 -471.067763 
L 636.471074 -507.06473 
L 636.471074 -507.06473 
L 635.020895 -512.096791 
L 633.570716 -517.274912 
L 632.120536 -525.874546 
L 630.670357 -538.243133 
L 629.220178 -530.941781 
L 627.769998 -536.492882 
L 626.319819 -547.911381 
L 624.86964 -546.692754 
L 623.41946 -543.503519 
L 621.969281 -537.752955 
L 620.519102 -541.109358 
L 619.068923 -545.495993 
L 617.618743 -550.154719 
L 616.168564 -545.660504 
L 614.718385 -552.808086 
L 613.268205 -558.489825 
L 611.818026 -561.325431 
L 610.367847 -561.409152 
L 608.917667 -559.539715 
L 607.467488 -556.735339 
L 606.017309 -563.393602 
L 604.567129 -551.258721 
L 603.11695 -548.688181 
L 601.666771 -556.094255 
L 600.216591 -545.491839 
L 598.766412 -551.725895 
L 597.316233 -551.060008 
L 595.866053 -555.714192 
L 594.415874 -558.939862 
L 592.965695 -559.518767 
L 591.515515 -557.746772 
L 590.065336 -555.272281 
L 588.615157 -563.184209 
L 587.164977 -555.404643 
L 585.714798 -558.293558 
L 584.264619 -561.232737 
L 582.814439 -563.167414 
L 581.36426 -563.906916 
L 579.914081 -563.436864 
L 578.463901 -561.195445 
L 577.013722 -556.170665 
L 575.563543 -548.1873 
L 574.113363 -539.474702 
L 572.663184 -543.630415 
L 571.213005 -545.075944 
L 569.762826 -540.766768 
L 568.312646 -546.088847 
L 566.862467 -546.815906 
L 565.412288 -548.680573 
L 563.962108 -533.000521 
L 562.511929 -534.172802 
L 561.06175 -525.168689 
L 559.61157 -526.800836 
L 558.161391 -525.38961 
L 556.711212 -524.869111 
L 555.261032 -543.575702 
L 553.810853 -543.324121 
L 552.360674 -552.042021 
L 550.910494 -558.191024 
L 549.460315 -560.853037 
L 548.010136 -559.452118 
L 546.559956 -553.005735 
L 545.109777 -540.382234 
L 543.659598 -521.489307 
L 542.209418 -510.679866 
L 540.759239 -471.624247 
L 539.30906 -465.168071 
L 537.85888 -444.966805 
L 536.408701 -438.430181 
L 534.958522 -437.89845 
L 533.508342 -454.781211 
L 532.058163 -468.351631 
L 530.607984 -489.655501 
L 529.157804 -513.54607 
L 527.707625 -529.220088 
L 526.257446 -536.675224 
L 524.807266 -549.261781 
L 523.357087 -557.246732 
L 521.906908 -564.137551 
L 520.456729 -563.775106 
L 519.006549 -565.22664 
L 517.55637 -566.264819 
L 516.106191 -571.818086 
L 514.656011 -566.576199 
L 513.205832 -565.989668 
L 511.755653 -565.37342 
L 510.305473 -564.993551 
L 508.855294 -564.951382 
L 507.405115 -565.33186 
L 505.954935 -566.254997 
L 504.504756 -567.663592 
L 503.054577 -569.090057 
L 501.604397 -575.999373 
L 500.154218 -569.860556 
L 498.704039 -569.662887 
L 497.253859 -570.009926 
L 495.80368 -570.780438 
L 494.353501 -579.5615 
L 492.903321 -570.162883 
L 491.453142 -568.406886 
L 490.002963 -566.649363 
L 488.552783 -565.473479 
L 487.102604 -564.906592 
L 485.652425 -564.70298 
L 484.202245 -564.647646 
L 482.752066 -564.636159 
L 481.301887 -564.634078 
L 479.851707 -564.634078 
L 478.401528 -564.634078 
L 476.951349 -564.634078 
L 475.501169 -564.634078 
L 474.05099 -564.634078 
L 472.600811 -564.641985 
L 471.150632 -564.685639 
L 469.700452 -564.901074 
L 468.250273 -565.703283 
L 466.800094 -567.994565 
L 465.349914 -572.960871 
L 463.899735 -581.00808 
L 462.449556 -590.419201 
L 460.999376 -618.577243 
L 459.549197 -598.983291 
L 458.099018 -612.882471 
L 456.648838 -585.834538 
L 455.198659 -577.135545 
L 453.74848 -570.653801 
L 452.2983 -566.973607 
L 450.848121 -565.360163 
L 449.397942 -564.812532 
L 447.947762 -564.667661 
L 446.497583 -564.639228 
L 445.047404 -564.634078 
L 443.597224 -564.634078 
L 442.147045 -564.634078 
L 440.696866 -564.634078 
L 439.246686 -564.634078 
L 437.796507 -564.634078 
L 436.346328 -564.634078 
L 434.896148 -564.634078 
L 433.445969 -564.634078 
L 431.99579 -564.634078 
L 430.54561 -564.634078 
L 429.095431 -564.634078 
L 427.645252 -564.634078 
L 426.195073 -564.634078 
L 424.744893 -564.634078 
L 423.294714 -564.634078 
L 421.844535 -564.634078 
L 420.394355 -564.634078 
L 418.944176 -564.634078 
L 417.493997 -564.634078 
L 416.043817 -564.634078 
L 414.593638 -564.634078 
L 413.143459 -564.634078 
L 411.693279 -564.634078 
L 410.2431 -564.634078 
L 408.792921 -564.634078 
L 407.342741 -564.634078 
L 405.892562 -564.634078 
z
" style="stroke: #ff7f0e; stroke-opacity: 0.2"/>
    </defs>
    <g clip-path="url(#pe78e9f9c05)">
     <use xlink:href="#m8f60bbd05e" x="0" y="720" style="fill: #ff7f0e; fill-opacity: 0.2; stroke: #ff7f0e; stroke-opacity: 0.2"/>
    </g>
   </g>
   <g id="matplotlib.axis_3">
    <g id="xtick_7">
     <g id="line2d_13">
      <g>
       <use xlink:href="#m38f9f95e99" x="405.863558" y="333.490909" style="stroke: #000000; stroke-width: 0.8"/>
      </g>
     </g>
     <g id="text_13">
      <!-- 0 -->
      <g transform="translate(402.682308 348.089347)scale(0.1 -0.1)">
       <use xlink:href="#DejaVuSans-30"/>
      </g>
     </g>
    </g>
    <g id="xtick_8">
     <g id="line2d_14">
      <g>
       <use xlink:href="#m38f9f95e99" x="463.870731" y="333.490909" style="stroke: #000000; stroke-width: 0.8"/>
      </g>
     </g>
     <g id="text_14">
      <!-- 2000 -->
      <g transform="translate(451.145731 348.089347)scale(0.1 -0.1)">
       <use xlink:href="#DejaVuSans-32"/>
       <use xlink:href="#DejaVuSans-30" x="63.623047"/>
       <use xlink:href="#DejaVuSans-30" x="127.246094"/>
       <use xlink:href="#DejaVuSans-30" x="190.869141"/>
      </g>
     </g>
    </g>
    <g id="xtick_9">
     <g id="line2d_15">
      <g>
       <use xlink:href="#m38f9f95e99" x="521.877904" y="333.490909" style="stroke: #000000; stroke-width: 0.8"/>
      </g>
     </g>
     <g id="text_15">
      <!-- 4000 -->
      <g transform="translate(509.152904 348.089347)scale(0.1 -0.1)">
       <use xlink:href="#DejaVuSans-34"/>
       <use xlink:href="#DejaVuSans-30" x="63.623047"/>
       <use xlink:href="#DejaVuSans-30" x="127.246094"/>
       <use xlink:href="#DejaVuSans-30" x="190.869141"/>
      </g>
     </g>
    </g>
    <g id="xtick_10">
     <g id="line2d_16">
      <g>
       <use xlink:href="#m38f9f95e99" x="579.885077" y="333.490909" style="stroke: #000000; stroke-width: 0.8"/>
      </g>
     </g>
     <g id="text_16">
      <!-- 6000 -->
      <g transform="translate(567.160077 348.089347)scale(0.1 -0.1)">
       <use xlink:href="#DejaVuSans-36"/>
       <use xlink:href="#DejaVuSans-30" x="63.623047"/>
       <use xlink:href="#DejaVuSans-30" x="127.246094"/>
       <use xlink:href="#DejaVuSans-30" x="190.869141"/>
      </g>
     </g>
    </g>
    <g id="xtick_11">
     <g id="line2d_17">
      <g>
       <use xlink:href="#m38f9f95e99" x="637.89225" y="333.490909" style="stroke: #000000; stroke-width: 0.8"/>
      </g>
     </g>
     <g id="text_17">
      <!-- 8000 -->
      <g transform="translate(625.16725 348.089347)scale(0.1 -0.1)">
       <use xlink:href="#DejaVuSans-38"/>
       <use xlink:href="#DejaVuSans-30" x="63.623047"/>
       <use xlink:href="#DejaVuSans-30" x="127.246094"/>
       <use xlink:href="#DejaVuSans-30" x="190.869141"/>
      </g>
     </g>
    </g>
   </g>
   <g id="matplotlib.axis_4">
    <g id="ytick_7">
     <g id="line2d_18">
      <g>
       <use xlink:href="#m1f980e8fa3" x="394.363636" y="329.45347" style="stroke: #000000; stroke-width: 0.8"/>
      </g>
     </g>
     <g id="text_18">
      <!-- −0.6 -->
      <g transform="translate(363.080824 333.252688)scale(0.1 -0.1)">
       <defs>
        <path id="DejaVuSans-2212" d="M 678 2272 
L 4684 2272 
L 4684 1741 
L 678 1741 
L 678 2272 
z
" transform="scale(0.015625)"/>
       </defs>
       <use xlink:href="#DejaVuSans-2212"/>
       <use xlink:href="#DejaVuSans-30" x="83.789062"/>
       <use xlink:href="#DejaVuSans-2e" x="147.412109"/>
       <use xlink:href="#DejaVuSans-36" x="179.199219"/>
      </g>
     </g>
    </g>
    <g id="ytick_8">
     <g id="line2d_19">
      <g>
       <use xlink:href="#m1f980e8fa3" x="394.363636" y="300.438878" style="stroke: #000000; stroke-width: 0.8"/>
      </g>
     </g>
     <g id="text_19">
      <!-- −0.5 -->
      <g transform="translate(363.080824 304.238097)scale(0.1 -0.1)">
       <defs>
        <path id="DejaVuSans-35" d="M 691 4666 
L 3169 4666 
L 3169 4134 
L 1269 4134 
L 1269 2991 
Q 1406 3038 1543 3061 
Q 1681 3084 1819 3084 
Q 2600 3084 3056 2656 
Q 3513 2228 3513 1497 
Q 3513 744 3044 326 
Q 2575 -91 1722 -91 
Q 1428 -91 1123 -41 
Q 819 9 494 109 
L 494 744 
Q 775 591 1075 516 
Q 1375 441 1709 441 
Q 2250 441 2565 725 
Q 2881 1009 2881 1497 
Q 2881 1984 2565 2268 
Q 2250 2553 1709 2553 
Q 1456 2553 1204 2497 
Q 953 2441 691 2322 
L 691 4666 
z
" transform="scale(0.015625)"/>
       </defs>
       <use xlink:href="#DejaVuSans-2212"/>
       <use xlink:href="#DejaVuSans-30" x="83.789062"/>
       <use xlink:href="#DejaVuSans-2e" x="147.412109"/>
       <use xlink:href="#DejaVuSans-35" x="179.199219"/>
      </g>
     </g>
    </g>
    <g id="ytick_9">
     <g id="line2d_20">
      <g>
       <use xlink:href="#m1f980e8fa3" x="394.363636" y="271.424287" style="stroke: #000000; stroke-width: 0.8"/>
      </g>
     </g>
     <g id="text_20">
      <!-- −0.4 -->
      <g transform="translate(363.080824 275.223506)scale(0.1 -0.1)">
       <use xlink:href="#DejaVuSans-2212"/>
       <use xlink:href="#DejaVuSans-30" x="83.789062"/>
       <use xlink:href="#DejaVuSans-2e" x="147.412109"/>
       <use xlink:href="#DejaVuSans-34" x="179.199219"/>
      </g>
     </g>
    </g>
    <g id="ytick_10">
     <g id="line2d_21">
      <g>
       <use xlink:href="#m1f980e8fa3" x="394.363636" y="242.409696" style="stroke: #000000; stroke-width: 0.8"/>
      </g>
     </g>
     <g id="text_21">
      <!-- −0.3 -->
      <g transform="translate(363.080824 246.208915)scale(0.1 -0.1)">
       <defs>
        <path id="DejaVuSans-33" d="M 2597 2516 
Q 3050 2419 3304 2112 
Q 3559 1806 3559 1356 
Q 3559 666 3084 287 
Q 2609 -91 1734 -91 
Q 1441 -91 1130 -33 
Q 819 25 488 141 
L 488 750 
Q 750 597 1062 519 
Q 1375 441 1716 441 
Q 2309 441 2620 675 
Q 2931 909 2931 1356 
Q 2931 1769 2642 2001 
Q 2353 2234 1838 2234 
L 1294 2234 
L 1294 2753 
L 1863 2753 
Q 2328 2753 2575 2939 
Q 2822 3125 2822 3475 
Q 2822 3834 2567 4026 
Q 2313 4219 1838 4219 
Q 1578 4219 1281 4162 
Q 984 4106 628 3988 
L 628 4550 
Q 988 4650 1302 4700 
Q 1616 4750 1894 4750 
Q 2613 4750 3031 4423 
Q 3450 4097 3450 3541 
Q 3450 3153 3228 2886 
Q 3006 2619 2597 2516 
z
" transform="scale(0.015625)"/>
       </defs>
       <use xlink:href="#DejaVuSans-2212"/>
       <use xlink:href="#DejaVuSans-30" x="83.789062"/>
       <use xlink:href="#DejaVuSans-2e" x="147.412109"/>
       <use xlink:href="#DejaVuSans-33" x="179.199219"/>
      </g>
     </g>
    </g>
    <g id="ytick_11">
     <g id="line2d_22">
      <g>
       <use xlink:href="#m1f980e8fa3" x="394.363636" y="213.395105" style="stroke: #000000; stroke-width: 0.8"/>
      </g>
     </g>
     <g id="text_22">
      <!-- −0.2 -->
      <g transform="translate(363.080824 217.194323)scale(0.1 -0.1)">
       <use xlink:href="#DejaVuSans-2212"/>
       <use xlink:href="#DejaVuSans-30" x="83.789062"/>
       <use xlink:href="#DejaVuSans-2e" x="147.412109"/>
       <use xlink:href="#DejaVuSans-32" x="179.199219"/>
      </g>
     </g>
    </g>
    <g id="ytick_12">
     <g id="line2d_23">
      <g>
       <use xlink:href="#m1f980e8fa3" x="394.363636" y="184.380513" style="stroke: #000000; stroke-width: 0.8"/>
      </g>
     </g>
     <g id="text_23">
      <!-- −0.1 -->
      <g transform="translate(363.080824 188.179732)scale(0.1 -0.1)">
       <use xlink:href="#DejaVuSans-2212"/>
       <use xlink:href="#DejaVuSans-30" x="83.789062"/>
       <use xlink:href="#DejaVuSans-2e" x="147.412109"/>
       <use xlink:href="#DejaVuSans-31" x="179.199219"/>
      </g>
     </g>
    </g>
    <g id="ytick_13">
     <g id="line2d_24">
      <g>
       <use xlink:href="#m1f980e8fa3" x="394.363636" y="155.365922" style="stroke: #000000; stroke-width: 0.8"/>
      </g>
     </g>
     <g id="text_24">
      <!-- 0.0 -->
      <g transform="translate(371.460511 159.165141)scale(0.1 -0.1)">
       <use xlink:href="#DejaVuSans-30"/>
       <use xlink:href="#DejaVuSans-2e" x="63.623047"/>
       <use xlink:href="#DejaVuSans-30" x="95.410156"/>
      </g>
     </g>
    </g>
    <g id="ytick_14">
     <g id="line2d_25">
      <g>
       <use xlink:href="#m1f980e8fa3" x="394.363636" y="126.351331" style="stroke: #000000; stroke-width: 0.8"/>
      </g>
     </g>
     <g id="text_25">
      <!-- 0.1 -->
      <g transform="translate(371.460511 130.150549)scale(0.1 -0.1)">
       <use xlink:href="#DejaVuSans-30"/>
       <use xlink:href="#DejaVuSans-2e" x="63.623047"/>
       <use xlink:href="#DejaVuSans-31" x="95.410156"/>
      </g>
     </g>
    </g>
    <g id="ytick_15">
     <g id="line2d_26">
      <g>
       <use xlink:href="#m1f980e8fa3" x="394.363636" y="97.336739" style="stroke: #000000; stroke-width: 0.8"/>
      </g>
     </g>
     <g id="text_26">
      <!-- 0.2 -->
      <g transform="translate(371.460511 101.135958)scale(0.1 -0.1)">
       <use xlink:href="#DejaVuSans-30"/>
       <use xlink:href="#DejaVuSans-2e" x="63.623047"/>
       <use xlink:href="#DejaVuSans-32" x="95.410156"/>
      </g>
     </g>
    </g>
   </g>
   <g id="line2d_27">
    <path d="M 405.892562 166.593467 
L 407.342741 171.242767 
L 408.792921 177.177374 
L 410.2431 179.827672 
L 411.693279 176.91441 
L 414.593638 163.297064 
L 416.043817 158.723277 
L 417.493997 156.734264 
L 418.944176 156.895098 
L 420.394355 159.674652 
L 421.844535 166.860031 
L 423.294714 180.289363 
L 426.195073 218.717392 
L 427.645252 231.815543 
L 429.095431 234.477959 
L 430.54561 228.319876 
L 431.99579 218.827643 
L 433.445969 211.596296 
L 434.896148 209.385845 
L 436.346328 211.446578 
L 437.796507 216.068175 
L 439.246686 223.689479 
L 440.696866 235.388284 
L 442.147045 248.487937 
L 443.597224 257.195423 
L 445.047404 258.721224 
L 449.397942 250.360205 
L 450.848121 245.491817 
L 452.2983 236.832275 
L 456.648838 202.301687 
L 458.099018 195.94578 
L 460.999376 188.841364 
L 463.899735 178.587795 
L 465.349914 175.63309 
L 466.800094 176.203763 
L 468.250273 179.258331 
L 469.700452 182.861899 
L 471.150632 185.681064 
L 472.600811 186.746846 
L 474.05099 184.893214 
L 475.501169 179.664797 
L 476.951349 172.481787 
L 478.401528 165.944664 
L 479.851707 161.879275 
L 481.301887 160.268212 
L 482.752066 159.904749 
L 485.652425 159.631642 
L 487.102604 160.10888 
L 488.552783 161.436153 
L 490.002963 162.930807 
L 491.453142 163.27768 
L 492.903321 161.760375 
L 494.353501 159.065807 
L 495.80368 156.697001 
L 497.253859 155.81262 
L 498.704039 156.767035 
L 500.154218 159.298699 
L 503.054577 166.184707 
L 504.504756 169.221526 
L 507.405115 174.792912 
L 508.855294 177.293197 
L 510.305473 178.340857 
L 511.755653 176.802027 
L 513.205832 172.912674 
L 514.656011 168.524755 
L 516.106191 165.550777 
L 517.55637 164.273242 
L 519.006549 163.456634 
L 520.456729 161.942462 
L 523.357087 157.688197 
L 524.807266 156.329336 
L 526.257446 155.678231 
L 527.707625 155.444781 
L 532.058163 155.365922 
L 566.862467 155.476839 
L 568.312646 155.808755 
L 569.762826 156.744585 
L 571.213005 158.747163 
L 572.663184 161.97728 
L 575.563543 169.517051 
L 577.013722 172.058803 
L 578.463901 173.132467 
L 579.914081 172.474275 
L 582.814439 168.269976 
L 584.264619 167.694256 
L 585.714798 168.577588 
L 587.164977 169.152185 
L 588.615157 167.909122 
L 590.065336 165.024152 
L 591.515515 161.731993 
L 592.965695 159.012659 
L 594.415874 157.169184 
L 595.866053 156.109021 
L 597.316233 155.608183 
L 598.766412 155.424311 
L 603.11695 155.365964 
L 607.467488 155.283905 
L 608.917667 155.031366 
L 610.367847 154.356899 
L 611.818026 153.052437 
L 613.268205 151.277461 
L 614.718385 149.758834 
L 616.168564 149.391033 
L 617.618743 150.453726 
L 620.519102 154.09665 
L 621.969281 155.185893 
L 623.41946 155.602029 
L 624.86964 155.625315 
L 629.220178 155.388676 
L 636.471074 155.365922 
L 636.471074 155.365922 
" clip-path="url(#pe78e9f9c05)" style="fill: none; stroke: #9467bd; stroke-width: 2; stroke-linecap: square"/>
   </g>
   <g id="line2d_28">
    <path d="M 405.892562 159.734741 
L 407.342741 160.356338 
L 408.792921 161.684071 
L 410.2431 163.394885 
L 411.693279 164.589212 
L 413.143459 164.520943 
L 416.043817 162.415545 
L 417.493997 162.32272 
L 418.944176 163.377897 
L 420.394355 165.296943 
L 421.844535 167.430251 
L 423.294714 168.739041 
L 424.744893 168.304175 
L 426.195073 166.34664 
L 427.645252 164.648572 
L 429.095431 165.45198 
L 430.54561 169.454296 
L 431.99579 174.757304 
L 433.445969 178.343412 
L 434.896148 179.122042 
L 436.346328 178.874514 
L 439.246686 179.946862 
L 440.696866 177.888353 
L 442.147045 172.563601 
L 443.597224 165.946255 
L 445.047404 160.543586 
L 446.497583 157.377034 
L 447.947762 156.02138 
L 449.397942 155.686576 
L 450.848121 155.928492 
L 452.2983 156.652833 
L 455.198659 158.866588 
L 456.648838 159.37068 
L 458.099018 159.017106 
L 460.999376 157.383696 
L 462.449556 156.96998 
L 465.349914 156.479097 
L 468.250273 155.762843 
L 469.700452 155.540741 
L 471.150632 155.459548 
L 474.05099 155.613252 
L 476.951349 155.791393 
L 481.301887 155.363737 
L 482.752066 155.685977 
L 484.202245 156.557822 
L 485.652425 157.977919 
L 490.002963 163.154193 
L 491.453142 164.507153 
L 492.903321 165.501973 
L 494.353501 166.055477 
L 495.80368 166.065446 
L 497.253859 165.262425 
L 498.704039 163.430172 
L 501.604397 158.459416 
L 503.054577 156.754878 
L 504.504756 155.861031 
L 505.954935 155.499506 
L 510.305473 155.236057 
L 513.205832 154.947816 
L 516.106191 154.56024 
L 517.55637 154.509778 
L 519.006549 154.634062 
L 523.357087 155.256596 
L 526.257446 155.356976 
L 530.607984 155.445088 
L 532.058163 155.77367 
L 533.508342 156.999054 
L 534.958522 160.490701 
L 536.408701 168.059832 
L 537.85888 180.411588 
L 539.30906 195.332494 
L 540.759239 208.145622 
L 542.209418 214.866046 
L 543.659598 214.680191 
L 545.109777 209.3579 
L 546.559956 201.284157 
L 548.010136 192.413008 
L 549.460315 184.263757 
L 550.910494 177.9449 
L 552.360674 173.609476 
L 555.261032 166.50269 
L 556.711212 162.488067 
L 558.161391 159.06639 
L 559.61157 156.911158 
L 561.06175 155.93504 
L 562.511929 155.679335 
L 568.312646 155.882341 
L 572.663184 155.445117 
L 577.013722 155.253383 
L 578.463901 154.91525 
L 579.914081 153.974725 
L 581.36426 152.016302 
L 584.264619 146.042418 
L 585.714798 144.454936 
L 587.164977 145.134557 
L 588.615157 147.631854 
L 590.065336 150.96772 
L 592.965695 158.259542 
L 594.415874 161.318155 
L 595.866053 162.820908 
L 597.316233 162.474695 
L 598.766412 161.145406 
L 600.216591 160.057682 
L 601.666771 159.636867 
L 603.11695 159.374735 
L 604.567129 158.693426 
L 607.467488 156.561532 
L 608.917667 155.863263 
L 610.367847 155.527385 
L 613.268205 155.373961 
L 620.519102 155.424246 
L 621.969281 155.545572 
L 623.41946 155.796881 
L 626.319819 156.537389 
L 627.769998 156.693369 
L 629.220178 156.537389 
L 633.570716 155.545572 
L 636.471074 155.383572 
L 636.471074 155.383572 
" clip-path="url(#pe78e9f9c05)" style="fill: none; stroke: #1f77b4; stroke-width: 2; stroke-linecap: square"/>
   </g>
   <g id="line2d_29">
    <path d="M 405.892562 155.365922 
L 421.844535 155.469982 
L 423.294714 155.782752 
L 424.744893 156.667958 
L 426.195073 158.581306 
L 427.645252 161.736771 
L 430.54561 169.82674 
L 431.99579 173.148559 
L 433.445969 174.893264 
L 434.896148 174.099461 
L 436.346328 170.499426 
L 437.796507 165.394912 
L 439.246686 160.964342 
L 440.696866 158.744171 
L 442.147045 159.019654 
L 443.597224 161.072551 
L 445.047404 163.449743 
L 446.497583 164.492465 
L 447.947762 163.415423 
L 450.848121 158.327168 
L 452.2983 156.600353 
L 453.74848 155.766453 
L 455.198659 155.462556 
L 458.099018 155.233108 
L 459.549197 154.854942 
L 460.999376 153.855351 
L 462.449556 151.860616 
L 465.349914 146.283245 
L 466.800094 145.246122 
L 468.250273 146.553596 
L 471.150632 152.184372 
L 472.600811 154.046484 
L 474.05099 154.928919 
L 475.501169 155.200949 
L 476.951349 155.116337 
L 478.401528 154.656953 
L 479.851707 153.665374 
L 482.752066 150.537975 
L 484.202245 149.432666 
L 485.652425 149.020421 
L 488.552783 148.906405 
L 490.002963 149.25594 
L 491.453142 150.366584 
L 494.353501 153.599466 
L 495.80368 154.632552 
L 497.253859 155.128398 
L 498.704039 155.305867 
L 503.054577 155.365922 
L 511.755653 155.28852 
L 513.205832 155.046171 
L 514.656011 154.311123 
L 516.106191 152.544376 
L 517.55637 149.089791 
L 519.006549 143.444885 
L 520.456729 135.592783 
L 521.906908 126.485397 
L 523.357087 118.54663 
L 524.807266 115.186763 
L 526.257446 118.628919 
L 527.707625 127.729832 
L 529.157804 138.499629 
L 530.607984 147.102407 
L 532.058163 152.141094 
L 533.508342 154.369613 
L 534.958522 155.11503 
L 536.408701 155.267128 
L 537.85888 155.091455 
L 539.30906 154.302483 
L 540.759239 152.070504 
L 542.209418 147.366944 
L 543.659598 140.018177 
L 545.109777 131.656571 
L 546.559956 124.777129 
L 548.010136 120.380042 
L 549.460315 117.615673 
L 550.910494 116.174001 
L 552.360674 117.312956 
L 553.810853 121.745555 
L 556.711212 134.66449 
L 558.161391 139.83813 
L 559.61157 142.714358 
L 561.06175 142.843507 
L 562.511929 141.38751 
L 563.962108 140.823716 
L 565.412288 142.732583 
L 566.862467 146.225198 
L 568.312646 148.794338 
L 569.762826 148.224584 
L 571.213005 143.655559 
L 572.663184 135.705169 
L 574.113363 126.296715 
L 575.563543 118.317841 
L 577.013722 114.736811 
L 578.463901 116.970237 
L 579.914081 123.672942 
L 581.36426 131.773738 
L 582.814439 138.972145 
L 584.264619 144.707257 
L 585.714798 149.06755 
L 587.164977 151.844078 
L 588.615157 152.656575 
L 590.065336 151.375918 
L 591.515515 148.428549 
L 592.965695 144.990757 
L 594.415874 142.448719 
L 595.866053 141.195845 
L 597.316233 140.382796 
L 600.216591 138.252562 
L 601.666771 138.145809 
L 603.11695 139.106348 
L 604.567129 140.546725 
L 606.017309 141.346901 
L 607.467488 140.190473 
L 610.367847 133.429207 
L 611.818026 133.053165 
L 613.268205 136.971027 
L 614.718385 143.32874 
L 616.168564 149.162025 
L 617.618743 152.856179 
L 619.068923 154.570125 
L 620.519102 155.168454 
L 621.969281 155.327612 
L 627.769998 155.365922 
L 636.471074 155.365922 
L 636.471074 155.365922 
" clip-path="url(#pe78e9f9c05)" style="fill: none; stroke: #d62728; stroke-width: 2; stroke-linecap: square"/>
   </g>
   <g id="line2d_30">
    <path d="M 405.892562 155.365922 
L 447.947762 155.332339 
L 449.397942 155.187468 
L 450.848121 154.639837 
L 452.2983 153.026393 
L 453.74848 149.346199 
L 455.198659 142.864455 
L 458.099018 125.717491 
L 459.549197 121.016709 
L 460.999376 122.48375 
L 462.449556 129.580799 
L 463.899735 138.99192 
L 465.349914 147.039129 
L 466.800094 152.005435 
L 468.250273 154.296717 
L 469.700452 155.098926 
L 471.150632 155.314361 
L 475.501169 155.365922 
L 485.652425 155.29702 
L 487.102604 155.093408 
L 488.552783 154.526521 
L 490.002963 153.350637 
L 492.903321 149.837117 
L 494.353501 148.945123 
L 495.80368 149.219562 
L 497.253859 149.990074 
L 498.704039 150.337113 
L 500.154218 150.139444 
L 501.604397 150.122199 
L 503.054577 150.909943 
L 505.954935 153.745003 
L 507.405115 154.66814 
L 508.855294 155.048618 
L 510.305473 155.006449 
L 511.755653 154.62658 
L 514.656011 153.423801 
L 516.106191 153.254773 
L 517.55637 153.735181 
L 519.006549 154.77336 
L 520.456729 156.224894 
L 521.906908 158.469627 
L 523.357087 162.753268 
L 524.807266 170.738219 
L 526.257446 183.324776 
L 527.707625 199.944111 
L 529.157804 219.326743 
L 533.508342 283.851647 
L 534.958522 298.326667 
L 536.408701 301.914662 
L 537.85888 292.90069 
L 539.30906 273.486539 
L 543.659598 198.510693 
L 545.109777 179.617766 
L 546.559956 166.994265 
L 548.010136 160.547882 
L 549.460315 159.146963 
L 550.910494 161.808976 
L 552.360674 167.957979 
L 553.810853 176.675879 
L 555.261032 186.32542 
L 556.711212 195.130889 
L 558.161391 201.611072 
L 559.61157 204.450748 
L 561.06175 202.632757 
L 562.511929 196.219989 
L 565.412288 178.184365 
L 566.862467 173.184094 
L 568.312646 173.911153 
L 571.213005 184.825126 
L 572.663184 185.787592 
L 574.113363 180.525298 
L 575.563543 171.8127 
L 577.013722 163.829335 
L 578.463901 158.804555 
L 579.914081 156.563136 
L 581.36426 156.093084 
L 582.814439 156.832586 
L 584.264619 158.767263 
L 587.164977 164.595357 
L 588.615157 165.845967 
L 590.065336 164.727719 
L 591.515515 162.253228 
L 592.965695 160.481233 
L 594.415874 161.060138 
L 595.866053 164.285808 
L 597.316233 168.939992 
L 598.766412 172.906441 
L 600.216591 174.508161 
L 601.666771 173.600274 
L 603.11695 171.311819 
L 606.017309 166.120581 
L 608.917667 160.460285 
L 610.367847 158.590848 
L 611.818026 158.674569 
L 613.268205 161.510175 
L 614.718385 167.191914 
L 616.168564 174.339496 
L 617.618743 180.253738 
L 619.068923 182.911905 
L 620.519102 182.851207 
L 621.969281 182.247045 
L 624.86964 182.183735 
L 626.319819 181.989752 
L 627.769998 183.507118 
L 629.220178 189.058219 
L 630.670357 198.795055 
L 632.120536 210.299496 
L 633.570716 220.503697 
L 635.020895 227.523671 
L 636.471074 230.933753 
L 636.471074 230.933753 
" clip-path="url(#pe78e9f9c05)" style="fill: none; stroke: #ff7f0e; stroke-width: 2; stroke-linecap: square"/>
   </g>
   <g id="LineCollection_1">
    <path d="M 521.877904 278.290201 
L 521.877904 121.561518 
" clip-path="url(#pe78e9f9c05)" style="fill: none; stroke-dasharray: 7.4,3.2; stroke-dashoffset: 0; stroke: #000000; stroke-width: 2"/>
    <path d="M 536.379697 278.290201 
L 536.379697 121.561518 
" clip-path="url(#pe78e9f9c05)" style="fill: none; stroke-dasharray: 7.4,3.2; stroke-dashoffset: 0; stroke: #000000; stroke-width: 2"/>
    <path d="M 565.383284 278.290201 
L 565.383284 121.561518 
" clip-path="url(#pe78e9f9c05)" style="fill: none; stroke-dasharray: 7.4,3.2; stroke-dashoffset: 0; stroke: #000000; stroke-width: 2"/>
    <path d="M 623.390457 278.290201 
L 623.390457 121.561518 
" clip-path="url(#pe78e9f9c05)" style="fill: none; stroke-dasharray: 7.4,3.2; stroke-dashoffset: 0; stroke: #000000; stroke-width: 2"/>
   </g>
   <g id="patch_8">
    <path d="M 394.363636 333.490909 
L 394.363636 86.4 
" style="fill: none; stroke: #000000; stroke-width: 0.8; stroke-linejoin: miter; stroke-linecap: square"/>
   </g>
   <g id="patch_9">
    <path d="M 648 333.490909 
L 648 86.4 
" style="fill: none; stroke: #000000; stroke-width: 0.8; stroke-linejoin: miter; stroke-linecap: square"/>
   </g>
   <g id="patch_10">
    <path d="M 394.363636 333.490909 
L 648 333.490909 
" style="fill: none; stroke: #000000; stroke-width: 0.8; stroke-linejoin: miter; stroke-linecap: square"/>
   </g>
   <g id="patch_11">
    <path d="M 394.363636 86.4 
L 648 86.4 
" style="fill: none; stroke: #000000; stroke-width: 0.8; stroke-linejoin: miter; stroke-linecap: square"/>
   </g>
   <g id="text_27">
    <!-- unit_78 -->
    <g transform="translate(498.922756 80.4)scale(0.12 -0.12)">
     <defs>
      <path id="DejaVuSans-75" d="M 544 1381 
L 544 3500 
L 1119 3500 
L 1119 1403 
Q 1119 906 1312 657 
Q 1506 409 1894 409 
Q 2359 409 2629 706 
Q 2900 1003 2900 1516 
L 2900 3500 
L 3475 3500 
L 3475 0 
L 2900 0 
L 2900 538 
Q 2691 219 2414 64 
Q 2138 -91 1772 -91 
Q 1169 -91 856 284 
Q 544 659 544 1381 
z
M 1991 3584 
L 1991 3584 
z
" transform="scale(0.015625)"/>
      <path id="DejaVuSans-6e" d="M 3513 2113 
L 3513 0 
L 2938 0 
L 2938 2094 
Q 2938 2591 2744 2837 
Q 2550 3084 2163 3084 
Q 1697 3084 1428 2787 
Q 1159 2491 1159 1978 
L 1159 0 
L 581 0 
L 581 3500 
L 1159 3500 
L 1159 2956 
Q 1366 3272 1645 3428 
Q 1925 3584 2291 3584 
Q 2894 3584 3203 3211 
Q 3513 2838 3513 2113 
z
" transform="scale(0.015625)"/>
      <path id="DejaVuSans-69" d="M 603 3500 
L 1178 3500 
L 1178 0 
L 603 0 
L 603 3500 
z
M 603 4863 
L 1178 4863 
L 1178 4134 
L 603 4134 
L 603 4863 
z
" transform="scale(0.015625)"/>
      <path id="DejaVuSans-74" d="M 1172 4494 
L 1172 3500 
L 2356 3500 
L 2356 3053 
L 1172 3053 
L 1172 1153 
Q 1172 725 1289 603 
Q 1406 481 1766 481 
L 2356 481 
L 2356 0 
L 1766 0 
Q 1100 0 847 248 
Q 594 497 594 1153 
L 594 3053 
L 172 3053 
L 172 3500 
L 594 3500 
L 594 4494 
L 1172 4494 
z
" transform="scale(0.015625)"/>
      <path id="DejaVuSans-5f" d="M 3263 -1063 
L 3263 -1509 
L -63 -1509 
L -63 -1063 
L 3263 -1063 
z
" transform="scale(0.015625)"/>
      <path id="DejaVuSans-37" d="M 525 4666 
L 3525 4666 
L 3525 4397 
L 1831 0 
L 1172 0 
L 2766 4134 
L 525 4134 
L 525 4666 
z
" transform="scale(0.015625)"/>
     </defs>
     <use xlink:href="#DejaVuSans-75"/>
     <use xlink:href="#DejaVuSans-6e" x="63.378906"/>
     <use xlink:href="#DejaVuSans-69" x="126.757812"/>
     <use xlink:href="#DejaVuSans-74" x="154.541016"/>
     <use xlink:href="#DejaVuSans-5f" x="193.75"/>
     <use xlink:href="#DejaVuSans-37" x="243.75"/>
     <use xlink:href="#DejaVuSans-38" x="307.373047"/>
    </g>
   </g>
  </g>
  <g id="axes_3">
   <g id="patch_12">
    <path d="M 90 630 
L 343.636364 630 
L 343.636364 382.909091 
L 90 382.909091 
z
" style="fill: #ffffff"/>
   </g>
   <g id="matplotlib.axis_5">
    <g id="xtick_12">
     <g id="line2d_31">
      <g>
       <use xlink:href="#m38f9f95e99" x="90" y="630" style="stroke: #000000; stroke-width: 0.8"/>
      </g>
     </g>
     <g id="text_28">
      <!-- 0.0 -->
      <g transform="translate(82.048438 644.598437)scale(0.1 -0.1)">
       <use xlink:href="#DejaVuSans-30"/>
       <use xlink:href="#DejaVuSans-2e" x="63.623047"/>
       <use xlink:href="#DejaVuSans-30" x="95.410156"/>
      </g>
     </g>
    </g>
    <g id="xtick_13">
     <g id="line2d_32">
      <g>
       <use xlink:href="#m38f9f95e99" x="140.727273" y="630" style="stroke: #000000; stroke-width: 0.8"/>
      </g>
     </g>
     <g id="text_29">
      <!-- 0.2 -->
      <g transform="translate(132.77571 644.598437)scale(0.1 -0.1)">
       <use xlink:href="#DejaVuSans-30"/>
       <use xlink:href="#DejaVuSans-2e" x="63.623047"/>
       <use xlink:href="#DejaVuSans-32" x="95.410156"/>
      </g>
     </g>
    </g>
    <g id="xtick_14">
     <g id="line2d_33">
      <g>
       <use xlink:href="#m38f9f95e99" x="191.454545" y="630" style="stroke: #000000; stroke-width: 0.8"/>
      </g>
     </g>
     <g id="text_30">
      <!-- 0.4 -->
      <g transform="translate(183.502983 644.598437)scale(0.1 -0.1)">
       <use xlink:href="#DejaVuSans-30"/>
       <use xlink:href="#DejaVuSans-2e" x="63.623047"/>
       <use xlink:href="#DejaVuSans-34" x="95.410156"/>
      </g>
     </g>
    </g>
    <g id="xtick_15">
     <g id="line2d_34">
      <g>
       <use xlink:href="#m38f9f95e99" x="242.181818" y="630" style="stroke: #000000; stroke-width: 0.8"/>
      </g>
     </g>
     <g id="text_31">
      <!-- 0.6 -->
      <g transform="translate(234.230256 644.598437)scale(0.1 -0.1)">
       <use xlink:href="#DejaVuSans-30"/>
       <use xlink:href="#DejaVuSans-2e" x="63.623047"/>
       <use xlink:href="#DejaVuSans-36" x="95.410156"/>
      </g>
     </g>
    </g>
    <g id="xtick_16">
     <g id="line2d_35">
      <g>
       <use xlink:href="#m38f9f95e99" x="292.909091" y="630" style="stroke: #000000; stroke-width: 0.8"/>
      </g>
     </g>
     <g id="text_32">
      <!-- 0.8 -->
      <g transform="translate(284.957528 644.598437)scale(0.1 -0.1)">
       <use xlink:href="#DejaVuSans-30"/>
       <use xlink:href="#DejaVuSans-2e" x="63.623047"/>
       <use xlink:href="#DejaVuSans-38" x="95.410156"/>
      </g>
     </g>
    </g>
    <g id="xtick_17">
     <g id="line2d_36">
      <g>
       <use xlink:href="#m38f9f95e99" x="343.636364" y="630" style="stroke: #000000; stroke-width: 0.8"/>
      </g>
     </g>
     <g id="text_33">
      <!-- 1.0 -->
      <g transform="translate(335.684801 644.598437)scale(0.1 -0.1)">
       <use xlink:href="#DejaVuSans-31"/>
       <use xlink:href="#DejaVuSans-2e" x="63.623047"/>
       <use xlink:href="#DejaVuSans-30" x="95.410156"/>
      </g>
     </g>
    </g>
   </g>
   <g id="matplotlib.axis_6">
    <g id="ytick_16">
     <g id="line2d_37">
      <g>
       <use xlink:href="#m1f980e8fa3" x="90" y="630" style="stroke: #000000; stroke-width: 0.8"/>
      </g>
     </g>
     <g id="text_34">
      <!-- 0.0 -->
      <g transform="translate(67.096875 633.799219)scale(0.1 -0.1)">
       <use xlink:href="#DejaVuSans-30"/>
       <use xlink:href="#DejaVuSans-2e" x="63.623047"/>
       <use xlink:href="#DejaVuSans-30" x="95.410156"/>
      </g>
     </g>
    </g>
    <g id="ytick_17">
     <g id="line2d_38">
      <g>
       <use xlink:href="#m1f980e8fa3" x="90" y="580.581818" style="stroke: #000000; stroke-width: 0.8"/>
      </g>
     </g>
     <g id="text_35">
      <!-- 0.2 -->
      <g transform="translate(67.096875 584.381037)scale(0.1 -0.1)">
       <use xlink:href="#DejaVuSans-30"/>
       <use xlink:href="#DejaVuSans-2e" x="63.623047"/>
       <use xlink:href="#DejaVuSans-32" x="95.410156"/>
      </g>
     </g>
    </g>
    <g id="ytick_18">
     <g id="line2d_39">
      <g>
       <use xlink:href="#m1f980e8fa3" x="90" y="531.163636" style="stroke: #000000; stroke-width: 0.8"/>
      </g>
     </g>
     <g id="text_36">
      <!-- 0.4 -->
      <g transform="translate(67.096875 534.962855)scale(0.1 -0.1)">
       <use xlink:href="#DejaVuSans-30"/>
       <use xlink:href="#DejaVuSans-2e" x="63.623047"/>
       <use xlink:href="#DejaVuSans-34" x="95.410156"/>
      </g>
     </g>
    </g>
    <g id="ytick_19">
     <g id="line2d_40">
      <g>
       <use xlink:href="#m1f980e8fa3" x="90" y="481.745455" style="stroke: #000000; stroke-width: 0.8"/>
      </g>
     </g>
     <g id="text_37">
      <!-- 0.6 -->
      <g transform="translate(67.096875 485.544673)scale(0.1 -0.1)">
       <use xlink:href="#DejaVuSans-30"/>
       <use xlink:href="#DejaVuSans-2e" x="63.623047"/>
       <use xlink:href="#DejaVuSans-36" x="95.410156"/>
      </g>
     </g>
    </g>
    <g id="ytick_20">
     <g id="line2d_41">
      <g>
       <use xlink:href="#m1f980e8fa3" x="90" y="432.327273" style="stroke: #000000; stroke-width: 0.8"/>
      </g>
     </g>
     <g id="text_38">
      <!-- 0.8 -->
      <g transform="translate(67.096875 436.126491)scale(0.1 -0.1)">
       <use xlink:href="#DejaVuSans-30"/>
       <use xlink:href="#DejaVuSans-2e" x="63.623047"/>
       <use xlink:href="#DejaVuSans-38" x="95.410156"/>
      </g>
     </g>
    </g>
    <g id="ytick_21">
     <g id="line2d_42">
      <g>
       <use xlink:href="#m1f980e8fa3" x="90" y="382.909091" style="stroke: #000000; stroke-width: 0.8"/>
      </g>
     </g>
     <g id="text_39">
      <!-- 1.0 -->
      <g transform="translate(67.096875 386.70831)scale(0.1 -0.1)">
       <use xlink:href="#DejaVuSans-31"/>
       <use xlink:href="#DejaVuSans-2e" x="63.623047"/>
       <use xlink:href="#DejaVuSans-30" x="95.410156"/>
      </g>
     </g>
    </g>
   </g>
   <g id="patch_13">
    <path d="M 90 630 
L 90 382.909091 
" style="fill: none; stroke: #000000; stroke-width: 0.8; stroke-linejoin: miter; stroke-linecap: square"/>
   </g>
   <g id="patch_14">
    <path d="M 343.636364 630 
L 343.636364 382.909091 
" style="fill: none; stroke: #000000; stroke-width: 0.8; stroke-linejoin: miter; stroke-linecap: square"/>
   </g>
   <g id="patch_15">
    <path d="M 90 630 
L 343.636364 630 
" style="fill: none; stroke: #000000; stroke-width: 0.8; stroke-linejoin: miter; stroke-linecap: square"/>
   </g>
   <g id="patch_16">
    <path d="M 90 382.909091 
L 343.636364 382.909091 
" style="fill: none; stroke: #000000; stroke-width: 0.8; stroke-linejoin: miter; stroke-linecap: square"/>
   </g>
  </g>
  <g id="axes_4">
   <g id="patch_17">
    <path d="M 394.363636 630 
L 648 630 
L 648 382.909091 
L 394.363636 382.909091 
z
" style="fill: #ffffff"/>
   </g>
   <g id="matplotlib.axis_7">
    <g id="xtick_18">
     <g id="line2d_43">
      <g>
       <use xlink:href="#m38f9f95e99" x="405.863558" y="630" style="stroke: #000000; stroke-width: 0.8"/>
      </g>
     </g>
     <g id="text_40">
      <!-- 0 -->
      <g transform="translate(402.682308 644.598437)scale(0.1 -0.1)">
       <use xlink:href="#DejaVuSans-30"/>
      </g>
     </g>
    </g>
    <g id="xtick_19">
     <g id="line2d_44">
      <g>
       <use xlink:href="#m38f9f95e99" x="463.870731" y="630" style="stroke: #000000; stroke-width: 0.8"/>
      </g>
     </g>
     <g id="text_41">
      <!-- 2000 -->
      <g transform="translate(451.145731 644.598437)scale(0.1 -0.1)">
       <use xlink:href="#DejaVuSans-32"/>
       <use xlink:href="#DejaVuSans-30" x="63.623047"/>
       <use xlink:href="#DejaVuSans-30" x="127.246094"/>
       <use xlink:href="#DejaVuSans-30" x="190.869141"/>
      </g>
     </g>
    </g>
    <g id="xtick_20">
     <g id="line2d_45">
      <g>
       <use xlink:href="#m38f9f95e99" x="521.877904" y="630" style="stroke: #000000; stroke-width: 0.8"/>
      </g>
     </g>
     <g id="text_42">
      <!-- 4000 -->
      <g transform="translate(509.152904 644.598437)scale(0.1 -0.1)">
       <use xlink:href="#DejaVuSans-34"/>
       <use xlink:href="#DejaVuSans-30" x="63.623047"/>
       <use xlink:href="#DejaVuSans-30" x="127.246094"/>
       <use xlink:href="#DejaVuSans-30" x="190.869141"/>
      </g>
     </g>
    </g>
    <g id="xtick_21">
     <g id="line2d_46">
      <g>
       <use xlink:href="#m38f9f95e99" x="579.885077" y="630" style="stroke: #000000; stroke-width: 0.8"/>
      </g>
     </g>
     <g id="text_43">
      <!-- 6000 -->
      <g transform="translate(567.160077 644.598437)scale(0.1 -0.1)">
       <use xlink:href="#DejaVuSans-36"/>
       <use xlink:href="#DejaVuSans-30" x="63.623047"/>
       <use xlink:href="#DejaVuSans-30" x="127.246094"/>
       <use xlink:href="#DejaVuSans-30" x="190.869141"/>
      </g>
     </g>
    </g>
    <g id="xtick_22">
     <g id="line2d_47">
      <g>
       <use xlink:href="#m38f9f95e99" x="637.89225" y="630" style="stroke: #000000; stroke-width: 0.8"/>
      </g>
     </g>
     <g id="text_44">
      <!-- 8000 -->
      <g transform="translate(625.16725 644.598437)scale(0.1 -0.1)">
       <use xlink:href="#DejaVuSans-38"/>
       <use xlink:href="#DejaVuSans-30" x="63.623047"/>
       <use xlink:href="#DejaVuSans-30" x="127.246094"/>
       <use xlink:href="#DejaVuSans-30" x="190.869141"/>
      </g>
     </g>
    </g>
   </g>
   <g id="matplotlib.axis_8">
    <g id="ytick_22">
     <g id="line2d_48">
      <g>
       <use xlink:href="#m1f980e8fa3" x="394.363636" y="630" style="stroke: #000000; stroke-width: 0.8"/>
      </g>
     </g>
     <g id="text_45">
      <!-- −2 -->
      <g transform="translate(372.621449 633.799219)scale(0.1 -0.1)">
       <use xlink:href="#DejaVuSans-2212"/>
       <use xlink:href="#DejaVuSans-32" x="83.789062"/>
      </g>
     </g>
    </g>
    <g id="ytick_23">
     <g id="line2d_49">
      <g>
       <use xlink:href="#m1f980e8fa3" x="394.363636" y="598.296061" style="stroke: #000000; stroke-width: 0.8"/>
      </g>
     </g>
     <g id="text_46">
      <!-- −1 -->
      <g transform="translate(372.621449 602.09528)scale(0.1 -0.1)">
       <use xlink:href="#DejaVuSans-2212"/>
       <use xlink:href="#DejaVuSans-31" x="83.789062"/>
      </g>
     </g>
    </g>
    <g id="ytick_24">
     <g id="line2d_50">
      <g>
       <use xlink:href="#m1f980e8fa3" x="394.363636" y="566.592123" style="stroke: #000000; stroke-width: 0.8"/>
      </g>
     </g>
     <g id="text_47">
      <!-- 0 -->
      <g transform="translate(381.001136 570.391341)scale(0.1 -0.1)">
       <use xlink:href="#DejaVuSans-30"/>
      </g>
     </g>
    </g>
    <g id="ytick_25">
     <g id="line2d_51">
      <g>
       <use xlink:href="#m1f980e8fa3" x="394.363636" y="534.888184" style="stroke: #000000; stroke-width: 0.8"/>
      </g>
     </g>
     <g id="text_48">
      <!-- 1 -->
      <g transform="translate(381.001136 538.687403)scale(0.1 -0.1)">
       <use xlink:href="#DejaVuSans-31"/>
      </g>
     </g>
    </g>
    <g id="ytick_26">
     <g id="line2d_52">
      <g>
       <use xlink:href="#m1f980e8fa3" x="394.363636" y="503.184245" style="stroke: #000000; stroke-width: 0.8"/>
      </g>
     </g>
     <g id="text_49">
      <!-- 2 -->
      <g transform="translate(381.001136 506.983464)scale(0.1 -0.1)">
       <use xlink:href="#DejaVuSans-32"/>
      </g>
     </g>
    </g>
    <g id="ytick_27">
     <g id="line2d_53">
      <g>
       <use xlink:href="#m1f980e8fa3" x="394.363636" y="471.480306" style="stroke: #000000; stroke-width: 0.8"/>
      </g>
     </g>
     <g id="text_50">
      <!-- 3 -->
      <g transform="translate(381.001136 475.279525)scale(0.1 -0.1)">
       <use xlink:href="#DejaVuSans-33"/>
      </g>
     </g>
    </g>
    <g id="ytick_28">
     <g id="line2d_54">
      <g>
       <use xlink:href="#m1f980e8fa3" x="394.363636" y="439.776368" style="stroke: #000000; stroke-width: 0.8"/>
      </g>
     </g>
     <g id="text_51">
      <!-- 4 -->
      <g transform="translate(381.001136 443.575587)scale(0.1 -0.1)">
       <use xlink:href="#DejaVuSans-34"/>
      </g>
     </g>
    </g>
    <g id="ytick_29">
     <g id="line2d_55">
      <g>
       <use xlink:href="#m1f980e8fa3" x="394.363636" y="408.072429" style="stroke: #000000; stroke-width: 0.8"/>
      </g>
     </g>
     <g id="text_52">
      <!-- 5 -->
      <g transform="translate(381.001136 411.871648)scale(0.1 -0.1)">
       <use xlink:href="#DejaVuSans-35"/>
      </g>
     </g>
    </g>
   </g>
   <g id="line2d_56">
    <path d="M 405.892562 593.469076 
L 407.342741 624.480445 
L 408.792921 694.967065 
L 409.445252 721 
M 410.950952 721 
L 411.693279 687.609118 
L 413.143459 606.977009 
L 414.593638 577.396522 
L 416.043817 568.976681 
L 417.493997 567.019616 
L 418.944176 565.401695 
L 420.394355 563.376189 
L 421.844535 563.841156 
L 423.294714 567.267077 
L 424.744893 593.553418 
L 426.413949 721 
M 455.559158 721 
L 456.648838 631.056743 
L 458.099018 669.394796 
L 459.523684 721 
M 462.176094 721 
L 462.449556 715.047548 
L 463.899735 623.689139 
L 465.349914 525.123004 
L 466.800094 460.541706 
L 468.250273 496.208103 
L 469.700452 575.374147 
L 471.150632 590.515421 
L 472.600811 569.607663 
L 475.501169 487.771983 
L 476.951349 515.230693 
L 478.401528 556.585838 
L 479.851707 572.497434 
L 481.301887 577.271406 
L 482.752066 578.492666 
L 484.202245 576.267479 
L 485.652425 578.498664 
L 487.102604 582.159014 
L 488.552783 589.209542 
L 490.002963 616.402882 
L 491.453142 635.820441 
L 492.903321 619.001045 
L 494.353501 631.498698 
L 495.80368 632.762383 
L 497.253859 600.483191 
L 498.704039 586.480115 
L 500.154218 605.716262 
L 501.604397 607.015393 
L 503.054577 581.078321 
L 504.504756 583.963099 
L 505.954935 595.952565 
L 507.405115 594.355008 
L 508.855294 592.243029 
L 510.305473 578.125007 
L 511.755653 554.76625 
L 513.205832 562.286091 
L 514.656011 585.272239 
L 516.106191 591.749455 
L 519.006549 570.78075 
L 520.456729 556.742153 
L 521.906908 519.768675 
L 523.357087 464.498699 
L 524.807266 415.442079 
L 526.257446 425.413613 
L 527.707625 579.227271 
L 529.315752 721 
M 541.350709 721 
L 542.209418 694.595807 
L 543.659598 710.252405 
L 545.109777 662.831234 
L 546.559956 562.127394 
L 548.010136 568.58989 
L 549.460315 596.834022 
L 550.910494 559.338817 
L 552.360674 549.886059 
L 553.810853 631.076548 
L 555.261032 687.692301 
L 556.711212 603.856817 
L 558.161391 528.192711 
L 559.61157 558.220586 
L 561.06175 606.329881 
L 562.511929 602.303541 
L 563.962108 576.165922 
L 565.412288 581.84424 
L 566.862467 584.886505 
L 568.312646 581.024989 
L 569.762826 591.61712 
L 571.213005 551.621132 
L 572.663184 441.967673 
L 574.113363 416.850311 
L 575.563543 455.72602 
L 577.013722 427.507375 
L 578.463901 384.669835 
L 579.914081 450.553775 
L 581.36426 536.162059 
L 582.814439 550.620994 
L 584.264619 524.180183 
L 585.714798 533.392531 
L 587.164977 588.689487 
L 588.615157 581.951876 
L 590.065336 578.677122 
L 591.515515 610.66448 
L 592.965695 618.374778 
L 594.415874 594.126483 
L 595.866053 558.000068 
L 597.316233 540.718682 
L 598.766412 516.244534 
L 600.216591 494.564418 
L 601.666771 497.903801 
L 603.11695 475.170267 
L 604.567129 443.879124 
L 606.017309 488.178695 
L 607.467488 540.500734 
L 608.917667 527.144861 
L 610.367847 440.332553 
L 611.818026 382.909091 
L 614.718385 522.680492 
L 616.168564 539.572951 
L 617.618743 529.765818 
L 619.068923 518.95543 
L 620.519102 532.196524 
L 621.969281 518.485383 
L 623.41946 463.63554 
L 624.86964 444.256117 
L 626.319819 496.26385 
L 627.769998 570.223808 
L 629.220178 633.984016 
L 630.670357 636.940877 
L 632.120536 528.361978 
L 633.570716 451.178915 
L 635.020895 432.819781 
L 636.471074 402.55173 
L 636.471074 402.55173 
" clip-path="url(#p9ba7bb26f7)" style="fill: none; stroke: #1f77b4; stroke-width: 1.5; stroke-linecap: square"/>
   </g>
   <g id="patch_18">
    <path d="M 394.363636 630 
L 394.363636 382.909091 
" style="fill: none; stroke: #000000; stroke-width: 0.8; stroke-linejoin: miter; stroke-linecap: square"/>
   </g>
   <g id="patch_19">
    <path d="M 648 630 
L 648 382.909091 
" style="fill: none; stroke: #000000; stroke-width: 0.8; stroke-linejoin: miter; stroke-linecap: square"/>
   </g>
   <g id="patch_20">
    <path d="M 394.363636 630 
L 648 630 
" style="fill: none; stroke: #000000; stroke-width: 0.8; stroke-linejoin: miter; stroke-linecap: square"/>
   </g>
   <g id="patch_21">
    <path d="M 394.363636 382.909091 
L 648 382.909091 
" style="fill: none; stroke: #000000; stroke-width: 0.8; stroke-linejoin: miter; stroke-linecap: square"/>
   </g>
   <g id="text_53">
    <!-- explained variance -->
    <g transform="translate(464.181818 376.909091)scale(0.12 -0.12)">
     <defs>
      <path id="DejaVuSans-65" d="M 3597 1894 
L 3597 1613 
L 953 1613 
Q 991 1019 1311 708 
Q 1631 397 2203 397 
Q 2534 397 2845 478 
Q 3156 559 3463 722 
L 3463 178 
Q 3153 47 2828 -22 
Q 2503 -91 2169 -91 
Q 1331 -91 842 396 
Q 353 884 353 1716 
Q 353 2575 817 3079 
Q 1281 3584 2069 3584 
Q 2775 3584 3186 3129 
Q 3597 2675 3597 1894 
z
M 3022 2063 
Q 3016 2534 2758 2815 
Q 2500 3097 2075 3097 
Q 1594 3097 1305 2825 
Q 1016 2553 972 2059 
L 3022 2063 
z
" transform="scale(0.015625)"/>
      <path id="DejaVuSans-78" d="M 3513 3500 
L 2247 1797 
L 3578 0 
L 2900 0 
L 1881 1375 
L 863 0 
L 184 0 
L 1544 1831 
L 300 3500 
L 978 3500 
L 1906 2253 
L 2834 3500 
L 3513 3500 
z
" transform="scale(0.015625)"/>
      <path id="DejaVuSans-70" d="M 1159 525 
L 1159 -1331 
L 581 -1331 
L 581 3500 
L 1159 3500 
L 1159 2969 
Q 1341 3281 1617 3432 
Q 1894 3584 2278 3584 
Q 2916 3584 3314 3078 
Q 3713 2572 3713 1747 
Q 3713 922 3314 415 
Q 2916 -91 2278 -91 
Q 1894 -91 1617 61 
Q 1341 213 1159 525 
z
M 3116 1747 
Q 3116 2381 2855 2742 
Q 2594 3103 2138 3103 
Q 1681 3103 1420 2742 
Q 1159 2381 1159 1747 
Q 1159 1113 1420 752 
Q 1681 391 2138 391 
Q 2594 391 2855 752 
Q 3116 1113 3116 1747 
z
" transform="scale(0.015625)"/>
      <path id="DejaVuSans-6c" d="M 603 4863 
L 1178 4863 
L 1178 0 
L 603 0 
L 603 4863 
z
" transform="scale(0.015625)"/>
      <path id="DejaVuSans-61" d="M 2194 1759 
Q 1497 1759 1228 1600 
Q 959 1441 959 1056 
Q 959 750 1161 570 
Q 1363 391 1709 391 
Q 2188 391 2477 730 
Q 2766 1069 2766 1631 
L 2766 1759 
L 2194 1759 
z
M 3341 1997 
L 3341 0 
L 2766 0 
L 2766 531 
Q 2569 213 2275 61 
Q 1981 -91 1556 -91 
Q 1019 -91 701 211 
Q 384 513 384 1019 
Q 384 1609 779 1909 
Q 1175 2209 1959 2209 
L 2766 2209 
L 2766 2266 
Q 2766 2663 2505 2880 
Q 2244 3097 1772 3097 
Q 1472 3097 1187 3025 
Q 903 2953 641 2809 
L 641 3341 
Q 956 3463 1253 3523 
Q 1550 3584 1831 3584 
Q 2591 3584 2966 3190 
Q 3341 2797 3341 1997 
z
" transform="scale(0.015625)"/>
      <path id="DejaVuSans-64" d="M 2906 2969 
L 2906 4863 
L 3481 4863 
L 3481 0 
L 2906 0 
L 2906 525 
Q 2725 213 2448 61 
Q 2172 -91 1784 -91 
Q 1150 -91 751 415 
Q 353 922 353 1747 
Q 353 2572 751 3078 
Q 1150 3584 1784 3584 
Q 2172 3584 2448 3432 
Q 2725 3281 2906 2969 
z
M 947 1747 
Q 947 1113 1208 752 
Q 1469 391 1925 391 
Q 2381 391 2643 752 
Q 2906 1113 2906 1747 
Q 2906 2381 2643 2742 
Q 2381 3103 1925 3103 
Q 1469 3103 1208 2742 
Q 947 2381 947 1747 
z
" transform="scale(0.015625)"/>
      <path id="DejaVuSans-20" transform="scale(0.015625)"/>
      <path id="DejaVuSans-76" d="M 191 3500 
L 800 3500 
L 1894 563 
L 2988 3500 
L 3597 3500 
L 2284 0 
L 1503 0 
L 191 3500 
z
" transform="scale(0.015625)"/>
      <path id="DejaVuSans-72" d="M 2631 2963 
Q 2534 3019 2420 3045 
Q 2306 3072 2169 3072 
Q 1681 3072 1420 2755 
Q 1159 2438 1159 1844 
L 1159 0 
L 581 0 
L 581 3500 
L 1159 3500 
L 1159 2956 
Q 1341 3275 1631 3429 
Q 1922 3584 2338 3584 
Q 2397 3584 2469 3576 
Q 2541 3569 2628 3553 
L 2631 2963 
z
" transform="scale(0.015625)"/>
      <path id="DejaVuSans-63" d="M 3122 3366 
L 3122 2828 
Q 2878 2963 2633 3030 
Q 2388 3097 2138 3097 
Q 1578 3097 1268 2742 
Q 959 2388 959 1747 
Q 959 1106 1268 751 
Q 1578 397 2138 397 
Q 2388 397 2633 464 
Q 2878 531 3122 666 
L 3122 134 
Q 2881 22 2623 -34 
Q 2366 -91 2075 -91 
Q 1284 -91 818 406 
Q 353 903 353 1747 
Q 353 2603 823 3093 
Q 1294 3584 2113 3584 
Q 2378 3584 2631 3529 
Q 2884 3475 3122 3366 
z
" transform="scale(0.015625)"/>
     </defs>
     <use xlink:href="#DejaVuSans-65"/>
     <use xlink:href="#DejaVuSans-78" x="59.773438"/>
     <use xlink:href="#DejaVuSans-70" x="118.953125"/>
     <use xlink:href="#DejaVuSans-6c" x="182.429688"/>
     <use xlink:href="#DejaVuSans-61" x="210.212891"/>
     <use xlink:href="#DejaVuSans-69" x="271.492188"/>
     <use xlink:href="#DejaVuSans-6e" x="299.275391"/>
     <use xlink:href="#DejaVuSans-65" x="362.654297"/>
     <use xlink:href="#DejaVuSans-64" x="424.177734"/>
     <use xlink:href="#DejaVuSans-20" x="487.654297"/>
     <use xlink:href="#DejaVuSans-76" x="519.441406"/>
     <use xlink:href="#DejaVuSans-61" x="578.621094"/>
     <use xlink:href="#DejaVuSans-72" x="639.900391"/>
     <use xlink:href="#DejaVuSans-69" x="681.013672"/>
     <use xlink:href="#DejaVuSans-61" x="708.796875"/>
     <use xlink:href="#DejaVuSans-6e" x="770.076172"/>
     <use xlink:href="#DejaVuSans-63" x="833.455078"/>
     <use xlink:href="#DejaVuSans-65" x="888.435547"/>
    </g>
   </g>
  </g>
 </g>
 <defs>
  <clipPath id="pe78e9f9c05">
   <rect x="394.363636" y="86.4" width="253.636364" height="247.090909"/>
  </clipPath>
  <clipPath id="p9ba7bb26f7">
   <rect x="394.363636" y="382.909091" width="253.636364" height="247.090909"/>
  </clipPath>
 </defs>
</svg>
