<?xml version="1.0" encoding="utf-8" standalone="no"?>
<!DOCTYPE svg PUBLIC "-//W3C//DTD SVG 1.1//EN"
  "http://www.w3.org/Graphics/SVG/1.1/DTD/svg11.dtd">
<svg xmlns:xlink="http://www.w3.org/1999/xlink" width="720pt" height="720pt" viewBox="0 0 720 720" xmlns="http://www.w3.org/2000/svg" version="1.1">
 <metadata>
  <rdf:RDF xmlns:dc="http://purl.org/dc/elements/1.1/" xmlns:cc="http://creativecommons.org/ns#" xmlns:rdf="http://www.w3.org/1999/02/22-rdf-syntax-ns#">
   <cc:Work>
    <dc:type rdf:resource="http://purl.org/dc/dcmitype/StillImage"/>
    <dc:date>2023-12-19T18:20:19.185752</dc:date>
    <dc:format>image/svg+xml</dc:format>
    <dc:creator>
     <cc:Agent>
      <dc:title>Matplotlib v3.5.2, https://matplotlib.org/</dc:title>
     </cc:Agent>
    </dc:creator>
   </cc:Work>
  </rdf:RDF>
 </metadata>
 <defs>
  <style type="text/css">*{stroke-linejoin: round; stroke-linecap: butt}</style>
 </defs>
 <g id="figure_1">
  <g id="patch_1">
   <path d="M 0 720 
L 720 720 
L 720 0 
L 0 0 
z
" style="fill: #ffffff"/>
  </g>
  <g id="axes_1">
   <g id="patch_2">
    <path d="M 90 333.490909 
L 343.636364 333.490909 
L 343.636364 86.4 
L 90 86.4 
z
" style="fill: #ffffff"/>
   </g>
   <g id="matplotlib.axis_1">
    <g id="xtick_1">
     <g id="line2d_1">
      <defs>
       <path id="m0198c0b629" d="M 0 0 
L 0 3.5 
" style="stroke: #000000; stroke-width: 0.8"/>
      </defs>
      <g>
       <use xlink:href="#m0198c0b629" x="90" y="333.490909" style="stroke: #000000; stroke-width: 0.8"/>
      </g>
     </g>
     <g id="text_1">
      <!-- 0.0 -->
      <g transform="translate(82.048438 348.089347)scale(0.1 -0.1)">
       <defs>
        <path id="DejaVuSans-30" d="M 2034 4250 
Q 1547 4250 1301 3770 
Q 1056 3291 1056 2328 
Q 1056 1369 1301 889 
Q 1547 409 2034 409 
Q 2525 409 2770 889 
Q 3016 1369 3016 2328 
Q 3016 3291 2770 3770 
Q 2525 4250 2034 4250 
z
M 2034 4750 
Q 2819 4750 3233 4129 
Q 3647 3509 3647 2328 
Q 3647 1150 3233 529 
Q 2819 -91 2034 -91 
Q 1250 -91 836 529 
Q 422 1150 422 2328 
Q 422 3509 836 4129 
Q 1250 4750 2034 4750 
z
" transform="scale(0.015625)"/>
        <path id="DejaVuSans-2e" d="M 684 794 
L 1344 794 
L 1344 0 
L 684 0 
L 684 794 
z
" transform="scale(0.015625)"/>
       </defs>
       <use xlink:href="#DejaVuSans-30"/>
       <use xlink:href="#DejaVuSans-2e" x="63.623047"/>
       <use xlink:href="#DejaVuSans-30" x="95.410156"/>
      </g>
     </g>
    </g>
    <g id="xtick_2">
     <g id="line2d_2">
      <g>
       <use xlink:href="#m0198c0b629" x="140.727273" y="333.490909" style="stroke: #000000; stroke-width: 0.8"/>
      </g>
     </g>
     <g id="text_2">
      <!-- 0.2 -->
      <g transform="translate(132.77571 348.089347)scale(0.1 -0.1)">
       <defs>
        <path id="DejaVuSans-32" d="M 1228 531 
L 3431 531 
L 3431 0 
L 469 0 
L 469 531 
Q 828 903 1448 1529 
Q 2069 2156 2228 2338 
Q 2531 2678 2651 2914 
Q 2772 3150 2772 3378 
Q 2772 3750 2511 3984 
Q 2250 4219 1831 4219 
Q 1534 4219 1204 4116 
Q 875 4013 500 3803 
L 500 4441 
Q 881 4594 1212 4672 
Q 1544 4750 1819 4750 
Q 2544 4750 2975 4387 
Q 3406 4025 3406 3419 
Q 3406 3131 3298 2873 
Q 3191 2616 2906 2266 
Q 2828 2175 2409 1742 
Q 1991 1309 1228 531 
z
" transform="scale(0.015625)"/>
       </defs>
       <use xlink:href="#DejaVuSans-30"/>
       <use xlink:href="#DejaVuSans-2e" x="63.623047"/>
       <use xlink:href="#DejaVuSans-32" x="95.410156"/>
      </g>
     </g>
    </g>
    <g id="xtick_3">
     <g id="line2d_3">
      <g>
       <use xlink:href="#m0198c0b629" x="191.454545" y="333.490909" style="stroke: #000000; stroke-width: 0.8"/>
      </g>
     </g>
     <g id="text_3">
      <!-- 0.4 -->
      <g transform="translate(183.502983 348.089347)scale(0.1 -0.1)">
       <defs>
        <path id="DejaVuSans-34" d="M 2419 4116 
L 825 1625 
L 2419 1625 
L 2419 4116 
z
M 2253 4666 
L 3047 4666 
L 3047 1625 
L 3713 1625 
L 3713 1100 
L 3047 1100 
L 3047 0 
L 2419 0 
L 2419 1100 
L 313 1100 
L 313 1709 
L 2253 4666 
z
" transform="scale(0.015625)"/>
       </defs>
       <use xlink:href="#DejaVuSans-30"/>
       <use xlink:href="#DejaVuSans-2e" x="63.623047"/>
       <use xlink:href="#DejaVuSans-34" x="95.410156"/>
      </g>
     </g>
    </g>
    <g id="xtick_4">
     <g id="line2d_4">
      <g>
       <use xlink:href="#m0198c0b629" x="242.181818" y="333.490909" style="stroke: #000000; stroke-width: 0.8"/>
      </g>
     </g>
     <g id="text_4">
      <!-- 0.6 -->
      <g transform="translate(234.230256 348.089347)scale(0.1 -0.1)">
       <defs>
        <path id="DejaVuSans-36" d="M 2113 2584 
Q 1688 2584 1439 2293 
Q 1191 2003 1191 1497 
Q 1191 994 1439 701 
Q 1688 409 2113 409 
Q 2538 409 2786 701 
Q 3034 994 3034 1497 
Q 3034 2003 2786 2293 
Q 2538 2584 2113 2584 
z
M 3366 4563 
L 3366 3988 
Q 3128 4100 2886 4159 
Q 2644 4219 2406 4219 
Q 1781 4219 1451 3797 
Q 1122 3375 1075 2522 
Q 1259 2794 1537 2939 
Q 1816 3084 2150 3084 
Q 2853 3084 3261 2657 
Q 3669 2231 3669 1497 
Q 3669 778 3244 343 
Q 2819 -91 2113 -91 
Q 1303 -91 875 529 
Q 447 1150 447 2328 
Q 447 3434 972 4092 
Q 1497 4750 2381 4750 
Q 2619 4750 2861 4703 
Q 3103 4656 3366 4563 
z
" transform="scale(0.015625)"/>
       </defs>
       <use xlink:href="#DejaVuSans-30"/>
       <use xlink:href="#DejaVuSans-2e" x="63.623047"/>
       <use xlink:href="#DejaVuSans-36" x="95.410156"/>
      </g>
     </g>
    </g>
    <g id="xtick_5">
     <g id="line2d_5">
      <g>
       <use xlink:href="#m0198c0b629" x="292.909091" y="333.490909" style="stroke: #000000; stroke-width: 0.8"/>
      </g>
     </g>
     <g id="text_5">
      <!-- 0.8 -->
      <g transform="translate(284.957528 348.089347)scale(0.1 -0.1)">
       <defs>
        <path id="DejaVuSans-38" d="M 2034 2216 
Q 1584 2216 1326 1975 
Q 1069 1734 1069 1313 
Q 1069 891 1326 650 
Q 1584 409 2034 409 
Q 2484 409 2743 651 
Q 3003 894 3003 1313 
Q 3003 1734 2745 1975 
Q 2488 2216 2034 2216 
z
M 1403 2484 
Q 997 2584 770 2862 
Q 544 3141 544 3541 
Q 544 4100 942 4425 
Q 1341 4750 2034 4750 
Q 2731 4750 3128 4425 
Q 3525 4100 3525 3541 
Q 3525 3141 3298 2862 
Q 3072 2584 2669 2484 
Q 3125 2378 3379 2068 
Q 3634 1759 3634 1313 
Q 3634 634 3220 271 
Q 2806 -91 2034 -91 
Q 1263 -91 848 271 
Q 434 634 434 1313 
Q 434 1759 690 2068 
Q 947 2378 1403 2484 
z
M 1172 3481 
Q 1172 3119 1398 2916 
Q 1625 2713 2034 2713 
Q 2441 2713 2670 2916 
Q 2900 3119 2900 3481 
Q 2900 3844 2670 4047 
Q 2441 4250 2034 4250 
Q 1625 4250 1398 4047 
Q 1172 3844 1172 3481 
z
" transform="scale(0.015625)"/>
       </defs>
       <use xlink:href="#DejaVuSans-30"/>
       <use xlink:href="#DejaVuSans-2e" x="63.623047"/>
       <use xlink:href="#DejaVuSans-38" x="95.410156"/>
      </g>
     </g>
    </g>
    <g id="xtick_6">
     <g id="line2d_6">
      <g>
       <use xlink:href="#m0198c0b629" x="343.636364" y="333.490909" style="stroke: #000000; stroke-width: 0.8"/>
      </g>
     </g>
     <g id="text_6">
      <!-- 1.0 -->
      <g transform="translate(335.684801 348.089347)scale(0.1 -0.1)">
       <defs>
        <path id="DejaVuSans-31" d="M 794 531 
L 1825 531 
L 1825 4091 
L 703 3866 
L 703 4441 
L 1819 4666 
L 2450 4666 
L 2450 531 
L 3481 531 
L 3481 0 
L 794 0 
L 794 531 
z
" transform="scale(0.015625)"/>
       </defs>
       <use xlink:href="#DejaVuSans-31"/>
       <use xlink:href="#DejaVuSans-2e" x="63.623047"/>
       <use xlink:href="#DejaVuSans-30" x="95.410156"/>
      </g>
     </g>
    </g>
   </g>
   <g id="matplotlib.axis_2">
    <g id="ytick_1">
     <g id="line2d_7">
      <defs>
       <path id="m06aba4c869" d="M 0 0 
L -3.5 0 
" style="stroke: #000000; stroke-width: 0.8"/>
      </defs>
      <g>
       <use xlink:href="#m06aba4c869" x="90" y="333.490909" style="stroke: #000000; stroke-width: 0.8"/>
      </g>
     </g>
     <g id="text_7">
      <!-- 0.0 -->
      <g transform="translate(67.096875 337.290128)scale(0.1 -0.1)">
       <use xlink:href="#DejaVuSans-30"/>
       <use xlink:href="#DejaVuSans-2e" x="63.623047"/>
       <use xlink:href="#DejaVuSans-30" x="95.410156"/>
      </g>
     </g>
    </g>
    <g id="ytick_2">
     <g id="line2d_8">
      <g>
       <use xlink:href="#m06aba4c869" x="90" y="284.072727" style="stroke: #000000; stroke-width: 0.8"/>
      </g>
     </g>
     <g id="text_8">
      <!-- 0.2 -->
      <g transform="translate(67.096875 287.871946)scale(0.1 -0.1)">
       <use xlink:href="#DejaVuSans-30"/>
       <use xlink:href="#DejaVuSans-2e" x="63.623047"/>
       <use xlink:href="#DejaVuSans-32" x="95.410156"/>
      </g>
     </g>
    </g>
    <g id="ytick_3">
     <g id="line2d_9">
      <g>
       <use xlink:href="#m06aba4c869" x="90" y="234.654545" style="stroke: #000000; stroke-width: 0.8"/>
      </g>
     </g>
     <g id="text_9">
      <!-- 0.4 -->
      <g transform="translate(67.096875 238.453764)scale(0.1 -0.1)">
       <use xlink:href="#DejaVuSans-30"/>
       <use xlink:href="#DejaVuSans-2e" x="63.623047"/>
       <use xlink:href="#DejaVuSans-34" x="95.410156"/>
      </g>
     </g>
    </g>
    <g id="ytick_4">
     <g id="line2d_10">
      <g>
       <use xlink:href="#m06aba4c869" x="90" y="185.236364" style="stroke: #000000; stroke-width: 0.8"/>
      </g>
     </g>
     <g id="text_10">
      <!-- 0.6 -->
      <g transform="translate(67.096875 189.035582)scale(0.1 -0.1)">
       <use xlink:href="#DejaVuSans-30"/>
       <use xlink:href="#DejaVuSans-2e" x="63.623047"/>
       <use xlink:href="#DejaVuSans-36" x="95.410156"/>
      </g>
     </g>
    </g>
    <g id="ytick_5">
     <g id="line2d_11">
      <g>
       <use xlink:href="#m06aba4c869" x="90" y="135.818182" style="stroke: #000000; stroke-width: 0.8"/>
      </g>
     </g>
     <g id="text_11">
      <!-- 0.8 -->
      <g transform="translate(67.096875 139.617401)scale(0.1 -0.1)">
       <use xlink:href="#DejaVuSans-30"/>
       <use xlink:href="#DejaVuSans-2e" x="63.623047"/>
       <use xlink:href="#DejaVuSans-38" x="95.410156"/>
      </g>
     </g>
    </g>
    <g id="ytick_6">
     <g id="line2d_12">
      <g>
       <use xlink:href="#m06aba4c869" x="90" y="86.4" style="stroke: #000000; stroke-width: 0.8"/>
      </g>
     </g>
     <g id="text_12">
      <!-- 1.0 -->
      <g transform="translate(67.096875 90.199219)scale(0.1 -0.1)">
       <use xlink:href="#DejaVuSans-31"/>
       <use xlink:href="#DejaVuSans-2e" x="63.623047"/>
       <use xlink:href="#DejaVuSans-30" x="95.410156"/>
      </g>
     </g>
    </g>
   </g>
   <g id="patch_3">
    <path d="M 90 333.490909 
L 90 86.4 
" style="fill: none; stroke: #000000; stroke-width: 0.8; stroke-linejoin: miter; stroke-linecap: square"/>
   </g>
   <g id="patch_4">
    <path d="M 343.636364 333.490909 
L 343.636364 86.4 
" style="fill: none; stroke: #000000; stroke-width: 0.8; stroke-linejoin: miter; stroke-linecap: square"/>
   </g>
   <g id="patch_5">
    <path d="M 90 333.490909 
L 343.636364 333.490909 
" style="fill: none; stroke: #000000; stroke-width: 0.8; stroke-linejoin: miter; stroke-linecap: square"/>
   </g>
   <g id="patch_6">
    <path d="M 90 86.4 
L 343.636364 86.4 
" style="fill: none; stroke: #000000; stroke-width: 0.8; stroke-linejoin: miter; stroke-linecap: square"/>
   </g>
  </g>
  <g id="axes_2">
   <g id="patch_7">
    <path d="M 394.363636 333.490909 
L 648 333.490909 
L 648 86.4 
L 394.363636 86.4 
z
" style="fill: #ffffff"/>
   </g>
   <g id="PolyCollection_1">
    <defs>
     <path id="m43c5f37fe7" d="M 405.892562 -556.125917 
L 405.892562 -556.125917 
L 407.342741 -556.124471 
L 408.792921 -556.116486 
L 410.2431 -556.078023 
L 411.693279 -555.936492 
L 413.143459 -555.542447 
L 414.593638 -554.726246 
L 416.043817 -553.510987 
L 417.493997 -552.321216 
L 418.944176 -541.861899 
L 420.394355 -552.321216 
L 421.844535 -553.508519 
L 423.294714 -554.710154 
L 424.744893 -555.460728 
L 426.195073 -555.60857 
L 427.645252 -555.051725 
L 429.095431 -553.566988 
L 430.54561 -551.006365 
L 431.99579 -547.523593 
L 433.445969 -533.335684 
L 434.896148 -538.216989 
L 436.346328 -531.627333 
L 437.796507 -512.7538 
L 439.246686 -515.02918 
L 440.696866 -493.758672 
L 442.147045 -489.018289 
L 443.597224 -489.191544 
L 445.047404 -502.68354 
L 446.497583 -490.957847 
L 447.947762 -493.65438 
L 449.397942 -499.149626 
L 450.848121 -516.298502 
L 452.2983 -517.260281 
L 453.74848 -504.184428 
L 455.198659 -498.448588 
L 456.648838 -495.410074 
L 458.099018 -502.617109 
L 459.549197 -521.295694 
L 460.999376 -514.536918 
L 462.449556 -521.962995 
L 463.899735 -540.87595 
L 465.349914 -545.204894 
L 466.800094 -545.19849 
L 468.250273 -539.424478 
L 469.700452 -528.029354 
L 471.150632 -496.361975 
L 472.600811 -495.912544 
L 474.05099 -466.497725 
L 475.501169 -456.069055 
L 476.951349 -455.564163 
L 478.401528 -454.250524 
L 479.851707 -454.086265 
L 481.301887 -450.592084 
L 482.752066 -452.887955 
L 484.202245 -452.803881 
L 485.652425 -448.407259 
L 487.102604 -439.813042 
L 488.552783 -434.991348 
L 490.002963 -422.659286 
L 491.453142 -411.247595 
L 492.903321 -401.365071 
L 494.353501 -399.799136 
L 495.80368 -397.740496 
L 497.253859 -398.227678 
L 498.704039 -398.593466 
L 500.154218 -401.511874 
L 501.604397 -408.005551 
L 503.054577 -419.122199 
L 504.504756 -431.303879 
L 505.954935 -452.046913 
L 507.405115 -452.233177 
L 508.855294 -455.897636 
L 510.305473 -468.615337 
L 511.755653 -461.63552 
L 513.205832 -460.994929 
L 514.656011 -461.368446 
L 516.106191 -463.543581 
L 517.55637 -465.805358 
L 519.006549 -475.184489 
L 520.456729 -484.086529 
L 521.906908 -500.919232 
L 523.357087 -528.105448 
L 524.807266 -540.257409 
L 526.257446 -539.853471 
L 527.707625 -552.539726 
L 529.157804 -554.604517 
L 530.607984 -555.523982 
L 532.058163 -555.912821 
L 533.508342 -556.056088 
L 534.958522 -556.070438 
L 536.408701 -555.942073 
L 537.85888 -555.472014 
L 539.30906 -554.204389 
L 540.759239 -551.497661 
L 542.209418 -546.943143 
L 543.659598 -530.106741 
L 545.109777 -525.576697 
L 546.559956 -519.641917 
L 548.010136 -526.088542 
L 549.460315 -525.591824 
L 550.910494 -528.633852 
L 552.360674 -544.252622 
L 553.810853 -548.523393 
L 555.261032 -550.562244 
L 556.711212 -549.816739 
L 558.161391 -546.966149 
L 559.61157 -533.772354 
L 561.06175 -530.359748 
L 562.511929 -533.171197 
L 563.962108 -545.205437 
L 565.412288 -547.70975 
L 566.862467 -541.249954 
L 568.312646 -551.20806 
L 569.762826 -546.417946 
L 571.213005 -553.909092 
L 572.663184 -554.931429 
L 574.113363 -555.587509 
L 575.563543 -555.922543 
L 577.013722 -556.044158 
L 578.463901 -556.02453 
L 579.914081 -555.854977 
L 581.36426 -555.480221 
L 582.814439 -554.914001 
L 584.264619 -554.342974 
L 585.714798 -546.032585 
L 587.164977 -554.224944 
L 588.615157 -554.746167 
L 590.065336 -551.460036 
L 591.515515 -556.470733 
L 592.965695 -557.984726 
L 594.415874 -559.460579 
L 595.866053 -562.000166 
L 597.316233 -555.15605 
L 598.766412 -562.188369 
L 600.216591 -560.521428 
L 601.666771 -559.003503 
L 603.11695 -558.30035 
L 604.567129 -558.249197 
L 606.017309 -545.435804 
L 607.467488 -557.96504 
L 608.917667 -557.38197 
L 610.367847 -556.793007 
L 611.818026 -556.379567 
L 613.268205 -556.081421 
L 614.718385 -555.606614 
L 616.168564 -554.424229 
L 617.618743 -551.891587 
L 619.068923 -547.776341 
L 620.519102 -542.927824 
L 621.969281 -525.837237 
L 623.41946 -538.344516 
L 624.86964 -527.554057 
L 626.319819 -545.001196 
L 627.769998 -549.52766 
L 629.220178 -552.934245 
L 630.670357 -554.881426 
L 632.120536 -555.738823 
L 633.570716 -556.030641 
L 635.020895 -556.107944 
L 636.471074 -556.123161 
L 636.471074 -556.123161 
L 636.471074 -556.123161 
L 635.020895 -556.107944 
L 633.570716 -556.030641 
L 632.120536 -555.738823 
L 630.670357 -554.881426 
L 629.220178 -552.934245 
L 627.769998 -549.52766 
L 626.319819 -545.001196 
L 624.86964 -553.790272 
L 623.41946 -538.344516 
L 621.969281 -552.582233 
L 620.519102 -542.927824 
L 619.068923 -547.776341 
L 617.618743 -551.891587 
L 616.168564 -554.424229 
L 614.718385 -555.606614 
L 613.268205 -556.081421 
L 611.818026 -556.379567 
L 610.367847 -556.793007 
L 608.917667 -557.38197 
L 607.467488 -557.96504 
L 606.017309 -571.101535 
L 604.567129 -558.249197 
L 603.11695 -558.30035 
L 601.666771 -559.003503 
L 600.216591 -560.521428 
L 598.766412 -562.188369 
L 597.316233 -570.602238 
L 595.866053 -562.000166 
L 594.415874 -560.60705 
L 592.965695 -557.984726 
L 591.515515 -556.470733 
L 590.065336 -559.487653 
L 588.615157 -554.746167 
L 587.164977 -554.224944 
L 585.714798 -562.087988 
L 584.264619 -554.342974 
L 582.814439 -554.914001 
L 581.36426 -555.480221 
L 579.914081 -555.854977 
L 578.463901 -556.02453 
L 577.013722 -556.044158 
L 575.563543 -555.922543 
L 574.113363 -555.587509 
L 572.663184 -554.931429 
L 571.213005 -553.909092 
L 569.762826 -558.811344 
L 568.312646 -551.20806 
L 566.862467 -558.093188 
L 565.412288 -547.70975 
L 563.962108 -545.205437 
L 562.511929 -552.605891 
L 561.06175 -553.936298 
L 559.61157 -553.769388 
L 558.161391 -546.966149 
L 556.711212 -549.816739 
L 555.261032 -550.562244 
L 553.810853 -548.523393 
L 552.360674 -544.252622 
L 550.910494 -549.561468 
L 549.460315 -543.476946 
L 548.010136 -537.573319 
L 546.559956 -544.381875 
L 545.109777 -545.242066 
L 543.659598 -551.964877 
L 542.209418 -546.943143 
L 540.759239 -551.497661 
L 539.30906 -554.204389 
L 537.85888 -555.472014 
L 536.408701 -555.942073 
L 534.958522 -556.070438 
L 533.508342 -556.056088 
L 532.058163 -555.912821 
L 530.607984 -555.523982 
L 529.157804 -554.604517 
L 527.707625 -552.539726 
L 526.257446 -556.567015 
L 524.807266 -540.257409 
L 523.357087 -528.105448 
L 521.906908 -525.118826 
L 520.456729 -511.638765 
L 519.006549 -495.775173 
L 517.55637 -488.48178 
L 516.106191 -481.296827 
L 514.656011 -479.111871 
L 513.205832 -478.325694 
L 511.755653 -477.540801 
L 510.305473 -468.615337 
L 508.855294 -475.529244 
L 507.405115 -468.513099 
L 505.954935 -452.046913 
L 504.504756 -450.475498 
L 503.054577 -439.076999 
L 501.604397 -431.875723 
L 500.154218 -428.879946 
L 498.704039 -429.844387 
L 497.253859 -431.905474 
L 495.80368 -434.513408 
L 494.353501 -434.713032 
L 492.903321 -438.488214 
L 491.453142 -440.637875 
L 490.002963 -448.354997 
L 488.552783 -458.06921 
L 487.102604 -472.220028 
L 485.652425 -475.985953 
L 484.202245 -477.955506 
L 482.752066 -481.187314 
L 481.301887 -485.820339 
L 479.851707 -483.37734 
L 478.401528 -482.406254 
L 476.951349 -481.208498 
L 475.501169 -487.867451 
L 474.05099 -496.214083 
L 472.600811 -495.912544 
L 471.150632 -528.87841 
L 469.700452 -528.029354 
L 468.250273 -539.424478 
L 466.800094 -545.19849 
L 465.349914 -545.204894 
L 463.899735 -540.87595 
L 462.449556 -547.040389 
L 460.999376 -541.098955 
L 459.549197 -521.295694 
L 458.099018 -527.902876 
L 456.648838 -527.163512 
L 455.198659 -523.972529 
L 453.74848 -524.638421 
L 452.2983 -517.260281 
L 450.848121 -516.298502 
L 449.397942 -524.189814 
L 447.947762 -519.53701 
L 446.497583 -516.338293 
L 445.047404 -502.68354 
L 443.597224 -516.1033 
L 442.147045 -518.91167 
L 440.696866 -522.277704 
L 439.246686 -515.02918 
L 437.796507 -534.31329 
L 436.346328 -531.627333 
L 434.896148 -538.216989 
L 433.445969 -553.334231 
L 431.99579 -547.523593 
L 430.54561 -551.006365 
L 429.095431 -553.566988 
L 427.645252 -555.051725 
L 426.195073 -555.60857 
L 424.744893 -555.460728 
L 423.294714 -554.710154 
L 421.844535 -553.508519 
L 420.394355 -552.321216 
L 418.944176 -561.767353 
L 417.493997 -552.321216 
L 416.043817 -553.510987 
L 414.593638 -554.726246 
L 413.143459 -555.542447 
L 411.693279 -555.936492 
L 410.2431 -556.078023 
L 408.792921 -556.116486 
L 407.342741 -556.124471 
L 405.892562 -556.125917 
z
" style="stroke: #9467bd; stroke-opacity: 0.2"/>
    </defs>
    <g clip-path="url(#pd3c9a78f0b)">
     <use xlink:href="#m43c5f37fe7" x="0" y="720" style="fill: #9467bd; fill-opacity: 0.2; stroke: #9467bd; stroke-opacity: 0.2"/>
    </g>
   </g>
   <g id="PolyCollection_2">
    <defs>
     <path id="mb03f918109" d="M 405.892562 -556.124397 
L 405.892562 -556.124397 
L 407.342741 -556.116007 
L 408.792921 -556.074824 
L 410.2431 -555.921141 
L 411.693279 -555.481772 
L 413.143459 -554.523424 
L 414.593638 -552.934939 
L 416.043817 -550.92865 
L 417.493997 -540.60244 
L 418.944176 -547.324873 
L 420.394355 -540.555256 
L 421.844535 -540.335775 
L 423.294714 -536.467614 
L 424.744893 -537.983657 
L 426.195073 -542.156675 
L 427.645252 -539.286149 
L 429.095431 -549.825026 
L 430.54561 -550.254655 
L 431.99579 -553.466822 
L 433.445969 -554.061174 
L 434.896148 -552.265728 
L 436.346328 -547.089 
L 437.796507 -554.527146 
L 439.246686 -554.509459 
L 440.696866 -555.520885 
L 442.147045 -555.853696 
L 443.597224 -556.025438 
L 445.047404 -556.09519 
L 446.497583 -556.118099 
L 447.947762 -556.12297 
L 449.397942 -556.11714 
L 450.848121 -556.082469 
L 452.2983 -555.952529 
L 453.74848 -555.586035 
L 455.198659 -554.801308 
L 456.648838 -553.534491 
L 458.099018 -551.992908 
L 459.549197 -543.82477 
L 460.999376 -549.523173 
L 462.449556 -548.919438 
L 463.899735 -539.893849 
L 465.349914 -548.307612 
L 466.800094 -547.625228 
L 468.250273 -545.933338 
L 469.700452 -536.951468 
L 471.150632 -548.346285 
L 472.600811 -550.892367 
L 474.05099 -553.350328 
L 475.501169 -554.973991 
L 476.951349 -555.753049 
L 478.401528 -556.031751 
L 479.851707 -556.107391 
L 481.301887 -556.123085 
L 482.752066 -556.125917 
L 484.202245 -556.125917 
L 485.652425 -556.125917 
L 487.102604 -556.125917 
L 488.552783 -556.125917 
L 490.002963 -556.125917 
L 491.453142 -556.125917 
L 492.903321 -556.125917 
L 494.353501 -556.125917 
L 495.80368 -556.125917 
L 497.253859 -556.125917 
L 498.704039 -556.125917 
L 500.154218 -556.125917 
L 501.604397 -556.125917 
L 503.054577 -556.125917 
L 504.504756 -556.125917 
L 505.954935 -556.125917 
L 507.405115 -556.125917 
L 508.855294 -556.125917 
L 510.305473 -556.125917 
L 511.755653 -556.123814 
L 513.205832 -556.106325 
L 514.656011 -556.017936 
L 516.106191 -555.651185 
L 517.55637 -554.468608 
L 519.006549 -551.508775 
L 520.456729 -545.730799 
L 521.906908 -536.894029 
L 523.357087 -516.968146 
L 524.807266 -499.666822 
L 526.257446 -504.751879 
L 527.707625 -478.769939 
L 529.157804 -469.270422 
L 530.607984 -487.295456 
L 532.058163 -466.910071 
L 533.508342 -477.999221 
L 534.958522 -492.83763 
L 536.408701 -515.416554 
L 537.85888 -522.853344 
L 539.30906 -511.799061 
L 540.759239 -533.02414 
L 542.209418 -532.010175 
L 543.659598 -545.409938 
L 545.109777 -550.391027 
L 546.559956 -553.56967 
L 548.010136 -555.18863 
L 549.460315 -555.84659 
L 550.910494 -556.059125 
L 552.360674 -556.114173 
L 553.810853 -556.126596 
L 555.261032 -556.139994 
L 556.711212 -556.188192 
L 558.161391 -556.343831 
L 559.61157 -556.729038 
L 561.06175 -557.445501 
L 562.511929 -558.406106 
L 563.962108 -556.606205 
L 565.412288 -553.335908 
L 566.862467 -558.943212 
L 568.312646 -557.994113 
L 569.762826 -557.097663 
L 571.213005 -556.522774 
L 572.663184 -556.25745 
L 574.113363 -556.178581 
L 575.563543 -556.19741 
L 577.013722 -556.283637 
L 578.463901 -556.418895 
L 579.914081 -556.552197 
L 581.36426 -554.187523 
L 582.814439 -556.553001 
L 584.264619 -556.422975 
L 585.714798 -556.298876 
L 587.164977 -556.241001 
L 588.615157 -556.266393 
L 590.065336 -556.354076 
L 591.515515 -556.451136 
L 592.965695 -554.651157 
L 594.415874 -556.444936 
L 595.866053 -556.322591 
L 597.316233 -556.141865 
L 598.766412 -555.857533 
L 600.216591 -555.379419 
L 601.666771 -554.707412 
L 603.11695 -554.065601 
L 604.567129 -548.782158 
L 606.017309 -554.153038 
L 607.467488 -554.890496 
L 608.917667 -555.639996 
L 610.367847 -554.975354 
L 611.818026 -556.300016 
L 613.268205 -556.290454 
L 614.718385 -556.222825 
L 616.168564 -556.167669 
L 617.618743 -556.139728 
L 619.068923 -556.129409 
L 620.519102 -556.126604 
L 621.969281 -556.126022 
L 623.41946 -556.125917 
L 624.86964 -556.125917 
L 626.319819 -556.125917 
L 627.769998 -556.125917 
L 629.220178 -556.125917 
L 630.670357 -556.125917 
L 632.120536 -556.125917 
L 633.570716 -556.125917 
L 635.020895 -556.125917 
L 636.471074 -556.125917 
L 636.471074 -556.125917 
L 636.471074 -556.125917 
L 635.020895 -556.125917 
L 633.570716 -556.125917 
L 632.120536 -556.125917 
L 630.670357 -556.125917 
L 629.220178 -556.125917 
L 627.769998 -556.125917 
L 626.319819 -556.125917 
L 624.86964 -556.125917 
L 623.41946 -556.125917 
L 621.969281 -556.126022 
L 620.519102 -556.126604 
L 619.068923 -556.129409 
L 617.618743 -556.139728 
L 616.168564 -556.167669 
L 614.718385 -556.222825 
L 613.268205 -556.290454 
L 611.818026 -556.300016 
L 610.367847 -557.268757 
L 608.917667 -555.639996 
L 607.467488 -554.890496 
L 606.017309 -554.153038 
L 604.567129 -558.852596 
L 603.11695 -554.065601 
L 601.666771 -554.707412 
L 600.216591 -555.379419 
L 598.766412 -555.857533 
L 597.316233 -556.141865 
L 595.866053 -556.322591 
L 594.415874 -556.444936 
L 592.965695 -558.334072 
L 591.515515 -556.451136 
L 590.065336 -556.354076 
L 588.615157 -556.266393 
L 587.164977 -556.241001 
L 585.714798 -556.298876 
L 584.264619 -556.422975 
L 582.814439 -556.553001 
L 581.36426 -559.030635 
L 579.914081 -556.552197 
L 578.463901 -556.418895 
L 577.013722 -556.283637 
L 575.563543 -556.19741 
L 574.113363 -556.178581 
L 572.663184 -556.25745 
L 571.213005 -556.522774 
L 569.762826 -557.097663 
L 568.312646 -557.994113 
L 566.862467 -558.943212 
L 565.412288 -565.589093 
L 563.962108 -561.861409 
L 562.511929 -558.406106 
L 561.06175 -557.445501 
L 559.61157 -556.729038 
L 558.161391 -556.343831 
L 556.711212 -556.188192 
L 555.261032 -556.139994 
L 553.810853 -556.126596 
L 552.360674 -556.114173 
L 550.910494 -556.059125 
L 549.460315 -555.84659 
L 548.010136 -555.18863 
L 546.559956 -553.56967 
L 545.109777 -550.391027 
L 543.659598 -545.409938 
L 542.209418 -546.47071 
L 540.759239 -533.385682 
L 539.30906 -544.386905 
L 537.85888 -522.853344 
L 536.408701 -515.416554 
L 534.958522 -518.096483 
L 533.508342 -513.175585 
L 532.058163 -511.181655 
L 530.607984 -487.295456 
L 529.157804 -510.704296 
L 527.707625 -513.528926 
L 526.257446 -504.751879 
L 524.807266 -530.253275 
L 523.357087 -535.179873 
L 521.906908 -536.894029 
L 520.456729 -545.730799 
L 519.006549 -551.508775 
L 517.55637 -554.468608 
L 516.106191 -555.651185 
L 514.656011 -556.017936 
L 513.205832 -556.106325 
L 511.755653 -556.123814 
L 510.305473 -556.125917 
L 508.855294 -556.125917 
L 507.405115 -556.125917 
L 505.954935 -556.125917 
L 504.504756 -556.125917 
L 503.054577 -556.125917 
L 501.604397 -556.125917 
L 500.154218 -556.125917 
L 498.704039 -556.125917 
L 497.253859 -556.125917 
L 495.80368 -556.125917 
L 494.353501 -556.125917 
L 492.903321 -556.125917 
L 491.453142 -556.125917 
L 490.002963 -556.125917 
L 488.552783 -556.125917 
L 487.102604 -556.125917 
L 485.652425 -556.125917 
L 484.202245 -556.125917 
L 482.752066 -556.125917 
L 481.301887 -556.123085 
L 479.851707 -556.107391 
L 478.401528 -556.031751 
L 476.951349 -555.753049 
L 475.501169 -554.973991 
L 474.05099 -553.350328 
L 472.600811 -550.892367 
L 471.150632 -548.346285 
L 469.700452 -556.725022 
L 468.250273 -547.710058 
L 466.800094 -547.625228 
L 465.349914 -548.307612 
L 463.899735 -557.355196 
L 462.449556 -548.919438 
L 460.999376 -549.523173 
L 459.549197 -557.302685 
L 458.099018 -551.992908 
L 456.648838 -553.534491 
L 455.198659 -554.801308 
L 453.74848 -555.586035 
L 452.2983 -555.952529 
L 450.848121 -556.082469 
L 449.397942 -556.11714 
L 447.947762 -556.12297 
L 446.497583 -556.118099 
L 445.047404 -556.09519 
L 443.597224 -556.025438 
L 442.147045 -555.853696 
L 440.696866 -555.520885 
L 439.246686 -555.555364 
L 437.796507 -554.527146 
L 436.346328 -561.337961 
L 434.896148 -556.03088 
L 433.445969 -554.061174 
L 431.99579 -553.466822 
L 430.54561 -553.788414 
L 429.095431 -549.825026 
L 427.645252 -555.537119 
L 426.195073 -548.72439 
L 424.744893 -550.743661 
L 423.294714 -552.081032 
L 421.844535 -549.545433 
L 420.394355 -551.471905 
L 418.944176 -547.324873 
L 417.493997 -557.309526 
L 416.043817 -550.92865 
L 414.593638 -552.934939 
L 413.143459 -554.523424 
L 411.693279 -555.481772 
L 410.2431 -555.921141 
L 408.792921 -556.074824 
L 407.342741 -556.116007 
L 405.892562 -556.124397 
z
" style="stroke: #1f77b4; stroke-opacity: 0.2"/>
    </defs>
    <g clip-path="url(#pd3c9a78f0b)">
     <use xlink:href="#mb03f918109" x="0" y="720" style="fill: #1f77b4; fill-opacity: 0.2; stroke: #1f77b4; stroke-opacity: 0.2"/>
    </g>
   </g>
   <g id="PolyCollection_3">
    <defs>
     <path id="m28cee72710" d="M 405.892562 -543.635221 
L 405.892562 -522.517882 
L 407.342741 -535.24294 
L 408.792921 -528.839327 
L 410.2431 -541.490564 
L 411.693279 -542.661846 
L 413.143459 -542.186673 
L 414.593638 -530.744813 
L 416.043817 -534.361398 
L 417.493997 -546.476772 
L 418.944176 -550.383952 
L 420.394355 -553.403771 
L 421.844535 -555.076094 
L 423.294714 -555.719901 
L 424.744893 -555.803222 
L 426.195073 -555.641528 
L 427.645252 -555.438506 
L 429.095431 -553.040297 
L 430.54561 -555.440026 
L 431.99579 -555.654511 
L 433.445969 -555.876991 
L 434.896148 -556.042899 
L 436.346328 -556.20434 
L 437.796507 -556.562513 
L 439.246686 -557.499122 
L 440.696866 -559.441015 
L 442.147045 -562.405678 
L 443.597224 -565.616665 
L 445.047404 -556.857334 
L 446.497583 -569.549038 
L 447.947762 -571.223703 
L 449.397942 -573.525712 
L 450.848121 -566.412129 
L 452.2983 -566.095361 
L 453.74848 -569.703519 
L 455.198659 -564.440903 
L 456.648838 -560.167309 
L 458.099018 -557.679071 
L 459.549197 -556.59725 
L 460.999376 -556.241462 
L 462.449556 -556.165716 
L 463.899735 -556.223099 
L 465.349914 -556.499547 
L 466.800094 -557.276778 
L 468.250273 -558.886688 
L 469.700452 -561.283716 
L 471.150632 -563.630471 
L 472.600811 -553.319806 
L 474.05099 -563.630471 
L 475.501169 -561.283716 
L 476.951349 -558.886688 
L 478.401528 -557.276778 
L 479.851707 -556.499547 
L 481.301887 -556.220385 
L 482.752066 -556.144519 
L 484.202245 -556.12877 
L 485.652425 -556.125917 
L 487.102604 -556.125917 
L 488.552783 -556.125917 
L 490.002963 -556.125917 
L 491.453142 -556.125917 
L 492.903321 -556.125917 
L 494.353501 -556.125917 
L 495.80368 -556.125917 
L 497.253859 -556.125917 
L 498.704039 -556.125917 
L 500.154218 -556.125917 
L 501.604397 -556.125917 
L 503.054577 -556.125917 
L 504.504756 -556.125917 
L 505.954935 -556.125917 
L 507.405115 -556.125917 
L 508.855294 -556.125917 
L 510.305473 -556.125917 
L 511.755653 -556.125917 
L 513.205832 -556.125917 
L 514.656011 -556.125917 
L 516.106191 -556.125917 
L 517.55637 -556.125917 
L 519.006549 -556.125917 
L 520.456729 -556.125917 
L 521.906908 -556.125917 
L 523.357087 -556.125917 
L 524.807266 -556.125917 
L 526.257446 -556.125917 
L 527.707625 -556.125917 
L 529.157804 -556.125917 
L 530.607984 -556.125917 
L 532.058163 -556.125917 
L 533.508342 -556.125917 
L 534.958522 -556.125917 
L 536.408701 -556.125917 
L 537.85888 -556.125917 
L 539.30906 -556.125917 
L 540.759239 -556.125171 
L 542.209418 -556.121056 
L 543.659598 -556.098261 
L 545.109777 -556.008911 
L 546.559956 -555.72679 
L 548.010136 -555.015305 
L 549.460315 -553.579262 
L 550.910494 -551.288867 
L 552.360674 -542.20047 
L 553.810853 -546.346775 
L 555.261032 -535.048552 
L 556.711212 -547.58628 
L 558.161391 -550.451792 
L 559.61157 -553.149268 
L 561.06175 -554.880285 
L 562.511929 -555.607931 
L 563.962108 -555.491027 
L 565.412288 -554.255204 
L 566.862467 -550.966676 
L 568.312646 -544.472274 
L 569.762826 -534.630499 
L 571.213005 -517.423904 
L 572.663184 -508.984445 
L 574.113363 -506.76218 
L 575.563543 -516.19183 
L 577.013722 -533.726554 
L 578.463901 -544.054097 
L 579.914081 -550.898119 
L 581.36426 -554.312714 
L 582.814439 -555.623607 
L 584.264619 -556.014793 
L 585.714798 -556.103108 
L 587.164977 -556.104858 
L 588.615157 -556.04974 
L 590.065336 -555.891276 
L 591.515515 -555.563043 
L 592.965695 -555.07433 
L 594.415874 -554.595867 
L 595.866053 -550.232263 
L 597.316233 -554.595867 
L 598.766412 -555.07433 
L 600.216591 -555.563043 
L 601.666771 -555.891276 
L 603.11695 -556.04974 
L 604.567129 -556.106656 
L 606.017309 -556.124706 
L 607.467488 -556.147666 
L 608.917667 -556.251961 
L 610.367847 -556.676765 
L 611.818026 -558.043232 
L 613.268205 -561.458518 
L 614.718385 -568.015876 
L 616.168564 -577.432988 
L 617.618743 -574.91182 
L 619.068923 -574.987338 
L 620.519102 -572.244079 
L 621.969281 -583.78496 
L 623.41946 -576.286119 
L 624.86964 -570.930661 
L 626.319819 -553.621529 
L 627.769998 -564.866543 
L 629.220178 -562.370782 
L 630.670357 -560.879252 
L 632.120536 -560.976368 
L 633.570716 -562.248845 
L 635.020895 -551.127603 
L 636.471074 -564.546354 
L 636.471074 -564.546354 
L 636.471074 -564.546354 
L 635.020895 -576.260205 
L 633.570716 -562.248845 
L 632.120536 -560.976368 
L 630.670357 -560.879252 
L 629.220178 -562.370782 
L 627.769998 -564.866543 
L 626.319819 -581.563146 
L 624.86964 -570.930661 
L 623.41946 -576.286119 
L 621.969281 -583.78496 
L 620.519102 -608.713527 
L 619.068923 -609.173609 
L 617.618743 -598.880503 
L 616.168564 -577.432988 
L 614.718385 -568.015876 
L 613.268205 -561.458518 
L 611.818026 -558.043232 
L 610.367847 -556.676765 
L 608.917667 -556.251961 
L 607.467488 -556.147666 
L 606.017309 -556.124706 
L 604.567129 -556.106656 
L 603.11695 -556.04974 
L 601.666771 -555.891276 
L 600.216591 -555.563043 
L 598.766412 -555.07433 
L 597.316233 -554.595867 
L 595.866053 -558.552025 
L 594.415874 -554.595867 
L 592.965695 -555.07433 
L 591.515515 -555.563043 
L 590.065336 -555.891276 
L 588.615157 -556.04974 
L 587.164977 -556.104858 
L 585.714798 -556.103108 
L 584.264619 -556.014793 
L 582.814439 -555.623607 
L 581.36426 -554.312714 
L 579.914081 -550.898119 
L 578.463901 -544.054097 
L 577.013722 -533.726554 
L 575.563543 -528.99891 
L 574.113363 -524.127763 
L 572.663184 -522.879802 
L 571.213005 -529.885864 
L 569.762826 -534.630499 
L 568.312646 -544.472274 
L 566.862467 -550.966676 
L 565.412288 -554.255204 
L 563.962108 -555.491027 
L 562.511929 -555.607931 
L 561.06175 -554.880285 
L 559.61157 -553.149268 
L 558.161391 -550.451792 
L 556.711212 -547.58628 
L 555.261032 -556.789384 
L 553.810853 -546.346775 
L 552.360674 -554.860623 
L 550.910494 -551.288867 
L 549.460315 -553.579262 
L 548.010136 -555.015305 
L 546.559956 -555.72679 
L 545.109777 -556.008911 
L 543.659598 -556.098261 
L 542.209418 -556.121056 
L 540.759239 -556.125171 
L 539.30906 -556.125917 
L 537.85888 -556.125917 
L 536.408701 -556.125917 
L 534.958522 -556.125917 
L 533.508342 -556.125917 
L 532.058163 -556.125917 
L 530.607984 -556.125917 
L 529.157804 -556.125917 
L 527.707625 -556.125917 
L 526.257446 -556.125917 
L 524.807266 -556.125917 
L 523.357087 -556.125917 
L 521.906908 -556.125917 
L 520.456729 -556.125917 
L 519.006549 -556.125917 
L 517.55637 -556.125917 
L 516.106191 -556.125917 
L 514.656011 -556.125917 
L 513.205832 -556.125917 
L 511.755653 -556.125917 
L 510.305473 -556.125917 
L 508.855294 -556.125917 
L 507.405115 -556.125917 
L 505.954935 -556.125917 
L 504.504756 -556.125917 
L 503.054577 -556.125917 
L 501.604397 -556.125917 
L 500.154218 -556.125917 
L 498.704039 -556.125917 
L 497.253859 -556.125917 
L 495.80368 -556.125917 
L 494.353501 -556.125917 
L 492.903321 -556.125917 
L 491.453142 -556.125917 
L 490.002963 -556.125917 
L 488.552783 -556.125917 
L 487.102604 -556.125917 
L 485.652425 -556.125917 
L 484.202245 -556.12877 
L 482.752066 -556.144519 
L 481.301887 -556.220385 
L 479.851707 -556.499547 
L 478.401528 -557.276778 
L 476.951349 -558.886688 
L 475.501169 -561.283716 
L 474.05099 -563.630471 
L 472.600811 -575.939576 
L 471.150632 -563.630471 
L 469.700452 -561.283716 
L 468.250273 -558.886688 
L 466.800094 -557.276778 
L 465.349914 -556.499547 
L 463.899735 -556.223099 
L 462.449556 -556.165716 
L 460.999376 -556.241462 
L 459.549197 -556.59725 
L 458.099018 -557.679071 
L 456.648838 -560.167309 
L 455.198659 -564.440903 
L 453.74848 -569.703519 
L 452.2983 -581.633899 
L 450.848121 -583.718691 
L 449.397942 -573.525712 
L 447.947762 -571.223703 
L 446.497583 -569.549038 
L 445.047404 -579.194807 
L 443.597224 -565.616665 
L 442.147045 -562.405678 
L 440.696866 -559.441015 
L 439.246686 -557.499122 
L 437.796507 -556.562513 
L 436.346328 -556.20434 
L 434.896148 -556.042899 
L 433.445969 -555.876991 
L 431.99579 -555.654511 
L 430.54561 -555.440026 
L 429.095431 -557.657105 
L 427.645252 -555.438506 
L 426.195073 -555.641528 
L 424.744893 -555.803222 
L 423.294714 -555.719901 
L 421.844535 -555.076094 
L 420.394355 -553.403771 
L 418.944176 -550.383952 
L 417.493997 -546.476772 
L 416.043817 -551.898329 
L 414.593638 -552.755996 
L 413.143459 -542.186673 
L 411.693279 -542.661846 
L 410.2431 -541.490564 
L 408.792921 -548.320864 
L 407.342741 -535.24294 
L 405.892562 -543.635221 
z
" style="stroke: #d62728; stroke-opacity: 0.2"/>
    </defs>
    <g clip-path="url(#pd3c9a78f0b)">
     <use xlink:href="#m28cee72710" x="0" y="720" style="fill: #d62728; fill-opacity: 0.2; stroke: #d62728; stroke-opacity: 0.2"/>
    </g>
   </g>
   <g id="PolyCollection_4">
    <defs>
     <path id="md7f494f932" d="M 405.892562 -556.125917 
L 405.892562 -556.125917 
L 407.342741 -556.125917 
L 408.792921 -556.125917 
L 410.2431 -556.125917 
L 411.693279 -556.125917 
L 413.143459 -556.125917 
L 414.593638 -556.125917 
L 416.043817 -556.125917 
L 417.493997 -556.125917 
L 418.944176 -556.125917 
L 420.394355 -556.125917 
L 421.844535 -556.125917 
L 423.294714 -556.125917 
L 424.744893 -556.125917 
L 426.195073 -556.125917 
L 427.645252 -556.125917 
L 429.095431 -556.125917 
L 430.54561 -556.125917 
L 431.99579 -556.125917 
L 433.445969 -556.125917 
L 434.896148 -556.125917 
L 436.346328 -556.125917 
L 437.796507 -556.125917 
L 439.246686 -556.125917 
L 440.696866 -556.125917 
L 442.147045 -556.125917 
L 443.597224 -556.125917 
L 445.047404 -556.125917 
L 446.497583 -556.125917 
L 447.947762 -556.125917 
L 449.397942 -556.125917 
L 450.848121 -556.125917 
L 452.2983 -556.125917 
L 453.74848 -556.132977 
L 455.198659 -556.171957 
L 456.648838 -556.35973 
L 458.099018 -557.050667 
L 459.549197 -558.974349 
L 460.999376 -562.958951 
L 462.449556 -568.891705 
L 463.899735 -574.700029 
L 465.349914 -553.532329 
L 466.800094 -574.700029 
L 468.250273 -568.891705 
L 469.700452 -562.958951 
L 471.150632 -558.974349 
L 472.600811 -557.050667 
L 474.05099 -556.35973 
L 475.501169 -556.171957 
L 476.951349 -556.132977 
L 478.401528 -556.125917 
L 479.851707 -556.125917 
L 481.301887 -556.125917 
L 482.752066 -556.125917 
L 484.202245 -556.125917 
L 485.652425 -556.125917 
L 487.102604 -556.125917 
L 488.552783 -556.125917 
L 490.002963 -556.125917 
L 491.453142 -556.125917 
L 492.903321 -556.125917 
L 494.353501 -556.137355 
L 495.80368 -556.200503 
L 497.253859 -556.504698 
L 498.704039 -557.635985 
L 500.154218 -560.818404 
L 501.604397 -567.591576 
L 503.054577 -578.373075 
L 504.504756 -591.041099 
L 505.954935 -581.22532 
L 507.405115 -607.839765 
L 508.855294 -608.268718 
L 510.305473 -584.733214 
L 511.755653 -592.202463 
L 513.205832 -579.247553 
L 514.656011 -568.078938 
L 516.106191 -561.025364 
L 517.55637 -557.703758 
L 519.006549 -556.525665 
L 520.456729 -556.228027 
L 521.906908 -556.260383 
L 523.357087 -556.610441 
L 524.807266 -557.621331 
L 526.257446 -559.727353 
L 527.707625 -562.925226 
L 529.157804 -566.309144 
L 530.607984 -552.290788 
L 532.058163 -569.487687 
L 533.508342 -569.994011 
L 534.958522 -570.895683 
L 536.408701 -557.490268 
L 537.85888 -558.978327 
L 539.30906 -566.51952 
L 540.759239 -562.391316 
L 542.209418 -559.13293 
L 543.659598 -557.28896 
L 545.109777 -556.590739 
L 546.559956 -556.706156 
L 548.010136 -557.745523 
L 549.460315 -560.247037 
L 550.910494 -564.680315 
L 552.360674 -570.712838 
L 553.810853 -564.337124 
L 555.261032 -580.873472 
L 556.711212 -563.254811 
L 558.161391 -563.83481 
L 559.61157 -570.643147 
L 561.06175 -564.759485 
L 562.511929 -561.496632 
L 563.962108 -561.561554 
L 565.412288 -564.18778 
L 566.862467 -567.386679 
L 568.312646 -554.587278 
L 569.762826 -567.301257 
L 571.213005 -563.805431 
L 572.663184 -560.236465 
L 574.113363 -557.839448 
L 575.563543 -556.682219 
L 577.013722 -556.266572 
L 578.463901 -556.153614 
L 579.914081 -556.130164 
L 581.36426 -556.125917 
L 582.814439 -556.125917 
L 584.264619 -556.125917 
L 585.714798 -556.125917 
L 587.164977 -556.12343 
L 588.615157 -556.104639 
L 590.065336 -556.010559 
L 591.515515 -555.630997 
L 592.965695 -554.44933 
L 594.415874 -551.624458 
L 595.866053 -546.520592 
L 597.316233 -539.775687 
L 598.766412 -522.338621 
L 600.216591 -519.935784 
L 601.666771 -533.145944 
L 603.11695 -528.746545 
L 604.567129 -540.861326 
L 606.017309 -542.303919 
L 607.467488 -532.163639 
L 608.917667 -530.95055 
L 610.367847 -538.446265 
L 611.818026 -534.987691 
L 613.268205 -519.43154 
L 614.718385 -517.458573 
L 616.168564 -517.473426 
L 617.618743 -537.353237 
L 619.068923 -541.175468 
L 620.519102 -541.53901 
L 621.969281 -538.521139 
L 623.41946 -519.249886 
L 624.86964 -528.072291 
L 626.319819 -521.429632 
L 627.769998 -500.797688 
L 629.220178 -498.405932 
L 630.670357 -498.567589 
L 632.120536 -511.721326 
L 633.570716 -533.414527 
L 635.020895 -543.137029 
L 636.471074 -548.547496 
L 636.471074 -548.547496 
L 636.471074 -548.547496 
L 635.020895 -543.137029 
L 633.570716 -533.414527 
L 632.120536 -532.728098 
L 630.670357 -528.937934 
L 629.220178 -524.128111 
L 627.769998 -528.814615 
L 626.319819 -521.429632 
L 624.86964 -528.072291 
L 623.41946 -548.222752 
L 621.969281 -538.521139 
L 620.519102 -541.53901 
L 619.068923 -541.175468 
L 617.618743 -537.353237 
L 616.168564 -547.661351 
L 614.718385 -542.807816 
L 613.268205 -543.407936 
L 611.818026 -534.987691 
L 610.367847 -538.446265 
L 608.917667 -550.434301 
L 607.467488 -551.785779 
L 606.017309 -542.303919 
L 604.567129 -540.861326 
L 603.11695 -545.851165 
L 601.666771 -533.145944 
L 600.216591 -542.695133 
L 598.766412 -545.227299 
L 597.316233 -539.775687 
L 595.866053 -546.520592 
L 594.415874 -551.624458 
L 592.965695 -554.44933 
L 591.515515 -555.630997 
L 590.065336 -556.010559 
L 588.615157 -556.104639 
L 587.164977 -556.12343 
L 585.714798 -556.125917 
L 584.264619 -556.125917 
L 582.814439 -556.125917 
L 581.36426 -556.125917 
L 579.914081 -556.130164 
L 578.463901 -556.153614 
L 577.013722 -556.266572 
L 575.563543 -556.682219 
L 574.113363 -557.839448 
L 572.663184 -560.236465 
L 571.213005 -563.805431 
L 569.762826 -567.301257 
L 568.312646 -583.018979 
L 566.862467 -567.386679 
L 565.412288 -564.18778 
L 563.962108 -561.561554 
L 562.511929 -561.496632 
L 561.06175 -564.759485 
L 559.61157 -570.643147 
L 558.161391 -590.123675 
L 556.711212 -598.717528 
L 555.261032 -580.873472 
L 553.810853 -589.357354 
L 552.360674 -570.712838 
L 550.910494 -564.680315 
L 549.460315 -560.247037 
L 548.010136 -557.745523 
L 546.559956 -556.706156 
L 545.109777 -556.590739 
L 543.659598 -557.28896 
L 542.209418 -559.13293 
L 540.759239 -562.391316 
L 539.30906 -566.51952 
L 537.85888 -580.983056 
L 536.408701 -585.269113 
L 534.958522 -570.895683 
L 533.508342 -569.994011 
L 532.058163 -569.487687 
L 530.607984 -584.904437 
L 529.157804 -566.309144 
L 527.707625 -562.925226 
L 526.257446 -559.727353 
L 524.807266 -557.621331 
L 523.357087 -556.610441 
L 521.906908 -556.260383 
L 520.456729 -556.228027 
L 519.006549 -556.525665 
L 517.55637 -557.703758 
L 516.106191 -561.025364 
L 514.656011 -568.078938 
L 513.205832 -579.247553 
L 511.755653 -592.202463 
L 510.305473 -620.960179 
L 508.855294 -608.268718 
L 507.405115 -607.839765 
L 505.954935 -622.368595 
L 504.504756 -591.041099 
L 503.054577 -578.373075 
L 501.604397 -567.591576 
L 500.154218 -560.818404 
L 498.704039 -557.635985 
L 497.253859 -556.504698 
L 495.80368 -556.200503 
L 494.353501 -556.137355 
L 492.903321 -556.125917 
L 491.453142 -556.125917 
L 490.002963 -556.125917 
L 488.552783 -556.125917 
L 487.102604 -556.125917 
L 485.652425 -556.125917 
L 484.202245 -556.125917 
L 482.752066 -556.125917 
L 481.301887 -556.125917 
L 479.851707 -556.125917 
L 478.401528 -556.125917 
L 476.951349 -556.132977 
L 475.501169 -556.171957 
L 474.05099 -556.35973 
L 472.600811 -557.050667 
L 471.150632 -558.974349 
L 469.700452 -562.958951 
L 468.250273 -568.891705 
L 466.800094 -574.700029 
L 465.349914 -600.813957 
L 463.899735 -574.700029 
L 462.449556 -568.891705 
L 460.999376 -562.958951 
L 459.549197 -558.974349 
L 458.099018 -557.050667 
L 456.648838 -556.35973 
L 455.198659 -556.171957 
L 453.74848 -556.132977 
L 452.2983 -556.125917 
L 450.848121 -556.125917 
L 449.397942 -556.125917 
L 447.947762 -556.125917 
L 446.497583 -556.125917 
L 445.047404 -556.125917 
L 443.597224 -556.125917 
L 442.147045 -556.125917 
L 440.696866 -556.125917 
L 439.246686 -556.125917 
L 437.796507 -556.125917 
L 436.346328 -556.125917 
L 434.896148 -556.125917 
L 433.445969 -556.125917 
L 431.99579 -556.125917 
L 430.54561 -556.125917 
L 429.095431 -556.125917 
L 427.645252 -556.125917 
L 426.195073 -556.125917 
L 424.744893 -556.125917 
L 423.294714 -556.125917 
L 421.844535 -556.125917 
L 420.394355 -556.125917 
L 418.944176 -556.125917 
L 417.493997 -556.125917 
L 416.043817 -556.125917 
L 414.593638 -556.125917 
L 413.143459 -556.125917 
L 411.693279 -556.125917 
L 410.2431 -556.125917 
L 408.792921 -556.125917 
L 407.342741 -556.125917 
L 405.892562 -556.125917 
z
" style="stroke: #ff7f0e; stroke-opacity: 0.2"/>
    </defs>
    <g clip-path="url(#pd3c9a78f0b)">
     <use xlink:href="#md7f494f932" x="0" y="720" style="fill: #ff7f0e; fill-opacity: 0.2; stroke: #ff7f0e; stroke-opacity: 0.2"/>
    </g>
   </g>
   <g id="matplotlib.axis_3">
    <g id="xtick_7">
     <g id="line2d_13">
      <g>
       <use xlink:href="#m0198c0b629" x="405.863558" y="333.490909" style="stroke: #000000; stroke-width: 0.8"/>
      </g>
     </g>
     <g id="text_13">
      <!-- 0 -->
      <g transform="translate(402.682308 348.089347)scale(0.1 -0.1)">
       <use xlink:href="#DejaVuSans-30"/>
      </g>
     </g>
    </g>
    <g id="xtick_8">
     <g id="line2d_14">
      <g>
       <use xlink:href="#m0198c0b629" x="463.870731" y="333.490909" style="stroke: #000000; stroke-width: 0.8"/>
      </g>
     </g>
     <g id="text_14">
      <!-- 2000 -->
      <g transform="translate(451.145731 348.089347)scale(0.1 -0.1)">
       <use xlink:href="#DejaVuSans-32"/>
       <use xlink:href="#DejaVuSans-30" x="63.623047"/>
       <use xlink:href="#DejaVuSans-30" x="127.246094"/>
       <use xlink:href="#DejaVuSans-30" x="190.869141"/>
      </g>
     </g>
    </g>
    <g id="xtick_9">
     <g id="line2d_15">
      <g>
       <use xlink:href="#m0198c0b629" x="521.877904" y="333.490909" style="stroke: #000000; stroke-width: 0.8"/>
      </g>
     </g>
     <g id="text_15">
      <!-- 4000 -->
      <g transform="translate(509.152904 348.089347)scale(0.1 -0.1)">
       <use xlink:href="#DejaVuSans-34"/>
       <use xlink:href="#DejaVuSans-30" x="63.623047"/>
       <use xlink:href="#DejaVuSans-30" x="127.246094"/>
       <use xlink:href="#DejaVuSans-30" x="190.869141"/>
      </g>
     </g>
    </g>
    <g id="xtick_10">
     <g id="line2d_16">
      <g>
       <use xlink:href="#m0198c0b629" x="579.885077" y="333.490909" style="stroke: #000000; stroke-width: 0.8"/>
      </g>
     </g>
     <g id="text_16">
      <!-- 6000 -->
      <g transform="translate(567.160077 348.089347)scale(0.1 -0.1)">
       <use xlink:href="#DejaVuSans-36"/>
       <use xlink:href="#DejaVuSans-30" x="63.623047"/>
       <use xlink:href="#DejaVuSans-30" x="127.246094"/>
       <use xlink:href="#DejaVuSans-30" x="190.869141"/>
      </g>
     </g>
    </g>
    <g id="xtick_11">
     <g id="line2d_17">
      <g>
       <use xlink:href="#m0198c0b629" x="637.89225" y="333.490909" style="stroke: #000000; stroke-width: 0.8"/>
      </g>
     </g>
     <g id="text_17">
      <!-- 8000 -->
      <g transform="translate(625.16725 348.089347)scale(0.1 -0.1)">
       <use xlink:href="#DejaVuSans-38"/>
       <use xlink:href="#DejaVuSans-30" x="63.623047"/>
       <use xlink:href="#DejaVuSans-30" x="127.246094"/>
       <use xlink:href="#DejaVuSans-30" x="190.869141"/>
      </g>
     </g>
    </g>
   </g>
   <g id="matplotlib.axis_4">
    <g id="ytick_7">
     <g id="line2d_18">
      <g>
       <use xlink:href="#m06aba4c869" x="394.363636" y="315.804073" style="stroke: #000000; stroke-width: 0.8"/>
      </g>
     </g>
     <g id="text_18">
      <!-- −0.4 -->
      <g transform="translate(363.080824 319.603292)scale(0.1 -0.1)">
       <defs>
        <path id="DejaVuSans-2212" d="M 678 2272 
L 4684 2272 
L 4684 1741 
L 678 1741 
L 678 2272 
z
" transform="scale(0.015625)"/>
       </defs>
       <use xlink:href="#DejaVuSans-2212"/>
       <use xlink:href="#DejaVuSans-30" x="83.789062"/>
       <use xlink:href="#DejaVuSans-2e" x="147.412109"/>
       <use xlink:href="#DejaVuSans-34" x="179.199219"/>
      </g>
     </g>
    </g>
    <g id="ytick_8">
     <g id="line2d_19">
      <g>
       <use xlink:href="#m06aba4c869" x="394.363636" y="277.821575" style="stroke: #000000; stroke-width: 0.8"/>
      </g>
     </g>
     <g id="text_19">
      <!-- −0.3 -->
      <g transform="translate(363.080824 281.620794)scale(0.1 -0.1)">
       <defs>
        <path id="DejaVuSans-33" d="M 2597 2516 
Q 3050 2419 3304 2112 
Q 3559 1806 3559 1356 
Q 3559 666 3084 287 
Q 2609 -91 1734 -91 
Q 1441 -91 1130 -33 
Q 819 25 488 141 
L 488 750 
Q 750 597 1062 519 
Q 1375 441 1716 441 
Q 2309 441 2620 675 
Q 2931 909 2931 1356 
Q 2931 1769 2642 2001 
Q 2353 2234 1838 2234 
L 1294 2234 
L 1294 2753 
L 1863 2753 
Q 2328 2753 2575 2939 
Q 2822 3125 2822 3475 
Q 2822 3834 2567 4026 
Q 2313 4219 1838 4219 
Q 1578 4219 1281 4162 
Q 984 4106 628 3988 
L 628 4550 
Q 988 4650 1302 4700 
Q 1616 4750 1894 4750 
Q 2613 4750 3031 4423 
Q 3450 4097 3450 3541 
Q 3450 3153 3228 2886 
Q 3006 2619 2597 2516 
z
" transform="scale(0.015625)"/>
       </defs>
       <use xlink:href="#DejaVuSans-2212"/>
       <use xlink:href="#DejaVuSans-30" x="83.789062"/>
       <use xlink:href="#DejaVuSans-2e" x="147.412109"/>
       <use xlink:href="#DejaVuSans-33" x="179.199219"/>
      </g>
     </g>
    </g>
    <g id="ytick_9">
     <g id="line2d_20">
      <g>
       <use xlink:href="#m06aba4c869" x="394.363636" y="239.839078" style="stroke: #000000; stroke-width: 0.8"/>
      </g>
     </g>
     <g id="text_20">
      <!-- −0.2 -->
      <g transform="translate(363.080824 243.638297)scale(0.1 -0.1)">
       <use xlink:href="#DejaVuSans-2212"/>
       <use xlink:href="#DejaVuSans-30" x="83.789062"/>
       <use xlink:href="#DejaVuSans-2e" x="147.412109"/>
       <use xlink:href="#DejaVuSans-32" x="179.199219"/>
      </g>
     </g>
    </g>
    <g id="ytick_10">
     <g id="line2d_21">
      <g>
       <use xlink:href="#m06aba4c869" x="394.363636" y="201.856581" style="stroke: #000000; stroke-width: 0.8"/>
      </g>
     </g>
     <g id="text_21">
      <!-- −0.1 -->
      <g transform="translate(363.080824 205.655799)scale(0.1 -0.1)">
       <use xlink:href="#DejaVuSans-2212"/>
       <use xlink:href="#DejaVuSans-30" x="83.789062"/>
       <use xlink:href="#DejaVuSans-2e" x="147.412109"/>
       <use xlink:href="#DejaVuSans-31" x="179.199219"/>
      </g>
     </g>
    </g>
    <g id="ytick_11">
     <g id="line2d_22">
      <g>
       <use xlink:href="#m06aba4c869" x="394.363636" y="163.874083" style="stroke: #000000; stroke-width: 0.8"/>
      </g>
     </g>
     <g id="text_22">
      <!-- 0.0 -->
      <g transform="translate(371.460511 167.673302)scale(0.1 -0.1)">
       <use xlink:href="#DejaVuSans-30"/>
       <use xlink:href="#DejaVuSans-2e" x="63.623047"/>
       <use xlink:href="#DejaVuSans-30" x="95.410156"/>
      </g>
     </g>
    </g>
    <g id="ytick_12">
     <g id="line2d_23">
      <g>
       <use xlink:href="#m06aba4c869" x="394.363636" y="125.891586" style="stroke: #000000; stroke-width: 0.8"/>
      </g>
     </g>
     <g id="text_23">
      <!-- 0.1 -->
      <g transform="translate(371.460511 129.690804)scale(0.1 -0.1)">
       <use xlink:href="#DejaVuSans-30"/>
       <use xlink:href="#DejaVuSans-2e" x="63.623047"/>
       <use xlink:href="#DejaVuSans-31" x="95.410156"/>
      </g>
     </g>
    </g>
    <g id="ytick_13">
     <g id="line2d_24">
      <g>
       <use xlink:href="#m06aba4c869" x="394.363636" y="87.909088" style="stroke: #000000; stroke-width: 0.8"/>
      </g>
     </g>
     <g id="text_24">
      <!-- 0.2 -->
      <g transform="translate(371.460511 91.708307)scale(0.1 -0.1)">
       <use xlink:href="#DejaVuSans-30"/>
       <use xlink:href="#DejaVuSans-2e" x="63.623047"/>
       <use xlink:href="#DejaVuSans-32" x="95.410156"/>
      </g>
     </g>
    </g>
   </g>
   <g id="line2d_25">
    <path d="M 405.892562 163.874083 
L 410.2431 163.921977 
L 411.693279 164.063508 
L 413.143459 164.457553 
L 414.593638 165.273754 
L 417.493997 167.678784 
L 418.944176 168.185374 
L 420.394355 167.678784 
L 423.294714 165.289846 
L 424.744893 164.539272 
L 426.195073 164.39143 
L 427.645252 164.948275 
L 429.095431 166.433012 
L 430.54561 168.993635 
L 431.99579 172.476407 
L 433.445969 176.665042 
L 434.896148 181.783011 
L 436.346328 188.372667 
L 439.246686 204.97082 
L 440.696866 211.981812 
L 442.147045 216.03502 
L 443.597224 217.352578 
L 445.047404 217.31646 
L 446.497583 216.35193 
L 447.947762 213.404305 
L 449.397942 208.33028 
L 450.848121 203.701498 
L 452.2983 202.739719 
L 453.74848 205.588575 
L 455.198659 208.789442 
L 456.648838 208.713207 
L 458.099018 204.740008 
L 459.549197 198.704306 
L 463.899735 179.12405 
L 465.349914 174.795106 
L 466.800094 174.80151 
L 468.250273 180.575522 
L 469.700452 191.970646 
L 471.150632 207.379808 
L 472.600811 224.087456 
L 474.05099 238.644096 
L 475.501169 248.031747 
L 476.951349 251.61367 
L 478.401528 251.671611 
L 479.851707 251.268197 
L 481.301887 251.793789 
L 482.752066 252.962366 
L 484.202245 254.620307 
L 485.652425 257.803394 
L 487.102604 263.983465 
L 488.552783 273.469721 
L 490.002963 284.492858 
L 491.453142 294.057265 
L 492.903321 300.073357 
L 494.353501 302.743916 
L 497.253859 304.933424 
L 498.704039 305.781074 
L 500.154218 304.80409 
L 501.604397 300.059363 
L 503.054577 290.900401 
L 505.954935 267.953087 
L 507.405115 259.626862 
L 508.855294 254.28656 
L 510.305473 251.384663 
L 511.755653 250.41184 
L 513.205832 250.339688 
L 514.656011 249.759841 
L 516.106191 247.579796 
L 517.55637 242.856431 
L 519.006549 234.520169 
L 520.456729 222.137353 
L 523.357087 191.894552 
L 524.807266 179.742591 
L 526.257446 171.789757 
L 527.707625 167.460274 
L 529.157804 165.395483 
L 530.607984 164.476018 
L 532.058163 164.087179 
L 533.508342 163.943912 
L 534.958522 163.929562 
L 536.408701 164.057927 
L 537.85888 164.527986 
L 539.30906 165.795611 
L 540.759239 168.502339 
L 542.209418 173.056857 
L 545.109777 184.590619 
L 546.559956 187.988104 
L 548.010136 188.169069 
L 549.460315 185.465615 
L 550.910494 180.90234 
L 552.360674 175.747378 
L 553.810853 171.476607 
L 555.261032 169.437756 
L 556.711212 170.183261 
L 558.161391 173.033851 
L 559.61157 176.229129 
L 561.06175 177.851977 
L 562.511929 177.111456 
L 566.862467 170.328429 
L 569.762826 167.385355 
L 571.213005 166.090908 
L 572.663184 165.068571 
L 574.113363 164.412491 
L 575.563543 164.077457 
L 577.013722 163.955842 
L 578.463901 163.97547 
L 579.914081 164.145023 
L 581.36426 164.519779 
L 584.264619 165.657026 
L 585.714798 165.939714 
L 587.164977 165.775056 
L 588.615157 165.253833 
L 590.065336 164.526156 
L 591.515515 163.529267 
L 592.965695 162.015274 
L 595.866053 157.999834 
L 597.316233 157.120856 
L 598.766412 157.811631 
L 601.666771 160.996497 
L 603.11695 161.69965 
L 606.017309 161.731331 
L 607.467488 162.03496 
L 610.367847 163.206993 
L 614.718385 164.393386 
L 616.168564 165.575771 
L 617.618743 168.108413 
L 619.068923 172.223659 
L 620.519102 177.072176 
L 621.969281 180.790265 
L 623.41946 181.655484 
L 624.86964 179.327835 
L 627.769998 170.47234 
L 629.220178 167.065755 
L 630.670357 165.118574 
L 632.120536 164.261177 
L 633.570716 163.969359 
L 636.471074 163.876839 
L 636.471074 163.876839 
" clip-path="url(#pd3c9a78f0b)" style="fill: none; stroke: #9467bd; stroke-width: 2; stroke-linecap: square"/>
   </g>
   <g id="line2d_26">
    <path d="M 405.892562 163.875603 
L 408.792921 163.925176 
L 410.2431 164.078859 
L 411.693279 164.518228 
L 413.143459 165.476576 
L 414.593638 167.065061 
L 417.493997 171.044017 
L 418.944176 172.675127 
L 420.394355 173.98642 
L 421.844535 175.059396 
L 423.294714 175.725677 
L 424.744893 175.636341 
L 426.195073 174.559467 
L 427.645252 172.588366 
L 429.095431 170.174974 
L 430.54561 167.978465 
L 431.99579 166.533178 
L 433.445969 165.938826 
L 436.346328 165.78652 
L 437.796507 165.472854 
L 440.696866 164.479115 
L 442.147045 164.146304 
L 445.047404 163.90481 
L 450.848121 163.917531 
L 452.2983 164.047471 
L 453.74848 164.413965 
L 455.198659 165.198692 
L 456.648838 166.465509 
L 459.549197 169.436273 
L 460.999376 170.476827 
L 462.449556 171.080562 
L 465.349914 171.692388 
L 468.250273 173.178302 
L 469.700452 173.161755 
L 471.150632 171.653715 
L 474.05099 166.649672 
L 475.501169 165.026009 
L 476.951349 164.246951 
L 478.401528 163.968249 
L 481.301887 163.876915 
L 513.205832 163.893675 
L 514.656011 163.982064 
L 516.106191 164.348815 
L 517.55637 165.531392 
L 519.006549 168.491225 
L 520.456729 174.269201 
L 521.906908 183.105971 
L 526.257446 215.248121 
L 527.707625 223.850568 
L 529.157804 230.012641 
L 530.607984 232.704544 
L 532.058163 230.954137 
L 533.508342 224.412597 
L 536.408701 204.583446 
L 537.85888 197.146656 
L 540.759239 186.795089 
L 543.659598 174.590062 
L 545.109777 169.608973 
L 546.559956 166.43033 
L 548.010136 164.81137 
L 549.460315 164.15341 
L 550.910494 163.940875 
L 558.161391 163.656169 
L 559.61157 163.270962 
L 561.06175 162.554499 
L 563.962108 160.766193 
L 565.412288 160.5375 
L 566.862467 161.056788 
L 569.762826 162.902337 
L 571.213005 163.477226 
L 572.663184 163.74255 
L 575.563543 163.80259 
L 582.814439 163.446999 
L 587.164977 163.758999 
L 590.065336 163.645924 
L 592.965695 163.507386 
L 595.866053 163.677409 
L 598.766412 164.142467 
L 600.216591 164.620581 
L 603.11695 165.934399 
L 604.567129 166.182623 
L 606.017309 165.846962 
L 608.917667 164.360004 
L 610.367847 163.877945 
L 611.818026 163.699984 
L 616.168564 163.832331 
L 623.41946 163.874083 
L 636.471074 163.874083 
L 636.471074 163.874083 
" clip-path="url(#pd3c9a78f0b)" style="fill: none; stroke: #1f77b4; stroke-width: 2; stroke-linecap: square"/>
   </g>
   <g id="line2d_27">
    <path d="M 405.892562 186.923449 
L 407.342741 184.75706 
L 408.792921 181.419904 
L 410.2431 178.509436 
L 411.693279 177.338154 
L 414.593638 178.249595 
L 416.043817 176.870136 
L 417.493997 173.523228 
L 418.944176 169.616048 
L 420.394355 166.596229 
L 421.844535 164.923906 
L 423.294714 164.280099 
L 424.744893 164.196778 
L 429.095431 164.651299 
L 430.54561 164.559974 
L 437.796507 163.437487 
L 439.246686 162.500878 
L 440.696866 160.558985 
L 443.597224 154.383335 
L 445.047404 151.97393 
L 447.947762 148.776297 
L 449.397942 146.474288 
L 450.848121 144.93459 
L 452.2983 146.13537 
L 453.74848 150.296481 
L 455.198659 155.559097 
L 456.648838 159.832691 
L 458.099018 162.320929 
L 459.549197 163.40275 
L 460.999376 163.758538 
L 462.449556 163.834284 
L 463.899735 163.776901 
L 465.349914 163.500453 
L 466.800094 162.723222 
L 468.250273 161.113312 
L 471.150632 156.369529 
L 472.600811 155.370309 
L 474.05099 156.369529 
L 476.951349 161.113312 
L 478.401528 162.723222 
L 479.851707 163.500453 
L 481.301887 163.779615 
L 484.202245 163.87123 
L 545.109777 163.991089 
L 546.559956 164.27321 
L 548.010136 164.984695 
L 549.460315 166.420738 
L 550.910494 168.711133 
L 552.360674 171.469454 
L 553.810853 173.653225 
L 555.261032 174.081032 
L 556.711212 172.41372 
L 559.61157 166.850732 
L 561.06175 165.119715 
L 562.511929 164.392069 
L 563.962108 164.508973 
L 565.412288 165.744796 
L 566.862467 169.033324 
L 568.312646 175.527726 
L 569.762826 185.369501 
L 571.213005 196.345116 
L 572.663184 204.067876 
L 574.113363 204.555028 
L 575.563543 197.40463 
L 578.463901 175.945903 
L 579.914081 169.101881 
L 581.36426 165.687286 
L 582.814439 164.376393 
L 584.264619 163.985207 
L 587.164977 163.895142 
L 590.065336 164.108724 
L 591.515515 164.436957 
L 594.415874 165.404133 
L 595.866053 165.607856 
L 597.316233 165.404133 
L 600.216591 164.436957 
L 601.666771 164.108724 
L 604.567129 163.893344 
L 608.917667 163.748039 
L 610.367847 163.323235 
L 611.818026 161.956768 
L 613.268205 158.541482 
L 614.718385 151.984124 
L 617.618743 133.103839 
L 619.068923 127.919526 
L 620.519102 129.521197 
L 621.969281 136.21504 
L 623.41946 143.713881 
L 624.86964 149.069339 
L 626.319819 152.407663 
L 629.220178 157.629218 
L 630.670357 159.120748 
L 632.120536 159.023632 
L 633.570716 157.751155 
L 635.020895 156.306096 
L 636.471074 155.453646 
L 636.471074 155.453646 
" clip-path="url(#pd3c9a78f0b)" style="fill: none; stroke: #d62728; stroke-width: 2; stroke-linecap: square"/>
   </g>
   <g id="line2d_28">
    <path d="M 405.892562 163.874083 
L 455.198659 163.828043 
L 456.648838 163.64027 
L 458.099018 162.949333 
L 459.549197 161.025651 
L 460.999376 157.041049 
L 463.899735 145.299971 
L 465.349914 142.826857 
L 466.800094 145.299971 
L 469.700452 157.041049 
L 471.150632 161.025651 
L 472.600811 162.949333 
L 474.05099 163.64027 
L 475.501169 163.828043 
L 481.301887 163.874083 
L 495.80368 163.799497 
L 497.253859 163.495302 
L 498.704039 162.364015 
L 500.154218 159.181596 
L 501.604397 152.408424 
L 503.054577 141.626925 
L 504.504756 128.958901 
L 505.954935 118.203042 
L 507.405115 112.160235 
L 508.855294 111.731282 
L 510.305473 117.153304 
L 511.755653 127.797537 
L 513.205832 140.752447 
L 514.656011 151.921062 
L 516.106191 158.974636 
L 517.55637 162.296242 
L 519.006549 163.474335 
L 520.456729 163.771973 
L 521.906908 163.739617 
L 523.357087 163.389559 
L 524.807266 162.378669 
L 526.257446 160.272647 
L 529.157804 153.690856 
L 530.607984 151.402388 
L 532.058163 150.512313 
L 533.508342 150.005989 
L 534.958522 149.104317 
L 536.408701 148.620309 
L 537.85888 150.019309 
L 539.30906 153.48048 
L 540.759239 157.608684 
L 542.209418 160.86707 
L 543.659598 162.71104 
L 545.109777 163.409261 
L 546.559956 163.293844 
L 548.010136 162.254477 
L 549.460315 159.752963 
L 550.910494 155.319685 
L 553.810853 143.152761 
L 555.261032 139.126528 
L 556.711212 139.013831 
L 558.161391 143.020758 
L 561.06175 155.240515 
L 562.511929 158.503368 
L 563.962108 158.438446 
L 565.412288 155.81222 
L 566.862467 152.613321 
L 568.312646 151.196871 
L 569.762826 152.698743 
L 572.663184 159.763535 
L 574.113363 162.160552 
L 575.563543 163.317781 
L 577.013722 163.733428 
L 579.914081 163.869836 
L 590.065336 163.989441 
L 591.515515 164.369003 
L 592.965695 165.55067 
L 594.415874 168.375542 
L 595.866053 173.479408 
L 597.316233 180.224313 
L 598.766412 186.21704 
L 600.216591 188.684542 
L 601.666771 186.854056 
L 603.11695 182.701145 
L 604.567129 179.138674 
L 606.017309 177.696081 
L 607.467488 178.025291 
L 608.917667 179.307575 
L 610.367847 181.553735 
L 613.268205 188.580262 
L 614.718385 189.866806 
L 616.168564 187.432611 
L 617.618743 182.646763 
L 619.068923 178.824532 
L 620.519102 178.46099 
L 621.969281 181.478861 
L 623.41946 186.263681 
L 624.86964 191.927709 
L 627.769998 205.193849 
L 629.220178 208.732978 
L 630.670357 206.247238 
L 632.120536 197.775288 
L 633.570716 186.585473 
L 635.020895 176.862971 
L 636.471074 171.452504 
L 636.471074 171.452504 
" clip-path="url(#pd3c9a78f0b)" style="fill: none; stroke: #ff7f0e; stroke-width: 2; stroke-linecap: square"/>
   </g>
   <g id="LineCollection_1">
    <path d="M 521.877904 301.857792 
L 521.877904 123.18888 
" clip-path="url(#pd3c9a78f0b)" style="fill: none; stroke-dasharray: 7.4,3.2; stroke-dashoffset: 0; stroke: #000000; stroke-width: 2"/>
    <path d="M 536.379697 301.857792 
L 536.379697 123.18888 
" clip-path="url(#pd3c9a78f0b)" style="fill: none; stroke-dasharray: 7.4,3.2; stroke-dashoffset: 0; stroke: #000000; stroke-width: 2"/>
    <path d="M 565.383284 301.857792 
L 565.383284 123.18888 
" clip-path="url(#pd3c9a78f0b)" style="fill: none; stroke-dasharray: 7.4,3.2; stroke-dashoffset: 0; stroke: #000000; stroke-width: 2"/>
    <path d="M 623.390457 301.857792 
L 623.390457 123.18888 
" clip-path="url(#pd3c9a78f0b)" style="fill: none; stroke-dasharray: 7.4,3.2; stroke-dashoffset: 0; stroke: #000000; stroke-width: 2"/>
   </g>
   <g id="patch_8">
    <path d="M 394.363636 333.490909 
L 394.363636 86.4 
" style="fill: none; stroke: #000000; stroke-width: 0.8; stroke-linejoin: miter; stroke-linecap: square"/>
   </g>
   <g id="patch_9">
    <path d="M 648 333.490909 
L 648 86.4 
" style="fill: none; stroke: #000000; stroke-width: 0.8; stroke-linejoin: miter; stroke-linecap: square"/>
   </g>
   <g id="patch_10">
    <path d="M 394.363636 333.490909 
L 648 333.490909 
" style="fill: none; stroke: #000000; stroke-width: 0.8; stroke-linejoin: miter; stroke-linecap: square"/>
   </g>
   <g id="patch_11">
    <path d="M 394.363636 86.4 
L 648 86.4 
" style="fill: none; stroke: #000000; stroke-width: 0.8; stroke-linejoin: miter; stroke-linecap: square"/>
   </g>
   <g id="text_25">
    <!-- unit_84 -->
    <g transform="translate(498.922756 80.4)scale(0.12 -0.12)">
     <defs>
      <path id="DejaVuSans-75" d="M 544 1381 
L 544 3500 
L 1119 3500 
L 1119 1403 
Q 1119 906 1312 657 
Q 1506 409 1894 409 
Q 2359 409 2629 706 
Q 2900 1003 2900 1516 
L 2900 3500 
L 3475 3500 
L 3475 0 
L 2900 0 
L 2900 538 
Q 2691 219 2414 64 
Q 2138 -91 1772 -91 
Q 1169 -91 856 284 
Q 544 659 544 1381 
z
M 1991 3584 
L 1991 3584 
z
" transform="scale(0.015625)"/>
      <path id="DejaVuSans-6e" d="M 3513 2113 
L 3513 0 
L 2938 0 
L 2938 2094 
Q 2938 2591 2744 2837 
Q 2550 3084 2163 3084 
Q 1697 3084 1428 2787 
Q 1159 2491 1159 1978 
L 1159 0 
L 581 0 
L 581 3500 
L 1159 3500 
L 1159 2956 
Q 1366 3272 1645 3428 
Q 1925 3584 2291 3584 
Q 2894 3584 3203 3211 
Q 3513 2838 3513 2113 
z
" transform="scale(0.015625)"/>
      <path id="DejaVuSans-69" d="M 603 3500 
L 1178 3500 
L 1178 0 
L 603 0 
L 603 3500 
z
M 603 4863 
L 1178 4863 
L 1178 4134 
L 603 4134 
L 603 4863 
z
" transform="scale(0.015625)"/>
      <path id="DejaVuSans-74" d="M 1172 4494 
L 1172 3500 
L 2356 3500 
L 2356 3053 
L 1172 3053 
L 1172 1153 
Q 1172 725 1289 603 
Q 1406 481 1766 481 
L 2356 481 
L 2356 0 
L 1766 0 
Q 1100 0 847 248 
Q 594 497 594 1153 
L 594 3053 
L 172 3053 
L 172 3500 
L 594 3500 
L 594 4494 
L 1172 4494 
z
" transform="scale(0.015625)"/>
      <path id="DejaVuSans-5f" d="M 3263 -1063 
L 3263 -1509 
L -63 -1509 
L -63 -1063 
L 3263 -1063 
z
" transform="scale(0.015625)"/>
     </defs>
     <use xlink:href="#DejaVuSans-75"/>
     <use xlink:href="#DejaVuSans-6e" x="63.378906"/>
     <use xlink:href="#DejaVuSans-69" x="126.757812"/>
     <use xlink:href="#DejaVuSans-74" x="154.541016"/>
     <use xlink:href="#DejaVuSans-5f" x="193.75"/>
     <use xlink:href="#DejaVuSans-38" x="243.75"/>
     <use xlink:href="#DejaVuSans-34" x="307.373047"/>
    </g>
   </g>
  </g>
  <g id="axes_3">
   <g id="patch_12">
    <path d="M 90 630 
L 343.636364 630 
L 343.636364 382.909091 
L 90 382.909091 
z
" style="fill: #ffffff"/>
   </g>
   <g id="matplotlib.axis_5">
    <g id="xtick_12">
     <g id="line2d_29">
      <g>
       <use xlink:href="#m0198c0b629" x="90" y="630" style="stroke: #000000; stroke-width: 0.8"/>
      </g>
     </g>
     <g id="text_26">
      <!-- 0.0 -->
      <g transform="translate(82.048438 644.598437)scale(0.1 -0.1)">
       <use xlink:href="#DejaVuSans-30"/>
       <use xlink:href="#DejaVuSans-2e" x="63.623047"/>
       <use xlink:href="#DejaVuSans-30" x="95.410156"/>
      </g>
     </g>
    </g>
    <g id="xtick_13">
     <g id="line2d_30">
      <g>
       <use xlink:href="#m0198c0b629" x="140.727273" y="630" style="stroke: #000000; stroke-width: 0.8"/>
      </g>
     </g>
     <g id="text_27">
      <!-- 0.2 -->
      <g transform="translate(132.77571 644.598437)scale(0.1 -0.1)">
       <use xlink:href="#DejaVuSans-30"/>
       <use xlink:href="#DejaVuSans-2e" x="63.623047"/>
       <use xlink:href="#DejaVuSans-32" x="95.410156"/>
      </g>
     </g>
    </g>
    <g id="xtick_14">
     <g id="line2d_31">
      <g>
       <use xlink:href="#m0198c0b629" x="191.454545" y="630" style="stroke: #000000; stroke-width: 0.8"/>
      </g>
     </g>
     <g id="text_28">
      <!-- 0.4 -->
      <g transform="translate(183.502983 644.598437)scale(0.1 -0.1)">
       <use xlink:href="#DejaVuSans-30"/>
       <use xlink:href="#DejaVuSans-2e" x="63.623047"/>
       <use xlink:href="#DejaVuSans-34" x="95.410156"/>
      </g>
     </g>
    </g>
    <g id="xtick_15">
     <g id="line2d_32">
      <g>
       <use xlink:href="#m0198c0b629" x="242.181818" y="630" style="stroke: #000000; stroke-width: 0.8"/>
      </g>
     </g>
     <g id="text_29">
      <!-- 0.6 -->
      <g transform="translate(234.230256 644.598437)scale(0.1 -0.1)">
       <use xlink:href="#DejaVuSans-30"/>
       <use xlink:href="#DejaVuSans-2e" x="63.623047"/>
       <use xlink:href="#DejaVuSans-36" x="95.410156"/>
      </g>
     </g>
    </g>
    <g id="xtick_16">
     <g id="line2d_33">
      <g>
       <use xlink:href="#m0198c0b629" x="292.909091" y="630" style="stroke: #000000; stroke-width: 0.8"/>
      </g>
     </g>
     <g id="text_30">
      <!-- 0.8 -->
      <g transform="translate(284.957528 644.598437)scale(0.1 -0.1)">
       <use xlink:href="#DejaVuSans-30"/>
       <use xlink:href="#DejaVuSans-2e" x="63.623047"/>
       <use xlink:href="#DejaVuSans-38" x="95.410156"/>
      </g>
     </g>
    </g>
    <g id="xtick_17">
     <g id="line2d_34">
      <g>
       <use xlink:href="#m0198c0b629" x="343.636364" y="630" style="stroke: #000000; stroke-width: 0.8"/>
      </g>
     </g>
     <g id="text_31">
      <!-- 1.0 -->
      <g transform="translate(335.684801 644.598437)scale(0.1 -0.1)">
       <use xlink:href="#DejaVuSans-31"/>
       <use xlink:href="#DejaVuSans-2e" x="63.623047"/>
       <use xlink:href="#DejaVuSans-30" x="95.410156"/>
      </g>
     </g>
    </g>
   </g>
   <g id="matplotlib.axis_6">
    <g id="ytick_14">
     <g id="line2d_35">
      <g>
       <use xlink:href="#m06aba4c869" x="90" y="630" style="stroke: #000000; stroke-width: 0.8"/>
      </g>
     </g>
     <g id="text_32">
      <!-- 0.0 -->
      <g transform="translate(67.096875 633.799219)scale(0.1 -0.1)">
       <use xlink:href="#DejaVuSans-30"/>
       <use xlink:href="#DejaVuSans-2e" x="63.623047"/>
       <use xlink:href="#DejaVuSans-30" x="95.410156"/>
      </g>
     </g>
    </g>
    <g id="ytick_15">
     <g id="line2d_36">
      <g>
       <use xlink:href="#m06aba4c869" x="90" y="580.581818" style="stroke: #000000; stroke-width: 0.8"/>
      </g>
     </g>
     <g id="text_33">
      <!-- 0.2 -->
      <g transform="translate(67.096875 584.381037)scale(0.1 -0.1)">
       <use xlink:href="#DejaVuSans-30"/>
       <use xlink:href="#DejaVuSans-2e" x="63.623047"/>
       <use xlink:href="#DejaVuSans-32" x="95.410156"/>
      </g>
     </g>
    </g>
    <g id="ytick_16">
     <g id="line2d_37">
      <g>
       <use xlink:href="#m06aba4c869" x="90" y="531.163636" style="stroke: #000000; stroke-width: 0.8"/>
      </g>
     </g>
     <g id="text_34">
      <!-- 0.4 -->
      <g transform="translate(67.096875 534.962855)scale(0.1 -0.1)">
       <use xlink:href="#DejaVuSans-30"/>
       <use xlink:href="#DejaVuSans-2e" x="63.623047"/>
       <use xlink:href="#DejaVuSans-34" x="95.410156"/>
      </g>
     </g>
    </g>
    <g id="ytick_17">
     <g id="line2d_38">
      <g>
       <use xlink:href="#m06aba4c869" x="90" y="481.745455" style="stroke: #000000; stroke-width: 0.8"/>
      </g>
     </g>
     <g id="text_35">
      <!-- 0.6 -->
      <g transform="translate(67.096875 485.544673)scale(0.1 -0.1)">
       <use xlink:href="#DejaVuSans-30"/>
       <use xlink:href="#DejaVuSans-2e" x="63.623047"/>
       <use xlink:href="#DejaVuSans-36" x="95.410156"/>
      </g>
     </g>
    </g>
    <g id="ytick_18">
     <g id="line2d_39">
      <g>
       <use xlink:href="#m06aba4c869" x="90" y="432.327273" style="stroke: #000000; stroke-width: 0.8"/>
      </g>
     </g>
     <g id="text_36">
      <!-- 0.8 -->
      <g transform="translate(67.096875 436.126491)scale(0.1 -0.1)">
       <use xlink:href="#DejaVuSans-30"/>
       <use xlink:href="#DejaVuSans-2e" x="63.623047"/>
       <use xlink:href="#DejaVuSans-38" x="95.410156"/>
      </g>
     </g>
    </g>
    <g id="ytick_19">
     <g id="line2d_40">
      <g>
       <use xlink:href="#m06aba4c869" x="90" y="382.909091" style="stroke: #000000; stroke-width: 0.8"/>
      </g>
     </g>
     <g id="text_37">
      <!-- 1.0 -->
      <g transform="translate(67.096875 386.70831)scale(0.1 -0.1)">
       <use xlink:href="#DejaVuSans-31"/>
       <use xlink:href="#DejaVuSans-2e" x="63.623047"/>
       <use xlink:href="#DejaVuSans-30" x="95.410156"/>
      </g>
     </g>
    </g>
   </g>
   <g id="patch_13">
    <path d="M 90 630 
L 90 382.909091 
" style="fill: none; stroke: #000000; stroke-width: 0.8; stroke-linejoin: miter; stroke-linecap: square"/>
   </g>
   <g id="patch_14">
    <path d="M 343.636364 630 
L 343.636364 382.909091 
" style="fill: none; stroke: #000000; stroke-width: 0.8; stroke-linejoin: miter; stroke-linecap: square"/>
   </g>
   <g id="patch_15">
    <path d="M 90 630 
L 343.636364 630 
" style="fill: none; stroke: #000000; stroke-width: 0.8; stroke-linejoin: miter; stroke-linecap: square"/>
   </g>
   <g id="patch_16">
    <path d="M 90 382.909091 
L 343.636364 382.909091 
" style="fill: none; stroke: #000000; stroke-width: 0.8; stroke-linejoin: miter; stroke-linecap: square"/>
   </g>
  </g>
  <g id="axes_4">
   <g id="patch_17">
    <path d="M 394.363636 630 
L 648 630 
L 648 382.909091 
L 394.363636 382.909091 
z
" style="fill: #ffffff"/>
   </g>
   <g id="matplotlib.axis_7">
    <g id="xtick_18">
     <g id="line2d_41">
      <g>
       <use xlink:href="#m0198c0b629" x="405.863558" y="630" style="stroke: #000000; stroke-width: 0.8"/>
      </g>
     </g>
     <g id="text_38">
      <!-- 0 -->
      <g transform="translate(402.682308 644.598437)scale(0.1 -0.1)">
       <use xlink:href="#DejaVuSans-30"/>
      </g>
     </g>
    </g>
    <g id="xtick_19">
     <g id="line2d_42">
      <g>
       <use xlink:href="#m0198c0b629" x="463.870731" y="630" style="stroke: #000000; stroke-width: 0.8"/>
      </g>
     </g>
     <g id="text_39">
      <!-- 2000 -->
      <g transform="translate(451.145731 644.598437)scale(0.1 -0.1)">
       <use xlink:href="#DejaVuSans-32"/>
       <use xlink:href="#DejaVuSans-30" x="63.623047"/>
       <use xlink:href="#DejaVuSans-30" x="127.246094"/>
       <use xlink:href="#DejaVuSans-30" x="190.869141"/>
      </g>
     </g>
    </g>
    <g id="xtick_20">
     <g id="line2d_43">
      <g>
       <use xlink:href="#m0198c0b629" x="521.877904" y="630" style="stroke: #000000; stroke-width: 0.8"/>
      </g>
     </g>
     <g id="text_40">
      <!-- 4000 -->
      <g transform="translate(509.152904 644.598437)scale(0.1 -0.1)">
       <use xlink:href="#DejaVuSans-34"/>
       <use xlink:href="#DejaVuSans-30" x="63.623047"/>
       <use xlink:href="#DejaVuSans-30" x="127.246094"/>
       <use xlink:href="#DejaVuSans-30" x="190.869141"/>
      </g>
     </g>
    </g>
    <g id="xtick_21">
     <g id="line2d_44">
      <g>
       <use xlink:href="#m0198c0b629" x="579.885077" y="630" style="stroke: #000000; stroke-width: 0.8"/>
      </g>
     </g>
     <g id="text_41">
      <!-- 6000 -->
      <g transform="translate(567.160077 644.598437)scale(0.1 -0.1)">
       <use xlink:href="#DejaVuSans-36"/>
       <use xlink:href="#DejaVuSans-30" x="63.623047"/>
       <use xlink:href="#DejaVuSans-30" x="127.246094"/>
       <use xlink:href="#DejaVuSans-30" x="190.869141"/>
      </g>
     </g>
    </g>
    <g id="xtick_22">
     <g id="line2d_45">
      <g>
       <use xlink:href="#m0198c0b629" x="637.89225" y="630" style="stroke: #000000; stroke-width: 0.8"/>
      </g>
     </g>
     <g id="text_42">
      <!-- 8000 -->
      <g transform="translate(625.16725 644.598437)scale(0.1 -0.1)">
       <use xlink:href="#DejaVuSans-38"/>
       <use xlink:href="#DejaVuSans-30" x="63.623047"/>
       <use xlink:href="#DejaVuSans-30" x="127.246094"/>
       <use xlink:href="#DejaVuSans-30" x="190.869141"/>
      </g>
     </g>
    </g>
   </g>
   <g id="matplotlib.axis_8">
    <g id="ytick_20">
     <g id="line2d_46">
      <g>
       <use xlink:href="#m06aba4c869" x="394.363636" y="630" style="stroke: #000000; stroke-width: 0.8"/>
      </g>
     </g>
     <g id="text_43">
      <!-- −2 -->
      <g transform="translate(372.621449 633.799219)scale(0.1 -0.1)">
       <use xlink:href="#DejaVuSans-2212"/>
       <use xlink:href="#DejaVuSans-32" x="83.789062"/>
      </g>
     </g>
    </g>
    <g id="ytick_21">
     <g id="line2d_47">
      <g>
       <use xlink:href="#m06aba4c869" x="394.363636" y="602.509243" style="stroke: #000000; stroke-width: 0.8"/>
      </g>
     </g>
     <g id="text_44">
      <!-- 0 -->
      <g transform="translate(381.001136 606.308461)scale(0.1 -0.1)">
       <use xlink:href="#DejaVuSans-30"/>
      </g>
     </g>
    </g>
    <g id="ytick_22">
     <g id="line2d_48">
      <g>
       <use xlink:href="#m06aba4c869" x="394.363636" y="575.018485" style="stroke: #000000; stroke-width: 0.8"/>
      </g>
     </g>
     <g id="text_45">
      <!-- 2 -->
      <g transform="translate(381.001136 578.817704)scale(0.1 -0.1)">
       <use xlink:href="#DejaVuSans-32"/>
      </g>
     </g>
    </g>
    <g id="ytick_23">
     <g id="line2d_49">
      <g>
       <use xlink:href="#m06aba4c869" x="394.363636" y="547.527728" style="stroke: #000000; stroke-width: 0.8"/>
      </g>
     </g>
     <g id="text_46">
      <!-- 4 -->
      <g transform="translate(381.001136 551.326946)scale(0.1 -0.1)">
       <use xlink:href="#DejaVuSans-34"/>
      </g>
     </g>
    </g>
    <g id="ytick_24">
     <g id="line2d_50">
      <g>
       <use xlink:href="#m06aba4c869" x="394.363636" y="520.03697" style="stroke: #000000; stroke-width: 0.8"/>
      </g>
     </g>
     <g id="text_47">
      <!-- 6 -->
      <g transform="translate(381.001136 523.836189)scale(0.1 -0.1)">
       <use xlink:href="#DejaVuSans-36"/>
      </g>
     </g>
    </g>
    <g id="ytick_25">
     <g id="line2d_51">
      <g>
       <use xlink:href="#m06aba4c869" x="394.363636" y="492.546213" style="stroke: #000000; stroke-width: 0.8"/>
      </g>
     </g>
     <g id="text_48">
      <!-- 8 -->
      <g transform="translate(381.001136 496.345432)scale(0.1 -0.1)">
       <use xlink:href="#DejaVuSans-38"/>
      </g>
     </g>
    </g>
    <g id="ytick_26">
     <g id="line2d_52">
      <g>
       <use xlink:href="#m06aba4c869" x="394.363636" y="465.055455" style="stroke: #000000; stroke-width: 0.8"/>
      </g>
     </g>
     <g id="text_49">
      <!-- 10 -->
      <g transform="translate(374.638636 468.854674)scale(0.1 -0.1)">
       <use xlink:href="#DejaVuSans-31"/>
       <use xlink:href="#DejaVuSans-30" x="63.623047"/>
      </g>
     </g>
    </g>
    <g id="ytick_27">
     <g id="line2d_53">
      <g>
       <use xlink:href="#m06aba4c869" x="394.363636" y="437.564698" style="stroke: #000000; stroke-width: 0.8"/>
      </g>
     </g>
     <g id="text_50">
      <!-- 12 -->
      <g transform="translate(374.638636 441.363917)scale(0.1 -0.1)">
       <use xlink:href="#DejaVuSans-31"/>
       <use xlink:href="#DejaVuSans-32" x="63.623047"/>
      </g>
     </g>
    </g>
    <g id="ytick_28">
     <g id="line2d_54">
      <g>
       <use xlink:href="#m06aba4c869" x="394.363636" y="410.073941" style="stroke: #000000; stroke-width: 0.8"/>
      </g>
     </g>
     <g id="text_51">
      <!-- 14 -->
      <g transform="translate(374.638636 413.873159)scale(0.1 -0.1)">
       <use xlink:href="#DejaVuSans-31"/>
       <use xlink:href="#DejaVuSans-34" x="63.623047"/>
      </g>
     </g>
    </g>
   </g>
   <g id="line2d_55">
    <path d="M 405.892562 676.803017 
L 407.342741 643.374429 
L 408.792921 621.293018 
L 410.2431 610.838806 
L 411.693279 609.750505 
L 413.143459 630.809005 
L 414.593638 663.574585 
L 416.043817 667.490042 
L 417.493997 647.638527 
L 420.394355 618.444592 
L 421.844535 606.523366 
L 423.294714 600.197555 
L 424.744893 600.326478 
L 426.195073 608.547909 
L 427.645252 617.609787 
L 429.095431 616.400513 
L 430.54561 610.482172 
L 431.99579 613.657894 
L 433.445969 619.163544 
L 434.896148 611.906785 
L 436.346328 601.945568 
L 437.796507 601.652611 
L 439.246686 619.418443 
L 440.696866 643.430519 
L 442.147045 649.505605 
L 443.597224 632.197381 
L 445.047404 594.52971 
L 446.497583 574.312268 
L 447.947762 582.829136 
L 449.397942 578.08594 
L 450.848121 553.063977 
L 452.2983 554.789243 
L 453.74848 593.083963 
L 455.198659 642.458709 
L 456.648838 665.714904 
L 459.549197 653.902951 
L 460.999376 663.616961 
L 462.449556 665.583631 
L 463.899735 656.616481 
L 465.349914 646.876608 
L 466.800094 624.565537 
L 468.250273 612.368436 
L 469.700452 636.547804 
L 471.150632 657.998911 
L 472.600811 613.901492 
L 474.05099 557.16207 
L 475.501169 543.350538 
L 476.951349 589.505461 
L 478.401528 649.550943 
L 479.851707 632.8018 
L 481.301887 558.410696 
L 482.752066 489.95921 
L 484.202245 464.716059 
L 485.652425 461.887406 
L 487.102604 474.090469 
L 488.552783 459.737058 
L 490.002963 423.397394 
L 491.453142 420.99484 
L 492.903321 444.144563 
L 494.353501 456.505842 
L 495.80368 457.468743 
L 497.253859 461.763665 
L 498.704039 474.374631 
L 500.154218 485.131062 
L 501.604397 457.567168 
L 503.054577 418.615723 
L 504.504756 403.693114 
L 507.405115 382.909091 
L 508.855294 392.651225 
L 510.305473 412.610126 
L 511.755653 410.560941 
L 513.205832 418.089294 
L 514.656011 441.766052 
L 516.106191 455.551179 
L 517.55637 458.359078 
L 519.006549 466.578826 
L 520.456729 482.150841 
L 521.906908 506.145487 
L 523.357087 549.933284 
L 524.807266 589.123131 
L 526.257446 616.924806 
L 527.707625 634.14323 
L 529.157804 633.692764 
L 530.607984 632.032383 
L 532.058163 638.669094 
L 533.508342 633.035889 
L 534.958522 620.077847 
L 536.408701 617.891076 
L 537.85888 640.663999 
L 539.30906 661.345921 
L 542.209418 623.960984 
L 543.659598 616.403586 
L 545.109777 595.06797 
L 546.559956 575.701486 
L 548.010136 587.836845 
L 549.460315 598.999007 
L 550.910494 600.130835 
L 552.360674 608.328236 
L 553.810853 612.114979 
L 555.261032 607.3897 
L 556.711212 618.32661 
L 558.161391 632.7088 
L 559.61157 631.205855 
L 561.06175 625.281203 
L 562.511929 620.339871 
L 563.962108 612.46826 
L 565.412288 611.473997 
L 566.862467 619.541381 
L 568.312646 623.809392 
L 569.762826 611.632186 
L 571.213005 596.492797 
L 572.663184 605.062649 
L 574.113363 619.344244 
L 575.563543 620.344334 
L 577.013722 611.145995 
L 578.463901 604.273258 
L 579.914081 602.652075 
L 581.36426 602.604554 
L 582.814439 603.619812 
L 584.264619 607.488993 
L 585.714798 610.798928 
L 587.164977 608.506689 
L 588.615157 608.233129 
L 590.065336 610.710822 
L 591.515515 609.746004 
L 592.965695 608.09241 
L 594.415874 605.184542 
L 595.866053 602.925921 
L 597.316233 605.98058 
L 598.766412 603.996144 
L 600.216591 592.468583 
L 601.666771 595.112605 
L 603.11695 607.989709 
L 604.567129 624.217272 
L 606.017309 637.222729 
L 607.467488 634.904764 
L 608.917667 627.285728 
L 610.367847 617.004687 
L 611.818026 619.323073 
L 614.718385 668.021804 
L 616.168564 666.534491 
L 617.618743 650.86881 
L 619.068923 651.849623 
L 620.519102 653.750548 
L 621.969281 638.536643 
L 623.41946 629.040164 
L 624.86964 638.327756 
L 626.319819 646.799181 
L 627.769998 660.265936 
L 629.220178 689.434163 
L 630.670357 704.485905 
L 632.120536 681.324093 
L 633.570716 640.709052 
L 635.020895 618.289918 
L 636.471074 610.030067 
L 636.471074 610.030067 
" clip-path="url(#p2b3aa5a55f)" style="fill: none; stroke: #1f77b4; stroke-width: 1.5; stroke-linecap: square"/>
   </g>
   <g id="patch_18">
    <path d="M 394.363636 630 
L 394.363636 382.909091 
" style="fill: none; stroke: #000000; stroke-width: 0.8; stroke-linejoin: miter; stroke-linecap: square"/>
   </g>
   <g id="patch_19">
    <path d="M 648 630 
L 648 382.909091 
" style="fill: none; stroke: #000000; stroke-width: 0.8; stroke-linejoin: miter; stroke-linecap: square"/>
   </g>
   <g id="patch_20">
    <path d="M 394.363636 630 
L 648 630 
" style="fill: none; stroke: #000000; stroke-width: 0.8; stroke-linejoin: miter; stroke-linecap: square"/>
   </g>
   <g id="patch_21">
    <path d="M 394.363636 382.909091 
L 648 382.909091 
" style="fill: none; stroke: #000000; stroke-width: 0.8; stroke-linejoin: miter; stroke-linecap: square"/>
   </g>
   <g id="text_52">
    <!-- explained variance -->
    <g transform="translate(464.181818 376.909091)scale(0.12 -0.12)">
     <defs>
      <path id="DejaVuSans-65" d="M 3597 1894 
L 3597 1613 
L 953 1613 
Q 991 1019 1311 708 
Q 1631 397 2203 397 
Q 2534 397 2845 478 
Q 3156 559 3463 722 
L 3463 178 
Q 3153 47 2828 -22 
Q 2503 -91 2169 -91 
Q 1331 -91 842 396 
Q 353 884 353 1716 
Q 353 2575 817 3079 
Q 1281 3584 2069 3584 
Q 2775 3584 3186 3129 
Q 3597 2675 3597 1894 
z
M 3022 2063 
Q 3016 2534 2758 2815 
Q 2500 3097 2075 3097 
Q 1594 3097 1305 2825 
Q 1016 2553 972 2059 
L 3022 2063 
z
" transform="scale(0.015625)"/>
      <path id="DejaVuSans-78" d="M 3513 3500 
L 2247 1797 
L 3578 0 
L 2900 0 
L 1881 1375 
L 863 0 
L 184 0 
L 1544 1831 
L 300 3500 
L 978 3500 
L 1906 2253 
L 2834 3500 
L 3513 3500 
z
" transform="scale(0.015625)"/>
      <path id="DejaVuSans-70" d="M 1159 525 
L 1159 -1331 
L 581 -1331 
L 581 3500 
L 1159 3500 
L 1159 2969 
Q 1341 3281 1617 3432 
Q 1894 3584 2278 3584 
Q 2916 3584 3314 3078 
Q 3713 2572 3713 1747 
Q 3713 922 3314 415 
Q 2916 -91 2278 -91 
Q 1894 -91 1617 61 
Q 1341 213 1159 525 
z
M 3116 1747 
Q 3116 2381 2855 2742 
Q 2594 3103 2138 3103 
Q 1681 3103 1420 2742 
Q 1159 2381 1159 1747 
Q 1159 1113 1420 752 
Q 1681 391 2138 391 
Q 2594 391 2855 752 
Q 3116 1113 3116 1747 
z
" transform="scale(0.015625)"/>
      <path id="DejaVuSans-6c" d="M 603 4863 
L 1178 4863 
L 1178 0 
L 603 0 
L 603 4863 
z
" transform="scale(0.015625)"/>
      <path id="DejaVuSans-61" d="M 2194 1759 
Q 1497 1759 1228 1600 
Q 959 1441 959 1056 
Q 959 750 1161 570 
Q 1363 391 1709 391 
Q 2188 391 2477 730 
Q 2766 1069 2766 1631 
L 2766 1759 
L 2194 1759 
z
M 3341 1997 
L 3341 0 
L 2766 0 
L 2766 531 
Q 2569 213 2275 61 
Q 1981 -91 1556 -91 
Q 1019 -91 701 211 
Q 384 513 384 1019 
Q 384 1609 779 1909 
Q 1175 2209 1959 2209 
L 2766 2209 
L 2766 2266 
Q 2766 2663 2505 2880 
Q 2244 3097 1772 3097 
Q 1472 3097 1187 3025 
Q 903 2953 641 2809 
L 641 3341 
Q 956 3463 1253 3523 
Q 1550 3584 1831 3584 
Q 2591 3584 2966 3190 
Q 3341 2797 3341 1997 
z
" transform="scale(0.015625)"/>
      <path id="DejaVuSans-64" d="M 2906 2969 
L 2906 4863 
L 3481 4863 
L 3481 0 
L 2906 0 
L 2906 525 
Q 2725 213 2448 61 
Q 2172 -91 1784 -91 
Q 1150 -91 751 415 
Q 353 922 353 1747 
Q 353 2572 751 3078 
Q 1150 3584 1784 3584 
Q 2172 3584 2448 3432 
Q 2725 3281 2906 2969 
z
M 947 1747 
Q 947 1113 1208 752 
Q 1469 391 1925 391 
Q 2381 391 2643 752 
Q 2906 1113 2906 1747 
Q 2906 2381 2643 2742 
Q 2381 3103 1925 3103 
Q 1469 3103 1208 2742 
Q 947 2381 947 1747 
z
" transform="scale(0.015625)"/>
      <path id="DejaVuSans-20" transform="scale(0.015625)"/>
      <path id="DejaVuSans-76" d="M 191 3500 
L 800 3500 
L 1894 563 
L 2988 3500 
L 3597 3500 
L 2284 0 
L 1503 0 
L 191 3500 
z
" transform="scale(0.015625)"/>
      <path id="DejaVuSans-72" d="M 2631 2963 
Q 2534 3019 2420 3045 
Q 2306 3072 2169 3072 
Q 1681 3072 1420 2755 
Q 1159 2438 1159 1844 
L 1159 0 
L 581 0 
L 581 3500 
L 1159 3500 
L 1159 2956 
Q 1341 3275 1631 3429 
Q 1922 3584 2338 3584 
Q 2397 3584 2469 3576 
Q 2541 3569 2628 3553 
L 2631 2963 
z
" transform="scale(0.015625)"/>
      <path id="DejaVuSans-63" d="M 3122 3366 
L 3122 2828 
Q 2878 2963 2633 3030 
Q 2388 3097 2138 3097 
Q 1578 3097 1268 2742 
Q 959 2388 959 1747 
Q 959 1106 1268 751 
Q 1578 397 2138 397 
Q 2388 397 2633 464 
Q 2878 531 3122 666 
L 3122 134 
Q 2881 22 2623 -34 
Q 2366 -91 2075 -91 
Q 1284 -91 818 406 
Q 353 903 353 1747 
Q 353 2603 823 3093 
Q 1294 3584 2113 3584 
Q 2378 3584 2631 3529 
Q 2884 3475 3122 3366 
z
" transform="scale(0.015625)"/>
     </defs>
     <use xlink:href="#DejaVuSans-65"/>
     <use xlink:href="#DejaVuSans-78" x="59.773438"/>
     <use xlink:href="#DejaVuSans-70" x="118.953125"/>
     <use xlink:href="#DejaVuSans-6c" x="182.429688"/>
     <use xlink:href="#DejaVuSans-61" x="210.212891"/>
     <use xlink:href="#DejaVuSans-69" x="271.492188"/>
     <use xlink:href="#DejaVuSans-6e" x="299.275391"/>
     <use xlink:href="#DejaVuSans-65" x="362.654297"/>
     <use xlink:href="#DejaVuSans-64" x="424.177734"/>
     <use xlink:href="#DejaVuSans-20" x="487.654297"/>
     <use xlink:href="#DejaVuSans-76" x="519.441406"/>
     <use xlink:href="#DejaVuSans-61" x="578.621094"/>
     <use xlink:href="#DejaVuSans-72" x="639.900391"/>
     <use xlink:href="#DejaVuSans-69" x="681.013672"/>
     <use xlink:href="#DejaVuSans-61" x="708.796875"/>
     <use xlink:href="#DejaVuSans-6e" x="770.076172"/>
     <use xlink:href="#DejaVuSans-63" x="833.455078"/>
     <use xlink:href="#DejaVuSans-65" x="888.435547"/>
    </g>
   </g>
  </g>
 </g>
 <defs>
  <clipPath id="pd3c9a78f0b">
   <rect x="394.363636" y="86.4" width="253.636364" height="247.090909"/>
  </clipPath>
  <clipPath id="p2b3aa5a55f">
   <rect x="394.363636" y="382.909091" width="253.636364" height="247.090909"/>
  </clipPath>
 </defs>
</svg>
