<?xml version="1.0" encoding="utf-8" standalone="no"?>
<!DOCTYPE svg PUBLIC "-//W3C//DTD SVG 1.1//EN"
  "http://www.w3.org/Graphics/SVG/1.1/DTD/svg11.dtd">
<svg xmlns:xlink="http://www.w3.org/1999/xlink" width="720pt" height="576pt" viewBox="0 0 720 576" xmlns="http://www.w3.org/2000/svg" version="1.1">
 <metadata>
  <rdf:RDF xmlns:dc="http://purl.org/dc/elements/1.1/" xmlns:cc="http://creativecommons.org/ns#" xmlns:rdf="http://www.w3.org/1999/02/22-rdf-syntax-ns#">
   <cc:Work>
    <dc:type rdf:resource="http://purl.org/dc/dcmitype/StillImage"/>
    <dc:date>2023-06-08T11:21:38.016209</dc:date>
    <dc:format>image/svg+xml</dc:format>
    <dc:creator>
     <cc:Agent>
      <dc:title>Matplotlib v3.5.2, https://matplotlib.org/</dc:title>
     </cc:Agent>
    </dc:creator>
   </cc:Work>
  </rdf:RDF>
 </metadata>
 <defs>
  <style type="text/css">*{stroke-linejoin: round; stroke-linecap: butt}</style>
 </defs>
 <g id="figure_1">
  <g id="patch_1">
   <path d="M 0 576 
L 720 576 
L 720 0 
L 0 0 
z
" style="fill: #ffffff"/>
  </g>
  <g id="axes_1">
   <g id="patch_2">
    <path d="M 90 504 
L 648 504 
L 648 69.12 
L 90 69.12 
z
" style="fill: #ffffff"/>
   </g>
   <g id="PolyCollection_1">
    <path d="M 115.363636 340.92 
L 115.363636 340.92 
L 118.554031 340.92 
L 121.744425 340.92 
L 124.93482 340.92 
L 128.125214 340.92 
L 131.315609 340.92 
L 134.506003 340.92 
L 137.696398 340.92 
L 140.886792 340.92 
L 144.077187 340.92 
L 147.267581 340.92 
L 150.457976 340.92 
L 153.64837 340.919572 
L 156.838765 340.916688 
L 160.02916 340.9016 
L 163.219554 340.840073 
L 166.409949 340.642115 
L 169.600343 340.13404 
L 172.790738 339.077594 
L 175.981132 337.254065 
L 179.171527 337.049062 
L 182.361921 333.397822 
L 185.552316 330.14844 
L 188.74271 326.399005 
L 191.933105 322.007372 
L 195.123499 317.525355 
L 198.313894 313.326926 
L 201.504288 309.793958 
L 204.694683 307.096278 
L 207.885077 304.725488 
L 211.075472 302.732564 
L 214.265866 300.868822 
L 217.456261 298.906756 
L 220.646655 297.54063 
L 223.83705 296.194663 
L 227.027444 294.962348 
L 230.217839 293.242834 
L 233.408233 290.291292 
L 236.598628 286.1514 
L 239.789022 280.249932 
L 242.979417 273.20384 
L 246.169811 265.119424 
L 249.360206 256.716076 
L 252.5506 248.388547 
L 255.740995 240.66324 
L 258.931389 234.258124 
L 262.121784 229.775586 
L 265.312178 228.842879 
L 268.502573 232.785566 
L 271.692967 242.036288 
L 274.883362 247.263111 
L 278.073756 259.084204 
L 281.264151 268.582551 
L 284.454545 274.74962 
L 287.64494 278.366483 
L 290.835334 281.520699 
L 294.025729 284.2317 
L 297.216123 286.956406 
L 300.406518 290.646636 
L 303.596913 294.147569 
L 306.787307 298.172854 
L 309.977702 302.199207 
L 313.168096 305.393522 
L 316.358491 308.166003 
L 319.548885 310.162378 
L 322.73928 312.458994 
L 325.929674 315.247058 
L 329.120069 318.195355 
L 332.310463 321.008874 
L 335.500858 323.34616 
L 338.691252 324.411695 
L 341.881647 326.116757 
L 345.072041 327.529478 
L 348.262436 328.610135 
L 351.45283 330.176536 
L 354.643225 329.915863 
L 357.833619 329.330961 
L 361.024014 328.464335 
L 364.214408 327.245275 
L 367.404803 326.961866 
L 370.595197 326.736893 
L 373.785592 327.205937 
L 376.975986 326.974829 
L 380.166381 327.087713 
L 383.356775 326.543051 
L 386.54717 326.285476 
L 389.737564 326.06937 
L 392.927959 326.756494 
L 396.118353 327.650989 
L 399.308748 329.096173 
L 402.499142 330.358971 
L 405.689537 330.672059 
L 408.879931 330.847571 
L 412.070326 330.602314 
L 415.26072 330.77213 
L 418.451115 331.735665 
L 421.641509 332.530545 
L 424.831904 333.318339 
L 428.022298 334.318988 
L 431.212693 335.098727 
L 434.403087 335.621084 
L 437.593482 335.545998 
L 440.783877 335.344048 
L 443.974271 334.852762 
L 447.164666 334.715865 
L 450.35506 334.872838 
L 453.545455 334.022356 
L 456.735849 334.03884 
L 459.926244 333.741695 
L 463.116638 333.874724 
L 466.307033 334.309522 
L 469.497427 335.366844 
L 472.687822 337.554894 
L 475.878216 339.671087 
L 479.068611 342.18204 
L 482.259005 343.906044 
L 485.4494 345.508679 
L 488.639794 347.286777 
L 491.830189 348.549052 
L 495.020583 348.824443 
L 498.210978 348.417725 
L 501.401372 348.307906 
L 504.591767 347.925911 
L 507.782161 347.018695 
L 510.972556 347.37285 
L 514.16295 347.56898 
L 517.353345 348.796998 
L 520.543739 349.573692 
L 523.734134 351.125692 
L 526.924528 351.448774 
L 530.114923 351.548715 
L 533.305317 350.160231 
L 536.495712 348.86331 
L 539.686106 347.830923 
L 542.876501 346.998153 
L 546.066895 345.778955 
L 549.25729 345.652304 
L 552.447684 344.803365 
L 555.638079 344.49416 
L 558.828473 344.599683 
L 562.018868 344.138645 
L 565.209262 344.245228 
L 568.399657 344.12847 
L 571.590051 344.480291 
L 574.780446 344.240798 
L 577.97084 344.544247 
L 581.161235 344.251492 
L 584.35163 343.547544 
L 587.542024 342.574834 
L 590.732419 341.575542 
L 593.922813 340.884728 
L 597.113208 340.394555 
L 600.303602 340.059279 
L 603.493997 340.208204 
L 606.684391 340.588779 
L 609.874786 340.763765 
L 613.06518 340.950004 
L 616.255575 341.18081 
L 619.445969 340.917796 
L 622.636364 340.690441 
L 622.636364 323.898152 
L 622.636364 323.898152 
L 619.445969 323.497288 
L 616.255575 322.912409 
L 613.06518 322.66394 
L 609.874786 322.172649 
L 606.684391 321.518044 
L 603.493997 321.161049 
L 600.303602 321.03661 
L 597.113208 321.157544 
L 593.922813 321.839936 
L 590.732419 322.814513 
L 587.542024 323.721324 
L 584.35163 324.651483 
L 581.161235 325.509269 
L 577.97084 326.059217 
L 574.780446 326.378686 
L 571.590051 325.684885 
L 568.399657 325.646029 
L 565.209262 325.422558 
L 562.018868 325.537002 
L 558.828473 325.038046 
L 555.638079 325.195462 
L 552.447684 325.270647 
L 549.25729 325.145091 
L 546.066895 325.86108 
L 542.876501 325.529227 
L 539.686106 325.899439 
L 536.495712 326.651661 
L 533.305317 327.437492 
L 530.114923 327.576973 
L 526.924528 327.857307 
L 523.734134 326.895571 
L 520.543739 326.273266 
L 517.353345 324.82198 
L 514.16295 324.462911 
L 510.972556 324.079417 
L 507.782161 324.820011 
L 504.591767 324.821573 
L 501.401372 325.222523 
L 498.210978 325.259527 
L 495.020583 324.201944 
L 491.830189 323.088945 
L 488.639794 322.225365 
L 485.4494 321.025924 
L 482.259005 318.783099 
L 479.068611 316.019064 
L 475.878216 313.78103 
L 472.687822 311.325318 
L 469.497427 309.606944 
L 466.307033 307.866353 
L 463.116638 306.776921 
L 459.926244 306.428147 
L 456.735849 306.218955 
L 453.545455 306.471829 
L 450.35506 305.822461 
L 447.164666 306.157161 
L 443.974271 306.216716 
L 440.783877 305.929216 
L 437.593482 305.897106 
L 434.403087 305.856995 
L 431.212693 306.045317 
L 428.022298 305.839057 
L 424.831904 305.124861 
L 421.641509 303.764653 
L 418.451115 302.556106 
L 415.26072 302.231509 
L 412.070326 302.049488 
L 408.879931 302.044724 
L 405.689537 302.251866 
L 402.499142 301.595102 
L 399.308748 300.671486 
L 396.118353 299.29534 
L 392.927959 297.716062 
L 389.737564 296.95615 
L 386.54717 296.324129 
L 383.356775 296.226772 
L 380.166381 295.925097 
L 376.975986 296.035965 
L 373.785592 295.411206 
L 370.595197 295.171984 
L 367.404803 294.297042 
L 364.214408 293.996409 
L 361.024014 293.766425 
L 357.833619 294.553334 
L 354.643225 295.182454 
L 351.45283 294.570806 
L 348.262436 293.97846 
L 345.072041 291.809992 
L 341.881647 289.771813 
L 338.691252 288.139814 
L 335.500858 285.634908 
L 332.310463 283.581898 
L 329.120069 280.947372 
L 325.929674 277.877925 
L 322.73928 275.00706 
L 319.548885 272.513478 
L 316.358491 270.101211 
L 313.168096 267.722352 
L 309.977702 264.214942 
L 306.787307 260.152622 
L 303.596913 255.670127 
L 300.406518 251.294958 
L 297.216123 248.311977 
L 294.025729 245.608169 
L 290.835334 243.748615 
L 287.64494 242.244356 
L 284.454545 239.303962 
L 281.264151 234.448549 
L 278.073756 226.486428 
L 274.883362 215.414203 
L 271.692967 197.393368 
L 268.502573 189.784393 
L 265.312178 187.407125 
L 262.121784 190.385744 
L 258.931389 197.04815 
L 255.740995 205.963992 
L 252.5506 215.65996 
L 249.360206 225.52104 
L 246.169811 235.164682 
L 242.979417 244.330052 
L 239.789022 253.050189 
L 236.598628 260.545936 
L 233.408233 266.638472 
L 230.217839 270.616483 
L 227.027444 273.292258 
L 223.83705 275.237683 
L 220.646655 277.040873 
L 217.456261 279.372467 
L 214.265866 281.612603 
L 211.075472 284.171785 
L 207.885077 286.762565 
L 204.694683 289.528061 
L 201.504288 293.200186 
L 198.313894 297.794369 
L 195.123499 303.44525 
L 191.933105 309.878987 
L 188.74271 316.491063 
L 185.552316 322.941715 
L 182.361921 328.520755 
L 179.171527 332.049798 
L 175.981132 337.254065 
L 172.790738 339.077594 
L 169.600343 340.13404 
L 166.409949 340.642115 
L 163.219554 340.840073 
L 160.02916 340.9016 
L 156.838765 340.916688 
L 153.64837 340.919572 
L 150.457976 340.92 
L 147.267581 340.92 
L 144.077187 340.92 
L 140.886792 340.92 
L 137.696398 340.92 
L 134.506003 340.92 
L 131.315609 340.92 
L 128.125214 340.92 
L 124.93482 340.92 
L 121.744425 340.92 
L 118.554031 340.92 
L 115.363636 340.92 
z
" clip-path="url(#p10915d6a35)" style="fill: #9467bd; fill-opacity: 0.3"/>
   </g>
   <g id="PolyCollection_2">
    <path d="M 115.363636 340.92 
L 115.363636 340.92 
L 118.554031 340.92 
L 121.744425 340.92 
L 124.93482 340.92 
L 128.125214 340.92 
L 131.315609 340.92 
L 134.506003 340.92 
L 137.696398 340.92 
L 140.886792 340.92 
L 144.077187 340.92 
L 147.267581 340.92 
L 150.457976 340.92 
L 153.64837 340.920265 
L 156.838765 340.922196 
L 160.02916 340.932321 
L 163.219554 340.973982 
L 166.409949 341.108701 
L 169.600343 341.451861 
L 172.790738 342.142104 
L 175.981132 343.237362 
L 179.171527 347.236039 
L 182.361921 349.356857 
L 185.552316 350.800461 
L 188.74271 351.559327 
L 191.933105 352.31344 
L 195.123499 351.681504 
L 198.313894 351.335846 
L 201.504288 351.203713 
L 204.694683 351.196344 
L 207.885077 351.085411 
L 211.075472 351.111421 
L 214.265866 350.79905 
L 217.456261 350.625565 
L 220.646655 350.564302 
L 223.83705 351.06986 
L 227.027444 351.811953 
L 230.217839 351.831406 
L 233.408233 352.938703 
L 236.598628 354.200404 
L 239.789022 355.097 
L 242.979417 355.158115 
L 246.169811 354.722231 
L 249.360206 353.814308 
L 252.5506 352.580287 
L 255.740995 350.377159 
L 258.931389 347.400661 
L 262.121784 345.290988 
L 265.312178 343.2661 
L 268.502573 341.390981 
L 271.692967 340.084445 
L 274.883362 338.917645 
L 278.073756 338.621536 
L 281.264151 337.991061 
L 284.454545 338.568883 
L 287.64494 339.048552 
L 290.835334 340.358934 
L 294.025729 341.538965 
L 297.216123 343.036259 
L 300.406518 344.187565 
L 303.596913 345.10711 
L 306.787307 345.830918 
L 309.977702 346.036934 
L 313.168096 346.321159 
L 316.358491 346.086488 
L 319.548885 346.120596 
L 322.73928 345.957988 
L 325.929674 346.400705 
L 329.120069 347.144295 
L 332.310463 347.808265 
L 335.500858 348.820851 
L 338.691252 350.238419 
L 341.881647 351.243661 
L 345.072041 352.885727 
L 348.262436 354.277182 
L 351.45283 354.951626 
L 354.643225 355.490203 
L 357.833619 354.974175 
L 361.024014 354.918478 
L 364.214408 355.542495 
L 367.404803 356.485148 
L 370.595197 356.97082 
L 373.785592 358.634418 
L 376.975986 359.721309 
L 380.166381 360.472492 
L 383.356775 360.914613 
L 386.54717 361.752412 
L 389.737564 362.339071 
L 392.927959 362.965293 
L 396.118353 363.411892 
L 399.308748 363.766108 
L 402.499142 363.868622 
L 405.689537 363.583252 
L 408.879931 362.883843 
L 412.070326 362.395915 
L 415.26072 362.220937 
L 418.451115 362.101281 
L 421.641509 362.02451 
L 424.831904 362.033941 
L 428.022298 362.109669 
L 431.212693 362.311902 
L 434.403087 362.600446 
L 437.593482 363.102048 
L 440.783877 362.769771 
L 443.974271 362.655197 
L 447.164666 362.166301 
L 450.35506 361.444366 
L 453.545455 360.511843 
L 456.735849 359.968457 
L 459.926244 359.271106 
L 463.116638 358.507565 
L 466.307033 358.021589 
L 469.497427 357.597353 
L 472.687822 357.411391 
L 475.878216 356.731943 
L 479.068611 355.701557 
L 482.259005 354.320744 
L 485.4494 352.239156 
L 488.639794 349.672035 
L 491.830189 346.938218 
L 495.020583 345.6891 
L 498.210978 344.859939 
L 501.401372 344.204731 
L 504.591767 343.885035 
L 507.782161 343.402385 
L 510.972556 343.338374 
L 514.16295 343.780859 
L 517.353345 344.027113 
L 520.543739 344.148393 
L 523.734134 344.704107 
L 526.924528 345.268944 
L 530.114923 345.676662 
L 533.305317 345.662149 
L 536.495712 346.087079 
L 539.686106 346.118583 
L 542.876501 345.979111 
L 546.066895 345.273411 
L 549.25729 345.140612 
L 552.447684 344.622327 
L 555.638079 343.638454 
L 558.828473 344.141684 
L 562.018868 344.137076 
L 565.209262 343.185004 
L 568.399657 343.053706 
L 571.590051 342.994673 
L 574.780446 342.397842 
L 577.97084 341.805476 
L 581.161235 341.585939 
L 584.35163 341.278623 
L 587.542024 340.029626 
L 590.732419 339.203279 
L 593.922813 338.977683 
L 597.113208 338.32527 
L 600.303602 337.720246 
L 603.493997 337.505339 
L 606.684391 337.265496 
L 609.874786 336.604675 
L 613.06518 336.623928 
L 616.255575 336.205054 
L 619.445969 335.758591 
L 622.636364 335.828414 
L 622.636364 327.011702 
L 622.636364 327.011702 
L 619.445969 327.149369 
L 616.255575 326.906212 
L 613.06518 326.929271 
L 609.874786 327.676684 
L 606.684391 327.947737 
L 603.493997 328.684502 
L 600.303602 329.396798 
L 597.113208 329.713029 
L 593.922813 330.092463 
L 590.732419 331.079734 
L 587.542024 331.605497 
L 584.35163 331.71576 
L 581.161235 332.638255 
L 577.97084 333.464331 
L 574.780446 333.769734 
L 571.590051 333.961444 
L 568.399657 334.52483 
L 565.209262 334.728329 
L 562.018868 333.810399 
L 558.828473 333.75275 
L 555.638079 334.432295 
L 552.447684 334.017607 
L 549.25729 334.353569 
L 546.066895 335.072855 
L 542.876501 334.919779 
L 539.686106 334.880052 
L 536.495712 334.621427 
L 533.305317 334.544446 
L 530.114923 333.909544 
L 526.924528 333.534287 
L 523.734134 333.12805 
L 520.543739 332.653672 
L 517.353345 331.916743 
L 514.16295 331.644517 
L 510.972556 331.886304 
L 507.782161 331.74759 
L 504.591767 331.155638 
L 501.401372 330.801111 
L 498.210978 330.598914 
L 495.020583 331.197191 
L 491.830189 332.576328 
L 488.639794 333.422564 
L 485.4494 334.742174 
L 482.259005 336.161215 
L 479.068611 337.46387 
L 475.878216 338.162368 
L 472.687822 338.322433 
L 469.497427 338.361865 
L 466.307033 338.041642 
L 463.116638 338.047789 
L 459.926244 338.376604 
L 456.735849 339.18647 
L 453.545455 340.207534 
L 450.35506 340.650168 
L 447.164666 341.027325 
L 443.974271 341.294292 
L 440.783877 341.48638 
L 437.593482 340.973549 
L 434.403087 340.922961 
L 431.212693 340.497304 
L 428.022298 340.031852 
L 424.831904 339.659139 
L 421.641509 339.542298 
L 418.451115 339.667413 
L 415.26072 340.065597 
L 412.070326 340.78367 
L 408.879931 341.58768 
L 405.689537 342.355775 
L 402.499142 343.255146 
L 399.308748 343.853327 
L 396.118353 343.908203 
L 392.927959 343.440685 
L 389.737564 342.8236 
L 386.54717 342.067726 
L 383.356775 341.567264 
L 380.166381 340.641215 
L 376.975986 339.847704 
L 373.785592 339.044919 
L 370.595197 338.454684 
L 367.404803 336.608558 
L 364.214408 335.677463 
L 361.024014 335.326935 
L 357.833619 335.149669 
L 354.643225 334.773051 
L 351.45283 334.948944 
L 348.262436 334.312373 
L 345.072041 333.508084 
L 341.881647 332.468934 
L 338.691252 330.768612 
L 335.500858 329.823257 
L 332.310463 329.029662 
L 329.120069 328.47953 
L 325.929674 328.498244 
L 322.73928 328.582217 
L 319.548885 328.374462 
L 316.358491 328.634822 
L 313.168096 328.684487 
L 309.977702 328.859547 
L 306.787307 328.113811 
L 303.596913 326.944646 
L 300.406518 325.339299 
L 297.216123 323.773519 
L 294.025729 322.663805 
L 290.835334 321.505571 
L 287.64494 320.925982 
L 284.454545 320.226979 
L 281.264151 320.540205 
L 278.073756 320.553242 
L 274.883362 321.661244 
L 271.692967 322.548964 
L 268.502573 323.925704 
L 265.312178 325.34261 
L 262.121784 327.12636 
L 258.931389 329.170904 
L 255.740995 330.437155 
L 252.5506 332.186903 
L 249.360206 334.152973 
L 246.169811 335.296189 
L 242.979417 335.559041 
L 239.789022 334.970735 
L 236.598628 334.103646 
L 233.408233 332.992657 
L 230.217839 331.760166 
L 227.027444 329.946417 
L 223.83705 329.516245 
L 220.646655 329.469046 
L 217.456261 329.392813 
L 214.265866 329.655481 
L 211.075472 330.133434 
L 207.885077 331.20133 
L 204.694683 332.310722 
L 201.504288 333.754896 
L 198.313894 335.492753 
L 195.123499 337.48188 
L 191.933105 339.218892 
L 188.74271 341.551657 
L 185.552316 342.404831 
L 182.361921 342.360963 
L 179.171527 341.95429 
L 175.981132 343.237362 
L 172.790738 342.142104 
L 169.600343 341.451861 
L 166.409949 341.108701 
L 163.219554 340.973982 
L 160.02916 340.932321 
L 156.838765 340.922196 
L 153.64837 340.920265 
L 150.457976 340.92 
L 147.267581 340.92 
L 144.077187 340.92 
L 140.886792 340.92 
L 137.696398 340.92 
L 134.506003 340.92 
L 131.315609 340.92 
L 128.125214 340.92 
L 124.93482 340.92 
L 121.744425 340.92 
L 118.554031 340.92 
L 115.363636 340.92 
z
" clip-path="url(#p10915d6a35)" style="fill: #1f77b4; fill-opacity: 0.3"/>
   </g>
   <g id="PolyCollection_3">
    <path d="M 115.363636 340.92 
L 115.363636 340.92 
L 118.554031 340.92 
L 121.744425 340.92 
L 124.93482 340.92 
L 128.125214 340.92 
L 131.315609 340.92 
L 134.506003 340.92 
L 137.696398 340.92 
L 140.886792 340.92 
L 144.077187 340.92 
L 147.267581 340.92 
L 150.457976 340.92 
L 153.64837 340.92 
L 156.838765 340.92 
L 160.02916 340.92 
L 163.219554 340.92 
L 166.409949 340.92 
L 169.600343 340.92 
L 172.790738 340.92 
L 175.981132 340.92 
L 179.171527 340.92 
L 182.361921 340.92 
L 185.552316 340.92 
L 188.74271 340.92 
L 191.933105 340.92 
L 195.123499 340.92 
L 198.313894 340.92 
L 201.504288 340.92 
L 204.694683 340.92 
L 207.885077 340.92 
L 211.075472 340.92 
L 214.265866 340.92 
L 217.456261 340.92 
L 220.646655 340.92 
L 223.83705 340.92 
L 227.027444 340.92 
L 230.217839 340.92 
L 233.408233 340.92 
L 236.598628 340.92 
L 239.789022 340.92 
L 242.979417 340.92 
L 246.169811 340.92 
L 249.360206 340.913758 
L 252.5506 340.872526 
L 255.740995 340.661715 
L 258.931389 339.821999 
L 262.121784 337.210011 
L 265.312178 330.854475 
L 268.502573 318.726634 
L 271.692967 300.492056 
L 274.883362 294.928908 
L 278.073756 274.342889 
L 281.264151 258.209374 
L 284.454545 245.774647 
L 287.64494 236.793486 
L 290.835334 229.392442 
L 294.025729 222.408643 
L 297.216123 216.979285 
L 300.406518 212.05306 
L 303.596913 209.18316 
L 306.787307 207.398273 
L 309.977702 206.486249 
L 313.168096 207.203671 
L 316.358491 208.875176 
L 319.548885 211.011886 
L 322.73928 214.270362 
L 325.929674 216.766321 
L 329.120069 219.250253 
L 332.310463 221.383316 
L 335.500858 222.538655 
L 338.691252 224.345089 
L 341.881647 225.480026 
L 345.072041 227.172697 
L 348.262436 228.382859 
L 351.45283 229.995572 
L 354.643225 231.805401 
L 357.833619 232.643015 
L 361.024014 233.178767 
L 364.214408 234.663066 
L 367.404803 236.889974 
L 370.595197 239.302661 
L 373.785592 242.430338 
L 376.975986 245.072226 
L 380.166381 247.791829 
L 383.356775 250.564532 
L 386.54717 253.548526 
L 389.737564 256.917244 
L 392.927959 260.465727 
L 396.118353 263.750257 
L 399.308748 266.732985 
L 402.499142 268.912646 
L 405.689537 270.762755 
L 408.879931 272.346898 
L 412.070326 274.097377 
L 415.26072 275.641129 
L 418.451115 277.089459 
L 421.641509 278.580067 
L 424.831904 279.396689 
L 428.022298 280.48809 
L 431.212693 281.384355 
L 434.403087 282.503109 
L 437.593482 283.297538 
L 440.783877 283.860306 
L 443.974271 284.865417 
L 447.164666 285.980263 
L 450.35506 287.752187 
L 453.545455 290.23134 
L 456.735849 293.455097 
L 459.926244 296.164572 
L 463.116638 298.057156 
L 466.307033 299.985929 
L 469.497427 301.500858 
L 472.687822 302.812171 
L 475.878216 303.671848 
L 479.068611 305.961787 
L 482.259005 307.666804 
L 485.4494 310.783417 
L 488.639794 314.315511 
L 491.830189 318.151106 
L 495.020583 322.180549 
L 498.210978 325.326801 
L 501.401372 328.669552 
L 504.591767 331.272426 
L 507.782161 333.736797 
L 510.972556 335.234283 
L 514.16295 336.589141 
L 517.353345 336.679586 
L 520.543739 336.45377 
L 523.734134 335.850874 
L 526.924528 334.976044 
L 530.114923 333.704212 
L 533.305317 332.42133 
L 536.495712 331.554807 
L 539.686106 331.041861 
L 542.876501 330.462834 
L 546.066895 330.284873 
L 549.25729 330.013711 
L 552.447684 330.05521 
L 555.638079 329.447883 
L 558.828473 329.83665 
L 562.018868 329.214285 
L 565.209262 329.494868 
L 568.399657 329.967722 
L 571.590051 330.105578 
L 574.780446 330.092163 
L 577.97084 329.986586 
L 581.161235 329.88749 
L 584.35163 329.94143 
L 587.542024 329.710934 
L 590.732419 329.170944 
L 593.922813 329.096914 
L 597.113208 328.693227 
L 600.303602 328.535892 
L 603.493997 328.641453 
L 606.684391 328.397464 
L 609.874786 329.106735 
L 613.06518 329.722646 
L 616.255575 330.110136 
L 619.445969 330.996873 
L 622.636364 330.865698 
L 622.636364 321.156853 
L 622.636364 321.156853 
L 619.445969 320.118445 
L 616.255575 319.359833 
L 613.06518 317.721477 
L 609.874786 316.425518 
L 606.684391 315.788122 
L 603.493997 314.967182 
L 600.303602 315.167812 
L 597.113208 315.498214 
L 593.922813 315.692245 
L 590.732419 316.161297 
L 587.542024 316.089595 
L 584.35163 316.30809 
L 581.161235 316.792008 
L 577.97084 316.962424 
L 574.780446 316.752879 
L 571.590051 316.172211 
L 568.399657 315.447283 
L 565.209262 315.104103 
L 562.018868 314.898783 
L 558.828473 314.182368 
L 555.638079 314.73845 
L 552.447684 314.369922 
L 549.25729 314.571758 
L 546.066895 314.309797 
L 542.876501 314.043183 
L 539.686106 313.526038 
L 536.495712 313.620781 
L 533.305317 314.188921 
L 530.114923 315.05609 
L 526.924528 316.150886 
L 523.734134 317.261169 
L 520.543739 317.811915 
L 517.353345 317.600872 
L 514.16295 316.319543 
L 510.972556 314.816415 
L 507.782161 312.129769 
L 504.591767 309.341077 
L 501.401372 305.693726 
L 498.210978 301.706377 
L 495.020583 296.537444 
L 491.830189 291.743252 
L 488.639794 286.994541 
L 485.4494 282.908452 
L 482.259005 279.758058 
L 479.068611 276.462394 
L 475.878216 274.691431 
L 472.687822 272.181399 
L 469.497427 270.61187 
L 466.307033 269.270752 
L 463.116638 267.593342 
L 459.926244 264.489661 
L 456.735849 260.873268 
L 453.545455 257.339069 
L 450.35506 253.861517 
L 447.164666 251.256527 
L 443.974271 249.487885 
L 440.783877 248.44863 
L 437.593482 247.198233 
L 434.403087 246.163468 
L 431.212693 245.448374 
L 428.022298 244.564853 
L 424.831904 243.904501 
L 421.641509 242.826892 
L 418.451115 242.018386 
L 415.26072 240.609453 
L 412.070326 238.85651 
L 408.879931 237.138399 
L 405.689537 235.165386 
L 402.499142 233.109256 
L 399.308748 230.608285 
L 396.118353 227.830739 
L 392.927959 224.274637 
L 389.737564 220.311821 
L 386.54717 216.266833 
L 383.356775 212.640564 
L 380.166381 209.670104 
L 376.975986 206.89007 
L 373.785592 203.676877 
L 370.595197 200.722333 
L 367.404803 197.577845 
L 364.214408 195.453632 
L 361.024014 193.894894 
L 357.833619 192.242722 
L 354.643225 191.067817 
L 351.45283 190.490746 
L 348.262436 189.162318 
L 345.072041 187.064277 
L 341.881647 185.396324 
L 338.691252 183.302905 
L 335.500858 181.97412 
L 332.310463 179.857102 
L 329.120069 178.236462 
L 325.929674 176.187119 
L 322.73928 173.387859 
L 319.548885 171.115293 
L 316.358491 168.374425 
L 313.168096 166.652009 
L 309.977702 165.935427 
L 306.787307 165.788221 
L 303.596913 167.278903 
L 300.406518 170.659393 
L 297.216123 175.25755 
L 294.025729 182.325517 
L 290.835334 190.006729 
L 287.64494 199.052529 
L 284.454545 209.541162 
L 281.264151 222.636593 
L 278.073756 240.872653 
L 274.883362 262.466495 
L 271.692967 300.492056 
L 268.502573 318.726634 
L 265.312178 330.854475 
L 262.121784 337.210011 
L 258.931389 339.821999 
L 255.740995 340.661715 
L 252.5506 340.872526 
L 249.360206 340.913758 
L 246.169811 340.92 
L 242.979417 340.92 
L 239.789022 340.92 
L 236.598628 340.92 
L 233.408233 340.92 
L 230.217839 340.92 
L 227.027444 340.92 
L 223.83705 340.92 
L 220.646655 340.92 
L 217.456261 340.92 
L 214.265866 340.92 
L 211.075472 340.92 
L 207.885077 340.92 
L 204.694683 340.92 
L 201.504288 340.92 
L 198.313894 340.92 
L 195.123499 340.92 
L 191.933105 340.92 
L 188.74271 340.92 
L 185.552316 340.92 
L 182.361921 340.92 
L 179.171527 340.92 
L 175.981132 340.92 
L 172.790738 340.92 
L 169.600343 340.92 
L 166.409949 340.92 
L 163.219554 340.92 
L 160.02916 340.92 
L 156.838765 340.92 
L 153.64837 340.92 
L 150.457976 340.92 
L 147.267581 340.92 
L 144.077187 340.92 
L 140.886792 340.92 
L 137.696398 340.92 
L 134.506003 340.92 
L 131.315609 340.92 
L 128.125214 340.92 
L 124.93482 340.92 
L 121.744425 340.92 
L 118.554031 340.92 
L 115.363636 340.92 
z
" clip-path="url(#p10915d6a35)" style="fill: #d62728; fill-opacity: 0.3"/>
   </g>
   <g id="PolyCollection_4">
    <path d="M 115.363636 308.370939 
L 115.363636 332.461082 
L 118.554031 332.452173 
L 121.744425 332.682356 
L 124.93482 332.624307 
L 128.125214 332.243723 
L 131.315609 331.149588 
L 134.506003 330.869948 
L 137.696398 330.265054 
L 140.886792 329.946419 
L 144.077187 329.449787 
L 147.267581 328.62489 
L 150.457976 327.55092 
L 153.64837 327.039622 
L 156.838765 326.038002 
L 160.02916 324.306924 
L 163.219554 323.353675 
L 166.409949 323.741521 
L 169.600343 324.663635 
L 172.790738 327.229264 
L 175.981132 330.861413 
L 179.171527 336.65806 
L 182.361921 344.23072 
L 185.552316 352.720119 
L 188.74271 360.987185 
L 191.933105 369.30316 
L 195.123499 376.402386 
L 198.313894 382.626932 
L 201.504288 387.631676 
L 204.694683 391.000675 
L 207.885077 393.216231 
L 211.075472 394.555591 
L 214.265866 395.315681 
L 217.456261 395.061613 
L 220.646655 394.112859 
L 223.83705 391.997329 
L 227.027444 389.825544 
L 230.217839 388.22326 
L 233.408233 387.189402 
L 236.598628 387.157738 
L 239.789022 387.866423 
L 242.979417 389.185272 
L 246.169811 390.931104 
L 249.360206 393.246415 
L 252.5506 395.515978 
L 255.740995 397.339222 
L 258.931389 398.589305 
L 262.121784 399.228798 
L 265.312178 398.320424 
L 268.502573 397.297367 
L 271.692967 396.440924 
L 274.883362 395.03379 
L 278.073756 395.260247 
L 281.264151 395.189768 
L 284.454545 396.575078 
L 287.64494 397.729549 
L 290.835334 398.51174 
L 294.025729 398.89371 
L 297.216123 399.884627 
L 300.406518 399.214249 
L 303.596913 397.940662 
L 306.787307 396.709679 
L 309.977702 395.325922 
L 313.168096 392.796187 
L 316.358491 390.293652 
L 319.548885 387.444377 
L 322.73928 384.63907 
L 325.929674 381.435224 
L 329.120069 379.403262 
L 332.310463 377.758204 
L 335.500858 376.059799 
L 338.691252 374.808349 
L 341.881647 374.687232 
L 345.072041 374.33288 
L 348.262436 374.21627 
L 351.45283 373.98463 
L 354.643225 373.863635 
L 357.833619 373.671974 
L 361.024014 374.152194 
L 364.214408 374.747778 
L 367.404803 375.110293 
L 370.595197 375.455235 
L 373.785592 375.749367 
L 376.975986 376.006409 
L 380.166381 376.314551 
L 383.356775 377.214943 
L 386.54717 378.262046 
L 389.737564 379.279241 
L 392.927959 380.270337 
L 396.118353 380.38684 
L 399.308748 380.2255 
L 402.499142 378.5728 
L 405.689537 377.289961 
L 408.879931 375.361583 
L 412.070326 373.689171 
L 415.26072 371.509631 
L 418.451115 369.474018 
L 421.641509 367.436874 
L 424.831904 364.976317 
L 428.022298 362.871363 
L 431.212693 361.285366 
L 434.403087 360.383231 
L 437.593482 359.735193 
L 440.783877 359.025798 
L 443.974271 359.486225 
L 447.164666 359.738125 
L 450.35506 360.097143 
L 453.545455 359.961699 
L 456.735849 359.858444 
L 459.926244 359.595429 
L 463.116638 359.556989 
L 466.307033 358.745714 
L 469.497427 358.083573 
L 472.687822 356.82672 
L 475.878216 355.797509 
L 479.068611 354.400902 
L 482.259005 353.503258 
L 485.4494 352.856362 
L 488.639794 352.587544 
L 491.830189 352.41498 
L 495.020583 352.064666 
L 498.210978 351.941503 
L 501.401372 351.508249 
L 504.591767 351.288648 
L 507.782161 350.795841 
L 510.972556 350.234951 
L 514.16295 350.007679 
L 517.353345 350.100455 
L 520.543739 349.951273 
L 523.734134 349.707678 
L 526.924528 349.689909 
L 530.114923 349.053656 
L 533.305317 348.774054 
L 536.495712 348.184842 
L 539.686106 347.698055 
L 542.876501 347.511163 
L 546.066895 347.405921 
L 549.25729 347.225981 
L 552.447684 346.840703 
L 555.638079 346.670383 
L 558.828473 346.254017 
L 562.018868 345.783544 
L 565.209262 344.836273 
L 568.399657 343.875344 
L 571.590051 343.603346 
L 574.780446 343.227371 
L 577.97084 342.916676 
L 581.161235 342.575565 
L 584.35163 342.436457 
L 587.542024 342.174182 
L 590.732419 341.923321 
L 593.922813 341.690554 
L 597.113208 341.576984 
L 600.303602 341.45854 
L 603.493997 341.210089 
L 606.684391 341.599867 
L 609.874786 341.62905 
L 613.06518 341.910423 
L 616.255575 342.250347 
L 619.445969 342.15722 
L 622.636364 342.235673 
L 622.636364 332.526681 
L 622.636364 332.526681 
L 619.445969 332.472684 
L 616.255575 332.133061 
L 613.06518 332.129478 
L 609.874786 332.0102 
L 606.684391 331.695328 
L 603.493997 331.963103 
L 600.303602 331.925476 
L 597.113208 332.32725 
L 593.922813 332.913069 
L 590.732419 333.414613 
L 587.542024 333.846834 
L 584.35163 334.203268 
L 581.161235 334.662015 
L 577.97084 334.984219 
L 574.780446 335.51319 
L 571.590051 336.241066 
L 568.399657 337.33952 
L 565.209262 337.911845 
L 562.018868 338.487469 
L 558.828473 339.350442 
L 555.638079 339.96617 
L 552.447684 340.532492 
L 549.25729 340.667945 
L 546.066895 340.835743 
L 542.876501 340.897855 
L 539.686106 340.767498 
L 536.495712 340.444552 
L 533.305317 340.334773 
L 530.114923 340.802549 
L 526.924528 340.873817 
L 523.734134 341.257371 
L 520.543739 341.146778 
L 517.353345 341.122862 
L 514.16295 341.53014 
L 510.972556 341.782553 
L 507.782161 341.694616 
L 504.591767 341.503175 
L 501.401372 341.346322 
L 498.210978 340.762534 
L 495.020583 340.362715 
L 491.830189 339.773872 
L 488.639794 339.640279 
L 485.4494 339.906045 
L 482.259005 340.396554 
L 479.068611 341.246261 
L 475.878216 342.095035 
L 472.687822 343.480733 
L 469.497427 344.32798 
L 466.307033 345.126344 
L 463.116638 345.147817 
L 459.926244 345.545073 
L 456.735849 345.480204 
L 453.545455 345.299552 
L 450.35506 344.727927 
L 447.164666 344.414433 
L 443.974271 344.134095 
L 440.783877 344.612128 
L 437.593482 344.677175 
L 434.403087 345.554322 
L 431.212693 346.884406 
L 428.022298 348.280642 
L 424.831904 349.938412 
L 421.641509 351.823175 
L 418.451115 354.268129 
L 415.26072 356.432067 
L 412.070326 358.056243 
L 408.879931 359.948023 
L 405.689537 361.439616 
L 402.499142 363.187966 
L 399.308748 363.671138 
L 396.118353 364.334176 
L 392.927959 363.901362 
L 389.737564 363.258552 
L 386.54717 362.080231 
L 383.356775 360.988407 
L 380.166381 360.27282 
L 376.975986 359.520584 
L 373.785592 358.885311 
L 370.595197 358.044974 
L 367.404803 356.961521 
L 364.214408 355.871902 
L 361.024014 355.264929 
L 357.833619 354.875962 
L 354.643225 354.092164 
L 351.45283 353.568862 
L 348.262436 353.06693 
L 345.072041 352.85456 
L 341.881647 352.798243 
L 338.691252 353.720404 
L 335.500858 354.507803 
L 332.310463 355.770925 
L 329.120069 357.710043 
L 325.929674 359.710826 
L 322.73928 361.081925 
L 319.548885 363.472797 
L 316.358491 366.1632 
L 313.168096 368.954287 
L 309.977702 370.946071 
L 306.787307 373.122811 
L 303.596913 374.575352 
L 300.406518 375.211804 
L 297.216123 375.621405 
L 294.025729 376.677799 
L 290.835334 375.99858 
L 287.64494 374.755803 
L 284.454545 373.407339 
L 281.264151 372.490665 
L 278.073756 370.960475 
L 274.883362 370.959816 
L 271.692967 370.596526 
L 268.502573 371.737781 
L 265.312178 372.961263 
L 262.121784 373.492244 
L 258.931389 373.761316 
L 255.740995 372.506371 
L 252.5506 370.219828 
L 249.360206 367.692909 
L 246.169811 365.32248 
L 242.979417 363.059222 
L 239.789022 361.469889 
L 236.598628 360.691507 
L 233.408233 360.802725 
L 230.217839 361.573404 
L 227.027444 363.135704 
L 223.83705 364.757608 
L 220.646655 366.050373 
L 217.456261 367.197561 
L 214.265866 367.265637 
L 211.075472 366.637296 
L 207.885077 365.076301 
L 204.694683 362.748843 
L 201.504288 359.461062 
L 198.313894 355.312653 
L 195.123499 349.924906 
L 191.933105 343.335019 
L 188.74271 336.408841 
L 185.552316 328.594741 
L 182.361921 321.280534 
L 179.171527 314.764927 
L 175.981132 309.419387 
L 172.790738 305.347266 
L 169.600343 303.362776 
L 166.409949 302.245962 
L 163.219554 302.513576 
L 160.02916 302.885281 
L 156.838765 303.377943 
L 153.64837 304.76378 
L 150.457976 306.074929 
L 147.267581 305.923676 
L 144.077187 305.403289 
L 140.886792 305.279049 
L 137.696398 305.940259 
L 134.506003 306.88218 
L 131.315609 308.195704 
L 128.125214 308.235521 
L 124.93482 308.38218 
L 121.744425 308.400275 
L 118.554031 308.502564 
L 115.363636 308.370939 
z
" clip-path="url(#p10915d6a35)" style="fill: #bcbd22; fill-opacity: 0.3"/>
   </g>
   <g id="matplotlib.axis_1">
    <g id="xtick_1">
     <g id="line2d_1">
      <defs>
       <path id="ma6563fbb94" d="M 0 0 
L 0 3.5 
" style="stroke: #000000; stroke-width: 0.8"/>
      </defs>
      <g>
       <use xlink:href="#ma6563fbb94" x="115.299828" y="504" style="stroke: #000000; stroke-width: 0.8"/>
      </g>
     </g>
     <g id="text_1">
      <!-- −1 -->
      <g transform="translate(107.928735 518.598438)scale(0.1 -0.1)">
       <defs>
        <path id="DejaVuSans-2212" d="M 678 2272 
L 4684 2272 
L 4684 1741 
L 678 1741 
L 678 2272 
z
" transform="scale(0.015625)"/>
        <path id="DejaVuSans-31" d="M 794 531 
L 1825 531 
L 1825 4091 
L 703 3866 
L 703 4441 
L 1819 4666 
L 2450 4666 
L 2450 531 
L 3481 531 
L 3481 0 
L 794 0 
L 794 531 
z
" transform="scale(0.015625)"/>
       </defs>
       <use xlink:href="#DejaVuSans-2212"/>
       <use xlink:href="#DejaVuSans-31" x="83.789062"/>
      </g>
     </g>
    </g>
    <g id="xtick_2">
     <g id="line2d_2">
      <g>
       <use xlink:href="#ma6563fbb94" x="179.107719" y="504" style="stroke: #000000; stroke-width: 0.8"/>
      </g>
     </g>
     <g id="text_2">
      <!-- 0 -->
      <g transform="translate(175.926469 518.598438)scale(0.1 -0.1)">
       <defs>
        <path id="DejaVuSans-30" d="M 2034 4250 
Q 1547 4250 1301 3770 
Q 1056 3291 1056 2328 
Q 1056 1369 1301 889 
Q 1547 409 2034 409 
Q 2525 409 2770 889 
Q 3016 1369 3016 2328 
Q 3016 3291 2770 3770 
Q 2525 4250 2034 4250 
z
M 2034 4750 
Q 2819 4750 3233 4129 
Q 3647 3509 3647 2328 
Q 3647 1150 3233 529 
Q 2819 -91 2034 -91 
Q 1250 -91 836 529 
Q 422 1150 422 2328 
Q 422 3509 836 4129 
Q 1250 4750 2034 4750 
z
" transform="scale(0.015625)"/>
       </defs>
       <use xlink:href="#DejaVuSans-30"/>
      </g>
     </g>
    </g>
    <g id="xtick_3">
     <g id="line2d_3">
      <g>
       <use xlink:href="#ma6563fbb94" x="242.915609" y="504" style="stroke: #000000; stroke-width: 0.8"/>
      </g>
     </g>
     <g id="text_3">
      <!-- 1 -->
      <g transform="translate(239.734359 518.598438)scale(0.1 -0.1)">
       <use xlink:href="#DejaVuSans-31"/>
      </g>
     </g>
    </g>
    <g id="xtick_4">
     <g id="line2d_4">
      <g>
       <use xlink:href="#ma6563fbb94" x="306.723499" y="504" style="stroke: #000000; stroke-width: 0.8"/>
      </g>
     </g>
     <g id="text_4">
      <!-- 2 -->
      <g transform="translate(303.542249 518.598438)scale(0.1 -0.1)">
       <defs>
        <path id="DejaVuSans-32" d="M 1228 531 
L 3431 531 
L 3431 0 
L 469 0 
L 469 531 
Q 828 903 1448 1529 
Q 2069 2156 2228 2338 
Q 2531 2678 2651 2914 
Q 2772 3150 2772 3378 
Q 2772 3750 2511 3984 
Q 2250 4219 1831 4219 
Q 1534 4219 1204 4116 
Q 875 4013 500 3803 
L 500 4441 
Q 881 4594 1212 4672 
Q 1544 4750 1819 4750 
Q 2544 4750 2975 4387 
Q 3406 4025 3406 3419 
Q 3406 3131 3298 2873 
Q 3191 2616 2906 2266 
Q 2828 2175 2409 1742 
Q 1991 1309 1228 531 
z
" transform="scale(0.015625)"/>
       </defs>
       <use xlink:href="#DejaVuSans-32"/>
      </g>
     </g>
    </g>
    <g id="xtick_5">
     <g id="line2d_5">
      <g>
       <use xlink:href="#ma6563fbb94" x="370.531389" y="504" style="stroke: #000000; stroke-width: 0.8"/>
      </g>
     </g>
     <g id="text_5">
      <!-- 3 -->
      <g transform="translate(367.350139 518.598438)scale(0.1 -0.1)">
       <defs>
        <path id="DejaVuSans-33" d="M 2597 2516 
Q 3050 2419 3304 2112 
Q 3559 1806 3559 1356 
Q 3559 666 3084 287 
Q 2609 -91 1734 -91 
Q 1441 -91 1130 -33 
Q 819 25 488 141 
L 488 750 
Q 750 597 1062 519 
Q 1375 441 1716 441 
Q 2309 441 2620 675 
Q 2931 909 2931 1356 
Q 2931 1769 2642 2001 
Q 2353 2234 1838 2234 
L 1294 2234 
L 1294 2753 
L 1863 2753 
Q 2328 2753 2575 2939 
Q 2822 3125 2822 3475 
Q 2822 3834 2567 4026 
Q 2313 4219 1838 4219 
Q 1578 4219 1281 4162 
Q 984 4106 628 3988 
L 628 4550 
Q 988 4650 1302 4700 
Q 1616 4750 1894 4750 
Q 2613 4750 3031 4423 
Q 3450 4097 3450 3541 
Q 3450 3153 3228 2886 
Q 3006 2619 2597 2516 
z
" transform="scale(0.015625)"/>
       </defs>
       <use xlink:href="#DejaVuSans-33"/>
      </g>
     </g>
    </g>
    <g id="xtick_6">
     <g id="line2d_6">
      <g>
       <use xlink:href="#ma6563fbb94" x="434.33928" y="504" style="stroke: #000000; stroke-width: 0.8"/>
      </g>
     </g>
     <g id="text_6">
      <!-- 4 -->
      <g transform="translate(431.15803 518.598438)scale(0.1 -0.1)">
       <defs>
        <path id="DejaVuSans-34" d="M 2419 4116 
L 825 1625 
L 2419 1625 
L 2419 4116 
z
M 2253 4666 
L 3047 4666 
L 3047 1625 
L 3713 1625 
L 3713 1100 
L 3047 1100 
L 3047 0 
L 2419 0 
L 2419 1100 
L 313 1100 
L 313 1709 
L 2253 4666 
z
" transform="scale(0.015625)"/>
       </defs>
       <use xlink:href="#DejaVuSans-34"/>
      </g>
     </g>
    </g>
    <g id="xtick_7">
     <g id="line2d_7">
      <g>
       <use xlink:href="#ma6563fbb94" x="498.14717" y="504" style="stroke: #000000; stroke-width: 0.8"/>
      </g>
     </g>
     <g id="text_7">
      <!-- 5 -->
      <g transform="translate(494.96592 518.598438)scale(0.1 -0.1)">
       <defs>
        <path id="DejaVuSans-35" d="M 691 4666 
L 3169 4666 
L 3169 4134 
L 1269 4134 
L 1269 2991 
Q 1406 3038 1543 3061 
Q 1681 3084 1819 3084 
Q 2600 3084 3056 2656 
Q 3513 2228 3513 1497 
Q 3513 744 3044 326 
Q 2575 -91 1722 -91 
Q 1428 -91 1123 -41 
Q 819 9 494 109 
L 494 744 
Q 775 591 1075 516 
Q 1375 441 1709 441 
Q 2250 441 2565 725 
Q 2881 1009 2881 1497 
Q 2881 1984 2565 2268 
Q 2250 2553 1709 2553 
Q 1456 2553 1204 2497 
Q 953 2441 691 2322 
L 691 4666 
z
" transform="scale(0.015625)"/>
       </defs>
       <use xlink:href="#DejaVuSans-35"/>
      </g>
     </g>
    </g>
    <g id="xtick_8">
     <g id="line2d_8">
      <g>
       <use xlink:href="#ma6563fbb94" x="561.95506" y="504" style="stroke: #000000; stroke-width: 0.8"/>
      </g>
     </g>
     <g id="text_8">
      <!-- 6 -->
      <g transform="translate(558.77381 518.598438)scale(0.1 -0.1)">
       <defs>
        <path id="DejaVuSans-36" d="M 2113 2584 
Q 1688 2584 1439 2293 
Q 1191 2003 1191 1497 
Q 1191 994 1439 701 
Q 1688 409 2113 409 
Q 2538 409 2786 701 
Q 3034 994 3034 1497 
Q 3034 2003 2786 2293 
Q 2538 2584 2113 2584 
z
M 3366 4563 
L 3366 3988 
Q 3128 4100 2886 4159 
Q 2644 4219 2406 4219 
Q 1781 4219 1451 3797 
Q 1122 3375 1075 2522 
Q 1259 2794 1537 2939 
Q 1816 3084 2150 3084 
Q 2853 3084 3261 2657 
Q 3669 2231 3669 1497 
Q 3669 778 3244 343 
Q 2819 -91 2113 -91 
Q 1303 -91 875 529 
Q 447 1150 447 2328 
Q 447 3434 972 4092 
Q 1497 4750 2381 4750 
Q 2619 4750 2861 4703 
Q 3103 4656 3366 4563 
z
" transform="scale(0.015625)"/>
       </defs>
       <use xlink:href="#DejaVuSans-36"/>
      </g>
     </g>
    </g>
    <g id="xtick_9">
     <g id="line2d_9">
      <g>
       <use xlink:href="#ma6563fbb94" x="625.76295" y="504" style="stroke: #000000; stroke-width: 0.8"/>
      </g>
     </g>
     <g id="text_9">
      <!-- 7 -->
      <g transform="translate(622.5817 518.598438)scale(0.1 -0.1)">
       <defs>
        <path id="DejaVuSans-37" d="M 525 4666 
L 3525 4666 
L 3525 4397 
L 1831 0 
L 1172 0 
L 2766 4134 
L 525 4134 
L 525 4666 
z
" transform="scale(0.015625)"/>
       </defs>
       <use xlink:href="#DejaVuSans-37"/>
      </g>
     </g>
    </g>
   </g>
   <g id="matplotlib.axis_2">
    <g id="ytick_1">
     <g id="line2d_10">
      <defs>
       <path id="m2b8f39641a" d="M 0 0 
L -3.5 0 
" style="stroke: #000000; stroke-width: 0.8"/>
      </defs>
      <g>
       <use xlink:href="#m2b8f39641a" x="90" y="504" style="stroke: #000000; stroke-width: 0.8"/>
      </g>
     </g>
     <g id="text_10">
      <!-- −0.15 -->
      <g transform="translate(52.354687 507.799219)scale(0.1 -0.1)">
       <defs>
        <path id="DejaVuSans-2e" d="M 684 794 
L 1344 794 
L 1344 0 
L 684 0 
L 684 794 
z
" transform="scale(0.015625)"/>
       </defs>
       <use xlink:href="#DejaVuSans-2212"/>
       <use xlink:href="#DejaVuSans-30" x="83.789062"/>
       <use xlink:href="#DejaVuSans-2e" x="147.412109"/>
       <use xlink:href="#DejaVuSans-31" x="179.199219"/>
       <use xlink:href="#DejaVuSans-35" x="242.822266"/>
      </g>
     </g>
    </g>
    <g id="ytick_2">
     <g id="line2d_11">
      <g>
       <use xlink:href="#m2b8f39641a" x="90" y="449.64" style="stroke: #000000; stroke-width: 0.8"/>
      </g>
     </g>
     <g id="text_11">
      <!-- −0.10 -->
      <g transform="translate(52.354687 453.439219)scale(0.1 -0.1)">
       <use xlink:href="#DejaVuSans-2212"/>
       <use xlink:href="#DejaVuSans-30" x="83.789062"/>
       <use xlink:href="#DejaVuSans-2e" x="147.412109"/>
       <use xlink:href="#DejaVuSans-31" x="179.199219"/>
       <use xlink:href="#DejaVuSans-30" x="242.822266"/>
      </g>
     </g>
    </g>
    <g id="ytick_3">
     <g id="line2d_12">
      <g>
       <use xlink:href="#m2b8f39641a" x="90" y="395.28" style="stroke: #000000; stroke-width: 0.8"/>
      </g>
     </g>
     <g id="text_12">
      <!-- −0.05 -->
      <g transform="translate(52.354687 399.079219)scale(0.1 -0.1)">
       <use xlink:href="#DejaVuSans-2212"/>
       <use xlink:href="#DejaVuSans-30" x="83.789062"/>
       <use xlink:href="#DejaVuSans-2e" x="147.412109"/>
       <use xlink:href="#DejaVuSans-30" x="179.199219"/>
       <use xlink:href="#DejaVuSans-35" x="242.822266"/>
      </g>
     </g>
    </g>
    <g id="ytick_4">
     <g id="line2d_13">
      <g>
       <use xlink:href="#m2b8f39641a" x="90" y="340.92" style="stroke: #000000; stroke-width: 0.8"/>
      </g>
     </g>
     <g id="text_13">
      <!-- 0.00 -->
      <g transform="translate(60.734375 344.719219)scale(0.1 -0.1)">
       <use xlink:href="#DejaVuSans-30"/>
       <use xlink:href="#DejaVuSans-2e" x="63.623047"/>
       <use xlink:href="#DejaVuSans-30" x="95.410156"/>
       <use xlink:href="#DejaVuSans-30" x="159.033203"/>
      </g>
     </g>
    </g>
    <g id="ytick_5">
     <g id="line2d_14">
      <g>
       <use xlink:href="#m2b8f39641a" x="90" y="286.56" style="stroke: #000000; stroke-width: 0.8"/>
      </g>
     </g>
     <g id="text_14">
      <!-- 0.05 -->
      <g transform="translate(60.734375 290.359219)scale(0.1 -0.1)">
       <use xlink:href="#DejaVuSans-30"/>
       <use xlink:href="#DejaVuSans-2e" x="63.623047"/>
       <use xlink:href="#DejaVuSans-30" x="95.410156"/>
       <use xlink:href="#DejaVuSans-35" x="159.033203"/>
      </g>
     </g>
    </g>
    <g id="ytick_6">
     <g id="line2d_15">
      <g>
       <use xlink:href="#m2b8f39641a" x="90" y="232.2" style="stroke: #000000; stroke-width: 0.8"/>
      </g>
     </g>
     <g id="text_15">
      <!-- 0.10 -->
      <g transform="translate(60.734375 235.999219)scale(0.1 -0.1)">
       <use xlink:href="#DejaVuSans-30"/>
       <use xlink:href="#DejaVuSans-2e" x="63.623047"/>
       <use xlink:href="#DejaVuSans-31" x="95.410156"/>
       <use xlink:href="#DejaVuSans-30" x="159.033203"/>
      </g>
     </g>
    </g>
    <g id="ytick_7">
     <g id="line2d_16">
      <g>
       <use xlink:href="#m2b8f39641a" x="90" y="177.84" style="stroke: #000000; stroke-width: 0.8"/>
      </g>
     </g>
     <g id="text_16">
      <!-- 0.15 -->
      <g transform="translate(60.734375 181.639219)scale(0.1 -0.1)">
       <use xlink:href="#DejaVuSans-30"/>
       <use xlink:href="#DejaVuSans-2e" x="63.623047"/>
       <use xlink:href="#DejaVuSans-31" x="95.410156"/>
       <use xlink:href="#DejaVuSans-35" x="159.033203"/>
      </g>
     </g>
    </g>
    <g id="ytick_8">
     <g id="line2d_17">
      <g>
       <use xlink:href="#m2b8f39641a" x="90" y="123.48" style="stroke: #000000; stroke-width: 0.8"/>
      </g>
     </g>
     <g id="text_17">
      <!-- 0.20 -->
      <g transform="translate(60.734375 127.279219)scale(0.1 -0.1)">
       <use xlink:href="#DejaVuSans-30"/>
       <use xlink:href="#DejaVuSans-2e" x="63.623047"/>
       <use xlink:href="#DejaVuSans-32" x="95.410156"/>
       <use xlink:href="#DejaVuSans-30" x="159.033203"/>
      </g>
     </g>
    </g>
    <g id="ytick_9">
     <g id="line2d_18">
      <g>
       <use xlink:href="#m2b8f39641a" x="90" y="69.12" style="stroke: #000000; stroke-width: 0.8"/>
      </g>
     </g>
     <g id="text_18">
      <!-- 0.25 -->
      <g transform="translate(60.734375 72.919219)scale(0.1 -0.1)">
       <use xlink:href="#DejaVuSans-30"/>
       <use xlink:href="#DejaVuSans-2e" x="63.623047"/>
       <use xlink:href="#DejaVuSans-32" x="95.410156"/>
       <use xlink:href="#DejaVuSans-35" x="159.033203"/>
      </g>
     </g>
    </g>
   </g>
   <g id="line2d_19">
    <path d="M 115.363636 340.92 
L 163.219554 340.840073 
L 166.409949 340.642115 
L 169.600343 340.13404 
L 172.790738 339.077594 
L 175.981132 337.254065 
L 179.171527 334.54943 
L 182.361921 330.959288 
L 185.552316 326.545078 
L 188.74271 321.445034 
L 195.123499 310.485302 
L 198.313894 305.560647 
L 201.504288 301.497072 
L 204.694683 298.31217 
L 207.885077 295.744027 
L 214.265866 291.240712 
L 217.456261 289.139611 
L 220.646655 287.290752 
L 227.027444 284.127303 
L 230.217839 281.929659 
L 233.408233 278.464882 
L 236.598628 273.348668 
L 239.789022 266.650061 
L 242.979417 258.766946 
L 246.169811 250.142053 
L 255.740995 223.313616 
L 258.931389 215.653137 
L 262.121784 210.080665 
L 265.312178 208.125002 
L 268.502573 211.284979 
L 271.692967 219.714828 
L 278.073756 242.785316 
L 281.264151 251.51555 
L 284.454545 257.026791 
L 287.64494 260.30542 
L 294.025729 264.919934 
L 297.216123 267.634192 
L 300.406518 270.970797 
L 303.596913 274.908848 
L 306.787307 279.162738 
L 309.977702 283.207074 
L 313.168096 286.557937 
L 316.358491 289.133607 
L 319.548885 291.337928 
L 322.73928 293.733027 
L 325.929674 296.562491 
L 329.120069 299.571364 
L 332.310463 302.295386 
L 335.500858 304.490534 
L 341.881647 307.944285 
L 348.262436 311.294297 
L 351.45283 312.373671 
L 354.643225 312.549159 
L 357.833619 311.942148 
L 361.024014 311.11538 
L 364.214408 310.620842 
L 367.404803 310.629454 
L 376.975986 311.505397 
L 380.166381 311.506405 
L 386.54717 311.304802 
L 389.737564 311.51276 
L 392.927959 312.236278 
L 396.118353 313.473164 
L 399.308748 314.88383 
L 402.499142 315.977037 
L 405.689537 316.461962 
L 415.26072 316.501819 
L 418.451115 317.145886 
L 428.022298 320.079023 
L 431.212693 320.572022 
L 434.403087 320.739039 
L 440.783877 320.636632 
L 459.926244 320.084921 
L 463.116638 320.325823 
L 466.307033 321.087938 
L 469.497427 322.486894 
L 472.687822 324.440106 
L 482.259005 331.344572 
L 485.4494 333.267301 
L 488.639794 334.756071 
L 491.830189 335.818999 
L 495.020583 336.513194 
L 498.210978 336.838626 
L 501.401372 336.765215 
L 507.782161 335.919353 
L 510.972556 335.726133 
L 514.16295 336.015946 
L 517.353345 336.809489 
L 523.734134 339.010631 
L 526.924528 339.65304 
L 530.114923 339.562844 
L 533.305317 338.798861 
L 536.495712 337.757485 
L 539.686106 336.865181 
L 542.876501 336.26369 
L 552.447684 335.037006 
L 555.638079 334.844811 
L 565.209262 334.833893 
L 568.399657 334.887249 
L 574.780446 335.309742 
L 577.97084 335.301732 
L 581.161235 334.880381 
L 584.35163 334.099514 
L 590.732419 332.195028 
L 593.922813 331.362332 
L 597.113208 330.776049 
L 600.303602 330.547945 
L 603.493997 330.684627 
L 613.06518 331.806972 
L 619.445969 332.207542 
L 622.636364 332.294296 
L 622.636364 332.294296 
" clip-path="url(#p10915d6a35)" style="fill: none; stroke: #9467bd; stroke-width: 1.5; stroke-linecap: square"/>
   </g>
   <g id="line2d_20">
    <path d="M 115.363636 340.92 
L 163.219554 340.973982 
L 166.409949 341.108701 
L 169.600343 341.451861 
L 172.790738 342.142104 
L 175.981132 343.237362 
L 182.361921 345.85891 
L 185.552316 346.602646 
L 188.74271 346.555492 
L 191.933105 345.766166 
L 198.313894 343.414299 
L 201.504288 342.479305 
L 204.694683 341.753533 
L 211.075472 340.622428 
L 214.265866 340.227266 
L 217.456261 340.009189 
L 220.646655 340.016674 
L 223.83705 340.293052 
L 227.027444 340.879185 
L 230.217839 341.795786 
L 236.598628 344.152025 
L 239.789022 345.033867 
L 242.979417 345.358578 
L 246.169811 345.00921 
L 249.360206 343.983641 
L 252.5506 342.383595 
L 255.740995 340.407157 
L 262.121784 336.208674 
L 265.312178 334.304355 
L 268.502573 332.658342 
L 271.692967 331.316705 
L 274.883362 330.289444 
L 278.073756 329.587389 
L 281.264151 329.265633 
L 284.454545 329.397931 
L 287.64494 329.987267 
L 290.835334 330.932252 
L 294.025729 332.101385 
L 303.596913 336.025878 
L 306.787307 336.972364 
L 309.977702 337.448241 
L 313.168096 337.502823 
L 319.548885 337.247529 
L 322.73928 337.270103 
L 325.929674 337.449475 
L 329.120069 337.811912 
L 332.310463 338.418964 
L 335.500858 339.322054 
L 338.691252 340.503515 
L 345.072041 343.196905 
L 348.262436 344.294778 
L 351.45283 344.950285 
L 354.643225 345.131627 
L 357.833619 345.061922 
L 361.024014 345.122707 
L 364.214408 345.609979 
L 367.404803 346.546853 
L 373.785592 348.839668 
L 376.975986 349.784506 
L 383.356775 351.240939 
L 392.927959 353.202989 
L 396.118353 353.660048 
L 399.308748 353.809717 
L 402.499142 353.561884 
L 405.689537 352.969513 
L 412.070326 351.589793 
L 415.26072 351.143267 
L 418.451115 350.884347 
L 421.641509 350.783404 
L 424.831904 350.84654 
L 431.212693 351.404603 
L 437.593482 352.037799 
L 440.783877 352.128075 
L 443.974271 351.974744 
L 447.164666 351.596813 
L 450.35506 351.047267 
L 456.735849 349.577463 
L 459.926244 348.823855 
L 463.116638 348.277677 
L 466.307033 348.031615 
L 472.687822 347.866912 
L 475.878216 347.447156 
L 479.068611 346.582714 
L 482.259005 345.24098 
L 485.4494 343.490665 
L 488.639794 341.5473 
L 491.830189 339.757273 
L 495.020583 338.443146 
L 498.210978 337.729426 
L 501.401372 337.502921 
L 510.972556 337.612339 
L 514.16295 337.712688 
L 517.353345 337.971928 
L 523.734134 338.916079 
L 530.114923 339.793103 
L 536.495712 340.354253 
L 539.686106 340.499317 
L 542.876501 340.449445 
L 546.066895 340.173133 
L 552.447684 339.319967 
L 555.638079 339.035375 
L 558.828473 338.947217 
L 565.209262 338.956667 
L 568.399657 338.789268 
L 574.780446 338.083788 
L 581.161235 337.112097 
L 587.542024 335.817562 
L 593.922813 334.535073 
L 603.493997 333.094921 
L 609.874786 332.14068 
L 613.06518 331.7766 
L 616.255575 331.555633 
L 622.636364 331.420058 
L 622.636364 331.420058 
" clip-path="url(#p10915d6a35)" style="fill: none; stroke: #1f77b4; stroke-width: 1.5; stroke-linecap: square"/>
   </g>
   <g id="line2d_21">
    <path d="M 115.363636 340.92 
L 252.5506 340.872526 
L 255.740995 340.661715 
L 258.931389 339.821999 
L 262.121784 337.210011 
L 265.312178 330.854475 
L 268.502573 318.726634 
L 271.692967 300.492056 
L 278.073756 257.607771 
L 281.264151 240.422984 
L 284.454545 227.657905 
L 287.64494 217.923008 
L 290.835334 209.699586 
L 294.025729 202.36708 
L 297.216123 196.118417 
L 300.406518 191.356227 
L 303.596913 188.231032 
L 306.787307 186.593247 
L 309.977702 186.210838 
L 313.168096 186.92784 
L 316.358491 188.6248 
L 319.548885 191.063589 
L 325.929674 196.47672 
L 329.120069 198.743357 
L 332.310463 200.620209 
L 348.262436 208.772588 
L 351.45283 210.243159 
L 354.643225 211.436609 
L 361.024014 213.53683 
L 364.214408 215.058349 
L 367.404803 217.233909 
L 370.595197 220.012497 
L 376.975986 225.981148 
L 383.356775 231.602548 
L 386.54717 234.907679 
L 392.927959 242.370182 
L 396.118353 245.790498 
L 399.308748 248.670635 
L 402.499142 251.010951 
L 405.689537 252.964071 
L 412.070326 256.476944 
L 415.26072 258.125291 
L 418.451115 259.553922 
L 421.641509 260.703479 
L 428.022298 262.526471 
L 440.783877 266.154468 
L 443.974271 267.176651 
L 447.164666 268.618395 
L 450.35506 270.806852 
L 453.545455 273.785205 
L 456.735849 277.164182 
L 459.926244 280.327117 
L 463.116638 282.825249 
L 466.307033 284.628341 
L 472.687822 287.496785 
L 475.878216 289.18164 
L 479.068611 291.21209 
L 482.259005 293.712431 
L 485.4494 296.845935 
L 488.639794 300.655026 
L 498.210978 313.516589 
L 501.401372 317.181639 
L 504.591767 320.306751 
L 507.782161 322.933283 
L 510.972556 325.025349 
L 514.16295 326.454342 
L 517.353345 327.140229 
L 520.543739 327.132842 
L 523.734134 326.556021 
L 526.924528 325.563465 
L 533.305317 323.305125 
L 536.495712 322.587794 
L 539.686106 322.28395 
L 562.018868 322.056534 
L 565.209262 322.299486 
L 574.780446 323.422521 
L 577.97084 323.474505 
L 584.35163 323.12476 
L 593.922813 322.394579 
L 600.303602 321.851852 
L 603.493997 321.804318 
L 606.684391 322.092793 
L 609.874786 322.766127 
L 619.445969 325.557659 
L 622.636364 326.011275 
L 622.636364 326.011275 
" clip-path="url(#p10915d6a35)" style="fill: none; stroke: #d62728; stroke-width: 1.5; stroke-linecap: square"/>
   </g>
   <g id="line2d_22">
    <path d="M 115.363636 320.41601 
L 124.93482 320.503243 
L 128.125214 320.239622 
L 131.315609 319.672646 
L 137.696398 318.102656 
L 140.886792 317.612734 
L 147.267581 317.274283 
L 150.457976 316.812924 
L 153.64837 315.901701 
L 160.02916 313.596102 
L 163.219554 312.933625 
L 166.409949 312.993742 
L 169.600343 314.013205 
L 172.790738 316.288265 
L 175.981132 320.1404 
L 179.171527 325.711494 
L 182.361921 332.755627 
L 191.933105 356.319089 
L 195.123499 363.163646 
L 198.313894 368.969793 
L 201.504288 373.546369 
L 204.694683 376.874759 
L 207.885077 379.146266 
L 211.075472 380.596444 
L 214.265866 381.290659 
L 217.456261 381.129587 
L 220.646655 380.081616 
L 223.83705 378.377468 
L 227.027444 376.480624 
L 230.217839 374.898332 
L 233.408233 373.996063 
L 236.598628 373.924622 
L 239.789022 374.668156 
L 242.979417 376.122247 
L 246.169811 378.126792 
L 252.5506 382.867903 
L 255.740995 384.922796 
L 258.931389 386.17531 
L 262.121784 386.360521 
L 265.312178 385.640844 
L 268.502573 384.517574 
L 271.692967 383.518725 
L 274.883362 382.996803 
L 278.073756 383.110361 
L 281.264151 383.840217 
L 290.835334 387.25516 
L 294.025729 387.785754 
L 297.216123 387.753016 
L 300.406518 387.213027 
L 303.596913 386.258007 
L 306.787307 384.916245 
L 309.977702 383.135996 
L 313.168096 380.875237 
L 322.73928 372.860498 
L 325.929674 370.573025 
L 329.120069 368.556653 
L 332.310463 366.764564 
L 335.500858 365.283801 
L 338.691252 364.264376 
L 341.881647 363.742737 
L 345.072041 363.59372 
L 351.45283 363.776746 
L 357.833619 364.273968 
L 361.024014 364.708562 
L 364.214408 365.30984 
L 370.595197 366.750105 
L 373.785592 367.317339 
L 380.166381 368.293685 
L 383.356775 369.101675 
L 389.737564 371.268897 
L 392.927959 372.085849 
L 396.118353 372.360508 
L 399.308748 371.948319 
L 402.499142 370.880383 
L 405.689537 369.364788 
L 412.070326 365.872707 
L 415.26072 363.970849 
L 418.451115 361.871073 
L 424.831904 357.457364 
L 428.022298 355.576003 
L 431.212693 354.084886 
L 434.403087 352.968777 
L 437.593482 352.206184 
L 440.783877 351.818963 
L 443.974271 351.81016 
L 453.545455 352.630626 
L 456.735849 352.669324 
L 459.926244 352.570251 
L 463.116638 352.352403 
L 466.307033 351.936029 
L 469.497427 351.205776 
L 472.687822 350.153726 
L 479.068611 347.823581 
L 482.259005 346.949906 
L 485.4494 346.381204 
L 488.639794 346.113912 
L 491.830189 346.094426 
L 501.401372 346.427285 
L 504.591767 346.395912 
L 510.972556 346.008752 
L 517.353345 345.611658 
L 523.734134 345.482524 
L 526.924528 345.281863 
L 536.495712 344.314697 
L 549.25729 343.946963 
L 555.638079 343.318277 
L 558.828473 342.802229 
L 565.209262 341.374059 
L 571.590051 339.922206 
L 574.780446 339.370281 
L 581.161235 338.61879 
L 590.732419 337.668967 
L 597.113208 336.952117 
L 600.303602 336.692008 
L 603.493997 336.586596 
L 609.874786 336.819625 
L 619.445969 337.314952 
L 622.636364 337.381177 
L 622.636364 337.381177 
" clip-path="url(#p10915d6a35)" style="fill: none; stroke: #bcbd22; stroke-width: 1.5; stroke-linecap: square"/>
   </g>
   <g id="patch_3">
    <path d="M 90 504 
L 90 69.12 
" style="fill: none; stroke: #000000; stroke-width: 0.8; stroke-linejoin: miter; stroke-linecap: square"/>
   </g>
   <g id="patch_4">
    <path d="M 648 504 
L 648 69.12 
" style="fill: none; stroke: #000000; stroke-width: 0.8; stroke-linejoin: miter; stroke-linecap: square"/>
   </g>
   <g id="patch_5">
    <path d="M 90 504 
L 648 504 
" style="fill: none; stroke: #000000; stroke-width: 0.8; stroke-linejoin: miter; stroke-linecap: square"/>
   </g>
   <g id="patch_6">
    <path d="M 90 69.12 
L 648 69.12 
" style="fill: none; stroke: #000000; stroke-width: 0.8; stroke-linejoin: miter; stroke-linecap: square"/>
   </g>
  </g>
 </g>
 <defs>
  <clipPath id="p10915d6a35">
   <rect x="90" y="69.12" width="558" height="434.88"/>
  </clipPath>
 </defs>
</svg>
